<?xml version="1.0" ?>
<svg xmlns="http://www.w3.org/2000/svg" version="1.1" width="364" height="490">
  <defs/>
  <g>
    <path d="M 149.98011779785156 -4.218740463256836 C 146.70669555664062 -7.030004978179932 145.39889526367188 -8.164705276489258 147.30702209472656 -6.26589822769165 C 149.88363647460938 -1.3348603248596191 149.10804748535156 4.279948711395264 148.01580810546875 7.626707077026367 C 148.54893493652344 7.3806328773498535 148.80979919433594 6.318943023681641 148.38385009765625 6.421349048614502 C 148.35621643066406 8.320430755615234 147.56671142578125 11.664790153503418 147.17481994628906 16.12795066833496 C 146.28822326660156 22.562320709228516 144.97474670410156 28.987346649169922 144.89163208007812 33.76443862915039 C 149.4699249267578 31.92429542541504 163.24192810058594 27.408935546875 181.54702758789062 24.875709533691406 C 195.54541015625 23.11922264099121 205.30270385742188 22.852399826049805 216.29351806640625 22.99347496032715 C 228.49807739257812 23.49150276184082 242.97364807128906 24.53455924987793 256.6954650878906 27.820783615112305 C 270.2803955078125 31.173049926757812 286.5491943359375 35.44784927368164 300.1182556152344 44.175140380859375 C 288.0980224609375 54.130531311035156 303.6834716796875 50.222084045410156 323.575439453125 58.44024658203125 C 300.4874572753906 71.46155548095703 314.5621337890625 65.76058197021484 346.2634582519531 79.64297485351562 C 330.3375549316406 80.92920684814453 343.24664306640625 86.58052062988281 323.5679016113281 97.86143493652344 C 352.0287780761719 108.1374740600586 357.5090026855469 103.14083862304688 327.36041259765625 115.28498077392578 C 312.02117919921875 117.98190307617188 325.0701599121094 125.98351287841797 331.7080383300781 147.3430938720703 C 306.3908386230469 135.8498992919922 313.746826171875 134.39547729492188 304.2292785644531 167.19483947753906 C 312.7431640625 171.0985870361328 323.2975158691406 177.8208465576172 327.0944519042969 194.7125701904297 C 329.4044494628906 210.97091674804688 322.5579528808594 227.11917114257812 303.7562255859375 235.31893920898438 C 290.5214538574219 235.7425537109375 286.7666320800781 243.692138671875 270.1866455078125 248.9989776611328 C 237.28903198242188 258.0984191894531 216.1981964111328 271.3528747558594 218.62799072265625 251.21438598632812 C 250.12640380859375 256.4640197753906 256.2687683105469 245.32940673828125 235.04031372070312 239.2176513671875 C 213.4163818359375 234.7971649169922 201.68630981445312 236.15713500976562 204.529052734375 228.9309539794922 C 217.66807556152344 219.6266632080078 235.09632873535156 217.29151916503906 251.67401123046875 220.48599243164062 C 263.6781311035156 224.3468780517578 271.7578125 227.41314697265625 277.2037658691406 228.93115234375 C 281.3739929199219 228.35704040527344 284.36639404296875 225.269775390625 285.8574523925781 219.16656494140625 C 285.86248779296875 210.25010681152344 284.7120056152344 199.0408935546875 283.869873046875 186.33956909179688 C 283.8536682128906 172.79412841796875 283.1266174316406 160.08352661132812 280.4449462890625 148.95181274414062 C 275.3025207519531 140.27256774902344 268.2379455566406 134.6295166015625 260.0516662597656 131.8086395263672 C 251.47882080078125 130.99501037597656 242.24942016601562 131.8928680419922 232.106689453125 133.74864196777344 C 221.31704711914062 134.86952209472656 211.3305206298828 134.22254943847656 203.52235412597656 131.82546997070312 C 197.97828674316406 128.9519805908203 192.9932403564453 127.60559844970703 186.6051788330078 128.1228790283203 C 177.71505737304688 127.95146942138672 169.5334930419922 124.51258087158203 164.95907592773438 120.50979614257812 C 163.0357208251953 121.59941101074219 161.34263610839844 126.84162139892578 158.06185913085938 133.9987030029297 C 153.3509063720703 140.76171875 148.43446350097656 147.057861328125 144.36898803710938 153.2834930419922 C 141.93414306640625 159.7536163330078 139.07803344726562 166.72544860839844 136.10263061523438 174.592529296875 C 133.5867919921875 184.4017791748047 131.71066284179688 195.1328582763672 130.2827606201172 205.65313720703125 C 127.44174194335938 214.57374572753906 119.79119873046875 218.92013549804688 109.62085723876953 216.16482543945312 C 99.96745300292969 206.1603546142578 91.98533630371094 193.70167541503906 85.728271484375 184.20472717285156 C 81.11084747314453 183.0754852294922 78.2172622680664 187.9699249267578 77.18170166015625 195.61631774902344 C 78.24580383300781 202.71853637695312 81.77818298339844 208.95582580566406 88.16263580322266 214.0902862548828 C 97.72434997558594 217.90760803222656 109.89335632324219 221.10379028320312 123.84335327148438 224.3824005126953 C 138.29888916015625 227.79269409179688 151.60816955566406 231.16270446777344 163.39808654785156 234.60064697265625 C 173.84239196777344 239.607666015625 186.45191955566406 249.85458374023438 211.6088409423828 258.36541748046875 C 245.2806854248047 259.79815673828125 245.9225311279297 281.5186767578125 199.24200439453125 282.4962463378906 C 178.8876190185547 291.8521728515625 171.46539306640625 295.5569763183594 170.16226196289062 291.9756774902344 C 168.85574340820312 287.51031494140625 168.23101806640625 286.65802001953125 169.86083984375 291.9996643066406 C 174.72781372070312 303.5478820800781 175.88536071777344 317.6372985839844 168.0969696044922 328.1007080078125 C 150.35679626464844 329.01177978515625 128.8565216064453 322.4710998535156 111.43173217773438 313.4637451171875 C 104.51237487792969 304.9910583496094 104.3087158203125 299.50921630859375 105.18194580078125 298.8946838378906 C 102.28732299804688 302.858642578125 94.09447479248047 305.95782470703125 83.35589599609375 302.7221374511719 C 74.14417266845703 292.38494873046875 82.08543395996094 280.1448059082031 88.72419738769531 259.7161865234375 C 98.97274017333984 239.50552368164062 109.39315795898438 233.32147216796875 98.87600708007812 236.70840454101562 C 78.22441864013672 239.2542266845703 62.96075439453125 225.6033477783203 58.693092346191406 209.6360626220703 C 55.0294075012207 194.80775451660156 60.94146728515625 179.57083129882812 75.71898651123047 169.5493621826172 C 86.71266174316406 164.4611053466797 87.3213882446289 168.82203674316406 85.10828399658203 157.2622833251953 C 82.14875793457031 138.0565948486328 83.42164611816406 114.89847564697266 87.17152404785156 95.06370544433594 C 93.45231628417969 71.15210723876953 107.69679260253906 71.59236145019531 79.5843276977539 69.4590835571289 C 75.5476303100586 66.50879669189453 94.32115936279297 60.944725036621094 104.9033432006836 54.92139434814453 C 82.7747802734375 42.691192626953125 68.5714340209961 38.382450103759766 82.61271667480469 38.19511032104492 C 111.05317687988281 36.91956329345703 125.53392791748047 40.49736404418945 125.539306640625 34.4085578918457 C 137.9724884033203 14.844552040100098 148.73037719726562 -4.297809600830078 149.98011779785156 -4.218740463256836" stroke-width="0.0" fill="rgb(80, 41, 41)" opacity="0.99997514" stroke="rgb(34, 115, 167)" stroke-opacity="0.06597448" stroke-linecap="round" stroke-linejoin="round"/>
    <path d="M 154.78640747070312 273.77288818359375 C 155.84422302246094 269.46929931640625 156.72128295898438 265.3501281738281 157.26434326171875 261.8452453613281 C 157.44387817382812 259.498046875 157.29928588867188 258.8599548339844 156.84962463378906 260.4447937011719 C 156.2350616455078 264.4861755371094 155.71226501464844 270.8118591308594 155.3988494873047 278.615478515625 C 155.4171142578125 286.78759765625 155.71473693847656 293.98748779296875 156.9912872314453 298.70257568359375 C 160.4512176513672 298.5248718261719 164.55331420898438 296.8611755371094 168.66079711914062 296.9472351074219 C 170.69898986816406 296.765625 171.18885803222656 292.9200744628906 171.40878295898438 286.8036804199219 C 173.42686462402344 281.1940612792969 178.70742797851562 279.0470886230469 185.00827026367188 284.5226135253906 C 186.57350158691406 288.4964294433594 183.9435577392578 294.01519775390625 185.20603942871094 299.0355224609375 C 186.402587890625 302.2724609375 187.3050537109375 303.007080078125 187.37644958496094 302.8533630371094 C 187.11776733398438 303.30084228515625 186.54718017578125 302.6411437988281 185.19741821289062 298.3724365234375 C 184.40988159179688 288.1001892089844 186.9152069091797 283.086669921875 188.88970947265625 291.51141357421875 C 206.09771728515625 303.3133850097656 216.00558471679688 296.2709045410156 219.3028564453125 277.48883056640625 C 221.0787353515625 271.1458740234375 224.91360473632812 281.344970703125 230.63133239746094 298.06866455078125 C 240.4507598876953 302.7915344238281 241.78530883789062 289.55401611328125 256.10089111328125 293.0220642089844 C 273.9122619628906 301.84765625 276.9972229003906 312.1952819824219 262.5856018066406 314.3868408203125 C 270.3824157714844 323.6903991699219 274.7684020996094 336.9573669433594 268.4363708496094 337.9707946777344 C 258.1356506347656 340.97149658203125 256.8530578613281 332.7256164550781 254.27377319335938 331.33184814453125 C 259.8807373046875 349.14666748046875 253.62069702148438 363.8023376464844 243.15533447265625 354.0489196777344 C 238.54562377929688 344.37994384765625 246.36233520507812 341.5874938964844 233.50375366210938 341.7453918457031 C 214.51597595214844 343.0709533691406 209.36399841308594 338.9291687011719 206.9414825439453 335.2310791015625 C 213.2710723876953 351.45947265625 211.7608184814453 365.3967590332031 198.77944946289062 358.8003845214844 C 195.0093994140625 354.2960205078125 198.74053955078125 365.81915283203125 188.1766815185547 378.1773681640625 C 174.4176788330078 377.41363525390625 173.05850219726562 375.9803466796875 169.94406127929688 386.7413330078125 C 175.66436767578125 396.77301025390625 166.67776489257812 401.822265625 162.9307403564453 413.995361328125 C 157.83868408203125 423.4762878417969 160.32772827148438 425.8437194824219 163.34115600585938 433.17431640625 C 175.75489807128906 431.9166564941406 187.47120666503906 436.82794189453125 195.36366271972656 445.13714599609375 C 205.21408081054688 454.0868225097656 203.34298706054688 464.0105895996094 208.2286834716797 471.921142578125 C 208.16659545898438 482.71343994140625 208.80706787109375 487.9589538574219 206.98080444335938 486.9164733886719 C 195.3857879638672 487.6648864746094 180.5415802001953 486.639404296875 164.3775177001953 487.10540771484375 C 149.6188201904297 487.17584228515625 136.61781311035156 487.3749084472656 124.91865539550781 487.2798767089844 C 115.58006286621094 487.1979064941406 109.67655181884766 487.4572448730469 108.76878356933594 487.0008239746094 C 109.9446792602539 487.4148864746094 105.37145233154297 487.1654357910156 94.85951232910156 487.23822021484375 C 79.16899108886719 487.2514953613281 62.07155227661133 487.217529296875 48.38098907470703 487.19207763671875 C 44.98380661010742 488.18353271484375 46.05451965332031 481.4593200683594 46.313720703125 470.4439697265625 C 52.37739181518555 466.56085205078125 46.02351379394531 453.4339904785156 55.66788101196289 441.76171875 C 63.89345932006836 437.1748352050781 55.18460464477539 429.9135437011719 63.62860107421875 423.7552490234375 C 70.9781723022461 422.0201721191406 73.23037719726562 404.4520263671875 82.64661407470703 385.9353332519531 C 82.18050384521484 380.27801513671875 79.7740707397461 388.3017578125 74.67984008789062 390.4111633300781 C 73.5028305053711 377.90185546875 72.10466766357422 359.9107666015625 70.9583740234375 344.2704162597656 C 77.95476531982422 336.62255859375 71.79456329345703 333.6003723144531 71.68864440917969 319.5717468261719 C 70.60845947265625 313.9778747558594 76.83900451660156 315.74945068359375 76.94207000732422 306.1293029785156 C 78.84193420410156 294.06256103515625 81.09193420410156 288.39117431640625 89.30514526367188 292.7539367675781 C 94.15022277832031 287.7989501953125 98.14541625976562 281.2418212890625 104.66098022460938 278.06903076171875 C 113.35295104980469 279.9090881347656 121.64002990722656 282.8875427246094 128.43212890625 285.5367736816406 C 135.0563507080078 287.7728271484375 143.01611328125 290.4067077636719 151.3675994873047 294.2218017578125 C 159.17840576171875 298.02410888671875 161.60137939453125 305.0733337402344 162.71656799316406 312.90142822265625 C 164.96206665039062 317.8976745605469 167.03292846679688 322.2375793457031 169.24339294433594 327.4085998535156 C 172.47608947753906 334.3807678222656 173.6334686279297 341.5773620605469 172.31137084960938 348.59625244140625 C 172.41831970214844 352.93170166015625 172.51864624023438 352.3100891113281 172.69769287109375 346.5680847167969 C 172.42701721191406 338.78521728515625 172.49374389648438 336.93267822265625 177.56414794921875 342.7453918457031 C 184.96600341796875 350.6209411621094 188.65335083007812 356.26544189453125 188.9153594970703 355.32696533203125 C 184.40260314941406 349.63885498046875 176.0453338623047 342.62896728515625 172.05078125 336.64434814453125 C 182.26708984375 334.3518371582031 194.67367553710938 334.037109375 201.09092712402344 334.4380798339844 C 202.2091827392578 334.90069580078125 199.5874481201172 333.7491760253906 192.5867919921875 333.5065002441406 C 182.51002502441406 335.0913391113281 174.17047119140625 337.2141418457031 171.537841796875 334.9194641113281 C 169.61102294921875 328.12396240234375 167.44541931152344 322.85186767578125 165.81692504882812 319.8330078125 C 163.78443908691406 320.0226135253906 161.86769104003906 321.4805603027344 160.71505737304688 322.8249816894531 C 160.78573608398438 322.10223388671875 160.79550170898438 317.0701904296875 160.5361328125 306.77398681640625 C 156.60586547851562 294.684814453125 155.51858520507812 280.7501525878906 157.0044403076172 266.5441589355469 C 159.72274780273438 252.65740966796875 162.9154815673828 238.8877716064453 154.78640747070312 273.77288818359375" stroke-width="0.0" fill="rgb(48, 111, 111)" opacity="0.9998311" stroke="rgb(220, 24, 152)" stroke-opacity="0.60477114" stroke-linecap="round" stroke-linejoin="round"/>
    <path d="M 192.14044189453125 28.09734344482422 C 194.78123474121094 27.92000961303711 198.3702850341797 28.0458927154541 201.9479522705078 27.99542999267578 C 205.2021484375 28.00286865234375 208.3258514404297 27.995925903320312 211.13131713867188 27.999263763427734 C 213.47299194335938 28.001474380493164 215.47972106933594 27.998565673828125 217.04568481445312 28.000661849975586 C 218.20225524902344 27.9960994720459 219.14242553710938 28.002971649169922 219.86648559570312 27.99932861328125 C 220.56248474121094 28.00344467163086 221.3629608154297 28.001890182495117 222.235107421875 28.000234603881836 C 223.06784057617188 28.001916885375977 223.8625030517578 27.999446868896484 224.4010467529297 27.99927520751953 C 224.4507293701172 28.019269943237305 224.20648193359375 27.972122192382812 223.5109405517578 28.0246639251709 C 222.68167114257812 27.776409149169922 221.6616973876953 27.6025447845459 220.6896209716797 27.18777847290039 C 219.99722290039062 26.87318229675293 219.68743896484375 26.769243240356445 220.12188720703125 26.9367618560791 C 221.2896728515625 27.605398178100586 223.27154541015625 28.222135543823242 226.7601318359375 27.960037231445312 C 229.6208953857422 29.318538665771484 232.8107147216797 28.93399429321289 236.5996856689453 29.006092071533203 C 239.6127166748047 29.531112670898438 241.8784637451172 30.256925582885742 243.27239990234375 29.892780303955078 C 243.3592987060547 29.907861709594727 242.23484802246094 30.094587326049805 240.2166748046875 29.954280853271484 C 238.73577880859375 29.548389434814453 238.1383514404297 29.432321548461914 239.7505340576172 29.66055679321289 C 243.78091430664062 30.0418643951416 251.1767120361328 31.368196487426758 261.1467590332031 33.75006103515625 C 272.946533203125 36.35071563720703 283.7139892578125 40.54867935180664 292.0150451660156 44.921775817871094 C 292.01849365234375 48.50041198730469 289.5216369628906 50.39008331298828 284.66851806640625 47.650882720947266 C 274.4315490722656 46.086585998535156 266.61724853515625 42.11376190185547 259.8213806152344 40.95351028442383 C 256.08984375 39.31954574584961 254.72207641601562 39.167991638183594 255.23587036132812 39.65550231933594 C 257.261962890625 40.26542663574219 259.9727783203125 40.69327926635742 261.4383544921875 43.0849723815918 C 263.2212219238281 44.51655960083008 263.9101867675781 45.9529914855957 263.867431640625 47.68642807006836 C 263.3624572753906 48.91630554199219 262.56396484375 49.91922378540039 262.6122131347656 51.10014343261719 C 262.989501953125 52.66421890258789 262.77386474609375 53.81156539916992 261.55010986328125 54.763431549072266 C 262.0985412597656 56.54380798339844 261.4919738769531 58.17319107055664 260.7217102050781 59.874427795410156 C 259.81072998046875 61.22197723388672 259.51104736328125 62.98579788208008 259.7740173339844 65.00860595703125 C 258.44122314453125 66.03340911865234 257.2160949707031 66.68329620361328 256.4925842285156 68.06495666503906 C 255.99163818359375 69.03147888183594 254.9340362548828 69.59207916259766 253.76791381835938 70.00990295410156 C 252.53184509277344 70.36656188964844 251.24830627441406 70.66382598876953 249.9745330810547 70.98214721679688 C 248.75611877441406 71.30073547363281 247.63287353515625 71.59384155273438 246.59359741210938 71.82949829101562 C 245.64390563964844 71.98098754882812 244.7851104736328 72.0261459350586 243.9803924560547 71.924072265625 C 243.20147705078125 71.68839263916016 242.38621520996094 71.3664779663086 241.4832000732422 70.98246002197266 C 240.48312377929688 70.62312316894531 239.36013793945312 70.40055847167969 238.12171936035156 70.33927917480469 C 236.793212890625 70.4927978515625 235.43141174316406 70.87444305419922 234.0504913330078 71.48360443115234 C 232.6905975341797 72.29217529296875 231.4016571044922 73.26282501220703 230.19302368164062 74.33110809326172 C 229.0826416015625 75.42528533935547 228.1005401611328 76.49440002441406 227.1977996826172 77.46037292480469 C 226.37344360351562 78.2401351928711 225.59999084472656 78.82974243164062 224.8189697265625 79.23986053466797 C 223.98095703125 79.46133422851562 223.07992553710938 79.54313659667969 222.08558654785156 79.53997039794922 C 221.0253448486328 79.49816131591797 219.9464874267578 79.48155212402344 218.87515258789062 79.5423583984375 C 217.82052612304688 79.7066421508789 216.8208465576172 79.95504760742188 215.93641662597656 80.24922180175781 C 215.15989685058594 80.54000091552734 214.45950317382812 80.75245666503906 213.88514709472656 80.78889465332031 C 213.32415771484375 80.5694580078125 212.71463012695312 80.11043548583984 212.0396270751953 79.4062271118164 C 211.2744598388672 78.45724487304688 210.3497314453125 77.34991455078125 209.27774047851562 76.16613006591797 C 208.0606231689453 75.00125885009766 206.678955078125 74.04306030273438 205.07130432128906 73.27122497558594 C 203.82763671875 73.55789184570312 202.43768310546875 74.35057830810547 201.12071228027344 75.31184387207031 C 199.87973022460938 76.28959655761719 198.73252868652344 77.20933532714844 197.7062225341797 78.00834655761719 C 196.7884521484375 78.63043212890625 195.9508514404297 79.09501647949219 195.18968200683594 79.40145111083984 C 194.44056701660156 79.51976013183594 193.6728515625 79.4426498413086 192.8396759033203 79.2099609375 C 191.9208984375 78.86758422851562 190.90724182128906 78.4409408569336 189.79098510742188 77.93275451660156 C 188.5182647705078 77.2930908203125 187.08749389648438 76.49028778076172 185.4924774169922 75.51534271240234 C 183.66397094726562 74.41226196289062 181.5961456298828 73.1895751953125 179.3184814453125 71.81412506103516 C 176.98130798339844 70.2822265625 174.7639923095703 68.53865051269531 172.95249938964844 66.63290405273438 C 171.75706481933594 64.58802032470703 170.97361755371094 62.556060791015625 170.45126342773438 60.63456344604492 C 168.78421020507812 59.38736343383789 166.75999450683594 57.470176696777344 163.2404327392578 55.82091522216797 C 158.76231384277344 53.07189178466797 152.8280029296875 51.461055755615234 147.0632781982422 48.590816497802734 C 141.78050231933594 46.63606262207031 138.90115356445312 43.46448516845703 138.78274536132812 40.91343307495117 C 144.04888916015625 39.13399124145508 150.50108337402344 36.94486618041992 158.0570068359375 34.424842834472656 C 165.1438446044922 33.18142318725586 170.49839782714844 31.12735366821289 174.81610107421875 30.72438621520996 C 177.67958068847656 29.574892044067383 179.44992065429688 30.210676193237305 180.49923706054688 29.938085556030273 C 181.50750732421875 29.831226348876953 182.5064697265625 29.42251205444336 183.6538848876953 29.087934494018555 C 185.4123077392578 28.76175308227539 187.1214141845703 29.52008628845215 192.14044189453125 28.09734344482422" stroke-width="0.0" fill="rgb(128, 64, 64)" opacity="1.0" stroke="rgb(120, 5, 132)" stroke-opacity="0.43978372" stroke-linecap="round" stroke-linejoin="round"/>
    <path d="M 155.55416870117188 104.34367370605469 C 158.373046875 105.10835266113281 160.84007263183594 106.17510986328125 163.01422119140625 107.49101257324219 C 165.040283203125 108.86965942382812 166.85838317871094 110.52509307861328 168.44735717773438 112.6061782836914 C 170.00216674804688 114.99948120117188 171.5918731689453 117.3868179321289 173.293212890625 119.36640930175781 C 175.1704559326172 120.40290069580078 177.31329345703125 119.92459869384766 179.413818359375 117.93916320800781 C 181.17068481445312 115.05783081054688 182.3379669189453 112.48950958251953 182.84085083007812 111.32862854003906 C 182.72454833984375 112.17445373535156 182.2609405517578 114.67414855957031 181.6937713623047 118.11223602294922 C 182.4403076171875 121.38544464111328 182.61734008789062 123.72059631347656 182.55865478515625 124.4050521850586 C 182.5911865234375 123.3681411743164 182.19261169433594 121.4787368774414 181.0761260986328 119.55065155029297 C 178.9408721923828 118.08588409423828 175.95797729492188 117.13227844238281 172.76766967773438 116.53409576416016 C 170.1079559326172 116.02513122558594 168.6154022216797 115.75606536865234 168.7363739013672 115.7699966430664 C 171.08180236816406 115.811767578125 174.65447998046875 115.75952911376953 178.26959228515625 114.92059326171875 C 181.24041748046875 113.23474884033203 183.47177124023438 111.56241607666016 185.1188201904297 110.57453155517578 C 186.3334197998047 110.40298461914062 187.39891052246094 111.16165161132812 188.70693969726562 112.75550842285156 C 190.60667419433594 114.7746353149414 192.69027709960938 116.73310852050781 195.42703247070312 117.78276062011719 C 198.90109252929688 117.49376678466797 202.59246826171875 115.6102066040039 205.51980590820312 112.33949279785156 C 208.86172485351562 109.71382141113281 211.8874969482422 109.53601837158203 213.50437927246094 112.42176818847656 C 213.00582885742188 119.37654113769531 209.9044952392578 127.60022735595703 205.48341369628906 135.60643005371094 C 200.69235229492188 141.3054656982422 196.14292907714844 144.25987243652344 192.5764617919922 144.8169708251953 C 190.44815063476562 143.791259765625 189.7738800048828 142.03582763671875 190.47604370117188 140.36474609375 C 192.36505126953125 139.53602600097656 195.0355987548828 139.95631408691406 197.9380645751953 141.54779052734375 C 200.51199340820312 143.91563415527344 202.511474609375 146.4914093017578 204.0432586669922 148.89913940429688 C 205.3520050048828 150.90274047851562 206.67636108398438 152.30482482910156 208.188232421875 152.91102600097656 C 210.03553771972656 152.6401824951172 212.24974060058594 151.64849853515625 214.8029327392578 150.22003173828125 C 217.6269073486328 148.68405151367188 220.5639190673828 147.35037231445312 223.43113708496094 146.43984985351562 C 226.0262451171875 146.0999298095703 228.08349609375 146.074462890625 229.3477783203125 146.0535125732422 C 229.6065216064453 145.72132873535156 228.76597595214844 144.78176879882812 226.87313842773438 142.9808807373047 C 224.2376708984375 140.11033630371094 221.96719360351562 136.1978759765625 221.32635498046875 131.76840209960938 C 223.36953735351562 127.00208282470703 228.61477661132812 122.46961212158203 235.97915649414062 118.8768081665039 C 243.87364196777344 117.45426940917969 250.1875457763672 119.17662048339844 254.5249481201172 121.80022430419922 C 256.25006103515625 123.26800537109375 256.0290832519531 123.88674926757812 255.43605041503906 123.69154357910156 C 256.1767578125 122.65555572509766 259.1023254394531 120.5172119140625 263.040283203125 117.8536148071289 C 266.4457092285156 115.96680450439453 268.2499694824219 116.7901840209961 268.4215393066406 120.19383239746094 C 268.0823669433594 124.09516906738281 267.8822021484375 126.82780456542969 268.50567626953125 127.6926498413086 C 269.99774169921875 126.56224822998047 272.2110900878906 124.57962799072266 274.8829650878906 123.82012939453125 C 277.51666259765625 125.94658660888672 279.7568359375 130.00657653808594 281.4149169921875 137.164306640625 C 282.29876708984375 146.7047119140625 282.39117431640625 156.51834106445312 281.51947021484375 164.4285125732422 C 279.23333740234375 168.34072875976562 275.8223571777344 166.99334716796875 271.0690002441406 163.2639923095703 C 266.0910339355469 160.29502868652344 262.27716064453125 158.10804748535156 260.10125732421875 156.25624084472656 C 258.73846435546875 155.69503784179688 257.8453369140625 155.7047576904297 257.7085266113281 155.7238006591797 C 258.2638854980469 155.68157958984375 259.4256591796875 155.7599334716797 260.38824462890625 156.49252319335938 C 260.9356384277344 157.0740966796875 261.86395263671875 157.56358337402344 263.4598388671875 158.6541290283203 C 265.89508056640625 160.33554077148438 269.495849609375 162.18019104003906 273.88385009765625 165.18284606933594 C 277.07965087890625 168.7816925048828 274.06976318359375 174.37782287597656 270.302001953125 179.7333221435547 C 266.092529296875 184.3636474609375 261.20068359375 187.73374938964844 256.1636962890625 189.50433349609375 C 251.79615783691406 191.38124084472656 247.34730529785156 192.0757598876953 243.41122436523438 192.62158203125 C 239.88604736328125 193.0976104736328 236.62686157226562 193.5016326904297 233.61758422851562 193.84384155273438 C 230.79620361328125 194.14207458496094 227.94346618652344 194.40057373046875 224.80886840820312 194.5746307373047 C 221.3667755126953 194.7948760986328 217.47080993652344 195.25424194335938 213.15499877929688 195.5576629638672 C 208.45556640625 195.71945190429688 203.62290954589844 195.64288330078125 199.09915161132812 195.1719207763672 C 195.3635711669922 194.16329956054688 192.73226928710938 192.7080078125 191.05950927734375 190.98434448242188 C 189.9369354248047 188.41683959960938 188.78012084960938 185.30870056152344 187.16311645507812 181.86000061035156 C 184.96017456054688 178.31341552734375 182.23081970214844 174.92356872558594 179.05767822265625 171.90870666503906 C 175.56874084472656 169.49021911621094 172.0479278564453 167.51304626464844 169.03408813476562 165.51324462890625 C 166.06689453125 163.63055419921875 163.26963806152344 161.57742309570312 160.9912872314453 159.36383056640625 C 159.57090759277344 156.9864501953125 157.87106323242188 155.10165405273438 156.123291015625 153.60946655273438 C 154.21392822265625 152.3268280029297 152.16970825195312 150.98097229003906 150.11424255371094 149.12173461914062 C 148.21694946289062 146.30226135253906 146.63992309570312 142.1593017578125 145.55789184570312 136.48524475097656 C 145.08627319335938 129.43313598632812 145.1099090576172 121.9249496459961 145.4612274169922 114.98916625976562 C 146.0543212890625 109.61492919921875 146.9557342529297 106.42044067382812 148.20518493652344 105.48590850830078 C 149.82318115234375 106.24458312988281 151.6060333251953 107.59916687011719 155.55416870117188 104.34367370605469" stroke-width="0.0" fill="rgb(84, 161, 161)" opacity="0.9998206" stroke="rgb(64, 46, 95)" stroke-opacity="0.039746523" stroke-linecap="round" stroke-linejoin="round"/>
    <path d="M 82.52132415771484 171.94601440429688 C 88.24517822265625 169.84764099121094 93.91059112548828 169.70359802246094 99.42993927001953 169.65615844726562 C 102.35393524169922 167.6264190673828 104.58931732177734 167.18942260742188 105.72589874267578 168.34934997558594 C 106.11038208007812 171.3646240234375 106.28065490722656 175.60292053222656 106.75996398925781 180.41482543945312 C 107.85763549804688 185.08238220214844 109.58004760742188 189.017333984375 111.91207122802734 191.8717803955078 C 114.39701843261719 191.9730682373047 116.38301849365234 190.92832946777344 117.57054138183594 191.51693725585938 C 118.00408935546875 194.52020263671875 117.98501586914062 197.48751831054688 117.6480484008789 200.11109924316406 C 117.02802276611328 201.83815002441406 116.08953857421875 202.50863647460938 114.78765869140625 202.16749572753906 C 113.24307250976562 201.11648559570312 111.70135498046875 199.81640625 110.4869613647461 198.6329345703125 C 109.72071075439453 197.2703857421875 109.22930908203125 195.96546936035156 108.39705657958984 195.6477813720703 C 108.02227020263672 196.0460205078125 109.22333526611328 194.43759155273438 112.86072540283203 192.0958709716797 C 118.54653930664062 190.66339111328125 124.5476303100586 188.53109741210938 130.46336364746094 187.5689239501953 C 135.08023071289062 187.72767639160156 138.27191162109375 189.0102996826172 140.91078186035156 190.64283752441406 C 142.72019958496094 193.35081481933594 143.6463165283203 197.23953247070312 144.82801818847656 201.3726806640625 C 146.81478881835938 204.80068969726562 149.508544921875 207.86297607421875 152.4365234375 210.61785888671875 C 155.68016052246094 212.68495178222656 158.52049255371094 214.46072387695312 160.6630096435547 215.91233825683594 C 162.0149383544922 216.99609375 162.65171813964844 217.78713989257812 162.73968505859375 218.36537170410156 C 162.5388641357422 218.7929229736328 162.40574645996094 218.94520568847656 162.70005798339844 218.69544982910156 C 163.77496337890625 218.04466247558594 165.85113525390625 217.2022247314453 169.02984619140625 216.4542999267578 C 173.26080322265625 216.1746368408203 178.0946044921875 216.60716247558594 183.04721069335938 217.7913360595703 C 187.64353942871094 219.6407012939453 191.41229248046875 222.0258331298828 193.88037109375 224.79495239257812 C 194.64044189453125 227.7284698486328 193.81983947753906 230.4185791015625 191.93569946289062 232.58975219726562 C 189.43150329589844 234.01510620117188 186.54832458496094 234.1699981689453 183.65573120117188 233.88320922851562 C 182.02366638183594 233.40890502929688 183.27749633789062 233.40545654296875 187.1293182373047 234.22222900390625 C 191.63490295410156 232.65280151367188 195.8865203857422 229.46070861816406 199.2815399169922 225.87521362304688 C 201.7976531982422 222.88343811035156 203.9112548828125 220.91159057617188 206.01309204101562 219.936767578125 C 208.31143188476562 219.76089477539062 210.89532470703125 219.91134643554688 213.87347412109375 220.03489685058594 C 217.26797485351562 219.9379119873047 221.08331298828125 219.7529754638672 225.19970703125 219.69705200195312 C 229.47085571289062 219.7644500732422 233.70994567871094 219.954833984375 237.75149536132812 220.2906951904297 C 241.4408721923828 220.90725708007812 244.65689086914062 222.0894012451172 247.2995147705078 224.1805419921875 C 249.58956909179688 227.2252197265625 251.22735595703125 230.97018432617188 252.16494750976562 235.12741088867188 C 252.92880249023438 239.32215881347656 253.83062744140625 242.74838256835938 254.61265563964844 245.36880493164062 C 255.42921447753906 246.04710388183594 256.01763916015625 245.24859619140625 255.8480224609375 243.2205810546875 C 254.7096405029297 240.402587890625 252.7196807861328 237.3802490234375 249.97113037109375 234.91827392578125 C 246.44546508789062 233.86593627929688 242.31935119628906 234.0493927001953 237.95314025878906 234.52110290527344 C 233.82754516601562 234.10781860351562 230.0157928466797 233.0177459716797 225.8076934814453 232.4305419921875 C 220.63735961914062 231.7987518310547 215.84548950195312 230.96548461914062 211.08592224121094 232.82066345214844 C 212.37803649902344 237.0649871826172 207.98240661621094 235.4369354248047 203.51451110839844 236.77552795410156 C 200.61830139160156 237.54248046875 198.80198669433594 237.67181396484375 197.4010772705078 238.73971557617188 C 197.45556640625 240.90615844726562 194.06198120117188 240.49459838867188 189.22535705566406 242.56832885742188 C 187.49000549316406 244.18394470214844 188.5401153564453 248.90452575683594 188.9920654296875 252.32774353027344 C 187.97860717773438 249.08468627929688 185.2112274169922 245.41001892089844 178.21145629882812 242.80252075195312 C 173.37033081054688 245.2676239013672 168.25904846191406 249.50245666503906 164.0714111328125 254.45155334472656 C 161.63858032226562 258.2017822265625 159.58204650878906 259.1614074707031 157.76731872558594 257.4431457519531 C 155.66204833984375 254.129638671875 152.08004760742188 250.4796905517578 147.140380859375 247.03155517578125 C 141.3031768798828 244.49037170410156 134.099853515625 243.73548889160156 128.5917205810547 243.30023193359375 C 124.84677124023438 244.30589294433594 122.88504028320312 246.34469604492188 122.31688690185547 248.31045532226562 C 122.44596099853516 249.31190490722656 122.56702423095703 248.90403747558594 122.05876922607422 247.0256805419922 C 120.5506591796875 244.02059936523438 118.36949920654297 240.6903076171875 116.11920928955078 237.7753448486328 C 114.23942565917969 235.81910705566406 112.77893829345703 234.72314453125 111.70242309570312 233.91038513183594 C 110.37145233154297 232.95887756347656 108.06776428222656 231.94781494140625 108.08404541015625 229.66705322265625 C 107.1330337524414 228.6432647705078 104.2222900390625 229.6700439453125 99.69183349609375 231.45155334472656 C 94.16423797607422 232.87879943847656 88.72528076171875 231.9258575439453 82.85527038574219 230.04286193847656 C 78.40253448486328 228.5618896484375 75.58834075927734 225.64724731445312 72.75768280029297 223.7633056640625 C 70.76677703857422 221.75100708007812 68.86222839355469 219.76144409179688 67.06417846679688 216.67025756835938 C 64.52984619140625 213.1427459716797 63.125091552734375 208.61903381347656 62.75889587402344 203.51947021484375 C 62.50148391723633 198.5647735595703 62.85075759887695 194.47019958496094 64.24793243408203 191.1691436767578 C 65.39419555664062 188.47703552246094 66.5251693725586 186.47268676757812 67.5132827758789 184.23309326171875 C 69.04544830322266 182.1259307861328 71.11385345458984 179.08212280273438 74.51129913330078 176.42068481445312 C 78.26334381103516 173.54449462890625 82.19393920898438 172.16392517089844 84.23165893554688 171.62583923339844 C 83.3509292602539 171.55731201171875 80.96904754638672 171.9860076904297 82.52132415771484 171.94601440429688" stroke-width="0.0" fill="rgb(60, 117, 117)" opacity="0.9999214" stroke="rgb(176, 234, 208)" stroke-opacity="0.5115529" stroke-linecap="round" stroke-linejoin="round"/>
    <path d="M 139.200439453125 63.728782653808594 C 137.75111389160156 62.95612716674805 135.77503967285156 63.48860168457031 132.55381774902344 63.805152893066406 C 134.24697875976562 64.8578872680664 135.4813232421875 64.6133041381836 137.33460998535156 64.36505126953125 C 139.95736694335938 64.5242691040039 142.95982360839844 64.62217712402344 145.90797424316406 64.56364440917969 C 147.2145233154297 63.4605598449707 148.95469665527344 63.38436508178711 150.49942016601562 63.515628814697266 C 152.05264282226562 63.485469818115234 153.5236053466797 63.51873779296875 154.79103088378906 63.51698303222656 C 156.2524871826172 63.461822509765625 157.7265625 63.46137237548828 158.72312927246094 63.73711013793945 C 159.65005493164062 64.5060806274414 161.21629333496094 64.62165069580078 162.796630859375 64.4848861694336 C 163.5318145751953 65.41632843017578 164.59796142578125 65.83023834228516 165.51060485839844 65.53337860107422 C 166.32891845703125 64.49113464355469 167.38743591308594 63.77373123168945 167.96868896484375 63.37384033203125 C 168.7681427001953 62.04875183105469 169.6157989501953 60.8096809387207 171.02499389648438 61.05215072631836 C 170.7313232421875 60.75371170043945 171.07508850097656 60.76301193237305 170.53372192382812 61.0582275390625 C 172.14044189453125 61.53474044799805 172.6253204345703 62.57048416137695 172.63661193847656 64.00846862792969 C 173.573974609375 65.2853775024414 174.24012756347656 66.52363586425781 174.98223876953125 67.5462417602539 C 175.88986206054688 69.08415222167969 176.8241729736328 69.79822540283203 178.0053253173828 69.32779693603516 C 179.44680786132812 69.13166809082031 180.79428100585938 69.14397430419922 182.27552795410156 69.16875457763672 C 183.82968139648438 69.13372802734375 185.44473266601562 69.26042938232422 187.0169219970703 69.55842590332031 C 188.6061248779297 69.63069152832031 190.09503173828125 69.70858001708984 191.4403076171875 69.71165466308594 C 192.49325561523438 69.78849029541016 193.21458435058594 69.75267028808594 193.7222442626953 69.57263946533203 C 193.8902587890625 69.40520477294922 193.9360809326172 69.34898376464844 194.00271606445312 69.32551574707031 C 194.1531982421875 69.3569107055664 194.48980712890625 69.3788070678711 194.96539306640625 69.78172302246094 C 195.74229431152344 70.1431884765625 196.61514282226562 70.05342102050781 197.4829559326172 69.4296875 C 198.2721405029297 69.18022918701172 199.1697235107422 69.05158996582031 200.32351684570312 69.13923645019531 C 200.93650817871094 68.96153259277344 201.37753295898438 68.6396255493164 201.76669311523438 68.83133697509766 C 202.69253540039062 69.3145980834961 203.82835388183594 69.28182220458984 204.99386596679688 69.25531768798828 C 206.61041259765625 69.29557037353516 208.28297424316406 69.61896514892578 209.92987060546875 70.14622497558594 C 212.13377380371094 69.93074798583984 214.15989685058594 69.84973907470703 216.3568115234375 69.91192626953125 C 218.53956604003906 69.75630187988281 220.77777099609375 69.7318344116211 223.1267547607422 69.6811294555664 C 225.60586547851562 70.43466186523438 228.44500732421875 69.63098907470703 231.5835418701172 69.32416534423828 C 235.06497192382812 69.47819519042969 238.8271484375 69.31069946289062 242.62722778320312 68.73055267333984 C 246.8502197265625 68.65126037597656 250.85537719726562 68.44010162353516 254.8781280517578 68.0323257446289 C 257.9356994628906 67.55990600585938 259.86285400390625 66.06827545166016 262.7974853515625 66.4796371459961 C 265.35394287109375 64.6272964477539 268.5867614746094 66.55155944824219 269.2852783203125 64.44898223876953 C 272.1418151855469 64.60794067382812 275.017578125 64.43501281738281 278.54827880859375 64.35006713867188 C 281.2126159667969 63.89714050292969 283.5113525390625 63.45182418823242 286.41571044921875 64.52273559570312 C 289.6490173339844 65.29196166992188 292.9942321777344 66.17426300048828 296.6260070800781 67.4992904663086 C 300.87188720703125 69.19068908691406 305.4914245605469 70.86264038085938 310.83392333984375 72.32747650146484 C 315.66827392578125 74.3609390258789 320.3638000488281 74.81513977050781 321.6549072265625 76.1641616821289 C 319.7919921875 77.26055908203125 315.5575866699219 76.666259765625 310.149169921875 76.05736541748047 C 304.1219177246094 74.66393280029297 298.9814453125 75.77483367919922 293.5737609863281 77.3530044555664 C 289.4525146484375 79.38079833984375 285.2062683105469 79.64075469970703 282.44549560546875 81.3513412475586 C 279.5517578125 81.15336608886719 276.71539306640625 81.97242736816406 274.3361511230469 83.28113555908203 C 271.6571044921875 83.42906951904297 268.3919677734375 82.94974517822266 266.3153381347656 84.42634582519531 C 262.5372314453125 84.8104248046875 260.2005615234375 84.3240737915039 258.65032958984375 82.98440551757812 C 256.541015625 84.9021224975586 253.63719177246094 85.3551254272461 251.0445098876953 86.75377655029297 C 247.3126678466797 87.69839477539062 242.3976593017578 88.61581420898438 236.58627319335938 88.50692749023438 C 232.80101013183594 87.73087310791016 229.9272918701172 86.07286071777344 227.54273986816406 84.4630126953125 C 225.56321716308594 84.41901397705078 225.5833740234375 86.5842514038086 223.89260864257812 87.98192596435547 C 221.44102478027344 89.8950424194336 219.0236053466797 89.37346649169922 215.4739532470703 89.49893188476562 C 214.23709106445312 86.98475646972656 212.20974731445312 83.85950469970703 210.1318817138672 80.0469970703125 C 208.44149780273438 76.4127197265625 206.7714385986328 74.03477478027344 204.97743225097656 73.19058227539062 C 203.76316833496094 75.52911376953125 202.37249755859375 78.7725601196289 200.12442016601562 81.61088562011719 C 198.83755493164062 85.39115905761719 196.6067352294922 87.83219146728516 193.58712768554688 88.59186553955078 C 190.21102905273438 88.35519409179688 186.94253540039062 89.06131744384766 183.67176818847656 87.75487518310547 C 180.16018676757812 84.74356079101562 176.18182373046875 81.19705200195312 172.1852569580078 77.4713363647461 C 168.9781951904297 74.06940460205078 166.84762573242188 71.97657775878906 165.07391357421875 72.47103118896484 C 164.96441650390625 75.4243392944336 164.99806213378906 79.50318908691406 164.89649963378906 83.16983032226562 C 162.94940185546875 85.84230041503906 160.62503051757812 86.33285522460938 158.4053955078125 83.42903137207031 C 154.74855041503906 81.01146697998047 151.43124389648438 78.1366958618164 147.98927307128906 75.59644317626953 C 144.93695068359375 73.13328552246094 141.8466339111328 70.92060852050781 138.80377197265625 68.54578399658203 C 135.41766357421875 66.2865219116211 132.71131896972656 63.07923889160156 139.200439453125 63.728782653808594" stroke-width="0.0" fill="rgb(155, 79, 79)" opacity="0.99981165" stroke="rgb(83, 99, 25)" stroke-opacity="0.13336" stroke-linecap="round" stroke-linejoin="round"/>
    <path d="M 251.59884643554688 123.49764251708984 C 256.0034484863281 124.07731628417969 259.5597839355469 124.92583465576172 263.5005798339844 125.04157257080078 C 266.17822265625 125.98362731933594 269.0856628417969 126.14161682128906 271.7477111816406 126.28924560546875 C 274.1556396484375 126.44982147216797 276.2813720703125 125.90775299072266 278.0894470214844 125.00701141357422 C 279.4886779785156 123.94219207763672 280.3075866699219 122.84269714355469 280.7084045410156 121.47509765625 C 279.6640319824219 120.94418334960938 277.942626953125 120.53172302246094 275.83392333984375 120.1109390258789 C 273.74945068359375 119.673095703125 272.3721618652344 119.39221954345703 272.2364501953125 119.37161254882812 C 273.399169921875 119.61067962646484 275.4444885253906 120.04133605957031 277.9461975097656 120.5900650024414 C 280.2657470703125 121.30907440185547 282.69207763671875 121.5283203125 284.67877197265625 121.83236694335938 C 285.19549560546875 123.7621841430664 285.8853759765625 124.68267822265625 286.15057373046875 125.7127456665039 C 286.22821044921875 126.9241714477539 286.3263244628906 128.2545623779297 286.49456787109375 129.61688232421875 C 286.9825439453125 130.94216918945312 287.8119812011719 132.21531677246094 288.9042053222656 133.25714111328125 C 290.26385498046875 134.0126953125 291.74761962890625 134.489990234375 293.1972351074219 134.69676208496094 C 294.45672607421875 134.65838623046875 295.41064453125 134.5529327392578 295.9683837890625 134.52874755859375 C 296.0850524902344 134.83445739746094 295.8151550292969 135.8128662109375 295.3587951660156 137.70887756347656 C 295.08343505859375 140.88412475585938 295.0853576660156 145.46975708007812 295.34161376953125 151.30807495117188 C 296.0890197753906 157.9037628173828 295.9986267089844 164.85069274902344 296.60040283203125 172.40460205078125 C 297.8252258300781 176.84144592285156 301.02288818359375 180.3628692626953 303.81707763671875 183.36190795898438 C 305.5998229980469 186.17848205566406 306.62115478515625 189.38076782226562 307.158447265625 193.5429229736328 C 307.2176513671875 199.10606384277344 306.4263916015625 206.00491333007812 304.9978942871094 213.9331512451172 C 300.1120910644531 220.59030151367188 296.18646240234375 227.97598266601562 290.9170837402344 232.8693389892578 C 286.602294921875 236.44960021972656 282.57232666015625 238.21572875976562 280.219482421875 239.44273376464844 C 278.639404296875 240.9227752685547 276.28131103515625 241.30990600585938 272.7020568847656 242.954345703125 C 268.3824157714844 245.0434112548828 262.095703125 245.94671630859375 256.91339111328125 248.21482849121094 C 253.18663024902344 241.9524383544922 245.493896484375 237.8268585205078 236.8971405029297 234.9045867919922 C 229.8697967529297 232.2965545654297 224.74618530273438 231.33604431152344 222.00430297851562 232.2140350341797 C 222.51885986328125 234.1568145751953 222.937744140625 234.32383728027344 221.8565216064453 232.1359100341797 C 215.5019989013672 231.17173767089844 206.34324645996094 232.06964111328125 196.3879852294922 234.68804931640625 C 187.91580200195312 237.53988647460938 183.9418182373047 237.8643341064453 185.4611358642578 234.2452392578125 C 191.1402130126953 232.0503692626953 193.8097686767578 228.56427001953125 192.11990356445312 225.1490478515625 C 185.9349822998047 223.55064392089844 177.07786560058594 225.5059356689453 166.80963134765625 226.90975952148438 C 157.4387969970703 225.7720489501953 149.4333038330078 223.015380859375 142.5379180908203 220.3222198486328 C 137.61546325683594 216.2083282470703 133.74388122558594 210.6662139892578 130.40037536621094 204.54592895507812 C 127.12899780273438 198.5751495361328 123.87239837646484 193.3647918701172 120.90492248535156 188.86737060546875 C 118.6679458618164 184.60284423828125 117.66353607177734 179.95556640625 117.76856994628906 174.66099548339844 C 118.54383087158203 168.6920928955078 120.60575866699219 162.62705993652344 124.7261734008789 157.64010620117188 C 130.29063415527344 153.97659301757812 135.0774688720703 151.395263671875 137.07012939453125 150.4094696044922 C 135.0636749267578 151.4451141357422 130.40118408203125 153.9186553955078 126.47925567626953 156.5218963623047 C 126.45298767089844 158.24539184570312 128.8951416015625 157.99545288085938 131.09080505371094 154.51560974121094 C 131.72584533691406 148.17730712890625 131.28887939453125 140.9671173095703 130.75140380859375 134.16575622558594 C 131.23756408691406 128.603271484375 132.82749938964844 125.27972412109375 137.55014038085938 124.83019256591797 C 142.30001831054688 125.7091293334961 146.8937530517578 128.1971893310547 151.3696746826172 132.31134033203125 C 155.701171875 137.37071228027344 160.14149475097656 140.66819763183594 166.0328369140625 140.78976440429688 C 168.48263549804688 142.63119506835938 168.2454071044922 146.04861450195312 164.8287353515625 152.53038024902344 C 167.17332458496094 153.95501708984375 174.12489318847656 153.72830200195312 179.602294921875 156.08595275878906 C 185.05648803710938 158.12196350097656 189.48439025878906 161.3641815185547 193.65435791015625 165.8228759765625 C 197.96095275878906 170.6005401611328 200.90318298339844 176.81556701660156 202.75711059570312 182.76492309570312 C 204.6903076171875 185.6414794921875 205.28924560546875 186.61248779296875 202.98715209960938 186.78282165527344 C 203.66038513183594 183.44334411621094 202.75946044921875 181.35057067871094 201.9895477294922 181.27120971679688 C 201.74771118164062 183.2148895263672 203.86062622070312 186.8677520751953 208.21234130859375 190.55908203125 C 214.71737670898438 192.21603393554688 221.00234985351562 191.5443115234375 228.92526245117188 189.55653381347656 C 235.28494262695312 187.418701171875 238.00518798828125 181.44992065429688 244.6557159423828 180.6818084716797 C 255.0701446533203 181.98538208007812 259.1753845214844 175.3164520263672 266.4038391113281 170.68804931640625 C 275.59912109375 170.60272216796875 277.17999267578125 168.99197387695312 272.8324890136719 164.01263427734375 C 266.05413818359375 160.7867889404297 261.1484680175781 157.18666076660156 258.1711120605469 154.83517456054688 C 257.24261474609375 154.0413055419922 257.4017333984375 153.94512939453125 257.5157165527344 154.0097198486328 C 257.2314758300781 154.0111541748047 257.4969177246094 154.3087615966797 259.89398193359375 156.18756103515625 C 265.750732421875 160.34835815429688 273.2587585449219 165.1950225830078 279.67498779296875 166.4048309326172 C 280.75738525390625 163.5001983642578 276.6040344238281 156.42001342773438 272.1013488769531 147.3428497314453 C 271.47613525390625 136.17127990722656 267.9202575683594 127.33807373046875 261.32489013671875 122.42234802246094 C 253.38235473632812 120.48786163330078 244.6994171142578 120.13616943359375 251.59884643554688 123.49764251708984" stroke-width="0.0" fill="rgb(50, 97, 97)" opacity="1.0" stroke="rgb(4, 170, 158)" stroke-opacity="0.113241784" stroke-linecap="round" stroke-linejoin="round"/>
    <path d="M 209.12757873535156 118.51737213134766 C 211.05064392089844 118.45790100097656 213.24925231933594 118.4455337524414 215.62322998046875 119.37797546386719 C 218.87640380859375 120.3050308227539 221.65875244140625 122.05563354492188 224.40602111816406 124.52011108398438 C 227.29379272460938 125.00921630859375 230.3007354736328 124.12568664550781 233.0416717529297 122.2164077758789 C 235.62672424316406 119.84574127197266 237.88702392578125 117.48040771484375 239.2258758544922 115.79718780517578 C 240.6079864501953 115.13105773925781 241.4820098876953 115.25393676757812 241.62147521972656 115.7139892578125 C 240.8986053466797 116.36614227294922 239.6129913330078 117.30035400390625 238.18434143066406 118.73023986816406 C 236.0083465576172 119.95314025878906 234.5963897705078 122.47325897216797 233.8636474609375 125.03668212890625 C 233.45236206054688 127.69529724121094 233.23768615722656 130.04364013671875 233.78810119628906 132.08612060546875 C 234.8341522216797 133.60023498535156 235.67637634277344 134.51148986816406 236.5229034423828 134.90631103515625 C 237.11636352539062 135.022705078125 237.42137145996094 135.29534912109375 237.55210876464844 135.2244415283203 C 237.56817626953125 135.57083129882812 237.65895080566406 136.4899139404297 238.02772521972656 137.9696502685547 C 238.8524932861328 139.83499145507812 239.25299072265625 142.10183715820312 239.61248779296875 144.60916137695312 C 239.55653381347656 147.05593872070312 239.03775024414062 149.2350616455078 238.01486206054688 151.07086181640625 C 237.09152221679688 152.72267150878906 236.13201904296875 154.11825561523438 235.06837463378906 155.10952758789062 C 234.19017028808594 156.06568908691406 233.5077667236328 156.84669494628906 232.8017578125 157.48793029785156 C 232.18582153320312 157.93600463867188 231.62149047851562 158.24673461914062 231.26478576660156 158.91151428222656 C 231.0731658935547 159.29580688476562 231.0805206298828 159.62155151367188 231.3142547607422 159.88560485839844 C 231.7176971435547 160.05323791503906 232.12033081054688 160.14852905273438 232.34619140625 160.16622924804688 C 232.1669464111328 160.0714874267578 231.40664672851562 159.8944091796875 229.8776397705078 159.7363739013672 C 227.61692810058594 160.0289306640625 225.1219940185547 160.84132385253906 222.43255615234375 161.71615600585938 C 220.9123077392578 163.07110595703125 220.6744842529297 165.0833282470703 221.90760803222656 167.1918487548828 C 222.36827087402344 169.09266662597656 222.65794372558594 169.9734649658203 222.3605499267578 169.37901306152344 C 222.07083129882812 167.26461791992188 221.23626708984375 164.57179260253906 218.9518585205078 162.38748168945312 C 214.7828826904297 163.24444580078125 210.30397033691406 162.6547393798828 206.3384552001953 164.0281524658203 C 204.69056701660156 166.7232208251953 204.29693603515625 168.8697052001953 204.29847717285156 169.80931091308594 C 204.35169982910156 169.25030517578125 204.78604125976562 167.9273681640625 204.9307861328125 166.10623168945312 C 203.54588317871094 165.10888671875 201.86988830566406 164.1175537109375 200.239501953125 163.18170166015625 C 198.75405883789062 162.4591522216797 197.3340301513672 161.9817352294922 195.89366149902344 161.56642150878906 C 194.4987335205078 160.84735107421875 193.2024383544922 159.9281005859375 192.1607208251953 159.083984375 C 191.58056640625 158.52239990234375 191.56564331054688 158.57485961914062 192.23426818847656 159.1735382080078 C 193.53274536132812 160.21173095703125 195.0981903076172 161.21746826171875 196.48931884765625 161.8394012451172 C 197.3353271484375 161.7044677734375 197.24171447753906 160.54969787597656 195.8418731689453 158.6172637939453 C 193.7032012939453 156.37741088867188 191.05126953125 154.10549926757812 188.19740295410156 151.91795349121094 C 185.08670043945312 150.19688415527344 182.13197326660156 149.14601135253906 179.5392608642578 148.5286407470703 C 177.6143035888672 148.5015869140625 176.65357971191406 149.4217529296875 176.46682739257812 150.68934631347656 C 176.25701904296875 151.96694946289062 176.01268005371094 152.96629333496094 175.9569854736328 153.42666625976562 C 176.0118865966797 153.14198303222656 176.11663818359375 152.119140625 176.58831787109375 150.41055297851562 C 176.88682556152344 148.14259338378906 175.80780029296875 145.51760864257812 175.726806640625 142.70809936523438 C 177.93460083007812 139.9036102294922 179.78526306152344 137.24896240234375 181.23812866210938 134.84048461914062 C 180.87060546875 132.38658142089844 179.84754943847656 130.8892822265625 178.60316467285156 129.83135986328125 C 178.0774688720703 128.88381958007812 178.03662109375 128.67147827148438 178.50399780273438 129.26531982421875 C 179.2984619140625 130.7235107421875 180.46600341796875 132.3740234375 182.64930725097656 133.357177734375 C 185.30093383789062 132.6167449951172 187.83596801757812 130.89012145996094 189.94834899902344 128.5419921875 C 189.94271850585938 126.2518539428711 188.22412109375 124.398681640625 186.56492614746094 122.82743835449219 C 185.1992950439453 121.3854751586914 184.17608642578125 120.42599487304688 183.70278930664062 120.01947784423828 C 183.95040893554688 120.21370697021484 184.72732543945312 121.01284790039062 186.11399841308594 122.26686096191406 C 187.65127563476562 124.0438232421875 189.1805419921875 125.98603820800781 191.20091247558594 127.55580139160156 C 193.68699645996094 127.509521484375 195.9897003173828 126.38819885253906 198.2290802001953 124.50944519042969 C 199.00933837890625 121.93854522705078 199.10850524902344 119.25455474853516 198.52996826171875 116.85298919677734 C 197.5774383544922 115.1320571899414 196.48992919921875 114.20111846923828 195.2949981689453 114.00125122070312 C 194.108642578125 114.37663269042969 193.01132202148438 115.27043151855469 192.25393676757812 116.5574722290039 C 191.2917022705078 118.1527099609375 190.32301330566406 119.94749450683594 209.12757873535156 118.51737213134766" stroke-width="0.0" fill="rgb(90, 172, 172)" opacity="0.99979705" stroke="rgb(49, 177, 64)" stroke-opacity="0.05981225" stroke-linecap="round" stroke-linejoin="round"/>
    <path d="M 115.71932220458984 353.2446594238281 C 115.79468536376953 352.178466796875 115.40864562988281 351.24200439453125 115.11209106445312 350.4378356933594 C 115.0708236694336 350.080322265625 115.80685424804688 349.9887390136719 118.40496826171875 350.13037109375 C 122.45927429199219 350.1022033691406 126.7536392211914 350.2399597167969 130.04574584960938 350.2083740234375 C 131.21194458007812 350.8369140625 131.12374877929688 351.7257080078125 131.1243896484375 351.95111083984375 C 131.211669921875 351.5033264160156 131.08773803710938 351.0208435058594 130.7186737060547 351.17620849609375 C 130.92869567871094 352.2203369140625 131.00845336914062 353.92010498046875 130.9838104248047 356.4066162109375 C 131.34616088867188 359.0069274902344 131.60231018066406 361.4859619140625 131.70481872558594 363.12725830078125 C 130.30160522460938 363.6235046386719 128.4136962890625 363.33587646484375 127.46700286865234 362.97265625 C 128.0253448486328 363.105712890625 129.6508331298828 363.3814697265625 131.20509338378906 363.3842468261719 C 131.87644958496094 363.24957275390625 131.87376403808594 363.9584655761719 131.89443969726562 365.67022705078125 C 131.920166015625 367.7607116699219 132.12249755859375 369.8502502441406 132.4651641845703 371.5369567871094 C 132.54347229003906 372.4206237792969 132.59848022460938 372.5820617675781 132.348388671875 372.2222595214844 C 132.1991424560547 371.5047302246094 131.91331481933594 370.9389343261719 131.7772674560547 370.9913635253906 C 132.36203002929688 371.6678771972656 132.54327392578125 373.5135498046875 132.8992919921875 376.3269958496094 C 132.81427001953125 379.44439697265625 133.1247100830078 382.4532470703125 133.6411590576172 385.05126953125 C 133.84324645996094 386.6337890625 133.80210876464844 387.17498779296875 133.87091064453125 387.2926025390625 C 134.5421600341797 387.506591796875 135.96482849121094 386.1023864746094 138.64166259765625 383.3686218261719 C 141.01809692382812 380.2608337402344 142.01705932617188 380.1159362792969 141.76116943359375 384.05987548828125 C 139.476806640625 387.0599060058594 137.90106201171875 389.639404296875 137.49319458007812 392.1614074707031 C 136.98777770996094 393.19219970703125 136.69334411621094 393.7102966308594 136.1552734375 394.6258544921875 C 135.60194396972656 396.6038513183594 134.40130615234375 399.3559875488281 133.2469482421875 402.4472351074219 C 132.03501892089844 404.6455383300781 131.10177612304688 405.71844482421875 131.00917053222656 405.83294677734375 C 131.84043884277344 404.9395446777344 132.69903564453125 403.5240173339844 133.1532440185547 402.37646484375 C 133.31631469726562 402.3138122558594 133.1190185546875 403.493408203125 132.05860900878906 405.3818664550781 C 131.03128051757812 407.716796875 130.42138671875 409.6145935058594 130.14744567871094 410.44940185546875 C 130.0219268798828 410.566162109375 129.95526123046875 410.9029541015625 129.57321166992188 412.1436462402344 C 128.44839477539062 414.6782531738281 127.08937072753906 417.951171875 126.11154174804688 420.8031921386719 C 125.52889251708984 422.25885009765625 125.10029602050781 422.7325439453125 125.09488677978516 422.80389404296875 C 125.34122467041016 422.69110107421875 125.51912689208984 422.48333740234375 125.25570678710938 422.4749755859375 C 124.46925354003906 423.164794921875 123.45269775390625 423.9659118652344 122.76420593261719 424.6850280761719 C 122.28347778320312 425.26043701171875 121.88092041015625 425.9213562011719 121.24085998535156 426.94085693359375 C 120.02720642089844 428.5399169921875 119.35630798339844 430.622802734375 119.73851776123047 432.66015625 C 120.01333618164062 434.1451721191406 119.89761352539062 434.8276062011719 119.75408172607422 434.9642028808594 C 119.1722412109375 434.7292175292969 117.85987854003906 434.0228271484375 115.52549743652344 433.8233642578125 C 112.68009185791016 433.2651672363281 109.8648452758789 432.7033386230469 106.86178588867188 432.9071350097656 C 104.3888931274414 433.0893249511719 102.81698608398438 433.06585693359375 102.24909973144531 432.7078552246094 C 102.13375854492188 431.5556335449219 102.22451782226562 429.4877624511719 101.0916519165039 427.7884826660156 C 100.79792022705078 427.186767578125 101.53853607177734 427.33697509765625 102.30364990234375 427.2755126953125 C 102.52974700927734 426.97894287109375 102.16646575927734 427.1538391113281 101.4627914428711 427.22802734375 C 100.80725860595703 427.0174255371094 100.72087097167969 425.8591613769531 101.5355224609375 423.59625244140625 C 102.62286376953125 420.3548278808594 104.12660217285156 417.3559265136719 106.00768280029297 415.5079650878906 C 107.7938461303711 415.092529296875 108.79232788085938 415.1224060058594 109.00907897949219 415.0975341796875 C 108.58067321777344 414.9295349121094 107.50645446777344 415.11651611328125 106.06369018554688 415.5961608886719 C 104.82173919677734 416.5663146972656 104.17878723144531 417.8250732421875 103.92951202392578 418.90740966796875 C 103.22882080078125 419.4286193847656 102.82347869873047 419.5704650878906 103.20954895019531 418.8194274902344 C 104.21174621582031 416.0613098144531 106.06222534179688 411.74462890625 108.1287612915039 406.7100524902344 C 111.1302261352539 402.9515075683594 112.39720916748047 400.6103515625 112.3863296508789 400.4643249511719 C 111.45738983154297 401.4597473144531 110.998291015625 402.0798645019531 111.77674102783203 401.1378173828125 C 113.61402893066406 397.70806884765625 114.14276123046875 392.8159484863281 112.26558685302734 388.5518798828125 C 111.8439712524414 386.2787780761719 112.76124572753906 385.205322265625 111.8528060913086 385.91473388671875 C 109.06083679199219 388.2307434082031 107.33118438720703 390.1552734375 107.51943969726562 389.10400390625 C 111.30815124511719 387.125244140625 114.2524642944336 383.339111328125 116.49457550048828 380.81390380859375 C 114.3032455444336 378.1639709472656 113.71476745605469 379.2907409667969 114.10616302490234 383.20587158203125 C 115.93536376953125 381.1427917480469 118.97425079345703 380.24853515625 121.10382080078125 381.0938415527344 C 121.20361328125 383.3874816894531 119.38438415527344 383.4126281738281 117.36300659179688 381.2166748046875 C 119.16472625732422 380.4139404296875 120.98670959472656 381.19549560546875 120.7823715209961 380.341796875 C 120.03389739990234 376.7743835449219 119.55473327636719 372.2156677246094 118.77159118652344 367.7988586425781 C 118.01725006103516 364.8790283203125 117.78663635253906 362.67987060546875 117.05852508544922 361.2042236328125 C 117.03565216064453 359.90069580078125 116.94066619873047 358.76568603515625 116.3947982788086 357.4109191894531 C 116.06419372558594 355.8382568359375 116.22467041015625 354.3348693847656 115.71932220458984 353.2446594238281" stroke-width="0.0" fill="rgb(254, 254, 254)" opacity="0.999924" stroke="rgb(27, 229, 165)" stroke-opacity="0.6468696" stroke-linecap="round" stroke-linejoin="round"/>
    <path d="M 264.87310791015625 187.22817993164062 C 264.57373046875 193.86248779296875 263.85870361328125 199.88339233398438 262.15118408203125 204.27049255371094 C 259.06683349609375 206.75131225585938 255.49734497070312 206.83921813964844 253.02102661132812 203.656005859375 C 252.07254028320312 197.11695861816406 251.484130859375 190.5538330078125 252.98159790039062 186.75082397460938 C 255.0423126220703 187.9639434814453 256.9678955078125 192.65687561035156 258.5072021484375 198.61257934570312 C 259.3936462402344 203.56968688964844 259.5677795410156 206.3687744140625 258.6666564941406 207.1309051513672 C 256.75244140625 206.4640350341797 254.81265258789062 205.08981323242188 253.55166625976562 204.63050842285156 C 253.68125915527344 206.3683319091797 254.5500030517578 209.4163360595703 256.0939636230469 212.7755889892578 C 257.7842102050781 215.77664184570312 259.726806640625 218.30844116210938 262.0697326660156 220.53387451171875 C 264.24755859375 223.26959228515625 267.58062744140625 224.97628784179688 272.855712890625 225.01268005371094 C 278.8975830078125 224.1735076904297 283.9660339355469 219.0204315185547 289.06353759765625 213.42550659179688 C 293.8146667480469 215.4864044189453 291.89080810546875 220.62574768066406 283.8892517089844 225.07827758789062 C 279.0047302246094 231.66903686523438 274.8275146484375 236.91917419433594 269.1827392578125 239.4046173095703 C 263.36962890625 240.4012451171875 258.5907287597656 239.0327606201172 255.18447875976562 236.31784057617188 C 252.76702880859375 234.8199005126953 251.6515350341797 234.1209716796875 251.40109252929688 233.9878692626953 C 251.61195373535156 234.05882263183594 251.7642822265625 234.0083770751953 251.2206573486328 233.85562133789062 C 249.76174926757812 233.1378173828125 247.19961547851562 231.92140197753906 243.8528594970703 230.67071533203125 C 240.2349853515625 229.2718048095703 236.7596435546875 228.05691528320312 233.75048828125 227.3906707763672 C 231.58535766601562 227.13351440429688 230.22340393066406 227.0531768798828 229.4996337890625 226.89938354492188 C 229.33323669433594 226.83236694335938 229.41912841796875 226.86024475097656 229.48634338378906 226.85308837890625 C 229.37069702148438 226.76028442382812 228.9557647705078 226.66604614257812 228.291259765625 226.5690155029297 C 227.37710571289062 226.50289916992188 226.35018920898438 226.4817657470703 225.29879760742188 226.48965454101562 C 224.27685546875 226.44970703125 223.38775634765625 226.30160522460938 222.67135620117188 226.15025329589844 C 222.0737762451172 226.04428100585938 221.49925231933594 225.98558044433594 220.83596801757812 226.04542541503906 C 219.96385192871094 226.0472869873047 218.91143798828125 225.85728454589844 217.69207763671875 225.89663696289062 C 216.140380859375 226.2641143798828 214.37049865722656 226.55392456054688 212.47647094726562 226.6669158935547 C 210.6837158203125 226.9864044189453 209.0281219482422 227.07875061035156 207.66310119628906 227.0262451171875 C 206.70840454101562 227.0063018798828 206.26307678222656 227.12579345703125 206.29530334472656 227.43516540527344 C 206.65200805664062 227.5599822998047 207.11082458496094 227.53201293945312 207.5160675048828 227.47976684570312 C 207.78152465820312 227.39369201660156 207.79104614257812 227.25885009765625 207.37464904785156 227.3355712890625 C 206.5076904296875 227.57069396972656 205.091796875 227.7910614013672 203.10043334960938 228.09063720703125 C 200.68695068359375 228.71055603027344 197.82525634765625 229.4934539794922 194.62351989746094 230.4932403564453 C 191.5183868408203 231.5416259765625 188.8468017578125 232.6765899658203 186.95289611816406 233.3306427001953 C 186.1172637939453 233.57044982910156 186.301025390625 233.24197387695312 187.28790283203125 232.61900329589844 C 188.63536071777344 231.81809997558594 189.6808624267578 231.1693115234375 189.7957305908203 231.05874633789062 C 188.5465545654297 231.9718780517578 185.41346740722656 233.6918487548828 180.41453552246094 236.07745361328125 C 174.57615661621094 239.51805114746094 167.99453735351562 240.71290588378906 161.4534912109375 238.1227569580078 C 155.91156005859375 232.743896484375 152.2433624267578 228.00697326660156 153.52157592773438 225.2718963623047 C 160.56881713867188 226.8074951171875 169.32859802246094 227.44898986816406 177.81520080566406 224.6752166748047 C 185.19432067871094 221.46853637695312 190.03939819335938 217.90675354003906 192.3861083984375 214.89755249023438 C 193.40701293945312 213.5559539794922 194.03541564941406 213.95626831054688 194.3545379638672 215.0615692138672 C 194.49017333984375 215.9644317626953 194.585693359375 216.34532165527344 194.48565673828125 216.15914916992188 C 194.2183074951172 215.46519470214844 193.7601318359375 214.48965454101562 193.55599975585938 213.39556884765625 C 194.3813934326172 212.21517944335938 195.55441284179688 210.59226989746094 196.69631958007812 208.64764404296875 C 197.96435546875 206.65533447265625 198.97401428222656 204.6111297607422 199.6539306640625 202.5222930908203 C 200.1595001220703 200.74964904785156 200.62496948242188 199.29454040527344 201.06288146972656 198.07699584960938 C 201.23814392089844 196.92706298828125 201.64199829101562 195.96253967285156 202.22166442871094 194.9204559326172 C 202.90965270996094 193.63502502441406 203.09365844726562 192.05020141601562 202.87449645996094 190.20570373535156 C 202.6213836669922 188.17721557617188 202.58360290527344 186.22512817382812 202.49118041992188 184.732421875 C 202.70001220703125 183.95384216308594 203.29176330566406 183.87147521972656 204.1327667236328 184.3271026611328 C 205.08721923828125 185.16152954101562 206.13064575195312 186.14480590820312 207.16761779785156 187.13255310058594 C 208.06875610351562 188.0957794189453 208.7743682861328 188.96087646484375 209.3614501953125 189.6149444580078 C 210.00106811523438 190.02171325683594 210.87142944335938 190.29537963867188 212.0248565673828 190.52645874023438 C 213.4815216064453 190.70550537109375 215.2161102294922 190.7723846435547 217.19712829589844 190.69952392578125 C 219.2747802734375 190.54824829101562 221.33348083496094 190.17886352539062 223.19131469726562 189.44821166992188 C 224.32028198242188 188.14309692382812 224.8444061279297 186.6715545654297 224.81015014648438 185.39137268066406 C 224.2095947265625 184.49801635742188 223.11483764648438 184.0055389404297 221.79302978515625 183.6878662109375 C 220.4798583984375 183.35406494140625 219.44285583496094 182.98851013183594 218.80825805664062 182.80543518066406 C 218.70993041992188 182.86558532714844 219.3704071044922 183.1981201171875 220.99598693847656 183.7695770263672 C 223.74363708496094 184.25802612304688 227.48707580566406 184.3634796142578 232.17510986328125 184.53041076660156 C 237.39889526367188 185.4927520751953 242.84365844726562 186.2224578857422 264.87310791015625 187.22817993164062" stroke-width="0.0" fill="rgb(74, 145, 145)" opacity="1.0" stroke="rgb(73, 242, 10)" stroke-opacity="0.51882267" stroke-linecap="round" stroke-linejoin="round"/>
    <path d="M 171.9049072265625 162.82229614257812 C 172.2512664794922 163.25094604492188 172.20547485351562 162.8354949951172 171.9401397705078 162.67327880859375 C 172.41062927246094 163.54443359375 173.12904357910156 164.75570678710938 173.4520263671875 165.27577209472656 C 172.77932739257812 164.41815185546875 171.5337677001953 162.47433471679688 171.29954528808594 160.42491149902344 C 174.48434448242188 160.6996307373047 179.13043212890625 162.2659454345703 183.01846313476562 163.99533081054688 C 184.43093872070312 165.0825653076172 183.9682159423828 165.24578857421875 182.9084930419922 164.96762084960938 C 182.34103393554688 164.9013214111328 182.38565063476562 165.02549743652344 182.64706420898438 164.9695587158203 C 183.03073120117188 165.03204345703125 183.61793518066406 164.89453125 184.640380859375 165.41651916503906 C 186.82066345214844 167.05935668945312 189.6206512451172 169.4394073486328 191.68299865722656 172.73468017578125 C 193.06344604492188 174.68963623046875 193.31997680664062 174.58924865722656 192.4617462158203 173.85939025878906 C 192.15682983398438 173.58944702148438 193.01217651367188 174.53782653808594 194.03932189941406 177.24908447265625 C 195.1838836669922 180.0094757080078 195.820068359375 181.99642944335938 195.52186584472656 182.6056365966797 C 194.20849609375 182.3323211669922 192.92855834960938 182.3404541015625 192.63597106933594 182.40579223632812 C 193.31431579589844 182.31295776367188 194.39791870117188 182.25315856933594 195.54202270507812 182.96083068847656 C 196.15036010742188 185.0888671875 196.3330535888672 187.94485473632812 195.85385131835938 190.21640014648438 C 195.5931396484375 190.9855499267578 195.64947509765625 190.65118408203125 195.96035766601562 190.21920776367188 C 195.8759002685547 190.25611877441406 195.556640625 191.45635986328125 195.3148193359375 193.9328155517578 C 194.55718994140625 197.24876403808594 192.92604064941406 200.40411376953125 191.58689880371094 202.65269470214844 C 191.30673217773438 202.8914337158203 191.37966918945312 202.21156311035156 191.37989807128906 201.7512969970703 C 191.37232971191406 201.9695281982422 191.3313751220703 202.1720428466797 191.25241088867188 202.547119140625 C 190.84454345703125 203.7592010498047 189.31443786621094 205.9313201904297 186.267333984375 208.4496612548828 C 182.7773895263672 209.4833984375 180.0514373779297 209.7631378173828 179.54287719726562 209.79159545898438 C 181.82763671875 209.4827117919922 184.6255340576172 208.76858520507812 185.42562866210938 208.89797973632812 C 182.57432556152344 211.50942993164062 177.97496032714844 213.55392456054688 173.1678466796875 214.39535522460938 C 169.88290405273438 214.55609130859375 168.3988037109375 214.80007934570312 168.3273162841797 214.40402221679688 C 168.60446166992188 213.03065490722656 168.56092834472656 211.50128173828125 168.6063232421875 210.74005126953125 C 168.6412353515625 211.3694305419922 168.53797912597656 212.78858947753906 168.508544921875 214.25486755371094 C 168.84727478027344 215.01307678222656 168.0343475341797 214.84915161132812 165.78736877441406 214.49830627441406 C 162.20960998535156 214.15040588378906 158.55636596679688 212.93690490722656 155.62623596191406 211.1147003173828 C 153.736083984375 210.431396484375 153.41650390625 210.55714416503906 154.33522033691406 210.9501495361328 C 155.34535217285156 211.32373046875 155.80201721191406 211.4248046875 155.21897888183594 210.88592529296875 C 152.51771545410156 209.41366577148438 149.19171142578125 206.84088134765625 147.0984649658203 203.578125 C 146.066162109375 201.86793518066406 145.7317352294922 201.4543914794922 145.93028259277344 201.5867919921875 C 146.08253479003906 202.3555450439453 146.35922241210938 203.12135314941406 146.87879943847656 203.6278076171875 C 147.45077514648438 203.43414306640625 146.96047973632812 203.02210998535156 145.98336791992188 202.08566284179688 C 145.16500854492188 200.6068878173828 144.3860321044922 198.96420288085938 143.55519104003906 197.25827026367188 C 142.78822326660156 195.2764892578125 142.2321014404297 193.2091522216797 142.2255401611328 192.03981018066406 C 144.140380859375 192.49302673339844 146.26783752441406 191.724609375 147.62413024902344 190.1238555908203 C 148.373046875 189.3285675048828 148.22525024414062 189.81307983398438 145.96896362304688 191.55738830566406 C 142.048095703125 193.3212432861328 141.400634765625 191.66024780273438 142.01031494140625 185.32388305664062 C 142.66940307617188 178.08975219726562 145.37850952148438 173.40025329589844 147.11318969726562 171.7230224609375 C 147.45709228515625 172.49734497070312 148.0006103515625 173.81126403808594 148.9895477294922 174.78321838378906 C 149.23390197753906 175.50762939453125 149.27728271484375 175.5452117919922 148.94320678710938 174.7704315185547 C 147.94052124023438 173.5132293701172 147.25807189941406 172.676513671875 147.6269989013672 172.83914184570312 C 147.87294006347656 173.6294708251953 147.39279174804688 173.3264923095703 147.2601318359375 171.2111053466797 C 149.7484130859375 167.8914337158203 154.01919555664062 164.7356719970703 157.46487426757812 162.8074951171875 C 157.93130493164062 162.9598388671875 156.6074676513672 163.81788635253906 155.56777954101562 164.83314514160156 C 155.04501342773438 165.45709228515625 154.72935485839844 165.42153930664062 154.73910522460938 165.2430419921875 C 154.7608642578125 165.46713256835938 155.6522674560547 164.8398895263672 158.26690673828125 162.5391082763672 C 164.2648162841797 160.4823760986328 172.86720275878906 158.7023468017578 171.9049072265625 162.82229614257812" stroke-width="0.0" fill="rgb(254, 254, 254)" opacity="0.9999392" stroke="rgb(244, 133, 223)" stroke-opacity="0.7680064" stroke-linecap="round" stroke-linejoin="round"/>
    <path d="M 113.7513656616211 437.9554443359375 C 115.57200622558594 438.0668029785156 116.77623748779297 438.42510986328125 116.84674835205078 439.4096984863281 C 116.61390686035156 441.1555480957031 116.50276184082031 442.5950927734375 116.4810791015625 442.90838623046875 C 116.59625244140625 441.7861328125 116.7291030883789 440.14190673828125 116.89777374267578 439.0104675292969 C 118.04122924804688 438.94964599609375 119.50077819824219 439.54571533203125 120.63480377197266 440.2160339355469 C 121.4615249633789 440.03765869140625 121.79756927490234 440.1190185546875 122.07925415039062 440.8122863769531 C 123.26102447509766 441.1846008300781 125.1435317993164 441.93988037109375 126.88270568847656 443.6210632324219 C 128.48785400390625 444.8740539550781 129.64736938476562 445.61090087890625 130.3360595703125 446.1605529785156 C 130.7007598876953 446.5708312988281 131.0901641845703 447.00396728515625 131.80459594726562 447.62060546875 C 132.8653106689453 448.6866760253906 134.08331298828125 449.7066955566406 134.65904235839844 450.5041809082031 C 134.44290161132812 450.5685119628906 133.8601531982422 449.9583435058594 133.54156494140625 449.09722900390625 C 133.5347137451172 449.02923583984375 134.17127990722656 449.7488708496094 135.0103759765625 451.2506103515625 C 136.13206481933594 452.99542236328125 137.2386932373047 454.5556945800781 137.95469665527344 456.12432861328125 C 138.7717742919922 457.7524108886719 139.72021484375 459.5619201660156 140.1420440673828 461.9828796386719 C 140.89706420898438 464.6514587402344 141.31236267089844 467.1552734375 140.67660522460938 469.2281188964844 C 138.50640869140625 469.6502990722656 136.89028930664062 469.6786804199219 136.7278594970703 469.469482421875 C 137.80523681640625 469.37835693359375 139.35035705566406 469.3225402832031 140.7048797607422 469.33953857421875 C 141.14166259765625 469.8395080566406 140.3120880126953 470.0372314453125 138.1275634765625 469.9239196777344 C 135.18658447265625 469.7959289550781 132.16180419921875 469.887451171875 129.58966064453125 469.992919921875 C 128.0901641845703 469.9449157714844 127.59700775146484 469.872802734375 127.88177490234375 469.8714904785156 C 128.4656219482422 470.0758361816406 128.90870666503906 470.1503601074219 128.736328125 470.0223388671875 C 127.72620391845703 469.9797058105469 125.97376251220703 470.2328186035156 123.51248168945312 470.0173645019531 C 120.39981842041016 469.7648620605469 117.40082550048828 469.7615661621094 114.78456115722656 469.9098815917969 C 113.26564025878906 469.45013427734375 112.52550506591797 469.1139221191406 112.27320861816406 469.01947021484375 C 112.1816635131836 468.9013977050781 112.41022491455078 468.8526916503906 113.125244140625 469.0232238769531 C 114.11096954345703 469.5877380371094 114.45378875732422 469.9563903808594 113.513427734375 469.9944152832031 C 111.27212524414062 469.96234130859375 108.24331665039062 469.8345947265625 105.11615753173828 469.8271179199219 C 102.5692138671875 469.7387390136719 100.90238952636719 469.68115234375 100.20169067382812 469.8661804199219 C 100.1171875 469.69537353515625 99.99417114257812 469.5533142089844 99.53469848632812 469.6447448730469 C 98.8293228149414 469.71124267578125 97.60181427001953 469.85968017578125 96.15188598632812 469.85247802734375 C 95.05523681640625 469.7655334472656 94.41362762451172 469.66815185546875 94.2186508178711 469.4959411621094 C 94.29386138916016 469.4249267578125 94.40458679199219 469.61749267578125 94.52780151367188 469.8157958984375 C 94.19768524169922 469.8539123535156 92.99369049072266 469.8213806152344 90.78694152832031 469.72918701171875 C 88.05095672607422 469.749755859375 85.32709503173828 469.7766418457031 83.08748626708984 469.7215881347656 C 81.77212524414062 469.8399353027344 81.1947250366211 469.8782958984375 80.7083969116211 469.7507019042969 C 79.71726989746094 469.7750244140625 78.02337646484375 469.94696044921875 76.05513763427734 469.88543701171875 C 74.14064025878906 469.8787841796875 72.66016387939453 469.9295959472656 72.17140197753906 469.841796875 C 72.11846160888672 469.21417236328125 72.41767120361328 468.13592529296875 72.90190124511719 466.96136474609375 C 73.2417984008789 466.0926818847656 73.1369400024414 465.3958740234375 73.3875961303711 464.9847717285156 C 73.79661560058594 464.7727355957031 74.26455688476562 464.12628173828125 74.72756958007812 462.28009033203125 C 76.09002685546875 459.6349182128906 77.619140625 456.3086853027344 79.48788452148438 454.09033203125 C 80.50093841552734 453.1111755371094 80.71416473388672 453.3616638183594 80.44482421875 454.3934631347656 C 80.25593566894531 455.25042724609375 80.93236541748047 455.7110290527344 82.25251770019531 455.8313293457031 C 82.75387573242188 455.6841735839844 82.46392059326172 455.3526611328125 82.08775329589844 455.7021484375 C 82.0468978881836 456.9863586425781 82.27249145507812 457.7164001464844 82.63384246826172 457.23321533203125 C 81.84459686279297 456.28082275390625 80.62108612060547 454.8569641113281 79.85322570800781 453.2283935546875 C 81.62842559814453 451.154052734375 84.59913635253906 448.3201904296875 87.0197525024414 444.88397216796875 C 89.5077896118164 442.99072265625 91.66403198242188 442.1690673828125 92.66239929199219 441.4189453125 C 93.0048599243164 441.01873779296875 93.52759552001953 441.06329345703125 94.01296997070312 440.9116516113281 C 94.12828063964844 440.6055603027344 94.10106658935547 440.48992919921875 94.13851165771484 440.4510498046875 C 94.39515686035156 440.4998779296875 94.98248291015625 440.28759765625 96.2261734008789 439.65252685546875 C 98.13693237304688 438.7569274902344 100.29499816894531 438.0618896484375 102.68421936035156 437.8582763671875 C 105.13575744628906 437.1758117675781 107.81880950927734 436.590576171875 113.7513656616211 437.9554443359375" stroke-width="0.0" fill="rgb(230, 230, 230)" opacity="1.0" stroke="rgb(122, 235, 117)" stroke-opacity="0.44035226" stroke-linecap="round" stroke-linejoin="round"/>
    <path d="M 262.311767578125 179.48239135742188 C 261.6522521972656 179.34686279296875 261.1748046875 178.96240234375 260.8660888671875 178.20790100097656 C 263.076904296875 176.50625610351562 266.4461669921875 174.94882202148438 270.72955322265625 175.4773712158203 C 274.07318115234375 176.26683044433594 275.2733459472656 178.40695190429688 275.6579895019531 178.8273468017578 C 274.239990234375 177.1974334716797 272.69720458984375 175.92620849609375 274.29461669921875 176.67422485351562 C 279.1785888671875 179.90301513671875 282.6528625488281 186.18600463867188 283.248291015625 191.97215270996094 C 280.9871520996094 193.662353515625 278.4218444824219 192.41653442382812 276.7383728027344 190.8483428955078 C 276.40338134765625 191.02976989746094 277.6856689453125 191.6667022705078 278.98516845703125 192.3844451904297 C 278.59576416015625 193.14283752441406 277.1695251464844 193.25128173828125 275.5525817871094 193.64068603515625 C 273.81671142578125 195.47463989257812 272.7587585449219 196.80003356933594 272.7156066894531 196.4512939453125 C 273.9531555175781 195.03677368164062 276.15496826171875 193.526123046875 279.2159423828125 192.65609741210938 C 281.1626281738281 192.51339721679688 281.75762939453125 193.0157928466797 280.9805603027344 194.3954620361328 C 279.22509765625 197.25015258789062 275.58758544921875 199.69480895996094 271.55279541015625 200.89683532714844 C 269.37469482421875 202.0191650390625 268.61962890625 201.56614685058594 268.8979797363281 200.51531982421875 C 269.83624267578125 200.33287048339844 270.65020751953125 200.56964111328125 270.4916076660156 200.90963745117188 C 269.64752197265625 200.76834106445312 268.6758117675781 200.24635314941406 267.3984375 199.1865234375 C 265.8087158203125 198.08554077148438 266.661865234375 197.22462463378906 270.3509826660156 196.74769592285156 C 275.05145263671875 195.5709686279297 279.2259521484375 193.6757049560547 281.5621337890625 193.1700439453125 C 281.6376953125 194.24935913085938 279.21832275390625 196.7328643798828 275.2099304199219 199.36724853515625 C 271.7598876953125 201.2707977294922 269.7508544921875 201.9326171875 269.0984802246094 201.7867431640625 C 269.15032958984375 201.2620086669922 269.02239990234375 200.63914489746094 268.3439025878906 199.90255737304688 C 267.1575927734375 198.93116760253906 266.3935546875 197.91676330566406 267.7890319824219 197.05282592773438 C 272.0152587890625 196.11776733398438 277.45550537109375 194.69422912597656 281.66363525390625 192.60279846191406 C 283.994140625 191.9020538330078 283.8372497558594 191.4920654296875 283.26885986328125 192.1689453125 C 283.74615478515625 195.71697998046875 283.68670654296875 201.0234832763672 280.86065673828125 206.49142456054688 C 278.2655334472656 210.97671508789062 276.0528564453125 213.02444458007812 275.1298522949219 213.71823120117188 C 275.1368713378906 213.5226593017578 275.4539794921875 213.19532775878906 275.71441650390625 212.92013549804688 C 275.8798522949219 212.77003479003906 276.02349853515625 212.73251342773438 275.93878173828125 212.90374755859375 C 274.9073181152344 213.63636779785156 272.4192199707031 214.95880126953125 268.6744079589844 215.53591918945312 C 264.6109924316406 215.38705444335938 261.74066162109375 213.2140655517578 259.569091796875 211.50067138671875 C 259.38873291015625 210.94581604003906 260.05517578125 211.39541625976562 260.4383850097656 212.08203125 C 259.77825927734375 211.58216857910156 258.5754699707031 210.09170532226562 257.4987487792969 208.50717163085938 C 257.1109924316406 207.95632934570312 257.49456787109375 207.64991760253906 258.2557678222656 206.9246368408203 C 259.06219482421875 205.39620971679688 259.44915771484375 203.17605590820312 259.7153015136719 201.3089141845703 C 259.7778015136719 200.55247497558594 259.6851501464844 201.14320373535156 259.4146423339844 203.04278564453125 C 258.8860778808594 205.6585693359375 258.2974548339844 207.64198303222656 257.1362609863281 207.7517852783203 C 255.05142211914062 205.0908203125 253.87782287597656 200.2636260986328 253.85491943359375 193.67066955566406 C 254.5146942138672 187.40794372558594 256.3884582519531 183.57949829101562 257.70526123046875 182.08604431152344 C 257.7947082519531 182.2733917236328 257.9185791015625 183.40924072265625 258.17755126953125 184.8069305419922 C 258.420654296875 185.6800994873047 258.5302429199219 185.9983673095703 258.45977783203125 185.73216247558594 C 258.0841064453125 184.93197631835938 257.78802490234375 183.4857177734375 258.1746826171875 181.53053283691406 C 259.1255798339844 179.5764923095703 260.3355407714844 178.58212280273438 261.28497314453125 178.26541137695312 C 262.33551025390625 177.87928771972656 263.3157043457031 177.353271484375 263.46295166015625 177.18429565429688 C 261.9585266113281 177.7325439453125 259.5308837890625 178.7795867919922 262.311767578125 179.48239135742188" stroke-width="0.0" fill="rgb(254, 254, 254)" opacity="0.9998139" stroke="rgb(131, 10, 151)" stroke-opacity="0.9169382" stroke-linecap="round" stroke-linejoin="round"/>
    <path d="M 56.64237976074219 473.4908752441406 C 56.736419677734375 473.4188537597656 57.14641189575195 473.5002136230469 58.19185256958008 473.5012512207031 C 59.803321838378906 473.353759765625 61.592613220214844 473.2155456542969 63.094051361083984 473.1933288574219 C 63.94166564941406 473.1377868652344 64.37751007080078 473.0617370605469 64.9927978515625 473.0445556640625 C 66.31314086914062 473.029541015625 68.19681549072266 473.00616455078125 70.67192077636719 473.0114440917969 C 73.42343139648438 473.082763671875 75.89192962646484 473.06103515625 77.75786590576172 472.9974365234375 C 78.81793975830078 473.0179443359375 79.09762573242188 472.9687805175781 79.05905151367188 473.0455627441406 C 79.20562744140625 473.0819396972656 80.02534484863281 473.02490234375 81.73381805419922 472.9998474121094 C 84.07266998291016 473.0541687011719 86.62602996826172 472.9731750488281 88.6190185546875 473.0295104980469 C 89.44943237304688 473.2259216308594 89.4653549194336 473.327392578125 89.0869140625 473.18731689453125 C 88.8589859008789 473.0813903808594 88.76716613769531 473.11383056640625 88.59062957763672 473.1060485839844 C 88.30974578857422 473.09210205078125 87.8631820678711 473.08428955078125 87.49015045166016 473.12396240234375 C 87.60493469238281 473.0431823730469 88.68727111816406 473.03997802734375 91.14599609375 473.0932922363281 C 94.8469467163086 472.98663330078125 99.166015625 473.0274353027344 102.94985961914062 473.0019836425781 C 105.27865600585938 473.01251220703125 106.0218505859375 472.95758056640625 105.76339721679688 473.380859375 C 105.69422912597656 473.9996643066406 105.73906707763672 474.3694763183594 105.7991714477539 474.2577209472656 C 105.68836212158203 473.6612854003906 105.63040161132812 473.02630615234375 106.49224090576172 473.021240234375 C 108.54161071777344 472.99407958984375 110.78426361083984 472.9849548339844 112.83751678466797 474.2041320800781 C 114.89051818847656 475.3471984863281 116.11418151855469 476.2220153808594 116.10420227050781 476.35400390625 C 114.97305297851562 475.4207763671875 113.00837707519531 474.0291748046875 110.69812774658203 473.30694580078125 C 109.34658813476562 473.0925598144531 110.03047180175781 473.05780029296875 113.16928100585938 473.0350341796875 C 118.21463012695312 473.00250244140625 123.67987060546875 472.972412109375 127.82560729980469 472.9968566894531 C 129.44696044921875 472.9588928222656 129.42022705078125 473.1413879394531 129.09385681152344 473.0830078125 C 128.5769805908203 472.9278564453125 127.79653930664062 473.0371398925781 126.85365295410156 473.0349426269531 C 126.49868774414062 473.0055847167969 127.4055404663086 473.0466613769531 130.26023864746094 472.9877624511719 C 134.9977569580078 472.92279052734375 139.93626403808594 473.421875 143.63722229003906 473.4027099609375 C 144.10943603515625 475.5693054199219 143.6486053466797 478.74102783203125 143.87509155273438 481.6359558105469 C 143.78445434570312 483.11932373046875 142.83078002929688 483.0362548828125 141.52101135253906 482.0507507324219 C 140.75018310546875 480.7120666503906 140.43836975097656 479.22259521484375 139.7774200439453 477.848388671875 C 139.32363891601562 476.2919006347656 138.8751220703125 475.35491943359375 138.49853515625 475.881103515625 C 139.44076538085938 477.01617431640625 140.6077117919922 479.0325012207031 141.3563995361328 481.3052062988281 C 141.94522094726562 482.9466552734375 142.65870666503906 483.1646728515625 143.08314514160156 482.92852783203125 C 142.71377563476562 482.7476501464844 141.3929443359375 482.6845397949219 139.46473693847656 482.4640808105469 C 137.2019805908203 482.70068359375 134.9152374267578 483.07977294921875 132.88491821289062 483.02587890625 C 131.28497314453125 483.0143127441406 130.0150604248047 482.988525390625 128.89254760742188 483.0173034667969 C 127.77963256835938 483.0448303222656 126.64666748046875 483.0303955078125 125.3642807006836 483.1451416015625 C 123.94927215576172 483.00909423828125 122.5024642944336 483.0170593261719 121.18543243408203 483.0591735839844 C 120.01097106933594 482.9409484863281 119.1684341430664 482.82672119140625 118.41609954833984 482.837890625 C 117.59672546386719 482.8867492675781 116.74127197265625 482.9637145996094 115.80052185058594 482.87030029296875 C 114.98328399658203 482.8840637207031 114.34294128417969 482.92486572265625 113.8114013671875 482.8625183105469 C 113.43125915527344 482.8975830078125 113.13014221191406 482.9596252441406 112.5555191040039 482.9783630371094 C 111.20650482177734 482.9090576171875 109.19507598876953 482.86346435546875 106.90824890136719 482.8394775390625 C 104.76654815673828 482.9772033691406 103.0140380859375 482.8941650390625 101.8174057006836 482.86431884765625 C 101.25308227539062 482.8772277832031 101.04460144042969 482.8955383300781 100.95931243896484 482.9159851074219 C 100.7021484375 482.85552978515625 99.92887115478516 482.80511474609375 98.60413360595703 482.9996337890625 C 96.79786682128906 483.0266418457031 94.89855194091797 483.002685546875 93.29907989501953 482.94580078125 C 92.48822021484375 482.9882507324219 92.36465454101562 482.8464050292969 92.4192123413086 482.8486633300781 C 92.09929656982422 483.0074768066406 91.21418762207031 482.95074462890625 89.9893569946289 482.9899597167969 C 88.8098373413086 483.0296325683594 87.8830795288086 482.97784423828125 87.38449096679688 482.9486083984375 C 87.3418960571289 482.7601623535156 87.46612548828125 482.7833557128906 87.21214294433594 482.9643249511719 C 86.28539276123047 483.00994873046875 84.80046081542969 483.0066833496094 83.0273666381836 482.97186279296875 C 81.31354522705078 482.9265441894531 79.93669128417969 482.99151611328125 79.04464721679688 483.0017395019531 C 78.37696838378906 482.9588317871094 77.71503448486328 482.9534912109375 76.84405517578125 483.0067138671875 C 75.52723693847656 482.9906921386719 73.60624694824219 483.0077209472656 71.04598236083984 482.990478515625 C 68.09990692138672 482.91314697265625 65.25453186035156 483.0357666015625 62.83830261230469 482.9894714355469 C 61.20037841796875 483.0842590332031 60.224544525146484 482.926513671875 59.60285186767578 482.5505676269531 C 58.915771484375 482.4429016113281 57.6603889465332 482.62530517578125 56.044368743896484 482.5428161621094 C 54.04627227783203 482.49853515625 51.9146614074707 482.728271484375 50.45420837402344 482.2213134765625 C 50.3984375 479.3784484863281 50.36246871948242 475.9718322753906 50.34109878540039 473.32940673828125 C 51.78142547607422 473.2295837402344 52.813114166259766 474.1009521484375 53.148780822753906 474.4662170410156 C 52.193016052246094 473.82598876953125 50.61440658569336 473.1213684082031 56.64237976074219 473.4908752441406" stroke-width="0.0" fill="rgb(230, 229, 229)" opacity="0.9999786" stroke="rgb(26, 149, 172)" stroke-opacity="0.5280913" stroke-linecap="round" stroke-linejoin="round"/>
    <path d="M 176.81878662109375 170.3716278076172 C 177.796142578125 170.6528778076172 178.76904296875 170.97103881835938 179.73841857910156 171.34205627441406 C 180.70449829101562 171.7577667236328 181.64768981933594 172.23422241210938 182.5600128173828 172.78773498535156 C 183.4562225341797 173.37149047851562 184.32760620117188 174.00546264648438 185.1848602294922 174.70494079589844 C 185.98654174804688 175.4700469970703 186.72108459472656 176.30917358398438 187.39967346191406 177.232666015625 C 188.01438903808594 178.2274627685547 188.57586669921875 179.26828002929688 189.09046936035156 180.33804321289062 C 189.55397033691406 181.42897033691406 189.95614624023438 182.52499389648438 190.285888671875 183.60855102539062 C 190.5312957763672 184.7018585205078 190.6845703125 185.82611083984375 190.74252319335938 186.9767608642578 C 190.70431518554688 188.17672729492188 190.5821533203125 189.45233154296875 190.38417053222656 190.78404235839844 C 190.10153198242188 192.14834594726562 189.71202087402344 193.50758361816406 189.21800231933594 194.8009490966797 C 188.6355438232422 195.94781494140625 187.9830322265625 196.89718627929688 187.26564025878906 197.60708618164062 C 186.4750213623047 197.9346923828125 185.62442016601562 197.89466857910156 184.70730590820312 197.62815856933594 C 183.7500457763672 197.2285919189453 182.7939910888672 196.84921264648438 181.8403778076172 196.54685974121094 C 180.90020751953125 196.38864135742188 180.05601501464844 196.42982482910156 179.306884765625 196.7099151611328 C 178.71685791015625 197.23313903808594 178.30763244628906 198.00633239746094 178.08335876464844 199.00682067871094 C 178.05348205566406 200.1536102294922 178.10975646972656 201.34109497070312 178.16490173339844 202.4989013671875 C 178.09988403320312 203.5350799560547 177.7835693359375 204.37850952148438 177.1249237060547 204.96429443359375 C 176.07827758789062 205.20986938476562 174.79104614257812 205.2915496826172 173.3499298095703 205.24276733398438 C 171.8414306640625 205.0940399169922 170.3278045654297 204.8608856201172 168.87173461914062 204.52981567382812 C 167.56256103515625 204.09552001953125 166.39573669433594 203.59559631347656 165.3496551513672 203.08828735351562 C 164.42259216308594 202.5618896484375 163.5750274658203 202.0289764404297 162.7967529296875 201.46156311035156 C 162.0618896484375 200.83631896972656 161.35658264160156 200.16583251953125 160.6605682373047 199.44454956054688 C 159.96141052246094 198.6390838623047 159.27151489257812 197.7555389404297 158.60946655273438 196.81280517578125 C 158.0164337158203 195.80909729003906 157.47232055664062 194.75363159179688 157.0005645751953 193.6876983642578 C 156.63949584960938 192.6475372314453 156.39715576171875 191.66526794433594 156.2879638671875 190.7913360595703 C 156.3310546875 190.06690979003906 156.57577514648438 189.51820373535156 157.0133819580078 189.15550231933594 C 157.65960693359375 188.96778869628906 158.48223876953125 188.90513610839844 159.42784118652344 188.9332275390625 C 160.45553588867188 189.01095581054688 161.5391082763672 189.08895874023438 162.66256713867188 189.128662109375 C 163.79843139648438 189.08177185058594 164.93960571289062 188.92446899414062 166.0664520263672 188.64901733398438 C 167.14645385742188 188.2415771484375 168.16610717773438 187.68035888671875 169.13525390625 186.9958038330078 C 170.0483856201172 186.19837951660156 170.8895263671875 185.30160522460938 171.65780639648438 184.33441162109375 C 172.3640594482422 183.31214904785156 172.9676055908203 182.23875427246094 173.4834442138672 181.1470184326172 C 173.88330078125 180.0572967529297 174.16075134277344 178.96617126464844 174.29940795898438 177.88233947753906 C 174.2876434326172 176.8188934326172 174.146728515625 175.7794189453125 173.89187622070312 174.7742919921875 C 173.543212890625 173.7935028076172 173.13900756835938 172.84127807617188 172.6787109375 171.94264221191406 C 172.20993041992188 171.06321716308594 171.73690795898438 170.1723175048828 176.81878662109375 170.3716278076172" stroke-width="0.0" fill="rgb(230, 230, 230)" opacity="0.999857" stroke="rgb(72, 148, 127)" stroke-opacity="0.8310137" stroke-linecap="round" stroke-linejoin="round"/>
    <path d="M 154.5111541748047 440.4881591796875 C 157.80845642089844 439.15863037109375 161.17837524414062 438.19219970703125 164.39414978027344 437.4801330566406 C 167.24594116210938 437.3442077636719 169.2777557373047 437.1834411621094 170.5064239501953 437.2431335449219 C 171.3726806640625 437.384765625 172.14784240722656 437.7187194824219 173.09519958496094 438.0352783203125 C 174.4372100830078 437.85986328125 176.3959503173828 438.5165100097656 178.4842529296875 439.5016174316406 C 180.67648315429688 440.2873229980469 182.3948516845703 440.6837463378906 183.0494384765625 441.16168212890625 C 182.9716033935547 441.2843933105469 182.469970703125 440.9192199707031 182.15042114257812 440.6933288574219 C 182.7106170654297 441.1401672363281 184.4821319580078 442.0553283691406 187.13502502441406 443.6367492675781 C 189.96661376953125 445.5753479003906 191.80416870117188 447.7035827636719 192.80081176757812 448.6583557128906 C 192.92684936523438 448.9310607910156 192.784912109375 448.8729553222656 193.1407928466797 449.2815856933594 C 194.58460998535156 450.935791015625 197.04971313476562 453.8021240234375 198.95777893066406 458.13836669921875 C 200.7299346923828 462.4628601074219 201.3749542236328 465.91265869140625 200.481689453125 467.9311218261719 C 198.20254516601562 467.277099609375 196.21742248535156 466.95013427734375 195.70755004882812 466.5221862792969 C 197.33349609375 466.57318115234375 199.79403686523438 467.33038330078125 201.49363708496094 468.9030456542969 C 200.89279174804688 470.003662109375 197.6757354736328 469.68896484375 192.5721435546875 469.74774169921875 C 186.31398010253906 469.8890380859375 179.60130310058594 469.7856140136719 173.17529296875 469.81744384765625 C 167.42758178710938 469.5558776855469 162.362060546875 469.4542236328125 157.9387969970703 469.7093505859375 C 154.28912353515625 469.56988525390625 151.29812622070312 469.7651672363281 149.41293334960938 469.4089050292969 C 148.3360595703125 468.0827331542969 147.6762237548828 468.4246520996094 148.17825317382812 469.6748046875 C 149.56613159179688 468.6520690917969 150.8305206298828 466.7238464355469 150.18972778320312 465.03411865234375 C 149.8771209716797 465.8171081542969 149.30162048339844 467.9811706542969 147.20492553710938 469.620849609375 C 144.5583038330078 469.97021484375 144.305908203125 468.12481689453125 144.61790466308594 464.08953857421875 C 143.66973876953125 459.53057861328125 142.15957641601562 456.1305236816406 141.2506866455078 454.2579040527344 C 141.12973022460938 453.1972961425781 141.1165008544922 452.35791015625 142.52597045898438 450.7072448730469 C 145.09494018554688 447.3653259277344 148.88690185546875 444.03863525390625 152.50901794433594 441.75274658203125 C 154.83274841308594 440.5009460449219 155.4544219970703 439.75152587890625 155.32748413085938 440.3903503417969 C 155.38938903808594 441.6512451171875 155.2720947265625 442.9482421875 154.5111541748047 440.4881591796875" stroke-width="0.0" fill="rgb(209, 209, 209)" opacity="0.9994734" stroke="rgb(40, 227, 188)" stroke-opacity="0.20521502" stroke-linecap="round" stroke-linejoin="round"/>
  </g>
</svg>
