<?xml version="1.0" ?>
<svg xmlns="http://www.w3.org/2000/svg" version="1.1" width="474" height="596">
  <defs/>
  <g>
    <path d="M 265.9061279296875 -0.1463194340467453 C 267.0711669921875 -1.150635004043579 268.3597717285156 -1.7402242422103882 269.3971252441406 -2.576500177383423 C 270.32977294921875 -3.6331241130828857 271.0733337402344 -4.2553277015686035 271.97406005859375 -4.4672160148620605 C 272.6766662597656 -4.729249954223633 273.1267395019531 -4.787413597106934 273.6848449707031 -4.6059675216674805 C 274.6864929199219 -4.200198173522949 276.2293395996094 -3.4234468936920166 278.8692626953125 -3.1059024333953857 C 282.4855041503906 -1.7806878089904785 286.2539978027344 1.1892459392547607 292.8382568359375 2.6108238697052 C 300.697998046875 4.611154079437256 309.6234130859375 7.269050121307373 318.1640625 10.865669250488281 C 326.7100524902344 14.37063217163086 334.55731201171875 18.295448303222656 342.3017883300781 22.784534454345703 C 350.4526062011719 27.512893676757812 358.372802734375 32.89994812011719 366.29315185546875 39.34961700439453 C 374.7542419433594 45.925071716308594 382.6984558105469 53.44148635864258 390.31536865234375 61.419532775878906 C 397.70556640625 69.37918853759766 404.4890441894531 77.3969955444336 410.4471435546875 85.65617370605469 C 416.25115966796875 93.69302368164062 421.7601013183594 101.86297607421875 426.789794921875 110.21583557128906 C 431.48846435546875 118.43783569335938 435.05560302734375 123.66560363769531 433.12255859375 132.9065399169922 C 430.1692199707031 142.0095672607422 424.2792053222656 150.30181884765625 417.6246032714844 158.81307983398438 C 411.1631774902344 167.2235565185547 403.6982421875 174.5084228515625 396.2650451660156 181.67816162109375 C 388.7899169921875 188.54592895507812 380.8515930175781 194.74142456054688 373.14215087890625 200.51809692382812 C 365.37640380859375 206.1521453857422 357.2473449707031 211.46836853027344 347.5956115722656 217.00503540039062 C 336.9862060546875 221.9342041015625 325.1997985839844 224.78977966308594 313.5045471191406 226.4883575439453 C 310.9190673828125 225.89720153808594 315.0924377441406 222.1802520751953 323.4218444824219 218.42091369628906 C 333.3722839355469 212.3465118408203 343.2322082519531 204.50306701660156 350.978271484375 195.2266845703125 C 357.9765319824219 187.57359313964844 362.8301696777344 178.9957733154297 366.08868408203125 170.773193359375 C 369.0947570800781 162.49923706054688 371.17901611328125 154.02516174316406 371.0150451660156 145.18069458007812 C 370.6648864746094 136.11668395996094 369.0899658203125 126.83783721923828 365.1336669921875 118.51862335205078 C 361.5950012207031 109.59512329101562 355.5769958496094 103.72843170166016 349.0340270996094 97.65401458740234 C 345.10260009765625 93.28937530517578 337.885986328125 93.8116226196289 328.620849609375 96.79890441894531 C 323.406982421875 100.56228637695312 312.7456359863281 100.55387878417969 305.1601867675781 103.69364166259766 C 294.7877502441406 102.20149993896484 286.37237548828125 103.77084350585938 278.1443176269531 106.41338348388672 C 270.3961486816406 107.96553039550781 264.1162414550781 109.6136474609375 258.6312561035156 110.20016479492188 C 255.82357788085938 105.16523742675781 253.4132843017578 101.70500183105469 250.31246948242188 102.77687072753906 C 248.4478302001953 106.4834976196289 247.54449462890625 110.56043243408203 245.9364776611328 115.28485870361328 C 238.43002319335938 115.40345001220703 230.87802124023438 116.36270904541016 223.9470672607422 122.4924087524414 C 214.98516845703125 131.0622100830078 205.88890075683594 139.00489807128906 202.0929412841797 150.36196899414062 C 190.24661254882812 147.77967834472656 182.7704315185547 140.9947052001953 173.21116638183594 138.70169067382812 C 165.59304809570312 138.21803283691406 161.14088439941406 137.77919006347656 158.52127075195312 139.34983825683594 C 157.66758728027344 143.49183654785156 154.96963500976562 147.92587280273438 148.58087158203125 150.6157989501953 C 144.73464965820312 155.97630310058594 143.1123504638672 163.33969116210938 142.99549865722656 171.51002502441406 C 143.50482177734375 180.27444458007812 145.2410888671875 189.32412719726562 149.1023712158203 197.7361602783203 C 153.12527465820312 206.9503631591797 159.51565551757812 214.7455291748047 167.9032745361328 221.49676513671875 C 177.66574096679688 228.01333618164062 186.64306640625 234.05503845214844 197.0442657470703 237.47853088378906 C 204.7998504638672 241.21463012695312 212.66436767578125 242.06797790527344 219.08668518066406 242.8087615966797 C 219.50543212890625 244.29295349121094 216.99819946289062 245.3750457763672 211.76190185546875 244.77784729003906 C 204.4799346923828 245.0538787841797 197.27774047851562 240.759521484375 188.0242462158203 240.26687622070312 C 179.22857666015625 240.36053466796875 170.3526611328125 243.1265411376953 161.85498046875 240.75250244140625 C 153.59503173828125 240.82318115234375 144.99742126464844 240.79173278808594 137.481201171875 239.61814880371094 C 129.28317260742188 238.42831420898438 121.14826202392578 236.76071166992188 113.44841003417969 234.6746063232422 C 105.1597671508789 232.49412536621094 97.04530334472656 229.85118103027344 88.79582214355469 226.52413940429688 C 80.37034606933594 223.07742309570312 71.88715362548828 219.4359588623047 64.44607543945312 214.9133758544922 C 57.944908142089844 211.51927185058594 53.808467864990234 205.58506774902344 53.3692741394043 199.19720458984375 C 53.24260711669922 189.4836883544922 54.636451721191406 180.19393920898438 56.448368072509766 170.54476928710938 C 57.99691390991211 161.26300048828125 60.10566329956055 153.37518310546875 62.33644485473633 145.25213623046875 C 64.56568145751953 137.49717712402344 67.37837982177734 129.91969299316406 70.92400360107422 121.82502746582031 C 74.3990478515625 113.469482421875 78.6762466430664 105.26045227050781 83.4195556640625 97.14415740966797 C 88.44561004638672 89.10271453857422 93.782470703125 81.11347961425781 100.30431365966797 73.40856170654297 C 107.04438018798828 65.23114013671875 114.39398956298828 57.21019744873047 122.50401306152344 50.13652038574219 C 130.22549438476562 43.049530029296875 138.6070556640625 37.39680862426758 146.32566833496094 31.71072006225586 C 153.86387634277344 26.502437591552734 161.521484375 24.432960510253906 171.70713806152344 23.761362075805664 C 179.00714111328125 23.239137649536133 188.85874938964844 24.753252029418945 196.3446807861328 26.398147583007812 C 204.03689575195312 28.1162052154541 209.48606872558594 30.913801193237305 214.4162139892578 29.011375427246094 C 217.226318359375 30.266624450683594 224.84413146972656 28.917034149169922 227.80274963378906 25.398624420166016 C 233.5298309326172 18.966510772705078 240.49642944335938 12.020787239074707 249.23875427246094 7.25842809677124 C 258.1492004394531 2.7483668327331543 267.53192138671875 -0.7095476984977722 265.9061279296875 -0.1463194340467453" stroke-width="0.0" fill="rgb(64, 38, 30)" opacity="0.99999124" stroke="rgb(249, 57, 121)" stroke-opacity="0.14353259" stroke-linecap="round" stroke-linejoin="round"/>
    <path d="M 313.24884033203125 242.6173095703125 C 340.0762634277344 247.98956298828125 357.9330139160156 257.1442565917969 373.72564697265625 270.8582458496094 C 391.81475830078125 278.03045654296875 402.2879943847656 285.7673645019531 409.7950134277344 292.33575439453125 C 405.54656982421875 294.5587158203125 396.4554138183594 292.8085021972656 386.0466003417969 290.3022155761719 C 377.1824645996094 291.44366455078125 373.8481750488281 290.0759582519531 378.481689453125 291.5956726074219 C 393.5684814453125 291.3623352050781 411.5234680175781 291.4107666015625 435.21624755859375 300.4761047363281 C 443.3857421875 321.051513671875 447.9600524902344 339.3659973144531 439.3293151855469 352.75018310546875 C 423.8222961425781 347.4263610839844 410.15875244140625 339.70233154296875 394.4381408691406 329.82861328125 C 368.6371154785156 329.1112060546875 351.21142578125 321.0604553222656 332.56396484375 322.5128479003906 C 324.0605163574219 328.6485290527344 320.9781188964844 343.3446044921875 323.73785400390625 363.4875793457031 C 318.827880859375 378.5909423828125 314.0947265625 398.525390625 311.0423278808594 420.5722351074219 C 305.7179870605469 441.6842041015625 300.6606750488281 462.6455993652344 289.9631042480469 477.8306579589844 C 287.6162109375 494.09552001953125 292.4535217285156 505.2557678222656 299.57501220703125 516.3277587890625 C 292.68988037109375 523.3391723632812 284.7102355957031 527.8585205078125 273.1943664550781 527.4844360351562 C 260.7111511230469 527.4260864257812 248.87803649902344 527.974853515625 240.29090881347656 531.280517578125 C 237.59530639648438 548.6624145507812 236.63221740722656 562.3298950195312 247.56898498535156 572.6746826171875 C 265.8399353027344 577.1515502929688 288.86322021484375 575.8231201171875 312.8939514160156 572.72314453125 C 332.2245788574219 569.7825317382812 343.7062072753906 568.1103515625 342.8718566894531 573.8131713867188 C 334.0555114746094 581.079833984375 317.610107421875 585.2199096679688 295.4961242675781 584.6326904296875 C 272.2613830566406 583.8423461914062 248.9904022216797 582.9617309570312 237.22802734375 575.8912963867188 C 229.72555541992188 564.812744140625 235.2828826904297 544.976806640625 235.5249786376953 519.1976318359375 C 241.9199981689453 502.59039306640625 243.52532958984375 486.8153076171875 242.14041137695312 472.45623779296875 C 234.00648498535156 464.5768127441406 226.64056396484375 461.25506591796875 226.52854919433594 472.0548400878906 C 214.94598388671875 476.3806457519531 207.87457275390625 485.1258544921875 199.99008178710938 488.4968566894531 C 192.49574279785156 487.3452453613281 188.43606567382812 484.96380615234375 189.55335998535156 483.3355407714844 C 195.46588134765625 484.2968444824219 204.45913696289062 489.0663146972656 211.35716247558594 496.1169128417969 C 213.17869567871094 519.7515258789062 213.88241577148438 540.2098999023438 217.16282653808594 564.0042114257812 C 219.59690856933594 575.0410766601562 206.71482849121094 582.4898681640625 190.0626983642578 587.186767578125 C 169.3533477783203 593.38232421875 153.3941650390625 600.3005981445312 131.30953979492188 594.5972900390625 C 117.24700164794922 592.7164916992188 114.79553985595703 583.5985107421875 119.3571548461914 575.4164428710938 C 132.00079345703125 580.789306640625 151.60189819335938 583.7073974609375 172.8629608154297 586.0814208984375 C 189.7593231201172 585.0714721679688 204.05245971679688 578.7000122070312 213.4991912841797 569.2396850585938 C 213.24237060546875 556.0381469726562 212.49562072753906 543.160400390625 208.98744201660156 533.01123046875 C 197.1904754638672 529.810546875 185.78759765625 528.9918212890625 174.06625366210938 530.6305541992188 C 164.85218811035156 529.1923217773438 155.5025177001953 525.9063720703125 150.6451416015625 516.01025390625 C 161.01942443847656 505.30242919921875 170.3514404296875 494.8470764160156 166.42532348632812 476.3724670410156 C 157.39266967773438 457.5908508300781 153.9698944091797 436.4443054199219 153.0829620361328 412.0965270996094 C 148.55592346191406 398.1759033203125 130.54820251464844 390.3487243652344 115.95523834228516 379.3631591796875 C 114.77989196777344 359.79974365234375 113.486572265625 349.6107177734375 106.46392822265625 348.1158752441406 C 93.60712432861328 353.4631652832031 84.35467529296875 359.7208251953125 76.75418090820312 356.874267578125 C 75.35824584960938 347.17156982421875 80.79815673828125 335.7684326171875 91.08428955078125 325.5561828613281 C 102.56771850585938 318.76904296875 110.15969848632812 314.9129943847656 111.52639770507812 312.7309875488281 C 106.43880462646484 309.5984802246094 97.48979187011719 303.935302734375 89.73665618896484 295.97430419921875 C 88.18903350830078 283.31622314453125 93.81610107421875 276.8677673339844 106.92793273925781 268.1224670410156 C 121.71591186523438 257.4219055175781 139.43174743652344 248.94236755371094 157.1477813720703 242.8960418701172 C 171.32809448242188 238.14358520507812 180.0558319091797 240.34129333496094 181.5770263671875 252.0886688232422 C 177.25294494628906 269.1116638183594 171.39239501953125 286.92840576171875 166.27696228027344 305.7574462890625 C 162.99559020996094 324.8111572265625 160.7081298828125 340.3782043457031 160.5421142578125 352.9049377441406 C 160.99264526367188 362.2184753417969 161.61801147460938 367.3670654296875 161.7736053466797 368.595947265625 C 161.4739532470703 366.0231018066406 160.6748046875 359.8639221191406 160.53672790527344 350.2367858886719 C 161.95590209960938 339.42108154296875 163.18161010742188 326.3833923339844 165.71922302246094 312.4048767089844 C 168.1885986328125 298.21197509765625 171.4610595703125 284.4708251953125 175.86920166015625 270.9277648925781 C 180.3768768310547 259.00091552734375 190.57620239257812 252.2783966064453 204.43438720703125 245.67312622070312 C 222.05271911621094 244.40573120117188 238.95330810546875 239.1298370361328 254.07110595703125 235.67420959472656 C 267.8145446777344 237.8743896484375 279.33575439453125 245.5989990234375 288.7552490234375 256.7469482421875 C 293.4601745605469 271.14410400390625 300.7268371582031 283.61956787109375 306.29168701171875 296.13006591796875 C 311.43280029296875 306.0804748535156 313.2655029296875 313.2967224121094 316.7272033691406 315.8134765625 C 316.4837951660156 314.0898742675781 316.4626159667969 310.4482116699219 316.4801025390625 306.65447998046875 C 316.4984436035156 304.34954833984375 315.6894226074219 303.68963623046875 313.0535583496094 303.11627197265625 C 309.1592712402344 299.874267578125 302.5493469238281 290.2505187988281 296.2629699707031 276.10040283203125 C 286.815185546875 259.8304138183594 279.2989501953125 232.9032745361328 313.24884033203125 242.6173095703125" stroke-width="0.0" fill="rgb(251, 110, 165)" opacity="0.9998011" stroke="rgb(118, 200, 126)" stroke-opacity="0.87374717" stroke-linecap="round" stroke-linejoin="round"/>
    <path d="M 235.886962890625 89.76940155029297 C 239.23422241210938 91.3531494140625 241.2734375 93.31684875488281 242.83990478515625 94.0068130493164 C 244.21681213378906 95.07632446289062 245.58584594726562 96.1594009399414 246.36390686035156 96.42814636230469 C 246.56329345703125 96.9481430053711 247.27777099609375 97.26180267333984 248.105712890625 97.14754486083984 C 249.0232391357422 98.41927337646484 250.94540405273438 99.96675109863281 252.86868286132812 102.26920318603516 C 254.89830017089844 104.47265625 257.5265808105469 107.12175750732422 259.8637390136719 110.56956481933594 C 262.5755615234375 109.675048828125 267.0030517578125 108.65497589111328 272.2545166015625 107.6528091430664 C 277.9129638671875 105.84774017333984 284.5851745605469 104.4720230102539 291.3050537109375 103.12342834472656 C 298.7304992675781 100.53938293457031 304.9722900390625 103.24208068847656 311.5078430175781 104.52429962158203 C 319.3402099609375 103.51673126220703 325.7433166503906 107.77780151367188 328.6248779296875 113.05581665039062 C 330.5511474609375 120.38946533203125 329.7530822753906 127.92201232910156 329.0635070800781 132.5191192626953 C 332.1216125488281 132.3691864013672 338.184814453125 129.68614196777344 344.1278381347656 126.18399810791016 C 347.0146789550781 120.68716430664062 345.0926208496094 115.24893951416016 340.7286376953125 109.5491943359375 C 335.5981140136719 104.99085235595703 330.109375 101.8650131225586 319.9556884765625 100.1834945678711 C 323.87554931640625 95.37522888183594 331.84130859375 95.78231811523438 342.1423645019531 94.1023941040039 C 347.28497314453125 92.75863647460938 351.4015808105469 100.43031311035156 357.82513427734375 105.95696258544922 C 362.35186767578125 111.56130981445312 365.7999572753906 118.96637725830078 368.0268859863281 126.18597412109375 C 370.1578063964844 132.34132385253906 371.28839111328125 139.46055603027344 370.90863037109375 145.8560333251953 C 370.9993896484375 152.3800811767578 370.042236328125 159.00758361816406 367.921875 165.39015197753906 C 366.275634765625 171.22161865234375 363.1205139160156 177.7620391845703 359.85211181640625 183.50918579101562 C 355.9156494140625 189.47695922851562 351.2153625488281 194.7639923095703 346.50286865234375 200.1091766357422 C 341.3702392578125 205.24490356445312 335.7101745605469 210.0650177001953 329.54473876953125 214.29627990722656 C 323.8754577636719 219.01084899902344 316.8234558105469 221.66751098632812 312.7336730957031 226.4634246826172 C 309.3544006347656 231.0618438720703 302.6676025390625 232.92169189453125 297.9295349121094 235.19195556640625 C 293.39239501953125 236.39886474609375 289.81146240234375 237.54086303710938 287.4906921386719 237.9730987548828 C 289.8856506347656 240.62559509277344 290.195068359375 245.61476135253906 290.1401062011719 250.62417602539062 C 293.9875793457031 254.6490936279297 296.80633544921875 257.86395263671875 298.5381774902344 260.0797424316406 C 299.5334167480469 261.46954345703125 299.77099609375 261.4546203613281 298.6542663574219 260.41815185546875 C 296.72650146484375 258.0306091308594 294.02734375 254.65371704101562 290.5668029785156 250.64295959472656 C 285.3957824707031 247.6114501953125 280.1712646484375 244.08372497558594 273.9300231933594 242.23561096191406 C 268.88836669921875 239.57508850097656 263.43463134765625 239.7844696044922 258.5829162597656 242.71621704101562 C 253.266357421875 242.1261444091797 248.04324340820312 243.23519897460938 243.37771606445312 244.43585205078125 C 237.81044006347656 244.40127563476562 232.99325561523438 244.48696899414062 228.47398376464844 244.57614135742188 C 224.0401153564453 243.7549591064453 219.4603271484375 243.23036193847656 215.67274475097656 242.7953338623047 C 210.48927307128906 241.75750732421875 205.48216247558594 240.6527862548828 200.1492462158203 238.96115112304688 C 194.5743408203125 237.3146514892578 189.0143280029297 234.6790771484375 183.1726837158203 231.70343017578125 C 177.41490173339844 228.58209228515625 171.5235595703125 224.72833251953125 166.7334442138672 220.66282653808594 C 161.8497772216797 216.441650390625 157.97561645507812 211.87060546875 153.98509216308594 207.11968994140625 C 150.54685974121094 201.95199584960938 147.6995086669922 196.2930908203125 145.55381774902344 190.10638427734375 C 143.7617950439453 183.89273071289062 142.31846618652344 176.3276824951172 143.2268524169922 169.9347381591797 C 143.0182647705078 162.75424194335938 145.01824951171875 157.46092224121094 147.7101287841797 150.81752014160156 C 153.8396453857422 148.9591827392578 156.410400390625 145.37025451660156 157.3653106689453 138.9495849609375 C 158.1379852294922 133.6425323486328 155.997314453125 128.57884216308594 160.21217346191406 126.88481140136719 C 164.1848602294922 135.10244750976562 165.1396484375 138.3716278076172 170.5508270263672 137.89886474609375 C 176.41107177734375 135.31063842773438 181.9981689453125 131.94424438476562 192.93310546875 128.726318359375 C 193.28610229492188 133.4164581298828 185.9628448486328 135.78501892089844 184.94528198242188 142.12632751464844 C 182.84571838378906 152.5520782470703 183.83888244628906 158.63548278808594 188.44888305664062 166.1203155517578 C 192.84544372558594 166.80906677246094 198.4356231689453 165.95635986328125 201.45492553710938 164.6296844482422 C 195.64535522460938 162.42129516601562 189.67335510253906 159.24407958984375 187.58331298828125 150.17921447753906 C 184.93673706054688 143.8564453125 190.28765869140625 146.36293029785156 200.6725311279297 148.64671325683594 C 206.5321807861328 144.40505981445312 214.2267303466797 143.9890899658203 212.05560302734375 138.51132202148438 C 212.53070068359375 128.97909545898438 219.49986267089844 125.38275909423828 223.62875366210938 131.54734802246094 C 229.17282104492188 136.59408569335938 229.68605041503906 143.979736328125 227.4433135986328 151.72958374023438 C 224.39505004882812 157.8236541748047 221.13990783691406 160.48341369628906 223.39126586914062 160.6953582763672 C 230.3616180419922 158.14793395996094 238.95167541503906 156.1217041015625 244.4771270751953 151.55413818359375 C 245.70111083984375 145.57015991210938 242.66099548339844 139.14268493652344 237.0829315185547 132.83714294433594 C 230.02569580078125 128.81527709960938 222.6613311767578 125.70781707763672 214.57508850097656 123.93783569335938 C 208.57142639160156 123.2854232788086 213.8226776123047 120.77549743652344 219.84881591796875 119.70296478271484 C 225.66119384765625 118.09624481201172 232.0098419189453 116.74047088623047 237.995849609375 115.79102325439453 C 242.93516540527344 115.33087921142578 246.25462341308594 114.44097900390625 246.8630828857422 113.38024139404297 C 245.63644409179688 109.37018585205078 245.41824340820312 105.37193298339844 235.886962890625 89.76940155029297" stroke-width="0.0" fill="rgb(250, 188, 107)" opacity="0.9999995" stroke="rgb(18, 17, 225)" stroke-opacity="0.6161581" stroke-linecap="round" stroke-linejoin="round"/>
    <path d="M 173.1356201171875 238.74172973632812 C 174.94448852539062 239.6519012451172 176.67124938964844 239.5078887939453 178.50411987304688 239.7105712890625 C 180.24847412109375 239.15196228027344 182.42442321777344 239.03346252441406 184.11912536621094 241.21591186523438 C 187.55276489257812 242.12753295898438 188.48980712890625 245.1459503173828 186.8780059814453 249.0784149169922 C 185.3465576171875 255.89089965820312 183.74612426757812 264.2118225097656 182.4005126953125 273.4945373535156 C 179.43836975097656 282.5437927246094 176.8557891845703 290.9247131347656 174.09056091308594 297.86541748046875 C 171.20974731445312 303.276611328125 168.5755157470703 307.9939880371094 165.26174926757812 312.8229064941406 C 161.37110900878906 318.6808776855469 156.0716094970703 326.4437255859375 148.37269592285156 334.6855773925781 C 144.8883056640625 345.7588195800781 143.24359130859375 358.46844482421875 145.4242401123047 368.9215087890625 C 149.74732971191406 378.5034484863281 154.2821807861328 384.578125 162.40518188476562 386.4435729980469 C 173.31520080566406 384.4876403808594 185.79229736328125 381.0635986328125 199.43214416503906 377.9902038574219 C 216.6408233642578 376.3196105957031 234.08523559570312 376.1466369628906 252.4686737060547 376.3485107421875 C 270.3774719238281 375.49676513671875 287.14837646484375 377.3245849609375 301.3512878417969 380.1806945800781 C 311.5213623046875 380.01092529296875 316.91778564453125 375.6052551269531 320.0872497558594 371.2940368652344 C 321.5892028808594 370.4224853515625 319.21514892578125 372.628662109375 313.6859130859375 377.66552734375 C 310.3250732421875 388.5790100097656 308.06982421875 403.43707275390625 305.67962646484375 419.71539306640625 C 304.8740234375 436.2869873046875 303.43060302734375 451.084228515625 300.272705078125 465.5100402832031 C 297.0459899902344 471.4977722167969 288.2279357910156 476.3807678222656 286.24267578125 482.5594787597656 C 285.73626708984375 490.604736328125 284.04730224609375 498.6896057128906 287.37274169921875 507.2776794433594 C 288.0873107910156 516.6394653320312 290.73468017578125 528.76318359375 297.8137512207031 535.2267456054688 C 310.191650390625 539.5633544921875 322.94439697265625 544.58203125 334.2901306152344 550.7532348632812 C 341.5545654296875 555.6163330078125 341.55816650390625 560.457763671875 336.2204284667969 555.9031372070312 C 324.9902648925781 549.487060546875 309.39349365234375 544.2308959960938 297.96881103515625 531.9043579101562 C 280.3350830078125 525.5515747070312 262.7720947265625 528.36669921875 247.22702026367188 529.077880859375 C 236.8646240234375 529.9071044921875 235.07098388671875 539.0370483398438 237.1141815185547 550.0910034179688 C 239.5614471435547 561.5276489257812 243.576171875 570.370361328125 247.18763732910156 575.7996826171875 C 247.90737915039062 578.0035400390625 246.642822265625 576.3024291992188 243.46536254882812 571.4984741210938 C 239.7012481689453 563.3317260742188 236.9755859375 551.8492431640625 237.3390655517578 537.7763061523438 C 236.3865509033203 521.7119750976562 241.42335510253906 505.4625549316406 245.7989044189453 490.64593505859375 C 245.5708465576172 477.20538330078125 241.2710723876953 467.9523010253906 233.86131286621094 463.2739562988281 C 224.81399536132812 465.8017883300781 217.66209411621094 471.754638671875 214.47470092773438 482.67193603515625 C 213.00657653808594 495.6455993652344 210.98565673828125 508.6256408691406 211.45289611816406 521.7319946289062 C 212.60739135742188 534.7740478515625 215.1945037841797 546.7576904296875 216.17694091796875 559.0401000976562 C 214.9785614013672 570.4511108398438 208.7200164794922 579.923583984375 197.11158752441406 585.604736328125 C 181.2007293701172 589.4576416015625 164.6672821044922 590.3512573242188 148.81781005859375 588.954833984375 C 134.54612731933594 584.6189575195312 126.70250701904297 578.1356811523438 124.02719116210938 569.3109741210938 C 132.13116455078125 564.6210327148438 137.39112854003906 557.7965087890625 141.86119079589844 555.6320190429688 C 141.1772918701172 562.1845703125 132.67410278320312 565.3829345703125 125.25675964355469 572.0357055664062 C 126.54994201660156 577.3301391601562 134.35012817382812 583.7667846679688 148.1078643798828 587.1875 C 165.91162109375 590.4489135742188 183.93043518066406 586.8470458984375 208.6119384765625 586.37255859375 C 213.54165649414062 576.984375 216.7281951904297 562.5239868164062 215.30332946777344 547.1194458007812 C 212.92715454101562 535.1575317382812 206.19549560546875 528.6145629882812 197.30880737304688 535.062744140625 C 182.07974243164062 539.2576904296875 170.8825225830078 533.654052734375 161.74546813964844 528.5447387695312 C 158.6348114013672 526.7303466796875 159.3828887939453 519.9977416992188 161.9785614013672 510.7010803222656 C 165.96803283691406 501.66058349609375 167.16175842285156 489.20648193359375 166.11138916015625 477.2540283203125 C 158.22288513183594 466.4366760253906 156.2371368408203 455.0534973144531 155.42269897460938 438.98370361328125 C 156.35525512695312 423.2618713378906 156.825439453125 405.6075439453125 155.52186584472656 387.7891845703125 C 148.83782958984375 371.0970764160156 140.6642608642578 356.9504089355469 128.18930053710938 346.8146667480469 C 112.7806625366211 345.0866394042969 98.96458435058594 346.9891357421875 86.94577026367188 354.38671875 C 77.1140365600586 365.6053771972656 69.00939178466797 377.16326904296875 57.63140106201172 387.5539245605469 C 45.79300308227539 388.6954650878906 35.08808517456055 392.1960754394531 27.128318786621094 394.06463623046875 C 13.898811340332031 390.7770690917969 12.667874336242676 384.5400695800781 9.840335845947266 373.5170593261719 C 2.891376256942749 364.02374267578125 7.586689472198486 356.88494873046875 16.21697998046875 347.4069519042969 C 24.031511306762695 335.64715576171875 29.83177947998047 330.0691833496094 45.28413391113281 330.1407470703125 C 57.02981185913086 321.3809814453125 67.0515365600586 310.84088134765625 76.90290832519531 299.956787109375 C 85.17923736572266 291.0834045410156 94.9764633178711 293.1142883300781 108.57209777832031 299.998046875 C 117.2162094116211 311.7535095214844 124.67098236083984 323.4861755371094 128.16200256347656 335.30743408203125 C 138.12435913085938 340.32568359375 146.71502685546875 337.78375244140625 153.01446533203125 330.4555969238281 C 160.34339904785156 319.89703369140625 167.47677612304688 309.53497314453125 173.65054321289062 298.261474609375 C 177.95079040527344 287.1494445800781 181.04373168945312 276.4718933105469 184.27882385253906 266.3990478515625 C 185.2340850830078 257.6183776855469 184.90567016601562 247.42013549804688 173.1356201171875 238.74172973632812" stroke-width="0.0" fill="rgb(248, 200, 106)" opacity="0.9997811" stroke="rgb(207, 9, 130)" stroke-opacity="0.32220793" stroke-linecap="round" stroke-linejoin="round"/>
    <path d="M 170.79803466796875 380.8186950683594 C 171.21322631835938 380.4179992675781 171.65623474121094 380.0484924316406 172.2393035888672 379.7229919433594 C 172.98757934570312 379.388671875 173.89755249023438 379.102783203125 174.935302734375 378.84381103515625 C 176.0618438720703 378.60272216796875 177.23277282714844 378.4322814941406 178.4297637939453 378.3157653808594 C 179.62835693359375 378.26373291015625 180.78709411621094 378.2809143066406 181.90628051757812 378.4056701660156 C 182.96368408203125 378.7737121582031 183.97262573242188 379.3412170410156 184.86016845703125 379.97271728515625 C 185.6248016357422 380.56341552734375 186.34779357910156 380.99383544921875 187.03533935546875 381.22503662109375 C 187.7947998046875 381.2734069824219 188.65911865234375 381.177490234375 189.62237548828125 381.12725830078125 C 190.64883422851562 381.1533203125 191.68850708007812 381.2680969238281 192.64456176757812 381.4114990234375 C 193.42515563964844 381.6197509765625 194.02088928222656 381.8196105957031 194.51107788085938 381.9971923828125 C 194.93792724609375 382.1298522949219 195.40309143066406 382.2268371582031 196.00347900390625 382.3287353515625 C 196.85260009765625 382.4877624511719 197.97283935546875 382.6649475097656 199.41087341308594 382.9136962890625 C 201.24652099609375 383.2398376464844 203.56185913085938 383.6298828125 206.32717895507812 384.087890625 C 209.46644592285156 384.58123779296875 212.97247314453125 385.18121337890625 216.80628967285156 385.8578186035156 C 220.8884735107422 386.4483947753906 225.13592529296875 386.8779602050781 229.48548889160156 387.197998046875 C 233.88583374023438 387.3774108886719 238.21177673339844 387.5082092285156 242.38125610351562 387.5894775390625 C 246.3478240966797 387.55535888671875 250.1387939453125 387.4045715332031 253.69039916992188 387.22735595703125 C 257.1123046875 386.95263671875 260.30865478515625 386.5734558105469 263.2514343261719 386.14813232421875 C 265.9781799316406 385.7793884277344 268.4889221191406 385.4525451660156 270.8434143066406 385.1748962402344 C 273.0250244140625 384.82904052734375 275.1375427246094 384.4662780761719 277.408203125 384.072509765625 C 279.95477294921875 383.54852294921875 282.81390380859375 382.8074035644531 286.14678955078125 381.8079833984375 C 289.8872985839844 380.5467834472656 293.98675537109375 379.0738830566406 298.51593017578125 377.7241516113281 C 303.4232482910156 377.03936767578125 308.3540344238281 377.3082275390625 312.65313720703125 378.85198974609375 C 315.4598388671875 381.881103515625 316.4476623535156 385.96044921875 316.0900573730469 390.6193542480469 C 315.4062194824219 395.49462890625 314.6273498535156 400.4050598144531 313.82171630859375 405.256103515625 C 312.6716613769531 410.242919921875 311.5290222167969 415.7752380371094 310.4591979980469 421.42462158203125 C 309.0704345703125 427.5382080078125 307.3959045410156 434.1390075683594 305.142822265625 441.1941223144531 C 303.6061096191406 448.09002685546875 302.22991943359375 454.427490234375 300.88006591796875 460.1459045410156 C 300.58251953125 464.971435546875 299.77716064453125 468.8489685058594 297.8596496582031 471.36627197265625 C 294.91241455078125 472.8931884765625 291.5130310058594 473.517822265625 288.1410827636719 473.08416748046875 C 284.85235595703125 472.47283935546875 281.27862548828125 472.4168395996094 277.6606750488281 472.53594970703125 C 274.03424072265625 472.4967041015625 270.067626953125 472.4091491699219 265.6119384765625 472.1801452636719 C 260.7632141113281 471.9446716308594 255.79922485351562 471.61798095703125 251.06011962890625 470.6432189941406 C 247.22216796875 468.34393310546875 244.3877410888672 465.0401916503906 242.33961486816406 461.278564453125 C 240.74742126464844 458.0707702636719 239.70433044433594 455.95281982421875 239.38937377929688 455.2171936035156 C 239.82366943359375 456.03289794921875 241.0760955810547 458.2229309082031 243.06910705566406 461.3999938964844 C 245.23495483398438 465.1932067871094 246.76341247558594 469.43017578125 247.06117248535156 473.8106384277344 C 246.8008575439453 477.8179931640625 246.13381958007812 480.68963623046875 245.14669799804688 481.8043212890625 C 244.23941040039062 480.6808166503906 243.60630798339844 477.7396240234375 242.75123596191406 473.70697021484375 C 240.45936584472656 469.61651611328125 237.2181854248047 465.6134948730469 234.3588409423828 461.5379333496094 C 232.6333770751953 457.5196228027344 231.04083251953125 454.83013916015625 229.32867431640625 454.3519287109375 C 228.1234893798828 456.22149658203125 227.57070922851562 459.84521484375 226.99119567871094 464.353515625 C 225.26205444335938 468.6738586425781 222.17100524902344 472.28753662109375 218.35166931152344 475.3052673339844 C 215.543701171875 478.71954345703125 214.51065063476562 483.0931396484375 214.19482421875 488.02899169921875 C 213.5911865234375 492.8553466796875 212.71023559570312 496.9127197265625 211.5933074951172 499.4820861816406 C 210.43048095703125 499.9770812988281 209.70693969726562 498.4062805175781 209.6467742919922 495.0165100097656 C 209.98095703125 490.3311462402344 210.34619140625 485.0096435546875 211.1002960205078 479.6701354980469 C 212.04025268554688 474.7295227050781 213.70196533203125 470.5260009765625 215.5249786376953 467.06329345703125 C 217.10687255859375 464.25494384765625 218.2855224609375 462.1736755371094 219.08694458007812 460.86651611328125 C 219.39407348632812 460.30462646484375 219.1885528564453 460.5419616699219 218.58502197265625 461.6284484863281 C 217.71792602539062 463.4601135253906 216.53814697265625 465.95196533203125 215.25697326660156 468.8599853515625 C 213.97259521484375 471.7464599609375 211.9615936279297 473.9832458496094 208.78443908691406 475.24798583984375 C 204.3843231201172 475.69140625 199.0587615966797 475.6485290527344 193.04690551757812 475.2887268066406 C 186.5479278564453 474.9682312011719 179.89224243164062 474.20465087890625 173.45220947265625 473.2535400390625 C 167.617919921875 472.8890686035156 162.8592529296875 472.4364013671875 159.54949951171875 470.697998046875 C 157.87449645996094 467.2837829589844 157.3310089111328 462.4540710449219 157.2901153564453 456.608154296875 C 156.7481231689453 450.2687683105469 156.053955078125 443.77947998046875 155.55433654785156 437.22039794921875 C 154.8331298828125 430.7061767578125 154.06031799316406 424.3335876464844 153.4870147705078 418.2262878417969 C 153.0436553955078 412.3703308105469 152.88949584960938 406.7341003417969 153.0625457763672 401.33319091796875 C 153.89845275878906 396.2354431152344 155.15611267089844 391.28790283203125 156.7003173828125 386.6510314941406 C 158.7143096923828 382.592041015625 160.90542602539062 378.8012390136719 170.79803466796875 380.8186950683594" stroke-width="0.0" fill="rgb(251, 76, 3)" opacity="1.0" stroke="rgb(20, 77, 79)" stroke-opacity="0.46054134" stroke-linecap="round" stroke-linejoin="round"/>
    <path d="M 289.2243957519531 15.690187454223633 C 290.1099548339844 15.224602699279785 291.0119323730469 14.872791290283203 291.86962890625 14.59532642364502 C 292.68988037109375 14.394770622253418 293.4691162109375 14.35806941986084 294.28399658203125 14.538570404052734 C 295.1932373046875 14.993512153625488 296.2640686035156 15.774072647094727 297.59979248046875 16.900392532348633 C 299.2107849121094 18.449291229248047 301.07049560546875 20.43218421936035 303.1033020019531 22.846641540527344 C 305.265380859375 25.724620819091797 307.5226745605469 28.99464225769043 309.7475891113281 32.570289611816406 C 311.8600158691406 36.433719635009766 313.8188781738281 40.438453674316406 315.6746826171875 44.48750686645508 C 317.50677490234375 48.480892181396484 319.4127502441406 52.29142379760742 321.4706726074219 55.83427429199219 C 323.69195556640625 59.04873275756836 326.0471496582031 61.928016662597656 328.3675537109375 64.50474548339844 C 330.3746032714844 66.69559478759766 331.7174377441406 68.66581726074219 332.1336364746094 70.47633361816406 C 331.43487548828125 72.18238830566406 329.7437438964844 73.8475570678711 327.1190185546875 75.49817657470703 C 323.8758239746094 77.15621185302734 320.3379211425781 78.85327911376953 316.6902770996094 80.62706756591797 C 313.0696716308594 82.50800323486328 309.59759521484375 84.49530792236328 306.32916259765625 86.55297088623047 C 303.2048034667969 88.66580200195312 300.0635681152344 90.7320785522461 296.72723388671875 92.63372802734375 C 293.11810302734375 94.26974487304688 289.2535400390625 95.48851776123047 285.1288757324219 96.20980834960938 C 280.76812744140625 96.28093719482422 276.2353210449219 95.63192749023438 271.6086730957031 94.31969451904297 C 266.9683837890625 92.45416259765625 262.3583068847656 90.1589584350586 257.78997802734375 87.56047058105469 C 253.22215270996094 84.8073959350586 248.69163513183594 82.2239761352539 244.2371063232422 80.13536834716797 C 239.96163940429688 78.72550964355469 235.99351501464844 78.20932006835938 232.4780731201172 78.73538208007812 C 229.53179931640625 80.3720932006836 227.2386016845703 82.97062683105469 225.6584014892578 86.28524017333984 C 224.67189025878906 90.15821838378906 224.10073852539062 94.26371002197266 223.75845336914062 98.24797058105469 C 223.3677520751953 101.8734130859375 222.61611938476562 105.0037612915039 221.17242431640625 107.53411102294922 C 218.85169982910156 109.37225341796875 215.59889221191406 110.58124542236328 211.49472045898438 111.2996597290039 C 206.66297912597656 111.5301742553711 201.28038024902344 111.4415512084961 195.520263671875 111.16477966308594 C 189.59254455566406 110.70038604736328 183.70864868164062 110.17345428466797 178.0235595703125 109.6902084350586 C 172.6106414794922 109.35823059082031 167.5721435546875 109.30990600585938 162.93212890625 109.63520050048828 C 158.74012756347656 110.42988586425781 155.04974365234375 111.81167602539062 151.87518310546875 113.7823715209961 C 149.15713500976562 116.37545013427734 146.8676300048828 119.51266479492188 145.01815795898438 123.01423645019531 C 143.3833465576172 126.75955200195312 141.79745483398438 130.5452117919922 140.10818481445312 134.19798278808594 C 138.28326416015625 137.6841583251953 136.26063537597656 141.04673767089844 134.09913635253906 144.35755920410156 C 132.02899169921875 147.7908172607422 130.23912048339844 151.4322967529297 128.87353515625 155.3883514404297 C 127.97339630126953 159.69146728515625 127.39852905273438 164.26747131347656 126.97052001953125 168.9546356201172 C 126.51763153076172 173.52626037597656 125.81453704833984 177.82630920410156 124.55526733398438 181.64234924316406 C 122.52490997314453 184.8848419189453 119.62796783447266 187.52322387695312 115.77778625488281 189.54698181152344 C 111.03804016113281 190.94979858398438 105.5120849609375 191.73338317871094 99.46188354492188 192.01683044433594 C 93.24303436279297 191.79196166992188 87.10417175292969 191.0316619873047 81.27172088623047 189.72109985351562 C 76.03197479248047 187.85830688476562 71.62864685058594 185.51678466796875 68.23353576660156 182.729248046875 C 65.94837951660156 179.55125427246094 64.80049896240234 176.13851928710938 64.73438262939453 172.57345581054688 C 65.7181396484375 169.00155639648438 67.43324279785156 165.43307495117188 69.61225128173828 161.86813354492188 C 71.99209594726562 158.1825714111328 74.33210754394531 154.3502655029297 76.44422149658203 150.32424926757812 C 78.24407196044922 146.04832458496094 79.76420593261719 141.51889038085938 81.06948852539062 136.78103637695312 C 82.21725463867188 131.93258666992188 83.40930938720703 127.05665588378906 84.8316650390625 122.31724548339844 C 86.59587097167969 117.92893981933594 88.83025360107422 113.89855194091797 91.42532348632812 110.30451965332031 C 94.20418548583984 107.06489562988281 97.07672882080078 104.11605072021484 99.9688491821289 101.40853118896484 C 102.76449584960938 98.84516906738281 105.4845199584961 96.26982879638672 108.09261322021484 93.59557342529297 C 110.55955505371094 90.80316925048828 113.05854797363281 87.88658905029297 115.66626739501953 84.80327606201172 C 118.50376892089844 81.564208984375 121.55632781982422 78.25306701660156 124.77500915527344 74.92149353027344 C 128.15200805664062 71.56853485107422 131.6583709716797 68.20661163330078 135.3148956298828 64.84733581542969 C 138.97190856933594 61.505470275878906 142.6157684326172 58.186405181884766 146.225830078125 54.78717041015625 C 149.68695068359375 51.30458068847656 153.0384979248047 47.77124786376953 156.2962188720703 44.27532958984375 C 159.46923828125 40.880496978759766 162.58648681640625 37.86897659301758 165.7242889404297 35.50173568725586 C 168.9446563720703 33.94377517700195 172.3134002685547 33.30265426635742 175.87994384765625 33.764747619628906 C 179.6355743408203 35.09287643432617 183.5364227294922 37.02421569824219 187.6094970703125 39.3300666809082 C 191.88632202148438 41.75716018676758 196.35293579101562 44.01116180419922 200.939697265625 45.819732666015625 C 205.54481506347656 46.993019104003906 210.0503387451172 47.379146575927734 214.38172912597656 46.87356185913086 C 218.49436950683594 45.446529388427734 222.3339080810547 43.18675231933594 225.9005889892578 40.2955207824707 C 229.22474670410156 36.97211456298828 232.36383056640625 33.389556884765625 235.45016479492188 29.857969284057617 C 238.59640502929688 26.607187271118164 241.85707092285156 23.71375274658203 245.39305114746094 21.2430362701416 C 249.4222412109375 19.243553161621094 253.88571166992188 17.72474479675293 258.85162353515625 16.6981201171875 C 264.26708984375 16.00666618347168 270.04949951171875 15.60941219329834 276.07061767578125 15.455683708190918 C 282.23150634765625 15.42654037475586 288.4302978515625 15.437289237976074 289.2243957519531 15.690187454223633" stroke-width="0.0" fill="rgb(61, 39, 36)" opacity="0.99953884" stroke="rgb(184, 91, 242)" stroke-opacity="0.17438076" stroke-linecap="round" stroke-linejoin="round"/>
  </g>
</svg>
