<?xml version="1.0" ?>
<svg xmlns="http://www.w3.org/2000/svg" version="1.1" width="474" height="596">
  <defs/>
  <g>
    <path d="M 265.9112548828125 -0.1417108178138733 C 267.0711669921875 -1.150635004043579 268.3597717285156 -1.7402242422103882 269.3971252441406 -2.576500177383423 C 270.32977294921875 -3.6331241130828857 271.0733337402344 -4.2553277015686035 271.97406005859375 -4.4672160148620605 C 272.6766662597656 -4.729249954223633 273.1267395019531 -4.787413597106934 273.6848449707031 -4.6059675216674805 C 274.6864929199219 -4.200198173522949 276.2293395996094 -3.4234468936920166 278.8775634765625 -3.119227647781372 C 282.4870300292969 -1.7653741836547852 286.2174377441406 1.2322194576263428 292.8277587890625 2.615849256515503 C 300.6919250488281 4.618325233459473 309.62591552734375 7.267027378082275 318.1531066894531 10.87720775604248 C 326.71368408203125 14.374150276184082 334.5657958984375 18.28293228149414 342.2861633300781 22.799192428588867 C 350.4592590332031 27.51350212097168 358.3780212402344 32.88800048828125 366.2731628417969 39.36860275268555 C 374.7401123046875 45.94101333618164 382.7052001953125 53.4359245300293 390.2999267578125 61.43466567993164 C 397.7154235839844 69.36585998535156 404.4674987792969 77.41899108886719 410.4284973144531 85.67411804199219 C 416.2217102050781 93.72254943847656 421.73248291015625 101.89088439941406 426.7525329589844 110.25481414794922 C 431.4366455078125 118.49102020263672 434.9929504394531 123.66817474365234 433.1234130859375 132.9017791748047 C 430.1494445800781 141.99974060058594 424.27099609375 150.2915496826172 417.6236267089844 158.8101806640625 C 411.1278381347656 167.18832397460938 403.69024658203125 174.50245666503906 396.271240234375 181.6826934814453 C 388.7960205078125 188.54966735839844 380.82501220703125 194.71417236328125 373.1097106933594 200.48500061035156 C 365.3741455078125 206.1522979736328 357.2607116699219 211.48097229003906 347.59747314453125 216.9996795654297 C 336.92401123046875 221.87347412109375 325.16064453125 224.75682067871094 313.4266357421875 226.5174560546875 C 310.86279296875 225.95701599121094 315.0845642089844 222.1844940185547 323.4415283203125 218.4427490234375 C 333.365966796875 212.34339904785156 343.3083801269531 204.55299377441406 351.03143310546875 195.2887420654297 C 357.9294738769531 187.5131378173828 362.8031921386719 178.97137451171875 366.0813903808594 170.76254272460938 C 369.1112365722656 162.5209197998047 371.1731872558594 154.01803588867188 371.0212097167969 145.13865661621094 C 370.7069396972656 136.115478515625 369.0906982421875 126.82780456542969 365.186767578125 118.45731353759766 C 361.61285400390625 109.56427764892578 355.6319580078125 103.6727066040039 349.10723876953125 97.59095764160156 C 345.1264953613281 93.33951568603516 337.9061584472656 93.85301971435547 328.65802001953125 96.85762786865234 C 323.4064025878906 100.57064056396484 312.7213134765625 100.51644134521484 305.2834777832031 103.74659729003906 C 294.72821044921875 102.03465270996094 286.3455505371094 103.66602325439453 278.1075744628906 106.3542251586914 C 270.3275146484375 107.85655212402344 264.1211853027344 109.6355209350586 258.64630126953125 110.35986328125 C 255.80032348632812 105.18856048583984 253.3948516845703 101.72357940673828 250.30857849121094 102.78365325927734 C 248.43618774414062 106.47847747802734 247.47142028808594 110.52272033691406 245.84812927246094 115.24459838867188 C 238.42185974121094 115.38624572753906 230.87535095214844 116.35257720947266 223.9793243408203 122.52534484863281 C 214.94183349609375 131.04476928710938 205.8332061767578 138.9479522705078 202.17233276367188 150.36529541015625 C 190.3102569580078 147.7260284423828 182.85494995117188 140.91806030273438 173.24708557128906 138.63832092285156 C 165.59304809570312 138.21803283691406 161.14088439941406 137.77919006347656 158.5201416015625 139.3474884033203 C 157.6495819091797 143.47305297851562 154.93597412109375 147.8817138671875 148.63314819335938 150.58587646484375 C 144.96519470214844 156.0942840576172 143.1535186767578 163.396484375 142.99032592773438 171.52532958984375 C 143.48448181152344 180.27798461914062 145.23992919921875 189.32412719726562 149.07913208007812 197.7747344970703 C 153.04812622070312 207.02508544921875 159.48379516601562 214.76185607910156 167.91261291503906 221.48715209960938 C 177.6650848388672 228.0138397216797 186.64306640625 234.05503845214844 197.02017211914062 237.5017852783203 C 204.7769317626953 241.22909545898438 212.65599060058594 242.08438110351562 219.19667053222656 242.84426879882812 C 219.54898071289062 244.31671142578125 217.0077362060547 245.40235900878906 211.75474548339844 244.8020477294922 C 204.51063537597656 245.01715087890625 197.30810546875 240.72952270507812 188.03184509277344 240.27218627929688 C 179.22230529785156 240.33682250976562 170.334716796875 243.15924072265625 161.8277587890625 240.75160217285156 C 153.6074981689453 240.8232879638672 144.94705200195312 240.80357360839844 137.51722717285156 239.59486389160156 C 129.248046875 238.44786071777344 121.03207397460938 236.873046875 113.459228515625 234.6722412109375 C 105.20443725585938 232.4473114013672 97.06356048583984 229.8313751220703 88.82087707519531 226.49859619140625 C 80.35273742675781 223.09434509277344 71.8729248046875 219.45281982421875 64.44688415527344 214.90631103515625 C 57.93264389038086 211.559326171875 53.825096130371094 205.56529235839844 53.41867446899414 199.1849822998047 C 53.25429916381836 189.49057006835938 54.66944885253906 180.23377990722656 56.47788619995117 170.5646209716797 C 57.98094940185547 161.24850463867188 60.10362243652344 153.375244140625 62.3470458984375 145.2642822265625 C 64.57923889160156 137.50857543945312 67.37958526611328 129.92108154296875 70.93244934082031 121.83487701416016 C 74.44164276123047 113.50997924804688 78.69068908691406 105.27314758300781 83.42849731445312 97.1521987915039 C 88.48162078857422 89.13611602783203 93.79714965820312 81.1281967163086 100.30805969238281 73.41211700439453 C 107.06390380859375 65.25349426269531 114.42084503173828 57.23187255859375 122.55067443847656 50.18278121948242 C 130.26519775390625 43.08439636230469 138.60589599609375 37.39558792114258 146.30767822265625 31.696144104003906 C 153.8793182373047 26.518484115600586 161.54684448242188 24.496278762817383 171.75936889648438 23.780941009521484 C 179.0486602783203 23.216154098510742 188.8594970703125 24.73893928527832 196.34521484375 26.397266387939453 C 204.0663299560547 28.10039710998535 209.5297393798828 30.9305477142334 214.4058837890625 29.03717803955078 C 217.1545867919922 30.280424118041992 224.90818786621094 28.923242568969727 227.81573486328125 25.415971755981445 C 233.55255126953125 18.986156463623047 240.4847412109375 11.998613357543945 249.25656127929688 7.2895965576171875 C 258.1771545410156 2.77567458152771 267.5486755371094 -0.6939524412155151 265.9112548828125 -0.1417108178138733" stroke-width="0.0" fill="rgb(64, 38, 30)" opacity="0.99999124" stroke="rgb(249, 57, 121)" stroke-opacity="0.14353259" stroke-linecap="round" stroke-linejoin="round"/>
    <path d="M 313.1222839355469 242.6540069580078 C 340.134033203125 248.02313232421875 358.1484375 256.9560852050781 373.6962890625 270.7970275878906 C 391.83172607421875 277.98260498046875 402.2537536621094 285.801513671875 409.759521484375 292.37762451171875 C 405.5548400878906 294.53521728515625 396.4727783203125 292.7392578125 386.0509033203125 290.3234558105469 C 377.1824645996094 291.4397277832031 373.8465576171875 290.0649719238281 378.4776611328125 291.55157470703125 C 393.5169677734375 291.4576721191406 411.4996337890625 291.49359130859375 435.2156982421875 300.49530029296875 C 443.3486328125 321.0302734375 447.8626403808594 339.3078918457031 439.2191162109375 353.0910339355469 C 423.7083435058594 347.56231689453125 410.1186218261719 339.7471008300781 394.57489013671875 329.7814025878906 C 368.50885009765625 329.2246398925781 351.2416687011719 321.0325622558594 332.5085754394531 322.5233154296875 C 324.0707702636719 328.6043701171875 320.9359130859375 343.40863037109375 323.8212890625 363.8480224609375 C 318.80987548828125 378.593017578125 314.0797119140625 398.48974609375 311.0725402832031 420.57684326171875 C 305.6866149902344 441.6456298828125 300.581787109375 462.5694274902344 290.0119323730469 478.10003662109375 C 287.38140869140625 494.4042663574219 292.134033203125 505.444580078125 299.7529296875 516.49267578125 C 292.75177001953125 523.4713134765625 284.7686767578125 528.02490234375 273.2322998046875 527.5081787109375 C 260.72406005859375 527.4380493164062 248.8980712890625 528.005126953125 240.31161499023438 531.2481079101562 C 237.55218505859375 548.8641357421875 236.473876953125 562.3179321289062 247.5967559814453 572.508056640625 C 265.9720764160156 577.162109375 288.76800537109375 575.7984619140625 312.8039855957031 572.65478515625 C 332.21978759765625 569.8001708984375 343.7379455566406 568.1618041992188 342.7769775390625 573.8731079101562 C 334.11090087890625 581.1889038085938 317.7245788574219 585.2386474609375 295.4981384277344 584.614013671875 C 272.2176208496094 583.8276977539062 248.7643585205078 583.0647583007812 237.23094177246094 575.8612670898438 C 229.66140747070312 565.0525512695312 235.3306884765625 545.0280151367188 235.5625 519.0357666015625 C 241.94393920898438 502.57501220703125 243.5242462158203 486.8702697753906 242.1697235107422 472.4178771972656 C 233.95675659179688 464.56378173828125 226.568359375 461.197021484375 226.52833557128906 472.1292419433594 C 214.8939971923828 476.3260498046875 207.84149169921875 485.0908203125 199.9873809814453 488.49346923828125 C 192.49574279785156 487.3452453613281 188.43606567382812 484.96380615234375 189.55335998535156 483.3355407714844 C 195.46588134765625 484.2968444824219 204.45913696289062 489.0663146972656 211.36708068847656 496.11932373046875 C 213.14341735839844 519.7930297851562 213.7987060546875 540.2320556640625 217.2203826904297 564.2116088867188 C 219.88145446777344 575.264404296875 206.8324737548828 582.5341186523438 190.06895446777344 587.192626953125 C 169.3532257080078 593.3671875 153.3980712890625 600.2963256835938 131.2149200439453 594.55712890625 C 117.15577697753906 592.8878784179688 114.8249740600586 583.6888427734375 119.40583801269531 575.28857421875 C 131.88856506347656 580.9131469726562 151.59869384765625 583.6150512695312 173.01463317871094 585.95703125 C 189.7332000732422 585.069580078125 204.02862548828125 578.668701171875 213.56968688964844 569.2789916992188 C 213.1259002685547 556.076416015625 212.42840576171875 543.151123046875 209.24288940429688 532.8718872070312 C 197.1904754638672 529.810546875 185.78759765625 528.9918212890625 174.0690155029297 530.6279907226562 C 164.81121826171875 529.197265625 155.36183166503906 525.9881591796875 150.69668579101562 515.9843139648438 C 160.9100341796875 505.1759338378906 170.30810546875 494.8332824707031 166.41270446777344 476.3619079589844 C 157.4470977783203 457.56787109375 154.0181121826172 436.4034729003906 153.02691650390625 412.0945129394531 C 148.7249755859375 398.03076171875 130.554443359375 390.37396240234375 115.96440124511719 379.47216796875 C 114.54225158691406 359.7764892578125 113.56051635742188 349.5131530761719 106.54438781738281 348.0143127441406 C 93.58553314208984 353.4525146484375 84.3952407836914 359.8416442871094 76.77758026123047 356.9356384277344 C 75.35824584960938 347.17156982421875 80.79815673828125 335.7684326171875 91.08428955078125 325.5561828613281 C 102.56771850585938 318.76904296875 110.15969848632812 314.9129943847656 111.52639770507812 312.7309875488281 C 106.43880462646484 309.5984802246094 97.48979187011719 303.935302734375 89.74327087402344 295.9289855957031 C 88.13037872314453 283.06573486328125 93.72969055175781 276.8382873535156 106.9482421875 268.15045166015625 C 121.69514465332031 257.3935546875 139.41189575195312 248.9310302734375 157.2369842529297 242.97483825683594 C 171.1941375732422 238.03402709960938 180.23907470703125 240.33575439453125 181.7185821533203 251.81300354003906 C 177.21282958984375 269.0749206542969 171.33657836914062 286.8766174316406 166.27503967285156 305.69183349609375 C 163.05279541015625 324.860107421875 160.71348571777344 340.41204833984375 160.4803466796875 352.83819580078125 C 161.0049285888672 362.21685791015625 161.61837768554688 367.3670654296875 161.7736053466797 368.595947265625 C 161.47190856933594 366.02325439453125 160.64859008789062 359.8663024902344 160.52964782714844 350.32122802734375 C 161.91539001464844 339.41180419921875 163.17977905273438 326.3858642578125 165.73728942871094 312.4222106933594 C 168.1981964111328 298.1986999511719 171.3988800048828 284.4296875 175.87010192871094 270.96112060546875 C 180.40769958496094 258.9589538574219 190.44839477539062 252.11495971679688 204.2361297607422 245.5252227783203 C 222.12094116210938 244.4866943359375 238.99476623535156 239.16212463378906 254.00296020507812 235.7042694091797 C 267.794677734375 237.92445373535156 279.5512390136719 245.44789123535156 288.8480529785156 256.538330078125 C 293.3386535644531 271.24053955078125 300.7970886230469 283.53778076171875 306.30328369140625 296.10980224609375 C 311.4421081542969 306.0707702636719 313.2438659667969 313.28662109375 316.716796875 315.7430725097656 C 316.4034423828125 314.0995178222656 316.4751281738281 310.45489501953125 316.5052490234375 306.6547546386719 C 316.4971923828125 304.3516540527344 315.6846008300781 303.691650390625 313.0494079589844 303.11474609375 C 309.1352844238281 299.9052734375 302.482666015625 290.2984313964844 296.26544189453125 276.0966796875 C 286.86810302734375 259.7460021972656 279.3301086425781 232.7958984375 313.1222839355469 242.6540069580078" stroke-width="0.0" fill="rgb(251, 110, 165)" opacity="0.9998008" stroke="rgb(118, 200, 126)" stroke-opacity="0.87374717" stroke-linecap="round" stroke-linejoin="round"/>
    <path d="M 236.03012084960938 90.03779602050781 C 239.21824645996094 91.40708923339844 241.36239624023438 93.22869110107422 242.76617431640625 94.07196807861328 C 244.33566284179688 94.95809936523438 245.64149475097656 96.19979095458984 246.46560668945312 96.42620086669922 C 246.7354278564453 96.68876647949219 247.3236541748047 97.2008056640625 247.97140502929688 97.29595184326172 C 249.00299072265625 98.41716003417969 250.8769073486328 100.06401824951172 253.0270233154297 102.15376281738281 C 255.0557098388672 104.31005096435547 257.349609375 107.30179595947266 260.1302795410156 110.56495666503906 C 262.55657958984375 109.6401596069336 266.9626159667969 108.6033706665039 272.26165771484375 107.50485229492188 C 278.0647888183594 106.00349426269531 284.5184020996094 104.36686706542969 291.6933898925781 103.17414855957031 C 299.4039306640625 100.16718292236328 304.74993896484375 103.22248840332031 311.1001892089844 104.64058685302734 C 319.3424072265625 103.0374526977539 325.4830627441406 107.87735748291016 328.5242004394531 113.13346099853516 C 330.55303955078125 120.21623992919922 329.8316345214844 128.082763671875 329.0293884277344 132.6895751953125 C 331.6544494628906 131.78811645507812 338.32080078125 129.70095825195312 344.0780944824219 126.3115463256836 C 347.0899353027344 120.6072006225586 345.2748718261719 115.06752014160156 340.6736145019531 109.64610290527344 C 335.64007568359375 104.94976806640625 330.13134765625 101.83282470703125 319.4637451171875 100.38231658935547 C 322.676513671875 95.35675048828125 331.6358337402344 95.90219116210938 342.8694152832031 94.0645751953125 C 346.6897277832031 92.71574401855469 351.3621826171875 100.40422821044922 357.7684326171875 105.95056915283203 C 362.275146484375 111.69302368164062 365.9667053222656 118.8441390991211 368.01776123046875 126.16458129882812 C 370.0679626464844 132.4700469970703 371.1899108886719 139.44956970214844 370.7607727050781 145.95213317871094 C 371.0829162597656 152.34181213378906 370.0016784667969 158.9890594482422 367.9661560058594 165.45359802246094 C 366.2989807128906 171.21405029296875 363.22198486328125 177.88201904296875 359.78472900390625 183.41183471679688 C 355.8950500488281 189.51318359375 351.451904296875 195.03384399414062 346.6237487792969 200.22451782226562 C 341.45428466796875 205.31947326660156 335.7648620605469 210.12008666992188 329.6127624511719 214.35525512695312 C 323.9616394042969 219.1766815185547 316.5740966796875 221.57579040527344 312.6055603027344 226.0956268310547 C 309.7242431640625 231.0586700439453 302.7267150878906 232.97030639648438 297.962646484375 235.16400146484375 C 293.43817138671875 236.5730438232422 289.85565185546875 237.73410034179688 287.4002685546875 237.96548461914062 C 290.2240905761719 240.42208862304688 290.1380920410156 245.5039520263672 289.87335205078125 250.5553741455078 C 294.045654296875 254.62789916992188 296.7628173828125 257.8759765625 298.5335388183594 260.08544921875 C 299.53643798828125 261.46728515625 299.77099609375 261.4552917480469 298.6496887207031 260.4241943359375 C 296.7355651855469 258.0186462402344 293.99700927734375 254.7124786376953 290.52679443359375 250.63047790527344 C 285.41522216796875 247.58468627929688 280.1640625 244.1094512939453 273.8221740722656 242.2975311279297 C 268.9293518066406 239.421875 263.5168762207031 239.81613159179688 258.6279296875 242.701416015625 C 253.2542266845703 242.107421875 248.0345001220703 243.21044921875 243.37905883789062 244.4246826171875 C 237.8105926513672 244.43826293945312 232.99325561523438 244.49658203125 228.466552734375 244.5580596923828 C 224.03575134277344 243.8138885498047 219.51376342773438 242.96792602539062 215.65867614746094 242.68797302246094 C 210.49114990234375 241.7623291015625 205.41217041015625 240.72821044921875 200.1731719970703 238.95263671875 C 194.5522918701172 237.3052215576172 188.99395751953125 234.70660400390625 183.15750122070312 231.70660400390625 C 177.40792846679688 228.5904998779297 171.55996704101562 224.68667602539062 166.76416015625 220.6372833251953 C 161.7587432861328 216.51890563964844 157.85385131835938 212.0022735595703 154.0137481689453 207.1060791015625 C 150.65145874023438 201.8069305419922 147.6367645263672 196.36572265625 145.61643981933594 190.02359008789062 C 143.75526428222656 183.98666381835938 142.42628479003906 176.19728088378906 143.3266143798828 169.61610412597656 C 142.8910675048828 162.81167602539062 145.2467498779297 157.75440979003906 147.4979705810547 150.76458740234375 C 154.02003479003906 149.00582885742188 156.60107421875 145.6194305419922 157.20962524414062 139.12197875976562 C 158.17755126953125 133.50440979003906 156.20272827148438 128.00274658203125 159.82296752929688 126.25473022460938 C 164.7388916015625 135.0467987060547 164.86285400390625 138.5656280517578 170.51153564453125 137.88674926757812 C 176.53375244140625 135.43881225585938 182.03810119628906 131.95750427246094 193.9203338623047 128.26747131347656 C 193.37619018554688 132.96189880371094 185.94052124023438 135.44081115722656 184.99696350097656 142.2769317626953 C 182.8289794921875 152.8694305419922 183.6001434326172 158.87799072265625 188.57550048828125 166.15130615234375 C 192.75149536132812 166.81666564941406 198.31227111816406 165.7836151123047 201.74623107910156 164.49697875976562 C 195.4729766845703 162.51974487304688 189.47747802734375 159.51145935058594 187.4381561279297 150.36038208007812 C 185.40391540527344 143.8487548828125 190.53514099121094 146.06100463867188 201.44241333007812 148.68536376953125 C 206.1761016845703 143.70103454589844 214.37330627441406 143.88882446289062 212.1009979248047 138.72947692871094 C 212.49844360351562 128.9255828857422 219.50523376464844 125.17610931396484 223.52723693847656 131.4429168701172 C 229.25851440429688 136.31246948242188 229.4662628173828 143.8854217529297 227.5110626220703 151.9520263671875 C 224.3365478515625 157.75648498535156 221.08340454101562 160.41380310058594 223.5662841796875 160.8020782470703 C 230.09597778320312 157.71241760253906 239.08621215820312 156.13755798339844 244.44871520996094 151.58787536621094 C 245.6721954345703 145.58009338378906 242.6759033203125 139.11697387695312 237.10888671875 132.7996826171875 C 229.9923858642578 128.8780517578125 222.69357299804688 125.48761749267578 214.1564178466797 124.08216094970703 C 207.11073303222656 123.43572235107422 213.3622283935547 121.01083374023438 219.6787567138672 119.79366302490234 C 225.5542755126953 118.01387023925781 232.2288818359375 116.97435760498047 238.03578186035156 115.51915740966797 C 242.95726013183594 115.3148422241211 246.31871032714844 114.56649780273438 246.64920043945312 113.1887435913086 C 245.77993774414062 109.29051971435547 245.41543579101562 105.39408874511719 236.03012084960938 90.03779602050781" stroke-width="0.0" fill="rgb(250, 188, 107)" opacity="0.9999995" stroke="rgb(18, 17, 225)" stroke-opacity="0.6161581" stroke-linecap="round" stroke-linejoin="round"/>
    <path d="M 173.18563842773438 238.5300750732422 C 174.93922424316406 239.69418334960938 176.65911865234375 239.4901580810547 178.5249786376953 239.68072509765625 C 180.28843688964844 239.17396545410156 182.4503173828125 238.9490966796875 184.04342651367188 241.2569122314453 C 187.5282440185547 241.95468139648438 188.33099365234375 245.08518981933594 186.9711456298828 249.23141479492188 C 185.5411376953125 255.97442626953125 183.6892547607422 264.19305419921875 182.439453125 273.4959716796875 C 179.4308624267578 282.5416259765625 176.79908752441406 290.91937255859375 174.08831787109375 297.866455078125 C 171.17315673828125 303.2703857421875 168.48321533203125 307.9300842285156 165.29464721679688 312.8428955078125 C 161.438720703125 318.723876953125 156.20921325683594 326.6138610839844 147.9906005859375 334.8062744140625 C 144.3014373779297 345.5279846191406 142.7013397216797 358.4167785644531 145.59564208984375 368.4204406738281 C 150.13356018066406 378.2610778808594 154.260986328125 384.6243591308594 162.2985076904297 386.5071716308594 C 173.28662109375 384.2638854980469 185.59970092773438 380.409912109375 199.1269073486328 378.0282897949219 C 216.7078094482422 376.29852294921875 234.0532989501953 376.0894775390625 252.49319458007812 376.5019836425781 C 270.4772644042969 375.62457275390625 287.21240234375 376.98333740234375 301.4728698730469 380.14398193359375 C 311.6191711425781 380.1378173828125 316.8103332519531 375.6038818359375 320.11114501953125 371.31890869140625 C 321.4546203613281 370.4049072265625 319.30767822265625 372.7255859375 313.58831787109375 377.5429992675781 C 310.3172302246094 388.5731506347656 308.06903076171875 403.4365539550781 305.7245178222656 419.7215576171875 C 304.9990539550781 436.3515625 303.4853210449219 451.1031799316406 300.3515319824219 465.6651611328125 C 297.0269470214844 471.48553466796875 288.1642150878906 476.3480224609375 286.27880859375 482.54815673828125 C 285.78997802734375 490.650146484375 283.75909423828125 498.75653076171875 287.7711486816406 507.2413330078125 C 288.2618408203125 516.3451538085938 290.7716369628906 528.9517211914062 297.6646728515625 535.4749145507812 C 310.7276916503906 538.7594604492188 322.6417236328125 544.7651977539062 334.33148193359375 550.798583984375 C 342.0916442871094 555.72802734375 342.0884704589844 560.904541015625 336.427001953125 555.8324584960938 C 325.00225830078125 549.4348754882812 308.7538757324219 544.739013671875 298.0142822265625 531.87646484375 C 280.6953430175781 525.4487915039062 263.0987243652344 529.91943359375 246.80076599121094 529.9193115234375 C 236.4348907470703 529.2357788085938 235.11192321777344 538.8684692382812 237.15562438964844 550.1258544921875 C 239.42233276367188 561.6082763671875 243.51260375976562 570.3877563476562 247.32089233398438 575.7461547851562 C 247.90545654296875 578.0172119140625 246.6222686767578 576.3194580078125 243.4321746826172 571.5252075195312 C 239.68267822265625 563.3443603515625 236.8798370361328 551.8478393554688 237.38868713378906 537.7095947265625 C 235.89756774902344 521.5755615234375 241.2089080810547 505.3699951171875 245.8845672607422 490.6778259277344 C 245.66795349121094 477.0667724609375 241.39939880371094 467.8192138671875 233.94744873046875 463.2173767089844 C 224.80886840820312 465.80267333984375 217.6283721923828 471.7229919433594 214.48358154296875 482.65887451171875 C 213.03689575195312 495.65472412109375 210.958251953125 508.61053466796875 211.45639038085938 521.7886352539062 C 212.36863708496094 534.8894653320312 215.15716552734375 546.7789306640625 216.14178466796875 559.0816650390625 C 215.02784729003906 570.4976806640625 208.79222106933594 580.0271606445312 197.1839141845703 585.5631103515625 C 181.23541259765625 589.4290771484375 164.64154052734375 590.210205078125 148.88876342773438 589.1326293945312 C 134.61395263671875 584.4840087890625 126.6536636352539 578.1292114257812 123.83040618896484 569.2777709960938 C 132.34371948242188 564.7913208007812 137.30075073242188 557.6210327148438 141.81932067871094 555.0146484375 C 141.79171752929688 562.58837890625 132.79689025878906 565.4633178710938 125.19194030761719 572.0830078125 C 126.58480072021484 577.30810546875 134.34861755371094 583.793701171875 148.17820739746094 587.0533447265625 C 166.0532989501953 590.776611328125 183.95021057128906 586.8196411132812 209.26663208007812 586.3967895507812 C 213.16049194335938 576.8242797851562 216.65956115722656 562.4659423828125 215.3010711669922 547.0586547851562 C 213.06202697753906 535.022216796875 206.41551208496094 528.639404296875 197.44534301757812 534.9595947265625 C 182.06155395507812 539.2484741210938 170.94482421875 533.6376342773438 161.4574737548828 528.696044921875 C 158.41107177734375 526.8689575195312 158.6534423828125 519.6787109375 161.44097900390625 510.1083984375 C 166.10699462890625 501.6855163574219 167.14303588867188 489.2578125 166.17054748535156 477.33935546875 C 158.45718383789062 466.0321044921875 156.19451904296875 455.100341796875 155.38095092773438 439.0234375 C 156.35523986816406 423.2618713378906 156.82864379882812 405.6075439453125 155.6314239501953 387.77203369140625 C 148.67181396484375 371.0912170410156 141.11285400390625 356.5837707519531 128.66683959960938 346.17047119140625 C 112.70068359375 344.9259948730469 98.85140228271484 346.77374267578125 86.89505004882812 354.2934875488281 C 77.21109771728516 365.7117614746094 69.07492065429688 377.1564636230469 57.10540008544922 388.0218811035156 C 46.28023147583008 389.151123046875 35.63924789428711 392.74578857421875 27.85515785217285 394.4482421875 C 12.79045295715332 390.7095947265625 12.491415977478027 384.8897399902344 10.063029289245605 373.69512939453125 C 2.0392494201660156 364.1805114746094 7.518877983093262 357.4302062988281 16.17009735107422 347.4403381347656 C 24.512680053710938 335.5616149902344 29.03755760192871 329.33154296875 45.24482727050781 330.1828308105469 C 57.087345123291016 321.369384765625 66.96755981445312 310.8095703125 76.91573333740234 299.9351501464844 C 85.58309936523438 290.6724853515625 95.17045593261719 292.5947570800781 109.86924743652344 299.1773986816406 C 118.28401184082031 311.4350280761719 125.17718505859375 323.3300476074219 127.43579864501953 336.0223083496094 C 138.1526641845703 341.3940124511719 146.79827880859375 338.33050537109375 152.72015380859375 330.3099365234375 C 160.34996032714844 319.90411376953125 167.517822265625 309.5730895996094 173.68450927734375 298.2961120605469 C 177.96676635742188 287.1584167480469 181.03953552246094 276.4703674316406 184.40162658691406 266.438720703125 C 185.21035766601562 257.77655029296875 184.81776428222656 247.40625 173.18563842773438 238.5300750732422" stroke-width="0.0" fill="rgb(248, 200, 106)" opacity="0.99978113" stroke="rgb(207, 9, 130)" stroke-opacity="0.32220793" stroke-linecap="round" stroke-linejoin="round"/>
    <path d="M 171.0822296142578 380.5194091796875 C 171.4329376220703 380.675537109375 171.57371520996094 379.89117431640625 171.98626708984375 379.4526672363281 C 173.0562286376953 379.59423828125 174.0332489013672 379.4306640625 174.7509765625 378.5190124511719 C 176.0257568359375 378.4808654785156 177.13015747070312 378.3563232421875 178.4315185546875 378.47747802734375 C 179.65985107421875 378.3847351074219 180.77365112304688 378.3933410644531 182.24441528320312 378.1734619140625 C 182.90565490722656 379.54974365234375 183.84095764160156 379.7718200683594 185.40896606445312 379.3189697265625 C 185.80108642578125 380.25140380859375 186.59896850585938 380.5720520019531 187.41429138183594 380.8450622558594 C 187.86618041992188 381.13665771484375 188.69029235839844 381.11962890625 189.5836181640625 380.92950439453125 C 190.37672424316406 381.16265869140625 191.5741424560547 381.5596618652344 192.29913330078125 381.5478515625 C 193.2108917236328 381.517333984375 193.95645141601562 381.671142578125 194.59201049804688 381.7744445800781 C 194.971435546875 382.10662841796875 195.4646759033203 382.28326416015625 196.24574279785156 382.4024963378906 C 196.8667755126953 382.534423828125 197.9896697998047 382.52117919921875 199.32704162597656 382.5960388183594 C 201.21112060546875 383.6656799316406 203.73202514648438 383.1664123535156 206.02725219726562 384.07708740234375 C 209.69314575195312 384.36370849609375 213.21705627441406 385.56573486328125 217.30918884277344 385.6276550292969 C 220.5569305419922 386.9620056152344 225.1361846923828 386.2401428222656 229.1017608642578 387.34869384765625 C 233.85975646972656 387.21783447265625 238.2106475830078 387.6198425292969 242.4343719482422 387.5202331542969 C 246.29713439941406 387.3667297363281 250.1617431640625 387.3381652832031 253.75875854492188 387.2776184082031 C 257.05328369140625 386.4530029296875 260.3045654296875 386.5956726074219 263.2450256347656 386.41162109375 C 265.86737060546875 385.2176208496094 268.5073547363281 385.7327880859375 270.8241271972656 385.3214416503906 C 272.8822937011719 384.1544189453125 275.2535705566406 384.5146179199219 277.4521789550781 383.8051452636719 C 279.8108825683594 382.8540344238281 282.97540283203125 383.0458679199219 285.9981994628906 381.7737731933594 C 289.8662109375 380.0497741699219 295.1495666503906 379.82379150390625 298.6453552246094 377.3128356933594 C 303.735595703125 377.46746826171875 308.5916442871094 377.291748046875 313.1561584472656 377.6376037597656 C 316.4377746582031 381.39361572265625 316.29779052734375 385.44012451171875 315.7153015136719 389.937255859375 C 315.4396667480469 394.870361328125 314.9227600097656 400.3443908691406 313.7906799316406 405.18719482421875 C 313.2744445800781 410.4440002441406 311.641845703125 415.8267822265625 310.35357666015625 421.3054504394531 C 309.03759765625 427.5515441894531 307.5641174316406 434.6130676269531 304.9850769042969 441.3993225097656 C 303.9638977050781 448.2550964355469 302.4878234863281 454.53570556640625 300.78857421875 459.8414306640625 C 300.8432922363281 465.0335998535156 299.90618896484375 468.8083801269531 297.83587646484375 471.3406066894531 C 294.66339111328125 472.4678955078125 292.1094665527344 474.0283203125 289.0393981933594 473.9659118652344 C 285.51708984375 471.3780822753906 281.697265625 472.91461181640625 277.7370910644531 472.6617126464844 C 273.945556640625 472.2751159667969 269.8409423828125 472.7076110839844 265.0528869628906 472.06622314453125 C 260.518310546875 472.2225341796875 255.75523376464844 471.116455078125 250.13650512695312 470.7311706542969 C 246.2889862060547 469.59918212890625 244.7599639892578 464.96392822265625 242.62950134277344 461.38592529296875 C 240.74603271484375 458.2304382324219 239.7868194580078 456.2235412597656 239.64541625976562 455.5314025878906 C 239.8631134033203 456.2518615722656 240.90817260742188 458.4733581542969 242.9247283935547 461.9366760253906 C 244.99691772460938 466.0361328125 247.9167022705078 469.107666015625 246.73434448242188 473.3993225097656 C 246.8094940185547 477.7484436035156 246.63912963867188 480.9782409667969 244.77099609375 484.01708984375 C 242.4723663330078 481.248046875 242.8488006591797 478.1011657714844 243.12216186523438 470.99249267578125 C 241.4675750732422 468.92919921875 234.9674530029297 467.52239990234375 233.3563232421875 463.3417053222656 C 233.54327392578125 456.6074523925781 232.62210083007812 453.69891357421875 229.1335906982422 453.9148864746094 C 227.11453247070312 455.6218566894531 228.1828155517578 459.79681396484375 226.8726348876953 465.2109375 C 226.88662719726562 472.27789306640625 226.71392822265625 475.5172119140625 217.48719787597656 474.7077941894531 C 215.21165466308594 478.0979919433594 215.46197509765625 483.28643798828125 214.27713012695312 488.0699462890625 C 213.27468872070312 492.5852355957031 212.99615478515625 497.1129455566406 211.2485809326172 504.9903564453125 C 207.86618041992188 502.287841796875 209.27015686035156 499.2424621582031 209.57559204101562 495.1528625488281 C 210.04905700683594 490.3004455566406 210.43017578125 485.2596130371094 211.1534881591797 479.71099853515625 C 211.30047607421875 474.802001953125 214.11741638183594 471.1953430175781 216.08628845214844 467.361328125 C 217.19032287597656 464.4625244140625 218.27066040039062 462.1097106933594 219.08245849609375 460.8096008300781 C 219.41348266601562 460.2807312011719 219.1654052734375 460.560791015625 218.52207946777344 461.6855163574219 C 217.560791015625 463.4026794433594 216.70191955566406 466.1075439453125 215.23675537109375 468.99169921875 C 213.91632080078125 471.9358215332031 212.3953094482422 475.74371337890625 209.66746520996094 474.8243103027344 C 204.5131378173828 475.8731994628906 199.0336151123047 475.4195861816406 193.1342010498047 475.25311279296875 C 186.4537811279297 474.79620361328125 179.44927978515625 475.0083923339844 172.5244140625 472.921630859375 C 167.3816680908203 473.3256530761719 163.28814697265625 473.2959899902344 159.6916046142578 470.67529296875 C 157.28265380859375 467.84869384765625 157.5750732421875 462.95361328125 157.23635864257812 456.80419921875 C 156.98358154296875 450.4117431640625 156.06185913085938 443.791259765625 155.4610595703125 437.3531494140625 C 155.16510009765625 430.7143859863281 154.01638793945312 424.3993835449219 153.48934936523438 418.17327880859375 C 153.1197509765625 412.2937316894531 153.0413818359375 406.53228759765625 152.62374877929688 400.1942138671875 C 154.7763671875 396.38861083984375 156.21954345703125 392.1765441894531 156.2103271484375 386.01678466796875 C 158.27191162109375 382.8462219238281 161.00579833984375 379.1786193847656 171.0822296142578 380.5194091796875" stroke-width="0.0" fill="rgb(251, 76, 3)" opacity="0.9999876" stroke="rgb(20, 77, 79)" stroke-opacity="0.46054134" stroke-linecap="round" stroke-linejoin="round"/>
    <path d="M 289.2532653808594 15.596711158752441 C 290.1380920410156 15.236878395080566 290.9764709472656 14.8797025680542 291.8631286621094 14.4797945022583 C 292.64599609375 14.336909294128418 293.40814208984375 14.347318649291992 294.3050842285156 14.426475524902344 C 295.2247619628906 14.984588623046875 296.31561279296875 15.727080345153809 297.6866760253906 16.765016555786133 C 299.3433837890625 18.344051361083984 301.33770751953125 20.408170700073242 303.36737060546875 22.709095001220703 C 305.2099304199219 25.736764907836914 307.5126647949219 29.032014846801758 309.8019104003906 32.52860641479492 C 311.9659118652344 36.41545867919922 313.904296875 40.38018035888672 315.9346618652344 44.40123748779297 C 317.6946716308594 48.43551254272461 319.7062072753906 52.228538513183594 321.53662109375 55.82674789428711 C 323.7642517089844 59.021888732910156 326.11279296875 61.96738815307617 328.3987731933594 64.45330810546875 C 330.442138671875 66.65775299072266 331.67279052734375 68.6385269165039 332.0965881347656 70.50476837158203 C 331.3446960449219 72.27882385253906 329.71612548828125 73.97810363769531 327.1646728515625 75.8789291381836 C 323.9679260253906 77.35513305664062 320.52264404296875 79.01708221435547 316.980224609375 80.735107421875 C 313.21343994140625 82.52182006835938 309.67742919921875 84.47351837158203 306.38531494140625 86.54214477539062 C 303.3186950683594 88.77156066894531 300.1109313964844 90.78582000732422 296.8097839355469 92.81192779541016 C 293.1559753417969 94.4251708984375 289.2982177734375 95.6043930053711 285.0787658691406 96.43833923339844 C 280.79339599609375 96.32118225097656 276.22564697265625 95.79329681396484 271.55291748046875 94.62278747558594 C 266.9427185058594 92.88922119140625 262.287353515625 90.29148864746094 257.5663146972656 87.65457153320312 C 253.25038146972656 84.70185089111328 248.5790252685547 82.31856536865234 243.79417419433594 80.4450912475586 C 239.87979125976562 78.86067962646484 235.97178649902344 78.35265350341797 232.5435333251953 78.9395980834961 C 229.62486267089844 80.45245361328125 227.31976318359375 83.05367279052734 225.87777709960938 86.28052520751953 C 224.86643981933594 90.11890411376953 224.09085083007812 94.1552963256836 223.7974395751953 98.16556549072266 C 223.4649200439453 101.78374481201172 222.619384765625 105.00465393066406 221.3375244140625 107.68522644042969 C 218.8183135986328 109.46586608886719 215.53265380859375 110.69174194335938 211.48367309570312 111.553466796875 C 206.71511840820312 111.8751449584961 201.32981872558594 111.61202239990234 195.51022338867188 111.37191009521484 C 189.59349060058594 110.92550659179688 183.75172424316406 110.65000915527344 178.02127075195312 110.12034606933594 C 172.6237335205078 109.51889038085938 167.57203674316406 109.46170806884766 162.99208068847656 109.89066314697266 C 158.9508514404297 110.53385925292969 155.126708984375 111.97613525390625 151.91099548339844 113.84844207763672 C 149.19297790527344 116.42896270751953 146.89398193359375 119.52656555175781 145.00086975097656 122.88967895507812 C 143.4352264404297 126.77448272705078 141.91249084472656 130.55499267578125 140.2637176513672 134.3085174560547 C 138.3448028564453 137.70985412597656 136.33653259277344 141.11224365234375 134.1916961669922 144.39781188964844 C 132.08868408203125 147.870849609375 130.3223114013672 151.50758361816406 128.72279357910156 155.2905731201172 C 128.2859344482422 159.8279266357422 127.6168441772461 164.31849670410156 127.16297912597656 168.97384643554688 C 126.66829681396484 173.4955596923828 126.11998748779297 177.80810546875 124.97278594970703 181.8068084716797 C 122.56944274902344 184.9408721923828 119.58930206298828 187.72901916503906 115.81056213378906 190.06919860839844 C 111.01091766357422 191.2379608154297 105.45973205566406 191.85971069335938 99.48872375488281 191.87689208984375 C 93.28376770019531 191.8216094970703 87.09028625488281 191.24021911621094 81.19002532958984 189.9769287109375 C 75.86772155761719 188.00697326660156 71.46502685546875 185.888916015625 68.04653930664062 182.92672729492188 C 65.90550994873047 179.5741729736328 64.77345275878906 176.20550537109375 64.57670593261719 172.60464477539062 C 65.67913055419922 168.98504638671875 67.30595397949219 165.43487548828125 69.14065551757812 161.79095458984375 C 71.66622161865234 158.1087188720703 74.09928131103516 154.19993591308594 76.22173309326172 150.21377563476562 C 78.26488494873047 146.05235290527344 79.69934844970703 141.4761962890625 80.82650756835938 136.6051483154297 C 81.95939636230469 131.78086853027344 83.25455474853516 126.99791717529297 84.60591125488281 122.25397491455078 C 86.56637573242188 117.92505645751953 88.8027114868164 113.89664459228516 91.34550476074219 110.30653381347656 C 94.16613006591797 107.08019256591797 97.03982543945312 104.05775451660156 99.83583068847656 101.1921615600586 C 102.68907928466797 98.75076293945312 105.46534729003906 96.21444702148438 108.07328033447266 93.6107177734375 C 110.51303100585938 90.69746398925781 113.0135269165039 87.7821273803711 115.44758605957031 84.64479064941406 C 118.40966796875 81.519287109375 121.56790924072266 78.2247085571289 124.80699157714844 74.94953155517578 C 128.14556884765625 71.55046844482422 131.58590698242188 68.18765258789062 135.19778442382812 64.68997192382812 C 138.96701049804688 61.527244567871094 142.61398315429688 58.19411849975586 146.13136291503906 54.66223907470703 C 149.6204071044922 51.17967987060547 153.07139587402344 47.70360565185547 156.4524383544922 44.364593505859375 C 159.38845825195312 40.7716064453125 162.38784790039062 37.72616195678711 165.33551025390625 35.281455993652344 C 168.9497528076172 33.93653869628906 172.29302978515625 33.29905700683594 175.9059295654297 33.51906967163086 C 179.70553588867188 34.82331466674805 183.71597290039062 36.7370719909668 187.94187927246094 39.01449966430664 C 192.08291625976562 41.61935806274414 196.4072265625 43.88035202026367 200.96002197265625 45.61405944824219 C 205.5717010498047 46.628448486328125 210.05223083496094 47.050987243652344 214.27235412597656 46.560585021972656 C 218.4223175048828 45.33517837524414 222.35606384277344 43.15999984741211 225.67616271972656 40.25944900512695 C 229.01356506347656 36.936832427978516 232.13864135742188 33.363685607910156 235.1627960205078 29.771163940429688 C 238.45571899414062 26.43773078918457 241.7725830078125 23.62458610534668 245.33831787109375 21.0959415435791 C 249.41358947753906 19.174924850463867 253.8571319580078 17.608726501464844 258.8836364746094 16.515867233276367 C 264.2755126953125 15.828332901000977 270.0007629394531 15.309940338134766 276.0068359375 15.338282585144043 C 282.18853759765625 15.462343215942383 288.35028076171875 15.479728698730469 289.2532653808594 15.596711158752441" stroke-width="0.0" fill="rgb(61, 39, 36)" opacity="0.99953717" stroke="rgb(184, 91, 242)" stroke-opacity="0.17438076" stroke-linecap="round" stroke-linejoin="round"/>
    <path d="M 217.6321258544922 271.7821960449219 C 219.111083984375 271.9219970703125 220.55970764160156 272.1176452636719 221.98492431640625 272.2957763671875 C 223.3716583251953 272.44757080078125 224.68934631347656 272.52734375 225.92510986328125 272.5857849121094 C 227.0738525390625 272.55963134765625 228.14739990234375 272.4698486328125 229.17355346679688 272.385986328125 C 230.15359497070312 272.3002624511719 231.1156768798828 272.19482421875 232.0800323486328 272.10498046875 C 233.04783630371094 272.09002685546875 234.03677368164062 272.1114501953125 235.0547332763672 272.1698913574219 C 236.10064697265625 272.2746276855469 237.12530517578125 272.36614990234375 238.11196899414062 272.4599304199219 C 239.06109619140625 272.6025085449219 239.95094299316406 272.6907043457031 240.79579162597656 272.79541015625 C 241.65872192382812 272.8821105957031 242.53646850585938 272.91741943359375 243.56173706054688 272.9000244140625 C 244.7545623779297 272.8419189453125 246.15892028808594 272.7096252441406 247.85523986816406 272.5247802734375 C 249.8264923095703 272.30401611328125 252.09327697753906 272.130859375 254.59068298339844 272.0453186035156 C 257.2450866699219 272.0815124511719 259.89410400390625 272.3551025390625 262.44781494140625 272.8575744628906 C 264.7525939941406 273.71240234375 266.7076721191406 274.8776550292969 268.25494384765625 276.3685302734375 C 269.35186767578125 278.2110595703125 270.046630859375 280.3547058105469 270.41949462890625 282.69940185546875 C 270.5670471191406 285.245361328125 270.63818359375 287.8605041503906 270.7754211425781 290.4335632324219 C 271.0519104003906 292.9322204589844 271.5201110839844 295.27825927734375 272.2384338378906 297.4004821777344 C 273.2535400390625 299.3485107421875 274.5361328125 301.09906005859375 276.03497314453125 302.69256591796875 C 277.6850891113281 304.1578063964844 279.4065856933594 305.55120849609375 281.09844970703125 306.9638671875 C 282.7130126953125 308.4250793457031 284.2711486816406 309.94586181640625 285.69305419921875 311.5709533691406 C 287.1531066894531 313.2746276855469 288.6948547363281 314.9580993652344 290.3746337890625 316.6007995605469 C 292.2160949707031 318.21044921875 294.14544677734375 319.7529602050781 296.0736083984375 321.2267150878906 C 297.923828125 322.7499084472656 299.5624084472656 324.3687438964844 300.8925476074219 326.1418151855469 C 301.8375549316406 328.1658630371094 302.3753967285156 330.4218444824219 302.573974609375 332.918701171875 C 302.5222473144531 335.5751037597656 302.44671630859375 338.31695556640625 302.4560852050781 341.0557556152344 C 302.67791748046875 343.7279357910156 303.3096923828125 346.2876281738281 304.2363586425781 348.702880859375 C 305.4627380371094 350.9527282714844 306.9147033691406 353.0613708496094 308.3240966796875 355.09747314453125 C 309.5614013671875 357.0404357910156 310.3787536621094 358.9206237792969 310.6799011230469 360.73455810546875 C 310.3468322753906 362.3880615234375 309.3391418457031 363.80120849609375 307.7279968261719 364.9915466308594 C 305.5866394042969 365.9202880859375 303.0519714355469 366.5191650390625 300.2372741699219 366.8771057128906 C 297.261962890625 367.00543212890625 294.2083435058594 366.9802551269531 291.1291198730469 366.9095153808594 C 288.0715026855469 366.8198547363281 285.0309753417969 366.7660827636719 281.9886474609375 366.8184814453125 C 278.9691162109375 366.94366455078125 275.9665832519531 367.1230163574219 272.95361328125 367.3341064453125 C 269.94293212890625 367.53277587890625 266.951171875 367.6802062988281 263.9806213378906 367.76593017578125 C 261.0218505859375 367.752685546875 258.0706481933594 367.6597595214844 255.1687774658203 367.49920654296875 C 252.266845703125 367.27874755859375 249.32644653320312 367.0255126953125 246.39535522460938 366.78009033203125 C 243.4804229736328 366.59429931640625 240.5159454345703 366.47900390625 237.4744415283203 366.4130859375 C 234.4408721923828 366.376708984375 231.3450469970703 366.37628173828125 228.20225524902344 366.3906555175781 C 225.0888671875 366.40606689453125 221.94204711914062 366.4425048828125 218.84461975097656 366.42535400390625 C 215.76727294921875 366.4514465332031 212.7222442626953 366.41986083984375 209.7462158203125 366.3831481933594 C 206.8029022216797 366.3797302246094 203.8903350830078 366.3867492675781 201.00096130371094 366.44659423828125 C 198.0991668701172 366.5835266113281 195.1913299560547 366.7763366699219 192.21963500976562 367.01495361328125 C 189.15243530273438 367.2774658203125 186.0060272216797 367.470458984375 182.7820587158203 367.5819091796875 C 179.48374938964844 367.59619140625 176.1908416748047 367.4406433105469 172.98095703125 367.0460205078125 C 169.96450805664062 366.4309387207031 167.25631713867188 365.6175842285156 165.0000762939453 364.58489990234375 C 163.26817321777344 363.3675842285156 162.1576690673828 362.0484924316406 161.7412109375 360.6877746582031 C 162.0062713623047 359.32080078125 162.8948516845703 357.99737548828125 164.32713317871094 356.6835632324219 C 166.17672729492188 355.3494873046875 168.24549865722656 353.9762878417969 170.34902954101562 352.5016784667969 C 172.3015594482422 350.832763671875 173.94541931152344 348.9361267089844 175.1961212158203 346.7629699707031 C 175.976806640625 344.2916259765625 176.3684844970703 341.5971984863281 176.4827423095703 338.7635498046875 C 176.4903564453125 335.8498229980469 176.48477172851562 332.99761962890625 176.66555786132812 330.31097412109375 C 177.2061004638672 327.8723449707031 178.11746215820312 325.757568359375 179.4255828857422 323.9941101074219 C 181.1172637939453 322.4772033691406 183.0543670654297 321.12384033203125 185.1130828857422 319.8453369140625 C 187.0876922607422 318.4739685058594 188.8910675048828 316.8672790527344 190.39894104003906 315.00469970703125 C 191.50514221191406 312.877685546875 192.26025390625 310.4731140136719 192.69268798828125 307.88592529296875 C 192.97506713867188 305.2427062988281 193.26211547851562 302.6436767578125 193.64425659179688 300.1670227050781 C 194.19827270507812 297.8606262207031 195.01535034179688 295.77117919921875 196.12249755859375 293.87518310546875 C 197.4713592529297 292.1591796875 198.98121643066406 290.51251220703125 200.60438537597656 288.8677673339844 C 202.2687225341797 287.2116394042969 203.8769073486328 285.4691467285156 205.35670471191406 283.6238708496094 C 206.75949096679688 281.6996765136719 208.09364318847656 279.7362060546875 209.3875274658203 277.768798828125 C 210.77114868164062 275.8498840332031 212.20167541503906 274.0171203613281 213.71360778808594 272.2663269042969 C 215.2155303955078 270.558837890625 216.76516723632812 268.8804931640625 217.6321258544922 271.7821960449219" stroke-width="0.0" fill="rgb(254, 111, 167)" opacity="0.99950314" stroke="rgb(208, 36, 111)" stroke-opacity="0.34216064" stroke-linecap="round" stroke-linejoin="round"/>
    <path d="M 365.1515808105469 268.367431640625 C 365.8591003417969 268.58984375 366.5723571777344 268.88336181640625 367.3017272949219 269.2267761230469 C 368.117919921875 269.64495849609375 369.02203369140625 270.08917236328125 370.02569580078125 270.5583801269531 C 371.1272277832031 271.08941650390625 372.3017883300781 271.6019592285156 373.5060729980469 272.0738525390625 C 374.6871337890625 272.5881652832031 375.8161315917969 273.04632568359375 376.9015197753906 273.4967956542969 C 377.982421875 273.9125671386719 379.0413818359375 274.34033203125 380.05609130859375 274.80767822265625 C 381.07659912109375 275.3458557128906 382.1719055175781 275.9702453613281 383.3573303222656 276.6694030761719 C 384.70068359375 277.4169006347656 386.169189453125 278.2031555175781 387.77398681640625 279.0299072265625 C 389.4822692871094 279.8963317871094 391.2587890625 280.8181457519531 393.0875244140625 281.8720703125 C 394.9346923828125 283.078125 396.7607116699219 284.4535217285156 398.55548095703125 285.9618225097656 C 400.3126525878906 287.6101379394531 402.06243896484375 289.4017028808594 403.73040771484375 291.2061767578125 C 405.3456726074219 292.9494934082031 407.01983642578125 294.2899169921875 408.8398132324219 295.07635498046875 C 410.8695373535156 295.262939453125 413.073486328125 294.8851013183594 415.4165344238281 294.11993408203125 C 417.8609313964844 293.1058654785156 420.3962707519531 292.0942077636719 423.02471923828125 291.14593505859375 C 425.6258239746094 290.4036865234375 428.1823425292969 289.7616882324219 430.6893310546875 289.1748352050781 C 432.8889465332031 288.3650817871094 434.7845458984375 287.1002197265625 436.3853759765625 285.2995300292969 C 437.81787109375 283.2503967285156 439.3083190917969 281.3316650390625 441.12677001953125 279.8518371582031 C 443.211669921875 279.0993347167969 445.2720947265625 279.072265625 447.097412109375 279.6192626953125 C 448.60894775390625 280.600830078125 449.7762145996094 281.8890380859375 450.4498291015625 283.4090270996094 C 450.7986755371094 284.9610900878906 450.7716979980469 286.5471496582031 450.4867858886719 288.1290283203125 C 449.9459228515625 289.5970764160156 449.2352294921875 291.13360595703125 448.67633056640625 292.7356872558594 C 447.9443359375 294.3956298828125 447.212890625 295.8278503417969 446.6195373535156 297.0231018066406 C 446.51922607421875 298.12982177734375 447.11114501953125 299.06298828125 448.26220703125 299.873779296875 C 449.88494873046875 300.6109924316406 451.9838562011719 301.4182434082031 454.37493896484375 302.3053283691406 C 456.80938720703125 303.51300048828125 459.3096923828125 304.7708740234375 461.78131103515625 306.09588623046875 C 464.0623474121094 307.4820861816406 466.3039245605469 308.83441162109375 468.42462158203125 310.29571533203125 C 470.2421569824219 311.9316101074219 472.07086181640625 313.54840087890625 473.51824951171875 315.20147705078125 C 474.00634765625 317.1507873535156 473.9850158691406 319.1384582519531 473.4962463378906 320.95928955078125 C 472.1825256347656 322.4788818359375 470.1681823730469 323.44891357421875 467.6268310546875 323.7275695800781 C 464.9519958496094 323.64837646484375 462.6159973144531 323.6012268066406 460.992919921875 323.7993469238281 C 460.63916015625 324.624755859375 461.56109619140625 325.9254150390625 463.298828125 327.5877380371094 C 465.27978515625 329.5844421386719 466.9961242675781 331.9036560058594 467.73651123046875 334.33673095703125 C 467.9949035644531 336.6126708984375 467.2853088378906 338.3585205078125 465.5812683105469 339.3560791015625 C 463.5044860839844 339.874267578125 461.7433166503906 340.4273376464844 460.7649230957031 341.4864196777344 C 460.7668151855469 343.05841064453125 460.8883361816406 344.8893737792969 460.1287841796875 346.4296875 C 458.38726806640625 347.5221862792969 456.0350341796875 347.88128662109375 453.2742004394531 347.6929016113281 C 450.4620056152344 347.08319091796875 447.8074645996094 346.220458984375 445.4336853027344 345.29998779296875 C 443.3317565917969 344.4628601074219 441.4400939941406 343.8232421875 439.8895568847656 343.4969482421875 C 438.7149658203125 343.3166809082031 437.97271728515625 343.1160888671875 437.6561279296875 342.8077087402344 C 437.7179870605469 342.3614501953125 438.1232604980469 341.7411193847656 438.81304931640625 340.94940185546875 C 439.5835876464844 339.98968505859375 440.46673583984375 338.8384094238281 441.338623046875 337.51373291015625 C 442.1258239746094 336.0732116699219 442.8270263671875 334.5908203125 443.3870544433594 333.0321350097656 C 443.7101135253906 331.3841247558594 443.6142883300781 329.7557373046875 443.0196533203125 328.10809326171875 C 442.1238098144531 326.46044921875 441.19366455078125 324.788818359375 440.4259338378906 322.9955749511719 C 439.8236999511719 321.08026123046875 439.2928161621094 319.1326904296875 438.8221435546875 317.1413879394531 C 438.48785400390625 315.1096496582031 438.0708923339844 313.1529235839844 437.4784851074219 311.28594970703125 C 436.7218017578125 309.5210876464844 435.7208557128906 307.8602600097656 434.5888366699219 306.2794494628906 C 433.376708984375 304.7358093261719 432.0910339355469 303.33935546875 430.7500305175781 302.1216735839844 C 429.3600769042969 300.9356689453125 427.9022216796875 299.80462646484375 426.4914245605469 298.8008728027344 C 425.0697326660156 297.7338562011719 423.6495666503906 296.689697265625 422.2480163574219 295.8741455078125 C 420.7760925292969 295.18377685546875 419.22174072265625 294.7823181152344 417.57855224609375 294.6046142578125 C 415.8569641113281 294.6112365722656 414.12884521484375 294.71417236328125 412.4041748046875 294.8721618652344 C 410.6356201171875 294.8238220214844 408.83245849609375 294.42193603515625 406.970458984375 293.6809997558594 C 405.0185241699219 292.7189636230469 403.03863525390625 291.4859619140625 400.9647521972656 290.1391906738281 C 398.9573974609375 288.7315673828125 396.93170166015625 287.32354736328125 394.9833984375 286.00390625 C 393.11444091796875 284.7318115234375 391.2679748535156 283.5806884765625 389.4727478027344 282.4716491699219 C 387.7443542480469 281.3913269042969 385.9942626953125 280.2791748046875 384.2839660644531 279.1772766113281 C 382.5495300292969 278.0378723144531 380.7992248535156 276.90924072265625 379.0143737792969 275.8062744140625 C 377.1664123535156 274.7574462890625 375.2629089355469 273.829833984375 373.3247375488281 272.9935302734375 C 371.3880310058594 272.1733703613281 369.45361328125 271.3556823730469 367.548583984375 270.4671630859375 C 365.6854248046875 269.5951232910156 363.8213806152344 268.70623779296875 365.1515808105469 268.367431640625" stroke-width="0.0" fill="rgb(247, 185, 103)" opacity="1.0" stroke="rgb(40, 81, 52)" stroke-opacity="0.21538487" stroke-linecap="round" stroke-linejoin="round"/>
  </g>
</svg>
