<?xml version="1.0" ?>
<svg xmlns="http://www.w3.org/2000/svg" version="1.1" width="474" height="596">
  <defs/>
  <g>
    <path d="M 265.9354553222656 -0.11711595952510834 C 267.0711669921875 -1.150635004043579 268.3597717285156 -1.7402242422103882 269.3971252441406 -2.576500177383423 C 270.32977294921875 -3.6331241130828857 271.0733337402344 -4.2553277015686035 271.97406005859375 -4.4672160148620605 C 272.6766662597656 -4.729249954223633 273.1267395019531 -4.787413597106934 273.6848449707031 -4.6059675216674805 C 274.6864929199219 -4.200198173522949 276.2293395996094 -3.4234468936920166 278.8804931640625 -3.126161813735962 C 282.4960021972656 -1.7747623920440674 286.2195739746094 1.2310549020767212 292.82940673828125 2.6133875846862793 C 300.6937255859375 4.617151737213135 309.63262939453125 7.260437965393066 318.1587829589844 10.871376991271973 C 326.7200927734375 14.369548797607422 334.5709533691406 18.27704429626465 342.2886657714844 22.7968807220459 C 350.4637451171875 27.511037826538086 358.3779296875 32.88547134399414 366.2674560546875 39.373756408691406 C 374.7336730957031 45.94722366333008 382.7011413574219 53.440391540527344 390.298583984375 61.4362678527832 C 397.71771240234375 69.36231994628906 404.4568786621094 77.42971801757812 410.424072265625 85.67862701416016 C 416.21722412109375 93.72715759277344 421.7325134277344 101.89125061035156 426.75469970703125 110.2527847290039 C 431.4316101074219 118.49613189697266 434.98065185546875 123.65875244140625 433.1152648925781 132.89105224609375 C 430.1374816894531 141.99151611328125 424.263427734375 150.28347778320312 417.62060546875 158.80714416503906 C 411.1338806152344 167.19500732421875 403.6988220214844 174.5111083984375 396.265625 181.6758575439453 C 388.7829895019531 188.5360870361328 380.8193664550781 194.70889282226562 373.1119079589844 200.4866943359375 C 365.37872314453125 206.15721130371094 357.2639465332031 211.48390197753906 347.5865173339844 216.9860076904297 C 336.9108581542969 221.86373901367188 325.1586608886719 224.7548065185547 313.404296875 226.5206756591797 C 310.84381103515625 225.97486877441406 315.0824890136719 222.18548583984375 323.4436340332031 218.44541931152344 C 333.35479736328125 212.3348846435547 343.28765869140625 204.53118896484375 351.0361328125 195.2907257080078 C 357.9362487792969 187.51780700683594 362.8099670410156 178.97909545898438 366.0771484375 170.7591094970703 C 369.1024169921875 162.5109405517578 371.17388916015625 154.0150146484375 371.0251770019531 145.12518310546875 C 370.7247619628906 136.10997009277344 369.1041259765625 126.80754089355469 365.1802673339844 118.46514129638672 C 361.6025390625 109.56693267822266 355.64727783203125 103.6562728881836 349.1271667480469 97.57137298583984 C 345.1132507324219 93.33235168457031 337.8825378417969 93.83507537841797 328.6461181640625 96.84556579589844 C 323.41302490234375 100.5816650390625 312.7195129394531 100.51359558105469 305.30035400390625 103.75241088867188 C 294.7231750488281 102.01481628417969 286.3509521484375 103.66378021240234 278.11376953125 106.35963439941406 C 270.3233947753906 107.84920501708984 264.1121520996094 109.61942291259766 258.6424560546875 110.3524398803711 C 255.79971313476562 105.18914031982422 253.39443969726562 101.7239761352539 250.30857849121094 102.7838134765625 C 248.4393310546875 106.47987365722656 247.4887237548828 110.53262329101562 245.8663330078125 115.25003814697266 C 238.42185974121094 115.38624572753906 230.87535095214844 116.35257720947266 223.9993896484375 122.54399108886719 C 214.94459533691406 131.0560760498047 205.82086181640625 138.9368896484375 202.18174743652344 150.37290954589844 C 190.2938232421875 147.74159240722656 182.84181213378906 140.9309539794922 173.24159240722656 138.6478271484375 C 165.59304809570312 138.21803283691406 161.14088439941406 137.77919006347656 158.52102661132812 139.34889221191406 C 157.65672302246094 143.47764587402344 154.9376983642578 147.8799591064453 148.63409423828125 150.5631561279297 C 144.99545288085938 156.11517333984375 143.16514587402344 163.41415405273438 142.97006225585938 171.53456115722656 C 143.4698944091797 180.2800750732422 145.239501953125 189.32412719726562 149.0767822265625 197.7794647216797 C 153.0366973876953 207.0373992919922 159.47744750976562 214.76568603515625 167.9167022705078 221.482666015625 C 177.6650848388672 228.0138397216797 186.64306640625 234.05503845214844 197.0144500732422 237.50587463378906 C 204.7808380126953 241.22116088867188 212.66787719726562 242.07278442382812 219.23753356933594 242.84405517578125 C 219.56422424316406 244.3264923095703 217.0121307373047 245.40484619140625 211.7501678466797 244.77980041503906 C 204.5000457763672 245.02670288085938 197.2977294921875 240.7420654296875 188.021728515625 240.27981567382812 C 179.22140502929688 240.33474731445312 170.3302001953125 243.16786193847656 161.82325744628906 240.75067138671875 C 153.60977172851562 240.8219451904297 144.92709350585938 240.8101043701172 137.53778076171875 239.58006286621094 C 129.25946044921875 238.43212890625 121.02301788330078 236.87982177734375 113.4745101928711 234.658203125 C 105.20331573486328 232.44679260253906 97.06137084960938 229.83470153808594 88.82923889160156 226.49034118652344 C 80.35525512695312 223.09217834472656 71.87968444824219 219.44700622558594 64.44454956054688 214.90945434570312 C 57.9498291015625 211.5488739013672 53.83163833618164 205.54428100585938 53.420047760009766 199.18421936035156 C 53.2269401550293 189.4598388671875 54.64582061767578 180.2191162109375 56.46640396118164 170.55467224121094 C 57.974029541015625 161.24273681640625 60.10285568237305 153.37493896484375 62.344940185546875 145.26287841796875 C 64.58206939697266 137.51084899902344 67.38003540039062 129.92153930664062 70.92874145507812 121.83137512207031 C 74.44705200195312 113.51519775390625 78.69245147705078 105.27458190917969 83.43073272705078 97.15377807617188 C 88.48762512207031 89.1415023803711 93.79810333251953 81.12914276123047 100.3099136352539 73.41426849365234 C 107.07931518554688 65.27017211914062 114.45060729980469 57.261253356933594 122.5611343383789 50.1915397644043 C 130.2566375732422 43.076255798339844 138.60923767089844 37.39969253540039 146.3092498779297 31.697689056396484 C 153.8818359375 26.51703643798828 161.5439453125 24.504426956176758 171.7681121826172 23.789386749267578 C 179.08322143554688 23.207792282104492 188.8938446044922 24.706241607666016 196.35220336914062 26.38620376586914 C 204.07293701171875 28.097190856933594 209.54124450683594 30.935094833374023 214.4002227783203 29.043296813964844 C 217.12734985351562 30.270299911499023 224.92230224609375 28.91310691833496 227.8169708251953 25.41800880432129 C 233.5553741455078 18.988239288330078 240.47767639160156 11.988324165344238 249.25453186035156 7.2909979820251465 C 258.1903381347656 2.79011607170105 267.57647705078125 -0.6652548313140869 265.9354553222656 -0.11711595952510834" stroke-width="0.0" fill="rgb(64, 38, 30)" opacity="0.99999124" stroke="rgb(249, 57, 121)" stroke-opacity="0.14353259" stroke-linecap="round" stroke-linejoin="round"/>
    <path d="M 313.1043395996094 242.63514709472656 C 340.147705078125 248.0221405029297 358.1946716308594 256.91900634765625 373.6752014160156 270.7933654785156 C 391.8387451171875 277.9695739746094 402.2530212402344 285.80303955078125 409.76275634765625 292.37548828125 C 405.5550537109375 294.5260925292969 396.4763488769531 292.72064208984375 386.0517578125 290.3270263671875 C 377.1824645996094 291.4386901855469 373.8465576171875 290.062255859375 378.4776611328125 291.53759765625 C 393.5157165527344 291.45819091796875 411.49798583984375 291.4969482421875 435.21270751953125 300.4991455078125 C 443.3348083496094 321.02508544921875 447.8346862792969 339.29779052734375 439.1912536621094 353.18133544921875 C 423.6891174316406 347.58673095703125 410.1146545410156 339.7515869140625 394.5981140136719 329.7803649902344 C 368.4887390136719 329.2449035644531 351.2579345703125 321.01971435546875 332.4897766113281 322.5292053222656 C 324.0660705566406 328.585693359375 320.9275817871094 343.41253662109375 323.8336486816406 363.88946533203125 C 318.8143310546875 378.60345458984375 314.077392578125 398.4847412109375 311.0798645019531 420.5840759277344 C 305.7021179199219 441.6604309082031 300.58660888671875 462.5673522949219 289.9690246582031 478.12481689453125 C 287.28302001953125 494.47406005859375 292.05419921875 505.46728515625 299.79876708984375 516.5150146484375 C 292.7523498535156 523.4719848632812 284.7686462402344 528.0289306640625 273.2344665527344 527.5093994140625 C 260.725341796875 527.4389038085938 248.8962860107422 528.0054931640625 240.296142578125 531.2239379882812 C 237.5279541015625 548.9280395507812 236.4154815673828 562.3277587890625 247.6111602783203 572.4199829101562 C 266.0579528808594 577.0582885742188 288.7283630371094 575.7352905273438 312.6849365234375 572.5508422851562 C 332.24102783203125 569.8827514648438 343.76080322265625 568.2398681640625 342.7591552734375 573.8983764648438 C 334.11480712890625 581.2094116210938 317.75225830078125 585.2433471679688 295.4995422363281 584.60986328125 C 272.21429443359375 583.8179931640625 248.7218017578125 583.0744018554688 237.2322540283203 575.8557739257812 C 229.66915893554688 565.1144409179688 235.3644561767578 545.055419921875 235.58192443847656 518.9981079101562 C 241.94894409179688 502.5683898925781 243.52330017089844 486.88543701171875 242.17886352539062 472.3955078125 C 233.96893310546875 464.5530700683594 226.57965087890625 461.1864929199219 226.52462768554688 472.10369873046875 C 214.84652709960938 476.2680358886719 207.8153839111328 485.0629577636719 199.98501586914062 488.4907531738281 C 192.49574279785156 487.3452453613281 188.43606567382812 484.96380615234375 189.55335998535156 483.3355407714844 C 195.46588134765625 484.2968444824219 204.45913696289062 489.0663146972656 211.37001037597656 496.1211242675781 C 213.11318969726562 519.8195190429688 213.74945068359375 540.2569580078125 217.22988891601562 564.2660522460938 C 219.9579315185547 575.3251953125 206.86891174316406 582.546630859375 190.067626953125 587.1904296875 C 169.34861755371094 593.3580932617188 153.3880157470703 600.284423828125 131.18609619140625 594.5459594726562 C 117.11963653564453 592.9321899414062 114.82688903808594 583.7237548828125 119.41867065429688 575.2608032226562 C 131.86715698242188 580.9388427734375 151.60379028320312 583.5836791992188 173.03480529785156 585.8689575195312 C 189.70680236816406 585.0397338867188 204.02085876464844 578.6519775390625 213.57949829101562 569.2916870117188 C 213.0862579345703 556.0892333984375 212.40423583984375 543.1510009765625 209.3003692626953 532.8342895507812 C 197.1904754638672 529.810546875 185.78759765625 528.9918212890625 174.0707244873047 530.6279907226562 C 164.8083038330078 529.1956787109375 155.33425903320312 526.0009765625 150.704345703125 515.9754638671875 C 160.91371154785156 505.1658935546875 170.3233184814453 494.8558654785156 166.4148406982422 476.3661193847656 C 157.460205078125 457.56304931640625 154.0352020263672 436.3916015625 153.01596069335938 412.1043395996094 C 148.7674102783203 397.9969482421875 130.55105590820312 390.3857116699219 115.98062896728516 379.5086364746094 C 114.50841522216797 359.77642822265625 113.56626892089844 349.4956970214844 106.56763458251953 348.006103515625 C 93.56700134277344 353.4322509765625 84.38951873779297 359.84326171875 76.78079986572266 356.9463195800781 C 75.35824584960938 347.17156982421875 80.79815673828125 335.7684326171875 91.08428955078125 325.5561828613281 C 102.56771850585938 318.76904296875 110.15969848632812 314.9129943847656 111.52639770507812 312.7309875488281 C 106.43880462646484 309.5984802246094 97.48979187011719 303.935302734375 89.7061538696289 295.8853759765625 C 88.07749938964844 282.982177734375 93.68789672851562 276.8253173828125 106.95054626464844 268.15802001953125 C 121.71956634521484 257.4158935546875 139.41883850097656 248.93524169921875 157.24281311035156 242.97389221191406 C 171.21255493164062 237.98033142089844 180.2969207763672 240.26116943359375 181.73025512695312 251.7523956298828 C 177.2167510986328 269.0794677734375 171.3202362060547 286.86260986328125 166.27003479003906 305.6684265136719 C 163.0673065185547 324.87359619140625 160.70938110351562 340.41436767578125 160.46424865722656 352.82489013671875 C 161.00645446777344 362.21685791015625 161.61837768554688 367.3670654296875 161.7736053466797 368.595947265625 C 161.47181701660156 366.02325439453125 160.64549255371094 359.8663635253906 160.52896118164062 350.333984375 C 161.92373657226562 339.4144287109375 163.19586181640625 326.39166259765625 165.75326538085938 312.43756103515625 C 168.22918701171875 298.2169494628906 171.37796020507812 284.4120178222656 175.85235595703125 270.9426574707031 C 180.3697967529297 258.8997802734375 190.34869384765625 252.00271606445312 204.09652709960938 245.40830993652344 C 222.15843200683594 244.53131103515625 239.0196533203125 239.181884765625 254.00497436523438 235.70773315429688 C 267.84967041015625 237.896240234375 279.66046142578125 245.34739685058594 288.9090881347656 256.4378662109375 C 293.3035888671875 271.2690734863281 300.8249816894531 283.50787353515625 306.3515319824219 296.0684509277344 C 311.4425964355469 306.0697937011719 313.2380065917969 313.28424072265625 316.71929931640625 315.7198486328125 C 316.3942565917969 314.1014099121094 316.4816589355469 310.4557189941406 316.5063781738281 306.6547546386719 C 316.4974060058594 304.35223388671875 315.6838684082031 303.69171142578125 313.00634765625 303.1518859863281 C 309.0772399902344 299.9623718261719 302.4293212890625 290.3527526855469 296.2641296386719 276.09539794921875 C 286.85833740234375 259.71881103515625 279.29400634765625 232.7611846923828 313.1043395996094 242.63514709472656" stroke-width="0.0" fill="rgb(251, 110, 165)" opacity="0.9998008" stroke="rgb(118, 200, 126)" stroke-opacity="0.87374717" stroke-linecap="round" stroke-linejoin="round"/>
    <path d="M 236.1487274169922 89.97441101074219 C 239.28538513183594 91.32093048095703 241.29580688476562 93.28265380859375 242.72128295898438 94.10977172851562 C 244.3034210205078 94.99080657958984 245.60549926757812 96.23110961914062 246.48599243164062 96.40457153320312 C 246.747314453125 96.6772689819336 247.3134765625 97.2217025756836 247.87904357910156 97.39802551269531 C 248.9303436279297 98.48632049560547 250.86155700683594 100.07875061035156 253.05941772460938 102.1314926147461 C 255.13198852539062 104.22895050048828 257.2646789550781 107.38074493408203 259.9723205566406 110.6497802734375 C 262.4483947753906 109.52091217041016 266.8547058105469 108.49678802490234 272.154296875 107.38529968261719 C 278.05242919921875 105.99390411376953 284.5347595214844 104.38237762451172 291.69598388671875 103.10734558105469 C 299.5269775390625 99.92465209960938 304.67864990234375 103.15068817138672 311.02264404296875 104.6334228515625 C 319.3611755371094 102.91084289550781 325.44989013671875 107.8681869506836 328.5665283203125 113.09492492675781 C 330.61639404296875 120.19792175292969 329.8922424316406 128.10787963867188 329.0236511230469 132.72732543945312 C 331.563720703125 131.6953582763672 338.2535095214844 129.63153076171875 344.11968994140625 126.3553695678711 C 347.0626525878906 120.65447235107422 345.25030517578125 115.0544204711914 340.635986328125 109.69586944580078 C 335.5836486816406 104.995361328125 330.1177062988281 101.79396057128906 319.554931640625 100.32183837890625 C 322.5678405761719 95.38494873046875 331.6104431152344 95.91531372070312 342.9639587402344 94.08390808105469 C 346.6143798828125 92.72583770751953 351.3492431640625 100.41413116455078 357.7412109375 105.96975708007812 C 362.2268371582031 111.744873046875 365.975341796875 118.85413360595703 368.0450134277344 126.13227844238281 C 370.0677185058594 132.4885711669922 371.2281188964844 139.43838500976562 370.8329772949219 145.9735565185547 C 371.0267028808594 152.28402709960938 369.923828125 158.92730712890625 367.92413330078125 165.41921997070312 C 366.2530822753906 171.1615447998047 363.20648193359375 177.87881469726562 359.8046875 183.42649841308594 C 355.82080078125 189.45321655273438 351.6224060058594 195.23585510253906 346.6376037597656 200.2251739501953 C 341.4068603515625 205.2799530029297 335.8153991699219 210.17706298828125 329.62451171875 214.36216735839844 C 323.9220275878906 219.1445770263672 316.51824951171875 221.5531768798828 312.5705261230469 226.0102996826172 C 309.79052734375 231.0238037109375 302.6920166015625 232.92108154296875 297.9744873046875 235.16546630859375 C 293.4432373046875 236.58883666992188 289.8915100097656 237.8026580810547 287.3658752441406 237.98922729492188 C 290.30242919921875 240.3789520263672 290.0668640136719 245.46363830566406 289.6728515625 250.52383422851562 C 294.0674743652344 254.6196746826172 296.75164794921875 257.8787536621094 298.532958984375 260.0864562988281 C 299.53668212890625 261.4671936035156 299.77099609375 261.4552917480469 298.64801025390625 260.4264831542969 C 296.7375183105469 258.0159606933594 293.9876403808594 254.73194885253906 290.50634765625 250.63629150390625 C 285.4185791015625 247.5823211669922 280.1482849121094 244.15814208984375 273.628173828125 242.46670532226562 C 268.9512939453125 239.37181091308594 263.557861328125 239.84600830078125 258.66021728515625 242.71437072753906 C 253.27366638183594 242.12857055664062 248.04396057128906 243.2405242919922 243.3858184814453 244.43682861328125 C 237.8105926513672 244.44387817382812 232.99325561523438 244.49642944335938 228.46446228027344 244.55117797851562 C 224.03404235839844 243.83541870117188 219.51861572265625 242.94723510742188 215.65882873535156 242.6647491455078 C 210.4951629638672 241.76425170898438 205.42762756347656 240.70262145996094 200.1792755126953 238.94985961914062 C 194.5775604248047 237.26992797851562 188.9995880126953 234.6997833251953 183.1497344970703 231.71609497070312 C 177.4339599609375 228.5608673095703 171.5338592529297 224.70651245117188 166.8253936767578 220.57699584960938 C 161.75607299804688 216.50889587402344 157.8259735107422 212.0334014892578 154.03163146972656 207.0839080810547 C 150.62203979492188 201.825439453125 147.5789794921875 196.42628479003906 145.62359619140625 190.02426147460938 C 143.79010009765625 183.9786834716797 142.45159912109375 176.1045684814453 143.28590393066406 169.4916534423828 C 142.86697387695312 162.81056213378906 145.2926483154297 157.82028198242188 147.5404052734375 150.8187713623047 C 154.03451538085938 148.96829223632812 156.6048583984375 145.64715576171875 157.239990234375 139.14175415039062 C 158.2061767578125 133.45095825195312 156.12796020507812 127.71259307861328 159.72988891601562 126.00939178466797 C 164.92288208007812 134.9572296142578 164.9092254638672 138.59727478027344 170.49317932128906 137.8743438720703 C 176.57403564453125 135.47561645507812 181.9954071044922 131.89080810546875 194.26405334472656 128.1918182373047 C 193.55850219726562 133.033935546875 185.93661499023438 135.34408569335938 185.00836181640625 142.29421997070312 C 182.83035278320312 152.88345336914062 183.59185791015625 158.87747192382812 188.6129608154297 166.13902282714844 C 192.68028259277344 166.705810546875 198.3028564453125 165.72068786621094 201.88841247558594 164.5133514404297 C 195.43934631347656 162.55006408691406 189.48275756835938 159.5474090576172 187.42169189453125 150.3704833984375 C 185.45558166503906 143.88206481933594 190.56338500976562 146.02610778808594 201.6698455810547 148.6529998779297 C 206.13185119628906 143.58963012695312 214.41456604003906 143.91807556152344 212.11741638183594 138.8543701171875 C 212.60218811035156 128.9781494140625 219.53427124023438 125.17816925048828 223.46339416503906 131.4756317138672 C 229.3025665283203 136.3059844970703 229.43887329101562 143.79751586914062 227.515625 152.15921020507812 C 224.56817626953125 157.9989471435547 221.09104919433594 160.40704345703125 223.57369995117188 160.77000427246094 C 230.0867919921875 157.68856811523438 239.1288299560547 156.19564819335938 244.473388671875 151.5885772705078 C 245.6474609375 145.61830139160156 242.67286682128906 139.09754943847656 237.12680053710938 132.8051300048828 C 229.93983459472656 128.9457244873047 222.6686248779297 125.4560546875 213.9938201904297 124.05671691894531 C 206.64889526367188 123.33466339111328 213.1782989501953 121.0677261352539 219.69512939453125 119.88939666748047 C 225.5215301513672 117.9825439453125 232.22747802734375 116.97056579589844 238.09786987304688 115.58700561523438 C 242.95632934570312 115.40754699707031 246.3177490234375 114.53921508789062 246.64407348632812 113.19901275634766 C 245.78817749023438 109.28848266601562 245.44403076171875 105.35806274414062 236.1487274169922 89.97441101074219" stroke-width="0.0" fill="rgb(250, 188, 107)" opacity="0.9999995" stroke="rgb(18, 17, 225)" stroke-opacity="0.6161581" stroke-linecap="round" stroke-linejoin="round"/>
    <path d="M 173.2339324951172 238.45677185058594 C 174.94244384765625 239.69778442382812 176.65744018554688 239.4861602783203 178.5310821533203 239.67648315429688 C 180.30093383789062 239.1836700439453 182.4598388671875 238.9242401123047 183.9704132080078 241.2757568359375 C 187.3330078125 241.9402313232422 188.2648162841797 245.22991943359375 187.19451904296875 249.5114288330078 C 185.64016723632812 256.0452880859375 183.6918182373047 264.1944274902344 182.43914794921875 273.49383544921875 C 179.4329376220703 282.5419006347656 176.79031372070312 290.91876220703125 174.10098266601562 297.86773681640625 C 171.17379760742188 303.2703857421875 168.46585083007812 307.91864013671875 165.33224487304688 312.8670959472656 C 161.44955444335938 318.73101806640625 156.23989868164062 326.6537170410156 148.0066680908203 334.8877258300781 C 144.2689666748047 345.5137023925781 142.67515563964844 358.41497802734375 145.6349334716797 368.375732421875 C 150.14747619628906 378.26025390625 154.21949768066406 384.6338806152344 162.276611328125 386.5118103027344 C 173.2480926513672 383.9638977050781 185.4016876220703 379.8930969238281 198.92117309570312 377.92706298828125 C 216.71803283691406 376.2107238769531 234.0368194580078 376.0433044433594 252.52549743652344 376.47064208984375 C 270.58392333984375 375.6549987792969 287.42779541015625 376.5872802734375 301.60504150390625 379.7957763671875 C 311.63848876953125 380.1629943847656 316.7899475097656 375.60302734375 320.1220397949219 371.3323974609375 C 321.4192199707031 370.3999938964844 319.32769775390625 372.7474365234375 313.5672607421875 377.5101013183594 C 310.3172302246094 388.5731506347656 308.06903076171875 403.4365539550781 305.7330017089844 419.7228088378906 C 305.0284423828125 436.37060546875 303.5151672363281 451.1263122558594 300.3703918457031 465.6955871582031 C 297.0684509277344 471.5168151855469 288.1893310546875 476.36572265625 286.34417724609375 482.55035400390625 C 285.8570251464844 490.6769104003906 283.6734313964844 498.7801208496094 287.9664611816406 507.2340087890625 C 288.32135009765625 516.2662963867188 290.77191162109375 529.0346069335938 297.5882873535156 535.5362548828125 C 310.8892517089844 538.5506591796875 322.5732421875 544.7950439453125 334.4132385253906 550.743896484375 C 342.37603759765625 555.5948486328125 342.24273681640625 560.9030151367188 336.4509582519531 555.8224487304688 C 324.9470520019531 549.4758911132812 308.5184631347656 544.959716796875 298.0768737792969 531.9003295898438 C 280.840576171875 525.5580444335938 263.2921142578125 530.5299072265625 246.66525268554688 530.4495849609375 C 236.29269409179688 529.025146484375 235.13034057617188 538.802001953125 237.12753295898438 550.1641845703125 C 239.3634033203125 561.6363525390625 243.50479125976562 570.3850708007812 247.37713623046875 575.7227783203125 C 247.9051971435547 578.0187377929688 246.6196746826172 576.3215942382812 243.436279296875 571.527099609375 C 239.7312469482422 563.3321533203125 236.97402954101562 551.8102416992188 237.34242248535156 537.5777587890625 C 235.40220642089844 521.4633178710938 241.02685546875 505.2934265136719 245.8737030029297 490.6889343261719 C 245.6734161376953 477.057861328125 241.4079132080078 467.8095397949219 233.95277404785156 463.2249450683594 C 224.78744506835938 465.7879943847656 217.48776245117188 471.599609375 214.37257385253906 482.576904296875 C 213.11471557617188 495.6687316894531 211.00845336914062 508.62066650390625 211.48248291015625 521.8129272460938 C 212.29591369628906 534.9218139648438 215.14894104003906 546.7833251953125 216.13748168945312 559.1142578125 C 215.07774353027344 570.558837890625 208.8723602294922 580.1065673828125 197.24737548828125 585.59326171875 C 181.24964904785156 589.4288940429688 164.6354522705078 590.157470703125 148.89112854003906 589.1807861328125 C 134.63185119628906 584.458740234375 126.6522445678711 578.1201171875 123.7506103515625 569.23828125 C 132.37351989746094 564.8056030273438 137.26475524902344 557.5695190429688 141.83261108398438 554.9495849609375 C 142.0968017578125 562.8272705078125 132.87477111816406 565.5016479492188 125.15815734863281 572.101806640625 C 126.5733413696289 577.3145751953125 134.3485107421875 583.787841796875 148.20361328125 587.00537109375 C 166.08511352539062 590.8086547851562 183.9407501220703 586.7777709960938 209.485595703125 586.440185546875 C 213.1969451904297 576.8497314453125 216.6866455078125 562.46337890625 215.3171844482422 547.0474243164062 C 213.10231018066406 534.9794921875 206.41937255859375 528.5353393554688 197.26953125 534.9090576171875 C 182.09051513671875 539.3218994140625 171.02511596679688 533.5926513671875 161.31320190429688 528.8005981445312 C 158.35800170898438 526.9330444335938 158.57321166992188 519.6644897460938 161.3737335205078 510.02618408203125 C 166.13291931152344 501.6918029785156 167.1193084716797 489.2718200683594 166.18124389648438 477.3404235839844 C 158.50265502929688 465.9498291015625 156.2007293701172 455.10748291015625 155.38397216796875 439.0213928222656 C 156.35528564453125 423.2618713378906 156.8279266357422 405.6075439453125 155.66575622558594 387.7615966796875 C 148.650146484375 371.10137939453125 141.1238250732422 356.5722351074219 128.6869354248047 346.12353515625 C 112.69388580322266 344.907958984375 98.83856201171875 346.7523193359375 86.90108489990234 354.2894287109375 C 77.33061218261719 365.8336486816406 69.19024658203125 377.21246337890625 56.95353698730469 388.225341796875 C 46.286781311035156 389.1986389160156 35.63583755493164 392.7506103515625 27.638385772705078 394.81011962890625 C 12.407377243041992 390.9435119628906 12.45037841796875 385.01611328125 10.1513671875 373.7731018066406 C 2.0067081451416016 364.2264709472656 7.56450891494751 357.48663330078125 16.12485694885254 347.38909912109375 C 24.58885383605957 335.42333984375 28.71513557434082 329.0428771972656 45.19483184814453 330.18145751953125 C 57.1107177734375 321.36962890625 66.95072174072266 310.8066711425781 76.95266723632812 299.9166259765625 C 85.73279571533203 290.3426208496094 95.37580108642578 292.19891357421875 110.44361877441406 298.6274108886719 C 118.800537109375 311.22344970703125 125.53931427001953 323.1896667480469 127.30486297607422 336.0526123046875 C 138.15789794921875 341.4417724609375 146.78765869140625 338.3470764160156 152.6248321533203 330.1842041015625 C 160.3419952392578 319.8971862792969 167.51071166992188 309.5662536621094 173.67868041992188 298.28857421875 C 177.9691162109375 287.159423828125 181.0359649658203 276.4691467285156 184.44961547851562 266.4173889160156 C 185.24082946777344 257.7718200683594 184.83892822265625 247.36093139648438 173.2339324951172 238.45677185058594" stroke-width="0.0" fill="rgb(248, 200, 106)" opacity="0.99978113" stroke="rgb(207, 9, 130)" stroke-opacity="0.32220793" stroke-linecap="round" stroke-linejoin="round"/>
    <path d="M 171.17422485351562 380.6896057128906 C 171.38328552246094 380.64276123046875 171.4752197265625 379.831298828125 171.874267578125 379.3922424316406 C 173.0887908935547 379.6595458984375 174.11312866210938 379.6104736328125 174.76063537597656 378.5486145019531 C 176.02511596679688 378.4637756347656 177.12973022460938 378.34429931640625 178.43087768554688 378.412109375 C 179.66015625 378.3551940917969 180.77911376953125 378.4488830566406 182.34228515625 378.16131591796875 C 182.90858459472656 379.5870666503906 183.8342742919922 379.8463134765625 185.43112182617188 379.3956298828125 C 185.41213989257812 380.64764404296875 186.37094116210938 380.73883056640625 187.43348693847656 380.7496032714844 C 187.89105224609375 381.1018981933594 188.66661071777344 381.0465393066406 189.5985107421875 380.73883056640625 C 190.36114501953125 381.1734619140625 191.54946899414062 381.5837097167969 192.32296752929688 381.5190734863281 C 193.1943817138672 381.6054382324219 193.94451904296875 381.7742919921875 194.62939453125 381.6705322265625 C 194.98861694335938 382.0743103027344 195.47970581054688 382.25726318359375 196.2861328125 382.2622985839844 C 196.8809814453125 382.4503173828125 198.0048370361328 382.59283447265625 199.37452697753906 382.6294860839844 C 201.18099975585938 383.7869567871094 203.7827606201172 383.15875244140625 206.0989227294922 384.1900939941406 C 209.81297302246094 384.35321044921875 213.2450408935547 385.6281433105469 217.4582061767578 385.70111083984375 C 220.6298828125 387.032958984375 225.2645263671875 386.02239990234375 228.93202209472656 387.32000732421875 C 233.85585021972656 387.279296875 238.20672607421875 387.6247253417969 242.44126892089844 387.48370361328125 C 246.30824279785156 387.5289001464844 250.16778564453125 387.5187683105469 253.73760986328125 387.2095031738281 C 257.0093994140625 386.4098815917969 260.2809753417969 386.57977294921875 263.1969909667969 386.2160339355469 C 265.8828125 385.3638610839844 268.5109558105469 385.6435546875 270.83697509765625 385.24859619140625 C 272.8821105957031 384.24078369140625 275.2554626464844 384.6168212890625 277.40478515625 383.86114501953125 C 279.8642883300781 383.1503601074219 282.99957275390625 383.0231018066406 285.93853759765625 381.7549133300781 C 289.9337463378906 380.2886047363281 295.410400390625 379.95489501953125 298.84136962890625 377.45294189453125 C 303.735595703125 377.41229248046875 308.5916442871094 377.32489013671875 313.0317077636719 377.62847900390625 C 316.572265625 381.3855285644531 316.2532653808594 385.39910888671875 315.6231994628906 389.8912048339844 C 315.3374938964844 394.8002014160156 314.939697265625 400.4206237792969 313.7296447753906 405.1889953613281 C 313.33319091796875 410.5057373046875 311.8495178222656 415.9639587402344 310.3319091796875 421.2908630371094 C 308.9891052246094 427.503662109375 307.5555725097656 434.6107177734375 304.9187316894531 441.3459777832031 C 303.9136047363281 448.19879150390625 302.4093017578125 454.4465637207031 300.8600158691406 459.9189758300781 C 300.95404052734375 465.324462890625 300.22845458984375 469.1103820800781 297.9177551269531 471.33953857421875 C 294.641357421875 472.44415283203125 292.11126708984375 474.1410827636719 289.1692810058594 474.345703125 C 285.85357666015625 471.03265380859375 281.76202392578125 473.00994873046875 277.74078369140625 472.6678771972656 C 273.9447021484375 472.37908935546875 269.82843017578125 472.7427978515625 264.842529296875 472.0604553222656 C 260.50457763671875 472.03973388671875 255.73081970214844 471.3045349121094 250.12181091308594 470.60546875 C 246.0665740966797 469.76495361328125 244.6450653076172 465.0777282714844 242.57029724121094 461.43902587890625 C 240.7736053466797 458.2182312011719 239.81646728515625 456.20703125 239.65313720703125 455.533203125 C 239.83277893066406 456.267333984375 240.90328979492188 458.4750061035156 242.871337890625 462.0097961425781 C 244.87582397460938 466.1924743652344 247.9705047607422 469.0066833496094 246.7610321044922 473.2896423339844 C 246.64553833007812 477.7139892578125 246.67816162109375 481.0890808105469 244.73446655273438 485.0325927734375 C 242.24017333984375 481.5130615234375 243.19406127929688 478.16888427734375 242.91490173339844 470.4992980957031 C 241.44338989257812 468.82696533203125 234.54937744140625 468.0240783691406 233.5645751953125 463.5584716796875 C 233.418701171875 456.56915283203125 232.670166015625 453.6962890625 229.0361785888672 454.4636535644531 C 226.96217346191406 455.49993896484375 228.25460815429688 459.7760009765625 226.8193817138672 465.32275390625 C 226.92478942871094 472.5787658691406 227.02554321289062 475.6778259277344 216.99522399902344 474.6462097167969 C 215.4008026123047 477.9362487792969 215.87452697753906 483.2926025390625 214.13650512695312 487.9335021972656 C 213.2918243408203 492.57843017578125 213.17474365234375 497.2274475097656 210.85394287109375 507.0703430175781 C 207.41285705566406 502.97552490234375 209.7333221435547 499.4047546386719 209.5928497314453 495.16156005859375 C 210.077880859375 490.3008728027344 210.39297485351562 485.2489318847656 211.1689453125 479.72125244140625 C 211.299560546875 474.8338623046875 214.23204040527344 471.33575439453125 216.04978942871094 467.3331604003906 C 217.24014282226562 464.5130920410156 218.2548370361328 462.0840759277344 219.08099365234375 460.8096008300781 C 219.41622924804688 460.28253173828125 219.1500701904297 460.55352783203125 218.56134033203125 461.71630859375 C 217.55494689941406 463.4029846191406 216.7227783203125 466.1257019042969 215.21746826171875 468.9840087890625 C 213.78073120117188 471.826171875 212.37892150878906 475.91717529296875 209.8587188720703 474.84271240234375 C 204.48788452148438 475.661376953125 199.0224609375 475.1099853515625 193.06008911132812 475.271728515625 C 186.42947387695312 474.79052734375 179.30674743652344 475.30340576171875 171.86453247070312 472.8247375488281 C 167.1806182861328 473.84228515625 163.31724548339844 473.61895751953125 159.64146423339844 470.6947326660156 C 157.3080291748047 468.1910400390625 157.6827392578125 462.81646728515625 157.3466339111328 456.7216491699219 C 156.96128845214844 450.418701171875 155.91920471191406 443.8832702636719 155.35794067382812 437.4241943359375 C 155.20443725585938 430.7057800292969 154.0227508544922 424.4022521972656 153.47042846679688 418.1603088378906 C 153.0293731689453 412.3123474121094 153.02464294433594 406.53466796875 152.71734619140625 399.9379577636719 C 154.75466918945312 396.3524475097656 156.24708557128906 392.2108154296875 156.27293395996094 385.9099426269531 C 158.30035400390625 382.9542541503906 161.1109161376953 379.4198913574219 171.17422485351562 380.6896057128906" stroke-width="0.0" fill="rgb(251, 76, 3)" opacity="0.9999867" stroke="rgb(20, 77, 79)" stroke-opacity="0.46054134" stroke-linecap="round" stroke-linejoin="round"/>
    <path d="M 289.2548522949219 15.590008735656738 C 290.1394958496094 15.240917205810547 290.9764709472656 14.880892753601074 291.8619079589844 14.463827133178711 C 292.64599609375 14.334500312805176 293.40814208984375 14.342884063720703 294.3121643066406 14.386957168579102 C 295.2279357910156 14.977505683898926 296.31768798828125 15.72236156463623 297.71771240234375 16.712947845458984 C 299.3879699707031 18.260610580444336 301.4175720214844 20.369312286376953 303.4275207519531 22.668161392211914 C 305.2021179199219 25.745906829833984 307.4999694824219 29.044509887695312 309.82916259765625 32.510337829589844 C 312.020751953125 36.39056396484375 313.93756103515625 40.366737365722656 315.997802734375 44.38533401489258 C 317.7333679199219 48.426422119140625 319.7410888671875 52.223297119140625 321.5204162597656 55.83563995361328 C 323.76947021484375 59.018924713134766 326.1107482910156 61.9686279296875 328.4219970703125 64.44017028808594 C 330.47845458984375 66.6418685913086 331.69610595703125 68.62767791748047 332.122314453125 70.5060806274414 C 331.35882568359375 72.30252075195312 329.7373046875 74.02345275878906 327.2079772949219 76.11387634277344 C 323.9869384765625 77.47235870361328 320.5510559082031 79.07247924804688 317.079345703125 80.80335235595703 C 313.22802734375 82.5479507446289 309.6557312011719 84.45332336425781 306.36810302734375 86.51705932617188 C 303.37310791015625 88.81128692626953 300.1867980957031 90.8149642944336 296.8751220703125 92.87873840332031 C 293.1839294433594 94.46498107910156 289.3414306640625 95.64265441894531 285.08660888671875 96.56661224365234 C 280.7879638671875 96.4076156616211 276.21612548828125 95.90828704833984 271.4980773925781 94.84105682373047 C 266.9183654785156 93.01651763916016 262.2578430175781 90.34984588623047 257.4873352050781 87.71182250976562 C 253.26097106933594 84.6948013305664 248.55178833007812 82.36920166015625 243.54312133789062 80.62374114990234 C 239.86212158203125 78.89745330810547 235.9683837890625 78.38115692138672 232.57009887695312 78.99246978759766 C 229.65028381347656 80.48272705078125 227.32200622558594 83.06018829345703 226.11676025390625 86.31875610351562 C 224.9459991455078 90.14521789550781 224.07264709472656 94.15179443359375 223.79283142089844 98.16444396972656 C 223.4974822998047 101.79955291748047 222.66416931152344 105.04348754882812 221.4147491455078 107.7796401977539 C 218.8352508544922 109.51814270019531 215.54248046875 110.72779846191406 211.4971923828125 111.62442779541016 C 206.7151641845703 111.9324722290039 201.32949829101562 111.63185119628906 195.50051879882812 111.44527435302734 C 189.58920288085938 110.97713470458984 183.7472381591797 110.81883239746094 178.01100158691406 110.39305877685547 C 172.62283325195312 109.56942749023438 167.57203674316406 109.50801849365234 163.01307678222656 109.99172973632812 C 159.02713012695312 110.57305908203125 155.13760375976562 111.99967193603516 151.912841796875 113.8509750366211 C 149.1864013671875 116.42668914794922 146.8802947998047 119.5184555053711 144.9736328125 122.8662109375 C 143.4576416015625 126.79512786865234 141.9520721435547 130.57460021972656 140.34344482421875 134.39146423339844 C 138.3960723876953 137.7584228515625 136.3846893310547 141.14158630371094 134.20460510253906 144.40505981445312 C 132.11322021484375 147.8863525390625 130.34580993652344 151.5271453857422 128.6453094482422 155.2374267578125 C 128.3477020263672 159.83096313476562 127.6863021850586 164.3221893310547 127.26636505126953 168.9841766357422 C 126.7189712524414 173.50222778320312 126.25881958007812 177.8188934326172 125.13607025146484 181.86256408691406 C 122.59767150878906 184.9905242919922 119.62065887451172 187.85086059570312 115.85639190673828 190.26914978027344 C 111.02323150634766 191.3180694580078 105.4662857055664 191.8984832763672 99.49078369140625 191.82208251953125 C 93.28067779541016 191.81982421875 87.0820541381836 191.3118438720703 81.13796997070312 190.1106414794922 C 75.75508880615234 188.1031951904297 71.36751556396484 186.02638244628906 67.8841323852539 183.02146911621094 C 65.87279510498047 179.58697509765625 64.73731231689453 176.2138671875 64.50062561035156 172.60238647460938 C 65.65373229980469 168.97183227539062 67.27311706542969 165.41827392578125 68.8595962524414 161.73260498046875 C 71.5685806274414 158.073486328125 74.03197479248047 154.1578369140625 76.11782836914062 150.1678466796875 C 78.28384399414062 146.05796813964844 79.68863677978516 141.47369384765625 80.75997924804688 136.57347106933594 C 81.84332275390625 131.7520751953125 83.1539306640625 126.97149658203125 84.50189971923828 122.21434020996094 C 86.53323364257812 117.90545654296875 88.7686538696289 113.8774642944336 91.34725189208984 110.31198120117188 C 94.16261291503906 107.07637786865234 97.03311920166016 104.04193115234375 99.7917251586914 101.10942077636719 C 102.67396545410156 98.71729278564453 105.46727752685547 96.2176284790039 108.08512878417969 93.66449737548828 C 110.49752044677734 90.66551208496094 112.98783874511719 87.75458526611328 115.35189819335938 84.58275604248047 C 118.36375427246094 81.49980926513672 121.57011413574219 78.2275390625 124.82256317138672 74.96813201904297 C 128.14181518554688 71.54572296142578 131.56161499023438 68.1623306274414 135.1637725830078 64.65377044677734 C 138.97067260742188 61.531341552734375 142.62306213378906 58.208518981933594 146.1129608154297 54.63749313354492 C 149.6044464111328 51.16378402709961 153.08395385742188 47.71114730834961 156.5180206298828 44.41028594970703 C 159.3622589111328 40.752113342285156 162.3099365234375 37.67710494995117 165.10943603515625 35.141502380371094 C 168.9238739013672 33.88990020751953 172.2786865234375 33.261260986328125 175.92637634277344 33.41896438598633 C 179.74368286132812 34.70496368408203 183.7508087158203 36.627044677734375 188.06857299804688 38.841800689697266 C 192.13580322265625 41.57407760620117 196.42437744140625 43.86103439331055 200.98388671875 45.54313659667969 C 205.5717010498047 46.53867721557617 210.04869079589844 46.93534469604492 214.23712158203125 46.33428955078125 C 218.4114532470703 45.31264114379883 222.36936950683594 43.16814041137695 225.6143798828125 40.243408203125 C 228.9855499267578 36.92702102661133 232.0980224609375 33.3510627746582 235.09967041015625 29.728288650512695 C 238.38360595703125 26.309070587158203 241.74073791503906 23.584396362304688 245.30874633789062 21.05133056640625 C 249.396240234375 19.133136749267578 253.8377685546875 17.545827865600586 258.86663818359375 16.42066192626953 C 264.2681884765625 15.73023509979248 269.99261474609375 15.182082176208496 276.00244140625 15.308401107788086 C 282.18853759765625 15.49101734161377 288.35028076171875 15.499420166015625 289.2548522949219 15.590008735656738" stroke-width="0.0" fill="rgb(61, 39, 36)" opacity="0.999537" stroke="rgb(184, 91, 242)" stroke-opacity="0.17438076" stroke-linecap="round" stroke-linejoin="round"/>
    <path d="M 217.27293395996094 272.0064392089844 C 219.1381378173828 271.953125 220.5684356689453 272.1004638671875 221.97006225585938 272.2664489746094 C 223.35267639160156 272.40435791015625 224.7291717529297 272.4855651855469 225.88084411621094 272.5621032714844 C 227.0596923828125 272.54510498046875 228.18838500976562 272.42852783203125 229.11801147460938 272.3426208496094 C 230.17445373535156 272.2935791015625 231.1272735595703 272.1911926269531 232.08465576171875 272.096435546875 C 233.04299926757812 272.10748291015625 234.05076599121094 272.1029357910156 235.09622192382812 272.12109375 C 236.09317016601562 272.26043701171875 237.11026000976562 272.3503112792969 238.10279846191406 272.4493103027344 C 239.0319366455078 272.59149169921875 239.93397521972656 272.65869140625 240.7871551513672 272.70452880859375 C 241.6295928955078 272.81207275390625 242.55789184570312 272.8426818847656 243.55850219726562 272.7661437988281 C 244.75741577148438 272.7645568847656 246.20083618164062 272.6763916015625 247.8891143798828 272.4476013183594 C 249.84799194335938 272.2654724121094 252.13673400878906 272.1133117675781 254.62619018554688 271.9971618652344 C 257.24981689453125 272.0866394042969 259.9027099609375 272.35955810546875 262.454345703125 272.77239990234375 C 264.71832275390625 273.7100830078125 266.64886474609375 274.8550720214844 268.3487243652344 276.2796630859375 C 269.33721923828125 278.22015380859375 270.09893798828125 280.3605651855469 270.5174865722656 282.6955871582031 C 270.5866394042969 285.22894287109375 270.70733642578125 287.86968994140625 270.9128723144531 290.4170837402344 C 271.1617736816406 292.9066467285156 271.5818176269531 295.263916015625 272.05438232421875 297.4023742675781 C 273.2465515136719 299.3570251464844 274.5273132324219 301.1466979980469 275.94818115234375 302.7898864746094 C 277.6521911621094 304.1871337890625 279.39971923828125 305.5768737792969 281.0743408203125 306.93548583984375 C 282.6871337890625 308.4065246582031 284.2741394042969 309.9983215332031 285.6724548339844 311.5343017578125 C 287.200439453125 313.2655944824219 288.7313232421875 314.9236145019531 290.43878173828125 316.5370178222656 C 292.2217102050781 318.1890869140625 294.15155029296875 319.73077392578125 296.1229248046875 321.1544189453125 C 297.9324035644531 322.6776428222656 299.52947998046875 324.3855895996094 300.91741943359375 326.1399841308594 C 301.7983703613281 328.20745849609375 302.3546447753906 330.430908203125 302.6730651855469 332.94989013671875 C 302.594970703125 335.5800476074219 302.55029296875 338.28948974609375 302.5340881347656 341.0291442871094 C 302.79095458984375 343.6819152832031 303.3832092285156 346.2601318359375 303.7630920410156 348.7846984863281 C 305.3656921386719 351.0035400390625 306.89642333984375 353.1336669921875 308.3474426269531 355.077392578125 C 309.55877685546875 357.0696105957031 310.3580322265625 358.92303466796875 310.6693420410156 360.75384521484375 C 310.324951171875 362.3913269042969 309.3161315917969 363.81201171875 307.7342834472656 365.0078430175781 C 305.5696716308594 365.8891906738281 303.0812683105469 366.55255126953125 300.2569580078125 366.878173828125 C 297.30242919921875 367.0267639160156 294.2430725097656 367.0065002441406 291.15240478515625 366.9325256347656 C 288.0803527832031 366.88671875 285.0339050292969 366.85589599609375 281.98345947265625 366.90631103515625 C 278.9838562011719 366.988525390625 275.94879150390625 367.18145751953125 272.9445495605469 367.4585266113281 C 269.9481201171875 367.56671142578125 266.95977783203125 367.7194519042969 264.0167541503906 367.7867736816406 C 261.0137023925781 367.8183898925781 258.0436096191406 367.7144470214844 255.201416015625 367.5652160644531 C 252.2913360595703 367.3885803222656 249.30172729492188 367.1454162597656 246.3934326171875 366.92236328125 C 243.46473693847656 366.6311340332031 240.49362182617188 366.50372314453125 237.4567108154297 366.5293884277344 C 234.45521545410156 366.4564208984375 231.36965942382812 366.4112854003906 228.19654846191406 366.484375 C 225.0565185546875 366.4189453125 221.9746856689453 366.45330810546875 218.8321075439453 366.49896240234375 C 215.79690551757812 366.44000244140625 212.7248992919922 366.4857177734375 209.73361206054688 366.474853515625 C 206.80564880371094 366.4285583496094 203.9222412109375 366.4656677246094 200.99676513671875 366.5388488769531 C 198.09078979492188 366.6279296875 195.2005615234375 366.89215087890625 192.22906494140625 367.0921325683594 C 189.12496948242188 367.3358154296875 185.9293975830078 367.54498291015625 182.7500457763672 367.7572937011719 C 179.4600830078125 367.7268371582031 176.12278747558594 367.5099792480469 172.91160583496094 367.12359619140625 C 169.95175170898438 366.4309997558594 167.27825927734375 365.63397216796875 164.95802307128906 364.64312744140625 C 163.28839111328125 363.42559814453125 162.18606567382812 362.09674072265625 161.5460205078125 360.6930847167969 C 161.97821044921875 359.357421875 162.91012573242188 357.92156982421875 164.379150390625 356.6643371582031 C 166.16749572753906 355.3631591796875 168.205078125 353.9636535644531 170.30615234375 352.4618835449219 C 172.2454833984375 350.8353576660156 173.92547607421875 348.94635009765625 175.33773803710938 346.83233642578125 C 175.97564697265625 344.2618408203125 176.34414672851562 341.5675964355469 176.46617126464844 338.73809814453125 C 176.4766387939453 335.838134765625 176.45327758789062 333.0423278808594 176.62344360351562 330.3353271484375 C 177.245849609375 327.9278564453125 178.11077880859375 325.8341369628906 179.41476440429688 323.97125244140625 C 181.14268493652344 322.408935546875 183.02146911621094 321.09808349609375 185.1016082763672 319.782958984375 C 187.03131103515625 318.4253234863281 188.7898406982422 316.7844543457031 190.3670654296875 314.92144775390625 C 191.4724578857422 312.8331604003906 192.2132110595703 310.4676818847656 192.65164184570312 307.87548828125 C 192.97360229492188 305.2393798828125 193.1993865966797 302.6835632324219 193.60902404785156 300.2113952636719 C 194.25318908691406 297.8540954589844 195.01370239257812 295.8105773925781 196.0797576904297 293.8516540527344 C 197.48812866210938 292.1612854003906 198.9767303466797 290.5200500488281 200.63075256347656 288.84674072265625 C 202.2954864501953 287.2660827636719 203.9032440185547 285.71734619140625 205.51158142089844 283.94384765625 C 206.73004150390625 281.66949462890625 208.05718994140625 279.7364807128906 209.29318237304688 277.6949462890625 C 210.79652404785156 275.83447265625 212.19650268554688 274.0623474121094 213.71511840820312 272.2946472167969 C 215.21022033691406 270.6216125488281 216.67739868164062 269.1739501953125 217.27293395996094 272.0064392089844" stroke-width="0.0" fill="rgb(254, 111, 167)" opacity="0.9995053" stroke="rgb(208, 36, 111)" stroke-opacity="0.34216064" stroke-linecap="round" stroke-linejoin="round"/>
    <path d="M 365.0472106933594 268.6405029296875 C 365.78564453125 268.6662902832031 366.4290771484375 268.9846496582031 367.0196533203125 269.48638916015625 C 368.1903991699219 269.634765625 368.96270751953125 270.2320251464844 370.0234375 270.5906066894531 C 371.14495849609375 271.12603759765625 372.3638000488281 271.53839111328125 373.4103088378906 272.15118408203125 C 374.6596374511719 272.57525634765625 375.8063049316406 273.0582580566406 376.8406982421875 273.52838134765625 C 377.88507080078125 273.9632263183594 378.8784484863281 274.438232421875 380.0574951171875 274.84771728515625 C 381.0586242675781 275.3878173828125 382.1617736816406 275.95074462890625 383.36895751953125 276.805908203125 C 384.6199035644531 277.74798583984375 386.14739990234375 278.3235168457031 387.6368713378906 279.29400634765625 C 389.4239196777344 279.9263916015625 391.06427001953125 280.9372863769531 392.7410583496094 282.1078186035156 C 394.8728942871094 283.2023010253906 396.6880798339844 284.59832763671875 398.2733459472656 286.42181396484375 C 400.1584777832031 287.7962341308594 401.9610900878906 289.5057373046875 403.88519287109375 291.122802734375 C 405.2569885253906 293.0810852050781 406.8210144042969 294.3858337402344 408.6864929199219 295.45721435546875 C 410.9501037597656 295.68060302734375 413.7898864746094 296.0990905761719 415.26641845703125 293.7313232421875 C 417.4617004394531 292.9691467285156 420.6487121582031 292.11669921875 422.852783203125 291.00836181640625 C 425.9983825683594 290.7311096191406 427.8155517578125 289.2514343261719 430.1456298828125 289.1617431640625 C 433.3511047363281 288.3402099609375 434.28631591796875 286.817138671875 436.1858825683594 285.1654052734375 C 437.55023193359375 283.13287353515625 439.4616394042969 281.44073486328125 441.2718200683594 279.6893310546875 C 443.0144958496094 278.9493408203125 445.4681701660156 279.46990966796875 447.3818359375 279.48345947265625 C 448.07708740234375 280.59832763671875 449.64599609375 282.0455322265625 450.51019287109375 282.9269104003906 C 450.49884033203125 284.78607177734375 450.8028564453125 286.923095703125 450.36151123046875 288.4451904296875 C 449.25787353515625 289.51934814453125 449.96209716796875 292.3726501464844 448.7433776855469 292.0759582519531 C 448.3266296386719 294.68450927734375 447.6424560546875 296.3299560546875 446.7420654296875 297.34222412109375 C 445.93975830078125 299.3385009765625 446.181396484375 299.8454284667969 447.89337158203125 299.2524108886719 C 449.8903503417969 300.43695068359375 452.56597900390625 301.1089782714844 454.9339599609375 302.22064208984375 C 456.8447570800781 303.3802795410156 459.4526062011719 304.5006408691406 461.9579162597656 305.88983154296875 C 464.03265380859375 307.4479675292969 466.4409484863281 308.823486328125 468.436279296875 310.339599609375 C 470.5429382324219 311.90460205078125 471.5958251953125 314.34576416015625 473.7398681640625 314.8602294921875 C 473.7078857421875 317.1338195800781 473.5568542480469 319.24053955078125 473.9074401855469 321.4723205566406 C 471.4661865234375 321.6877746582031 470.33642578125 324.3534240722656 467.99700927734375 323.6696472167969 C 464.9173583984375 323.7576904296875 462.67474365234375 323.7347106933594 460.069091796875 323.4808349609375 C 460.13995361328125 324.7892761230469 461.868896484375 325.35748291015625 463.4833679199219 327.58935546875 C 465.6939697265625 329.0346374511719 467.1493835449219 331.7305908203125 467.6983337402344 333.7939453125 C 467.81439208984375 336.8531188964844 467.815185546875 338.1507263183594 465.4977111816406 339.493896484375 C 463.8904113769531 340.1856689453125 462.15045166015625 341.0393981933594 460.6789855957031 340.9996337890625 C 460.7265625 342.93927001953125 460.5296630859375 344.90789794921875 460.7906188964844 346.5263977050781 C 458.5970153808594 348.07666015625 456.3219909667969 347.7271423339844 453.35772705078125 347.6719665527344 C 450.6866455078125 347.2945861816406 447.8204650878906 346.15704345703125 445.4162902832031 345.37957763671875 C 443.58770751953125 344.0978698730469 441.3658142089844 344.2075500488281 439.9480895996094 343.4519348144531 C 438.6583251953125 343.8048095703125 437.7978820800781 343.4072570800781 437.3023376464844 343.0189208984375 C 437.71575927734375 342.34228515625 438.1330261230469 341.79925537109375 438.8661193847656 340.9516906738281 C 439.55621337890625 339.9640808105469 439.4309387207031 338.783935546875 437.9925842285156 335.7982177734375 C 441.42816162109375 334.6659240722656 442.247314453125 334.11737060546875 441.5163269042969 332.42913818359375 C 443.5120544433594 331.2745361328125 443.8992004394531 329.6917724609375 443.2049865722656 328.09417724609375 C 442.0228576660156 326.8301086425781 440.683837890625 325.7746887207031 437.38812255859375 325.8196716308594 C 436.7630615234375 321.6935119628906 436.2759704589844 319.6678466796875 436.01287841796875 317.8359680175781 C 436.639404296875 315.5556640625 436.8184814453125 313.3724365234375 436.3675231933594 312.0057678222656 C 436.01239013671875 311.2673645019531 434.677734375 309.9341125488281 431.09820556640625 308.32611083984375 C 431.2906799316406 305.5716552734375 431.3377990722656 305.0313720703125 429.0347900390625 306.24249267578125 C 427.9593200683594 302.6713562011719 426.74017333984375 301.9836120605469 424.18438720703125 301.54522705078125 C 423.31268310546875 299.1356201171875 422.2635803222656 299.15521240234375 421.23468017578125 298.9466552734375 C 420.733642578125 294.60968017578125 419.3747253417969 294.2767639160156 417.70501708984375 294.8086853027344 C 415.8197937011719 294.1922607421875 414.1214904785156 294.2505187988281 412.3998718261719 294.5377197265625 C 410.6521301269531 294.7363586425781 408.7859191894531 294.55694580078125 407.0361328125 293.52838134765625 C 404.8419494628906 292.8862609863281 402.53399658203125 292.5933532714844 401.08544921875 290.552490234375 C 398.3304748535156 289.609619140625 396.0364074707031 288.126708984375 393.45916748046875 286.6253662109375 C 392.97821044921875 284.7950134277344 391.4502258300781 283.4385986328125 388.95281982421875 282.6009826660156 C 387.31768798828125 281.984130859375 385.5955810546875 281.03558349609375 383.54052734375 280.4869079589844 C 382.08050537109375 278.5439147949219 380.2427978515625 277.81201171875 378.99139404296875 275.82196044921875 C 377.27197265625 274.2565002441406 375.38427734375 273.40142822265625 373.2076416015625 273.28057861328125 C 371.32122802734375 272.20159912109375 369.5188903808594 271.3201599121094 367.7768859863281 270.2801208496094 C 365.896484375 269.328369140625 364.1228942871094 268.46075439453125 365.0472106933594 268.6405029296875" stroke-width="0.0" fill="rgb(247, 185, 103)" opacity="0.9999899" stroke="rgb(40, 81, 52)" stroke-opacity="0.21538487" stroke-linecap="round" stroke-linejoin="round"/>
    <path d="M 304.8067626953125 101.45999908447266 C 305.778564453125 102.9335708618164 306.9088134765625 103.65435028076172 306.0675354003906 104.89046478271484 C 307.7215270996094 104.66069030761719 309.0269470214844 103.79142761230469 310.7635803222656 104.07638549804688 C 312.5116882324219 103.87681579589844 314.2615661621094 104.46707153320312 317.29345703125 104.42069244384766 C 315.5391845703125 105.49043273925781 315.3315124511719 106.7795181274414 316.46270751953125 107.57238006591797 C 315.1766357421875 108.20779418945312 315.8910217285156 107.25827026367188 315.8231201171875 106.56710815429688 C 315.73907470703125 105.49164581298828 316.1811828613281 104.76296997070312 317.7022705078125 105.06634521484375 C 320.1068115234375 104.64379119873047 321.1288146972656 106.21055603027344 323.1767883300781 107.31613159179688 C 324.6412048339844 108.139892578125 325.6018981933594 109.85289001464844 326.9887390136719 110.59357452392578 C 326.5452575683594 111.86457061767578 327.8684387207031 111.97695922851562 328.16937255859375 112.90155792236328 C 328.42425537109375 113.87626647949219 329.1087951660156 114.86968231201172 329.4981994628906 115.90653228759766 C 329.8509826660156 116.8245849609375 329.8736572265625 118.43594360351562 330.42791748046875 118.4530029296875 C 330.3992919921875 119.59442901611328 330.597412109375 120.51458740234375 330.4884338378906 121.58214569091797 C 330.8365173339844 122.60694885253906 330.8641662597656 123.71572875976562 330.6589050292969 124.98455047607422 C 330.24090576171875 126.42586517333984 329.8895263671875 128.4269256591797 329.24462890625 130.12033081054688 C 329.3426818847656 131.1916961669922 326.99664306640625 132.4037628173828 328.6968688964844 132.92034912109375 C 332.34625244140625 133.1326904296875 330.9131164550781 134.69422912597656 329.05059814453125 134.91973876953125 C 327.9963684082031 135.3662872314453 327.2344055175781 136.0237579345703 325.9372253417969 136.07154846191406 C 325.0057067871094 136.42581176757812 323.95074462890625 137.12342834472656 322.5578308105469 137.2046356201172 C 321.4443359375 137.80287170410156 320.1099853515625 138.0663604736328 318.9905090332031 138.51719665527344 C 318.1588439941406 139.15438842773438 317.32342529296875 138.960205078125 316.2428894042969 139.02325439453125 C 315.58892822265625 139.8658447265625 314.7705993652344 140.1551971435547 313.4278259277344 139.9635009765625 C 313.59356689453125 140.58909606933594 312.8800048828125 141.01324462890625 310.8713073730469 141.01670837402344 C 309.32061767578125 141.60321044921875 307.97509765625 142.3097686767578 306.79119873046875 142.03578186035156 C 305.8041687011719 142.8424835205078 304.31317138671875 143.27511596679688 302.7828063964844 142.9082794189453 C 301.6078186035156 143.3775634765625 301.0304870605469 143.189453125 300.2668151855469 142.72105407714844 C 299.9018859863281 141.8915557861328 299.460693359375 141.2251434326172 298.6102294921875 140.96315002441406 C 298.7209777832031 139.04576110839844 297.37255859375 138.9242401123047 296.7366943359375 138.04336547851562 C 296.3277587890625 135.83778381347656 294.9366149902344 135.98812866210938 294.80889892578125 134.50311279296875 C 294.0556335449219 132.860595703125 293.4581604003906 131.6013641357422 293.00799560546875 130.71206665039062 C 292.8202819824219 129.16525268554688 291.96044921875 128.30845642089844 291.9701232910156 127.45068359375 C 291.9870910644531 126.23846435546875 291.7662658691406 125.52385711669922 291.5074157714844 125.0346908569336 C 291.31005859375 124.5328369140625 291.45196533203125 123.57176208496094 291.54058837890625 122.87718200683594 C 291.3550720214844 122.37493896484375 291.54754638671875 121.36304473876953 291.50152587890625 120.216064453125 C 290.7820739746094 119.45486450195312 292.17559814453125 118.76555633544922 291.9874267578125 116.82833862304688 C 292.0101623535156 115.29131317138672 293.3459777832031 114.5082778930664 293.8730773925781 112.484375 C 294.88360595703125 111.22352600097656 295.4482116699219 109.30589294433594 296.7420959472656 108.59765625 C 297.9339294433594 107.4279556274414 299.0243835449219 105.96116638183594 299.79901123046875 105.78744506835938 C 300.41925048828125 104.27811431884766 302.458984375 104.42192840576172 304.8067626953125 101.45999908447266" stroke-width="0.0" fill="rgb(140, 69, 26)" opacity="0.9999975" stroke="rgb(198, 26, 229)" stroke-opacity="0.54831547" stroke-linecap="round" stroke-linejoin="round"/>
    <path d="M 126.29198455810547 331.31756591796875 C 126.95989990234375 331.588623046875 127.83062744140625 331.628662109375 129.48130798339844 331.9920349121094 C 129.9475860595703 333.63165283203125 131.17086791992188 333.14117431640625 132.93360900878906 333.1711730957031 C 134.04551696777344 334.3567199707031 135.38253784179688 334.3092041015625 137.71017456054688 331.40478515625 C 139.92425537109375 333.3597106933594 141.81771850585938 334.64404296875 143.4472198486328 334.4288330078125 C 145.11373901367188 334.5401916503906 146.5959014892578 333.5299987792969 149.46678161621094 334.08544921875 C 149.69943237304688 337.9587097167969 149.82965087890625 340.64739990234375 153.4300994873047 343.3189392089844 C 150.54052734375 345.8891906738281 148.96743774414062 347.8166809082031 149.6521759033203 348.9750671386719 C 150.284912109375 350.5980529785156 150.83468627929688 351.9993896484375 152.1415557861328 353.62353515625 C 150.14889526367188 355.2989807128906 148.59420776367188 356.67352294921875 149.64845275878906 358.176513671875 C 149.09364318847656 359.81903076171875 148.95510864257812 361.54852294921875 147.98487854003906 363.1592102050781 C 146.77891540527344 364.5396423339844 145.4970245361328 365.9046325683594 144.01939392089844 370.1437683105469 C 141.65692138671875 368.6783752441406 139.44833374023438 367.2135925292969 134.515380859375 367.31787109375 C 132.40492248535156 365.4591369628906 131.92539978027344 363.0430603027344 128.65370178222656 361.80126953125 C 127.88153076171875 357.1132507324219 126.24053955078125 354.3024597167969 121.61215209960938 353.6817932128906 C 122.78260040283203 349.2208557128906 122.56072235107422 347.7516174316406 122.03392028808594 347.87005615234375 C 122.2745132446289 347.1412658691406 121.86912536621094 347.6069641113281 122.72408294677734 349.72357177734375 C 121.18949890136719 350.7083740234375 120.87289428710938 352.2107849121094 121.80998229980469 355.1332092285156 C 119.75601196289062 356.4984130859375 119.45126342773438 357.1961364746094 120.46517181396484 357.6728820800781 C 119.63002014160156 359.3119812011719 121.30791473388672 360.1901550292969 122.3912582397461 360.27203369140625 C 122.92681884765625 361.29827880859375 124.55264282226562 361.2279052734375 126.71611022949219 362.13116455078125 C 127.76950073242188 364.7301025390625 128.46231079101562 365.96124267578125 128.66075134277344 366.5283508300781 C 129.14785766601562 366.9314880371094 130.26466369628906 364.9482116699219 132.9090118408203 365.2433776855469 C 134.20535278320312 367.9557800292969 135.31858825683594 367.4341735839844 137.1064453125 367.27587890625 C 139.61199951171875 368.05963134765625 141.29632568359375 368.3227233886719 143.69564819335938 369.8748474121094 C 144.2879638671875 371.5689697265625 144.70663452148438 371.85888671875 144.41578674316406 371.6552429199219 C 144.23092651367188 370.9515075683594 143.73538208007812 369.7640380859375 144.73809814453125 368.3830871582031 C 145.6973876953125 366.1812744140625 146.2818603515625 364.67034912109375 148.0847625732422 363.30242919921875 C 148.57479858398438 361.0331115722656 149.50172424316406 359.630126953125 151.48922729492188 358.3509216308594 C 152.803466796875 361.93060302734375 154.13035583496094 363.3401184082031 155.8800811767578 365.70709228515625 C 153.77896118164062 368.2580261230469 153.16796875 370.11773681640625 154.11990356445312 372.0610046386719 C 154.6317138671875 374.33203125 154.51148986816406 376.8524475097656 156.91668701171875 378.8974914550781 C 155.38963317871094 381.37255859375 154.81260681152344 383.20556640625 157.14332580566406 386.24615478515625 C 155.4280242919922 386.64813232421875 154.3555908203125 386.4913024902344 152.33511352539062 386.8350524902344 C 151.10311889648438 385.4478454589844 149.21542358398438 384.1293640136719 147.1753387451172 382.88037109375 C 148.8497772216797 381.2745666503906 148.29864501953125 380.7201843261719 148.14881896972656 381.6363830566406 C 147.9501495361328 382.34051513671875 147.17799377441406 382.34161376953125 146.1888885498047 386.4970703125 C 143.88619995117188 383.83551025390625 142.74082946777344 384.0995788574219 139.9793701171875 386.7481994628906 C 137.6518096923828 383.96014404296875 136.35098266601562 382.955322265625 134.17591857910156 383.7159729003906 C 132.00865173339844 382.90631103515625 129.96072387695312 382.73046875 127.66958618164062 382.52392578125 C 125.77912902832031 381.1591491699219 124.3320083618164 381.10906982421875 124.26608276367188 380.63128662109375 C 123.91613006591797 379.9183044433594 123.85566711425781 381.041015625 122.84101104736328 381.5132141113281 C 121.16989135742188 381.0640563964844 120.2880859375 381.1322326660156 118.7764892578125 381.90771484375 C 117.54112243652344 380.9272766113281 116.33860778808594 380.2578125 116.0361099243164 378.1607360839844 C 115.66281127929688 375.8077697753906 114.78031158447266 373.96087646484375 115.0330810546875 371.86370849609375 C 114.43122100830078 370.2197265625 114.51315307617188 368.12689208984375 114.48611450195312 365.9626159667969 C 114.87532806396484 364.0684509277344 114.0663833618164 362.3392333984375 113.37313079833984 360.6097412109375 C 113.70612335205078 357.64593505859375 113.18353271484375 355.533935546875 112.83679962158203 353.5677490234375 C 113.54353332519531 351.30767822265625 113.01275634765625 349.505615234375 113.25306701660156 347.6314697265625 C 111.72376251220703 347.0489196777344 110.31431579589844 347.080078125 108.56842041015625 346.9810485839844 C 106.5125732421875 348.49639892578125 104.30630493164062 349.7048645019531 102.60526275634766 346.42315673828125 C 100.0108413696289 346.5520935058594 97.94782257080078 347.81304931640625 95.76658630371094 349.1822814941406 C 93.3223876953125 350.2233581542969 90.90448760986328 350.8680114746094 88.6004867553711 352.1667175292969 C 86.61543273925781 353.1654357910156 84.58292388916016 352.4331359863281 80.38117980957031 353.2118225097656 C 86.11406707763672 355.61590576171875 87.65103912353516 358.3514709472656 89.20664978027344 355.8753662109375 C 91.14693450927734 355.172119140625 93.11687469482422 353.51275634765625 95.7011489868164 352.71905517578125 C 98.23326110839844 351.742919921875 100.7409896850586 350.36724853515625 104.05229187011719 348.81878662109375 C 102.14031219482422 345.8645935058594 104.05062103271484 344.39324951171875 107.32396697998047 343.46295166015625 C 109.18822479248047 341.64300537109375 111.5114517211914 341.01177978515625 113.35206604003906 339.7252197265625 C 115.40739440917969 338.7094421386719 117.14100646972656 337.2620849609375 119.01333618164062 336.1979064941406 C 120.58283996582031 334.66278076171875 122.912109375 334.3304748535156 126.29198455810547 331.31756591796875" stroke-width="0.0" fill="rgb(145, 116, 173)" opacity="0.9999271" stroke="rgb(248, 58, 203)" stroke-opacity="0.41993797" stroke-linecap="round" stroke-linejoin="round"/>
    <path d="M 217.4753875732422 132.03900146484375 C 217.1825714111328 131.95599365234375 217.83694458007812 131.32044982910156 218.5274658203125 129.54061889648438 C 219.37120056152344 128.28028869628906 221.64425659179688 129.4691162109375 223.09219360351562 131.0675506591797 C 224.69798278808594 131.75962829589844 224.9576873779297 133.76429748535156 225.99627685546875 134.85073852539062 C 227.11605834960938 135.6985321044922 227.01927185058594 137.49365234375 227.74624633789062 138.40646362304688 C 227.84791564941406 140.27598571777344 228.82769775390625 141.10850524902344 228.5037078857422 142.1956024169922 C 228.42807006835938 143.38775634765625 228.99465942382812 144.4493865966797 228.81170654296875 146.18780517578125 C 229.04287719726562 147.34617614746094 227.88772583007812 148.50149536132812 227.8746795654297 150.4761199951172 C 227.0321502685547 151.75933837890625 226.7301483154297 153.05120849609375 226.4961700439453 154.10183715820312 C 225.68072509765625 154.61012268066406 225.4169158935547 155.70384216308594 225.35548400878906 156.09906005859375 C 223.99139404296875 157.31431579589844 222.8795623779297 158.50296020507812 221.50247192382812 160.09359741210938 C 220.7678985595703 161.25729370117188 222.2686767578125 159.82875061035156 227.3567352294922 160.84054565429688 C 221.58872985839844 163.3594970703125 220.5574493408203 163.248046875 219.49740600585938 163.57000732421875 C 218.63575744628906 163.1697235107422 217.87257385253906 164.78106689453125 216.5944061279297 163.91441345214844 C 215.38160705566406 164.3108673095703 214.3913116455078 165.0791778564453 213.05465698242188 165.0276641845703 C 212.27993774414062 165.61300659179688 210.3033447265625 165.42396545410156 209.98915100097656 165.69668579101562 C 208.91830444335938 165.8683624267578 207.36318969726562 166.37246704101562 206.07618713378906 166.39588928222656 C 204.7028045654297 166.7290802001953 203.5169677734375 167.24752807617188 201.2748260498047 166.9844207763672 C 200.79425048828125 166.40208435058594 201.7018585205078 165.22372436523438 202.26524353027344 163.94627380371094 C 201.01608276367188 164.3475341796875 199.50413513183594 163.0630645751953 197.50570678710938 162.7803955078125 C 196.18553161621094 162.05455017089844 194.18106079101562 160.9855499267578 192.4294891357422 159.25131225585938 C 191.57125854492188 158.47193908691406 192.7946014404297 157.60934448242188 193.13966369628906 157.13450622558594 C 192.79989624023438 157.94053649902344 191.7424774169922 158.8848419189453 191.13653564453125 157.77767944335938 C 189.65423583984375 155.77935791015625 188.57901000976562 154.7657470703125 188.2995147705078 152.67872619628906 C 187.81277465820312 151.60214233398438 187.5969696044922 150.44326782226562 187.32308959960938 149.80184936523438 C 187.10781860351562 149.27374267578125 187.10385131835938 148.88320922851562 187.05316162109375 148.3418731689453 C 187.04415893554688 147.22503662109375 186.95339965820312 146.23326110839844 187.1233673095703 144.36996459960938 C 187.91893005371094 144.87448120117188 189.9132843017578 144.76962280273438 191.7674102783203 145.09860229492188 C 193.08914184570312 145.6721649169922 194.41510009765625 146.02659606933594 196.03314208984375 145.86050415039062 C 197.1775665283203 146.132568359375 198.29112243652344 145.73562622070312 198.8316650390625 147.87844848632812 C 199.7395477294922 148.4308319091797 200.84634399414062 148.3680877685547 201.6741485595703 148.60577392578125 C 203.11929321289062 147.4893035888672 203.89442443847656 146.4563751220703 204.39694213867188 145.009765625 C 205.3775634765625 143.55174255371094 205.55738830566406 142.22613525390625 206.61776733398438 141.99176025390625 C 206.92469787597656 143.065673828125 207.9606475830078 143.5486297607422 209.4642791748047 143.96026611328125 C 210.51864624023438 144.17904663085938 211.3820343017578 143.7413787841797 211.96310424804688 142.95022583007812 C 211.98080444335938 141.7989044189453 212.4497528076172 140.91331481933594 211.4930419921875 139.8538360595703 C 211.256103515625 138.17816162109375 209.09072875976562 138.6715087890625 207.71829223632812 138.1449737548828 C 208.31419372558594 135.0470733642578 207.42430114746094 133.3568572998047 209.1000213623047 130.90115356445312 C 210.99588012695312 129.36480712890625 212.05581665039062 128.0230712890625 213.50341796875 127.88238525390625 C 217.4962158203125 128.31832885742188 220.9748992919922 126.03451538085938 217.4753875732422 132.03900146484375" stroke-width="0.0" fill="rgb(141, 71, 27)" opacity="0.99999654" stroke="rgb(145, 240, 2)" stroke-opacity="0.20760542" stroke-linecap="round" stroke-linejoin="round"/>
    <path d="M 224.99876403808594 198.1226806640625 C 226.6841278076172 198.0645751953125 227.75747680664062 199.01507568359375 229.06451416015625 199.4514617919922 C 230.20518493652344 199.71026611328125 231.2265167236328 200.72340393066406 232.9965057373047 200.6201171875 C 233.76397705078125 201.12432861328125 235.06605529785156 201.36817932128906 236.04428100585938 201.8746795654297 C 237.04013061523438 202.21043395996094 238.07598876953125 202.15794372558594 238.77296447753906 202.2866668701172 C 239.4625244140625 202.39837646484375 240.2150421142578 202.69317626953125 240.87539672851562 202.806396484375 C 241.40199279785156 202.96315002441406 242.2825164794922 203.16632080078125 243.20326232910156 203.13294982910156 C 244.16351318359375 203.1910400390625 245.67132568359375 203.3760986328125 246.82505798339844 203.5446014404297 C 247.88916015625 203.50340270996094 249.62217712402344 203.4106903076172 250.38868713378906 203.51661682128906 C 251.69436645507812 203.37948608398438 253.0899200439453 203.60662841796875 254.3253936767578 203.37020874023438 C 255.85797119140625 203.7874298095703 256.9952087402344 202.77392578125 258.27447509765625 203.00367736816406 C 259.36968994140625 202.80911254882812 260.76019287109375 202.243896484375 261.8948669433594 202.11631774902344 C 262.7751159667969 201.39508056640625 263.7757263183594 201.06005859375 266.7401123046875 202.38841247558594 C 262.0777587890625 203.89080810546875 261.5540466308594 204.4751434326172 261.28546142578125 206.5370635986328 C 260.4267578125 207.86570739746094 259.98199462890625 209.47384643554688 259.3755187988281 211.06396484375 C 258.72308349609375 212.03591918945312 258.8554382324219 213.33334350585938 257.9732666015625 213.76654052734375 C 257.8258972167969 214.5921173095703 257.8984375 215.8856201171875 257.5701599121094 216.58807373046875 C 257.4735107421875 217.4329071044922 257.38482666015625 218.98765563964844 257.1435852050781 219.84555053710938 C 256.921142578125 220.56272888183594 257.0217590332031 221.39381408691406 257.03302001953125 222.45260620117188 C 256.8372497558594 223.24891662597656 256.99859619140625 223.9329071044922 257.5616455078125 224.8059844970703 C 257.3606872558594 225.9916534423828 259.1317138671875 226.30349731445312 260.65521240234375 227.6820526123047 C 257.4954833984375 228.802734375 256.045654296875 228.4595947265625 254.430419921875 228.546875 C 252.58689880371094 228.64962768554688 250.8016815185547 228.51100158691406 248.49313354492188 228.32171630859375 C 248.22900390625 228.06307983398438 246.9175567626953 227.48110961914062 245.2562255859375 227.521728515625 C 244.14926147460938 227.20010375976562 243.22378540039062 226.54747009277344 241.8653106689453 226.0925750732422 C 240.67288208007812 226.0247039794922 240.12037658691406 224.66612243652344 238.54026794433594 224.5480194091797 C 237.67367553710938 223.61412048339844 236.4473419189453 222.6062774658203 235.00682067871094 221.7307891845703 C 234.86376953125 220.86480712890625 233.76719665527344 220.30909729003906 233.35902404785156 220.13722229003906 C 233.07803344726562 220.0052032470703 232.90760803222656 219.7519989013672 232.9975128173828 220.04991149902344 C 233.1856689453125 219.06427001953125 232.7509307861328 218.57106018066406 231.81857299804688 218.1299285888672 C 230.96144104003906 216.86328125 230.06558227539062 215.3675994873047 229.19252014160156 213.72325134277344 C 228.16238403320312 212.31585693359375 227.5591278076172 210.37948608398438 226.63397216796875 208.9514923095703 C 226.1593475341797 207.48114013671875 225.5030517578125 206.21412658691406 225.5204620361328 204.63340759277344 C 225.0898895263672 203.1918182373047 224.4797821044922 201.95547485351562 224.31134033203125 200.85353088378906 C 224.06800842285156 199.68785095214844 223.7096405029297 198.5714874267578 224.31402587890625 197.96376037597656 C 225.26705932617188 198.0908966064453 225.9016876220703 197.92184448242188 224.99876403808594 198.1226806640625" stroke-width="0.0" fill="rgb(196, 40, 10)" opacity="0.9999877" stroke="rgb(226, 122, 108)" stroke-opacity="0.83390206" stroke-linecap="round" stroke-linejoin="round"/>
    <path d="M 419.10894775390625 340.1477355957031 C 428.7408752441406 342.55865478515625 431.0491638183594 349.51092529296875 435.39410400390625 352.8108215332031 C 437.494384765625 355.999267578125 439.35015869140625 357.2695617675781 441.4504089355469 356.5034484863281 C 442.2148132324219 356.2533874511719 441.7418518066406 354.50543212890625 441.4898986816406 351.3078308105469 C 440.3018798828125 348.9358215332031 438.5499267578125 346.72119140625 440.9576110839844 345.5693664550781 C 443.262451171875 348.9798278808594 444.0660705566406 351.22052001953125 445.0904235839844 354.336181640625 C 446.19793701171875 356.3370666503906 444.7633361816406 358.3147888183594 443.81329345703125 360.1551513671875 C 441.2846984863281 360.87249755859375 438.8587341308594 361.5205993652344 437.48138427734375 360.72161865234375 C 435.930908203125 360.7590637207031 435.66107177734375 359.18194580078125 434.5438232421875 358.455322265625 C 433.8814392089844 358.2780456542969 433.9974670410156 357.5283203125 433.4765625 357.1097717285156 C 432.4251403808594 356.5897521972656 431.3561096191406 354.04779052734375 428.6518859863281 351.1276550292969 C 426.1663513183594 347.0538024902344 420.8866271972656 343.6300048828125 419.10894775390625 340.1477355957031" stroke-width="0.0" fill="rgb(67, 36, 24)" opacity="0.9998204" stroke="rgb(168, 112, 3)" stroke-opacity="0.6367145" stroke-linecap="round" stroke-linejoin="round"/>
    <path d="M 348.6937561035156 315.33612060546875 C 349.13140869140625 317.059326171875 351.4573059082031 317.0845642089844 353.0766296386719 317.6699523925781 C 354.33209228515625 318.8714599609375 356.4538269042969 319.10211181640625 357.8260803222656 319.6176452636719 C 359.06060791015625 319.4121398925781 360.1623229980469 320.32684326171875 361.0057373046875 320.4451599121094 C 362.0630187988281 320.70196533203125 363.54144287109375 320.6443176269531 363.4280700683594 321.4425354003906 C 364.0955505371094 321.3901062011719 365.24566650390625 321.6704406738281 366.7681579589844 321.9900817871094 C 367.79827880859375 321.61572265625 368.1417541503906 321.80914306640625 368.021728515625 322.50732421875 C 369.5215759277344 322.2628173828125 370.6336364746094 322.6669006347656 371.721435546875 322.76141357421875 C 372.18695068359375 323.53814697265625 373.7425231933594 323.09112548828125 374.333984375 323.49554443359375 C 375.287353515625 323.8006286621094 376.50433349609375 323.85723876953125 376.7665710449219 324.0472106933594 C 377.9989013671875 324.37432861328125 380.3752746582031 324.6523742675781 382.16680908203125 324.816162109375 C 384.13726806640625 325.03759765625 386.3925476074219 325.5260009765625 390.0108947753906 325.8312683105469 C 392.8684387207031 325.43914794921875 393.808349609375 326.9120178222656 392.89361572265625 329.7905578613281 C 388.32183837890625 328.6222839355469 385.8764953613281 329.12188720703125 383.5481262207031 328.7472839355469 C 381.4223937988281 328.5635986328125 379.5025329589844 327.8119201660156 378.1609191894531 328.05841064453125 C 376.5422668457031 327.9701843261719 375.05419921875 327.8861389160156 374.3251037597656 327.53900146484375 C 373.6165771484375 327.51751708984375 372.45648193359375 327.2516174316406 371.6006774902344 326.66754150390625 C 370.90167236328125 327.0436096191406 370.3094787597656 327.48687744140625 369.61529541015625 326.9708251953125 C 369.4419860839844 326.8846740722656 368.90679931640625 327.0975341796875 368.5000305175781 326.57928466796875 C 368.1917724609375 326.74554443359375 366.5478820800781 326.9814758300781 365.5880432128906 325.83233642578125 C 365.2113037109375 326.44976806640625 363.03076171875 325.6810607910156 361.3472595214844 325.3358154296875 C 359.5251159667969 325.0187072753906 357.16082763671875 324.8642578125 355.7377014160156 324.18402099609375 C 354.3727722167969 324.1462707519531 353.2218017578125 323.5798034667969 352.3563537597656 323.37384033203125 C 351.50567626953125 323.17803955078125 350.5228271484375 323.1572570800781 350.44757080078125 322.5207824707031 C 349.9566955566406 322.5511169433594 348.8815002441406 322.2117614746094 347.8894348144531 322.126953125 C 347.35504150390625 321.3768005371094 346.1396179199219 321.4022521972656 345.8600158691406 320.8839111328125 C 345.6515808105469 318.88909912109375 344.50054931640625 318.56219482421875 348.6937561035156 315.33612060546875" stroke-width="0.0" fill="rgb(78, 36, 23)" opacity="0.99990946" stroke="rgb(3, 24, 73)" stroke-opacity="0.29510662" stroke-linecap="round" stroke-linejoin="round"/>
    <path d="M 371.58038330078125 276.3193054199219 C 371.2069396972656 277.5911865234375 370.87762451171875 278.7861328125 370.6435546875 279.957763671875 C 370.5317077636719 281.0418701171875 370.4217834472656 281.9800109863281 370.3704528808594 282.7576904296875 C 370.3144226074219 283.3276672363281 370.3844299316406 283.7194519042969 370.62786865234375 283.94573974609375 C 371.0882263183594 284.0811462402344 371.80780029296875 284.1466979980469 372.7184753417969 284.2364196777344 C 373.7182922363281 284.4564208984375 374.6884765625 284.8327941894531 375.52532958984375 285.4195861816406 C 376.1326599121094 286.2173156738281 376.5494079589844 287.0975646972656 376.8043212890625 287.984375 C 376.9707946777344 288.8208312988281 377.141845703125 289.5265808105469 377.3502197265625 290.0524597167969 C 377.7122802734375 290.3872985839844 378.30279541015625 290.5114440917969 379.1188049316406 290.5185241699219 C 380.1463928222656 290.5234069824219 381.3727111816406 290.62493896484375 382.67205810546875 290.9189453125 C 383.9382629394531 291.4292907714844 385.115234375 292.07220458984375 386.1012878417969 292.9710388183594 C 386.8289489746094 294.10675048828125 387.286376953125 295.4056091308594 387.4391174316406 296.84814453125 C 387.22955322265625 298.32330322265625 386.76348876953125 299.6881103515625 386.21197509765625 300.8980407714844 C 385.6172790527344 301.9497985839844 385.0773010253906 302.7680969238281 384.69891357421875 303.326171875 C 384.5929260253906 303.646728515625 384.7724609375 303.709716796875 385.2458190917969 303.4447326660156 C 385.9349060058594 303.0018310546875 386.8048095703125 302.4173278808594 387.8900146484375 301.833984375 C 389.1159362792969 301.43414306640625 390.42315673828125 301.1970520019531 391.8095703125 301.09832763671875 C 393.2322082519531 301.1061706542969 394.6129455566406 301.24884033203125 395.9373474121094 301.5313720703125 C 397.17718505859375 301.99945068359375 398.2972106933594 302.5787353515625 399.2103271484375 303.184326171875 C 399.8902587890625 303.81488037109375 400.359130859375 304.4676208496094 400.5962219238281 305.10272216796875 C 400.6256103515625 305.8104248046875 400.56695556640625 306.55950927734375 400.3848571777344 307.34686279296875 C 400.1885681152344 308.1721496582031 399.9548645019531 309.0277404785156 399.8018493652344 309.8948669433594 C 399.75982666015625 310.81158447265625 399.81915283203125 311.8177490234375 399.9601135253906 312.8991394042969 C 400.10296630859375 314.07843017578125 400.1559143066406 315.3544006347656 400.0271911621094 316.69769287109375 C 399.6905212402344 318.0268249511719 399.1471862792969 319.3062438964844 398.3171691894531 320.44537353515625 C 397.1837463378906 321.2809143066406 395.8634033203125 321.7873229980469 394.4554748535156 322.0047302246094 C 393.05328369140625 321.98370361328125 391.7395324707031 321.75201416015625 390.5745544433594 321.3499755859375 C 389.60748291015625 320.8580322265625 388.8017272949219 320.3694152832031 388.11285400390625 320.034912109375 C 387.4934997558594 319.9512939453125 386.8173828125 320.18707275390625 386.0133972167969 320.6108093261719 C 385.0794677734375 321.07440185546875 384.011474609375 321.47265625 382.86712646484375 321.71832275390625 C 381.70794677734375 321.8152770996094 380.5546875 321.79803466796875 379.48602294921875 321.6976318359375 C 378.500244140625 321.53704833984375 377.60369873046875 321.30560302734375 376.7751159667969 321.0693054199219 C 376.01129150390625 320.8110046386719 375.19537353515625 320.59912109375 374.32666015625 320.4569091796875 C 373.4049987792969 320.3211669921875 372.4549255371094 320.10443115234375 371.53076171875 319.8140563964844 C 370.6754455566406 319.45074462890625 369.9046630859375 318.9533386230469 369.2312927246094 318.3183898925781 C 368.68060302734375 317.616455078125 368.18121337890625 316.7808532714844 367.7014465332031 315.9792785644531 C 367.2397766113281 315.16595458984375 366.7347412109375 314.36676025390625 366.2237243652344 313.54754638671875 C 365.7992248535156 312.6778259277344 365.5390930175781 311.780517578125 365.487548828125 310.8659973144531 C 365.644775390625 309.984619140625 366.0266418457031 309.1802978515625 366.5219421386719 308.4496765136719 C 366.98876953125 307.8410339355469 367.3024597167969 307.31353759765625 367.3572692871094 306.8039245605469 C 367.1017150878906 306.3077392578125 366.63848876953125 305.7392578125 366.0870666503906 305.0211181640625 C 365.5077209472656 304.1365966796875 364.9825439453125 303.1139221191406 364.5810852050781 301.94964599609375 C 364.3045959472656 300.672119140625 364.0921325683594 299.37884521484375 363.9618835449219 298.1007080078125 C 363.96905517578125 296.8111877441406 364.0792541503906 295.57110595703125 364.2970886230469 294.3833923339844 C 364.6725769042969 293.24163818359375 365.2454833984375 292.19488525390625 365.9979553222656 291.2601013183594 C 366.9263610839844 290.427001953125 367.9781799316406 289.7066955566406 369.0295104980469 289.1097717285156 C 370.0400085449219 288.6002502441406 370.98004150390625 288.2148132324219 371.7180480957031 287.9705810546875 C 372.2469482421875 287.8522033691406 372.4453430175781 287.87469482421875 372.320556640625 288.0184326171875 C 371.88189697265625 288.2177429199219 371.1217956542969 288.43756103515625 370.114990234375 288.6336669921875 C 368.9687194824219 288.75238037109375 367.76739501953125 288.7230529785156 366.5977783203125 288.46923828125 C 365.6140441894531 287.9127502441406 364.88006591796875 287.1103820800781 364.4794921875 286.1044616699219 C 364.391357421875 284.93414306640625 364.5408935546875 283.69873046875 364.8829650878906 282.4149169921875 C 365.3113098144531 281.0621337890625 365.72906494140625 279.655517578125 366.1424865722656 278.2638854980469 C 366.469482421875 276.8362731933594 366.7851257324219 275.3722839355469 371.58038330078125 276.3193054199219" stroke-width="0.0" fill="rgb(253, 189, 101)" opacity="1.0" stroke="rgb(21, 145, 12)" stroke-opacity="0.08709735" stroke-linecap="round" stroke-linejoin="round"/>
    <path d="M 342.92083740234375 143.0579376220703 C 344.0600891113281 143.31900024414062 345.17962646484375 143.5541229248047 346.2590637207031 143.82489013671875 C 347.29022216796875 144.10794067382812 348.24310302734375 144.40113830566406 349.06842041015625 144.782958984375 C 349.7652282714844 145.1907196044922 350.34814453125 145.7169647216797 350.75958251953125 146.3353271484375 C 351.0681457519531 147.04672241210938 351.2713928222656 147.85324096679688 351.370849609375 148.75596618652344 C 351.4021301269531 149.72853088378906 351.3962097167969 150.74305725097656 351.336181640625 151.80555725097656 C 351.22027587890625 152.8781280517578 351.0954284667969 153.93777465820312 350.9775085449219 154.9986114501953 C 350.826904296875 156.043701171875 350.6559143066406 157.0468292236328 350.5216369628906 158.03221130371094 C 350.32623291015625 159.0183563232422 350.17864990234375 159.9888916015625 350.05926513671875 160.9501495361328 C 349.9517822265625 161.94619750976562 349.88519287109375 162.9720458984375 349.8742370605469 163.99461364746094 C 349.91168212890625 165.03750610351562 349.98895263671875 166.12269592285156 350.10638427734375 167.20370483398438 C 350.21600341796875 168.25387573242188 350.284912109375 169.29058837890625 350.3026428222656 170.28509521484375 C 350.2310791015625 171.19436645507812 350.0493469238281 172.03802490234375 349.7394714355469 172.77362060546875 C 349.32647705078125 173.36288452148438 348.76483154296875 173.8250732421875 348.0806579589844 174.103271484375 C 347.27490234375 174.25030517578125 346.3642272949219 174.29098510742188 345.36322021484375 174.18701171875 C 344.2754821777344 174.02171325683594 343.13031005859375 173.84893798828125 341.96881103515625 173.71046447753906 C 340.8214111328125 173.6498260498047 339.71173095703125 173.75433349609375 338.67633056640625 174.07452392578125 C 337.7503967285156 174.64479064941406 336.9490966796875 175.48509216308594 336.2596740722656 176.60528564453125 C 335.7013244628906 177.99095153808594 335.2763366699219 179.6071014404297 334.95001220703125 181.42791748046875 C 334.7372741699219 183.41368103027344 334.5805969238281 185.51190185546875 334.5023498535156 187.7025146484375 C 334.4945983886719 189.95162963867188 334.4972839355469 192.21119689941406 334.5057678222656 194.44667053222656 C 334.4686279296875 196.5948944091797 334.3784484863281 198.6250457763672 334.1582336425781 200.48971557617188 C 333.7903137207031 202.12799072265625 333.2447204589844 203.54373168945312 332.5110778808594 204.7016143798828 C 331.5605773925781 205.54234313964844 330.3793029785156 206.15122985839844 328.9724426269531 206.48690795898438 C 327.3500671386719 206.60389709472656 325.5291748046875 206.5630340576172 323.5215759277344 206.40821838378906 C 321.3636169433594 206.150146484375 319.1081237792969 205.873779296875 316.8066711425781 205.6566619873047 C 314.5561828613281 205.4641571044922 312.4071350097656 205.4427947998047 310.40789794921875 205.60206604003906 C 308.6202392578125 205.9564208984375 307.1243591308594 206.5777130126953 305.9229736328125 207.4654083251953 C 304.9898986816406 208.59555053710938 304.33416748046875 209.94815063476562 303.9155578613281 211.50099182128906 C 303.6272888183594 213.19094848632812 303.3851013183594 214.91030883789062 303.2027893066406 216.5614013671875 C 302.9010009765625 218.1389923095703 302.40203857421875 219.46107482910156 301.67999267578125 220.54098510742188 C 300.5972595214844 221.37461853027344 299.2283935546875 221.90533447265625 297.57769775390625 222.2397003173828 C 295.6561279296875 222.39404296875 293.5615539550781 222.4210968017578 291.3656311035156 222.4335479736328 C 289.1034851074219 222.4471893310547 286.84588623046875 222.4626922607422 284.642333984375 222.52755737304688 C 282.528564453125 222.56533813476562 280.51788330078125 222.5195770263672 278.6454772949219 222.33297729492188 C 276.94256591796875 221.90736389160156 275.4236755371094 221.19154357910156 274.11187744140625 220.22244262695312 C 273.0563049316406 218.9791259765625 272.3573913574219 217.50843811035156 271.9985046386719 215.89849853515625 C 272.0235595703125 214.2668914794922 272.4510498046875 212.68638610839844 273.2586364746094 211.2921142578125 C 274.446533203125 210.1244659423828 275.8899230957031 209.21751403808594 277.5298767089844 208.6033935546875 C 279.2312316894531 208.19371032714844 280.8534851074219 207.91384887695312 282.3219299316406 207.6300506591797 C 283.5406799316406 207.2595672607422 284.4367980957031 206.6548614501953 285.0208740234375 205.8160858154297 C 285.3194274902344 204.6719207763672 285.3134460449219 203.30075073242188 285.1807861328125 201.71121215820312 C 284.9727783203125 200.02000427246094 284.819580078125 198.28562927246094 284.8233947753906 196.5253143310547 C 284.9918212890625 194.794921875 285.31829833984375 193.04335021972656 285.8213806152344 191.28700256347656 C 286.36077880859375 189.53578186035156 286.9499816894531 187.7810821533203 287.4666442871094 186.03179931640625 C 287.96502685546875 184.3269805908203 288.5019226074219 182.727783203125 289.1072998046875 181.25482177734375 C 289.8531188964844 180.01560974121094 290.8529052734375 178.9805450439453 292.0780029296875 178.118408203125 C 293.52911376953125 177.4764862060547 295.2053527832031 176.94912719726562 297.0023498535156 176.45106506347656 C 298.81817626953125 175.9157257080078 300.55047607421875 175.2704315185547 302.1226501464844 174.42428588867188 C 303.4114990234375 173.33387756347656 304.4210510253906 172.0117645263672 305.08538818359375 170.4266815185547 C 305.46209716796875 168.57244873046875 305.6048889160156 166.55081176757812 305.52838134765625 164.3934326171875 C 305.3108825683594 162.1320343017578 305.046630859375 159.8726806640625 304.8017578125 157.65480041503906 C 304.6221618652344 155.51414489746094 304.5840759277344 153.50401306152344 304.72845458984375 151.65789794921875 C 305.0606994628906 150.0021514892578 305.59771728515625 148.54722595214844 306.38262939453125 147.31703186035156 C 307.395263671875 146.33058166503906 308.6142883300781 145.57237243652344 310.0417175292969 145.0218963623047 C 311.66680908203125 144.6770477294922 313.4453430175781 144.52163696289062 315.3468017578125 144.5042266845703 C 317.33746337890625 144.5754852294922 319.3809509277344 144.704833984375 321.4615173339844 144.84689331054688 C 323.5569763183594 144.9526824951172 325.6453552246094 145.0546417236328 327.7152404785156 145.0977783203125 C 329.7475280761719 145.050537109375 331.7652893066406 145.0010528564453 333.7921447753906 144.8831024169922 C 335.79742431640625 144.71551513671875 337.8041076660156 144.5514678955078 339.8440856933594 144.37242126464844 C 341.8585205078125 144.1842041015625 343.867431640625 144.00021362304688 342.92083740234375 143.0579376220703" stroke-width="0.0" fill="rgb(253, 188, 102)" opacity="0.9996125" stroke="rgb(205, 61, 249)" stroke-opacity="0.1323128" stroke-linecap="round" stroke-linejoin="round"/>
  </g>
</svg>
