<?xml version="1.0" ?>
<svg xmlns="http://www.w3.org/2000/svg" version="1.1" width="1047" height="584">
  <defs/>
  <g>
    <path d="M 805.6961669921875 204.9479217529297 C 802.1856079101562 201.8394317626953 798.742431640625 198.9972381591797 795.503173828125 196.77285766601562 C 792.77001953125 195.48403930664062 791.034423828125 195.55923461914062 790.8955078125 197.4111785888672 C 792.9012451171875 201.35208129882812 797.5468139648438 207.6836700439453 805.2486572265625 216.56430053710938 C 816.2518310546875 227.7602996826172 828.937255859375 240.57835388183594 841.0091552734375 252.9458770751953 C 852.6849975585938 263.6656188964844 864.6820678710938 273.93621826171875 877.761474609375 285.282958984375 C 891.9234619140625 298.76251220703125 905.1565551757812 313.4388427734375 914.8790283203125 326.3935852050781 C 919.8745727539062 333.7253723144531 923.6575927734375 332.4730529785156 930.1610107421875 323.07867431640625 C 943.246337890625 308.6896057128906 962.611572265625 294.0497131347656 985.5966796875 283.4980773925781 C 1008.6102905273438 280.1700744628906 1029.791015625 283.7535400390625 1046.46484375 291.7938232421875 C 1054.5302734375 304.1019592285156 1057.9010009765625 319.3000183105469 1058.5439453125 336.59393310546875 C 1057.9034423828125 355.3514099121094 1057.286865234375 375.15313720703125 1056.6932373046875 395.875 C 1056.2208251953125 417.39801025390625 1056.1983642578125 439.4876708984375 1056.7032470703125 461.87469482421875 C 1057.7225341796875 484.2099914550781 1059.067138671875 506.0840759277344 1060.4312744140625 526.9945068359375 C 1061.438232421875 546.3453369140625 1061.4896240234375 563.4918212890625 1059.7698974609375 577.7650146484375 C 1055.3966064453125 588.5215454101562 1047.6981201171875 595.25732421875 1036.2451171875 597.9896850585938 C 1021.353759765625 597.6039428710938 1003.8056030273438 595.2951049804688 984.395751953125 592.0599975585938 C 963.9044799804688 588.7203369140625 943.0462036132812 585.8114624023438 922.4002075195312 583.5953369140625 C 902.3575439453125 582.1337280273438 883.1334838867188 581.365966796875 864.7770385742188 581.14013671875 C 847.2071533203125 581.2807006835938 830.2376098632812 581.6148071289062 813.6437377929688 581.9992065429688 C 797.2064819335938 582.3609619140625 780.745361328125 582.64306640625 764.171875 582.8170166015625 C 747.4430541992188 582.8724365234375 730.5485229492188 582.8478393554688 713.5040283203125 582.791748046875 C 696.3525390625 582.7385864257812 679.1541748046875 582.6920776367188 661.976318359375 582.6714477539062 C 644.8635864257812 582.6842041015625 627.8319091796875 582.6937866210938 610.8731079101562 582.69873046875 C 593.948486328125 582.71533203125 577.0084228515625 582.713623046875 560.042724609375 582.702392578125 C 543.0447387695312 582.712646484375 526.0185546875 582.7156372070312 508.9902038574219 582.7090454101562 C 491.9671630859375 582.7197265625 474.9530029296875 582.71826171875 457.9523620605469 582.6953125 C 440.969970703125 582.687255859375 424.0052795410156 582.6769409179688 407.043212890625 582.6643676757812 C 390.0608825683594 582.6902465820312 373.0401306152344 582.7439575195312 355.9915466308594 582.814453125 C 338.9282531738281 582.9014282226562 321.8709411621094 582.9486694335938 304.8554382324219 582.890869140625 C 287.92022705078125 582.702880859375 271.1114196777344 582.3760375976562 254.46421813964844 581.9229736328125 C 237.91221618652344 581.4097900390625 221.36886596679688 580.9739379882812 204.67538452148438 580.7699584960938 C 187.6615447998047 580.9588623046875 170.18675231933594 581.7012329101562 152.1206512451172 583.1277465820312 C 133.40496826171875 585.2861938476562 114.10501098632812 588.1174926757812 94.39706420898438 591.4201049804688 C 74.61067962646484 594.822265625 55.25813674926758 597.768798828125 36.98844909667969 599.5679321289062 C 20.5946044921875 599.429931640625 6.96372127532959 596.4608764648438 -3.0487873554229736 589.5942993164062 C -8.62301254272461 578.1184692382812 -10.59542179107666 563.1179809570312 -10.264790534973145 545.7345581054688 C -9.55891227722168 526.9189453125 -9.056984901428223 507.33184814453125 -8.79560661315918 487.4380798339844 C -8.738609313964844 467.46893310546875 -8.772056579589844 447.43609619140625 -8.648576736450195 427.246826171875 C -8.51667308807373 406.869140625 -8.807689666748047 386.4553527832031 -9.96009635925293 366.2793273925781 C -12.385818481445312 346.6958923339844 -15.346660614013672 328.14398193359375 -16.913654327392578 311.142578125 C -15.148443222045898 296.2362060546875 -8.33180046081543 283.9531555175781 4.158859729766846 274.56829833984375 C 22.185998916625977 268.380859375 43.36390686035156 264.5345764160156 64.72869110107422 261.775634765625 C 83.51632690429688 258.5589599609375 99.74104309082031 255.4717559814453 114.0798110961914 253.3098907470703 C 127.51651763916016 252.97300720214844 141.45924377441406 254.65760803222656 157.34014892578125 258.47503662109375 C 176.57872009277344 264.2395324707031 197.3661346435547 269.8229675292969 217.5731964111328 274.2375183105469 C 235.48744201660156 277.1549987792969 250.0799560546875 278.8354797363281 261.1103210449219 279.5550842285156 C 269.81011962890625 279.4745788574219 277.8100891113281 278.2755432128906 286.8601379394531 275.96405029296875 C 298.3816833496094 272.8836975097656 312.7497253417969 269.3991394042969 329.8255920410156 265.6466064453125 C 349.07501220703125 261.54083251953125 369.4630432128906 257.32513427734375 390.0354309082031 253.8013916015625 C 410.3163146972656 252.1775665283203 430.2915954589844 253.50169372558594 450.0842590332031 258.06243896484375 C 469.8017578125 265.1140441894531 489.36151123046875 273.39715576171875 508.4952392578125 281.7508239746094 C 526.6417236328125 289.5498046875 542.9641723632812 297.1927490234375 556.8390502929688 305.2590637207031 C 567.9511108398438 314.0846862792969 576.8665771484375 323.11370849609375 584.5429077148438 331.7151794433594 C 592.278076171875 339.09417724609375 600.9891357421875 344.28228759765625 611.5167236328125 346.490234375 C 624.4151000976562 344.9842834472656 639.8180541992188 339.6724548339844 657.5259399414062 330.7534484863281 C 676.8250732421875 318.8273620605469 695.832275390625 304.7348937988281 712.7224731445312 289.841552734375 C 726.1842651367188 275.9808044433594 735.6825561523438 264.23052978515625 741.1102294921875 255.55125427246094 C 743.3214721679688 250.5118408203125 744.012451171875 248.70401000976562 744.9191284179688 248.54173278808594 C 747.41357421875 248.07484436035156 752.0352172851562 245.50833129882812 758.7994384765625 239.83059692382812 C 767.4308471679688 231.14794921875 776.7635498046875 221.14053344726562 805.6961669921875 204.9479217529297" stroke-width="0.0" fill="rgb(165, 83, 156)" opacity="0.99999434" stroke="rgb(67, 101, 93)" stroke-opacity="0.60733277" stroke-linecap="round" stroke-linejoin="round"/>
    <path d="M 9.8020601272583 -12.793876647949219 C 36.23324203491211 -12.17769718170166 62.33921432495117 -11.657073020935059 87.57637023925781 -11.433895111083984 C 111.39642333984375 -10.648194313049316 133.73562622070312 -9.412896156311035 154.86810302734375 -8.48705005645752 C 175.09719848632812 -8.827489852905273 194.7179718017578 -9.868658065795898 214.05967712402344 -10.742080688476562 C 233.46707153320312 -10.96235179901123 253.26368713378906 -10.827960968017578 273.6522521972656 -10.437772750854492 C 294.73712158203125 -9.876748085021973 316.5481872558594 -9.662069320678711 339.05364990234375 -9.895223617553711 C 362.1695556640625 -10.449613571166992 385.7002868652344 -11.075177192687988 409.43896484375 -11.355030059814453 C 433.1386413574219 -10.80901050567627 456.5259094238281 -9.917319297790527 479.42742919921875 -9.342219352722168 C 501.7853088378906 -9.46139144897461 523.6608276367188 -9.383370399475098 545.1985473632812 -8.83265495300293 C 566.580810546875 -8.264850616455078 587.9623413085938 -8.047724723815918 609.4676513671875 -8.388725280761719 C 631.16748046875 -9.317963600158691 653.0255126953125 -10.258002281188965 674.9539794921875 -10.739734649658203 C 696.8013916015625 -10.704113006591797 718.421142578125 -10.391279220581055 739.6976928710938 -9.991663932800293 C 760.6138916015625 -9.838889122009277 781.1964721679688 -9.721986770629883 801.5283203125 -9.253533363342285 C 821.8923950195312 -8.432150840759277 842.6563110351562 -8.593701362609863 864.1929321289062 -9.748528480529785 C 886.8141479492188 -10.865074157714844 910.7017211914062 -11.488754272460938 935.8336181640625 -12.064850807189941 C 961.6588745117188 -12.974607467651367 987.060546875 -13.672735214233398 1010.472900390625 -13.051434516906738 C 1030.46044921875 -9.761491775512695 1045.7701416015625 -2.599766492843628 1055.5489501953125 9.184771537780762 C 1059.486328125 25.802488327026367 1059.584228515625 46.77349090576172 1058.11083984375 71.4469985961914 C 1056.8177490234375 99.10481262207031 1056.36865234375 129.03224182128906 1056.9879150390625 160.50225830078125 C 1058.3160400390625 192.520263671875 1059.206787109375 223.56224060058594 1058.3365478515625 251.77284240722656 C 1054.4722900390625 275.3595886230469 1047.20556640625 293.0502624511719 1036.849365234375 304.0115661621094 C 1024.453125 305.7383728027344 1009.5418701171875 302.6504821777344 993.0264892578125 301.8403625488281 C 977.1885375976562 311.0715637207031 958.7951049804688 325.4816589355469 935.4609375 336.7291564941406 C 908.1903076171875 337.6136169433594 880.3222045898438 326.83367919921875 856.2887573242188 307.6167297363281 C 840.9259643554688 286.5845947265625 836.3756713867188 268.17291259765625 843.5120849609375 256.6783142089844 C 862.9014892578125 255.7910614013672 883.1058959960938 256.5309143066406 894.8939208984375 256.1412658691406 C 892.6757202148438 255.97305297851562 879.2402954101562 255.66046142578125 859.4158935546875 257.7551574707031 C 838.9883422851562 258.2738037109375 822.1843872070312 248.1508331298828 809.2612915039062 232.01528930664062 C 798.5046997070312 219.22647094726562 789.0413818359375 214.68960571289062 779.1339721679688 221.49853515625 C 765.0607299804688 235.80467224121094 749.4442749023438 252.58396911621094 733.9545288085938 264.5883483886719 C 716.7528076171875 262.53521728515625 701.7411499023438 255.9288330078125 692.9388427734375 252.2351531982422 C 693.2242431640625 252.55758666992188 702.2962646484375 256.2994079589844 717.317138671875 260.4556579589844 C 730.640625 264.4013366699219 733.6870727539062 273.822265625 723.6954345703125 289.0003356933594 C 702.2644653320312 307.5743713378906 673.88818359375 326.2733459472656 643.6008911132812 341.189453125 C 616.15380859375 348.7480773925781 594.4363403320312 348.1643981933594 580.3484497070312 341.3453063964844 C 573.5446166992188 332.5400085449219 571.82421875 325.77593994140625 572.2162475585938 323.12237548828125 C 571.4693603515625 322.4323425292969 567.5553588867188 320.8125305175781 559.4730834960938 316.6291809082031 C 546.9242553710938 309.0915832519531 531.257568359375 299.96563720703125 514.4606323242188 292.0001220703125 C 497.9372863769531 286.7575988769531 482.0242614746094 283.779052734375 466.4295349121094 281.7602233886719 C 450.50994873046875 279.38421630859375 433.46173095703125 276.9529724121094 414.4565124511719 275.7184753417969 C 392.80712890625 276.9004821777344 368.5072326660156 280.9614562988281 342.666015625 287.4446105957031 C 316.6619873046875 294.73162841796875 291.1541442871094 300.32177734375 266.0462646484375 301.5491943359375 C 241.04840087890625 296.7527160644531 215.92054748535156 287.4510498046875 190.92660522460938 275.6327819824219 C 167.42098999023438 264.37591552734375 147.23435974121094 256.78387451171875 131.79965209960938 254.0880126953125 C 120.86589050292969 254.6156005859375 112.83826446533203 256.7702941894531 105.31800842285156 259.262451171875 C 95.67561340332031 261.4385681152344 81.85592651367188 264.16082763671875 63.47092056274414 268.5074462890625 C 41.475955963134766 275.262939453125 19.566909790039062 281.70556640625 2.365088701248169 280.35394287109375 C -7.187742710113525 263.696044921875 -11.07725715637207 235.90078735351562 -12.36313247680664 201.86141967773438 C -14.436997413635254 165.72433471679688 -16.285682678222656 131.15638732910156 -15.841752052307129 101.33436584472656 C -11.029638290405273 78.3937759399414 0.1256793886423111 63.912635803222656 17.847522735595703 57.445674896240234 C 39.771053314208984 56.541053771972656 63.11700439453125 57.6916618347168 85.39664459228516 59.31990051269531 C 105.10543060302734 59.09803009033203 120.86526489257812 59.199241638183594 132.66017150878906 59.3240852355957 C 141.75888061523438 57.81229782104492 150.65245056152344 56.43001937866211 162.50343322753906 55.10647964477539 C 178.8663330078125 52.986961364746094 199.17320251464844 52.48239517211914 221.79315185546875 53.919410705566406 C 244.5021209716797 55.865028381347656 263.9474792480469 59.37162780761719 276.6231384277344 62.50250244140625 C 279.3544921875 62.93010711669922 271.4500427246094 61.17774200439453 254.68984985351562 57.93421173095703 C 231.9284210205078 54.03670120239258 206.13619995117188 52.29623794555664 179.9833221435547 53.40687942504883 C 155.70440673828125 55.42167282104492 134.10775756835938 58.63041305541992 115.362060546875 62.57674026489258 C 98.41805267333984 63.10287094116211 81.824951171875 62.45005416870117 64.65449523925781 62.99759292602539 C 46.61927032470703 64.99494934082031 27.04642105102539 63.173492431640625 5.802150249481201 59.72459030151367 C -16.601314544677734 56.468658447265625 -39.426456451416016 52.23477554321289 9.8020601272583 -12.793876647949219" stroke-width="0.0" fill="rgb(230, 154, 203)" opacity="0.9997914" stroke="rgb(207, 203, 146)" stroke-opacity="0.37334898" stroke-linecap="round" stroke-linejoin="round"/>
    <path d="M 155.43284606933594 348.83642578125 C 168.64260864257812 368.6792297363281 179.7440948486328 387.31964111328125 187.32537841796875 403.8636474609375 C 190.71234130859375 417.7487487792969 191.35281372070312 428.9536437988281 190.03250122070312 437.94970703125 C 186.79287719726562 445.2103271484375 181.63755798339844 451.2747802734375 175.09046936035156 456.4155578613281 C 168.18096923828125 460.6713562011719 162.19375610351562 463.947021484375 158.27381896972656 466.201416015625 C 156.81182861328125 467.463623046875 159.3892364501953 467.8489074707031 167.47830200195312 467.6935119628906 C 182.03138732910156 467.422119140625 200.77418518066406 468.2964172363281 221.18434143066406 471.4440612792969 C 240.68113708496094 477.817626953125 258.7427978515625 486.4969177246094 276.35064697265625 495.8193359375 C 294.6887512207031 505.029052734375 313.6050109863281 514.1300048828125 332.68890380859375 523.0275268554688 C 351.4352722167969 531.6512451171875 369.50006103515625 539.3866577148438 387.2724914550781 544.3558959960938 C 405.367919921875 544.3577880859375 423.69805908203125 540.44140625 442.0830383300781 534.5397338867188 C 460.3043212890625 528.8372802734375 478.16644287109375 525.5729370117188 495.5089111328125 526.8639526367188 C 512.176513671875 532.7080078125 528.4028930664062 539.3514404296875 544.50244140625 543.0770874023438 C 560.8430786132812 540.2471923828125 578.061279296875 530.1314086914062 596.8782958984375 514.9774169921875 C 617.45166015625 499.4986877441406 638.2158203125 488.8720703125 657.5283813476562 487.82159423828125 C 673.869140625 497.54229736328125 687.4864501953125 512.2969360351562 698.994873046875 526.3369750976562 C 709.2902221679688 534.0859375 720.5809936523438 534.2196044921875 735.2864990234375 529.6514892578125 C 755.1312866210938 525.9948120117188 775.8869018554688 526.3135375976562 792.7933959960938 530.3228759765625 C 801.0595703125 532.6243286132812 802.7076416015625 531.1917114257812 800.1173706054688 525.4766845703125 C 795.8062133789062 515.567626953125 792.5228881835938 501.9288330078125 792.9424438476562 485.9958190917969 C 798.8634033203125 470.5319519042969 810.4994506835938 458.8237609863281 824.7891235351562 454.4591369628906 C 836.6198120117188 459.9755859375 841.6553344726562 472.47100830078125 840.6583862304688 488.5411682128906 C 836.2673950195312 505.3283386230469 831.3388671875 520.357666015625 828.8138427734375 531.534912109375 C 831.3215942382812 537.5140380859375 838.0867309570312 537.8304443359375 848.139892578125 533.2053833007812 C 860.5460815429688 525.032958984375 874.7901000976562 516.4532470703125 890.4049072265625 510.6368408203125 C 906.918212890625 510.5215759277344 924.251708984375 515.0698852539062 942.6181030273438 522.4036865234375 C 962.7628173828125 529.8236083984375 985.337158203125 535.89013671875 1009.216064453125 542.3651733398438 C 1032.2637939453125 551.6427612304688 1050.408203125 563.1732177734375 1060.44091796875 575.4666748046875 C 1060.6319580078125 586.1422729492188 1052.0430908203125 593.1329345703125 1037.2579345703125 595.7705078125 C 1018.0892944335938 594.7664184570312 996.0029296875 593.9315185546875 972.2623901367188 594.0263061523438 C 947.8810424804688 594.0918579101562 923.6884765625 594.0846557617188 900.2431030273438 594.0791625976562 C 877.8316650390625 594.0791625976562 856.5706787109375 594.0794067382812 836.4118041992188 594.0794067382812 C 817.140869140625 594.0794067382812 798.483154296875 594.0794067382812 780.1770629882812 594.0794067382812 C 761.982177734375 594.0794067382812 743.6914672851562 594.0794067382812 725.1853637695312 594.0794067382812 C 706.4384765625 594.0794067382812 687.4945068359375 594.0794067382812 668.4149169921875 594.0794067382812 C 649.2522583007812 594.0794067382812 630.0734252929688 594.0794067382812 610.9348754882812 594.0794067382812 C 591.8643798828125 594.0794067382812 572.8645629882812 594.0794067382812 553.9080810546875 594.0794067382812 C 534.9719848632812 594.0794067382812 516.0372924804688 594.0794067382812 497.0870056152344 594.0794067382812 C 478.10772705078125 594.0794067382812 459.0879211425781 594.0794067382812 440.0345153808594 594.0794067382812 C 420.9515380859375 594.0794067382812 401.84130859375 594.0794067382812 382.7264709472656 594.0794067382812 C 363.65240478515625 594.0794067382812 344.6756286621094 594.0794067382812 325.83892822265625 594.0794067382812 C 307.1582336425781 594.0794067382812 288.61614990234375 594.0794067382812 270.1534423828125 594.0794067382812 C 251.65655517578125 594.0794067382812 232.9585418701172 594.0794067382812 213.8662567138672 594.0794067382812 C 194.19541931152344 594.0794067382812 173.80845642089844 594.079345703125 152.6492462158203 594.0794677734375 C 130.74842834472656 594.0823364257812 108.28824615478516 594.0792236328125 85.67875671386719 594.0471801757812 C 63.499542236328125 594.1677856445312 42.4771728515625 594.8396606445312 23.535890579223633 594.21484375 C 7.721797943115234 588.2784423828125 -3.9505200386047363 577.7542724609375 -10.462862968444824 563.876953125 C -10.99875545501709 548.2875366210938 -5.776960849761963 532.79833984375 3.8209147453308105 519.14794921875 C 15.773029327392578 508.78863525390625 27.950944900512695 502.4166564941406 38.30337905883789 499.30694580078125 C 44.91521072387695 497.64056396484375 46.1503791809082 494.6549987792969 42.345462799072266 488.6060791015625 C 36.24280548095703 478.9305725097656 31.275346755981445 466.12274169921875 30.727214813232422 451.6768493652344 C 37.608829498291016 437.77923583984375 51.83910369873047 428.0202941894531 68.60794067382812 427.2630310058594 C 81.33573150634766 437.88433837890625 86.44293212890625 455.2107849121094 84.85375213623047 474.03338623046875 C 79.40657043457031 489.8192443847656 73.73416137695312 499.8908996582031 71.47259521484375 503.75177001953125 C 75.89920043945312 502.8601989746094 85.67931365966797 498.9256896972656 99.19811248779297 493.6445617675781 C 114.36946868896484 486.88128662109375 127.45726776123047 480.35198974609375 134.6190185546875 474.327392578125 C 132.49301147460938 468.41546630859375 124.54670715332031 462.1237487792969 114.81787872314453 454.9369201660156 C 106.85627746582031 446.3406982421875 102.6765365600586 436.9814147949219 101.77852630615234 428.24639892578125 C 102.49391174316406 421.52838134765625 103.77172088623047 415.8375244140625 105.58171844482422 409.4319152832031 C 108.86446380615234 400.3753967285156 114.35066986083984 388.3519287109375 122.68303680419922 373.4330139160156 C 133.88755798339844 356.0614013671875 146.41696166992188 337.53656005859375 155.43284606933594 348.83642578125" stroke-width="0.0" fill="rgb(26, 8, 24)" opacity="0.9999593" stroke="rgb(167, 101, 120)" stroke-opacity="0.40031233" stroke-linecap="round" stroke-linejoin="round"/>
    <path d="M 199.30593872070312 391.8681945800781 C 205.18450927734375 391.00738525390625 210.48333740234375 390.1826477050781 214.67112731933594 389.4207458496094 C 217.5182342529297 388.7543029785156 219.2149200439453 388.24383544921875 220.02090454101562 387.9235534667969 C 220.530517578125 387.8397521972656 221.6768341064453 388.0324401855469 224.34091186523438 388.5315246582031 C 229.3111572265625 389.4842529296875 236.878662109375 391.0535888671875 246.5899200439453 393.7580871582031 C 257.4454040527344 398.2433776855469 268.4200744628906 404.6623229980469 278.59503173828125 413.16290283203125 C 287.4075927734375 423.6706848144531 296.768310546875 433.9657897949219 308.26324462890625 442.3406982421875 C 321.0345458984375 449.8441467285156 333.8544616699219 457.0519714355469 346.0239562988281 463.9347229003906 C 357.6053771972656 470.6128845214844 369.06060791015625 477.1493835449219 380.983154296875 483.5752258300781 C 393.6502990722656 489.8197937011719 406.64324951171875 495.95880126953125 419.22662353515625 501.4461975097656 C 430.71990966796875 505.8820495605469 441.6269226074219 509.3873291015625 452.5805358886719 512.2246704101562 C 464.0897216796875 514.96337890625 476.07958984375 516.873779296875 488.5288391113281 515.8640747070312 C 501.3075256347656 514.2637329101562 513.8094482421875 511.7795104980469 525.641357421875 508.3941650390625 C 536.83740234375 505.0168762207031 548.3060302734375 500.8932800292969 560.5213012695312 496.1685791015625 C 572.9171142578125 491.47357177734375 584.715087890625 486.4860534667969 596.39892578125 481.11126708984375 C 608.4360961914062 475.83489990234375 620.6319580078125 470.7716979980469 632.7254028320312 464.96435546875 C 644.8832397460938 459.7097473144531 656.7490234375 454.62890625 668.53271484375 449.3925476074219 C 680.4581909179688 444.772216796875 692.4465942382812 440.6725769042969 703.7734985351562 434.8571472167969 C 714.3954467773438 426.02154541015625 725.9693603515625 418.1391906738281 738.8244018554688 413.0296936035156 C 752.3602294921875 411.07080078125 765.76611328125 412.4148254394531 778.0668334960938 416.94415283203125 C 788.11669921875 424.3060607910156 795.3804321289062 433.6858825683594 799.8993530273438 444.32757568359375 C 801.9874877929688 455.4989929199219 802.1878662109375 466.5315246582031 801.0523071289062 476.7967834472656 C 799.1924438476562 485.77484130859375 797.1917114257812 493.0658264160156 795.6546630859375 498.560791015625 C 795.21728515625 502.4156799316406 796.5598754882812 505.22308349609375 800.1834716796875 507.9306640625 C 806.315673828125 511.798583984375 812.5414428710938 519.3903198242188 816.0725708007812 530.3541870117188 C 814.653076171875 541.1099243164062 808.5517578125 547.5655517578125 798.5902099609375 547.0302734375 C 787.386474609375 540.7901000976562 776.318115234375 534.8758544921875 766.0540161132812 531.6752319335938 C 757.1417846679688 531.16162109375 749.8710327148438 532.551513671875 744.2460327148438 534.9074096679688 C 740.123779296875 537.243896484375 737.0526123046875 539.0982055664062 734.4539184570312 540.7627563476562 C 731.7063598632812 542.927001953125 727.8756103515625 545.5464477539062 721.9181518554688 547.2422485351562 C 713.719970703125 545.5730590820312 704.9480590820312 539.1943969726562 696.336669921875 528.4885864257812 C 687.7272338867188 515.5357055664062 678.7131958007812 503.0555419921875 668.98681640625 493.9929504394531 C 658.3925170898438 491.416259765625 647.1151123046875 494.796875 635.4397583007812 501.7576904296875 C 623.7327880859375 509.9414367675781 612.5401611328125 519.494873046875 601.4346313476562 530.341796875 C 589.3038940429688 540.9729614257812 576.1837768554688 549.9229125976562 563.4592895507812 556.8352661132812 C 552.4596557617188 561.322998046875 541.9667358398438 560.2730712890625 530.6099853515625 555.07861328125 C 518.0244140625 548.9772338867188 505.5251159667969 541.5667114257812 493.0594787597656 535.5193481445312 C 480.268310546875 533.5371704101562 467.468505859375 535.0245971679688 454.88226318359375 538.60107421875 C 442.8218994140625 543.0685424804688 431.4946594238281 547.509033203125 420.937744140625 551.5746459960938 C 410.6986999511719 554.7116088867188 400.09735107421875 555.9005737304688 388.5657043457031 554.736572265625 C 375.5898742675781 551.9591064453125 361.7804260253906 547.9417114257812 347.7686462402344 542.57080078125 C 333.99615478515625 536.2713623046875 320.7388610839844 529.8170166015625 308.0201721191406 523.7564086914062 C 295.9737548828125 518.6155395507812 283.9873046875 513.5579833984375 271.9949035644531 507.4654846191406 C 261.3705139160156 499.0906677246094 254.1221923828125 488.99658203125 250.88491821289062 478.7845458984375 C 251.24053955078125 470.65081787109375 254.0616912841797 464.6387023925781 257.9596252441406 459.64959716796875 C 261.7590637207031 455.1091003417969 264.4809875488281 450.89263916015625 265.3965148925781 447.04315185546875 C 264.47540283203125 443.9664001464844 262.0512390136719 442.4496154785156 258.6222839355469 443.3140563964844 C 254.71011352539062 447.2286376953125 250.98060607910156 453.8381042480469 247.9159698486328 462.3708801269531 C 245.1320343017578 471.574951171875 241.8870391845703 479.7510070800781 237.41310119628906 485.1663818359375 C 231.20111083984375 486.1455383300781 223.66079711914062 483.9933776855469 215.13650512695312 480.543701171875 C 206.01724243164062 477.8694152832031 197.07603454589844 475.6114807128906 188.86940002441406 473.91864013671875 C 181.72097778320312 473.430908203125 175.88291931152344 474.755859375 171.54368591308594 478.3129577636719 C 168.27023315429688 483.62152099609375 164.57296752929688 487.9019470214844 160.00509643554688 489.3152160644531 C 155.54188537597656 487.0216064453125 152.46238708496094 480.77734375 151.21995544433594 471.0653991699219 C 150.8606719970703 459.6614685058594 151.38482666015625 449.4244079589844 155.60302734375 443.5744323730469 C 165.7296142578125 444.3103332519531 176.8656768798828 447.0414733886719 184.5912628173828 448.07598876953125 C 186.83131408691406 446.8052673339844 185.63882446289062 443.3963928222656 183.484130859375 438.09979248046875 C 183.1879425048828 431.3127746582031 181.53492736816406 424.426513671875 178.4010009765625 417.9671325683594 C 177.73092651367188 411.58062744140625 179.56387329101562 405.42584228515625 182.9617156982422 399.9063415527344 C 186.89898681640625 395.50396728515625 190.74623107910156 392.7676696777344 194.25125122070312 392.23675537109375 C 197.4718780517578 392.96673583984375 200.71331787109375 393.9881591796875 199.30593872070312 391.8681945800781" stroke-width="0.0" fill="rgb(42, 9, 41)" opacity="0.99979067" stroke="rgb(31, 31, 218)" stroke-opacity="0.79020715" stroke-linecap="round" stroke-linejoin="round"/>
    <path d="M 827.2279663085938 335.64483642578125 C 827.1690063476562 338.31591796875 827.4032592773438 340.7893981933594 828.4784545898438 342.8235778808594 C 830.97802734375 344.1547546386719 835.2151489257812 344.52099609375 841.4769287109375 343.6908874511719 C 849.9447021484375 341.5370178222656 860.3172607421875 339.0528869628906 872.0846557617188 337.1959533691406 C 884.729736328125 336.7115173339844 897.7949829101562 338.0175476074219 910.953125 341.186279296875 C 923.8837280273438 345.9666748046875 936.432861328125 351.3148498535156 948.7369384765625 355.7198486328125 C 960.9515991210938 357.38916015625 972.45654296875 358.59136962890625 982.966796875 360.7561950683594 C 992.4776611328125 363.21600341796875 1000.5734252929688 366.1383056640625 1006.6825561523438 369.8140563964844 C 1010.3385620117188 374.56365966796875 1011.0776977539062 380.7232360839844 1008.5127563476562 388.48370361328125 C 1002.5082397460938 397.77606201171875 993.4011840820312 407.74774169921875 981.9505615234375 417.4303894042969 C 969.18017578125 425.8102722167969 956.3765869140625 432.0790100097656 944.8302612304688 435.5746154785156 C 936.0748901367188 436.5956115722656 930.8521728515625 436.44781494140625 928.22412109375 435.7131652832031 C 926.6199951171875 434.82818603515625 924.439697265625 434.15960693359375 920.1332397460938 433.8968200683594 C 912.513671875 434.0349426269531 902.1049194335938 434.1823425292969 889.6095581054688 434.24761962890625 C 875.7702026367188 434.2499084472656 861.3284912109375 434.4130859375 846.9022827148438 434.572265625 C 832.8757934570312 434.74468994140625 819.4124145507812 434.896728515625 806.7608642578125 434.3252868652344 C 795.0081176757812 432.06146240234375 784.1229858398438 428.3728332519531 773.985107421875 425.08270263671875 C 764.6484985351562 423.7218933105469 756.6162109375 423.1632080078125 750.2996826171875 421.0986633300781 C 745.1915283203125 420.2135009765625 740.771240234375 421.89044189453125 736.2962646484375 425.0642395019531 C 730.8375244140625 427.5034484863281 724.8648071289062 428.4941711425781 719.1807861328125 427.9349365234375 C 714.7429809570312 425.39813232421875 711.9345092773438 421.95086669921875 711.0265502929688 418.54193115234375 C 711.9950561523438 416.1099548339844 713.9502563476562 415.31024169921875 715.9255981445312 416.4088134765625 C 716.92822265625 419.3099060058594 715.976806640625 423.4496765136719 712.345458984375 428.00689697265625 C 705.5338134765625 431.8454284667969 695.5890502929688 434.2718505859375 683.22802734375 435.18890380859375 C 669.3672485351562 435.26910400390625 654.9296875 435.0312805175781 640.742431640625 434.7739562988281 C 627.4264526367188 434.5784912109375 615.2083740234375 434.55743408203125 604.1038818359375 434.7557678222656 C 593.9736938476562 434.9224853515625 584.444580078125 434.69720458984375 575.013671875 434.292236328125 C 565.1096801757812 434.2638854980469 554.26318359375 434.3555908203125 542.1385498046875 434.3210144042969 C 528.62109375 434.34857177734375 513.99658203125 434.61029052734375 498.8537902832031 434.7703857421875 C 484.0336608886719 434.3714904785156 470.4798278808594 433.2112731933594 459.16949462890625 431.221435546875 C 450.6803894042969 428.59576416015625 444.6468200683594 425.75665283203125 440.550048828125 423.1214294433594 C 437.8334655761719 421.0981750488281 435.97454833984375 419.9342346191406 434.4864501953125 419.75244140625 C 432.9327697753906 420.6217956542969 431.03204345703125 422.4951477050781 428.6988525390625 425.050048828125 C 425.968505859375 427.8320617675781 422.89910888671875 430.4226379394531 419.1456298828125 432.4384460449219 C 414.24786376953125 433.6752014160156 407.7083740234375 434.11083984375 399.0437927246094 434.15771484375 C 388.1485900878906 434.2580261230469 375.5483703613281 434.3717956542969 361.8237609863281 434.4284362792969 C 347.6329345703125 434.3968811035156 333.61358642578125 434.54425048828125 320.186279296875 434.826171875 C 307.7330017089844 434.8245849609375 296.4521179199219 432.7055969238281 285.9772033691406 427.8094482421875 C 275.46392822265625 421.3670654296875 264.38079833984375 414.7559814453125 252.0763397216797 408.71337890625 C 238.25071716308594 403.9352722167969 223.9713592529297 399.0362243652344 210.15084838867188 393.4177551269531 C 197.62527465820312 387.2107238769531 187.24954223632812 380.09466552734375 180.7910614013672 372.8309631347656 C 179.75311279296875 366.59295654296875 184.54678344726562 362.01806640625 192.85995483398438 357.98724365234375 C 202.70242309570312 356.1102294921875 213.8622589111328 354.50994873046875 225.72915649414062 352.57513427734375 C 237.42153930664062 353.4642639160156 249.55250549316406 356.3560791015625 263.052001953125 358.5173645019531 C 276.2972106933594 361.13604736328125 288.7356262207031 364.99468994140625 301.0238037109375 366.07830810546875 C 313.59478759765625 364.09539794921875 325.8404846191406 360.2256164550781 337.2549133300781 356.3524475097656 C 347.7447509765625 353.16961669921875 357.565185546875 350.990478515625 367.0502624511719 350.0634765625 C 376.5448303222656 350.593505859375 386.3752136230469 352.7879638671875 396.8470458984375 356.7999267578125 C 408.28887939453125 362.7929992675781 420.37139892578125 370.1351013183594 432.3690490722656 377.764404296875 C 443.54534912109375 384.81451416015625 453.9266052246094 390.8764343261719 464.1710205078125 396.1343688964844 C 474.4784240722656 400.94476318359375 485.04144287109375 405.12286376953125 496.2315368652344 406.153564453125 C 508.0665588378906 403.7139587402344 519.5863647460938 398.8129577636719 531.5587768554688 395.6011962890625 C 543.9571533203125 394.5998229980469 555.7606811523438 393.6135559082031 566.6198120117188 392.885498046875 C 576.3475341796875 392.7635498046875 585.0374145507812 393.3035888671875 593.0685424804688 394.2525329589844 C 600.9660034179688 395.4222106933594 609.2933349609375 396.3417053222656 618.4993896484375 396.9437255859375 C 628.578369140625 399.3923645019531 639.7237548828125 401.6683044433594 651.6780395507812 401.7685852050781 C 664.237060546875 399.65179443359375 676.8380126953125 396.1666564941406 689.1428833007812 391.7589416503906 C 700.9817504882812 387.44427490234375 712.6942749023438 382.73260498046875 724.5957641601562 377.4841613769531 C 736.9658813476562 371.9530029296875 749.4365234375 366.17730712890625 761.8338623046875 360.18597412109375 C 773.9978637695312 354.1900329589844 786.2425537109375 348.886962890625 798.6222534179688 344.12835693359375 C 811.0455932617188 339.52490234375 823.4894409179688 335.0326843261719 827.2279663085938 335.64483642578125" stroke-width="0.0" fill="rgb(95, 34, 93)" opacity="0.999863" stroke="rgb(92, 74, 245)" stroke-opacity="0.93250984" stroke-linecap="round" stroke-linejoin="round"/>
    <path d="M 1031.422607421875 397.3950500488281 C 1031.05126953125 398.60150146484375 1030.778564453125 399.8292541503906 1030.7410888671875 401.08514404296875 C 1031.033935546875 402.3474426269531 1031.752197265625 403.5599060058594 1032.9407958984375 404.633056640625 C 1034.5635986328125 405.5050048828125 1036.5460205078125 406.1226501464844 1038.7933349609375 406.4467468261719 C 1041.2001953125 406.51885986328125 1043.667236328125 406.3918151855469 1046.0906982421875 406.1574401855469 C 1048.3697509765625 405.93212890625 1050.4356689453125 405.8519592285156 1052.2529296875 406.0434875488281 C 1053.7899169921875 406.6263122558594 1055.044677734375 407.69158935546875 1056.0101318359375 409.2831115722656 C 1056.656982421875 411.4476623535156 1057.0106201171875 414.20916748046875 1057.148193359375 417.5606994628906 C 1057.1728515625 421.49017333984375 1057.127197265625 425.97515869140625 1057.0706787109375 430.9658508300781 C 1057.0699462890625 436.4017028808594 1057.0802001953125 442.16717529296875 1057.0799560546875 448.1340026855469 C 1057.0791015625 454.2085266113281 1057.0791015625 460.31121826171875 1057.0792236328125 466.388671875 C 1057.0792236328125 472.4231872558594 1057.0792236328125 478.4279479980469 1057.0792236328125 484.4435729980469 C 1057.0791015625 490.5395812988281 1057.078857421875 496.81201171875 1057.0792236328125 503.3575744628906 C 1057.085693359375 510.1893005371094 1057.0911865234375 517.2501831054688 1057.05908203125 524.4349365234375 C 1056.9610595703125 531.564208984375 1057.0252685546875 538.38671875 1057.508056640625 544.6414794921875 C 1058.2403564453125 550.063232421875 1057.652587890625 554.3963012695312 1054.174072265625 557.42724609375 C 1047.40625 558.9970703125 1038.6788330078125 559.171142578125 1029.356689453125 558.0786743164062 C 1020.7689208984375 555.9878540039062 1014.2803344726562 552.4990844726562 1010.9361572265625 547.4840087890625 C 1010.6209106445312 541.344970703125 1012.2750244140625 535.3067016601562 1014.8485107421875 530.674072265625 C 1017.5421142578125 528.5740966796875 1019.77197265625 528.4691162109375 1021.0628662109375 529.1534423828125 C 1021.0471801757812 529.5054931640625 1020.0089721679688 528.7220458984375 1018.29833984375 526.3901977539062 C 1016.3392333984375 522.5889282226562 1014.5309448242188 517.8858642578125 1013.3790893554688 513.2196044921875 C 1013.03759765625 509.6442565917969 1013.25439453125 508.0053405761719 1013.2485961914062 508.4981994628906 C 1012.1339721679688 511.02044677734375 1009.3300170898438 514.7059936523438 1005.359619140625 518.7182006835938 C 1001.0499877929688 522.4273071289062 997.29638671875 525.3548583984375 994.8816528320312 527.3265380859375 C 994.4053344726562 528.43896484375 996.1060791015625 529.1685791015625 999.6652221679688 530.1909790039062 C 1004.2837524414062 532.2886352539062 1008.725830078125 535.6128540039062 1011.6650390625 539.8806762695312 C 1011.8970336914062 544.4884033203125 1009.4175415039062 548.5078125 1004.4616088867188 550.9522705078125 C 997.6464233398438 551.471435546875 990.0784912109375 550.7808837890625 982.793701171875 549.6594848632812 C 976.4757690429688 548.6884765625 971.5160522460938 547.5232543945312 967.46484375 546.1212768554688 C 963.3087158203125 544.2610473632812 958.3489379882812 541.7785034179688 952.3761596679688 538.79296875 C 945.6701049804688 535.5286865234375 938.6388549804688 532.2427368164062 931.7141723632812 529.3314819335938 C 925.3091430664062 527.1402587890625 919.5582275390625 525.4384155273438 914.4502563476562 523.9904174804688 C 910.0064086914062 522.5032958984375 906.1532592773438 520.931396484375 902.7626953125 519.4489135742188 C 899.7540283203125 518.317626953125 897.1514282226562 517.7023315429688 895.0545043945312 517.7596435546875 C 893.7103271484375 518.518310546875 893.0263671875 519.62890625 892.6416015625 520.4783935546875 C 892.3300170898438 520.7223510742188 891.9800415039062 520.7361450195312 891.44677734375 520.8509521484375 C 890.5418090820312 521.37109375 889.0885009765625 522.5330810546875 886.9818115234375 524.5390625 C 884.1859130859375 527.4303588867188 881.0106201171875 530.7822875976562 877.727783203125 534.1287231445312 C 874.5025634765625 537.0044555664062 871.22021484375 539.1433715820312 867.5258178710938 540.404296875 C 863.1192626953125 541.3702392578125 857.7833251953125 542.6233520507812 851.5330810546875 544.3201904296875 C 844.5301513671875 546.2800903320312 837.18896484375 547.9570922851562 830.3717041015625 548.7903442382812 C 824.82373046875 547.9794311523438 821.0404663085938 544.5695190429688 819.3518676757812 538.7872924804688 C 818.91943359375 531.5601806640625 819.2728271484375 524.0516357421875 820.2689208984375 517.6229858398438 C 822.395751953125 513.380615234375 825.771240234375 511.7562561035156 829.7507934570312 511.78143310546875 C 833.3345947265625 512.3271484375 835.6255493164062 513.099853515625 836.3478393554688 513.6475830078125 C 836.0065307617188 513.5382080078125 835.4239501953125 512.447265625 835.2505493164062 510.1882629394531 C 835.39599609375 506.67852783203125 834.9545288085938 501.9510498046875 833.6351318359375 496.2065734863281 C 832.3012084960938 489.6523742675781 830.6986083984375 482.9863586425781 829.0640258789062 476.8379821777344 C 828.2091064453125 471.7756652832031 829.0889282226562 468.2580261230469 831.995361328125 466.4974060058594 C 836.7313842773438 466.531494140625 842.8756713867188 468.1500549316406 849.9301147460938 470.47833251953125 C 857.4480590820312 472.17889404296875 864.9235229492188 472.8748779296875 871.8104858398438 473.7196350097656 C 878.1210327148438 474.57757568359375 883.83984375 474.1345520019531 889.8538818359375 472.2878112792969 C 896.2015991210938 470.2940673828125 902.8954467773438 467.67730712890625 909.3690185546875 464.43756103515625 C 915.0841064453125 461.393798828125 920.1622924804688 458.54254150390625 925.087890625 455.58245849609375 C 930.36572265625 451.9811096191406 935.9578247070312 448.02288818359375 941.6272583007812 444.02947998046875 C 947.1727294921875 440.0086364746094 952.4968872070312 435.9386291503906 957.5590209960938 431.7033996582031 C 962.2974853515625 427.34539794921875 966.9102783203125 422.96795654296875 971.593994140625 418.68218994140625 C 976.5486450195312 414.6591796875 981.8223266601562 411.0812683105469 987.4006958007812 408.0856018066406 C 993.2509765625 405.7853088378906 999.4005737304688 404.05023193359375 1005.763427734375 402.6466064453125 C 1012.2821655273438 401.4273376464844 1018.869140625 400.2494812011719 1031.422607421875 397.3950500488281" stroke-width="0.0" fill="rgb(43, 9, 42)" opacity="0.9997522" stroke="rgb(159, 5, 1)" stroke-opacity="0.26149538" stroke-linecap="round" stroke-linejoin="round"/>
    <path d="M -7.777790546417236 374.8057861328125 C -3.308605909347534 374.173095703125 1.002813458442688 373.61383056640625 4.935397624969482 373.14990234375 C 8.315617561340332 372.80938720703125 11.129051208496094 372.5893859863281 13.498620986938477 372.4233703613281 C 15.642239570617676 372.21356201171875 17.811086654663086 371.8934020996094 20.294076919555664 371.3614807128906 C 23.2943058013916 370.54119873046875 26.941577911376953 369.5292663574219 31.30051612854004 368.5763244628906 C 36.338809967041016 367.8173522949219 42.021202087402344 367.33331298828125 48.3138542175293 367.12823486328125 C 55.141719818115234 367.18353271484375 62.397640228271484 367.2643737792969 69.94792175292969 367.3603820800781 C 77.64944458007812 367.49169921875 85.34363555908203 367.66162109375 92.84175109863281 367.868896484375 C 99.92231750488281 368.21533203125 106.31040954589844 368.87054443359375 111.73294830322266 370.0704650878906 C 115.91361236572266 372.09039306640625 118.6476821899414 375.22186279296875 119.8573989868164 379.4767761230469 C 119.63895416259766 384.5624084472656 118.7029037475586 390.1138000488281 117.34078216552734 395.705078125 C 115.17276000976562 400.6913757324219 112.25911712646484 404.762939453125 109.4616928100586 408.0071105957031 C 107.66853332519531 410.4061279296875 107.60588836669922 411.8077087402344 109.38597106933594 412.1318664550781 C 112.40338134765625 411.7438049316406 115.5325698852539 411.4844970703125 117.59744262695312 412.1470947265625 C 117.46611785888672 414.3777160644531 115.72602081298828 417.8325500488281 113.30487060546875 422.2639465332031 C 111.20555877685547 427.4435119628906 110.0430908203125 432.9800109863281 109.66259002685547 438.2932434082031 C 109.05973815917969 442.74395751953125 107.65760040283203 445.979736328125 105.6539077758789 447.9911804199219 C 103.57426452636719 448.9597473144531 101.9442367553711 449.1248474121094 101.18412780761719 448.7911682128906 C 101.62625122070312 448.31005859375 103.45083618164062 447.9896240234375 106.8476333618164 448.0972900390625 C 111.95441436767578 448.68792724609375 118.27703857421875 448.16357421875 125.15071868896484 446.52081298828125 C 131.82608032226562 444.50726318359375 137.6239471435547 443.3072204589844 141.91131591796875 444.3283996582031 C 144.16085815429688 448.5903015136719 144.96237182617188 455.1898498535156 144.98583984375 463.0358581542969 C 145.06930541992188 471.3915100097656 144.94805908203125 479.3157653808594 144.05490112304688 486.16473388671875 C 141.837646484375 491.4685974121094 138.08184814453125 495.1045227050781 133.0077362060547 497.41143798828125 C 127.02191925048828 498.9673156738281 120.47985076904297 500.3073425292969 113.71733856201172 501.7515563964844 C 107.04704284667969 503.337890625 100.64254760742188 505.09234619140625 94.54679107666016 506.8752136230469 C 88.69099426269531 508.6805419921875 82.92074584960938 510.2842712402344 76.98009490966797 511.4015808105469 C 70.63192749023438 512.18212890625 64.31697845458984 512.0685424804688 58.72331237792969 511.1856384277344 C 54.842987060546875 510.07281494140625 53.50433349609375 507.2767028808594 54.59890365600586 502.4794921875 C 57.270572662353516 496.272216796875 60.662723541259766 489.9020080566406 64.52399444580078 484.8519592285156 C 69.65826416015625 483.78143310546875 74.60162353515625 484.0582275390625 78.24726104736328 483.88262939453125 C 79.7950439453125 482.2664794921875 79.64263153076172 479.43328857421875 78.36863708496094 475.83636474609375 C 76.5754165649414 471.9786376953125 74.84492492675781 468.29840087890625 73.61670684814453 465.1026916503906 C 73.15941619873047 462.5757141113281 73.33008575439453 460.262451171875 73.89956665039062 457.6225891113281 C 74.44176483154297 454.2418212890625 74.44051361083984 450.056396484375 73.4277114868164 445.101806640625 C 70.95660400390625 439.6729431152344 67.31502532958984 435.343994140625 63.33974075317383 433.4992980957031 C 60.385066986083984 433.890869140625 57.968814849853516 435.11444091796875 55.467918395996094 436.5030517578125 C 52.21303939819336 438.4089050292969 48.887508392333984 441.2945251464844 46.35733413696289 445.1842956542969 C 45.06032943725586 449.7999572753906 44.143558502197266 454.73309326171875 43.17534255981445 459.6253356933594 C 42.828189849853516 464.3610534667969 42.18573760986328 468.624755859375 40.74320602416992 472.2337341308594 C 38.94973373413086 475.1629638671875 37.27301025390625 477.4095458984375 36.22848129272461 479.06915283203125 C 36.1687126159668 480.2759094238281 37.415245056152344 481.2132873535156 40.01152420043945 482.1410827636719 C 43.88166427612305 483.34613037109375 48.75544738769531 485.1365966796875 54.0280647277832 487.791015625 C 58.952674865722656 491.4852600097656 62.44118118286133 496.3424987792969 64.04641723632812 502.029296875 C 64.18873596191406 507.2122497558594 61.79296875 510.5794372558594 56.342464447021484 511.51776123046875 C 49.44043731689453 511.7481994628906 43.328521728515625 512.048583984375 39.18232345581055 512.0900268554688 C 36.94872283935547 511.8584899902344 36.132389068603516 511.53076171875 36.10709762573242 511.2477722167969 C 36.16609573364258 510.89727783203125 35.7824592590332 510.4590759277344 34.75990295410156 509.96337890625 C 33.2436637878418 509.4816589355469 31.462310791015625 509.16937255859375 29.634891510009766 509.2192687988281 C 27.911291122436523 509.8777770996094 26.261533737182617 511.4457092285156 24.433704376220703 514.1296997070312 C 21.96355628967285 517.9523315429688 18.478759765625 522.4346923828125 13.861777305603027 526.9944458007812 C 8.240424156188965 531.0950317382812 2.279036283493042 534.0145263671875 -3.1859371662139893 534.9955444335938 C -7.33711051940918 533.2275390625 -9.852982521057129 528.759765625 -10.916534423828125 522.1066284179688 C -10.873769760131836 513.9174194335938 -10.252699851989746 504.83831787109375 -9.61364459991455 495.4957580566406 C -9.308550834655762 486.4797058105469 -9.457069396972656 478.1824645996094 -9.928500175476074 470.7906188964844 C -10.501862525939941 464.3056335449219 -10.969547271728516 458.6031494140625 -11.15944766998291 453.5477600097656 C -11.045459747314453 448.9806823730469 -10.83703327178955 444.7189025878906 -10.78824234008789 440.58978271484375 C -11.00825023651123 436.444580078125 -11.300390243530273 432.1417541503906 -11.435733795166016 427.53570556640625 C -11.251035690307617 422.521728515625 -10.80184555053711 417.00732421875 -10.273635864257812 410.90185546875 C -9.909838676452637 404.1903076171875 -9.790276527404785 396.9776306152344 -9.889533996582031 389.40838623046875 C -10.143342018127441 381.6414794921875 -10.46734619140625 373.7912902832031 -7.777790546417236 374.8057861328125" stroke-width="0.0" fill="rgb(42, 9, 41)" opacity="0.99973387" stroke="rgb(38, 97, 240)" stroke-opacity="0.54975444" stroke-linecap="round" stroke-linejoin="round"/>
    <path d="M 745.0468139648438 255.33673095703125 C 745.064208984375 256.5038146972656 745.0841064453125 257.6939392089844 745.1145629882812 258.85595703125 C 745.158447265625 259.9835205078125 745.2244873046875 261.0889892578125 745.2953491210938 262.1548156738281 C 745.3788452148438 263.1798400878906 745.45751953125 264.18182373046875 745.5014038085938 265.1640625 C 745.5027465820312 266.13641357421875 745.4548950195312 267.1166076660156 745.3450927734375 268.1192626953125 C 745.1751708984375 269.1436767578125 744.9548950195312 270.20867919921875 744.6829223632812 271.3157958984375 C 744.3575439453125 272.4582824707031 744.0062866210938 273.6400451660156 743.6302490234375 274.84808349609375 C 743.2094116210938 276.0741882324219 742.7670288085938 277.3204345703125 742.3099365234375 278.5652770996094 C 741.7870483398438 279.8094787597656 741.24560546875 281.0332336425781 740.6298217773438 282.2094421386719 C 739.9630126953125 283.3258361816406 739.2156372070312 284.3899841308594 738.4180297851562 285.39910888671875 C 737.5519409179688 286.3372497558594 736.6600952148438 287.1980285644531 735.7777099609375 287.99200439453125 C 734.9235229492188 288.7449645996094 734.127685546875 289.48748779296875 733.4288330078125 290.2558898925781 C 732.8392944335938 291.08734130859375 732.3603515625 292.0111389160156 732.0068969726562 293.0531921386719 C 731.7412719726562 294.20404052734375 731.5443725585938 295.48516845703125 731.3927612304688 296.87567138671875 C 731.2435913085938 298.36651611328125 731.0698852539062 299.9584655761719 730.8544921875 301.6346130371094 C 730.584716796875 303.3717956542969 730.2498779296875 305.1449279785156 729.8369140625 306.9163818359375 C 729.3478393554688 308.642333984375 728.7930908203125 310.2930908203125 728.1873779296875 311.8092346191406 C 727.5309448242188 313.1522521972656 726.8204956054688 314.29339599609375 726.0601806640625 315.2162780761719 C 725.259765625 315.9346008300781 724.4121704101562 316.48052978515625 723.4790649414062 316.9061584472656 C 722.4439697265625 317.2999572753906 721.3006591796875 317.7607116699219 720.0170288085938 318.3973388671875 C 718.5554809570312 319.2938232421875 716.8948364257812 320.52001953125 715.0255126953125 322.1089172363281 C 712.940185546875 324.0474548339844 710.6163330078125 326.2790832519531 708.0748291015625 328.7194519042969 C 705.357421875 331.2720031738281 702.4829711914062 333.85223388671875 699.4935302734375 336.3872375488281 C 696.4429321289062 338.8233642578125 693.3630981445312 341.133544921875 690.28271484375 343.30047607421875 C 687.2205200195312 345.3751220703125 684.1866455078125 347.3731689453125 681.1515502929688 349.3101806640625 C 678.1005859375 351.18975830078125 675.021728515625 352.9871826171875 671.904541015625 354.679931640625 C 668.744384765625 356.2604064941406 665.5676879882812 357.75494384765625 662.371826171875 359.1822814941406 C 659.1685791015625 360.55615234375 655.961669921875 361.9048767089844 652.7525634765625 363.2373962402344 C 649.534912109375 364.5284423828125 646.2919311523438 365.75048828125 643.0088500976562 366.88909912109375 C 639.677734375 367.9084777832031 636.2657470703125 368.7593078613281 632.7514038085938 369.4047546386719 C 629.1329345703125 369.8041687011719 625.411376953125 369.9199523925781 621.5991821289062 369.7469787597656 C 617.72607421875 369.3224792480469 613.8302001953125 368.6945495605469 609.9459838867188 367.97357177734375 C 606.0949096679688 367.2059020996094 602.3065795898438 366.38665771484375 598.603271484375 365.508544921875 C 594.9776611328125 364.5782165527344 591.4089965820312 363.6307067871094 587.8832397460938 362.6942443847656 C 584.3788452148438 361.8089294433594 580.8834838867188 361.04925537109375 577.4180297851562 360.425537109375 C 573.9761962890625 359.8933410644531 570.5916137695312 359.3490295410156 567.2676391601562 358.637451171875 C 564.0027465820312 357.5946350097656 560.842529296875 356.07366943359375 557.8580322265625 353.96197509765625 C 555.1384887695312 351.185546875 552.77978515625 347.72039794921875 550.9012451171875 343.6169738769531 C 549.6268920898438 338.9690246582031 549.1539916992188 333.96478271484375 549.5047607421875 328.8829650878906 C 550.7268676757812 324.1103515625 552.7163696289062 320.02032470703125 555.3096923828125 316.95745849609375 C 558.23193359375 315.2509765625 561.282470703125 315.11346435546875 564.3561401367188 316.5337219238281 C 567.5180053710938 319.37274169921875 570.87548828125 323.3193054199219 574.5664672851562 328.04327392578125 C 578.6459350585938 333.1405029296875 582.9456176757812 338.15765380859375 587.1442260742188 342.507568359375 C 590.943115234375 345.7015380859375 594.1027221679688 347.4387512207031 596.5441284179688 347.6464538574219 C 598.1293334960938 346.661865234375 598.923095703125 345.30670166015625 599.0753173828125 344.33648681640625 C 598.9129638671875 344.2242736816406 599.0064697265625 344.8484191894531 600.0775146484375 345.6955261230469 C 602.2058715820312 346.238037109375 605.29150390625 346.3900451660156 609.1698608398438 345.95806884765625 C 613.4462890625 345.1795654296875 617.9906005859375 344.2158203125 622.4654541015625 342.9647521972656 C 626.5109252929688 341.1736755371094 630.18603515625 338.7601013183594 633.7530517578125 336.2685241699219 C 637.293212890625 334.37823486328125 641.052001953125 332.6269226074219 645.0023803710938 330.6979064941406 C 648.49365234375 328.75250244140625 651.74853515625 326.89434814453125 654.9492797851562 325.0813903808594 C 658.0662231445312 323.2303466796875 661.10009765625 321.36181640625 664.059326171875 319.51568603515625 C 666.94140625 317.7037658691406 669.7548828125 315.93658447265625 672.5094604492188 314.1573181152344 C 675.269287109375 312.2791748046875 678.101806640625 310.2392883300781 681.0842895507812 308.0053405761719 C 684.262451171875 305.5956726074219 687.6140747070312 303.14111328125 691.0001220703125 300.7379150390625 C 694.195068359375 298.4436340332031 697.052001953125 296.3175354003906 699.5768432617188 294.32928466796875 C 701.9601440429688 292.34185791015625 704.6117553710938 290.11181640625 707.8568725585938 287.3964538574219 C 711.817138671875 284.1454162597656 716.1576538085938 280.5841979980469 720.5192260742188 277.1124267578125 C 724.5732421875 274.1299743652344 727.5603637695312 271.33917236328125 729.242431640625 268.64715576171875 C 730.2745971679688 266.49090576171875 731.7590942382812 265.3517761230469 734.107177734375 264.8749694824219 C 736.8389282226562 263.9090576171875 739.7989501953125 262.7640686035156 745.0468139648438 255.33673095703125" stroke-width="0.0" fill="rgb(165, 83, 157)" opacity="0.9997862" stroke="rgb(248, 246, 206)" stroke-opacity="0.6376281" stroke-linecap="round" stroke-linejoin="round"/>
  </g>
</svg>
