<?xml version="1.0" ?>
<svg xmlns="http://www.w3.org/2000/svg" version="1.1" width="474" height="596">
  <defs/>
  <g>
    <path d="M 267.3889465332031 -1.080655813217163 C 268.0091247558594 -0.5875347256660461 268.775146484375 -0.6213669776916504 269.1378479003906 -0.8069953322410583 C 269.7298583984375 -0.8779956102371216 270.43133544921875 -1.2122958898544312 270.9574890136719 -1.6848822832107544 C 271.6969299316406 -2.1304712295532227 272.43096923828125 -2.8484301567077637 272.85150146484375 -3.450446605682373 C 273.25286865234375 -3.5658118724823 274.16949462890625 -3.465894937515259 275.26043701171875 -3.3342525959014893 C 276.5363464355469 -2.6831209659576416 278.30987548828125 -1.3930201530456543 281.2264404296875 -1.0018445253372192 C 284.9258728027344 0.7894545197486877 289.74542236328125 2.3259339332580566 296.61407470703125 3.5319809913635254 C 303.5634460449219 5.717600345611572 312.0986022949219 8.006205558776855 320.0657043457031 11.824311256408691 C 329.029296875 15.143892288208008 337.18511962890625 19.84699249267578 345.1961364746094 24.65152931213379 C 353.5619201660156 29.2138614654541 361.1253967285156 35.366676330566406 369.2018127441406 41.65251541137695 C 377.26837158203125 48.37601089477539 384.9679870605469 55.594825744628906 392.0587158203125 63.38217544555664 C 399.2984924316406 70.654296875 404.73638916015625 79.70787811279297 411.68341064453125 87.10491180419922 C 417.2649841308594 95.75114440917969 423.06390380859375 103.76673126220703 427.7806701660156 112.26162719726562 C 432.1078796386719 120.00779724121094 434.09466552734375 127.9210433959961 431.7012939453125 136.64044189453125 C 428.1533203125 145.30520629882812 422.23028564453125 152.7825164794922 415.71221923828125 161.24465942382812 C 408.1681823730469 168.2231903076172 400.5785217285156 175.78460693359375 393.2733459472656 183.09881591796875 C 384.5881652832031 189.15179443359375 378.2094421386719 197.54356384277344 368.96795654296875 203.4244842529297 C 359.8946533203125 209.77944946289062 350.41607666015625 215.76351928710938 340.79632568359375 219.935791015625 C 331.4561462402344 222.90980529785156 324.1640625 224.3219451904297 319.2988586425781 224.3069610595703 C 319.5349426269531 220.81417846679688 322.2720642089844 215.10296630859375 327.04132080078125 208.677490234375 C 334.0133361816406 202.14364624023438 341.9223937988281 195.34469604492188 349.7483215332031 188.4414825439453 C 356.7052001953125 181.25717163085938 362.3114318847656 173.80361938476562 366.5025939941406 166.0255889892578 C 369.1678466796875 157.82601928710938 370.3933410644531 149.51608276367188 370.22222900390625 141.15977478027344 C 368.7746276855469 132.93687438964844 365.9837341308594 125.0499038696289 362.23748779296875 117.7567367553711 C 357.6722412109375 111.37299346923828 352.3603210449219 106.11554718017578 346.4182434082031 102.1399917602539 C 340.0351867675781 99.64300537109375 333.15777587890625 98.623779296875 326.1211853027344 100.22953033447266 C 317.5597839355469 99.80646514892578 309.5245666503906 101.8830795288086 301.6545715332031 104.95155334472656 C 291.7290954589844 106.0097885131836 282.72796630859375 107.25043487548828 273.9580993652344 109.37037658691406 C 266.0272216796875 108.85840606689453 259.1879577636719 107.3873062133789 253.8866729736328 106.27616882324219 C 250.33741760253906 103.97235107421875 247.81776428222656 103.39778900146484 246.4127960205078 103.9440689086914 C 245.73049926757812 105.94921875 244.6455841064453 109.17920684814453 241.88401794433594 112.9819564819336 C 236.27015686035156 116.7921371459961 229.06765747070312 120.9484634399414 221.001708984375 125.14324188232422 C 211.08213806152344 128.73483276367188 201.5624542236328 132.37635803222656 191.7119903564453 134.84031677246094 C 182.46749877929688 136.38189697265625 174.9228057861328 137.53286743164062 168.8299102783203 138.6983642578125 C 164.3667755126953 139.87673950195312 161.03433227539062 141.33636474609375 158.41006469726562 143.38677978515625 C 156.086669921875 146.32350158691406 153.83213806152344 150.3931427001953 151.50344848632812 155.77130126953125 C 149.42529296875 162.2298583984375 147.80349731445312 169.609130859375 147.09884643554688 177.57473754882812 C 147.93675231933594 185.77845764160156 150.4574432373047 194.10609436035156 154.7430419921875 202.2181854248047 C 160.9541015625 209.72328186035156 168.89620971679688 216.55679321289062 178.0509490966797 222.74588012695312 C 187.60202026367188 228.11778259277344 196.60562133789062 232.83631896972656 204.40969848632812 236.76596069335938 C 209.76426696777344 240.2071533203125 211.60313415527344 243.11192321777344 210.0357208251953 245.24314880371094 C 205.46511840820312 246.09654235839844 198.49575805664062 245.8403778076172 190.18919372558594 244.69325256347656 C 181.3430633544922 243.30418395996094 171.88925170898438 241.8617401123047 162.54884338378906 240.69703674316406 C 153.33604431152344 240.9771728515625 144.2118377685547 240.5946044921875 136.16433715820312 239.3851318359375 C 128.25161743164062 237.9048614501953 120.2113265991211 236.49868774414062 112.32247161865234 234.45106506347656 C 103.93399047851562 231.956787109375 95.11038208007812 229.20814514160156 86.76301574707031 225.68910217285156 C 78.21625518798828 222.18716430664062 70.16405487060547 218.47447204589844 63.36397933959961 214.0818328857422 C 58.51056671142578 208.39537048339844 54.85422897338867 202.56712341308594 53.428585052490234 195.82411193847656 C 53.837650299072266 187.2430419921875 54.794063568115234 178.4025115966797 56.71211624145508 169.3052978515625 C 58.17148208618164 160.54263305664062 60.34370422363281 152.03428649902344 62.872779846191406 143.90371704101562 C 64.92781829833984 136.0561065673828 67.91184997558594 128.9837646484375 71.0921401977539 121.36748504638672 C 74.44194793701172 113.67733001708984 78.37387084960938 105.75668334960938 83.10008239746094 97.72136688232422 C 88.1812515258789 89.474609375 93.79515838623047 81.2237777709961 100.35411071777344 73.28601837158203 C 107.18976593017578 65.09413146972656 114.47915649414062 57.19681167602539 122.67019653320312 50.162269592285156 C 130.29061889648438 42.86728286743164 138.90713500976562 37.24831008911133 146.6559600830078 31.4847469329834 C 154.20628356933594 26.419492721557617 161.730712890625 24.38069725036621 171.65518188476562 23.800796508789062 C 180.5153350830078 23.22701644897461 189.15101623535156 24.792373657226562 197.50013732910156 26.563133239746094 C 204.69210815429688 28.560693740844727 209.16168212890625 30.533550262451172 213.3760528564453 28.5105037689209 C 217.90390014648438 29.652475357055664 223.90164184570312 29.537546157836914 227.4915008544922 25.730941772460938 C 233.04400634765625 19.573888778686523 239.59194946289062 12.768562316894531 248.4910125732422 7.674787998199463 C 257.8709411621094 2.7484207153320312 268.7447814941406 -0.6165310740470886 267.3889465332031 -1.080655813217163" stroke-width="0.0" fill="rgb(64, 38, 30)" opacity="0.9999957" stroke="rgb(221, 110, 77)" stroke-opacity="0.39469033" stroke-linecap="round" stroke-linejoin="round"/>
    <path d="M 279.7229919433594 238.51422119140625 C 287.7995300292969 239.72059631347656 297.263671875 240.61676025390625 307.74969482421875 241.49105834960938 C 320.28094482421875 243.6529541015625 334.6546325683594 247.54879760742188 351.1066589355469 254.8711395263672 C 368.1667785644531 265.7354431152344 384.9401550292969 276.5578918457031 398.4998779296875 285.1358642578125 C 405.88543701171875 290.3851013183594 406.3912048339844 292.03662109375 400.3336486816406 291.28631591796875 C 390.537841796875 289.7454528808594 380.7114562988281 289.69073486328125 374.2687683105469 292.7603454589844 C 374.2339782714844 298.9813232421875 380.6081848144531 308.2050476074219 392.1376647949219 319.8139343261719 C 406.7415771484375 332.0577392578125 420.0039978027344 342.1429138183594 427.63134765625 349.34942626953125 C 427.8206787109375 347.4883728027344 419.7748718261719 340.7183532714844 404.1520080566406 331.8632507324219 C 381.344482421875 328.599609375 358.375244140625 324.84344482421875 339.05181884765625 320.7479248046875 C 326.5401611328125 323.4309387207031 323.46331787109375 333.05548095703125 322.5434875488281 350.59344482421875 C 323.75726318359375 370.27587890625 317.9440612792969 390.7332458496094 309.0965881347656 412.4824523925781 C 301.0416564941406 434.7057800292969 295.69952392578125 457.02294921875 290.50152587890625 478.1050720214844 C 289.70904541015625 496.0506896972656 292.2243347167969 511.2556457519531 292.9576416015625 522.1270751953125 C 289.2406005859375 527.0054931640625 279.03131103515625 526.5906372070312 265.4032897949219 525.4702758789062 C 251.38058471679688 525.2091064453125 239.2530059814453 529.6962890625 234.3418731689453 538.6448364257812 C 235.67039489746094 555.926025390625 243.88954162597656 570.6082153320312 260.2221374511719 579.0827026367188 C 279.40093994140625 581.9306640625 299.06610107421875 579.784912109375 315.7717590332031 579.0636596679688 C 326.5640869140625 577.5067749023438 329.28570556640625 578.5798950195312 322.7428894042969 580.1802978515625 C 308.7698974609375 580.3372192382812 291.4486389160156 581.4243774414062 273.8626403808594 580.7921752929688 C 255.657470703125 576.514404296875 242.2311248779297 569.5452270507812 237.17869567871094 555.8272094726562 C 237.27267456054688 535.884521484375 238.34083557128906 513.5952758789062 242.49362182617188 490.9788513183594 C 242.02159118652344 473.3560485839844 236.8129119873047 460.57373046875 228.93807983398438 456.1009216308594 C 221.5473175048828 463.097412109375 214.22564697265625 474.35791015625 206.67636108398438 484.59423828125 C 199.17881774902344 490.398193359375 192.5229034423828 492.265625 187.65972900390625 492.349853515625 C 185.36570739746094 492.8398132324219 186.3794708251953 496.16973876953125 190.6905517578125 503.60540771484375 C 197.5574188232422 514.9091186523438 205.7723846435547 529.3965454101562 213.71658325195312 545.1764526367188 C 217.30099487304688 560.3255615234375 213.6263427734375 573.862548828125 202.2294921875 583.6475830078125 C 183.38172912597656 589.8275146484375 163.79885864257812 594.0831909179688 144.94358825683594 594.8262329101562 C 131.095947265625 591.6685180664062 124.03602600097656 586.1288452148438 125.80882263183594 579.8162231445312 C 135.60983276367188 581.3858032226562 151.7998809814453 582.5172729492188 168.31607055664062 584.5771484375 C 188.71994018554688 583.4063720703125 203.8482208251953 577.7778930664062 214.51280212402344 568.88916015625 C 216.65965270996094 555.6430053710938 213.67623901367188 542.5946044921875 206.69422912597656 532.1976318359375 C 196.0399169921875 526.5471801757812 185.3086700439453 524.4656982421875 175.84808349609375 523.8222045898438 C 169.11878967285156 522.4852294921875 165.40313720703125 518.9716796875 164.3788604736328 511.8807678222656 C 164.72622680664062 500.550048828125 164.2127227783203 484.9783630371094 162.40499877929688 466.45623779296875 C 158.39605712890625 445.71905517578125 154.08297729492188 424.01953125 151.7486114501953 402.00836181640625 C 141.54208374023438 383.0107421875 132.353271484375 366.9923400878906 120.7962875366211 355.37860107421875 C 109.67144775390625 349.690673828125 99.96475982666016 349.5093994140625 92.84657287597656 354.41217041015625 C 87.28582763671875 356.6824035644531 87.15100860595703 355.7835693359375 91.4238052368164 350.844482421875 C 97.78390502929688 343.1548156738281 104.11875915527344 333.3148193359375 109.12504577636719 322.7738952636719 C 111.51139068603516 312.3340759277344 110.46015167236328 302.79974365234375 106.28722381591797 294.641845703125 C 99.97016143798828 288.05230712890625 96.12467193603516 282.22918701171875 98.00062561035156 275.56304931640625 C 106.13407897949219 267.505126953125 118.84534454345703 259.9106750488281 133.7578125 252.15142822265625 C 148.07977294921875 245.56607055664062 159.60914611816406 242.10879516601562 167.67974853515625 245.1737823486328 C 169.0997314453125 252.95030212402344 165.64866638183594 264.9317626953125 161.7046661376953 281.3028564453125 C 156.6560516357422 298.7136535644531 152.56906127929688 317.0661315917969 151.05360412597656 334.5642395019531 C 152.9437255859375 349.9111022949219 156.0349884033203 361.95098876953125 158.82046508789062 369.9315490722656 C 159.3138427734375 373.1002197265625 159.61300659179688 370.9237365722656 160.09104919433594 364.1905822753906 C 161.2068328857422 354.1785583496094 164.474853515625 341.3194274902344 168.06982421875 326.8774108886719 C 174.5167236328125 313.2933349609375 182.13832092285156 302.17889404296875 187.4061737060547 291.9648742675781 C 191.89361572265625 284.9183349609375 195.07504272460938 279.31451416015625 196.0086669921875 273.80267333984375 C 197.605712890625 267.66357421875 199.12033081054688 260.79876708984375 203.5355682373047 254.93344116210938 C 210.4825439453125 251.0930633544922 219.41278076171875 250.71983337402344 229.9766082763672 251.73207092285156 C 241.56427001953125 253.10829162597656 253.42445373535156 256.1531066894531 265.0003662109375 262.39569091796875 C 274.9880065917969 272.30731201171875 283.04150390625 285.13690185546875 292.0152893066406 296.4832458496094 C 301.2539978027344 306.07421875 304.55438232421875 314.0286560058594 312.07489013671875 316.9421081542969 C 314.7916259765625 316.0026550292969 317.4553527832031 312.9090881347656 316.3269348144531 308.6938781738281 C 318.5952453613281 304.41497802734375 318.6591796875 299.63043212890625 317.4325866699219 294.1995544433594 C 316.9027404785156 287.062744140625 314.5404968261719 278.4967041015625 309.19976806640625 269.6275939941406 C 303.63958740234375 259.53326416015625 296.8749694824219 248.93954467773438 279.7229919433594 238.51422119140625" stroke-width="0.0" fill="rgb(252, 110, 165)" opacity="0.99996954" stroke="rgb(18, 70, 167)" stroke-opacity="0.20473738" stroke-linecap="round" stroke-linejoin="round"/>
    <path d="M 239.28663635253906 96.25061798095703 C 240.629150390625 95.82075500488281 241.2112274169922 96.32084655761719 241.7825927734375 96.62860870361328 C 242.35520935058594 96.92570495605469 242.80303955078125 97.32984924316406 243.21009826660156 97.90396118164062 C 243.71658325195312 98.66426849365234 244.4396514892578 99.6030502319336 245.51837158203125 100.5570297241211 C 247.1349334716797 101.38475799560547 250.16848754882812 101.92741394042969 251.73793029785156 103.92445373535156 C 254.25830078125 105.96891784667969 257.82086181640625 107.25630187988281 261.6692199707031 107.54491424560547 C 266.20745849609375 108.63935852050781 270.7889099121094 109.01008605957031 275.45477294921875 107.84394836425781 C 280.0670471191406 107.650146484375 284.76116943359375 107.37401580810547 289.2230224609375 106.74324798583984 C 293.92767333984375 106.59435272216797 298.23052978515625 106.43805694580078 302.3745422363281 106.642578125 C 306.1412658691406 107.85960388183594 309.70220947265625 109.8952407836914 313.0633544921875 112.76969146728516 C 316.173095703125 116.38278198242188 319.02752685546875 120.61459350585938 321.8517761230469 125.06687927246094 C 324.947265625 129.2742462158203 328.2491149902344 132.4027862548828 332.12042236328125 133.50650024414062 C 336.715576171875 132.96783447265625 341.0836181640625 132.26144409179688 343.00592041015625 127.31859588623047 C 346.17962646484375 123.49113464355469 346.3570861816406 118.64735412597656 343.3274841308594 113.44173431396484 C 343.1333923339844 108.02961730957031 340.0198669433594 104.28805541992188 338.24884033203125 101.02656555175781 C 338.3734130859375 98.28305053710938 339.6259460449219 97.73597717285156 342.60015869140625 99.24883270263672 C 346.508544921875 101.34567260742188 351.4328918457031 104.8402099609375 356.3542785644531 109.16607666015625 C 360.2530212402344 115.0995864868164 363.9898986816406 121.05658721923828 366.96490478515625 127.11241149902344 C 368.7002868652344 134.12371826171875 369.6813659667969 141.00131225585938 369.56549072265625 147.61056518554688 C 368.93719482421875 154.0731658935547 368.0679016113281 160.19985961914062 367.6450500488281 167.03639221191406 C 364.8904113769531 173.01206970214844 361.1025085449219 179.15135192871094 357.7146911621094 185.29074096679688 C 353.4893493652344 190.68869018554688 348.28790283203125 196.3108673095703 342.98028564453125 201.77474975585938 C 338.5365905761719 207.60806274414062 333.0647277832031 212.23577880859375 326.9936828613281 214.6995391845703 C 321.5444641113281 218.0055389404297 316.7538757324219 221.28067016601562 311.4410705566406 224.23483276367188 C 305.5781555175781 226.21578979492188 299.9097595214844 228.42124938964844 294.94317626953125 232.14218139648438 C 290.1653747558594 233.98965454101562 287.1425476074219 237.6477813720703 287.2154846191406 242.74331665039062 C 289.69091796875 248.6857147216797 293.54736328125 254.6636962890625 297.66510009765625 259.9053039550781 C 301.0677795410156 264.3275146484375 303.5881652832031 266.6669921875 304.595458984375 266.97113037109375 C 303.8698425292969 265.3376159667969 301.312255859375 262.28887939453125 297.5273132324219 258.447021484375 C 293.00189208984375 254.51316833496094 288.2730712890625 251.28199768066406 283.9056396484375 249.43746948242188 C 280.3072509765625 249.43490600585938 277.7601013183594 251.1705322265625 276.06671142578125 254.36817932128906 C 275.1434631347656 258.2461853027344 274.7260437011719 262.1615905761719 274.2946472167969 265.4501037597656 C 273.2916564941406 267.3536376953125 271.4737548828125 267.5699157714844 268.61907958984375 265.637939453125 C 264.5923767089844 261.8453369140625 259.15875244140625 258.7024841308594 252.7442626953125 255.61734008789062 C 245.41468811035156 253.2195281982422 239.01869201660156 250.78424072265625 233.15713500976562 248.88229370117188 C 227.802734375 247.66648864746094 222.9643096923828 247.2743682861328 218.4826202392578 246.76177978515625 C 214.0714569091797 248.2403106689453 209.74041748046875 250.93141174316406 204.92910766601562 253.92141723632812 C 201.00387573242188 257.7005615234375 197.5211181640625 261.446533203125 194.71649169921875 264.5880432128906 C 192.8369903564453 266.79541015625 192.1604461669922 267.8345642089844 192.90003967285156 267.4717712402344 C 194.87242126464844 265.62799072265625 197.97268676757812 262.5179443359375 201.2368927001953 256.9906005859375 C 205.33558654785156 253.43954467773438 208.8468017578125 248.81336975097656 211.12667846679688 243.95323181152344 C 209.48780822753906 240.50306701660156 205.3282470703125 237.31802368164062 200.2311553955078 234.8300323486328 C 194.16688537597656 230.93740844726562 186.24110412597656 227.7369842529297 179.01222229003906 223.4534912109375 C 171.7075958251953 218.5551300048828 164.425048828125 213.82041931152344 158.37118530273438 207.421630859375 C 152.86135864257812 201.9374542236328 149.23350524902344 195.202392578125 145.80609130859375 189.03001403808594 C 146.1011505126953 180.77369689941406 146.22503662109375 173.93783569335938 147.15728759765625 166.56434631347656 C 147.33273315429688 160.3915557861328 149.22727966308594 153.8607177734375 152.56040954589844 149.43124389648438 C 156.39852905273438 146.36843872070312 158.2540283203125 142.77769470214844 159.70005798339844 139.8212432861328 C 162.5916748046875 138.8556365966797 165.0594024658203 137.98550415039062 168.58087158203125 138.9980926513672 C 171.2007293701172 137.46849060058594 174.9906005859375 136.75306701660156 179.65969848632812 136.207275390625 C 185.33277893066406 135.8809051513672 191.24147033691406 135.0250244140625 197.42393493652344 134.32754516601562 C 203.29937744140625 134.1434326171875 208.65025329589844 134.96810913085938 213.21981811523438 136.79420471191406 C 216.6576385498047 140.00009155273438 218.97711181640625 144.0447235107422 220.30429077148438 148.39605712890625 C 221.0841064453125 152.8374481201172 221.7404327392578 157.0409698486328 222.84840393066406 160.24024963378906 C 226.23265075683594 161.19027709960938 230.37106323242188 160.61447143554688 234.39508056640625 158.0162811279297 C 238.8776092529297 157.19869995117188 242.16961669921875 153.807373046875 245.21807861328125 150.30284118652344 C 245.5531005859375 146.73036193847656 244.7254180908203 143.14645385742188 243.15213012695312 139.6632537841797 C 241.0998077392578 136.4688720703125 238.9893035888672 133.6260528564453 237.43405151367188 130.80836486816406 C 236.12368774414062 128.08470153808594 236.28369140625 125.01385498046875 236.34593200683594 120.54460144042969 C 237.40673828125 116.79186248779297 240.25399780273438 113.43889617919922 244.5902099609375 110.82844543457031 C 244.89727783203125 104.71009063720703 247.42710876464844 99.81712341308594 239.28663635253906 96.25061798095703" stroke-width="0.0" fill="rgb(249, 187, 106)" opacity="0.99955267" stroke="rgb(106, 3, 40)" stroke-opacity="0.55238646" stroke-linecap="round" stroke-linejoin="round"/>
    <path d="M 171.86444091796875 238.9815673828125 C 176.17666625976562 238.84146118164062 180.37289428710938 238.43853759765625 184.29177856445312 239.14541625976562 C 187.80319213867188 241.84225463867188 190.69158935546875 246.314453125 192.53175354003906 252.8466339111328 C 192.72618103027344 261.3150939941406 191.1713104248047 271.72186279296875 187.5500030517578 283.6412048339844 C 182.1799774169922 296.30157470703125 175.6291046142578 309.0640869140625 168.5498809814453 321.2960510253906 C 161.48741149902344 332.5833435058594 155.1089324951172 342.91888427734375 149.92111206054688 352.02398681640625 C 146.48886108398438 360.1033935546875 145.11114501953125 367.19744873046875 146.38539123535156 373.42706298828125 C 150.5915985107422 378.60491943359375 157.73953247070312 382.68438720703125 168.0717010498047 385.36053466796875 C 181.0691680908203 386.7811279296875 195.7082061767578 387.4082336425781 211.12466430664062 386.7275390625 C 226.28140258789062 385.27716064453125 239.71829223632812 383.8282775878906 249.9503631591797 382.0671691894531 C 256.94903564453125 382.94720458984375 259.25396728515625 382.5713806152344 257.4437561035156 383.1195373535156 C 253.7170867919922 381.9543151855469 250.3555145263672 381.08038330078125 249.1951446533203 378.3818664550781 C 251.42665100097656 376.6265869140625 257.4399108886719 376.4997863769531 266.5798034667969 376.2524719238281 C 277.67913818359375 376.57147216796875 288.9179992675781 378.98809814453125 298.20599365234375 385.0589599609375 C 305.3843078613281 393.2052917480469 309.7348937988281 403.04425048828125 310.9741516113281 414.91162109375 C 309.34490966796875 427.73919677734375 305.03802490234375 440.56317138671875 299.26287841796875 452.37371826171875 C 292.5354309082031 462.32000732421875 285.3103942871094 469.8509826660156 278.9685363769531 475.6424560546875 C 270.8106994628906 478.85894775390625 264.1165466308594 480.3592529296875 258.7191467285156 482.6043395996094 C 254.91989135742188 483.3408203125 253.27133178710938 485.4832763671875 254.2637481689453 488.016845703125 C 256.9366149902344 490.2146911621094 262.46697998046875 492.815673828125 269.6627502441406 494.7077331542969 C 277.3106384277344 497.43231201171875 282.9159240722656 499.7246398925781 285.0530090332031 503.7152099609375 C 281.41778564453125 511.1354064941406 273.3374938964844 523.485595703125 267.2010803222656 536.1573486328125 C 268.39361572265625 559.2555541992188 278.3755798339844 575.4283447265625 296.6975402832031 580.5741577148438 C 312.2087707519531 582.4471435546875 320.1614990234375 582.148681640625 320.16839599609375 583.5629272460938 C 310.8352966308594 583.3228759765625 301.14263916015625 582.8259887695312 288.0118408203125 580.0662841796875 C 278.0750732421875 571.3287353515625 270.7941589355469 558.6470336914062 267.9485778808594 543.6397094726562 C 267.44659423828125 530.6089477539062 260.120849609375 522.8805541992188 252.1752471923828 517.5445556640625 C 247.19419860839844 509.9170227050781 243.4146728515625 500.4219055175781 243.24581909179688 488.4532775878906 C 241.15699768066406 475.6094055175781 236.5404510498047 464.31048583984375 230.28526306152344 456.4749450683594 C 223.2607879638672 456.7659912109375 216.5090789794922 463.544189453125 211.9398956298828 475.6380310058594 C 208.505615234375 490.06402587890625 209.07179260253906 506.7486572265625 211.15411376953125 523.9025268554688 C 213.53834533691406 540.8656005859375 214.81051635742188 556.1390991210938 213.710205078125 569.0983276367188 C 207.0397186279297 577.9049072265625 196.2873077392578 583.8806762695312 182.52481079101562 586.9590454101562 C 167.8699188232422 587.4886474609375 153.0620880126953 585.880615234375 139.54080200195312 584.4677734375 C 131.26513671875 578.3783569335938 126.5584945678711 573.7592163085938 126.60184478759766 568.7146606445312 C 128.90028381347656 564.6007690429688 130.89096069335938 562.1871337890625 131.0154266357422 561.5032958984375 C 129.61770629882812 563.3043823242188 127.53556823730469 567.655029296875 127.85064697265625 573.2697143554688 C 132.3947296142578 581.5675659179688 144.46774291992188 586.29736328125 160.743408203125 588.6945190429688 C 178.75003051757812 587.5948486328125 196.72691345214844 582.4961547851562 210.9105224609375 573.2059326171875 C 216.9237823486328 562.306396484375 215.96075439453125 547.5743408203125 213.39175415039062 534.663330078125 C 206.54949951171875 527.573486328125 197.00601196289062 524.135009765625 187.8690948486328 524.5046997070312 C 178.67010498046875 524.9545288085938 171.52052307128906 524.6776123046875 166.87539672851562 521.731201171875 C 164.80291748046875 515.2108154296875 164.3108367919922 505.7289123535156 165.18663024902344 493.46234130859375 C 165.56103515625 479.2479248046875 165.26602172851562 463.7726135253906 163.8667449951172 447.6123046875 C 161.35118103027344 431.400390625 157.64840698242188 415.5951843261719 152.85189819335938 400.4971618652344 C 146.68179321289062 386.0826110839844 139.16368103027344 373.00347900390625 130.51596069335938 361.5186462402344 C 120.61143493652344 353.3090515136719 109.63267517089844 349.2495422363281 97.56486511230469 351.0850830078125 C 86.1714096069336 357.0713195800781 75.21575927734375 364.6033935546875 66.0254898071289 373.45709228515625 C 56.27402877807617 380.5152893066406 47.73194885253906 385.563232421875 39.28251647949219 388.29730224609375 C 31.634784698486328 388.57171630859375 24.900625228881836 386.5121765136719 19.376937866210938 382.3165283203125 C 15.495275497436523 376.1056213378906 13.83057689666748 368.54058837890625 14.845149040222168 360.23345947265625 C 19.116209030151367 352.126708984375 25.901262283325195 343.87664794921875 33.25796127319336 338.85888671875 C 45.42924118041992 333.1959228515625 57.27461624145508 326.9595642089844 69.4930419921875 318.027099609375 C 81.17303466796875 308.3297119140625 91.24716186523438 300.0061950683594 100.10769653320312 294.7210693359375 C 107.49591827392578 295.53240966796875 110.18914794921875 301.094970703125 111.57626342773438 310.5930480957031 C 111.46769714355469 320.5000305175781 111.74221801757812 329.3418884277344 112.18425750732422 336.812744140625 C 113.2539291381836 340.9159240722656 117.17908477783203 342.599853515625 122.69251251220703 342.028564453125 C 129.5094451904297 339.33575439453125 137.3349151611328 334.76580810546875 145.49008178710938 328.712890625 C 153.0977325439453 321.33984375 159.27850341796875 312.33099365234375 162.74180603027344 301.0372619628906 C 166.69192504882812 289.50494384765625 169.43983459472656 276.8394470214844 171.61280822753906 263.71087646484375 C 173.45570373535156 250.45742797851562 175.18104553222656 237.07376098632812 171.86444091796875 238.9815673828125" stroke-width="0.0" fill="rgb(247, 202, 101)" opacity="0.9996923" stroke="rgb(101, 210, 245)" stroke-opacity="0.5532081" stroke-linecap="round" stroke-linejoin="round"/>
    <path d="M 151.7109375 322.2679443359375 C 152.8826904296875 322.1298828125 154.0047607421875 321.9784851074219 155.06259155273438 321.9168701171875 C 156.06494140625 321.9742736816406 156.89913940429688 322.18505859375 157.49002075195312 322.6141662597656 C 157.85169982910156 323.2727966308594 158.02810668945312 324.0772399902344 158.0406494140625 324.9486389160156 C 157.96139526367188 325.817626953125 157.83602905273438 326.6999206542969 157.70082092285156 327.5763244628906 C 157.59396362304688 328.3667297363281 157.4639892578125 329.1164855957031 157.24424743652344 329.917724609375 C 156.87435913085938 330.8309631347656 156.30422973632812 331.95379638671875 155.48422241210938 333.49407958984375 C 154.37051391601562 335.5910949707031 152.9744873046875 338.3728332519531 151.4768829345703 342.0016174316406 C 150.04054260253906 346.42828369140625 148.81472778320312 351.638916015625 147.9088592529297 357.4601745605469 C 147.45193481445312 363.62188720703125 147.4553985595703 369.8493957519531 147.89419555664062 375.8247985839844 C 148.68109130859375 381.17742919921875 149.77919006347656 385.61260986328125 151.14926147460938 388.89910888671875 C 152.74114990234375 390.8482971191406 154.63784790039062 391.4499206542969 156.91787719726562 390.8193664550781 C 159.64520263671875 389.2757873535156 162.89804077148438 387.18597412109375 166.70697021484375 384.9898986816406 C 171.04977416992188 383.0704040527344 175.84112548828125 381.6644592285156 180.92396545410156 380.88726806640625 C 186.17376708984375 380.751708984375 191.48239135742188 381.1374816894531 196.75135803222656 381.9105529785156 C 201.8826141357422 382.930908203125 206.8543243408203 384.0615539550781 211.77227783203125 385.1980895996094 C 216.73382568359375 386.2275695800781 221.87196350097656 387.1227111816406 227.34286499023438 387.934326171875 C 233.15513610839844 388.6567687988281 239.3348388671875 389.3034362792969 245.78427124023438 389.85894775390625 C 252.36264038085938 390.2212829589844 258.9752502441406 390.291748046875 265.53924560546875 389.92572021484375 C 271.98138427734375 389.00738525390625 278.22027587890625 387.6575012207031 284.1640319824219 385.97100830078125 C 289.7138671875 384.1020812988281 294.86737060546875 382.4459533691406 299.5923767089844 381.29461669921875 C 303.7388610839844 380.9176025390625 307.2715759277344 381.58447265625 310.1138000488281 383.3974914550781 C 312.1788024902344 386.3876953125 313.4241027832031 390.4435119628906 313.9200134277344 395.35064697265625 C 313.6520690917969 400.9641418457031 312.8404235839844 407.1283264160156 311.65380859375 413.6947021484375 C 310.2344055175781 420.4898681640625 308.6953430175781 427.33148193359375 307.09478759765625 434.0663757324219 C 305.5500793457031 440.62493896484375 303.9476623535156 446.8901062011719 302.3154296875 452.72454833984375 C 300.459228515625 457.9490051269531 298.28607177734375 462.45703125 295.7208557128906 466.1443786621094 C 292.67901611328125 468.89776611328125 289.2113037109375 470.686279296875 285.332275390625 471.5843200683594 C 281.05426025390625 471.70257568359375 276.43194580078125 471.1982727050781 271.6164855957031 470.2850341796875 C 266.69403076171875 469.29547119140625 261.8285217285156 468.463623046875 257.2464904785156 468.0646667480469 C 253.15798950195312 468.2278747558594 249.69259643554688 468.9239196777344 246.9457550048828 470.0755310058594 C 245.02772521972656 471.7003479003906 243.74888610839844 473.36358642578125 242.9552459716797 474.6080322265625 C 242.4586639404297 475.16705322265625 242.0391387939453 474.90631103515625 241.48651123046875 473.7309875488281 C 240.61363220214844 471.6209716796875 239.34262084960938 468.88543701171875 237.66165161132812 465.87896728515625 C 235.59100341796875 463.05462646484375 233.1443634033203 460.9263610839844 230.3753662109375 459.95294189453125 C 227.4390106201172 460.48956298828125 224.40110778808594 462.6909484863281 221.40296936035156 466.4633483886719 C 218.62380981445312 471.3736267089844 216.15663146972656 476.8935852050781 214.11097717285156 482.4830322265625 C 212.56402587890625 487.4459228515625 211.641845703125 491.3024597167969 211.3346710205078 493.8206481933594 C 211.52145385742188 494.7662353515625 212.09695434570312 494.0823059082031 212.888671875 492.0191955566406 C 213.57733154296875 488.867919921875 213.87811279296875 484.9986877441406 213.35755920410156 480.8465881347656 C 211.6199951171875 476.9024353027344 208.48350524902344 473.5303955078125 204.00448608398438 470.9526062011719 C 198.39894104003906 469.21270751953125 192.04039001464844 468.20233154296875 185.4949951171875 467.9704284667969 C 179.2987518310547 468.6648864746094 173.85433959960938 470.4619140625 169.57200622558594 473.49639892578125 C 166.81561279296875 477.8923645019531 165.2402801513672 482.9434509277344 164.62222290039062 488.01153564453125 C 164.61080932617188 492.49566650390625 164.96209716796875 495.87652587890625 165.43995666503906 497.8193664550781 C 165.77423095703125 497.9593505859375 165.87965393066406 496.3480224609375 165.71627807617188 493.2343444824219 C 165.2537841796875 488.8235168457031 164.49490356445312 483.39044189453125 163.5620880126953 477.2383117675781 C 162.51817321777344 470.6953125 161.39767456054688 464.04498291015625 160.354248046875 457.4381103515625 C 159.45333862304688 450.9666748046875 158.67587280273438 444.6556701660156 158.02537536621094 438.5708923339844 C 157.49456787109375 432.7032165527344 156.99571228027344 427.0045471191406 156.46646118164062 421.4253234863281 C 155.80474853515625 415.94390869140625 154.91610717773438 410.4709777832031 153.63682556152344 404.9620056152344 C 152.01744079589844 399.400390625 150.03570556640625 393.73370361328125 147.653076171875 388.0389709472656 C 144.8362579345703 382.4595642089844 141.54400634765625 376.9219665527344 137.7433319091797 371.46160888671875 C 133.4531707763672 366.2578430175781 128.6681671142578 361.5382995605469 123.47420501708984 357.4938049316406 C 118.02046203613281 354.2917175292969 112.46856689453125 352.0987548828125 107.06904602050781 350.9261779785156 C 102.23213195800781 350.5349426269531 98.20563507080078 350.6755065917969 95.31835174560547 351.1058349609375 C 93.8180160522461 351.5084228515625 93.808837890625 351.5325622558594 95.29592895507812 350.9749755859375 C 98.19293975830078 349.8289489746094 102.24053192138672 348.1878356933594 107.15950012207031 346.1116027832031 C 112.73395538330078 343.6317443847656 118.69993591308594 340.9087219238281 124.71337890625 338.1277770996094 C 130.63626098632812 335.4042053222656 136.40585327148438 332.78399658203125 141.94053649902344 330.30548095703125 C 147.3767852783203 327.8803405761719 152.78187561035156 325.5151062011719 151.7109375 322.2679443359375" stroke-width="0.0" fill="rgb(242, 78, 7)" opacity="0.99989504" stroke="rgb(12, 185, 152)" stroke-opacity="0.1597591" stroke-linecap="round" stroke-linejoin="round"/>
    <path d="M 323.6734619140625 221.53262329101562 C 318.3569641113281 222.87229919433594 312.74859619140625 224.14613342285156 306.2981872558594 225.40277099609375 C 299.4933166503906 227.8538360595703 293.564453125 231.8594970703125 290.0083923339844 238.5924835205078 C 291.3301696777344 248.80538940429688 296.3182373046875 261.8223876953125 303.5185852050781 277.027587890625 C 311.0622863769531 293.9039611816406 317.29437255859375 311.89410400390625 321.0120544433594 330.6988830566406 C 321.59588623046875 349.997314453125 319.09429931640625 369.6192626953125 314.0599670410156 389.3440856933594 C 307.6289367675781 409.31658935546875 300.39599609375 429.6109619140625 293.1465759277344 450.1971130371094 C 286.93682861328125 470.8737487792969 282.90618896484375 491.16131591796875 282.6161804199219 509.82904052734375 C 288.7941589355469 525.2294311523438 300.7729797363281 537.085693359375 314.5967712402344 547.1395874023438 C 325.71136474609375 556.0825805664062 330.1660461425781 563.27587890625 324.28753662109375 570.554443359375 C 309.9153137207031 576.572265625 290.5369567871094 580.1309814453125 269.908447265625 580.2506713867188 C 251.8831024169922 576.3375854492188 240.19931030273438 566.1091918945312 236.38783264160156 549.1326904296875 C 238.4347381591797 527.1680297851562 242.0990447998047 503.70263671875 243.12045288085938 482.01708984375 C 240.12820434570312 465.7046203613281 233.17709350585938 458.0008239746094 223.83749389648438 461.6625671386719 C 215.36962890625 475.598876953125 211.0404052734375 495.68328857421875 211.73684692382812 518.770263671875 C 215.26788330078125 541.7113647460938 216.4431915283203 561.506103515625 209.5919189453125 576.1566772460938 C 194.0875244140625 585.2286987304688 174.17266845703125 589.4703979492188 154.0441436767578 589.4430541992188 C 137.43511962890625 585.6373291015625 128.03140258789062 578.687744140625 128.1009063720703 569.351318359375 C 137.5148468017578 558.1030883789062 151.12620544433594 545.4932861328125 163.41070556640625 530.896240234375 C 166.9247589111328 511.2934265136719 167.68148803710938 489.7610778808594 166.8197021484375 467.5917053222656 C 163.6956787109375 445.7787170410156 158.99505615234375 424.1832580566406 153.41159057617188 402.1446533203125 C 146.26815795898438 379.7278137207031 135.95814514160156 358.2926940917969 121.22588348388672 338.55303955078125 C 102.94894409179688 322.2252502441406 84.54354858398438 315.0330810546875 66.41849517822266 327.076416015625 C 47.51206970214844 347.6400451660156 32.5352783203125 365.7796936035156 23.407957077026367 379.6375427246094 C 20.098243713378906 389.1982421875 18.156343460083008 390.5047912597656 16.400590896606445 386.9419860839844 C 16.31985092163086 383.2999572753906 20.18790626525879 381.01708984375 28.826385498046875 374.98675537109375 C 37.232173919677734 361.4305114746094 49.14936828613281 345.120849609375 65.24922180175781 330.205810546875 C 79.7627182006836 320.3580017089844 82.56884002685547 315.57452392578125 79.04859161376953 315.1864013671875 C 84.08247375488281 320.4029235839844 101.84607696533203 325.3548889160156 118.99061584472656 329.99420166015625 C 134.51683044433594 331.6011657714844 146.22235107421875 327.34710693359375 154.7374725341797 315.91943359375 C 160.65155029296875 299.76898193359375 164.72817993164062 282.6441955566406 168.9422149658203 267.24578857421875 C 175.17367553710938 255.11570739746094 183.07720947265625 247.0096435546875 191.70233154296875 243.0010986328125 C 200.0079345703125 242.51712036132812 206.6611785888672 243.30325317382812 210.29782104492188 244.46142578125 C 210.25404357910156 246.29685974121094 206.8643035888672 250.66714477539062 201.3944091796875 258.6062927246094 C 195.1814422607422 270.7418518066406 188.11648559570312 285.7332458496094 180.12693786621094 301.8544006347656 C 171.92666625976562 317.8307189941406 164.5196533203125 333.4931335449219 158.59364318847656 349.1252746582031 C 155.21449279785156 365.07861328125 154.2670135498047 381.9334411621094 155.2903289794922 400.22735595703125 C 157.74276733398438 420.27392578125 160.70999145507812 441.83770751953125 162.93783569335938 463.89642333984375 C 163.3240509033203 484.94061279296875 162.39540100097656 503.1923522949219 163.59686279296875 516.9700927734375 C 168.01766967773438 525.345947265625 172.40162658691406 528.2720947265625 173.66920471191406 527.3123168945312 C 170.5679473876953 526.0574951171875 164.97305297851562 528.4948120117188 157.43785095214844 536.9366455078125 C 147.38427734375 548.791748046875 136.21080017089844 560.3662109375 128.10447692871094 570.3823852539062 C 128.33067321777344 578.5046997070312 136.03231811523438 583.45751953125 149.5374298095703 586.0674438476562 C 165.88543701171875 587.3533325195312 182.50746154785156 587.3601684570312 197.29298400878906 585.1569213867188 C 208.2620086669922 579.5282592773438 214.06723022460938 569.3927001953125 215.13632202148438 554.5909423828125 C 213.51864624023438 536.3779907226562 211.56472778320312 516.0353393554688 211.7633514404297 495.657958984375 C 215.51522827148438 477.2442626953125 221.47113037109375 463.2972717285156 228.70233154296875 456.4866943359375 C 236.4491424560547 459.58074951171875 242.9342803955078 470.0379943847656 246.44937133789062 485.13079833984375 C 245.0782012939453 502.2733154296875 240.35845947265625 519.4775390625 235.09849548339844 535.5706787109375 C 232.25985717773438 549.722412109375 234.84521484375 561.344970703125 245.67396545410156 569.80126953125 C 264.6600646972656 574.886474609375 287.3017272949219 577.671875 308.8258361816406 577.7322998046875 C 324.5451965332031 574.2860717773438 330.14129638671875 567.2030639648438 324.928466796875 557.040283203125 C 315.00396728515625 546.2645874023438 302.06085205078125 536.9952392578125 291.6259765625 526.1967163085938 C 285.3381652832031 513.5989379882812 282.2320861816406 501.4251403808594 280.5003356933594 490.4859924316406 C 279.9511413574219 480.70318603515625 281.483154296875 471.296630859375 285.0360412597656 461.2481384277344 C 290.20440673828125 449.5493469238281 296.55023193359375 435.6856994628906 303.5723876953125 419.62921142578125 C 310.4223327636719 401.67755126953125 316.1725158691406 382.4605712890625 319.55853271484375 362.8158874511719 C 318.6997375488281 343.853759765625 312.4390563964844 325.6274719238281 302.5341491699219 308.2735595703125 C 291.09417724609375 292.1143798828125 280.69879150390625 277.37872314453125 273.3897705078125 264.5386657714844 C 270.8443908691406 254.0323486328125 274.0263977050781 245.6862335205078 281.22412109375 239.17259216308594 C 290.6897277832031 233.49732971191406 300.8592224121094 227.80978393554688 323.6734619140625 221.53262329101562" stroke-width="0.0" fill="rgb(203, 168, 194)" opacity="0.9996637" stroke="rgb(169, 68, 231)" stroke-opacity="0.9075586" stroke-linecap="round" stroke-linejoin="round"/>
    <path d="M 289.0 15.0 C 290.0 15.0 291.0 16.0 292.0 16.0 C 293.0 15.0 294.0 15.0 295.0 15.0 C 296.0 15.0 296.0 16.0 297.0 17.0 C 302.0 18.0 303.0 24.0 302.0 30.0 C 307.0 33.0 312.0 35.0 316.0 37.0 C 316.0 40.0 319.0 44.0 319.0 48.0 C 318.0 54.0 318.0 60.0 321.0 64.0 C 323.0 61.0 327.0 65.0 333.0 65.0 C 336.0 68.0 336.0 68.0 334.0 74.0 C 332.0 79.0 327.0 78.0 321.0 78.0 C 315.0 80.0 314.0 81.0 309.0 78.0 C 303.0 79.0 302.0 85.0 305.0 90.0 C 303.0 92.0 300.0 96.0 295.0 94.0 C 292.0 95.0 287.0 96.0 282.0 94.0 C 276.0 94.0 270.0 94.0 264.0 94.0 C 258.0 94.0 257.0 90.0 257.0 84.0 C 254.0 78.0 248.0 78.0 242.0 78.0 C 236.0 78.0 230.0 78.0 226.0 78.0 C 222.0 81.0 222.0 87.0 222.0 93.0 C 222.0 99.0 222.0 105.0 226.0 108.0 C 228.0 111.0 224.0 108.0 220.0 110.0 C 214.0 110.0 208.0 110.0 202.0 110.0 C 196.0 110.0 190.0 111.0 184.0 110.0 C 180.0 114.0 179.0 110.0 173.0 110.0 C 167.0 110.0 161.0 110.0 159.0 111.0 C 153.0 110.0 147.0 110.0 142.0 113.0 C 142.0 119.0 142.0 125.0 143.0 131.0 C 142.0 137.0 143.0 143.0 144.0 143.0 C 142.0 147.0 140.0 143.0 134.0 142.0 C 128.0 142.0 126.0 148.0 126.0 154.0 C 129.0 159.0 129.0 165.0 126.0 169.0 C 127.0 175.0 126.0 177.0 126.0 183.0 C 126.0 189.0 121.0 190.0 117.0 190.0 C 111.0 191.0 105.0 190.0 99.0 190.0 C 93.0 190.0 87.0 190.0 81.0 190.0 C 75.0 190.0 69.0 190.0 65.0 188.0 C 65.0 182.0 65.0 176.0 65.0 170.0 C 64.0 166.0 65.0 160.0 68.0 160.0 C 74.0 160.0 80.0 160.0 81.0 154.0 C 81.0 148.0 81.0 142.0 80.0 136.0 C 81.0 130.0 81.0 124.0 82.0 119.0 C 88.0 119.0 87.0 113.0 93.0 113.0 C 97.0 110.0 97.0 104.0 97.0 98.0 C 102.0 97.0 108.0 97.0 113.0 94.0 C 108.0 91.0 112.0 89.0 113.0 83.0 C 117.0 81.0 123.0 80.0 126.0 76.0 C 129.0 71.0 129.0 65.0 135.0 65.0 C 140.0 62.0 144.0 59.0 145.0 53.0 C 147.0 49.0 153.0 49.0 159.0 49.0 C 161.0 43.0 161.0 37.0 163.0 33.0 C 167.0 30.0 171.0 32.0 175.0 33.0 C 181.0 33.0 187.0 33.0 190.0 36.0 C 190.0 42.0 192.0 48.0 198.0 49.0 C 204.0 49.0 210.0 49.0 216.0 49.0 C 222.0 49.0 224.0 44.0 225.0 38.0 C 227.0 33.0 231.0 33.0 237.0 33.0 C 241.0 29.0 241.0 23.0 246.0 23.0 C 247.0 17.0 253.0 17.0 259.0 17.0 C 265.0 17.0 271.0 17.0 277.0 17.0 C 283.0 17.0 288.0 15.0 289.0 15.0" stroke-width="0.0" fill="rgb(60, 40, 37)" opacity="1.0" stroke="rgb(236, 166, 247)" stroke-opacity="0.77848464" stroke-linecap="round" stroke-linejoin="round"/>
    <path d="M 436.0 286.0 C 437.0 286.0 437.0 287.0 438.0 288.0 C 438.0 289.0 437.0 290.0 437.0 291.0 C 436.0 292.0 436.0 293.0 436.0 294.0 C 437.0 295.0 438.0 295.0 439.0 295.0 C 440.0 295.0 441.0 294.0 441.0 293.0 C 442.0 293.0 443.0 293.0 442.0 294.0 C 442.0 295.0 441.0 295.0 439.0 298.0 C 440.0 301.0 443.0 304.0 446.0 304.0 C 447.0 305.0 448.0 308.0 450.0 310.0 C 453.0 310.0 454.0 307.0 454.0 307.0 C 456.0 309.0 458.0 311.0 461.0 311.0 C 464.0 313.0 462.0 313.0 459.0 312.0 C 456.0 312.0 455.0 315.0 457.0 317.0 C 460.0 318.0 463.0 318.0 465.0 316.0 C 467.0 317.0 466.0 319.0 463.0 320.0 C 461.0 318.0 458.0 318.0 455.0 317.0 C 453.0 316.0 450.0 316.0 447.0 317.0 C 447.0 320.0 448.0 323.0 451.0 324.0 C 453.0 326.0 456.0 328.0 459.0 329.0 C 461.0 331.0 462.0 334.0 459.0 334.0 C 457.0 332.0 454.0 332.0 451.0 331.0 C 449.0 329.0 446.0 328.0 444.0 326.0 C 442.0 323.0 439.0 325.0 438.0 328.0 C 438.0 331.0 439.0 333.0 437.0 332.0 C 435.0 331.0 435.0 334.0 435.0 337.0 C 438.0 338.0 437.0 338.0 434.0 340.0 C 433.0 343.0 435.0 344.0 437.0 347.0 C 440.0 348.0 442.0 348.0 443.0 351.0 C 441.0 353.0 439.0 354.0 436.0 352.0 C 436.0 350.0 433.0 348.0 430.0 346.0 C 428.0 343.0 427.0 340.0 424.0 339.0 C 421.0 339.0 419.0 337.0 416.0 336.0 C 413.0 335.0 412.0 334.0 412.0 331.0 C 410.0 329.0 408.0 331.0 407.0 329.0 C 406.0 327.0 404.0 326.0 401.0 324.0 C 402.0 324.0 404.0 322.0 405.0 320.0 C 407.0 318.0 408.0 315.0 408.0 312.0 C 411.0 312.0 413.0 313.0 411.0 315.0 C 411.0 318.0 409.0 317.0 409.0 320.0 C 412.0 320.0 415.0 320.0 418.0 320.0 C 421.0 320.0 424.0 320.0 425.0 318.0 C 428.0 317.0 427.0 314.0 425.0 313.0 C 422.0 314.0 420.0 315.0 417.0 316.0 C 415.0 318.0 415.0 315.0 418.0 314.0 C 421.0 314.0 424.0 312.0 425.0 309.0 C 423.0 306.0 420.0 307.0 418.0 309.0 C 416.0 309.0 417.0 307.0 420.0 306.0 C 419.0 303.0 416.0 303.0 413.0 304.0 C 410.0 305.0 407.0 305.0 408.0 305.0 C 409.0 302.0 406.0 300.0 403.0 300.0 C 400.0 301.0 399.0 298.0 398.0 295.0 C 395.0 295.0 392.0 294.0 392.0 291.0 C 395.0 291.0 398.0 291.0 401.0 292.0 C 403.0 295.0 406.0 295.0 408.0 298.0 C 411.0 299.0 413.0 300.0 415.0 301.0 C 415.0 298.0 417.0 297.0 417.0 300.0 C 420.0 301.0 421.0 298.0 420.0 296.0 C 423.0 295.0 425.0 295.0 427.0 294.0 C 430.0 292.0 433.0 293.0 436.0 291.0 C 437.0 288.0 435.0 286.0 436.0 286.0" stroke-width="0.0" fill="rgb(251, 188, 105)" opacity="1.0" stroke="rgb(129, 206, 209)" stroke-opacity="0.07474356" stroke-linecap="round" stroke-linejoin="round"/>
  </g>
</svg>
