<?xml version="1.0" ?>
<svg xmlns="http://www.w3.org/2000/svg" version="1.1" width="474" height="596">
  <defs/>
  <g>
    <path d="M 267.36798095703125 -1.096299171447754 C 268.0091247558594 -0.5875347256660461 268.775146484375 -0.6213669776916504 269.1378479003906 -0.8069953322410583 C 269.7298583984375 -0.8779956102371216 270.43133544921875 -1.2122958898544312 270.9574890136719 -1.6848822832107544 C 271.6969299316406 -2.1304712295532227 272.43096923828125 -2.8484301567077637 272.85150146484375 -3.450446605682373 C 273.25286865234375 -3.5658118724823 274.16949462890625 -3.465894937515259 275.26043701171875 -3.3342525959014893 C 276.5363464355469 -2.6831209659576416 278.30987548828125 -1.3930201530456543 281.2012023925781 -0.976533055305481 C 284.90875244140625 0.8035981059074402 289.7303771972656 2.344064712524414 296.594970703125 3.5572071075439453 C 303.62115478515625 5.651932716369629 312.09716796875 7.999330043792725 320.1153259277344 11.75986099243164 C 328.9712219238281 15.218159675598145 337.2447204589844 19.796722412109375 345.1978759765625 24.64984703063965 C 353.6083679199219 29.17524528503418 361.1490173339844 35.33987808227539 369.2169189453125 41.637054443359375 C 377.25897216796875 48.38595962524414 384.96331787109375 55.599266052246094 392.0735778808594 63.36670684814453 C 399.3735046386719 70.58577728271484 404.90496826171875 79.54177856445312 411.7258605957031 87.0326919555664 C 417.2598876953125 95.75679016113281 423.1785888671875 103.6563949584961 427.79669189453125 112.24935913085938 C 432.4176940917969 119.98918914794922 434.6230163574219 128.02813720703125 431.7920227050781 136.59046936035156 C 428.1186218261719 145.2821807861328 422.2286071777344 152.78057861328125 415.7194519042969 161.251953125 C 408.055908203125 168.10557556152344 400.5555725097656 175.76023864746094 393.25872802734375 183.07159423828125 C 384.6304626464844 189.1731414794922 378.3495178222656 197.6413116455078 368.9687805175781 203.41787719726562 C 359.92144775390625 209.80560302734375 350.52191162109375 215.8993377685547 340.76861572265625 219.8570098876953 C 331.5296630859375 223.08462524414062 324.54376220703125 224.7543182373047 319.3162536621094 224.46035766601562 C 319.5199890136719 220.8041534423828 322.26605224609375 215.1020965576172 327.0414123535156 208.67764282226562 C 334.0133361816406 202.14364624023438 341.9223937988281 195.34469604492188 349.7483215332031 188.4414825439453 C 356.7052001953125 181.25717163085938 362.3114318847656 173.80361938476562 366.5248107910156 166.03659057617188 C 369.2145690917969 157.8576202392578 370.4422607421875 149.5500946044922 370.2552490234375 141.17031860351562 C 368.7819519042969 132.9326171875 365.9885559082031 125.0463638305664 362.2805480957031 117.67780303955078 C 357.67724609375 111.36810302734375 352.3604736328125 106.11526489257812 346.419189453125 102.13887023925781 C 340.0351867675781 99.6429214477539 333.15777587890625 98.62604522705078 326.20367431640625 100.49613189697266 C 317.51904296875 99.8957748413086 309.4703674316406 101.84233093261719 301.6865539550781 104.94449615478516 C 291.67706298828125 105.79032897949219 282.620849609375 107.00811767578125 273.92498779296875 109.23285675048828 C 266.0267333984375 108.85997772216797 259.1874694824219 107.38832092285156 253.88662719726562 106.27629852294922 C 250.33741760253906 103.97235107421875 247.81776428222656 103.39778900146484 246.43246459960938 103.96504974365234 C 245.8397674560547 106.02943420410156 244.91000366210938 109.43387603759766 242.19871520996094 113.15473175048828 C 236.25375366210938 116.78327178955078 229.06434631347656 120.94730377197266 221.06861877441406 125.20193481445312 C 211.14727783203125 128.7987518310547 201.56285095214844 132.36581420898438 191.68594360351562 134.83328247070312 C 182.4862823486328 136.44920349121094 174.92784118652344 137.53732299804688 168.84024047851562 138.707275390625 C 164.36654663085938 139.8765106201172 161.03433227539062 141.33621215820312 158.41006469726562 143.3866424560547 C 156.086669921875 146.32350158691406 153.83213806152344 150.3931427001953 151.50363159179688 155.77130126953125 C 149.42529296875 162.2298583984375 147.80349731445312 169.609130859375 147.09884643554688 177.57473754882812 C 147.93675231933594 185.77845764160156 150.4574432373047 194.10609436035156 154.7438507080078 202.21812438964844 C 160.9541015625 209.72328186035156 168.89620971679688 216.55679321289062 178.0468292236328 222.75242614746094 C 187.5596466064453 228.15670776367188 196.4988250732422 232.9199676513672 204.38043212890625 236.82102966308594 C 209.76426696777344 240.2071533203125 211.60313415527344 243.11192321777344 210.03326416015625 245.23989868164062 C 205.46498107910156 246.096435546875 198.49575805664062 245.8403778076172 190.19032287597656 244.69212341308594 C 181.34359741210938 243.30271911621094 171.88925170898438 241.8616943359375 162.55810546875 240.70848083496094 C 153.32177734375 240.9792022705078 144.11805725097656 240.6563720703125 136.18959045410156 239.377685546875 C 128.11639404296875 238.0379638671875 120.12258911132812 236.60353088378906 112.36014556884766 234.41561889648438 C 103.90667724609375 231.98036193847656 95.10728454589844 229.2194366455078 86.80545806884766 225.64208984375 C 78.17076873779297 222.23814392089844 70.14134216308594 218.4947967529297 63.24770736694336 214.1720733642578 C 58.22021484375 208.63783264160156 54.53022003173828 202.896728515625 53.384944915771484 196.01705932617188 C 53.63359451293945 187.1319580078125 54.84352493286133 178.4997100830078 56.72114562988281 169.30902099609375 C 58.14036178588867 160.52610778808594 60.34941482543945 152.03858947753906 62.84813690185547 143.87718200683594 C 64.93525695800781 136.06106567382812 67.909912109375 128.98110961914062 71.09974670410156 121.37644958496094 C 74.45881652832031 113.6943130493164 78.3840560913086 105.76600646972656 83.10274505615234 97.7216796875 C 88.18303680419922 89.47496795654297 93.78646087646484 81.21544647216797 100.37589263916016 73.3104476928711 C 107.22433471679688 65.12899017333984 114.5049057006836 57.21992111206055 122.67462158203125 50.166107177734375 C 130.2975311279297 42.87664794921875 138.92445373535156 37.26689910888672 146.6204071044922 31.452831268310547 C 154.21246337890625 26.432415008544922 161.76226806640625 24.47134780883789 171.68800354003906 23.805381774902344 C 180.60545349121094 23.212318420410156 189.18759155273438 24.741865158081055 197.4429931640625 26.622665405273438 C 204.73069763183594 28.524473190307617 209.21641540527344 30.496870040893555 213.38426208496094 28.503787994384766 C 217.90049743652344 29.646373748779297 223.90554809570312 29.53173828125 227.506591796875 25.747188568115234 C 233.05963134765625 19.588008880615234 239.56851196289062 12.730515480041504 248.49295043945312 7.685925006866455 C 257.87713623046875 2.7580251693725586 268.76983642578125 -0.5834676027297974 267.36798095703125 -1.096299171447754" stroke-width="0.0" fill="rgb(64, 38, 30)" opacity="0.9999957" stroke="rgb(221, 110, 77)" stroke-opacity="0.39469033" stroke-linecap="round" stroke-linejoin="round"/>
    <path d="M 279.830322265625 238.40219116210938 C 287.7995300292969 239.7207794189453 297.2628479003906 240.6253204345703 307.7400817871094 241.51422119140625 C 320.32623291015625 243.61192321777344 334.65814208984375 247.52943420410156 351.0903015136719 254.90245056152344 C 368.1449279785156 265.7581787109375 384.9393615722656 276.5586853027344 398.526123046875 285.1206359863281 C 405.8908996582031 290.3830871582031 406.3924255371094 292.03662109375 400.33367919921875 291.28631591796875 C 390.537841796875 289.745849609375 380.7114562988281 289.69097900390625 374.2691345214844 292.7607421875 C 374.23486328125 298.9809265136719 380.6092834472656 308.20458984375 392.13909912109375 319.8117370605469 C 406.7760314941406 332.04254150390625 420.0602722167969 342.0867004394531 427.6363830566406 349.3442077636719 C 427.79901123046875 347.50933837890625 419.7552490234375 340.7322998046875 404.18902587890625 331.7994384765625 C 381.3162841796875 328.63287353515625 358.3468933105469 324.90252685546875 339.053466796875 320.7698059082031 C 326.50067138671875 323.4102478027344 323.45751953125 333.0077209472656 322.5084228515625 350.57916259765625 C 323.73974609375 370.2391357421875 317.9059753417969 390.69921875 309.09783935546875 412.49530029296875 C 301.0468444824219 434.70684814453125 295.7306823730469 457.0482482910156 290.3666687011719 478.05548095703125 C 289.3951110839844 496.1603698730469 291.7945251464844 511.3439636230469 292.9253234863281 522.1954956054688 C 289.27044677734375 527.0338745117188 279.0374755859375 526.59765625 265.4039306640625 525.5023193359375 C 251.3765411376953 525.2098999023438 239.23513793945312 529.687255859375 234.2749481201172 538.6983642578125 C 235.4711151123047 556.0933227539062 243.74224853515625 570.6973876953125 260.1971740722656 579.0346069335938 C 279.41558837890625 581.8570556640625 299.04107666015625 579.7113647460938 315.7997741699219 579.0743408203125 C 326.6397399902344 577.5103149414062 329.33251953125 578.4689331054688 322.7617492675781 580.1869506835938 C 308.7697448730469 580.3299560546875 291.4417724609375 581.3916625976562 273.87066650390625 580.755859375 C 255.66323852539062 576.5084228515625 242.23590087890625 569.5389404296875 237.1800079345703 555.8228149414062 C 237.2036895751953 535.8367919921875 238.1172332763672 513.48974609375 242.5904541015625 490.82342529296875 C 242.17674255371094 473.3110656738281 236.85211181640625 460.56689453125 228.94000244140625 456.1009216308594 C 221.5473175048828 463.097412109375 214.22564697265625 474.35791015625 206.67636108398438 484.59423828125 C 199.17881774902344 490.398193359375 192.5229034423828 492.265625 187.65972900390625 492.349853515625 C 185.36570739746094 492.8398132324219 186.3794708251953 496.16973876953125 190.68064880371094 503.6119079589844 C 197.5167999267578 514.9425659179688 205.75979614257812 529.4141235351562 213.73898315429688 545.1610107421875 C 217.3518524169922 560.404541015625 213.71395874023438 573.9423217773438 202.29037475585938 583.6598510742188 C 183.3749542236328 589.8237915039062 163.80429077148438 594.0966796875 144.9424591064453 594.839111328125 C 131.09153747558594 591.67431640625 124.05995178222656 586.1436157226562 125.88232421875 579.7837524414062 C 135.60714721679688 581.4172973632812 151.8772430419922 582.3989868164062 168.2938232421875 584.2606811523438 C 188.63821411132812 583.2029418945312 203.859130859375 577.7537231445312 214.52626037597656 568.9044799804688 C 216.64332580566406 555.6506958007812 213.59796142578125 542.6250610351562 206.78419494628906 532.1309814453125 C 196.01666259765625 526.5640258789062 185.3035430908203 524.4760131835938 175.84524536132812 523.8284912109375 C 169.11878967285156 522.4852294921875 165.40313720703125 518.9716796875 164.37962341308594 511.8807678222656 C 164.73321533203125 500.54876708984375 164.2259521484375 484.97393798828125 162.4755401611328 466.4189453125 C 158.4286346435547 445.68719482421875 154.07513427734375 424.0284423828125 151.84193420410156 402.1305236816406 C 141.4332275390625 383.091552734375 132.3640899658203 366.9828186035156 120.80287170410156 355.2823791503906 C 109.67381286621094 349.5613708496094 100.0146713256836 349.4109802246094 92.8177490234375 354.37603759765625 C 87.27949523925781 356.66595458984375 87.14949798583984 355.7778015136719 91.42343139648438 350.84417724609375 C 97.78382110595703 343.1548156738281 104.12081909179688 333.3148193359375 109.1279067993164 322.7751159667969 C 111.50772094726562 312.3352355957031 110.44674682617188 302.8104248046875 106.27816009521484 294.64691162109375 C 99.9857406616211 288.0484619140625 96.13664245605469 282.22235107421875 97.80204010009766 275.3021240234375 C 106.17459869384766 267.5740051269531 118.8967056274414 259.9629211425781 133.7631378173828 252.15968322753906 C 148.10325622558594 245.59890747070312 159.60397338867188 242.11395263671875 167.83914184570312 245.1656494140625 C 169.3570556640625 253.08265686035156 165.87660217285156 265.1347351074219 161.87037658691406 281.4579772949219 C 157.009521484375 299.0830078125 152.73629760742188 317.1602478027344 151.05148315429688 334.5646667480469 C 152.94627380371094 349.9096984863281 156.0814208984375 361.9290771484375 159.1110382080078 369.8425598144531 C 159.31752014160156 373.0987243652344 159.6122283935547 370.9225769042969 159.95278930664062 364.06317138671875 C 160.87574768066406 354.0542297363281 164.08726501464844 341.177001953125 167.94088745117188 326.8367004394531 C 174.16729736328125 313.0339050292969 181.94264221191406 302.0152282714844 187.23947143554688 291.7757568359375 C 191.7002716064453 284.80322265625 195.0070037841797 279.3050231933594 195.6720428466797 273.7671203613281 C 197.1566925048828 267.59442138671875 198.48605346679688 260.6697082519531 203.27474975585938 254.77281188964844 C 210.432861328125 250.83604431152344 219.3815155029297 250.61880493164062 229.962646484375 251.76736450195312 C 241.6311798095703 253.0577850341797 253.5232391357422 255.86239624023438 265.3442077636719 261.98406982421875 C 275.18994140625 272.0649108886719 282.9652099609375 285.2043151855469 291.981201171875 296.4935607910156 C 301.4737854003906 305.92852783203125 304.6373291015625 314.0087890625 312.0792541503906 316.94061279296875 C 314.8005065917969 316.0035705566406 317.48052978515625 312.9149475097656 316.3785705566406 308.6998596191406 C 318.79010009765625 304.45404052734375 318.8010559082031 299.6497497558594 317.1361083984375 294.2648620605469 C 316.7845764160156 287.08563232421875 314.5780944824219 278.4404296875 309.1971740722656 269.67303466796875 C 303.44122314453125 259.71038818359375 296.88836669921875 248.883056640625 279.830322265625 238.40219116210938" stroke-width="0.0" fill="rgb(252, 110, 165)" opacity="0.99996954" stroke="rgb(18, 70, 167)" stroke-opacity="0.20473738" stroke-linecap="round" stroke-linejoin="round"/>
    <path d="M 239.15005493164062 96.8493423461914 C 240.91835021972656 96.12310791015625 241.27223205566406 96.49816131591797 241.84967041015625 96.56631469726562 C 242.71051025390625 96.54908752441406 243.34579467773438 96.6169204711914 243.46420288085938 97.60847473144531 C 243.964111328125 98.49651336669922 244.77130126953125 99.3867416381836 246.0377960205078 99.80126190185547 C 247.58702087402344 100.60759735107422 250.86402893066406 101.1501235961914 251.9478302001953 103.57852935791016 C 254.24114990234375 106.01170349121094 257.7749328613281 107.28585815429688 261.6229248046875 107.61343383789062 C 266.1347961425781 108.74288940429688 270.6557922363281 108.89655303955078 275.0975646972656 106.892578125 C 279.8961181640625 106.89999389648438 284.45916748046875 106.47823333740234 289.1010437011719 105.84446716308594 C 293.9705505371094 106.40177154541016 298.2407531738281 106.28620147705078 302.38555908203125 106.47721862792969 C 306.1471862792969 107.8402099609375 309.7137145996094 109.88836669921875 313.07562255859375 112.76036071777344 C 316.18145751953125 116.37372589111328 319.04638671875 120.60738372802734 321.8655700683594 125.0594253540039 C 324.9197082519531 129.3172607421875 328.1346740722656 132.54196166992188 332.0063781738281 133.5850372314453 C 336.6902160644531 132.7259063720703 341.28570556640625 132.32196044921875 343.13690185546875 127.48461151123047 C 346.23150634765625 123.6852035522461 346.42791748046875 118.32975769042969 343.27386474609375 113.38261413574219 C 343.1971435546875 107.97360229492188 339.80206298828125 104.68934631347656 337.88458251953125 101.52407836914062 C 338.3734130859375 98.28279113769531 339.6263122558594 97.73291778564453 342.87274169921875 98.90028381347656 C 346.8741760253906 100.5400390625 352.0413513183594 104.21382904052734 357.3523864746094 108.27055358886719 C 361.1565246582031 114.47602081298828 364.90380859375 120.3951644897461 368.0000305175781 126.14971923828125 C 369.5323181152344 133.7066650390625 370.48150634765625 140.86056518554688 370.2973327636719 147.74766540527344 C 369.4220275878906 154.2309112548828 368.87139892578125 160.3445281982422 367.4681701660156 166.89260864257812 C 365.591796875 173.5719757080078 361.6025390625 179.9260711669922 358.2520751953125 185.93417358398438 C 354.189697265625 191.26318359375 348.86859130859375 196.8457489013672 343.53509521484375 202.34088134765625 C 338.9281005859375 207.99734497070312 333.26531982421875 212.46536254882812 327.1328430175781 214.8616485595703 C 321.62298583984375 218.10324096679688 316.6673278808594 221.1373291015625 311.7294006347656 225.01708984375 C 305.7010498046875 226.51222229003906 300.0323181152344 228.66897583007812 295.1554870605469 232.59141540527344 C 290.1662292480469 233.99217224121094 287.1425476074219 237.6477813720703 287.2151184082031 242.74278259277344 C 289.6988220214844 248.68080139160156 293.578857421875 254.642578125 297.6970520019531 259.8778991699219 C 301.0677795410156 264.3275146484375 303.5881652832031 266.6669921875 304.5965576171875 266.97113037109375 C 303.87066650390625 265.33624267578125 301.312255859375 262.2882995605469 297.5827331542969 258.3314208984375 C 293.050537109375 254.44752502441406 288.29461669921875 251.2667999267578 283.909912109375 249.43601989746094 C 280.3072509765625 249.43490600585938 277.7601013183594 251.1705322265625 276.06671142578125 254.36817932128906 C 275.1434631347656 258.2461853027344 274.7255554199219 262.1615905761719 274.2946472167969 265.4501037597656 C 273.2916564941406 267.3536376953125 271.4737548828125 267.5699157714844 268.793212890625 265.24713134765625 C 264.8980712890625 261.26513671875 259.2314147949219 258.6251220703125 252.985595703125 255.18576049804688 C 245.39776611328125 253.2532958984375 238.71636962890625 251.68667602539062 232.68231201171875 250.3508758544922 C 227.72406005859375 248.07411193847656 222.9300079345703 247.7455596923828 218.47438049316406 247.14022827148438 C 214.0648193359375 248.19866943359375 209.75660705566406 250.97222900390625 204.79974365234375 253.8754119873047 C 200.9716339111328 257.6752014160156 197.57923889160156 261.50244140625 194.72640991210938 264.6029968261719 C 192.8369903564453 266.79541015625 192.1604461669922 267.8345642089844 192.90003967285156 267.4717712402344 C 194.87347412109375 265.63140869140625 197.97265625 262.51861572265625 201.25778198242188 257.0972595214844 C 205.37948608398438 253.49658203125 208.85202026367188 248.81678771972656 211.29525756835938 243.8468017578125 C 209.5363311767578 240.5492706298828 205.06546020507812 237.62437438964844 199.5765838623047 235.6870880126953 C 193.6961212158203 231.5111846923828 185.50070190429688 228.37478637695312 178.72714233398438 223.7282257080078 C 171.30177307128906 219.105712890625 163.79273986816406 214.785888671875 158.09347534179688 207.79656982421875 C 151.97007751464844 202.9562530517578 148.26580810546875 196.3551483154297 145.36659240722656 189.8983917236328 C 145.66978454589844 180.693359375 145.59915161132812 173.80978393554688 146.58572387695312 165.8649444580078 C 146.38427734375 160.09161376953125 148.67701721191406 153.44369506835938 152.18450927734375 148.76187133789062 C 156.78614807128906 146.63270568847656 158.2074432373047 142.98629760742188 158.6970977783203 139.38442993164062 C 162.61399841308594 138.67640686035156 165.0564422607422 137.5851593017578 168.6377716064453 139.12071228027344 C 170.8587646484375 137.00657653808594 174.7183380126953 136.33030700683594 179.5147705078125 135.6086883544922 C 185.3546905517578 136.01922607421875 191.26535034179688 135.18081665039062 197.43905639648438 134.4216766357422 C 203.30142211914062 134.13319396972656 208.65460205078125 134.95077514648438 213.2416534423828 136.77088928222656 C 216.6630096435547 139.99339294433594 218.97610473632812 144.04364013671875 220.30535888671875 148.39697265625 C 221.0921630859375 152.83250427246094 221.75743103027344 157.03549194335938 222.8594207763672 160.23155212402344 C 226.21998596191406 161.1693572998047 230.35177612304688 160.5565948486328 234.3260955810547 157.79115295410156 C 238.87026977539062 157.17538452148438 242.2002716064453 153.82443237304688 245.281494140625 150.35023498535156 C 245.55221557617188 146.73036193847656 244.72262573242188 143.14773559570312 243.14544677734375 139.67918395996094 C 241.0924835205078 136.47373962402344 238.97340393066406 133.63247680664062 237.28353881835938 130.82437133789062 C 235.09788513183594 128.21897888183594 235.5760040283203 125.12351989746094 235.46092224121094 119.72517395019531 C 237.00364685058594 116.41690063476562 240.30796813964844 113.63140106201172 244.93582153320312 111.3093490600586 C 244.66690063476562 104.82926940917969 246.73779296875 100.12720489501953 239.15005493164062 96.8493423461914" stroke-width="0.0" fill="rgb(249, 187, 106)" opacity="0.99955267" stroke="rgb(106, 3, 40)" stroke-opacity="0.55238646" stroke-linecap="round" stroke-linejoin="round"/>
    <path d="M 171.79278564453125 238.86964416503906 C 176.17059326171875 238.86782836914062 180.365478515625 238.3063507080078 184.29171752929688 239.1377410888672 C 187.8032989501953 241.8414764404297 190.69168090820312 246.3143768310547 192.53182983398438 252.84654235839844 C 192.72618103027344 261.3150939941406 191.1713104248047 271.72186279296875 187.54981994628906 283.6412048339844 C 182.1802215576172 296.30157470703125 175.6302032470703 309.0640869140625 168.5498809814453 321.2960510253906 C 161.48654174804688 332.5833435058594 155.10855102539062 342.91888427734375 149.92111206054688 352.02398681640625 C 146.48886108398438 360.1033935546875 145.11114501953125 367.19744873046875 146.38401794433594 373.428955078125 C 150.58448791503906 378.6179504394531 157.72755432128906 382.71112060546875 168.06256103515625 385.38397216796875 C 181.0691680908203 386.7811279296875 195.7082061767578 387.4082336425781 211.0534210205078 385.8483581542969 C 226.1817626953125 384.3712463378906 239.64376831054688 383.2507019042969 249.96957397460938 381.6697692871094 C 256.9361877441406 382.84893798828125 259.2308349609375 382.98583984375 257.39544677734375 383.1724548339844 C 253.54551696777344 382.27252197265625 250.0628662109375 381.5483703613281 248.93182373046875 378.17315673828125 C 251.3646240234375 375.7994689941406 257.4066467285156 376.4906921386719 266.6524963378906 376.2950744628906 C 277.78936767578125 375.9186706542969 289.1932678222656 378.427978515625 298.3297119140625 384.63848876953125 C 305.3916320800781 393.2032470703125 309.7536926269531 403.0395812988281 310.9864807128906 414.9085693359375 C 309.3490905761719 427.7396240234375 305.0381774902344 440.56341552734375 299.26287841796875 452.3736572265625 C 292.54058837890625 462.32513427734375 285.368408203125 469.87591552734375 279.46514892578125 476.06414794921875 C 270.9865417480469 479.69268798828125 264.1815490722656 480.8913879394531 258.8242492675781 483.6567077636719 C 254.9246368408203 483.58148193359375 253.2161865234375 485.4178161621094 254.27426147460938 487.864013671875 C 257.1562805175781 489.41180419921875 262.73931884765625 492.25146484375 269.9491271972656 493.8520812988281 C 277.4003601074219 497.3216552734375 283.105224609375 499.638427734375 285.3581237792969 503.7011413574219 C 281.672607421875 511.3656921386719 273.4232482910156 523.891845703125 267.2474060058594 535.9447021484375 C 268.6231994628906 559.1578979492188 278.42608642578125 575.4896850585938 296.64996337890625 580.62451171875 C 312.2087707519531 582.4287109375 320.1625061035156 582.1275634765625 320.1722412109375 583.5388793945312 C 310.8280334472656 583.3506469726562 301.13665771484375 582.8941650390625 288.130859375 579.9954833984375 C 278.0237121582031 571.2719116210938 270.46893310546875 558.8890380859375 267.95849609375 543.7239379882812 C 267.5377197265625 530.7041015625 259.9991149902344 523.1729125976562 251.9696807861328 518.0043334960938 C 247.05459594726562 510.1328430175781 243.05487060546875 500.5118103027344 243.15806579589844 488.4413757324219 C 241.52464294433594 475.5141906738281 236.6403045654297 464.3160705566406 230.2269744873047 456.50555419921875 C 223.26075744628906 456.7659912109375 216.5090789794922 463.544189453125 211.90826416015625 475.5406188964844 C 208.69554138183594 490.0574951171875 209.15126037597656 506.8100891113281 211.13046264648438 523.9432373046875 C 213.46324157714844 540.8705444335938 214.48606872558594 556.11962890625 213.32711791992188 568.9026489257812 C 206.82627868652344 577.6913452148438 196.2932891845703 583.9458618164062 182.56390380859375 586.9638061523438 C 167.88705444335938 587.2939453125 153.0989227294922 585.44384765625 139.5000762939453 584.4054565429688 C 131.31239318847656 578.3342895507812 126.64664459228516 573.7030639648438 126.72103118896484 568.6741333007812 C 128.92715454101562 564.6298828125 130.75863647460938 562.0968017578125 131.1071014404297 561.6011962890625 C 129.63043212890625 563.34326171875 127.43092346191406 567.6261596679688 127.81095886230469 573.1256103515625 C 132.439453125 581.4717407226562 144.59503173828125 586.122802734375 160.63121032714844 588.2598266601562 C 178.5044403076172 586.6661987304688 196.63613891601562 582.1385498046875 211.08587646484375 573.3275756835938 C 217.03041076660156 562.3252563476562 216.0179443359375 547.5908203125 213.53126525878906 534.5148315429688 C 206.74192810058594 527.6441650390625 196.64297485351562 524.401611328125 187.72804260253906 525.2476806640625 C 178.60243225097656 525.1920166015625 171.41708374023438 524.9102783203125 166.8163299560547 522.1477661132812 C 164.80189514160156 515.2110595703125 164.3104248046875 505.7290344238281 165.18663024902344 493.46234130859375 C 165.56101989746094 479.2479248046875 165.2649383544922 463.77276611328125 163.8506622314453 447.61773681640625 C 161.32559204101562 431.4176025390625 157.6118621826172 415.6258544921875 152.8358917236328 400.5069580078125 C 146.68235778808594 386.0825500488281 139.16368103027344 373.00347900390625 130.51596069335938 361.5184326171875 C 120.61152648925781 353.30859375 109.63299560546875 349.2485656738281 97.53021240234375 351.0389404296875 C 86.14790344238281 357.0408630371094 75.22066497802734 364.62762451171875 66.47016143798828 373.92645263671875 C 56.5836296081543 381.12164306640625 48.11172103881836 385.82342529296875 39.326045989990234 388.4916076660156 C 31.353336334228516 388.96197509765625 24.514896392822266 386.9668884277344 19.058574676513672 382.6551208496094 C 15.433112144470215 376.14056396484375 13.813004493713379 368.54669189453125 14.62420654296875 360.0381774902344 C 18.850881576538086 351.7983703613281 25.764739990234375 343.2406921386719 32.58454132080078 338.593994140625 C 45.14106369018555 332.73419189453125 56.81977844238281 326.77777099609375 68.9400634765625 317.387451171875 C 80.79310607910156 307.9148864746094 90.79264831542969 299.5093994140625 100.010009765625 294.2250061035156 C 108.06307220458984 295.1702575683594 110.85569763183594 300.6278381347656 112.64755249023438 310.368896484375 C 112.48822021484375 320.4851379394531 112.98165893554688 329.3242492675781 112.68960571289062 336.75732421875 C 113.19015502929688 340.9563903808594 117.1587142944336 342.6138610839844 122.68928527832031 342.03045654296875 C 129.5094451904297 339.33575439453125 137.3349151611328 334.76580810546875 145.49038696289062 328.712890625 C 153.09815979003906 321.33984375 159.27952575683594 312.33148193359375 162.74205017089844 301.0374755859375 C 166.69192504882812 289.50494384765625 169.43983459472656 276.8394470214844 171.61297607421875 263.7098693847656 C 173.4581298828125 250.425537109375 175.24037170410156 236.37586975097656 171.79278564453125 238.86964416503906" stroke-width="0.0" fill="rgb(247, 202, 101)" opacity="0.9996923" stroke="rgb(101, 210, 245)" stroke-opacity="0.5532081" stroke-linecap="round" stroke-linejoin="round"/>
    <path d="M 151.84375 322.2292785644531 C 152.878662109375 322.1152038574219 154.00537109375 321.9847412109375 155.11378479003906 321.899169921875 C 156.04026794433594 321.9534606933594 156.84915161132812 322.2342529296875 157.4642791748047 322.66778564453125 C 157.8184814453125 323.3032531738281 158.0309600830078 324.04681396484375 158.03602600097656 324.8960266113281 C 158.00563049316406 325.7980041503906 157.8476104736328 326.67388916015625 157.7334442138672 327.54522705078125 C 157.7258758544922 328.35980224609375 157.52261352539062 329.0652160644531 157.21092224121094 329.8337707519531 C 156.89422607421875 330.8125 156.2547149658203 331.94891357421875 155.38278198242188 333.4698791503906 C 154.31500244140625 335.6108703613281 152.8984375 338.4783630371094 151.44537353515625 342.0824279785156 C 150.08148193359375 346.53985595703125 148.84593200683594 351.7636413574219 147.95358276367188 357.5542907714844 C 147.5114288330078 363.6678771972656 147.44622802734375 369.8658447265625 147.90725708007812 375.7928771972656 C 148.64126586914062 381.1104736328125 149.71583557128906 385.476318359375 151.10397338867188 388.7320251464844 C 152.68905639648438 390.7003173828125 154.59852600097656 391.3477783203125 156.76187133789062 390.37255859375 C 159.19216918945312 388.50537109375 162.2940216064453 386.3046569824219 165.18199157714844 383.3255310058594 C 169.71603393554688 381.8868103027344 175.12791442871094 380.2901611328125 180.11978149414062 380.0685119628906 C 186.23983764648438 380.16015625 191.7901153564453 379.9837951660156 196.47048950195312 381.9637756347656 C 201.75196838378906 383.4302062988281 206.7921905517578 384.2887268066406 211.59500122070312 384.6902160644531 C 216.71543884277344 386.1795654296875 221.9824676513672 386.3522033691406 227.41001892089844 386.7001037597656 C 233.34613037109375 387.4564514160156 239.54861450195312 387.8919372558594 246.08416748046875 388.4984436035156 C 252.44337463378906 389.5539245605469 258.9691467285156 389.87567138671875 264.7473449707031 389.0233154296875 C 270.33795166015625 387.3818664550781 277.422607421875 386.5229797363281 283.130615234375 385.031005859375 C 289.16217041015625 382.6765441894531 294.5342102050781 381.0931701660156 299.0743408203125 379.35693359375 C 304.15338134765625 379.0801696777344 308.3399353027344 380.1123046875 312.6724548339844 381.81365966796875 C 313.60992431640625 385.3278503417969 313.7478332519531 389.97271728515625 313.93359375 395.26763916015625 C 313.80792236328125 400.9560241699219 313.02899169921875 407.1421813964844 311.73870849609375 413.749755859375 C 310.3000793457031 420.4632263183594 308.22784423828125 427.185302734375 307.5369873046875 434.6888427734375 C 305.22955322265625 440.376708984375 304.08990478515625 446.9953308105469 302.6915283203125 453.00830078125 C 300.4624328613281 457.97857666015625 298.12109375 462.2953186035156 295.7862243652344 466.3898010253906 C 292.4574890136719 468.45684814453125 288.933837890625 470.1748046875 285.2295837402344 471.3257751464844 C 281.0474548339844 471.6263732910156 276.42169189453125 471.15252685546875 271.73846435546875 470.4171142578125 C 266.4804992675781 470.11163330078125 261.2475280761719 469.919677734375 257.1858825683594 469.1484069824219 C 253.264404296875 468.4698486328125 249.7566680908203 469.2699890136719 246.95980834960938 470.0384826660156 C 245.0529327392578 471.63671875 243.76490783691406 473.206787109375 242.9380340576172 474.4151306152344 C 242.44186401367188 474.9949645996094 242.03013610839844 474.6732177734375 241.44505310058594 473.522705078125 C 240.55995178222656 471.5184020996094 239.3012237548828 468.80401611328125 237.61923217773438 465.828125 C 235.5691680908203 463.0664367675781 233.14053344726562 460.99072265625 230.36996459960938 460.0452880859375 C 227.53350830078125 460.7525634765625 224.94784545898438 463.1005859375 222.94715881347656 467.53271484375 C 219.18748474121094 471.6499938964844 216.62567138671875 477.13641357421875 214.4107208251953 482.62158203125 C 212.4882049560547 487.2167053222656 211.5971221923828 491.0438232421875 211.2990264892578 493.62005615234375 C 211.5646514892578 494.5840148925781 212.1824188232422 493.91693115234375 212.9352264404297 491.8228759765625 C 213.63494873046875 488.77301025390625 213.9315185546875 484.9902648925781 213.56735229492188 480.4142761230469 C 212.8163604736328 476.0679931640625 209.51634216308594 472.8847351074219 203.321533203125 472.0651550292969 C 197.60597229003906 470.56243896484375 191.81658935546875 469.4566345214844 185.70838928222656 470.4234619140625 C 179.46774291992188 470.1573486328125 173.63844299316406 470.1471252441406 169.19834899902344 472.64404296875 C 166.84364318847656 477.8106384277344 165.2167510986328 482.89678955078125 164.59703063964844 487.9070739746094 C 164.55908203125 492.3230285644531 164.9000701904297 495.6800231933594 165.3726043701172 497.6341247558594 C 165.70303344726562 497.8002624511719 165.82737731933594 496.23858642578125 165.67442321777344 493.18695068359375 C 165.22015380859375 488.7867126464844 164.4473876953125 483.395263671875 164.1186065673828 477.1812744140625 C 163.0328826904297 470.66015625 161.22605895996094 464.077880859375 158.9841766357422 457.9191589355469 C 159.37759399414062 450.92926025390625 158.9895782470703 444.6043395996094 158.02108764648438 437.83294677734375 C 156.50967407226562 432.86639404296875 157.70660400390625 426.82745361328125 156.83865356445312 421.315673828125 C 155.8209686279297 415.97247314453125 154.85464477539062 410.47283935546875 153.5961456298828 404.92510986328125 C 152.05091857910156 399.3541564941406 150.07395935058594 393.66705322265625 147.6853790283203 388.0486145019531 C 144.85897827148438 382.47393798828125 141.4962921142578 376.846923828125 137.73703002929688 371.37841796875 C 133.3747100830078 366.2298278808594 128.6356658935547 361.5044250488281 123.37020111083984 357.62005615234375 C 117.90240478515625 354.5086364746094 112.47360229492188 351.9321594238281 107.8851318359375 349.6002197265625 C 102.25042724609375 350.59246826171875 98.28763580322266 350.6417236328125 95.4139175415039 351.02215576171875 C 93.93860626220703 351.3992919921875 93.9180679321289 351.36712646484375 95.36678314208984 350.9693908691406 C 98.23754119873047 349.76641845703125 102.23291015625 348.1220703125 107.11556243896484 346.04425048828125 C 112.78262329101562 343.62701416015625 118.61331939697266 340.95947265625 124.67124938964844 338.18365478515625 C 130.57289123535156 335.43927001953125 136.35169982910156 332.8324279785156 141.9386444091797 330.3271179199219 C 147.40457153320312 327.8577880859375 152.8923797607422 325.4317932128906 151.84375 322.2292785644531" stroke-width="0.0" fill="rgb(242, 78, 7)" opacity="0.9998919" stroke="rgb(12, 185, 152)" stroke-opacity="0.1597591" stroke-linecap="round" stroke-linejoin="round"/>
    <path d="M 323.6135559082031 221.41807556152344 C 318.29730224609375 223.4532012939453 312.32574462890625 224.0237579345703 306.2839050292969 226.85020446777344 C 299.1795959472656 228.717041015625 293.4096984863281 231.93463134765625 289.8391418457031 239.48081970214844 C 291.5076904296875 248.57435607910156 296.4129943847656 261.81524658203125 305.0715026855469 275.7909240722656 C 312.7671203613281 291.7546081542969 318.61932373046875 310.3825988769531 322.260986328125 329.598876953125 C 321.9042053222656 350.0606384277344 319.2897033691406 369.51995849609375 314.0096435546875 389.2778015136719 C 307.8134765625 409.63128662109375 300.0624694824219 429.538330078125 290.7823486328125 449.7231750488281 C 285.8736572265625 470.3517150878906 282.0686340332031 491.03057861328125 282.7907409667969 511.261474609375 C 288.13116455078125 527.485107421875 299.8805847167969 537.7285766601562 314.718017578125 546.34130859375 C 325.70574951171875 556.2677612304688 330.0374450683594 562.5509643554688 324.1820983886719 570.8502197265625 C 307.1666259765625 574.4882202148438 290.9205322265625 581.9612426757812 270.8476257324219 580.611572265625 C 251.89511108398438 576.1725463867188 239.65139770507812 566.3324584960938 236.75282287597656 549.4434814453125 C 238.56838989257812 527.2431030273438 242.150390625 503.7305908203125 242.46878051757812 482.1264953613281 C 239.92950439453125 465.33294677734375 233.24923706054688 457.50146484375 224.35751342773438 461.39947509765625 C 215.08831787109375 474.7794189453125 211.53150939941406 495.463134765625 211.75308227539062 518.3427734375 C 215.42083740234375 541.3984985351562 216.2767791748047 561.3995361328125 210.26278686523438 576.8702392578125 C 192.50900268554688 581.7989501953125 173.96055603027344 588.9683837890625 153.52488708496094 591.0689086914062 C 137.43052673339844 586.4171142578125 127.78071594238281 579.1948852539062 127.7489242553711 569.0391235351562 C 137.0443572998047 557.6813354492188 151.61044311523438 546.1552124023438 163.20242309570312 530.9458618164062 C 166.45411682128906 511.31219482421875 167.49240112304688 490.0360412597656 165.6865692138672 469.63128662109375 C 162.1017608642578 447.73126220703125 158.72097778320312 424.4001159667969 153.36923217773438 402.0588073730469 C 146.22958374023438 379.37261962890625 135.6256866455078 358.2666320800781 121.89105224609375 337.4612121582031 C 102.38639068603516 322.19720458984375 83.9786148071289 314.9627380371094 66.98165130615234 327.2864990234375 C 47.777896881103516 347.26434326171875 33.17424774169922 366.15557861328125 23.41660499572754 380.11578369140625 C 18.405010223388672 388.51171875 16.899656295776367 390.27789306640625 16.148664474487305 388.1544494628906 C 17.378501892089844 385.468994140625 21.508703231811523 382.7690124511719 27.800081253051758 374.6238098144531 C 36.70984649658203 361.3042907714844 49.91122055053711 344.90081787109375 65.07923889160156 329.7821350097656 C 78.81658935546875 320.3638000488281 82.80830383300781 317.3011169433594 79.67157745361328 317.2258605957031 C 84.48870849609375 320.0461730957031 101.56446838378906 324.16082763671875 118.25685119628906 330.854248046875 C 134.9439697265625 332.30718994140625 146.86781311035156 327.54327392578125 154.66004943847656 316.8738708496094 C 159.74868774414062 299.7150573730469 165.59535217285156 283.68048095703125 167.6373291015625 265.6822509765625 C 174.926513671875 254.51495361328125 180.95252990722656 245.0447540283203 190.4036865234375 241.99136352539062 C 199.89193725585938 241.86636352539062 205.83856201171875 243.77560424804688 210.3184814453125 245.42391967773438 C 209.96224975585938 246.4429931640625 206.57418823242188 250.79554748535156 200.06134033203125 258.4407653808594 C 196.45550537109375 271.0445861816406 189.3787078857422 286.3749084472656 181.46963500976562 302.2984313964844 C 171.33949279785156 317.47442626953125 164.21620178222656 333.0516662597656 158.5160369873047 348.90960693359375 C 155.09979248046875 365.12982177734375 154.39788818359375 382.1023864746094 153.86346435546875 400.6456604003906 C 156.85394287109375 420.71697998046875 161.92381286621094 442.07611083984375 164.5361785888672 463.7958068847656 C 163.5413818359375 484.9593811035156 162.58758544921875 503.0753173828125 163.68055725097656 516.7062377929688 C 167.8303985595703 524.982177734375 171.93759155273438 527.8650512695312 173.055419921875 527.1390991210938 C 170.9689483642578 526.6900024414062 164.7769317626953 528.8817138671875 156.84271240234375 536.56201171875 C 147.6837921142578 549.0401611328125 136.75755310058594 560.83544921875 127.93583679199219 570.3994750976562 C 128.10699462890625 578.8999633789062 135.8724365234375 582.8946533203125 150.11083984375 586.3328857421875 C 165.751953125 586.3718872070312 182.44322204589844 587.0545043945312 197.22830200195312 585.4779663085938 C 208.2505340576172 579.4422607421875 214.52589416503906 569.41796875 215.5584259033203 554.7950439453125 C 212.850830078125 536.4301147460938 210.77284240722656 516.0083618164062 211.4567413330078 495.7314453125 C 216.37603759765625 477.2696533203125 221.25692749023438 463.1623840332031 228.2308349609375 456.21087646484375 C 236.91036987304688 459.0762023925781 242.76583862304688 469.8079528808594 246.55174255371094 485.3921203613281 C 245.17306518554688 501.96136474609375 240.3011016845703 519.275634765625 234.91099548339844 535.73486328125 C 232.49588012695312 549.865966796875 234.74774169921875 562.7317504882812 244.1150360107422 570.3026733398438 C 265.778076171875 572.7119140625 288.4981384277344 576.8726806640625 310.2602844238281 579.5570068359375 C 324.343017578125 574.326171875 330.1862487792969 566.7913208007812 324.7318115234375 556.984130859375 C 316.1255798339844 545.48828125 301.9234924316406 537.3656616210938 291.47430419921875 526.3640747070312 C 285.2264404296875 514.0253295898438 282.01104736328125 501.7646484375 280.650634765625 490.6294860839844 C 280.16064453125 480.887451171875 282.3238830566406 472.2637023925781 286.8145751953125 461.65411376953125 C 290.2281188964844 449.09576416015625 297.4627990722656 436.0666198730469 303.5323791503906 419.5796813964844 C 310.61505126953125 401.6374206542969 316.52301025390625 382.63824462890625 319.75341796875 361.950439453125 C 319.2247619628906 343.35418701171875 312.5787658691406 325.1782531738281 302.37420654296875 308.2137145996094 C 289.7300109863281 294.0265197753906 279.2557067871094 278.44775390625 272.9335021972656 264.7757263183594 C 270.7376708984375 253.94100952148438 270.6889953613281 245.13455200195312 279.3985290527344 238.94581604003906 C 291.07220458984375 234.32098388671875 300.7690734863281 229.0863800048828 323.6135559082031 221.41807556152344" stroke-width="0.0" fill="rgb(203, 168, 194)" opacity="0.99966264" stroke="rgb(169, 68, 231)" stroke-opacity="0.9075586" stroke-linecap="round" stroke-linejoin="round"/>
    <path d="M 289.4309997558594 15.340580940246582 C 290.0208740234375 14.93091869354248 290.76727294921875 14.472387313842773 291.59283447265625 14.266613006591797 C 292.39208984375 14.252846717834473 293.3216247558594 14.330246925354004 294.456298828125 14.534684181213379 C 295.7979431152344 15.484016418457031 297.3236389160156 16.823476791381836 299.19873046875 18.462053298950195 C 301.041259765625 20.834142684936523 303.32830810546875 23.641328811645508 305.39599609375 27.055519104003906 C 307.78302001953125 30.566837310791016 310.2498474121094 34.30824661254883 312.59417724609375 37.89790344238281 C 314.78118896484375 42.2264518737793 317.0207824707031 46.16207504272461 319.1810607910156 49.923980712890625 C 321.03363037109375 53.47268295288086 323.2579040527344 56.68230438232422 325.4862976074219 59.60016632080078 C 327.391845703125 62.31744384765625 329.4570617675781 64.69091033935547 331.1524658203125 66.79158782958984 C 331.9684143066406 68.80323028564453 331.8537292480469 70.64844512939453 330.86920166015625 72.61820220947266 C 328.82598876953125 74.15816497802734 326.0452880859375 75.83909606933594 322.85174560546875 77.6762466430664 C 319.32763671875 79.69316864013672 315.8659362792969 81.0497055053711 312.43316650390625 82.80179595947266 C 309.25469970703125 84.7479019165039 306.35711669921875 86.94950866699219 303.6826171875 89.27792358398438 C 300.7928771972656 91.22238159179688 297.7803955078125 93.08702850341797 294.4737243652344 94.81498718261719 C 290.6798095703125 96.24539947509766 286.5364990234375 96.34265899658203 282.00067138671875 96.29881286621094 C 277.2066650390625 95.38624572753906 272.2614440917969 94.21304321289062 267.16302490234375 91.80467224121094 C 262.17230224609375 89.1331558227539 257.1049499511719 86.3522720336914 252.009033203125 83.91389465332031 C 246.96624755859375 81.90904998779297 242.38514709472656 80.44097900390625 238.2067413330078 79.87161254882812 C 234.3843536376953 80.39038848876953 231.01954650878906 81.31767272949219 228.3450164794922 83.30519104003906 C 226.48011779785156 86.03514099121094 225.38320922851562 89.64095306396484 224.18060302734375 93.61538696289062 C 223.8027801513672 97.68733215332031 223.35223388671875 101.54415130615234 223.06370544433594 104.99262237548828 C 221.5949249267578 107.67699432373047 219.6693878173828 109.59814453125 216.9647216796875 111.00367736816406 C 213.29379272460938 111.44483947753906 209.00686645507812 112.02983093261719 204.09902954101562 111.68348693847656 C 198.75950622558594 111.62014770507812 193.1629180908203 111.5633316040039 187.50148010253906 111.27681732177734 C 181.84925842285156 110.7888412475586 176.32748413085938 110.39519500732422 170.9935302734375 110.11034393310547 C 165.9275360107422 109.85037994384766 161.06460571289062 110.1868896484375 156.62692260742188 111.09899139404297 C 152.54449462890625 112.56778717041016 149.22598266601562 114.96150970458984 146.40550231933594 118.09784698486328 C 144.51138305664062 122.01904296875 143.2615509033203 126.18779754638672 142.44796752929688 130.43638610839844 C 141.45648193359375 134.29751586914062 140.634033203125 137.72076416015625 139.5074920654297 140.46417236328125 C 137.89573669433594 142.57354736328125 136.16799926757812 144.35655212402344 134.40919494628906 146.185791015625 C 132.6570281982422 148.4200897216797 130.79237365722656 151.2100830078125 128.9103240966797 154.39988708496094 C 128.40106201171875 158.8665008544922 127.86038208007812 163.58676147460938 127.41987609863281 168.51959228515625 C 126.82778930664062 173.3091583251953 126.1934814453125 177.84031677246094 125.00212097167969 181.97158813476562 C 122.51866912841797 185.16555786132812 119.56436157226562 187.89987182617188 115.7799301147461 190.12940979003906 C 110.99075317382812 191.25221252441406 105.42086029052734 191.86029052734375 99.45795440673828 191.83815002441406 C 93.30797576904297 191.7532958984375 87.14115905761719 191.23146057128906 81.19878387451172 190.01194763183594 C 75.843017578125 188.0177764892578 71.47293090820312 185.86936950683594 68.08441925048828 182.91610717773438 C 65.91929626464844 179.5928955078125 64.75348663330078 176.19601440429688 64.59734344482422 172.599609375 C 65.69098663330078 168.98638916015625 67.2917709350586 165.4302520751953 68.9977798461914 161.75819396972656 C 71.61673736572266 158.0889892578125 74.0508041381836 154.17935180664062 76.22208404541016 150.21337890625 C 78.27385711669922 146.0551300048828 79.69595336914062 141.480224609375 80.82835388183594 136.6123809814453 C 82.00776672363281 131.7988739013672 83.2839126586914 127.0084228515625 84.59027099609375 122.2475814819336 C 86.56022644042969 117.91899871826172 88.78532409667969 113.88755798339844 91.36007690429688 110.30299377441406 C 94.15799713134766 107.0567626953125 97.01612854003906 104.0361099243164 99.8187484741211 101.1742935180664 C 102.67564392089844 98.70539855957031 105.45521545410156 96.18790435791016 108.08499145507812 93.68675231933594 C 110.51089477539062 90.7115478515625 113.0067138671875 87.74579620361328 115.43428802490234 84.63517761230469 C 118.43407440185547 81.5085220336914 121.5926742553711 78.25180053710938 124.84858703613281 75.00850677490234 C 128.15481567382812 71.59934997558594 131.58261108398438 68.23062133789062 135.18856811523438 64.75121307373047 C 138.99392700195312 61.618709564208984 142.6339874267578 58.2757568359375 146.14907836914062 54.63854217529297 C 149.62843322753906 51.148406982421875 153.02273559570312 47.56808090209961 156.2395477294922 44.04628372192383 C 159.29440307617188 40.56796646118164 162.3181915283203 37.44247055053711 165.2051239013672 35.282615661621094 C 168.91583251953125 33.883811950683594 172.2367706298828 33.20511245727539 175.838623046875 33.28998565673828 C 179.669677734375 34.7807502746582 183.68893432617188 36.591163635253906 187.9297332763672 38.67613220214844 C 192.09938049316406 41.089820861816406 196.40554809570312 43.47876739501953 200.9421844482422 45.35074996948242 C 205.5464324951172 46.60555648803711 210.02139282226562 47.10012435913086 214.24404907226562 46.562034606933594 C 218.4443817138672 45.36103057861328 222.3824462890625 43.25850296020508 225.75486755371094 40.307857513427734 C 229.0800018310547 36.936859130859375 232.2085418701172 33.39204025268555 235.2632293701172 29.832448959350586 C 238.5183868408203 26.45751190185547 241.8967742919922 23.679691314697266 245.57330322265625 21.315893173217773 C 249.64456176757812 19.51237678527832 254.18980407714844 17.964746475219727 259.2660827636719 16.90139389038086 C 264.6464538574219 16.223281860351562 270.32232666015625 16.079221725463867 276.3277893066406 16.130617141723633 C 282.4088439941406 16.128339767456055 288.55413818359375 15.973260879516602 289.4309997558594 15.340580940246582" stroke-width="0.0" fill="rgb(61, 39, 36)" opacity="0.999524" stroke="rgb(236, 166, 247)" stroke-opacity="0.77848464" stroke-linecap="round" stroke-linejoin="round"/>
    <path d="M 437.29266357421875 284.5028991699219 C 437.13519287109375 285.97174072265625 436.8284606933594 287.1593322753906 437.4294738769531 288.4767761230469 C 437.7586669921875 289.88665771484375 436.8451232910156 290.9742126464844 436.5429992675781 291.9207763671875 C 436.568603515625 292.5145263671875 436.84942626953125 293.1297302246094 437.26043701171875 293.3133850097656 C 437.5135192871094 293.7088317871094 438.1336669921875 293.6457824707031 438.81793212890625 293.8834228515625 C 439.48651123046875 293.813720703125 440.08856201171875 293.5552062988281 440.6098937988281 293.46331787109375 C 441.062744140625 293.6022033691406 441.4653625488281 293.6969909667969 442.42742919921875 293.880126953125 C 442.3424377441406 295.57464599609375 442.57598876953125 296.92645263671875 443.0956726074219 298.3601379394531 C 443.2335510253906 300.10052490234375 444.18475341796875 301.7489013671875 445.57647705078125 302.7226257324219 C 447.4219055175781 303.0233154296875 449.1573486328125 305.1408996582031 450.95892333984375 306.78607177734375 C 452.3658752441406 308.0432434082031 454.14825439453125 308.62359619140625 455.9515075683594 308.7684631347656 C 457.0380859375 309.7919616699219 458.0699768066406 310.2256164550781 458.87774658203125 310.7933654785156 C 459.5850524902344 311.35638427734375 460.2385559082031 312.00299072265625 461.08013916015625 312.7488708496094 C 460.9414978027344 313.95166015625 461.91265869140625 314.9266662597656 462.0250244140625 315.56488037109375 C 462.0674133300781 316.526123046875 462.3895568847656 317.07098388671875 462.401611328125 317.69000244140625 C 461.8621826171875 318.1474914550781 461.2650146484375 318.105224609375 460.1145324707031 318.6438293457031 C 458.5245056152344 318.8054504394531 456.7963562011719 318.13153076171875 455.0672607421875 318.0441589355469 C 453.338134765625 318.6083068847656 451.7831115722656 318.41998291015625 450.4234924316406 319.1711120605469 C 449.9310302734375 320.40386962890625 450.54119873046875 321.8772277832031 452.3127746582031 322.8934020996094 C 453.99542236328125 325.2590637207031 456.01373291015625 327.1202392578125 457.2471923828125 327.9562072753906 C 458.1577453613281 330.38702392578125 458.6470642089844 331.1297607421875 458.03277587890625 331.73272705078125 C 456.6226806640625 331.6141357421875 454.47015380859375 331.42529296875 451.878662109375 331.292724609375 C 449.3160400390625 329.8519287109375 446.6428527832031 329.1762390136719 444.0818786621094 327.8199157714844 C 442.16363525390625 327.0676574707031 440.2682800292969 327.1056213378906 439.1264343261719 329.002197265625 C 437.7724609375 328.8339538574219 437.20263671875 329.9767761230469 437.3291320800781 331.4067077636719 C 435.9903259277344 332.5611267089844 435.54376220703125 334.0604553222656 435.6382141113281 335.5567626953125 C 436.134033203125 337.2240295410156 436.78070068359375 338.97601318359375 437.2763366699219 340.89794921875 C 437.5533142089844 342.89385986328125 438.28936767578125 344.7870178222656 439.0427551269531 346.54400634765625 C 439.7018737792969 348.35150146484375 440.1436462402344 349.8650207519531 440.2667541503906 350.880859375 C 439.97540283203125 351.4875183105469 439.11700439453125 351.573486328125 437.5673522949219 351.6519470214844 C 435.38653564453125 351.1942138671875 433.0086669921875 350.3119812011719 430.65869140625 348.560791015625 C 428.9098205566406 345.5876159667969 426.1591491699219 343.6891174316406 423.782958984375 341.13934326171875 C 420.6514892578125 340.3880615234375 417.9702453613281 338.45751953125 414.5204162597656 336.5912780761719 C 413.4470520019531 335.1397399902344 411.47100830078125 334.0550537109375 409.1883850097656 333.2767028808594 C 407.48284912109375 331.6127014160156 405.8106384277344 330.25030517578125 405.2778015136719 328.88787841796875 C 404.35821533203125 327.6039123535156 403.107421875 325.8778991699219 402.6995544433594 324.0719909667969 C 403.4858093261719 322.0907287597656 404.012451171875 320.158447265625 404.5528564453125 317.9824523925781 C 404.63739013671875 316.0428771972656 405.99908447265625 314.89581298828125 407.29742431640625 314.95947265625 C 408.7917785644531 314.56939697265625 409.6863098144531 313.51739501953125 410.83489990234375 314.6759033203125 C 411.3214111328125 316.4727478027344 412.2332763671875 317.4132080078125 413.6676940917969 318.1396484375 C 414.9388732910156 319.1530456542969 416.722900390625 319.4262390136719 418.8752136230469 319.246826171875 C 420.6432800292969 319.52532958984375 422.2751159667969 318.9609680175781 423.43798828125 318.3858642578125 C 424.0209655761719 317.89935302734375 423.9736633300781 317.4628601074219 423.1773681640625 317.193359375 C 422.17767333984375 316.2803039550781 420.6579284667969 316.306640625 419.17767333984375 316.3217468261719 C 418.407958984375 315.0122375488281 417.9781188964844 314.2531433105469 417.5769958496094 313.4113464355469 C 418.2493896484375 312.4751892089844 418.65740966796875 311.3213806152344 418.8217468261719 310.1460876464844 C 419.3767395019531 309.33245849609375 419.8393859863281 308.1911926269531 419.7526550292969 307.3005065917969 C 419.49755859375 306.5726013183594 418.754150390625 305.9580383300781 417.61053466796875 306.04437255859375 C 416.1850891113281 305.62744140625 414.83953857421875 305.16741943359375 413.3578796386719 304.678466796875 C 411.8271179199219 304.2333679199219 410.04669189453125 303.97576904296875 407.40606689453125 304.55389404296875 C 405.3305969238281 304.2565612792969 403.6606140136719 302.8109130859375 401.3339538574219 301.6552734375 C 399.6569519042969 299.52703857421875 397.9459228515625 298.3214416503906 396.2702331542969 296.8753662109375 C 395.6548156738281 294.8388977050781 395.05413818359375 293.73504638671875 395.966064453125 292.9579162597656 C 396.9517822265625 292.66705322265625 398.50067138671875 292.07476806640625 400.6659240722656 292.7536315917969 C 402.9317932128906 294.20184326171875 405.48760986328125 295.2051086425781 408.2297058105469 295.32708740234375 C 410.23687744140625 297.3804626464844 412.3198547363281 298.3624267578125 413.95843505859375 298.4193420410156 C 415.3710021972656 298.0264892578125 416.5245056152344 298.193359375 417.3580322265625 297.3737487792969 C 418.3056335449219 297.62982177734375 419.2999572753906 296.54632568359375 421.12786865234375 295.96337890625 C 423.1475524902344 295.38262939453125 424.7843933105469 293.557373046875 426.5780944824219 292.71588134765625 C 429.3804016113281 292.71148681640625 431.6183776855469 291.58734130859375 433.75811767578125 290.0149841308594 C 436.1185302734375 288.9217834472656 438.5504150390625 287.7733154296875 437.29266357421875 284.5028991699219" stroke-width="0.0" fill="rgb(251, 188, 105)" opacity="0.99998313" stroke="rgb(129, 206, 209)" stroke-opacity="0.07474356" stroke-linecap="round" stroke-linejoin="round"/>
    <path d="M 120.76758575439453 206.91799926757812 C 122.26720428466797 207.33995056152344 123.25942993164062 207.86094665527344 124.14398193359375 208.14894104003906 C 125.239990234375 208.7400360107422 126.0875473022461 209.42604064941406 126.3850326538086 210.31092834472656 C 126.85970306396484 211.13018798828125 127.3266830444336 211.6075897216797 128.03810119628906 211.89849853515625 C 128.2561798095703 213.02536010742188 128.81423950195312 213.6202392578125 129.66627502441406 212.73338317871094 C 130.590576171875 213.87767028808594 131.4427490234375 214.60330200195312 132.49359130859375 214.18154907226562 C 133.38577270507812 214.8904571533203 134.26856994628906 215.47142028808594 135.0616912841797 214.90554809570312 C 136.2128143310547 215.35516357421875 136.980712890625 215.61541748046875 136.6182098388672 214.52467346191406 C 137.11572265625 214.03636169433594 137.70526123046875 213.71253967285156 137.7532958984375 213.11170959472656 C 138.48471069335938 212.69760131835938 139.14561462402344 212.07778930664062 139.6144256591797 210.9637908935547 C 140.2124481201172 210.73487854003906 140.8915557861328 210.67727661132812 141.84983825683594 210.25706481933594 C 142.46051025390625 209.6234893798828 143.03213500976562 209.0187530517578 143.41085815429688 206.90765380859375 C 144.195068359375 208.00674438476562 144.52310180664062 208.14402770996094 145.21995544433594 208.37779235839844 C 145.9968719482422 208.70565795898438 146.59097290039062 208.87139892578125 147.2526092529297 209.2489013671875 C 147.88699340820312 210.10617065429688 148.53079223632812 210.9373779296875 149.73768615722656 211.0704345703125 C 150.9981689453125 213.0062713623047 152.26055908203125 214.38818359375 153.65823364257812 215.47129821777344 C 155.69332885742188 216.81857299804688 157.99205017089844 218.28823852539062 159.01901245117188 219.73587036132812 C 159.65887451171875 221.8488311767578 160.94798278808594 223.20559692382812 162.9859161376953 223.69569396972656 C 163.43423461914062 225.40481567382812 163.79885864257812 226.72869873046875 164.9238739013672 227.58035278320312 C 165.5648651123047 228.4549560546875 165.3876953125 229.2865447998047 166.09768676757812 229.8063507080078 C 166.43984985351562 230.40843200683594 167.3676300048828 230.99057006835938 168.46714782714844 231.2093048095703 C 168.34031677246094 232.12936401367188 168.74395751953125 232.2177276611328 169.72763061523438 232.9724578857422 C 170.15213012695312 234.05996704101562 170.61883544921875 234.72889709472656 170.46078491210938 235.43399047851562 C 169.45338439941406 236.02296447753906 168.60028076171875 237.09832763671875 167.90585327148438 238.0596466064453 C 165.23251342773438 236.12733459472656 163.28057861328125 236.0010223388672 161.0871124267578 236.5607452392578 C 159.2790985107422 236.45530700683594 157.52188110351562 235.57945251464844 155.29441833496094 235.56204223632812 C 155.3896484375 234.31353759765625 154.88282775878906 233.78904724121094 153.37692260742188 232.86497497558594 C 154.73770141601562 232.0493927001953 155.38406372070312 231.4378662109375 155.4869842529297 230.66209411621094 C 156.02854919433594 230.0430145263672 156.4370574951172 229.3961639404297 156.6466827392578 228.7745819091797 C 156.74871826171875 228.0450439453125 157.0198974609375 227.2475128173828 157.3431854248047 226.62840270996094 C 157.76780700683594 226.21426391601562 157.80125427246094 225.61981201171875 157.513427734375 225.3614501953125 C 157.14830017089844 224.967529296875 156.37240600585938 224.2937774658203 155.1527557373047 224.25527954101562 C 153.9873809814453 223.60899353027344 153.07366943359375 222.82232666015625 151.71910095214844 222.34381103515625 C 150.57180786132812 221.4775848388672 149.65023803710938 220.3444061279297 148.62831115722656 219.45896911621094 C 147.98390197753906 218.4239044189453 147.68397521972656 217.7137908935547 147.0876922607422 217.15762329101562 C 146.49273681640625 216.83168029785156 145.8414764404297 217.0336151123047 145.51437377929688 217.57737731933594 C 145.27626037597656 218.4255828857422 144.9359893798828 219.5136260986328 144.2841033935547 220.6199951171875 C 143.96180725097656 222.17794799804688 144.10484313964844 223.85842895507812 144.814697265625 225.37936401367188 C 145.0775146484375 226.94384765625 145.551513671875 228.5927276611328 146.372314453125 229.63363647460938 C 146.20123291015625 230.76612854003906 146.3938446044922 231.3106689453125 146.4939727783203 231.45657348632812 C 146.2034912109375 231.44566345214844 145.67262268066406 231.11558532714844 144.8873748779297 230.87486267089844 C 144.36361694335938 230.1816864013672 143.3236846923828 229.93417358398438 142.33718872070312 229.43109130859375 C 141.4542999267578 228.9861602783203 140.13009643554688 229.30699157714844 138.84690856933594 230.2627410888672 C 136.81581115722656 230.27354431152344 135.25119018554688 231.1710662841797 133.37449645996094 231.99864196777344 C 130.77833557128906 232.0833740234375 128.74508666992188 232.3684844970703 126.59259796142578 232.38084411621094 C 124.59913635253906 231.41180419921875 122.67672729492188 230.95645141601562 120.82612609863281 231.06639099121094 C 120.03240966796875 228.8804931640625 118.92106628417969 227.71551513671875 117.76400756835938 226.85435485839844 C 116.89559173583984 225.73423767089844 116.46507263183594 224.7613983154297 115.88549041748047 224.1751251220703 C 115.10809326171875 224.0171661376953 114.5540542602539 224.08648681640625 114.03695678710938 224.65853881835938 C 113.36531829833984 224.8306427001953 112.66173553466797 225.5369873046875 111.97101593017578 226.3579864501953 C 111.17982482910156 227.05081176757812 110.51174926757812 227.33816528320312 109.69029998779297 227.3218231201172 C 109.07007598876953 227.1900634765625 108.8134536743164 226.71249389648438 108.12128448486328 225.85995483398438 C 107.89720916748047 224.81170654296875 108.94194030761719 224.06756591796875 110.44458770751953 223.3981170654297 C 112.03666687011719 223.0302734375 113.5402603149414 222.509765625 115.41755676269531 222.0379638671875 C 117.34233093261719 223.18898010253906 119.48184204101562 223.43345642089844 121.60919189453125 223.1396026611328 C 123.59527587890625 223.98497009277344 125.56791687011719 224.69273376464844 127.12916564941406 224.137451171875 C 128.505126953125 223.761962890625 129.4125518798828 222.80850219726562 129.7672576904297 221.9286651611328 C 130.25100708007812 220.9198760986328 130.16458129882812 219.60205078125 129.1299591064453 219.11849975585938 C 128.33140563964844 217.37335205078125 127.20587158203125 215.5767364501953 125.69583129882812 214.68601989746094 C 123.59896087646484 213.47781372070312 122.48594665527344 212.34375 121.29461669921875 211.17724609375 C 119.79401397705078 210.00526428222656 117.98431396484375 208.56228637695312 120.76758575439453 206.91799926757812" stroke-width="0.0" fill="rgb(0, 2, 1)" opacity="0.99995226" stroke="rgb(94, 68, 2)" stroke-opacity="0.8239802" stroke-linecap="round" stroke-linejoin="round"/>
    <path d="M 305.6242980957031 108.61448669433594 C 306.6756591796875 107.93733978271484 307.0358581542969 106.7415542602539 308.2331237792969 107.41781616210938 C 310.6489562988281 107.80660247802734 311.69036865234375 107.61995697021484 312.7001647949219 107.67108154296875 C 313.7206115722656 107.78713989257812 314.7068786621094 108.1029281616211 315.74066162109375 108.3943099975586 C 316.92340087890625 108.601806640625 318.2083740234375 108.81005096435547 319.6021728515625 108.84779357910156 C 320.938232421875 108.86360931396484 322.147705078125 108.81785583496094 323.6092224121094 108.19049835205078 C 324.3401794433594 108.919921875 325.1935119628906 109.51026153564453 325.4940490722656 109.5973129272461 C 326.2509765625 109.83882904052734 326.8629150390625 111.2298355102539 327.3931579589844 112.44598388671875 C 327.8763732910156 113.38838195800781 328.3846740722656 114.21377563476562 328.8908386230469 115.12174224853516 C 329.1964111328125 116.09778594970703 329.0575866699219 117.87437438964844 329.5098571777344 119.67472839355469 C 329.4118347167969 118.6625747680664 328.2974548339844 119.35333251953125 328.0859069824219 120.32736206054688 C 328.020263671875 121.4288558959961 328.7735290527344 122.67479705810547 328.8847961425781 123.95515441894531 C 328.97662353515625 125.48564910888672 329.1705017089844 127.13175201416016 328.7389831542969 128.2533721923828 C 326.7317810058594 128.0226287841797 326.2127685546875 128.41600036621094 325.7186584472656 128.43124389648438 C 325.2359924316406 128.15110778808594 324.8604431152344 127.54743957519531 324.6690673828125 126.69783020019531 C 324.6735534667969 125.73373413085938 324.69512939453125 124.63682556152344 324.2738037109375 123.46684265136719 C 324.2438659667969 122.06005096435547 324.6860046386719 121.11869812011719 325.0791015625 120.54428100585938 C 324.9955749511719 119.8575668334961 324.4791564941406 119.2113265991211 323.85638427734375 119.01113891601562 C 323.14215087890625 118.85675048828125 322.3876037597656 119.47417449951172 322.01702880859375 120.27498626708984 C 320.91192626953125 119.23133087158203 320.2299499511719 119.35225677490234 319.70660400390625 119.45128631591797 C 319.24639892578125 119.51000213623047 318.8067321777344 119.4154052734375 317.9918212890625 119.65210723876953 C 317.56524658203125 119.02854919433594 316.92523193359375 118.1724624633789 316.0831604003906 117.46968841552734 C 315.2991638183594 116.60420227050781 313.9931640625 115.33226776123047 311.7820739746094 114.20233154296875 C 311.7813720703125 113.08697509765625 310.6941833496094 112.11640930175781 308.44769287109375 112.04313659667969 C 307.1085510253906 111.1825942993164 306.32110595703125 109.87528991699219 306.1486511230469 108.40575408935547 C 306.03021240234375 107.41051483154297 305.637939453125 106.93372344970703 305.40594482421875 106.43425750732422 C 305.5137634277344 106.08712005615234 305.80316162109375 105.80244445800781 306.2277526855469 105.46129608154297 C 306.8081359863281 105.33052062988281 307.39984130859375 105.17904663085938 305.6242980957031 108.61448669433594" stroke-width="0.0" fill="rgb(141, 65, 19)" opacity="0.9999431" stroke="rgb(102, 239, 89)" stroke-opacity="0.44438636" stroke-linecap="round" stroke-linejoin="round"/>
    <path d="M 388.15496826171875 287.168701171875 C 390.0106506347656 289.6033020019531 390.3687438964844 290.16448974609375 390.5306091308594 290.3562927246094 C 390.23004150390625 291.6352844238281 390.8128967285156 292.2809753417969 391.5985107421875 292.001953125 C 392.2845764160156 292.9346008300781 393.12506103515625 293.14599609375 394.6820983886719 292.9197998046875 C 394.59332275390625 294.98565673828125 395.3999938964844 295.7405700683594 396.3868408203125 296.24420166015625 C 397.8533020019531 296.69818115234375 398.84027099609375 296.94427490234375 400.3826904296875 296.45330810546875 C 399.56884765625 299.2536926269531 399.90533447265625 300.2083740234375 400.939453125 300.6857604980469 C 401.4281311035156 301.4808654785156 402.0589904785156 302.2123718261719 403.2362060546875 301.7760314941406 C 404.29217529296875 302.7904052734375 404.6385498046875 303.5237731933594 405.1632995605469 303.94012451171875 C 406.1156921386719 304.6289367675781 406.7884521484375 304.89715576171875 407.52764892578125 305.1915283203125 C 408.05804443359375 305.65631103515625 408.9419250488281 305.6103210449219 409.79736328125 304.9892883300781 C 410.5815124511719 304.7773132324219 411.89862060546875 304.72503662109375 413.8155212402344 303.7725830078125 C 414.5544738769531 304.347412109375 414.933349609375 305.35565185546875 415.7462158203125 306.2819519042969 C 416.2279052734375 307.0704040527344 416.4087219238281 308.0102233886719 416.41754150390625 309.0257568359375 C 415.3398132324219 309.7821044921875 414.7604675292969 310.362548828125 414.4079895019531 311.7670593261719 C 413.3346252441406 312.105712890625 412.29541015625 311.5070495605469 411.4262390136719 311.67010498046875 C 410.4837646484375 311.95074462890625 409.6347351074219 312.2229309082031 408.8681945800781 312.476806640625 C 408.148193359375 313.0566711425781 407.5317077636719 313.85894775390625 407.1124572753906 315.725341796875 C 406.07275390625 315.7738952636719 405.4680480957031 316.8249206542969 406.11358642578125 318.71563720703125 C 406.8774719238281 320.3018493652344 405.4178161621094 321.1477966308594 404.0699462890625 321.33123779296875 C 403.1705627441406 321.6394348144531 402.9015197753906 322.1775207519531 402.3537292480469 322.4375915527344 C 401.8931884765625 322.3563232421875 401.333740234375 322.2806396484375 400.65692138671875 322.3590393066406 C 399.8470153808594 321.91412353515625 399.1584167480469 321.40533447265625 398.11773681640625 321.1601257324219 C 397.36126708984375 320.5383605957031 396.2368469238281 320.3977966308594 394.7628479003906 321.17340087890625 C 394.29180908203125 319.5750427246094 393.41241455078125 319.1474914550781 391.8163757324219 319.7449645996094 C 391.2801513671875 318.55987548828125 390.77447509765625 317.9842224121094 390.1491394042969 317.217529296875 C 389.1970520019531 316.6338806152344 388.70721435546875 315.95074462890625 388.1902160644531 315.2425231933594 C 387.7223205566406 314.4099426269531 386.9349365234375 313.7659606933594 386.09161376953125 313.36370849609375 C 385.49517822265625 312.3801574707031 384.7789611816406 311.4676818847656 382.38623046875 311.2400207519531 C 382.31536865234375 311.2268371582031 382.18450927734375 308.96826171875 381.5363464355469 307.8038024902344 C 380.6481018066406 307.2707214355469 379.6684875488281 306.687255859375 379.0838928222656 305.3587341308594 C 378.452880859375 304.2588195800781 377.5783386230469 302.961669921875 376.82135009765625 302.0494079589844 C 376.0132751464844 300.8974304199219 375.66607666015625 299.58349609375 373.6596374511719 298.6361083984375 C 374.0033264160156 297.37286376953125 374.8620910644531 296.1721496582031 373.4755859375 294.9959411621094 C 373.61492919921875 294.00311279296875 375.1055603027344 293.33282470703125 375.815185546875 292.72479248046875 C 376.47955322265625 292.17657470703125 377.2697448730469 291.75079345703125 377.67755126953125 290.6484375 C 378.931640625 290.5704040527344 380.1280517578125 290.4671630859375 381.7503662109375 290.6662292480469 C 383.05731201171875 290.5705871582031 383.9605407714844 289.4952697753906 388.15496826171875 287.168701171875" stroke-width="0.0" fill="rgb(253, 188, 101)" opacity="0.99994147" stroke="rgb(142, 115, 76)" stroke-opacity="0.4970597" stroke-linecap="round" stroke-linejoin="round"/>
    <path d="M 215.49412536621094 128.82440185546875 C 215.88796997070312 129.76417541503906 216.23255920410156 130.3287811279297 218.17019653320312 129.54708862304688 C 218.0782012939453 130.90872192382812 217.79534912109375 131.8680419921875 217.56268310546875 133.01625061035156 C 217.6465606689453 133.68096923828125 217.79556274414062 134.20367431640625 217.91053771972656 134.26817321777344 C 218.30978393554688 134.1838836669922 218.88368225097656 134.47117614746094 219.0334014892578 133.45974731445312 C 220.2239990234375 132.90855407714844 221.3319854736328 132.78294372558594 222.41485595703125 133.5018310546875 C 223.3039093017578 133.5874786376953 224.0878143310547 133.65357971191406 224.66567993164062 133.9393768310547 C 225.11627197265625 134.62335205078125 225.3522186279297 135.2566680908203 225.63064575195312 136.0860137939453 C 225.7664031982422 136.81166076660156 226.14349365234375 137.57757568359375 226.89744567871094 138.3044891357422 C 226.15516662597656 139.06224060058594 225.91372680664062 139.80909729003906 226.74961853027344 140.18211364746094 C 226.65679931640625 140.9195556640625 226.24810791015625 141.70411682128906 226.15379333496094 142.53866577148438 C 226.2157440185547 143.36712646484375 226.227783203125 144.2935028076172 227.52293395996094 145.84698486328125 C 227.3329620361328 147.10118103027344 226.7537078857422 148.16061401367188 226.17825317382812 149.78208923339844 C 225.2984619140625 149.79798889160156 224.49603271484375 150.65618896484375 223.8494873046875 151.34051513671875 C 222.6279754638672 150.4189453125 222.060791015625 150.48739624023438 221.51222229003906 150.44802856445312 C 221.0299530029297 150.21546936035156 220.76754760742188 149.7333221435547 220.462890625 149.0596160888672 C 219.97018432617188 148.46212768554688 219.19903564453125 147.84771728515625 218.4788818359375 147.0700225830078 C 218.4825897216797 146.2229461669922 218.1924591064453 145.59304809570312 217.32240295410156 144.23240661621094 C 217.2495574951172 142.365478515625 216.17730712890625 141.6824493408203 214.38140869140625 141.20297241210938 C 214.20199584960938 139.427978515625 213.3455352783203 137.6530303955078 211.4534912109375 137.33432006835938 C 209.17564392089844 137.21917724609375 207.71444702148438 136.43235778808594 208.03366088867188 135.07444763183594 C 207.56112670898438 134.16342163085938 206.56581115722656 133.85459899902344 205.84982299804688 133.4928741455078 C 205.21087646484375 133.17645263671875 204.72503662109375 132.88218688964844 204.35023498535156 132.5448455810547 C 204.2584991455078 132.1959686279297 204.3882598876953 131.79776000976562 204.75308227539062 131.36085510253906 C 205.28857421875 130.86209106445312 205.8914337158203 130.36219787597656 206.06166076660156 129.1093292236328 C 206.78643798828125 128.25765991210938 208.37989807128906 128.09190368652344 210.20620727539062 128.32568359375 C 211.88674926757812 128.61207580566406 213.21803283691406 128.3556365966797 215.49412536621094 128.82440185546875" stroke-width="0.0" fill="rgb(146, 70, 19)" opacity="0.99995816" stroke="rgb(212, 104, 37)" stroke-opacity="0.56166697" stroke-linecap="round" stroke-linejoin="round"/>
    <path d="M 203.86273193359375 140.52035522460938 C 204.58724975585938 141.18411254882812 205.35293579101562 141.89251708984375 206.09437561035156 142.60362243652344 C 206.7754669189453 143.37742614746094 207.42327880859375 144.19754028320312 207.9892578125 145.037841796875 C 208.42105102539062 145.91452026367188 208.69503784179688 146.7907257080078 208.76268005371094 147.60162353515625 C 208.6102752685547 148.32467651367188 208.23757934570312 148.93408203125 207.64639282226562 149.382080078125 C 206.8504638671875 149.6499481201172 205.90545654296875 149.76856994628906 204.86106872558594 149.70654296875 C 203.7596435546875 149.52490234375 202.68377685546875 149.14366149902344 201.7040252685547 148.68325805664062 C 200.8583984375 148.07652282714844 200.19326782226562 147.41885375976562 199.74713134765625 146.70635986328125 C 199.56488037109375 145.94219970703125 199.61288452148438 145.1881866455078 199.86122131347656 144.4513397216797 C 200.31436157226562 143.7045135498047 200.957763671875 142.9909210205078 201.65708923339844 142.29067993164062 C 202.46432495117188 141.58518981933594 203.2466583251953 140.88619995117188 203.86273193359375 140.52035522460938" stroke-width="0.0" fill="rgb(1, 2, 4)" opacity="1.0" stroke="rgb(131, 51, 222)" stroke-opacity="0.95700073" stroke-linecap="round" stroke-linejoin="round"/>
    <path d="M 295.31787109375 118.90179443359375 C 295.6690673828125 119.12985229492188 296.0508728027344 119.3562240600586 296.4073486328125 119.63798522949219 C 296.71038818359375 119.983154296875 296.9808044433594 120.4418716430664 297.23919677734375 121.01361083984375 C 297.47265625 121.74378967285156 297.6833190917969 122.5216293334961 297.9052429199219 123.35020446777344 C 298.1843566894531 124.09419250488281 298.5104675292969 124.69012451171875 298.8540954589844 125.0748062133789 C 299.2323913574219 125.17776489257812 299.6143798828125 125.0559310913086 299.9504699707031 124.76445770263672 C 300.2776794433594 124.38372802734375 300.5191345214844 124.05746459960938 300.756103515625 123.89028930664062 C 301.01226806640625 123.91307830810547 301.2960205078125 124.25247192382812 301.68206787109375 124.84937286376953 C 302.1419677734375 125.65351867675781 302.70343017578125 126.6199722290039 303.3788757324219 127.64544677734375 C 304.12445068359375 128.6072998046875 304.9602355957031 129.44483947753906 305.8548583984375 130.1256866455078 C 306.79888916015625 130.53936767578125 307.7746887207031 130.76263427734375 308.7554016113281 130.789794921875 C 309.7492370605469 130.69944763183594 310.73468017578125 130.47705078125 311.71295166015625 130.1705322265625 C 312.6897888183594 129.73167419433594 313.6225891113281 129.1833953857422 314.5005187988281 128.4726104736328 C 315.2843017578125 127.62710571289062 315.9601135253906 126.64056396484375 316.4911193847656 125.59249877929688 C 316.90362548828125 124.54021453857422 317.1866455078125 123.53945922851562 317.4367370605469 122.66304779052734 C 317.6848449707031 121.96124267578125 317.92694091796875 121.47236633300781 318.2838134765625 121.20904541015625 C 318.67559814453125 121.16908264160156 319.19940185546875 121.34502410888672 319.7442932128906 121.71379852294922 C 320.4060363769531 122.24481964111328 321.0577697753906 122.91436004638672 321.7363586425781 123.68871307373047 C 322.45245361328125 124.51940155029297 323.1869812011719 125.3707046508789 323.91815185546875 126.20149230957031 C 324.63336181640625 126.98234558105469 325.31036376953125 127.6893081665039 325.8834533691406 128.28237915039062 C 326.2894592285156 128.78909301757812 326.5182800292969 129.20741271972656 326.55279541015625 129.56275939941406 C 326.3854675292969 129.88258361816406 326.0315246582031 130.1989288330078 325.55609130859375 130.5415496826172 C 325.0003967285156 130.92172241210938 324.520263671875 131.43869018554688 324.132568359375 131.9595947265625 C 323.9540100097656 132.6223907470703 323.9209289550781 133.3121337890625 324.0540771484375 134.0072784423828 C 324.16680908203125 134.6747589111328 324.23828125 135.23458862304688 324.1539306640625 135.672119140625 C 323.85888671875 135.95791625976562 323.347412109375 136.07583618164062 322.6447448730469 136.0490264892578 C 321.8067626953125 135.87367248535156 320.8722839355469 135.5925750732422 319.9704895019531 135.27450561523438 C 319.124267578125 134.98049926757812 318.3497314453125 134.78790283203125 317.73919677734375 134.76956176757812 C 317.2610778808594 134.94027709960938 316.8382873535156 135.32150268554688 316.473388671875 135.8872528076172 C 316.0618896484375 136.56280517578125 315.64349365234375 137.26905822753906 315.1239929199219 137.916748046875 C 314.5579528808594 138.41253662109375 313.9907531738281 138.66966247558594 313.4435119628906 138.61268615722656 C 312.94464111328125 138.2439727783203 312.6070556640625 137.606201171875 312.3862609863281 136.74920654296875 C 312.2510070800781 135.77154541015625 312.2180480957031 134.7664794921875 312.201416015625 133.791748046875 C 312.0877990722656 132.9209747314453 311.90924072265625 132.24334716796875 311.5637512207031 131.71621704101562 C 311.1007385253906 131.40711975097656 310.55499267578125 131.22943115234375 309.89892578125 131.2034912109375 C 309.19268798828125 131.3081817626953 308.4645690917969 131.45236206054688 307.71966552734375 131.6598663330078 C 306.96783447265625 131.90524291992188 306.205810546875 132.1099853515625 305.40325927734375 132.31068420410156 C 304.54119873046875 132.53225708007812 303.6835021972656 132.75148010253906 302.7232666015625 132.96705627441406 C 301.81915283203125 133.25633239746094 300.9798278808594 133.57472229003906 300.2596130371094 133.9230194091797 C 299.7875061035156 134.39219665527344 299.5461120605469 134.8697052001953 299.6247253417969 135.3850860595703 C 299.9957580566406 135.96701049804688 300.61053466796875 136.55018615722656 301.41729736328125 137.13626098632812 C 302.3281555175781 137.75193786621094 303.2482604980469 138.33963012695312 304.172119140625 138.87196350097656 C 304.979248046875 139.36660766601562 305.6301574707031 139.77601623535156 306.1490173339844 140.11341857910156 C 306.42333984375 140.36317443847656 306.4582824707031 140.5133819580078 306.3107604980469 140.57630920410156 C 305.9222717285156 140.5959014892578 305.386962890625 140.57220458984375 304.7010192871094 140.45819091796875 C 303.88580322265625 140.27383422851562 303.0188293457031 140.01145935058594 302.1463928222656 139.60848999023438 C 301.28106689453125 139.08969116210938 300.4463806152344 138.46871948242188 299.6739807128906 137.71885681152344 C 298.972900390625 136.87802124023438 298.32391357421875 135.93765258789062 297.73016357421875 134.91331481933594 C 297.1790771484375 133.85537719726562 296.6332702636719 132.78118896484375 296.1643981933594 131.701904296875 C 295.6678771972656 130.6737518310547 295.25482177734375 129.72291564941406 294.8384094238281 128.81033325195312 C 294.4877624511719 127.92626953125 294.2229919433594 127.16558837890625 293.9986267089844 126.43135070800781 C 293.8249206542969 125.68509674072266 293.75750732421875 125.02433013916016 293.7256774902344 124.36592864990234 C 293.7884216308594 123.68062591552734 293.84332275390625 123.06564331054688 293.9056396484375 122.46090698242188 C 293.9493713378906 121.87320709228516 293.9617919921875 121.3419189453125 293.9251403808594 120.85865020751953 C 293.87750244140625 120.38500213623047 293.79669189453125 119.93075561523438 293.75140380859375 119.51705932617188 C 293.75726318359375 119.1318130493164 293.7914733886719 118.77613830566406 293.88336181640625 118.44695281982422 C 293.91363525390625 118.07998657226562 293.99749755859375 117.72962188720703 295.31787109375 118.90179443359375" stroke-width="0.0" fill="rgb(144, 70, 27)" opacity="0.9999475" stroke="rgb(119, 95, 227)" stroke-opacity="0.38895273" stroke-linecap="round" stroke-linejoin="round"/>
    <path d="M 115.28886413574219 357.4535217285156 C 115.89459991455078 358.6981506347656 116.4610595703125 359.9783935546875 117.05286407470703 361.1966857910156 C 117.6175765991211 362.383056640625 118.14904022216797 363.53973388671875 118.62126159667969 364.5887145996094 C 119.00977325439453 365.5271911621094 119.26111602783203 366.3885498046875 119.40140533447266 367.1510925292969 C 119.35667419433594 367.8364562988281 119.22369384765625 368.49432373046875 118.97114562988281 369.0828552246094 C 118.70341491699219 369.67462158203125 118.48751831054688 370.29498291015625 118.30462646484375 370.9105224609375 C 118.21478271484375 371.58489990234375 118.30415344238281 372.31524658203125 118.46939849853516 373.0625305175781 C 118.81692504882812 373.9271240234375 119.21151733398438 374.84869384765625 119.59622192382812 375.8017578125 C 120.04419708251953 376.80810546875 120.46068572998047 377.8830871582031 120.80902099609375 378.9755859375 C 121.18604278564453 380.06951904296875 121.50929260253906 381.1529541015625 121.82524871826172 382.2087707519531 C 122.18008422851562 383.214111328125 122.58037567138672 384.1412353515625 123.12223052978516 384.9652404785156 C 123.73651885986328 385.7276916503906 124.51206970214844 386.436279296875 125.40415954589844 387.0754699707031 C 126.38818359375 387.6767578125 127.49250030517578 388.27935791015625 128.63438415527344 388.86651611328125 C 129.7864227294922 389.46337890625 130.9461212158203 390.0867004394531 132.10260009765625 390.7065124511719 C 133.21334838867188 391.2767028808594 134.2481689453125 391.8526611328125 135.21568298339844 392.40167236328125 C 136.1460418701172 392.8370361328125 137.04351806640625 393.2086486816406 137.90577697753906 393.444580078125 C 138.7947540283203 393.6170654296875 139.7065887451172 393.7291259765625 140.63583374023438 393.7677001953125 C 141.61248779296875 393.8305969238281 142.56134033203125 393.91339111328125 143.45156860351562 393.99017333984375 C 144.2113800048828 394.18267822265625 144.7852325439453 394.4043884277344 145.15162658691406 394.68267822265625 C 145.2052001953125 395.03558349609375 145.0000762939453 395.41363525390625 144.5140380859375 395.7896423339844 C 143.80650329589844 396.1412048339844 142.9232940673828 396.3799133300781 141.91184997558594 396.5701904296875 C 140.80662536621094 396.6531982421875 139.63629150390625 396.6566162109375 138.47410583496094 396.6055603027344 C 137.34677124023438 396.4884338378906 136.21481323242188 396.27276611328125 135.08642578125 396.022216796875 C 134.0202178955078 395.68597412109375 133.00137329101562 395.2552490234375 131.98648071289062 394.7554016113281 C 131.00640869140625 394.1898193359375 130.06431579589844 393.57550048828125 129.0777587890625 392.9504699707031 C 128.15599060058594 392.2940979003906 127.17396545410156 391.6133117675781 126.26407623291016 390.9549255371094 C 125.37316131591797 390.3743591308594 124.5184097290039 389.82952880859375 123.69950866699219 389.2986145019531 C 122.9555892944336 388.780517578125 122.2564697265625 388.18035888671875 121.60850524902344 387.470947265625 C 121.04165649414062 386.5906677246094 120.52008819580078 385.5870056152344 120.03579711914062 384.427490234375 C 119.62683868408203 383.15380859375 119.18611145019531 381.85589599609375 118.80755615234375 380.53192138671875 C 118.4062271118164 379.1961364746094 118.07967376708984 377.9127502441406 117.74005126953125 376.7138671875 C 117.45172882080078 375.6075134277344 117.2236557006836 374.5957946777344 117.03886413574219 373.6867370605469 C 116.93087768554688 372.9042053222656 116.8898696899414 372.2312927246094 116.92618560791016 371.6544189453125 C 117.05359649658203 371.12274169921875 117.21788024902344 370.610107421875 117.38864135742188 370.0978088378906 C 117.51371002197266 369.5657653808594 117.5382080078125 368.9803466796875 117.45781707763672 368.3002014160156 C 117.26016998291016 367.5037841796875 116.94657897949219 366.5679626464844 116.49774169921875 365.49114990234375 C 115.96693420410156 364.240478515625 115.32320404052734 362.9031066894531 114.72037506103516 361.5118713378906 C 114.05663299560547 360.0592956542969 113.41812896728516 358.58404541015625 115.28886413574219 357.4535217285156" stroke-width="0.0" fill="rgb(120, 92, 169)" opacity="0.99991983" stroke="rgb(179, 71, 115)" stroke-opacity="0.5190182" stroke-linecap="round" stroke-linejoin="round"/>
    <path d="M 121.60953521728516 339.3328552246094 C 121.83924865722656 339.9081726074219 122.0750503540039 340.5448913574219 122.21121215820312 341.16851806640625 C 122.23697662353516 341.8133850097656 122.11251068115234 342.5273132324219 121.83216094970703 343.3193359375 C 121.45512390136719 344.17120361328125 121.02727508544922 345.15081787109375 120.59077453613281 346.1801452636719 C 120.27242279052734 347.22991943359375 120.0626449584961 348.2953796386719 120.04503631591797 349.2860107421875 C 120.24269104003906 350.13885498046875 120.60594940185547 350.8129577636719 121.14486694335938 351.2259826660156 C 121.80262756347656 351.4244079589844 122.53192901611328 351.3858337402344 123.27014923095703 351.1260681152344 C 124.04441833496094 350.7500915527344 124.8052749633789 350.3086853027344 125.5300064086914 349.888916015625 C 126.2752914428711 349.6128234863281 126.99310302734375 349.4819641113281 127.72018432617188 349.5395812988281 C 128.42478942871094 349.8540344238281 129.10635375976562 350.39959716796875 129.77059936523438 351.1244201660156 C 130.41270446777344 352.0269470214844 131.01820373535156 353.0322570800781 131.594970703125 354.072265625 C 132.16299438476562 355.1688537597656 132.72256469726562 356.2743835449219 133.34339904785156 357.3544616699219 C 133.9266815185547 358.47491455078125 134.5661163330078 359.6117858886719 135.1633758544922 360.7542724609375 C 135.7308807373047 361.8970031738281 136.20249938964844 363.0118103027344 136.50460815429688 364.0490417480469 C 136.59283447265625 364.9774475097656 136.4539794921875 365.7321472167969 136.06158447265625 366.2972412109375 C 135.39871215820312 366.6204833984375 134.53221130371094 366.6772155761719 133.49691772460938 366.4656677246094 C 132.35540771484375 366.0293884277344 131.1846466064453 365.3601379394531 130.04832458496094 364.4862976074219 C 128.9749755859375 363.4545593261719 128.02442932128906 362.3100280761719 127.24847412109375 361.0686950683594 C 126.611572265625 359.7813720703125 126.14940643310547 358.5052185058594 125.81861114501953 357.2664489746094 C 125.55238342285156 356.10198974609375 125.3536376953125 355.09967041015625 125.15050506591797 354.3246765136719 C 124.9421615600586 353.79302978515625 124.6907958984375 353.5499267578125 124.38438415527344 353.6290588378906 C 124.06480407714844 353.9365539550781 123.73495483398438 354.4537353515625 123.49185180664062 355.1661376953125 C 123.3199691772461 355.95068359375 123.3173828125 356.79827880859375 123.49010467529297 357.6737060546875 C 123.83624267578125 358.55706787109375 124.3225326538086 359.4792785644531 124.92166900634766 360.4531555175781 C 125.60274505615234 361.45819091796875 126.28739929199219 362.4835205078125 126.96154022216797 363.544921875 C 127.5488510131836 364.6405334472656 128.1119842529297 365.693603515625 128.56097412109375 366.6956481933594 C 129.04281616210938 367.6225891113281 129.52627563476562 368.40887451171875 130.06263732910156 369.0924072265625 C 130.7095489501953 369.7188720703125 131.41529846191406 370.3027038574219 132.1636962890625 370.8665771484375 C 132.9550018310547 371.5357666015625 133.72378540039062 372.2740783691406 134.3904571533203 373.1549987792969 C 134.97872924804688 374.1515197753906 135.4024200439453 375.21551513671875 135.72998046875 376.3117980957031 C 135.99530029296875 377.3990173339844 136.18746948242188 378.4244689941406 136.41183471679688 379.31732177734375 C 136.67333984375 380.0867004394531 136.9697723388672 380.7347412109375 137.33738708496094 381.30206298828125 C 137.79391479492188 381.8467712402344 138.28509521484375 382.34918212890625 138.79335021972656 382.89129638671875 C 139.32037353515625 383.49090576171875 139.80642700195312 384.1639099121094 140.29408264160156 384.91217041015625 C 140.77383422851562 385.7457275390625 141.24571228027344 386.583984375 141.75877380371094 387.4939880371094 C 142.3080291748047 388.38775634765625 142.86985778808594 389.2121887207031 143.3909149169922 389.99566650390625 C 143.86434936523438 390.7372131347656 144.18101501464844 391.34637451171875 144.34039306640625 391.827392578125 C 144.27305603027344 392.2048645019531 143.9658203125 392.4202880859375 143.4541015625 392.5198974609375 C 142.74801635742188 392.51458740234375 141.93963623046875 392.3695068359375 141.04278564453125 392.14434814453125 C 140.11439514160156 391.9017028808594 139.1870574951172 391.64617919921875 138.1809844970703 391.34521484375 C 137.1194305419922 391.1014099121094 136.03347778320312 390.86712646484375 134.8616180419922 390.6123352050781 C 133.7151336669922 390.360595703125 132.60943603515625 390.0462341308594 131.6214599609375 389.6312561035156 C 130.813232421875 389.15618896484375 130.23805236816406 388.6177062988281 129.922119140625 387.9364929199219 C 129.7970733642578 387.20343017578125 129.83535766601562 386.43585205078125 129.98052978515625 385.6655578613281 C 130.1400909423828 384.9393005371094 130.23939514160156 384.31048583984375 130.1842041015625 383.78546142578125 C 129.929931640625 383.3810729980469 129.46775817871094 383.133056640625 128.80335998535156 383.05816650390625 C 127.98558807373047 383.1261901855469 127.04407501220703 383.275634765625 126.03741455078125 383.4267578125 C 125.05648040771484 383.55889892578125 124.18779754638672 383.5693664550781 123.4133529663086 383.41864013671875 C 122.79046630859375 383.0926818847656 122.38179016113281 382.5726318359375 122.1322250366211 381.8540954589844 C 122.03514099121094 380.9951171875 122.0831069946289 380.0385437011719 122.15338897705078 379.0247497558594 C 122.2508316040039 378.0066833496094 122.29756164550781 377.0387268066406 122.29222106933594 376.13165283203125 C 122.23209381103516 375.30419921875 122.12772369384766 374.564208984375 122.00692749023438 373.87847900390625 C 121.87747192382812 373.2252197265625 121.80191802978516 372.6090393066406 121.7349624633789 371.9459228515625 C 121.71672058105469 371.20208740234375 121.74874877929688 370.4053649902344 121.79985809326172 369.4804382324219 C 121.87449645996094 368.38201904296875 121.98065948486328 367.1514587402344 122.00933837890625 365.770751953125 C 122.006591796875 364.2839660644531 121.92912292480469 362.73492431640625 121.71904754638672 361.1717224121094 C 121.39590454101562 359.62939453125 120.9547348022461 358.14453125 120.42730712890625 356.7730407714844 C 119.8660659790039 355.4670104980469 119.25602722167969 354.2312927246094 118.66886901855469 352.9877014160156 C 118.13724517822266 351.75225830078125 117.66753387451172 350.4676818847656 117.27084350585938 349.0693054199219 C 116.9784927368164 347.63031005859375 116.7925033569336 346.0998229980469 116.64116668701172 344.49212646484375 C 116.51656341552734 342.8790588378906 116.45398712158203 341.2776794433594 121.60953521728516 339.3328552246094" stroke-width="0.0" fill="rgb(146, 116, 173)" opacity="1.0" stroke="rgb(197, 132, 77)" stroke-opacity="0.16923434" stroke-linecap="round" stroke-linejoin="round"/>
    <path d="M 153.0 514.0 C 154.0 514.0 154.0 515.0 154.0 516.0 C 155.0 517.0 155.0 518.0 156.0 519.0 C 157.0 519.0 158.0 520.0 159.0 520.0 C 160.0 519.0 161.0 519.0 162.0 519.0 C 163.0 519.0 162.0 519.0 161.0 519.0 C 160.0 520.0 160.0 521.0 160.0 522.0 C 161.0 523.0 162.0 523.0 163.0 523.0 C 163.0 524.0 162.0 525.0 162.0 526.0 C 162.0 527.0 161.0 528.0 161.0 529.0 C 161.0 530.0 160.0 530.0 159.0 530.0 C 159.0 529.0 159.0 528.0 160.0 527.0 C 160.0 526.0 160.0 525.0 160.0 524.0 C 160.0 523.0 159.0 522.0 158.0 522.0 C 157.0 522.0 156.0 522.0 155.0 522.0 C 154.0 521.0 153.0 520.0 152.0 519.0 C 152.0 518.0 152.0 517.0 152.0 516.0 C 152.0 515.0 152.0 514.0 153.0 514.0" stroke-width="0.0" fill="rgb(79, 47, 43)" opacity="1.0" stroke="rgb(86, 14, 93)" stroke-opacity="0.8398023" stroke-linecap="round" stroke-linejoin="round"/>
    <path d="M 307.0 117.0 C 308.0 117.0 308.0 118.0 308.0 119.0 C 308.0 120.0 309.0 121.0 310.0 122.0 C 311.0 122.0 312.0 123.0 313.0 122.0 C 314.0 122.0 315.0 122.0 315.0 123.0 C 315.0 124.0 315.0 125.0 315.0 126.0 C 314.0 127.0 313.0 127.0 312.0 128.0 C 311.0 128.0 310.0 128.0 309.0 128.0 C 308.0 128.0 307.0 128.0 306.0 128.0 C 305.0 127.0 304.0 126.0 304.0 125.0 C 303.0 124.0 303.0 123.0 303.0 122.0 C 303.0 121.0 304.0 120.0 304.0 119.0 C 305.0 118.0 306.0 117.0 307.0 117.0" stroke-width="0.0" fill="rgb(7, 1, 6)" opacity="1.0" stroke="rgb(157, 152, 122)" stroke-opacity="0.18872495" stroke-linecap="round" stroke-linejoin="round"/>
    <path d="M 69.0 203.0 C 70.0 203.0 71.0 203.0 72.0 203.0 C 73.0 203.0 74.0 203.0 75.0 203.0 C 76.0 203.0 77.0 203.0 78.0 203.0 C 79.0 203.0 79.0 204.0 80.0 205.0 C 81.0 205.0 82.0 205.0 83.0 205.0 C 84.0 204.0 84.0 203.0 85.0 203.0 C 86.0 203.0 87.0 203.0 87.0 204.0 C 88.0 205.0 89.0 204.0 89.0 203.0 C 90.0 203.0 91.0 203.0 92.0 203.0 C 93.0 203.0 94.0 203.0 95.0 203.0 C 95.0 204.0 95.0 205.0 94.0 206.0 C 94.0 207.0 93.0 207.0 92.0 207.0 C 91.0 207.0 90.0 207.0 89.0 207.0 C 88.0 207.0 87.0 207.0 86.0 207.0 C 85.0 207.0 84.0 208.0 84.0 209.0 C 84.0 210.0 83.0 210.0 82.0 210.0 C 81.0 210.0 80.0 210.0 79.0 211.0 C 79.0 212.0 79.0 213.0 79.0 214.0 C 79.0 215.0 79.0 214.0 79.0 213.0 C 78.0 212.0 77.0 212.0 77.0 211.0 C 76.0 210.0 75.0 210.0 74.0 210.0 C 73.0 210.0 72.0 210.0 72.0 209.0 C 72.0 208.0 72.0 207.0 72.0 206.0 C 71.0 205.0 70.0 205.0 69.0 206.0 C 69.0 207.0 69.0 208.0 69.0 209.0 C 68.0 209.0 67.0 209.0 67.0 208.0 C 66.0 207.0 66.0 206.0 66.0 205.0 C 66.0 204.0 66.0 203.0 69.0 203.0" stroke-width="0.0" fill="rgb(6, 0, 0)" opacity="1.0" stroke="rgb(83, 9, 123)" stroke-opacity="0.5321717" stroke-linecap="round" stroke-linejoin="round"/>
    <path d="M 122.0 573.0 C 122.0 574.0 122.0 575.0 122.0 576.0 C 121.0 577.0 121.0 578.0 120.0 579.0 C 120.0 580.0 120.0 581.0 120.0 582.0 C 120.0 583.0 120.0 584.0 121.0 585.0 C 121.0 586.0 122.0 587.0 123.0 588.0 C 124.0 589.0 125.0 589.0 126.0 590.0 C 127.0 590.0 128.0 591.0 129.0 591.0 C 130.0 591.0 130.0 592.0 130.0 593.0 C 129.0 593.0 128.0 593.0 127.0 592.0 C 126.0 592.0 125.0 592.0 124.0 591.0 C 123.0 591.0 122.0 590.0 121.0 590.0 C 120.0 589.0 119.0 588.0 119.0 587.0 C 118.0 586.0 118.0 585.0 118.0 584.0 C 118.0 583.0 118.0 582.0 118.0 581.0 C 118.0 580.0 118.0 579.0 118.0 578.0 C 118.0 577.0 118.0 576.0 119.0 575.0 C 119.0 574.0 120.0 573.0 122.0 573.0" stroke-width="0.0" fill="rgb(69, 35, 30)" opacity="1.0" stroke="rgb(41, 111, 178)" stroke-opacity="0.07801348" stroke-linecap="round" stroke-linejoin="round"/>
  </g>
</svg>
