<?xml version="1.0" ?>
<svg xmlns="http://www.w3.org/2000/svg" version="1.1" width="474" height="596">
  <defs/>
  <g>
    <path d="M 267.3696594238281 -1.0949815511703491 C 268.0091247558594 -0.5875347256660461 268.775146484375 -0.6213669776916504 269.1378479003906 -0.8069953322410583 C 269.7298583984375 -0.8779956102371216 270.43133544921875 -1.2122958898544312 270.9574890136719 -1.6848822832107544 C 271.6969299316406 -2.1304712295532227 272.43096923828125 -2.8484301567077637 272.85150146484375 -3.450446605682373 C 273.25286865234375 -3.5658118724823 274.16949462890625 -3.465894937515259 275.26043701171875 -3.3342525959014893 C 276.5363464355469 -2.6831209659576416 278.30987548828125 -1.3930201530456543 281.2015686035156 -0.9767207503318787 C 284.9084777832031 0.8041398525238037 289.7298278808594 2.3446285724639893 296.59576416015625 3.556140899658203 C 303.6182556152344 5.654965877532959 312.0939025878906 8.00264835357666 320.1132507324219 11.76229476928711 C 328.9737243652344 15.21500015258789 337.2420654296875 19.7991943359375 345.1974792480469 24.650440216064453 C 353.6068115234375 29.176502227783203 361.1484680175781 35.340576171875 369.21636962890625 41.6375617980957 C 377.2580871582031 48.38676452636719 384.9625244140625 55.600120544433594 392.07330322265625 63.366851806640625 C 399.3696594238281 70.58965301513672 404.89581298828125 79.55084991455078 411.71734619140625 87.03974914550781 C 417.2554626464844 95.76123046875 423.17572021484375 103.65901947021484 427.7921142578125 112.25366973876953 C 432.4039306640625 120.00025939941406 434.60638427734375 128.01254272460938 431.78363037109375 136.59030151367188 C 428.1224060058594 145.28524780273438 422.2298278808594 152.78173828125 415.71978759765625 161.25271606445312 C 408.0636901855469 168.11378479003906 400.55645751953125 175.76116943359375 393.2586669921875 183.0721435546875 C 384.6309509277344 189.17417907714844 378.34814453125 197.6409912109375 368.96832275390625 203.41746520996094 C 359.9216003417969 209.8059844970703 350.52154541015625 215.89813232421875 340.7697448730469 219.8597869873047 C 331.5331115722656 223.0868377685547 324.5423583984375 224.7529296875 319.3166198730469 224.4600067138672 C 319.5206298828125 220.80458068847656 322.26654052734375 215.1022186279297 327.0414123535156 208.67764282226562 C 334.0133361816406 202.14364624023438 341.9223937988281 195.34469604492188 349.7483215332031 188.4414825439453 C 356.7052001953125 181.25717163085938 362.3114318847656 173.80361938476562 366.5078430175781 166.0292510986328 C 369.1790466308594 157.8320770263672 370.404541015625 149.5205841064453 370.22955322265625 141.15696716308594 C 368.7819519042969 132.9326171875 365.9885559082031 125.0463638305664 362.2805480957031 117.67780303955078 C 357.67724609375 111.36810302734375 352.3604736328125 106.11526489257812 346.419189453125 102.13887023925781 C 340.0351867675781 99.6429214477539 333.15777587890625 98.62604522705078 326.2031555175781 100.49270629882812 C 317.51995849609375 99.89494323730469 309.4696350097656 101.84217834472656 301.6822509765625 104.94224548339844 C 291.67919921875 105.79784393310547 282.6230773925781 107.01349639892578 273.92498779296875 109.23452758789062 C 266.0267333984375 108.85997772216797 259.1874694824219 107.38832092285156 253.88662719726562 106.27629852294922 C 250.33741760253906 103.97235107421875 247.81776428222656 103.39778900146484 246.4297637939453 103.96234893798828 C 245.82833862304688 106.02033233642578 244.89442443847656 109.41830444335938 242.17979431152344 113.1383056640625 C 236.2483673095703 116.77950286865234 229.0619354248047 120.94634246826172 221.07546997070312 125.20845031738281 C 211.15309143066406 128.80442810058594 201.56275939941406 132.36566162109375 191.68653869628906 134.83392333984375 C 182.4862518310547 136.44895935058594 174.92784118652344 137.53732299804688 168.83978271484375 138.7068634033203 C 164.36654663085938 139.8765106201172 161.03433227539062 141.33621215820312 158.41006469726562 143.3866424560547 C 156.086669921875 146.32350158691406 153.83213806152344 150.3931427001953 151.50363159179688 155.77130126953125 C 149.42529296875 162.2298583984375 147.80349731445312 169.609130859375 147.09884643554688 177.57473754882812 C 147.93675231933594 185.77845764160156 150.4574432373047 194.10609436035156 154.7438507080078 202.21812438964844 C 160.9541015625 209.72328186035156 168.89620971679688 216.55679321289062 178.0468292236328 222.75242614746094 C 187.5596466064453 228.15670776367188 196.4988250732422 232.9199676513672 204.38043212890625 236.82102966308594 C 209.76426696777344 240.2071533203125 211.60313415527344 243.11192321777344 210.03326416015625 245.23989868164062 C 205.46498107910156 246.096435546875 198.49575805664062 245.8403778076172 190.19032287597656 244.69212341308594 C 181.34359741210938 243.30271911621094 171.88925170898438 241.8616943359375 162.55810546875 240.70867919921875 C 153.32257080078125 240.9790802001953 144.12074279785156 240.65443420410156 136.1900177001953 239.3770294189453 C 128.12294006347656 238.03118896484375 120.1242904663086 236.60110473632812 112.35855865478516 234.41729736328125 C 103.90708923339844 231.9801025390625 95.10737609863281 229.21914672851562 86.80475616455078 225.6429443359375 C 78.1700668334961 222.23858642578125 70.1399154663086 218.49636840820312 63.2498779296875 214.17041015625 C 58.224754333496094 208.63392639160156 54.53501510620117 202.89178466796875 53.38248825073242 196.01625061035156 C 53.63865280151367 187.13473510742188 54.84269332885742 178.49771118164062 56.72251892089844 169.31051635742188 C 58.1418571472168 160.52769470214844 60.3510856628418 152.04026794433594 62.84860610961914 143.8775634765625 C 64.93451690673828 136.0604705810547 67.90961456298828 128.9807891845703 71.0999526977539 121.37662506103516 C 74.4583969116211 113.69384002685547 78.38371276855469 105.76571655273438 83.1020278930664 97.72106170654297 C 88.18260192871094 89.47462463378906 93.7869644165039 81.2159652709961 100.37568664550781 73.31016540527344 C 107.22371673583984 65.1283187866211 114.504150390625 57.219268798828125 122.67460632324219 50.16613006591797 C 130.29739379882812 42.876468658447266 138.92303466796875 37.26546096801758 146.61988830566406 31.452280044555664 C 154.21128845214844 26.43180274963379 161.7617645263672 24.468626022338867 171.68699645996094 23.80438232421875 C 180.6019744873047 23.2119083404541 189.18539428710938 24.744150161743164 197.4436798095703 26.621967315673828 C 204.7284698486328 28.526512145996094 209.21437072753906 30.498268127441406 213.38406372070312 28.50404167175293 C 217.9007110595703 29.646942138671875 223.9054718017578 29.532377243041992 227.506591796875 25.747119903564453 C 233.0595245361328 19.587934494018555 239.56944274902344 12.73190975189209 248.49330139160156 7.685982704162598 C 257.8777160644531 2.7585768699645996 268.7698974609375 -0.5835418105125427 267.3696594238281 -1.0949815511703491" stroke-width="0.0" fill="rgb(64, 38, 30)" opacity="0.9999957" stroke="rgb(221, 110, 77)" stroke-opacity="0.39469033" stroke-linecap="round" stroke-linejoin="round"/>
    <path d="M 279.8276672363281 238.40475463867188 C 287.7995300292969 239.7207794189453 297.2628479003906 240.62538146972656 307.74078369140625 241.51364135742188 C 320.3268737792969 243.61106872558594 334.660400390625 247.52748107910156 351.0911560058594 254.9007110595703 C 368.14459228515625 265.7585144042969 384.93841552734375 276.5596923828125 398.52471923828125 285.12152099609375 C 405.8908996582031 290.3830871582031 406.3924255371094 292.03662109375 400.33367919921875 291.28631591796875 C 390.537841796875 289.7454528808594 380.7114562988281 289.69073486328125 374.2687683105469 292.7603454589844 C 374.2339782714844 298.9813232421875 380.6081848144531 308.2050476074219 392.1388854980469 319.8119812011719 C 406.7748107910156 332.0427551269531 420.0584716796875 342.0885009765625 427.6356201171875 349.3450012207031 C 427.79791259765625 347.51031494140625 419.75457763671875 340.73297119140625 404.1837158203125 331.80670166015625 C 381.3144836425781 328.6356201171875 358.3470153808594 324.9020690917969 339.053466796875 320.76800537109375 C 326.50152587890625 323.4108581542969 323.4571228027344 333.00872802734375 322.5096435546875 350.57879638671875 C 323.7403869628906 370.24053955078125 317.90753173828125 390.70062255859375 309.09814453125 412.495361328125 C 301.0465393066406 434.70684814453125 295.7242126464844 457.0430603027344 290.37542724609375 478.0512390136719 C 289.4080810546875 496.1603698730469 291.7983703613281 511.3439636230469 292.9250793457031 522.19482421875 C 289.2701110839844 527.0336303710938 279.0374755859375 526.59765625 265.40386962890625 525.4995727539062 C 251.37619018554688 525.2091064453125 239.23497009277344 529.686767578125 234.27748107910156 538.69677734375 C 235.4774627685547 556.0869750976562 243.74862670898438 570.69189453125 260.2005920410156 579.035888671875 C 279.41534423828125 581.8616333007812 299.04339599609375 579.7169799804688 315.7990417480469 579.0752563476562 C 326.63714599609375 577.5100708007812 329.3311462402344 578.4722290039062 322.7613830566406 580.1870727539062 C 308.7697448730469 580.3299560546875 291.44183349609375 581.392822265625 273.87066650390625 580.7589721679688 C 255.66323852539062 576.5084228515625 242.23590087890625 569.5389404296875 237.1800079345703 555.8228149414062 C 237.2059783935547 535.8381958007812 238.123291015625 513.492919921875 242.58424377441406 490.8308410644531 C 242.16622924804688 473.3151550292969 236.84820556640625 460.5673522949219 228.94000244140625 456.1009216308594 C 221.5473175048828 463.097412109375 214.22564697265625 474.35791015625 206.67636108398438 484.59423828125 C 199.17881774902344 490.398193359375 192.5229034423828 492.265625 187.65972900390625 492.349853515625 C 185.36570739746094 492.8398132324219 186.3794708251953 496.16973876953125 190.68112182617188 503.61181640625 C 197.5189666748047 514.9407348632812 205.7610321044922 529.4127197265625 213.7390594482422 545.1612548828125 C 217.35113525390625 560.4038696289062 213.71426391601562 573.9432373046875 202.29225158691406 583.660888671875 C 183.3753204345703 589.8239135742188 163.80433654785156 594.0965576171875 144.94284057617188 594.839111328125 C 131.09298706054688 591.6740112304688 124.06129455566406 586.1414794921875 125.88212585449219 579.7841796875 C 135.60707092285156 581.4168701171875 151.87278747558594 582.4053955078125 168.299072265625 584.2778930664062 C 188.6513214111328 583.220703125 203.86495971679688 577.7639770507812 214.52723693847656 568.9067993164062 C 216.6435546875 555.6506958007812 213.60025024414062 542.62451171875 206.7798614501953 532.1339111328125 C 196.01666259765625 526.5640258789062 185.3035430908203 524.4760131835938 175.84524536132812 523.8284912109375 C 169.11878967285156 522.4852294921875 165.40313720703125 518.9716796875 164.3788604736328 511.8807678222656 C 164.72622680664062 500.550048828125 164.2127227783203 484.9783630371094 162.46063232421875 466.4238586425781 C 158.42730712890625 445.6886291503906 154.07733154296875 424.0269470214844 151.8384552001953 402.12493896484375 C 141.43923950195312 383.0865173339844 132.36473083496094 366.9827880859375 120.80200958251953 355.2847595214844 C 109.67340087890625 349.5638427734375 100.01285552978516 349.4119873046875 92.81653594970703 354.3749084472656 C 87.27971649169922 356.66656494140625 87.14949798583984 355.7778015136719 91.42343139648438 350.84417724609375 C 97.78382110595703 343.1548156738281 104.12081909179688 333.3148193359375 109.1279067993164 322.7751159667969 C 111.50772094726562 312.3352355957031 110.44674682617188 302.8104248046875 106.27804565429688 294.64691162109375 C 99.98529815673828 288.0484924316406 96.13629913330078 282.2225341796875 97.80554962158203 275.3053283691406 C 106.1718521118164 267.5706787109375 118.8955307006836 259.9619140625 133.76303100585938 252.15945434570312 C 148.10276794433594 245.5985870361328 159.60435485839844 242.1143341064453 167.82711791992188 245.16641235351562 C 169.3358612060547 253.06724548339844 165.8542022705078 265.1134948730469 161.84481811523438 281.4332275390625 C 156.99925231933594 299.07257080078125 152.7288055419922 317.1555480957031 151.05072021484375 334.5646667480469 C 152.9462432861328 349.9096984863281 156.07688903808594 361.93145751953125 159.09510803222656 369.8503723144531 C 159.31752014160156 373.09881591796875 159.6122283935547 370.92279052734375 159.9595489501953 364.0700378417969 C 160.89234924316406 354.0634765625 164.10345458984375 341.1876220703125 167.94692993164062 326.84014892578125 C 174.1804962158203 313.045654296875 181.95387268066406 302.02532958984375 187.24583435058594 291.7823486328125 C 191.714599609375 284.8111572265625 195.03590393066406 279.311279296875 195.70472717285156 273.7757568359375 C 197.176513671875 267.5990905761719 198.5059356689453 260.67694091796875 203.29037475585938 254.78660583496094 C 210.43716430664062 250.8498992919922 219.3833465576172 250.62249755859375 229.962646484375 251.76760864257812 C 241.62689208984375 253.06312561035156 253.51870727539062 255.87490844726562 265.3275451660156 262.00067138671875 C 275.17254638671875 272.0830993652344 282.9597473144531 285.2096252441406 291.97991943359375 296.49591064453125 C 301.4656677246094 305.9349060058594 304.6346435546875 314.0097351074219 312.07952880859375 316.94061279296875 C 314.8005065917969 316.0035705566406 317.48052978515625 312.9149475097656 316.3778991699219 308.6998596191406 C 318.7855529785156 304.4531555175781 318.79833984375 299.6491394042969 317.14471435546875 294.2616882324219 C 316.78875732421875 287.0843200683594 314.5788269042969 278.4404296875 309.2020568847656 269.6673889160156 C 303.4459228515625 259.7066650390625 296.8873291015625 248.88491821289062 279.8276672363281 238.40475463867188" stroke-width="0.0" fill="rgb(252, 110, 165)" opacity="0.99996954" stroke="rgb(18, 70, 167)" stroke-opacity="0.20473738" stroke-linecap="round" stroke-linejoin="round"/>
    <path d="M 239.1591339111328 96.83415985107422 C 240.91786193847656 96.12245178222656 241.2721710205078 96.49789428710938 241.84967041015625 96.56631469726562 C 242.71051025390625 96.54908752441406 243.34579467773438 96.6169204711914 243.41421508789062 97.65729522705078 C 243.8915557861328 98.54364013671875 244.7269744873047 99.41788482666016 245.95547485351562 99.90168762207031 C 247.55299377441406 100.6553726196289 250.85540771484375 101.16023254394531 251.89427185058594 103.63654327392578 C 254.20687866210938 106.04438018798828 257.7641906738281 107.29317474365234 261.6231994628906 107.6096420288086 C 266.1556396484375 108.74658203125 270.7240905761719 108.96693420410156 275.1763000488281 106.96873474121094 C 279.90850830078125 106.93707275390625 284.50897216796875 106.57319641113281 289.14300537109375 105.97380065917969 C 293.95062255859375 106.48920440673828 298.232666015625 106.40939331054688 302.3827209472656 106.5968246459961 C 306.1488037109375 107.83623504638672 309.71746826171875 109.88600158691406 313.0760498046875 112.75972747802734 C 316.1812438964844 116.3740234375 319.0457458496094 120.6076431274414 321.865478515625 125.05926513671875 C 324.92132568359375 129.31494140625 328.13970947265625 132.5361328125 332.00982666015625 133.5764923095703 C 336.6922607421875 132.74008178710938 341.27520751953125 132.3217010498047 343.1146545410156 127.46431732177734 C 346.22137451171875 123.64640045166016 346.4403991699219 118.30492401123047 343.27947998046875 113.38121795654297 C 343.16766357421875 107.99452209472656 339.79864501953125 104.68241119384766 337.9008483886719 101.500732421875 C 338.3734130859375 98.28279113769531 339.6263122558594 97.73291778564453 342.86712646484375 98.90559387207031 C 346.8509826660156 100.56944274902344 351.9809265136719 104.27394104003906 357.2825927734375 108.33521270751953 C 361.1087951660156 114.51334381103516 364.864013671875 120.4289321899414 367.8948059082031 126.22743225097656 C 369.45892333984375 133.76502990722656 370.4559326171875 140.8686065673828 370.1309509277344 147.62791442871094 C 369.260498046875 154.14288330078125 368.7854919433594 160.3184051513672 367.45892333984375 166.89039611816406 C 365.5970153808594 173.5723876953125 361.5459899902344 179.85275268554688 358.176025390625 185.86778259277344 C 354.13201904296875 191.21133422851562 348.78369140625 196.763427734375 343.42315673828125 202.22877502441406 C 338.82965087890625 207.8965606689453 333.17999267578125 212.3665008544922 327.07635498046875 214.7984619140625 C 321.6088562011719 218.08700561523438 316.6514892578125 221.11509704589844 311.67266845703125 224.91184997558594 C 305.65167236328125 226.41079711914062 299.9932861328125 228.5884246826172 295.14117431640625 232.53675842285156 C 290.1653747558594 233.98965454101562 287.1425476074219 237.6477813720703 287.2151184082031 242.74278259277344 C 289.6988220214844 248.68081665039062 293.5785827636719 254.6427764892578 297.69683837890625 259.8780517578125 C 301.0677795410156 264.3275146484375 303.5881652832031 266.6669921875 304.5965576171875 266.97113037109375 C 303.87066650390625 265.33624267578125 301.312255859375 262.2882995605469 297.58251953125 258.3319091796875 C 293.05047607421875 254.44778442382812 288.29461669921875 251.2667999267578 283.909912109375 249.43601989746094 C 280.3072509765625 249.43490600585938 277.7601013183594 251.1705322265625 276.06671142578125 254.36817932128906 C 275.1434631347656 258.2461853027344 274.7255554199219 262.1615905761719 274.2946472167969 265.4501037597656 C 273.2916564941406 267.3536376953125 271.4737548828125 267.5699157714844 268.7785949707031 265.2759094238281 C 264.878662109375 261.2947998046875 259.22430419921875 258.635009765625 252.97703552246094 255.19908142089844 C 245.3993377685547 253.25009155273438 238.72454833984375 251.6623992919922 232.79742431640625 250.18960571289062 C 227.77842712402344 247.9229736328125 222.94647216796875 247.61839294433594 218.478515625 247.1215362548828 C 214.06468200683594 248.19857788085938 209.74758911132812 250.947509765625 204.76837158203125 253.82691955566406 C 200.98573303222656 257.6852722167969 197.57847595214844 261.5019226074219 194.72572326660156 264.60198974609375 C 192.8369903564453 266.79541015625 192.1604461669922 267.8345642089844 192.90003967285156 267.4717712402344 C 194.87347412109375 265.63140869140625 197.9727783203125 262.5188293457031 201.26358032226562 257.09918212890625 C 205.3875274658203 253.50326538085938 208.86573791503906 248.82203674316406 211.27734375 243.8615264892578 C 209.5293426513672 240.54539489746094 205.10137939453125 237.57701110839844 199.65733337402344 235.58843994140625 C 193.75164794921875 231.44857788085938 185.55752563476562 228.3245391845703 178.7654571533203 223.69288635253906 C 171.37490844726562 219.01722717285156 163.88966369628906 214.66873168945312 158.12945556640625 207.744873046875 C 152.03697204589844 202.89231872558594 148.37991333007812 196.24276733398438 145.4409942626953 189.7875213623047 C 145.68870544433594 180.70033264160156 145.66265869140625 173.83502197265625 146.62255859375 165.91940307617188 C 146.4404296875 160.1221160888672 148.7342529296875 153.49908447265625 152.22633361816406 148.7977752685547 C 156.78549194335938 146.63307189941406 158.2168426513672 142.98655700683594 158.7201385498047 139.39329528808594 C 162.61363220214844 138.67832946777344 165.05543518066406 137.58872985839844 168.63348388671875 139.12684631347656 C 170.8951416015625 137.06753540039062 174.79161071777344 136.4375457763672 179.5398406982422 135.64622497558594 C 185.35458374023438 136.01785278320312 191.26527404785156 135.1798553466797 197.43902587890625 134.4212646484375 C 203.3011474609375 134.13418579101562 208.6535186767578 134.9540557861328 213.24061584472656 136.77395629882812 C 216.6652069091797 139.99205017089844 218.98654174804688 144.03640747070312 220.3162078857422 148.38662719726562 C 221.0920867919922 152.83250427246094 221.7566375732422 157.03549194335938 222.8589630126953 160.2316131591797 C 226.2205047607422 161.17025756835938 230.3527374267578 160.55911254882812 234.3292236328125 157.79969787597656 C 238.87246704101562 157.17774963378906 242.20265197753906 153.8268280029297 245.2823028564453 150.35118103027344 C 245.55221557617188 146.73036193847656 244.72262573242188 143.14773559570312 243.14544677734375 139.67848205566406 C 241.0924835205078 136.47373962402344 238.97412109375 133.63247680664062 237.29054260253906 130.82115173339844 C 235.11521911621094 128.21200561523438 235.5806121826172 125.1195297241211 235.5505828857422 119.8357162475586 C 237.0441131591797 116.44744873046875 240.2999267578125 113.61103057861328 244.92379760742188 111.27558135986328 C 244.66526794433594 104.82579040527344 246.7431182861328 100.1103744506836 239.1591339111328 96.83415985107422" stroke-width="0.0" fill="rgb(249, 187, 106)" opacity="0.99955267" stroke="rgb(106, 3, 40)" stroke-opacity="0.55238646" stroke-linecap="round" stroke-linejoin="round"/>
    <path d="M 171.79278564453125 238.86964416503906 C 176.17059326171875 238.86782836914062 180.365478515625 238.3063507080078 184.29164123535156 239.13783264160156 C 187.80319213867188 241.84164428710938 190.69158935546875 246.314453125 192.53175354003906 252.8466339111328 C 192.72618103027344 261.3150939941406 191.1713104248047 271.72186279296875 187.54981994628906 283.6412048339844 C 182.1802215576172 296.30157470703125 175.6302032470703 309.0640869140625 168.5498809814453 321.2960510253906 C 161.48654174804688 332.5833435058594 155.10855102539062 342.91888427734375 149.92111206054688 352.02398681640625 C 146.48886108398438 360.1033935546875 145.11114501953125 367.19744873046875 146.38401794433594 373.428955078125 C 150.58457946777344 378.6177978515625 157.72787475585938 382.7103271484375 168.062744140625 385.3833923339844 C 181.0691680908203 386.7811279296875 195.7082061767578 387.4082336425781 211.0759735107422 385.98681640625 C 226.212890625 384.5134582519531 239.66453552246094 383.36669921875 249.96278381347656 381.7690734863281 C 256.9360656738281 382.8508605957031 259.23175048828125 382.96807861328125 257.4025573730469 383.1695556640625 C 253.5935516357422 382.20062255859375 250.14166259765625 381.4383544921875 248.9665985107422 378.10052490234375 C 251.3653106689453 375.82232666015625 257.40765380859375 376.4960021972656 266.6406555175781 376.3123474121094 C 277.7648010253906 375.9999694824219 289.1485290527344 378.51409912109375 298.31829833984375 384.6877746582031 C 305.3916320800781 393.2032470703125 309.7536926269531 403.0395812988281 310.9864807128906 414.9085693359375 C 309.3490905761719 427.7396240234375 305.0381774902344 440.56341552734375 299.26287841796875 452.373779296875 C 292.54193115234375 462.3262634277344 285.3684997558594 469.8760070800781 279.41253662109375 476.0173034667969 C 270.9739074707031 479.6467590332031 264.1746826171875 480.8474426269531 258.7962951660156 483.52569580078125 C 254.92486572265625 483.5574951171875 253.2200164794922 485.4192810058594 254.237548828125 487.9598388671875 C 257.1129150390625 489.517333984375 262.6843566894531 492.3473205566406 269.9075012207031 493.93963623046875 C 277.3949279785156 497.3280334472656 283.0955505371094 499.6427917480469 285.3458251953125 503.7030944824219 C 281.6528015136719 511.3472900390625 273.41314697265625 523.84716796875 267.2450866699219 535.9529418945312 C 268.610107421875 559.1619262695312 278.4261474609375 575.4811401367188 296.65557861328125 580.61962890625 C 312.2087707519531 582.4287109375 320.1625061035156 582.1275634765625 320.1722412109375 583.5405883789062 C 310.8280334472656 583.3500366210938 301.13665771484375 582.8912963867188 288.12188720703125 579.99853515625 C 278.025634765625 571.2813720703125 270.49688720703125 558.8687744140625 267.9558410644531 543.717041015625 C 267.5394287109375 530.6930541992188 260.0101013183594 523.14892578125 251.98023986816406 517.978515625 C 247.06336975097656 510.1233825683594 243.08717346191406 500.5028991699219 243.14942932128906 488.4490051269531 C 241.5000762939453 475.52069091796875 236.6429901123047 464.3120422363281 230.23727416992188 456.5006103515625 C 223.26075744628906 456.7659912109375 216.5090789794922 463.544189453125 211.8997039794922 475.5373840332031 C 208.6844482421875 490.05230712890625 209.14761352539062 506.8079528808594 211.128662109375 523.9432373046875 C 213.46575927734375 540.8705444335938 214.49615478515625 556.1205444335938 213.34912109375 568.9189453125 C 206.83673095703125 577.7037353515625 196.29588317871094 583.94775390625 182.56227111816406 586.9695434570312 C 167.88357543945312 587.3347778320312 153.09613037109375 585.4739990234375 139.48684692382812 584.4205932617188 C 131.31524658203125 578.3367309570312 126.65191650390625 573.6875610351562 126.7165756225586 568.6804809570312 C 128.93699645996094 564.6381225585938 130.7601776123047 562.0975952148438 131.10784912109375 561.6018676757812 C 129.62765502929688 563.342529296875 127.4384994506836 567.6216430664062 127.80206298828125 573.1578979492188 C 132.4363555908203 581.4640502929688 144.6092529296875 586.10986328125 160.64578247070312 588.2884521484375 C 178.5170135498047 586.7046508789062 196.64073181152344 582.1529541015625 211.0841827392578 573.3306274414062 C 217.0166778564453 562.3280029296875 216.00250244140625 547.5958862304688 213.5269317626953 534.4884033203125 C 206.78018188476562 527.6087646484375 196.6654815673828 524.3924560546875 187.73199462890625 525.2432861328125 C 178.6053924560547 525.1868286132812 171.4220428466797 524.90087890625 166.8200225830078 522.1281127929688 C 164.802001953125 515.2110595703125 164.3104248046875 505.7290344238281 165.18663024902344 493.46234130859375 C 165.56101989746094 479.2479248046875 165.2649383544922 463.77276611328125 163.8506622314453 447.61773681640625 C 161.32559204101562 431.4176025390625 157.6118621826172 415.6258544921875 152.8358917236328 400.5069580078125 C 146.68235778808594 386.0825500488281 139.16368103027344 373.00347900390625 130.51596069335938 361.5184326171875 C 120.61152648925781 353.30859375 109.63299560546875 349.2485656738281 97.52842712402344 351.0373229980469 C 86.14295196533203 357.0348815917969 75.23619079589844 364.6397399902344 66.46341705322266 373.91302490234375 C 56.56062316894531 381.08294677734375 48.09876251220703 385.8150939941406 39.32624816894531 388.4840393066406 C 31.36380386352539 388.9449462890625 24.52613639831543 386.9510803222656 19.086153030395508 382.6267395019531 C 15.435455322265625 376.1394348144531 13.813730239868164 368.54669189453125 14.677154541015625 360.0887756347656 C 18.938302993774414 351.9005432128906 25.80328369140625 343.3539733886719 32.666351318359375 338.6330871582031 C 45.18730163574219 332.8072509765625 56.84303283691406 326.7886047363281 68.96540832519531 317.41571044921875 C 80.84691619873047 307.974365234375 90.87356567382812 299.5968933105469 100.0439682006836 294.3179016113281 C 108.02857971191406 295.2060852050781 110.80973815917969 300.6584167480469 112.57861328125 310.3885192871094 C 112.39403533935547 320.4868469238281 112.86077117919922 329.3263854980469 112.62364959716797 336.7500915527344 C 113.19697570800781 340.95361328125 117.15996551513672 342.6134033203125 122.68936920166016 342.03045654296875 C 129.5094451904297 339.33575439453125 137.3349151611328 334.76580810546875 145.49038696289062 328.712890625 C 153.09815979003906 321.33984375 159.27952575683594 312.33148193359375 162.74205017089844 301.0374755859375 C 166.69192504882812 289.50494384765625 169.43983459472656 276.8394470214844 171.61224365234375 263.7098083496094 C 173.45782470703125 250.425537109375 175.2403106689453 236.37586975097656 171.79278564453125 238.86964416503906" stroke-width="0.0" fill="rgb(247, 202, 101)" opacity="0.9996923" stroke="rgb(101, 210, 245)" stroke-opacity="0.5532081" stroke-linecap="round" stroke-linejoin="round"/>
    <path d="M 151.84375 322.2292785644531 C 152.878662109375 322.1152038574219 154.00537109375 321.9847412109375 155.11378479003906 321.899169921875 C 156.04026794433594 321.9534606933594 156.84915161132812 322.2342529296875 157.4642791748047 322.66778564453125 C 157.8184814453125 323.3032531738281 158.0309600830078 324.04681396484375 158.03602600097656 324.8960266113281 C 158.00563049316406 325.7980041503906 157.8476104736328 326.67388916015625 157.7334442138672 327.54522705078125 C 157.7258758544922 328.35980224609375 157.52261352539062 329.0652160644531 157.21092224121094 329.8337707519531 C 156.89422607421875 330.8125 156.2547149658203 331.94891357421875 155.38278198242188 333.4698791503906 C 154.31500244140625 335.6108703613281 152.8984375 338.4783630371094 151.44537353515625 342.0824279785156 C 150.08148193359375 346.53985595703125 148.84593200683594 351.7636413574219 147.95358276367188 357.5542907714844 C 147.5114288330078 363.6678771972656 147.44622802734375 369.8658447265625 147.90725708007812 375.7928771972656 C 148.64126586914062 381.1104736328125 149.71583557128906 385.476318359375 151.10397338867188 388.7320251464844 C 152.68905639648438 390.7003173828125 154.59852600097656 391.3477783203125 156.77403259277344 390.387451171875 C 159.26597595214844 388.5923767089844 162.42306518554688 386.4518737792969 165.4766387939453 383.6690673828125 C 170.07521057128906 382.25640869140625 175.30641174316406 380.5758361816406 180.21995544433594 380.02642822265625 C 186.2582244873047 380.0953674316406 191.808837890625 379.85302734375 196.46908569335938 381.9557189941406 C 201.75123596191406 383.43316650390625 206.797119140625 384.2469787597656 211.64476013183594 384.602294921875 C 216.7263946533203 386.12432861328125 221.9854278564453 386.3605041503906 227.40443420410156 386.77398681640625 C 233.32521057128906 387.5882568359375 239.5240936279297 388.09002685546875 246.01698303222656 388.65240478515625 C 252.3874969482422 389.6441650390625 258.97882080078125 389.93853759765625 264.9674377441406 389.299560546875 C 270.5589294433594 387.5960693359375 277.6770935058594 386.86444091796875 283.3361511230469 385.2427062988281 C 289.26116943359375 382.88421630859375 294.6767578125 381.4600524902344 299.2625732421875 379.59881591796875 C 304.0448913574219 379.2569274902344 308.02142333984375 380.4489440917969 312.5318908691406 382.088134765625 C 313.60992431640625 385.3278503417969 313.7478332519531 389.97271728515625 313.9335632324219 395.26763916015625 C 313.80389404296875 400.9560241699219 313.02276611328125 407.14215087890625 311.7353820800781 413.7486877441406 C 310.2991027832031 420.46295166015625 308.2626953125 427.191162109375 307.56158447265625 434.6656188964844 C 305.2123107910156 440.3482360839844 304.0844421386719 446.9917907714844 302.69012451171875 453.0072937011719 C 300.4592590332031 457.97509765625 298.126220703125 462.3007507324219 295.7930603027344 466.39117431640625 C 292.4536437988281 468.4525451660156 288.9332275390625 470.1741943359375 285.2294921875 471.3248596191406 C 281.0474548339844 471.6263732910156 276.42169189453125 471.15252685546875 271.7320861816406 470.4501647949219 C 266.4606018066406 470.1979675292969 261.2425537109375 469.96624755859375 257.19757080078125 469.0674133300781 C 253.2616424560547 468.402099609375 249.75474548339844 469.23284912109375 246.9595184326172 470.0332336425781 C 245.0529327392578 471.63671875 243.76490783691406 473.206787109375 242.9380340576172 474.4151306152344 C 242.44186401367188 474.9949645996094 242.03013610839844 474.6732177734375 241.44505310058594 473.522705078125 C 240.55995178222656 471.5184020996094 239.3012237548828 468.80401611328125 237.61923217773438 465.828125 C 235.5691680908203 463.0664367675781 233.14053344726562 460.99072265625 230.37327575683594 460.04888916015625 C 227.5355987548828 460.7556457519531 224.92420959472656 463.0947570800781 222.759765625 467.36279296875 C 219.2600555419922 471.73504638671875 216.61566162109375 477.1341247558594 214.37538146972656 482.58868408203125 C 212.49472045898438 487.2187194824219 211.60272216796875 491.046142578125 211.3030242919922 493.62005615234375 C 211.5646514892578 494.5840148925781 212.1824188232422 493.91571044921875 212.9352264404297 491.8228759765625 C 213.63429260253906 488.77301025390625 213.93124389648438 484.9902648925781 213.57481384277344 480.406494140625 C 212.83042907714844 476.0622863769531 209.5177001953125 472.8940734863281 203.43438720703125 471.9309387207031 C 197.68392944335938 470.4178771972656 191.83560180664062 469.3656921386719 185.70864868164062 470.3876953125 C 179.46475219726562 470.1095275878906 173.64303588867188 470.12548828125 169.20594787597656 472.65472412109375 C 166.84364318847656 477.8106384277344 165.2167510986328 482.89678955078125 164.59703063964844 487.9070739746094 C 164.55908203125 492.3230285644531 164.9000701904297 495.6800231933594 165.3726043701172 497.6341247558594 C 165.70303344726562 497.8002624511719 165.82737731933594 496.23858642578125 165.67442321777344 493.18695068359375 C 165.22015380859375 488.7867126464844 164.4473876953125 483.395263671875 164.12338256835938 477.1791076660156 C 163.05165100097656 470.6509094238281 161.2444305419922 464.0630798339844 159.1306915283203 457.9149475097656 C 159.44114685058594 450.9622802734375 158.98255920410156 444.62884521484375 158.000244140625 437.8592529296875 C 156.50180053710938 432.8660583496094 157.67666625976562 426.82879638671875 156.8143768310547 421.3199157714844 C 155.8209686279297 415.97247314453125 154.85464477539062 410.47283935546875 153.5961456298828 404.92510986328125 C 152.05091857910156 399.3541564941406 150.07395935058594 393.66705322265625 147.6853790283203 388.0486145019531 C 144.85897827148438 382.47393798828125 141.4962921142578 376.846923828125 137.73703002929688 371.37841796875 C 133.3747100830078 366.2298278808594 128.6356658935547 361.5044250488281 123.37271118164062 357.6175537109375 C 117.90034484863281 354.5117492675781 112.46498107910156 351.94146728515625 107.86968994140625 349.6156005859375 C 102.25042724609375 350.59246826171875 98.28763580322266 350.6417236328125 95.4139175415039 351.02215576171875 C 93.93860626220703 351.3992919921875 93.9180679321289 351.36712646484375 95.36678314208984 350.9693908691406 C 98.23754119873047 349.76641845703125 102.23291015625 348.1220703125 107.11576080322266 346.04425048828125 C 112.78262329101562 343.62701416015625 118.61331939697266 340.95947265625 124.67124938964844 338.18365478515625 C 130.57289123535156 335.43927001953125 136.35169982910156 332.8324279785156 141.9386444091797 330.3271179199219 C 147.40457153320312 327.8577880859375 152.8923797607422 325.4317932128906 151.84375 322.2292785644531" stroke-width="0.0" fill="rgb(242, 78, 7)" opacity="0.9998919" stroke="rgb(12, 185, 152)" stroke-opacity="0.1597591" stroke-linecap="round" stroke-linejoin="round"/>
    <path d="M 323.63653564453125 221.45616149902344 C 318.2796630859375 223.4275665283203 312.2667541503906 223.89425659179688 306.176025390625 226.6509246826172 C 299.0087890625 228.24485778808594 293.3886413574219 231.810302734375 289.86376953125 239.44032287597656 C 291.3578796386719 248.69085693359375 296.1412353515625 262.0584411621094 304.94232177734375 275.8978271484375 C 312.71875 291.83740234375 318.6683654785156 310.34307861328125 322.30072021484375 329.5631408691406 C 321.8988952636719 350.0562744140625 319.28533935546875 369.5184326171875 314.0116271972656 389.2796936035156 C 307.8163757324219 409.6346740722656 300.06915283203125 429.54486083984375 290.92816162109375 449.6402587890625 C 286.19219970703125 470.64703369140625 282.23480224609375 491.1436462402344 282.7908630371094 511.2581787109375 C 288.1426086425781 527.4383544921875 299.92236328125 537.6735229492188 314.7406311035156 546.3538818359375 C 325.7182312011719 556.2754516601562 330.05023193359375 562.5242309570312 324.13873291015625 570.9765014648438 C 307.44061279296875 574.7112426757812 290.9114990234375 581.9153442382812 270.8191833496094 580.5470581054688 C 251.8877716064453 576.1624145507812 239.6761474609375 566.3342895507812 236.7499237060547 549.426025390625 C 238.55984497070312 527.2431030273438 242.13009643554688 503.7221374511719 242.48133850097656 482.0970153808594 C 239.9318389892578 465.33447265625 233.24710083007812 457.5047302246094 224.34107971191406 461.3927001953125 C 215.06813049316406 474.7728576660156 211.50296020507812 495.4444274902344 211.73077392578125 518.3622436523438 C 215.4161834716797 541.4244995117188 216.31842041015625 561.4083862304688 210.23081970214844 576.8558349609375 C 192.5772247314453 581.9512329101562 174.00193786621094 589.0636596679688 153.5767822265625 590.82373046875 C 137.42279052734375 586.424072265625 127.80025482177734 579.2061157226562 127.7828598022461 569.0247802734375 C 137.07015991210938 557.7178344726562 151.60655212402344 546.1586303710938 163.1931915283203 530.9253540039062 C 166.45472717285156 511.31219482421875 167.49240112304688 490.0360412597656 165.9112548828125 469.38134765625 C 162.04776000976562 447.7628173828125 158.78663635253906 424.3451843261719 153.42922973632812 402.03582763671875 C 146.2350616455078 379.37103271484375 135.6258087158203 358.2664794921875 121.69645690917969 337.6239929199219 C 102.31613159179688 322.242431640625 83.98360443115234 314.9730224609375 66.98274230957031 327.2851257324219 C 47.784908294677734 347.2740478515625 33.14704895019531 366.1236572265625 23.406160354614258 380.1034240722656 C 18.43958282470703 388.5172119140625 16.90296173095703 390.27789306640625 16.13640022277832 388.1405334472656 C 17.341646194458008 385.4277038574219 21.47401237487793 382.7136535644531 27.808774948120117 374.6272277832031 C 36.721900939941406 361.31134033203125 49.892173767089844 344.8869934082031 65.09501647949219 329.82952880859375 C 78.86430358886719 320.444580078125 82.80648040771484 317.2760009765625 79.70313262939453 317.18341064453125 C 84.48897552490234 320.05157470703125 101.55050659179688 324.1968688964844 118.25556182861328 330.82720947265625 C 134.93878173828125 332.2239074707031 146.85525512695312 327.52423095703125 154.64039611816406 316.8413391113281 C 159.65386962890625 299.61248779296875 165.75718688964844 283.7371826171875 167.95213317871094 265.9089050292969 C 174.95286560058594 254.5751190185547 181.0355987548828 245.1110382080078 190.55628967285156 242.26516723632812 C 199.90585327148438 241.91494750976562 205.86837768554688 243.74647521972656 210.32823181152344 245.3779754638672 C 209.9622039794922 246.4429931640625 206.5687713623047 250.79177856445312 200.1562957763672 258.4610290527344 C 196.424072265625 271.03533935546875 189.2796173095703 286.3119812011719 181.47323608398438 302.32122802734375 C 171.27439880371094 317.4190979003906 164.135498046875 332.99114990234375 158.47373962402344 348.8829345703125 C 155.10562133789062 365.1304016113281 154.40066528320312 382.1027526855469 153.8050537109375 400.6700744628906 C 156.78515625 420.7644348144531 162.07884216308594 441.99041748046875 164.53759765625 463.7255859375 C 163.49148559570312 484.947265625 162.56967163085938 503.0703430175781 163.67579650878906 516.7062377929688 C 167.82962036132812 524.982177734375 171.93759155273438 527.8650512695312 173.05531311035156 527.1405029296875 C 170.93096923828125 526.6656494140625 164.72616577148438 528.8262939453125 156.90675354003906 536.6026611328125 C 147.66091918945312 549.0160522460938 136.7039031982422 560.7781982421875 127.9187240600586 570.4019775390625 C 128.1146240234375 578.8612670898438 135.89434814453125 582.8923950195312 150.086181640625 586.344482421875 C 165.75209045410156 586.3828125 182.44287109375 587.110595703125 197.198486328125 585.4146728515625 C 208.2672119140625 579.4454956054688 214.51890563964844 569.4338989257812 215.52627563476562 554.7798461914062 C 212.8633270263672 536.4284057617188 210.83236694335938 516.00537109375 211.42666625976562 495.67181396484375 C 216.25833129882812 477.2164306640625 221.18858337402344 463.1421203613281 228.2143096923828 456.2082824707031 C 236.90541076660156 459.0791931152344 242.76004028320312 469.8169860839844 246.52725219726562 485.3995056152344 C 245.1426239013672 501.9580383300781 240.29908752441406 519.2742309570312 234.93649291992188 535.74072265625 C 232.5064697265625 549.8782348632812 234.734375 562.7575073242188 244.08273315429688 570.3428955078125 C 265.6767578125 572.8727416992188 288.37774658203125 576.9664916992188 310.2709045410156 579.4409790039062 C 324.35162353515625 574.3086547851562 330.16064453125 566.8699340820312 324.7329406738281 556.9736328125 C 316.12445068359375 545.4825439453125 301.9596862792969 537.3255615234375 291.4801940917969 526.35693359375 C 285.23040771484375 514.022216796875 282.01544189453125 501.76116943359375 280.6443786621094 490.6257019042969 C 280.1160888671875 480.8271789550781 282.0675354003906 471.9278564453125 286.5924072265625 461.5435791015625 C 290.4164733886719 449.2508544921875 297.5379333496094 436.1329345703125 303.5359191894531 419.5828552246094 C 310.6126403808594 401.6358337402344 316.5208740234375 382.6363525390625 319.7408752441406 361.9847717285156 C 319.19586181640625 343.3648986816406 312.5646057128906 325.18780517578125 302.3266906738281 308.243408203125 C 289.7957458496094 293.94561767578125 279.2503967285156 278.4393615722656 272.87823486328125 264.8536376953125 C 270.82098388671875 253.97799682617188 271.0432434082031 245.2281036376953 279.5374450683594 238.8806915283203 C 290.943115234375 234.1696319580078 300.7132568359375 228.95547485351562 323.63653564453125 221.45616149902344" stroke-width="0.0" fill="rgb(203, 168, 194)" opacity="0.99966264" stroke="rgb(169, 68, 231)" stroke-opacity="0.9075586" stroke-linecap="round" stroke-linejoin="round"/>
    <path d="M 289.4246520996094 15.331296920776367 C 290.02276611328125 14.935547828674316 290.7695617675781 14.483346939086914 291.5936584472656 14.268216133117676 C 292.39208984375 14.253686904907227 293.3211669921875 14.335537910461426 294.4395446777344 14.576811790466309 C 295.7679748535156 15.500263214111328 297.3010559082031 16.841888427734375 299.1494445800781 18.506881713867188 C 301.0113830566406 20.85520362854004 303.2760925292969 23.667495727539062 305.4288635253906 27.0076847076416 C 307.7910461425781 30.556386947631836 310.2392578125 34.32414245605469 312.5389099121094 38.037750244140625 C 314.7574462890625 42.240020751953125 316.9723815917969 46.17564392089844 319.1086730957031 49.943233489990234 C 321.0500793457031 53.4659423828125 323.2718811035156 56.67560958862305 325.501220703125 59.5927619934082 C 327.47064208984375 62.30638122558594 329.4824523925781 64.68426513671875 331.13250732421875 66.79248046875 C 331.9469909667969 68.80331420898438 331.84051513671875 70.64612579345703 330.84893798828125 72.57865905761719 C 328.8156433105469 74.1407470703125 326.0372009277344 75.80349731445312 322.8248291015625 77.57481384277344 C 319.30859375 79.52054595947266 315.8497314453125 81.0173568725586 312.4374084472656 82.79840850830078 C 309.27783203125 84.77764129638672 306.3736572265625 86.9658432006836 303.6717224121094 89.25091552734375 C 300.7806396484375 91.20915222167969 297.76922607421875 93.0729751586914 294.4576416015625 94.75858306884766 C 290.67633056640625 96.10823059082031 286.5348205566406 96.30921173095703 282.00250244140625 96.26212310791016 C 277.215087890625 95.36151885986328 272.2751770019531 94.09504699707031 267.19989013671875 91.69945526123047 C 262.2046813964844 89.09149932861328 257.1285705566406 86.33431243896484 252.03684997558594 83.85799407958984 C 247.0543670654297 81.79429626464844 242.46151733398438 80.28395080566406 238.20858764648438 79.62464141845703 C 234.34481811523438 80.106201171875 230.9974365234375 81.20579528808594 228.32847595214844 83.23676300048828 C 226.4219970703125 86.00350189208984 225.26773071289062 89.60962677001953 224.18069458007812 93.60248565673828 C 223.80050659179688 97.6871337890625 223.3297882080078 101.54287719726562 222.98287963867188 104.97932434082031 C 221.56439208984375 107.65875244140625 219.6407470703125 109.57452392578125 216.94078063964844 110.9382095336914 C 213.291015625 111.41293334960938 209.00547790527344 111.9180908203125 204.09902954101562 111.66924285888672 C 198.76141357421875 111.59466552734375 193.1658477783203 111.49561309814453 187.50709533691406 111.20721435546875 C 181.8515167236328 110.7697525024414 176.33029174804688 110.36282348632812 170.99598693847656 110.04532623291016 C 165.92564392089844 109.80139923095703 161.06077575683594 110.13683319091797 156.62364196777344 111.0542984008789 C 152.54873657226562 112.576904296875 149.2301025390625 114.97154235839844 146.43905639648438 118.12016296386719 C 144.525390625 122.02940368652344 143.2542266845703 126.18548583984375 142.38775634765625 130.41201782226562 C 141.4221954345703 134.2847900390625 140.593017578125 137.7163848876953 139.4756622314453 140.455810546875 C 137.88536071777344 142.5673370361328 136.16539001464844 144.35494995117188 134.38717651367188 146.17919921875 C 132.60055541992188 148.39828491210938 130.76414489746094 151.1905975341797 128.98858642578125 154.42965698242188 C 128.40147399902344 158.8666534423828 127.83383178710938 163.58554077148438 127.35260009765625 168.51254272460938 C 126.79621124267578 173.30442810058594 126.1108627319336 177.83322143554688 124.8990249633789 181.93319702148438 C 122.49881744384766 185.13072204589844 119.54525756835938 187.82347106933594 115.75144958496094 190.00274658203125 C 110.98104095458984 191.1909637451172 105.41543579101562 191.8283233642578 99.45609283447266 191.8763885498047 C 93.31109619140625 191.74966430664062 87.14794158935547 191.1692657470703 81.22553253173828 189.93600463867188 C 75.89583587646484 187.97604370117188 71.54100036621094 185.78114318847656 68.151123046875 182.86790466308594 C 65.94122314453125 179.5846710205078 64.77983093261719 176.1896514892578 64.64970397949219 172.60079956054688 C 65.70809173583984 168.99551391601562 67.31854248046875 165.44415283203125 69.21240234375 161.8018798828125 C 71.68940734863281 158.11502075195312 74.09838104248047 154.20947265625 76.26210021972656 150.23287963867188 C 78.25567626953125 146.0494842529297 79.70225524902344 141.4818115234375 80.87321472167969 136.63436889648438 C 82.07158660888672 131.81478881835938 83.3306655883789 127.0204849243164 84.64783477783203 122.27035522460938 C 86.58317565917969 117.93250274658203 88.80855560302734 113.9006118774414 91.35529327392578 110.29660034179688 C 94.15963745117188 107.05848693847656 97.02091217041016 104.04759979248047 99.84662628173828 101.22571563720703 C 102.68683624267578 98.72958374023438 105.45379638671875 96.18510437011719 108.07449340820312 93.63895416259766 C 110.52153778076172 90.73335266113281 113.0239028930664 87.76448059082031 115.4981460571289 84.67633819580078 C 118.4516830444336 81.5158462524414 121.58731842041016 78.24502563476562 124.83539581298828 74.99283599853516 C 128.1557159423828 71.60054779052734 131.59425354003906 68.24264526367188 135.20997619628906 64.77330780029297 C 138.98886108398438 61.61257553100586 142.62774658203125 58.2657356262207 146.16358947753906 54.65717315673828 C 149.63760375976562 51.15584945678711 153.0187225341797 47.56635665893555 156.2352752685547 44.04330825805664 C 159.3303985595703 40.593223571777344 162.37893676757812 37.52126693725586 165.37893676757812 35.35957717895508 C 168.93492126464844 33.919883728027344 172.24609375 33.251930236816406 175.82510375976562 33.38450622558594 C 179.64599609375 34.81529998779297 183.66893005371094 36.617855072021484 187.86387634277344 38.758785247802734 C 192.0537567138672 41.14426803588867 196.38461303710938 43.50802230834961 200.92825317382812 45.388607025146484 C 205.54518127441406 46.65250015258789 210.02316284179688 47.1557731628418 214.2654571533203 46.689212799072266 C 218.44993591308594 45.37336349487305 222.36912536621094 43.24927520751953 225.7704620361328 40.30961990356445 C 229.09588623046875 36.94242477416992 232.24673461914062 33.40409469604492 235.31568908691406 29.864532470703125 C 238.54286193847656 26.503170013427734 241.91090393066406 23.698711395263672 245.59066772460938 21.344350814819336 C 249.6562957763672 19.540363311767578 254.20924377441406 18.020923614501953 259.2815856933594 17.016347885131836 C 264.65618896484375 16.386690139770508 270.3253173828125 16.152206420898438 276.3277893066406 16.141464233398438 C 282.4088439941406 16.118303298950195 288.55413818359375 15.967585563659668 289.4246520996094 15.331296920776367" stroke-width="0.0" fill="rgb(61, 39, 36)" opacity="0.9995253" stroke="rgb(236, 166, 247)" stroke-opacity="0.77848464" stroke-linecap="round" stroke-linejoin="round"/>
    <path d="M 437.2783508300781 284.5231628417969 C 437.1435241699219 285.9726257324219 436.831298828125 287.1593322753906 437.3357849121094 288.4527587890625 C 437.3545837402344 289.7386169433594 436.55633544921875 290.801513671875 436.3726806640625 291.8433837890625 C 436.43310546875 292.7146301269531 436.5796203613281 293.4172668457031 437.0023193359375 293.67449951171875 C 437.5135192871094 293.7088317871094 438.1336669921875 293.6457824707031 438.81793212890625 293.8834228515625 C 439.48651123046875 293.813720703125 440.08856201171875 293.5552062988281 440.5976867675781 293.467529296875 C 440.9876708984375 293.6376647949219 441.2696838378906 293.9681701660156 441.60919189453125 294.6025390625 C 441.9930725097656 295.6327209472656 442.27496337890625 296.970458984375 442.6571960449219 298.41546630859375 C 443.21844482421875 300.1045837402344 444.1785583496094 301.7538146972656 445.48089599609375 302.9881896972656 C 447.2322692871094 303.5883483886719 448.93023681640625 305.4886169433594 450.6968688964844 306.9894104003906 C 452.3578186035156 308.0555114746094 454.1201477050781 308.6841125488281 455.7318115234375 309.2249450683594 C 457.030517578125 309.8036193847656 458.0695495605469 310.22601318359375 458.87774658203125 310.7933654785156 C 459.5850524902344 311.35638427734375 460.2385559082031 312.00299072265625 460.6663818359375 312.8306884765625 C 460.4893493652344 314.0428771972656 461.5686950683594 314.9586181640625 461.55023193359375 315.7821350097656 C 461.76025390625 316.7005615234375 462.2550048828125 317.1614685058594 462.3711853027344 317.707275390625 C 461.8612976074219 318.14605712890625 461.2650146484375 318.105224609375 460.1145324707031 318.6438293457031 C 458.5245056152344 318.8054504394531 456.7963562011719 318.13153076171875 455.0672607421875 318.0441589355469 C 453.338134765625 318.6082763671875 451.7831115722656 318.41998291015625 450.47100830078125 319.1407470703125 C 450.05255126953125 320.28521728515625 450.60986328125 321.86492919921875 452.11883544921875 323.2345886230469 C 453.7370910644531 325.4608459472656 455.6445007324219 327.3822937011719 457.1257019042969 328.5252685546875 C 458.1577453613281 330.38702392578125 458.6470642089844 331.1297607421875 458.0391845703125 331.6298828125 C 456.67974853515625 331.34405517578125 454.6791076660156 330.7307434082031 452.10992431640625 330.3792419433594 C 449.4639892578125 329.3244934082031 446.8323669433594 328.3721923828125 444.38848876953125 327.3695983886719 C 442.168701171875 327.06976318359375 440.2804260253906 327.12701416015625 439.1241455078125 328.8319091796875 C 437.7323303222656 328.737548828125 436.9837951660156 329.8250427246094 436.4302978515625 331.0651550292969 C 435.5531005859375 332.3819580078125 435.3597412109375 333.9387512207031 435.3091125488281 335.63958740234375 C 435.614990234375 337.44818115234375 436.2052001953125 339.17364501953125 436.9873046875 340.9453125 C 437.5178527832031 342.900390625 438.269287109375 344.7938232421875 439.01739501953125 346.5639343261719 C 439.6998596191406 348.355224609375 440.1436462402344 349.8650207519531 440.2667541503906 350.880859375 C 439.97540283203125 351.4875183105469 439.11700439453125 351.573486328125 437.6665344238281 351.35601806640625 C 435.5588684082031 350.7731628417969 433.04791259765625 350.1030578613281 430.575927734375 348.6269226074219 C 428.76580810546875 345.7192077636719 426.18505859375 343.6524963378906 423.80206298828125 341.1192321777344 C 420.7423095703125 340.2615966796875 418.2499694824219 338.2034912109375 415.2700500488281 336.2969665527344 C 413.78045654296875 334.92510986328125 411.7966613769531 333.76092529296875 409.505126953125 333.0220947265625 C 407.96630859375 331.43536376953125 406.6278076171875 330.0268859863281 405.69622802734375 328.6385498046875 C 404.4635925292969 327.5278625488281 403.4864501953125 325.8112487792969 403.3514099121094 323.9926452636719 C 403.6910095214844 322.1152038574219 404.443115234375 320.3020324707031 404.97119140625 318.25433349609375 C 404.6423034667969 316.0449523925781 406.00091552734375 314.909912109375 407.3021545410156 314.9800720214844 C 408.7917785644531 314.56939697265625 409.6863098144531 313.5175476074219 410.5351257324219 314.88525390625 C 411.17864990234375 316.5397644042969 412.1913757324219 317.4294738769531 413.5791015625 318.26068115234375 C 414.89935302734375 319.3435363769531 416.6874084472656 319.61492919921875 418.78448486328125 319.04620361328125 C 420.6529235839844 319.3678894042969 422.2786560058594 318.9324035644531 423.44049072265625 318.388671875 C 424.02142333984375 317.89935302734375 423.97418212890625 317.461181640625 423.1462097167969 317.2587890625 C 422.14385986328125 316.36285400390625 420.66180419921875 316.22906494140625 419.3868103027344 315.7646789550781 C 418.4393615722656 314.9608459472656 417.9815368652344 314.24615478515625 417.5772399902344 313.4111022949219 C 418.2496337890625 312.4754333496094 418.66607666015625 311.32598876953125 419.0909729003906 310.2699279785156 C 419.4237365722656 309.3434143066406 419.8404846191406 308.1919860839844 419.7546691894531 307.2850341796875 C 419.5369873046875 306.46929931640625 418.8037109375 305.7602844238281 417.66302490234375 305.7969665527344 C 416.1949462890625 305.6098327636719 414.8803405761719 305.1151123046875 413.42303466796875 304.6111145019531 C 411.8271179199219 304.2333679199219 410.04669189453125 303.97576904296875 407.6065368652344 304.269775390625 C 405.6481628417969 303.7536315917969 403.9226989746094 302.1710510253906 401.7725830078125 300.9165954589844 C 399.8880310058594 299.14910888671875 398.11004638671875 297.8836975097656 396.4839782714844 296.57415771484375 C 395.7579040527344 294.77105712890625 395.1361083984375 293.72021484375 395.9679870605469 292.9574890136719 C 396.9517822265625 292.66705322265625 398.50067138671875 292.0749206542969 400.5769348144531 293.01263427734375 C 402.91998291015625 294.2049255371094 405.4944152832031 295.1442565917969 408.1836853027344 295.544677734375 C 410.2317810058594 297.4164123535156 412.3160400390625 298.3756103515625 413.96368408203125 298.46356201171875 C 415.40997314453125 298.39697265625 416.6175231933594 298.599365234375 417.4501953125 297.65875244140625 C 418.3056335449219 297.62982177734375 419.29986572265625 296.5453796386719 421.1697692871094 296.0244445800781 C 423.2458801269531 295.6171569824219 424.99005126953125 294.17510986328125 426.98760986328125 293.3807067871094 C 429.3411865234375 292.61016845703125 431.57855224609375 291.4609375 433.7658386230469 290.0290832519531 C 436.1225280761719 288.931884765625 438.5432434082031 287.7836608886719 437.2783508300781 284.5231628417969" stroke-width="0.0" fill="rgb(251, 188, 105)" opacity="0.99998313" stroke="rgb(129, 206, 209)" stroke-opacity="0.07474356" stroke-linecap="round" stroke-linejoin="round"/>
    <path d="M 121.39427947998047 207.1262664794922 C 122.26920318603516 207.63388061523438 123.16456604003906 208.1585235595703 124.03295135498047 208.70394897460938 C 124.8394775390625 209.2831268310547 125.57366943359375 209.8879852294922 126.21985626220703 210.5236053466797 C 126.78309631347656 211.20677185058594 127.27742004394531 211.8637237548828 127.72758483886719 212.48597717285156 C 128.2319793701172 213.0985565185547 128.7930450439453 213.64901733398438 129.5027618408203 214.12501525878906 C 130.318603515625 214.55413818359375 131.2066650390625 214.95677185058594 132.2061004638672 215.25306701660156 C 133.2042694091797 215.482421875 134.16810607910156 215.6592559814453 135.09043884277344 215.66958618164062 C 135.93251037597656 215.566162109375 136.634765625 215.2965087890625 137.20703125 214.95111083984375 C 137.70071411132812 214.46978759765625 138.117431640625 213.9311981201172 138.48126220703125 213.3627166748047 C 138.8929901123047 212.8029022216797 139.3579559326172 212.27899169921875 139.8563690185547 211.80384826660156 C 140.4827117919922 211.32505798339844 141.16079711914062 210.842529296875 141.86376953125 210.43223571777344 C 142.57693481445312 210.0181884765625 143.237060546875 209.5877685546875 143.87290954589844 209.2163543701172 C 144.42654418945312 208.93374633789062 144.93185424804688 208.72410583496094 145.41085815429688 208.63101196289062 C 145.87200927734375 208.71051025390625 146.3724365234375 208.97789001464844 146.9570770263672 209.45375061035156 C 147.61851501464844 210.13595581054688 148.4089813232422 211.07249450683594 149.37660217285156 212.15432739257812 C 150.49282836914062 213.37730407714844 151.78880310058594 214.73402404785156 153.26736450195312 216.15496826171875 C 154.82797241210938 217.6168670654297 156.42898559570312 219.1052703857422 158.03855895996094 220.57864379882812 C 159.5492401123047 222.0045166015625 160.8895263671875 223.37107849121094 162.01968383789062 224.65115356445312 C 162.89981079101562 225.84561157226562 163.5852508544922 226.90206909179688 164.1210479736328 227.84266662597656 C 164.54873657226562 228.6908416748047 164.9244842529297 229.4192657470703 165.31884765625 230.08224487304688 C 165.77684020996094 230.69793701171875 166.31956481933594 231.31524658203125 166.9309539794922 231.9293975830078 C 167.60546875 232.5718994140625 168.34912109375 233.23001098632812 169.07760620117188 233.866455078125 C 169.6775360107422 234.47616577148438 170.0171661376953 235.03189086914062 169.99237060546875 235.4913330078125 C 169.51358032226562 235.8198699951172 168.5258331298828 236.05722045898438 167.07510375976562 236.1728057861328 C 165.27059936523438 236.11672973632812 163.2546844482422 235.96351623535156 161.2142791748047 235.7153778076172 C 159.3404083251953 235.38436889648438 157.75991821289062 234.97120666503906 156.55035400390625 234.49960327148438 C 155.7473907470703 233.98110961914062 155.35447692871094 233.40386962890625 155.2640380859375 232.8068389892578 C 155.4002685546875 232.1839599609375 155.68637084960938 231.54566955566406 156.0108184814453 230.8864288330078 C 156.31288146972656 230.20529174804688 156.59378051757812 229.50819396972656 156.85302734375 228.8062744140625 C 157.08367919921875 228.11669921875 157.3302001953125 227.41468811035156 157.5583953857422 226.7853240966797 C 157.7581787109375 226.18360900878906 157.81752014160156 225.6302490234375 157.64071655273438 225.15516662597656 C 157.2018280029297 224.68617248535156 156.48574829101562 224.22080993652344 155.51734924316406 223.7598419189453 C 154.3763885498047 223.2416534423828 153.1678924560547 222.63601684570312 151.9910125732422 221.916748046875 C 150.8837890625 221.1077423095703 149.9453887939453 220.17591857910156 149.12452697753906 219.2278594970703 C 148.4140625 218.3019561767578 147.78866577148438 217.54083251953125 147.154541015625 216.9986114501953 C 146.50531005859375 216.73117065429688 145.8400421142578 216.808349609375 145.18133544921875 217.2537841796875 C 144.59808349609375 218.05076599121094 144.16795349121094 219.16693115234375 143.89804077148438 220.56094360351562 C 143.8166046142578 222.15975952148438 143.98915100097656 223.85635375976562 144.3595733642578 225.54754638671875 C 144.8144073486328 227.17758178710938 145.33680725097656 228.64695739746094 145.84666442871094 229.85720825195312 C 146.2417755126953 230.7457733154297 146.4497528076172 231.29737854003906 146.48715209960938 231.52003479003906 C 146.29681396484375 231.43800354003906 145.8949432373047 231.0650177001953 145.32054138183594 230.531982421875 C 144.59103393554688 229.93093872070312 143.70350646972656 229.384521484375 142.64703369140625 229.02072143554688 C 141.44796752929688 228.88790893554688 140.0564727783203 229.04058837890625 138.44520568847656 229.43247985839844 C 136.66282653808594 229.9805908203125 134.7634735107422 230.55548095703125 132.75221252441406 231.09349060058594 C 130.68661499023438 231.4508514404297 128.65989685058594 231.58505249023438 126.6861801147461 231.46035766601562 C 124.80358123779297 231.0728759765625 123.08142852783203 230.45965576171875 121.52005004882812 229.62872314453125 C 120.14083099365234 228.66058349609375 118.95538330078125 227.62399291992188 117.93910217285156 226.5848846435547 C 117.08873748779297 225.61825561523438 116.39247131347656 224.80712890625 115.77214050292969 224.21905517578125 C 115.14726257324219 223.91397094726562 114.5385513305664 223.88706970214844 113.88593292236328 224.1610870361328 C 113.17906951904297 224.6525421142578 112.44068145751953 225.29429626464844 111.66923522949219 226.02743530273438 C 110.92066192626953 226.67063903808594 110.236572265625 227.11561584472656 109.65960693359375 227.2967529296875 C 109.24779510498047 227.1676788330078 109.0184326171875 226.6892547607422 109.04711151123047 226.03085327148438 C 109.35319519042969 225.21408081054688 109.95462799072266 224.4530487060547 110.8583984375 223.8315887451172 C 112.06565856933594 223.46560668945312 113.56302642822266 223.37396240234375 115.29969787597656 223.5414276123047 C 117.26148986816406 223.85870361328125 119.34716796875 224.2604522705078 121.46759796142578 224.62564086914062 C 123.58170318603516 224.84495544433594 125.5601577758789 224.8710174560547 127.28385162353516 224.63856506347656 C 128.7060546875 224.07546997070312 129.7677764892578 223.24508666992188 130.4280548095703 222.16802978515625 C 130.6367950439453 220.90574645996094 130.35638427734375 219.5189208984375 129.70449829101562 218.07766723632812 C 128.68142700195312 216.648681640625 127.41519165039062 215.28713989257812 126.00472259521484 214.0084686279297 C 124.51670837402344 212.827392578125 123.03399658203125 211.7335968017578 121.55754089355469 210.72145080566406 C 120.07504272460938 209.73385620117188 118.63103485107422 208.7359619140625 121.39427947998047 207.1262664794922" stroke-width="0.0" fill="rgb(0, 2, 1)" opacity="0.9999524" stroke="rgb(94, 68, 2)" stroke-opacity="0.8239802" stroke-linecap="round" stroke-linejoin="round"/>
    <path d="M 305.6435546875 108.64920043945312 C 306.971435546875 108.459716796875 308.2832946777344 108.2529296875 309.52325439453125 108.02281951904297 C 310.67535400390625 107.78298950195312 311.7519836425781 107.63069915771484 312.7600402832031 107.64518737792969 C 313.71844482421875 107.7998275756836 314.67620849609375 108.1061782836914 315.7168884277344 108.39990234375 C 316.8955993652344 108.66279602050781 318.2053527832031 108.85702514648438 319.5992431640625 108.93070983886719 C 320.9513854980469 108.92837524414062 322.17840576171875 108.93598175048828 323.257568359375 109.02118682861328 C 324.1559143066406 109.24849700927734 324.9202575683594 109.62249755859375 325.58868408203125 110.15635681152344 C 326.1555480957031 110.8200912475586 326.7503662109375 111.60311126708984 327.3587341308594 112.46601104736328 C 327.89617919921875 113.36663818359375 328.3899230957031 114.25355529785156 328.7292175292969 115.14530181884766 C 328.8741760253906 115.94821166992188 328.871826171875 116.7664794921875 328.73602294921875 117.62762451171875 C 328.5146179199219 118.43270111083984 328.2583312988281 119.29375457763672 328.0507507324219 120.31848907470703 C 327.9577331542969 121.42513275146484 327.97332763671875 122.65348052978516 327.9507751464844 123.93828582763672 C 327.8542785644531 125.1976318359375 327.6495361328125 126.38297271728516 327.3038635253906 127.36209106445312 C 326.8092956542969 128.05743408203125 326.251220703125 128.4397430419922 325.69921875 128.4639434814453 C 325.2074279785156 128.13946533203125 324.8382568359375 127.53573608398438 324.6573791503906 126.70726013183594 C 324.6299133300781 125.7078857421875 324.7070617675781 124.65870666503906 324.91046142578125 123.55145263671875 C 325.1249084472656 122.46875762939453 325.28173828125 121.4638671875 325.27215576171875 120.56027221679688 C 325.001953125 119.79470825195312 324.5481872558594 119.22415161132812 323.8922424316406 118.8852767944336 C 323.1185607910156 118.71640014648438 322.3083801269531 118.71965026855469 321.5235900878906 118.86868286132812 C 320.8045349121094 119.08363342285156 320.2210388183594 119.29908752441406 319.6740417480469 119.46173095703125 C 319.2418518066406 119.52412414550781 318.8382568359375 119.42150115966797 318.3653869628906 119.1067886352539 C 317.8132629394531 118.59548950195312 317.1742248535156 117.90635681152344 316.3670349121094 117.01793670654297 C 315.48236083984375 116.01529693603516 314.4517822265625 114.94122314453125 313.3451843261719 113.80851745605469 C 312.1876220703125 112.70755767822266 310.9883728027344 111.63282012939453 309.7671203613281 110.6032943725586 C 308.64727783203125 109.66844940185547 307.5793151855469 108.81071472167969 306.6847229003906 108.08143615722656 C 306.0103454589844 107.4224624633789 305.5895080566406 106.90478515625 305.41851806640625 106.4512710571289 C 305.49774169921875 106.10023498535156 305.8199462890625 105.8315658569336 306.2762756347656 105.58468627929688 C 306.8176574707031 105.36400604248047 307.42205810546875 105.1866683959961 305.6435546875 108.64920043945312" stroke-width="0.0" fill="rgb(141, 65, 19)" opacity="0.9999426" stroke="rgb(102, 239, 89)" stroke-opacity="0.44438636" stroke-linecap="round" stroke-linejoin="round"/>
    <path d="M 388.88079833984375 289.0830993652344 C 389.171875 289.731689453125 389.4967956542969 290.4148864746094 389.871826171875 291.0436706542969 C 390.26373291015625 291.6577453613281 390.7697448730469 292.268798828125 391.364501953125 292.8319091796875 C 392.0679931640625 293.36175537109375 392.84722900390625 293.91668701171875 393.6910705566406 294.4871520996094 C 394.560791015625 295.0672302246094 395.414794921875 295.6932067871094 396.22869873046875 296.39691162109375 C 397.02117919921875 297.11114501953125 397.7734375 297.9236755371094 398.47406005859375 298.69195556640625 C 399.1890563964844 299.4482116699219 399.8997497558594 300.2321472167969 400.5755920410156 300.9273986816406 C 401.3172302246094 301.57745361328125 402.0623474121094 302.2032775878906 402.7828063964844 302.79632568359375 C 403.5456237792969 303.3768005371094 404.287353515625 303.9527282714844 404.9648742675781 304.4771728515625 C 405.68756103515625 304.9409484863281 406.4506530761719 305.3352966308594 407.20458984375 305.5797424316406 C 408.0274353027344 305.67864990234375 408.9394836425781 305.62408447265625 409.8780212402344 305.4476013183594 C 410.9151611328125 305.23150634765625 411.98388671875 305.0464782714844 412.9938049316406 305.0308532714844 C 413.93450927734375 305.24609375 414.74591064453125 305.6645202636719 415.37823486328125 306.3752136230469 C 415.7538757324219 307.19732666015625 415.8943176269531 308.11614990234375 415.7452087402344 309.0436096191406 C 415.35626220703125 309.7994079589844 414.76873779296875 310.4212646484375 414.0274658203125 310.8272705078125 C 413.1515197753906 311.0941467285156 412.2350158691406 311.2808837890625 411.2975158691406 311.4299621582031 C 410.3626708984375 311.6060485839844 409.4772033691406 311.8880310058594 408.656494140625 312.3125915527344 C 407.91033935546875 312.92193603515625 407.2327880859375 313.7173767089844 406.6087951660156 314.6706848144531 C 406.0257873535156 315.72760009765625 405.4899597167969 316.83941650390625 404.938232421875 317.93865966796875 C 404.4386901855469 319.0018310546875 403.97991943359375 319.97100830078125 403.51800537109375 320.8114013671875 C 403.095947265625 321.4833984375 402.7004699707031 321.9783020019531 402.2875061035156 322.2649841308594 C 401.87860107421875 322.39227294921875 401.3542175292969 322.3416748046875 400.7867126464844 322.1139221191406 C 400.0750732421875 321.7705383300781 399.2727355957031 321.3552551269531 398.3987731933594 320.8922119140625 C 397.4261169433594 320.4499206542969 396.4000549316406 320.0181579589844 395.3896789550781 319.6795349121094 C 394.3680725097656 319.3658142089844 393.441650390625 319.060791015625 392.5379638671875 318.7319030761719 C 391.7577209472656 318.30023193359375 391.0227355957031 317.7843933105469 390.3274841308594 317.16680908203125 C 389.710693359375 316.4768371582031 389.1198425292969 315.7450866699219 388.4927673339844 314.9944152832031 C 387.8680725097656 314.2645568847656 387.1702880859375 313.5340881347656 386.45068359375 312.8000793457031 C 385.6689758300781 312.0646667480469 384.8595275878906 311.2778625488281 384.0299987792969 310.4402160644531 C 383.21282958984375 309.5828552246094 382.4159851074219 308.67108154296875 381.631103515625 307.6899108886719 C 380.8904724121094 306.7253723144531 380.1317138671875 305.7147521972656 379.432373046875 304.6545715332031 C 378.7257385253906 303.61407470703125 378.0804443359375 302.5699462890625 377.4136047363281 301.4726257324219 C 376.82757568359375 300.3998718261719 376.3097229003906 299.34539794921875 375.8305969238281 298.2425231933594 C 375.4555358886719 297.1822204589844 375.2294006347656 296.1036376953125 375.12664794921875 295.12225341796875 C 375.1683349609375 294.2066650390625 375.414306640625 293.3954162597656 375.86065673828125 292.72100830078125 C 376.4549255371094 292.1728515625 377.2882385253906 291.7588195800781 378.2723388671875 291.455078125 C 379.3539733886719 291.22198486328125 380.54638671875 291.0352783203125 381.8231201171875 290.8963317871094 C 383.1147766113281 290.74627685546875 384.4349060058594 290.62225341796875 388.88079833984375 289.0830993652344" stroke-width="0.0" fill="rgb(253, 188, 101)" opacity="0.9999433" stroke="rgb(142, 115, 76)" stroke-opacity="0.4970597" stroke-linecap="round" stroke-linejoin="round"/>
    <path d="M 215.431396484375 129.03697204589844 C 215.85569763183594 129.7466583251953 216.24136352539062 130.41026306152344 216.61099243164062 131.0828857421875 C 216.8937225341797 131.79490661621094 217.1292266845703 132.47549438476562 217.2685089111328 133.08895874023438 C 217.40309143066406 133.65086364746094 217.59210205078125 134.11666870117188 217.85403442382812 134.403564453125 C 218.29037475585938 134.54100036621094 218.87062072753906 134.52743530273438 219.62432861328125 134.37661743164062 C 220.5330047607422 134.13522338867188 221.50381469726562 133.87820434570312 222.45101928710938 133.68130493164062 C 223.31175231933594 133.6222381591797 224.07101440429688 133.7594757080078 224.63270568847656 134.07260131835938 C 225.08152770996094 134.6231231689453 225.3485870361328 135.30868530273438 225.5728302001953 136.06784057617188 C 225.67691040039062 136.8619384765625 225.75106811523438 137.64828491210938 225.8162078857422 138.3711395263672 C 225.817138671875 139.06686401367188 225.8482666015625 139.70501708984375 225.8823699951172 140.34811401367188 C 225.9342498779297 141.01939392089844 226.0206756591797 141.7034149169922 226.0993194580078 142.5172576904297 C 226.17416381835938 143.3802032470703 226.2047576904297 144.3020477294922 226.11636352539062 145.2874298095703 C 225.9174041748047 146.27398681640625 225.5978546142578 147.2371368408203 225.12835693359375 148.15130615234375 C 224.56802368164062 148.96038818359375 223.91864013671875 149.6103057861328 223.28662109375 150.1079559326172 C 222.6109161376953 150.41754150390625 222.0394744873047 150.49449157714844 221.5592498779297 150.40072631835938 C 221.1288299560547 150.1029052734375 220.83013916015625 149.600341796875 220.55540466308594 148.99551391601562 C 220.32615661621094 148.26272583007812 220.0478057861328 147.40512084960938 219.70997619628906 146.4833984375 C 219.30738830566406 145.5259552001953 218.7689666748047 144.45413208007812 218.15309143066406 143.32302856445312 C 217.4031524658203 142.20155334472656 216.53509521484375 141.0234375 215.57896423339844 139.835693359375 C 214.50656127929688 138.70423889160156 213.39834594726562 137.63021850585938 212.23025512695312 136.6142578125 C 211.05111694335938 135.77676391601562 209.90704345703125 135.0467071533203 208.7906951904297 134.50498962402344 C 207.7230682373047 134.06565856933594 206.7657012939453 133.73651123046875 205.9249725341797 133.4546661376953 C 205.20726013183594 133.1719207763672 204.69869995117188 132.87608337402344 204.37576293945312 132.56053161621094 C 204.24322509765625 132.20765686035156 204.3820037841797 131.7968292236328 204.73765563964844 131.38504028320312 C 205.3238983154297 130.96591186523438 206.12429809570312 130.5592041015625 207.08641052246094 130.15667724609375 C 208.20516967773438 129.80908203125 209.41554260253906 129.4667205810547 210.66664123535156 129.17633056640625 C 211.96083068847656 128.8216094970703 213.29600524902344 128.52540588378906 215.431396484375 129.03697204589844" stroke-width="0.0" fill="rgb(146, 70, 19)" opacity="0.9999559" stroke="rgb(212, 104, 37)" stroke-opacity="0.56166697" stroke-linecap="round" stroke-linejoin="round"/>
    <path d="M 204.0 141.0 C 205.0 141.0 205.0 142.0 205.0 143.0 C 206.0 144.0 207.0 144.0 208.0 144.0 C 209.0 145.0 209.0 146.0 209.0 147.0 C 208.0 148.0 208.0 149.0 208.0 150.0 C 207.0 150.0 206.0 150.0 205.0 149.0 C 204.0 149.0 203.0 149.0 202.0 149.0 C 201.0 148.0 200.0 148.0 200.0 147.0 C 200.0 146.0 200.0 145.0 200.0 144.0 C 200.0 143.0 201.0 143.0 202.0 143.0 C 203.0 142.0 203.0 141.0 204.0 141.0" stroke-width="0.0" fill="rgb(1, 2, 4)" opacity="1.0" stroke="rgb(131, 51, 222)" stroke-opacity="0.95700073" stroke-linecap="round" stroke-linejoin="round"/>
    <path d="M 295.0 118.0 C 295.0 119.0 296.0 120.0 297.0 120.0 C 298.0 120.0 299.0 120.0 299.0 121.0 C 298.0 121.0 297.0 122.0 297.0 123.0 C 297.0 124.0 297.0 125.0 298.0 126.0 C 299.0 126.0 300.0 126.0 301.0 125.0 C 301.0 124.0 301.0 123.0 301.0 122.0 C 301.0 123.0 301.0 124.0 301.0 125.0 C 302.0 126.0 303.0 127.0 303.0 128.0 C 304.0 129.0 305.0 130.0 306.0 130.0 C 307.0 131.0 308.0 131.0 309.0 131.0 C 310.0 130.0 311.0 130.0 312.0 130.0 C 313.0 130.0 314.0 129.0 315.0 129.0 C 316.0 128.0 316.0 127.0 317.0 126.0 C 317.0 125.0 317.0 124.0 317.0 123.0 C 317.0 122.0 318.0 121.0 318.0 120.0 C 319.0 120.0 319.0 121.0 320.0 122.0 C 320.0 123.0 321.0 124.0 322.0 124.0 C 323.0 124.0 323.0 125.0 323.0 126.0 C 324.0 127.0 325.0 128.0 326.0 128.0 C 326.0 129.0 327.0 130.0 328.0 130.0 C 328.0 131.0 327.0 130.0 326.0 130.0 C 325.0 130.0 324.0 131.0 323.0 132.0 C 323.0 133.0 323.0 134.0 324.0 135.0 C 325.0 135.0 326.0 135.0 325.0 135.0 C 324.0 135.0 323.0 136.0 322.0 136.0 C 321.0 136.0 320.0 137.0 320.0 136.0 C 320.0 135.0 319.0 134.0 318.0 134.0 C 317.0 134.0 316.0 135.0 316.0 136.0 C 316.0 137.0 317.0 138.0 316.0 138.0 C 315.0 138.0 314.0 139.0 313.0 139.0 C 312.0 139.0 312.0 138.0 312.0 137.0 C 312.0 136.0 312.0 135.0 313.0 134.0 C 313.0 133.0 313.0 132.0 312.0 131.0 C 311.0 131.0 310.0 131.0 309.0 132.0 C 309.0 133.0 309.0 132.0 308.0 131.0 C 307.0 131.0 306.0 131.0 305.0 132.0 C 305.0 133.0 304.0 133.0 303.0 133.0 C 302.0 133.0 301.0 133.0 300.0 133.0 C 299.0 134.0 299.0 135.0 299.0 136.0 C 300.0 137.0 301.0 137.0 302.0 137.0 C 302.0 138.0 303.0 139.0 304.0 139.0 C 305.0 139.0 306.0 139.0 306.0 140.0 C 307.0 141.0 308.0 141.0 307.0 141.0 C 306.0 141.0 305.0 141.0 305.0 140.0 C 304.0 139.0 303.0 139.0 302.0 139.0 C 301.0 139.0 300.0 139.0 299.0 140.0 C 298.0 139.0 298.0 138.0 297.0 137.0 C 296.0 136.0 296.0 135.0 295.0 134.0 C 295.0 133.0 294.0 132.0 294.0 131.0 C 293.0 130.0 293.0 129.0 293.0 128.0 C 292.0 127.0 292.0 126.0 292.0 125.0 C 292.0 124.0 292.0 123.0 293.0 123.0 C 294.0 123.0 295.0 122.0 295.0 121.0 C 295.0 120.0 294.0 119.0 293.0 119.0 C 292.0 119.0 293.0 119.0 294.0 119.0 C 295.0 118.0 295.0 117.0 295.0 118.0" stroke-width="0.0" fill="rgb(144, 70, 27)" opacity="1.0" stroke="rgb(119, 95, 227)" stroke-opacity="0.38895273" stroke-linecap="round" stroke-linejoin="round"/>
    <path d="M 116.0 359.0 C 116.0 360.0 116.0 361.0 117.0 362.0 C 117.0 363.0 117.0 364.0 118.0 365.0 C 119.0 365.0 119.0 366.0 120.0 367.0 C 120.0 368.0 120.0 369.0 119.0 369.0 C 118.0 369.0 117.0 370.0 117.0 371.0 C 118.0 372.0 118.0 373.0 119.0 374.0 C 119.0 375.0 119.0 376.0 120.0 377.0 C 120.0 378.0 120.0 379.0 121.0 380.0 C 121.0 381.0 122.0 382.0 122.0 383.0 C 122.0 384.0 122.0 385.0 123.0 386.0 C 124.0 386.0 125.0 386.0 125.0 387.0 C 126.0 388.0 127.0 388.0 128.0 389.0 C 129.0 389.0 130.0 390.0 131.0 391.0 C 132.0 392.0 133.0 392.0 134.0 392.0 C 135.0 393.0 136.0 393.0 137.0 394.0 C 138.0 394.0 139.0 394.0 140.0 394.0 C 141.0 394.0 142.0 394.0 143.0 395.0 C 144.0 394.0 145.0 394.0 146.0 394.0 C 145.0 394.0 144.0 395.0 144.0 396.0 C 144.0 397.0 143.0 397.0 142.0 397.0 C 141.0 396.0 140.0 396.0 139.0 396.0 C 138.0 396.0 137.0 396.0 136.0 396.0 C 135.0 395.0 134.0 395.0 133.0 395.0 C 132.0 394.0 131.0 394.0 130.0 394.0 C 129.0 393.0 128.0 392.0 127.0 392.0 C 126.0 391.0 125.0 390.0 124.0 390.0 C 123.0 389.0 122.0 388.0 122.0 387.0 C 122.0 386.0 121.0 385.0 120.0 385.0 C 119.0 384.0 119.0 383.0 118.0 382.0 C 118.0 381.0 117.0 380.0 117.0 379.0 C 117.0 378.0 116.0 377.0 116.0 376.0 C 116.0 375.0 116.0 374.0 115.0 373.0 C 115.0 372.0 115.0 371.0 115.0 370.0 C 115.0 369.0 115.0 368.0 115.0 367.0 C 115.0 366.0 115.0 365.0 115.0 364.0 C 115.0 363.0 115.0 362.0 114.0 361.0 C 114.0 360.0 114.0 359.0 116.0 359.0" stroke-width="0.0" fill="rgb(120, 92, 169)" opacity="1.0" stroke="rgb(179, 71, 115)" stroke-opacity="0.5190182" stroke-linecap="round" stroke-linejoin="round"/>
    <path d="M 120.0 341.0 C 121.0 341.0 122.0 341.0 123.0 341.0 C 123.0 342.0 123.0 343.0 122.0 343.0 C 121.0 344.0 121.0 345.0 120.0 346.0 C 120.0 347.0 120.0 348.0 120.0 349.0 C 120.0 350.0 120.0 351.0 121.0 352.0 C 122.0 352.0 123.0 352.0 124.0 352.0 C 125.0 351.0 125.0 350.0 125.0 349.0 C 126.0 349.0 127.0 349.0 128.0 349.0 C 128.0 350.0 129.0 351.0 130.0 352.0 C 130.0 353.0 131.0 354.0 132.0 355.0 C 132.0 356.0 133.0 357.0 133.0 358.0 C 134.0 359.0 134.0 360.0 135.0 361.0 C 135.0 362.0 136.0 363.0 137.0 364.0 C 137.0 365.0 137.0 366.0 137.0 367.0 C 136.0 367.0 135.0 367.0 134.0 366.0 C 133.0 365.0 132.0 364.0 131.0 363.0 C 130.0 362.0 129.0 361.0 128.0 360.0 C 127.0 359.0 126.0 358.0 126.0 357.0 C 126.0 356.0 126.0 355.0 126.0 354.0 C 126.0 353.0 125.0 352.0 124.0 353.0 C 124.0 354.0 124.0 355.0 124.0 356.0 C 123.0 356.0 122.0 357.0 122.0 358.0 C 123.0 359.0 124.0 360.0 125.0 361.0 C 126.0 362.0 126.0 363.0 127.0 364.0 C 128.0 365.0 129.0 366.0 129.0 367.0 C 129.0 368.0 128.0 369.0 129.0 370.0 C 130.0 370.0 131.0 370.0 132.0 371.0 C 133.0 372.0 134.0 373.0 134.0 374.0 C 135.0 375.0 135.0 376.0 136.0 377.0 C 137.0 378.0 137.0 379.0 137.0 380.0 C 136.0 380.0 135.0 381.0 136.0 382.0 C 137.0 382.0 138.0 382.0 139.0 382.0 C 140.0 383.0 141.0 384.0 141.0 385.0 C 141.0 386.0 141.0 387.0 140.0 388.0 C 141.0 389.0 142.0 389.0 143.0 389.0 C 144.0 390.0 145.0 391.0 145.0 392.0 C 145.0 393.0 144.0 393.0 143.0 393.0 C 142.0 393.0 142.0 392.0 141.0 391.0 C 140.0 391.0 139.0 391.0 138.0 391.0 C 137.0 391.0 136.0 391.0 135.0 390.0 C 134.0 390.0 133.0 390.0 132.0 390.0 C 131.0 390.0 130.0 389.0 129.0 388.0 C 129.0 387.0 129.0 386.0 129.0 385.0 C 130.0 385.0 131.0 385.0 132.0 384.0 C 131.0 383.0 130.0 383.0 129.0 383.0 C 128.0 383.0 127.0 382.0 126.0 382.0 C 125.0 383.0 125.0 384.0 124.0 384.0 C 123.0 384.0 123.0 383.0 123.0 382.0 C 123.0 381.0 123.0 380.0 123.0 379.0 C 123.0 378.0 123.0 377.0 123.0 376.0 C 124.0 375.0 123.0 374.0 122.0 374.0 C 121.0 374.0 121.0 373.0 121.0 372.0 C 121.0 371.0 121.0 370.0 122.0 369.0 C 124.0 370.0 125.0 368.0 124.0 366.0 C 122.0 364.0 122.0 362.0 120.0 361.0 C 119.0 360.0 119.0 358.0 120.0 357.0 C 122.0 356.0 121.0 354.0 120.0 352.0 C 118.0 352.0 116.0 352.0 115.0 351.0 C 115.0 349.0 115.0 347.0 116.0 345.0 C 118.0 343.0 119.0 341.0 120.0 341.0" stroke-width="0.0" fill="rgb(146, 116, 173)" opacity="1.0" stroke="rgb(197, 132, 77)" stroke-opacity="0.16923434" stroke-linecap="round" stroke-linejoin="round"/>
  </g>
</svg>
