<?xml version="1.0" ?>
<svg xmlns="http://www.w3.org/2000/svg" version="1.1" width="754" height="760">
  <defs/>
  <g>
    <path d="M 472.0 19.0 C 491.0 25.0 510.0 39.0 525.0 58.0 C 534.0 77.0 534.0 93.0 520.0 111.0 C 515.0 130.0 518.0 149.0 534.0 163.0 C 553.0 162.0 571.0 150.0 590.0 150.0 C 604.0 133.0 623.0 143.0 642.0 155.0 C 661.0 167.0 680.0 181.0 690.0 197.0 C 689.0 216.0 687.0 235.0 669.0 236.0 C 650.0 230.0 631.0 225.0 612.0 221.0 C 593.0 218.0 590.0 211.0 609.0 200.0 C 605.0 192.0 586.0 206.0 569.0 219.0 C 578.0 219.0 592.0 228.0 574.0 228.0 C 555.0 227.0 536.0 227.0 527.0 231.0 C 541.0 237.0 539.0 256.0 538.0 275.0 C 538.0 294.0 539.0 313.0 541.0 332.0 C 533.0 333.0 514.0 330.0 495.0 338.0 C 479.0 353.0 468.0 372.0 461.0 391.0 C 446.0 384.0 429.0 376.0 445.0 394.0 C 464.0 404.0 483.0 402.0 502.0 402.0 C 508.0 410.0 489.0 411.0 485.0 424.0 C 503.0 443.0 499.0 451.0 480.0 434.0 C 465.0 430.0 468.0 449.0 469.0 468.0 C 464.0 458.0 458.0 439.0 449.0 420.0 C 430.0 406.0 411.0 399.0 426.0 412.0 C 445.0 426.0 450.0 445.0 449.0 464.0 C 448.0 483.0 448.0 502.0 467.0 507.0 C 486.0 504.0 502.0 515.0 521.0 518.0 C 540.0 521.0 559.0 524.0 578.0 527.0 C 597.0 529.0 609.0 542.0 617.0 561.0 C 624.0 580.0 632.0 599.0 639.0 618.0 C 633.0 630.0 614.0 636.0 595.0 640.0 C 576.0 644.0 559.0 649.0 540.0 649.0 C 521.0 651.0 502.0 652.0 483.0 652.0 C 464.0 652.0 445.0 651.0 426.0 650.0 C 407.0 648.0 388.0 646.0 369.0 644.0 C 350.0 641.0 331.0 637.0 312.0 634.0 C 293.0 630.0 274.0 626.0 273.0 609.0 C 276.0 590.0 279.0 571.0 282.0 552.0 C 286.0 533.0 290.0 514.0 295.0 495.0 C 299.0 476.0 305.0 457.0 310.0 438.0 C 316.0 419.0 322.0 400.0 328.0 381.0 C 335.0 362.0 342.0 343.0 350.0 324.0 C 357.0 305.0 365.0 286.0 374.0 267.0 C 391.0 262.0 398.0 257.0 379.0 257.0 C 360.0 256.0 341.0 254.0 322.0 247.0 C 303.0 234.0 289.0 215.0 280.0 196.0 C 276.0 177.0 276.0 162.0 279.0 149.0 C 284.0 135.0 296.0 116.0 314.0 97.0 C 333.0 84.0 352.0 76.0 371.0 71.0 C 390.0 69.0 409.0 72.0 428.0 79.0 C 446.0 95.0 458.0 114.0 464.0 133.0 C 469.0 151.0 469.0 133.0 463.0 114.0 C 454.0 95.0 452.0 76.0 471.0 67.0 C 484.0 49.0 483.0 65.0 497.0 61.0 C 501.0 71.0 520.0 77.0 523.0 73.0 C 504.0 67.0 512.0 49.0 499.0 51.0 C 487.0 52.0 496.0 37.0 477.0 48.0 C 463.0 63.0 444.0 76.0 425.0 68.0 C 406.0 62.0 387.0 61.0 373.0 59.0 C 382.0 41.0 399.0 30.0 418.0 22.0 C 437.0 18.0 456.0 17.0 472.0 19.0" stroke-width="0.0" fill="rgb(98, 109, 120)" opacity="1.0" stroke="rgb(20, 193, 201)" stroke-opacity="0.32587934" stroke-linecap="round" stroke-linejoin="round"/>
    <path d="M 355.0 258.0 C 356.0 258.0 358.0 258.0 373.0 258.0 C 388.0 259.0 377.0 262.0 369.0 274.0 C 362.0 289.0 356.0 304.0 350.0 319.0 C 344.0 334.0 338.0 349.0 332.0 364.0 C 327.0 379.0 322.0 394.0 317.0 409.0 C 312.0 424.0 308.0 439.0 303.0 454.0 C 299.0 469.0 295.0 484.0 292.0 499.0 C 288.0 514.0 285.0 529.0 282.0 544.0 C 279.0 559.0 277.0 574.0 274.0 589.0 C 272.0 604.0 270.0 619.0 277.0 629.0 C 292.0 632.0 307.0 635.0 322.0 638.0 C 337.0 640.0 352.0 643.0 367.0 645.0 C 382.0 647.0 397.0 649.0 412.0 651.0 C 427.0 652.0 442.0 653.0 457.0 654.0 C 472.0 654.0 487.0 654.0 502.0 654.0 C 517.0 653.0 532.0 652.0 547.0 650.0 C 562.0 656.0 577.0 663.0 592.0 669.0 C 583.0 668.0 568.0 662.0 553.0 656.0 C 538.0 654.0 523.0 655.0 508.0 656.0 C 493.0 657.0 478.0 657.0 478.0 667.0 C 491.0 682.0 506.0 696.0 521.0 709.0 C 536.0 720.0 551.0 730.0 566.0 741.0 C 575.0 743.0 566.0 728.0 555.0 713.0 C 547.0 699.0 561.0 713.0 572.0 728.0 C 581.0 743.0 577.0 753.0 562.0 743.0 C 547.0 734.0 532.0 724.0 517.0 713.0 C 502.0 701.0 487.0 687.0 473.0 672.0 C 461.0 657.0 446.0 657.0 431.0 657.0 C 416.0 656.0 401.0 655.0 386.0 654.0 C 371.0 653.0 356.0 651.0 341.0 648.0 C 326.0 645.0 311.0 642.0 296.0 638.0 C 281.0 633.0 267.0 627.0 268.0 612.0 C 271.0 597.0 273.0 582.0 275.0 567.0 C 260.0 566.0 245.0 567.0 230.0 573.0 C 227.0 572.0 224.0 567.0 209.0 567.0 C 194.0 568.0 179.0 569.0 164.0 570.0 C 149.0 572.0 134.0 578.0 119.0 588.0 C 122.0 596.0 137.0 597.0 152.0 597.0 C 167.0 598.0 182.0 600.0 195.0 596.0 C 201.0 593.0 205.0 602.0 192.0 603.0 C 177.0 601.0 162.0 600.0 147.0 600.0 C 132.0 599.0 117.0 599.0 102.0 599.0 C 87.0 599.0 72.0 599.0 57.0 598.0 C 42.0 598.0 27.0 597.0 12.0 595.0 C 4.0 587.0 15.0 591.0 30.0 592.0 C 44.0 587.0 46.0 591.0 59.0 594.0 C 74.0 594.0 89.0 595.0 104.0 595.0 C 117.0 583.0 132.0 574.0 117.0 574.0 C 102.0 575.0 95.0 574.0 110.0 572.0 C 125.0 570.0 140.0 568.0 155.0 567.0 C 170.0 565.0 185.0 564.0 200.0 563.0 C 215.0 562.0 230.0 561.0 245.0 560.0 C 260.0 560.0 275.0 559.0 278.0 544.0 C 281.0 529.0 284.0 514.0 287.0 499.0 C 291.0 484.0 294.0 469.0 298.0 454.0 C 302.0 439.0 306.0 424.0 311.0 409.0 C 315.0 394.0 320.0 379.0 325.0 364.0 C 331.0 349.0 337.0 334.0 343.0 319.0 C 349.0 304.0 356.0 289.0 364.0 274.0 C 367.0 261.0 354.0 258.0 355.0 258.0" stroke-width="0.0" fill="rgb(0, 0, 0)" opacity="1.0" stroke="rgb(186, 144, 171)" stroke-opacity="0.37386796" stroke-linecap="round" stroke-linejoin="round"/>
    <path d="M 578.0 79.0 C 579.0 79.0 580.0 79.0 581.0 79.0 C 582.0 79.0 583.0 79.0 584.0 79.0 C 585.0 79.0 586.0 79.0 587.0 80.0 C 588.0 80.0 589.0 80.0 590.0 81.0 C 591.0 81.0 592.0 82.0 593.0 82.0 C 594.0 83.0 595.0 83.0 596.0 84.0 C 597.0 85.0 598.0 86.0 599.0 87.0 C 600.0 88.0 601.0 89.0 602.0 90.0 C 603.0 91.0 604.0 91.0 604.0 92.0 C 604.0 93.0 603.0 94.0 602.0 95.0 C 602.0 96.0 602.0 98.0 603.0 104.0 C 605.0 110.0 610.0 113.0 608.0 119.0 C 610.0 124.0 616.0 127.0 622.0 131.0 C 628.0 134.0 634.0 138.0 640.0 142.0 C 646.0 140.0 650.0 135.0 649.0 140.0 C 647.0 146.0 652.0 151.0 657.0 151.0 C 662.0 145.0 667.0 139.0 671.0 133.0 C 675.0 128.0 675.0 131.0 672.0 137.0 C 668.0 143.0 664.0 149.0 660.0 155.0 C 664.0 160.0 670.0 161.0 676.0 156.0 C 682.0 151.0 686.0 151.0 680.0 157.0 C 675.0 163.0 674.0 168.0 680.0 173.0 C 686.0 178.0 692.0 181.0 698.0 179.0 C 704.0 184.0 710.0 190.0 716.0 195.0 C 722.0 200.0 728.0 204.0 734.0 208.0 C 740.0 212.0 738.0 213.0 732.0 210.0 C 726.0 206.0 720.0 202.0 714.0 197.0 C 708.0 192.0 702.0 187.0 697.0 185.0 C 698.0 191.0 697.0 197.0 696.0 203.0 C 702.0 206.0 708.0 208.0 714.0 211.0 C 720.0 213.0 726.0 214.0 732.0 215.0 C 738.0 217.0 743.0 215.0 747.0 219.0 C 747.0 225.0 741.0 228.0 735.0 231.0 C 729.0 233.0 723.0 236.0 717.0 238.0 C 711.0 239.0 705.0 240.0 699.0 241.0 C 693.0 241.0 687.0 241.0 681.0 241.0 C 675.0 241.0 669.0 242.0 663.0 241.0 C 657.0 241.0 651.0 240.0 649.0 235.0 C 643.0 233.0 637.0 231.0 631.0 229.0 C 625.0 228.0 619.0 227.0 613.0 226.0 C 607.0 225.0 601.0 223.0 601.0 221.0 C 607.0 222.0 613.0 223.0 619.0 224.0 C 625.0 226.0 631.0 227.0 637.0 228.0 C 643.0 230.0 649.0 231.0 655.0 233.0 C 661.0 235.0 667.0 238.0 673.0 238.0 C 679.0 239.0 685.0 239.0 689.0 235.0 C 689.0 229.0 690.0 223.0 690.0 217.0 C 691.0 211.0 692.0 205.0 692.0 199.0 C 693.0 193.0 692.0 187.0 686.0 183.0 C 680.0 179.0 674.0 174.0 668.0 170.0 C 662.0 166.0 656.0 162.0 650.0 158.0 C 644.0 154.0 638.0 150.0 632.0 146.0 C 626.0 143.0 620.0 139.0 614.0 136.0 C 608.0 133.0 602.0 131.0 603.0 125.0 C 598.0 121.0 594.0 115.0 593.0 109.0 C 593.0 103.0 594.0 97.0 597.0 91.0 C 592.0 85.0 586.0 82.0 580.0 81.0 C 574.0 83.0 568.0 88.0 564.0 94.0 C 560.0 98.0 560.0 92.0 565.0 86.0 C 571.0 82.0 577.0 79.0 578.0 79.0" stroke-width="0.0" fill="rgb(0, 0, 0)" opacity="1.0" stroke="rgb(183, 32, 233)" stroke-opacity="0.9235768" stroke-linecap="round" stroke-linejoin="round"/>
    <path d="M 546.0 654.0 C 547.0 654.0 548.0 655.0 549.0 655.0 C 550.0 656.0 551.0 656.0 552.0 657.0 C 553.0 657.0 554.0 658.0 555.0 658.0 C 556.0 659.0 557.0 659.0 558.0 660.0 C 559.0 660.0 560.0 660.0 561.0 661.0 C 562.0 661.0 563.0 661.0 564.0 662.0 C 565.0 662.0 566.0 662.0 569.0 664.0 C 572.0 665.0 575.0 666.0 578.0 667.0 C 581.0 668.0 584.0 669.0 587.0 670.0 C 590.0 672.0 593.0 673.0 595.0 675.0 C 598.0 677.0 601.0 680.0 604.0 683.0 C 606.0 686.0 607.0 689.0 605.0 690.0 C 603.0 688.0 601.0 686.0 598.0 685.0 C 595.0 684.0 592.0 684.0 589.0 683.0 C 586.0 682.0 583.0 681.0 580.0 681.0 C 577.0 681.0 574.0 681.0 571.0 680.0 C 568.0 680.0 565.0 681.0 562.0 683.0 C 562.0 686.0 565.0 689.0 568.0 691.0 C 571.0 694.0 574.0 696.0 577.0 698.0 C 580.0 700.0 583.0 703.0 586.0 705.0 C 589.0 707.0 592.0 710.0 595.0 712.0 C 598.0 715.0 601.0 716.0 603.0 715.0 C 606.0 718.0 609.0 721.0 611.0 724.0 C 614.0 727.0 616.0 730.0 616.0 732.0 C 615.0 735.0 612.0 733.0 609.0 731.0 C 606.0 729.0 603.0 728.0 600.0 726.0 C 597.0 724.0 594.0 722.0 591.0 720.0 C 588.0 718.0 585.0 717.0 582.0 715.0 C 579.0 713.0 576.0 711.0 573.0 709.0 C 570.0 707.0 567.0 706.0 565.0 704.0 C 562.0 705.0 560.0 704.0 557.0 702.0 C 556.0 699.0 553.0 699.0 550.0 697.0 C 547.0 695.0 544.0 693.0 542.0 690.0 C 539.0 688.0 536.0 688.0 536.0 691.0 C 539.0 694.0 541.0 697.0 544.0 699.0 C 545.0 701.0 548.0 704.0 550.0 707.0 C 552.0 710.0 554.0 713.0 557.0 716.0 C 559.0 719.0 561.0 722.0 563.0 725.0 C 565.0 728.0 567.0 731.0 568.0 734.0 C 570.0 737.0 572.0 740.0 573.0 743.0 C 571.0 744.0 568.0 742.0 565.0 739.0 C 562.0 737.0 559.0 735.0 556.0 733.0 C 553.0 731.0 550.0 729.0 547.0 726.0 C 544.0 724.0 541.0 722.0 538.0 720.0 C 535.0 718.0 532.0 716.0 529.0 714.0 C 526.0 711.0 523.0 709.0 520.0 707.0 C 517.0 705.0 514.0 702.0 511.0 700.0 C 508.0 697.0 505.0 695.0 502.0 692.0 C 499.0 689.0 496.0 686.0 493.0 683.0 C 490.0 680.0 487.0 677.0 485.0 674.0 C 482.0 671.0 480.0 668.0 478.0 665.0 C 476.0 662.0 474.0 659.0 476.0 658.0 C 479.0 658.0 482.0 658.0 485.0 658.0 C 488.0 658.0 491.0 658.0 494.0 658.0 C 497.0 658.0 500.0 658.0 503.0 658.0 C 506.0 657.0 509.0 657.0 512.0 657.0 C 515.0 657.0 518.0 657.0 521.0 657.0 C 524.0 656.0 527.0 656.0 530.0 656.0 C 533.0 656.0 536.0 655.0 539.0 655.0 C 542.0 655.0 545.0 654.0 546.0 654.0" stroke-width="0.0" fill="rgb(32, 47, 63)" opacity="1.0" stroke="rgb(77, 193, 220)" stroke-opacity="0.6735695" stroke-linecap="round" stroke-linejoin="round"/>
    <path d="M 488.0 352.0 C 489.0 353.0 490.0 354.0 491.0 355.0 C 492.0 355.0 493.0 356.0 494.0 356.0 C 495.0 357.0 496.0 358.0 497.0 359.0 C 498.0 359.0 499.0 360.0 500.0 360.0 C 501.0 361.0 502.0 362.0 503.0 362.0 C 504.0 363.0 505.0 364.0 506.0 364.0 C 511.0 367.0 516.0 370.0 521.0 373.0 C 526.0 376.0 531.0 379.0 536.0 382.0 C 541.0 385.0 546.0 387.0 551.0 390.0 C 556.0 393.0 561.0 395.0 566.0 397.0 C 571.0 399.0 576.0 401.0 581.0 403.0 C 586.0 406.0 591.0 407.0 596.0 409.0 C 601.0 411.0 606.0 412.0 611.0 413.0 C 616.0 415.0 621.0 416.0 624.0 418.0 C 623.0 423.0 622.0 428.0 620.0 433.0 C 618.0 438.0 615.0 443.0 612.0 448.0 C 610.0 453.0 608.0 458.0 604.0 461.0 C 599.0 463.0 594.0 468.0 594.0 473.0 C 595.0 477.0 594.0 481.0 598.0 486.0 C 602.0 491.0 603.0 496.0 604.0 501.0 C 605.0 506.0 605.0 511.0 605.0 516.0 C 604.0 521.0 599.0 522.0 594.0 522.0 C 589.0 521.0 584.0 521.0 579.0 521.0 C 574.0 521.0 569.0 520.0 564.0 520.0 C 559.0 519.0 554.0 518.0 549.0 517.0 C 544.0 516.0 539.0 516.0 534.0 515.0 C 529.0 513.0 524.0 513.0 519.0 512.0 C 514.0 511.0 509.0 510.0 504.0 508.0 C 499.0 507.0 494.0 506.0 490.0 501.0 C 485.0 497.0 480.0 498.0 475.0 500.0 C 470.0 500.0 465.0 499.0 460.0 498.0 C 455.0 496.0 455.0 491.0 455.0 486.0 C 455.0 481.0 455.0 476.0 455.0 471.0 C 455.0 466.0 455.0 461.0 455.0 456.0 C 455.0 451.0 458.0 456.0 460.0 461.0 C 462.0 466.0 465.0 470.0 468.0 473.0 C 467.0 477.0 469.0 482.0 474.0 480.0 C 475.0 475.0 479.0 478.0 484.0 480.0 C 489.0 480.0 494.0 479.0 499.0 478.0 C 502.0 473.0 502.0 468.0 500.0 463.0 C 497.0 458.0 494.0 454.0 499.0 457.0 C 504.0 458.0 509.0 459.0 511.0 454.0 C 511.0 449.0 509.0 444.0 506.0 439.0 C 502.0 434.0 498.0 429.0 493.0 424.0 C 488.0 419.0 486.0 414.0 489.0 415.0 C 494.0 415.0 499.0 415.0 504.0 415.0 C 509.0 415.0 514.0 413.0 519.0 411.0 C 519.0 406.0 514.0 401.0 509.0 399.0 C 504.0 398.0 505.0 397.0 510.0 395.0 C 514.0 390.0 514.0 385.0 512.0 380.0 C 507.0 375.0 502.0 370.0 497.0 366.0 C 492.0 364.0 487.0 364.0 483.0 368.0 C 482.0 373.0 482.0 378.0 483.0 383.0 C 485.0 388.0 489.0 393.0 494.0 397.0 C 499.0 397.0 494.0 397.0 489.0 398.0 C 484.0 398.0 479.0 398.0 474.0 399.0 C 469.0 399.0 466.0 397.0 467.0 392.0 C 469.0 387.0 471.0 382.0 473.0 377.0 C 476.0 372.0 479.0 367.0 482.0 362.0 C 484.0 357.0 487.0 352.0 488.0 352.0" stroke-width="0.0" fill="rgb(255, 222, 0)" opacity="1.0" stroke="rgb(132, 149, 20)" stroke-opacity="0.6225788" stroke-linecap="round" stroke-linejoin="round"/>
    <path d="M 599.0 482.0 C 600.0 482.0 601.0 483.0 602.0 483.0 C 603.0 484.0 604.0 484.0 605.0 485.0 C 606.0 485.0 607.0 486.0 608.0 486.0 C 609.0 487.0 609.0 488.0 609.0 489.0 C 609.0 490.0 609.0 491.0 609.0 492.0 C 609.0 493.0 609.0 494.0 609.0 495.0 C 609.0 496.0 609.0 497.0 609.0 498.0 C 609.0 502.0 610.0 507.0 610.0 512.0 C 610.0 517.0 610.0 522.0 610.0 527.0 C 610.0 532.0 612.0 537.0 614.0 542.0 C 616.0 547.0 618.0 552.0 620.0 557.0 C 622.0 562.0 624.0 567.0 626.0 572.0 C 628.0 577.0 630.0 582.0 633.0 587.0 C 638.0 587.0 643.0 585.0 648.0 584.0 C 653.0 583.0 658.0 581.0 663.0 580.0 C 668.0 578.0 673.0 577.0 678.0 576.0 C 683.0 575.0 688.0 574.0 693.0 573.0 C 698.0 573.0 703.0 573.0 705.0 576.0 C 702.0 579.0 698.0 577.0 693.0 578.0 C 688.0 578.0 683.0 579.0 678.0 580.0 C 673.0 581.0 668.0 583.0 663.0 584.0 C 658.0 585.0 653.0 586.0 648.0 588.0 C 643.0 589.0 638.0 590.0 636.0 594.0 C 638.0 599.0 640.0 604.0 642.0 609.0 C 644.0 614.0 645.0 619.0 647.0 624.0 C 649.0 629.0 644.0 631.0 639.0 633.0 C 634.0 635.0 629.0 637.0 630.0 640.0 C 635.0 641.0 640.0 642.0 645.0 642.0 C 650.0 641.0 655.0 641.0 660.0 640.0 C 665.0 640.0 670.0 639.0 675.0 639.0 C 680.0 638.0 685.0 637.0 690.0 636.0 C 695.0 635.0 698.0 637.0 693.0 638.0 C 688.0 639.0 683.0 640.0 678.0 640.0 C 673.0 641.0 668.0 642.0 663.0 643.0 C 658.0 643.0 653.0 644.0 648.0 644.0 C 643.0 644.0 638.0 644.0 633.0 644.0 C 628.0 644.0 623.0 644.0 618.0 643.0 C 613.0 642.0 608.0 643.0 603.0 644.0 C 598.0 645.0 593.0 646.0 588.0 646.0 C 583.0 647.0 578.0 647.0 579.0 645.0 C 584.0 644.0 589.0 643.0 594.0 642.0 C 599.0 641.0 604.0 640.0 609.0 639.0 C 614.0 637.0 619.0 636.0 624.0 635.0 C 629.0 633.0 634.0 632.0 639.0 630.0 C 644.0 628.0 643.0 623.0 641.0 618.0 C 639.0 613.0 637.0 608.0 635.0 603.0 C 633.0 598.0 631.0 593.0 629.0 588.0 C 627.0 583.0 625.0 578.0 623.0 573.0 C 621.0 568.0 619.0 563.0 617.0 558.0 C 615.0 553.0 613.0 548.0 611.0 543.0 C 609.0 538.0 607.0 533.0 603.0 528.0 C 598.0 528.0 593.0 527.0 588.0 526.0 C 583.0 526.0 578.0 525.0 573.0 525.0 C 568.0 524.0 563.0 523.0 560.0 521.0 C 565.0 521.0 570.0 522.0 575.0 522.0 C 580.0 523.0 585.0 523.0 590.0 524.0 C 595.0 524.0 600.0 524.0 605.0 522.0 C 607.0 517.0 607.0 512.0 607.0 507.0 C 606.0 502.0 605.0 497.0 604.0 492.0 C 601.0 487.0 598.0 482.0 599.0 482.0" stroke-width="0.0" fill="rgb(0, 0, 0)" opacity="1.0" stroke="rgb(174, 174, 249)" stroke-opacity="0.93091834" stroke-linecap="round" stroke-linejoin="round"/>
    <path d="M 371.0 91.0 C 372.0 91.0 373.0 91.0 374.0 91.0 C 375.0 91.0 376.0 91.0 377.0 91.0 C 378.0 91.0 379.0 91.0 380.0 91.0 C 381.0 91.0 382.0 91.0 383.0 91.0 C 384.0 91.0 385.0 91.0 386.0 91.0 C 387.0 91.0 388.0 91.0 389.0 91.0 C 390.0 91.0 391.0 91.0 392.0 92.0 C 393.0 92.0 394.0 92.0 395.0 92.0 C 396.0 92.0 397.0 93.0 398.0 93.0 C 399.0 93.0 400.0 94.0 401.0 94.0 C 402.0 95.0 403.0 95.0 404.0 96.0 C 405.0 96.0 406.0 96.0 407.0 97.0 C 408.0 98.0 409.0 98.0 410.0 99.0 C 411.0 99.0 412.0 100.0 413.0 101.0 C 414.0 101.0 415.0 102.0 416.0 103.0 C 417.0 104.0 418.0 104.0 419.0 105.0 C 420.0 106.0 421.0 107.0 422.0 108.0 C 423.0 109.0 424.0 110.0 425.0 111.0 C 426.0 112.0 426.0 113.0 427.0 114.0 C 428.0 115.0 429.0 116.0 429.0 117.0 C 430.0 118.0 431.0 119.0 431.0 120.0 C 432.0 121.0 433.0 122.0 433.0 123.0 C 434.0 124.0 434.0 125.0 434.0 126.0 C 433.0 126.0 432.0 126.0 431.0 125.0 C 431.0 124.0 430.0 123.0 429.0 122.0 C 428.0 121.0 427.0 120.0 426.0 119.0 C 425.0 118.0 424.0 117.0 423.0 116.0 C 421.0 114.0 418.0 112.0 415.0 109.0 C 412.0 107.0 409.0 105.0 406.0 104.0 C 403.0 102.0 400.0 101.0 397.0 100.0 C 394.0 99.0 391.0 98.0 388.0 98.0 C 385.0 98.0 382.0 97.0 379.0 97.0 C 376.0 97.0 373.0 97.0 370.0 98.0 C 367.0 98.0 364.0 98.0 361.0 99.0 C 358.0 100.0 355.0 101.0 352.0 102.0 C 349.0 103.0 346.0 104.0 343.0 105.0 C 340.0 107.0 337.0 109.0 334.0 111.0 C 331.0 113.0 328.0 115.0 325.0 117.0 C 322.0 120.0 319.0 123.0 316.0 126.0 C 314.0 129.0 311.0 132.0 309.0 135.0 C 307.0 138.0 305.0 141.0 303.0 144.0 C 302.0 147.0 300.0 150.0 299.0 153.0 C 298.0 156.0 297.0 159.0 296.0 162.0 C 295.0 165.0 294.0 168.0 294.0 171.0 C 293.0 174.0 293.0 177.0 293.0 180.0 C 293.0 183.0 293.0 186.0 291.0 187.0 C 291.0 184.0 291.0 181.0 291.0 178.0 C 291.0 175.0 291.0 172.0 291.0 169.0 C 292.0 166.0 292.0 163.0 293.0 160.0 C 293.0 157.0 294.0 154.0 295.0 151.0 C 297.0 148.0 298.0 145.0 299.0 142.0 C 301.0 139.0 302.0 136.0 304.0 133.0 C 306.0 130.0 308.0 127.0 311.0 124.0 C 313.0 121.0 316.0 118.0 319.0 115.0 C 322.0 113.0 325.0 110.0 328.0 108.0 C 331.0 106.0 334.0 104.0 337.0 102.0 C 340.0 101.0 343.0 99.0 346.0 98.0 C 349.0 97.0 352.0 96.0 355.0 95.0 C 358.0 94.0 361.0 93.0 364.0 92.0 C 367.0 92.0 370.0 91.0 371.0 91.0" stroke-width="0.0" fill="rgb(0, 0, 0)" opacity="1.0" stroke="rgb(240, 238, 132)" stroke-opacity="0.38764763" stroke-linecap="round" stroke-linejoin="round"/>
    <path d="M 247.0 567.0 C 248.0 567.0 249.0 567.0 250.0 567.0 C 251.0 567.0 252.0 567.0 253.0 567.0 C 254.0 567.0 255.0 567.0 256.0 567.0 C 257.0 567.0 258.0 567.0 259.0 567.0 C 260.0 567.0 261.0 567.0 262.0 567.0 C 263.0 567.0 264.0 567.0 265.0 567.0 C 266.0 567.0 267.0 567.0 268.0 567.0 C 269.0 567.0 270.0 567.0 271.0 567.0 C 272.0 567.0 273.0 567.0 274.0 567.0 C 274.0 568.0 274.0 569.0 274.0 570.0 C 274.0 571.0 273.0 572.0 273.0 573.0 C 273.0 574.0 273.0 575.0 273.0 576.0 C 273.0 577.0 273.0 578.0 272.0 579.0 C 272.0 580.0 272.0 581.0 272.0 582.0 C 272.0 583.0 272.0 584.0 272.0 585.0 C 271.0 586.0 271.0 587.0 271.0 588.0 C 271.0 589.0 271.0 590.0 271.0 591.0 C 270.0 592.0 270.0 593.0 270.0 594.0 C 270.0 595.0 270.0 596.0 270.0 597.0 C 269.0 600.0 269.0 603.0 268.0 606.0 C 267.0 609.0 267.0 612.0 266.0 615.0 C 265.0 617.0 262.0 617.0 259.0 616.0 C 256.0 615.0 253.0 614.0 250.0 613.0 C 247.0 612.0 244.0 612.0 241.0 611.0 C 239.0 610.0 238.0 607.0 235.0 608.0 C 235.0 609.0 234.0 606.0 231.0 606.0 C 230.0 609.0 230.0 606.0 227.0 605.0 C 225.0 607.0 225.0 606.0 223.0 604.0 C 220.0 604.0 217.0 603.0 214.0 603.0 C 211.0 602.0 208.0 602.0 206.0 604.0 C 206.0 603.0 204.0 601.0 201.0 601.0 C 199.0 600.0 200.0 597.0 201.0 594.0 C 203.0 591.0 204.0 588.0 201.0 587.0 C 198.0 590.0 196.0 593.0 194.0 596.0 C 193.0 599.0 190.0 599.0 187.0 599.0 C 184.0 599.0 181.0 599.0 178.0 598.0 C 175.0 598.0 172.0 598.0 169.0 598.0 C 166.0 597.0 163.0 597.0 160.0 597.0 C 157.0 597.0 154.0 596.0 151.0 596.0 C 148.0 596.0 145.0 596.0 142.0 596.0 C 139.0 596.0 136.0 596.0 133.0 595.0 C 130.0 595.0 127.0 595.0 124.0 595.0 C 121.0 595.0 118.0 595.0 116.0 594.0 C 117.0 591.0 120.0 588.0 123.0 585.0 C 126.0 583.0 129.0 581.0 132.0 579.0 C 135.0 578.0 138.0 577.0 141.0 576.0 C 144.0 575.0 147.0 574.0 150.0 573.0 C 153.0 572.0 156.0 572.0 159.0 571.0 C 162.0 571.0 165.0 571.0 168.0 571.0 C 171.0 570.0 174.0 570.0 177.0 570.0 C 180.0 570.0 183.0 570.0 186.0 569.0 C 189.0 569.0 192.0 569.0 195.0 569.0 C 198.0 569.0 201.0 569.0 204.0 569.0 C 207.0 568.0 210.0 568.0 213.0 568.0 C 216.0 568.0 219.0 568.0 222.0 568.0 C 225.0 568.0 228.0 568.0 227.0 571.0 C 224.0 572.0 221.0 574.0 222.0 577.0 C 225.0 576.0 228.0 575.0 231.0 573.0 C 234.0 572.0 237.0 571.0 240.0 570.0 C 243.0 568.0 246.0 567.0 247.0 567.0" stroke-width="0.0" fill="rgb(32, 47, 63)" opacity="1.0" stroke="rgb(97, 243, 233)" stroke-opacity="0.4351337" stroke-linecap="round" stroke-linejoin="round"/>
    <path d="M 518.0 330.0 C 519.0 330.0 520.0 331.0 521.0 332.0 C 522.0 332.0 522.0 333.0 522.0 334.0 C 522.0 335.0 521.0 335.0 520.0 335.0 C 519.0 336.0 518.0 336.0 517.0 336.0 C 516.0 336.0 515.0 337.0 514.0 337.0 C 513.0 337.0 512.0 338.0 509.0 339.0 C 505.0 340.0 501.0 342.0 497.0 344.0 C 493.0 347.0 492.0 351.0 496.0 353.0 C 499.0 356.0 503.0 357.0 506.0 360.0 C 509.0 362.0 513.0 364.0 516.0 366.0 C 520.0 368.0 524.0 370.0 528.0 372.0 C 532.0 375.0 536.0 377.0 540.0 379.0 C 544.0 381.0 548.0 383.0 552.0 385.0 C 556.0 387.0 560.0 389.0 564.0 391.0 C 568.0 393.0 572.0 395.0 576.0 396.0 C 580.0 398.0 584.0 400.0 588.0 401.0 C 592.0 403.0 596.0 404.0 600.0 406.0 C 604.0 407.0 608.0 408.0 612.0 409.0 C 616.0 411.0 620.0 411.0 619.0 408.0 C 617.0 405.0 621.0 406.0 625.0 408.0 C 629.0 410.0 633.0 411.0 633.0 415.0 C 631.0 419.0 629.0 423.0 628.0 427.0 C 627.0 431.0 625.0 435.0 623.0 439.0 C 622.0 443.0 620.0 447.0 619.0 451.0 C 617.0 455.0 616.0 459.0 614.0 463.0 C 610.0 464.0 606.0 466.0 602.0 467.0 C 598.0 469.0 598.0 466.0 602.0 464.0 C 606.0 462.0 609.0 460.0 611.0 456.0 C 612.0 452.0 614.0 448.0 617.0 444.0 C 619.0 440.0 621.0 436.0 623.0 432.0 C 624.0 428.0 625.0 424.0 626.0 420.0 C 627.0 416.0 623.0 414.0 619.0 413.0 C 615.0 412.0 611.0 411.0 607.0 411.0 C 603.0 409.0 599.0 408.0 595.0 407.0 C 591.0 405.0 587.0 404.0 583.0 402.0 C 579.0 401.0 575.0 399.0 571.0 397.0 C 567.0 396.0 563.0 394.0 559.0 392.0 C 555.0 390.0 551.0 388.0 547.0 386.0 C 543.0 384.0 539.0 382.0 535.0 380.0 C 531.0 377.0 527.0 375.0 523.0 372.0 C 519.0 370.0 515.0 368.0 512.0 366.0 C 509.0 363.0 505.0 362.0 502.0 360.0 C 499.0 357.0 495.0 355.0 492.0 352.0 C 488.0 350.0 484.0 353.0 482.0 357.0 C 480.0 361.0 478.0 365.0 476.0 369.0 C 473.0 373.0 471.0 377.0 469.0 381.0 C 468.0 385.0 466.0 389.0 465.0 393.0 C 464.0 397.0 464.0 401.0 461.0 402.0 C 457.0 400.0 453.0 398.0 449.0 395.0 C 445.0 391.0 441.0 387.0 437.0 383.0 C 434.0 379.0 437.0 379.0 441.0 382.0 C 445.0 385.0 449.0 388.0 453.0 392.0 C 457.0 395.0 461.0 398.0 462.0 394.0 C 463.0 390.0 465.0 386.0 466.0 382.0 C 467.0 378.0 469.0 374.0 471.0 370.0 C 473.0 366.0 475.0 362.0 478.0 358.0 C 480.0 354.0 483.0 350.0 485.0 346.0 C 489.0 344.0 493.0 341.0 497.0 339.0 C 501.0 337.0 505.0 335.0 509.0 333.0 C 513.0 332.0 517.0 330.0 518.0 330.0" stroke-width="0.0" fill="rgb(0, 0, 0)" opacity="1.0" stroke="rgb(193, 91, 125)" stroke-opacity="0.12785658" stroke-linecap="round" stroke-linejoin="round"/>
    <path d="M 368.0 63.0 C 369.0 63.0 369.0 64.0 370.0 65.0 C 371.0 65.0 372.0 65.0 373.0 64.0 C 374.0 64.0 375.0 64.0 376.0 64.0 C 377.0 64.0 378.0 64.0 379.0 63.0 C 380.0 63.0 381.0 63.0 382.0 63.0 C 383.0 63.0 384.0 63.0 385.0 63.0 C 386.0 63.0 387.0 63.0 388.0 63.0 C 389.0 63.0 390.0 63.0 391.0 63.0 C 392.0 63.0 393.0 63.0 394.0 63.0 C 395.0 63.0 396.0 63.0 397.0 63.0 C 398.0 63.0 399.0 63.0 400.0 63.0 C 401.0 63.0 402.0 63.0 403.0 63.0 C 404.0 64.0 405.0 64.0 406.0 64.0 C 407.0 64.0 408.0 64.0 409.0 64.0 C 410.0 65.0 411.0 65.0 412.0 65.0 C 413.0 65.0 414.0 66.0 415.0 66.0 C 416.0 66.0 417.0 67.0 418.0 67.0 C 419.0 67.0 420.0 68.0 421.0 68.0 C 422.0 69.0 423.0 69.0 424.0 69.0 C 425.0 70.0 426.0 70.0 427.0 71.0 C 428.0 72.0 429.0 72.0 430.0 73.0 C 431.0 73.0 432.0 74.0 433.0 75.0 C 434.0 75.0 435.0 76.0 436.0 77.0 C 437.0 78.0 438.0 79.0 439.0 80.0 C 440.0 80.0 441.0 81.0 442.0 80.0 C 443.0 79.0 444.0 78.0 445.0 77.0 C 446.0 76.0 447.0 75.0 448.0 75.0 C 449.0 75.0 449.0 76.0 448.0 78.0 C 445.0 81.0 444.0 84.0 446.0 87.0 C 449.0 90.0 451.0 93.0 453.0 96.0 C 455.0 99.0 456.0 102.0 458.0 105.0 C 459.0 108.0 457.0 109.0 456.0 106.0 C 454.0 103.0 452.0 100.0 450.0 97.0 C 448.0 94.0 445.0 91.0 442.0 88.0 C 439.0 85.0 436.0 83.0 433.0 80.0 C 430.0 78.0 427.0 77.0 424.0 75.0 C 421.0 74.0 418.0 72.0 415.0 71.0 C 412.0 70.0 409.0 70.0 406.0 69.0 C 403.0 68.0 400.0 68.0 397.0 68.0 C 394.0 67.0 391.0 67.0 388.0 67.0 C 385.0 67.0 382.0 67.0 379.0 68.0 C 376.0 68.0 373.0 68.0 370.0 69.0 C 367.0 70.0 364.0 70.0 361.0 71.0 C 358.0 72.0 355.0 73.0 352.0 74.0 C 349.0 75.0 346.0 76.0 343.0 77.0 C 340.0 79.0 337.0 80.0 334.0 82.0 C 331.0 84.0 328.0 85.0 325.0 87.0 C 322.0 89.0 319.0 91.0 316.0 94.0 C 313.0 96.0 310.0 99.0 307.0 101.0 C 304.0 104.0 302.0 107.0 299.0 110.0 C 296.0 113.0 294.0 115.0 293.0 113.0 C 295.0 110.0 298.0 107.0 300.0 104.0 C 303.0 101.0 305.0 98.0 308.0 95.0 C 311.0 93.0 314.0 90.0 317.0 88.0 C 320.0 86.0 323.0 84.0 326.0 82.0 C 329.0 80.0 332.0 78.0 335.0 77.0 C 338.0 75.0 341.0 74.0 344.0 72.0 C 347.0 71.0 350.0 70.0 353.0 69.0 C 356.0 68.0 359.0 67.0 362.0 67.0 C 365.0 66.0 367.0 63.0 368.0 63.0" stroke-width="0.0" fill="rgb(0, 0, 0)" opacity="1.0" stroke="rgb(161, 45, 1)" stroke-opacity="0.7561678" stroke-linecap="round" stroke-linejoin="round"/>
    <path d="M 450.0 9.0 C 451.0 9.0 452.0 9.0 453.0 9.0 C 454.0 9.0 455.0 9.0 456.0 9.0 C 457.0 9.0 458.0 9.0 459.0 9.0 C 460.0 10.0 461.0 10.0 462.0 10.0 C 465.0 10.0 468.0 11.0 471.0 11.0 C 474.0 12.0 477.0 13.0 480.0 13.0 C 483.0 15.0 486.0 16.0 489.0 17.0 C 492.0 19.0 495.0 21.0 498.0 22.0 C 501.0 24.0 504.0 27.0 507.0 29.0 C 510.0 32.0 513.0 35.0 516.0 38.0 C 519.0 41.0 521.0 44.0 523.0 47.0 C 525.0 50.0 527.0 53.0 529.0 56.0 C 531.0 59.0 533.0 62.0 534.0 65.0 C 536.0 68.0 537.0 71.0 538.0 74.0 C 539.0 77.0 541.0 80.0 542.0 83.0 C 543.0 86.0 544.0 89.0 544.0 92.0 C 542.0 94.0 539.0 95.0 536.0 97.0 C 533.0 99.0 530.0 102.0 528.0 104.0 C 526.0 106.0 526.0 109.0 525.0 112.0 C 524.0 115.0 524.0 118.0 523.0 121.0 C 522.0 124.0 522.0 127.0 522.0 130.0 C 522.0 133.0 522.0 136.0 523.0 139.0 C 524.0 142.0 525.0 145.0 526.0 148.0 C 528.0 151.0 530.0 154.0 533.0 156.0 C 536.0 158.0 539.0 160.0 542.0 161.0 C 545.0 161.0 544.0 163.0 541.0 163.0 C 538.0 163.0 535.0 162.0 532.0 161.0 C 529.0 160.0 526.0 158.0 523.0 155.0 C 521.0 152.0 520.0 149.0 519.0 146.0 C 518.0 143.0 517.0 140.0 517.0 137.0 C 517.0 134.0 517.0 131.0 517.0 128.0 C 517.0 125.0 518.0 122.0 518.0 119.0 C 519.0 116.0 520.0 113.0 522.0 110.0 C 524.0 107.0 526.0 105.0 527.0 103.0 C 528.0 100.0 531.0 97.0 534.0 95.0 C 537.0 93.0 540.0 92.0 541.0 89.0 C 540.0 86.0 538.0 83.0 537.0 80.0 C 536.0 77.0 535.0 74.0 533.0 71.0 C 532.0 68.0 530.0 65.0 529.0 62.0 C 527.0 59.0 525.0 56.0 523.0 53.0 C 521.0 50.0 519.0 47.0 516.0 44.0 C 514.0 41.0 511.0 38.0 508.0 35.0 C 505.0 33.0 502.0 30.0 499.0 28.0 C 496.0 26.0 493.0 24.0 490.0 23.0 C 487.0 22.0 484.0 20.0 481.0 19.0 C 478.0 19.0 475.0 18.0 472.0 17.0 C 469.0 17.0 466.0 16.0 463.0 16.0 C 460.0 16.0 457.0 16.0 454.0 16.0 C 451.0 16.0 448.0 16.0 445.0 16.0 C 442.0 16.0 439.0 17.0 436.0 17.0 C 433.0 17.0 430.0 18.0 427.0 18.0 C 424.0 19.0 421.0 20.0 418.0 20.0 C 415.0 21.0 412.0 22.0 409.0 23.0 C 406.0 25.0 403.0 26.0 400.0 27.0 C 401.0 25.0 404.0 23.0 407.0 21.0 C 410.0 20.0 413.0 18.0 416.0 17.0 C 419.0 16.0 422.0 15.0 425.0 14.0 C 428.0 13.0 431.0 12.0 434.0 12.0 C 437.0 11.0 440.0 11.0 443.0 10.0 C 446.0 10.0 449.0 9.0 450.0 9.0" stroke-width="0.0" fill="rgb(0, 0, 0)" opacity="1.0" stroke="rgb(136, 213, 137)" stroke-opacity="0.24876022" stroke-linecap="round" stroke-linejoin="round"/>
    <path d="M 543.0 239.0 C 544.0 240.0 544.0 242.0 544.0 244.0 C 544.0 246.0 543.0 248.0 543.0 250.0 C 543.0 252.0 543.0 254.0 543.0 256.0 C 543.0 258.0 543.0 260.0 543.0 262.0 C 543.0 264.0 542.0 266.0 542.0 268.0 C 542.0 270.0 542.0 272.0 542.0 274.0 C 542.0 276.0 542.0 278.0 542.0 280.0 C 542.0 282.0 542.0 284.0 542.0 286.0 C 542.0 288.0 542.0 290.0 542.0 292.0 C 542.0 294.0 543.0 296.0 543.0 298.0 C 543.0 300.0 543.0 302.0 543.0 304.0 C 543.0 306.0 543.0 308.0 543.0 310.0 C 543.0 312.0 544.0 314.0 544.0 316.0 C 544.0 318.0 544.0 320.0 544.0 322.0 C 544.0 324.0 545.0 326.0 545.0 328.0 C 545.0 330.0 545.0 332.0 546.0 334.0 C 546.0 336.0 546.0 338.0 546.0 340.0 C 547.0 342.0 547.0 344.0 547.0 346.0 C 548.0 348.0 548.0 350.0 549.0 352.0 C 551.0 354.0 553.0 356.0 555.0 358.0 C 557.0 360.0 559.0 362.0 561.0 364.0 C 563.0 365.0 565.0 366.0 567.0 366.0 C 569.0 366.0 571.0 366.0 573.0 366.0 C 575.0 365.0 577.0 365.0 579.0 365.0 C 581.0 365.0 583.0 365.0 585.0 365.0 C 587.0 365.0 589.0 365.0 591.0 365.0 C 593.0 365.0 595.0 365.0 595.0 367.0 C 593.0 367.0 591.0 367.0 589.0 367.0 C 587.0 367.0 585.0 367.0 583.0 367.0 C 581.0 367.0 579.0 368.0 577.0 368.0 C 575.0 368.0 573.0 368.0 571.0 369.0 C 569.0 369.0 568.0 371.0 566.0 371.0 C 564.0 370.0 562.0 368.0 560.0 367.0 C 558.0 366.0 556.0 364.0 554.0 363.0 C 552.0 361.0 550.0 360.0 548.0 358.0 C 546.0 356.0 544.0 355.0 543.0 353.0 C 541.0 352.0 540.0 350.0 538.0 348.0 C 536.0 346.0 534.0 344.0 533.0 342.0 C 531.0 340.0 530.0 338.0 529.0 336.0 C 530.0 335.0 532.0 335.0 534.0 336.0 C 536.0 337.0 538.0 339.0 539.0 341.0 C 541.0 343.0 543.0 345.0 545.0 345.0 C 545.0 343.0 544.0 341.0 544.0 339.0 C 544.0 337.0 543.0 335.0 543.0 333.0 C 543.0 331.0 543.0 329.0 542.0 327.0 C 542.0 325.0 542.0 323.0 542.0 321.0 C 541.0 319.0 541.0 317.0 541.0 315.0 C 541.0 313.0 541.0 311.0 541.0 309.0 C 540.0 307.0 540.0 305.0 540.0 303.0 C 540.0 301.0 540.0 299.0 540.0 297.0 C 540.0 295.0 540.0 293.0 540.0 291.0 C 540.0 289.0 540.0 287.0 540.0 285.0 C 540.0 283.0 540.0 281.0 540.0 279.0 C 540.0 277.0 540.0 275.0 540.0 273.0 C 540.0 271.0 540.0 269.0 540.0 267.0 C 540.0 265.0 540.0 263.0 540.0 261.0 C 540.0 259.0 541.0 257.0 541.0 255.0 C 541.0 253.0 541.0 251.0 541.0 249.0 C 542.0 247.0 542.0 245.0 542.0 243.0 C 542.0 241.0 542.0 239.0 543.0 239.0" stroke-width="0.0" fill="rgb(0, 0, 0)" opacity="1.0" stroke="rgb(216, 177, 219)" stroke-opacity="0.31402093" stroke-linecap="round" stroke-linejoin="round"/>
    <path d="M 695.0 578.0 C 696.0 578.0 697.0 578.0 698.0 578.0 C 699.0 578.0 700.0 578.0 700.0 579.0 C 700.0 580.0 700.0 581.0 699.0 582.0 C 698.0 582.0 697.0 583.0 696.0 584.0 C 695.0 584.0 694.0 585.0 693.0 586.0 C 692.0 586.0 691.0 587.0 690.0 588.0 C 689.0 588.0 688.0 589.0 687.0 589.0 C 686.0 590.0 685.0 591.0 684.0 591.0 C 683.0 592.0 682.0 593.0 681.0 593.0 C 680.0 594.0 679.0 595.0 678.0 595.0 C 677.0 596.0 676.0 596.0 675.0 596.0 C 674.0 597.0 674.0 598.0 674.0 599.0 C 674.0 600.0 675.0 601.0 676.0 601.0 C 677.0 601.0 678.0 601.0 679.0 601.0 C 680.0 601.0 681.0 601.0 682.0 601.0 C 683.0 601.0 684.0 601.0 685.0 600.0 C 686.0 600.0 687.0 600.0 688.0 600.0 C 689.0 600.0 690.0 600.0 691.0 600.0 C 692.0 599.0 694.0 599.0 697.0 598.0 C 700.0 598.0 703.0 597.0 706.0 597.0 C 709.0 596.0 712.0 596.0 715.0 595.0 C 718.0 595.0 721.0 595.0 724.0 595.0 C 727.0 595.0 730.0 595.0 733.0 595.0 C 736.0 596.0 739.0 596.0 739.0 597.0 C 736.0 599.0 733.0 601.0 730.0 602.0 C 727.0 604.0 724.0 605.0 721.0 606.0 C 718.0 607.0 715.0 608.0 712.0 609.0 C 709.0 610.0 706.0 610.0 703.0 611.0 C 700.0 612.0 697.0 613.0 694.0 614.0 C 691.0 615.0 688.0 615.0 685.0 617.0 C 682.0 618.0 679.0 619.0 677.0 621.0 C 679.0 624.0 682.0 625.0 684.0 624.0 C 687.0 624.0 690.0 624.0 693.0 625.0 C 696.0 625.0 697.0 628.0 700.0 627.0 C 701.0 626.0 703.0 627.0 705.0 629.0 C 708.0 629.0 711.0 630.0 714.0 630.0 C 717.0 631.0 719.0 632.0 717.0 633.0 C 714.0 634.0 711.0 634.0 708.0 635.0 C 705.0 635.0 703.0 633.0 700.0 634.0 C 699.0 636.0 697.0 634.0 694.0 634.0 C 691.0 635.0 688.0 635.0 685.0 636.0 C 682.0 636.0 679.0 637.0 676.0 637.0 C 673.0 638.0 670.0 638.0 667.0 639.0 C 664.0 639.0 661.0 639.0 658.0 639.0 C 655.0 640.0 652.0 640.0 649.0 640.0 C 646.0 640.0 643.0 639.0 640.0 639.0 C 637.0 639.0 634.0 639.0 632.0 638.0 C 634.0 636.0 637.0 635.0 640.0 634.0 C 643.0 633.0 646.0 631.0 649.0 630.0 C 650.0 627.0 648.0 624.0 647.0 621.0 C 646.0 618.0 645.0 615.0 644.0 612.0 C 643.0 609.0 641.0 606.0 640.0 603.0 C 639.0 600.0 638.0 597.0 637.0 594.0 C 637.0 591.0 640.0 591.0 643.0 590.0 C 646.0 589.0 649.0 589.0 652.0 588.0 C 655.0 587.0 658.0 586.0 661.0 585.0 C 664.0 584.0 667.0 584.0 670.0 583.0 C 673.0 582.0 676.0 582.0 679.0 581.0 C 682.0 580.0 685.0 580.0 688.0 579.0 C 691.0 579.0 694.0 578.0 695.0 578.0" stroke-width="0.0" fill="rgb(33, 48, 64)" opacity="1.0" stroke="rgb(144, 130, 244)" stroke-opacity="0.65202653" stroke-linecap="round" stroke-linejoin="round"/>
    <path d="M 274.0 178.0 C 275.0 179.0 275.0 180.0 275.0 181.0 C 275.0 182.0 275.0 183.0 275.0 184.0 C 275.0 185.0 276.0 186.0 276.0 187.0 C 276.0 188.0 276.0 189.0 276.0 190.0 C 277.0 191.0 277.0 192.0 277.0 193.0 C 277.0 194.0 278.0 195.0 278.0 196.0 C 278.0 197.0 279.0 198.0 279.0 199.0 C 279.0 200.0 280.0 201.0 280.0 202.0 C 280.0 203.0 281.0 204.0 281.0 205.0 C 282.0 206.0 282.0 207.0 283.0 208.0 C 283.0 209.0 284.0 210.0 284.0 211.0 C 285.0 212.0 285.0 213.0 286.0 214.0 C 286.0 215.0 287.0 216.0 288.0 217.0 C 288.0 218.0 289.0 219.0 290.0 220.0 C 290.0 221.0 291.0 222.0 292.0 223.0 C 292.0 224.0 293.0 225.0 294.0 226.0 C 295.0 227.0 295.0 228.0 296.0 229.0 C 297.0 230.0 298.0 231.0 299.0 232.0 C 300.0 233.0 301.0 234.0 302.0 235.0 C 303.0 236.0 304.0 237.0 305.0 238.0 C 306.0 239.0 307.0 240.0 308.0 241.0 C 309.0 241.0 310.0 242.0 311.0 243.0 C 312.0 244.0 313.0 244.0 314.0 245.0 C 315.0 246.0 316.0 246.0 317.0 247.0 C 318.0 247.0 319.0 248.0 320.0 248.0 C 321.0 249.0 322.0 249.0 322.0 250.0 C 322.0 251.0 321.0 251.0 320.0 251.0 C 319.0 250.0 318.0 250.0 317.0 249.0 C 316.0 249.0 315.0 248.0 314.0 248.0 C 313.0 247.0 312.0 247.0 311.0 246.0 C 310.0 246.0 309.0 245.0 308.0 245.0 C 307.0 244.0 306.0 243.0 305.0 243.0 C 304.0 242.0 303.0 241.0 302.0 241.0 C 301.0 240.0 300.0 239.0 299.0 239.0 C 298.0 238.0 297.0 237.0 296.0 236.0 C 295.0 235.0 294.0 235.0 293.0 234.0 C 292.0 233.0 291.0 232.0 290.0 231.0 C 289.0 230.0 288.0 229.0 287.0 228.0 C 287.0 227.0 286.0 226.0 285.0 225.0 C 284.0 224.0 283.0 223.0 283.0 222.0 C 282.0 221.0 281.0 220.0 281.0 219.0 C 280.0 218.0 280.0 217.0 279.0 216.0 C 278.0 215.0 278.0 214.0 278.0 213.0 C 277.0 212.0 277.0 211.0 276.0 210.0 C 276.0 209.0 275.0 208.0 275.0 207.0 C 275.0 206.0 274.0 205.0 274.0 204.0 C 274.0 203.0 273.0 202.0 273.0 201.0 C 273.0 200.0 273.0 199.0 273.0 198.0 C 273.0 197.0 273.0 196.0 273.0 195.0 C 273.0 194.0 273.0 193.0 273.0 192.0 C 273.0 191.0 273.0 190.0 272.0 189.0 C 272.0 188.0 272.0 187.0 272.0 186.0 C 272.0 185.0 272.0 184.0 272.0 183.0 C 272.0 182.0 272.0 181.0 272.0 180.0 C 272.0 179.0 272.0 178.0 274.0 178.0" stroke-width="0.0" fill="rgb(0, 0, 0)" opacity="1.0" stroke="rgb(106, 193, 37)" stroke-opacity="0.5171578" stroke-linecap="round" stroke-linejoin="round"/>
    <path d="M 719.0 591.0 C 720.0 591.0 721.0 591.0 722.0 591.0 C 723.0 591.0 724.0 591.0 725.0 591.0 C 726.0 591.0 727.0 591.0 728.0 591.0 C 729.0 591.0 730.0 591.0 731.0 591.0 C 732.0 591.0 733.0 591.0 734.0 591.0 C 735.0 591.0 736.0 591.0 737.0 591.0 C 738.0 591.0 739.0 591.0 740.0 591.0 C 741.0 591.0 742.0 591.0 743.0 591.0 C 744.0 592.0 745.0 592.0 746.0 592.0 C 747.0 593.0 747.0 594.0 747.0 595.0 C 747.0 596.0 747.0 597.0 746.0 598.0 C 745.0 598.0 744.0 599.0 743.0 600.0 C 742.0 600.0 741.0 601.0 740.0 601.0 C 739.0 602.0 738.0 602.0 737.0 603.0 C 736.0 603.0 735.0 604.0 734.0 604.0 C 733.0 605.0 732.0 605.0 731.0 606.0 C 730.0 606.0 729.0 606.0 728.0 607.0 C 727.0 607.0 726.0 608.0 725.0 608.0 C 724.0 608.0 723.0 609.0 722.0 609.0 C 721.0 609.0 720.0 610.0 719.0 610.0 C 718.0 610.0 717.0 611.0 716.0 611.0 C 715.0 612.0 714.0 612.0 713.0 612.0 C 712.0 612.0 711.0 613.0 710.0 613.0 C 709.0 613.0 708.0 614.0 707.0 614.0 C 706.0 614.0 705.0 615.0 704.0 615.0 C 703.0 615.0 702.0 616.0 701.0 616.0 C 699.0 616.0 697.0 617.0 695.0 618.0 C 693.0 618.0 691.0 619.0 689.0 620.0 C 687.0 620.0 685.0 621.0 683.0 622.0 C 682.0 624.0 680.0 624.0 679.0 622.0 C 679.0 620.0 681.0 620.0 683.0 619.0 C 685.0 618.0 687.0 617.0 689.0 617.0 C 691.0 616.0 693.0 615.0 695.0 615.0 C 697.0 614.0 699.0 614.0 701.0 613.0 C 703.0 613.0 705.0 612.0 707.0 611.0 C 709.0 611.0 711.0 610.0 713.0 610.0 C 715.0 609.0 717.0 608.0 719.0 608.0 C 721.0 607.0 723.0 606.0 725.0 606.0 C 727.0 605.0 729.0 604.0 731.0 603.0 C 733.0 602.0 735.0 601.0 737.0 600.0 C 739.0 599.0 741.0 597.0 741.0 595.0 C 739.0 595.0 737.0 594.0 735.0 594.0 C 733.0 594.0 731.0 593.0 729.0 593.0 C 727.0 593.0 725.0 593.0 723.0 593.0 C 721.0 593.0 719.0 593.0 717.0 594.0 C 715.0 594.0 713.0 594.0 711.0 594.0 C 709.0 595.0 707.0 595.0 705.0 595.0 C 703.0 596.0 701.0 596.0 699.0 597.0 C 697.0 597.0 695.0 597.0 693.0 598.0 C 691.0 598.0 689.0 598.0 687.0 599.0 C 685.0 599.0 683.0 599.0 681.0 600.0 C 679.0 600.0 677.0 600.0 675.0 600.0 C 675.0 598.0 676.0 597.0 678.0 597.0 C 680.0 597.0 682.0 597.0 684.0 596.0 C 686.0 596.0 688.0 596.0 690.0 595.0 C 692.0 595.0 694.0 595.0 696.0 594.0 C 698.0 594.0 700.0 594.0 702.0 594.0 C 704.0 593.0 706.0 593.0 708.0 593.0 C 710.0 592.0 712.0 592.0 714.0 592.0 C 716.0 592.0 718.0 591.0 719.0 591.0" stroke-width="0.0" fill="rgb(0, 0, 0)" opacity="1.0" stroke="rgb(112, 14, 246)" stroke-opacity="0.014263512" stroke-linecap="round" stroke-linejoin="round"/>
    <path d="M 524.0 333.0 C 525.0 333.0 526.0 333.0 527.0 333.0 C 528.0 334.0 528.0 335.0 528.0 336.0 C 528.0 337.0 529.0 338.0 529.0 339.0 C 530.0 340.0 531.0 341.0 532.0 342.0 C 532.0 343.0 533.0 344.0 534.0 345.0 C 535.0 346.0 536.0 347.0 537.0 348.0 C 538.0 349.0 539.0 350.0 539.0 351.0 C 540.0 352.0 541.0 353.0 542.0 353.0 C 543.0 354.0 543.0 355.0 544.0 356.0 C 545.0 356.0 546.0 357.0 547.0 358.0 C 548.0 359.0 549.0 360.0 550.0 361.0 C 551.0 361.0 552.0 362.0 553.0 363.0 C 554.0 364.0 555.0 365.0 556.0 365.0 C 557.0 366.0 558.0 367.0 559.0 367.0 C 560.0 368.0 561.0 369.0 562.0 369.0 C 563.0 370.0 564.0 371.0 565.0 372.0 C 565.0 373.0 565.0 374.0 565.0 375.0 C 565.0 376.0 565.0 377.0 565.0 378.0 C 565.0 379.0 565.0 380.0 566.0 381.0 C 566.0 382.0 566.0 383.0 567.0 384.0 C 568.0 384.0 569.0 384.0 570.0 383.0 C 570.0 384.0 570.0 385.0 571.0 386.0 C 571.0 387.0 572.0 388.0 573.0 389.0 C 574.0 390.0 575.0 391.0 576.0 392.0 C 577.0 392.0 578.0 393.0 579.0 394.0 C 579.0 395.0 579.0 396.0 578.0 396.0 C 577.0 396.0 576.0 395.0 575.0 395.0 C 574.0 395.0 573.0 394.0 572.0 394.0 C 571.0 393.0 570.0 393.0 569.0 392.0 C 568.0 392.0 567.0 391.0 566.0 391.0 C 565.0 390.0 564.0 390.0 563.0 389.0 C 562.0 389.0 561.0 388.0 560.0 388.0 C 559.0 387.0 558.0 387.0 557.0 386.0 C 556.0 386.0 555.0 386.0 554.0 385.0 C 553.0 385.0 552.0 384.0 551.0 384.0 C 550.0 383.0 549.0 382.0 548.0 382.0 C 547.0 381.0 546.0 381.0 545.0 380.0 C 544.0 380.0 543.0 379.0 542.0 379.0 C 541.0 378.0 540.0 378.0 539.0 377.0 C 538.0 377.0 537.0 376.0 536.0 376.0 C 535.0 375.0 534.0 375.0 533.0 374.0 C 532.0 374.0 531.0 373.0 530.0 372.0 C 529.0 372.0 528.0 371.0 527.0 371.0 C 526.0 370.0 525.0 370.0 524.0 369.0 C 523.0 369.0 522.0 368.0 521.0 367.0 C 520.0 367.0 519.0 366.0 518.0 366.0 C 517.0 365.0 516.0 365.0 515.0 365.0 C 515.0 364.0 514.0 363.0 513.0 363.0 C 512.0 362.0 511.0 362.0 510.0 362.0 C 510.0 361.0 509.0 360.0 508.0 360.0 C 507.0 359.0 506.0 359.0 505.0 359.0 C 505.0 358.0 504.0 357.0 503.0 356.0 C 501.0 355.0 499.0 355.0 498.0 353.0 C 496.0 352.0 494.0 351.0 493.0 350.0 C 493.0 348.0 495.0 346.0 497.0 345.0 C 499.0 344.0 501.0 343.0 503.0 342.0 C 505.0 341.0 507.0 341.0 509.0 340.0 C 511.0 339.0 513.0 338.0 515.0 338.0 C 517.0 337.0 519.0 337.0 521.0 336.0 C 523.0 335.0 523.0 333.0 524.0 333.0" stroke-width="0.0" fill="rgb(255, 180, 0)" opacity="1.0" stroke="rgb(6, 86, 214)" stroke-opacity="0.52265024" stroke-linecap="round" stroke-linejoin="round"/>
    <path d="M 567.0 106.0 C 567.0 107.0 567.0 108.0 567.0 109.0 C 567.0 110.0 567.0 111.0 566.0 112.0 C 565.0 113.0 565.0 114.0 565.0 115.0 C 565.0 116.0 565.0 117.0 565.0 118.0 C 565.0 119.0 565.0 120.0 566.0 121.0 C 566.0 122.0 567.0 123.0 567.0 124.0 C 568.0 125.0 568.0 126.0 569.0 127.0 C 570.0 128.0 571.0 129.0 572.0 129.0 C 573.0 129.0 573.0 130.0 573.0 131.0 C 573.0 132.0 573.0 133.0 573.0 134.0 C 572.0 135.0 572.0 136.0 571.0 137.0 C 570.0 138.0 569.0 139.0 569.0 140.0 C 568.0 141.0 568.0 142.0 569.0 143.0 C 570.0 143.0 571.0 144.0 572.0 145.0 C 573.0 145.0 574.0 145.0 575.0 146.0 C 576.0 146.0 577.0 147.0 578.0 147.0 C 579.0 147.0 580.0 147.0 581.0 147.0 C 582.0 147.0 583.0 147.0 584.0 147.0 C 585.0 147.0 586.0 147.0 587.0 147.0 C 588.0 146.0 589.0 146.0 590.0 145.0 C 591.0 145.0 592.0 145.0 592.0 146.0 C 592.0 147.0 591.0 147.0 590.0 148.0 C 589.0 149.0 588.0 149.0 587.0 150.0 C 586.0 150.0 585.0 150.0 584.0 151.0 C 583.0 151.0 582.0 151.0 581.0 151.0 C 580.0 151.0 579.0 151.0 578.0 151.0 C 577.0 150.0 576.0 150.0 575.0 150.0 C 574.0 150.0 573.0 149.0 572.0 149.0 C 571.0 148.0 570.0 147.0 569.0 147.0 C 568.0 147.0 567.0 148.0 566.0 148.0 C 565.0 149.0 565.0 150.0 565.0 151.0 C 564.0 151.0 563.0 151.0 563.0 150.0 C 563.0 149.0 564.0 149.0 565.0 148.0 C 565.0 147.0 565.0 146.0 565.0 145.0 C 566.0 144.0 566.0 143.0 566.0 142.0 C 566.0 141.0 565.0 140.0 564.0 140.0 C 563.0 139.0 562.0 138.0 561.0 137.0 C 560.0 136.0 560.0 135.0 559.0 134.0 C 559.0 133.0 558.0 132.0 558.0 131.0 C 558.0 130.0 558.0 129.0 557.0 128.0 C 557.0 127.0 557.0 126.0 557.0 125.0 C 557.0 124.0 557.0 123.0 557.0 122.0 C 557.0 121.0 557.0 120.0 557.0 119.0 C 557.0 118.0 557.0 117.0 557.0 116.0 C 558.0 115.0 558.0 114.0 558.0 113.0 C 559.0 112.0 559.0 111.0 560.0 110.0 C 561.0 109.0 562.0 108.0 563.0 107.0 C 564.0 107.0 565.0 106.0 567.0 106.0" stroke-width="0.0" fill="rgb(0, 0, 0)" opacity="1.0" stroke="rgb(142, 189, 23)" stroke-opacity="0.9313353" stroke-linecap="round" stroke-linejoin="round"/>
    <path d="M 124.0 574.0 C 125.0 574.0 126.0 574.0 127.0 574.0 C 127.0 575.0 127.0 576.0 126.0 576.0 C 125.0 577.0 124.0 578.0 123.0 578.0 C 122.0 579.0 121.0 580.0 120.0 580.0 C 119.0 581.0 118.0 582.0 117.0 582.0 C 116.0 583.0 115.0 584.0 114.0 585.0 C 113.0 586.0 112.0 587.0 111.0 588.0 C 111.0 589.0 110.0 590.0 109.0 591.0 C 108.0 592.0 108.0 593.0 107.0 594.0 C 106.0 594.0 105.0 594.0 104.0 594.0 C 103.0 594.0 102.0 594.0 101.0 594.0 C 100.0 594.0 99.0 594.0 98.0 594.0 C 97.0 594.0 96.0 594.0 95.0 594.0 C 94.0 594.0 93.0 594.0 92.0 594.0 C 91.0 594.0 90.0 594.0 89.0 594.0 C 88.0 594.0 87.0 594.0 86.0 594.0 C 85.0 594.0 84.0 594.0 83.0 594.0 C 82.0 594.0 81.0 594.0 80.0 594.0 C 79.0 593.0 78.0 593.0 77.0 593.0 C 76.0 593.0 75.0 593.0 74.0 593.0 C 73.0 593.0 72.0 593.0 71.0 593.0 C 70.0 593.0 69.0 593.0 68.0 593.0 C 67.0 593.0 66.0 593.0 65.0 593.0 C 64.0 593.0 63.0 593.0 62.0 593.0 C 61.0 593.0 60.0 593.0 59.0 593.0 C 58.0 593.0 57.0 592.0 56.0 592.0 C 55.0 592.0 54.0 592.0 53.0 592.0 C 52.0 592.0 51.0 592.0 50.0 592.0 C 49.0 592.0 48.0 592.0 47.0 592.0 C 47.0 591.0 47.0 590.0 48.0 589.0 C 49.0 588.0 50.0 587.0 51.0 587.0 C 52.0 586.0 52.0 585.0 53.0 585.0 C 54.0 585.0 55.0 585.0 56.0 584.0 C 57.0 584.0 58.0 583.0 59.0 583.0 C 60.0 583.0 61.0 582.0 62.0 582.0 C 63.0 582.0 64.0 581.0 65.0 581.0 C 66.0 581.0 67.0 580.0 67.0 579.0 C 67.0 578.0 67.0 577.0 68.0 577.0 C 68.0 578.0 68.0 579.0 69.0 580.0 C 70.0 580.0 71.0 580.0 72.0 579.0 C 72.0 578.0 72.0 577.0 73.0 577.0 C 74.0 576.0 75.0 576.0 75.0 577.0 C 75.0 578.0 76.0 579.0 77.0 579.0 C 78.0 579.0 79.0 579.0 80.0 579.0 C 81.0 579.0 82.0 578.0 82.0 577.0 C 82.0 576.0 81.0 575.0 82.0 575.0 C 83.0 575.0 83.0 576.0 83.0 577.0 C 84.0 578.0 85.0 578.0 86.0 578.0 C 87.0 578.0 88.0 578.0 89.0 578.0 C 90.0 578.0 91.0 578.0 92.0 577.0 C 93.0 577.0 94.0 577.0 95.0 577.0 C 96.0 577.0 97.0 577.0 98.0 577.0 C 99.0 577.0 100.0 577.0 101.0 576.0 C 102.0 576.0 103.0 576.0 104.0 576.0 C 105.0 576.0 106.0 576.0 107.0 576.0 C 108.0 576.0 109.0 576.0 110.0 576.0 C 111.0 576.0 112.0 575.0 113.0 575.0 C 114.0 575.0 115.0 575.0 116.0 575.0 C 117.0 575.0 118.0 575.0 119.0 575.0 C 121.0 575.0 123.0 574.0 124.0 574.0" stroke-width="0.0" fill="rgb(33, 48, 64)" opacity="1.0" stroke="rgb(205, 253, 116)" stroke-opacity="0.964857" stroke-linecap="round" stroke-linejoin="round"/>
    <path d="M 418.0 403.0 C 419.0 403.0 420.0 404.0 421.0 404.0 C 422.0 405.0 423.0 405.0 424.0 405.0 C 425.0 406.0 426.0 406.0 427.0 407.0 C 428.0 407.0 429.0 408.0 430.0 408.0 C 431.0 409.0 432.0 409.0 433.0 410.0 C 434.0 410.0 435.0 411.0 436.0 411.0 C 437.0 412.0 438.0 413.0 439.0 413.0 C 440.0 414.0 441.0 415.0 442.0 415.0 C 443.0 416.0 444.0 417.0 445.0 418.0 C 446.0 419.0 447.0 420.0 448.0 421.0 C 449.0 422.0 450.0 423.0 451.0 424.0 C 451.0 425.0 452.0 426.0 453.0 427.0 C 453.0 428.0 453.0 429.0 454.0 430.0 C 454.0 431.0 454.0 432.0 454.0 433.0 C 455.0 434.0 455.0 436.0 456.0 438.0 C 457.0 440.0 457.0 442.0 458.0 444.0 C 459.0 446.0 459.0 448.0 460.0 450.0 C 460.0 452.0 461.0 454.0 462.0 456.0 C 462.0 458.0 463.0 460.0 462.0 461.0 C 461.0 460.0 460.0 458.0 459.0 456.0 C 458.0 454.0 458.0 452.0 457.0 450.0 C 456.0 448.0 455.0 446.0 454.0 448.0 C 454.0 450.0 454.0 452.0 453.0 454.0 C 453.0 456.0 453.0 458.0 453.0 460.0 C 453.0 462.0 453.0 464.0 453.0 466.0 C 453.0 468.0 453.0 470.0 453.0 472.0 C 453.0 474.0 453.0 476.0 453.0 478.0 C 453.0 480.0 453.0 482.0 453.0 484.0 C 453.0 486.0 453.0 488.0 453.0 490.0 C 453.0 492.0 453.0 494.0 453.0 496.0 C 454.0 498.0 456.0 499.0 458.0 499.0 C 460.0 500.0 462.0 500.0 464.0 500.0 C 466.0 501.0 468.0 501.0 470.0 502.0 C 472.0 502.0 474.0 502.0 476.0 501.0 C 478.0 500.0 480.0 499.0 482.0 499.0 C 484.0 499.0 485.0 500.0 484.0 501.0 C 482.0 501.0 480.0 502.0 478.0 503.0 C 476.0 504.0 474.0 505.0 472.0 506.0 C 470.0 506.0 468.0 505.0 466.0 505.0 C 464.0 504.0 462.0 504.0 460.0 503.0 C 458.0 503.0 456.0 502.0 454.0 502.0 C 452.0 501.0 450.0 501.0 448.0 500.0 C 448.0 498.0 448.0 496.0 448.0 494.0 C 449.0 492.0 449.0 490.0 449.0 488.0 C 449.0 486.0 449.0 484.0 449.0 482.0 C 449.0 480.0 450.0 478.0 450.0 476.0 C 450.0 474.0 450.0 472.0 450.0 470.0 C 450.0 468.0 451.0 466.0 451.0 464.0 C 451.0 462.0 451.0 460.0 451.0 458.0 C 451.0 456.0 451.0 454.0 452.0 452.0 C 452.0 450.0 452.0 448.0 452.0 446.0 C 452.0 444.0 452.0 442.0 452.0 440.0 C 452.0 438.0 452.0 436.0 451.0 434.0 C 451.0 432.0 450.0 430.0 449.0 428.0 C 447.0 426.0 445.0 425.0 443.0 423.0 C 441.0 421.0 439.0 420.0 437.0 418.0 C 435.0 417.0 433.0 415.0 431.0 414.0 C 429.0 412.0 427.0 411.0 425.0 410.0 C 423.0 408.0 421.0 407.0 419.0 406.0 C 417.0 405.0 417.0 403.0 418.0 403.0" stroke-width="0.0" fill="rgb(0, 0, 0)" opacity="1.0" stroke="rgb(66, 204, 14)" stroke-opacity="0.6457717" stroke-linecap="round" stroke-linejoin="round"/>
    <path d="M 628.0 307.0 C 629.0 307.0 630.0 307.0 631.0 307.0 C 632.0 307.0 633.0 307.0 634.0 307.0 C 635.0 307.0 634.0 307.0 633.0 307.0 C 632.0 308.0 632.0 309.0 632.0 310.0 C 633.0 311.0 634.0 311.0 635.0 311.0 C 635.0 312.0 635.0 313.0 635.0 314.0 C 634.0 315.0 634.0 316.0 633.0 317.0 C 632.0 318.0 631.0 319.0 630.0 320.0 C 629.0 321.0 628.0 322.0 627.0 323.0 C 626.0 323.0 625.0 324.0 624.0 325.0 C 623.0 325.0 622.0 326.0 621.0 327.0 C 620.0 327.0 619.0 328.0 618.0 329.0 C 617.0 329.0 616.0 330.0 615.0 331.0 C 614.0 332.0 613.0 332.0 612.0 333.0 C 611.0 334.0 610.0 334.0 609.0 334.0 C 608.0 335.0 608.0 336.0 608.0 337.0 C 609.0 338.0 610.0 338.0 611.0 338.0 C 612.0 339.0 613.0 339.0 614.0 339.0 C 615.0 339.0 616.0 340.0 617.0 340.0 C 618.0 340.0 619.0 340.0 620.0 340.0 C 621.0 340.0 622.0 340.0 623.0 340.0 C 624.0 340.0 625.0 340.0 627.0 341.0 C 630.0 341.0 633.0 341.0 636.0 342.0 C 639.0 342.0 642.0 343.0 645.0 344.0 C 648.0 346.0 651.0 348.0 653.0 351.0 C 655.0 353.0 653.0 353.0 651.0 351.0 C 649.0 353.0 649.0 355.0 648.0 352.0 C 645.0 352.0 644.0 355.0 647.0 356.0 C 644.0 356.0 643.0 353.0 640.0 353.0 C 637.0 353.0 634.0 353.0 631.0 353.0 C 628.0 353.0 625.0 353.0 623.0 355.0 C 621.0 356.0 618.0 356.0 615.0 356.0 C 612.0 356.0 609.0 357.0 612.0 360.0 C 615.0 363.0 618.0 365.0 621.0 367.0 C 624.0 369.0 627.0 371.0 630.0 374.0 C 633.0 376.0 634.0 378.0 632.0 380.0 C 634.0 383.0 635.0 386.0 636.0 389.0 C 633.0 388.0 630.0 388.0 627.0 387.0 C 624.0 385.0 621.0 384.0 619.0 382.0 C 616.0 383.0 614.0 383.0 611.0 380.0 C 608.0 378.0 610.0 376.0 608.0 373.0 C 605.0 374.0 603.0 374.0 604.0 372.0 C 603.0 369.0 600.0 367.0 597.0 365.0 C 594.0 364.0 591.0 364.0 588.0 364.0 C 585.0 364.0 582.0 364.0 579.0 364.0 C 576.0 364.0 573.0 365.0 570.0 365.0 C 567.0 365.0 564.0 365.0 561.0 363.0 C 558.0 360.0 555.0 357.0 552.0 354.0 C 550.0 351.0 549.0 348.0 548.0 345.0 C 548.0 342.0 547.0 339.0 548.0 337.0 C 549.0 339.0 552.0 340.0 555.0 341.0 C 558.0 341.0 561.0 341.0 564.0 341.0 C 567.0 341.0 570.0 341.0 573.0 341.0 C 576.0 341.0 579.0 341.0 582.0 341.0 C 585.0 341.0 588.0 340.0 591.0 338.0 C 594.0 335.0 597.0 333.0 600.0 330.0 C 603.0 327.0 606.0 325.0 609.0 322.0 C 612.0 319.0 615.0 317.0 618.0 315.0 C 621.0 314.0 624.0 312.0 627.0 311.0 C 629.0 309.0 627.0 307.0 628.0 307.0" stroke-width="0.0" fill="rgb(98, 109, 120)" opacity="1.0" stroke="rgb(121, 74, 253)" stroke-opacity="0.9023768" stroke-linecap="round" stroke-linejoin="round"/>
    <path d="M 51.0 580.0 C 51.0 581.0 51.0 582.0 51.0 583.0 C 50.0 583.0 49.0 583.0 48.0 583.0 C 47.0 584.0 46.0 585.0 45.0 585.0 C 44.0 586.0 43.0 587.0 42.0 588.0 C 41.0 589.0 40.0 590.0 40.0 591.0 C 39.0 591.0 38.0 591.0 37.0 591.0 C 36.0 591.0 35.0 591.0 34.0 591.0 C 33.0 591.0 32.0 591.0 31.0 591.0 C 30.0 591.0 29.0 591.0 28.0 591.0 C 27.0 591.0 26.0 591.0 25.0 590.0 C 24.0 590.0 23.0 590.0 22.0 590.0 C 21.0 590.0 20.0 590.0 19.0 590.0 C 18.0 590.0 17.0 590.0 16.0 590.0 C 15.0 590.0 14.0 589.0 14.0 588.0 C 14.0 587.0 13.0 586.0 13.0 585.0 C 13.0 584.0 14.0 584.0 15.0 584.0 C 16.0 584.0 17.0 583.0 18.0 583.0 C 19.0 583.0 20.0 583.0 21.0 583.0 C 22.0 583.0 23.0 583.0 24.0 583.0 C 25.0 583.0 26.0 582.0 27.0 582.0 C 28.0 582.0 29.0 582.0 30.0 582.0 C 31.0 582.0 32.0 582.0 33.0 582.0 C 34.0 581.0 35.0 581.0 36.0 581.0 C 37.0 581.0 38.0 581.0 39.0 581.0 C 40.0 581.0 41.0 581.0 42.0 580.0 C 43.0 580.0 44.0 580.0 45.0 580.0 C 46.0 580.0 47.0 580.0 48.0 580.0 C 49.0 580.0 50.0 579.0 51.0 580.0" stroke-width="0.0" fill="rgb(32, 47, 63)" opacity="1.0" stroke="rgb(73, 68, 120)" stroke-opacity="0.4303305" stroke-linecap="round" stroke-linejoin="round"/>
    <path d="M 595.0 187.0 C 596.0 187.0 597.0 187.0 598.0 188.0 C 599.0 189.0 599.0 190.0 599.0 191.0 C 598.0 192.0 597.0 192.0 596.0 193.0 C 595.0 193.0 594.0 193.0 593.0 193.0 C 592.0 194.0 591.0 194.0 590.0 194.0 C 589.0 195.0 588.0 195.0 587.0 195.0 C 586.0 195.0 585.0 196.0 584.0 196.0 C 583.0 196.0 582.0 196.0 581.0 197.0 C 580.0 197.0 579.0 197.0 578.0 198.0 C 577.0 198.0 576.0 198.0 575.0 198.0 C 574.0 199.0 573.0 199.0 572.0 199.0 C 571.0 199.0 570.0 200.0 569.0 200.0 C 568.0 200.0 567.0 201.0 566.0 201.0 C 565.0 201.0 564.0 201.0 563.0 202.0 C 562.0 202.0 561.0 202.0 560.0 202.0 C 559.0 203.0 558.0 203.0 557.0 203.0 C 556.0 204.0 555.0 204.0 554.0 204.0 C 553.0 204.0 552.0 205.0 551.0 205.0 C 550.0 205.0 549.0 205.0 548.0 206.0 C 547.0 206.0 546.0 206.0 545.0 207.0 C 544.0 207.0 543.0 207.0 542.0 207.0 C 541.0 208.0 540.0 208.0 539.0 208.0 C 538.0 208.0 537.0 209.0 536.0 209.0 C 535.0 209.0 534.0 210.0 533.0 210.0 C 532.0 210.0 531.0 210.0 530.0 211.0 C 529.0 211.0 528.0 211.0 527.0 211.0 C 526.0 212.0 525.0 212.0 524.0 212.0 C 523.0 213.0 522.0 213.0 521.0 213.0 C 520.0 213.0 519.0 214.0 518.0 214.0 C 517.0 214.0 516.0 214.0 515.0 215.0 C 514.0 215.0 513.0 215.0 512.0 216.0 C 511.0 216.0 510.0 216.0 509.0 216.0 C 508.0 217.0 507.0 217.0 506.0 217.0 C 506.0 216.0 506.0 215.0 507.0 215.0 C 508.0 215.0 509.0 214.0 510.0 214.0 C 511.0 214.0 512.0 213.0 513.0 213.0 C 514.0 213.0 515.0 212.0 516.0 212.0 C 517.0 212.0 518.0 211.0 519.0 211.0 C 520.0 211.0 521.0 211.0 522.0 210.0 C 523.0 210.0 524.0 210.0 525.0 209.0 C 526.0 209.0 527.0 209.0 528.0 208.0 C 529.0 208.0 530.0 208.0 531.0 207.0 C 532.0 207.0 533.0 207.0 534.0 206.0 C 535.0 206.0 536.0 206.0 537.0 205.0 C 538.0 205.0 539.0 205.0 540.0 205.0 C 541.0 204.0 542.0 204.0 543.0 204.0 C 544.0 203.0 545.0 203.0 546.0 203.0 C 547.0 202.0 548.0 202.0 549.0 202.0 C 550.0 201.0 551.0 201.0 552.0 201.0 C 553.0 200.0 554.0 200.0 555.0 200.0 C 556.0 199.0 557.0 199.0 558.0 199.0 C 559.0 199.0 560.0 198.0 561.0 198.0 C 562.0 198.0 563.0 197.0 564.0 197.0 C 565.0 197.0 566.0 196.0 567.0 196.0 C 568.0 196.0 569.0 195.0 570.0 195.0 C 571.0 195.0 572.0 194.0 573.0 194.0 C 574.0 194.0 576.0 193.0 578.0 193.0 C 580.0 192.0 582.0 191.0 584.0 191.0 C 586.0 190.0 588.0 189.0 590.0 189.0 C 592.0 188.0 594.0 187.0 595.0 187.0" stroke-width="0.0" fill="rgb(0, 0, 0)" opacity="1.0" stroke="rgb(98, 176, 48)" stroke-opacity="0.98367465" stroke-linecap="round" stroke-linejoin="round"/>
    <path d="M 574.0 416.0 C 575.0 416.0 576.0 416.0 577.0 416.0 C 578.0 416.0 579.0 416.0 580.0 416.0 C 581.0 417.0 582.0 417.0 583.0 418.0 C 584.0 418.0 585.0 419.0 586.0 420.0 C 587.0 421.0 588.0 422.0 589.0 423.0 C 590.0 424.0 590.0 425.0 591.0 426.0 C 592.0 427.0 592.0 428.0 593.0 429.0 C 593.0 430.0 594.0 431.0 594.0 432.0 C 595.0 433.0 595.0 434.0 595.0 435.0 C 595.0 436.0 595.0 437.0 595.0 438.0 C 595.0 439.0 595.0 440.0 595.0 441.0 C 595.0 442.0 595.0 443.0 594.0 444.0 C 594.0 445.0 594.0 446.0 593.0 447.0 C 593.0 448.0 592.0 448.0 591.0 449.0 C 591.0 450.0 591.0 451.0 590.0 452.0 C 589.0 453.0 588.0 453.0 587.0 454.0 C 586.0 454.0 585.0 455.0 584.0 455.0 C 583.0 455.0 582.0 455.0 581.0 455.0 C 580.0 455.0 579.0 455.0 578.0 455.0 C 577.0 455.0 576.0 454.0 575.0 454.0 C 574.0 453.0 573.0 452.0 572.0 451.0 C 571.0 450.0 570.0 449.0 570.0 448.0 C 569.0 447.0 569.0 446.0 569.0 445.0 C 568.0 444.0 568.0 443.0 568.0 442.0 C 568.0 441.0 567.0 440.0 567.0 439.0 C 567.0 438.0 567.0 437.0 567.0 436.0 C 567.0 435.0 567.0 434.0 567.0 433.0 C 567.0 432.0 567.0 431.0 567.0 430.0 C 567.0 429.0 567.0 428.0 567.0 427.0 C 567.0 426.0 567.0 425.0 568.0 424.0 C 568.0 423.0 568.0 422.0 569.0 421.0 C 569.0 420.0 570.0 419.0 571.0 418.0 C 572.0 417.0 573.0 416.0 574.0 416.0" stroke-width="0.0" fill="rgb(0, 0, 0)" opacity="1.0" stroke="rgb(237, 5, 105)" stroke-opacity="0.4846513" stroke-linecap="round" stroke-linejoin="round"/>
    <path d="M 592.0 174.0 C 593.0 174.0 594.0 174.0 595.0 174.0 C 596.0 174.0 597.0 174.0 598.0 174.0 C 599.0 174.0 600.0 174.0 601.0 174.0 C 602.0 174.0 603.0 174.0 604.0 175.0 C 604.0 176.0 604.0 177.0 604.0 178.0 C 603.0 179.0 602.0 179.0 601.0 179.0 C 600.0 179.0 599.0 179.0 598.0 179.0 C 597.0 179.0 596.0 179.0 595.0 179.0 C 594.0 179.0 593.0 180.0 592.0 180.0 C 591.0 180.0 590.0 180.0 589.0 180.0 C 588.0 180.0 587.0 180.0 586.0 180.0 C 585.0 180.0 584.0 180.0 583.0 180.0 C 582.0 180.0 581.0 180.0 580.0 180.0 C 579.0 180.0 578.0 180.0 577.0 180.0 C 576.0 180.0 575.0 180.0 574.0 180.0 C 573.0 180.0 572.0 180.0 571.0 180.0 C 570.0 180.0 569.0 180.0 568.0 181.0 C 567.0 181.0 566.0 181.0 565.0 181.0 C 564.0 181.0 563.0 181.0 562.0 181.0 C 561.0 181.0 560.0 181.0 559.0 181.0 C 558.0 181.0 557.0 181.0 556.0 181.0 C 555.0 181.0 554.0 181.0 553.0 181.0 C 552.0 181.0 551.0 181.0 550.0 181.0 C 549.0 181.0 548.0 181.0 547.0 181.0 C 546.0 181.0 545.0 181.0 544.0 181.0 C 543.0 182.0 542.0 182.0 541.0 182.0 C 540.0 182.0 539.0 182.0 538.0 182.0 C 537.0 182.0 536.0 182.0 535.0 182.0 C 534.0 182.0 533.0 182.0 532.0 182.0 C 531.0 182.0 530.0 182.0 529.0 182.0 C 528.0 182.0 527.0 182.0 526.0 182.0 C 525.0 182.0 524.0 182.0 524.0 181.0 C 524.0 180.0 525.0 180.0 526.0 180.0 C 527.0 180.0 528.0 180.0 529.0 180.0 C 530.0 180.0 531.0 180.0 532.0 180.0 C 533.0 180.0 534.0 180.0 535.0 179.0 C 536.0 179.0 537.0 179.0 538.0 179.0 C 539.0 179.0 540.0 179.0 541.0 179.0 C 542.0 179.0 543.0 179.0 544.0 179.0 C 545.0 179.0 546.0 179.0 547.0 178.0 C 548.0 178.0 549.0 178.0 550.0 178.0 C 551.0 178.0 552.0 178.0 553.0 178.0 C 554.0 178.0 555.0 178.0 556.0 178.0 C 557.0 178.0 558.0 177.0 559.0 177.0 C 560.0 177.0 561.0 177.0 562.0 177.0 C 563.0 177.0 564.0 177.0 565.0 177.0 C 566.0 177.0 567.0 177.0 568.0 177.0 C 569.0 176.0 570.0 176.0 571.0 176.0 C 572.0 176.0 573.0 176.0 574.0 176.0 C 575.0 176.0 576.0 176.0 577.0 176.0 C 578.0 176.0 579.0 176.0 580.0 175.0 C 581.0 175.0 582.0 175.0 583.0 175.0 C 584.0 175.0 585.0 175.0 586.0 175.0 C 587.0 175.0 588.0 175.0 589.0 175.0 C 590.0 175.0 591.0 174.0 592.0 174.0" stroke-width="0.0" fill="rgb(0, 0, 0)" opacity="1.0" stroke="rgb(92, 105, 95)" stroke-opacity="0.20047194" stroke-linecap="round" stroke-linejoin="round"/>
    <path d="M 565.0 705.0 C 565.0 706.0 566.0 707.0 567.0 707.0 C 568.0 707.0 569.0 708.0 570.0 708.0 C 571.0 709.0 572.0 710.0 573.0 710.0 C 574.0 711.0 575.0 712.0 576.0 712.0 C 577.0 713.0 578.0 713.0 579.0 714.0 C 580.0 715.0 581.0 715.0 582.0 716.0 C 583.0 716.0 584.0 717.0 585.0 718.0 C 586.0 718.0 587.0 719.0 588.0 720.0 C 589.0 720.0 590.0 721.0 591.0 721.0 C 592.0 722.0 593.0 723.0 594.0 723.0 C 595.0 724.0 596.0 724.0 597.0 725.0 C 598.0 726.0 599.0 726.0 600.0 727.0 C 601.0 728.0 602.0 728.0 603.0 729.0 C 604.0 729.0 605.0 730.0 606.0 731.0 C 607.0 731.0 608.0 732.0 609.0 732.0 C 610.0 733.0 611.0 734.0 612.0 734.0 C 613.0 735.0 614.0 735.0 615.0 736.0 C 616.0 735.0 616.0 734.0 616.0 733.0 C 617.0 733.0 618.0 733.0 618.0 734.0 C 619.0 735.0 620.0 736.0 620.0 737.0 C 621.0 738.0 621.0 739.0 621.0 740.0 C 621.0 741.0 620.0 741.0 619.0 741.0 C 618.0 740.0 617.0 740.0 616.0 740.0 C 615.0 740.0 614.0 739.0 613.0 739.0 C 612.0 739.0 611.0 738.0 610.0 738.0 C 609.0 737.0 608.0 737.0 607.0 736.0 C 606.0 736.0 605.0 735.0 604.0 735.0 C 603.0 734.0 602.0 734.0 601.0 733.0 C 600.0 733.0 599.0 732.0 598.0 732.0 C 597.0 731.0 596.0 731.0 595.0 730.0 C 594.0 729.0 593.0 729.0 592.0 728.0 C 591.0 727.0 590.0 727.0 589.0 726.0 C 588.0 725.0 587.0 725.0 586.0 724.0 C 585.0 723.0 584.0 723.0 583.0 722.0 C 582.0 721.0 581.0 720.0 580.0 720.0 C 579.0 719.0 578.0 718.0 577.0 717.0 C 576.0 717.0 575.0 716.0 574.0 715.0 C 573.0 714.0 572.0 714.0 571.0 713.0 C 570.0 712.0 569.0 711.0 568.0 710.0 C 567.0 710.0 566.0 709.0 566.0 708.0 C 565.0 707.0 564.0 707.0 563.0 707.0 C 563.0 706.0 563.0 705.0 565.0 705.0" stroke-width="0.0" fill="rgb(8, 12, 16)" opacity="1.0" stroke="rgb(220, 251, 225)" stroke-opacity="0.03135713" stroke-linecap="round" stroke-linejoin="round"/>
    <path d="M 581.0 421.0 C 582.0 421.0 583.0 422.0 584.0 423.0 C 585.0 424.0 585.0 425.0 586.0 426.0 C 586.0 427.0 587.0 428.0 588.0 429.0 C 588.0 430.0 589.0 431.0 589.0 432.0 C 590.0 433.0 590.0 434.0 590.0 435.0 C 591.0 436.0 591.0 437.0 591.0 438.0 C 591.0 439.0 591.0 440.0 591.0 441.0 C 591.0 442.0 591.0 443.0 591.0 444.0 C 591.0 445.0 590.0 446.0 590.0 447.0 C 590.0 448.0 589.0 448.0 588.0 449.0 C 587.0 450.0 586.0 450.0 585.0 450.0 C 584.0 451.0 583.0 451.0 582.0 451.0 C 581.0 451.0 580.0 451.0 579.0 450.0 C 578.0 450.0 577.0 449.0 576.0 449.0 C 575.0 448.0 574.0 447.0 573.0 446.0 C 572.0 445.0 572.0 444.0 571.0 443.0 C 571.0 442.0 571.0 441.0 570.0 440.0 C 570.0 439.0 570.0 438.0 570.0 437.0 C 570.0 436.0 570.0 435.0 570.0 434.0 C 570.0 433.0 570.0 432.0 570.0 431.0 C 570.0 430.0 571.0 429.0 571.0 428.0 C 571.0 427.0 572.0 426.0 573.0 425.0 C 574.0 424.0 575.0 423.0 576.0 422.0 C 577.0 422.0 578.0 421.0 581.0 421.0" stroke-width="0.0" fill="rgb(255, 180, 0)" opacity="1.0" stroke="rgb(237, 249, 184)" stroke-opacity="0.3566305" stroke-linecap="round" stroke-linejoin="round"/>
    <path d="M 536.0 477.0 C 537.0 478.0 538.0 478.0 539.0 479.0 C 540.0 480.0 541.0 481.0 542.0 482.0 C 542.0 483.0 543.0 484.0 544.0 485.0 C 543.0 485.0 542.0 485.0 541.0 486.0 C 541.0 487.0 541.0 488.0 542.0 489.0 C 542.0 490.0 543.0 491.0 543.0 492.0 C 543.0 493.0 543.0 494.0 543.0 495.0 C 543.0 496.0 543.0 497.0 542.0 498.0 C 542.0 499.0 542.0 500.0 541.0 501.0 C 541.0 502.0 540.0 503.0 539.0 504.0 C 539.0 505.0 539.0 506.0 540.0 507.0 C 541.0 507.0 542.0 507.0 541.0 507.0 C 540.0 507.0 539.0 508.0 538.0 508.0 C 537.0 508.0 536.0 508.0 535.0 508.0 C 534.0 508.0 533.0 508.0 532.0 508.0 C 531.0 508.0 530.0 507.0 529.0 507.0 C 530.0 507.0 531.0 507.0 532.0 508.0 C 533.0 508.0 534.0 508.0 535.0 508.0 C 536.0 508.0 537.0 508.0 538.0 508.0 C 539.0 507.0 539.0 506.0 539.0 505.0 C 538.0 504.0 537.0 504.0 536.0 504.0 C 535.0 504.0 534.0 504.0 533.0 504.0 C 532.0 503.0 531.0 502.0 530.0 502.0 C 529.0 501.0 528.0 500.0 527.0 500.0 C 526.0 500.0 525.0 501.0 525.0 502.0 C 524.0 501.0 524.0 500.0 523.0 499.0 C 523.0 498.0 522.0 497.0 522.0 496.0 C 521.0 495.0 521.0 494.0 521.0 493.0 C 520.0 492.0 520.0 491.0 520.0 490.0 C 520.0 489.0 520.0 488.0 520.0 487.0 C 520.0 486.0 520.0 487.0 520.0 488.0 C 520.0 489.0 521.0 490.0 522.0 490.0 C 523.0 490.0 524.0 489.0 524.0 488.0 C 524.0 487.0 525.0 486.0 525.0 485.0 C 526.0 484.0 526.0 483.0 527.0 482.0 C 528.0 481.0 529.0 480.0 530.0 480.0 C 531.0 479.0 532.0 479.0 533.0 478.0 C 533.0 477.0 533.0 476.0 536.0 477.0" stroke-width="0.0" fill="rgb(255, 180, 0)" opacity="1.0" stroke="rgb(51, 87, 85)" stroke-opacity="0.33995903" stroke-linecap="round" stroke-linejoin="round"/>
    <path d="M 630.0 256.0 C 630.0 257.0 630.0 258.0 630.0 259.0 C 631.0 260.0 631.0 261.0 631.0 262.0 C 631.0 263.0 631.0 264.0 632.0 265.0 C 632.0 266.0 632.0 267.0 632.0 268.0 C 632.0 269.0 632.0 270.0 633.0 271.0 C 633.0 272.0 633.0 273.0 633.0 274.0 C 633.0 275.0 633.0 276.0 633.0 277.0 C 633.0 278.0 633.0 279.0 633.0 280.0 C 633.0 281.0 634.0 282.0 634.0 283.0 C 634.0 284.0 634.0 285.0 634.0 286.0 C 634.0 287.0 633.0 288.0 632.0 288.0 C 631.0 288.0 630.0 289.0 629.0 290.0 C 629.0 291.0 629.0 292.0 628.0 292.0 C 627.0 292.0 627.0 291.0 627.0 290.0 C 627.0 289.0 627.0 288.0 627.0 287.0 C 628.0 286.0 628.0 285.0 628.0 284.0 C 628.0 283.0 628.0 282.0 628.0 281.0 C 628.0 280.0 628.0 279.0 628.0 278.0 C 628.0 277.0 628.0 276.0 628.0 275.0 C 628.0 274.0 628.0 273.0 628.0 272.0 C 628.0 271.0 628.0 270.0 628.0 269.0 C 628.0 268.0 628.0 267.0 628.0 266.0 C 628.0 265.0 628.0 264.0 628.0 263.0 C 628.0 262.0 628.0 261.0 628.0 260.0 C 628.0 259.0 628.0 258.0 628.0 257.0 C 628.0 256.0 628.0 255.0 630.0 256.0" stroke-width="0.0" fill="rgb(0, 0, 0)" opacity="1.0" stroke="rgb(171, 37, 180)" stroke-opacity="0.09143696" stroke-linecap="round" stroke-linejoin="round"/>
  </g>
</svg>
