<?xml version="1.0" ?>
<svg xmlns="http://www.w3.org/2000/svg" version="1.1" width="474" height="596">
  <defs/>
  <g>
    <path d="M 267.37689208984375 -1.088837742805481 C 268.0091247558594 -0.5875347256660461 268.775146484375 -0.6213669776916504 269.1378479003906 -0.8069953322410583 C 269.7298583984375 -0.8779956102371216 270.43133544921875 -1.2122958898544312 270.9574890136719 -1.6848822832107544 C 271.6969299316406 -2.1304712295532227 272.43096923828125 -2.8484301567077637 272.85150146484375 -3.450446605682373 C 273.25286865234375 -3.5658118724823 274.16949462890625 -3.465894937515259 275.26043701171875 -3.3342525959014893 C 276.5363464355469 -2.6831209659576416 278.30987548828125 -1.3930201530456543 281.20220947265625 -0.9765732288360596 C 284.9058532714844 0.807637631893158 289.7262268066406 2.347905158996582 296.596435546875 3.5540904998779297 C 303.60150146484375 5.672940731048584 312.0829162597656 8.014351844787598 320.09857177734375 11.778189659118652 C 328.98126220703125 15.20407485961914 337.224365234375 19.815052032470703 345.1943359375 24.653715133666992 C 353.6008605957031 29.181095123291016 361.1473693847656 35.34236526489258 369.21185302734375 41.64185333251953 C 377.2505798339844 48.394073486328125 384.9561462402344 55.60683059692383 392.0694580078125 63.37080764770508 C 399.3462829589844 70.61194610595703 404.8484191894531 79.59765625 411.69110107421875 87.06807708740234 C 417.25341796875 95.76351928710938 423.1693420410156 103.66473388671875 427.7877197265625 112.25811767578125 C 432.3669128417969 120.00248718261719 434.5268859863281 127.92709350585938 431.7440490722656 136.58499145507812 C 428.1333312988281 145.29437255859375 422.2372741699219 152.78945922851562 415.7215576171875 161.25485229492188 C 408.0989990234375 168.15065002441406 400.5683898925781 175.77340698242188 393.26153564453125 183.077392578125 C 384.6346740722656 189.18064880371094 378.34326171875 197.6419677734375 368.9654846191406 203.41513061523438 C 359.9217834472656 209.80715942382812 350.5186767578125 215.89022827148438 340.77227783203125 219.8695526123047 C 331.5368957519531 223.0812530517578 324.5100402832031 224.7181854248047 319.31549072265625 224.44129943847656 C 319.523681640625 220.8070831298828 322.268310546875 215.10275268554688 327.04144287109375 208.67764282226562 C 334.0133361816406 202.14364624023438 341.9223937988281 195.34469604492188 349.7483215332031 188.4414825439453 C 356.7052001953125 181.25717163085938 362.3114318847656 173.80361938476562 366.5037841796875 166.02679443359375 C 369.1678466796875 157.82626342773438 370.3933410644531 149.51608276367188 370.22711181640625 141.15615844726562 C 368.7819519042969 132.9326171875 365.9885559082031 125.0463638305664 362.2805480957031 117.67811584472656 C 357.67724609375 111.36810302734375 352.3604736328125 106.11526489257812 346.419189453125 102.13892364501953 C 340.0351867675781 99.6429214477539 333.15777587890625 98.62555694580078 326.213134765625 100.48941040039062 C 317.5364990234375 99.9078369140625 309.4747009277344 101.85285949707031 301.6690368652344 104.94194030761719 C 291.6976318359375 105.87517547607422 282.6429748535156 107.06359100341797 273.927734375 109.24922943115234 C 266.0267333984375 108.85997772216797 259.1874694824219 107.38832092285156 253.88662719726562 106.27629852294922 C 250.33741760253906 103.97235107421875 247.81776428222656 103.39778900146484 246.41294860839844 103.94470977783203 C 245.74290466308594 105.95934295654297 244.77301025390625 109.30419158935547 242.0626983642578 113.05966186523438 C 236.2483673095703 116.77950286865234 229.0619354248047 120.94634246826172 221.10520935058594 125.23648071289062 C 211.17706298828125 128.82740783691406 201.5616455078125 132.36483764648438 191.68890380859375 134.83544921875 C 182.4849395751953 136.4443359375 174.92733764648438 137.5369110107422 168.8368377685547 138.70437622070312 C 164.36654663085938 139.8765106201172 161.03433227539062 141.33621215820312 158.41006469726562 143.3866424560547 C 156.086669921875 146.32350158691406 153.83213806152344 150.3931427001953 151.50363159179688 155.77130126953125 C 149.42529296875 162.2298583984375 147.80349731445312 169.609130859375 147.09884643554688 177.57473754882812 C 147.93675231933594 185.77845764160156 150.4574432373047 194.10609436035156 154.7438507080078 202.21812438964844 C 160.9541015625 209.72328186035156 168.89620971679688 216.55679321289062 178.0468292236328 222.75242614746094 C 187.5596466064453 228.15670776367188 196.49884033203125 232.9199676513672 204.38043212890625 236.82080078125 C 209.76426696777344 240.2071533203125 211.60313415527344 243.11192321777344 210.03347778320312 245.2401885986328 C 205.46498107910156 246.096435546875 198.49575805664062 245.8403778076172 190.18919372558594 244.69325256347656 C 181.3430633544922 243.30418395996094 171.88925170898438 241.8617401123047 162.55770874023438 240.71044921875 C 153.32760620117188 240.9790802001953 144.1385040283203 240.6417999267578 136.19509887695312 239.36961364746094 C 128.15896606445312 237.9942626953125 120.13712310791016 236.58396911621094 112.34638977050781 234.4291229248047 C 103.9053726196289 231.98260498046875 95.10267639160156 229.2224884033203 86.79273223876953 225.65599060058594 C 78.1787109375 222.2295379638672 70.15206909179688 218.48532104492188 63.26875686645508 214.15213012695312 C 58.24597930908203 208.6156005859375 54.556148529052734 202.8692626953125 53.362857818603516 196.01954650878906 C 53.67268753051758 187.1598663330078 54.849586486816406 178.4983673095703 56.74391174316406 169.33120727539062 C 58.15678024291992 160.5391845703125 60.35406494140625 152.04283142089844 62.85162353515625 143.88070678710938 C 64.93246459960938 136.0590057373047 67.90982818603516 128.981201171875 71.10240173339844 121.37872314453125 C 74.45685577392578 113.6922607421875 78.38263702392578 105.76475524902344 83.09812927246094 97.7174072265625 C 88.17858123779297 89.47103118896484 93.78742980957031 81.21660614013672 100.37285614013672 73.30701446533203 C 107.22079467773438 65.12519073486328 114.50135040283203 57.21683883666992 122.67548370361328 50.167179107666016 C 130.29745483398438 42.87611389160156 138.9193878173828 37.2613410949707 146.62713623046875 31.460826873779297 C 154.22320556640625 26.445053100585938 161.77133178710938 24.466291427612305 171.686279296875 23.799488067626953 C 180.58424377441406 23.209369659423828 189.17202758789062 24.757436752319336 197.44595336914062 26.620128631591797 C 204.7169189453125 28.53703498840332 209.20370483398438 30.505386352539062 213.38296508789062 28.505342483520508 C 217.90208435058594 29.64942741394043 223.9051971435547 29.535175323486328 227.5062713623047 25.746593475341797 C 233.05889892578125 19.58732795715332 239.5736846923828 12.738699913024902 248.49725341796875 7.68869686126709 C 257.8828430175781 2.7634315490722656 268.7715759277344 -0.5832569599151611 267.37689208984375 -1.088837742805481" stroke-width="0.0" fill="rgb(64, 38, 30)" opacity="0.9999957" stroke="rgb(221, 110, 77)" stroke-opacity="0.39469033" stroke-linecap="round" stroke-linejoin="round"/>
    <path d="M 279.81915283203125 238.41322326660156 C 287.7995300292969 239.7207794189453 297.2628479003906 240.6256561279297 307.7442626953125 241.51051330566406 C 320.32928466796875 243.6076202392578 334.66943359375 247.51983642578125 351.08172607421875 254.9031524658203 C 368.1379089355469 265.7654724121094 384.9305419921875 276.5680236816406 398.51812744140625 285.12548828125 C 405.8900146484375 290.3830871582031 406.3924255371094 292.03662109375 400.33367919921875 291.28631591796875 C 390.537841796875 289.7454528808594 380.7114562988281 289.69073486328125 374.2687683105469 292.7603454589844 C 374.2339782714844 298.9813232421875 380.6081848144531 308.2050476074219 392.1388854980469 319.8120422363281 C 406.7689514160156 332.0453186035156 420.0494079589844 342.0975646972656 427.6318054199219 349.3484191894531 C 427.7913818359375 347.51629638671875 419.75 340.7361755371094 404.1751708984375 331.81927490234375 C 381.3169250488281 328.6335754394531 358.35467529296875 324.890380859375 339.0555419921875 320.755859375 C 326.50701904296875 323.413330078125 323.4571838378906 333.01556396484375 322.51873779296875 350.5793151855469 C 323.7463684082031 370.2486572265625 317.9170837402344 390.70965576171875 309.1016845703125 412.49676513671875 C 301.0453186035156 434.7067565917969 295.71435546875 457.03564453125 290.44293212890625 478.06683349609375 C 289.43017578125 496.16131591796875 291.80712890625 511.34210205078125 292.9241943359375 522.19091796875 C 289.26812744140625 527.031982421875 279.03717041015625 526.5968017578125 265.4030456542969 525.470703125 C 251.3740692138672 525.205078125 239.2337646484375 529.6843872070312 234.2888641357422 538.6888427734375 C 235.50111389160156 556.06640625 243.7682342529297 570.6768188476562 260.2077331542969 579.0491333007812 C 279.4117126464844 581.8862915039062 299.0535888671875 579.7452392578125 315.7950744628906 579.0803833007812 C 326.62457275390625 577.509521484375 329.3236389160156 578.4903564453125 322.75860595703125 580.1871948242188 C 308.77020263671875 580.3336791992188 291.44281005859375 581.4003295898438 273.8683776855469 580.771728515625 C 255.6634063720703 576.5084228515625 242.23599243164062 569.5389404296875 237.1799774169922 555.8228149414062 C 237.21597290039062 535.84521484375 238.1525421142578 513.5079956054688 242.55087280273438 490.8646545410156 C 242.1171417236328 473.3326721191406 236.8318634033203 460.5707702636719 228.9389190673828 456.1009216308594 C 221.5473175048828 463.097412109375 214.22564697265625 474.35791015625 206.67636108398438 484.59423828125 C 199.17881774902344 490.398193359375 192.5229034423828 492.265625 187.65972900390625 492.349853515625 C 185.36570739746094 492.8398132324219 186.3794708251953 496.16973876953125 190.68194580078125 503.6112365722656 C 197.52223205566406 514.937744140625 205.76211547851562 529.4111328125 213.73460388183594 545.16015625 C 217.33218383789062 560.38671875 213.6982879638672 573.9359130859375 202.29254150390625 583.6677856445312 C 183.38133239746094 589.8301391601562 163.80751037597656 594.1001586914062 144.94461059570312 594.8375244140625 C 131.09852600097656 591.6705932617188 124.06275939941406 586.1328735351562 125.87407684326172 579.792724609375 C 135.60470581054688 581.4229736328125 151.85008239746094 582.4413452148438 168.3072509765625 584.3455810546875 C 188.6837615966797 583.2755126953125 203.87103271484375 577.78369140625 214.52586364746094 568.90771484375 C 216.64370727539062 555.650634765625 213.606201171875 542.6224365234375 206.7649383544922 532.143798828125 C 196.01806640625 526.5631713867188 185.3035430908203 524.4760131835938 175.84524536132812 523.8284912109375 C 169.11878967285156 522.4852294921875 165.40313720703125 518.9716796875 164.3788604736328 511.8807678222656 C 164.72622680664062 500.550048828125 164.2127227783203 484.9783630371094 162.45272827148438 466.4289855957031 C 158.42413330078125 445.69281005859375 154.08534240722656 424.02142333984375 151.81845092773438 402.1010437011719 C 141.46681213378906 383.0645446777344 132.3670196533203 366.9811706542969 120.81629943847656 355.25885009765625 C 109.68021392822266 349.5538330078125 100.0069808959961 349.4086608886719 92.80695343017578 354.36572265625 C 87.28053283691406 356.6690673828125 87.14979553222656 355.7789611816406 91.42344665527344 350.84417724609375 C 97.78382110595703 343.1548156738281 104.12077331542969 333.3148193359375 109.12784576416016 322.7751159667969 C 111.5078125 312.3352355957031 110.44706726074219 302.81011962890625 106.2778549194336 294.64727783203125 C 99.98294830322266 288.04913330078125 96.13443756103516 282.22344970703125 97.8239974975586 275.32257080078125 C 106.15616607666016 267.550537109375 118.88935852050781 259.9571838378906 133.7646026611328 252.16055297851562 C 148.10084533691406 245.59742736816406 159.60635375976562 242.11703491210938 167.78900146484375 245.1781463623047 C 169.28485107421875 253.03395080566406 165.80548095703125 265.068115234375 161.77261352539062 281.362060546875 C 156.9254608154297 298.995849609375 152.69224548339844 317.1338195800781 151.0494842529297 334.56378173828125 C 152.9445343017578 349.9107360839844 156.05218505859375 361.9430236816406 158.98333740234375 369.89129638671875 C 159.31752014160156 373.09881591796875 159.6122283935547 370.92279052734375 159.988037109375 364.09918212890625 C 161.0006103515625 354.1147766113281 164.23654174804688 341.2550964355469 167.95997619628906 326.833251953125 C 174.23875427246094 313.0960998535156 182.0155792236328 302.0798034667969 187.271728515625 291.8109436035156 C 191.76861572265625 284.84466552734375 195.07041931152344 279.31671142578125 195.8210906982422 273.7879943847656 C 197.28524780273438 267.6179504394531 198.61044311523438 260.7074890136719 203.36444091796875 254.8379364013672 C 210.4515838623047 250.91220092773438 219.3913116455078 250.64254760742188 229.96331787109375 251.7657928466797 C 241.6140899658203 253.0773162841797 253.50244140625 255.92117309570312 265.2606201171875 262.0701599121094 C 275.0897521972656 272.1714172363281 282.9325256347656 285.23529052734375 291.9745788574219 296.50537109375 C 301.4443054199219 305.9512939453125 304.6347351074219 314.0098876953125 312.0804748535156 316.9403381347656 C 314.8005065917969 316.0035705566406 317.48052978515625 312.9149475097656 316.37371826171875 308.6997375488281 C 318.76318359375 304.447509765625 318.7850036621094 299.64605712890625 317.17413330078125 294.25311279296875 C 316.8119201660156 287.07666015625 314.5896301269531 278.4350891113281 309.21392822265625 269.6506042480469 C 303.47613525390625 259.6796569824219 296.8895568847656 248.88784790039062 279.81915283203125 238.41322326660156" stroke-width="0.0" fill="rgb(252, 110, 165)" opacity="0.99996954" stroke="rgb(18, 70, 167)" stroke-opacity="0.20473738" stroke-linecap="round" stroke-linejoin="round"/>
    <path d="M 238.74302673339844 96.56764221191406 C 240.59808349609375 95.6752700805664 241.2086181640625 96.29740905761719 241.8472442626953 96.55758666992188 C 242.71051025390625 96.54912567138672 243.3457794189453 96.61701965332031 243.3897705078125 97.68953704833984 C 243.71658325195312 98.66426849365234 244.44041442871094 99.6030502319336 245.65663146972656 100.25563049316406 C 247.3273162841797 100.99598693847656 250.59190368652344 101.47006225585938 251.82247924804688 103.77113342285156 C 254.20594787597656 106.04693603515625 257.7626037597656 107.29627227783203 261.6249694824219 107.60233306884766 C 266.1705017089844 108.73080444335938 270.7568664550781 109.00325012207031 275.3623352050781 107.26415252685547 C 279.9192810058594 106.99796295166016 284.5116882324219 106.58419799804688 289.0336608886719 106.28376770019531 C 293.92767333984375 106.59423828125 298.23052978515625 106.43604278564453 302.3810729980469 106.60643768310547 C 306.1484375 107.83878326416016 309.71685791015625 109.8864517211914 313.0755615234375 112.7601318359375 C 316.18096923828125 116.37451934814453 319.04376220703125 120.6083755493164 321.86285400390625 125.06106567382812 C 324.9219970703125 129.31338500976562 328.1430969238281 132.53219604492188 332.0234680175781 133.5801544189453 C 336.73248291015625 132.84759521484375 341.2948913574219 132.42349243164062 343.1438293457031 127.57957458496094 C 346.1714172363281 123.53988647460938 346.4513244628906 118.2322006225586 343.2529296875 113.42037200927734 C 342.9676208496094 108.11103820800781 339.84515380859375 104.53398895263672 338.03363037109375 101.31263732910156 C 338.3734130859375 98.28279113769531 339.6259460449219 97.7352523803711 342.6943664550781 99.11864471435547 C 346.6963195800781 100.79915618896484 351.815185546875 104.45159149169922 357.0330505371094 108.6094970703125 C 360.90838623046875 114.65892791748047 364.61981201171875 120.6241226196289 367.7510070800781 126.33306884765625 C 369.27777099609375 133.86553955078125 370.2844543457031 140.89955139160156 369.9380798339844 147.59756469726562 C 369.1966552734375 154.12696838378906 368.708251953125 160.2976531982422 367.46044921875 166.89987182617188 C 365.49774169921875 173.45236206054688 361.3332214355469 179.54994201660156 358.042236328125 185.7251434326172 C 354.0546875 191.14749145507812 348.69873046875 196.68023681640625 343.18353271484375 201.97767639160156 C 338.5450134277344 207.6185760498047 333.0744323730469 212.25335693359375 327.0516662597656 214.77647399902344 C 321.5718688964844 218.0436248779297 316.6270751953125 221.0784912109375 311.6454162597656 224.8355712890625 C 305.5906066894531 226.25315856933594 299.9385986328125 228.45834350585938 295.14031982421875 232.51869201660156 C 290.1653747558594 233.98965454101562 287.1425476074219 237.6477813720703 287.2151184082031 242.74319458007812 C 289.69354248046875 248.68406677246094 293.56304931640625 254.6533660888672 297.6851806640625 259.88848876953125 C 301.0677795410156 264.3275146484375 303.5881652832031 266.6669921875 304.5965576171875 266.97113037109375 C 303.87066650390625 265.33624267578125 301.312255859375 262.2882995605469 297.5756530761719 258.3460998535156 C 293.0446472167969 254.45562744140625 288.29217529296875 251.26866149902344 283.909912109375 249.43601989746094 C 280.3072509765625 249.43490600585938 277.7601013183594 251.1705322265625 276.06671142578125 254.36817932128906 C 275.1434631347656 258.2461853027344 274.7255554199219 262.1615905761719 274.2946472167969 265.4501037597656 C 273.2916564941406 267.3536376953125 271.4737548828125 267.5699157714844 268.7377014160156 265.3645935058594 C 264.8073425292969 261.42816162109375 259.1845703125 258.699462890625 252.91189575195312 255.3074493408203 C 245.39041137695312 253.26455688476562 238.77818298339844 251.49984741210938 232.8791046142578 249.90916442871094 C 227.7836151123047 247.8722381591797 222.95138549804688 247.53079223632812 218.49740600585938 247.17398071289062 C 214.07293701171875 248.2539825439453 209.74041748046875 250.93185424804688 204.82899475097656 253.8497772216797 C 200.94500732421875 257.6600036621094 197.50794982910156 261.4330139160156 194.71502685546875 264.5858154296875 C 192.8369903564453 266.79541015625 192.1604461669922 267.8345642089844 192.90003967285156 267.4717712402344 C 194.8734588623047 265.6310119628906 197.9737548828125 262.5202941894531 201.24119567871094 257.00201416015625 C 205.33876037597656 253.44349670410156 208.84800720214844 248.81390380859375 211.21304321289062 243.90213012695312 C 209.5384521484375 240.46853637695312 205.30882263183594 237.35289001464844 199.81375122070312 235.392333984375 C 193.904296875 231.2662353515625 185.84500122070312 228.0640106201172 178.8914031982422 223.57138061523438 C 171.4995574951172 218.85435485839844 164.14601135253906 214.3295440673828 158.29090881347656 207.5310516357422 C 152.35337829589844 202.52708435058594 148.60452270507812 195.96490478515625 145.40216064453125 189.61465454101562 C 145.84654235839844 180.73817443847656 146.03392028808594 173.9182586669922 146.7039337158203 166.0267333984375 C 146.63096618652344 160.27015686035156 149.06663513183594 153.8081817626953 152.3396759033203 148.9083251953125 C 156.73695373535156 146.59335327148438 158.20530700683594 142.9420928955078 158.78334045410156 139.40887451171875 C 162.6081085205078 138.70448303222656 165.0424041748047 137.65008544921875 168.58534240722656 139.10597229003906 C 170.9324493408203 137.1265106201172 174.84584045410156 136.52542114257812 179.5565185546875 135.67864990234375 C 185.35562133789062 136.02737426757812 191.2663116455078 135.1877899169922 197.43972778320312 134.42762756347656 C 203.30105590820312 134.13587951660156 208.6531219482422 134.95635986328125 213.23963928222656 136.77542114257812 C 216.6648712158203 139.9923858642578 218.98605346679688 144.0368194580078 220.31532287597656 148.38714599609375 C 221.09036254882812 152.83346557617188 221.75344848632812 157.03646850585938 222.8568878173828 160.2332763671875 C 226.2230224609375 161.17405700683594 230.35650634765625 160.57009887695312 234.34359741210938 157.83956909179688 C 238.88731384277344 157.19195556640625 242.2189178466797 153.8428497314453 245.28793334960938 150.35740661621094 C 245.55221557617188 146.73036193847656 244.72311401367188 143.14773559570312 243.14675903320312 139.67562866210938 C 241.09373474121094 136.4727783203125 238.9755859375 133.63165283203125 237.2690887451172 130.86795043945312 C 235.3227081298828 128.14772033691406 235.63894653320312 125.07421875 235.81582641601562 120.2387466430664 C 237.1936492919922 116.5386734008789 240.1656036376953 113.31782531738281 244.83663940429688 110.86983489990234 C 244.75001525878906 104.82777404785156 246.77828979492188 100.13249969482422 238.74302673339844 96.56764221191406" stroke-width="0.0" fill="rgb(249, 187, 106)" opacity="0.99955267" stroke="rgb(106, 3, 40)" stroke-opacity="0.55238646" stroke-linecap="round" stroke-linejoin="round"/>
    <path d="M 171.7725830078125 238.8757781982422 C 176.17169189453125 238.86634826660156 180.3661651611328 238.3177947998047 184.29164123535156 239.1386260986328 C 187.80319213867188 241.84164428710938 190.69158935546875 246.314453125 192.53175354003906 252.8466339111328 C 192.72618103027344 261.3150939941406 191.1713104248047 271.72186279296875 187.54981994628906 283.6412048339844 C 182.1802215576172 296.30157470703125 175.6302032470703 309.0640869140625 168.5498809814453 321.2960510253906 C 161.48654174804688 332.5833435058594 155.10855102539062 342.91888427734375 149.92111206054688 352.02398681640625 C 146.48886108398438 360.1033935546875 145.11114501953125 367.19744873046875 146.38409423828125 373.42889404296875 C 150.58560180664062 378.6159362792969 157.72964477539062 382.7064208984375 168.06407165527344 385.3800048828125 C 181.0691680908203 386.7811279296875 195.7082061767578 387.4082336425781 211.0985107421875 386.2869873046875 C 226.23883056640625 384.77520751953125 239.68589782714844 383.5364685058594 250.01527404785156 381.87451171875 C 256.9439392089844 382.7536315917969 259.2353210449219 382.91534423828125 257.42327880859375 383.1361999511719 C 253.669189453125 382.0432434082031 250.24124145507812 381.2441101074219 249.0244598388672 378.01824951171875 C 251.3700408935547 375.9759826660156 257.4132995605469 376.5380554199219 266.61370849609375 376.3016662597656 C 277.7242126464844 376.2088317871094 289.0838623046875 378.6864013671875 298.3007507324219 384.763671875 C 305.3922119140625 393.2031555175781 309.755615234375 403.03924560546875 310.9864501953125 414.90814208984375 C 309.3470764160156 427.7396240234375 305.0381774902344 440.56341552734375 299.26287841796875 452.37371826171875 C 292.535400390625 462.3199768066406 285.3115234375 469.85150146484375 279.1394958496094 475.8066711425781 C 270.90460205078125 479.3625793457031 264.1495361328125 480.6481018066406 258.77154541015625 483.2490234375 C 254.91551208496094 483.4447937011719 253.21356201171875 485.3899841308594 254.21583557128906 488.02813720703125 C 257.03582763671875 489.7990417480469 262.5597839355469 492.6187438964844 269.8110046386719 494.18310546875 C 277.34808349609375 497.3773498535156 282.9810791015625 499.69171142578125 285.2511291503906 503.7458801269531 C 281.619384765625 511.3171081542969 273.3920593261719 523.7498168945312 267.2478332519531 535.9950561523438 C 268.5493469238281 559.1873168945312 278.4173278808594 575.4512939453125 296.6786804199219 580.5940551757812 C 312.2087707519531 582.4326171875 320.1625061035156 582.1317138671875 320.1705322265625 583.5634155273438 C 310.8285217285156 583.3535766601562 301.13775634765625 582.879638671875 288.0870056152344 580.0162353515625 C 278.05047607421875 571.3030395507812 270.6247253417969 558.7692260742188 267.946533203125 543.6865234375 C 267.5329895019531 530.6552734375 260.0475158691406 523.0686645507812 252.01321411132812 517.9024047851562 C 247.08457946777344 510.0994567871094 243.17752075195312 500.4820251464844 243.09954833984375 488.4964904785156 C 241.32708740234375 475.5654296875 236.6107177734375 464.3052062988281 230.26959228515625 456.4842834472656 C 223.26075744628906 456.7659912109375 216.5090789794922 463.544189453125 211.93406677246094 475.5889587402344 C 208.64324951171875 490.0496520996094 209.1261749267578 506.8005065917969 211.1166229248047 523.9434204101562 C 213.47459411621094 540.8693237304688 214.50892639160156 556.1195068359375 213.38381958007812 568.9805297851562 C 206.88377380371094 577.7568359375 196.30392456054688 583.9508056640625 182.55841064453125 586.9713745117188 C 167.87368774414062 587.4451904296875 153.08197021484375 585.6329345703125 139.47361755371094 584.4491577148438 C 131.30392456054688 578.3397827148438 126.57183837890625 573.7109375 126.61846160888672 568.7435302734375 C 128.96229553222656 564.6589965820312 130.76771545410156 562.102783203125 131.1168975830078 561.605712890625 C 129.63446044921875 563.3478393554688 127.50519561767578 567.61669921875 127.86888885498047 573.2478637695312 C 132.42140197753906 581.4632568359375 144.61366271972656 586.1353149414062 160.6658935546875 588.492919921875 C 178.5737762451172 586.9248657226562 196.64419555664062 582.2061767578125 211.07981872558594 573.3357543945312 C 217.0193328857422 562.3154296875 216.00538635253906 547.59716796875 213.46737670898438 534.5259399414062 C 206.76084899902344 527.5956420898438 196.71005249023438 524.3574829101562 187.75880432128906 525.2059936523438 C 178.63372802734375 525.1346435546875 171.46661376953125 524.8121337890625 166.8497772216797 521.9498901367188 C 164.80291748046875 515.2108154296875 164.3108367919922 505.7289123535156 165.18663024902344 493.46234130859375 C 165.56101989746094 479.2479248046875 165.2649383544922 463.77276611328125 163.8506622314453 447.61773681640625 C 161.32559204101562 431.4176025390625 157.6118621826172 415.6258544921875 152.8358917236328 400.5069580078125 C 146.68235778808594 386.0825500488281 139.16368103027344 373.00347900390625 130.51596069335938 361.5184326171875 C 120.61151123046875 353.3086242675781 109.6329345703125 349.2486572265625 97.52584075927734 351.0360412597656 C 86.13453674316406 357.023193359375 75.33112335205078 364.73480224609375 66.45414733886719 373.87689208984375 C 56.48430633544922 380.94256591796875 48.03470993041992 385.76995849609375 39.32200241088867 388.43145751953125 C 31.42560577392578 388.84161376953125 24.584537506103516 386.8605651855469 19.153728485107422 382.57025146484375 C 15.452589988708496 376.1300354003906 13.81795883178711 368.5451965332031 14.69297981262207 360.106201171875 C 19.012319564819336 352.0127258300781 25.864593505859375 343.6421813964844 32.891536712646484 338.7265319824219 C 45.31522750854492 333.01263427734375 57.008201599121094 326.8570251464844 69.16477966308594 317.63946533203125 C 80.94200134277344 308.0790710449219 90.98701477050781 299.7244567871094 100.09368133544922 294.39691162109375 C 107.8572998046875 295.27410888671875 110.55753326416016 300.81683349609375 112.27104187011719 310.4959411621094 C 112.12358856201172 320.4913635253906 112.57203674316406 329.33026123046875 112.55619812011719 336.7190246582031 C 113.2235336303711 340.942626953125 117.16474914550781 342.6103210449219 122.6900863647461 342.0303955078125 C 129.5094451904297 339.33575439453125 137.3349151611328 334.76580810546875 145.49038696289062 328.712890625 C 153.09815979003906 321.33984375 159.27952575683594 312.33148193359375 162.74205017089844 301.0374755859375 C 166.69192504882812 289.50494384765625 169.43983459472656 276.8394470214844 171.61224365234375 263.7099304199219 C 173.45657348632812 250.42921447753906 175.2200927734375 236.43133544921875 171.7725830078125 238.8757781982422" stroke-width="0.0" fill="rgb(247, 202, 101)" opacity="0.9996923" stroke="rgb(101, 210, 245)" stroke-opacity="0.5532081" stroke-linecap="round" stroke-linejoin="round"/>
    <path d="M 151.84375 322.2292785644531 C 152.878662109375 322.1152038574219 154.00537109375 321.9847412109375 155.11378479003906 321.899169921875 C 156.04026794433594 321.9534606933594 156.84915161132812 322.2342529296875 157.4642791748047 322.66778564453125 C 157.8184814453125 323.3032531738281 158.0309600830078 324.04681396484375 158.03602600097656 324.8960266113281 C 158.00563049316406 325.7980041503906 157.8476104736328 326.67388916015625 157.7334442138672 327.54522705078125 C 157.725830078125 328.35980224609375 157.52230834960938 329.065185546875 157.21055603027344 329.8336181640625 C 156.89422607421875 330.8125 156.2547149658203 331.94891357421875 155.38278198242188 333.4698791503906 C 154.31500244140625 335.6108703613281 152.8984375 338.4783630371094 151.44537353515625 342.0824279785156 C 150.08148193359375 346.53985595703125 148.84593200683594 351.7636413574219 147.95358276367188 357.5542907714844 C 147.5114288330078 363.6678771972656 147.44622802734375 369.8658447265625 147.90725708007812 375.7928771972656 C 148.64126586914062 381.1104736328125 149.71583557128906 385.476318359375 151.10397338867188 388.7320251464844 C 152.68905639648438 390.7003173828125 154.59852600097656 391.3477783203125 156.66006469726562 390.2032165527344 C 159.40744018554688 388.79931640625 162.74400329589844 386.88873291015625 165.9436492919922 384.0945739746094 C 170.35525512695312 382.5595703125 175.52972412109375 380.99365234375 180.23883056640625 379.90185546875 C 186.27247619628906 380.1449279785156 191.82164001464844 379.7761535644531 196.42710876464844 382.0407409667969 C 201.765869140625 383.3479309082031 206.79763793945312 384.3280029296875 211.74456787109375 384.71533203125 C 216.79696655273438 385.8910827636719 221.9362030029297 386.8845520019531 227.5574188232422 386.8560485839844 C 233.31040954589844 387.79266357421875 239.46632385253906 388.5259094238281 245.8395538330078 389.19488525390625 C 252.3456573486328 389.7352294921875 258.9764099121094 389.94659423828125 265.3063049316406 389.6164245605469 C 271.2238464355469 388.2485046386719 277.9419860839844 387.255615234375 283.77410888671875 385.5971984863281 C 289.54522705078125 383.6016845703125 294.86962890625 382.2376403808594 299.6417541503906 380.4747009277344 C 303.89666748046875 379.8164978027344 307.61724853515625 381.0062561035156 312.32916259765625 382.53802490234375 C 313.6097412109375 385.3278503417969 313.7478332519531 389.97271728515625 313.9311828613281 395.26641845703125 C 313.7847900390625 400.9538269042969 312.9942626953125 407.138916015625 311.7202453613281 413.7435607910156 C 310.29449462890625 420.4599609375 308.38653564453125 427.21319580078125 307.6523742675781 434.4850158691406 C 305.1092529296875 440.1394348144531 304.1241455078125 447.0008544921875 302.3736267089844 452.7477722167969 C 300.43280029296875 457.9444274902344 298.12164306640625 462.295166015625 295.8082275390625 466.3517761230469 C 292.42181396484375 468.4180908203125 288.9320068359375 470.173828125 285.2284851074219 471.3205261230469 C 281.0474548339844 471.6255798339844 276.42169189453125 471.15252685546875 271.75286865234375 470.3278503417969 C 266.5424499511719 469.8294372558594 261.3591613769531 469.5510559082031 257.1143798828125 469.2760009765625 C 253.19345092773438 468.29718017578125 249.71951293945312 468.9524841308594 246.98550415039062 470.043212890625 C 245.0529327392578 471.63671875 243.76490783691406 473.206787109375 242.9380340576172 474.4151306152344 C 242.44186401367188 474.9949645996094 242.03013610839844 474.6732177734375 241.44505310058594 473.522705078125 C 240.55995178222656 471.5184020996094 239.3012237548828 468.80401611328125 237.61923217773438 465.828125 C 235.5691680908203 463.0664367675781 233.14053344726562 460.99072265625 230.3831787109375 460.06060791015625 C 227.533203125 460.76177978515625 224.78030395507812 463.046630859375 222.3085174560547 467.0552978515625 C 218.96607971191406 471.59466552734375 216.2623291015625 476.9533386230469 214.16651916503906 482.4073486328125 C 212.522216796875 487.2272033691406 211.6261444091797 491.0558776855469 211.320556640625 493.6204833984375 C 211.5646514892578 494.5807800292969 212.182373046875 493.9082336425781 212.93435668945312 491.8228759765625 C 213.63140869140625 488.77301025390625 213.92987060546875 484.9902648925781 213.3924560546875 480.6469421386719 C 212.3160400390625 476.38592529296875 209.19528198242188 473.0561218261719 203.79574584960938 471.4346618652344 C 197.9493408203125 469.8245544433594 191.91612243652344 468.8614196777344 185.69882202148438 469.58349609375 C 179.47845458984375 469.83404541015625 173.7408447265625 470.3218994140625 169.27439880371094 472.8606262207031 C 166.84292602539062 477.8106384277344 165.2167510986328 482.89678955078125 164.59703063964844 487.9070739746094 C 164.55908203125 492.3230285644531 164.89913940429688 495.6800231933594 165.37220764160156 497.6341247558594 C 165.70303344726562 497.8002624511719 165.82798767089844 496.23858642578125 165.6744384765625 493.18695068359375 C 165.22015380859375 488.7867126464844 164.4473876953125 483.395263671875 164.08290100097656 477.19805908203125 C 162.74436950683594 470.7831115722656 160.81089782714844 464.3400573730469 159.3382110595703 458.027587890625 C 159.7516326904297 450.974365234375 159.0908203125 444.64044189453125 158.03146362304688 437.98345947265625 C 156.62619018554688 432.8646545410156 157.66763305664062 426.8309631347656 156.76834106445312 421.3197326660156 C 155.8214111328125 415.97247314453125 154.8553009033203 410.47283935546875 153.5974578857422 404.9247741699219 C 152.05091857910156 399.3541564941406 150.07395935058594 393.66705322265625 147.6845245361328 388.0486145019531 C 144.85897827148438 382.47393798828125 141.4962921142578 376.846923828125 137.73703002929688 371.37841796875 C 133.3747100830078 366.2298278808594 128.6356658935547 361.5044250488281 123.39934539794922 357.57489013671875 C 117.9391860961914 354.4965515136719 112.47831726074219 351.9727783203125 107.85741424560547 349.62646484375 C 102.250732421875 350.59405517578125 98.28763580322266 350.6417236328125 95.4139175415039 351.02069091796875 C 93.93860626220703 351.3992919921875 93.9180679321289 351.36712646484375 95.3672103881836 350.9693908691406 C 98.23799896240234 349.7671203613281 102.23335266113281 348.12396240234375 107.11676025390625 346.0472412109375 C 112.78309631347656 343.62823486328125 118.61347961425781 340.95947265625 124.67124938964844 338.18365478515625 C 130.57289123535156 335.43927001953125 136.35169982910156 332.8324279785156 141.9386444091797 330.3271179199219 C 147.40457153320312 327.8577880859375 152.8923797607422 325.4317932128906 151.84375 322.2292785644531" stroke-width="0.0" fill="rgb(242, 78, 7)" opacity="0.9998926" stroke="rgb(12, 185, 152)" stroke-opacity="0.1597591" stroke-linecap="round" stroke-linejoin="round"/>
    <path d="M 323.68988037109375 221.53384399414062 C 318.2662048339844 223.3983917236328 312.3126220703125 224.0363006591797 306.002197265625 226.13845825195312 C 299.0732727050781 228.26675415039062 293.4108581542969 231.91957092285156 289.94647216796875 239.26126098632812 C 291.4750671386719 248.71035766601562 295.8786926269531 262.2312316894531 304.7844543457031 275.9165344238281 C 312.6717224121094 291.9764099121094 318.8255615234375 310.18817138671875 322.31829833984375 329.49835205078125 C 321.8165588378906 350.01190185546875 319.26141357421875 369.51947021484375 314.00189208984375 389.26043701171875 C 307.7686767578125 409.6022644042969 300.1886901855469 429.6824951171875 291.2483825683594 449.5166015625 C 286.5461120605469 470.9673156738281 282.35345458984375 491.2477111816406 282.6780700683594 511.18377685546875 C 288.2189636230469 527.1256103515625 300.1712951660156 537.3367919921875 314.8741455078125 546.4176635742188 C 325.7481689453125 556.2298583984375 330.0206298828125 562.5234985351562 323.9969177246094 570.9537963867188 C 307.7928161621094 574.9451293945312 290.8178405761719 581.7836303710938 270.9508972167969 580.5689086914062 C 251.8053436279297 576.0947875976562 239.79331970214844 566.3926391601562 236.82684326171875 549.3031616210938 C 238.5152587890625 527.2388916015625 242.0494842529297 503.6814270019531 242.51272583007812 481.92803955078125 C 239.9589385986328 465.3381652832031 233.23915100097656 457.5183410644531 224.29908752441406 461.380859375 C 215.031982421875 474.7663269042969 211.4716033935547 495.4033508300781 211.80003356933594 518.4015502929688 C 215.40264892578125 541.4724731445312 216.47238159179688 561.5338745117188 210.17535400390625 576.57470703125 C 192.8445587158203 582.6053466796875 174.0869903564453 589.1980590820312 153.81060791015625 590.2091064453125 C 137.41506958007812 586.265380859375 127.7455825805664 579.2728271484375 127.7997817993164 569.0313720703125 C 137.1390380859375 557.8179931640625 151.543212890625 546.11376953125 163.1738739013672 530.8695678710938 C 166.45721435546875 511.3133850097656 167.49249267578125 490.0360412597656 166.31797790527344 468.8814697265625 C 162.12335205078125 447.67547607421875 158.53741455078125 424.50970458984375 153.28041076660156 402.0832214355469 C 146.2420654296875 379.368896484375 135.62611389160156 358.266357421875 121.42937469482422 337.8017272949219 C 102.33908081054688 322.22564697265625 84.04390716552734 314.99627685546875 66.95381164550781 327.25274658203125 C 47.76374435424805 347.25921630859375 33.00597381591797 365.9495544433594 23.39507293701172 380.0762023925781 C 18.552894592285156 388.5347900390625 16.913677215576172 390.2794494628906 16.10649299621582 388.1062316894531 C 17.240049362182617 385.3139343261719 21.35507583618164 382.52679443359375 27.81594467163086 374.6238708496094 C 36.82823944091797 361.38226318359375 49.922542572021484 344.89862060546875 65.09395599365234 329.8849182128906 C 78.97723388671875 320.6419677734375 82.80415344238281 317.179931640625 79.8906478881836 316.9518737792969 C 84.5009994506836 320.06488037109375 101.50434112548828 324.32330322265625 118.31560516357422 330.71112060546875 C 134.93145751953125 332.0884704589844 146.8141326904297 327.4878845214844 154.73031616210938 316.84600830078125 C 159.5200958251953 299.4798889160156 165.7361602783203 283.6505126953125 168.31387329101562 265.9010925292969 C 174.945556640625 254.62547302246094 181.37008666992188 245.4789276123047 190.7495574951172 242.5034942626953 C 199.8689727783203 242.1693115234375 205.9555206298828 243.73153686523438 210.3312530517578 245.30455017089844 C 209.96005249023438 246.4419403076172 206.55332946777344 250.78111267089844 200.09393310546875 258.4125061035156 C 196.6812744140625 271.07452392578125 189.20372009277344 286.24371337890625 180.75607299804688 301.8759460449219 C 171.42526245117188 317.5328063964844 164.38941955566406 333.18328857421875 158.58078002929688 348.9388732910156 C 155.13352966308594 365.1342468261719 154.41403198242188 382.105712890625 153.82525634765625 400.67010498046875 C 156.9906005859375 420.69244384765625 162.59117126464844 441.6742248535156 164.3574676513672 463.7396545410156 C 163.49810791015625 484.9490966796875 162.57061767578125 503.070556640625 163.67562866210938 516.7062377929688 C 167.8268280029297 524.982177734375 171.93663024902344 527.8650512695312 173.0604705810547 527.1668701171875 C 170.836669921875 526.6411743164062 164.543212890625 528.638671875 157.08726501464844 536.7007446289062 C 147.6914520263672 549.027099609375 136.5446319580078 560.6051635742188 127.94091033935547 570.3607177734375 C 128.25164794921875 578.7593383789062 135.920654296875 583.0418701171875 149.8433074951172 586.2952270507812 C 165.75331115722656 586.4129028320312 182.4390411376953 587.2662353515625 197.04136657714844 585.0387573242188 C 208.42503356933594 579.4205932617188 214.7071990966797 569.6486206054688 215.6758270263672 554.9387817382812 C 212.89683532714844 536.4199829101562 210.98538208007812 515.9976196289062 211.53793334960938 495.6431884765625 C 216.19190979003906 477.22210693359375 221.2724151611328 463.1756591796875 228.26498413085938 456.2219543457031 C 236.90065002441406 459.0897521972656 242.79025268554688 469.7932434082031 246.5330352783203 485.36981201171875 C 245.02842712402344 501.94573974609375 240.2897491455078 519.2654418945312 235.03924560546875 535.6421508789062 C 232.60659790039062 549.9142456054688 234.73382568359375 562.7392578125 244.2372283935547 570.2514038085938 C 265.51141357421875 573.2634887695312 288.17987060546875 577.099365234375 309.8408508300781 579.0791625976562 C 324.21783447265625 573.934814453125 330.1083984375 566.883056640625 324.7892150878906 556.9236450195312 C 316.07635498046875 545.4950561523438 302.1268310546875 537.1326904296875 291.4820861816406 526.3540649414062 C 285.27679443359375 513.9893188476562 282.0819091796875 501.7145080566406 280.66546630859375 490.6117858886719 C 280.09136962890625 480.78851318359375 281.7355041503906 471.3674011230469 286.2447204589844 461.4076843261719 C 290.8304443359375 449.55682373046875 297.5248718261719 436.106201171875 303.58001708984375 419.6222839355469 C 310.5860900878906 401.6174011230469 316.4789733886719 382.6058654785156 319.6829528808594 362.1418762207031 C 319.0287780761719 343.4320373535156 312.5121765136719 325.2027587890625 302.15252685546875 308.4508972167969 C 289.926025390625 293.7828369140625 279.4068908691406 278.33795166015625 273.15814208984375 264.814208984375 C 270.9577331542969 254.00234985351562 271.5433044433594 245.31248474121094 279.7222595214844 238.87022399902344 C 290.8277282714844 234.03189086914062 300.6454772949219 228.77352905273438 323.68988037109375 221.53384399414062" stroke-width="0.0" fill="rgb(203, 168, 194)" opacity="0.99966264" stroke="rgb(169, 68, 231)" stroke-opacity="0.9075586" stroke-linecap="round" stroke-linejoin="round"/>
    <path d="M 289.3636779785156 15.382248878479004 C 290.0613098144531 14.985065460205078 290.8209228515625 14.6401948928833 291.58880615234375 14.356888771057129 C 292.4102783203125 14.20405387878418 293.327880859375 14.309964179992676 294.38128662109375 14.732858657836914 C 295.6528625488281 15.54314136505127 297.1920471191406 16.821916580200195 298.9794921875 18.594022750854492 C 300.9361877441406 20.8737735748291 303.1038818359375 23.664817810058594 305.4486083984375 26.909696578979492 C 307.8727722167969 30.49256134033203 310.225341796875 34.33443069458008 312.47113037109375 38.32757568359375 C 314.6494445800781 42.35215377807617 316.77386474609375 46.275733947753906 318.87200927734375 49.982566833496094 C 321.0069274902344 53.46396255493164 323.235595703125 56.691837310791016 325.4837646484375 59.58946990966797 C 327.6314697265625 62.235904693603516 329.5478515625 64.66818237304688 331.0671081542969 66.80584716796875 C 331.9325256347656 68.79412078857422 331.8868103027344 70.6357192993164 330.86334228515625 72.39208984375 C 328.8734130859375 74.08979797363281 326.05535888671875 75.71448516845703 322.7207336425781 77.36917114257812 C 319.1736145019531 79.10641479492188 315.6742858886719 80.91815185546875 312.3438720703125 82.80134582519531 C 309.220947265625 84.81683349609375 306.3143615722656 86.9601058959961 303.5597839355469 89.11024475097656 C 300.774169921875 91.14218139648438 297.7851867675781 92.99765014648438 294.4681396484375 94.58995819091797 C 290.70550537109375 95.71002197265625 286.5567932128906 96.2634506225586 282.0071105957031 96.14988708496094 C 277.2189636230469 95.25926971435547 272.27606201171875 93.67508697509766 267.2687683105469 91.54784393310547 C 262.2438049316406 89.03746032714844 257.20159912109375 86.35655212402344 252.18113708496094 83.75208282470703 C 247.25131225585938 81.56755828857422 242.53822326660156 80.02195739746094 238.16456604003906 79.33020782470703 C 234.24688720703125 79.5624008178711 230.88902282714844 80.74493408203125 228.2044219970703 82.8724365234375 C 226.2689666748047 85.84952545166016 225.01736450195312 89.50617218017578 224.24859619140625 93.57503509521484 C 223.7709197998047 97.71222686767578 223.31582641601562 101.61825561523438 222.65419006347656 105.03559112548828 C 221.50428771972656 107.66405487060547 219.62310791015625 109.54158782958984 216.93069458007812 110.72733306884766 C 213.38619995117188 111.34021759033203 209.0518798828125 111.55083465576172 204.0859832763672 111.53914642333984 C 198.697021484375 111.45453643798828 193.10299682617188 111.29813385009766 187.44642639160156 111.05792236328125 C 181.8288116455078 110.7201156616211 176.35279846191406 110.28216552734375 171.0387420654297 109.89281463623047 C 165.96688842773438 109.70996856689453 161.08126831054688 109.95989990234375 156.59555053710938 110.83451843261719 C 152.5591278076172 112.46025085449219 149.16864013671875 114.87477111816406 146.4723358154297 118.10981750488281 C 144.49440002441406 121.99476623535156 143.17030334472656 126.18220520019531 142.19839477539062 130.40199279785156 C 141.38739013671875 134.38223266601562 140.48504638671875 137.80819702148438 139.35137939453125 140.52027893066406 C 137.927978515625 142.63182067871094 136.21099853515625 144.33213806152344 134.31471252441406 146.0697784423828 C 132.3720703125 148.20794677734375 130.60069274902344 150.9766387939453 129.2178955078125 154.511474609375 C 128.26983642578125 158.7709197998047 127.64398193359375 163.5512237548828 127.16636657714844 168.50115966796875 C 126.64722442626953 173.3834686279297 125.86064910888672 177.90054321289062 124.54785919189453 181.83682250976562 C 122.5146255493164 185.11585998535156 119.62164306640625 187.69024658203125 115.75227355957031 189.61268615722656 C 110.99214172363281 190.9535369873047 105.47213745117188 191.7180633544922 99.45765686035156 191.96783447265625 C 93.27169799804688 191.7538604736328 87.1324234008789 191.02789306640625 81.28112030029297 189.7309112548828 C 76.0391616821289 187.85922241210938 71.64656829833984 185.5184783935547 68.25225830078125 182.735107421875 C 65.95278930664062 179.54922485351562 64.81583404541016 176.12794494628906 64.7627944946289 172.5723114013672 C 65.73187255859375 169.00396728515625 67.43486022949219 165.43165588378906 69.61444091796875 161.8659210205078 C 71.98173522949219 158.1803436279297 74.31658935546875 154.346923828125 76.43148803710938 150.32241821289062 C 78.23637390136719 146.04898071289062 79.76443481445312 141.5228271484375 81.07160186767578 136.78660583496094 C 82.218505859375 131.93801879882812 83.41056823730469 127.06147003173828 84.83846282958984 122.32017517089844 C 86.6001968383789 117.92787170410156 88.82559967041016 113.89521789550781 91.416748046875 110.29193878173828 C 94.1929931640625 107.04299926757812 97.06546020507812 104.10022735595703 99.95770263671875 101.40230560302734 C 102.75639343261719 98.83011627197266 105.48149871826172 96.25276947021484 108.09147644042969 93.5976791381836 C 110.55962371826172 90.81334686279297 113.05778503417969 87.8798599243164 115.66531372070312 84.78946685791016 C 118.50471496582031 81.5487289428711 121.56075286865234 78.24590301513672 124.78278350830078 74.93212127685547 C 128.1624755859375 71.61644744873047 131.67233276367188 68.27728271484375 135.32781982421875 64.92110443115234 C 138.98146057128906 61.58155822753906 142.62094116210938 58.23640060424805 146.22398376464844 54.77133560180664 C 149.67259216308594 51.21697998046875 153.0166778564453 47.643470764160156 156.26632690429688 44.092220306396484 C 159.43482971191406 40.684757232666016 162.55282592773438 37.723331451416016 165.69114685058594 35.435787200927734 C 168.9097442626953 33.944847106933594 172.27749633789062 33.321285247802734 175.8476104736328 33.6622200012207 C 179.61251831054688 34.85611343383789 183.51869201660156 36.68339538574219 187.58676147460938 38.92277145385742 C 191.85855102539062 41.335296630859375 196.3231201171875 43.63636016845703 200.91519165039062 45.54609298706055 C 205.5269775390625 46.835811614990234 210.03231811523438 47.331207275390625 214.36175537109375 46.8885498046875 C 218.49551391601562 45.48521041870117 222.35218811035156 43.23067092895508 225.91952514648438 40.340614318847656 C 229.25486755371094 36.976783752441406 232.44276428222656 33.396522521972656 235.5756072998047 29.9299259185791 C 238.71914672851562 26.714082717895508 241.9870147705078 23.836471557617188 245.61871337890625 21.439470291137695 C 249.6798553466797 19.575645446777344 254.22659301757812 18.207355499267578 259.2318420410156 17.26438331604004 C 264.62799072265625 16.686948776245117 270.3620300292969 16.3747615814209 276.346923828125 16.222171783447266 C 282.44866943359375 16.114940643310547 288.6229248046875 16.054155349731445 289.3636779785156 15.382248878479004" stroke-width="0.0" fill="rgb(61, 39, 36)" opacity="0.99952465" stroke="rgb(236, 166, 247)" stroke-opacity="0.77848464" stroke-linecap="round" stroke-linejoin="round"/>
    <path d="M 437.28125 284.65924072265625 C 437.12506103515625 285.92230224609375 436.9264221191406 287.17388916015625 436.7470397949219 288.3958435058594 C 436.5871276855469 289.6212463378906 436.4456787109375 290.7802429199219 436.3708801269531 291.81976318359375 C 436.4088134765625 292.7171630859375 436.5789489746094 293.44903564453125 436.9277038574219 293.943359375 C 437.4762268066406 294.1807556152344 438.1255187988281 294.1884460449219 438.8275451660156 294.0463562011719 C 439.5038757324219 293.8095703125 440.1202087402344 293.5658264160156 440.612060546875 293.4566345214844 C 441.0029296875 293.57257080078125 441.3034362792969 293.9454345703125 441.53472900390625 294.6218566894531 C 441.76629638671875 295.6255187988281 442.0503234863281 296.94390869140625 442.4922180175781 298.4652404785156 C 443.15496826171875 300.12359619140625 444.0799865722656 301.8006286621094 445.3131103515625 303.393310546875 C 446.8539123535156 304.8713684082031 448.5726013183594 306.1668395996094 450.4569091796875 307.2130432128906 C 452.36767578125 308.0610656738281 454.1534423828125 308.76397705078125 455.7480163574219 309.299560546875 C 457.10052490234375 309.7693176269531 458.1288146972656 310.2490234375 458.859619140625 310.7655944824219 C 459.3881530761719 311.4278869628906 459.7359924316406 312.2113037109375 460.00335693359375 313.093505859375 C 460.30401611328125 314.07086181640625 460.6697998046875 315.0598449707031 461.08197021484375 316.00958251953125 C 461.5096130371094 316.86016845703125 461.9051818847656 317.5153503417969 462.063232421875 317.93780517578125 C 461.9342346191406 318.1283874511719 461.3728942871094 318.15234375 460.3282775878906 318.0021667480469 C 458.861328125 317.7591857910156 457.0391845703125 317.5076904296875 455.0314636230469 317.3892822265625 C 453.0913391113281 317.5359191894531 451.4245910644531 318.0268859863281 450.26324462890625 318.9273681640625 C 449.86993408203125 320.2524719238281 450.3388671875 321.9206848144531 451.577392578125 323.8170471191406 C 453.3489990234375 325.8096618652344 455.3049621582031 327.6834716796875 457.0797424316406 329.2607421875 C 458.31195068359375 330.4654235839844 458.69073486328125 331.224853515625 458.1858825683594 331.4402160644531 C 456.79632568359375 331.17620849609375 454.7378234863281 330.55328369140625 452.22967529296875 329.71185302734375 C 449.51019287109375 328.7804870605469 446.8238525390625 327.9009094238281 444.3269348144531 327.2514953613281 C 442.1072082519531 326.9426574707031 440.24432373046875 327.0538330078125 438.755126953125 327.5603942871094 C 437.58514404296875 328.4041748046875 436.70025634765625 329.527099609375 436.0270690917969 330.8966369628906 C 435.5735168457031 332.4024353027344 435.33477783203125 333.99603271484375 435.33612060546875 335.66302490234375 C 435.5474853515625 337.40216064453125 435.9909973144531 339.18487548828125 436.60986328125 341.0039367675781 C 437.33477783203125 342.87713623046875 438.1211853027344 344.7811279296875 438.9290771484375 346.6261901855469 C 439.6629638671875 348.3602600097656 440.160888671875 349.8525695800781 440.31158447265625 350.9307556152344 C 440.010009765625 351.5366516113281 439.1824035644531 351.6220397949219 437.85150146484375 351.1337890625 C 436.06646728515625 350.1859130859375 433.9412841796875 348.8186340332031 431.5765686035156 347.1262512207031 C 429.09234619140625 345.2167053222656 426.5279846191406 343.19671630859375 423.98785400390625 341.18017578125 C 421.53326416015625 339.252685546875 419.14202880859375 337.4507141113281 416.8110046386719 335.8284606933594 C 414.5765075683594 334.4405517578125 412.4690856933594 333.2142028808594 410.501708984375 332.1224365234375 C 408.7040100097656 331.0810546875 407.10711669921875 329.92816162109375 405.7779541015625 328.6809387207031 C 404.7821960449219 327.27154541015625 404.1670837402344 325.695556640625 403.978515625 324.0003662109375 C 404.14813232421875 322.1737976074219 404.5989074707031 320.34686279296875 405.28155517578125 318.6544189453125 C 406.1058349609375 317.1814880371094 406.9861145019531 316.02166748046875 407.8586120605469 315.28680419921875 C 408.6904296875 315.04876708984375 409.474853515625 315.24591064453125 410.242919921875 315.798095703125 C 411.0683288574219 316.60272216796875 412.067138671875 317.4900817871094 413.3155517578125 318.3458251953125 C 414.8504638671875 318.96856689453125 416.6760559082031 319.35736083984375 418.67034912109375 319.435791015625 C 420.6343078613281 319.24859619140625 422.3660888671875 318.8922424316406 423.55535888671875 318.3894348144531 C 424.13714599609375 317.8613586425781 424.02264404296875 317.4114685058594 423.256103515625 316.9609680175781 C 422.0296936035156 316.4795227050781 420.63726806640625 316.0089416503906 419.33526611328125 315.53594970703125 C 418.4028015136719 314.9762878417969 417.9239807128906 314.3086242675781 417.93743896484375 313.5023193359375 C 418.3500061035156 312.5669250488281 418.94488525390625 311.5390625 419.5672912597656 310.4674987792969 C 420.0294494628906 309.3686218261719 420.2253112792969 308.2774353027344 420.0984191894531 307.2838134765625 C 419.606689453125 306.430908203125 418.7981262207031 305.7167053222656 417.7454833984375 305.1649169921875 C 416.4720764160156 304.8030700683594 415.0565490722656 304.5760192871094 413.49468994140625 304.4277648925781 C 411.83447265625 304.25970458984375 410.0623474121094 303.9333801269531 408.1830749511719 303.4129943847656 C 406.2034606933594 302.62939453125 404.1290588378906 301.573974609375 402.0406494140625 300.290283203125 C 400.0474548339844 298.8760986328125 398.2669677734375 297.3824462890625 396.8540954589844 295.9225158691406 C 395.9689025878906 294.61248779296875 395.6584777832031 293.5700378417969 395.9638977050781 292.8787841796875 C 396.8975830078125 292.6515197753906 398.39239501953125 292.8995056152344 400.4503479003906 293.5046081542969 C 402.83819580078125 294.37274169921875 405.4049072265625 295.4848937988281 407.95458984375 296.5972595214844 C 410.2882385253906 297.6231994628906 412.34521484375 298.47149658203125 413.99560546875 299.0621337890625 C 415.42584228515625 299.3741455078125 416.65411376953125 299.37554931640625 417.8036193847656 299.05157470703125 C 419.0062255859375 298.4720458984375 420.28466796875 297.7216796875 421.68560791015625 296.79522705078125 C 423.3134460449219 295.79248046875 425.1340026855469 294.7118225097656 427.1402587890625 293.58087158203125 C 429.2722473144531 292.45330810546875 431.5162048339844 291.2964782714844 433.7965393066406 290.12060546875 C 436.1507263183594 288.9591979980469 438.54583740234375 287.8348693847656 437.28125 284.65924072265625" stroke-width="0.0" fill="rgb(251, 188, 105)" opacity="0.99998283" stroke="rgb(129, 206, 209)" stroke-opacity="0.07474356" stroke-linecap="round" stroke-linejoin="round"/>
  </g>
</svg>
