<?xml version="1.0" ?>
<svg xmlns="http://www.w3.org/2000/svg" version="1.1" width="474" height="596">
  <defs/>
  <g>
    <path d="M 267.41900634765625 -1.0621329545974731 C 268.0091247558594 -0.5875402092933655 268.775146484375 -0.6213639974594116 269.1378479003906 -0.8069767355918884 C 269.7298583984375 -0.8779903650283813 270.43133544921875 -1.2122948169708252 270.9574890136719 -1.6848773956298828 C 271.6969299316406 -2.1304755210876465 272.43096923828125 -2.848428964614868 272.85150146484375 -3.450434446334839 C 273.25286865234375 -3.5658175945281982 274.16949462890625 -3.4659135341644287 275.26043701171875 -3.3342533111572266 C 276.5363464355469 -2.6831231117248535 278.30987548828125 -1.3930341005325317 281.2762756347656 -1.040985107421875 C 284.9468688964844 0.7911413311958313 289.70599365234375 2.3905086517333984 296.6864013671875 3.4709582328796387 C 303.533935546875 5.749769687652588 312.0259094238281 8.079798698425293 320.1121826171875 11.862491607666016 C 328.9947509765625 15.175716400146484 336.9700012207031 20.03021240234375 345.15045166015625 24.699769973754883 C 353.5086975097656 29.259111404418945 361.1252136230469 35.37343978881836 369.22784423828125 41.625667572021484 C 377.28033447265625 48.36036682128906 384.95947265625 55.60493469238281 392.0820617675781 63.358219146728516 C 399.1488037109375 70.79410552978516 404.5662536621094 79.8794937133789 411.534423828125 87.26846313476562 C 417.1358337402344 95.893798828125 422.98614501953125 103.84526824951172 427.7578125 112.24754333496094 C 431.7186279296875 120.3310775756836 433.77691650390625 128.2013702392578 431.6013488769531 136.62893676757812 C 428.22662353515625 145.36090087890625 422.1944274902344 152.73562622070312 415.7054748535156 161.22547912597656 C 408.3077697753906 168.38168334960938 400.42364501953125 175.65077209472656 393.2691650390625 183.14707946777344 C 384.83544921875 189.40615844726562 377.8722229003906 197.257080078125 368.78875732421875 203.27757263183594 C 359.9284362792969 209.82009887695312 350.1454772949219 215.37989807128906 340.47174072265625 219.77928161621094 C 331.2232971191406 222.662841796875 324.1086120605469 224.2902069091797 319.2989807128906 224.31948852539062 C 319.4790954589844 220.75729370117188 322.19970703125 215.07766723632812 327.0379333496094 208.67633056640625 C 334.0133361816406 202.14364624023438 341.9223937988281 195.34469604492188 349.7483215332031 188.4414825439453 C 356.7035827636719 181.255859375 362.29864501953125 173.79273986816406 366.47491455078125 165.97691345214844 C 369.16607666015625 157.82498168945312 370.3910827636719 149.515380859375 370.2203674316406 141.16012573242188 C 368.77337646484375 132.9378204345703 365.98248291015625 125.0510482788086 362.23687744140625 117.75431823730469 C 357.686767578125 111.35172271728516 352.3855895996094 106.08689880371094 346.4460144042969 102.12777709960938 C 340.0351867675781 99.64379119873047 333.15777587890625 98.62259674072266 325.8892822265625 99.47804260253906 C 317.69451904296875 99.80804443359375 309.6387023925781 102.0077896118164 301.4866027832031 104.86353302001953 C 291.7290954589844 106.01112365722656 282.728271484375 107.25250244140625 274.0078125 109.0104751586914 C 266.0762939453125 108.67013549804688 259.2093505859375 107.33917999267578 253.8876495361328 106.27018737792969 C 250.33741760253906 103.97247314453125 247.81776428222656 103.39786529541016 246.4280242919922 103.9558334350586 C 245.5514678955078 105.83806610107422 244.2491912841797 108.89238739013672 241.66622924804688 112.89949035644531 C 236.1757354736328 116.75505065917969 229.0316925048828 120.93605041503906 221.06016540527344 125.19432067871094 C 211.01028442382812 128.6696014404297 201.6356658935547 132.50131225585938 191.7537384033203 134.730224609375 C 182.39111328125 136.0781707763672 174.9685516357422 137.56402587890625 168.92568969726562 138.7767333984375 C 164.37196350097656 139.8824005126953 161.0354461669922 141.3382568359375 158.41094970703125 143.38832092285156 C 156.08682250976562 146.3236846923828 153.83302307128906 150.39353942871094 151.5044708251953 155.77166748046875 C 149.42478942871094 162.2298583984375 147.80296325683594 169.609130859375 147.09884643554688 177.57473754882812 C 147.9355010986328 185.77896118164062 150.45681762695312 194.10609436035156 154.93356323242188 202.08724975585938 C 161.14527893066406 209.58265686035156 168.94393920898438 216.5166015625 178.09262084960938 222.68838500976562 C 187.6339874267578 228.09007263183594 196.61668395996094 232.8292999267578 204.3780517578125 236.81834411621094 C 209.76670837402344 240.20925903320312 211.6053924560547 243.10928344726562 210.0364990234375 245.2425994873047 C 205.46908569335938 246.09121704101562 198.51873779296875 245.81446838378906 190.20968627929688 244.66416931152344 C 181.3430633544922 243.30418395996094 171.88925170898438 241.86166381835938 162.53009033203125 240.7113800048828 C 153.3253936767578 240.79852294921875 144.3900909423828 240.3385467529297 135.93727111816406 239.55282592773438 C 128.4878692626953 237.6796112060547 120.49601745605469 236.15235900878906 112.34684753417969 234.42453002929688 C 104.15130615234375 231.71334838867188 95.104736328125 229.21539306640625 86.89046478271484 225.59564208984375 C 78.22077941894531 222.19415283203125 70.19275665283203 218.43997192382812 63.58012008666992 213.90013122558594 C 58.444332122802734 208.41885375976562 54.828514099121094 202.68960571289062 53.70115661621094 195.41677856445312 C 53.74994659423828 187.20069885253906 54.86157989501953 178.49172973632812 56.73619079589844 169.32843017578125 C 58.26950454711914 160.6038360595703 60.22608184814453 151.8902130126953 62.92670822143555 143.94229125976562 C 64.80402374267578 135.93344116210938 67.90362548828125 128.99119567871094 71.0775146484375 121.34701538085938 C 74.38330078125 113.61836242675781 78.31956481933594 105.70064544677734 83.1192398071289 97.74769592285156 C 88.18757629394531 89.48385620117188 93.80067443847656 81.22532653808594 100.31653594970703 73.24988555908203 C 107.24919891357422 65.14549255371094 114.4471664428711 57.16321563720703 122.66421508789062 50.16041946411133 C 130.3350067138672 42.90291213989258 138.8720245361328 37.20833969116211 146.5762481689453 31.425127029418945 C 154.30209350585938 26.625343322753906 161.96142578125 24.375905990600586 171.5780029296875 23.733972549438477 C 180.56417846679688 23.232038497924805 189.32736206054688 24.651710510253906 197.36904907226562 26.676908493041992 C 204.72438049316406 28.532503128051758 209.18226623535156 30.50994873046875 213.38697814941406 28.512378692626953 C 217.93594360351562 29.70671272277832 223.8727569580078 29.592498779296875 227.51785278320312 25.75 C 233.05606079101562 19.58690071105957 239.68310546875 12.898012161254883 248.47564697265625 7.641781330108643 C 257.9776611328125 2.8476998805999756 268.68212890625 -0.7015700936317444 267.41900634765625 -1.0621329545974731" stroke-width="0.0" fill="rgb(64, 38, 30)" opacity="0.9999959" stroke="rgb(221, 110, 77)" stroke-opacity="0.39469033" stroke-linecap="round" stroke-linejoin="round"/>
    <path d="M 279.7905578613281 238.4543914794922 C 287.7969970703125 239.73106384277344 297.24725341796875 240.82400512695312 307.79901123046875 241.45208740234375 C 320.07489013671875 243.900390625 334.7822570800781 247.51327514648438 350.986572265625 254.83685302734375 C 368.0651550292969 265.83941650390625 385.1258850097656 276.35498046875 398.5109558105469 285.1266784667969 C 405.8677062988281 290.39288330078125 406.3861999511719 292.0371398925781 400.33038330078125 291.28521728515625 C 390.537841796875 289.7454528808594 380.7114562988281 289.69073486328125 374.2687683105469 292.7603454589844 C 374.2339782714844 298.9813232421875 380.6081848144531 308.2050476074219 392.1278991699219 319.8298034667969 C 406.54156494140625 332.14984130859375 419.74700927734375 342.40997314453125 427.8158264160156 349.1977233886719 C 427.6842346191406 347.6134948730469 419.6978454589844 340.767578125 403.9531555175781 332.1494445800781 C 381.5527038574219 328.31256103515625 358.46728515625 324.599609375 339.2155456542969 320.77740478515625 C 326.5234375 323.44110107421875 323.3014831542969 333.0496520996094 322.6312255859375 350.4523620605469 C 323.7021484375 370.2568664550781 317.9273681640625 390.7271423339844 309.01263427734375 412.38189697265625 C 301.0231018066406 434.7004699707031 295.4782409667969 456.8939514160156 290.5765686035156 478.1717529296875 C 289.8168640136719 496.0167541503906 292.3690490722656 511.23699951171875 293.0233154296875 522.196044921875 C 289.2642517089844 527.0272827148438 279.0351867675781 526.5985107421875 265.391357421875 525.416259765625 C 251.34408569335938 525.1544799804688 239.2515411376953 529.6634521484375 234.42550659179688 538.7299194335938 C 235.714111328125 555.8602294921875 243.9713134765625 570.5296630859375 260.3017883300781 579.0415649414062 C 279.40179443359375 582.0072631835938 299.107177734375 579.8790893554688 315.9922180175781 579.1607055664062 C 326.414306640625 577.3568115234375 329.12298583984375 578.5476684570312 322.6526184082031 580.0657348632812 C 308.74835205078125 580.2393188476562 291.4610290527344 581.53271484375 273.58404541015625 580.9823608398438 C 255.5402069091797 576.767333984375 242.28823852539062 569.572021484375 237.18235778808594 555.7669677734375 C 237.40960693359375 535.9717407226562 238.97140502929688 513.8353881835938 242.30638122558594 491.3890075683594 C 241.7617950439453 473.41583251953125 236.7653350830078 460.5809631347656 228.93927001953125 456.1036682128906 C 221.5461883544922 463.0966796875 214.22152709960938 474.3559265136719 206.67071533203125 484.5927734375 C 199.17881774902344 490.398193359375 192.5229034423828 492.265625 187.6596221923828 492.34918212890625 C 185.3656463623047 492.8398132324219 186.3794708251953 496.16973876953125 190.69764709472656 503.6006774902344 C 197.62417602539062 514.8624877929688 205.80551147460938 529.3429565429688 213.71363830566406 545.1990966796875 C 217.36404418945312 560.3450927734375 213.6324462890625 573.83203125 202.21517944335938 583.6600952148438 C 183.41787719726562 589.8632202148438 163.80848693847656 594.0810546875 144.93418884277344 594.80126953125 C 131.0791778564453 591.6858520507812 124.0973129272461 586.1785278320312 125.84683990478516 580.267333984375 C 135.61251831054688 581.3291015625 151.7533416748047 582.5659790039062 168.41934204101562 584.7239990234375 C 188.78697204589844 583.5377807617188 203.981201171875 577.9082641601562 214.44512939453125 568.87060546875 C 216.69898986816406 555.6248168945312 213.78451538085938 542.5645141601562 206.62277221679688 532.252685546875 C 196.0331268310547 526.55029296875 185.3086395263672 524.4651489257812 175.8616943359375 523.798095703125 C 169.12527465820312 522.44189453125 165.4169158935547 518.9664916992188 164.32740783691406 511.8775634765625 C 164.6564178466797 500.55328369140625 164.17689514160156 484.9847412109375 162.4029998779297 466.4516906738281 C 158.51071166992188 445.6490173339844 154.56700134277344 423.7569274902344 151.6570281982422 402.11236572265625 C 141.46780395507812 383.04931640625 132.65377807617188 366.73876953125 121.24179077148438 355.35369873046875 C 109.70602416992188 350.1801452636719 99.78109741210938 350.00909423828125 92.68453216552734 354.3692626953125 C 87.33991241455078 356.84930419921875 87.17140197753906 355.8677978515625 91.48414611816406 350.8716735839844 C 97.85960388183594 343.16851806640625 104.16062927246094 333.32305908203125 109.1557846069336 322.77850341796875 C 111.52699279785156 312.3349304199219 110.4637222290039 302.8000183105469 106.32281494140625 294.61175537109375 C 100.19159698486328 288.0047912597656 96.28580474853516 282.143310546875 98.16914367675781 275.82269287109375 C 106.24740600585938 267.6789855957031 118.81495666503906 259.8358459472656 133.77854919433594 252.18785095214844 C 148.11166381835938 245.67300415039062 159.65750122070312 242.237548828125 167.3733673095703 245.05116271972656 C 168.8357391357422 253.035888671875 165.7674560546875 265.088134765625 161.52020263671875 281.1100769042969 C 156.5839385986328 298.64886474609375 152.61062622070312 317.0669860839844 151.0599365234375 334.59710693359375 C 152.8968048095703 349.9258117675781 156.05902099609375 361.9344177246094 158.60369873046875 370.02020263671875 C 159.31639099121094 373.22564697265625 159.70787048339844 371.09033203125 160.3416748046875 364.4234619140625 C 161.670166015625 354.31622314453125 164.90451049804688 341.42645263671875 168.87493896484375 327.0965881347656 C 175.04876708984375 313.55224609375 182.0172882080078 302.08038330078125 187.57009887695312 292.2110900878906 C 192.1327362060547 285.0335388183594 195.23101806640625 279.333984375 196.5919647216797 273.85040283203125 C 197.7919464111328 267.6875 199.54664611816406 260.84185791015625 203.63514709472656 255.06378173828125 C 210.57321166992188 251.58387756347656 219.47457885742188 250.80516052246094 229.99508666992188 251.63584899902344 C 241.46470642089844 253.18438720703125 253.33090209960938 256.4979248046875 264.64166259765625 262.775146484375 C 274.5755615234375 272.85498046875 283.12603759765625 285.0728454589844 292.0251770019531 296.49444580078125 C 300.69427490234375 306.3639831542969 304.7273254394531 313.98297119140625 312.2423400878906 316.8586730957031 C 314.838134765625 316.07647705078125 317.4046630859375 312.9385070800781 316.41094970703125 308.7003173828125 C 318.38922119140625 304.38525390625 318.6182556152344 299.5994873046875 317.92095947265625 294.0771484375 C 317.1619873046875 286.9838562011719 314.44537353515625 278.6409606933594 309.2621765136719 269.52203369140625 C 303.7076721191406 259.4661560058594 296.9061584472656 248.8785400390625 279.7905578613281 238.4543914794922" stroke-width="0.0" fill="rgb(252, 110, 165)" opacity="0.99996996" stroke="rgb(18, 70, 167)" stroke-opacity="0.20473738" stroke-linecap="round" stroke-linejoin="round"/>
    <path d="M 239.73609924316406 95.95234680175781 C 240.46055603027344 96.10606384277344 241.1703338623047 96.32233428955078 241.80662536621094 96.58348083496094 C 242.3777618408203 96.91447448730469 242.85171508789062 97.36144256591797 243.26754760742188 97.92915344238281 C 243.7250518798828 98.63050842285156 244.369873046875 99.58174133300781 245.3211212158203 100.71736145019531 C 246.7012939453125 101.98387145996094 248.63900756835938 103.3314437866211 251.15040588378906 104.67329406738281 C 254.21360778808594 105.92868041992188 257.8192443847656 107.06153106689453 261.9082946777344 108.00428009033203 C 266.3020935058594 108.64468383789062 270.8813171386719 108.93000793457031 275.59039306640625 108.88819885253906 C 280.2915954589844 108.53987121582031 284.964599609375 107.9150619506836 289.5140075683594 107.21764373779297 C 293.91302490234375 106.64356231689453 298.1957092285156 106.43167877197266 302.3290710449219 106.8009033203125 C 306.1837463378906 107.87796020507812 309.7550354003906 109.81873321533203 313.07647705078125 112.68260955810547 C 316.17303466796875 116.30159759521484 319.0760192871094 120.490478515625 321.9091796875 124.92581939697266 C 324.95745849609375 129.0358428955078 328.4750061035156 132.13363647460938 332.4388122558594 133.6429443359375 C 336.6797790527344 133.3411865234375 340.7049560546875 131.36984252929688 343.8856506347656 127.99317169189453 C 345.5763244628906 123.62065887451172 345.5397644042969 118.54747009277344 344.21624755859375 113.23767852783203 C 342.1358642578125 108.25299835205078 340.0091247558594 103.99153137207031 338.552490234375 100.7771987915039 C 338.3732604980469 98.87638092041016 339.72088623046875 98.44182586669922 342.51458740234375 99.45337677001953 C 346.3406677246094 101.82756042480469 350.7095031738281 105.43759155273438 355.23870849609375 110.12516784667969 C 359.51617431640625 115.63468933105469 363.11865234375 121.69743347167969 365.8379211425781 128.07676696777344 C 367.7129211425781 134.65972900390625 368.7196960449219 141.26902770996094 368.9826965332031 147.72653198242188 C 368.6192321777344 154.0130157470703 367.63739013671875 160.15528869628906 365.98480224609375 166.14967346191406 C 363.63580322265625 172.16334533691406 360.599853515625 178.12677001953125 356.7669372558594 184.00454711914062 C 352.2344665527344 189.76939392089844 347.2410583496094 195.37620544433594 341.9824523925781 200.8161163330078 C 336.71905517578125 205.91908264160156 331.5688171386719 210.6036834716797 326.5762939453125 214.76113891601562 C 321.69146728515625 218.32814025878906 316.736083984375 221.26748657226562 311.4327697753906 223.75282287597656 C 305.6888122558594 225.8871612548828 299.83782958984375 227.96900939941406 294.3245849609375 230.42015075683594 C 289.8028259277344 233.4933624267578 287.214111328125 237.4620361328125 287.2765808105469 242.6371307373047 C 289.60858154296875 248.64108276367188 293.2531433105469 254.7443389892578 297.471435546875 260.2894287109375 C 301.2615661621094 264.5740966796875 303.8553466796875 266.9862060546875 304.8794250488281 267.28826904296875 C 304.0443115234375 265.6065368652344 301.4861755371094 262.45751953125 297.5690612792969 258.50579833984375 C 292.87689208984375 254.45570373535156 288.0779724121094 251.0966339111328 283.6855163574219 249.20822143554688 C 280.0561218261719 249.13619995117188 277.4497985839844 250.9690399169922 275.8288879394531 254.2357635498047 C 275.0194396972656 258.2853088378906 274.6805419921875 262.3470153808594 274.31884765625 265.6918029785156 C 273.435546875 267.63671875 271.6419372558594 267.7793884277344 268.5799865722656 266.191650390625 C 264.15899658203125 263.36065673828125 258.6015625 259.7779846191406 252.32907104492188 256.0536804199219 C 245.740966796875 252.57113647460938 239.2235107421875 249.5855255126953 233.20872497558594 247.33465576171875 C 227.8099822998047 246.00437927246094 222.9717254638672 245.70654296875 218.54237365722656 246.43020629882812 C 214.19444274902344 248.15524291992188 209.82156372070312 250.84275817871094 205.45448303222656 254.197509765625 C 201.2627410888672 257.84503173828125 197.54017639160156 261.4742431640625 194.5902862548828 264.6538391113281 C 192.70501708984375 266.958984375 192.055419921875 268.0424499511719 192.74586486816406 267.6737060546875 C 194.75730895996094 265.8052673339844 197.8553466796875 262.6654052734375 201.73178100585938 258.52374267578125 C 205.68765258789062 253.76406860351562 208.8259735107422 248.78213500976562 210.5078125 244.0292205810547 C 209.61495971679688 240.02491760253906 206.28460693359375 236.70140075683594 200.99111938476562 233.7095947265625 C 194.33026123046875 230.68283081054688 186.94699096679688 227.22018432617188 179.3529815673828 223.10809326171875 C 171.93406677246094 218.2308349609375 164.99612426757812 212.69703674316406 158.8833465576172 206.73390197753906 C 153.77320861816406 200.4970245361328 149.91600036621094 194.0548095703125 147.41285705566406 187.44300842285156 C 146.36239624023438 180.7560272216797 146.414306640625 174.04232788085938 147.40859985351562 167.4154815673828 C 149.05245971679688 161.05825805664062 151.17503356933594 155.22515869140625 153.55126953125 150.12130737304688 C 155.94297790527344 145.87388610839844 158.24826049804688 142.63052368164062 160.5059051513672 140.46153259277344 C 162.78860473632812 139.20242309570312 165.19784545898438 138.67477416992188 167.889404296875 138.53265380859375 C 171.15753173828125 138.39859008789062 175.14134216308594 138.017578125 179.85459899902344 137.23837280273438 C 185.28382873535156 136.14920043945312 191.20960998535156 134.9903106689453 197.40042114257812 134.1898193359375 C 203.3934783935547 134.03797912597656 208.78103637695312 134.8285675048828 213.3182830810547 136.73431396484375 C 216.81137084960938 139.80853271484375 219.1391143798828 143.83819580078125 220.46286010742188 148.3548583984375 C 221.1378936767578 152.84300231933594 221.79769897460938 156.906005859375 223.22988891601562 159.9799041748047 C 226.28627014160156 161.25242614746094 230.38211059570312 161.14459228515625 234.82424926757812 159.76844787597656 C 239.09432983398438 157.3031768798828 242.61875915527344 154.09213256835938 244.80511474609375 150.4732666015625 C 245.459716796875 146.6742706298828 244.80885314941406 143.0352325439453 243.15460205078125 139.56790161132812 C 241.0112762451172 136.39768981933594 238.9490509033203 133.5517578125 237.35841369628906 130.80313110351562 C 236.39463806152344 128.02764892578125 236.22283935546875 125.05686950683594 236.94773864746094 121.77739715576172 C 238.48280334472656 118.14362335205078 240.70509338378906 114.1230239868164 243.3001708984375 109.76347351074219 C 246.0406494140625 105.210693359375 248.84625244140625 100.57787322998047 239.73609924316406 95.95234680175781" stroke-width="0.0" fill="rgb(249, 187, 106)" opacity="0.99955076" stroke="rgb(106, 3, 40)" stroke-opacity="0.55238646" stroke-linecap="round" stroke-linejoin="round"/>
    <path d="M 171.83518981933594 238.11651611328125 C 176.07861328125 237.87083435058594 180.255126953125 237.99569702148438 184.22256469726562 239.06520080566406 C 187.78335571289062 241.6973419189453 190.6890869140625 246.13525390625 192.5459747314453 252.57106018066406 C 192.85121154785156 261.0934143066406 191.29261779785156 271.60302734375 187.75338745117188 283.6150207519531 C 182.32814025878906 296.3759460449219 175.69573974609375 309.2117004394531 168.5017547607422 321.4940185546875 C 161.3657684326172 332.7707214355469 154.9730224609375 342.9605712890625 149.90411376953125 352.03509521484375 C 146.5130157470703 360.0648193359375 145.21414184570312 367.15869140625 146.4053497314453 373.3774108886719 C 150.45924377441406 378.54376220703125 157.6189727783203 382.56439208984375 167.86648559570312 385.3119812011719 C 180.68389892578125 386.85711669921875 195.3302459716797 387.3983459472656 210.9194793701172 387.23345947265625 C 226.35910034179688 386.56890869140625 240.0572509765625 385.5541076660156 250.72279357910156 384.4352111816406 C 257.3687744140625 383.3989562988281 259.51165771484375 382.51177978515625 257.71417236328125 381.7246398925781 C 253.92050170898438 380.9132080078125 250.43380737304688 379.98675537109375 249.08067321777344 378.8952331542969 C 251.14828491210938 377.7992858886719 257.15997314453125 376.91522216796875 266.4622497558594 376.6392822265625 C 277.5638122558594 377.5164794921875 288.75616455078125 380.2483215332031 298.57122802734375 385.3200378417969 C 305.8497619628906 392.8899841308594 310.06060791015625 402.7953796386719 311.08331298828125 414.61785888671875 C 309.2485656738281 427.5667419433594 305.0423583984375 440.57550048828125 299.181640625 452.57757568359375 C 292.5466613769531 462.5896911621094 285.3771667480469 470.02105712890625 277.8957214355469 474.82958984375 C 270.6086120605469 477.67327880859375 264.0396728515625 479.58099365234375 258.6412353515625 481.41729736328125 C 255.0361785888672 483.5337219238281 253.32791137695312 485.9658203125 253.7493133544922 488.6163635253906 C 256.6224060058594 491.3238525390625 261.8660583496094 493.82611083984375 268.9992980957031 495.89923095703125 C 276.8211669921875 497.7660827636719 282.817626953125 499.9967956542969 284.4537353515625 503.56414794921875 C 280.7138671875 509.65142822265625 273.4209289550781 520.7808837890625 267.09814453125 537.2787475585938 C 268.1636962890625 559.2327270507812 278.7301330566406 575.3491821289062 296.8103332519531 580.7838134765625 C 312.60797119140625 582.2408447265625 320.2095031738281 582.8604125976562 318.3800354003906 583.2607421875 C 310.6407470703125 583.905029296875 300.06170654296875 583.3642578125 288.6785888671875 579.8363647460938 C 277.7283630371094 571.6465454101562 271.2147216796875 558.5974731445312 268.0190734863281 543.4315185546875 C 266.64813232421875 530.456787109375 260.1205139160156 522.128662109375 252.6611328125 516.3340454101562 C 247.56472778320312 509.7918395996094 244.79391479492188 500.5746154785156 243.18153381347656 488.7851257324219 C 241.01454162597656 476.00555419921875 236.7677459716797 464.4061279296875 230.48268127441406 456.8396301269531 C 223.18601989746094 456.8388366699219 216.43759155273438 463.5977783203125 211.320556640625 475.4871520996094 C 208.82464599609375 490.5 209.07305908203125 507.14447021484375 211.30015563964844 524.1910400390625 C 213.75559997558594 540.7803344726562 215.03988647460938 555.9517822265625 213.37503051757812 568.6917724609375 C 207.0469970703125 577.7439575195312 196.51429748535156 583.6627197265625 182.87120056152344 586.96630859375 C 167.90887451171875 587.81103515625 153.025390625 586.4827270507812 139.8312225341797 583.37109375 C 130.62457275390625 578.9139404296875 126.54292297363281 573.916259765625 127.00496673583984 568.6241455078125 C 128.91656494140625 564.2210693359375 130.6048583984375 561.5782470703125 131.1184539794922 561.3261108398438 C 129.60177612304688 563.1593017578125 127.1425552368164 567.2237548828125 127.38302612304688 573.3304443359375 C 132.74168395996094 581.1680297851562 144.1055145263672 586.9920043945312 160.25828552246094 589.3897705078125 C 178.6336212158203 587.8755493164062 196.57162475585938 582.5690307617188 210.40301513671875 573.6047973632812 C 216.65386962890625 561.4545288085938 216.4597930908203 547.4973754882812 212.86077880859375 534.9187622070312 C 206.38958740234375 526.9237060546875 197.47308349609375 523.7835693359375 187.50746154785156 523.8284912109375 C 178.3874969482422 524.7949829101562 171.3998260498047 524.6663818359375 166.87725830078125 521.6849975585938 C 164.85760498046875 515.4288940429688 164.65814208984375 505.84027099609375 165.25563049316406 493.5068359375 C 165.6960906982422 479.1544189453125 165.3141632080078 463.5379638671875 163.90078735351562 447.39276123046875 C 161.34725952148438 431.29254150390625 157.60345458984375 415.65325927734375 152.86106872558594 400.567626953125 C 146.79502868652344 386.2297668457031 139.3340301513672 373.15960693359375 130.51736450195312 362.0948486328125 C 120.48274993896484 354.07232666015625 109.23020935058594 350.3830871582031 97.3978271484375 351.57037353515625 C 85.91840362548828 356.9501953125 75.16648864746094 364.5313415527344 65.20218658447266 372.7540283203125 C 55.91197204589844 380.11920166015625 47.327213287353516 385.44671630859375 39.26559829711914 388.061767578125 C 31.768312454223633 388.29290771484375 25.052705764770508 386.3667907714844 19.48623275756836 382.3904113769531 C 15.476879119873047 376.2820129394531 13.727258682250977 368.5683288574219 14.970123291015625 360.1233215332031 C 19.274478912353516 352.2188415527344 26.15982437133789 345.4127197265625 35.128299713134766 339.42742919921875 C 45.72726821899414 333.76727294921875 57.40786361694336 327.2252502441406 69.5692367553711 318.3514099121094 C 81.3020248413086 308.3988037109375 91.68461608886719 300.1127624511719 100.00502014160156 295.6634216308594 C 105.66388702392578 296.5631408691406 108.92430114746094 302.3085632324219 110.38243865966797 311.03887939453125 C 110.73184967041016 320.77459716796875 110.84646606445312 329.68353271484375 111.5626449584961 336.5207214355469 C 113.51094055175781 340.8716125488281 117.09784698486328 342.60943603515625 122.5427017211914 341.9494323730469 C 129.43714904785156 339.2438049316406 137.23292541503906 334.71295166015625 145.1240234375 328.608154296875 C 152.38180541992188 321.0511169433594 158.35992431640625 311.88006591796875 163.10476684570312 301.2550354003906 C 166.66845703125 289.4473876953125 169.41107177734375 276.7912902832031 171.61813354492188 263.70294189453125 C 173.4054718017578 250.39393615722656 175.02932739257812 236.9993133544922 171.83518981933594 238.11651611328125" stroke-width="0.0" fill="rgb(247, 202, 101)" opacity="0.99969274" stroke="rgb(101, 210, 245)" stroke-opacity="0.5532081" stroke-linecap="round" stroke-linejoin="round"/>
  </g>
</svg>
