<?xml version="1.0" ?>
<svg xmlns="http://www.w3.org/2000/svg" version="1.1" width="474" height="596">
  <defs/>
  <g>
    <path d="M 267.5363464355469 -0.8492417931556702 C 268.07501220703125 -0.6426500082015991 268.5728759765625 -0.5918657183647156 269.1648254394531 -0.6259580254554749 C 269.7691345214844 -0.8262367248535156 270.3534851074219 -1.198815107345581 271.0247497558594 -1.6344882249832153 C 271.7376403808594 -2.1804490089416504 272.36669921875 -2.8304519653320312 272.9375915527344 -3.3289730548858643 C 273.4991760253906 -3.6259219646453857 274.2056884765625 -3.650576591491699 275.1535949707031 -3.34785532951355 C 276.4865417480469 -2.7115628719329834 278.3990478515625 -1.5309535264968872 281.1245422363281 -0.4426228404045105 C 284.9238586425781 0.7988806366920471 289.9832458496094 2.0850303173065186 296.3731994628906 3.639414072036743 C 303.733154296875 5.709360122680664 311.7227783203125 8.365511894226074 320.091064453125 11.90191650390625 C 328.60504150390625 15.666179656982422 336.9623718261719 20.09882354736328 345.103271484375 24.72225570678711 C 353.254150390625 29.580547332763672 361.1668395996094 35.29591369628906 369.1860656738281 41.62465286254883 C 376.9502868652344 48.69256591796875 384.6632385253906 55.87089157104492 392.12255859375 63.27951431274414 C 398.7154541015625 71.28057861328125 405.0092468261719 79.46607208251953 411.0914001464844 87.67501831054688 C 416.89581298828125 96.04743194580078 422.5735778808594 104.22831726074219 427.5475769042969 112.27532196044922 C 431.08154296875 120.42576599121094 432.53070068359375 128.49343872070312 431.4888610839844 136.71893310546875 C 427.8709716796875 144.89471435546875 422.3777160644531 152.9600067138672 415.7372131347656 160.9108428955078 C 408.3401184082031 168.64413452148438 400.6557312011719 176.02394104003906 392.9206848144531 182.9642791748047 C 385.2638244628906 189.9235076904297 377.4090576171875 196.78353881835938 368.8441162109375 203.15895080566406 C 359.3189697265625 209.0601806640625 349.4615478515625 214.48464965820312 339.8041687011719 219.31532287597656 C 331.18408203125 222.7825927734375 324.30963134765625 224.44960021972656 319.9620666503906 223.80821228027344 C 319.13372802734375 220.2713623046875 321.76806640625 214.98480224609375 327.00579833984375 208.62921142578125 C 334.0810852050781 202.04991149902344 342.02099609375 195.29808044433594 349.8591613769531 188.4199676513672 C 356.75933837890625 181.31411743164062 362.3799133300781 173.88490295410156 366.5335998535156 166.0713348388672 C 369.154541015625 157.92974853515625 370.3493957519531 149.60340881347656 370.22589111328125 141.24114990234375 C 368.769287109375 132.9741668701172 366.0472106933594 125.04220581054688 362.2593994140625 117.71985626220703 C 357.63299560546875 111.2857437133789 352.298583984375 106.00263977050781 346.40850830078125 102.0417709350586 C 340.0027160644531 99.56007385253906 333.0872802734375 98.51506805419922 325.7289733886719 98.73917388916016 C 317.9752197265625 100.0431137084961 309.6795349121094 102.0158920288086 300.9114685058594 104.20500183105469 C 291.84686279296875 106.10482025146484 282.7608642578125 107.37928771972656 274.08978271484375 107.95079803466797 C 266.1858825683594 107.70199584960938 259.40460205078125 106.63513946533203 254.0614013671875 105.22496032714844 C 250.20196533203125 103.86827850341797 247.7012176513672 103.25650024414062 246.31930541992188 103.79044342041016 C 245.49737548828125 105.62771606445312 244.2474365234375 108.73912811279297 241.48245239257812 112.5781021118164 C 236.39743041992188 116.69216918945312 229.32920837402344 120.8702621459961 220.69921875 124.90892791748047 C 211.0245361328125 128.59661865234375 200.99806213378906 131.71087646484375 191.1847686767578 134.19659423828125 C 182.29653930664062 136.085693359375 174.82862854003906 137.5552520751953 168.8173828125 138.79006958007812 C 164.3192138671875 139.88381958007812 161.00677490234375 141.27809143066406 158.4469451904297 143.28683471679688 C 156.175048828125 146.228759765625 153.9230194091797 150.3331298828125 151.6389923095703 155.664306640625 C 149.54098510742188 162.1280059814453 147.87545776367188 169.5555419921875 147.07546997070312 177.57705688476562 C 147.8284912109375 185.8831329345703 150.33984375 194.1539764404297 154.74803161621094 202.11370849609375 C 160.99952697753906 209.63900756835938 168.86732482910156 216.523681640625 177.9561767578125 222.67581176757812 C 187.5697021484375 228.13961791992188 196.6733856201172 232.87974548339844 204.3041534423828 236.9577178955078 C 209.49745178222656 240.44297790527344 211.47515869140625 243.26182556152344 209.9510498046875 245.28895568847656 C 205.4414520263672 246.13792419433594 198.7008514404297 245.77716064453125 190.4056854248047 244.66929626464844 C 181.23704528808594 243.22401428222656 171.74183654785156 241.8380889892578 162.3136444091797 240.7989959716797 C 153.25990295410156 240.1051025390625 144.6324462890625 239.59100341796875 136.39437866210938 238.8946075439453 C 128.4541473388672 237.72071838378906 120.49604034423828 236.1480255126953 112.39134216308594 234.25672912597656 C 104.04602813720703 231.83079528808594 95.4805908203125 228.901123046875 86.9643325805664 225.5885467529297 C 78.5987777709961 221.89024353027344 70.71379852294922 217.99288940429688 63.99210739135742 213.4626922607422 C 58.32923889160156 208.46437072753906 54.916385650634766 202.5944061279297 53.79845428466797 195.1897735595703 C 53.811344146728516 187.04623413085938 54.68985366821289 178.29542541503906 56.782501220703125 169.47459411621094 C 58.29951858520508 160.54830932617188 60.3740119934082 152.01119995117188 63.03177261352539 143.94467163085938 C 65.13838958740234 136.17861938476562 67.62846374511719 128.71490478515625 71.10205841064453 121.36083984375 C 74.49436950683594 113.71039581298828 78.34555053710938 105.7335433959961 83.05160522460938 97.70214080810547 C 88.2569808959961 89.55406188964844 93.78923797607422 81.19926452636719 100.26729583740234 73.20736694335938 C 107.19499969482422 65.11241912841797 114.43932342529297 57.17384719848633 122.67938232421875 50.18163299560547 C 130.65538024902344 43.20488739013672 138.73812866210938 37.03114700317383 146.6347198486328 31.517013549804688 C 154.12652587890625 26.79867172241211 162.38211059570312 24.466604232788086 171.3947296142578 23.82510757446289 C 180.60116577148438 23.483055114746094 189.32965087890625 24.61821174621582 197.37428283691406 26.494831085205078 C 204.02017211914062 28.786617279052734 208.95327758789062 29.82672691345215 213.4391326904297 28.23963165283203 C 218.2052459716797 29.66493797302246 222.9351043701172 29.25867462158203 227.73133850097656 25.71029281616211 C 233.15054321289062 19.644969940185547 239.96563720703125 13.181339263916016 248.5261688232422 7.54680871963501 C 258.1350402832031 2.92044734954834 268.18414306640625 -1.1726289987564087 267.5363464355469 -0.8492417931556702" stroke-width="0.0" fill="rgb(64, 38, 30)" opacity="0.99999577" stroke="rgb(221, 110, 77)" stroke-opacity="0.39469033" stroke-linecap="round" stroke-linejoin="round"/>
    <path d="M 279.7705383300781 239.46697998046875 C 288.3965148925781 239.91915893554688 297.4383239746094 240.5821990966797 307.5883483886719 241.68356323242188 C 319.808837890625 243.7400665283203 334.2515869140625 247.70846557617188 350.69708251953125 254.8533477783203 C 368.3979797363281 265.151123046875 385.17303466796875 276.3565979003906 398.67822265625 285.4789123535156 C 406.3820495605469 290.71868896484375 406.90869140625 292.2269287109375 400.658935546875 291.2394714355469 C 390.54656982421875 289.6230163574219 380.3821105957031 289.4344787597656 373.7449951171875 292.424560546875 C 373.55029296875 298.6969299316406 379.9383850097656 307.94873046875 391.45489501953125 319.4911804199219 C 405.8491516113281 331.91717529296875 419.1344299316406 342.9925231933594 427.5205383300781 349.58001708984375 C 428.2104187011719 347.58209228515625 420.0538635253906 340.6352844238281 403.87371826171875 332.71527099609375 C 381.89923095703125 328.04541015625 358.9001159667969 323.9636535644531 339.01226806640625 321.11419677734375 C 326.5309753417969 323.1586608886719 322.90350341796875 333.2722473144531 322.7712707519531 350.32403564453125 C 323.0783386230469 370.2557067871094 317.91326904296875 391.05999755859375 309.26983642578125 412.6297912597656 C 301.1541442871094 434.7734680175781 294.7243347167969 456.6476135253906 291.10052490234375 477.2043151855469 C 290.7720031738281 495.6189270019531 292.7794189453125 511.0005187988281 293.4477844238281 521.7164916992188 C 289.143798828125 526.48828125 279.16888427734375 526.5531616210938 265.5111389160156 524.6892700195312 C 251.06625366210938 524.4985961914062 239.41607666015625 529.0847778320312 233.88925170898438 540.0498046875 C 235.51248168945312 555.6053466796875 244.6411895751953 569.9515991210938 260.2506103515625 579.22314453125 C 279.9967041015625 581.5578002929688 300.0077819824219 580.3273315429688 316.569091796875 578.8594360351562 C 326.8182678222656 577.584716796875 329.09722900390625 578.5928344726562 322.618896484375 579.6096801757812 C 308.9437255859375 579.8720092773438 291.4227600097656 581.1469116210938 272.5685729980469 581.0812377929688 C 255.1766357421875 577.6959228515625 242.7039031982422 569.3809204101562 237.2208251953125 555.1712646484375 C 237.5290069580078 535.938232421875 240.36289978027344 514.3626098632812 242.1147003173828 492.9504089355469 C 240.68980407714844 474.23565673828125 235.84127807617188 461.02923583984375 228.8534698486328 456.5155029296875 C 221.64959716796875 463.2747497558594 214.32945251464844 474.76123046875 206.77040100097656 485.0751647949219 C 199.2867889404297 490.7027893066406 192.51242065429688 492.2759094238281 187.47877502441406 492.0289001464844 C 185.09396362304688 492.43341064453125 186.05126953125 495.705078125 190.38587951660156 503.0525817871094 C 197.309326171875 514.4215698242188 205.60682678222656 528.9882202148438 213.60951232910156 545.0386962890625 C 217.4870147705078 560.5448608398438 213.78634643554688 573.6929931640625 201.63555908203125 583.5082397460938 C 183.6244659423828 589.9950561523438 163.6749725341797 593.88720703125 145.01795959472656 594.6669311523438 C 130.9751434326172 591.6817016601562 123.971923828125 586.0101318359375 125.57246398925781 580.7533569335938 C 135.6426239013672 580.7080078125 151.3726043701172 583.0735473632812 170.19821166992188 584.8388061523438 C 188.97793579101562 583.6195068359375 204.5196075439453 578.3953857421875 214.25558471679688 568.8098754882812 C 216.6862335205078 555.5106201171875 213.55247497558594 542.2823486328125 206.04083251953125 531.9979858398438 C 195.66697692871094 526.3453369140625 184.88723754882812 524.4017333984375 175.44769287109375 523.9475708007812 C 168.82415771484375 522.6970825195312 165.24964904785156 519.2094116210938 163.96946716308594 512.1422729492188 C 163.82923889160156 500.8464050292969 163.4889373779297 485.3857421875 161.81890869140625 466.59759521484375 C 158.78494262695312 445.49810791015625 155.28912353515625 423.368896484375 151.2850799560547 401.59857177734375 C 143.3103485107422 382.24127197265625 132.79055786132812 366.53521728515625 121.06576538085938 355.7586364746094 C 109.61717224121094 350.56329345703125 99.79537963867188 350.8011474609375 92.60897064208984 354.291748046875 C 88.21513366699219 356.5200500488281 88.17121124267578 355.5759582519531 92.03328704833984 350.9958801269531 C 98.08030700683594 343.18280029296875 104.47483825683594 333.31378173828125 109.51103210449219 322.68310546875 C 111.83235931396484 312.2233581542969 110.82648468017578 302.5879821777344 106.64409637451172 294.38201904296875 C 100.55144500732422 287.8798522949219 96.67158508300781 282.1844177246094 98.28443908691406 275.7757873535156 C 106.37506103515625 268.3013916015625 119.03461456298828 260.33441162109375 133.81858825683594 252.2278594970703 C 147.98934936523438 245.4351806640625 159.7489013671875 242.61936950683594 167.360595703125 245.04296875 C 168.58815002441406 253.03453063964844 165.8758544921875 265.43365478515625 161.35694885253906 281.0449523925781 C 156.53707885742188 298.6220703125 152.77615356445312 316.9286804199219 151.20535278320312 334.660888671875 C 152.90467834472656 350.0525817871094 155.8795623779297 362.1260681152344 158.22418212890625 370.1861877441406 C 159.6057891845703 373.4660949707031 160.25146484375 371.65863037109375 160.69683837890625 365.0963134765625 C 162.16799926757812 354.62933349609375 165.33168029785156 341.5144958496094 170.1101531982422 327.2705993652344 C 175.95944213867188 313.658447265625 182.11410522460938 301.7412109375 187.79331970214844 292.108642578125 C 192.3292236328125 284.801513671875 195.3285369873047 279.3332824707031 197.07301330566406 274.05303955078125 C 198.38827514648438 267.8516540527344 200.33811950683594 261.1534729003906 204.07827758789062 255.41238403320312 C 210.63095092773438 252.23854064941406 219.5222625732422 251.2286376953125 230.02854919433594 251.5787353515625 C 241.56370544433594 253.24765014648438 253.22750854492188 256.7715759277344 264.1715393066406 263.33544921875 C 274.138427734375 273.18402099609375 283.2286376953125 284.9601135253906 291.826171875 296.6806945800781 C 299.7408142089844 306.76043701171875 306.5469970703125 313.9641418457031 311.843017578125 317.2370300292969 C 315.2784729003906 316.65216064453125 316.5847473144531 313.1819152832031 316.9377746582031 308.3695068359375 C 317.8395690917969 303.95477294921875 318.7657775878906 299.515380859375 318.79193115234375 294.10211181640625 C 317.37542724609375 287.2628479003906 314.1701965332031 278.8840026855469 309.4463195800781 269.34197998046875 C 303.5369873046875 259.09783935546875 296.9932556152344 248.5633087158203 279.7705383300781 239.46697998046875" stroke-width="0.0" fill="rgb(252, 110, 165)" opacity="0.9999721" stroke="rgb(18, 70, 167)" stroke-opacity="0.20473738" stroke-linecap="round" stroke-linejoin="round"/>
  </g>
</svg>
