<?xml version="1.0" ?>
<svg xmlns="http://www.w3.org/2000/svg" version="1.1" width="512" height="512">
  <defs/>
  <g>
    <path d="M 294.870361328125 164.7680206298828 C 318.7054138183594 166.0316925048828 332.50482177734375 165.81106567382812 336.3919677734375 182.29248046875 C 346.2430419921875 196.1790313720703 342.6285705566406 192.6790313720703 350.1343688964844 213.2103729248047 C 352.95941162109375 221.14279174804688 352.2322082519531 217.4730224609375 349.1607666015625 234.70982360839844 C 347.666259765625 239.00149536132812 341.32708740234375 252.8667755126953 340.8695983886719 250.90863037109375 C 340.0881652832031 253.81643676757812 334.82904052734375 255.2917938232422 328.9989929199219 259.54266357421875 C 338.34429931640625 254.1058349609375 327.7621154785156 260.3948974609375 330.5062255859375 259.68328857421875 C 330.46710205078125 258.80157470703125 330.0464782714844 261.1584167480469 330.4931335449219 258.6584167480469 C 331.22515869140625 260.9610290527344 330.9031982421875 260.30328369140625 331.629638671875 259.8528747558594 C 329.5867614746094 261.1830139160156 337.0741882324219 261.6091003417969 340.9213562011719 260.1941833496094 C 338.94366455078125 260.71722412109375 334.9336242675781 261.1538391113281 339.6214294433594 260.0023498535156 C 333.8569030761719 262.1365966796875 342.3717956542969 259.3856201171875 346.9148864746094 258.4756164550781 C 341.1173095703125 259.13104248046875 348.1931457519531 256.37054443359375 346.2459716796875 257.1111145019531 C 343.65350341796875 258.2816162109375 345.6484069824219 259.13848876953125 345.4275817871094 258.5572509765625 C 342.9538879394531 259.1006164550781 349.6006164550781 256.9404602050781 352.498046875 253.595947265625 C 357.3609313964844 249.2161865234375 364.2958984375 237.2371826171875 366.3777160644531 231.87646484375 C 370.27215576171875 224.65164184570312 370.7376403808594 205.84092712402344 367.7416687011719 198.65394592285156 C 365.5106506347656 187.71958923339844 348.45367431640625 171.70468139648438 334.6146240234375 161.87721252441406 C 317.04827880859375 151.1017608642578 293.1070861816406 158.8853302001953 315.54278564453125 135.1195526123047 C 331.7386169433594 132.81820678710938 342.0600891113281 132.10581970214844 389.4029846191406 159.43353271484375 C 351.27142333984375 167.45396423339844 365.2756042480469 150.87818908691406 375.0820617675781 175.12071228027344 C 379.8130798339844 193.70359802246094 373.4199523925781 216.78004455566406 376.3464660644531 226.16204833984375 C 380.9593200683594 244.8644256591797 381.6444396972656 251.04640197753906 378.6676025390625 258.0365295410156 C 379.893310546875 255.918212890625 374.4656677246094 259.1806640625 380.0751037597656 256.2027893066406 C 375.0091552734375 262.1909484863281 353.8314208984375 268.3578796386719 350.2305603027344 270.2514343261719 C 353.26177978515625 269.4307861328125 351.2183837890625 271.12811279296875 352.7178955078125 269.03173828125 C 353.8228759765625 269.3330078125 348.5230712890625 268.4833679199219 353.7652282714844 269.39508056640625 C 349.5833740234375 270.17626953125 339.264892578125 275.0231628417969 341.2970886230469 274.566162109375 C 341.09674072265625 274.432373046875 342.51531982421875 273.9287109375 342.3273010253906 273.8448181152344 C 339.9941711425781 273.1600341796875 342.69482421875 274.9659729003906 342.0582580566406 273.3200988769531 C 342.12127685546875 273.8413391113281 341.9516296386719 273.41363525390625 341.55718994140625 274.44573974609375 C 342.8358154296875 274.13934326171875 343.4819641113281 272.8277282714844 342.3359069824219 273.7622985839844 C 346.12152099609375 272.0051574707031 330.5440673828125 278.95343017578125 326.7541198730469 280.9819641113281 C 331.76568603515625 279.2409362792969 326.6567687988281 281.10284423828125 327.810791015625 280.6388854980469 C 329.42169189453125 278.9858703613281 327.177734375 279.84228515625 328.1813659667969 280.7196044921875 C 326.6910095214844 280.21307373046875 326.3488464355469 280.6053466796875 327.6662902832031 279.21466064453125 C 325.0231628417969 281.7237243652344 329.44671630859375 278.71343994140625 327.5518493652344 281.4857482910156 C 330.1202087402344 279.38299560546875 326.49102783203125 280.7729797363281 328.8426818847656 278.7820129394531 C 327.1236572265625 280.3719177246094 328.0154724121094 280.7498779296875 327.1601257324219 280.2969665527344 C 328.2922668457031 279.5159606933594 325.8927307128906 281.1141357421875 328.3805847167969 280.7099914550781 C 329.7218017578125 279.16375732421875 314.2514343261719 287.0820617675781 317.404052734375 285.7642517089844 C 317.52520751953125 286.1410217285156 317.0943298339844 286.7947998046875 319.3741455078125 284.0128173828125 C 315.6590270996094 285.8203430175781 316.3399353027344 286.2975158691406 318.16802978515625 285.37835693359375 C 315.64422607421875 285.1109924316406 313.9436340332031 286.8352355957031 320.3866882324219 283.16973876953125 C 316.2901306152344 287.0259704589844 320.3017578125 284.8556213378906 315.2811279296875 286.4060974121094 C 318.8561096191406 285.0541687011719 325.7134094238281 282.48138427734375 313.6397705078125 286.2947082519531 C 301.0771789550781 291.67120361328125 291.31256103515625 288.56951904296875 296.7098693847656 289.47216796875 C 292.0308532714844 289.901123046875 287.5433654785156 288.5262451171875 279.8062438964844 286.2453918457031 C 271.6460266113281 283.8941650390625 235.4674530029297 269.05255126953125 249.20480346679688 260.8898620605469 C 276.8669128417969 285.2173767089844 277.4677734375 283.3326416015625 284.4537658691406 275.26861572265625 C 287.4475402832031 276.6065673828125 277.7351989746094 272.8691101074219 270.8099670410156 267.4371032714844 C 260.3077392578125 258.1193542480469 244.32598876953125 247.42942810058594 235.85227966308594 240.42539978027344 C 215.1054229736328 218.16551208496094 228.52130126953125 216.5642547607422 219.81927490234375 190.1424102783203 C 238.81015014648438 162.84315490722656 250.08229064941406 138.91567993164062 295.6763610839844 162.16287231445312 C 250.43289184570312 186.09906005859375 258.2708435058594 192.74786376953125 250.1966552734375 227.35391235351562 C 238.29185485839844 220.39219665527344 243.2891387939453 226.4548797607422 249.20826721191406 236.3379364013672 C 259.46429443359375 250.06570434570312 265.9042663574219 253.8889617919922 279.5185241699219 255.0489044189453 C 287.1465759277344 254.31666564941406 296.287353515625 252.44541931152344 290.083984375 253.52899169921875 C 313.0386962890625 248.74884033203125 326.8094787597656 259.2598876953125 332.32147216796875 248.95001220703125 C 325.5726013183594 258.8774108886719 351.7434387207031 232.5059051513672 323.64630126953125 247.68531799316406 C 323.27691650390625 204.2451629638672 354.52178955078125 227.6531982421875 294.870361328125 164.7680206298828" stroke-width="0.0" fill="rgb(235, 32, 66)" opacity="0.9963056" stroke="rgb(39, 223, 127)" stroke-opacity="0.29838789" stroke-linecap="round" stroke-linejoin="round"/>
    <path d="M 136.3459014892578 215.40286254882812 C 141.65087890625 221.1370086669922 147.8289794921875 244.7613067626953 155.17811584472656 262.1220397949219 C 160.1366729736328 271.6640930175781 169.465087890625 285.8101501464844 175.10955810546875 291.88739013671875 C 179.2195587158203 296.9051513671875 190.9423828125 305.3583984375 191.84019470214844 306.366943359375 C 201.085205078125 311.94390869140625 203.17311096191406 311.7886047363281 198.14825439453125 309.99114990234375 C 202.46246337890625 311.2268981933594 205.23081970214844 311.53961181640625 204.24826049804688 317.1388244628906 C 204.81732177734375 312.7734680175781 204.79612731933594 313.68804931640625 202.28553771972656 312.70611572265625 C 208.11538696289062 314.7326965332031 199.2473907470703 308.1598815917969 200.3880157470703 311.6090087890625 C 197.53233337402344 310.9598693847656 201.83578491210938 311.138671875 201.23187255859375 312.405517578125 C 202.0540771484375 312.78485107421875 203.4076385498047 314.16033935546875 198.8233642578125 310.3938293457031 C 199.5704345703125 311.7279357910156 199.9982147216797 310.4019775390625 200.3859100341797 312.0332336425781 C 194.7747039794922 307.20166015625 202.60714721679688 313.0226135253906 198.5868377685547 309.24151611328125 C 200.23085021972656 311.3492736816406 198.09375 310.69927978515625 204.50674438476562 310.9401550292969 C 198.15724182128906 310.2622985839844 200.81997680664062 311.923583984375 201.42762756347656 312.2406921386719 C 197.61375427246094 308.712158203125 202.96873474121094 314.2366943359375 200.00897216796875 312.1067810058594 C 201.05374145507812 310.96600341796875 202.8925323486328 316.1600646972656 198.56466674804688 310.4291076660156 C 201.04605102539062 311.4604797363281 197.50367736816406 308.302978515625 202.5215301513672 314.3255920410156 C 200.42098999023438 312.0119323730469 198.3108673095703 309.3536071777344 198.6029510498047 310.6344909667969 C 205.7723388671875 313.17047119140625 198.36314392089844 308.5567932128906 200.498046875 311.4057922363281 C 200.59165954589844 309.418212890625 200.51480102539062 312.6080017089844 202.1344757080078 314.1671447753906 C 199.88726806640625 312.8564758300781 198.3042449951172 309.27447509765625 197.5596923828125 310.3818664550781 C 199.7552947998047 308.9012451171875 198.83993530273438 309.9311828613281 200.99307250976562 312.91455078125 C 201.6331024169922 318.1248474121094 200.19309997558594 313.014404296875 200.58644104003906 316.4599914550781 C 199.85350036621094 313.5001525878906 202.05747985839844 318.35760498046875 200.3466033935547 310.2457275390625 C 201.12506103515625 311.1330261230469 197.2952880859375 308.2261657714844 198.30650329589844 310.2002868652344 C 199.3701629638672 310.4329833984375 201.14793395996094 310.5346374511719 199.9727783203125 310.8390197753906 C 200.13136291503906 310.0364685058594 199.9659423828125 310.5506286621094 200.53858947753906 310.2958984375 C 198.6003875732422 309.6126403808594 203.3128662109375 313.84063720703125 200.30116271972656 311.11578369140625 C 210.52398681640625 316.5228576660156 217.75830078125 320.55731201171875 225.21214294433594 322.5252685546875 C 235.431396484375 326.6854248046875 251.80003356933594 332.2621765136719 258.63751220703125 332.1736755371094 C 275.4540710449219 330.24969482421875 275.0791931152344 330.8908996582031 298.3029479980469 319.9344177246094 C 281.8703918457031 313.3737487792969 311.4793395996094 301.08074951171875 339.0429992675781 285.1261901855469 C 371.4130859375 267.6747741699219 398.54364013671875 270.1431579589844 432.0787048339844 245.91482543945312 C 394.44549560546875 333.3368835449219 377.2969055175781 274.32476806640625 371.3468933105469 321.9329833984375 C 355.02484130859375 345.1920471191406 340.0438232421875 342.8551940917969 324.9144592285156 340.33612060546875 C 328.19757080078125 401.34222412109375 318.1510314941406 328.04449462890625 295.7456970214844 335.0270080566406 C 286.8034362792969 338.9294128417969 288.4329833984375 346.43072509765625 264.5464782714844 353.50762939453125 C 254.50079345703125 356.7052307128906 234.44908142089844 360.5006103515625 221.8485565185547 360.3494873046875 C 217.8336181640625 360.9564514160156 196.5815887451172 358.1014709472656 197.89744567871094 357.70452880859375 C 201.0177459716797 360.7177429199219 197.32997131347656 350.7465515136719 199.76605224609375 358.44525146484375 C 199.75721740722656 356.65386962890625 201.49771118164062 345.4736328125 202.06849670410156 344.4136047363281 C 200.8604278564453 348.1208190917969 202.3162384033203 344.99041748046875 201.29177856445312 346.96295166015625 C 201.5808868408203 345.88629150390625 205.0830841064453 343.475341796875 204.9467010498047 344.90704345703125 C 204.5601043701172 344.0277404785156 206.78204345703125 335.6365661621094 203.53863525390625 350.57562255859375 C 207.4306182861328 332.9994201660156 203.6758270263672 345.7579650878906 206.5407257080078 340.28167724609375 C 205.00408935546875 343.0018615722656 205.7836456298828 341.041748046875 206.01531982421875 342.0072021484375 C 205.68934631347656 341.9093933105469 205.84469604492188 339.4098815917969 204.7563934326172 344.62884521484375 C 205.60353088378906 343.4528503417969 202.5895233154297 345.906494140625 201.244384765625 347.63861083984375 C 202.45582580566406 342.5055847167969 201.04537963867188 347.5556945800781 199.53973388671875 359.86651611328125 C 200.8297882080078 350.94891357421875 198.72463989257812 363.73626708984375 199.81643676757812 357.93743896484375 C 198.10455322265625 353.4576721191406 198.39524841308594 354.4535217285156 200.00357055664062 358.3717956542969 C 200.11361694335938 357.3569030761719 197.69476318359375 357.0343933105469 200.34706115722656 358.07806396484375 C 201.28065490722656 358.5207214355469 186.19198608398438 355.2856140136719 186.1223907470703 353.89776611328125 C 182.62767028808594 353.57464599609375 171.857421875 348.6744689941406 171.86788940429688 348.36785888671875 C 167.63319396972656 347.482177734375 165.37904357910156 335.02117919921875 167.79150390625 338.93695068359375 C 165.3685302734375 335.2778625488281 167.5552215576172 345.2922668457031 165.90621948242188 324.03961181640625 C 165.02651977539062 323.19927978515625 161.3246612548828 315.4263610839844 162.8211669921875 305.3650207519531 C 161.57424926757812 320.84161376953125 163.8179931640625 303.5272216796875 160.93917846679688 306.6377868652344 C 164.64654541015625 306.08123779296875 156.93011474609375 304.1888122558594 153.80909729003906 302.8546142578125 C 148.87478637695312 300.8627014160156 137.93580627441406 295.28759765625 136.26625061035156 293.1080017089844 C 124.02327728271484 282.3172912597656 130.6060333251953 272.6512451171875 136.3459014892578 215.40286254882812" stroke-width="0.0" fill="rgb(237, 35, 68)" opacity="0.9959977" stroke="rgb(105, 35, 191)" stroke-opacity="0.6224693" stroke-linecap="round" stroke-linejoin="round"/>
    <path d="M 92.06856536865234 139.6886749267578 C 104.69245147705078 148.54037475585938 103.33509826660156 150.79298400878906 100.1112289428711 147.15390014648438 C 107.40115356445312 151.505859375 107.50495147705078 171.8446044921875 107.9410400390625 167.30360412597656 C 107.66630554199219 161.81503295898438 106.54244232177734 164.60060119628906 104.64042663574219 165.32310485839844 C 103.31483459472656 167.57504272460938 102.86359405517578 166.74452209472656 104.26285552978516 166.31016540527344 C 103.27735137939453 165.96542358398438 103.44561004638672 168.4099884033203 103.51557922363281 166.94703674316406 C 102.17076873779297 168.7600555419922 106.41449737548828 161.53128051757812 107.75375366210938 166.0930938720703 C 107.0136947631836 161.9871368408203 106.52674102783203 165.41844177246094 106.31655883789062 164.54302978515625 C 107.14873504638672 162.17715454101562 106.4653091430664 165.5220489501953 106.96768188476562 165.21157836914062 C 107.07757568359375 166.50379943847656 107.9057388305664 167.40501403808594 105.05451202392578 162.83860778808594 C 107.4454345703125 167.69149780273438 107.6024398803711 163.8671417236328 107.6310806274414 166.92250061035156 C 108.09272003173828 163.12368774414062 108.10423278808594 161.493408203125 107.81282806396484 167.01959228515625 C 105.89423370361328 163.96505737304688 107.66693878173828 166.73013305664062 107.50056457519531 166.82325744628906 C 108.27608489990234 167.76174926757812 107.60200500488281 157.80429077148438 108.03748321533203 169.0437774658203 C 105.226806640625 158.5965118408203 106.56653594970703 165.03109741210938 106.88736724853516 167.26959228515625 C 105.7103271484375 158.7681427001953 106.04414367675781 170.26260375976562 106.82646942138672 160.28500366210938 C 106.43630981445312 169.66136169433594 108.6306381225586 180.28233337402344 116.71656036376953 189.4993896484375 C 110.57182312011719 182.7272186279297 115.00201416015625 188.0894317626953 119.94740295410156 191.28939819335938 C 123.65496826171875 194.25466918945312 127.01839447021484 197.12417602539062 131.32058715820312 204.8860321044922 C 135.2398223876953 212.55755615234375 139.32972717285156 215.3978271484375 136.2300567626953 225.12147521972656 C 137.6039581298828 227.31765747070312 134.52635192871094 232.86740112304688 134.08285522460938 244.7341766357422 C 131.3027801513672 248.8637237548828 135.99783325195312 233.27423095703125 131.27810668945312 220.3415985107422 C 130.0673828125 218.16165161132812 125.612060546875 206.8544158935547 118.12727355957031 207.09474182128906 C 126.07502746582031 208.96324157714844 116.23420715332031 205.41761779785156 117.58419799804688 206.74229431152344 C 103.96551513671875 206.25198364257812 102.51431274414062 206.00775146484375 106.66442108154297 205.05361938476562 C 101.93730926513672 205.5413360595703 105.0403060913086 205.31103515625 110.2872543334961 196.9508514404297 C 110.09349822998047 201.5974578857422 109.15956115722656 197.01097106933594 110.26380920410156 196.66207885742188 C 108.02869415283203 197.72543334960938 108.33451843261719 193.53341674804688 102.80809783935547 200.00906372070312 C 90.16482543945312 216.65504455566406 57.08767318725586 231.70835876464844 54.53885269165039 199.05819702148438 C 89.34220886230469 200.95301818847656 108.72925567626953 192.03997802734375 99.23751831054688 199.0789794921875 C 107.59724426269531 192.85745239257812 94.5993423461914 193.98870849609375 101.5477294921875 194.7216796875 C 98.75751495361328 193.47564697265625 99.34183502197266 192.4796142578125 100.1027603149414 195.4652557373047 C 98.06715393066406 193.8683319091797 102.15939331054688 194.44200134277344 97.72843170166016 194.52073669433594 C 100.26495361328125 193.94195556640625 100.98245239257812 194.87831115722656 102.09784698486328 197.69090270996094 C 99.97547912597656 191.6402587890625 103.1142578125 196.63755798339844 103.11099243164062 196.53150939941406 C 101.84768676757812 195.59120178222656 102.93708038330078 195.49105834960938 102.42509460449219 195.51641845703125 C 106.73468780517578 195.04420471191406 91.10360717773438 192.26544189453125 96.81678771972656 193.79574584960938 C 95.04568481445312 194.2197265625 96.3432388305664 192.1661834716797 94.62032318115234 190.54977416992188 C 92.20803833007812 190.7650909423828 96.28137969970703 190.58804321289062 95.61128234863281 190.15431213378906 C 93.31423950195312 191.79611206054688 99.13967895507812 192.7188262939453 92.46713256835938 193.66238403320312 C 90.19580841064453 194.48980712890625 93.42668151855469 193.41766357421875 92.29328918457031 193.5530548095703 C 92.2279052734375 194.11756896972656 97.3955078125 192.74732971191406 95.49040222167969 192.32052612304688 C 96.26539611816406 193.71536254882812 93.8221664428711 193.90565490722656 94.57415771484375 193.2932891845703 C 98.06338500976562 193.44297790527344 86.52406311035156 191.727294921875 87.9361343383789 192.46287536621094 C 97.12462615966797 192.16876220703125 72.104248046875 191.2677764892578 70.92941284179688 190.75326538085938 C 79.469482421875 191.15760803222656 51.527587890625 192.05746459960938 55.718875885009766 191.2012176513672 C 45.343116760253906 188.20318603515625 36.248687744140625 181.05661010742188 35.55768966674805 182.96861267089844 C 35.70319747924805 189.13441467285156 46.8733024597168 198.8022003173828 56.792877197265625 198.44265747070312 C 50.90096664428711 207.8921661376953 39.48537063598633 196.17405700683594 30.162214279174805 192.49929809570312 C 14.790467262268066 183.7813720703125 18.858348846435547 164.28573608398438 20.420610427856445 161.65135192871094 C 27.174379348754883 143.25392150878906 32.9963264465332 129.82530212402344 36.35377883911133 114.10991668701172 C 101.38246154785156 104.59679412841797 39.6963996887207 122.24461364746094 38.291778564453125 139.18804931640625 C 31.737939834594727 165.06346130371094 34.285247802734375 168.7072296142578 41.40993118286133 178.4188995361328 C 45.627174377441406 180.75314331054688 50.2716178894043 179.0233917236328 50.073150634765625 179.29345703125 C 45.374996185302734 170.18190002441406 42.706783294677734 167.01974487304688 45.29084396362305 152.19302368164062 C 45.06730651855469 143.93630981445312 49.365882873535156 137.10577392578125 50.77515411376953 133.97679138183594 C 59.516231536865234 129.08546447753906 59.03811264038086 123.01071166992188 60.18252182006836 125.87056732177734 C 56.32861328125 123.89971923828125 59.043060302734375 133.44651794433594 58.48666763305664 130.00225830078125 C 59.67593002319336 133.90882873535156 59.91065216064453 133.97914123535156 58.52969741821289 133.62533569335938 C 61.565277099609375 134.3610076904297 56.77782440185547 127.61299133300781 57.92393493652344 126.1880874633789 C 68.3863754272461 115.58182525634766 48.497379302978516 120.39994049072266 92.06856536865234 139.6886749267578" stroke-width="0.0" fill="rgb(237, 38, 72)" opacity="0.9963131" stroke="rgb(245, 241, 135)" stroke-opacity="0.47498706" stroke-linecap="round" stroke-linejoin="round"/>
    <path d="M 323.9591369628906 39.633056640625 C 326.54095458984375 42.60982894897461 333.2734375 49.193328857421875 332.8039245605469 48.512699127197266 C 338.47454833984375 54.60606384277344 351.7521057128906 57.71348571777344 343.7312927246094 54.67036437988281 C 355.8428955078125 58.27174758911133 351.7530517578125 55.335201263427734 351.2945861816406 56.31205368041992 C 354.0890808105469 56.396568298339844 346.59552001953125 55.820438385009766 358.6731872558594 56.9731330871582 C 348.0076599121094 57.037071228027344 352.98828125 55.8631706237793 349.76171875 58.724857330322266 C 347.4056396484375 54.32463455200195 350.6289978027344 58.10129928588867 348.7181091308594 55.5521125793457 C 347.7646789550781 60.72987365722656 355.0352478027344 57.42116928100586 344.97479248046875 59.23469161987305 C 354.3760070800781 57.64045715332031 348.3105773925781 59.30061340332031 350.4699401855469 58.342166900634766 C 346.6081848144531 58.59614181518555 353.3624267578125 58.33732604980469 348.7252197265625 58.958290100097656 C 349.7865905761719 58.65726089477539 348.8343200683594 59.08046340942383 350.32049560546875 58.35400390625 C 350.0574951171875 59.92140197753906 351.0161437988281 56.43244934082031 352.01123046875 56.05125045776367 C 348.29608154296875 56.92216873168945 362.3331604003906 56.65848922729492 366.7895812988281 55.380455017089844 C 360.8414306640625 56.349266052246094 364.2816162109375 57.03779983520508 365.2898254394531 56.41400909423828 C 360.22821044921875 55.999847412109375 360.3216857910156 56.24789047241211 361.2728271484375 57.202980041503906 C 364.0582275390625 55.96920394897461 352.8714599609375 58.168479919433594 368.1153259277344 55.49824523925781 C 359.8594970703125 56.81333923339844 373.5222473144531 55.37565231323242 378.36871337890625 54.794525146484375 C 359.49871826171875 57.15056228637695 375.15869140625 54.487693786621094 359.152587890625 57.30934524536133 C 368.2430114746094 55.9356689453125 374.44329833984375 53.58518981933594 365.3612976074219 56.391517639160156 C 375.3773193359375 53.960365295410156 385.8356018066406 52.10242462158203 379.7868347167969 53.17872619628906 C 379.5537414550781 53.243019104003906 376.2889709472656 54.33220291137695 385.32781982421875 52.721641540527344 C 368.54217529296875 54.8178596496582 384.72283935546875 53.76057052612305 373.05364990234375 53.762840270996094 C 379.5142517089844 53.86231994628906 378.4620056152344 53.182884216308594 377.8023376464844 53.8967170715332 C 391.6493225097656 49.98274612426758 400.490478515625 53.33169174194336 407.73870849609375 57.76289749145508 C 400.2687683105469 53.671241760253906 408.44976806640625 57.511695861816406 408.71014404296875 64.26594543457031 C 409.00335693359375 62.617774963378906 411.180419921875 77.0400619506836 411.08203125 79.80963134765625 C 411.31915283203125 77.36182403564453 412.4288330078125 96.2966537475586 412.0582580566406 90.2315673828125 C 411.9256896972656 95.13704681396484 409.1263427734375 106.13099670410156 410.32794189453125 101.95276641845703 C 410.1786193847656 103.52777099609375 406.5199279785156 98.52800750732422 405.61480712890625 100.0478744506836 C 409.54071044921875 100.42741394042969 398.0893249511719 94.24297332763672 385.17333984375 88.90762329101562 C 389.5069274902344 90.96826171875 391.0639953613281 90.712890625 389.31622314453125 88.80819702148438 C 392.4508361816406 92.65943908691406 383.16357421875 87.89714813232422 388.7110290527344 90.35368347167969 C 391.66619873046875 90.02345275878906 369.4814453125 85.91292572021484 370.12725830078125 85.20770263671875 C 375.3772277832031 87.021484375 371.7943420410156 86.68122100830078 367.5638732910156 86.14131164550781 C 377.4226989746094 87.92353820800781 373.1991271972656 85.77821350097656 373.600341796875 82.85357666015625 C 373.07989501953125 84.55039978027344 376.126708984375 88.61750793457031 372.5724792480469 86.11279296875 C 375.4859313964844 86.78475189208984 373.33892822265625 86.36804962158203 372.5670166015625 86.90098571777344 C 374.779052734375 85.23279571533203 347.1704406738281 85.92019653320312 354.1497497558594 86.50120544433594 C 349.95294189453125 84.88693237304688 331.38641357421875 91.7714614868164 331.1510009765625 94.6471939086914 C 327.7392883300781 96.21887969970703 330.1216735839844 99.43099975585938 329.22283935546875 98.83163452148438 C 333.1018371582031 98.46839904785156 342.7301025390625 93.81068420410156 355.86749267578125 94.33341217041016 C 368.9768371582031 94.11141204833984 393.234130859375 95.29731750488281 409.30450439453125 112.72181701660156 C 425.4975280761719 137.06492614746094 432.8847961425781 110.06927490234375 437.6443786621094 154.11187744140625 C 429.6448669433594 189.64486694335938 430.3017272949219 172.69313049316406 405.2690734863281 154.20059204101562 C 359.54913330078125 127.8194808959961 334.86773681640625 98.96399688720703 292.25909423828125 91.78334045410156 C 242.40463256835938 91.48619842529297 288.2460021972656 106.6553726196289 207.49020385742188 102.23101806640625 C 216.47486877441406 97.49850463867188 213.09307861328125 81.68391418457031 227.7046356201172 71.83882904052734 C 244.16531372070312 57.508384704589844 252.8734130859375 66.70343017578125 264.8656005859375 81.37049102783203 C 288.7897644042969 84.03634643554688 312.54327392578125 87.15628814697266 314.7637939453125 88.3315200805664 C 330.79913330078125 88.88169860839844 321.1689147949219 81.9950942993164 310.0306396484375 76.92523193359375 C 292.519287109375 69.28536224365234 285.30535888671875 71.0768814086914 263.74005126953125 77.95172119140625 C 263.7625427246094 82.72163391113281 254.749267578125 63.949180603027344 241.31576538085938 64.60014343261719 C 274.1292724609375 61.3164176940918 274.23992919921875 68.03857421875 289.61669921875 67.60592651367188 C 297.0918884277344 66.33639526367188 306.1959228515625 60.702369689941406 311.0762634277344 55.9758186340332 C 316.34307861328125 50.1964111328125 319.76580810546875 51.60935974121094 320.5693359375 52.75040817260742 C 319.61871337890625 51.85824203491211 322.2568054199219 53.30742645263672 320.342041015625 52.4052734375 C 322.5110168457031 53.24129104614258 321.2694091796875 52.47278594970703 320.0084533691406 52.49919509887695 C 321.6241760253906 52.6736946105957 321.8282775878906 52.86699676513672 320.0399475097656 52.43769836425781 C 321.6549377441406 52.53358459472656 321.0050964355469 53.20468521118164 319.86090087890625 51.89255142211914 C 318.51080322265625 51.34464645385742 317.92578125 51.35516357421875 317.8950500488281 51.40923309326172 C 316.52667236328125 50.121673583984375 310.58563232421875 57.231075286865234 323.9591369628906 39.633056640625" stroke-width="0.0" fill="rgb(237, 36, 72)" opacity="0.9957581" stroke="rgb(67, 139, 215)" stroke-opacity="0.56347525" stroke-linecap="round" stroke-linejoin="round"/>
    <path d="M 280.5325012207031 102.45320892333984 C 294.3091125488281 100.24309539794922 322.3060302734375 108.8941421508789 335.69451904296875 117.54756164550781 C 356.2345275878906 130.510498046875 347.4739990234375 124.47486114501953 328.52056884765625 122.93439483642578 C 311.359375 123.8918228149414 304.38861083984375 130.14529418945312 299.5058288574219 136.86856079101562 C 292.3029479980469 144.33041381835938 291.1601867675781 150.6920928955078 289.6898498535156 151.46603393554688 C 288.1352844238281 146.6908416748047 273.2596740722656 141.3677520751953 263.9117736816406 141.56495666503906 C 263.07452392578125 141.03042602539062 250.1780548095703 140.68408203125 252.76795959472656 141.3823699951172 C 244.85882568359375 140.52198791503906 238.08404541015625 145.57154846191406 243.16290283203125 142.62257385253906 C 250.9168243408203 141.59768676757812 237.09523010253906 143.3072967529297 245.13079833984375 142.75315856933594 C 243.70933532714844 142.23129272460938 241.12442016601562 143.44618225097656 245.1177215576172 141.6346435546875 C 237.039794921875 144.68556213378906 239.33047485351562 143.96990966796875 246.04994201660156 142.0335235595703 C 237.52944946289062 145.0720977783203 228.7848663330078 148.65802001953125 229.5681915283203 159.523193359375 C 229.6939697265625 150.49197387695312 230.6082305908203 159.16140747070312 229.6124725341797 160.26519775390625 C 229.76806640625 154.8296661376953 229.3894500732422 161.5601043701172 228.06320190429688 161.94677734375 C 229.82907104492188 161.06698608398438 227.00314331054688 164.14842224121094 225.0907440185547 168.0807342529297 C 223.49945068359375 171.00839233398438 219.11398315429688 174.95709228515625 218.18991088867188 175.4097137451172 C 211.59410095214844 182.3885498046875 211.16563415527344 188.56674194335938 212.79283142089844 191.477294921875 C 211.65274047851562 192.84368896484375 216.93267822265625 203.44119262695312 218.75558471679688 204.44790649414062 C 219.2075958251953 211.99359130859375 215.83653259277344 218.8598175048828 222.1840057373047 232.6924285888672 C 226.42796325683594 242.04608154296875 236.4215850830078 251.75537109375 245.79017639160156 259.42962646484375 C 250.16102600097656 262.51885986328125 251.20205688476562 270.3017272949219 253.87257385253906 274.78662109375 C 241.0906982421875 266.69964599609375 229.970947265625 264.2156677246094 219.93077087402344 258.7748107910156 C 211.24478149414062 249.8263397216797 201.93869018554688 232.75318908691406 197.66770935058594 220.7513885498047 C 192.90577697753906 203.2982177734375 190.3418426513672 204.29273986816406 190.0682373046875 200.41990661621094 C 189.80165100097656 181.8423309326172 195.09344482421875 166.9969940185547 196.4140625 158.75588989257812 C 196.521484375 156.79360961914062 199.4609832763672 143.4669952392578 201.95632934570312 138.1965789794922 C 198.19418334960938 148.4812774658203 199.9610137939453 143.8355712890625 200.03004455566406 145.69822692871094 C 198.214599609375 143.9451904296875 200.49017333984375 141.67068481445312 199.35556030273438 143.6499481201172 C 199.14205932617188 144.77349853515625 200.75384521484375 143.68255615234375 199.79295349121094 144.1939239501953 C 199.97019958496094 142.3035430908203 199.7455291748047 141.7798309326172 199.50848388671875 144.65077209472656 C 198.41258239746094 143.50621032714844 200.68698120117188 143.75506591796875 199.8180389404297 143.48583984375 C 198.96035766601562 145.4111785888672 201.38011169433594 138.5825653076172 203.65838623046875 131.68142700195312 C 201.31976318359375 137.51132202148438 203.3370819091797 131.0395050048828 203.3129119873047 134.2545166015625 C 203.92745971679688 127.09601593017578 210.3486785888672 120.91361999511719 211.862060546875 116.04889678955078 C 214.06495666503906 115.45836639404297 216.06829833984375 111.6003189086914 223.8939971923828 111.01127624511719 C 220.61911010742188 110.91612243652344 230.66722106933594 109.6150894165039 241.4176025390625 114.229248046875 C 249.6243896484375 117.20596313476562 254.93785095214844 117.17098999023438 250.8614044189453 116.7569580078125 C 258.6508483886719 119.60173797607422 259.4203796386719 105.38006591796875 280.5325012207031 102.45320892333984" stroke-width="0.0" fill="rgb(236, 34, 69)" opacity="0.9961642" stroke="rgb(59, 70, 74)" stroke-opacity="0.12747656" stroke-linecap="round" stroke-linejoin="round"/>
    <path d="M 163.2974090576172 201.91111755371094 C 164.97039794921875 202.20230102539062 166.4496612548828 202.75665283203125 167.49176025390625 203.63392639160156 C 168.50576782226562 204.43212890625 169.23829650878906 205.05397033691406 169.71365356445312 205.41796875 C 170.1634063720703 205.66552734375 170.5769805908203 206.02508544921875 170.94451904296875 206.24310302734375 C 171.34690856933594 206.26747131347656 171.61956787109375 206.46937561035156 171.78469848632812 206.85923767089844 C 172.03668212890625 207.2819366455078 172.43695068359375 207.5795440673828 173.01507568359375 207.79893493652344 C 173.50271606445312 208.3498992919922 173.97145080566406 209.27490234375 174.6929931640625 210.30123901367188 C 175.5251922607422 211.34701538085938 176.734130859375 212.16880798339844 177.98934936523438 213.10585021972656 C 179.2930145263672 214.24913024902344 180.3501739501953 215.57350158691406 181.14505004882812 216.9674072265625 C 181.9097137451172 218.27606201171875 182.70217895507812 219.2838134765625 183.44859313964844 220.22079467773438 C 183.96408081054688 221.39364624023438 184.163330078125 222.4795684814453 184.3116912841797 223.33358764648438 C 184.41513061523438 224.00701904296875 184.85858154296875 224.6569061279297 185.52865600585938 225.4412078857422 C 186.05567932128906 226.44940185546875 186.61703491210938 227.60023498535156 186.93649291992188 228.79005432128906 C 187.32789611816406 230.04348754882812 187.58949279785156 231.25657653808594 187.7754364013672 232.48049926757812 C 188.50320434570312 233.63568115234375 189.3278350830078 234.7212677001953 189.88729858398438 235.92613220214844 C 190.49505615234375 237.31788635253906 191.0906219482422 238.8545379638672 191.90966796875 240.35043334960938 C 192.91603088378906 241.9243621826172 194.0609130859375 243.6298828125 195.37783813476562 245.42942810058594 C 196.97157287597656 247.17022705078125 198.52774047851562 249.18812561035156 200.06838989257812 251.49537658691406 C 201.78810119628906 253.83941650390625 204.02169799804688 255.94332885742188 206.03964233398438 258.3436279296875 C 208.19769287109375 260.7509460449219 210.91041564941406 262.4822692871094 213.71298217773438 264.134033203125 C 216.19888305664062 266.1828918457031 218.75953674316406 268.1180114746094 221.43235778808594 269.5734558105469 C 224.13473510742188 271.0360107421875 226.69461059570312 272.31134033203125 229.2665557861328 273.6108093261719 C 232.09010314941406 274.8945007324219 234.4952850341797 276.07550048828125 236.62106323242188 276.96282958984375 C 238.71292114257812 277.9949951171875 240.7884521484375 278.96044921875 242.58624267578125 279.77850341796875 C 244.17767333984375 280.5387878417969 245.57330322265625 281.2235107421875 246.82688903808594 281.8214111328125 C 247.5531463623047 282.84454345703125 248.40249633789062 283.628173828125 249.57066345214844 283.7438049316406 C 251.1743927001953 283.93780517578125 252.5184326171875 284.30352783203125 253.48709106445312 285.1298522949219 C 254.37918090820312 286.16009521484375 255.79571533203125 286.8289489746094 257.36297607421875 287.2738342285156 C 258.832275390625 288.0218505859375 260.3902893066406 289.0436706542969 262.35845947265625 290.0864562988281 C 264.1912536621094 291.2395935058594 266.45648193359375 292.40069580078125 269.07891845703125 293.84613037109375 C 271.81427001953125 295.3896789550781 274.885009765625 296.9932556152344 278.2663879394531 298.91253662109375 C 281.7792663574219 300.6910400390625 285.3763732910156 302.09503173828125 289.0737609863281 303.30596923828125 C 292.6294250488281 304.358642578125 295.8990173339844 305.2352600097656 298.8359375 305.37237548828125 C 301.3251953125 304.9809875488281 303.24945068359375 304.655517578125 304.35626220703125 304.84130859375 C 304.646484375 305.7439270019531 304.2539367675781 307.369873046875 303.2242431640625 309.5238952636719 C 301.757080078125 311.8276672363281 299.930419921875 313.93438720703125 297.8542175292969 315.6476135253906 C 295.46966552734375 316.8241882324219 292.82720947265625 317.43890380859375 290.0396728515625 317.517333984375 C 286.810546875 317.1600341796875 283.3306884765625 316.51287841796875 279.88104248046875 315.89752197265625 C 276.4513244628906 315.44927978515625 272.8796691894531 314.8809814453125 269.06707763671875 314.053955078125 C 265.1015625 313.389892578125 261.0167541503906 312.53973388671875 256.99578857421875 311.16912841796875 C 253.10325622558594 309.6239013671875 248.96829223632812 308.06707763671875 244.76060485839844 306.05584716796875 C 240.729248046875 303.85406494140625 236.81881713867188 301.6222839355469 232.9072723388672 299.4324951171875 C 229.11968994140625 297.3701477050781 225.58786010742188 295.6868591308594 222.3862762451172 294.55242919921875 C 219.91578674316406 293.9717102050781 218.2742156982422 294.0582580566406 217.35394287109375 295.2366638183594 C 217.39215087890625 297.2806701660156 218.20396423339844 299.6984558105469 219.28623962402344 302.29229736328125 C 220.5034942626953 304.7603454589844 221.28488159179688 307.035400390625 221.53045654296875 308.6312255859375 C 220.78915405273438 309.20806884765625 219.0571746826172 308.849609375 216.48104858398438 308.0306701660156 C 213.25108337402344 306.5424499511719 209.79208374023438 304.46728515625 206.30221557617188 301.82470703125 C 202.73239135742188 298.9259033203125 199.14761352539062 296.0162353515625 195.8037567138672 293.0661315917969 C 192.54254150390625 290.2968444824219 189.58360290527344 287.5561828613281 187.0811309814453 284.9163513183594 C 184.53602600097656 282.5681457519531 182.55886840820312 280.3852233886719 180.87393188476562 278.11688232421875 C 179.19815063476562 275.9768371582031 177.62411499023438 274.1468200683594 175.92018127441406 272.29595947265625 C 174.64166259765625 270.07049560546875 173.65440368652344 268.0860900878906 172.08778381347656 266.15655517578125 C 170.56576538085938 264.2488708496094 169.63616943359375 262.048583984375 168.73794555664062 259.72125244140625 C 167.57977294921875 257.2148742675781 166.5094451904297 254.8802490234375 165.51806640625 252.68710327148438 C 164.322021484375 250.38751220703125 163.3201446533203 247.7862091064453 162.607421875 245.08668518066406 C 161.9213409423828 242.45350646972656 161.0871124267578 239.7548828125 160.416259765625 236.75906372070312 C 159.76869201660156 233.66603088378906 159.39364624023438 230.39215087890625 158.86814880371094 227.03294372558594 C 158.61155700683594 223.51438903808594 158.5385284423828 219.96978759765625 158.6502685546875 216.5636444091797 C 159.0375518798828 213.21182250976562 159.69456481933594 209.7254638671875 160.62771606445312 206.24017333984375 C 161.79917907714844 202.90911865234375 163.49661254882812 199.87843322753906 163.2974090576172 201.91111755371094" stroke-width="0.0" fill="rgb(236, 36, 69)" opacity="0.99686044" stroke="rgb(163, 130, 182)" stroke-opacity="0.2098466" stroke-linecap="round" stroke-linejoin="round"/>
    <path d="M 380.50921630859375 160.74307250976562 C 381.26092529296875 160.31298828125 382.03912353515625 159.93722534179688 382.7964172363281 159.67318725585938 C 383.5242919921875 159.47689819335938 384.251708984375 159.3180694580078 385.043701171875 159.20730590820312 C 385.91375732421875 159.16896057128906 386.7579650878906 159.28128051757812 387.5364685058594 159.5409393310547 C 388.31488037109375 159.78663635253906 389.1025085449219 160.05941772460938 389.83837890625 160.47183227539062 C 390.4533386230469 161.21798706054688 390.9023742675781 162.0736541748047 391.4837341308594 162.7256622314453 C 392.0608825683594 163.16342163085938 392.3843688964844 163.83941650390625 392.54150390625 164.62315368652344 C 392.69097900390625 165.40347290039062 392.7298278808594 166.23590087890625 392.6058044433594 166.97769165039062 C 393.1832275390625 167.50421142578125 393.42730712890625 168.19610595703125 393.5502014160156 168.95176696777344 C 393.6810302734375 169.71072387695312 393.92987060546875 170.3721160888672 394.3034362792969 171.19305419921875 C 394.43292236328125 172.08682250976562 394.58795166015625 173.04266357421875 394.8846435546875 173.937255859375 C 395.1105651855469 174.82765197753906 395.42059326171875 175.62803649902344 395.9870910644531 176.33763122558594 C 396.5078430175781 177.0540313720703 396.7909240722656 177.65023803710938 397.07049560546875 177.76983642578125 C 397.5142517089844 177.8406982421875 398.1000061035156 177.70228576660156 398.69921875 177.4420166015625 C 399.2853088378906 176.91070556640625 399.7872314453125 176.13465881347656 400.2681579589844 175.32228088378906 C 400.8248291015625 174.54373168945312 401.537841796875 173.77264404296875 402.346923828125 173.12518310546875 C 403.08331298828125 172.76416015625 403.8887634277344 172.65538024902344 404.5419006347656 172.5458526611328 C 405.14703369140625 172.33799743652344 406.1299133300781 172.3064422607422 407.2949523925781 172.22390747070312 C 408.40350341796875 172.2193145751953 409.6808166503906 172.91445922851562 410.9644470214844 173.557373046875 C 412.413330078125 173.75030517578125 413.8553771972656 173.81251525878906 415.0476989746094 174.27342224121094 C 415.8000793457031 175.10589599609375 416.3259582519531 175.5614776611328 417.0852355957031 175.9008026123047 C 418.0076904296875 176.253662109375 419.19635009765625 176.65731811523438 420.3945007324219 177.012451171875 C 421.2889404296875 177.27308654785156 421.6699523925781 177.9432373046875 422.159912109375 178.44020080566406 C 423.12933349609375 178.35934448242188 423.63525390625 178.85733032226562 424.5508117675781 179.4850616455078 C 425.2872619628906 180.28915405273438 426.16485595703125 180.7206573486328 427.1153564453125 180.9368438720703 C 427.92877197265625 181.385009765625 429.06439208984375 181.9869384765625 430.60186767578125 182.57891845703125 C 432.25140380859375 183.2465362548828 433.5723571777344 184.20985412597656 435.06500244140625 185.3892059326172 C 437.1435241699219 186.04446411132812 439.386962890625 186.69105529785156 441.2549743652344 187.3435821533203 C 443.28509521484375 188.28506469726562 445.18524169921875 189.0050506591797 447.0019226074219 189.3162078857422 C 448.7439270019531 189.4454803466797 450.0897216796875 189.4775390625 450.6326599121094 189.66127014160156 C 450.2547912597656 190.34947204589844 449.2704162597656 191.06295776367188 447.7845458984375 191.65802001953125 C 445.7185974121094 192.57740783691406 443.5806884765625 194.10882568359375 441.7427673339844 196.11764526367188 C 440.19732666015625 198.050048828125 438.8590393066406 200.22833251953125 438.39874267578125 202.9371337890625 C 438.5021057128906 206.03936767578125 438.99749755859375 209.26431274414062 439.8539123535156 212.42507934570312 C 440.6927490234375 215.85256958007812 441.5805969238281 219.45420837402344 442.1689758300781 223.0384063720703 C 441.7629699707031 226.43740844726562 441.0125427246094 229.7289276123047 440.65338134765625 232.949951171875 C 440.37078857421875 236.2631378173828 440.04815673828125 239.6221160888672 439.2972717285156 242.78274536132812 C 437.9526062011719 246.28366088867188 436.6757507324219 249.5731964111328 435.35394287109375 252.73211669921875 C 433.2872009277344 256.08111572265625 431.3135681152344 259.5672607421875 429.2633056640625 262.6380615234375 C 427.117431640625 266.03106689453125 425.0673828125 269.3888854980469 423.0318603515625 272.65167236328125 C 420.6619567871094 275.697509765625 418.44476318359375 278.47314453125 416.4401550292969 280.90350341796875 C 414.61871337890625 282.9758605957031 413.0142517089844 284.4670715332031 411.6183776855469 285.58245849609375 C 410.55072021484375 286.4128112792969 409.7779235839844 286.9844970703125 409.1974182128906 287.2524719238281 C 408.6278991699219 286.8936462402344 408.1247253417969 285.90234375 407.4557800292969 284.55450439453125 C 406.664306640625 282.9073181152344 405.71710205078125 281.1858825683594 404.51806640625 279.2024841308594 C 402.9252014160156 277.07080078125 401.30303955078125 275.0054931640625 399.7479248046875 273.0693359375 C 398.1139831542969 271.3094482421875 396.54095458984375 269.72735595703125 395.1268005371094 268.2195129394531 C 393.99517822265625 266.8873596191406 393.4170227050781 265.65362548828125 393.3858947753906 264.5845642089844 C 394.02362060546875 263.6072692871094 394.97833251953125 262.5819396972656 396.2347412109375 261.3273010253906 C 397.4125061035156 259.528564453125 398.53668212890625 257.52239990234375 399.55474853515625 254.99159240722656 C 400.26239013671875 251.85377502441406 401.0770568847656 248.4962158203125 401.68853759765625 245.2270965576172 C 402.1638488769531 241.79762268066406 402.4470520019531 238.22821044921875 402.6732482910156 234.6422882080078 C 402.7153625488281 231.1922607421875 402.5484313964844 227.92079162597656 402.2073669433594 224.64491271972656 C 401.8313903808594 221.3759765625 401.0668029785156 218.16384887695312 400.30731201171875 215.20787048339844 C 399.5368957519531 212.38711547851562 398.79290771484375 209.42762756347656 398.2912902832031 206.0269317626953 C 397.764404296875 202.5025634765625 397.1924743652344 199.1867218017578 396.1785583496094 196.21392822265625 C 394.6424255371094 193.7642822265625 393.5379638671875 191.10067749023438 392.714599609375 187.92193603515625 C 391.27020263671875 184.92764282226562 389.75 181.60292053222656 387.905517578125 178.45042419433594 C 385.893798828125 175.42471313476562 383.632568359375 172.59619140625 381.1432189941406 170.01168823242188 C 378.626708984375 167.55551147460938 375.6561584472656 165.28770446777344 372.4266357421875 163.40872192382812 C 368.8576354980469 161.9302978515625 365.2434387207031 160.63230895996094 380.50921630859375 160.74307250976562" stroke-width="0.0" fill="rgb(236, 35, 69)" opacity="0.9980096" stroke="rgb(230, 60, 45)" stroke-opacity="0.8909439" stroke-linecap="round" stroke-linejoin="round"/>
    <path d="M 319.0 359.0 C 320.0 360.0 320.0 361.0 321.0 362.0 C 321.0 363.0 322.0 364.0 323.0 365.0 C 324.0 365.0 325.0 365.0 325.0 366.0 C 325.0 367.0 326.0 368.0 326.0 369.0 C 325.0 369.0 324.0 369.0 323.0 369.0 C 322.0 370.0 322.0 371.0 322.0 372.0 C 321.0 371.0 321.0 370.0 320.0 369.0 C 320.0 368.0 319.0 367.0 318.0 366.0 C 317.0 366.0 316.0 367.0 316.0 368.0 C 315.0 369.0 315.0 370.0 314.0 371.0 C 314.0 372.0 313.0 373.0 313.0 374.0 C 313.0 375.0 312.0 376.0 312.0 377.0 C 312.0 378.0 312.0 379.0 311.0 380.0 C 311.0 381.0 311.0 382.0 311.0 383.0 C 310.0 384.0 310.0 385.0 310.0 386.0 C 310.0 387.0 309.0 388.0 309.0 389.0 C 309.0 390.0 309.0 391.0 308.0 392.0 C 308.0 393.0 308.0 394.0 308.0 395.0 C 307.0 396.0 307.0 397.0 307.0 398.0 C 307.0 399.0 306.0 400.0 306.0 402.0 C 306.0 404.0 305.0 406.0 305.0 408.0 C 305.0 410.0 304.0 412.0 304.0 414.0 C 304.0 416.0 304.0 418.0 304.0 420.0 C 304.0 422.0 303.0 424.0 303.0 426.0 C 303.0 428.0 303.0 430.0 303.0 432.0 C 303.0 434.0 303.0 436.0 304.0 438.0 C 304.0 440.0 305.0 442.0 306.0 444.0 C 307.0 446.0 307.0 448.0 306.0 450.0 C 304.0 451.0 302.0 453.0 300.0 454.0 C 299.0 456.0 297.0 458.0 296.0 460.0 C 296.0 462.0 295.0 464.0 295.0 466.0 C 294.0 468.0 294.0 470.0 294.0 472.0 C 293.0 474.0 293.0 476.0 293.0 478.0 C 292.0 480.0 291.0 482.0 289.0 483.0 C 287.0 483.0 285.0 482.0 286.0 481.0 C 288.0 481.0 290.0 480.0 290.0 478.0 C 290.0 476.0 289.0 474.0 291.0 472.0 C 291.0 470.0 290.0 468.0 289.0 467.0 C 288.0 465.0 286.0 465.0 286.0 463.0 C 287.0 461.0 288.0 459.0 288.0 457.0 C 288.0 455.0 289.0 453.0 289.0 451.0 C 289.0 449.0 290.0 447.0 290.0 445.0 C 290.0 443.0 290.0 441.0 290.0 439.0 C 290.0 437.0 290.0 435.0 290.0 433.0 C 290.0 431.0 290.0 429.0 290.0 427.0 C 291.0 425.0 291.0 423.0 291.0 421.0 C 292.0 419.0 292.0 417.0 292.0 415.0 C 293.0 413.0 293.0 411.0 294.0 409.0 C 294.0 407.0 295.0 405.0 295.0 403.0 C 296.0 401.0 296.0 399.0 297.0 397.0 C 297.0 395.0 298.0 393.0 298.0 391.0 C 299.0 389.0 300.0 387.0 300.0 385.0 C 301.0 383.0 302.0 381.0 303.0 379.0 C 303.0 377.0 304.0 375.0 305.0 373.0 C 306.0 371.0 306.0 369.0 307.0 367.0 C 308.0 365.0 309.0 363.0 309.0 363.0 C 310.0 365.0 312.0 365.0 313.0 363.0 C 313.0 363.0 315.0 364.0 316.0 366.0 C 318.0 366.0 319.0 364.0 319.0 362.0 C 319.0 360.0 319.0 358.0 319.0 359.0" stroke-width="0.0" fill="rgb(235, 37, 68)" opacity="1.0" stroke="rgb(107, 18, 225)" stroke-opacity="0.19337226" stroke-linecap="round" stroke-linejoin="round"/>
    <path d="M 109.0 122.0 C 110.0 122.0 111.0 122.0 112.0 122.0 C 112.0 123.0 112.0 124.0 113.0 125.0 C 114.0 126.0 115.0 126.0 115.0 127.0 C 116.0 128.0 117.0 128.0 118.0 128.0 C 119.0 128.0 120.0 128.0 120.0 129.0 C 120.0 130.0 119.0 131.0 120.0 132.0 C 121.0 132.0 121.0 133.0 122.0 134.0 C 123.0 134.0 124.0 134.0 125.0 134.0 C 126.0 134.0 126.0 135.0 126.0 136.0 C 126.0 137.0 127.0 138.0 128.0 138.0 C 128.0 139.0 128.0 140.0 129.0 141.0 C 130.0 141.0 130.0 142.0 130.0 143.0 C 130.0 144.0 130.0 145.0 130.0 146.0 C 130.0 147.0 131.0 148.0 132.0 148.0 C 132.0 149.0 132.0 150.0 132.0 151.0 C 132.0 152.0 131.0 152.0 130.0 152.0 C 129.0 153.0 129.0 154.0 130.0 155.0 C 131.0 155.0 132.0 155.0 132.0 156.0 C 132.0 157.0 132.0 158.0 132.0 159.0 C 132.0 160.0 132.0 161.0 132.0 162.0 C 132.0 163.0 131.0 163.0 130.0 164.0 C 130.0 165.0 130.0 166.0 129.0 167.0 C 128.0 167.0 127.0 168.0 127.0 169.0 C 128.0 170.0 128.0 171.0 128.0 172.0 C 128.0 173.0 127.0 173.0 126.0 173.0 C 125.0 173.0 124.0 173.0 123.0 174.0 C 123.0 175.0 122.0 175.0 121.0 175.0 C 120.0 176.0 120.0 177.0 119.0 177.0 C 118.0 177.0 117.0 177.0 117.0 176.0 C 117.0 175.0 117.0 174.0 118.0 173.0 C 117.0 172.0 116.0 172.0 115.0 171.0 C 115.0 170.0 115.0 169.0 115.0 168.0 C 115.0 167.0 115.0 166.0 116.0 165.0 C 117.0 164.0 117.0 163.0 117.0 162.0 C 118.0 162.0 119.0 162.0 120.0 161.0 C 120.0 160.0 119.0 159.0 118.0 158.0 C 117.0 158.0 117.0 157.0 117.0 156.0 C 118.0 156.0 119.0 156.0 120.0 155.0 C 119.0 154.0 119.0 153.0 119.0 152.0 C 119.0 151.0 119.0 150.0 119.0 149.0 C 118.0 148.0 117.0 147.0 116.0 147.0 C 116.0 146.0 115.0 145.0 114.0 145.0 C 113.0 145.0 113.0 144.0 113.0 143.0 C 113.0 142.0 113.0 141.0 112.0 140.0 C 111.0 140.0 110.0 139.0 109.0 139.0 C 109.0 138.0 109.0 137.0 109.0 136.0 C 108.0 135.0 108.0 134.0 108.0 133.0 C 108.0 132.0 107.0 131.0 107.0 130.0 C 107.0 129.0 107.0 128.0 107.0 127.0 C 106.0 126.0 106.0 125.0 106.0 124.0 C 106.0 123.0 106.0 122.0 109.0 122.0" stroke-width="0.0" fill="rgb(235, 36, 68)" opacity="1.0" stroke="rgb(190, 66, 47)" stroke-opacity="0.1160428" stroke-linecap="round" stroke-linejoin="round"/>
    <path d="M 283.0 181.0 C 284.0 181.0 285.0 181.0 285.0 182.0 C 285.0 183.0 284.0 183.0 283.0 184.0 C 283.0 185.0 283.0 186.0 284.0 187.0 C 284.0 188.0 285.0 189.0 286.0 189.0 C 287.0 189.0 288.0 188.0 289.0 188.0 C 290.0 188.0 291.0 188.0 292.0 188.0 C 293.0 187.0 294.0 187.0 295.0 186.0 C 295.0 185.0 295.0 184.0 294.0 183.0 C 293.0 183.0 292.0 183.0 291.0 183.0 C 291.0 182.0 291.0 181.0 292.0 181.0 C 293.0 181.0 294.0 182.0 295.0 182.0 C 296.0 182.0 297.0 183.0 298.0 183.0 C 299.0 184.0 300.0 185.0 301.0 186.0 C 301.0 187.0 301.0 188.0 302.0 189.0 C 302.0 190.0 303.0 191.0 304.0 191.0 C 305.0 191.0 306.0 192.0 306.0 193.0 C 307.0 194.0 307.0 195.0 307.0 196.0 C 307.0 197.0 307.0 198.0 308.0 199.0 C 308.0 200.0 308.0 201.0 308.0 202.0 C 308.0 203.0 308.0 204.0 307.0 204.0 C 306.0 204.0 305.0 204.0 304.0 204.0 C 303.0 204.0 303.0 203.0 303.0 202.0 C 302.0 201.0 301.0 202.0 300.0 202.0 C 299.0 202.0 298.0 201.0 297.0 201.0 C 296.0 200.0 295.0 199.0 295.0 198.0 C 295.0 197.0 295.0 196.0 295.0 195.0 C 294.0 194.0 293.0 194.0 292.0 194.0 C 292.0 193.0 292.0 192.0 292.0 191.0 C 291.0 190.0 290.0 190.0 289.0 190.0 C 288.0 190.0 287.0 190.0 286.0 190.0 C 285.0 191.0 283.0 191.0 281.0 192.0 C 280.0 194.0 278.0 195.0 277.0 197.0 C 276.0 198.0 274.0 200.0 273.0 202.0 C 273.0 204.0 272.0 206.0 271.0 208.0 C 271.0 210.0 270.0 212.0 269.0 214.0 C 269.0 216.0 268.0 218.0 268.0 220.0 C 268.0 222.0 269.0 224.0 269.0 226.0 C 269.0 228.0 270.0 230.0 272.0 232.0 C 273.0 234.0 275.0 235.0 277.0 236.0 C 279.0 237.0 281.0 238.0 283.0 239.0 C 285.0 239.0 283.0 239.0 282.0 241.0 C 282.0 243.0 284.0 245.0 284.0 245.0 C 282.0 245.0 280.0 245.0 278.0 245.0 C 276.0 246.0 274.0 246.0 274.0 244.0 C 272.0 244.0 270.0 244.0 268.0 244.0 C 266.0 242.0 265.0 240.0 263.0 240.0 C 262.0 238.0 261.0 237.0 260.0 235.0 C 259.0 233.0 258.0 231.0 258.0 229.0 C 258.0 227.0 259.0 226.0 261.0 225.0 C 263.0 225.0 264.0 223.0 264.0 221.0 C 264.0 219.0 265.0 217.0 266.0 215.0 C 265.0 213.0 264.0 212.0 264.0 210.0 C 265.0 208.0 265.0 208.0 266.0 210.0 C 268.0 210.0 269.0 208.0 268.0 206.0 C 269.0 204.0 270.0 202.0 270.0 200.0 C 271.0 198.0 271.0 196.0 273.0 196.0 C 275.0 195.0 277.0 194.0 278.0 193.0 C 279.0 191.0 279.0 189.0 280.0 188.0 C 281.0 186.0 281.0 184.0 280.0 182.0 C 280.0 182.0 282.0 181.0 283.0 181.0" stroke-width="0.0" fill="rgb(238, 35, 69)" opacity="1.0" stroke="rgb(176, 221, 190)" stroke-opacity="0.5641199" stroke-linecap="round" stroke-linejoin="round"/>
  </g>
</svg>
