<?xml version="1.0" ?>
<svg xmlns="http://www.w3.org/2000/svg" version="1.1" width="474" height="596">
  <defs/>
  <g>
    <path d="M 268.44873046875 -1.2343188524246216 C 269.38568115234375 -1.8516230583190918 270.34063720703125 -2.4152824878692627 271.3272399902344 -2.865602493286133 C 272.1144714355469 -3.335047483444214 272.6557922363281 -3.6987717151641846 273.0537109375 -3.979405641555786 C 273.1990661621094 -4.253750801086426 273.15625 -4.449271202087402 273.0528259277344 -4.535284042358398 C 272.9891357421875 -4.444692134857178 273.2055969238281 -4.208514213562012 273.68011474609375 -3.896578550338745 C 274.99102783203125 -3.1370136737823486 276.9353942871094 -2.0607755184173584 279.55096435546875 -0.5993928909301758 C 283.5815734863281 0.7623185515403748 289.0331115722656 2.0262022018432617 295.9386291503906 3.361891508102417 C 303.6981201171875 5.479033946990967 311.9595031738281 8.24166202545166 320.2325134277344 11.689165115356445 C 328.4347839355469 15.348481178283691 336.3544616699219 19.4774227142334 344.2014465332031 24.018299102783203 C 352.16009521484375 28.840251922607422 360.03240966796875 34.62140655517578 368.31463623046875 40.857505798339844 C 376.5765686035156 47.92076110839844 384.6819152832031 55.52862548828125 392.32159423828125 63.489646911621094 C 399.3070068359375 71.42605590820312 405.63165283203125 79.34081268310547 411.666748046875 87.25603485107422 C 417.55438232421875 95.59458923339844 423.13543701171875 104.41539764404297 428.42529296875 112.99555206298828 C 433.3190002441406 120.56812286376953 434.8280029296875 127.87164306640625 432.2235412597656 135.65292358398438 C 428.1784973144531 144.37701416015625 422.538818359375 152.87295532226562 415.9273376464844 161.054931640625 C 409.0700378417969 169.30386352539062 401.3699951171875 177.09400939941406 393.1519470214844 184.40899658203125 C 384.9909362792969 191.28614807128906 376.9732666015625 197.62599182128906 369.005859375 203.48622131347656 C 360.8168640136719 209.0739288330078 352.3031921386719 214.46385192871094 342.8104553222656 219.04380798339844 C 332.5311584472656 222.62254333496094 323.4995422363281 225.31356811523438 317.45660400390625 225.46322631835938 C 316.4122314453125 222.0303497314453 320.1065368652344 215.9602813720703 326.8709716796875 208.56036376953125 C 334.9601135253906 200.9261474609375 343.06890869140625 193.2639923095703 350.22601318359375 185.66363525390625 C 355.89141845703125 178.1090850830078 360.2768249511719 170.40646362304688 363.58447265625 162.3948211669922 C 365.95916748046875 154.0833282470703 367.3899841308594 145.87025451660156 367.7994079589844 138.15383911132812 C 367.0792236328125 131.29588317871094 365.14178466796875 125.48828887939453 361.6300048828125 120.82011413574219 C 355.94970703125 117.14556121826172 349.52349853515625 114.17605590820312 343.3036804199219 110.87369537353516 C 337.6584167480469 106.18207550048828 331.2788391113281 102.56962585449219 324.1634521484375 100.7225112915039 C 316.8760986328125 100.19670867919922 308.9681701660156 101.91825866699219 300.6050720214844 103.78402709960938 C 292.0714111328125 105.39277648925781 283.98248291015625 106.83650207519531 276.4971008300781 107.75733947753906 C 269.6001281738281 108.1149673461914 263.42523193359375 107.9729995727539 258.1923828125 107.72286987304688 C 254.16688537597656 107.63837432861328 251.1065673828125 108.00440216064453 248.5355682373047 109.38850402832031 C 245.69546508789062 111.55147552490234 242.1563720703125 114.17850494384766 237.65780639648438 117.23284149169922 C 232.08847045898438 120.55917358398438 225.6593780517578 123.90951538085938 218.55760192871094 127.00640869140625 C 210.88601684570312 129.6136474609375 202.89285278320312 131.81878662109375 194.93406677246094 133.5586395263672 C 187.33274841308594 134.70826721191406 180.2203369140625 135.52401733398438 173.65902709960938 136.30337524414062 C 167.72996520996094 137.4159698486328 162.55795288085938 139.21365356445312 158.26390075683594 141.89144897460938 C 154.8080596923828 145.49940490722656 152.11355590820312 150.09385681152344 150.12530517578125 155.69520568847656 C 148.81153869628906 162.2336883544922 148.3058319091797 169.6000213623047 148.68197631835938 177.6357879638672 C 149.99417114257812 186.13558959960938 152.55455017089844 194.8702392578125 156.55784606933594 203.61016845703125 C 162.1343536376953 212.09774780273438 169.1022491455078 219.91444396972656 177.2490692138672 226.61390686035156 C 186.1630096435547 231.79818725585938 195.0752716064453 235.48902893066406 203.03030395507812 238.02684020996094 C 209.0795135498047 240.1239776611328 212.02609252929688 242.27529907226562 211.53492736816406 244.15357971191406 C 207.65219116210938 244.6912078857422 201.76478576660156 243.40138244628906 194.25889587402344 240.72091674804688 C 185.31024169921875 240.07579040527344 175.57733154296875 240.53543090820312 165.76278686523438 240.7772216796875 C 155.98666381835938 241.0171661376953 146.6678924560547 240.7310333251953 138.02760314941406 239.68736267089844 C 129.40086364746094 238.45343017578125 121.44342803955078 236.41696166992188 113.3850326538086 234.383544921875 C 105.2943344116211 232.51025390625 96.93354797363281 229.6812744140625 88.57904052734375 226.56906127929688 C 80.1125717163086 223.13555908203125 71.90396881103516 219.1856231689453 64.48253631591797 214.73748779296875 C 57.79721450805664 211.0641326904297 54.06025695800781 205.7084197998047 53.26149368286133 198.29995727539062 C 53.717437744140625 189.2732391357422 54.4609260559082 179.49154663085938 56.62255096435547 170.08920288085938 C 58.184783935546875 160.98968505859375 60.25680160522461 152.7405242919922 62.65495300292969 145.01809692382812 C 64.82952880859375 137.15322875976562 67.36375427246094 129.18524169921875 71.1550521850586 121.57852935791016 C 74.65803527832031 113.24640655517578 78.77935028076172 105.03736877441406 83.28776550292969 96.82185363769531 C 88.3240737915039 88.87518310546875 93.81099700927734 81.00674438476562 100.33790588378906 73.33492279052734 C 107.11698150634766 65.0558090209961 114.56182861328125 56.99147415161133 123.05724334716797 49.98064422607422 C 131.08416748046875 42.92314910888672 139.30264282226562 36.76477813720703 147.159912109375 30.994197845458984 C 154.70077514648438 26.536630630493164 162.7794647216797 24.507272720336914 171.71121215820312 23.78183364868164 C 180.73776245117188 23.26947784423828 189.54774475097656 24.53104019165039 197.6006622314453 26.766977310180664 C 205.05935668945312 29.008495330810547 209.9732666015625 30.11199378967285 213.72523498535156 28.07864761352539 C 217.60191345214844 29.489713668823242 221.69224548339844 29.743743896484375 227.1598358154297 26.294269561767578 C 233.02711486816406 19.314640045166016 240.611083984375 12.272909164428711 249.88087463378906 7.167294502258301 C 258.8253479003906 2.4593772888183594 268.48687744140625 -0.9426829218864441 268.44873046875 -1.2343188524246216" stroke-width="0.0" fill="rgb(66, 38, 30)" opacity="0.9999911" stroke="rgb(3, 208, 177)" stroke-opacity="0.97436064" stroke-linecap="round" stroke-linejoin="round"/>
    <path d="M 318.6136779785156 224.76174926757812 C 309.4106140136719 229.5917205810547 301.4351806640625 232.92567443847656 295.9460144042969 236.1337890625 C 295.2836608886719 243.21707153320312 294.5299072265625 250.7436065673828 290.6448059082031 256.0466613769531 C 282.3855895996094 257.30072021484375 271.1576843261719 255.7123565673828 259.8860778808594 253.08551025390625 C 250.47886657714844 251.17845153808594 245.55015563964844 250.26974487304688 246.34259033203125 250.33621215820312 C 252.2967529296875 251.31629943847656 262.4261169433594 252.97023010253906 274.64630126953125 255.5337371826172 C 286.3314208984375 260.861083984375 295.4187316894531 269.48870849609375 301.7792663574219 280.4814453125 C 306.82958984375 290.9551086425781 310.9198913574219 299.3876037597656 313.5677185058594 305.34185791015625 C 314.8616943359375 308.6318664550781 314.9183654785156 309.1801452636719 313.4898681640625 306.35760498046875 C 310.2243347167969 299.7031555175781 305.4608459472656 290.0202941894531 299.45751953125 277.96044921875 C 293.7617492675781 264.2470397949219 291.947021484375 251.22996520996094 296.245361328125 241.37937927246094 C 306.80609130859375 239.9198455810547 322.5393371582031 244.44589233398438 342.6949157714844 251.2845001220703 C 363.4237060546875 262.2221374511719 383.4742126464844 275.7245788574219 400.9960632324219 285.3870849609375 C 409.7565612792969 290.6589050292969 410.5673522949219 293.02471923828125 404.8875732421875 293.71221923828125 C 396.0662536621094 293.8406677246094 388.91912841796875 293.1323547363281 387.7044372558594 292.52020263671875 C 395.64013671875 292.0007019042969 413.6066589355469 292.99945068359375 434.5758361816406 298.3175048828125 C 448.1206970214844 313.57568359375 448.85565185546875 333.8017272949219 439.6983947753906 350.2223815917969 C 429.0364990234375 351.28778076171875 414.2707824707031 340.4793701171875 392.79278564453125 330.33648681640625 C 366.0662536621094 325.5700378417969 341.2723693847656 320.5625305175781 324.6161193847656 319.96307373046875 C 322.8093566894531 331.99951171875 322.6739807128906 350.7022705078125 323.4197998046875 373.34173583984375 C 315.2386779785156 396.1402893066406 308.52142333984375 420.5476989746094 304.6461486816406 444.6347351074219 C 297.490478515625 464.4568786621094 288.7407531738281 481.122802734375 287.30389404296875 496.1498107910156 C 293.8747863769531 509.3924865722656 296.251708984375 520.12060546875 288.60223388671875 527.2628173828125 C 272.8477783203125 529.749267578125 255.21583557128906 529.0018920898438 241.03659057617188 531.1925048828125 C 237.2257080078125 542.4873657226562 236.79547119140625 556.44775390625 243.72386169433594 567.0240478515625 C 263.4153747558594 571.4689331054688 289.76025390625 571.8375244140625 316.3307189941406 572.252685546875 C 335.5377197265625 569.0673828125 344.42901611328125 568.1066284179688 342.6763000488281 574.4595947265625 C 330.4691467285156 582.7479248046875 310.3438415527344 585.981689453125 285.8164367675781 584.012451171875 C 261.548095703125 583.2247314453125 243.23739624023438 582.3060302734375 234.40179443359375 571.2391357421875 C 231.5828857421875 550.6550903320312 234.96385192871094 524.5648193359375 240.44679260253906 498.7606201171875 C 242.127197265625 477.4363098144531 237.3285675048828 462.4124450683594 231.24716186523438 456.5732116699219 C 227.14328002929688 465.1549987792969 220.74734497070312 478.1273193359375 214.05902099609375 490.0220642089844 C 208.45213317871094 495.7455749511719 204.54571533203125 495.8042297363281 203.45654296875 493.3263854980469 C 204.59317016601562 491.22979736328125 208.193359375 492.1405334472656 211.67054748535156 498.99005126953125 C 212.4857940673828 513.803955078125 213.2666015625 533.4118041992188 215.60662841796875 552.7693481445312 C 219.17185974121094 567.9492797851562 215.21163940429688 577.6959838867188 201.17662048339844 584.2823486328125 C 180.27005004882812 589.8825073242188 158.75807189941406 596.5355224609375 138.51507568359375 597.2654418945312 C 122.62461853027344 593.5995483398438 116.9952621459961 588.7644653320312 124.24469757080078 584.603271484375 C 142.5653839111328 582.4387817382812 165.54518127441406 580.9196166992188 188.35525512695312 579.1448974609375 C 205.33843994140625 576.962158203125 213.21739196777344 569.763427734375 213.0967254638672 557.288330078125 C 212.13995361328125 543.04736328125 211.49830627441406 532.5406494140625 205.0730438232422 528.9541625976562 C 190.41452026367188 530.4631958007812 173.93482971191406 531.5729370117188 160.90594482421875 529.3438720703125 C 155.81219482421875 521.2079467773438 159.0109405517578 508.23065185546875 165.76817321777344 491.3194885253906 C 166.3393096923828 468.9736328125 164.42056274414062 444.55023193359375 159.71566772460938 422.42913818359375 C 149.71063232421875 405.5891418457031 133.5076141357422 394.4336853027344 119.58563995361328 382.479736328125 C 115.735595703125 365.2992248535156 112.99227905273438 351.9337463378906 101.92764282226562 350.1661682128906 C 80.88878631591797 360.0876159667969 57.732093811035156 364.05389404296875 42.41154098510742 355.7059020996094 C 44.487613677978516 337.8259582519531 58.56722640991211 318.3323669433594 74.27841186523438 302.52349853515625 C 84.92208862304688 293.6127014160156 90.09463500976562 289.24884033203125 91.45355987548828 288.13006591796875 C 90.9474105834961 288.5078125 89.8646469116211 287.0063171386719 91.0946044921875 281.300537109375 C 99.49708557128906 272.0553283691406 114.36564636230469 262.19354248046875 133.3136749267578 252.70248413085938 C 152.65611267089844 243.714111328125 168.90589904785156 238.904541015625 179.35487365722656 241.7400665283203 C 180.6142578125 252.8546905517578 175.20262145996094 269.6711730957031 167.36865234375 289.86920166015625 C 162.368896484375 310.81585693359375 160.0059814453125 330.3872985839844 159.60829162597656 346.9065856933594 C 160.15940856933594 358.90716552734375 160.86282348632812 365.9508361816406 161.15902709960938 367.9375915527344 C 160.96005249023438 365.0509948730469 160.35140991210938 358.0845642089844 160.0685577392578 347.8011474609375 C 160.4974365234375 334.7951354980469 162.18638610839844 319.99658203125 164.6374969482422 304.255126953125 C 167.92787170410156 288.4248352050781 172.09140014648438 273.2288818359375 177.04098510742188 259.90924072265625 C 183.99240112304688 250.27764892578125 194.12786865234375 245.2306365966797 207.7115020751953 243.32814025878906 C 223.09384155273438 240.4820098876953 239.93508911132812 236.48626708984375 257.6495666503906 231.54417419433594 C 275.7891540527344 225.9263153076172 294.09490966796875 220.27105712890625 318.6136779785156 224.76174926757812" stroke-width="0.0" fill="rgb(230, 107, 161)" opacity="0.9998087" stroke="rgb(140, 47, 85)" stroke-opacity="0.24739273" stroke-linecap="round" stroke-linejoin="round"/>
    <path d="M 333.9206237792969 95.18084716796875 C 337.200927734375 94.84954071044922 340.42364501953125 94.1561050415039 342.8887939453125 93.76317596435547 C 344.83306884765625 94.1311264038086 346.6153259277344 94.70629119873047 347.80816650390625 95.04789733886719 C 348.2266845703125 96.03916931152344 348.3825988769531 97.08480072021484 348.6212463378906 97.6666030883789 C 349.10589599609375 98.13684844970703 349.49725341796875 98.64344787597656 349.94451904296875 99.25291442871094 C 350.69488525390625 99.99784088134766 351.6771545410156 100.66279602050781 352.7460632324219 101.2648696899414 C 353.6140441894531 101.95291137695312 354.390869140625 102.76508331298828 355.17889404296875 103.58536529541016 C 355.96533203125 104.3812484741211 356.7635192871094 105.21883392333984 357.6703186035156 106.09954833984375 C 358.7422790527344 107.29850769042969 359.9328308105469 109.05216217041016 361.2295837402344 111.38097381591797 C 362.65899658203125 114.28691101074219 364.2278747558594 117.61015319824219 365.9027099609375 121.23945617675781 C 367.3004455566406 125.23236083984375 368.4554748535156 129.68008422851562 369.42694091796875 134.453857421875 C 370.17059326171875 139.26992797851562 370.4751892089844 144.05348205566406 370.34857177734375 148.8403778076172 C 370.1733093261719 153.7087860107422 369.481689453125 158.57676696777344 368.40985107421875 163.29612731933594 C 366.79730224609375 167.91253662109375 364.7478332519531 172.35731506347656 362.23602294921875 176.6490020751953 C 359.6401672363281 180.6962890625 357.27252197265625 184.8941650390625 354.5307312011719 189.13397216796875 C 351.0928955078125 193.10232543945312 347.4629821777344 196.99427795410156 344.0771179199219 201.0748291015625 C 341.1246337890625 205.38381958007812 337.07037353515625 208.77310180664062 332.10736083984375 210.92503356933594 C 328.318359375 214.19183349609375 324.5858154296875 217.54559326171875 320.8832092285156 220.1556396484375 C 317.7458190917969 223.01963806152344 314.09698486328125 224.93118286132812 310.3006286621094 226.29055786132812 C 306.6392517089844 227.88189697265625 302.9828796386719 229.62734985351562 299.0818786621094 231.30682373046875 C 295.06964111328125 232.90565490722656 290.9878845214844 234.48646545410156 286.7750244140625 235.98240661621094 C 282.4593505859375 237.27833557128906 278.0920104980469 238.3756561279297 273.6908264160156 239.34463500976562 C 269.3527526855469 240.21737670898438 264.9081726074219 240.9920196533203 260.3848876953125 241.6638946533203 C 255.89718627929688 242.27410888671875 251.3974609375 242.87191772460938 246.78094482421875 243.3592071533203 C 242.03492736816406 243.77420043945312 237.21072387695312 243.96405029296875 232.3458709716797 243.9128875732422 C 227.43553161621094 243.87635803222656 222.2978057861328 243.6573028564453 217.09066772460938 243.3705291748047 C 212.1552734375 242.60667419433594 207.50497436523438 241.1692352294922 203.11056518554688 239.5728759765625 C 198.77145385742188 238.19366455078125 194.40591430664062 237.03085327148438 190.48631286621094 235.0602569580078 C 186.6113739013672 233.10052490234375 182.6504669189453 230.750732421875 179.1377410888672 228.6387939453125 C 175.36505126953125 226.65492248535156 171.6509552001953 223.71531677246094 167.7055206298828 221.50489807128906 C 163.7850341796875 218.6673583984375 160.5157470703125 214.7852783203125 157.5823211669922 210.65940856933594 C 154.45411682128906 206.82034301757812 151.30746459960938 202.8906707763672 148.60775756835938 198.51768493652344 C 146.46542358398438 193.5654754638672 144.81971740722656 188.50180053710938 143.8050079345703 183.7237091064453 C 142.87144470214844 179.03475952148438 142.54818725585938 173.9066619873047 142.51654052734375 169.0855712890625 C 143.01239013671875 164.36668395996094 144.17803955078125 159.49966430664062 146.3008575439453 154.7176055908203 C 148.96485900878906 149.9056854248047 152.41090393066406 145.6518096923828 155.64356994628906 141.76727294921875 C 156.96188354492188 138.05770874023438 157.2492218017578 134.16236877441406 158.11782836914062 131.54318237304688 C 159.5408172607422 131.0769805908203 161.57681274414062 132.5177764892578 164.46600341796875 134.43765258789062 C 168.3125762939453 135.94908142089844 172.7058868408203 136.3277130126953 177.35015869140625 135.3453826904297 C 181.99090576171875 133.0946807861328 186.56988525390625 130.42601013183594 191.3675994873047 127.97489166259766 C 196.1688690185547 126.11084747314453 200.74713134765625 124.9084701538086 205.10372924804688 124.57518005371094 C 209.14183044433594 123.96342468261719 212.43972778320312 122.1308364868164 215.63839721679688 119.93880462646484 C 219.3772430419922 118.64291381835938 223.93577575683594 117.84243774414062 229.17425537109375 117.48170471191406 C 234.80398559570312 116.6717529296875 239.48410034179688 115.15422821044922 242.346923828125 113.23944091796875 C 243.5364227294922 110.67535400390625 243.66754150390625 107.19032287597656 242.76348876953125 103.33009338378906 C 241.66949462890625 99.6960220336914 242.13485717773438 96.85696411132812 243.55760192871094 95.66322326660156 C 245.9221649169922 96.78113555908203 248.88592529296875 99.41206359863281 252.30104064941406 102.30998229980469 C 255.7777557373047 104.7411117553711 259.3585510253906 106.56159210205078 263.22943115234375 107.58001708984375 C 267.54736328125 107.57723236083984 272.19940185546875 106.82738494873047 276.9147644042969 105.8351058959961 C 281.9081726074219 104.65608978271484 287.0289001464844 103.5698471069336 292.0693359375 102.73230743408203 C 296.913330078125 101.572998046875 301.1787109375 100.76639556884766 304.6435852050781 100.36414337158203 C 307.03076171875 101.30321502685547 308.9518737792969 102.76226043701172 311.17633056640625 104.25831604003906 C 314.3393859863281 104.30963897705078 317.9521179199219 104.65328216552734 321.6766052246094 106.1728744506836 C 325.2674865722656 108.18301391601562 328.0162658691406 111.7468032836914 329.5370178222656 116.60418701171875 C 330.7767639160156 121.65015411376953 330.5529479980469 126.2422103881836 328.99322509765625 130.13330078125 C 327.8606262207031 132.21290588378906 329.3357238769531 132.83340454101562 332.4187316894531 132.12710571289062 C 336.17578125 130.62449645996094 340.4143371582031 128.60519409179688 344.3869934082031 126.44612884521484 C 346.02545166015625 123.64358520507812 346.0060119628906 120.47943115234375 344.6307373046875 116.48385620117188 C 343.9415283203125 111.97135925292969 342.0970764160156 108.11470031738281 338.84466552734375 105.10413360595703 C 334.4490661621094 102.40386199951172 329.61602783203125 100.23762512207031 323.97454833984375 99.1388168334961 C 317.7099914550781 98.39470672607422 311.3455505371094 97.88874816894531 333.9206237792969 95.18084716796875" stroke-width="0.0" fill="rgb(249, 187, 105)" opacity="1.0" stroke="rgb(218, 170, 8)" stroke-opacity="0.27622667" stroke-linecap="round" stroke-linejoin="round"/>
    <path d="M 171.01564025878906 381.73968505859375 C 171.9506378173828 381.8194274902344 172.8045196533203 381.82769775390625 173.63612365722656 381.8078308105469 C 174.5328369140625 381.8409423828125 175.44415283203125 381.8757019042969 176.41632080078125 381.9217529296875 C 177.4716033935547 381.9452819824219 178.55368041992188 381.9524841308594 179.64932250976562 381.93798828125 C 180.76612854003906 381.9034118652344 181.8398895263672 381.89788818359375 182.82484436035156 381.9399719238281 C 183.80528259277344 382.0111999511719 184.748291015625 382.11505126953125 185.6288299560547 382.2886657714844 C 186.46534729003906 382.5343322753906 187.3045654296875 382.7985534667969 188.18881225585938 383.0814514160156 C 189.1534881591797 383.3712158203125 190.27413940429688 383.66107177734375 191.6044464111328 383.9700927734375 C 193.2042999267578 384.3076171875 195.00286865234375 384.68511962890625 196.9213409423828 385.125732421875 C 199.046630859375 385.67156982421875 201.27938842773438 386.46307373046875 203.39833068847656 387.56097412109375 C 205.1348114013672 388.97027587890625 206.2595977783203 390.62310791015625 206.56997680664062 392.35638427734375 C 205.94903564453125 394.0613098144531 204.6038818359375 395.60723876953125 202.81983947753906 396.8475341796875 C 200.96206665039062 397.6499938964844 199.34982299804688 398.0313415527344 198.24757385253906 398.0535583496094 C 197.82449340820312 397.7731628417969 198.1186981201172 397.2481994628906 199.16928100585938 396.5124816894531 C 201.0846710205078 395.7259521484375 203.78582763671875 394.94586181640625 207.15316772460938 394.26776123046875 C 210.98789978027344 393.7506408691406 215.15338134765625 393.36279296875 219.5069580078125 393.1046447753906 C 223.8582763671875 392.9450378417969 228.0538330078125 392.8883972167969 232.03285217285156 392.90301513671875 C 235.8632354736328 392.9529113769531 239.57095336914062 393.02386474609375 243.150146484375 393.1141052246094 C 246.6282196044922 393.22857666015625 250.05868530273438 393.3775939941406 253.54270935058594 393.5857849121094 C 257.1300354003906 393.9364929199219 260.8136291503906 394.3542785644531 264.6598815917969 394.74639892578125 C 268.7628173828125 395.0367736816406 273.1553649902344 395.12286376953125 277.974853515625 394.8162841796875 C 283.2458801269531 393.8935546875 288.9051818847656 392.1860656738281 294.82977294921875 389.81854248046875 C 300.7387390136719 387.19268798828125 306.262939453125 384.9717102050781 310.951416015625 383.955810546875 C 314.1570739746094 385.073486328125 315.5006103515625 388.66943359375 315.1389465332031 394.1982727050781 C 314.0801696777344 401.3321228027344 312.82147216796875 409.8270263671875 311.21075439453125 418.7821960449219 C 309.5601501464844 427.45343017578125 307.1255187988281 435.8489990234375 303.93975830078125 443.2328796386719 C 301.9837951660156 450.5357666015625 302.12762451171875 457.63824462890625 301.0679626464844 462.9548645019531 C 296.6553955078125 462.428955078125 292.42047119140625 460.07489013671875 290.3287658691406 457.9780578613281 C 289.5262145996094 456.1698303222656 289.0623474121094 455.638427734375 288.3643798828125 456.5281066894531 C 286.97906494140625 458.5599365234375 284.79327392578125 461.1338806152344 281.689697265625 463.59442138671875 C 277.8235168457031 465.5492248535156 273.3537292480469 466.73785400390625 268.65234375 466.9527893066406 C 264.0971984863281 466.14129638671875 260.1529541015625 464.5489196777344 257.0744323730469 462.5761413574219 C 254.99769592285156 460.2851257324219 253.8453826904297 457.8829345703125 253.32814025878906 455.59857177734375 C 253.1035919189453 453.61712646484375 253.06565856933594 452.09539794921875 253.08685302734375 450.88800048828125 C 252.95486450195312 449.7895202636719 252.52828979492188 448.7099914550781 251.66448974609375 447.6198425292969 C 250.40493774414062 446.3544006347656 248.83628845214844 444.8782958984375 246.9972381591797 443.1810607910156 C 244.96044921875 441.2165832519531 243.0184326171875 439.1939697265625 240.93408203125 437.368408203125 C 238.99429321289062 435.954345703125 237.39280700683594 435.0296325683594 236.1319122314453 434.5165710449219 C 235.10549926757812 434.44403076171875 234.15211486816406 434.8980407714844 233.6605224609375 435.11846923828125 C 234.06163024902344 435.46337890625 234.60829162597656 436.0711975097656 235.40821838378906 436.50537109375 C 235.96119689941406 436.3934020996094 236.30364990234375 435.9675598144531 236.1687469482422 435.25421142578125 C 235.70245361328125 434.4562683105469 234.90089416503906 434.19976806640625 233.32086181640625 434.94476318359375 C 233.7519989013672 436.4380798339844 235.06422424316406 438.6875 236.33802795410156 441.6153869628906 C 237.1532745361328 444.8634033203125 237.12579345703125 448.1614685058594 235.7263946533203 451.0787048339844 C 232.6218719482422 453.1795959472656 229.32960510253906 455.4312744140625 226.67556762695312 458.4920349121094 C 224.20108032226562 461.65576171875 221.27488708496094 463.6546936035156 217.95602416992188 464.220458984375 C 214.6592254638672 463.5612487792969 211.6544952392578 462.7967529296875 208.8507537841797 462.58807373046875 C 206.02456665039062 463.1507263183594 203.04031372070312 464.5072937011719 199.73716735839844 466.10198974609375 C 196.06439208984375 467.13153076171875 192.12750244140625 467.48626708984375 188.1510009765625 467.1840515136719 C 184.412841796875 466.333984375 181.12501525878906 465.18865966796875 178.439453125 464.0534973144531 C 176.71115112304688 463.3412780761719 175.8428497314453 463.3617248535156 175.7056884765625 464.3016052246094 C 175.60057067871094 466.00701904296875 174.9390106201172 468.4222412109375 173.54116821289062 471.512451171875 C 171.26634216308594 473.70135498046875 167.5830078125 474.2689514160156 163.87246704101562 473.41656494140625 C 160.24945068359375 471.5011291503906 157.9257049560547 468.340087890625 157.49513244628906 463.964599609375 C 157.5386199951172 458.579345703125 156.9888458251953 452.6212463378906 156.1478729248047 446.6764221191406 C 155.37693786621094 440.9335021972656 155.2533416748047 435.409423828125 154.7248077392578 430.6228332519531 C 154.15501403808594 426.427978515625 153.36489868164062 422.47760009765625 153.30490112304688 418.3839111328125 C 153.18357849121094 414.3067321777344 153.20059204101562 410.1805114746094 153.09898376464844 406.07196044921875 C 153.05052185058594 402.18060302734375 153.34152221679688 398.3087158203125 154.2681427001953 394.5663146972656 C 155.85498046875 391.0072937011719 157.88418579101562 387.6138916015625 160.0677490234375 384.3317565917969 C 162.1963653564453 381.1210021972656 164.42599487304688 377.9480285644531 171.01564025878906 381.73968505859375" stroke-width="0.0" fill="rgb(252, 76, 1)" opacity="1.0" stroke="rgb(69, 250, 196)" stroke-opacity="0.5656443" stroke-linecap="round" stroke-linejoin="round"/>
    <path d="M 289.0 15.0 C 290.0 15.0 291.0 16.0 292.0 16.0 C 293.0 15.0 294.0 15.0 295.0 15.0 C 296.0 15.0 296.0 16.0 297.0 17.0 C 302.0 17.0 303.0 23.0 302.0 29.0 C 306.0 33.0 311.0 34.0 316.0 36.0 C 318.0 41.0 318.0 45.0 318.0 51.0 C 318.0 57.0 318.0 63.0 323.0 62.0 C 324.0 64.0 330.0 65.0 335.0 65.0 C 339.0 68.0 335.0 71.0 334.0 77.0 C 329.0 80.0 324.0 78.0 318.0 79.0 C 315.0 83.0 312.0 79.0 306.0 78.0 C 302.0 82.0 303.0 88.0 306.0 91.0 C 302.0 94.0 298.0 95.0 293.0 96.0 C 289.0 94.0 283.0 94.0 277.0 94.0 C 271.0 94.0 265.0 94.0 259.0 94.0 C 255.0 93.0 257.0 88.0 256.0 82.0 C 252.0 78.0 246.0 78.0 240.0 78.0 C 234.0 78.0 228.0 79.0 224.0 78.0 C 222.0 83.0 222.0 89.0 222.0 95.0 C 222.0 101.0 222.0 107.0 228.0 108.0 C 228.0 109.0 223.0 110.0 218.0 110.0 C 212.0 110.0 206.0 110.0 200.0 110.0 C 194.0 110.0 188.0 110.0 182.0 110.0 C 180.0 114.0 177.0 110.0 171.0 111.0 C 165.0 110.0 159.0 111.0 157.0 110.0 C 151.0 110.0 145.0 110.0 142.0 115.0 C 142.0 121.0 142.0 127.0 143.0 133.0 C 142.0 139.0 145.0 143.0 142.0 143.0 C 136.0 142.0 130.0 142.0 127.0 146.0 C 127.0 152.0 128.0 158.0 129.0 163.0 C 128.0 168.0 126.0 173.0 127.0 175.0 C 126.0 181.0 126.0 187.0 123.0 190.0 C 118.0 192.0 113.0 190.0 107.0 191.0 C 101.0 190.0 95.0 190.0 89.0 190.0 C 83.0 190.0 77.0 190.0 71.0 190.0 C 65.0 190.0 65.0 184.0 65.0 178.0 C 65.0 172.0 63.0 167.0 65.0 162.0 C 66.0 159.0 72.0 161.0 78.0 161.0 C 81.0 156.0 81.0 150.0 81.0 144.0 C 80.0 138.0 81.0 132.0 81.0 126.0 C 81.0 120.0 86.0 120.0 87.0 115.0 C 89.0 113.0 95.0 113.0 97.0 108.0 C 97.0 102.0 98.0 97.0 104.0 97.0 C 110.0 97.0 112.0 92.0 108.0 91.0 C 112.0 87.0 113.0 81.0 119.0 81.0 C 124.0 78.0 128.0 75.0 129.0 69.0 C 131.0 65.0 137.0 65.0 140.0 60.0 C 145.0 57.0 145.0 51.0 149.0 49.0 C 155.0 49.0 161.0 47.0 161.0 41.0 C 161.0 35.0 165.0 33.0 169.0 33.0 C 175.0 33.0 181.0 33.0 187.0 33.0 C 190.0 36.0 190.0 42.0 192.0 48.0 C 198.0 49.0 204.0 49.0 210.0 49.0 C 216.0 49.0 222.0 49.0 224.0 44.0 C 225.0 38.0 227.0 33.0 231.0 33.0 C 234.0 33.0 240.0 32.0 241.0 26.0 C 244.0 24.0 248.0 21.0 242.0 19.0 C 247.0 17.0 253.0 17.0 259.0 17.0 C 265.0 17.0 271.0 17.0 277.0 17.0 C 283.0 17.0 288.0 15.0 289.0 15.0" stroke-width="0.0" fill="rgb(61, 40, 37)" opacity="1.0" stroke="rgb(193, 237, 200)" stroke-opacity="0.90233845" stroke-linecap="round" stroke-linejoin="round"/>
    <path d="M 210.0 272.0 C 211.0 272.0 212.0 272.0 213.0 272.0 C 214.0 272.0 215.0 272.0 216.0 272.0 C 217.0 272.0 218.0 272.0 219.0 272.0 C 220.0 272.0 221.0 272.0 222.0 272.0 C 223.0 272.0 224.0 273.0 225.0 273.0 C 226.0 273.0 227.0 273.0 228.0 273.0 C 229.0 273.0 230.0 273.0 231.0 273.0 C 232.0 273.0 234.0 273.0 237.0 273.0 C 240.0 272.0 243.0 272.0 246.0 272.0 C 249.0 272.0 252.0 272.0 255.0 272.0 C 258.0 273.0 261.0 272.0 264.0 273.0 C 267.0 273.0 270.0 273.0 270.0 276.0 C 270.0 279.0 273.0 280.0 272.0 282.0 C 270.0 284.0 270.0 287.0 273.0 288.0 C 271.0 289.0 270.0 292.0 270.0 295.0 C 270.0 298.0 271.0 301.0 273.0 302.0 C 275.0 304.0 278.0 305.0 281.0 305.0 C 284.0 305.0 286.0 306.0 286.0 309.0 C 287.0 312.0 287.0 315.0 287.0 318.0 C 289.0 321.0 292.0 321.0 295.0 321.0 C 298.0 321.0 301.0 320.0 302.0 322.0 C 302.0 325.0 302.0 328.0 302.0 331.0 C 302.0 334.0 302.0 337.0 302.0 340.0 C 302.0 343.0 302.0 346.0 302.0 349.0 C 302.0 352.0 305.0 353.0 308.0 352.0 C 311.0 352.0 312.0 355.0 311.0 358.0 C 311.0 361.0 311.0 364.0 311.0 367.0 C 308.0 367.0 305.0 366.0 302.0 367.0 C 299.0 367.0 296.0 367.0 293.0 367.0 C 290.0 367.0 287.0 366.0 284.0 366.0 C 281.0 366.0 278.0 366.0 275.0 366.0 C 272.0 366.0 269.0 366.0 266.0 366.0 C 263.0 366.0 260.0 366.0 257.0 366.0 C 254.0 366.0 251.0 366.0 248.0 366.0 C 245.0 366.0 242.0 366.0 239.0 366.0 C 236.0 366.0 233.0 366.0 230.0 366.0 C 227.0 366.0 224.0 367.0 221.0 367.0 C 218.0 367.0 215.0 366.0 212.0 366.0 C 209.0 366.0 207.0 368.0 207.0 367.0 C 204.0 366.0 201.0 367.0 199.0 369.0 C 196.0 369.0 193.0 369.0 192.0 367.0 C 189.0 366.0 187.0 368.0 185.0 368.0 C 183.0 366.0 180.0 366.0 177.0 366.0 C 174.0 366.0 171.0 366.0 168.0 366.0 C 165.0 366.0 162.0 366.0 161.0 364.0 C 160.0 361.0 160.0 358.0 160.0 355.0 C 162.0 353.0 165.0 353.0 168.0 353.0 C 171.0 353.0 174.0 353.0 177.0 351.0 C 177.0 348.0 177.0 345.0 177.0 342.0 C 177.0 339.0 177.0 336.0 177.0 333.0 C 177.0 330.0 177.0 327.0 176.0 324.0 C 176.0 321.0 179.0 321.0 182.0 321.0 C 185.0 320.0 188.0 320.0 191.0 320.0 C 192.0 317.0 192.0 314.0 193.0 311.0 C 193.0 308.0 193.0 305.0 193.0 302.0 C 190.0 300.0 191.0 298.0 194.0 296.0 C 197.0 296.0 199.0 294.0 200.0 291.0 C 201.0 289.0 204.0 289.0 207.0 287.0 C 209.0 284.0 209.0 281.0 208.0 278.0 C 208.0 275.0 209.0 272.0 210.0 272.0" stroke-width="0.0" fill="rgb(254, 111, 168)" opacity="1.0" stroke="rgb(132, 19, 7)" stroke-opacity="0.85743266" stroke-linecap="round" stroke-linejoin="round"/>
    <path d="M 299.0 376.0 C 300.0 376.0 303.0 376.0 313.0 379.0 C 322.0 377.0 317.0 380.0 318.0 382.0 C 317.0 391.0 313.0 400.0 312.0 410.0 C 310.0 420.0 307.0 430.0 305.0 440.0 C 303.0 450.0 300.0 460.0 298.0 470.0 C 291.0 476.0 287.0 480.0 285.0 479.0 C 288.0 487.0 288.0 493.0 286.0 502.0 C 290.0 504.0 300.0 507.0 304.0 516.0 C 294.0 519.0 294.0 529.0 303.0 535.0 C 313.0 540.0 323.0 545.0 333.0 550.0 C 341.0 558.0 342.0 568.0 337.0 576.0 C 339.0 572.0 339.0 562.0 332.0 553.0 C 322.0 549.0 313.0 544.0 303.0 540.0 C 295.0 534.0 288.0 526.0 279.0 531.0 C 269.0 533.0 259.0 533.0 249.0 532.0 C 241.0 530.0 238.0 540.0 237.0 550.0 C 239.0 559.0 238.0 567.0 241.0 571.0 C 244.0 572.0 251.0 571.0 259.0 572.0 C 269.0 573.0 279.0 573.0 288.0 575.0 C 297.0 573.0 307.0 574.0 317.0 574.0 C 323.0 573.0 328.0 579.0 319.0 583.0 C 309.0 583.0 299.0 583.0 289.0 583.0 C 279.0 583.0 283.0 581.0 279.0 579.0 C 271.0 582.0 261.0 581.0 251.0 580.0 C 241.0 578.0 234.0 569.0 234.0 559.0 C 234.0 549.0 235.0 539.0 236.0 529.0 C 231.0 524.0 226.0 515.0 234.0 507.0 C 240.0 500.0 241.0 491.0 241.0 483.0 C 243.0 476.0 239.0 472.0 233.0 463.0 C 230.0 457.0 226.0 467.0 221.0 475.0 C 216.0 484.0 213.0 493.0 211.0 503.0 C 207.0 503.0 211.0 507.0 220.0 513.0 C 217.0 522.0 212.0 529.0 213.0 539.0 C 214.0 549.0 215.0 559.0 217.0 569.0 C 217.0 579.0 209.0 586.0 199.0 587.0 C 189.0 586.0 179.0 589.0 169.0 593.0 C 160.0 595.0 150.0 595.0 140.0 595.0 C 131.0 593.0 121.0 590.0 117.0 581.0 C 121.0 571.0 131.0 564.0 138.0 556.0 C 148.0 550.0 153.0 540.0 158.0 530.0 C 155.0 522.0 152.0 513.0 161.0 506.0 C 162.0 500.0 164.0 495.0 166.0 485.0 C 165.0 475.0 159.0 468.0 160.0 464.0 C 169.0 470.0 173.0 471.0 179.0 465.0 C 189.0 467.0 199.0 466.0 209.0 463.0 C 219.0 464.0 224.0 455.0 231.0 448.0 C 237.0 443.0 238.0 436.0 248.0 445.0 C 252.0 454.0 258.0 463.0 268.0 467.0 C 278.0 465.0 288.0 458.0 297.0 460.0 C 299.0 450.0 302.0 440.0 304.0 430.0 C 307.0 420.0 309.0 410.0 311.0 400.0 C 312.0 390.0 308.0 384.0 298.0 387.0 C 288.0 391.0 278.0 393.0 268.0 394.0 C 258.0 393.0 248.0 392.0 238.0 392.0 C 228.0 392.0 218.0 392.0 208.0 393.0 C 202.0 386.0 192.0 383.0 189.0 379.0 C 199.0 379.0 209.0 378.0 219.0 377.0 C 229.0 377.0 239.0 377.0 249.0 377.0 C 259.0 377.0 269.0 377.0 279.0 377.0 C 289.0 378.0 298.0 376.0 299.0 376.0" stroke-width="0.0" fill="rgb(240, 201, 129)" opacity="1.0" stroke="rgb(139, 97, 23)" stroke-opacity="0.24575868" stroke-linecap="round" stroke-linejoin="round"/>
    <path d="M 97.0 287.0 C 98.0 287.0 99.0 288.0 100.0 288.0 C 101.0 289.0 102.0 290.0 103.0 291.0 C 104.0 292.0 105.0 292.0 106.0 293.0 C 107.0 294.0 107.0 295.0 108.0 296.0 C 109.0 297.0 110.0 298.0 111.0 299.0 C 112.0 300.0 112.0 301.0 113.0 302.0 C 113.0 303.0 114.0 304.0 115.0 305.0 C 116.0 306.0 117.0 307.0 117.0 308.0 C 117.0 309.0 118.0 310.0 118.0 311.0 C 118.0 312.0 119.0 313.0 119.0 314.0 C 119.0 315.0 120.0 316.0 121.0 317.0 C 122.0 317.0 122.0 318.0 122.0 319.0 C 123.0 320.0 123.0 321.0 123.0 322.0 C 122.0 323.0 122.0 324.0 122.0 325.0 C 123.0 326.0 123.0 327.0 123.0 328.0 C 123.0 329.0 123.0 330.0 123.0 331.0 C 123.0 332.0 123.0 333.0 122.0 333.0 C 121.0 333.0 120.0 332.0 119.0 332.0 C 117.0 334.0 115.0 337.0 118.0 339.0 C 117.0 343.0 118.0 347.0 118.0 351.0 C 117.0 355.0 117.0 359.0 117.0 363.0 C 121.0 366.0 124.0 368.0 126.0 370.0 C 129.0 374.0 133.0 374.0 137.0 374.0 C 141.0 374.0 145.0 374.0 147.0 377.0 C 145.0 380.0 141.0 380.0 137.0 380.0 C 133.0 379.0 129.0 378.0 126.0 376.0 C 122.0 373.0 118.0 371.0 119.0 375.0 C 115.0 375.0 115.0 371.0 114.0 367.0 C 115.0 363.0 114.0 359.0 114.0 355.0 C 114.0 351.0 112.0 351.0 112.0 355.0 C 108.0 353.0 106.0 349.0 104.0 349.0 C 101.0 349.0 97.0 351.0 93.0 353.0 C 89.0 354.0 85.0 356.0 89.0 357.0 C 89.0 361.0 85.0 363.0 82.0 365.0 C 78.0 363.0 75.0 367.0 73.0 371.0 C 69.0 375.0 66.0 379.0 62.0 382.0 C 59.0 385.0 59.0 389.0 59.0 393.0 C 58.0 397.0 57.0 401.0 54.0 404.0 C 50.0 404.0 46.0 401.0 45.0 397.0 C 44.0 393.0 43.0 389.0 40.0 388.0 C 38.0 392.0 36.0 396.0 32.0 400.0 C 28.0 401.0 24.0 399.0 22.0 396.0 C 22.0 392.0 19.0 391.0 15.0 392.0 C 11.0 391.0 9.0 387.0 10.0 383.0 C 11.0 379.0 12.0 375.0 8.0 377.0 C 4.0 378.0 0.0 376.0 0.0 372.0 C 0.0 368.0 3.0 365.0 5.0 361.0 C 8.0 357.0 11.0 353.0 14.0 349.0 C 17.0 345.0 21.0 341.0 20.0 337.0 C 18.0 333.0 17.0 329.0 17.0 325.0 C 19.0 321.0 23.0 320.0 27.0 321.0 C 31.0 324.0 35.0 328.0 39.0 330.0 C 43.0 330.0 46.0 328.0 46.0 324.0 C 49.0 321.0 53.0 320.0 57.0 321.0 C 60.0 317.0 62.0 314.0 66.0 310.0 C 70.0 306.0 74.0 304.0 76.0 301.0 C 79.0 297.0 81.0 299.0 85.0 298.0 C 87.0 295.0 84.0 294.0 87.0 293.0 C 90.0 294.0 89.0 291.0 91.0 289.0 C 94.0 290.0 96.0 287.0 97.0 287.0" stroke-width="0.0" fill="rgb(248, 191, 113)" opacity="1.0" stroke="rgb(209, 128, 123)" stroke-opacity="0.40585417" stroke-linecap="round" stroke-linejoin="round"/>
  </g>
</svg>
