<?xml version="1.0" ?>
<svg xmlns="http://www.w3.org/2000/svg" version="1.1" width="474" height="596">
  <defs/>
  <g>
    <path d="M 266.0 0.0 C 267.0 0.0 268.0 0.0 269.0 0.0 C 270.0 0.0 271.0 0.0 272.0 0.0 C 273.0 0.0 274.0 0.0 275.0 0.0 C 276.0 0.0 277.0 0.0 278.0 0.0 C 279.0 0.0 280.0 0.0 281.0 0.0 C 282.0 0.0 288.0 2.0 296.0 4.0 C 304.0 6.0 312.0 9.0 320.0 12.0 C 328.0 16.0 336.0 20.0 344.0 24.0 C 352.0 29.0 360.0 35.0 368.0 41.0 C 376.0 48.0 384.0 56.0 392.0 64.0 C 399.0 72.0 405.0 80.0 411.0 88.0 C 417.0 96.0 422.0 104.0 427.0 112.0 C 431.0 120.0 432.0 128.0 431.0 136.0 C 426.0 144.0 421.0 152.0 415.0 160.0 C 408.0 168.0 400.0 176.0 392.0 184.0 C 384.0 191.0 376.0 197.0 368.0 203.0 C 360.0 208.0 352.0 213.0 344.0 217.0 C 336.0 220.0 328.0 222.0 320.0 224.0 C 316.0 223.0 324.0 218.0 332.0 212.0 C 340.0 206.0 348.0 198.0 355.0 190.0 C 360.0 182.0 364.0 174.0 367.0 166.0 C 370.0 158.0 371.0 150.0 371.0 142.0 C 370.0 134.0 368.0 126.0 365.0 118.0 C 361.0 110.0 354.0 102.0 346.0 94.0 C 338.0 94.0 330.0 95.0 322.0 96.0 C 314.0 98.0 309.0 98.0 301.0 100.0 C 293.0 102.0 285.0 104.0 277.0 105.0 C 269.0 107.0 261.0 109.0 254.0 103.0 C 246.0 96.0 238.0 91.0 241.0 99.0 C 244.0 107.0 244.0 114.0 236.0 115.0 C 228.0 117.0 220.0 119.0 212.0 121.0 C 204.0 123.0 196.0 126.0 188.0 129.0 C 180.0 132.0 172.0 136.0 165.0 135.0 C 160.0 127.0 157.0 127.0 157.0 135.0 C 156.0 143.0 150.0 149.0 145.0 156.0 C 143.0 164.0 142.0 172.0 143.0 180.0 C 144.0 188.0 147.0 196.0 151.0 204.0 C 157.0 212.0 165.0 219.0 173.0 226.0 C 181.0 231.0 189.0 235.0 197.0 238.0 C 205.0 240.0 213.0 242.0 209.0 243.0 C 201.0 242.0 193.0 239.0 185.0 238.0 C 177.0 239.0 169.0 241.0 162.0 240.0 C 154.0 240.0 146.0 239.0 138.0 239.0 C 130.0 237.0 122.0 236.0 114.0 234.0 C 106.0 231.0 98.0 229.0 90.0 226.0 C 82.0 223.0 74.0 219.0 66.0 215.0 C 58.0 209.0 54.0 201.0 54.0 193.0 C 54.0 185.0 55.0 177.0 57.0 169.0 C 59.0 161.0 60.0 153.0 63.0 145.0 C 65.0 137.0 68.0 129.0 71.0 121.0 C 75.0 113.0 79.0 105.0 83.0 97.0 C 89.0 89.0 94.0 81.0 100.0 73.0 C 107.0 65.0 115.0 57.0 123.0 50.0 C 131.0 43.0 139.0 37.0 147.0 31.0 C 155.0 27.0 163.0 25.0 171.0 24.0 C 179.0 24.0 187.0 25.0 195.0 26.0 C 203.0 28.0 211.0 31.0 214.0 27.0 C 219.0 33.0 221.0 27.0 226.0 27.0 C 234.0 19.0 242.0 12.0 250.0 7.0 C 258.0 3.0 265.0 0.0 266.0 0.0" stroke-width="0.0" fill="rgb(66, 38, 30)" opacity="1.0" stroke="rgb(3, 208, 177)" stroke-opacity="0.97436064" stroke-linecap="round" stroke-linejoin="round"/>
    <path d="M 312.0 225.0 C 313.0 225.0 313.0 226.0 299.0 233.0 C 294.0 240.0 289.0 244.0 305.0 262.0 C 298.0 260.0 278.0 242.0 260.0 244.0 C 241.0 245.0 220.0 245.0 229.0 254.0 C 250.0 252.0 259.0 259.0 259.0 260.0 C 271.0 272.0 278.0 285.0 287.0 302.0 C 296.0 306.0 304.0 313.0 314.0 328.0 C 320.0 333.0 318.0 312.0 311.0 292.0 C 318.0 302.0 325.0 311.0 329.0 303.0 C 316.0 292.0 314.0 273.0 304.0 255.0 C 303.0 244.0 321.0 245.0 342.0 251.0 C 363.0 262.0 381.0 274.0 402.0 287.0 C 423.0 291.0 426.0 292.0 405.0 293.0 C 384.0 279.0 364.0 274.0 358.0 295.0 C 349.0 316.0 370.0 322.0 391.0 325.0 C 411.0 336.0 431.0 348.0 444.0 356.0 C 427.0 349.0 407.0 336.0 386.0 328.0 C 365.0 325.0 344.0 321.0 325.0 318.0 C 323.0 338.0 322.0 359.0 322.0 380.0 C 314.0 396.0 311.0 417.0 305.0 438.0 C 301.0 459.0 290.0 476.0 287.0 497.0 C 300.0 507.0 293.0 520.0 290.0 528.0 C 273.0 522.0 256.0 529.0 243.0 519.0 C 238.0 538.0 237.0 559.0 246.0 576.0 C 267.0 580.0 288.0 581.0 309.0 580.0 C 330.0 577.0 339.0 560.0 342.0 571.0 C 323.0 582.0 302.0 584.0 281.0 583.0 C 260.0 581.0 239.0 576.0 233.0 556.0 C 235.0 535.0 227.0 519.0 238.0 510.0 C 242.0 493.0 242.0 472.0 232.0 455.0 C 226.0 471.0 214.0 486.0 209.0 505.0 C 210.0 484.0 199.0 475.0 178.0 474.0 C 169.0 485.0 167.0 506.0 188.0 511.0 C 209.0 508.0 216.0 522.0 214.0 541.0 C 216.0 562.0 215.0 583.0 194.0 586.0 C 173.0 591.0 153.0 595.0 132.0 595.0 C 117.0 581.0 129.0 568.0 123.0 587.0 C 144.0 592.0 165.0 590.0 186.0 584.0 C 207.0 582.0 213.0 565.0 212.0 544.0 C 208.0 523.0 200.0 529.0 190.0 529.0 C 183.0 527.0 180.0 522.0 167.0 523.0 C 159.0 526.0 156.0 508.0 166.0 492.0 C 163.0 472.0 157.0 453.0 155.0 432.0 C 153.0 411.0 144.0 397.0 123.0 389.0 C 115.0 368.0 114.0 347.0 97.0 351.0 C 79.0 360.0 74.0 369.0 75.0 362.0 C 84.0 349.0 102.0 345.0 123.0 333.0 C 124.0 322.0 121.0 306.0 118.0 293.0 C 105.0 281.0 95.0 281.0 105.0 288.0 C 91.0 282.0 111.0 265.0 132.0 253.0 C 153.0 244.0 164.0 248.0 167.0 252.0 C 159.0 261.0 153.0 274.0 155.0 295.0 C 150.0 315.0 152.0 327.0 152.0 348.0 C 156.0 363.0 159.0 381.0 160.0 376.0 C 173.0 374.0 160.0 365.0 165.0 344.0 C 165.0 337.0 170.0 326.0 176.0 312.0 C 186.0 303.0 194.0 294.0 195.0 284.0 C 199.0 264.0 201.0 252.0 215.0 249.0 C 227.0 243.0 248.0 243.0 269.0 239.0 C 290.0 234.0 311.0 225.0 312.0 225.0" stroke-width="0.0" fill="rgb(230, 107, 161)" opacity="1.0" stroke="rgb(140, 47, 85)" stroke-opacity="0.24739273" stroke-linecap="round" stroke-linejoin="round"/>
    <path d="M 341.0 94.0 C 342.0 94.0 343.0 94.0 344.0 94.0 C 345.0 94.0 346.0 95.0 347.0 96.0 C 347.0 97.0 347.0 98.0 348.0 99.0 C 349.0 100.0 350.0 100.0 351.0 100.0 C 351.0 101.0 351.0 102.0 352.0 103.0 C 353.0 104.0 354.0 104.0 355.0 104.0 C 355.0 105.0 355.0 106.0 356.0 107.0 C 357.0 107.0 358.0 108.0 359.0 109.0 C 361.0 114.0 362.0 119.0 366.0 122.0 C 366.0 127.0 367.0 132.0 369.0 136.0 C 370.0 141.0 370.0 144.0 370.0 149.0 C 369.0 153.0 367.0 158.0 367.0 163.0 C 366.0 168.0 363.0 172.0 361.0 176.0 C 359.0 181.0 357.0 185.0 353.0 189.0 C 349.0 192.0 346.0 196.0 344.0 200.0 C 340.0 203.0 335.0 208.0 331.0 211.0 C 327.0 215.0 322.0 216.0 318.0 218.0 C 313.0 220.0 314.0 224.0 312.0 225.0 C 308.0 225.0 304.0 227.0 299.0 229.0 C 294.0 231.0 289.0 233.0 284.0 234.0 C 281.0 233.0 278.0 235.0 273.0 237.0 C 268.0 238.0 263.0 239.0 261.0 242.0 C 258.0 240.0 253.0 240.0 248.0 241.0 C 243.0 241.0 238.0 242.0 233.0 242.0 C 228.0 242.0 223.0 241.0 218.0 240.0 C 213.0 241.0 208.0 240.0 204.0 238.0 C 200.0 236.0 195.0 235.0 191.0 232.0 C 186.0 231.0 182.0 229.0 179.0 227.0 C 175.0 225.0 173.0 221.0 169.0 220.0 C 165.0 217.0 161.0 212.0 158.0 209.0 C 155.0 207.0 153.0 203.0 151.0 199.0 C 149.0 194.0 147.0 189.0 144.0 185.0 C 144.0 180.0 143.0 175.0 143.0 170.0 C 144.0 166.0 144.0 161.0 146.0 156.0 C 149.0 152.0 152.0 150.0 155.0 147.0 C 157.0 142.0 157.0 137.0 158.0 132.0 C 162.0 132.0 163.0 137.0 166.0 140.0 C 170.0 139.0 175.0 137.0 180.0 135.0 C 184.0 133.0 188.0 132.0 192.0 130.0 C 196.0 128.0 201.0 126.0 206.0 125.0 C 211.0 124.0 216.0 124.0 221.0 123.0 C 217.0 121.0 221.0 119.0 226.0 118.0 C 230.0 117.0 235.0 116.0 240.0 117.0 C 244.0 115.0 248.0 111.0 245.0 107.0 C 243.0 102.0 241.0 98.0 244.0 96.0 C 247.0 99.0 250.0 102.0 253.0 106.0 C 256.0 109.0 260.0 112.0 264.0 109.0 C 269.0 108.0 274.0 108.0 278.0 106.0 C 283.0 105.0 288.0 104.0 292.0 103.0 C 297.0 102.0 300.0 104.0 304.0 102.0 C 308.0 100.0 311.0 101.0 306.0 102.0 C 308.0 104.0 313.0 104.0 318.0 105.0 C 323.0 107.0 327.0 112.0 329.0 117.0 C 330.0 122.0 329.0 127.0 327.0 132.0 C 330.0 136.0 333.0 133.0 334.0 131.0 C 338.0 132.0 343.0 131.0 342.0 127.0 C 347.0 127.0 345.0 124.0 345.0 119.0 C 344.0 114.0 344.0 111.0 340.0 108.0 C 339.0 104.0 334.0 100.0 331.0 97.0 C 335.0 95.0 340.0 94.0 341.0 94.0" stroke-width="0.0" fill="rgb(249, 187, 105)" opacity="1.0" stroke="rgb(218, 170, 8)" stroke-opacity="0.27622667" stroke-linecap="round" stroke-linejoin="round"/>
    <path d="M 170.0 383.0 C 171.0 383.0 172.0 383.0 173.0 383.0 C 174.0 383.0 175.0 383.0 176.0 383.0 C 177.0 383.0 178.0 383.0 179.0 383.0 C 180.0 383.0 181.0 384.0 182.0 385.0 C 183.0 385.0 184.0 385.0 185.0 385.0 C 186.0 385.0 187.0 385.0 188.0 385.0 C 189.0 385.0 190.0 385.0 190.0 386.0 C 191.0 387.0 192.0 387.0 194.0 387.0 C 192.0 388.0 193.0 392.0 197.0 393.0 C 201.0 394.0 202.0 390.0 206.0 391.0 C 206.0 394.0 203.0 395.0 199.0 395.0 C 195.0 394.0 191.0 393.0 190.0 397.0 C 192.0 401.0 196.0 401.0 200.0 400.0 C 204.0 400.0 207.0 398.0 211.0 397.0 C 215.0 397.0 219.0 397.0 223.0 397.0 C 225.0 393.0 229.0 393.0 233.0 394.0 C 237.0 394.0 239.0 396.0 242.0 398.0 C 246.0 398.0 250.0 398.0 254.0 398.0 C 257.0 396.0 261.0 396.0 265.0 398.0 C 269.0 399.0 272.0 398.0 276.0 398.0 C 280.0 398.0 284.0 398.0 288.0 399.0 C 292.0 400.0 296.0 400.0 300.0 400.0 C 302.0 402.0 302.0 406.0 304.0 410.0 C 302.0 413.0 304.0 416.0 302.0 420.0 C 302.0 424.0 302.0 428.0 300.0 430.0 C 296.0 430.0 292.0 430.0 288.0 431.0 C 287.0 435.0 286.0 439.0 286.0 443.0 C 286.0 447.0 286.0 451.0 286.0 455.0 C 286.0 459.0 285.0 462.0 281.0 462.0 C 277.0 462.0 273.0 462.0 269.0 462.0 C 265.0 462.0 261.0 462.0 257.0 462.0 C 256.0 458.0 256.0 454.0 256.0 450.0 C 257.0 446.0 257.0 442.0 256.0 438.0 C 252.0 439.0 252.0 443.0 252.0 447.0 C 249.0 446.0 252.0 444.0 251.0 440.0 C 251.0 437.0 252.0 433.0 249.0 430.0 C 245.0 430.0 241.0 430.0 237.0 430.0 C 233.0 430.0 229.0 430.0 225.0 431.0 C 224.0 434.0 228.0 435.0 232.0 435.0 C 236.0 435.0 240.0 434.0 242.0 435.0 C 238.0 435.0 234.0 436.0 230.0 436.0 C 226.0 436.0 223.0 438.0 225.0 441.0 C 229.0 441.0 229.0 441.0 225.0 442.0 C 222.0 445.0 222.0 449.0 220.0 451.0 C 218.0 449.0 215.0 447.0 211.0 447.0 C 209.0 450.0 207.0 453.0 206.0 457.0 C 206.0 461.0 203.0 462.0 201.0 465.0 C 197.0 464.0 193.0 464.0 190.0 462.0 C 186.0 462.0 182.0 463.0 178.0 464.0 C 177.0 461.0 177.0 457.0 176.0 453.0 C 172.0 452.0 171.0 456.0 172.0 460.0 C 171.0 463.0 171.0 459.0 168.0 456.0 C 166.0 454.0 168.0 451.0 170.0 448.0 C 166.0 446.0 162.0 446.0 161.0 443.0 C 161.0 439.0 161.0 435.0 161.0 431.0 C 161.0 427.0 161.0 423.0 161.0 419.0 C 161.0 415.0 161.0 411.0 159.0 408.0 C 159.0 404.0 159.0 400.0 159.0 396.0 C 159.0 392.0 161.0 388.0 162.0 385.0 C 166.0 385.0 169.0 383.0 170.0 383.0" stroke-width="0.0" fill="rgb(252, 77, 1)" opacity="1.0" stroke="rgb(69, 250, 196)" stroke-opacity="0.5656443" stroke-linecap="round" stroke-linejoin="round"/>
  </g>
</svg>
