<?xml version="1.0" ?>
<svg xmlns="http://www.w3.org/2000/svg" version="1.1" width="413" height="416">
  <defs/>
  <g>
    <path d="M 1.0 0.0 C 2.0 0.0 3.0 0.0 4.0 0.0 C 5.0 0.0 6.0 0.0 7.0 0.0 C 8.0 0.0 9.0 0.0 10.0 0.0 C 11.0 0.0 12.0 0.0 13.0 0.0 C 14.0 0.0 15.0 0.0 16.0 0.0 C 24.0 0.0 34.0 0.0 44.0 0.0 C 54.0 0.0 64.0 0.0 74.0 0.0 C 84.0 0.0 94.0 0.0 104.0 0.0 C 114.0 0.0 124.0 0.0 134.0 0.0 C 144.0 0.0 154.0 0.0 164.0 0.0 C 174.0 0.0 184.0 0.0 194.0 0.0 C 204.0 0.0 214.0 0.0 224.0 0.0 C 234.0 0.0 244.0 0.0 254.0 0.0 C 264.0 0.0 274.0 0.0 284.0 0.0 C 294.0 0.0 304.0 0.0 314.0 0.0 C 324.0 0.0 334.0 0.0 344.0 0.0 C 354.0 0.0 364.0 0.0 374.0 0.0 C 384.0 0.0 394.0 0.0 404.0 0.0 C 412.0 2.0 412.0 12.0 412.0 22.0 C 412.0 32.0 412.0 42.0 412.0 52.0 C 412.0 62.0 412.0 72.0 412.0 82.0 C 412.0 92.0 412.0 102.0 412.0 112.0 C 412.0 122.0 412.0 132.0 412.0 142.0 C 412.0 152.0 412.0 162.0 412.0 172.0 C 412.0 182.0 412.0 192.0 412.0 202.0 C 412.0 212.0 412.0 222.0 412.0 232.0 C 412.0 242.0 412.0 252.0 412.0 262.0 C 412.0 272.0 412.0 282.0 412.0 292.0 C 412.0 302.0 412.0 312.0 412.0 322.0 C 412.0 332.0 412.0 342.0 412.0 352.0 C 412.0 362.0 412.0 372.0 412.0 382.0 C 412.0 392.0 412.0 402.0 412.0 412.0 C 405.0 415.0 395.0 415.0 385.0 415.0 C 375.0 415.0 365.0 415.0 355.0 415.0 C 345.0 415.0 335.0 415.0 325.0 415.0 C 315.0 415.0 305.0 415.0 295.0 415.0 C 285.0 415.0 275.0 415.0 265.0 415.0 C 255.0 415.0 245.0 415.0 235.0 415.0 C 225.0 415.0 215.0 415.0 205.0 415.0 C 195.0 415.0 185.0 415.0 175.0 415.0 C 165.0 415.0 155.0 415.0 145.0 415.0 C 135.0 415.0 125.0 415.0 115.0 415.0 C 105.0 415.0 95.0 415.0 85.0 415.0 C 75.0 415.0 65.0 415.0 55.0 415.0 C 45.0 415.0 35.0 415.0 25.0 415.0 C 15.0 415.0 5.0 415.0 0.0 410.0 C 0.0 400.0 0.0 390.0 0.0 380.0 C 0.0 370.0 0.0 360.0 0.0 350.0 C 0.0 340.0 0.0 330.0 0.0 320.0 C 0.0 310.0 0.0 300.0 0.0 290.0 C 0.0 280.0 0.0 270.0 0.0 260.0 C 0.0 250.0 0.0 240.0 0.0 230.0 C 0.0 220.0 0.0 210.0 0.0 200.0 C 0.0 190.0 0.0 180.0 0.0 170.0 C 0.0 160.0 0.0 150.0 0.0 140.0 C 0.0 130.0 0.0 120.0 0.0 110.0 C 0.0 100.0 0.0 90.0 0.0 80.0 C 0.0 70.0 0.0 60.0 0.0 50.0 C 0.0 40.0 0.0 30.0 0.0 20.0 C 0.0 10.0 0.0 0.0 1.0 0.0" stroke-width="0.0" fill="rgb(73, 73, 180)" opacity="1.0" stroke="rgb(6, 158, 243)" stroke-opacity="0.104724735" stroke-linecap="round" stroke-linejoin="round"/>
    <path d="M 116.0 135.0 C 117.0 135.0 118.0 135.0 119.0 135.0 C 120.0 135.0 121.0 135.0 122.0 135.0 C 123.0 136.0 124.0 136.0 125.0 136.0 C 126.0 136.0 127.0 136.0 128.0 136.0 C 129.0 137.0 132.0 138.0 135.0 139.0 C 138.0 140.0 141.0 142.0 144.0 144.0 C 147.0 147.0 149.0 150.0 151.0 153.0 C 152.0 156.0 153.0 159.0 154.0 162.0 C 155.0 165.0 157.0 168.0 159.0 171.0 C 162.0 173.0 165.0 173.0 167.0 175.0 C 170.0 176.0 173.0 177.0 176.0 178.0 C 179.0 179.0 182.0 182.0 185.0 185.0 C 186.0 188.0 187.0 191.0 187.0 194.0 C 188.0 197.0 189.0 200.0 188.0 203.0 C 187.0 206.0 187.0 209.0 187.0 212.0 C 186.0 215.0 186.0 218.0 187.0 221.0 C 190.0 224.0 192.0 225.0 195.0 225.0 C 195.0 222.0 194.0 219.0 195.0 216.0 C 198.0 216.0 200.0 217.0 202.0 220.0 C 205.0 219.0 206.0 216.0 207.0 214.0 C 210.0 212.0 213.0 212.0 216.0 213.0 C 219.0 215.0 222.0 216.0 224.0 219.0 C 225.0 222.0 222.0 225.0 221.0 228.0 C 220.0 231.0 218.0 234.0 215.0 236.0 C 212.0 238.0 210.0 240.0 210.0 243.0 C 209.0 246.0 211.0 249.0 213.0 252.0 C 216.0 254.0 219.0 255.0 221.0 257.0 C 219.0 260.0 216.0 263.0 214.0 266.0 C 211.0 266.0 208.0 267.0 205.0 267.0 C 202.0 266.0 199.0 264.0 198.0 261.0 C 199.0 258.0 197.0 256.0 196.0 259.0 C 195.0 262.0 192.0 263.0 189.0 263.0 C 186.0 263.0 184.0 265.0 181.0 265.0 C 178.0 264.0 175.0 263.0 172.0 262.0 C 169.0 259.0 166.0 256.0 165.0 253.0 C 163.0 250.0 162.0 247.0 161.0 244.0 C 159.0 241.0 156.0 238.0 153.0 235.0 C 150.0 234.0 147.0 235.0 146.0 238.0 C 146.0 241.0 146.0 244.0 145.0 247.0 C 145.0 250.0 145.0 253.0 144.0 256.0 C 142.0 259.0 141.0 262.0 139.0 265.0 C 136.0 267.0 133.0 269.0 130.0 271.0 C 127.0 271.0 124.0 272.0 121.0 271.0 C 118.0 270.0 115.0 269.0 112.0 266.0 C 109.0 263.0 107.0 260.0 104.0 257.0 C 102.0 254.0 100.0 251.0 97.0 248.0 C 94.0 245.0 91.0 242.0 88.0 240.0 C 85.0 237.0 83.0 234.0 81.0 231.0 C 79.0 228.0 78.0 225.0 77.0 222.0 C 76.0 219.0 76.0 216.0 76.0 213.0 C 76.0 210.0 76.0 207.0 76.0 204.0 C 76.0 201.0 75.0 198.0 75.0 195.0 C 74.0 192.0 73.0 189.0 73.0 186.0 C 73.0 183.0 73.0 180.0 74.0 177.0 C 75.0 174.0 76.0 171.0 77.0 168.0 C 79.0 165.0 81.0 162.0 83.0 159.0 C 86.0 156.0 88.0 153.0 91.0 150.0 C 94.0 147.0 97.0 144.0 100.0 141.0 C 103.0 139.0 106.0 138.0 109.0 137.0 C 112.0 136.0 115.0 135.0 116.0 135.0" stroke-width="0.0" fill="rgb(90, 90, 187)" opacity="1.0" stroke="rgb(14, 103, 180)" stroke-opacity="0.04718994" stroke-linecap="round" stroke-linejoin="round"/>
    <path d="M 279.0 146.0 C 280.0 146.0 280.0 147.0 280.0 148.0 C 280.0 149.0 280.0 150.0 280.0 151.0 C 280.0 152.0 280.0 153.0 279.0 154.0 C 279.0 155.0 279.0 156.0 278.0 157.0 C 278.0 158.0 278.0 159.0 278.0 160.0 C 279.0 161.0 280.0 160.0 281.0 159.0 C 282.0 158.0 283.0 158.0 284.0 157.0 C 285.0 157.0 286.0 157.0 287.0 156.0 C 288.0 156.0 289.0 156.0 290.0 156.0 C 291.0 156.0 292.0 157.0 293.0 157.0 C 294.0 157.0 295.0 158.0 296.0 158.0 C 297.0 159.0 298.0 159.0 299.0 160.0 C 301.0 161.0 304.0 163.0 307.0 166.0 C 310.0 169.0 313.0 172.0 316.0 174.0 C 319.0 175.0 322.0 176.0 325.0 177.0 C 328.0 178.0 331.0 179.0 334.0 180.0 C 337.0 181.0 340.0 182.0 343.0 184.0 C 346.0 185.0 349.0 188.0 352.0 191.0 C 355.0 194.0 357.0 197.0 359.0 200.0 C 360.0 203.0 361.0 206.0 363.0 209.0 C 364.0 212.0 364.0 215.0 365.0 218.0 C 365.0 221.0 366.0 224.0 366.0 227.0 C 365.0 230.0 365.0 233.0 364.0 236.0 C 363.0 239.0 361.0 242.0 359.0 245.0 C 356.0 248.0 354.0 250.0 351.0 253.0 C 348.0 255.0 345.0 257.0 342.0 258.0 C 339.0 259.0 336.0 260.0 333.0 260.0 C 330.0 260.0 327.0 261.0 324.0 261.0 C 321.0 261.0 318.0 261.0 315.0 261.0 C 312.0 262.0 309.0 263.0 306.0 265.0 C 303.0 266.0 300.0 267.0 297.0 268.0 C 294.0 269.0 291.0 269.0 288.0 268.0 C 285.0 267.0 282.0 266.0 279.0 264.0 C 276.0 261.0 275.0 258.0 273.0 255.0 C 273.0 252.0 273.0 249.0 273.0 246.0 C 273.0 243.0 274.0 240.0 275.0 237.0 C 276.0 234.0 278.0 231.0 277.0 228.0 C 274.0 226.0 271.0 225.0 268.0 224.0 C 265.0 222.0 262.0 220.0 260.0 217.0 C 258.0 214.0 258.0 211.0 257.0 208.0 C 255.0 209.0 253.0 208.0 254.0 206.0 C 255.0 203.0 258.0 202.0 259.0 199.0 C 260.0 196.0 262.0 193.0 263.0 190.0 C 265.0 188.0 267.0 185.0 268.0 182.0 C 270.0 179.0 271.0 176.0 272.0 173.0 C 271.0 170.0 269.0 168.0 268.0 170.0 C 267.0 172.0 265.0 175.0 264.0 177.0 C 261.0 177.0 258.0 178.0 256.0 179.0 C 254.0 178.0 254.0 175.0 256.0 172.0 C 254.0 169.0 252.0 167.0 249.0 169.0 C 246.0 169.0 243.0 168.0 242.0 165.0 C 245.0 164.0 246.0 161.0 244.0 159.0 C 246.0 156.0 248.0 154.0 251.0 154.0 C 252.0 156.0 255.0 156.0 257.0 157.0 C 257.0 160.0 254.0 161.0 256.0 164.0 C 259.0 166.0 261.0 165.0 264.0 163.0 C 266.0 161.0 268.0 159.0 268.0 156.0 C 269.0 154.0 268.0 152.0 269.0 150.0 C 270.0 152.0 273.0 152.0 274.0 150.0 C 276.0 148.0 278.0 146.0 279.0 146.0" stroke-width="0.0" fill="rgb(73, 73, 166)" opacity="1.0" stroke="rgb(95, 141, 32)" stroke-opacity="0.4469963" stroke-linecap="round" stroke-linejoin="round"/>
    <path d="M 143.0 42.0 C 144.0 42.0 145.0 42.0 146.0 42.0 C 147.0 42.0 148.0 42.0 149.0 43.0 C 150.0 43.0 151.0 43.0 152.0 43.0 C 153.0 43.0 154.0 43.0 155.0 44.0 C 156.0 44.0 157.0 44.0 158.0 44.0 C 159.0 45.0 160.0 45.0 161.0 46.0 C 163.0 46.0 168.0 49.0 173.0 52.0 C 178.0 55.0 183.0 59.0 188.0 62.0 C 193.0 66.0 198.0 69.0 203.0 72.0 C 208.0 75.0 213.0 76.0 218.0 77.0 C 223.0 77.0 228.0 75.0 233.0 74.0 C 238.0 72.0 243.0 73.0 248.0 76.0 C 249.0 81.0 247.0 86.0 243.0 91.0 C 239.0 96.0 237.0 101.0 237.0 106.0 C 241.0 111.0 246.0 114.0 251.0 116.0 C 256.0 118.0 261.0 119.0 266.0 121.0 C 271.0 124.0 275.0 129.0 277.0 133.0 C 279.0 138.0 280.0 143.0 280.0 148.0 C 280.0 153.0 278.0 158.0 277.0 163.0 C 274.0 168.0 271.0 173.0 266.0 178.0 C 262.0 182.0 257.0 186.0 252.0 190.0 C 247.0 193.0 242.0 197.0 237.0 202.0 C 234.0 207.0 233.0 212.0 233.0 217.0 C 233.0 222.0 233.0 227.0 233.0 232.0 C 230.0 237.0 226.0 242.0 221.0 245.0 C 216.0 246.0 212.0 245.0 212.0 240.0 C 217.0 237.0 221.0 232.0 224.0 227.0 C 228.0 222.0 225.0 217.0 221.0 214.0 C 216.0 211.0 211.0 209.0 206.0 212.0 C 201.0 213.0 196.0 213.0 191.0 217.0 C 193.0 222.0 193.0 227.0 195.0 232.0 C 199.0 237.0 202.0 241.0 200.0 244.0 C 195.0 242.0 190.0 238.0 185.0 234.0 C 182.0 229.0 180.0 224.0 180.0 219.0 C 181.0 214.0 183.0 209.0 186.0 204.0 C 188.0 199.0 190.0 194.0 191.0 189.0 C 190.0 184.0 187.0 179.0 182.0 175.0 C 177.0 173.0 172.0 173.0 167.0 173.0 C 162.0 174.0 157.0 174.0 152.0 174.0 C 147.0 173.0 142.0 170.0 140.0 165.0 C 140.0 160.0 142.0 155.0 146.0 150.0 C 151.0 146.0 153.0 141.0 155.0 136.0 C 154.0 131.0 150.0 127.0 145.0 125.0 C 140.0 125.0 135.0 126.0 130.0 128.0 C 125.0 131.0 120.0 133.0 115.0 133.0 C 110.0 133.0 105.0 131.0 101.0 126.0 C 98.0 121.0 98.0 116.0 99.0 111.0 C 102.0 106.0 107.0 102.0 112.0 100.0 C 117.0 100.0 122.0 101.0 127.0 103.0 C 132.0 105.0 137.0 108.0 142.0 111.0 C 147.0 113.0 152.0 115.0 157.0 116.0 C 162.0 116.0 167.0 115.0 172.0 111.0 C 175.0 107.0 178.0 102.0 178.0 97.0 C 175.0 92.0 171.0 88.0 166.0 86.0 C 161.0 86.0 156.0 85.0 151.0 85.0 C 146.0 84.0 141.0 84.0 136.0 83.0 C 131.0 81.0 126.0 78.0 122.0 73.0 C 119.0 68.0 119.0 63.0 120.0 58.0 C 123.0 53.0 127.0 48.0 132.0 45.0 C 137.0 43.0 142.0 42.0 143.0 42.0" stroke-width="0.0" fill="rgb(21, 18, 71)" opacity="1.0" stroke="rgb(17, 241, 122)" stroke-opacity="0.90690255" stroke-linecap="round" stroke-linejoin="round"/>
  </g>
</svg>
