<?xml version="1.0" ?>
<svg xmlns="http://www.w3.org/2000/svg" version="1.1" width="363" height="550">
  <defs/>
  <g>
    <path d="M -0.5566889643669128 -12.406463623046875 C 16.402257919311523 -9.147173881530762 32.3097038269043 -8.652161598205566 46.27350616455078 -9.873920440673828 C 57.76673126220703 -10.769124031066895 67.25675201416016 -10.73964786529541 75.70545959472656 -10.012714385986328 C 84.27792358398438 -9.248175621032715 94.27040100097656 -9.241488456726074 106.67163848876953 -9.954506874084473 C 121.60633850097656 -11.102330207824707 138.33895874023438 -12.262185096740723 155.7877960205078 -13.104144096374512 C 172.30020141601562 -13.290688514709473 185.82102966308594 -12.520448684692383 194.3489532470703 -10.296979904174805 C 196.0480194091797 -6.519336223602295 192.98793029785156 -2.4975876808166504 189.92013549804688 0.7590318918228149 C 190.39492797851562 2.1219418048858643 189.80667114257812 0.2312542200088501 187.1949920654297 -4.087376594543457 C 183.8588409423828 -8.921042442321777 183.7568359375 -12.762490272521973 190.6074981689453 -15.165247917175293 C 205.0854949951172 -15.996312141418457 222.99639892578125 -14.859200477600098 239.0308074951172 -10.899529457092285 C 247.81173706054688 -2.7327327728271484 249.32073974609375 9.401126861572266 249.1883544921875 21.229328155517578 C 251.16517639160156 26.706024169921875 255.03817749023438 26.387758255004883 259.9785461425781 23.992944717407227 C 262.1839599609375 22.788040161132812 261.2700500488281 23.589426040649414 257.92236328125 24.743206024169922 C 254.4324951171875 24.3056697845459 251.8358154296875 24.19141387939453 250.26119995117188 23.260746002197266 C 249.13328552246094 19.16791534423828 247.85748291015625 10.445832252502441 247.47691345214844 0.5617032051086426 C 252.30389404296875 -6.4668049812316895 261.5425109863281 -10.45242977142334 273.8977966308594 -11.968125343322754 C 288.24249267578125 -11.626461029052734 303.5089416503906 -9.989786148071289 318.52703857421875 -8.09399127960205 C 332.3828430175781 -7.167653560638428 344.5157470703125 -5.103119850158691 354.6253967285156 -1.1386332511901855 C 362.6080017089844 4.987523078918457 368.4834899902344 13.127113342285156 372.07330322265625 23.01409149169922 C 373.12261962890625 34.21950149536133 372.9042663574219 46.26899337768555 372.7641906738281 58.83628845214844 C 372.7615661621094 71.5353775024414 372.7691650390625 84.08269500732422 372.7696838378906 96.37899017333984 C 372.7695007324219 108.28836059570312 372.76947021484375 119.83514404296875 372.7695007324219 131.1568145751953 C 372.7695007324219 142.34080505371094 372.7695007324219 153.4924774169922 372.7695007324219 164.79811096191406 C 372.7695007324219 176.2742156982422 372.7695007324219 187.84605407714844 372.7695007324219 199.59902954101562 C 372.7695007324219 211.5591583251953 372.7695007324219 223.6438751220703 372.7695007324219 235.74197387695312 C 372.7695007324219 247.7880096435547 372.7695007324219 259.8296203613281 372.7695007324219 271.8955993652344 C 372.7695007324219 283.92138671875 372.7695007324219 295.9086608886719 372.7695007324219 307.9137268066406 C 372.76947021484375 319.9535827636719 372.76947021484375 332.0199279785156 372.7695007324219 344.11517333984375 C 372.7693786621094 356.2197265625 372.7679443359375 368.2537536621094 372.7684020996094 380.1263122558594 C 372.81610107421875 391.8079528808594 372.8839416503906 403.3008117675781 372.3047790527344 414.70477294921875 C 370.7229919433594 426.3896789550781 368.8003234863281 438.6896667480469 367.1113586425781 451.8838195800781 C 366.2414245605469 466.1768493652344 366.44915771484375 481.42291259765625 367.84002685546875 497.2935485839844 C 370.3397521972656 513.27001953125 373.3676452636719 528.53173828125 376.0776672363281 542.0322875976562 C 377.38836669921875 552.6299438476562 374.9139404296875 559.1376342773438 367.2200927734375 561.2000732421875 C 355.5823974609375 560.1777954101562 341.42840576171875 559.70703125 325.8756408691406 559.75830078125 C 309.8963928222656 559.7774658203125 294.33087158203125 559.7671508789062 279.5884704589844 559.7056274414062 C 265.8323974609375 559.652099609375 253.0314483642578 559.6449584960938 240.97708129882812 559.6743774414062 C 229.3605194091797 559.7024536132812 217.90518188476562 559.7554931640625 206.44435119628906 559.7730102539062 C 194.86468505859375 559.7697143554688 183.1927490234375 559.76904296875 171.53099060058594 559.7692260742188 C 159.9471893310547 559.7692260742188 148.3448028564453 559.7692260742188 136.62240600585938 559.7692260742188 C 124.56163787841797 559.7692260742188 111.8697509765625 559.7692260742188 98.41126251220703 559.7691040039062 C 84.10969543457031 559.7713623046875 69.0393295288086 559.7806396484375 53.49906921386719 559.75244140625 C 38.04808044433594 559.5770263671875 23.35611343383789 559.7822875976562 10.138574600219727 560.9585571289062 C -0.82541823387146 561.9319458007812 -8.744229316711426 560.5914306640625 -12.891214370727539 554.583251953125 C -13.305069923400879 542.8732299804688 -11.506821632385254 527.457275390625 -9.36213493347168 510.403564453125 C -9.012580871582031 493.6607360839844 -9.937823295593262 478.96636962890625 -10.83769416809082 467.26226806640625 C -11.02843189239502 458.5726623535156 -10.787137031555176 451.3403625488281 -10.434797286987305 443.91278076171875 C -9.634284973144531 435.0013122558594 -8.857343673706055 424.8829040527344 -8.21022891998291 414.2054443359375 C -7.7267961502075195 403.8503112792969 -7.56981086730957 394.5111999511719 -7.727734088897705 386.8068542480469 C -8.15975284576416 381.1519775390625 -8.835012435913086 375.92120361328125 -9.555858612060547 369.26513671875 C -9.800711631774902 359.6881103515625 -9.423643112182617 347.3345947265625 -8.893893241882324 332.90863037109375 C -9.007641792297363 317.97125244140625 -9.338239669799805 303.9326171875 -9.606610298156738 291.2305908203125 C -9.644083023071289 279.8342590332031 -9.359489440917969 269.4911804199219 -8.860538482666016 259.6988525390625 C -8.700804710388184 249.49392700195312 -9.376856803894043 238.02996826171875 -10.472989082336426 225.40109252929688 C -11.193053245544434 212.35459899902344 -11.277854919433594 199.6153564453125 -10.61855411529541 187.69119262695312 C -9.459553718566895 176.7594451904297 -8.681015014648438 166.4942626953125 -8.82706069946289 156.394287109375 C -9.22997760772705 145.99185180664062 -9.053068161010742 135.15109252929688 -8.62964916229248 123.8721923828125 C -8.73652458190918 112.30205535888672 -8.99039077758789 100.7034683227539 -9.18417739868164 89.38240051269531 C -9.287883758544922 78.460693359375 -9.349067687988281 67.61048889160156 -9.46655559539795 56.37254333496094 C -9.937813758850098 44.36545944213867 -10.742201805114746 31.282426834106445 -11.733671188354492 17.035329818725586 C -12.727628707885742 1.8260343074798584 -13.580370903015137 -13.902602195739746 -0.5566889643669128 -12.406463623046875" stroke-width="0.0" fill="rgb(148, 164, 101)" opacity="0.9999939" stroke="rgb(104, 224, 59)" stroke-opacity="0.30927762" stroke-linecap="round" stroke-linejoin="round"/>
    <path d="M 304.93011474609375 133.2354278564453 C 314.9208679199219 137.55067443847656 323.4513854980469 142.28237915039062 329.1478271484375 147.82916259765625 C 331.46240234375 154.1352081298828 336.41400146484375 158.15008544921875 344.8414001464844 161.21585083007812 C 353.2071533203125 167.33067321777344 361.0343017578125 175.54476928710938 367.00201416015625 186.22775268554688 C 370.47161865234375 199.1155242919922 371.99615478515625 213.25416564941406 372.1907958984375 227.57986450195312 C 371.4977111816406 241.0035400390625 370.18231201171875 253.25979614257812 368.6637268066406 264.28564453125 C 367.43487548828125 274.3099365234375 366.91131591796875 283.71600341796875 367.2420959472656 293.0323181152344 C 368.41357421875 303.059326171875 369.94415283203125 314.5224914550781 371.40643310546875 327.4682312011719 C 371.9611511230469 341.5277099609375 371.7481994628906 356.2854919433594 371.3396911621094 371.3999938964844 C 371.39129638671875 387.00946044921875 371.9521484375 403.4615783691406 372.70074462890625 421.0697021484375 C 372.81268310546875 440.1874694824219 372.7733459472656 460.90972900390625 372.7652282714844 482.57696533203125 C 372.7220764160156 504.12591552734375 373.013427734375 524.385009765625 373.8552551269531 541.7879028320312 C 371.2506408691406 554.7255859375 363.58154296875 561.7709350585938 350.69451904296875 563.4922485351562 C 333.4800109863281 562.3914184570312 312.842529296875 560.6456298828125 289.80322265625 559.6553344726562 C 265.6206359863281 559.7835693359375 241.60116577148438 559.7727661132812 218.94325256347656 559.8341674804688 C 198.7114715576172 559.73388671875 181.64923095703125 557.9815063476562 168.20059204101562 553.068115234375 C 158.56826782226562 544.7633666992188 152.33033752441406 533.8727416992188 148.08253479003906 523.0404663085938 C 143.30416870117188 517.3383178710938 135.8567657470703 518.500732421875 126.39088439941406 519.8713989257812 C 121.31990051269531 521.48779296875 122.19149780273438 530.2142333984375 125.0208511352539 540.8229370117188 C 125.36339569091797 545.4395751953125 117.39717102050781 542.4483032226562 102.8010025024414 534.7501220703125 C 86.29328155517578 527.3212890625 71.29609680175781 526.2648315429688 62.287715911865234 524.719970703125 C 65.96222686767578 516.033203125 67.79975128173828 504.4949645996094 69.39994812011719 496.13043212890625 C 79.73546600341797 496.7063903808594 94.0742416381836 503.3236999511719 107.37322998046875 505.6925354003906 C 113.53974914550781 494.96429443359375 115.18976593017578 479.8821105957031 120.3476333618164 470.2528076171875 C 124.09281158447266 473.85089111328125 126.9207534790039 484.4325256347656 137.64283752441406 491.37969970703125 C 145.23489379882812 500.8691711425781 154.9215850830078 500.7517395019531 164.44711303710938 493.7007141113281 C 171.70362854003906 493.5177001953125 179.64584350585938 499.0886535644531 188.330078125 500.7005615234375 C 195.72666931152344 494.6794738769531 200.74012756347656 484.1852722167969 202.28834533691406 472.7785339355469 C 198.05178833007812 465.7349548339844 188.74343872070312 463.7945251464844 176.8440399169922 463.4463195800781 C 164.24085998535156 460.96453857421875 153.02392578125 455.59515380859375 144.95896911621094 448.81341552734375 C 141.73155212402344 441.582763671875 144.56051635742188 437.8299255371094 152.7068328857422 438.9151916503906 C 163.93064880371094 442.93756103515625 175.046630859375 447.38140869140625 183.71351623535156 446.3012390136719 C 191.3677520751953 439.05413818359375 199.44932556152344 430.35797119140625 209.4862518310547 423.4389343261719 C 219.52706909179688 419.99920654296875 227.71812438964844 418.33465576171875 232.3895263671875 416.2842102050781 C 233.29673767089844 413.55950927734375 233.0117645263672 409.5668640136719 234.3148651123047 403.9337158203125 C 238.89004516601562 396.6235046386719 245.7091064453125 388.5188293457031 253.33236694335938 380.1597595214844 C 260.69061279296875 371.7555236816406 267.5077819824219 363.1361389160156 275.0476989746094 353.98162841796875 C 285.1014404296875 344.1764221191406 295.1584777832031 334.0496826171875 301.82720947265625 324.13507080078125 C 299.8539733886719 313.66510009765625 301.3100280761719 304.44024658203125 307.1282958984375 297.721435546875 C 315.25457763671875 293.7857360839844 323.253662109375 291.8804931640625 328.6784973144531 290.01177978515625 C 329.1104736328125 286.26348876953125 325.4386901855469 280.53125 320.34771728515625 274.7081298828125 C 316.5630798339844 270.3257141113281 313.333251953125 268.1288146972656 309.5023498535156 267.80462646484375 C 303.6705017089844 268.3537902832031 294.91265869140625 268.1381530761719 284.0899963378906 266.4360656738281 C 273.1530456542969 264.408447265625 264.21246337890625 264.08941650390625 259.0301818847656 268.2853088378906 C 258.9317932128906 278.779052734375 261.6320495605469 295.29339599609375 261.660888671875 314.9920959472656 C 256.2261962890625 332.3268737792969 245.20220947265625 343.3411560058594 230.88851928710938 346.7019348144531 C 215.71371459960938 345.187255859375 202.751708984375 339.5783996582031 192.19996643066406 330.3240966796875 C 183.23843383789062 318.6722106933594 175.2303009033203 306.6392822265625 168.80711364746094 295.5421447753906 C 166.37335205078125 287.2718200683594 171.79483032226562 283.81097412109375 182.82423400878906 282.27972412109375 C 193.83499145507812 281.0201416015625 202.06788635253906 280.92266845703125 205.83651733398438 280.8478088378906 C 204.6951446533203 279.5669860839844 199.25390625 276.3239440917969 190.7289276123047 270.5143127441406 C 180.3328399658203 261.8074035644531 171.23614501953125 252.47093200683594 168.03858947753906 243.03172302246094 C 171.34457397460938 233.35931396484375 172.6187286376953 223.78382873535156 173.0811767578125 216.065185546875 C 186.4445343017578 212.15309143066406 205.8749237060547 211.47750854492188 226.1492462158203 211.8174285888672 C 242.89393615722656 210.91835021972656 253.57362365722656 208.5708465576172 256.7851257324219 204.76455688476562 C 251.65542602539062 199.4387969970703 239.7932891845703 193.31947326660156 223.37802124023438 188.22015380859375 C 206.37425231933594 184.92274475097656 195.76739501953125 180.43600463867188 195.8658905029297 175.3230743408203 C 209.13499450683594 173.4881591796875 231.5811004638672 172.93881225585938 257.2720031738281 172.5805206298828 C 281.4360656738281 172.11175537109375 300.2764892578125 175.78929138183594 311.76806640625 175.3770751953125 C 315.86346435546875 171.3788604736328 313.2734375 165.75149536132812 305.9649353027344 159.45542907714844 C 295.5721130371094 153.35264587402344 284.2561340332031 147.99017333984375 304.93011474609375 133.2354278564453" stroke-width="0.0" fill="rgb(30, 47, 19)" opacity="0.99999547" stroke="rgb(10, 67, 22)" stroke-opacity="0.4440872" stroke-linecap="round" stroke-linejoin="round"/>
    <path d="M 7.194919109344482 493.643798828125 C 5.963498592376709 494.4963684082031 4.8751068115234375 495.2107238769531 4.029482364654541 495.75091552734375 C 3.9879209995269775 495.97052001953125 4.8297529220581055 496.04559326171875 6.507030963897705 496.5614929199219 C 8.623699188232422 498.0223083496094 10.574212074279785 500.56121826171875 11.969470024108887 503.3876953125 C 12.897812843322754 505.6871643066406 13.86011028289795 506.65985107421875 14.186042785644531 506.6802673339844 C 13.984502792358398 506.0489501953125 13.626360893249512 505.10711669921875 13.401061058044434 504.2569885253906 C 13.493887901306152 503.8580017089844 14.05650520324707 504.20849609375 15.025185585021973 505.20947265625 C 16.18773078918457 506.6100769042969 17.647171020507812 508.3992919921875 19.22995376586914 509.880126953125 C 20.16851806640625 511.20501708984375 20.458534240722656 512.619384765625 20.54823875427246 513.8775024414062 C 20.44509506225586 514.903076171875 20.19928741455078 515.6841430664062 19.892749786376953 516.1307373046875 C 19.576749801635742 516.1709594726562 19.41547966003418 516.051513671875 19.39746856689453 515.66748046875 C 19.57947540283203 515.3035278320312 20.181547164916992 514.8679809570312 21.113779067993164 514.357421875 C 22.174514770507812 513.7339477539062 23.2990779876709 512.9520263671875 24.42401695251465 512.1898193359375 C 25.384159088134766 511.60992431640625 26.112567901611328 511.3600158691406 26.601518630981445 511.43817138671875 C 26.68808937072754 511.8634948730469 26.557573318481445 512.5535888671875 26.425983428955078 513.2362060546875 C 26.540616989135742 513.7508544921875 27.332406997680664 514.1747436523438 28.73990249633789 514.4610595703125 C 30.616424560546875 514.6350708007812 32.80074691772461 515.014892578125 34.910484313964844 515.6235961914062 C 36.96463394165039 516.4505615234375 38.65959930419922 517.2777099609375 39.793331146240234 517.9790649414062 C 40.33647155761719 518.2838745117188 40.266807556152344 518.3462524414062 39.93630599975586 518.1421508789062 C 39.35282516479492 517.7504272460938 38.61197280883789 517.4812622070312 37.843196868896484 517.533203125 C 37.2567024230957 517.9983520507812 37.04152297973633 518.9708251953125 36.85462951660156 520.3129272460938 C 37.036659240722656 521.6596069335938 37.69755935668945 522.6812744140625 38.827144622802734 523.45751953125 C 40.207454681396484 523.857666015625 41.284645080566406 524.3087768554688 41.856689453125 525.2936401367188 C 41.94775390625 526.4520263671875 42.36772918701172 527.1136474609375 43.151031494140625 526.9024658203125 C 43.51966094970703 526.174560546875 43.469322204589844 525.4465942382812 43.172325134277344 524.5933227539062 C 43.037776947021484 523.5501708984375 43.138526916503906 522.6270141601562 43.613975524902344 522.1649169921875 C 44.78887176513672 522.2933349609375 46.532615661621094 522.5480346679688 48.53641891479492 522.954345703125 C 50.64881896972656 523.2577514648438 52.465755462646484 523.4818725585938 53.70082473754883 523.6334228515625 C 54.349605560302734 523.892822265625 54.43389892578125 524.643310546875 53.95036315917969 526.0354614257812 C 53.017982482910156 527.7836303710938 52.16085433959961 529.6366577148438 51.74721145629883 531.3780517578125 C 52.216793060302734 532.7702026367188 53.021278381347656 533.7909545898438 53.555572509765625 534.7769165039062 C 53.26927185058594 535.8343505859375 52.47909927368164 537.073974609375 51.61362075805664 538.5341186523438 C 51.16124725341797 540.0248413085938 51.132354736328125 541.4848022460938 51.34392166137695 542.9948120117188 C 51.46403121948242 544.4798583984375 51.2363395690918 545.9358520507812 50.396942138671875 547.1828002929688 C 49.036651611328125 547.760009765625 47.35540008544922 547.4027099609375 45.66255569458008 546.78173828125 C 44.1228141784668 546.7393188476562 43.075496673583984 547.4393920898438 42.581356048583984 548.5973510742188 C 42.70517349243164 549.6429443359375 43.073150634765625 550.7613525390625 43.3497314453125 551.50439453125 C 43.369388580322266 551.5236206054688 42.94102478027344 550.792724609375 42.00157928466797 549.6869506835938 C 40.448829650878906 548.390380859375 38.45358657836914 547.2654418945312 36.386959075927734 546.8993530273438 C 34.74238967895508 547.5185546875 33.660648345947266 548.7586059570312 33.110111236572266 550.2626342773438 C 33.03300857543945 551.4816284179688 33.29881286621094 552.1210327148438 33.715797424316406 551.9920043945312 C 34.13631057739258 551.095947265625 34.42298126220703 549.5587768554688 34.64915466308594 547.798583984375 C 34.803672790527344 546.3825073242188 34.947364807128906 545.5747680664062 35.01187515258789 545.5691528320312 C 34.90456008911133 546.4083862304688 34.6619987487793 548.01318359375 34.312137603759766 550.2944946289062 C 33.79379653930664 553.0255126953125 32.838130950927734 555.8668823242188 31.32085418701172 558.2254028320312 C 29.156858444213867 559.5768432617188 26.380008697509766 560.0339965820312 23.088178634643555 559.93701171875 C 19.513723373413086 559.7592163085938 15.94466781616211 559.2263793945312 12.489168167114258 558.296875 C 9.278528213500977 556.9719848632812 6.418944835662842 555.1517333984375 3.978950023651123 553.0558471679688 C 1.9675307273864746 550.9931030273438 0.5926716327667236 549.0185546875 0.1437215954065323 547.3373413085938 C 0.7255222797393799 546.0759887695312 2.25307559967041 545.2752685546875 4.613295078277588 544.801025390625 C 7.5656208992004395 544.4633178710938 10.684417724609375 544.2394409179688 13.415986061096191 544.0839233398438 C 15.090778350830078 544.0240478515625 15.093355178833008 544.1795043945312 13.249039649963379 544.52734375 C 9.871647834777832 545.0690307617188 5.548277854919434 545.5652465820312 0.8921529650688171 545.6381225585938 C -3.383805751800537 545.084228515625 -6.870375633239746 543.7841186523438 -9.230308532714844 541.7619018554688 C -10.166166305541992 539.0912475585938 -10.161989212036133 535.880126953125 -9.816561698913574 532.3116455078125 C -9.347467422485352 528.5982055664062 -8.815216064453125 524.90869140625 -8.320544242858887 521.3299560546875 C -7.849461555480957 517.8494262695312 -7.463086128234863 514.533935546875 -7.225024700164795 511.4228515625 C -7.149531841278076 508.5257568359375 -7.3217058181762695 505.8668518066406 -7.809292793273926 503.52996826171875 C -8.183235168457031 501.4747314453125 -8.347724914550781 499.6480407714844 -8.197863578796387 498.2364196777344 C -7.682354927062988 497.53765869140625 -6.968835830688477 497.514404296875 -6.205489158630371 498.1564636230469 C -5.534029006958008 499.3644714355469 -5.051918983459473 500.81219482421875 7.194919109344482 493.643798828125" stroke-width="0.0" fill="rgb(31, 62, 8)" opacity="0.99999535" stroke="rgb(195, 2, 4)" stroke-opacity="0.45455316" stroke-linecap="round" stroke-linejoin="round"/>
    <path d="M 316.90740966796875 79.21856689453125 C 318.46148681640625 78.04065704345703 320.0914611816406 76.96259307861328 321.7607421875 76.17440032958984 C 323.4883728027344 75.94755554199219 325.1048583984375 76.45184326171875 326.5839538574219 77.36994934082031 C 327.7811584472656 78.23846435546875 328.55975341796875 78.88916778564453 329.0635986328125 79.00687408447266 C 329.32513427734375 78.62004852294922 329.3784484863281 77.85911560058594 329.31756591796875 76.99273681640625 C 329.3301696777344 76.36897277832031 329.5230407714844 76.2878646850586 329.973876953125 76.61457824707031 C 330.81793212890625 77.34190368652344 331.9797668457031 78.13633728027344 333.1748352050781 78.53536224365234 C 334.02227783203125 78.60237121582031 334.3329162597656 78.28923034667969 334.0896911621094 77.80719757080078 C 333.33416748046875 77.46966552734375 332.51470947265625 77.37569427490234 332.0900573730469 77.54792785644531 C 332.4954833984375 77.8616943359375 333.7155456542969 78.28961181640625 335.4739990234375 78.64126586914062 C 337.21307373046875 78.89091491699219 338.7312927246094 79.16771697998047 339.8378601074219 79.3844223022461 C 340.43585205078125 79.56019592285156 340.6721496582031 79.7542953491211 340.62786865234375 79.94271087646484 C 340.65423583984375 80.1395263671875 341.2304382324219 80.3758316040039 342.50714111328125 80.67456817626953 C 344.52618408203125 80.97315979003906 347.1483459472656 81.43585968017578 350.03765869140625 82.06939697265625 C 352.7692565917969 82.83959197998047 355.11907958984375 83.9071273803711 356.8468322753906 85.31493377685547 C 357.6144104003906 86.95848083496094 357.214111328125 88.6025390625 355.6852722167969 89.8232650756836 C 353.2493591308594 90.3802261352539 350.57696533203125 90.53095245361328 348.4557189941406 90.64752197265625 C 347.39398193359375 91.05302429199219 346.90277099609375 91.64055633544922 346.85302734375 92.20967102050781 C 347.15020751953125 92.7365493774414 347.7444763183594 93.22948455810547 348.26837158203125 93.45272064208984 C 348.57379150390625 93.46592712402344 348.7986145019531 92.86421966552734 349.0791320800781 91.56588745117188 C 349.66497802734375 89.87684631347656 350.7946472167969 88.17647552490234 352.43927001953125 86.8229751586914 C 354.85687255859375 86.05810546875 357.8554992675781 85.95307922363281 361.10272216796875 86.93010711669922 C 364.2397155761719 88.90489959716797 366.8406677246094 91.68641662597656 368.5101318359375 95.2203598022461 C 369.1928405761719 99.09581756591797 368.73553466796875 102.70362091064453 367.13580322265625 105.47228240966797 C 364.50860595703125 107.17721557617188 361.1759338378906 108.25553894042969 357.5360107421875 109.33158111572266 C 354.1633605957031 110.84122467041016 351.4739990234375 112.8482437133789 349.7620849609375 115.28263854980469 C 349.28857421875 117.759765625 349.5159912109375 119.68302917480469 349.55474853515625 120.39474487304688 C 348.5867919921875 119.65206146240234 345.83734130859375 118.59228515625 341.99066162109375 118.37079620361328 C 339.539306640625 120.49894714355469 339.631103515625 123.81118774414062 341.59490966796875 125.541748046875 C 345.224853515625 123.73037719726562 349.1090393066406 121.19746398925781 352.2809753417969 120.2064437866211 C 354.2304992675781 122.23048400878906 355.21893310546875 125.54354095458984 356.0111389160156 127.92884826660156 C 357.8603515625 127.78679656982422 360.12091064453125 127.5289535522461 361.7445373535156 128.7657012939453 C 362.29571533203125 130.98959350585938 361.6327819824219 133.3570556640625 359.7594299316406 135.275390625 C 356.6060791015625 135.55592346191406 352.8948974609375 135.1460723876953 349.3016357421875 134.48106384277344 C 346.2858581542969 134.22164916992188 344.0513916015625 134.3627166748047 342.39288330078125 134.75816345214844 C 340.974853515625 135.1728057861328 339.3974304199219 135.40061950683594 337.5121154785156 135.42332458496094 C 335.2398376464844 135.23329162597656 332.6790466308594 134.72348022460938 329.9024963378906 133.9452667236328 C 327.0148010253906 132.75135803222656 324.1445007324219 131.1776123046875 321.2869567871094 129.37510681152344 C 318.4828796386719 127.67709350585938 316.04638671875 126.2374496459961 313.9963684082031 125.37167358398438 C 312.4979553222656 125.19491577148438 312.0978088378906 125.41637420654297 313.0837097167969 125.64689636230469 C 315.1087341308594 125.63372802734375 317.693115234375 125.05985260009766 320.2908935546875 123.82477569580078 C 322.6390686035156 121.94507598876953 324.55767822265625 119.55276489257812 325.8465270996094 116.86605834960938 C 326.5999755859375 114.1755142211914 326.8443603515625 111.89498138427734 326.5340881347656 110.60157012939453 C 325.8531188964844 110.8076171875 324.8143005371094 111.93930053710938 323.57122802734375 113.39749908447266 C 322.615966796875 114.59004211425781 322.3658142089844 114.94526672363281 323.08526611328125 113.99746704101562 C 325.0646057128906 111.66407775878906 327.7167053222656 108.36553955078125 330.2776184082031 104.5602798461914 C 332.3252868652344 100.83709716796875 333.1741638183594 97.87287139892578 333.2027282714844 95.92898559570312 C 332.7396240234375 95.13070678710938 332.0372009277344 95.33731079101562 331.7301330566406 96.31844329833984 C 332.1932373046875 97.49882507324219 333.3931884765625 98.67637634277344 335.0256652832031 99.6383056640625 C 336.3546447753906 100.18885803222656 336.73004150390625 99.99533081054688 335.5014343261719 99.0453872680664 C 332.5638122558594 97.17304992675781 328.8360900878906 95.0755386352539 325.04913330078125 93.88849639892578 C 321.7270812988281 94.79485321044922 318.8654479980469 96.24070739746094 316.7147521972656 97.33869934082031 C 314.73016357421875 97.33042907714844 312.51904296875 96.13362121582031 309.848876953125 94.61167907714844 C 307.14019775390625 93.74593353271484 304.7930908203125 94.3657455444336 303.19049072265625 96.66841888427734 C 302.8074035644531 100.0748291015625 303.4662170410156 103.57485961914062 304.6257629394531 106.24315643310547 C 305.6802062988281 107.61614227294922 305.88311767578125 107.7968521118164 304.5265197753906 106.9183349609375 C 301.7994079589844 105.3320083618164 298.4921569824219 103.17000579833984 295.6846923828125 100.36953735351562 C 294.4540100097656 96.9967041015625 295.1541748046875 93.30259704589844 297.62725830078125 89.80769348144531 C 301.2128601074219 86.99899291992188 305.3022766113281 85.11061096191406 309.1663818359375 83.97183227539062 C 312.2437744140625 83.3330307006836 314.3516845703125 82.89362335205078 315.6089172363281 82.71182250976562 C 316.3085021972656 82.55147552490234 316.8071594238281 82.36583709716797 316.90740966796875 79.21856689453125" stroke-width="0.0" fill="rgb(46, 83, 15)" opacity="0.9999874" stroke="rgb(169, 84, 199)" stroke-opacity="0.9029039" stroke-linecap="round" stroke-linejoin="round"/>
    <path d="M 93.75082397460938 105.20533752441406 C 97.3982162475586 104.61972045898438 100.24923706054688 104.1880874633789 101.41961669921875 103.93743133544922 C 100.74337768554688 104.17021942138672 99.22189331054688 104.63896179199219 97.65702056884766 104.69902038574219 C 97.34087371826172 104.34239959716797 98.28323364257812 104.15473937988281 100.28849792480469 104.4541244506836 C 102.91322326660156 104.70567321777344 105.59376525878906 105.35997009277344 108.03179168701172 105.73768615722656 C 110.16085815429688 105.93340301513672 112.05741119384766 105.74223327636719 113.98651885986328 105.7905044555664 C 116.048828125 106.43557739257812 117.9980239868164 107.10920715332031 119.68055725097656 107.54359436035156 C 121.03076171875 107.71878051757812 122.04402923583984 108.07567596435547 122.73531341552734 108.41805267333984 C 122.99043273925781 108.68903350830078 123.06024932861328 108.82264709472656 123.23060607910156 108.90966033935547 C 123.6422348022461 109.11578369140625 124.03567504882812 109.66289520263672 124.31749725341797 110.65904998779297 C 124.37510681152344 112.11573791503906 124.34708404541016 114.09660339355469 124.24040222167969 116.40547943115234 C 123.92447662353516 118.67923736572266 123.2894058227539 120.84557342529297 122.42781829833984 122.76152038574219 C 121.58692169189453 124.26996612548828 120.9234390258789 125.45915985107422 120.55609130859375 126.3230972290039 C 120.46694946289062 126.77842712402344 120.40569305419922 127.00399017333984 120.01913452148438 127.09970092773438 C 119.03813934326172 127.2756118774414 117.39065551757812 127.63973999023438 115.06208801269531 128.27902221679688 C 112.24068450927734 129.1683807373047 109.47498321533203 130.2015380859375 107.3845443725586 131.2915802001953 C 106.30040740966797 132.18077087402344 105.96839904785156 132.6405792236328 106.11663818359375 132.4127655029297 C 106.35432434082031 131.4039764404297 106.43525695800781 130.02330017089844 106.13525390625 128.6337432861328 C 105.45387268066406 127.77886199951172 104.85701751708984 127.77986907958984 104.78884887695312 128.6912384033203 C 105.55765533447266 130.5297088623047 107.04872131347656 132.96307373046875 108.91154479980469 135.57861328125 C 110.66140747070312 137.87855529785156 111.98739624023438 139.52146911621094 112.65687561035156 140.29367065429688 C 112.78599548339844 139.95770263671875 112.54786682128906 138.84994506835938 111.9711685180664 137.55564880371094 C 111.1052474975586 136.56822204589844 110.04946899414062 136.4028778076172 108.99427795410156 137.21640014648438 C 108.25166320800781 138.96444702148438 107.80504608154297 141.2305450439453 107.71949005126953 143.69020080566406 C 107.95841217041016 146.09967041015625 108.40126037597656 148.4145050048828 108.88961029052734 150.61036682128906 C 109.24708557128906 152.73460388183594 109.4281997680664 154.4317626953125 109.39938354492188 155.6033935546875 C 109.21430206298828 156.2626495361328 108.96073913574219 156.31361389160156 108.79688262939453 155.692626953125 C 108.91405487060547 154.45033264160156 109.1749496459961 153.00509643554688 109.58267211914062 151.80030822753906 C 110.07623291015625 151.31141662597656 110.41087341308594 151.77040100097656 110.22665405273438 153.25341796875 C 109.11539459228516 155.64981079101562 107.01846313476562 158.65835571289062 104.23249053955078 161.67941284179688 C 101.10166931152344 164.21548461914062 98.0313949584961 165.85702514648438 95.54308319091797 166.39468383789062 C 94.06184387207031 165.9441375732422 93.51345825195312 164.6629638671875 93.70429229736328 162.776123046875 C 94.07969665527344 160.29934692382812 94.1865005493164 157.3590545654297 93.88430786132812 154.11570739746094 C 93.04229736328125 150.8481903076172 91.82683563232422 147.8653564453125 90.79500579833984 145.35397338867188 C 90.3200454711914 143.56271362304688 90.34262084960938 142.58657836914062 90.66959381103516 142.43072509765625 C 91.21245574951172 143.010009765625 91.80656433105469 144.13711547851562 92.47248077392578 145.38223266601562 C 93.1543960571289 146.41433715820312 93.80413818359375 147.00230407714844 94.51740264892578 146.89805603027344 C 95.30601501464844 145.93026733398438 96.19463348388672 144.29188537597656 96.97258758544922 142.20262145996094 C 97.3951416015625 139.71641540527344 97.50419616699219 137.0949249267578 97.22737121582031 134.64163208007812 C 96.59037017822266 132.7312469482422 95.67201232910156 131.59344482421875 94.71826934814453 131.3324432373047 C 93.86782836914062 132.03619384765625 92.96936798095703 133.33116149902344 92.11064147949219 134.73104858398438 C 91.41569519042969 135.873779296875 90.91394805908203 136.3280487060547 90.88009643554688 135.61758422851562 C 91.38628387451172 133.27444458007812 92.35519409179688 129.4661407470703 93.41448211669922 124.93109893798828 C 94.1512451171875 120.49637603759766 94.65034484863281 117.06126403808594 94.82115173339844 115.1514663696289 C 94.9131088256836 115.17036437988281 94.69784545898438 116.66280364990234 94.14812469482422 119.18521118164062 C 93.03884887695312 121.65153503417969 92.21685028076172 123.47724914550781 92.28624725341797 123.93995666503906 C 93.14230346679688 122.9465560913086 94.25074005126953 120.8719253540039 94.75729370117188 118.31291198730469 C 94.62317657470703 115.94158935546875 94.3817138671875 113.92034149169922 94.17196655273438 112.07283782958984 C 93.9869155883789 110.2303237915039 93.7206802368164 108.10477447509766 93.03677368164062 105.34935760498047 C 91.71896362304688 101.75878143310547 90.12847137451172 97.45936584472656 93.75082397460938 105.20533752441406" stroke-width="0.0" fill="rgb(26, 20, 16)" opacity="0.9999218" stroke="rgb(167, 17, 144)" stroke-opacity="0.73624307" stroke-linecap="round" stroke-linejoin="round"/>
    <path d="M 203.556396484375 368.000732421875 C 207.05923461914062 368.0924072265625 210.75616455078125 368.5633239746094 214.0326690673828 369.0521240234375 C 216.3217010498047 370.179443359375 217.56564331054688 370.6195068359375 218.032958984375 370.584228515625 C 217.34268188476562 370.88531494140625 216.1731719970703 370.90789794921875 215.77716064453125 370.37841796875 C 215.76495361328125 369.6098327636719 216.33255004882812 368.517333984375 216.97500610351562 368.5970458984375 C 218.1987762451172 369.07720947265625 220.6116943359375 370.67449951171875 224.50888061523438 372.3108215332031 C 229.6483612060547 373.8923034667969 234.39840698242188 373.9195251464844 237.74404907226562 371.7977294921875 C 239.48126220703125 370.40252685546875 240.5330047607422 369.93084716796875 240.93563842773438 370.0655212402344 C 241.66200256347656 370.3902282714844 243.3051300048828 370.3885803222656 245.90390014648438 370.80780029296875 C 249.55874633789062 371.1365661621094 253.87574768066406 370.8066101074219 258.3056335449219 369.8768005371094 C 262.5438537597656 368.6201171875 266.4422302246094 367.5993347167969 269.7663879394531 367.0480041503906 C 272.2715759277344 367.43487548828125 273.5739440917969 368.8174133300781 273.1983337402344 371.244384765625 C 270.65264892578125 374.779052734375 266.5456237792969 379.0162658691406 261.64794921875 383.3670349121094 C 256.66009521484375 387.3121643066406 252.21385192871094 390.3841247558594 248.7627716064453 391.99090576171875 C 246.71102905273438 391.5544128417969 245.81619262695312 389.8122863769531 245.49716186523438 387.75665283203125 C 245.41197204589844 386.27294921875 245.17506408691406 385.5270690917969 244.4072265625 385.299560546875 C 242.78379821777344 385.43316650390625 240.09034729003906 385.6590881347656 236.38385009765625 385.5334777832031 C 232.14187622070312 384.2962951660156 228.18603515625 380.3453369140625 223.90455627441406 376.1402587890625 C 219.20558166503906 375.1584777832031 215.67161560058594 376.3340759277344 214.29122924804688 378.05889892578125 C 214.77902221679688 378.68280029296875 215.78919982910156 378.13507080078125 216.72694396972656 377.64544677734375 C 217.71963500976562 378.572998046875 218.74624633789062 380.6805725097656 219.74835205078125 383.5403137207031 C 220.72918701171875 386.7200927734375 221.29542541503906 389.8621520996094 221.55250549316406 392.8418884277344 C 221.2731475830078 395.51214599609375 220.3323974609375 397.71185302734375 218.61285400390625 399.47314453125 C 216.06716918945312 400.9361267089844 212.8247833251953 402.0037536621094 209.0259552001953 402.7171630859375 C 204.71774291992188 403.4793701171875 201.06768798828125 404.32513427734375 200.02410888671875 405.5274353027344 C 202.79383850097656 406.32305908203125 206.63278198242188 407.83148193359375 209.80538940429688 410.1319580078125 C 211.30320739746094 412.4810791015625 211.51564025878906 414.4232177734375 210.8284912109375 415.6469421386719 C 209.712158203125 416.3419494628906 208.41653442382812 416.7987976074219 207.56263732910156 417.3486328125 C 207.47743225097656 418.2820129394531 207.91708374023438 419.8225402832031 208.4454803466797 422.13153076171875 C 208.49729919433594 425.20794677734375 207.65623474121094 428.834716796875 205.78721618652344 432.6183166503906 C 203.09426879882812 436.16107177734375 199.97860717773438 439.36053466796875 196.7473602294922 442.1523742675781 C 193.53707885742188 444.4169006347656 190.46353149414062 445.8736877441406 187.65516662597656 446.49322509765625 C 185.19610595703125 445.9754638671875 182.81768798828125 444.698974609375 180.3150177001953 442.8428649902344 C 177.84014892578125 440.8171691894531 175.1136932373047 439.5204772949219 172.1709747314453 439.326171875 C 170.19248962402344 439.28985595703125 168.43919372558594 440.021240234375 166.5725860595703 441.1004638671875 C 164.86451721191406 441.8332824707031 163.46878051757812 441.9573974609375 162.30856323242188 441.0814208984375 C 161.4959259033203 439.1409606933594 161.04428100585938 436.1047668457031 161.18739318847656 432.1493835449219 C 161.89422607421875 427.4543151855469 162.96478271484375 422.2783508300781 164.180908203125 416.9970703125 C 165.21221923828125 411.9832763671875 165.88636779785156 407.5470275878906 165.9574432373047 403.9363098144531 C 165.58737182617188 401.21875 164.65245056152344 399.2732849121094 163.32098388671875 397.81390380859375 C 162.0052947998047 396.7450866699219 161.1627197265625 395.8780517578125 161.37266540527344 395.17889404296875 C 162.5994873046875 394.6490478515625 164.08560180664062 394.3589172363281 165.03639221191406 394.0437316894531 C 164.78494262695312 393.7077331542969 163.15017700195312 393.19171142578125 160.2618865966797 392.4111328125 C 156.828125 391.33868408203125 153.4252471923828 390.0780029296875 150.9822540283203 388.7462463378906 C 150.10791015625 387.13592529296875 150.72386169433594 385.48004150390625 152.5102996826172 383.7148742675781 C 154.91015625 381.94110107421875 157.33702087402344 380.2895812988281 159.25648498535156 378.8936462402344 C 160.5634765625 377.8503723144531 161.47198486328125 377.1681213378906 162.35084533691406 376.9138488769531 C 163.50485229492188 376.79083251953125 164.96310424804688 376.7129211425781 166.68861389160156 376.47607421875 C 168.607421875 375.8577880859375 170.48764038085938 374.7916564941406 172.3363037109375 373.1098937988281 C 174.11521911621094 370.93218994140625 176.21080017089844 368.87054443359375 178.84869384765625 367.9391174316406 C 182.0808868408203 368.93646240234375 185.77882385253906 370.5295715332031 190.36737060546875 370.2953796386719 C 195.97149658203125 369.7476501464844 200.72010803222656 369.1541748046875 203.6744384765625 369.7364501953125 C 204.37496948242188 372.29754638671875 203.03184509277344 375.6930236816406 200.3989715576172 378.6354675292969 C 197.47994995117188 380.2012634277344 194.69053649902344 380.84844970703125 192.16067504882812 380.526611328125 C 190.0411834716797 379.5831604003906 188.20008850097656 378.3786315917969 187.07252502441406 377.181396484375 C 187.4831085205078 376.2560729980469 189.37725830078125 375.4139404296875 192.53857421875 374.5599365234375 C 196.30931091308594 373.8652648925781 199.72328186035156 373.8895568847656 201.98062133789062 375.0269775390625 C 202.2249298095703 377.1429138183594 200.7823486328125 378.658935546875 198.60040283203125 379.267822265625 C 196.9679718017578 378.57818603515625 196.55503845214844 377.18353271484375 197.66525268554688 375.80889892578125 C 200.0606689453125 375.13922119140625 202.74813842773438 374.9217529296875 204.65261840820312 374.5990905761719 C 204.93792724609375 373.12506103515625 205.0128936767578 371.146484375 203.556396484375 368.000732421875" stroke-width="0.0" fill="rgb(31, 41, 39)" opacity="0.99970245" stroke="rgb(42, 109, 0)" stroke-opacity="0.9670665" stroke-linecap="round" stroke-linejoin="round"/>
    <path d="M 18.493276596069336 137.0532684326172 C 21.228307723999023 137.51792907714844 23.78951644897461 138.15428161621094 25.875091552734375 138.9754638671875 C 27.11070442199707 139.90570068359375 27.583040237426758 140.75204467773438 27.310373306274414 141.2410125732422 C 26.538022994995117 141.28480529785156 25.75562858581543 141.1106719970703 25.11931610107422 140.8501739501953 C 25.024242401123047 140.5489044189453 25.6875 140.34683227539062 27.250076293945312 140.1774444580078 C 29.5407657623291 140.80886840820312 32.103981018066406 142.3760986328125 34.28965759277344 144.76832580566406 C 35.58412551879883 147.1885528564453 35.79309844970703 149.18309020996094 34.85492706298828 150.52261352539062 C 32.82132339477539 151.278076171875 30.139734268188477 151.51040649414062 27.730300903320312 151.21897888183594 C 26.502906799316406 150.83042907714844 26.225730895996094 151.0099639892578 26.491830825805664 152.1556854248047 C 26.8244686126709 154.14501953125 27.265338897705078 156.36061096191406 27.51824188232422 157.8816375732422 C 27.803817749023438 158.18275451660156 28.366682052612305 157.4732208251953 29.17530632019043 155.9893341064453 C 30.501771926879883 154.2843780517578 31.45441436767578 152.88427734375 31.433866500854492 151.9537811279297 C 29.968873977661133 151.45626831054688 27.74593734741211 150.9163360595703 25.40184783935547 150.82058715820312 C 23.595178604125977 151.62295532226562 22.51064109802246 152.5899658203125 21.94150161743164 153.3728485107422 C 21.72802734375 153.9348907470703 22.04163360595703 154.11196899414062 22.302274703979492 153.8152618408203 C 22.28038787841797 153.18411254882812 21.622102737426758 152.11190795898438 20.48601531982422 150.582275390625 C 19.260683059692383 149.16476440429688 18.445449829101562 148.1275634765625 18.183639526367188 147.6881561279297 C 18.4086971282959 147.68673706054688 19.001516342163086 147.71775817871094 19.377704620361328 147.3824005126953 C 19.155609130859375 146.14068603515625 18.38207244873047 143.94993591308594 17.32435417175293 141.0356903076172 C 16.234966278076172 138.02560424804688 15.332987785339355 135.4503173828125 15.007150650024414 133.79110717773438 C 15.41927433013916 133.31439208984375 16.50202751159668 133.96163940429688 17.93197250366211 135.59043884277344 C 19.52968978881836 137.8962860107422 21.218095779418945 140.36082458496094 18.493276596069336 137.0532684326172" stroke-width="0.0" fill="rgb(27, 63, 6)" opacity="0.9999811" stroke="rgb(220, 102, 143)" stroke-opacity="0.48883593" stroke-linecap="round" stroke-linejoin="round"/>
    <path d="M 298.24652099609375 -8.681241035461426 C 302.2760925292969 -7.703172206878662 306.02923583984375 -6.761615753173828 309.2676696777344 -5.974668025970459 C 311.8633728027344 -5.449092864990234 313.6998596191406 -5.168887138366699 314.5821533203125 -5.195969581604004 C 314.5181579589844 -5.606541156768799 313.60076904296875 -6.177670955657959 312.01861572265625 -6.6087751388549805 C 310.0902099609375 -6.810396671295166 308.44873046875 -7.051473140716553 308.4862365722656 -7.452178001403809 C 311.6886291503906 -8.286227226257324 319.2005615234375 -9.536282539367676 330.2770080566406 -11.072436332702637 C 343.02886962890625 -12.32483959197998 355.606201171875 -12.615275382995605 366.0884704589844 -11.272842407226562 C 372.56689453125 -7.697690486907959 375.03887939453125 -2.0769550800323486 374.8389892578125 5.185451030731201 C 373.8299865722656 13.652007102966309 372.59906005859375 23.02248191833496 371.5651550292969 32.820186614990234 C 371.0905456542969 42.54551696777344 371.3243408203125 51.871986389160156 371.9383544921875 60.55921173095703 C 372.50238037109375 68.36482238769531 372.5425109863281 75.1651840209961 371.5929870605469 80.92731475830078 C 369.0640563964844 85.55294036865234 365.2313537597656 88.8025131225586 360.4413146972656 90.52044677734375 C 355.6379699707031 90.27974700927734 350.966064453125 87.75977325439453 346.641845703125 83.72250366210938 C 341.4648132324219 81.49422454833984 336.3286437988281 81.13256072998047 332.2222900390625 81.93244934082031 C 329.97802734375 83.4767074584961 329.2147521972656 84.85719299316406 328.7853088378906 85.02926635742188 C 327.51678466796875 83.6611328125 324.36077880859375 82.95413970947266 319.04736328125 83.8180160522461 C 312.1559753417969 85.69217681884766 304.92242431640625 87.40779876708984 299.349853515625 90.68093872070312 C 297.68341064453125 98.4068832397461 297.7742004394531 108.27692413330078 299.0196533203125 118.2471694946289 C 301.56329345703125 126.4253921508789 305.70648193359375 130.15542602539062 310.1571350097656 129.69435119628906 C 312.14630126953125 126.64028930664062 308.58343505859375 123.36901092529297 302.8473815917969 118.02948760986328 C 302.35711669921875 110.83143615722656 305.2869873046875 106.75969696044922 310.3686828613281 109.21993255615234 C 315.8188781738281 110.16154479980469 318.4151916503906 106.65276336669922 316.76806640625 101.4934310913086 C 311.7107238769531 100.16937255859375 306.802490234375 100.64752197265625 304.2923583984375 99.18509674072266 C 306.3492736816406 95.56693267822266 311.547607421875 92.93992614746094 317.96826171875 92.74945068359375 C 323.6593933105469 95.19144439697266 328.6219482421875 98.76393127441406 331.81390380859375 103.37704467773438 C 332.8454284667969 108.64897155761719 333.2637939453125 114.17089080810547 332.8639831542969 119.65467071533203 C 330.2810363769531 124.99855041503906 326.60589599609375 130.37901306152344 321.946044921875 135.19805908203125 C 316.7960205078125 138.4938507080078 313.1600341796875 138.43414306640625 313.3383483886719 135.87860107421875 C 318.1044006347656 135.78411865234375 323.5556640625 139.2731170654297 327.36041259765625 144.7156219482422 C 327.249755859375 148.6825714111328 322.6590576171875 150.22962951660156 315.2901611328125 150.53329467773438 C 307.38330078125 150.4225311279297 300.5996398925781 149.11805725097656 295.87603759765625 147.6854248046875 C 293.5165710449219 147.58140563964844 292.3353271484375 149.1745147705078 290.848388671875 151.4816131591797 C 287.78167724609375 153.3701171875 284.19012451171875 155.01303100585938 281.27642822265625 157.1968231201172 C 279.80682373046875 159.53955078125 280.0401611328125 160.79405212402344 281.32916259765625 160.2527618408203 C 280.5708923339844 158.46815490722656 277.6020812988281 155.47998046875 272.3199768066406 152.36602783203125 C 265.05712890625 150.6361846923828 256.8442687988281 150.00486755371094 248.56016540527344 149.9104461669922 C 241.56765747070312 147.8467559814453 238.67015075683594 145.6201171875 240.82861328125 142.9608612060547 C 248.19883728027344 141.93882751464844 255.58999633789062 139.44349670410156 259.5664367675781 134.28118896484375 C 264.337890625 135.13137817382812 269.5280456542969 137.9086151123047 275.6393127441406 138.43838500976562 C 281.8164367675781 136.58534240722656 286.2864074707031 133.32803344726562 287.8501281738281 129.46209716796875 C 285.90155029296875 125.83293914794922 281.4642028808594 122.92240905761719 277.9170837402344 120.02685546875 C 278.6010437011719 116.87721252441406 282.5703125 114.40638732910156 284.8110046386719 111.70526885986328 C 282.1552734375 108.43480682373047 285.11688232421875 106.4127197265625 290.3614196777344 100.54981231689453 C 293.672119140625 91.521484375 292.9656982421875 84.78632354736328 287.6241760253906 83.67498779296875 C 286.61956787109375 81.48381805419922 288.13153076171875 78.69389343261719 291.0572509765625 76.5344009399414 C 295.222900390625 75.5626220703125 300.5609130859375 74.78448486328125 305.7131042480469 70.87266540527344 C 310.34814453125 65.05365753173828 313.1054382324219 60.98530960083008 310.65484619140625 59.93090057373047 C 306.4670104980469 62.19228744506836 303.1354064941406 68.204833984375 298.6715393066406 71.43238830566406 C 297.0563659667969 69.1037826538086 299.61517333984375 62.63966369628906 305.8420715332031 55.73201370239258 C 306.96356201171875 46.69071578979492 307.15130615234375 38.83816909790039 306.137451171875 35.61182403564453 C 302.23809814453125 40.717926025390625 296.9781188964844 44.867759704589844 298.6617431640625 49.764095306396484 C 294.2422180175781 55.384376525878906 288.56842041015625 59.99396896362305 284.8099060058594 60.03480529785156 C 287.0558166503906 54.02317810058594 284.52520751953125 51.008243560791016 280.1326904296875 54.612545013427734 C 282.7259216308594 62.34956741333008 285.7562561035156 70.58973693847656 283.318115234375 75.7009048461914 C 278.0189514160156 73.45711517333984 271.8747253417969 68.57099151611328 266.0050354003906 67.40226745605469 C 268.53912353515625 63.83095932006836 272.75408935546875 58.17192840576172 272.86541748046875 50.28985595703125 C 269.46099853515625 41.716243743896484 268.67510986328125 34.237003326416016 271.9383239746094 28.5115909576416 C 276.3426818847656 26.501670837402344 281.0300598144531 26.35038948059082 284.01007080078125 23.856687545776367 C 284.9217834472656 19.29349136352539 286.822509765625 15.337193489074707 291.5298156738281 13.899398803710938 C 297.0683288574219 13.990518569946289 302.36212158203125 11.144874572753906 306.8309631347656 7.355416297912598 C 309.6608581542969 4.923274517059326 310.0591125488281 3.350691318511963 298.24652099609375 -8.681241035461426" stroke-width="0.0" fill="rgb(66, 102, 33)" opacity="1.0" stroke="rgb(98, 208, 74)" stroke-opacity="0.33333984" stroke-linecap="round" stroke-linejoin="round"/>
  </g>
</svg>
