<?xml version="1.0" ?>
<svg xmlns="http://www.w3.org/2000/svg" version="1.1" width="222" height="406">
  <defs/>
  <g>
    <path d="M 221.0 188.0 C 221.0 189.0 221.0 190.0 221.0 191.0 C 221.0 194.0 221.0 200.0 221.0 206.0 C 221.0 212.0 221.0 218.0 221.0 224.0 C 221.0 230.0 221.0 236.0 221.0 242.0 C 221.0 248.0 221.0 254.0 221.0 260.0 C 221.0 266.0 221.0 272.0 221.0 278.0 C 221.0 284.0 221.0 290.0 221.0 296.0 C 221.0 302.0 221.0 308.0 221.0 314.0 C 221.0 320.0 221.0 326.0 221.0 332.0 C 221.0 338.0 221.0 344.0 221.0 350.0 C 221.0 356.0 221.0 362.0 221.0 368.0 C 221.0 374.0 221.0 380.0 221.0 386.0 C 221.0 392.0 221.0 398.0 221.0 404.0 C 216.0 405.0 210.0 405.0 204.0 405.0 C 198.0 405.0 192.0 405.0 186.0 405.0 C 180.0 405.0 174.0 405.0 168.0 405.0 C 162.0 405.0 156.0 405.0 150.0 405.0 C 144.0 405.0 138.0 405.0 132.0 405.0 C 126.0 405.0 120.0 405.0 114.0 405.0 C 108.0 405.0 102.0 405.0 96.0 405.0 C 90.0 405.0 95.0 400.0 94.0 394.0 C 89.0 389.0 83.0 386.0 77.0 382.0 C 73.0 377.0 73.0 371.0 79.0 367.0 C 80.0 361.0 79.0 355.0 80.0 349.0 C 82.0 343.0 83.0 337.0 84.0 331.0 C 85.0 325.0 85.0 319.0 86.0 313.0 C 86.0 307.0 86.0 301.0 86.0 295.0 C 86.0 289.0 86.0 283.0 86.0 277.0 C 86.0 271.0 88.0 265.0 88.0 259.0 C 88.0 253.0 87.0 247.0 86.0 241.0 C 85.0 235.0 84.0 229.0 82.0 223.0 C 88.0 224.0 94.0 224.0 100.0 224.0 C 106.0 224.0 112.0 224.0 118.0 224.0 C 124.0 224.0 130.0 224.0 136.0 223.0 C 142.0 223.0 147.0 224.0 150.0 230.0 C 152.0 236.0 153.0 242.0 154.0 248.0 C 154.0 254.0 157.0 259.0 158.0 265.0 C 159.0 271.0 160.0 277.0 160.0 283.0 C 161.0 289.0 161.0 295.0 161.0 301.0 C 161.0 307.0 161.0 313.0 160.0 319.0 C 160.0 325.0 159.0 331.0 157.0 337.0 C 156.0 343.0 151.0 344.0 147.0 349.0 C 143.0 354.0 144.0 360.0 144.0 365.0 C 141.0 371.0 140.0 377.0 145.0 382.0 C 151.0 385.0 157.0 389.0 163.0 391.0 C 169.0 392.0 175.0 390.0 179.0 385.0 C 176.0 379.0 170.0 375.0 164.0 372.0 C 164.0 370.0 167.0 366.0 172.0 361.0 C 175.0 356.0 170.0 353.0 172.0 347.0 C 173.0 341.0 175.0 335.0 176.0 329.0 C 176.0 323.0 177.0 317.0 177.0 311.0 C 178.0 305.0 178.0 299.0 177.0 293.0 C 177.0 287.0 177.0 281.0 176.0 275.0 C 176.0 269.0 175.0 263.0 175.0 257.0 C 176.0 251.0 175.0 245.0 174.0 239.0 C 173.0 233.0 171.0 227.0 169.0 221.0 C 167.0 215.0 172.0 211.0 176.0 208.0 C 182.0 207.0 188.0 206.0 194.0 205.0 C 200.0 204.0 206.0 201.0 212.0 198.0 C 218.0 193.0 221.0 187.0 221.0 188.0" stroke-width="0.0" fill="rgb(229, 229, 229)" opacity="1.0" stroke="rgb(248, 93, 202)" stroke-opacity="0.56303364" stroke-linecap="round" stroke-linejoin="round"/>
    <path d="M 64.0 90.0 C 65.0 90.0 66.0 91.0 67.0 91.0 C 68.0 92.0 69.0 92.0 69.0 93.0 C 69.0 94.0 70.0 95.0 71.0 94.0 C 72.0 94.0 73.0 94.0 74.0 95.0 C 76.0 97.0 79.0 97.0 81.0 96.0 C 84.0 97.0 87.0 98.0 88.0 101.0 C 90.0 99.0 93.0 100.0 96.0 100.0 C 97.0 103.0 99.0 101.0 102.0 101.0 C 103.0 104.0 105.0 102.0 108.0 102.0 C 109.0 104.0 112.0 105.0 114.0 103.0 C 117.0 103.0 120.0 103.0 121.0 105.0 C 124.0 106.0 127.0 106.0 130.0 106.0 C 133.0 106.0 135.0 104.0 137.0 103.0 C 140.0 103.0 143.0 103.0 145.0 105.0 C 147.0 103.0 150.0 102.0 153.0 102.0 C 155.0 103.0 156.0 101.0 159.0 101.0 C 161.0 103.0 162.0 100.0 165.0 100.0 C 168.0 99.0 170.0 100.0 172.0 99.0 C 174.0 98.0 175.0 100.0 172.0 101.0 C 174.0 103.0 174.0 106.0 174.0 109.0 C 173.0 112.0 173.0 115.0 171.0 116.0 C 171.0 119.0 172.0 121.0 172.0 124.0 C 170.0 125.0 169.0 128.0 171.0 130.0 C 170.0 132.0 169.0 135.0 169.0 138.0 C 168.0 141.0 168.0 144.0 168.0 147.0 C 167.0 150.0 167.0 153.0 167.0 156.0 C 168.0 159.0 167.0 161.0 166.0 163.0 C 167.0 165.0 166.0 167.0 164.0 169.0 C 166.0 171.0 166.0 174.0 163.0 175.0 C 165.0 177.0 165.0 180.0 162.0 181.0 C 164.0 183.0 163.0 185.0 162.0 187.0 C 163.0 189.0 162.0 192.0 161.0 194.0 C 160.0 196.0 161.0 198.0 159.0 199.0 C 156.0 200.0 153.0 199.0 150.0 200.0 C 147.0 201.0 144.0 200.0 141.0 201.0 C 138.0 201.0 135.0 202.0 132.0 201.0 C 129.0 202.0 126.0 202.0 123.0 202.0 C 120.0 202.0 117.0 203.0 114.0 203.0 C 111.0 203.0 108.0 203.0 105.0 203.0 C 102.0 203.0 99.0 202.0 96.0 202.0 C 93.0 202.0 90.0 201.0 87.0 202.0 C 84.0 201.0 81.0 201.0 78.0 200.0 C 75.0 200.0 72.0 199.0 69.0 198.0 C 66.0 198.0 63.0 197.0 60.0 196.0 C 57.0 196.0 56.0 197.0 54.0 194.0 C 55.0 191.0 52.0 189.0 49.0 188.0 C 49.0 185.0 51.0 183.0 52.0 180.0 C 52.0 177.0 52.0 174.0 52.0 171.0 C 52.0 168.0 52.0 165.0 53.0 162.0 C 53.0 159.0 53.0 156.0 53.0 153.0 C 56.0 153.0 59.0 152.0 62.0 151.0 C 65.0 150.0 68.0 148.0 71.0 146.0 C 74.0 144.0 76.0 141.0 78.0 138.0 C 80.0 135.0 81.0 132.0 81.0 129.0 C 82.0 126.0 81.0 123.0 80.0 121.0 C 79.0 118.0 78.0 115.0 77.0 112.0 C 75.0 109.0 74.0 106.0 71.0 103.0 C 69.0 100.0 69.0 97.0 66.0 97.0 C 65.0 95.0 63.0 94.0 60.0 94.0 C 61.0 92.0 63.0 90.0 64.0 90.0" stroke-width="0.0" fill="rgb(0, 169, 211)" opacity="1.0" stroke="rgb(241, 77, 62)" stroke-opacity="0.78689665" stroke-linecap="round" stroke-linejoin="round"/>
    <path d="M 58.0 198.0 C 59.0 198.0 60.0 198.0 60.0 199.0 C 60.0 200.0 61.0 201.0 62.0 200.0 C 62.0 199.0 63.0 199.0 64.0 199.0 C 64.0 200.0 64.0 201.0 65.0 202.0 C 66.0 201.0 66.0 200.0 67.0 200.0 C 68.0 200.0 69.0 200.0 70.0 200.0 C 71.0 200.0 72.0 201.0 73.0 201.0 C 74.0 201.0 74.0 202.0 74.0 203.0 C 75.0 204.0 76.0 202.0 79.0 202.0 C 81.0 203.0 83.0 204.0 85.0 203.0 C 88.0 203.0 89.0 205.0 92.0 206.0 C 94.0 204.0 97.0 204.0 100.0 204.0 C 103.0 204.0 106.0 204.0 109.0 204.0 C 112.0 204.0 115.0 204.0 118.0 204.0 C 121.0 204.0 124.0 204.0 126.0 205.0 C 129.0 206.0 131.0 204.0 133.0 203.0 C 136.0 203.0 139.0 203.0 141.0 205.0 C 143.0 203.0 145.0 202.0 148.0 202.0 C 151.0 202.0 153.0 204.0 154.0 201.0 C 157.0 201.0 160.0 200.0 161.0 202.0 C 161.0 205.0 163.0 206.0 164.0 209.0 C 165.0 212.0 163.0 214.0 164.0 217.0 C 165.0 220.0 168.0 221.0 167.0 223.0 C 168.0 225.0 169.0 227.0 170.0 230.0 C 171.0 233.0 172.0 236.0 172.0 239.0 C 171.0 241.0 173.0 242.0 174.0 245.0 C 174.0 248.0 172.0 250.0 175.0 251.0 C 174.0 254.0 172.0 256.0 170.0 255.0 C 168.0 256.0 166.0 257.0 163.0 257.0 C 161.0 255.0 159.0 256.0 156.0 255.0 C 156.0 252.0 156.0 249.0 155.0 246.0 C 155.0 243.0 154.0 240.0 154.0 237.0 C 153.0 234.0 152.0 231.0 151.0 228.0 C 149.0 225.0 148.0 222.0 145.0 221.0 C 143.0 219.0 141.0 221.0 138.0 222.0 C 135.0 222.0 132.0 222.0 130.0 220.0 C 127.0 220.0 125.0 222.0 122.0 222.0 C 119.0 223.0 116.0 223.0 113.0 223.0 C 110.0 222.0 107.0 222.0 104.0 222.0 C 102.0 220.0 99.0 220.0 96.0 221.0 C 94.0 222.0 91.0 222.0 88.0 222.0 C 85.0 222.0 82.0 222.0 81.0 224.0 C 82.0 227.0 83.0 230.0 83.0 233.0 C 84.0 236.0 84.0 239.0 85.0 242.0 C 85.0 245.0 86.0 248.0 86.0 251.0 C 86.0 254.0 86.0 257.0 86.0 260.0 C 86.0 263.0 86.0 266.0 83.0 268.0 C 81.0 266.0 78.0 267.0 77.0 270.0 C 74.0 270.0 72.0 268.0 70.0 270.0 C 69.0 268.0 66.0 267.0 65.0 265.0 C 65.0 262.0 65.0 259.0 67.0 257.0 C 67.0 254.0 66.0 251.0 65.0 249.0 C 64.0 246.0 64.0 243.0 64.0 240.0 C 66.0 238.0 65.0 235.0 63.0 233.0 C 64.0 231.0 63.0 229.0 62.0 227.0 C 63.0 224.0 61.0 222.0 59.0 219.0 C 56.0 220.0 54.0 217.0 52.0 214.0 C 51.0 211.0 50.0 208.0 53.0 208.0 C 56.0 207.0 54.0 205.0 54.0 202.0 C 57.0 201.0 57.0 198.0 58.0 198.0" stroke-width="0.0" fill="rgb(0, 84, 211)" opacity="1.0" stroke="rgb(113, 211, 12)" stroke-opacity="0.76633584" stroke-linecap="round" stroke-linejoin="round"/>
    <path d="M 130.0 32.0 C 131.0 32.0 132.0 32.0 133.0 32.0 C 134.0 32.0 135.0 32.0 136.0 32.0 C 137.0 32.0 137.0 33.0 137.0 34.0 C 136.0 34.0 135.0 35.0 136.0 36.0 C 137.0 36.0 138.0 36.0 139.0 35.0 C 139.0 34.0 139.0 33.0 140.0 33.0 C 141.0 33.0 142.0 33.0 143.0 33.0 C 144.0 33.0 145.0 34.0 146.0 34.0 C 147.0 34.0 148.0 34.0 149.0 35.0 C 150.0 35.0 151.0 35.0 152.0 36.0 C 153.0 36.0 154.0 36.0 155.0 37.0 C 156.0 37.0 157.0 38.0 158.0 38.0 C 159.0 39.0 159.0 40.0 160.0 41.0 C 161.0 41.0 162.0 41.0 163.0 42.0 C 163.0 43.0 163.0 44.0 162.0 45.0 C 163.0 46.0 164.0 47.0 165.0 46.0 C 165.0 45.0 166.0 45.0 167.0 45.0 C 167.0 46.0 168.0 47.0 169.0 48.0 C 170.0 49.0 170.0 50.0 171.0 51.0 C 171.0 52.0 172.0 53.0 172.0 54.0 C 172.0 55.0 173.0 56.0 173.0 57.0 C 173.0 58.0 173.0 59.0 173.0 60.0 C 173.0 61.0 173.0 62.0 173.0 63.0 C 173.0 64.0 173.0 65.0 173.0 66.0 C 173.0 67.0 172.0 68.0 172.0 69.0 C 172.0 70.0 171.0 71.0 171.0 72.0 C 170.0 73.0 170.0 74.0 169.0 75.0 C 168.0 76.0 167.0 77.0 167.0 78.0 C 166.0 79.0 165.0 80.0 164.0 80.0 C 163.0 81.0 162.0 82.0 161.0 83.0 C 160.0 83.0 159.0 84.0 158.0 84.0 C 157.0 85.0 156.0 85.0 155.0 85.0 C 155.0 84.0 154.0 83.0 153.0 84.0 C 153.0 85.0 153.0 87.0 151.0 87.0 C 150.0 86.0 148.0 86.0 148.0 88.0 C 147.0 89.0 146.0 88.0 145.0 86.0 C 144.0 88.0 144.0 90.0 142.0 90.0 C 140.0 90.0 140.0 88.0 138.0 88.0 C 138.0 90.0 136.0 91.0 134.0 91.0 C 132.0 91.0 130.0 91.0 129.0 89.0 C 128.0 87.0 126.0 88.0 126.0 90.0 C 124.0 90.0 122.0 89.0 122.0 87.0 C 120.0 86.0 118.0 85.0 116.0 85.0 C 114.0 85.0 113.0 86.0 111.0 86.0 C 109.0 85.0 107.0 84.0 105.0 82.0 C 103.0 81.0 101.0 79.0 99.0 77.0 C 98.0 75.0 96.0 73.0 95.0 71.0 C 95.0 69.0 95.0 67.0 97.0 66.0 C 95.0 65.0 93.0 64.0 93.0 62.0 C 93.0 60.0 94.0 58.0 96.0 58.0 C 96.0 56.0 95.0 55.0 95.0 53.0 C 96.0 51.0 97.0 49.0 99.0 47.0 C 100.0 45.0 102.0 43.0 104.0 41.0 C 106.0 40.0 108.0 39.0 110.0 38.0 C 112.0 38.0 113.0 36.0 115.0 36.0 C 117.0 35.0 119.0 34.0 121.0 34.0 C 121.0 36.0 123.0 37.0 125.0 36.0 C 126.0 34.0 127.0 33.0 127.0 35.0 C 129.0 36.0 131.0 36.0 131.0 34.0 C 129.0 34.0 129.0 32.0 130.0 32.0" stroke-width="0.0" fill="rgb(253, 218, 197)" opacity="1.0" stroke="rgb(248, 6, 127)" stroke-opacity="0.238172" stroke-linecap="round" stroke-linejoin="round"/>
    <path d="M 193.0 132.0 C 194.0 133.0 195.0 134.0 196.0 135.0 C 197.0 136.0 198.0 137.0 199.0 138.0 C 200.0 139.0 201.0 140.0 201.0 141.0 C 202.0 142.0 203.0 143.0 204.0 144.0 C 205.0 145.0 205.0 146.0 206.0 147.0 C 207.0 148.0 208.0 149.0 208.0 150.0 C 209.0 151.0 210.0 152.0 210.0 153.0 C 211.0 154.0 212.0 155.0 212.0 156.0 C 213.0 157.0 214.0 158.0 214.0 159.0 C 215.0 160.0 215.0 161.0 216.0 162.0 C 217.0 163.0 217.0 164.0 218.0 165.0 C 218.0 166.0 218.0 167.0 219.0 168.0 C 219.0 169.0 220.0 170.0 220.0 171.0 C 220.0 172.0 220.0 173.0 219.0 174.0 C 219.0 175.0 218.0 176.0 219.0 177.0 C 219.0 178.0 219.0 179.0 219.0 180.0 C 219.0 181.0 219.0 182.0 219.0 183.0 C 218.0 184.0 219.0 185.0 219.0 186.0 C 220.0 187.0 220.0 188.0 220.0 189.0 C 219.0 190.0 218.0 191.0 218.0 192.0 C 217.0 192.0 216.0 192.0 215.0 191.0 C 214.0 192.0 213.0 193.0 212.0 194.0 C 213.0 195.0 213.0 196.0 213.0 197.0 C 212.0 197.0 211.0 197.0 211.0 196.0 C 210.0 195.0 209.0 196.0 209.0 197.0 C 209.0 198.0 209.0 199.0 208.0 200.0 C 207.0 200.0 206.0 200.0 205.0 201.0 C 204.0 201.0 203.0 202.0 202.0 202.0 C 201.0 202.0 200.0 203.0 199.0 203.0 C 198.0 203.0 197.0 203.0 196.0 204.0 C 195.0 204.0 194.0 204.0 193.0 204.0 C 191.0 205.0 189.0 205.0 187.0 205.0 C 186.0 204.0 184.0 203.0 183.0 205.0 C 182.0 206.0 180.0 207.0 178.0 207.0 C 178.0 205.0 176.0 204.0 175.0 206.0 C 174.0 207.0 172.0 208.0 171.0 210.0 C 171.0 212.0 169.0 214.0 167.0 214.0 C 165.0 214.0 164.0 212.0 164.0 210.0 C 163.0 208.0 163.0 206.0 162.0 204.0 C 161.0 202.0 160.0 200.0 160.0 198.0 C 161.0 196.0 161.0 194.0 162.0 192.0 C 162.0 190.0 164.0 190.0 166.0 190.0 C 168.0 190.0 170.0 190.0 172.0 190.0 C 174.0 191.0 176.0 191.0 178.0 191.0 C 180.0 191.0 182.0 191.0 184.0 191.0 C 186.0 191.0 188.0 191.0 190.0 191.0 C 192.0 191.0 194.0 190.0 196.0 190.0 C 198.0 189.0 200.0 188.0 202.0 186.0 C 204.0 184.0 205.0 183.0 207.0 182.0 C 205.0 181.0 204.0 180.0 205.0 179.0 C 207.0 178.0 206.0 176.0 204.0 176.0 C 203.0 174.0 203.0 172.0 202.0 170.0 C 203.0 169.0 203.0 167.0 201.0 167.0 C 200.0 166.0 198.0 164.0 197.0 162.0 C 196.0 160.0 195.0 158.0 193.0 156.0 C 192.0 154.0 190.0 152.0 189.0 150.0 C 187.0 148.0 185.0 146.0 183.0 145.0 C 185.0 144.0 185.0 142.0 186.0 140.0 C 187.0 138.0 189.0 136.0 190.0 134.0 C 192.0 133.0 193.0 131.0 193.0 132.0" stroke-width="0.0" fill="rgb(252, 218, 197)" opacity="1.0" stroke="rgb(40, 110, 219)" stroke-opacity="0.70395285" stroke-linecap="round" stroke-linejoin="round"/>
    <path d="M 42.0 124.0 C 43.0 124.0 44.0 125.0 45.0 126.0 C 45.0 127.0 46.0 128.0 46.0 129.0 C 46.0 130.0 47.0 131.0 47.0 132.0 C 46.0 133.0 45.0 134.0 44.0 134.0 C 43.0 135.0 42.0 135.0 41.0 135.0 C 40.0 136.0 40.0 137.0 39.0 137.0 C 38.0 138.0 37.0 139.0 36.0 139.0 C 35.0 140.0 34.0 141.0 33.0 141.0 C 32.0 142.0 31.0 143.0 30.0 143.0 C 29.0 144.0 28.0 145.0 27.0 146.0 C 26.0 146.0 25.0 147.0 24.0 148.0 C 23.0 149.0 22.0 150.0 21.0 151.0 C 20.0 151.0 19.0 152.0 18.0 153.0 C 17.0 154.0 17.0 155.0 16.0 156.0 C 16.0 157.0 15.0 157.0 14.0 158.0 C 14.0 159.0 14.0 160.0 13.0 161.0 C 13.0 162.0 12.0 163.0 12.0 164.0 C 12.0 165.0 12.0 166.0 12.0 167.0 C 13.0 168.0 13.0 169.0 14.0 170.0 C 14.0 171.0 15.0 172.0 15.0 173.0 C 16.0 174.0 17.0 175.0 18.0 176.0 C 19.0 177.0 20.0 177.0 20.0 178.0 C 20.0 179.0 19.0 180.0 20.0 181.0 C 21.0 181.0 22.0 182.0 23.0 182.0 C 24.0 183.0 25.0 183.0 26.0 184.0 C 27.0 184.0 28.0 184.0 29.0 185.0 C 30.0 185.0 31.0 185.0 32.0 186.0 C 33.0 185.0 33.0 184.0 34.0 184.0 C 35.0 184.0 36.0 184.0 37.0 185.0 C 38.0 185.0 39.0 185.0 40.0 185.0 C 41.0 185.0 42.0 186.0 43.0 186.0 C 44.0 186.0 45.0 186.0 46.0 186.0 C 47.0 187.0 48.0 187.0 49.0 187.0 C 50.0 187.0 52.0 188.0 54.0 189.0 C 55.0 191.0 55.0 193.0 55.0 195.0 C 57.0 197.0 57.0 199.0 57.0 201.0 C 56.0 202.0 54.0 203.0 54.0 205.0 C 54.0 207.0 52.0 208.0 50.0 209.0 C 48.0 209.0 46.0 209.0 45.0 207.0 C 44.0 209.0 43.0 210.0 42.0 209.0 C 42.0 207.0 43.0 206.0 43.0 204.0 C 41.0 204.0 39.0 204.0 38.0 203.0 C 37.0 201.0 35.0 201.0 33.0 200.0 C 31.0 199.0 29.0 198.0 27.0 197.0 C 25.0 196.0 23.0 195.0 21.0 194.0 C 19.0 193.0 17.0 192.0 15.0 190.0 C 14.0 189.0 14.0 187.0 12.0 185.0 C 10.0 186.0 8.0 185.0 6.0 183.0 C 4.0 181.0 3.0 179.0 2.0 177.0 C 1.0 175.0 1.0 174.0 3.0 172.0 C 2.0 170.0 2.0 168.0 2.0 166.0 C 2.0 164.0 1.0 162.0 1.0 160.0 C 2.0 158.0 3.0 156.0 4.0 154.0 C 6.0 153.0 8.0 153.0 9.0 151.0 C 10.0 149.0 12.0 147.0 14.0 146.0 C 15.0 144.0 17.0 142.0 19.0 140.0 C 21.0 138.0 23.0 137.0 25.0 135.0 C 27.0 133.0 29.0 132.0 31.0 130.0 C 33.0 129.0 35.0 127.0 37.0 126.0 C 39.0 124.0 41.0 123.0 42.0 124.0" stroke-width="0.0" fill="rgb(252, 218, 196)" opacity="1.0" stroke="rgb(128, 193, 167)" stroke-opacity="0.3141018" stroke-linecap="round" stroke-linejoin="round"/>
    <path d="M 79.0 124.0 C 80.0 124.0 81.0 124.0 81.0 125.0 C 81.0 126.0 81.0 127.0 81.0 128.0 C 80.0 129.0 80.0 130.0 80.0 131.0 C 80.0 132.0 79.0 133.0 79.0 134.0 C 79.0 135.0 78.0 136.0 78.0 137.0 C 77.0 138.0 77.0 139.0 76.0 140.0 C 75.0 141.0 74.0 142.0 73.0 143.0 C 72.0 144.0 71.0 145.0 70.0 146.0 C 69.0 147.0 68.0 147.0 67.0 148.0 C 66.0 149.0 65.0 149.0 64.0 150.0 C 63.0 150.0 62.0 150.0 61.0 151.0 C 60.0 151.0 59.0 151.0 58.0 151.0 C 57.0 151.0 56.0 152.0 55.0 152.0 C 54.0 152.0 53.0 152.0 52.0 153.0 C 52.0 154.0 52.0 155.0 52.0 156.0 C 52.0 157.0 52.0 158.0 52.0 159.0 C 52.0 160.0 52.0 161.0 52.0 162.0 C 51.0 163.0 51.0 164.0 51.0 165.0 C 51.0 166.0 51.0 167.0 51.0 168.0 C 51.0 169.0 50.0 169.0 49.0 169.0 C 48.0 170.0 48.0 171.0 49.0 172.0 C 50.0 172.0 51.0 172.0 51.0 173.0 C 51.0 174.0 51.0 175.0 51.0 176.0 C 50.0 177.0 50.0 178.0 50.0 179.0 C 50.0 180.0 50.0 181.0 50.0 182.0 C 50.0 183.0 50.0 184.0 49.0 184.0 C 48.0 184.0 47.0 184.0 46.0 184.0 C 45.0 184.0 44.0 184.0 43.0 183.0 C 42.0 183.0 41.0 183.0 40.0 182.0 C 39.0 182.0 38.0 182.0 37.0 181.0 C 36.0 181.0 35.0 181.0 34.0 180.0 C 33.0 180.0 32.0 179.0 31.0 179.0 C 30.0 178.0 29.0 178.0 28.0 177.0 C 27.0 177.0 26.0 176.0 25.0 176.0 C 24.0 175.0 23.0 174.0 22.0 174.0 C 21.0 173.0 20.0 172.0 19.0 171.0 C 18.0 170.0 17.0 170.0 16.0 169.0 C 15.0 168.0 14.0 167.0 13.0 167.0 C 13.0 166.0 13.0 165.0 13.0 164.0 C 14.0 163.0 14.0 162.0 14.0 161.0 C 15.0 160.0 16.0 159.0 16.0 158.0 C 17.0 157.0 18.0 156.0 19.0 155.0 C 19.0 154.0 20.0 153.0 21.0 152.0 C 22.0 151.0 23.0 150.0 24.0 150.0 C 25.0 149.0 26.0 148.0 27.0 147.0 C 28.0 146.0 29.0 146.0 30.0 146.0 C 31.0 147.0 32.0 146.0 32.0 145.0 C 32.0 144.0 32.0 143.0 33.0 143.0 C 34.0 143.0 35.0 144.0 36.0 143.0 C 36.0 142.0 37.0 142.0 38.0 142.0 C 39.0 140.0 40.0 138.0 42.0 137.0 C 44.0 136.0 46.0 134.0 48.0 133.0 C 48.0 131.0 50.0 130.0 52.0 129.0 C 54.0 129.0 54.0 131.0 54.0 133.0 C 53.0 135.0 53.0 137.0 55.0 138.0 C 57.0 137.0 59.0 136.0 61.0 134.0 C 63.0 132.0 64.0 130.0 65.0 128.0 C 65.0 126.0 66.0 125.0 68.0 125.0 C 70.0 125.0 72.0 125.0 74.0 125.0 C 76.0 125.0 78.0 124.0 79.0 124.0" stroke-width="0.0" fill="rgb(88, 156, 43)" opacity="1.0" stroke="rgb(204, 191, 104)" stroke-opacity="0.31816748" stroke-linecap="round" stroke-linejoin="round"/>
    <path d="M 61.0 372.0 C 62.0 373.0 63.0 373.0 64.0 373.0 C 65.0 373.0 66.0 373.0 67.0 373.0 C 68.0 373.0 69.0 373.0 70.0 373.0 C 71.0 373.0 71.0 374.0 71.0 375.0 C 71.0 376.0 71.0 377.0 71.0 378.0 C 71.0 379.0 72.0 380.0 73.0 381.0 C 74.0 382.0 75.0 383.0 76.0 384.0 C 77.0 384.0 78.0 385.0 79.0 385.0 C 80.0 386.0 81.0 386.0 82.0 387.0 C 83.0 387.0 84.0 388.0 85.0 389.0 C 86.0 389.0 87.0 390.0 88.0 391.0 C 89.0 391.0 90.0 392.0 91.0 393.0 C 92.0 394.0 93.0 395.0 94.0 396.0 C 94.0 397.0 94.0 398.0 94.0 399.0 C 93.0 400.0 92.0 401.0 92.0 402.0 C 91.0 402.0 90.0 403.0 89.0 404.0 C 88.0 404.0 87.0 404.0 86.0 404.0 C 85.0 404.0 84.0 404.0 83.0 404.0 C 82.0 404.0 81.0 404.0 80.0 404.0 C 79.0 404.0 78.0 403.0 77.0 403.0 C 76.0 403.0 75.0 402.0 74.0 402.0 C 73.0 401.0 72.0 401.0 71.0 400.0 C 70.0 400.0 69.0 399.0 68.0 398.0 C 67.0 398.0 66.0 397.0 65.0 396.0 C 64.0 396.0 63.0 395.0 62.0 394.0 C 61.0 393.0 60.0 392.0 59.0 392.0 C 59.0 391.0 58.0 390.0 57.0 389.0 C 57.0 388.0 57.0 387.0 57.0 386.0 C 57.0 385.0 57.0 384.0 58.0 383.0 C 58.0 382.0 58.0 381.0 58.0 380.0 C 58.0 379.0 58.0 378.0 59.0 377.0 C 59.0 376.0 59.0 375.0 59.0 374.0 C 59.0 373.0 59.0 372.0 61.0 372.0" stroke-width="0.0" fill="rgb(0, 0, 0)" opacity="1.0" stroke="rgb(223, 20, 79)" stroke-opacity="0.5085029" stroke-linecap="round" stroke-linejoin="round"/>
    <path d="M 172.0 255.0 C 173.0 255.0 174.0 255.0 174.0 256.0 C 173.0 256.0 172.0 256.0 171.0 257.0 C 171.0 258.0 171.0 259.0 171.0 260.0 C 171.0 261.0 172.0 262.0 173.0 262.0 C 174.0 262.0 174.0 263.0 174.0 264.0 C 174.0 265.0 174.0 266.0 175.0 267.0 C 175.0 268.0 174.0 268.0 173.0 268.0 C 172.0 268.0 171.0 269.0 172.0 270.0 C 172.0 271.0 172.0 272.0 172.0 273.0 C 173.0 274.0 174.0 274.0 175.0 274.0 C 175.0 275.0 175.0 276.0 175.0 277.0 C 175.0 278.0 176.0 279.0 176.0 280.0 C 175.0 280.0 174.0 280.0 173.0 279.0 C 172.0 280.0 172.0 281.0 173.0 282.0 C 173.0 283.0 173.0 284.0 173.0 285.0 C 174.0 286.0 175.0 286.0 176.0 286.0 C 176.0 287.0 176.0 288.0 176.0 289.0 C 176.0 290.0 176.0 291.0 176.0 292.0 C 176.0 293.0 176.0 294.0 176.0 295.0 C 176.0 296.0 176.0 297.0 176.0 298.0 C 177.0 299.0 177.0 300.0 177.0 301.0 C 177.0 302.0 177.0 303.0 177.0 304.0 C 177.0 305.0 176.0 306.0 176.0 307.0 C 176.0 309.0 176.0 311.0 176.0 313.0 C 176.0 315.0 176.0 317.0 174.0 317.0 C 173.0 319.0 174.0 321.0 176.0 321.0 C 175.0 323.0 175.0 325.0 175.0 327.0 C 175.0 329.0 174.0 331.0 174.0 333.0 C 174.0 335.0 172.0 336.0 170.0 337.0 C 169.0 339.0 171.0 340.0 172.0 341.0 C 172.0 343.0 171.0 345.0 171.0 347.0 C 169.0 347.0 167.0 348.0 167.0 350.0 C 167.0 352.0 168.0 354.0 167.0 356.0 C 166.0 357.0 164.0 356.0 162.0 357.0 C 160.0 357.0 159.0 359.0 157.0 359.0 C 155.0 358.0 154.0 356.0 153.0 354.0 C 154.0 352.0 154.0 350.0 155.0 348.0 C 153.0 347.0 151.0 347.0 151.0 345.0 C 153.0 345.0 155.0 345.0 157.0 344.0 C 157.0 342.0 158.0 340.0 158.0 338.0 C 159.0 336.0 159.0 334.0 160.0 332.0 C 161.0 331.0 163.0 330.0 163.0 328.0 C 161.0 327.0 161.0 326.0 162.0 325.0 C 164.0 324.0 164.0 322.0 164.0 320.0 C 162.0 319.0 162.0 318.0 162.0 316.0 C 162.0 314.0 164.0 314.0 165.0 312.0 C 165.0 310.0 165.0 308.0 165.0 306.0 C 165.0 304.0 165.0 302.0 165.0 300.0 C 165.0 298.0 165.0 296.0 165.0 294.0 C 165.0 292.0 165.0 290.0 163.0 289.0 C 162.0 288.0 162.0 286.0 161.0 284.0 C 163.0 284.0 164.0 282.0 164.0 280.0 C 163.0 278.0 161.0 278.0 161.0 276.0 C 161.0 275.0 163.0 274.0 163.0 272.0 C 161.0 271.0 160.0 270.0 160.0 269.0 C 162.0 268.0 162.0 266.0 160.0 265.0 C 159.0 264.0 158.0 262.0 158.0 260.0 C 159.0 259.0 160.0 257.0 161.0 256.0 C 163.0 256.0 165.0 257.0 167.0 256.0 C 169.0 256.0 171.0 255.0 172.0 255.0" stroke-width="0.0" fill="rgb(251, 217, 196)" opacity="1.0" stroke="rgb(66, 172, 129)" stroke-opacity="0.7280424" stroke-linecap="round" stroke-linejoin="round"/>
    <path d="M 45.0 74.0 C 46.0 74.0 47.0 74.0 48.0 74.0 C 48.0 75.0 49.0 76.0 50.0 76.0 C 51.0 76.0 52.0 76.0 53.0 75.0 C 53.0 74.0 54.0 74.0 55.0 74.0 C 56.0 74.0 57.0 74.0 58.0 74.0 C 59.0 75.0 60.0 75.0 61.0 75.0 C 61.0 76.0 61.0 77.0 62.0 78.0 C 63.0 78.0 63.0 79.0 63.0 80.0 C 63.0 81.0 63.0 82.0 63.0 83.0 C 63.0 84.0 63.0 85.0 63.0 86.0 C 63.0 87.0 63.0 88.0 63.0 89.0 C 63.0 90.0 62.0 91.0 61.0 91.0 C 60.0 92.0 60.0 93.0 59.0 94.0 C 60.0 95.0 61.0 95.0 62.0 95.0 C 63.0 95.0 64.0 95.0 64.0 96.0 C 64.0 97.0 65.0 98.0 66.0 98.0 C 67.0 98.0 68.0 98.0 69.0 99.0 C 70.0 100.0 70.0 101.0 70.0 102.0 C 70.0 103.0 71.0 104.0 72.0 104.0 C 73.0 104.0 73.0 105.0 73.0 106.0 C 73.0 107.0 74.0 108.0 74.0 109.0 C 75.0 110.0 75.0 111.0 76.0 112.0 C 76.0 113.0 76.0 114.0 76.0 115.0 C 77.0 116.0 78.0 117.0 79.0 117.0 C 79.0 118.0 79.0 119.0 78.0 120.0 C 79.0 121.0 80.0 121.0 80.0 122.0 C 80.0 123.0 79.0 123.0 78.0 123.0 C 77.0 124.0 76.0 124.0 75.0 124.0 C 74.0 124.0 73.0 124.0 72.0 124.0 C 71.0 124.0 70.0 123.0 69.0 123.0 C 68.0 123.0 67.0 123.0 66.0 124.0 C 66.0 123.0 66.0 122.0 67.0 121.0 C 66.0 120.0 66.0 119.0 65.0 118.0 C 65.0 117.0 64.0 116.0 63.0 116.0 C 63.0 115.0 62.0 114.0 61.0 113.0 C 61.0 112.0 60.0 111.0 59.0 110.0 C 58.0 109.0 57.0 109.0 56.0 109.0 C 55.0 110.0 55.0 111.0 54.0 111.0 C 53.0 112.0 52.0 113.0 51.0 113.0 C 50.0 114.0 49.0 115.0 48.0 115.0 C 47.0 116.0 46.0 117.0 45.0 117.0 C 44.0 118.0 43.0 119.0 42.0 119.0 C 41.0 119.0 40.0 119.0 39.0 119.0 C 38.0 119.0 37.0 119.0 36.0 118.0 C 35.0 118.0 34.0 119.0 33.0 119.0 C 32.0 118.0 30.0 118.0 28.0 117.0 C 26.0 118.0 24.0 117.0 22.0 117.0 C 20.0 117.0 18.0 116.0 16.0 116.0 C 14.0 115.0 12.0 115.0 10.0 114.0 C 8.0 113.0 6.0 113.0 6.0 111.0 C 8.0 110.0 10.0 109.0 8.0 108.0 C 8.0 106.0 9.0 104.0 10.0 102.0 C 12.0 100.0 13.0 98.0 14.0 96.0 C 15.0 94.0 17.0 92.0 19.0 90.0 C 20.0 88.0 22.0 86.0 24.0 84.0 C 26.0 83.0 28.0 82.0 30.0 83.0 C 31.0 81.0 31.0 79.0 33.0 79.0 C 35.0 80.0 37.0 79.0 38.0 77.0 C 39.0 75.0 41.0 75.0 42.0 76.0 C 44.0 76.0 44.0 74.0 45.0 74.0" stroke-width="0.0" fill="rgb(140, 210, 94)" opacity="1.0" stroke="rgb(192, 200, 122)" stroke-opacity="0.88083655" stroke-linecap="round" stroke-linejoin="round"/>
    <path d="M 82.0 268.0 C 82.0 269.0 82.0 270.0 82.0 271.0 C 82.0 272.0 82.0 273.0 82.0 274.0 C 82.0 275.0 82.0 276.0 82.0 277.0 C 82.0 278.0 82.0 279.0 82.0 280.0 C 82.0 281.0 82.0 282.0 82.0 283.0 C 82.0 284.0 82.0 285.0 82.0 286.0 C 82.0 287.0 82.0 288.0 82.0 289.0 C 82.0 290.0 82.0 291.0 82.0 292.0 C 82.0 293.0 82.0 294.0 82.0 295.0 C 82.0 296.0 82.0 297.0 82.0 298.0 C 82.0 299.0 82.0 300.0 82.0 301.0 C 82.0 302.0 82.0 303.0 82.0 304.0 C 82.0 305.0 82.0 306.0 82.0 307.0 C 82.0 308.0 82.0 309.0 82.0 310.0 C 82.0 311.0 82.0 312.0 82.0 313.0 C 82.0 314.0 82.0 315.0 82.0 316.0 C 82.0 317.0 83.0 318.0 84.0 318.0 C 85.0 318.0 84.0 319.0 83.0 319.0 C 82.0 319.0 81.0 320.0 81.0 321.0 C 81.0 322.0 81.0 323.0 81.0 324.0 C 81.0 325.0 81.0 326.0 81.0 327.0 C 82.0 328.0 83.0 328.0 82.0 328.0 C 81.0 328.0 80.0 329.0 80.0 330.0 C 80.0 331.0 80.0 332.0 80.0 333.0 C 80.0 334.0 81.0 335.0 82.0 335.0 C 81.0 335.0 80.0 335.0 79.0 336.0 C 79.0 337.0 79.0 338.0 79.0 339.0 C 80.0 340.0 81.0 340.0 82.0 340.0 C 81.0 340.0 80.0 340.0 79.0 340.0 C 78.0 342.0 78.0 344.0 77.0 346.0 C 76.0 348.0 76.0 350.0 77.0 352.0 C 78.0 353.0 78.0 355.0 78.0 355.0 C 77.0 353.0 75.0 353.0 74.0 355.0 C 75.0 357.0 76.0 358.0 75.0 360.0 C 74.0 362.0 72.0 364.0 70.0 364.0 C 68.0 364.0 66.0 364.0 64.0 363.0 C 62.0 361.0 62.0 359.0 62.0 357.0 C 63.0 355.0 63.0 353.0 63.0 351.0 C 63.0 353.0 65.0 354.0 67.0 353.0 C 67.0 351.0 65.0 350.0 65.0 348.0 C 66.0 346.0 67.0 345.0 69.0 345.0 C 70.0 343.0 69.0 341.0 67.0 341.0 C 69.0 341.0 71.0 340.0 71.0 338.0 C 69.0 337.0 69.0 336.0 71.0 336.0 C 72.0 334.0 71.0 332.0 69.0 332.0 C 71.0 331.0 73.0 330.0 73.0 328.0 C 73.0 326.0 72.0 324.0 70.0 324.0 C 71.0 322.0 73.0 322.0 74.0 320.0 C 74.0 318.0 74.0 316.0 74.0 314.0 C 74.0 312.0 74.0 310.0 74.0 308.0 C 74.0 306.0 74.0 304.0 74.0 302.0 C 74.0 300.0 74.0 298.0 74.0 296.0 C 74.0 294.0 72.0 293.0 71.0 292.0 C 70.0 290.0 72.0 290.0 73.0 288.0 C 73.0 286.0 73.0 284.0 73.0 282.0 C 71.0 281.0 70.0 280.0 69.0 278.0 C 71.0 278.0 72.0 276.0 72.0 274.0 C 72.0 272.0 72.0 270.0 74.0 270.0 C 76.0 270.0 77.0 270.0 79.0 271.0 C 81.0 270.0 81.0 268.0 82.0 268.0" stroke-width="0.0" fill="rgb(254, 219, 198)" opacity="1.0" stroke="rgb(226, 204, 145)" stroke-opacity="0.025629682" stroke-linecap="round" stroke-linejoin="round"/>
    <path d="M 6.0 114.0 C 7.0 114.0 8.0 114.0 9.0 115.0 C 10.0 115.0 11.0 115.0 12.0 116.0 C 13.0 116.0 14.0 116.0 14.0 117.0 C 14.0 118.0 15.0 119.0 16.0 118.0 C 16.0 117.0 17.0 117.0 18.0 117.0 C 19.0 117.0 20.0 118.0 21.0 118.0 C 22.0 118.0 23.0 118.0 24.0 118.0 C 25.0 118.0 26.0 119.0 27.0 119.0 C 28.0 119.0 29.0 119.0 30.0 119.0 C 31.0 119.0 32.0 120.0 33.0 120.0 C 34.0 120.0 35.0 120.0 36.0 120.0 C 37.0 120.0 38.0 120.0 39.0 120.0 C 40.0 120.0 41.0 120.0 42.0 120.0 C 43.0 120.0 43.0 121.0 43.0 122.0 C 42.0 122.0 41.0 122.0 40.0 122.0 C 39.0 123.0 38.0 124.0 37.0 125.0 C 36.0 125.0 35.0 126.0 34.0 127.0 C 33.0 127.0 32.0 128.0 31.0 129.0 C 30.0 130.0 29.0 130.0 28.0 131.0 C 27.0 132.0 26.0 133.0 25.0 134.0 C 24.0 134.0 23.0 135.0 22.0 136.0 C 21.0 137.0 20.0 138.0 19.0 139.0 C 18.0 140.0 17.0 141.0 16.0 142.0 C 15.0 143.0 14.0 144.0 13.0 145.0 C 12.0 146.0 11.0 147.0 10.0 148.0 C 9.0 149.0 8.0 150.0 8.0 151.0 C 7.0 152.0 6.0 152.0 5.0 152.0 C 5.0 151.0 5.0 150.0 4.0 149.0 C 4.0 148.0 4.0 147.0 3.0 146.0 C 3.0 145.0 3.0 144.0 3.0 143.0 C 3.0 142.0 3.0 141.0 3.0 140.0 C 4.0 140.0 5.0 139.0 4.0 138.0 C 3.0 138.0 2.0 138.0 2.0 137.0 C 2.0 136.0 2.0 135.0 2.0 134.0 C 2.0 133.0 2.0 132.0 2.0 131.0 C 2.0 130.0 3.0 130.0 4.0 130.0 C 5.0 129.0 5.0 128.0 4.0 127.0 C 3.0 127.0 3.0 126.0 3.0 125.0 C 3.0 124.0 3.0 123.0 3.0 122.0 C 4.0 121.0 4.0 120.0 4.0 119.0 C 4.0 118.0 5.0 118.0 6.0 118.0 C 7.0 117.0 6.0 116.0 5.0 116.0 C 5.0 115.0 5.0 114.0 6.0 114.0" stroke-width="0.0" fill="rgb(89, 158, 43)" opacity="1.0" stroke="rgb(77, 121, 115)" stroke-opacity="0.1188304" stroke-linecap="round" stroke-linejoin="round"/>
    <path d="M 150.0 367.0 C 151.0 367.0 152.0 368.0 153.0 368.0 C 154.0 368.0 155.0 368.0 156.0 369.0 C 157.0 369.0 158.0 369.0 159.0 369.0 C 160.0 369.0 160.0 370.0 161.0 371.0 C 161.0 372.0 162.0 373.0 163.0 374.0 C 164.0 374.0 165.0 375.0 166.0 375.0 C 167.0 376.0 168.0 376.0 169.0 376.0 C 170.0 377.0 171.0 377.0 172.0 378.0 C 173.0 379.0 174.0 379.0 175.0 380.0 C 176.0 381.0 176.0 382.0 177.0 383.0 C 177.0 384.0 177.0 385.0 177.0 386.0 C 176.0 387.0 176.0 388.0 175.0 388.0 C 174.0 389.0 173.0 389.0 172.0 390.0 C 171.0 390.0 170.0 390.0 169.0 390.0 C 168.0 390.0 167.0 390.0 166.0 390.0 C 165.0 390.0 164.0 390.0 163.0 389.0 C 162.0 389.0 161.0 388.0 160.0 388.0 C 159.0 388.0 158.0 387.0 157.0 387.0 C 156.0 386.0 155.0 386.0 154.0 385.0 C 153.0 385.0 152.0 384.0 151.0 383.0 C 150.0 383.0 149.0 382.0 148.0 382.0 C 147.0 381.0 146.0 380.0 145.0 380.0 C 144.0 379.0 143.0 378.0 142.0 377.0 C 142.0 376.0 142.0 375.0 142.0 374.0 C 143.0 373.0 143.0 372.0 143.0 371.0 C 144.0 370.0 145.0 369.0 145.0 368.0 C 146.0 367.0 147.0 366.0 150.0 367.0" stroke-width="0.0" fill="rgb(0, 0, 0)" opacity="1.0" stroke="rgb(183, 242, 13)" stroke-opacity="0.25255153" stroke-linecap="round" stroke-linejoin="round"/>
    <path d="M 186.0 125.0 C 187.0 126.0 188.0 127.0 189.0 128.0 C 190.0 129.0 190.0 130.0 190.0 131.0 C 190.0 132.0 189.0 133.0 189.0 134.0 C 188.0 135.0 187.0 136.0 186.0 135.0 C 185.0 135.0 184.0 135.0 183.0 136.0 C 183.0 137.0 183.0 138.0 184.0 139.0 C 185.0 139.0 184.0 140.0 184.0 141.0 C 183.0 142.0 183.0 143.0 183.0 144.0 C 182.0 145.0 182.0 146.0 181.0 147.0 C 180.0 148.0 180.0 149.0 179.0 150.0 C 178.0 151.0 177.0 152.0 176.0 153.0 C 175.0 154.0 174.0 154.0 173.0 155.0 C 172.0 156.0 171.0 156.0 170.0 157.0 C 169.0 157.0 168.0 157.0 168.0 156.0 C 168.0 155.0 168.0 154.0 168.0 153.0 C 168.0 152.0 168.0 151.0 168.0 150.0 C 168.0 149.0 168.0 148.0 169.0 147.0 C 169.0 146.0 169.0 145.0 169.0 144.0 C 169.0 143.0 169.0 142.0 169.0 141.0 C 169.0 140.0 169.0 139.0 170.0 138.0 C 170.0 137.0 170.0 136.0 170.0 135.0 C 170.0 134.0 170.0 133.0 171.0 133.0 C 172.0 133.0 173.0 133.0 174.0 133.0 C 175.0 133.0 176.0 133.0 177.0 133.0 C 178.0 133.0 179.0 133.0 180.0 133.0 C 181.0 133.0 182.0 133.0 183.0 132.0 C 184.0 132.0 185.0 131.0 184.0 130.0 C 184.0 129.0 184.0 128.0 184.0 127.0 C 184.0 126.0 184.0 125.0 186.0 125.0" stroke-width="0.0" fill="rgb(87, 154, 43)" opacity="1.0" stroke="rgb(72, 48, 23)" stroke-opacity="0.52703613" stroke-linecap="round" stroke-linejoin="round"/>
    <path d="M 61.0 114.0 C 62.0 115.0 62.0 116.0 63.0 117.0 C 64.0 118.0 64.0 119.0 65.0 120.0 C 65.0 121.0 65.0 122.0 65.0 123.0 C 65.0 124.0 64.0 125.0 64.0 126.0 C 64.0 127.0 64.0 128.0 64.0 129.0 C 63.0 130.0 63.0 131.0 62.0 132.0 C 61.0 133.0 60.0 134.0 59.0 135.0 C 58.0 136.0 57.0 136.0 56.0 137.0 C 55.0 137.0 54.0 137.0 54.0 136.0 C 54.0 135.0 54.0 134.0 55.0 133.0 C 55.0 132.0 55.0 131.0 55.0 130.0 C 55.0 129.0 54.0 128.0 53.0 128.0 C 52.0 128.0 51.0 129.0 50.0 129.0 C 49.0 129.0 48.0 129.0 47.0 129.0 C 47.0 128.0 46.0 127.0 46.0 126.0 C 45.0 125.0 44.0 124.0 44.0 123.0 C 44.0 122.0 44.0 121.0 44.0 120.0 C 44.0 119.0 45.0 118.0 46.0 118.0 C 47.0 117.0 48.0 116.0 49.0 116.0 C 50.0 115.0 51.0 114.0 52.0 114.0 C 53.0 113.0 54.0 112.0 55.0 112.0 C 56.0 113.0 57.0 113.0 58.0 113.0 C 59.0 112.0 59.0 111.0 61.0 114.0" stroke-width="0.0" fill="rgb(0, 167, 209)" opacity="1.0" stroke="rgb(134, 188, 108)" stroke-opacity="0.49164936" stroke-linecap="round" stroke-linejoin="round"/>
    <path d="M 176.0 111.0 C 177.0 111.0 178.0 112.0 179.0 113.0 C 179.0 114.0 180.0 115.0 180.0 116.0 C 181.0 117.0 181.0 118.0 182.0 119.0 C 182.0 120.0 182.0 121.0 182.0 122.0 C 181.0 123.0 182.0 124.0 183.0 124.0 C 183.0 125.0 183.0 126.0 182.0 127.0 C 183.0 128.0 183.0 129.0 183.0 130.0 C 183.0 131.0 182.0 132.0 181.0 132.0 C 180.0 132.0 179.0 132.0 178.0 132.0 C 177.0 131.0 176.0 131.0 175.0 131.0 C 174.0 131.0 173.0 131.0 172.0 131.0 C 171.0 131.0 171.0 130.0 171.0 129.0 C 172.0 129.0 173.0 128.0 173.0 127.0 C 173.0 126.0 174.0 125.0 174.0 124.0 C 173.0 123.0 172.0 123.0 172.0 122.0 C 172.0 121.0 172.0 120.0 172.0 119.0 C 172.0 118.0 172.0 117.0 173.0 117.0 C 174.0 117.0 175.0 116.0 175.0 115.0 C 175.0 114.0 174.0 113.0 173.0 113.0 C 173.0 112.0 173.0 111.0 176.0 111.0" stroke-width="0.0" fill="rgb(140, 209, 94)" opacity="1.0" stroke="rgb(138, 218, 143)" stroke-opacity="0.73722446" stroke-linecap="round" stroke-linejoin="round"/>
  </g>
</svg>
