<?xml version="1.0" ?>
<svg xmlns="http://www.w3.org/2000/svg" version="1.1" width="512" height="512">
  <defs/>
  <g>
    <path d="M 9.29750919342041 201.58828735351562 C 23.332399368286133 240.3172149658203 52.50838851928711 233.99806213378906 80.49444580078125 264.3572692871094 C 106.5846939086914 290.3717041015625 121.27599334716797 307.06695556640625 136.94345092773438 345.7038269042969 C 107.10375213623047 357.95611572265625 102.78474426269531 336.3954772949219 83.14898681640625 316.6465148925781 C 71.47750091552734 300.66864013671875 69.87258911132812 303.0796813964844 78.56265258789062 315.28350830078125 C 85.65540313720703 325.4560546875 92.13190460205078 335.56231689453125 98.1361083984375 343.2677917480469 C 102.65023803710938 348.7222900390625 107.20742797851562 353.0060119628906 105.61669158935547 351.7516784667969 C 103.89305114746094 350.7083435058594 100.55333709716797 355.1705017089844 99.95341491699219 355.674072265625 C 98.85572814941406 358.82403564453125 96.5134506225586 363.4156188964844 96.95606231689453 363.0441589355469 C 94.52706146240234 363.84185791015625 96.3698501586914 362.1861267089844 97.73819732666016 363.09979248046875 C 94.61705780029297 362.4680480957031 96.55616760253906 363.3982238769531 96.13887786865234 363.51080322265625 C 97.46998596191406 362.7012939453125 99.32520294189453 356.60162353515625 100.24418640136719 355.3860168457031 C 100.2352294921875 355.15155029296875 102.67481231689453 352.3411560058594 105.67620086669922 351.5240478515625 C 106.93677520751953 353.8514709472656 111.75027465820312 358.23358154296875 114.90543365478516 362.5354919433594 C 119.52806091308594 365.895263671875 123.07452392578125 372.33453369140625 127.94200897216797 375.86376953125 C 125.43396759033203 373.5290222167969 124.29977416992188 380.61248779296875 121.96671295166016 382.89178466796875 C 119.2641372680664 385.291748046875 117.85724639892578 385.89227294921875 120.06951141357422 384.9319763183594 C 118.05628204345703 385.8093566894531 118.99271392822266 384.6455383300781 118.90583038330078 385.1466979980469 C 117.96409606933594 385.88922119140625 119.44818115234375 385.4588623046875 122.11018371582031 382.4727783203125 C 124.02241516113281 380.21612548828125 125.42356872558594 375.6839599609375 126.53665924072266 376.299072265625 C 125.66694641113281 374.9588317871094 128.6611328125 376.7017517089844 130.75811767578125 378.7005310058594 C 129.6090850830078 377.6930847167969 132.85032653808594 380.9188537597656 133.96286010742188 382.35443115234375 C 137.95790100097656 385.5574035644531 143.39822387695312 390.41680908203125 149.8446044921875 396.0169372558594 C 157.36151123046875 402.0556640625 167.44781494140625 410.5938415527344 176.71481323242188 418.0064697265625 C 188.0912322998047 428.8206481933594 199.2630157470703 438.00567626953125 209.71249389648438 447.9180908203125 C 214.60513305664062 453.4944152832031 211.9432373046875 452.8127136230469 200.27552795410156 460.4041442871094 C 185.83505249023438 468.4639892578125 184.2635955810547 466.7788391113281 175.119384765625 468.3906555175781 C 166.80348205566406 468.9312438964844 155.5196075439453 468.15252685546875 155.36997985839844 468.2223205566406 C 150.0284881591797 467.40606689453125 144.3695526123047 467.81610107421875 147.234130859375 466.7785949707031 C 146.03021240234375 467.3994445800781 137.83680725097656 466.3998718261719 131.86727905273438 464.2779541015625 C 127.0090560913086 463.773193359375 118.06582641601562 460.1174621582031 112.21732330322266 458.06549072265625 C 106.18267822265625 456.02996826171875 100.09381866455078 453.5313720703125 101.1838150024414 454.3574523925781 C 101.17473602294922 453.9201965332031 96.41726684570312 453.0923767089844 104.77383422851562 456.35809326171875 C 97.76473999023438 453.31390380859375 94.6087417602539 452.17987060546875 97.58614349365234 453.9429016113281 C 97.90475463867188 453.7062683105469 92.21151733398438 452.12664794921875 89.09163665771484 451.224365234375 C 82.76322174072266 449.4383239746094 77.55016326904297 447.8841857910156 75.87932586669922 445.8825378417969 C 78.81555938720703 447.47503662109375 73.61319732666016 444.81402587890625 68.7489242553711 441.6159362792969 C 70.89826202392578 444.452392578125 68.22264862060547 442.7913513183594 69.22537994384766 442.043701171875 C 70.74656677246094 441.3816833496094 70.2889633178711 443.5501708984375 70.01863098144531 442.37261962890625 C 63.53749465942383 438.8083801269531 62.80303955078125 436.86578369140625 65.47032165527344 439.72772216796875 C 64.32069396972656 436.6151123046875 59.63534164428711 431.47650146484375 60.873653411865234 434.1062927246094 C 59.11423873901367 431.1620178222656 56.8617057800293 427.7921142578125 57.165916442871094 428.4548645019531 C 57.65586853027344 430.85888671875 55.55732727050781 426.7239074707031 52.73611068725586 421.6842041015625 C 55.03825759887695 427.74871826171875 55.47888946533203 423.68975830078125 52.9798469543457 423.0570373535156 C 49.49074172973633 417.2721862792969 45.98179244995117 412.0125427246094 46.280853271484375 413.654541015625 C 45.451107025146484 410.53253173828125 41.44696807861328 406.5621032714844 41.52675247192383 405.26519775390625 C 38.59461212158203 402.06903076171875 37.180076599121094 396.9442443847656 38.39644241333008 398.8317565917969 C 36.98069381713867 398.3419189453125 39.33632278442383 398.6780700683594 36.71253967285156 398.5609130859375 C 38.32737731933594 399.6261901855469 38.37847900390625 397.3799743652344 34.98572540283203 397.4554748535156 C 39.77248764038086 397.6291198730469 36.00110626220703 400.1051025390625 37.409088134765625 397.53497314453125 C 37.00395202636719 399.0234680175781 36.645565032958984 399.7312316894531 38.89904022216797 400.2579650878906 C 36.83013916015625 400.1636047363281 35.23527908325195 394.0643005371094 34.10267639160156 392.20196533203125 C 31.569475173950195 388.05633544921875 29.0856990814209 381.8234558105469 28.140810012817383 379.5113220214844 C 28.1614933013916 378.2220458984375 26.019704818725586 373.5162048339844 26.301979064941406 372.92498779296875 C 24.870641708374023 370.7977294921875 23.924989700317383 364.4998474121094 22.141456604003906 355.3139343261719 C 24.23122215270996 365.17645263671875 22.387008666992188 358.96832275390625 22.111173629760742 354.97747802734375 C 21.645227432250977 352.1467590332031 20.21271514892578 341.2332458496094 20.83670997619629 347.874267578125 C 22.145971298217773 347.36932373046875 16.874164581298828 340.4740295410156 18.6991024017334 340.7311706542969 C 16.78948211669922 339.7265319824219 15.418858528137207 335.2004699707031 13.825947761535645 330.5689392089844 C 12.579365730285645 327.2078857421875 12.129386901855469 321.5196228027344 12.585637092590332 328.7153625488281 C 9.319986343383789 307.34375 3.3528530597686768 301.1243591308594 9.29750919342041 201.58828735351562" stroke-width="0.0" fill="rgb(71, 160, 61)" opacity="0.9998526" stroke="rgb(244, 42, 122)" stroke-opacity="0.5070383" stroke-linecap="round" stroke-linejoin="round"/>
    <path d="M 503.8412170410156 289.59637451171875 C 499.91033935546875 319.6654052734375 481.6788024902344 352.54425048828125 462.281982421875 378.8872985839844 C 445.9866027832031 402.0301208496094 430.75408935546875 415.7513427734375 416.1915588378906 427.48956298828125 C 412.18487548828125 429.542724609375 399.4770202636719 426.305419921875 391.9601745605469 424.4157409667969 C 383.5048828125 422.27703857421875 376.80255126953125 420.2722473144531 374.5663757324219 416.9988708496094 C 372.3661804199219 415.8294982910156 364.7708740234375 416.9454650878906 361.9054260253906 417.9903564453125 C 364.5529479980469 417.26458740234375 361.84295654296875 417.7989807128906 364.34344482421875 417.355712890625 C 362.48089599609375 417.52880859375 362.36602783203125 418.1796875 362.4007263183594 417.8414306640625 C 363.9123840332031 417.2915344238281 371.6752624511719 415.7937927246094 374.66326904296875 417.07122802734375 C 377.0437927246094 420.9692687988281 385.8678283691406 422.59478759765625 393.6570129394531 424.8680725097656 C 401.1653137207031 426.6441650390625 408.3674621582031 428.9635925292969 415.5037536621094 428.0931396484375 C 412.4054260253906 430.13568115234375 407.3494567871094 433.4100646972656 402.4249267578125 437.2383728027344 C 394.6990661621094 442.33892822265625 389.1972961425781 445.20599365234375 378.5646667480469 449.2561340332031 C 378.30279541015625 450.8072509765625 371.5782470703125 447.06396484375 367.1495056152344 444.734130859375 C 362.6590881347656 442.5642395019531 359.11474609375 439.1199035644531 357.8320617675781 437.25335693359375 C 359.1023254394531 438.58319091796875 357.5679626464844 437.0918273925781 358.1782531738281 437.3929748535156 C 357.3231506347656 439.34033203125 358.8619689941406 435.0880126953125 359.8633117675781 437.7985534667969 C 358.4736633300781 435.19598388671875 358.3830871582031 438.6446228027344 357.21331787109375 436.82208251953125 C 356.0811462402344 435.4501647949219 352.955810546875 432.7518615722656 350.6460876464844 430.2724914550781 C 351.5375671386719 431.2062683105469 350.8077087402344 430.762451171875 350.12103271484375 431.5226745605469 C 350.8243408203125 430.5865783691406 351.7707214355469 431.1959228515625 350.6357727050781 430.007568359375 C 352.43402099609375 432.2394104003906 356.4382629394531 435.8098449707031 358.202392578125 438.02044677734375 C 360.9498291015625 440.6064147949219 364.7840576171875 443.755615234375 368.2532043457031 445.3939514160156 C 372.3359680175781 447.6393737792969 376.3789367675781 449.8931579589844 379.7140197753906 449.9637756347656 C 377.9906311035156 449.4847717285156 371.6370849609375 451.2080078125 367.33282470703125 455.2799072265625 C 364.7424621582031 457.0669860839844 358.1854248046875 460.6042175292969 351.23760986328125 462.8149719238281 C 345.6656799316406 465.9743347167969 340.6758117675781 466.67218017578125 334.349853515625 468.1327819824219 C 329.3290100097656 469.4468994140625 322.48541259765625 469.7633361816406 312.9663391113281 470.1272277832031 C 313.537353515625 470.1913757324219 313.66455078125 469.9983825683594 313.91943359375 470.06024169921875 C 313.16217041015625 470.86090087890625 312.8792724609375 471.1383056640625 315.6407470703125 469.4513854980469 C 314.32196044921875 469.95635986328125 314.0906982421875 470.3793640136719 314.87213134765625 469.4960632324219 C 320.4673156738281 471.1374816894531 305.34796142578125 470.49755859375 305.9341125488281 470.62139892578125 C 307.1009521484375 470.472412109375 300.6287536621094 470.492431640625 303.2981262207031 470.1626892089844 C 295.0281982421875 470.0107116699219 288.79766845703125 468.9550476074219 286.7349853515625 467.52154541015625 C 291.4441223144531 468.9262390136719 283.4898376464844 467.68939208984375 289.21392822265625 468.5530700683594 C 278.9724426269531 465.672119140625 271.7967224121094 464.5643005371094 273.3714294433594 463.74383544921875 C 274.8435974121094 465.0157775878906 270.0276794433594 464.75634765625 278.2373962402344 464.9551086425781 C 274.4229736328125 465.24053955078125 267.9433898925781 462.77362060546875 263.0575256347656 460.0484619140625 C 264.1851501464844 460.4898376464844 257.82171630859375 456.5684814453125 256.20501708984375 456.11651611328125 C 256.07379150390625 455.3863220214844 249.9795379638672 451.6064758300781 246.21560668945312 446.72747802734375 C 241.9978790283203 440.75750732421875 244.437255859375 441.8363342285156 244.4104461669922 443.3983154296875 C 243.3729705810547 444.5060729980469 250.2684326171875 442.9176330566406 253.26736450195312 441.5483093261719 C 256.8807373046875 440.3827209472656 263.8885192871094 437.7682189941406 268.6302490234375 435.8103332519531 C 268.1126403808594 435.67913818359375 276.4744567871094 433.1922607421875 274.8759765625 433.6963806152344 C 274.7609558105469 432.94598388671875 282.7876281738281 430.0458984375 284.0309143066406 428.47454833984375 C 284.3683166503906 427.88134765625 291.1583557128906 425.1842346191406 287.8096618652344 425.3238830566406 C 289.4916076660156 426.73260498046875 292.1197814941406 422.3866882324219 285.0755920410156 424.9281921386719 C 277.1971740722656 428.5338439941406 268.4823913574219 431.7314758300781 261.3279113769531 435.19482421875 C 252.58482360839844 439.30059814453125 240.54559326171875 442.89208984375 240.5242919921875 442.80419921875 C 237.82037353515625 433.5280456542969 237.3829803466797 426.0200500488281 243.5860595703125 408.9818420410156 C 248.47897338867188 398.51544189453125 258.993408203125 378.79840087890625 267.5333557128906 365.2603759765625 C 274.5068054199219 353.7723693847656 278.73809814453125 349.6037902832031 289.83709716796875 342.1957702636719 C 289.5373840332031 353.13726806640625 300.9865417480469 359.3714599609375 309.9748840332031 374.2792663574219 C 317.7872619628906 383.8630676269531 321.0195617675781 394.30535888671875 325.8863830566406 395.52691650390625 C 322.69549560546875 393.8559875488281 325.6790771484375 395.0631408691406 324.92340087890625 395.1428527832031 C 327.5767822265625 396.07489013671875 323.7011413574219 395.0602722167969 320.3334045410156 390.97210693359375 C 323.4879150390625 394.1758728027344 324.908447265625 399.2452697753906 328.23052978515625 401.6397705078125 C 331.9240417480469 405.67205810546875 333.65435791015625 407.721435546875 331.27593994140625 401.9304504394531 C 333.6880798339844 407.9941101074219 331.8334655761719 405.327392578125 326.138427734375 399.6932067871094 C 318.67572021484375 388.1262512207031 311.24420166015625 373.1578674316406 294.0442199707031 353.7890625 C 288.6108703613281 347.45892333984375 266.5950927734375 327.1014709472656 503.8412170410156 289.59637451171875" stroke-width="0.0" fill="rgb(72, 160, 60)" opacity="0.99973357" stroke="rgb(245, 2, 204)" stroke-opacity="0.8547275" stroke-linecap="round" stroke-linejoin="round"/>
    <path d="M 174.1072540283203 174.9364471435547 C 184.5684051513672 190.35092163085938 189.5379638671875 198.86399841308594 192.7130126953125 205.48414611816406 C 193.8678741455078 205.96702575683594 197.6780242919922 216.8496551513672 200.12742614746094 219.79022216796875 C 198.22975158691406 216.68475341796875 197.3442840576172 215.6172637939453 197.94549560546875 219.5121307373047 C 198.39559936523438 220.70651245117188 198.44834899902344 223.096435546875 197.72772216796875 213.42852783203125 C 197.55511474609375 216.3971405029297 199.40866088867188 217.37252807617188 198.66754150390625 217.12062072753906 C 199.0567169189453 216.45724487304688 197.6631317138672 216.6627960205078 197.5174102783203 215.7884063720703 C 199.4488067626953 218.1356964111328 201.50466918945312 224.71368408203125 201.9679412841797 226.36740112304688 C 203.18722534179688 229.24024963378906 206.00624084472656 234.4957733154297 206.79005432128906 240.32164001464844 C 208.1614990234375 242.85928344726562 209.34344482421875 249.4350128173828 210.7943878173828 252.57701110839844 C 212.1145782470703 256.5215759277344 214.1858367919922 261.2509765625 214.67105102539062 264.1673583984375 C 216.57754516601562 269.81805419921875 217.94924926757812 274.5237121582031 218.64749145507812 276.67572021484375 C 221.1611785888672 283.548828125 222.5165252685547 289.1376647949219 223.33404541015625 293.4642639160156 C 223.8502197265625 296.1079406738281 226.5374298095703 303.8258972167969 227.6748504638672 311.8427429199219 C 227.9248504638672 311.94366455078125 229.26654052734375 318.5885009765625 229.53765869140625 323.44744873046875 C 229.93789672851562 326.73846435546875 230.39138793945312 335.87237548828125 229.22169494628906 343.4165954589844 C 228.9580841064453 345.5209045410156 227.96449279785156 353.393798828125 228.3151397705078 344.3064880371094 C 228.2397003173828 358.375244140625 228.3966522216797 378.2108154296875 228.19345092773438 372.14788818359375 C 227.77281188964844 373.08917236328125 227.47181701660156 388.19317626953125 226.67884826660156 393.6723327636719 C 226.66372680664062 395.4512634277344 224.15487670898438 405.472900390625 223.21441650390625 408.96380615234375 C 222.0375518798828 417.0424499511719 218.557861328125 425.8306884765625 218.35348510742188 427.67413330078125 C 215.72296142578125 435.6524963378906 214.2368927001953 438.98358154296875 213.33628845214844 439.8146667480469 C 210.32403564453125 437.3614196777344 204.9961395263672 433.55413818359375 200.98089599609375 429.1763610839844 C 195.6932373046875 424.24237060546875 191.2216339111328 418.2100830078125 188.89125061035156 411.83319091796875 C 187.48135375976562 407.36328125 185.61427307128906 401.6246337890625 184.46421813964844 391.82513427734375 C 184.69497680664062 391.742919921875 183.447509765625 381.3937683105469 183.17933654785156 377.741943359375 C 183.62620544433594 379.18316650390625 181.47213745117188 368.6485595703125 180.9437255859375 363.8228454589844 C 180.0984344482422 359.0078430175781 180.6915283203125 349.3580322265625 179.77276611328125 355.3941345214844 C 179.64698791503906 348.3607177734375 176.34585571289062 336.3442077636719 176.4564666748047 321.1058349609375 C 176.53814697265625 333.277587890625 176.0791015625 328.0022888183594 176.16439819335938 322.78204345703125 C 180.0830841064453 321.6058654785156 178.065185546875 319.2168884277344 177.8382110595703 325.0070495605469 C 177.68991088867188 320.7297668457031 177.73036193847656 323.5439453125 176.871337890625 321.2940673828125 C 178.6572265625 326.4353942871094 175.17579650878906 319.0107421875 177.52401733398438 323.23162841796875 C 178.38473510742188 323.7720947265625 175.1652069091797 322.90985107421875 175.4999237060547 314.5073547363281 C 174.56492614746094 312.7145080566406 174.91961669921875 303.4624938964844 172.63674926757812 296.2815856933594 C 173.37472534179688 293.11480712890625 171.7064208984375 284.27813720703125 169.46424865722656 275.2373352050781 C 169.8861083984375 277.90142822265625 168.85386657714844 277.73028564453125 169.04669189453125 278.4278564453125 C 175.68359375 278.0752868652344 177.61102294921875 281.6039733886719 178.95645141601562 286.918212890625 C 178.16725158691406 284.248291015625 179.12026977539062 286.3271179199219 177.7823028564453 284.37908935546875 C 180.21510314941406 287.1246337890625 176.37217712402344 282.44390869140625 178.2052001953125 284.660888671875 C 180.67735290527344 287.5913391113281 178.79823303222656 286.4281921386719 177.8458251953125 283.461669921875 C 176.93240356445312 280.3880920410156 173.8670654296875 277.9013977050781 169.56626892089844 278.7888488769531 C 172.35260009765625 279.3629455566406 167.06826782226562 276.4795227050781 168.528564453125 276.7566223144531 C 167.3834686279297 275.9054870605469 168.42398071289062 280.71832275390625 167.56942749023438 274.6246337890625 C 167.54116821289062 282.0223083496094 169.7559051513672 287.7932434082031 170.2888641357422 292.3443908691406 C 170.62850952148438 297.43450927734375 171.69937133789062 304.0663146972656 169.16761779785156 307.94384765625 C 163.50196838378906 311.99908447265625 158.07354736328125 316.3849182128906 151.15342712402344 337.1606750488281 C 135.8914031982422 322.55169677734375 129.8968505859375 320.80072021484375 120.51757049560547 316.9989013671875 C 113.21781921386719 309.7821044921875 105.68769073486328 303.7189636230469 97.83243560791016 295.579345703125 C 90.99165344238281 287.4007568359375 94.72876739501953 280.86773681640625 95.5558853149414 267.29901123046875 C 97.28123474121094 250.9585418701172 101.00650024414062 239.64427185058594 98.81208801269531 223.34469604492188 C 96.48511505126953 211.8185577392578 92.56784057617188 198.15798950195312 89.46623992919922 182.9512176513672 C 82.31432342529297 169.65904235839844 88.15076446533203 178.08349609375 95.21499633789062 188.002685546875 C 102.80086517333984 197.80984497070312 112.15831756591797 207.32374572753906 123.47688293457031 216.4208526611328 C 134.12841796875 225.2150115966797 146.89588928222656 231.4068603515625 157.53929138183594 237.06448364257812 C 167.08311462402344 241.83584594726562 171.7330780029297 245.70578002929688 171.0980682373047 245.21109008789062 C 172.05203247070312 242.25564575195312 170.87295532226562 245.66555786132812 170.81260681152344 245.0345001220703 C 161.14598083496094 237.3586883544922 144.51490783691406 231.62362670898438 129.1138153076172 220.74496459960938 C 110.82066345214844 207.18968200683594 92.80423736572266 188.28842163085938 84.54777526855469 170.72747802734375 C 76.99093627929688 134.99644470214844 78.27825164794922 109.3079605102539 92.49761962890625 84.26053619384766 C 101.62190246582031 115.96820068359375 126.06029510498047 129.59202575683594 174.1072540283203 174.9364471435547" stroke-width="0.0" fill="rgb(72, 160, 62)" opacity="0.99943835" stroke="rgb(58, 18, 58)" stroke-opacity="0.30739155" stroke-linecap="round" stroke-linejoin="round"/>
    <path d="M 456.24151611328125 143.28240966796875 C 453.3205871582031 147.46478271484375 450.3135986328125 151.88177490234375 443.86993408203125 150.51165771484375 C 445.0843811035156 157.9976348876953 443.6202087402344 164.0684356689453 439.95208740234375 165.86221313476562 C 436.50634765625 164.95877075195312 436.0684509277344 163.1939239501953 439.7917785644531 165.1146697998047 C 434.1513671875 166.0657196044922 434.35400390625 161.2413787841797 439.43560791015625 165.9643096923828 C 442.9935302734375 165.3482208251953 444.2837829589844 158.8527069091797 446.5423278808594 152.95733642578125 C 452.15106201171875 152.0689239501953 457.7215270996094 149.83351135253906 462.5073547363281 147.6413116455078 C 466.49517822265625 146.88902282714844 469.9650573730469 147.24940490722656 472.0964660644531 146.6194610595703 C 473.4145812988281 151.9647674560547 470.16241455078125 156.7472686767578 467.5146484375 164.8438262939453 C 464.82293701171875 173.65040588378906 460.90496826171875 180.9056854248047 458.5479431152344 186.55296325683594 C 454.91900634765625 194.1619873046875 451.1012268066406 200.4483184814453 448.6927185058594 204.3407440185547 C 447.1356506347656 206.98931884765625 446.37506103515625 210.6173095703125 444.1269836425781 213.06761169433594 C 442.5414123535156 215.25637817382812 440.667236328125 218.2643280029297 441.0181579589844 218.17262268066406 C 437.6438293457031 221.56320190429688 434.62109375 225.20494079589844 433.96624755859375 226.18287658691406 C 431.641357421875 229.79550170898438 428.5522155761719 235.7486572265625 426.1119689941406 239.44236755371094 C 423.9893798828125 242.54888916015625 421.31866455078125 247.2684326171875 417.5592956542969 251.2446746826172 C 417.79998779296875 252.88180541992188 414.8193664550781 254.2861328125 413.02154541015625 258.3002624511719 C 414.447021484375 256.3272705078125 412.7678527832031 256.9335632324219 411.1057434082031 260.3831481933594 C 410.725830078125 260.84136962890625 406.95819091796875 264.8753967285156 405.5683898925781 265.6134338378906 C 404.7454528808594 266.46923828125 401.2397155761719 269.5175476074219 400.2656555175781 271.4687194824219 C 398.7447509765625 272.6352844238281 395.91412353515625 276.6437072753906 392.517333984375 278.2972717285156 C 390.80450439453125 280.5285949707031 388.123779296875 282.2396240234375 389.79022216796875 280.7521667480469 C 389.4595642089844 280.7603759765625 385.5821533203125 284.1352233886719 385.3863525390625 284.6959533691406 C 384.83056640625 284.9587707519531 381.1598205566406 288.00030517578125 377.9360656738281 290.1358337402344 C 377.7342224121094 290.82000732421875 373.51104736328125 293.06536865234375 371.3702392578125 294.3927001953125 C 370.70989990234375 295.152099609375 366.2336120605469 297.3389587402344 365.94091796875 297.11663818359375 C 363.6014709472656 298.5185852050781 356.6341857910156 301.4468688964844 355.248779296875 301.9408264160156 C 360.6092529296875 298.6168212890625 354.1206359863281 302.91229248046875 351.73895263671875 303.0958251953125 C 347.9630432128906 304.4478759765625 343.701416015625 306.1868896484375 344.4571838378906 305.8222351074219 C 341.78143310546875 306.53912353515625 333.63861083984375 308.55999755859375 331.43377685546875 308.86517333984375 C 326.9703369140625 310.10125732421875 320.896240234375 311.3377380371094 314.48876953125 312.1579284667969 C 307.8295593261719 312.25115966796875 304.0562744140625 312.0773010253906 301.2883605957031 310.85052490234375 C 297.4622497558594 310.8062438964844 293.5465087890625 309.1062927246094 288.6986389160156 307.72967529296875 C 283.6343994140625 305.9727783203125 282.03094482421875 304.08953857421875 280.1711730957031 303.9000549316406 C 281.4268798828125 302.3780822753906 286.1382141113281 300.0346374511719 292.2315673828125 295.0367736816406 C 295.9100646972656 292.03515625 300.3212585449219 286.2965393066406 305.23699951171875 282.2955627441406 C 309.6181945800781 278.6507568359375 314.7754821777344 274.3381042480469 319.6431884765625 269.01531982421875 C 322.4498291015625 264.633544921875 328.0133972167969 260.3939208984375 329.6814270019531 258.53045654296875 C 331.1204833984375 256.1947021484375 335.860107421875 249.67677307128906 336.3245849609375 250.87271118164062 C 334.3231201171875 252.9168243408203 337.36572265625 247.08718872070312 333.6399230957031 254.27174377441406 C 338.21331787109375 249.1320037841797 339.7648620605469 245.1696319580078 341.86712646484375 244.7237548828125 C 338.555908203125 249.25723266601562 338.2044982910156 245.62973022460938 340.48028564453125 247.1451416015625 C 336.9773254394531 247.2920684814453 340.5323791503906 245.7666473388672 343.20611572265625 241.5168914794922 C 344.3562316894531 241.22213745117188 347.1786804199219 237.54002380371094 349.9288024902344 233.80613708496094 C 351.8647766113281 232.01913452148438 354.2879638671875 229.0491943359375 357.1136779785156 224.48692321777344 C 359.74969482421875 219.49781799316406 363.484375 215.2198486328125 365.955078125 211.37171936035156 C 369.31097412109375 206.9136505126953 372.4725036621094 202.1575927734375 374.67205810546875 199.69459533691406 C 377.5119934082031 195.4093780517578 379.6698913574219 191.3780517578125 380.29071044921875 193.01611328125 C 379.85882568359375 191.2716064453125 384.20855712890625 187.32130432128906 383.1856994628906 184.87747192382812 C 382.3660888671875 189.58941650390625 386.0367431640625 192.61904907226562 389.25396728515625 194.6016082763672 C 392.7583923339844 196.43112182617188 397.9486389160156 198.79690551757812 402.6231994628906 200.30978393554688 C 407.2486267089844 201.9127960205078 412.3082275390625 203.43190002441406 417.3748474121094 205.47727966308594 C 415.6302185058594 204.66343688964844 415.9338684082031 205.26016235351562 416.94195556640625 205.2136993408203 C 417.8955993652344 206.13832092285156 414.4465637207031 204.17471313476562 409.6802062988281 202.916259765625 C 404.94976806640625 201.22926330566406 398.9465637207031 199.11639404296875 393.7301330566406 196.72608947753906 C 387.5156555175781 194.002197265625 384.0126037597656 191.53468322753906 382.9229736328125 186.9267120361328 C 384.9617004394531 185.45530700683594 386.2352600097656 183.02597045898438 389.0881042480469 177.62496948242188 C 389.88623046875 176.7647247314453 392.49542236328125 173.79296875 398.07269287109375 171.80126953125 C 400.5418701171875 168.2640838623047 403.19476318359375 164.76303100585938 405.6377868652344 162.17831420898438 C 407.7924499511719 159.0631561279297 409.762939453125 155.87969970703125 410.9673156738281 152.85671997070312 C 412.00640869140625 149.80845642089844 413.5621032714844 146.58375549316406 456.24151611328125 143.28240966796875" stroke-width="0.0" fill="rgb(72, 161, 63)" opacity="0.9993855" stroke="rgb(43, 146, 126)" stroke-opacity="0.0780347" stroke-linecap="round" stroke-linejoin="round"/>
    <path d="M 507.326416015625 50.281864166259766 C 508.0125427246094 53.842132568359375 501.7802429199219 60.516014099121094 499.38372802734375 69.19255065917969 C 497.9630432128906 71.92839050292969 497.3893737792969 78.37356567382812 496.16705322265625 80.0737075805664 C 496.27191162109375 80.21501159667969 495.38299560546875 85.03662109375 493.6235046386719 91.32565307617188 C 493.2235412597656 95.56531524658203 491.00189208984375 101.38996887207031 489.59100341796875 104.86247253417969 C 487.8700866699219 108.05884552001953 486.3414611816406 114.21417236328125 484.5870056152344 116.14491271972656 C 486.7642517089844 113.16144561767578 483.116455078125 111.73396301269531 481.4336853027344 110.90716552734375 C 484.65728759765625 111.47518920898438 481.8247375488281 111.82962799072266 484.5011901855469 111.8416519165039 C 482.1470642089844 111.74962615966797 483.9179382324219 111.64331817626953 481.5677490234375 111.0816421508789 C 481.94427490234375 110.70280456542969 485.10284423828125 111.90594482421875 485.5140380859375 114.84825897216797 C 485.7940979003906 110.77066802978516 484.73907470703125 117.61956024169922 482.29180908203125 123.61759185791016 C 480.89251708984375 129.6527099609375 477.8782653808594 134.65869140625 476.2943420410156 140.11874389648438 C 475.208740234375 143.2427520751953 473.72076416015625 149.37608337402344 472.5083923339844 150.6697235107422 C 472.0896911621094 153.66934204101562 471.30352783203125 155.5146026611328 466.800537109375 154.41653442382812 C 463.68853759765625 154.49261474609375 460.2940979003906 154.5773162841797 457.0750732421875 154.55384826660156 C 453.9207458496094 155.7461395263672 452.21099853515625 161.41168212890625 450.1407470703125 172.42507934570312 C 433.89276123046875 171.13099670410156 432.8365783691406 165.57366943359375 432.751220703125 162.93959045410156 C 431.8396911621094 163.7528076171875 428.10205078125 166.2561492919922 424.6821594238281 168.83984375 C 421.0665588378906 171.41009521484375 417.2141418457031 173.63665771484375 413.41119384765625 175.4622802734375 C 409.3770751953125 176.76412963867188 405.37738037109375 177.6593780517578 401.7016296386719 178.38351440429688 C 397.99658203125 178.9521484375 394.2047119140625 179.00894165039062 391.1003723144531 179.22079467773438 C 390.5809020996094 180.71676635742188 390.3607177734375 181.0035400390625 388.8418273925781 178.01060485839844 C 384.6527099609375 179.5985565185547 381.53753662109375 184.1981964111328 380.8077697753906 186.49745178222656 C 382.34954833984375 183.64097595214844 379.61651611328125 187.6356201171875 380.8221740722656 185.90380859375 C 380.5155334472656 186.4742889404297 377.2968444824219 191.1022491455078 371.984375 197.81103515625 C 366.1726989746094 205.27426147460938 357.74456787109375 216.3043212890625 347.566162109375 228.8260498046875 C 334.8878479003906 244.97959899902344 322.5041198730469 259.1197509765625 308.7630920410156 269.634521484375 C 305.0073547363281 267.0907897949219 305.3577575683594 258.192138671875 313.2767028808594 244.0567626953125 C 320.6308288574219 232.29273986816406 326.17388916015625 221.03330993652344 329.8787536621094 210.15985107421875 C 332.2370910644531 203.7306671142578 335.07293701171875 192.58724975585938 336.531494140625 190.54977416992188 C 333.034912109375 193.34292602539062 335.6521911621094 190.5093231201172 334.9625244140625 194.23056030273438 C 336.09417724609375 188.18116760253906 337.7942199707031 187.0425262451172 336.46234130859375 189.66714477539062 C 339.7048645019531 183.55775451660156 342.0733642578125 177.50083923339844 343.41754150390625 175.06907653808594 C 345.3727722167969 171.3063201904297 347.8791809082031 166.07437133789062 348.6012268066406 164.88455200195312 C 349.3809509277344 163.6507110595703 350.9683837890625 161.40420532226562 350.99884033203125 159.4932098388672 C 353.6618347167969 156.67922973632812 356.4449768066406 153.03648376464844 357.9556884765625 151.49166870117188 C 359.069580078125 149.97032165527344 362.77508544921875 145.8904571533203 365.1642761230469 142.77484130859375 C 360.19049072265625 147.44569396972656 361.7914733886719 147.5713348388672 360.2897644042969 147.17213439941406 C 362.3725891113281 146.5996551513672 361.89471435546875 145.30812072753906 361.5284118652344 148.19676208496094 C 360.9002685546875 145.6573486328125 364.2348937988281 145.07025146484375 363.7073974609375 143.84091186523438 C 365.43310546875 141.64349365234375 363.65032958984375 144.6886444091797 363.3685302734375 143.30520629882812 C 366.7009582519531 140.78939819335938 369.8426208496094 137.24334716796875 373.478759765625 133.88482666015625 C 377.9306640625 130.8126983642578 381.1939697265625 126.62884521484375 382.29180908203125 127.06555938720703 C 386.77044677734375 122.68728637695312 390.87725830078125 119.1372299194336 390.029541015625 119.14612579345703 C 387.9166259765625 119.72344207763672 389.5494689941406 120.78727722167969 393.7840576171875 116.23294067382812 C 388.1559143066406 118.27923583984375 397.6434631347656 117.74737548828125 392.6396789550781 117.99168395996094 C 391.0781555175781 117.58013153076172 395.0498352050781 115.19759368896484 391.7010498046875 118.79718017578125 C 392.06072998046875 118.37649536132812 395.07012939453125 115.00682067871094 398.66253662109375 111.52557373046875 C 395.4247131347656 114.90764617919922 398.5789489746094 112.67891693115234 401.6565856933594 109.83895111083984 C 404.0013122558594 107.75579071044922 407.9377136230469 104.01849365234375 409.8499450683594 102.19584655761719 C 411.1319885253906 101.00090026855469 418.47100830078125 95.57644653320312 419.8648376464844 95.13105010986328 C 417.2644958496094 97.59302520751953 422.1742248535156 93.51487731933594 421.449462890625 95.14204406738281 C 420.81903076171875 92.07286071777344 425.0715026855469 92.05780792236328 426.34564208984375 91.99641418457031 C 420.35296630859375 92.58319091796875 427.1405944824219 91.03425598144531 423.8163757324219 91.36540222167969 C 423.83355712890625 92.42396545410156 426.8426208496094 87.73790740966797 424.5132751464844 91.86061096191406 C 428.2575988769531 88.0029296875 433.4759216308594 86.21707153320312 432.4192199707031 86.36041259765625 C 439.7867736816406 84.10098266601562 444.27264404296875 81.96220397949219 438.4610900878906 84.30443572998047 C 441.7068786621094 82.77104949951172 447.5552062988281 79.26366424560547 452.2306213378906 76.80818176269531 C 449.0656433105469 78.82331848144531 452.9714660644531 77.2566909790039 455.38720703125 75.33503723144531 C 461.0885009765625 73.1849136352539 467.0859069824219 69.76337432861328 477.50189208984375 67.8746566772461 C 488.0849304199219 64.32437896728516 484.5655822753906 69.1515121459961 507.326416015625 50.281864166259766" stroke-width="0.0" fill="rgb(72, 161, 62)" opacity="0.9992597" stroke="rgb(30, 58, 93)" stroke-opacity="0.06598292" stroke-linecap="round" stroke-linejoin="round"/>
    <path d="M 171.45814514160156 298.7159729003906 C 171.1855010986328 302.2706298828125 172.0086669921875 308.9165344238281 172.8411407470703 310.1701354980469 C 171.55587768554688 305.72967529296875 172.4133758544922 307.8173522949219 172.00930786132812 312.0855712890625 C 173.14064025878906 310.512451171875 173.15614318847656 310.4622497558594 172.2823486328125 311.40081787109375 C 171.49119567871094 302.12518310546875 172.60940551757812 317.0875549316406 173.30862426757812 332.29486083984375 C 173.78895568847656 324.06671142578125 171.7547607421875 328.7558898925781 173.41009521484375 329.9630126953125 C 172.27493286132812 328.5371398925781 173.3615264892578 334.7791442871094 173.33168029785156 331.36480712890625 C 173.00811767578125 324.6577453613281 172.1294708251953 330.90655517578125 173.8171844482422 337.99737548828125 C 172.04257202148438 327.5719909667969 174.2559814453125 331.00726318359375 173.34776306152344 342.5517578125 C 173.09027099609375 338.2010498046875 175.00889587402344 344.4707946777344 174.2146453857422 344.5019226074219 C 174.0521697998047 341.25970458984375 175.45663452148438 347.83087158203125 174.26060485839844 341.65008544921875 C 174.92330932617188 343.2300109863281 172.88819885253906 349.1852722167969 175.6805419921875 362.2391052246094 C 173.04591369628906 351.9587097167969 175.44911193847656 353.34893798828125 176.5768280029297 362.1212158203125 C 173.21453857421875 346.953125 175.3500518798828 359.29644775390625 175.96780395507812 368.9107666015625 C 175.87484741210938 362.7695617675781 176.83314514160156 367.94281005859375 176.15057373046875 365.4172668457031 C 175.98768615722656 363.483154296875 176.29678344726562 369.68865966796875 177.78677368164062 378.88079833984375 C 178.3374786376953 384.85357666015625 180.4075164794922 391.261962890625 181.09774780273438 398.9609680175781 C 181.5543670654297 402.38067626953125 183.37925720214844 407.2168884277344 182.89938354492188 408.037353515625 C 182.25592041015625 406.0749816894531 184.6381378173828 407.3775939941406 182.25668334960938 408.0992736816406 C 176.0391387939453 402.689697265625 170.9703369140625 400.48333740234375 168.19468688964844 399.2369689941406 C 164.6250762939453 397.721435546875 160.16700744628906 394.1659240722656 161.0550537109375 394.4932861328125 C 162.65521240234375 394.56109619140625 155.8230438232422 392.8427734375 156.87033081054688 390.5032653808594 C 158.3867645263672 392.3561096191406 154.05572509765625 389.7008056640625 156.61302185058594 391.7100524902344 C 157.5103302001953 392.51336669921875 150.72409057617188 391.032958984375 156.2252197265625 391.9700012207031 C 152.7028350830078 388.8193054199219 147.80096435546875 385.5217590332031 147.71900939941406 385.36944580078125 C 145.2186279296875 383.5978088378906 142.00050354003906 380.5019226074219 140.21240234375 379.0927429199219 C 137.52198791503906 377.40765380859375 134.3425750732422 374.4620666503906 133.8257598876953 373.1571044921875 C 132.01832580566406 372.3885192871094 129.22967529296875 368.991455078125 128.74111938476562 368.4613342285156 C 126.55687713623047 367.19158935546875 123.3284912109375 363.7345275878906 123.06523895263672 362.87030029296875 C 123.19172668457031 363.9092712402344 119.849609375 359.4414367675781 118.99787139892578 358.5159606933594 C 119.07421875 359.1875915527344 116.08545684814453 354.8904724121094 114.9046401977539 353.344482421875 C 113.2632827758789 351.7765808105469 108.89471435546875 346.774169921875 105.4314956665039 342.8054504394531 C 102.99856567382812 342.8211364746094 105.864013671875 337.8964538574219 105.2881088256836 335.38720703125 C 105.4121322631836 333.0013427734375 107.08036041259766 330.8827819824219 109.68135070800781 329.2588806152344 C 113.05868530273438 328.5037536621094 116.16012573242188 328.2236328125 119.25602722167969 328.2451477050781 C 121.92849731445312 328.8871765136719 123.94866943359375 329.7025146484375 125.35091400146484 330.76837158203125 C 126.19241333007812 331.79058837890625 126.4333724975586 332.3179626464844 126.18019104003906 332.4312744140625 C 125.72480010986328 331.85833740234375 125.07669067382812 330.48663330078125 124.33030700683594 328.4233093261719 C 124.21725463867188 325.88238525390625 124.56462860107422 323.0389709472656 123.74977111816406 319.16546630859375 C 125.5756607055664 314.8459777832031 127.72682189941406 313.6600341796875 131.93128967285156 313.57342529296875 C 136.00112915039062 313.1701965332031 139.6760711669922 313.1907043457031 143.84664916992188 313.3697814941406 C 149.555419921875 311.3614807128906 152.2209014892578 313.3808898925781 149.98171997070312 320.3714904785156 C 152.8523712158203 323.57879638671875 151.5762176513672 321.7866516113281 150.09210205078125 326.4322204589844 C 150.63702392578125 335.44293212890625 150.4661865234375 338.36474609375 150.02377319335938 342.5302429199219 C 147.4940948486328 344.21905517578125 146.91021728515625 346.6768493652344 147.00555419921875 350.5123291015625 C 144.50531005859375 349.7142639160156 139.29605102539062 350.2636413574219 141.04653930664062 349.90386962890625 C 138.6348876953125 351.4866027832031 139.71353149414062 350.67291259765625 141.4186553955078 350.4180603027344 C 141.0575714111328 350.6397399902344 138.13226318359375 350.8958740234375 143.05514526367188 350.4336853027344 C 140.02542114257812 350.4556884765625 142.85838317871094 351.44073486328125 143.79576110839844 349.21051025390625 C 141.90151977539062 352.2848815917969 146.7259063720703 349.716796875 147.17066955566406 350.8824462890625 C 146.37046813964844 350.5825500488281 147.99600219726562 349.8860168457031 147.0355224609375 350.2768859863281 C 147.1814727783203 351.2530822753906 146.72715759277344 344.66949462890625 148.96408081054688 343.79644775390625 C 148.11727905273438 343.6138610839844 149.1207733154297 343.5294189453125 150.19775390625 342.2977294921875 C 149.57064819335938 343.9482116699219 150.91835021972656 338.0960693359375 150.41107177734375 332.6102600097656 C 151.69699096679688 335.9158630371094 149.7686309814453 334.3979187011719 149.6597900390625 334.6372985839844 C 151.51339721679688 335.3140869140625 150.0852813720703 332.89044189453125 150.95297241210938 324.5660095214844 C 146.73568725585938 327.9342956542969 148.05441284179688 328.301513671875 148.16563415527344 328.8846435546875 C 148.05654907226562 326.955322265625 150.58070373535156 323.8401794433594 152.3224639892578 324.6755065917969 C 153.8912353515625 320.8854675292969 153.03558349609375 316.8199157714844 148.38511657714844 317.0409851074219 C 147.78025817871094 314.6689758300781 146.20196533203125 311.8062744140625 145.01499938964844 308.50286865234375 C 143.80398559570312 305.10833740234375 142.73291015625 301.4983215332031 171.45814514160156 298.7159729003906" stroke-width="0.0" fill="rgb(72, 160, 63)" opacity="0.9995417" stroke="rgb(154, 45, 66)" stroke-opacity="0.23115832" stroke-linecap="round" stroke-linejoin="round"/>
    <path d="M 270.013427734375 16.563838958740234 C 270.9437561035156 18.347740173339844 271.99774169921875 19.973560333251953 272.9993591308594 21.411989212036133 C 273.8760986328125 22.745433807373047 274.71600341796875 24.211915969848633 275.5042724609375 25.513341903686523 C 276.223388671875 26.625202178955078 277.1979064941406 27.50433349609375 278.1217346191406 28.481843948364258 C 278.82977294921875 29.53795623779297 279.4085693359375 30.686351776123047 280.0960998535156 31.78411865234375 C 280.8850402832031 32.83632278442383 281.5555725097656 33.851783752441406 282.1982727050781 34.788719177246094 C 282.924072265625 35.72431182861328 283.5167236328125 36.64995193481445 283.92608642578125 37.6304931640625 C 284.3889465332031 38.58338165283203 284.7797546386719 39.48604965209961 285.243408203125 40.0227165222168 C 285.5118408203125 40.63181686401367 285.7611083984375 41.273277282714844 286.1030578613281 41.85648727416992 C 286.6871337890625 42.40481185913086 287.5415954589844 43.098079681396484 288.2539978027344 44.11780548095703 C 288.8832092285156 45.61835861206055 289.8287048339844 47.33712387084961 291.18463134765625 48.97871017456055 C 292.6154479980469 51.00080108642578 293.9208679199219 53.66374969482422 295.21417236328125 56.95048141479492 C 296.638427734375 60.59449768066406 298.50604248046875 64.40682983398438 300.5780334472656 68.60076141357422 C 302.61920166015625 73.19551086425781 304.59259033203125 78.10086822509766 306.4287414550781 83.22648620605469 C 308.0669860839844 88.63005828857422 309.36444091796875 94.3716812133789 310.4552917480469 100.3547592163086 C 312.03564453125 106.15404510498047 313.7709655761719 111.95391082763672 315.401611328125 118.09456634521484 C 316.67608642578125 124.45606231689453 317.8812561035156 130.84033203125 319.27490234375 137.1248016357422 C 320.4372253417969 143.4403533935547 320.9870300292969 149.88406372070312 321.01904296875 156.50758361816406 C 320.66619873046875 163.11126708984375 320.0539855957031 169.4693145751953 319.1117858886719 175.73101806640625 C 318.3918151855469 182.12112426757812 318.0743408203125 188.28160095214844 317.1214599609375 194.30502319335938 C 316.08551025390625 200.30923461914062 314.7612609863281 206.08218383789062 312.5726318359375 211.4409942626953 C 310.0365905761719 216.79319763183594 306.7332458496094 221.72027587890625 302.7143859863281 226.2772674560547 C 298.0321350097656 230.2985382080078 292.82135009765625 233.71102905273438 287.32061767578125 236.4335174560547 C 281.6771240234375 238.22592163085938 275.88623046875 238.9890594482422 270.46197509765625 238.9715576171875 C 265.72406005859375 239.2928924560547 262.19439697265625 238.98382568359375 260.3187561035156 237.5005340576172 C 260.15167236328125 234.1139678955078 260.81494140625 229.0455780029297 261.6595764160156 222.8225860595703 C 262.6569519042969 215.73666381835938 263.5461120605469 208.1154327392578 264.38250732421875 200.06285095214844 C 264.63360595703125 192.10910034179688 265.1736145019531 184.56626892089844 265.285400390625 177.3235626220703 C 265.86578369140625 170.3095703125 266.5705871582031 163.83935546875 266.8282165527344 157.66146850585938 C 267.23638916015625 151.58432006835938 267.4069519042969 145.59510803222656 267.4768981933594 139.69503784179688 C 267.5400390625 133.66908264160156 267.6624450683594 127.54148864746094 267.76220703125 121.26285552978516 C 267.7023010253906 114.79833221435547 267.7586669921875 108.25279998779297 267.5033264160156 101.73273468017578 C 266.767333984375 95.39562225341797 266.168701171875 89.4037857055664 265.85992431640625 84.0001220703125 C 265.5653381347656 79.27457427978516 265.4939880371094 75.585693359375 265.257568359375 73.29049682617188 C 264.6002502441406 72.69315338134766 263.8726501464844 73.79978942871094 263.3589782714844 76.39649200439453 C 262.9969787597656 80.30757141113281 262.6236572265625 85.2728271484375 262.47802734375 90.95014190673828 C 262.94586181640625 97.03096771240234 263.3741149902344 103.35748291015625 263.5819396972656 109.88965606689453 C 263.5908203125 116.52494812011719 263.430908203125 123.12060546875 263.2060546875 129.5633544921875 C 262.65362548828125 135.9542694091797 261.9058837890625 142.38259887695312 261.5434875488281 148.88197326660156 C 260.9891357421875 155.53028869628906 260.1601257324219 162.45339965820312 259.415771484375 169.85934448242188 C 258.8026428222656 177.59457397460938 257.8241271972656 185.71469116210938 257.21490478515625 194.15704345703125 C 256.8186950683594 202.73944091796875 256.5021667480469 211.08651733398438 256.2740173339844 218.90855407714844 C 255.9143829345703 225.90476989746094 255.74331665039062 231.4803466796875 255.13235473632812 235.12240600585938 C 253.3430938720703 236.33839416503906 250.18441772460938 235.5210418701172 245.80076599121094 233.81455993652344 C 240.6165771484375 231.2437744140625 235.03012084960938 228.01402282714844 229.53990173339844 224.0795440673828 C 224.45147705078125 219.46609497070312 220.08229064941406 214.3933563232422 216.6514434814453 208.91766357421875 C 213.68264770507812 203.43963623046875 211.3173370361328 197.6549530029297 209.35142517089844 191.88905334472656 C 207.651123046875 186.3586883544922 206.06639099121094 180.93699645996094 204.6212921142578 175.39166259765625 C 203.4630126953125 169.8062286376953 202.64756774902344 164.51783752441406 201.86404418945312 159.68115234375 C 201.2492218017578 154.93006896972656 201.5033416748047 150.07400512695312 201.7324676513672 145.34376525878906 C 202.44761657714844 140.76731872558594 202.66195678710938 136.0406494140625 202.87420654296875 131.048095703125 C 203.59300231933594 126.14937591552734 204.78433227539062 121.27549743652344 206.0352783203125 116.36183166503906 C 207.54808044433594 111.52000427246094 209.30300903320312 106.83085632324219 211.6268768310547 102.28671264648438 C 213.6208038330078 97.45858764648438 215.41928100585938 92.85275268554688 217.16065979003906 88.22157287597656 C 219.07049560546875 83.73467254638672 221.22940063476562 79.32063293457031 223.3524627685547 75.02283477783203 C 225.62088012695312 71.00341796875 228.01519775390625 67.19802856445312 230.85299682617188 63.796791076660156 C 233.99456787109375 60.70421600341797 237.17979431152344 57.928016662597656 240.28387451171875 55.23105239868164 C 243.18382263183594 52.690155029296875 246.14938354492188 50.49861145019531 249.19300842285156 48.36680221557617 C 251.72239685058594 46.005855560302734 253.9912872314453 43.6515007019043 256.1321105957031 41.265708923339844 C 258.01763916015625 38.74599838256836 259.5511474609375 35.958621978759766 260.7656555175781 32.93948745727539 C 261.67181396484375 29.711563110351562 262.4952087402344 26.40802001953125 270.013427734375 16.563838958740234" stroke-width="0.0" fill="rgb(74, 163, 63)" opacity="0.9996594" stroke="rgb(148, 165, 217)" stroke-opacity="0.85870004" stroke-linecap="round" stroke-linejoin="round"/>
    <path d="M 85.99323272705078 73.56513214111328 C 87.25704193115234 75.00112915039062 88.55533599853516 76.23103332519531 89.8325424194336 77.66112518310547 C 91.06635284423828 79.53669738769531 92.24189758300781 81.68423461914062 93.1261215209961 83.45284271240234 C 93.79337310791016 84.78974151611328 94.44233703613281 86.02140808105469 94.98689270019531 87.13479614257812 C 95.3666763305664 87.98390197753906 95.72815704345703 88.74111938476562 96.20756530761719 89.50235748291016 C 96.59394073486328 90.13558197021484 96.90921783447266 90.72885131835938 97.28486633300781 91.3013916015625 C 97.57410430908203 91.85551452636719 97.96471405029297 92.5899429321289 98.50257110595703 93.5102767944336 C 99.21321105957031 94.33956146240234 99.90670776367188 95.3729248046875 100.58194732666016 96.74462890625 C 101.38258361816406 98.36260223388672 102.40934753417969 100.2995376586914 103.66027069091797 102.31657409667969 C 105.21807098388672 104.51461791992188 106.86894989013672 106.86717987060547 108.70634460449219 109.32762908935547 C 110.45308685302734 111.75862121582031 112.03067016601562 113.83033752441406 113.25139617919922 115.81401062011719 C 113.91212463378906 117.46218872070312 113.94231414794922 118.44210052490234 113.3108139038086 118.86956024169922 C 111.97090911865234 118.66471862792969 110.14128875732422 117.78739929199219 107.99274444580078 116.44082641601562 C 105.6404037475586 114.88097381591797 103.1462173461914 113.21569061279297 100.60456848144531 111.42410278320312 C 98.15453338623047 109.6139907836914 95.89326477050781 108.03961944580078 93.80586242675781 106.82954406738281 C 91.88301086425781 105.77462768554688 90.17121124267578 104.88317108154297 88.6951675415039 104.27143096923828 C 87.4176254272461 103.90283966064453 86.29688262939453 103.54925537109375 85.44083404541016 103.07147216796875 C 84.91284942626953 102.40835571289062 84.5751724243164 101.52816009521484 84.49351501464844 100.54627990722656 C 84.76065826416016 99.50247955322266 85.31128692626953 98.36274719238281 86.20311737060547 97.36174011230469 C 87.19143676757812 96.86970520019531 87.18831634521484 96.40618896484375 86.60358428955078 96.03742218017578 C 85.87300872802734 95.54928588867188 85.3440933227539 95.13158416748047 85.07330322265625 94.7372817993164 C 85.48764038085938 94.62549591064453 85.89256286621094 94.70620727539062 86.11482238769531 94.85536193847656 C 86.1903076171875 95.0267105102539 86.14747619628906 95.142578125 85.96122741699219 95.0357437133789 C 85.7873764038086 94.64583587646484 85.60967254638672 93.86490631103516 85.55901336669922 92.68649291992188 C 85.63914489746094 91.1352310180664 85.63804626464844 89.16411590576172 85.3514404296875 86.86437225341797 C 84.7247085571289 84.25916290283203 83.99658203125 81.48004150390625 83.18958282470703 78.48298645019531 C 82.3577880859375 75.32421875 81.0451431274414 72.08927917480469 85.99323272705078 73.56513214111328" stroke-width="0.0" fill="rgb(74, 165, 66)" opacity="0.9994554" stroke="rgb(16, 105, 97)" stroke-opacity="0.406561" stroke-linecap="round" stroke-linejoin="round"/>
    <path d="M 267.1103820800781 28.674394607543945 C 267.0368957519531 30.08167839050293 266.95745849609375 31.488479614257812 266.8720703125 32.89059829711914 C 266.7873229980469 34.274654388427734 266.7032165527344 35.62668228149414 266.6143493652344 36.941253662109375 C 266.5138854980469 38.21189498901367 266.39947509765625 39.428863525390625 266.26708984375 40.58325958251953 C 266.1067199707031 41.672698974609375 265.9119567871094 42.69316864013672 265.6916198730469 43.64265441894531 C 265.433837890625 44.529239654541016 265.0938720703125 45.36545181274414 264.66326904296875 46.129539489746094 C 264.15960693359375 46.8312873840332 263.5717468261719 47.504329681396484 262.8821716308594 48.14893341064453 C 262.0603332519531 48.73131561279297 261.0849609375 49.23488998413086 259.9992980957031 49.631717681884766 C 258.8805236816406 49.96089172363281 257.7621765136719 50.256412506103516 256.63006591796875 50.44142150878906 C 255.4654083251953 50.45539474487305 254.32278442382812 50.32073211669922 253.28578186035156 50.08538055419922 C 252.3949432373047 49.75542068481445 251.68031311035156 49.340999603271484 251.18873596191406 48.849693298339844 C 250.9584503173828 48.253814697265625 250.9866485595703 47.57746505737305 251.27020263671875 46.78357696533203 C 251.6280517578125 45.840145111083984 252.11227416992188 44.84027862548828 252.70199584960938 43.815956115722656 C 253.47247314453125 42.79629135131836 254.5081329345703 41.76692199707031 255.7313690185547 40.86268997192383 C 256.3786926269531 39.72928237915039 257.08575439453125 38.38184356689453 257.7688293457031 37.050662994384766 C 258.37933349609375 35.85074996948242 259.01470947265625 34.727046966552734 259.75079345703125 33.69342803955078 C 260.5969543457031 32.705963134765625 261.3671569824219 31.80344581604004 262.06585693359375 30.859277725219727 C 262.6738586425781 29.795501708984375 263.222900390625 28.621248245239258 267.1103820800781 28.674394607543945" stroke-width="0.0" fill="rgb(77, 167, 65)" opacity="0.9997242" stroke="rgb(19, 88, 134)" stroke-opacity="0.3265705" stroke-linecap="round" stroke-linejoin="round"/>
    <path d="M 269.5224609375 -1.831156849861145 C 269.5629577636719 0.045380838215351105 269.55511474609375 1.8743351697921753 269.50811767578125 3.5640006065368652 C 269.5011291503906 5.1364850997924805 269.5945129394531 6.7252631187438965 269.6026611328125 8.267032623291016 C 269.4865417480469 9.64631175994873 269.4246826171875 10.845002174377441 269.5145568847656 11.804034233093262 C 269.57928466796875 12.499896049499512 269.793701171875 13.076114654541016 270.2001647949219 13.564108848571777 C 270.6028137207031 14.033492088317871 270.8473815917969 14.603811264038086 270.9407958984375 15.316608428955078 C 271.0298767089844 16.05925941467285 271.2263488769531 16.86728858947754 271.4377136230469 17.756877899169922 C 271.6114501953125 18.76197624206543 271.69378662109375 19.844554901123047 271.5955505371094 20.998933792114258 C 271.3524169921875 22.19852066040039 270.96514892578125 23.413127899169922 270.4281005859375 24.60746192932129 C 269.7976379394531 25.74786376953125 269.1053771972656 26.79074478149414 268.35626220703125 27.716018676757812 C 267.5543518066406 28.49640655517578 266.737060546875 29.089088439941406 265.9582214355469 29.453683853149414 C 265.2611999511719 29.563865661621094 264.6526794433594 29.39889144897461 264.121826171875 28.954879760742188 C 263.6893005371094 28.255189895629883 263.3964538574219 27.31640625 263.27691650390625 26.136760711669922 C 263.31927490234375 24.735820770263672 263.3927307128906 23.15021324157715 263.4237976074219 21.43609046936035 C 263.4161376953125 19.695207595825195 263.3954162597656 18.02509307861328 263.39752197265625 16.45467758178711 C 263.38897705078125 15.124090194702148 263.4359130859375 14.113088607788086 263.5595703125 13.400330543518066 C 263.80767822265625 12.922370910644531 264.11297607421875 12.714377403259277 264.3876953125 12.783174514770508 C 264.4075012207031 12.964248657226562 264.1780090332031 13.127477645874023 264.054443359375 13.122005462646484 C 263.953125 12.717499732971191 263.6547546386719 12.122136116027832 263.34417724609375 11.508686065673828 C 263.39093017578125 10.752568244934082 263.8321228027344 9.830660820007324 264.1636047363281 8.44768238067627 C 264.2228698730469 6.833035469055176 264.5258483886719 5.010800361633301 264.7061462402344 3.078131914138794 C 264.7262268066406 0.7507683634757996 264.5810546875 -1.543936014175415 269.5224609375 -1.831156849861145" stroke-width="0.0" fill="rgb(78, 166, 66)" opacity="0.9998522" stroke="rgb(135, 118, 248)" stroke-opacity="0.5045438" stroke-linecap="round" stroke-linejoin="round"/>
  </g>
</svg>
