<?xml version="1.0" ?>
<svg xmlns="http://www.w3.org/2000/svg" version="1.1" width="474" height="596">
  <defs/>
  <g>
    <path d="M 266.30047607421875 -1.117282509803772 C 268.2287902832031 -1.4241344928741455 270.430419921875 -1.7688829898834229 272.2010192871094 -2.533832550048828 C 273.3716735839844 -3.147742748260498 274.0946960449219 -3.476388692855835 274.65655517578125 -3.9097273349761963 C 274.60791015625 -3.98353910446167 274.54925537109375 -3.94232439994812 274.60943603515625 -3.8461055755615234 C 274.9162902832031 -3.7577736377716064 275.6728515625 -3.4917070865631104 277.91259765625 -4.2415032386779785 C 281.38812255859375 -2.2482707500457764 285.0648193359375 0.7823442816734314 291.89508056640625 2.43306040763855 C 300.72802734375 4.566251754760742 309.9932556152344 7.545191287994385 318.3511047363281 10.924985885620117 C 326.6352844238281 14.34649658203125 334.547119140625 18.213924407958984 342.2752685546875 22.80075454711914 C 350.3690185546875 27.50187110900879 358.3725280761719 32.97551345825195 366.2326965332031 39.41920471191406 C 374.77496337890625 45.75136184692383 382.637939453125 53.39748001098633 390.3853454589844 61.453712463378906 C 397.7048034667969 69.47494506835938 404.5206298828125 77.53177642822266 410.5076904296875 85.77838897705078 C 416.1275634765625 93.54459381103516 421.443115234375 101.57647705078125 426.663818359375 110.32038879394531 C 431.9283142089844 118.85929870605469 435.2725830078125 124.194091796875 432.98309326171875 133.6741943359375 C 429.60205078125 142.63218688964844 423.9921875 150.89015197753906 417.59686279296875 158.8655548095703 C 411.24774169921875 167.02471923828125 403.8957214355469 174.41188049316406 396.31591796875 181.59085083007812 C 388.7479248046875 188.5212860107422 380.86376953125 194.80812072753906 372.93115234375 200.78562927246094 C 364.8824462890625 206.35787963867188 357.1438293457031 211.57725524902344 348.673095703125 216.26544189453125 C 339.0472412109375 221.3612823486328 326.6667175292969 224.3540802001953 315.6144714355469 226.26966857910156 C 313.56640625 223.81190490722656 316.97430419921875 218.06112670898438 323.5062561035156 211.28579711914062 C 331.702880859375 204.81910705566406 339.9720764160156 197.89407348632812 347.3265380859375 190.24952697753906 C 353.4318542480469 182.17709350585938 358.30352783203125 174.14816284179688 362.0204772949219 166.3332977294922 C 364.8737487792969 158.69578552246094 366.803955078125 151.044189453125 367.9794921875 142.99595642089844 C 368.25042724609375 134.75904846191406 368.8063049316406 126.37149810791016 365.27386474609375 119.80701446533203 C 361.32208251953125 112.7961654663086 357.4490661621094 106.85242462158203 351.7961120605469 103.03778076171875 C 344.91998291015625 101.59039306640625 337.34881591796875 102.65912628173828 329.5323791503906 102.4278564453125 C 321.7896423339844 99.5197982788086 314.29803466796875 100.37567901611328 306.28076171875 103.4952621459961 C 297.76104736328125 106.4588851928711 289.0775451660156 109.31973266601562 280.5465087890625 111.04861450195312 C 272.20465087890625 111.05040740966797 264.4149475097656 109.68196105957031 257.6124572753906 107.5594711303711 C 252.28448486328125 105.4056167602539 248.4386444091797 103.86526489257812 245.96487426757812 103.80431365966797 C 244.9881591796875 105.41260528564453 244.29318237304688 108.42626190185547 244.34739685058594 113.86817932128906 C 241.0043487548828 117.82661437988281 234.04864501953125 121.32811737060547 224.50421142578125 124.9104995727539 C 214.80972290039062 128.5256805419922 204.6732635498047 131.41258239746094 194.80967712402344 133.5364990234375 C 185.48098754882812 135.07167053222656 177.4488067626953 136.2213897705078 171.30343627929688 137.83184814453125 C 165.77735900878906 138.06857299804688 162.00450134277344 139.0633087158203 159.10670471191406 141.00369262695312 C 156.77642822265625 143.84669494628906 154.77378845214844 147.7371368408203 152.7121124267578 153.07382202148438 C 150.62892150878906 159.74322509765625 148.74415588378906 167.30828857421875 147.5033416748047 175.26077270507812 C 147.4146270751953 183.31307983398438 148.44691467285156 191.62815856933594 151.03274536132812 199.51992797851562 C 155.30026245117188 207.0072479248047 160.86143493652344 214.1254119873047 167.99505615234375 220.6856689453125 C 176.44544982910156 226.80615234375 185.966064453125 232.19281005859375 195.75759887695312 236.2515869140625 C 205.03689575195312 239.28973388671875 213.4810028076172 241.0782928466797 219.8380889892578 242.5130157470703 C 221.68202209472656 245.94862365722656 219.18397521972656 245.7299041748047 213.26278686523438 246.78089904785156 C 206.16708374023438 247.15200805664062 197.64501953125 246.69517517089844 188.15673828125 245.390625 C 178.70216369628906 243.8119659423828 169.32833862304688 242.65493774414062 160.5695343017578 240.9029083251953 C 151.96092224121094 240.84849548339844 144.07862854003906 240.5594024658203 136.7791290283203 239.635986328125 C 128.8992462158203 238.3456268310547 121.10575866699219 236.5573272705078 113.23356628417969 234.6780548095703 C 105.4388656616211 232.322021484375 97.24866485595703 229.9925537109375 89.31993103027344 226.63446044921875 C 80.73029327392578 223.51429748535156 72.6705551147461 219.52249145507812 64.66635131835938 215.28533935546875 C 58.20723342895508 211.63787841796875 54.14576721191406 205.95953369140625 53.297264099121094 198.94271850585938 C 53.45065689086914 189.60728454589844 54.559898376464844 179.5095977783203 56.56622314453125 169.7100372314453 C 58.2580680847168 160.80931091308594 60.09193801879883 152.57342529296875 62.54084396362305 144.87445068359375 C 64.82549285888672 136.9062042236328 67.74562072753906 129.02940368652344 71.26226806640625 121.01232147216797 C 74.68679809570312 112.86477661132812 78.80303955078125 104.98221588134766 83.3401870727539 97.3152847290039 C 88.45358276367188 89.3475570678711 93.78751373291016 81.0427017211914 100.2125015258789 73.49237823486328 C 106.96141052246094 65.35174560546875 114.40532684326172 57.16301345825195 122.9273452758789 49.888572692871094 C 130.71942138671875 42.6234016418457 139.6411590576172 36.58286666870117 147.9401092529297 30.590810775756836 C 155.6375732421875 26.184967041015625 162.66400146484375 24.374364852905273 170.95742797851562 23.757043838500977 C 177.38095092773438 23.223527908325195 187.0697784423828 24.502212524414062 194.97476196289062 26.117067337036133 C 203.40896606445312 27.89319610595703 209.69412231445312 31.043880462646484 215.08509826660156 28.78892707824707 C 216.5341339111328 30.50235366821289 223.4176788330078 28.97031021118164 227.2189483642578 26.155681610107422 C 233.49566650390625 18.92249298095703 241.05506896972656 11.631523132324219 249.7460174560547 7.02020788192749 C 257.9907531738281 2.911038875579834 266.8214111328125 -0.15770940482616425 266.30047607421875 -1.117282509803772" stroke-width="0.0" fill="rgb(64, 38, 30)" opacity="0.9999928" stroke="rgb(75, 76, 114)" stroke-opacity="0.6093165" stroke-linecap="round" stroke-linejoin="round"/>
    <path d="M 315.6150817871094 243.11265563964844 C 336.9814453125 247.86146545410156 356.1636962890625 255.30224609375 371.3575439453125 269.4223327636719 C 392.74774169921875 278.57208251953125 404.9768981933594 288.9930725097656 410.9913635253906 290.075927734375 C 411.56787109375 288.7236633300781 405.1372375488281 291.23638916015625 393.4219665527344 294.35479736328125 C 380.2413330078125 292.6429138183594 373.77593994140625 291.6990966796875 376.95654296875 292.63494873046875 C 392.2369689941406 292.8719787597656 415.556396484375 294.306884765625 445.1483459472656 294.7327880859375 C 459.7920837402344 314.9659729003906 457.0672912597656 336.8660888671875 439.45892333984375 348.16632080078125 C 427.42462158203125 350.6792907714844 412.3628234863281 340.7049865722656 394.54248046875 330.0133056640625 C 367.79400634765625 328.2502746582031 348.8976745605469 320.4563903808594 330.7543029785156 322.8060302734375 C 323.14794921875 331.99365234375 320.9634704589844 347.5859680175781 324.2119445800781 367.5268249511719 C 319.9571838378906 380.51361083984375 311.7513732910156 395.9072570800781 306.41729736328125 416.3840637207031 C 300.36029052734375 437.1651916503906 294.3601989746094 457.5341491699219 290.2496337890625 477.4828796386719 C 287.5038757324219 494.32989501953125 287.249267578125 508.6184387207031 287.96697998046875 517.8771362304688 C 287.28594970703125 523.3200073242188 280.9180908203125 524.7319946289062 269.8548583984375 524.1022338867188 C 256.6339111328125 523.8997802734375 244.10287475585938 526.5905151367188 235.849365234375 534.97705078125 C 233.36990356445312 552.3895874023438 238.25164794921875 565.2940673828125 252.91497802734375 576.496337890625 C 272.3841857910156 582.2034301757812 291.6279296875 579.8864135742188 313.471923828125 573.4478759765625 C 332.2989807128906 568.4931030273438 343.6280212402344 567.61279296875 343.0972595214844 573.9050903320312 C 331.8813171386719 582.233642578125 316.1330261230469 585.3584594726562 290.42340087890625 584.543212890625 C 268.0686340332031 583.2840576171875 245.2295684814453 582.771728515625 236.35385131835938 574.9146118164062 C 230.93917846679688 564.4595947265625 234.01345825195312 544.7806396484375 236.28201293945312 521.1909790039062 C 241.5848846435547 502.47412109375 244.37855529785156 484.3027648925781 241.26658630371094 470.78668212890625 C 231.24246215820312 463.0660705566406 226.5096893310547 462.2328186035156 226.7270050048828 472.81365966796875 C 217.23997497558594 476.47052001953125 205.15493774414062 479.5472717285156 195.00106811523438 482.7625732421875 C 187.11398315429688 483.76409912109375 182.82821655273438 484.6392822265625 182.91378784179688 486.609375 C 187.70767211914062 490.5304260253906 196.07989501953125 497.37066650390625 207.83154296875 506.7544250488281 C 213.099609375 522.8347778320312 214.96380615234375 544.3827514648438 217.29550170898438 565.7991333007812 C 219.6937713623047 585.5398559570312 215.0162811279297 588.1375122070312 193.50950622558594 586.4080200195312 C 170.00306701660156 592.2468872070312 152.32066345214844 601.337646484375 132.0930938720703 594.8727416992188 C 117.37130737304688 592.4556884765625 115.34618377685547 583.4993286132812 119.06291198730469 575.336181640625 C 130.87533569335938 581.3192749023438 148.11912536621094 583.713623046875 168.80259704589844 582.1655883789062 C 187.9873809814453 579.9170532226562 203.85794067382812 577.1078491210938 213.57630920410156 570.277587890625 C 213.18014526367188 557.2802734375 212.17027282714844 541.9364013671875 208.69586181640625 529.53564453125 C 199.36685180664062 524.8136596679688 189.76788330078125 523.1436157226562 181.09963989257812 523.8405151367188 C 174.3801727294922 524.2955932617188 169.77163696289062 522.4223022460938 166.5818328857422 516.6804809570312 C 165.58070373535156 506.7347412109375 166.53599548339844 492.9561767578125 166.31427001953125 476.07037353515625 C 161.5735321044922 457.4750061035156 157.52003479003906 437.450439453125 154.85964965820312 416.82232666015625 C 152.41403198242188 397.2396545410156 145.51055908203125 380.4739074707031 135.0232696533203 365.8590087890625 C 123.57447814941406 353.9742736816406 110.48048400878906 347.7220153808594 98.13553619384766 345.9435119628906 C 87.71619415283203 350.0907897949219 82.92938995361328 353.66741943359375 83.54370880126953 356.02532958984375 C 89.28181457519531 356.1184997558594 98.23692321777344 352.90643310546875 107.5380630493164 345.3074035644531 C 114.0661849975586 334.08251953125 118.20006561279297 322.6039733886719 117.64591979980469 311.81640625 C 111.31084442138672 302.8658752441406 101.83174896240234 295.5169982910156 92.27970123291016 289.3706359863281 C 87.25165557861328 284.8082580566406 91.24644470214844 279.7684020996094 103.00939178466797 270.86676025390625 C 119.60723876953125 258.49603271484375 139.4467010498047 248.79205322265625 157.7489013671875 242.8002471923828 C 168.3533935546875 238.73312377929688 172.4920654296875 244.29428100585938 171.53524780273438 255.83566284179688 C 167.8286590576172 271.11474609375 163.4789581298828 288.28564453125 159.9667510986328 306.2314453125 C 158.08343505859375 323.47247314453125 157.98382568359375 338.75311279296875 159.52757263183594 350.9042053222656 C 160.44827270507812 360.9372863769531 161.6123504638672 366.4847106933594 161.88645935058594 367.8603820800781 C 161.3496856689453 365.2325134277344 160.16119384765625 359.36785888671875 159.56076049804688 350.8429870605469 C 161.53041076660156 340.25732421875 164.59312438964844 328.37640380859375 168.84693908691406 315.7151794433594 C 173.9638214111328 302.56219482421875 179.659423828125 289.5954895019531 185.91693115234375 276.9397888183594 C 192.99693298339844 265.37353515625 201.27687072753906 254.92388916015625 209.34642028808594 247.79849243164062 C 224.1186981201172 244.94642639160156 236.66064453125 243.01393127441406 250.12716674804688 242.80999755859375 C 263.66748046875 245.0096435546875 276.0957946777344 249.15093994140625 286.9753723144531 256.2329406738281 C 294.9518737792969 266.6945495605469 300.3012390136719 280.2223205566406 305.01727294921875 294.7320251464844 C 310.93206787109375 306.5752868652344 315.4829406738281 315.8091125488281 318.0675048828125 320.68072509765625 C 317.6009216308594 317.83087158203125 315.4687805175781 313.7977294921875 315.4761047363281 307.755859375 C 316.1002502441406 305.2027893066406 315.6485595703125 305.8330078125 313.9683837890625 308.0736389160156 C 310.388916015625 304.2125549316406 305.0332336425781 295.21026611328125 299.33599853515625 280.0711669921875 C 293.3798828125 257.7205810546875 287.1496276855469 235.25282287597656 315.6150817871094 243.11265563964844" stroke-width="0.0" fill="rgb(251, 110, 165)" opacity="0.9999316" stroke="rgb(144, 58, 37)" stroke-opacity="0.4684767" stroke-linecap="round" stroke-linejoin="round"/>
    <path d="M 340.1170654296875 94.39576721191406 C 342.275390625 95.29096221923828 342.8172302246094 93.55149841308594 343.2219543457031 93.20491790771484 C 343.65545654296875 95.14055633544922 345.5782470703125 95.2308578491211 346.2908630371094 95.9943618774414 C 346.63739013671875 96.5088119506836 346.9106750488281 96.67703247070312 347.3794250488281 96.9501953125 C 347.80877685546875 97.26405334472656 348.16278076171875 97.81491088867188 349.0157775878906 98.20671844482422 C 350.4520263671875 98.8166275024414 351.9106750488281 100.08294677734375 353.6571960449219 101.60468292236328 C 355.48199462890625 104.685791015625 359.2835998535156 106.76246643066406 361.4479064941406 110.49732971191406 C 363.6295166015625 115.49109649658203 366.48883056640625 120.21941375732422 367.7128601074219 125.80323028564453 C 369.8329772949219 131.4993133544922 370.48272705078125 137.36834716796875 370.4449157714844 143.09371948242188 C 370.826171875 149.22608947753906 369.7898254394531 154.5457305908203 368.7702941894531 160.33847045898438 C 367.59893798828125 166.46669006347656 365.9617004394531 172.10150146484375 363.14910888671875 177.3396759033203 C 360.5975646972656 183.0803680419922 356.8996276855469 188.28648376464844 352.2978820800781 192.9544219970703 C 347.5019836425781 197.7967071533203 343.48541259765625 203.71835327148438 337.69769287109375 208.26019287109375 C 332.5251770019531 212.69448852539062 326.8066711425781 216.2433624267578 321.81500244140625 219.7071990966797 C 316.2861328125 221.77200317382812 314.52691650390625 227.45550537109375 309.3404235839844 229.7974853515625 C 303.3458251953125 232.882568359375 296.9547119140625 235.8079833984375 291.2767639160156 236.9796142578125 C 288.2645568847656 238.07432556152344 289.3049621582031 240.10401916503906 293.7078552246094 239.29443359375 C 297.8309326171875 239.74871826171875 301.887451171875 240.91152954101562 303.7286071777344 240.4169921875 C 298.5450134277344 243.0575714111328 295.0098571777344 248.06301879882812 291.50274658203125 256.59027099609375 C 296.2740783691406 267.58282470703125 299.8003845214844 274.5404052734375 303.13116455078125 280.3376159667969 C 304.84344482421875 284.46075439453125 306.1966552734375 286.67266845703125 306.44964599609375 287.0150451660156 C 305.7601013183594 285.6758728027344 304.1230773925781 282.6536865234375 301.74786376953125 278.6416320800781 C 300.582763671875 272.1092529296875 295.7982482910156 269.03546142578125 293.2666931152344 263.3885498046875 C 289.53253173828125 258.0240478515625 285.9197998046875 254.1444091796875 280.7718505859375 251.9407958984375 C 276.0433349609375 249.4620361328125 271.2400207519531 247.48863220214844 266.1475830078125 246.06198120117188 C 261.9608154296875 243.82728576660156 258.9731750488281 246.15858459472656 255.89437866210938 248.24526977539062 C 254.3605499267578 251.09800720214844 253.32264709472656 252.3476104736328 251.86773681640625 253.0005340576172 C 250.04733276367188 253.2915496826172 247.74444580078125 253.51084899902344 244.27182006835938 253.56967163085938 C 240.5180206298828 253.15704345703125 236.1283416748047 254.74880981445312 231.31719970703125 254.5041046142578 C 226.38180541992188 254.111328125 222.29513549804688 253.20782470703125 219.41139221191406 246.74273681640625 C 221.63113403320312 242.44732666015625 216.6558380126953 242.84759521484375 211.0766143798828 241.99940490722656 C 206.0364532470703 240.5679168701172 200.22979736328125 239.2462615966797 194.8198699951172 237.10250854492188 C 189.70204162597656 234.9839630126953 184.71929931640625 232.82577514648438 180.4134979248047 230.0584259033203 C 175.81610107421875 227.53456115722656 171.45542907714844 224.48280334472656 167.2341766357422 221.109619140625 C 162.75196838378906 217.0497589111328 158.60696411132812 213.04962158203125 154.89707946777344 208.2028045654297 C 151.55105590820312 203.51126098632812 148.8710174560547 198.21229553222656 146.5939483642578 193.03221130371094 C 144.5093994140625 187.21099853515625 143.37063598632812 181.53509521484375 142.96434020996094 174.63424682617188 C 142.86514282226562 169.68576049804688 143.1979522705078 164.2723388671875 145.08599853515625 158.40403747558594 C 147.3583984375 152.3638153076172 151.25570678710938 148.04135131835938 156.48333740234375 143.57806396484375 C 158.00387573242188 139.2897491455078 157.6846160888672 134.4776153564453 157.4084930419922 131.99916076660156 C 160.3007354736328 132.42578125 163.2707061767578 134.69468688964844 166.0038604736328 137.00469970703125 C 169.97540283203125 137.5672149658203 174.2067108154297 136.68667602539062 178.62307739257812 133.96099853515625 C 184.3559112548828 131.70408630371094 189.59085083007812 129.23341369628906 194.73097229003906 127.42938232421875 C 200.390380859375 125.74240112304688 205.68812561035156 123.68618774414062 210.96998596191406 122.3999252319336 C 215.28541564941406 120.63712310791016 220.21690368652344 119.60696411132812 225.60275268554688 118.33857727050781 C 230.7991485595703 117.05745697021484 236.3596649169922 116.06291198730469 241.40284729003906 114.83586120605469 C 244.5858612060547 113.68098449707031 245.3339080810547 110.25643920898438 244.0865478515625 105.75216674804688 C 242.7964630126953 101.21763610839844 243.05474853515625 97.98367309570312 245.42401123046875 96.05467987060547 C 248.08035278320312 97.82964324951172 252.5353240966797 100.73200225830078 255.9728546142578 105.69783020019531 C 261.05926513671875 108.06827545166016 266.0821228027344 109.59553527832031 271.0033874511719 107.95872497558594 C 277.5890808105469 105.22003936767578 284.7706298828125 104.35250854492188 291.4222717285156 103.10926055908203 C 296.61737060546875 101.62004089355469 302.1255798339844 101.50069427490234 305.0708923339844 100.22380065917969 C 303.67681884765625 103.38404846191406 306.8758850097656 103.69107055664062 310.8403015136719 104.28807067871094 C 315.7562561035156 104.10676574707031 321.5809631347656 104.65724182128906 325.49517822265625 109.30278778076172 C 329.6323547363281 112.50761413574219 330.8922119140625 120.51948547363281 330.7065734863281 125.044677734375 C 329.56317138671875 129.6769256591797 328.5237731933594 132.14524841308594 329.42315673828125 132.64418029785156 C 332.9639892578125 131.2217254638672 337.7429504394531 130.16307067871094 341.49163818359375 127.77481842041016 C 345.1794128417969 125.83125305175781 346.03326416015625 123.45604705810547 345.343994140625 119.42151641845703 C 345.10980224609375 115.52733612060547 342.43145751953125 111.75831604003906 338.9683532714844 107.58856964111328 C 333.8989562988281 105.23499298095703 329.9756774902344 100.91822814941406 324.8333435058594 99.22200775146484 C 316.9012451171875 98.8690185546875 312.4598693847656 98.03571319580078 340.1170654296875 94.39576721191406" stroke-width="0.0" fill="rgb(250, 187, 105)" opacity="1.0" stroke="rgb(142, 213, 74)" stroke-opacity="0.090272315" stroke-linecap="round" stroke-linejoin="round"/>
    <path d="M 170.4582061767578 382.0033264160156 C 170.72988891601562 381.3939208984375 172.1136932373047 381.06427001953125 172.17913818359375 380.4458923339844 C 173.2193603515625 380.3283386230469 174.50559997558594 380.7171630859375 177.3670654296875 380.2028503417969 C 177.52767944335938 378.9232482910156 178.33799743652344 379.6101989746094 179.71307373046875 379.8224792480469 C 180.49301147460938 381.09771728515625 181.5247802734375 381.49139404296875 182.62042236328125 381.8319396972656 C 183.69342041015625 382.0556335449219 184.6336669921875 382.2821044921875 185.46298217773438 382.5084228515625 C 186.27305603027344 382.6758117675781 187.02635192871094 382.77947998046875 187.76478576660156 382.9205322265625 C 188.52516174316406 382.9990234375 189.27719116210938 383.0675048828125 190.066650390625 383.2814636230469 C 191.0101776123047 383.5977783203125 191.87353515625 383.9993896484375 192.79893493652344 384.6816101074219 C 193.70582580566406 385.4869689941406 194.3696746826172 386.4054260253906 194.87635803222656 387.454345703125 C 195.1277618408203 388.4100036621094 195.0787353515625 389.33416748046875 194.69110107421875 390.21026611328125 C 193.9969482421875 390.88433837890625 193.2899627685547 391.4529113769531 192.5015106201172 392.07177734375 C 191.84681701660156 392.6129150390625 191.4604034423828 393.1238708496094 191.41920471191406 393.8369140625 C 191.68557739257812 394.5744934082031 192.19232177734375 395.23236083984375 192.84678649902344 395.73699951171875 C 193.74288940429688 396.2052917480469 194.41453552246094 396.6519775390625 194.2709503173828 397.0714111328125 C 194.0767822265625 397.7945861816406 193.9451446533203 397.8760681152344 193.907958984375 397.88031005859375 C 194.11312866210938 397.6717224121094 194.5557861328125 397.4554748535156 195.43545532226562 397.2352600097656 C 196.84445190429688 397.0775146484375 198.72982788085938 396.8997497558594 200.98681640625 396.7273254394531 C 203.7062225341797 396.666015625 206.8348846435547 396.5842590332031 210.22933959960938 396.6539611816406 C 213.88900756835938 396.6403503417969 217.70790100097656 396.6314697265625 221.55255126953125 396.5925598144531 C 225.5171356201172 396.49310302734375 229.5877685546875 396.3860168457031 233.4949188232422 396.250244140625 C 237.400390625 396.1407165527344 241.4405059814453 395.9155578613281 245.43031311035156 395.6971740722656 C 249.51638793945312 395.4632263183594 253.71859741210938 395.3249206542969 257.8991394042969 395.2510986328125 C 262.021484375 395.1714172363281 266.01678466796875 395.19732666015625 269.85992431640625 395.3148193359375 C 273.2893371582031 395.4236145019531 276.5809631347656 395.4175720214844 279.62841796875 395.32781982421875 C 282.614990234375 395.1481628417969 285.5964050292969 395.02239990234375 288.6335144042969 395.2588806152344 C 291.7014465332031 396.072265625 294.9117736816406 397.6084899902344 297.8418884277344 399.6187744140625 C 300.5108337402344 402.24945068359375 302.8080749511719 405.4224548339844 304.3790283203125 408.92498779296875 C 305.34356689453125 412.6792907714844 305.541015625 416.52587890625 305.055908203125 420.3949890136719 C 304.1071472167969 424.12255859375 302.6772766113281 427.6710205078125 300.9245910644531 430.8620910644531 C 299.1134948730469 433.6998291015625 297.3087158203125 436.2060241699219 295.5545654296875 438.3800964355469 C 294.101318359375 440.3395080566406 292.8443298339844 442.2217102050781 291.74481201171875 444.1722106933594 C 290.7965087890625 446.2626953125 289.73455810546875 448.7095642089844 288.3978576660156 451.4282531738281 C 286.65093994140625 454.28875732421875 284.4369812011719 457.25921630859375 281.81329345703125 460.02838134765625 C 278.80609130859375 462.3020935058594 275.5124816894531 464.0751953125 272.029296875 465.05401611328125 C 268.5343017578125 464.9092712402344 265.1870422363281 463.8090515136719 262.2448425292969 461.85833740234375 C 259.7591857910156 459.06146240234375 257.8092346191406 455.77105712890625 256.4544982910156 452.3315124511719 C 255.37625122070312 448.80999755859375 254.43695068359375 445.4300537109375 253.548095703125 442.3552551269531 C 252.3012237548828 440.0692443847656 250.5175018310547 438.21148681640625 248.6191864013672 436.4909362792969 C 246.44883728027344 435.0755920410156 243.7044677734375 434.4347839355469 240.87969970703125 434.2255859375 C 238.02342224121094 434.3180236816406 235.49952697753906 434.5250244140625 233.24647521972656 434.81072998046875 C 231.56304931640625 434.9222412109375 230.3876190185547 434.922119140625 229.7188262939453 434.85382080078125 C 229.41436767578125 434.81396484375 229.37042236328125 434.8544006347656 229.49197387695312 435.0476379394531 C 229.666259765625 435.43841552734375 229.72731018066406 436.1110534667969 229.64047241210938 437.1418151855469 C 229.46815490722656 438.4681396484375 228.98243713378906 440.0513610839844 228.2310028076172 441.9078674316406 C 227.31845092773438 443.8208312988281 226.19740295410156 445.80670166015625 224.75314331054688 447.8132019042969 C 223.13502502441406 449.71087646484375 221.24668884277344 451.5375061035156 219.22286987304688 453.4767761230469 C 216.91983032226562 455.6214599609375 214.43768310546875 457.90435791015625 211.77418518066406 460.2078552246094 C 208.89328002929688 462.3830871582031 205.7425079345703 464.2452697753906 202.2327880859375 465.7098388671875 C 198.5286407470703 466.648193359375 194.57244873046875 466.9436950683594 190.42620849609375 466.656494140625 C 186.3998565673828 465.9271240234375 182.40853881835938 464.6301574707031 178.83094787597656 463.1472473144531 C 175.7891082763672 461.3394470214844 173.2747802734375 459.51312255859375 171.26654052734375 457.7932434082031 C 169.6790771484375 456.14129638671875 168.32992553710938 454.7633361816406 167.01829528808594 453.4892883300781 C 165.76109313964844 452.4003601074219 164.42184448242188 451.4360656738281 162.98521423339844 450.1788024902344 C 161.5102081298828 448.5927734375 160.1439666748047 446.5610656738281 158.9580841064453 443.8689880371094 C 157.79608154296875 440.66650390625 156.81561279296875 436.96453857421875 156.16775512695312 432.888916015625 C 155.72064208984375 428.5871276855469 155.42608642578125 424.19110107421875 155.09596252441406 419.7351989746094 C 154.8159942626953 415.18048095703125 154.6865692138672 410.6265563964844 154.1207275390625 406.0791015625 C 153.79798889160156 401.6139831542969 154.15582275390625 397.1489562988281 155.4168243408203 393.1620788574219 C 157.8921661376953 390.0605773925781 158.6880645751953 386.2021789550781 159.98951721191406 383.1492919921875 C 162.0782470703125 380.761474609375 162.9371337890625 378.8349304199219 170.4582061767578 382.0033264160156" stroke-width="0.0" fill="rgb(253, 76, 1)" opacity="0.9999778" stroke="rgb(42, 1, 70)" stroke-opacity="0.38518608" stroke-linecap="round" stroke-linejoin="round"/>
    <path d="M 222.4369354248047 374.98260498046875 C 221.9702911376953 374.3436584472656 222.4621124267578 374.7371520996094 222.88497924804688 375.03790283203125 C 223.33160400390625 375.272216796875 223.90469360351562 375.5758361816406 224.6593475341797 375.7512512207031 C 225.6436767578125 375.9147033691406 227.06150817871094 376.1279296875 229.3441619873047 376.36529541015625 C 232.56085205078125 376.5462646484375 236.5616455078125 376.7825622558594 241.74794006347656 377.14788818359375 C 248.2083740234375 377.66839599609375 255.79159545898438 378.026123046875 264.25250244140625 378.38189697265625 C 273.4737548828125 378.580810546875 283.4115295410156 378.3634033203125 293.6047058105469 379.1430358886719 C 302.16033935546875 377.0782470703125 308.4414367675781 378.8946838378906 316.13348388671875 380.9638366699219 C 315.2390441894531 383.99755859375 316.5722351074219 392.1224670410156 314.73199462890625 399.4241638183594 C 313.4167785644531 410.286376953125 310.72857666015625 421.1661682128906 307.7258605957031 433.6044921875 C 303.82183837890625 444.55487060546875 302.2592468261719 456.0096740722656 300.400146484375 464.5177001953125 C 300.3912048339844 470.69769287109375 296.6747741699219 472.3714904785156 290.72235107421875 474.0451354980469 C 289.08038330078125 480.12786865234375 288.2619323730469 489.8467712402344 287.423828125 499.4653015136719 C 285.51776123046875 506.55181884765625 287.8261413574219 505.14971923828125 295.29376220703125 505.5396423339844 C 303.2501525878906 508.19073486328125 306.92889404296875 510.78369140625 303.8538513183594 517.832763671875 C 295.58074951171875 519.5408325195312 288.0404052734375 525.7696533203125 280.37744140625 531.50634765625 C 269.3118896484375 532.2489624023438 261.2286682128906 528.8304443359375 251.3016815185547 529.3442993164062 C 244.16770935058594 526.69580078125 240.0108642578125 526.925537109375 239.7295379638672 531.7891235351562 C 239.27822875976562 541.2828979492188 238.18276977539062 549.9085083007812 238.31881713867188 561.314208984375 C 238.48873901367188 569.1226196289062 232.98934936523438 568.54833984375 233.5888671875 560.2971801757812 C 234.65342712402344 548.2863159179688 236.24932861328125 538.3162841796875 236.36524963378906 526.679443359375 C 230.4981689453125 522.5814819335938 224.67726135253906 522.3318481445312 226.52972412109375 514.6741943359375 C 228.8436279296875 509.40228271484375 235.6730499267578 507.40863037109375 240.36436462402344 504.69866943359375 C 242.65025329589844 493.64898681640625 244.06028747558594 483.4761962890625 242.19190979003906 469.32061767578125 C 229.44851684570312 467.7025146484375 236.2343292236328 457.53076171875 228.74859619140625 449.3768615722656 C 229.81683349609375 464.288330078125 221.55319213867188 469.249267578125 216.31689453125 477.9643249511719 C 213.72216796875 490.0482177734375 212.216064453125 501.0691833496094 211.4108428955078 507.8900146484375 C 219.799072265625 509.666015625 222.25363159179688 514.0404052734375 220.1447296142578 521.1893920898438 C 215.00067138671875 523.9024047851562 210.0735626220703 524.0031127929688 213.79067993164062 530.32470703125 C 208.36856079101562 531.2701416015625 201.73135375976562 530.1250610351562 193.52337646484375 527.5940551757812 C 185.23486328125 527.0205078125 176.86846923828125 527.1636352539062 170.36537170410156 528.9376831054688 C 163.8180694580078 530.1007690429688 157.25502014160156 530.4876708984375 159.5543212890625 525.0407104492188 C 153.05613708496094 522.3128051757812 149.17742919921875 519.9505615234375 152.47802734375 512.8189086914062 C 157.75222778320312 506.52978515625 166.81971740722656 504.4540710449219 165.7950897216797 495.3294982910156 C 168.54884338378906 482.2173156738281 167.14952087402344 473.95220947265625 158.38958740234375 469.49859619140625 C 157.44297790527344 457.8891296386719 155.9835662841797 446.95538330078125 154.7880401611328 434.3869934082031 C 153.8396759033203 423.8369445800781 153.1369171142578 413.7995300292969 152.38160705566406 405.6302185058594 C 153.24786376953125 402.7015380859375 155.70742797851562 401.7646484375 157.74996948242188 403.4864501953125 C 159.13414001464844 408.3116455078125 159.8484344482422 415.0921936035156 160.53515625 423.0992736816406 C 162.62571716308594 431.21929931640625 165.5281524658203 439.2319641113281 168.73236083984375 446.2028503417969 C 172.18824768066406 452.17388916015625 176.06781005859375 456.7895812988281 180.22274780273438 460.0762023925781 C 184.7852020263672 461.6722717285156 189.55245971679688 461.2994689941406 194.59371948242188 459.41937255859375 C 199.48162841796875 455.6295471191406 204.46957397460938 451.0748596191406 209.56961059570312 446.5533142089844 C 214.58836364746094 442.6531982421875 219.1083526611328 439.5884704589844 223.10824584960938 437.24993896484375 C 226.17185974121094 434.7885437011719 229.11935424804688 432.7855529785156 231.97637939453125 431.4515686035156 C 235.14414978027344 430.4328308105469 238.88853454589844 430.5001220703125 243.11514282226562 431.3221435546875 C 247.53475952148438 433.75445556640625 251.47189331054688 438.1337585449219 255.4378204345703 443.74334716796875 C 259.2767028808594 449.584228515625 263.2876281738281 454.79205322265625 267.5182800292969 457.8648986816406 C 271.7857360839844 458.459228515625 275.6735534667969 456.5120544433594 278.8714294433594 452.40838623046875 C 281.7209167480469 446.0164794921875 284.7474670410156 439.1048889160156 288.44036865234375 432.1296691894531 C 292.754150390625 426.0400390625 296.43280029296875 420.4979248046875 298.8140869140625 415.5164489746094 C 299.2803649902344 411.1996765136719 298.00665283203125 407.7030029296875 294.9273681640625 405.27105712890625 C 289.5932922363281 404.00592041015625 283.1791076660156 403.28765869140625 275.7168273925781 402.7181091308594 C 267.5472106933594 402.0141296386719 258.9274597167969 401.58642578125 250.06997680664062 401.26922607421875 C 240.96780395507812 400.52984619140625 232.03488159179688 400.45672607421875 223.28514099121094 400.36639404296875 C 214.774658203125 400.549560546875 206.76426696777344 399.7973937988281 199.3123779296875 398.6602783203125 C 192.88194274902344 397.1598205566406 187.94227600097656 393.35003662109375 183.92962646484375 389.4029541015625 C 181.36740112304688 385.4517822265625 180.06324768066406 381.8995361328125 181.03570556640625 379.57208251953125 C 184.37557983398438 378.9423522949219 188.3277130126953 380.7390441894531 193.86181640625 381.5841979980469 C 199.05361938476562 382.9198913574219 203.7143096923828 384.0172424316406 208.21810913085938 383.7225341796875 C 212.12351989746094 383.5945129394531 216.40017700195312 384.1893310546875 222.4369354248047 374.98260498046875" stroke-width="0.0" fill="rgb(247, 78, 6)" opacity="0.99949646" stroke="rgb(199, 144, 147)" stroke-opacity="0.72062534" stroke-linecap="round" stroke-linejoin="round"/>
    <path d="M 178.830078125 240.17051696777344 C 179.60743713378906 238.5740509033203 180.50396728515625 238.04212951660156 181.7199249267578 238.34825134277344 C 182.5099334716797 238.86781311035156 183.42588806152344 238.5890655517578 182.03956604003906 238.25418090820312 C 183.87506103515625 238.1790313720703 186.4730987548828 238.3072967529297 186.603759765625 238.49156188964844 C 186.81207275390625 238.4515838623047 188.7550506591797 238.328125 190.25045776367188 238.76162719726562 C 191.5449981689453 239.46902465820312 193.88540649414062 240.17640686035156 195.77468872070312 240.83607482910156 C 197.09152221679688 241.50901794433594 198.6206512451172 241.56126403808594 198.9554443359375 241.7521514892578 C 198.80540466308594 241.8577880859375 198.6945037841797 241.7982177734375 198.4641571044922 241.50018310546875 C 199.6583709716797 241.92823791503906 200.81979370117188 242.6464080810547 202.82879638671875 243.43528747558594 C 204.99365234375 243.83657836914062 208.33114624023438 243.50506591796875 211.2167510986328 244.845703125 C 213.64012145996094 245.18084716796875 215.90884399414062 245.05258178710938 214.7644805908203 246.36656188964844 C 211.21975708007812 246.88800048828125 207.2941131591797 249.16563415527344 203.32687377929688 253.52285766601562 C 200.1398162841797 258.8047180175781 196.83836364746094 264.7582702636719 194.51612854003906 271.00177001953125 C 194.73703002929688 278.72235107421875 193.12973022460938 285.5239562988281 191.7621307373047 291.7992858886719 C 192.17886352539062 295.37066650390625 188.06578063964844 298.8039855957031 184.2485809326172 302.4781799316406 C 179.09217834472656 305.0234680175781 176.73760986328125 309.8885803222656 174.13580322265625 314.85076904296875 C 171.3092498779297 320.0221862792969 168.88893127441406 325.0799560546875 167.1732940673828 330.5392150878906 C 164.2122039794922 335.3348693847656 163.5857391357422 341.0924987792969 161.37103271484375 345.9026794433594 C 159.46530151367188 351.4833679199219 158.0813751220703 357.5806884765625 156.41329956054688 363.2937316894531 C 155.62261962890625 369.3821105957031 155.03030395507812 374.63482666015625 154.8353729248047 379.0608825683594 C 155.57484436035156 381.9591369628906 157.01609802246094 383.7641906738281 158.52615356445312 384.51715087890625 C 159.73526000976562 384.3884582519531 160.68374633789062 383.7489929199219 160.6426239013672 382.8985290527344 C 160.8193359375 383.2414855957031 159.72450256347656 385.17523193359375 157.0146026611328 388.08245849609375 C 156.2388458251953 392.8752746582031 153.83958435058594 398.7281188964844 154.26119995117188 405.3714294433594 C 154.34298706054688 413.0429992675781 154.3967742919922 419.5926513671875 154.40289306640625 423.8877868652344 C 153.419921875 424.2223205566406 153.17047119140625 420.81085205078125 153.87771606445312 415.556640625 C 152.76429748535156 409.6252746582031 152.36204528808594 401.9164123535156 151.15274047851562 398.271240234375 C 140.49093627929688 398.4664306640625 132.52871704101562 396.8532409667969 125.57367706298828 391.9959411621094 C 119.22943878173828 387.0882873535156 115.88903045654297 379.7797546386719 114.7166519165039 371.0740966796875 C 113.86369323730469 362.3744201660156 113.2889404296875 354.0820007324219 111.77848815917969 345.7565612792969 C 105.23828887939453 348.3057556152344 99.18173217773438 351.535888671875 91.24937438964844 354.06719970703125 C 88.63634490966797 355.83575439453125 90.53012084960938 361.929931640625 87.23430633544922 365.0907287597656 C 79.95150756835938 363.95172119140625 76.63041687011719 365.0465087890625 73.5179672241211 371.5671691894531 C 67.1855697631836 379.2581787109375 59.6041259765625 382.74212646484375 58.7919807434082 390.4504089355469 C 59.35440444946289 401.34423828125 56.54983139038086 407.5641174316406 49.35421371459961 404.49407958984375 C 43.974082946777344 399.4519348144531 44.806915283203125 390.02423095703125 41.504241943359375 388.0513916015625 C 37.068302154541016 395.85198974609375 34.2230110168457 402.9919738769531 25.64746856689453 401.1728820800781 C 22.787370681762695 393.3031005859375 15.723023414611816 391.82781982421875 8.833767890930176 389.8538513183594 C 10.476978302001953 378.6327209472656 11.751255989074707 376.5436706542969 4.180430889129639 378.1680603027344 C -3.558053493499756 376.697998046875 -0.5229984521865845 371.9244079589844 4.996798038482666 362.12139892578125 C 11.2221040725708 352.35809326171875 18.634937286376953 345.4174499511719 21.307037353515625 338.9073181152344 C 15.889862060546875 328.6968078613281 14.433431625366211 321.2742614746094 24.27229118347168 319.24554443359375 C 31.070234298706055 323.5670471191406 36.77192687988281 330.63641357421875 43.43738555908203 330.5272521972656 C 46.68215560913086 323.259521484375 48.49775695800781 317.9259948730469 57.86386489868164 320.634033203125 C 63.24119567871094 313.8004150390625 69.17086029052734 306.05609130859375 77.16027069091797 299.6960754394531 C 84.15728759765625 293.53118896484375 90.6119384765625 289.1490478515625 95.61876678466797 285.7856750488281 C 99.3240966796875 283.5162048339844 102.60025024414062 284.499755859375 104.682373046875 286.8473815917969 C 106.99019622802734 289.8644104003906 109.89273071289062 294.5100402832031 114.14338684082031 298.3009338378906 C 118.01163482666016 302.3882751464844 120.31086730957031 308.0182800292969 121.4339599609375 313.510009765625 C 121.325439453125 319.2596435546875 121.03598022460938 323.978759765625 119.21698760986328 327.9507751464844 C 120.8392562866211 331.03143310546875 120.8957748413086 333.0507507324219 121.33790588378906 333.4219970703125 C 122.93663787841797 333.4012451171875 124.82109832763672 331.4783935546875 127.43865203857422 333.0242614746094 C 130.54409790039062 331.8366394042969 134.73507690429688 331.7568664550781 138.60333251953125 332.2423400878906 C 142.17941284179688 332.14862060546875 145.1936492919922 330.5177917480469 147.88217163085938 328.225341796875 C 149.22483825683594 324.6412048339844 151.151611328125 319.8900451660156 153.25953674316406 314.5959167480469 C 154.5478515625 307.9942626953125 155.0266876220703 301.0213623046875 154.97096252441406 294.0110168457031 C 154.30543518066406 286.8139343261719 155.376220703125 280.0558776855469 157.1156463623047 273.4248352050781 C 160.6344757080078 269.0484924316406 162.75106811523438 264.734619140625 165.22329711914062 259.8004150390625 C 166.63169860839844 255.27618408203125 167.8560028076172 252.42437744140625 168.95498657226562 247.70802307128906 C 167.05567932128906 244.8682403564453 165.60813903808594 243.9571075439453 164.86180114746094 242.4807891845703 C 164.83099365234375 241.1547393798828 164.63235473632812 240.44931030273438 178.830078125 240.17051696777344" stroke-width="0.0" fill="rgb(153, 129, 180)" opacity="0.9999995" stroke="rgb(22, 147, 239)" stroke-opacity="0.70849067" stroke-linecap="round" stroke-linejoin="round"/>
    <path d="M 110.16852569580078 294.80816650390625 C 107.7992172241211 298.0297546386719 105.74456024169922 300.9120788574219 104.30388641357422 303.1467590332031 C 103.5136489868164 304.5371398925781 103.3550796508789 304.8810119628906 103.79764556884766 304.10443115234375 C 104.73666381835938 302.4072570800781 105.8924789428711 300.2799987792969 107.060546875 298.3166809082031 C 108.26395416259766 296.912353515625 109.56756591796875 296.2438049316406 111.0308837890625 296.4026794433594 C 112.63175201416016 297.39312744140625 114.17256164550781 299.10870361328125 115.47355651855469 301.1885986328125 C 116.37199401855469 303.25341796875 116.68672943115234 305.1876220703125 116.3485107421875 306.84295654296875 C 115.54833984375 307.9573059082031 114.8682632446289 308.5714111328125 114.49342346191406 308.69818115234375 C 114.50698852539062 308.44073486328125 115.02680206298828 307.9034729003906 115.97307586669922 307.3610534667969 C 117.13867950439453 307.2060241699219 118.29837799072266 307.6736755371094 119.36626434326172 308.84991455078125 C 120.23282623291016 310.65032958984375 120.94335174560547 312.7481689453125 121.77998352050781 314.7994384765625 C 122.72003936767578 316.61090087890625 123.6115493774414 318.2113952636719 124.2785873413086 319.6747741699219 C 124.70745086669922 321.0014343261719 125.01844787597656 322.1846618652344 125.23908233642578 323.302978515625 C 125.3119888305664 324.479248046875 125.34381103515625 325.8005065917969 125.33838653564453 327.3537902832031 C 125.1867446899414 329.0921630859375 124.76671600341797 330.8435974121094 124.01217651367188 332.4789123535156 C 122.84793090820312 333.9017333984375 121.27236938476562 335.11279296875 119.42608642578125 336.2414855957031 C 117.51016998291016 337.49139404296875 115.5531005859375 338.7604064941406 113.49302673339844 339.93194580078125 C 111.40965270996094 341.03826904296875 109.46849822998047 342.11151123046875 107.71719360351562 343.1455993652344 C 106.16643524169922 344.09783935546875 104.66007995605469 344.9184265136719 103.1944351196289 345.6301574707031 C 101.82051849365234 346.322998046875 100.46672821044922 347.01373291015625 99.05223083496094 347.701416015625 C 97.4563980102539 348.5171813964844 95.58694458007812 349.3814697265625 93.42010498046875 350.21319580078125 C 90.96356201171875 351.00164794921875 88.21017456054688 351.17010498046875 85.6278305053711 350.2451171875 C 84.046142578125 348.1336669921875 83.71499633789062 345.2999572753906 84.71338653564453 342.3210144042969 C 86.29935455322266 339.6358642578125 87.83277130126953 337.94671630859375 88.82015228271484 337.2650146484375 C 89.17784118652344 337.11016845703125 88.96490478515625 337.40069580078125 88.31678771972656 338.1352844238281 C 87.33270263671875 339.3535461425781 86.1988754272461 340.7843933105469 84.94419860839844 342.181884765625 C 83.42517852783203 343.05792236328125 81.66609954833984 342.7652282714844 79.69782257080078 340.967529296875 C 77.61649322509766 338.3334045410156 75.29837036132812 335.8106689453125 72.80215454101562 333.716796875 C 70.8139877319336 331.8843994140625 69.9595947265625 330.2249755859375 70.36900329589844 328.7583923339844 C 71.76959991455078 327.5682678222656 73.89337158203125 326.5782470703125 76.02649688720703 325.8170471191406 C 77.4691390991211 325.2966613769531 77.80644989013672 325.14215087890625 76.99702453613281 325.53179931640625 C 75.13774871826172 326.50897216796875 72.43347930908203 327.7340393066406 69.29612731933594 328.6279602050781 C 66.07617950439453 328.8066711425781 63.10881423950195 328.2571105957031 60.86613464355469 327.0245666503906 C 59.82310104370117 325.2505798339844 60.08971405029297 323.2034912109375 61.43551254272461 320.9397888183594 C 63.346031188964844 318.49505615234375 65.48493957519531 316.0187683105469 67.5074234008789 313.7765197753906 C 69.16036987304688 311.9336242675781 70.5198974609375 310.41015625 71.7894515991211 309.0700378417969 C 73.0533218383789 307.86248779296875 74.38263702392578 306.6726989746094 75.75941467285156 305.3493957519531 C 77.16275024414062 303.96722412109375 78.59947967529297 302.5438232421875 80.04138946533203 301.1043395996094 C 81.39656829833984 299.75872802734375 82.7181396484375 298.55633544921875 84.07369995117188 297.3749694824219 C 85.52685546875 296.1827087402344 87.05335235595703 294.9217224121094 88.74152374267578 293.47869873046875 C 90.75537109375 291.78021240234375 92.98078918457031 290.0654602050781 95.266357421875 288.67144775390625 C 97.407958984375 287.9328918457031 99.15421295166016 288.0506896972656 100.2547836303711 289.1402587890625 C 100.34259796142578 291.0755920410156 99.93547058105469 293.1865539550781 99.5377197265625 294.8824462890625 C 99.33621978759766 295.6546325683594 99.31700134277344 295.02716064453125 99.50101470947266 292.9020080566406 C 99.87222290039062 289.62249755859375 100.35128784179688 285.81866455078125 110.16852569580078 294.80816650390625" stroke-width="0.0" fill="rgb(252, 188, 101)" opacity="0.99984455" stroke="rgb(84, 53, 108)" stroke-opacity="0.49362096" stroke-linecap="round" stroke-linejoin="round"/>
    <path d="M 197.7173309326172 133.69805908203125 C 202.7842254638672 133.36398315429688 207.11622619628906 133.17764282226562 209.6252899169922 133.78793334960938 C 209.69525146484375 135.5318603515625 208.0069580078125 137.866455078125 206.29258728027344 140.2251739501953 C 206.0432586669922 142.40106201171875 207.45643615722656 143.88082885742188 209.62899780273438 144.30625915527344 C 211.7532501220703 143.1013946533203 213.8165283203125 142.17083740234375 215.61302185058594 142.3057861328125 C 216.5873260498047 143.09423828125 216.7591552734375 144.71844482421875 216.57492065429688 147.1775665283203 C 216.51611328125 149.96060180664062 216.5419464111328 152.46929931640625 216.3896026611328 154.22988891601562 C 215.05897521972656 154.72174072265625 212.86590576171875 154.5306396484375 210.12693786621094 154.51451110839844 C 207.0739288330078 154.5290069580078 203.9771728515625 154.5634307861328 201.23965454101562 154.48504638671875 C 198.9501190185547 154.5153350830078 197.2198486328125 154.62405395507812 196.3394012451172 154.3734130859375 C 196.3570098876953 153.190185546875 196.51950073242188 151.0943603515625 196.4716033935547 148.3273468017578 C 196.49940490722656 145.2667236328125 196.5947723388672 142.23536682128906 196.45713806152344 139.49688720703125 C 196.21046447753906 137.47776794433594 196.60543823242188 136.49179077148438 197.9712677001953 136.37559509277344 C 199.8953094482422 136.6936492919922 202.059814453125 137.08712768554688 197.7173309326172 133.69805908203125" stroke-width="0.0" fill="rgb(5, 3, 4)" opacity="0.999535" stroke="rgb(4, 5, 165)" stroke-opacity="0.8826249" stroke-linecap="round" stroke-linejoin="round"/>
    <path d="M 317.7816467285156 104.14898681640625 C 316.3802795410156 109.47315216064453 313.560546875 113.6058349609375 310.29547119140625 116.44622039794922 C 308.6423034667969 118.8574447631836 308.9910888671875 120.64350128173828 310.61737060546875 121.829345703125 C 312.1603088378906 122.47093963623047 313.4635925292969 121.9002685546875 315.5266418457031 120.47260284423828 C 319.34521484375 120.32905578613281 324.3985900878906 120.52506256103516 328.8948669433594 120.29107666015625 C 330.64593505859375 121.39842987060547 330.3060302734375 124.35232543945312 328.9686279296875 128.8214874267578 C 328.4469909667969 134.08758544921875 326.1851501464844 136.7449951171875 321.6198425292969 137.4679412841797 C 316.70159912109375 138.96807861328125 312.0201416015625 140.27969360351562 307.8352966308594 141.79220581054688 C 304.6399841308594 142.84410095214844 302.2333068847656 142.94020080566406 300.4705810546875 142.46157836914062 C 299.3063049316406 141.00897216796875 297.7244873046875 138.61709594726562 295.95819091796875 135.47618103027344 C 293.47265625 132.22235107421875 291.79736328125 127.90930938720703 291.6279602050781 123.12555694580078 C 291.50677490234375 118.26036834716797 292.6586608886719 114.6349868774414 294.8230895996094 112.15843963623047 C 297.1472473144531 109.65695190429688 296.8362731933594 104.81221771240234 317.7816467285156 104.14898681640625" stroke-width="0.0" fill="rgb(23, 3, 4)" opacity="0.9994791" stroke="rgb(42, 191, 131)" stroke-opacity="0.7509132" stroke-linecap="round" stroke-linejoin="round"/>
    <path d="M 424.5995178222656 342.5086364746094 C 429.2669372558594 346.3272399902344 432.9601745605469 349.9474182128906 435.65081787109375 353.3790283203125 C 437.8231201171875 356.0858154296875 439.90692138671875 357.2869873046875 441.6770935058594 356.6466979980469 C 442.2624816894531 354.47625732421875 441.5017395019531 351.0857238769531 439.3547668457031 347.5916442871094 C 437.70245361328125 343.90740966796875 437.6994934082031 341.3643798828125 439.2811279296875 341.3882141113281 C 441.0436706542969 344.68841552734375 443.12689208984375 349.1282043457031 444.85626220703125 353.6085205078125 C 445.67584228515625 356.7371826171875 445.1141357421875 358.9071350097656 443.6936340332031 360.0320129394531 C 442.08441162109375 360.7864074707031 440.3434753417969 360.91436767578125 438.57684326171875 361.0696105957031 C 436.9405517578125 360.47576904296875 435.6966247558594 359.4785461425781 434.7608642578125 358.5049133300781 C 434.00933837890625 357.98638916015625 433.6467590332031 357.3854064941406 432.8514709472656 356.5500793457031 C 431.7419738769531 355.0483703613281 430.5082702636719 353.3288879394531 429.5252380371094 352.1225280761719 C 429.24853515625 351.54248046875 429.4646911621094 351.34613037109375 429.12066650390625 351.0833435058594 C 427.582763671875 349.6189270019531 425.0699768066406 347.2652282714844 424.5995178222656 342.5086364746094" stroke-width="0.0" fill="rgb(67, 35, 22)" opacity="0.9998817" stroke="rgb(111, 65, 159)" stroke-opacity="0.7152889" stroke-linecap="round" stroke-linejoin="round"/>
    <path d="M 182.3070068359375 474.7200622558594 C 185.68199157714844 474.9335021972656 188.77413940429688 475.1217956542969 191.12940979003906 475.2900390625 C 192.51844787597656 475.7076110839844 193.1227569580078 476.3014221191406 193.31655883789062 476.7756042480469 C 193.18612670898438 476.8890075683594 192.9744110107422 476.6437072753906 192.88487243652344 476.1242370605469 C 193.13320922851562 475.58074951171875 193.9169921875 475.2244873046875 195.27798461914062 475.0479736328125 C 197.11721801757812 474.9864501953125 199.2286834716797 474.9933166503906 201.58885192871094 475.0465393066406 C 204.0449981689453 475.0665283203125 206.4186248779297 475.0361633300781 208.54702758789062 474.9882507324219 C 210.23550415039062 475.03009033203125 211.28663635253906 475.4224548339844 211.61192321777344 476.4403076171875 C 211.34971618652344 478.0164794921875 210.96730041503906 479.8946228027344 210.7579345703125 481.725341796875 C 210.63548278808594 483.3565673828125 210.52651977539062 484.5790710449219 210.43064880371094 485.4658508300781 C 210.3511505126953 486.1151123046875 210.2757110595703 486.67767333984375 210.15478515625 487.33551025390625 C 210.0264892578125 488.139892578125 209.925537109375 489.1972961425781 209.8176727294922 490.576416015625 C 209.7211456298828 492.2877197265625 209.60574340820312 494.1332702636719 209.4286346435547 495.9999084472656 C 209.2216796875 498.037109375 208.92529296875 500.4504699707031 208.62818908691406 503.240966796875 C 208.4447021484375 506.29547119140625 209.16571044921875 509.54052734375 211.30093383789062 512.8848266601562 C 212.91061401367188 516.8521728515625 212.58909606933594 521.4691162109375 209.9123077392578 526.2124633789062 C 205.07749938964844 529.2247924804688 199.47003173828125 529.75048828125 194.4974822998047 527.5134887695312 C 190.96131896972656 524.1349487304688 189.2530975341797 520.68798828125 188.77980041503906 517.3720092773438 C 188.38433837890625 514.4765014648438 188.37852478027344 512.6159057617188 189.08277893066406 512.2081298828125 C 189.42857360839844 513.5 189.1331329345703 516.33447265625 189.3607940673828 520.428955078125 C 190.2338409423828 525.3388671875 189.47755432128906 529.8355102539062 185.620361328125 532.5132446289062 C 179.73550415039062 531.8219604492188 174.2292022705078 528.5701293945312 169.40435791015625 524.068603515625 C 164.93505859375 520.1112670898438 162.41566467285156 516.1600952148438 162.98680114746094 511.7882995605469 C 166.2842254638672 507.41278076171875 168.96693420410156 503.0889892578125 169.50027465820312 499.3053283691406 C 169.42059326171875 496.4743347167969 169.1835174560547 494.437744140625 169.04783630371094 492.8509521484375 C 169.05694580078125 491.460205078125 169.18206787109375 490.0647277832031 169.3322296142578 488.6290588378906 C 169.42218017578125 487.12103271484375 169.49014282226562 485.4565124511719 169.4710693359375 483.50665283203125 C 169.33877563476562 481.17864990234375 169.15261840820312 478.6589050292969 168.97193908691406 476.2832336425781 C 168.92433166503906 474.3984069824219 169.5278778076172 473.2828063964844 171.11570739746094 473.06170654296875 C 173.5272216796875 473.5 176.2393798828125 473.92987060546875 178.8249053955078 474.20892333984375 C 180.87684631347656 474.6585693359375 181.98329162597656 475.4398498535156 182.24072265625 476.66375732421875 C 181.9886016845703 478.1824035644531 181.5469970703125 479.8257751464844 182.3070068359375 474.7200622558594" stroke-width="0.0" fill="rgb(252, 188, 102)" opacity="0.9997175" stroke="rgb(146, 36, 21)" stroke-opacity="0.11324212" stroke-linecap="round" stroke-linejoin="round"/>
    <path d="M 371.055908203125 271.666748046875 C 373.37652587890625 275.79107666015625 375.2715148925781 279.3000183105469 376.3997497558594 281.7881164550781 C 376.86431884765625 283.40399169921875 377.2785339355469 284.2171325683594 377.8800964355469 284.4059143066406 C 378.8952331542969 284.2818908691406 380.30743408203125 284.15093994140625 381.8731384277344 284.36944580078125 C 383.3351135253906 285.0899963378906 384.4127197265625 286.2998352050781 385.0437927246094 287.7837829589844 C 385.1004638671875 289.2208557128906 384.6432800292969 290.3656921386719 383.8360900878906 291.189697265625 C 382.7414245605469 291.7165222167969 381.45904541015625 292.0039978027344 380.2291259765625 292.1790466308594 C 379.1217041015625 292.3152770996094 378.1379089355469 292.38018798828125 377.3118896484375 292.339599609375 C 376.7043151855469 292.2610168457031 376.3669738769531 292.1424255371094 376.3437194824219 292.0124206542969 C 376.6140441894531 291.9615478515625 377.2470703125 291.907958984375 378.2171936035156 291.8154296875 C 379.60247802734375 291.65692138671875 381.47869873046875 291.39276123046875 383.76043701171875 291.0859069824219 C 386.2393798828125 290.9541015625 388.5335388183594 291.26007080078125 390.2481689453125 292.23193359375 C 391.02398681640625 293.8679504394531 390.94842529296875 295.7736511230469 390.2783203125 297.6507873535156 C 389.26287841796875 299.3382263183594 388.0751953125 300.7146301269531 386.96826171875 301.83453369140625 C 386.09747314453125 302.7247619628906 385.5072937011719 303.2783203125 385.2041931152344 303.48858642578125 C 385.1206359863281 303.3361511230469 385.36077880859375 302.8704528808594 385.92822265625 302.21429443359375 C 386.7181396484375 301.3205871582031 387.76776123046875 300.336669921875 388.9324645996094 299.1317443847656 C 390.2328186035156 297.7771911621094 391.68475341796875 296.6383361816406 393.4272766113281 296.0632629394531 C 395.3059387207031 296.2314758300781 397.07958984375 296.97003173828125 398.6181945800781 298.2874450683594 C 399.79180908203125 299.8495788574219 400.6545715332031 301.25048828125 401.2825012207031 302.4393005371094 C 401.5957946777344 303.5252990722656 401.7702331542969 304.5782470703125 401.8601379394531 305.6878967285156 C 401.8807678222656 306.8238220214844 401.71673583984375 307.932861328125 401.48577880859375 308.8882751464844 C 401.1755676269531 309.7021179199219 401.0703125 310.4200744628906 401.208251953125 311.0680236816406 C 401.7498474121094 311.7295837402344 402.6771545410156 312.63702392578125 403.6490783691406 313.79266357421875 C 404.3401184082031 315.3968811035156 404.4749450683594 317.403076171875 404.1227111816406 319.7080383300781 C 403.1842041015625 322.10516357421875 401.71685791015625 324.268310546875 399.7953796386719 325.8628845214844 C 397.5300598144531 326.7109680175781 395.0939636230469 326.9393005371094 392.6966857910156 326.69598388671875 C 390.5751647949219 326.07928466796875 388.91796875 325.0859069824219 387.77972412109375 323.8605651855469 C 387.1923828125 322.59552001953125 386.96734619140625 321.55364990234375 386.9228820800781 321.0587463378906 C 386.83233642578125 321.10015869140625 386.5461730957031 321.5338439941406 385.871337890625 322.188232421875 C 384.8466491699219 322.8536376953125 383.5939025878906 323.3587646484375 382.1421203613281 323.5772399902344 C 380.7248229980469 323.52227783203125 379.49627685546875 323.158447265625 378.40704345703125 322.7613830566406 C 377.5014953613281 322.4471435546875 376.75567626953125 322.3296813964844 375.9786682128906 322.3416748046875 C 375.16925048828125 322.2994079589844 374.2166748046875 322.1929016113281 373.0596008300781 322.1565856933594 C 371.8289794921875 321.992919921875 370.6133728027344 321.6776428222656 369.4903564453125 321.13653564453125 C 368.58575439453125 320.326416015625 367.9186096191406 319.31976318359375 367.43927001953125 318.2674255371094 C 367.06591796875 317.35693359375 366.7287902832031 316.651611328125 366.3602600097656 316.0175476074219 C 365.9284362792969 315.3263244628906 365.5623779296875 314.4930725097656 365.273193359375 313.4712829589844 C 365.12066650390625 312.2590026855469 365.162109375 311.0077819824219 365.3126525878906 309.8371887207031 C 365.62786865234375 308.8043518066406 366.03271484375 307.99163818359375 366.38653564453125 307.455078125 C 366.4992980957031 307.13275146484375 366.21002197265625 306.9502258300781 365.33709716796875 306.89276123046875 C 363.9321594238281 306.8475341796875 361.97967529296875 306.724365234375 359.9035949707031 306.30560302734375 C 358.193359375 305.1582336425781 357.0489807128906 303.4617004394531 356.4444885253906 301.6435852050781 C 356.3668518066406 299.88653564453125 356.748779296875 298.2060852050781 357.42529296875 296.6128845214844 C 358.22149658203125 295.018310546875 359.0951232910156 293.3349304199219 360.0573425292969 291.58837890625 C 361.0736389160156 289.936767578125 362.3073425292969 288.56121826171875 363.82427978515625 287.62457275390625 C 365.5751953125 287.19732666015625 367.4473876953125 287.19012451171875 369.1794738769531 287.4328918457031 C 370.7582092285156 287.69195556640625 371.9125671386719 287.96630859375 372.6703796386719 288.16046142578125 C 372.9674987792969 288.3814392089844 372.81903076171875 288.5533752441406 372.1190185546875 288.5566711425781 C 370.6955871582031 288.32403564453125 368.5876770019531 287.8916320800781 365.7227783203125 287.2677307128906 C 362.29364013671875 286.3726806640625 358.5960388183594 285.3514709472656 371.055908203125 271.666748046875" stroke-width="0.0" fill="rgb(252, 189, 101)" opacity="1.0" stroke="rgb(220, 162, 176)" stroke-opacity="0.8538831" stroke-linecap="round" stroke-linejoin="round"/>
    <path d="M 289.0 15.0 C 290.0 15.0 291.0 16.0 292.0 16.0 C 293.0 15.0 294.0 15.0 295.0 15.0 C 296.0 15.0 296.0 16.0 297.0 17.0 C 298.0 17.0 302.0 17.0 303.0 23.0 C 302.0 29.0 306.0 33.0 311.0 34.0 C 316.0 36.0 315.0 39.0 318.0 43.0 C 318.0 47.0 318.0 53.0 319.0 59.0 C 320.0 64.0 323.0 60.0 326.0 65.0 C 332.0 65.0 335.0 67.0 337.0 68.0 C 334.0 73.0 333.0 78.0 328.0 79.0 C 322.0 78.0 316.0 79.0 314.0 82.0 C 310.0 78.0 304.0 78.0 302.0 84.0 C 304.0 90.0 304.0 91.0 300.0 95.0 C 296.0 94.0 292.0 96.0 287.0 95.0 C 281.0 94.0 275.0 94.0 269.0 94.0 C 263.0 94.0 257.0 94.0 257.0 92.0 C 257.0 86.0 255.0 80.0 250.0 78.0 C 244.0 78.0 238.0 79.0 232.0 78.0 C 228.0 79.0 222.0 79.0 222.0 85.0 C 223.0 91.0 222.0 97.0 222.0 103.0 C 224.0 108.0 229.0 109.0 226.0 108.0 C 222.0 110.0 216.0 110.0 210.0 110.0 C 204.0 110.0 198.0 110.0 192.0 110.0 C 186.0 110.0 181.0 112.0 180.0 112.0 C 175.0 110.0 169.0 110.0 163.0 110.0 C 159.0 113.0 155.0 110.0 149.0 110.0 C 144.0 112.0 142.0 117.0 142.0 123.0 C 143.0 129.0 142.0 135.0 142.0 141.0 C 145.0 145.0 140.0 143.0 134.0 142.0 C 128.0 142.0 126.0 148.0 126.0 154.0 C 129.0 159.0 129.0 165.0 126.0 169.0 C 127.0 175.0 126.0 177.0 126.0 183.0 C 126.0 189.0 121.0 190.0 117.0 190.0 C 111.0 191.0 105.0 190.0 99.0 190.0 C 93.0 190.0 87.0 190.0 81.0 190.0 C 75.0 190.0 69.0 190.0 65.0 188.0 C 65.0 182.0 65.0 176.0 65.0 170.0 C 64.0 166.0 65.0 160.0 68.0 160.0 C 74.0 160.0 80.0 160.0 81.0 154.0 C 81.0 148.0 81.0 142.0 80.0 136.0 C 81.0 130.0 81.0 124.0 82.0 119.0 C 88.0 119.0 87.0 113.0 93.0 113.0 C 97.0 110.0 97.0 104.0 97.0 98.0 C 102.0 97.0 108.0 97.0 113.0 94.0 C 108.0 91.0 112.0 89.0 113.0 83.0 C 117.0 81.0 123.0 80.0 126.0 76.0 C 129.0 71.0 129.0 65.0 135.0 65.0 C 140.0 62.0 144.0 59.0 145.0 53.0 C 147.0 49.0 153.0 49.0 159.0 49.0 C 161.0 43.0 161.0 37.0 163.0 33.0 C 167.0 32.0 171.0 30.0 175.0 33.0 C 181.0 33.0 187.0 33.0 190.0 36.0 C 190.0 42.0 192.0 48.0 198.0 49.0 C 204.0 49.0 210.0 49.0 216.0 49.0 C 222.0 49.0 224.0 44.0 225.0 38.0 C 227.0 33.0 231.0 33.0 237.0 33.0 C 241.0 29.0 241.0 23.0 246.0 23.0 C 247.0 17.0 253.0 17.0 259.0 17.0 C 265.0 17.0 271.0 17.0 277.0 17.0 C 283.0 17.0 288.0 15.0 289.0 15.0" stroke-width="0.0" fill="rgb(61, 40, 37)" opacity="1.0" stroke="rgb(134, 50, 88)" stroke-opacity="0.20034397" stroke-linecap="round" stroke-linejoin="round"/>
    <path d="M 308.0 539.0 C 309.0 540.0 310.0 540.0 311.0 541.0 C 312.0 541.0 313.0 541.0 314.0 541.0 C 315.0 542.0 316.0 542.0 317.0 542.0 C 318.0 543.0 319.0 543.0 319.0 544.0 C 320.0 545.0 321.0 545.0 322.0 545.0 C 323.0 546.0 324.0 546.0 325.0 547.0 C 326.0 547.0 327.0 548.0 328.0 548.0 C 328.0 549.0 328.0 550.0 327.0 550.0 C 326.0 550.0 325.0 549.0 324.0 549.0 C 323.0 549.0 322.0 548.0 321.0 548.0 C 320.0 548.0 320.0 547.0 320.0 546.0 C 319.0 545.0 318.0 545.0 317.0 545.0 C 316.0 544.0 315.0 544.0 314.0 543.0 C 313.0 543.0 312.0 543.0 311.0 543.0 C 310.0 543.0 309.0 543.0 308.0 542.0 C 307.0 541.0 306.0 541.0 305.0 540.0 C 305.0 539.0 305.0 538.0 308.0 539.0" stroke-width="0.0" fill="rgb(80, 49, 43)" opacity="1.0" stroke="rgb(247, 171, 10)" stroke-opacity="0.39002186" stroke-linecap="round" stroke-linejoin="round"/>
    <path d="M 243.0 467.0 C 244.0 467.0 245.0 468.0 246.0 468.0 C 246.0 469.0 246.0 470.0 247.0 471.0 C 248.0 471.0 249.0 471.0 250.0 471.0 C 251.0 471.0 252.0 471.0 253.0 471.0 C 254.0 472.0 255.0 472.0 256.0 472.0 C 257.0 472.0 258.0 472.0 259.0 472.0 C 260.0 472.0 261.0 472.0 262.0 472.0 C 264.0 473.0 267.0 473.0 270.0 473.0 C 273.0 473.0 276.0 473.0 279.0 473.0 C 282.0 473.0 285.0 473.0 286.0 475.0 C 286.0 478.0 288.0 480.0 286.0 481.0 C 285.0 484.0 285.0 487.0 284.0 490.0 C 284.0 493.0 286.0 495.0 287.0 497.0 C 284.0 498.0 283.0 501.0 283.0 504.0 C 286.0 505.0 289.0 506.0 292.0 506.0 C 293.0 508.0 296.0 509.0 299.0 510.0 C 302.0 510.0 304.0 512.0 303.0 514.0 C 301.0 512.0 299.0 515.0 302.0 516.0 C 301.0 518.0 298.0 518.0 297.0 515.0 C 296.0 518.0 294.0 521.0 291.0 522.0 C 289.0 524.0 288.0 522.0 287.0 520.0 C 284.0 520.0 281.0 518.0 278.0 517.0 C 275.0 516.0 272.0 518.0 270.0 519.0 C 267.0 520.0 264.0 520.0 261.0 519.0 C 258.0 519.0 256.0 522.0 253.0 524.0 C 250.0 525.0 248.0 524.0 250.0 522.0 C 247.0 521.0 246.0 518.0 243.0 516.0 C 240.0 517.0 237.0 518.0 238.0 520.0 C 241.0 520.0 244.0 520.0 244.0 523.0 C 244.0 526.0 243.0 528.0 240.0 528.0 C 239.0 531.0 238.0 534.0 238.0 537.0 C 238.0 540.0 238.0 543.0 237.0 546.0 C 237.0 549.0 237.0 552.0 237.0 555.0 C 237.0 558.0 237.0 561.0 237.0 564.0 C 237.0 567.0 238.0 570.0 238.0 573.0 C 236.0 572.0 235.0 569.0 234.0 566.0 C 234.0 563.0 234.0 560.0 234.0 557.0 C 234.0 554.0 234.0 551.0 234.0 548.0 C 234.0 545.0 235.0 542.0 235.0 539.0 C 235.0 536.0 235.0 533.0 236.0 530.0 C 236.0 527.0 234.0 524.0 231.0 523.0 C 228.0 521.0 227.0 518.0 226.0 515.0 C 228.0 516.0 230.0 517.0 230.0 514.0 C 233.0 511.0 236.0 510.0 239.0 508.0 C 242.0 507.0 245.0 508.0 248.0 510.0 C 251.0 511.0 254.0 512.0 257.0 512.0 C 260.0 513.0 263.0 513.0 266.0 514.0 C 269.0 514.0 272.0 513.0 275.0 513.0 C 278.0 512.0 281.0 512.0 284.0 510.0 C 287.0 508.0 284.0 507.0 281.0 508.0 C 278.0 509.0 275.0 509.0 272.0 510.0 C 269.0 510.0 266.0 510.0 263.0 510.0 C 260.0 509.0 257.0 509.0 254.0 508.0 C 251.0 507.0 248.0 506.0 245.0 505.0 C 243.0 502.0 241.0 501.0 243.0 500.0 C 245.0 499.0 245.0 496.0 242.0 495.0 C 243.0 493.0 246.0 492.0 246.0 489.0 C 246.0 486.0 243.0 485.0 243.0 482.0 C 243.0 479.0 243.0 476.0 243.0 473.0 C 242.0 470.0 242.0 467.0 243.0 467.0" stroke-width="0.0" fill="rgb(249, 189, 107)" opacity="1.0" stroke="rgb(144, 127, 175)" stroke-opacity="0.69521296" stroke-linecap="round" stroke-linejoin="round"/>
    <path d="M 21.0 321.0 C 22.0 321.0 22.0 322.0 22.0 323.0 C 23.0 324.0 24.0 324.0 25.0 324.0 C 26.0 325.0 27.0 324.0 27.0 323.0 C 28.0 323.0 29.0 323.0 29.0 324.0 C 29.0 325.0 28.0 325.0 27.0 326.0 C 27.0 327.0 28.0 328.0 29.0 328.0 C 29.0 329.0 30.0 330.0 31.0 330.0 C 32.0 329.0 32.0 328.0 33.0 328.0 C 34.0 328.0 34.0 329.0 34.0 330.0 C 33.0 330.0 32.0 330.0 31.0 331.0 C 32.0 332.0 33.0 333.0 34.0 333.0 C 35.0 333.0 36.0 334.0 37.0 334.0 C 38.0 334.0 39.0 334.0 40.0 334.0 C 41.0 334.0 42.0 334.0 43.0 334.0 C 44.0 334.0 45.0 334.0 46.0 334.0 C 47.0 334.0 48.0 334.0 49.0 334.0 C 50.0 334.0 51.0 334.0 52.0 334.0 C 53.0 334.0 54.0 334.0 54.0 335.0 C 55.0 336.0 55.0 337.0 55.0 338.0 C 55.0 339.0 56.0 340.0 57.0 340.0 C 58.0 340.0 59.0 341.0 60.0 341.0 C 61.0 340.0 61.0 339.0 62.0 339.0 C 63.0 339.0 64.0 339.0 64.0 340.0 C 64.0 341.0 63.0 341.0 62.0 342.0 C 63.0 343.0 63.0 344.0 63.0 345.0 C 64.0 346.0 65.0 346.0 66.0 346.0 C 67.0 347.0 68.0 347.0 68.0 348.0 C 69.0 350.0 71.0 352.0 71.0 355.0 C 73.0 358.0 75.0 359.0 74.0 362.0 C 72.0 365.0 70.0 368.0 67.0 369.0 C 67.0 372.0 64.0 375.0 61.0 378.0 C 60.0 380.0 61.0 382.0 59.0 381.0 C 57.0 380.0 55.0 383.0 58.0 384.0 C 58.0 387.0 59.0 390.0 59.0 393.0 C 58.0 396.0 56.0 395.0 55.0 392.0 C 54.0 395.0 54.0 398.0 51.0 399.0 C 49.0 397.0 47.0 396.0 45.0 395.0 C 47.0 394.0 48.0 391.0 45.0 391.0 C 44.0 389.0 47.0 388.0 45.0 387.0 C 43.0 386.0 41.0 384.0 39.0 383.0 C 37.0 386.0 38.0 388.0 39.0 390.0 C 37.0 393.0 35.0 395.0 34.0 398.0 C 31.0 400.0 29.0 399.0 31.0 397.0 C 30.0 395.0 27.0 395.0 24.0 394.0 C 23.0 392.0 22.0 389.0 19.0 390.0 C 18.0 387.0 15.0 387.0 13.0 385.0 C 13.0 382.0 11.0 381.0 13.0 380.0 C 15.0 381.0 17.0 379.0 16.0 376.0 C 14.0 375.0 12.0 373.0 11.0 376.0 C 9.0 375.0 8.0 372.0 5.0 373.0 C 3.0 375.0 1.0 376.0 0.0 373.0 C 0.0 370.0 2.0 369.0 2.0 372.0 C 4.0 371.0 5.0 368.0 7.0 365.0 C 9.0 362.0 11.0 359.0 14.0 356.0 C 16.0 353.0 19.0 350.0 19.0 347.0 C 18.0 345.0 20.0 343.0 22.0 340.0 C 24.0 339.0 24.0 336.0 23.0 333.0 C 22.0 330.0 21.0 328.0 21.0 325.0 C 19.0 326.0 18.0 328.0 17.0 326.0 C 18.0 323.0 20.0 321.0 21.0 321.0" stroke-width="0.0" fill="rgb(250, 187, 103)" opacity="1.0" stroke="rgb(103, 242, 48)" stroke-opacity="0.9142832" stroke-linecap="round" stroke-linejoin="round"/>
  </g>
</svg>
