<?xml version="1.0" ?>
<svg xmlns="http://www.w3.org/2000/svg" version="1.1" width="474" height="596">
  <defs/>
  <g>
    <path d="M 266.0 0.0 C 267.0 0.0 268.0 0.0 269.0 0.0 C 270.0 0.0 271.0 0.0 272.0 0.0 C 273.0 0.0 274.0 0.0 275.0 0.0 C 276.0 0.0 277.0 0.0 278.0 0.0 C 279.0 0.0 286.0 0.0 294.0 3.0 C 302.0 5.0 310.0 8.0 318.0 11.0 C 326.0 15.0 334.0 19.0 342.0 23.0 C 350.0 28.0 358.0 33.0 366.0 40.0 C 374.0 46.0 382.0 54.0 390.0 62.0 C 397.0 70.0 404.0 78.0 410.0 86.0 C 415.0 94.0 421.0 102.0 426.0 110.0 C 430.0 118.0 433.0 126.0 431.0 134.0 C 428.0 142.0 423.0 150.0 417.0 158.0 C 410.0 166.0 403.0 174.0 396.0 180.0 C 388.0 187.0 380.0 194.0 372.0 200.0 C 364.0 205.0 356.0 211.0 348.0 215.0 C 340.0 219.0 332.0 221.0 324.0 223.0 C 316.0 225.0 320.0 220.0 328.0 215.0 C 336.0 209.0 344.0 202.0 351.0 194.0 C 358.0 186.0 362.0 178.0 366.0 170.0 C 369.0 162.0 370.0 154.0 371.0 146.0 C 370.0 138.0 369.0 130.0 367.0 122.0 C 363.0 114.0 358.0 106.0 350.0 98.0 C 342.0 93.0 334.0 94.0 326.0 96.0 C 318.0 97.0 312.0 100.0 305.0 99.0 C 297.0 101.0 289.0 103.0 281.0 104.0 C 273.0 106.0 265.0 108.0 257.0 107.0 C 250.0 99.0 242.0 93.0 238.0 95.0 C 243.0 103.0 246.0 111.0 240.0 115.0 C 232.0 116.0 224.0 118.0 216.0 120.0 C 208.0 122.0 200.0 125.0 192.0 128.0 C 184.0 131.0 176.0 134.0 168.0 138.0 C 163.0 132.0 159.0 124.0 157.0 130.0 C 157.0 138.0 155.0 146.0 147.0 151.0 C 144.0 159.0 142.0 167.0 142.0 175.0 C 143.0 183.0 145.0 191.0 149.0 199.0 C 154.0 207.0 160.0 214.0 167.0 221.0 C 175.0 227.0 183.0 232.0 191.0 236.0 C 199.0 239.0 207.0 241.0 215.0 242.0 C 223.0 243.0 217.0 245.0 209.0 244.0 C 201.0 242.0 193.0 239.0 185.0 239.0 C 177.0 240.0 169.0 242.0 162.0 240.0 C 154.0 240.0 146.0 239.0 138.0 239.0 C 130.0 237.0 122.0 236.0 114.0 234.0 C 106.0 232.0 98.0 229.0 90.0 226.0 C 82.0 223.0 74.0 219.0 66.0 215.0 C 58.0 209.0 54.0 201.0 54.0 193.0 C 54.0 185.0 55.0 177.0 57.0 169.0 C 58.0 161.0 60.0 153.0 62.0 145.0 C 65.0 137.0 68.0 129.0 71.0 121.0 C 75.0 113.0 79.0 105.0 83.0 97.0 C 88.0 89.0 94.0 81.0 100.0 73.0 C 107.0 65.0 115.0 57.0 123.0 50.0 C 131.0 43.0 139.0 37.0 147.0 31.0 C 155.0 27.0 163.0 25.0 171.0 24.0 C 179.0 24.0 187.0 25.0 195.0 26.0 C 203.0 28.0 211.0 31.0 215.0 27.0 C 220.0 32.0 221.0 28.0 227.0 26.0 C 234.0 19.0 242.0 12.0 250.0 7.0 C 258.0 3.0 265.0 0.0 266.0 0.0" stroke-width="0.0" fill="rgb(64, 38, 30)" opacity="1.0" stroke="rgb(75, 76, 114)" stroke-opacity="0.6093165" stroke-linecap="round" stroke-linejoin="round"/>
    <path d="M 318.0 244.0 C 337.0 250.0 356.0 258.0 372.0 270.0 C 391.0 279.0 410.0 293.0 429.0 289.0 C 422.0 294.0 403.0 291.0 384.0 279.0 C 365.0 272.0 359.0 291.0 351.0 310.0 C 362.0 320.0 381.0 324.0 400.0 326.0 C 418.0 340.0 435.0 353.0 443.0 359.0 C 427.0 348.0 408.0 337.0 389.0 329.0 C 370.0 326.0 351.0 322.0 334.0 323.0 C 324.0 327.0 321.0 346.0 323.0 365.0 C 318.0 380.0 314.0 398.0 311.0 417.0 C 306.0 436.0 301.0 455.0 294.0 472.0 C 288.0 489.0 290.0 505.0 304.0 515.0 C 291.0 527.0 288.0 524.0 272.0 524.0 C 256.0 528.0 244.0 519.0 239.0 535.0 C 237.0 554.0 239.0 573.0 258.0 578.0 C 277.0 581.0 296.0 581.0 315.0 580.0 C 334.0 576.0 338.0 558.0 342.0 571.0 C 325.0 581.0 306.0 583.0 287.0 583.0 C 268.0 582.0 249.0 580.0 234.0 568.0 C 234.0 549.0 235.0 530.0 226.0 516.0 C 239.0 509.0 242.0 494.0 243.0 475.0 C 233.0 460.0 226.0 464.0 215.0 477.0 C 212.0 496.0 209.0 497.0 211.0 478.0 C 195.0 475.0 176.0 473.0 169.0 485.0 C 168.0 504.0 184.0 511.0 203.0 510.0 C 220.0 515.0 212.0 531.0 215.0 550.0 C 217.0 569.0 210.0 585.0 191.0 586.0 C 172.0 592.0 154.0 595.0 135.0 595.0 C 118.0 586.0 125.0 568.0 121.0 578.0 C 133.0 591.0 152.0 592.0 171.0 588.0 C 190.0 583.0 209.0 582.0 213.0 565.0 C 212.0 546.0 209.0 527.0 198.0 527.0 C 189.0 525.0 181.0 531.0 184.0 519.0 C 178.0 526.0 164.0 523.0 158.0 523.0 C 157.0 508.0 166.0 493.0 165.0 474.0 C 157.0 458.0 155.0 439.0 153.0 420.0 C 152.0 401.0 136.0 396.0 118.0 383.0 C 115.0 364.0 114.0 345.0 97.0 351.0 C 79.0 358.0 76.0 365.0 71.0 368.0 C 81.0 353.0 92.0 350.0 111.0 340.0 C 129.0 330.0 123.0 317.0 120.0 308.0 C 119.0 292.0 106.0 281.0 97.0 279.0 C 103.0 284.0 92.0 289.0 102.0 272.0 C 121.0 259.0 140.0 249.0 159.0 242.0 C 168.0 246.0 166.0 254.0 159.0 261.0 C 152.0 272.0 154.0 291.0 151.0 309.0 C 151.0 321.0 151.0 338.0 156.0 355.0 C 158.0 369.0 164.0 379.0 158.0 375.0 C 174.0 374.0 160.0 366.0 163.0 347.0 C 165.0 332.0 170.0 333.0 176.0 315.0 C 181.0 303.0 192.0 298.0 192.0 287.0 C 196.0 274.0 201.0 262.0 205.0 255.0 C 215.0 247.0 232.0 255.0 251.0 251.0 C 258.0 260.0 261.0 259.0 271.0 267.0 C 275.0 280.0 281.0 296.0 295.0 302.0 C 297.0 312.0 307.0 313.0 315.0 332.0 C 320.0 331.0 318.0 312.0 311.0 294.0 C 316.0 298.0 326.0 315.0 330.0 307.0 C 321.0 300.0 317.0 283.0 312.0 266.0 C 301.0 251.0 303.0 241.0 318.0 244.0" stroke-width="0.0" fill="rgb(251, 110, 165)" opacity="1.0" stroke="rgb(144, 58, 37)" stroke-opacity="0.4684767" stroke-linecap="round" stroke-linejoin="round"/>
    <path d="M 341.0 94.0 C 342.0 94.0 343.0 94.0 344.0 94.0 C 344.0 95.0 345.0 96.0 346.0 96.0 C 346.0 97.0 346.0 98.0 347.0 99.0 C 348.0 99.0 349.0 100.0 350.0 100.0 C 351.0 100.0 351.0 101.0 351.0 102.0 C 352.0 103.0 355.0 107.0 359.0 111.0 C 362.0 117.0 365.0 122.0 366.0 127.0 C 367.0 133.0 369.0 138.0 369.0 144.0 C 370.0 149.0 368.0 154.0 367.0 160.0 C 366.0 166.0 363.0 171.0 361.0 176.0 C 358.0 182.0 354.0 187.0 350.0 192.0 C 346.0 196.0 342.0 201.0 337.0 206.0 C 331.0 210.0 325.0 215.0 319.0 217.0 C 313.0 220.0 313.0 224.0 311.0 228.0 C 305.0 231.0 299.0 233.0 293.0 236.0 C 287.0 237.0 291.0 239.0 297.0 240.0 C 302.0 242.0 297.0 243.0 295.0 248.0 C 300.0 252.0 305.0 257.0 307.0 262.0 C 311.0 266.0 312.0 272.0 316.0 277.0 C 317.0 282.0 315.0 288.0 312.0 290.0 C 312.0 284.0 311.0 278.0 308.0 273.0 C 304.0 268.0 300.0 263.0 295.0 257.0 C 291.0 252.0 285.0 247.0 280.0 243.0 C 274.0 241.0 268.0 242.0 267.0 248.0 C 265.0 252.0 260.0 253.0 254.0 253.0 C 255.0 247.0 253.0 245.0 247.0 245.0 C 243.0 247.0 249.0 247.0 248.0 251.0 C 242.0 251.0 237.0 252.0 232.0 254.0 C 226.0 251.0 220.0 250.0 223.0 248.0 C 224.0 242.0 218.0 240.0 212.0 241.0 C 206.0 240.0 201.0 237.0 196.0 235.0 C 191.0 232.0 185.0 231.0 183.0 227.0 C 177.0 227.0 173.0 223.0 171.0 218.0 C 165.0 217.0 160.0 212.0 157.0 206.0 C 154.0 204.0 150.0 198.0 148.0 192.0 C 146.0 186.0 144.0 181.0 143.0 176.0 C 143.0 170.0 144.0 165.0 145.0 159.0 C 148.0 154.0 151.0 150.0 156.0 148.0 C 158.0 143.0 157.0 138.0 158.0 133.0 C 162.0 132.0 161.0 137.0 165.0 140.0 C 170.0 139.0 176.0 138.0 180.0 134.0 C 185.0 131.0 191.0 132.0 196.0 128.0 C 202.0 126.0 208.0 124.0 214.0 124.0 C 220.0 124.0 217.0 121.0 222.0 121.0 C 228.0 119.0 233.0 117.0 239.0 116.0 C 244.0 115.0 247.0 110.0 244.0 105.0 C 246.0 100.0 241.0 97.0 246.0 97.0 C 250.0 101.0 253.0 106.0 257.0 110.0 C 262.0 112.0 267.0 109.0 273.0 109.0 C 279.0 107.0 284.0 105.0 289.0 106.0 C 294.0 102.0 299.0 105.0 305.0 102.0 C 310.0 99.0 308.0 102.0 307.0 104.0 C 313.0 104.0 319.0 105.0 325.0 109.0 C 328.0 115.0 330.0 121.0 329.0 127.0 C 328.0 133.0 332.0 136.0 332.0 133.0 C 335.0 132.0 341.0 133.0 342.0 129.0 C 346.0 128.0 345.0 124.0 345.0 118.0 C 347.0 113.0 342.0 111.0 342.0 106.0 C 338.0 106.0 336.0 102.0 332.0 100.0 C 334.0 95.0 340.0 94.0 341.0 94.0" stroke-width="0.0" fill="rgb(250, 187, 105)" opacity="1.0" stroke="rgb(142, 213, 74)" stroke-opacity="0.090272315" stroke-linecap="round" stroke-linejoin="round"/>
    <path d="M 170.0 383.0 C 171.0 383.0 172.0 383.0 173.0 383.0 C 174.0 383.0 175.0 383.0 176.0 383.0 C 177.0 383.0 178.0 383.0 179.0 383.0 C 180.0 383.0 181.0 384.0 182.0 385.0 C 183.0 385.0 184.0 385.0 185.0 385.0 C 186.0 385.0 187.0 385.0 188.0 385.0 C 189.0 385.0 190.0 385.0 190.0 386.0 C 191.0 387.0 192.0 387.0 193.0 387.0 C 194.0 387.0 195.0 387.0 196.0 387.0 C 195.0 387.0 194.0 387.0 193.0 387.0 C 192.0 388.0 192.0 389.0 191.0 389.0 C 190.0 390.0 190.0 391.0 190.0 392.0 C 191.0 393.0 190.0 394.0 190.0 395.0 C 190.0 396.0 190.0 397.0 190.0 398.0 C 190.0 399.0 191.0 400.0 192.0 401.0 C 193.0 401.0 194.0 401.0 195.0 401.0 C 196.0 401.0 198.0 401.0 202.0 400.0 C 206.0 400.0 207.0 400.0 211.0 401.0 C 215.0 401.0 219.0 401.0 223.0 401.0 C 227.0 400.0 231.0 400.0 235.0 400.0 C 239.0 400.0 242.0 398.0 246.0 398.0 C 250.0 398.0 254.0 398.0 257.0 396.0 C 261.0 396.0 265.0 398.0 269.0 399.0 C 272.0 398.0 274.0 401.0 278.0 401.0 C 282.0 401.0 286.0 400.0 288.0 399.0 C 292.0 400.0 296.0 400.0 300.0 400.0 C 302.0 402.0 302.0 406.0 304.0 410.0 C 302.0 413.0 304.0 416.0 302.0 420.0 C 302.0 424.0 302.0 428.0 300.0 430.0 C 296.0 430.0 292.0 430.0 290.0 434.0 C 290.0 438.0 287.0 436.0 286.0 440.0 C 286.0 444.0 286.0 448.0 286.0 452.0 C 286.0 456.0 286.0 460.0 284.0 462.0 C 280.0 462.0 276.0 462.0 272.0 462.0 C 268.0 462.0 264.0 462.0 260.0 462.0 C 257.0 461.0 256.0 457.0 256.0 453.0 C 256.0 449.0 257.0 445.0 257.0 441.0 C 256.0 437.0 257.0 433.0 254.0 430.0 C 250.0 430.0 246.0 430.0 242.0 430.0 C 238.0 430.0 234.0 430.0 230.0 430.0 C 226.0 430.0 223.0 433.0 227.0 435.0 C 231.0 435.0 235.0 435.0 237.0 435.0 C 233.0 435.0 229.0 435.0 225.0 435.0 C 223.0 438.0 225.0 441.0 229.0 441.0 C 229.0 441.0 225.0 442.0 222.0 445.0 C 220.0 447.0 216.0 447.0 212.0 447.0 C 209.0 449.0 207.0 452.0 206.0 456.0 C 206.0 460.0 204.0 462.0 200.0 462.0 C 198.0 465.0 194.0 464.0 191.0 462.0 C 187.0 462.0 183.0 462.0 179.0 464.0 C 177.0 462.0 177.0 458.0 177.0 454.0 C 173.0 452.0 171.0 455.0 169.0 454.0 C 166.0 454.0 168.0 451.0 170.0 448.0 C 166.0 446.0 162.0 446.0 161.0 443.0 C 161.0 439.0 161.0 435.0 161.0 431.0 C 161.0 427.0 161.0 423.0 161.0 419.0 C 161.0 415.0 161.0 411.0 159.0 408.0 C 159.0 404.0 159.0 400.0 159.0 396.0 C 159.0 392.0 161.0 388.0 162.0 385.0 C 166.0 385.0 169.0 383.0 170.0 383.0" stroke-width="0.0" fill="rgb(253, 76, 1)" opacity="1.0" stroke="rgb(42, 1, 70)" stroke-opacity="0.38518608" stroke-linecap="round" stroke-linejoin="round"/>
    <path d="M 221.0 374.0 C 222.0 374.0 223.0 374.0 223.0 375.0 C 224.0 376.0 225.0 376.0 226.0 376.0 C 227.0 376.0 228.0 376.0 229.0 376.0 C 230.0 376.0 231.0 376.0 240.0 376.0 C 249.0 376.0 256.0 376.0 265.0 376.0 C 274.0 376.0 282.0 376.0 287.0 380.0 C 296.0 379.0 303.0 379.0 312.0 380.0 C 315.0 386.0 314.0 395.0 313.0 404.0 C 311.0 413.0 310.0 422.0 307.0 431.0 C 304.0 440.0 302.0 449.0 301.0 458.0 C 299.0 467.0 292.0 473.0 289.0 481.0 C 286.0 484.0 285.0 488.0 287.0 495.0 C 283.0 498.0 286.0 505.0 289.0 505.0 C 298.0 506.0 304.0 513.0 298.0 518.0 C 291.0 522.0 282.0 527.0 275.0 531.0 C 269.0 533.0 263.0 532.0 257.0 530.0 C 249.0 531.0 243.0 527.0 238.0 534.0 C 238.0 543.0 238.0 552.0 237.0 561.0 C 238.0 570.0 235.0 571.0 234.0 562.0 C 233.0 553.0 234.0 544.0 235.0 535.0 C 236.0 526.0 229.0 523.0 227.0 514.0 C 234.0 508.0 241.0 502.0 242.0 493.0 C 242.0 484.0 242.0 475.0 239.0 468.0 C 234.0 462.0 231.0 454.0 227.0 460.0 C 226.0 469.0 220.0 474.0 215.0 480.0 C 213.0 489.0 212.0 498.0 210.0 507.0 C 218.0 511.0 219.0 520.0 212.0 526.0 C 213.0 535.0 211.0 540.0 210.0 531.0 C 205.0 530.0 199.0 534.0 191.0 533.0 C 184.0 535.0 175.0 534.0 170.0 529.0 C 162.0 528.0 159.0 537.0 156.0 537.0 C 159.0 528.0 154.0 521.0 153.0 513.0 C 161.0 506.0 166.0 499.0 166.0 490.0 C 166.0 481.0 163.0 472.0 158.0 465.0 C 157.0 456.0 156.0 447.0 155.0 438.0 C 155.0 429.0 154.0 420.0 153.0 411.0 C 153.0 402.0 155.0 395.0 158.0 402.0 C 160.0 410.0 160.0 419.0 160.0 428.0 C 160.0 437.0 160.0 446.0 167.0 450.0 C 168.0 455.0 173.0 453.0 176.0 460.0 C 181.0 465.0 190.0 463.0 198.0 466.0 C 205.0 463.0 207.0 455.0 211.0 448.0 C 220.0 448.0 226.0 442.0 229.0 440.0 C 224.0 436.0 233.0 436.0 236.0 434.0 C 227.0 434.0 231.0 431.0 240.0 431.0 C 249.0 431.0 256.0 434.0 256.0 443.0 C 255.0 452.0 256.0 461.0 264.0 463.0 C 273.0 463.0 282.0 463.0 287.0 458.0 C 287.0 449.0 287.0 440.0 291.0 434.0 C 298.0 432.0 303.0 426.0 305.0 417.0 C 303.0 413.0 303.0 405.0 299.0 399.0 C 290.0 399.0 283.0 400.0 274.0 400.0 C 267.0 397.0 258.0 395.0 250.0 397.0 C 241.0 397.0 233.0 399.0 224.0 399.0 C 215.0 400.0 208.0 398.0 200.0 399.0 C 191.0 399.0 191.0 390.0 195.0 386.0 C 187.0 384.0 178.0 382.0 181.0 378.0 C 189.0 381.0 198.0 383.0 207.0 384.0 C 200.0 381.0 195.0 378.0 204.0 378.0 C 213.0 377.0 220.0 374.0 221.0 374.0" stroke-width="0.0" fill="rgb(247, 78, 6)" opacity="1.0" stroke="rgb(199, 144, 147)" stroke-opacity="0.72062534" stroke-linecap="round" stroke-linejoin="round"/>
    <path d="M 178.0 238.0 C 179.0 238.0 180.0 238.0 181.0 238.0 C 182.0 238.0 183.0 238.0 184.0 238.0 C 185.0 238.0 186.0 238.0 187.0 238.0 C 188.0 238.0 189.0 239.0 190.0 239.0 C 191.0 239.0 192.0 240.0 193.0 240.0 C 194.0 240.0 195.0 241.0 196.0 241.0 C 197.0 242.0 198.0 242.0 199.0 242.0 C 199.0 243.0 200.0 244.0 201.0 243.0 C 202.0 243.0 203.0 243.0 204.0 243.0 C 205.0 243.0 209.0 244.0 213.0 248.0 C 209.0 253.0 205.0 253.0 200.0 253.0 C 200.0 260.0 197.0 265.0 195.0 272.0 C 195.0 279.0 194.0 286.0 189.0 289.0 C 192.0 295.0 190.0 301.0 184.0 302.0 C 180.0 306.0 177.0 311.0 174.0 317.0 C 171.0 323.0 168.0 330.0 167.0 335.0 C 163.0 331.0 163.0 337.0 164.0 344.0 C 161.0 351.0 157.0 356.0 152.0 360.0 C 152.0 367.0 152.0 374.0 153.0 381.0 C 149.0 385.0 149.0 392.0 155.0 392.0 C 156.0 385.0 161.0 382.0 168.0 380.0 C 173.0 382.0 167.0 384.0 160.0 385.0 C 158.0 392.0 156.0 398.0 155.0 405.0 C 155.0 412.0 155.0 419.0 156.0 426.0 C 154.0 427.0 154.0 420.0 153.0 413.0 C 152.0 406.0 153.0 399.0 147.0 397.0 C 140.0 397.0 133.0 395.0 126.0 392.0 C 119.0 385.0 116.0 378.0 115.0 371.0 C 114.0 364.0 113.0 357.0 113.0 350.0 C 113.0 343.0 106.0 347.0 99.0 350.0 C 92.0 354.0 85.0 356.0 89.0 361.0 C 83.0 365.0 76.0 365.0 73.0 371.0 C 68.0 377.0 61.0 382.0 59.0 389.0 C 58.0 396.0 56.0 403.0 49.0 403.0 C 45.0 397.0 44.0 390.0 39.0 390.0 C 35.0 397.0 28.0 401.0 22.0 396.0 C 20.0 391.0 13.0 392.0 9.0 386.0 C 11.0 379.0 10.0 375.0 4.0 378.0 C 0.0 373.0 2.0 367.0 6.0 360.0 C 11.0 353.0 16.0 346.0 21.0 339.0 C 18.0 332.0 17.0 325.0 22.0 320.0 C 29.0 323.0 36.0 329.0 43.0 330.0 C 46.0 325.0 51.0 320.0 58.0 320.0 C 63.0 313.0 70.0 306.0 77.0 299.0 C 84.0 294.0 91.0 288.0 96.0 287.0 C 99.0 286.0 106.0 288.0 106.0 282.0 C 109.0 287.0 114.0 291.0 117.0 296.0 C 119.0 303.0 119.0 309.0 124.0 311.0 C 122.0 318.0 126.0 323.0 128.0 328.0 C 127.0 334.0 123.0 333.0 120.0 337.0 C 117.0 343.0 122.0 342.0 127.0 338.0 C 133.0 336.0 139.0 333.0 143.0 338.0 C 145.0 343.0 147.0 337.0 149.0 331.0 C 151.0 324.0 151.0 321.0 151.0 314.0 C 153.0 307.0 154.0 300.0 156.0 294.0 C 154.0 287.0 153.0 280.0 153.0 273.0 C 157.0 270.0 160.0 264.0 160.0 257.0 C 167.0 255.0 169.0 248.0 173.0 244.0 C 167.0 245.0 163.0 243.0 163.0 240.0 C 170.0 240.0 177.0 238.0 178.0 238.0" stroke-width="0.0" fill="rgb(153, 129, 180)" opacity="1.0" stroke="rgb(22, 147, 239)" stroke-opacity="0.70849067" stroke-linecap="round" stroke-linejoin="round"/>
  </g>
</svg>
