<?xml version="1.0" ?>
<svg xmlns="http://www.w3.org/2000/svg" version="1.1" width="305" height="210">
  <defs/>
  <g>
    <path d="M -4.40021276473999 -5.291006565093994 C -2.732652425765991 -5.10653829574585 -0.7540439367294312 -4.933763027191162 1.851496934890747 -4.794890403747559 C 5.3320722579956055 -4.710136890411377 9.878698348999023 -4.6538777351379395 15.64041519165039 -4.615090370178223 C 22.744131088256836 -4.586679458618164 31.137176513671875 -4.5976738929748535 40.76534652709961 -4.650306224822998 C 51.4658203125 -4.75741720199585 63.00782012939453 -4.916884422302246 75.17184448242188 -5.104603290557861 C 87.72077178955078 -5.2944207191467285 100.44580841064453 -5.4830732345581055 113.14974975585938 -5.685836315155029 C 125.7090835571289 -5.851999759674072 138.0489959716797 -5.849193572998047 150.1400604248047 -5.599152088165283 C 162.0072784423828 -5.17624044418335 173.7714385986328 -4.894763469696045 185.67745971679688 -4.961012363433838 C 197.9612274169922 -5.18671178817749 210.79519653320312 -5.308582305908203 224.2645263671875 -5.087654113769531 C 238.2908935546875 -4.541071891784668 252.6510009765625 -4.25200080871582 266.9773254394531 -4.846161365509033 C 280.6277770996094 -6.925060749053955 292.7927551269531 -8.6133451461792 302.53778076171875 -8.17466926574707 C 308.97955322265625 -3.9642860889434814 311.6877746582031 4.592828750610352 311.5256652832031 16.994861602783203 C 310.19915771484375 31.89316749572754 309.8402404785156 47.87729263305664 310.98223876953125 63.548583984375 C 312.07635498046875 77.55010223388672 311.0205993652344 88.60920715332031 306.164794921875 95.93890380859375 C 297.32476806640625 99.55976867675781 285.5206298828125 100.35652923583984 271.8163146972656 99.26494598388672 C 257.28192138671875 97.22624969482422 242.98097229003906 95.12416076660156 229.9744110107422 93.76184844970703 C 219.2161865234375 93.82154083251953 211.54139709472656 95.76519775390625 207.6056365966797 99.5920181274414 C 207.96644592285156 104.90596771240234 210.95469665527344 110.72876739501953 214.68930053710938 115.8258056640625 C 217.76443481445312 119.03948211669922 220.1273956298828 120.10749053955078 221.81985473632812 119.15663146972656 C 223.25537109375 116.57782745361328 225.11219787597656 112.7062759399414 227.954345703125 108.13094329833984 C 232.38514709472656 103.58710479736328 238.41632080078125 100.01680755615234 246.0139617919922 98.07237243652344 C 254.69796752929688 98.08805084228516 263.94061279296875 100.12004089355469 273.2104187011719 104.10797882080078 C 282.04913330078125 109.94391632080078 290.0561828613281 117.41142272949219 296.863525390625 126.18135833740234 C 302.18133544921875 135.86656188964844 305.8138122558594 146.04457092285156 307.6846923828125 156.33554077148438 C 307.7928161621094 166.36959838867188 306.23388671875 175.76708984375 303.172119140625 184.16946411132812 C 298.83685302734375 191.24420166015625 293.5141296386719 196.80491638183594 287.53460693359375 200.7819366455078 C 281.24481201171875 203.138671875 274.96014404296875 204.04420471191406 268.8929748535156 203.8294677734375 C 263.1866760253906 202.99221801757812 257.934814453125 201.99131774902344 253.27362060546875 201.2275848388672 C 249.17129516601562 200.947998046875 245.59300231933594 201.17037963867188 242.4856414794922 201.886474609375 C 239.83334350585938 202.9900360107422 237.61856079101562 204.1999053955078 235.81790161132812 205.24349975585938 C 234.407470703125 205.7822265625 233.37721252441406 205.53651428222656 232.72760009765625 204.201904296875 C 232.41122436523438 201.58987426757812 232.33233642578125 197.5195770263672 232.37960815429688 191.94471740722656 C 232.41397094726562 185.17816162109375 232.42092895507812 177.67410278320312 232.48187255859375 170.04905700683594 C 232.7581329345703 163.04254150390625 233.21994018554688 157.34666442871094 233.73150634765625 153.60594177246094 C 234.0765380859375 152.3096923828125 233.74510192871094 153.31854248046875 232.00941467285156 156.30792236328125 C 228.137939453125 160.7421875 221.59034729003906 165.80101013183594 212.8700714111328 170.19839477539062 C 204.38763427734375 170.59555053710938 197.8936309814453 165.72967529296875 193.74058532714844 157.13790893554688 C 191.62557983398438 148.33335876464844 190.97354125976562 142.0024871826172 191.11056518554688 140.29354858398438 C 191.2938690185547 143.61477661132812 190.6622772216797 150.2447967529297 188.30992126464844 158.37823486328125 C 183.4428253173828 166.17698669433594 176.87088012695312 171.60060119628906 169.89422607421875 173.23086547851562 C 164.04881286621094 171.15037536621094 159.48155212402344 167.02093505859375 155.72987365722656 162.5062713623047 C 152.17774963378906 159.20462036132812 148.3553466796875 157.12330627441406 143.8297576904297 156.1183624267578 C 138.31399536132812 155.48699951171875 132.39971923828125 153.74685668945312 126.7862319946289 150.06826782226562 C 122.1121597290039 145.3954620361328 118.8066177368164 142.35250854492188 117.2226791381836 143.0895538330078 C 117.51112365722656 148.1949462890625 119.38761901855469 156.65000915527344 122.25582885742188 165.8604278564453 C 125.4266128540039 173.20579528808594 124.99564361572266 175.51669311523438 120.37300109863281 171.7043914794922 C 110.42559814453125 165.272216796875 100.0873794555664 157.08029174804688 93.90634155273438 146.55335998535156 C 91.165771484375 134.3829803466797 91.07843780517578 121.8909683227539 92.95187377929688 110.48278045654297 C 96.1626205444336 101.4998550415039 100.28096008300781 95.67523956298828 105.08956146240234 92.6309585571289 C 110.4539794921875 91.36211395263672 116.23580932617188 90.87834930419922 122.30485534667969 90.22969818115234 C 128.56491088867188 88.9082260131836 134.87135314941406 86.61990356445312 141.05609130859375 83.3594970703125 C 146.88839721679688 79.55467987060547 151.92010498046875 76.11698150634766 155.6248321533203 73.88616943359375 C 157.29734802246094 73.09326171875 156.24559020996094 73.04048919677734 152.28501892089844 73.2636489868164 C 145.55995178222656 73.28218078613281 136.9582061767578 73.40001678466797 127.3406982421875 74.9312515258789 C 117.36714935302734 79.06198120117188 107.49311065673828 84.89834594726562 97.89219665527344 91.43571472167969 C 88.41802215576172 97.52229309082031 78.00123596191406 102.35712432861328 66.13304138183594 105.62433624267578 C 52.910091400146484 107.50186920166016 38.96506881713867 108.583740234375 25.100845336914062 109.15576934814453 C 12.185588836669922 109.28399658203125 1.1449836492538452 107.8354721069336 -7.183979511260986 103.60879516601562 C -12.427173614501953 95.98583984375 -15.109288215637207 85.51028442382812 -15.749523162841797 72.74056243896484 C -14.847990036010742 58.26007843017578 -12.87896728515625 42.5883674621582 -10.239311218261719 26.208829879760742 C -7.266799449920654 9.456473350524902 -4.208168029785156 -7.418665885925293 -4.40021276473999 -5.291006565093994" stroke-width="0.0" fill="rgb(85, 77, 73)" opacity="0.99999094" stroke="rgb(164, 195, 90)" stroke-opacity="0.5909725" stroke-linecap="round" stroke-linejoin="round"/>
    <path d="M 8.90461254119873 105.44462585449219 C 10.003759384155273 105.2186050415039 11.101387977600098 104.98753356933594 12.253424644470215 104.7690200805664 C 13.511829376220703 104.56262969970703 14.902024269104004 104.37823486328125 16.437463760375977 104.22402954101562 C 18.131898880004883 104.11719512939453 20.029150009155273 104.06830596923828 22.18714141845703 104.08879089355469 C 24.653461456298828 104.1888198852539 27.472902297973633 104.35022735595703 30.669340133666992 104.5495376586914 C 34.24802017211914 104.75698852539062 38.210655212402344 104.94003295898438 42.517391204833984 105.05567169189453 C 47.05580139160156 105.0326156616211 51.72107696533203 105.00543212890625 56.38386535644531 105.13489532470703 C 60.867984771728516 105.59642791748047 64.9767074584961 106.39492797851562 68.51558685302734 107.52748107910156 C 71.26573181152344 108.96895599365234 73.07115936279297 110.64458465576172 73.8521728515625 112.43269348144531 C 73.65906524658203 114.20018768310547 72.78286743164062 115.83001708984375 71.51634216308594 117.14025115966797 C 70.2121353149414 118.05815887451172 69.20299530029297 118.71788024902344 68.80889892578125 119.33740234375 C 69.24238586425781 120.17176818847656 70.40412139892578 121.37706756591797 72.07022857666016 122.99761199951172 C 73.99404907226562 125.16254425048828 76.09343719482422 127.52449798583984 78.35498046875 129.5022430419922 C 80.90585327148438 131.30691528320312 83.2199478149414 132.98170471191406 84.85647583007812 134.5763397216797 C 85.4237289428711 136.68972778320312 85.23373413085938 139.25401306152344 84.82377624511719 142.06317138671875 C 84.83287811279297 144.85215759277344 85.438232421875 147.36630249023438 86.5 149.2349853515625 C 87.96355438232422 150.93865966796875 89.700927734375 152.75189208984375 91.66390228271484 154.52362060546875 C 93.86436462402344 156.22349548339844 96.24739837646484 157.79550170898438 98.74676513671875 159.195556640625 C 101.29402160644531 160.474365234375 103.82633209228516 161.67100524902344 106.24192810058594 162.86756896972656 C 108.44519805908203 164.16683959960938 110.36582946777344 165.6702880859375 111.91126251220703 167.46194458007812 C 112.9698715209961 169.56910705566406 113.525634765625 172.0286407470703 113.62273406982422 174.80825805664062 C 113.26882934570312 177.7805938720703 112.47570037841797 180.74339294433594 111.25872039794922 183.50640869140625 C 109.68701171875 185.8808135986328 107.80783081054688 187.8192138671875 105.65825653076172 189.31744384765625 C 103.24395751953125 190.4996337890625 100.55997467041016 191.57554626464844 97.65888214111328 192.69296264648438 C 94.6600341796875 193.94264221191406 91.71585845947266 195.1523895263672 89.03711700439453 196.0475311279297 C 86.83502197265625 196.32553100585938 85.20286560058594 195.940673828125 84.207275390625 194.9616241455078 C 83.91091918945312 193.67616271972656 84.23780059814453 192.36241149902344 85.04878997802734 191.28231811523438 C 86.2718505859375 190.6787872314453 87.72506713867188 190.60675048828125 89.4254150390625 191.00494384765625 C 91.24948120117188 191.71180725097656 93.04924774169922 192.54180908203125 94.72762298583984 193.3541717529297 C 96.22103881835938 193.99623107910156 97.48050689697266 194.4817657470703 98.54109954833984 194.875244140625 C 99.54266357421875 195.26026916503906 100.56304931640625 195.7593994140625 101.79815673828125 196.3804473876953 C 103.3796615600586 197.04165649414062 105.28707122802734 197.6240234375 107.44165802001953 198.05709838867188 C 109.75118255615234 198.29502868652344 112.10289764404297 198.3580322265625 114.40837097167969 198.3018798828125 C 116.60476684570312 198.19456481933594 118.69970703125 198.13607788085938 120.84685516357422 198.23643493652344 C 123.21473693847656 198.58860778808594 125.84072875976562 199.22877502441406 128.7230987548828 200.17169189453125 C 131.83775329589844 201.49679565429688 135.0301513671875 203.2311248779297 137.85633850097656 205.3941650390625 C 140.09132385253906 207.76231384277344 141.24493408203125 210.11610412597656 141.03016662597656 212.17047119140625 C 139.39366149902344 213.78977966308594 136.450439453125 214.77783203125 132.35841369628906 215.21743774414062 C 127.32103729248047 215.29840087890625 121.6239013671875 215.12286376953125 115.53054809570312 214.87704467773438 C 109.2982406616211 214.75692749023438 103.16584014892578 214.748779296875 97.31727600097656 214.78866577148438 C 91.88773345947266 214.94667053222656 86.99107360839844 215.31231689453125 82.6983413696289 215.84036254882812 C 79.04314422607422 216.27774047851562 76.00113677978516 216.30657958984375 73.52461242675781 215.8116455078125 C 71.56246185302734 214.83370971679688 69.99705505371094 213.63702392578125 68.7225341796875 212.5074462890625 C 67.675537109375 211.62393188476562 66.9081039428711 210.98077392578125 66.48590087890625 210.51870727539062 C 66.32555389404297 210.1809844970703 66.33868408203125 210.1007843017578 66.30998229980469 210.34629821777344 C 65.96955108642578 211.06695556640625 65.03147888183594 212.1097869873047 63.34083938598633 213.2757110595703 C 60.92528533935547 214.2837371826172 57.87326431274414 214.9276123046875 54.313026428222656 215.1746368408203 C 50.38390350341797 215.16082763671875 46.21430206298828 215.08575439453125 41.90261459350586 215.08682250976562 C 37.536495208740234 215.29124450683594 33.1732177734375 215.61227416992188 28.8167781829834 215.9826202392578 C 24.524438858032227 216.3489532470703 20.32778549194336 216.68453979492188 16.24126625061035 216.91873168945312 C 12.33096694946289 216.975341796875 8.68950366973877 216.66018676757812 5.403458595275879 215.7438201904297 C 2.535607099533081 214.04547119140625 0.12462670356035233 211.59197998046875 -1.8256032466888428 208.4502410888672 C -3.2998108863830566 204.71572875976562 -4.317259788513184 200.52207946777344 -4.923373699188232 195.99566650390625 C -5.1707305908203125 191.25091552734375 -5.1356658935546875 186.4325408935547 -4.974572658538818 181.66470336914062 C -4.780060291290283 177.0660400390625 -4.599739074707031 172.70626831054688 -4.504493713378906 168.59788513183594 C -4.53912878036499 164.7388458251953 -4.550867080688477 161.0360870361328 -4.509524345397949 157.38633728027344 C -4.412848949432373 153.67202758789062 -4.267302513122559 149.7870635986328 -4.0884690284729 145.65785217285156 C -3.903977394104004 141.29388427734375 -3.728151559829712 136.73289489746094 -3.5971152782440186 132.02288818359375 C -3.5322673320770264 127.250732421875 -3.550508975982666 122.5016098022461 -3.659270763397217 117.85116577148438 C -3.8474528789520264 113.36421203613281 -4.08824348449707 109.09766387939453 -4.37012243270874 105.0647964477539 C -4.649509429931641 101.24659729003906 -4.93450927734375 97.51570892333984 8.90461254119873 105.44462585449219" stroke-width="0.0" fill="rgb(129, 145, 84)" opacity="0.99998367" stroke="rgb(129, 54, 165)" stroke-opacity="0.574409" stroke-linecap="round" stroke-linejoin="round"/>
    <path d="M 225.9925537109375 129.3070068359375 C 227.5126495361328 130.2760772705078 228.99815368652344 131.23846435546875 230.40158081054688 132.1972198486328 C 231.75637817382812 133.0964813232422 233.01528930664062 133.9058380126953 234.1348876953125 134.65284729003906 C 235.1894073486328 135.2762908935547 236.13829040527344 135.77835083007812 237.03103637695312 136.22067260742188 C 237.90231323242188 136.62451171875 238.6982879638672 136.99916076660156 239.45028686523438 137.37623596191406 C 240.1522979736328 137.78761291503906 240.74986267089844 138.18069458007812 241.22415161132812 138.6509246826172 C 241.57093811035156 139.3002166748047 241.7539825439453 140.14076232910156 241.7957305908203 141.2075958251953 C 241.70811462402344 142.515625 241.50381469726562 144.03623962402344 241.19589233398438 145.7041473388672 C 240.86422729492188 147.44906616210938 240.49661254882812 149.18991088867188 240.15838623046875 150.83538818359375 C 239.8695068359375 152.26968383789062 239.65164184570312 153.39129638671875 239.5104217529297 154.08132934570312 C 239.42276000976562 154.249267578125 239.3695831298828 153.9291229248047 239.32525634765625 153.2032470703125 C 239.2484588623047 152.1925048828125 239.11334228515625 151.04551696777344 238.91839599609375 149.90060424804688 C 238.71485900878906 148.91744995117188 238.5574188232422 148.26417541503906 238.5223388671875 148.0712127685547 C 238.65631103515625 148.36500549316406 238.9832763671875 149.13441467285156 239.52313232421875 150.34327697753906 C 240.24830627441406 151.93165588378906 241.0546112060547 153.84056091308594 241.85293579101562 156.02523803710938 C 242.5456085205078 158.42430114746094 243.04830932617188 160.99057006835938 243.2886505126953 163.68515014648438 C 243.21214294433594 166.47621154785156 242.8852081298828 169.3416290283203 242.35670471191406 172.27090454101562 C 241.6732177734375 175.25796508789062 240.8897705078125 178.2955780029297 240.02923583984375 181.34793090820312 C 239.06381225585938 184.358154296875 237.9662628173828 187.2743377685547 236.7281036376953 190.01937866210938 C 235.31439208984375 192.51095581054688 233.66050720214844 194.65773010253906 231.7489013671875 196.39906311035156 C 229.6013641357422 197.68106079101562 227.30552673339844 198.45419311523438 225.04718017578125 198.7164764404297 C 223.05545043945312 198.5225372314453 221.62693786621094 197.9627227783203 221.10951232910156 197.2344970703125 C 221.76828002929688 196.50970458984375 223.09585571289062 196.086669921875 224.57020568847656 196.1454315185547 C 225.7412567138672 196.81324768066406 226.27406311035156 198.13226318359375 225.8885040283203 200.0496826171875 C 224.49037170410156 202.47061157226562 222.2763671875 205.20663452148438 219.54470825195312 208.06178283691406 C 216.5998992919922 210.77301025390625 213.73345947265625 213.1203155517578 211.20318603515625 214.9080047607422 C 209.20404052734375 216.0685577392578 207.57601928710938 216.62985229492188 206.023681640625 216.673583984375 C 204.33233642578125 216.33091735839844 202.3792266845703 215.79566955566406 200.1122589111328 215.26715087890625 C 197.5186767578125 214.94375610351562 194.6092529296875 214.93186950683594 191.3717498779297 215.16664123535156 C 187.8217010498047 215.49734497070312 183.9840850830078 215.82337951660156 179.8616943359375 216.04769897460938 C 175.44642639160156 216.0784149169922 170.73904418945312 216.0424041748047 165.798828125 216.06260681152344 C 160.7317657470703 216.20326232910156 155.66830444335938 216.34884643554688 150.66580200195312 216.3297119140625 C 145.8679962158203 215.8470458984375 141.56658935546875 214.59194946289062 138.0735321044922 212.3709259033203 C 135.6836700439453 209.21719360351562 134.588134765625 205.52333068847656 134.98025512695312 201.68995666503906 C 136.76405334472656 198.06109619140625 139.53271484375 195.15142822265625 142.70347595214844 193.3605194091797 C 145.518310546875 193.11715698242188 147.65174865722656 193.56585693359375 148.80911254882812 193.7713165283203 C 148.75546264648438 193.9160919189453 147.31240844726562 193.56088256835938 144.6873016357422 193.52548217773438 C 141.9477996826172 192.72109985351562 140.7970733642578 190.07803344726562 140.34231567382812 186.5117950439453 C 140.62074279785156 182.73837280273438 141.77162170410156 179.21926879882812 143.8393096923828 176.2582550048828 C 146.7918243408203 174.04864501953125 150.29266357421875 172.8063507080078 153.95523071289062 172.5399169921875 C 157.3223114013672 173.15054321289062 160.14907836914062 174.46278381347656 162.335205078125 176.34283447265625 C 163.91567993164062 178.65731811523438 164.9828643798828 181.14857482910156 165.69049072265625 183.56463623046875 C 166.131591796875 185.80343627929688 166.3878936767578 187.78350830078125 166.49388122558594 189.42672729492188 C 166.43760681152344 190.65518188476562 166.2954559326172 191.61439514160156 166.19064331054688 192.2980194091797 C 166.22079467773438 192.7756805419922 166.44322204589844 193.29159545898438 167.00460815429688 193.789794921875 C 167.82656860351562 194.36672973632812 168.93089294433594 194.87054443359375 170.22052001953125 195.2117462158203 C 171.23057556152344 195.25955200195312 171.95315551757812 194.88778686523438 172.3900909423828 194.0734405517578 C 172.63296508789062 192.73727416992188 172.8773956298828 191.10906982421875 173.36354064941406 189.52825927734375 C 174.38946533203125 188.20680236816406 175.9477996826172 187.28245544433594 177.9192657470703 186.8492431640625 C 180.14105224609375 186.92227172851562 182.40908813476562 187.44940185546875 184.50265502929688 188.34593200683594 C 186.20916748046875 189.44757080078125 187.41249084472656 190.60855102539062 188.12350463867188 191.68605041503906 C 188.3889923095703 192.57147216796875 188.29013061523438 193.22247314453125 187.9467010498047 193.54705810546875 C 187.52687072753906 193.50877380371094 187.177734375 193.0385284423828 187.0302276611328 192.0989532470703 C 187.17356872558594 190.6575469970703 187.61572265625 188.80975341796875 188.32290649414062 186.62811279296875 C 189.24557495117188 184.22035217285156 190.31851196289062 181.70147705078125 191.46218872070312 179.21585083007812 C 192.6233367919922 176.8446044921875 193.7879638671875 174.47915649414062 195.0223846435547 172.17813110351562 C 196.60418701171875 170.1109619140625 199.036865234375 168.67259216308594 202.40444946289062 168.4103240966797 C 206.2981414794922 169.8293914794922 209.60853576660156 169.99920654296875 213.28163146972656 168.00448608398438 C 216.72434997558594 163.81459045410156 219.7626495361328 158.7705841064453 221.82720947265625 154.27647399902344 C 222.99864196777344 150.14149475097656 223.28750610351562 146.1818389892578 223.22984313964844 142.2238006591797 C 223.6501007080078 138.00169372558594 224.48020935058594 133.80679321289062 225.9925537109375 129.3070068359375" stroke-width="0.0" fill="rgb(144, 154, 89)" opacity="1.0" stroke="rgb(116, 75, 184)" stroke-opacity="0.84723145" stroke-linecap="round" stroke-linejoin="round"/>
    <path d="M 114.86203002929688 66.9592056274414 C 129.0152130126953 68.55886840820312 141.5183868408203 70.55067443847656 151.3694305419922 71.33845520019531 C 158.20404052734375 70.56114959716797 160.35289001464844 71.04373931884766 156.64515686035156 72.75738525390625 C 152.095947265625 76.4081802368164 149.3519744873047 81.89977264404297 147.0823974609375 87.07457733154297 C 143.96072387695312 91.6265640258789 139.7827606201172 94.50212097167969 133.84544372558594 95.8750991821289 C 127.13329315185547 96.73936462402344 121.21541595458984 99.35086059570312 116.34149169921875 103.11460876464844 C 111.0148696899414 103.48799133300781 106.27852630615234 103.63182830810547 103.17166137695312 104.23606872558594 C 101.18097686767578 105.46665954589844 99.63021087646484 108.25402069091797 98.36346435546875 112.05387115478516 C 96.93515014648438 115.75221252441406 97.09452819824219 119.95968627929688 99.44113159179688 124.85216522216797 C 102.3703842163086 130.8548583984375 103.55982208251953 138.57867431640625 103.4201431274414 146.88243103027344 C 104.67022705078125 154.86056518554688 109.54401397705078 162.63616943359375 116.8563003540039 169.05551147460938 C 120.9764404296875 176.4060821533203 123.16127014160156 180.83216857910156 125.56248474121094 177.68544006347656 C 124.35836791992188 170.53619384765625 117.99314880371094 162.58604431152344 114.77803039550781 153.08905029296875 C 111.14226531982422 144.40467834472656 111.59976196289062 135.95603942871094 113.59799194335938 127.56721496582031 C 113.08271026611328 120.96055603027344 115.43274688720703 118.29000854492188 120.99259948730469 118.92300415039062 C 127.57122802734375 122.5591049194336 132.5413818359375 128.0770721435547 134.06802368164062 134.7516326904297 C 130.48387145996094 139.54844665527344 126.74916076660156 143.8463134765625 126.4576187133789 148.17478942871094 C 129.3282470703125 151.8659210205078 133.11590576171875 152.8365020751953 136.13319396972656 149.9790496826172 C 137.25106811523438 143.2073974609375 139.87289428710938 136.2135009765625 144.9890899658203 131.80618286132812 C 152.2570343017578 132.23876953125 159.05494689941406 137.36260986328125 165.17770385742188 145.22894287109375 C 171.71031188964844 151.37420654296875 175.20021057128906 157.3954620361328 174.0798797607422 163.15380859375 C 169.19798278808594 165.74232482910156 166.5525360107422 169.1437225341797 167.77223205566406 172.2681121826172 C 172.37203979492188 171.91290283203125 177.58819580078125 168.79246520996094 181.48068237304688 164.06240844726562 C 183.35585021972656 158.76763916015625 182.87542724609375 153.9036102294922 180.3450469970703 149.39132690429688 C 177.5814208984375 144.61705017089844 174.7666015625 140.39918518066406 173.3621368408203 136.6541748046875 C 174.50729370117188 134.5201873779297 177.552978515625 132.18255615234375 181.88009643554688 130.26608276367188 C 186.0048828125 129.8526611328125 190.6642303466797 131.37205505371094 196.7165985107422 133.2957305908203 C 203.30125427246094 133.90269470214844 209.03997802734375 133.9224853515625 214.44241333007812 135.14816284179688 C 217.77552795410156 140.22291564941406 219.18283081054688 146.60122680664062 216.3767852783203 151.97604370117188 C 210.50326538085938 156.0325927734375 206.38134765625 160.06678771972656 205.37440490722656 165.19444274902344 C 205.87513732910156 170.9506072998047 205.66238403320312 176.57972717285156 204.21554565429688 181.1506805419922 C 201.62265014648438 184.11526489257812 198.51544189453125 186.0200653076172 195.505615234375 187.92062377929688 C 193.10177612304688 190.60650634765625 190.927490234375 193.48703002929688 188.38442993164062 195.56089782714844 C 184.96958923339844 196.0581512451172 180.94454956054688 195.27749633789062 176.54917907714844 193.89224243164062 C 171.918212890625 192.1259765625 167.2608642578125 190.08901977539062 162.91348266601562 187.7445831298828 C 158.8828887939453 184.55184936523438 155.27273559570312 181.31674194335938 152.09249877929688 178.91258239746094 C 149.24513244628906 178.0660400390625 146.9740447998047 178.85546875 145.46697998046875 181.2768096923828 C 144.76800537109375 185.27032470703125 144.2639923095703 190.2779998779297 143.12049865722656 195.42897033691406 C 139.67308044433594 199.8399658203125 135.27943420410156 203.88511657714844 130.05076599121094 206.62796020507812 C 124.82384490966797 207.18556213378906 119.7591781616211 205.43504333496094 114.9016342163086 202.07179260253906 C 109.82392883300781 199.59410095214844 104.04945373535156 198.94903564453125 97.89439392089844 198.97817993164062 C 91.82188415527344 199.37786865234375 86.67741394042969 198.82009887695312 83.35069274902344 196.56939697265625 C 82.4831314086914 192.98558044433594 84.55643463134766 189.57125854492188 89.64756774902344 187.4658660888672 C 96.66041564941406 186.3165283203125 103.71878814697266 184.26394653320312 108.9725341796875 180.90383911132812 C 111.27210998535156 176.5719451904297 111.37516784667969 171.57347106933594 109.5693359375 166.8882598876953 C 106.0068588256836 163.80946350097656 101.26219177246094 162.50379943847656 96.21752166748047 161.9055633544922 C 91.62670135498047 161.12570190429688 87.95840454101562 158.5673065185547 85.31912994384766 154.4721221923828 C 82.93256378173828 149.22560119628906 80.6045150756836 143.18478393554688 78.8200912475586 136.789306640625 C 76.79905700683594 130.734619140625 73.35316467285156 126.31564331054688 69.48795318603516 123.04247283935547 C 67.23028564453125 120.76422882080078 67.19329833984375 118.53340911865234 69.01168060302734 116.3210220336914 C 71.65147399902344 114.4001693725586 73.1922836303711 112.60985565185547 72.24492645263672 111.02951049804688 C 68.1241455078125 110.0653076171875 61.27843475341797 110.02100372314453 52.409610748291016 110.12144470214844 C 42.283355712890625 110.0748291015625 31.644723892211914 109.9647445678711 21.166189193725586 109.94952392578125 C 11.616924285888672 110.2845687866211 3.7562851905822754 110.23252868652344 -1.8540878295898438 108.74552154541016 C -4.766523838043213 106.10578155517578 -4.799102306365967 103.3031234741211 -1.8849128484725952 101.24607849121094 C 3.3637635707855225 100.75337219238281 10.56389331817627 101.63520812988281 19.49654769897461 102.11090087890625 C 29.39817237854004 102.45557403564453 39.021575927734375 101.60895538330078 48.3174934387207 99.69187927246094 C 57.01206588745117 99.04908752441406 65.40400695800781 98.92520141601562 72.81970977783203 98.27827453613281 C 79.32333374023438 97.94371032714844 84.45245361328125 96.36546325683594 88.4745864868164 92.04098510742188 C 91.94925689697266 85.39784240722656 94.85166931152344 78.15541076660156 97.55078125 71.99710845947266 C 102.68870544433594 70.92189025878906 108.18569946289062 71.58956146240234 114.86203002929688 66.9592056274414" stroke-width="0.0" fill="rgb(153, 155, 98)" opacity="1.0" stroke="rgb(221, 103, 167)" stroke-opacity="0.827461" stroke-linecap="round" stroke-linejoin="round"/>
    <path d="M 209.9757080078125 99.94020080566406 C 211.25079345703125 100.11593627929688 212.53257751464844 100.30982971191406 213.79275512695312 100.55084991455078 C 215.00503540039062 100.86888885498047 216.16433715820312 101.24943542480469 217.2306365966797 101.67982482910156 C 218.16957092285156 102.15491485595703 218.946044921875 102.65486145019531 219.54861450195312 103.15912628173828 C 219.97164916992188 103.65217590332031 220.18612670898438 104.14812469482422 220.2100830078125 104.64783477783203 C 220.0897979736328 105.13542938232422 219.8500518798828 105.60785675048828 219.52635192871094 106.07401275634766 C 219.1499481201172 106.5279769897461 218.74244689941406 106.98284149169922 218.3060760498047 107.4452133178711 C 217.86988830566406 107.90545654296875 217.427978515625 108.35124206542969 216.9782257080078 108.7448501586914 C 216.5369415283203 109.03707885742188 216.0983428955078 109.17462921142578 215.6993408203125 109.1121826171875 C 215.34608459472656 108.87191009521484 215.07058715820312 108.45600128173828 214.86390686035156 107.896240234375 C 214.68301391601562 107.2579574584961 214.6665802001953 106.62151336669922 214.83258056640625 106.05953216552734 C 214.9747772216797 105.6195297241211 215.06884765625 105.31314849853516 215.24099731445312 105.1495361328125 C 215.5894012451172 105.16454315185547 216.09385681152344 105.21360778808594 216.69297790527344 105.17826080322266 C 217.36166381835938 105.08837127685547 218.11048889160156 104.97441101074219 218.9078826904297 104.75170135498047 C 219.6478271484375 104.55780792236328 220.412109375 104.36894226074219 221.4302978515625 104.52188110351562 C 222.59190368652344 105.07971954345703 223.64039611816406 105.54031372070312 224.52272033691406 106.21443176269531 C 225.5635986328125 107.13343048095703 227.24755859375 107.846923828125 229.6316680908203 107.83385467529297 C 231.85638427734375 108.58653259277344 234.2388916015625 108.44792175292969 236.20301818847656 108.42263793945312 C 236.8472900390625 108.61038970947266 237.08934020996094 109.47076416015625 236.55020141601562 110.82379150390625 C 235.3990020751953 112.51593780517578 233.93125915527344 114.29151916503906 232.71148681640625 115.78433227539062 C 231.51617431640625 116.70685577392578 230.06353759765625 117.21487426757812 228.6185302734375 117.57372283935547 C 227.5520477294922 117.86947631835938 226.60284423828125 118.12641906738281 225.50364685058594 118.48464965820312 C 223.89459228515625 118.23986053466797 222.21875 117.25264739990234 221.35433959960938 116.20557403564453 C 220.87127685546875 116.03315734863281 220.80113220214844 116.7435531616211 220.7255096435547 117.82426452636719 C 220.51248168945312 118.79271697998047 220.17745971679688 119.60749816894531 219.5235137939453 119.49049377441406 C 218.968505859375 119.31150817871094 218.7979278564453 119.211669921875 218.94900512695312 119.14530181884766 C 219.09414672851562 119.22237396240234 219.4306640625 118.95552825927734 219.7210693359375 118.50957489013672 C 219.81600952148438 118.23101806640625 219.59950256347656 118.13838958740234 219.11900329589844 117.93819427490234 C 218.7496337890625 117.38114929199219 218.6522979736328 116.82083892822266 218.7589111328125 116.95423126220703 C 219.3281707763672 117.5213623046875 219.97317504882812 118.17273712158203 220.87210083007812 118.965576171875 C 221.64271545410156 119.3396987915039 222.05130004882812 119.92025756835938 222.4654083251953 120.98780059814453 C 223.03564453125 122.51542663574219 223.694580078125 124.28054809570312 224.2918701171875 126.13153076171875 C 224.3700714111328 127.88582611083984 223.42356872558594 129.21389770507812 222.4409637451172 129.60614013671875 C 221.744384765625 129.21823120117188 221.1522216796875 128.1243133544922 220.32412719726562 127.00109100341797 C 218.47457885742188 126.32978820800781 216.53302001953125 125.72803497314453 214.02780151367188 125.1167221069336 C 212.10488891601562 124.72010803222656 210.23731994628906 123.9139175415039 209.08396911621094 122.73370361328125 C 207.56008911132812 121.98894500732422 205.8291015625 121.17633819580078 205.0376434326172 120.24166107177734 C 204.5999755859375 119.40452575683594 203.6137237548828 118.75918579101562 202.27015686035156 118.61266326904297 C 201.1361083984375 118.94092559814453 200.61785888671875 118.4251937866211 200.39695739746094 117.12380981445312 C 200.8018035888672 115.89759063720703 201.54119873046875 115.5492935180664 202.25494384765625 114.38265991210938 C 202.84259033203125 113.39664459228516 203.5998992919922 111.9429931640625 204.63107299804688 111.51480865478516 C 205.65911865234375 111.69296264648438 206.57315063476562 111.97989654541016 207.3230743408203 112.022705078125 C 207.8769989013672 112.0655517578125 208.2724151611328 112.09801483154297 208.560546875 111.97023010253906 C 208.83721923828125 111.83491516113281 208.88377380371094 111.70059967041016 208.76283264160156 111.57582092285156 C 208.6515350341797 111.41045379638672 208.17478942871094 111.35474395751953 207.33322143554688 111.46035766601562 C 206.1869659423828 111.64360046386719 205.5780792236328 111.8946762084961 205.2733917236328 112.1860122680664 C 204.9724578857422 112.44775390625 204.21783447265625 112.80115509033203 203.2139892578125 112.94024658203125 C 202.53689575195312 112.58628845214844 202.6085968017578 111.4350357055664 202.36228942871094 109.44258880615234 C 202.39822387695312 106.92190551757812 202.2436065673828 104.13591003417969 202.9311981201172 101.29484558105469 C 203.30162048339844 98.71300506591797 203.13623046875 96.27950286865234 209.9757080078125 99.94020080566406" stroke-width="0.0" fill="rgb(148, 164, 103)" opacity="0.9995596" stroke="rgb(154, 205, 229)" stroke-opacity="0.28837708" stroke-linecap="round" stroke-linejoin="round"/>
    <path d="M 209.08314514160156 89.36771392822266 C 209.7423553466797 89.25413513183594 210.71484375 89.20423889160156 211.54551696777344 89.19989776611328 C 211.67965698242188 89.45440673828125 211.296630859375 89.591064453125 210.6433868408203 89.4853515625 C 210.23667907714844 89.185791015625 210.1445770263672 89.14606475830078 210.11961364746094 89.16325378417969 C 210.62855529785156 88.75841522216797 211.46286010742188 88.46959686279297 212.83287048339844 88.69763946533203 C 214.36671447753906 89.33154296875 215.9394989013672 88.21041107177734 217.78152465820312 87.36338806152344 C 221.06385803222656 87.74629974365234 225.7480926513672 87.3553237915039 230.77906799316406 87.97078704833984 C 236.05743408203125 88.54704284667969 241.59117126464844 88.70716094970703 246.6673583984375 88.58440399169922 C 251.64512634277344 88.13050842285156 256.7270202636719 87.7061538696289 260.80548095703125 87.59942626953125 C 263.5021667480469 87.67867279052734 266.19427490234375 87.43348693847656 267.61151123046875 87.7220687866211 C 267.3274841308594 89.61052703857422 268.5772705078125 91.71912384033203 271.6447448730469 92.82880401611328 C 276.3566589355469 93.02347564697266 282.3847351074219 93.13081359863281 288.5919189453125 91.60021209716797 C 295.0804748535156 91.67708587646484 301.07177734375 91.4192123413086 305.7914733886719 90.93643188476562 C 308.7264404296875 90.70355224609375 310.2841796875 91.21453857421875 310.75653076171875 92.79830932617188 C 310.5683898925781 95.45719909667969 310.1615295410156 99.0579833984375 309.8541259765625 103.4170913696289 C 309.7657165527344 108.32506561279297 309.7955017089844 113.57854461669922 309.85284423828125 118.98115539550781 C 309.871337890625 124.37296295166016 309.8638610839844 129.59007263183594 309.857421875 134.5061492919922 C 309.8575134277344 139.07342529296875 309.8582458496094 143.33912658691406 309.85821533203125 147.36856079101562 C 309.858154296875 151.2547607421875 309.8581848144531 155.0755615234375 309.858154296875 158.91310119628906 C 309.8574523925781 162.87896728515625 309.85723876953125 167.06455993652344 309.86090087890625 171.52548217773438 C 309.8674621582031 176.26695251464844 309.8541259765625 181.2144317626953 309.8188781738281 186.27130126953125 C 309.8133239746094 191.3213653564453 309.91961669921875 196.2318115234375 310.1484069824219 200.8579559326172 C 310.3366394042969 205.05816650390625 310.0384826660156 208.6848602294922 308.851806640625 211.59640502929688 C 306.6393737792969 213.66775512695312 303.55267333984375 214.90823364257812 299.77752685546875 215.44862365722656 C 295.5050964355469 215.45053100585938 290.90667724609375 215.1619110107422 286.11053466796875 214.87191772460938 C 281.22113037109375 214.75650024414062 276.316650390625 214.77561950683594 271.43511962890625 214.840576171875 C 266.6005554199219 214.87176513671875 261.8269348144531 214.86817932128906 257.0728454589844 214.86276245117188 C 252.353759765625 214.86619567871094 247.67906188964844 214.8466339111328 243.02252197265625 214.81341552734375 C 238.41978454589844 214.8306427001953 233.94383239746094 214.92005920410156 229.6806182861328 215.06167602539062 C 225.7113037109375 215.1889190673828 222.13059997558594 215.08639526367188 219.0453643798828 214.56802368164062 C 216.58216857910156 213.48709106445312 214.83961486816406 211.96902465820312 213.8679962158203 210.07420349121094 C 213.6051025390625 207.93093872070312 213.96670532226562 205.6657257080078 214.8580322265625 203.38526916503906 C 216.15284729003906 201.19754028320312 217.68551635742188 199.19847106933594 219.27801513671875 197.44248962402344 C 220.80714416503906 195.94493103027344 222.16604614257812 194.7345733642578 223.28953552246094 193.8048553466797 C 224.1565399169922 193.13938903808594 224.8612060546875 192.6669921875 225.50491333007812 192.2847137451172 C 226.2042236328125 191.85238647460938 227.0462188720703 191.1837615966797 228.06822204589844 190.14581298828125 C 229.25888061523438 188.6874542236328 230.55706787109375 186.74842834472656 231.90899658203125 184.35940551757812 C 233.22732543945312 181.59793090820312 234.4571990966797 178.62564086914062 235.6516571044922 175.63743591308594 C 236.69834899902344 172.8101806640625 237.41375732421875 170.27027893066406 237.7325439453125 168.03424072265625 C 237.67869567871094 166.0871124267578 237.31735229492188 164.356689453125 236.92929077148438 162.63870239257812 C 236.64901733398438 160.7262725830078 236.53355407714844 158.57489013671875 236.59024047851562 156.18209838867188 C 236.8410186767578 153.51239013671875 237.2216339111328 150.48129272460938 237.6126708984375 147.043212890625 C 237.80674743652344 143.42596435546875 237.55438232421875 140.13929748535156 236.70205688476562 137.61538696289062 C 235.17214965820312 136.10418701171875 233.07952880859375 135.45709228515625 230.7100067138672 135.30284118652344 C 228.31732177734375 135.54058837890625 226.23194885253906 135.97781372070312 224.6676025390625 136.3253173828125 C 223.794921875 136.41392517089844 223.52333068847656 136.00289916992188 223.5934295654297 135.1907501220703 C 223.8892364501953 134.2809600830078 224.0908203125 133.37818908691406 223.78082275390625 132.28321838378906 C 222.7562713623047 130.76512145996094 222.08290100097656 128.3681182861328 222.38328552246094 125.36807250976562 C 222.55264282226562 122.50972747802734 221.5791778564453 120.73649597167969 219.85400390625 119.49768829345703 C 218.36691284179688 117.92132568359375 218.13160705566406 116.98038482666016 219.82611083984375 116.6941146850586 C 222.47784423828125 116.65560150146484 225.81947326660156 117.05120849609375 229.44891357421875 116.40399169921875 C 232.7503662109375 113.06634521484375 235.62332153320312 109.1388931274414 239.67568969726562 107.84408569335938 C 242.9427032470703 108.40107727050781 243.1685333251953 106.3738784790039 242.4243621826172 104.64415740966797 C 239.36489868164062 104.23933410644531 235.08401489257812 104.78199768066406 230.7800750732422 106.76980590820312 C 226.30259704589844 108.89327239990234 221.5456085205078 110.01827239990234 216.68544006347656 109.52145385742188 C 212.0360107421875 108.68326568603516 208.41845703125 107.60320281982422 206.61720275878906 106.12513732910156 C 206.6754608154297 104.78616333007812 208.17625427246094 104.46768188476562 210.36215209960938 105.30135345458984 C 212.23464965820312 106.81056213378906 212.80162048339844 108.28253936767578 211.7537841796875 108.94061279296875 C 209.2012939453125 108.08728790283203 205.8878173828125 105.99281311035156 202.84066772460938 102.93477630615234 C 201.1787567138672 99.42919158935547 200.06344604492188 95.65314483642578 198.81854248046875 92.46369171142578 C 197.4458465576172 89.74805450439453 196.52818298339844 87.63764190673828 209.08314514160156 89.36771392822266" stroke-width="0.0" fill="rgb(138, 154, 78)" opacity="1.0" stroke="rgb(32, 222, 140)" stroke-opacity="0.6407623" stroke-linecap="round" stroke-linejoin="round"/>
    <path d="M 201.19590759277344 124.08771514892578 C 198.90777587890625 123.29116821289062 196.9275665283203 123.27139282226562 195.70407104492188 123.48597717285156 C 194.73939514160156 124.62358093261719 194.6112518310547 126.57769775390625 194.95126342773438 128.87477111816406 C 195.63656616210938 131.0584716796875 196.41917419433594 132.36814880371094 196.66192626953125 132.95516967773438 C 195.69618225097656 133.05970764160156 193.98631286621094 132.81141662597656 191.39019775390625 132.67855834960938 C 189.11245727539062 132.92408752441406 187.2357635498047 132.41432189941406 186.2152557373047 131.14364624023438 C 185.6033172607422 130.29672241210938 184.87890625 129.75662231445312 184.1920928955078 129.59156799316406 C 183.65711975097656 129.35484313964844 183.2587890625 128.70184326171875 182.89694213867188 127.84330749511719 C 182.57814025878906 127.22245025634766 182.56629943847656 126.99980926513672 182.6378936767578 126.83311462402344 C 182.6320037841797 126.13677978515625 182.58827209472656 125.2516098022461 182.9500274658203 124.25511169433594 C 183.9563751220703 123.54708862304688 185.3709716796875 122.77909851074219 187.0028533935547 121.76924133300781 C 188.60665893554688 121.00115966796875 189.3717803955078 119.67456817626953 189.8109588623047 118.04151916503906 C 189.6641387939453 116.44843292236328 188.8251190185547 114.2469482421875 201.19590759277344 124.08771514892578" stroke-width="0.0" fill="rgb(56, 33, 20)" opacity="1.0" stroke="rgb(79, 221, 1)" stroke-opacity="0.9595211" stroke-linecap="round" stroke-linejoin="round"/>
    <path d="M 111.69032287597656 72.18387603759766 C 115.99919891357422 71.83009338378906 120.34400177001953 71.65621948242188 123.11788940429688 72.05178833007812 C 122.318359375 73.4715347290039 119.78196716308594 75.55419921875 116.08885955810547 78.27728271484375 C 112.27977752685547 81.76411437988281 108.7650375366211 85.3926773071289 105.0069808959961 87.85269165039062 C 100.6565170288086 87.36785125732422 96.00764465332031 86.09376525878906 111.69032287597656 72.18387603759766" stroke-width="0.0" fill="rgb(152, 95, 85)" opacity="0.99929327" stroke="rgb(15, 30, 167)" stroke-opacity="0.31615105" stroke-linecap="round" stroke-linejoin="round"/>
    <path d="M 133.87062072753906 70.90889739990234 C 146.22154235839844 77.14456176757812 152.5108642578125 85.56076049804688 153.04234313964844 92.57381439208984 C 149.9271240234375 95.1368179321289 144.90841674804688 95.65125274658203 136.9615936279297 97.55223846435547 C 128.2564697265625 98.75733947753906 119.58297729492188 98.95238494873047 113.93404388427734 95.84935760498047 C 112.63920593261719 85.2850112915039 112.20317840576172 71.8240966796875 133.87062072753906 70.90889739990234" stroke-width="0.0" fill="rgb(175, 106, 86)" opacity="0.99913484" stroke="rgb(33, 176, 198)" stroke-opacity="0.8601346" stroke-linecap="round" stroke-linejoin="round"/>
    <path d="M 31.6562557220459 52.42593002319336 C 26.91731834411621 60.355709075927734 22.245357513427734 66.72059631347656 17.590463638305664 70.40565490722656 C 13.226654052734375 71.56048583984375 9.973248481750488 72.03672790527344 8.006771087646484 71.40090942382812 C 6.924684047698975 69.2591781616211 6.2992634773254395 65.64117431640625 5.716517925262451 60.751705169677734 C 5.069123268127441 55.16868591308594 4.2697038650512695 49.640628814697266 31.6562557220459 52.42593002319336" stroke-width="0.0" fill="rgb(27, 45, 57)" opacity="0.99999803" stroke="rgb(61, 15, 176)" stroke-opacity="0.1187121" stroke-linecap="round" stroke-linejoin="round"/>
    <path d="M 161.35690307617188 187.97047424316406 C 162.62106323242188 189.08108520507812 163.8321990966797 190.07167053222656 165.3530731201172 191.3072967529297 C 166.4243621826172 192.61878967285156 166.7737274169922 193.81776428222656 166.4828338623047 194.74655151367188 C 165.25177001953125 195.20004272460938 163.45587158203125 195.51060485839844 161.45919799804688 195.19741821289062 C 159.37498474121094 194.8310546875 158.12228393554688 194.55320739746094 157.03961181640625 194.22560119628906 C 156.19105529785156 193.96026611328125 155.74545288085938 193.9087371826172 155.67225646972656 194.142822265625 C 155.88523864746094 194.59359741210938 156.239501953125 195.14306640625 161.35690307617188 187.97047424316406" stroke-width="0.0" fill="rgb(179, 183, 80)" opacity="0.99998695" stroke="rgb(253, 115, 253)" stroke-opacity="0.1339554" stroke-linecap="round" stroke-linejoin="round"/>
    <path d="M 45.59553909301758 186.8480682373047 C 46.713985443115234 186.62533569335938 47.75071334838867 187.0921173095703 48.39373779296875 187.56663513183594 C 48.49410629272461 188.7710723876953 47.957149505615234 190.21148681640625 46.820980072021484 191.2623291015625 C 45.2199592590332 191.37673950195312 42.93779373168945 190.88079833984375 40.25174331665039 189.67694091796875 C 37.61283493041992 187.731201171875 34.87439727783203 186.10516357421875 45.59553909301758 186.8480682373047" stroke-width="0.0" fill="rgb(155, 157, 77)" opacity="0.99953014" stroke="rgb(178, 206, 69)" stroke-opacity="0.351093" stroke-linecap="round" stroke-linejoin="round"/>
    <path d="M 172.60794067382812 186.0540771484375 C 172.67535400390625 188.25592041015625 172.80661010742188 190.47702026367188 172.89097595214844 192.3631134033203 C 172.85580444335938 193.9147491455078 172.61154174804688 194.98399353027344 172.16571044921875 195.58486938476562 C 171.24716186523438 195.73753356933594 170.29092407226562 195.45986938476562 169.0702362060547 195.1004180908203 C 167.88275146484375 194.71771240234375 166.6490478515625 194.18170166015625 165.47544860839844 193.4607391357422 C 164.52566528320312 192.51422119140625 164.00587463378906 191.29364013671875 164.0110626220703 189.8245086669922 C 164.2227783203125 188.11199951171875 164.28683471679688 186.54283142089844 172.60794067382812 186.0540771484375" stroke-width="0.0" fill="rgb(185, 187, 119)" opacity="0.9999583" stroke="rgb(184, 50, 166)" stroke-opacity="0.8753836" stroke-linecap="round" stroke-linejoin="round"/>
    <path d="M 196.2875213623047 44.92885971069336 C 197.0249481201172 46.46592712402344 197.50608825683594 47.97193145751953 197.85699462890625 49.351348876953125 C 198.32484436035156 50.532596588134766 198.19432067871094 51.52213668823242 197.61695861816406 52.320499420166016 C 196.8946075439453 52.84300231933594 195.71792602539062 52.5276985168457 194.0194854736328 51.5625114440918 C 192.26815795898438 50.73446273803711 190.32513427734375 49.694313049316406 188.32386779785156 48.01068115234375 C 186.4641571044922 45.794097900390625 184.6691436767578 43.61613845825195 196.2875213623047 44.92885971069336" stroke-width="0.0" fill="rgb(179, 129, 121)" opacity="0.99999505" stroke="rgb(225, 172, 52)" stroke-opacity="0.08458003" stroke-linecap="round" stroke-linejoin="round"/>
    <path d="M 9.89770793914795 48.10564422607422 C 9.600908279418945 50.621910095214844 9.260838508605957 52.93351745605469 9.136609077453613 54.38646697998047 C 9.279839515686035 55.38236618041992 9.387014389038086 56.352569580078125 9.356084823608398 57.326515197753906 C 9.166801452636719 58.09147644042969 8.843538284301758 58.634376525878906 8.328814506530762 58.96608352661133 C 7.6686906814575195 59.075714111328125 6.863865852355957 58.97880935668945 5.935834884643555 58.70328140258789 C 4.947930812835693 58.23142623901367 3.982490062713623 57.592281341552734 3.123732805252075 56.84896469116211 C 2.3846592903137207 56.09500503540039 1.7163772583007812 55.32975387573242 1.080506682395935 54.383827209472656 C 0.5320455431938171 53.3489875793457 0.008934751152992249 52.375919342041016 9.89770793914795 48.10564422607422" stroke-width="0.0" fill="rgb(32, 50, 61)" opacity="0.9999705" stroke="rgb(210, 222, 252)" stroke-opacity="0.12597804" stroke-linecap="round" stroke-linejoin="round"/>
    <path d="M 156.85354614257812 100.7090835571289 C 156.0147705078125 103.77439880371094 154.625 106.78189086914062 153.6757354736328 109.2121810913086 C 153.92088317871094 111.11321258544922 154.77056884765625 113.42009735107422 154.44126892089844 115.49868774414062 C 154.0260467529297 115.52440643310547 153.31719970703125 114.49652099609375 152.23194885253906 113.28575134277344 C 151.4592742919922 111.97357177734375 150.56570434570312 110.58531951904297 150.63262939453125 109.593017578125 C 151.12533569335938 109.17095184326172 151.24057006835938 108.39588165283203 151.33380126953125 106.73050689697266 C 151.59091186523438 104.50496673583984 152.4170379638672 102.9115219116211 152.5756072998047 101.02029418945312 C 152.4064178466797 98.34920501708984 152.59776306152344 95.76321411132812 156.85354614257812 100.7090835571289" stroke-width="0.0" fill="rgb(192, 141, 125)" opacity="0.99956757" stroke="rgb(210, 32, 123)" stroke-opacity="0.489101" stroke-linecap="round" stroke-linejoin="round"/>
    <path d="M 193.0 30.0 C 194.0 31.0 194.0 32.0 194.0 33.0 C 193.0 34.0 193.0 35.0 193.0 36.0 C 194.0 37.0 194.0 38.0 195.0 39.0 C 195.0 40.0 195.0 41.0 195.0 42.0 C 194.0 42.0 193.0 42.0 193.0 41.0 C 193.0 40.0 192.0 39.0 191.0 38.0 C 190.0 37.0 190.0 36.0 190.0 35.0 C 190.0 34.0 190.0 33.0 190.0 32.0 C 191.0 31.0 191.0 30.0 193.0 30.0" stroke-width="0.0" fill="rgb(219, 220, 231)" opacity="1.0" stroke="rgb(32, 185, 147)" stroke-opacity="0.60662574" stroke-linecap="round" stroke-linejoin="round"/>
    <path d="M 28.0 19.0 C 29.0 19.0 30.0 19.0 31.0 20.0 C 32.0 20.0 33.0 20.0 34.0 20.0 C 35.0 21.0 35.0 22.0 35.0 23.0 C 35.0 24.0 35.0 25.0 36.0 26.0 C 37.0 27.0 38.0 28.0 39.0 28.0 C 40.0 28.0 41.0 29.0 42.0 30.0 C 43.0 31.0 43.0 32.0 43.0 33.0 C 43.0 34.0 42.0 34.0 41.0 35.0 C 41.0 36.0 41.0 37.0 42.0 39.0 C 43.0 41.0 45.0 42.0 47.0 43.0 C 49.0 43.0 51.0 45.0 53.0 46.0 C 55.0 46.0 57.0 46.0 59.0 47.0 C 59.0 49.0 59.0 51.0 59.0 53.0 C 60.0 55.0 61.0 57.0 62.0 58.0 C 61.0 60.0 60.0 62.0 60.0 64.0 C 62.0 66.0 64.0 68.0 65.0 70.0 C 65.0 72.0 64.0 74.0 64.0 76.0 C 62.0 77.0 60.0 77.0 58.0 77.0 C 56.0 77.0 55.0 79.0 53.0 79.0 C 52.0 81.0 50.0 81.0 50.0 83.0 C 52.0 83.0 54.0 83.0 55.0 84.0 C 57.0 86.0 57.0 88.0 59.0 90.0 C 59.0 92.0 57.0 93.0 55.0 93.0 C 53.0 93.0 51.0 93.0 49.0 94.0 C 47.0 95.0 45.0 96.0 43.0 96.0 C 41.0 97.0 39.0 97.0 37.0 97.0 C 35.0 96.0 33.0 96.0 31.0 97.0 C 29.0 97.0 27.0 98.0 25.0 98.0 C 23.0 97.0 21.0 97.0 19.0 97.0 C 17.0 97.0 15.0 98.0 13.0 98.0 C 11.0 98.0 9.0 97.0 7.0 97.0 C 5.0 97.0 3.0 98.0 1.0 99.0 C 0.0 98.0 0.0 96.0 0.0 94.0 C 0.0 92.0 0.0 90.0 0.0 88.0 C 0.0 86.0 0.0 84.0 0.0 82.0 C 0.0 80.0 0.0 78.0 0.0 76.0 C 0.0 74.0 0.0 72.0 0.0 70.0 C 0.0 68.0 0.0 66.0 0.0 64.0 C 0.0 62.0 0.0 60.0 0.0 58.0 C 0.0 56.0 2.0 57.0 4.0 59.0 C 5.0 61.0 5.0 63.0 5.0 65.0 C 5.0 67.0 6.0 69.0 7.0 71.0 C 9.0 72.0 11.0 72.0 13.0 72.0 C 15.0 71.0 17.0 71.0 19.0 71.0 C 19.0 73.0 19.0 75.0 21.0 76.0 C 23.0 75.0 22.0 73.0 21.0 71.0 C 22.0 69.0 24.0 69.0 26.0 67.0 C 27.0 65.0 25.0 63.0 25.0 61.0 C 27.0 60.0 28.0 58.0 29.0 56.0 C 30.0 54.0 31.0 52.0 29.0 51.0 C 27.0 50.0 25.0 49.0 23.0 50.0 C 21.0 50.0 20.0 49.0 20.0 47.0 C 21.0 45.0 21.0 43.0 20.0 41.0 C 18.0 39.0 17.0 38.0 18.0 37.0 C 20.0 37.0 22.0 37.0 24.0 37.0 C 26.0 36.0 25.0 34.0 23.0 33.0 C 23.0 31.0 25.0 30.0 27.0 31.0 C 29.0 33.0 31.0 31.0 31.0 29.0 C 30.0 27.0 30.0 25.0 28.0 23.0 C 27.0 21.0 27.0 19.0 28.0 19.0" stroke-width="0.0" fill="rgb(30, 48, 59)" opacity="1.0" stroke="rgb(83, 246, 2)" stroke-opacity="0.45313615" stroke-linecap="round" stroke-linejoin="round"/>
    <path d="M 242.0 50.0 C 243.0 50.0 244.0 51.0 245.0 52.0 C 246.0 53.0 246.0 54.0 247.0 55.0 C 247.0 56.0 248.0 57.0 249.0 57.0 C 250.0 58.0 251.0 59.0 252.0 60.0 C 253.0 60.0 254.0 60.0 254.0 61.0 C 255.0 62.0 256.0 63.0 256.0 64.0 C 256.0 65.0 256.0 66.0 256.0 67.0 C 255.0 67.0 254.0 67.0 253.0 67.0 C 252.0 67.0 251.0 67.0 250.0 67.0 C 250.0 66.0 250.0 65.0 249.0 64.0 C 248.0 64.0 247.0 65.0 247.0 66.0 C 246.0 67.0 246.0 68.0 245.0 69.0 C 244.0 70.0 243.0 71.0 242.0 72.0 C 242.0 73.0 241.0 74.0 241.0 75.0 C 242.0 76.0 243.0 77.0 243.0 78.0 C 244.0 79.0 245.0 80.0 246.0 80.0 C 247.0 81.0 247.0 82.0 247.0 83.0 C 246.0 83.0 245.0 84.0 244.0 84.0 C 243.0 84.0 242.0 85.0 241.0 85.0 C 240.0 85.0 239.0 85.0 238.0 85.0 C 237.0 85.0 236.0 84.0 235.0 84.0 C 234.0 84.0 233.0 84.0 232.0 84.0 C 231.0 84.0 230.0 84.0 229.0 84.0 C 228.0 84.0 227.0 84.0 226.0 84.0 C 225.0 84.0 224.0 84.0 223.0 84.0 C 222.0 84.0 221.0 84.0 220.0 84.0 C 219.0 84.0 218.0 84.0 217.0 84.0 C 216.0 84.0 215.0 84.0 214.0 84.0 C 213.0 84.0 212.0 85.0 211.0 85.0 C 210.0 85.0 209.0 84.0 208.0 84.0 C 207.0 84.0 206.0 85.0 205.0 85.0 C 204.0 85.0 203.0 85.0 202.0 85.0 C 201.0 85.0 200.0 85.0 199.0 85.0 C 198.0 85.0 198.0 84.0 198.0 83.0 C 197.0 82.0 196.0 83.0 196.0 84.0 C 196.0 85.0 195.0 85.0 194.0 85.0 C 193.0 85.0 193.0 84.0 193.0 83.0 C 193.0 82.0 193.0 81.0 193.0 80.0 C 193.0 79.0 193.0 78.0 193.0 77.0 C 193.0 76.0 193.0 75.0 193.0 74.0 C 193.0 73.0 194.0 73.0 195.0 73.0 C 195.0 74.0 195.0 75.0 195.0 76.0 C 195.0 77.0 195.0 78.0 196.0 79.0 C 197.0 78.0 197.0 77.0 197.0 76.0 C 197.0 75.0 197.0 74.0 197.0 73.0 C 197.0 72.0 197.0 71.0 197.0 70.0 C 198.0 70.0 199.0 70.0 200.0 69.0 C 201.0 68.0 202.0 67.0 203.0 66.0 C 203.0 65.0 204.0 65.0 205.0 65.0 C 206.0 66.0 207.0 67.0 208.0 67.0 C 209.0 68.0 210.0 68.0 211.0 68.0 C 212.0 68.0 213.0 68.0 214.0 68.0 C 215.0 69.0 216.0 69.0 217.0 70.0 C 219.0 70.0 221.0 68.0 223.0 68.0 C 225.0 69.0 227.0 70.0 229.0 71.0 C 231.0 71.0 233.0 70.0 235.0 68.0 C 237.0 66.0 239.0 66.0 241.0 66.0 C 243.0 64.0 243.0 62.0 241.0 60.0 C 239.0 58.0 239.0 56.0 240.0 54.0 C 241.0 52.0 241.0 50.0 242.0 50.0" stroke-width="0.0" fill="rgb(32, 50, 62)" opacity="1.0" stroke="rgb(202, 7, 168)" stroke-opacity="0.5755212" stroke-linecap="round" stroke-linejoin="round"/>
    <path d="M 164.0 62.0 C 165.0 62.0 166.0 62.0 167.0 62.0 C 167.0 63.0 168.0 64.0 169.0 64.0 C 170.0 64.0 171.0 64.0 172.0 64.0 C 173.0 65.0 174.0 65.0 174.0 66.0 C 174.0 67.0 174.0 68.0 174.0 69.0 C 174.0 70.0 173.0 71.0 173.0 72.0 C 173.0 73.0 173.0 74.0 172.0 75.0 C 172.0 76.0 171.0 76.0 170.0 77.0 C 170.0 78.0 169.0 79.0 168.0 79.0 C 167.0 79.0 166.0 79.0 165.0 79.0 C 165.0 78.0 165.0 77.0 166.0 77.0 C 167.0 76.0 167.0 75.0 168.0 75.0 C 169.0 74.0 170.0 73.0 169.0 72.0 C 168.0 72.0 167.0 71.0 166.0 70.0 C 165.0 70.0 165.0 69.0 165.0 68.0 C 165.0 67.0 165.0 66.0 164.0 65.0 C 163.0 65.0 162.0 65.0 162.0 64.0 C 162.0 63.0 162.0 62.0 164.0 62.0" stroke-width="0.0" fill="rgb(17, 16, 22)" opacity="1.0" stroke="rgb(236, 95, 66)" stroke-opacity="0.9260961" stroke-linecap="round" stroke-linejoin="round"/>
    <path d="M 295.0 94.0 C 296.0 94.0 297.0 94.0 298.0 94.0 C 299.0 94.0 300.0 94.0 301.0 94.0 C 302.0 94.0 303.0 94.0 304.0 94.0 C 304.0 95.0 304.0 96.0 304.0 97.0 C 303.0 97.0 302.0 97.0 301.0 97.0 C 300.0 97.0 299.0 98.0 298.0 99.0 C 297.0 99.0 296.0 99.0 295.0 99.0 C 294.0 99.0 293.0 98.0 292.0 97.0 C 291.0 97.0 290.0 97.0 289.0 97.0 C 288.0 98.0 287.0 98.0 286.0 99.0 C 285.0 99.0 284.0 99.0 283.0 98.0 C 282.0 98.0 281.0 99.0 280.0 99.0 C 279.0 99.0 278.0 99.0 277.0 99.0 C 276.0 99.0 275.0 99.0 274.0 99.0 C 273.0 99.0 272.0 100.0 271.0 100.0 C 270.0 100.0 269.0 100.0 268.0 100.0 C 267.0 100.0 266.0 100.0 265.0 100.0 C 264.0 100.0 263.0 100.0 262.0 100.0 C 261.0 101.0 260.0 101.0 259.0 101.0 C 258.0 101.0 257.0 101.0 256.0 100.0 C 255.0 100.0 254.0 99.0 253.0 99.0 C 252.0 99.0 251.0 99.0 250.0 99.0 C 249.0 99.0 248.0 99.0 247.0 100.0 C 246.0 101.0 245.0 101.0 244.0 101.0 C 243.0 101.0 242.0 101.0 241.0 101.0 C 240.0 101.0 239.0 101.0 238.0 101.0 C 237.0 101.0 236.0 101.0 235.0 101.0 C 234.0 101.0 233.0 101.0 232.0 101.0 C 231.0 101.0 230.0 101.0 229.0 102.0 C 228.0 103.0 227.0 103.0 226.0 104.0 C 225.0 104.0 224.0 104.0 223.0 105.0 C 222.0 105.0 221.0 105.0 220.0 105.0 C 219.0 105.0 218.0 105.0 217.0 105.0 C 216.0 105.0 215.0 105.0 214.0 105.0 C 213.0 105.0 212.0 105.0 211.0 105.0 C 210.0 104.0 209.0 104.0 208.0 104.0 C 207.0 104.0 206.0 104.0 205.0 104.0 C 204.0 104.0 203.0 103.0 203.0 102.0 C 203.0 101.0 202.0 100.0 202.0 99.0 C 201.0 98.0 201.0 97.0 201.0 96.0 C 201.0 95.0 202.0 95.0 203.0 95.0 C 204.0 96.0 205.0 95.0 206.0 95.0 C 207.0 95.0 208.0 95.0 209.0 95.0 C 210.0 96.0 211.0 96.0 212.0 96.0 C 213.0 96.0 214.0 96.0 215.0 96.0 C 216.0 96.0 217.0 96.0 218.0 95.0 C 219.0 95.0 220.0 95.0 221.0 95.0 C 222.0 95.0 223.0 95.0 224.0 95.0 C 226.0 95.0 228.0 95.0 230.0 95.0 C 232.0 95.0 234.0 95.0 236.0 95.0 C 238.0 96.0 240.0 96.0 242.0 96.0 C 244.0 96.0 246.0 96.0 248.0 97.0 C 250.0 97.0 252.0 97.0 254.0 97.0 C 256.0 97.0 258.0 96.0 260.0 95.0 C 262.0 95.0 264.0 95.0 266.0 95.0 C 268.0 95.0 270.0 95.0 272.0 95.0 C 274.0 95.0 276.0 95.0 278.0 95.0 C 280.0 95.0 282.0 95.0 284.0 95.0 C 286.0 95.0 288.0 95.0 290.0 95.0 C 292.0 95.0 294.0 94.0 295.0 94.0" stroke-width="0.0" fill="rgb(159, 142, 127)" opacity="1.0" stroke="rgb(125, 73, 171)" stroke-opacity="0.3129316" stroke-linecap="round" stroke-linejoin="round"/>
    <path d="M 188.0 51.0 C 188.0 52.0 188.0 53.0 189.0 54.0 C 190.0 54.0 190.0 55.0 190.0 56.0 C 191.0 57.0 191.0 58.0 191.0 59.0 C 191.0 60.0 190.0 60.0 189.0 60.0 C 188.0 60.0 187.0 59.0 187.0 58.0 C 187.0 57.0 188.0 56.0 187.0 55.0 C 187.0 54.0 187.0 53.0 186.0 52.0 C 186.0 51.0 186.0 50.0 188.0 51.0" stroke-width="0.0" fill="rgb(185, 133, 115)" opacity="1.0" stroke="rgb(56, 118, 177)" stroke-opacity="0.9042213" stroke-linecap="round" stroke-linejoin="round"/>
    <path d="M 18.0 168.0 C 19.0 168.0 20.0 168.0 21.0 168.0 C 22.0 168.0 22.0 169.0 22.0 170.0 C 21.0 170.0 20.0 170.0 19.0 170.0 C 18.0 170.0 17.0 170.0 16.0 170.0 C 16.0 169.0 16.0 168.0 18.0 168.0" stroke-width="0.0" fill="rgb(96, 116, 52)" opacity="1.0" stroke="rgb(96, 116, 114)" stroke-opacity="0.6049804" stroke-linecap="round" stroke-linejoin="round"/>
    <path d="M 24.0 167.0 C 24.0 168.0 24.0 169.0 25.0 170.0 C 26.0 170.0 27.0 170.0 26.0 170.0 C 25.0 170.0 24.0 170.0 23.0 169.0 C 23.0 168.0 23.0 167.0 24.0 167.0" stroke-width="0.0" fill="rgb(94, 117, 55)" opacity="1.0" stroke="rgb(119, 74, 175)" stroke-opacity="0.8014714" stroke-linecap="round" stroke-linejoin="round"/>
    <path d="M 103.22222137451172 137.0 C 103.66666412353516 137.0 104.0 137.0 105.0 137.0 C 105.0 138.0 105.0 139.0 105.0 140.0 C 104.0 140.0 103.0 140.0 103.0 139.0 C 103.0 138.0 103.0 137.0 103.22222137451172 137.0" stroke-width="0.0" fill="rgb(115, 59, 31)" opacity="1.0" stroke="rgb(33, 191, 167)" stroke-opacity="0.5540633" stroke-linecap="round" stroke-linejoin="round"/>
    <path d="M 1.2222222089767456 30.0 C 1.6666666269302368 30.0 2.0 30.0 3.0 30.0 C 3.0 31.0 3.0 32.0 3.0 33.0 C 2.0 33.0 1.0 33.0 1.0 32.0 C 1.0 31.0 1.0 30.0 1.2222222089767456 30.0" stroke-width="0.0" fill="rgb(36, 53, 61)" opacity="1.0" stroke="rgb(188, 218, 94)" stroke-opacity="0.022786215" stroke-linecap="round" stroke-linejoin="round"/>
    <path d="M 171.0 53.0 C 171.0 54.0 172.0 55.0 172.0 56.0 C 172.0 57.0 172.0 58.0 172.0 59.0 C 172.0 60.0 173.0 61.0 173.0 62.0 C 173.0 63.0 172.0 63.0 171.0 63.0 C 171.0 62.0 170.0 61.0 169.0 61.0 C 169.0 60.0 169.0 59.0 169.0 58.0 C 169.0 57.0 169.0 56.0 169.0 55.0 C 168.0 54.0 169.0 53.0 171.0 53.0" stroke-width="0.0" fill="rgb(20, 21, 30)" opacity="1.0" stroke="rgb(240, 21, 109)" stroke-opacity="0.2497956" stroke-linecap="round" stroke-linejoin="round"/>
    <path d="M 143.0 157.0 C 144.0 158.0 145.0 159.0 146.0 160.0 C 147.0 161.0 148.0 161.0 148.0 162.0 C 149.0 163.0 150.0 163.0 150.0 164.0 C 150.0 165.0 150.0 166.0 150.0 167.0 C 150.0 168.0 150.0 169.0 149.0 169.0 C 148.0 170.0 148.0 171.0 148.0 172.0 C 148.0 173.0 148.0 174.0 147.0 174.0 C 146.0 174.0 145.0 174.0 144.0 174.0 C 144.0 173.0 144.0 172.0 144.0 171.0 C 145.0 170.0 145.0 169.0 146.0 168.0 C 147.0 167.0 148.0 166.0 148.0 165.0 C 148.0 164.0 147.0 163.0 146.0 163.0 C 145.0 164.0 145.0 165.0 144.0 166.0 C 143.0 166.0 142.0 166.0 141.0 165.0 C 140.0 164.0 140.0 163.0 139.0 162.0 C 139.0 161.0 139.0 160.0 139.0 159.0 C 139.0 158.0 140.0 157.0 143.0 157.0" stroke-width="0.0" fill="rgb(205, 196, 195)" opacity="1.0" stroke="rgb(68, 114, 149)" stroke-opacity="0.7432503" stroke-linecap="round" stroke-linejoin="round"/>
    <path d="M 184.0 22.0 C 185.0 22.0 185.0 23.0 185.0 24.0 C 186.0 25.0 187.0 25.0 186.0 25.0 C 185.0 25.0 185.0 24.0 184.0 23.0 C 183.0 23.0 183.0 22.0 184.0 22.0" stroke-width="0.0" fill="rgb(34, 27, 33)" opacity="1.0" stroke="rgb(115, 234, 118)" stroke-opacity="0.055512004" stroke-linecap="round" stroke-linejoin="round"/>
    <path d="M 99.0 90.0 C 100.0 90.0 100.0 91.0 100.0 92.0 C 100.0 93.0 100.0 94.0 100.0 95.0 C 99.0 95.0 98.0 95.0 97.0 96.0 C 96.0 97.0 96.0 98.0 96.0 99.0 C 96.0 100.0 95.0 100.0 94.0 100.0 C 93.0 99.0 93.0 98.0 93.0 97.0 C 93.0 96.0 94.0 95.0 94.0 94.0 C 94.0 93.0 95.0 93.0 96.0 92.0 C 97.0 91.0 98.0 90.0 99.0 90.0" stroke-width="0.0" fill="rgb(224, 196, 190)" opacity="1.0" stroke="rgb(108, 82, 28)" stroke-opacity="0.20753133" stroke-linecap="round" stroke-linejoin="round"/>
    <path d="M 216.0 205.09375 C 216.0 205.375 216.0 205.75 216.0 206.0 C 216.0 207.0 216.0 208.0 215.0 208.0 C 214.0 208.0 214.0 207.0 214.0 206.0 C 215.0 206.0 216.0 205.0 216.0 205.09375" stroke-width="0.0" fill="rgb(132, 144, 7)" opacity="1.0" stroke="rgb(211, 210, 190)" stroke-opacity="0.03195835" stroke-linecap="round" stroke-linejoin="round"/>
    <path d="M 181.0 43.0 C 181.0 44.0 181.0 45.0 181.0 46.0 C 181.0 47.0 181.0 48.0 181.0 49.0 C 181.0 50.0 181.0 51.0 181.0 52.0 C 180.0 52.0 179.0 52.0 179.0 51.0 C 179.0 50.0 179.0 49.0 179.0 48.0 C 179.0 47.0 179.0 46.0 179.0 45.0 C 179.0 44.0 179.0 43.0 181.0 43.0" stroke-width="0.0" fill="rgb(194, 132, 109)" opacity="1.0" stroke="rgb(71, 151, 141)" stroke-opacity="0.03138173" stroke-linecap="round" stroke-linejoin="round"/>
  </g>
</svg>
