<?xml version="1.0" ?>
<svg xmlns="http://www.w3.org/2000/svg" version="1.1" width="305" height="210">
  <defs/>
  <g>
    <path d="M 1.0 0.0 C 2.0 0.0 3.0 0.0 4.0 0.0 C 5.0 0.0 6.0 0.0 7.0 0.0 C 17.0 0.0 29.0 0.0 41.0 0.0 C 53.0 0.0 65.0 0.0 77.0 0.0 C 89.0 0.0 101.0 0.0 113.0 0.0 C 125.0 0.0 137.0 0.0 149.0 0.0 C 161.0 0.0 173.0 0.0 185.0 0.0 C 197.0 0.0 209.0 0.0 221.0 0.0 C 233.0 0.0 245.0 0.0 257.0 0.0 C 269.0 0.0 281.0 0.0 293.0 0.0 C 304.0 1.0 304.0 13.0 304.0 25.0 C 304.0 37.0 304.0 49.0 304.0 61.0 C 304.0 73.0 304.0 85.0 299.0 92.0 C 287.0 93.0 275.0 93.0 263.0 93.0 C 251.0 94.0 239.0 94.0 227.0 94.0 C 218.0 89.0 206.0 89.0 199.0 94.0 C 202.0 106.0 201.0 118.0 213.0 125.0 C 223.0 132.0 231.0 125.0 242.0 120.0 C 246.0 113.0 241.0 110.0 229.0 109.0 C 227.0 106.0 239.0 103.0 251.0 103.0 C 263.0 103.0 275.0 104.0 287.0 103.0 C 299.0 102.0 304.0 109.0 304.0 121.0 C 304.0 133.0 304.0 145.0 304.0 157.0 C 304.0 169.0 302.0 179.0 304.0 189.0 C 304.0 201.0 300.0 208.0 289.0 209.0 C 280.0 207.0 276.0 200.0 269.0 207.0 C 259.0 209.0 258.0 198.0 250.0 195.0 C 253.0 191.0 241.0 193.0 246.0 202.0 C 251.0 203.0 245.0 209.0 233.0 209.0 C 224.0 208.0 226.0 199.0 232.0 204.0 C 241.0 207.0 239.0 197.0 230.0 193.0 C 231.0 186.0 232.0 177.0 240.0 173.0 C 243.0 163.0 239.0 157.0 234.0 150.0 C 240.0 144.0 237.0 136.0 225.0 135.0 C 222.0 147.0 222.0 159.0 212.0 168.0 C 201.0 168.0 206.0 159.0 216.0 151.0 C 217.0 139.0 208.0 133.0 196.0 133.0 C 184.0 131.0 172.0 135.0 179.0 147.0 C 186.0 159.0 178.0 168.0 168.0 173.0 C 168.0 165.0 177.0 160.0 168.0 148.0 C 157.0 136.0 145.0 131.0 137.0 142.0 C 139.0 154.0 130.0 154.0 126.0 145.0 C 133.0 138.0 134.0 128.0 124.0 121.0 C 113.0 119.0 112.0 131.0 112.0 143.0 C 115.0 155.0 122.0 167.0 117.0 169.0 C 110.0 162.0 102.0 152.0 103.0 140.0 C 99.0 128.0 94.0 116.0 96.0 110.0 C 103.0 103.0 106.0 101.0 110.0 104.0 C 117.0 96.0 122.0 93.0 126.0 83.0 C 129.0 91.0 139.0 95.0 144.0 89.0 C 149.0 84.0 152.0 76.0 158.0 71.0 C 155.0 61.0 151.0 62.0 153.0 71.0 C 141.0 71.0 129.0 68.0 117.0 67.0 C 105.0 71.0 96.0 73.0 91.0 85.0 C 87.0 97.0 76.0 100.0 65.0 98.0 C 53.0 101.0 41.0 101.0 29.0 101.0 C 17.0 102.0 5.0 102.0 0.0 96.0 C 0.0 84.0 0.0 72.0 0.0 60.0 C 0.0 48.0 0.0 36.0 0.0 24.0 C 0.0 12.0 0.0 0.0 1.0 0.0" stroke-width="0.0" fill="rgb(85, 77, 73)" opacity="1.0" stroke="rgb(164, 195, 90)" stroke-opacity="0.5909725" stroke-linecap="round" stroke-linejoin="round"/>
    <path d="M 10.0 110.0 C 11.0 110.0 12.0 110.0 13.0 110.0 C 14.0 110.0 15.0 110.0 16.0 110.0 C 17.0 110.0 18.0 110.0 19.0 110.0 C 21.0 110.0 25.0 110.0 29.0 110.0 C 33.0 110.0 37.0 111.0 41.0 111.0 C 45.0 111.0 49.0 111.0 53.0 111.0 C 57.0 110.0 61.0 110.0 65.0 110.0 C 69.0 110.0 73.0 111.0 75.0 113.0 C 71.0 114.0 67.0 114.0 63.0 115.0 C 59.0 115.0 57.0 119.0 61.0 120.0 C 64.0 123.0 68.0 126.0 72.0 127.0 C 76.0 128.0 74.0 131.0 71.0 132.0 C 74.0 134.0 76.0 136.0 76.0 140.0 C 76.0 144.0 80.0 145.0 84.0 146.0 C 82.0 150.0 83.0 154.0 79.0 155.0 C 79.0 157.0 81.0 160.0 85.0 161.0 C 89.0 162.0 93.0 162.0 97.0 160.0 C 101.0 162.0 105.0 163.0 108.0 165.0 C 110.0 168.0 108.0 170.0 105.0 172.0 C 103.0 175.0 107.0 176.0 111.0 176.0 C 114.0 177.0 111.0 179.0 108.0 181.0 C 107.0 184.0 103.0 183.0 101.0 183.0 C 98.0 186.0 94.0 185.0 92.0 182.0 C 89.0 184.0 85.0 185.0 83.0 189.0 C 80.0 190.0 78.0 187.0 76.0 190.0 C 77.0 193.0 77.0 197.0 81.0 196.0 C 81.0 192.0 84.0 194.0 83.0 198.0 C 87.0 200.0 91.0 200.0 95.0 201.0 C 99.0 202.0 98.0 198.0 101.0 198.0 C 103.0 201.0 106.0 199.0 110.0 199.0 C 108.0 196.0 104.0 196.0 104.0 194.0 C 108.0 193.0 110.0 195.0 113.0 197.0 C 116.0 200.0 114.0 202.0 115.0 206.0 C 119.0 206.0 123.0 208.0 127.0 207.0 C 131.0 207.0 133.0 204.0 135.0 200.0 C 138.0 200.0 138.0 204.0 135.0 207.0 C 132.0 209.0 128.0 209.0 124.0 209.0 C 120.0 209.0 116.0 209.0 112.0 209.0 C 108.0 209.0 104.0 209.0 100.0 209.0 C 96.0 209.0 93.0 209.0 89.0 209.0 C 86.0 207.0 83.0 209.0 80.0 208.0 C 76.0 207.0 73.0 206.0 69.0 205.0 C 68.0 202.0 67.0 198.0 64.0 202.0 C 60.0 202.0 59.0 205.0 63.0 206.0 C 66.0 208.0 67.0 209.0 63.0 209.0 C 59.0 209.0 55.0 209.0 51.0 209.0 C 47.0 209.0 43.0 209.0 39.0 209.0 C 35.0 209.0 32.0 206.0 29.0 208.0 C 26.0 209.0 22.0 209.0 18.0 209.0 C 14.0 207.0 11.0 209.0 7.0 207.0 C 3.0 209.0 0.0 208.0 0.0 204.0 C 0.0 200.0 0.0 196.0 0.0 192.0 C 2.0 189.0 0.0 186.0 0.0 182.0 C 0.0 178.0 0.0 174.0 0.0 170.0 C 0.0 166.0 0.0 162.0 0.0 158.0 C 0.0 154.0 0.0 150.0 0.0 146.0 C 0.0 142.0 0.0 138.0 0.0 134.0 C 0.0 130.0 0.0 126.0 0.0 122.0 C 0.0 118.0 0.0 114.0 1.0 111.0 C 5.0 111.0 9.0 110.0 10.0 110.0" stroke-width="0.0" fill="rgb(129, 145, 84)" opacity="1.0" stroke="rgb(129, 54, 165)" stroke-opacity="0.574409" stroke-linecap="round" stroke-linejoin="round"/>
    <path d="M 227.0 135.0 C 228.0 135.0 229.0 135.0 230.0 135.0 C 231.0 135.0 232.0 135.0 233.0 135.0 C 234.0 136.0 235.0 136.0 236.0 136.0 C 237.0 137.0 237.0 138.0 237.0 139.0 C 237.0 140.0 236.0 140.0 235.0 141.0 C 235.0 142.0 235.0 143.0 236.0 144.0 C 237.0 145.0 238.0 145.0 239.0 145.0 C 239.0 146.0 239.0 147.0 238.0 147.0 C 237.0 147.0 236.0 147.0 235.0 148.0 C 234.0 148.0 233.0 149.0 233.0 150.0 C 233.0 151.0 233.0 152.0 233.0 153.0 C 234.0 154.0 235.0 154.0 236.0 154.0 C 237.0 154.0 238.0 154.0 239.0 154.0 C 239.0 155.0 239.0 156.0 238.0 157.0 C 238.0 158.0 236.0 161.0 238.0 164.0 C 242.0 164.0 240.0 166.0 238.0 170.0 C 238.0 173.0 234.0 174.0 230.0 175.0 C 232.0 178.0 232.0 181.0 231.0 185.0 C 229.0 188.0 229.0 192.0 231.0 195.0 C 233.0 197.0 230.0 196.0 228.0 198.0 C 225.0 197.0 226.0 193.0 225.0 189.0 C 222.0 190.0 219.0 188.0 219.0 192.0 C 221.0 194.0 219.0 198.0 217.0 201.0 C 221.0 202.0 225.0 205.0 223.0 207.0 C 220.0 209.0 216.0 209.0 212.0 209.0 C 212.0 205.0 208.0 203.0 209.0 207.0 C 208.0 209.0 204.0 209.0 200.0 209.0 C 196.0 209.0 192.0 209.0 188.0 209.0 C 184.0 209.0 180.0 209.0 177.0 208.0 C 173.0 209.0 169.0 209.0 165.0 208.0 C 161.0 206.0 159.0 209.0 155.0 209.0 C 151.0 209.0 147.0 209.0 143.0 209.0 C 139.0 209.0 139.0 205.0 139.0 201.0 C 142.0 200.0 146.0 196.0 150.0 195.0 C 154.0 194.0 155.0 190.0 152.0 188.0 C 150.0 186.0 149.0 190.0 148.0 193.0 C 145.0 193.0 142.0 190.0 140.0 187.0 C 143.0 185.0 144.0 182.0 143.0 178.0 C 145.0 176.0 149.0 176.0 153.0 176.0 C 153.0 180.0 154.0 184.0 157.0 187.0 C 159.0 184.0 162.0 186.0 164.0 183.0 C 168.0 183.0 172.0 183.0 172.0 185.0 C 168.0 186.0 164.0 186.0 162.0 188.0 C 159.0 186.0 159.0 190.0 159.0 194.0 C 161.0 197.0 165.0 195.0 169.0 195.0 C 170.0 199.0 171.0 202.0 174.0 204.0 C 174.0 200.0 175.0 196.0 172.0 193.0 C 172.0 189.0 175.0 189.0 177.0 191.0 C 176.0 195.0 180.0 197.0 182.0 194.0 C 183.0 197.0 187.0 197.0 191.0 198.0 C 195.0 197.0 198.0 196.0 195.0 192.0 C 191.0 192.0 189.0 189.0 187.0 189.0 C 184.0 188.0 184.0 185.0 188.0 184.0 C 191.0 185.0 195.0 186.0 199.0 185.0 C 200.0 188.0 202.0 186.0 202.0 182.0 C 203.0 178.0 203.0 174.0 205.0 172.0 C 209.0 170.0 213.0 168.0 216.0 164.0 C 220.0 162.0 223.0 159.0 223.0 155.0 C 223.0 151.0 223.0 147.0 224.0 143.0 C 224.0 139.0 226.0 135.0 227.0 135.0" stroke-width="0.0" fill="rgb(144, 154, 89)" opacity="1.0" stroke="rgb(116, 75, 184)" stroke-opacity="0.84723145" stroke-linecap="round" stroke-linejoin="round"/>
    <path d="M 119.0 68.0 C 126.0 69.0 133.0 71.0 140.0 72.0 C 147.0 73.0 154.0 70.0 157.0 73.0 C 150.0 77.0 148.0 84.0 149.0 89.0 C 142.0 90.0 136.0 93.0 130.0 92.0 C 123.0 94.0 118.0 99.0 114.0 104.0 C 111.0 101.0 108.0 106.0 106.0 100.0 C 103.0 99.0 100.0 102.0 98.0 109.0 C 95.0 114.0 98.0 121.0 101.0 127.0 C 102.0 134.0 103.0 140.0 102.0 147.0 C 102.0 154.0 108.0 160.0 113.0 166.0 C 118.0 172.0 121.0 179.0 125.0 174.0 C 122.0 167.0 117.0 160.0 115.0 153.0 C 113.0 146.0 113.0 139.0 113.0 132.0 C 114.0 125.0 114.0 118.0 120.0 119.0 C 127.0 124.0 132.0 129.0 134.0 133.0 C 131.0 140.0 126.0 144.0 124.0 149.0 C 130.0 154.0 137.0 159.0 139.0 152.0 C 137.0 145.0 140.0 138.0 145.0 132.0 C 152.0 133.0 159.0 138.0 164.0 145.0 C 171.0 152.0 176.0 159.0 173.0 164.0 C 166.0 163.0 165.0 169.0 170.0 175.0 C 176.0 171.0 181.0 165.0 179.0 160.0 C 184.0 161.0 187.0 160.0 184.0 153.0 C 179.0 146.0 175.0 139.0 177.0 134.0 C 179.0 130.0 184.0 127.0 190.0 124.0 C 194.0 121.0 190.0 127.0 189.0 132.0 C 194.0 134.0 201.0 134.0 208.0 134.0 C 215.0 135.0 216.0 142.0 216.0 149.0 C 212.0 155.0 205.0 158.0 201.0 163.0 C 201.0 170.0 202.0 177.0 201.0 184.0 C 194.0 185.0 188.0 183.0 182.0 186.0 C 187.0 190.0 192.0 193.0 195.0 196.0 C 188.0 196.0 183.0 193.0 178.0 194.0 C 176.0 188.0 173.0 182.0 166.0 182.0 C 159.0 183.0 155.0 183.0 154.0 176.0 C 147.0 175.0 144.0 171.0 142.0 178.0 C 142.0 184.0 140.0 190.0 144.0 195.0 C 139.0 199.0 133.0 202.0 129.0 206.0 C 122.0 206.0 115.0 205.0 116.0 199.0 C 111.0 195.0 106.0 192.0 101.0 196.0 C 97.0 200.0 90.0 199.0 84.0 197.0 C 84.0 190.0 88.0 186.0 95.0 186.0 C 101.0 184.0 108.0 185.0 111.0 180.0 C 114.0 175.0 107.0 175.0 108.0 171.0 C 110.0 166.0 105.0 162.0 98.0 160.0 C 91.0 161.0 84.0 159.0 80.0 156.0 C 84.0 151.0 83.0 145.0 77.0 143.0 C 77.0 136.0 77.0 129.0 71.0 126.0 C 65.0 122.0 58.0 119.0 63.0 116.0 C 70.0 115.0 76.0 112.0 70.0 109.0 C 63.0 109.0 56.0 110.0 49.0 110.0 C 42.0 110.0 35.0 109.0 28.0 109.0 C 21.0 109.0 14.0 109.0 7.0 110.0 C 0.0 110.0 1.0 104.0 8.0 103.0 C 15.0 103.0 22.0 102.0 29.0 102.0 C 36.0 101.0 43.0 101.0 50.0 101.0 C 57.0 101.0 64.0 99.0 71.0 101.0 C 78.0 101.0 85.0 99.0 89.0 92.0 C 92.0 85.0 97.0 78.0 98.0 72.0 C 105.0 72.0 112.0 68.0 119.0 68.0" stroke-width="0.0" fill="rgb(153, 155, 98)" opacity="1.0" stroke="rgb(221, 103, 167)" stroke-opacity="0.827461" stroke-linecap="round" stroke-linejoin="round"/>
    <path d="M 210.0 106.0 C 211.0 106.0 212.0 106.0 213.0 106.0 C 214.0 106.0 215.0 106.0 216.0 106.0 C 217.0 106.0 218.0 106.0 219.0 106.0 C 220.0 106.0 221.0 106.0 222.0 106.0 C 221.0 106.0 220.0 106.0 219.0 106.0 C 218.0 106.0 217.0 106.0 216.0 106.0 C 215.0 106.0 214.0 106.0 213.0 106.0 C 212.0 106.0 211.0 106.0 210.0 106.0 C 209.0 107.0 209.0 108.0 209.0 109.0 C 210.0 110.0 211.0 110.0 212.0 110.0 C 213.0 111.0 214.0 111.0 215.0 111.0 C 216.0 111.0 217.0 111.0 218.0 111.0 C 219.0 111.0 220.0 111.0 221.0 111.0 C 222.0 111.0 223.0 110.0 224.0 110.0 C 225.0 110.0 226.0 110.0 227.0 110.0 C 228.0 110.0 229.0 110.0 230.0 110.0 C 231.0 110.0 232.0 110.0 233.0 110.0 C 234.0 110.0 235.0 110.0 234.0 110.0 C 233.0 111.0 233.0 112.0 232.0 112.0 C 231.0 113.0 230.0 113.0 229.0 114.0 C 228.0 113.0 227.0 113.0 226.0 113.0 C 225.0 114.0 224.0 114.0 223.0 114.0 C 222.0 114.0 221.0 115.0 220.0 115.0 C 219.0 115.0 218.0 115.0 217.0 115.0 C 216.0 114.0 215.0 114.0 214.0 114.0 C 213.0 115.0 212.0 116.0 212.0 117.0 C 212.0 118.0 213.0 119.0 214.0 119.0 C 215.0 119.0 216.0 119.0 217.0 119.0 C 218.0 119.0 219.0 120.0 220.0 120.0 C 221.0 120.0 222.0 120.0 223.0 120.0 C 223.0 121.0 222.0 122.0 221.0 123.0 C 220.0 123.0 219.0 123.0 218.0 123.0 C 217.0 124.0 217.0 125.0 216.0 125.0 C 215.0 125.0 214.0 124.0 213.0 124.0 C 212.0 123.0 211.0 122.0 210.0 122.0 C 209.0 122.0 208.0 122.0 208.0 121.0 C 207.0 120.0 206.0 119.0 205.0 118.0 C 204.0 118.0 203.0 117.0 202.0 116.0 C 202.0 115.0 202.0 114.0 203.0 113.0 C 204.0 113.0 205.0 113.0 206.0 113.0 C 207.0 113.0 208.0 113.0 209.0 113.0 C 210.0 113.0 211.0 113.0 212.0 113.0 C 213.0 113.0 214.0 112.0 213.0 111.0 C 212.0 111.0 211.0 111.0 210.0 111.0 C 209.0 111.0 208.0 111.0 207.0 111.0 C 206.0 111.0 205.0 111.0 204.0 111.0 C 203.0 111.0 203.0 110.0 203.0 109.0 C 204.0 108.0 204.0 107.0 205.0 107.0 C 206.0 107.0 207.0 106.0 210.0 106.0" stroke-width="0.0" fill="rgb(148, 165, 102)" opacity="1.0" stroke="rgb(154, 205, 229)" stroke-opacity="0.28837708" stroke-linecap="round" stroke-linejoin="round"/>
    <path d="M 205.0 88.0 C 206.0 88.0 207.0 88.0 208.0 88.0 C 209.0 88.0 210.0 88.0 211.0 89.0 C 212.0 88.0 213.0 88.0 214.0 88.0 C 215.0 88.0 216.0 88.0 217.0 88.0 C 218.0 88.0 219.0 88.0 220.0 88.0 C 223.0 88.0 227.0 88.0 231.0 88.0 C 235.0 88.0 239.0 89.0 243.0 89.0 C 247.0 88.0 251.0 88.0 255.0 88.0 C 259.0 88.0 263.0 88.0 267.0 88.0 C 267.0 91.0 271.0 93.0 275.0 92.0 C 279.0 92.0 283.0 93.0 287.0 92.0 C 291.0 92.0 295.0 92.0 299.0 91.0 C 303.0 92.0 304.0 95.0 304.0 99.0 C 304.0 103.0 304.0 107.0 304.0 111.0 C 304.0 115.0 304.0 119.0 304.0 123.0 C 304.0 127.0 304.0 131.0 304.0 135.0 C 304.0 139.0 304.0 143.0 304.0 147.0 C 304.0 151.0 304.0 155.0 304.0 159.0 C 304.0 163.0 304.0 167.0 304.0 171.0 C 304.0 175.0 304.0 179.0 304.0 183.0 C 304.0 187.0 304.0 191.0 304.0 195.0 C 304.0 199.0 304.0 203.0 304.0 207.0 C 302.0 209.0 298.0 209.0 294.0 209.0 C 290.0 209.0 286.0 209.0 282.0 209.0 C 278.0 209.0 274.0 209.0 270.0 209.0 C 266.0 209.0 262.0 209.0 258.0 209.0 C 254.0 209.0 250.0 209.0 246.0 209.0 C 242.0 209.0 238.0 209.0 234.0 209.0 C 230.0 209.0 226.0 209.0 222.0 209.0 C 218.0 209.0 214.0 209.0 213.0 206.0 C 213.0 202.0 216.0 202.0 220.0 205.0 C 223.0 208.0 226.0 206.0 223.0 203.0 C 220.0 200.0 221.0 196.0 222.0 192.0 C 225.0 192.0 224.0 196.0 226.0 199.0 C 230.0 198.0 234.0 197.0 232.0 194.0 C 230.0 192.0 230.0 188.0 232.0 185.0 C 233.0 181.0 233.0 177.0 231.0 175.0 C 235.0 175.0 239.0 174.0 239.0 170.0 C 241.0 167.0 243.0 164.0 239.0 163.0 C 237.0 161.0 239.0 157.0 239.0 153.0 C 235.0 153.0 234.0 150.0 237.0 148.0 C 240.0 146.0 237.0 144.0 237.0 141.0 C 238.0 137.0 234.0 135.0 230.0 134.0 C 226.0 134.0 224.0 137.0 223.0 140.0 C 223.0 144.0 220.0 144.0 220.0 140.0 C 218.0 137.0 220.0 135.0 224.0 134.0 C 223.0 130.0 219.0 126.0 219.0 124.0 C 223.0 122.0 222.0 119.0 218.0 118.0 C 214.0 118.0 214.0 115.0 218.0 116.0 C 222.0 115.0 226.0 114.0 230.0 114.0 C 234.0 112.0 236.0 109.0 239.0 108.0 C 243.0 108.0 245.0 105.0 241.0 104.0 C 237.0 103.0 233.0 103.0 229.0 105.0 C 228.0 109.0 224.0 109.0 220.0 110.0 C 216.0 110.0 212.0 109.0 210.0 107.0 C 214.0 107.0 218.0 107.0 222.0 107.0 C 220.0 105.0 216.0 105.0 212.0 105.0 C 208.0 105.0 204.0 106.0 202.0 103.0 C 201.0 99.0 200.0 95.0 198.0 91.0 C 200.0 89.0 204.0 88.0 205.0 88.0" stroke-width="0.0" fill="rgb(138, 154, 78)" opacity="1.0" stroke="rgb(32, 222, 140)" stroke-opacity="0.6407623" stroke-linecap="round" stroke-linejoin="round"/>
    <path d="M 194.0 121.0 C 194.0 122.0 194.0 123.0 193.0 124.0 C 192.0 125.0 191.0 125.0 190.0 126.0 C 190.0 127.0 190.0 128.0 191.0 129.0 C 191.0 130.0 191.0 131.0 191.0 132.0 C 190.0 132.0 189.0 132.0 188.0 131.0 C 187.0 131.0 188.0 131.0 189.0 131.0 C 190.0 130.0 190.0 129.0 190.0 128.0 C 190.0 127.0 189.0 126.0 188.0 126.0 C 187.0 126.0 186.0 126.0 187.0 126.0 C 188.0 126.0 189.0 126.0 190.0 125.0 C 190.0 124.0 190.0 123.0 191.0 122.0 C 191.0 121.0 192.0 120.0 194.0 121.0" stroke-width="0.0" fill="rgb(56, 33, 20)" opacity="1.0" stroke="rgb(79, 221, 1)" stroke-opacity="0.9595211" stroke-linecap="round" stroke-linejoin="round"/>
    <path d="M 113.0 76.0 C 114.0 76.0 115.0 76.0 116.0 76.0 C 116.0 77.0 116.0 78.0 115.0 78.0 C 114.0 78.0 113.0 78.0 112.0 78.0 C 112.0 77.0 112.0 76.0 113.0 76.0" stroke-width="0.0" fill="rgb(152, 95, 85)" opacity="1.0" stroke="rgb(15, 30, 167)" stroke-opacity="0.31615105" stroke-linecap="round" stroke-linejoin="round"/>
    <path d="M 128.5 83.0 C 129.0 83.0 130.0 83.0 130.0 84.0 C 130.0 85.0 130.0 86.0 129.0 87.0 C 128.0 87.0 128.0 86.0 128.0 85.0 C 128.0 84.0 128.0 83.0 128.5 83.0" stroke-width="0.0" fill="rgb(175, 106, 85)" opacity="1.0" stroke="rgb(33, 176, 198)" stroke-opacity="0.8601346" stroke-linecap="round" stroke-linejoin="round"/>
    <path d="M 10.0 66.0 C 11.0 67.0 11.0 68.0 11.0 69.0 C 11.0 70.0 10.0 70.0 9.0 70.0 C 9.0 69.0 8.0 68.0 8.0 67.0 C 8.0 66.0 8.0 65.0 10.0 66.0" stroke-width="0.0" fill="rgb(28, 46, 58)" opacity="1.0" stroke="rgb(61, 15, 176)" stroke-opacity="0.1187121" stroke-linecap="round" stroke-linejoin="round"/>
    <path d="M 162.0 189.0 C 163.0 189.0 163.0 190.0 163.0 191.0 C 164.0 192.0 164.0 193.0 164.0 194.0 C 164.0 195.0 163.0 195.0 162.0 195.0 C 161.0 195.0 160.0 195.0 160.0 194.0 C 160.0 193.0 160.0 192.0 160.0 191.0 C 160.0 190.0 160.0 189.0 162.0 189.0" stroke-width="0.0" fill="rgb(179, 183, 80)" opacity="1.0" stroke="rgb(253, 115, 253)" stroke-opacity="0.1339554" stroke-linecap="round" stroke-linejoin="round"/>
    <path d="M 42.0 186.0 C 43.0 186.0 44.0 186.0 44.0 187.0 C 44.0 188.0 44.0 189.0 43.0 189.0 C 42.0 189.0 41.0 189.0 40.0 188.0 C 40.0 187.0 40.0 186.0 42.0 186.0" stroke-width="0.0" fill="rgb(155, 157, 77)" opacity="1.0" stroke="rgb(178, 206, 69)" stroke-opacity="0.351093" stroke-linecap="round" stroke-linejoin="round"/>
    <path d="M 167.0 187.0 C 168.0 187.0 168.0 188.0 168.0 189.0 C 168.0 190.0 167.0 191.0 167.0 192.0 C 167.0 193.0 167.0 194.0 166.0 194.0 C 165.0 194.0 165.0 193.0 165.0 192.0 C 164.0 191.0 164.0 190.0 164.0 189.0 C 165.0 188.0 165.0 187.0 167.0 187.0" stroke-width="0.0" fill="rgb(185, 187, 119)" opacity="1.0" stroke="rgb(184, 50, 166)" stroke-opacity="0.8753836" stroke-linecap="round" stroke-linejoin="round"/>
    <path d="M 193.0 45.0 C 194.0 46.0 194.0 47.0 195.0 48.0 C 195.0 49.0 195.0 50.0 195.0 51.0 C 194.0 51.0 193.0 51.0 192.0 50.0 C 191.0 49.0 191.0 48.0 191.0 47.0 C 191.0 46.0 191.0 45.0 193.0 45.0" stroke-width="0.0" fill="rgb(179, 129, 121)" opacity="1.0" stroke="rgb(225, 172, 52)" stroke-opacity="0.08458003" stroke-linecap="round" stroke-linejoin="round"/>
    <path d="M 5.0 54.0 C 6.0 55.0 7.0 55.0 8.0 55.0 C 9.0 55.0 9.0 56.0 9.0 57.0 C 8.0 56.0 7.0 56.0 6.0 56.0 C 5.0 57.0 5.0 58.0 5.0 59.0 C 5.0 58.0 5.0 57.0 4.0 56.0 C 3.0 56.0 2.0 55.0 3.0 55.0 C 4.0 54.0 4.0 53.0 5.0 54.0" stroke-width="0.0" fill="rgb(33, 51, 61)" opacity="1.0" stroke="rgb(210, 222, 252)" stroke-opacity="0.12597804" stroke-linecap="round" stroke-linejoin="round"/>
    <path d="M 154.0 102.0 C 154.0 103.0 154.0 104.0 154.0 105.0 C 154.0 106.0 154.0 107.0 154.0 108.0 C 153.0 109.0 153.0 110.0 153.0 111.0 C 152.0 111.0 151.0 111.0 151.0 110.0 C 151.0 109.0 151.0 108.0 152.0 107.0 C 152.0 106.0 152.0 105.0 152.0 104.0 C 152.0 103.0 152.0 102.0 154.0 102.0" stroke-width="0.0" fill="rgb(192, 142, 125)" opacity="1.0" stroke="rgb(210, 32, 123)" stroke-opacity="0.489101" stroke-linecap="round" stroke-linejoin="round"/>
  </g>
</svg>
