<?xml version="1.0" ?>
<svg xmlns="http://www.w3.org/2000/svg" version="1.1" width="474" height="596">
  <defs/>
  <g>
    <path d="M 265.9917297363281 -1.3262414932250977 C 268.5194396972656 -1.9106175899505615 270.4229431152344 -2.569765090942383 272.3989562988281 -2.963623046875 C 273.5625305175781 -3.187354564666748 274.1265869140625 -3.791804552078247 274.3434753417969 -3.871225118637085 C 273.86468505859375 -3.8850066661834717 273.22003173828125 -3.8767082691192627 272.54083251953125 -3.994290590286255 C 271.93719482421875 -4.353030681610107 271.85028076171875 -4.6483612060546875 272.19921875 -4.69234561920166 C 273.6679382324219 -4.218222618103027 275.5735168457031 -3.5461974143981934 279.8746337890625 -2.705740451812744 C 283.1428527832031 0.1613822728395462 288.50518798828125 2.1590001583099365 295.8258361816406 3.320566177368164 C 303.9693603515625 5.61199951171875 312.4225769042969 8.366144180297852 320.3779602050781 11.774998664855957 C 328.61407470703125 15.248053550720215 336.64227294921875 19.217025756835938 344.13519287109375 24.026792526245117 C 352.39483642578125 28.586658477783203 360.1900939941406 34.57729721069336 368.23382568359375 40.90042495727539 C 376.7445373535156 47.53704071044922 384.7294616699219 55.40629959106445 392.4010925292969 63.63187026977539 C 399.39605712890625 71.46410369873047 405.90362548828125 79.26123046875 411.62841796875 87.31137084960938 C 417.1361999511719 95.28125762939453 422.7478942871094 103.53324890136719 428.00762939453125 112.61031341552734 C 433.4570007324219 120.84852600097656 435.5894775390625 127.83849334716797 431.8273010253906 136.34410095214844 C 428.0618591308594 145.40402221679688 422.1218566894531 153.08265686035156 415.8913269042969 160.99801635742188 C 409.2212829589844 169.2220001220703 401.2372741699219 177.0458526611328 392.9781799316406 184.70469665527344 C 384.7335510253906 191.5922393798828 376.843017578125 198.1104278564453 368.6201477050781 203.6946258544922 C 361.01739501953125 208.8101806640625 353.4390563964844 213.9890899658203 344.9111633300781 218.2296600341797 C 334.4226989746094 222.46620178222656 322.98785400390625 225.26300048828125 313.5977783203125 226.3081817626953 C 311.31640625 222.12841796875 318.9013671875 215.90249633789062 327.36846923828125 208.62356567382812 C 336.1939697265625 201.55197143554688 344.2381591796875 194.16616821289062 350.9936218261719 186.1864471435547 C 356.2379150390625 178.09605407714844 360.3669128417969 170.43035888671875 364.0940856933594 163.08346557617188 C 367.3497009277344 155.97479248046875 370.33245849609375 149.01773071289062 371.0920104980469 142.72265625 C 369.8483581542969 133.01918029785156 367.4353332519531 124.8412094116211 363.7953186035156 116.73959350585938 C 359.1585998535156 109.45675659179688 353.8907470703125 103.9012451171875 347.9299011230469 100.74694061279297 C 341.4299011230469 100.85780334472656 334.3305969238281 105.24893188476562 329.24853515625 102.27122497558594 C 320.13336181640625 99.33306884765625 312.33282470703125 100.49610900878906 304.11602783203125 104.67699432373047 C 294.8211975097656 108.21739959716797 284.4195556640625 110.87091064453125 274.9734802246094 112.18453216552734 C 266.0555725097656 110.846923828125 257.5831298828125 108.09716796875 251.1360321044922 103.25286865234375 C 247.73402404785156 96.62952423095703 242.41212463378906 93.65017700195312 238.50611877441406 92.783203125 C 243.509033203125 102.64348602294922 246.96949768066406 108.54451751708984 245.72610473632812 114.08064270019531 C 237.9153289794922 116.8232650756836 227.2378387451172 117.91727447509766 216.60324096679688 120.95767211914062 C 205.71690368652344 124.27340698242188 197.94082641601562 130.45240783691406 189.87860107421875 135.23313903808594 C 182.08303833007812 138.50303649902344 174.95489501953125 139.66403198242188 166.04022216796875 139.133056640625 C 163.02951049804688 134.6372528076172 162.86422729492188 128.32839965820312 158.41209411621094 127.7952880859375 C 158.28018188476562 139.79818725585938 156.09640502929688 147.29611206054688 152.67648315429688 155.34410095214844 C 149.28683471679688 164.14105224609375 146.66920471191406 173.13063049316406 145.33790588378906 181.80148315429688 C 145.8936004638672 190.06578063964844 148.42214965820312 197.79617309570312 153.19955444335938 204.70272827148438 C 158.43862915039062 212.1566925048828 166.23345947265625 217.9103546142578 175.15536499023438 222.91091918945312 C 184.619873046875 227.12594604492188 194.0179443359375 231.0392303466797 202.6968231201172 234.73561096191406 C 210.3397979736328 238.1033172607422 216.4720916748047 240.5095672607422 223.12808227539062 244.8323516845703 C 214.06471252441406 246.63900756835938 205.637939453125 244.659423828125 195.4704132080078 244.37503051757812 C 184.3416290283203 244.3999786376953 172.16839599609375 244.01138305664062 162.18630981445312 240.85226440429688 C 153.74021911621094 240.9173126220703 143.62515258789062 240.55641174316406 136.591064453125 239.55210876464844 C 128.53314208984375 238.1767120361328 120.63587188720703 236.5110626220703 112.88260650634766 234.6017608642578 C 105.26737976074219 232.25820922851562 97.0546646118164 229.79623413085938 89.2923583984375 226.6160888671875 C 80.8956298828125 223.44644165039062 72.63919830322266 219.57838439941406 64.52410125732422 215.13168334960938 C 57.8151969909668 211.3765411376953 53.53976821899414 205.0438232421875 53.36098861694336 198.33995056152344 C 53.394840240478516 187.86155700683594 54.863929748535156 177.93081665039062 56.90556716918945 168.40602111816406 C 58.42028045654297 160.0587615966797 60.12437057495117 152.42892456054688 62.4821662902832 145.27871704101562 C 64.60902404785156 137.3130340576172 67.50753784179688 129.5471954345703 71.20922088623047 121.2256088256836 C 74.66899108886719 113.05360412597656 78.73969268798828 105.03749084472656 83.44926452636719 97.17127227783203 C 88.56599426269531 88.9571762084961 93.93738555908203 80.9615478515625 100.2546157836914 73.35879516601562 C 107.0634994506836 65.29460906982422 114.59623718261719 56.94252014160156 123.10894012451172 49.69120407104492 C 130.74417114257812 42.698028564453125 139.14266967773438 36.92741775512695 147.09559631347656 31.079965591430664 C 154.77188110351562 26.32151985168457 162.5076141357422 24.414175033569336 171.2965545654297 23.730850219726562 C 178.40415954589844 23.360254287719727 187.45465087890625 24.519546508789062 195.57859802246094 26.26693344116211 C 204.64755249023438 28.192548751831055 210.84344482421875 31.383583068847656 213.73439025878906 28.48570442199707 C 215.9779510498047 29.1586971282959 222.8276824951172 30.074480056762695 226.30734252929688 27.078859329223633 C 233.3605499267578 18.993839263916016 241.02699279785156 11.541354179382324 249.38470458984375 7.233391284942627 C 257.7498474121094 2.6456313133239746 267.9387512207031 0.27079084515571594 265.9917297363281 -1.3262414932250977" stroke-width="0.0" fill="rgb(64, 38, 30)" opacity="0.9999933" stroke="rgb(22, 98, 166)" stroke-opacity="0.20451953" stroke-linecap="round" stroke-linejoin="round"/>
    <path d="M 288.93084716796875 237.83091735839844 C 293.44677734375 239.52468872070312 299.3439025878906 240.005615234375 306.5557556152344 241.3786163330078 C 315.9696044921875 242.8399200439453 328.461669921875 245.89768981933594 345.5433654785156 252.34957885742188 C 363.9847106933594 262.55133056640625 383.85870361328125 275.08990478515625 400.2537536621094 284.78009033203125 C 408.7978820800781 290.8626708984375 410.3992614746094 291.8300476074219 403.8608093261719 291.30517578125 C 394.2255554199219 289.8739013671875 385.0791320800781 289.9782409667969 379.04888916015625 293.4110412597656 C 378.26837158203125 300.1357727050781 383.7206115722656 309.8684997558594 394.0083312988281 321.19866943359375 C 406.9239196777344 332.1474914550781 419.49884033203125 340.6010437011719 428.22833251953125 344.86248779296875 C 429.8145751953125 344.1170959472656 422.57891845703125 338.8624267578125 406.7153625488281 331.4275817871094 C 382.0267028808594 329.6602478027344 358.3015441894531 323.9460144042969 337.4725646972656 322.3256530761719 C 322.7657165527344 324.2926330566406 319.5616760253906 334.8341979980469 322.8204650878906 353.5629577636719 C 325.7360534667969 372.7771911621094 316.6654968261719 390.9115295410156 305.4043884277344 412.03399658203125 C 296.9551696777344 435.78375244140625 290.47637939453125 457.5851135253906 287.2220764160156 478.6361999511719 C 283.9081115722656 496.3702087402344 287.21771240234375 509.6452331542969 294.2740173339844 519.1443481445312 C 292.6875 525.5838012695312 283.47454833984375 528.8571166992188 270.7113952636719 530.0536499023438 C 257.9526062011719 531.3778686523438 249.27615356445312 534.9989624023438 246.9590606689453 541.658447265625 C 251.4032745361328 549.7290649414062 261.4565734863281 557.9060668945312 274.9775085449219 565.252197265625 C 290.0570373535156 570.6116333007812 304.21466064453125 574.1282958984375 315.36822509765625 576.1201782226562 C 321.5240173339844 577.2144165039062 321.625 578.39306640625 315.81915283203125 579.223388671875 C 304.979736328125 579.4557495117188 290.53985595703125 578.60986328125 274.6031494140625 576.0286865234375 C 259.1907958984375 570.6864013671875 246.67161560058594 561.5631713867188 239.0906524658203 548.552001953125 C 238.19354248046875 531.9254150390625 240.92611694335938 512.6881713867188 244.35816955566406 492.40924072265625 C 243.82049560546875 476.1385803222656 236.76547241210938 465.33709716796875 228.80555725097656 460.66558837890625 C 221.68017578125 466.6204528808594 214.52923583984375 477.00726318359375 207.21014404296875 486.13372802734375 C 199.8287353515625 490.9156494140625 193.10569763183594 492.217529296875 188.20480346679688 492.1441345214844 C 186.13592529296875 492.7843933105469 187.54364013671875 496.02508544921875 192.1150665283203 502.71649169921875 C 198.78506469726562 512.7894897460938 205.7451934814453 525.654052734375 210.76730346679688 540.2587280273438 C 211.2108612060547 555.521484375 206.61288452148438 569.7045288085938 197.0608673095703 581.3599243164062 C 183.1713409423828 589.2579956054688 166.751708984375 592.7822875976562 150.3880615234375 592.8314208984375 C 136.859619140625 590.901611328125 128.26123046875 588.2473754882812 126.60954284667969 586.0099487304688 C 132.7010040283203 584.8724975585938 144.93695068359375 583.9324951171875 160.6613006591797 582.0049438476562 C 176.73338317871094 577.677490234375 190.1609344482422 570.46337890625 199.27618408203125 560.8428955078125 C 203.4282989501953 550.2062377929688 202.71206665039062 539.9893798828125 198.1543731689453 531.9547119140625 C 191.00755310058594 527.0946655273438 182.86679077148438 525.158935546875 175.36546325683594 524.595703125 C 169.7297821044922 523.0830078125 166.4212188720703 519.1212158203125 165.5055389404297 511.1748962402344 C 166.1854705810547 498.8934020996094 166.62869262695312 482.9223327636719 165.2686309814453 464.1256408691406 C 162.5205078125 443.5907287597656 158.0547332763672 422.45672607421875 151.80125427246094 401.56744384765625 C 142.763916015625 382.27215576171875 131.9763641357422 365.9124755859375 120.29959869384766 351.3586730957031 C 108.227783203125 347.55078125 98.15848541259766 350.6101379394531 90.8709945678711 354.8460388183594 C 87.71371459960938 356.3291320800781 89.08441162109375 356.7203674316406 92.8904800415039 353.0632629394531 C 99.30780792236328 345.261474609375 105.44007110595703 334.7178955078125 110.80738067626953 322.8240661621094 C 113.14773559570312 311.1290588378906 111.62147521972656 300.7725524902344 106.72660064697266 292.8352966308594 C 98.7828140258789 287.4058837890625 92.7673110961914 283.613037109375 94.40000915527344 278.06591796875 C 103.04497528076172 269.739990234375 117.63119506835938 260.3921813964844 134.9022979736328 251.62237548828125 C 150.933349609375 244.94265747070312 161.61404418945312 240.76792907714844 167.4868621826172 241.55923461914062 C 167.67526245117188 251.204833984375 165.30044555664062 264.3973388671875 162.2761688232422 280.6489562988281 C 160.03427124023438 298.7153015136719 158.83531188964844 317.1755065917969 159.31439208984375 334.6309814453125 C 160.68882751464844 349.8185119628906 161.2699737548828 361.4800109863281 161.99807739257812 369.10809326171875 C 162.3166961669922 371.5605773925781 161.9131317138672 369.03692626953125 161.46713256835938 361.64349365234375 C 159.991455078125 351.6774597167969 163.20068359375 339.1698913574219 168.11575317382812 325.5793762207031 C 174.0893096923828 312.689453125 180.44776916503906 301.25567626953125 186.31863403320312 291.8389587402344 C 191.22767639160156 284.4930419921875 195.0131072998047 278.89581298828125 194.44117736816406 273.4873046875 C 195.09072875976562 267.0180358886719 195.93197631835938 260.1208190917969 201.83865356445312 254.6454620361328 C 209.1806182861328 251.02008056640625 218.8324737548828 250.36709594726562 230.00411987304688 250.75344848632812 C 242.1996612548828 252.3596954345703 254.44252014160156 255.73712158203125 266.1492919921875 262.3841247558594 C 276.2016906738281 274.0259704589844 285.2661437988281 284.7674865722656 294.74591064453125 295.2647399902344 C 302.039306640625 305.05633544921875 307.0941467285156 312.6035461425781 311.3700866699219 316.06060791015625 C 314.8566589355469 316.0656433105469 317.50665283203125 313.5406799316406 319.16461181640625 309.8515625 C 319.40655517578125 306.2298889160156 318.2178955078125 302.20404052734375 316.6766662597656 297.3924255371094 C 315.1285095214844 290.20697021484375 311.0892333984375 282.03338623046875 306.0932922363281 272.53558349609375 C 300.3730163574219 262.28997802734375 294.2375183105469 251.7416229248047 288.93084716796875 237.83091735839844" stroke-width="0.0" fill="rgb(252, 110, 165)" opacity="0.9999832" stroke="rgb(93, 238, 70)" stroke-opacity="0.18027435" stroke-linecap="round" stroke-linejoin="round"/>
    <path d="M 315.52337646484375 98.99987030029297 C 325.39373779296875 95.95446014404297 335.1734924316406 94.95228576660156 341.4210205078125 94.2937240600586 C 344.94140625 94.66870880126953 347.5016174316406 95.9145736694336 348.58441162109375 97.1143798828125 C 348.3973083496094 97.8191909790039 347.8248291015625 98.68843078613281 347.0716857910156 98.39946746826172 C 347.0782470703125 98.51451873779297 348.1851806640625 97.98472595214844 348.0365295410156 98.30926513671875 C 347.6952209472656 98.9285888671875 347.4737854003906 98.34909057617188 348.05145263671875 98.24148559570312 C 348.5814208984375 98.64724731445312 350.2554016113281 99.6171646118164 352.9252014160156 101.7594223022461 C 356.3872985839844 104.9994125366211 361.1304626464844 108.74658203125 363.57745361328125 115.0047378540039 C 366.150634765625 121.98583221435547 369.01239013671875 128.93637084960938 370.39013671875 135.53189086914062 C 371.1510009765625 145.6519317626953 371.23956298828125 151.28933715820312 369.2049255371094 157.67926025390625 C 368.76300048828125 164.56942749023438 366.7710266113281 169.5006103515625 364.40765380859375 173.8778533935547 C 362.8606262207031 178.81297302246094 359.850830078125 183.0360870361328 355.9405212402344 186.68145751953125 C 351.8255920410156 190.40542602539062 347.6322937011719 194.49932861328125 343.4389953613281 199.11378479003906 C 340.25775146484375 205.2240753173828 335.169189453125 210.72421264648438 328.46710205078125 215.03857421875 C 321.883056640625 220.03773498535156 314.3720703125 223.13905334472656 310.60784912109375 227.56854248046875 C 308.7823181152344 231.1511688232422 305.2093811035156 230.4225311279297 304.65863037109375 230.38612365722656 C 304.3263244628906 230.828125 303.8081970214844 229.5026397705078 302.67120361328125 229.47500610351562 C 301.6157531738281 231.3048858642578 298.38226318359375 232.35333251953125 294.44769287109375 234.18588256835938 C 293.90679931640625 237.77064514160156 294.44866943359375 241.96754455566406 295.20751953125 246.76220703125 C 297.0094909667969 251.94664001464844 299.4815673828125 257.4092712402344 302.2832336425781 262.9608154296875 C 305.375 268.2965087890625 308.2046203613281 273.0053405761719 310.2986755371094 276.4551086425781 C 311.60430908203125 278.3722229003906 311.7329406738281 278.5476379394531 310.4955139160156 276.8611755371094 C 307.95770263671875 273.4936218261719 304.2158508300781 268.95379638671875 299.2433776855469 263.8504333496094 C 293.3336181640625 258.876708984375 286.9219970703125 254.54563903808594 280.2375793457031 251.4591064453125 C 273.4410705566406 249.9612274169922 266.7557067871094 250.18064880371094 260.0902099609375 251.80271911621094 C 253.38250732421875 253.69183349609375 246.63510131835938 256.2097473144531 239.40267944335938 258.87384033203125 C 234.0819549560547 259.49847412109375 228.5287628173828 259.1285705566406 225.99459838867188 257.5257873535156 C 221.3290557861328 255.3249969482422 219.27320861816406 251.4548797607422 218.46578979492188 247.50059509277344 C 222.27806091308594 244.8811798095703 225.4859161376953 243.02703857421875 229.5293731689453 241.90460205078125 C 232.66946411132812 241.10650634765625 234.8116455078125 240.61752319335938 234.7598114013672 240.74526977539062 C 232.8438720703125 241.0616912841797 228.326171875 242.07168579101562 223.43417358398438 243.73997497558594 C 215.21524047851562 242.81922912597656 207.1279754638672 241.38414001464844 199.20606994628906 238.62408447265625 C 191.2698516845703 235.89068603515625 185.33384704589844 232.46307373046875 179.74452209472656 229.7198028564453 C 174.4660186767578 226.82199096679688 169.80447387695312 223.28610229492188 165.05789184570312 219.13760375976562 C 160.16290283203125 214.77960205078125 155.36122131347656 209.45791625976562 151.53884887695312 203.389404296875 C 148.02191162109375 197.06935119628906 145.175048828125 190.7215118408203 143.89794921875 183.3142852783203 C 142.2525634765625 175.18173217773438 142.92950439453125 166.111083984375 144.798583984375 157.7455291748047 C 150.02357482910156 151.62554931640625 156.3694305419922 145.94265747070312 159.75328063964844 135.949951171875 C 171.03248596191406 138.69778442382812 178.15286254882812 134.821044921875 184.33627319335938 130.8977813720703 C 187.31622314453125 135.6366424560547 186.23507690429688 143.8617401123047 183.4955291748047 152.41769409179688 C 184.17918395996094 159.37747192382812 187.09136962890625 164.6848907470703 189.75970458984375 166.28836059570312 C 196.2986602783203 166.52781677246094 200.1249237060547 166.5565948486328 199.67153930664062 163.49655151367188 C 193.66098022460938 161.84544372558594 189.6837158203125 157.99655151367188 187.40899658203125 150.95437622070312 C 187.5675048828125 143.2814483642578 186.07528686523438 136.6481475830078 185.33401489257812 130.96084594726562 C 188.18606567382812 127.17132568359375 197.81289672851562 126.75230407714844 206.7560272216797 123.43467712402344 C 214.1860809326172 119.88593292236328 216.8014678955078 124.2757568359375 222.64712524414062 130.6436004638672 C 229.29815673828125 136.4752960205078 229.93252563476562 143.85801696777344 226.9193878173828 153.17691040039062 C 222.69590759277344 158.77342224121094 221.83975219726562 162.4193115234375 226.33888244628906 159.61282348632812 C 233.6932830810547 157.31768798828125 240.4784698486328 155.18145751953125 245.0625 151.1390838623047 C 246.08740234375 148.18690490722656 244.4138946533203 143.51214599609375 241.0540771484375 137.39492797851562 C 237.03932189941406 131.09408569335938 228.41693115234375 127.79618835449219 218.26512145996094 125.32046508789062 C 217.55093383789062 118.29962921142578 227.74624633789062 117.38336181640625 243.07020568847656 115.28841400146484 C 247.85560607910156 112.12539672851562 243.5796356201172 101.29417419433594 248.895751953125 99.3680419921875 C 253.40484619140625 103.04194641113281 258.56866455078125 106.74246978759766 264.142333984375 109.17242431640625 C 271.9951477050781 107.81526184082031 280.1499328613281 105.48527526855469 288.4483947753906 103.65299987792969 C 297.87664794921875 101.86192321777344 302.6964416503906 100.30139923095703 308.3276062011719 104.49840545654297 C 317.4208984375 103.39682006835938 323.44256591796875 105.28560638427734 328.1845397949219 112.51087188720703 C 331.52581787109375 120.99748229980469 330.7875671386719 126.8205795288086 328.44561767578125 132.43064880371094 C 331.3559875488281 132.98968505859375 336.9823913574219 129.87355041503906 343.9465026855469 126.54228973388672 C 346.95428466796875 121.2992935180664 345.6484069824219 115.26239013671875 339.9689636230469 108.7860336303711 C 331.2750244140625 103.26944732666016 328.1061706542969 97.3116683959961 315.52337646484375 98.99987030029297" stroke-width="0.0" fill="rgb(251, 187, 103)" opacity="0.9999987" stroke="rgb(142, 197, 184)" stroke-opacity="0.9086559" stroke-linecap="round" stroke-linejoin="round"/>
    <path d="M 220.89149475097656 381.3287048339844 C 221.94454956054688 380.3352966308594 222.95188903808594 379.2369079589844 223.9579620361328 378.3091125488281 C 224.97596740722656 377.5633850097656 225.94100952148438 376.974853515625 226.93234252929688 376.5787353515625 C 227.95361328125 376.40496826171875 229.03073120117188 376.36492919921875 230.07711791992188 376.4620056152344 C 231.08926391601562 376.5962219238281 232.12049865722656 376.7735900878906 233.1519317626953 376.94744873046875 C 234.15463256835938 377.08087158203125 234.96914672851562 377.1827392578125 235.7576141357422 377.3974914550781 C 236.6812286376953 378.2185363769531 237.60704040527344 378.3387451171875 238.51109313964844 378.1562805175781 C 238.7901153564453 376.77630615234375 239.8048553466797 376.62738037109375 240.94801330566406 377.3468017578125 C 242.3759307861328 377.7214660644531 244.3272247314453 377.8813781738281 247.0719757080078 377.79193115234375 C 250.5155792236328 377.8641052246094 254.5050506591797 378.3439636230469 259.08294677734375 378.8086242675781 C 264.4184875488281 378.9613342285156 270.7017517089844 378.6649475097656 277.7919921875 378.203857421875 C 285.1366882324219 378.0667419433594 292.6747741699219 378.02569580078125 300.0002136230469 377.39044189453125 C 306.51434326171875 376.84613037109375 312.03424072265625 377.95013427734375 315.6258850097656 380.5764465332031 C 316.5972900390625 386.12396240234375 316.1521911621094 392.5018615722656 314.71710205078125 399.8458557128906 C 313.55963134765625 407.80517578125 311.9119873046875 415.9268493652344 310.0446472167969 423.7637939453125 C 308.49139404296875 431.7209777832031 306.1588439941406 438.6868896484375 303.6978454589844 446.0815734863281 C 302.2419128417969 455.28631591796875 300.83062744140625 462.9075927734375 299.7624206542969 469.2637634277344 C 295.9281005859375 472.86358642578125 292.1980285644531 474.42987060546875 288.14215087890625 473.6235046386719 C 284.62353515625 471.8122863769531 280.8592529296875 472.4600524902344 279.7913513183594 474.9638366699219 C 280.7518310546875 478.3164978027344 282.51580810546875 482.3943786621094 284.2447814941406 486.82952880859375 C 285.1491394042969 491.2666320800781 285.1688232421875 495.2486267089844 284.2658386230469 498.7510986328125 C 283.3854675292969 501.3177490234375 283.4530944824219 503.3023376464844 284.3316650390625 504.88287353515625 C 286.183349609375 505.5931701660156 289.4415588378906 504.9748840332031 293.516845703125 505.5023498535156 C 299.0070495605469 506.6700439453125 303.9034423828125 508.1562194824219 305.17938232421875 512.7454833984375 C 304.9647216796875 518.3628540039062 302.0892333984375 520.2930297851562 295.7574157714844 519.3118286132812 C 290.3934020996094 521.6686401367188 282.8598327636719 521.6387939453125 276.05645751953125 522.3473510742188 C 269.0543518066406 523.891845703125 262.3551025390625 525.5625610351562 256.614990234375 527.8824462890625 C 251.578369140625 530.6507568359375 246.52227783203125 534.0147705078125 241.68765258789062 538.3201904296875 C 237.41259765625 543.5222778320312 237.901123046875 549.8856811523438 237.73777770996094 557.78564453125 C 237.90036010742188 565.7027587890625 237.74339294433594 572.3934936523438 237.84054565429688 576.0663452148438 C 236.23635864257812 574.8550415039062 233.75999450683594 569.991943359375 233.51609802246094 562.7439575195312 C 233.2247314453125 551.637451171875 234.16607666015625 541.136474609375 235.563720703125 531.0670166015625 C 236.61349487304688 524.7068481445312 230.4697723388672 524.8883666992188 226.72927856445312 520.1189575195312 C 224.68011474609375 514.8588256835938 227.93899536132812 511.3652038574219 233.84527587890625 508.0071105957031 C 239.7402801513672 505.2920227050781 245.01829528808594 502.5705261230469 247.30316162109375 498.0425720214844 C 247.7303924560547 491.6397705078125 246.9744110107422 484.88055419921875 245.45013427734375 476.66497802734375 C 241.54156494140625 471.4754333496094 235.1286163330078 467.4850769042969 232.5089569091797 460.92559814453125 C 228.31204223632812 459.48651123046875 227.4199676513672 462.25067138671875 226.5560302734375 467.7772521972656 C 227.4835968017578 473.5005187988281 225.46400451660156 475.1729736328125 218.138427734375 474.7369689941406 C 212.27024841308594 480.7605895996094 207.60897827148438 488.7152404785156 203.8362274169922 499.7195739746094 C 206.9852752685547 506.1175537109375 214.83863830566406 508.46331787109375 220.34893798828125 512.9783935546875 C 222.18186950683594 519.5182495117188 219.49754333496094 522.7477416992188 213.10693359375 523.8850708007812 C 208.1915740966797 525.9711303710938 204.0399932861328 528.2182006835938 200.35226440429688 529.7827758789062 C 197.01100158691406 531.0421752929688 193.62745666503906 531.9480590820312 190.05078125 532.3096923828125 C 186.13539123535156 532.3703002929688 181.74969482421875 532.1910400390625 177.27325439453125 531.81201171875 C 172.93423461914062 530.9876708984375 168.71060180664062 529.913818359375 164.5555419921875 528.508544921875 C 160.69541931152344 526.0758666992188 157.409423828125 523.8577880859375 154.36026000976562 522.4180297851562 C 151.25054931640625 519.9697875976562 150.1956024169922 518.1810913085938 152.05084228515625 515.2880249023438 C 153.24087524414062 509.0976257324219 158.97122192382812 507.01177978515625 166.0355682373047 504.2325439453125 C 166.0513916015625 495.1578369140625 165.65174865722656 487.8853759765625 167.2006072998047 477.9508972167969 C 162.8479461669922 473.8219299316406 158.0437469482422 471.15655517578125 157.72618103027344 465.5553894042969 C 157.6097869873047 458.75299072265625 156.64891052246094 452.88067626953125 156.0623321533203 446.8648681640625 C 155.24041748046875 441.75927734375 155.4682159423828 436.28082275390625 154.796630859375 430.98992919921875 C 154.2178192138672 425.259765625 153.7291717529297 419.1923522949219 153.2994384765625 413.0570068359375 C 152.31671142578125 406.6515197753906 151.24755859375 400.0917053222656 154.76942443847656 395.728271484375 C 157.21571350097656 389.59307861328125 159.90985107421875 383.38726806640625 164.37619018554688 379.9075012207031 C 173.39956665039062 379.64129638671875 180.4906463623047 378.13128662109375 187.00247192382812 377.28228759765625 C 192.9583282470703 377.4376525878906 197.7974090576172 378.0062255859375 201.1848602294922 378.8458251953125 C 203.2805938720703 379.56072998046875 204.5647430419922 380.1266784667969 205.14703369140625 380.4887390136719 C 205.3719024658203 380.6302795410156 205.3880615234375 380.505615234375 205.4706268310547 380.2139587402344 C 205.69131469726562 379.7240905761719 205.82284545898438 379.27593994140625 220.89149475097656 381.3287048339844" stroke-width="0.0" fill="rgb(238, 80, 7)" opacity="0.99997085" stroke="rgb(145, 254, 231)" stroke-opacity="0.21845049" stroke-linecap="round" stroke-linejoin="round"/>
    <path d="M 179.26031494140625 240.65869140625 C 180.64627075195312 241.0087432861328 181.73529052734375 240.59288024902344 182.76275634765625 239.8730926513672 C 183.596923828125 239.11439514160156 184.1726531982422 238.44081115722656 184.30885314941406 238.0075225830078 C 184.4775390625 238.08938598632812 184.59178161621094 237.78164672851562 184.64974975585938 237.7453155517578 C 184.9341583251953 238.32290649414062 185.507080078125 239.45120239257812 186.38870239257812 240.52413940429688 C 187.42893981933594 241.35658264160156 188.62677001953125 241.8304443359375 190.0404052734375 242.18296813964844 C 191.8636016845703 242.37741088867188 194.29331970214844 242.92788696289062 197.41954040527344 243.9125213623047 C 201.03146362304688 244.58587646484375 205.10586547851562 244.94757080078125 210.43992614746094 246.27984619140625 C 216.36798095703125 246.40673828125 221.32420349121094 245.5087432861328 223.24038696289062 244.39105224609375 C 223.378173828125 242.9759521484375 222.55857849121094 244.3632354736328 221.45376586914062 247.5054473876953 C 217.83473205566406 249.13491821289062 213.20516967773438 250.4735565185547 208.27450561523438 252.0721435546875 C 203.81211853027344 254.00823974609375 200.04489135742188 256.12591552734375 196.64500427246094 259.5578918457031 C 194.40769958496094 264.85186767578125 193.97686767578125 269.817626953125 193.07748413085938 274.12286376953125 C 193.82937622070312 282.1258239746094 192.25466918945312 287.6398010253906 189.7709503173828 293.0780334472656 C 186.89306640625 298.1938781738281 183.78738403320312 303.0296936035156 181.03794860839844 307.6062927246094 C 178.58567810058594 312.05810546875 176.20684814453125 316.1358947753906 171.70263671875 318.4245910644531 C 170.0291290283203 323.6205749511719 167.77317810058594 328.15557861328125 165.9994354248047 331.878173828125 C 165.03273010253906 337.1292419433594 163.0209503173828 342.4168701171875 160.3310089111328 348.5223083496094 C 158.60003662109375 355.8947448730469 156.43832397460938 362.09417724609375 154.79331970214844 368.08709716796875 C 153.81700134277344 373.17681884765625 153.1884307861328 377.089111328125 153.13136291503906 380.23089599609375 C 153.2311553955078 382.97955322265625 153.04212951660156 385.49188232421875 153.02035522460938 387.978271484375 C 153.1764678955078 391.4722595214844 152.93484497070312 395.8135986328125 153.0198211669922 400.8885498046875 C 152.1353302001953 407.5757141113281 152.64761352539062 412.9705505371094 153.85768127441406 418.4493408203125 C 153.309814453125 423.74853515625 153.1593017578125 425.1422119140625 154.24078369140625 422.8541259765625 C 153.5528106689453 417.12689208984375 153.05438232421875 410.5331726074219 152.3364715576172 400.998291015625 C 150.89080810546875 397.13812255859375 141.80096435546875 398.700927734375 134.50721740722656 396.1299133300781 C 126.7166976928711 393.5423278808594 121.73127746582031 388.8885192871094 118.26861572265625 382.9517822265625 C 118.5285415649414 374.8678283691406 118.82557678222656 366.4878234863281 117.15541076660156 357.9941101074219 C 114.48760223388672 351.11651611328125 108.154296875 348.0735778808594 100.4827651977539 348.18719482421875 C 93.72978210449219 350.095458984375 89.31466674804688 353.2372131347656 89.70596313476562 359.54852294921875 C 89.20520782470703 365.2570495605469 85.0527114868164 365.1734924316406 78.16460418701172 364.39300537109375 C 74.19945526123047 370.0766906738281 69.716552734375 377.6136474609375 60.98494338989258 383.10870361328125 C 58.502166748046875 388.49688720703125 60.13684844970703 398.10382080078125 55.82193374633789 404.4633483886719 C 47.446170806884766 406.3916015625 45.136653900146484 400.3114929199219 43.21161651611328 388.3083190917969 C 38.65303421020508 388.466796875 38.72470474243164 397.7536315917969 29.868427276611328 402.2320251464844 C 23.212060928344727 398.5468444824219 21.074966430664062 390.20709228515625 11.164200782775879 391.8998107910156 C 8.532561302185059 383.7436828613281 11.781001091003418 378.9586486816406 13.244477272033691 374.9585266113281 C 7.145759582519531 378.6997985839844 0.8275781869888306 379.206787109375 -2.753429889678955 373.5535583496094 C 2.1300082206726074 366.3551025390625 8.762786865234375 355.9436340332031 16.73956298828125 346.4703063964844 C 21.668832778930664 339.955322265625 17.934226989746094 332.4355773925781 16.68790626525879 324.8043212890625 C 21.51283073425293 317.2200012207031 25.81507110595703 319.6961364746094 33.55025863647461 326.44403076171875 C 40.29026794433594 333.6833801269531 44.44840621948242 330.720458984375 47.27816390991211 322.3682556152344 C 53.800838470458984 319.18389892578125 61.597740173339844 317.2916564941406 67.26850128173828 309.0881652832031 C 74.62731170654297 301.70013427734375 82.8659439086914 294.6498107910156 90.39576721191406 289.4388732910156 C 92.49200439453125 288.27191162109375 90.4637451171875 283.7084655761719 91.57210540771484 280.4570617675781 C 93.3294677734375 279.5059814453125 95.85847473144531 282.12872314453125 98.61664581298828 286.5815124511719 C 101.97396850585938 288.0069274902344 105.90998077392578 288.6702575683594 109.03947448730469 290.5704345703125 C 112.24662017822266 294.6495056152344 115.47648620605469 298.5007019042969 117.72557830810547 304.55596923828125 C 120.9091796875 309.6112976074219 123.59105682373047 315.2666015625 124.06165313720703 320.9544982910156 C 125.26821899414062 325.7682189941406 126.30348205566406 329.8616638183594 125.17205810546875 333.4476013183594 C 124.39395141601562 335.8124084472656 124.95748901367188 337.35028076171875 126.6327133178711 338.11761474609375 C 129.05880737304688 338.37237548828125 132.02963256835938 337.97918701171875 135.4253387451172 336.876220703125 C 139.14540100097656 335.2428894042969 142.87660217285156 333.1124572753906 146.244384765625 330.40509033203125 C 149.2594451904297 327.115478515625 151.94241333007812 323.1376953125 154.0454559326172 318.48828125 C 155.5852508544922 313.1858215332031 156.6439971923828 307.3182678222656 157.30738830566406 301.02032470703125 C 157.74905395507812 294.3667297363281 158.2035675048828 287.6014099121094 159.13583374023438 280.78253173828125 C 160.3976593017578 273.9513244628906 161.95494079589844 267.5050354003906 164.25987243652344 261.5171203613281 C 165.67816162109375 255.90684509277344 166.68173217773438 250.9717254638672 167.8053741455078 244.6426239013672 C 167.11557006835938 241.8965606689453 164.45071411132812 241.4994659423828 161.78575134277344 241.58787536621094 C 160.91558837890625 239.7411346435547 161.75717163085938 240.19410705566406 163.5986328125 241.2036590576172 C 165.59051513671875 242.17640686035156 168.03439331054688 241.66407775878906 179.26031494140625 240.65869140625" stroke-width="0.0" fill="rgb(247, 188, 111)" opacity="0.9999994" stroke="rgb(206, 174, 34)" stroke-opacity="0.8702731" stroke-linecap="round" stroke-linejoin="round"/>
    <path d="M 364.65289306640625 268.36981201171875 C 365.8509826660156 268.9014587402344 367.0820617675781 269.4774169921875 369.67742919921875 269.34088134765625 C 369.4725646972656 270.6123352050781 369.644775390625 271.5983581542969 371.0264587402344 271.695068359375 C 372.51702880859375 271.162841796875 373.2939453125 271.8364562988281 373.5054626464844 273.076416015625 C 373.9748840332031 273.7175598144531 374.8955993652344 273.78228759765625 375.6808776855469 275.24346923828125 C 377.2666015625 275.4756164550781 378.6855163574219 275.6654052734375 380.148193359375 275.7886657714844 C 380.7875061035156 276.4596862792969 381.6178283691406 276.5947265625 382.65673828125 276.6678466796875 C 382.1601257324219 277.4744873046875 382.5198059082031 277.9192810058594 383.34332275390625 278.41595458984375 C 384.44439697265625 279.2716369628906 386.4197082519531 280.0100402832031 388.7237854003906 280.7537536621094 C 391.2259521484375 280.6650390625 393.1055603027344 280.1752624511719 393.89752197265625 280.4766540527344 C 394.3717041015625 281.9278564453125 394.332275390625 283.5048522949219 394.55804443359375 284.75921630859375 C 395.4132995605469 285.4419250488281 396.07177734375 285.8815002441406 396.5970764160156 286.2366027832031 C 397.41949462890625 286.3600158691406 398.02783203125 286.9095458984375 398.72625732421875 287.4868469238281 C 399.83282470703125 288.1661682128906 400.867919921875 289.3285217285156 402.3013000488281 290.6811218261719 C 403.61981201171875 291.3601989746094 406.3055419921875 292.34417724609375 408.1678771972656 291.2822570800781 C 411.1966552734375 292.43487548828125 411.99566650390625 295.27606201171875 412.97808837890625 294.6862487792969 C 416.943359375 293.5248718261719 419.82275390625 292.4927978515625 422.0085754394531 291.15740966796875 C 425.7807922363281 290.9945373535156 427.648193359375 289.2843933105469 430.0291748046875 289.30401611328125 C 432.4490966796875 288.2914733886719 434.6483154296875 287.6905822753906 436.2281188964844 285.5989990234375 C 437.2693786621094 283.8006591796875 438.2983703613281 282.87274169921875 439.6515808105469 283.14544677734375 C 439.2120361328125 284.2149658203125 438.27197265625 283.5546875 438.2443542480469 282.4937744140625 C 439.9588317871094 280.7259216308594 441.9925842285156 278.8363037109375 444.94873046875 279.3031311035156 C 447.34295654296875 278.9853515625 449.33734130859375 280.646728515625 450.4763488769531 282.9172668457031 C 451.05670166015625 285.17822265625 450.5621643066406 287.8586120605469 449.22320556640625 290.9413757324219 C 448.2210388183594 294.0160827636719 447.0247497558594 297.3870544433594 446.0398864746094 299.315673828125 C 447.8396301269531 299.3805236816406 450.1410217285156 300.0012512207031 453.0497741699219 301.8359069824219 C 456.1394958496094 303.4840393066406 460.4008483886719 304.50482177734375 463.3570251464844 306.9140625 C 466.8791809082031 309.0769348144531 470.0091552734375 311.3661804199219 472.4233093261719 314.3335876464844 C 474.9205017089844 314.14984130859375 473.1103210449219 318.51068115234375 473.8783264160156 320.98016357421875 C 469.4152526855469 324.4443359375 467.1805114746094 323.8496398925781 460.40777587890625 323.4659423828125 C 460.3648681640625 324.52130126953125 462.2077331542969 326.78009033203125 465.4556884765625 329.2320556640625 C 467.26080322265625 332.9581604003906 468.2918395996094 334.46771240234375 467.4372863769531 337.88970947265625 C 464.6389465332031 339.4517517089844 461.8226623535156 340.9135437011719 459.0535583496094 341.91259765625 C 457.6618347167969 342.1861877441406 459.7615661621094 342.48931884765625 461.483154296875 342.15704345703125 C 461.1788330078125 342.3934020996094 461.99322509765625 344.9452819824219 460.8375549316406 346.1373596191406 C 459.6370849609375 347.5236511230469 455.6967468261719 348.0525817871094 451.727294921875 347.4722900390625 C 447.1705017089844 346.1131591796875 444.1513366699219 344.51123046875 441.3387451171875 344.40802001953125 C 441.34710693359375 346.03692626953125 443.3937072753906 348.3764343261719 444.55780029296875 353.1562805175781 C 445.9524230957031 357.45330810546875 445.45184326171875 360.24456787109375 442.2147521972656 360.5051574707031 C 437.73590087890625 361.0383605957031 434.7853088378906 360.04296875 433.1279296875 356.20831298828125 C 430.7882995605469 352.64984130859375 427.9082336425781 350.53900146484375 426.4336853027344 348.22552490234375 C 425.6098937988281 345.7513427734375 423.29962158203125 345.3831787109375 423.4424133300781 343.43426513671875 C 422.1414489746094 343.6031188964844 420.8981018066406 344.0247802734375 419.9165344238281 343.4250793457031 C 418.2705993652344 343.84356689453125 417.2503356933594 343.2310485839844 414.85247802734375 342.2623291015625 C 412.142333984375 341.2770080566406 410.1802673339844 338.6482849121094 406.6638488769531 337.3615417480469 C 406.0145568847656 334.27197265625 401.7210693359375 333.3709411621094 400.46343994140625 330.1792297363281 C 399.23431396484375 327.2059020996094 396.03424072265625 326.8530578613281 393.2827453613281 326.41864013671875 C 390.2754821777344 326.5445861816406 387.297607421875 326.8728942871094 384.7126159667969 325.6741943359375 C 381.57733154296875 325.17840576171875 378.7926940917969 324.1863098144531 375.0009460449219 324.47125244140625 C 371.8611755371094 323.6168212890625 368.6071472167969 322.9305725097656 365.3910827636719 322.3057861328125 C 362.4088134765625 321.4897766113281 359.5990905761719 320.640869140625 357.2647705078125 319.2990417480469 C 354.7839050292969 319.4083251953125 352.87396240234375 319.65576171875 351.664306640625 319.343994140625 C 350.7491455078125 318.0706481933594 349.74456787109375 317.7734069824219 349.5344543457031 317.2196350097656 C 349.2954406738281 316.3556823730469 348.9515380859375 314.6554260253906 349.76324462890625 312.9455871582031 C 352.1819763183594 311.65472412109375 352.508544921875 307.8285217285156 354.1806640625 305.06353759765625 C 356.494140625 302.09918212890625 356.9375 297.5516662597656 359.136962890625 294.2631530761719 C 361.1910705566406 291.7167053222656 360.4174499511719 287.8712463378906 361.03143310546875 284.6624450683594 C 361.8082275390625 281.78851318359375 363.5047607421875 279.4014587402344 364.5773620605469 277.6264343261719 C 364.16973876953125 273.7428283691406 365.13568115234375 271.5988464355469 366.868896484375 271.54302978515625 C 369.83087158203125 272.0443420410156 370.48486328125 270.14373779296875 371.3225402832031 270.1902770996094 C 372.4429016113281 269.87908935546875 373.2899475097656 269.9324035644531 364.65289306640625 268.36981201171875" stroke-width="0.0" fill="rgb(249, 187, 106)" opacity="1.0" stroke="rgb(239, 252, 52)" stroke-opacity="0.98733205" stroke-linecap="round" stroke-linejoin="round"/>
    <path d="M 315.7889099121094 226.25146484375 C 308.1892395019531 230.8589324951172 300.750244140625 233.80001831054688 295.141845703125 236.2705535888672 C 294.20574951171875 246.3560791015625 299.0003967285156 253.77496337890625 306.31024169921875 264.29388427734375 C 313.385498046875 274.2394104003906 316.0387878417969 286.98260498046875 317.5883483886719 299.6675720214844 C 322.2794494628906 310.60052490234375 328.0353088378906 320.47021484375 324.77752685546875 330.77789306640625 C 324.6007080078125 340.0420227050781 322.4681701660156 346.0527038574219 319.7438049316406 348.7887268066406 C 317.6343688964844 347.7893371582031 315.58526611328125 342.3587646484375 313.1142272949219 334.0789794921875 C 309.2636413574219 323.9501647949219 304.5339050292969 313.7803955078125 298.1781311035156 301.6136474609375 C 286.6755065917969 298.0963439941406 279.992919921875 290.34674072265625 278.30413818359375 276.5487976074219 C 271.016845703125 268.57275390625 265.82391357421875 262.0254821777344 258.11468505859375 258.12005615234375 C 248.92172241210938 255.15269470214844 238.9931640625 255.66720581054688 229.12179565429688 254.8227081298828 C 219.6309814453125 252.81748962402344 210.71939086914062 251.9200897216797 202.33984375 253.9281463623047 C 195.78048706054688 260.158447265625 194.90533447265625 269.9486083984375 193.4705810546875 284.16766357421875 C 189.531494140625 295.7899475097656 183.0507354736328 305.63555908203125 175.80960083007812 314.3782043457031 C 169.55467224121094 323.2770080566406 165.0585479736328 332.9722900390625 163.3035888671875 343.38397216796875 C 161.4539031982422 354.6777648925781 154.7734832763672 362.5810852050781 154.05657958984375 373.3438720703125 C 153.87979125976562 388.2076721191406 152.64602661132812 402.2453308105469 153.07810974121094 418.3316650390625 C 155.24359130859375 434.4449768066406 155.54808044433594 452.2205505371094 159.1933135986328 467.2525939941406 C 167.68515014648438 479.2652893066406 181.18040466308594 484.07952880859375 200.3871612548828 484.9073791503906 C 214.07839965820312 478.99652099609375 224.32200622558594 467.6313171386719 228.18626403808594 455.02276611328125 C 232.02056884765625 451.5924072265625 232.53085327148438 458.61468505859375 238.57183837890625 468.4036865234375 C 251.53538513183594 474.8377990722656 269.4998779296875 476.0605773925781 283.94384765625 479.7019958496094 C 292.6891784667969 474.78466796875 296.6261291503906 460.8729553222656 300.87225341796875 445.0741882324219 C 305.73162841796875 429.8050537109375 309.6014709472656 415.0499572753906 313.2379455566406 402.4059753417969 C 315.9380187988281 391.1603698730469 318.47943115234375 384.7576904296875 319.2254943847656 380.80316162109375 C 316.5126953125 378.80242919921875 315.2348327636719 380.8440246582031 315.9885559082031 387.5065002441406 C 315.0209655761719 396.66705322265625 311.6293029785156 407.6741027832031 307.9539489746094 421.1513366699219 C 304.15478515625 435.2389221191406 299.8404846191406 449.20001220703125 295.1091613769531 464.2001647949219 C 289.3666687011719 476.14141845703125 288.33697509765625 489.3616027832031 287.945556640625 501.6482238769531 C 285.981689453125 512.4439697265625 286.6271667480469 522.4971923828125 294.2901306152344 529.1277465820312 C 306.2604064941406 537.9779052734375 322.61187744140625 544.0363159179688 337.3583984375 552.6468505859375 C 345.98626708984375 561.2919921875 345.5535583496094 574.6473388671875 336.0662841796875 578.23583984375 C 321.53082275390625 585.0406494140625 302.47698974609375 585.4972534179688 280.77203369140625 584.0240478515625 C 262.3129577636719 582.9318237304688 246.60179138183594 581.6271362304688 238.59849548339844 577.2965698242188 C 237.71714782714844 566.7230224609375 238.49798583984375 552.5221557617188 238.98471069335938 534.8631591796875 C 231.1267852783203 525.6934814453125 232.37437438964844 516.068603515625 240.1727752685547 503.0406494140625 C 244.345703125 487.4786682128906 242.4268341064453 474.5444030761719 235.3029022216797 462.6709289550781 C 228.38388061523438 458.18060302734375 224.64410400390625 463.28717041015625 217.447509765625 473.3614807128906 C 215.27490234375 482.2073059082031 212.73800659179688 496.2828369140625 211.33932495117188 512.7211303710938 C 213.41976928710938 529.2153930664062 215.1167449951172 546.6460571289062 216.89505004882812 562.8897094726562 C 218.72860717773438 579.5562744140625 218.922119140625 584.7025146484375 207.80580139160156 586.6697998046875 C 194.60533142089844 585.258544921875 179.72952270507812 589.8153076171875 159.8921661376953 596.0304565429688 C 140.99478149414062 597.033935546875 123.12263488769531 595.8292846679688 117.91804504394531 586.8181762695312 C 114.09202575683594 572.0499877929688 127.14250946044922 569.0736083984375 139.4417724609375 555.6693115234375 C 151.08580017089844 546.5078735351562 156.45693969726562 537.543701171875 157.79067993164062 526.8015747070312 C 160.18067932128906 511.2193298339844 166.13583374023438 499.3092041015625 167.61004638671875 482.81390380859375 C 157.28883361816406 469.08148193359375 156.5577850341797 451.53704833984375 155.34205627441406 433.5549621582031 C 152.1322021484375 418.14544677734375 154.74331665039062 405.2943115234375 150.0708465576172 398.2624816894531 C 131.7823486328125 397.98297119140625 120.16022491455078 392.3962707519531 115.60183715820312 376.1640319824219 C 113.29924774169922 363.7646179199219 114.25509643554688 353.3583984375 110.61000061035156 349.4635009765625 C 100.43770599365234 350.4496154785156 91.45282745361328 351.1526184082031 91.11998748779297 354.6295471191406 C 100.46051025390625 351.83074951171875 111.90921020507812 343.6567077636719 125.72386932373047 333.7733154296875 C 142.9120330810547 329.53570556640625 152.23001098632812 319.4346618652344 156.23509216308594 303.99078369140625 C 157.58229064941406 292.09539794921875 154.6011199951172 278.29205322265625 160.4856414794922 267.8503112792969 C 167.0581512451172 258.3984375 166.57696533203125 249.44638061523438 168.97653198242188 243.02297973632812 C 173.46929931640625 238.67626953125 179.02198791503906 237.292724609375 187.12962341308594 237.56468200683594 C 195.5367431640625 241.35899353027344 205.63055419921875 243.9400634765625 215.84169006347656 245.56544494628906 C 222.642578125 253.784912109375 230.8708038330078 255.2383270263672 240.33090209960938 255.40997314453125 C 247.32054138183594 252.62294006347656 253.38783264160156 247.30648803710938 260.6164245605469 242.7436065673828 C 270.8809814453125 241.08114624023438 281.4260559082031 238.96165466308594 292.68218994140625 235.62411499023438 C 303.5368347167969 230.61268615722656 313.1758117675781 223.91845703125 315.7889099121094 226.25146484375" stroke-width="0.0" fill="rgb(206, 155, 188)" opacity="0.99993414" stroke="rgb(109, 184, 217)" stroke-opacity="0.26299605" stroke-linecap="round" stroke-linejoin="round"/>
    <path d="M 226.86822509765625 375.82470703125 C 226.6173553466797 375.158447265625 226.38031005859375 375.67724609375 226.26321411132812 376.1666564941406 C 226.27577209472656 376.6957702636719 226.43508911132812 377.2522888183594 227.3778839111328 377.4933166503906 C 227.9352569580078 377.3898620605469 228.46707153320312 378.1706237792969 228.95762634277344 378.55596923828125 C 229.616455078125 379.461669921875 230.46200561523438 379.6239013671875 230.87844848632812 378.87945556640625 C 231.8927459716797 378.349609375 233.01773071289062 378.40594482421875 233.93507385253906 377.61749267578125 C 234.79080200195312 377.4306335449219 235.97682189941406 376.990478515625 236.29745483398438 376.37664794921875 C 238.75241088867188 376.9613342285156 239.92532348632812 376.8498840332031 239.40272521972656 376.4375 C 239.0963592529297 375.2999572753906 240.92637634277344 375.18194580078125 244.14913940429688 375.59393310546875 C 245.29930114746094 375.5770263671875 246.57638549804688 375.209716796875 250.2471160888672 375.4719543457031 C 248.82650756835938 376.4424133300781 248.1898651123047 376.088623046875 249.29380798339844 376.1598205566406 C 249.55113220214844 376.72869873046875 250.51373291015625 376.8984069824219 251.57447814941406 376.89239501953125 C 251.8787078857422 376.5172424316406 252.89532470703125 376.2802734375 253.94320678710938 376.47998046875 C 255.10618591308594 376.021484375 256.5229797363281 375.6919250488281 258.0927734375 376.4992980957031 C 259.8956604003906 376.5491638183594 261.5350036621094 376.78399658203125 262.8302917480469 377.59185791015625 C 263.1659240722656 379.5668640136719 264.0523681640625 380.9901123046875 264.52685546875 382.657958984375 C 264.7709655761719 385.14190673828125 264.6067810058594 386.5291748046875 264.4237060546875 386.14788818359375 C 261.75640869140625 386.1675720214844 260.86029052734375 386.77960205078125 259.7533874511719 386.3542175292969 C 258.90728759765625 386.3527526855469 257.9210510253906 386.26025390625 256.75927734375 386.36224365234375 C 256.51971435546875 386.0054016113281 256.49383544921875 385.4565124511719 256.67431640625 385.34686279296875 C 256.38775634765625 385.7659606933594 256.00726318359375 386.3573913574219 255.38375854492188 387.5751647949219 C 254.67523193359375 387.0909423828125 254.0564422607422 387.3338928222656 252.90133666992188 387.9195861816406 C 251.42782592773438 387.3153991699219 250.17172241210938 387.45123291015625 248.9195556640625 387.5396423339844 C 247.5066680908203 387.417724609375 246.0864715576172 387.3014831542969 244.5408477783203 387.6446838378906 C 242.94447326660156 387.74072265625 241.8411102294922 387.369140625 241.27041625976562 387.539306640625 C 241.08604431152344 386.89599609375 240.52919006347656 386.37451171875 240.200439453125 386.0934143066406 C 239.9161376953125 386.0428771972656 239.50962829589844 386.0799560546875 238.84715270996094 386.25982666015625 C 238.19015502929688 386.45379638671875 237.46095275878906 386.4386901855469 236.54783630371094 386.3751525878906 C 235.4273681640625 386.4060974121094 234.1332244873047 386.45123291015625 233.3549346923828 386.781005859375 C 233.14797973632812 385.32342529296875 232.36178588867188 385.3118896484375 230.6249237060547 386.8626403808594 C 231.01597595214844 386.9010314941406 230.55517578125 386.74639892578125 230.10691833496094 386.80841064453125 C 229.41429138183594 385.3046875 228.58840942382812 385.2277526855469 227.90794372558594 385.59161376953125 C 227.3217315673828 384.36968994140625 226.66392517089844 384.23065185546875 225.974853515625 384.0836181640625 C 225.52781677246094 383.8872375488281 224.88182067871094 383.660400390625 224.100341796875 383.5426330566406 C 223.3162841796875 383.4241638183594 222.52891540527344 383.3762512207031 221.84251403808594 382.15509033203125 C 221.0090789794922 381.24761962890625 219.7201690673828 380.5629577636719 218.77865600585938 379.3437805175781 C 217.62033081054688 376.4076232910156 216.8215789794922 376.3843994140625 226.86822509765625 375.82470703125" stroke-width="0.0" fill="rgb(254, 184, 106)" opacity="0.99994814" stroke="rgb(80, 57, 94)" stroke-opacity="0.8486099" stroke-linecap="round" stroke-linejoin="round"/>
    <path d="M 291.30303955078125 15.048673629760742 C 291.8691101074219 14.767977714538574 292.4057922363281 14.47950267791748 292.9374694824219 14.296272277832031 C 293.5028991699219 14.323857307434082 294.1392517089844 14.580368995666504 294.8932189941406 15.104765892028809 C 295.7982177734375 15.968703269958496 296.8487854003906 17.21257209777832 298.109375 18.8182430267334 C 299.6213684082031 20.853666305541992 301.3379211425781 23.29954719543457 303.2655029296875 26.018104553222656 C 305.44915771484375 28.957561492919922 307.8914794921875 32.031761169433594 310.4645080566406 35.243934631347656 C 312.8937072753906 38.60961151123047 314.9981384277344 42.14614486694336 316.82672119140625 45.83613967895508 C 318.5303955078125 49.607845306396484 320.3056335449219 53.302574157714844 322.3161315917969 56.8264274597168 C 324.5862731933594 60.049503326416016 327.05078125 62.89212417602539 329.4923400878906 65.31893157958984 C 331.4999694824219 67.44654083251953 332.65814208984375 69.41162872314453 332.7077941894531 71.3320083618164 C 331.4708557128906 73.2058334350586 329.1089782714844 75.01560974121094 325.8462219238281 76.68294525146484 C 322.0628662109375 78.27505493164062 318.0722961425781 79.74151611328125 314.2028503417969 81.21551513671875 C 310.69659423828125 82.75924682617188 307.6221008300781 84.47686004638672 304.8492431640625 86.47486114501953 C 302.2696533203125 88.67127990722656 299.5932922363281 90.88631439208984 296.4712219238281 92.95521545410156 C 292.8105773925781 94.69392395019531 288.5888977050781 95.96705627441406 283.9714050292969 96.6318588256836 C 279.131591796875 96.54756164550781 274.200439453125 95.6370620727539 269.3085632324219 93.99935913085938 C 264.5737609863281 91.73145294189453 260.03076171875 89.00647735595703 255.5640411376953 86.10867309570312 C 250.94236755371094 83.49610900878906 246.18948364257812 81.31201934814453 241.48033142089844 79.64218139648438 C 236.96047973632812 78.63980865478516 232.79953002929688 78.50920104980469 229.1636505126953 79.40251922607422 C 226.34898376464844 81.42839813232422 224.55316162109375 84.60655212402344 223.63702392578125 88.6845703125 C 223.34588623046875 93.23715209960938 223.30984497070312 97.84552764892578 223.1538848876953 102.15814208984375 C 222.50491333007812 105.82464599609375 221.11952209472656 108.59815979003906 218.88232421875 110.48606872558594 C 215.76248168945312 111.62446594238281 211.70358276367188 112.15978240966797 206.88766479492188 112.30400085449219 C 201.55300903320312 112.32713317871094 195.92291259765625 112.3359603881836 190.19869995117188 112.20066833496094 C 184.50819396972656 111.82588958740234 178.98782348632812 111.27627563476562 173.67327880859375 110.69691467285156 C 168.5990753173828 110.1800308227539 163.80259704589844 109.9687728881836 159.3024139404297 110.2275619506836 C 155.252685546875 111.14564514160156 151.6837158203125 112.83676147460938 148.6857452392578 115.4234619140625 C 146.40780639648438 118.806640625 144.81707763671875 122.7567367553711 143.72344970703125 127.00109100341797 C 142.89028930664062 131.23471069335938 141.9615936279297 135.06118774414062 140.7725067138672 138.310791015625 C 139.15390014648438 140.9287567138672 137.18011474609375 143.00025939941406 135.0348663330078 144.86676025390625 C 132.89453125 146.87567138671875 130.93040466308594 149.31578063964844 129.3182830810547 152.38648986816406 C 128.3245391845703 156.17860412597656 127.8590087890625 160.55613708496094 127.7278823852539 165.29742431640625 C 127.6901626586914 170.19760131835938 127.35794830322266 174.98480224609375 126.4680404663086 179.38348388671875 C 124.80248260498047 183.22166442871094 122.2301254272461 186.37493896484375 118.69652557373047 188.7925262451172 C 114.21875 190.4985809326172 108.92640686035156 191.5272979736328 103.04027557373047 191.98118591308594 C 96.76636505126953 192.13009643554688 90.41633605957031 191.912109375 84.24639129638672 191.18748474121094 C 78.50395965576172 189.8811492919922 73.47332763671875 187.9406280517578 69.39498138427734 185.4152374267578 C 66.43817138671875 182.39308166503906 64.60823822021484 178.90829467773438 63.968929290771484 175.11663818359375 C 64.499267578125 171.23487854003906 66.00865173339844 167.3351287841797 68.21414184570312 163.49375915527344 C 70.80581665039062 159.7936248779297 73.41998291015625 156.06442260742188 75.80473327636719 152.2620086669922 C 77.74913787841797 148.28482055664062 79.22539520263672 144.07135009765625 80.42232513427734 139.625732421875 C 81.4337387084961 135.0224151611328 82.47720336914062 130.35128784179688 83.7955322265625 125.7202377319336 C 85.44168090820312 121.317138671875 87.44999694824219 117.18263244628906 89.8511734008789 113.35182189941406 C 92.44828033447266 109.82476806640625 95.09104919433594 106.54483032226562 97.77493286132812 103.5513687133789 C 100.45166778564453 100.71952819824219 103.06637573242188 97.9858627319336 105.60551452636719 95.22456359863281 C 108.03440856933594 92.3356704711914 110.42477416992188 89.39348602294922 112.99878692626953 86.38813018798828 C 115.84717559814453 83.3443603515625 118.98201751708984 80.28599548339844 122.34146881103516 77.1501693725586 C 125.84872436523438 73.95186614990234 129.4116668701172 70.6458511352539 132.9669952392578 67.25068664550781 C 136.5643768310547 63.79218673706055 140.13157653808594 60.27513122558594 143.6912841796875 56.6850700378418 C 147.2156982421875 52.97066116333008 150.71080017089844 49.23475646972656 154.0959930419922 45.58028793334961 C 157.4205780029297 42.072120666503906 160.7637176513672 38.941123962402344 164.1532440185547 36.426639556884766 C 167.67247009277344 34.70438766479492 171.39447021484375 33.8676872253418 175.25025939941406 34.01396560668945 C 179.23147583007812 35.09361267089844 183.35757446289062 36.86168670654297 187.64450073242188 39.018211364746094 C 192.06936645507812 41.337677001953125 196.58419799804688 43.539756774902344 201.12484741210938 45.34360885620117 C 205.65692138671875 46.550533294677734 210.1207275390625 47.00368118286133 214.39755249023438 46.578277587890625 C 218.4390869140625 45.279945373535156 222.20443725585938 43.09030532836914 225.70535278320312 40.22428512573242 C 228.98519897460938 36.853172302246094 232.1151885986328 33.25754928588867 235.2010498046875 29.791093826293945 C 238.36814880371094 26.53331756591797 241.6629180908203 23.5389461517334 245.241943359375 20.965856552124023 C 249.33285522460938 18.911508560180664 253.8292999267578 17.351831436157227 258.81500244140625 16.251707077026367 C 264.2603759765625 15.59217357635498 270.0661926269531 15.308155059814453 276.0904541015625 15.312740325927734 C 282.24310302734375 15.467878341674805 288.43389892578125 15.742670059204102 291.30303955078125 15.048673629760742" stroke-width="0.0" fill="rgb(61, 39, 36)" opacity="0.9995894" stroke="rgb(234, 246, 191)" stroke-opacity="0.60072887" stroke-linecap="round" stroke-linejoin="round"/>
    <path d="M 204.53094482421875 138.6217803955078 C 205.0812225341797 139.46034240722656 205.64251708984375 140.29312133789062 206.25799560546875 141.09669494628906 C 206.90696716308594 141.84303283691406 207.59149169921875 142.51730346679688 208.3461151123047 143.11886596679688 C 209.12709045410156 143.64503479003906 209.88917541503906 144.1143341064453 210.5963134765625 144.5735321044922 C 211.16299438476562 145.05104064941406 211.55307006835938 145.58399963378906 211.72267150878906 146.2006378173828 C 211.6575469970703 146.90731811523438 211.3656463623047 147.66111755371094 210.83645629882812 148.44210815429688 C 210.1282196044922 149.19012451171875 209.2687225341797 149.84255981445312 208.27938842773438 150.35910034179688 C 207.2294464111328 150.71798706054688 206.14385986328125 150.8985137939453 205.02671813964844 150.86929321289062 C 203.91531372070312 150.64077758789062 202.85610961914062 150.25474548339844 201.81509399414062 149.68551635742188 C 200.87591552734375 148.94700622558594 200.08462524414062 148.1219482421875 199.4099578857422 147.18997192382812 C 198.94752502441406 146.1743927001953 198.68115234375 145.13804626464844 198.6173095703125 144.0792694091797 C 198.76707458496094 143.02078247070312 199.11341857910156 142.0044403076172 199.63134765625 141.04444885253906 C 200.30567932128906 140.10057067871094 201.04486083984375 139.18431091308594 201.8662567138672 138.32789611816406 C 202.74900817871094 137.45852661132812 203.58847045898438 136.59243774414062 204.53094482421875 138.6217803955078" stroke-width="0.0" fill="rgb(6, 2, 3)" opacity="1.0" stroke="rgb(45, 29, 206)" stroke-opacity="0.23846735" stroke-linecap="round" stroke-linejoin="round"/>
    <path d="M 313.38726806640625 105.1689682006836 C 311.85601806640625 110.11675262451172 310.3001708984375 114.49076080322266 309.2039489746094 117.89164733886719 C 308.8238830566406 120.0013198852539 309.6830749511719 121.30255889892578 311.392578125 122.14173889160156 C 313.2129211425781 122.53321838378906 314.5482482910156 121.4687728881836 315.7016296386719 119.59729766845703 C 317.8055114746094 118.97515869140625 319.6758728027344 119.71487426757812 320.69525146484375 121.57960510253906 C 320.3623962402344 123.79167938232422 318.94036865234375 126.04249572753906 317.47613525390625 128.39535522460938 C 317.324462890625 130.99461364746094 317.65557861328125 133.0846405029297 317.1923828125 134.43003845214844 C 314.9181213378906 134.67002868652344 311.1617126464844 134.5332489013672 306.8254699707031 134.5055389404297 C 302.48486328125 134.41250610351562 298.51251220703125 134.7165069580078 295.3857421875 134.43911743164062 C 293.3235168457031 131.56988525390625 291.9482421875 127.58738708496094 291.42718505859375 122.842041015625 C 291.7055358886719 117.64823913574219 293.0250549316406 113.46595764160156 294.98431396484375 110.8864517211914 C 296.7796325683594 109.0882568359375 297.3486633300781 108.34380340576172 298.0885925292969 108.27029418945312 C 299.0186462402344 106.4706039428711 299.6515808105469 102.81727600097656 313.38726806640625 105.1689682006836" stroke-width="0.0" fill="rgb(7, 1, 6)" opacity="0.9995017" stroke="rgb(217, 35, 36)" stroke-opacity="0.84802973" stroke-linecap="round" stroke-linejoin="round"/>
    <path d="M 276.22796630859375 536.7460327148438 C 276.7829284667969 535.2970581054688 277.3981628417969 533.9267578125 278.3061828613281 532.67236328125 C 280.0647277832031 531.64013671875 282.8186950683594 530.8302001953125 286.0401306152344 530.3146362304688 C 288.9549255371094 530.6866455078125 290.8039855957031 532.2008666992188 291.2375183105469 534.4458618164062 C 290.0908203125 536.6819458007812 288.2864990234375 538.618896484375 286.852294921875 540.3499755859375 C 285.82470703125 542.1727294921875 284.6592712402344 543.431640625 283.4225158691406 544.4609985351562 C 282.4995422363281 545.6192626953125 281.9858703613281 546.964111328125 281.58612060546875 548.2357788085938 C 281.1288146972656 549.3661499023438 280.9058532714844 550.4293823242188 280.9898681640625 551.4186401367188 C 281.40362548828125 552.2706909179688 282.00189208984375 553.018310546875 282.6144714355469 553.7677612304688 C 282.90093994140625 554.6371459960938 282.84698486328125 555.4596557617188 282.6629638671875 556.1183471679688 C 282.3385925292969 556.6089477539062 282.1066589355469 556.9044799804688 281.98565673828125 556.9157104492188 C 282.031005859375 556.6171875 282.1941833496094 556.06787109375 282.5502014160156 555.3314819335938 C 283.0536193847656 554.6558227539062 283.8700866699219 554.2646484375 284.8974914550781 554.4349975585938 C 285.9881896972656 555.020263671875 287.1615905761719 555.8040771484375 288.4375915527344 556.3997802734375 C 289.71417236328125 556.755126953125 291.15167236328125 556.8135375976562 292.47149658203125 556.6053466796875 C 293.6087951660156 556.1644287109375 294.4922790527344 555.1188354492188 295.3017272949219 553.7250366210938 C 296.2708435058594 552.5267944335938 297.59295654296875 551.9404907226562 299.1360168457031 551.9912719726562 C 300.52752685546875 552.7123413085938 301.37384033203125 553.812744140625 301.677978515625 555.1887817382812 C 301.83203125 556.7403564453125 302.3141784667969 558.0554809570312 303.3655090332031 559.0323486328125 C 305.0691223144531 559.5697021484375 307.210693359375 559.9672241210938 309.4019775390625 560.5048828125 C 311.0357971191406 561.6190795898438 311.7642822265625 563.209716796875 311.3052978515625 564.8750610351562 C 309.81292724609375 565.9651489257812 308.2010803222656 566.4633178710938 307.07855224609375 566.4303588867188 C 306.68975830078125 566.1406860351562 307.20367431640625 565.8119506835938 308.4937438964844 565.711181640625 C 310.0376281738281 565.9939575195312 311.36224365234375 566.840087890625 312.0463562011719 568.1587524414062 C 311.79595947265625 569.6105346679688 310.54443359375 570.65478515625 308.7099304199219 571.0702514648438 C 306.7748107910156 571.12255859375 305.06854248046875 571.0560913085938 303.53839111328125 570.9985961914062 C 302.1923522949219 570.9535522460938 300.95526123046875 570.8555297851562 299.7581787109375 570.77197265625 C 298.6329650878906 570.7999267578125 297.6097106933594 570.8155517578125 296.70166015625 570.779052734375 C 295.9619445800781 570.8323364257812 295.39031982421875 570.861083984375 294.948486328125 570.8026733398438 C 294.51275634765625 570.7319946289062 293.78399658203125 570.697021484375 292.7923889160156 570.6738891601562 C 291.51751708984375 570.6393432617188 289.9958190917969 570.6220092773438 288.3871154785156 570.530029296875 C 286.93829345703125 570.5488891601562 285.635986328125 570.6339721679688 284.48480224609375 570.4813842773438 C 284.2514343261719 569.6656494140625 284.39642333984375 568.5626831054688 284.6386413574219 567.697998046875 C 284.9403076171875 567.1046752929688 285.2328186035156 567.26708984375 285.316650390625 568.0101928710938 C 285.2779235839844 568.9785766601562 285.0638732910156 569.818359375 284.60723876953125 570.5477294921875 C 283.311279296875 570.5460815429688 281.7989807128906 570.5390625 280.0808410644531 570.3988647460938 C 278.1594543457031 570.2765502929688 276.15435791015625 570.2944946289062 274.3371887207031 570.2780151367188 C 272.97100830078125 569.899658203125 272.1500244140625 569.18017578125 271.9043273925781 568.201171875 C 272.0876159667969 567.2158203125 272.3740234375 566.4422607421875 272.6195373535156 566.1690063476562 C 272.73028564453125 566.5565795898438 272.6278991699219 567.4058227539062 272.3771667480469 568.4303588867188 C 271.685791015625 569.3338623046875 270.5575256347656 569.9215698242188 269.16510009765625 570.0001220703125 C 267.67327880859375 570.0762939453125 266.290283203125 570.053955078125 265.1492614746094 569.9049072265625 C 264.2442932128906 569.594970703125 263.4366455078125 569.161865234375 262.7462158203125 568.7540283203125 C 261.9681396484375 568.5253295898438 260.9906005859375 568.4835815429688 259.8433837890625 568.5875854492188 C 258.51129150390625 568.8138427734375 257.1777038574219 568.8799438476562 255.9949188232422 568.6453247070312 C 254.8823699951172 568.5542602539062 253.84060668945312 568.1524047851562 252.83729553222656 567.62939453125 C 251.99258422851562 567.3049926757812 251.17396545410156 567.0850830078125 250.55517578125 567.075439453125 C 249.97348022460938 566.9362182617188 249.4124755859375 566.5894165039062 248.866455078125 566.2523803710938 C 248.04400634765625 565.8980102539062 246.9479217529297 565.6363525390625 245.57113647460938 565.4338989257812 C 244.1413116455078 565.177490234375 242.8557586669922 564.7034912109375 241.9274444580078 564.105712890625 C 241.44020080566406 563.427490234375 241.21102905273438 562.5535278320312 240.91514587402344 561.3958740234375 C 240.1572723388672 559.6618041992188 239.3702850341797 557.4118041992188 238.9828338623047 554.7323608398438 C 238.8440399169922 551.849609375 238.95323181152344 548.9990844726562 239.22630310058594 546.2406005859375 C 239.54107666015625 543.5167236328125 239.87228393554688 540.8761596679688 240.1519012451172 538.3978271484375 C 240.20407104492188 536.0673828125 240.25546264648438 534.1171875 240.76312255859375 532.7705078125 C 242.05885314941406 532.2200927734375 243.84873962402344 532.272216796875 245.9557342529297 532.7939453125 C 248.3197784423828 533.354248046875 250.71934509277344 533.7014770507812 253.00982666015625 533.958740234375 C 255.1364288330078 534.2138671875 257.2003479003906 534.3421630859375 259.2837829589844 534.4439697265625 C 261.4327087402344 534.5079345703125 263.716552734375 534.495849609375 266.2335205078125 534.4226684570312 C 268.8315124511719 534.2767944335938 271.4553527832031 533.9346313476562 274.0339660644531 533.4253540039062 C 276.5755615234375 532.8588256835938 279.11962890625 532.40478515625 276.22796630859375 536.7460327148438" stroke-width="0.0" fill="rgb(244, 254, 251)" opacity="0.9997318" stroke="rgb(117, 142, 156)" stroke-opacity="0.9976136" stroke-linecap="round" stroke-linejoin="round"/>
    <path d="M 203.49652099609375 534.0844116210938 C 204.92913818359375 533.0156860351562 206.36834716796875 532.1942749023438 207.67526245117188 531.6270141601562 C 208.6605987548828 531.6316528320312 209.34811401367188 532.1802978515625 209.68414306640625 533.052001953125 C 209.75022888183594 534.1796875 209.86911010742188 535.5760498046875 210.13949584960938 537.1488037109375 C 210.3969268798828 538.7720336914062 210.597900390625 540.4280395507812 210.7200927734375 542.0709228515625 C 210.88882446289062 543.5039672851562 211.1716766357422 544.6334838867188 211.41587829589844 545.5392456054688 C 211.64280700683594 546.2365112304688 211.85806274414062 546.7356567382812 211.99159240722656 547.177978515625 C 212.00819396972656 547.607666015625 211.9718780517578 548.0281982421875 211.92796325683594 548.5029907226562 C 211.87991333007812 549.023681640625 211.7814178466797 549.5916748046875 211.6691131591797 550.2011108398438 C 211.5862579345703 550.811767578125 211.5872039794922 551.2457885742188 211.59388732910156 551.5415649414062 C 211.5660400390625 551.803955078125 211.56625366210938 552.0682373046875 211.5359344482422 552.3311767578125 C 211.52149963378906 552.7935791015625 211.53834533691406 553.4739379882812 211.59591674804688 554.3902587890625 C 211.74484252929688 555.4419555664062 211.97598266601562 556.6127319335938 212.22695922851562 557.6424560546875 C 212.4402313232422 558.5142211914062 212.7291717529297 559.096435546875 213.04177856445312 559.3676147460938 C 213.49627685546875 559.31787109375 214.0980987548828 559.0777587890625 214.75643920898438 558.8494873046875 C 215.42784118652344 558.6401977539062 216.01333618164062 558.4501342773438 216.3961181640625 558.3850708007812 C 216.48757934570312 558.4000244140625 216.2221221923828 558.4722290039062 215.67039489746094 558.6142578125 C 214.85482788085938 558.8154296875 213.92335510253906 559.0523681640625 213.11570739746094 559.388916015625 C 212.6232452392578 559.9261474609375 212.45301818847656 560.7462768554688 212.51080322265625 561.77783203125 C 212.67774963378906 563.0037231445312 212.78517150878906 564.3649291992188 212.87953186035156 565.7997436523438 C 212.93695068359375 567.2485961914062 212.92071533203125 568.5383911132812 212.82774353027344 569.6319580078125 C 212.52627563476562 570.4683837890625 212.05332946777344 571.0817260742188 211.28695678710938 571.574951171875 C 210.3102569580078 572.0343017578125 209.1601104736328 572.4927978515625 207.78443908691406 572.8924560546875 C 206.3105926513672 573.2755126953125 204.93820190429688 573.5418090820312 203.6581573486328 573.6875610351562 C 202.55419921875 573.7415161132812 201.76612854003906 573.7178955078125 201.20370483398438 573.6775512695312 C 200.91502380371094 573.6058349609375 200.7252655029297 573.5492553710938 200.41331481933594 573.540283203125 C 199.95730590820312 573.724609375 199.31143188476562 573.9656372070312 198.42532348632812 574.2432861328125 C 197.40487670898438 574.4950561523438 196.3488006591797 574.6630249023438 195.37474060058594 574.7560424804688 C 194.54640197753906 574.8072509765625 193.77081298828125 574.8466186523438 192.87857055664062 574.8701782226562 C 191.82867431640625 574.839599609375 190.5216064453125 574.7588500976562 189.1708526611328 574.5879516601562 C 187.94375610351562 574.1091918945312 187.098876953125 573.3014526367188 186.7150421142578 572.40087890625 C 186.73684692382812 571.7943725585938 186.82838439941406 571.5377807617188 186.86038208007812 571.7877197265625 C 186.52120971679688 572.5119018554688 185.793701171875 573.4744873046875 184.55133056640625 574.3253784179688 C 182.95700073242188 574.9530639648438 181.31040954589844 575.3853149414062 179.84671020507812 575.6533813476562 C 178.58441162109375 575.7222290039062 177.64028930664062 575.9329223632812 177.0078125 576.3585205078125 C 176.37359619140625 576.6435546875 175.40667724609375 576.7852783203125 174.0904541015625 577.0064086914062 C 172.38539123535156 577.1912231445312 170.2837371826172 577.5221557617188 167.9556121826172 578.1559448242188 C 165.47760009765625 578.6587524414062 163.1529541015625 578.8274536132812 161.50782775878906 578.1242065429688 C 160.83441162109375 576.3284912109375 161.43435668945312 574.3436279296875 163.2897186279297 572.8547973632812 C 165.26528930664062 571.630859375 166.84725952148438 570.3184204101562 168.1956329345703 569.16015625 C 169.2949981689453 568.25146484375 170.17076110839844 567.458984375 170.89910888671875 566.755615234375 C 171.52830505371094 566.0927124023438 171.96583557128906 565.3678588867188 172.13601684570312 564.537353515625 C 172.0186309814453 563.5939331054688 171.64894104003906 562.4520874023438 171.1715850830078 561.037841796875 C 170.8267059326172 559.3969116210938 170.9204864501953 557.812744140625 171.55294799804688 556.604736328125 C 172.82054138183594 556.0863037109375 174.46609497070312 556.06982421875 176.2454376220703 556.3806762695312 C 177.92266845703125 556.8873901367188 179.33999633789062 557.2896728515625 180.40174865722656 557.356689453125 C 181.0775146484375 557.1614379882812 181.36492919921875 556.7677612304688 181.44805908203125 556.1881103515625 C 181.43467712402344 555.5363159179688 181.388427734375 554.8580322265625 181.57298278808594 554.097412109375 C 182.04031372070312 553.1604614257812 182.7152099609375 551.9458618164062 183.4827423095703 550.6791381835938 C 184.28224182128906 549.692626953125 185.19631958007812 549.1679077148438 186.15528869628906 549.0435791015625 C 186.90931701660156 549.1270751953125 187.3569793701172 549.3023681640625 187.46649169921875 549.5011596679688 C 187.23922729492188 549.6357421875 186.76904296875 549.6739501953125 186.1442413330078 549.4954833984375 C 185.51986694335938 548.90673828125 185.13656616210938 547.9740600585938 184.99978637695312 546.8817749023438 C 185.22525024414062 545.8453369140625 185.72926330566406 545.0185546875 186.33419799804688 544.4625244140625 C 186.83465576171875 544.2737426757812 187.11293029785156 544.3316650390625 186.88363647460938 544.5216064453125 C 186.14761352539062 544.69384765625 185.0056610107422 544.6654052734375 183.53573608398438 544.26806640625 C 181.899658203125 543.4627075195312 180.32176208496094 542.2055053710938 179.1739044189453 540.6817626953125 C 178.773193359375 539.1380615234375 179.3665313720703 537.901611328125 181.05760192871094 537.1671752929688 C 183.76271057128906 537.0444946289062 186.96881103515625 537.057373046875 190.2882843017578 537.004638671875 C 193.49415588378906 536.6302490234375 196.57357788085938 535.9282836914062 199.45877075195312 535.0868530273438 C 202.24356079101562 534.106689453125 204.9978790283203 532.9556274414062 203.49652099609375 534.0844116210938" stroke-width="0.0" fill="rgb(242, 254, 249)" opacity="0.99984133" stroke="rgb(149, 91, 12)" stroke-opacity="0.17063765" stroke-linecap="round" stroke-linejoin="round"/>
    <path d="M 241.2823486328125 501.398681640625 C 242.57778930664062 502.5264587402344 243.8011016845703 503.5564270019531 244.975830078125 504.4190368652344 C 246.14292907714844 505.07928466796875 247.22946166992188 505.58697509765625 248.18748474121094 506.0093688964844 C 249.1619415283203 506.40576171875 250.138916015625 506.7093505859375 251.0653076171875 507.1026916503906 C 251.92608642578125 507.4873352050781 252.7426300048828 507.9286193847656 253.5760498046875 508.3509216308594 C 254.43209838867188 508.8297424316406 255.29351806640625 509.2891845703125 256.1318664550781 509.680908203125 C 256.9693603515625 510.0508117675781 257.8017883300781 510.3096923828125 258.6605224609375 510.4695129394531 C 259.56024169921875 510.5306091308594 260.4903564453125 510.5005187988281 261.4571838378906 510.41473388671875 C 262.49102783203125 510.2643127441406 263.5915222167969 510.1036682128906 264.70550537109375 510.0060119628906 C 265.8290100097656 509.9449462890625 266.9583740234375 509.9446716308594 268.0202331542969 510.0093078613281 C 268.9793395996094 510.0881042480469 269.8609313964844 510.1230163574219 270.6418762207031 510.0822448730469 C 271.2995910644531 509.93316650390625 271.8102111816406 509.6333312988281 272.30780029296875 509.1310119628906 C 272.77081298828125 508.51904296875 273.2497253417969 507.773681640625 273.8009338378906 507.0113525390625 C 274.4181823730469 506.30731201171875 275.09686279296875 505.7471923828125 275.7893981933594 505.35400390625 C 276.47088623046875 505.1920166015625 277.1839294433594 505.2559509277344 277.8594665527344 505.4896545410156 C 278.53118896484375 505.8491516113281 279.235595703125 506.2415771484375 279.9906311035156 506.6268310546875 C 280.825927734375 506.98712158203125 281.76202392578125 507.22869873046875 282.82342529296875 507.3158874511719 C 283.9897766113281 507.3756408691406 285.19989013671875 507.4310607910156 286.3760070800781 507.5552978515625 C 287.4064636230469 507.86456298828125 288.311767578125 508.05572509765625 289.048095703125 508.0879821777344 C 289.5874938964844 508.1061096191406 289.9554138183594 508.1321105957031 290.2190246582031 508.1015930175781 C 290.42047119140625 508.0749816894531 290.6308288574219 508.0710144042969 290.9375915527344 508.0425109863281 C 291.40509033203125 508.0141906738281 292.04730224609375 508.04071044921875 292.866943359375 508.1148376464844 C 293.82568359375 508.20599365234375 294.85565185546875 508.383544921875 295.87548828125 508.56158447265625 C 296.77227783203125 508.7983093261719 297.5447998046875 509.082763671875 298.1722412109375 509.3379821777344 C 298.62005615234375 509.5956726074219 299.0009460449219 509.8387145996094 299.4092712402344 510.0047607421875 C 299.8493957519531 510.18170166015625 300.2284851074219 510.5238037109375 300.51544189453125 511.0030822753906 C 300.7687072753906 511.60467529296875 300.97100830078125 512.3563232421875 301.0953063964844 513.0980834960938 C 301.2068786621094 513.7391357421875 301.3104553222656 514.2416381835938 301.3662109375 514.5477294921875 C 301.44134521484375 514.7050170898438 301.4087219238281 514.8295288085938 301.18701171875 514.98876953125 C 300.7538757324219 515.2772827148438 300.0955505371094 515.6021118164062 299.22760009765625 515.8683471679688 C 298.1839904785156 516.0065307617188 297.0486145019531 515.9108276367188 295.93499755859375 515.705810546875 C 294.8330383300781 515.5772094726562 293.8453369140625 515.8049926757812 293.02099609375 516.5571899414062 C 292.3139953613281 517.6249389648438 291.63287353515625 518.76220703125 291.0639953613281 519.7537231445312 C 290.8586730957031 520.5211181640625 290.86883544921875 521.0355834960938 290.8713684082031 521.3118896484375 C 290.67022705078125 521.48046875 290.219970703125 521.6566162109375 289.66717529296875 521.9148559570312 C 289.1231689453125 522.4508056640625 288.7043762207031 523.1650390625 288.4804382324219 524.0396728515625 C 288.38616943359375 525.065185546875 288.202880859375 526.0774536132812 287.7817687988281 526.9267578125 C 287.1165771484375 527.5517578125 286.3117370605469 528.0084838867188 285.40771484375 528.3121948242188 C 284.3865051269531 528.5794677734375 283.3261413574219 528.9615478515625 282.23834228515625 529.3847045898438 C 281.0263671875 529.8099975585938 279.7502746582031 530.2613525390625 278.38427734375 530.601318359375 C 276.98907470703125 531.0302734375 275.583251953125 531.3657836914062 274.1329650878906 531.4505004882812 C 272.74298095703125 531.6652221679688 271.4841613769531 532.0364990234375 270.2896423339844 532.3977661132812 C 269.2060241699219 532.5538330078125 268.1417541503906 532.6080932617188 267.18994140625 532.5835571289062 C 266.1968078613281 532.5979614257812 265.2350769042969 532.618408203125 264.2467956542969 532.5759887695312 C 263.17852783203125 532.5166015625 262.0585632324219 532.4911499023438 260.85809326171875 532.5101928710938 C 259.6358947753906 532.5488891601562 258.4300231933594 532.5694580078125 257.26593017578125 532.534423828125 C 256.209228515625 532.3860473632812 255.23541259765625 532.1171264648438 254.31236267089844 531.7423706054688 C 253.43087768554688 531.509521484375 252.56028747558594 531.3792724609375 251.6404266357422 531.3840942382812 C 250.69381713867188 531.5225219726562 249.7378692626953 531.5707397460938 248.67404174804688 531.4578247070312 C 247.44590759277344 531.1939086914062 246.02737426757812 530.8065795898438 244.4764862060547 530.3783569335938 C 242.7849884033203 529.98681640625 241.0826873779297 529.4827270507812 239.6849822998047 528.8298950195312 C 238.72726440429688 527.8548583984375 238.39259338378906 526.5005493164062 238.5157012939453 524.80419921875 C 238.53526306152344 523.1932373046875 238.0584259033203 521.8612670898438 237.06436157226562 520.92236328125 C 235.64157104492188 520.5303955078125 234.1712188720703 520.397216796875 232.81820678710938 520.237548828125 C 231.87791442871094 519.9932861328125 231.312255859375 519.6990966796875 230.98495483398438 519.4014892578125 C 230.68968200683594 519.168701171875 230.40969848632812 518.8893432617188 230.11099243164062 518.5111694335938 C 229.7422332763672 518.0093994140625 229.39154052734375 517.314697265625 229.28970336914062 516.43212890625 C 229.51483154296875 515.3978881835938 230.010986328125 514.2913818359375 230.73672485351562 513.2139282226562 C 231.6410369873047 512.2435913085938 232.8380126953125 511.4450378417969 234.35362243652344 510.6142883300781 C 235.9437713623047 509.690673828125 237.45472717285156 508.49700927734375 238.9166259765625 507.150390625 C 240.6951141357422 506.0425720214844 242.61062622070312 505.03680419921875 241.2823486328125 501.398681640625" stroke-width="0.0" fill="rgb(243, 218, 60)" opacity="0.9996313" stroke="rgb(65, 5, 2)" stroke-opacity="0.80615824" stroke-linecap="round" stroke-linejoin="round"/>
    <path d="M 290.0035705566406 475.7240295410156 C 288.9415588378906 474.5179138183594 288.1150207519531 473.3106994628906 287.3117370605469 472.60284423828125 C 286.51556396484375 472.2910461425781 285.5640869140625 472.64703369140625 284.8575744628906 473.17498779296875 C 284.4644775390625 473.8728332519531 284.29345703125 474.6669006347656 284.4347839355469 475.4768981933594 C 284.7748718261719 476.2999572753906 285.2253112792969 477.1070556640625 285.68817138671875 477.911865234375 C 286.13397216796875 478.76580810546875 286.58990478515625 479.62890625 287.0823974609375 480.3999938964844 C 287.4382019042969 481.2183837890625 287.6331787109375 482.0335693359375 287.6971740722656 482.804443359375 C 287.64788818359375 483.59417724609375 287.43145751953125 484.3598327636719 287.03961181640625 485.0789489746094 C 286.5146484375 485.6680603027344 285.9891662597656 486.2295837402344 285.6110534667969 486.7100524902344 C 285.4346008300781 487.1468811035156 285.4790954589844 487.6010437011719 285.741943359375 488.0537414550781 C 286.1202392578125 488.5441589355469 286.60205078125 489.1055908203125 287.0542297363281 489.6427917480469 C 287.3662414550781 490.2383117675781 287.5147399902344 490.86590576171875 287.3729553222656 491.5619812011719 C 287.0305480957031 492.4101867675781 286.51959228515625 493.3066101074219 285.88531494140625 494.1324768066406 C 285.2196350097656 494.8197326660156 284.6488037109375 495.4034118652344 284.3048400878906 495.8926696777344 C 284.2580871582031 496.3494873046875 284.4828186035156 496.85479736328125 284.9259338378906 497.3947448730469 C 285.4687805175781 498.0688781738281 286.0248107910156 498.8681335449219 286.4117126464844 499.7434387207031 C 286.5460205078125 500.6863098144531 286.4341735839844 501.65948486328125 286.0494384765625 502.6352233886719 C 285.448486328125 503.5513000488281 284.6673278808594 504.4111022949219 283.7941589355469 505.2367248535156 C 282.9367980957031 505.9175109863281 282.1585998535156 506.3939208984375 281.4725341796875 506.697021484375 C 280.84869384765625 506.82537841796875 280.28094482421875 506.7863464355469 279.7230529785156 506.6769104003906 C 279.1466369628906 506.42535400390625 278.5490417480469 506.06060791015625 277.9248962402344 505.66729736328125 C 277.2756042480469 505.302490234375 276.616943359375 505.0744323730469 275.96844482421875 505.0094909667969 C 275.3365173339844 505.2250671386719 274.7497863769531 505.6770935058594 274.2191162109375 506.32666015625 C 273.7143249511719 507.1452941894531 273.2353210449219 508.00787353515625 272.734619140625 508.8721923828125 C 272.1816711425781 509.6571960449219 271.5573425292969 510.37286376953125 270.83221435546875 510.9445495605469 C 270.022705078125 511.3560485839844 269.14031982421875 511.6177062988281 268.1639404296875 511.7217712402344 C 267.1739807128906 511.7340393066406 266.1900939941406 511.7073669433594 265.220703125 511.6457824707031 C 264.29193115234375 511.5594177246094 263.4219055175781 511.45709228515625 262.56695556640625 511.3385009765625 C 261.8077392578125 511.2242736816406 261.033935546875 511.10687255859375 260.30474853515625 511.00177001953125 C 259.5946960449219 510.8961486816406 258.9084167480469 510.8050842285156 258.26849365234375 510.7120361328125 C 257.6502685546875 510.5948486328125 257.0653076171875 510.42071533203125 256.4676208496094 510.1763610839844 C 255.82325744628906 509.8961486816406 255.11334228515625 509.4717102050781 254.31005859375 509.03558349609375 C 253.40135192871094 508.5376281738281 252.4335479736328 507.9875183105469 251.37582397460938 507.4778137207031 C 250.30520629882812 506.9580993652344 249.2940216064453 506.5010070800781 248.382080078125 506.0392761230469 C 247.54502868652344 505.6740417480469 246.78274536132812 505.263916015625 246.08233642578125 504.8612365722656 C 245.37660217285156 504.3739013671875 244.67269897460938 503.8203430175781 244.01480102539062 503.1208190917969 C 243.53953552246094 502.1836242675781 243.39920043945312 501.05078125 243.38890075683594 499.7768249511719 C 243.4183807373047 498.46563720703125 243.43515014648438 497.216796875 243.4932098388672 496.0898742675781 C 243.68856811523438 495.1421813964844 244.004150390625 494.36981201171875 244.30628967285156 493.7032470703125 C 244.3401641845703 493.0448303222656 244.10177612304688 492.3533020019531 243.78489685058594 491.57855224609375 C 243.55679321289062 490.6455078125 243.49176025390625 489.5571594238281 243.5313720703125 488.3488464355469 C 243.61778259277344 487.0657958984375 243.83358764648438 485.79180908203125 244.20924377441406 484.4991455078125 C 244.54995727539062 483.1246643066406 244.88961791992188 481.75738525390625 245.2315216064453 480.54071044921875 C 245.4236602783203 479.470703125 245.4890594482422 478.4700622558594 245.46530151367188 477.5061340332031 C 245.36851501464844 476.5647888183594 245.2545166015625 475.54736328125 245.24635314941406 474.4526062011719 C 245.45223999023438 473.285400390625 246.07949829101562 471.9205017089844 247.06187438964844 470.5463562011719 C 248.43258666992188 470.08917236328125 250.22067260742188 470.44561767578125 252.2923583984375 470.9439392089844 C 254.48484802246094 471.2489013671875 256.65142822265625 471.6024475097656 258.4167175292969 472.22955322265625 C 259.3440246582031 473.29425048828125 259.65179443359375 474.4056396484375 259.47943115234375 475.205078125 C 259.091064453125 475.4763488769531 258.7015686035156 475.4027099609375 258.3819580078125 474.8053283691406 C 258.3492736816406 473.8877258300781 258.7747802734375 472.8415222167969 259.93109130859375 472.115478515625 C 261.8313903808594 471.9649658203125 264.0195007324219 472.0013122558594 266.1678771972656 472.0816650390625 C 268.0037841796875 472.2194519042969 269.40521240234375 472.780029296875 270.3856506347656 473.8214111328125 C 271.1148986816406 475.12469482421875 271.8060302734375 476.38946533203125 272.68731689453125 477.427490234375 C 273.7186584472656 478.19012451171875 274.7086486816406 478.76617431640625 275.4908447265625 479.1596374511719 C 275.932373046875 479.43487548828125 275.930419921875 479.4895935058594 275.5054931640625 479.4073181152344 C 274.71038818359375 479.0898742675781 273.67431640625 478.3731689453125 272.5574035644531 477.32012939453125 C 271.4661560058594 476.0375671386719 270.6524658203125 474.7256164550781 270.30023193359375 473.6651916503906 C 270.5804748535156 472.94146728515625 271.57293701171875 472.5330505371094 273.32806396484375 472.45123291015625 C 275.8365478515625 472.4613952636719 278.7696533203125 472.5387268066406 281.81298828125 472.9986877441406 C 284.89227294921875 474.2743835449219 288.0642395019531 475.8439636230469 290.0035705566406 475.7240295410156" stroke-width="0.0" fill="rgb(251, 189, 104)" opacity="0.9997059" stroke="rgb(117, 192, 229)" stroke-opacity="0.80965537" stroke-linecap="round" stroke-linejoin="round"/>
    <path d="M 213.6351776123047 124.37063598632812 C 212.90406799316406 124.53216552734375 212.23126220703125 124.54938507080078 211.8212432861328 124.71717071533203 C 211.88064575195312 124.85357666015625 212.4160614013672 124.71041107177734 213.4561004638672 124.4059829711914 C 215.11732482910156 124.26397705078125 217.34957885742188 124.35401153564453 219.76034545898438 124.74280548095703 C 222.28260803222656 124.747802734375 223.9145965576172 125.42565155029297 223.8489227294922 126.60257720947266 C 222.12164306640625 127.04707336425781 219.98129272460938 126.91182708740234 218.50592041015625 127.20101165771484 C 218.8350372314453 128.2827606201172 220.6361541748047 129.43881225585938 222.97686767578125 130.876953125 C 224.54507446289062 132.8270263671875 225.7493896484375 134.69143676757812 226.61668395996094 135.9880828857422 C 227.3069610595703 136.94985961914062 226.8811492919922 137.5994415283203 225.45433044433594 137.81039428710938 C 224.2057342529297 138.30410766601562 223.57470703125 138.64369201660156 223.71714782714844 138.2924346923828 C 224.5464324951172 137.49014282226562 226.01324462890625 137.37167358398438 227.62045288085938 138.38575744628906 C 228.75198364257812 141.46527099609375 228.88137817382812 145.00003051757812 228.16229248046875 147.47044372558594 C 227.0630645751953 148.40757751464844 227.00302124023438 148.30587768554688 227.62615966796875 147.9062957763672 C 228.0455322265625 147.9557342529297 227.87158203125 148.65101623535156 227.7339324951172 150.2860565185547 C 227.39080810546875 152.10836791992188 226.71014404296875 153.67514038085938 225.96119689941406 154.78163146972656 C 225.45001220703125 155.2607421875 225.31622314453125 155.16661071777344 225.43310546875 155.234130859375 C 225.3137969970703 156.10177612304688 224.3851318359375 157.0216064453125 222.95526123046875 158.18870544433594 C 221.74412536621094 159.45082092285156 221.51889038085938 161.0008544921875 221.5301055908203 162.59622192382812 C 220.56626892089844 163.5819854736328 219.03443908691406 164.0372772216797 217.53778076171875 163.95741271972656 C 216.26687622070312 163.8763885498047 215.6394500732422 163.41822814941406 215.3949432373047 162.96934509277344 C 215.3109130859375 162.9164581298828 215.52684020996094 163.14183044433594 215.8950958251953 163.484619140625 C 216.23614501953125 163.7967529296875 216.17568969726562 164.02452087402344 215.39205932617188 164.27267456054688 C 213.98524475097656 164.64382934570312 212.2273712158203 165.33798217773438 210.35728454589844 165.7361602783203 C 208.59295654296875 165.93045043945312 207.12802124023438 166.3961639404297 205.87486267089844 166.50257873535156 C 204.61416625976562 166.73704528808594 203.10963439941406 166.685546875 201.86154174804688 166.6382598876953 C 201.00128173828125 166.7549285888672 201.01083374023438 166.55758666992188 201.10653686523438 165.3937225341797 C 200.5874786376953 164.36297607421875 199.37762451171875 163.28207397460938 197.66493225097656 161.86293029785156 C 195.38497924804688 161.048828125 193.94384765625 160.10755920410156 194.013671875 158.86985778808594 C 195.0411376953125 158.07630920410156 195.29122924804688 157.6047821044922 195.29248046875 156.9867706298828 C 195.3804931640625 156.12831115722656 195.404541015625 156.08578491210938 195.08541870117188 157.53378295898438 C 193.89743041992188 159.26979064941406 192.11245727539062 159.21339416503906 190.21070861816406 157.47994995117188 C 188.7409210205078 154.9840545654297 188.54376220703125 152.35643005371094 189.39581298828125 150.86183166503906 C 189.6271209716797 150.61807250976562 189.3902130126953 151.2841339111328 188.96920776367188 152.30575561523438 C 188.6099395751953 152.7108154296875 187.82058715820312 151.85037231445312 187.3048095703125 149.98658752441406 C 187.01162719726562 147.733642578125 186.90420532226562 145.45045471191406 187.08982849121094 143.60911560058594 C 186.74134826660156 142.68756103515625 185.86190795898438 142.71524047851562 184.83229064941406 142.72811889648438 C 184.47976684570312 141.8098602294922 185.0849609375 140.3108367919922 186.10873413085938 138.35736083984375 C 187.33566284179688 136.66635131835938 188.5574493408203 135.36654663085938 189.3719482421875 134.22923278808594 C 190.1254119873047 133.54867553710938 190.8746337890625 133.2022247314453 191.26480102539062 132.8521270751953 C 191.6119384765625 132.4181365966797 192.19480895996094 131.91961669921875 193.1266632080078 131.1951904296875 C 194.4469757080078 130.32821655273438 195.9443359375 129.3826446533203 197.49888610839844 128.51588439941406 C 198.87034606933594 127.8218994140625 199.93707275390625 127.29598999023438 200.50125122070312 127.05072784423828 C 200.84010314941406 127.08204650878906 201.1472930908203 127.10863494873047 201.4010467529297 127.15184020996094 C 201.61463928222656 127.33704376220703 201.72470092773438 127.03073120117188 201.93800354003906 126.41886901855469 C 202.77243041992188 125.90890502929688 203.85287475585938 126.04759979248047 213.6351776123047 124.37063598632812" stroke-width="0.0" fill="rgb(146, 71, 23)" opacity="1.0" stroke="rgb(98, 112, 87)" stroke-opacity="0.6191524" stroke-linecap="round" stroke-linejoin="round"/>
  </g>
</svg>
