<?xml version="1.0" ?>
<svg xmlns="http://www.w3.org/2000/svg" version="1.1" width="474" height="596">
  <defs/>
  <g>
    <path d="M 266.1897277832031 -1.2360448837280273 C 268.5317687988281 -1.8853040933609009 270.6322021484375 -2.4771018028259277 272.4040222167969 -2.9430243968963623 C 273.5306091308594 -3.3720293045043945 274.2637023925781 -3.756796360015869 274.34564208984375 -3.8786559104919434 C 273.9154968261719 -3.8828818798065186 273.2470703125 -3.864804744720459 272.5286560058594 -3.9860610961914062 C 271.9132080078125 -4.343482971191406 271.8819580078125 -4.699936866760254 272.1847839355469 -4.71384859085083 C 273.4302978515625 -4.265259742736816 275.6174621582031 -3.386476516723633 278.6709899902344 -1.829412579536438 C 282.9518737792969 0.22112102806568146 288.6773986816406 1.9555977582931519 295.9117126464844 3.321624517440796 C 304.078857421875 5.532939910888672 312.4170227050781 8.40002727508545 320.3145751953125 11.839463233947754 C 328.5416259765625 15.32400131225586 336.4368896484375 19.407407760620117 344.1570739746094 24.022781372070312 C 352.21575927734375 28.76588249206543 360.156494140625 34.634521484375 368.2600402832031 40.85497283935547 C 376.4685363769531 47.80088424682617 384.6192626953125 55.52339172363281 392.4070129394531 63.63121032714844 C 399.2908020019531 71.56726837158203 405.8301696777344 79.32947540283203 411.6119079589844 87.31100463867188 C 417.0869445800781 95.32805633544922 422.6390686035156 103.58082580566406 427.9060974121094 112.4805908203125 C 433.5318908691406 120.355224609375 435.2326965332031 128.13818359375 431.9456481933594 136.40155029296875 C 427.7126159667969 145.0846405029297 422.2031555175781 153.24932861328125 415.9266052246094 161.00640869140625 C 409.1816711425781 169.16937255859375 401.2243347167969 177.03143310546875 392.94244384765625 184.63206481933594 C 384.70086669921875 191.56121826171875 376.6707763671875 197.9310760498047 368.5501403808594 203.65968322753906 C 361.01190185546875 208.9622802734375 353.4333801269531 213.8872528076172 344.8565673828125 218.2225799560547 C 334.2165222167969 222.221435546875 323.2970275878906 225.33460998535156 315.5396423339844 225.8773193359375 C 314.56085205078125 222.15985107421875 319.3345642089844 215.83392333984375 327.3893737792969 208.601806640625 C 336.2149658203125 201.560546875 344.2424621582031 194.18531799316406 350.9975280761719 186.18600463867188 C 356.2503356933594 178.08087158203125 360.3423767089844 170.42080688476562 364.08538818359375 163.07740783691406 C 367.3294677734375 156.0117645263672 369.74713134765625 148.73898315429688 370.8421936035156 141.15643310546875 C 369.8820495605469 133.1820068359375 367.4081115722656 124.97689819335938 363.79913330078125 116.84748077392578 C 359.1589050292969 109.34009552001953 353.7691650390625 103.60082244873047 347.88037109375 100.4792251586914 C 341.5241394042969 100.16516876220703 334.7694091796875 101.35895538330078 327.6421813964844 101.75597381591797 C 319.9976806640625 99.74756622314453 312.1717529296875 100.58879852294922 303.9266052246094 104.45368957519531 C 294.6313171386719 108.04488372802734 284.6785888671875 110.72795104980469 274.9575500488281 112.2131576538086 C 265.9633483886719 111.25550079345703 257.7253723144531 108.03765869140625 250.9536895751953 103.33197784423828 C 246.7919158935547 97.23223114013672 242.74935913085938 94.61128997802734 240.8760986328125 96.80888366699219 C 243.74221801757812 101.89970397949219 246.16900634765625 107.90011596679688 243.89010620117188 113.1087875366211 C 237.0904998779297 116.30558013916016 227.35247802734375 118.40162658691406 216.72682189941406 120.848876953125 C 207.13389587402344 125.35258483886719 198.49398803710938 130.80101013183594 190.30906677246094 135.63729858398438 C 182.52764892578125 138.88720703125 175.17784118652344 139.8244171142578 168.8743133544922 138.56097412109375 C 164.1270294189453 135.38754272460938 160.7939453125 133.17921447753906 158.6367645263672 134.53158569335938 C 157.57968139648438 139.8314666748047 155.6444854736328 147.11163330078125 152.47543334960938 155.4674835205078 C 149.18966674804688 164.36676025390625 146.59510803222656 173.2956085205078 145.25320434570312 181.91590881347656 C 145.80221557617188 190.11837768554688 148.3021697998047 197.86293029785156 152.59483337402344 205.2047119140625 C 158.4872589111328 212.04759216308594 166.20309448242188 217.95816040039062 175.1652374267578 222.8978271484375 C 184.6799774169922 227.10328674316406 194.00393676757812 231.05490112304688 202.62844848632812 234.72312927246094 C 210.17620849609375 238.21774291992188 215.42227172851562 241.1855010986328 216.91648864746094 243.86793518066406 C 213.07460021972656 245.47183227539062 205.27700805664062 245.66539001464844 195.31040954589844 245.00022888183594 C 184.4062957763672 243.7406768798828 173.3927459716797 242.1253662109375 162.74514770507812 240.927978515625 C 152.9906768798828 240.85150146484375 144.25408935546875 240.56442260742188 136.27249145507812 239.51364135742188 C 128.63107299804688 238.2052459716797 120.80635070800781 236.48573303222656 112.8701171875 234.6110076904297 C 105.10765075683594 232.40025329589844 97.38717651367188 229.61566162109375 89.37899017333984 226.59613037109375 C 80.94757843017578 223.5365447998047 72.55547332763672 219.63182067871094 64.74713134765625 215.06585693359375 C 57.64226531982422 211.11834716796875 53.728614807128906 205.63941955566406 53.23322296142578 197.56668090820312 C 53.806358337402344 187.75942993164062 54.593685150146484 177.63671875 56.986328125 168.49581909179688 C 58.456993103027344 160.0695343017578 60.25884246826172 152.60531616210938 62.5599365234375 145.35174560546875 C 64.90705108642578 137.6300811767578 67.31773376464844 129.27279663085938 71.16459655761719 121.18492126464844 C 74.6808853149414 113.04847717285156 78.67072296142578 104.96813201904297 83.36299133300781 97.11678314208984 C 88.61556243896484 88.99853515625 93.88695526123047 80.8797836303711 100.22905731201172 73.34124755859375 C 106.9767837524414 65.20891571044922 114.5665512084961 56.97623825073242 123.1471939086914 49.71878433227539 C 130.90567016601562 42.86586380004883 139.06346130371094 36.83735656738281 147.04673767089844 31.08844566345215 C 154.82269287109375 26.496795654296875 162.76968383789062 24.433124542236328 170.99102783203125 23.79584312438965 C 179.06198120117188 23.60340118408203 187.19720458984375 24.507205963134766 195.689208984375 26.098121643066406 C 203.97508239746094 28.524173736572266 209.80722045898438 30.597509384155273 213.4306640625 28.10142707824707 C 216.709228515625 29.439374923706055 221.21629333496094 30.03788948059082 226.47789001464844 27.009693145751953 C 233.4130859375 19.001182556152344 241.16575622558594 11.700113296508789 249.37576293945312 7.2605109214782715 C 258.0218505859375 2.88183331489563 267.64178466796875 -0.21539047360420227 266.1897277832031 -1.2360448837280273" stroke-width="0.0" fill="rgb(64, 38, 30)" opacity="0.99999374" stroke="rgb(22, 98, 166)" stroke-opacity="0.20451953" stroke-linecap="round" stroke-linejoin="round"/>
    <path d="M 289.62518310546875 237.1667938232422 C 294.4126892089844 238.91677856445312 299.7466125488281 240.44436645507812 306.4941711425781 241.48870849609375 C 315.6834411621094 242.8755340576172 328.3731384277344 245.98291015625 344.7642517089844 252.0044708251953 C 364.2131042480469 262.321533203125 383.8475341796875 275.20477294921875 400.29656982421875 284.8743591308594 C 409.0048828125 290.43609619140625 409.7489929199219 292.4018859863281 403.63018798828125 291.5992431640625 C 394.0433349609375 289.8395080566406 384.6402587890625 289.6316833496094 378.42303466796875 292.90435791015625 C 377.52032470703125 299.69635009765625 382.989013671875 309.5244140625 393.4378662109375 321.02142333984375 C 406.7146911621094 332.1895751953125 419.634521484375 340.95208740234375 428.5369567871094 345.275634765625 C 430.19818115234375 344.3648376464844 422.8092346191406 338.9928283691406 406.362060546875 332.25018310546875 C 383.1227111816406 328.8285827636719 358.3831787109375 324.21484375 336.6379699707031 322.37176513671875 C 323.8467712402344 324.4825134277344 320.5124816894531 335.7221984863281 322.63421630859375 353.548583984375 C 324.3753662109375 372.7402648925781 317.08477783203125 392.30609130859375 306.393310546875 413.37152099609375 C 296.8371276855469 435.6494140625 289.957763671875 457.6667785644531 286.62249755859375 477.8281555175781 C 286.6385192871094 494.88287353515625 290.20281982421875 508.4338073730469 294.3490905761719 518.4938354492188 C 292.6182556152344 525.6505737304688 283.5924072265625 528.9527587890625 270.4296569824219 529.7570190429688 C 257.4435119628906 530.8814697265625 248.79037475585938 534.6982421875 246.45016479492188 541.622314453125 C 250.9254150390625 550.009765625 261.0957946777344 558.3154907226562 274.97021484375 565.4900512695312 C 290.27197265625 570.8046875 304.6521301269531 574.2120971679688 315.94708251953125 576.0992431640625 C 322.19384765625 577.0737915039062 322.29876708984375 578.038330078125 316.3370361328125 578.9049682617188 C 305.2971496582031 579.3292846679688 290.7115783691406 578.6282958984375 274.6355895996094 576.0585327148438 C 259.1513671875 570.7534790039062 246.4963836669922 561.8099365234375 238.92263793945312 548.90576171875 C 238.143310546875 532.3118896484375 240.9881134033203 513.0592041015625 243.7740936279297 493.1522216796875 C 243.0465087890625 475.8738708496094 237.1980438232422 464.6336364746094 229.10252380371094 460.99493408203125 C 221.95790100097656 467.02734375 214.67955017089844 477.5345153808594 207.3395233154297 486.5310974121094 C 199.88404846191406 491.2005310058594 193.09674072265625 492.195068359375 188.07647705078125 491.8414611816406 C 185.8248291015625 492.3557434082031 187.05349731445312 495.6012268066406 191.71807861328125 502.32794189453125 C 198.5680389404297 512.5026245117188 205.71722412109375 525.5507202148438 210.85403442382812 540.3505859375 C 211.3924560546875 555.5344848632812 206.82569885253906 569.6752319335938 197.263427734375 581.3890991210938 C 183.37051391601562 589.3123779296875 166.7299041748047 592.89306640625 150.1478271484375 592.7494506835938 C 136.46556091308594 590.6421508789062 127.8605728149414 588.0482788085938 126.26773834228516 585.8193969726562 C 132.4727325439453 584.6953125 144.8781280517578 584.0586547851562 160.79080200195312 582.3032836914062 C 177.07424926757812 577.9741821289062 190.7342529296875 570.7138061523438 199.872802734375 560.9825439453125 C 203.9833221435547 550.1163940429688 203.1819610595703 539.8056640625 198.42794799804688 531.7098388671875 C 191.03134155273438 526.7467041015625 182.6598358154297 524.98974609375 175.0030975341797 524.7542114257812 C 169.40467834472656 523.47119140625 166.3180694580078 519.49658203125 165.3112030029297 511.3956298828125 C 165.79335021972656 499.0466613769531 166.20835876464844 482.94232177734375 165.1584930419922 464.0738525390625 C 162.46371459960938 443.5489501953125 158.16412353515625 422.4312438964844 151.7714385986328 401.6577453613281 C 142.92922973632812 382.2744445800781 132.13229370117188 365.8511657714844 120.00862121582031 354.4468688964844 C 107.7226791381836 349.73394775390625 96.96992492675781 350.61297607421875 89.70712280273438 353.6873779296875 C 87.18335723876953 356.2116394042969 88.6307601928711 356.53680419921875 92.7699203491211 353.0217590332031 C 98.95906066894531 345.3320007324219 105.65227508544922 334.7129821777344 111.03337860107422 322.6965026855469 C 113.31513214111328 310.9466857910156 111.9287109375 300.67755126953125 106.89240264892578 292.67413330078125 C 99.15062713623047 287.2900390625 93.51801300048828 283.1832275390625 94.4357681274414 277.88360595703125 C 103.26158905029297 270.07269287109375 117.81388854980469 260.6406555175781 135.08111572265625 251.6833953857422 C 150.89932250976562 244.72740173339844 161.5786895751953 240.7944793701172 166.58616638183594 242.78065490722656 C 167.0529022216797 251.27560424804688 164.88314819335938 264.4452819824219 162.0812530517578 280.69091796875 C 159.86416625976562 298.66864013671875 158.68099975585938 317.10882568359375 158.80245971679688 334.7472839355469 C 159.8157958984375 349.9565124511719 161.14418029785156 361.624267578125 162.17474365234375 369.07818603515625 C 162.4179229736328 371.7771301269531 161.87973022460938 369.4770812988281 161.03451538085938 362.5810546875 C 161.16082763671875 352.03985595703125 163.58473205566406 339.2124938964844 168.16604614257812 325.5326232910156 C 174.16822814941406 312.491455078125 180.5839385986328 300.9976501464844 186.4877166748047 291.5785217285156 C 191.15284729003906 284.3284606933594 194.2037353515625 278.8752136230469 195.99021911621094 273.7452087402344 C 197.27615356445312 267.7898254394531 199.2498779296875 261.5491943359375 202.9307098388672 255.79147338867188 C 209.65042114257812 252.15264892578125 218.9396209716797 250.5452117919922 229.97035217285156 250.629150390625 C 241.93646240234375 252.70654296875 253.96743774414062 257.2591247558594 265.39776611328125 264.55743408203125 C 275.65399169921875 274.27130126953125 284.892822265625 285.11224365234375 293.0985412597656 296.12652587890625 C 300.34197998046875 305.8545837402344 306.45562744140625 312.93353271484375 311.2862548828125 316.3155822753906 C 314.8984375 316.16339111328125 317.478271484375 313.4281921386719 319.1147766113281 309.5916748046875 C 319.7187194824219 305.9039306640625 319.29791259765625 301.9892883300781 317.8700866699219 297.0635681152344 C 315.19793701171875 290.4790344238281 311.16949462890625 282.15936279296875 306.1044616699219 272.43878173828125 C 300.33721923828125 261.9883117675781 294.15362548828125 251.26026916503906 289.62518310546875 237.1667938232422" stroke-width="0.0" fill="rgb(252, 110, 165)" opacity="0.9999835" stroke="rgb(93, 238, 70)" stroke-opacity="0.18027435" stroke-linecap="round" stroke-linejoin="round"/>
    <path d="M 317.6595458984375 98.49940490722656 C 326.4508056640625 96.03531646728516 334.61126708984375 94.77392578125 340.9529724121094 94.39908599853516 C 344.9333801269531 94.94739532470703 347.14752197265625 96.04804992675781 348.14154052734375 97.0746841430664 C 348.39227294921875 97.95817565917969 348.2222595214844 98.54497528076172 347.75494384765625 99.17367553710938 C 347.4039611816406 99.7908935546875 347.22344970703125 99.86919403076172 347.2965087890625 99.4709701538086 C 347.41717529296875 98.8552017211914 347.5976257324219 98.28446197509766 347.9491271972656 98.14873504638672 C 348.67803955078125 98.6345443725586 350.0840148925781 99.88075256347656 352.7581787109375 101.861572265625 C 356.2257080078125 105.08490753173828 359.94024658203125 109.52754974365234 363.3741760253906 115.24725341796875 C 366.1589660644531 122.04867553710938 368.57257080078125 129.30789184570312 370.5235595703125 136.75390625 C 371.41070556640625 144.1614990234375 370.6968078613281 151.19300842285156 369.30303955078125 157.7132568359375 C 367.7475891113281 163.61865234375 366.0074768066406 168.98248291015625 364.1880187988281 173.9083251953125 C 362.0408935546875 178.3909454345703 359.2334899902344 182.4555206298828 355.6900634765625 186.29283142089844 C 351.5261535644531 190.08607482910156 347.2765197753906 194.1592559814453 343.05706787109375 198.82318115234375 C 339.0412292480469 204.34695434570312 334.4347839355469 210.05772399902344 328.5898742675781 215.16644287109375 C 321.4993591308594 219.60276794433594 315.1654968261719 223.86517333984375 310.8890075683594 228.07603454589844 C 307.8096008300781 230.8392791748047 305.5146179199219 232.03860473632812 304.6637268066406 231.84881591796875 C 304.1246337890625 230.80320739746094 303.7606201171875 229.6282196044922 302.7347717285156 229.68789672851562 C 301.04449462890625 230.70774841308594 298.51348876953125 232.27197265625 296.2506103515625 234.701171875 C 294.8265686035156 237.97605895996094 294.4591979980469 241.9879913330078 295.16229248046875 246.63246154785156 C 296.85833740234375 251.79917907714844 299.3546447753906 257.3109130859375 302.3396911621094 262.91815185546875 C 305.3995666503906 268.2646179199219 308.185546875 272.9752502441406 310.39306640625 276.5374755859375 C 311.63525390625 278.4952697753906 311.7269287109375 278.6667175292969 310.5542907714844 277.0041809082031 C 308.0671691894531 273.6294860839844 304.29766845703125 268.9640197753906 299.31378173828125 263.7663879394531 C 293.3731689453125 258.7239685058594 286.86358642578125 254.39297485351562 280.1097412109375 251.28089904785156 C 273.3188781738281 249.75843811035156 266.6370849609375 249.9643096923828 260.14959716796875 251.70094299316406 C 253.65769958496094 254.5028533935547 247.13414001464844 257.58074951171875 240.54859924316406 260.09051513671875 C 234.21578979492188 261.2206726074219 228.525390625 260.76123046875 223.90737915039062 258.7563781738281 C 220.71469116210938 255.542236328125 219.1976318359375 251.55072021484375 219.52822875976562 247.49827575683594 C 221.74034118652344 244.3013916015625 225.22900390625 242.27723693847656 229.4791717529297 241.41558837890625 C 233.19378662109375 240.87115478515625 235.35324096679688 240.4446563720703 235.26002502441406 240.508056640625 C 232.83294677734375 241.0260009765625 228.37620544433594 241.9827423095703 222.22933959960938 242.9575653076172 C 214.94418334960938 242.92242431640625 207.105712890625 241.4678192138672 199.33181762695312 238.72032165527344 C 192.2500762939453 235.0338897705078 185.97471618652344 231.73240661621094 180.2980499267578 228.93551635742188 C 174.67718505859375 226.45497131347656 169.54551696777344 223.4033203125 165.16526794433594 219.05361938476562 C 160.55165100097656 214.27017211914062 155.8610076904297 209.09629821777344 151.46434020996094 203.48585510253906 C 147.83714294433594 197.298828125 145.2503204345703 190.63607788085938 143.75497436523438 183.445068359375 C 143.4833984375 175.87002563476562 144.43357849121094 167.94564819335938 146.7245635986328 159.82272338867188 C 150.13746643066406 151.777099609375 154.52899169921875 144.3535919189453 160.4487762451172 138.66265869140625 C 169.72653198242188 136.99916076660156 178.3344268798828 134.2907257080078 184.4096221923828 132.2917938232422 C 186.89476013183594 136.30166625976562 185.91567993164062 143.84902954101562 183.6178436279297 152.43582153320312 C 184.0882568359375 160.02345275878906 186.23333740234375 164.8316192626953 190.75486755371094 166.3888397216797 C 196.07958984375 166.95925903320312 199.61036682128906 166.27540588378906 198.72181701660156 164.0020294189453 C 194.29229736328125 161.22084045410156 189.8279266357422 157.27967834472656 187.72767639160156 151.05487060546875 C 187.36514282226562 143.46859741210938 185.66311645507812 136.5323944091797 185.0115966796875 131.26597595214844 C 189.13868713378906 127.47657012939453 197.42922973632812 125.62043762207031 205.88450622558594 123.51185607910156 C 212.49093627929688 121.7193832397461 217.35934448242188 124.38798522949219 222.58119201660156 130.63729858398438 C 228.96987915039062 137.21548461914062 230.36993408203125 144.79710388183594 226.93936157226562 152.52783203125 C 223.263916015625 158.18087768554688 222.93138122558594 160.9004364013672 227.07424926757812 159.76368713378906 C 233.88343811035156 157.6618194580078 240.46168518066406 155.00282287597656 244.973876953125 151.82156372070312 C 246.12091064453125 148.19178771972656 244.4736328125 143.68136596679688 241.56138610839844 137.4351348876953 C 237.057861328125 131.43235778808594 228.64149475097656 128.04591369628906 221.2648468017578 125.86058807373047 C 222.1037139892578 120.91984558105469 229.87973022460938 117.55158996582031 239.90548706054688 114.99967193603516 C 245.27842712402344 109.57563781738281 247.35723876953125 103.85488891601562 249.8094482421875 101.05517578125 C 253.56309509277344 103.09037780761719 258.435302734375 106.80537414550781 264.79058837890625 108.70293426513672 C 272.3990783691406 108.20844268798828 280.4428405761719 105.85502624511719 288.4615783691406 103.39665985107422 C 295.2152404785156 101.46648406982422 301.328369140625 101.95178985595703 308.1483154296875 104.18598937988281 C 316.4239501953125 103.46786499023438 323.71331787109375 105.67813873291016 328.30963134765625 112.69449615478516 C 331.2677917480469 120.43106079101562 330.4402160644531 127.23746490478516 328.6345520019531 131.9927520751953 C 331.5612487792969 132.75416564941406 337.30706787109375 130.3809051513672 343.933349609375 126.5862808227539 C 347.2637023925781 121.34412384033203 345.8789367675781 115.33372497558594 340.374267578125 109.06130981445312 C 333.0068359375 103.16751098632812 325.3592834472656 97.71627807617188 317.6595458984375 98.49940490722656" stroke-width="0.0" fill="rgb(251, 187, 103)" opacity="0.99999833" stroke="rgb(142, 197, 184)" stroke-opacity="0.9086559" stroke-linecap="round" stroke-linejoin="round"/>
    <path d="M 220.87686157226562 381.38275146484375 C 221.9345703125 380.2901611328125 222.95863342285156 379.2683410644531 223.96713256835938 378.30975341796875 C 224.9765625 377.5036315917969 225.9668426513672 376.9340515136719 226.93826293945312 376.55712890625 C 227.9256591796875 376.384765625 228.98983764648438 376.3778076171875 230.07203674316406 376.47808837890625 C 231.08343505859375 376.63299560546875 232.12022399902344 376.7970886230469 233.15969848632812 376.9529113769531 C 234.1428985595703 377.0915222167969 235.02444458007812 377.1861572265625 235.823486328125 377.22967529296875 C 236.5564727783203 377.2246398925781 237.27194213867188 377.1669006347656 238.01890563964844 377.0368957519531 C 238.8328399658203 376.82421875 239.7959747314453 376.6388854980469 241.03253173828125 376.5284118652344 C 242.6115264892578 376.5360412597656 244.57321166992188 376.759033203125 247.09613037109375 377.2159423828125 C 250.33554077148438 377.7884521484375 254.32064819335938 378.3537902832031 259.0295715332031 378.82989501953125 C 264.4447021484375 379.08331298828125 270.6211242675781 378.9477844238281 277.6049499511719 378.5596008300781 C 285.0863037109375 378.1468811035156 292.67327880859375 377.8088073730469 299.98797607421875 377.2914733886719 C 306.6070861816406 376.74078369140625 311.9533386230469 377.6988525390625 315.49163818359375 380.83392333984375 C 316.7269287109375 385.9696350097656 316.063232421875 392.3983154296875 314.5787658691406 400.0016784667969 C 313.3568420410156 407.99383544921875 311.8275451660156 415.82208251953125 310.052490234375 423.58123779296875 C 308.5238342285156 431.2192687988281 306.0794677734375 438.6965637207031 303.6763610839844 446.5763244628906 C 302.13671875 455.0009460449219 300.9133605957031 462.9984130859375 299.50823974609375 469.33013916015625 C 296.04522705078125 473.00445556640625 292.40594482421875 474.4426574707031 288.11395263671875 473.6688232421875 C 283.8648681640625 472.6356201171875 280.96759033203125 472.9569396972656 279.9517822265625 474.9388122558594 C 280.7823791503906 478.31378173828125 282.70489501953125 482.5023193359375 284.4651184082031 486.8840637207031 C 285.3187561035156 491.2253723144531 285.19964599609375 495.269775390625 284.2148742675781 498.81536865234375 C 283.33282470703125 501.519775390625 283.1474304199219 503.3759765625 283.97393798828125 504.6957702636719 C 285.999755859375 505.48504638671875 289.3035888671875 505.462890625 293.76861572265625 505.398681640625 C 298.8448486328125 506.1753234863281 303.3079833984375 508.3590393066406 305.408935546875 512.81787109375 C 304.80072021484375 518.0911865234375 301.49005126953125 520.5271606445312 295.9413757324219 519.4210815429688 C 289.4955749511719 519.68017578125 282.7394714355469 520.7984008789062 275.77191162109375 522.2057495117188 C 269.0446472167969 523.8318481445312 262.6957092285156 525.8487548828125 256.7440490722656 527.98779296875 C 251.21946716308594 530.4781494140625 246.4974822998047 533.7264404296875 242.61090087890625 538.2046508789062 C 239.51019287109375 543.839599609375 237.80044555664062 550.4130249023438 237.67942810058594 557.8771362304688 C 237.92359924316406 565.5047607421875 237.96763610839844 572.0049438476562 237.69378662109375 575.6410522460938 C 236.15289306640625 574.9127197265625 234.44113159179688 570.0159301757812 233.3892059326172 562.1315307617188 C 233.3980712890625 552.0464477539062 234.45045471191406 541.4533081054688 235.34896850585938 531.9891967773438 C 235.18267822265625 525.9181518554688 231.19363403320312 523.3509521484375 226.6765899658203 520.031982421875 C 225.17742919921875 515.38330078125 228.1549072265625 511.06829833984375 233.85848999023438 507.92974853515625 C 239.89662170410156 505.50665283203125 244.37530517578125 501.97723388671875 247.04991149902344 497.4273986816406 C 247.71897888183594 491.69207763671875 246.8971405029297 485.189697265625 244.9004669189453 478.443359375 C 241.37635803222656 472.0794372558594 236.73202514648438 466.3631896972656 232.18765258789062 461.5813293457031 C 228.3399658203125 460.00408935546875 226.65757751464844 461.996337890625 226.84837341308594 466.9746398925781 C 227.40957641601562 472.1163330078125 224.9141387939453 474.4613037109375 218.5115509033203 475.638671875 C 212.3029022216797 480.6543884277344 207.67489624023438 488.75244140625 206.0555877685547 497.672607421875 C 208.34371948242188 504.81884765625 214.571044921875 509.0006408691406 220.4788818359375 513.2792358398438 C 222.09060668945312 518.907958984375 218.8599395751953 522.4264526367188 212.7934112548828 523.9828491210938 C 208.1254425048828 526.3331298828125 204.0263671875 528.2955932617188 200.50035095214844 529.9789428710938 C 197.24757385253906 531.2230834960938 193.86825561523438 531.9268188476562 190.214599609375 532.26953125 C 186.2256317138672 532.3577880859375 181.89239501953125 532.130859375 177.3295440673828 531.7157592773438 C 172.78028869628906 531.0405883789062 168.50881958007812 529.9965209960938 164.43508911132812 528.6217041015625 C 160.68267822265625 526.7022705078125 157.36456298828125 524.49169921875 154.36135864257812 522.3733520507812 C 151.70352172851562 520.562744140625 150.66976928710938 518.2353515625 151.6436004638672 514.9714965820312 C 154.44589233398438 510.8994445800781 159.08828735351562 506.7547912597656 163.59689331054688 501.71795654296875 C 166.06027221679688 494.9830627441406 166.60751342773438 487.75048828125 165.35775756835938 480.7317199707031 C 162.3881072998047 474.7110290527344 159.03160095214844 469.85723876953125 157.49424743652344 464.7440185546875 C 157.31944274902344 458.6949768066406 157.0634002685547 452.527099609375 156.48265075683594 446.7861328125 C 155.8750457763672 441.4660339355469 155.52647399902344 436.2012939453125 155.0489044189453 430.7695617675781 C 154.38192749023438 425.0555114746094 154.01425170898438 419.0931091308594 153.4595489501953 412.9619445800781 C 152.17416381835938 406.9351806640625 152.45823669433594 400.95233154296875 154.15084838867188 395.0386962890625 C 156.599609375 389.3456115722656 160.59861755371094 384.5585632324219 166.2534637451172 381.09991455078125 C 173.02944946289062 378.9986267089844 180.2139129638672 377.7384033203125 187.1600341796875 377.2636413574219 C 193.163330078125 377.4148254394531 197.8922576904297 378.0241394042969 201.2337188720703 378.8581237792969 C 203.39353942871094 379.5912780761719 204.56080627441406 380.1925048828125 205.08572387695312 380.58013916015625 C 205.24346923828125 380.6768493652344 205.30126953125 380.52484130859375 205.42384338378906 380.2056579589844 C 205.67344665527344 379.71612548828125 205.96112060546875 379.2743225097656 220.87686157226562 381.38275146484375" stroke-width="0.0" fill="rgb(238, 80, 7)" opacity="0.9999722" stroke="rgb(145, 254, 231)" stroke-opacity="0.21845049" stroke-linecap="round" stroke-linejoin="round"/>
    <path d="M 179.25979614257812 241.36965942382812 C 180.5070343017578 241.07669067382812 181.71975708007812 240.58245849609375 182.81712341308594 239.9568328857422 C 183.6807403564453 239.2729949951172 184.21743774414062 238.57691955566406 184.4719696044922 237.90609741210938 C 184.4916229248047 237.3997802734375 184.41331481933594 237.2393341064453 184.422119140625 237.52003479003906 C 184.78726196289062 238.30792236328125 185.4913330078125 239.4309539794922 186.4046630859375 240.54934692382812 C 187.47802734375 241.36785888671875 188.65676879882812 241.8755340576172 190.08140563964844 242.189208984375 C 191.78622436523438 242.40235900878906 194.13775634765625 242.80947875976562 197.185302734375 243.63619995117188 C 200.81369018554688 244.58998107910156 204.9048309326172 245.1587371826172 209.39012145996094 245.196533203125 C 213.97329711914062 244.61549377441406 218.1005096435547 243.43801879882812 221.41371154785156 242.6697540283203 C 223.17178344726562 242.99952697753906 222.76869201660156 244.51014709472656 220.76080322265625 246.6715850830078 C 217.25341796875 248.70858764648438 212.85848999023438 250.39865112304688 208.33541870117188 252.17437744140625 C 204.3756103515625 254.54751586914062 201.4124755859375 257.65997314453125 199.39871215820312 261.5617370605469 C 198.14222717285156 266.2587890625 197.2284393310547 271.5063781738281 196.1510009765625 276.9696350097656 C 194.65187072753906 282.49560546875 192.6388397216797 287.9889831542969 189.93121337890625 293.26739501953125 C 186.86119079589844 298.2189025878906 183.76329040527344 302.9585266113281 180.936767578125 307.61199951171875 C 178.52561950683594 312.12603759765625 176.5173797607422 316.5003662109375 174.87164306640625 320.80352783203125 C 173.36099243164062 325.1112976074219 171.73291015625 329.5113830566406 169.81680297851562 334.056396484375 C 167.5926055908203 338.9594421386719 165.0092315673828 344.3052062988281 162.2965850830078 350.1504211425781 C 159.70899963378906 356.3687744140625 157.29296875 362.5610046386719 155.2601776123047 368.3218688964844 C 153.88427734375 373.3538513183594 153.1406707763672 377.35821533203125 153.00770568847656 380.44781494140625 C 153.2012481689453 382.9796142578125 153.2450714111328 385.3800964355469 153.11431884765625 388.0309143066406 C 153.1009521484375 391.2850646972656 152.92196655273438 395.5801696777344 152.7441864013672 400.87310791015625 C 152.52603149414062 406.8849792480469 152.70846557617188 413.16241455078125 153.42379760742188 418.9822082519531 C 153.2770233154297 423.2149963378906 153.14569091796875 424.5870056152344 153.57049560546875 422.3718566894531 C 153.7393341064453 417.0802917480469 153.6210174560547 410.1509094238281 152.21319580078125 403.61456298828125 C 148.3707733154297 399.3739013671875 141.9768524169922 397.4134826660156 134.30348205566406 396.0511474609375 C 126.87252807617188 393.358154296875 121.38140869140625 388.9304504394531 118.36470794677734 382.82135009765625 C 118.64431762695312 374.73114013671875 118.93797302246094 366.2200622558594 117.17610168457031 358.6186828613281 C 113.01560974121094 352.8847961425781 107.0049819946289 349.50048828125 100.28272247314453 348.4145812988281 C 94.02428436279297 349.6364440917969 89.86734771728516 353.2015686035156 89.41352081298828 359.3584289550781 C 89.00943756103516 364.7159118652344 84.75320434570312 365.114501953125 78.12940979003906 364.5321044921875 C 73.912109375 369.7712097167969 69.27265167236328 377.0195617675781 62.1352653503418 382.5789489746094 C 58.430335998535156 388.7778625488281 59.112735748291016 397.5722961425781 55.85905838012695 404.6322021484375 C 49.26176071166992 406.05322265625 45.5787239074707 399.4857177734375 43.16789627075195 390.429931640625 C 39.42272186279297 389.3110046386719 36.60640335083008 396.2156066894531 31.665781021118164 401.8411560058594 C 25.752254486083984 397.70416259765625 18.988615036010742 391.8995361328125 10.60066032409668 390.3879089355469 C 9.187119483947754 385.2373046875 11.854095458984375 379.11712646484375 12.600752830505371 375.67010498046875 C 7.480576992034912 378.5228576660156 0.7957584261894226 378.8481140136719 -2.285512685775757 373.7416076660156 C 1.6884032487869263 365.8057861328125 8.828146934509277 356.1181945800781 16.511608123779297 346.5986022949219 C 20.26970672607422 338.63629150390625 18.252161026000977 331.495361328125 17.201154708862305 323.8340759277344 C 20.752824783325195 318.2268371582031 26.571401596069336 319.71368408203125 33.42664337158203 326.194580078125 C 39.58991241455078 330.55255126953125 44.36351013183594 328.6770324707031 47.474510192871094 322.4325866699219 C 54.20909881591797 319.93365478515625 61.202598571777344 316.5655212402344 67.0228500366211 309.4915466308594 C 74.37871551513672 301.5281677246094 82.6739501953125 294.55072021484375 90.11823272705078 290.12408447265625 C 92.2641372680664 286.62847900390625 91.41178131103516 283.6299743652344 91.25336456298828 281.31866455078125 C 93.49537658691406 280.9018249511719 96.5892105102539 282.34234619140625 99.9072036743164 284.4112243652344 C 103.41413879394531 285.88555908203125 106.79692077636719 287.3365783691406 109.90446472167969 289.5118408203125 C 112.88288879394531 293.0089416503906 115.95048522949219 297.59912109375 119.12792205810547 303.01739501953125 C 122.07782745361328 308.9690246582031 124.39566802978516 314.9739685058594 125.72396087646484 320.6811218261719 C 126.20198059082031 325.765625 125.9505386352539 330.0391845703125 125.15177917480469 333.3879699707031 C 124.62844848632812 335.7795104980469 125.06423950195312 337.3128967285156 126.58194732666016 338.1570739746094 C 128.92584228515625 338.3592529296875 131.9420166015625 337.93426513671875 135.46400451660156 336.8856506347656 C 139.23626708984375 335.2428894042969 142.86260986328125 333.0852966308594 146.25201416015625 330.4143371582031 C 149.288818359375 327.1226806640625 151.9273223876953 323.19952392578125 154.0736846923828 318.5674133300781 C 155.6580047607422 313.24212646484375 156.70199584960938 307.333740234375 157.31661987304688 301.0037536621094 C 157.713623046875 294.3846435546875 158.2199249267578 287.59637451171875 159.0483856201172 280.7593688964844 C 160.37301635742188 274.02349853515625 161.94422912597656 267.48779296875 163.66416931152344 261.3796081542969 C 165.26963806152344 255.89480590820312 166.316650390625 251.01722717285156 166.3577880859375 246.94898986816406 C 165.24844360351562 244.02218627929688 163.43939208984375 242.18321228027344 161.9359130859375 241.31668090820312 C 161.3060760498047 241.17225646972656 161.9088134765625 241.04443359375 163.58619689941406 241.25543212890625 C 165.88690185546875 241.3609161376953 168.29458618164062 241.59739685058594 179.25979614257812 241.36965942382812" stroke-width="0.0" fill="rgb(247, 188, 111)" opacity="0.99999934" stroke="rgb(206, 174, 34)" stroke-opacity="0.8702731" stroke-linecap="round" stroke-linejoin="round"/>
    <path d="M 364.5130615234375 268.3365478515625 C 365.8739929199219 268.7852478027344 367.2183837890625 269.2110900878906 368.43841552734375 269.7531433105469 C 369.5947265625 270.43121337890625 370.62591552734375 271.10821533203125 371.6106262207031 271.5287170410156 C 372.5269470214844 271.7016906738281 373.26177978515625 271.89263916015625 373.90252685546875 272.3060607910156 C 374.58697509765625 272.807373046875 375.44036865234375 273.3684997558594 376.4707946777344 274.01251220703125 C 377.6850280761719 274.6565246582031 378.9897766113281 275.2528381347656 380.2300109863281 275.759765625 C 381.1924133300781 276.2193908691406 381.8059997558594 276.6134338378906 382.1353454589844 277.006103515625 C 382.3267822265625 277.4320068359375 382.6331481933594 277.9292907714844 383.3084411621094 278.39984130859375 C 384.4888916015625 279.07733154296875 386.3337707519531 279.8571472167969 388.7640380859375 280.3150939941406 C 391.203857421875 280.3025817871094 393.0719909667969 280.12493896484375 394.00970458984375 280.6713562011719 C 394.4412536621094 282.05181884765625 394.5399169921875 283.5549621582031 394.7592468261719 284.78302001953125 C 395.195556640625 285.6100769042969 395.82958984375 286.0553894042969 396.6106872558594 286.24578857421875 C 397.3992919921875 286.42578125 398.02935791015625 286.8617248535156 398.6842956542969 287.57122802734375 C 399.68408203125 288.38140869140625 400.867431640625 289.31671142578125 402.26025390625 290.3607177734375 C 404.15960693359375 290.8746643066406 406.37908935546875 291.1294250488281 408.6669006347656 291.7005615234375 C 410.4684143066406 293.3224182128906 412.2486267089844 294.2536315917969 414.666259765625 294.4413146972656 C 417.33526611328125 293.55792236328125 420.0086975097656 292.4931945800781 422.697265625 291.4693908691406 C 425.3184814453125 290.4981994628906 427.869140625 289.5885925292969 430.2621154785156 289.4518737792969 C 432.3937072753906 288.698974609375 434.4510498046875 287.3198547363281 436.08087158203125 285.67242431640625 C 437.4078063964844 284.1934509277344 438.4869689941406 283.1938781738281 439.2630920410156 283.3070373535156 C 439.00567626953125 283.7845764160156 438.4100341796875 283.63385009765625 438.2712097167969 282.4322509765625 C 439.796142578125 280.6688537597656 442.2290954589844 279.3203430175781 444.912109375 279.1234436035156 C 447.3621826171875 279.5059814453125 449.2276306152344 280.7373352050781 450.51385498046875 282.8489990234375 C 451.0719299316406 285.2778015136719 450.3814392089844 287.693359375 449.21038818359375 290.5633850097656 C 447.9778747558594 293.8104553222656 446.68359375 296.9429931640625 446.4438781738281 299.0305480957031 C 447.48004150390625 299.4712219238281 449.5653381347656 300.4328308105469 452.7937316894531 301.90277099609375 C 456.3677673339844 303.339111328125 459.9989318847656 304.9403381347656 463.33856201171875 306.9372863769531 C 466.8526306152344 308.8928527832031 469.9071044921875 311.3459777832031 472.4479675292969 313.93341064453125 C 474.1793518066406 316.1053466796875 474.20770263671875 318.77880859375 472.99163818359375 321.60308837890625 C 469.9676513671875 323.9377136230469 465.7016906738281 324.1185607910156 461.8758850097656 323.5372314453125 C 460.81201171875 324.4589538574219 462.2270812988281 326.6986389160156 465.22930908203125 329.5484924316406 C 467.76416015625 332.4217224121094 468.53173828125 335.38250732421875 467.2842102050781 338.0502014160156 C 464.6456298828125 339.6253356933594 461.8689880371094 340.7645568847656 459.775390625 341.77410888671875 C 459.22003173828125 342.35595703125 459.9898376464844 342.2539978027344 461.0074157714844 342.4242858886719 C 461.94073486328125 343.2853698730469 461.9917907714844 344.4656677246094 460.92626953125 345.84375 C 458.9826965332031 347.4196472167969 455.9272155761719 348.11419677734375 452.0885314941406 347.4938659667969 C 447.5447692871094 345.8929138183594 444.0057373046875 344.52947998046875 441.4607238769531 344.25372314453125 C 441.427001953125 345.9482727050781 442.9396667480469 348.9190673828125 444.9380187988281 352.8848876953125 C 446.04998779296875 356.6551818847656 445.0476989746094 359.5962219238281 442.0902404785156 360.8072814941406 C 438.2822265625 361.11224365234375 435.0409851074219 359.51776123046875 432.7084045410156 356.177734375 C 430.5596923828125 352.9212951660156 428.2594299316406 350.2501525878906 426.39935302734375 348.16741943359375 C 425.0858154296875 346.2315368652344 424.0103454589844 344.6950378417969 423.0968933105469 343.84625244140625 C 422.0826416015625 343.603271484375 421.06524658203125 343.54290771484375 420.0337219238281 343.7040710449219 C 418.7662353515625 343.8377990722656 417.20819091796875 343.3238220214844 415.2143859863281 342.1807861328125 C 412.728515625 340.7827453613281 409.8920593261719 339.1092834472656 407.1748046875 337.2740173339844 C 404.6923522949219 335.0049743652344 402.3421325683594 332.62591552734375 400.1262512207031 330.3719482421875 C 397.8921203613281 328.5324401855469 395.52886962890625 327.2899169921875 393.0625 326.6829833984375 C 390.43890380859375 326.41754150390625 387.6551818847656 326.1737365722656 384.7069396972656 325.7395935058594 C 381.609130859375 325.2295837402344 378.4580383300781 324.71307373046875 375.2386169433594 324.20465087890625 C 371.92669677734375 323.611083984375 368.61041259765625 323.0049743652344 365.3888244628906 322.266357421875 C 362.3587951660156 321.41015625 359.5661926269531 320.57550048828125 357.019775390625 319.9197998046875 C 354.7693786621094 319.51922607421875 352.90325927734375 319.2820739746094 351.4252014160156 319.0257568359375 C 350.2789611816406 318.6407775878906 349.5419616699219 318.107177734375 349.22296142578125 317.4219970703125 C 349.23602294921875 316.5245056152344 349.3972473144531 315.1523742675781 349.9429931640625 313.262939453125 C 351.2559509277344 310.9593200683594 352.878662109375 308.18994140625 354.23590087890625 304.89398193359375 C 355.82025146484375 301.6000671386719 357.18951416015625 298.22393798828125 358.185546875 294.58001708984375 C 359.0195007324219 290.9666748046875 359.8700866699219 287.71533203125 360.80450439453125 284.6536865234375 C 361.85211181640625 281.7478332519531 363.0191345214844 279.0594787597656 364.25262451171875 276.7203674316406 C 365.64288330078125 274.654296875 367.06988525390625 273.0462646484375 368.4212646484375 271.7915344238281 C 369.623779296875 270.88775634765625 370.6628112792969 270.3638000488281 371.53369140625 270.1932678222656 C 372.2698669433594 270.2029724121094 372.9363708496094 270.2222900390625 364.5130615234375 268.3365478515625" stroke-width="0.0" fill="rgb(249, 187, 106)" opacity="1.0" stroke="rgb(239, 252, 52)" stroke-opacity="0.98733205" stroke-linecap="round" stroke-linejoin="round"/>
    <path d="M 316.4437561035156 225.92111206054688 C 308.1248474121094 230.3693084716797 300.3346862792969 233.02731323242188 295.3827209472656 236.62403869628906 C 295.1242370605469 244.85153198242188 299.0135498046875 254.60888671875 306.4951477050781 264.3592224121094 C 313.010498046875 274.95745849609375 316.71624755859375 286.67413330078125 319.0060119628906 298.84686279296875 C 322.2288513183594 310.0982360839844 324.7020568847656 320.76513671875 325.2313537597656 330.8914794921875 C 324.319091796875 339.90386962890625 322.4868469238281 346.3511657714844 320.19439697265625 349.12103271484375 C 317.8006286621094 347.7675476074219 315.5243835449219 342.5158996582031 313.1101379394531 333.93536376953125 C 309.28619384765625 324.1410217285156 304.7792663574219 313.483642578125 297.74261474609375 304.182861328125 C 287.7287902832031 297.1707763671875 279.5255126953125 288.9042053222656 274.0242614746094 279.32733154296875 C 269.1956787109375 270.5902099609375 264.0185852050781 263.660888671875 257.2117919921875 259.4354248046875 C 248.54010009765625 257.64788818359375 238.76036071777344 256.8215026855469 228.77256774902344 255.87149047851562 C 219.2740478515625 254.51107788085938 210.7399444580078 253.49295043945312 204.0146026611328 254.99708557128906 C 199.41139221191406 261.75360107421875 196.10108947753906 271.9850158691406 192.89309692382812 283.7211608886719 C 188.6385040283203 295.36920166015625 183.14837646484375 305.9862060546875 177.45729064941406 315.8092956542969 C 172.51715087890625 325.2962646484375 168.28929138183594 334.5540771484375 164.44822692871094 343.8276672363281 C 160.33956909179688 353.3233642578125 156.7762908935547 363.4297180175781 154.31031799316406 374.91558837890625 C 153.01939392089844 387.8972473144531 152.5772247314453 402.1781311035156 153.12510681152344 417.760986328125 C 154.94439697265625 434.4092712402344 155.6852264404297 451.6199035644531 159.14529418945312 467.0872497558594 C 167.92091369628906 478.7019348144531 181.3212127685547 484.0610046386719 197.18856811523438 483.1722106933594 C 211.92164611816406 476.7338562011719 222.49977111816406 466.2268981933594 227.84130859375 455.29791259765625 C 230.80206298828125 452.51409912109375 233.49899291992188 458.1801452636719 239.19154357910156 467.9520263671875 C 251.12814331054688 476.0194396972656 266.4264831542969 480.06146240234375 281.3759765625 479.668701171875 C 291.8880920410156 473.26171875 297.3183288574219 461.020751953125 301.2228088378906 445.2607116699219 C 305.6287536621094 429.63775634765625 309.5190734863281 414.9461669921875 313.0005187988281 402.1132507324219 C 316.1694641113281 391.7278747558594 317.77813720703125 384.1397399902344 317.7597961425781 379.5922546386719 C 316.8668212890625 378.4518737792969 316.23980712890625 380.9920349121094 316.0979309082031 387.1167907714844 C 314.7494812011719 396.30059814453125 311.6239013671875 407.75482177734375 307.8070983886719 421.01416015625 C 304.2015380859375 435.3215026855469 300.2944030761719 449.7903137207031 294.8712463378906 463.5634460449219 C 290.1861877441406 476.84210205078125 288.62945556640625 489.7226867675781 288.26141357421875 501.64935302734375 C 286.5379943847656 512.0863647460938 287.6774597167969 521.20361328125 294.415771484375 529.2241821289062 C 306.2575378417969 537.75927734375 322.6264343261719 543.981689453125 337.21673583984375 552.5860595703125 C 346.2138977050781 562.811767578125 345.6701354980469 572.0987548828125 335.69268798828125 578.6254272460938 C 320.28070068359375 584.4266967773438 301.2568664550781 585.7824096679688 280.97119140625 583.8740844726562 C 262.0892333984375 582.8746337890625 247.35044860839844 581.465087890625 238.58868408203125 577.091796875 C 237.7707977294922 566.6326904296875 238.77294921875 552.8800048828125 237.0966033935547 538.690185546875 C 231.26785278320312 526.6838989257812 232.66873168945312 515.4285278320312 240.07827758789062 502.8460998535156 C 243.94430541992188 487.94842529296875 242.27830505371094 473.6094055175781 236.3282928466797 462.97100830078125 C 228.6521453857422 458.84393310546875 221.79180908203125 461.9979553222656 216.98541259765625 470.70843505859375 C 215.3833770751953 482.6409606933594 212.99807739257812 496.4395751953125 211.3301544189453 512.0963134765625 C 213.2498321533203 529.2388305664062 214.73484802246094 546.7743530273438 216.68174743652344 563.024658203125 C 219.27976989746094 576.1175537109375 218.0926971435547 584.0159912109375 209.51332092285156 586.4320678710938 C 195.70082092285156 585.6002197265625 178.83865356445312 589.4310302734375 159.7963409423828 596.146240234375 C 140.8690643310547 598.5845947265625 125.41361236572266 595.52294921875 117.2069320678711 586.49462890625 C 115.83837127685547 575.543701171875 126.423583984375 567.6875 139.4398956298828 555.7594604492188 C 150.3175811767578 545.9717407226562 154.86959838867188 535.5972900390625 155.0876922607422 523.6383666992188 C 159.14979553222656 510.90936279296875 163.39593505859375 497.42779541015625 163.9073486328125 483.1405029296875 C 159.36183166503906 467.7984313964844 156.090576171875 450.9404296875 155.2376708984375 433.6834411621094 C 153.94552612304688 418.2001037597656 154.31607055664062 406.3709716796875 148.8936004638672 399.9903869628906 C 134.86740112304688 396.4817810058594 121.6295166015625 389.4483947753906 115.1970443725586 376.5058288574219 C 113.73466491699219 363.30572509765625 114.25667572021484 353.9894104003906 109.26380157470703 350.351806640625 C 100.19943237304688 350.1333923339844 92.6102523803711 352.2005920410156 92.06635284423828 354.75885009765625 C 99.53590393066406 350.9443664550781 111.45667266845703 343.0426025390625 126.2708740234375 334.3471374511719 C 141.11383056640625 326.6964111328125 151.6195068359375 317.2977294921875 156.1660919189453 305.42779541015625 C 156.38992309570312 292.1161193847656 156.89657592773438 278.9337463378906 159.76535034179688 267.1063232421875 C 162.7788543701172 257.0755310058594 165.7331085205078 248.86639404296875 169.0990447998047 242.94007873535156 C 173.65223693847656 238.97569274902344 179.45912170410156 237.0651092529297 186.8172607421875 237.55374145507812 C 195.83657836914062 240.71421813964844 206.0645294189453 243.18667602539062 215.80999755859375 246.58624267578125 C 224.22592163085938 251.3231201171875 231.8949432373047 254.04263305664062 239.0302276611328 253.8025360107422 C 246.0084228515625 251.10195922851562 253.2118682861328 247.07159423828125 261.3133544921875 243.40313720703125 C 270.867431640625 240.86766052246094 281.37139892578125 238.5697021484375 292.3651123046875 235.43426513671875 C 303.11224365234375 230.39239501953125 313.748291015625 224.01271057128906 316.4437561035156 225.92111206054688" stroke-width="0.0" fill="rgb(206, 155, 188)" opacity="0.9999297" stroke="rgb(109, 184, 217)" stroke-opacity="0.26299605" stroke-linecap="round" stroke-linejoin="round"/>
    <path d="M 226.89437866210938 374.69000244140625 C 226.62130737304688 375.186279296875 226.3746795654297 375.6596374511719 226.22799682617188 376.1774597167969 C 226.24600219726562 376.68853759765625 226.4463653564453 377.2254638671875 226.82192993164062 377.7937316894531 C 227.3751678466797 378.33355712890625 228.01194763183594 378.80743408203125 228.77194213867188 379.1811218261719 C 229.60574340820312 379.4660339355469 230.48941040039062 379.6308898925781 231.42330932617188 379.5911560058594 C 232.39927673339844 379.4361877441406 233.4021759033203 379.0854797363281 234.42225646972656 378.63690185546875 C 235.46563720703125 378.1742248535156 236.5652618408203 377.714111328125 237.7072296142578 377.364501953125 C 238.8494873046875 377.1268005371094 239.96084594726562 376.993408203125 241.05401611328125 376.9591369628906 C 242.1128692626953 376.9405517578125 243.113037109375 376.91082763671875 244.03811645507812 376.84552001953125 C 244.88970947265625 376.7384338378906 245.7152099609375 376.59075927734375 246.51309204101562 376.4594421386719 C 247.2263641357422 376.3941345214844 247.8993682861328 376.41943359375 248.58871459960938 376.58099365234375 C 249.31822204589844 376.8782043457031 250.07493591308594 377.1880187988281 250.9207000732422 377.4051513671875 C 251.8829803466797 377.4990539550781 252.92816162109375 377.46075439453125 254.0721893310547 377.3031311035156 C 255.34413146972656 377.0420837402344 256.7141418457031 376.8365478515625 258.1195373535156 376.7773742675781 C 259.502685546875 376.9891052246094 260.8404846191406 377.5295104980469 262.0812072753906 378.39727783203125 C 263.1599426269531 379.5725402832031 264.00445556640625 380.99798583984375 264.5137634277344 382.5414123535156 C 264.6291809082031 384.0995178222656 264.1732482910156 385.3341369628906 263.16986083984375 385.92828369140625 C 262.3655700683594 386.3334045410156 261.17156982421875 386.4769287109375 259.7646484375 386.4501037597656 C 258.6897277832031 386.31536865234375 257.9065246582031 386.11407470703125 257.40234375 385.87481689453125 C 257.1280517578125 385.5615234375 256.9458312988281 385.30535888671875 256.726806640625 385.2593078613281 C 256.3496398925781 385.3525085449219 255.86546325683594 385.5667724609375 255.1912078857422 385.8736572265625 C 254.41668701171875 386.24420166015625 253.56788635253906 386.5962829589844 252.57070922851562 386.9175720214844 C 251.43980407714844 387.17340087890625 250.1689910888672 387.4247131347656 248.77708435058594 387.6363525390625 C 247.34730529785156 387.7756042480469 245.93630981445312 387.8905334472656 244.52188110351562 387.8912658691406 C 243.2853546142578 387.7413024902344 242.28347778320312 387.46331787109375 241.4920654296875 387.0576171875 C 240.96238708496094 386.6479187011719 240.58734130859375 386.27484130859375 240.27980041503906 386.0467834472656 C 239.95851135253906 386.005126953125 239.51876831054688 386.1106262207031 238.90756225585938 386.2823791503906 C 238.2075653076172 386.4503479003906 237.41317749023438 386.48126220703125 236.55357360839844 386.3765869140625 C 235.67259216308594 386.1274108886719 234.82664489746094 385.7809753417969 234.02650451660156 385.4489440917969 C 233.2946014404297 385.1015625 232.61990356445312 384.83856201171875 231.9945831298828 384.7014465332031 C 231.38943481445312 384.6084289550781 230.77719116210938 384.5769348144531 230.12185668945312 384.61590576171875 C 229.41395568847656 384.6543273925781 228.69940185546875 384.6353454589844 227.9846954345703 384.5721740722656 C 227.2879180908203 384.3782043457031 226.68606567382812 384.1979675292969 226.08518981933594 383.9989013671875 C 225.50083923339844 383.8440246582031 224.91627502441406 383.66949462890625 224.27047729492188 383.4729309082031 C 223.56146240234375 383.1465759277344 222.7984161376953 382.6975402832031 221.96511840820312 382.0588073730469 C 221.0785369873047 381.1895751953125 220.16909790039062 380.17620849609375 219.23463439941406 378.9651794433594 C 218.2833251953125 377.628173828125 217.345458984375 376.2563171386719 226.89437866210938 374.69000244140625" stroke-width="0.0" fill="rgb(254, 184, 106)" opacity="0.999957" stroke="rgb(80, 57, 94)" stroke-opacity="0.8486099" stroke-linecap="round" stroke-linejoin="round"/>
  </g>
</svg>
