<?xml version="1.0" ?>
<svg xmlns="http://www.w3.org/2000/svg" version="1.1" width="512" height="512">
  <defs/>
  <g>
    <path d="M 294.64581298828125 164.7250518798828 C 322.8442687988281 166.04293823242188 331.6451721191406 166.6397705078125 336.612548828125 182.52085876464844 C 344.365478515625 192.9830322265625 343.1477966308594 192.82859802246094 350.102294921875 212.75975036621094 C 352.8524169921875 219.81700134277344 351.0062561035156 222.39622497558594 349.0240478515625 233.89401245117188 C 347.16119384765625 240.91891479492188 342.6961669921875 249.3031768798828 340.7685546875 251.10765075683594 C 340.99359130859375 251.6214599609375 335.99456787109375 255.7115020751953 329.73486328125 258.845458984375 C 339.1966247558594 253.8556365966797 330.2779541015625 258.41156005859375 330.5504150390625 260.1429443359375 C 331.8376159667969 260.9730224609375 331.8598327636719 260.4775085449219 332.232421875 260.713134765625 C 329.8523254394531 260.4964599609375 329.3102111816406 258.33526611328125 330.8415832519531 259.8486022949219 C 327.82073974609375 261.1355285644531 337.3648681640625 261.44512939453125 338.5321044921875 259.7818298339844 C 335.7388000488281 260.00079345703125 337.5244445800781 259.44189453125 337.1883850097656 260.85235595703125 C 334.6601257324219 260.8503723144531 340.8233337402344 261.169677734375 348.3833312988281 257.4382019042969 C 342.7926330566406 260.1315002441406 343.6846923828125 256.9448547363281 345.3813171386719 258.69671630859375 C 343.7071533203125 259.1582336425781 348.082763671875 257.4530029296875 342.7691650390625 258.6628112792969 C 347.4913024902344 258.0859375 350.9459228515625 255.98097229003906 353.0473937988281 252.82115173339844 C 357.7745666503906 249.0032196044922 364.2784118652344 238.0606231689453 366.47314453125 232.38714599609375 C 370.3310546875 224.20074462890625 370.8004150390625 205.08114624023438 367.94989013671875 198.83428955078125 C 365.77288818359375 187.72183227539062 348.70086669921875 171.5241241455078 334.9210510253906 162.13356018066406 C 317.24835205078125 151.1311492919922 293.2926940917969 157.61721801757812 315.4218444824219 135.57894897460938 C 332.9176940917969 131.94464111328125 343.81085205078125 133.5394744873047 389.2986145019531 159.540283203125 C 349.62530517578125 167.63540649414062 369.227783203125 148.89991760253906 376.3518981933594 182.15176391601562 C 378.39178466796875 200.81919860839844 372.9590148925781 221.3030242919922 377.2503662109375 230.39524841308594 C 380.90020751953125 242.1620330810547 380.5962829589844 250.15167236328125 380.1249084472656 253.8883514404297 C 378.42449951171875 259.047119140625 373.1338806152344 262.5252380371094 378.9108581542969 257.05908203125 C 372.6388854980469 262.902099609375 356.1189270019531 267.8179931640625 348.8327331542969 270.3243408203125 C 355.75274658203125 267.9152526855469 351.6858825683594 270.40240478515625 351.7287292480469 269.7176513671875 C 354.8620910644531 269.11871337890625 348.3642578125 272.08221435546875 355.5285949707031 267.9743957519531 C 348.1325988769531 270.9871520996094 339.4116516113281 275.2894287109375 342.9548645019531 273.063232421875 C 341.8030700683594 273.6420593261719 342.7625732421875 273.3920593261719 342.12353515625 273.78680419921875 C 343.22552490234375 274.4941711425781 341.66290283203125 274.28070068359375 342.28106689453125 273.34832763671875 C 343.01751708984375 274.1146545410156 342.47235107421875 272.7065124511719 342.6109619140625 273.55316162109375 C 342.1066589355469 273.06201171875 343.07440185546875 272.9044189453125 342.856201171875 273.36077880859375 C 345.079833984375 272.8153381347656 330.6524353027344 278.25732421875 326.313232421875 281.0766296386719 C 333.5921630859375 277.8942565917969 329.23809814453125 278.29083251953125 328.56982421875 281.19744873046875 C 330.62835693359375 278.4364013671875 327.7672119140625 282.56842041015625 327.9501953125 280.2772216796875 C 327.103271484375 279.6903381347656 326.4466857910156 281.34246826171875 328.39605712890625 279.8898010253906 C 326.0641174316406 282.6940612792969 331.681884765625 277.78204345703125 328.3764343261719 281.05743408203125 C 329.5714416503906 279.1334533691406 327.0843505859375 281.9456481933594 330.8244934082031 280.1147155761719 C 328.55126953125 280.9944152832031 329.50537109375 280.93145751953125 327.8658447265625 279.82061767578125 C 328.56390380859375 281.85418701171875 325.0052490234375 280.9949645996094 331.3340759277344 278.3985900878906 C 331.32476806640625 279.2278747558594 315.4058532714844 286.4756164550781 315.5862731933594 284.97747802734375 C 318.6504211425781 286.8382568359375 315.6295471191406 285.3875427246094 315.0733642578125 285.359619140625 C 317.12689208984375 285.46856689453125 316.0903015136719 284.6343688964844 315.8250427246094 285.627197265625 C 314.54998779296875 285.2181396484375 315.2987060546875 285.5093994140625 326.3162536621094 282.0477294921875 C 315.49884033203125 286.3003845214844 314.2649230957031 285.5792236328125 311.1665344238281 285.4510192871094 C 315.6603698730469 286.0085144042969 320.1090087890625 284.7848815917969 314.298095703125 286.2029113769531 C 300.79119873046875 291.8103942871094 292.8926696777344 288.4078674316406 294.625244140625 289.43487548828125 C 293.80419921875 290.1799011230469 285.03326416015625 288.4324645996094 279.5325622558594 286.3798522949219 C 273.6897888183594 282.7384033203125 260.8854064941406 282.9818420410156 257.25067138671875 267.70196533203125 C 277.1377258300781 287.57958984375 280.1514587402344 280.2515563964844 284.9682312011719 275.0413513183594 C 285.68475341796875 276.8046569824219 277.3624572753906 271.3983154296875 269.9710998535156 266.5343933105469 C 260.0328369140625 258.10406494140625 245.49716186523438 248.20663452148438 234.6782684326172 238.98724365234375 C 217.45529174804688 218.11160278320312 226.94093322753906 223.07839965820312 220.85057067871094 187.70355224609375 C 240.56517028808594 163.0159454345703 246.20388793945312 141.4474334716797 292.5437316894531 162.96563720703125 C 252.3860626220703 187.00048828125 257.8975830078125 189.52963256835938 250.281005859375 227.36334228515625 C 238.29962158203125 219.41043090820312 243.4311981201172 227.2976531982422 250.91004943847656 238.5270233154297 C 259.85821533203125 249.8965301513672 267.1071472167969 254.29750061035156 278.5458679199219 255.14993286132812 C 286.0058288574219 254.77743530273438 296.35394287109375 251.76901245117188 295.50640869140625 252.74148559570312 C 307.0196533203125 249.74801635742188 328.872802734375 257.3876037597656 329.6430358886719 251.124755859375 C 317.921875 259.3077392578125 351.57403564453125 242.5281524658203 329.3784484863281 240.91238403320312 C 316.6076965332031 208.58319091796875 359.6125183105469 229.5266876220703 294.64581298828125 164.7250518798828" stroke-width="0.0" fill="rgb(235, 32, 66)" opacity="0.9981805" stroke="rgb(39, 223, 127)" stroke-opacity="0.29838789" stroke-linecap="round" stroke-linejoin="round"/>
    <path d="M 137.29168701171875 214.8735809326172 C 143.62701416015625 230.78480529785156 149.00595092773438 246.47862243652344 154.398681640625 260.8565673828125 C 161.05519104003906 273.18292236328125 167.99154663085938 283.7076416015625 175.03509521484375 291.98614501953125 C 181.4787139892578 298.5667419433594 187.502685546875 303.26416015625 192.55618286132812 306.6517333984375 C 196.49339294433594 309.03192138671875 199.32339477539062 310.6550598144531 201.0142059326172 311.5544128417969 C 201.8767852783203 312.0517272949219 201.98703002929688 312.2480163574219 201.44552612304688 312.2829284667969 C 200.56642150878906 312.07818603515625 199.58425903320312 311.85400390625 198.5032958984375 311.4176025390625 C 197.33953857421875 310.8731994628906 196.31698608398438 310.3386535644531 195.558837890625 309.9188232421875 C 195.0430450439453 309.6819152832031 194.73155212402344 309.5173034667969 194.67117309570312 309.4313049316406 C 194.8738250732422 309.5082092285156 195.24623107910156 309.73223876953125 195.68959045410156 310.0709228515625 C 196.20639038085938 310.4515380859375 196.8924560546875 310.87371826171875 197.7115936279297 311.251708984375 C 198.4525146484375 311.5823059082031 199.05799865722656 311.93621826171875 199.5301971435547 312.298828125 C 199.75460815429688 312.75677490234375 199.79595947265625 313.2282409667969 199.68524169921875 313.7585144042969 C 199.48976135253906 314.4580383300781 199.29855346679688 315.24237060546875 199.0169677734375 316.0592956542969 C 198.80006408691406 316.8616943359375 198.59471130371094 317.62603759765625 198.40171813964844 318.3868103027344 C 198.244873046875 319.1204833984375 198.142578125 319.7598571777344 198.0560302734375 320.2769470214844 C 197.9974822998047 320.7346496582031 197.96633911132812 321.1365051269531 197.94813537597656 321.44476318359375 C 197.94277954101562 321.6467590332031 197.94081115722656 321.7129821777344 197.93020629882812 321.63226318359375 C 197.9197540283203 321.4584655761719 197.93292236328125 321.1596374511719 197.98345947265625 320.7025146484375 C 198.0693359375 320.1191101074219 198.19561767578125 319.4591979980469 198.34825134277344 318.7416076660156 C 198.51663208007812 317.9209289550781 198.7015380859375 317.00457763671875 198.94259643554688 316.06805419921875 C 199.239501953125 315.1180725097656 199.5104217529297 314.14276123046875 199.7547607421875 313.3047180175781 C 199.96737670898438 312.75933837890625 200.20509338378906 312.489013671875 200.53988647460938 312.32666015625 C 200.8801727294922 312.31744384765625 201.06112670898438 312.4765319824219 201.0730743408203 312.78057861328125 C 201.1322021484375 312.9469299316406 201.24325561523438 312.82489013671875 201.16444396972656 312.4607849121094 C 200.81117248535156 312.25390625 200.35733032226562 312.218017578125 200.23785400390625 312.0023498535156 C 200.42489624023438 311.59991455078125 200.69810485839844 311.53948974609375 201.44229125976562 312.0940856933594 C 203.06790161132812 313.24224853515625 205.46336364746094 314.5298767089844 209.04852294921875 316.037109375 C 214.01016235351562 318.57537841796875 220.32054138183594 321.11370849609375 228.00137329101562 323.6356506347656 C 236.69984436035156 327.1146545410156 246.38377380371094 330.6957702636719 257.5233459472656 332.25213623046875 C 270.299560546875 331.7029724121094 283.3074035644531 328.79425048828125 295.4906921386719 321.011962890625 C 306.3298034667969 304.96868896484375 324.1247863769531 291.3768310546875 347.12640380859375 281.3273010253906 C 368.9443054199219 271.14105224609375 386.33935546875 267.03228759765625 394.2093505859375 273.0253601074219 C 387.14837646484375 287.1795349121094 374.5360412597656 305.7995300292969 366.2981872558594 326.3279113769531 C 356.6833801269531 339.74560546875 344.6595458984375 343.53265380859375 330.4932861328125 341.3387756347656 C 316.9456787109375 339.25347900390625 305.0041809082031 335.5780334472656 295.9345703125 334.44146728515625 C 288.1699523925781 341.0476989746094 278.35382080078125 348.5497131347656 266.197998046875 353.2529602050781 C 252.79344177246094 356.64892578125 239.74583435058594 359.0949401855469 227.86166381835938 360.4547424316406 C 217.6504364013672 360.582275390625 209.11892700195312 359.9210205078125 202.84693908691406 359.1311950683594 C 199.36080932617188 357.579833984375 198.195556640625 355.5375671386719 198.2736053466797 353.4933776855469 C 198.97500610351562 351.0208435058594 200.50311279296875 348.0885925292969 202.29957580566406 345.64404296875 C 204.1910858154297 343.3978576660156 205.84779357910156 341.2455139160156 207.24110412597656 339.4574890136719 C 208.4919891357422 338.1592102050781 209.4761199951172 337.13287353515625 210.075927734375 336.3758850097656 C 210.34910583496094 336.0414123535156 210.37423706054688 336.0492858886719 210.1875 336.15814208984375 C 209.813232421875 336.5345153808594 209.2799530029297 337.2361755371094 208.60598754882812 338.097412109375 C 207.8094940185547 338.9032897949219 206.98387145996094 339.8111267089844 206.18333435058594 340.916748046875 C 205.298828125 342.0289611816406 204.36647033691406 343.0836181640625 203.4375 344.20037841796875 C 202.51416015625 345.3716125488281 201.58743286132812 346.6669006347656 200.63934326171875 348.06219482421875 C 199.73155212402344 349.4354553222656 199.0189208984375 350.9138488769531 198.46002197265625 352.3823547363281 C 198.29116821289062 353.6517639160156 198.42698669433594 354.8282470703125 198.9429931640625 355.9294128417969 C 199.67236328125 356.7835693359375 200.0087127685547 357.50262451171875 199.74549865722656 357.9298095703125 C 198.8699951171875 358.0195007324219 197.26727294921875 357.7982482910156 195.15826416015625 357.0926208496094 C 192.4930877685547 356.3397216796875 189.14471435546875 355.12066650390625 185.4065704345703 353.91241455078125 C 181.75265502929688 352.6241455078125 177.7344970703125 351.13043212890625 173.74050903320312 349.4132995605469 C 170.75584411621094 347.6716003417969 168.61016845703125 345.1267395019531 167.2833709716797 341.7213439941406 C 166.57447814941406 337.5618591308594 166.42477416992188 332.7062683105469 166.3223876953125 327.69720458984375 C 165.39784240722656 323.02520751953125 163.87625122070312 318.8114929199219 162.73501586914062 314.9344177246094 C 162.57366943359375 311.20806884765625 162.65919494628906 307.83941650390625 161.75633239746094 305.3726501464844 C 159.03797912597656 303.87115478515625 154.73826599121094 302.94158935546875 149.80767822265625 301.2886657714844 C 144.7936248779297 298.6994934082031 139.67127990722656 295.6811828613281 134.70826721191406 291.9170227050781 C 130.49278259277344 287.8474426269531 126.04967498779297 284.33721923828125 137.29168701171875 214.8735809326172" stroke-width="0.0" fill="rgb(237, 35, 68)" opacity="0.99625164" stroke="rgb(105, 35, 191)" stroke-opacity="0.6224693" stroke-linecap="round" stroke-linejoin="round"/>
    <path d="M 99.42544555664062 145.1427001953125 C 101.67897033691406 147.81642150878906 103.58720397949219 150.529541015625 104.89425659179688 153.54507446289062 C 105.71812438964844 156.39187622070312 106.00157928466797 158.99826049804688 105.76007080078125 161.5565185546875 C 104.89482116699219 163.91183471679688 103.75581359863281 166.0270233154297 102.33708953857422 167.94618225097656 C 100.90057373046875 169.73963928222656 99.44451141357422 171.28111267089844 98.02732849121094 172.4705047607422 C 96.80021667480469 173.52194213867188 95.76183319091797 174.2228240966797 95.10413360595703 174.74423217773438 C 94.66822814941406 175.13128662109375 94.46829223632812 175.281494140625 94.57793426513672 175.13958740234375 C 95.04524230957031 174.8185272216797 95.65449523925781 174.3164825439453 96.44916534423828 173.6043243408203 C 97.48026275634766 172.8357391357422 98.66156768798828 171.9120330810547 99.81124114990234 170.80213928222656 C 101.04688262939453 169.5904998779297 102.10900115966797 168.24539184570312 103.18048858642578 166.90679931640625 C 103.98394775390625 165.57730102539062 104.76914978027344 164.29412841796875 105.25657653808594 163.0267333984375 C 105.64297485351562 162.0115203857422 105.93830871582031 161.20323181152344 106.12445831298828 160.60128784179688 C 106.30037689208984 160.37535095214844 106.42362976074219 160.55450439453125 106.47566986083984 161.0478973388672 C 106.60113525390625 161.81436157226562 106.80105590820312 162.84707641601562 106.9930419921875 164.14688110351562 C 107.07735443115234 165.59600830078125 107.16532897949219 167.22747802734375 107.3153076171875 169.07736206054688 C 107.40750122070312 171.17254638671875 107.7253189086914 173.36216735839844 108.47854614257812 175.60748291015625 C 109.42418670654297 178.07525634765625 110.6049575805664 180.74429321289062 112.075927734375 183.49484252929688 C 113.98207092285156 186.20933532714844 116.79339599609375 188.8940887451172 120.21983337402344 191.6315460205078 C 123.93793487548828 194.83856201171875 127.45769500732422 198.90122985839844 130.50152587890625 203.838623046875 C 133.5745086669922 208.91017150878906 136.24288940429688 213.8979949951172 137.54579162597656 218.78627014160156 C 137.29212951660156 223.2493896484375 136.1549530029297 226.53575134277344 134.7733154296875 227.82699584960938 C 133.5007781982422 226.87503051757812 132.42799377441406 223.9979705810547 131.07760620117188 220.0358428955078 C 129.0203399658203 215.72134399414062 126.51032257080078 211.98495483398438 123.25003051757812 208.75511169433594 C 119.76598358154297 206.8707733154297 116.07657623291016 206.1815643310547 112.22373962402344 206.44503784179688 C 108.72486877441406 206.578857421875 106.24400329589844 206.2079620361328 105.06426239013672 205.20184326171875 C 105.47789764404297 203.54833984375 106.969970703125 201.631103515625 108.58356475830078 199.78944396972656 C 109.44384002685547 198.20465087890625 109.40143585205078 196.99618530273438 108.51001739501953 196.35142517089844 C 107.1525650024414 196.4253387451172 105.59081268310547 197.26768493652344 103.56822967529297 198.66522216796875 C 101.26734924316406 199.6600341796875 99.2888412475586 199.4113311767578 98.80956268310547 198.1791534423828 C 100.73725128173828 197.20323181152344 102.98094177246094 196.4906768798828 103.27532196044922 195.7782440185547 C 101.52385711669922 195.17613220214844 98.68028259277344 194.236572265625 96.79691314697266 193.3746337890625 C 95.90811157226562 192.5284423828125 95.25628662109375 191.56480407714844 94.85083770751953 190.47283935546875 C 94.57866668701172 189.80368041992188 94.53788757324219 189.477783203125 94.59486389160156 189.5000762939453 C 94.86511993408203 189.8460693359375 95.22908020019531 190.4307403564453 95.49503326416016 191.1347198486328 C 95.84265899658203 191.89869689941406 96.10755157470703 192.70933532714844 96.17849731445312 193.20794677734375 C 95.83104705810547 193.325927734375 95.18980407714844 193.29006958007812 94.38703918457031 193.2109375 C 93.37908935546875 192.96743774414062 92.19002532958984 192.74049377441406 90.9912109375 192.540771484375 C 89.86515808105469 192.31532287597656 88.86834716796875 192.18093872070312 87.98798370361328 192.1157989501953 C 87.28174591064453 191.99461364746094 86.89993286132812 191.69921875 86.80716705322266 191.3365020751953 C 86.88735961914062 191.05162048339844 86.80731201171875 190.96180725097656 86.7061996459961 190.9892120361328 C 86.56492614746094 191.01622009277344 86.44647216796875 190.85911560058594 86.41360473632812 190.63839721679688 C 86.56649780273438 190.47166442871094 86.7918701171875 190.75033569335938 87.05896759033203 191.1769256591797 C 87.46746063232422 191.2455596923828 87.75091552734375 190.96145629882812 87.7089614868164 190.87974548339844 C 87.13167572021484 191.27210998535156 85.81575775146484 191.56103515625 83.7527847290039 191.60740661621094 C 80.79409790039062 191.5264892578125 77.09818267822266 190.89215087890625 72.25711822509766 191.13265991210938 C 66.14493560791016 191.67776489257812 59.00725173950195 191.97474670410156 51.754024505615234 190.24742126464844 C 44.94207763671875 186.52203369140625 39.098472595214844 183.7087860107422 35.637664794921875 183.44790649414062 C 36.392112731933594 186.51304626464844 38.883514404296875 190.12899780273438 39.86737823486328 193.63555908203125 C 35.72159194946289 195.34048461914062 29.857881546020508 193.35183715820312 23.79652214050293 187.43177795410156 C 18.840469360351562 179.74110412597656 17.884111404418945 169.73696899414062 21.577682495117188 158.14796447753906 C 26.470518112182617 145.55345153808594 30.485397338867188 134.69606018066406 35.125972747802734 129.80276489257812 C 38.90694046020508 133.70713806152344 37.94785690307617 143.42678833007812 35.13644027709961 155.14382934570312 C 33.69708251953125 165.84268188476562 36.28445816040039 173.7575225830078 42.15591049194336 178.90679931640625 C 47.9658317565918 180.94955444335938 50.56938171386719 179.99623107910156 48.737525939941406 175.6027069091797 C 45.00360870361328 169.15464782714844 43.94533157348633 160.94454956054688 44.922698974609375 151.84201049804688 C 46.65185546875 143.73016357421875 48.752647399902344 137.29441833496094 51.95388412475586 133.20431518554688 C 54.912269592285156 130.7991180419922 57.209808349609375 129.85983276367188 58.728275299072266 130.17803955078125 C 59.402374267578125 132.26780700683594 59.84420394897461 134.9729461669922 60.24630355834961 137.3314666748047 C 60.54942321777344 138.7735595703125 60.717742919921875 139.18048095703125 60.586647033691406 138.13987731933594 C 60.02558517456055 135.7783203125 59.13121795654297 132.40646362304688 58.34397888183594 128.03858947753906 C 57.45463180541992 123.2923583984375 56.146915435791016 119.10308837890625 99.42544555664062 145.1427001953125" stroke-width="0.0" fill="rgb(237, 38, 72)" opacity="0.9969208" stroke="rgb(245, 241, 135)" stroke-opacity="0.47498706" stroke-linecap="round" stroke-linejoin="round"/>
  </g>
</svg>
