<?xml version="1.0" ?>
<svg xmlns="http://www.w3.org/2000/svg" version="1.1" width="512" height="512">
  <defs/>
  <g>
    <path d="M 309.10076904296875 165.4967498779297 C 320.5387878417969 166.32144165039062 329.4787902832031 170.6346435546875 335.2301330566406 179.46485900878906 C 340.9676208496094 189.77447509765625 346.0242614746094 200.4796600341797 349.3885803222656 211.0118865966797 C 351.3141174316406 220.1174774169922 351.0235290527344 228.18768310546875 349.1358337402344 235.2317657470703 C 346.8700866699219 241.3411865234375 344.3165588378906 246.23123168945312 341.7539978027344 249.92620849609375 C 339.3539123535156 252.59432983398438 337.1152038574219 254.56309509277344 335.10675048828125 255.9339141845703 C 333.3845520019531 256.826171875 331.9901123046875 257.7786865234375 331.202392578125 258.5379333496094 C 330.7494812011719 259.1752624511719 330.6339111328125 259.7712707519531 330.90234375 260.3217468261719 C 331.47149658203125 260.74969482421875 332.28558349609375 260.96685791015625 333.1670837402344 260.9765319824219 C 334.0883483886719 261.03143310546875 335.0175476074219 260.9825439453125 336.03997802734375 260.890380859375 C 337.0741882324219 260.740478515625 338.04498291015625 260.6059265136719 338.8887023925781 260.42193603515625 C 339.5899963378906 260.28289794921875 340.39105224609375 260.41644287109375 341.0574645996094 260.349853515625 C 341.5501708984375 259.8689270019531 341.9560546875 259.7401428222656 342.7220153808594 259.6903381347656 C 343.6129150390625 259.3719482421875 344.683349609375 258.82403564453125 346.3907165527344 258.16180419921875 C 348.76702880859375 257.048583984375 351.6900634765625 254.78802490234375 354.9640808105469 251.4317626953125 C 358.65179443359375 246.65826416015625 362.8052673339844 240.32952880859375 366.4668884277344 232.41246032714844 C 369.76470947265625 222.577880859375 370.71319580078125 211.07713317871094 368.3722839355469 198.42234802246094 C 362.3679504394531 185.62176513671875 351.45648193359375 173.81875610351562 336.95123291015625 163.34251403808594 C 322.8027648925781 153.9411163330078 315.7301330566406 143.8536376953125 318.7268371582031 135.33615112304688 C 330.641845703125 132.25582885742188 345.80975341796875 135.8555450439453 359.7663269042969 146.27374267578125 C 368.8187255859375 162.40728759765625 375.07281494140625 179.92025756835938 377.0616149902344 196.73355102539062 C 375.2533874511719 211.7581787109375 374.5964660644531 224.50677490234375 377.5279846191406 234.88058471679688 C 380.38153076171875 243.17381286621094 381.3694763183594 250.01663208007812 380.04302978515625 255.24195861816406 C 377.4671936035156 258.665283203125 373.91351318359375 261.0299987792969 369.880126953125 262.78350830078125 C 365.8937683105469 264.3528137207031 362.2513427734375 265.7459411621094 359.1093444824219 267.19561767578125 C 356.3358154296875 267.8887023925781 353.8761901855469 268.6570129394531 351.9467468261719 269.3520812988281 C 350.390869140625 270.05120849609375 349.0153503417969 270.4836730957031 347.9725341796875 270.9493103027344 C 347.07000732421875 271.4845886230469 346.26171875 271.73834228515625 345.6220397949219 271.9535217285156 C 345.2392578125 272.2525634765625 344.8413391113281 272.5705871582031 344.4543151855469 272.7164306640625 C 344.03656005859375 272.7781677246094 343.7431640625 272.9951171875 343.4094543457031 273.2754211425781 C 342.8434143066406 273.48651123046875 342.1843566894531 273.6688537597656 341.5887451171875 273.89251708984375 C 340.94464111328125 274.147705078125 340.27410888671875 274.41058349609375 339.5593566894531 274.7292785644531 C 338.8306579589844 275.1993713378906 338.02777099609375 275.5370788574219 337.28778076171875 276.14794921875 C 336.55511474609375 276.5108947753906 335.7978820800781 276.89532470703125 334.97430419921875 277.1274108886719 C 334.15484619140625 277.398681640625 333.2886962890625 277.62432861328125 332.4803771972656 277.93743896484375 C 331.81927490234375 278.2091369628906 331.27484130859375 278.6268615722656 330.74542236328125 278.9866943359375 C 330.2029724121094 279.1963806152344 329.60809326171875 279.4710388183594 328.9682312011719 279.8471984863281 C 328.37725830078125 280.25286865234375 327.6826171875 280.5646057128906 326.93896484375 280.86859130859375 C 326.1689758300781 281.24884033203125 325.5029602050781 281.66326904296875 324.7460632324219 282.1344909667969 C 323.88311767578125 282.57269287109375 323.024169921875 282.9936218261719 322.1566162109375 283.4232482910156 C 321.249267578125 283.8240966796875 320.3392028808594 284.0838317871094 319.48040771484375 284.246826171875 C 318.70819091796875 284.38671875 318.0917053222656 284.6852722167969 317.63824462890625 284.9345703125 C 317.2738037109375 285.1058654785156 316.94708251953125 285.33477783203125 316.73956298828125 285.5906066894531 C 316.6548767089844 285.76019287109375 316.5504150390625 285.75433349609375 316.3063659667969 285.6764221191406 C 315.84185791015625 285.8263854980469 315.1528015136719 286.0494079589844 314.1830139160156 286.05926513671875 C 312.8114929199219 286.3033752441406 310.9490661621094 287.3213195800781 308.54974365234375 288.3872375488281 C 305.5178527832031 289.09173583984375 301.6336669921875 289.4508056640625 297.1868591308594 289.6947021484375 C 292.3727722167969 289.5444641113281 287.4843444824219 288.745361328125 282.7886047363281 287.40850830078125 C 278.9111633300781 286.1396789550781 277.0549621582031 284.3833312988281 277.3219909667969 282.12640380859375 C 279.5370788574219 279.9903869628906 282.3036804199219 278.1504821777344 283.86810302734375 276.0044250488281 C 282.0831298828125 273.9134216308594 277.272705078125 271.2703857421875 269.99017333984375 266.3030700683594 C 260.39056396484375 258.68890380859375 248.36819458007812 249.9544219970703 235.46875 239.66650390625 C 225.95191955566406 224.92706298828125 221.65435791015625 205.796630859375 222.3340301513672 186.90118408203125 C 230.56182861328125 171.67645263671875 241.90245056152344 164.99171447753906 254.0006561279297 170.47630310058594 C 259.6258544921875 185.07977294921875 256.124267578125 201.98011779785156 247.0344696044922 217.0511474609375 C 241.50474548339844 227.8570556640625 244.94703674316406 236.23211669921875 253.39886474609375 243.38356018066406 C 261.9517822265625 250.28746032714844 270.1714782714844 254.40280151367188 278.32110595703125 255.35423278808594 C 286.1327209472656 254.4550018310547 293.39630126953125 253.10733032226562 299.9981689453125 252.17236328125 C 305.74945068359375 251.79393005371094 311.1549987792969 252.19105529785156 316.5351257324219 253.35873413085938 C 321.9606628417969 254.46893310546875 327.4104309082031 253.8397674560547 333.1108093261719 249.8248291015625 C 339.7434997558594 243.26034545898438 347.6896057128906 235.0282745361328 309.10076904296875 165.4967498779297" stroke-width="0.0" fill="rgb(235, 32, 66)" opacity="0.9995726" stroke="rgb(39, 223, 127)" stroke-opacity="0.29838789" stroke-linecap="round" stroke-linejoin="round"/>
  </g>
</svg>
