<?xml version="1.0" ?>
<svg xmlns="http://www.w3.org/2000/svg" version="1.1" width="474" height="596">
  <defs/>
  <g>
    <path d="M 268.58636474609375 -2.422114610671997 C 269.864501953125 -1.510425329208374 270.2110290527344 -2.4392776489257812 271.0122375488281 -2.876014471054077 C 272.00518798828125 -3.390779495239258 272.6602783203125 -3.709195137023926 272.9410400390625 -3.9878852367401123 C 272.87530517578125 -4.218631744384766 273.11175537109375 -4.519661903381348 273.076171875 -4.53724479675293 C 272.7195129394531 -4.3864359855651855 273.42431640625 -4.216796875 273.72857666015625 -4.48723030090332 C 275.10577392578125 -3.3443524837493896 276.9297180175781 -0.9282433986663818 286.8869323730469 -4.287196159362793 C 282.69818115234375 1.8696953058242798 288.3969421386719 1.358086347579956 295.6510314941406 3.4960529804229736 C 303.1510314941406 5.72356653213501 312.4916076660156 7.977544784545898 320.3541259765625 11.68412971496582 C 328.3193664550781 15.15215015411377 336.0965881347656 19.423851013183594 344.1617126464844 24.045787811279297 C 352.3020324707031 28.762887954711914 360.3338623046875 34.39316177368164 368.3313903808594 40.91714096069336 C 376.7958068847656 47.728294372558594 384.7994384765625 55.5216178894043 392.4375305175781 63.54241943359375 C 399.5032653808594 71.25466918945312 405.8650207519531 79.38489532470703 411.9450988769531 87.36420440673828 C 417.33599853515625 95.99894714355469 423.76837158203125 104.21405792236328 428.50970458984375 113.78047943115234 C 433.1083679199219 120.4200668334961 435.35040283203125 129.23919677734375 432.0967102050781 135.6378631591797 C 428.59271240234375 144.59326171875 422.34942626953125 152.50607299804688 415.83966064453125 161.01327514648438 C 409.33984375 169.32687377929688 401.1291198730469 177.2934112548828 393.2755126953125 184.43466186523438 C 384.81561279296875 191.55531311035156 377.2146301269531 197.54312133789062 369.0129089355469 203.42233276367188 C 360.9618225097656 209.0671844482422 351.44451904296875 214.83204650878906 342.6631774902344 219.25381469726562 C 332.39703369140625 222.9935760498047 320.5042724609375 225.48919677734375 305.878173828125 228.95179748535156 C 312.1359558105469 220.35926818847656 319.6693115234375 216.090576171875 326.83221435546875 208.61390686035156 C 334.8872375488281 200.95494079589844 342.9915466308594 193.26341247558594 350.1864013671875 185.66854858398438 C 355.8965148925781 178.14193725585938 360.30615234375 170.34103393554688 363.6029052734375 162.25013732910156 C 366.11358642578125 153.70458984375 367.5268859863281 145.45693969726562 367.8406066894531 138.15159606933594 C 367.08221435546875 131.7855987548828 365.1488037109375 126.14754486083984 361.50140380859375 121.074951171875 C 355.4142761230469 118.26823425292969 345.7000427246094 120.30258178710938 343.3638916015625 113.3219985961914 C 339.17437744140625 106.27336883544922 331.3688659667969 101.93394470214844 322.0985412597656 100.64667510986328 C 314.2359619140625 99.88236236572266 305.5513916015625 102.59574890136719 301.55657958984375 107.07929229736328 C 292.41131591796875 106.28534698486328 284.2746887207031 106.89405822753906 277.6307678222656 109.7022476196289 C 272.7156677246094 111.82291412353516 265.4876403808594 112.03792572021484 259.3197937011719 109.54796600341797 C 255.276123046875 108.94605255126953 251.02027893066406 108.68132019042969 248.9188232421875 110.10758972167969 C 247.5764617919922 114.70240020751953 244.79653930664062 118.0106430053711 239.25802612304688 119.67639923095703 C 231.61204528808594 120.48202514648438 224.95477294921875 123.65599822998047 218.38169860839844 126.8576889038086 C 211.1614227294922 129.3721923828125 203.22425842285156 131.38754272460938 194.9110565185547 132.98953247070312 C 187.14013671875 134.53146362304688 180.41358947753906 135.71395874023438 174.23135375976562 136.43125915527344 C 167.74696350097656 136.29685974121094 162.72622680664062 138.81336975097656 158.99368286132812 143.2696075439453 C 155.58416748046875 147.20191955566406 151.41787719726562 150.2865753173828 149.455810546875 155.63275146484375 C 148.5764923095703 162.45181274414062 148.2461700439453 169.86451721191406 148.6422576904297 177.90260314941406 C 149.93540954589844 186.24557495117188 152.6848907470703 194.929931640625 156.9170684814453 203.7513885498047 C 162.5589599609375 212.3037567138672 169.64366149902344 220.0991973876953 177.98460388183594 226.39971923828125 C 186.7434844970703 231.32720947265625 195.2067108154297 235.1876220703125 203.16221618652344 237.95858764648438 C 210.61767578125 239.543212890625 215.975830078125 238.0315399169922 232.89340209960938 245.81378173828125 C 210.19320678710938 248.25341796875 202.71588134765625 242.69815063476562 189.42478942871094 238.8817901611328 C 183.79002380371094 241.3867950439453 175.592529296875 243.43527221679688 171.3363037109375 240.2825927734375 C 161.80450439453125 240.85293579101562 146.40032958984375 240.8455047607422 140.2855987548828 239.7742462158203 C 131.36724853515625 239.0781707763672 120.02879333496094 236.46322631835938 112.71257019042969 234.36769104003906 C 105.89144134521484 232.42601013183594 97.13593292236328 229.88729858398438 89.76223754882812 227.06222534179688 C 80.32960510253906 223.6235809326172 71.71866607666016 219.310791015625 64.36703491210938 214.76504516601562 C 56.991756439208984 210.7263641357422 54.76171875 206.71499633789062 53.54983901977539 200.01780700683594 C 52.97791290283203 189.02757263183594 54.88802719116211 180.1101531982422 57.031517028808594 168.63465881347656 C 58.051658630371094 161.1717987060547 60.37203598022461 152.52281188964844 62.613372802734375 144.48500061035156 C 64.5442123413086 136.93890380859375 67.71784210205078 129.41322326660156 71.21363067626953 121.805419921875 C 74.3102035522461 113.65949249267578 78.9019775390625 105.12760925292969 83.39627838134766 96.95030212402344 C 87.99778747558594 88.78600311279297 94.00969696044922 81.03959655761719 100.39585876464844 73.27813720703125 C 107.0960464477539 65.26168060302734 114.45608520507812 56.86634063720703 123.04730224609375 49.98210144042969 C 131.0380401611328 43.11225128173828 139.39480590820312 36.38443374633789 147.38796997070312 31.037715911865234 C 155.41403198242188 25.752002716064453 161.42108154296875 24.39145851135254 172.0952606201172 23.769258499145508 C 176.2600555419922 23.162351608276367 191.489013671875 24.420629501342773 199.52503967285156 27.10577392578125 C 210.39306640625 29.61132049560547 214.31776428222656 34.38899612426758 213.13804626464844 24.434999465942383 C 215.84573364257812 31.755430221557617 222.07565307617188 29.026216506958008 226.4685821533203 26.9544734954834 C 233.2126922607422 19.767763137817383 240.5958709716797 11.687382698059082 250.0909423828125 6.936461448669434 C 258.4966125488281 2.154219627380371 270.7089538574219 0.41798877716064453 268.58636474609375 -2.422114610671997" stroke-width="0.0" fill="rgb(66, 38, 30)" opacity="0.9999881" stroke="rgb(3, 208, 177)" stroke-opacity="0.97436064" stroke-linecap="round" stroke-linejoin="round"/>
    <path d="M 315.474853515625 226.69276428222656 C 313.3537902832031 227.3341827392578 302.8964538574219 233.92530822753906 294.3812255859375 235.7520294189453 C 291.38232421875 239.74118041992188 290.59210205078125 250.81236267089844 292.2707214355469 256.3348083496094 C 277.2933654785156 256.879150390625 276.6534729003906 256.11163330078125 264.785400390625 253.97869873046875 C 251.89389038085938 251.2652130126953 247.1194610595703 248.35147094726562 244.40451049804688 250.35108947753906 C 256.7098388671875 249.0529022216797 265.1378173828125 257.65374755859375 283.2864074707031 255.14588928222656 C 294.60076904296875 250.7977752685547 290.4485778808594 266.4670104980469 298.504150390625 277.8904724121094 C 306.93865966796875 288.1086120605469 310.5673828125 300.4700012207031 313.0705261230469 308.6347351074219 C 313.568359375 309.41552734375 313.9629821777344 310.2173767089844 313.9601745605469 309.443359375 C 311.50250244140625 300.7428894042969 307.5428161621094 286.9407958984375 297.8422546386719 277.04986572265625 C 291.1556396484375 262.3266906738281 289.1045227050781 253.51829528808594 292.9963073730469 239.5567626953125 C 305.9853820800781 240.97177124023438 323.2282409667969 243.28836059570312 345.1811828613281 252.24900817871094 C 363.1407165527344 260.3094177246094 380.59033203125 275.86370849609375 398.1802978515625 283.25457763671875 C 411.6724548339844 292.6480407714844 415.01348876953125 297.3916931152344 412.9718017578125 295.4139709472656 C 395.82611083984375 296.6860046386719 391.4764709472656 292.48101806640625 392.1776123046875 294.17547607421875 C 400.3214111328125 301.31048583984375 413.77490234375 293.3677673339844 436.73980712890625 286.45477294921875 C 465.8800964355469 323.81842041015625 472.68597412109375 336.1722412109375 435.8965759277344 347.0164794921875 C 432.3371276855469 349.5312194824219 409.54595947265625 343.7227478027344 399.9924011230469 329.82769775390625 C 366.1267395019531 329.9818115234375 351.6124267578125 319.8097839355469 324.5362548828125 320.6063537597656 C 325.3232727050781 340.32330322265625 320.4848327636719 337.5166931152344 324.4632568359375 378.8592529296875 C 310.818603515625 388.8252258300781 308.2513732910156 419.75714111328125 301.18634033203125 443.406494140625 C 292.7033386230469 462.381591796875 289.0070495605469 480.93426513671875 287.6227722167969 502.7525329589844 C 294.314208984375 511.9494934082031 298.6731872558594 519.8284301757812 288.5508117675781 525.90673828125 C 270.8384094238281 530.2818603515625 255.87112426757812 529.2058715820312 240.21414184570312 527.7526245117188 C 239.6275634765625 543.4639282226562 235.44667053222656 566.85546875 242.80645751953125 565.3648681640625 C 252.17982482910156 571.3896484375 293.7118835449219 571.8256225585938 326.9396057128906 571.411865234375 C 342.0350341796875 566.9930419921875 344.1693115234375 561.1771850585938 342.3922119140625 574.500732421875 C 329.7524108886719 583.7455444335938 313.2182312011719 585.648193359375 285.58990478515625 584.4013061523438 C 258.4195861816406 582.3296508789062 236.93045043945312 582.3067016601562 234.388916015625 570.2219848632812 C 231.23931884765625 562.4447021484375 234.92234802246094 519.947265625 241.04690551757812 500.8936462402344 C 244.8751678466797 473.2864685058594 241.6170654296875 460.2943115234375 228.37306213378906 453.77630615234375 C 227.28359985351562 465.90582275390625 215.8523406982422 473.32244873046875 213.48318481445312 491.15093994140625 C 214.0624237060547 499.6311950683594 208.6837158203125 495.10498046875 204.18878173828125 492.87158203125 C 205.86770629882812 493.532470703125 210.14012145996094 494.0233459472656 212.96742248535156 496.8790283203125 C 209.1478729248047 507.8566589355469 213.97650146484375 530.1688842773438 215.85595703125 552.9561157226562 C 218.60879516601562 570.781982421875 216.2563934326172 579.0790405273438 201.3203887939453 584.7692260742188 C 179.1149139404297 588.6513061523438 161.1287384033203 599.0435791015625 140.91104125976562 596.1751098632812 C 120.97220611572266 593.2837524414062 115.67647552490234 591.4033813476562 117.95162200927734 578.1840209960938 C 142.30093383789062 582.7852172851562 164.36856079101562 581.4696044921875 188.06349182128906 579.1795654296875 C 205.96734619140625 577.5167236328125 216.63107299804688 573.2091674804688 213.04913330078125 561.9563598632812 C 211.4808349609375 543.6264038085938 212.36024475097656 531.2041015625 206.4789276123047 529.2913208007812 C 192.3111572265625 531.2855224609375 173.8289031982422 532.1515502929688 159.40823364257812 532.2212524414062 C 157.9462432861328 521.9730834960938 164.19754028320312 512.3338623046875 166.42445373535156 490.122802734375 C 166.5785369873047 471.132568359375 158.63279724121094 446.6408386230469 162.1070098876953 408.2500915527344 C 155.14691162109375 392.724609375 132.58775329589844 404.6624450683594 119.42079162597656 385.3267822265625 C 108.62007904052734 366.6703796386719 119.7450942993164 343.9208068847656 110.09527587890625 345.9858093261719 C 81.28755950927734 361.66705322265625 57.581573486328125 364.6193542480469 41.1767463684082 356.5791320800781 C 43.15872573852539 338.50506591796875 56.91458511352539 319.1317443847656 73.72352600097656 302.9034729003906 C 83.41984558105469 293.0498046875 93.10743713378906 289.0452880859375 90.49647521972656 287.1423034667969 C 90.32305145263672 283.3063049316406 89.01074981689453 284.84405517578125 92.28544616699219 279.34490966796875 C 99.020751953125 273.3763122558594 115.00273132324219 261.4344177246094 133.19923400878906 252.67990112304688 C 154.0059051513672 243.08189392089844 167.82769775390625 238.3629913330078 190.8623809814453 239.41925048828125 C 179.24551391601562 240.91903686523438 176.8804168701172 268.1440734863281 167.19766235351562 290.3170166015625 C 162.575927734375 310.2711181640625 159.74502563476562 330.09014892578125 159.2989501953125 346.8872985839844 C 159.9921417236328 358.5106201171875 161.5825653076172 365.17974853515625 161.3979949951172 365.7621765136719 C 161.7481231689453 362.9090270996094 158.60745239257812 356.918212890625 160.2638397216797 347.1069030761719 C 160.06552124023438 334.2528076171875 162.19813537597656 318.5055236816406 165.1761474609375 302.1606750488281 C 167.3876953125 288.4184875488281 172.7836456298828 272.6408386230469 178.37913513183594 255.6307373046875 C 184.1239776611328 234.1066436767578 188.01353454589844 240.6145782470703 209.0559539794922 244.14491271972656 C 229.9225616455078 248.99606323242188 242.1554412841797 244.06283569335938 257.2626953125 232.863525390625 C 274.93927001953125 227.12901306152344 290.74603271484375 234.18087768554688 315.474853515625 226.69276428222656" stroke-width="0.0" fill="rgb(230, 107, 161)" opacity="0.99976766" stroke="rgb(140, 47, 85)" stroke-opacity="0.24739273" stroke-linecap="round" stroke-linejoin="round"/>
    <path d="M 331.9631652832031 95.28296661376953 C 335.6175231933594 95.01219940185547 343.9613342285156 93.16036987304688 343.30792236328125 93.81350708007812 C 344.6588439941406 92.26903533935547 348.38623046875 96.85545349121094 350.18621826171875 99.1699447631836 C 354.601806640625 96.19596099853516 350.2640686035156 96.63323974609375 345.9908142089844 98.04693603515625 C 353.17718505859375 95.85807800292969 352.9357604980469 97.47177124023438 351.7618713378906 97.11656951904297 C 348.6636047363281 99.06804656982422 351.1669921875 100.47328186035156 350.18890380859375 98.55331420898438 C 353.65777587890625 101.75666046142578 357.525146484375 106.03181457519531 357.4188232421875 105.16214752197266 C 355.5463562011719 106.73445129394531 361.5950012207031 107.73069763183594 356.7884826660156 105.1371078491211 C 357.35906982421875 105.8788070678711 359.60931396484375 108.89398193359375 361.20416259765625 110.64358520507812 C 362.6417541503906 111.57959747314453 365.6993713378906 118.78583526611328 366.94061279296875 123.07759094238281 C 368.2091064453125 125.92962646484375 370.1817626953125 134.59414672851562 370.5148620605469 137.6619415283203 C 370.2088928222656 137.70912170410156 371.2502136230469 142.2090301513672 370.841796875 144.29612731933594 C 371.49334716796875 152.86383056640625 369.176025390625 160.4385223388672 368.498046875 164.48876953125 C 366.9567565917969 167.3439178466797 364.7801208496094 175.5886993408203 361.6409606933594 179.65057373046875 C 360.87982177734375 181.38475036621094 358.2338562011719 185.6274871826172 355.1121826171875 189.83164978027344 C 351.28143310546875 193.61029052734375 348.23345947265625 198.78085327148438 345.64630126953125 201.04759216308594 C 341.6102600097656 205.345703125 337.0506591796875 209.07557678222656 332.9996337890625 212.0824432373047 C 330.172607421875 214.1087646484375 325.0489807128906 217.4234161376953 319.2417297363281 221.0297088623047 C 312.7059020996094 224.84120178222656 310.5613098144531 225.6796875 317.43560791015625 223.22027587890625 C 310.6874084472656 225.20175170898438 302.3087463378906 230.54579162597656 300.91357421875 229.82778930664062 C 298.1493225097656 232.34510803222656 290.11572265625 234.46649169921875 283.6498107910156 237.1963348388672 C 283.37109375 239.05264282226562 278.4590759277344 240.4439239501953 274.7769775390625 241.05081176757812 C 270.12567138671875 242.58493041992188 265.5487976074219 242.07907104492188 260.3285217285156 241.2134552001953 C 254.4044647216797 242.75807189941406 249.36988830566406 242.4030303955078 245.4905548095703 243.89227294921875 C 242.46290588378906 243.11676025390625 235.82374572753906 243.5012664794922 230.29833984375 246.45870971679688 C 227.500732421875 244.8597412109375 220.5233612060547 245.69935607910156 228.94631958007812 244.53831481933594 C 216.04501342773438 243.0203857421875 208.1732635498047 241.3787384033203 202.30697631835938 239.49412536621094 C 198.37428283691406 238.48985290527344 193.69308471679688 237.06033325195312 190.65821838378906 235.40530395507812 C 185.96925354003906 232.7828369140625 181.65382385253906 230.181884765625 179.42083740234375 229.33804321289062 C 176.50177001953125 227.32638549804688 171.1627960205078 224.5260009765625 167.95562744140625 221.59486389160156 C 164.12461853027344 218.6537628173828 160.000244140625 214.03892517089844 157.86094665527344 210.90589904785156 C 154.12847900390625 208.4608612060547 151.25181579589844 202.88490295410156 149.00035095214844 198.12826538085938 C 146.50718688964844 193.61752319335938 144.9183807373047 188.23751831054688 144.167236328125 183.80213928222656 C 143.49168395996094 180.19451904296875 142.10015869140625 170.38526916503906 142.73385620117188 172.3487091064453 C 143.00946044921875 162.72581481933594 144.79580688476562 158.48509216308594 147.4124298095703 151.7837677001953 C 147.60446166992188 149.12864685058594 156.1784210205078 147.581298828125 156.109130859375 144.84129333496094 C 158.4150390625 141.0987548828125 157.01548767089844 130.92800903320312 157.95205688476562 123.65935516357422 C 159.82028198242188 129.26858520507812 162.58436584472656 129.93836975097656 164.9963836669922 135.25367736816406 C 169.06655883789062 137.4864501953125 167.67982482910156 138.48233032226562 175.98805236816406 135.23153686523438 C 181.86398315429688 133.2537078857422 188.96263122558594 130.680908203125 187.62451171875 128.6506805419922 C 192.9501953125 129.4942626953125 200.3145751953125 125.19254302978516 206.02830505371094 123.94349670410156 C 206.36859130859375 123.94503021240234 211.57870483398438 122.39335632324219 215.9910888671875 120.45803833007812 C 218.74998474121094 120.52862548828125 221.83128356933594 118.75990295410156 229.50802612304688 117.26153564453125 C 238.8625030517578 115.34314727783203 245.01901245117188 114.88442993164062 245.32533264160156 113.44065856933594 C 246.07077026367188 113.50312805175781 246.54896545410156 108.09115600585938 243.2732696533203 104.52388763427734 C 240.79649353027344 95.77425384521484 236.98594665527344 94.73759460449219 242.0478973388672 93.09146118164062 C 246.4503936767578 96.25923156738281 249.5591278076172 99.03996276855469 253.3153533935547 102.42411804199219 C 256.0727844238281 104.94189453125 261.02740478515625 111.77012634277344 260.341796875 108.52276611328125 C 262.8942565917969 109.19231414794922 266.6476135253906 108.39732360839844 273.6794128417969 107.18818664550781 C 280.5411376953125 105.43126678466797 287.9969482421875 103.6148452758789 294.0523376464844 102.5448226928711 C 297.1048889160156 101.91410064697266 302.88482666015625 100.76966857910156 312.10552978515625 99.0023422241211 C 301.514404296875 103.37673950195312 297.43133544921875 106.99372863769531 304.2011413574219 104.70921325683594 C 316.183837890625 104.14329528808594 314.18023681640625 103.91776275634766 321.087646484375 105.687255859375 C 326.2979431152344 109.98873901367188 328.897216796875 111.00568389892578 330.7789306640625 119.52967834472656 C 330.9880065917969 124.90000915527344 329.8572692871094 125.04058837890625 329.6087646484375 129.64321899414062 C 328.0247802734375 133.5212860107422 325.7674560546875 132.4867706298828 331.620361328125 132.635009765625 C 335.7423095703125 130.27781677246094 340.4394836425781 127.67908477783203 345.31634521484375 125.81228637695312 C 344.7708740234375 127.83023071289062 346.74627685546875 117.88251495361328 344.2674865722656 116.14610290527344 C 349.1598815917969 116.90545654296875 343.18621826171875 108.92311096191406 340.72406005859375 107.17078399658203 C 336.2875671386719 102.76570129394531 328.5173645019531 99.21073913574219 321.37646484375 98.91748046875 C 305.38299560546875 97.74132537841797 306.57061767578125 99.97314453125 331.9631652832031 95.28296661376953" stroke-width="0.0" fill="rgb(249, 187, 105)" opacity="1.0" stroke="rgb(218, 170, 8)" stroke-opacity="0.27622667" stroke-linecap="round" stroke-linejoin="round"/>
    <path d="M 186.97906494140625 379.6000061035156 C 177.5194549560547 376.36578369140625 172.6287841796875 380.02545166015625 177.66717529296875 379.3224792480469 C 176.8771209716797 381.24505615234375 176.40850830078125 381.7253112792969 176.4967498779297 381.9432067871094 C 177.5408172607422 381.9006652832031 178.69046020507812 381.91326904296875 178.08160400390625 380.06634521484375 C 176.3656005859375 379.2644348144531 182.21292114257812 381.04278564453125 182.4841766357422 376.6983337402344 C 176.8910369873047 380.9046630859375 184.9375762939453 381.4671325683594 192.55702209472656 377.40264892578125 C 184.25833129882812 379.5821838378906 182.590087890625 380.58245849609375 191.34828186035156 380.47479248046875 C 190.25198364257812 380.98193359375 192.2003173828125 379.8804931640625 193.0348358154297 382.37481689453125 C 193.99879455566406 379.1535339355469 197.48367309570312 380.93115234375 201.50088500976562 382.1222229003906 C 202.09764099121094 384.0611572265625 205.20657348632812 382.5599670410156 211.24188232421875 381.5698547363281 C 207.15203857421875 385.2340393066406 207.47830200195312 389.0048828125 207.10382080078125 390.1033020019531 C 205.7442169189453 393.89556884765625 204.2008819580078 395.8397521972656 201.60353088378906 397.9627380371094 C 202.31033325195312 397.40716552734375 203.5413055419922 395.6286926269531 203.75357055664062 395.4125061035156 C 203.08953857421875 396.63507080078125 201.68199157714844 397.4540710449219 202.70790100097656 396.94671630859375 C 201.89938354492188 396.82635498046875 204.4529266357422 396.5895690917969 207.03334045410156 389.981201171875 C 208.6792449951172 382.13836669921875 209.49085998535156 382.4791259765625 216.0847625732422 377.68267822265625 C 223.68875122070312 386.1896667480469 227.48281860351562 381.6517028808594 231.6512451171875 382.3148498535156 C 235.80709838867188 384.4549865722656 239.65045166015625 381.9023132324219 249.70458984375 382.06182861328125 C 248.08033752441406 387.07977294921875 250.23304748535156 387.4651184082031 253.56414794921875 380.6658630371094 C 257.9803161621094 383.0859680175781 261.4837951660156 384.0981140136719 265.3874816894531 379.5422668457031 C 268.8103942871094 379.1008605957031 271.8463439941406 384.5513916015625 273.0197448730469 377.1775817871094 C 276.52825927734375 380.5426330566406 282.66864013671875 384.2087707519531 280.89056396484375 379.4566345214844 C 294.83624267578125 380.3261413574219 304.874267578125 372.2337951660156 312.6962585449219 380.30914306640625 C 317.4804382324219 380.3692932128906 315.3188781738281 386.1492919921875 315.8332214355469 394.8424072265625 C 314.89434814453125 397.0838928222656 313.8798828125 408.5989074707031 311.0265197753906 420.2185363769531 C 309.3855285644531 429.2271423339844 305.7944030761719 439.06463623046875 303.32965087890625 447.87213134765625 C 302.0387878417969 452.5811462402344 301.76641845703125 461.15423583984375 299.15643310546875 469.5736999511719 C 291.7183532714844 476.0089416503906 283.64892578125 475.4683837890625 289.3747863769531 473.3999328613281 C 290.70953369140625 465.9027099609375 289.9819641113281 473.13665771484375 288.9273681640625 472.72760009765625 C 296.0547790527344 466.5256042480469 293.01495361328125 469.51593017578125 288.8348388671875 472.8936767578125 C 282.143798828125 471.8984375 276.1766052246094 473.3631896972656 259.2414245605469 471.83990478515625 C 256.653076171875 475.85736083984375 250.98011779785156 475.7506408691406 251.09934997558594 476.51678466796875 C 242.32566833496094 503.2329406738281 242.19508361816406 481.2513427734375 244.19281005859375 465.748779296875 C 246.1536102294922 459.388916015625 244.75364685058594 450.99066162109375 245.09033203125 452.2894592285156 C 247.85781860351562 453.4291687011719 248.6717529296875 450.6346740722656 248.34327697753906 451.7864990234375 C 249.11026000976562 452.09912109375 245.942138671875 452.3154296875 244.76280212402344 454.39569091796875 C 243.3387451171875 447.2803955078125 239.86614990234375 445.6832580566406 239.42811584472656 441.83221435546875 C 238.2266845703125 437.3323974609375 235.8612823486328 437.8909606933594 236.58218383789062 437.9959411621094 C 235.71539306640625 437.9052734375 235.48553466796875 438.5190734863281 235.65481567382812 436.0342102050781 C 235.3919677734375 437.142333984375 235.42076110839844 436.1410827636719 237.45147705078125 438.0228271484375 C 235.18576049804688 438.6086730957031 236.14382934570312 438.76025390625 235.40553283691406 435.63177490234375 C 234.18800354003906 440.4345703125 235.10507202148438 436.7381591796875 235.12962341308594 436.36236572265625 C 235.15798950195312 437.5454406738281 238.11703491210938 436.1262512207031 239.5609893798828 442.5724182128906 C 240.3423614501953 447.4020080566406 248.9408721923828 451.12384033203125 243.44126892089844 468.20037841796875 C 225.53578186035156 472.8909606933594 239.58013916015625 448.23712158203125 228.29286193847656 455.1358337402344 C 226.87173461914062 468.5251770019531 228.60360717773438 476.3982238769531 218.7346649169922 474.42413330078125 C 213.01287841796875 474.052490234375 214.43360900878906 495.73956298828125 209.58395385742188 505.428955078125 C 205.0822296142578 473.39678955078125 204.17372131347656 474.7421875 205.34310913085938 474.0575256347656 C 203.4769744873047 479.808837890625 197.9486083984375 475.4260559082031 185.53482055664062 483.7779235839844 C 180.4885711669922 475.562255859375 179.0780792236328 472.153076171875 180.58543395996094 468.896484375 C 181.0082550048828 468.68218994140625 178.85923767089844 469.5191345214844 181.07696533203125 476.4104919433594 C 184.7799072265625 470.8702392578125 184.5068359375 474.94598388671875 175.02452087402344 477.73272705078125 C 171.7771453857422 475.9371337890625 163.2584686279297 479.1927795410156 166.7994384765625 473.96441650390625 C 157.94357299804688 469.8422546386719 159.18153381347656 471.7274169921875 157.33250427246094 464.2737121582031 C 158.01124572753906 463.2265625 156.62501525878906 453.90093994140625 156.02720642089844 445.5022888183594 C 154.8184814453125 441.6620178222656 156.09169006347656 430.59881591796875 154.65005493164062 435.7845458984375 C 154.33731079101562 425.2914733886719 152.88699340820312 422.4766540527344 153.16473388671875 410.7962646484375 C 153.72268676757812 414.7062072753906 151.94667053222656 413.4319763183594 152.54440307617188 397.7706604003906 C 152.64968872070312 398.6693420410156 153.16197204589844 397.2594299316406 154.861328125 394.86224365234375 C 155.3158416748047 390.7361755371094 155.07965087890625 384.9580993652344 156.8483428955078 383.15374755859375 C 162.9545135498047 382.01898193359375 164.66937255859375 378.12646484375 186.97906494140625 379.6000061035156" stroke-width="0.0" fill="rgb(252, 76, 2)" opacity="1.0" stroke="rgb(69, 250, 196)" stroke-opacity="0.5656443" stroke-linecap="round" stroke-linejoin="round"/>
    <path d="M 287.94671630859375 14.875401496887207 C 289.31103515625 14.061838150024414 290.4765625 13.621990203857422 291.65972900390625 13.382783889770508 C 292.84844970703125 13.266242027282715 294.0604553222656 13.2859468460083 295.2676696777344 13.435450553894043 C 296.0523376464844 15.09367561340332 297.89215087890625 16.367847442626953 300.22918701171875 17.865707397460938 C 301.5232238769531 20.49030113220215 304.0986022949219 23.15083122253418 304.2013244628906 27.20195960998535 C 305.39788818359375 31.456138610839844 308.2706604003906 34.100311279296875 313.2930603027344 36.6098747253418 C 315.2074890136719 41.74457931518555 317.5772399902344 46.113834381103516 320.06939697265625 50.267364501953125 C 320.6512451171875 54.53147888183594 323.9435729980469 57.77832794189453 325.859130859375 61.35895538330078 C 328.01104736328125 64.13491821289062 329.9642639160156 65.68121337890625 331.5384216308594 68.61149597167969 C 331.7087707519531 70.98591613769531 331.4862976074219 72.96650695800781 330.9314880371094 75.48426055908203 C 328.5203857421875 76.61141967773438 326.3202819824219 78.25365447998047 324.5970153808594 80.85344696044922 C 322.52264404296875 81.7621841430664 317.2181701660156 83.96429443359375 312.9901123046875 84.69746398925781 C 309.2304382324219 86.34756469726562 305.69287109375 88.59263610839844 302.7613830566406 91.64685821533203 C 298.8459167480469 92.97746276855469 294.9867858886719 94.42100524902344 291.1837463378906 95.92524719238281 C 287.0299072265625 95.77439880371094 282.858154296875 95.79548645019531 278.1834716796875 96.08477783203125 C 273.29022216796875 94.78922271728516 268.7061767578125 93.42412567138672 262.1179504394531 93.29239654541016 C 259.1703796386719 86.91976928710938 254.93324279785156 82.4761734008789 249.5850067138672 84.94497680664062 C 244.95057678222656 82.94933319091797 240.9281768798828 81.60041046142578 237.65371704101562 82.62852478027344 C 234.3289031982422 82.67803192138672 231.35687255859375 83.3283920288086 228.17752075195312 84.08598327636719 C 227.2559356689453 87.28703308105469 226.81158447265625 90.71094512939453 223.551513671875 93.89285278320312 C 223.96652221679688 97.4412841796875 223.33413696289062 101.05585479736328 222.95726013183594 104.80994415283203 C 220.39476013183594 107.76412200927734 217.98959350585938 109.85042572021484 215.12307739257812 112.27687072753906 C 210.9553680419922 112.62764739990234 206.67333984375 112.91393280029297 201.82510375976562 111.87068939208984 C 196.56773376464844 112.69613647460938 191.0969696044922 112.57565307617188 185.26499938964844 112.75192260742188 C 179.71139526367188 111.56114959716797 174.37374877929688 111.25238037109375 169.26536560058594 111.6715087890625 C 164.40628051757812 111.21863555908203 160.1094512939453 111.91242980957031 156.80433654785156 113.64598846435547 C 152.7351837158203 113.99359893798828 149.67730712890625 115.82320404052734 146.6769561767578 117.86660766601562 C 144.3670196533203 120.20470428466797 143.0799560546875 123.80127716064453 142.2476806640625 129.858642578125 C 139.84048461914062 131.2136993408203 138.2906494140625 134.92617797851562 138.8590087890625 138.80555725097656 C 133.75521850585938 142.0768280029297 132.47418212890625 146.0803680419922 132.29727172851562 150.47874450683594 C 128.6845703125 153.86326599121094 129.04380798339844 158.58575439453125 131.26632690429688 163.5366973876953 C 130.3657989501953 168.25584411621094 129.03504943847656 172.57177734375 128.30966186523438 177.2827606201172 C 125.53907775878906 181.70956420898438 123.25460052490234 184.5089111328125 121.30528259277344 188.09677124023438 C 115.92068481445312 190.11007690429688 111.34840393066406 192.1222381591797 106.29624938964844 192.71194458007812 C 100.27424621582031 191.2050018310547 94.62098693847656 191.4795379638672 88.47374725341797 191.4775390625 C 82.89559936523438 192.38436889648438 77.65834045410156 190.9636688232422 71.62614440917969 189.53369140625 C 69.2903060913086 185.59393310546875 66.61430358886719 182.64254760742188 64.46537780761719 179.25987243652344 C 64.43190002441406 175.1420135498047 64.36397552490234 171.1651153564453 64.35049438476562 166.52243041992188 C 66.43641662597656 162.718994140625 68.08251190185547 157.8603515625 69.73046875 153.0400848388672 C 73.25494384765625 149.08226013183594 76.09178924560547 145.5895233154297 78.3134994506836 141.80726623535156 C 78.72538757324219 136.05770874023438 79.6371078491211 132.0530548095703 81.22569274902344 127.28300476074219 C 84.0089111328125 123.72132873535156 85.57562255859375 119.911865234375 85.2531509399414 115.46881866455078 C 90.58373260498047 113.17587280273438 92.69097900390625 109.87135314941406 94.65953826904297 106.70088958740234 C 97.33883666992188 103.7546157836914 99.32427978515625 100.14443969726562 101.52777099609375 97.4533920288086 C 105.76829528808594 95.56777954101562 107.58492279052734 92.26508331298828 109.74063873291016 87.81136322021484 C 112.7893295288086 85.17374420166016 115.41854095458984 82.58580780029297 119.1431655883789 80.16616821289062 C 122.2536849975586 76.8096923828125 126.02557373046875 73.82396697998047 129.0628662109375 69.787841796875 C 132.48654174804688 66.39713287353516 136.48228454589844 63.314422607421875 139.87234497070312 59.44051742553711 C 143.75440979003906 56.01753234863281 146.38597106933594 51.57429885864258 149.42608642578125 47.84517288208008 C 153.23486328125 44.42089080810547 156.29249572753906 40.89482498168945 158.51414489746094 36.949100494384766 C 163.31605529785156 35.98660659790039 167.0418701171875 34.92719650268555 171.11013793945312 32.911563873291016 C 175.30799865722656 34.384788513183594 179.40635681152344 34.564884185791016 184.33612060546875 34.15093994140625 C 188.53237915039062 37.01954650878906 192.8406982421875 38.22781753540039 197.51089477539062 39.178382873535156 C 201.630615234375 41.470428466796875 205.9544677734375 42.44484329223633 210.2545623779297 44.40311813354492 C 214.546142578125 44.12502670288086 218.583740234375 43.93539810180664 222.1136474609375 42.45515441894531 C 224.8869171142578 39.65192413330078 227.6289825439453 37.18059158325195 230.0277557373047 33.75091552734375 C 233.4208221435547 31.331008911132812 236.0761260986328 28.525718688964844 237.00526428222656 24.647972106933594 C 240.6988525390625 22.232234954833984 243.89193725585938 20.182233810424805 246.9696807861328 17.35377311706543 C 250.88319396972656 16.892412185668945 254.99972534179688 16.067028045654297 259.8808898925781 16.208581924438477 C 264.5802917480469 13.026758193969727 269.672119140625 13.851758003234863 274.814453125 15.562745094299316 C 280.3083801269531 15.291341781616211 285.8041076660156 16.05725860595703 287.94671630859375 14.875401496887207" stroke-width="0.0" fill="rgb(61, 39, 36)" opacity="0.9990982" stroke="rgb(193, 237, 200)" stroke-opacity="0.90233845" stroke-linecap="round" stroke-linejoin="round"/>
    <path d="M 201.09388732910156 262.8062438964844 C 210.74343872070312 267.8392639160156 211.126220703125 268.9980773925781 211.7744598388672 264.7991638183594 C 213.29124450683594 268.0921630859375 213.89002990722656 268.5778503417969 214.79273986816406 265.9520568847656 C 217.7584228515625 267.9126892089844 218.43994140625 269.0018615722656 219.2281951904297 270.3511962890625 C 219.68768310546875 264.7881774902344 222.21612548828125 267.578369140625 223.3674774169922 269.54827880859375 C 223.21983337402344 270.8470458984375 224.24295043945312 271.0169372558594 225.20977783203125 270.03875732421875 C 225.9340362548828 270.2490539550781 226.61782836914062 270.58258056640625 227.22250366210938 270.1842346191406 C 228.1636199951172 270.58929443359375 229.26177978515625 270.1152648925781 230.10169982910156 269.1405334472656 C 232.15110778808594 270.3140869140625 234.61581420898438 270.05670166015625 237.6829376220703 269.9648742675781 C 239.9995574951172 269.59100341796875 242.81752014160156 268.8260192871094 245.3997039794922 269.2466735839844 C 249.2760467529297 268.0489807128906 252.94056701660156 266.482421875 255.3971710205078 265.815673828125 C 258.49249267578125 266.0801086425781 261.22198486328125 266.00146484375 266.53253173828125 262.4524230957031 C 269.0841064453125 265.6853332519531 271.70947265625 269.1503601074219 272.91510009765625 269.1719055175781 C 272.80810546875 276.4262390136719 275.87066650390625 278.7282409667969 278.5600280761719 281.4963684082031 C 275.6099853515625 284.4091796875 274.55419921875 286.4783020019531 277.28729248046875 289.8255920410156 C 275.45623779296875 291.4393310546875 275.1725158691406 293.14715576171875 276.04400634765625 295.6825866699219 C 274.72235107421875 295.9385681152344 276.04974365234375 297.2828674316406 277.90838623046875 297.4894714355469 C 277.02740478515625 301.70867919921875 277.61456298828125 305.08819580078125 280.1850280761719 302.8831481933594 C 286.14324951171875 302.27789306640625 285.2940673828125 305.47705078125 289.6482849121094 304.1206359863281 C 292.2608642578125 307.6636047363281 293.428955078125 309.0909118652344 300.45574951171875 307.19073486328125 C 299.71661376953125 312.3632507324219 299.0630798339844 312.3210144042969 303.0664978027344 312.84173583984375 C 303.55645751953125 318.8489990234375 304.3839111328125 320.996826171875 306.8774719238281 321.4145812988281 C 303.7591247558594 326.18255615234375 303.55987548828125 327.8121032714844 304.8132629394531 330.640869140625 C 305.27020263671875 333.3468933105469 307.1304931640625 334.51708984375 309.36474609375 337.6291809082031 C 306.6297607421875 341.25543212890625 307.0492858886719 343.0831298828125 310.5409851074219 344.42047119140625 C 308.4557189941406 346.8553161621094 309.0010070800781 346.4293212890625 313.46356201171875 344.4742736816406 C 317.03936767578125 352.8620300292969 315.9399719238281 355.94879150390625 315.8990478515625 360.35296630859375 C 312.2633972167969 362.2130432128906 311.94586181640625 363.81268310546875 313.1687927246094 371.4397888183594 C 308.9168395996094 369.83428955078125 308.1258850097656 369.08660888671875 305.81402587890625 374.69537353515625 C 300.3338317871094 371.16265869140625 298.2981872558594 370.609375 295.4105529785156 374.1974182128906 C 291.37005615234375 372.1102294921875 288.6842956542969 372.2613525390625 284.9748229980469 374.48236083984375 C 280.098876953125 371.04888916015625 277.37841796875 369.765625 277.3472595214844 371.7522277832031 C 272.8562927246094 372.9403991699219 269.4736633300781 373.5251159667969 266.7928466796875 372.1995849609375 C 263.8282775878906 373.1377868652344 260.1967468261719 372.54638671875 257.1550598144531 372.4986267089844 C 254.646240234375 372.85467529296875 251.2662811279297 372.3758850097656 247.45785522460938 372.5263977050781 C 244.50437927246094 372.640869140625 241.4961395263672 372.154296875 236.80154418945312 372.7299499511719 C 235.09185791015625 370.09893798828125 233.0091552734375 370.3571472167969 230.1456756591797 373.53753662109375 C 225.50877380371094 369.83319091796875 224.1160125732422 369.8922424316406 221.2834930419922 372.38092041015625 C 218.58132934570312 368.77862548828125 217.09609985351562 369.0966796875 218.23611450195312 372.368896484375 C 212.9844207763672 372.959228515625 209.76251220703125 373.8827209472656 207.27186584472656 372.4548034667969 C 203.9053192138672 370.5149230957031 201.46359252929688 370.7635803222656 199.21763610839844 370.4856262207031 C 196.63235473632812 371.145751953125 193.86158752441406 370.0817565917969 191.48187255859375 370.8684997558594 C 189.33535766601562 372.46795654296875 186.7627410888672 370.95513916015625 183.76339721679688 370.9190368652344 C 180.71632385253906 370.4523010253906 177.5415496826172 369.9131164550781 174.87362670898438 378.5509338378906 C 171.08958435058594 371.4718017578125 168.1425018310547 370.769287109375 163.59742736816406 373.00567626953125 C 161.1604766845703 370.34796142578125 159.31814575195312 367.9683837890625 158.90966796875 366.4853820800781 C 158.40399169921875 362.0538330078125 160.58590698242188 360.76849365234375 158.7604522705078 352.00469970703125 C 159.3324737548828 352.5426330566406 162.29061889648438 348.5921936035156 164.8807373046875 350.95166015625 C 166.9657440185547 350.3985290527344 166.32078552246094 347.38311767578125 166.1009521484375 339.2099914550781 C 168.79649353027344 341.32672119140625 168.2828369140625 340.34893798828125 166.23876953125 337.2309265136719 C 172.9754180908203 336.29962158203125 173.05006408691406 334.4652099609375 171.12335205078125 331.3564147949219 C 175.1488494873047 329.67156982421875 176.80616760253906 327.8572998046875 171.27813720703125 323.4833068847656 C 177.13426208496094 322.3455505371094 178.37576293945312 319.7040100097656 178.45069885253906 318.1053161621094 C 180.74996948242188 317.6529235839844 180.19761657714844 316.28173828125 175.94190979003906 310.5516052246094 C 181.68630981445312 310.10284423828125 184.42337036132812 309.47528076171875 182.776611328125 303.9255065917969 C 186.5364990234375 304.3254699707031 188.38075256347656 303.6234130859375 191.96737670898438 303.28826904296875 C 191.2305908203125 301.2038269042969 190.8076171875 298.56024169921875 192.53172302246094 296.73175048828125 C 192.57699584960938 293.527099609375 191.86285400390625 290.59747314453125 194.59542846679688 288.7221984863281 C 196.84117126464844 285.1658935546875 198.09115600585938 281.8936462402344 198.0403594970703 275.6781311035156 C 200.05897521972656 278.9378967285156 201.8649444580078 278.0765075683594 197.34352111816406 270.8221435546875 C 206.07040405273438 272.195556640625 203.9774169921875 272.87713623046875 201.09388732910156 262.8062438964844" stroke-width="0.0" fill="rgb(254, 111, 167)" opacity="0.9992896" stroke="rgb(132, 19, 7)" stroke-opacity="0.85743266" stroke-linecap="round" stroke-linejoin="round"/>
    <path d="M 302.3331298828125 377.3442077636719 C 305.3472595214844 378.36407470703125 307.87554931640625 379.1779479980469 311.0830078125 378.61517333984375 C 312.1365661621094 382.2462158203125 314.27545166015625 385.999755859375 315.4632263183594 388.8786315917969 C 316.2661437988281 395.06390380859375 313.4112243652344 403.1428527832031 312.6066589355469 412.5841979980469 C 309.8374328613281 422.13433837890625 307.50836181640625 430.4094543457031 305.5356750488281 438.63330078125 C 303.169677734375 451.05865478515625 300.1058349609375 458.61669921875 294.7493591308594 466.8193054199219 C 288.4602355957031 473.21881103515625 285.07366943359375 478.2048645019531 285.3557434082031 490.5085144042969 C 286.13427734375 504.359130859375 278.5832824707031 512.86083984375 291.760498046875 504.9809265136719 C 306.1883850097656 506.2684020996094 310.6373291015625 518.711181640625 296.6607360839844 519.88525390625 C 288.32403564453125 511.35992431640625 290.5139465332031 528.3422241210938 293.98248291015625 533.6348266601562 C 306.46429443359375 538.1895751953125 320.6419677734375 543.4656982421875 333.455322265625 550.0834350585938 C 342.52154541015625 556.7238159179688 345.6716003417969 563.92431640625 342.0251159667969 566.91552734375 C 338.7561340332031 568.4718017578125 342.17694091796875 561.232177734375 334.75958251953125 554.785888671875 C 324.6399230957031 551.386474609375 318.04364013671875 543.8316040039062 305.7923889160156 542.4006958007812 C 306.8407287597656 531.0782470703125 286.5627136230469 527.2798461914062 286.0814514160156 529.3358764648438 C 270.8326416015625 533.446533203125 265.98907470703125 534.4003295898438 252.45004272460938 533.6332397460938 C 244.48800659179688 530.6395263671875 236.98681640625 529.4312133789062 240.1041717529297 531.24462890625 C 238.97003173828125 541.0205078125 235.85047912597656 551.52685546875 237.97996520996094 561.807373046875 C 242.0687255859375 567.991455078125 250.5356903076172 569.734130859375 259.6746520996094 571.5011596679688 C 269.7333068847656 571.803955078125 281.10711669921875 571.2498779296875 291.89752197265625 571.8362426757812 C 299.1555480957031 573.6986694335938 307.7491149902344 572.927734375 315.3614807128906 573.8218383789062 C 315.8376770019531 575.5693969726562 317.3506164550781 577.8665161132812 319.79803466796875 578.66259765625 C 312.85198974609375 580.2030029296875 306.1416015625 580.6886596679688 296.7436218261719 580.8474731445312 C 289.8177795410156 580.322021484375 280.1649169921875 581.5352783203125 271.4603576660156 579.78466796875 C 262.1342468261719 579.6705932617188 253.7765350341797 577.2342529296875 243.1383514404297 574.6825561523438 C 242.17311096191406 566.8209838867188 237.2716827392578 559.4429931640625 236.83847045898438 551.7754516601562 C 239.17404174804688 540.4769897460938 242.2401580810547 523.7333374023438 237.9382781982422 523.716552734375 C 228.50865173339844 527.6912231445312 223.29261779785156 516.8731079101562 228.18374633789062 512.6683959960938 C 236.50363159179688 505.17437744140625 247.6091766357422 503.9634704589844 245.23849487304688 493.4612121582031 C 247.1331787109375 465.47296142578125 250.53753662109375 468.0264587402344 232.98521423339844 465.18280029296875 C 225.24728393554688 466.91070556640625 219.02149963378906 473.3145446777344 212.00234985351562 474.956787109375 C 209.10731506347656 488.7557678222656 208.84716796875 500.16168212890625 208.2039031982422 507.47332763671875 C 218.34017944335938 508.5645751953125 221.701904296875 513.0413208007812 220.67041015625 517.8223876953125 C 221.05726623535156 525.18896484375 208.3206329345703 521.2363891601562 209.4533233642578 528.412109375 C 192.7640838623047 545.4483642578125 174.68386840820312 593.9028930664062 217.323974609375 568.7496337890625 C 217.08363342285156 579.1698608398438 219.15187072753906 585.0658569335938 208.26759338378906 586.7869873046875 C 189.9414825439453 588.230712890625 186.25096130371094 581.7135620117188 177.34796142578125 586.2152099609375 C 157.80955505371094 593.0586547851562 144.27047729492188 592.1073608398438 132.09971618652344 591.1900634765625 C 121.43904113769531 589.080078125 120.01860046386719 580.7447509765625 118.36937713623047 574.7718505859375 C 122.77281951904297 567.32177734375 132.9944305419922 565.070556640625 139.9199676513672 555.1426391601562 C 149.37843322753906 553.494140625 155.02859497070312 539.0452880859375 163.81271362304688 525.1465454101562 C 160.3587646484375 523.7045288085938 143.77261352539062 523.9957275390625 155.06129455566406 509.56915283203125 C 163.7342071533203 501.3778991699219 169.06813049316406 512.7562255859375 168.60403442382812 502.8240966796875 C 170.2607879638672 486.3717041015625 169.3910675048828 479.26116943359375 169.25221252441406 471.993896484375 C 173.37594604492188 473.6258239746094 178.70640563964844 474.4626770019531 190.27284240722656 475.216064453125 C 198.99661254882812 475.3529052734375 213.1242218017578 475.7451171875 216.1037139892578 473.93377685546875 C 225.37973022460938 468.0163879394531 231.433349609375 465.34613037109375 234.10635375976562 465.2432556152344 C 235.64443969726562 465.82440185546875 238.78741455078125 466.1787414550781 243.6094970703125 467.3240966796875 C 245.96847534179688 470.8133239746094 254.76199340820312 471.9662170410156 266.0357666015625 472.1572265625 C 278.2030944824219 472.333740234375 290.86346435546875 475.29473876953125 292.5764465332031 468.3938293457031 C 301.2184143066406 459.5588684082031 304.4022521972656 445.28472900390625 307.8853454589844 431.6101989746094 C 311.92645263671875 418.2413024902344 314.6915283203125 402.49749755859375 315.8388671875 390.85882568359375 C 315.0605773925781 385.1537780761719 311.16949462890625 379.8967590332031 304.8309631347656 378.1324157714844 C 299.9247131347656 377.7701110839844 289.0846862792969 381.1972351074219 276.1987609863281 384.25677490234375 C 265.521484375 385.7820129394531 249.9270477294922 387.9494934082031 234.69515991210938 387.4627685546875 C 229.34764099121094 386.57867431640625 216.82342529296875 386.0548400878906 207.47879028320312 384.3768005371094 C 202.36203002929688 382.7510986328125 196.64230346679688 383.0685119628906 191.48678588867188 379.7220764160156 C 200.27395629882812 375.9970397949219 205.3214569091797 378.9496765136719 214.9770965576172 376.2936096191406 C 222.0829620361328 376.0931396484375 231.9108428955078 376.60882568359375 242.03909301757812 375.3733825683594 C 255.2337188720703 375.3321838378906 266.9171447753906 375.58306884765625 277.9161071777344 376.0903625488281 C 292.1886901855469 377.2826843261719 304.7315368652344 380.2507629394531 302.3331298828125 377.3442077636719" stroke-width="0.0" fill="rgb(240, 202, 129)" opacity="0.9990973" stroke="rgb(139, 97, 23)" stroke-opacity="0.24575868" stroke-linecap="round" stroke-linejoin="round"/>
    <path d="M 96.52433013916016 287.0565490722656 C 97.11795806884766 285.8219909667969 101.47959899902344 286.63330078125 101.55689239501953 286.7044677734375 C 101.4119873046875 287.7112121582031 102.11717987060547 290.705078125 100.55164337158203 286.6450500488281 C 104.10700225830078 288.7001953125 106.86162567138672 293.1910095214844 107.90338897705078 292.2573547363281 C 104.55768585205078 290.4254150390625 107.37872314453125 292.8164367675781 110.74874114990234 296.510498046875 C 110.13275909423828 292.7604064941406 109.55500030517578 297.2470703125 109.76982116699219 296.75152587890625 C 112.87102508544922 295.1705322265625 113.88438415527344 300.0486145019531 114.37358856201172 300.4731140136719 C 114.25028228759766 299.9782409667969 115.63764953613281 304.8525695800781 116.67825317382812 304.0255126953125 C 116.75928497314453 301.2893371582031 117.14899444580078 305.4409484863281 119.61882019042969 306.52862548828125 C 119.14912414550781 308.04913330078125 119.33200073242188 310.0854797363281 118.60592651367188 307.4371337890625 C 119.92134857177734 308.4179382324219 121.52792358398438 312.01177978515625 120.12447357177734 315.6950378417969 C 121.99617004394531 310.2232360839844 120.87229919433594 313.385498046875 122.39128875732422 315.0201416015625 C 122.94392395019531 316.91192626953125 124.08149719238281 319.701904296875 124.47379302978516 319.9075927734375 C 123.86774444580078 318.6339111328125 124.23226928710938 321.66888427734375 124.70442199707031 321.83734130859375 C 124.22966766357422 321.1727600097656 124.50373077392578 322.3895263671875 124.91010284423828 323.6268615722656 C 125.68919372558594 326.60198974609375 127.05328369140625 329.1024475097656 123.4625015258789 324.7376708984375 C 126.94493103027344 328.6666564941406 124.63872528076172 332.83074951171875 126.39655303955078 332.31146240234375 C 125.17807006835938 331.4403076171875 123.84200286865234 332.2500915527344 122.75588989257812 334.06396484375 C 121.30155181884766 334.3005676269531 119.38998413085938 335.6837158203125 117.77273559570312 337.58404541015625 C 115.55387878417969 338.209228515625 113.02176666259766 340.01361083984375 108.96336364746094 342.54962158203125 C 112.11461639404297 344.018310546875 114.54667663574219 349.61920166015625 114.96326446533203 346.7027282714844 C 112.5926513671875 355.93890380859375 116.18888092041016 361.6861877441406 117.83354949951172 363.9635314941406 C 119.34042358398438 366.6278076171875 122.0328140258789 370.091552734375 125.5868148803711 372.2813415527344 C 128.70687866210938 374.0290222167969 132.04335021972656 375.3282470703125 134.56924438476562 376.9195556640625 C 137.17710876464844 377.16094970703125 138.61317443847656 377.311279296875 138.9632568359375 377.5738220214844 C 138.57192993164062 377.3830871582031 137.4498748779297 376.9637451171875 135.622802734375 376.3150634765625 C 133.21495056152344 375.7730407714844 130.4434356689453 374.801513671875 127.87980651855469 373.6668395996094 C 125.31680297851562 372.3614196777344 123.13519287109375 370.6810607910156 121.06878662109375 368.4596252441406 C 119.2371826171875 366.585205078125 117.9513168334961 364.1156005859375 116.48345947265625 362.03594970703125 C 115.51910400390625 360.237548828125 113.95735931396484 356.7179260253906 114.55962371826172 350.0981140136719 C 114.1235580444336 350.4357604980469 117.04447937011719 347.315673828125 110.7300033569336 344.0523986816406 C 108.61482238769531 340.0107116699219 106.16714477539062 345.97491455078125 100.02641296386719 346.6419372558594 C 97.52780151367188 347.4883117675781 93.35728454589844 351.2593688964844 78.39051055908203 354.64984130859375 C 91.66349792480469 355.0661315917969 90.3935775756836 357.4163818359375 89.00738525390625 363.727783203125 C 85.84658813476562 363.1965026855469 84.50733947753906 368.76519775390625 78.64555358886719 363.5174865722656 C 78.83860778808594 362.600341796875 76.52918243408203 365.78985595703125 73.23705291748047 371.6390075683594 C 69.90269470214844 375.6636047363281 64.93999481201172 381.35028076171875 59.19374465942383 384.1137390136719 C 59.70101547241211 389.9486389160156 57.6954345703125 393.20391845703125 58.39257049560547 399.38751220703125 C 57.24411392211914 400.5250244140625 57.395748138427734 401.9727783203125 55.42908477783203 404.77752685546875 C 46.23945617675781 405.66107177734375 47.01463317871094 400.3420104980469 44.38015365600586 394.6639404296875 C 44.88286209106445 390.7287902832031 41.63706970214844 385.1778259277344 41.70792770385742 385.6397399902344 C 39.21019744873047 392.694580078125 36.11537170410156 398.2940979003906 31.95585060119629 401.12646484375 C 27.754281997680664 402.9554748535156 20.60696029663086 400.4423828125 22.496065139770508 395.1059265136719 C 22.21418571472168 389.23681640625 22.055419921875 389.31732177734375 18.23497772216797 392.43438720703125 C 12.580379486083984 393.1217041015625 10.487634658813477 390.3702392578125 9.419910430908203 389.7223815917969 C 9.745414733886719 381.7668762207031 12.91955280303955 377.432373046875 14.106534004211426 373.1400146484375 C 10.207717895507812 376.7832336425781 8.555914878845215 379.7166748046875 1.459764838218689 376.9263610839844 C -1.984494686126709 374.9764404296875 0.14898289740085602 370.5668029785156 3.786855459213257 364.230712890625 C 7.107835292816162 359.2171630859375 11.997681617736816 353.5386962890625 15.952919960021973 347.5231018066406 C 19.667659759521484 343.9836730957031 22.190021514892578 340.756103515625 21.41309928894043 337.8785095214844 C 18.113969802856445 333.7278137207031 16.89130401611328 328.73297119140625 17.339143753051758 323.7615661621094 C 20.291194915771484 319.0861511230469 21.346906661987305 320.3401184082031 25.791276931762695 320.27593994140625 C 32.36983108520508 325.1669006347656 38.15850830078125 331.67333984375 42.809146881103516 330.4275817871094 C 48.422462463378906 331.5213928222656 44.67430114746094 328.04571533203125 46.95155715942383 324.66522216796875 C 49.3515739440918 320.8648681640625 54.204750061035156 318.8014221191406 60.071163177490234 322.37030029296875 C 60.87217330932617 322.36865234375 63.54277038574219 318.07611083984375 66.88179016113281 314.8338928222656 C 69.57310485839844 311.202880859375 73.25348663330078 307.88720703125 76.33973693847656 304.28582763671875 C 79.54653930664062 302.4740905761719 81.46553802490234 298.9482727050781 83.56787872314453 298.3627624511719 C 84.18817138671875 297.87884521484375 86.9205093383789 295.3087158203125 88.98931884765625 294.009033203125 C 89.50223541259766 292.5989990234375 91.59535217285156 291.7153015136719 94.13613891601562 289.7710266113281 C 93.93801879882812 289.6668395996094 96.1507568359375 287.2938232421875 96.52433013916016 287.0565490722656" stroke-width="0.0" fill="rgb(248, 191, 113)" opacity="1.0" stroke="rgb(209, 128, 123)" stroke-opacity="0.40585417" stroke-linecap="round" stroke-linejoin="round"/>
    <path d="M 368.48748779296875 268.6881103515625 C 368.1230163574219 269.00469970703125 367.74334716796875 269.3348388671875 367.33978271484375 269.7069091796875 C 366.9585876464844 270.09710693359375 366.7192077636719 270.5135192871094 366.7012939453125 270.9848937988281 C 366.96331787109375 271.4510192871094 367.515625 271.8319091796875 368.3249206542969 272.1690979003906 C 369.359619140625 272.5368347167969 370.6071472167969 272.9725341796875 372.0323181152344 273.5088195800781 C 373.55169677734375 274.1497802734375 375.1160583496094 274.82171630859375 376.6592712402344 275.4726867675781 C 378.1026306152344 276.139892578125 379.4526672363281 276.76483154296875 380.7185974121094 277.3685607910156 C 381.8621826171875 277.9234924316406 382.892578125 278.4397888183594 383.847412109375 278.94049072265625 C 384.730224609375 279.4255676269531 385.5743103027344 279.89404296875 386.42401123046875 280.36822509765625 C 387.30523681640625 280.8759460449219 388.18292236328125 281.3786926269531 389.0876770019531 281.8841857910156 C 389.9803771972656 282.3411865234375 390.8761291503906 282.8379211425781 391.7484436035156 283.34869384765625 C 392.5345458984375 283.848876953125 393.2216491699219 284.3629150390625 393.8241882324219 284.8406677246094 C 394.4129638671875 285.2618713378906 395.0212707519531 285.6464538574219 395.65521240234375 286.0061950683594 C 396.32244873046875 286.3924865722656 397.1056213378906 286.8540344238281 398.0037536621094 287.44769287109375 C 399.0267639160156 288.2090148925781 400.14239501953125 289.15472412109375 401.4435729980469 290.2030334472656 C 402.92950439453125 291.3794860839844 404.56829833984375 292.6865539550781 406.1612854003906 294.1118469238281 C 407.6770324707031 295.630615234375 408.9872741699219 297.06658935546875 410.2445373535156 298.2091979980469 C 411.499755859375 298.8817443847656 412.75408935546875 298.9114685058594 414.0483093261719 298.3542175292969 C 415.4393615722656 297.5223693847656 416.87139892578125 296.61376953125 418.4080810546875 295.7848815917969 C 420.0346984863281 295.1082458496094 421.7035217285156 294.51068115234375 423.35296630859375 293.9875793457031 C 424.96343994140625 293.4763488769531 426.517333984375 292.9587707519531 428.03472900390625 292.537109375 C 429.4287109375 292.3471984863281 430.71954345703125 292.2980651855469 431.8446960449219 292.4162292480469 C 432.68865966796875 292.8285217285156 433.3147888183594 293.3437805175781 433.8264465332031 293.60675048828125 C 434.1590270996094 292.9775390625 434.38238525390625 291.8135986328125 434.4479064941406 290.3561706542969 C 434.5453796386719 288.1630859375 435.4111328125 285.8563537597656 437.5337219238281 283.8239440917969 C 439.8172607421875 281.15667724609375 442.1278991699219 279.1266784667969 445.12408447265625 279.20086669921875 C 448.4068298339844 280.1452331542969 450.509521484375 282.2624816894531 450.9573974609375 285.6982421875 C 450.1640319824219 289.9141540527344 448.5387268066406 294.34942626953125 446.5655517578125 297.82757568359375 C 445.093505859375 299.2698059082031 446.1787109375 300.1499938964844 449.43487548828125 300.262451171875 C 452.629150390625 301.33160400390625 455.9054260253906 302.8094177246094 459.3577575683594 304.6849670410156 C 463.0398864746094 306.6208801269531 466.4339904785156 308.8055419921875 469.4670104980469 311.4178161621094 C 472.4252624511719 313.7919921875 474.6646423339844 316.3027648925781 475.2178649902344 319.0890197753906 C 473.6185302734375 321.3707580566406 470.62432861328125 323.3623352050781 466.5536193847656 324.22869873046875 C 463.18109130859375 323.4583740234375 460.7498474121094 323.2312927246094 460.7445373535156 324.64483642578125 C 463.8038635253906 327.42138671875 467.14935302734375 331.31488037109375 468.61920166015625 335.35540771484375 C 467.80975341796875 338.4971923828125 464.6116638183594 339.7596740722656 460.565185546875 340.9215087890625 C 461.33465576171875 344.262451171875 460.7212829589844 346.9054260253906 457.7493896484375 347.94970703125 C 453.1328430175781 347.498046875 448.66339111328125 346.8285217285156 443.9902648925781 345.5843200683594 C 441.36309814453125 344.4740905761719 440.98406982421875 344.911376953125 442.1859130859375 347.4098205566406 C 444.4275207519531 350.6991271972656 445.07177734375 354.86376953125 444.7953186035156 358.88311767578125 C 443.1217041015625 360.92852783203125 440.4530029296875 361.0921325683594 437.0513916015625 360.45416259765625 C 434.410888671875 358.1404724121094 431.8830871582031 355.21783447265625 429.79852294921875 352.25482177734375 C 427.2774353027344 349.7619323730469 425.5396423339844 347.454833984375 425.36407470703125 344.9252624511719 C 425.086669921875 342.740478515625 423.9095458984375 341.2188415527344 421.5033874511719 340.4686584472656 C 418.64251708984375 339.9394226074219 415.806884765625 339.0349426269531 413.1581726074219 337.5166931152344 C 410.58831787109375 335.5614318847656 408.1828918457031 333.3046875 405.9646911621094 331.0038146972656 C 403.8668212890625 328.9803161621094 401.65814208984375 327.4892272949219 399.208984375 326.62139892578125 C 396.3918151855469 326.2597351074219 393.26385498046875 326.0682067871094 389.91754150390625 325.79644775390625 C 386.46942138671875 325.3830871582031 382.95941162109375 324.9125061035156 379.4503479003906 324.3686828613281 C 375.91168212890625 323.7562561035156 372.29425048828125 323.10113525390625 368.7035217285156 322.4185485839844 C 365.3087463378906 321.6450500488281 362.2187805175781 320.7872009277344 359.3521423339844 319.91162109375 C 356.6541442871094 319.0728454589844 354.2599792480469 318.27777099609375 352.2407531738281 317.620849609375 C 350.6480407714844 317.0852355957031 349.5690612792969 316.6930236816406 348.9567565917969 316.3086242675781 C 348.71307373046875 315.6347351074219 348.9091796875 314.8972473144531 349.458984375 314.36724853515625 C 350.4626159667969 313.5314636230469 351.60052490234375 312.1478271484375 352.6711120605469 310.1955261230469 C 353.7793273925781 307.84332275390625 354.7912902832031 305.08349609375 355.83184814453125 301.8153076171875 C 356.7037658691406 298.6929626464844 358.4577941894531 295.55902099609375 360.27203369140625 292.6148376464844 C 360.71380615234375 289.6709289550781 361.4762878417969 286.9295349121094 362.5945129394531 284.3180847167969 C 363.24432373046875 281.8113708496094 363.4147644042969 279.26947021484375 364.6644287109375 277.0049133300781 C 364.93310546875 274.953369140625 365.2508239746094 272.91607666015625 366.4825439453125 271.3108825683594 C 367.27484130859375 269.603515625 368.8883361816406 268.0983581542969 368.48748779296875 268.6881103515625" stroke-width="0.0" fill="rgb(247, 188, 112)" opacity="1.0" stroke="rgb(58, 89, 178)" stroke-opacity="0.76167256" stroke-linecap="round" stroke-linejoin="round"/>
    <path d="M 344.1238708496094 142.5754852294922 C 345.1126403808594 142.9081268310547 346.09100341796875 143.2333526611328 347.04962158203125 143.56613159179688 C 347.9786376953125 143.92214965820312 348.85546875 144.29815673828125 349.6690673828125 144.72149658203125 C 350.40472412109375 145.17916870117188 351.03759765625 145.71807861328125 351.5757751464844 146.34010314941406 C 351.9983825683594 147.05409240722656 352.2989807128906 147.8604736328125 352.4991455078125 148.749267578125 C 352.6183776855469 149.70684814453125 352.6437072753906 150.7225341796875 352.5862121582031 151.78555297851562 C 352.46795654296875 152.87547302246094 352.29443359375 153.97622680664062 352.07843017578125 155.0828399658203 C 351.8243408203125 156.1768035888672 351.5602111816406 157.22642517089844 351.2992248535156 158.2441864013672 C 351.03680419921875 159.24266052246094 350.7920837402344 160.1934356689453 350.61279296875 161.1118927001953 C 350.49017333984375 162.03878784179688 350.4168701171875 162.94886779785156 350.3948974609375 163.88534545898438 C 350.4180908203125 164.84469604492188 350.4731750488281 165.8330535888672 350.5536193847656 166.86293029785156 C 350.623291015625 167.93560791015625 350.6598815917969 169.03436279296875 350.64898681640625 170.13525390625 C 350.54730224609375 171.2097625732422 350.3597412109375 172.22640991210938 350.0339050292969 173.14404296875 C 349.564208984375 173.938232421875 348.96087646484375 174.56834411621094 348.1969299316406 175.04132080078125 C 347.3156433105469 175.35459899902344 346.33807373046875 175.51950073242188 345.28594970703125 175.5562744140625 C 344.1807556152344 175.51544189453125 343.0504150390625 175.42861938476562 341.9261779785156 175.351806640625 C 340.8398742675781 175.34791564941406 339.8047790527344 175.4665985107422 338.8545837402344 175.7631378173828 C 337.9924621582031 176.28054809570312 337.2577819824219 177.0517120361328 336.650390625 178.0812530517578 C 336.1787109375 179.38543701171875 335.822265625 180.9729766845703 335.585205078125 182.78457641601562 C 335.44122314453125 184.7855682373047 335.3655090332031 186.94129943847656 335.3424377441406 189.17201232910156 C 335.3438720703125 191.43052673339844 335.35467529296875 193.67442321777344 335.3647766113281 195.8521270751953 C 335.3536071777344 197.9049530029297 335.2425537109375 199.81484985351562 334.9698486328125 201.54736328125 C 334.51129150390625 203.06874084472656 333.8646240234375 204.37545776367188 332.9859924316406 205.4538116455078 C 331.8813171386719 206.29148864746094 330.5504455566406 206.90133666992188 328.9945068359375 207.2993621826172 C 327.2340393066406 207.52301025390625 325.2892150878906 207.60655212402344 323.21343994140625 207.58145141601562 C 321.0581970214844 207.50860595703125 318.8628845214844 207.4187469482422 316.68853759765625 207.3357696533203 C 314.6129455566406 207.30482482910156 312.6866760253906 207.36346435546875 310.9342041015625 207.52247619628906 C 309.39752197265625 207.8247833251953 308.0661315917969 208.30313110351562 306.9200439453125 208.96266174316406 C 305.983154296875 209.8036346435547 305.22650146484375 210.81442260742188 304.6147766113281 211.99081420898438 C 304.1297607421875 213.325439453125 303.73541259765625 214.76535034179688 303.3415832519531 216.22970581054688 C 302.8650817871094 217.69821166992188 302.2287292480469 219.0867462158203 301.37701416015625 220.34153747558594 C 300.3161926269531 221.4204559326172 299.0077819824219 222.27430725097656 297.45977783203125 222.90113830566406 C 295.7071838378906 223.2845001220703 293.7828063964844 223.4950714111328 291.6946105957031 223.5463409423828 C 289.4891662597656 223.5483856201172 287.2131042480469 223.51148986816406 284.89764404296875 223.44000244140625 C 282.6093444824219 223.2832794189453 280.3699645996094 222.98866271972656 278.28411865234375 222.53591918945312 C 276.3920593261719 221.88563537597656 274.7365417480469 221.01913452148438 273.40374755859375 219.95550537109375 C 272.4132995605469 218.712158203125 271.7745361328125 217.31968688964844 271.5101318359375 215.8495635986328 C 271.63055419921875 214.3723602294922 272.1249694824219 212.94053649902344 272.952880859375 211.6346893310547 C 274.0713806152344 210.4878692626953 275.41839599609375 209.5095672607422 276.90887451171875 208.7087860107422 C 278.44964599609375 208.06748962402344 279.9466552734375 207.51629638671875 281.30938720703125 207.02978515625 C 282.4828796386719 206.53189086914062 283.42413330078125 205.9445037841797 284.1101989746094 205.22169494628906 C 284.5338134765625 204.316650390625 284.72967529296875 203.2177734375 284.7521667480469 201.90280151367188 C 284.7044372558594 200.40028381347656 284.6400146484375 198.73072814941406 284.6142883300781 196.95022583007812 C 284.69110107421875 195.0638427734375 284.8665466308594 193.13690185546875 285.1543273925781 191.21047973632812 C 285.5610656738281 189.30982971191406 286.0290832519531 187.4656524658203 286.562255859375 185.71470642089844 C 287.1854248046875 184.07505798339844 287.899169921875 182.57040405273438 288.7446594238281 181.21250915527344 C 289.7486267089844 180.0161895751953 290.908935546875 178.99090576171875 292.2237243652344 178.1158447265625 C 293.6898193359375 177.35008239746094 295.2577209472656 176.6824493408203 296.87115478515625 176.0600128173828 C 298.46087646484375 175.3939208984375 299.93060302734375 174.6470184326172 301.2086486816406 173.7650146484375 C 302.2440490722656 172.70062255859375 303.00042724609375 171.4261932373047 303.4794921875 169.9266357421875 C 303.69854736328125 168.21604919433594 303.7188720703125 166.3285675048828 303.5857238769531 164.29933166503906 C 303.3667297363281 162.17352294921875 303.12054443359375 160.00067138671875 302.920654296875 157.83143615722656 C 302.8511047363281 155.72068786621094 302.93109130859375 153.72325134277344 303.2310791015625 151.86390686035156 C 303.7490539550781 150.18963623046875 304.4945983886719 148.73020935058594 305.4924011230469 147.47512817382812 C 306.733642578125 146.43832397460938 308.1927185058594 145.63638305664062 309.8401794433594 145.05300903320312 C 311.6580505371094 144.65945434570312 313.61572265625 144.43946838378906 315.674072265625 144.3567352294922 C 317.79150390625 144.3696746826172 319.93377685546875 144.4547576904297 322.0875244140625 144.59091186523438 C 324.2186279296875 144.74960327148438 326.3127136230469 144.88304138183594 328.3650817871094 144.93646240234375 C 330.36029052734375 144.843017578125 332.2989501953125 144.6320343017578 334.1998596191406 144.3152618408203 C 336.0750427246094 143.92001342773438 337.9115295410156 143.48704528808594 339.7440185546875 143.0157470703125 C 341.5812683105469 142.56021118164062 343.40447998046875 142.09751892089844 344.1238708496094 142.5754852294922" stroke-width="0.0" fill="rgb(252, 188, 102)" opacity="0.99935937" stroke="rgb(251, 243, 220)" stroke-opacity="0.3381135" stroke-linecap="round" stroke-linejoin="round"/>
    <path d="M 211.01341247558594 126.23218536376953 C 210.98095703125 125.54154968261719 211.1435089111328 124.95934295654297 211.7283172607422 124.5810546875 C 213.294189453125 124.39130401611328 215.7393035888672 124.21786499023438 218.5692901611328 124.57132720947266 C 222.17068481445312 125.01728820800781 225.33641052246094 125.62290954589844 227.18890380859375 126.53779602050781 C 226.92181396484375 127.49503326416016 225.06788635253906 127.68325805664062 222.37677001953125 127.40400695800781 C 219.8878631591797 126.8486557006836 218.2584991455078 126.56568908691406 217.74990844726562 126.81040954589844 C 218.419189453125 127.45726013183594 219.81724548339844 128.254150390625 221.4835662841797 128.8743896484375 C 223.26821899414062 129.27764892578125 224.9280242919922 129.5166473388672 226.19070434570312 129.6802215576172 C 227.00616455078125 129.8860321044922 227.51214599609375 130.2418212890625 227.92385864257812 130.73526000976562 C 228.40716552734375 131.17660522460938 228.9520263671875 131.5978546142578 229.57786560058594 132.03709411621094 C 230.2705535888672 132.46339416503906 231.02877807617188 132.88148498535156 231.86358642578125 133.2431182861328 C 232.72952270507812 133.535888671875 233.61050415039062 133.78733825683594 234.51023864746094 134.0433807373047 C 235.3850860595703 134.34095764160156 236.2279815673828 134.70477294921875 237.03102111816406 135.1456298828125 C 237.7966766357422 135.67523193359375 238.55923461914062 136.32632446289062 239.27806091308594 137.10159301757812 C 239.95947265625 137.96202087402344 240.61683654785156 138.8937225341797 241.2249755859375 139.90618896484375 C 241.7753143310547 140.96148681640625 242.25491333007812 142.042724609375 242.63917541503906 143.14202880859375 C 242.9385986328125 144.23812866210938 243.13192749023438 145.3003387451172 243.1865692138672 146.3316650390625 C 243.1081085205078 147.3184814453125 242.8548126220703 148.2529754638672 242.44956970214844 149.13967895507812 C 241.8962860107422 149.98574829101562 241.18666076660156 150.79893493652344 240.3544921875 151.56399536132812 C 239.43511962890625 152.2837371826172 238.4521026611328 152.97499084472656 237.41555786132812 153.6218719482422 C 236.33334350585938 154.21127319335938 235.25485229492188 154.7154083251953 234.23558044433594 155.15060424804688 C 233.28475952148438 155.5230255126953 232.36582946777344 155.811767578125 231.4839324951172 156.001220703125 C 230.66702270507812 156.10289001464844 229.9578094482422 156.07858276367188 229.31546020507812 155.83203125 C 228.82476806640625 155.47586059570312 228.5825958251953 154.9969482421875 228.48236083984375 154.41973876953125 C 228.42587280273438 153.81271362304688 228.33705139160156 153.48895263671875 228.14569091796875 153.4610595703125 C 227.85606384277344 153.72650146484375 227.318359375 154.16099548339844 226.3382568359375 154.88372802734375 C 225.06581115722656 156.1502685546875 223.4434814453125 157.758544921875 221.8218231201172 159.28057861328125 C 220.74386596679688 160.3757781982422 220.91989135742188 161.12786865234375 222.3081817626953 160.94692993164062 C 224.90576171875 160.14144897460938 228.42662048339844 158.62091064453125 232.61256408691406 157.3178253173828 C 235.5500030517578 156.83132934570312 235.95156860351562 157.1671905517578 234.1328582763672 158.3704833984375 C 230.392822265625 160.03146362304688 226.1299285888672 161.66371154785156 221.1352996826172 162.4813995361328 C 217.62002563476562 164.20654296875 214.46270751953125 164.4727020263672 211.72572326660156 164.87698364257812 C 209.19749450683594 165.17984008789062 207.370361328125 165.75552368164062 206.60409545898438 166.10694885253906 C 207.14988708496094 166.3922882080078 206.07286071777344 166.55616760253906 204.772216796875 166.6457977294922 C 202.76454162597656 166.6494140625 200.3011474609375 167.60060119628906 197.6230010986328 167.9038848876953 C 195.4201202392578 167.9993896484375 194.3874053955078 167.83837890625 194.63897705078125 166.9095916748047 C 195.9012908935547 165.95079040527344 197.91876220703125 165.84054565429688 200.03150939941406 165.56793212890625 C 201.18093872070312 164.67324829101562 201.09483337402344 164.07313537597656 199.81629943847656 163.61978149414062 C 198.24270629882812 162.9171905517578 196.96884155273438 162.2893524169922 196.31114196777344 162.38272094726562 C 195.96607971191406 164.1156768798828 195.36151123046875 166.5240478515625 193.87948608398438 168.09939575195312 C 191.83016967773438 168.71963500976562 189.10801696777344 167.84445190429688 186.9232177734375 166.78567504882812 C 186.77618408203125 165.90370178222656 188.6278076171875 165.8252716064453 191.35816955566406 166.19891357421875 C 193.8370361328125 166.52565002441406 195.4748077392578 165.97764587402344 195.99952697753906 164.42343139648438 C 196.1764373779297 162.5828094482422 195.44418334960938 161.40890502929688 194.34349060058594 160.42349243164062 C 193.71527099609375 159.62693786621094 193.2674102783203 159.22897338867188 193.39495849609375 159.177734375 C 193.85142517089844 159.66299438476562 194.47103881835938 160.29013061523438 194.74261474609375 160.93397521972656 C 194.55442810058594 161.0940704345703 193.87728881835938 160.62742614746094 192.62367248535156 159.66246032714844 C 191.12646484375 158.28587341308594 189.6493682861328 156.26341247558594 188.40196228027344 153.63763427734375 C 187.36508178710938 150.89730834960938 186.9393768310547 147.6948699951172 187.02256774902344 144.55450439453125 C 187.14596557617188 142.18576049804688 186.6744842529297 141.60577392578125 185.64404296875 143.328369140625 C 184.552001953125 146.8148651123047 183.96287536621094 151.0819091796875 183.8477783203125 154.56533813476562 C 183.2196502685547 155.1613006591797 183.0135955810547 152.94252014160156 182.7967529296875 149.2184600830078 C 182.96014404296875 145.20472717285156 184.8076629638672 141.7943572998047 186.3876495361328 138.68698120117188 C 187.40841674804688 136.0464324951172 189.09324645996094 134.66319274902344 190.33351135253906 133.79489135742188 C 190.9171905517578 132.78904724121094 191.61026000976562 132.3251190185547 192.48565673828125 131.8677215576172 C 193.40211486816406 131.28590393066406 194.23916625976562 130.5433349609375 195.49533081054688 130.0780792236328 C 195.9850616455078 129.4625244140625 196.88955688476562 129.1243896484375 197.74093627929688 128.19126892089844 C 198.8302001953125 127.70087432861328 199.97506713867188 127.36433410644531 201.2879638671875 126.49933624267578 C 203.0688018798828 126.53500366210938 205.32318115234375 126.20992279052734 207.2061309814453 125.62567138671875 C 209.023193359375 124.6675796508789 210.92625427246094 123.3573226928711 211.01341247558594 126.23218536376953" stroke-width="0.0" fill="rgb(138, 70, 29)" opacity="1.0" stroke="rgb(166, 80, 184)" stroke-opacity="0.93284327" stroke-linecap="round" stroke-linejoin="round"/>
    <path d="M 312.5979919433594 105.67291259765625 C 312.91644287109375 106.59423065185547 312.9397888183594 107.45734405517578 313.07373046875 107.97038269042969 C 313.0663146972656 107.747802734375 312.80712890625 107.1565170288086 312.64642333984375 106.27806854248047 C 312.8731994628906 104.84288024902344 313.65667724609375 103.95740509033203 314.74444580078125 104.32820129394531 C 316.4841003417969 104.82994079589844 318.9225769042969 106.19989776611328 321.00146484375 106.33929443359375 C 322.6812438964844 106.96843719482422 323.1814880371094 107.5966796875 322.28460693359375 108.23899841308594 C 320.76904296875 108.7077407836914 319.803466796875 108.7018051147461 320.36627197265625 107.98238372802734 C 322.873779296875 107.64607238769531 324.9652404785156 108.79154968261719 326.678466796875 111.35191345214844 C 329.1814880371094 114.82530212402344 330.4064025878906 117.86814880371094 329.8232421875 120.86565399169922 C 329.6412353515625 122.89904022216797 328.7105407714844 123.11367797851562 328.40118408203125 122.55863189697266 C 328.8653869628906 121.9450454711914 329.5287170410156 121.52450561523438 329.89202880859375 121.52450561523438 C 330.10577392578125 121.90479278564453 330.3588562011719 122.54611206054688 330.4350891113281 123.53614044189453 C 330.57318115234375 124.80004119873047 330.23211669921875 126.25164794921875 329.71435546875 128.06396484375 C 329.348876953125 130.33387756347656 328.4646301269531 132.0994873046875 328.1249694824219 132.92526245117188 C 329.5444641113281 133.0124969482422 331.18072509765625 132.87510681152344 331.783203125 133.52133178710938 C 330.5039367675781 134.15965270996094 328.17266845703125 134.40223693847656 325.9831848144531 134.6241455078125 C 324.5657653808594 135.54379272460938 323.36614990234375 136.73614501953125 322.27459716796875 137.46383666992188 C 321.40411376953125 137.6882781982422 320.8721923828125 137.8528289794922 320.51678466796875 137.86587524414062 C 319.9232177734375 137.94793701171875 318.95751953125 138.3957977294922 317.7779235839844 138.78514099121094 C 316.93731689453125 139.23513793945312 316.2878723144531 139.72283935546875 315.0164794921875 139.67604064941406 C 313.45263671875 140.09722900390625 311.6588134765625 140.87696838378906 309.996826171875 141.37721252441406 C 309.1064453125 140.67457580566406 308.89166259765625 139.7388153076172 309.09759521484375 139.48480224609375 C 309.5250549316406 139.7701873779297 309.41796875 140.6036376953125 308.15643310546875 141.59170532226562 C 306.015625 141.3589324951172 303.8990173339844 141.26522827148438 302.4988098144531 142.0903778076172 C 302.0431823730469 143.70657348632812 301.5164489746094 143.76864624023438 300.5301208496094 142.70135498046875 C 299.5555725097656 141.3307647705078 298.83929443359375 140.28118896484375 298.10528564453125 139.34933471679688 C 297.3866271972656 138.40966796875 296.60821533203125 137.35409545898438 296.42535400390625 136.50941467285156 C 296.12847900390625 135.5387420654297 295.66412353515625 134.5753631591797 294.8155517578125 133.6029815673828 C 294.02642822265625 132.64190673828125 293.43341064453125 131.22445678710938 292.835205078125 129.47589111328125 C 292.2124938964844 127.3369369506836 291.5594787597656 125.23433685302734 291.1963195800781 123.4013442993164 C 291.23712158203125 121.61689758300781 291.46929931640625 120.07298278808594 291.7384948730469 118.82801818847656 C 291.9525146484375 117.78577423095703 292.1114196777344 117.21945190429688 292.1658630371094 117.02640533447266 C 292.2129821777344 117.02381896972656 292.218505859375 117.06755828857422 292.2211608886719 116.9674301147461 C 292.13543701171875 116.66876983642578 292.3326110839844 116.35713958740234 292.883544921875 115.90380859375 C 293.6533508300781 114.98484802246094 293.4461364746094 113.33291625976562 294.24615478515625 111.54227447509766 C 295.2453918457031 110.48296356201172 295.8589172363281 108.92570495605469 297.47515869140625 108.16015625 C 298.4427795410156 107.24267578125 299.40899658203125 106.38318634033203 300.80084228515625 105.77703857421875 C 301.7344970703125 105.66223907470703 302.4377746582031 105.05848693847656 303.1802673339844 104.54732513427734 C 304.3392333984375 104.68135833740234 305.9639892578125 104.89824676513672 308.1436767578125 104.11825561523438 C 311.1286315917969 103.7541275024414 314.9147033691406 104.24530029296875 312.5979919433594 105.67291259765625" stroke-width="0.0" fill="rgb(141, 72, 31)" opacity="1.0" stroke="rgb(4, 66, 193)" stroke-opacity="0.9865705" stroke-linecap="round" stroke-linejoin="round"/>
    <path d="M 223.87069702148438 127.4646224975586 C 225.52545166015625 127.89492797851562 226.8803253173828 128.5782928466797 228.25022888183594 128.8577880859375 C 229.3990936279297 129.28843688964844 230.30551147460938 129.65060424804688 231.0679473876953 129.95138549804688 C 231.6794891357422 130.25294494628906 232.1576690673828 130.5407257080078 232.57672119140625 130.73341369628906 C 232.9934844970703 130.88990783691406 233.42420959472656 131.08409118652344 233.86647033691406 131.35488891601562 C 234.4067840576172 131.6896514892578 235.05038452148438 132.12364196777344 235.76832580566406 132.71615600585938 C 236.62733459472656 133.42164611816406 237.58018493652344 134.21212768554688 238.5181427001953 135.1311492919922 C 239.42425537109375 136.15731811523438 240.286865234375 137.23951721191406 241.05148315429688 138.3264923095703 C 241.72947692871094 139.4561767578125 242.3582000732422 140.6351776123047 242.86927795410156 141.88241577148438 C 243.28811645507812 143.11729431152344 243.6592559814453 144.3020477294922 243.97793579101562 145.44329833984375 C 244.29904174804688 146.5642852783203 244.56626892089844 147.63046264648438 244.73590087890625 148.62344360351562 C 244.71676635742188 149.50393676757812 244.5523681640625 150.32432556152344 244.1999969482422 151.05987548828125 C 243.647705078125 151.68284606933594 242.8859100341797 152.3155975341797 241.9528350830078 152.98062133789062 C 240.796142578125 153.63427734375 239.44393920898438 154.42730712890625 237.9116973876953 155.29173278808594 C 236.21011352539062 156.0330810546875 234.42550659179688 156.8138885498047 232.54537963867188 157.86158752441406 C 230.08016967773438 158.29368591308594 227.97357177734375 158.8301544189453 226.19444274902344 159.48614501953125 C 224.7490692138672 159.95852661132812 223.84356689453125 160.07606506347656 223.28909301757812 159.40109252929688 C 223.44351196289062 158.44137573242188 224.38815307617188 157.3978271484375 225.29624938964844 155.80906677246094 C 226.23037719726562 154.1979522705078 227.3021240234375 152.87278747558594 227.72023010253906 151.0384063720703 C 228.11415100097656 149.35232543945312 228.39111328125 147.8568115234375 228.6792755126953 146.40782165527344 C 228.81666564941406 145.15370178222656 228.8388671875 144.1127471923828 228.78811645507812 143.26246643066406 C 228.65902709960938 142.4844512939453 228.62083435058594 141.70765686035156 228.5850830078125 140.94432067871094 C 228.382080078125 140.13865661621094 228.1878662109375 139.1737518310547 227.86228942871094 138.17105102539062 C 227.35983276367188 137.19142150878906 227.0708770751953 136.11106872558594 226.65528869628906 134.93399047851562 C 225.979736328125 134.05154418945312 225.0048065185547 133.25633239746094 224.0768280029297 132.30690002441406 C 223.11260986328125 130.9252166748047 221.76116943359375 129.35037231445312 219.7327423095703 128.3203125 C 217.43983459472656 127.26386260986328 214.76611328125 126.6366195678711 223.87069702148438 127.4646224975586" stroke-width="0.0" fill="rgb(252, 252, 253)" opacity="0.99978167" stroke="rgb(112, 120, 96)" stroke-opacity="0.11520347" stroke-linecap="round" stroke-linejoin="round"/>
    <path d="M 233.79005432128906 200.83421325683594 C 232.98989868164062 201.11007690429688 232.47288513183594 201.16336059570312 232.227783203125 201.3441619873047 C 232.15951538085938 201.2650909423828 232.2259979248047 201.1716766357422 232.52590942382812 201.1631317138672 C 233.22637939453125 201.07171630859375 234.10597229003906 201.09022521972656 234.93795776367188 201.55880737304688 C 235.8485870361328 202.07630920410156 236.89918518066406 202.42945861816406 238.19656372070312 202.30596923828125 C 239.0301513671875 202.07476806640625 239.5465087890625 202.1112060546875 239.95379638671875 202.85218811035156 C 240.48855590820312 203.70631408691406 240.97317504882812 203.5309600830078 242.0965118408203 203.2813262939453 C 243.90745544433594 203.0734100341797 245.95132446289062 203.25746154785156 247.68106079101562 203.479736328125 C 249.1175537109375 203.46937561035156 250.696044921875 203.46267700195312 252.2459716796875 203.4508514404297 C 253.3278350830078 203.39859008789062 254.07424926757812 203.44393920898438 254.68443298339844 203.5082244873047 C 255.29571533203125 203.25567626953125 256.3861389160156 203.34149169921875 257.9386291503906 203.2914276123047 C 259.73046875 202.9961700439453 261.0868835449219 202.86834716796875 262.3981628417969 202.3167266845703 C 263.5057067871094 202.4451141357422 263.90771484375 202.8739013671875 262.5720520019531 203.1174774169922 C 261.5241394042969 205.1593017578125 260.8612976074219 207.456298828125 259.90234375 209.37338256835938 C 258.840576171875 210.7753143310547 258.59173583984375 212.1565399169922 258.51123046875 213.42178344726562 C 258.275390625 214.1191864013672 258.2674865722656 214.3936004638672 257.6271057128906 214.68760681152344 C 257.4371032714844 216.1990966796875 257.28515625 217.97445678710938 257.392333984375 219.5604705810547 C 257.562744140625 220.77915954589844 257.1766052246094 221.2568817138672 256.7886962890625 222.25772094726562 C 256.8658447265625 224.20249938964844 257.13299560546875 225.81752014160156 257.6343688964844 226.60543823242188 C 258.17681884765625 226.81402587890625 259.14154052734375 227.1932373046875 260.3365478515625 227.63601684570312 C 260.3386535644531 228.2525634765625 259.1233825683594 228.60791015625 257.2609558105469 228.51885986328125 C 255.60043334960938 228.6371307373047 254.36654663085938 228.57943725585938 253.34832763671875 228.41639709472656 C 252.3528289794922 228.43482971191406 251.3916473388672 228.5592803955078 250.442138671875 228.63662719726562 C 249.19790649414062 228.39324951171875 247.57057189941406 227.72207641601562 245.87669372558594 227.58204650878906 C 244.36172485351562 226.6923370361328 242.4496307373047 225.573974609375 240.2469940185547 225.21722412109375 C 238.2788543701172 224.47869873046875 237.05770874023438 223.44105529785156 236.27828979492188 222.5740966796875 C 235.89808654785156 222.21627807617188 235.72238159179688 222.08392333984375 235.70559692382812 222.0589141845703 C 235.6697998046875 221.91079711914062 235.12057495117188 221.4670867919922 234.6656494140625 220.9464569091797 C 234.01773071289062 220.45382690429688 232.96067810058594 219.69686889648438 232.41622924804688 217.87228393554688 C 232.17599487304688 216.18638610839844 231.1633758544922 215.19284057617188 229.8284454345703 214.27346801757812 C 229.01861572265625 213.1958770751953 228.375732421875 212.58396911621094 227.711669921875 211.16958618164062 C 227.31179809570312 209.42086791992188 227.47305297851562 207.83154296875 226.9679718017578 207.02935791015625 C 226.21221923828125 205.69232177734375 224.89456176757812 203.4091796875 224.2100830078125 201.53341674804688 C 224.0543212890625 200.2262420654297 224.08847045898438 198.99435424804688 224.46302795410156 197.9321746826172 C 225.40013122558594 198.21954345703125 226.3848876953125 199.20388793945312 233.79005432128906 200.83421325683594" stroke-width="0.0" fill="rgb(195, 42, 11)" opacity="0.99991894" stroke="rgb(69, 95, 40)" stroke-opacity="0.13136539" stroke-linecap="round" stroke-linejoin="round"/>
    <path d="M 174.6947784423828 176.3016815185547 C 175.3336181640625 176.31747436523438 175.9868927001953 176.33578491210938 176.650146484375 176.35797119140625 C 177.34036254882812 176.3909912109375 178.0635528564453 176.43026733398438 178.81016540527344 176.47161865234375 C 179.58567810058594 176.51710510253906 180.41294860839844 176.56678771972656 181.27215576171875 176.62548828125 C 182.16659545898438 176.68247985839844 183.11941528320312 176.7075958251953 184.09278869628906 176.74070739746094 C 185.09368896484375 176.77127075195312 186.1244659423828 176.76869201660156 187.16372680664062 176.758544921875 C 188.1995849609375 176.7183380126953 189.24183654785156 176.62632751464844 190.26478576660156 176.45416259765625 C 191.25424194335938 176.19451904296875 192.23001098632812 175.87814331054688 193.1895294189453 175.53240966796875 C 194.13397216796875 175.1961669921875 195.0769500732422 174.90414428710938 196.03514099121094 174.69725036621094 C 196.99916076660156 174.57676696777344 197.9705047607422 174.5506591796875 198.9567413330078 174.592041015625 C 199.94302368164062 174.7323455810547 200.93612670898438 174.92503356933594 201.93190002441406 175.1583709716797 C 202.9258575439453 175.42507934570312 203.9298095703125 175.68698120117188 204.9208221435547 175.91860961914062 C 205.89366149902344 176.12123107910156 206.87319946289062 176.2894287109375 207.84176635742188 176.36703491210938 C 208.81118774414062 176.420654296875 209.79808044433594 176.4190673828125 210.8075714111328 176.4075469970703 C 211.84629821777344 176.4000244140625 212.9381103515625 176.39004516601562 214.1043701171875 176.39541625976562 C 215.34368896484375 176.3901824951172 216.6754913330078 176.3511199951172 218.0913848876953 176.28341674804688 C 219.61146545410156 176.1397247314453 221.2198944091797 175.9060821533203 222.91119384765625 175.60252380371094 C 224.6781463623047 175.23342895507812 226.48484802246094 174.86053466796875 228.3349151611328 174.5919647216797 C 230.19683837890625 174.47048950195312 232.0132293701172 174.5369415283203 233.75433349609375 174.7929229736328 C 235.3699493408203 175.30499267578125 236.81085205078125 176.06175231933594 238.03778076171875 177.0552520751953 C 239.02444458007812 178.27606201171875 239.72479248046875 179.6680450439453 240.10911560058594 181.17431640625 C 240.18289184570312 182.73770141601562 239.94500732421875 184.29954528808594 239.3795623779297 185.80142211914062 C 238.4920654296875 187.1824493408203 237.32177734375 188.38226318359375 235.888916015625 189.36181640625 C 234.2133331298828 190.09579467773438 232.341064453125 190.57369995117188 230.32504272460938 190.83717346191406 C 228.20834350585938 190.90457153320312 226.02369689941406 190.83070373535156 223.8221435546875 190.69798278808594 C 221.6390838623047 190.54090881347656 219.52537536621094 190.43203735351562 217.4910125732422 190.4369354248047 C 215.55642700195312 190.60304260253906 213.7766876220703 190.95062255859375 212.13668823242188 191.52420043945312 C 210.6796417236328 192.34518432617188 209.4588623046875 193.38479614257812 208.47084045410156 194.63490295410156 C 207.72581481933594 196.0758819580078 207.25799560546875 197.64508056640625 207.0823974609375 199.29843139648438 C 207.15892028808594 200.9765167236328 207.50762939453125 202.59864807128906 208.169921875 204.0896453857422 C 209.10629272460938 205.40728759765625 210.3135528564453 206.52413940429688 211.72628784179688 207.42181396484375 C 213.2660675048828 208.1558074951172 214.86514282226562 208.77601623535156 216.43032836914062 209.3718719482422 C 217.9097900390625 209.9932861328125 219.25546264648438 210.71788024902344 220.45716857910156 211.6034393310547 C 221.49143981933594 212.68629455566406 222.3389892578125 213.99815368652344 222.99008178710938 215.52420043945312 C 223.45016479492188 217.28582763671875 223.7667236328125 219.24932861328125 223.9560089111328 221.35787963867188 C 224.0543212890625 223.5674591064453 224.08445739746094 225.82830810546875 223.98532104492188 228.076416015625 C 223.73666381835938 230.2487335205078 223.31382751464844 232.28929138183594 222.68170166015625 234.1399688720703 C 221.8241729736328 235.76576232910156 220.78257751464844 237.10035705566406 219.5501708984375 238.12672424316406 C 218.17469787597656 238.82589721679688 216.72024536132812 239.15640258789062 215.2528076171875 239.146484375 C 213.8271484375 238.74205017089844 212.51808166503906 238.00257873535156 211.3490447998047 236.91615295410156 C 210.36380004882812 235.53347778320312 209.56491088867188 233.9359130859375 208.92930603027344 232.18614196777344 C 208.40199279785156 230.3791961669922 207.91427612304688 228.60643005371094 207.3970184326172 226.9557342529297 C 206.73507690429688 225.53060913085938 205.8485565185547 224.36953735351562 204.71424865722656 223.508056640625 C 203.3168182373047 222.89846801757812 201.69406127929688 222.51730346679688 199.8656005859375 222.3477020263672 C 197.90065002441406 222.30958557128906 195.8256378173828 222.37794494628906 193.70584106445312 222.54356384277344 C 191.57803344726562 222.74893188476562 189.4712371826172 222.94520568847656 187.4420928955078 223.0902099609375 C 185.53326416015625 223.1245574951172 183.7636260986328 223.00555419921875 182.1708526611328 222.70648193359375 C 180.81356811523438 222.2018280029297 179.67088317871094 221.48423767089844 178.75955200195312 220.55299377441406 C 178.0364227294922 219.41709899902344 177.46121215820312 218.1120147705078 176.97572326660156 216.68971252441406 C 176.50184631347656 215.1861572265625 175.9697723388672 213.67750549316406 175.30007934570312 212.22850036621094 C 174.43148803710938 210.88970947265625 173.35089111328125 209.70443725585938 172.0625457763672 208.68368530273438 C 170.5875244140625 207.84812927246094 169.00811767578125 207.1577911376953 167.40074157714844 206.54931640625 C 165.85523986816406 205.92713928222656 164.45672607421875 205.22579956054688 163.22584533691406 204.3881378173828 C 162.2080535888672 203.3585205078125 161.42466735839844 202.10081481933594 160.8543701171875 200.61964416503906 C 160.47125244140625 198.912109375 160.248291015625 197.00491333007812 160.12925720214844 194.95046997070312 C 160.10067749023438 192.79464721679688 160.10142517089844 190.58470153808594 160.16030883789062 188.3851318359375 C 160.26353454589844 186.2543182373047 160.47564697265625 184.2538299560547 160.78378295898438 182.42198181152344 C 161.3002166748047 180.8081512451172 162.00997924804688 179.42202758789062 162.92153930664062 178.259765625 C 164.04103088378906 177.3448486328125 165.3704071044922 176.6155548095703 166.89891052246094 176.0594940185547 C 168.58340454101562 175.68182373046875 170.3979034423828 175.41184997558594 172.28826904296875 175.21482849121094 C 174.2162628173828 175.03257751464844 176.16783142089844 174.87779235839844 174.6947784423828 176.3016815185547" stroke-width="0.0" fill="rgb(253, 188, 102)" opacity="0.99924654" stroke="rgb(117, 142, 195)" stroke-opacity="0.16825338" stroke-linecap="round" stroke-linejoin="round"/>
    <path d="M 136.21353149414062 333.7337646484375 C 136.57940673828125 334.22637939453125 136.9988555908203 334.6116027832031 137.4580535888672 334.8554382324219 C 137.92532348632812 335.0970458984375 138.47264099121094 335.1854553222656 139.04393005371094 334.92694091796875 C 139.96102905273438 334.2032775878906 141.50979614257812 332.8985595703125 143.7595977783203 331.1040344238281 C 146.7676239013672 329.2165832519531 149.82308959960938 327.81005859375 152.78053283691406 327.4826354980469 C 155.5272216796875 328.5580749511719 157.98597717285156 330.806884765625 160.38369750976562 333.4474792480469 C 161.7932891845703 337.26202392578125 162.82936096191406 341.4985656738281 161.40745544433594 345.4896240234375 C 159.27642822265625 349.6850280761719 158.60276794433594 353.6635437011719 157.6035919189453 356.8068542480469 C 156.0293731689453 358.9691162109375 154.2062530517578 360.2320251464844 151.66552734375 360.3236389160156 C 149.03036499023438 359.6604919433594 146.88400268554688 358.69000244140625 145.0235137939453 357.718017578125 C 144.11717224121094 357.1272277832031 143.90187072753906 357.0534362792969 144.06185913085938 357.356201171875 C 144.19834899902344 357.9310302734375 144.31199645996094 358.6487121582031 144.47543334960938 359.413818359375 C 144.6654052734375 360.084716796875 144.80271911621094 360.6738586425781 145.1118621826172 361.22515869140625 C 145.65394592285156 361.81201171875 146.18035888671875 362.4535217285156 146.55633544921875 363.2796630859375 C 146.74639892578125 364.3247375488281 146.9643096923828 365.71734619140625 147.36512756347656 367.531494140625 C 147.9384002685547 369.8777160644531 148.6871795654297 372.6683349609375 149.2100067138672 375.8394775390625 C 148.79434204101562 379.0543212890625 147.40850830078125 381.97113037109375 145.0349578857422 384.2680969238281 C 141.88308715820312 385.61126708984375 138.3848419189453 386.2289733886719 134.8771209716797 386.0426330566406 C 131.61668395996094 385.3179626464844 128.79920959472656 383.8243713378906 126.6372299194336 381.89422607421875 C 125.11602783203125 379.57525634765625 124.20419311523438 377.2982177734375 123.81478118896484 375.2158203125 C 123.83441925048828 373.5117492675781 124.0421142578125 372.2397155761719 124.0716552734375 371.33636474609375 C 123.69896697998047 370.49072265625 122.80513000488281 369.60272216796875 121.82168579101562 368.620849609375 C 121.35305786132812 367.4234313964844 121.18113708496094 366.21234130859375 121.15425109863281 365.0849914550781 C 121.27318572998047 364.20941162109375 121.56886291503906 363.6104431152344 122.04105377197266 363.2633361816406 C 122.6613998413086 363.1331481933594 123.34103393554688 363.1301574707031 123.9427490234375 363.1423034667969 C 124.45405578613281 363.1588134765625 124.82392120361328 363.16265869140625 124.9775619506836 363.1642150878906 C 124.8966293334961 363.17034912109375 124.54682922363281 363.0941467285156 123.97777557373047 362.8606262207031 C 123.29008483886719 362.4443664550781 122.54170989990234 361.8172607421875 121.6485366821289 360.9953918457031 C 120.71531677246094 359.9748229980469 119.84432983398438 358.8710021972656 119.27931213378906 357.6520080566406 C 119.0020751953125 356.3843994140625 118.98719787597656 355.1549072265625 119.150146484375 354.0050354003906 C 119.52702331542969 352.96575927734375 120.10331726074219 352.0701599121094 120.8622055053711 351.3117370605469 C 121.74314880371094 350.71624755859375 122.66233825683594 350.2063293457031 123.47695922851562 349.836181640625 C 124.16468811035156 349.6158752441406 124.78446960449219 349.4969177246094 125.27436828613281 349.40362548828125 C 125.57608795166016 349.23773193359375 125.66316223144531 348.9666748046875 125.53007507324219 348.5759582519531 C 125.0653076171875 348.06427001953125 124.42585754394531 347.4085693359375 123.70670318603516 346.5859680175781 C 123.17736053466797 345.537353515625 122.58746337890625 344.327880859375 122.25443267822266 342.9982604980469 C 122.1355209350586 341.55950927734375 122.48345184326172 340.1308288574219 123.1865463256836 338.87530517578125 C 124.17411041259766 337.8127746582031 125.42097473144531 336.94012451171875 126.88777923583984 336.2525329589844 C 128.4445343017578 335.685791015625 129.90615844726562 335.14959716796875 131.353515625 334.6034851074219 C 132.83616638183594 333.9903869628906 134.3336944580078 333.35260009765625 136.21353149414062 333.7337646484375" stroke-width="0.0" fill="rgb(146, 116, 173)" opacity="0.9998114" stroke="rgb(197, 162, 10)" stroke-opacity="0.83741856" stroke-linecap="round" stroke-linejoin="round"/>
  </g>
</svg>
