<?xml version="1.0" ?>
<svg xmlns="http://www.w3.org/2000/svg" version="1.1" width="474" height="596">
  <defs/>
  <g>
    <path d="M 268.6474914550781 -2.3728952407836914 C 269.864501953125 -1.5104340314865112 270.2110290527344 -2.4392776489257812 271.0122375488281 -2.876014471054077 C 272.00518798828125 -3.3907787799835205 272.6602783203125 -3.709195137023926 272.9410400390625 -3.9878852367401123 C 272.87530517578125 -4.218631744384766 273.11175537109375 -4.519661903381348 273.076171875 -4.53724479675293 C 272.7195129394531 -4.3864359855651855 273.42431640625 -4.216796875 273.72857666015625 -4.487216472625732 C 275.10577392578125 -3.3443477153778076 276.9297180175781 -0.9282730221748352 284.5923767089844 -3.6374869346618652 C 282.6213684082031 1.9649393558502197 288.625732421875 1.6802036762237549 296.0464782714844 3.5562682151794434 C 303.797119140625 5.283210277557373 312.0316467285156 8.115506172180176 320.2530822753906 11.522951126098633 C 328.47064208984375 15.020003318786621 336.04656982421875 19.49740219116211 344.2452697753906 24.064815521240234 C 352.4541015625 28.5775089263916 360.2159423828125 34.447391510009766 368.35601806640625 40.891117095947266 C 376.8443603515625 47.63554382324219 384.71856689453125 55.54307556152344 392.291748046875 63.6298828125 C 399.5142517089844 71.25301361083984 405.726318359375 79.49444580078125 411.9600830078125 87.49398040771484 C 417.44366455078125 95.90775299072266 423.6581115722656 104.44275665283203 428.79034423828125 113.52963256835938 C 433.22576904296875 120.44021606445312 435.2447509765625 128.27854919433594 431.912109375 135.63853454589844 C 428.5504150390625 144.53485107421875 422.59625244140625 152.70152282714844 415.8913879394531 161.0839080810547 C 409.26416015625 169.29664611816406 401.1492919921875 177.24783325195312 393.15130615234375 184.44667053222656 C 385.0780944824219 191.5491943359375 376.9679870605469 197.4691925048828 368.9556579589844 203.3633575439453 C 360.9007263183594 209.18667602539062 352.0732727050781 214.98171997070312 342.45989990234375 219.3825225830078 C 332.15350341796875 222.74720764160156 320.9482116699219 225.9159393310547 309.2408752441406 227.07003784179688 C 314.05535888671875 221.77725219726562 319.7135925292969 216.1137237548828 326.83221435546875 208.61390686035156 C 334.8872375488281 200.95494079589844 342.9915466308594 193.26341247558594 350.1864013671875 185.66854858398438 C 355.8965148925781 178.14193725585938 360.30615234375 170.34103393554688 363.6029052734375 162.25013732910156 C 366.11358642578125 153.70458984375 367.5268859863281 145.45693969726562 367.8406066894531 138.15159606933594 C 367.08221435546875 131.7855987548828 365.1488037109375 126.14754486083984 361.5028991699219 121.05611419677734 C 355.1922302246094 117.63385009765625 344.74786376953125 118.6280746459961 343.3811340332031 113.16120147705078 C 338.4850769042969 106.0158462524414 331.6947326660156 102.3734359741211 322.4477233886719 100.66616821289062 C 315.1423034667969 100.27503967285156 306.6845703125 102.4085693359375 302.1705017089844 106.33174133300781 C 292.59088134765625 105.24017333984375 284.319580078125 106.70006561279297 277.6261291503906 109.6974105834961 C 272.6034240722656 111.86329650878906 265.2168273925781 112.45915985107422 259.4710388183594 108.98316955566406 C 255.0657958984375 108.55106353759766 251.01025390625 108.65953063964844 248.91748046875 110.10575866699219 C 247.575927734375 114.70150756835938 244.79551696777344 118.00938415527344 239.25779724121094 119.67632293701172 C 231.656494140625 120.51680755615234 225.2305450439453 123.81673431396484 218.4891357421875 126.93026733398438 C 211.16099548339844 129.37179565429688 203.22425842285156 131.38754272460938 195.00299072265625 133.1779327392578 C 187.26194763183594 134.67918395996094 180.44175720214844 135.76434326171875 174.70355224609375 137.95860290527344 C 168.1984405517578 137.550537109375 162.7940673828125 139.41224670410156 158.31591796875 142.2090301513672 C 154.78170776367188 145.6184844970703 151.94371032714844 150.208984375 149.8164825439453 155.9174041748047 C 148.5764923095703 162.45181274414062 148.2461700439453 169.86451721191406 148.6422576904297 177.90260314941406 C 149.93540954589844 186.24557495117188 152.6848907470703 194.929931640625 156.9170684814453 203.7513885498047 C 162.5589599609375 212.3037567138672 169.64366149902344 220.0991973876953 177.98460388183594 226.39971923828125 C 186.7434844970703 231.32720947265625 195.20687866210938 235.1873779296875 203.156005859375 237.9619598388672 C 210.4612579345703 239.67393493652344 215.16787719726562 239.3816680908203 226.27590942382812 247.0234832763672 C 209.7069854736328 248.08485412597656 203.1515350341797 242.7754669189453 190.62759399414062 239.28909301757812 C 184.22706604003906 238.0987091064453 176.27867126464844 242.01556396484375 169.81690979003906 240.43553161621094 C 159.8638458251953 241.0508270263672 147.57264709472656 240.66250610351562 139.5504608154297 240.0242919921875 C 130.74676513671875 238.73663330078125 120.83271789550781 236.32984924316406 112.8360595703125 234.52528381347656 C 105.85332489013672 232.45162963867188 96.46106719970703 229.68893432617188 89.60289001464844 226.7741241455078 C 80.35466766357422 223.48912048339844 71.5719985961914 219.45277404785156 64.22045135498047 214.66238403320312 C 57.6232795715332 211.10833740234375 53.94302749633789 205.37001037597656 53.50120544433594 199.4425506591797 C 53.15333938598633 189.56863403320312 54.793357849121094 179.80908203125 56.89710235595703 168.98968505859375 C 58.08880615234375 161.2078399658203 60.401145935058594 152.570556640625 62.49985885620117 144.58197021484375 C 64.69906616210938 137.15692138671875 67.48257446289062 128.95709228515625 71.10847473144531 121.6572036743164 C 74.47740173339844 113.48370361328125 78.95490264892578 105.16617584228516 83.3624496459961 97.09529876708984 C 88.26253509521484 88.9535903930664 93.99163818359375 81.11349487304688 100.2790756225586 73.26036071777344 C 107.13697052001953 65.20846557617188 114.29088592529297 56.734622955322266 122.97103881835938 49.9705810546875 C 130.99151611328125 42.91832733154297 139.23214721679688 36.48274230957031 147.322998046875 31.0494327545166 C 154.58201599121094 26.148483276367188 162.42025756835938 24.40207290649414 171.90216064453125 23.717836380004883 C 178.4021759033203 23.136871337890625 189.87664794921875 24.4289493560791 198.23960876464844 27.03257179260254 C 208.15255737304688 28.824642181396484 213.43923950195312 33.85015106201172 213.65264892578125 26.06220245361328 C 214.15650939941406 30.993955612182617 223.13316345214844 28.99920654296875 226.74847412109375 26.712614059448242 C 233.1695098876953 19.48944664001465 240.21363830566406 11.832867622375488 249.87713623046875 6.956676483154297 C 258.8201599121094 2.515763759613037 269.9801025390625 -0.41548120975494385 268.6474914550781 -2.3728952407836914" stroke-width="0.0" fill="rgb(66, 38, 30)" opacity="0.99999094" stroke="rgb(3, 208, 177)" stroke-opacity="0.97436064" stroke-linecap="round" stroke-linejoin="round"/>
    <path d="M 314.6901550292969 227.56387329101562 C 311.9477233886719 225.97357177734375 303.3567199707031 234.22434997558594 294.2637023925781 235.51461791992188 C 293.0418701171875 241.88426208496094 290.4342956542969 250.40066528320312 293.2372741699219 256.1915588378906 C 280.6174621582031 257.038818359375 274.63848876953125 255.9849090576172 264.29364013671875 253.38392639160156 C 251.45945739746094 251.92807006835938 246.90980529785156 249.26499938964844 246.13523864746094 250.5919647216797 C 255.4705810546875 249.49586486816406 265.3133239746094 257.92315673828125 283.4492492675781 255.2255401611328 C 294.3821716308594 250.49594116210938 290.64208984375 269.0354309082031 298.9017028808594 278.6106262207031 C 306.7344665527344 288.1336669921875 310.23211669921875 300.8280944824219 314.4819641113281 306.67108154296875 C 314.9817810058594 308.71685791015625 315.41546630859375 308.88128662109375 312.223876953125 308.3777160644531 C 312.0159912109375 299.365478515625 306.6813659667969 288.18035888671875 298.24981689453125 276.0359802246094 C 291.0025939941406 264.4447326660156 289.66650390625 251.8740692138672 293.9086608886719 240.21617126464844 C 305.6973876953125 240.87734985351562 323.4351806640625 243.52626037597656 343.9588317871094 251.6614227294922 C 363.85223388671875 261.1807861328125 381.83544921875 276.1898498535156 398.6246643066406 283.5914611816406 C 411.2548828125 292.8240661621094 414.900146484375 297.1525573730469 412.4360046386719 295.24188232421875 C 395.8082275390625 296.2961120605469 391.43017578125 292.4793701171875 391.4803771972656 291.3013916015625 C 400.2257385253906 300.1434631347656 415.52252197265625 294.3748779296875 437.5734558105469 286.0885314941406 C 465.4714660644531 321.2518615722656 470.4242858886719 336.1000061035156 435.2186584472656 348.900146484375 C 432.3272705078125 350.6884765625 411.83935546875 341.96923828125 397.02020263671875 329.9833679199219 C 366.2886657714844 328.8689880371094 348.4372253417969 319.5661315917969 324.4646911621094 320.74066162109375 C 324.6976623535156 336.1263427734375 320.5963439941406 347.06903076171875 324.2794189453125 377.80206298828125 C 311.0126037597656 390.6526184082031 307.6821594238281 419.31329345703125 300.979736328125 443.1885681152344 C 293.0849914550781 462.2149963378906 288.6000671386719 481.0110778808594 287.4351501464844 501.3571472167969 C 293.41314697265625 512.4656982421875 298.4309387207031 520.2606201171875 288.5632629394531 525.7200927734375 C 270.8493957519531 530.2979125976562 255.86489868164062 529.2302856445312 239.9722137451172 527.79541015625 C 239.38027954101562 543.379638671875 235.97686767578125 565.3967895507812 242.03810119628906 565.9146728515625 C 255.1278839111328 571.3547973632812 292.9944763183594 572.0091552734375 326.37677001953125 571.562744140625 C 341.0921325683594 567.7685546875 344.64105224609375 561.3863525390625 342.1546325683594 574.4535522460938 C 330.8372497558594 583.0211791992188 311.13409423828125 585.9546508789062 286.1732482910156 584.2685546875 C 260.665283203125 582.811767578125 236.3969268798828 581.9614868164062 234.3936767578125 570.5586547851562 C 231.23101806640625 559.2837524414062 235.0364532470703 520.94873046875 241.33375549316406 498.0838623046875 C 245.2166290283203 475.1846618652344 239.54884338378906 463.66680908203125 228.21197509765625 453.62567138671875 C 227.55758666992188 465.8546447753906 215.8485870361328 473.859375 213.8066864013672 489.33349609375 C 214.8060302734375 498.4425048828125 209.82696533203125 494.4353332519531 206.3942413330078 491.5272521972656 C 205.75848388671875 494.03436279296875 209.79747009277344 494.925537109375 213.0897674560547 494.337158203125 C 209.64605712890625 510.9016418457031 214.1713104248047 531.4923095703125 215.72889709472656 552.3489990234375 C 218.77651977539062 569.0146484375 215.24974060058594 578.2117309570312 201.58279418945312 584.9497680664062 C 178.25900268554688 588.4590454101562 159.86717224121094 599.4315795898438 141.9500732421875 596.4744262695312 C 121.84300994873047 593.7207641601562 116.01497650146484 590.0350341796875 117.89643859863281 579.303466796875 C 142.2930450439453 582.7734985351562 164.37342834472656 581.4208374023438 187.79550170898438 579.083740234375 C 204.7035369873047 576.6825561523438 213.11080932617188 569.9660034179688 213.11907958984375 558.6113891601562 C 211.3857421875 544.2847290039062 210.84878540039062 532.6519775390625 204.98272705078125 529.9005737304688 C 192.3144073486328 531.4187622070312 173.82882690429688 532.2265625 161.51390075683594 528.9210205078125 C 156.26559448242188 521.3170166015625 163.16920471191406 511.6640319824219 166.35643005371094 492.6546325683594 C 166.17071533203125 470.135986328125 160.89141845703125 445.2769775390625 161.85438537597656 412.4483642578125 C 154.24105834960938 393.203125 130.07337951660156 401.60968017578125 119.76156616210938 385.91204833984375 C 109.9988784790039 366.529296875 118.70574951171875 345.8426818847656 107.28970336914062 347.3046569824219 C 81.22904205322266 361.4720764160156 57.500022888183594 364.1308288574219 41.346031188964844 356.6336364746094 C 43.96701431274414 339.22174072265625 57.23046875 319.1873474121094 73.87749481201172 303.024169921875 C 83.92914581298828 293.07098388671875 92.16451263427734 288.7935485839844 90.62188720703125 287.01641845703125 C 90.64523315429688 283.49676513671875 89.30641174316406 284.1131896972656 92.07079315185547 280.00616455078125 C 99.21339416503906 273.042236328125 114.54170989990234 261.34173583984375 133.26382446289062 252.6502685546875 C 153.19761657714844 243.4755401611328 170.86993408203125 237.15243530273438 189.7978057861328 240.7058868408203 C 179.04669189453125 244.9568634033203 176.17984008789062 267.7354431152344 167.36485290527344 290.1062927246094 C 162.04156494140625 309.4568786621094 160.4566650390625 330.29339599609375 159.34519958496094 347.289306640625 C 160.03515625 358.3272705078125 161.8179473876953 365.21484375 160.7344207763672 365.9526672363281 C 161.04483032226562 363.503662109375 159.39942932128906 357.6250915527344 159.8497314453125 347.82171630859375 C 160.2861785888672 334.3113098144531 162.20330810546875 318.3315734863281 165.02743530273438 302.6677551269531 C 167.39822387695312 289.11138916015625 172.88055419921875 272.6328125 178.6208038330078 255.47520446777344 C 181.02023315429688 238.91769409179688 189.59642028808594 238.70343017578125 209.23582458496094 244.4746551513672 C 225.8537139892578 246.90609741210938 240.41714477539062 238.6551971435547 257.0318603515625 231.8282470703125 C 274.6790466308594 225.98268127441406 290.6638488769531 226.6632537841797 314.6901550292969 227.56387329101562" stroke-width="0.0" fill="rgb(230, 107, 161)" opacity="0.9997813" stroke="rgb(140, 47, 85)" stroke-opacity="0.24739273" stroke-linecap="round" stroke-linejoin="round"/>
    <path d="M 333.1289978027344 95.2010269165039 C 335.9833679199219 95.10157775878906 342.4745178222656 93.50726318359375 342.5877990722656 93.78013610839844 C 345.2529296875 92.78353118896484 347.908203125 96.23918914794922 349.8053283691406 98.09075927734375 C 347.5635070800781 96.60556030273438 348.95941162109375 97.43669891357422 349.20721435546875 97.44882202148438 C 349.2753601074219 97.68101501464844 349.583984375 98.96361541748047 350.33868408203125 98.86664581298828 C 350.6852722167969 100.18881225585938 353.0061340332031 101.32907104492188 351.1640625 99.89269256591797 C 353.8385314941406 101.81681060791016 356.7825622558594 105.61467742919922 356.7659606933594 104.43680572509766 C 355.7284240722656 104.44656372070312 360.6205749511719 106.45953369140625 356.44677734375 105.06686401367188 C 358.2485656738281 106.08057403564453 360.1406555175781 109.2164077758789 361.5054016113281 110.9195327758789 C 362.2456970214844 111.7669906616211 364.5174865722656 118.02757263183594 366.6269836425781 122.45381927490234 C 367.36041259765625 126.44713592529297 370.22320556640625 133.26686096191406 370.0241394042969 136.97645568847656 C 371.32806396484375 138.8626708984375 370.72027587890625 144.04336547851562 370.9717712402344 149.00833129882812 C 371.1513366699219 153.5784149169922 369.17669677734375 160.7049560546875 368.2856750488281 164.6916961669922 C 366.6440124511719 167.2916717529297 364.3970642089844 174.10516357421875 361.86126708984375 179.12680053710938 C 360.7062072753906 181.67416381835938 358.2474365234375 185.83399963378906 354.74554443359375 189.4542236328125 C 351.9520263671875 194.0004119873047 348.3459167480469 197.95240783691406 345.2447509765625 201.0519561767578 C 341.6442565917969 205.9363555908203 336.65313720703125 207.96734619140625 333.4305419921875 211.6531219482422 C 329.87384033203125 214.5900115966797 324.9168701171875 217.7214813232422 319.7595520019531 221.02728271484375 C 313.3399963378906 224.58706665039062 311.3487243652344 225.11233520507812 317.1763916015625 223.79168701171875 C 310.88031005859375 225.6487274169922 303.1689147949219 230.19830322265625 299.5758056640625 230.4222412109375 C 296.6641845703125 232.39041137695312 290.7143249511719 234.686279296875 284.9017333984375 236.5889434814453 C 283.2671813964844 239.1132354736328 278.4485168457031 240.4449462890625 274.77655029296875 241.04953002929688 C 270.1271057128906 242.57452392578125 265.6067810058594 241.89060974121094 260.55609130859375 241.1029052734375 C 254.9947509765625 242.29212951660156 250.41896057128906 242.6062469482422 246.681396484375 243.65699768066406 C 242.64804077148438 242.7493438720703 236.8335723876953 244.60557556152344 229.18807983398438 245.50282287597656 C 226.77481079101562 244.0012969970703 220.41038513183594 243.92068481445312 225.76272583007812 244.300537109375 C 215.0142059326172 242.64271545410156 208.14720153808594 241.33273315429688 202.55442810058594 239.504638671875 C 198.9149627685547 238.35545349121094 194.21697998046875 237.0170135498047 190.9051055908203 235.4916229248047 C 186.53944396972656 232.61456298828125 182.12387084960938 230.67373657226562 179.62208557128906 228.7975311279297 C 175.4822235107422 227.7078399658203 171.44679260253906 224.03724670410156 168.12802124023438 221.37367248535156 C 164.3463134765625 218.48048400878906 159.8731231689453 214.14698791503906 158.0261688232422 210.8944854736328 C 154.36647033691406 207.9822540283203 150.93597412109375 203.0076904296875 148.79110717773438 197.84222412109375 C 146.71951293945312 194.1024169921875 144.8196563720703 187.72515869140625 143.89889526367188 183.3346405029297 C 143.67835998535156 179.57998657226562 142.32020568847656 171.0904083251953 142.625 172.87808227539062 C 142.90145874023438 163.2196807861328 144.6853790283203 158.67864990234375 146.94908142089844 152.41012573242188 C 147.26336669921875 148.44863891601562 155.68307495117188 148.6910858154297 154.78736877441406 144.41619873046875 C 157.80921936035156 140.04879760742188 157.07135009765625 132.29122924804688 157.84031677246094 127.24593353271484 C 159.9176483154297 130.33836364746094 163.08584594726562 131.53329467773438 164.79698181152344 134.29148864746094 C 167.650390625 138.2039794921875 168.13780212402344 137.22073364257812 176.99234008789062 135.3200225830078 C 181.68894958496094 132.6726837158203 188.8125457763672 130.84359741210938 189.1768035888672 128.0308837890625 C 193.67311096191406 128.82469177246094 199.6727294921875 124.7376937866211 206.47735595703125 124.55204772949219 C 207.28643798828125 123.41345977783203 211.8972625732422 122.22066497802734 215.89561462402344 120.22130584716797 C 219.2901611328125 120.39962005615234 222.6671905517578 118.44844818115234 230.03494262695312 117.04554748535156 C 238.21533203125 115.63574981689453 243.3231201171875 114.84331512451172 244.29913330078125 111.77033233642578 C 245.80662536621094 111.23712158203125 245.10760498046875 109.15306091308594 242.76031494140625 104.41675567626953 C 241.46778869628906 94.92780303955078 238.6676483154297 94.017578125 242.41981506347656 94.6866683959961 C 246.3840789794922 96.5295639038086 249.27354431152344 98.75730895996094 252.3766326904297 102.76924133300781 C 256.2362976074219 104.13363647460938 259.9295349121094 107.52885437011719 261.69647216796875 108.40662384033203 C 266.6307067871094 107.81167602539062 271.91632080078125 107.95043182373047 274.9789733886719 107.2425308227539 C 281.0700988769531 105.21299743652344 287.8356018066406 103.87049102783203 293.4407043457031 102.8436279296875 C 297.4904479980469 101.84083557128906 301.7806396484375 100.16468811035156 309.2721862792969 100.11857604980469 C 302.5576477050781 103.62513732910156 298.4322814941406 105.52613830566406 303.61248779296875 104.47342681884766 C 315.9501037597656 104.3270263671875 313.7799072265625 104.11783599853516 321.1922302246094 105.91535949707031 C 325.88037109375 109.20269012451172 329.7312316894531 112.03067779541016 330.2372131347656 118.34539031982422 C 331.5274963378906 122.13288116455078 329.7005920410156 124.80432891845703 329.1400451660156 129.64642333984375 C 327.69891357421875 133.61968994140625 324.64495849609375 132.73367309570312 331.3816833496094 132.5027313232422 C 336.61004638671875 130.6778106689453 341.112060546875 128.27133178710938 345.3853759765625 125.70171356201172 C 345.08624267578125 127.0748291015625 346.5129089355469 115.56542205810547 344.1028137207031 116.0501480102539 C 347.4419250488281 112.36038970947266 342.2118835449219 109.07015991210938 340.3505554199219 106.85862731933594 C 335.92864990234375 102.63679504394531 329.09759521484375 99.4427261352539 322.1168212890625 98.92223358154297 C 310.0201416015625 98.38755798339844 307.9151611328125 99.84898376464844 333.1289978027344 95.2010269165039" stroke-width="0.0" fill="rgb(249, 187, 105)" opacity="1.0" stroke="rgb(218, 170, 8)" stroke-opacity="0.27622667" stroke-linecap="round" stroke-linejoin="round"/>
    <path d="M 179.5731964111328 379.7086486816406 C 175.6038055419922 377.9916687011719 174.19583129882812 377.7713623046875 173.97528076171875 379.6418762207031 C 174.5776824951172 381.88604736328125 175.5503387451172 381.84173583984375 176.4166259765625 381.9553527832031 C 177.5408172607422 381.9006652832031 178.69046020507812 381.91326904296875 179.48593139648438 381.6541442871094 C 180.4231414794922 381.33343505859375 181.8385467529297 380.4155578613281 183.95706176757812 378.5126953125 C 184.43040466308594 381.1273498535156 188.44435119628906 380.7451171875 186.3440704345703 375.7691650390625 C 185.84539794921875 379.8569030761719 187.02322387695312 381.47406005859375 188.8016815185547 380.193115234375 C 190.53675842285156 380.4673767089844 191.87225341796875 380.83770751953125 192.6807861328125 381.4706726074219 C 193.39501953125 381.4288024902344 195.86532592773438 381.44580078125 198.60545349121094 382.517822265625 C 201.8666534423828 383.19775390625 205.12879943847656 381.16912841796875 212.21031188964844 383.6991882324219 C 207.52127075195312 386.90447998046875 208.62240600585938 389.1931457519531 207.53443908691406 391.8541259765625 C 205.98342895507812 394.1537780761719 204.47157287597656 395.45953369140625 202.32614135742188 396.25286865234375 C 200.98275756835938 397.13946533203125 198.58343505859375 397.614501953125 198.078369140625 397.7651062011719 C 198.86183166503906 397.5606994628906 198.61282348632812 397.4229736328125 199.86314392089844 397.1106872558594 C 201.50047302246094 396.981689453125 204.5184326171875 396.3939208984375 207.78793334960938 391.4593811035156 C 208.24879455566406 385.2623596191406 211.5497589111328 384.8313903808594 216.9326629638672 378.32073974609375 C 223.63595581054688 386.3313903808594 227.47447204589844 381.8526306152344 231.63778686523438 382.5307922363281 C 235.80665588378906 384.54290771484375 239.66046142578125 382.0054016113281 249.45896911621094 382.1649169921875 C 248.05792236328125 387.1095886230469 250.27232360839844 387.5028076171875 253.61083984375 380.8603210449219 C 257.9669189453125 383.2095947265625 261.5083312988281 384.1969909667969 265.4413757324219 379.7866516113281 C 268.79315185546875 379.3482971191406 271.9209289550781 384.6968994140625 273.1602478027344 377.3381042480469 C 276.3348693847656 380.69818115234375 282.6272277832031 384.3165588378906 282.32501220703125 379.0404968261719 C 295.2138671875 380.2669982910156 304.5667419433594 373.8580322265625 313.22979736328125 380.25537109375 C 317.4224548339844 381.2147216796875 314.8397216796875 385.96173095703125 316.07293701171875 394.5296325683594 C 315.3357849121094 397.9692687988281 313.0043029785156 408.0081787109375 311.03955078125 420.9421691894531 C 309.42181396484375 429.04779052734375 305.9178161621094 438.1349182128906 303.4830017089844 446.6418151855469 C 301.88751220703125 453.091064453125 302.2262878417969 460.8162841796875 299.1022644042969 470.1134948730469 C 291.794189453125 476.10089111328125 286.2249755859375 475.8477478027344 289.39495849609375 468.918212890625 C 288.9894714355469 460.78814697265625 290.0306396484375 462.90093994140625 287.9971008300781 472.39825439453125 C 295.0630798339844 466.8292236328125 291.5001525878906 469.1244812011719 289.1632080078125 472.69049072265625 C 281.85107421875 472.1585388183594 276.2271728515625 473.55230712890625 259.93682861328125 471.6800842285156 C 256.6708068847656 475.73931884765625 251.06236267089844 475.5400085449219 250.577392578125 471.5404968261719 C 238.4324188232422 474.1869812011719 243.97238159179688 470.6099548339844 246.27719116210938 467.3304138183594 C 244.69583129882812 457.9178161621094 247.8975372314453 452.92572021484375 245.35028076171875 454.0185241699219 C 248.43951416015625 451.7918701171875 249.6255645751953 452.1888732910156 248.49398803710938 451.6320495605469 C 248.40020751953125 450.92559814453125 246.2631072998047 452.9228820800781 245.2579803466797 452.5137023925781 C 242.95782470703125 448.27398681640625 239.92564392089844 446.4951171875 240.3880615234375 441.56903076171875 C 238.55381774902344 437.48236083984375 236.17587280273438 436.9763488769531 236.90505981445312 438.7474365234375 C 237.85877990722656 436.8841857910156 235.63076782226562 435.948486328125 235.27076721191406 436.1437072753906 C 233.63525390625 436.3646545410156 234.1713104248047 436.1825866699219 235.9781951904297 436.8769836425781 C 236.96914672851562 436.654052734375 237.0 435.745361328125 236.61770629882812 437.29168701171875 C 239.89625549316406 440.07342529296875 239.4241943359375 437.29864501953125 234.01742553710938 436.8746337890625 C 234.89498901367188 435.7832336425781 238.82769775390625 436.4610290527344 239.43092346191406 442.2037658691406 C 241.07029724121094 445.44891357421875 249.16415405273438 452.2229919433594 244.60455322265625 470.61309814453125 C 228.6623077392578 471.7659606933594 235.4758758544922 444.6637878417969 228.13525390625 455.1093444824219 C 226.47169494628906 466.4896240234375 228.76263427734375 476.31072998046875 219.24485778808594 474.56005859375 C 212.33396911621094 476.4999694824219 215.1966552734375 494.50823974609375 208.52084350585938 493.9333190917969 C 204.6519012451172 473.4932861328125 203.56324768066406 474.7911071777344 204.3733673095703 473.78076171875 C 202.5721893310547 479.3868408203125 197.51583862304688 475.22705078125 185.72439575195312 483.4090576171875 C 180.39060974121094 475.4345703125 177.70794677734375 472.65948486328125 177.74468994140625 467.024658203125 C 178.40997314453125 464.6267395019531 176.31349182128906 466.7593078613281 180.07400512695312 475.8103942871094 C 185.02394104003906 470.6995849609375 183.93556213378906 474.3974609375 174.8963165283203 477.0135803222656 C 170.26304626464844 474.889404296875 161.85678100585938 479.65716552734375 167.0541229248047 474.7757873535156 C 159.1627197265625 470.14935302734375 159.0458221435547 470.6943664550781 157.51129150390625 463.53204345703125 C 158.0432891845703 461.97296142578125 156.67750549316406 454.20062255859375 156.17507934570312 445.9494323730469 C 154.9322509765625 442.1879577636719 156.04547119140625 432.8984069824219 154.40077209472656 434.4400329589844 C 154.41001892089844 424.46142578125 152.97328186035156 421.68768310546875 153.4689178466797 412.61956787109375 C 153.9219512939453 413.7635192871094 152.25784301757812 410.3814392089844 152.37924194335938 405.9660949707031 C 152.329345703125 401.97308349609375 153.475830078125 398.2894592285156 154.37100219726562 394.53814697265625 C 155.31124877929688 390.73486328125 155.0672607421875 384.95355224609375 157.09190368652344 383.0777893066406 C 162.8585662841797 382.14373779296875 164.17564392089844 378.5262145996094 179.5731964111328 379.7086486816406" stroke-width="0.0" fill="rgb(252, 76, 2)" opacity="0.9999484" stroke="rgb(69, 250, 196)" stroke-opacity="0.5656443" stroke-linecap="round" stroke-linejoin="round"/>
    <path d="M 288.5323181152344 14.986899375915527 C 289.5528869628906 14.456953048706055 290.5858459472656 13.969279289245605 291.64544677734375 13.596824645996094 C 292.7572021484375 13.435577392578125 293.9346923828125 13.561589241027832 295.1559143066406 14.042966842651367 C 296.4076843261719 14.967975616455078 297.712890625 16.37953758239746 299.0975341796875 18.307117462158203 C 300.5643310546875 20.77564239501953 302.1439208984375 23.718196868896484 303.90191650390625 27.059370040893555 C 305.9346923828125 30.685497283935547 308.2433776855469 34.50362777709961 310.7193298339844 38.4561882019043 C 313.3108825683594 42.49578094482422 315.95562744140625 46.54090881347656 318.6131286621094 50.5325927734375 C 321.20611572265625 54.36935806274414 323.6944885253906 57.95177459716797 325.99969482421875 61.225067138671875 C 328.0818786621094 64.13746643066406 329.78125 66.6740951538086 330.93634033203125 68.9039077758789 C 331.3974609375 70.8892822265625 331.11260986328125 72.69993591308594 330.0768127441406 74.3974609375 C 328.33160400390625 76.01940155029297 325.9612731933594 77.61829376220703 323.0942077636719 79.24293518066406 C 319.8957824707031 80.93951416015625 316.45928955078125 82.71393585205078 312.8643493652344 84.58003234863281 C 309.2126770019531 86.51554107666016 305.580078125 88.4631576538086 301.9761047363281 90.35247039794922 C 298.3624267578125 92.10615539550781 294.7178955078125 93.613037109375 290.9801330566406 94.74668884277344 C 287.0946350097656 95.35639953613281 282.9974060058594 95.3227310180664 278.6640625 94.57174682617188 C 274.1141662597656 93.18870544433594 269.38385009765625 91.31884765625 264.5058288574219 89.1664810180664 C 259.5659484863281 86.85724639892578 254.62445068359375 84.65192413330078 249.80465698242188 82.77962493896484 C 245.2027587890625 81.37116241455078 240.9447479248047 80.5560302734375 237.11756896972656 80.42730712890625 C 233.77320861816406 80.98419189453125 230.95114135742188 82.2876205444336 228.64532470703125 84.29363250732422 C 226.87777709960938 86.98152923583984 225.5290069580078 90.2010269165039 224.4838409423828 93.75409698486328 C 223.61988830566406 97.43614196777344 222.67855834960938 101.00755310058594 221.4607696533203 104.25101470947266 C 219.79425048828125 107.04850769042969 217.54742431640625 109.27698516845703 214.6439666748047 110.88990020751953 C 211.0309600830078 111.8794174194336 206.7708282470703 112.34860229492188 201.92832946777344 112.43260955810547 C 196.6577606201172 112.27560424804688 191.12269592285156 111.91400909423828 185.4543914794922 111.42381286621094 C 179.8037109375 110.9420394897461 174.30438232421875 110.60736846923828 169.07540893554688 110.52092742919922 C 164.23594665527344 110.77396392822266 159.87469482421875 111.3974380493164 156.00430297851562 112.40161895751953 C 152.59422302246094 113.83602142333984 149.6334991455078 115.70431518554688 147.09222412109375 117.9969711303711 C 144.91671752929688 120.70771789550781 142.97860717773438 123.78050231933594 141.16741943359375 127.1446533203125 C 139.41799926757812 130.7117156982422 137.67042541503906 134.4365234375 135.9228973388672 138.26214599609375 C 134.2147979736328 142.16622924804688 132.6533660888672 146.15826416015625 131.33401489257812 150.25192260742188 C 130.34681701660156 154.4775848388672 129.6444854736328 158.834716796875 129.17520141601562 163.2889404296875 C 128.59396362304688 167.75393676757812 127.8276596069336 172.1310577392578 126.64469146728516 176.32594299316406 C 124.89601135253906 180.21450805664062 122.48517608642578 183.67703247070312 119.36631774902344 186.61297607421875 C 115.52932739257812 188.9386749267578 111.03031921386719 190.6404266357422 105.94480895996094 191.69688415527344 C 100.41326141357422 192.17002868652344 94.62964630126953 192.12135314941406 88.82435607910156 191.5651397705078 C 83.2352294921875 190.51976013183594 78.08943939208984 189.00222778320312 73.57762145996094 187.02621459960938 C 69.88854217529297 184.6066131591797 67.1890869140625 181.8208465576172 65.54312896728516 178.66278076171875 C 64.9338607788086 175.16746520996094 65.206298828125 171.40980529785156 66.21863555908203 167.42987060546875 C 67.82495880126953 163.28436279296875 69.80674743652344 158.9878692626953 71.97824096679688 154.588134765625 C 74.16914367675781 150.12442016601562 76.26823425292969 145.63504028320312 78.20941162109375 141.1449432373047 C 79.9461441040039 136.68991088867188 81.55980682373047 132.33314514160156 83.12609100341797 128.09022521972656 C 84.77574920654297 124.00927734375 86.54729461669922 120.15180969238281 88.44692993164062 116.5038070678711 C 90.48472595214844 113.05640411376953 92.66242980957031 109.78845977783203 94.95337677001953 106.67215728759766 C 97.3368148803711 103.69550323486328 99.81944274902344 100.81156158447266 102.37467956542969 97.97080993652344 C 104.97985076904297 95.13396453857422 107.6356201171875 92.254638671875 110.35698699951172 89.3346939086914 C 113.18147277832031 86.35187530517578 116.10650634765625 83.31121826171875 119.18339538574219 80.21669006347656 C 122.41368103027344 77.02743530273438 125.7897720336914 73.76376342773438 129.27577209472656 70.39629364013672 C 132.84088134765625 66.91483306884766 136.4123992919922 63.30702209472656 139.9573211669922 59.57578659057617 C 143.4615478515625 55.78606033325195 146.90928649902344 52.00729751586914 150.2865447998047 48.31371307373047 C 153.64231872558594 44.86943054199219 156.99887084960938 41.803123474121094 160.39718627929688 39.22748565673828 C 163.8943634033203 37.258514404296875 167.4889373779297 35.93450927734375 171.22677612304688 35.28770446777344 C 175.14019775390625 35.29677963256836 179.22036743164062 35.852989196777344 183.45602416992188 36.846614837646484 C 187.82199096679688 38.17107391357422 192.2901611328125 39.649688720703125 196.80833435058594 41.13843536376953 C 201.33071899414062 42.47618103027344 205.82435607910156 43.517539978027344 210.23919677734375 44.12103271484375 C 214.4771270751953 44.176204681396484 218.47998046875 43.54874038696289 222.1858367919922 42.19489669799805 C 225.5699920654297 40.1588134765625 228.6566925048828 37.61871337890625 231.45799255371094 34.76436233520508 C 234.0399932861328 31.77705955505371 236.50970458984375 28.82137680053711 238.91046142578125 25.979442596435547 C 241.42190551757812 23.387454986572266 244.2109832763672 21.137582778930664 247.37509155273438 19.2728214263916 C 251.00054931640625 17.784095764160156 255.09996032714844 16.677499771118164 259.6327819824219 15.92541790008545 C 264.5315856933594 15.47289752960205 269.69622802734375 15.260083198547363 275.03607177734375 15.218361854553223 C 280.4703369140625 15.281448364257812 285.9167785644531 15.346211433410645 288.5323181152344 14.986899375915527" stroke-width="0.0" fill="rgb(61, 39, 36)" opacity="0.999103" stroke="rgb(193, 237, 200)" stroke-opacity="0.90233845" stroke-linecap="round" stroke-linejoin="round"/>
    <path d="M 209.38572692871094 272.39031982421875 C 210.41404724121094 271.75347900390625 211.49044799804688 271.18902587890625 212.57240295410156 270.6956787109375 C 213.67919921875 270.24853515625 214.80221557617188 269.8478698730469 215.94931030273438 269.5356750488281 C 217.10276794433594 269.37249755859375 218.2231903076172 269.2412109375 219.33053588867188 269.2411804199219 C 220.46075439453125 269.3425598144531 221.57498168945312 269.53387451171875 222.6223907470703 269.89080810546875 C 223.56845092773438 270.38653564453125 224.4377899169922 270.91119384765625 225.2208709716797 271.2995300292969 C 225.95785522460938 271.4953918457031 226.67449951171875 271.58258056640625 227.46673583984375 271.5899963378906 C 228.4102020263672 271.5178527832031 229.63343811035156 271.31201171875 231.11181640625 271.10382080078125 C 232.8985137939453 270.8110656738281 234.9796142578125 270.4039306640625 237.33389282226562 270.0387268066406 C 239.94493103027344 269.711181640625 242.76849365234375 269.3352966308594 245.75543212890625 268.9738464355469 C 248.90380859375 268.6045837402344 252.16749572753906 268.293212890625 255.46128845214844 268.1087951660156 C 258.71600341796875 268.3038024902344 261.85931396484375 268.9621887207031 264.7682800292969 270.0066223144531 C 267.38604736328125 271.4361572265625 269.6529846191406 273.2448425292969 271.54461669921875 275.27227783203125 C 272.9893493652344 277.3879699707031 273.93646240234375 279.5928955078125 274.5085144042969 281.8431701660156 C 274.7491455078125 284.1310119628906 274.67626953125 286.3624267578125 274.41827392578125 288.571533203125 C 274.0604553222656 290.6964111328125 273.7252197265625 292.7135925292969 273.58489990234375 294.63519287109375 C 273.7671203613281 296.4343566894531 274.3006591796875 298.1468200683594 275.1792907714844 299.7939453125 C 276.3943786621094 301.3971862792969 277.96356201171875 302.9748840332031 279.8600769042969 304.5097961425781 C 282.0080261230469 305.9885559082031 284.2711181640625 307.4670715332031 286.6052551269531 308.89324951171875 C 288.94622802734375 310.2262878417969 291.1896057128906 311.6379699707031 293.2215881347656 313.1177673339844 C 295.15179443359375 314.7279357910156 296.855712890625 316.4008483886719 298.26910400390625 318.2189636230469 C 299.5091247558594 320.1804504394531 300.51519775390625 322.25634765625 301.2727355957031 324.4516296386719 C 301.8885498046875 326.77349853515625 302.3380432128906 329.17095947265625 302.7107849121094 331.6313171386719 C 303.02337646484375 334.1045837402344 303.32647705078125 336.54510498046875 303.6607666015625 338.9805603027344 C 304.1252746582031 341.4166564941406 304.80731201171875 343.8047790527344 305.59088134765625 346.16900634765625 C 306.4863586425781 348.4726257324219 307.4671630859375 350.74847412109375 308.48297119140625 352.9915466308594 C 309.37799072265625 355.1676330566406 310.0596618652344 357.3357849121094 310.4768371582031 359.3875427246094 C 310.5154113769531 361.2967529296875 310.0781555175781 363.0349426269531 309.13787841796875 364.47943115234375 C 307.6798095703125 365.66864013671875 305.70855712890625 366.5947570800781 303.2969055175781 367.21649169921875 C 300.5531005859375 367.6290588378906 297.5675354003906 367.84796142578125 294.4071350097656 367.926025390625 C 291.1309814453125 367.9214172363281 287.8101806640625 367.8482971191406 284.5281677246094 367.7451477050781 C 281.2916564941406 367.6948547363281 278.10296630859375 367.6197204589844 274.9892578125 367.4866027832031 C 271.943115234375 367.4332275390625 268.9479064941406 367.5728454589844 265.9833679199219 367.9130859375 C 263.0534973144531 368.34832763671875 260.1240234375 368.6976623535156 257.1485900878906 368.86474609375 C 254.13821411132812 368.9026794433594 251.08984375 368.8638610839844 248.00204467773438 368.7589111328125 C 244.88815307617188 368.67620849609375 241.79090881347656 368.56610107421875 238.7106170654297 368.2597351074219 C 235.65231323242188 367.7420349121094 232.6444854736328 367.23590087890625 229.69671630859375 366.91241455078125 C 226.82296752929688 366.74017333984375 224.03958129882812 366.6600036621094 221.33169555664062 366.71527099609375 C 218.6898956298828 366.9757385253906 216.12071228027344 367.4814147949219 213.5997772216797 368.1033020019531 C 211.1025848388672 368.75079345703125 208.6300048828125 369.3064880371094 206.1905517578125 369.708984375 C 203.76658630371094 370.0122375488281 201.37881469726562 370.2729797363281 199.0326690673828 370.41571044921875 C 196.67018127441406 370.53857421875 194.275146484375 370.7080078125 191.84519958496094 370.80889892578125 C 189.37237548828125 370.8596496582031 186.8374786376953 370.8016662597656 184.1452178955078 370.6532287597656 C 181.28509521484375 370.44403076171875 178.27720642089844 370.13641357421875 175.2006378173828 369.71307373046875 C 172.1077423095703 369.1332702636719 168.99212646484375 368.4917907714844 166.02175903320312 367.8804931640625 C 163.3917236328125 367.0318298339844 161.29298400878906 365.8671569824219 159.83909606933594 364.3525085449219 C 159.11224365234375 362.49835205078125 159.22393798828125 360.5135192871094 160.00741577148438 358.3162536621094 C 161.34657287597656 356.0086669921875 163.0087890625 353.6461486816406 164.84715270996094 351.4569091796875 C 166.75099182128906 349.30169677734375 168.6265411376953 347.1117858886719 170.2811279296875 345.0613708496094 C 171.64588928222656 343.12255859375 172.7060089111328 341.2719421386719 173.53671264648438 339.4073181152344 C 174.25289916992188 337.4409484863281 174.93719482421875 335.35040283203125 175.6577911376953 333.162841796875 C 176.41256713867188 330.91278076171875 177.2538299560547 328.67828369140625 178.2657470703125 326.4878845214844 C 179.42616271972656 324.3493957519531 180.5323028564453 322.22161865234375 181.53041076660156 320.1158447265625 C 182.55691528320312 318.15362548828125 183.63853454589844 316.3221740722656 184.7709197998047 314.5869140625 C 185.91363525390625 312.9261474609375 187.2703857421875 311.3147888183594 188.5659637451172 309.66046142578125 C 189.67095947265625 307.8177795410156 190.47161865234375 305.74591064453125 191.1739501953125 303.57171630859375 C 191.7644805908203 301.2693786621094 192.3474884033203 298.84832763671875 192.99313354492188 296.3580627441406 C 193.95333862304688 293.8870544433594 195.3414764404297 291.573486328125 196.89906311035156 289.26416015625 C 198.66854858398438 287.0655822753906 200.50143432617188 284.8957824707031 202.430419921875 282.90069580078125 C 204.26304626464844 280.9693603515625 206.06039428710938 279.043701171875 207.82879638671875 277.09552001953125 C 209.56732177734375 275.1788635253906 211.304931640625 273.3083801269531 209.38572692871094 272.39031982421875" stroke-width="0.0" fill="rgb(254, 111, 167)" opacity="0.9992871" stroke="rgb(132, 19, 7)" stroke-opacity="0.85743266" stroke-linecap="round" stroke-linejoin="round"/>
    <path d="M 304.1900329589844 377.5710754394531 C 305.9945983886719 377.7547302246094 307.9385070800781 378.31646728515625 309.90966796875 379.4950866699219 C 311.8556213378906 381.77642822265625 313.88226318359375 385.2309265136719 315.36273193359375 389.4362487792969 C 315.4183654785156 394.9735412597656 313.6499328613281 402.3274841308594 312.65234375 410.68975830078125 C 310.5760192871094 419.51715087890625 308.3688049316406 429.6385498046875 306.1065368652344 440.1908874511719 C 303.30413818359375 449.6338806152344 299.7315673828125 457.6427001953125 294.7972106933594 465.0950927734375 C 289.219970703125 472.36053466796875 285.0050964355469 480.0061950683594 283.1409912109375 488.4804992675781 C 283.46466064453125 496.6371154785156 287.24981689453125 502.7751159667969 294.064208984375 505.90289306640625 C 299.8680725097656 508.5048828125 300.3038330078125 513.0068359375 295.70721435546875 518.6031494140625 C 289.5118408203125 523.7823486328125 288.6004943847656 529.3319091796875 294.936279296875 534.1110229492188 C 306.9959411621094 538.5680541992188 320.8802490234375 543.8162841796875 333.2461853027344 550.2857666015625 C 341.8277893066406 556.5200805664062 344.7162780761719 562.8646850585938 343.334716796875 567.0947875976562 C 341.25421142578125 566.088623046875 339.832275390625 560.961669921875 335.64892578125 555.107421875 C 326.4765319824219 551.1507568359375 316.051025390625 546.449951171875 307.1108703613281 539.2177124023438 C 299.5444641113281 531.3739013671875 292.1075439453125 527.4913330078125 283.45538330078125 529.5800170898438 C 273.2042541503906 533.211669921875 262.21099853515625 534.5647583007812 252.07302856445312 533.2770385742188 C 244.29432678222656 530.0631713867188 239.86341857910156 529.2351684570312 238.07237243652344 533.6849365234375 C 237.81610107421875 542.0536499023438 237.80935668945312 552.3248291015625 238.93313598632812 561.0108642578125 C 243.00987243652344 567.5396728515625 250.46621704101562 570.976318359375 260.0714111328125 572.2785034179688 C 270.2869567871094 572.9653930664062 280.41925048828125 573.2133178710938 290.21807861328125 573.4568481445312 C 299.5072937011719 573.3023681640625 307.6291809082031 573.5005493164062 313.7493896484375 574.143798828125 C 317.2331237792969 575.5782470703125 317.95135498046875 577.0447998046875 316.10833740234375 578.2891845703125 C 311.8348083496094 579.5973510742188 305.6229248046875 580.4503173828125 298.01324462890625 580.6070556640625 C 289.5177917480469 580.514404296875 280.5758056640625 580.4844970703125 271.5687255859375 580.2084350585938 C 262.6961975097656 579.4575805664062 254.2825927734375 577.8358764648438 247.013916015625 574.4931030273438 C 241.65170288085938 568.791259765625 238.56211853027344 560.72607421875 237.8273162841797 550.8009033203125 C 238.5194549560547 540.4907836914062 238.58058166503906 531.7461547851562 235.0008544921875 525.3436889648438 C 227.6985321044922 522.3467407226562 224.36663818359375 518.1964111328125 228.0613555908203 512.6846923828125 C 237.1401824951172 507.8287048339844 245.39874267578125 501.2441101074219 248.81178283691406 490.7496643066406 C 247.21731567382812 479.7021179199219 241.47958374023438 470.0870056152344 233.659423828125 465.05877685546875 C 225.60269165039062 467.10382080078125 217.89459228515625 471.4208679199219 211.83009338378906 478.47833251953125 C 208.80238342285156 488.37542724609375 208.37811279296875 498.63397216796875 210.62054443359375 506.97552490234375 C 216.74095153808594 510.69659423828125 221.16539001464844 513.85595703125 221.39903259277344 517.9490356445312 C 217.03530883789062 520.8767700195312 211.95982360839844 524.4910278320312 210.14959716796875 531.1476440429688 C 211.17762756347656 542.4031372070312 213.26165771484375 555.7158813476562 216.61480712890625 568.1226806640625 C 219.1182861328125 578.1716918945312 216.95999145507812 584.0450439453125 209.62408447265625 586.4951782226562 C 198.67079162597656 587.0028076171875 185.593505859375 586.6151123046875 171.6930389404297 587.81396484375 C 157.15602111816406 590.7399291992188 143.5452117919922 592.4168090820312 131.6289520263672 591.4727783203125 C 122.98898315429688 587.8750610351562 118.4413070678711 582.1012573242188 118.07101440429688 575.3734130859375 C 122.35426330566406 569.7865600585938 131.0321502685547 564.5225830078125 140.109619140625 557.2262573242188 C 149.68756103515625 550.3114624023438 156.0919647216797 540.7876586914062 159.47059631347656 530.4993896484375 C 158.85171508789062 521.8599243164062 156.80709838867188 514.6530151367188 157.33010864257812 508.9794006347656 C 162.02870178222656 504.9649353027344 166.6003875732422 500.2476501464844 169.0810546875 493.9294738769531 C 169.4899444580078 486.66082763671875 169.4099884033203 479.91082763671875 170.5144500732422 475.1525573730469 C 174.3053436279297 473.5901794433594 180.43528747558594 474.0832214355469 188.50732421875 475.1828308105469 C 197.94219970703125 475.9918518066406 207.8592071533203 475.8505554199219 217.21762084960938 473.1395263671875 C 225.47691345214844 467.9950866699219 231.97244262695312 464.82525634765625 235.09068298339844 464.5458679199219 C 235.5947265625 465.6995544433594 236.254150390625 467.17474365234375 239.14715576171875 468.79681396484375 C 245.42637634277344 470.09686279296875 254.67933654785156 471.6282043457031 265.6899719238281 473.3823547363281 C 276.7027893066406 474.8927001953125 286.3524169921875 473.6123962402344 293.998779296875 467.4035949707031 C 299.9504699707031 457.09222412109375 304.4651794433594 444.4944152832031 308.4068298339844 430.31964111328125 C 312.0082702636719 416.4885559082031 314.7494201660156 403.6127014160156 315.7546691894531 393.1333923339844 C 314.5921936035156 384.8985900878906 311.50555419921875 379.62713623046875 305.76080322265625 377.7663269042969 C 297.6808776855469 378.6332702636719 287.8277893066406 381.2132568359375 276.6151428222656 383.931640625 C 264.4479675292969 386.0750732421875 251.93849182128906 387.46356201171875 239.68325805664062 387.6474609375 C 228.241943359375 387.0648193359375 218.17469787597656 385.98834228515625 209.98182678222656 384.73431396484375 C 204.10304260253906 383.3294982910156 200.86009216308594 381.8194580078125 200.3777313232422 380.20367431640625 C 202.6148223876953 378.7550964355469 207.24290466308594 377.7795104980469 213.93858337402344 377.0876159667969 C 222.32554626464844 376.5442810058594 232.04714965820312 376.1153869628906 242.8015594482422 375.8384094238281 C 254.33428955078125 375.8166809082031 266.362060546875 376.09503173828125 278.6351318359375 376.8423767089844 C 291.0312194824219 377.98162841796875 303.43670654296875 379.3674011230469 304.1900329589844 377.5710754394531" stroke-width="0.0" fill="rgb(240, 202, 129)" opacity="0.99915874" stroke="rgb(139, 97, 23)" stroke-opacity="0.24575868" stroke-linecap="round" stroke-linejoin="round"/>
    <path d="M 98.53495025634766 285.91253662109375 C 99.32754516601562 286.64495849609375 100.17234802246094 287.28204345703125 101.09431457519531 287.8962097167969 C 102.07767486572266 288.45819091796875 103.06914520263672 288.9976806640625 104.04988098144531 289.52691650390625 C 104.9851303100586 290.1845703125 105.68994903564453 291.0547180175781 106.63480377197266 291.756591796875 C 107.11026000976562 292.6642761230469 108.11530303955078 293.2505798339844 108.82678985595703 294.12005615234375 C 109.25929260253906 295.36297607421875 109.88894653320312 296.4982604980469 110.66472625732422 297.5099792480469 C 111.52167510986328 298.4901123046875 112.46646118164062 299.4551696777344 113.4090347290039 300.4160461425781 C 114.2518310546875 301.3981018066406 115.03067016601562 302.4641418457031 115.81720733642578 303.5727233886719 C 116.54667663574219 304.6517639160156 117.18734741210938 305.70294189453125 117.76148986816406 306.7684326171875 C 118.31475830078125 307.84210205078125 118.92181396484375 308.8482666015625 119.644287109375 309.7478332519531 C 120.28274536132812 310.61309814453125 120.85553741455078 311.533935546875 121.25590515136719 312.6534423828125 C 121.78573608398438 313.5609436035156 122.10462951660156 314.63385009765625 122.46863555908203 315.66357421875 C 122.84650421142578 316.6424865722656 123.14848327636719 317.6103515625 123.3546371459961 318.62213134765625 C 123.45382690429688 319.670654296875 123.55662536621094 320.7257995605469 123.73695373535156 321.7655029296875 C 123.93931579589844 322.7696533203125 124.20936584472656 323.79473876953125 124.51063537597656 324.856689453125 C 124.77416229248047 325.9328308105469 125.052490234375 326.9973449707031 125.28580474853516 328.0500183105469 C 125.4150390625 329.0646667480469 125.3969955444336 330.0111083984375 125.19605255126953 330.9338073730469 C 124.75601196289062 331.8553466796875 123.99370574951172 332.7644348144531 122.84314727783203 333.6847839355469 C 121.31922912597656 334.6224060058594 119.46778869628906 335.6194763183594 117.38231658935547 336.68402099609375 C 115.25450897216797 337.92822265625 113.36770629882812 339.5011901855469 112.15823364257812 341.6368713378906 C 111.95732879638672 344.4726257324219 112.38580322265625 347.9424743652344 112.88079071044922 351.9088134765625 C 113.49275207519531 356.1285400390625 114.8519287109375 360.2450256347656 116.65621185302734 364.06585693359375 C 118.9036865234375 367.48223876953125 121.81224060058594 370.2902526855469 125.2353744506836 372.4931640625 C 128.74681091308594 374.2288818359375 132.10997009277344 375.4601745605469 135.0831756591797 376.3319396972656 C 137.40023803710938 376.87872314453125 138.8662872314453 377.2366638183594 139.38475036621094 377.3795166015625 C 138.9480743408203 377.2738342285156 137.66360473632812 377.0007019042969 135.70037841796875 376.5249328613281 C 133.23495483398438 375.82952880859375 130.47787475585938 374.8652038574219 127.65155792236328 373.7446594238281 C 125.00077819824219 372.4398193359375 122.6928482055664 370.8326110839844 120.69840240478516 369.0299072265625 C 118.94458770751953 367.2860412597656 117.54157257080078 365.53765869140625 116.42643737792969 363.6667785644531 C 115.5217056274414 361.6309509277344 114.7055892944336 359.266845703125 114.16033172607422 356.3193664550781 C 113.79388427734375 353.0052185058594 112.89544677734375 349.8034362792969 111.12781524658203 346.8564453125 C 108.29373168945312 344.8240661621094 104.68014526367188 344.69476318359375 100.66377258300781 345.98095703125 C 96.56745910644531 347.51507568359375 92.68728637695312 349.47802734375 89.77308654785156 352.35919189453125 C 88.69554138183594 356.0980224609375 88.90066528320312 359.990234375 88.25260925292969 363.229736328125 C 85.76520538330078 365.40008544921875 82.48095703125 365.9056701660156 79.63914489746094 364.2664489746094 C 77.61186981201172 363.2862243652344 76.29227447509766 365.6933288574219 73.81214904785156 370.5129699707031 C 70.049072265625 375.80743408203125 65.28883361816406 380.4420471191406 60.03441619873047 383.82049560546875 C 58.415733337402344 388.74176025390625 58.535247802734375 393.8359375 58.41221618652344 398.5947570800781 C 57.399723052978516 402.6473388671875 54.6838264465332 405.1762390136719 51.77103805541992 405.2189025878906 C 48.04179763793945 403.4549255371094 45.52610397338867 399.7997741699219 44.5823860168457 394.5455017089844 C 44.17515182495117 389.4886169433594 43.3502311706543 386.83612060546875 41.28622817993164 387.9534912109375 C 38.82946014404297 392.6097106933594 35.67664337158203 397.79595947265625 31.216276168823242 401.4132080078125 C 26.053335189819336 402.4393310546875 22.73822593688965 400.0536804199219 22.400829315185547 395.0206298828125 C 22.8532772064209 390.6043395996094 22.03896141052246 389.8971252441406 18.816112518310547 392.1892395019531 C 14.929337501525879 393.1378173828125 10.869813919067383 391.77685546875 9.155957221984863 387.7544860839844 C 10.388480186462402 382.30224609375 12.606118202209473 377.9010925292969 12.918793678283691 375.4960021972656 C 10.21703815460205 376.47210693359375 5.948357582092285 378.2684631347656 1.212254285812378 377.65777587890625 C -0.9103560447692871 374.3848876953125 0.06054513901472092 369.790283203125 3.814845085144043 364.5762634277344 C 7.62330436706543 358.427001953125 11.735515594482422 352.8738708496094 15.787676811218262 348.0870666503906 C 19.450183868408203 344.4268798828125 21.643226623535156 341.29193115234375 21.177595138549805 337.82757568359375 C 18.771364212036133 333.40960693359375 17.2193660736084 328.6144714355469 17.272863388061523 323.84356689453125 C 19.361101150512695 320.30621337890625 22.9781436920166 319.4828796386719 27.19796371459961 321.3796691894531 C 31.783761978149414 325.6551513671875 36.856143951416016 329.81280517578125 42.487098693847656 331.684326171875 C 46.335811614990234 331.48895263671875 47.480987548828125 328.2672119140625 47.56494903564453 323.5550842285156 C 49.490718841552734 320.0986633300781 52.911678314208984 319.7332458496094 57.07897186279297 321.1615295410156 C 61.056114196777344 320.6484680175781 64.49966430664062 318.55120849609375 67.51583099365234 314.87457275390625 C 70.47541046142578 311.1024169921875 73.44258880615234 307.6983642578125 76.33529663085938 304.68280029296875 C 79.0509033203125 302.0007629394531 81.4980697631836 299.7544860839844 83.67230987548828 297.9486389160156 C 85.59909057617188 296.39666748046875 87.28179168701172 295.0174865722656 88.7578125 293.8144836425781 C 90.10257720947266 292.7491149902344 91.30941009521484 291.702880859375 92.5054931640625 290.7035827636719 C 93.73185729980469 289.73028564453125 94.93710327148438 288.7637634277344 98.53495025634766 285.91253662109375" stroke-width="0.0" fill="rgb(248, 191, 113)" opacity="1.0" stroke="rgb(209, 128, 123)" stroke-opacity="0.40585417" stroke-linecap="round" stroke-linejoin="round"/>
  </g>
</svg>
