<?xml version="1.0" ?>
<svg xmlns="http://www.w3.org/2000/svg" version="1.1" width="474" height="596">
  <defs/>
  <g>
    <path d="M 266.0 0.0 C 267.0 0.0 268.0 0.0 269.0 0.0 C 270.0 0.0 271.0 0.0 272.0 0.0 C 273.0 0.0 274.0 0.0 275.0 0.0 C 276.0 0.0 277.0 0.0 278.0 0.0 C 279.0 0.0 280.0 0.0 281.0 0.0 C 282.0 0.0 288.0 2.0 296.0 4.0 C 304.0 6.0 312.0 9.0 320.0 12.0 C 328.0 16.0 336.0 20.0 344.0 24.0 C 352.0 29.0 360.0 35.0 368.0 41.0 C 376.0 48.0 384.0 56.0 392.0 64.0 C 399.0 72.0 405.0 80.0 411.0 88.0 C 417.0 96.0 422.0 104.0 427.0 112.0 C 431.0 120.0 432.0 128.0 431.0 136.0 C 426.0 144.0 421.0 152.0 415.0 160.0 C 408.0 168.0 400.0 176.0 392.0 184.0 C 384.0 191.0 376.0 197.0 368.0 203.0 C 360.0 208.0 352.0 213.0 344.0 217.0 C 336.0 220.0 328.0 222.0 320.0 224.0 C 316.0 223.0 324.0 218.0 332.0 212.0 C 340.0 206.0 348.0 198.0 355.0 190.0 C 360.0 182.0 364.0 174.0 367.0 166.0 C 370.0 158.0 371.0 150.0 371.0 142.0 C 370.0 134.0 368.0 126.0 365.0 118.0 C 361.0 110.0 354.0 102.0 346.0 94.0 C 338.0 94.0 330.0 95.0 322.0 96.0 C 314.0 98.0 309.0 98.0 301.0 100.0 C 293.0 102.0 285.0 104.0 277.0 105.0 C 269.0 107.0 261.0 109.0 254.0 103.0 C 246.0 96.0 238.0 91.0 241.0 99.0 C 244.0 107.0 244.0 114.0 236.0 115.0 C 228.0 117.0 220.0 119.0 212.0 121.0 C 204.0 123.0 196.0 126.0 188.0 129.0 C 180.0 132.0 172.0 136.0 165.0 135.0 C 160.0 127.0 157.0 127.0 157.0 135.0 C 156.0 143.0 150.0 149.0 145.0 156.0 C 143.0 164.0 142.0 172.0 143.0 180.0 C 144.0 188.0 147.0 196.0 151.0 204.0 C 157.0 212.0 165.0 219.0 173.0 226.0 C 181.0 231.0 189.0 235.0 197.0 238.0 C 205.0 240.0 213.0 242.0 209.0 243.0 C 201.0 242.0 193.0 239.0 185.0 238.0 C 177.0 239.0 169.0 241.0 162.0 240.0 C 154.0 240.0 146.0 239.0 138.0 239.0 C 130.0 237.0 122.0 236.0 114.0 234.0 C 106.0 231.0 98.0 229.0 90.0 226.0 C 82.0 223.0 74.0 219.0 66.0 215.0 C 58.0 209.0 54.0 201.0 54.0 193.0 C 54.0 185.0 55.0 177.0 57.0 169.0 C 59.0 161.0 60.0 153.0 63.0 145.0 C 65.0 137.0 68.0 129.0 71.0 121.0 C 75.0 113.0 79.0 105.0 83.0 97.0 C 89.0 89.0 94.0 81.0 100.0 73.0 C 107.0 65.0 115.0 57.0 123.0 50.0 C 131.0 43.0 139.0 37.0 147.0 31.0 C 155.0 27.0 163.0 25.0 171.0 24.0 C 179.0 24.0 187.0 25.0 195.0 26.0 C 203.0 28.0 211.0 31.0 214.0 27.0 C 219.0 33.0 221.0 27.0 226.0 27.0 C 234.0 19.0 242.0 12.0 250.0 7.0 C 258.0 3.0 265.0 0.0 266.0 0.0" stroke-width="0.0" fill="rgb(64, 38, 31)" opacity="1.0" stroke="rgb(239, 224, 144)" stroke-opacity="0.21114592" stroke-linecap="round" stroke-linejoin="round"/>
    <path d="M 312.0 225.0 C 313.0 225.0 313.0 226.0 313.0 227.0 C 312.0 227.0 302.0 232.0 292.0 239.0 C 288.0 243.0 305.0 262.0 297.0 259.0 C 276.0 241.0 258.0 246.0 237.0 245.0 C 215.0 246.0 235.0 255.0 242.0 257.0 C 221.0 254.0 214.0 260.0 228.0 259.0 C 237.0 267.0 258.0 260.0 259.0 260.0 C 271.0 273.0 278.0 288.0 291.0 302.0 C 296.0 307.0 304.0 311.0 315.0 331.0 C 321.0 329.0 317.0 307.0 311.0 289.0 C 321.0 309.0 326.0 305.0 321.0 303.0 C 317.0 283.0 310.0 264.0 299.0 250.0 C 303.0 241.0 325.0 246.0 347.0 254.0 C 366.0 267.0 388.0 278.0 410.0 293.0 C 432.0 288.0 416.0 296.0 394.0 285.0 C 372.0 273.0 360.0 287.0 351.0 309.0 C 364.0 321.0 386.0 325.0 407.0 333.0 C 429.0 346.0 444.0 354.0 428.0 350.0 C 407.0 336.0 385.0 328.0 363.0 325.0 C 342.0 324.0 324.0 321.0 322.0 343.0 C 323.0 365.0 315.0 382.0 313.0 404.0 C 309.0 426.0 303.0 448.0 298.0 470.0 C 288.0 488.0 292.0 505.0 300.0 518.0 C 295.0 533.0 278.0 519.0 260.0 529.0 C 245.0 521.0 238.0 536.0 237.0 558.0 C 246.0 576.0 268.0 580.0 290.0 581.0 C 312.0 580.0 334.0 576.0 339.0 556.0 C 338.0 576.0 316.0 583.0 294.0 584.0 C 272.0 582.0 250.0 580.0 234.0 566.0 C 234.0 544.0 234.0 523.0 233.0 509.0 C 241.0 499.0 243.0 477.0 233.0 459.0 C 226.0 468.0 214.0 484.0 210.0 505.0 C 210.0 484.0 198.0 475.0 176.0 473.0 C 169.0 488.0 171.0 508.0 193.0 511.0 C 215.0 509.0 212.0 527.0 214.0 549.0 C 217.0 571.0 205.0 586.0 183.0 588.0 C 162.0 595.0 140.0 595.0 119.0 588.0 C 126.0 568.0 120.0 582.0 140.0 592.0 C 162.0 591.0 184.0 584.0 206.0 582.0 C 213.0 565.0 212.0 543.0 206.0 524.0 C 197.0 530.0 186.0 532.0 186.0 521.0 C 176.0 527.0 163.0 528.0 151.0 518.0 C 165.0 501.0 166.0 479.0 157.0 460.0 C 155.0 438.0 153.0 416.0 148.0 397.0 C 126.0 391.0 115.0 370.0 114.0 348.0 C 97.0 351.0 80.0 361.0 72.0 371.0 C 76.0 359.0 87.0 352.0 109.0 342.0 C 130.0 330.0 125.0 316.0 127.0 311.0 C 120.0 300.0 110.0 284.0 104.0 274.0 C 99.0 282.0 93.0 289.0 104.0 270.0 C 126.0 256.0 148.0 246.0 158.0 246.0 C 166.0 247.0 165.0 255.0 158.0 267.0 C 152.0 282.0 152.0 303.0 148.0 322.0 C 151.0 338.0 158.0 354.0 156.0 376.0 C 165.0 377.0 169.0 373.0 163.0 367.0 C 163.0 347.0 172.0 338.0 176.0 329.0 C 179.0 312.0 193.0 301.0 193.0 288.0 C 196.0 270.0 204.0 256.0 213.0 252.0 C 223.0 243.0 245.0 243.0 267.0 240.0 C 289.0 235.0 311.0 225.0 312.0 225.0" stroke-width="0.0" fill="rgb(232, 106, 162)" opacity="1.0" stroke="rgb(55, 118, 13)" stroke-opacity="0.8768725" stroke-linecap="round" stroke-linejoin="round"/>
    <path d="M 341.0 94.0 C 342.0 94.0 343.0 94.0 344.0 94.0 C 344.0 95.0 345.0 96.0 346.0 96.0 C 346.0 97.0 346.0 98.0 345.0 98.0 C 344.0 99.0 343.0 100.0 343.0 101.0 C 344.0 102.0 345.0 103.0 346.0 103.0 C 347.0 102.0 348.0 101.0 349.0 101.0 C 350.0 101.0 351.0 101.0 351.0 102.0 C 352.0 103.0 353.0 104.0 354.0 105.0 C 355.0 105.0 355.0 106.0 355.0 107.0 C 356.0 108.0 357.0 109.0 361.0 113.0 C 362.0 119.0 364.0 121.0 366.0 126.0 C 367.0 132.0 369.0 137.0 368.0 143.0 C 370.0 148.0 367.0 152.0 367.0 158.0 C 366.0 164.0 364.0 170.0 362.0 175.0 C 358.0 181.0 354.0 183.0 352.0 187.0 C 350.0 191.0 345.0 194.0 344.0 199.0 C 339.0 202.0 336.0 203.0 334.0 209.0 C 328.0 213.0 322.0 216.0 316.0 218.0 C 311.0 223.0 306.0 227.0 300.0 227.0 C 295.0 230.0 289.0 233.0 283.0 233.0 C 281.0 233.0 277.0 235.0 271.0 238.0 C 265.0 238.0 259.0 240.0 253.0 240.0 C 247.0 241.0 241.0 241.0 235.0 242.0 C 229.0 242.0 223.0 241.0 217.0 240.0 C 211.0 241.0 206.0 238.0 201.0 236.0 C 196.0 234.0 191.0 232.0 185.0 231.0 C 183.0 227.0 179.0 225.0 173.0 224.0 C 171.0 219.0 166.0 217.0 162.0 212.0 C 158.0 207.0 155.0 202.0 150.0 198.0 C 148.0 192.0 146.0 186.0 144.0 181.0 C 143.0 176.0 143.0 170.0 144.0 165.0 C 145.0 159.0 149.0 155.0 150.0 150.0 C 155.0 148.0 159.0 144.0 157.0 139.0 C 163.0 139.0 168.0 139.0 174.0 138.0 C 179.0 136.0 184.0 133.0 187.0 133.0 C 193.0 130.0 199.0 127.0 205.0 125.0 C 211.0 124.0 217.0 124.0 221.0 126.0 C 219.0 128.0 224.0 133.0 227.0 139.0 C 228.0 145.0 227.0 151.0 223.0 157.0 C 223.0 160.0 223.0 163.0 229.0 163.0 C 234.0 160.0 237.0 156.0 242.0 157.0 C 243.0 153.0 246.0 155.0 248.0 150.0 C 248.0 144.0 244.0 144.0 245.0 140.0 C 243.0 134.0 238.0 129.0 232.0 126.0 C 228.0 128.0 226.0 125.0 228.0 123.0 C 225.0 120.0 231.0 119.0 236.0 116.0 C 242.0 117.0 247.0 115.0 248.0 109.0 C 245.0 104.0 249.0 101.0 253.0 106.0 C 258.0 110.0 263.0 111.0 268.0 108.0 C 274.0 109.0 280.0 107.0 283.0 107.0 C 288.0 106.0 293.0 103.0 299.0 105.0 C 305.0 102.0 310.0 99.0 308.0 102.0 C 307.0 104.0 313.0 104.0 319.0 105.0 C 325.0 109.0 328.0 115.0 330.0 121.0 C 329.0 127.0 328.0 133.0 332.0 136.0 C 332.0 133.0 335.0 132.0 341.0 133.0 C 344.0 130.0 344.0 127.0 347.0 128.0 C 349.0 122.0 349.0 116.0 347.0 110.0 C 341.0 105.0 336.0 102.0 332.0 100.0 C 335.0 96.0 340.0 94.0 341.0 94.0" stroke-width="0.0" fill="rgb(251, 188, 104)" opacity="1.0" stroke="rgb(136, 241, 157)" stroke-opacity="0.07112689" stroke-linecap="round" stroke-linejoin="round"/>
    <path d="M 170.0 383.0 C 171.0 383.0 172.0 383.0 173.0 383.0 C 174.0 383.0 175.0 383.0 176.0 383.0 C 177.0 383.0 178.0 383.0 179.0 383.0 C 180.0 383.0 181.0 384.0 182.0 385.0 C 183.0 385.0 184.0 385.0 185.0 385.0 C 186.0 385.0 187.0 385.0 188.0 385.0 C 189.0 385.0 190.0 385.0 190.0 386.0 C 191.0 387.0 190.0 388.0 190.0 389.0 C 190.0 390.0 190.0 391.0 190.0 392.0 C 190.0 393.0 190.0 394.0 190.0 395.0 C 190.0 396.0 190.0 397.0 190.0 398.0 C 190.0 399.0 191.0 400.0 192.0 401.0 C 193.0 401.0 194.0 401.0 195.0 401.0 C 196.0 401.0 197.0 401.0 198.0 401.0 C 199.0 400.0 200.0 400.0 201.0 400.0 C 202.0 400.0 203.0 400.0 204.0 400.0 C 205.0 400.0 206.0 400.0 207.0 399.0 C 207.0 398.0 207.0 399.0 207.0 400.0 C 210.0 401.0 214.0 401.0 218.0 401.0 C 222.0 401.0 226.0 400.0 230.0 400.0 C 234.0 400.0 238.0 400.0 241.0 398.0 C 245.0 398.0 249.0 398.0 253.0 398.0 C 257.0 397.0 260.0 396.0 264.0 398.0 C 268.0 398.0 271.0 398.0 273.0 401.0 C 277.0 401.0 281.0 401.0 285.0 401.0 C 287.0 398.0 291.0 400.0 295.0 400.0 C 299.0 400.0 302.0 401.0 302.0 405.0 C 304.0 409.0 302.0 412.0 304.0 415.0 C 302.0 419.0 302.0 423.0 302.0 427.0 C 301.0 430.0 297.0 431.0 293.0 430.0 C 289.0 432.0 287.0 435.0 286.0 439.0 C 286.0 443.0 286.0 447.0 286.0 451.0 C 286.0 455.0 286.0 459.0 285.0 462.0 C 281.0 462.0 277.0 462.0 273.0 462.0 C 269.0 462.0 265.0 462.0 261.0 462.0 C 257.0 462.0 256.0 458.0 256.0 454.0 C 256.0 450.0 257.0 446.0 257.0 442.0 C 256.0 438.0 257.0 434.0 255.0 430.0 C 251.0 431.0 247.0 430.0 243.0 430.0 C 239.0 430.0 235.0 430.0 231.0 430.0 C 227.0 430.0 223.0 432.0 226.0 435.0 C 230.0 435.0 234.0 435.0 238.0 435.0 C 234.0 435.0 230.0 435.0 226.0 435.0 C 223.0 437.0 224.0 441.0 228.0 441.0 C 230.0 441.0 226.0 441.0 222.0 444.0 C 221.0 447.0 217.0 447.0 213.0 447.0 C 209.0 448.0 208.0 451.0 206.0 455.0 C 206.0 459.0 205.0 462.0 201.0 462.0 C 198.0 464.0 195.0 464.0 192.0 463.0 C 188.0 462.0 184.0 462.0 180.0 464.0 C 177.0 463.0 177.0 459.0 177.0 455.0 C 174.0 452.0 170.0 453.0 167.0 455.0 C 166.0 454.0 168.0 451.0 170.0 448.0 C 166.0 446.0 162.0 446.0 161.0 443.0 C 161.0 439.0 161.0 435.0 161.0 431.0 C 161.0 427.0 161.0 423.0 161.0 419.0 C 161.0 415.0 161.0 411.0 159.0 408.0 C 159.0 404.0 159.0 400.0 159.0 396.0 C 159.0 392.0 161.0 388.0 162.0 385.0 C 166.0 385.0 169.0 383.0 170.0 383.0" stroke-width="0.0" fill="rgb(252, 77, 1)" opacity="1.0" stroke="rgb(56, 164, 86)" stroke-opacity="0.8514461" stroke-linecap="round" stroke-linejoin="round"/>
    <path d="M 249.0 375.0 C 250.0 375.0 251.0 375.0 252.0 375.0 C 253.0 375.0 254.0 375.0 255.0 375.0 C 256.0 376.0 257.0 376.0 258.0 376.0 C 259.0 376.0 260.0 376.0 261.0 376.0 C 262.0 376.0 263.0 376.0 264.0 376.0 C 265.0 376.0 271.0 376.0 281.0 376.0 C 289.0 381.0 299.0 379.0 309.0 382.0 C 315.0 383.0 314.0 393.0 313.0 403.0 C 311.0 413.0 309.0 423.0 307.0 433.0 C 304.0 443.0 301.0 453.0 300.0 463.0 C 295.0 471.0 288.0 473.0 281.0 468.0 C 273.0 471.0 266.0 470.0 269.0 473.0 C 279.0 473.0 287.0 477.0 285.0 482.0 C 285.0 488.0 287.0 496.0 283.0 502.0 C 287.0 509.0 291.0 508.0 299.0 508.0 C 304.0 515.0 295.0 518.0 288.0 524.0 C 279.0 528.0 269.0 529.0 259.0 530.0 C 249.0 529.0 242.0 527.0 238.0 536.0 C 238.0 546.0 237.0 556.0 237.0 566.0 C 236.0 574.0 234.0 564.0 233.0 554.0 C 234.0 544.0 235.0 534.0 236.0 524.0 C 227.0 520.0 229.0 511.0 238.0 506.0 C 247.0 507.0 245.0 501.0 242.0 493.0 C 246.0 489.0 243.0 481.0 243.0 471.0 C 234.0 465.0 233.0 455.0 227.0 459.0 C 226.0 469.0 219.0 474.0 214.0 482.0 C 212.0 492.0 211.0 502.0 215.0 509.0 C 220.0 516.0 213.0 523.0 212.0 533.0 C 211.0 539.0 210.0 529.0 207.0 527.0 C 197.0 531.0 189.0 535.0 181.0 535.0 C 174.0 534.0 171.0 526.0 162.0 526.0 C 159.0 536.0 157.0 536.0 160.0 526.0 C 152.0 519.0 156.0 509.0 164.0 508.0 C 173.0 512.0 183.0 512.0 193.0 512.0 C 200.0 511.0 190.0 510.0 180.0 509.0 C 170.0 506.0 165.0 505.0 166.0 495.0 C 166.0 485.0 166.0 475.0 158.0 467.0 C 157.0 457.0 160.0 449.0 167.0 449.0 C 167.0 457.0 175.0 453.0 176.0 463.0 C 185.0 463.0 194.0 465.0 202.0 463.0 C 207.0 457.0 210.0 448.0 220.0 448.0 C 227.0 442.0 227.0 440.0 227.0 436.0 C 237.0 436.0 231.0 434.0 228.0 431.0 C 238.0 431.0 248.0 431.0 256.0 434.0 C 256.0 444.0 255.0 454.0 258.0 463.0 C 268.0 463.0 278.0 463.0 287.0 461.0 C 287.0 451.0 287.0 441.0 290.0 433.0 C 300.0 431.0 305.0 424.0 306.0 417.0 C 303.0 413.0 303.0 404.0 297.0 399.0 C 287.0 397.0 279.0 400.0 271.0 397.0 C 261.0 395.0 252.0 397.0 242.0 397.0 C 233.0 399.0 223.0 400.0 213.0 400.0 C 206.0 399.0 196.0 400.0 191.0 394.0 C 190.0 384.0 180.0 382.0 188.0 381.0 C 198.0 383.0 208.0 385.0 218.0 386.0 C 228.0 387.0 238.0 388.0 248.0 387.0 C 238.0 385.0 228.0 385.0 218.0 384.0 C 208.0 383.0 198.0 381.0 198.0 378.0 C 208.0 377.0 218.0 377.0 228.0 376.0 C 238.0 376.0 248.0 375.0 249.0 375.0" stroke-width="0.0" fill="rgb(249, 204, 90)" opacity="1.0" stroke="rgb(81, 131, 73)" stroke-opacity="0.35358354" stroke-linecap="round" stroke-linejoin="round"/>
    <path d="M 106.0 282.0 C 107.0 282.0 107.0 283.0 108.0 284.0 C 109.0 284.0 109.0 285.0 110.0 286.0 C 110.0 287.0 111.0 288.0 112.0 289.0 C 113.0 289.0 114.0 289.0 114.0 290.0 C 114.0 291.0 115.0 292.0 116.0 292.0 C 117.0 292.0 117.0 293.0 117.0 294.0 C 117.0 295.0 117.0 296.0 118.0 297.0 C 118.0 298.0 119.0 299.0 119.0 300.0 C 119.0 301.0 119.0 303.0 117.0 306.0 C 120.0 309.0 124.0 309.0 124.0 313.0 C 122.0 317.0 123.0 321.0 126.0 323.0 C 129.0 324.0 129.0 328.0 126.0 330.0 C 123.0 333.0 121.0 335.0 119.0 337.0 C 118.0 341.0 117.0 344.0 116.0 348.0 C 116.0 352.0 116.0 356.0 116.0 360.0 C 117.0 364.0 120.0 368.0 124.0 370.0 C 128.0 374.0 132.0 376.0 136.0 377.0 C 140.0 377.0 144.0 377.0 144.0 379.0 C 140.0 379.0 136.0 379.0 132.0 378.0 C 128.0 377.0 124.0 374.0 121.0 370.0 C 117.0 371.0 119.0 375.0 120.0 379.0 C 123.0 383.0 125.0 386.0 128.0 389.0 C 132.0 392.0 136.0 393.0 140.0 394.0 C 144.0 394.0 148.0 394.0 151.0 395.0 C 149.0 397.0 145.0 397.0 141.0 397.0 C 137.0 396.0 133.0 395.0 129.0 394.0 C 125.0 391.0 121.0 387.0 119.0 384.0 C 117.0 380.0 116.0 376.0 115.0 372.0 C 114.0 368.0 114.0 364.0 114.0 360.0 C 113.0 356.0 113.0 352.0 114.0 348.0 C 114.0 344.0 110.0 345.0 106.0 347.0 C 102.0 349.0 98.0 350.0 94.0 353.0 C 90.0 354.0 86.0 355.0 88.0 357.0 C 89.0 361.0 85.0 363.0 82.0 365.0 C 78.0 363.0 74.0 366.0 73.0 370.0 C 71.0 373.0 69.0 376.0 65.0 379.0 C 61.0 382.0 59.0 386.0 59.0 390.0 C 58.0 394.0 58.0 398.0 56.0 402.0 C 53.0 404.0 49.0 403.0 46.0 400.0 C 45.0 396.0 44.0 392.0 43.0 388.0 C 40.0 389.0 38.0 393.0 35.0 397.0 C 31.0 400.0 27.0 401.0 23.0 398.0 C 22.0 395.0 22.0 391.0 18.0 392.0 C 14.0 392.0 10.0 390.0 9.0 386.0 C 10.0 382.0 12.0 378.0 12.0 374.0 C 9.0 377.0 5.0 378.0 1.0 376.0 C 0.0 373.0 0.0 369.0 2.0 366.0 C 5.0 362.0 7.0 358.0 10.0 354.0 C 13.0 350.0 16.0 346.0 20.0 342.0 C 21.0 338.0 19.0 334.0 17.0 330.0 C 17.0 326.0 18.0 322.0 22.0 320.0 C 26.0 320.0 30.0 324.0 34.0 327.0 C 38.0 330.0 42.0 330.0 46.0 329.0 C 46.0 325.0 48.0 321.0 52.0 320.0 C 56.0 320.0 59.0 318.0 62.0 314.0 C 66.0 310.0 70.0 306.0 74.0 302.0 C 78.0 299.0 82.0 295.0 86.0 292.0 C 90.0 289.0 93.0 289.0 96.0 287.0 C 97.0 284.0 100.0 286.0 104.0 289.0 C 106.0 286.0 105.0 282.0 106.0 282.0" stroke-width="0.0" fill="rgb(248, 188, 113)" opacity="1.0" stroke="rgb(216, 168, 16)" stroke-opacity="0.7438917" stroke-linecap="round" stroke-linejoin="round"/>
    <path d="M 184.0 237.0 C 185.0 237.0 186.0 237.0 187.0 238.0 C 188.0 238.0 189.0 238.0 190.0 239.0 C 191.0 239.0 192.0 240.0 195.0 241.0 C 205.0 243.0 213.0 248.0 208.0 255.0 C 200.0 252.0 200.0 262.0 195.0 270.0 C 194.0 280.0 191.0 287.0 192.0 295.0 C 189.0 302.0 182.0 307.0 175.0 313.0 C 171.0 322.0 169.0 326.0 168.0 335.0 C 164.0 344.0 159.0 353.0 152.0 359.0 C 152.0 369.0 152.0 379.0 150.0 387.0 C 154.0 394.0 157.0 384.0 165.0 380.0 C 175.0 378.0 183.0 379.0 193.0 379.0 C 202.0 382.0 212.0 384.0 222.0 386.0 C 232.0 386.0 242.0 387.0 251.0 385.0 C 261.0 386.0 271.0 384.0 281.0 381.0 C 288.0 377.0 294.0 378.0 303.0 376.0 C 312.0 378.0 321.0 377.0 318.0 381.0 C 315.0 390.0 314.0 400.0 312.0 410.0 C 310.0 420.0 307.0 430.0 304.0 440.0 C 303.0 450.0 301.0 460.0 298.0 470.0 C 290.0 477.0 288.0 487.0 287.0 497.0 C 290.0 505.0 300.0 507.0 304.0 516.0 C 294.0 519.0 294.0 529.0 303.0 535.0 C 313.0 540.0 323.0 545.0 333.0 550.0 C 341.0 558.0 342.0 568.0 337.0 577.0 C 327.0 581.0 317.0 583.0 307.0 584.0 C 297.0 584.0 287.0 584.0 277.0 583.0 C 267.0 582.0 257.0 581.0 247.0 580.0 C 237.0 575.0 233.0 565.0 233.0 555.0 C 234.0 545.0 235.0 535.0 236.0 525.0 C 227.0 521.0 228.0 511.0 237.0 506.0 C 241.0 497.0 242.0 487.0 242.0 477.0 C 239.0 468.0 233.0 461.0 228.0 455.0 C 227.0 465.0 223.0 473.0 215.0 479.0 C 213.0 489.0 212.0 499.0 213.0 508.0 C 220.0 515.0 215.0 523.0 213.0 531.0 C 214.0 541.0 215.0 551.0 216.0 561.0 C 217.0 571.0 216.0 581.0 207.0 586.0 C 197.0 587.0 187.0 587.0 177.0 590.0 C 167.0 593.0 158.0 595.0 148.0 595.0 C 138.0 595.0 129.0 593.0 119.0 589.0 C 117.0 579.0 123.0 569.0 133.0 562.0 C 141.0 554.0 149.0 547.0 156.0 537.0 C 159.0 527.0 151.0 519.0 155.0 509.0 C 165.0 503.0 166.0 493.0 166.0 483.0 C 164.0 473.0 158.0 465.0 157.0 455.0 C 156.0 445.0 155.0 435.0 154.0 425.0 C 153.0 415.0 152.0 405.0 150.0 397.0 C 140.0 397.0 130.0 394.0 121.0 387.0 C 116.0 377.0 114.0 367.0 113.0 357.0 C 114.0 347.0 107.0 347.0 97.0 351.0 C 87.0 356.0 90.0 351.0 100.0 346.0 C 110.0 341.0 118.0 340.0 123.0 339.0 C 127.0 332.0 134.0 334.0 144.0 329.0 C 149.0 332.0 151.0 322.0 151.0 312.0 C 153.0 302.0 155.0 293.0 154.0 283.0 C 153.0 273.0 159.0 267.0 160.0 257.0 C 167.0 252.0 173.0 245.0 166.0 246.0 C 157.0 249.0 163.0 246.0 163.0 240.0 C 173.0 239.0 183.0 237.0 184.0 237.0" stroke-width="0.0" fill="rgb(178, 139, 180)" opacity="1.0" stroke="rgb(98, 124, 253)" stroke-opacity="0.8479226" stroke-linecap="round" stroke-linejoin="round"/>
    <path d="M 117.0 364.0 C 119.0 369.0 118.0 374.0 120.0 380.0 C 123.0 386.0 128.0 389.0 134.0 392.0 C 140.0 394.0 146.0 394.0 151.0 392.0 C 151.0 386.0 156.0 383.0 153.0 378.0 C 152.0 372.0 155.0 370.0 155.0 376.0 C 157.0 382.0 163.0 381.0 169.0 379.0 C 175.0 378.0 181.0 377.0 187.0 376.0 C 193.0 376.0 195.0 381.0 201.0 382.0 C 207.0 383.0 213.0 384.0 219.0 385.0 C 225.0 386.0 231.0 386.0 237.0 386.0 C 243.0 387.0 249.0 387.0 254.0 385.0 C 260.0 386.0 266.0 385.0 272.0 384.0 C 278.0 383.0 284.0 381.0 288.0 378.0 C 288.0 375.0 292.0 378.0 298.0 377.0 C 303.0 376.0 309.0 376.0 315.0 377.0 C 321.0 376.0 321.0 370.0 323.0 372.0 C 323.0 378.0 318.0 380.0 315.0 384.0 C 315.0 390.0 314.0 396.0 313.0 402.0 C 312.0 408.0 311.0 414.0 310.0 420.0 C 308.0 426.0 307.0 432.0 306.0 438.0 C 304.0 444.0 302.0 450.0 301.0 456.0 C 300.0 462.0 299.0 468.0 294.0 472.0 C 290.0 476.0 289.0 482.0 288.0 488.0 C 287.0 494.0 287.0 500.0 288.0 505.0 C 294.0 505.0 300.0 507.0 305.0 512.0 C 302.0 518.0 296.0 518.0 291.0 522.0 C 292.0 528.0 293.0 532.0 290.0 528.0 C 287.0 522.0 291.0 518.0 296.0 516.0 C 300.0 512.0 296.0 508.0 290.0 507.0 C 284.0 508.0 284.0 502.0 285.0 496.0 C 285.0 490.0 286.0 484.0 287.0 478.0 C 285.0 472.0 279.0 472.0 273.0 472.0 C 267.0 472.0 261.0 471.0 255.0 471.0 C 249.0 470.0 246.0 474.0 246.0 480.0 C 245.0 486.0 245.0 492.0 244.0 498.0 C 244.0 504.0 248.0 507.0 243.0 507.0 C 239.0 505.0 241.0 499.0 242.0 493.0 C 243.0 487.0 243.0 481.0 243.0 475.0 C 242.0 469.0 236.0 467.0 233.0 462.0 C 232.0 456.0 227.0 455.0 227.0 461.0 C 226.0 467.0 224.0 473.0 219.0 474.0 C 215.0 479.0 214.0 485.0 213.0 491.0 C 212.0 497.0 211.0 503.0 209.0 503.0 C 209.0 497.0 209.0 491.0 210.0 485.0 C 211.0 479.0 207.0 476.0 201.0 475.0 C 195.0 476.0 189.0 475.0 183.0 474.0 C 177.0 475.0 172.0 473.0 169.0 478.0 C 169.0 484.0 169.0 490.0 168.0 496.0 C 168.0 502.0 167.0 507.0 161.0 509.0 C 157.0 508.0 162.0 506.0 165.0 501.0 C 166.0 495.0 166.0 489.0 166.0 483.0 C 166.0 477.0 163.0 472.0 158.0 467.0 C 158.0 461.0 157.0 455.0 156.0 449.0 C 156.0 443.0 155.0 437.0 155.0 431.0 C 154.0 425.0 153.0 419.0 153.0 413.0 C 153.0 407.0 153.0 401.0 153.0 395.0 C 151.0 394.0 149.0 398.0 143.0 397.0 C 137.0 396.0 131.0 394.0 125.0 390.0 C 122.0 386.0 118.0 381.0 116.0 375.0 C 115.0 369.0 115.0 363.0 117.0 364.0" stroke-width="0.0" fill="rgb(241, 78, 9)" opacity="1.0" stroke="rgb(89, 130, 243)" stroke-opacity="0.25306755" stroke-linecap="round" stroke-linejoin="round"/>
    <path d="M 364.0 263.0 C 365.0 263.0 366.0 263.0 366.0 264.0 C 366.0 265.0 366.0 266.0 367.0 267.0 C 368.0 268.0 369.0 268.0 370.0 269.0 C 371.0 269.0 372.0 269.0 373.0 270.0 C 374.0 270.0 375.0 271.0 376.0 271.0 C 377.0 271.0 378.0 272.0 379.0 273.0 C 380.0 273.0 381.0 274.0 382.0 274.0 C 383.0 275.0 384.0 275.0 385.0 276.0 C 386.0 276.0 387.0 277.0 388.0 277.0 C 389.0 278.0 390.0 279.0 391.0 279.0 C 392.0 280.0 393.0 280.0 394.0 281.0 C 395.0 282.0 396.0 282.0 397.0 283.0 C 398.0 283.0 399.0 284.0 400.0 285.0 C 401.0 285.0 402.0 286.0 403.0 287.0 C 404.0 288.0 405.0 288.0 406.0 289.0 C 407.0 290.0 408.0 291.0 409.0 292.0 C 410.0 293.0 411.0 294.0 412.0 294.0 C 413.0 294.0 414.0 294.0 415.0 293.0 C 416.0 293.0 417.0 293.0 418.0 292.0 C 419.0 292.0 420.0 292.0 421.0 291.0 C 422.0 291.0 423.0 291.0 424.0 290.0 C 425.0 290.0 426.0 290.0 427.0 289.0 C 428.0 289.0 429.0 289.0 430.0 289.0 C 431.0 288.0 432.0 288.0 433.0 287.0 C 434.0 286.0 436.0 285.0 438.0 282.0 C 441.0 279.0 444.0 279.0 447.0 279.0 C 449.0 282.0 450.0 285.0 449.0 288.0 C 449.0 291.0 448.0 294.0 446.0 297.0 C 448.0 299.0 451.0 301.0 454.0 302.0 C 457.0 303.0 460.0 305.0 463.0 307.0 C 466.0 308.0 469.0 311.0 471.0 313.0 C 473.0 315.0 473.0 318.0 473.0 321.0 C 470.0 323.0 467.0 324.0 464.0 323.0 C 461.0 323.0 462.0 326.0 465.0 329.0 C 467.0 332.0 467.0 335.0 466.0 338.0 C 463.0 340.0 460.0 341.0 461.0 344.0 C 459.0 346.0 456.0 347.0 453.0 347.0 C 450.0 346.0 447.0 346.0 444.0 344.0 C 441.0 345.0 442.0 348.0 444.0 351.0 C 444.0 354.0 445.0 357.0 443.0 359.0 C 440.0 360.0 437.0 360.0 434.0 358.0 C 432.0 355.0 429.0 352.0 427.0 349.0 C 425.0 346.0 423.0 344.0 420.0 343.0 C 417.0 343.0 414.0 341.0 411.0 339.0 C 408.0 337.0 405.0 335.0 402.0 332.0 C 399.0 330.0 396.0 329.0 393.0 329.0 C 390.0 329.0 387.0 329.0 384.0 328.0 C 381.0 328.0 378.0 328.0 375.0 327.0 C 372.0 327.0 369.0 326.0 366.0 326.0 C 363.0 325.0 360.0 325.0 357.0 324.0 C 354.0 323.0 351.0 323.0 348.0 322.0 C 345.0 321.0 343.0 320.0 344.0 317.0 C 346.0 314.0 348.0 312.0 350.0 311.0 C 352.0 309.0 353.0 306.0 355.0 303.0 C 356.0 300.0 358.0 297.0 359.0 294.0 C 360.0 291.0 361.0 288.0 362.0 285.0 C 362.0 282.0 361.0 280.0 364.0 279.0 C 361.0 278.0 362.0 276.0 365.0 276.0 C 365.0 273.0 366.0 270.0 364.0 269.0 C 364.0 266.0 363.0 263.0 364.0 263.0" stroke-width="0.0" fill="rgb(248, 188, 111)" opacity="1.0" stroke="rgb(232, 16, 28)" stroke-opacity="0.72234803" stroke-linecap="round" stroke-linejoin="round"/>
    <path d="M 103.0 208.0 C 104.0 208.0 105.0 209.0 106.0 209.0 C 107.0 209.0 108.0 209.0 109.0 208.0 C 110.0 208.0 111.0 208.0 112.0 209.0 C 113.0 209.0 114.0 208.0 115.0 208.0 C 116.0 208.0 117.0 208.0 118.0 209.0 C 119.0 209.0 119.0 210.0 120.0 211.0 C 121.0 211.0 121.0 212.0 121.0 213.0 C 121.0 214.0 122.0 215.0 123.0 215.0 C 124.0 215.0 125.0 215.0 126.0 215.0 C 127.0 215.0 127.0 216.0 127.0 217.0 C 127.0 218.0 127.0 219.0 127.0 220.0 C 127.0 221.0 127.0 222.0 127.0 223.0 C 126.0 223.0 125.0 223.0 124.0 223.0 C 123.0 223.0 122.0 223.0 121.0 223.0 C 120.0 222.0 119.0 222.0 118.0 222.0 C 117.0 222.0 116.0 222.0 115.0 222.0 C 114.0 222.0 113.0 222.0 112.0 222.0 C 111.0 222.0 110.0 222.0 109.0 222.0 C 108.0 222.0 107.0 222.0 106.0 222.0 C 105.0 222.0 104.0 222.0 103.0 222.0 C 102.0 222.0 101.0 222.0 100.0 222.0 C 99.0 222.0 98.0 222.0 97.0 222.0 C 97.0 221.0 96.0 220.0 96.0 219.0 C 96.0 218.0 96.0 217.0 96.0 216.0 C 96.0 215.0 97.0 214.0 97.0 213.0 C 97.0 212.0 97.0 211.0 97.0 210.0 C 97.0 209.0 98.0 209.0 99.0 209.0 C 100.0 209.0 101.0 208.0 103.0 208.0" stroke-width="0.0" fill="rgb(1, 1, 1)" opacity="1.0" stroke="rgb(194, 40, 194)" stroke-opacity="0.67314494" stroke-linecap="round" stroke-linejoin="round"/>
    <path d="M 205.0 139.0 C 205.0 140.0 205.0 141.0 205.0 142.0 C 205.0 143.0 206.0 144.0 207.0 144.0 C 208.0 144.0 209.0 145.0 210.0 145.0 C 211.0 145.0 212.0 145.0 212.0 146.0 C 212.0 147.0 211.0 148.0 210.0 149.0 C 209.0 149.0 208.0 150.0 207.0 150.0 C 206.0 150.0 205.0 150.0 204.0 150.0 C 203.0 150.0 202.0 150.0 201.0 149.0 C 200.0 148.0 200.0 147.0 199.0 146.0 C 199.0 145.0 199.0 144.0 199.0 143.0 C 200.0 143.0 201.0 143.0 202.0 143.0 C 203.0 142.0 202.0 141.0 202.0 140.0 C 202.0 139.0 203.0 138.0 205.0 139.0" stroke-width="0.0" fill="rgb(1, 2, 3)" opacity="1.0" stroke="rgb(3, 116, 10)" stroke-opacity="0.47643155" stroke-linecap="round" stroke-linejoin="round"/>
    <path d="M 321.0 217.0 C 322.0 217.0 306.0 231.0 296.0 239.0 C 291.0 243.0 301.0 258.0 311.0 270.0 C 313.0 293.0 323.0 307.0 337.0 321.0 C 349.0 305.0 357.0 291.0 363.0 265.0 C 346.0 257.0 328.0 252.0 312.0 248.0 C 330.0 247.0 355.0 257.0 378.0 272.0 C 404.0 287.0 430.0 288.0 421.0 294.0 C 397.0 287.0 371.0 273.0 359.0 293.0 C 353.0 318.0 379.0 324.0 404.0 329.0 C 427.0 344.0 440.0 349.0 452.0 344.0 C 461.0 329.0 457.0 319.0 461.0 308.0 C 444.0 295.0 444.0 279.0 450.0 300.0 C 473.0 316.0 468.0 334.0 450.0 347.0 C 440.0 360.0 417.0 343.0 392.0 329.0 C 366.0 326.0 341.0 326.0 324.0 328.0 C 323.0 354.0 323.0 379.0 314.0 401.0 C 309.0 427.0 302.0 453.0 290.0 476.0 C 287.0 502.0 303.0 516.0 300.0 533.0 C 326.0 546.0 343.0 567.0 323.0 582.0 C 297.0 584.0 271.0 583.0 245.0 579.0 C 233.0 557.0 235.0 531.0 229.0 511.0 C 242.0 490.0 235.0 468.0 226.0 464.0 C 214.0 485.0 215.0 509.0 213.0 529.0 C 216.0 555.0 216.0 581.0 191.0 586.0 C 165.0 594.0 140.0 595.0 118.0 586.0 C 131.0 565.0 150.0 545.0 157.0 548.0 C 138.0 562.0 127.0 580.0 151.0 584.0 C 172.0 577.0 190.0 574.0 210.0 572.0 C 212.0 547.0 199.0 534.0 176.0 534.0 C 159.0 531.0 155.0 509.0 166.0 487.0 C 157.0 464.0 155.0 438.0 152.0 412.0 C 139.0 396.0 118.0 382.0 114.0 356.0 C 99.0 351.0 85.0 356.0 76.0 366.0 C 59.0 389.0 46.0 401.0 34.0 398.0 C 16.0 392.0 5.0 378.0 9.0 356.0 C 18.0 331.0 34.0 327.0 54.0 319.0 C 76.0 300.0 74.0 306.0 55.0 324.0 C 60.0 329.0 54.0 333.0 29.0 326.0 C 26.0 340.0 9.0 360.0 13.0 369.0 C 15.0 379.0 27.0 379.0 33.0 394.0 C 47.0 393.0 56.0 386.0 74.0 364.0 C 79.0 348.0 75.0 342.0 96.0 348.0 C 122.0 334.0 128.0 331.0 149.0 322.0 C 151.0 332.0 152.0 344.0 157.0 359.0 C 157.0 370.0 158.0 378.0 157.0 396.0 C 157.0 422.0 159.0 448.0 171.0 469.0 C 197.0 473.0 221.0 467.0 234.0 448.0 C 246.0 467.0 272.0 470.0 296.0 464.0 C 301.0 438.0 308.0 412.0 311.0 386.0 C 289.0 382.0 264.0 386.0 288.0 379.0 C 262.0 376.0 236.0 377.0 210.0 378.0 C 187.0 381.0 173.0 378.0 199.0 375.0 C 207.0 372.0 222.0 373.0 248.0 373.0 C 271.0 369.0 282.0 370.0 304.0 376.0 C 321.0 367.0 315.0 341.0 306.0 327.0 C 297.0 306.0 281.0 295.0 273.0 273.0 C 258.0 260.0 235.0 268.0 244.0 258.0 C 225.0 258.0 215.0 250.0 200.0 250.0 C 220.0 242.0 246.0 242.0 272.0 238.0 C 297.0 230.0 320.0 217.0 321.0 217.0" stroke-width="0.0" fill="rgb(170, 113, 160)" opacity="1.0" stroke="rgb(224, 18, 182)" stroke-opacity="0.015383055" stroke-linecap="round" stroke-linejoin="round"/>
    <path d="M 308.0 117.0 C 308.0 118.0 308.0 119.0 308.0 120.0 C 309.0 121.0 310.0 122.0 311.0 122.0 C 312.0 123.0 313.0 123.0 314.0 122.0 C 315.0 122.0 316.0 122.0 316.0 123.0 C 316.0 124.0 315.0 125.0 315.0 126.0 C 314.0 127.0 313.0 127.0 312.0 128.0 C 311.0 128.0 310.0 128.0 309.0 128.0 C 308.0 128.0 307.0 128.0 306.0 127.0 C 305.0 127.0 304.0 126.0 304.0 125.0 C 303.0 124.0 303.0 123.0 303.0 122.0 C 304.0 121.0 304.0 120.0 304.0 119.0 C 305.0 118.0 306.0 117.0 308.0 117.0" stroke-width="0.0" fill="rgb(11, 0, 4)" opacity="1.0" stroke="rgb(37, 92, 4)" stroke-opacity="0.5393606" stroke-linecap="round" stroke-linejoin="round"/>
    <path d="M 293.0 573.0 C 294.0 573.0 294.0 574.0 294.0 575.0 C 295.0 576.0 295.0 577.0 295.0 578.0 C 296.0 579.0 297.0 579.0 298.0 578.0 C 299.0 578.0 299.0 579.0 298.0 579.0 C 297.0 580.0 296.0 580.0 295.0 580.0 C 294.0 581.0 294.0 582.0 294.0 583.0 C 294.0 582.0 294.0 581.0 293.0 580.0 C 292.0 580.0 291.0 580.0 290.0 580.0 C 289.0 580.0 288.0 580.0 288.0 579.0 C 288.0 578.0 287.0 577.0 288.0 576.0 C 288.0 575.0 288.0 576.0 288.0 577.0 C 289.0 578.0 290.0 578.0 291.0 578.0 C 292.0 578.0 293.0 577.0 293.0 576.0 C 293.0 575.0 292.0 574.0 291.0 574.0 C 290.0 574.0 290.0 573.0 293.0 573.0" stroke-width="0.0" fill="rgb(248, 198, 187)" opacity="1.0" stroke="rgb(110, 13, 174)" stroke-opacity="0.24992223" stroke-linecap="round" stroke-linejoin="round"/>
    <path d="M 312.0 133.0 C 312.0 134.0 311.0 135.0 311.0 136.0 C 311.0 137.0 310.0 138.0 310.0 139.0 C 310.0 140.0 309.0 140.0 308.0 140.0 C 307.0 140.0 307.0 139.0 306.0 138.0 C 305.0 138.0 304.0 138.0 303.0 138.0 C 303.0 137.0 302.0 136.0 301.0 136.0 C 300.0 136.0 300.0 135.0 300.0 134.0 C 301.0 134.0 302.0 134.0 303.0 134.0 C 304.0 135.0 305.0 134.0 305.0 135.0 C 306.0 136.0 307.0 136.0 308.0 137.0 C 309.0 136.0 309.0 135.0 310.0 134.0 C 310.0 133.0 310.0 132.0 312.0 133.0" stroke-width="0.0" fill="rgb(137, 73, 33)" opacity="1.0" stroke="rgb(54, 201, 97)" stroke-opacity="0.9843199" stroke-linecap="round" stroke-linejoin="round"/>
    <path d="M 220.0 137.0 C 220.0 138.0 220.0 139.0 220.0 140.0 C 220.0 141.0 220.0 142.0 220.0 143.0 C 220.0 144.0 219.0 145.0 218.0 145.0 C 217.0 145.0 216.0 145.0 216.0 144.0 C 216.0 143.0 215.0 142.0 215.0 141.0 C 215.0 140.0 215.0 139.0 216.0 139.0 C 217.0 138.0 217.0 137.0 220.0 137.0" stroke-width="0.0" fill="rgb(142, 74, 14)" opacity="1.0" stroke="rgb(121, 111, 49)" stroke-opacity="0.7288466" stroke-linecap="round" stroke-linejoin="round"/>
    <path d="M 204.0 576.0 C 204.0 577.0 204.0 578.0 205.0 579.0 C 205.0 580.0 205.0 581.0 204.0 581.0 C 203.0 581.0 202.0 581.0 201.0 582.0 C 201.0 583.0 200.0 582.0 199.0 582.0 C 198.0 582.0 197.0 582.0 196.0 582.0 C 196.0 581.0 196.0 580.0 195.0 579.0 C 194.0 579.0 193.0 579.0 192.0 580.0 C 192.0 581.0 192.0 582.0 192.0 581.0 C 192.0 580.0 192.0 579.0 192.0 578.0 C 192.0 577.0 193.0 577.0 194.0 577.0 C 195.0 577.0 195.0 578.0 196.0 579.0 C 197.0 579.0 198.0 578.0 198.0 577.0 C 199.0 577.0 200.0 577.0 201.0 577.0 C 202.0 577.0 203.0 576.0 204.0 576.0" stroke-width="0.0" fill="rgb(239, 190, 183)" opacity="1.0" stroke="rgb(133, 136, 83)" stroke-opacity="0.48262596" stroke-linecap="round" stroke-linejoin="round"/>
    <path d="M 240.0 215.0 C 241.0 215.0 242.0 216.0 243.0 217.0 C 242.0 217.0 241.0 217.0 240.0 218.0 C 240.0 219.0 240.0 220.0 241.0 221.0 C 241.0 222.0 242.0 223.0 243.0 223.0 C 242.0 223.0 241.0 223.0 241.0 222.0 C 240.0 221.0 240.0 220.0 239.0 219.0 C 238.0 219.0 237.0 219.0 236.0 218.0 C 236.0 217.0 236.0 216.0 237.0 216.0 C 238.0 216.0 239.0 215.0 240.0 215.0" stroke-width="0.0" fill="rgb(244, 0, 0)" opacity="1.0" stroke="rgb(202, 18, 146)" stroke-opacity="0.35100612" stroke-linecap="round" stroke-linejoin="round"/>
    <path d="M 323.0 130.0 C 323.0 131.0 323.0 132.0 322.0 133.0 C 323.0 134.0 323.0 135.0 323.0 136.0 C 322.0 136.0 321.0 136.0 320.0 136.0 C 320.0 135.0 319.0 134.0 318.0 134.0 C 317.0 134.0 316.0 135.0 316.0 134.0 C 316.0 133.0 316.0 132.0 317.0 132.0 C 318.0 132.0 319.0 132.0 320.0 132.0 C 321.0 131.0 321.0 130.0 323.0 130.0" stroke-width="0.0" fill="rgb(141, 79, 33)" opacity="1.0" stroke="rgb(163, 183, 103)" stroke-opacity="0.5410691" stroke-linecap="round" stroke-linejoin="round"/>
    <path d="M 220.0 147.0 C 221.0 148.0 222.0 148.0 223.0 148.0 C 224.0 148.0 224.0 149.0 224.0 150.0 C 223.0 151.0 222.0 151.0 221.0 151.0 C 220.0 151.0 219.0 151.0 218.0 151.0 C 217.0 151.0 216.0 152.0 216.0 153.0 C 217.0 154.0 218.0 154.0 218.0 155.0 C 218.0 156.0 217.0 157.0 217.0 158.0 C 216.0 159.0 215.0 159.0 214.0 160.0 C 213.0 160.0 212.0 161.0 211.0 161.0 C 210.0 161.0 209.0 162.0 209.0 163.0 C 209.0 164.0 209.0 163.0 209.0 162.0 C 208.0 161.0 208.0 160.0 208.0 159.0 C 208.0 158.0 208.0 157.0 207.0 156.0 C 206.0 156.0 205.0 156.0 204.0 156.0 C 203.0 156.0 202.0 157.0 202.0 158.0 C 202.0 159.0 203.0 160.0 204.0 161.0 C 205.0 161.0 206.0 161.0 205.0 161.0 C 204.0 161.0 203.0 161.0 202.0 162.0 C 202.0 163.0 202.0 162.0 202.0 161.0 C 201.0 160.0 200.0 160.0 199.0 161.0 C 199.0 162.0 198.0 162.0 197.0 162.0 C 197.0 161.0 197.0 160.0 197.0 159.0 C 197.0 158.0 197.0 157.0 197.0 156.0 C 197.0 155.0 198.0 155.0 199.0 154.0 C 199.0 153.0 200.0 152.0 201.0 151.0 C 202.0 151.0 203.0 151.0 204.0 151.0 C 205.0 151.0 206.0 151.0 207.0 151.0 C 208.0 151.0 209.0 151.0 210.0 152.0 C 211.0 152.0 212.0 152.0 213.0 152.0 C 214.0 152.0 215.0 152.0 216.0 151.0 C 216.0 150.0 216.0 149.0 215.0 148.0 C 214.0 149.0 214.0 150.0 213.0 150.0 C 212.0 150.0 212.0 149.0 212.0 148.0 C 213.0 148.0 214.0 148.0 215.0 147.0 C 215.0 146.0 216.0 146.0 216.0 147.0 C 216.0 148.0 217.0 149.0 218.0 149.0 C 219.0 149.0 220.0 148.0 220.0 147.0 C 220.0 146.0 220.0 145.0 220.0 147.0" stroke-width="0.0" fill="rgb(151, 68, 22)" opacity="1.0" stroke="rgb(141, 5, 20)" stroke-opacity="0.10177416" stroke-linecap="round" stroke-linejoin="round"/>
    <path d="M 266.0 573.0 C 267.0 573.0 268.0 573.0 269.0 573.0 C 270.0 573.0 270.0 574.0 270.0 575.0 C 270.0 576.0 271.0 577.0 271.0 578.0 C 270.0 578.0 269.0 578.0 268.0 578.0 C 267.0 578.0 266.0 578.0 265.0 578.0 C 265.0 577.0 264.0 576.0 264.0 575.0 C 264.0 574.0 264.0 573.0 266.0 573.0" stroke-width="0.0" fill="rgb(246, 199, 187)" opacity="1.0" stroke="rgb(163, 46, 173)" stroke-opacity="0.49311745" stroke-linecap="round" stroke-linejoin="round"/>
    <path d="M 303.0 129.0 C 304.0 130.0 305.0 130.0 306.0 131.0 C 307.0 130.0 307.0 129.0 307.0 130.0 C 307.0 131.0 306.0 131.0 305.0 132.0 C 305.0 133.0 304.0 132.0 303.0 133.0 C 302.0 133.0 301.0 133.0 300.0 133.0 C 299.0 133.0 298.0 132.0 297.0 133.0 C 297.0 134.0 296.0 134.0 295.0 134.0 C 295.0 133.0 294.0 132.0 294.0 131.0 C 294.0 130.0 295.0 130.0 296.0 131.0 C 297.0 132.0 298.0 132.0 299.0 132.0 C 300.0 132.0 301.0 131.0 301.0 130.0 C 301.0 129.0 301.0 128.0 303.0 129.0" stroke-width="0.0" fill="rgb(152, 73, 29)" opacity="1.0" stroke="rgb(254, 253, 62)" stroke-opacity="0.23016268" stroke-linecap="round" stroke-linejoin="round"/>
    <path d="M 229.0 204.0 C 230.0 205.0 231.0 205.0 232.0 206.0 C 233.0 206.0 234.0 206.0 235.0 207.0 C 236.0 207.0 237.0 207.0 238.0 206.0 C 239.0 206.0 240.0 206.0 241.0 206.0 C 242.0 207.0 243.0 207.0 244.0 208.0 C 244.0 209.0 244.0 210.0 243.0 210.0 C 243.0 209.0 242.0 208.0 241.0 208.0 C 240.0 209.0 239.0 209.0 238.0 208.0 C 237.0 208.0 236.0 208.0 235.0 208.0 C 234.0 208.0 233.0 208.0 232.0 208.0 C 231.0 207.0 230.0 207.0 229.0 207.0 C 229.0 206.0 229.0 205.0 228.0 204.0 C 227.0 204.0 226.0 204.0 229.0 204.0" stroke-width="0.0" fill="rgb(208, 26, 2)" opacity="1.0" stroke="rgb(94, 115, 75)" stroke-opacity="0.6255031" stroke-linecap="round" stroke-linejoin="round"/>
    <path d="M 328.0 114.0 C 328.0 115.0 328.0 116.0 328.0 117.0 C 328.0 118.0 327.0 118.0 326.0 118.0 C 325.0 119.0 326.0 120.0 327.0 120.0 C 328.0 120.0 329.0 120.0 329.0 121.0 C 329.0 122.0 329.0 123.0 329.0 124.0 C 329.0 125.0 329.0 126.0 329.0 127.0 C 329.0 128.0 328.0 127.0 327.0 127.0 C 326.0 127.0 326.0 126.0 326.0 125.0 C 326.0 124.0 326.0 123.0 326.0 122.0 C 326.0 121.0 325.0 120.0 324.0 119.0 C 323.0 119.0 322.0 119.0 321.0 119.0 C 320.0 120.0 320.0 121.0 320.0 122.0 C 320.0 123.0 320.0 124.0 319.0 124.0 C 319.0 123.0 319.0 122.0 319.0 121.0 C 320.0 120.0 320.0 119.0 321.0 119.0 C 322.0 119.0 323.0 118.0 323.0 117.0 C 324.0 117.0 325.0 117.0 326.0 116.0 C 326.0 115.0 326.0 114.0 328.0 114.0" stroke-width="0.0" fill="rgb(133, 74, 41)" opacity="1.0" stroke="rgb(104, 253, 154)" stroke-opacity="0.16281052" stroke-linecap="round" stroke-linejoin="round"/>
    <path d="M 317.0 109.0 C 318.0 110.0 319.0 110.0 320.0 110.0 C 321.0 111.0 322.0 111.0 321.0 111.0 C 320.0 112.0 320.0 113.0 320.0 114.0 C 320.0 115.0 320.0 116.0 320.0 115.0 C 319.0 114.0 318.0 114.0 318.0 113.0 C 317.0 112.0 316.0 112.0 315.0 111.0 C 314.0 112.0 313.0 112.0 312.0 112.0 C 311.0 112.0 311.0 111.0 311.0 110.0 C 312.0 111.0 313.0 111.0 314.0 111.0 C 315.0 111.0 316.0 111.0 317.0 110.0 C 317.0 109.0 317.0 108.0 317.0 109.0" stroke-width="0.0" fill="rgb(140, 76, 41)" opacity="1.0" stroke="rgb(191, 229, 78)" stroke-opacity="0.6635635" stroke-linecap="round" stroke-linejoin="round"/>
    <path d="M 137.0 584.0 C 138.0 584.0 139.0 584.0 140.0 584.0 C 141.0 584.0 142.0 584.0 143.0 584.0 C 144.0 584.0 145.0 584.0 146.0 584.0 C 147.0 584.0 148.0 584.0 149.0 584.0 C 150.0 584.0 151.0 584.0 151.0 585.0 C 151.0 586.0 151.0 587.0 151.0 588.0 C 151.0 589.0 151.0 590.0 152.0 591.0 C 153.0 591.0 152.0 591.0 151.0 592.0 C 150.0 591.0 149.0 591.0 148.0 591.0 C 147.0 591.0 146.0 591.0 145.0 591.0 C 144.0 591.0 144.0 590.0 144.0 589.0 C 144.0 588.0 144.0 587.0 144.0 586.0 C 143.0 585.0 142.0 585.0 141.0 585.0 C 140.0 586.0 140.0 587.0 140.0 588.0 C 141.0 589.0 141.0 590.0 141.0 591.0 C 140.0 591.0 139.0 591.0 138.0 591.0 C 137.0 590.0 136.0 590.0 135.0 590.0 C 134.0 590.0 134.0 589.0 134.0 588.0 C 135.0 588.0 136.0 587.0 136.0 586.0 C 136.0 585.0 136.0 584.0 137.0 584.0" stroke-width="0.0" fill="rgb(245, 197, 187)" opacity="1.0" stroke="rgb(139, 225, 127)" stroke-opacity="0.33098027" stroke-linecap="round" stroke-linejoin="round"/>
    <path d="M 182.0 523.0 C 183.0 523.0 184.0 523.0 185.0 524.0 C 186.0 524.0 187.0 524.0 187.0 525.0 C 187.0 526.0 187.0 527.0 186.0 526.0 C 185.0 526.0 184.0 526.0 183.0 526.0 C 182.0 525.0 181.0 525.0 180.0 525.0 C 180.0 524.0 180.0 523.0 182.0 523.0" stroke-width="0.0" fill="rgb(255, 255, 90)" opacity="1.0" stroke="rgb(1, 34, 10)" stroke-opacity="0.68745047" stroke-linecap="round" stroke-linejoin="round"/>
    <path d="M 199.0 128.0 C 199.0 129.0 199.0 130.0 199.0 131.0 C 200.0 132.0 200.0 133.0 200.0 134.0 C 201.0 135.0 202.0 135.0 203.0 136.0 C 203.0 137.0 202.0 138.0 201.0 139.0 C 200.0 139.0 199.0 139.0 198.0 140.0 C 198.0 141.0 198.0 142.0 198.0 143.0 C 198.0 144.0 198.0 145.0 198.0 146.0 C 199.0 147.0 199.0 148.0 200.0 149.0 C 200.0 150.0 200.0 151.0 199.0 152.0 C 198.0 153.0 198.0 154.0 197.0 154.0 C 196.0 155.0 196.0 156.0 196.0 157.0 C 196.0 158.0 196.0 159.0 196.0 160.0 C 195.0 160.0 194.0 160.0 193.0 159.0 C 192.0 158.0 191.0 157.0 192.0 157.0 C 193.0 156.0 193.0 155.0 193.0 154.0 C 192.0 153.0 191.0 153.0 190.0 153.0 C 189.0 154.0 189.0 153.0 188.0 152.0 C 188.0 151.0 188.0 150.0 187.0 149.0 C 187.0 148.0 187.0 147.0 188.0 147.0 C 189.0 147.0 190.0 146.0 189.0 145.0 C 188.0 145.0 187.0 145.0 187.0 144.0 C 187.0 143.0 187.0 144.0 188.0 145.0 C 189.0 145.0 190.0 145.0 191.0 144.0 C 191.0 143.0 191.0 142.0 191.0 141.0 C 190.0 140.0 189.0 140.0 188.0 140.0 C 189.0 140.0 190.0 139.0 191.0 138.0 C 192.0 137.0 192.0 136.0 192.0 135.0 C 191.0 134.0 190.0 134.0 191.0 133.0 C 192.0 132.0 193.0 131.0 194.0 131.0 C 195.0 131.0 196.0 130.0 196.0 129.0 C 197.0 129.0 198.0 128.0 199.0 128.0" stroke-width="0.0" fill="rgb(145, 66, 20)" opacity="1.0" stroke="rgb(242, 161, 30)" stroke-opacity="0.44891912" stroke-linecap="round" stroke-linejoin="round"/>
    <path d="M 313.0 104.0 C 314.0 104.0 315.0 104.0 316.0 105.0 C 317.0 105.0 318.0 105.0 319.0 105.0 C 319.0 106.0 319.0 107.0 318.0 107.0 C 317.0 107.0 316.0 107.0 315.0 107.0 C 314.0 107.0 313.0 107.0 312.0 107.0 C 311.0 108.0 311.0 109.0 310.0 110.0 C 310.0 111.0 310.0 112.0 311.0 113.0 C 312.0 113.0 313.0 113.0 314.0 113.0 C 315.0 113.0 316.0 113.0 317.0 113.0 C 317.0 114.0 318.0 115.0 319.0 115.0 C 319.0 116.0 319.0 117.0 319.0 118.0 C 319.0 119.0 318.0 120.0 317.0 120.0 C 316.0 120.0 315.0 120.0 315.0 119.0 C 315.0 118.0 315.0 117.0 314.0 116.0 C 313.0 116.0 312.0 115.0 311.0 115.0 C 310.0 115.0 309.0 116.0 308.0 116.0 C 307.0 116.0 306.0 116.0 305.0 116.0 C 304.0 117.0 304.0 118.0 304.0 117.0 C 304.0 116.0 305.0 115.0 304.0 114.0 C 304.0 113.0 304.0 112.0 303.0 111.0 C 302.0 111.0 301.0 111.0 300.0 111.0 C 299.0 111.0 298.0 111.0 299.0 111.0 C 300.0 111.0 301.0 110.0 301.0 109.0 C 302.0 110.0 303.0 109.0 303.0 108.0 C 304.0 108.0 305.0 107.0 305.0 106.0 C 305.0 105.0 305.0 106.0 305.0 107.0 C 306.0 108.0 307.0 107.0 307.0 106.0 C 307.0 105.0 307.0 106.0 308.0 107.0 C 309.0 107.0 310.0 107.0 311.0 106.0 C 311.0 105.0 311.0 104.0 313.0 104.0" stroke-width="0.0" fill="rgb(135, 64, 21)" opacity="1.0" stroke="rgb(61, 248, 52)" stroke-opacity="0.8429202" stroke-linecap="round" stroke-linejoin="round"/>
    <path d="M 231.0 448.0 C 232.0 448.0 233.0 448.0 234.0 448.0 C 235.0 448.0 236.0 448.0 237.0 448.0 C 237.0 449.0 237.0 450.0 236.0 450.0 C 235.0 451.0 235.0 452.0 236.0 453.0 C 236.0 454.0 236.0 455.0 236.0 456.0 C 236.0 457.0 235.0 457.0 234.0 457.0 C 233.0 458.0 233.0 459.0 233.0 458.0 C 233.0 457.0 233.0 456.0 233.0 455.0 C 232.0 454.0 233.0 454.0 234.0 454.0 C 235.0 453.0 235.0 452.0 235.0 451.0 C 235.0 450.0 235.0 449.0 234.0 448.0 C 233.0 448.0 232.0 448.0 231.0 449.0 C 231.0 450.0 230.0 451.0 230.0 452.0 C 230.0 453.0 229.0 453.0 228.0 453.0 C 227.0 454.0 227.0 455.0 227.0 456.0 C 227.0 457.0 226.0 456.0 225.0 456.0 C 224.0 456.0 223.0 457.0 223.0 458.0 C 223.0 459.0 223.0 460.0 223.0 461.0 C 224.0 462.0 225.0 462.0 226.0 462.0 C 226.0 463.0 225.0 463.0 224.0 463.0 C 223.0 464.0 223.0 465.0 223.0 466.0 C 223.0 467.0 223.0 466.0 223.0 465.0 C 223.0 464.0 223.0 463.0 223.0 462.0 C 223.0 461.0 223.0 460.0 223.0 459.0 C 223.0 458.0 223.0 457.0 223.0 456.0 C 224.0 455.0 224.0 454.0 224.0 453.0 C 224.0 452.0 225.0 451.0 225.0 450.0 C 226.0 450.0 227.0 449.0 228.0 449.0 C 229.0 449.0 230.0 448.0 231.0 448.0" stroke-width="0.0" fill="rgb(100, 39, 31)" opacity="1.0" stroke="rgb(188, 206, 174)" stroke-opacity="0.24440722" stroke-linecap="round" stroke-linejoin="round"/>
    <path d="M 274.0 527.0 C 275.0 527.0 276.0 528.0 277.0 528.0 C 278.0 528.0 279.0 528.0 280.0 528.0 C 281.0 527.0 282.0 527.0 283.0 526.0 C 283.0 525.0 283.0 526.0 283.0 527.0 C 282.0 527.0 281.0 528.0 280.0 528.0 C 279.0 528.0 278.0 528.0 277.0 529.0 C 276.0 529.0 275.0 529.0 274.0 529.0 C 273.0 530.0 272.0 530.0 271.0 530.0 C 270.0 530.0 269.0 530.0 268.0 530.0 C 267.0 530.0 266.0 531.0 265.0 531.0 C 264.0 531.0 263.0 531.0 262.0 531.0 C 261.0 531.0 260.0 531.0 259.0 531.0 C 258.0 531.0 257.0 531.0 256.0 531.0 C 255.0 531.0 254.0 530.0 253.0 530.0 C 252.0 530.0 251.0 530.0 250.0 530.0 C 249.0 530.0 249.0 529.0 249.0 528.0 C 249.0 527.0 250.0 527.0 251.0 527.0 C 252.0 527.0 253.0 528.0 254.0 528.0 C 255.0 527.0 255.0 528.0 255.0 529.0 C 256.0 530.0 257.0 530.0 258.0 530.0 C 259.0 530.0 260.0 530.0 261.0 530.0 C 262.0 530.0 263.0 530.0 264.0 530.0 C 265.0 530.0 266.0 530.0 267.0 530.0 C 268.0 529.0 268.0 528.0 268.0 527.0 C 267.0 526.0 268.0 526.0 268.0 527.0 C 269.0 528.0 270.0 528.0 271.0 528.0 C 272.0 528.0 273.0 527.0 273.0 526.0 C 273.0 525.0 273.0 524.0 274.0 527.0" stroke-width="0.0" fill="rgb(252, 248, 93)" opacity="1.0" stroke="rgb(84, 52, 224)" stroke-opacity="0.5594969" stroke-linecap="round" stroke-linejoin="round"/>
    <path d="M 183.0 577.0 C 184.0 577.0 185.0 577.0 186.0 577.0 C 187.0 577.0 188.0 577.0 189.0 577.0 C 190.0 577.0 191.0 577.0 191.0 578.0 C 191.0 579.0 191.0 580.0 191.0 581.0 C 191.0 582.0 190.0 582.0 189.0 582.0 C 188.0 583.0 187.0 583.0 186.0 583.0 C 185.0 583.0 184.0 583.0 183.0 584.0 C 182.0 584.0 181.0 584.0 180.0 584.0 C 179.0 584.0 178.0 585.0 177.0 585.0 C 176.0 585.0 175.0 586.0 174.0 586.0 C 173.0 586.0 172.0 586.0 171.0 587.0 C 170.0 587.0 169.0 587.0 168.0 588.0 C 167.0 588.0 166.0 588.0 165.0 589.0 C 164.0 589.0 163.0 589.0 162.0 589.0 C 161.0 590.0 161.0 591.0 161.0 592.0 C 161.0 593.0 161.0 594.0 161.0 595.0 C 160.0 595.0 160.0 594.0 160.0 593.0 C 160.0 592.0 160.0 591.0 159.0 590.0 C 158.0 590.0 157.0 590.0 156.0 590.0 C 155.0 590.0 154.0 590.0 153.0 590.0 C 152.0 590.0 153.0 590.0 154.0 590.0 C 155.0 589.0 155.0 588.0 155.0 587.0 C 155.0 586.0 154.0 585.0 153.0 585.0 C 152.0 585.0 152.0 584.0 153.0 584.0 C 154.0 583.0 155.0 583.0 156.0 583.0 C 157.0 583.0 158.0 583.0 159.0 583.0 C 160.0 582.0 161.0 582.0 162.0 582.0 C 163.0 582.0 164.0 582.0 165.0 581.0 C 166.0 581.0 167.0 581.0 168.0 580.0 C 169.0 580.0 170.0 580.0 171.0 580.0 C 172.0 580.0 173.0 579.0 174.0 579.0 C 175.0 579.0 176.0 578.0 177.0 578.0 C 178.0 578.0 179.0 578.0 180.0 578.0 C 181.0 578.0 182.0 577.0 183.0 577.0" stroke-width="0.0" fill="rgb(239, 193, 183)" opacity="1.0" stroke="rgb(1, 40, 209)" stroke-opacity="0.2270833" stroke-linecap="round" stroke-linejoin="round"/>
  </g>
</svg>
