<?xml version="1.0" ?>
<svg xmlns="http://www.w3.org/2000/svg" version="1.1" width="482" height="303">
  <defs/>
  <g>
    <path d="M 1.0 0.0 C 2.0 0.0 3.0 0.0 4.0 0.0 C 5.0 0.0 6.0 0.0 7.0 0.0 C 8.0 0.0 9.0 0.0 10.0 0.0 C 11.0 0.0 12.0 0.0 13.0 0.0 C 19.0 0.0 33.0 0.0 47.0 0.0 C 61.0 0.0 75.0 0.0 89.0 0.0 C 103.0 0.0 117.0 0.0 131.0 0.0 C 145.0 0.0 159.0 0.0 173.0 0.0 C 187.0 0.0 201.0 0.0 215.0 0.0 C 229.0 0.0 243.0 0.0 257.0 0.0 C 271.0 0.0 285.0 0.0 299.0 0.0 C 313.0 0.0 327.0 0.0 341.0 0.0 C 355.0 0.0 369.0 0.0 383.0 0.0 C 397.0 0.0 411.0 0.0 425.0 0.0 C 439.0 0.0 453.0 0.0 467.0 0.0 C 481.0 0.0 481.0 14.0 481.0 28.0 C 481.0 42.0 481.0 56.0 481.0 70.0 C 481.0 84.0 481.0 98.0 481.0 112.0 C 481.0 126.0 481.0 140.0 481.0 154.0 C 481.0 168.0 476.0 176.0 462.0 175.0 C 455.0 185.0 469.0 187.0 481.0 190.0 C 481.0 204.0 481.0 218.0 481.0 232.0 C 481.0 246.0 481.0 260.0 481.0 274.0 C 481.0 288.0 481.0 302.0 467.0 302.0 C 453.0 302.0 439.0 302.0 425.0 302.0 C 411.0 302.0 397.0 302.0 383.0 302.0 C 369.0 302.0 355.0 302.0 341.0 302.0 C 327.0 302.0 313.0 302.0 299.0 302.0 C 285.0 302.0 271.0 302.0 257.0 302.0 C 243.0 302.0 229.0 302.0 215.0 302.0 C 201.0 302.0 187.0 302.0 173.0 302.0 C 159.0 302.0 145.0 302.0 131.0 302.0 C 117.0 302.0 103.0 302.0 89.0 302.0 C 75.0 302.0 61.0 302.0 47.0 302.0 C 33.0 302.0 19.0 302.0 5.0 302.0 C 0.0 293.0 0.0 279.0 0.0 265.0 C 0.0 251.0 0.0 237.0 0.0 223.0 C 0.0 209.0 3.0 200.0 4.0 214.0 C 6.0 228.0 11.0 242.0 23.0 251.0 C 33.0 240.0 47.0 239.0 61.0 239.0 C 74.0 236.0 88.0 236.0 99.0 246.0 C 113.0 247.0 127.0 251.0 141.0 257.0 C 155.0 263.0 167.0 263.0 165.0 249.0 C 166.0 235.0 171.0 221.0 185.0 228.0 C 198.0 237.0 189.0 223.0 184.0 212.0 C 196.0 219.0 205.0 231.0 211.0 241.0 C 207.0 227.0 197.0 213.0 183.0 206.0 C 170.0 215.0 165.0 221.0 168.0 207.0 C 154.0 203.0 140.0 201.0 126.0 199.0 C 112.0 196.0 98.0 194.0 84.0 192.0 C 70.0 189.0 56.0 187.0 42.0 185.0 C 40.0 193.0 49.0 207.0 63.0 220.0 C 70.0 232.0 60.0 232.0 46.0 224.0 C 33.0 215.0 31.0 201.0 31.0 187.0 C 25.0 191.0 17.0 181.0 4.0 181.0 C 2.0 173.0 0.0 168.0 0.0 154.0 C 0.0 140.0 0.0 126.0 0.0 112.0 C 0.0 98.0 0.0 84.0 0.0 70.0 C 0.0 56.0 0.0 42.0 0.0 28.0 C 0.0 14.0 0.0 0.0 1.0 0.0" stroke-width="0.0" fill="rgb(46, 38, 33)" opacity="1.0" stroke="rgb(71, 32, 104)" stroke-opacity="0.647853" stroke-linecap="round" stroke-linejoin="round"/>
    <path d="M 210.0 188.0 C 211.0 188.0 211.0 189.0 211.0 190.0 C 210.0 191.0 209.0 192.0 210.0 193.0 C 210.0 194.0 211.0 195.0 212.0 194.0 C 213.0 194.0 214.0 194.0 215.0 194.0 C 216.0 194.0 217.0 194.0 218.0 194.0 C 219.0 194.0 220.0 195.0 221.0 195.0 C 222.0 195.0 223.0 195.0 224.0 195.0 C 225.0 195.0 226.0 195.0 227.0 195.0 C 228.0 195.0 229.0 195.0 230.0 195.0 C 231.0 194.0 232.0 194.0 233.0 194.0 C 234.0 194.0 235.0 194.0 236.0 194.0 C 237.0 194.0 238.0 194.0 239.0 194.0 C 240.0 195.0 241.0 195.0 242.0 195.0 C 243.0 194.0 244.0 194.0 245.0 194.0 C 246.0 194.0 247.0 194.0 248.0 194.0 C 249.0 194.0 250.0 194.0 251.0 194.0 C 252.0 194.0 253.0 194.0 255.0 194.0 C 257.0 194.0 259.0 194.0 261.0 194.0 C 263.0 194.0 265.0 194.0 267.0 195.0 C 269.0 194.0 271.0 194.0 273.0 194.0 C 275.0 195.0 277.0 194.0 279.0 194.0 C 281.0 194.0 283.0 194.0 285.0 195.0 C 287.0 194.0 289.0 195.0 291.0 195.0 C 293.0 195.0 295.0 195.0 297.0 194.0 C 299.0 195.0 301.0 194.0 303.0 194.0 C 305.0 194.0 307.0 194.0 309.0 194.0 C 311.0 194.0 313.0 194.0 315.0 194.0 C 317.0 194.0 319.0 194.0 321.0 194.0 C 323.0 194.0 325.0 194.0 327.0 194.0 C 329.0 194.0 331.0 195.0 333.0 194.0 C 335.0 194.0 337.0 194.0 339.0 194.0 C 339.0 196.0 340.0 198.0 340.0 200.0 C 339.0 202.0 337.0 202.0 335.0 201.0 C 333.0 202.0 331.0 202.0 329.0 202.0 C 327.0 203.0 325.0 203.0 323.0 201.0 C 321.0 202.0 319.0 202.0 317.0 202.0 C 315.0 201.0 313.0 202.0 311.0 202.0 C 309.0 202.0 307.0 201.0 305.0 202.0 C 303.0 203.0 301.0 203.0 299.0 203.0 C 297.0 202.0 295.0 203.0 293.0 203.0 C 291.0 203.0 289.0 201.0 287.0 201.0 C 285.0 201.0 283.0 200.0 281.0 200.0 C 279.0 201.0 277.0 201.0 275.0 200.0 C 273.0 200.0 271.0 200.0 269.0 200.0 C 267.0 200.0 265.0 200.0 263.0 200.0 C 261.0 200.0 259.0 199.0 257.0 199.0 C 255.0 199.0 253.0 198.0 252.0 200.0 C 251.0 201.0 249.0 201.0 248.0 200.0 C 247.0 198.0 245.0 198.0 243.0 199.0 C 242.0 200.0 240.0 201.0 239.0 202.0 C 237.0 202.0 235.0 202.0 233.0 202.0 C 231.0 202.0 229.0 202.0 227.0 202.0 C 225.0 201.0 223.0 201.0 221.0 201.0 C 219.0 201.0 217.0 201.0 215.0 201.0 C 213.0 202.0 211.0 202.0 209.0 202.0 C 207.0 202.0 205.0 202.0 203.0 201.0 C 201.0 201.0 199.0 201.0 197.0 201.0 C 197.0 199.0 199.0 198.0 201.0 196.0 C 203.0 194.0 205.0 193.0 207.0 192.0 C 207.0 190.0 209.0 188.0 210.0 188.0" stroke-width="0.0" fill="rgb(0, 0, 0)" opacity="1.0" stroke="rgb(171, 170, 143)" stroke-opacity="0.13011187" stroke-linecap="round" stroke-linejoin="round"/>
    <path d="M 165.0 71.0 C 166.0 71.0 167.0 71.0 168.0 71.0 C 169.0 71.0 170.0 71.0 171.0 71.0 C 172.0 71.0 173.0 71.0 174.0 71.0 C 174.0 72.0 174.0 73.0 173.0 73.0 C 172.0 73.0 171.0 74.0 171.0 75.0 C 172.0 76.0 173.0 76.0 174.0 76.0 C 175.0 76.0 176.0 76.0 177.0 76.0 C 178.0 75.0 178.0 74.0 179.0 74.0 C 180.0 73.0 180.0 72.0 180.0 71.0 C 181.0 71.0 182.0 71.0 183.0 72.0 C 184.0 72.0 185.0 72.0 186.0 72.0 C 187.0 73.0 188.0 73.0 189.0 73.0 C 190.0 73.0 191.0 74.0 192.0 75.0 C 193.0 75.0 193.0 76.0 193.0 77.0 C 193.0 78.0 192.0 78.0 191.0 78.0 C 190.0 78.0 189.0 79.0 188.0 79.0 C 187.0 79.0 186.0 79.0 185.0 79.0 C 184.0 79.0 183.0 79.0 182.0 79.0 C 181.0 79.0 180.0 79.0 179.0 79.0 C 178.0 79.0 177.0 79.0 176.0 79.0 C 175.0 79.0 174.0 79.0 173.0 79.0 C 172.0 78.0 171.0 78.0 170.0 79.0 C 169.0 80.0 168.0 80.0 167.0 80.0 C 166.0 80.0 165.0 79.0 164.0 79.0 C 163.0 79.0 162.0 79.0 161.0 79.0 C 160.0 79.0 159.0 78.0 158.0 79.0 C 157.0 80.0 157.0 81.0 156.0 81.0 C 155.0 81.0 154.0 82.0 154.0 83.0 C 154.0 84.0 154.0 85.0 153.0 85.0 C 152.0 85.0 151.0 85.0 150.0 85.0 C 149.0 84.0 148.0 84.0 147.0 84.0 C 146.0 84.0 145.0 84.0 144.0 84.0 C 143.0 84.0 142.0 84.0 141.0 84.0 C 140.0 84.0 139.0 84.0 138.0 84.0 C 137.0 84.0 136.0 84.0 135.0 84.0 C 134.0 85.0 133.0 85.0 132.0 85.0 C 131.0 85.0 130.0 86.0 129.0 86.0 C 128.0 86.0 127.0 86.0 126.0 86.0 C 125.0 86.0 124.0 87.0 123.0 87.0 C 122.0 87.0 122.0 86.0 122.0 85.0 C 123.0 85.0 124.0 85.0 125.0 84.0 C 126.0 84.0 127.0 84.0 128.0 83.0 C 129.0 82.0 130.0 82.0 131.0 82.0 C 132.0 82.0 133.0 81.0 134.0 81.0 C 135.0 80.0 136.0 80.0 137.0 80.0 C 138.0 79.0 139.0 79.0 140.0 79.0 C 141.0 78.0 142.0 78.0 143.0 77.0 C 144.0 77.0 145.0 77.0 146.0 76.0 C 147.0 76.0 148.0 75.0 149.0 75.0 C 150.0 75.0 151.0 75.0 152.0 74.0 C 153.0 74.0 154.0 74.0 155.0 73.0 C 156.0 73.0 157.0 73.0 158.0 73.0 C 159.0 73.0 160.0 72.0 161.0 72.0 C 162.0 72.0 163.0 71.0 165.0 71.0" stroke-width="0.0" fill="rgb(0, 0, 0)" opacity="1.0" stroke="rgb(43, 48, 225)" stroke-opacity="0.6963273" stroke-linecap="round" stroke-linejoin="round"/>
    <path d="M 233.0 75.0 C 234.0 75.0 235.0 75.0 236.0 75.0 C 237.0 75.0 238.0 75.0 239.0 75.0 C 240.0 76.0 240.0 77.0 240.0 78.0 C 241.0 79.0 242.0 79.0 243.0 79.0 C 244.0 80.0 245.0 80.0 246.0 80.0 C 247.0 80.0 248.0 79.0 248.0 78.0 C 248.0 77.0 249.0 77.0 250.0 77.0 C 251.0 77.0 252.0 77.0 253.0 78.0 C 254.0 78.0 255.0 78.0 256.0 78.0 C 257.0 79.0 258.0 79.0 259.0 79.0 C 260.0 79.0 261.0 79.0 262.0 79.0 C 263.0 80.0 264.0 80.0 265.0 80.0 C 266.0 80.0 267.0 80.0 268.0 81.0 C 269.0 81.0 270.0 81.0 271.0 82.0 C 272.0 82.0 273.0 82.0 274.0 82.0 C 275.0 82.0 276.0 82.0 277.0 82.0 C 278.0 83.0 279.0 83.0 280.0 84.0 C 281.0 84.0 282.0 84.0 283.0 84.0 C 284.0 84.0 285.0 84.0 286.0 85.0 C 287.0 85.0 288.0 86.0 289.0 87.0 C 290.0 87.0 291.0 87.0 292.0 87.0 C 293.0 87.0 294.0 87.0 295.0 87.0 C 296.0 88.0 297.0 88.0 298.0 88.0 C 298.0 89.0 298.0 90.0 298.0 91.0 C 297.0 91.0 296.0 91.0 295.0 91.0 C 294.0 91.0 293.0 91.0 292.0 91.0 C 291.0 91.0 290.0 90.0 289.0 90.0 C 288.0 90.0 287.0 90.0 286.0 90.0 C 285.0 90.0 284.0 90.0 283.0 90.0 C 282.0 90.0 281.0 89.0 280.0 89.0 C 279.0 89.0 278.0 89.0 277.0 89.0 C 276.0 89.0 275.0 88.0 274.0 88.0 C 273.0 88.0 272.0 88.0 271.0 88.0 C 270.0 88.0 269.0 88.0 268.0 88.0 C 267.0 88.0 266.0 88.0 265.0 88.0 C 264.0 88.0 263.0 88.0 262.0 88.0 C 261.0 88.0 260.0 88.0 259.0 88.0 C 258.0 87.0 257.0 87.0 256.0 87.0 C 255.0 87.0 254.0 87.0 253.0 87.0 C 252.0 87.0 251.0 86.0 250.0 86.0 C 249.0 86.0 249.0 85.0 248.0 84.0 C 247.0 84.0 246.0 84.0 245.0 84.0 C 244.0 83.0 244.0 82.0 243.0 81.0 C 242.0 81.0 241.0 81.0 240.0 81.0 C 239.0 81.0 238.0 81.0 237.0 80.0 C 236.0 79.0 235.0 79.0 234.0 78.0 C 233.0 78.0 232.0 78.0 232.0 77.0 C 232.0 76.0 232.0 75.0 233.0 75.0" stroke-width="0.0" fill="rgb(0, 0, 0)" opacity="1.0" stroke="rgb(196, 139, 141)" stroke-opacity="0.8899587" stroke-linecap="round" stroke-linejoin="round"/>
    <path d="M 59.0 192.0 C 60.0 192.0 61.0 192.0 62.0 192.0 C 63.0 192.0 64.0 193.0 65.0 193.0 C 66.0 193.0 67.0 193.0 68.0 193.0 C 69.0 194.0 70.0 194.0 71.0 194.0 C 72.0 194.0 73.0 195.0 74.0 195.0 C 75.0 195.0 76.0 195.0 77.0 195.0 C 78.0 195.0 79.0 196.0 80.0 196.0 C 81.0 196.0 82.0 196.0 83.0 196.0 C 84.0 197.0 85.0 197.0 86.0 197.0 C 87.0 197.0 88.0 198.0 89.0 198.0 C 90.0 198.0 91.0 198.0 92.0 198.0 C 93.0 199.0 94.0 199.0 95.0 199.0 C 96.0 199.0 97.0 200.0 98.0 200.0 C 99.0 200.0 100.0 200.0 101.0 200.0 C 102.0 201.0 103.0 201.0 104.0 201.0 C 105.0 202.0 106.0 202.0 107.0 202.0 C 108.0 202.0 108.0 203.0 107.0 203.0 C 106.0 204.0 105.0 204.0 104.0 205.0 C 103.0 206.0 103.0 207.0 103.0 208.0 C 102.0 209.0 102.0 210.0 102.0 211.0 C 102.0 212.0 102.0 213.0 102.0 214.0 C 102.0 215.0 103.0 216.0 103.0 217.0 C 103.0 218.0 103.0 219.0 104.0 220.0 C 104.0 221.0 104.0 222.0 105.0 223.0 C 105.0 224.0 105.0 225.0 104.0 225.0 C 103.0 225.0 102.0 225.0 101.0 226.0 C 100.0 227.0 99.0 228.0 99.0 229.0 C 98.0 229.0 97.0 230.0 96.0 230.0 C 95.0 230.0 94.0 230.0 93.0 230.0 C 92.0 230.0 91.0 230.0 90.0 230.0 C 89.0 230.0 88.0 230.0 87.0 230.0 C 86.0 230.0 85.0 230.0 84.0 230.0 C 83.0 230.0 82.0 230.0 81.0 230.0 C 80.0 230.0 79.0 231.0 78.0 231.0 C 77.0 231.0 76.0 231.0 75.0 232.0 C 75.0 233.0 75.0 234.0 75.0 233.0 C 74.0 232.0 73.0 232.0 72.0 232.0 C 71.0 232.0 71.0 231.0 71.0 230.0 C 71.0 229.0 71.0 228.0 71.0 227.0 C 71.0 226.0 71.0 225.0 70.0 224.0 C 69.0 223.0 68.0 222.0 66.0 221.0 C 64.0 219.0 62.0 218.0 60.0 216.0 C 58.0 215.0 56.0 213.0 54.0 211.0 C 54.0 209.0 56.0 209.0 58.0 211.0 C 60.0 212.0 62.0 214.0 64.0 215.0 C 66.0 216.0 68.0 217.0 70.0 218.0 C 72.0 219.0 74.0 220.0 76.0 219.0 C 78.0 219.0 80.0 219.0 82.0 218.0 C 84.0 218.0 86.0 218.0 88.0 217.0 C 90.0 216.0 92.0 216.0 94.0 216.0 C 96.0 215.0 98.0 213.0 99.0 212.0 C 101.0 210.0 102.0 208.0 103.0 206.0 C 102.0 204.0 100.0 203.0 98.0 201.0 C 96.0 201.0 94.0 200.0 92.0 199.0 C 90.0 199.0 88.0 199.0 86.0 198.0 C 84.0 197.0 82.0 197.0 80.0 197.0 C 78.0 196.0 76.0 196.0 74.0 195.0 C 72.0 195.0 70.0 194.0 68.0 194.0 C 66.0 193.0 64.0 193.0 62.0 192.0 C 60.0 192.0 58.0 192.0 59.0 192.0" stroke-width="0.0" fill="rgb(157, 131, 105)" opacity="1.0" stroke="rgb(144, 212, 221)" stroke-opacity="0.8871592" stroke-linecap="round" stroke-linejoin="round"/>
    <path d="M 85.0 196.0 C 86.0 196.0 87.0 196.0 88.0 196.0 C 89.0 197.0 90.0 197.0 91.0 197.0 C 92.0 197.0 93.0 197.0 94.0 198.0 C 95.0 198.0 96.0 198.0 97.0 198.0 C 98.0 198.0 99.0 198.0 100.0 199.0 C 101.0 199.0 102.0 199.0 103.0 199.0 C 104.0 200.0 105.0 200.0 106.0 200.0 C 107.0 200.0 108.0 200.0 109.0 201.0 C 110.0 201.0 111.0 201.0 112.0 201.0 C 113.0 201.0 114.0 202.0 115.0 202.0 C 116.0 202.0 117.0 202.0 118.0 202.0 C 119.0 203.0 120.0 203.0 121.0 203.0 C 122.0 203.0 123.0 203.0 124.0 204.0 C 125.0 204.0 126.0 204.0 127.0 204.0 C 128.0 204.0 129.0 205.0 130.0 205.0 C 131.0 205.0 132.0 205.0 133.0 206.0 C 134.0 206.0 135.0 206.0 136.0 206.0 C 137.0 206.0 138.0 207.0 139.0 207.0 C 140.0 207.0 141.0 207.0 142.0 208.0 C 143.0 208.0 144.0 208.0 145.0 208.0 C 146.0 209.0 147.0 209.0 148.0 209.0 C 149.0 210.0 150.0 210.0 151.0 210.0 C 152.0 210.0 153.0 211.0 154.0 211.0 C 155.0 211.0 156.0 212.0 157.0 212.0 C 158.0 212.0 159.0 212.0 160.0 213.0 C 161.0 213.0 162.0 214.0 162.0 215.0 C 161.0 216.0 161.0 217.0 161.0 218.0 C 160.0 219.0 159.0 219.0 158.0 220.0 C 157.0 221.0 156.0 221.0 155.0 222.0 C 154.0 223.0 153.0 223.0 152.0 224.0 C 151.0 224.0 150.0 225.0 149.0 225.0 C 148.0 225.0 147.0 226.0 146.0 227.0 C 145.0 228.0 145.0 229.0 144.0 228.0 C 143.0 227.0 143.0 226.0 142.0 225.0 C 142.0 224.0 142.0 223.0 142.0 222.0 C 141.0 221.0 141.0 220.0 141.0 219.0 C 140.0 218.0 140.0 217.0 139.0 216.0 C 139.0 215.0 138.0 214.0 138.0 213.0 C 137.0 212.0 136.0 211.0 135.0 210.0 C 134.0 210.0 133.0 210.0 132.0 209.0 C 131.0 209.0 130.0 209.0 129.0 208.0 C 128.0 208.0 127.0 208.0 126.0 208.0 C 125.0 207.0 124.0 207.0 123.0 207.0 C 122.0 207.0 121.0 206.0 120.0 206.0 C 119.0 206.0 118.0 206.0 117.0 205.0 C 116.0 205.0 115.0 204.0 114.0 204.0 C 113.0 204.0 112.0 204.0 111.0 204.0 C 110.0 204.0 109.0 204.0 108.0 204.0 C 107.0 204.0 108.0 204.0 109.0 203.0 C 109.0 202.0 108.0 201.0 107.0 201.0 C 106.0 201.0 105.0 201.0 104.0 200.0 C 103.0 200.0 102.0 200.0 101.0 199.0 C 100.0 199.0 99.0 199.0 98.0 199.0 C 97.0 199.0 96.0 198.0 95.0 198.0 C 94.0 198.0 93.0 198.0 92.0 197.0 C 91.0 197.0 90.0 197.0 89.0 197.0 C 88.0 197.0 87.0 196.0 86.0 196.0 C 85.0 196.0 84.0 196.0 85.0 196.0" stroke-width="0.0" fill="rgb(139, 116, 93)" opacity="1.0" stroke="rgb(114, 159, 250)" stroke-opacity="0.19633505" stroke-linecap="round" stroke-linejoin="round"/>
    <path d="M 377.0 193.0 C 378.0 193.0 379.0 194.0 380.0 194.0 C 381.0 194.0 382.0 193.0 383.0 193.0 C 384.0 193.0 385.0 193.0 386.0 194.0 C 386.0 195.0 386.0 196.0 385.0 197.0 C 384.0 198.0 384.0 199.0 384.0 200.0 C 384.0 201.0 383.0 201.0 382.0 201.0 C 381.0 201.0 380.0 201.0 379.0 201.0 C 378.0 201.0 377.0 201.0 376.0 201.0 C 375.0 201.0 374.0 201.0 373.0 201.0 C 372.0 201.0 371.0 202.0 370.0 202.0 C 369.0 202.0 368.0 202.0 367.0 202.0 C 366.0 202.0 365.0 202.0 364.0 202.0 C 363.0 202.0 362.0 202.0 361.0 202.0 C 360.0 202.0 359.0 202.0 358.0 202.0 C 357.0 202.0 356.0 202.0 355.0 202.0 C 354.0 202.0 353.0 202.0 352.0 202.0 C 351.0 202.0 351.0 201.0 350.0 200.0 C 350.0 199.0 349.0 198.0 348.0 198.0 C 348.0 197.0 348.0 196.0 348.0 195.0 C 348.0 194.0 349.0 194.0 350.0 194.0 C 351.0 194.0 352.0 194.0 353.0 194.0 C 354.0 194.0 355.0 195.0 356.0 195.0 C 357.0 195.0 358.0 194.0 359.0 194.0 C 360.0 194.0 361.0 194.0 362.0 194.0 C 363.0 194.0 364.0 194.0 365.0 194.0 C 366.0 194.0 367.0 194.0 368.0 194.0 C 369.0 194.0 370.0 194.0 371.0 194.0 C 372.0 194.0 373.0 194.0 374.0 194.0 C 375.0 194.0 376.0 193.0 377.0 193.0" stroke-width="0.0" fill="rgb(0, 0, 0)" opacity="1.0" stroke="rgb(151, 249, 204)" stroke-opacity="0.57673836" stroke-linecap="round" stroke-linejoin="round"/>
    <path d="M 120.0 180.0 C 121.0 180.0 122.0 180.0 123.0 180.0 C 124.0 180.0 125.0 180.0 126.0 180.0 C 127.0 181.0 128.0 181.0 129.0 182.0 C 130.0 182.0 131.0 182.0 132.0 182.0 C 133.0 182.0 134.0 182.0 135.0 182.0 C 136.0 182.0 137.0 182.0 138.0 182.0 C 139.0 182.0 140.0 182.0 141.0 182.0 C 142.0 182.0 143.0 182.0 144.0 182.0 C 145.0 182.0 146.0 182.0 147.0 182.0 C 148.0 182.0 149.0 182.0 149.0 183.0 C 149.0 184.0 150.0 185.0 151.0 185.0 C 152.0 184.0 153.0 184.0 154.0 184.0 C 155.0 184.0 155.0 185.0 155.0 186.0 C 154.0 186.0 153.0 186.0 152.0 186.0 C 151.0 187.0 150.0 187.0 149.0 187.0 C 148.0 187.0 147.0 186.0 146.0 186.0 C 145.0 186.0 144.0 186.0 143.0 186.0 C 142.0 186.0 141.0 186.0 140.0 185.0 C 139.0 185.0 138.0 185.0 137.0 185.0 C 136.0 184.0 135.0 184.0 134.0 185.0 C 133.0 185.0 132.0 185.0 131.0 185.0 C 130.0 185.0 129.0 184.0 128.0 184.0 C 127.0 184.0 126.0 184.0 125.0 184.0 C 124.0 184.0 123.0 184.0 122.0 184.0 C 121.0 183.0 120.0 183.0 119.0 182.0 C 119.0 181.0 119.0 180.0 120.0 180.0" stroke-width="0.0" fill="rgb(0, 0, 0)" opacity="1.0" stroke="rgb(61, 186, 246)" stroke-opacity="0.16700648" stroke-linecap="round" stroke-linejoin="round"/>
    <path d="M 330.0 50.0 C 331.0 50.0 332.0 50.0 333.0 50.0 C 334.0 50.0 335.0 50.0 336.0 50.0 C 337.0 51.0 338.0 51.0 339.0 51.0 C 340.0 51.0 341.0 51.0 342.0 51.0 C 343.0 51.0 344.0 51.0 345.0 51.0 C 346.0 51.0 347.0 52.0 348.0 52.0 C 349.0 52.0 350.0 52.0 351.0 52.0 C 352.0 52.0 352.0 53.0 353.0 54.0 C 354.0 54.0 355.0 54.0 356.0 54.0 C 357.0 54.0 358.0 54.0 359.0 55.0 C 360.0 55.0 361.0 55.0 362.0 55.0 C 363.0 55.0 364.0 56.0 365.0 57.0 C 366.0 57.0 367.0 57.0 368.0 57.0 C 369.0 58.0 370.0 58.0 371.0 59.0 C 372.0 59.0 373.0 60.0 374.0 60.0 C 375.0 60.0 376.0 61.0 377.0 62.0 C 378.0 62.0 379.0 63.0 380.0 63.0 C 381.0 64.0 382.0 64.0 383.0 64.0 C 384.0 65.0 385.0 65.0 386.0 66.0 C 387.0 67.0 388.0 67.0 389.0 68.0 C 390.0 68.0 391.0 69.0 392.0 70.0 C 393.0 70.0 395.0 71.0 398.0 72.0 C 401.0 74.0 404.0 76.0 407.0 78.0 C 410.0 79.0 413.0 81.0 416.0 83.0 C 419.0 86.0 422.0 88.0 425.0 91.0 C 428.0 93.0 431.0 95.0 434.0 98.0 C 437.0 101.0 440.0 104.0 442.0 106.0 C 444.0 109.0 446.0 112.0 448.0 115.0 C 449.0 118.0 447.0 119.0 445.0 116.0 C 443.0 113.0 440.0 110.0 437.0 107.0 C 434.0 105.0 431.0 102.0 428.0 100.0 C 425.0 98.0 422.0 97.0 419.0 95.0 C 416.0 94.0 413.0 93.0 410.0 92.0 C 407.0 91.0 404.0 91.0 401.0 90.0 C 398.0 90.0 395.0 90.0 392.0 89.0 C 389.0 87.0 387.0 86.0 384.0 85.0 C 381.0 84.0 378.0 83.0 376.0 80.0 C 373.0 79.0 370.0 78.0 367.0 79.0 C 367.0 82.0 370.0 84.0 373.0 85.0 C 375.0 86.0 374.0 88.0 371.0 88.0 C 368.0 87.0 365.0 86.0 362.0 85.0 C 359.0 86.0 359.0 89.0 357.0 88.0 C 354.0 85.0 355.0 82.0 358.0 80.0 C 361.0 79.0 364.0 78.0 363.0 76.0 C 360.0 75.0 357.0 75.0 354.0 75.0 C 351.0 74.0 348.0 74.0 345.0 74.0 C 343.0 75.0 340.0 74.0 337.0 75.0 C 334.0 75.0 331.0 74.0 328.0 74.0 C 325.0 74.0 322.0 74.0 319.0 74.0 C 316.0 74.0 314.0 75.0 311.0 74.0 C 308.0 73.0 305.0 72.0 302.0 71.0 C 299.0 70.0 296.0 69.0 294.0 68.0 C 291.0 67.0 288.0 67.0 286.0 65.0 C 283.0 65.0 281.0 63.0 279.0 62.0 C 281.0 61.0 284.0 60.0 287.0 59.0 C 290.0 58.0 293.0 57.0 296.0 55.0 C 299.0 54.0 302.0 54.0 305.0 53.0 C 308.0 53.0 311.0 52.0 314.0 52.0 C 317.0 51.0 320.0 51.0 323.0 51.0 C 326.0 51.0 329.0 50.0 330.0 50.0" stroke-width="0.0" fill="rgb(83, 81, 77)" opacity="1.0" stroke="rgb(38, 131, 199)" stroke-opacity="0.27284303" stroke-linecap="round" stroke-linejoin="round"/>
    <path d="M 244.0 128.0 C 245.0 128.0 246.0 127.0 247.0 127.0 C 248.0 127.0 249.0 127.0 250.0 127.0 C 251.0 127.0 252.0 127.0 253.0 127.0 C 254.0 127.0 255.0 127.0 256.0 127.0 C 257.0 127.0 258.0 127.0 259.0 128.0 C 260.0 127.0 261.0 127.0 262.0 127.0 C 263.0 128.0 264.0 128.0 265.0 128.0 C 266.0 128.0 267.0 128.0 268.0 128.0 C 269.0 128.0 270.0 129.0 271.0 129.0 C 272.0 129.0 273.0 129.0 274.0 130.0 C 275.0 130.0 276.0 130.0 277.0 131.0 C 278.0 131.0 279.0 132.0 280.0 132.0 C 281.0 133.0 282.0 134.0 283.0 134.0 C 284.0 135.0 285.0 135.0 286.0 136.0 C 287.0 137.0 288.0 137.0 289.0 138.0 C 290.0 138.0 291.0 139.0 292.0 139.0 C 293.0 140.0 294.0 140.0 295.0 141.0 C 296.0 141.0 297.0 142.0 298.0 142.0 C 299.0 142.0 300.0 143.0 301.0 143.0 C 300.0 143.0 299.0 143.0 298.0 142.0 C 297.0 142.0 296.0 142.0 295.0 142.0 C 294.0 142.0 293.0 141.0 292.0 141.0 C 291.0 141.0 290.0 141.0 289.0 141.0 C 288.0 140.0 287.0 140.0 286.0 140.0 C 285.0 140.0 284.0 140.0 283.0 140.0 C 282.0 139.0 281.0 139.0 280.0 138.0 C 279.0 138.0 278.0 138.0 277.0 138.0 C 276.0 138.0 275.0 138.0 274.0 138.0 C 273.0 138.0 272.0 138.0 271.0 139.0 C 271.0 140.0 270.0 140.0 269.0 140.0 C 268.0 140.0 267.0 139.0 266.0 139.0 C 265.0 139.0 265.0 138.0 264.0 137.0 C 263.0 137.0 262.0 137.0 261.0 137.0 C 260.0 137.0 259.0 137.0 258.0 137.0 C 257.0 137.0 256.0 137.0 255.0 138.0 C 255.0 139.0 254.0 139.0 253.0 139.0 C 252.0 140.0 253.0 141.0 254.0 141.0 C 255.0 141.0 256.0 142.0 257.0 142.0 C 258.0 143.0 259.0 143.0 260.0 143.0 C 261.0 144.0 262.0 144.0 263.0 144.0 C 264.0 145.0 263.0 145.0 262.0 144.0 C 261.0 144.0 260.0 144.0 259.0 143.0 C 258.0 143.0 257.0 143.0 256.0 143.0 C 255.0 143.0 254.0 142.0 253.0 142.0 C 252.0 142.0 251.0 142.0 250.0 142.0 C 249.0 141.0 248.0 141.0 247.0 141.0 C 246.0 141.0 245.0 141.0 244.0 141.0 C 243.0 141.0 242.0 141.0 241.0 142.0 C 241.0 143.0 241.0 142.0 241.0 141.0 C 240.0 140.0 240.0 139.0 240.0 138.0 C 240.0 137.0 239.0 136.0 239.0 135.0 C 239.0 134.0 239.0 133.0 238.0 132.0 C 237.0 131.0 238.0 130.0 239.0 129.0 C 240.0 128.0 241.0 127.0 244.0 128.0" stroke-width="0.0" fill="rgb(148, 133, 109)" opacity="1.0" stroke="rgb(250, 142, 179)" stroke-opacity="0.9734011" stroke-linecap="round" stroke-linejoin="round"/>
    <path d="M 186.0 103.0 C 187.0 103.0 188.0 103.0 189.0 103.0 C 190.0 103.0 191.0 103.0 192.0 104.0 C 193.0 104.0 194.0 104.0 195.0 105.0 C 196.0 106.0 197.0 106.0 198.0 107.0 C 199.0 108.0 200.0 109.0 201.0 110.0 C 202.0 111.0 202.0 112.0 203.0 113.0 C 204.0 114.0 204.0 115.0 205.0 116.0 C 205.0 117.0 206.0 118.0 206.0 119.0 C 207.0 120.0 207.0 121.0 207.0 122.0 C 208.0 123.0 208.0 124.0 208.0 125.0 C 209.0 126.0 209.0 127.0 209.0 128.0 C 210.0 129.0 210.0 130.0 210.0 131.0 C 210.0 132.0 210.0 133.0 211.0 134.0 C 211.0 135.0 211.0 136.0 211.0 137.0 C 211.0 138.0 211.0 139.0 211.0 140.0 C 211.0 141.0 211.0 142.0 211.0 143.0 C 210.0 143.0 209.0 143.0 208.0 142.0 C 207.0 143.0 206.0 143.0 205.0 143.0 C 204.0 144.0 205.0 145.0 205.0 146.0 C 205.0 147.0 204.0 148.0 204.0 149.0 C 204.0 150.0 205.0 151.0 206.0 151.0 C 207.0 151.0 208.0 151.0 209.0 150.0 C 209.0 149.0 209.0 148.0 209.0 147.0 C 210.0 147.0 211.0 147.0 212.0 147.0 C 212.0 148.0 212.0 149.0 212.0 150.0 C 212.0 151.0 212.0 152.0 212.0 153.0 C 211.0 153.0 210.0 153.0 210.0 152.0 C 209.0 151.0 208.0 152.0 208.0 153.0 C 207.0 154.0 206.0 154.0 205.0 154.0 C 205.0 153.0 204.0 152.0 203.0 153.0 C 202.0 153.0 201.0 154.0 202.0 155.0 C 203.0 155.0 203.0 156.0 203.0 157.0 C 202.0 158.0 201.0 159.0 201.0 160.0 C 200.0 161.0 199.0 162.0 198.0 163.0 C 197.0 164.0 197.0 165.0 196.0 165.0 C 195.0 165.0 194.0 166.0 193.0 166.0 C 192.0 167.0 191.0 168.0 190.0 168.0 C 189.0 168.0 188.0 169.0 187.0 170.0 C 186.0 170.0 185.0 171.0 184.0 171.0 C 183.0 172.0 182.0 172.0 181.0 173.0 C 180.0 173.0 179.0 173.0 178.0 174.0 C 177.0 174.0 176.0 175.0 175.0 176.0 C 174.0 177.0 173.0 177.0 172.0 177.0 C 172.0 176.0 171.0 175.0 171.0 174.0 C 170.0 173.0 170.0 172.0 169.0 171.0 C 169.0 170.0 169.0 169.0 168.0 168.0 C 167.0 167.0 167.0 166.0 167.0 165.0 C 167.0 164.0 166.0 163.0 166.0 162.0 C 166.0 161.0 166.0 160.0 166.0 159.0 C 166.0 158.0 166.0 157.0 165.0 156.0 C 165.0 155.0 165.0 154.0 165.0 152.0 C 165.0 150.0 165.0 148.0 165.0 146.0 C 165.0 144.0 165.0 142.0 165.0 140.0 C 166.0 138.0 166.0 136.0 166.0 134.0 C 167.0 132.0 167.0 130.0 167.0 128.0 C 168.0 126.0 169.0 124.0 169.0 122.0 C 170.0 120.0 171.0 118.0 172.0 116.0 C 173.0 114.0 174.0 112.0 175.0 110.0 C 177.0 108.0 179.0 107.0 181.0 105.0 C 183.0 104.0 185.0 103.0 186.0 103.0" stroke-width="0.0" fill="rgb(54, 28, 14)" opacity="1.0" stroke="rgb(179, 249, 246)" stroke-opacity="0.9164548" stroke-linecap="round" stroke-linejoin="round"/>
    <path d="M 138.0 138.0 C 139.0 138.0 140.0 138.0 141.0 139.0 C 142.0 140.0 143.0 141.0 143.0 142.0 C 144.0 143.0 144.0 144.0 144.0 145.0 C 144.0 146.0 144.0 147.0 144.0 148.0 C 144.0 149.0 144.0 150.0 144.0 151.0 C 144.0 152.0 144.0 153.0 143.0 154.0 C 143.0 155.0 143.0 156.0 143.0 157.0 C 143.0 158.0 143.0 159.0 142.0 160.0 C 142.0 161.0 142.0 162.0 141.0 162.0 C 140.0 162.0 139.0 162.0 138.0 161.0 C 137.0 161.0 136.0 161.0 135.0 161.0 C 134.0 161.0 133.0 161.0 132.0 161.0 C 131.0 161.0 130.0 161.0 129.0 161.0 C 128.0 161.0 127.0 161.0 126.0 161.0 C 125.0 161.0 124.0 161.0 123.0 161.0 C 122.0 161.0 121.0 161.0 120.0 161.0 C 119.0 161.0 118.0 161.0 118.0 160.0 C 117.0 159.0 117.0 158.0 116.0 157.0 C 116.0 156.0 116.0 155.0 116.0 154.0 C 116.0 153.0 116.0 152.0 116.0 151.0 C 117.0 150.0 117.0 149.0 117.0 148.0 C 118.0 147.0 118.0 146.0 119.0 145.0 C 119.0 144.0 120.0 144.0 121.0 143.0 C 122.0 142.0 123.0 142.0 124.0 141.0 C 125.0 141.0 126.0 141.0 127.0 140.0 C 128.0 140.0 129.0 140.0 130.0 139.0 C 131.0 139.0 132.0 139.0 133.0 139.0 C 134.0 139.0 135.0 138.0 138.0 138.0" stroke-width="0.0" fill="rgb(45, 31, 23)" opacity="1.0" stroke="rgb(246, 46, 230)" stroke-opacity="0.26026517" stroke-linecap="round" stroke-linejoin="round"/>
    <path d="M 161.0 234.0 C 161.0 235.0 161.0 236.0 161.0 237.0 C 160.0 238.0 160.0 239.0 160.0 240.0 C 160.0 241.0 160.0 242.0 160.0 243.0 C 160.0 244.0 159.0 245.0 158.0 246.0 C 157.0 247.0 156.0 248.0 155.0 248.0 C 154.0 248.0 153.0 249.0 152.0 250.0 C 152.0 251.0 151.0 251.0 150.0 251.0 C 149.0 252.0 148.0 252.0 147.0 253.0 C 146.0 253.0 145.0 253.0 144.0 253.0 C 143.0 253.0 142.0 253.0 141.0 253.0 C 140.0 254.0 140.0 255.0 139.0 255.0 C 138.0 254.0 137.0 254.0 136.0 254.0 C 135.0 253.0 134.0 253.0 133.0 252.0 C 132.0 252.0 131.0 252.0 130.0 251.0 C 129.0 251.0 128.0 250.0 127.0 250.0 C 126.0 249.0 125.0 249.0 124.0 248.0 C 123.0 248.0 122.0 248.0 121.0 247.0 C 120.0 247.0 120.0 246.0 120.0 245.0 C 121.0 245.0 122.0 245.0 123.0 246.0 C 124.0 246.0 125.0 247.0 126.0 246.0 C 127.0 246.0 128.0 245.0 127.0 244.0 C 126.0 244.0 126.0 243.0 126.0 242.0 C 125.0 241.0 126.0 241.0 127.0 242.0 C 128.0 242.0 129.0 243.0 130.0 244.0 C 131.0 244.0 132.0 245.0 133.0 246.0 C 134.0 246.0 135.0 247.0 136.0 248.0 C 137.0 248.0 138.0 248.0 139.0 248.0 C 140.0 248.0 141.0 248.0 142.0 247.0 C 143.0 246.0 144.0 245.0 144.0 244.0 C 144.0 243.0 144.0 242.0 144.0 241.0 C 144.0 240.0 144.0 239.0 144.0 238.0 C 144.0 237.0 144.0 238.0 144.0 239.0 C 144.0 240.0 144.0 241.0 145.0 242.0 C 146.0 243.0 147.0 243.0 148.0 243.0 C 149.0 243.0 150.0 242.0 150.0 241.0 C 150.0 240.0 151.0 239.0 152.0 239.0 C 153.0 238.0 154.0 238.0 155.0 237.0 C 155.0 236.0 156.0 236.0 157.0 236.0 C 158.0 236.0 159.0 235.0 159.0 234.0 C 160.0 233.0 161.0 232.0 161.0 234.0" stroke-width="0.0" fill="rgb(120, 99, 79)" opacity="1.0" stroke="rgb(174, 183, 229)" stroke-opacity="0.56199205" stroke-linecap="round" stroke-linejoin="round"/>
    <path d="M 83.0 198.0 C 84.0 198.0 85.0 199.0 86.0 199.0 C 87.0 199.0 88.0 200.0 89.0 200.0 C 90.0 200.0 91.0 200.0 92.0 200.0 C 93.0 201.0 94.0 201.0 95.0 202.0 C 96.0 202.0 97.0 202.0 98.0 202.0 C 99.0 203.0 100.0 204.0 101.0 204.0 C 101.0 205.0 101.0 206.0 101.0 207.0 C 101.0 208.0 101.0 209.0 100.0 210.0 C 99.0 211.0 98.0 211.0 97.0 212.0 C 97.0 213.0 96.0 214.0 95.0 214.0 C 94.0 215.0 93.0 215.0 92.0 215.0 C 91.0 215.0 90.0 215.0 89.0 216.0 C 88.0 216.0 87.0 216.0 86.0 217.0 C 85.0 217.0 84.0 217.0 83.0 217.0 C 82.0 217.0 81.0 218.0 80.0 218.0 C 79.0 218.0 78.0 218.0 77.0 218.0 C 76.0 218.0 75.0 219.0 74.0 219.0 C 73.0 219.0 72.0 218.0 71.0 217.0 C 70.0 217.0 69.0 217.0 68.0 216.0 C 67.0 216.0 66.0 215.0 65.0 215.0 C 64.0 214.0 63.0 213.0 62.0 213.0 C 62.0 212.0 62.0 211.0 63.0 211.0 C 64.0 211.0 65.0 211.0 66.0 211.0 C 67.0 211.0 68.0 211.0 69.0 211.0 C 70.0 211.0 71.0 212.0 72.0 211.0 C 73.0 211.0 74.0 211.0 75.0 211.0 C 76.0 211.0 77.0 211.0 78.0 211.0 C 79.0 211.0 80.0 210.0 81.0 210.0 C 82.0 210.0 83.0 210.0 84.0 210.0 C 85.0 209.0 86.0 209.0 87.0 208.0 C 88.0 208.0 89.0 208.0 90.0 207.0 C 91.0 206.0 91.0 205.0 91.0 204.0 C 90.0 203.0 89.0 203.0 88.0 202.0 C 87.0 202.0 86.0 201.0 85.0 201.0 C 84.0 200.0 83.0 200.0 82.0 200.0 C 82.0 199.0 82.0 198.0 83.0 198.0" stroke-width="0.0" fill="rgb(168, 141, 113)" opacity="1.0" stroke="rgb(36, 181, 216)" stroke-opacity="0.681472" stroke-linecap="round" stroke-linejoin="round"/>
    <path d="M 405.0 192.0 C 406.0 192.0 407.0 192.0 408.0 192.0 C 409.0 192.0 410.0 192.0 411.0 192.0 C 411.0 193.0 411.0 194.0 411.0 195.0 C 411.0 196.0 411.0 197.0 411.0 198.0 C 410.0 198.0 409.0 198.0 408.0 198.0 C 407.0 198.0 406.0 198.0 405.0 198.0 C 404.0 199.0 403.0 199.0 402.0 199.0 C 401.0 199.0 400.0 199.0 399.0 199.0 C 398.0 200.0 397.0 200.0 396.0 200.0 C 395.0 199.0 394.0 199.0 393.0 199.0 C 393.0 198.0 392.0 197.0 392.0 196.0 C 392.0 195.0 392.0 194.0 392.0 193.0 C 393.0 193.0 394.0 193.0 395.0 193.0 C 396.0 193.0 397.0 193.0 398.0 193.0 C 399.0 193.0 400.0 193.0 401.0 193.0 C 402.0 193.0 403.0 192.0 405.0 192.0" stroke-width="0.0" fill="rgb(0, 0, 0)" opacity="1.0" stroke="rgb(194, 47, 203)" stroke-opacity="0.65427226" stroke-linecap="round" stroke-linejoin="round"/>
    <path d="M 162.0 102.0 C 163.0 102.0 164.0 103.0 165.0 103.0 C 166.0 103.0 166.0 104.0 166.0 105.0 C 166.0 106.0 166.0 107.0 166.0 108.0 C 165.0 109.0 164.0 109.0 163.0 109.0 C 162.0 108.0 161.0 109.0 160.0 109.0 C 159.0 110.0 159.0 111.0 158.0 111.0 C 157.0 111.0 156.0 111.0 155.0 112.0 C 154.0 112.0 153.0 112.0 152.0 111.0 C 151.0 111.0 151.0 110.0 150.0 109.0 C 149.0 109.0 148.0 109.0 147.0 109.0 C 146.0 109.0 145.0 109.0 144.0 110.0 C 144.0 111.0 143.0 111.0 142.0 111.0 C 141.0 111.0 140.0 111.0 139.0 112.0 C 138.0 112.0 137.0 112.0 136.0 112.0 C 135.0 112.0 134.0 111.0 133.0 111.0 C 132.0 112.0 131.0 112.0 130.0 112.0 C 129.0 112.0 128.0 112.0 127.0 112.0 C 126.0 112.0 125.0 112.0 124.0 112.0 C 123.0 112.0 122.0 112.0 121.0 112.0 C 120.0 112.0 119.0 112.0 118.0 112.0 C 117.0 112.0 116.0 112.0 115.0 112.0 C 114.0 112.0 113.0 112.0 112.0 112.0 C 111.0 112.0 110.0 111.0 109.0 112.0 C 109.0 113.0 108.0 114.0 107.0 115.0 C 106.0 116.0 106.0 117.0 106.0 118.0 C 106.0 119.0 106.0 120.0 106.0 121.0 C 107.0 122.0 107.0 123.0 108.0 124.0 C 109.0 125.0 110.0 125.0 111.0 126.0 C 112.0 126.0 113.0 126.0 114.0 126.0 C 115.0 127.0 116.0 127.0 117.0 127.0 C 118.0 127.0 119.0 127.0 119.0 128.0 C 119.0 129.0 118.0 129.0 117.0 130.0 C 116.0 130.0 115.0 130.0 114.0 131.0 C 113.0 131.0 112.0 132.0 111.0 132.0 C 110.0 132.0 109.0 132.0 108.0 133.0 C 107.0 133.0 106.0 133.0 105.0 134.0 C 104.0 134.0 103.0 134.0 102.0 134.0 C 102.0 133.0 102.0 132.0 102.0 131.0 C 101.0 130.0 100.0 130.0 101.0 129.0 C 101.0 128.0 101.0 127.0 100.0 126.0 C 99.0 125.0 99.0 124.0 99.0 123.0 C 98.0 122.0 97.0 122.0 96.0 122.0 C 96.0 121.0 96.0 120.0 96.0 119.0 C 96.0 118.0 97.0 118.0 98.0 118.0 C 99.0 117.0 99.0 116.0 99.0 115.0 C 100.0 114.0 100.0 113.0 100.0 112.0 C 101.0 111.0 101.0 110.0 102.0 110.0 C 103.0 109.0 104.0 108.0 105.0 108.0 C 106.0 108.0 107.0 108.0 108.0 108.0 C 109.0 108.0 110.0 108.0 111.0 108.0 C 112.0 108.0 113.0 108.0 114.0 108.0 C 115.0 108.0 117.0 108.0 119.0 109.0 C 121.0 109.0 123.0 107.0 123.0 105.0 C 125.0 106.0 127.0 106.0 129.0 106.0 C 131.0 106.0 133.0 106.0 135.0 106.0 C 137.0 106.0 139.0 106.0 141.0 106.0 C 143.0 106.0 145.0 106.0 147.0 106.0 C 149.0 107.0 151.0 106.0 153.0 106.0 C 154.0 104.0 156.0 104.0 158.0 105.0 C 160.0 104.0 161.0 102.0 162.0 102.0" stroke-width="0.0" fill="rgb(248, 187, 110)" opacity="1.0" stroke="rgb(238, 122, 150)" stroke-opacity="0.11150897" stroke-linecap="round" stroke-linejoin="round"/>
  </g>
</svg>
