<?xml version="1.0" ?>
<svg xmlns="http://www.w3.org/2000/svg" version="1.1" width="222" height="406">
  <defs/>
  <g>
    <path d="M 229.38821411132812 186.5955810546875 C 228.7499237060547 190.98751831054688 228.1614990234375 196.08583068847656 227.66014099121094 202.10609436035156 C 227.26914978027344 208.6433563232422 226.8377227783203 214.8323974609375 226.24659729003906 220.0603790283203 C 225.4518585205078 225.0254364013672 224.6282196044922 229.28878784179688 223.51100158691406 231.81846618652344 C 222.458251953125 232.41207885742188 222.33615112304688 233.64915466308594 222.52410888671875 234.48837280273438 C 222.79014587402344 236.36630249023438 223.9447784423828 239.36990356445312 224.91824340820312 244.85809326171875 C 225.56141662597656 253.0465850830078 225.9308319091797 262.0820007324219 226.11204528808594 271.09710693359375 C 225.94114685058594 280.2566223144531 225.45718383789062 288.881591796875 224.91192626953125 296.4558410644531 C 224.55520629882812 302.8408203125 224.44496154785156 308.5417175292969 224.60887145996094 313.79144287109375 C 224.9990692138672 318.74224853515625 225.47686767578125 323.7311706542969 225.9496612548828 329.0549621582031 C 226.30287170410156 334.9647521972656 226.51174926757812 341.68170166015625 226.63119506835938 349.25335693359375 C 226.71875 357.51031494140625 226.57496643066406 366.1923828125 226.13185119628906 374.9844970703125 C 225.64308166503906 383.4341735839844 225.30323791503906 391.20379638671875 224.8306121826172 398.0067443847656 C 223.71141052246094 403.4927062988281 221.68785095214844 407.5923767089844 218.51976013183594 410.3179626464844 C 214.15660095214844 411.8209533691406 208.89523315429688 412.1828918457031 203.0638885498047 411.7003173828125 C 196.94436645507812 410.7144775390625 190.7232208251953 409.7266845703125 184.53741455078125 409.07342529296875 C 178.3457489013672 409.1419982910156 172.1244354248047 409.8537292480469 165.9047393798828 410.705322265625 C 159.73548889160156 411.09002685546875 153.7070770263672 410.9651794433594 147.88815307617188 410.5140075683594 C 142.309326171875 409.9870300292969 136.929443359375 409.5534973144531 131.7256622314453 409.31951904296875 C 126.70875549316406 409.2994384765625 121.87725830078125 409.54156494140625 117.2425308227539 410.1541748046875 C 112.8048324584961 411.1911315917969 108.49427795410156 412.26007080078125 104.16523742675781 412.81866455078125 C 99.63468933105469 412.48687744140625 94.59212493896484 411.107177734375 89.01461029052734 408.4183654785156 C 83.2622299194336 403.6177062988281 78.11863708496094 397.22247314453125 74.6860580444336 389.7362060546875 C 73.68020629882812 381.31793212890625 74.01871490478516 371.5659484863281 74.07388305664062 362.1639404296875 C 78.90596008300781 354.4200134277344 81.53082275390625 346.5011291503906 80.30452728271484 338.1830749511719 C 78.3761978149414 332.3883972167969 77.46395874023438 327.0006408691406 76.86222076416016 321.9103088378906 C 77.70889282226562 317.4269104003906 79.66504669189453 313.26318359375 81.61180114746094 309.1142578125 C 82.52459716796875 304.779052734375 82.57371520996094 300.21856689453125 82.35073852539062 295.47552490234375 C 82.3965072631836 290.516357421875 83.06742095947266 285.2044372558594 84.0125961303711 279.5278015136719 C 84.47785186767578 273.54571533203125 84.26634216308594 267.1393737792969 83.47167205810547 260.2330627441406 C 82.25231170654297 252.9840545654297 80.7876205444336 245.69223022460938 79.35697174072266 238.673095703125 C 78.43505859375 232.29135131835938 78.53449249267578 226.92623901367188 80.0748291015625 222.9070587158203 C 83.40232849121094 220.49996948242188 88.26128387451172 219.484619140625 94.37786102294922 219.2466278076172 C 101.48339080810547 219.05760192871094 109.27865600585938 218.486572265625 117.44908905029297 217.56494140625 C 125.65418243408203 216.39967346191406 133.57298278808594 215.42091369628906 140.88650512695312 215.08377075195312 C 147.26943969726562 215.8529815673828 152.39231872558594 217.99948120117188 156.10897827148438 221.7029571533203 C 158.4053497314453 226.9762420654297 159.52191162109375 233.49085998535156 160.0717010498047 240.8454132080078 C 160.77749633789062 248.625 161.73133850097656 256.43719482421875 163.0183563232422 263.9652099609375 C 164.580078125 270.9997863769531 166.0794219970703 277.30108642578125 167.21224975585938 283.2499084472656 C 167.83880615234375 289.77032470703125 167.28977966308594 296.07470703125 166.00946044921875 300.6975402832031 C 165.1029052734375 303.7201843261719 162.81658935546875 308.034423828125 162.72718811035156 315.1413269042969 C 161.0638427734375 323.6983947753906 160.6005096435547 331.7098693847656 160.39947509765625 337.7293395996094 C 157.56886291503906 343.445068359375 151.78579711914062 346.85003662109375 144.83299255371094 350.25030517578125 C 140.655517578125 355.0960998535156 141.44444274902344 360.1370544433594 145.01876831054688 365.3857727050781 C 148.3192138671875 370.0443115234375 151.54380798339844 374.0906982421875 155.16079711914062 378.1552734375 C 159.50538635253906 381.3908386230469 163.97134399414062 383.98370361328125 167.85614013671875 386.3846435546875 C 170.5072021484375 388.2464294433594 171.2286834716797 388.6871337890625 169.64193725585938 386.6888427734375 C 166.50572204589844 382.2063293457031 163.11412048339844 376.1781921386719 161.7567596435547 369.66064453125 C 166.97305297851562 366.45184326171875 171.25802612304688 364.101806640625 173.39218139648438 362.9786376953125 C 172.24044799804688 361.6595458984375 169.06057739257812 358.7768249511719 167.09457397460938 353.5963134765625 C 171.33929443359375 349.8564453125 173.82896423339844 339.22491455078125 175.11769104003906 326.61199951171875 C 175.4504852294922 314.82373046875 176.6220245361328 304.71319580078125 174.40541076660156 298.0244445800781 C 171.9254608154297 294.0839538574219 170.9342041015625 292.0113525390625 170.878173828125 291.0076599121094 C 170.16409301757812 290.2679138183594 168.95257568359375 289.1578063964844 169.06716918945312 287.1057434082031 C 171.18875122070312 283.73065185546875 173.29861450195312 278.81134033203125 174.524658203125 272.2604064941406 C 173.27325439453125 264.3501281738281 170.85215759277344 255.80926513671875 168.15670776367188 246.79067993164062 C 165.74671936035156 237.70120239257812 164.0872344970703 228.9407196044922 163.65719604492188 221.0153350830078 C 164.86819458007812 214.46115112304688 167.63172912597656 209.5525360107422 171.6024169921875 206.14442443847656 C 176.40020751953125 203.71282958984375 181.75282287597656 201.66380310058594 187.4636688232422 199.46177673339844 C 193.3847198486328 196.8172607421875 199.4043731689453 194.02407836914062 205.43692016601562 191.31719970703125 C 211.400634765625 188.82814025878906 217.29786682128906 186.47386169433594 229.38821411132812 186.5955810546875" stroke-width="0.0" fill="rgb(229, 229, 229)" opacity="0.9998148" stroke="rgb(248, 93, 202)" stroke-opacity="0.56303364" stroke-linecap="round" stroke-linejoin="round"/>
    <path d="M 63.21128463745117 88.08756256103516 C 63.88818359375 89.26209259033203 64.51558685302734 90.03437805175781 64.98936462402344 90.27796936035156 C 66.05636596679688 90.47825622558594 68.1188735961914 92.1999282836914 71.35916137695312 92.59471130371094 C 74.39662170410156 94.2059555053711 75.86023712158203 94.97565460205078 76.95549774169922 94.30757904052734 C 76.7900390625 95.00252532958984 76.11674499511719 95.3970947265625 76.10928344726562 95.20923614501953 C 78.71826171875 95.43685150146484 82.2446517944336 96.25054931640625 84.83340454101562 97.51161193847656 C 87.3520278930664 98.01891326904297 88.89248657226562 98.29928588867188 89.86836242675781 98.81055450439453 C 90.47879791259766 99.67195129394531 91.80475616455078 99.37181854248047 94.81744384765625 99.97003173828125 C 98.97480773925781 100.96502685546875 102.71217346191406 101.54752349853516 105.2608871459961 101.55220031738281 C 105.5473861694336 102.26455688476562 104.70993041992188 102.72008514404297 103.63801574707031 102.49913024902344 C 104.40703582763672 102.41462707519531 107.84791564941406 101.86410522460938 112.59577178955078 102.44070434570312 C 118.43063354492188 103.41449737548828 124.59440612792969 103.16889190673828 129.6759796142578 103.23368072509766 C 131.5413055419922 103.13127899169922 129.73800659179688 103.91085815429688 127.52308654785156 104.92996978759766 C 127.39227294921875 105.05250549316406 128.89874267578125 104.77845001220703 131.18588256835938 103.45675659179688 C 134.81895446777344 103.30928802490234 138.64036560058594 103.42013549804688 142.87783813476562 103.14151763916016 C 146.50888061523438 101.96379852294922 149.85610961914062 102.14209747314453 152.4321746826172 102.14965057373047 C 153.0365753173828 101.39591217041016 153.87835693359375 101.40983581542969 155.7599639892578 101.28131866455078 C 158.51487731933594 100.83976745605469 161.89356994628906 100.4632797241211 164.85276794433594 99.6838607788086 C 167.83192443847656 99.15402221679688 171.1920623779297 99.48906707763672 174.4770050048828 97.23419952392578 C 177.49002075195312 81.35518646240234 179.31040954589844 59.25006866455078 180.73104858398438 44.110904693603516 C 182.51239013671875 56.575340270996094 179.08853149414062 80.40922546386719 175.24105834960938 102.65190887451172 C 173.08016967773438 116.92758178710938 174.6658477783203 124.9173583984375 176.878173828125 128.42930603027344 C 178.3843536376953 129.48361206054688 179.10060119628906 129.78564453125 179.14483642578125 130.18678283691406 C 178.76821899414062 131.2294158935547 178.1444091796875 133.05697631835938 177.4328155517578 135.3190460205078 C 176.72415161132812 137.73342895507812 176.07009887695312 140.29812622070312 175.49429321289062 142.9063720703125 C 174.86279296875 145.2491912841797 173.9817657470703 147.54385375976562 172.79611206054688 150.0082550048828 C 171.33200073242188 152.70318603515625 169.6912078857422 155.73121643066406 168.5912628173828 159.43240356445312 C 168.37730407714844 164.1092987060547 167.6806182861328 168.59422302246094 167.3355712890625 171.5635223388672 C 167.1575164794922 172.140625 167.030029296875 170.87652587890625 166.8472900390625 169.68980407714844 C 166.62567138671875 169.4298553466797 167.14047241210938 170.7117462158203 166.92428588867188 173.10963439941406 C 166.81924438476562 176.1180419921875 165.830810546875 178.986083984375 165.2330322265625 182.3353271484375 C 164.7356414794922 185.8986358642578 163.88665771484375 189.1147003173828 163.1739501953125 192.39170837402344 C 162.53440856933594 194.9563446044922 162.32130432128906 196.79933166503906 162.09388732910156 198.6947479248047 C 161.72000122070312 200.691650390625 161.1744384765625 202.19802856445312 160.56295776367188 203.49510192871094 C 159.76824951171875 204.89083862304688 158.70706176757812 206.30538940429688 157.3516082763672 207.3458251953125 C 155.66648864746094 208.04808044433594 153.5667266845703 208.51052856445312 151.00079345703125 208.6785125732422 C 147.94447326660156 208.60353088378906 144.46556091308594 208.42640686035156 140.62506103515625 208.27757263183594 C 136.4911346435547 208.16810607910156 132.1803741455078 208.10597229003906 127.85092163085938 208.1160430908203 C 123.66924285888672 208.23495483398438 119.68506622314453 208.40538024902344 115.81208038330078 208.58224487304688 C 111.96903991699219 208.72052001953125 108.14573669433594 208.78102111816406 104.36662292480469 208.74659729003906 C 100.61099243164062 208.63925170898438 96.88819885253906 208.46890258789062 93.21210479736328 208.25889587402344 C 89.54601287841797 208.01861572265625 85.8620376586914 207.759033203125 82.22201538085938 207.45973205566406 C 78.64982604980469 207.1288604736328 75.16522979736328 206.78421020507812 71.8019027709961 206.382568359375 C 68.59903717041016 205.89306640625 65.59334564208984 205.3129119873047 62.821048736572266 204.64479064941406 C 60.33389663696289 203.89273071289062 58.137489318847656 203.03195190429688 56.24916458129883 202.00912475585938 C 54.71536636352539 200.77249145507812 53.494422912597656 199.17784118652344 52.53704833984375 197.0802001953125 C 51.7191047668457 194.45542907714844 50.7236328125 191.38966369628906 49.40760803222656 188.00877380371094 C 48.127384185791016 184.17027282714844 46.88755416870117 180.09817504882812 45.77039337158203 176.08651733398438 C 45.071102142333984 172.24749755859375 44.82774353027344 168.57855224609375 44.948238372802734 165.07252502441406 C 45.2225341796875 161.76434326171875 45.603824615478516 158.68246459960938 46.046756744384766 155.84364318847656 C 46.5230712890625 153.27151489257812 47.2491569519043 150.98793029785156 48.47997283935547 149.0215606689453 C 50.34107971191406 147.39889526367188 52.725215911865234 145.99732971191406 55.51891326904297 144.66123962402344 C 58.597190856933594 143.20416259765625 61.7974739074707 141.53285217285156 64.94043731689453 139.6016082763672 C 67.84027099609375 137.4160919189453 70.32923889160156 135.15496826171875 72.31380462646484 132.98580932617188 C 73.75889587402344 131.01548767089844 74.69998931884766 129.238525390625 75.23503112792969 127.57131958007812 C 75.48222351074219 125.89867401123047 75.47933959960938 124.13994598388672 75.2343521118164 122.21281433105469 C 74.74896240234375 120.08271026611328 73.97229766845703 117.81602478027344 72.8912582397461 115.49855041503906 C 71.48387908935547 113.1933822631836 69.75509643554688 110.95720672607422 67.75325012207031 108.83547973632812 C 65.57923889160156 106.86414337158203 63.3635368347168 104.96186065673828 61.22271728515625 103.02877807617188 C 59.31961441040039 100.8781967163086 57.68935775756836 98.35429382324219 56.31050491333008 95.30519104003906 C 55.14084243774414 91.83142852783203 54.05207061767578 88.2223129272461 63.21128463745117 88.08756256103516" stroke-width="0.0" fill="rgb(0, 169, 211)" opacity="1.0" stroke="rgb(241, 77, 62)" stroke-opacity="0.78689665" stroke-linecap="round" stroke-linejoin="round"/>
    <path d="M 54.44139099121094 188.6057891845703 C 55.72632598876953 193.35621643066406 56.721275329589844 197.45616149902344 59.151710510253906 198.97036743164062 C 62.173927307128906 198.94642639160156 64.25574493408203 198.52792358398438 65.62833404541016 197.89366149902344 C 66.43692779541016 196.86282348632812 66.5682373046875 195.94558715820312 66.25379180908203 195.66159057617188 C 66.20378112792969 195.8271484375 66.16161346435547 196.23350524902344 65.9145736694336 196.58790588378906 C 65.96623229980469 197.09901428222656 65.92375183105469 197.71261596679688 66.1415786743164 198.40371704101562 C 66.59742736816406 199.1112060546875 67.26298522949219 199.63189697265625 68.13500213623047 199.9266357421875 C 69.1940689086914 200.06472778320312 70.1633529663086 200.03517150878906 71.13398742675781 199.9047088623047 C 72.15010070800781 199.8147430419922 73.26963806152344 199.8277587890625 74.47698974609375 199.93797302246094 C 75.66615295410156 200.1537628173828 77.04389190673828 200.46212768554688 78.65997314453125 200.83522033691406 C 80.50325775146484 201.21803283691406 82.43767547607422 201.5673370361328 84.37904357910156 201.84059143066406 C 86.28055572509766 202.00982666015625 88.24120330810547 202.1144561767578 90.27928161621094 202.21478271484375 C 92.47618103027344 202.41061401367188 94.89702606201172 202.7893829345703 97.6200942993164 203.3695831298828 C 100.64776611328125 204.09896850585938 103.92213439941406 204.7931365966797 107.35711669921875 205.23851013183594 C 110.87535095214844 205.26454162597656 114.40811920166016 204.99708557128906 117.88935089111328 204.55836486816406 C 121.24893951416016 204.04290771484375 124.41725158691406 203.5940399169922 127.34320068359375 203.26344299316406 C 129.99661254882812 203.04600524902344 132.40866088867188 202.83636474609375 134.63446044921875 202.58645629882812 C 136.62425231933594 202.27151489257812 138.53892517089844 201.94293212890625 140.74058532714844 201.6844024658203 C 143.35977172851562 201.58152770996094 146.44390869140625 201.71995544433594 149.7434539794922 202.01185607910156 C 153.04953002929688 202.1748046875 156.14471435546875 201.88780212402344 158.71168518066406 200.55027770996094 C 160.4046173095703 197.29014587402344 161.4159393310547 193.06019592285156 162.60549926757812 189.83380126953125 C 164.25628662109375 190.7843017578125 165.29013061523438 194.64508056640625 166.2637481689453 200.0016632080078 C 166.72146606445312 205.6748504638672 166.7353973388672 210.7906951904297 166.56671142578125 215.17041015625 C 166.74449157714844 218.74935913085938 167.1986846923828 221.83941650390625 167.90960693359375 224.48851013183594 C 168.8035888671875 226.59698486328125 169.763916015625 228.2113800048828 170.61395263671875 229.6023406982422 C 171.16226196289062 231.1969451904297 171.64736938476562 233.13888549804688 172.25552368164062 235.7598876953125 C 172.8821258544922 238.76077270507812 173.43597412109375 241.7952880859375 173.84925842285156 244.72439575195312 C 174.3263702392578 247.61363220214844 174.51588439941406 251.77133178710938 174.46397399902344 258.6995544433594 C 175.09954833984375 268.06982421875 175.21282958984375 275.14813232421875 173.63742065429688 277.6741027832031 C 170.61856079101562 274.6451110839844 167.11585998535156 268.1095886230469 163.99879455566406 261.5101318359375 C 161.02902221679688 257.44390869140625 158.1564483642578 255.89450073242188 156.4644012451172 254.70364379882812 C 155.7631072998047 252.60047912597656 155.67189025878906 249.8980712890625 155.6846923828125 247.10145568847656 C 154.81646728515625 244.02093505859375 154.02769470214844 240.79345703125 154.00894165039062 237.41488647460938 C 153.05677795410156 234.0558624267578 151.76344299316406 230.54617309570312 150.59222412109375 227.01681518554688 C 149.07937622070312 223.8466796875 147.37173461914062 221.93777465820312 145.7178955078125 221.1837921142578 C 144.20681762695312 220.93927001953125 142.67074584960938 220.99986267089844 140.87867736816406 221.33692932128906 C 138.73916625976562 221.97482299804688 136.23141479492188 222.27694702148438 133.5078125 222.1409149169922 C 130.6576690673828 221.8510284423828 127.5970230102539 221.7174072265625 124.30513763427734 221.94485473632812 C 120.71195983886719 222.57077026367188 116.98194885253906 223.03033447265625 113.28170013427734 223.07350158691406 C 109.75421905517578 222.8395233154297 106.60120391845703 222.5352020263672 103.9662094116211 222.2266845703125 C 101.90631866455078 222.12435913085938 100.14295196533203 222.0950164794922 98.29206085205078 222.1192626953125 C 96.03514099121094 222.33578491210938 93.3548812866211 222.59848022460938 90.29090118408203 222.69871520996094 C 87.03491973876953 222.41522216796875 83.78406524658203 222.3589324951172 81.38557434082031 223.0877685546875 C 81.68035888671875 224.9566650390625 83.32099914550781 227.13912963867188 84.02750396728516 230.59469604492188 C 84.61457061767578 234.42417907714844 85.60374450683594 237.55320739746094 85.23068237304688 240.87953186035156 C 84.77546691894531 244.83544921875 85.27385711669922 248.93385314941406 86.17488098144531 252.9227294921875 C 86.52429962158203 256.5400085449219 86.47295379638672 259.7869567871094 86.15205383300781 262.9185791015625 C 85.640869140625 266.2276306152344 85.43060302734375 270.0935974121094 85.68363189697266 274.7153015136719 C 84.7788314819336 280.0271911621094 80.24143981933594 285.3261413574219 72.69746398925781 288.9782409667969 C 68.16243743896484 286.1125793457031 66.63304901123047 279.33941650390625 67.36507415771484 272.7626953125 C 66.06827545166016 269.15142822265625 64.85326385498047 267.2585144042969 64.33953094482422 265.4049377441406 C 64.30701446533203 262.3947448730469 64.35836791992188 258.97796630859375 64.44316864013672 255.14425659179688 C 64.88288116455078 251.44271850585938 64.34220886230469 248.07383728027344 64.33523559570312 244.9208984375 C 64.71823120117188 241.8140869140625 63.78351593017578 238.89871215820312 63.449745178222656 236.248046875 C 63.079715728759766 234.0576629638672 62.83770751953125 231.9686737060547 62.398441314697266 230.6352081298828 C 61.90205001831055 229.69403076171875 61.79646301269531 228.3583221435547 61.360130310058594 227.7967071533203 C 61.06235122680664 226.0199737548828 60.002933502197266 224.08944702148438 58.182655334472656 222.06866455078125 C 55.57111740112305 220.3271026611328 53.41078186035156 217.44834899902344 51.43347930908203 213.6208953857422 C 49.85713195800781 209.5874481201172 49.844871520996094 205.79525756835938 51.426856994628906 202.06405639648438 C 53.5154914855957 199.1386260986328 54.450111389160156 197.38961791992188 52.80403518676758 195.3087615966797 C 49.35699462890625 193.2982940673828 44.85040283203125 190.5879364013672 54.44139099121094 188.6057891845703" stroke-width="0.0" fill="rgb(0, 84, 210)" opacity="0.99994826" stroke="rgb(113, 211, 12)" stroke-opacity="0.76633584" stroke-linecap="round" stroke-linejoin="round"/>
    <path d="M 135.5104522705078 34.52265548706055 C 127.15162658691406 32.676368713378906 122.40594482421875 33.80564498901367 122.05854034423828 34.750213623046875 C 124.94786834716797 35.506290435791016 130.94113159179688 33.281150817871094 137.85400390625 32.28401184082031 C 140.1510009765625 34.362037658691406 141.49484252929688 35.79901885986328 141.9149932861328 34.79765319824219 C 140.12261962890625 33.71535873413086 136.961181640625 33.375938415527344 133.5135498046875 33.2833251953125 C 131.5958251953125 31.09111976623535 133.59994506835938 32.324031829833984 138.3304901123047 33.7731819152832 C 143.66085815429688 36.39201736450195 148.08909606933594 35.409637451171875 148.55575561523438 34.78913116455078 C 145.37503051757812 34.56686019897461 138.95738220214844 34.48271942138672 134.5810089111328 34.59563064575195 C 136.56655883789062 33.730369567871094 141.88438415527344 32.72212600708008 146.59654235839844 33.657474517822266 C 151.61439514160156 38.43159484863281 157.29873657226562 41.28269958496094 158.0975341796875 38.74135208129883 C 155.47401428222656 36.087913513183594 149.79774475097656 34.9731330871582 145.77369689941406 34.80095672607422 C 146.383056640625 34.8118896484375 147.6523895263672 35.55494689941406 149.49838256835938 36.1989631652832 C 150.8745880126953 36.133544921875 151.95582580566406 38.260498046875 153.82264709472656 36.992919921875 C 158.41062927246094 38.113834381103516 163.75437927246094 40.788578033447266 164.3531951904297 45.03142166137695 C 161.3418731689453 42.92079544067383 156.81971740722656 37.31182098388672 151.00843811035156 36.308719635009766 C 153.7519073486328 39.36635971069336 159.7950897216797 41.41179656982422 164.90414428710938 43.16658020019531 C 168.01797485351562 47.74232482910156 168.96144104003906 51.78239059448242 170.01754760742188 52.426177978515625 C 168.7521209716797 50.201419830322266 168.11459350585938 45.835845947265625 166.3850860595703 43.67127227783203 C 164.86834716796875 45.5640983581543 165.17703247070312 48.075889587402344 168.79359436035156 48.00226593017578 C 170.55816650390625 49.990421295166016 171.61305236816406 53.1998405456543 171.6405487060547 56.2993278503418 C 170.70314025878906 55.312522888183594 170.7183380126953 52.75453567504883 171.59434509277344 51.3401985168457 C 173.2360382080078 53.33640670776367 172.56338500976562 57.438472747802734 172.25694274902344 61.57681655883789 C 173.63279724121094 61.92946243286133 172.8936004638672 58.69011306762695 173.66387939453125 56.28923416137695 C 173.61724853515625 62.5410270690918 174.02879333496094 68.53895568847656 172.27626037597656 69.1706771850586 C 173.62672424316406 65.51119232177734 173.9351806640625 60.86845779418945 172.20046997070312 61.71195602416992 C 173.25656127929688 68.32669067382812 171.15432739257812 74.55210876464844 167.11985778808594 77.1124038696289 C 168.2407989501953 74.28335571289062 171.58421325683594 70.71989440917969 171.80506896972656 67.0858383178711 C 170.46676635742188 69.12808990478516 168.79103088378906 73.56056213378906 167.9353485107422 77.17339324951172 C 167.49761962890625 78.75804138183594 165.5537109375 78.4990234375 164.10311889648438 78.43187713623047 C 162.22235107421875 79.74691009521484 163.0911865234375 79.58283233642578 165.6174774169922 78.75040435791016 C 166.14755249023438 79.91343688964844 164.85794067382812 80.33135986328125 163.01002502441406 80.64852142333984 C 163.60580444335938 80.76587677001953 162.37155151367188 80.94448852539062 160.7137908935547 83.78630828857422 C 157.8390655517578 86.53490447998047 151.54248046875 87.91891479492188 147.3864288330078 87.04179382324219 C 151.4136962890625 86.44348907470703 157.01608276367188 86.48297882080078 157.96124267578125 84.05245971679688 C 160.5740203857422 83.5188217163086 161.43270874023438 84.11996459960938 158.5944061279297 83.7290267944336 C 156.92918395996094 86.62418365478516 152.99398803710938 89.17774963378906 146.95904541015625 88.30612182617188 C 141.94639587402344 88.27822875976562 142.85760498046875 88.25442504882812 146.96551513671875 89.32746887207031 C 149.2188262939453 89.76985168457031 148.46713256835938 89.1927490234375 144.7531280517578 90.20001983642578 C 138.55908203125 89.19477081298828 135.3423614501953 89.49777221679688 138.2024688720703 88.5676040649414 C 143.9546661376953 89.92654418945312 146.59239196777344 90.64307403564453 141.16432189941406 90.43829345703125 C 130.76223754882812 90.92130279541016 120.86515045166016 89.52446746826172 115.97438049316406 87.08011627197266 C 120.58940124511719 88.01786041259766 127.11688232421875 89.79280853271484 131.77313232421875 90.85445404052734 C 129.61041259765625 91.20283508300781 125.97382354736328 90.82394409179688 122.72440338134766 90.0691146850586 C 118.87104034423828 89.7513198852539 115.95925903320312 87.55313110351562 112.04393005371094 86.79019165039062 C 109.45258331298828 84.88587951660156 107.32137298583984 80.63170623779297 103.68315124511719 81.20654296875 C 107.59989166259766 84.58872985839844 114.0805435180664 86.54692077636719 115.56303405761719 86.88807678222656 C 109.89122009277344 84.57752990722656 103.9630355834961 81.58966827392578 99.27891540527344 77.71184539794922 C 96.91736602783203 74.08908081054688 95.66681671142578 70.90856170654297 94.23485565185547 67.87095642089844 C 94.03435516357422 64.6465072631836 93.20840454101562 63.14176940917969 94.08657836914062 61.91252899169922 C 95.3166275024414 60.0230712890625 96.27930450439453 57.20203399658203 95.14404296875 55.160091400146484 C 93.04008483886719 58.94639205932617 92.20989990234375 65.18936920166016 94.58820343017578 65.75432586669922 C 93.94136810302734 60.01258087158203 95.25920867919922 53.635066986083984 97.29345703125 49.29170227050781 C 97.64639282226562 52.04765701293945 99.16737365722656 52.40635299682617 98.56040954589844 48.76804733276367 C 99.08863067626953 46.3928108215332 101.32887268066406 44.395751953125 104.6880111694336 42.234291076660156 C 107.36415100097656 39.25798034667969 110.78746795654297 38.18628692626953 112.96265411376953 38.24330520629883 C 110.2492904663086 40.377418518066406 107.78955078125 39.48958206176758 109.29115295410156 38.569122314453125 C 116.4549789428711 35.465187072753906 122.5316162109375 33.147254943847656 124.19769287109375 32.536922454833984 C 121.50282287597656 35.48483657836914 117.82740783691406 37.21364974975586 114.60930633544922 36.07126998901367 C 116.77351379394531 36.16766357421875 124.11661529541016 35.16285705566406 130.67822265625 34.54426956176758 C 134.99249267578125 34.2083625793457 135.36141967773438 35.3454475402832 132.51905822753906 34.08405303955078 C 127.608642578125 32.547019958496094 122.81639862060547 35.334449768066406 135.5104522705078 34.52265548706055" stroke-width="0.0" fill="rgb(252, 218, 197)" opacity="1.0" stroke="rgb(248, 6, 127)" stroke-opacity="0.238172" stroke-linecap="round" stroke-linejoin="round"/>
    <path d="M 190.06289672851562 131.46969604492188 C 191.52392578125 132.69700622558594 193.67083740234375 133.9395751953125 195.46759033203125 136.66098022460938 C 199.8152618408203 140.77627563476562 204.4666290283203 145.79258728027344 208.23046875 148.2947235107422 C 206.03543090820312 146.93556213378906 200.538818359375 142.42796325683594 195.81509399414062 136.94143676757812 C 194.12588500976562 133.86111450195312 197.76031494140625 132.35133361816406 206.9696807861328 131.5551300048828 C 217.7825469970703 132.9247283935547 226.93505859375 136.6662139892578 230.15707397460938 140.849609375 C 225.45755004882812 147.19808959960938 217.16748046875 154.64076232910156 210.77310180664062 156.08038330078125 C 207.89425659179688 148.06723022460938 206.40054321289062 146.3260498046875 207.28350830078125 149.63438415527344 C 208.85667419433594 152.97732543945312 210.91383361816406 154.57765197753906 211.1483612060547 154.76272583007812 C 209.89808654785156 154.0500946044922 210.8800506591797 153.6514892578125 211.25299072265625 154.81680297851562 C 211.3852996826172 157.52938842773438 214.28506469726562 161.58023071289062 218.4122772216797 166.6218719482422 C 217.46099853515625 167.39096069335938 216.26443481445312 162.05972290039062 214.20790100097656 158.1560516357422 C 216.67556762695312 158.31402587890625 221.55123901367188 158.6282196044922 225.27357482910156 160.6996307373047 C 225.2404327392578 164.3311004638672 223.1089630126953 168.9180450439453 220.36314392089844 172.93418884277344 C 221.82176208496094 176.92857360839844 221.87542724609375 181.2833709716797 221.7505340576172 185.25001525878906 C 221.9613800048828 186.24221801757812 223.47340393066406 184.49533081054688 224.93093872070312 181.2706756591797 C 225.8796844482422 178.05789184570312 226.45518493652344 175.88534545898438 226.642578125 175.19667053222656 C 226.31155395507812 176.146240234375 225.758056640625 178.2213134765625 225.11940002441406 180.8115692138672 C 224.01968383789062 183.3670654296875 222.59889221191406 185.80804443359375 221.14939880371094 188.09413146972656 C 219.7439422607422 190.22808837890625 218.6389923095703 192.20089721679688 217.58160400390625 193.692626953125 C 216.59616088867188 194.36004638671875 215.92333984375 194.18701171875 215.60751342773438 193.5111846923828 C 215.65016174316406 192.5364227294922 215.8973388671875 191.59518432617188 216.2141876220703 191.01373291015625 C 216.48658752441406 190.8241729736328 216.6389617919922 191.0198974609375 216.57167053222656 191.4619903564453 C 216.2133026123047 191.8895263671875 215.89739990234375 192.43348693847656 215.61331176757812 193.15182495117188 C 215.32102966308594 193.9509735107422 214.9757080078125 194.7266082763672 214.61683654785156 195.49005126953125 C 214.14947509765625 196.2373809814453 213.53012084960938 196.91294860839844 212.78610229492188 197.51600646972656 C 211.87811279296875 198.14093017578125 210.96115112304688 198.7635040283203 209.96307373046875 199.41090393066406 C 208.94569396972656 200.03872680664062 207.82041931152344 200.48916625976562 206.67193603515625 200.89491271972656 C 205.52944946289062 201.43711853027344 204.21218872070312 202.01991271972656 202.76634216308594 202.62533569335938 C 201.20811462402344 203.16400146484375 199.5712432861328 203.70118713378906 197.98031616210938 204.2668914794922 C 196.4586639404297 204.55091857910156 195.10594177246094 204.78753662109375 194.13401794433594 205.12693786621094 C 193.7114715576172 205.59617614746094 193.5353240966797 206.0915985107422 193.48658752441406 206.2686309814453 C 193.3534698486328 205.93470764160156 192.6803436279297 205.56356811523438 191.40464782714844 205.2147674560547 C 189.569580078125 204.91859436035156 187.2975311279297 204.87860107421875 184.71937561035156 205.17210388183594 C 182.0213623046875 205.7298583984375 179.45252990722656 206.44082641601562 177.13388061523438 207.138671875 C 175.14044189453125 207.68222045898438 173.54165649414062 208.22900390625 172.29165649414062 208.9347686767578 C 171.2715301513672 209.91552734375 170.4513397216797 211.135498046875 169.64161682128906 212.3217315673828 C 168.18478393554688 213.3918914794922 166.9241943359375 214.0407257080078 165.4676055908203 213.84869384765625 C 164.71531677246094 212.7503204345703 164.27452087402344 211.08338928222656 164.4132843017578 209.11109924316406 C 163.9417266845703 207.367431640625 163.4397735595703 205.87989807128906 162.92269897460938 204.41030883789062 C 161.8765411376953 202.9017333984375 161.6028289794922 201.55697631835938 161.83726501464844 199.13555908203125 C 162.2600860595703 196.03797912597656 162.88697814941406 193.27398681640625 163.9683074951172 191.57919311523438 C 163.9752197265625 190.1183624267578 164.3207550048828 190.27639770507812 164.375 190.6824493408203 C 164.43515014648438 190.5569305419922 165.80459594726562 190.32969665527344 169.16781616210938 190.66709899902344 C 173.6687469482422 189.7838134765625 178.19927978515625 191.6357421875 181.68502807617188 191.4181671142578 C 183.84934997558594 193.00294494628906 188.14564514160156 192.48422241210938 190.32411193847656 191.98643493652344 C 186.36924743652344 191.5969696044922 184.62457275390625 190.8115997314453 188.113037109375 190.98062133789062 C 194.2416229248047 192.47955322265625 198.85804748535156 191.2892608642578 202.0145263671875 188.40711975097656 C 204.61953735351562 188.0873260498047 203.37631225585938 184.1879425048828 205.52195739746094 182.50531005859375 C 204.5243682861328 187.25680541992188 199.34727478027344 190.79074096679688 194.57843017578125 190.64100646972656 C 194.83201599121094 191.3405303955078 197.48500061035156 188.0614471435547 198.6333770751953 182.19717407226562 C 199.69149780273438 177.74302673339844 200.48159790039062 176.03598022460938 201.97560119628906 175.53375244140625 C 203.52511596679688 175.12086486816406 203.9481964111328 175.4573974609375 203.82020568847656 175.62916564941406 C 203.25633239746094 173.33689880371094 201.91513061523438 170.4929656982422 202.43060302734375 168.3955841064453 C 199.97361755371094 166.7508087158203 197.64723205566406 164.2341766357422 196.9279022216797 162.46754455566406 C 195.1664581298828 161.03472900390625 190.89935302734375 161.00462341308594 184.5481719970703 160.968505859375 C 180.05047607421875 161.77565002441406 180.16555786132812 160.70750427246094 181.92274475097656 155.97286987304688 C 182.16134643554688 149.4296875 181.51072692871094 144.32916259765625 180.24044799804688 141.18438720703125 C 179.9553680419922 139.27804565429688 180.6010284423828 137.9724578857422 181.40093994140625 136.7860870361328 C 181.99513244628906 135.34951782226562 182.43359375 133.4552764892578 182.92556762695312 131.02235412597656 C 183.66917419433594 128.1428985595703 184.53411865234375 125.04550170898438 190.06289672851562 131.46969604492188" stroke-width="0.0" fill="rgb(252, 218, 196)" opacity="0.9996789" stroke="rgb(40, 110, 219)" stroke-opacity="0.70395285" stroke-linecap="round" stroke-linejoin="round"/>
    <path d="M 46.76927185058594 117.06256866455078 C 47.44123458862305 119.25199127197266 48.15684509277344 121.43814849853516 48.877479553222656 123.61216735839844 C 49.48041915893555 125.72369384765625 49.86290740966797 127.80738067626953 50.03310012817383 129.8896484375 C 49.860809326171875 131.96817016601562 49.1802864074707 134.08084106445312 48.05121994018555 136.20098876953125 C 46.36429214477539 138.27081298828125 44.298465728759766 140.25592041015625 42.24153137207031 142.06063842773438 C 40.4256477355957 143.53652954101562 39.01644515991211 144.5392303466797 38.162296295166016 144.86697387695312 C 37.9239501953125 144.57630920410156 38.212669372558594 143.89756774902344 38.85538864135742 143.1265106201172 C 39.62322235107422 142.50108337402344 40.379730224609375 142.17799377441406 40.93836975097656 142.2763214111328 C 41.13670349121094 142.7996063232422 40.95857620239258 143.64700317382812 40.40508270263672 144.6513671875 C 39.55496597290039 145.66314697265625 38.456016540527344 146.53472900390625 37.193328857421875 147.26849365234375 C 35.83383560180664 147.90377807617188 34.436485290527344 148.5185089111328 33.06538009643555 149.21780395507812 C 31.7734375 150.08694458007812 30.54766845703125 151.11521911621094 29.376615524291992 152.3291015625 C 28.178749084472656 153.66159057617188 26.862140655517578 155.1092071533203 25.379533767700195 156.60447692871094 C 23.76143455505371 158.06979370117188 22.064472198486328 159.37210083007812 20.3972110748291 160.44515991210938 C 18.933414459228516 161.25704956054688 17.690534591674805 161.78237915039062 16.492870330810547 162.0316925048828 C 15.62266731262207 162.00209045410156 15.271495819091797 161.74871826171875 15.17224407196045 161.7793426513672 C 15.227618217468262 162.23451232910156 15.513681411743164 162.80313110351562 15.875518798828125 163.1646270751953 C 16.30553436279297 163.17283630371094 16.83892250061035 163.02554321289062 17.61101722717285 163.2171173095703 C 18.1275577545166 164.62960815429688 18.72477912902832 167.11566162109375 19.49159812927246 170.15545654296875 C 20.0870304107666 173.80934143066406 20.419721603393555 178.35208129882812 21.81683349609375 180.7838134765625 C 20.28801155090332 180.73948669433594 18.89992904663086 178.59576416015625 16.1473388671875 175.14964294433594 C 13.634153366088867 172.49313354492188 12.695164680480957 171.73170471191406 13.42900562286377 171.49295043945312 C 14.2796630859375 172.50238037109375 15.486804962158203 175.18472290039062 17.92873764038086 177.9958038330078 C 20.67403793334961 180.17832946777344 21.927295684814453 180.14443969726562 20.601125717163086 178.88629150390625 C 20.897323608398438 177.77926635742188 22.30344581604004 178.04591369628906 22.445613861083984 180.27215576171875 C 26.242637634277344 180.5733642578125 28.892547607421875 181.22657775878906 27.96177864074707 181.46307373046875 C 23.347394943237305 181.2134246826172 23.05593490600586 182.12603759765625 29.058307647705078 182.7532196044922 C 31.952362060546875 181.7903594970703 32.050445556640625 179.22080993652344 29.9722843170166 178.84228515625 C 27.70189094543457 181.6998291015625 28.136703491210938 183.5161895751953 30.08741569519043 183.25717163085938 C 33.55819320678711 184.49522399902344 37.82778549194336 185.13941955566406 41.192073822021484 186.66542053222656 C 40.932674407958984 183.90419006347656 37.183528900146484 180.96205139160156 32.84482955932617 180.61195373535156 C 31.43694496154785 181.27755737304688 33.40593719482422 184.02508544921875 37.19993209838867 186.03675842285156 C 42.24153137207031 188.81210327148438 46.41403579711914 186.9061279296875 46.84694290161133 186.1965789794922 C 46.78666305541992 186.80909729003906 48.66461181640625 187.97439575195312 50.926353454589844 189.3856201171875 C 53.36914825439453 190.46353149414062 55.876033782958984 191.57594299316406 54.8743896484375 193.14584350585938 C 52.80509948730469 193.1630401611328 50.5114860534668 191.04830932617188 49.93901062011719 192.0493927001953 C 54.368953704833984 194.6267852783203 57.445438385009766 198.0724334716797 55.97119140625 202.3771514892578 C 52.71232604980469 202.4181671142578 52.07048797607422 202.55328369140625 54.119972229003906 204.43499755859375 C 54.75614929199219 206.66285705566406 51.80961990356445 207.88682556152344 49.35453414916992 208.20449829101562 C 51.85554885864258 213.87049865722656 54.01870346069336 218.45040893554688 50.74816131591797 219.50006103515625 C 43.24193572998047 218.46969604492188 37.048301696777344 217.7247314453125 37.8723030090332 213.10687255859375 C 41.255348205566406 207.8629150390625 39.05189895629883 203.14688110351562 34.89960479736328 200.06011962890625 C 38.34343719482422 200.83177185058594 40.695796966552734 204.92559814453125 37.933807373046875 208.41566467285156 C 36.60012435913086 208.02529907226562 35.65434646606445 203.80206298828125 33.00791931152344 199.6110382080078 C 29.528343200683594 199.0983123779297 24.002958297729492 199.31683349609375 15.123512268066406 198.81959533691406 C 5.4159979820251465 199.05223083496094 -2.337913751602173 199.1843719482422 -4.546438694000244 198.12957763671875 C -0.8820989727973938 194.5895538330078 6.480062007904053 190.75225830078125 12.684432983398438 189.7920684814453 C 15.074785232543945 189.0115203857422 14.147270202636719 189.79490661621094 12.965444564819336 192.67147827148438 C 11.64319133758545 194.15182495117188 6.536152362823486 193.90182495117188 0.24769426882266998 193.36524963378906 C -3.0129547119140625 190.99586486816406 -4.5298309326171875 188.69345092773438 -4.970312595367432 185.77777099609375 C -5.1199750900268555 182.3705596923828 -5.166703701019287 178.8938446044922 -5.134645938873291 175.2386474609375 C -5.171332836151123 171.3544464111328 -5.1668901443481445 167.44036865234375 -4.809995651245117 163.494140625 C -3.7251181602478027 159.91741943359375 -1.904901385307312 157.6130828857422 0.561592698097229 156.86972045898438 C 3.635331392288208 157.07594299316406 5.777135372161865 156.42539978027344 6.773814678192139 154.59146118164062 C 6.570591926574707 152.43154907226562 6.2332963943481445 150.1831512451172 6.135664463043213 147.43470764160156 C 6.457942962646484 144.52455139160156 7.144000053405762 141.84133911132812 8.08134651184082 139.41592407226562 C 9.274992942810059 137.27880859375 10.795486450195312 135.45623779296875 12.646513938903809 133.87266540527344 C 14.757939338684082 132.3979949951172 16.96149253845215 130.85841369628906 19.094877243041992 129.20816040039062 C 21.130828857421875 127.54827117919922 23.1610050201416 125.91017150878906 25.17327880859375 124.33460998535156 C 27.148351669311523 122.83350372314453 29.121328353881836 121.36840057373047 31.11777114868164 119.90379333496094 C 33.137542724609375 118.43739318847656 35.16443634033203 116.97077178955078 46.76927185058594 117.06256866455078" stroke-width="0.0" fill="rgb(252, 218, 196)" opacity="0.9993255" stroke="rgb(128, 193, 167)" stroke-opacity="0.3141018" stroke-linecap="round" stroke-linejoin="round"/>
    <path d="M 79.5363540649414 119.3294677734375 C 79.27287292480469 120.14285278320312 79.17169952392578 121.08365631103516 79.41364288330078 122.00420379638672 C 79.70367431640625 122.99772644042969 80.26163482666016 124.05870819091797 80.8405990600586 125.48103332519531 C 80.92768096923828 126.78462982177734 80.72959899902344 128.13925170898438 80.4612808227539 129.648681640625 C 80.12890625 131.1717987060547 79.76472473144531 132.51760864257812 79.40412902832031 133.63665771484375 C 79.05964660644531 134.635986328125 78.68778228759766 135.5965576171875 78.24931335449219 136.55239868164062 C 77.7425308227539 137.59335327148438 77.14107513427734 138.63131713867188 76.42241668701172 139.67286682128906 C 75.63929748535156 140.7711944580078 74.74536895751953 141.85333251953125 73.76122283935547 142.92185974121094 C 72.65885925292969 143.98435974121094 71.4822769165039 145.01934814453125 70.28661346435547 145.99771118164062 C 69.14463806152344 146.9619140625 68.03246307373047 147.82701110839844 67.01063537597656 148.6353759765625 C 66.06400299072266 149.39356994628906 64.97425842285156 149.9482421875 63.844261169433594 150.32127380371094 C 62.71234130859375 150.56748962402344 61.520469665527344 150.71481323242188 60.34331130981445 150.88795471191406 C 59.134803771972656 151.10971069335938 57.92051315307617 151.44046020507812 56.740657806396484 151.82772827148438 C 55.6541862487793 152.07275390625 54.68852996826172 152.19577026367188 53.875370025634766 152.26858520507812 C 53.24772262573242 152.2852783203125 52.80197525024414 152.32049560546875 52.557064056396484 152.4380645751953 C 52.510833740234375 152.681640625 52.57413101196289 153.07403564453125 52.65244674682617 153.65139770507812 C 52.65388870239258 154.41842651367188 52.565155029296875 155.4217987060547 52.496726989746094 156.5897979736328 C 52.52016067504883 157.96131896972656 52.50775146484375 159.47027587890625 52.380149841308594 161.0098114013672 C 52.08017349243164 162.51962280273438 51.682220458984375 163.93972778320312 51.238216400146484 165.2636260986328 C 50.90737533569336 166.44461059570312 50.727264404296875 167.45555114746094 50.688236236572266 168.27593994140625 C 50.68809127807617 168.97418212890625 50.745121002197266 169.61302185058594 50.80234146118164 170.2321014404297 C 50.937904357910156 170.8990020751953 51.11503982543945 171.57058715820312 51.300498962402344 172.19271850585938 C 51.464683532714844 172.72232055664062 51.5827522277832 173.19635009765625 51.64335250854492 173.62815856933594 C 51.6470947265625 174.08926391601562 51.48585891723633 174.79440307617188 51.14973831176758 175.92510986328125 C 50.95646286010742 177.63482666015625 51.041622161865234 179.94068908691406 50.609214782714844 182.7489471435547 C 49.78630828857422 185.70411682128906 51.14122772216797 187.9213409423828 53.70718002319336 189.59568786621094 C 52.113037109375 189.60565185546875 47.24732208251953 188.24832153320312 41.37442398071289 186.94528198242188 C 38.26332473754883 185.80325317382812 42.0442008972168 186.36370849609375 49.600860595703125 187.46160888671875 C 52.09244918823242 186.37156677246094 48.60435104370117 185.58123779296875 43.776206970214844 184.3575439453125 C 41.65082550048828 183.58607482910156 40.341957092285156 183.79598999023438 39.56939697265625 182.9100799560547 C 38.388736724853516 182.7379150390625 38.059661865234375 182.94281005859375 38.5910530090332 182.55584716796875 C 37.23149871826172 181.81723022460938 34.84787368774414 181.2260284423828 33.06932830810547 180.72312927246094 C 32.75245666503906 180.16104125976562 32.2172737121582 179.81890869140625 31.057662963867188 180.03599548339844 C 30.042118072509766 178.92991638183594 28.435510635375977 178.33409118652344 26.975244522094727 177.55361938476562 C 25.718332290649414 177.2412567138672 24.816940307617188 176.6013946533203 24.216623306274414 175.6371612548828 C 23.23209571838379 175.1730194091797 22.075992584228516 175.06285095214844 21.796632766723633 174.55296325683594 C 21.217927932739258 173.92559814453125 19.466358184814453 172.6300811767578 16.94005012512207 170.2582550048828 C 14.358092308044434 167.32028198242188 13.497634887695312 166.75538635253906 14.30029296875 170.4522247314453 C 16.74595832824707 175.30162048339844 20.973520278930664 177.75479125976562 19.947383880615234 179.31480407714844 C 14.776080131530762 176.27586364746094 12.157774925231934 171.32286071777344 12.58166790008545 166.52670288085938 C 13.180511474609375 162.7002716064453 14.184995651245117 160.5353546142578 15.204788208007812 159.40440368652344 C 15.68006706237793 158.42691040039062 15.914148330688477 157.4866180419922 16.3143367767334 157.08609008789062 C 17.458494186401367 156.82717895507812 18.83546257019043 156.42678833007812 19.71726417541504 155.4740753173828 C 20.19820785522461 154.3747100830078 20.594532012939453 153.5456085205078 21.12080955505371 152.92100524902344 C 21.825904846191406 152.2984619140625 22.751453399658203 151.45932006835938 23.95958137512207 150.40090942382812 C 25.418169021606445 149.32139587402344 26.88725471496582 148.3048553466797 28.31036376953125 147.52438354492188 C 28.298553466796875 146.6985626220703 28.600366592407227 146.10191345214844 28.894981384277344 146.09637451171875 C 28.9316463470459 145.99330139160156 29.221181869506836 145.82028198242188 29.927587509155273 145.4792938232422 C 30.935375213623047 144.88534545898438 32.148902893066406 144.03948974609375 33.3764762878418 143.12889099121094 C 34.36720275878906 142.30300903320312 35.00795364379883 141.66502380371094 35.3845100402832 141.31668090820312 C 35.71905517578125 141.24562072753906 36.189308166503906 141.25917053222656 37.044795989990234 141.060791015625 C 38.61771774291992 140.3544921875 40.49982833862305 138.83322143554688 42.36297607421875 136.7134552001953 C 45.01799774169922 135.16073608398438 47.6247673034668 133.48683166503906 49.43268966674805 130.90830993652344 C 51.30328369140625 128.87356567382812 53.4611701965332 128.0791778564453 55.210289001464844 127.96858215332031 C 56.36726379394531 127.70922088623047 57.43276596069336 128.0146484375 58.3916130065918 128.91639709472656 C 58.95793151855469 129.87496948242188 59.265357971191406 130.48699951171875 59.419918060302734 130.5789031982422 C 59.35926055908203 130.33909606933594 59.15069580078125 129.7941436767578 58.927978515625 128.8745880126953 C 58.85192108154297 127.53211975097656 58.98173141479492 125.90522766113281 59.40046310424805 124.1940689086914 C 60.21664047241211 122.61335754394531 61.36122512817383 121.24803924560547 62.810302734375 120.12022399902344 C 64.51395416259766 119.30145263671875 66.41938781738281 118.88216400146484 68.47002410888672 118.72467041015625 C 70.61853790283203 118.68732452392578 72.81958770751953 118.72758483886719 79.5363540649414 119.3294677734375" stroke-width="0.0" fill="rgb(88, 156, 43)" opacity="1.0" stroke="rgb(204, 191, 104)" stroke-opacity="0.31816748" stroke-linecap="round" stroke-linejoin="round"/>
    <path d="M 54.48935317993164 368.5714416503906 C 59.4844970703125 370.70220947265625 61.071205139160156 372.6998291015625 61.506935119628906 372.4909973144531 C 61.69739532470703 372.16070556640625 63.05405044555664 372.88140869140625 66.58622741699219 372.35076904296875 C 72.84648132324219 372.96380615234375 80.21715545654297 370.4464111328125 81.51204681396484 362.497802734375 C 81.81721496582031 358.0081481933594 85.63368225097656 363.7367248535156 79.64384460449219 370.0068054199219 C 74.74171447753906 374.0278015136719 72.14028930664062 373.7911376953125 72.60193634033203 373.6517028808594 C 72.80088806152344 375.44586181640625 72.75190734863281 377.9151611328125 72.798583984375 380.0752258300781 C 74.03071594238281 381.66192626953125 75.39080810546875 382.7396240234375 76.53439331054688 383.3218688964844 C 77.34783935546875 383.84271240234375 78.01759338378906 384.167236328125 78.82106018066406 384.4902648925781 C 79.95268249511719 385.1028137207031 81.15966796875 385.8147277832031 82.47428894042969 386.5188293457031 C 83.7718505859375 387.3954772949219 85.04947662353516 388.3251647949219 86.29364776611328 389.0550842285156 C 87.3578109741211 389.7977294921875 88.29371643066406 390.5161437988281 88.99898529052734 391.01361083984375 C 89.32506561279297 391.3792419433594 90.02244567871094 391.6742248535156 91.31999969482422 392.45782470703125 C 92.6815414428711 393.7145080566406 93.95689392089844 395.4344787597656 94.67823791503906 397.3802490234375 C 94.62483978271484 399.3299865722656 94.01055908203125 401.0235900878906 93.42179107666016 402.1376037597656 C 93.41358184814453 402.3710632324219 93.64482879638672 402.0921325683594 93.6635971069336 402.2974853515625 C 93.09577941894531 403.2401123046875 91.4499740600586 404.3349304199219 89.00123596191406 405.43359375 C 86.36725616455078 406.2237548828125 84.42366027832031 407.9937438964844 83.21540832519531 410.32861328125 C 82.76828002929688 411.81195068359375 82.9006118774414 412.0544738769531 83.27403259277344 411.1630859375 C 83.45683288574219 409.3883056640625 82.86530303955078 407.3575134277344 81.45671844482422 405.738037109375 C 79.08042907714844 405.2355041503906 77.23328399658203 404.52362060546875 76.25731658935547 404.01318359375 C 76.22615051269531 403.9446105957031 76.44438171386719 404.03472900390625 76.19294738769531 403.9763488769531 C 74.53095245361328 403.0632019042969 71.8410873413086 401.89276123046875 69.23426055908203 400.2541198730469 C 67.16041564941406 399.2550048828125 65.87862396240234 398.46893310546875 65.07942962646484 398.1374816894531 C 64.61908721923828 397.4069519042969 63.774192810058594 396.8565368652344 62.72618865966797 396.0979309082031 C 61.48500061035156 395.1789855957031 60.80369186401367 394.3322448730469 60.54534912109375 393.964111328125 C 60.62034606933594 394.25689697265625 60.690269470214844 394.4290466308594 60.36418914794922 393.9378967285156 C 59.094505310058594 393.1374816894531 57.58892822265625 391.2815246582031 56.78689193725586 389.1280212402344 C 56.518646240234375 387.1624450683594 56.41606521606445 385.7774353027344 56.84824752807617 384.36541748046875 C 57.060585021972656 384.060791015625 56.99427795410156 383.7187805175781 56.8994255065918 383.1385192871094 C 57.091854095458984 382.7560729980469 57.28329086303711 382.25531005859375 57.40222930908203 382.2963562011719 C 57.274085998535156 381.8419494628906 57.68624496459961 379.240478515625 58.735809326171875 374.4000549316406 C 59.9405632019043 372.5989685058594 56.31403732299805 372.5556640625 52.03407287597656 366.85919189453125 C 51.495079040527344 358.9823913574219 51.612335205078125 354.6844177246094 54.48935317993164 368.5714416503906" stroke-width="0.0" fill="rgb(0, 0, 0)" opacity="0.99987113" stroke="rgb(223, 20, 79)" stroke-opacity="0.5085029" stroke-linecap="round" stroke-linejoin="round"/>
    <path d="M 171.5764617919922 260.3670349121094 C 171.9406280517578 261.2893981933594 172.61724853515625 262.2221374511719 173.63998413085938 262.8499755859375 C 174.6267547607422 263.0762634277344 175.6446075439453 262.6804504394531 176.87513732910156 261.95947265625 C 177.52561950683594 261.51409912109375 177.24755859375 261.47479248046875 176.54937744140625 261.9152526855469 C 176.1748504638672 262.708984375 175.73931884765625 264.0807800292969 174.66671752929688 265.8794860839844 C 173.4741668701172 268.23797607421875 173.05087280273438 270.2542724609375 173.82598876953125 271.2514343261719 C 174.52783203125 271.2715759277344 175.0127716064453 271.113037109375 175.66339111328125 271.4663391113281 C 176.42739868164062 272.4045104980469 176.74581909179688 274.15863037109375 176.735595703125 275.6951599121094 C 175.87901306152344 276.5092468261719 174.3384246826172 275.8753662109375 173.35658264160156 274.0036926269531 C 173.38429260253906 271.2064208984375 174.55540466308594 268.6163635253906 175.43606567382812 267.353271484375 C 175.89707946777344 267.0263366699219 176.360107421875 266.9267883300781 176.22389221191406 267.4074401855469 C 174.8730010986328 267.8544921875 174.34107971191406 268.08941650390625 175.27149963378906 269.06243896484375 C 175.939697265625 270.0855712890625 176.35292053222656 272.39996337890625 176.70741271972656 275.3086853027344 C 176.9021759033203 278.05096435546875 176.57960510253906 280.497314453125 175.97720336914062 282.3489685058594 C 175.5212860107422 283.5459899902344 175.00881958007812 283.9120788574219 174.6612091064453 283.2945556640625 C 174.2881317138672 282.0862731933594 173.9537353515625 280.7998046875 173.6636505126953 280.0677795410156 C 173.2854461669922 280.1622314453125 173.408935546875 280.9356384277344 173.6999053955078 282.13763427734375 C 174.16880798339844 283.6657409667969 174.71591186523438 285.50848388671875 175.46946716308594 287.6303405761719 C 175.8137664794922 289.89385986328125 175.9623565673828 292.0746765136719 176.1885528564453 293.9583435058594 C 176.46595764160156 295.3374938964844 176.81204223632812 296.1573791503906 177.15322875976562 296.6580810546875 C 177.34288024902344 297.1816101074219 177.38687133789062 297.9491271972656 177.30264282226562 298.97119140625 C 177.37046813964844 300.13250732421875 177.58206176757812 301.11688232421875 177.5475616455078 301.58416748046875 C 177.36105346679688 301.5421447753906 177.3021240234375 301.34417724609375 177.40223693847656 301.7824401855469 C 177.20643615722656 302.5396728515625 177.1326904296875 303.2403564453125 177.13626098632812 304.320068359375 C 177.2609405517578 306.26226806640625 177.1943359375 308.99957275390625 176.96636962890625 312.27838134765625 C 177.19493103027344 315.75946044921875 177.07742309570312 318.44647216796875 176.2264862060547 319.3021240234375 C 175.62423706054688 317.3789367675781 175.49517822265625 313.2231140136719 176.24624633789062 307.8482971191406 C 174.8248748779297 303.6619873046875 174.95054626464844 305.11663818359375 174.17506408691406 312.847900390625 C 174.70498657226562 323.3737487792969 175.38648986816406 333.62908935546875 171.9329833984375 340.48956298828125 C 171.16087341308594 344.0641174316406 173.56166076660156 343.6799011230469 171.4683837890625 342.1312255859375 C 170.04368591308594 346.94073486328125 169.43589782714844 350.8575134277344 169.4240264892578 351.9371643066406 C 171.12208557128906 351.2652587890625 172.26727294921875 351.2474670410156 172.3623809814453 351.19195556640625 C 173.39230346679688 353.2540283203125 173.3564453125 355.1264343261719 171.50164794921875 354.48822021484375 C 169.53468322753906 353.70623779296875 168.33546447753906 353.79498291015625 166.7115936279297 356.25146484375 C 166.9871826171875 360.5024108886719 163.4447479248047 361.32659912109375 158.52423095703125 360.4940185546875 C 154.402099609375 357.88165283203125 154.00721740722656 355.2301330566406 153.12635803222656 354.7015075683594 C 152.85665893554688 353.7393798828125 153.8779754638672 352.8758850097656 154.76063537597656 351.2525329589844 C 156.3108673095703 348.30511474609375 157.243408203125 345.5728454589844 155.66482543945312 344.2879638671875 C 153.29193115234375 344.1059875488281 150.63633728027344 345.3157043457031 150.1648712158203 347.4877624511719 C 152.28575134277344 347.5099182128906 155.53384399414062 347.8627624511719 156.4842071533203 347.3390197753906 C 156.43780517578125 344.9970397949219 158.89328002929688 340.8730773925781 161.12240600585938 336.34521484375 C 161.8740692138672 331.3121337890625 161.2312469482422 327.1383972167969 162.43783569335938 323.02996826171875 C 162.03309631347656 317.75592041015625 163.72891235351562 314.4081115722656 164.11080932617188 310.4755859375 C 160.61329650878906 313.79046630859375 159.94667053222656 317.6134948730469 158.98463439941406 319.69610595703125 C 158.64999389648438 320.3695068359375 158.99415588378906 320.00079345703125 159.4917449951172 319.0626220703125 C 160.02073669433594 317.8900146484375 160.38623046875 316.6912536621094 160.55926513671875 315.4501953125 C 160.5255889892578 314.3064270019531 160.3666229248047 313.2138977050781 160.2450408935547 312.166015625 C 160.37693786621094 311.19268798828125 160.8190460205078 310.21441650390625 161.3033905029297 309.13916015625 C 161.5806884765625 307.93450927734375 161.56753540039062 306.6466064453125 161.34925842285156 305.2825622558594 C 161.1614227294922 303.7825012207031 161.12608337402344 302.0849304199219 161.23728942871094 300.1401672363281 C 161.46676635742188 297.9488525390625 161.7103729248047 295.4830017089844 161.9140625 292.7649841308594 C 161.9557342529297 289.9062194824219 161.7185821533203 287.0343933105469 161.3011016845703 284.2160339355469 C 161.0830841064453 281.4802551269531 161.0559539794922 278.9590148925781 161.1359405517578 276.7624816894531 C 161.2437286376953 274.9103088378906 161.22039794921875 273.4055480957031 161.0199432373047 272.214599609375 C 160.66465759277344 271.3644104003906 160.11256408691406 270.8988952636719 159.4796600341797 270.755615234375 C 158.95230102539062 270.8569641113281 158.68197631835938 271.02313232421875 158.68141174316406 270.95098876953125 C 158.92803955078125 270.3279724121094 159.07791137695312 269.0577392578125 158.7732391357422 267.18157958984375 C 158.09515380859375 264.7558288574219 157.2700958251953 262.08489990234375 156.65232849121094 259.60321044921875 C 156.7798614501953 257.7586669921875 157.87538146972656 256.60028076171875 159.8292694091797 256.1326904296875 C 162.27557373046875 256.349365234375 165.0341796875 256.7051696777344 167.8345184326172 256.7594909667969 C 170.4718780517578 256.5558166503906 173.0841827392578 256.0501403808594 171.5764617919922 260.3670349121094" stroke-width="0.0" fill="rgb(251, 217, 196)" opacity="1.0" stroke="rgb(66, 172, 129)" stroke-opacity="0.7280424" stroke-linecap="round" stroke-linejoin="round"/>
    <path d="M 43.26726531982422 74.70252990722656 C 46.65284729003906 73.6487808227539 49.93988800048828 72.7022476196289 52.20636749267578 73.190185546875 C 52.81553649902344 73.83065795898438 52.54469680786133 74.53520202636719 51.58610534667969 74.72103881835938 C 51.177825927734375 74.64421081542969 51.619354248046875 74.2200698852539 52.41048812866211 73.4940185546875 C 53.81765365600586 73.12208557128906 55.495906829833984 73.56611633300781 57.6556510925293 74.1155776977539 C 60.697547912597656 74.74929809570312 62.88573455810547 75.79647827148438 63.32156753540039 71.64041900634766 C 64.96611022949219 56.02604293823242 67.61817932128906 34.37337875366211 70.4909439086914 17.459781646728516 C 72.2141342163086 26.352298736572266 67.83143615722656 46.61020278930664 65.91329193115234 64.66250610351562 C 65.0435791015625 74.22435760498047 64.58248138427734 77.43226623535156 64.94297790527344 78.03719329833984 C 64.95586395263672 78.58555603027344 64.31556701660156 79.12527465820312 63.67092514038086 79.9494400024414 C 64.08941650390625 83.43716430664062 64.17461395263672 86.4992446899414 63.544002532958984 89.13555908203125 C 63.465431213378906 90.91568756103516 63.27332305908203 91.36334991455078 62.567291259765625 90.4886245727539 C 62.47643280029297 88.72037506103516 62.48528289794922 87.29901123046875 62.00487518310547 86.95038604736328 C 61.73854064941406 87.7623519897461 61.39210891723633 89.38211059570312 61.7420654296875 91.47283172607422 C 61.31816864013672 93.52592468261719 61.43328857421875 94.95346069335938 62.134849548339844 95.32675170898438 C 63.41472625732422 95.29290771484375 64.52001190185547 95.32011413574219 65.0853500366211 95.95597076416016 C 65.59666442871094 96.92691040039062 66.23532104492188 97.65455627441406 66.9911117553711 98.40875244140625 C 67.98748016357422 98.93928527832031 68.96904754638672 99.33442687988281 69.5477294921875 100.00582122802734 C 69.80931854248047 100.94245147705078 70.33683013916016 101.58379364013672 71.02793884277344 101.97903442382812 C 71.47836303710938 102.36080169677734 71.75 102.78597259521484 72.06591796875 103.1421890258789 C 72.74323272705078 103.6836166381836 73.58575439453125 104.65213012695312 74.34890747070312 105.72115325927734 C 75.08407592773438 106.82032775878906 75.61759948730469 108.05602264404297 75.95121765136719 109.2903823852539 C 76.25679016113281 110.5489730834961 76.69551849365234 111.53185272216797 77.12245178222656 112.3187026977539 C 77.53170776367188 112.94931030273438 77.75468444824219 113.51736450195312 77.92053985595703 114.09437561035156 C 78.21678924560547 114.73069763183594 78.6083755493164 115.48170471191406 79.01947021484375 116.35101318359375 C 79.36043548583984 117.31197357177734 79.62841796875 118.35110473632812 79.80525970458984 119.47923278808594 C 79.85095977783203 120.56289672851562 79.7544937133789 121.56731414794922 79.49427795410156 122.44315338134766 C 79.05779266357422 123.17042541503906 78.45790100097656 123.71363067626953 77.71137237548828 124.07674407958984 C 76.84965515136719 124.29381561279297 75.87490844726562 124.41038513183594 74.80638122558594 124.49090576171875 C 73.66911315917969 124.55076599121094 72.48745727539062 124.6583251953125 71.26284790039062 124.81302642822266 C 70.02593994140625 125.03501892089844 68.8025131225586 125.27792358398438 67.60563659667969 125.51535034179688 C 66.46381378173828 125.71359252929688 65.41617584228516 125.83634185791016 64.46339416503906 125.82884216308594 C 63.62532043457031 125.68463897705078 62.8626594543457 125.41277313232422 62.15694046020508 125.02811431884766 C 61.47639465332031 124.54584503173828 60.765403747558594 123.9895248413086 60.006290435791016 123.38578033447266 C 59.17770767211914 122.74095153808594 58.27393341064453 122.06104278564453 57.314735412597656 121.36079406738281 C 56.31800842285156 120.6370620727539 55.35249710083008 119.91222381591797 54.499961853027344 119.19605255126953 C 53.838165283203125 118.49275207519531 53.41635513305664 117.81696319580078 53.27128982543945 117.18546295166016 C 53.41744613647461 116.62385559082031 53.83185958862305 116.16861724853516 54.460784912109375 115.90315246582031 C 55.209407806396484 115.88331604003906 55.97444534301758 116.0992660522461 56.63512420654297 116.53382110595703 C 57.08002471923828 117.15080261230469 57.256526947021484 117.89651489257812 57.14178466796875 118.72986602783203 C 56.708045959472656 119.59674835205078 55.94636154174805 120.42610931396484 54.8787841796875 121.1597900390625 C 53.55382537841797 121.74324798583984 52.032752990722656 122.17919158935547 50.38162612915039 122.49304962158203 C 48.653743743896484 122.68858337402344 46.87508010864258 122.77986145019531 45.12381362915039 122.79664611816406 C 43.469512939453125 122.7657470703125 41.941593170166016 122.76162719726562 40.543819427490234 122.80015563964844 C 39.19590377807617 122.88325500488281 37.834442138671875 122.94537353515625 36.383026123046875 122.98356628417969 C 34.77641296386719 122.98710632324219 32.93437576293945 122.96978759765625 30.868099212646484 122.9426040649414 C 28.605331420898438 122.90392303466797 26.174667358398438 122.84169006347656 23.663217544555664 122.76043701171875 C 21.06521987915039 122.68817138671875 18.485212326049805 122.68592071533203 16.062334060668945 122.7936782836914 C 13.549575805664062 122.96908569335938 10.777130126953125 122.95509338378906 8.093218803405762 122.51981353759766 C 6.560647010803223 121.74256896972656 5.89451789855957 121.14967346191406 5.326264381408691 119.83696746826172 C 4.343167781829834 117.45545196533203 4.541362762451172 115.13526916503906 5.845569610595703 113.4654769897461 C 6.600182056427002 112.06989288330078 6.954656600952148 110.63630676269531 7.3473029136657715 109.15692138671875 C 7.917660236358643 107.13394165039062 8.779318809509277 105.23355102539062 10.220172882080078 102.98583221435547 C 11.253178596496582 100.19841003417969 12.758926391601562 98.02215576171875 14.429464340209961 96.22504425048828 C 15.394761085510254 93.976806640625 17.084688186645508 92.18560791015625 19.233861923217773 90.130615234375 C 21.427793502807617 87.90240478515625 22.937891006469727 85.52682495117188 24.537342071533203 84.20278930664062 C 26.09314727783203 83.6494369506836 26.949787139892578 82.65089416503906 27.780921936035156 82.035888671875 C 28.687620162963867 80.86103057861328 29.992382049560547 80.41376495361328 30.904027938842773 79.68639373779297 C 31.81014060974121 78.57481384277344 33.542503356933594 77.61116027832031 36.33021545410156 76.23101043701172 C 39.48055648803711 74.70436096191406 42.86009216308594 74.13648986816406 45.2365608215332 72.99359893798828 C 47.1270751953125 73.27046203613281 48.33395767211914 74.25043487548828 43.26726531982422 74.70252990722656" stroke-width="0.0" fill="rgb(140, 209, 94)" opacity="1.0" stroke="rgb(192, 200, 122)" stroke-opacity="0.88083655" stroke-linecap="round" stroke-linejoin="round"/>
    <path d="M 83.2237319946289 269.4197692871094 C 83.43046569824219 271.00372314453125 83.71693420410156 272.6554870605469 84.0290756225586 274.41424560546875 C 84.20147705078125 276.14263916015625 84.16569519042969 277.8212585449219 84.04293060302734 279.2780456542969 C 84.0710220336914 280.47003173828125 84.21971893310547 281.1794738769531 84.58074188232422 281.4029541015625 C 85.10040283203125 281.1650390625 85.68175506591797 280.68829345703125 86.06910705566406 280.22320556640625 C 86.22019958496094 280.0697021484375 86.20994567871094 280.27276611328125 86.06140899658203 280.8686218261719 C 85.87667846679688 281.86138916015625 85.77571868896484 283.0870056152344 85.79398345947266 284.5205383300781 C 85.83885955810547 286.05438232421875 85.89865112304688 287.5700988769531 85.94857788085938 289.0271911621094 C 85.90852355957031 290.42230224609375 85.77287292480469 291.6885070800781 85.59125518798828 292.848388671875 C 85.36492919921875 293.9603576660156 85.1135025024414 295.0718688964844 84.87432861328125 296.22467041015625 C 84.73294067382812 297.41461181640625 84.70564270019531 298.6226501464844 84.77570343017578 299.82763671875 C 84.89263916015625 301.01513671875 85.00912475585938 302.1280517578125 85.16958618164062 303.1208190917969 C 85.33504486083984 303.97821044921875 85.44401550292969 304.68646240234375 85.49327087402344 305.2275390625 C 85.46414184570312 305.6677551269531 85.33879852294922 306.025146484375 85.12959289550781 306.33056640625 C 84.88623809814453 306.6048278808594 84.64083099365234 306.865966796875 84.4299087524414 307.1625671386719 C 84.34043884277344 307.54705810546875 84.36380767822266 308.0339050292969 84.40365600585938 308.59912109375 C 84.49432373046875 309.2452392578125 84.69440460205078 309.94915771484375 84.94094848632812 310.696044921875 C 85.2349624633789 311.4967346191406 85.51373291015625 312.2948913574219 85.61705780029297 313.1221008300781 C 85.6163558959961 313.9999694824219 85.60868835449219 314.92572021484375 85.45332336425781 315.879638671875 C 85.24308776855469 316.8494567871094 85.25552368164062 317.7949523925781 85.0584716796875 318.65594482421875 C 84.6754150390625 319.4267578125 84.33499908447266 320.1440734863281 84.06806182861328 320.8683776855469 C 83.85916900634766 321.66619873046875 83.66749572753906 322.5408630371094 83.50186920166016 323.5197448730469 C 83.41638946533203 324.6020202636719 83.4599609375 325.7989501953125 83.60791015625 327.1135559082031 C 83.7623519897461 328.5360107421875 83.89786529541016 329.95941162109375 84.05168914794922 331.3936462402344 C 84.01397705078125 332.7912292480469 83.61019134521484 333.8728942871094 83.14012908935547 334.7256164550781 C 83.03160858154297 335.5368957519531 82.91378021240234 336.03436279296875 82.84121704101562 336.0960998535156 C 82.96730041503906 336.1500549316406 83.02359771728516 336.23004150390625 83.01148223876953 336.0257263183594 C 83.26628875732422 336.0303955078125 83.1060791015625 336.53167724609375 83.2341537475586 337.5518493652344 C 83.3211898803711 338.52337646484375 81.3089828491211 338.85479736328125 79.08432006835938 341.33612060546875 C 76.06800079345703 345.21246337890625 76.09175109863281 349.307861328125 78.87923431396484 351.70343017578125 C 79.87761688232422 349.39508056640625 79.64696502685547 344.2919006347656 79.50978088378906 340.74176025390625 C 78.70902252197266 341.99609375 78.08192443847656 346.3482666015625 78.48448181152344 352.2485656738281 C 75.79962158203125 357.05303955078125 74.53105926513672 360.5595703125 74.24378204345703 362.3608703613281 C 73.70314025878906 359.08892822265625 75.17076873779297 355.2122497558594 78.84815216064453 354.79595947265625 C 77.99261474609375 352.8443603515625 77.1557388305664 352.44207763671875 76.32176971435547 355.60223388671875 C 73.96931457519531 356.8247985839844 73.41893005371094 360.98388671875 73.17971801757812 364.5859069824219 C 66.48579406738281 365.0736999511719 61.57978057861328 363.3314208984375 62.34288787841797 359.0976257324219 C 65.03983306884766 356.8437194824219 63.7310905456543 354.19091796875 58.787723541259766 354.62603759765625 C 54.10675811767578 355.1630554199219 52.646968841552734 351.2069091796875 56.330047607421875 346.5894775390625 C 64.38763427734375 344.6151428222656 66.4939193725586 347.7470703125 65.26946258544922 354.62591552734375 C 65.98816680908203 353.58380126953125 66.47457122802734 349.38043212890625 66.65937042236328 345.2143859863281 C 64.94329071044922 345.3952941894531 64.6654052734375 347.67218017578125 65.66218566894531 348.644287109375 C 67.41120147705078 346.594970703125 70.14861297607422 340.7439880371094 71.02826690673828 335.1657409667969 C 67.83164978027344 338.0354309082031 63.61069869995117 340.3498840332031 60.97096633911133 339.30609130859375 C 65.07681274414062 340.0706787109375 70.5462417602539 341.17437744140625 70.7523193359375 338.77130126953125 C 63.61162567138672 336.72723388671875 51.217041015625 335.9353942871094 40.982139587402344 331.0917053222656 C 44.18539047241211 327.0202331542969 55.879058837890625 328.02935791015625 67.37820434570312 327.7310791015625 C 72.75047302246094 327.6175842285156 73.45381927490234 330.57568359375 71.5491714477539 332.97235107421875 C 71.4436264038086 329.3894958496094 71.28681945800781 320.1482849121094 71.60393524169922 306.7188415527344 C 71.87965393066406 292.63836669921875 70.63741302490234 282.9589538574219 71.83480072021484 281.5089111328125 C 72.89767456054688 290.9421691894531 72.29190826416016 307.18365478515625 72.66104125976562 322.3399658203125 C 72.07415771484375 326.2782287597656 72.27836608886719 320.5080871582031 71.62132263183594 314.6708068847656 C 71.05889892578125 314.8759460449219 74.03919982910156 318.5357360839844 68.77446746826172 324.2004089355469 C 44.67583465576172 328.9375915527344 26.154186248779297 326.3143615722656 25.630407333374023 302.85504150390625 C 25.661874771118164 271.0213317871094 33.78276062011719 255.8571014404297 54.50311279296875 257.64495849609375 C 67.4345703125 262.8039855957031 67.1523208618164 270.06011962890625 62.40371322631836 274.8506164550781 C 62.64860916137695 275.1610107421875 63.880123138427734 271.81719970703125 64.15516662597656 268.3410339355469 C 64.38562774658203 267.7552185058594 66.64954376220703 268.8982238769531 69.4124526977539 271.965087890625 C 69.86238861083984 283.32281494140625 70.62859344482422 287.3662414550781 72.06221008300781 279.5421447753906 C 70.42030334472656 272.50408935546875 70.45602416992188 271.2908630371094 74.5115737915039 271.4579162597656 C 80.18992614746094 269.85284423828125 85.74893951416016 268.2168884277344 83.2237319946289 269.4197692871094" stroke-width="0.0" fill="rgb(253, 219, 197)" opacity="0.99977356" stroke="rgb(226, 204, 145)" stroke-opacity="0.025629682" stroke-linecap="round" stroke-linejoin="round"/>
    <path d="M 7.683675765991211 107.64994049072266 C 9.305205345153809 103.19847869873047 10.939108848571777 100.99169158935547 11.88257884979248 102.96917724609375 C 10.747651100158691 106.98114776611328 8.592634201049805 110.33999633789062 7.734787940979004 112.87983703613281 C 9.030919075012207 114.28276062011719 11.2191801071167 114.88187408447266 13.342302322387695 115.31362915039062 C 15.152420043945312 115.77857971191406 16.371828079223633 116.23147583007812 17.233386993408203 116.64334106445312 C 17.904075622558594 117.01958465576172 18.531253814697266 117.39482879638672 19.26939582824707 117.82876586914062 C 20.149057388305664 118.32093811035156 21.166181564331055 118.75462341308594 22.279293060302734 119.07554626464844 C 23.394859313964844 119.27999877929688 24.471803665161133 119.40396881103516 25.484474182128906 119.42138671875 C 26.43239974975586 119.37479400634766 27.3493595123291 119.33837890625 28.250564575195312 119.3425064086914 C 29.102901458740234 119.3984375 29.94013214111328 119.53305053710938 30.76378059387207 119.70408630371094 C 31.573205947875977 119.88038635253906 32.41096115112305 120.01614379882812 33.33464050292969 120.06546783447266 C 34.378334045410156 120.01689910888672 35.58688735961914 119.91423034667969 37.01548385620117 119.88224792480469 C 38.6670036315918 120.04716491699219 40.44437026977539 120.46617889404297 42.239776611328125 121.17149353027344 C 43.972896575927734 122.14891815185547 45.58343505859375 123.31324768066406 46.96766662597656 124.49227142333984 C 47.94576644897461 125.5629653930664 48.28802490234375 126.2938232421875 47.713645935058594 126.451416015625 C 45.96582794189453 125.80145263671875 43.28643035888672 124.34501647949219 40.5606689453125 122.4544677734375 C 39.23439407348633 122.615478515625 37.81197738647461 123.98660278320312 37.00072479248047 125.04962921142578 C 35.796871185302734 126.31033325195312 34.50769805908203 127.56735229492188 33.25137710571289 128.054931640625 C 32.388893127441406 127.92343139648438 31.802288055419922 127.85380554199219 31.433387756347656 128.3819580078125 C 30.641565322875977 129.4178009033203 29.20722007751465 130.5335235595703 27.57400894165039 132.05511474609375 C 26.037851333618164 133.3054962158203 24.800081253051758 134.39234924316406 23.977792739868164 135.44287109375 C 23.441184997558594 136.17306518554688 23.00035285949707 136.5943603515625 22.692623138427734 137.57008361816406 C 22.168893814086914 137.43341064453125 21.250368118286133 137.4345703125 20.15707015991211 138.33810424804688 C 18.743209838867188 139.6175994873047 17.322586059570312 140.78846740722656 16.050575256347656 141.8765106201172 C 15.172050476074219 142.9249267578125 14.57835578918457 143.85137939453125 14.132298469543457 144.66928100585938 C 13.685588836669922 145.59356689453125 12.879064559936523 146.55604553222656 11.48068904876709 147.9186248779297 C 9.191728591918945 150.9953155517578 4.559771537780762 155.88095092773438 1.8338676691055298 164.74069213867188 C -0.4388686418533325 168.66050720214844 -0.5578005313873291 162.7972412109375 4.992358207702637 153.8000030517578 C 4.777408599853516 150.3152313232422 2.2302560806274414 147.37741088867188 2.7176833152770996 145.196533203125 C 2.9361212253570557 145.2894744873047 3.666335105895996 146.77195739746094 3.720646619796753 147.37461853027344 C 2.3347771167755127 146.88858032226562 2.375910997390747 146.49801635742188 2.9408440589904785 145.1087188720703 C 2.2581944465637207 142.71847534179688 2.033376932144165 139.95816040039062 1.8819220066070557 137.62400817871094 C 2.083589792251587 136.13758850097656 1.9799386262893677 135.4183807373047 1.3801852464675903 135.2198028564453 C 0.8010175824165344 135.16786193847656 0.7870250344276428 135.19265747070312 1.3319116830825806 135.14865112304688 C 1.6490994691848755 135.54409790039062 1.7789326906204224 135.6862335205078 1.9004114866256714 135.10455322265625 C 1.5040079355239868 133.81448364257812 1.7047525644302368 132.33543395996094 2.1515235900878906 131.6412353515625 C 2.1702466011047363 131.41278076171875 1.9129940271377563 131.0137481689453 2.4109129905700684 130.55996704101562 C 1.8131301403045654 129.21914672851562 2.01043963432312 128.13726806640625 2.472991943359375 127.15106964111328 C 2.7454776763916016 126.18624114990234 2.7869479656219482 125.3011474609375 2.603423833847046 124.4134292602539 C 2.8891048431396484 123.02896881103516 2.931022882461548 122.0951919555664 3.0314834117889404 121.56631469726562 C 3.1860110759735107 120.87399291992188 3.477099895477295 120.55073547363281 3.6408188343048096 120.65453338623047 C 3.6178994178771973 121.15999603271484 3.5994296073913574 121.73419952392578 3.7308244705200195 122.02520751953125 C 3.4172170162200928 121.54598999023438 3.3062379360198975 120.56108856201172 3.809461832046509 118.84445190429688 C 4.318761348724365 115.74945068359375 5.089122772216797 113.53142547607422 7.683675765991211 107.64994049072266" stroke-width="0.0" fill="rgb(89, 158, 43)" opacity="1.0" stroke="rgb(77, 121, 115)" stroke-opacity="0.1188304" stroke-linecap="round" stroke-linejoin="round"/>
    <path d="M 145.43792724609375 363.03399658203125 C 147.58250427246094 364.5481262207031 149.07705688476562 365.87939453125 150.8004150390625 366.274169921875 C 151.81271362304688 367.3969421386719 154.2118377685547 367.2860107421875 156.5635986328125 368.0573425292969 C 159.86231994628906 368.3871765136719 164.10195922851562 369.2832946777344 168.23573303222656 366.2122497558594 C 174.55711364746094 363.415771484375 173.021240234375 357.18890380859375 173.24081420898438 353.9720764160156 C 177.68177795410156 363.1864929199219 170.5142822265625 368.8395690917969 162.7853546142578 370.2440185546875 C 160.52886962890625 371.5400390625 163.29238891601562 373.161376953125 166.94940185546875 374.8554382324219 C 169.5540771484375 376.38189697265625 171.1813507080078 376.9308166503906 171.20509338378906 377.3281555175781 C 171.62545776367188 377.4927062988281 171.7913055419922 377.84173583984375 172.2115478515625 378.0057373046875 C 172.9029998779297 378.0664367675781 173.90318298339844 378.37042236328125 175.03416442871094 379.0868835449219 C 175.98423767089844 380.3213806152344 176.74253845214844 381.9698486328125 177.30625915527344 383.8009948730469 C 177.68653869628906 385.57110595703125 177.8438262939453 387.0718078613281 177.70628356933594 388.1885986328125 C 177.43312072753906 388.7387390136719 177.16168212890625 388.90704345703125 176.99949645996094 388.8620910644531 C 176.72384643554688 388.86480712890625 176.07870483398438 389.08935546875 174.77932739257812 389.57781982421875 C 172.8159637451172 390.0827331542969 170.76734924316406 390.34625244140625 169.16595458984375 390.3579406738281 C 168.2384033203125 390.3301696777344 167.66697692871094 390.4485168457031 167.17649841308594 390.7334289550781 C 166.4521942138672 391.0291442871094 165.3687286376953 391.0812072753906 164.23712158203125 390.61199951171875 C 163.04922485351562 390.012939453125 161.79200744628906 389.3443603515625 160.56520080566406 388.830810546875 C 159.41246032714844 388.4276123046875 158.36502075195312 387.9422302246094 157.4822540283203 387.4324035644531 C 156.76278686523438 387.0441589355469 156.0485382080078 386.7710876464844 155.1068572998047 386.4527282714844 C 153.8977813720703 386.0123596191406 152.65530395507812 385.52838134765625 151.5795135498047 385.046630859375 C 150.782470703125 384.6048889160156 150.08604431152344 384.05059814453125 149.19395446777344 383.2977294921875 C 147.8217315673828 382.27142333984375 146.0961151123047 381.0955505371094 144.3126983642578 379.7967834472656 C 142.76449584960938 378.3248596191406 141.72927856445312 376.8758239746094 141.28248596191406 375.5382995605469 C 141.5128173828125 374.4827880859375 142.0891571044922 373.9557800292969 142.37330627441406 373.86834716796875 C 142.23301696777344 374.1705017089844 142.18067932128906 373.98577880859375 142.1182098388672 373.3345642089844 C 142.41920471191406 371.54388427734375 144.83004760742188 369.551025390625 146.0155029296875 365.75848388671875 C 139.814697265625 359.1646728515625 138.79212951660156 346.69525146484375 145.43792724609375 363.03399658203125" stroke-width="0.0" fill="rgb(0, 0, 0)" opacity="0.9999397" stroke="rgb(183, 242, 13)" stroke-opacity="0.25255153" stroke-linecap="round" stroke-linejoin="round"/>
    <path d="M 184.34239196777344 122.66310119628906 C 184.83912658691406 123.86652374267578 186.737060546875 125.37007141113281 190.46827697753906 128.72775268554688 C 195.98641967773438 135.1265411376953 203.4714813232422 142.760986328125 207.75013732910156 149.74600219726562 C 203.16897583007812 146.91183471679688 198.07830810546875 137.8375701904297 191.98631286621094 132.41014099121094 C 189.40719604492188 134.93927001953125 187.2033233642578 138.7774658203125 185.0557098388672 140.93215942382812 C 185.34938049316406 142.35018920898438 184.57882690429688 142.48316955566406 184.01910400390625 141.88108825683594 C 184.0433807373047 141.47410583496094 183.91299438476562 141.5822296142578 184.13851928710938 142.03433227539062 C 184.2506103515625 142.45758056640625 185.29087829589844 143.4686737060547 187.8733673095703 147.05752563476562 C 193.5597381591797 152.9228515625 195.4268035888672 157.0563507080078 191.0201873779297 153.38926696777344 C 186.47225952148438 147.08494567871094 184.19078063964844 144.14002990722656 183.5081329345703 144.6519317626953 C 183.06668090820312 146.8365478515625 181.32809448242188 148.58282470703125 179.82513427734375 150.5000457763672 C 178.5089569091797 152.1361541748047 177.2171630859375 153.5401153564453 176.0923614501953 154.17803955078125 C 175.64308166503906 154.65066528320312 175.04135131835938 154.8364715576172 174.93295288085938 155.52798461914062 C 174.28610229492188 155.82518005371094 172.8147735595703 156.7228546142578 170.42843627929688 158.04165649414062 C 168.67066955566406 158.2451629638672 168.86148071289062 160.99539184570312 168.0881805419922 165.85780334472656 C 167.38072204589844 170.05230712890625 166.3031005859375 172.28378295898438 166.2678680419922 169.19708251953125 C 166.82638549804688 163.0857391357422 167.8359375 156.7178497314453 168.44400024414062 151.5204315185547 C 168.82681274414062 148.64207458496094 168.8179473876953 147.3106689453125 169.19969177246094 146.5888671875 C 169.5615692138672 145.5885009765625 170.03558349609375 144.2705078125 170.34217834472656 143.06448364257812 C 170.4306640625 142.04632568359375 170.44383239746094 141.13389587402344 170.3845672607422 140.31103515625 C 170.35716247558594 139.57257080078125 170.44410705566406 138.89007568359375 170.65090942382812 138.1822509765625 C 170.88616943359375 137.42242431640625 171.1002960205078 136.5386962890625 171.28709411621094 135.52259826660156 C 171.3857421875 134.33193969726562 171.4850616455078 133.00111389160156 171.70034790039062 131.61709594726562 C 172.09164428710938 130.26663208007812 172.6812744140625 129.03823852539062 173.33035278320312 128.02056884765625 C 173.97132873535156 127.25787353515625 174.61959838867188 126.7497787475586 175.28489685058594 126.53778076171875 C 175.87435913085938 126.60128021240234 176.33172607421875 126.80860900878906 176.68405151367188 127.1516342163086 C 176.96766662597656 127.601806640625 177.1881866455078 127.9892578125 177.41909790039062 128.198486328125 C 177.79586791992188 127.6664810180664 178.1397247314453 126.0906753540039 178.24945068359375 123.77857971191406 C 178.1047821044922 120.84856414794922 178.11666870117188 117.84152221679688 177.8814239501953 115.33942413330078 C 177.94317626953125 113.1421127319336 179.25491333007812 110.83000183105469 184.34239196777344 122.66310119628906" stroke-width="0.0" fill="rgb(87, 154, 43)" opacity="1.0" stroke="rgb(72, 48, 23)" stroke-opacity="0.52703613" stroke-linecap="round" stroke-linejoin="round"/>
    <path d="M 61.5783576965332 115.1745376586914 C 62.00081253051758 115.61148834228516 62.55088424682617 116.16177368164062 63.1070442199707 117.03514099121094 C 63.656959533691406 118.29035949707031 64.08709716796875 119.7849349975586 64.38874053955078 121.31999206542969 C 64.48735046386719 122.7265625 64.51374816894531 123.97277069091797 64.66451263427734 125.0623550415039 C 64.94542694091797 126.01016998291016 65.27017211914062 126.8348388671875 65.5444107055664 127.5869140625 C 65.72097778320312 128.33038330078125 65.75152587890625 129.12094116210938 65.6026382446289 129.99574279785156 C 65.20823669433594 130.9591827392578 64.5716552734375 131.99252319335938 63.71731185913086 133.0631103515625 C 62.5815544128418 134.0720672607422 61.187721252441406 135.1187744140625 59.66319274902344 136.34112548828125 C 58.075992584228516 137.59963989257812 56.261348724365234 138.41970825195312 54.475223541259766 138.5535125732422 C 53.085636138916016 137.8343505859375 52.557334899902344 136.3910675048828 53.3868522644043 134.34799194335938 C 54.382606506347656 132.09632873535156 54.47354507446289 130.2246856689453 53.73473358154297 129.00889587402344 C 52.48244857788086 128.7863311767578 51.073177337646484 129.06314086914062 50.32279968261719 129.75482177734375 C 50.17613220214844 130.3962860107422 50.37812423706055 130.73989868164062 50.713504791259766 130.58375549316406 C 51.08524703979492 130.2203826904297 51.15041732788086 130.18301391601562 50.77436828613281 130.49789428710938 C 50.03908157348633 130.9283447265625 49.173526763916016 131.26968383789062 48.37996292114258 131.46649169921875 C 47.71437072753906 130.9967498779297 46.84157943725586 128.8953094482422 47.615726470947266 125.78455352783203 C 45.460269927978516 123.91962432861328 43.2838249206543 122.35029602050781 41.98863983154297 120.93212127685547 C 41.4482421875 119.9724349975586 41.28803634643555 119.4933853149414 41.597171783447266 119.31607055664062 C 42.36760711669922 119.28142547607422 43.52267074584961 119.1957015991211 44.90399169921875 118.95648956298828 C 46.41685485839844 118.55372619628906 48.00526809692383 117.88983917236328 49.555484771728516 117.00215911865234 C 50.97467803955078 115.9127426147461 52.25326156616211 114.73572540283203 53.37630081176758 113.56349182128906 C 54.356285095214844 112.44336700439453 55.182098388671875 111.46178436279297 55.85786056518555 110.67781829833984 C 56.34953689575195 110.09038543701172 56.655784606933594 109.71267700195312 56.81890106201172 109.537353515625 C 56.85870361328125 109.50703430175781 56.8322639465332 109.52014923095703 61.5783576965332 115.1745376586914" stroke-width="0.0" fill="rgb(0, 167, 209)" opacity="0.99999434" stroke="rgb(134, 188, 108)" stroke-opacity="0.49164936" stroke-linecap="round" stroke-linejoin="round"/>
    <path d="M 173.69337463378906 106.52922821044922 C 176.5527801513672 109.35564422607422 178.29513549804688 111.98479461669922 178.80450439453125 113.60677337646484 C 178.53565979003906 113.77159118652344 178.03794860839844 113.9036636352539 178.74806213378906 115.07684326171875 C 180.65965270996094 116.75487518310547 182.2795867919922 118.55040740966797 183.65069580078125 120.58397674560547 C 184.08453369140625 121.99871063232422 184.09498596191406 122.53634643554688 184.18968200683594 122.6634750366211 C 183.50790405273438 120.08261108398438 181.59364318847656 117.60667419433594 179.287841796875 115.51170349121094 C 178.53143310546875 114.85275268554688 178.8236846923828 115.59414672851562 180.438720703125 117.7424545288086 C 182.115234375 121.10179901123047 183.3260498046875 124.68572998046875 184.0518341064453 128.0052490234375 C 183.8779754638672 130.81866455078125 183.18089294433594 132.52308654785156 181.65711975097656 133.04808044433594 C 179.39393615722656 133.4385986328125 177.00933837890625 133.89630126953125 174.9194793701172 134.3001708984375 C 173.16668701171875 134.6103973388672 171.8596954345703 134.85012817382812 171.2434844970703 134.95350646972656 C 170.83290100097656 134.87403869628906 170.64230346679688 134.45639038085938 170.89334106445312 133.56283569335938 C 171.25927734375 132.21536254882812 171.6016387939453 130.6905059814453 171.79586791992188 129.25550842285156 C 171.90740966796875 128.0792999267578 171.8785400390625 127.26567840576172 171.7191162109375 126.85200500488281 C 171.51467895507812 126.79911041259766 171.3501434326172 126.92993927001953 171.25656127929688 126.92900085449219 C 171.2703094482422 126.54115295410156 171.46420288085938 125.66205596923828 171.8308563232422 124.25828552246094 C 172.2689208984375 122.41751098632812 172.47238159179688 120.3959732055664 172.50387573242188 118.60323333740234 C 172.68533325195312 117.1758804321289 172.67698669433594 116.19066619873047 172.7175750732422 115.62571716308594 C 172.72267150878906 115.6368179321289 172.56588745117188 115.96875 172.4966583251953 116.3856201171875 C 172.86358642578125 116.88465118408203 173.14569091796875 117.53582000732422 173.53460693359375 117.81583404541016 C 173.5308380126953 117.8786392211914 173.29124450683594 117.87886047363281 173.69337463378906 106.52922821044922" stroke-width="0.0" fill="rgb(139, 209, 94)" opacity="1.0" stroke="rgb(138, 218, 143)" stroke-opacity="0.73722446" stroke-linecap="round" stroke-linejoin="round"/>
  </g>
</svg>
