<?xml version="1.0" ?>
<svg xmlns="http://www.w3.org/2000/svg" version="1.1" width="438" height="481">
  <defs/>
  <g>
    <path d="M 264.98388671875 69.88516998291016 C 272.40850830078125 69.8117904663086 279.4504089355469 70.45640563964844 286.67620849609375 71.57281494140625 C 294.7005310058594 72.54098510742188 303.7976379394531 74.08837127685547 314.2803955078125 76.60945129394531 C 326.4241943359375 79.5284194946289 339.550537109375 83.91290283203125 354.0661315917969 89.47030639648438 C 368.6725769042969 98.50191497802734 384.0038146972656 108.6258316040039 400.28472900390625 119.35417938232422 C 415.4208068847656 130.538818359375 428.47052001953125 142.14552307128906 437.7265319824219 154.4330291748047 C 439.5186462402344 167.6304473876953 435.5677795410156 179.9114990234375 426.86163330078125 190.957763671875 C 416.0415954589844 200.3402862548828 403.314697265625 206.9221649169922 390.64569091796875 211.11053466796875 C 379.3958740234375 215.96446228027344 369.1995544433594 220.66087341308594 360.64678955078125 226.3407440185547 C 353.30352783203125 233.1463623046875 346.302978515625 240.9485321044922 340.11468505859375 250.20143127441406 C 335.7680358886719 262.35406494140625 332.08160400390625 276.5221252441406 327.30499267578125 291.6747131347656 C 320.9403381347656 307.8787536621094 312.1893005371094 322.9945373535156 301.91510009765625 338.8077392578125 C 291.09796142578125 354.792236328125 280.1535949707031 368.92230224609375 271.1044616699219 382.805419921875 C 264.41790771484375 395.4768371582031 258.33209228515625 404.80780029296875 252.42373657226562 411.4896240234375 C 248.10122680664062 416.7283630371094 244.82125854492188 421.5039978027344 243.15390014648438 426.7773742675781 C 242.1791534423828 432.79034423828125 240.6959991455078 439.4388427734375 238.1997833251953 445.7981872558594 C 234.72174072265625 450.17431640625 230.79393005371094 451.9887390136719 227.31881713867188 449.49835205078125 C 223.6656036376953 442.3310546875 220.9898681640625 431.8951416015625 219.84115600585938 418.740966796875 C 218.1573944091797 403.9445495605469 215.2496337890625 388.717529296875 213.47828674316406 373.9710388183594 C 208.5832061767578 362.2187805175781 204.7825469970703 353.6079406738281 208.2790985107422 347.2603454589844 C 219.49188232421875 341.2930603027344 235.48692321777344 336.71759033203125 252.8081512451172 331.6942138671875 C 267.2698669433594 324.985595703125 275.9779968261719 318.1929016113281 276.6247253417969 312.4252624511719 C 268.8949279785156 311.9875793457031 255.84178161621094 314.2616882324219 239.3191680908203 316.94219970703125 C 222.30699157714844 319.169921875 207.39224243164062 321.3345031738281 195.2686309814453 324.41656494140625 C 188.34727478027344 331.5151062011719 183.95968627929688 340.2358093261719 178.0353240966797 346.8074645996094 C 167.5915985107422 347.94256591796875 156.0708770751953 347.4356994628906 145.58702087402344 349.7652587890625 C 138.18919372558594 358.313232421875 134.63458251953125 369.3727111816406 135.199951171875 381.3803405761719 C 139.51686096191406 392.580322265625 141.4063720703125 403.2942199707031 138.83448791503906 414.88836669921875 C 136.37245178222656 428.3011474609375 133.56304931640625 442.7388610839844 131.9408721923828 457.7662658691406 C 130.3321533203125 471.512451171875 122.55525970458984 482.5964050292969 111.34141540527344 490.4351501464844 C 96.92953491210938 495.3656921386719 80.25196838378906 497.2655334472656 62.495296478271484 496.2864685058594 C 44.75352478027344 492.85101318359375 28.269624710083008 487.46759033203125 14.487547874450684 480.3125 C 4.461427211761475 472.30029296875 -0.4556947350502014 463.6592102050781 0.11834391951560974 455.114013671875 C 5.34188985824585 447.0942687988281 13.82675838470459 440.31829833984375 23.936140060424805 435.3613586425781 C 33.57510757446289 431.6210632324219 40.037776947021484 428.3426818847656 41.96957015991211 424.4778137207031 C 38.16840362548828 421.0992126464844 30.391563415527344 417.1103820800781 21.149288177490234 412.1574401855469 C 13.137378692626953 406.9847106933594 8.643141746520996 402.2425537109375 8.686161994934082 397.9390869140625 C 13.1906156539917 394.6242980957031 21.439655303955078 391.8913269042969 32.37495803833008 389.6671447753906 C 44.3458366394043 386.77813720703125 55.69420623779297 383.3729248046875 65.5499038696289 379.67144775390625 C 72.6703872680664 372.72210693359375 77.68350982666016 365.56097412109375 81.26423645019531 358.0164489746094 C 84.69046020507812 352.0771789550781 85.65695190429688 347.7301940917969 82.0750732421875 345.6694030761719 C 73.59052276611328 345.37579345703125 61.33305740356445 347.1549377441406 46.27840042114258 349.7607116699219 C 31.080583572387695 354.7301025390625 17.074857711791992 358.99267578125 5.394225597381592 361.5780944824219 C -1.85527765750885 358.171875 -5.552870273590088 350.0659484863281 -6.678184986114502 338.06939697265625 C -6.752277851104736 323.1544494628906 -6.174145698547363 306.4339904785156 -5.346114158630371 288.81036376953125 C -4.403865337371826 271.35455322265625 -2.8335649967193604 254.4920196533203 -0.2703759968280792 238.70816040039062 C 4.807846546173096 224.9636688232422 11.84033203125 213.0681610107422 21.238067626953125 203.94972229003906 C 33.08858108520508 198.26437377929688 47.04850387573242 194.83258056640625 61.55192184448242 190.8528289794922 C 75.94405364990234 184.1477813720703 88.08206176757812 173.9757080078125 97.47160339355469 160.24539184570312 C 103.29600524902344 143.98519897460938 106.98538208007812 127.51676940917969 111.38810729980469 113.41000366210938 C 115.11967468261719 103.0408935546875 118.19554901123047 98.05897521972656 119.59052276611328 99.74024200439453 C 117.02825927734375 106.97270202636719 113.25048065185547 117.62627410888672 110.99343872070312 130.1848907470703 C 111.80770111083984 142.7117156982422 115.90474700927734 153.02310180664062 123.64808654785156 159.26170349121094 C 134.80206298828125 159.73439025878906 147.8873748779297 155.5786590576172 162.27369689941406 148.29701232910156 C 175.6925506591797 138.107421875 188.20628356933594 127.19463348388672 202.1607208251953 119.97168731689453 C 218.89419555664062 117.72157287597656 236.0529022216797 115.04529571533203 252.5449676513672 110.28494262695312 C 267.9683837890625 102.6319580078125 281.3575134277344 95.58345794677734 292.3132629394531 90.56671905517578 C 301.1253356933594 88.516357421875 307.0728759765625 88.12345123291016 309.828369140625 88.70734405517578 C 309.1338806152344 89.67903137207031 306.0076599121094 89.9919662475586 301.61309814453125 89.45655822753906 C 296.9436340332031 88.16776275634766 293.3190612792969 85.77767944335938 291.72137451171875 82.76453399658203 C 292.65155029296875 79.5412826538086 294.2325439453125 76.37437438964844 264.98388671875 69.88516998291016" stroke-width="0.0" fill="rgb(4, 2, 8)" opacity="0.9999958" stroke="rgb(32, 147, 179)" stroke-opacity="0.020377828" stroke-linecap="round" stroke-linejoin="round"/>
    <path d="M 439.0428161621094 290.93817138671875 C 440.153076171875 292.5519714355469 440.8374328613281 293.6867370605469 441.4261474609375 294.8466796875 C 441.9063415527344 296.06683349609375 442.2986145019531 297.10955810546875 442.64349365234375 298.090576171875 C 442.97222900390625 299.1609191894531 443.2699890136719 300.1306457519531 443.5233459472656 301.043212890625 C 443.7654724121094 302.0711669921875 444.0170593261719 303.16650390625 444.21484375 304.2149658203125 C 444.3873291015625 305.1742858886719 444.5382080078125 306.15435791015625 444.66796875 306.997314453125 C 444.88128662109375 307.66705322265625 445.0041809082031 308.3607482910156 445.0569152832031 309.085205078125 C 445.2524108886719 309.87542724609375 445.5179443359375 311.07464599609375 445.5674133300781 312.9624328613281 C 445.6694641113281 315.1954345703125 446.0445861816406 318.03814697265625 446.22650146484375 321.9277038574219 C 446.13421630859375 326.7231140136719 446.2524108886719 332.0400695800781 446.50933837890625 338.0745849609375 C 446.6072998046875 344.7480163574219 446.5126953125 351.8280029296875 446.3365783691406 359.14129638671875 C 446.2339172363281 366.53521728515625 446.11602783203125 373.81536865234375 445.7782897949219 381.0643615722656 C 445.3904113769531 388.1460876464844 445.2974548339844 395.09161376953125 445.3348388671875 401.88677978515625 C 445.3854064941406 408.7343444824219 445.6451110839844 415.70330810546875 446.02276611328125 422.78271484375 C 446.34625244140625 430.1634216308594 446.304443359375 437.5775451660156 445.9749755859375 445.0533142089844 C 445.20989990234375 452.8614196777344 443.6717834472656 460.4414978027344 441.58697509765625 467.6711730957031 C 438.6329345703125 474.48492431640625 434.3690185546875 479.4390563964844 429.1502990722656 482.4668273925781 C 423.2879943847656 483.36053466796875 417.8853759765625 481.8607482910156 412.7931823730469 478.0565490722656 C 409.88134765625 471.1394348144531 409.27197265625 462.7375183105469 409.47955322265625 454.01141357421875 C 410.983642578125 446.1683654785156 409.1193542480469 440.7720947265625 405.18463134765625 438.4417724609375 C 401.4183654785156 438.8685302734375 398.8887023925781 442.7517395019531 398.1850891113281 449.5055847167969 C 397.8214111328125 457.4373474121094 398.080810546875 465.7953186035156 397.968994140625 473.6884460449219 C 395.1474304199219 479.4172668457031 390.5589294433594 483.43914794921875 384.69366455078125 485.83837890625 C 377.95269775390625 487.1050109863281 370.94744873046875 487.54119873046875 363.51910400390625 487.5310974121094 C 355.9417419433594 487.464599609375 348.59698486328125 487.46533203125 341.2311706542969 487.38323974609375 C 333.8155212402344 487.33026123046875 326.6901550292969 487.4241027832031 319.7376403808594 487.62139892578125 C 312.8218078613281 487.74444580078125 306.03143310546875 487.7500915527344 299.1794128417969 487.699462890625 C 292.2662048339844 487.5579833984375 285.3122253417969 487.37335205078125 278.30108642578125 487.251220703125 C 271.2508544921875 487.2547607421875 264.1163330078125 487.3768615722656 256.6199951171875 487.5848388671875 C 249.03407287597656 487.86676025390625 241.40907287597656 488.199462890625 233.59446716308594 488.252197265625 C 225.86375427246094 487.6526184082031 218.9656219482422 486.2777404785156 212.9365692138672 484.0977783203125 C 208.09169006347656 480.7633972167969 206.18797302246094 475.63385009765625 207.11865234375 469.40704345703125 C 208.6725311279297 462.4445495605469 210.3606719970703 455.7944030761719 211.79078674316406 450.342041015625 C 213.93492126464844 447.4068603515625 216.49844360351562 447.1714172363281 219.1722869873047 450.0477600097656 C 221.70494079589844 456.04071044921875 225.01966857910156 462.980712890625 229.4131317138672 469.6645812988281 C 234.7244415283203 474.4808654785156 241.53512573242188 475.5644836425781 248.4612579345703 473.1740417480469 C 254.76771545410156 470.141845703125 259.1016540527344 464.5367126464844 260.23797607421875 456.8409423828125 C 261.0812683105469 448.9610290527344 260.0841064453125 441.2479248046875 258.4529724121094 434.4143371582031 C 259.1527099609375 429.1489562988281 260.2368469238281 425.29058837890625 261.564697265625 422.27423095703125 C 263.34552001953125 420.5084533691406 266.6336364746094 419.1506652832031 271.6141357421875 418.0069580078125 C 277.77777099609375 416.9365539550781 284.6553955078125 415.7591247558594 291.48419189453125 414.58575439453125 C 298.0341491699219 413.3520202636719 303.6559143066406 412.00848388671875 307.62237548828125 410.5921630859375 C 309.7208251953125 409.0583190917969 310.6293029785156 407.24639892578125 310.54193115234375 405.22650146484375 C 310.4974670410156 403.0847473144531 311.1717224121094 401.134033203125 313.4503479003906 399.0565185546875 C 317.33087158203125 397.6181335449219 322.4759216308594 396.7311096191406 328.44451904296875 396.4605712890625 C 334.6132507324219 396.4518127441406 340.3371887207031 396.9902038574219 344.5649108886719 397.93994140625 C 347.66162109375 399.31024169921875 349.65960693359375 401.373291015625 350.80413818359375 404.0768737792969 C 351.6579895019531 407.2127380371094 352.6899719238281 411.0879211425781 354.18658447265625 415.0624694824219 C 355.7916564941406 418.95330810546875 358.1219482421875 421.76708984375 360.671875 422.9936828613281 C 363.305419921875 421.9601745605469 365.9833068847656 418.9908752441406 369.2109680175781 415.31646728515625 C 373.5938720703125 412.09588623046875 378.48126220703125 409.3530578613281 383.9393615722656 407.228759765625 C 390.05279541015625 405.545166015625 396.1552734375 403.7823486328125 402.2967224121094 401.4062805175781 C 408.1889953613281 398.2603454589844 413.454833984375 394.2095947265625 418.0098571777344 389.1002197265625 C 421.77557373046875 382.9386291503906 424.5295104980469 376.1946716308594 426.00933837890625 369.3983154296875 C 426.8440856933594 363.2852783203125 426.7773742675781 358.35223388671875 425.6794128417969 354.65679931640625 C 423.6888427734375 352.2569580078125 421.2074279785156 350.7557067871094 418.4052734375 349.1862487792969 C 415.767822265625 346.97491455078125 413.65087890625 343.9542236328125 412.407958984375 339.9731140136719 C 412.85272216796875 334.8689880371094 414.4401550292969 329.1129455566406 416.3830261230469 322.9455261230469 C 419.0205383300781 316.6246337890625 421.9952392578125 310.9159851074219 424.8771057128906 306.5184326171875 C 427.9101867675781 303.1679992675781 430.8072204589844 300.6850891113281 433.3615417480469 298.96636962890625 C 435.4484558105469 297.56524658203125 437.2525329589844 296.0564270019531 439.0428161621094 290.93817138671875" stroke-width="0.0" fill="rgb(72, 128, 93)" opacity="0.99976414" stroke="rgb(148, 237, 218)" stroke-opacity="0.09554641" stroke-linecap="round" stroke-linejoin="round"/>
    <path d="M 2.4417314529418945 -0.49693563580513 C 2.8191375732421875 -0.3948853611946106 3.157419443130493 -0.31724825501441956 3.3496339321136475 -0.31239601969718933 C 3.4521448612213135 -0.2578083872795105 3.663646936416626 -0.0471532866358757 3.993407726287842 0.05624604597687721 C 5.315243721008301 -0.1544632464647293 8.08849048614502 -0.11323636770248413 12.73200798034668 -0.06806707382202148 C 19.953432083129883 -0.12342901527881622 29.40993881225586 -0.10247806459665298 41.067264556884766 -0.14390097558498383 C 54.7447624206543 -0.04164394736289978 69.80025482177734 -0.2429700642824173 85.65211486816406 -0.1753784567117691 C 101.88449096679688 -0.19627752900123596 117.98088073730469 -0.12733855843544006 133.5126495361328 -0.11176507920026779 C 148.27113342285156 0.23228555917739868 162.36517333984375 0.5501365065574646 175.7455291748047 0.7719101905822754 C 188.42210388183594 1.5578588247299194 200.96746826171875 2.404611587524414 213.56817626953125 2.9320006370544434 C 226.16358947753906 3.8177247047424316 238.849853515625 4.487562656402588 251.724365234375 4.640523910522461 C 264.5301513671875 5.038312911987305 277.315673828125 4.940686225891113 290.3817138671875 4.159564971923828 C 304.0378723144531 2.839679479598999 318.3669128417969 1.172943115234375 333.5111083984375 -0.31773391366004944 C 349.4925842285156 -1.931648850440979 365.9222717285156 -3.2599687576293945 382.082763671875 -3.641010284423828 C 397.66448974609375 -2.9298903942108154 411.5410461425781 -0.7786325216293335 422.5916748046875 2.851379156112671 C 429.43084716796875 8.884475708007812 431.25677490234375 15.943033218383789 427.76873779296875 24.137392044067383 C 418.6515197753906 31.479442596435547 405.27545166015625 37.93960952758789 388.7575378417969 43.69664001464844 C 370.97772216796875 47.420440673828125 354.1427001953125 50.82687759399414 340.04986572265625 53.92029571533203 C 332.14044189453125 58.82610321044922 330.9014892578125 64.17779541015625 336.3444519042969 69.32232666015625 C 347.6585693359375 71.83313751220703 362.4226379394531 73.25548553466797 378.9964599609375 74.47206115722656 C 395.63848876953125 76.63982391357422 410.9256286621094 79.4189682006836 424.267333984375 84.5354232788086 C 433.82086181640625 91.72129821777344 439.8430480957031 99.91181945800781 442.171875 108.50112915039062 C 441.2242431640625 116.59785461425781 437.2442626953125 122.86172485351562 430.4701232910156 126.70299530029297 C 421.4649658203125 126.35311126708984 410.5108337402344 122.67664337158203 398.3148193359375 115.8156967163086 C 385.3794860839844 107.5423355102539 371.5986022949219 99.5091323852539 358.0564270019531 91.71495056152344 C 344.1125793457031 85.7492904663086 330.2307434082031 79.41477966308594 315.3822021484375 75.33015441894531 C 300.5967102050781 72.36578369140625 286.1561584472656 70.18071746826172 273.39599609375 68.68721771240234 C 263.25787353515625 67.11705780029297 256.70147705078125 66.35457611083984 254.09344482421875 66.1313247680664 C 255.58543395996094 66.69090270996094 260.4288024902344 68.32647705078125 267.92669677734375 71.2871322631836 C 276.2991638183594 75.75933074951172 285.2682189941406 80.47779083251953 294.0442199707031 84.86383819580078 C 301.8232116699219 87.93001556396484 307.834716796875 89.36892700195312 311.4910583496094 90.04517364501953 C 312.11798095703125 90.76986694335938 309.84954833984375 91.94952392578125 304.8879699707031 93.67442321777344 C 297.20269775390625 95.40254974365234 287.0259094238281 96.96662902832031 274.60955810546875 98.80701446533203 C 260.8522644042969 101.60357666015625 246.86798095703125 104.94056701660156 233.36187744140625 108.52716827392578 C 220.30010986328125 112.67974853515625 208.25436401367188 117.33948516845703 196.32664489746094 122.92384338378906 C 183.9335479736328 130.0262451171875 171.07925415039062 137.69967651367188 157.9480743408203 145.2888946533203 C 144.6300506591797 151.8684539794922 132.183349609375 156.4012908935547 121.21182250976562 157.80885314941406 C 112.81729125976562 155.68600463867188 107.53911590576172 150.3565216064453 105.83990478515625 142.08465576171875 C 107.4595947265625 131.7814178466797 112.35256958007812 120.6871566772461 119.8615493774414 109.83493041992188 C 128.74810791015625 99.84147644042969 138.35618591308594 90.64942169189453 147.48544311523438 82.50590515136719 C 154.849853515625 76.04415130615234 159.72120666503906 71.26582336425781 161.46533203125 68.17860412597656 C 159.81005859375 66.09400177001953 154.86851501464844 63.929969787597656 147.53025817871094 61.347049713134766 C 138.61978149414062 58.90863037109375 128.81983947753906 56.526222229003906 119.12486267089844 54.1854133605957 C 110.68668365478516 52.23472213745117 103.72029113769531 51.8321647644043 98.72714233398438 54.01342010498047 C 95.46493530273438 58.898067474365234 93.64169311523438 66.05902099609375 93.40286254882812 74.16168975830078 C 93.74269104003906 81.6810073852539 95.56993103027344 88.13903045654297 97.83307647705078 93.31177520751953 C 100.42115783691406 98.15724182128906 103.14582061767578 103.27062225341797 105.10617065429688 109.31903839111328 C 105.94441986083984 117.20344543457031 106.10462951660156 127.33815002441406 104.07787322998047 138.80322265625 C 99.21295928955078 150.62103271484375 90.91459655761719 161.7728729248047 80.01074981689453 171.42552185058594 C 66.88819122314453 179.87306213378906 53.02545166015625 187.68910217285156 39.8853645324707 195.14356994628906 C 28.553804397583008 202.49652099609375 19.709699630737305 209.7661590576172 12.520323753356934 217.2465057373047 C 7.177001953125 225.2984161376953 4.447068214416504 234.56077575683594 4.027102947235107 245.25428771972656 C 4.899720668792725 256.29669189453125 5.264557361602783 266.8283386230469 5.027521133422852 276.23858642578125 C 4.643664836883545 283.6769714355469 4.229581832885742 288.2198486328125 3.5641517639160156 289.18743896484375 C 3.0872232913970947 285.9711608886719 2.663252353668213 278.2068786621094 2.2338321208953857 266.6288146972656 C 1.6613681316375732 252.17013549804688 1.1120033264160156 235.97816467285156 0.3214053809642792 220.16404724121094 C 0.5357537269592285 205.56155395507812 1.1921316385269165 192.68441772460938 2.344899892807007 181.7191162109375 C 4.16618013381958 171.9026336669922 5.126989841461182 162.64169311523438 4.7880144119262695 153.51573181152344 C 3.6453232765197754 143.3908233642578 2.1287338733673096 132.4188690185547 0.4433637261390686 120.50704193115234 C -0.15432783961296082 107.16395568847656 -0.6593325138092041 92.67390441894531 -0.919070303440094 77.16558837890625 C -1.0939180850982666 61.201881408691406 -1.4782624244689941 44.947021484375 -1.8314813375473022 28.515682220458984 C -1.5771589279174805 12.306639671325684 -1.4073916673660278 -3.9428138732910156 2.4417314529418945 -0.49693563580513" stroke-width="0.0" fill="rgb(148, 211, 234)" opacity="0.9997457" stroke="rgb(65, 79, 73)" stroke-opacity="0.97658587" stroke-linecap="round" stroke-linejoin="round"/>
    <path d="M 446.7804870605469 171.9811553955078 C 446.8710021972656 179.8995361328125 446.9230651855469 187.60525512695312 446.97332763671875 195.25216674804688 C 447.0614929199219 203.0465545654297 447.2384948730469 210.85609436035156 447.44195556640625 218.6167755126953 C 447.5074768066406 226.5897979736328 447.4014892578125 234.70150756835938 447.2389831542969 243.12576293945312 C 447.0269470214844 251.7307586669922 446.421630859375 260.1872253417969 445.3002014160156 268.3531799316406 C 443.67864990234375 276.16259765625 441.589111328125 283.16796875 438.9632873535156 289.4585876464844 C 435.39349365234375 294.9060363769531 431.39837646484375 299.7687683105469 427.4427185058594 304.2466125488281 C 423.9281921386719 308.6885070800781 421.51898193359375 313.37225341796875 420.2344055175781 317.938232421875 C 419.03466796875 322.3526916503906 419.09686279296875 326.1366271972656 419.6102600097656 329.0139465332031 C 422.15118408203125 330.6480407714844 425.6712646484375 331.528564453125 429.3123779296875 331.79290771484375 C 432.3586730957031 331.5199890136719 434.4914245605469 331.4662170410156 435.5823059082031 332.3719787597656 C 436.022216796875 334.7275695800781 435.7774658203125 338.705810546875 435.3852844238281 344.2274169921875 C 434.70550537109375 351.2549743652344 433.98297119140625 359.50933837890625 433.2511901855469 368.2486877441406 C 432.41339111328125 376.73651123046875 431.3427429199219 384.8410949707031 430.375732421875 392.40087890625 C 429.6352844238281 399.2945861816406 427.84722900390625 405.569091796875 425.6390686035156 411.4752502441406 C 424.3922424316406 417.0702819824219 422.8819274902344 422.1539611816406 421.7251281738281 426.5018615722656 C 421.14306640625 430.49835205078125 420.27618408203125 433.6330871582031 419.0516052246094 435.56170654296875 C 417.2980651855469 436.801513671875 414.14154052734375 437.0481262207031 409.5744934082031 436.0713806152344 C 403.56536865234375 434.7465515136719 396.32666015625 433.4288330078125 388.3596496582031 432.5001525878906 C 379.8036193847656 431.0778503417969 370.6215515136719 430.5093688964844 361.3326416015625 430.4211120605469 C 352.2984619140625 430.9613342285156 343.5072937011719 431.5268249511719 335.51947021484375 431.9766845703125 C 329.007080078125 432.2493896484375 324.71832275390625 431.9072570800781 322.78070068359375 432.461181640625 C 323.9078674316406 432.8863525390625 327.63568115234375 432.74951171875 333.53033447265625 432.6581726074219 C 341.4398498535156 432.5486755371094 350.7901611328125 431.4019470214844 360.8974914550781 431.2959899902344 C 371.24407958984375 430.9862060546875 381.15142822265625 430.3921203613281 390.1838073730469 430.43536376953125 C 397.27069091796875 429.3290710449219 401.81781005859375 427.66455078125 403.7906799316406 425.0849914550781 C 401.86993408203125 422.081298828125 397.3793029785156 419.46539306640625 391.09228515625 417.7705078125 C 384.2646179199219 417.1646423339844 377.96405029296875 417.4273376464844 373.85693359375 417.7216796875 C 372.20758056640625 417.7941589355469 373.2176208496094 417.0222473144531 376.8305358886719 415.578125 C 382.3945617675781 413.57269287109375 389.0898742675781 411.14453125 395.6182556152344 408.5964660644531 C 401.41510009765625 405.9603576660156 405.4453430175781 403.81488037109375 406.6750793457031 402.7247314453125 C 405.0046081542969 402.7066650390625 400.71160888671875 403.8587341308594 394.3740539550781 405.57452392578125 C 387.15234375 407.6844177246094 380.405029296875 408.7507019042969 375.4886779785156 408.5789794921875 C 373.1809387207031 406.7804870605469 374.11773681640625 402.7230224609375 378.28515625 396.81951904296875 C 384.49041748046875 389.4489440917969 391.56353759765625 380.71002197265625 399.2950439453125 371.7342224121094 C 407.24139404296875 364.2518005371094 411.53607177734375 357.1385803222656 411.10595703125 351.3459167480469 C 407.41552734375 349.5709228515625 401.64276123046875 352.3538513183594 394.9618835449219 359.34552001953125 C 387.0696716308594 368.20965576171875 378.9681396484375 377.5592346191406 371.4957275390625 386.65484619140625 C 365.0386657714844 395.6131896972656 359.713623046875 403.91259765625 355.5328063964844 411.26593017578125 C 350.838134765625 416.71026611328125 346.2030944824219 421.13458251953125 340.97821044921875 424.0027160644531 C 334.91949462890625 425.9714660644531 328.2212829589844 426.7657470703125 321.0213623046875 426.7435302734375 C 313.33685302734375 426.3713073730469 305.2204284667969 425.435302734375 296.9986877441406 424.3442077636719 C 289.1371765136719 423.3918762207031 281.40045166015625 422.4552307128906 274.116943359375 421.4692687988281 C 267.40655517578125 420.8149108886719 261.37469482421875 420.1589660644531 256.0915222167969 419.8695373535156 C 251.9017333984375 419.4512023925781 249.2361602783203 418.5331115722656 247.6240997314453 417.2130432128906 C 248.23716735839844 415.5645446777344 250.33164978027344 413.50994873046875 252.650146484375 410.3338317871094 C 256.3670349121094 406.861083984375 259.9707946777344 402.52581787109375 263.46240234375 396.85589599609375 C 267.3546447753906 390.58453369140625 271.7166442871094 384.1622314453125 276.0227355957031 377.0670471191406 C 280.6503601074219 369.8612060546875 285.8133544921875 362.50543212890625 290.9652099609375 354.76605224609375 C 296.3033447265625 347.1075744628906 301.2840270996094 339.5857238769531 305.6632080078125 332.4469299316406 C 310.1700744628906 325.0912170410156 314.6159362792969 318.3418273925781 318.94268798828125 311.0729675292969 C 322.56640625 303.99749755859375 325.4297790527344 296.4918518066406 327.9407653808594 289.07574462890625 C 330.760986328125 281.4379577636719 333.0810852050781 273.5164489746094 334.29071044921875 265.0662841796875 C 335.4440612792969 256.7250671386719 335.5628967285156 249.2200469970703 337.20001220703125 242.46701049804688 C 340.8134460449219 239.15365600585938 345.3047180175781 237.74539184570312 349.7882080078125 237.23463439941406 C 353.0986633300781 235.15335083007812 355.8792419433594 232.07504272460938 359.12261962890625 228.898681640625 C 362.4148864746094 225.23780822753906 366.109375 221.1186981201172 371.11297607421875 217.70681762695312 C 377.2996520996094 214.69619750976562 383.7697448730469 210.99761962890625 390.6865234375 207.47247314453125 C 398.09735107421875 204.89511108398438 406.0252685546875 203.87606811523438 413.3687744140625 201.76248168945312 C 419.68658447265625 196.94235229492188 426.1091613769531 192.2274627685547 432.3409729003906 187.07762145996094 C 438.94281005859375 182.17794799804688 445.5610046386719 177.4400634765625 446.7804870605469 171.9811553955078" stroke-width="0.0" fill="rgb(153, 213, 236)" opacity="0.999746" stroke="rgb(143, 4, 170)" stroke-opacity="0.42014682" stroke-linecap="round" stroke-linejoin="round"/>
    <path d="M 266.7886962890625 200.90264892578125 C 267.14483642578125 200.46145629882812 267.3543701171875 200.14825439453125 267.66497802734375 199.8257293701172 C 268.06817626953125 200.06674194335938 268.70355224609375 200.57655334472656 269.4537048339844 201.34439086914062 C 269.8059997558594 202.85862731933594 270.59796142578125 204.59750366210938 271.3335876464844 206.7172393798828 C 272.0785827636719 208.8505859375 273.2003173828125 210.95330810546875 274.43017578125 213.11349487304688 C 275.2296142578125 215.4093017578125 276.616943359375 217.5850372314453 277.6500549316406 219.56930541992188 C 278.6539306640625 221.74354553222656 279.3830871582031 223.50914001464844 280.4767150878906 225.0388946533203 C 281.21990966796875 226.80519104003906 281.94073486328125 228.27767944335938 282.8782653808594 229.67575073242188 C 283.72705078125 231.20272827148438 284.38970947265625 232.54443359375 285.4615173339844 234.17063903808594 C 285.8941650390625 236.28024291992188 286.6918640136719 238.41653442382812 287.60406494140625 240.32586669921875 C 288.3034973144531 242.75949096679688 288.95440673828125 244.83224487304688 289.7248229980469 246.74998474121094 C 290.1650695800781 248.71302795410156 290.4314880371094 250.59288024902344 291.22149658203125 251.956298828125 C 291.5758361816406 253.91998291015625 291.9772644042969 255.96717834472656 292.5390625 257.8196716308594 C 292.8336486816406 259.9281005859375 293.22613525390625 261.9981689453125 293.5256652832031 264.0500183105469 C 293.8564758300781 266.2899475097656 294.0335693359375 268.5883483886719 294.12579345703125 270.86810302734375 C 294.0103454589844 273.2241516113281 294.1339416503906 275.9023132324219 294.3895568847656 278.6347961425781 C 294.5035705566406 281.0467834472656 294.6954040527344 283.7505187988281 294.6767883300781 286.3857727050781 C 294.7520751953125 288.6134948730469 294.34564208984375 290.71173095703125 293.4884033203125 292.6842956542969 C 292.617431640625 294.36383056640625 291.90582275390625 296.275634765625 291.0752258300781 298.56658935546875 C 289.61322021484375 300.82568359375 288.171875 302.99249267578125 286.68389892578125 305.2109680175781 C 285.2686767578125 307.68463134765625 283.7025146484375 309.58160400390625 282.1873779296875 311.3193054199219 C 280.84149169921875 313.1938781738281 279.56378173828125 314.24432373046875 278.2575378417969 315.2147216796875 C 276.7822265625 313.6825866699219 275.31201171875 312.7532043457031 273.58465576171875 312.21099853515625 C 271.4700927734375 311.9699401855469 269.67742919921875 312.10064697265625 267.5957946777344 312.1715393066406 C 265.8628845214844 312.0531005859375 264.0779724121094 312.4454650878906 262.5914611816406 312.7571716308594 C 261.352783203125 312.8504943847656 260.5826416015625 313.371826171875 259.9637145996094 314.1040344238281 C 259.3914489746094 314.5404968261719 259.0116882324219 315.43255615234375 258.4825439453125 316.1452941894531 C 257.5397033691406 316.95184326171875 256.3714599609375 317.60394287109375 254.7159423828125 318.47747802734375 C 252.8931427001953 319.1271057128906 251.17921447753906 320.01953125 248.98306274414062 320.7330627441406 C 246.59262084960938 321.2558898925781 244.32374572753906 322.0635681152344 242.2583770751953 322.5577697753906 C 240.25962829589844 323.4956970214844 237.7739715576172 323.7687072753906 235.38442993164062 324.4889831542969 C 233.08859252929688 324.9719543457031 230.78256225585938 325.46099853515625 228.27352905273438 325.9923400878906 C 225.76019287109375 326.0584411621094 223.45510864257812 326.08575439453125 221.11245727539062 326.2485046386719 C 218.7362518310547 325.9068298339844 216.81932067871094 325.70233154296875 214.84510803222656 325.8130798339844 C 213.01113891601562 326.22686767578125 211.17800903320312 326.4950256347656 209.33901977539062 326.81976318359375 C 207.83888244628906 326.0351257324219 206.70281982421875 325.35467529296875 206.2477264404297 324.2068786621094 C 206.49072265625 323.189697265625 206.9141387939453 322.1357116699219 207.59555053710938 321.2976989746094 C 208.13458251953125 320.7848815917969 208.1376495361328 320.2570495605469 207.7823486328125 319.7109375 C 206.81678771972656 319.148681640625 205.6198272705078 318.7362365722656 204.05126953125 318.51153564453125 C 202.85336303710938 317.3280334472656 201.56600952148438 316.48834228515625 200.58840942382812 315.4770812988281 C 200.06393432617188 314.5614318847656 199.19664001464844 313.3155822753906 198.3665313720703 312.065185546875 C 198.39376831054688 310.4859313964844 198.04917907714844 308.87933349609375 197.23939514160156 307.3315124511719 C 196.78671264648438 305.61810302734375 196.08502197265625 303.6009216308594 195.2838134765625 301.5157470703125 C 194.26382446289062 299.4414367675781 193.42726135253906 297.1467590332031 192.30880737304688 294.6640625 C 191.60182189941406 292.2723693847656 191.14024353027344 290.0372619628906 190.5990447998047 287.9008483886719 C 190.56063842773438 285.86834716796875 190.93618774414062 284.1512756347656 190.9237518310547 282.42108154296875 C 191.64041137695312 280.9112243652344 192.56654357910156 279.2522277832031 193.25946044921875 277.4510803222656 C 194.2388153076172 275.4606628417969 195.31130981445312 273.6083068847656 196.56692504882812 271.5028381347656 C 197.9307861328125 269.8031311035156 199.61708068847656 267.92510986328125 200.97512817382812 265.75067138671875 C 202.67417907714844 264.01702880859375 204.35646057128906 262.1316833496094 205.82861328125 260.1896667480469 C 207.5102996826172 258.1820373535156 209.16522216796875 256.2445068359375 211.0908966064453 253.799072265625 C 212.98934936523438 252.2965545654297 214.9065704345703 250.0352325439453 216.703369140625 247.91001892089844 C 218.6255645751953 245.88389587402344 220.5212860107422 243.6326141357422 222.15130615234375 241.50535583496094 C 224.4088897705078 239.88987731933594 226.27224731445312 237.9019775390625 227.82843017578125 235.91415405273438 C 229.8617706298828 234.0883026123047 231.78465270996094 232.1358184814453 233.80657958984375 230.36154174804688 C 235.9298858642578 228.9518280029297 238.1468505859375 227.39794921875 240.2288360595703 226.2002410888672 C 242.14532470703125 224.85617065429688 244.09104919433594 223.40652465820312 245.54440307617188 221.3124542236328 C 247.8250732421875 219.69676208496094 249.92755126953125 218.10501098632812 252.1619873046875 215.93026733398438 C 254.59811401367188 213.93154907226562 256.5682373046875 211.8645477294922 258.35491943359375 209.61460876464844 C 260.1961364746094 207.64369201660156 261.6680908203125 205.57029724121094 263.2060546875 203.3192596435547 C 264.9804382324219 201.06936645507812 266.48248291015625 199.00033569335938 266.7886962890625 200.90264892578125" stroke-width="0.0" fill="rgb(106, 113, 117)" opacity="0.99975276" stroke="rgb(93, 218, 172)" stroke-opacity="0.64346695" stroke-linecap="round" stroke-linejoin="round"/>
    <path d="M 98.07862091064453 36.544822692871094 C 98.09972381591797 37.13324737548828 98.2704086303711 37.608123779296875 98.738037109375 37.97623825073242 C 99.0843505859375 38.57734298706055 99.63784790039062 39.306514739990234 100.16188049316406 39.93482971191406 C 100.74197387695312 40.85940170288086 101.1309585571289 41.875553131103516 101.08743286132812 42.975894927978516 C 100.8703842163086 44.188228607177734 100.7748794555664 45.41661834716797 100.97626495361328 46.780399322509766 C 101.50340270996094 48.401123046875 103.05715942382812 50.04169845581055 105.73838806152344 51.804386138916016 C 109.85289764404297 52.86378479003906 115.25467681884766 54.08945083618164 121.48223114013672 54.9865837097168 C 128.09158325195312 56.014991760253906 134.71441650390625 57.24155807495117 140.65829467773438 58.53746032714844 C 145.8473663330078 60.0830078125 150.38385009765625 61.91046142578125 154.08338928222656 64.29096221923828 C 157.25685119628906 67.78754425048828 161.2568817138672 71.29042053222656 166.52593994140625 74.35565185546875 C 173.0715789794922 76.67289733886719 181.05621337890625 77.37840270996094 190.54039001464844 75.54332733154297 C 200.94491577148438 73.65869140625 212.1006622314453 71.59305572509766 223.82748413085938 69.60791778564453 C 235.65097045898438 68.6640625 247.2110595703125 68.61421966552734 258.3396301269531 69.27632904052734 C 268.3615417480469 71.03601837158203 277.0439453125 72.6418228149414 284.1832275390625 73.38968658447266 C 289.4300842285156 73.94837951660156 292.6246643066406 76.9878158569336 294.4662170410156 81.27576446533203 C 297.71112060546875 84.40669250488281 302.2062072753906 86.96027374267578 306.7054443359375 88.34136199951172 C 312.1383361816406 87.76856994628906 316.92803955078125 88.01778411865234 320.354736328125 88.73870849609375 C 320.5068664550781 90.22200012207031 317.7420349121094 91.68305206298828 312.159912109375 93.45858764648438 C 303.2939758300781 94.48908233642578 293.2768249511719 95.63739776611328 282.7957458496094 96.60332489013672 C 272.8167419433594 99.42552185058594 263.57025146484375 103.72406768798828 254.2985076904297 108.0980453491211 C 244.7154541015625 111.32068634033203 234.8291778564453 112.7745361328125 224.83621215820312 114.36736297607422 C 215.17236328125 115.2535400390625 207.95199584960938 117.21720123291016 203.3772430419922 120.40203094482422 C 204.03585815429688 125.83879852294922 208.37957763671875 133.02041625976562 215.05911254882812 141.4833526611328 C 222.51300048828125 150.7708282470703 229.15847778320312 160.34378051757812 233.78125 169.60971069335938 C 235.7874755859375 177.88856506347656 234.75184631347656 184.8817901611328 230.7042694091797 190.26712036132812 C 223.69589233398438 194.3817138671875 214.1925048828125 197.80360412597656 202.92176818847656 201.01959228515625 C 190.54672241210938 204.80686950683594 177.5458984375 209.47064208984375 164.6558380126953 215.32601928710938 C 152.5378875732422 221.82235717773438 141.47019958496094 228.1702880859375 131.69700622558594 233.1792449951172 C 123.10649108886719 236.15760803222656 115.65135192871094 235.9034881591797 109.7991714477539 232.37294006347656 C 105.10490417480469 225.9170379638672 101.59638214111328 217.28390502929688 99.77129364013672 207.4027557373047 C 100.03744506835938 197.4103240966797 102.59074401855469 187.93698120117188 107.76276397705078 179.57847595214844 C 115.29193878173828 172.56944274902344 124.75031280517578 166.99826049804688 135.9285430908203 162.39463806152344 C 147.7581329345703 158.27719116210938 159.23890686035156 154.03150939941406 169.50071716308594 149.1824188232422 C 177.8026580810547 144.13735961914062 183.49131774902344 139.35140991210938 185.94046020507812 135.5338134765625 C 185.1690216064453 133.87847900390625 181.53564453125 134.8068389892578 175.45877075195312 138.5576934814453 C 167.21771240234375 143.1811065673828 157.531005859375 148.9586639404297 146.7302703857422 154.88442993164062 C 135.14303588867188 158.86082458496094 124.29155731201172 161.42373657226562 114.29678344726562 161.9897003173828 C 107.64435577392578 158.5733642578125 104.6388168334961 152.2602081298828 105.26803588867188 143.40902709960938 C 107.68339538574219 132.98146057128906 110.56009674072266 122.26512908935547 114.54175567626953 112.33065032958984 C 118.38739013671875 105.58747100830078 118.9011459350586 102.13661193847656 115.90801239013672 103.53873443603516 C 111.01065826416016 108.68922424316406 106.92120361328125 115.65314483642578 104.12709045410156 124.14309692382812 C 102.94374084472656 133.49937438964844 102.3388900756836 143.5139617919922 101.24800109863281 153.71798706054688 C 97.99134826660156 162.85975646972656 92.47467803955078 170.90347290039062 84.3829574584961 177.450927734375 C 74.95143127441406 183.65208435058594 64.13813018798828 188.22096252441406 53.50364303588867 191.692138671875 C 43.64216995239258 193.97711181640625 35.3265266418457 196.9881591796875 30.299213409423828 202.43687438964844 C 26.242185592651367 209.1299285888672 22.7403564453125 214.84109497070312 19.0827693939209 220.30581665039062 C 17.391700744628906 226.3656463623047 16.218883514404297 233.9127197265625 15.285748481750488 242.7429656982422 C 14.290861129760742 252.700927734375 12.724977493286133 263.69390869140625 10.516422271728516 274.9297790527344 C 8.079483985900879 285.6518249511719 5.70156192779541 294.5991516113281 3.539309501647949 300.7505187988281 C 2.2367701530456543 303.18133544921875 1.411575436592102 301.2812805175781 1.1736353635787964 295.2156677246094 C 1.1582984924316406 285.9625244140625 1.0297130346298218 274.611083984375 0.7359357476234436 262.2666015625 C 0.14543576538562775 249.85598754882812 -0.8606442213058472 237.7515411376953 -1.1205805540084839 225.75143432617188 C -0.670242965221405 214.02952575683594 0.8362782001495361 202.94338989257812 4.002382278442383 192.54005432128906 C 9.211076736450195 182.72557067871094 16.242271423339844 172.8760223388672 24.909805297851562 163.1592254638672 C 34.509063720703125 153.7631378173828 44.623600006103516 144.6522979736328 54.82425308227539 136.38348388671875 C 64.61476135253906 129.38121032714844 73.6260986328125 123.15647888183594 81.38229370117188 117.86072540283203 C 87.37528991699219 113.05486297607422 91.6297836303711 108.27973175048828 94.56208801269531 104.50260162353516 C 96.52732849121094 101.47967529296875 97.71769714355469 98.78043365478516 98.3245620727539 96.15536499023438 C 98.14765167236328 93.17296600341797 97.52050018310547 89.506103515625 96.58740997314453 84.54978942871094 C 95.20023345947266 78.00032806396484 93.75270080566406 69.64827728271484 92.20173645019531 59.68042755126953 C 91.1616439819336 48.72931671142578 90.32542419433594 37.48967361450195 98.07862091064453 36.544822692871094" stroke-width="0.0" fill="rgb(184, 171, 194)" opacity="0.99975663" stroke="rgb(21, 145, 167)" stroke-opacity="0.5209323" stroke-linecap="round" stroke-linejoin="round"/>
    <path d="M 334.06976318359375 86.50022888183594 C 333.2557678222656 86.86554718017578 332.49847412109375 87.05138397216797 331.9893798828125 87.42086029052734 C 332.04736328125 87.77534484863281 332.8031921386719 87.88988494873047 334.4814758300781 88.20514678955078 C 336.9938659667969 88.8571548461914 340.7478332519531 89.83486938476562 345.47705078125 91.61454772949219 C 351.02471923828125 94.49616241455078 357.5325622558594 97.59551239013672 365.09332275390625 101.51605987548828 C 373.2364501953125 106.15592193603516 382.0281066894531 111.40752410888672 391.28466796875 116.76790618896484 C 400.5404968261719 122.58573150634766 409.3040466308594 129.95123291015625 417.40472412109375 136.71119689941406 C 424.0343017578125 143.25106811523438 428.8118591308594 149.2113494873047 431.3888244628906 154.25247192382812 C 430.51324462890625 158.22682189941406 427.508544921875 160.96112060546875 422.1459045410156 162.3797607421875 C 414.7807922363281 162.5836639404297 406.6028137207031 162.3032989501953 398.35052490234375 162.40451049804688 C 390.60772705078125 162.40455627441406 384.1759948730469 162.86611938476562 379.2898864746094 163.41722106933594 C 376.20196533203125 164.64349365234375 374.87872314453125 166.62515258789062 374.3660583496094 168.36949157714844 C 373.71710205078125 169.57003784179688 372.7361145019531 169.5987548828125 370.8791809082031 168.1488037109375 C 368.48748779296875 165.89761352539062 365.03375244140625 164.15512084960938 360.3424987792969 163.7968292236328 C 354.419677734375 163.71998596191406 347.44281005859375 164.62210083007812 339.5679626464844 166.3271026611328 C 331.049560546875 167.07150268554688 322.4869689941406 168.94676208496094 313.50152587890625 170.94842529296875 C 304.7624206542969 173.07505798339844 296.0535583496094 175.35386657714844 287.82177734375 178.1974639892578 C 279.87408447265625 180.52743530273438 272.6225280761719 182.78277587890625 266.74749755859375 185.4420928955078 C 262.1194763183594 187.95159912109375 259.38604736328125 190.8177490234375 258.46466064453125 194.1246795654297 C 257.5044860839844 196.2076416015625 256.4004821777344 197.00782775878906 254.35643005371094 196.54885864257812 C 251.9884796142578 194.5132293701172 248.7416229248047 193.1834716796875 244.3987579345703 193.11195373535156 C 239.02210998535156 193.55641174316406 232.77516174316406 194.9649658203125 226.13821411132812 197.08932495117188 C 219.08074951171875 199.16514587402344 211.6626739501953 201.4513397216797 203.59011840820312 203.79444885253906 C 195.1748809814453 206.4148712158203 186.53135681152344 209.58558654785156 177.71075439453125 213.14492797851562 C 168.64639282226562 216.8079833984375 160.2228546142578 221.04905700683594 151.37376403808594 225.1134490966797 C 143.04010009765625 229.42449951171875 135.65647888183594 233.81509399414062 128.9974822998047 238.10946655273438 C 122.48442840576172 241.55014038085938 117.143310546875 244.97886657714844 113.54684448242188 248.10324096679688 C 113.04838562011719 251.6162567138672 112.23185729980469 254.56814575195312 111.3573989868164 256.2678527832031 C 109.3255615234375 256.7216796875 106.55548095703125 256.31182861328125 102.9090805053711 255.35447692871094 C 98.37832641601562 255.80902099609375 93.09725189208984 257.4864501953125 87.10153198242188 259.62335205078125 C 79.89238739013672 262.35150146484375 72.033935546875 265.9774169921875 63.51226043701172 270.9013977050781 C 54.62559127807617 276.41778564453125 45.76225280761719 282.4413146972656 37.812583923339844 288.19012451171875 C 31.325176239013672 292.7399597167969 25.877458572387695 294.7555236816406 21.394445419311523 294.3797302246094 C 18.74149513244629 292.00885009765625 17.251495361328125 288.3331298828125 16.468629837036133 284.1531066894531 C 16.639484405517578 280.5732116699219 15.959660530090332 278.90887451171875 14.825260162353516 280.3441162109375 C 13.831430435180664 284.40093994140625 13.044496536254883 290.39434814453125 12.82391357421875 297.66741943359375 C 12.970841407775879 304.5877685546875 14.210445404052734 310.40704345703125 15.28010368347168 314.721435546875 C 14.083353042602539 316.9530029296875 12.498918533325195 317.25592041015625 10.135072708129883 316.19671630859375 C 7.777552127838135 314.0963134765625 5.625275135040283 311.27142333984375 3.406212568283081 308.3485412597656 C 1.746165156364441 304.86590576171875 0.42139580845832825 300.4720153808594 -0.5324182510375977 295.1200256347656 C -1.054278016090393 288.79052734375 -1.5098210573196411 281.3312683105469 -2.051637649536133 273.07427978515625 C -2.437917947769165 264.36004638671875 -2.413825511932373 255.38560485839844 -1.9479871988296509 246.6115264892578 C -0.35865190625190735 238.74026489257812 3.2624142169952393 232.0742950439453 8.637321472167969 227.38272094726562 C 14.37467098236084 223.3774871826172 20.673011779785156 220.31399536132812 26.684444427490234 217.5360870361328 C 31.568275451660156 213.9730987548828 35.67647933959961 210.3574981689453 39.08894729614258 206.75550842285156 C 42.526634216308594 203.8296661376953 46.61817169189453 201.06597900390625 51.30693435668945 198.0460205078125 C 57.133853912353516 195.3938446044922 63.714088439941406 192.32113647460938 70.55937957763672 188.74888610839844 C 77.46149444580078 184.69334411621094 84.36551666259766 181.0155029296875 90.08140563964844 177.57916259765625 C 95.06199645996094 174.72903442382812 99.11437225341797 172.26217651367188 102.75801086425781 170.193603515625 C 106.51836395263672 168.74530029296875 111.04194641113281 167.3567657470703 116.488037109375 165.97975158691406 C 123.13375091552734 164.6181182861328 131.03854370117188 162.8531494140625 139.73788452148438 160.1199493408203 C 148.86244201660156 157.2750244140625 158.0751495361328 153.13449096679688 167.03395080566406 148.28414916992188 C 175.28173828125 143.12493896484375 181.6900634765625 136.6990966796875 186.4223175048828 130.33106994628906 C 191.08766174316406 125.14342498779297 195.1960906982422 121.5098648071289 199.5045166015625 119.85900115966797 C 204.307861328125 120.8258056640625 209.3671875 121.69271850585938 214.91368103027344 121.64675903320312 C 220.89585876464844 122.09738159179688 227.55886840820312 121.48519134521484 234.43515014648438 119.56777954101562 C 241.77349853515625 117.24380493164062 249.69891357421875 114.34069061279297 257.595947265625 111.1604995727539 C 265.495849609375 108.87174224853516 272.84881591796875 107.01496887207031 279.87774658203125 105.8255386352539 C 285.96435546875 103.94287109375 291.63397216796875 102.03292846679688 297.4017639160156 99.6560287475586 C 303.6855773925781 97.72406768798828 310.29168701171875 95.79058837890625 317.3636169433594 93.9979019165039 C 324.8778991699219 92.44330596923828 332.48126220703125 91.12145233154297 334.06976318359375 86.50022888183594" stroke-width="0.0" fill="rgb(101, 42, 83)" opacity="0.9997448" stroke="rgb(159, 244, 155)" stroke-opacity="0.06990216" stroke-linecap="round" stroke-linejoin="round"/>
    <path d="M 34.20638656616211 379.8907165527344 C 36.55907440185547 382.6798095703125 38.3404541015625 385.0884094238281 39.59352493286133 387.3379821777344 C 39.94648361206055 389.663330078125 39.9046630859375 391.29156494140625 39.787479400634766 392.5207824707031 C 39.60273361206055 393.4873046875 39.56119918823242 394.0252990722656 39.659019470214844 393.8731384277344 C 39.73731231689453 392.9039611816406 39.77394485473633 391.4416198730469 39.7744140625 389.3187561035156 C 40.07889938354492 387.01593017578125 40.932559967041016 384.91607666015625 42.37936019897461 383.31317138671875 C 44.3521614074707 382.291259765625 46.7697639465332 381.813232421875 49.23692321777344 382.0040283203125 C 51.451324462890625 382.7843322753906 53.5031623840332 384.09991455078125 55.38634490966797 385.96929931640625 C 56.019981384277344 388.36822509765625 56.13564682006836 390.76605224609375 55.981109619140625 392.396484375 C 55.622825622558594 393.1744689941406 55.66272735595703 393.0199279785156 55.848846435546875 392.2347412109375 C 55.8495979309082 391.425537109375 55.90864944458008 390.85595703125 55.75377655029297 390.4577331542969 C 55.566158294677734 390.8226013183594 55.653289794921875 391.3129577636719 56.14469528198242 392.0770568847656 C 56.88249588012695 392.7052001953125 57.90803527832031 393.2886047363281 58.97569274902344 393.36578369140625 C 59.976497650146484 393.25518798828125 60.96958923339844 392.72412109375 62.032047271728516 392.02069091796875 C 63.149776458740234 391.46026611328125 64.1890640258789 391.2009582519531 65.22415924072266 391.40350341796875 C 65.93812561035156 392.1351013183594 65.97062683105469 393.47320556640625 65.90762329101562 394.8193359375 C 65.37602233886719 396.37823486328125 64.83787536621094 398.03656005859375 64.5099868774414 399.54681396484375 C 64.04368591308594 400.9515686035156 63.645809173583984 402.2659912109375 63.363075256347656 403.3907470703125 C 62.9703369140625 404.2357482910156 62.738712310791016 405.1834411621094 62.328338623046875 406.3370666503906 C 61.96709060668945 407.281494140625 61.513954162597656 408.8596496582031 60.95313262939453 410.42376708984375 C 60.472023010253906 411.7958068847656 59.943302154541016 413.2173767089844 59.40799331665039 414.5545349121094 C 59.053245544433594 415.6676330566406 58.742431640625 416.4667053222656 58.529937744140625 417.1026916503906 C 58.44634246826172 417.7897644042969 58.26516342163086 418.40850830078125 58.14952850341797 418.82720947265625 C 58.12872314453125 419.067138671875 57.90029525756836 419.46044921875 57.843040466308594 419.7177734375 C 57.853538513183594 420.15338134765625 57.94313049316406 420.7954406738281 57.94136428833008 421.719970703125 C 57.64784240722656 423.11126708984375 57.378536224365234 425.2400817871094 56.75831604003906 427.7972717285156 C 56.10789489746094 430.54681396484375 55.09503173828125 433.2137451171875 52.818565368652344 435.1988525390625 C 49.73116683959961 435.9462890625 46.21323013305664 435.2059326171875 42.74288558959961 433.1112365722656 C 40.586090087890625 429.8954162597656 39.95213317871094 426.5096435546875 40.306461334228516 423.6751403808594 C 40.84203338623047 422.0758056640625 41.63458251953125 421.2342529296875 42.35987091064453 420.9837646484375 C 42.7382698059082 421.1219177246094 42.37223815917969 421.41046142578125 41.413124084472656 421.74365234375 C 39.95565414428711 422.00396728515625 38.06291961669922 421.9189453125 36.059871673583984 421.7464294433594 C 33.999900817871094 421.1736755371094 31.955183029174805 420.4656066894531 30.443418502807617 419.40997314453125 C 29.46417236328125 418.49554443359375 28.757722854614258 417.5508728027344 28.352807998657227 417.07147216796875 C 28.318572998046875 416.76202392578125 28.453636169433594 416.8630065917969 28.623245239257812 417.34918212890625 C 28.82016944885254 417.8591613769531 28.837928771972656 418.6726989746094 28.61815071105957 419.4477844238281 C 27.94654083251953 420.26104736328125 26.863460540771484 420.9325256347656 25.58374786376953 421.22222900390625 C 24.542797088623047 421.1328125 23.317996978759766 421.05352783203125 22.317842483520508 421.0589599609375 C 21.438072204589844 421.4211730957031 20.572391510009766 421.92327880859375 19.806095123291016 422.6934814453125 C 18.877477645874023 423.3678283691406 17.944894790649414 424.0161437988281 17.02081298828125 424.46868896484375 C 15.852947235107422 424.4883117675781 14.64549446105957 424.0399475097656 13.4445161819458 423.1494140625 C 12.346375465393066 421.95855712890625 11.183995246887207 420.6250305175781 10.597979545593262 419.5752258300781 C 10.271256446838379 418.71173095703125 10.016555786132812 418.5184020996094 10.067914962768555 418.8984069824219 C 9.859542846679688 419.77099609375 9.475433349609375 420.9271240234375 8.697678565979004 422.1166687011719 C 7.57267951965332 422.9925537109375 6.395700454711914 423.44512939453125 4.975830078125 423.447998046875 C 3.646444320678711 423.0935974121094 2.4381587505340576 422.47723388671875 1.3159595727920532 421.5288391113281 C 0.5439324975013733 420.1051025390625 -0.0005199698498472571 418.71832275390625 -0.2860001027584076 417.428955078125 C -0.2856051027774811 415.9582214355469 -0.33199530839920044 414.75958251953125 -0.3696970045566559 413.9203186035156 C -0.2619369328022003 413.05389404296875 -0.15684987604618073 412.268310546875 -0.14177939295768738 411.6660461425781 C -0.11806438118219376 410.81195068359375 -0.0389041043817997 409.7797546386719 -0.03617427870631218 408.79559326171875 C 0.0830657035112381 407.8180847167969 -0.06474366784095764 406.7818908691406 0.07465582340955734 405.680419921875 C -0.1588544249534607 404.49072265625 -0.1101580560207367 403.29290771484375 -0.26289793848991394 402.0947570800781 C -0.45929720997810364 400.75482177734375 -0.4165268838405609 399.5503845214844 -0.16750897467136383 398.5669250488281 C 0.20843501389026642 397.7309265136719 0.9277968406677246 396.84381103515625 1.9100244045257568 396.214599609375 C 3.0752246379852295 395.8656311035156 4.394647121429443 395.5260009765625 5.836366176605225 395.1741638183594 C 7.1913957595825195 394.9407043457031 8.422215461730957 394.71368408203125 9.898231506347656 394.26177978515625 C 11.25731372833252 393.5618896484375 12.901494026184082 392.6361389160156 14.677953720092773 391.4045104980469 C 16.750761032104492 390.4364929199219 19.036842346191406 389.7342529296875 21.52574348449707 389.25048828125 C 23.784751892089844 389.4196472167969 25.981700897216797 389.8968200683594 27.552953720092773 390.4251403808594 C 28.747339248657227 390.91131591796875 29.536165237426758 391.2100524902344 29.557327270507812 390.96624755859375 C 29.721555709838867 390.5003356933594 29.380382537841797 389.53216552734375 34.20638656616211 379.8907165527344" stroke-width="0.0" fill="rgb(142, 175, 92)" opacity="1.0" stroke="rgb(85, 240, 51)" stroke-opacity="0.34333873" stroke-linecap="round" stroke-linejoin="round"/>
    <path d="M 179.6660614013672 385.44073486328125 C 177.09925842285156 387.637451171875 175.19105529785156 389.47705078125 174.3184051513672 391.0332946777344 C 175.07530212402344 392.1929016113281 176.61439514160156 393.2815856933594 177.7565155029297 394.84246826171875 C 177.80892944335938 397.01171875 177.1572723388672 399.03106689453125 176.5330810546875 400.6315002441406 C 176.3288116455078 401.9178771972656 176.40023803710938 402.6363830566406 176.81614685058594 402.6318054199219 C 177.31173706054688 402.4801940917969 177.53860473632812 402.39227294921875 177.7295684814453 401.8251037597656 C 178.10067749023438 401.28741455078125 178.56997680664062 400.8467102050781 178.98330688476562 400.32354736328125 C 179.6244354248047 399.7102966308594 180.17910766601562 398.9657897949219 180.6847381591797 398.0875244140625 C 181.46981811523438 396.9638977050781 182.64598083496094 395.3960266113281 183.81854248046875 393.6730041503906 C 185.07264709472656 392.22808837890625 186.30032348632812 391.7969970703125 187.36045837402344 393.0018615722656 C 187.29237365722656 395.19683837890625 186.64971923828125 397.72857666015625 185.7533721923828 400.27618408203125 C 184.8105926513672 402.5279541015625 184.24951171875 404.26513671875 183.8052520751953 405.4258117675781 C 183.28102111816406 406.26141357421875 182.8121795654297 406.80450439453125 182.64501953125 407.03619384765625 C 182.80148315429688 407.05670166015625 183.5638427734375 406.8142395019531 184.8466339111328 406.2344055175781 C 185.95068359375 405.6219177246094 186.84185791015625 405.1756896972656 187.345947265625 404.95208740234375 C 187.45050048828125 404.7696533203125 187.4831085205078 404.37750244140625 187.8057403564453 403.4085693359375 C 188.47837829589844 401.7911071777344 189.4345245361328 399.8712158203125 190.59861755371094 398.1226806640625 C 191.97596740722656 396.86761474609375 193.3110809326172 396.82904052734375 194.16127014160156 397.569580078125 C 194.12335205078125 399.1768493652344 193.65037536621094 400.87188720703125 193.20523071289062 402.496337890625 C 192.8716278076172 404.06878662109375 192.44989013671875 405.6768798828125 191.81793212890625 407.3664855957031 C 190.9359588623047 409.302001953125 190.0481414794922 411.0986633300781 189.44772338867188 412.78839111328125 C 188.87042236328125 414.1827697753906 188.4099578857422 415.0496520996094 188.20814514160156 415.6255187988281 C 188.09495544433594 415.98822021484375 187.7795867919922 416.44952392578125 187.67092895507812 417.2565612792969 C 187.07949829101562 418.2960205078125 186.59254455566406 419.3774108886719 186.33290100097656 420.5615539550781 C 185.95718383789062 421.4323425292969 185.70852661132812 422.1194152832031 185.5567626953125 422.7535095214844 C 185.14242553710938 423.0595397949219 184.86024475097656 423.4347839355469 184.70965576171875 424.1408996582031 C 184.27792358398438 425.0015869140625 183.86053466796875 425.9621276855469 183.4921875 427.1454162597656 C 182.8968963623047 428.4491271972656 182.51785278320312 429.7853088378906 181.8026885986328 431.10345458984375 C 181.2208251953125 432.4453430175781 180.8193817138672 433.6369934082031 180.3411407470703 434.5545654296875 C 180.1224365234375 435.4273986816406 179.56103515625 436.2437438964844 179.21153259277344 437.0517272949219 C 178.640625 438.1270446777344 178.17520141601562 439.3209228515625 177.38844299316406 440.6712951660156 C 176.8173065185547 442.1504211425781 176.00665283203125 443.601318359375 175.39642333984375 444.8158874511719 C 175.01840209960938 445.9283447265625 174.5328369140625 446.81475830078125 174.21041870117188 447.38189697265625 C 173.76722717285156 448.0011901855469 173.57957458496094 448.6929016113281 173.01356506347656 449.42828369140625 C 172.6149139404297 450.10504150390625 172.1280059814453 450.89300537109375 172.04336547851562 451.2212829589844 C 171.80535888671875 451.5039367675781 171.58392333984375 452.0538330078125 171.25267028808594 452.9081115722656 C 170.43597412109375 454.2060241699219 169.5375518798828 456.0464782714844 168.29173278808594 457.9028625488281 C 167.4240264892578 459.4124755859375 166.82835388183594 460.5263977050781 166.56466674804688 461.2970275878906 C 165.90745544433594 462.0121154785156 165.29408264160156 462.8471984863281 164.58084106445312 463.9508361816406 C 163.552490234375 465.2403869628906 162.56842041015625 466.43603515625 161.69387817382812 467.4219665527344 C 160.99356079101562 468.2156066894531 160.7781982421875 468.72393798828125 160.39181518554688 469.042236328125 C 159.45639038085938 469.8701477050781 158.04010009765625 470.5146789550781 156.26747131347656 470.7926330566406 C 154.3694610595703 470.3442687988281 152.99081420898438 468.6713562011719 152.54734802246094 466.317626953125 C 153.4069366455078 464.07122802734375 155.47271728515625 462.53485107421875 157.65939331054688 461.7583923339844 C 158.80441284179688 461.7829895019531 158.36587524414062 462.16558837890625 156.87301635742188 462.61163330078125 C 155.04638671875 463.1233825683594 153.6722869873047 462.8239440917969 153.00599670410156 461.6575622558594 C 152.98171997070312 459.70166015625 153.39938354492188 457.0597839355469 153.74240112304688 454.1302490234375 C 153.9456024169922 451.4833679199219 154.31570434570312 448.9567565917969 155.13632202148438 446.9382629394531 C 156.7181396484375 446.24346923828125 158.58802795410156 446.51605224609375 160.11585998535156 447.09686279296875 C 161.75326538085938 447.8250732421875 162.4744110107422 448.2392578125 161.73204040527344 448.0806579589844 C 159.92340087890625 447.5946044921875 157.62359619140625 447.01806640625 155.67979431152344 445.9649963378906 C 155.28485107421875 443.9096984863281 155.88336181640625 441.41986083984375 156.45242309570312 438.987548828125 C 156.78688049316406 436.76849365234375 156.94775390625 434.5837097167969 157.68603515625 432.41845703125 C 158.23944091796875 430.31231689453125 158.8016815185547 428.2980651855469 159.29473876953125 426.3308410644531 C 159.814697265625 424.14263916015625 160.2371063232422 421.85662841796875 160.94534301757812 419.71502685546875 C 161.3920440673828 417.4976501464844 162.00845336914062 415.10406494140625 162.48179626464844 412.6806640625 C 163.20277404785156 410.3304138183594 163.64540100097656 408.2403564453125 164.13717651367188 406.15191650390625 C 164.2431640625 404.3218994140625 164.74142456054688 403.071044921875 165.14862060546875 402.0945129394531 C 165.51535034179688 400.7745056152344 165.6123504638672 399.17144775390625 166.56382751464844 397.28509521484375 C 168.54225158691406 395.468505859375 171.03634643554688 393.7275695800781 173.95445251464844 392.559814453125 C 177.22093200683594 392.75006103515625 180.7154541015625 393.44622802734375 179.6660614013672 385.44073486328125" stroke-width="0.0" fill="rgb(1, 1, 4)" opacity="0.9999204" stroke="rgb(153, 40, 217)" stroke-opacity="0.46290502" stroke-linecap="round" stroke-linejoin="round"/>
    <path d="M 170.27703857421875 118.45668029785156 C 171.0893096923828 118.91587829589844 172.0749053955078 119.51515197753906 172.79263305664062 120.0878677368164 C 173.3966827392578 120.23432922363281 173.99542236328125 120.23287963867188 174.50946044921875 119.95856475830078 C 175.05319213867188 119.92906188964844 175.7764434814453 119.96685028076172 176.37310791015625 120.3591537475586 C 176.96681213378906 120.96168518066406 177.1942138671875 121.70523834228516 177.0452880859375 122.43099212646484 C 176.49371337890625 123.11579132080078 175.67434692382812 123.43875122070312 175.1937713623047 123.46849822998047 C 174.8181610107422 123.51581573486328 174.7083740234375 123.52134704589844 175.22706604003906 123.84789276123047 C 175.8401641845703 124.42127990722656 176.27349853515625 125.29739379882812 176.62017822265625 126.41028594970703 C 176.6524200439453 127.38736724853516 176.1676483154297 128.24732971191406 175.39297485351562 128.84226989746094 C 174.7436065673828 129.59568786621094 174.18052673339844 130.2451171875 173.27761840820312 131.0489959716797 C 172.25547790527344 131.83071899414062 171.33779907226562 132.71905517578125 170.31170654296875 133.33102416992188 C 169.09877014160156 133.95484924316406 168.1980743408203 134.5745391845703 167.47531127929688 134.90480041503906 C 166.66497802734375 135.463134765625 165.71994018554688 135.8463592529297 164.76406860351562 136.61021423339844 C 163.6439208984375 137.2393798828125 162.26995849609375 138.20480346679688 160.7404022216797 138.89285278320312 C 159.30108642578125 139.77011108398438 157.9459686279297 140.30258178710938 156.54962158203125 140.3507080078125 C 155.55325317382812 140.05860900878906 154.63165283203125 139.60650634765625 153.93943786621094 138.95423889160156 C 153.38609313964844 138.3297576904297 152.72021484375 138.33787536621094 152.07716369628906 138.6226806640625 C 151.53773498535156 139.30130004882812 151.16921997070312 139.90447998046875 151.14988708496094 140.6431884765625 C 151.170166015625 141.44085693359375 151.17916870117188 142.0509033203125 150.9760284423828 142.83758544921875 C 150.51123046875 143.21539306640625 149.8458709716797 143.67628479003906 149.07205200195312 144.1921844482422 C 148.179443359375 144.42507934570312 147.21058654785156 144.74192810058594 146.0390167236328 145.14308166503906 C 144.8201446533203 145.3943634033203 143.7423553466797 145.82974243164062 142.39491271972656 146.38319396972656 C 140.9504852294922 146.79144287109375 139.67626953125 147.28504943847656 138.18356323242188 147.80087280273438 C 136.61158752441406 148.05667114257812 135.31463623046875 148.21095275878906 134.22286987304688 148.00808715820312 C 133.2611846923828 147.6583251953125 132.6494598388672 146.98199462890625 132.30015563964844 146.28550720214844 C 131.9086456298828 145.71405029296875 131.44944763183594 145.19869995117188 130.6793670654297 145.03854370117188 C 129.62857055664062 144.88539123535156 128.46923828125 145.00885009765625 127.29967498779297 145.04217529296875 C 126.15572357177734 144.92422485351562 125.29576110839844 144.97439575195312 124.55880737304688 144.68707275390625 C 123.85910034179688 144.67149353027344 123.01698303222656 144.21502685546875 122.12811279296875 143.79727172851562 C 121.41688537597656 143.0506591796875 121.0577621459961 142.1737060546875 121.13117980957031 141.13560485839844 C 121.61536407470703 140.2076416015625 122.31863403320312 139.31524658203125 123.12224578857422 138.66261291503906 C 123.94477844238281 137.95445251464844 124.69956970214844 137.2594757080078 125.48512268066406 136.8130340576172 C 126.4589614868164 136.47732543945312 127.32540893554688 136.3025665283203 128.1240692138672 136.52394104003906 C 128.64215087890625 136.96810913085938 128.84336853027344 136.9777374267578 128.61843872070312 136.77938842773438 C 128.47398376464844 136.40635681152344 128.3623046875 135.61660766601562 128.4746551513672 135.02232360839844 C 129.0995330810547 134.49832153320312 129.823974609375 134.35824584960938 130.56173706054688 134.69186401367188 C 131.5411834716797 135.2062530517578 132.31195068359375 135.80038452148438 133.0926513671875 136.0558624267578 C 133.7063751220703 136.086181640625 133.8656005859375 135.7534637451172 133.70513916015625 135.09310913085938 C 133.4999237060547 134.31234741210938 133.33065795898438 133.4390411376953 133.29885864257812 132.69346618652344 C 133.606201171875 132.1616668701172 133.8430938720703 131.75535583496094 134.2115478515625 131.5907440185547 C 134.61439514160156 131.23573303222656 135.1102294921875 131.08383178710938 135.8247528076172 130.5496826171875 C 136.69911193847656 130.2544708251953 137.7390899658203 129.68687438964844 138.8752899169922 129.47122192382812 C 139.9710235595703 129.0552978515625 140.84239196777344 128.7631072998047 141.75418090820312 128.0935516357422 C 142.79296875 127.50984954833984 143.79168701171875 126.53623962402344 145.0203094482422 125.8239974975586 C 146.4025115966797 125.00978088378906 147.6318359375 124.77544403076172 148.91015625 124.60765838623047 C 149.89605712890625 125.03422546386719 150.45606994628906 125.49256896972656 150.76026916503906 125.97540283203125 C 150.8504180908203 126.1090316772461 150.79052734375 126.02642822265625 150.82675170898438 125.58824920654297 C 150.90609741210938 124.98174285888672 151.17166137695312 124.28675079345703 151.58877563476562 123.51892852783203 C 152.31072998046875 123.05021667480469 153.06027221679688 122.48176574707031 153.85157775878906 122.2161865234375 C 154.92051696777344 121.92754364013672 155.67486572265625 121.90650177001953 156.4772186279297 121.92002868652344 C 157.2187957763672 121.99607849121094 157.76071166992188 122.19374084472656 158.17686462402344 122.17704772949219 C 158.57725524902344 122.12501525878906 159.06350708007812 121.80729675292969 159.5576629638672 121.60030364990234 C 160.2123565673828 121.66808319091797 160.75265502929688 121.9502182006836 161.28048706054688 122.262451171875 C 161.68527221679688 122.25672149658203 162.0272674560547 121.89191436767578 162.82814025878906 120.82225036621094 C 164.27149963378906 119.9744873046875 165.90093994140625 119.13060760498047 167.7857208251953 118.60359191894531 C 169.97193908691406 118.66805267333984 171.90679931640625 118.4640884399414 170.27703857421875 118.45668029785156" stroke-width="0.0" fill="rgb(97, 39, 80)" opacity="1.0" stroke="rgb(12, 143, 44)" stroke-opacity="0.8077605" stroke-linecap="round" stroke-linejoin="round"/>
    <path d="M 324.80657958984375 126.14337158203125 C 325.76806640625 126.63204193115234 326.5508728027344 127.23650360107422 327.3689880371094 127.95780944824219 C 328.2309875488281 128.47755432128906 329.1307373046875 129.0966339111328 330.0202941894531 129.5631103515625 C 330.9779052734375 130.13380432128906 332.05548095703125 130.7669219970703 332.93255615234375 131.2677001953125 C 333.695068359375 131.86309814453125 334.5926818847656 132.51177978515625 335.6108093261719 133.1675567626953 C 336.54193115234375 133.81983947753906 337.5478820800781 134.4573211669922 338.6769104003906 135.21896362304688 C 339.7786560058594 136.09844970703125 340.8194885253906 136.88296508789062 341.9332580566406 137.62850952148438 C 343.204833984375 138.47738647460938 344.45166015625 139.19654846191406 345.5074157714844 139.85557556152344 C 346.5288391113281 140.62091064453125 347.5806884765625 141.2246551513672 348.5387878417969 141.88232421875 C 349.3264465332031 142.41305541992188 350.1094970703125 143.16192626953125 351.0391845703125 143.82574462890625 C 352.0426025390625 144.3396759033203 353.04827880859375 145.10140991210938 354.0334167480469 145.8011474609375 C 354.94927978515625 146.45382690429688 355.8779602050781 147.16099548339844 356.8576354980469 147.71536254882812 C 357.73004150390625 148.59129333496094 358.64837646484375 149.3728790283203 359.6841735839844 150.17828369140625 C 360.7997131347656 150.890380859375 361.87091064453125 151.62835693359375 362.8620910644531 152.22891235351562 C 363.8057861328125 153.00039672851562 364.6037902832031 154.05967712402344 364.9384765625 155.6598663330078 C 364.9248962402344 157.4260711669922 364.97625732421875 159.46214294433594 365.36083984375 161.43783569335938 C 366.0965881347656 162.70591735839844 367.1056823730469 163.31893920898438 368.5158386230469 163.3482666015625 C 370.2260437011719 163.0643768310547 371.9270935058594 163.12081909179688 373.58782958984375 163.78158569335938 C 375.3092041015625 165.10055541992188 376.92059326171875 166.9553680419922 377.741455078125 169.12672424316406 C 377.0652770996094 170.8661346435547 375.5157470703125 171.77047729492188 374.01873779296875 171.38021850585938 C 372.51971435546875 170.64434814453125 371.2016296386719 170.6077423095703 370.4336853027344 171.33998107910156 C 369.8304748535156 172.31878662109375 368.9784240722656 173.2345733642578 367.6041564941406 173.93247985839844 C 365.54302978515625 174.35186767578125 363.4610900878906 173.7076873779297 362.3338623046875 171.63662719726562 C 363.1850280761719 168.90872192382812 365.3863830566406 166.50296020507812 367.5484313964844 164.73080444335938 C 369.30694580078125 163.30953979492188 370.42718505859375 161.77012634277344 370.3056640625 160.19883728027344 C 368.88739013671875 159.17649841308594 366.7581481933594 158.59913635253906 364.0605163574219 158.1511688232422 C 361.39813232421875 157.66220092773438 359.2551574707031 156.7400665283203 357.6544189453125 155.73497009277344 C 356.54168701171875 154.7523956298828 355.7655029296875 153.91769409179688 355.1546630859375 153.29275512695312 C 354.50469970703125 152.8328399658203 353.749267578125 152.1322021484375 352.83282470703125 151.5328826904297 C 351.7857666015625 150.626220703125 350.5414733886719 149.50686645507812 349.279296875 148.424072265625 C 348.20806884765625 147.5698699951172 347.1952819824219 146.85650634765625 346.3139953613281 146.0824737548828 C 345.2981262207031 145.3625946044922 344.2822265625 144.58070373535156 343.114501953125 143.54266357421875 C 341.6710510253906 142.52450561523438 340.07684326171875 141.41139221191406 338.829833984375 140.52914428710938 C 337.8092956542969 139.6897430419922 336.65374755859375 138.87791442871094 335.4043273925781 137.9041748046875 C 334.1788635253906 137.07415771484375 332.79644775390625 136.00901794433594 331.49658203125 135.2569580078125 C 330.5285949707031 134.3905029296875 329.787353515625 133.60116577148438 329.30194091796875 133.06411743164062 C 328.9919128417969 132.6912841796875 328.6478271484375 132.4886474609375 328.1562805175781 132.45236206054688 C 327.4561462402344 132.4593048095703 326.9861755371094 132.27243041992188 326.4201965332031 131.93032836914062 C 325.968994140625 131.54954528808594 325.45587158203125 131.0626983642578 324.60333251953125 130.48751831054688 C 323.623779296875 130.0314178466797 322.70465087890625 129.20286560058594 321.40850830078125 128.16830444335938 C 320.4583740234375 127.10790252685547 319.1033935546875 125.63054656982422 324.80657958984375 126.14337158203125" stroke-width="0.0" fill="rgb(224, 230, 241)" opacity="0.9999316" stroke="rgb(52, 191, 58)" stroke-opacity="0.21795242" stroke-linecap="round" stroke-linejoin="round"/>
    <path d="M 63.00693893432617 286.2314147949219 C 64.0627212524414 287.57928466796875 65.19345092773438 288.6570739746094 66.1819839477539 289.5268249511719 C 66.71849060058594 290.35638427734375 67.07569885253906 291.3854675292969 67.40750122070312 292.5523376464844 C 67.62499237060547 293.65814208984375 67.76473236083984 294.8424377441406 68.1429443359375 296.2003173828125 C 68.30621337890625 297.5191955566406 68.54377746582031 298.5645446777344 68.7974853515625 299.6802062988281 C 68.90111541748047 300.5597229003906 69.0680160522461 301.42919921875 69.19598388671875 302.53729248046875 C 69.38442993164062 303.79736328125 69.5729751586914 305.07427978515625 69.72618103027344 306.45587158203125 C 69.94449615478516 307.8953857421875 70.03495025634766 308.9989929199219 70.29617309570312 310.140380859375 C 70.39541625976562 311.3724365234375 70.2228775024414 312.44427490234375 69.85395050048828 313.5030822753906 C 69.15702056884766 314.5191650390625 68.28783416748047 315.025634765625 67.29291534423828 315.3191833496094 C 66.67359924316406 315.7652587890625 66.37684631347656 316.1916198730469 66.45462799072266 316.572021484375 C 66.90669250488281 316.7975158691406 67.5370101928711 316.83245849609375 68.19889831542969 316.8179016113281 C 68.69935607910156 316.8028869628906 69.12229919433594 316.87908935546875 69.51703643798828 317.0015869140625 C 69.93165588378906 317.0140380859375 70.46180725097656 317.3496398925781 70.94866180419922 317.9263000488281 C 71.18803405761719 318.668701171875 71.43881225585938 319.7008361816406 71.74736785888672 321.0430908203125 C 71.95572662353516 322.43988037109375 72.14944458007812 323.66064453125 72.39513397216797 324.77685546875 C 72.38265991210938 325.9422912597656 72.54261016845703 326.89910888671875 72.52598571777344 327.6394958496094 C 72.78658294677734 328.4507141113281 72.76579284667969 329.2994384765625 72.7431869506836 330.1225280761719 C 73.03189086914062 330.99542236328125 73.19717407226562 332.07916259765625 73.48445129394531 333.2829895019531 C 73.83653259277344 334.4434814453125 74.02928924560547 335.7038269042969 74.36803436279297 337.1408996582031 C 74.66485595703125 338.23199462890625 75.2770004272461 339.13427734375 75.97681427001953 339.91015625 C 76.72349548339844 340.4739990234375 77.60923767089844 341.00030517578125 78.17180633544922 341.710693359375 C 78.87644958496094 342.91766357421875 78.86811065673828 344.6030578613281 78.392333984375 346.7361755371094 C 77.1441650390625 348.7026062011719 75.08207702636719 349.8604736328125 72.62159729003906 350.18109130859375 C 70.50442504882812 349.1850891113281 69.22663879394531 347.25537109375 68.9349136352539 344.97564697265625 C 69.61087799072266 343.0929260253906 70.71112060546875 341.78424072265625 71.65657806396484 341.3752746582031 C 71.89302825927734 341.5320739746094 71.51639556884766 341.669677734375 70.58244323730469 341.4476623535156 C 69.50687408447266 340.5362243652344 69.0166015625 339.0605163574219 68.8040542602539 337.32550048828125 C 68.89531707763672 335.6947937011719 69.42481231689453 334.4747009277344 69.43406677246094 333.61810302734375 C 69.2459487915039 332.89166259765625 68.89413452148438 332.114013671875 68.28181457519531 330.8862609863281 C 68.06066131591797 329.2472229003906 68.16129302978516 327.6838684082031 68.61174011230469 326.25604248046875 C 69.29961395263672 325.4228515625 69.53714752197266 325.2206115722656 69.18852996826172 325.100341796875 C 68.3796157836914 324.63525390625 67.31755828857422 323.4761962890625 66.45682525634766 322.04595947265625 C 66.1142349243164 320.2832946777344 66.59398651123047 318.58050537109375 67.31404113769531 317.33026123046875 C 67.98998260498047 316.56768798828125 68.455810546875 315.8583068847656 68.26472473144531 315.43536376953125 C 67.47638702392578 314.8715515136719 66.77754974365234 314.10736083984375 66.35729217529297 313.41546630859375 C 66.00932312011719 312.57427978515625 65.76194763183594 311.5440673828125 65.48616790771484 310.58367919921875 C 65.32064056396484 309.57232666015625 65.22068786621094 308.5304260253906 65.30628204345703 307.4436340332031 C 65.19259643554688 306.4049072265625 65.08917236328125 305.6924133300781 64.68739318847656 304.8482666015625 C 64.03246307373047 303.74212646484375 63.80384063720703 302.7655029296875 63.70338439941406 301.51043701171875 C 63.530609130859375 299.67266845703125 63.855499267578125 297.96881103515625 64.1902084350586 296.43682861328125 C 64.52596282958984 294.8277282714844 65.07734680175781 293.8700866699219 65.49980163574219 293.308349609375 C 65.54470825195312 292.7701721191406 65.2374038696289 292.3364562988281 64.73684692382812 291.923828125 C 64.25885009765625 291.12799072265625 64.15452575683594 290.2378234863281 64.5968246459961 289.2168884277344 C 65.61158752441406 288.1190185546875 66.78968048095703 287.0511779785156 63.00693893432617 286.2314147949219" stroke-width="0.0" fill="rgb(156, 162, 183)" opacity="0.9999637" stroke="rgb(24, 167, 76)" stroke-opacity="0.68893236" stroke-linecap="round" stroke-linejoin="round"/>
    <path d="M 88.27228546142578 154.7926025390625 C 87.53040313720703 155.1835174560547 87.07766723632812 155.55926513671875 86.66072082519531 155.53038024902344 C 86.66653442382812 155.11651611328125 87.1689453125 154.1165313720703 87.93904113769531 152.93862915039062 C 88.9881820678711 152.0170440673828 90.57977294921875 151.51419067382812 92.20887756347656 151.8267822265625 C 93.58433532714844 153.0722198486328 94.29617309570312 154.7082061767578 94.4260025024414 156.28807067871094 C 93.85858917236328 157.92640686035156 93.12663269042969 159.3212127685547 92.39258575439453 160.5110626220703 C 91.40425109863281 161.439208984375 90.85255432128906 162.1721954345703 89.9271240234375 162.86569213867188 C 88.89064025878906 163.62686157226562 88.18258666992188 164.54136657714844 87.17012786865234 165.34042358398438 C 86.25667572021484 165.9702911376953 85.36175537109375 166.65902709960938 84.54407501220703 167.27040100097656 C 83.73664855957031 167.63037109375 83.21265411376953 168.20101928710938 82.48729705810547 168.72894287109375 C 81.90485382080078 169.15505981445312 81.17031860351562 169.55084228515625 80.06209564208984 169.84548950195312 C 78.88233947753906 170.00259399414062 77.89229583740234 170.1020965576172 76.56035614013672 170.1328887939453 C 75.65068054199219 169.981689453125 74.80193328857422 169.887939453125 74.37059020996094 169.92922973632812 C 74.23631286621094 170.12554931640625 74.55088806152344 170.78457641601562 74.69133758544922 171.5999298095703 C 74.94473266601562 172.46389770507812 74.66221618652344 173.0323028564453 74.4322509765625 173.62879943847656 C 74.07583618164062 173.99783325195312 73.31939697265625 174.62701416015625 72.28080749511719 175.10208129882812 C 71.2047119140625 175.80575561523438 69.9234619140625 176.74798583984375 68.2517318725586 177.41537475585938 C 66.5118179321289 178.2156524658203 64.90023803710938 178.6541748046875 63.38163757324219 178.77259826660156 C 62.49168014526367 178.4690704345703 61.93368911743164 178.13290405273438 61.605037689208984 178.15159606933594 C 61.75725555419922 178.31539916992188 61.796077728271484 178.9134063720703 61.64985275268555 179.81546020507812 C 61.26640319824219 180.4752197265625 60.474273681640625 181.1688995361328 59.39864730834961 181.831298828125 C 58.00407791137695 182.1974334716797 56.66693878173828 182.40830993652344 55.30652618408203 182.56443786621094 C 54.004676818847656 182.1384735107422 53.05018997192383 181.2108917236328 52.42890548706055 180.31565856933594 C 52.33550262451172 179.03355407714844 52.778873443603516 177.87362670898438 53.13612365722656 176.5527801513672 C 53.8541259765625 175.45372009277344 54.16954803466797 174.6611785888672 54.55182647705078 173.8610076904297 C 54.757102966308594 173.0301971435547 55.20307922363281 172.3082733154297 55.68516540527344 171.39120483398438 C 56.2992057800293 170.49102783203125 56.937400817871094 169.673095703125 57.97126007080078 168.7665557861328 C 58.927555084228516 167.93157958984375 60.02076721191406 167.02662658691406 61.16459655761719 165.96109008789062 C 62.191864013671875 165.05845642089844 63.24678421020508 164.167724609375 64.54190826416016 163.34536743164062 C 65.7861099243164 162.51638793945312 66.83564758300781 161.6033477783203 67.87006378173828 160.74591064453125 C 69.12034606933594 160.02615356445312 70.41732788085938 159.08436584472656 71.61857604980469 158.39675903320312 C 72.86322784423828 157.99427795410156 73.85298156738281 157.52838134765625 74.63165283203125 157.43301391601562 C 75.34941101074219 157.38665771484375 75.98597717285156 157.22764587402344 76.44364929199219 157.06646728515625 C 76.90682220458984 156.29103088378906 77.54439544677734 155.56808471679688 78.42403411865234 154.6592559814453 C 79.54171752929688 154.02330017089844 80.96707153320312 153.35850524902344 82.73368835449219 152.68304443359375 C 84.72953796386719 151.8736572265625 86.72795104980469 150.75730895996094 88.27228546142578 154.7926025390625" stroke-width="0.0" fill="rgb(95, 37, 78)" opacity="1.0" stroke="rgb(236, 13, 14)" stroke-opacity="0.68265676" stroke-linecap="round" stroke-linejoin="round"/>
    <path d="M 101.31298065185547 192.8681640625 C 101.42398071289062 194.92112731933594 101.65248107910156 196.24961853027344 101.65473175048828 197.41131591796875 C 101.08934020996094 198.39129638671875 100.33860778808594 199.18556213378906 99.57372283935547 200.07809448242188 C 99.07115936279297 201.2899932861328 98.96704864501953 202.4328155517578 99.35790252685547 203.57730102539062 C 100.28743743896484 204.5535125732422 101.35480499267578 205.35678100585938 102.25051879882812 206.28564453125 C 102.72611236572266 207.36492919921875 102.82617950439453 208.44178771972656 102.79148864746094 209.68499755859375 C 102.7524185180664 210.79702758789062 102.52497863769531 212.05770874023438 102.26664733886719 213.11265563964844 C 102.01354217529297 214.2217559814453 101.7738265991211 215.15951538085938 101.81890869140625 215.86485290527344 C 102.04169464111328 216.5466766357422 102.378662109375 217.10250854492188 102.75869750976562 217.8701934814453 C 103.08190155029297 219.0111846923828 103.31877136230469 220.20291137695312 103.50525665283203 221.4112091064453 C 103.54827117919922 222.70640563964844 103.40628814697266 223.7368927001953 103.08982849121094 224.4854278564453 C 103.0782470703125 225.06214904785156 102.92437744140625 225.4750213623047 103.08779907226562 225.8236083984375 C 103.44633483886719 226.39537048339844 103.72254943847656 227.3349151611328 103.945068359375 228.47698974609375 C 104.1348876953125 229.58494567871094 104.37794494628906 230.7654266357422 104.65497589111328 232.07102966308594 C 104.80522155761719 233.3577423095703 104.98779296875 234.50697326660156 105.16439819335938 235.6061248779297 C 105.28640747070312 236.7259979248047 105.30296325683594 237.60804748535156 105.39570617675781 238.28106689453125 C 105.59209442138672 239.0389862060547 105.67787170410156 239.79415893554688 105.73652648925781 240.3632049560547 C 105.77526092529297 240.98553466796875 105.91484069824219 241.77761840820312 106.14199829101562 242.796630859375 C 106.5599365234375 244.11373901367188 106.83318328857422 245.5339813232422 107.12664031982422 247.0208740234375 C 107.57682800292969 248.57730102539062 108.18383026123047 249.784912109375 108.79010009765625 250.69847106933594 C 109.62574005126953 251.4773712158203 110.54278564453125 252.28216552734375 111.16162872314453 253.14720153808594 C 111.2519760131836 254.18215942382812 110.86199951171875 255.24827575683594 110.16529846191406 256.1214599609375 C 109.09613800048828 256.56256103515625 108.318115234375 256.8335876464844 107.50594329833984 256.753173828125 C 107.19828796386719 256.4372863769531 107.19403839111328 256.3539733886719 107.15312194824219 256.48101806640625 C 107.20991516113281 256.3664855957031 106.72074127197266 256.4669494628906 106.24337005615234 256.32611083984375 C 105.57731628417969 255.80039978027344 104.82231903076172 254.9896697998047 104.47230529785156 254.0475616455078 C 104.00524139404297 253.37904357910156 103.94412231445312 252.76620483398438 103.66582489013672 252.00787353515625 C 103.47453308105469 251.28627014160156 103.12242889404297 250.75454711914062 102.97338104248047 250.1005859375 C 102.63707733154297 249.06942749023438 102.25965881347656 247.95201110839844 101.85008239746094 246.6331329345703 C 101.40951538085938 245.21871948242188 101.33797454833984 243.85232543945312 101.18794250488281 242.50901794433594 C 100.98470306396484 241.21311950683594 100.77629852294922 240.11001586914062 100.62361907958984 239.09219360351562 C 100.31609344482422 238.1278076171875 100.35633087158203 236.83982849121094 100.40496063232422 235.59910583496094 C 100.76957702636719 234.28909301757812 101.46070098876953 233.14706420898438 101.73198699951172 232.3562774658203 C 101.75291442871094 231.8468475341797 101.4533920288086 231.39393615722656 100.80873107910156 230.91590881347656 C 100.17601013183594 230.14356994628906 99.85986328125 229.11923217773438 99.5285415649414 227.92526245117188 C 99.09468078613281 226.5985107421875 99.14681243896484 225.259521484375 99.08922576904297 223.92279052734375 C 99.00115203857422 222.54425048828125 99.08370208740234 221.2386016845703 98.82331848144531 219.88340759277344 C 98.80372619628906 218.65911865234375 98.89305114746094 217.68948364257812 98.81558227539062 216.90757751464844 C 98.64546203613281 216.17442321777344 98.52144622802734 215.65309143066406 98.49909210205078 215.087646484375 C 98.50041961669922 214.58306884765625 98.43949127197266 214.00595092773438 98.29116821289062 213.34194946289062 C 98.21129608154297 212.41494750976562 98.06524658203125 211.17025756835938 98.13256072998047 209.76341247558594 C 98.07500457763672 208.4275360107422 98.11125183105469 207.0131072998047 98.60154724121094 205.70843505859375 C 99.5900650024414 204.8568572998047 100.71984100341797 204.15081787109375 101.68739318847656 203.3302001953125 C 102.12171173095703 202.66268920898438 102.10249328613281 201.8129119873047 101.75325012207031 200.9808349609375 C 101.16497039794922 200.32778930664062 100.22644805908203 199.51719665527344 98.9549560546875 198.23638916015625 C 97.72545623779297 196.44956970214844 96.74508666992188 194.261474609375 101.31298065185547 192.8681640625" stroke-width="0.0" fill="rgb(232, 234, 245)" opacity="0.99992466" stroke="rgb(81, 239, 247)" stroke-opacity="0.11496869" stroke-linecap="round" stroke-linejoin="round"/>
    <path d="M 236.17913818359375 442.7015686035156 C 237.9514617919922 444.3066101074219 239.6691436767578 445.653564453125 240.91029357910156 446.69281005859375 C 241.5537567138672 447.5218200683594 241.97547912597656 447.5334777832031 242.46629333496094 447.0462951660156 C 243.18032836914062 446.2237243652344 244.1106414794922 445.4731750488281 245.32528686523438 445.171142578125 C 246.62774658203125 445.3617248535156 247.854248046875 445.7910461425781 249.01165771484375 446.25897216796875 C 250.17808532714844 446.7025146484375 251.37713623046875 446.9100341796875 252.93881225585938 447.04931640625 C 254.09019470214844 447.63177490234375 254.6517333984375 448.63232421875 254.91310119628906 450.1126403808594 C 254.62432861328125 451.7886962890625 254.18133544921875 453.7278137207031 253.67144775390625 455.71429443359375 C 252.86656188964844 457.5279235839844 251.92147827148438 459.0267333984375 251.16871643066406 460.0614013671875 C 250.703857421875 460.5303955078125 250.30030822753906 460.64630126953125 250.29586791992188 460.7726135253906 C 250.45584106445312 460.8691101074219 250.37750244140625 461.09027099609375 250.02183532714844 461.993896484375 C 249.2393341064453 463.0137939453125 247.7646026611328 464.20501708984375 245.6282501220703 465.16961669921875 C 243.31185913085938 465.7174377441406 241.0866241455078 465.8562316894531 239.22509765625 465.5856018066406 C 237.6697540283203 465.0703430175781 236.50376892089844 464.3423767089844 235.63430786132812 463.7375183105469 C 234.66590881347656 463.3542785644531 233.736328125 462.8644104003906 233.23660278320312 462.3436279296875 C 232.99575805664062 461.6044616699219 232.9559783935547 461.0298156738281 233.2424774169922 460.2917175292969 C 233.7538299560547 459.729736328125 234.21176147460938 459.47528076171875 234.61972045898438 459.3736267089844 C 234.39170837402344 459.5653991699219 233.739501953125 459.9170837402344 232.9093017578125 459.962890625 C 232.007080078125 459.5191345214844 231.05857849121094 458.533447265625 230.5047607421875 457.279541015625 C 229.90054321289062 455.9266357421875 229.26634216308594 454.67327880859375 228.76889038085938 453.5198669433594 C 228.3290557861328 452.45074462890625 228.05239868164062 451.56756591796875 228.3963165283203 450.6346130371094 C 229.50515747070312 449.89056396484375 230.88763427734375 449.30078125 232.26593017578125 448.9063720703125 C 233.70953369140625 448.84075927734375 234.84121704101562 448.48382568359375 236.17913818359375 442.7015686035156" stroke-width="0.0" fill="rgb(47, 107, 81)" opacity="1.0" stroke="rgb(242, 149, 62)" stroke-opacity="0.3693547" stroke-linecap="round" stroke-linejoin="round"/>
  </g>
</svg>
