<?xml version="1.0" ?>
<svg xmlns="http://www.w3.org/2000/svg" version="1.1" width="438" height="481">
  <defs/>
  <g>
    <path d="M 264.9861755371094 69.88372039794922 C 272.40850830078125 69.8125 279.4504089355469 70.45580291748047 286.67620849609375 71.57206726074219 C 294.7005310058594 72.54033660888672 303.7976379394531 74.08763885498047 314.2816162109375 76.60770416259766 C 326.425048828125 79.52769470214844 339.5516357421875 83.91140747070312 354.0661315917969 89.47007751464844 C 368.6728820800781 98.5015640258789 384.00408935546875 108.6256103515625 400.2848205566406 119.35431671142578 C 415.4208068847656 130.53851318359375 428.46942138671875 142.14627075195312 437.720458984375 154.43487548828125 C 439.5162658691406 167.62953186035156 435.56610107421875 179.91091918945312 426.8618469238281 190.95819091796875 C 416.0415954589844 200.34011840820312 403.314697265625 206.9223175048828 390.64569091796875 211.11062622070312 C 379.3958740234375 215.96446228027344 369.1995544433594 220.66087341308594 360.64678955078125 226.34068298339844 C 353.30291748046875 233.14608764648438 346.3028259277344 240.94845581054688 340.11468505859375 250.20143127441406 C 335.7680358886719 262.35406494140625 332.08233642578125 276.5221252441406 327.30364990234375 291.6736145019531 C 320.9386901855469 307.87518310546875 312.1893005371094 322.9939270019531 301.916259765625 338.8100891113281 C 291.09912109375 354.7956848144531 280.15478515625 368.9258728027344 271.1047058105469 382.8064270019531 C 264.4166259765625 395.4752197265625 258.3309326171875 404.8071594238281 252.4231719970703 411.4896240234375 C 248.10122680664062 416.7283630371094 244.82125854492188 421.5039978027344 243.1521759033203 426.7773742675781 C 242.17727661132812 432.79034423828125 240.69488525390625 439.4388427734375 238.1992950439453 445.7981872558594 C 234.72190856933594 450.175048828125 230.7940216064453 451.9887390136719 227.3180389404297 449.4984130859375 C 223.6653594970703 442.3310546875 220.9905242919922 431.8951416015625 219.84243774414062 418.740966796875 C 218.15721130371094 403.9445495605469 215.25132751464844 388.717529296875 213.4769287109375 373.9722595214844 C 208.58160400390625 362.22003173828125 204.7841033935547 353.6079406738281 208.28033447265625 347.2614440917969 C 219.4925994873047 341.29541015625 235.48695373535156 336.71759033203125 252.8078155517578 331.6935729980469 C 267.26806640625 324.9824523925781 275.97491455078125 318.1882019042969 276.623291015625 312.424560546875 C 268.8949279785156 311.98736572265625 255.84149169921875 314.2608947753906 239.3191680908203 316.94219970703125 C 222.30699157714844 319.1702575683594 207.3923797607422 321.3356018066406 195.26902770996094 324.4175720214844 C 188.34774780273438 331.5151062011719 183.95957946777344 340.2358093261719 178.03451538085938 346.8057556152344 C 167.5915985107422 347.94256591796875 156.0708770751953 347.436767578125 145.58802795410156 349.76629638671875 C 138.1893768310547 358.313232421875 134.6352081298828 369.3727111816406 135.2000732421875 381.3803405761719 C 139.51634216308594 392.580322265625 141.405517578125 403.2942199707031 138.83717346191406 414.8891906738281 C 136.37193298339844 428.3011474609375 133.56507873535156 442.73919677734375 131.94293212890625 457.7661437988281 C 130.32623291015625 471.5103454589844 122.55264282226562 482.5943298339844 111.34071350097656 490.4345397949219 C 96.92953491210938 495.3656921386719 80.25196838378906 497.2655334472656 62.495296478271484 496.2864685058594 C 44.75352478027344 492.85101318359375 28.269561767578125 487.46759033203125 14.48737907409668 480.3135070800781 C 4.46229887008667 472.30010986328125 -0.4547756314277649 463.6590270996094 0.11816170811653137 455.114013671875 C 5.342314720153809 447.0942687988281 13.82705020904541 440.31829833984375 23.936180114746094 435.3613586425781 C 33.57474136352539 431.6210632324219 40.037567138671875 428.3419189453125 41.969154357910156 424.4779357910156 C 38.168270111083984 421.0992126464844 30.391494750976562 417.1103820800781 21.149259567260742 412.1574401855469 C 13.137370109558105 406.9847106933594 8.643136024475098 402.2425537109375 8.68616771697998 397.9390869140625 C 13.190560340881348 394.6242980957031 21.439571380615234 391.8912048339844 32.37478256225586 389.66656494140625 C 44.34590148925781 386.7786560058594 55.69420623779297 383.3730163574219 65.54907989501953 379.66705322265625 C 72.66950225830078 372.7210693359375 77.68303680419922 365.56085205078125 81.26802825927734 358.01995849609375 C 84.69082641601562 352.0771789550781 85.65667724609375 347.7301940917969 82.07513427734375 345.66888427734375 C 73.59052276611328 345.3757629394531 61.33311080932617 347.1549377441406 46.279720306396484 349.76434326171875 C 31.082021713256836 354.73211669921875 17.07536506652832 358.9945983886719 5.3954644203186035 361.5779113769531 C -1.854729175567627 358.171875 -5.552779197692871 350.0659484863281 -6.678184986114502 338.06939697265625 C -6.752277851104736 323.1544494628906 -6.174145698547363 306.4339904785156 -5.346114158630371 288.81036376953125 C -4.403865337371826 271.35455322265625 -2.8335649967193604 254.4920196533203 -0.27037134766578674 238.70816040039062 C 4.807846546173096 224.9636688232422 11.84033203125 213.0681610107422 21.23800277709961 203.94972229003906 C 33.08824920654297 198.26402282714844 47.048004150390625 194.83177185058594 61.55155944824219 190.8516082763672 C 75.94380950927734 184.14785766601562 88.08177947998047 173.97537231445312 97.4706039428711 160.24484252929688 C 103.29552459716797 143.9850311279297 106.9872817993164 127.5176010131836 111.38842010498047 113.40999603271484 C 115.1196517944336 103.0408935546875 118.19554901123047 98.05897521972656 119.59037780761719 99.7401123046875 C 117.02803802490234 106.9723892211914 113.25037384033203 117.62627410888672 110.99343872070312 130.1848907470703 C 111.80770111083984 142.7117156982422 115.90474700927734 153.02310180664062 123.64808654785156 159.26170349121094 C 134.80206298828125 159.73414611816406 147.8873748779297 155.57850646972656 162.2736053466797 148.29763793945312 C 175.69219970703125 138.10696411132812 188.20628356933594 127.19447326660156 202.1601104736328 119.96918487548828 C 218.8937225341797 117.71632385253906 236.0520782470703 115.04217529296875 252.54400634765625 110.28157806396484 C 267.9683837890625 102.63267517089844 281.3575134277344 95.5838394165039 292.3132629394531 90.56671905517578 C 301.1253356933594 88.516357421875 307.0728759765625 88.12345123291016 309.828369140625 88.70734405517578 C 309.1338806152344 89.67903137207031 306.0076599121094 89.9919662475586 301.61309814453125 89.45655822753906 C 296.9436340332031 88.16776275634766 293.3190612792969 85.77767944335938 291.72137451171875 82.76453399658203 C 292.65155029296875 79.5412826538086 294.2325439453125 76.37281799316406 264.9861755371094 69.88372039794922" stroke-width="0.0" fill="rgb(4, 2, 8)" opacity="0.9999958" stroke="rgb(32, 147, 179)" stroke-opacity="0.020377828" stroke-linecap="round" stroke-linejoin="round"/>
    <path d="M 439.08984375 290.9623718261719 C 440.153076171875 292.5519714355469 440.8374328613281 293.6867370605469 441.4261474609375 294.8466796875 C 441.9063415527344 296.06683349609375 442.2986145019531 297.10955810546875 442.64349365234375 298.090576171875 C 442.97222900390625 299.1609191894531 443.2699890136719 300.1306457519531 443.5233459472656 301.043212890625 C 443.7654724121094 302.0711669921875 444.0170593261719 303.16650390625 444.21484375 304.2149658203125 C 444.3873291015625 305.1742858886719 444.5382080078125 306.15435791015625 444.66796875 306.997314453125 C 444.88128662109375 307.66705322265625 445.0041809082031 308.3607482910156 445.0569152832031 309.085205078125 C 445.2524108886719 309.87542724609375 445.5179443359375 311.07464599609375 445.5674133300781 312.9624328613281 C 445.6694641113281 315.1954345703125 446.0445861816406 318.03814697265625 446.22650146484375 321.9277038574219 C 446.13421630859375 326.7231140136719 446.2524108886719 332.0400695800781 446.50933837890625 338.0745849609375 C 446.6072998046875 344.7480163574219 446.5126953125 351.8280029296875 446.3365783691406 359.14129638671875 C 446.2339172363281 366.53521728515625 446.11602783203125 373.81536865234375 445.7782897949219 381.0643615722656 C 445.3904113769531 388.1460876464844 445.2974548339844 395.09161376953125 445.3348388671875 401.88677978515625 C 445.3854064941406 408.7343444824219 445.6451110839844 415.70330810546875 446.02276611328125 422.78271484375 C 446.34625244140625 430.1634216308594 446.304443359375 437.5775451660156 445.9749755859375 445.0533142089844 C 445.20989990234375 452.8614196777344 443.6717834472656 460.4414978027344 441.57415771484375 467.6661376953125 C 438.607666015625 474.4689636230469 434.346435546875 479.4186706542969 429.13128662109375 482.4528503417969 C 423.2913818359375 483.3572998046875 417.89117431640625 481.84710693359375 412.85186767578125 478.0126953125 C 409.96044921875 471.1288757324219 409.3372802734375 462.73162841796875 409.5120544433594 454.0132751464844 C 410.9464416503906 446.17449951171875 409.1081237792969 440.7653503417969 405.1922607421875 438.41510009765625 C 401.4136962890625 438.86444091796875 398.8683166503906 442.7477111816406 398.0874938964844 449.4943542480469 C 397.80059814453125 457.4373474121094 398.0744934082031 465.7953186035156 397.9304504394531 473.6572265625 C 395.1211853027344 479.3919372558594 390.54803466796875 483.4217529296875 384.69158935546875 485.8325500488281 C 377.95269775390625 487.1050109863281 370.94744873046875 487.54119873046875 363.51910400390625 487.5310974121094 C 355.9417419433594 487.464599609375 348.59698486328125 487.46533203125 341.2311706542969 487.38323974609375 C 333.8155212402344 487.33026123046875 326.6901550292969 487.4241027832031 319.7376403808594 487.62139892578125 C 312.8218078613281 487.74444580078125 306.03143310546875 487.7500915527344 299.1794128417969 487.699462890625 C 292.2662048339844 487.5579833984375 285.3122253417969 487.37335205078125 278.30108642578125 487.251220703125 C 271.2508544921875 487.2547607421875 264.1163330078125 487.3768615722656 256.6199951171875 487.5848388671875 C 249.03407287597656 487.86676025390625 241.40907287597656 488.199462890625 233.59446716308594 488.252197265625 C 225.86375427246094 487.6526184082031 218.9656219482422 486.2777404785156 212.95465087890625 484.0868835449219 C 208.15074157714844 480.7346496582031 206.25254821777344 475.6101379394531 207.1387176513672 469.3961181640625 C 208.67140197753906 462.44427490234375 210.3626708984375 455.795166015625 211.81280517578125 450.3612976074219 C 213.94358825683594 447.4219970703125 216.49314880371094 447.1839294433594 219.1610870361328 450.06439208984375 C 221.70213317871094 456.0427551269531 225.01080322265625 462.9861755371094 229.40379333496094 469.662841796875 C 234.73031616210938 474.4600830078125 241.53848266601562 475.55450439453125 248.48670959472656 473.253662109375 C 254.77734375 470.1736145019531 259.1020812988281 464.537353515625 260.2760925292969 456.8470458984375 C 261.07275390625 448.9637145996094 260.070068359375 441.2488708496094 258.4847412109375 434.41546630859375 C 259.1589050292969 429.1493225097656 260.2276306152344 425.2824401855469 261.56121826171875 422.2818298339844 C 263.3467712402344 420.51220703125 266.6336364746094 419.151611328125 271.6141357421875 418.0069580078125 C 277.77777099609375 416.9365539550781 284.6553955078125 415.7591247558594 291.48419189453125 414.58575439453125 C 298.0341491699219 413.3520202636719 303.6559143066406 412.00848388671875 307.62237548828125 410.5921630859375 C 309.7208251953125 409.0583190917969 310.6293029785156 407.24639892578125 310.54193115234375 405.22650146484375 C 310.4974670410156 403.0847473144531 311.1717224121094 401.134033203125 313.4503479003906 399.0565185546875 C 317.33087158203125 397.6181335449219 322.4759216308594 396.7311096191406 328.44451904296875 396.4605712890625 C 334.6132507324219 396.4518127441406 340.3371887207031 396.9902038574219 344.5649108886719 397.93994140625 C 347.66162109375 399.31024169921875 349.65960693359375 401.373291015625 350.80413818359375 404.0768737792969 C 351.6579895019531 407.2127380371094 352.6882629394531 411.0889587402344 354.1736145019531 415.0674743652344 C 355.7860107421875 418.9567565917969 358.11724853515625 421.7734680175781 360.6683044433594 422.99603271484375 C 363.3086853027344 421.9644470214844 366.0021667480469 419.0037841796875 369.2384948730469 415.33251953125 C 373.59222412109375 412.0919494628906 378.48052978515625 409.35089111328125 383.9388122558594 407.2265319824219 C 390.05279541015625 405.545166015625 396.1552734375 403.7823486328125 402.2967224121094 401.4062805175781 C 408.1889953613281 398.2603454589844 413.454833984375 394.2095947265625 418.0098571777344 389.1002197265625 C 421.77557373046875 382.9386291503906 424.5295104980469 376.1946716308594 426.00933837890625 369.3983154296875 C 426.8440856933594 363.2852783203125 426.7773742675781 358.35223388671875 425.6794128417969 354.65679931640625 C 423.6888427734375 352.2569580078125 421.2074279785156 350.7557067871094 418.4052734375 349.1862487792969 C 415.767822265625 346.97491455078125 413.65087890625 343.9542236328125 412.407958984375 339.9731140136719 C 412.85272216796875 334.8689880371094 414.4401550292969 329.1129455566406 416.3830261230469 322.9455261230469 C 419.0204162597656 316.6246337890625 421.9951171875 310.9159851074219 424.8768615722656 306.5181579589844 C 427.9089660644531 303.1658020019531 430.8052978515625 300.6809997558594 433.3612060546875 298.9646301269531 C 435.4547424316406 297.57171630859375 437.2801818847656 296.0766906738281 439.08984375 290.9623718261719" stroke-width="0.0" fill="rgb(72, 128, 93)" opacity="0.99976414" stroke="rgb(148, 237, 218)" stroke-opacity="0.09554641" stroke-linecap="round" stroke-linejoin="round"/>
    <path d="M 2.4417266845703125 -0.496919184923172 C 2.819120168685913 -0.39488935470581055 3.157431125640869 -0.31727033853530884 3.3496453762054443 -0.3123917579650879 C 3.4521589279174805 -0.257772833108902 3.6636595726013184 -0.04712485149502754 3.993459939956665 0.056715551763772964 C 5.3152360916137695 -0.1541988104581833 8.088471412658691 -0.11313455551862717 12.731999397277832 -0.06791451573371887 C 19.953418731689453 -0.12332288175821304 29.409921646118164 -0.10241147875785828 41.0672607421875 -0.14379355311393738 C 54.7447624206543 -0.041603006422519684 69.80025482177734 -0.2429506480693817 85.65211486816406 -0.17541058361530304 C 101.88449096679688 -0.19626840949058533 117.98088073730469 -0.1273280680179596 133.5126495361328 -0.10598532855510712 C 148.27098083496094 0.2378733605146408 162.36517333984375 0.5529215335845947 175.74412536621094 0.7807002067565918 C 188.42115783691406 1.5643864870071411 200.96646118164062 2.4116599559783936 213.56614685058594 2.9546244144439697 C 226.1632080078125 3.828495740890503 238.849853515625 4.4934916496276855 251.724365234375 4.654918670654297 C 264.5301513671875 5.054536819458008 277.315673828125 4.948599815368652 290.38323974609375 4.172110557556152 C 304.04046630859375 2.854947566986084 318.37054443359375 1.1979408264160156 333.5125732421875 -0.30306732654571533 C 349.4925842285156 -1.9316134452819824 365.9222717285156 -3.2599399089813232 382.082763671875 -3.640817165374756 C 397.66448974609375 -2.928758144378662 411.539794921875 -0.7735464572906494 422.58367919921875 2.8688488006591797 C 429.4237365722656 8.885269165039062 431.2406921386719 15.940312385559082 427.7277526855469 24.09014129638672 C 418.6417541503906 31.463918685913086 405.2686462402344 37.92744064331055 388.7405700683594 43.633384704589844 C 370.96319580078125 47.356903076171875 354.1206970214844 50.75360870361328 340.05511474609375 53.9053840637207 C 332.1513366699219 58.829063415527344 330.90655517578125 64.17847442626953 336.3497009277344 69.29596710205078 C 347.6598205566406 71.82820892333984 362.4207763671875 73.2870101928711 378.9925231933594 74.5120620727539 C 395.6332702636719 76.66645812988281 410.9107666015625 79.50959014892578 424.230712890625 84.58417510986328 C 433.80474853515625 91.72976684570312 439.82489013671875 99.91971588134766 442.165771484375 108.50460052490234 C 441.2193908691406 116.59416198730469 437.2364196777344 122.85404205322266 430.4697265625 126.65184020996094 C 421.4730224609375 126.31466674804688 410.5223083496094 122.64774322509766 398.3219909667969 115.80436706542969 C 385.3801574707031 107.54026794433594 371.6023864746094 99.49864196777344 358.0496826171875 91.72772979736328 C 344.13275146484375 85.69538879394531 330.23895263671875 79.39263916015625 315.4084167480469 75.27316284179688 C 300.6056823730469 72.30746459960938 286.16094970703125 70.13655853271484 273.4015808105469 68.64752197265625 C 263.2590637207031 67.10673522949219 256.7020263671875 66.34062957763672 254.0928497314453 66.13175201416016 C 255.5821533203125 66.69630432128906 260.4248046875 68.33477783203125 267.9183654785156 71.29671478271484 C 276.2991638183594 75.75933074951172 285.2682189941406 80.47779083251953 294.0442199707031 84.86383819580078 C 301.8232116699219 87.93001556396484 307.834716796875 89.36892700195312 311.4910583496094 90.04517364501953 C 312.11798095703125 90.76982116699219 309.84954833984375 91.94939422607422 304.8804626464844 93.65665435791016 C 297.18890380859375 95.37432861328125 287.0211181640625 96.94416809082031 274.6168518066406 98.83682250976562 C 260.8522644042969 101.60357666015625 246.86798095703125 104.94056701660156 233.36155700683594 108.52600860595703 C 220.298583984375 112.67373657226562 208.2515411376953 117.3259048461914 196.3249969482422 122.92019653320312 C 183.9340057373047 130.0265350341797 171.07925415039062 137.6997528076172 157.9480743408203 145.2888946533203 C 144.6300506591797 151.8684539794922 132.183349609375 156.4012908935547 121.21182250976562 157.80885314941406 C 112.81729125976562 155.68600463867188 107.53911590576172 150.3565216064453 105.84039306640625 142.08477783203125 C 107.46009063720703 131.78150939941406 112.35275268554688 120.68719482421875 119.8615493774414 109.83493041992188 C 128.74810791015625 99.84147644042969 138.35618591308594 90.64942169189453 147.48544311523438 82.50590515136719 C 154.849853515625 76.04407501220703 159.71981811523438 71.26488494873047 161.46131896972656 68.17533874511719 C 159.8098907470703 66.09428405761719 154.86886596679688 63.929588317871094 147.53094482421875 61.3455696105957 C 138.6201629638672 58.90786361694336 128.8209228515625 56.52257537841797 119.12797546386719 54.171756744384766 C 110.68746948242188 52.22724914550781 103.72057342529297 51.83002853393555 98.72714233398438 54.0131721496582 C 95.46519470214844 58.898067474365234 93.64246368408203 66.05924224853516 93.37714385986328 74.16220092773438 C 93.73574829101562 81.68133544921875 95.56883239746094 88.13904571533203 97.83396911621094 93.31095123291016 C 100.42109680175781 98.15724182128906 103.14582061767578 103.27061462402344 105.10784149169922 109.3189926147461 C 105.94522094726562 117.20310974121094 106.09777069091797 127.33712005615234 104.07217407226562 138.8035888671875 C 99.21088409423828 150.6203155517578 90.91439819335938 161.77249145507812 80.01079559326172 171.42588806152344 C 66.88827514648438 179.87339782714844 53.02545166015625 187.68910217285156 39.88533020019531 195.14356994628906 C 28.553775787353516 202.49652099609375 19.70969009399414 209.7661590576172 12.520357131958008 217.2465057373047 C 7.177052021026611 225.2984161376953 4.447139263153076 234.56077575683594 4.027222633361816 245.25428771972656 C 4.899759292602539 256.29669189453125 5.264607906341553 266.8283386230469 5.02753210067749 276.23858642578125 C 4.643632888793945 283.6769714355469 4.2295708656311035 288.2198486328125 3.56416916847229 289.18743896484375 C 3.08720064163208 285.9711608886719 2.66322660446167 278.2068786621094 2.2338857650756836 266.6288146972656 C 1.66160249710083 252.17013549804688 1.1124329566955566 235.97816467285156 0.3313446044921875 220.16456604003906 C 0.5523231029510498 205.56227111816406 1.2040220499038696 192.68466186523438 2.357529401779175 181.720458984375 C 4.170650005340576 171.9034423828125 5.122199058532715 162.642333984375 4.800442695617676 153.51271057128906 C 3.6554007530212402 143.38916015625 2.149325132369995 132.41571044921875 0.4767018258571625 120.50347900390625 C -0.1502949595451355 107.16386413574219 -0.6585684418678284 92.67390441894531 -0.9190121293067932 77.16558837890625 C -1.0939174890518188 61.201866149902344 -1.478234887123108 44.947021484375 -1.831486701965332 28.515682220458984 C -1.5771907567977905 12.306607246398926 -1.4073436260223389 -3.9427478313446045 2.4417266845703125 -0.496919184923172" stroke-width="0.0" fill="rgb(148, 211, 234)" opacity="0.9997457" stroke="rgb(65, 79, 73)" stroke-opacity="0.97658587" stroke-linecap="round" stroke-linejoin="round"/>
    <path d="M 446.83184814453125 172.16770935058594 C 446.8344421386719 179.81004333496094 446.8525390625 187.53033447265625 446.935791015625 195.3670654296875 C 447.1215515136719 203.09695434570312 447.31982421875 210.73855590820312 447.4208984375 218.62913513183594 C 447.40313720703125 226.63250732421875 447.366455078125 234.66111755371094 447.2870178222656 243.04632568359375 C 446.9926452636719 251.6796112060547 446.3703918457031 260.2251281738281 445.31524658203125 268.3903503417969 C 443.72210693359375 276.14727783203125 441.5643005371094 283.19873046875 438.8816223144531 289.42340087890625 C 435.43109130859375 294.8882751464844 431.3775329589844 299.77545166015625 427.3611145019531 304.21514892578125 C 423.8460693359375 308.6338195800781 421.177734375 313.2485656738281 419.4021911621094 317.8346252441406 C 418.4654846191406 322.2737121582031 418.4306335449219 326.115234375 419.5313720703125 328.91595458984375 C 422.1709289550781 330.602294921875 425.69561767578125 331.5316162109375 429.30596923828125 331.65570068359375 C 432.39544677734375 331.4493408203125 434.54119873046875 331.3817138671875 435.62066650390625 332.2795104980469 C 436.0753173828125 334.5848388671875 435.8274841308594 338.5959777832031 435.30133056640625 344.1795349121094 C 434.71319580078125 351.2398376464844 434.1081848144531 359.5462646484375 433.3191223144531 368.2497863769531 C 432.397705078125 376.79364013671875 431.5745544433594 384.92315673828125 430.83172607421875 392.4898681640625 C 429.7771301269531 399.3011779785156 428.06829833984375 405.6331481933594 426.2385559082031 411.5995178222656 C 424.5556640625 417.0339050292969 423.0674743652344 422.1168212890625 422.05780029296875 426.69512939453125 C 421.39508056640625 430.6897277832031 420.58282470703125 433.78070068359375 419.4298400878906 435.7071228027344 C 417.4559631347656 436.88348388671875 414.191650390625 437.2348327636719 409.5243225097656 436.2865295410156 C 403.478515625 434.9232482910156 396.3009948730469 433.47027587890625 388.3861083984375 432.46868896484375 C 379.71209716796875 431.2092590332031 370.64093017578125 430.7249450683594 361.409912109375 430.5434265136719 C 352.2703552246094 430.9159851074219 343.54144287109375 431.4828796386719 335.6042785644531 432.08251953125 C 328.97821044921875 432.3645324707031 324.6361389160156 432.33538818359375 322.7649230957031 432.54058837890625 C 323.8845520019531 432.6957092285156 327.6326904296875 432.64654541015625 333.5044250488281 432.6582946777344 C 341.4528503417969 432.2099609375 350.7215576171875 431.5937805175781 360.94232177734375 431.1953125 C 371.28900146484375 431.0595397949219 381.16064453125 430.7757568359375 390.11480712890625 430.3070373535156 C 397.2182922363281 429.3746337890625 401.74566650390625 427.5660095214844 403.524658203125 425.0539245605469 C 401.8799133300781 422.0570983886719 397.3760986328125 419.5118408203125 391.1522521972656 417.7516784667969 C 384.1806640625 417.2793884277344 377.92303466796875 417.5279235839844 373.7762451171875 417.78094482421875 C 372.2033386230469 417.8206481933594 373.1286926269531 417.1127014160156 376.7828063964844 415.5475769042969 C 382.3671569824219 413.556640625 389.01495361328125 411.1805419921875 395.73211669921875 408.54364013671875 C 401.4910583496094 405.95062255859375 405.4248046875 403.81658935546875 406.7485046386719 402.6547546386719 C 405.08465576171875 402.7151184082031 400.7489929199219 403.8467712402344 394.48785400390625 405.6101989746094 C 387.18035888671875 407.4693298339844 380.3300476074219 408.822998046875 375.3924255371094 408.8181457519531 C 373.2305908203125 406.93011474609375 374.322509765625 402.90386962890625 378.3988952636719 396.97247314453125 C 384.4140319824219 389.4451599121094 391.6927185058594 380.89093017578125 399.61871337890625 372.2823181152344 C 407.1141357421875 364.37860107421875 411.3503112792969 357.0373840332031 411.0252990722656 351.47235107421875 C 407.4342956542969 349.7308349609375 401.7561340332031 352.63140869140625 394.68597412109375 359.255126953125 C 386.8365173339844 367.9976501464844 378.8050231933594 377.33514404296875 371.36895751953125 386.538330078125 C 364.8724060058594 395.41168212890625 359.5303649902344 403.7758483886719 355.1741638183594 410.9475402832031 C 350.7790222167969 416.6790771484375 346.23687744140625 421.1243591308594 341.0171203613281 424.0091552734375 C 334.9307861328125 425.9473571777344 328.271484375 426.7825012207031 321.0714416503906 426.7564392089844 C 313.3047180175781 426.2992858886719 305.1885986328125 425.3892517089844 297.0632629394531 424.2482604980469 C 289.0600891113281 423.31695556640625 281.4483947753906 422.42529296875 274.13873291015625 421.4156188964844 C 267.4133605957031 420.6679992675781 261.387451171875 420.2321472167969 256.09942626953125 419.9784851074219 C 251.9716796875 419.430908203125 249.181640625 418.4502258300781 247.77108764648438 417.30694580078125 C 248.29434204101562 415.6375427246094 250.23736572265625 413.3486328125 252.90516662597656 410.51031494140625 C 256.2222595214844 406.8263854980469 259.8301696777344 402.3452453613281 263.4813232421875 396.9054870605469 C 267.52313232421875 390.7490234375 271.88958740234375 384.22802734375 276.22943115234375 377.25946044921875 C 280.8387756347656 369.94146728515625 285.8360290527344 362.5459289550781 291.29595947265625 354.885009765625 C 296.66058349609375 347.18145751953125 301.4084777832031 339.65472412109375 305.7484436035156 332.3882141113281 C 310.1112365722656 325.1841735839844 314.43670654296875 318.2691345214844 318.7555847167969 310.9685363769531 C 322.42578125 303.9177551269531 325.315673828125 296.5149230957031 327.9925537109375 289.0494689941406 C 330.7882995605469 281.5002136230469 332.9918212890625 273.49822998046875 334.43902587890625 265.1281433105469 C 335.203369140625 256.7637023925781 335.9107971191406 249.21481323242188 337.7166442871094 243.51437377929688 C 341.13409423828125 240.00546264648438 345.5750732421875 238.24685668945312 349.77630615234375 237.30514526367188 C 353.1958312988281 235.11732482910156 356.1650085449219 232.26422119140625 358.9209289550781 228.8860321044922 C 362.1614685058594 225.00303649902344 366.29229736328125 221.31834411621094 371.2717590332031 217.86683654785156 C 377.164306640625 214.40452575683594 383.71270751953125 210.90184020996094 390.755859375 207.96878051757812 C 398.3857727050781 205.86190795898438 406.06658935546875 204.0285186767578 413.3602294921875 201.33168029785156 C 419.8207702636719 197.13211059570312 426.30426025390625 192.46543884277344 432.5672302246094 187.3770751953125 C 439.01739501953125 182.36224365234375 445.6834716796875 177.552978515625 446.83184814453125 172.16770935058594" stroke-width="0.0" fill="rgb(153, 213, 236)" opacity="0.99975467" stroke="rgb(143, 4, 170)" stroke-opacity="0.42014682" stroke-linecap="round" stroke-linejoin="round"/>
    <path d="M 266.9678955078125 201.0835418701172 C 267.2752990722656 200.57992553710938 267.4595642089844 200.1753387451172 267.6470031738281 199.90725708007812 C 268.07098388671875 200.10791015625 268.6574401855469 200.58070373535156 269.2927551269531 201.5165252685547 C 269.8297424316406 202.91783142089844 270.4967041015625 204.60389709472656 271.17633056640625 206.77835083007812 C 271.99560546875 208.9205780029297 273.0368957519531 211.03793334960938 274.0414733886719 213.28530883789062 C 275.0330810546875 215.5574188232422 276.213134765625 217.75709533691406 277.3824157714844 219.83172607421875 C 278.3306579589844 221.84548950195312 279.2374267578125 223.70590209960938 280.23681640625 225.34487915039062 C 281.0869445800781 226.86195373535156 281.8355712890625 228.34732055664062 282.7463684082031 229.82069396972656 C 283.61114501953125 231.36160278320312 284.32586669921875 232.89520263671875 285.1936340332031 234.50991821289062 C 285.8038024902344 236.35984802246094 286.59661865234375 238.43499755859375 287.3944396972656 240.5675048828125 C 288.1831970214844 242.82972717285156 288.7377014160156 244.8381805419922 289.3952331542969 246.8887939453125 C 290.0818786621094 248.78359985351562 290.38336181640625 250.6369171142578 291.0110778808594 252.2949676513672 C 291.407958984375 254.00340270996094 291.821044921875 255.96656799316406 292.3736572265625 257.8990783691406 C 292.81488037109375 259.909423828125 293.1478576660156 262.0082092285156 293.453369140625 264.1594543457031 C 293.7077331542969 266.294677734375 293.8646545410156 268.5292053222656 293.88739013671875 270.8690185546875 C 293.8811340332031 273.2857971191406 294.0671691894531 275.9064025878906 294.2077941894531 278.59014892578125 C 294.427978515625 281.0988464355469 294.6651306152344 283.7360534667969 294.4752197265625 286.3413391113281 C 294.38739013671875 288.62298583984375 293.978515625 290.6443176269531 293.18621826171875 292.55670166015625 C 292.5738220214844 294.3493347167969 291.7510986328125 296.22283935546875 290.6787414550781 298.3216857910156 C 289.49456787109375 300.6219482421875 288.1444396972656 302.93408203125 286.6175537109375 305.1553955078125 C 285.2505187988281 307.37310791015625 283.7054443359375 309.5255126953125 282.1614990234375 311.4675598144531 C 280.880859375 313.0002746582031 279.5694580078125 314.0699462890625 278.1912841796875 314.40118408203125 C 276.8035888671875 313.80340576171875 275.26611328125 312.8794250488281 273.4726257324219 312.2615051269531 C 271.4907531738281 311.8975830078125 269.66656494140625 311.904541015625 267.6077880859375 311.9414367675781 C 265.84942626953125 311.9776306152344 264.0719299316406 312.316650390625 262.5735168457031 312.6014099121094 C 261.35125732421875 312.8443908691406 260.4699401855469 313.32830810546875 259.891357421875 314.01593017578125 C 259.3543395996094 314.5355529785156 258.8677978515625 315.41033935546875 258.2747497558594 316.025634765625 C 257.4383544921875 316.8629150390625 256.2447814941406 317.5708312988281 254.67970275878906 318.4249267578125 C 252.94131469726562 319.1383056640625 251.10523986816406 319.9420166015625 248.98643493652344 320.7719421386719 C 246.69847106933594 321.3773498535156 244.44155883789062 322.15753173828125 242.3294219970703 322.5984191894531 C 240.15505981445312 323.38775634765625 237.75025939941406 323.7635498046875 235.366943359375 324.33892822265625 C 233.06106567382812 324.9853210449219 230.73541259765625 325.48162841796875 228.29177856445312 325.8260192871094 C 225.80426025390625 326.00933837890625 223.42984008789062 325.84814453125 221.12637329101562 325.72015380859375 C 218.78787231445312 325.6097106933594 216.74026489257812 325.48724365234375 214.92111206054688 325.5677795410156 C 213.01998901367188 325.912353515625 211.08609008789062 326.19366455078125 209.3564453125 326.32257080078125 C 207.94493103027344 325.9930725097656 206.8134765625 325.2486877441406 206.33030700683594 324.2599792480469 C 206.565185546875 323.1240539550781 207.00318908691406 322.2272644042969 207.6551055908203 321.3305358886719 C 208.1477813720703 320.7359619140625 208.18826293945312 320.26959228515625 207.7645263671875 319.7093811035156 C 206.86471557617188 319.1326599121094 205.60238647460938 318.6628723144531 204.1297607421875 318.0107116699219 C 202.88575744628906 317.2319030761719 201.65171813964844 316.4560546875 200.67359924316406 315.4209289550781 C 200.09234619140625 314.5436096191406 199.27818298339844 313.3202209472656 198.7705078125 312.0177917480469 C 198.4834442138672 310.4926452636719 198.07528686523438 308.87200927734375 197.45054626464844 307.17144775390625 C 196.8836212158203 305.4234619140625 196.1692352294922 303.5103759765625 195.34011840820312 301.4625549316406 C 194.3397979736328 299.361083984375 193.4495849609375 297.0320739746094 192.57467651367188 294.560546875 C 191.8356170654297 292.2077331542969 191.35052490234375 289.9493103027344 190.91017150878906 287.77239990234375 C 190.9378204345703 285.9151916503906 191.1573944091797 284.2044982910156 191.38804626464844 282.4801025390625 C 192.1000213623047 281.1269836425781 192.92872619628906 279.6080627441406 193.54820251464844 277.7377014160156 C 194.4293975830078 275.7270202636719 195.61764526367188 273.8050537109375 196.82037353515625 271.8785095214844 C 198.02381896972656 269.96075439453125 199.6373291015625 268.0060729980469 201.11611938476562 266.0256042480469 C 202.68917846679688 264.1675720214844 204.45484924316406 262.370361328125 205.99325561523438 260.5489807128906 C 207.5445098876953 258.61151123046875 209.29718017578125 256.5786437988281 211.27577209472656 254.526123046875 C 213.0756072998047 252.56729125976562 215.0574493408203 250.52870178222656 216.8690185546875 248.36363220214844 C 218.9028778076172 246.16732788085938 220.85897827148438 243.96905517578125 222.67718505859375 241.96632385253906 C 224.5771942138672 239.96031188964844 226.43983459472656 238.0059356689453 228.0743408203125 236.0800323486328 C 229.92286682128906 234.2084503173828 231.89913940429688 232.27613830566406 233.94290161132812 230.48387145996094 C 236.08956909179688 229.10560607910156 238.45327758789062 227.6629638671875 240.41990661621094 226.34628295898438 C 242.20025634765625 224.89736938476562 244.17018127441406 223.48703002929688 246.09243774414062 221.66073608398438 C 248.00762939453125 219.90396118164062 250.17063903808594 218.2316436767578 252.4951629638672 216.1248779296875 C 254.62838745117188 214.0032958984375 256.66162109375 211.97943115234375 258.4900817871094 209.8197479248047 C 260.36065673828125 207.7605743408203 261.8644104003906 205.74298095703125 263.3262634277344 203.52024841308594 C 265.08868408203125 201.18580627441406 266.5473327636719 199.1319580078125 266.9678955078125 201.0835418701172" stroke-width="0.0" fill="rgb(106, 113, 117)" opacity="0.99975157" stroke="rgb(93, 218, 172)" stroke-opacity="0.64346695" stroke-linecap="round" stroke-linejoin="round"/>
    <path d="M 98.08702087402344 36.65565490722656 C 98.17010498046875 37.11819076538086 98.34845733642578 37.54631423950195 98.6777572631836 38.05757141113281 C 99.07703399658203 38.63766860961914 99.66248321533203 39.247215270996094 100.17020416259766 40.00428771972656 C 100.73826599121094 40.80875015258789 101.16875457763672 41.807498931884766 101.10435485839844 42.99079132080078 C 100.8687515258789 44.232852935791016 100.77191925048828 45.47846221923828 100.89170837402344 46.81297302246094 C 101.51392364501953 48.33930206298828 103.05641174316406 49.95347595214844 105.67906951904297 51.490238189697266 C 109.87113189697266 52.85470199584961 115.24856567382812 54.05693817138672 121.36798095703125 55.130149841308594 C 128.1298370361328 56.20747375488281 134.7626953125 57.44115447998047 140.64073181152344 58.67856979370117 C 145.8979034423828 60.080810546875 150.393310546875 61.9583740234375 153.90179443359375 64.51142120361328 C 157.13169860839844 67.82850646972656 161.17788696289062 71.3957290649414 166.37945556640625 74.39779663085938 C 173.12838745117188 76.48593139648438 181.03977966308594 76.84935760498047 190.55398559570312 75.68633270263672 C 201.052734375 73.90663146972656 212.18235778808594 71.75663757324219 223.82493591308594 69.67003631591797 C 235.60888671875 68.69500732421875 247.16165161132812 68.7677230834961 258.2090148925781 69.47203826904297 C 268.39544677734375 71.07841491699219 277.2066650390625 72.46639251708984 284.1638488769531 73.3102798461914 C 289.1584777832031 74.54996490478516 292.2943115234375 77.19831848144531 294.3872985839844 81.20475769042969 C 297.6724853515625 84.50634002685547 301.8984375 86.91358184814453 306.8360290527344 88.30087280273438 C 312.1025695800781 88.3318862915039 316.86614990234375 88.24565887451172 320.0455017089844 88.8612060546875 C 320.4839782714844 89.99706268310547 317.7135314941406 91.44905090332031 311.7834777832031 92.85597229003906 C 303.2122497558594 93.906005859375 293.1947021484375 95.01952362060547 282.9533386230469 96.73075103759766 C 272.8395080566406 99.72044372558594 263.26483154296875 103.52284240722656 254.0522003173828 107.19542694091797 C 244.73434448242188 110.11064910888672 234.77452087402344 112.2309341430664 224.53260803222656 113.7282943725586 C 215.04736328125 114.7575454711914 207.64483642578125 116.98517608642578 203.4373016357422 120.4068603515625 C 203.90509033203125 125.76132202148438 208.37173461914062 133.025146484375 215.1177520751953 141.4866180419922 C 222.5806121826172 150.69677734375 229.1964111328125 160.4050750732422 233.8600616455078 169.70875549316406 C 235.9170684814453 177.94793701171875 234.8656768798828 184.89913940429688 230.7465362548828 190.34947204589844 C 223.7354278564453 194.40480041503906 214.24554443359375 197.77134704589844 202.93995666503906 201.01766967773438 C 190.46807861328125 204.72943115234375 177.47091674804688 209.42385864257812 164.61131286621094 215.27325439453125 C 152.45211791992188 221.76747131347656 141.416748046875 228.2095184326172 131.74264526367188 233.23716735839844 C 123.09261322021484 236.17672729492188 115.6009292602539 236.06759643554688 109.82146453857422 232.5231475830078 C 105.14726257324219 225.9033203125 101.65191650390625 217.23284912109375 99.69476318359375 207.48797607421875 C 100.0398941040039 197.38912963867188 102.52896118164062 187.7564239501953 107.74382019042969 179.45010375976562 C 115.21308898925781 172.53433227539062 124.7024154663086 166.93386840820312 135.85646057128906 162.38897705078125 C 147.7750244140625 158.38418579101562 159.3242645263672 154.1216583251953 169.56895446777344 149.2428741455078 C 177.84115600585938 144.2119903564453 183.525390625 139.38888549804688 186.06808471679688 135.4856414794922 C 185.21615600585938 133.91453552246094 181.4632110595703 134.83323669433594 175.19119262695312 137.91038513183594 C 167.0400390625 142.76780700683594 157.3692169189453 148.64044189453125 146.6294403076172 154.64654541015625 C 135.21841430664062 158.94805908203125 124.31442260742188 161.35299682617188 114.90042877197266 161.45571899414062 C 108.3609390258789 158.12135314941406 105.40750122070312 151.72544860839844 105.33238983154297 143.05548095703125 C 107.4117431640625 133.02853393554688 110.94617462158203 122.31260681152344 115.1123275756836 112.75521850585938 C 118.31733703613281 105.73041534423828 118.6631851196289 102.33851623535156 115.55630493164062 103.42387390136719 C 110.56986236572266 108.57347106933594 106.53943634033203 115.53749084472656 103.84017181396484 123.93406677246094 C 102.86859130859375 133.42083740234375 102.1910400390625 143.4648895263672 100.57315826416016 153.40582275390625 C 97.43585205078125 162.5108184814453 92.084716796875 170.68663024902344 84.41110229492188 177.5038604736328 C 74.8792953491211 183.39617919921875 64.02172088623047 187.88848876953125 53.327110290527344 191.02146911621094 C 43.49866485595703 193.7019500732422 35.601158142089844 197.2820281982422 29.798452377319336 202.48646545410156 C 25.491039276123047 208.5701141357422 21.876482009887695 214.51974487304688 19.014766693115234 220.21615600585938 C 17.416709899902344 226.347412109375 16.232213973999023 233.84205627441406 15.307454109191895 242.675537109375 C 14.333621978759766 252.6126708984375 12.769584655761719 263.604736328125 10.527204513549805 274.8982849121094 C 8.12405776977539 285.6485900878906 5.6608734130859375 294.5918884277344 3.4868834018707275 300.8435363769531 C 2.216456651687622 303.3536376953125 1.3698045015335083 301.3290100097656 1.1141575574874878 295.2838134765625 C 1.2331631183624268 285.968505859375 1.2090364694595337 274.5031433105469 0.8199106454849243 262.17938232421875 C 0.11434010416269302 249.82920837402344 -0.8162571787834167 237.6986083984375 -1.1361422538757324 225.7728729248047 C -0.6112166047096252 214.03379821777344 0.947559118270874 202.96725463867188 4.223928451538086 192.78231811523438 C 9.446651458740234 182.90162658691406 16.3985538482666 173.05462646484375 24.87767791748047 163.34364318847656 C 34.58786392211914 153.8549041748047 44.70811080932617 144.6371612548828 54.86299514770508 136.52761840820312 C 64.66327667236328 129.40493774414062 73.71531677246094 123.234375 81.34815979003906 117.79325866699219 C 87.2640380859375 112.78718566894531 91.61418151855469 108.20407104492188 94.41676330566406 104.37826538085938 C 96.45095825195312 101.35862731933594 97.73526000976562 98.75887298583984 98.19021606445312 96.15421295166016 C 98.09551239013672 93.2344970703125 97.56098175048828 89.52387237548828 96.6793212890625 84.55105590820312 C 95.2967300415039 78.0781021118164 93.88317108154297 69.66450500488281 92.436767578125 59.64373016357422 C 91.20662689208984 48.66826629638672 90.37397766113281 37.33701705932617 98.08702087402344 36.65565490722656" stroke-width="0.0" fill="rgb(184, 171, 194)" opacity="0.9997639" stroke="rgb(21, 145, 167)" stroke-opacity="0.5209323" stroke-linecap="round" stroke-linejoin="round"/>
    <path d="M 334.0986328125 86.5088882446289 C 333.3109436035156 86.77022552490234 332.5306396484375 87.05136108398438 332.00091552734375 87.4310302734375 C 332.06842041015625 87.7716293334961 332.79730224609375 87.86028289794922 334.3209533691406 88.4066390991211 C 336.955322265625 88.95068359375 340.70208740234375 90.0401382446289 345.26068115234375 91.96794128417969 C 350.8674011230469 94.6378402709961 357.37274169921875 97.78746795654297 364.8235778808594 101.82711029052734 C 373.0608215332031 106.27861785888672 381.88616943359375 111.56747436523438 390.9199523925781 117.20838928222656 C 399.9172668457031 123.59952545166016 408.6956481933594 130.36611938476562 416.8627014160156 136.97836303710938 C 423.6929626464844 143.32745361328125 428.5397033691406 149.42063903808594 430.94415283203125 154.3531951904297 C 430.4533386230469 158.21347045898438 427.4265441894531 160.76602172851562 422.04010009765625 162.2506866455078 C 414.8319396972656 162.7926025390625 406.645263671875 162.4470672607422 398.2648010253906 162.30027770996094 C 390.5670471191406 162.24453735351562 384.0901794433594 162.51669311523438 379.1841735839844 163.2640380859375 C 376.1456604003906 164.68417358398438 374.6968994140625 166.55088806152344 374.2367248535156 168.2991180419922 C 373.7195129394531 169.62823486328125 372.7430419921875 169.59329223632812 371.03363037109375 168.19033813476562 C 368.4338073730469 166.0088348388672 364.9144287109375 164.21133422851562 360.2403564453125 163.51809692382812 C 354.35552978515625 163.58323669433594 347.4099426269531 164.4047088623047 339.4593505859375 165.60862731933594 C 330.91253662109375 166.88165283203125 322.3724365234375 168.69064331054688 313.6839599609375 171.09341430664062 C 304.87921142578125 173.25048828125 296.1468200683594 175.60971069335938 287.7826232910156 178.09498596191406 C 279.7233581542969 180.3521270751953 272.5145568847656 182.55014038085938 266.6077880859375 185.19288635253906 C 262.2784729003906 187.97259521484375 259.6025390625 191.0012969970703 258.2935485839844 194.05755615234375 C 257.4306335449219 196.19635009765625 256.3987731933594 196.88528442382812 254.50906372070312 196.21661376953125 C 252.02027893066406 194.484619140625 248.7359619140625 193.1490020751953 244.374755859375 192.85772705078125 C 238.9950408935547 193.3863525390625 232.63587951660156 194.8055419921875 225.89073181152344 196.67083740234375 C 218.93496704101562 198.81549072265625 211.5980987548828 201.3186492919922 203.6507110595703 203.94056701660156 C 195.2853240966797 206.48635864257812 186.49343872070312 209.596435546875 177.4901885986328 213.1284637451172 C 168.59451293945312 216.60572814941406 159.9221649169922 220.80259704589844 151.43673706054688 225.2321319580078 C 143.28665161132812 229.5459747314453 135.67724609375 233.79959106445312 128.56715393066406 237.87713623046875 C 122.22395324707031 241.38294982910156 117.17638397216797 244.9617462158203 113.83845520019531 248.2519073486328 C 112.64794921875 251.67747497558594 112.11188507080078 254.45724487304688 111.12007141113281 256.098388671875 C 109.33506774902344 256.53033447265625 106.6605453491211 256.1148986816406 102.9536361694336 255.4060821533203 C 98.36598205566406 255.8737030029297 92.98115539550781 257.2977294921875 86.81771850585938 259.3089599609375 C 79.71711730957031 262.1968994140625 71.75775146484375 265.8639831542969 63.24091720581055 270.54730224609375 C 54.5035285949707 276.38031005859375 45.80897903442383 282.3815612792969 37.817867279052734 288.2700500488281 C 31.202442169189453 292.6836853027344 25.759017944335938 294.671630859375 21.461650848388672 294.2464294433594 C 18.838268280029297 291.9481201171875 17.43302345275879 288.3250732421875 16.788387298583984 284.18365478515625 C 16.537586212158203 280.56195068359375 15.88652229309082 278.91217041015625 14.824191093444824 280.2357482910156 C 13.771270751953125 284.32855224609375 13.017997741699219 290.412353515625 12.683854103088379 297.57708740234375 C 13.069217681884766 304.6548156738281 14.04694938659668 310.5108337402344 14.64503002166748 314.72979736328125 C 14.097376823425293 316.9763488769531 12.579596519470215 317.132568359375 10.27868366241455 315.9871520996094 C 7.736446857452393 314.00634765625 5.588550567626953 311.3112487792969 3.488659620285034 308.2945556640625 C 1.9109874963760376 304.8120422363281 0.5416365265846252 300.4150695800781 -0.2988293766975403 295.1125793457031 C -1.0028687715530396 288.7776794433594 -1.5390889644622803 281.4234313964844 -1.970047950744629 273.10595703125 C -2.404409646987915 264.31085205078125 -2.446927309036255 255.42274475097656 -1.7116000652313232 246.71603393554688 C 0.0609760582447052 238.8270721435547 3.64361572265625 232.31613159179688 8.534658432006836 227.02883911132812 C 14.223231315612793 223.08688354492188 20.657089233398438 220.22898864746094 26.753490447998047 217.43814086914062 C 31.78057289123535 214.0494842529297 35.803977966308594 210.39044189453125 39.236026763916016 207.00201416015625 C 42.5831298828125 203.94610595703125 46.7071647644043 201.18963623046875 51.56269836425781 198.34799194335938 C 57.1472053527832 195.38674926757812 63.555233001708984 192.1028594970703 70.54790496826172 188.5128173828125 C 77.71183013916016 184.9268035888672 84.47150421142578 181.32460021972656 90.32594299316406 177.89620971679688 C 95.14192962646484 174.91427612304688 99.1193618774414 172.2952423095703 102.80992889404297 170.20513916015625 C 106.45440673828125 168.6864776611328 111.01715087890625 167.494873046875 116.58229064941406 166.3583221435547 C 123.14607238769531 164.96011352539062 131.06741333007812 163.16107177734375 139.8784637451172 160.79457092285156 C 149.05487060546875 157.5766143798828 158.30166625976562 153.54295349121094 167.2324981689453 148.63729858398438 C 175.16082763671875 142.84207153320312 181.4949188232422 136.5673828125 186.5244140625 130.322509765625 C 191.11245727539062 125.17385864257812 195.3292694091797 121.70277404785156 199.6089630126953 120.36221313476562 C 204.3577423095703 120.67828369140625 209.43104553222656 121.45530700683594 214.87554931640625 122.2887954711914 C 220.88385009765625 122.5745849609375 227.58384704589844 121.8447036743164 234.68563842773438 120.14546203613281 C 242.09011840820312 117.62505340576172 249.86488342285156 114.61540985107422 257.8927307128906 111.58561706542969 C 265.7649230957031 109.15570068359375 273.0986328125 107.18743896484375 279.8298034667969 105.61273193359375 C 285.86151123046875 103.86196899414062 291.5845947265625 102.03569030761719 297.4290466308594 100.02610778808594 C 303.693603515625 97.84454345703125 310.3113708496094 95.76118469238281 317.3531188964844 94.12015533447266 C 324.87481689453125 92.73086547851562 332.7681579589844 91.34608459472656 334.0986328125 86.5088882446289" stroke-width="0.0" fill="rgb(101, 42, 83)" opacity="0.9997461" stroke="rgb(159, 244, 155)" stroke-opacity="0.06990216" stroke-linecap="round" stroke-linejoin="round"/>
  </g>
</svg>
