<?xml version="1.0" ?>
<svg xmlns="http://www.w3.org/2000/svg" version="1.1" width="438" height="481">
  <defs/>
  <g>
    <path d="M 265.0203552246094 69.86248016357422 C 272.4084167480469 69.82477569580078 279.4535217285156 70.44725036621094 286.6804504394531 71.55171203613281 C 294.70416259765625 72.52335357666016 303.80438232421875 74.06794738769531 314.3008728027344 76.58071899414062 C 326.4364013671875 79.51968383789062 339.5705871582031 83.88739776611328 354.0722351074219 89.4564437866211 C 368.6833801269531 98.49088287353516 384.0142822265625 108.6156997680664 400.2911682128906 119.34906768798828 C 415.4292907714844 130.52883911132812 428.46136474609375 142.1505126953125 437.6383972167969 154.45266723632812 C 439.47930908203125 167.61648559570312 435.5417175292969 179.90225219726562 426.86553955078125 190.9642333984375 C 416.03936767578125 200.33888244628906 403.3192443847656 206.9310302734375 390.6618347167969 211.1475372314453 C 379.39984130859375 215.974365234375 369.2018127441406 220.6669921875 360.6488037109375 226.34405517578125 C 353.29742431640625 233.14361572265625 346.3020324707031 240.947998046875 340.1297607421875 250.2064208984375 C 335.77899169921875 262.35748291015625 332.0669250488281 276.51806640625 327.2792053222656 291.6606140136719 C 320.91253662109375 307.8191833496094 312.193115234375 323.0050354003906 301.930419921875 338.8390197753906 C 291.1026306152344 354.8063049316406 280.1690368652344 368.97100830078125 271.1092834472656 382.8197937011719 C 264.38848876953125 395.44293212890625 258.3072204589844 404.79510498046875 252.42515563964844 411.4921569824219 C 248.10028076171875 416.7280578613281 244.8208465576172 421.5037841796875 243.12255859375 426.77471923828125 C 242.15481567382812 432.7881164550781 240.6822509765625 439.4351501464844 238.19261169433594 445.7973937988281 C 234.72586059570312 450.19012451171875 230.79835510253906 451.98724365234375 227.3081512451172 449.4954528808594 C 223.6628875732422 442.3357238769531 221.0032196044922 431.89208984375 219.85986328125 418.7378234863281 C 218.15504455566406 403.9444274902344 215.2808837890625 388.714599609375 213.47314453125 373.9771423339844 C 208.57052612304688 362.23309326171875 204.81507873535156 353.6134338378906 208.30313110351562 347.2815856933594 C 219.50498962402344 341.3309326171875 235.49012756347656 336.7212219238281 252.7985382080078 331.6786193847656 C 267.23736572265625 324.92669677734375 275.92559814453125 318.1084899902344 276.5998840332031 312.4186096191406 C 268.892578125 311.9825439453125 255.83685302734375 314.2489013671875 239.31809997558594 316.9329528808594 C 222.3074493408203 319.1738586425781 207.39434814453125 321.3431396484375 195.2744903564453 324.4303283691406 C 188.3557586669922 331.51904296875 183.95669555664062 340.234130859375 178.0205535888672 346.7770690917969 C 167.59165954589844 347.9398193359375 156.07359313964844 347.45501708984375 145.60337829589844 349.7846984863281 C 138.19192504882812 358.3104248046875 134.6442108154297 369.3749084472656 135.1990203857422 381.378173828125 C 139.5092010498047 392.5802001953125 141.39219665527344 403.29620361328125 138.88104248046875 414.90081787109375 C 136.3619384765625 428.2991638183594 133.59446716308594 442.7474060058594 131.9760284423828 457.7611389160156 C 130.2198028564453 471.47467041015625 122.50904083251953 482.55926513671875 111.32917022705078 490.4244384765625 C 96.92953491210938 495.3656921386719 80.25196838378906 497.2655334472656 62.495296478271484 496.2864685058594 C 44.75354766845703 492.85101318359375 28.268770217895508 487.4698181152344 14.486875534057617 480.3250732421875 C 4.477858066558838 472.2936096191406 -0.4385383427143097 463.6511535644531 0.11507584899663925 455.1142883300781 C 5.349562168121338 447.1003112792969 13.832291603088379 440.3245544433594 23.937503814697266 435.3621520996094 C 33.56842041015625 431.616455078125 40.03390884399414 428.32928466796875 41.96025085449219 424.4841613769531 C 38.1661262512207 421.1019592285156 30.390954971313477 417.11102294921875 21.147661209106445 412.1592712402344 C 13.136913299560547 406.98516845703125 8.64295768737793 402.24267578125 8.687026023864746 397.9364013671875 C 13.187414169311523 394.61712646484375 21.436193466186523 391.88153076171875 32.368370056152344 389.64337158203125 C 44.346622467041016 386.7835693359375 55.69394302368164 383.37237548828125 65.53568267822266 379.5916442871094 C 72.65522766113281 372.7037353515625 77.67936706542969 365.556640625 81.30023956298828 358.04742431640625 C 84.69327545166016 352.0804138183594 85.65229797363281 347.7311706542969 82.07638549804688 345.6610412597656 C 73.59019470214844 345.3778991699219 61.33422088623047 347.1595153808594 46.30131530761719 349.826416015625 C 31.105806350708008 354.7668762207031 17.08370590209961 359.02716064453125 5.4140238761901855 361.5717468261719 C -1.8485422134399414 358.1672058105469 -5.552205562591553 350.0653381347656 -6.678177833557129 338.06939697265625 C -6.752232074737549 323.1544494628906 -6.174121856689453 306.4339904785156 -5.346097946166992 288.81036376953125 C -4.403817176818848 271.35455322265625 -2.8335323333740234 254.4920196533203 -0.26821717619895935 238.70895385742188 C 4.80847692489624 224.9639892578125 11.840418815612793 213.0681610107422 21.236875534057617 203.94740295410156 C 33.082942962646484 198.25885009765625 47.03965377807617 194.81765747070312 61.55178451538086 190.83615112304688 C 75.93485260009766 184.14666748046875 88.07228088378906 173.9635467529297 97.43257141113281 160.21884155273438 C 103.26957702636719 143.9747772216797 107.02083587646484 127.53162384033203 111.39495849609375 113.41104888916016 C 115.11979675292969 103.04122161865234 118.1960220336914 98.06015014648438 119.58948516845703 99.74140930175781 C 117.03053283691406 106.97538757324219 113.25959777832031 117.63063049316406 110.9971694946289 130.18902587890625 C 111.80770111083984 142.7117156982422 115.90486145019531 153.02301025390625 123.65015411376953 159.2593536376953 C 134.8061065673828 159.74130249023438 147.9005584716797 155.5966339111328 162.2843017578125 148.32354736328125 C 175.69044494628906 138.10491943359375 188.20819091796875 127.19837188720703 202.15960693359375 119.95286560058594 C 218.89031982421875 117.66742706298828 236.03985595703125 114.99629211425781 252.50701904296875 110.1867446899414 C 267.97088623046875 102.64749145507812 281.3597717285156 95.5966567993164 292.3139343261719 90.56912994384766 C 301.1253356933594 88.5157241821289 307.0728759765625 88.1220703125 309.8281555175781 88.7064437866211 C 309.1338806152344 89.67896270751953 306.0076599121094 89.9919662475586 301.61309814453125 89.45655822753906 C 296.9436340332031 88.16776275634766 293.3190612792969 85.77759552001953 291.7220764160156 82.76505279541016 C 292.651123046875 79.54454803466797 294.2318115234375 76.3725814819336 265.0203552246094 69.86248016357422" stroke-width="0.0" fill="rgb(4, 2, 8)" opacity="0.9999958" stroke="rgb(32, 147, 179)" stroke-opacity="0.020377828" stroke-linecap="round" stroke-linejoin="round"/>
    <path d="M 439.3672180175781 291.08233642578125 C 440.19805908203125 292.5823669433594 440.86181640625 293.73388671875 441.4155578613281 294.7954406738281 C 441.8860778808594 296.0321350097656 442.3092041015625 297.16229248046875 442.6617431640625 298.10888671875 C 442.9637756347656 299.1252746582031 443.2530212402344 300.13909912109375 443.5213623046875 301.05535888671875 C 443.784423828125 302.0688171386719 444.018798828125 303.15814208984375 444.2027587890625 304.19622802734375 C 444.3865661621094 305.2062072753906 444.53497314453125 306.1855163574219 444.6761779785156 306.987060546875 C 444.8846130371094 307.6882019042969 445.001220703125 308.40142822265625 445.0540466308594 309.0688781738281 C 445.2561340332031 309.8603515625 445.4942932128906 311.10888671875 445.57421875 312.9219665527344 C 445.69873046875 315.1660461425781 446.0047912597656 318.0791320800781 446.20184326171875 321.9121398925781 C 446.17364501953125 326.65899658203125 446.2702331542969 332.040283203125 446.4691467285156 338.08709716796875 C 446.5677185058594 344.7354736328125 446.5242919921875 351.824951171875 446.4062805175781 359.1672668457031 C 446.260009765625 366.5391845703125 446.0403137207031 373.84771728515625 445.7490234375 381.0634460449219 C 445.49456787109375 388.1788330078125 445.3341369628906 395.0827331542969 445.2417297363281 401.8857421875 C 445.2935485839844 408.7113342285156 445.63824462890625 415.6935119628906 446.056884765625 422.8103942871094 C 446.25433349609375 430.1295166015625 446.26953125 437.5498962402344 446.0587158203125 445.0984802246094 C 445.2332458496094 452.7855224609375 443.6717834472656 460.34478759765625 441.4078369140625 467.6182556152344 C 438.2943420410156 474.2335205078125 434.1044006347656 479.1778869628906 428.963623046875 482.2943115234375 C 423.3387451171875 483.35540771484375 417.9711608886719 481.7704162597656 413.5069885253906 477.6343688964844 C 410.78143310546875 471.08349609375 409.98492431640625 462.757080078125 410.42803955078125 454.04852294921875 C 410.71051025390625 446.2021789550781 409.0303649902344 440.67437744140625 405.302734375 438.1908874511719 C 401.393310546875 438.82928466796875 398.8212585449219 442.80682373046875 397.83575439453125 449.5061950683594 C 397.8982238769531 457.5047607421875 398.1179504394531 465.8172912597656 397.3864440917969 473.33563232421875 C 394.785400390625 479.133544921875 390.4062805175781 483.2639465332031 384.6671447753906 485.7820129394531 C 377.9024658203125 487.0726623535156 370.8988342285156 487.476318359375 363.5444641113281 487.4477844238281 C 355.9478759765625 487.4013366699219 348.5611877441406 487.435302734375 341.2358093261719 487.4234924316406 C 333.7962951660156 487.3658142089844 326.62176513671875 487.3656921386719 319.7456359863281 487.54266357421875 C 312.89642333984375 487.76507568359375 306.03076171875 487.8511657714844 299.1415710449219 487.7593078613281 C 292.21429443359375 487.5343322753906 285.3415222167969 487.3337097167969 278.3239440917969 487.27044677734375 C 271.23486328125 487.2726135253906 264.08099365234375 487.30010986328125 256.7057189941406 487.5055236816406 C 249.0906982421875 487.877197265625 241.38046264648438 488.15875244140625 233.6029510498047 488.158935546875 C 226.00430297851562 487.6719055175781 219.0330810546875 486.3814392089844 213.15260314941406 483.9425964355469 C 208.98085021972656 480.2384948730469 207.06898498535156 475.3216247558594 207.1592254638672 469.2608642578125 C 208.50927734375 462.3978576660156 210.23370361328125 455.7787780761719 211.9598846435547 450.45068359375 C 214.0247344970703 447.5682678222656 216.3986358642578 447.4037780761719 218.9742889404297 450.24884033203125 C 221.64559936523438 455.97674560546875 224.95274353027344 462.986328125 229.197509765625 469.6477966308594 C 234.85784912109375 474.0600891113281 241.55934143066406 475.34716796875 248.6046600341797 473.66009521484375 C 254.54873657226562 469.8656311035156 258.7651672363281 464.15997314453125 260.7024230957031 456.82635498046875 C 260.69097900390625 448.85406494140625 259.913330078125 441.1724548339844 259.24652099609375 434.42364501953125 C 259.3512268066406 428.9691467285156 260.0937805175781 425.06591796875 261.4432373046875 422.3900451660156 C 263.29364013671875 420.5749206542969 266.60723876953125 419.1918640136719 271.5340881347656 418.019287109375 C 277.8003234863281 416.9425354003906 284.6766662597656 415.78851318359375 291.55419921875 414.5549011230469 C 298.0735168457031 413.4043273925781 303.6533203125 412.0562438964844 307.688232421875 410.551513671875 C 309.8823547363281 409.1068420410156 310.6273498535156 407.1882019042969 310.5076904296875 405.2967834472656 C 310.49908447265625 403.0876770019531 311.0818786621094 401.1266174316406 313.3274841308594 399.04376220703125 C 317.2952575683594 397.6128234863281 322.4917297363281 396.7413024902344 328.4264831542969 396.4434814453125 C 334.62005615234375 396.4283447265625 340.381103515625 397.0497131347656 344.6628723144531 397.9229736328125 C 347.7423400878906 399.2490539550781 349.6680908203125 401.44140625 350.7511901855469 404.00738525390625 C 351.6131286621094 407.21929931640625 352.6150817871094 411.020263671875 353.92333984375 415.0835876464844 C 355.6061096191406 419.0668640136719 357.93865966796875 421.87335205078125 360.6919250488281 423.0563659667969 C 363.3122253417969 422.05902099609375 366.26751708984375 419.1374206542969 369.56695556640625 415.53875732421875 C 373.6182861328125 412.09521484375 378.4385070800781 409.2289733886719 383.9226379394531 407.1594543457031 C 389.9928894042969 405.4337463378906 396.22943115234375 403.67095947265625 402.3431396484375 401.4438171386719 C 408.14013671875 398.3633117675781 413.4429626464844 394.2924499511719 418.04107666015625 389.1417236328125 C 421.7873229980469 382.9495544433594 424.5037536621094 376.19366455078125 426.0379943847656 369.426025390625 C 426.8677673339844 363.2355041503906 426.7442932128906 358.2309265136719 425.6379699707031 354.60504150390625 C 423.7438049316406 352.1554260253906 421.2727355957031 350.72650146484375 418.4631652832031 349.2052307128906 C 415.815673828125 347.00921630859375 413.65789794921875 344.009521484375 412.4476013183594 339.91497802734375 C 412.85101318359375 334.9367980957031 414.46490478515625 329.1845703125 416.38739013671875 322.9462890625 C 418.9978332519531 316.6082458496094 421.9569396972656 310.8563232421875 424.88519287109375 306.3938293457031 C 427.9362487792969 303.1211853027344 430.83050537109375 300.7364807128906 433.3478698730469 298.9994812011719 C 435.5345458984375 297.5937194824219 437.3691711425781 296.2768859863281 439.3672180175781 291.08233642578125" stroke-width="0.0" fill="rgb(72, 128, 93)" opacity="0.99976367" stroke="rgb(148, 237, 218)" stroke-opacity="0.09554641" stroke-linecap="round" stroke-linejoin="round"/>
    <path d="M 2.426180362701416 -0.4505525529384613 C 2.7681267261505127 -0.40618669986724854 3.191206455230713 -0.3794480562210083 3.38287353515625 -0.3005739748477936 C 3.4956767559051514 -0.17266784608364105 3.7142670154571533 -0.02349693886935711 4.017887115478516 0.08455702662467957 C 5.25629186630249 0.07291312515735626 8.027595520019531 0.05709122121334076 12.698580741882324 0.09526000916957855 C 19.900774002075195 0.0707106962800026 29.34359359741211 0.01902938261628151 41.01786804199219 0.05691919103264809 C 54.70785140991211 0.061561618000268936 69.80323028564453 -0.19046495854854584 85.67940521240234 -0.26626843214035034 C 101.90394592285156 -0.17302878201007843 118.02993774414062 -0.11359414458274841 133.55844116210938 0.1119992733001709 C 148.28060913085938 0.3064880967140198 162.40138244628906 0.6094543933868408 175.69883728027344 0.9518013000488281 C 188.3751220703125 1.7304415702819824 200.9343719482422 2.506929636001587 213.51901245117188 3.3534693717956543 C 226.1256103515625 4.029358863830566 238.84815979003906 4.568042278289795 251.76292419433594 5.141866207122803 C 264.4991455078125 5.440399169921875 277.2959899902344 5.1064300537109375 290.4748840332031 4.401144981384277 C 304.0798645019531 3.152480125427246 318.29443359375 1.5361515283584595 333.4066467285156 -0.15604564547538757 C 349.4297180175781 -1.8313435316085815 365.8882751464844 -3.17676043510437 382.068115234375 -3.6820902824401855 C 397.6257629394531 -2.9911751747131348 411.4762878417969 -0.6561947464942932 422.458984375 3.229501485824585 C 429.31427001953125 8.818902015686035 431.3191223144531 15.960378646850586 427.610107421875 23.76905632019043 C 418.5584411621094 31.278400421142578 405.2616882324219 37.78166961669922 388.6127624511719 43.242366790771484 C 370.89666748046875 47.038177490234375 354.04443359375 50.384952545166016 340.3488464355469 54.1749382019043 C 332.1922302246094 58.940216064453125 330.97296142578125 64.20824432373047 336.5528869628906 68.8118667602539 C 347.6410217285156 71.9416732788086 362.44146728515625 73.66474914550781 378.9811706542969 74.97000885009766 C 395.6474304199219 76.89044189453125 410.8475646972656 80.0645523071289 423.8637390136719 84.96016693115234 C 433.6387023925781 91.76639556884766 439.6383972167969 100.02245330810547 442.08770751953125 108.65667724609375 C 441.1375427246094 116.598388671875 437.12396240234375 122.78218841552734 430.4267272949219 126.06453704833984 C 421.63421630859375 125.9222183227539 410.75048828125 122.26506042480469 398.4384765625 115.51780700683594 C 385.3285217285156 107.49689483642578 371.55126953125 99.41287994384766 357.90753173828125 91.77228546142578 C 344.3675842285156 84.85263061523438 330.51861572265625 78.9219970703125 315.7471923828125 74.74470520019531 C 300.6716613769531 71.85982513427734 286.2673645019531 69.81807708740234 273.4207763671875 68.3774185180664 C 263.1784973144531 67.0604248046875 256.636962890625 66.20414733886719 253.95651245117188 66.17642211914062 C 255.4048309326172 66.95915222167969 260.3432312011719 68.43590545654297 267.7532958984375 71.41899108886719 C 276.3511962890625 75.70568084716797 285.2769775390625 80.53739929199219 294.06134033203125 84.83973693847656 C 301.8394775390625 87.95118713378906 307.8504333496094 89.42863464355469 311.5658874511719 90.0088119506836 C 312.0423889160156 90.65689849853516 309.7484130859375 91.892333984375 304.8465576171875 93.4106674194336 C 297.2267761230469 95.03720092773438 287.02099609375 96.63375091552734 274.5655822753906 98.73072814941406 C 260.8276672363281 101.66067504882812 246.80078125 104.93045806884766 233.2819366455078 108.56896209716797 C 220.21717834472656 112.63557434082031 208.28652954101562 117.14166259765625 196.31968688964844 122.79411315917969 C 183.89511108398438 129.80551147460938 171.1074981689453 137.61492919921875 157.95677185058594 145.2912139892578 C 144.6946563720703 151.88189697265625 132.09808349609375 156.4227752685547 121.2766342163086 157.79327392578125 C 112.75672149658203 155.68028259277344 107.5801773071289 150.39781188964844 105.9052505493164 142.10211181640625 C 107.5053482055664 131.76455688476562 112.40160369873047 120.72551727294922 119.85955810546875 109.79365539550781 C 128.80191040039062 99.84906005859375 138.42784118652344 90.74002075195312 147.5513458251953 82.5933837890625 C 154.89418029785156 75.98395538330078 159.8229522705078 71.25537872314453 161.6503448486328 68.18487548828125 C 159.92849731445312 66.08638763427734 154.94830322265625 63.99069595336914 147.6243133544922 61.52682876586914 C 138.6014404296875 58.9305419921875 128.74778747558594 56.45568084716797 119.12013244628906 54.03013229370117 C 110.635986328125 52.1900634765625 103.71456146240234 51.856685638427734 98.72290802001953 53.88984298706055 C 95.49374389648438 58.855384826660156 93.58474731445312 66.06602478027344 93.0723648071289 74.17527770996094 C 93.87825775146484 81.7507553100586 95.55231475830078 88.18057250976562 97.71085357666016 93.45425415039062 C 100.36720275878906 98.1950454711914 103.12640380859375 103.15715789794922 105.21774291992188 109.17733001708984 C 106.08003234863281 117.099609375 106.02544403076172 127.28665161132812 103.95974731445312 138.84783935546875 C 99.07219696044922 150.56637573242188 90.98562622070312 161.69512939453125 79.96549987792969 171.47906494140625 C 66.94791412353516 179.8562774658203 53.00691604614258 187.68260192871094 39.7437744140625 195.16940307617188 C 28.4862117767334 202.45932006835938 19.699140548706055 209.7379608154297 12.562028884887695 217.2040557861328 C 7.279654026031494 225.23777770996094 4.594343662261963 234.59866333007812 4.343203067779541 245.21336364746094 C 5.009547710418701 256.27703857421875 5.407048225402832 266.8221740722656 5.0613837242126465 276.236572265625 C 4.549261569976807 283.69561767578125 4.19479513168335 288.2978820800781 3.61448073387146 289.3137512207031 C 3.021885633468628 286.0564270019531 2.5891404151916504 278.31512451171875 2.1176018714904785 266.7344970703125 C 1.6355159282684326 252.1854705810547 1.2299129962921143 235.84104919433594 0.662635326385498 219.97109985351562 C 0.560470700263977 205.43075561523438 1.2670379877090454 192.6649932861328 2.660094738006592 181.7191619873047 C 4.273106098175049 171.85720825195312 5.145028591156006 162.75660705566406 4.864956855773926 153.4724578857422 C 3.761305332183838 143.37574768066406 2.2798409461975098 132.3938446044922 0.8864558935165405 120.50872802734375 C -0.0867651030421257 107.18446350097656 -0.6325449347496033 92.70256042480469 -0.9395843148231506 77.18310546875 C -1.0915498733520508 61.1285285949707 -1.4000284671783447 44.90541076660156 -1.8473502397537231 28.52907371520996 C -1.6677167415618896 12.209864616394043 -1.2715623378753662 -3.7564139366149902 2.426180362701416 -0.4505525529384613" stroke-width="0.0" fill="rgb(148, 211, 234)" opacity="0.99974865" stroke="rgb(65, 79, 73)" stroke-opacity="0.97658587" stroke-linecap="round" stroke-linejoin="round"/>
  </g>
</svg>
