<?xml version="1.0" ?>
<svg xmlns="http://www.w3.org/2000/svg" version="1.1" width="438" height="481">
  <defs/>
  <g>
    <path d="M 265.5314636230469 69.89572143554688 C 272.445068359375 70.2127685546875 279.419677734375 70.73568725585938 286.7274475097656 71.5104751586914 C 294.66326904296875 72.49959564208984 303.6561279296875 74.19448852539062 314.2519226074219 76.52835083007812 C 326.3444519042969 79.4754867553711 339.6824951171875 83.70419311523438 353.9684753417969 89.4632797241211 C 368.69012451171875 98.3756103515625 384.003173828125 108.60595703125 400.1790771484375 119.37077331542969 C 415.50579833984375 130.4925994873047 428.291259765625 142.15509033203125 436.78131103515625 154.64996337890625 C 439.10113525390625 167.47203063964844 435.2547912597656 179.85845947265625 426.9835510253906 191.1550750732422 C 415.87542724609375 200.32540893554688 403.2763671875 207.04351806640625 390.8519287109375 211.84088134765625 C 379.4746398925781 216.24644470214844 369.3644104003906 221.0258331298828 360.6893310546875 226.533447265625 C 353.0398864746094 233.00477600097656 346.298583984375 240.90777587890625 340.64324951171875 250.40487670898438 C 336.1990661621094 262.3653869628906 332.05438232421875 276.3815002441406 327.1448974609375 291.6863098144531 C 320.68878173828125 307.3611755371094 312.2793884277344 323.10467529296875 302.04071044921875 338.9020080566406 C 290.9880065917969 354.4147033691406 280.23687744140625 369.348876953125 271.1874694824219 383.1647033691406 C 264.04388427734375 395.14892578125 257.84716796875 404.63653564453125 252.45851135253906 411.54888916015625 C 248.1422576904297 416.7779235839844 244.89573669433594 421.5143127441406 242.97605895996094 426.71502685546875 C 242.15423583984375 432.75750732421875 240.6720733642578 439.3699951171875 238.21212768554688 445.67193603515625 C 234.83267211914062 450.29949951171875 230.822021484375 451.93536376953125 227.1304473876953 449.4407043457031 C 223.7353057861328 442.38995361328125 221.20230102539062 431.8526916503906 220.04881286621094 418.65948486328125 C 218.2108154296875 404.00762939453125 215.6058349609375 388.71954345703125 213.3446807861328 373.97796630859375 C 208.4796142578125 362.40045166015625 205.2481689453125 353.70391845703125 208.42056274414062 347.124755859375 C 219.50244140625 341.6669921875 235.50765991210938 336.8669738769531 252.5721893310547 331.3160400390625 C 267.0511169433594 324.3560791015625 275.5452575683594 317.28155517578125 276.2946472167969 312.30645751953125 C 268.8731384277344 311.8427734375 255.6488494873047 314.1338806152344 239.17901611328125 316.8338317871094 C 222.2340087890625 319.090576171875 207.24899291992188 321.20458984375 195.45506286621094 324.36553955078125 C 188.49774169921875 331.4544372558594 183.89797973632812 340.14984130859375 177.84104919433594 346.5174560546875 C 167.6301727294922 347.9490051269531 156.09762573242188 347.60333251953125 145.49606323242188 349.9792175292969 C 138.0741729736328 358.1769104003906 134.66098022460938 369.4214782714844 135.38992309570312 381.4388122558594 C 139.33766174316406 392.5985412597656 141.20083618164062 403.3025817871094 139.10047912597656 414.9974670410156 C 136.22132873535156 428.2330322265625 133.7954864501953 442.64752197265625 132.1539764404297 457.4410095214844 C 128.92510986328125 471.0436706542969 122.00398254394531 482.1500549316406 111.22252655029297 490.3468322753906 C 96.95476531982422 495.4335021972656 80.20271301269531 497.34686279296875 62.46228790283203 496.37646484375 C 44.87139892578125 492.8876647949219 28.39060401916504 487.3811950683594 14.311392784118652 480.36083984375 C 4.482000350952148 472.26983642578125 -0.30152055621147156 463.62200927734375 0.12856344878673553 455.0719299316406 C 5.34576940536499 447.0809020996094 13.884469985961914 440.3485107421875 23.99536895751953 435.42706298828125 C 33.57604217529297 431.6181640625 40.13824462890625 428.2568054199219 41.83150100708008 424.8743591308594 C 38.171688079833984 421.2455749511719 30.440221786499023 417.28436279296875 21.097448348999023 412.2373352050781 C 12.900144577026367 406.98931884765625 8.498096466064453 402.1439514160156 8.634392738342285 397.9129638671875 C 13.040908813476562 394.3801574707031 21.300445556640625 391.7434997558594 32.27001953125 389.2845458984375 C 44.386077880859375 386.59063720703125 55.74775314331055 383.1781005859375 65.3945083618164 378.5902099609375 C 72.47518157958984 372.5590515136719 77.59516906738281 365.5387268066406 81.45809936523438 358.3341369628906 C 84.66056823730469 352.157470703125 85.63861846923828 347.7057189941406 82.20625305175781 345.6210632324219 C 73.65054321289062 345.6751403808594 61.39761734008789 347.3645324707031 46.59621810913086 350.5633544921875 C 31.376903533935547 355.15350341796875 17.257633209228516 359.4043273925781 5.509158134460449 361.5362854003906 C -1.8505687713623047 358.079833984375 -5.516109943389893 350.00506591796875 -6.626280307769775 338.1242980957031 C -6.616671085357666 323.1465759277344 -6.10328483581543 306.4134216308594 -5.297678470611572 288.7840270996094 C -4.266616344451904 271.3374328613281 -2.7399892807006836 254.46092224121094 0.034940168261528015 238.79161071777344 C 4.792902946472168 225.03871154785156 11.87165355682373 213.185791015625 21.228614807128906 203.92335510253906 C 33.1060905456543 198.23123168945312 46.94606399536133 194.6793670654297 61.67100524902344 190.9538116455078 C 75.79594421386719 184.20559692382812 87.93733215332031 173.93968200683594 97.21295166015625 160.12217712402344 C 103.274169921875 144.00985717773438 107.54900360107422 127.7094955444336 111.39802551269531 113.37614440917969 C 115.17650604248047 103.05894470214844 118.24784088134766 98.19309997558594 119.46629333496094 99.72809600830078 C 116.91227722167969 106.87274169921875 113.31794738769531 117.73229217529297 111.0455093383789 130.3841552734375 C 111.7921371459961 142.80780029296875 115.94518280029297 152.96946716308594 123.60844421386719 159.08938598632812 C 134.74639892578125 159.92660522460938 148.1687774658203 155.97280883789062 162.2758331298828 148.4439697265625 C 175.5635986328125 137.88853454589844 188.3713836669922 127.15691375732422 202.39254760742188 119.9264907836914 C 218.8031463623047 117.22220611572266 235.84268188476562 114.80668640136719 252.55487060546875 110.08660125732422 C 268.04248046875 102.99118041992188 281.4619445800781 95.83433532714844 292.4231872558594 90.56671905517578 C 301.19403076171875 88.39186096191406 307.1034240722656 88.08214569091797 309.80633544921875 88.69996643066406 C 309.2981872558594 89.69203186035156 306.1661682128906 90.07925415039062 301.61529541015625 89.4649429321289 C 296.8878479003906 88.1356430053711 293.33636474609375 85.80157470703125 291.7148132324219 82.78104400634766 C 292.7143249511719 79.56909942626953 294.3977966308594 76.47217559814453 265.5314636230469 69.89572143554688" stroke-width="0.0" fill="rgb(4, 2, 8)" opacity="0.9999957" stroke="rgb(32, 147, 179)" stroke-opacity="0.020377828" stroke-linecap="round" stroke-linejoin="round"/>
  </g>
</svg>
