<?xml version="1.0" ?>
<svg xmlns="http://www.w3.org/2000/svg" version="1.1" width="474" height="596">
  <defs/>
  <g>
    <path d="M 268.45550537109375 -2.8198235034942627 C 269.63201904296875 -2.100450038909912 269.6441650390625 -2.487762451171875 270.51617431640625 -2.6296334266662598 C 270.8299255371094 -3.2549712657928467 270.5106506347656 -3.8100359439849854 270.5755615234375 -4.031977653503418 C 271.64971923828125 -4.3200249671936035 271.15185546875 -4.579830169677734 271.0719909667969 -4.791019916534424 C 272.47210693359375 -4.566208839416504 272.6650390625 -4.427554130554199 273.31109619140625 -4.100372314453125 C 275.7906494140625 -2.5036122798919678 278.70599365234375 -2.7634315490722656 291.17822265625 -2.352917194366455 C 282.0928955078125 2.242060661315918 287.1434631347656 0.5985198020935059 297.9580078125 3.9548354148864746 C 304.29705810546875 5.440518856048584 311.5019836425781 8.447672843933105 318.6233215332031 10.869763374328613 C 327.1491394042969 14.671092987060547 336.2792053222656 19.00766372680664 344.0732727050781 23.92788314819336 C 352.7285461425781 28.785226821899414 360.5067443847656 34.716514587402344 368.4415588378906 40.70899200439453 C 377.0328369140625 47.51398468017578 384.3945007324219 55.645267486572266 392.0292663574219 63.22463607788086 C 399.2021179199219 71.57451629638672 406.0040283203125 79.70336151123047 412.2726135253906 88.15100860595703 C 417.9308776855469 96.93495178222656 423.96417236328125 105.07709503173828 428.6783447265625 113.85932922363281 C 433.464111328125 121.27325439453125 435.362548828125 128.02993774414062 432.1003112792969 136.02674865722656 C 428.7396240234375 143.4714813232422 423.3521423339844 152.7211151123047 416.0067138671875 160.97259521484375 C 410.0046691894531 168.81024169921875 400.5679016113281 177.48648071289062 393.03411865234375 184.5316619873047 C 385.4615783691406 190.9664306640625 377.23876953125 197.76651000976562 367.5023193359375 204.41696166992188 C 359.41119384765625 210.2269287109375 348.68359375 217.1235809326172 340.7716369628906 219.812744140625 C 328.4241943359375 224.44204711914062 318.3857727050781 224.5628662109375 303.9989929199219 229.9113006591797 C 311.020751953125 220.38153076171875 319.4897155761719 216.93887329101562 325.5645446777344 210.3067169189453 C 333.05352783203125 202.63629150390625 341.14215087890625 194.27256774902344 348.7761535644531 185.86459350585938 C 355.2796325683594 177.3123016357422 360.5155334472656 169.5555877685547 364.1014099121094 161.54396057128906 C 366.81561279296875 153.19866943359375 368.0093078613281 146.69482421875 367.2301025390625 141.1082763671875 C 365.34149169921875 135.14059448242188 362.4574890136719 129.670654296875 358.1065673828125 125.626953125 C 354.15118408203125 119.94371795654297 346.05609130859375 119.23849487304688 344.20263671875 114.47476959228516 C 340.019287109375 106.65860748291016 329.5631408691406 101.57420349121094 322.35052490234375 100.51422882080078 C 317.69830322265625 99.37210845947266 297.77410888671875 104.17012023925781 311.28704833984375 105.53073120117188 C 316.599853515625 122.9209976196289 293.9720458984375 107.94175720214844 282.3524169921875 108.1900863647461 C 275.2996520996094 109.53912353515625 268.3293762207031 109.75248718261719 262.6384582519531 110.93373107910156 C 257.1636962890625 112.07503509521484 251.9014892578125 112.5981674194336 250.5267333984375 114.681640625 C 243.0658416748047 117.07640838623047 237.43862915039062 117.28540802001953 232.45912170410156 118.95381164550781 C 227.2164764404297 121.04020690917969 221.62171936035156 123.3326187133789 215.71551513671875 125.6856460571289 C 209.59530639648438 127.87751770019531 203.4373016357422 130.118408203125 196.98036193847656 132.5159912109375 C 189.75418090820312 134.76126098632812 182.21519470214844 136.520263671875 175.2454376220703 138.4021759033203 C 169.1604461669922 140.4043731689453 163.1464080810547 142.2279510498047 158.29795837402344 149.28492736816406 C 155.0738067626953 151.73553466796875 147.98927307128906 152.69749450683594 147.33262634277344 156.9945831298828 C 144.50250244140625 163.22695922851562 144.19642639160156 169.9609832763672 145.67689514160156 177.012939453125 C 148.5536346435547 184.59841918945312 152.90562438964844 192.14791870117188 158.6839141845703 200.1775360107422 C 165.60630798339844 208.0421600341797 173.34848022460938 215.26771545410156 181.50048828125 221.6588134765625 C 189.74957275390625 227.2326202392578 197.5364227294922 232.01397705078125 204.32655334472656 235.9923553466797 C 210.28167724609375 238.54356384277344 215.18112182617188 235.0398406982422 260.07781982421875 244.06504821777344 C 215.36216735839844 260.4307861328125 207.66018676757812 245.0079345703125 194.61837768554688 241.39414978027344 C 180.06442260742188 239.27967834472656 177.17808532714844 240.24810791015625 166.0228271484375 243.36688232421875 C 164.60299682617188 238.91026306152344 157.19847106933594 242.0261993408203 140.9165496826172 239.7751922607422 C 133.63067626953125 239.2855224609375 120.5261001586914 236.49595642089844 112.10650634765625 234.1682586669922 C 103.4786605834961 232.26156616210938 95.56163787841797 228.66383361816406 87.66450500488281 226.04808044433594 C 78.74736785888672 222.6865692138672 68.93570709228516 218.1348114013672 62.86445617675781 213.76344299316406 C 56.00959014892578 209.21766662597656 55.902923583984375 207.8392791748047 53.614784240722656 201.28213500976562 C 52.7428092956543 191.92752075195312 54.84902572631836 180.7474822998047 56.04374694824219 172.09852600097656 C 57.914100646972656 161.63302612304688 59.710487365722656 153.36900329589844 62.83913803100586 144.14524841308594 C 64.19697570800781 138.19444274902344 67.74505615234375 128.6429901123047 71.19512939453125 121.78025817871094 C 73.79810333251953 114.26803588867188 79.09950256347656 105.03618621826172 83.58518981933594 96.52534484863281 C 88.7844467163086 89.27986145019531 93.72941589355469 80.65219116210938 101.05725860595703 72.55510711669922 C 106.88288879394531 65.26461029052734 114.96592712402344 56.467018127441406 123.19052124023438 49.730533599853516 C 130.38198852539062 42.916908264160156 138.4263458251953 37.090492248535156 146.35975646972656 31.64987564086914 C 155.67782592773438 25.10516357421875 162.55084228515625 24.426029205322266 175.5286865234375 23.576955795288086 C 178.7078857421875 23.854568481445312 191.77154541015625 24.728628158569336 198.53799438476562 27.047231674194336 C 218.6414031982422 31.054183959960938 212.3637237548828 36.79138946533203 211.2500762939453 15.223867416381836 C 219.2141571044922 32.771297454833984 212.63592529296875 29.855249404907227 226.0882110595703 27.26568603515625 C 232.71109008789062 19.67595863342285 239.79425048828125 12.409721374511719 249.22789001464844 7.4698405265808105 C 257.9608154296875 1.7375198602676392 270.7034606933594 0.3828708231449127 268.45550537109375 -2.8198235034942627" stroke-width="0.0" fill="rgb(64, 38, 31)" opacity="0.9999818" stroke="rgb(132, 70, 107)" stroke-opacity="0.70199823" stroke-linecap="round" stroke-linejoin="round"/>
    <path d="M 317.380126953125 226.1382598876953 C 313.5452880859375 226.95217895507812 303.9930419921875 234.20249938964844 291.5187683105469 237.2744903564453 C 280.0538330078125 241.1697998046875 289.4705505371094 238.5715789794922 295.8887939453125 239.81118774414062 C 292.927001953125 246.19558715820312 291.10888671875 260.54949951171875 293.6343078613281 260.4226379394531 C 281.3642578125 260.4993896484375 269.82830810546875 261.5741882324219 253.99520874023438 253.77706909179688 C 244.38841247558594 250.51190185546875 236.23667907714844 247.530517578125 230.49429321289062 249.05384826660156 C 229.2683563232422 250.6718292236328 232.33851623535156 250.92727661132812 239.58627319335938 248.6658477783203 C 249.25607299804688 251.1329345703125 260.7424621582031 258.177490234375 274.22357177734375 260.1904296875 C 289.3701171875 256.9605407714844 292.7082214355469 267.9424743652344 296.4937438964844 279.8631286621094 C 301.07080078125 289.60247802734375 306.974853515625 301.3955383300781 309.3188781738281 311.3951110839844 C 305.5354919433594 309.65716552734375 310.01153564453125 309.5016784667969 308.07476806640625 310.0390930175781 C 308.3793029785156 297.84857177734375 297.30255126953125 285.26556396484375 291.40606689453125 267.3171691894531 C 288.3243408203125 264.132080078125 294.148681640625 247.2474822998047 295.1531066894531 239.54986572265625 C 311.5285949707031 241.88311767578125 333.08758544921875 245.27418518066406 359.55255126953125 259.71453857421875 C 369.1324768066406 270.0611877441406 381.5400390625 272.3954162597656 394.4296875 280.9917297363281 C 406.1509094238281 287.917236328125 410.0544738769531 293.60760498046875 412.65869140625 295.1606750488281 C 418.693359375 292.38885498046875 428.3403015136719 288.72503662109375 450.9407043457031 282.8302307128906 C 438.5062561035156 308.9981994628906 458.4315185546875 293.0645751953125 477.63580322265625 320.6365051269531 C 461.8346252441406 323.86614990234375 442.34185791015625 337.1363525390625 437.9372863769531 354.2032470703125 C 417.1850891113281 344.00958251953125 391.5205993652344 325.8031921386719 378.817626953125 328.7604064941406 C 345.6165466308594 321.45458984375 347.0116882324219 324.5088195800781 327.91253662109375 325.3443603515625 C 313.21514892578125 348.808837890625 333.5921325683594 385.3313293457031 316.7991638183594 381.4034118652344 C 313.35247802734375 420.0780029296875 303.4887390136719 452.78973388671875 292.6125793457031 470.7503356933594 C 286.2156677246094 486.3420715332031 289.6190185546875 514.8777465820312 282.4891052246094 524.8114624023438 C 268.41607666015625 527.5867919921875 253.59507751464844 528.408447265625 238.64370727539062 529.1714477539062 C 239.08572387695312 540.7223510742188 238.17849731445312 554.9363403320312 238.46348571777344 563.2200927734375 C 254.99891662597656 570.8546142578125 268.0980224609375 571.340087890625 312.4205322265625 571.4110717773438 C 321.54327392578125 571.4797973632812 338.057861328125 571.1901245117188 343.0554504394531 571.6287231445312 C 339.1207275390625 579.6758422851562 320.53289794921875 584.8513793945312 297.96240234375 584.5933227539062 C 275.2732238769531 584.37548828125 241.8205108642578 582.1630859375 237.75697326660156 575.70947265625 C 227.03399658203125 564.9183959960938 239.4760284423828 526.7976684570312 234.433837890625 509.2315979003906 C 250.74267578125 498.1036682128906 243.67796325683594 462.30328369140625 232.31997680664062 456.3413391113281 C 223.88536071777344 452.21923828125 231.255615234375 461.9213562011719 224.8680877685547 474.3602600097656 C 210.95692443847656 476.1952209472656 217.35617065429688 481.2484130859375 213.31996154785156 492.356201171875 C 211.8193817138672 508.54376220703125 208.6431884765625 513.2613525390625 213.37965393066406 528.8898315429688 C 214.73220825195312 549.88232421875 220.83209228515625 579.8405151367188 215.63955688476562 583.2120361328125 C 205.46212768554688 584.8404541015625 192.28306579589844 585.4692993164062 173.67352294921875 592.3307495117188 C 151.19204711914062 598.7871704101562 122.26168060302734 596.3876953125 118.36805725097656 588.367919921875 C 113.60140228271484 570.166015625 122.2492446899414 582.17724609375 151.9253692626953 582.5139770507812 C 177.0928497314453 575.5390625 185.34507751464844 576.3335571289062 211.97280883789062 572.8290405273438 C 215.55833435058594 572.3922729492188 211.4266357421875 541.9634399414062 209.7146453857422 530.8214721679688 C 195.28936767578125 530.0059814453125 180.9938507080078 531.437255859375 170.58619689941406 528.0592041015625 C 157.01205444335938 523.705810546875 142.53128051757812 522.6732177734375 157.20513916015625 507.4877014160156 C 175.92532348632812 504.3597717285156 172.63287353515625 475.8076477050781 157.9738006591797 468.2305908203125 C 155.21182250976562 437.6029357910156 151.6754608154297 413.03497314453125 152.46609497070312 398.30120849609375 C 117.73481750488281 399.4431457519531 112.41351318359375 378.8450622558594 113.6320571899414 343.40863037109375 C 82.97745513916016 338.83160400390625 94.57119750976562 371.3331298828125 81.4905776977539 364.6369323730469 C 54.33177947998047 368.1327819824219 43.53010559082031 355.15020751953125 40.85258102416992 332.1963195800781 C 60.23808670043945 322.4237060546875 69.91004180908203 303.5841979980469 81.05902099609375 296.7872314453125 C 88.55354309082031 288.80755615234375 93.61849975585938 289.4921569824219 89.30899047851562 285.420654296875 C 91.81934356689453 279.0497741699219 100.16120147705078 272.19317626953125 110.96001434326172 265.1954040527344 C 126.6790771484375 254.68377685546875 141.1038818359375 248.0878143310547 162.00392150878906 241.10507202148438 C 176.87655639648438 243.0296173095703 181.5216522216797 235.37986755371094 192.5760040283203 239.56976318359375 C 185.5310821533203 263.3949890136719 182.8485870361328 285.6575012207031 173.13616943359375 299.4039611816406 C 165.29989624023438 314.90069580078125 163.7634735107422 333.24774169921875 157.4665069580078 348.3517761230469 C 153.02439880371094 360.25189208984375 154.04412841796875 357.6446533203125 154.93670654296875 358.6270446777344 C 158.18035888671875 349.5700988769531 162.10064697265625 331.319091796875 166.7098388671875 315.0895690917969 C 168.8395233154297 303.003173828125 177.9167022705078 293.1445617675781 181.714599609375 278.56976318359375 C 187.0657958984375 265.80023193359375 190.28623962402344 247.50140380859375 193.11346435546875 239.8028106689453 C 210.77833557128906 247.0103302001953 236.90357971191406 246.7254638671875 255.39157104492188 245.3671112060547 C 250.9898223876953 235.81027221679688 262.7222595214844 241.7114715576172 317.380126953125 226.1382598876953" stroke-width="0.0" fill="rgb(232, 106, 162)" opacity="0.99923646" stroke="rgb(201, 16, 132)" stroke-opacity="0.47924513" stroke-linecap="round" stroke-linejoin="round"/>
    <path d="M 335.571044921875 94.65363311767578 C 344.5309753417969 94.48951721191406 347.24371337890625 94.30023956298828 340.91424560546875 92.9360122680664 C 344.22210693359375 93.2670669555664 346.3504333496094 94.21269226074219 346.7403259277344 94.3084945678711 C 343.5861511230469 92.61309051513672 348.6983947753906 97.53754425048828 351.7728271484375 99.68767547607422 C 348.2586364746094 97.49504089355469 355.5179443359375 98.40980529785156 351.05181884765625 96.51431274414062 C 349.21484375 99.09075164794922 358.50982666015625 106.02945709228516 358.5889892578125 108.68806457519531 C 353.88134765625 101.00965881347656 357.7940673828125 105.69080352783203 357.68756103515625 102.89620971679688 C 354.71343994140625 106.00494384765625 358.3421936035156 105.65687561035156 358.156494140625 105.1234359741211 C 357.41265869140625 106.77896118164062 362.8468933105469 110.02205657958984 355.8103332519531 104.08660888671875 C 363.38079833984375 111.8285903930664 365.2015075683594 119.22310638427734 365.7894287109375 121.3246841430664 C 369.0219421386719 127.19131469726562 369.89056396484375 134.39102172851562 370.42889404296875 135.21633911132812 C 369.9997863769531 134.84146118164062 372.1026611328125 146.48367309570312 370.5283203125 148.4771728515625 C 370.47235107421875 149.16360473632812 369.4007263183594 160.3651123046875 368.64959716796875 164.1099853515625 C 365.85516357421875 168.010009765625 365.1435241699219 175.01889038085938 363.5352783203125 176.1777801513672 C 361.7671813964844 180.95870971679688 357.51910400390625 187.31439208984375 353.9822692871094 191.39730834960938 C 350.0349426269531 195.4171142578125 346.8387756347656 200.6349334716797 343.72119140625 202.7498321533203 C 342.9658508300781 203.73089599609375 337.8690490722656 208.16676330566406 334.67742919921875 210.80154418945312 C 329.235595703125 215.25726318359375 323.6282653808594 218.95191955566406 313.114013671875 224.75048828125 C 302.22222900390625 229.48370361328125 313.77685546875 230.57423400878906 307.57794189453125 229.10655212402344 C 312.5567626953125 224.76576232910156 300.2342529296875 231.30799865722656 296.9845275878906 232.60081481933594 C 296.9099426269531 232.20901489257812 287.9906311035156 235.49078369140625 281.4529113769531 237.4820556640625 C 283.61541748046875 237.166015625 272.24078369140625 238.9103240966797 269.18701171875 239.87066650390625 C 269.38665771484375 241.91961669921875 264.8122253417969 242.75674438476562 257.04486083984375 243.17202758789062 C 255.61878967285156 242.27783203125 256.07464599609375 249.7665252685547 251.2138671875 250.5845947265625 C 246.35684204101562 255.04173278808594 239.13539123535156 252.87779235839844 234.1774444580078 255.8188934326172 C 205.64309692382812 245.22618103027344 205.74493408203125 250.4114227294922 267.8979797363281 243.15158081054688 C 216.45164489746094 245.06378173828125 217.0928497314453 243.01339721679688 203.2537841796875 240.14068603515625 C 200.79312133789062 238.89828491210938 193.54248046875 236.61090087890625 190.17227172851562 235.19073486328125 C 186.21449279785156 233.41726684570312 180.18702697753906 230.31517028808594 174.25186157226562 226.1275177001953 C 173.8455047607422 225.3932342529297 169.97418212890625 223.2932891845703 166.78062438964844 220.65798950195312 C 162.08984375 216.943603515625 159.19247436523438 213.80714416503906 155.44215393066406 208.640869140625 C 154.96871948242188 208.7193145751953 150.8515167236328 203.09640502929688 147.7695770263672 195.9558563232422 C 146.42173767089844 193.0293731689453 144.7248992919922 188.00454711914062 144.61968994140625 186.15335083007812 C 142.13845825195312 176.2073211669922 142.91021728515625 170.0675048828125 143.63792419433594 162.5345916748047 C 145.16184997558594 158.8297882080078 147.00628662109375 149.55833435058594 149.53016662597656 150.70396423339844 C 150.7337646484375 148.05430603027344 159.85826110839844 145.07337951660156 155.60845947265625 145.5348663330078 C 157.53562927246094 139.93112182617188 158.1981201171875 127.33313751220703 157.3195037841797 124.33370971679688 C 158.8392791748047 126.9686279296875 164.2970428466797 132.6146697998047 164.93934631347656 135.17025756835938 C 165.82376098632812 135.2833709716797 167.59092712402344 139.5164337158203 171.4942169189453 137.3277587890625 C 176.3716583251953 134.51593017578125 183.40472412109375 132.18820190429688 188.43380737304688 130.14712524414062 C 195.04595947265625 127.53546142578125 202.1295166015625 124.78665161132812 201.592529296875 124.53827667236328 C 205.1249542236328 124.71056365966797 214.64260864257812 120.57420349121094 218.70262145996094 120.28349304199219 C 222.7193603515625 118.75941467285156 231.39797973632812 116.8798828125 242.31121826171875 115.05653381347656 C 240.1494903564453 114.156494140625 246.66278076171875 114.41220092773438 246.30264282226562 113.10780334472656 C 244.212646484375 108.89028930664062 243.01278686523438 106.7711410522461 243.4371795654297 102.52714538574219 C 237.4847412109375 90.56488800048828 234.2238006591797 88.38096618652344 240.99990844726562 93.33853149414062 C 245.59579467773438 95.20978546142578 249.71868896484375 99.55696105957031 255.58233642578125 104.69001007080078 C 258.17620849609375 106.03305053710938 259.5668640136719 110.48206329345703 257.5537414550781 109.56791687011719 C 263.88067626953125 111.47630310058594 270.89642333984375 106.11843872070312 273.7278747558594 107.11502838134766 C 278.8780212402344 105.67959594726562 290.0018615722656 103.88259887695312 296.18304443359375 101.52299499511719 C 300.79718017578125 101.78032684326172 317.46563720703125 97.13072967529297 309.7157287597656 100.17803955078125 C 275.39642333984375 115.86740112304688 322.8094177246094 118.23262023925781 309.1883544921875 104.37504577636719 C 314.66119384765625 104.29838562011719 320.37359619140625 103.66317749023438 323.8752136230469 108.37935638427734 C 327.8779602050781 110.1964340209961 332.0619812011719 118.37275695800781 330.5803527832031 126.65953826904297 C 330.04803466796875 127.84300994873047 328.5276184082031 130.9335174560547 326.1821594238281 136.4261016845703 C 328.61871337890625 131.56442260742188 325.68035888671875 132.21388244628906 319.07818603515625 133.57142639160156 C 334.6830749511719 133.81834411621094 339.49493408203125 128.19601440429688 344.9757080078125 126.09874725341797 C 344.96356201171875 131.1612091064453 346.5193176269531 120.35491180419922 344.64306640625 113.67178344726562 C 339.5037536621094 112.34510040283203 352.9009094238281 122.96839904785156 342.0469970703125 108.69042205810547 C 336.22320556640625 103.24413299560547 330.2232971191406 100.16096496582031 323.02069091796875 99.07927703857422 C 300.5384826660156 97.73141479492188 309.92340087890625 100.34520721435547 335.571044921875 94.65363311767578" stroke-width="0.0" fill="rgb(251, 188, 104)" opacity="1.0" stroke="rgb(158, 41, 67)" stroke-opacity="0.17667209" stroke-linecap="round" stroke-linejoin="round"/>
    <path d="M 99.75787353515625 285.8065490722656 C 106.5592269897461 290.04449462890625 112.98856353759766 300.04681396484375 118.36215209960938 306.78594970703125 C 119.36235809326172 312.6117858886719 124.18534851074219 317.8475036621094 125.85009765625 327.9318542480469 C 123.7491455078125 338.61785888671875 115.17314147949219 339.06463623046875 117.61273956298828 341.5469055175781 C 124.9964599609375 353.0693664550781 130.4735107421875 360.17938232421875 135.60850524902344 367.6563415527344 C 140.8054656982422 373.67138671875 144.7423553466797 380.255126953125 150.5992889404297 386.1930847167969 C 154.31845092773438 390.3869323730469 155.2449188232422 393.12701416015625 160.61131286621094 391.91748046875 C 169.0349578857422 388.5838317871094 177.39402770996094 384.5085754394531 178.73985290527344 380.0843811035156 C 194.92567443847656 378.856689453125 212.49746704101562 375.6449890136719 232.55136108398438 376.5333557128906 C 236.3038330078125 375.11859130859375 253.3750762939453 375.8757629394531 273.5184326171875 375.62603759765625 C 283.3077087402344 378.1254577636719 297.0605163574219 375.4053955078125 303.5807800292969 381.5893249511719 C 291.7545471191406 394.9250793457031 293.9234619140625 403.9242248535156 294.35052490234375 414.6351623535156 C 293.6822509765625 426.86376953125 292.17822265625 439.81671142578125 290.0819091796875 452.7339782714844 C 288.29931640625 465.17315673828125 286.9852294921875 478.3545837402344 283.6991882324219 506.8310241699219 C 290.8013610839844 502.3561096191406 318.6251220703125 508.5524597167969 289.83526611328125 522.5881958007812 C 293.1475830078125 534.393310546875 309.1203918457031 545.572509765625 315.872314453125 544.4986572265625 C 328.5282287597656 556.0401611328125 344.0154113769531 549.5068969726562 339.6409606933594 574.0113525390625 C 350.08673095703125 561.2645874023438 336.5209045410156 551.2427368164062 329.2996826171875 548.0645141601562 C 316.01080322265625 542.4818115234375 303.35784912109375 534.3534545898438 287.1054382324219 528.069580078125 C 273.19427490234375 534.6007690429688 259.4720153808594 535.5333251953125 239.83705139160156 529.8942260742188 C 240.63914489746094 538.9864501953125 236.6743927001953 546.89208984375 236.29217529296875 551.9168090820312 C 237.54563903808594 563.479248046875 240.0009765625 568.4639282226562 251.0974884033203 569.7659912109375 C 261.0695495605469 574.0482788085938 271.946533203125 571.2539672851562 282.0621337890625 573.192626953125 C 291.2864990234375 573.5137939453125 298.1358642578125 573.4583129882812 303.70556640625 573.3574829101562 C 303.5617980957031 579.4027099609375 304.18304443359375 580.620849609375 302.4263916015625 580.9740600585938 C 292.80084228515625 580.3148803710938 284.0455322265625 581.3089599609375 273.6210632324219 580.4420776367188 C 263.87396240234375 579.2855834960938 254.08482360839844 577.6925659179688 245.0030059814453 575.1600341796875 C 239.72923278808594 568.5643310546875 235.89646911621094 558.9354858398438 236.49339294433594 548.3966674804688 C 245.04351806640625 527.6591186523438 228.1165771484375 510.4862976074219 238.74468994140625 508.2288513183594 C 244.1711883544922 498.1548156738281 242.00982666015625 474.77490234375 242.6832733154297 463.6456298828125 C 237.80838012695312 458.1842346191406 231.184326171875 452.1759948730469 223.09646606445312 457.1477355957031 C 214.48635864257812 468.8153991699219 209.45579528808594 478.6564636230469 208.4883270263672 511.5439453125 C 211.90582275390625 501.4367370605469 231.7209014892578 519.3372192382812 212.79022216796875 523.7279663085938 C 207.7502899169922 532.5146484375 200.77247619628906 535.4970092773438 185.9364471435547 536.5084228515625 C 177.26705932617188 535.934814453125 170.18980407714844 532.020263671875 161.48069763183594 528.2254638671875 C 161.32449340820312 536.46826171875 151.94049072265625 539.650390625 148.43331909179688 550.9100341796875 C 137.42372131347656 555.896240234375 135.74169921875 563.8589477539062 123.48829650878906 569.4892578125 C 113.46003723144531 577.98095703125 119.67607879638672 577.48681640625 128.13734436035156 590.040771484375 C 135.23851013183594 591.9510498046875 140.8197021484375 587.8229370117188 148.90628051757812 583.781005859375 C 163.87625122070312 582.9495849609375 175.58018493652344 577.2830810546875 187.16688537597656 576.1614990234375 C 196.46644592285156 577.4628295898438 205.9576416015625 575.0938720703125 214.2550506591797 578.536376953125 C 214.32864379882812 577.0545043945312 199.41836547851562 586.2506103515625 214.23873901367188 583.36962890625 C 214.6451416015625 587.3222045898438 194.4365692138672 589.1212768554688 192.60960388183594 583.3646240234375 C 179.36390686035156 584.261474609375 169.74114990234375 590.1146850585938 145.71868896484375 592.4183959960938 C 139.03143310546875 583.8483276367188 126.44425964355469 582.5033569335938 129.52577209472656 579.1080932617188 C 119.45988464355469 576.9911499023438 123.44219207763672 571.5713500976562 138.15525817871094 562.4472045898438 C 143.55982971191406 552.5310668945312 153.29347229003906 558.0938720703125 155.42152404785156 539.8930053710938 C 162.37191772460938 531.33544921875 155.9020538330078 508.8756103515625 168.86729431152344 503.24127197265625 C 170.29441833496094 483.3994140625 168.03468322753906 467.1378479003906 167.27377319335938 451.9204406738281 C 166.11746215820312 436.7637939453125 162.81060791015625 421.96771240234375 166.9735870361328 403.5877685546875 C 155.7210693359375 392.30706787109375 146.0244140625 381.5699462890625 137.4084930419922 370.3221130371094 C 130.22280883789062 359.76434326171875 123.3867416381836 350.86407470703125 117.02288055419922 340.6370849609375 C 112.30347442626953 347.1199035644531 97.49254608154297 351.5638427734375 90.96013641357422 355.04266357421875 C 75.62850952148438 361.5663757324219 75.07247161865234 372.9029235839844 63.586334228515625 381.70611572265625 C 53.760433197021484 378.75146484375 64.40008544921875 430.8099060058594 41.429168701171875 387.7373962402344 C 18.72026252746582 421.5534362792969 31.703981399536133 383.6504211425781 9.026941299438477 390.1731872558594 C 13.204967498779297 368.7046813964844 13.68201732635498 382.37176513671875 -2.698294162750244 375.2864074707031 C 8.661316871643066 356.09033203125 16.306955337524414 346.1607971191406 22.151718139648438 339.9805908203125 C 5.384828567504883 310.1343078613281 39.090843200683594 327.035888671875 43.007293701171875 334.39898681640625 C 61.54279327392578 320.82177734375 69.45679473876953 314.5785217285156 75.06346130371094 306.31317138671875 C 84.6279067993164 296.9352722167969 95.17108917236328 288.3425598144531 99.75787353515625 285.8065490722656" stroke-width="0.0" fill="rgb(245, 197, 112)" opacity="1.0" stroke="rgb(115, 224, 22)" stroke-opacity="0.63578844" stroke-linecap="round" stroke-linejoin="round"/>
    <path d="M 173.90487670898438 386.1081848144531 C 174.91409301757812 382.8631591796875 175.88035583496094 382.7699890136719 176.92286682128906 383.0061340332031 C 177.87066650390625 383.2270202636719 178.7813262939453 383.30194091796875 179.72445678710938 383.3439636230469 C 180.6262664794922 383.6793518066406 181.5585174560547 383.8824462890625 182.51991271972656 384.0458068847656 C 183.49453735351562 384.22357177734375 184.46646118164062 384.3830261230469 185.4316864013672 384.5426025390625 C 186.3816680908203 384.73388671875 187.30755615234375 384.9225158691406 188.18771362304688 385.1136169433594 C 188.99632263183594 385.32806396484375 189.73236083984375 385.5545654296875 190.38462829589844 385.76007080078125 C 190.91209411621094 386.1246032714844 191.33624267578125 386.4822082519531 191.6620635986328 386.8780212402344 C 191.8528594970703 387.3598937988281 191.9563751220703 387.9036560058594 191.9384765625 388.5202941894531 C 191.83450317382812 389.2046203613281 191.6841278076172 389.9596252441406 191.5016632080078 390.78350830078125 C 191.27188110351562 391.6499328613281 191.02105712890625 392.5608215332031 190.7925567626953 393.4969482421875 C 190.59619140625 394.4322814941406 190.4764862060547 395.359130859375 190.44482421875 396.256103515625 C 190.47885131835938 397.1040954589844 190.61636352539062 397.88043212890625 190.87225341796875 398.5628662109375 C 191.17669677734375 399.18792724609375 191.6110382080078 399.7035217285156 192.1595916748047 400.10052490234375 C 192.79635620117188 400.4261779785156 193.558349609375 400.64337158203125 194.45074462890625 400.7451477050781 C 195.4678497314453 400.7955017089844 196.6352081298828 400.797607421875 197.95587158203125 400.7253112792969 C 199.45391845703125 400.6824645996094 201.13417053222656 400.60955810546875 203.009521484375 400.5282287597656 C 205.090087890625 400.4482421875 207.380126953125 400.3410339355469 209.8843536376953 400.2899475097656 C 212.59210205078125 400.3490295410156 215.49273681640625 400.3753356933594 218.56687927246094 400.4248962402344 C 221.80291748046875 400.4789733886719 225.1788330078125 400.48150634765625 228.6726837158203 400.3058776855469 C 232.2646484375 400.2971496582031 235.93666076660156 400.21661376953125 239.6554718017578 399.9995422363281 C 243.45947265625 399.7001037597656 247.28890991210938 399.60504150390625 251.1450958251953 399.2044677734375 C 255.0364990234375 399.0623779296875 258.9368591308594 398.779052734375 262.83966064453125 398.4513854980469 C 266.7414855957031 398.2466125488281 270.6165771484375 398.0704345703125 274.4419250488281 397.940673828125 C 278.1933288574219 398.0375671386719 281.825439453125 398.31793212890625 285.31158447265625 398.74652099609375 C 288.5565185546875 399.5263977050781 291.55279541015625 400.4919738769531 294.4885559082031 401.6435241699219 C 296.6304016113281 403.1808776855469 298.5582275390625 404.8581237792969 300.1545104980469 406.774658203125 C 301.2112731933594 408.9642639160156 301.90234375 411.2213439941406 302.3183288574219 413.6291198730469 C 302.09320068359375 416.1512145996094 301.6821594238281 418.75225830078125 301.0921630859375 421.41168212890625 C 300.13543701171875 424.09002685546875 299.15106201171875 426.8529968261719 297.96844482421875 429.6651916503906 C 296.56573486328125 432.45074462890625 295.1305847167969 435.3743896484375 293.7013244628906 438.209228515625 C 292.2801818847656 441.0426025390625 290.40673828125 443.89404296875 288.6515808105469 446.6223449707031 C 286.7755432128906 449.2207946777344 284.91632080078125 451.63623046875 283.0717468261719 453.927490234375 C 281.0235595703125 455.8332824707031 278.92987060546875 457.40838623046875 276.8934020996094 458.8185729980469 C 274.6146240234375 459.4188537597656 272.410400390625 459.76068115234375 270.18212890625 459.857666015625 C 267.9721984863281 458.9929504394531 265.7667236328125 457.9192199707031 263.60565185546875 456.43365478515625 C 261.5762634277344 454.4623718261719 259.5450744628906 452.2707824707031 257.5412902832031 449.91815185546875 C 255.64776611328125 447.0394287109375 253.7589111328125 444.3164367675781 251.77708435058594 441.6630554199219 C 250.04283142089844 439.0601806640625 248.24925231933594 436.6475830078125 246.45834350585938 434.5104675292969 C 244.69247436523438 432.70111083984375 242.92282104492188 431.27191162109375 241.1678924560547 430.2393798828125 C 239.50698852539062 429.5520935058594 237.85983276367188 429.2592468261719 236.2862548828125 429.5160827636719 C 234.76760864257812 429.60247802734375 233.31236267089844 430.1792907714844 231.94361877441406 431.267578125 C 230.5757293701172 432.1181335449219 229.26443481445312 433.3996276855469 227.9998016357422 434.88677978515625 C 226.68995666503906 436.5074768066406 225.36338806152344 438.2772521972656 223.9766082763672 440.2156677246094 C 222.38951110839844 442.0533752441406 220.7326202392578 444.05291748046875 218.9637451171875 446.1579895019531 C 216.97708129882812 448.18316650390625 214.8495330810547 450.2234191894531 212.56764221191406 452.23883056640625 C 210.09994506835938 454.21478271484375 207.52200317382812 455.8298645019531 204.9090576171875 457.4600524902344 C 202.0728302001953 458.7572021484375 199.22691345214844 459.8299255371094 196.37164306640625 460.72943115234375 C 193.51771545410156 461.2292175292969 190.72067260742188 461.5224914550781 187.99887084960938 461.5779724121094 C 185.3847198486328 461.3481140136719 182.93540954589844 460.9540100097656 180.6405792236328 460.3939514160156 C 178.53355407714844 459.62127685546875 176.6405029296875 458.8016357421875 174.9401092529297 457.91064453125 C 173.44866943359375 456.9245910644531 172.1512451171875 455.8721618652344 171.00413513183594 454.7641296386719 C 170.00216674804688 453.5511779785156 169.109619140625 452.2500305175781 168.24754333496094 450.7999267578125 C 167.46934509277344 449.16259765625 166.6757354736328 447.39373779296875 165.6577911376953 445.43670654296875 C 165.0574493408203 443.1846618652344 164.33241271972656 440.74237060546875 163.3919677734375 438.1004638671875 C 162.78440856933594 435.1164245605469 162.05685424804688 431.976806640625 161.37640380859375 428.6324462890625 C 160.9192352294922 425.0941467285156 160.43275451660156 421.460205078125 159.96925354003906 417.7660827636719 C 159.90391540527344 414.0233459472656 159.89479064941406 410.2611083984375 159.84521484375 406.4720153808594 C 160.36741638183594 402.70013427734375 160.73599243164062 398.91766357421875 161.28375244140625 395.20074462890625 C 162.26165771484375 391.6369934082031 162.95419311523438 388.07843017578125 163.6884765625 385.2693786621094 C 164.5535430908203 384.00140380859375 165.4613800048828 384.3705139160156 173.90487670898438 386.1081848144531" stroke-width="0.0" fill="rgb(252, 76, 1)" opacity="1.0" stroke="rgb(231, 48, 19)" stroke-opacity="0.13409148" stroke-linecap="round" stroke-linejoin="round"/>
    <path d="M 125.37303161621094 331.6177673339844 C 127.92182922363281 334.7784729003906 120.0511245727539 336.0992126464844 120.09931945800781 338.47467041015625 C 120.2584457397461 337.6059875488281 118.47673797607422 340.0672912597656 116.57840728759766 341.3009948730469 C 115.03666687011719 343.24700927734375 111.65845489501953 343.9484558105469 110.4820327758789 345.88336181640625 C 114.96036529541016 346.1089172363281 117.00430297851562 345.80108642578125 115.9684066772461 347.12860107421875 C 114.50519561767578 348.7139587402344 114.729736328125 349.8860168457031 115.18304443359375 351.53955078125 C 114.40171813964844 353.6883239746094 114.95269775390625 356.0931091308594 115.49603271484375 358.9909362792969 C 116.22697448730469 361.612060546875 115.50391387939453 364.3956604003906 115.8986587524414 365.6489562988281 C 115.60433959960938 368.571044921875 115.82032012939453 371.0861511230469 115.83561706542969 372.26947021484375 C 116.5501480102539 373.8169250488281 115.88057708740234 377.3627014160156 117.5381088256836 378.1233825683594 C 117.16250610351562 375.82861328125 117.6664810180664 378.0362854003906 117.39530181884766 376.06719970703125 C 116.95269775390625 377.7679748535156 119.68573760986328 383.5437927246094 119.97915649414062 379.5232849121094 C 118.61479187011719 383.61761474609375 123.3537368774414 388.78460693359375 130.59983825683594 391.9303894042969 C 134.06985473632812 394.57073974609375 138.4693603515625 394.96441650390625 139.85781860351562 394.8440246582031 C 142.74081420898438 395.9169006347656 150.85223388671875 396.1155090332031 154.10487365722656 398.2087707519531 C 157.3149871826172 390.0266418457031 155.8285675048828 380.6080017089844 159.84933471679688 384.1203918457031 C 168.87673950195312 376.7478332519531 176.8312530517578 380.9742431640625 175.53736877441406 378.25701904296875 C 183.04046630859375 379.0852355957031 193.82167053222656 382.1601867675781 206.1247100830078 384.00341796875 C 214.11825561523438 385.59796142578125 223.68312072753906 387.01220703125 226.6500701904297 386.8190612792969 C 236.2204132080078 388.59112548828125 255.2584228515625 386.96160888671875 258.4322509765625 386.509033203125 C 267.7845153808594 386.3260803222656 280.9307861328125 383.0419006347656 286.8988342285156 381.63153076171875 C 290.0161437988281 379.9319152832031 300.405517578125 377.9661865234375 300.22900390625 377.3927917480469 C 310.68402099609375 376.7485046386719 310.5440368652344 377.76190185546875 315.2297668457031 380.7427978515625 C 315.9439697265625 384.0324401855469 315.9410705566406 392.16864013671875 314.5647888183594 397.7300109863281 C 312.6337890625 404.91839599609375 311.60980224609375 412.0299072265625 310.4466857910156 419.839599609375 C 309.0621643066406 431.9010009765625 305.0504455566406 439.30059814453125 304.5105285644531 445.3803405761719 C 301.6373291015625 455.4206848144531 301.2697448730469 465.212646484375 299.48272705078125 470.1343688964844 C 300.12921142578125 467.4542236328125 299.0747375488281 472.8816833496094 290.7901916503906 474.394775390625 C 290.4622802734375 481.99554443359375 285.3736877441406 489.984619140625 288.3191833496094 472.5769348144531 C 277.6612548828125 473.07672119140625 270.8611755371094 471.79052734375 266.3791809082031 471.74127197265625 C 260.3561096191406 470.4913635253906 249.8005828857422 471.9797668457031 246.44970703125 469.3075866699219 C 248.64077758789062 469.4610595703125 245.56980895996094 480.70391845703125 245.70912170410156 489.0179443359375 C 244.0543212890625 497.0155334472656 245.5765380859375 507.8970947265625 238.7785186767578 507.6933288574219 C 243.0926055908203 497.72418212890625 243.12362670898438 487.57733154296875 241.92039489746094 499.9867858886719 C 241.27194213867188 494.7789611816406 245.34974670410156 477.35711669921875 241.11387634277344 468.27978515625 C 242.28187561035156 470.1168518066406 233.84939575195312 467.6194152832031 234.80520629882812 466.4007568359375 C 231.2831268310547 460.26129150390625 235.48184204101562 452.19696044921875 228.91151428222656 454.8213806152344 C 226.9564666748047 452.9477844238281 226.60975646972656 468.0845031738281 226.40658569335938 472.3111572265625 C 224.7262420654297 474.69921875 212.01309204101562 475.9879150390625 215.98016357421875 476.2187805175781 C 215.62863159179688 492.246826171875 206.99452209472656 482.34930419921875 209.46310424804688 511.5483703613281 C 217.53997802734375 487.0201110839844 206.84767150878906 483.1458740234375 212.22323608398438 475.44769287109375 C 201.85928344726562 474.6130065917969 194.00527954101562 472.6545715332031 187.51109313964844 474.3995056152344 C 182.00209045410156 474.8837890625 174.7217254638672 473.1395263671875 169.339111328125 471.68017578125 C 168.26075744628906 475.43402099609375 170.1383056640625 482.8660583496094 168.92645263671875 482.5275573730469 C 167.79302978515625 505.6043701171875 172.9910430908203 505.438720703125 156.26150512695312 514.8170776367188 C 170.62994384765625 522.3743286132812 165.5812225341797 516.8820190429688 163.36105346679688 526.4177856445312 C 159.7838897705078 534.4960327148438 159.94549560546875 541.2289428710938 154.50540161132812 541.8881225585938 C 164.50936889648438 523.9371337890625 157.37242126464844 523.369384765625 156.9818115234375 516.3826293945312 C 165.19650268554688 510.994873046875 165.46865844726562 505.2053527832031 165.64222717285156 495.785888671875 C 167.08807373046875 500.9640197753906 165.74154663085938 468.9630126953125 166.13006591796875 474.09967041015625 C 156.19912719726562 470.1075744628906 158.7132110595703 468.9239501953125 157.75804138183594 459.5863342285156 C 156.26629638671875 451.53973388671875 156.38548278808594 439.16864013671875 154.64146423339844 428.7539978027344 C 153.6428985595703 421.94940185546875 152.81272888183594 407.42987060546875 153.1134490966797 396.60528564453125 C 156.30982971191406 398.3401794433594 159.40611267089844 397.4464111328125 153.2993927001953 397.49786376953125 C 146.06031799316406 396.10137939453125 141.768310546875 395.0916748046875 134.5738067626953 394.2938537597656 C 130.09364318847656 391.22515869140625 120.95864868164062 388.6643371582031 119.71186065673828 381.3124694824219 C 115.39470672607422 377.4207763671875 115.65716552734375 369.75421142578125 115.85294342041016 360.8683776855469 C 114.55758666992188 355.30426025390625 114.32276916503906 348.6501770019531 116.28473663330078 346.1319885253906 C 109.70305633544922 343.7687072753906 95.72492980957031 351.84857177734375 108.9450912475586 344.04058837890625 C 100.79706573486328 343.4309997558594 95.08537292480469 352.9188537597656 78.7645034790039 354.3569641113281 C 90.74393463134766 354.3067932128906 81.58642578125 364.4609680175781 125.37303161621094 331.6177673339844" stroke-width="0.0" fill="rgb(241, 77, 9)" opacity="0.9992864" stroke="rgb(114, 53, 169)" stroke-opacity="0.27271873" stroke-linecap="round" stroke-linejoin="round"/>
    <path d="M 288.71539306640625 13.875032424926758 C 289.6521301269531 13.750597953796387 290.5957336425781 13.672148704528809 291.5495910644531 13.704093933105469 C 292.5164794921875 13.886872291564941 293.51153564453125 14.257561683654785 294.5392150878906 14.871502876281738 C 295.60821533203125 15.774744033813477 296.73895263671875 17.000720977783203 297.9476623535156 18.569957733154297 C 299.255615234375 20.490814208984375 300.69891357421875 22.744384765625 302.3101806640625 25.297643661499023 C 304.1236877441406 28.112030029296875 306.1737976074219 31.124942779541016 308.4508056640625 34.29328155517578 C 310.8648681640625 37.60330581665039 313.3533020019531 41.034088134765625 315.83355712890625 44.545188903808594 C 318.22186279296875 48.090049743652344 320.4902038574219 51.5999641418457 322.5859069824219 55.005348205566406 C 324.4538269042969 58.25076675415039 326.0567321777344 61.27889633178711 327.37384033203125 64.06653594970703 C 328.3450927734375 66.61122131347656 328.9037780761719 68.95658111572266 329.0008544921875 71.15149688720703 C 328.60137939453125 73.22492218017578 327.70074462890625 75.20916748046875 326.3102722167969 77.14632415771484 C 324.4398498535156 79.03759765625 322.140380859375 80.91633605957031 319.4510803222656 82.79823303222656 C 316.4044494628906 84.66788482666016 313.0671691894531 86.50566864013672 309.48895263671875 88.27849578857422 C 305.71258544921875 89.920654296875 301.78155517578125 91.3815689086914 297.74322509765625 92.61754608154297 C 293.6366882324219 93.52660369873047 289.4830627441406 94.05892944335938 285.3013610839844 94.17526245117188 C 281.103759765625 93.83540344238281 276.8976135253906 93.09002685546875 272.6832275390625 91.98312377929688 C 268.4667663574219 90.55472564697266 264.243408203125 88.93684387207031 260.00726318359375 87.26465606689453 C 255.7713623046875 85.67694091796875 251.5568084716797 84.30867767333984 247.4100341796875 83.27432250976562 C 243.40463256835938 82.59883880615234 239.6148681640625 82.3391342163086 236.1172637939453 82.57955932617188 C 232.98507690429688 83.38233184814453 230.27542114257812 84.79227447509766 228.01300048828125 86.8398208618164 C 226.1492919921875 89.4425048828125 224.54428100585938 92.40620422363281 223.04934692382812 95.53581237792969 C 221.51397705078125 98.64411926269531 219.82168579101562 101.59052276611328 217.86859130859375 104.25444030761719 C 215.55845642089844 106.5443115234375 212.8246307373047 108.39984893798828 209.6311492919922 109.81800842285156 C 205.96603393554688 110.81068420410156 201.87155151367188 111.42207336425781 197.4035186767578 111.72725677490234 C 192.6239776611328 111.79058074951172 187.61351013183594 111.7031021118164 182.46714782714844 111.55770111083984 C 177.2820281982422 111.44479370117188 172.16375732421875 111.4671630859375 167.20953369140625 111.70793914794922 C 162.50204467773438 112.24739074707031 158.107421875 113.15676879882812 154.07818603515625 114.47577667236328 C 150.44747924804688 116.23534393310547 147.2294464111328 118.42996215820312 144.41488647460938 121.02609252929688 C 141.94122314453125 123.97577667236328 139.7655792236328 127.22203826904297 137.8439483642578 130.71237182617188 C 136.11953735351562 134.38412475585938 134.59725952148438 138.21331787109375 133.26380920410156 142.17367553710938 C 132.10057067871094 146.2371368408203 131.13638305664062 150.39068603515625 130.37306213378906 154.6160888671875 C 129.79344177246094 158.87635803222656 129.23329162597656 163.11691284179688 128.5115509033203 167.2841033935547 C 127.45977783203125 171.3086395263672 125.95848083496094 175.14144897460938 123.91908264160156 178.69778442382812 C 121.33064270019531 181.9256591796875 118.19425964355469 184.76962280273438 114.54454040527344 187.1651153564453 C 110.41741943359375 189.0840301513672 105.91939544677734 190.48406982421875 101.16411590576172 191.35650634765625 C 96.27415466308594 191.68006896972656 91.4059066772461 191.4578857421875 86.70394897460938 190.70806884765625 C 82.30741119384766 189.43844604492188 78.33340454101562 187.66867065429688 74.88307189941406 185.439697265625 C 72.07368469238281 182.7723388671875 69.92362213134766 179.72079467773438 68.45909881591797 176.3438720703125 C 67.70403289794922 172.69615173339844 67.6187515258789 168.83151245117188 68.13348388671875 164.78768920898438 C 69.1728286743164 160.6328125 70.6035385131836 156.38954162597656 72.3123779296875 152.08543395996094 C 74.20637512207031 147.7491455078125 76.17849731445312 143.3947296142578 78.16219329833984 139.02728271484375 C 80.16249084472656 134.70703125 82.16101837158203 130.44241333007812 84.15576171875 126.26678466796875 C 86.17689514160156 122.2127456665039 88.24311065673828 118.2999267578125 90.34320068359375 114.5395736694336 C 92.53175354003906 110.94774627685547 94.81104278564453 107.53115844726562 97.19324493408203 104.2805404663086 C 99.67510986328125 101.16230010986328 102.25848388671875 98.12877655029297 104.9253921508789 95.14701080322266 C 107.64281463623047 92.15680694580078 110.4441146850586 89.14535522460938 113.3620376586914 86.10791778564453 C 116.41053009033203 83.03750610351562 119.57398986816406 79.88960266113281 122.82689666748047 76.64435577392578 C 126.1659164428711 73.30691528320312 129.5603790283203 69.86638641357422 132.99398803710938 66.34860229492188 C 136.452392578125 62.792476654052734 139.90638732910156 59.23405456542969 143.3463897705078 55.72676467895508 C 146.7559356689453 52.30583953857422 150.15927124023438 49.05965805053711 153.58444213867188 46.06706619262695 C 157.04425048828125 43.36906051635742 160.56434631347656 41.03799819946289 164.18386840820312 39.15517807006836 C 167.93136596679688 37.817405700683594 171.81393432617188 37.02434539794922 175.82850646972656 36.767337799072266 C 179.95343017578125 37.03239440917969 184.1591339111328 37.71360397338867 188.41387939453125 38.71413040161133 C 192.68133544921875 39.92405700683594 196.93260192871094 41.18638610839844 201.1372528076172 42.336002349853516 C 205.26466369628906 43.23923873901367 209.28807067871094 43.72884750366211 213.1869659423828 43.61891555786133 C 216.93991088867188 42.796844482421875 220.56417846679688 41.29926300048828 224.0940399169922 39.21498107910156 C 227.59429931640625 36.68789291381836 231.12417602539062 33.88167953491211 234.74388122558594 30.9480037689209 C 238.5102996826172 28.035165786743164 242.45785522460938 25.269500732421875 246.6126251220703 22.747129440307617 C 250.98570251464844 20.5706729888916 255.5587158203125 18.774831771850586 260.3124694824219 17.347450256347656 C 265.2221374511719 16.283437728881836 270.2502746582031 15.535140991210938 275.35760498046875 15.034636497497559 C 280.50714111328125 14.69375228881836 285.6680908203125 14.413182258605957 288.71539306640625 13.875032424926758" stroke-width="0.0" fill="rgb(61, 39, 36)" opacity="0.99808925" stroke="rgb(18, 101, 131)" stroke-opacity="0.3657945" stroke-linecap="round" stroke-linejoin="round"/>
    <path d="M 367.66387939453125 268.2545166015625 C 367.4437561035156 268.7802429199219 367.2280578613281 269.3067321777344 367.0294494628906 269.822265625 C 366.8894348144531 270.3187561035156 366.8564453125 270.78619384765625 366.97747802734375 271.2166748046875 C 367.28839111328125 271.59405517578125 367.77886962890625 271.9226989746094 368.44964599609375 272.2288818359375 C 369.2947998046875 272.54095458984375 370.291015625 272.8828125 371.3943786621094 273.2779541015625 C 372.58062744140625 273.737060546875 373.82427978515625 274.245849609375 375.12408447265625 274.7995300292969 C 376.44464111328125 275.3800354003906 377.769775390625 275.9789123535156 379.0730895996094 276.5871276855469 C 380.3297424316406 277.1978454589844 381.5223388671875 277.7742614746094 382.637451171875 278.3373107910156 C 383.67803955078125 278.86383056640625 384.6545715332031 279.3993835449219 385.5621643066406 279.88751220703125 C 386.433349609375 280.3479919433594 387.2541198730469 280.7772216796875 388.0459899902344 281.20294189453125 C 388.8188781738281 281.6318054199219 389.5993347167969 282.0789489746094 390.3830871582031 282.5314636230469 C 391.1942443847656 283.0358581542969 392.0556640625 283.58154296875 392.9917297363281 284.1767272949219 C 394.022705078125 284.84027099609375 395.16009521484375 285.5459289550781 396.3420715332031 286.3201599121094 C 397.6016540527344 287.2095031738281 398.9492492675781 288.2068786621094 400.3333435058594 289.26434326171875 C 401.77655029296875 290.3519592285156 403.22686767578125 291.5122985839844 404.6374816894531 292.70684814453125 C 405.9859619140625 293.92926025390625 407.2575988769531 295.1435852050781 408.4576721191406 296.3498840332031 C 409.5231018066406 297.3907470703125 410.5032043457031 298.194091796875 411.5142822265625 298.60089111328125 C 412.59625244140625 298.5413818359375 413.6955871582031 298.1322326660156 414.7731628417969 297.56329345703125 C 415.89361572265625 296.9430236816406 417.1458435058594 296.24505615234375 418.4861755371094 295.6154479980469 C 419.80517578125 295.1453857421875 421.08447265625 294.68939208984375 422.3622741699219 294.2437438964844 C 423.6512145996094 293.7773742675781 424.948486328125 293.4988098144531 426.2289123535156 293.19384765625 C 427.4844055175781 292.8713684082031 428.72723388671875 292.59161376953125 429.9945983886719 292.3509521484375 C 431.2801818847656 292.11505126953125 432.4692687988281 291.772705078125 433.4195861816406 291.2074279785156 C 434.0969543457031 290.3748474121094 434.4828796386719 289.1564636230469 434.8145446777344 287.5444641113281 C 435.5324401855469 286.06793212890625 436.7646789550781 284.8515319824219 438.3222351074219 283.3204345703125 C 439.6790466308594 281.7543640136719 440.87506103515625 280.02093505859375 442.7750549316406 279.07122802734375 C 445.1752014160156 279.0513916015625 447.2562561035156 279.630615234375 448.87628173828125 281.2823486328125 C 450.04583740234375 283.4019470214844 450.7318420410156 285.3107604980469 450.23016357421875 287.7298889160156 C 449.1051940917969 290.6844787597656 448.18975830078125 293.6269226074219 446.5256042480469 296.17169189453125 C 444.5848083496094 297.96337890625 443.9831848144531 299.8749084472656 444.7459716796875 301.56390380859375 C 446.75494384765625 302.8822326660156 449.6223449707031 304.1084899902344 453.0653991699219 305.2545166015625 C 456.833740234375 306.3667907714844 460.37445068359375 307.85760498046875 463.1598815917969 309.8438720703125 C 464.8544006347656 312.11505126953125 465.638427734375 314.3243713378906 465.58221435546875 316.3585510253906 C 464.5186767578125 318.3437194824219 462.874755859375 320.4215393066406 461.3465270996094 322.52618408203125 C 460.9493408203125 324.6264343261719 462.0683898925781 326.4629821777344 464.28643798828125 328.2767028808594 C 466.65826416015625 330.8987731933594 468.3932800292969 334.0519714355469 468.5138244628906 336.7548828125 C 466.7190246582031 338.8694763183594 464.0328063964844 340.23480224609375 461.3597412109375 340.83612060546875 C 460.2240295410156 342.12603759765625 460.3267517089844 344.1415710449219 459.9579772949219 346.0716552734375 C 458.2573547363281 347.76055908203125 455.61724853515625 348.0130310058594 452.02294921875 347.4702453613281 C 447.9843444824219 346.33978271484375 444.4783630371094 344.9127502441406 442.30645751953125 344.3125305175781 C 441.4057312011719 344.9972839355469 441.978271484375 347.0460205078125 443.3934020996094 349.6129150390625 C 444.7088928222656 352.9250183105469 445.323974609375 356.36529541015625 444.628662109375 359.0942077636719 C 442.6120300292969 360.794921875 439.86602783203125 361.16326904296875 437.0736083984375 360.5055847167969 C 434.3338317871094 358.5056457519531 431.7367248535156 355.4771728515625 429.53790283203125 351.8381042480469 C 427.8304138183594 347.9951171875 425.9745788574219 344.6802978515625 423.49945068359375 341.98095703125 C 420.3169860839844 339.9683837890625 416.8727722167969 338.2350769042969 413.4132080078125 336.5210266113281 C 410.2321472167969 334.5346984863281 407.4295654296875 332.3179626464844 404.9649353027344 330.1473388671875 C 402.5964050292969 328.3175964355469 400.0926513671875 327.0766906738281 397.4136657714844 326.3858642578125 C 394.59478759765625 325.9697265625 391.5936584472656 325.765869140625 388.38604736328125 325.56475830078125 C 385.0335388183594 325.1783447265625 381.5797424316406 324.7115783691406 378.1044921875 324.1698913574219 C 374.65484619140625 323.59759521484375 371.20550537109375 322.9292907714844 367.76214599609375 322.2393493652344 C 364.47222900390625 321.4732971191406 361.53338623046875 320.6826171875 358.8719177246094 319.9025573730469 C 356.3994445800781 319.1925964355469 354.27349853515625 318.5315856933594 352.5533142089844 317.8883972167969 C 351.19354248046875 317.2657470703125 350.2505187988281 316.6139221191406 349.8042907714844 315.8083190917969 C 349.81964111328125 314.7749938964844 350.1236267089844 313.509521484375 350.7281188964844 312.04486083984375 C 351.6052551269531 310.3515930175781 352.6649169921875 308.42486572265625 353.8668212890625 306.2915344238281 C 355.1537170410156 303.9409484863281 356.45330810546875 301.393798828125 357.7107238769531 298.70074462890625 C 358.9125671386719 295.89556884765625 359.98614501953125 293.005859375 360.9736633300781 290.0619201660156 C 361.90679931640625 287.0924377441406 362.7898864746094 284.09765625 363.63037109375 281.1076965332031 C 364.4442138671875 278.1047668457031 365.2607421875 275.1915283203125 366.1451416015625 272.3504333496094 C 367.1649169921875 269.5274963378906 368.2742614746094 266.7207336425781 367.66387939453125 268.2545166015625" stroke-width="0.0" fill="rgb(248, 188, 112)" opacity="1.0" stroke="rgb(52, 74, 141)" stroke-opacity="0.452024" stroke-linecap="round" stroke-linejoin="round"/>
    <path d="M 220.07240295410156 124.25430297851562 C 217.86007690429688 128.56173706054688 215.3232879638672 132.27772521972656 212.3292236328125 135.1502685546875 C 209.26829528808594 137.232177734375 206.91371154785156 138.98309326171875 205.868408203125 140.7862548828125 C 206.1982879638672 142.5206298828125 207.58502197265625 143.66915893554688 209.5276336669922 144.0797576904297 C 211.66943359375 143.75494384765625 214.06637573242188 143.30633544921875 216.08177185058594 143.59884643554688 C 217.32846069335938 145.05393981933594 217.78802490234375 147.0509033203125 217.70358276367188 148.91989135742188 C 216.92153930664062 150.358154296875 215.90623474121094 151.762939453125 214.89134216308594 153.05126953125 C 214.4857635498047 154.59542846679688 213.83090209960938 156.48536682128906 212.89060974121094 158.70819091796875 C 212.06895446777344 160.7310028076172 210.52493286132812 162.40853881835938 208.04598999023438 163.6533966064453 C 204.7222137451172 164.08389282226562 200.6432342529297 163.60093688964844 196.49737548828125 162.33895874023438 C 193.06422424316406 160.15814208984375 190.3551788330078 156.8824005126953 188.2604522705078 153.0902557373047 C 187.1836395263672 148.82003784179688 186.897705078125 144.10360717773438 187.93429565429688 138.441162109375 C 191.15097045898438 132.6055450439453 194.05099487304688 126.02204895019531 220.07240295410156 124.25430297851562" stroke-width="0.0" fill="rgb(6, 2, 2)" opacity="0.9977344" stroke="rgb(164, 234, 181)" stroke-opacity="0.99039906" stroke-linecap="round" stroke-linejoin="round"/>
  </g>
</svg>
