<?xml version="1.0" ?>
<svg xmlns="http://www.w3.org/2000/svg" version="1.1" width="474" height="596">
  <defs/>
  <g>
    <path d="M 267.8587341308594 -2.856739044189453 C 269.63201904296875 -2.100450038909912 269.6441650390625 -2.487762451171875 270.51617431640625 -2.6296334266662598 C 270.8299255371094 -3.2549712657928467 270.5106506347656 -3.8100359439849854 270.5755615234375 -4.031977653503418 C 271.64971923828125 -4.3200249671936035 271.15185546875 -4.579830169677734 271.0719909667969 -4.791019916534424 C 272.47210693359375 -4.566208839416504 272.6650390625 -4.427554130554199 273.31109619140625 -4.100372314453125 C 275.7906494140625 -2.5036122798919678 278.70599365234375 -2.7634315490722656 295.4930419921875 -1.3805078268051147 C 281.7572326660156 1.4242500066757202 285.03094482421875 0.4282078146934509 298.8633728027344 3.901771306991577 C 304.5632019042969 5.64495849609375 311.57745361328125 8.259891510009766 318.60540771484375 10.89590072631836 C 326.9464416503906 14.765290260314941 336.3115539550781 19.015247344970703 344.1372985839844 23.935537338256836 C 352.7304992675781 28.72392463684082 360.5726623535156 34.69260787963867 368.2995300292969 40.65853500366211 C 377.11431884765625 47.750431060791016 384.36962890625 55.52484130859375 392.0198669433594 63.24982452392578 C 399.42083740234375 71.42655944824219 406.22589111328125 79.57758331298828 412.3710632324219 88.25718688964844 C 418.0335998535156 96.86083984375 423.6903076171875 104.93559265136719 428.390869140625 113.33792114257812 C 433.5833435058594 120.77162170410156 435.1845703125 128.7285919189453 432.125732421875 135.85610961914062 C 428.94781494140625 143.61709594726562 423.02288818359375 152.40867614746094 415.6053771972656 161.04196166992188 C 410.53955078125 168.07940673828125 400.06988525390625 177.6947021484375 393.3709411621094 184.36883544921875 C 385.36279296875 191.3167724609375 377.14697265625 197.48829650878906 367.3939514160156 204.77139282226562 C 359.48687744140625 209.96278381347656 347.8275451660156 217.6173553466797 340.1323547363281 220.07913208007812 C 324.3835144042969 226.097412109375 317.95135498046875 222.8147430419922 296.9237365722656 235.91824340820312 C 295.99212646484375 214.76223754882812 319.23907470703125 216.91212463378906 325.5650939941406 210.30709838867188 C 333.05352783203125 202.63629150390625 341.14215087890625 194.27256774902344 348.7761535644531 185.86459350585938 C 355.2796325683594 177.3124542236328 360.5155334472656 169.5557861328125 364.1014099121094 161.54396057128906 C 366.81561279296875 153.19866943359375 368.0093078613281 146.69482421875 367.23028564453125 141.1077117919922 C 365.3431091308594 135.1397247314453 362.45770263671875 129.6702880859375 358.06036376953125 125.73957824707031 C 351.1720886230469 122.06208801269531 347.810791015625 124.68689727783203 344.22467041015625 114.81011199951172 C 340.52691650390625 106.83023834228516 329.4294738769531 101.02890014648438 321.0225524902344 100.78531646728516 C 317.00653076171875 99.91950225830078 294.2407531738281 105.00428009033203 316.95880126953125 104.17850494384766 C 342.8080139160156 122.82241821289062 287.4701843261719 116.29959869384766 280.3277587890625 113.47120666503906 C 275.29931640625 109.54376983642578 268.3289794921875 109.74826049804688 262.63818359375 110.92823791503906 C 257.1636962890625 112.07503509521484 251.9014892578125 112.5981674194336 250.5267333984375 114.681640625 C 243.0658416748047 117.07640838623047 237.43862915039062 117.28540802001953 232.4590606689453 118.95347595214844 C 227.18507385253906 121.01258850097656 221.25839233398438 123.05888366699219 215.3332061767578 125.34559631347656 C 209.59530639648438 127.87751770019531 203.4373016357422 130.118408203125 196.96107482910156 132.48585510253906 C 189.7080841064453 134.72030639648438 182.19943237304688 136.49647521972656 175.24447631835938 138.40061950683594 C 169.1604461669922 140.4043731689453 163.1464080810547 142.2279510498047 158.29771423339844 149.2835693359375 C 155.0736083984375 151.73516845703125 147.98927307128906 152.69749450683594 147.33262634277344 156.9945831298828 C 144.50250244140625 163.22695922851562 144.1962432861328 169.9610595703125 145.6763916015625 177.01344299316406 C 148.55335998535156 184.5989227294922 152.90484619140625 192.1486358642578 158.68373107910156 200.1776885986328 C 165.60630798339844 208.0421600341797 173.34848022460938 215.26771545410156 181.50009155273438 221.65940856933594 C 189.7436065673828 227.2392120361328 197.52859497070312 232.02149963378906 204.3200225830078 235.99740600585938 C 210.28150939941406 238.5458984375 215.18081665039062 235.04319763183594 260.1134948730469 244.07215881347656 C 215.8430633544922 260.0826110839844 208.0167999267578 244.93862915039062 194.57247924804688 240.8763885498047 C 181.6671905517578 238.28631591796875 178.61944580078125 242.06112670898438 162.14930725097656 242.66819763183594 C 165.46685791015625 238.54779052734375 162.75563049316406 242.46226501464844 141.8095245361328 239.87310791015625 C 133.50765991210938 239.71875 120.3106460571289 236.56149291992188 111.16508483886719 234.2111358642578 C 104.15902709960938 232.22483825683594 95.39231872558594 228.8364715576172 87.88592529296875 226.08016967773438 C 79.06819915771484 222.74566650390625 68.63106536865234 217.84913635253906 63.05487823486328 213.9171600341797 C 55.79061508178711 209.03932189941406 55.907535552978516 207.37896728515625 53.52859115600586 201.2890625 C 52.79325866699219 189.54269409179688 54.91486358642578 181.6239776611328 55.67748260498047 174.00172424316406 C 58.15610885620117 161.2006072998047 59.58065414428711 154.35081481933594 62.96992111206055 144.2150421142578 C 64.02285766601562 138.98342895507812 67.83702087402344 128.35025024414062 71.18537139892578 121.52078247070312 C 73.636474609375 114.6971435546875 79.19954681396484 105.07750701904297 83.76535034179688 96.66001892089844 C 88.60539245605469 89.23773193359375 93.69641876220703 80.8381118774414 101.11605072021484 72.38970947265625 C 106.7731704711914 65.21360778808594 115.00516510009766 56.51714324951172 123.26385498046875 49.54984664916992 C 130.0149383544922 43.3162956237793 138.78253173828125 36.955631256103516 146.1883544921875 31.56009864807129 C 154.84555053710938 25.531234741210938 163.7293701171875 23.902610778808594 175.83665466308594 23.69889259338379 C 178.02198791503906 23.98272705078125 191.2244873046875 24.566308975219727 198.41688537597656 27.069067001342773 C 221.0603790283203 31.70954704284668 211.5780487060547 37.217674255371094 210.37579345703125 12.420578002929688 C 220.07086181640625 40.249210357666016 212.56809997558594 25.63142967224121 224.85470581054688 28.40654945373535 C 232.917724609375 19.857894897460938 239.20693969726562 12.432290077209473 249.68948364257812 7.10596227645874 C 258.54974365234375 1.6153805255889893 270.94390869140625 0.6322782635688782 267.8587341308594 -2.856739044189453" stroke-width="0.0" fill="rgb(64, 38, 31)" opacity="0.999978" stroke="rgb(132, 70, 107)" stroke-opacity="0.70199823" stroke-linecap="round" stroke-linejoin="round"/>
    <path d="M 317.6423645019531 225.54794311523438 C 313.8135070800781 227.68423461914062 302.95361328125 234.25180053710938 291.75360107421875 237.06394958496094 C 279.2399597167969 240.41319274902344 288.80157470703125 238.32127380371094 294.62664794921875 239.66432189941406 C 294.8457946777344 248.17605590820312 290.7398376464844 260.5482482910156 293.5035705566406 260.5596008300781 C 278.6911315917969 260.0738830566406 273.07421875 262.2804260253906 252.90391540527344 253.72410583496094 C 244.00079345703125 250.7843017578125 236.41915893554688 246.5764923095703 230.50140380859375 248.9652099609375 C 229.2683563232422 250.6718292236328 232.33851623535156 250.92727661132812 239.6973114013672 248.2889862060547 C 248.0521240234375 252.00607299804688 260.5175476074219 257.45556640625 273.5141906738281 260.6111145019531 C 290.34063720703125 255.9817352294922 289.7979431152344 266.3690185546875 296.537109375 279.7750244140625 C 301.41290283203125 289.5177001953125 306.3627014160156 302.24462890625 310.0068054199219 310.960205078125 C 309.8555603027344 306.8591003417969 312.35455322265625 308.1062927246094 308.50469970703125 312.9764404296875 C 309.0653991699219 297.2212219238281 295.5614013671875 285.9143981933594 291.18682861328125 265.6874694824219 C 287.73089599609375 266.2701416015625 295.1373596191406 249.0711669921875 294.40411376953125 239.31387329101562 C 310.5328063964844 241.55776977539062 333.82861328125 245.48870849609375 359.88397216796875 259.5773620605469 C 369.88720703125 270.83148193359375 379.07147216796875 271.10479736328125 394.5491638183594 281.1164245605469 C 406.2138671875 288.0014953613281 410.29425048828125 293.5362854003906 412.3330383300781 294.9803771972656 C 417.6025695800781 292.7681884765625 428.9565124511719 288.8783874511719 450.7478942871094 282.4166259765625 C 438.986572265625 308.9123840332031 457.71771240234375 292.9942321777344 477.6090087890625 320.428466796875 C 461.91351318359375 324.2094421386719 443.06378173828125 337.5023498535156 438.4382629394531 352.8516845703125 C 413.40850830078125 345.1258239746094 398.5743103027344 326.9844055175781 378.061279296875 328.8261413574219 C 331.2204284667969 319.2244873046875 353.7117004394531 327.2698974609375 327.4387512207031 323.6674499511719 C 315.7381591796875 347.42303466796875 332.378662109375 388.79229736328125 316.8388366699219 380.791015625 C 314.10565185546875 418.3222961425781 303.03289794921875 455.2644958496094 292.5915832519531 471.2883605957031 C 286.05438232421875 483.44488525390625 289.7127990722656 516.7603149414062 282.90130615234375 526.0870971679688 C 268.41607666015625 527.5863647460938 253.59378051757812 528.4033203125 240.2220001220703 528.1637573242188 C 239.0828094482422 539.89599609375 238.05506896972656 553.4176025390625 238.5968475341797 563.1116333007812 C 255.4151611328125 570.7508544921875 259.74176025390625 570.7909545898438 314.30352783203125 571.7095336914062 C 322.9295654296875 570.9803466796875 338.16497802734375 571.6488647460938 343.1111755371094 571.7959594726562 C 339.6435852050781 579.3264770507812 321.6819152832031 585.1734619140625 297.5622863769531 584.6621704101562 C 276.43218994140625 584.5939331054688 240.92437744140625 581.98583984375 238.50477600097656 576.32958984375 C 226.92491149902344 568.8478393554688 238.94039916992188 520.4161376953125 235.83987426757812 507.38232421875 C 253.58050537109375 502.1154479980469 245.41876220703125 461.7815246582031 232.92884826660156 455.3898010253906 C 223.09654235839844 451.2508544921875 230.7194366455078 463.5429992675781 225.19456481933594 474.2968444824219 C 213.61769104003906 476.0618591308594 217.47743225097656 474.7137145996094 213.31712341308594 493.0426330566406 C 211.62994384765625 508.7380065917969 209.36143493652344 511.6452331542969 213.38143920898438 528.863525390625 C 214.9590301513672 551.537841796875 220.9567108154297 581.9702758789062 215.48109436035156 583.3507690429688 C 204.5565185546875 587.5621948242188 195.6866912841797 583.987060546875 175.17405700683594 591.8469848632812 C 151.16514587402344 599.230224609375 121.4505615234375 596.1073608398438 117.93401336669922 587.4561767578125 C 114.4133529663086 566.5096435546875 123.99566650390625 583.3447875976562 152.5803985595703 582.5350341796875 C 183.31826782226562 573.9846801757812 184.7086639404297 576.6270751953125 212.9777374267578 573.0088500976562 C 214.59580993652344 575.4998779296875 211.9266815185547 540.5247802734375 209.51431274414062 530.4140625 C 195.58709716796875 531.4158325195312 181.00527954101562 531.4758911132812 171.018798828125 527.1143188476562 C 157.5915985107422 524.2769775390625 142.85528564453125 522.7498779296875 156.57640075683594 507.9095153808594 C 177.2005615234375 503.30389404296875 172.99374389648438 476.4899597167969 157.94163513183594 468.4267578125 C 155.2256317138672 437.7479248046875 151.73048400878906 411.3932800292969 152.5092315673828 398.1934814453125 C 117.9903564453125 399.3031311035156 111.47100830078125 379.7644348144531 114.10195922851562 342.921142578125 C 78.15082550048828 337.3065185546875 98.63878631591797 371.44219970703125 79.25189971923828 364.6612854003906 C 54.21086120605469 366.3023681640625 43.522254943847656 355.0692138671875 39.44245910644531 332.0946960449219 C 61.4332275390625 321.8973693847656 70.11538696289062 303.81341552734375 81.28125 297.01904296875 C 89.71294403076172 287.54949951171875 93.60978698730469 290.92291259765625 89.3167495727539 285.5500793457031 C 91.46781921386719 278.5102844238281 100.00175476074219 272.5699768066406 110.83366394042969 265.24267578125 C 127.86689758300781 254.18841552734375 140.37789916992188 248.54373168945312 162.203857421875 241.043212890625 C 178.9247589111328 243.10411071777344 173.4656524658203 236.17889404296875 192.03903198242188 238.89993286132812 C 186.1036376953125 263.8967590332031 182.4879150390625 284.69439697265625 173.38319396972656 298.3340759277344 C 164.90673828125 315.1092834472656 163.2931365966797 333.96453857421875 157.6845703125 348.3185729980469 C 152.83255004882812 361.8687438964844 155.03717041015625 358.3682861328125 154.91517639160156 359.64263916015625 C 157.8053436279297 349.9557189941406 161.78074645996094 330.86138916015625 167.20254516601562 312.71490478515625 C 169.00051879882812 300.962158203125 177.9433135986328 292.7563781738281 182.10610961914062 278.80255126953125 C 187.25909423828125 266.0023193359375 190.11032104492188 247.52798461914062 192.55740356445312 239.8968505859375 C 211.87303161621094 247.2575225830078 236.47293090820312 247.0015869140625 257.29644775390625 244.41656494140625 C 249.91844177246094 227.08987426757812 276.3692626953125 248.84637451171875 317.6423645019531 225.54794311523438" stroke-width="0.0" fill="rgb(232, 106, 162)" opacity="0.9992142" stroke="rgb(201, 16, 132)" stroke-opacity="0.47924513" stroke-linecap="round" stroke-linejoin="round"/>
    <path d="M 335.91455078125 94.62553405761719 C 347.90167236328125 94.12884521484375 345.90386962890625 93.43461608886719 342.28558349609375 93.47704315185547 C 345.57598876953125 94.06546020507812 347.01678466796875 94.72412872314453 347.08123779296875 95.51335144042969 C 343.6311950683594 92.63873291015625 349.406494140625 97.18172454833984 350.9612731933594 100.30491638183594 C 349.3450927734375 97.28795623779297 355.0627136230469 97.80128479003906 350.6746826171875 98.4232177734375 C 348.70208740234375 97.44952392578125 357.70306396484375 105.42765808105469 359.4683532714844 108.12333679199219 C 354.1943054199219 100.3715591430664 357.8070068359375 105.50997924804688 358.7313232421875 103.26493835449219 C 354.5865173339844 105.55509185791016 357.2572021484375 105.27800750732422 357.787109375 106.9789047241211 C 356.2321472167969 103.48847961425781 361.868408203125 106.73578643798828 355.36285400390625 104.15902709960938 C 362.8894348144531 110.6098861694336 365.70245361328125 119.8446273803711 365.89947509765625 119.98468017578125 C 369.34429931640625 128.60214233398438 369.9924621582031 134.35154724121094 369.8443603515625 134.49777221679688 C 370.34344482421875 132.06236267089844 372.0142822265625 148.5487518310547 370.1505432128906 152.5220489501953 C 372.197509765625 148.54171752929688 369.0556335449219 159.0861358642578 369.4500732421875 161.38223266601562 C 366.9724426269531 168.73170471191406 364.1940002441406 176.0308074951172 363.79852294921875 175.3954620361328 C 361.998046875 180.64154052734375 357.5370178222656 187.36093139648438 353.7423095703125 191.91221618652344 C 350.8190612792969 196.03453063964844 347.1656494140625 199.92550659179688 344.2264709472656 202.57579040527344 C 343.8077392578125 203.13360595703125 338.0619812011719 208.14431762695312 334.7684326171875 210.533203125 C 328.6448974609375 215.25692749023438 323.5501403808594 218.7862091064453 312.8248596191406 224.88124084472656 C 301.92425537109375 229.7755126953125 312.67822265625 232.1936798095703 307.0721435546875 228.7743682861328 C 312.5538635253906 224.20263671875 299.93359375 231.57772827148438 295.7750244140625 232.50230407714844 C 300.47198486328125 233.96316528320312 287.7672119140625 235.84288024902344 276.4666748046875 238.36058044433594 C 287.66253662109375 238.15435791015625 271.24249267578125 237.7337188720703 267.0908203125 240.8765869140625 C 269.8379211425781 241.86732482910156 264.8505554199219 242.75701904296875 255.1208038330078 242.6283416748047 C 255.13951110839844 240.7458038330078 258.74609375 248.30551147460938 251.3753662109375 250.76388549804688 C 250.52215576171875 252.8358612060547 241.71371459960938 254.2479705810547 232.212158203125 255.67999267578125 C 196.27163696289062 242.51795959472656 218.57350158691406 250.6787567138672 271.4533996582031 242.44284057617188 C 221.18405151367188 245.10446166992188 220.76849365234375 243.8820343017578 203.70066833496094 239.97879028320312 C 201.588623046875 239.271728515625 193.56996154785156 236.94203186035156 189.79531860351562 234.8335723876953 C 186.1303253173828 233.44349670410156 179.99472045898438 230.55706787109375 173.26417541503906 225.58180236816406 C 173.7845916748047 225.6791534423828 170.02784729003906 223.2218780517578 166.80612182617188 220.7381591796875 C 162.11639404296875 216.71853637695312 159.37814331054688 213.67295837402344 155.14651489257812 208.41104125976562 C 155.1889190673828 208.73802185058594 150.88600158691406 202.6784210205078 147.42575073242188 195.34823608398438 C 146.275146484375 192.75938415527344 145.03900146484375 188.39512634277344 144.84671020507812 187.34129333496094 C 142.02037048339844 175.93997192382812 143.06838989257812 170.11241149902344 143.63685607910156 162.57955932617188 C 145.35800170898438 158.54795837402344 147.37258911132812 148.4928436279297 148.50779724121094 150.6796112060547 C 151.19544982910156 148.57049560546875 160.71975708007812 144.41026306152344 155.495361328125 145.90402221679688 C 157.8468780517578 140.82838439941406 157.7931671142578 124.654541015625 157.5583953857422 122.06314849853516 C 158.73907470703125 124.9875717163086 163.8262939453125 132.82106018066406 165.12863159179688 135.51602172851562 C 166.0101318359375 132.98410034179688 165.92369079589844 137.5278778076172 170.4834747314453 138.0662384033203 C 176.60044860839844 135.1859130859375 182.51779174804688 132.0893096923828 188.02236938476562 130.3136444091797 C 195.30160522460938 127.46312713623047 202.85719299316406 124.56119537353516 200.95486450195312 124.79060363769531 C 204.10928344726562 125.01087188720703 216.15687561035156 120.28118896484375 217.28919982910156 120.31817626953125 C 222.2249298095703 119.03162384033203 232.62075805664062 115.71034240722656 244.22900390625 114.9801025390625 C 237.46522521972656 112.81463623046875 247.13983154296875 114.79265594482422 245.37338256835938 114.4599609375 C 246.18927001953125 106.43280792236328 244.36569213867188 106.70905303955078 243.4166259765625 103.09968566894531 C 236.7340545654297 90.58285522460938 233.6196746826172 88.35758972167969 239.7733154296875 92.08422088623047 C 246.17105102539062 95.69468688964844 249.73976135253906 99.3367691040039 255.2860870361328 104.78654479980469 C 256.138916015625 106.0558090209961 259.8355407714844 110.72306060791016 259.4367370605469 109.39349365234375 C 263.1513977050781 111.79586029052734 270.6229248046875 106.0506362915039 270.40216064453125 107.58751678466797 C 278.07440185546875 105.61174774169922 290.31103515625 103.58354187011719 297.0630187988281 101.70183563232422 C 300.5133361816406 101.66168212890625 321.69146728515625 95.9039077758789 308.28558349609375 100.42743682861328 C 273.4461364746094 120.14051818847656 317.9946594238281 114.2513656616211 320.5256652832031 105.73368835449219 C 313.864501953125 105.04801940917969 321.76849365234375 103.538818359375 323.7471008300781 108.11393737792969 C 327.7938232421875 109.76618957519531 332.4437561035156 119.67566680908203 329.8316955566406 128.19815063476562 C 329.388671875 130.31585693359375 328.6456604003906 131.2336883544922 324.9825439453125 137.24017333984375 C 330.7273864746094 131.7422637939453 326.690673828125 131.99642944335938 314.41937255859375 133.21725463867188 C 333.23809814453125 134.9514617919922 338.2327575683594 128.39157104492188 344.9989013671875 126.3049545288086 C 343.98150634765625 138.35888671875 347.6592102050781 117.37548828125 343.854736328125 113.40064239501953 C 341.8944396972656 114.05155944824219 353.2955017089844 128.39378356933594 343.7348327636719 110.2313232421875 C 337.05291748046875 102.87394714355469 329.9126281738281 100.06024169921875 323.382568359375 99.05155944824219 C 301.0345153808594 97.62017822265625 308.9482421875 100.18729400634766 335.91455078125 94.62553405761719" stroke-width="0.0" fill="rgb(251, 188, 104)" opacity="1.0" stroke="rgb(158, 41, 67)" stroke-opacity="0.17667209" stroke-linecap="round" stroke-linejoin="round"/>
    <path d="M 99.43025207519531 285.783447265625 C 105.49807739257812 290.6632080078125 114.28443908691406 299.48724365234375 119.14269256591797 308.74957275390625 C 120.12735748291016 313.01226806640625 125.43079376220703 316.88067626953125 125.83457946777344 333.25140380859375 C 124.13662719726562 336.5176086425781 115.09779357910156 338.0343017578125 118.1072006225586 341.360595703125 C 124.94403839111328 353.1291198730469 130.4922637939453 360.16412353515625 135.50628662109375 367.9161071777344 C 140.34658813476562 373.8139343261719 145.01992797851562 380.1225280761719 150.5860137939453 386.3410949707031 C 154.77955627441406 390.4012145996094 155.05511474609375 393.36029052734375 160.20346069335938 392.0607604980469 C 169.03443908691406 388.5805358886719 177.46917724609375 384.506103515625 174.45025634765625 379.8481140136719 C 192.65235900878906 378.86883544921875 213.6685333251953 375.6195373535156 237.66140747070312 376.4491882324219 C 228.60240173339844 375.1032409667969 254.44558715820312 375.4945373535156 266.7664489746094 375.5989990234375 C 286.005615234375 376.9959411621094 300.4164733886719 377.07958984375 302.9671325683594 381.77630615234375 C 291.9972839355469 394.9801025390625 294.04425048828125 403.9501647949219 294.3747253417969 414.6418762207031 C 293.68792724609375 426.86376953125 292.20733642578125 439.8165283203125 290.9404602050781 452.7701721191406 C 288.6543273925781 464.4615173339844 286.84234619140625 477.61614990234375 283.4551086425781 507.9832458496094 C 290.0950927734375 500.51141357421875 319.23150634765625 508.349853515625 289.1399230957031 522.7304077148438 C 294.7062072753906 530.7467651367188 309.4242248535156 549.0401000976562 314.77008056640625 544.1038208007812 C 327.93328857421875 556.1126708984375 343.94549560546875 549.35888671875 339.92388916015625 574.3191528320312 C 350.1049499511719 560.8428344726562 336.93780517578125 551.1900634765625 329.4249267578125 548.0565185546875 C 315.3760070800781 542.0986328125 302.9461975097656 534.6359252929688 287.90948486328125 528.5718383789062 C 273.4424133300781 534.0297241210938 255.69577026367188 536.2783203125 237.46519470214844 528.676513671875 C 240.51162719726562 541.2048950195312 235.51087951660156 542.1000366210938 235.04159545898438 550.3831176757812 C 237.27288818359375 564.5160522460938 238.23377990722656 569.25830078125 252.53431701660156 569.5736083984375 C 261.6219482421875 573.4258422851562 271.59222412109375 572.2974243164062 285.1144104003906 572.5454711914062 C 289.8854064941406 574.1298217773438 298.4513854980469 573.0074462890625 310.02227783203125 573.7327880859375 C 307.60675048828125 572.5538940429688 313.89593505859375 569.9827880859375 329.7693176269531 578.1771850585938 C 294.6607666015625 582.4617919921875 284.0272521972656 580.1690673828125 276.16717529296875 580.595703125 C 262.82794189453125 578.9154052734375 254.0328826904297 577.6768798828125 243.3524932861328 574.7315673828125 C 238.0120849609375 570.4329833984375 234.93614196777344 560.3322143554688 237.25303649902344 533.02392578125 C 246.36985778808594 516.5030517578125 208.90802001953125 520.79833984375 236.83950805664062 506.6520690917969 C 244.56500244140625 507.2578125 242.7266845703125 469.39544677734375 241.4540252685547 461.68536376953125 C 238.5481719970703 457.22406005859375 232.1121826171875 449.9388122558594 221.78761291503906 455.4970397949219 C 212.1077423095703 466.0945739746094 210.0626678466797 476.6570739746094 208.4319305419922 511.7642822265625 C 215.36170959472656 500.60260009765625 230.4504852294922 521.9674682617188 212.04115295410156 524.0697021484375 C 207.09002685546875 534.028564453125 201.37908935546875 535.0707397460938 185.82582092285156 536.5078735351562 C 171.57965087890625 534.5028686523438 172.0221710205078 532.8786010742188 160.2453155517578 527.5970458984375 C 162.76858520507812 537.9829711914062 151.37562561035156 537.9729614257812 148.46414184570312 550.8766479492188 C 134.6386260986328 555.5772094726562 138.72976684570312 562.692138671875 125.70294189453125 567.408935546875 C 113.4378662109375 578.5713500976562 118.0858383178711 575.3715209960938 128.50238037109375 590.3751831054688 C 140.711669921875 592.0953369140625 142.18478393554688 589.5975952148438 143.69383239746094 583.3975830078125 C 159.3804473876953 585.0774536132812 174.04965209960938 576.7534790039062 188.1441650390625 576.47216796875 C 197.83468627929688 576.7802734375 208.70899963378906 575.54150390625 213.27197265625 578.2725219726562 C 210.91526794433594 582.6572875976562 183.0624542236328 590.2055053710938 213.91029357910156 584.55615234375 C 213.03692626953125 587.7679443359375 185.45657348632812 588.5464477539062 206.19944763183594 583.3632202148438 C 174.1133575439453 580.84326171875 169.98651123046875 594.6693115234375 141.25949096679688 591.4488525390625 C 145.62721252441406 579.929443359375 120.95977783203125 581.0081787109375 128.9825897216797 579.0240478515625 C 119.2449951171875 575.9191284179688 123.26628112792969 571.7843627929688 139.5513458251953 562.1967163085938 C 142.0527801513672 552.0045166015625 152.25076293945312 561.1482543945312 156.3097381591797 539.2381591796875 C 168.94798278808594 524.2695922851562 143.51683044433594 511.30364990234375 165.19522094726562 507.8035583496094 C 168.43408203125 482.0558776855469 166.3175506591797 466.7670593261719 166.68983459472656 451.8341369628906 C 166.08192443847656 436.7637939453125 162.80894470214844 421.96771240234375 167.15814208984375 403.4465637207031 C 155.62269592285156 392.36871337890625 145.910400390625 381.64208984375 137.6116943359375 370.17425537109375 C 130.20803833007812 359.7777404785156 123.4978256225586 350.78326416015625 117.61991119384766 340.3921813964844 C 112.95335388183594 346.7300109863281 96.2069320678711 351.5007019042969 88.92781829833984 356.6736145019531 C 72.43216705322266 363.9169006347656 75.19693756103516 375.8887634277344 59.2932014465332 384.4237060546875 C 60.724544525146484 372.0750732421875 58.91394805908203 435.8914489746094 42.495079040527344 386.9562072753906 C 18.942665100097656 422.8370666503906 31.9464111328125 382.5381774902344 9.171935081481934 391.3576965332031 C 12.316055297851562 365.0207214355469 18.265880584716797 382.87042236328125 -2.6113498210906982 375.9333801269531 C 7.274798393249512 356.04803466796875 16.889480590820312 346.6976318359375 21.887060165405273 340.36297607421875 C 4.141354560852051 307.7051086425781 35.80601119995117 327.60357666015625 45.318824768066406 334.1405944824219 C 57.94206237792969 319.0635070800781 68.61650085449219 316.8912048339844 72.43294525146484 308.8863525390625 C 84.2174072265625 296.689208984375 95.396728515625 287.9207458496094 99.43025207519531 285.783447265625" stroke-width="0.0" fill="rgb(245, 197, 112)" opacity="1.0" stroke="rgb(115, 224, 22)" stroke-opacity="0.63578844" stroke-linecap="round" stroke-linejoin="round"/>
    <path d="M 173.82266235351562 385.2281494140625 C 174.80479431152344 382.7772216796875 175.80860900878906 382.70404052734375 176.91786193847656 382.9292297363281 C 177.87677001953125 383.0914001464844 178.78761291503906 383.09906005859375 179.77243041992188 383.00128173828125 C 180.6419219970703 383.60235595703125 181.56507873535156 383.83062744140625 182.5279998779297 383.9891662597656 C 183.50830078125 384.1571350097656 184.4779510498047 384.3360900878906 185.4379119873047 384.5013427734375 C 186.3816680908203 384.7146301269531 187.3077392578125 384.9138488769531 188.19395446777344 385.0971984863281 C 188.9984130859375 385.3153381347656 189.73484802246094 385.5375671386719 190.4016571044922 385.6711120605469 C 190.92041015625 386.11138916015625 191.34596252441406 386.47802734375 191.6977081298828 386.85723876953125 C 191.88516235351562 387.350341796875 192.0145263671875 387.9019775390625 191.99566650390625 388.5202941894531 C 191.8894805908203 389.20867919921875 191.76565551757812 389.9623718261719 191.58200073242188 390.7984924316406 C 191.34666442871094 391.6622619628906 191.07675170898438 392.5696105957031 190.82574462890625 393.504150390625 C 190.60073852539062 394.4322814941406 190.47879028320312 395.359130859375 190.46054077148438 396.256103515625 C 190.4871063232422 397.1040954589844 190.63319396972656 397.87261962890625 190.9276885986328 398.5282897949219 C 191.19497680664062 399.17431640625 191.62875366210938 399.6910705566406 192.19140625 400.0625305175781 C 192.81094360351562 400.4036865234375 193.56564331054688 400.6228942871094 194.46160888671875 400.6864318847656 C 195.4678497314453 400.73065185546875 196.6325225830078 400.7314453125 197.9460906982422 400.6100158691406 C 199.45265197753906 400.6300354003906 201.1334686279297 400.5730895996094 203.00311279296875 400.4510803222656 C 205.08395385742188 400.34576416015625 207.3741455078125 400.1905822753906 209.8843536376953 400.0935974121094 C 212.59645080566406 400.23065185546875 215.49740600585938 400.2513122558594 218.5758056640625 400.1555480957031 C 221.80567932128906 400.3886413574219 225.1788330078125 400.4459533691406 228.66787719726562 399.8819274902344 C 232.263671875 400.1524963378906 235.9283447265625 400.06060791015625 239.59100341796875 399.6587219238281 C 243.4495391845703 399.35906982421875 247.27195739746094 399.40509033203125 251.11534118652344 398.6014404296875 C 255.03085327148438 398.8771057128906 258.9316711425781 398.6626281738281 262.8208923339844 398.2079772949219 C 266.7298889160156 398.0889892578125 270.61529541015625 397.9727478027344 274.4419250488281 397.8013916015625 C 278.19659423828125 397.9411926269531 281.83551025390625 398.2125244140625 285.3443298339844 398.5982971191406 C 288.57977294921875 399.4505920410156 291.5845947265625 400.4056396484375 294.8814392089844 401.48773193359375 C 296.7743225097656 403.092529296875 298.6672668457031 404.67498779296875 300.3784484863281 406.5765075683594 C 301.3288269042969 408.9274597167969 302.0268249511719 411.17095947265625 302.6116638183594 413.6129455566406 C 302.29736328125 416.19091796875 301.8614196777344 418.844482421875 301.4133605957031 421.5406494140625 C 300.3541259765625 424.18536376953125 299.5799560546875 426.9794921875 298.428955078125 429.8310241699219 C 296.8568115234375 432.51806640625 295.3923034667969 435.579833984375 294.1048278808594 438.3309020996094 C 292.8850402832031 441.10736083984375 290.5776672363281 443.989013671875 288.8885498046875 446.7816162109375 C 286.82861328125 449.3705139160156 284.9566650390625 451.6842041015625 283.2227783203125 454.0693664550781 C 281.1087646484375 455.9329528808594 278.9774169921875 457.47235107421875 276.997802734375 459.0531921386719 C 274.63555908203125 459.529052734375 272.41619873046875 459.8522644042969 270.15216064453125 460.1953125 C 267.9289855957031 459.1175537109375 265.69781494140625 458.0347595214844 263.5287780761719 456.55780029296875 C 261.5400695800781 454.54632568359375 259.5155029296875 452.3763122558594 257.4462890625 450.273193359375 C 255.60169982910156 447.0895690917969 253.7139892578125 444.35302734375 251.4381866455078 441.8012390136719 C 249.87208557128906 439.18951416015625 248.1487579345703 436.717041015625 246.38229370117188 434.5572814941406 C 244.66036987304688 432.7344970703125 242.8733367919922 431.31976318359375 240.98843383789062 430.456298828125 C 239.49151611328125 429.6482849121094 237.85218811035156 429.33807373046875 236.29345703125 429.8162536621094 C 234.77862548828125 429.68017578125 233.32623291015625 430.2208557128906 232.0064239501953 431.7460021972656 C 230.59320068359375 432.1583557128906 229.27259826660156 433.4103698730469 228.05186462402344 434.92742919921875 C 226.73391723632812 436.5506896972656 225.42019653320312 438.3330993652344 224.11880493164062 440.4571533203125 C 222.4462127685547 442.13824462890625 220.78790283203125 444.12310791015625 219.06834411621094 446.3231201171875 C 217.01927185058594 448.24609375 214.89402770996094 450.2790222167969 212.6438446044922 452.3646240234375 C 210.13584899902344 454.49493408203125 207.55477905273438 455.8871154785156 205.0214080810547 457.5853576660156 C 202.1078338623047 458.8293762207031 199.2456817626953 459.8868408203125 196.38865661621094 460.89007568359375 C 193.52696228027344 461.39697265625 190.7266387939453 461.6990661621094 187.99169921875 461.7304992675781 C 185.35702514648438 461.4776306152344 182.9121856689453 461.1120300292969 180.6038360595703 460.60540771484375 C 178.5089874267578 459.6362609863281 176.63502502441406 458.8119812011719 174.92733764648438 457.98016357421875 C 173.43051147460938 456.97979736328125 172.13072204589844 455.90631103515625 170.95054626464844 454.82989501953125 C 169.86058044433594 453.68121337890625 169.01513671875 452.4415283203125 168.12103271484375 450.91387939453125 C 167.3826904296875 449.2023620605469 166.56063842773438 447.4552307128906 165.1633758544922 445.5389404296875 C 164.7960968017578 443.2170715332031 164.171142578125 440.7850036621094 162.9427032470703 438.21759033203125 C 162.481201171875 435.1719970703125 161.75047302246094 432.05999755859375 160.9026641845703 428.74432373046875 C 160.78115844726562 425.1272888183594 160.30027770996094 421.4775390625 159.42727661132812 417.780517578125 C 159.59588623046875 414.0234069824219 159.62062072753906 410.2633056640625 159.4170379638672 406.4111328125 C 160.17813110351562 402.64892578125 160.4186248779297 398.87445068359375 160.55979919433594 395.1148681640625 C 162.05902099609375 391.5724792480469 162.67327880859375 388.0025329589844 163.40301513671875 385.1423645019531 C 164.57046508789062 383.9168701171875 165.5679473876953 383.9563903808594 173.82266235351562 385.2281494140625" stroke-width="0.0" fill="rgb(252, 76, 1)" opacity="1.0" stroke="rgb(231, 48, 19)" stroke-opacity="0.13409148" stroke-linecap="round" stroke-linejoin="round"/>
    <path d="M 126.55150604248047 331.50726318359375 C 128.62806701660156 332.7109069824219 119.54093170166016 337.2081604003906 119.44213104248047 338.7438659667969 C 120.1095199584961 337.9091491699219 116.94036102294922 340.3323059082031 116.0850830078125 343.58782958984375 C 114.85391235351562 342.5856628417969 111.43378448486328 344.7801208496094 108.01812744140625 344.2299499511719 C 115.43209838867188 344.6243896484375 116.96509552001953 340.9782409667969 116.70996856689453 340.4505615234375 C 113.32166290283203 346.7710266113281 114.33671569824219 348.9495544433594 114.17406463623047 351.4115295410156 C 114.62980651855469 353.58551025390625 114.78453063964844 356.1128845214844 116.6355972290039 359.0119323730469 C 116.09632873535156 361.6422424316406 115.49037170410156 364.46142578125 115.91827392578125 365.85601806640625 C 115.33037567138672 368.6109924316406 115.59471130371094 371.10919189453125 115.77886962890625 372.2994384765625 C 117.43336486816406 373.9095153808594 116.39117431640625 377.4931335449219 117.74530029296875 378.4018249511719 C 116.83399963378906 375.9048156738281 117.2970199584961 378.1133728027344 116.5178451538086 376.4468688964844 C 116.34476470947266 378.0101318359375 119.44938659667969 383.7335205078125 119.78308868408203 379.98016357421875 C 118.32528686523438 384.1776428222656 122.55780792236328 389.7976379394531 130.12844848632812 392.8280944824219 C 134.26918029785156 394.5840759277344 138.40823364257812 394.926025390625 139.7934112548828 395.12969970703125 C 142.88258361816406 395.574462890625 151.24073791503906 396.9186706542969 154.333740234375 398.44805908203125 C 157.17527770996094 388.4135437011719 157.27566528320312 375.923095703125 157.7313232421875 383.64697265625 C 166.82797241210938 376.6914367675781 178.94566345214844 381.5685729980469 175.1629180908203 378.1916809082031 C 182.3818359375 378.6721496582031 194.3820343017578 382.2781982421875 205.5614013671875 383.8215637207031 C 214.20640563964844 385.5528564453125 221.78955078125 386.9117126464844 228.22769165039062 386.7523498535156 C 231.66847229003906 387.91485595703125 255.56036376953125 387.5146179199219 255.8216094970703 386.8057556152344 C 267.5338134765625 386.4773254394531 282.34326171875 382.6277160644531 285.6378173828125 381.8865966796875 C 290.39605712890625 379.7362365722656 301.3910827636719 377.7354736328125 298.6355285644531 377.48468017578125 C 318.1671142578125 377.63970947265625 308.515869140625 377.50396728515625 315.5559997558594 380.8780212402344 C 316.1416015625 383.297119140625 315.92913818359375 392.263427734375 314.63653564453125 397.8414306640625 C 313.56634521484375 405.8869934082031 312.5101013183594 413.0096130371094 310.40643310546875 420.2772216796875 C 308.3921203613281 433.2812805175781 304.1212158203125 441.7725524902344 304.4372863769531 445.7808837890625 C 301.2974853515625 456.51153564453125 300.5688781738281 468.8921203613281 299.14056396484375 470.9875793457031 C 300.9334716796875 466.63787841796875 300.00909423828125 472.02947998046875 289.7547302246094 474.436767578125 C 289.101806640625 494.665771484375 279.9725341796875 533.0599975585938 287.938720703125 472.6894226074219 C 277.831787109375 472.4495544433594 270.8701477050781 473.5419921875 267.3229675292969 470.428466796875 C 259.7742004394531 471.4718322753906 249.8368682861328 471.5788269042969 245.9188690185547 468.9074401855469 C 248.5881805419922 469.1918029785156 245.7068328857422 479.7149658203125 245.91880798339844 488.76947021484375 C 243.60902404785156 500.93035888671875 246.7278289794922 508.3922119140625 231.8135528564453 509.8086242675781 C 244.4176483154297 503.9884948730469 243.31808471679688 495.9375 240.58956909179688 505.35638427734375 C 241.8090057373047 497.5057678222656 245.91407775878906 475.60760498046875 240.34896850585938 466.1383056640625 C 244.3760528564453 470.29669189453125 236.53689575195312 468.52911376953125 234.52423095703125 466.6056823730469 C 231.91033935546875 460.8099670410156 233.9811248779297 447.0601501464844 226.14730834960938 457.2063903808594 C 229.66087341308594 452.0476379394531 225.59413146972656 470.0361633300781 226.94715881347656 473.32427978515625 C 229.74078369140625 471.4830322265625 213.9175262451172 476.2414855957031 215.89013671875 476.23712158203125 C 215.177490234375 499.7240295410156 206.78543090820312 476.7862854003906 209.7192840576172 512.2632446289062 C 217.77374267578125 479.0997619628906 207.23519897460938 498.26214599609375 212.38531494140625 474.83209228515625 C 198.29859924316406 476.42132568359375 191.69984436035156 474.8792419433594 194.92369079589844 474.4808349609375 C 182.4315948486328 475.1737976074219 173.0762176513672 473.29296875 168.98667907714844 472.3728942871094 C 168.61842346191406 468.1590881347656 169.27459716796875 479.3951721191406 169.44546508789062 484.7982482910156 C 168.40020751953125 523.7468872070312 168.7831268310547 495.1716613769531 150.8253631591797 519.6385498046875 C 172.26475524902344 520.37060546875 167.09146118164062 513.8165893554688 163.4696502685547 526.9134521484375 C 160.40847778320312 534.826904296875 159.60943603515625 540.8529663085938 154.06956481933594 542.8037109375 C 164.7261199951172 521.3391723632812 156.7339630126953 524.2388305664062 153.6582794189453 511.8392028808594 C 167.2388916015625 501.3238525390625 164.76290893554688 511.33404541015625 165.64915466308594 494.1968688964844 C 166.9253387451172 510.2344970703125 165.8614959716797 469.66973876953125 166.11090087890625 473.7843322753906 C 157.22828674316406 469.7176818847656 159.1898956298828 472.1759948730469 157.62660217285156 459.4993896484375 C 156.7050018310547 451.68011474609375 156.2210235595703 438.1794128417969 154.28675842285156 426.9276123046875 C 153.78208923339844 420.5137023925781 151.48190307617188 398.54302978515625 153.94981384277344 396.45501708984375 C 156.207763671875 396.3630676269531 159.57579040527344 397.1512145996094 152.6121063232422 397.6987609863281 C 146.1636505126953 395.9580383300781 141.6973419189453 395.3677673339844 134.73086547851562 394.4886779785156 C 128.9835968017578 392.44110107421875 120.08268737792969 389.9091491699219 119.54036712646484 381.4610900878906 C 116.1440200805664 377.4625244140625 116.62712860107422 369.28460693359375 115.2529525756836 360.7791748046875 C 114.21517944335938 355.2301330566406 113.85811614990234 348.3662414550781 115.20233917236328 343.02410888671875 C 112.46382904052734 344.45465087890625 81.57605743408203 360.79736328125 110.40744018554688 342.19366455078125 C 101.95063018798828 345.0568542480469 91.75438690185547 353.4949035644531 76.7708969116211 354.28155517578125 C 96.21288299560547 354.8598937988281 79.15116882324219 362.5371398925781 126.55150604248047 331.50726318359375" stroke-width="0.0" fill="rgb(241, 77, 9)" opacity="0.9992767" stroke="rgb(114, 53, 169)" stroke-opacity="0.27271873" stroke-linecap="round" stroke-linejoin="round"/>
    <path d="M 288.401123046875 13.97022533416748 C 289.5451354980469 13.04332160949707 290.54949951171875 12.90870189666748 291.51800537109375 13.384551048278809 C 292.5608215332031 13.48582935333252 293.53680419921875 13.583377838134766 295.5534973144531 12.21271800994873 C 295.53155517578125 15.874137878417969 296.8203125 16.705814361572266 299.8934326171875 15.924427032470703 C 301.258056640625 18.15041160583496 304.6295166015625 21.61038589477539 304.843505859375 24.330778121948242 C 301.9623107910156 30.21554183959961 305.1083984375 32.45466232299805 310.3511047363281 32.480045318603516 C 313.13519287109375 36.118446350097656 315.31103515625 39.757904052734375 320.68731689453125 42.9999885559082 C 320.6046142578125 47.77473449707031 319.4172058105469 51.854469299316406 321.9970397949219 54.94865417480469 C 325.5474548339844 57.64216232299805 325.9007568359375 61.161293029785156 326.54888916015625 64.072509765625 C 330.1797180175781 66.01130676269531 330.4970703125 68.48660278320312 332.3343200683594 71.59999084472656 C 330.20697021484375 74.65206909179688 329.32330322265625 76.561767578125 328.3594970703125 82.53218841552734 C 325.1316223144531 82.33226013183594 323.16046142578125 82.49858093261719 320.63775634765625 83.7984390258789 C 317.3878479003906 86.50017547607422 313.0717468261719 86.4706802368164 309.9317932128906 87.7848892211914 C 308.0839538574219 91.98377227783203 305.1635437011719 93.41305541992188 300.0556640625 96.9206314086914 C 294.2677917480469 95.97383880615234 290.5035400390625 97.7605972290039 285.8908996582031 97.593994140625 C 281.1278991699219 97.61634826660156 277.4601745605469 95.54468536376953 270.74664306640625 104.11720275878906 C 264.7021789550781 93.15084838867188 262.6479797363281 91.1076431274414 258.1008605957031 91.67603302001953 C 256.1060485839844 81.46464538574219 252.1660919189453 83.04216766357422 247.12734985351562 87.85411071777344 C 242.9373779296875 83.3714370727539 239.3612823486328 80.47308349609375 236.3102569580078 83.64299774169922 C 232.75672912597656 84.32723999023438 229.63656616210938 82.02818298339844 228.00791931152344 85.81493377685547 C 227.92218017578125 91.11422729492188 223.9562225341797 91.62700653076172 223.41041564941406 94.78933715820312 C 224.21070861816406 99.0778579711914 223.5233154296875 102.27831268310547 222.47703552246094 107.32804107666016 C 217.05865478515625 108.42058563232422 214.13377380371094 110.57023620605469 210.68264770507812 112.04940795898438 C 205.85162353515625 112.69195556640625 201.54373168945312 110.61561584472656 196.97439575195312 112.62921905517578 C 192.5357666015625 113.79716491699219 187.4959259033203 111.5802230834961 182.37477111816406 113.28287506103516 C 177.13134765625 113.83648681640625 172.03565979003906 114.16246032714844 167.11056518554688 111.71397399902344 C 162.3306884765625 110.64167022705078 158.44602966308594 114.18280029296875 153.98023986816406 114.26426696777344 C 150.2801055908203 115.71875 146.87684631347656 117.64492797851562 143.6832733154297 119.4787826538086 C 143.60704040527344 124.82762145996094 142.55490112304688 127.67919921875 148.26495361328125 133.79470825195312 C 139.9296875 136.69631958007812 137.091552734375 140.1051483154297 132.40057373046875 144.0041961669922 C 132.5841522216797 147.8868865966797 133.88441467285156 151.61868286132812 127.84135437011719 153.6359405517578 C 131.87493896484375 158.67799377441406 130.01174926757812 163.0124053955078 130.77621459960938 168.26612854003906 C 129.6060791015625 172.27777099609375 127.83514404296875 176.25192260742188 127.94227600097656 183.61026000976562 C 127.04544830322266 186.97203063964844 120.12657165527344 187.96673583984375 116.55291748046875 191.6226806640625 C 110.36373901367188 192.8328857421875 106.00447845458984 192.3456573486328 101.31346130371094 191.6259765625 C 96.26143646240234 191.62030029296875 91.43645477294922 191.5300750732422 86.13856506347656 191.43174743652344 C 81.33153533935547 192.0318145751953 77.42508697509766 191.1202392578125 70.05436706542969 191.53602600097656 C 69.2098159790039 187.1162567138672 66.44324493408203 185.02426147460938 63.81894302368164 177.09678649902344 C 65.00369262695312 172.17745971679688 65.52327728271484 168.8065185546875 63.58280563354492 164.12014770507812 C 66.58140563964844 159.61378479003906 68.38251495361328 155.38433837890625 70.5155258178711 150.2545623779297 C 73.2748794555664 146.71328735351562 78.26702880859375 143.84466552734375 76.19985961914062 136.56280517578125 C 79.65756225585938 134.2017059326172 82.70768737792969 130.6671600341797 78.0545883178711 125.10933685302734 C 78.53858184814453 117.87692260742188 85.97021484375 114.7370376586914 89.273193359375 113.29460906982422 C 92.74417114257812 111.41864776611328 93.64057922363281 107.43452453613281 96.79305267333984 104.35803985595703 C 97.66178894042969 98.82290649414062 100.03797912597656 94.99874114990234 106.42790985107422 96.52799987792969 C 106.47553253173828 91.6288833618164 109.30043029785156 87.158935546875 112.3661880493164 82.56027221679688 C 115.98968505859375 82.05038452148438 120.33383178710938 80.54043579101562 122.81484985351562 76.65811157226562 C 127.16983795166016 73.88019561767578 128.9458465576172 68.79676818847656 132.28550720214844 65.6243667602539 C 137.29612731933594 63.75072479248047 138.69383239746094 58.242313385009766 143.82200622558594 56.267189025878906 C 145.16342163085938 50.253292083740234 148.9943389892578 45.43411636352539 155.07589721679688 48.74766540527344 C 157.7425537109375 44.1076774597168 158.48907470703125 39.90208435058594 161.41432189941406 33.957984924316406 C 167.1287384033203 34.64554977416992 171.0329132080078 32.466278076171875 175.45799255371094 29.81058692932129 C 180.92445373535156 32.41599655151367 185.1333770751953 33.62412643432617 191.6857452392578 32.95492935180664 C 193.89602661132812 38.341060638427734 197.41049194335938 40.49729919433594 202.3325653076172 40.40138626098633 C 205.4947967529297 42.88166809082031 209.14303588867188 44.805641174316406 213.6318359375 44.5546760559082 C 218.07147216796875 44.37690734863281 220.87197875976562 41.93157958984375 223.2191619873047 38.71726608276367 C 224.9355926513672 35.45654296875 228.1709442138672 32.65328598022461 233.62745666503906 29.740976333618164 C 237.39662170410156 24.90583610534668 240.9133758544922 22.878158569335938 244.29270935058594 18.99321174621582 C 249.9000701904297 18.27505874633789 253.83680725097656 15.233053207397461 260.119873046875 16.470829010009766 C 263.86712646484375 10.443926811218262 269.91766357421875 12.564604759216309 275.4170227050781 12.686847686767578 C 280.32635498046875 15.646121978759766 285.76531982421875 16.74633026123047 288.401123046875 13.97022533416748" stroke-width="0.0" fill="rgb(61, 39, 36)" opacity="0.9980537" stroke="rgb(18, 101, 131)" stroke-opacity="0.3657945" stroke-linecap="round" stroke-linejoin="round"/>
    <path d="M 375.8611755371094 273.4207763671875 C 366.5907287597656 271.84246826171875 366.4483642578125 272.2274169921875 363.00341796875 273.4449768066406 C 364.6739807128906 270.6874694824219 367.6292419433594 270.3540954589844 365.7846374511719 270.6729431152344 C 366.5699157714844 271.4319763183594 362.23919677734375 276.9070739746094 364.5755310058594 270.7973327636719 C 364.80303955078125 270.7897644042969 370.5824890136719 271.32391357421875 370.7698669433594 271.4870910644531 C 367.67254638671875 272.5822448730469 370.2871398925781 273.9141845703125 363.9267578125 270.58111572265625 C 372.9098815917969 273.93975830078125 381.70074462890625 277.5559387207031 383.6846008300781 279.0345153808594 C 379.6512756347656 274.1170959472656 380.43341064453125 275.8228454589844 382.52655029296875 277.04205322265625 C 382.5908203125 278.10418701171875 384.62896728515625 279.03021240234375 381.9681701660156 277.8518371582031 C 383.8624267578125 279.66131591796875 388.8800048828125 280.7317810058594 389.98883056640625 282.7062683105469 C 388.6434326171875 279.9580078125 390.4655456542969 284.53240966796875 393.5881652832031 283.7515869140625 C 390.0960693359375 283.4948425292969 393.1778259277344 284.5204772949219 391.03082275390625 283.1955261230469 C 391.9613952636719 283.8446960449219 396.32171630859375 286.4723205566406 398.4538269042969 287.9273376464844 C 396.6752014160156 286.28839111328125 400.4043273925781 289.3157653808594 399.43017578125 288.2331848144531 C 399.6738586425781 289.2673034667969 403.23382568359375 291.0593566894531 404.5423583984375 292.5343322753906 C 406.2782287597656 293.2878723144531 408.73907470703125 297.4498596191406 409.3909912109375 295.9548034667969 C 408.0953674316406 297.0445556640625 412.27447509765625 299.06866455078125 411.239013671875 298.8379211425781 C 412.6147155761719 299.1479187011719 412.8905944824219 297.4704895019531 414.5596008300781 297.6124267578125 C 415.27569580078125 296.0198669433594 418.17352294921875 295.0452575683594 413.9051208496094 296.826171875 C 419.0176696777344 295.4455261230469 426.62628173828125 292.5057678222656 424.7584533691406 294.0828857421875 C 418.5869445800781 293.7535400390625 422.38507080078125 293.5115051269531 424.94671630859375 293.9755859375 C 427.7314758300781 292.6328430175781 433.99969482421875 291.8031005859375 428.3026428222656 291.3948974609375 C 429.13360595703125 291.4384765625 434.3002014160156 292.3915710449219 434.98114013671875 290.1161193847656 C 432.8211975097656 292.4479675292969 434.7817687988281 291.4424133300781 440.6634826660156 281.82513427734375 C 432.15655517578125 293.1822814941406 435.5946350097656 283.2659606933594 439.70233154296875 282.2987365722656 C 435.6963195800781 283.5626525878906 441.84295654296875 281.6405334472656 440.1341247558594 280.84356689453125 C 441.6161804199219 278.58892822265625 451.714111328125 279.88677978515625 446.2295227050781 280.6853942871094 C 450.92425537109375 280.2812194824219 449.8143310546875 287.35498046875 450.8661193847656 286.63482666015625 C 448.48382568359375 295.9096374511719 443.0610656738281 305.2854309082031 450.49847412109375 283.906494140625 C 444.7771301269531 297.4001159667969 440.681884765625 300.09576416015625 441.9815979003906 301.167724609375 C 443.6801452636719 302.5508728027344 447.4124450683594 302.4884338378906 451.5274963378906 304.5531921386719 C 455.8812255859375 306.3335266113281 460.4665832519531 307.99749755859375 463.1844787597656 309.69342041015625 C 465.52142333984375 312.46173095703125 469.3206787109375 313.3553466796875 470.6314697265625 318.8597106933594 C 468.54974365234375 323.5337219238281 463.9295959472656 319.9356689453125 448.26837158203125 318.4604187011719 C 454.67913818359375 325.3078918457031 462.7966003417969 328.85015869140625 462.80657958984375 327.165283203125 C 466.8948059082031 329.19091796875 470.53399658203125 339.9727783203125 467.76373291015625 335.7496643066406 C 468.39111328125 339.4784851074219 461.0370788574219 342.9891662597656 458.3759460449219 337.8256530761719 C 462.4364929199219 344.25445556640625 458.9123840332031 352.40362548828125 460.1045227050781 339.6784973144531 C 465.2399597167969 348.2035827636719 456.389404296875 348.85723876953125 449.923828125 346.9371337890625 C 444.3982238769531 345.6324768066406 443.99041748046875 345.4255676269531 438.8178405761719 337.7511291503906 C 432.86163330078125 343.5966491699219 440.4930419921875 344.5770568847656 443.79205322265625 349.60107421875 C 443.28839111328125 350.0124816894531 448.13409423828125 358.0807800292969 444.14825439453125 358.8695068359375 C 444.5906066894531 362.81365966796875 431.5153503417969 358.826416015625 439.3443908691406 361.62127685546875 C 435.4443664550781 361.5736999511719 431.4019470214844 354.4358825683594 426.9482116699219 348.3894958496094 C 440.17169189453125 354.76312255859375 432.01953125 350.2721862792969 424.6273498535156 341.4580993652344 C 419.54437255859375 340.5808410644531 415.15228271484375 338.87554931640625 413.98876953125 337.63330078125 C 410.6123352050781 336.561767578125 406.3399353027344 331.9862976074219 403.7540588378906 329.2134094238281 C 402.334716796875 326.7657470703125 401.4737243652344 325.61767578125 399.50732421875 326.9158935546875 C 393.6276550292969 326.17425537109375 389.5829162597656 325.7932434082031 387.3332214355469 325.2102966308594 C 384.0646057128906 324.75433349609375 374.3377990722656 323.4635314941406 373.66595458984375 323.3130187988281 C 376.4734802246094 323.767333984375 369.1903991699219 322.69683837890625 369.29864501953125 322.1591491699219 C 365.1774597167969 322.2631530761719 360.5257568359375 320.3336486816406 361.53057861328125 320.8089294433594 C 355.7989501953125 318.8976135253906 350.2467346191406 317.7806396484375 356.8984680175781 319.3682556152344 C 352.84918212890625 318.385009765625 347.50506591796875 315.15155029296875 347.7931213378906 315.01153564453125 C 348.6286315917969 316.9530944824219 353.7646179199219 320.1275634765625 347.9352722167969 316.1710205078125 C 354.09375 311.8347473144531 353.3935241699219 298.9721984863281 353.61181640625 309.7452392578125 C 354.016357421875 303.3673400878906 358.5508728027344 294.9728088378906 355.41534423828125 304.29449462890625 C 355.9599304199219 299.1221008300781 362.4214782714844 287.8503112792969 363.78759765625 277.5343017578125 C 359.49908447265625 279.4509582519531 363.4977722167969 275.7362060546875 364.74896240234375 280.734619140625 C 362.6808166503906 280.7875061035156 366.242431640625 269.7102966308594 367.02960205078125 270.0379333496094 C 365.0523681640625 270.7208251953125 366.9552001953125 271.32110595703125 375.8611755371094 273.4207763671875" stroke-width="0.0" fill="rgb(248, 188, 112)" opacity="1.0" stroke="rgb(52, 74, 141)" stroke-opacity="0.452024" stroke-linecap="round" stroke-linejoin="round"/>
    <path d="M 220.92356872558594 124.86940002441406 C 209.3747100830078 129.90855407714844 222.99879455566406 139.3907470703125 220.35472106933594 128.42654418945312 C 217.1245880126953 128.3958740234375 205.56411743164062 143.20565795898438 205.79103088378906 139.80364990234375 C 206.1212921142578 143.2103729248047 212.87391662597656 147.07974243164062 212.99937438964844 138.23651123046875 C 211.0591278076172 137.45486450195312 207.82460021972656 133.4068145751953 230.3708038330078 134.53822326660156 C 209.07273864746094 149.92752075195312 217.94581604003906 137.73793029785156 214.17840576171875 146.84732055664062 C 233.69781494140625 141.1448974609375 243.46669006347656 152.40982055664062 243.78439331054688 153.0884246826172 C 237.980712890625 161.43174743652344 214.22996520996094 158.76499938964844 194.112548828125 159.69235229492188 C 215.26986694335938 155.07505798339844 217.7394561767578 158.8145294189453 230.29800415039062 160.59744262695312 C 197.63572692871094 169.01319885253906 208.88954162597656 165.66683959960938 197.9756622314453 162.9185028076172 C 192.43612670898438 160.32261657714844 187.0397186279297 152.6950225830078 188.6381378173828 150.19482421875 C 185.50189208984375 152.9383544921875 189.64990234375 136.9569091796875 184.1149444580078 142.51934814453125 C 190.67611694335938 133.04042053222656 194.95558166503906 123.956787109375 220.92356872558594 124.86940002441406" stroke-width="0.0" fill="rgb(7, 2, 2)" opacity="0.99479854" stroke="rgb(164, 234, 181)" stroke-opacity="0.99039906" stroke-linecap="round" stroke-linejoin="round"/>
    <path d="M 203.61849975585938 254.81411743164062 C 205.2757568359375 262.8655090332031 209.05340576171875 263.636474609375 212.65464782714844 263.3222351074219 C 213.0015106201172 265.3404235839844 214.8734588623047 263.2833557128906 215.64108276367188 264.6490783691406 C 217.15367126464844 266.1607360839844 219.38392639160156 266.3516540527344 219.9337158203125 267.2865295410156 C 221.30528259277344 266.658935546875 221.90667724609375 268.2824401855469 222.73582458496094 267.9750671386719 C 224.29222106933594 268.1531982421875 225.2099609375 268.2568664550781 225.63746643066406 268.42633056640625 C 226.12506103515625 268.601806640625 226.7513885498047 269.1237487792969 227.26318359375 269.2296142578125 C 228.09027099609375 268.9673767089844 229.0016326904297 269.2267761230469 230.07972717285156 269.0653991699219 C 231.118408203125 268.8061218261719 232.18951416015625 270.0068359375 233.14382934570312 269.841552734375 C 234.5800018310547 270.08209228515625 236.32827758789062 269.9999084472656 238.51902770996094 269.9825439453125 C 239.98532104492188 269.7467041015625 241.95904541015625 268.806396484375 246.04640197753906 269.03277587890625 C 246.65914916992188 267.0220642089844 249.8557586669922 269.4151916503906 253.1319122314453 266.0099182128906 C 255.58560180664062 266.64306640625 257.8902587890625 266.7377624511719 263.19464111328125 262.1448974609375 C 265.8656311035156 265.1219787597656 267.8725891113281 264.8455505371094 273.50909423828125 266.94403076171875 C 273.2148132324219 274.0745544433594 273.07147216796875 276.1468811035156 276.5238037109375 276.4862060546875 C 276.2532958984375 281.6573181152344 276.0879211425781 284.390380859375 275.31781005859375 287.4237060546875 C 277.60205078125 288.1189270019531 277.96197509765625 290.8756103515625 279.6107177734375 291.7184753417969 C 279.0877990722656 295.29315185546875 281.0740661621094 295.91510009765625 288.2818908691406 300.27996826171875 C 278.30718994140625 300.32904052734375 279.0791320800781 301.4983215332031 279.777099609375 303.6013488769531 C 283.6825866699219 303.49884033203125 285.412109375 303.2778625488281 289.1794738769531 304.2501525878906 C 291.3962707519531 306.6402282714844 292.6335144042969 308.7975158691406 295.9216613769531 302.8271484375 C 298.5093994140625 304.019287109375 298.8525390625 310.077392578125 301.4725646972656 311.4996032714844 C 305.2342529296875 315.5058898925781 305.8977355957031 319.156005859375 305.2402038574219 324.00250244140625 C 303.352783203125 329.302978515625 309.86505126953125 326.49078369140625 310.02001953125 327.82745361328125 C 312.35089111328125 334.0574951171875 312.1044921875 336.8102111816406 313.26849365234375 338.5062255859375 C 313.7875061035156 342.5167541503906 313.36041259765625 345.56024169921875 316.9779357910156 348.4483947753906 C 312.9945068359375 351.5032043457031 316.84613037109375 351.5481872558594 318.9394836425781 357.7795104980469 C 318.2712097167969 359.18475341796875 319.6312561035156 360.74273681640625 320.043212890625 369.2791748046875 C 315.46539306640625 370.2951354980469 314.30322265625 369.5345153808594 319.918701171875 375.5040283203125 C 310.03582763671875 376.60809326171875 306.6609802246094 375.1905212402344 303.8608093261719 374.2520751953125 C 299.6658630371094 376.17626953125 296.7420349121094 373.70880126953125 294.0394287109375 374.0245361328125 C 290.1246337890625 373.47711181640625 287.038330078125 373.7076416015625 284.6253967285156 373.5509948730469 C 281.0313720703125 372.87664794921875 277.27069091796875 372.9772033691406 274.0912780761719 372.8760070800781 C 271.91937255859375 372.8931884765625 268.57568359375 372.8971252441406 265.64837646484375 373.0420837402344 C 262.2966613769531 372.5833740234375 259.1276550292969 373.20599365234375 256.5783386230469 372.5257568359375 C 253.1195068359375 372.3464660644531 249.95396423339844 372.4367980957031 246.955810546875 372.5487365722656 C 243.88795471191406 372.49871826171875 240.73724365234375 372.1608581542969 237.6551055908203 372.534423828125 C 234.61228942871094 372.4278564453125 231.5054473876953 372.6978759765625 228.42291259765625 372.8589172363281 C 225.33363342285156 372.5028381347656 222.3351593017578 373.1573181152344 220.05474853515625 372.89593505859375 C 216.9376983642578 373.0043640136719 212.96900939941406 372.6081237792969 208.2427978515625 373.5998840332031 C 209.10008239746094 370.54443359375 206.5229034423828 371.5777282714844 203.07110595703125 371.4832763671875 C 198.6015625 371.108154296875 199.0048828125 371.845458984375 193.99085998535156 375.153076171875 C 191.239990234375 370.135498046875 188.979736328125 372.0591735839844 185.6049346923828 371.4515075683594 C 182.29934692382812 371.5858459472656 179.15567016601562 371.40313720703125 176.53761291503906 371.5617370605469 C 177.82289123535156 381.5860900878906 172.52044677734375 376.03021240234375 164.6910858154297 378.5072937011719 C 156.46180725097656 380.4627380371094 155.36512756347656 375.6278076171875 159.78660583496094 369.22528076171875 C 159.21824645996094 365.7933349609375 157.89476013183594 364.16400146484375 158.27703857421875 361.21746826171875 C 160.51393127441406 359.32061767578125 158.9529571533203 356.2268371582031 160.42909240722656 352.8258056640625 C 159.36573791503906 350.5789794921875 165.17213439941406 349.924072265625 164.26708984375 346.2496643066406 C 166.0547637939453 344.5783996582031 168.4160614013672 344.0885925292969 164.74693298339844 340.34893798828125 C 165.04234313964844 334.79815673828125 165.1694793701172 335.1943054199219 174.77284240722656 335.6402282714844 C 168.36395263671875 330.2174072265625 165.5588836669922 324.6645812988281 176.12083435058594 328.6307373046875 C 170.2965545654297 325.7127380371094 172.26329040527344 322.2072448730469 175.13572692871094 315.22906494140625 C 175.35067749023438 314.1419677734375 176.4488067626953 313.39898681640625 177.187744140625 307.4102478027344 C 182.1179656982422 307.8211364746094 181.4748077392578 307.49725341796875 180.3901824951172 303.61724853515625 C 188.9226531982422 303.0294189453125 190.19918823242188 303.483154296875 192.2078399658203 304.9681091308594 C 190.74652099609375 299.9649658203125 190.97927856445312 298.3695068359375 191.66229248046875 296.7548522949219 C 193.34568786621094 294.75970458984375 192.82064819335938 292.13250732421875 193.33883666992188 289.2216796875 C 196.85055541992188 288.26898193359375 195.35162353515625 285.81597900390625 194.2090606689453 283.31561279296875 C 196.8516387939453 280.5271911621094 194.89231872558594 277.3075866699219 195.5980224609375 272.6677551269531 C 199.44528198242188 272.0422058105469 193.94842529296875 264.45050048828125 203.61849975585938 254.81411743164062" stroke-width="0.0" fill="rgb(254, 111, 167)" opacity="0.9981398" stroke="rgb(181, 46, 131)" stroke-opacity="0.6068225" stroke-linecap="round" stroke-linejoin="round"/>
    <path d="M 319.3048400878906 114.36815643310547 C 306.77667236328125 115.53109741210938 309.265380859375 119.64208984375 309.9146728515625 122.01716613769531 C 308.3013000488281 119.36479187011719 315.3780212402344 126.7250747680664 315.6900329589844 117.1603775024414 C 310.7541198730469 113.71522521972656 309.4403991699219 108.92100524902344 325.3994140625 110.54239654541016 C 317.240478515625 126.7290267944336 324.6148986816406 123.63289642333984 324.8984680175781 108.78729248046875 C 335.10888671875 119.59098815917969 329.4340515136719 139.69158935546875 318.71649169921875 137.3719482421875 C 302.6554260253906 148.467529296875 273.71044921875 130.4401092529297 331.3353576660156 132.29736328125 C 302.0005187988281 130.00491333007812 277.1372375488281 134.252685546875 305.4056396484375 127.26448822021484 C 291.826416015625 133.88882446289062 292.4752502441406 130.29151916503906 291.3454895019531 119.59915161132812 C 294.9728698730469 111.24995422363281 285.1355895996094 115.29066467285156 319.3048400878906 114.36815643310547" stroke-width="0.0" fill="rgb(12, 1, 4)" opacity="0.9961701" stroke="rgb(34, 4, 168)" stroke-opacity="0.7917638" stroke-linecap="round" stroke-linejoin="round"/>
    <path d="M 240.89590454101562 518.5657958984375 C 238.950927734375 523.2831420898438 239.8759307861328 526.6535034179688 239.14508056640625 526.69140625 C 242.3445587158203 533.7890014648438 238.9705810546875 529.2968139648438 239.11618041992188 531.286376953125 C 239.3224334716797 532.6808471679688 239.6590576171875 536.5764770507812 239.98117065429688 530.1546630859375 C 238.61680603027344 536.203125 239.20904541015625 549.9529418945312 238.6147918701172 547.3272094726562 C 238.43154907226562 547.2794189453125 238.82899475097656 545.4857788085938 237.21530151367188 544.8839111328125 C 235.28639221191406 544.4677124023438 236.3733367919922 544.5152587890625 238.10572814941406 545.3048706054688 C 237.88352966308594 558.6583251953125 237.75941467285156 568.0447998046875 238.0793914794922 562.4125366210938 C 238.4304656982422 578.5271606445312 239.54647827148438 574.1773681640625 287.83447265625 583.7672729492188 C 234.7994384765625 582.281005859375 235.9906463623047 576.3807373046875 234.02352905273438 566.41259765625 C 233.70057678222656 563.1513061523438 233.66864013671875 558.48681640625 233.90548706054688 554.7449340820312 C 233.89346313476562 544.362548828125 234.9019012451172 534.9347534179688 235.0941925048828 540.5801391601562 C 233.97752380371094 541.66943359375 235.46109008789062 539.6563110351562 234.4512176513672 544.6981201171875 C 234.7550811767578 540.4720458984375 234.64369201660156 539.9716186523438 234.81703186035156 538.8270263671875 C 234.8827667236328 534.8744506835938 236.64747619628906 522.578125 236.39151000976562 522.9681396484375 C 235.3141326904297 525.3960571289062 235.5084991455078 522.3873291015625 234.92205810546875 524.3458251953125 C 234.2630615234375 524.4486694335938 231.88827514648438 526.1258544921875 227.47622680664062 521.070556640625 C 222.942626953125 507.6848449707031 229.1040802001953 524.3494262695312 240.89590454101562 518.5657958984375" stroke-width="0.0" fill="rgb(74, 46, 37)" opacity="0.99923235" stroke="rgb(178, 118, 11)" stroke-opacity="0.78702766" stroke-linecap="round" stroke-linejoin="round"/>
    <path d="M 224.75697326660156 127.42877960205078 C 229.95387268066406 129.53273010253906 234.37783813476562 131.660400390625 237.9918975830078 134.2935791015625 C 240.9756317138672 137.74993896484375 243.0160675048828 141.51400756835938 244.12969970703125 145.11920166015625 C 244.82618713378906 148.4710693359375 244.3192596435547 151.19923400878906 242.3153076171875 153.04641723632812 C 239.62034606933594 155.5484161376953 236.43319702148438 156.47857666015625 233.09988403320312 157.13124084472656 C 229.9366455078125 157.70394897460938 227.72314453125 159.9226837158203 225.4430694580078 159.95323181152344 C 222.51429748535156 160.25160217285156 220.26248168945312 160.79359436035156 220.63426208496094 161.37339782714844 C 222.19776916503906 161.91563415527344 222.2795867919922 160.6182098388672 222.72305297851562 158.72732543945312 C 224.52122497558594 156.59701538085938 226.41409301757812 154.3776397705078 227.73239135742188 150.9407501220703 C 228.65040588378906 147.33853149414062 229.2292938232422 143.32579040527344 228.65557861328125 139.76953125 C 226.91139221191406 136.61453247070312 224.90472412109375 133.4063720703125 224.75697326660156 127.42877960205078" stroke-width="0.0" fill="rgb(252, 252, 251)" opacity="0.99917257" stroke="rgb(145, 211, 213)" stroke-opacity="0.76676816" stroke-linecap="round" stroke-linejoin="round"/>
    <path d="M 146.60215759277344 324.0680847167969 C 147.23446655273438 324.29541015625 148.11058044433594 324.66302490234375 149.21200561523438 325.5588684082031 C 150.15853881835938 326.3911437988281 151.13116455078125 327.4295349121094 152.0157928466797 328.6303405761719 C 152.7647247314453 329.9472961425781 153.4014892578125 331.3233337402344 153.9422607421875 332.7876892089844 C 154.2814178466797 334.30999755859375 154.4402618408203 335.8974914550781 154.4427947998047 337.5696105957031 C 154.15155029296875 339.2705383300781 153.7720489501953 340.872802734375 153.21188354492188 342.3544616699219 C 152.5985870361328 343.7182312011719 151.90478515625 344.9786376953125 151.2279052734375 346.1360168457031 C 150.5670623779297 347.154541015625 149.9961700439453 348.01007080078125 149.54562377929688 348.7177734375 C 149.21835327148438 349.25286865234375 149.01678466796875 349.53863525390625 148.92117309570312 349.6347961425781 C 148.9429168701172 349.5483093261719 149.14456176757812 349.23345947265625 149.47772216796875 348.74359130859375 C 149.88951110839844 348.17742919921875 150.33892822265625 347.44000244140625 150.7789764404297 346.49005126953125 C 151.25430297851562 345.41314697265625 151.83404541015625 344.2770080566406 152.40931701660156 343.1639099121094 C 152.89767456054688 342.1561279296875 153.28053283691406 341.1878967285156 153.61383056640625 340.2417907714844 C 153.99339294433594 339.3200988769531 154.477783203125 338.4720458984375 155.067626953125 337.7090759277344 C 155.87062072753906 337.05047607421875 156.853271484375 336.5122375488281 157.9227294921875 336.2104187011719 C 159.02667236328125 336.1454772949219 160.35568237304688 336.2037048339844 161.9897003173828 336.44580078125 C 163.29141235351562 336.9879150390625 163.78753662109375 338.1600646972656 163.6746063232422 339.7474670410156 C 162.8066864013672 341.69781494140625 161.77606201171875 343.8331604003906 160.9728240966797 346.24139404296875 C 160.1749725341797 348.48699951171875 159.77047729492188 350.6200866699219 158.9357147216797 352.7027282714844 C 158.49388122558594 354.68316650390625 158.38719177246094 356.2900085449219 158.23924255371094 357.7445373535156 C 157.71218872070312 358.60040283203125 156.82846069335938 359.0609436035156 155.73574829101562 359.1018981933594 C 154.72021484375 358.8601989746094 153.54226684570312 358.3797302246094 152.30560302734375 357.6264343261719 C 151.19322204589844 356.7065124511719 150.3201904296875 355.84222412109375 149.66226196289062 355.2419738769531 C 149.25057983398438 354.77935791015625 149.00157165527344 354.45611572265625 148.92752075195312 354.27508544921875 C 149.05426025390625 354.2341613769531 149.29144287109375 354.3345642089844 149.6540985107422 354.6170654296875 C 150.16600036621094 355.1352233886719 150.73007202148438 355.8709411621094 151.31369018554688 356.7391662597656 C 151.91294860839844 357.7320556640625 152.45750427246094 358.8667297363281 152.89035034179688 360.12677001953125 C 153.203857421875 361.3730163574219 153.4219207763672 362.55657958984375 153.5470428466797 363.667236328125 C 153.57205200195312 364.6808166503906 153.47442626953125 365.52252197265625 153.2209014892578 366.14324951171875 C 152.81227111816406 366.4978332519531 152.30978393554688 366.6162109375 151.7667236328125 366.5120849609375 C 151.2187042236328 366.2384338378906 150.68673706054688 365.8741455078125 150.1979217529297 365.48736572265625 C 149.79469299316406 365.1356201171875 149.49856567382812 364.8481750488281 149.31492614746094 364.622802734375 C 149.249755859375 364.4816589355469 149.30810546875 364.4410400390625 149.4890899658203 364.5098876953125 C 149.7623291015625 364.6996154785156 150.115966796875 364.995361328125 150.55950927734375 365.4019775390625 C 151.0780487060547 365.8810729980469 151.63272094726562 366.4715881347656 152.2011260986328 367.1666564941406 C 152.74761962890625 368.0144348144531 153.24143981933594 368.99969482421875 153.6226806640625 370.1209716796875 C 153.8834991455078 371.37701416015625 154.00418090820312 372.7556457519531 153.92169189453125 374.23583984375 C 153.62440490722656 375.753662109375 153.08790588378906 377.23931884765625 152.29283142089844 378.58685302734375 C 151.19956970214844 379.705322265625 149.85191345214844 380.49456787109375 148.48431396484375 380.8800048828125 C 147.2716522216797 380.78662109375 146.28895568847656 380.2970275878906 145.6811981201172 379.3662109375 C 145.43743896484375 378.03790283203125 145.40005493164062 376.4604187011719 145.45919799804688 374.7181091308594 C 145.5298309326172 372.9206237792969 145.62852478027344 371.209228515625 145.74197387695312 369.68695068359375 C 145.89219665527344 368.42742919921875 145.981201171875 367.4773254394531 145.9898681640625 366.8619384765625 C 145.9926300048828 366.5982971191406 146.08360290527344 366.7341003417969 146.24737548828125 367.3014221191406 C 146.3266143798828 368.2771911621094 146.3744354248047 369.6563720703125 146.45700073242188 371.4833984375 C 146.34210205078125 373.78826904296875 145.94972229003906 376.36956787109375 145.12184143066406 379.24688720703125 C 143.9012908935547 382.3668518066406 142.2190399169922 385.5132141113281 139.9702606201172 388.4356689453125 C 137.06069946289062 391.062744140625 133.6592559814453 393.1434326171875 130.34185791015625 393.8709716796875 C 127.30841827392578 392.9153747558594 124.78878021240234 390.7515563964844 122.59220123291016 387.8438720703125 C 120.51986694335938 384.7153625488281 118.53861999511719 381.6639404296875 116.69586944580078 378.5277099609375 C 115.92376708984375 374.4912109375 115.61643981933594 370.16168212890625 115.56858825683594 366.9194030761719 C 115.01483154296875 364.88861083984375 114.06864929199219 362.7414855957031 113.45903778076172 359.94720458984375 C 113.05860137939453 356.5122985839844 112.84870910644531 353.5572204589844 113.57747650146484 350.7256164550781 C 115.22810363769531 348.87249755859375 115.71571350097656 346.6258239746094 115.75422668457031 343.98638916015625 C 116.11738586425781 341.6553649902344 117.06277465820312 339.74517822265625 118.43500518798828 338.2107238769531 C 120.21859741210938 336.794921875 122.13321685791016 335.5792236328125 124.04480743408203 334.3320007324219 C 125.876708984375 333.0727844238281 127.7424545288086 332.1305236816406 129.54364013671875 331.54315185546875 C 131.2775115966797 331.32037353515625 132.77267456054688 331.26446533203125 134.0868682861328 331.22821044921875 C 135.25340270996094 331.207275390625 136.19871520996094 331.1864318847656 136.93197631835938 331.25439453125 C 137.45213317871094 331.2643737792969 137.6322784423828 331.0377197265625 137.71743774414062 330.4547424316406 C 137.73048400878906 329.8223876953125 137.78421020507812 329.1304016113281 146.60215759277344 324.0680847167969" stroke-width="0.0" fill="rgb(147, 116, 174)" opacity="0.9984911" stroke="rgb(54, 115, 145)" stroke-opacity="0.8528498" stroke-linecap="round" stroke-linejoin="round"/>
    <path d="M 166.8427276611328 257.8555908203125 C 168.44244384765625 257.5321044921875 170.14801025390625 257.4039001464844 171.7083282470703 257.3580322265625 C 173.17987060546875 257.5638427734375 174.5919647216797 258.314453125 175.59751892089844 259.2278747558594 C 176.33929443359375 260.3996887207031 176.7945098876953 261.78338623046875 176.9170684814453 263.1506042480469 C 176.83453369140625 264.4252014160156 176.60263061523438 265.5732421875 176.32931518554688 266.5328674316406 C 176.0175018310547 267.23046875 175.79104614257812 267.7362060546875 175.72418212890625 268.0836181640625 C 175.8466796875 268.30047607421875 176.16212463378906 268.4285888671875 176.67642211914062 268.48992919921875 C 177.33612060546875 268.4941101074219 178.06500244140625 268.45751953125 178.81039428710938 268.49188232421875 C 179.57391357421875 268.62359619140625 180.3590850830078 268.9248352050781 181.17013549804688 269.22381591796875 C 181.95046997070312 269.3616943359375 182.697998046875 269.2884216308594 183.44607543945312 268.97320556640625 C 184.2418670654297 268.3813781738281 185.13189697265625 267.5613098144531 186.1885528564453 267.2764587402344 C 187.4210205078125 267.20135498046875 188.63441467285156 267.7185363769531 189.7894744873047 268.13848876953125 C 190.89837646484375 268.5753479003906 191.860107421875 269.17132568359375 192.62823486328125 269.9104309082031 C 193.18960571289062 270.8025207519531 193.51344299316406 271.8905029296875 193.6082000732422 273.1643981933594 C 193.5874481201172 274.5809326171875 193.6251220703125 276.0845642089844 193.65892028808594 277.6775207519531 C 193.42398071289062 279.41143798828125 193.37742614746094 281.0920715332031 193.58631896972656 282.6363525390625 C 193.16371154785156 283.9897766113281 193.12876892089844 285.167724609375 193.40838623046875 286.23394775390625 C 193.0848846435547 286.97161865234375 192.57090759277344 287.44476318359375 191.7852783203125 287.5837097167969 C 191.05885314941406 287.4584655761719 190.43362426757812 287.22900390625 190.21322631835938 287.2515869140625 C 190.17169189453125 287.5474853515625 190.2672882080078 288.0335998535156 190.47801208496094 288.7066650390625 C 190.72305297851562 289.6065979003906 190.85348510742188 290.7509765625 190.73687744140625 292.04205322265625 C 190.36181640625 293.35064697265625 189.75717163085938 294.6864013671875 188.93067932128906 296.00543212890625 C 187.84091186523438 297.20697021484375 186.4217071533203 298.1396484375 184.91075134277344 298.7518615722656 C 183.3564453125 298.9629211425781 181.79908752441406 298.8504333496094 180.33616638183594 298.2635498046875 C 179.19505310058594 297.2130126953125 178.28781127929688 295.86328125 177.49237060546875 294.4524841308594 C 176.55670166015625 293.37127685546875 175.85415649414062 292.3802795410156 175.73634338378906 291.6546630859375 C 176.11944580078125 291.2288818359375 176.5104522705078 291.3680725097656 177.107666015625 292.3033142089844 C 177.65521240234375 293.7687683105469 178.19259643554688 295.70245361328125 178.7978515625 298.00115966796875 C 179.00363159179688 300.42974853515625 178.22140502929688 302.7906494140625 176.67840576171875 305.28155517578125 C 175.3236846923828 307.64190673828125 174.0875244140625 310.1562194824219 172.58827209472656 312.3076171875 C 171.08151245117188 313.9159851074219 169.6668243408203 314.9441223144531 168.1416473388672 315.36761474609375 C 166.61639404296875 315.080322265625 165.24708557128906 314.3815612792969 164.104736328125 313.3983459472656 C 163.07029724121094 312.2596130371094 162.28082275390625 311.1836853027344 161.8262176513672 310.3724365234375 C 161.6912078857422 309.9386901855469 161.87066650390625 309.79833984375 162.35037231445312 310.0234069824219 C 163.08599853515625 310.7057189941406 164.05905151367188 311.8132629394531 165.23509216308594 313.185546875 C 166.4597625732422 314.8235168457031 167.5663299560547 316.87005615234375 168.36581420898438 319.2830810546875 C 168.6688232421875 321.84619140625 168.49305725097656 324.58111572265625 168.07598876953125 327.2329406738281 C 167.0885772705078 329.75994873046875 166.08651733398438 332.2915954589844 164.65084838867188 334.67333984375 C 163.01856994628906 336.4612731933594 161.26470947265625 337.4959411621094 159.43075561523438 337.9335021972656 C 157.613037109375 337.8325500488281 155.94322204589844 337.1600646972656 154.4815673828125 335.8834228515625 C 153.2959442138672 334.0091552734375 152.4404754638672 331.7849426269531 151.7901611328125 329.4376220703125 C 151.50155639648438 327.0628967285156 151.5672607421875 324.6754455566406 152.01544189453125 322.2678527832031 C 152.60057067871094 319.87237548828125 153.33334350585938 317.5968322753906 153.9000701904297 315.3465270996094 C 154.2152099609375 313.2207946777344 154.38455200195312 311.19281005859375 154.61328125 309.15863037109375 C 155.1266632080078 307.4688720703125 155.57992553710938 305.6972961425781 156.0727081298828 303.92559814453125 C 156.89230346679688 302.518310546875 157.48687744140625 301.044677734375 157.875244140625 299.51580810546875 C 158.5369110107422 298.0653991699219 158.60525512695312 296.61859130859375 158.24462890625 295.017578125 C 158.31045532226562 293.400146484375 158.61383056640625 291.8382263183594 158.597412109375 290.4504699707031 C 158.86497497558594 289.3111572265625 159.60508728027344 288.42236328125 160.6770782470703 287.85992431640625 C 161.7368927001953 287.62042236328125 162.98890686035156 287.5779113769531 164.1913604736328 287.6104431152344 C 165.27142333984375 287.64923095703125 166.05699157714844 287.7414245605469 166.49766540527344 287.8750305175781 C 166.65322875976562 288.00860595703125 166.4411163330078 288.12469482421875 165.82012939453125 288.2236328125 C 164.90711975097656 288.3210754394531 163.7703094482422 288.3972473144531 162.4219970703125 288.4223937988281 C 161.00486755371094 288.3160400390625 159.65731811523438 288.008056640625 158.45375061035156 287.4403991699219 C 157.48797607421875 286.5986022949219 156.82467651367188 285.492431640625 156.48817443847656 284.1867370605469 C 156.4569549560547 282.74493408203125 156.7063446044922 281.24224853515625 157.1936492919922 279.6957702636719 C 157.79884338378906 278.0880432128906 158.44000244140625 276.453857421875 159.13259887695312 274.832763671875 C 159.8385467529297 273.19305419921875 160.5631561279297 271.4803466796875 161.32742309570312 269.71514892578125 C 162.21380615234375 267.9547119140625 163.25384521484375 266.1988220214844 164.37832641601562 264.3485107421875 C 165.58851623535156 262.4952087402344 166.9443359375 260.74114990234375 168.3776092529297 258.9070129394531 C 169.80126953125 257.0295715332031 171.2870635986328 255.2123260498047 166.8427276611328 257.8555908203125" stroke-width="0.0" fill="rgb(171, 158, 200)" opacity="0.99819994" stroke="rgb(248, 85, 91)" stroke-opacity="0.38011515" stroke-linecap="round" stroke-linejoin="round"/>
  </g>
</svg>
