<?xml version="1.0" ?>
<svg xmlns="http://www.w3.org/2000/svg" version="1.1" width="474" height="596">
  <defs/>
  <g>
    <path d="M 269.35888671875 -1.567819356918335 C 269.6927795410156 -1.9627878665924072 269.9668884277344 -2.3595633506774902 270.24639892578125 -2.798163414001465 C 270.4825744628906 -3.2845447063446045 270.698486328125 -3.7180919647216797 270.8513488769531 -4.01318359375 C 271.13897705078125 -4.351294040679932 271.3188781738281 -4.594570159912109 271.5190124511719 -4.744534015655518 C 272.0944519042969 -4.747889995574951 272.8843994140625 -4.308632850646973 273.9548645019531 -4.014117240905762 C 275.5362243652344 -3.084730625152588 277.9800720214844 -2.1020774841308594 281.2700500488281 -1.152095913887024 C 285.11767578125 0.629184365272522 290.2943115234375 2.15974760055542 296.6576232910156 3.5115997791290283 C 303.8786926269531 5.5449137687683105 311.6675109863281 8.218156814575195 319.7862854003906 11.45837688446045 C 328.0877990722656 15.109509468078613 336.2461853027344 19.252344131469727 344.08258056640625 24.12913703918457 C 352.3955993652344 28.838788986206055 360.3568115234375 34.672950744628906 368.4768981933594 41.071144104003906 C 376.6097717285156 48.039241790771484 384.5309143066406 55.484161376953125 392.0426940917969 63.2867546081543 C 399.1496276855469 71.19190979003906 405.7746276855469 79.36263275146484 412.02972412109375 87.84381866455078 C 418.044921875 96.57794189453125 423.60711669921875 105.36226654052734 428.5074462890625 113.6882095336914 C 433.16015625 120.68987274169922 434.746337890625 127.55307006835938 432.4983215332031 135.07754516601562 C 428.5987243652344 143.6073760986328 422.89990234375 152.300048828125 416.025390625 160.8521728515625 C 408.992431640625 169.27719116210938 401.4342346191406 177.00067138671875 393.5579528808594 184.1730499267578 C 385.51934814453125 191.08987426757812 377.0922546386719 197.65672302246094 368.1807861328125 203.87457275390625 C 359.0162048339844 210.19749450683594 349.81695556640625 216.04119873046875 339.8120422363281 220.1274871826172 C 330.13427734375 223.29437255859375 322.23199462890625 225.42279052734375 317.2080993652344 225.54388427734375 C 316.53021240234375 222.36851501464844 319.7861633300781 217.01393127441406 325.6693420410156 210.22630310058594 C 333.20068359375 202.5042724609375 341.2511901855469 194.2627410888672 348.8553466796875 185.8572540283203 C 355.28131103515625 177.37498474121094 360.46893310546875 169.266357421875 364.2029724121094 161.54666137695312 C 366.5920715332031 153.89547729492188 367.616943359375 146.8282012939453 367.3145446777344 140.4813995361328 C 365.7369689941406 134.71282958984375 362.8347473144531 129.49034118652344 358.5232849121094 124.8226089477539 C 353.29144287109375 120.15924835205078 347.5867919921875 115.25924682617188 341.830810546875 110.91981506347656 C 336.8967590332031 106.00338745117188 330.9299621582031 102.51555633544922 324.31170654296875 100.8821792602539 C 317.5057678222656 100.16171264648438 310.6656799316406 101.69000244140625 303.7532043457031 103.96575927734375 C 296.3825988769531 105.82087707519531 289.0143127441406 107.29338073730469 281.7544250488281 108.3827896118164 C 274.7420349121094 109.25019073486328 268.2911682128906 110.04630279541016 262.3945007324219 110.97252655029297 C 256.90576171875 111.77033996582031 251.77867126464844 112.65483093261719 246.91725158691406 113.86615753173828 C 242.20733642578125 115.31671905517578 237.5022735595703 116.95819854736328 232.619873046875 118.84490203857422 C 227.45896911621094 121.00286865234375 221.98019409179688 123.33609008789062 216.15902709960938 125.71686553955078 C 209.9989471435547 128.0345001220703 203.57858276367188 130.29957580566406 196.9319610595703 132.55166625976562 C 190.0285186767578 134.7678680419922 182.9188690185547 136.76779174804688 175.82704162597656 138.61724853515625 C 169.0902099609375 140.52127075195312 162.89508056640625 142.5900115966797 157.228515625 144.96994018554688 C 152.21615600585938 148.00567626953125 148.448486328125 152.0944366455078 146.01473999023438 157.19644165039062 C 144.4991912841797 163.03565979003906 144.21949768066406 169.522705078125 145.511962890625 176.7184295654297 C 148.3521270751953 184.47747802734375 152.70135498046875 192.47384643554688 158.4423828125 200.49716186523438 C 165.30772399902344 208.21034240722656 172.99696350097656 215.3879852294922 181.21287536621094 221.75851440429688 C 189.5162811279297 227.37228393554688 197.3085479736328 232.18629455566406 203.91383361816406 236.18911743164062 C 208.72036743164062 239.47421264648438 211.1693115234375 242.05064392089844 210.78121948242188 243.70848083496094 C 207.572265625 244.04879760742188 202.41525268554688 242.98440551757812 195.74070739746094 241.4213409423828 C 187.83316040039062 241.23931884765625 178.8488311767578 241.52816772460938 169.4461669921875 241.42196655273438 C 159.81846618652344 240.97227478027344 149.93125915527344 240.81214904785156 140.04371643066406 239.81918334960938 C 130.52047729492188 238.8623504638672 121.40869903564453 236.63795471191406 112.62979125976562 234.1652069091797 C 103.543701171875 231.69985961914062 94.98137664794922 228.72117614746094 86.53938293457031 225.49290466308594 C 78.18378448486328 222.10791015625 70.35468292236328 218.3621826171875 63.308868408203125 214.30029296875 C 57.46185302734375 210.4928741455078 54.06428909301758 205.42442321777344 53.2275505065918 198.59933471679688 C 53.70117950439453 190.2527618408203 54.450035095214844 181.02902221679688 56.17265701293945 171.55548095703125 C 57.949501037597656 162.26962280273438 60.01198959350586 153.46194458007812 62.522178649902344 144.93162536621094 C 64.75924682617188 136.75872802734375 67.76091003417969 129.24659729003906 71.16651153564453 121.4292984008789 C 74.72616577148438 113.70362854003906 78.75882720947266 105.30582427978516 83.48243713378906 97.20933532714844 C 88.33734893798828 88.83165740966797 93.8780517578125 80.70845794677734 100.6280288696289 73.12287902832031 C 107.38330841064453 65.0019760131836 114.38994598388672 57.056331634521484 122.54064178466797 50.30448532104492 C 130.4315185546875 43.418670654296875 138.7439422607422 37.2568244934082 146.69564819335938 31.379976272583008 C 154.72567749023438 26.63214111328125 163.89405822753906 24.4443302154541 173.23548889160156 23.853702545166016 C 181.85302734375 24.292238235473633 190.82447814941406 25.229421615600586 199.20425415039062 26.99408721923828 C 205.52987670898438 29.155805587768555 209.9722900390625 29.930805206298828 213.12750244140625 27.625080108642578 C 217.7621612548828 29.498228073120117 222.42945861816406 29.538753509521484 227.33517456054688 26.17072868347168 C 232.83798217773438 19.580429077148438 240.00897216796875 12.83112907409668 249.0925750732422 7.376774311065674 C 258.8735656738281 2.423414707183838 269.3523864746094 -1.5667072534561157 269.35888671875 -1.567819356918335" stroke-width="0.0" fill="rgb(64, 38, 31)" opacity="0.9999898" stroke="rgb(132, 70, 107)" stroke-opacity="0.70199823" stroke-linecap="round" stroke-linejoin="round"/>
    <path d="M 319.08038330078125 224.01815795898438 C 310.9674072265625 229.03712463378906 302.94317626953125 232.77084350585938 296.6395263671875 235.12181091308594 C 292.3126220703125 236.43165588378906 292.23876953125 238.68569946289062 294.2177429199219 243.05560302734375 C 294.74932861328125 249.52316284179688 293.2327880859375 256.0478210449219 288.2261047363281 260.38580322265625 C 279.19696044921875 260.8788757324219 267.7516784667969 258.5670471191406 255.4611358642578 255.3356170654297 C 244.014892578125 252.9153289794922 235.24368286132812 251.2992401123047 230.01377868652344 250.23846435546875 C 228.9396514892578 249.77687072753906 232.006591796875 250.11070251464844 238.65408325195312 251.46177673339844 C 248.20523071289062 253.45193481445312 259.79766845703125 255.8173065185547 271.8165588378906 258.6930847167969 C 282.548095703125 263.640380859375 290.89898681640625 271.11199951171875 296.9704284667969 280.5718688964844 C 302.17950439453125 290.8042907714844 306.90185546875 299.882080078125 310.34881591796875 306.6800842285156 C 312.15289306640625 310.5889892578125 311.990966796875 310.5992431640625 309.60711669921875 306.2272644042969 C 304.84539794921875 297.3398132324219 298.05560302734375 285.22265625 291.61724853515625 271.690673828125 C 288.85870361328125 258.7211608886719 291.302978515625 247.91793823242188 299.3387756347656 241.0849151611328 C 313.4509582519531 241.48097229003906 331.1316833496094 246.31280517578125 349.9173278808594 254.86309814453125 C 366.4884033203125 266.5220031738281 382.423095703125 275.3927001953125 396.2432556152344 281.8956604003906 C 405.3816833496094 288.0483093261719 410.29168701171875 293.05108642578125 413.878173828125 294.81805419921875 C 419.4533996582031 292.3139953613281 426.6605224609375 288.3104553222656 435.5765380859375 290.0496520996094 C 447.60919189453125 299.5754089355469 462.2049865722656 305.454345703125 469.83734130859375 313.8388366699219 C 462.68212890625 330.0124816894531 448.6024169921875 345.16766357421875 431.3818359375 351.2364501953125 C 414.6268615722656 341.96649169921875 396.26055908203125 331.310791015625 375.0383605957031 327.32769775390625 C 354.27288818359375 323.2933349609375 336.8062438964844 322.30694580078125 325.5241394042969 329.1836242675781 C 321.2753601074219 345.0869140625 319.90234375 367.6458435058594 315.59375 393.8595886230469 C 311.0880432128906 421.97802734375 304.60369873046875 448.9462585449219 295.835693359375 472.5978698730469 C 289.0039978027344 493.1737976074219 286.2765197753906 510.63873291015625 280.6621398925781 522.634033203125 C 268.50457763671875 527.7470092773438 254.49270629882812 529.3017578125 242.8588409423828 532.3697509765625 C 237.18653869628906 541.3402709960938 235.93850708007812 553.6424560546875 239.81051635742188 563.6682739257812 C 253.7288055419922 570.3058471679688 274.0417175292969 571.9032592773438 296.933349609375 571.291259765625 C 318.3160705566406 570.8340454101562 334.2005615234375 570.3991088867188 340.9702453613281 574.4856567382812 C 335.8064880371094 580.09716796875 320.9540100097656 584.0101318359375 299.0721130371094 584.6673583984375 C 274.450927734375 584.1813354492188 252.03578186035156 583.24365234375 236.97288513183594 575.0869140625 C 231.50137329101562 558.373779296875 233.8123321533203 535.2052001953125 238.8800048828125 509.50274658203125 C 242.81411743164062 487.1728210449219 239.76039123535156 469.9349670410156 233.0902557373047 460.18743896484375 C 229.8202667236328 460.2744445800781 227.76577758789062 466.47283935546875 223.744140625 473.34869384765625 C 217.9850311279297 479.15924072265625 214.9126739501953 485.572021484375 213.3280487060547 492.9447937011719 C 211.78619384765625 501.79571533203125 211.32310485839844 513.1666259765625 212.8272705078125 528.2876586914062 C 214.74830627441406 545.75 217.36526489257812 562.5380859375 217.28805541992188 575.6749877929688 C 207.89010620117188 583.1141967773438 191.81488037109375 587.1160888671875 171.72967529296875 592.701416015625 C 150.82290649414062 598.2283325195312 132.29946899414062 597.0955810546875 119.57183837890625 590.0935668945312 C 117.06681823730469 583.10205078125 126.35597229003906 580.7027587890625 144.9723663330078 582.27783203125 C 168.38584899902344 581.7352905273438 191.46441650390625 579.0481567382812 208.84555053710938 572.6509399414062 C 215.43919372558594 559.5984497070312 213.89700317382812 543.9131469726562 207.94105529785156 532.1760864257812 C 196.2061004638672 530.4473876953125 182.14682006835938 531.8284301757812 168.1322784423828 531.5139770507812 C 157.34620666503906 527.2979125976562 152.91253662109375 519.6290893554688 156.7350616455078 509.5058898925781 C 164.58218383789062 496.94818115234375 164.99603271484375 481.273193359375 157.41278076171875 461.8951110839844 C 154.45240783691406 438.9331970214844 155.18505859375 417.21380615234375 147.8333740234375 399.85247802734375 C 125.62195587158203 389.27081298828125 114.31153869628906 370.2408142089844 112.75518035888672 349.3101501464844 C 102.42317199707031 347.3907165527344 86.96540832519531 358.23681640625 70.11644744873047 369.64422607421875 C 52.914546966552734 367.08709716796875 43.901092529296875 353.91790771484375 46.412696838378906 335.40203857421875 C 58.65998077392578 318.6383056640625 72.08748626708984 304.5849914550781 82.9356918334961 295.0767822265625 C 90.33892822265625 290.6355285644531 92.3842544555664 287.5770568847656 91.3990707397461 282.86956787109375 C 93.68853759765625 277.6454162597656 100.41556549072266 272.19866943359375 111.28350830078125 265.1053466796875 C 125.56655883789062 256.14215087890625 142.0994110107422 248.18453979492188 158.9769287109375 242.3563690185547 C 173.2379608154297 239.58670043945312 182.76658630371094 241.89022827148438 186.5545196533203 250.65496826171875 C 183.69398498535156 264.7903137207031 177.8559112548828 282.14410400390625 171.4381561279297 301.109130859375 C 165.7432861328125 319.7198791503906 161.47755432128906 335.8446044921875 158.394775390625 347.8736267089844 C 156.67921447753906 354.8414306640625 156.37640380859375 356.7574768066406 157.34725952148438 353.7529296875 C 159.34889221191406 346.1185302734375 162.3153076171875 334.9669494628906 166.15643310546875 321.3703308105469 C 170.31695556640625 306.2228088378906 174.45843505859375 290.640625 178.6006622314453 275.83807373046875 C 182.84036254882812 262.71942138671875 188.4161376953125 252.4520721435547 196.78533935546875 245.87503051757812 C 208.10440063476562 242.94053649902344 220.8074951171875 240.71739196777344 234.12220764160156 238.08522033691406 C 247.96742248535156 235.15101623535156 262.1014404296875 232.2525634765625 319.08038330078125 224.01815795898438" stroke-width="0.0" fill="rgb(232, 106, 162)" opacity="0.9994389" stroke="rgb(201, 16, 132)" stroke-opacity="0.47924513" stroke-linecap="round" stroke-linejoin="round"/>
    <path d="M 336.59356689453125 94.62012481689453 C 339.3199462890625 94.52371215820312 341.81072998046875 94.65380096435547 343.6494140625 94.18511962890625 C 344.90283203125 93.74199676513672 345.9196472167969 93.98412322998047 346.9544677734375 94.8332748413086 C 347.8270568847656 95.69806671142578 348.4356689453125 96.58820343017578 348.9949951171875 97.45711517333984 C 349.5852355957031 98.29707336425781 350.1452941894531 99.15541076660156 350.7742004394531 99.85356140136719 C 351.53521728515625 100.37339782714844 352.0893859863281 100.91360473632812 352.5032653808594 101.52338409423828 C 352.9429931640625 102.13325500488281 353.67254638671875 102.67774200439453 354.593505859375 103.2554702758789 C 355.4965515136719 104.04730224609375 356.4689636230469 105.11807250976562 357.5943603515625 106.4521713256836 C 358.85418701171875 108.06456756591797 360.2090759277344 110.0557861328125 361.6255187988281 112.50048065185547 C 363.0719299316406 115.370849609375 364.51458740234375 118.5910873413086 365.93017578125 122.17311096191406 C 367.25909423828125 126.13845825195312 368.44720458984375 130.36727905273438 369.42279052734375 134.7745819091797 C 370.0860900878906 139.31410217285156 370.35260009765625 143.9970245361328 370.2321472167969 148.79827880859375 C 369.71600341796875 153.65695190429688 368.82568359375 158.5294952392578 367.52386474609375 163.33819580078125 C 365.8299560546875 167.9828338623047 363.8328857421875 172.59019470214844 361.60205078125 177.2333984375 C 359.1696472167969 181.8488311767578 356.455322265625 186.2722930908203 353.2721862792969 190.36322021484375 C 349.874267578125 194.24444580078125 346.3963928222656 198.22190856933594 342.89794921875 202.17886352539062 C 339.3343811035156 205.97616577148438 335.56854248046875 209.66055297851562 331.57708740234375 212.8875274658203 C 327.54754638671875 215.7849578857422 323.4404602050781 218.32691955566406 319.9764404296875 221.02967834472656 C 316.4311828613281 223.70550537109375 312.77032470703125 225.67324829101562 309.060791015625 227.20750427246094 C 305.22894287109375 228.73533630371094 301.21832275390625 230.26449584960938 297.1994323730469 231.98619079589844 C 293.3044128417969 233.6785125732422 289.40875244140625 235.1697540283203 285.2589416503906 236.34837341308594 C 281.0992431640625 237.51307678222656 277.1103820800781 238.61419677734375 273.057373046875 239.54713439941406 C 268.63812255859375 240.35728454589844 264.1552429199219 241.1127471923828 259.72235107421875 241.80003356933594 C 255.24105834960938 242.3591766357422 250.65277099609375 242.87100219726562 246.01185607910156 243.32192993164062 C 241.39576721191406 243.6892547607422 236.76132202148438 243.93121337890625 231.9163818359375 244.06048583984375 C 226.9483184814453 243.9637908935547 222.14268493652344 243.7075653076172 217.64796447753906 243.2236785888672 C 213.21168518066406 242.38528442382812 208.62449645996094 241.04397583007812 203.64395141601562 239.70448303222656 C 198.7418975830078 238.55364990234375 194.2247314453125 237.00636291503906 189.8636016845703 234.93966674804688 C 185.57333374023438 232.89231872558594 181.4747314453125 230.68447875976562 177.72450256347656 228.14425659179688 C 174.2277069091797 225.3944854736328 170.77801513671875 222.4755859375 167.31808471679688 219.4610137939453 C 163.93516540527344 216.29957580566406 160.54156494140625 213.1409149169922 157.20516967773438 209.86546325683594 C 153.9423828125 206.2824249267578 151.0591583251953 202.31129455566406 148.8406219482422 197.77664184570312 C 146.90805053710938 192.8445587158203 145.1473846435547 187.76800537109375 143.88314819335938 182.4425048828125 C 142.97183227539062 176.8956298828125 142.83859252929688 171.4504852294922 143.468994140625 166.17762756347656 C 144.17214965820312 161.1334228515625 145.24319458007812 156.18495178222656 148.2553253173828 152.58026123046875 C 151.9322967529297 149.89161682128906 155.4954071044922 146.82945251464844 156.9108428955078 142.4433135986328 C 157.2853240966797 137.7203826904297 157.97483825683594 133.41778564453125 158.12437438964844 130.53184509277344 C 159.30487060546875 130.40830993652344 161.13743591308594 131.8758087158203 163.5382843017578 133.76715087890625 C 166.95474243164062 135.5275115966797 170.85252380371094 136.00425720214844 175.0550537109375 135.19198608398438 C 179.69265747070312 133.61477661132812 184.6051025390625 131.70065307617188 189.48876953125 129.75558471679688 C 194.2188262939453 127.63391876220703 199.16372680664062 125.56873321533203 204.13931274414062 123.95470428466797 C 208.89564514160156 122.71275329589844 213.60263061523438 121.37622833251953 218.44935607910156 119.96477508544922 C 223.5371551513672 118.63542175292969 228.8536834716797 117.67761993408203 233.91424560546875 116.57010650634766 C 238.2008514404297 115.01818084716797 241.23513793945312 113.33505249023438 242.9430694580078 111.30349731445312 C 243.410888671875 108.51976776123047 242.8394775390625 105.04483795166016 242.00155639648438 101.52133178710938 C 241.78268432617188 98.65289306640625 242.6782684326172 96.64778900146484 244.75511169433594 95.32637786865234 C 246.91546630859375 96.76182556152344 249.76531982421875 99.16365051269531 252.84432983398438 102.01893615722656 C 256.1221008300781 104.77729797363281 259.3615417480469 106.95256805419922 262.696533203125 107.35301208496094 C 267.3775329589844 106.79949951171875 272.6695556640625 105.99955749511719 277.8675537109375 105.5473861694336 C 283.26361083984375 105.35404968261719 288.4381103515625 104.28150939941406 293.2030029296875 102.46562957763672 C 297.5892333984375 101.2255630493164 301.390625 100.77050018310547 304.6911315917969 101.7679672241211 C 307.5020446777344 103.5866928100586 310.0529479980469 104.22407531738281 312.53118896484375 103.80988311767578 C 315.25042724609375 103.65967559814453 318.720458984375 104.82823944091797 323.4331970214844 107.89143371582031 C 327.5060729980469 111.0866470336914 330.2051086425781 115.5971908569336 330.89361572265625 120.96897888183594 C 330.32659912109375 126.14850616455078 328.8761901855469 130.3284149169922 327.9775695800781 133.01773071289062 C 328.1513977050781 133.8251190185547 329.82525634765625 133.21461486816406 333.0174255371094 131.73248291015625 C 337.3379821777344 130.04161071777344 341.3825378417969 128.66696166992188 344.1614685058594 127.07775115966797 C 345.5552062988281 124.41294860839844 345.760498046875 121.01351165771484 344.82415771484375 117.59112548828125 C 343.8265380859375 113.56037139892578 342.7076110839844 109.5914077758789 339.7620544433594 106.42237854003906 C 335.6968688964844 103.0323486328125 330.33221435546875 100.36908721923828 324.25592041015625 99.02230834960938 C 317.8401794433594 98.62779235839844 311.18365478515625 98.69908905029297 336.59356689453125 94.62012481689453" stroke-width="0.0" fill="rgb(251, 188, 104)" opacity="0.9999995" stroke="rgb(158, 41, 67)" stroke-opacity="0.17667209" stroke-linecap="round" stroke-linejoin="round"/>
  </g>
</svg>
