<?xml version="1.0" ?>
<svg xmlns="http://www.w3.org/2000/svg" version="1.1" width="305" height="210">
  <defs/>
  <g>
    <path d="M -4.580353736877441 -5.243528842926025 C -2.792405366897583 -5.087320804595947 -0.7177920937538147 -4.950290679931641 1.954969048500061 -4.814993381500244 C 5.479621887207031 -4.699014663696289 10.034736633300781 -4.666110515594482 15.795923233032227 -4.6105499267578125 C 22.899076461791992 -4.5934271812438965 31.288671493530273 -4.58706521987915 40.88154983520508 -4.654702663421631 C 51.53763961791992 -4.7330193519592285 63.04811477661133 -4.884493350982666 75.17326354980469 -5.089107513427734 C 87.58644104003906 -5.315399646759033 100.26839447021484 -5.509363174438477 112.87452697753906 -5.699288845062256 C 125.35706329345703 -5.83416748046875 137.65872192382812 -5.81610107421875 149.76385498046875 -5.567250728607178 C 161.7067413330078 -5.184356212615967 173.70730590820312 -4.936180591583252 185.82952880859375 -4.995934009552002 C 198.3654327392578 -5.16227388381958 211.35496520996094 -5.2272138595581055 225.0264892578125 -4.99379301071167 C 239.07876586914062 -4.474380016326904 253.35940551757812 -4.256266117095947 267.5268249511719 -4.893980503082275 C 280.91888427734375 -6.907744407653809 292.8262634277344 -8.449118614196777 302.3946228027344 -7.918285369873047 C 308.7548522949219 -3.6489758491516113 311.52593994140625 4.925033092498779 311.5135192871094 17.23274040222168 C 310.2837219238281 31.943403244018555 309.92083740234375 47.68220901489258 311.00830078125 63.169132232666016 C 311.9949645996094 77.04202270507812 310.8448181152344 88.04718017578125 305.92608642578125 95.38713836669922 C 297.1134033203125 99.17201232910156 285.4133605957031 100.17285919189453 271.8695068359375 99.37895202636719 C 257.5256652832031 97.6491928100586 243.34144592285156 95.60454559326172 230.47653198242188 94.1856689453125 C 219.80686950683594 94.4220199584961 212.1354217529297 96.43812561035156 208.02455139160156 100.16292572021484 C 208.01560974121094 105.20892333984375 210.74044799804688 110.71935272216797 214.1614990234375 115.57626342773438 C 216.5400390625 119.22632598876953 218.64036560058594 123.70365905761719 222.7530975341797 121.18029022216797 C 223.8307342529297 116.21776580810547 225.12940979003906 112.45581817626953 226.16448974609375 104.45557403564453 C 230.91702270507812 102.56121826171875 238.36260986328125 100.00563049316406 246.05868530273438 98.45211791992188 C 254.66595458984375 98.53331756591797 263.9139404296875 100.37236785888672 274.0311584472656 103.05033874511719 C 281.64697265625 110.27678680419922 289.3982238769531 117.68827819824219 296.1205139160156 126.38797760009766 C 301.5210266113281 135.9889373779297 305.2620849609375 146.0518798828125 307.2234191894531 156.1982879638672 C 307.4501037597656 166.06663513183594 305.9810791015625 175.2979736328125 303.034423828125 183.6008758544922 C 298.8074645996094 190.72499084472656 293.5942687988281 196.30657958984375 287.762451171875 200.33013916015625 C 281.5111999511719 202.76632690429688 275.114990234375 203.78924560546875 268.9284973144531 203.7849578857422 C 263.2565612792969 203.17153930664062 258.0053405761719 202.21090698242188 253.3072509765625 201.53749084472656 C 249.18197631835938 201.24270629882812 245.60414123535156 201.44032287597656 242.47793579101562 202.07627868652344 C 239.7423553466797 203.04331970214844 237.47923278808594 204.15576171875 235.76931762695312 205.18417358398438 C 234.4549560546875 205.72601318359375 233.4456329345703 205.4600067138672 232.85415649414062 204.11080932617188 C 232.54335021972656 201.47557067871094 232.38026428222656 197.22703552246094 232.3133087158203 191.5662078857422 C 232.2532958984375 184.80751037597656 232.2855224609375 177.39447021484375 232.42958068847656 169.93922424316406 C 232.85968017578125 163.12059020996094 233.4525909423828 157.72512817382812 233.9813690185547 154.322265625 C 234.1882781982422 153.17344665527344 233.71487426757812 154.08763122558594 231.9131317138672 156.8038787841797 C 228.0129852294922 160.9162139892578 221.38218688964844 166.0373077392578 212.85675048828125 170.4246368408203 C 204.42724609375 169.51185607910156 197.97962951660156 165.3471221923828 193.94984436035156 158.17698669433594 C 191.92855834960938 149.4012908935547 191.27786254882812 142.39036560058594 191.3394317626953 140.80014038085938 C 191.4027099609375 144.11485290527344 190.5457305908203 150.55450439453125 188.08607482910156 158.3731231689453 C 183.25137329101562 165.8606719970703 176.8426055908203 171.25189208984375 169.30435180664062 176.38645935058594 C 163.36056518554688 176.6095428466797 159.3037109375 169.0887451171875 155.6005401611328 163.54714965820312 C 151.9036865234375 160.24249267578125 148.0623779296875 157.90663146972656 143.5440216064453 159.25181579589844 C 135.90492248535156 160.01858520507812 123.71697235107422 157.73504638671875 125.51639556884766 152.6573944091797 C 122.2516860961914 145.18203735351562 118.96747589111328 143.6902618408203 117.37400817871094 145.3492431640625 C 117.73181915283203 149.4921875 119.64851379394531 158.61558532714844 123.15894317626953 164.55235290527344 C 132.0386962890625 169.9242401123047 124.25376892089844 177.08058166503906 120.04536437988281 170.7627410888672 C 109.88462829589844 167.8032684326172 100.33231353759766 157.4526824951172 93.88943481445312 146.40447998046875 C 90.96147918701172 134.49269104003906 90.70669555664062 122.28008270263672 92.76636505126953 111.18014526367188 C 96.3739242553711 102.0899658203125 100.4599838256836 95.92158508300781 104.44239807128906 92.54254150390625 C 110.48374938964844 91.17672729492188 116.30130004882812 90.6064453125 122.41764831542969 89.88923645019531 C 128.62942504882812 88.66226196289062 134.89060974121094 86.45823669433594 141.12173461914062 83.30329132080078 C 146.91954040527344 79.6469955444336 151.9748077392578 76.28042602539062 155.71847534179688 73.92919921875 C 159.26499938964844 73.33135986328125 156.30384826660156 72.46803283691406 152.22561645507812 72.971435546875 C 145.63975524902344 73.11483764648438 137.21629333496094 73.38921356201172 127.61019134521484 75.092529296875 C 117.92678833007812 79.39913940429688 108.11585998535156 85.50276184082031 98.10762786865234 91.66483306884766 C 88.49712371826172 97.82620239257812 77.91499328613281 102.54692840576172 65.69403076171875 105.61711883544922 C 52.3513069152832 107.6087646484375 38.611183166503906 108.76428985595703 25.038467407226562 109.31609344482422 C 12.378267288208008 109.28939056396484 1.412557601928711 107.71282196044922 -7.025208473205566 103.4717788696289 C -12.433348655700684 95.9469223022461 -15.295653343200684 85.59847259521484 -16.073476791381836 72.98320007324219 C -15.234023094177246 58.648704528808594 -13.333757400512695 43.022281646728516 -10.61429500579834 26.701269149780273 C -7.486620903015137 9.991008758544922 -4.199621677398682 -6.831734657287598 -4.580353736877441 -5.243528842926025" stroke-width="0.0" fill="rgb(85, 77, 73)" opacity="0.9999907" stroke="rgb(164, 195, 90)" stroke-opacity="0.5909725" stroke-linecap="round" stroke-linejoin="round"/>
    <path d="M 7.077999114990234 108.85428619384766 C 9.891942024230957 105.20246887207031 11.112215995788574 104.97688293457031 12.273143768310547 104.75897216796875 C 13.521880149841309 104.55829620361328 14.916216850280762 104.37726593017578 16.44437026977539 104.22117614746094 C 18.137977600097656 104.11729431152344 20.027341842651367 104.07325744628906 22.184967041015625 104.10427856445312 C 24.66510009765625 104.20880126953125 27.526264190673828 104.36048889160156 30.713695526123047 104.54969024658203 C 34.33479309082031 104.76582336425781 38.443180084228516 104.94312286376953 42.76163864135742 105.04002380371094 C 47.26244354248047 104.9892349243164 51.91377639770508 105.00578308105469 56.56016540527344 105.1707534790039 C 60.944419860839844 105.77104949951172 64.91108703613281 106.6008071899414 68.49320983886719 107.59351348876953 C 72.86820983886719 108.11618041992188 77.1445083618164 107.14708709716797 79.7633285522461 108.17758178710938 C 79.84992980957031 116.72088623046875 79.6294174194336 116.71131896972656 72.31876373291016 117.06905364990234 C 70.28730773925781 117.93018341064453 69.4260482788086 118.67002868652344 69.04042053222656 119.41035461425781 C 69.43936920166016 120.27861022949219 70.48219299316406 121.45271301269531 71.95753479003906 123.1197509765625 C 73.84217071533203 125.56332397460938 76.02652740478516 127.19861602783203 78.51454162597656 127.82982635498047 C 81.62698364257812 130.42391967773438 83.92467498779297 132.35923767089844 85.62605285644531 134.31483459472656 C 86.17486572265625 136.1730194091797 86.16897583007812 138.53268432617188 85.6965103149414 141.17340087890625 C 85.05760955810547 143.64596557617188 85.60498809814453 147.41122436523438 86.38748168945312 150.0206298828125 C 87.86315155029297 150.92678833007812 89.73888397216797 152.86941528320312 91.7613754272461 154.4930877685547 C 93.94490814208984 156.12484741210938 96.32322692871094 157.7240447998047 98.79507446289062 159.12449645996094 C 101.3346176147461 160.3795166015625 103.96968841552734 161.5976104736328 104.26025390625 158.58580017089844 C 105.93439483642578 161.87232971191406 109.75205993652344 165.357421875 111.81023406982422 167.51846313476562 C 112.88948822021484 169.66366577148438 113.45662689208984 172.11721801757812 113.58210754394531 174.84104919433594 C 113.29420471191406 177.7976531982422 112.59558868408203 180.73690795898438 112.1263427734375 183.6651153564453 C 109.65863037109375 185.78402709960938 107.8487777709961 187.70632934570312 105.67889404296875 189.2747344970703 C 103.20275115966797 190.61904907226562 100.49176025390625 191.77198791503906 97.5627212524414 192.85850524902344 C 94.57855224609375 194.04940795898438 91.66019439697266 195.15103149414062 89.09175872802734 195.97763061523438 C 86.96056365966797 196.2199249267578 85.3357925415039 195.8146209716797 84.3028335571289 194.88987731933594 C 83.95708465576172 193.67050170898438 84.2031478881836 192.44912719726562 85.01055145263672 191.427490234375 C 86.19021606445312 190.8384246826172 87.77088928222656 190.7516632080078 89.45728302001953 191.0707550048828 C 91.23950958251953 191.7154083251953 93.01154327392578 192.46884155273438 94.62226104736328 193.2469940185547 C 96.06527709960938 193.87632751464844 97.34794616699219 194.4100799560547 98.36949920654297 194.93521118164062 C 99.47734832763672 195.31808471679688 100.63516235351562 195.81016540527344 101.9046401977539 196.37387084960938 C 103.46540832519531 196.9869384765625 105.3390884399414 197.5506591796875 107.41415405273438 197.9923858642578 C 109.68669891357422 198.22438049316406 112.02190399169922 198.26991271972656 114.27434539794922 198.24472045898438 C 116.45208740234375 198.126708984375 118.60557556152344 198.1260223388672 121.0250473022461 198.31988525390625 C 123.67391967773438 198.7490692138672 126.3961181640625 199.2584686279297 129.13092041015625 200.1241912841797 C 132.11898803710938 201.58328247070312 135.1859893798828 203.21240234375 137.94650268554688 205.56011962890625 C 139.9759063720703 207.709716796875 141.15000915527344 210.16574096679688 140.87571716308594 212.02587890625 C 139.2102813720703 213.7154998779297 136.29469299316406 214.76585388183594 132.32089233398438 215.19235229492188 C 127.3564682006836 215.28042602539062 121.7681655883789 215.14012145996094 115.67716217041016 214.90740966796875 C 109.48359680175781 214.76513671875 103.42427062988281 214.7244415283203 97.5360336303711 214.77049255371094 C 92.06759643554688 215.00877380371094 87.12303161621094 215.3818817138672 82.794677734375 215.86607360839844 C 79.13468933105469 216.2241973876953 76.11979675292969 216.2252197265625 73.65861511230469 215.75576782226562 C 71.63134765625 214.87564086914062 69.95744323730469 213.69227600097656 68.6776123046875 212.583984375 C 67.68653869628906 211.6840362548828 66.92546081542969 210.96681213378906 66.53700256347656 210.45555114746094 C 66.3942642211914 210.16294860839844 66.42964172363281 210.09893798828125 66.2958984375 210.46714782714844 C 65.91487121582031 211.17892456054688 64.94322967529297 212.1655731201172 63.28734588623047 213.24388122558594 C 60.90619659423828 214.23826599121094 57.922760009765625 214.8684539794922 54.412330627441406 215.16281127929688 C 50.54997253417969 215.19268798828125 46.39142608642578 215.1176300048828 42.065643310546875 215.110595703125 C 37.65110778808594 215.2294921875 33.19189453125 215.5845947265625 28.77356719970703 215.98121643066406 C 24.43508529663086 216.38189697265625 20.262136459350586 216.74734497070312 16.18142318725586 216.99093627929688 C 12.27711296081543 216.9969024658203 8.711624145507812 216.6253204345703 5.44759464263916 215.66954040527344 C 2.6111066341400146 213.96295166015625 0.23874014616012573 211.47203063964844 -1.696387529373169 208.3590545654297 C -3.205401659011841 204.64588928222656 -4.210386753082275 200.52113342285156 -4.8249287605285645 196.0475616455078 C -5.16816520690918 191.31671142578125 -5.199828147888184 186.55206298828125 -5.060154914855957 181.8270263671875 C -4.879449367523193 177.22947692871094 -4.640826225280762 172.88880920410156 -4.511975288391113 168.71449279785156 C -4.516241550445557 164.80889892578125 -4.51021671295166 160.9761199951172 -4.4835686683654785 157.30308532714844 C -4.3587646484375 153.50376892089844 -4.240005016326904 149.597412109375 -4.030663013458252 145.45729064941406 C -3.9087929725646973 141.14820861816406 -3.743527412414551 136.62860107421875 -3.6568996906280518 132.0352783203125 C -3.603795051574707 127.27301788330078 -3.6149163246154785 122.55203247070312 -3.7172963619232178 117.97972106933594 C -3.8522846698760986 113.53173065185547 -4.0904669761657715 109.21926879882812 -4.363636016845703 105.1086654663086 C -4.818385124206543 101.24415588378906 -6.5512566566467285 97.98696899414062 7.077999114990234 108.85428619384766" stroke-width="0.0" fill="rgb(129, 145, 84)" opacity="0.9999842" stroke="rgb(129, 54, 165)" stroke-opacity="0.574409" stroke-linecap="round" stroke-linejoin="round"/>
    <path d="M 226.0515899658203 128.58453369140625 C 227.37838745117188 130.35647583007812 229.0069122314453 131.20187377929688 230.2520294189453 131.99783325195312 C 231.58839416503906 133.19444274902344 232.9486541748047 133.73269653320312 234.10394287109375 134.64979553222656 C 235.17825317382812 135.31199645996094 236.4393310546875 135.10379028320312 241.08273315429688 130.5101318359375 C 239.46385192871094 133.29043579101562 239.78953552246094 134.23265075683594 239.7393035888672 137.03778076171875 C 240.07594299316406 137.67198181152344 240.8690948486328 138.22988891601562 241.18988037109375 138.6620330810547 C 241.5586395263672 139.33615112304688 241.71224975585938 140.32437133789062 241.75181579589844 141.4075469970703 C 241.67100524902344 142.703369140625 241.49551391601562 144.2147979736328 241.17617797851562 145.84808349609375 C 240.90773010253906 147.5374755859375 240.52691650390625 149.24093627929688 240.2332305908203 150.8386688232422 C 239.95755004882812 152.2058868408203 239.69996643066406 153.33114624023438 239.5592498779297 153.953857421875 C 239.47300720214844 154.10333251953125 239.35891723632812 153.82225036621094 239.31900024414062 153.1617889404297 C 239.2171630859375 152.17552185058594 239.09283447265625 151.0633087158203 238.88197326660156 149.9197540283203 C 238.77084350585938 148.97067260742188 238.58013916015625 148.3264617919922 238.59718322753906 148.1245880126953 C 238.7669677734375 148.40316772460938 239.1025390625 149.15997314453125 239.6492919921875 150.380859375 C 240.35411071777344 151.95596313476562 241.11260986328125 153.8437957763672 241.81997680664062 156.01296997070312 C 242.47036743164062 158.34165954589844 242.96815490722656 160.89976501464844 243.20782470703125 163.62779235839844 C 243.14137268066406 166.42941284179688 242.88648986816406 169.2785186767578 242.39048767089844 172.27565002441406 C 241.73789978027344 175.2962646484375 240.9647674560547 178.3228302001953 240.1083221435547 181.40777587890625 C 239.138427734375 184.39254760742188 237.9924774169922 187.29991149902344 236.7224884033203 189.99990844726562 C 235.24429321289062 192.45936584472656 233.53579711914062 194.5720977783203 231.5820770263672 196.31394958496094 C 229.41749572753906 197.64544677734375 227.1245574951172 198.36900329589844 224.9295196533203 198.6363525390625 C 223.0146026611328 198.44546508789062 221.66265869140625 197.90960693359375 221.19732666015625 197.22413635253906 C 221.80487060546875 196.53074645996094 223.08030700683594 196.18807983398438 224.3218231201172 197.3258056640625 C 225.43682861328125 197.08128356933594 225.9923553466797 198.3399658203125 225.63050842285156 200.1813201904297 C 224.26304626464844 202.5572967529297 222.14207458496094 205.2217559814453 219.60269165039062 208.08248901367188 C 216.74746704101562 210.71644592285156 213.9058380126953 213.00132751464844 211.3529052734375 214.7474365234375 C 209.28665161132812 215.92849731445312 207.5020294189453 216.5377960205078 205.8275604248047 216.6268768310547 C 204.11495971679688 216.311767578125 202.2621307373047 215.77923583984375 200.0660858154297 215.3096466064453 C 197.50088500976562 214.98265075683594 194.629150390625 214.95504760742188 191.3597869873047 215.16348266601562 C 187.84898376464844 215.45481872558594 184.03787231445312 215.76380920410156 179.90318298339844 215.97933959960938 C 175.39122009277344 216.0753631591797 170.58709716796875 216.085693359375 165.6405029296875 216.14404296875 C 160.64901733398438 216.2701873779297 155.56488037109375 216.4175567626953 150.48739624023438 216.37664794921875 C 145.6055450439453 215.80441284179688 141.33937072753906 214.4942169189453 136.2523956298828 212.36021423339844 C 133.6311492919922 210.33619689941406 133.53988647460938 206.46829223632812 134.77464294433594 201.78602600097656 C 136.7808074951172 198.0791473388672 139.536865234375 195.17819213867188 142.61190795898438 193.43099975585938 C 145.4582977294922 193.44911193847656 147.4282684326172 192.974853515625 147.08779907226562 193.2490234375 C 147.56863403320312 193.29669189453125 146.6229705810547 192.9524383544922 143.51087951660156 193.50914001464844 C 140.04653930664062 193.9910125732422 139.74810791015625 191.02542114257812 139.87100219726562 186.8453369140625 C 136.28317260742188 177.71975708007812 135.72293090820312 173.1602020263672 137.7414093017578 170.04832458496094 C 146.9708251953125 174.24803161621094 150.35748291015625 172.9084930419922 153.87249755859375 172.56158447265625 C 157.15106201171875 173.22378540039062 159.9636993408203 174.56874084472656 162.2472381591797 176.39279174804688 C 163.95835876464844 178.59637451171875 165.102783203125 181.06114196777344 165.817138671875 183.54934692382812 C 166.18460083007812 185.71875 166.44000244140625 187.6227264404297 166.3553924560547 189.28689575195312 C 166.16244506835938 190.6039581298828 166.0782928466797 191.68838500976562 165.93348693847656 192.16615295410156 C 166.1654052734375 192.86314392089844 166.49745178222656 193.4846649169922 167.12353515625 193.72422790527344 C 168.67831420898438 193.9970245361328 170.49221801757812 191.84622192382812 170.50994873046875 193.4385223388672 C 171.1711883544922 195.08934020996094 171.90272521972656 194.58462524414062 169.98828125 192.77000427246094 C 171.2730712890625 191.6549072265625 172.5894775390625 190.80838012695312 173.48915100097656 189.56939697265625 C 174.680908203125 188.50559997558594 176.3810577392578 187.47975158691406 178.15863037109375 187.04718017578125 C 180.2026824951172 187.07015991210938 182.33770751953125 187.5113983154297 184.30801391601562 188.3826141357422 C 186.01577758789062 189.4418487548828 187.2005615234375 190.56532287597656 187.92068481445312 191.65757751464844 C 188.2808074951172 192.6039581298828 188.2115478515625 193.28872680664062 187.97520446777344 193.56898498535156 C 187.6604461669922 193.48355102539062 187.37689208984375 192.93177795410156 187.27639770507812 191.9818115234375 C 187.45132446289062 190.59158325195312 187.8024139404297 188.73837280273438 188.39352416992188 186.5624542236328 C 189.2145233154297 184.17271423339844 190.20933532714844 181.6838836669922 191.26123046875 179.33583068847656 C 192.3580780029297 176.97885131835938 193.5504150390625 174.2901611328125 194.8710479736328 171.51339721679688 C 196.73519897460938 169.30784606933594 199.69921875 168.19395446777344 203.02322387695312 168.6259002685547 C 205.5686492919922 171.1551055908203 209.13015747070312 170.12684631347656 213.6583709716797 167.9167022705078 C 215.703369140625 163.91311645507812 220.8186492919922 160.66246032714844 222.25054931640625 159.7124786376953 C 221.68540954589844 156.0206756591797 223.32090759277344 147.98829650878906 223.11216735839844 141.3787384033203 C 224.71878051757812 137.5076904296875 224.92547607421875 132.5428009033203 226.0515899658203 128.58453369140625" stroke-width="0.0" fill="rgb(144, 154, 89)" opacity="1.0" stroke="rgb(116, 75, 184)" stroke-opacity="0.84723145" stroke-linecap="round" stroke-linejoin="round"/>
    <path d="M 113.12713623046875 67.89673614501953 C 130.7859344482422 67.18079376220703 139.6879425048828 73.4006576538086 152.60804748535156 72.0707015991211 C 156.83441162109375 68.42671966552734 159.62783813476562 71.08460998535156 158.31298828125 73.9966812133789 C 151.6925048828125 74.87342834472656 149.9880828857422 81.094482421875 147.16453552246094 87.25001525878906 C 143.4644012451172 91.28932189941406 139.02517700195312 94.23301696777344 133.2335205078125 95.95166015625 C 127.02171325683594 95.84027099609375 120.63799285888672 99.23026275634766 115.25687408447266 102.81349182128906 C 115.02713775634766 103.6409912109375 109.72718048095703 106.02967834472656 98.26924133300781 103.62806701660156 C 101.18389129638672 104.5999526977539 98.39640808105469 107.59852600097656 99.57978057861328 111.39928436279297 C 91.74642181396484 110.73731994628906 94.34701538085938 115.96504974365234 100.06967163085938 126.61273956298828 C 103.79749298095703 130.91879272460938 104.9002685546875 135.60598754882812 102.07022857666016 153.3012237548828 C 104.25611877441406 154.60275268554688 109.92579650878906 161.84414672851562 117.51042938232422 170.09347534179688 C 122.34124755859375 178.09327697753906 121.27529907226562 182.87265014648438 127.00503540039062 174.95297241210938 C 125.59156799316406 168.98318481445312 115.4914779663086 162.69273376464844 114.6286849975586 150.90530395507812 C 111.10365295410156 145.45338439941406 111.9170913696289 144.70826721191406 113.6101303100586 126.23454284667969 C 112.91635131835938 119.03697967529297 115.74593353271484 115.2787857055664 119.59971618652344 117.66236877441406 C 128.04623413085938 125.15653991699219 132.00282287597656 123.07962036132812 133.05923461914062 136.69058227539062 C 130.60116577148438 139.2719268798828 127.19526672363281 144.60336303710938 124.29544067382812 148.35252380371094 C 129.3896026611328 153.51718139648438 135.0963134765625 157.741943359375 137.80972290039062 159.570556640625 C 133.4596405029297 144.12342834472656 140.08352661132812 136.2471923828125 145.26861572265625 131.1120147705078 C 150.7013397216797 131.76318359375 160.43087768554688 137.8200225830078 164.987548828125 145.36441040039062 C 172.18087768554688 152.1844024658203 177.17955017089844 155.64100646972656 174.9250946044922 165.6092071533203 C 167.55108642578125 165.1090850830078 165.4244842529297 165.18055725097656 166.9686737060547 172.69570922851562 C 172.4414825439453 173.4759521484375 177.4563446044922 169.65345764160156 181.16111755371094 164.46929931640625 C 183.6265411376953 158.6305694580078 183.8743133544922 153.36273193359375 180.67849731445312 149.6782989501953 C 177.48236083984375 144.65359497070312 174.77113342285156 139.1854705810547 172.57566833496094 135.7965850830078 C 175.15162658691406 135.23233032226562 178.83843994140625 134.73533630371094 182.14401245117188 129.06124877929688 C 186.16522216796875 128.19805908203125 189.94534301757812 132.4463348388672 191.65347290039062 132.41786193847656 C 200.84657287597656 135.6080322265625 211.02340698242188 133.5922088623047 214.17587280273438 134.36524963378906 C 218.86471557617188 134.7379150390625 217.5508575439453 142.08712768554688 217.1829833984375 150.43038940429688 C 211.70936584472656 157.43907165527344 206.25875854492188 157.9352569580078 205.80844116210938 165.4069061279297 C 205.8103485107422 170.66305541992188 205.8280792236328 176.54864501953125 204.4501953125 180.8485870361328 C 203.198974609375 184.38626098632812 198.4955291748047 185.6924591064453 195.54026794433594 187.82545471191406 C 190.95501708984375 190.1968536376953 189.94699096679688 192.78562927246094 189.70323181152344 197.21165466308594 C 185.49461364746094 195.24212646484375 180.6053009033203 195.60455322265625 177.04283142089844 194.73887634277344 C 172.45144653320312 191.29087829589844 167.61610412597656 189.5229949951172 163.321044921875 187.47120666503906 C 154.30361938476562 185.46519470214844 152.4960174560547 182.77267456054688 153.57154846191406 176.1905059814453 C 152.2880096435547 175.67758178710938 148.16500854492188 180.89540100097656 149.24632263183594 172.5907440185547 C 139.72976684570312 182.32150268554688 144.44998168945312 191.56192016601562 143.83932495117188 197.6202850341797 C 137.27127075195312 198.4832305908203 132.77272033691406 202.05828857421875 132.93161010742188 208.90081787109375 C 120.98554229736328 209.98269653320312 114.1023178100586 212.1832733154297 115.61656951904297 200.26661682128906 C 109.6739730834961 202.26100158691406 103.41744232177734 196.28822326660156 99.0188217163086 202.34901428222656 C 93.06607818603516 203.74082946777344 87.23603057861328 200.1466827392578 83.47169494628906 198.05389404296875 C 83.90513610839844 190.77764892578125 82.03213500976562 185.80709838867188 87.32207489013672 187.44029235839844 C 96.74774169921875 187.79876708984375 102.12699127197266 182.35755920410156 112.08216857910156 183.6701202392578 C 109.76052856445312 176.34156799316406 110.85781860351562 169.1204071044922 110.41717529296875 166.9252471923828 C 105.28668212890625 164.3534698486328 100.89250946044922 158.16062927246094 95.1510009765625 161.2605743408203 C 83.66448974609375 162.49505615234375 75.7198715209961 159.4891357421875 85.577392578125 155.16378784179688 C 86.96244049072266 145.72958374023438 77.74038696289062 146.07400512695312 79.66801452636719 134.5628204345703 C 78.48292541503906 125.49339294433594 74.52982330322266 126.74555969238281 67.50853729248047 124.46372985839844 C 67.84101104736328 120.76911926269531 67.17204284667969 117.84193420410156 67.70048522949219 115.49112701416016 C 80.48541259765625 115.11756134033203 78.13912200927734 108.32774353027344 75.57617950439453 110.11322021484375 C 67.08910369873047 110.44222259521484 57.131839752197266 108.53369903564453 55.0415153503418 111.34700012207031 C 42.55836486816406 110.46951293945312 31.992923736572266 109.70152282714844 18.760629653930664 109.79843139648438 C 10.31573486328125 109.0875473022461 3.6850805282592773 111.47557830810547 -2.3960516452789307 110.42960357666016 C -4.797001838684082 106.25102233886719 -4.521614074707031 103.52157592773438 -1.8169206380844116 102.72038269042969 C 1.4630566835403442 102.68791961669922 6.295544624328613 101.97161865234375 19.49141502380371 102.55492401123047 C 27.11431312561035 102.22785949707031 39.077247619628906 101.49213409423828 50.4061279296875 99.52784729003906 C 55.96323776245117 98.54041290283203 61.81769943237305 100.80487823486328 76.83268737792969 97.65180206298828 C 81.3526611328125 96.92253875732422 86.81491088867188 102.58411407470703 88.17228698730469 93.49456024169922 C 91.3270034790039 83.4243392944336 97.47021484375 82.17726135253906 96.31133270263672 72.23001861572266 C 102.64751434326172 71.17286682128906 105.10574340820312 72.54998016357422 113.12713623046875 67.89673614501953" stroke-width="0.0" fill="rgb(153, 155, 98)" opacity="1.0" stroke="rgb(221, 103, 167)" stroke-opacity="0.827461" stroke-linecap="round" stroke-linejoin="round"/>
    <path d="M 210.01536560058594 99.81504821777344 C 211.28736877441406 100.08625793457031 212.5814666748047 100.33694458007812 213.8375244140625 100.5914077758789 C 215.0496368408203 100.89043426513672 216.16673278808594 101.295654296875 217.2467803955078 101.68712615966797 C 218.13058471679688 102.14247131347656 218.86045837402344 102.64310455322266 219.4627227783203 103.11775207519531 C 219.87876892089844 103.61648559570312 220.10147094726562 104.12358856201172 220.16416931152344 104.60073852539062 C 220.1171112060547 105.07206726074219 219.8944854736328 105.60693359375 219.98416137695312 106.27777099609375 C 219.21533203125 106.59636688232422 218.77662658691406 107.05741119384766 218.39788818359375 107.49663543701172 C 218.0205078125 107.9989013671875 217.53211975097656 108.40961456298828 216.93975830078125 108.69600677490234 C 216.47708129882812 108.74063110351562 216.02928161621094 108.85057067871094 215.766357421875 108.73503112792969 C 215.41375732421875 108.64374542236328 215.15386962890625 108.33326721191406 214.84056091308594 107.84310150146484 C 214.66159057617188 107.25609588623047 214.7993621826172 106.650634765625 214.9552459716797 106.1169662475586 C 214.7913818359375 105.66287994384766 214.6865997314453 105.3160400390625 215.00396728515625 105.17327880859375 C 215.69566345214844 105.23783874511719 216.29795837402344 105.20508575439453 216.7925262451172 105.08540344238281 C 217.380859375 105.18832397460938 218.24867248535156 104.95889282226562 219.01670837402344 104.66636657714844 C 219.3209991455078 104.6942138671875 220.2632293701172 104.23338317871094 221.90280151367188 104.69401550292969 C 223.0565948486328 105.3507080078125 223.25994873046875 105.38967895507812 227.0587921142578 102.10023498535156 C 227.31076049804688 104.20823669433594 226.09129333496094 109.82950592041016 228.6803741455078 108.97417449951172 C 226.0572509765625 108.36125183105469 235.51834106445312 108.54218292236328 237.38499450683594 108.71810150146484 C 236.37168884277344 108.53873443603516 235.515869140625 112.47443389892578 239.13197326660156 112.0927505493164 C 236.74566650390625 111.58850860595703 234.60076904296875 114.03413391113281 238.9217529296875 120.42427825927734 C 231.7734375 117.3163070678711 230.3032989501953 117.91549682617188 229.18531799316406 117.66204071044922 C 227.89439392089844 117.40656280517578 226.0650177001953 118.06844329833984 226.5079803466797 117.8653335571289 C 219.97789001464844 116.26253509521484 219.5939483642578 116.8836441040039 217.49574279785156 120.42604064941406 C 220.9401397705078 116.79203796386719 222.6377410888672 117.78575897216797 221.724365234375 117.27924346923828 C 221.04315185546875 117.66911315917969 220.36672973632812 118.84008026123047 222.68136596679688 117.02625274658203 C 222.0862579345703 116.51103210449219 219.8900909423828 118.75743103027344 221.633544921875 117.59126281738281 C 220.41978454589844 116.65574645996094 219.01609802246094 117.17469787597656 219.45504760742188 116.15547943115234 C 220.91697692871094 118.23353576660156 219.6067657470703 118.11434173583984 219.4516143798828 119.3298568725586 C 220.7473602294922 117.7262954711914 221.57052612304688 119.1373291015625 219.67230224609375 119.34314727783203 C 220.8077392578125 116.54142761230469 221.36886596679688 117.46484375 220.32757568359375 117.50770568847656 C 223.83139038085938 115.92233276367188 225.16983032226562 116.60911560058594 232.17559814453125 119.67542266845703 C 229.57626342773438 124.15868377685547 226.44976806640625 125.9278793334961 225.25863647460938 125.86914825439453 C 225.87010192871094 127.77526092529297 225.88546752929688 131.26588439941406 220.822998046875 128.98397827148438 C 221.66612243652344 128.02700805664062 221.05592346191406 128.4448699951172 219.6675567626953 127.99174499511719 C 224.86724853515625 129.3740997314453 217.46315002441406 126.9935302734375 212.2323760986328 123.96529388427734 C 214.35166931152344 125.0136489868164 210.55589294433594 123.92154693603516 207.232177734375 122.44349670410156 C 207.43382263183594 122.51415252685547 203.73330688476562 120.9645004272461 201.85411071777344 118.91986083984375 C 201.60740661621094 117.72444915771484 200.33590698242188 117.2871322631836 203.28680419921875 118.3609390258789 C 202.4415740966797 122.39373016357422 201.8506622314453 117.81623840332031 202.1583251953125 118.37088012695312 C 198.77125549316406 119.68929290771484 202.06924438476562 113.32778930664062 203.4043731689453 111.66621398925781 C 201.8271942138672 114.28534698486328 204.53750610351562 112.21101379394531 205.59170532226562 110.96836853027344 C 204.49960327148438 111.63117218017578 207.4875030517578 110.93324279785156 208.1193084716797 111.39903259277344 C 207.83779907226562 111.29393005371094 208.4858856201172 111.47977447509766 208.56301879882812 111.59516906738281 C 208.6448974609375 111.71788787841797 208.5398406982422 111.47528839111328 208.6481170654297 111.5583724975586 C 208.5872802734375 111.49507904052734 206.68324279785156 111.49380493164062 204.79991149902344 111.34523010253906 C 204.9871826171875 111.59859466552734 206.14852905273438 111.74141693115234 204.590576171875 111.77780151367188 C 204.48410034179688 112.25383758544922 201.24215698242188 113.78559875488281 201.0312042236328 113.53852844238281 C 202.17054748535156 114.35405731201172 202.4428253173828 109.50914001464844 202.28103637695312 112.00776672363281 C 202.2239532470703 112.0763168334961 202.4059295654297 102.03971099853516 202.79734802246094 99.2833023071289 C 203.70675659179688 98.48297882080078 204.7512664794922 95.7926025390625 210.01536560058594 99.81504821777344" stroke-width="0.0" fill="rgb(148, 164, 103)" opacity="0.9996999" stroke="rgb(154, 205, 229)" stroke-opacity="0.28837708" stroke-linecap="round" stroke-linejoin="round"/>
    <path d="M 216.28631591796875 88.6571273803711 C 208.2350616455078 90.61372375488281 211.72073364257812 91.91339111328125 220.47068786621094 92.88175201416016 C 217.55972290039062 89.28488159179688 216.67922973632812 85.58229064941406 217.8599853515625 90.94357299804688 C 217.3724822998047 93.86820220947266 213.2099609375 86.95681762695312 205.8240509033203 90.18006896972656 C 208.71096801757812 90.89144134521484 209.12449645996094 90.56748962402344 213.47006225585938 87.7292251586914 C 211.21597290039062 89.79935455322266 215.5392303466797 91.08045959472656 217.87889099121094 88.5380859375 C 217.63253784179688 89.34697723388672 230.50534057617188 87.49918365478516 228.94029235839844 88.78015899658203 C 233.99107360839844 88.14030456542969 241.52259826660156 89.03267669677734 247.92532348632812 88.36927032470703 C 255.43443298339844 89.30267333984375 253.54246520996094 87.52172088623047 253.22189331054688 87.78077697753906 C 265.6763916015625 87.32757568359375 287.5653381347656 87.17620086669922 275.3184509277344 86.51863861083984 C 267.01336669921875 87.59648895263672 266.377197265625 91.89022064208984 267.2669982910156 93.2282943725586 C 276.6548156738281 91.3257064819336 296.01763916015625 94.48841857910156 278.7106018066406 91.29207611083984 C 298.5866394042969 91.60232543945312 306.9845275878906 91.71316528320312 307.6039733886719 90.22399139404297 C 308.60467529296875 91.01615142822266 310.177001953125 91.77252197265625 310.7509460449219 93.3104019165039 C 310.6009216308594 95.8276138305664 310.21136474609375 99.27730560302734 309.8724365234375 103.46765899658203 C 309.76312255859375 108.20524597167969 309.7893981933594 113.37226867675781 309.8456115722656 118.62113952636719 C 309.8721618652344 123.85892486572266 309.86798095703125 129.1070556640625 309.8577575683594 134.1800994873047 C 309.85711669921875 138.83053588867188 309.8582458496094 143.10409545898438 309.8583679199219 147.1470184326172 C 309.8582763671875 151.15858459472656 309.85833740234375 155.15684509277344 309.858154296875 159.1536407470703 C 309.8572692871094 163.1879425048828 309.8574523925781 167.3909454345703 309.86285400390625 171.8634796142578 C 309.8670349121094 176.57994079589844 309.8456115722656 181.43289184570312 309.8118591308594 186.43614196777344 C 309.8275451660156 191.4337615966797 309.95074462890625 196.25633239746094 310.1789855957031 200.82704162597656 C 310.33538818359375 205.0139617919922 309.9875793457031 208.60018920898438 308.7821960449219 211.43890380859375 C 306.6253967285156 213.58334350585938 303.6079406738281 214.8541717529297 299.8960876464844 215.4024658203125 C 295.69342041015625 215.45556640625 291.1566162109375 215.19383239746094 286.3719177246094 214.89881896972656 C 281.49725341796875 214.76611328125 276.50860595703125 214.7698974609375 271.5187683105469 214.8284912109375 C 266.6394348144531 214.86758422851562 261.8587341308594 214.87440490722656 257.0218811035156 214.86727905273438 C 252.22349548339844 214.8590850830078 247.5113983154297 214.83160400390625 242.80935668945312 214.8108673095703 C 238.20217895507812 214.8526611328125 233.7958221435547 214.9400634765625 229.606201171875 215.07513427734375 C 225.6681365966797 215.19447326660156 222.1528778076172 215.06680297851562 219.12335205078125 214.51658630371094 C 216.7333984375 213.44302368164062 215.04127502441406 211.93380737304688 212.10662841796875 210.30616760253906 C 212.36727905273438 207.9244384765625 212.35549926757812 205.28805541992188 211.20925903320312 202.21224975585938 C 215.7561798095703 200.78082275390625 218.33389282226562 199.67332458496094 219.60662841796875 196.41903686523438 C 220.8139190673828 195.38064575195312 222.78387451171875 197.4954071044922 224.081298828125 196.17745971679688 C 225.86233520507812 198.28477478027344 226.88218688964844 197.2869415283203 227.879638671875 193.14393615722656 C 224.58277893066406 191.97781372070312 226.3541259765625 190.61111450195312 227.4938507080078 188.95326232910156 C 229.3632049560547 188.7090606689453 230.65847778320312 186.52166748046875 232.68380737304688 183.29544067382812 C 236.0548858642578 182.51327514648438 234.33311462402344 178.8074951171875 234.14894104003906 176.18450927734375 C 239.42034912109375 173.39462280273438 237.73435974121094 170.7277069091797 237.59884643554688 168.2427978515625 C 238.0260467529297 166.20535278320312 237.68392944335938 164.39886474609375 236.63880920410156 162.46920776367188 C 236.03956604003906 160.52035522460938 236.93521118164062 158.36196899414062 236.5131378173828 155.83984375 C 235.72923278808594 153.22677612304688 235.6837158203125 150.07981872558594 238.68991088867188 146.28463745117188 C 235.97532653808594 142.83348083496094 237.256103515625 140.2083740234375 239.9484405517578 139.60073852539062 C 238.41065979003906 135.7574920654297 234.49005126953125 135.2990264892578 230.79734802246094 135.54443359375 C 228.16635131835938 135.3784942626953 226.2600555419922 135.09890747070312 225.0122833251953 135.6578369140625 C 225.04222106933594 136.27870178222656 225.774658203125 136.61566162109375 228.11666870117188 136.23336791992188 C 224.67674255371094 136.69775390625 225.1776885986328 136.85643005371094 224.34976196289062 132.0924072265625 C 222.9177703857422 130.87901306152344 221.3385772705078 128.0042266845703 222.7897491455078 126.02961730957031 C 233.3928680419922 121.92522430419922 228.61236572265625 116.52581024169922 221.32118225097656 117.82520294189453 C 216.6161651611328 124.0552749633789 218.23574829101562 118.77999114990234 222.0001983642578 115.60630798339844 C 221.01971435546875 116.50159454345703 224.39414978027344 116.67166900634766 234.14854431152344 115.9690170288086 C 235.91163635253906 111.43836975097656 230.88833618164062 108.85206604003906 240.62521362304688 107.94063568115234 C 243.22439575195312 107.36158752441406 245.32049560546875 106.13888549804688 244.34814453125 104.73036193847656 C 239.8301544189453 104.56629180908203 232.16969299316406 103.58350372314453 229.0986785888672 106.56671142578125 C 231.16026306152344 112.53121948242188 226.1976776123047 108.79558563232422 219.53033447265625 109.4743881225586 C 212.131103515625 110.0694351196289 208.61895751953125 107.63111877441406 206.4738006591797 105.75447845458984 C 205.09445190429688 104.58965301513672 207.84188842773438 104.34982299804688 210.7828826904297 104.88422393798828 C 213.23916625976562 106.66751861572266 213.5471954345703 108.16168975830078 212.08229064941406 108.7177505493164 C 209.9513397216797 107.7160873413086 208.53631591796875 105.31399536132812 202.3406524658203 103.53784942626953 C 201.1156768798828 99.0737075805664 199.4809112548828 94.96992492675781 198.79705810546875 92.14888763427734 C 197.5194091796875 86.73678588867188 193.2967987060547 89.60212707519531 216.28631591796875 88.6571273803711" stroke-width="0.0" fill="rgb(138, 154, 78)" opacity="0.99999917" stroke="rgb(32, 222, 140)" stroke-opacity="0.6407623" stroke-linecap="round" stroke-linejoin="round"/>
    <path d="M 206.54330444335938 125.1417007446289 C 196.64183044433594 131.10385131835938 197.02780151367188 123.67887878417969 197.72154235839844 123.22760009765625 C 196.1907196044922 122.68497467041016 191.77105712890625 125.90048217773438 196.50413513183594 128.95118713378906 C 194.62107849121094 133.0699005126953 190.91921997070312 129.3018798828125 213.56439208984375 133.52024841308594 C 203.6187744140625 134.00704956054688 195.1684112548828 132.0377197265625 194.18988037109375 132.9645233154297 C 191.67259216308594 134.74337768554688 186.37075805664062 133.4005584716797 184.97544860839844 129.87789916992188 C 186.2068634033203 131.3942108154297 180.7359161376953 130.25885009765625 177.37294006347656 126.82009887695312 C 182.58697509765625 129.7029571533203 181.16717529296875 130.15713500976562 178.37493896484375 132.67652893066406 C 178.49232482910156 128.35362243652344 178.04031372070312 126.43428802490234 173.11212158203125 126.47492980957031 C 165.0742645263672 128.6391143798828 167.97373962402344 126.44837188720703 176.0873565673828 117.1563949584961 C 183.38307189941406 126.21113586425781 184.8409881591797 124.26408386230469 188.4196319580078 120.48189544677734 C 190.3957061767578 117.19613647460938 187.65054321289062 112.40232849121094 191.9290008544922 115.27628326416016 C 186.9177703857422 120.17157745361328 192.81285095214844 112.55792999267578 206.54330444335938 125.1417007446289" stroke-width="0.0" fill="rgb(56, 33, 20)" opacity="1.0" stroke="rgb(79, 221, 1)" stroke-opacity="0.9595211" stroke-linecap="round" stroke-linejoin="round"/>
    <path d="M 111.92427825927734 71.989013671875 C 114.01025390625 71.0306167602539 121.26181030273438 72.1286392211914 125.26203918457031 71.49262237548828 C 123.01065826416016 73.23994445800781 120.06804656982422 76.43539428710938 118.75173950195312 78.3440170288086 C 112.46292877197266 80.86231231689453 108.28611755371094 85.56566619873047 107.10437774658203 87.20389556884766 C 100.50175476074219 89.20442962646484 95.66495513916016 85.04904174804688 111.92427825927734 71.989013671875" stroke-width="0.0" fill="rgb(152, 96, 85)" opacity="0.998964" stroke="rgb(15, 30, 167)" stroke-opacity="0.31615105" stroke-linecap="round" stroke-linejoin="round"/>
    <path d="M 132.33538818359375 71.79513549804688 C 148.68910217285156 73.69796752929688 152.1805877685547 83.19367218017578 152.73670959472656 95.54004669189453 C 152.47494506835938 98.3726806640625 140.75238037109375 93.40997314453125 134.80734252929688 100.20091247558594 C 124.05093383789062 97.42996978759766 115.32514190673828 102.596923828125 106.72468566894531 110.68296813964844 C 115.76138305664062 83.8436508178711 111.74636840820312 68.02183532714844 132.33538818359375 71.79513549804688" stroke-width="0.0" fill="rgb(175, 106, 86)" opacity="0.9984453" stroke="rgb(33, 176, 198)" stroke-opacity="0.8601346" stroke-linecap="round" stroke-linejoin="round"/>
    <path d="M 35.208438873291016 46.89931106567383 C 30.453886032104492 60.488197326660156 27.3717041015625 69.36495208740234 24.295238494873047 76.35459899902344 C 15.993973731994629 73.66032409667969 10.86300277709961 74.16133117675781 6.589288234710693 72.20124053955078 C 2.188368797302246 69.62870788574219 1.8005943298339844 66.3021011352539 1.0743942260742188 59.35698699951172 C 2.8731415271759033 49.12785720825195 0.9716839790344238 42.189090728759766 35.208438873291016 46.89931106567383" stroke-width="0.0" fill="rgb(28, 46, 58)" opacity="0.99908286" stroke="rgb(61, 15, 176)" stroke-opacity="0.1187121" stroke-linecap="round" stroke-linejoin="round"/>
    <path d="M 158.78582763671875 187.0244140625 C 162.67466735839844 187.4795379638672 162.71578979492188 189.86241149902344 166.3305206298828 192.78564453125 C 168.3216094970703 192.60272216796875 173.2929229736328 193.63848876953125 173.61215209960938 199.70907592773438 C 166.3016357421875 199.2124786376953 165.1184844970703 198.5298309326172 163.3565673828125 201.47805786132812 C 158.67462158203125 194.12457275390625 157.99319458007812 191.32867431640625 157.58287048339844 197.124755859375 C 156.67982482910156 191.75375366210938 155.9921112060547 189.98988342285156 153.6748809814453 194.04457092285156 C 153.28970336914062 196.9007110595703 158.24578857421875 197.0015106201172 158.78582763671875 187.0244140625" stroke-width="0.0" fill="rgb(179, 183, 80)" opacity="0.9999762" stroke="rgb(253, 115, 253)" stroke-opacity="0.1339554" stroke-linecap="round" stroke-linejoin="round"/>
    <path d="M 43.132225036621094 186.89974975585938 C 46.769412994384766 185.76966857910156 48.08434295654297 186.73556518554688 50.58308792114258 187.3639678955078 C 44.38971710205078 189.18878173828125 52.94668960571289 191.49349975585938 49.34556579589844 204.7100830078125 C 43.495025634765625 188.70762634277344 46.11552810668945 190.256591796875 36.96978759765625 199.87271118164062 C 31.966251373291016 192.1710968017578 34.79712677001953 184.1581573486328 43.132225036621094 186.89974975585938" stroke-width="0.0" fill="rgb(155, 157, 77)" opacity="0.9993611" stroke="rgb(178, 206, 69)" stroke-opacity="0.351093" stroke-linecap="round" stroke-linejoin="round"/>
    <path d="M 178.29702758789062 188.50550842285156 C 168.78140258789062 187.3129425048828 169.5214080810547 189.09921264648438 173.3883514404297 190.55430603027344 C 171.39251708984375 190.33155822753906 171.79025268554688 195.46279907226562 174.50439453125 198.2001495361328 C 170.54156494140625 196.4226837158203 170.2859649658203 193.666259765625 168.70419311523438 195.400146484375 C 168.68687438964844 193.6041717529297 165.51181030273438 195.76734924316406 165.73675537109375 192.1825714111328 C 163.478515625 198.06494140625 164.9988555908203 191.2493133544922 164.41920471191406 188.80267333984375 C 169.0050048828125 185.166259765625 161.9745330810547 184.6044921875 178.29702758789062 188.50550842285156" stroke-width="0.0" fill="rgb(185, 187, 119)" opacity="0.9994921" stroke="rgb(184, 50, 166)" stroke-opacity="0.8753836" stroke-linecap="round" stroke-linejoin="round"/>
    <path d="M 195.62899780273438 40.8354377746582 C 199.0999298095703 38.77336883544922 202.99221801757812 43.13566970825195 198.8959503173828 48.10762405395508 C 205.26490783691406 51.62724304199219 200.33705139160156 49.808631896972656 198.59317016601562 59.96523666381836 C 198.5602569580078 55.63088607788086 196.66824340820312 50.97191619873047 192.525146484375 51.953208923339844 C 184.96932983398438 63.44957733154297 187.04644775390625 58.9405403137207 187.9712677001953 50.23073959350586 C 185.20651245117188 36.68659973144531 181.00759887695312 43.444156646728516 195.62899780273438 40.8354377746582" stroke-width="0.0" fill="rgb(179, 129, 120)" opacity="0.99918616" stroke="rgb(225, 172, 52)" stroke-opacity="0.08458003" stroke-linecap="round" stroke-linejoin="round"/>
    <path d="M 21.21293830871582 28.636791229248047 C 17.860668182373047 50.76545333862305 12.737829208374023 52.63957214355469 11.171636581420898 55.21186447143555 C 9.17549991607666 55.831390380859375 9.47107219696045 56.28323745727539 9.838271141052246 57.350467681884766 C 9.36540699005127 58.20286560058594 9.042684555053711 58.69029998779297 8.261555671691895 59.0579719543457 C 7.626039505004883 59.06354904174805 6.826239585876465 58.94384002685547 3.311494827270508 60.602352142333984 C 0.3695562779903412 61.43228530883789 2.721717596054077 59.646549224853516 0.6994858384132385 60.22935104370117 C -1.1894361972808838 59.27384567260742 -3.144819498062134 59.16592025756836 -4.121913909912109 56.34841537475586 C -2.682971715927124 48.0965576171875 -19.261062622070312 25.688627243041992 21.21293830871582 28.636791229248047" stroke-width="0.0" fill="rgb(33, 51, 60)" opacity="0.9996026" stroke="rgb(210, 222, 252)" stroke-opacity="0.12597804" stroke-linecap="round" stroke-linejoin="round"/>
    <path d="M 156.60845947265625 95.7800064086914 C 156.24404907226562 121.09339141845703 155.42433166503906 124.82556915283203 155.80628967285156 105.49903106689453 C 155.37600708007812 110.09855651855469 153.0297393798828 115.4607925415039 152.99806213378906 119.27925109863281 C 152.25796508789062 119.11537170410156 150.2809600830078 117.564453125 153.25155639648438 117.25064086914062 C 150.37049865722656 114.01708984375 150.42723083496094 110.08808898925781 151.8246307373047 106.47321319580078 C 150.5570831298828 110.20986938476562 150.94338989257812 108.4155044555664 150.3221893310547 110.171630859375 C 151.4661865234375 106.9966049194336 152.93711853027344 103.29496002197266 151.84458923339844 96.74488067626953 C 153.69789123535156 99.31558227539062 155.66937255859375 95.78411865234375 156.60845947265625 95.7800064086914" stroke-width="0.0" fill="rgb(192, 141, 124)" opacity="0.99868494" stroke="rgb(210, 32, 123)" stroke-opacity="0.489101" stroke-linecap="round" stroke-linejoin="round"/>
    <path d="M 194.34909057617188 29.593246459960938 C 194.76002502441406 31.030996322631836 195.47569274902344 32.18967056274414 195.84857177734375 32.65626525878906 C 195.2451171875 33.6796989440918 194.32640075683594 34.32731246948242 194.36512756347656 35.597694396972656 C 195.35128784179688 38.5500373840332 196.12408447265625 42.680328369140625 197.4076690673828 46.884273529052734 C 199.3616485595703 50.94922637939453 199.9058380126953 54.307228088378906 198.8155975341797 55.72053909301758 C 197.42845153808594 54.129451751708984 196.5653533935547 50.853309631347656 194.84315490722656 46.80448532104492 C 193.50160217285156 42.74269485473633 191.2562255859375 39.811161041259766 190.07664489746094 36.869728088378906 C 189.48680114746094 34.109683990478516 189.9429931640625 31.81680679321289 190.70114135742188 30.087486267089844 C 190.83241271972656 29.609365463256836 190.61387634277344 29.742965698242188 190.51242065429688 29.629541397094727 C 190.3629150390625 29.076066970825195 191.04217529296875 27.3810977935791 194.34909057617188 29.593246459960938" stroke-width="0.0" fill="rgb(219, 220, 231)" opacity="0.9995899" stroke="rgb(32, 185, 147)" stroke-opacity="0.60662574" stroke-linecap="round" stroke-linejoin="round"/>
    <path d="M 23.857582092285156 13.571200370788574 C 26.717615127563477 15.196430206298828 28.801944732666016 15.90914249420166 31.03212547302246 15.86546516418457 C 33.3016242980957 15.362310409545898 35.40738296508789 15.220355033874512 37.61423110961914 15.775411605834961 C 39.95827102661133 16.778827667236328 43.34846496582031 17.12489128112793 46.54642868041992 17.442272186279297 C 48.473114013671875 18.349576950073242 49.236515045166016 20.170434951782227 49.32086944580078 21.24649429321289 C 49.233524322509766 21.748802185058594 49.20138931274414 21.613811492919922 49.83208084106445 20.841527938842773 C 51.26884078979492 19.674623489379883 53.01020812988281 19.205751419067383 54.67795944213867 20.424360275268555 C 55.6829719543457 22.545490264892578 55.82062530517578 25.361364364624023 54.59485626220703 28.322996139526367 C 52.25429153442383 30.96455955505371 49.88777160644531 33.155067443847656 48.0035400390625 34.947261810302734 C 46.867713928222656 35.88399887084961 46.48118209838867 36.26920700073242 46.67615509033203 35.242313385009766 C 48.052223205566406 33.305641174316406 50.4810676574707 30.862394332885742 53.062686920166016 28.486154556274414 C 55.507347106933594 26.289752960205078 58.67497634887695 25.636240005493164 61.58190155029297 27.457754135131836 C 63.78242492675781 31.233858108520508 65.64034271240234 35.51530075073242 66.83531951904297 39.62623596191406 C 68.11810302734375 43.6757926940918 69.24620056152344 47.39054870605469 69.72367858886719 50.289207458496094 C 69.94627380371094 52.70481491088867 70.04449462890625 55.258140563964844 69.23277282714844 57.647438049316406 C 67.31438446044922 59.99757385253906 65.80509948730469 62.11264419555664 65.50511169433594 64.42172241210938 C 66.1895980834961 67.23881530761719 67.18220520019531 70.62910461425781 68.11107635498047 74.47935485839844 C 68.67840576171875 77.97846221923828 68.71614837646484 80.63801574707031 67.23204040527344 82.4798812866211 C 65.36426544189453 82.7798843383789 63.98782730102539 80.9716796875 61.77314758300781 78.70195770263672 C 58.99106216430664 77.5905532836914 56.92277526855469 77.35846710205078 54.903045654296875 77.94500732421875 C 52.8707160949707 79.18357849121094 52.05713653564453 80.38145446777344 52.608116149902344 81.88909912109375 C 53.963138580322266 83.257568359375 55.5791130065918 85.04523468017578 57.21518325805664 87.09422302246094 C 58.61039352416992 88.77169799804688 59.91384506225586 90.51876068115234 60.597496032714844 92.25855255126953 C 60.685951232910156 93.80000305175781 60.158607482910156 94.9811019897461 58.90462112426758 95.51428985595703 C 57.06391525268555 95.7345199584961 54.69744110107422 95.74346160888672 51.91267776489258 95.82650756835938 C 49.18194580078125 96.8669662475586 46.49632263183594 98.12581634521484 43.7704963684082 98.46723937988281 C 41.155853271484375 98.71366119384766 38.66988754272461 98.994873046875 36.781673431396484 98.80941009521484 C 34.93267822265625 98.60661315917969 33.04884719848633 98.5344467163086 31.22864532470703 98.74906158447266 C 29.50071144104004 99.176025390625 27.660600662231445 99.45880126953125 25.445411682128906 99.57655334472656 C 22.965620040893555 99.65059661865234 20.261972427368164 99.74354553222656 17.482357025146484 99.84837341308594 C 14.560864448547363 100.14319610595703 11.7493896484375 100.22142028808594 9.150084495544434 99.78902435302734 C 6.751257419586182 99.36902618408203 4.6111555099487305 99.62818145751953 2.811013698577881 100.34642791748047 C 1.1634583473205566 101.06971740722656 0.06492841988801956 101.2031478881836 -0.656895101070404 100.52613067626953 C -1.0208077430725098 99.12841796875 -1.087917685508728 97.3639144897461 -0.9873321056365967 95.43070983886719 C -0.8461611270904541 93.39574432373047 -0.6769431233406067 91.1966323852539 -0.5303391814231873 89.01113891601562 C -0.37671735882759094 86.95169067382812 -0.1891251802444458 84.8708724975586 -0.06302471458911896 82.6032943725586 C -0.0814027264714241 80.0914535522461 -0.21611766517162323 77.52039337158203 -0.3010115325450897 75.14013671875 C -0.3054791986942291 72.90654754638672 -0.30117830634117126 70.75003814697266 -0.2855626344680786 68.6854019165039 C -0.28352054953575134 66.72831726074219 -0.3004935085773468 64.9316635131836 -0.2701829969882965 63.30325698852539 C -0.15168295800685883 61.908748626708984 0.053102802485227585 60.80849838256836 0.4051980674266815 60.122154235839844 C 0.8935070633888245 59.913902282714844 1.4757388830184937 60.15541458129883 2.124875068664551 60.809478759765625 C 2.8904404640197754 61.77520751953125 3.742985248565674 62.991607666015625 4.678735733032227 64.41130065917969 C 5.6698479652404785 65.9620590209961 6.7750043869018555 67.49744415283203 8.062162399291992 68.93060302734375 C 9.455636024475098 70.18717956542969 10.931490898132324 71.19083404541016 12.437362670898438 71.91728973388672 C 13.909239768981934 72.39289093017578 15.276058197021484 72.64169311523438 16.50308609008789 72.72566986083984 C 17.580219268798828 72.63033294677734 18.497499465942383 72.374755859375 19.287452697753906 71.97337341308594 C 19.99464225769043 71.39553833007812 20.645566940307617 70.6396255493164 21.31103515625 69.7052230834961 C 22.05101203918457 68.57028198242188 22.877965927124023 67.25523376464844 23.777067184448242 65.79190063476562 C 24.726728439331055 64.24512481689453 25.685731887817383 62.68036651611328 26.561298370361328 61.160064697265625 C 27.275115966796875 59.745845794677734 27.76509666442871 58.4648551940918 27.975845336914062 57.31367492675781 C 27.887802124023438 56.256813049316406 27.501052856445312 55.259395599365234 26.839813232421875 54.27571487426758 C 25.906770706176758 53.25776672363281 24.762174606323242 52.16990280151367 23.448558807373047 50.95563888549805 C 22.04393196105957 49.58864212036133 20.538450241088867 48.1276969909668 19.03228759765625 46.541358947753906 C 17.701906204223633 44.73041534423828 16.62516212463379 42.69719314575195 15.808639526367188 40.48561477661133 C 15.154709815979004 38.24412536621094 14.86673641204834 36.0927619934082 15.087328910827637 34.10992431640625 C 15.612641334533691 32.38577651977539 16.228883743286133 31.055801391601562 16.94524574279785 30.11983299255371 C 17.959678649902344 29.44056510925293 19.318588256835938 28.6059513092041 20.899568557739258 27.612775802612305 C 23.051469802856445 27.184720993041992 25.255725860595703 27.374080657958984 26.946537017822266 27.735286712646484 C 27.9014949798584 26.436540603637695 27.88374137878418 25.376012802124023 27.290393829345703 24.524372100830078 C 25.73053550720215 23.881113052368164 22.970272064208984 23.271291732788086 19.282501220703125 23.36685562133789 C 14.645630836486816 23.806447982788086 9.442419052124023 23.42005157470703 23.857582092285156 13.571200370788574" stroke-width="0.0" fill="rgb(30, 49, 59)" opacity="0.9992541" stroke="rgb(83, 246, 2)" stroke-opacity="0.45313615" stroke-linecap="round" stroke-linejoin="round"/>
    <path d="M 264.7023620605469 28.119882583618164 C 263.3645324707031 35.86902618408203 260.5520935058594 42.137691497802734 256.53668212890625 46.72134780883789 C 253.4986114501953 50.546451568603516 251.91064453125 53.63862228393555 250.6129913330078 55.43431091308594 C 249.58229064941406 56.22933578491211 249.36351013183594 56.17119598388672 249.42202758789062 54.74011993408203 C 249.96612548828125 51.905418395996094 251.76759338378906 48.866058349609375 254.46331787109375 46.11823272705078 C 257.90960693359375 43.32758331298828 263.12322998046875 40.9836311340332 270.07647705078125 40.91283416748047 C 276.7586364746094 44.90888595581055 281.42791748046875 52.90017318725586 283.8612365722656 62.645294189453125 C 283.4799499511719 72.04434204101562 279.7875061035156 79.28978729248047 273.5783386230469 83.88203430175781 C 266.39666748046875 85.47777557373047 259.49676513671875 85.39155578613281 254.38076782226562 84.11832427978516 C 250.87460327148438 81.17025756835938 248.9843292236328 77.75199127197266 248.03684997558594 74.1511001586914 C 247.7203369140625 70.88275146484375 247.69546508789062 68.84869384765625 247.60836791992188 68.0904541015625 C 248.10276794433594 67.99545288085938 248.53787231445312 68.21703338623047 248.22618103027344 68.67057800292969 C 247.73509216308594 69.28626251220703 247.49807739257812 69.95465087890625 247.52798461914062 70.56298828125 C 247.64752197265625 71.07854461669922 247.7340087890625 71.6008529663086 247.78555297851562 72.0785140991211 C 247.8474884033203 72.51641082763672 247.89820861816406 73.04769134521484 248.0452423095703 73.64512634277344 C 248.27955627441406 74.2569580078125 248.56321716308594 74.91165161132812 249.11660766601562 75.78870391845703 C 249.66514587402344 77.13856506347656 249.6973419189453 79.05049133300781 250.61863708496094 80.98654174804688 C 251.92892456054688 82.85246276855469 252.92312622070312 84.1952133178711 252.5623779296875 85.21221160888672 C 251.30563354492188 85.35662841796875 249.57699584960938 85.38111877441406 247.53343200683594 85.49938201904297 C 245.3140411376953 85.9222183227539 242.9722442626953 86.3790283203125 240.93507385253906 86.52305603027344 C 239.50108337402344 86.25072479248047 238.24996948242188 85.63116455078125 237.17161560058594 85.42784118652344 C 235.81674194335938 85.81006622314453 234.38742065429688 86.44034576416016 233.26034545898438 86.76732635498047 C 232.2307586669922 86.63182830810547 231.4507293701172 86.11688232421875 230.4462432861328 85.68318939208984 C 229.43646240234375 85.65563201904297 228.73658752441406 85.67233276367188 228.12802124023438 85.49560546875 C 227.65480041503906 84.97555541992188 227.15528869628906 84.39867401123047 226.4958038330078 83.99112701416016 C 225.55157470703125 83.78986358642578 224.34173583984375 83.79188537597656 223.05593872070312 83.97715759277344 C 221.8225555419922 84.18681335449219 220.635009765625 84.23824310302734 219.4606475830078 84.0796127319336 C 218.3755340576172 83.85319519042969 217.47161865234375 83.77076721191406 216.77371215820312 83.96212768554688 C 216.24246215820312 84.40789794921875 215.89659118652344 84.90599060058594 215.6494598388672 85.46743774414062 C 215.12001037597656 85.47557067871094 214.66062927246094 85.52999877929688 214.08714294433594 85.53325653076172 C 213.2726287841797 85.82083892822266 212.2002716064453 86.41584014892578 210.66578674316406 86.75011444091797 C 208.97610473632812 86.50988006591797 207.3153076171875 85.75050354003906 205.65489196777344 85.4892578125 C 204.2265167236328 85.99626159667969 202.71429443359375 86.52963256835938 201.15884399414062 86.12230682373047 C 199.91748046875 85.47674560546875 199.0046844482422 85.0553970336914 198.31723022460938 84.66085052490234 C 197.8565673828125 84.01132202148438 197.59872436523438 83.26591491699219 197.32948303222656 82.66583251953125 C 197.11544799804688 82.21489715576172 197.03744506835938 81.69376373291016 197.20799255371094 81.07422637939453 C 197.42076110839844 80.49553680419922 197.67239379882812 80.06352233886719 197.93609619140625 79.75159454345703 C 198.02655029296875 79.57384490966797 198.1496124267578 79.42310333251953 198.4047088623047 79.27629089355469 C 198.63604736328125 79.1409912109375 198.6748504638672 79.06635284423828 198.61851501464844 78.97221374511719 C 198.45797729492188 78.63432312011719 198.26626586914062 77.8779296875 198.1251983642578 77.27403259277344 C 197.8836212158203 76.99325561523438 197.5320587158203 77.22819519042969 197.28323364257812 77.83698272705078 C 197.26795959472656 78.3175048828125 197.3441925048828 78.7294921875 197.3805694580078 78.9970474243164 C 197.4415283203125 79.18548583984375 197.5854949951172 79.23494720458984 197.81678771972656 79.21270751953125 C 198.14599609375 79.11333465576172 198.48941040039062 78.9290771484375 198.77674865722656 78.55760192871094 C 198.996337890625 78.09033203125 199.14849853515625 77.58881378173828 199.22389221191406 76.82772064208984 C 199.06634521484375 75.75211334228516 198.6959686279297 74.46256256103516 198.17747497558594 73.16954040527344 C 197.66903686523438 72.07621002197266 197.39427185058594 70.795654296875 197.4225311279297 69.69876861572266 C 197.8728485107422 69.18546295166016 198.8407440185547 68.98030853271484 200.02557373046875 68.86760711669922 C 201.2777557373047 68.01802062988281 202.3586883544922 66.96641540527344 202.73165893554688 65.35560607910156 C 202.89305114746094 63.65375900268555 203.13555908203125 62.06321716308594 204.15589904785156 61.147483825683594 C 205.43606567382812 61.15205383300781 206.50192260742188 61.97218322753906 207.48243713378906 63.23783874511719 C 208.66061401367188 64.71375274658203 209.88473510742188 65.70088195800781 210.85870361328125 66.07674407958984 C 212.07484436035156 65.9857177734375 212.98020935058594 65.68814086914062 213.13694763183594 64.39542388916016 C 213.62457275390625 62.20524215698242 214.24818420410156 59.73298645019531 216.20001220703125 57.33289337158203 C 219.50262451171875 55.305198669433594 223.3664093017578 54.64775466918945 226.912109375 56.267059326171875 C 228.84161376953125 59.39792251586914 229.79135131835938 62.53800964355469 230.5897674560547 64.88504028320312 C 231.6997528076172 66.55194091796875 231.73745727539062 67.30862426757812 231.0687255859375 67.36141967773438 C 230.03321838378906 67.15835571289062 229.0767822265625 66.61256408691406 228.80520629882812 65.78812408447266 C 228.9359588623047 64.43321228027344 228.8861083984375 62.785400390625 228.5186309814453 60.937801361083984 C 227.93988037109375 58.818931579589844 228.08566284179688 55.7619743347168 228.97122192382812 51.37938690185547 C 230.8854217529297 46.290645599365234 233.44813537597656 41.276145935058594 264.7023620605469 28.119882583618164" stroke-width="0.0" fill="rgb(32, 50, 63)" opacity="0.9996259" stroke="rgb(202, 7, 168)" stroke-opacity="0.5755212" stroke-linecap="round" stroke-linejoin="round"/>
    <path d="M 160.90380859375 61.37498092651367 C 162.50445556640625 62.47628402709961 164.08021545410156 62.37409210205078 165.56471252441406 62.200340270996094 C 166.8530731201172 62.26713180541992 168.83697509765625 62.60584259033203 170.9374542236328 62.47722625732422 C 172.58502197265625 62.31052017211914 173.70819091796875 62.89091491699219 174.0694122314453 63.937870025634766 C 173.69863891601562 65.23794555664062 173.78770446777344 65.56043243408203 174.42698669433594 65.07180786132812 C 175.6689453125 65.79499816894531 176.48362731933594 67.10282135009766 176.5243682861328 68.52651977539062 C 175.4542999267578 69.92583465576172 175.2946014404297 70.94703674316406 175.28228759765625 71.738037109375 C 175.59861755371094 72.6761245727539 176.37109375 74.09917449951172 176.6138153076172 76.5245590209961 C 176.06993103027344 79.13282012939453 174.97679138183594 81.4632568359375 173.5283966064453 83.2926025390625 C 171.65798950195312 84.66878509521484 169.5240020751953 85.22632598876953 167.60211181640625 84.4162368774414 C 165.64044189453125 83.44126892089844 163.43649291992188 82.86354064941406 162.23406982421875 81.87879180908203 C 161.6645965576172 80.50230407714844 161.9179229736328 78.59642791748047 162.43946838378906 77.06105041503906 C 163.23793029785156 75.80101776123047 164.1474151611328 74.7861328125 165.16049194335938 74.00240325927734 C 166.0054168701172 73.44490814208984 166.3563232421875 73.48979187011719 166.25119018554688 73.86518859863281 C 165.8682861328125 74.2294692993164 165.21136474609375 74.53404998779297 164.06063842773438 74.77836608886719 C 162.8790283203125 74.60029602050781 162.65408325195312 73.74883270263672 162.38002014160156 73.06855773925781 C 161.81549072265625 71.6528549194336 160.7758331298828 70.28314971923828 160.68374633789062 68.75048828125 C 161.35728454589844 66.89324188232422 161.41598510742188 65.44621276855469 160.6566925048828 64.4561996459961 C 159.8814697265625 63.51083755493164 158.71641540527344 63.12395095825195 160.90380859375 61.37498092651367" stroke-width="0.0" fill="rgb(17, 16, 22)" opacity="0.9994177" stroke="rgb(236, 95, 66)" stroke-opacity="0.9260961" stroke-linecap="round" stroke-linejoin="round"/>
    <path d="M 298.8888854980469 92.04955291748047 C 300.5566101074219 92.78234100341797 301.58551025390625 93.04695892333984 302.4572448730469 93.32202911376953 C 303.3924560546875 93.46276092529297 304.2988586425781 93.36050415039062 305.1923522949219 93.34129333496094 C 306.0343322753906 93.54361724853516 306.885009765625 93.73046112060547 307.7017517089844 94.26225280761719 C 308.2720031738281 95.10425567626953 308.3703308105469 96.22278594970703 307.8970947265625 97.53397369384766 C 306.9612731933594 98.95722198486328 305.6584777832031 100.33429718017578 304.0437316894531 101.16030883789062 C 302.25103759765625 100.9288101196289 300.66900634765625 100.42601013183594 299.6747131347656 100.13568878173828 C 298.5375061035156 100.4459228515625 297.39996337890625 100.8907699584961 296.43194580078125 101.88400268554688 C 295.486328125 101.90977478027344 294.3995361328125 101.58738708496094 293.37481689453125 101.44011688232422 C 292.386474609375 101.55615997314453 291.3984375 102.01380157470703 290.4005126953125 102.66278839111328 C 289.3174133300781 102.48812103271484 288.1455078125 102.29104614257812 286.99761962890625 102.65960693359375 C 285.8782043457031 103.34937286376953 284.6703796386719 104.10902404785156 283.531494140625 103.85858154296875 C 282.7673645019531 103.09370422363281 282.295166015625 102.9791259765625 282.03759765625 103.40467071533203 C 281.57012939453125 103.6926498413086 281.00445556640625 103.53423309326172 280.2904052734375 103.08715057373047 C 279.4107971191406 102.80712127685547 278.4305419921875 102.65542602539062 277.32196044921875 102.6705322265625 C 276.11602783203125 103.0297622680664 274.71295166015625 103.64910125732422 272.9757385253906 104.1785888671875 C 270.9890441894531 103.42221069335938 269.2210388183594 103.28901672363281 267.6513671875 103.09329986572266 C 266.19525146484375 102.85563659667969 264.9398498535156 102.9466552734375 263.88232421875 103.7411117553711 C 262.80279541015625 104.46444702148438 261.60272216796875 104.3300552368164 260.44635009765625 104.33018493652344 C 259.37939453125 104.58467102050781 258.29498291015625 104.58023071289062 257.1761779785156 104.42743682861328 C 256.0793151855469 104.2431411743164 254.9127197265625 103.91143798828125 253.72503662109375 103.65486907958984 C 252.78956604003906 103.1916275024414 252.2266082763672 102.86539459228516 251.81317138671875 103.09632873535156 C 251.17202758789062 103.46996307373047 250.47531127929688 103.76678466796875 249.9295196533203 104.1861343383789 C 249.3830108642578 104.45198059082031 248.58197021484375 104.81092834472656 247.8424835205078 104.62832641601562 C 247.2009735107422 103.83663940429688 246.64791870117188 103.30657958984375 245.7858123779297 103.36544036865234 C 244.82611083984375 103.48883056640625 243.89462280273438 103.39935302734375 242.9556121826172 103.37296295166016 C 242.06858825683594 103.62196350097656 241.16342163085938 103.71390533447266 240.16041564941406 103.44506072998047 C 239.20382690429688 102.962646484375 238.2015838623047 102.69075012207031 236.99520874023438 102.62115478515625 C 235.6208953857422 102.46755981445312 234.23171997070312 102.62157440185547 232.82765197753906 102.75877380371094 C 231.50106811523438 102.77842712402344 230.4664764404297 103.60681915283203 229.46473693847656 104.74418640136719 C 228.23052978515625 105.42993927001953 227.0894317626953 106.03937530517578 226.1539764404297 106.48522186279297 C 225.23670959472656 106.66256713867188 224.62545776367188 107.2090072631836 223.81600952148438 107.44003295898438 C 222.84957885742188 107.55125427246094 222.30517578125 108.0198974609375 221.7766876220703 108.84628295898438 C 220.5929718017578 108.57927703857422 219.3929443359375 108.33513641357422 218.36216735839844 108.48397827148438 C 217.24273681640625 108.8173599243164 215.86062622070312 108.76380920410156 214.3324432373047 108.43648529052734 C 212.8820037841797 108.4695053100586 211.4983673095703 108.5247802734375 210.1622772216797 108.47222900390625 C 208.85182189941406 108.26374816894531 207.57582092285156 107.76229858398438 206.38519287109375 106.98697662353516 C 205.42990112304688 105.99248504638672 204.70526123046875 105.05780029296875 203.9918975830078 104.50067901611328 C 203.5899200439453 103.95154571533203 203.10037231445312 103.34662628173828 202.5415496826172 102.26527404785156 C 202.00732421875 101.23121643066406 201.82101440429688 100.10611724853516 201.43746948242188 99.31399536132812 C 200.92237854003906 98.26221466064453 201.04193115234375 96.60939025878906 200.06317138671875 95.1601333618164 C 199.1362762451172 93.42456817626953 198.2530975341797 92.04913330078125 198.5637664794922 90.64170837402344 C 199.3446502685547 89.76195526123047 200.62559509277344 89.4786148071289 202.80531311035156 89.4974365234375 C 205.33750915527344 90.20821380615234 207.8151397705078 90.57264709472656 209.75799560546875 90.53201293945312 C 211.12294006347656 90.01301574707031 212.81224060058594 89.65969848632812 215.02755737304688 88.82902526855469 C 216.24644470214844 87.56199645996094 216.42391967773438 86.23646545410156 215.92723083496094 86.5413818359375 C 215.54608154296875 87.53264617919922 215.0650634765625 88.44798278808594 213.93594360351562 89.10546875 C 214.50030517578125 89.79969024658203 215.81031799316406 90.27133178710938 217.7007293701172 90.57542419433594 C 219.42372131347656 90.69023895263672 220.9705810546875 91.49564361572266 222.51959228515625 92.53823852539062 C 224.3971710205078 93.54730987548828 226.68362426757812 94.10198974609375 229.0089569091797 93.69855499267578 C 230.9322967529297 93.7723617553711 232.86251831054688 93.98258209228516 235.1071014404297 93.61300659179688 C 237.5943603515625 93.88997650146484 240.17120361328125 94.09210205078125 242.590576171875 94.34099578857422 C 244.6060028076172 95.13092041015625 246.33883666992188 95.37503814697266 247.8629608154297 95.52542877197266 C 249.41583251953125 95.63965606689453 251.2104034423828 95.5867691040039 253.1702117919922 95.3634033203125 C 255.211181640625 94.9609603881836 257.3680725097656 94.4000244140625 259.6728820800781 94.45185852050781 C 262.0282897949219 94.64300537109375 264.27862548828125 94.40226745605469 266.3730773925781 94.09178924560547 C 268.3886413574219 93.78047180175781 270.3076171875 93.56712341308594 272.0511779785156 93.46501922607422 C 273.6579895019531 93.5538330078125 275.2174987792969 93.666748046875 276.8777160644531 93.7657470703125 C 278.543212890625 93.66883850097656 280.3193664550781 93.77479553222656 282.2828063964844 94.00105285644531 C 284.4454040527344 94.1756820678711 286.8365173339844 94.35480499267578 289.36212158203125 94.38896942138672 C 291.80780029296875 93.96244049072266 293.9772033691406 93.59803009033203 298.8888854980469 92.04955291748047" stroke-width="0.0" fill="rgb(159, 142, 127)" opacity="0.99953693" stroke="rgb(125, 73, 171)" stroke-opacity="0.3129316" stroke-linecap="round" stroke-linejoin="round"/>
    <path d="M 194.18991088867188 48.5191764831543 C 192.93756103515625 49.32933807373047 191.91490173339844 50.51990509033203 191.26351928710938 51.9688606262207 C 190.9628448486328 53.79331588745117 191.18045043945312 56.10888671875 192.2396240234375 58.726985931396484 C 193.9164581298828 61.41912841796875 193.64215087890625 64.16450500488281 192.6878204345703 66.4924087524414 C 191.64254760742188 67.09107208251953 191.46267700195312 65.77259826660156 191.60528564453125 63.7701301574707 C 191.96685791015625 62.14365005493164 191.13113403320312 60.65324401855469 189.0282440185547 60.57715606689453 C 187.33538818359375 60.44225311279297 186.7590789794922 58.93892288208008 187.1766357421875 57.29660415649414 C 187.53553771972656 55.55535888671875 186.8520965576172 53.7119026184082 185.277587890625 51.66633987426758 C 183.84976196289062 50.06250762939453 183.0569610595703 49.12533950805664 194.18991088867188 48.5191764831543" stroke-width="0.0" fill="rgb(185, 133, 115)" opacity="1.0" stroke="rgb(56, 118, 177)" stroke-opacity="0.9042213" stroke-linecap="round" stroke-linejoin="round"/>
    <path d="M 13.803483963012695 150.1604461669922 C 17.368680953979492 154.562744140625 20.86945915222168 158.9265594482422 23.27815055847168 163.03868103027344 C 25.08248519897461 166.8350372314453 25.645177841186523 170.01771545410156 24.961660385131836 172.47543334960938 C 23.958642959594727 174.7140350341797 22.360334396362305 177.09666442871094 20.635160446166992 179.0381317138672 C 18.086097717285156 180.4300537109375 14.973623275756836 181.2816162109375 11.126199722290039 181.48397827148438 C 6.540144920349121 180.7919921875 1.3416463136672974 179.8681182861328 13.803483963012695 150.1604461669922" stroke-width="0.0" fill="rgb(96, 116, 52)" opacity="0.9998974" stroke="rgb(96, 116, 114)" stroke-opacity="0.6049804" stroke-linecap="round" stroke-linejoin="round"/>
    <path d="M 32.01835250854492 159.49832153320312 C 31.048784255981445 162.76071166992188 30.055360794067383 166.1300506591797 28.931453704833984 169.0991668701172 C 27.953556060791016 171.4004669189453 27.087675094604492 172.8267822265625 26.11757469177246 173.14698791503906 C 24.877090454101562 172.57896423339844 23.452314376831055 171.1612548828125 21.77798843383789 169.40338134765625 C 20.008358001708984 167.4748077392578 18.387126922607422 165.16448974609375 32.01835250854492 159.49832153320312" stroke-width="0.0" fill="rgb(94, 116, 55)" opacity="1.0" stroke="rgb(119, 74, 175)" stroke-opacity="0.8014714" stroke-linecap="round" stroke-linejoin="round"/>
    <path d="M 90.82369232177734 109.39424896240234 C 100.53943634033203 115.11539459228516 107.2613296508789 121.50598907470703 111.78935241699219 127.01966094970703 C 112.8828353881836 132.4348907470703 111.53914642333984 137.5419921875 109.8141860961914 142.0101318359375 C 108.08351135253906 144.62295532226562 106.53702545166016 145.0767822265625 105.3193588256836 143.6363067626953 C 105.06085968017578 140.69998168945312 105.81053161621094 136.8437957763672 90.82369232177734 109.39424896240234" stroke-width="0.0" fill="rgb(115, 59, 31)" opacity="0.9993657" stroke="rgb(33, 191, 167)" stroke-opacity="0.5540633" stroke-linecap="round" stroke-linejoin="round"/>
    <path d="M 0.8890443444252014 7.10756254196167 C 6.676837921142578 13.472376823425293 12.225566864013672 18.2579345703125 15.717101097106934 22.15226173400879 C 15.834744453430176 26.597414016723633 14.536096572875977 30.028181076049805 11.74203109741211 32.350250244140625 C 7.913249969482422 33.6828727722168 4.033544063568115 34.27452850341797 0.572655200958252 34.50760269165039 C -2.4767487049102783 34.62038040161133 -5.355972766876221 34.66193771362305 0.8890443444252014 7.10756254196167" stroke-width="0.0" fill="rgb(36, 53, 61)" opacity="0.9997207" stroke="rgb(188, 218, 94)" stroke-opacity="0.022786215" stroke-linecap="round" stroke-linejoin="round"/>
    <path d="M 176.84942626953125 45.11407470703125 C 175.68775939941406 47.44514846801758 174.70608520507812 49.48998260498047 174.6563262939453 51.357730865478516 C 174.81578063964844 53.29618835449219 174.28501892089844 55.37765884399414 173.8682403564453 56.962764739990234 C 173.88401794433594 58.446624755859375 173.98011779785156 60.311004638671875 173.92556762695312 61.97462463378906 C 173.40313720703125 62.95541000366211 172.00303649902344 63.313987731933594 170.5169219970703 63.121055603027344 C 169.74391174316406 62.24784851074219 169.48114013671875 61.001190185546875 169.28759765625 59.72687530517578 C 168.6512908935547 58.99360656738281 167.40956115722656 58.3421516418457 165.94454956054688 58.14122772216797 C 165.16140747070312 57.22929000854492 165.10308837890625 55.73957443237305 165.50534057617188 54.93207931518555 C 166.1869659423828 54.75972366333008 166.69622802734375 54.955440521240234 176.84942626953125 45.11407470703125" stroke-width="0.0" fill="rgb(20, 21, 30)" opacity="0.99950534" stroke="rgb(240, 21, 109)" stroke-opacity="0.2497956" stroke-linecap="round" stroke-linejoin="round"/>
    <path d="M 141.3055877685547 154.3749237060547 C 141.8364715576172 155.26219177246094 143.05299377441406 155.93698120117188 144.08660888671875 157.0591278076172 C 144.7934112548828 158.50352478027344 146.1035614013672 159.638916015625 147.49984741210938 160.86346435546875 C 148.97328186035156 161.66571044921875 150.17007446289062 162.57138061523438 150.6811065673828 163.74673461914062 C 150.81080627441406 164.90847778320312 150.8621063232422 166.1097869873047 150.44564819335938 167.42520141601562 C 150.64306640625 168.73294067382812 151.526123046875 170.2076873779297 152.47503662109375 171.79727172851562 C 153.1823272705078 172.4658966064453 153.66403198242188 173.25328063964844 153.67930603027344 174.46530151367188 C 152.9734649658203 175.66880798339844 151.24185180664062 176.18341064453125 148.87513732910156 175.8762664794922 C 146.30467224121094 175.3032989501953 144.20748901367188 174.7509002685547 143.1466827392578 174.0630340576172 C 142.9268035888672 173.2475128173828 143.76686096191406 172.34530639648438 144.87350463867188 171.2000274658203 C 145.53648376464844 170.20382690429688 145.42098999023438 168.91812133789062 145.3230438232422 167.62704467773438 C 145.3700408935547 166.85777282714844 145.62167358398438 166.4637451171875 145.92825317382812 166.1857452392578 C 145.90219116210938 166.09512329101562 145.5155792236328 166.13278198242188 145.19650268554688 166.1053466796875 C 144.70773315429688 166.14157104492188 144.13287353515625 166.7435302734375 143.45733642578125 167.73268127441406 C 142.79031372070312 167.11158752441406 142.21620178222656 165.5238800048828 141.06936645507812 164.54127502441406 C 139.32041931152344 163.52108764648438 138.493408203125 162.37879943847656 138.67752075195312 161.2084197998047 C 139.3219757080078 160.11935424804688 139.55455017089844 158.88613891601562 139.47840881347656 157.8060760498047 C 139.82373046875 156.9524383544922 140.41026306152344 156.1456298828125 141.3055877685547 154.3749237060547" stroke-width="0.0" fill="rgb(205, 196, 194)" opacity="0.99979484" stroke="rgb(68, 114, 149)" stroke-opacity="0.7432503" stroke-linecap="round" stroke-linejoin="round"/>
    <path d="M 183.66639709472656 19.34855079650879 C 186.05723571777344 21.324630737304688 188.26165771484375 22.19312286376953 190.36575317382812 23.349794387817383 C 190.90989685058594 24.6630802154541 189.86944580078125 25.206985473632812 187.91371154785156 25.352092742919922 C 185.3214569091797 25.716468811035156 183.05581665039062 27.824249267578125 180.39564514160156 31.425703048706055 C 177.07659912109375 35.200279235839844 173.63954162597656 38.15913772583008 183.66639709472656 19.34855079650879" stroke-width="0.0" fill="rgb(34, 27, 33)" opacity="0.999605" stroke="rgb(115, 234, 118)" stroke-opacity="0.055512004" stroke-linecap="round" stroke-linejoin="round"/>
    <path d="M 100.90127563476562 73.4145736694336 C 100.63237762451172 81.40816497802734 100.41600036621094 88.16477966308594 101.01921844482422 93.46342468261719 C 100.40376281738281 97.17279815673828 100.35619354248047 99.6486587524414 101.04835510253906 100.69020080566406 C 101.54309844970703 100.43646240234375 101.63717651367188 99.07344055175781 101.56682586669922 97.58380889892578 C 100.83300018310547 97.23333740234375 98.96720886230469 97.86079406738281 97.93637084960938 99.8695068359375 C 98.55075073242188 103.13121032714844 98.6885986328125 105.87691497802734 97.07952117919922 107.76979064941406 C 95.19773864746094 107.11922454833984 93.1999740600586 104.71580505371094 92.0966567993164 100.61309814453125 C 91.71171569824219 94.32041931152344 91.44190979003906 87.96185302734375 93.17070007324219 83.71586608886719 C 96.11455535888672 82.38529968261719 97.09776306152344 83.71934509277344 96.22453308105469 87.0906982421875 C 94.92535400390625 92.38935852050781 94.27274322509766 98.34761047363281 100.90127563476562 73.4145736694336" stroke-width="0.0" fill="rgb(224, 196, 190)" opacity="0.999359" stroke="rgb(108, 82, 28)" stroke-opacity="0.20753133" stroke-linecap="round" stroke-linejoin="round"/>
    <path d="M 215.62596130371094 204.06683349609375 C 215.762451171875 205.2925262451172 215.87826538085938 206.2326202392578 215.94775390625 207.0970458984375 C 215.99032592773438 207.83274841308594 215.8582763671875 208.4422607421875 215.50575256347656 208.8029327392578 C 215.09017944335938 208.74497985839844 214.58494567871094 208.2620086669922 214.02674865722656 207.6304473876953 C 213.458251953125 206.95399475097656 212.86502075195312 206.21420288085938 215.62596130371094 204.06683349609375" stroke-width="0.0" fill="rgb(132, 144, 7)" opacity="0.99993587" stroke="rgb(211, 210, 190)" stroke-opacity="0.03195835" stroke-linecap="round" stroke-linejoin="round"/>
    <path d="M 184.08349609375 41.75928497314453 C 185.46731567382812 40.467166900634766 185.80674743652344 38.94770812988281 183.992919921875 38.11865234375 C 184.071533203125 38.85075759887695 184.16075134277344 42.181156158447266 184.6474609375 46.73141860961914 C 183.76316833496094 50.06597900390625 182.0189208984375 52.99421691894531 181.65345764160156 55.33287811279297 C 180.99139404296875 56.49624252319336 180.36451721191406 56.68406295776367 180.129638671875 56.45382308959961 C 179.66001892089844 56.258426666259766 178.6374969482422 55.273250579833984 177.47328186035156 53.362571716308594 C 178.3387451171875 49.07156753540039 178.99749755859375 44.5562744140625 178.8167724609375 40.41718673706055 C 179.13429260253906 36.34914779663086 179.93316650390625 33.58034896850586 184.08349609375 41.75928497314453" stroke-width="0.0" fill="rgb(194, 132, 109)" opacity="0.9994068" stroke="rgb(71, 151, 141)" stroke-opacity="0.03138173" stroke-linecap="round" stroke-linejoin="round"/>
  </g>
</svg>
