<?xml version="1.0" ?>
<svg xmlns="http://www.w3.org/2000/svg" version="1.1" width="353" height="294">
  <defs/>
  <g>
    <path d="M -32.55069351196289 -0.4071640968322754 C -20.031143188476562 -1.657568335533142 -6.916158199310303 -2.87370228767395 7.6785807609558105 -4.247363090515137 C 24.590164184570312 -5.82957124710083 43.20576858520508 -7.581277847290039 62.93460464477539 -8.924569129943848 C 83.37492370605469 -8.930091857910156 100.46958923339844 -6.292403221130371 116.22190856933594 -1.3498125076293945 C 111.4952392578125 8.947977066040039 110.90691375732422 30.528200149536133 99.69528198242188 23.54121971130371 C 69.23099517822266 25.082836151123047 61.99625015258789 34.17108917236328 36.86030578613281 25.79334259033203 C 23.143939971923828 38.818050384521484 31.71607208251953 49.69554138183594 50.24898147583008 51.057334899902344 C 59.12984085083008 17.729856491088867 53.40673828125 26.58708953857422 90.85362243652344 42.955230712890625 C 108.21177673339844 23.398317337036133 112.46697998046875 19.739229202270508 140.0380096435547 34.990753173828125 C 148.34922790527344 22.835126876831055 145.8104705810547 9.357878684997559 131.24818420410156 1.2465012073516846 C 158.13002014160156 -9.74664306640625 178.5791015625 -8.511975288391113 167.027099609375 11.192349433898926 C 179.25144958496094 25.72553062438965 188.93382263183594 21.652997970581055 178.02987670898438 0.14049705862998962 C 201.78822326660156 -10.646073341369629 224.5083770751953 -14.44722843170166 252.5086212158203 -22.89150619506836 C 260.8776550292969 -4.082026481628418 274.8519592285156 13.81954288482666 285.3427429199219 34.70632553100586 C 294.27587890625 48.954830169677734 296.52392578125 55.811744689941406 283.7229919433594 70.10572052001953 C 263.287109375 63.38679885864258 269.988037109375 67.99858093261719 251.4422607421875 88.29559326171875 C 242.3346710205078 101.90880584716797 249.02967834472656 127.06132507324219 257.8725891113281 143.4235076904297 C 271.10552978515625 153.48800659179688 284.95245361328125 159.86007690429688 286.5472106933594 145.3931121826172 C 281.2938537597656 122.19841766357422 275.2479248046875 95.95333099365234 282.3025817871094 76.79930877685547 C 289.60687255859375 54.987525939941406 301.6634216308594 46.684814453125 318.8087158203125 47.4900016784668 C 317.4080505371094 43.65717697143555 308.96368408203125 50.06200408935547 295.0618896484375 57.72686767578125 C 295.0661315917969 46.808746337890625 282.0423278808594 31.30359649658203 281.7103576660156 24.67593002319336 C 282.98712158203125 -7.481071472167969 272.0130310058594 -16.412809371948242 304.2118835449219 -16.870498657226562 C 330.7665710449219 -14.590861320495605 348.3453063964844 -6.651998996734619 359.394775390625 5.889704704284668 C 362.4957580566406 25.50787353515625 360.9425354003906 45.15485763549805 358.67840576171875 65.5819091796875 C 357.7417907714844 87.21331787109375 357.7034912109375 107.66613006591797 357.9892578125 127.14785766601562 C 358.09881591796875 146.3658905029297 357.909912109375 165.10394287109375 357.6913757324219 184.00010681152344 C 357.7658996582031 203.33056640625 358.3276062011719 222.37808227539062 359.29669189453125 240.95330810546875 C 360.2046813964844 259.1896667480469 359.78924560546875 275.6470031738281 356.7408752441406 288.81024169921875 C 349.2477111816406 298.48602294921875 337.740966796875 303.92755126953125 320.35614013671875 305.89593505859375 C 298.6490173339844 305.53619384765625 275.4699401855469 303.75421142578125 250.29934692382812 301.42352294921875 C 223.43658447265625 299.3005676269531 196.6847381591797 298.6583557128906 171.21829223632812 299.6405944824219 C 148.66769409179688 301.17047119140625 133.32518005371094 300.4922180175781 117.72986602783203 294.79376220703125 C 123.1264419555664 285.9875183105469 129.20335388183594 269.43060302734375 128.85523986816406 264.3973388671875 C 110.39429473876953 258.1524353027344 103.3686294555664 268.0367431640625 89.99166107177734 282.8453674316406 C 99.79609680175781 286.64385986328125 115.72218322753906 282.58978271484375 121.27845764160156 286.66058349609375 C 121.18222045898438 302.4903869628906 105.68771362304688 301.823974609375 83.20390319824219 301.2736511230469 C 57.004817962646484 302.12066650390625 30.50209617614746 301.0351257324219 5.782168865203857 299.0014343261719 C -7.985450744628906 295.288818359375 -12.110380172729492 282.24810791015625 -12.754801750183105 270.17034912109375 C -10.991923332214355 260.058349609375 -8.190353393554688 250.53387451171875 -4.180887222290039 241.57212829589844 C 3.4111545085906982 233.0786895751953 15.043933868408203 227.58786010742188 28.221040725708008 226.34335327148438 C 37.4688835144043 234.6292266845703 45.028446197509766 244.24476623535156 50.34461212158203 248.29713439941406 C 48.66213607788086 246.4361114501953 39.79579544067383 238.4009246826172 27.581298828125 227.28077697753906 C 24.523176193237305 209.35671997070312 28.381988525390625 190.67665100097656 35.12822341918945 175.92654418945312 C 53.910484313964844 173.08555603027344 63.6793327331543 168.00918579101562 60.330841064453125 159.15994262695312 C 40.871726989746094 169.0688018798828 25.56037139892578 172.26512145996094 5.577535152435303 167.5253448486328 C -4.177151679992676 159.63487243652344 -9.972275733947754 139.84765625 3.2296106815338135 128.6985626220703 C 22.95496940612793 128.6949005126953 42.39522171020508 131.75924682617188 45.60178756713867 115.2038803100586 C 63.21195983886719 111.38106536865234 69.06831359863281 116.20781707763672 77.60267639160156 117.01040649414062 C 89.93772888183594 116.21100616455078 89.97040557861328 118.42964935302734 94.25300598144531 116.08468627929688 C 102.0210952758789 109.93452453613281 112.88214111328125 110.45514678955078 125.0927505493164 114.1645736694336 C 139.72177124023438 122.99552917480469 153.21038818359375 137.92953491210938 164.5101776123047 156.03501892089844 C 174.9665985107422 172.0039825439453 175.15188598632812 180.14881896972656 187.1017608642578 174.3893585205078 C 197.2661895751953 157.33355712890625 201.95474243164062 135.68716430664062 192.6417694091797 118.53885650634766 C 176.9266357421875 103.79115295410156 160.66355895996094 95.86486053466797 137.8402557373047 92.7541275024414 C 135.83827209472656 106.61579132080078 108.86073303222656 107.86842346191406 95.95491027832031 117.625732421875 C 78.74613952636719 117.7205810546875 56.859310150146484 118.16161346435547 55.17713165283203 100.94509887695312 C 52.02471923828125 89.37019348144531 37.235897064208984 95.32485961914062 25.63562774658203 110.44463348388672 C 15.093878746032715 123.14690399169922 6.32661247253418 129.68411254882812 -5.462627410888672 131.8984832763672 C -6.207180023193359 122.7822265625 -8.748222351074219 101.40692901611328 -12.927960395812988 75.36308288574219 C -17.383426666259766 46.53804397583008 -21.680435180664062 17.192716598510742 -32.55069351196289 -0.4071640968322754" stroke-width="0.0" fill="rgb(124, 182, 101)" opacity="0.9999829" stroke="rgb(191, 90, 201)" stroke-opacity="0.24031615" stroke-linecap="round" stroke-linejoin="round"/>
    <path d="M 184.9358673095703 44.891544342041016 C 185.00233459472656 48.18970489501953 182.37437438964844 47.403289794921875 184.64581298828125 46.11187744140625 C 182.19564819335938 45.84639358520508 181.0736083984375 46.58168411254883 181.7630157470703 47.07918167114258 C 182.8624267578125 47.88118362426758 184.28720092773438 51.89961242675781 177.09033203125 50.10910415649414 C 184.98324584960938 49.749820709228516 194.1870880126953 49.04388427734375 201.01329040527344 50.88272476196289 C 207.75135803222656 54.66011428833008 213.8725128173828 59.66249465942383 221.65325927734375 64.7352523803711 C 229.66433715820312 68.81462860107422 235.8479461669922 73.21961212158203 240.91421508789062 76.91101837158203 C 244.81716918945312 79.3156509399414 247.1992950439453 80.29390716552734 248.54055786132812 80.12598419189453 C 249.7603302001953 79.21614074707031 251.5753631591797 78.00370788574219 253.00994873046875 74.61002349853516 C 258.7486267089844 76.47196197509766 266.58203125 76.81636810302734 261.33544921875 66.685546875 C 255.91036987304688 87.04191589355469 249.01113891601562 94.75163269042969 251.93954467773438 106.08670806884766 C 248.7552032470703 123.02604675292969 251.3327178955078 129.39471435546875 263.71539306640625 137.94253540039062 C 275.8405456542969 148.2942352294922 285.4302978515625 154.0555877685547 285.76727294921875 147.6031036376953 C 282.9141845703125 129.8264923095703 271.5190734863281 126.23684692382812 273.4986572265625 97.73396301269531 C 276.6800842285156 91.66080474853516 275.95013427734375 78.55470275878906 283.4082336425781 74.54317474365234 C 282.789794921875 71.28653717041016 280.7633056640625 79.28254699707031 281.6681823730469 86.9066162109375 C 285.04241943359375 88.5229721069336 290.1854553222656 90.16596984863281 303.1193542480469 84.30386352539062 C 309.1958312988281 87.18463134765625 320.027587890625 92.78057098388672 331.74920654296875 97.07069396972656 C 340.7160949707031 103.85054779052734 347.8595886230469 111.1126480102539 350.2239685058594 119.42244720458984 C 342.0783386230469 121.40408325195312 338.2757873535156 121.16305541992188 340.5484619140625 128.06231689453125 C 351.6353759765625 130.45411682128906 357.3450927734375 137.28253173828125 352.09588623046875 151.3506317138672 C 346.2877502441406 156.6296844482422 348.00982666015625 150.06637573242188 340.40972900390625 140.60601806640625 C 334.99444580078125 139.85968017578125 329.5298767089844 147.83909606933594 332.54449462890625 156.14849853515625 C 326.9392395019531 156.418212890625 323.41790771484375 149.63079833984375 312.1741027832031 145.99832153320312 C 305.61529541015625 141.95770263671875 302.2387390136719 149.79934692382812 301.23931884765625 154.89585876464844 C 305.3040466308594 158.33766174316406 312.6119079589844 156.70486450195312 323.33941650390625 160.48934936523438 C 330.3301086425781 170.0630340576172 341.1258239746094 176.6339111328125 348.864990234375 182.92364501953125 C 353.4315185546875 193.50796508789062 344.6335144042969 200.90121459960938 346.9935302734375 211.68087768554688 C 354.7323913574219 209.49859619140625 359.16253662109375 215.08157348632812 358.4349365234375 229.22286987304688 C 358.9453125 243.7607421875 359.55401611328125 259.9940185546875 359.267578125 275.57244873046875 C 357.405029296875 287.7876892089844 353.0875244140625 293.1829528808594 346.6383972167969 291.0893249511719 C 336.6617431640625 283.5014343261719 328.341552734375 277.1344299316406 320.3576354980469 279.8811340332031 C 312.6177978515625 283.6546936035156 319.39300537109375 288.8125 329.1474304199219 288.16461181640625 C 333.9370422363281 285.854248046875 336.4334411621094 294.2202453613281 333.8478698730469 295.83935546875 C 322.9730224609375 298.7464904785156 306.38006591796875 300.0242919921875 292.46038818359375 300.0728454589844 C 278.242919921875 299.5654602050781 264.1656799316406 297.1661071777344 249.1013946533203 293.5680236816406 C 241.65093994140625 284.8685607910156 234.96755981445312 278.2962951660156 225.24102783203125 274.7905578613281 C 210.60731506347656 273.87359619140625 199.11703491210938 271.7704772949219 191.11843872070312 277.1061706542969 C 185.8177947998047 285.298828125 173.9458465576172 291.81951904296875 165.00550842285156 295.6612243652344 C 157.85206604003906 293.5794982910156 148.65919494628906 293.05706787109375 148.09376525878906 284.21527099609375 C 150.1387481689453 275.052734375 154.85397338867188 264.8457336425781 157.58880615234375 258.39129638671875 C 148.69862365722656 256.9261474609375 147.75299072265625 263.3430480957031 128.13739013671875 260.1983337402344 C 118.04530334472656 257.1529235839844 109.76543426513672 253.5642852783203 108.33474731445312 240.59423828125 C 106.16815948486328 230.18218994140625 109.3505859375 223.31048583984375 107.1921615600586 221.99932861328125 C 101.64114379882812 217.02061462402344 100.86845397949219 207.21588134765625 97.38818359375 201.87777709960938 C 96.78353118896484 192.4158477783203 88.62992858886719 191.2062225341797 89.3124008178711 178.6461944580078 C 95.78278350830078 176.7785186767578 91.64066314697266 173.51345825195312 88.73867797851562 162.17454528808594 C 86.43323516845703 150.91006469726562 86.42794036865234 146.491943359375 86.85723876953125 135.7507781982422 C 86.05323791503906 127.48768615722656 87.16683197021484 124.5163803100586 88.23945617675781 123.09425354003906 C 87.38716888427734 126.28776550292969 88.3508071899414 127.31681823730469 87.64143371582031 129.8520050048828 C 88.88650512695312 128.0923614501953 86.41284942626953 125.90448760986328 88.6507339477539 120.32537078857422 C 92.40573120117188 111.12818145751953 96.159423828125 105.51887512207031 104.9645767211914 100.74867248535156 C 119.52053833007812 104.9320297241211 130.482666015625 104.67168426513672 130.5457305908203 117.46817016601562 C 139.99462890625 125.8554916381836 151.82383728027344 139.48167419433594 162.2914276123047 154.42710876464844 C 173.34603881835938 174.14312744140625 176.54624938964844 181.48512268066406 177.79400634765625 162.84683227539062 C 172.5793914794922 155.20840454101562 175.04212951660156 144.040283203125 182.06419372558594 133.01565551757812 C 205.35841369628906 125.57400512695312 196.21145629882812 130.8343048095703 181.27220153808594 121.03814697265625 C 169.9449462890625 113.76429748535156 158.23538208007812 105.91726684570312 148.9468536376953 97.24644470214844 C 141.6607208251953 88.3040771484375 134.9244842529297 90.28739929199219 143.6730194091797 75.47368621826172 C 151.18653869628906 65.37010192871094 160.7520294189453 58.86861801147461 171.5833282470703 55.74907684326172 C 179.91026306152344 55.131351470947266 186.4688720703125 47.36583709716797 184.9358673095703 44.891544342041016" stroke-width="0.0" fill="rgb(42, 53, 31)" opacity="0.99999607" stroke="rgb(235, 160, 37)" stroke-opacity="0.21840616" stroke-linecap="round" stroke-linejoin="round"/>
    <path d="M 189.13568115234375 52.770599365234375 C 193.2348175048828 52.310508728027344 203.0796661376953 52.843658447265625 197.97328186035156 52.001773834228516 C 200.11302185058594 54.86811065673828 203.4243927001953 51.32783508300781 202.53631591796875 51.02789306640625 C 204.5981903076172 56.229190826416016 200.05184936523438 53.2840576171875 204.32928466796875 53.020572662353516 C 202.41896057128906 52.79000473022461 201.28846740722656 53.98782730102539 205.51321411132812 52.525474548339844 C 194.9726104736328 52.60038757324219 198.8468017578125 53.8956413269043 212.58848571777344 53.46242904663086 C 202.5117950439453 49.43319320678711 204.97518920898438 49.22785568237305 210.45687866210938 48.01696014404297 C 207.5826873779297 56.27226638793945 208.6436767578125 53.28936767578125 212.74887084960938 57.32615280151367 C 212.78060913085938 57.18547439575195 214.85104370117188 60.11507034301758 219.14395141601562 58.14155197143555 C 218.77804565429688 60.367984771728516 220.13600158691406 59.5128288269043 222.0618896484375 59.91191101074219 C 218.7763214111328 59.49005889892578 218.1704559326172 58.18265914916992 218.6913604736328 59.44733810424805 C 214.85060119628906 60.16476058959961 222.21188354492188 59.388511657714844 214.33126831054688 60.3428955078125 C 218.37017822265625 59.21799087524414 229.04046630859375 59.292476654052734 237.88592529296875 59.72087478637695 C 229.2537841796875 60.91264724731445 229.41473388671875 61.05800247192383 234.1270294189453 60.77854919433594 C 227.9803924560547 61.0952262878418 233.0013885498047 59.052066802978516 232.22503662109375 61.238887786865234 C 233.28225708007812 59.83924102783203 234.44937133789062 60.92818069458008 233.74122619628906 60.736427307128906 C 233.06967163085938 59.577884674072266 237.9633026123047 60.43782424926758 245.14376831054688 60.56805419921875 C 240.6835174560547 60.65096664428711 248.3065948486328 60.783897399902344 250.5208282470703 63.07640838623047 C 260.6623229980469 62.655941009521484 263.0980224609375 72.10953521728516 260.9602355957031 64.01661682128906 C 260.2185363769531 70.11614227294922 253.77078247070312 74.90459442138672 255.9270477294922 77.53047943115234 C 250.7301025390625 83.53914642333984 249.74282836914062 90.1623764038086 246.3304901123047 93.5756607055664 C 246.98255920410156 99.2275390625 245.76126098632812 105.69987487792969 246.43228149414062 109.82403564453125 C 243.89419555664062 107.60363006591797 247.73387145996094 112.84956359863281 241.02813720703125 111.52616882324219 C 247.84654235839844 120.39754486083984 242.98692321777344 112.90230560302734 239.7278289794922 119.5174789428711 C 240.7360382080078 121.32014465332031 243.349853515625 125.76571655273438 243.45713806152344 130.69039916992188 C 247.25572204589844 129.9071502685547 247.26222229003906 136.2474822998047 251.7790985107422 140.63565063476562 C 257.884765625 140.16688537597656 255.48233032226562 143.6867218017578 259.9007263183594 149.9798583984375 C 259.29681396484375 153.7200469970703 259.3979797363281 157.86087036132812 259.81781005859375 156.94586181640625 C 257.24530029296875 155.1613006591797 252.85610961914062 149.46189880371094 251.89991760253906 145.80458068847656 C 248.0282745361328 143.49742126464844 238.8671875 141.71531677246094 240.4965362548828 145.68505859375 C 241.3008270263672 141.25926208496094 242.16893005371094 147.89122009277344 242.98294067382812 150.5056915283203 C 245.78904724121094 150.01544189453125 247.88973999023438 154.8284912109375 247.57472229003906 154.45716857910156 C 245.14552307128906 162.07342529296875 238.97779846191406 166.41473388671875 242.129150390625 171.00152587890625 C 242.11160278320312 169.90757751464844 248.41456604003906 173.37344360351562 245.76600646972656 175.33448791503906 C 249.1920928955078 176.64491271972656 249.29290771484375 179.93157958984375 248.5407257080078 186.3253173828125 C 244.50318908691406 189.2948455810547 241.50010681152344 193.2664031982422 234.97496032714844 196.7476806640625 C 231.7222442626953 196.23500061035156 227.38926696777344 198.703125 220.45420837402344 199.11712646484375 C 219.33041381835938 196.66854858398438 213.5227813720703 194.6750030517578 209.02264404296875 194.63970947265625 C 211.76695251464844 191.54257202148438 205.31982421875 190.0556640625 202.99061584472656 187.67587280273438 C 200.5188446044922 188.84921264648438 198.1078338623047 183.27102661132812 196.16726684570312 178.63511657714844 C 194.43092346191406 177.48524475097656 193.4793701171875 174.4470672607422 191.46295166015625 172.06398010253906 C 191.55624389648438 166.46560668945312 189.28500366210938 162.0197296142578 188.68359375 156.1746368408203 C 189.53538513183594 153.45077514648438 191.1771240234375 149.99301147460938 192.30953979492188 146.2165985107422 C 196.0791778564453 138.47604370117188 199.9088592529297 140.44078063964844 201.27154541015625 137.33160400390625 C 207.8480224609375 137.83370971679688 209.86224365234375 136.7633514404297 215.45542907714844 138.9639892578125 C 218.6396942138672 139.49429321289062 220.9568328857422 141.5628204345703 225.73277282714844 141.16908264160156 C 231.47055053710938 144.3612060546875 233.39659118652344 143.8318634033203 234.062744140625 142.54493713378906 C 232.3427734375 142.2867889404297 227.49371337890625 140.2633056640625 224.63034057617188 138.453125 C 217.8467559814453 136.44825744628906 213.9509735107422 134.18943786621094 208.7272186279297 130.93724060058594 C 204.4319610595703 128.19679260253906 203.33595275878906 125.16620635986328 195.5607147216797 123.02875518798828 C 193.58094787597656 122.02362823486328 189.5653839111328 120.1734390258789 186.90150451660156 118.18157196044922 C 182.9099578857422 116.03833770751953 177.38424682617188 112.98168182373047 175.28079223632812 109.44782257080078 C 170.0198516845703 109.1083984375 167.78018188476562 103.17179107666016 161.3114013671875 103.19890594482422 C 164.53282165527344 100.62202453613281 161.56483459472656 97.5452880859375 159.14036560058594 94.67643737792969 C 161.43148803710938 92.61662292480469 154.8025665283203 86.94453430175781 155.05007934570312 90.53622436523438 C 152.78982543945312 86.3631820678711 149.27133178710938 80.58306884765625 148.44789123535156 81.61328125 C 151.99392700195312 76.39505767822266 156.20513916015625 77.74861145019531 154.22183227539062 71.05817413330078 C 158.40060424804688 68.35673522949219 162.75418090820312 67.22013092041016 163.20375061035156 62.04463577270508 C 166.5935821533203 60.960697174072266 169.56582641601562 60.07847213745117 173.4718475341797 59.89449691772461 C 174.48068237304688 56.36681365966797 175.8021697998047 55.38227844238281 180.4358673095703 55.25825881958008 C 185.08389282226562 55.81643295288086 191.4656524658203 55.41175842285156 189.13568115234375 52.770599365234375" stroke-width="0.0" fill="rgb(85, 224, 4)" opacity="0.9999787" stroke="rgb(28, 76, 8)" stroke-opacity="0.16054724" stroke-linecap="round" stroke-linejoin="round"/>
    <path d="M 111.8661117553711 107.73299407958984 C 105.58091735839844 108.91828155517578 113.23113250732422 107.39659118652344 120.66560363769531 109.30329132080078 C 116.63077545166016 109.24152374267578 113.77535247802734 109.95335388183594 117.97108459472656 107.83807373046875 C 116.20149993896484 106.44754791259766 119.05593872070312 108.69818878173828 119.13047790527344 112.80598449707031 C 121.53546142578125 108.28119659423828 119.25155639648438 114.14741516113281 120.60094451904297 112.65667724609375 C 121.44634246826172 113.5798568725586 125.33586883544922 115.96795654296875 123.91014862060547 116.60957336425781 C 123.83397674560547 121.19005584716797 127.50432586669922 119.71114349365234 126.669677734375 124.1728286743164 C 129.02183532714844 124.54658508300781 130.37286376953125 129.0701446533203 133.19308471679688 132.96975708007812 C 134.53684997558594 136.23934936523438 134.24464416503906 140.4918212890625 134.57801818847656 132.4587860107422 C 134.61769104003906 136.97769165039062 139.700439453125 138.35975646972656 144.53097534179688 138.7298583984375 C 144.1234130859375 140.49191284179688 146.0587158203125 141.7788543701172 147.25392150878906 143.15577697753906 C 148.0428924560547 144.12823486328125 150.4534149169922 147.32798767089844 153.46546936035156 148.33822631835938 C 152.3893585205078 152.00180053710938 156.7139892578125 153.3028564453125 156.60324096679688 154.82595825195312 C 159.708984375 152.0747833251953 157.79588317871094 161.02146911621094 159.6377716064453 156.1769256591797 C 161.40464782714844 159.8297119140625 163.77809143066406 166.02664184570312 164.58445739746094 165.0760955810547 C 163.81423950195312 168.20545959472656 166.98727416992188 169.52294921875 169.13644409179688 173.65145874023438 C 170.6455535888672 174.30844116210938 168.1145782470703 179.2119598388672 170.21240234375 175.4942626953125 C 169.76608276367188 178.67547607421875 171.38465881347656 181.07797241210938 175.03770446777344 184.20574951171875 C 171.29115295410156 181.98666381835938 173.18556213378906 182.00682067871094 173.32144165039062 189.8937530517578 C 176.2477569580078 192.70497131347656 176.4435272216797 197.44888305664062 175.70919799804688 197.6395263671875 C 176.51364135742188 186.93667602539062 176.59547424316406 201.09092712402344 177.17953491210938 202.70155334472656 C 178.38473510742188 198.538818359375 179.5181427001953 205.76365661621094 178.32965087890625 206.33950805664062 C 182.1924591064453 206.06776428222656 181.81700134277344 210.9814453125 181.71229553222656 216.89352416992188 C 183.10635375976562 207.6582489013672 183.11343383789062 213.9608917236328 183.7600555419922 218.0050811767578 C 186.01193237304688 215.78424072265625 186.0806427001953 227.34906005859375 184.95628356933594 227.6568603515625 C 182.27035522460938 219.49644470214844 186.0179443359375 229.60316467285156 180.59628295898438 232.696044921875 C 179.7583465576172 230.8326873779297 180.41091918945312 236.19248962402344 174.6973419189453 235.44720458984375 C 175.03079223632812 238.65765380859375 172.5514373779297 236.67686462402344 169.2823944091797 239.26304626464844 C 168.20547485351562 239.928466796875 164.9996337890625 242.77835083007812 159.69740295410156 242.58828735351562 C 164.2971954345703 241.0732421875 160.0070343017578 241.31866455078125 163.9892120361328 242.0291290283203 C 158.8978271484375 245.89495849609375 151.78521728515625 245.77291870117188 138.30381774902344 246.10675048828125 C 149.93209838867188 244.74478149414062 146.77658081054688 245.76248168945312 146.83799743652344 244.59716796875 C 147.87008666992188 246.29977416992188 137.8367462158203 245.69036865234375 137.13795471191406 246.23345947265625 C 146.38229370117188 247.7749481201172 135.14556884765625 244.80638122558594 130.4798126220703 245.0832977294922 C 130.08126831054688 245.90782165527344 130.68319702148438 243.08822631835938 125.61920166015625 243.15591430664062 C 125.33583068847656 242.2328643798828 121.76658630371094 239.46466064453125 119.2756118774414 236.89889526367188 C 119.8754653930664 235.48609924316406 116.61692810058594 233.2726593017578 115.42213439941406 232.70716857910156 C 115.35310363769531 234.8235626220703 114.67147827148438 227.4055633544922 116.24813842773438 229.1178436279297 C 115.3050537109375 220.86805725097656 119.20298767089844 226.62869262695312 116.14700317382812 220.3840789794922 C 119.99561309814453 223.81356811523438 116.02326202392578 221.60507202148438 112.02098083496094 220.4448699951172 C 109.99838256835938 217.95669555664062 110.1042709350586 216.439208984375 108.78298950195312 216.98277282714844 C 107.14301300048828 211.46240234375 104.13858032226562 209.57748413085938 103.6064682006836 206.0649871826172 C 103.48212432861328 203.53219604492188 102.196533203125 204.656494140625 102.47564697265625 201.06301879882812 C 100.92972564697266 199.23191833496094 100.67914581298828 196.1503143310547 97.99083709716797 192.5497589111328 C 96.19229125976562 191.64283752441406 96.75666046142578 187.52194213867188 95.05123901367188 186.658447265625 C 93.78964233398438 183.48265075683594 93.0124740600586 178.90478515625 90.93350982666016 182.689453125 C 91.4764175415039 181.64418029785156 90.39080810546875 181.7467041015625 93.48561096191406 185.00230407714844 C 91.09532928466797 179.2389373779297 90.27246856689453 173.9856414794922 90.94044494628906 175.54421997070312 C 93.78470611572266 182.91136169433594 91.60604095458984 171.814697265625 94.66836547851562 173.703857421875 C 95.85272979736328 172.33758544921875 96.11686706542969 170.53533935546875 94.72000122070312 169.40121459960938 C 90.78207397460938 167.07192993164062 92.28775787353516 163.41258239746094 90.35404205322266 162.13943481445312 C 90.07801055908203 158.0208282470703 90.70652770996094 153.08096313476562 90.43243408203125 156.24417114257812 C 91.59774780273438 153.99884033203125 89.40293884277344 152.42507934570312 90.71038055419922 157.40687561035156 C 89.3802261352539 158.47286987304688 89.24896240234375 151.75144958496094 90.4374008178711 146.16900634765625 C 89.3655776977539 147.70437622070312 91.35408020019531 139.3572540283203 90.89169311523438 136.6101837158203 C 90.44351959228516 139.96044921875 92.37015533447266 136.1823272705078 91.36087799072266 132.6973419189453 C 92.14303588867188 131.34242248535156 92.56430053710938 129.2393798828125 93.3074722290039 128.0445098876953 C 93.369873046875 127.7058334350586 95.83330535888672 123.00735473632812 95.64881134033203 122.27254486083984 C 95.50214385986328 121.84028625488281 99.0285873413086 120.27262878417969 98.3388442993164 117.6698226928711 C 98.77099609375 116.8008041381836 101.95274353027344 114.99484252929688 102.81412506103516 113.00122833251953 C 106.6436767578125 110.92597961425781 105.81189727783203 106.16942596435547 111.8661117553711 107.73299407958984" stroke-width="0.0" fill="rgb(88, 189, 3)" opacity="0.9999961" stroke="rgb(17, 75, 249)" stroke-opacity="0.25267234" stroke-linecap="round" stroke-linejoin="round"/>
    <path d="M 314.9412536621094 82.37859344482422 C 304.5796813964844 81.4281997680664 305.9209899902344 81.74919891357422 307.917236328125 83.6534194946289 C 306.8553466796875 83.9732437133789 301.352294921875 84.09237670898438 301.771484375 77.9043960571289 C 304.0603332519531 78.24864196777344 305.7766418457031 79.3428726196289 303.8939514160156 76.87450408935547 C 311.06207275390625 76.97760009765625 316.5176696777344 78.73019409179688 311.75103759765625 77.36378479003906 C 314.445068359375 79.0185775756836 320.01336669921875 82.09201049804688 322.1449890136719 82.8349609375 C 320.5016174316406 83.48127746582031 321.8719787597656 83.98157501220703 322.83477783203125 84.65399169921875 C 323.483642578125 85.25507354736328 324.3277587890625 85.84601593017578 325.4196472167969 86.51698303222656 C 326.4298400878906 86.8691177368164 327.1536560058594 87.19490051269531 327.6663818359375 87.92845916748047 C 328.17913818359375 88.70096588134766 328.8193664550781 89.64608001708984 329.2734069824219 90.34352111816406 C 329.4945983886719 91.12503814697266 329.60565185546875 92.07979583740234 329.6678771972656 93.10538482666016 C 329.6050720214844 93.71886444091797 330.1036376953125 94.11500549316406 330.6072692871094 94.30915069580078 C 330.9510192871094 94.3130111694336 331.35198974609375 94.22359466552734 331.8013916015625 94.0952377319336 C 332.1597900390625 93.93479919433594 332.8182678222656 93.81954956054688 333.768310546875 93.70362091064453 C 334.7015686035156 93.56082153320312 335.3221130371094 94.13932800292969 339.48187255859375 91.45118713378906 C 337.7601623535156 92.87232208251953 336.5174255371094 96.76094818115234 340.4948425292969 97.63968658447266 C 338.8546447753906 99.82746887207031 339.66851806640625 101.43177032470703 341.82373046875 99.97034454345703 C 343.78741455078125 100.72276306152344 346.7757568359375 101.00017547607422 341.9518737792969 98.93034362792969 C 347.04840087890625 105.74566650390625 343.2830810546875 104.92822265625 343.767578125 101.40182495117188 C 344.8458251953125 106.07875061035156 342.83514404296875 108.58659362792969 341.3388671875 109.87554168701172 C 340.14453125 110.75227355957031 339.44158935546875 111.30145263671875 338.9241027832031 112.06871032714844 C 338.1414794921875 113.12561798095703 337.2113037109375 114.23069763183594 336.3421936035156 114.974853515625 C 335.3819580078125 115.79769897460938 334.1885986328125 116.83297729492188 332.9008483886719 117.75032806396484 C 331.7269287109375 118.5246353149414 330.4368591308594 119.33914184570312 329.14617919921875 120.00978088378906 C 327.9210205078125 120.56121826171875 326.7059631347656 121.04480743408203 325.5235290527344 121.28424072265625 C 324.3857421875 121.43937683105469 323.30902099609375 121.45044708251953 322.25384521484375 121.32086181640625 C 321.2538757324219 121.119384765625 320.3165283203125 120.75840759277344 318.6998596191406 120.72068786621094 C 317.71112060546875 120.8443374633789 317.252197265625 119.89403533935547 313.6777038574219 123.9233169555664 C 315.2649230957031 121.56539154052734 315.0169372558594 118.2652587890625 314.26409912109375 117.44194793701172 C 313.4613037109375 117.00286865234375 312.5638122558594 116.74563598632812 311.7082214355469 116.65106964111328 C 310.85113525390625 116.44243621826172 309.88201904296875 116.31768798828125 309.0614318847656 116.2139892578125 C 308.18341064453125 116.10658264160156 307.29443359375 115.9369125366211 306.5918884277344 115.71150207519531 C 305.92938232421875 115.3955078125 305.39959716796875 114.92054748535156 304.8370666503906 114.20256805419922 C 304.3442077636719 113.45987701416016 303.89080810546875 112.49354553222656 303.3526916503906 111.31713104248047 C 302.8645324707031 109.83717346191406 302.2784423828125 108.55443572998047 301.83343505859375 107.3373031616211 C 301.4193420410156 105.96626281738281 301.00408935546875 104.59805297851562 300.71099853515625 103.2807846069336 C 300.3954162597656 102.1597671508789 300.04541015625 100.9708251953125 299.7138366699219 99.80110168457031 C 298.9820861816406 98.58485412597656 299.42657470703125 96.39083099365234 296.05328369140625 96.8617172241211 C 298.5441589355469 97.99886322021484 301.78875732421875 94.73783874511719 301.322021484375 91.22111511230469 C 297.7496643066406 82.80512237548828 299.61358642578125 86.10961151123047 299.0986633300781 87.27017974853516 C 302.6006774902344 89.97115325927734 300.2550964355469 93.96305847167969 300.3577880859375 89.500732421875 C 300.8321838378906 86.24325561523438 294.9339599609375 87.65850067138672 294.9948425292969 85.26554107666016 C 296.45074462890625 85.58411407470703 294.79278564453125 84.81504821777344 289.67889404296875 85.11294555664062 C 294.0564880371094 82.52655792236328 294.7276306152344 81.82091522216797 294.4994201660156 86.17433166503906 C 297.6781005859375 83.71359252929688 298.9660339355469 81.26203155517578 296.64984130859375 83.31446838378906 C 298.9129943847656 80.61753845214844 298.3645935058594 78.73977661132812 292.25115966796875 78.79713439941406 C 295.6728515625 81.79664611816406 301.9896545410156 79.54650115966797 306.15484619140625 80.42256927490234 C 300.4086608886719 82.8349609375 304.9724426269531 81.673828125 308.22198486328125 82.79118347167969 C 307.5560302734375 83.85497283935547 317.3719177246094 81.94384765625 314.9412536621094 82.37859344482422" stroke-width="0.0" fill="rgb(61, 251, 8)" opacity="0.9992309" stroke="rgb(17, 180, 29)" stroke-opacity="0.4857266" stroke-linecap="round" stroke-linejoin="round"/>
    <path d="M 299.48956298828125 97.00542449951172 C 299.89947509765625 99.08165740966797 301.7807922363281 98.46119689941406 304.1038818359375 97.18058776855469 C 305.95587158203125 99.02347564697266 305.5975341796875 100.04515838623047 305.5419616699219 101.93364715576172 C 305.9450378417969 103.33191680908203 304.3978271484375 104.87480163574219 305.81207275390625 107.47652435302734 C 305.18170166015625 106.76171112060547 306.04345703125 108.08395385742188 307.5989685058594 107.4229965209961 C 307.2082214355469 110.14661407470703 307.9601135253906 111.08160400390625 308.0878601074219 112.4122543334961 C 309.6475524902344 112.2853775024414 311.0888977050781 112.99736785888672 311.82159423828125 113.61746978759766 C 314.11346435546875 113.16587829589844 314.2237548828125 114.26660919189453 315.6183166503906 114.43851470947266 C 315.0101013183594 116.2011489868164 316.0845031738281 117.17107391357422 317.70172119140625 115.96587371826172 C 316.4513854980469 117.91402435302734 318.34735107421875 117.68913269042969 317.50714111328125 118.54644012451172 C 319.3128356933594 118.63780212402344 319.4125671386719 118.53778076171875 320.4222412109375 118.67464447021484 C 321.321044921875 118.4694595336914 321.8779296875 117.4771728515625 323.9158935546875 120.88150024414062 C 324.078125 119.31599426269531 325.0330505371094 117.60704803466797 325.4737854003906 117.48394775390625 C 326.0723571777344 117.00835418701172 327.24462890625 116.60783386230469 328.4465637207031 116.52957153320312 C 329.46337890625 116.565673828125 330.1799011230469 116.6082534790039 331.00201416015625 115.36427307128906 C 332.092529296875 115.96025848388672 332.4127502441406 114.98319244384766 332.54400634765625 112.56770324707031 C 334.0489807128906 112.5380630493164 334.6676940917969 111.53877258300781 334.3556823730469 110.19197845458984 C 337.12957763671875 109.22167205810547 337.8706359863281 107.04075622558594 339.28857421875 108.97443389892578 C 339.13055419921875 106.47583770751953 340.7726745605469 108.15824127197266 341.52667236328125 106.01016998291016 C 342.3554382324219 106.46344757080078 343.0029296875 107.59734344482422 342.0493469238281 109.39720153808594 C 341.8815612792969 111.51219177246094 342.10736083984375 115.2341537475586 343.5763854980469 121.40625762939453 C 342.8684997558594 120.45380401611328 344.9281311035156 120.48859405517578 343.3619079589844 119.71783447265625 C 346.5581970214844 122.29057312011719 343.6685791015625 117.90444946289062 342.3041687011719 119.83899688720703 C 341.015869140625 124.38043975830078 336.3947448730469 126.21906280517578 338.66949462890625 123.347412109375 C 339.5801086425781 123.28932189941406 337.05316162109375 125.90766906738281 335.05914306640625 125.54736328125 C 333.87786865234375 126.11842346191406 332.85009765625 125.45845031738281 332.09210205078125 125.95648956298828 C 330.8662109375 124.87059020996094 330.30377197265625 125.5052490234375 329.7895812988281 125.89012908935547 C 328.2659912109375 125.19751739501953 327.44720458984375 124.95929718017578 329.99945068359375 127.95844268798828 C 328.7933654785156 130.4559326171875 327.7822570800781 129.7888641357422 326.1934509277344 132.24114990234375 C 323.66741943359375 128.88978576660156 324.53802490234375 131.90322875976562 327.0033264160156 135.8134002685547 C 323.5647277832031 134.19122314453125 320.8284606933594 135.36862182617188 317.87078857421875 132.882080078125 C 316.4823303222656 134.07882690429688 315.6305236816406 135.30601501464844 313.16253662109375 134.6551971435547 C 307.57830810546875 134.9112548828125 310.6719970703125 134.05018615722656 310.0611572265625 131.62510681152344 C 308.85009765625 132.02462768554688 306.6297302246094 133.00439453125 303.50299072265625 136.30477905273438 C 306.1910400390625 131.22369384765625 304.95123291015625 132.0376434326172 302.3034973144531 134.8748779296875 C 302.3622131347656 130.5011444091797 299.6817932128906 132.77569580078125 297.1893615722656 134.77061462402344 C 300.0753479003906 127.25827026367188 298.9060974121094 127.17022705078125 297.88763427734375 127.38346862792969 C 297.0267639160156 127.1935043334961 296.3160705566406 127.09659576416016 295.7364196777344 127.16448974609375 C 294.9963073730469 127.29692077636719 294.30938720703125 127.11919403076172 294.6175842285156 127.02499389648438 C 296.0762939453125 128.07794189453125 295.53802490234375 127.77351379394531 294.5210266113281 128.3888702392578 C 294.87274169921875 127.39666748046875 294.75482177734375 129.14849853515625 297.2681579589844 132.4678192138672 C 296.9549865722656 135.16265869140625 295.8783874511719 136.75779724121094 298.93798828125 138.66064453125 C 294.66015625 139.34373474121094 291.4672546386719 137.2008514404297 290.8775634765625 136.1820831298828 C 288.6319274902344 134.39016723632812 285.41278076171875 130.04421997070312 284.70916748046875 130.4769287109375 C 282.04693603515625 126.48827362060547 277.685791015625 123.2025146484375 277.85540771484375 119.1700668334961 C 280.4919738769531 122.43285369873047 277.24420166015625 118.67767333984375 278.6711730957031 122.16630554199219 C 277.11907958984375 121.44613647460938 278.4095153808594 114.97314453125 277.49688720703125 111.81883239746094 C 274.9740905761719 105.93931579589844 277.9100646972656 101.36597442626953 274.7500305175781 105.518798828125 C 282.2658386230469 101.40767669677734 280.1282958984375 102.48663330078125 280.4499206542969 93.56124877929688 C 280.2178649902344 85.99494171142578 281.6618957519531 87.95048522949219 288.30279541015625 75.03117370605469 C 289.15374755859375 75.7362289428711 288.2966613769531 86.07051086425781 287.5787353515625 88.82440948486328 C 283.09771728515625 93.03731536865234 283.78887939453125 105.95462036132812 288.56695556640625 105.2599868774414 C 287.5619812011719 103.64155578613281 287.3929443359375 107.24568176269531 287.0658264160156 108.50533294677734 C 286.9639892578125 107.41487884521484 287.3843994140625 107.1417236328125 288.25054931640625 107.06867980957031 C 287.7184143066406 108.67889404296875 286.8713684082031 109.03082275390625 287.3722839355469 108.67782592773438 C 287.6004333496094 108.44369506835938 288.2893371582031 108.23564910888672 287.37225341796875 107.01312255859375 C 287.3167419433594 108.28803253173828 288.3528137207031 108.43338012695312 287.71759033203125 106.12599182128906 C 289.11614990234375 106.69731140136719 294.0974426269531 108.45674896240234 285.303466796875 101.08492279052734 C 286.19183349609375 101.10807800292969 289.61907958984375 103.5578384399414 287.333740234375 102.0197525024414 C 288.7461853027344 103.21871948242188 294.1608581542969 102.89640045166016 294.3946838378906 101.20974731445312 C 291.1727600097656 100.37179565429688 294.36187744140625 102.06549072265625 299.48956298828125 97.00542449951172" stroke-width="0.0" fill="rgb(83, 230, 2)" opacity="0.99967545" stroke="rgb(110, 131, 146)" stroke-opacity="0.041371707" stroke-linecap="round" stroke-linejoin="round"/>
    <path d="M 4.789258003234863 49.32414627075195 C 14.964807510375977 53.072628021240234 18.177202224731445 50.69350814819336 18.653972625732422 50.98371124267578 C 18.18804359436035 54.77616882324219 20.495296478271484 53.746036529541016 22.688268661499023 52.63143539428711 C 22.294124603271484 56.72246551513672 21.67966079711914 59.099708557128906 24.21179962158203 58.916664123535156 C 27.468387603759766 59.187931060791016 28.029582977294922 59.65233612060547 27.81357192993164 61.23477554321289 C 24.481773376464844 64.52386474609375 24.910114288330078 65.63903045654297 26.744478225708008 66.21240997314453 C 28.191638946533203 68.92787170410156 29.37729263305664 75.96497344970703 28.2191104888916 65.55437469482422 C 27.55559539794922 55.73786163330078 27.314590454101562 65.26902770996094 27.782838821411133 87.64370727539062 C 33.0665397644043 78.21002960205078 28.21515464782715 75.32490539550781 33.80305862426758 79.99971771240234 C 32.037559509277344 82.04712677001953 28.874134063720703 81.9794692993164 34.05889892578125 81.18148803710938 C 25.547285079956055 82.23143005371094 24.604022979736328 84.13643646240234 26.083328247070312 88.45760345458984 C 25.067033767700195 88.65503692626953 24.74433708190918 89.77120208740234 23.877986907958984 89.86727142333984 C 22.473417282104492 89.42054748535156 21.07710075378418 88.84058380126953 21.13107681274414 90.28675079345703 C 20.79576301574707 98.63938903808594 16.253963470458984 101.79257202148438 19.5827693939209 94.02140045166016 C 21.649913787841797 98.84860229492188 14.85825252532959 101.17610931396484 14.362024307250977 100.01469421386719 C 17.22516441345215 96.85771942138672 3.765463352203369 97.63844299316406 8.186136245727539 94.96915435791016 C 8.77355670928955 92.23184204101562 7.749088287353516 89.5585708618164 8.602127075195312 89.73299407958984 C 4.916548252105713 90.01249694824219 5.3742218017578125 86.29708862304688 0.8655763864517212 90.52493286132812 C 7.2716593742370605 89.86172485351562 10.112001419067383 93.40716552734375 8.094870567321777 88.14854431152344 C 3.2758846282958984 83.3592758178711 4.094935417175293 78.78409576416016 2.2379555702209473 80.40180969238281 C -0.6838826537132263 81.74949645996094 -1.3706673383712769 80.5981216430664 -1.9978691339492798 79.35592651367188 C -2.5520195960998535 78.0200424194336 -2.964099884033203 76.57134246826172 -3.309382915496826 75.08275604248047 C -3.5905871391296387 73.57794189453125 -3.815617322921753 72.04093170166016 -3.947888135910034 70.49169921875 C -4.079311847686768 69.00991821289062 -4.157148838043213 67.60447692871094 -4.161046504974365 66.30967712402344 C -4.174703121185303 65.08369445800781 -4.058565139770508 63.967193603515625 -3.75726580619812 63.05720138549805 C -3.3149054050445557 62.23121643066406 -2.7453980445861816 61.419715881347656 -1.9386792182922363 60.86940383911133 C -0.9999370574951172 60.302154541015625 0.12841270864009857 59.787296295166016 -2.058983325958252 56.869667053222656 C 0.8736084699630737 58.14480209350586 2.8606364727020264 56.98273468017578 2.9889960289001465 54.97607421875 C 4.183334827423096 53.233882904052734 2.8648314476013184 50.77246856689453 4.789258003234863 49.32414627075195" stroke-width="0.0" fill="rgb(21, 20, 18)" opacity="0.99947333" stroke="rgb(88, 224, 242)" stroke-opacity="0.066263445" stroke-linecap="round" stroke-linejoin="round"/>
    <path d="M -1.5167186260223389 156.6591033935547 C -0.6252866983413696 164.58987426757812 5.566518783569336 164.23190307617188 17.170738220214844 162.6558380126953 C 16.490575790405273 169.78485107421875 15.789477348327637 173.1483612060547 17.096240997314453 172.97975158691406 C 12.246516227722168 170.1133575439453 14.412829399108887 174.53427124023438 16.075862884521484 178.89239501953125 C 12.623435020446777 174.429931640625 12.510125160217285 173.13803100585938 14.822450637817383 172.51953125 C 16.650049209594727 174.93003845214844 16.46550941467285 168.7564239501953 16.575010299682617 164.486328125 C 12.009480476379395 162.90977478027344 15.765162467956543 163.71278381347656 22.1165828704834 163.6744842529297 C 28.02142906188965 161.0460662841797 32.195030212402344 155.8169403076172 42.84689712524414 161.54757690429688 C 31.402748107910156 170.47596740722656 27.567642211914062 177.501220703125 37.038108825683594 177.99667358398438 C 36.09827423095703 172.7724151611328 27.484525680541992 174.3075714111328 33.26655578613281 182.05653381347656 C 32.255001068115234 185.54730224609375 33.21643829345703 192.29708862304688 33.14079666137695 195.0320281982422 C 34.881378173828125 199.2797393798828 36.17579650878906 203.43096923828125 35.64036178588867 207.4233856201172 C 35.271728515625 210.5390625 36.95812225341797 212.61285400390625 34.85459518432617 212.4619903564453 C 16.17775535583496 208.62379455566406 25.881383895874023 207.34469604492188 19.37409019470215 215.3198699951172 C 23.0638484954834 206.12442016601562 21.847211837768555 202.5686798095703 20.499500274658203 203.00003051757812 C 28.066349029541016 207.7592315673828 29.91067886352539 205.85511779785156 22.742000579833984 206.5071563720703 C 16.874008178710938 205.4562225341797 21.609060287475586 206.73599243164062 27.854875564575195 204.50515747070312 C 23.34006118774414 204.13232421875 18.55234718322754 205.67745971679688 11.624892234802246 208.41058349609375 C 23.289247512817383 204.05856323242188 24.317325592041016 208.23023986816406 13.758146286010742 208.6429901123047 C 16.279312133789062 206.6856689453125 23.3597469329834 206.1344451904297 31.544681549072266 211.6775360107422 C 30.457321166992188 210.35501098632812 34.21952819824219 212.98851013183594 36.377471923828125 211.45823669433594 C 37.6124382019043 220.84344482421875 33.50803756713867 226.6884765625 36.247528076171875 241.8469696044922 C 33.363712310791016 244.37542724609375 36.6065673828125 250.79673767089844 29.173236846923828 263.7203369140625 C 5.9018096923828125 259.16448974609375 -1.833359718322754 254.7621307373047 -4.375404357910156 250.32537841796875 C -1.7077556848526 235.92819213867188 -3.8346757888793945 231.9764862060547 -5.586044788360596 228.57962036132812 C -6.170741558074951 225.27455139160156 -5.973302841186523 221.5280303955078 -5.517798900604248 218.08917236328125 C -5.0208258628845215 215.30648803710938 -4.556053161621094 213.12460327148438 -4.145429611206055 211.4002227783203 C -4.137906551361084 209.9129638671875 -4.330778121948242 208.6671142578125 -4.5055975914001465 207.66297912597656 C -4.581625938415527 206.8101043701172 -4.564062118530273 206.0222625732422 -4.498282432556152 205.2420196533203 C -4.440926551818848 204.3872528076172 -4.398455619812012 203.45274353027344 -4.351101398468018 202.40380859375 C -4.292252540588379 201.34506225585938 -4.251368999481201 200.45416259765625 -4.250094413757324 199.6021728515625 C -4.281769275665283 198.7894744873047 -4.3215436935424805 198.11209106445312 -4.3645124435424805 197.40963745117188 C -4.431119441986084 196.72865295410156 -4.503617286682129 196.06912231445312 -4.5516510009765625 195.41441345214844 C -4.552884578704834 194.81982421875 -4.504522323608398 194.05274963378906 -4.401627063751221 193.08937072753906 C -4.265664577484131 192.01513671875 -3.9880917072296143 190.56146240234375 -3.83140230178833 188.7742156982422 C -3.617385149002075 186.7052459716797 -3.6146225929260254 184.23699951171875 -3.311274528503418 181.7085723876953 C -3.283292293548584 179.06414794921875 -3.1399083137512207 176.33236694335938 -1.5167186260223389 156.6591033935547" stroke-width="0.0" fill="rgb(132, 222, 102)" opacity="0.99933434" stroke="rgb(132, 7, 126)" stroke-opacity="0.11276943" stroke-linecap="round" stroke-linejoin="round"/>
    <path d="M 90.2834701538086 178.03836059570312 C 90.36619567871094 179.73699951171875 90.48454284667969 181.0899658203125 90.53131866455078 182.08363342285156 C 90.64408874511719 183.61154174804688 91.0075454711914 185.10906982421875 92.13931274414062 187.27134704589844 C 93.55352783203125 190.74896240234375 94.46284484863281 194.93978881835938 94.61856079101562 199.92312622070312 C 94.4661636352539 205.20726013183594 94.42198944091797 209.564697265625 94.69261932373047 212.1503448486328 C 94.62342071533203 212.4039764404297 93.70467376708984 210.5029754638672 91.16122436523438 207.631103515625 C 87.04039001464844 205.02239990234375 82.33299255371094 202.78448486328125 78.123046875 199.67239379882812 C 75.2082290649414 196.2637176513672 73.32184600830078 192.32937622070312 71.79864501953125 188.46142578125 C 69.720703125 185.3214569091797 67.30311584472656 183.4355010986328 64.47274017333984 182.2933349609375 C 62.407840728759766 181.41824340820312 61.88471221923828 180.2196502685547 62.286354064941406 179.74916076660156 C 65.07225799560547 180.2442169189453 68.98275756835938 180.46807861328125 72.54899597167969 180.98193359375 C 75.73551177978516 181.5596466064453 79.05000305175781 180.94802856445312 81.68470001220703 180.2593994140625 C 83.31532287597656 179.68905639648438 84.6737289428711 178.9193115234375 86.20801544189453 178.71438598632812 C 87.40959930419922 178.33123779296875 88.05177307128906 177.9711456298828 88.5637435913086 178.0269317626953 C 88.8440933227539 178.14324951171875 89.12187957763672 178.15658569335938 90.2834701538086 178.03836059570312" stroke-width="0.0" fill="rgb(254, 254, 254)" opacity="0.9990863" stroke="rgb(171, 83, 52)" stroke-opacity="0.3119168" stroke-linecap="round" stroke-linejoin="round"/>
    <path d="M 48.46516418457031 236.6033172607422 C 51.801368713378906 238.4191436767578 54.388282775878906 240.69619750976562 56.59492492675781 242.9647674560547 C 58.80789566040039 244.504150390625 60.64132308959961 245.8946990966797 61.41172409057617 247.03079223632812 C 61.71506118774414 248.62014770507812 61.35004425048828 250.2917938232422 60.57871627807617 251.66514587402344 C 59.84724044799805 252.57000732421875 58.82185745239258 253.3088836669922 57.418609619140625 253.74615478515625 C 56.030635833740234 253.67103576660156 55.03340148925781 252.86654663085938 54.22720718383789 251.7517547607422 C 53.426795959472656 250.402587890625 52.63645935058594 249.0220489501953 51.99186706542969 247.82186889648438 C 51.20115280151367 246.84803771972656 50.3621826171875 246.14161682128906 49.49742126464844 245.606201171875 C 48.62652587890625 245.12571716308594 47.758140563964844 244.63076782226562 48.46516418457031 236.6033172607422" stroke-width="0.0" fill="rgb(19, 8, 18)" opacity="0.9997004" stroke="rgb(87, 145, 12)" stroke-opacity="0.72450984" stroke-linecap="round" stroke-linejoin="round"/>
    <path d="M 180.5441131591797 174.94346618652344 C 180.39425659179688 177.92449951171875 181.24154663085938 179.687744140625 182.78439331054688 181.49241638183594 C 184.60032653808594 184.23599243164062 186.26971435546875 187.42819213867188 186.91603088378906 190.73565673828125 C 186.5382843017578 193.739013671875 185.3820343017578 195.6461944580078 183.90870666503906 196.24085998535156 C 181.89410400390625 195.28688049316406 180.0880584716797 192.6358184814453 179.3504180908203 188.52325439453125 C 178.28640747070312 183.13284301757812 175.66090393066406 176.88027954101562 171.6194610595703 170.0251922607422 C 169.3724365234375 162.97483825683594 169.6109161376953 155.73236083984375 180.5441131591797 174.94346618652344" stroke-width="0.0" fill="rgb(174, 152, 192)" opacity="0.99932605" stroke="rgb(249, 211, 208)" stroke-opacity="0.02655101" stroke-linecap="round" stroke-linejoin="round"/>
    <path d="M 47.43404769897461 230.5790252685547 C 49.041419982910156 233.56927490234375 50.39551544189453 236.78213500976562 51.486671447753906 239.88967895507812 C 52.231201171875 242.61619567871094 52.699398040771484 245.608154296875 52.78192901611328 248.30978393554688 C 52.38214874267578 250.14686584472656 51.64883804321289 250.97166442871094 50.69499588012695 250.98048400878906 C 49.3258056640625 250.25473022460938 47.34808349609375 249.07040405273438 45.643836975097656 246.57565307617188 C 44.4052734375 243.6676025390625 43.585330963134766 241.47817993164062 42.80253982543945 239.3397674560547 C 43.03361511230469 237.4560546875 43.54288864135742 235.71556091308594 44.13845443725586 233.9672393798828 C 44.82344055175781 231.8396759033203 45.54589080810547 229.4613037109375 47.43404769897461 230.5790252685547" stroke-width="0.0" fill="rgb(21, 8, 19)" opacity="0.9993812" stroke="rgb(145, 199, 226)" stroke-opacity="0.812181" stroke-linecap="round" stroke-linejoin="round"/>
    <path d="M 64.0322265625 248.23460388183594 C 67.92520141601562 249.72470092773438 72.57257080078125 250.02642822265625 77.17725372314453 249.07171630859375 C 81.02106475830078 246.48728942871094 83.67851257324219 244.65147399902344 85.25839233398438 244.89065551757812 C 84.36920928955078 247.1446075439453 81.77722930908203 250.07086181640625 78.12788391113281 253.16519165039062 C 73.70765686035156 255.43505859375 69.10098266601562 256.780029296875 64.76458740234375 256.80438232421875 C 60.92206573486328 256.8313293457031 57.415409088134766 256.08294677734375 54.658790588378906 254.38519287109375 C 52.298160552978516 252.50184631347656 50.20396041870117 250.38644409179688 48.63028335571289 248.0648651123047 C 47.192867279052734 245.77630615234375 45.78135681152344 243.3699493408203 64.0322265625 248.23460388183594" stroke-width="0.0" fill="rgb(16, 7, 15)" opacity="0.99916303" stroke="rgb(230, 17, 129)" stroke-opacity="0.26828843" stroke-linecap="round" stroke-linejoin="round"/>
    <path d="M 56.67131805419922 181.14698791503906 C 53.13674545288086 180.2777557373047 50.00030517578125 180.06884765625 47.42770004272461 180.96371459960938 C 44.87071228027344 183.1821746826172 43.645503997802734 186.64048767089844 42.70437240600586 190.86216735839844 C 42.032432556152344 195.5339813232422 41.82163619995117 200.4295196533203 42.98323440551758 205.15283203125 C 43.82207107543945 209.04696655273438 44.00014877319336 211.71734619140625 43.431278228759766 212.8135223388672 C 41.50794982910156 211.9436798095703 39.57718276977539 209.5850372314453 38.35469436645508 206.09954833984375 C 37.531246185302734 202.25418090820312 36.392730712890625 198.13235473632812 35.2990837097168 194.34945678710938 C 35.201168060302734 191.02560424804688 35.58742904663086 188.02279663085938 35.518802642822266 185.09515380859375 C 36.194244384765625 182.4259796142578 37.086769104003906 179.87684631347656 37.27020263671875 178.02499389648438 C 37.65336227416992 176.20370483398438 38.44602584838867 173.9600830078125 56.67131805419922 181.14698791503906" stroke-width="0.0" fill="rgb(18, 10, 19)" opacity="0.9992153" stroke="rgb(126, 108, 161)" stroke-opacity="0.4078939" stroke-linecap="round" stroke-linejoin="round"/>
    <path d="M 194.4124298095703 195.99752807617188 C 197.2483673095703 197.4969482421875 199.58880615234375 199.61415100097656 201.833740234375 201.46871948242188 C 204.9482879638672 201.8257293701172 207.48472595214844 202.5907440185547 209.18081665039062 205.258056640625 C 209.56532287597656 208.4392852783203 209.65963745117188 211.8728485107422 209.687744140625 215.28717041015625 C 211.05455017089844 217.9477081298828 212.51490783691406 220.14657592773438 212.43496704101562 221.8087615966797 C 210.11297607421875 223.4881134033203 206.49058532714844 224.41067504882812 201.9837646484375 224.50250244140625 C 198.2267608642578 225.52447509765625 195.35142517089844 226.06690979003906 192.98960876464844 224.5445098876953 C 191.5504608154297 222.0318603515625 189.94461059570312 218.7799072265625 189.02601623535156 215.20803833007812 C 188.44708251953125 211.7843780517578 187.81068420410156 208.65087890625 186.52915954589844 205.59495544433594 C 184.34861755371094 203.00588989257812 182.02670288085938 199.64337158203125 180.99685668945312 194.70266723632812 C 181.67971801757812 188.7650909423828 183.17970275878906 182.39414978027344 194.4124298095703 195.99752807617188" stroke-width="0.0" fill="rgb(137, 146, 160)" opacity="0.99929816" stroke="rgb(243, 22, 49)" stroke-opacity="0.20474425" stroke-linecap="round" stroke-linejoin="round"/>
    <path d="M 39.682472229003906 201.31297302246094 C 42.7590446472168 207.9639129638672 44.45549011230469 214.7051544189453 45.03199768066406 221.21853637695312 C 46.06454086303711 226.97097778320312 46.659976959228516 231.84954833984375 46.9006233215332 235.53012084960938 C 46.60307312011719 237.92335510253906 45.716758728027344 239.31898498535156 44.38507080078125 239.7921905517578 C 43.059242248535156 239.4436492919922 41.948204040527344 238.28611755371094 40.900821685791016 236.4748077392578 C 39.92819595336914 234.34312438964844 38.75251770019531 231.9034881591797 39.682472229003906 201.31297302246094" stroke-width="0.0" fill="rgb(20, 10, 18)" opacity="0.99917215" stroke="rgb(55, 247, 8)" stroke-opacity="0.80729634" stroke-linecap="round" stroke-linejoin="round"/>
  </g>
</svg>
