<?xml version="1.0" ?>
<svg xmlns="http://www.w3.org/2000/svg" version="1.1" width="353" height="294">
  <defs/>
  <g>
    <path d="M -29.566082000732422 -1.2396056652069092 C -18.668174743652344 -2.149249792098999 -7.027450084686279 -3.1113510131835938 6.336043834686279 -4.2400078773498535 C 22.396364212036133 -5.660642623901367 40.96984100341797 -7.387903213500977 61.03782653808594 -8.7933349609375 C 81.25363159179688 -8.89890193939209 99.17546081542969 -6.5922932624816895 111.85409545898438 -0.9387862682342529 C 116.29816436767578 8.182025909423828 111.17223358154297 17.3867244720459 96.28932189941406 23.432031631469727 C 74.75411224365234 27.39057731628418 51.60261917114258 29.047697067260742 33.586631774902344 31.050432205200195 C 28.080108642578125 41.25187301635742 33.43180465698242 49.41844940185547 44.24626541137695 49.28408432006836 C 54.646793365478516 39.34733200073242 69.20573425292969 36.18732833862305 89.01110076904297 38.083831787109375 C 107.51537322998047 31.319774627685547 124.52619934082031 27.56512451171875 138.7242431640625 28.699058532714844 C 144.50099182128906 23.336750030517578 143.15098571777344 12.590222358703613 141.6849365234375 1.172288179397583 C 150.9163360595703 -5.243564605712891 161.83670043945312 -2.703540086746216 169.07965087890625 9.072213172912598 C 173.9360809326172 19.814720153808594 178.60702514648438 16.638002395629883 185.3870391845703 1.5731446743011475 C 202.94447326660156 -9.258774757385254 225.72552490234375 -14.027743339538574 247.87838745117188 -12.09761905670166 C 264.6450500488281 -2.4499306678771973 275.0813903808594 14.251825332641602 284.083984375 32.999656677246094 C 292.6372375488281 48.086795806884766 294.3061218261719 60.13896179199219 286.67022705078125 66.59673309326172 C 273.37384033203125 65.95903015136719 261.2291564941406 70.82473754882812 252.284423828125 85.94624328613281 C 247.4866943359375 106.43087768554688 249.77992248535156 127.15125274658203 258.95758056640625 143.76837158203125 C 270.9000244140625 153.27366638183594 280.75494384765625 153.2999267578125 284.7893371582031 142.33621215820312 C 282.4673156738281 121.88380432128906 279.86383056640625 97.46086883544922 282.4341125488281 74.27098083496094 C 291.44354248046875 56.625755310058594 303.6913146972656 47.92140197753906 314.85760498046875 46.58279800415039 C 319.269287109375 49.388797760009766 313.75396728515625 52.20170593261719 301.8261413574219 53.08155059814453 C 290.5930480957031 49.00496292114258 283.293212890625 36.560665130615234 280.6320495605469 18.760326385498047 C 282.32598876953125 0.679304838180542 293.0858459472656 -11.744579315185547 311.4228210449219 -16.57244873046875 C 331.9346618652344 -14.191411972045898 349.2309875488281 -5.431206226348877 359.8741149902344 8.431435585021973 C 362.33026123046875 26.18126678466797 360.57598876953125 46.103675842285156 358.4956359863281 67.00958251953125 C 357.7024230957031 88.05856323242188 357.7557373046875 108.15770721435547 358.0645751953125 127.19942474365234 C 358.09332275390625 145.694580078125 357.9002685546875 164.13153076171875 357.7106018066406 182.9106903076172 C 357.7198486328125 202.1240692138672 358.24462890625 221.4738006591797 359.2265625 240.5198516845703 C 360.12835693359375 258.7316589355469 359.71197509765625 275.2664489746094 356.7554016113281 288.8387756347656 C 349.6582946777344 298.4639892578125 337.8245849609375 304.08740234375 320.8929138183594 306.2972717285156 C 300.2809753417969 305.9282531738281 276.9399108886719 303.92889404296875 251.3601531982422 301.3390808105469 C 224.52084350585938 299.21881103515625 197.78773498535156 298.50146484375 172.43084716796875 299.4620361328125 C 149.9081573486328 301.1508483886719 133.05117797851562 300.710205078125 123.71564483642578 295.2958068847656 C 122.91126251220703 284.2457580566406 125.05792999267578 271.8511962890625 122.4702377319336 262.6875 C 112.7643051147461 260.89727783203125 102.07097625732422 267.3342590332031 95.56707000732422 277.4638671875 C 99.90333557128906 283.61944580078125 110.60088348388672 286.329345703125 119.73728942871094 290.444091796875 C 117.97212219238281 294.9369812011719 105.20072174072266 298.5385437011719 83.33370208740234 301.1278991699219 C 56.82381820678711 302.0604553222656 30.166301727294922 301.02850341796875 7.9459686279296875 297.5429992675781 C -5.577934265136719 290.3599853515625 -10.892698287963867 280.065185546875 -11.174699783325195 269.24896240234375 C -9.47462272644043 260.1434020996094 -7.6493000984191895 251.6334991455078 -4.618312358856201 242.97532653808594 C 2.394906759262085 234.3328857421875 14.089143753051758 227.93316650390625 27.137929916381836 226.93186950683594 C 37.77234649658203 234.2935028076172 45.598575592041016 244.5734405517578 50.371917724609375 249.80677795410156 C 49.086143493652344 247.44100952148438 39.590003967285156 239.2161407470703 27.9010066986084 226.2670440673828 C 24.11343002319336 208.26791381835938 28.11197853088379 190.24868774414062 37.972476959228516 175.4990692138672 C 49.56535720825195 166.979248046875 55.773109436035156 162.51876831054688 53.21476364135742 163.05862426757812 C 42.015480041503906 168.45884704589844 25.6297550201416 171.27090454101562 8.340380668640137 166.99038696289062 C -3.53299617767334 156.4162139892578 -5.721948146820068 143.676025390625 2.368539571762085 133.51976013183594 C 19.237350463867188 129.54019165039062 37.474796295166016 124.40967559814453 53.18083190917969 116.17479705810547 C 65.10074615478516 112.57647705078125 73.47566223144531 114.32170104980469 79.38855743408203 117.46906280517578 C 83.59789276123047 120.0403823852539 87.49522399902344 119.59486389160156 92.85818481445312 116.77643585205078 C 101.41111755371094 113.00960540771484 112.4019775390625 111.06820678710938 125.12939453125 113.55780792236328 C 138.99424743652344 123.20474243164062 152.85333251953125 138.09803771972656 164.74114990234375 155.3653106689453 C 172.2637939453125 170.380615234375 179.83355712890625 176.00302124023438 188.6837615966797 170.77593994140625 C 195.19287109375 157.1919403076172 196.4256591796875 139.32284545898438 190.32632446289062 120.56217956542969 C 176.6392822265625 104.39955139160156 158.81752014160156 94.46221923828125 141.54666137695312 93.17798614501953 C 128.88629150390625 102.51571655273438 114.98831939697266 112.76126098632812 98.4808120727539 119.2676010131836 C 80.96639251708984 120.27166748046875 65.50917053222656 114.66548156738281 53.76878356933594 103.76947021484375 C 43.958492279052734 95.7527084350586 34.38481521606445 97.94329833984375 25.38396644592285 109.60205841064453 C 16.982046127319336 123.78750610351562 8.730262756347656 133.77639770507812 0.29679733514785767 133.69439697265625 C -4.991362571716309 120.57909393310547 -9.394003868103027 98.6224136352539 -13.414121627807617 71.32447052001953 C -16.67789077758789 41.494754791259766 -19.445751190185547 11.14704704284668 -29.566082000732422 -1.2396056652069092" stroke-width="0.0" fill="rgb(124, 182, 101)" opacity="0.9999889" stroke="rgb(191, 90, 201)" stroke-opacity="0.24031615" stroke-linecap="round" stroke-linejoin="round"/>
    <path d="M 183.9731903076172 42.26137161254883 C 183.63124084472656 43.202964782714844 183.21644592285156 44.35726547241211 182.82582092285156 45.51704406738281 C 182.20262145996094 46.15743637084961 181.80226135253906 46.4405403137207 181.90904235839844 46.81442642211914 C 182.53875732421875 47.33475875854492 184.13624572753906 48.17292404174805 186.69935607910156 48.86519241333008 C 190.278076171875 49.35045623779297 195.0862274169922 49.769466400146484 201.2595977783203 50.760154724121094 C 208.20401000976562 53.88798904418945 215.5301971435547 58.71354675292969 222.8731689453125 63.83930587768555 C 230.06809997558594 68.58290100097656 236.57977294921875 72.95664978027344 241.79339599609375 76.80650329589844 C 245.35467529296875 79.6695785522461 247.3369140625 81.1946792602539 248.43960571289062 81.281982421875 C 249.40423583984375 80.20481872558594 250.90414428710938 78.46536254882812 253.49220275878906 76.50342559814453 C 257.367431640625 74.82559967041016 260.79791259765625 74.5657730102539 260.5299987792969 77.37311553955078 C 254.38160705566406 84.74195861816406 250.18885803222656 94.98838806152344 251.46949768066406 107.98319244384766 C 248.71690368652344 120.9111099243164 252.2870635986328 130.42953491210938 263.74639892578125 137.90267944335938 C 275.52783203125 147.89651489257812 283.84979248046875 152.9864959716797 286.576904296875 147.23257446289062 C 281.55987548828125 134.56634521484375 273.7033996582031 119.92372131347656 272.96405029296875 103.7352523803711 C 275.1047668457031 90.58586883544922 278.5594482421875 80.47396087646484 281.6295471191406 75.63103485107422 C 282.00555419921875 77.32010650634766 281.5423889160156 82.27265167236328 282.06134033203125 87.00672912597656 C 284.114013671875 88.8837890625 288.7379150390625 88.17948150634766 296.475341796875 87.14236450195312 C 307.1841735839844 88.81129455566406 319.00811767578125 92.27473449707031 330.95843505859375 97.62055969238281 C 341.3078918457031 104.29135131835938 347.84814453125 111.0564193725586 348.2607727050781 116.61847686767578 C 342.9371032714844 120.22289276123047 338.4653625488281 123.42713165283203 340.74407958984375 126.90251159667969 C 350.0562744140625 130.806640625 355.1506042480469 138.95974731445312 353.510986328125 149.10768127441406 C 349.47119140625 154.10342407226562 346.2644348144531 149.86410522460938 341.7123107910156 141.6986846923828 C 333.9250183105469 140.510986328125 331.0830993652344 147.511962890625 331.6951599121094 155.56556701660156 C 328.4385070800781 155.0542755126953 322.1552734375 150.21511840820312 313.9891357421875 146.7147979736328 C 306.1482238769531 146.894287109375 301.02838134765625 150.2730255126953 300.17803955078125 155.32968139648438 C 304.9678039550781 157.66891479492188 313.48480224609375 157.7012939453125 322.855712890625 160.56591796875 C 330.2924499511719 169.7404327392578 340.3603210449219 176.68960571289062 349.0931396484375 183.5519561767578 C 350.7243347167969 192.61978149414062 346.5425109863281 202.43524169921875 346.29425048828125 210.1307373046875 C 352.6866149902344 212.44578552246094 356.68133544921875 218.99806213378906 358.1901550292969 230.5492706298828 C 358.8119201660156 244.7288818359375 359.4543762207031 259.704833984375 359.3238830566406 273.9798278808594 C 357.4581298828125 285.6014404296875 353.09124755859375 292.2843933105469 346.21746826171875 291.1175231933594 C 337.3694763183594 282.83782958984375 327.277099609375 278.4123229980469 318.6690368652344 280.0912170410156 C 315.34295654296875 285.18212890625 318.7820739746094 288.39678955078125 326.6539001464844 288.0950927734375 C 334.1128845214844 288.5973815917969 336.3880920410156 291.5071716308594 331.72479248046875 295.8960266113281 C 321.5206604003906 298.9356384277344 307.4678649902344 299.9537658691406 291.80889892578125 299.9205017089844 C 276.0750732421875 299.5927429199219 261.376953125 297.86077880859375 249.04415893554688 293.4557189941406 C 241.3543701171875 285.166259765625 234.35304260253906 277.5314025878906 224.61985778808594 274.52581787109375 C 211.63893127441406 273.4163513183594 200.40736389160156 271.965576171875 192.06385803222656 276.2395324707031 C 184.64254760742188 284.5959777832031 176.16969299316406 291.4755859375 165.96798706054688 294.5403137207031 C 156.0446014404297 294.0863037109375 149.64566040039062 291.1915588378906 147.55003356933594 284.6280517578125 C 150.5760040283203 274.5326843261719 154.55410766601562 264.5162658691406 157.69525146484375 258.5667419433594 C 152.11524963378906 257.5971374511719 141.89707946777344 259.3661804199219 129.70947265625 260.3446350097656 C 118.51171875 257.8561096191406 111.27088928222656 251.96334838867188 107.85405731201172 243.30934143066406 C 108.28936004638672 234.13302612304688 108.45818328857422 225.8050994873047 105.2000961303711 219.60272216796875 C 102.15294647216797 213.61578369140625 98.58981323242188 208.49270629882812 95.04669952392578 203.21310424804688 C 93.04744720458984 197.60069274902344 92.38245391845703 191.58053588867188 93.1357421875 185.4429168701172 C 93.82559967041016 178.66981506347656 92.13066101074219 171.12344360351562 88.99698638916016 162.63124084472656 C 86.58455657958984 153.4777069091797 86.68002319335938 144.26759338378906 86.79302215576172 135.93675231933594 C 86.83362579345703 129.5191192626953 87.27899932861328 125.62907409667969 87.2750244140625 124.48432159423828 C 86.28845977783203 125.75164031982422 85.26869201660156 127.68272399902344 84.54104614257812 128.7204132080078 C 84.98811340332031 128.29701232910156 86.80244445800781 125.62745666503906 88.8282699584961 119.91200256347656 C 91.72526550292969 111.93347930908203 96.33715057373047 104.28033447265625 105.51560974121094 101.17855072021484 C 119.15678405761719 103.52718353271484 129.3004608154297 105.95503997802734 131.00588989257812 116.21328735351562 C 139.46046447753906 126.58402252197266 151.92376708984375 138.99783325195312 162.77029418945312 155.35585021972656 C 170.52389526367188 171.23248291015625 176.85533142089844 176.3125 177.68711853027344 167.11672973632812 C 173.3365936279297 154.47952270507812 174.56692504882812 142.38119506835938 182.8471221923828 132.89129638671875 C 193.9857177734375 129.56556701660156 192.9889678955078 126.06658935546875 180.95204162597656 120.83580017089844 C 170.15972900390625 113.34814453125 158.8162384033203 106.58342742919922 149.1124725341797 97.46732330322266 C 140.11212158203125 89.87336730957031 137.2670440673828 82.98837280273438 143.49766540527344 75.77539825439453 C 152.06771850585938 65.42565155029297 161.14364624023438 57.9041862487793 171.6190948486328 56.0744743347168 C 181.1678924560547 53.84128189086914 189.8318328857422 49.29415512084961 183.9731903076172 42.26137161254883" stroke-width="0.0" fill="rgb(42, 53, 31)" opacity="0.99999624" stroke="rgb(235, 160, 37)" stroke-opacity="0.21840616" stroke-linecap="round" stroke-linejoin="round"/>
    <path d="M 189.27320861816406 52.9801025390625 C 192.33657836914062 52.85871124267578 195.23414611816406 52.790931701660156 198.31729125976562 52.27470779418945 C 200.02490234375 51.64053726196289 201.12875366210938 51.79648208618164 201.69630432128906 51.55772018432617 C 201.30224609375 51.329002380371094 200.25128173828125 51.49842834472656 199.36573791503906 51.858516693115234 C 197.88868713378906 52.776004791259766 196.15611267089844 52.95857620239258 195.6219482421875 52.5705680847168 C 196.99853515625 52.64016342163086 199.47531127929688 53.16778564453125 202.09963989257812 53.613250732421875 C 204.36038208007812 52.76307678222656 206.2574005126953 53.00596237182617 208.17848205566406 53.786346435546875 C 209.69952392578125 54.640235900878906 211.0027618408203 55.66966247558594 212.5652313232422 57.06640625 C 213.8731231689453 57.9845085144043 215.037109375 58.58772277832031 215.81735229492188 58.82530975341797 C 216.12319946289062 58.812583923339844 216.6083526611328 58.91521453857422 217.4233856201172 59.085853576660156 C 218.24002075195312 59.28102493286133 219.18699645996094 59.39533615112305 220.0911102294922 59.41136932373047 C 221.1461181640625 59.48237609863281 222.48826599121094 59.53771209716797 223.89459228515625 59.467952728271484 C 225.13047790527344 59.27543640136719 226.39321899414062 59.17226028442383 227.75555419921875 59.3386344909668 C 229.02325439453125 59.729190826416016 230.24099731445312 60.059608459472656 231.3977813720703 60.17823028564453 C 232.68482971191406 60.04836654663086 233.94496154785156 59.75920867919922 234.49948120117188 59.48814392089844 C 234.4685516357422 59.63213348388672 234.85060119628906 59.99872589111328 235.34536743164062 60.26979064941406 C 236.3676300048828 60.20861053466797 238.21826171875 60.11304473876953 240.8601531982422 60.18265914916992 C 244.41183471679688 61.01897048950195 248.3155059814453 62.27047348022461 252.3090362548828 63.24119186401367 C 256.3250732421875 63.88619613647461 258.9642639160156 64.81246948242188 259.73638916015625 66.89619445800781 C 258.6774597167969 69.81359100341797 256.8456726074219 73.67005920410156 255.00582885742188 78.39830017089844 C 252.06350708007812 82.9576416015625 249.28065490722656 88.30717468261719 246.6831512451172 93.06597137451172 C 246.24832153320312 97.990478515625 246.4154510498047 102.85028839111328 246.51593017578125 107.0313720703125 C 245.8725128173828 109.85063171386719 243.53660583496094 111.31426239013672 241.93630981445312 111.90097045898438 C 243.16366577148438 114.01738739013672 242.5191192626953 116.32698822021484 239.66500854492188 118.99776458740234 C 240.39317321777344 122.01486206054688 242.00047302246094 125.84048461914062 244.42494201660156 129.2230987548828 C 246.70309448242188 132.72964477539062 248.13613891601562 136.52578735351562 250.6262664794922 139.62330627441406 C 254.83786010742188 140.6196746826172 257.30731201171875 144.4075164794922 259.6120910644531 149.20068359375 C 259.7390441894531 153.693603515625 259.7633361816406 156.2149200439453 259.1537780761719 155.64308166503906 C 256.80621337890625 154.33897399902344 254.645263671875 150.93756103515625 252.6439971923828 146.44105529785156 C 247.86094665527344 143.68936157226562 243.68186950683594 142.89674377441406 240.88140869140625 143.82444763183594 C 240.4564208984375 146.16384887695312 241.9825439453125 148.4298553466797 244.601806640625 150.70193481445312 C 246.63955688476562 151.98289489746094 247.55288696289062 153.05198669433594 247.0650177001953 155.9440460205078 C 244.58847045898438 160.48158264160156 241.96148681640625 165.63128662109375 241.09535217285156 169.0516357421875 C 242.98451232910156 170.67369079589844 245.00987243652344 171.81277465820312 246.48989868164062 174.25791931152344 C 248.5437774658203 177.91383361816406 249.53610229492188 181.7019805908203 248.19261169433594 185.96896362304688 C 244.857421875 189.76416015625 241.1894073486328 193.3607940673828 236.65931701660156 195.89187622070312 C 231.58644104003906 197.219970703125 226.81985473632812 197.95558166503906 222.35797119140625 198.00978088378906 C 218.44044494628906 197.04208374023438 214.88482666015625 195.64503479003906 211.8783721923828 194.14285278320312 C 209.53732299804688 191.8535919189453 206.67373657226562 189.6714630126953 203.16891479492188 188.10775756835938 C 200.23345947265625 185.91639709472656 198.0630645751953 183.28233337402344 196.9328155517578 180.1582489013672 C 194.7421417236328 177.75137329101562 192.92906188964844 174.911865234375 191.42984008789062 171.50111389160156 C 191.15963745117188 166.9341278076172 190.17745971679688 161.5046844482422 188.69664001464844 156.9395294189453 C 189.659423828125 153.43435668945312 191.6846466064453 149.62156677246094 192.62820434570312 145.3235321044922 C 194.8992919921875 141.77838134765625 198.1884307861328 139.1501007080078 202.14906311035156 137.6236114501953 C 206.21253967285156 137.54611206054688 210.53147888183594 137.78656005859375 214.51922607421875 138.59249877929688 C 218.7741241455078 139.94871520996094 223.0807342529297 140.97390747070312 226.83766174316406 141.843994140625 C 230.13592529296875 143.4068145751953 232.31980895996094 144.04315185546875 232.47677612304688 143.1160888671875 C 230.65133666992188 140.9769287109375 227.2105712890625 139.44671630859375 222.72225952148438 137.81443786621094 C 217.75247192382812 135.80343627929688 212.90492248535156 133.39370727539062 208.77003479003906 130.79490661621094 C 204.5934600830078 127.8781509399414 201.20755004882812 124.68826293945312 197.39459228515625 123.25727844238281 C 193.2752685546875 122.13201904296875 189.8594207763672 120.54100799560547 186.9385986328125 118.47258758544922 C 182.66473388671875 116.4304428100586 178.532470703125 114.03025817871094 175.50601196289062 110.33049774169922 C 173.17369079589844 106.85899353027344 168.88424682617188 105.6299819946289 165.0984649658203 103.3359146118164 C 163.3262481689453 100.02274322509766 161.2804718017578 97.2040023803711 159.59715270996094 94.39908599853516 C 159.54586791992188 90.98661804199219 157.36575317382812 89.44432830810547 154.4803924560547 89.64608001708984 C 152.4482421875 85.8607406616211 150.13888549804688 82.93585968017578 149.14431762695312 80.89545440673828 C 152.28465270996094 78.45074462890625 153.8470916748047 74.34847259521484 154.8360137939453 70.9913330078125 C 158.26377868652344 68.27676391601562 161.85162353515625 66.39027404785156 163.58811950683594 62.708255767822266 C 166.952880859375 61.16907501220703 170.7322998046875 60.867469787597656 173.71804809570312 59.215476989746094 C 175.13766479492188 56.69578170776367 176.887939453125 55.32674026489258 180.0469207763672 54.91804885864258 C 183.8773651123047 55.406490325927734 189.06399536132812 55.8077507019043 189.27320861816406 52.9801025390625" stroke-width="0.0" fill="rgb(85, 224, 4)" opacity="0.99998736" stroke="rgb(28, 76, 8)" stroke-opacity="0.16054724" stroke-linecap="round" stroke-linejoin="round"/>
    <path d="M 108.84187316894531 107.97291564941406 C 110.37525939941406 108.32655334472656 112.29700469970703 108.24845123291016 114.3721694946289 108.16532135009766 C 116.09797668457031 109.18479919433594 117.18241119384766 109.83975982666016 117.53421783447266 109.2114486694336 C 117.89131927490234 108.90450286865234 117.98312377929688 109.01852416992188 118.23748016357422 109.54593658447266 C 119.028076171875 110.78636169433594 120.25289916992188 112.03632354736328 121.33850860595703 113.32129669189453 C 122.87863159179688 114.16140747070312 124.052978515625 115.13461303710938 124.36802673339844 116.79076385498047 C 125.08014678955078 118.75428771972656 125.99166107177734 121.216796875 127.34229278564453 123.89674377441406 C 129.43060302734375 126.69618225097656 131.06143188476562 129.58462524414062 132.64532470703125 131.4999237060547 C 133.0237274169922 132.72024536132812 133.7586669921875 134.14671325683594 134.88412475585938 135.0508575439453 C 136.42356872558594 136.52676391601562 139.04495239257812 137.81768798828125 142.2838592529297 138.5208282470703 C 144.04708862304688 140.22288513183594 146.08489990234375 141.76382446289062 147.9642791748047 143.7300262451172 C 149.99508666992188 145.54197692871094 151.98631286621094 147.07406616210938 153.22364807128906 148.8937225341797 C 153.6693115234375 150.5748748779297 155.5948028564453 151.38912963867188 156.8465576171875 153.30255126953125 C 157.96292114257812 155.92599487304688 159.53395080566406 157.95175170898438 161.1158447265625 159.93601989746094 C 162.2965545654297 162.10723876953125 163.62557983398438 164.31338500976562 164.4973602294922 166.35691833496094 C 164.81626892089844 168.21214294433594 165.91432189941406 169.55596923828125 167.37445068359375 171.08197021484375 C 168.5391387939453 172.79010009765625 169.4689178466797 174.7504425048828 170.32630920410156 176.80361938476562 C 171.36703491210938 178.81333923339844 172.3950958251953 180.69094848632812 172.80393981933594 182.75465393066406 C 172.87367248535156 185.16555786132812 173.34925842285156 187.6503143310547 173.2545928955078 190.03952026367188 C 173.6713409423828 192.040771484375 174.87197875976562 193.5331573486328 176.14120483398438 194.726318359375 C 176.7337188720703 196.16439819335938 176.5204620361328 198.3710479736328 176.59408569335938 201.13192749023438 C 178.06204223632812 203.32130432128906 179.63449096679688 204.9652862548828 180.1182098388672 207.2583770751953 C 181.01882934570312 209.4293212890625 181.89572143554688 210.8019561767578 181.56446838378906 212.85101318359375 C 182.0594482421875 213.80052185058594 183.25344848632812 214.63174438476562 184.180419921875 216.79306030273438 C 185.53274536132812 218.69166564941406 186.11044311523438 221.30621337890625 185.79281616210938 224.18089294433594 C 184.3895721435547 226.91708374023438 183.065185546875 229.5463409423828 182.1453094482422 231.7315673828125 C 180.7379913330078 233.5486297607422 178.2151336669922 234.96786499023438 175.79736328125 235.73422241210938 C 173.7424774169922 237.26454162597656 171.67710876464844 238.12327575683594 169.5128631591797 238.83680725097656 C 167.6769256591797 239.81333923339844 166.02236938476562 241.27691650390625 164.45875549316406 242.41612243652344 C 162.8383331298828 243.0296173095703 160.31251525878906 243.85479736328125 157.62567138671875 244.77488708496094 C 155.07608032226562 245.15292358398438 152.81558227539062 245.20384216308594 150.80770874023438 245.3970947265625 C 148.9314422607422 245.0587158203125 146.96542358398438 244.97557067871094 144.9149169921875 244.8498077392578 C 143.22581481933594 245.31369018554688 141.5061492919922 246.16221618652344 139.2373046875 246.6190643310547 C 136.98489379882812 245.9007110595703 134.5774688720703 245.1858367919922 132.15350341796875 244.61415100097656 C 130.3762969970703 243.9854278564453 128.7620849609375 243.51162719726562 126.65489196777344 242.6189727783203 C 124.34060668945312 241.01171875 121.44415283203125 239.02037048339844 119.79874420166016 237.2146453857422 C 118.94103240966797 235.24061584472656 117.64222717285156 233.79885864257812 116.03553771972656 233.168212890625 C 115.35038757324219 231.8468017578125 115.4397201538086 230.13633728027344 116.11521911621094 227.70425415039062 C 116.49720001220703 224.7630615234375 117.29813385009766 222.6371307373047 117.58602142333984 221.4610137939453 C 116.32164001464844 220.93505859375 114.16326141357422 220.67724609375 111.87915802001953 220.3114776611328 C 110.61754608154297 218.82550048828125 109.90882110595703 216.42303466796875 108.39034271240234 214.603515625 C 106.49176788330078 212.76150512695312 105.19823455810547 209.68951416015625 104.37545776367188 207.2667694091797 C 103.17098999023438 205.1389617919922 102.75968933105469 202.7356414794922 101.88752746582031 200.1899871826172 C 100.87879180908203 198.17333984375 99.84211730957031 196.0846710205078 98.76522827148438 193.66453552246094 C 97.65412902832031 191.64727783203125 96.32733917236328 189.3577423095703 95.0805435180664 186.5892333984375 C 94.71989440917969 184.39796447753906 94.0161361694336 183.00975036621094 93.42261505126953 182.08700561523438 C 92.90560913085938 181.61181640625 92.37554931640625 180.92161560058594 92.3258285522461 180.7948760986328 C 92.34028625488281 180.3323974609375 92.7965316772461 179.33016967773438 93.26793670654297 178.1925048828125 C 94.25763702392578 176.86643981933594 95.05809020996094 175.68919372558594 95.5284194946289 173.89584350585938 C 95.91329193115234 171.66954040527344 95.84619140625 170.099365234375 93.75465393066406 168.98231506347656 C 92.10084533691406 166.78395080566406 91.23892211914062 163.83447265625 90.306884765625 161.03048706054688 C 90.72417449951172 158.2765655517578 90.79576110839844 156.52867126464844 90.38725280761719 156.13734436035156 C 89.56515502929688 155.4773712158203 89.00690460205078 154.9139862060547 89.02809143066406 154.16917419433594 C 89.8391342163086 152.97103881835938 90.40291595458984 150.4464874267578 90.11607360839844 147.4241180419922 C 90.18305969238281 144.59742736816406 90.72964477539062 141.82420349121094 90.6650619506836 139.02706909179688 C 91.18529510498047 136.4644775390625 91.68866729736328 134.4328155517578 91.65776824951172 132.67555236816406 C 92.20669555664062 130.82577514648438 92.6948013305664 129.01272583007812 93.61475372314453 128.09207153320312 C 94.08030700683594 126.07418823242188 95.0212173461914 124.27203369140625 95.32124328613281 122.65769958496094 C 96.1097412109375 121.1420669555664 97.89581298828125 120.03919982910156 98.6507568359375 118.33795166015625 C 99.57881164550781 116.56131744384766 101.55598449707031 115.00489807128906 103.29378509521484 112.57594299316406 C 105.1150131225586 109.31852722167969 108.13780212402344 106.71983337402344 108.84187316894531 107.97291564941406" stroke-width="0.0" fill="rgb(88, 189, 3)" opacity="0.99999446" stroke="rgb(17, 75, 249)" stroke-opacity="0.25267234" stroke-linecap="round" stroke-linejoin="round"/>
    <path d="M 308.3856506347656 78.57897186279297 C 308.2796325683594 79.70138549804688 309.02545166015625 80.94915771484375 308.985595703125 82.14977264404297 C 307.50030517578125 81.55121612548828 306.70697021484375 80.49461364746094 307.0159606933594 79.10826110839844 C 308.4881896972656 78.06348419189453 310.2317199707031 77.50875854492188 311.508544921875 77.5096664428711 C 312.5652160644531 78.13407897949219 313.865234375 79.12630462646484 315.3699951171875 80.14252471923828 C 316.8805847167969 81.12356567382812 318.2663269042969 81.9840087890625 319.4826965332031 82.77766418457031 C 320.6082763671875 83.47687530517578 321.68206787109375 84.18113708496094 322.6259460449219 84.85653686523438 C 323.5509338378906 85.42284393310547 324.50225830078125 85.83638763427734 325.4248962402344 86.1822738647461 C 326.2770690917969 86.6460189819336 327.0656433105469 87.27371215820312 327.7677917480469 87.99590301513672 C 328.34124755859375 88.71884155273438 328.8001403808594 89.47261047363281 329.1697082519531 90.28376770019531 C 329.4934387207031 91.1706314086914 329.7213134765625 92.12789916992188 329.7494812011719 93.0337905883789 C 329.71295166015625 93.73191833496094 329.90032958984375 94.18921661376953 330.2554626464844 94.46715545654297 C 330.7185974121094 94.51229095458984 331.2854309082031 94.36233520507812 331.89239501953125 94.10888671875 C 332.4322204589844 93.8550796508789 332.9417419433594 93.6695556640625 333.60601806640625 93.59646606445312 C 334.4730529785156 93.64581298828125 335.3743896484375 93.99050903320312 336.1742858886719 94.79989624023438 C 336.99212646484375 95.77174377441406 337.9077453613281 96.91818237304688 338.8046569824219 98.30480194091797 C 339.5144958496094 99.58892059326172 340.4991760253906 100.52261352539062 341.62091064453125 101.09468078613281 C 342.7082214355469 101.499755859375 343.8204345703125 101.57592010498047 344.19415283203125 102.03837585449219 C 343.8421630859375 102.86075592041016 343.12408447265625 103.93025970458984 342.61358642578125 105.29559326171875 C 342.17730712890625 106.58313751220703 341.5372009277344 108.02661895751953 340.7641296386719 109.36196899414062 C 340.08251953125 110.34211730957031 339.4984130859375 111.22785949707031 338.8775634765625 112.22728729248047 C 338.1150207519531 113.21392822265625 337.3046875 114.08474731445312 336.4111633300781 114.94000244140625 C 335.3657531738281 115.86385345458984 334.175537109375 116.81147003173828 332.9303894042969 117.7088394165039 C 331.6665344238281 118.54572296142578 330.37786865234375 119.34369659423828 329.1014099121094 120.03044128417969 C 327.8648681640625 120.60015106201172 326.6625671386719 121.03472900390625 325.49859619140625 121.32788848876953 C 324.3870544433594 121.4754638671875 323.32806396484375 121.48692321777344 322.301513671875 121.36551666259766 C 321.29071044921875 121.118408203125 320.2909851074219 120.77127838134766 319.3267517089844 120.33171844482422 C 318.4095458984375 119.83723449707031 317.5415954589844 119.31340789794922 316.7027282714844 118.77813720703125 C 315.9078369140625 118.24160766601562 315.13214111328125 117.74058532714844 314.3354187011719 117.30303955078125 C 313.5105895996094 116.9395523071289 312.66485595703125 116.67134857177734 311.7928771972656 116.47940063476562 C 310.88519287109375 116.34417724609375 309.9505310058594 116.26282501220703 309.03656005859375 116.18854522705078 C 308.1367492675781 116.08247375488281 307.29608154296875 115.94418334960938 306.5535583496094 115.72808837890625 C 305.9132995605469 115.39825439453125 305.3718566894531 114.9210205078125 304.87432861328125 114.24581909179688 C 304.40496826171875 113.41777038574219 303.9356689453125 112.44560241699219 303.45751953125 111.3254623413086 C 302.95166015625 110.02686309814453 302.41119384765625 108.62004089355469 301.8662109375 107.21461486816406 C 301.3625183105469 105.82843017578125 300.93975830078125 104.47611999511719 300.6201171875 103.19242858886719 C 300.4017333984375 102.01180267333984 300.1893310546875 100.90448760986328 300.02288818359375 99.8685302734375 C 299.9284362792969 98.87234497070312 299.9656677246094 97.88059997558594 300.2533874511719 96.88356018066406 C 300.6921081542969 95.8961410522461 301.26239013671875 94.90969848632812 301.88458251953125 93.92259216308594 C 302.36614990234375 92.92988586425781 302.71881103515625 91.92023468017578 302.84295654296875 90.91193389892578 C 302.64404296875 89.92277526855469 302.093017578125 88.9783935546875 301.12091064453125 88.07814025878906 C 299.8709411621094 87.28727722167969 298.4490051269531 86.52926635742188 297.1400146484375 85.7934341430664 C 296.0362854003906 85.10107421875 295.2255554199219 84.37714385986328 294.7470397949219 83.68917846679688 C 294.5827331542969 83.01962280273438 294.7079772949219 82.38646697998047 295.01800537109375 81.85420989990234 C 295.4150390625 81.4024658203125 295.9263916015625 81.02622985839844 296.60345458984375 80.72200775146484 C 297.4285888671875 80.56220245361328 298.3434143066406 80.50556182861328 299.29888916015625 80.51068878173828 C 300.2424011230469 80.55809020996094 301.1754455566406 80.57775115966797 302.0799865722656 80.64350128173828 C 302.9736328125 80.75936126708984 303.84832763671875 80.83280944824219 304.6790771484375 80.86243438720703 C 305.50244140625 80.90422821044922 306.3457336425781 80.9602279663086 308.3856506347656 78.57897186279297" stroke-width="0.0" fill="rgb(61, 251, 8)" opacity="0.9997059" stroke="rgb(17, 180, 29)" stroke-opacity="0.4857266" stroke-linecap="round" stroke-linejoin="round"/>
    <path d="M 297.99603271484375 98.57144927978516 C 299.8166809082031 99.0733642578125 301.5617980957031 99.58946990966797 303.07757568359375 100.12609100341797 C 304.3304748535156 100.72895812988281 305.1592102050781 101.4498291015625 305.53582763671875 102.34257507324219 C 305.5259094238281 103.3678970336914 305.4234313964844 104.40501403808594 305.4517517089844 105.41802215576172 C 305.7093811035156 106.36846160888672 306.3006286621094 107.3047103881836 307.0355529785156 108.25101470947266 C 307.8175964355469 109.22101593017578 308.6435546875 110.14424133300781 309.56793212890625 110.98006439208984 C 310.5605163574219 111.77243041992188 311.51239013671875 112.45243072509766 312.47418212890625 113.06488800048828 C 313.41937255859375 113.62979888916016 314.34405517578125 114.16284942626953 315.24456787109375 114.66775512695312 C 316.0644226074219 115.24807739257812 316.7613220214844 115.91744232177734 317.33734130859375 116.62409973144531 C 317.8232116699219 117.32317352294922 318.2535705566406 117.98011016845703 318.6793212890625 118.44530487060547 C 319.1858825683594 118.64857482910156 319.8169250488281 118.62100219726562 320.36895751953125 118.46131134033203 C 320.9375305175781 118.10689544677734 321.50616455078125 117.64191436767578 322.26885986328125 117.26610565185547 C 323.17401123046875 117.02334594726562 324.1230773925781 116.85848999023438 325.10711669921875 116.74180603027344 C 326.09014892578125 116.73202514648438 327.0741882324219 116.71843719482422 328.0736083984375 116.58214569091797 C 329.0709533691406 116.41719055175781 330.0011901855469 116.15785217285156 330.8465270996094 115.72618103027344 C 331.59356689453125 115.13880157470703 332.28717041015625 114.37669372558594 332.9534912109375 113.46006774902344 C 333.6610412597656 112.44692993164062 334.4693603515625 111.30973815917969 335.370361328125 110.01671600341797 C 336.4591064453125 108.74488067626953 337.62982177734375 107.60543823242188 338.8096923828125 106.6866683959961 C 339.8814392089844 106.09025573730469 340.7326965332031 105.86748504638672 341.27935791015625 106.05406188964844 C 341.5396423339844 106.67951965332031 341.5965576171875 107.6910400390625 341.57720947265625 109.07278442382812 C 341.5662536621094 110.65831756591797 341.6018371582031 112.4080581665039 341.7333679199219 114.13581848144531 C 341.96307373046875 115.78569030761719 342.18768310546875 117.2739028930664 342.38116455078125 118.49805450439453 C 342.406494140625 119.4484634399414 342.1910705566406 120.17911529541016 341.70465087890625 120.73106384277344 C 340.9193420410156 121.1653060913086 339.873291015625 121.57398223876953 338.61444091796875 121.9538345336914 C 337.27899169921875 122.33746337890625 335.94024658203125 122.75513458251953 334.68060302734375 123.20374298095703 C 333.5262145996094 123.64118957519531 332.5089111328125 124.0405044555664 331.6246032714844 124.38894653320312 C 330.8327941894531 124.6829833984375 330.0859680175781 124.9342041015625 329.35626220703125 125.15802001953125 C 328.64105224609375 125.42677307128906 327.921630859375 125.7437973022461 327.17047119140625 126.1108169555664 C 326.3779296875 126.59224700927734 325.50469970703125 127.1629638671875 324.5302429199219 127.81468200683594 C 323.4796447753906 128.4990234375 322.3633117675781 129.1743621826172 321.1733703613281 129.82861328125 C 319.9214782714844 130.4106903076172 318.6180114746094 130.8804473876953 317.2978820800781 131.24830627441406 C 315.9692687988281 131.50326538085938 314.6656494140625 131.63572692871094 313.4071960449219 131.6862030029297 C 312.217041015625 131.65103149414062 311.0950622558594 131.56500244140625 310.04486083984375 131.42469787597656 C 309.0821838378906 131.22470092773438 308.1695861816406 130.98880004882812 307.2685241699219 130.7230987548828 C 306.36029052734375 130.44949340820312 305.37591552734375 130.1413116455078 304.3295593261719 129.7850799560547 C 303.2315673828125 129.39601135253906 302.07275390625 128.94683837890625 300.8953552246094 128.4589385986328 C 299.75726318359375 128.00643920898438 298.70172119140625 127.62804412841797 297.7529296875 127.35478973388672 C 296.94940185546875 127.18415069580078 296.2818908691406 127.10955810546875 295.7415771484375 127.07759094238281 C 295.3668212890625 127.08738708496094 295.1549072265625 127.04737854003906 295.0276794433594 126.83802032470703 C 294.86090087890625 126.51216888427734 294.7209777832031 126.38536834716797 294.6653747558594 126.63199615478516 C 294.66015625 127.34569549560547 294.5994873046875 128.65695190429688 294.3022155761719 130.71205139160156 C 293.71844482421875 133.13426208496094 292.90179443359375 135.0443572998047 291.9544677734375 136.07928466796875 C 291.401123046875 135.76791381835938 290.854248046875 135.1930389404297 289.9321594238281 134.6619415283203 C 288.2151794433594 133.68597412109375 285.90399169921875 131.82774353027344 283.36181640625 129.3129425048828 C 281.5849304199219 126.19593048095703 279.79705810546875 123.57748413085938 278.6791076660156 121.67572784423828 C 278.3608703613281 120.10810089111328 278.2106628417969 118.54368591308594 278.02764892578125 116.9819564819336 C 277.5989074707031 115.3087387084961 277.3834533691406 113.20921325683594 276.9403381347656 110.73746490478516 C 276.0301818847656 108.13993072509766 275.72113037109375 105.8583984375 277.3589782714844 104.19554138183594 C 279.7491455078125 102.60723114013672 280.80224609375 100.09988403320312 280.5552062988281 95.71244049072266 C 279.639404296875 90.1725082397461 280.7095031738281 85.71495819091797 283.73870849609375 83.12362670898438 C 286.5433349609375 83.91585540771484 287.2006530761719 86.88533782958984 285.94281005859375 91.0802001953125 C 285.0252380371094 95.96498107910156 284.68121337890625 99.98289489746094 285.20892333984375 103.09491729736328 C 286.29840087890625 105.82125854492188 286.9302978515625 107.85070037841797 287.1310119628906 108.77084350585938 C 287.6083679199219 109.0944595336914 288.09246826171875 109.09996032714844 288.0072021484375 108.86349487304688 C 287.4423522949219 108.64459228515625 287.1222229003906 108.60649871826172 286.9981994628906 108.5899658203125 C 286.8516540527344 108.83831024169922 286.8252868652344 109.10125732421875 287.0201110839844 109.1855697631836 C 287.4956359863281 109.04255676269531 288.18719482421875 108.73409271240234 289.0516662597656 108.30863952636719 C 290.02874755859375 107.85133361816406 291.0437927246094 107.36119079589844 292.0277099609375 106.79853820800781 C 292.91925048828125 106.15965270996094 293.67987060546875 105.44697570800781 294.2771301269531 104.6754379272461 C 294.68939208984375 103.8448257446289 294.94110107421875 102.93453216552734 295.0624084472656 101.97093200683594 C 295.07672119140625 100.97016143798828 295.02862548828125 99.9691390991211 297.99603271484375 98.57144927978516" stroke-width="0.0" fill="rgb(83, 230, 2)" opacity="0.99993336" stroke="rgb(110, 131, 146)" stroke-opacity="0.041371707" stroke-linecap="round" stroke-linejoin="round"/>
    <path d="M 11.239757537841797 55.62311935424805 C 12.661447525024414 55.85490417480469 14.087327003479004 56.09239196777344 15.505812644958496 56.364715576171875 C 16.892555236816406 56.68087387084961 18.21358871459961 57.09271240234375 19.430078506469727 57.63576126098633 C 20.509950637817383 58.30524444580078 21.445995330810547 59.12991714477539 22.21813201904297 60.091461181640625 C 22.868953704833984 61.15440368652344 23.430747985839844 62.28825378417969 23.934345245361328 63.4471549987793 C 24.41412925720215 64.58357238769531 24.888765335083008 65.67961120605469 25.364990234375 66.73629760742188 C 25.850772857666016 67.76040649414062 26.336585998535156 68.78346252441406 26.784488677978516 69.82569885253906 C 27.18423080444336 70.91788482666016 27.50178337097168 72.07914733886719 27.69136619567871 73.32858276367188 C 27.742313385009766 74.68440246582031 27.663604736328125 76.15608215332031 27.474985122680664 77.72467803955078 C 27.17181968688965 79.36962890625 26.80729103088379 81.0596694946289 26.399063110351562 82.765380859375 C 25.996915817260742 84.43000030517578 25.6470947265625 85.99707794189453 25.316410064697266 87.43193817138672 C 25.02628517150879 88.68993377685547 24.716644287109375 89.78194427490234 24.319997787475586 90.71863555908203 C 23.76308250427246 91.511474609375 22.984731674194336 92.17325592041016 21.93733787536621 92.73036193847656 C 20.56400489807129 93.19869995117188 18.91883087158203 93.60211181640625 17.047561645507812 93.92847442626953 C 15.065654754638672 94.1912841796875 13.073959350585938 94.38143920898438 11.198054313659668 94.47929382324219 C 9.533051490783691 94.44641876220703 8.111119270324707 94.27719116210938 6.967429161071777 93.94410705566406 C 6.109035491943359 93.4652328491211 5.488369941711426 92.8294448852539 5.0257182121276855 92.06719207763672 C 4.6757893562316895 91.18452453613281 4.349120140075684 90.23297119140625 4.001535415649414 89.2216796875 C 3.5844767093658447 88.1704330444336 3.0665366649627686 87.10620880126953 2.4614768028259277 86.05107879638672 C 1.744667410850525 84.98590850830078 0.9504409432411194 83.92382049560547 0.13710500299930573 82.85072326660156 C -0.6622517108917236 81.75438690185547 -1.3802598714828491 80.60759735107422 -2.0248892307281494 79.3846435546875 C -2.567488670349121 78.04266357421875 -2.9876480102539062 76.61029052734375 -3.3272438049316406 75.1146011352539 C -3.586174964904785 73.57462310791016 -3.7787222862243652 72.01588439941406 -3.921555519104004 70.47322845458984 C -4.033597469329834 68.98424530029297 -4.112896919250488 67.57040405273438 -4.155911922454834 66.24744415283203 C -4.136198043823242 65.03558349609375 -4.022740364074707 63.953975677490234 -3.774639368057251 63.00748825073242 C -3.368415594100952 62.180294036865234 -2.773629665374756 61.466617584228516 -1.991962194442749 60.850624084472656 C -1.0238476991653442 60.30429458618164 0.1146833524107933 59.801761627197266 1.3940670490264893 59.36597442626953 C 2.7821781635284424 58.933326721191406 4.237516403198242 58.52074432373047 5.758805274963379 58.11064529418945 C 7.305087566375732 57.70572280883789 8.846195220947266 57.30818557739258 11.239757537841797 55.62311935424805" stroke-width="0.0" fill="rgb(21, 20, 18)" opacity="0.9999919" stroke="rgb(88, 224, 242)" stroke-opacity="0.066263445" stroke-linecap="round" stroke-linejoin="round"/>
    <path d="M -0.36282646656036377 157.7790069580078 C 4.746031761169434 161.10597229003906 9.29218864440918 164.01344299316406 12.313977241516113 166.64268493652344 C 13.380581855773926 169.06600952148438 13.310324668884277 171.10308837890625 12.67153549194336 172.96295166015625 C 12.327422142028809 174.45713806152344 12.748785972595215 175.50428771972656 13.356277465820312 176.0353240966797 C 13.363192558288574 175.96725463867188 12.937877655029297 175.14305114746094 12.481715202331543 173.70046997070312 C 12.184185981750488 171.9570770263672 12.555593490600586 169.8982391357422 13.578767776489258 167.76597595214844 C 15.510310173034668 166.2015838623047 18.07152557373047 165.21499633789062 21.27520179748535 164.75555419921875 C 24.576921463012695 165.04051208496094 27.38538932800293 166.340087890625 29.8934268951416 168.5918426513672 C 32.6890754699707 170.96234130859375 34.62699508666992 173.65316772460938 35.312957763671875 176.3521270751953 C 35.20823669433594 178.94503784179688 34.44285583496094 181.4201202392578 33.68711471557617 184.31890869140625 C 33.328712463378906 187.85292053222656 33.44830322265625 191.6000518798828 33.95362091064453 195.4680938720703 C 34.503387451171875 199.41468811035156 35.07609558105469 203.02883911132812 35.268089294433594 206.0103759765625 C 34.48427200317383 208.22471618652344 32.85227584838867 209.52389526367188 30.809579849243164 210.3132781982422 C 28.74479866027832 210.03085327148438 27.090747833251953 209.3284149169922 26.06751251220703 208.440185546875 C 25.482160568237305 207.52999877929688 25.503948211669922 206.9276580810547 25.854778289794922 206.80654907226562 C 26.416135787963867 207.20191955566406 26.89089012145996 207.8406982421875 27.174955368041992 208.38754272460938 C 27.316884994506836 208.5035858154297 27.13336753845215 209.06857299804688 26.2503604888916 209.68275451660156 C 24.539003372192383 209.50460815429688 22.14567756652832 209.2164764404297 19.7012939453125 209.53436279296875 C 17.8201847076416 209.34788513183594 16.895076751708984 209.05027770996094 16.841983795166016 209.10830688476562 C 18.05585479736328 209.23336791992188 20.880794525146484 208.93141174316406 24.50142478942871 208.48773193359375 C 28.193538665771484 208.7460174560547 31.283021926879883 211.06040954589844 33.453948974609375 214.57020568847656 C 34.51414489746094 219.10987854003906 33.845298767089844 224.68997192382812 31.57052993774414 230.7119598388672 C 27.84108543395996 235.50209045410156 22.916349411010742 239.17047119140625 16.926132202148438 241.03704833984375 C 10.688326835632324 241.2504425048828 5.375933647155762 240.36199951171875 1.117626428604126 238.5034942626953 C -2.2383737564086914 235.58258056640625 -4.557381629943848 232.0993194580078 -5.773375511169434 228.46823120117188 C -6.044949054718018 224.66941833496094 -5.802151679992676 221.00924682617188 -5.348636150360107 217.83067321777344 C -4.805698394775391 215.22744750976562 -4.337405204772949 213.1087646484375 -4.087669849395752 211.3887481689453 C -4.166285037994385 209.97215270996094 -4.3664093017578125 208.79493713378906 -4.517557621002197 207.80995178222656 C -4.5637288093566895 206.94798278808594 -4.545212268829346 206.12142944335938 -4.501832485198975 205.25204467773438 C -4.4550933837890625 204.33111572265625 -4.398077487945557 203.366455078125 -4.336528301239014 202.40017700195312 C -4.285984992980957 201.45558166503906 -4.255814075469971 200.54005432128906 -4.2511982917785645 199.67002868652344 C -4.273387908935547 198.84275817871094 -4.315685749053955 198.03616333007812 -4.368161678314209 197.26747131347656 C -4.426212787628174 196.56141662597656 -4.488492965698242 195.91908264160156 -4.546570777893066 195.3330841064453 C -4.566286087036133 194.75161743164062 -4.529520034790039 194.07044982910156 -4.419854164123535 193.2163543701172 C -4.257673263549805 192.11965942382812 -4.039017200469971 190.69992065429688 -3.796764850616455 188.924560546875 C -3.6140031814575195 186.76609802246094 -3.4651753902435303 184.30563354492188 -3.3230490684509277 181.643798828125 C -3.234174966812134 178.85079956054688 -3.1819515228271484 176.01536560058594 -0.36282646656036377 157.7790069580078" stroke-width="0.0" fill="rgb(132, 223, 102)" opacity="0.99982697" stroke="rgb(132, 7, 126)" stroke-opacity="0.11276943" stroke-linecap="round" stroke-linejoin="round"/>
  </g>
</svg>
