<?xml version="1.0" ?>
<svg xmlns="http://www.w3.org/2000/svg" version="1.1" width="502" height="323">
  <defs/>
  <g>
    <path d="M -11.873805046081543 -5.336353302001953 C -2.02518630027771 -5.1855902671813965 7.835519313812256 -5.048832893371582 17.758981704711914 -4.9588093757629395 C 27.800764083862305 -4.940924167633057 38.00410079956055 -4.973617076873779 48.41187286376953 -5.045443534851074 C 59.08052444458008 -5.12403678894043 70.05213165283203 -5.185403347015381 81.33270263671875 -5.213296890258789 C 92.9119644165039 -5.1745171546936035 104.75843811035156 -5.061975002288818 116.82569885253906 -4.899306297302246 C 129.06253051757812 -4.713899612426758 141.40994262695312 -4.539491176605225 153.80604553222656 -4.400477409362793 C 166.2080841064453 -4.329659938812256 178.58387756347656 -4.327849864959717 190.8935546875 -4.379767894744873 C 203.12034606933594 -4.484267234802246 215.23509216308594 -4.612025737762451 227.2189178466797 -4.74226188659668 C 239.05685424804688 -4.8580451011657715 250.73822021484375 -4.9443159103393555 262.24359130859375 -4.994412899017334 C 273.5905456542969 -5.017158031463623 284.775634765625 -5.010566234588623 295.8337097167969 -5.005976676940918 C 306.85919189453125 -5.020198822021484 317.9561462402344 -5.100017070770264 329.2090148925781 -5.217894077301025 C 340.73443603515625 -5.334613800048828 352.66265869140625 -5.393590450286865 365.07763671875 -5.351163864135742 C 378.0362243652344 -5.200540065765381 391.5569763183594 -5.231433868408203 405.5692443847656 -5.772645473480225 C 419.9462890625 -6.838749408721924 434.4692077636719 -8.177382469177246 448.818603515625 -9.543453216552734 C 462.5875549316406 -10.67432689666748 475.332763671875 -11.25080394744873 486.5883483886719 -10.925247192382812 C 495.8720703125 -9.306880950927734 502.73284912109375 -5.878755569458008 506.8851318359375 0.019764522090554237 C 508.32623291015625 8.66447925567627 507.9351501464844 19.702045440673828 507.0361022949219 32.729705810546875 C 506.5745544433594 47.319095611572266 506.3739929199219 63.01839065551758 506.29095458984375 79.33118438720703 C 506.32757568359375 95.7539291381836 506.53485107421875 111.7724380493164 507.09283447265625 126.89471435546875 C 508.225830078125 140.6394805908203 508.7860412597656 152.55516052246094 507.2355651855469 162.22409057617188 C 502.3776550292969 169.27040100097656 494.8299865722656 174.04916381835938 485.64447021484375 177.29432678222656 C 475.95672607421875 179.87033081054688 466.8153076171875 182.513916015625 459.08746337890625 185.74183654785156 C 453.2621154785156 189.71456909179688 448.6287841796875 194.3079833984375 444.28680419921875 199.27537536621094 C 439.38262939453125 204.35714721679688 433.5467529296875 209.35855102539062 426.6809387207031 214.1748809814453 C 418.8742980957031 218.78363037109375 410.746826171875 223.18768310546875 403.0608215332031 227.4102020263672 C 396.616943359375 231.3020782470703 391.8138122558594 234.77810668945312 388.9200134277344 237.6904754638672 C 387.7890625 239.87933349609375 388.1972351074219 241.1757354736328 389.7710266113281 241.4901123046875 C 392.142822265625 240.7628631591797 395.1813049316406 239.20828247070312 398.8050842285156 237.26080322265625 C 402.91754150390625 235.33291625976562 407.25555419921875 233.9563751220703 411.33624267578125 233.91677856445312 C 414.5497131347656 235.68618774414062 416.6589050292969 239.22103881835938 417.8875732421875 244.08718872070312 C 418.4449768066406 249.7399444580078 418.77978515625 255.61843872070312 419.29559326171875 261.2507019042969 C 420.3079833984375 266.2053527832031 421.79754638671875 270.20281982421875 423.76251220703125 273.19647216796875 C 426.09320068359375 275.27435302734375 428.8192443847656 276.5758361816406 432.0997009277344 277.2040710449219 C 436.0558776855469 277.24981689453125 440.7574768066406 276.66473388671875 446.35223388671875 275.2704162597656 C 452.9386901855469 273.0294189453125 460.493896484375 270.3187561035156 468.8904113769531 267.5887756347656 C 477.8944091796875 265.41815185546875 487.0500183105469 265.04180908203125 495.72552490234375 267.5868835449219 C 503.2417907714844 274.0845947265625 508.9502868652344 283.9789123535156 512.191650390625 296.1290588378906 C 512.52587890625 308.656982421875 509.71319580078125 319.64337158203125 503.8270568847656 327.1565856933594 C 495.326416015625 329.8034973144531 484.7052307128906 329.2769470214844 472.4453125 327.98876953125 C 459.0050964355469 327.633056640625 444.8076171875 327.7615661621094 430.2399597167969 327.86529541015625 C 415.6141662597656 327.8775329589844 401.17535400390625 327.8669128417969 387.09783935546875 327.8581237792969 C 373.4792785644531 327.85784912109375 360.3492431640625 327.8581848144531 347.6956481933594 327.8581848144531 C 335.4588928222656 327.8581848144531 323.5314025878906 327.8581848144531 311.7882080078125 327.8581848144531 C 300.13812255859375 327.8581848144531 288.49383544921875 327.8581848144531 276.7875671386719 327.8581848144531 C 264.9964294433594 327.85760498046875 253.11871337890625 327.8564758300781 241.16957092285156 327.8604736328125 C 229.2059326171875 327.8728332519531 217.2592010498047 327.8635559082031 205.3462371826172 327.8307800292969 C 193.47406005859375 327.7796630859375 181.64744567871094 327.7281799316406 169.81907653808594 327.707275390625 C 157.9154815673828 327.7489013671875 145.88113403320312 327.8896789550781 133.6564178466797 328.1949768066406 C 121.18962097167969 328.7294616699219 108.51721954345703 329.3348693847656 95.7190170288086 329.7923278808594 C 82.91264343261719 329.91021728515625 70.25300598144531 329.5205078125 57.91103744506836 328.46466064453125 C 46.07865524291992 326.61572265625 34.995113372802734 323.8481140136719 24.897323608398438 320.0499572753906 C 16.010669708251953 315.14300537109375 8.558913230895996 309.0806579589844 2.705604314804077 301.8863830566406 C -1.45613694190979 293.6365966796875 -3.8701040744781494 284.4574279785156 -4.69446325302124 274.5113525390625 C -4.933732032775879 263.95819091796875 -5.124960422515869 252.9348907470703 -5.227327823638916 241.53907775878906 C -5.214431285858154 229.86119079589844 -5.124991416931152 217.94581604003906 -4.986271858215332 205.85374450683594 C -4.85354471206665 193.6317596435547 -4.762323379516602 181.3116912841797 -4.709929466247559 168.95664978027344 C -4.725571155548096 156.63076782226562 -4.8160271644592285 144.33421325683594 -4.9724650382995605 132.09326171875 C -5.2083964347839355 119.90956115722656 -5.4474077224731445 107.7619400024414 -5.616763591766357 95.6624755859375 C -5.644529819488525 83.62004852294922 -5.501232147216797 71.61589050292969 -5.1787896156311035 59.65214157104492 C -4.672712802886963 47.73568344116211 -4.039287567138672 35.844459533691406 -3.3192715644836426 23.972795486450195 C -2.5702109336853027 12.126837730407715 -1.8050881624221802 0.2935551106929779 -11.873805046081543 -5.336353302001953" stroke-width="0.0" fill="rgb(84, 109, 85)" opacity="0.9999955" stroke="rgb(101, 13, 157)" stroke-opacity="0.3264809" stroke-linecap="round" stroke-linejoin="round"/>
    <path d="M 488.5067138671875 165.1772003173828 C 488.9187927246094 164.39633178710938 489.39801025390625 163.57986450195312 489.9730529785156 162.8101806640625 C 490.72772216796875 162.26817321777344 491.6688537597656 161.70631408691406 492.7243347167969 161.1199493408203 C 493.8323669433594 160.5870819091797 495.0583190917969 160.03924560546875 496.3450622558594 159.28306579589844 C 497.6687927246094 158.69204711914062 498.9883728027344 158.21807861328125 500.2992248535156 157.94227600097656 C 501.5680847167969 158.0963897705078 502.7976989746094 158.78466796875 503.9695739746094 159.9300079345703 C 505.0172424316406 161.475830078125 505.9249267578125 163.26553344726562 506.6211853027344 165.14254760742188 C 507.0256042480469 167.02081298828125 507.16522216796875 168.8744659423828 507.1858215332031 170.6805419921875 C 507.1095886230469 172.36300659179688 507.0097961425781 173.86196899414062 506.93988037109375 175.1986083984375 C 506.8869323730469 176.4189910888672 506.83905029296875 177.54705810546875 506.8144836425781 178.59036254882812 C 506.8168029785156 179.54859924316406 506.8341369628906 180.44973754882812 506.8536682128906 181.34716796875 C 506.8600158691406 182.26808166503906 506.8623352050781 183.21481323242188 506.8660583496094 184.15927124023438 C 506.8699645996094 185.07411193847656 506.86541748046875 185.96031188964844 506.85150146484375 186.8041229248047 C 506.8403625488281 187.58424377441406 506.8450622558594 188.3340606689453 506.864990234375 189.09547424316406 C 506.8848876953125 189.8765869140625 506.89178466796875 190.7195281982422 506.87744140625 191.70709228515625 C 506.8404235839844 192.90277099609375 506.79962158203125 194.34889221191406 506.77618408203125 196.09432983398438 C 506.7856140136719 198.1659393310547 506.8370361328125 200.54466247558594 506.93231201171875 203.1866455078125 C 507.05419921875 206.04066467285156 507.14447021484375 209.01470947265625 507.1329650878906 212.02053833007812 C 506.9464416503906 214.9691925048828 506.58721923828125 217.7808380126953 506.095458984375 220.39439392089844 C 505.5816650390625 222.78053283691406 505.1547546386719 224.95196533203125 504.9319763183594 226.99392700195312 C 504.9637145996094 229.1303253173828 505.22686767578125 231.54904174804688 505.6496276855469 234.47116088867188 C 506.11383056640625 238.03379821777344 506.5320129394531 242.13929748535156 506.8866271972656 246.66311645507812 C 507.17718505859375 251.4942626953125 507.39324951171875 256.5173034667969 507.5217590332031 261.4407958984375 C 507.44769287109375 265.9828796386719 507.01556396484375 269.946533203125 505.9216003417969 273.1383972167969 C 504.1514587402344 275.3463439941406 501.7249755859375 276.35528564453125 498.60101318359375 276.32763671875 C 495.03277587890625 275.3458251953125 491.4747619628906 274.01080322265625 487.8662109375 273.0653076171875 C 484.3731994628906 273.08428955078125 481.0914611816406 273.5267028808594 477.9560241699219 274.5247802734375 C 475.8202209472656 276.0108337402344 474.14691162109375 277.9699401855469 472.175048828125 279.50433349609375 C 469.6517333984375 279.9019470214844 466.5758361816406 279.6204833984375 463.5268859863281 279.2682800292969 C 460.82391357421875 279.5257873535156 458.5561218261719 280.1932678222656 456.1607666015625 281.4034729003906 C 453.6279602050781 281.8919372558594 451.15802001953125 281.6352844238281 448.9805908203125 281.87017822265625 C 447.0507507324219 282.6998291015625 444.7371520996094 283.7545471191406 443.3657531738281 285.225341796875 C 443.3666076660156 286.6943359375 442.6217041015625 287.62353515625 440.9637756347656 287.986572265625 C 438.2507629394531 287.35467529296875 435.5070495605469 287.9124450683594 433.17449951171875 289.38922119140625 C 429.8433837890625 289.6876220703125 426.3398742675781 288.9908752441406 423.2403564453125 287.2254943847656 C 420.69232177734375 283.9571228027344 419.5458984375 280.432373046875 418.4524230957031 277.14556884765625 C 417.0844421386719 274.3578186035156 414.9818115234375 272.2433776855469 412.9617004394531 270.28375244140625 C 411.3941650390625 268.4548645019531 410.53900146484375 266.50518798828125 410.6324157714844 264.06787109375 C 411.50921630859375 261.0470275878906 412.7548828125 257.66162109375 414.0986633300781 254.1774139404297 C 415.260009765625 250.82960510253906 415.468994140625 247.7716827392578 414.4468688964844 245.07403564453125 C 412.5311584472656 242.67860412597656 411.0453796386719 240.59674072265625 410.9432373046875 238.46719360351562 C 411.22222900390625 236.41012573242188 411.7214660644531 234.96209716796875 412.7568054199219 234.43333435058594 C 413.410888671875 234.51535034179688 413.64141845703125 235.19161987304688 412.6776123046875 236.17835998535156 C 410.6218566894531 237.44485473632812 408.2298583984375 239.3646240234375 406.38299560546875 242.78451538085938 C 404.85784912109375 246.4248046875 403.14532470703125 249.35350036621094 401.0362854003906 250.8453369140625 C 398.6986083984375 250.08969116210938 396.1044921875 247.6786346435547 393.2351379394531 244.81956481933594 C 389.8411865234375 242.14707946777344 387.12969970703125 239.7740478515625 385.17572021484375 237.44386291503906 C 385.10626220703125 235.12255859375 386.4277648925781 233.35694885253906 388.78607177734375 231.6185760498047 C 391.2029113769531 229.84458923339844 393.41851806640625 227.8541717529297 395.1681823730469 225.3448944091797 C 395.9024658203125 221.9146270751953 396.2357177734375 218.85992431640625 397.46990966796875 216.72000122070312 C 399.8376159667969 216.17555236816406 402.79840087890625 215.48779296875 405.9524230957031 214.31687927246094 C 408.9969482421875 212.70411682128906 411.9393615722656 211.12998962402344 414.8357849121094 209.5927734375 C 417.9114074707031 208.15301513671875 421.0836486816406 206.84515380859375 424.03900146484375 205.54063415527344 C 426.9168395996094 204.55921936035156 428.6211853027344 202.65859985351562 429.7111511230469 200.3489532470703 C 432.7615051269531 200.74508666992188 436.4698486328125 200.3603973388672 440.31231689453125 198.48812866210938 C 443.8843078613281 195.64141845703125 446.3665466308594 192.2689666748047 447.3896789550781 188.9046173095703 C 446.8139953613281 185.9803009033203 445.8800354003906 183.78025817871094 445.973388671875 181.72669982910156 C 448.38671875 179.726806640625 452.3568115234375 177.80433654785156 456.9427490234375 175.99656677246094 C 461.3076477050781 173.9840087890625 465.6819763183594 172.0821990966797 469.6441650390625 170.37989807128906 C 473.1439208984375 169.55810546875 476.3642272949219 168.71084594726562 479.2478332519531 168.18084716796875 C 481.1366271972656 166.4958038330078 482.8154296875 164.9820556640625 488.5067138671875 165.1772003173828" stroke-width="0.0" fill="rgb(142, 127, 94)" opacity="0.9999989" stroke="rgb(203, 111, 142)" stroke-opacity="0.7018225" stroke-linecap="round" stroke-linejoin="round"/>
    <path d="M -2.2201993465423584 -5.504570960998535 C -0.9085733890533447 -5.18779993057251 0.3896954357624054 -4.890196323394775 1.6277365684509277 -4.635412216186523 C 2.8122739791870117 -4.427600860595703 3.9472577571868896 -4.274855136871338 5.025661945343018 -4.173582553863525 C 6.065878868103027 -4.115825653076172 7.1005425453186035 -4.0969061851501465 8.151700973510742 -4.096339225769043 C 9.238995552062988 -4.096959114074707 10.386761665344238 -4.091070175170898 11.575389862060547 -4.074481010437012 C 12.804712295532227 -4.041907787322998 14.094026565551758 -4.012756824493408 15.399081230163574 -4.003145217895508 C 16.689453125 -4.004901885986328 17.964176177978516 -4.031065464019775 19.201236724853516 -4.080592155456543 C 20.36475944519043 -4.154781341552734 21.451906204223633 -4.254226207733154 22.475698471069336 -4.3813958168029785 C 23.44734764099121 -4.52084493637085 24.371641159057617 -4.655722618103027 25.271774291992188 -4.775337219238281 C 26.14533805847168 -4.891161918640137 27.010433197021484 -4.992822647094727 27.86089324951172 -5.064935684204102 C 28.694683074951172 -5.105997562408447 29.516572952270508 -5.133574962615967 30.33262825012207 -5.1522135734558105 C 31.157960891723633 -5.154247760772705 32.0138053894043 -5.141092300415039 32.94752883911133 -5.126160144805908 C 34.0084114074707 -5.105555534362793 35.22367858886719 -5.07319974899292 36.65993881225586 -5.033884048461914 C 38.396514892578125 -4.983916759490967 40.47282028198242 -4.924774646759033 42.9073371887207 -4.863588809967041 C 45.71860885620117 -4.806849956512451 48.90541458129883 -4.749697208404541 52.4266471862793 -4.719964504241943 C 56.21665954589844 -4.720211029052734 60.202022552490234 -4.736774444580078 64.29801177978516 -4.7609758377075195 C 68.41541290283203 -4.783915042877197 72.45768737792969 -4.771753311157227 76.31035614013672 -4.709424018859863 C 79.90438842773438 -4.581723213195801 83.20670318603516 -4.435349941253662 86.23003387451172 -4.301324844360352 C 88.98990631103516 -4.232264518737793 91.67093658447266 -4.248245716094971 94.44449615478516 -4.347164630889893 C 97.4484634399414 -4.508987903594971 100.69612121582031 -4.697504997253418 104.18766784667969 -4.8617730140686035 C 107.93511962890625 -4.911576747894287 111.95763397216797 -4.850407123565674 116.22830963134766 -4.724450588226318 C 120.71980285644531 -4.595754623413086 125.46444702148438 -4.521523952484131 130.43153381347656 -4.554832935333252 C 135.55081176757812 -4.725926399230957 140.7596893310547 -4.999842166900635 145.9735870361328 -5.303743839263916 C 151.1025848388672 -5.592710971832275 156.0655517578125 -5.736030578613281 160.70237731933594 -5.600430011749268 C 164.84762573242188 -5.072393894195557 168.34336853027344 -4.049910545349121 171.05165100097656 -2.474684476852417 C 172.83189392089844 -0.26479530334472656 173.60585021972656 2.5788252353668213 173.38893127441406 6.046796798706055 C 172.32833862304688 10.037284851074219 170.62158203125 14.402649879455566 168.55996704101562 18.974063873291016 C 166.41009521484375 23.546113967895508 164.399169921875 27.88548469543457 162.61642456054688 31.854171752929688 C 160.9958038330078 35.37947082519531 159.4244384765625 38.435577392578125 157.74754333496094 41.01043701171875 C 155.87493896484375 43.09572982788086 153.8259735107422 44.785221099853516 151.64683532714844 46.1879768371582 C 149.38253784179688 47.4063606262207 147.04066467285156 48.55315399169922 144.6043701171875 49.748252868652344 C 142.00001525878906 51.0962028503418 139.1017303466797 52.67304229736328 135.85536193847656 54.45651626586914 C 132.24966430664062 56.36952209472656 128.40040588378906 58.196678161621094 124.4469985961914 59.7418098449707 C 120.53157806396484 60.80668258666992 116.74124145507812 61.54527282714844 113.13811492919922 62.14600372314453 C 109.76350402832031 62.814537048339844 106.60225677490234 63.7331428527832 103.66568756103516 65.08990478515625 C 100.86312103271484 66.92878723144531 98.15432739257812 69.13414001464844 95.49156951904297 71.52657318115234 C 92.87442779541016 73.82705688476562 90.33686828613281 75.79144287109375 87.93159484863281 77.19737243652344 C 85.70747375488281 77.8132553100586 83.73680114746094 77.76947021484375 82.09475708007812 77.30008697509766 C 80.78305053710938 76.66572570800781 79.7684097290039 76.10212707519531 78.9443588256836 75.80662536621094 C 78.22810363769531 75.94647979736328 77.50623321533203 76.57816314697266 76.6790542602539 77.71220397949219 C 75.66802978515625 79.35369873046875 74.39949035644531 81.33704376220703 72.85276794433594 83.50540161132812 C 70.99835968017578 85.72757720947266 68.8531723022461 87.83955383300781 66.41264343261719 89.69851684570312 C 63.72023010253906 91.20437622070312 60.84027862548828 92.28193664550781 57.82280349731445 92.94002532958984 C 54.74748611450195 93.23394012451172 51.66094970703125 93.19633483886719 48.6733512878418 92.94332122802734 C 45.83847427368164 92.60020446777344 43.047035217285156 92.25507354736328 40.195167541503906 92.06307220458984 C 37.15968322753906 92.09614562988281 33.853240966796875 92.32230377197266 30.217199325561523 92.75604248046875 C 26.195650100708008 93.33328247070312 21.83119773864746 93.9653091430664 17.25643539428711 94.50607299804688 C 12.671710968017578 94.80785369873047 8.308247566223145 94.771484375 4.442102432250977 94.37372589111328 C 1.3468691110610962 93.51725006103516 -0.7384602427482605 92.23206329345703 -1.6201168298721313 90.59666442871094 C -1.2373014688491821 88.78414916992188 0.039202358573675156 87.08087921142578 1.8122837543487549 85.76764678955078 C 3.6674511432647705 85.10037231445312 5.270764350891113 84.9249267578125 6.37648344039917 84.98967742919922 C 6.82982063293457 85.06774139404297 6.563547134399414 84.91228485107422 5.552730560302734 84.29513549804688 C 3.910871744155884 83.01524353027344 1.9017409086227417 81.09869384765625 -0.1934479922056198 78.62335968017578 C -1.9866257905960083 75.74794006347656 -3.308835744857788 72.73641204833984 -4.082666873931885 69.87564849853516 C -4.274082660675049 67.40128326416016 -4.104111194610596 65.38378143310547 -3.80277156829834 63.731082916259766 C -3.5430383682250977 62.19111251831055 -3.445108652114868 60.521724700927734 -3.5742835998535156 58.41827392578125 C -3.9141111373901367 55.65047073364258 -4.344482898712158 52.26863098144531 -4.7246174812316895 48.33595657348633 C -4.959203243255615 43.94182586669922 -5.0583271980285645 39.189762115478516 -5.063653469085693 34.21192932128906 C -5.0193915367126465 29.13006591796875 -4.9733357429504395 24.065959930419922 -4.968409538269043 19.090492248535156 C -5.020838737487793 14.235906600952148 -5.143777847290039 9.50270938873291 -5.318827152252197 4.895681858062744 C -5.533427715301514 0.3753766119480133 -5.757658958435059 -4.139638900756836 -2.2201993465423584 -5.504570960998535" stroke-width="0.0" fill="rgb(6, 8, 4)" opacity="0.999984" stroke="rgb(49, 217, 130)" stroke-opacity="0.9067158" stroke-linecap="round" stroke-linejoin="round"/>
    <path d="M 132.02197265625 180.1582489013672 C 132.7535858154297 181.01693725585938 133.45022583007812 181.791748046875 134.0574951171875 182.4827880859375 C 134.59840393066406 183.2366180419922 135.1013641357422 184.11741638183594 135.40109252929688 185.03643798828125 C 135.51222229003906 185.9361114501953 135.44773864746094 186.86422729492188 135.34889221191406 187.9140625 C 135.38641357421875 189.0570831298828 135.32330322265625 190.151611328125 135.19683837890625 191.33554077148438 C 135.20960998535156 192.32171630859375 135.34262084960938 193.37376403808594 136.1271514892578 193.98744201660156 C 136.95924377441406 195.07688903808594 137.28436279296875 196.09954833984375 137.1323699951172 197.50003051757812 C 137.0889129638672 199.0452117919922 137.0662841796875 200.31895446777344 136.85609436035156 201.59783935546875 C 136.786865234375 202.89671325683594 136.83319091796875 204.04400634765625 136.93577575683594 205.04029846191406 C 136.93222045898438 206.08816528320312 136.59939575195312 207.05953979492188 135.98086547851562 207.78146362304688 C 135.4224395751953 208.45693969726562 134.7457733154297 209.2310333251953 133.83331298828125 209.8762969970703 C 132.7861785888672 210.2774658203125 132.19192504882812 210.76727294921875 132.5506134033203 211.3825225830078 C 133.38861083984375 212.12652587890625 134.21446228027344 212.45249938964844 135.08120727539062 211.8262176513672 C 136.21095275878906 210.916259765625 137.43141174316406 209.97323608398438 138.41885375976562 209.27590942382812 C 139.17189025878906 208.73756408691406 139.7826385498047 208.27444458007812 140.22549438476562 208.01278686523438 C 140.4690399169922 207.85902404785156 140.51649475097656 207.76919555664062 140.39682006835938 207.71853637695312 C 140.1698455810547 207.64022827148438 139.8749237060547 207.47000122070312 139.53155517578125 207.1692352294922 C 139.14935302734375 206.68788146972656 138.77369689941406 206.0020294189453 138.4227752685547 205.1155548095703 C 138.10089111328125 204.02651977539062 137.79464721679688 202.71319580078125 137.53115844726562 201.20059204101562 C 137.34100341796875 199.59945678710938 137.2344512939453 197.94009399414062 137.2316131591797 196.257080078125 C 137.32553100585938 194.58677673339844 137.50193786621094 192.95985412597656 137.7991180419922 191.45030212402344 C 138.18841552734375 190.13380432128906 138.72177124023438 189.0561065673828 139.47409057617188 188.2197265625 C 140.4014892578125 187.63632202148438 141.39183044433594 187.31494140625 142.36643981933594 187.2499237060547 C 143.3203125 187.47027587890625 144.10792541503906 187.94822692871094 144.75828552246094 188.57879638671875 C 145.33441162109375 189.35597229003906 145.7003936767578 190.27413940429688 145.50473022460938 191.33056640625 C 144.99143981933594 192.37660217285156 144.5153045654297 193.44528198242188 144.2900390625 194.4463348388672 C 143.99993896484375 195.53787231445312 143.88096618652344 196.57308959960938 144.31663513183594 197.5043487548828 C 145.00830078125 198.4900360107422 145.9517822265625 199.61167907714844 147.34584045410156 200.72642517089844 C 149.083740234375 201.80218505859375 150.5624237060547 203.261962890625 152.36834716796875 204.77806091308594 C 154.49508666992188 206.03872680664062 155.9639434814453 207.18792724609375 156.95248413085938 208.68101501464844 C 157.94491577148438 210.26358032226562 158.28176879882812 212.1837921142578 157.7089080810547 213.8278045654297 C 156.80625915527344 215.03604125976562 156.52146911621094 216.0634765625 157.80865478515625 216.5393524169922 C 159.84803771972656 216.73687744140625 162.12306213378906 216.5579376220703 164.45481872558594 216.3775634765625 C 166.12510681152344 217.2523956298828 166.5442657470703 219.13055419921875 165.57928466796875 221.4149932861328 C 163.79396057128906 223.66717529296875 161.8496551513672 225.30397033691406 160.91465759277344 227.1092987060547 C 162.0738983154297 229.56556701660156 163.85772705078125 231.80917358398438 167.12916564941406 233.73919677734375 C 170.95870971679688 234.88565063476562 174.9929656982422 235.63856506347656 179.4091033935547 235.59214782714844 C 181.43617248535156 234.73643493652344 183.25692749023438 233.03646850585938 185.37599182128906 233.6558837890625 C 187.0781707763672 235.9253692626953 187.8014373779297 238.43310546875 186.92782592773438 240.31092834472656 C 184.27134704589844 240.72267150878906 180.95730590820312 240.6020965576172 177.2136688232422 240.34884643554688 C 173.67498779296875 240.77403259277344 170.89816284179688 242.3645477294922 168.0201416015625 243.98130798339844 C 164.57470703125 243.5153045654297 162.3375701904297 243.92503356933594 161.4702606201172 245.20997619628906 C 162.62879943847656 247.11593627929688 164.06362915039062 249.4639892578125 163.46347045898438 252.5086669921875 C 161.28598022460938 255.39552307128906 159.9586944580078 258.9933776855469 160.3397216796875 263.0837097167969 C 159.0883331298828 265.75982666015625 157.14244079589844 267.597900390625 156.69168090820312 269.6877746582031 C 155.75030517578125 271.44036865234375 153.8080596923828 272.6470642089844 151.48072814941406 272.9110412597656 C 148.98617553710938 272.5912170410156 146.89480590820312 271.4344787597656 145.77264404296875 269.93255615234375 C 145.3095245361328 268.5164794921875 144.98944091796875 267.6053161621094 144.7114715576172 267.5191345214844 C 144.60604858398438 268.25677490234375 144.53103637695312 269.499755859375 144.36802673339844 270.9110412597656 C 144.37374877929688 272.27325439453125 143.04344177246094 273.22943115234375 141.330078125 273.158935546875 C 140.07249450683594 271.2090759277344 138.2891082763672 269.6634521484375 135.3843994140625 269.12005615234375 C 133.1073455810547 267.14404296875 131.21839904785156 264.3299865722656 129.58770751953125 261.2565612792969 C 128.23716735839844 257.99530029296875 127.259033203125 254.69598388671875 126.6227035522461 251.4209442138672 C 126.13182067871094 247.9652862548828 125.66460418701172 244.59292602539062 125.2628402709961 241.44541931152344 C 124.9503402709961 238.4209747314453 124.71570587158203 235.45677185058594 124.55840301513672 232.56216430664062 C 124.51358032226562 229.7783660888672 124.58333587646484 226.9972381591797 124.76641845703125 224.2457733154297 C 125.07030487060547 221.52288818359375 125.4541244506836 218.72879028320312 125.87030792236328 215.8412322998047 C 126.30799865722656 212.88107299804688 126.71318817138672 209.8326873779297 127.04822540283203 206.64898681640625 C 127.2809829711914 203.3297882080078 127.40287017822266 199.8935546875 127.40311431884766 196.35792541503906 C 127.25861358642578 192.74630737304688 127.02249908447266 189.0880584716797 126.68169403076172 185.39202880859375 C 126.2763671875 181.66676330566406 125.83206176757812 177.94004821777344 132.02197265625 180.1582489013672" stroke-width="0.0" fill="rgb(143, 146, 138)" opacity="0.99999416" stroke="rgb(134, 151, 198)" stroke-opacity="0.9755753" stroke-linecap="round" stroke-linejoin="round"/>
    <path d="M 0.3552372455596924 125.75254821777344 C 1.0622113943099976 126.51934814453125 1.7648762464523315 127.25003814697266 2.427334785461426 127.92064666748047 C 3.043846368789673 128.47830200195312 3.6100261211395264 128.90701293945312 4.175226211547852 129.19654846191406 C 4.771670818328857 129.33544921875 5.431626796722412 129.37852478027344 6.21116828918457 129.35195922851562 C 7.120121955871582 129.3444061279297 8.175542831420898 129.3688507080078 9.327897071838379 129.4487762451172 C 10.480748176574707 129.60202026367188 11.550780296325684 129.77267456054688 12.478452682495117 129.9607391357422 C 13.228190422058105 130.13890075683594 13.734526634216309 130.29713439941406 14.109641075134277 130.4335174560547 C 14.44355583190918 130.55026245117188 14.79845142364502 130.6772918701172 15.219245910644531 130.8075408935547 C 15.781842231750488 130.96299743652344 16.59518814086914 131.17469787597656 17.826759338378906 131.43484497070312 C 19.674949645996094 131.73812866210938 22.246780395507812 132.00511169433594 25.47825050354004 132.18899536132812 C 29.168657302856445 132.29331970214844 33.1060676574707 132.45191955566406 37.03826904296875 132.7668914794922 C 40.68976974487305 133.40249633789062 44.027435302734375 134.56980895996094 47.234352111816406 136.75938415527344 C 49.54988098144531 140.0176239013672 49.508628845214844 143.63121032714844 47.99769592285156 146.58795166015625 C 48.486507415771484 148.19992065429688 51.01798629760742 148.53407287597656 54.68070602416992 148.47914123535156 C 59.11912536621094 148.79640197753906 63.717041015625 149.73773193359375 67.6077651977539 151.68504333496094 C 69.85359191894531 154.98190307617188 71.59331512451172 159.5211639404297 72.7454605102539 165.1269073486328 C 72.15843200683594 170.86264038085938 70.29340362548828 176.61868286132812 68.14166259765625 182.86822509765625 C 66.54422760009766 189.1660919189453 65.15070343017578 195.22738647460938 63.70309829711914 200.48770141601562 C 61.869285583496094 204.67356872558594 59.829036712646484 207.4370880126953 58.029571533203125 209.43898010253906 C 56.54091262817383 210.79747009277344 55.48332214355469 211.88778686523438 55.22733688354492 213.09783935546875 C 55.72174835205078 214.69805908203125 56.9897346496582 216.9235382080078 58.8632698059082 219.6434783935547 C 61.128211975097656 222.65869140625 63.587379455566406 225.75535583496094 66.03855895996094 228.6588134765625 C 68.26687622070312 231.1884307861328 70.13516998291016 233.22962951660156 71.52406311035156 234.7991485595703 C 72.31674194335938 235.98635864257812 72.60322570800781 237.2628173828125 72.41726684570312 239.10174560546875 C 71.7832260131836 241.9241485595703 70.798828125 245.3715362548828 69.57764434814453 248.9221954345703 C 68.23263549804688 251.99327087402344 66.97418975830078 254.4839324951172 65.9798355102539 256.3369140625 C 65.4073715209961 257.5396728515625 65.18978881835938 258.32318115234375 65.22452545166016 258.995849609375 C 65.39395141601562 259.8332824707031 65.57372283935547 261.0531005859375 65.64277648925781 262.7112731933594 C 65.5456771850586 264.75616455078125 65.34391784667969 267.0111389160156 65.09876251220703 269.2732849121094 C 64.96194458007812 271.33270263671875 65.1755142211914 273.0836181640625 65.9942398071289 274.5379638671875 C 67.56270599365234 275.7198181152344 69.76271057128906 276.6812438964844 72.39053344726562 277.5086364746094 C 75.29267120361328 278.3572692871094 78.35688781738281 279.7472839355469 81.5350570678711 281.8682556152344 C 83.21955108642578 284.2905578613281 83.07382202148438 287.3128662109375 82.04429626464844 290.50067138671875 C 80.10161590576172 293.3409729003906 77.37464141845703 295.8516540527344 74.88751983642578 298.26837158203125 C 73.62737274169922 299.96142578125 74.50166320800781 300.5865783691406 77.1647720336914 299.57098388671875 C 81.17682647705078 298.6607666015625 85.35932922363281 299.001953125 88.70124053955078 301.2070617675781 C 91.82847595214844 304.0743408203125 96.12228393554688 305.5550842285156 101.39525604248047 305.6686706542969 C 107.26498413085938 305.6653137207031 112.94547271728516 306.2823181152344 117.20652770996094 308.4435119628906 C 119.0963134765625 311.4193420410156 117.57111358642578 313.7607116699219 113.29390716552734 315.1446838378906 C 107.21215057373047 315.1046142578125 101.7750015258789 315.5438537597656 98.66068267822266 317.3085021972656 C 99.7767333984375 318.93658447265625 101.21593475341797 321.3778076171875 101.0531997680664 324.41748046875 C 99.27635955810547 326.7568054199219 96.19010925292969 327.99029541015625 92.06952667236328 328.2565612792969 C 87.14735412597656 328.0804138183594 81.61274719238281 327.8808898925781 75.67635345458984 327.81536865234375 C 69.41732025146484 327.8409729003906 62.93316650390625 327.8641052246094 56.38594436645508 327.86041259765625 C 49.841796875 327.8580627441406 43.282081604003906 327.86761474609375 36.75081253051758 327.8645324707031 C 30.313201904296875 327.8004455566406 24.04973030090332 327.74896240234375 18.05986213684082 327.8526916503906 C 12.484026908874512 328.2203369140625 7.4806647300720215 328.5982360839844 3.170825481414795 328.522216796875 C -0.35211846232414246 327.5005798339844 -2.9422760009765625 325.3043212890625 -4.609860420227051 321.8899230957031 C -5.442920207977295 317.4173278808594 -5.627299785614014 312.153076171875 -5.389925479888916 306.33367919921875 C -5.032772541046143 300.19598388671875 -4.798843860626221 293.98065185546875 -4.741113185882568 287.8523864746094 C -4.781370162963867 281.91949462890625 -4.8429388999938965 276.2352600097656 -4.90068244934082 270.8055114746094 C -4.946556568145752 265.6116638183594 -4.952085494995117 260.6155090332031 -4.9080657958984375 255.75587463378906 C -4.856649398803711 251.00448608398438 -4.855454444885254 246.3096466064453 -4.921573162078857 241.619140625 C -5.024080753326416 236.91004943847656 -5.099944114685059 232.1651611328125 -5.119631767272949 227.3761749267578 C -5.0982985496521 222.546142578125 -5.084721565246582 217.6849822998047 -5.106113910675049 212.80711364746094 C -5.154032230377197 207.89828491210938 -5.195009231567383 202.97039794921875 -5.197281360626221 198.03028869628906 C -5.145035743713379 193.04185485839844 -5.085307598114014 187.99349975585938 -5.050368309020996 182.87632751464844 C -5.056820869445801 177.6846160888672 -5.101058006286621 172.43994140625 -5.173664569854736 167.18435668945312 C -5.2597198486328125 161.93370056152344 -5.329423904418945 156.71322631835938 -5.37058162689209 151.54910278320312 C -5.363218784332275 146.45767211914062 -5.299757957458496 141.4176025390625 -5.193108558654785 136.3945770263672 C -5.051056861877441 131.40196228027344 -4.90900182723999 126.40631103515625 0.3552372455596924 125.75254821777344" stroke-width="0.0" fill="rgb(10, 15, 9)" opacity="0.99999493" stroke="rgb(216, 66, 53)" stroke-opacity="0.20891608" stroke-linecap="round" stroke-linejoin="round"/>
    <path d="M 310.12603759765625 81.62052154541016 C 308.5650634765625 82.5695571899414 307.6136169433594 83.95169830322266 306.7102355957031 85.40271759033203 C 306.3050537109375 86.49800872802734 306.976806640625 87.14551544189453 308.0039978027344 88.08016204833984 C 308.826171875 89.48274230957031 309.92120361328125 90.66345977783203 311.53076171875 91.86629486083984 C 311.8918151855469 94.28189086914062 311.154052734375 97.39126586914062 310.02008056640625 101.29979705810547 C 309.3023376464844 105.50209045410156 308.6085205078125 109.42855834960938 307.8128967285156 113.11457824707031 C 307.89398193359375 115.8217544555664 308.3042297363281 117.50221252441406 309.10968017578125 118.31536865234375 C 309.995849609375 117.75225067138672 310.4261169433594 116.0487060546875 310.55419921875 113.771728515625 C 311.8854675292969 110.50852966308594 313.7097473144531 106.33110046386719 314.71270751953125 101.68486022949219 C 314.3086853027344 97.76649475097656 314.20806884765625 95.29876708984375 316.1754455566406 94.49982452392578 C 319.7844543457031 95.73616790771484 323.9789733886719 95.9422378540039 327.37432861328125 95.72303771972656 C 328.1596374511719 97.53971862792969 327.73687744140625 101.21550750732422 326.8035888671875 105.58158874511719 C 325.92059326171875 110.13651275634766 326.9937438964844 114.89794921875 328.7839660644531 118.85724639892578 C 331.9482421875 121.66346740722656 335.20428466796875 123.87853240966797 338.9447326660156 125.33380889892578 C 342.7066650390625 126.37146759033203 345.5289611816406 128.11837768554688 346.633056640625 130.07852172851562 C 347.26458740234375 131.16934204101562 348.60693359375 130.80654907226562 350.3348388671875 129.32876586914062 C 352.541259765625 126.60100555419922 354.3966369628906 122.49816131591797 356.63592529296875 117.57040405273438 C 359.51580810546875 113.15670776367188 362.643310546875 109.6123046875 364.6661071777344 107.58716583251953 C 365.10675048828125 108.84793853759766 364.3336181640625 112.78671264648438 363.4344177246094 118.01416015625 C 362.9381408691406 123.67481231689453 363.9840087890625 129.1063995361328 366.2940979003906 133.4185791015625 C 369.62493896484375 135.49209594726562 372.24969482421875 136.99160766601562 373.7528381347656 139.7083282470703 C 374.8115234375 143.45123291015625 375.88812255859375 145.96803283691406 378.43450927734375 146.50845336914062 C 382.1657409667969 145.3276824951172 386.3279724121094 144.8433074951172 388.9132385253906 145.661376953125 C 389.8927307128906 148.4621124267578 390.0516662597656 151.88861083984375 387.8318176269531 154.3249969482422 C 383.1399841308594 154.20498657226562 377.56011962890625 154.9401397705078 371.7442321777344 155.48858642578125 C 365.873779296875 156.77059936523438 360.2861633300781 158.69024658203125 355.19940185546875 159.11111450195312 C 349.8294982910156 159.3650665283203 344.3389587402344 159.6455535888672 339.3869934082031 158.67181396484375 C 335.0506591796875 158.84596252441406 331.1756286621094 159.5652313232422 327.8455810546875 159.79176330566406 C 324.76458740234375 159.6118621826172 321.7247619628906 159.686279296875 318.89068603515625 160.10084533691406 C 315.9141845703125 160.2250518798828 312.7749938964844 161.0300750732422 309.8008728027344 162.72239685058594 C 306.5970153808594 162.91806030273438 302.7541198730469 162.67393493652344 299.1856384277344 162.20632934570312 C 296.1979675292969 160.82911682128906 293.0303955078125 160.61570739746094 289.3457946777344 161.18157958984375 C 285.3888854980469 162.73731994628906 280.3560485839844 164.2761993408203 275.377197265625 165.7281494140625 C 270.5979309082031 166.76773071289062 267.0181579589844 166.86190795898438 263.30426025390625 165.71160888671875 C 260.32171630859375 164.33840942382812 257.6317443847656 164.9556884765625 254.97586059570312 166.70225524902344 C 252.7982635498047 166.65591430664062 251.1183624267578 165.21282958984375 249.0698699951172 163.72486877441406 C 246.6154327392578 163.71856689453125 244.5736083984375 163.49655151367188 243.09803771972656 162.49618530273438 C 243.15951538085938 160.884033203125 244.83424377441406 159.07638549804688 247.59124755859375 157.60806274414062 C 251.36077880859375 156.9479522705078 255.97084045410156 156.3251190185547 260.6114196777344 155.55934143066406 C 265.1354064941406 155.0074005126953 269.6153259277344 154.62570190429688 274.005859375 154.1971435546875 C 278.1944885253906 153.72308349609375 282.24127197265625 153.20327758789062 286.23736572265625 152.65554809570312 C 290.07745361328125 152.1013641357422 293.8493347167969 151.56141662597656 297.7216796875 151.0645294189453 C 301.7045593261719 150.6719207763672 305.75042724609375 150.36622619628906 309.8570861816406 150.08840942382812 C 314.06744384765625 149.8683319091797 318.4110107421875 149.80540466308594 322.8522033691406 149.8490753173828 C 327.2851867675781 149.9126434326172 331.60479736328125 149.9763641357422 335.7336730957031 150.0438995361328 C 339.5924987792969 150.0606689453125 343.0886535644531 149.96994018554688 346.1195068359375 149.77267456054688 C 348.60498046875 149.46627807617188 350.50286865234375 149.00933837890625 351.7767028808594 148.4230194091797 C 352.4146728515625 147.75645446777344 352.4187316894531 146.98187255859375 351.796875 146.1052703857422 C 350.5937194824219 145.1734619140625 348.9377136230469 144.21531677246094 346.8900451660156 143.25149536132812 C 344.52789306640625 142.31484985351562 341.9383850097656 141.43365478515625 339.1934814453125 140.63352966308594 C 336.374755859375 139.92388916015625 333.54949951171875 139.29039001464844 330.7886047363281 138.68492126464844 C 328.1313781738281 138.05801391601562 325.5025634765625 137.46531677246094 323.08929443359375 136.8094940185547 C 320.91412353515625 136.06814575195312 318.8796691894531 135.2905731201172 316.9627685546875 134.4911651611328 C 315.2397155761719 133.59523010253906 313.6489562988281 132.59329223632812 312.0130310058594 131.53370666503906 C 310.275146484375 130.44700622558594 308.0282897949219 129.2556610107422 305.2339782714844 127.9884262084961 C 302.1186828613281 126.58135986328125 298.7896423339844 124.75338745117188 295.61016845703125 122.5115966796875 C 292.8556213378906 120.0616683959961 290.2591247558594 116.86549377441406 288.5452880859375 113.78575897216797 C 287.06005859375 111.16812896728516 285.3802185058594 109.9386215209961 285.01873779296875 109.56631469726562 C 286.52911376953125 108.5826644897461 289.3226013183594 106.75759887695312 292.1808166503906 104.70398712158203 C 293.59027099609375 101.4953384399414 294.6457214355469 97.45951843261719 297.1109313964844 92.95594024658203 C 300.12005615234375 88.57939147949219 302.4659118652344 83.01599884033203 310.12603759765625 81.62052154541016" stroke-width="0.0" fill="rgb(94, 123, 137)" opacity="0.9999934" stroke="rgb(99, 29, 78)" stroke-opacity="0.71093947" stroke-linecap="round" stroke-linejoin="round"/>
    <path d="M 222.2089080810547 177.8542022705078 C 223.2735137939453 178.4701385498047 224.35389709472656 179.07183837890625 225.3948211669922 179.69261169433594 C 226.36581420898438 180.35284423828125 227.2583465576172 181.0524444580078 228.0399169921875 181.81109619140625 C 228.7051544189453 182.63653564453125 229.2595977783203 183.5133056640625 229.7059783935547 184.43963623046875 C 230.0663299560547 185.4166717529297 230.3481903076172 186.42027282714844 230.55902099609375 187.41827392578125 C 230.71189880371094 188.3935546875 230.8226776123047 189.31654357910156 230.89378356933594 190.20596313476562 C 230.8993682861328 191.0518798828125 230.8516845703125 191.85398864746094 230.7444610595703 192.65199279785156 C 230.5245819091797 193.45162963867188 230.1736602783203 194.26156616210938 229.71424865722656 195.1033172607422 C 229.22850036621094 195.97218322753906 228.7810821533203 196.82518005371094 228.32095336914062 197.64564514160156 C 227.9248046875 198.44830322265625 227.7338409423828 199.21241760253906 227.826904296875 199.87759399414062 C 228.184326171875 200.43299865722656 228.73928833007812 200.92298889160156 229.4466552734375 201.45652770996094 C 230.334228515625 202.0137939453125 231.41555786132812 202.47813415527344 232.5190887451172 202.8983154296875 C 233.42034912109375 203.50042724609375 233.8175048828125 204.38999938964844 233.61000061035156 205.67977905273438 C 232.77618408203125 207.1007080078125 232.3133544921875 208.46209716796875 232.38580322265625 209.9861297607422 C 232.4705352783203 211.5423126220703 231.84716796875 212.67593383789062 230.82015991210938 213.6312255859375 C 230.153564453125 214.81307983398438 229.45062255859375 215.8837432861328 228.92044067382812 216.86968994140625 C 228.4500732421875 217.82029724121094 227.8236541748047 218.69696044921875 227.26194763183594 219.5853729248047 C 226.85833740234375 220.52650451660156 226.36529541015625 221.42681884765625 225.83180236816406 222.30963134765625 C 225.33616638183594 223.2127685546875 224.82293701171875 224.14060974121094 224.29574584960938 225.0314178466797 C 223.8128204345703 225.85728454589844 223.35052490234375 226.65176391601562 222.97589111328125 227.4306640625 C 222.71173095703125 228.13804626464844 222.54420471191406 228.76596069335938 222.4650115966797 229.3431396484375 C 222.4993133544922 229.87294006347656 222.6833038330078 230.3543243408203 222.98297119140625 230.81039428710938 C 223.3793182373047 231.24795532226562 223.86175537109375 231.66818237304688 224.39991760253906 232.0787811279297 C 224.99713134765625 232.5101776123047 225.63336181640625 232.97189331054688 226.27944946289062 233.47955322265625 C 226.94210815429688 234.0025634765625 227.5534210205078 234.58314514160156 228.1390380859375 235.20721435546875 C 228.71710205078125 235.89601135253906 229.24057006835938 236.64178466796875 229.7411651611328 237.44259643554688 C 230.2578582763672 238.3359832763672 230.74192810058594 239.325927734375 231.20301818847656 240.3531036376953 C 231.59034729003906 241.4123077392578 231.9109649658203 242.5129852294922 232.22401428222656 243.6372833251953 C 232.7479705810547 244.72926330566406 233.22421264648438 245.7132110595703 233.4097137451172 246.63259887695312 C 233.37826538085938 247.51609802246094 233.18136596679688 248.2794647216797 232.85113525390625 248.9672393798828 C 232.67059326171875 249.7494354248047 232.76089477539062 250.6536407470703 232.97096252441406 251.72720336914062 C 233.41470336914062 252.70811462402344 233.72633361816406 253.6006622314453 233.90785217285156 254.58778381347656 C 233.8978271484375 255.74496459960938 233.59706115722656 256.87261962890625 233.04513549804688 257.6227111816406 C 232.1680908203125 258.0384826660156 231.2150115966797 258.1910095214844 230.394287109375 258.398681640625 C 229.8116455078125 258.97125244140625 229.31735229492188 259.9927062988281 228.7850799560547 261.189208984375 C 227.9522247314453 262.26788330078125 227.01649475097656 263.07781982421875 225.79354858398438 263.7254638671875 C 224.15057373046875 263.9811096191406 222.5318603515625 263.92529296875 221.12579345703125 263.82647705078125 C 220.27005004882812 263.3640441894531 219.6721649169922 262.56085205078125 219.38015747070312 261.4386901855469 C 219.40017700195312 259.89739990234375 219.45526123046875 258.2137145996094 219.92355346679688 256.70538330078125 C 220.4051971435547 255.2376708984375 221.19615173339844 253.99249267578125 221.87567138671875 252.71026611328125 C 222.59962463378906 251.37908935546875 223.4667205810547 250.3038787841797 224.2000732421875 249.0386199951172 C 224.52276611328125 247.8043212890625 224.88455200195312 246.62741088867188 225.0830535888672 245.85206604003906 C 224.9723663330078 245.29803466796875 224.5727081298828 244.80496215820312 223.7257843017578 244.9264678955078 C 222.81005859375 245.6491241455078 221.90330505371094 246.5509796142578 220.8787078857422 247.5305938720703 C 219.92941284179688 248.16065979003906 218.8562774658203 247.95639038085938 217.06887817382812 247.1833953857422 C 215.39248657226562 245.86199951171875 214.02828979492188 243.8488006591797 213.33697509765625 240.7930145263672 C 214.06707763671875 237.37380981445312 214.7578887939453 235.0178985595703 214.97080993652344 233.45913696289062 C 213.63534545898438 232.71400451660156 211.362548828125 233.03271484375 209.0696563720703 234.57498168945312 C 208.5076446533203 236.445068359375 208.4830780029297 238.76063537597656 207.15411376953125 239.6943359375 C 205.3708953857422 239.32553100585938 203.43475341796875 238.05267333984375 201.619873046875 236.1654510498047 C 200.47474670410156 234.4203338623047 200.40029907226562 232.9172821044922 201.3676300048828 231.77822875976562 C 203.11807250976562 230.43690490722656 205.42161560058594 229.166748046875 207.70196533203125 228.15805053710938 C 209.67648315429688 227.01364135742188 211.34017944335938 225.92462158203125 212.53323364257812 224.88755798339844 C 213.1080780029297 223.64544677734375 213.2350311279297 222.1627655029297 213.03347778320312 220.49771118164062 C 212.49139404296875 218.71873474121094 211.79859924316406 216.76693725585938 211.13832092285156 214.6021270751953 C 210.530029296875 212.29913330078125 210.09930419921875 210.02426147460938 210.06478881835938 207.87371826171875 C 210.44668579101562 205.81524658203125 210.9453887939453 203.78700256347656 211.60963439941406 201.73651123046875 C 212.19345092773438 199.71031188964844 212.83639526367188 197.7826385498047 213.7945556640625 195.90611267089844 C 214.8049774169922 194.0431671142578 215.66273498535156 192.1705322265625 216.40579223632812 190.1566925048828 C 216.70245361328125 188.01661682128906 216.71368408203125 185.74658203125 216.76661682128906 183.43475341796875 C 216.7324676513672 180.9715576171875 216.9917449951172 178.45848083496094 222.2089080810547 177.8542022705078" stroke-width="0.0" fill="rgb(115, 117, 103)" opacity="0.9999927" stroke="rgb(4, 54, 212)" stroke-opacity="0.43061855" stroke-linecap="round" stroke-linejoin="round"/>
    <path d="M 341.5560607910156 -7.9909987449646 C 344.54742431640625 -7.35629415512085 348.4154968261719 -6.579494953155518 354.5039978027344 -6.033405303955078 C 362.8021545410156 -5.623661994934082 373.967041015625 -5.4162516593933105 387.69915771484375 -5.194789409637451 C 403.510009765625 -4.704596519470215 420.7499084472656 -3.733250856399536 438.3733215332031 -2.1726062297821045 C 455.4758605957031 -0.33197662234306335 471.3982238769531 1.434229850769043 485.0189514160156 3.2464802265167236 C 495.6371154785156 4.080515384674072 502.44219970703125 7.438484191894531 505.93170166015625 15.651728630065918 C 507.5578308105469 28.63320541381836 508.0179748535156 45.27296447753906 507.9254455566406 64.1436996459961 C 507.8425598144531 82.91586303710938 505.7554016113281 99.2292709350586 500.3225402832031 110.30677032470703 C 493.06103515625 112.880859375 487.8349304199219 106.62602233886719 484.472412109375 99.07025909423828 C 480.8869323730469 100.4888687133789 477.98553466796875 108.24754333496094 476.3739013671875 116.92736053466797 C 475.12347412109375 121.5247802734375 470.58721923828125 121.77745819091797 463.8836364746094 121.7289047241211 C 456.7338562011719 124.50873565673828 450.50396728515625 127.5406265258789 444.4118957519531 127.38775634765625 C 437.7406921386719 126.59245300292969 431.3297424316406 129.14979553222656 426.0634765625 132.5125274658203 C 423.7998962402344 138.0188446044922 420.217041015625 143.39227294921875 415.9869384765625 149.598876953125 C 415.2229309082031 159.07977294921875 408.7536315917969 167.2609405517578 403.2202453613281 173.98838806152344 C 408.30322265625 180.73240661621094 411.0821838378906 186.8144073486328 404.03509521484375 195.58554077148438 C 391.81951904296875 208.69053649902344 376.0798645019531 222.31744384765625 358.61181640625 234.3573760986328 C 343.11212158203125 245.84242248535156 330.710693359375 255.0478973388672 322.40557861328125 260.7453308105469 C 321.65057373046875 264.8116760253906 327.0036315917969 264.0752258300781 334.58355712890625 261.593994140625 C 340.6233825683594 262.0053405761719 345.9971008300781 268.2267150878906 355.24737548828125 276.0401306152344 C 366.4551696777344 285.37762451171875 377.91998291015625 294.61309814453125 390.8047180175781 300.4369201660156 C 401.3515930175781 308.2986145019531 412.5162353515625 311.0358581542969 422.17132568359375 312.5594482421875 C 426.36932373046875 316.5452880859375 423.91571044921875 321.2917175292969 414.855224609375 325.1490173339844 C 400.6256103515625 327.20111083984375 382.94757080078125 327.729736328125 363.29400634765625 327.0494689941406 C 342.91668701171875 325.71429443359375 322.60595703125 323.85491943359375 302.6295166015625 321.91351318359375 C 282.66094970703125 320.7503356933594 262.5830993652344 320.822509765625 242.30807495117188 322.1168518066406 C 221.99014282226562 323.9342346191406 201.94049072265625 325.829833984375 182.52481079101562 327.62030029296875 C 164.52944946289062 329.1923522949219 149.23497009277344 328.89044189453125 137.7754364013672 323.6488952636719 C 131.136474609375 312.0482482910156 129.84620666503906 299.3923645019531 133.96290588378906 291.1134948730469 C 143.82151794433594 293.7364807128906 147.39602661132812 293.5450439453125 141.74012756347656 287.01324462890625 C 135.29530334472656 280.08935546875 138.23284912109375 277.6511535644531 152.8345947265625 277.84197998046875 C 170.01693725585938 270.86181640625 187.65223693847656 265.0815734863281 203.5320587158203 264.0485534667969 C 213.5099334716797 267.7665710449219 214.21583557128906 274.3243103027344 208.18875122070312 282.8593444824219 C 200.3927001953125 291.8574523925781 197.99920654296875 301.5235595703125 202.5962677001953 310.1690368652344 C 211.91567993164062 313.67828369140625 222.878662109375 311.9902648925781 233.1145477294922 304.44281005859375 C 244.58811950683594 297.33221435546875 257.1424865722656 293.95159912109375 268.5841369628906 293.1690979003906 C 276.5916748046875 292.2447204589844 280.0190734863281 292.3122863769531 277.83477783203125 293.1006164550781 C 270.1561279296875 294.3070068359375 259.3060607910156 295.2037353515625 248.88430786132812 294.20684814453125 C 242.32254028320312 287.8110656738281 240.8561248779297 277.85968017578125 245.10720825195312 269.4119567871094 C 257.0303649902344 265.51068115234375 264.25592041015625 257.2720947265625 264.2855529785156 245.5280303955078 C 255.7907257080078 238.88485717773438 244.01707458496094 237.13047790527344 233.47879028320312 240.231689453125 C 227.10948181152344 232.99952697753906 227.4212188720703 220.91622924804688 235.87078857421875 210.298828125 C 250.9759063720703 205.14781188964844 269.583740234375 203.8241729736328 288.37420654296875 205.2257843017578 C 304.77911376953125 208.43206787109375 317.9922180175781 208.33343505859375 325.7283630371094 205.26202392578125 C 326.6277160644531 198.76805114746094 321.0201416015625 192.89382934570312 313.9312744140625 186.46400451660156 C 309.53857421875 177.6619110107422 303.0643615722656 172.0742950439453 296.0415954589844 170.9380340576172 C 290.8178405761719 174.48388671875 287.2217712402344 180.8546142578125 283.0171203613281 184.66061401367188 C 278.39459228515625 185.20338439941406 276.14080810546875 184.23265075683594 278.1312255859375 184.10800170898438 C 283.97705078125 183.12362670898438 290.48809814453125 183.4035186767578 293.8038635253906 188.525390625 C 290.5450439453125 197.25633239746094 280.65631103515625 204.35848999023438 265.3654479980469 205.5289306640625 C 249.29086303710938 200.44461059570312 236.86436462402344 191.60658264160156 232.45452880859375 180.60989379882812 C 237.9658660888672 173.43423461914062 251.99888610839844 172.28228759765625 269.8201599121094 172.6580810546875 C 287.63507080078125 167.37841796875 305.4393005371094 164.71389770507812 323.57684326171875 167.13729858398438 C 340.17401123046875 166.6732635498047 356.11663818359375 160.9290008544922 371.49725341796875 157.9127655029297 C 383.34576416015625 157.30038452148438 390.5495910644531 156.3186798095703 392.8408203125 151.81661987304688 C 391.3285217285156 143.36297607421875 386.6661071777344 133.5282745361328 379.7662658691406 124.31416320800781 C 376.9609680175781 112.3816146850586 373.8179931640625 99.33805084228516 372.25543212890625 85.43900299072266 C 376.10064697265625 70.1976089477539 381.72119140625 56.90493392944336 383.2239685058594 48.891395568847656 C 378.15570068359375 50.5073127746582 372.3572998046875 51.4481201171875 368.24322509765625 45.40126419067383 C 363.0235900878906 37.34096145629883 356.66400146484375 32.539737701416016 350.08929443359375 33.63799285888672 C 344.4648742675781 36.64043426513672 341.63873291015625 39.68921661376953 341.5560607910156 -7.9909987449646" stroke-width="0.0" fill="rgb(41, 56, 42)" opacity="0.9999907" stroke="rgb(128, 181, 211)" stroke-opacity="0.6891925" stroke-linecap="round" stroke-linejoin="round"/>
    <path d="M 80.42420959472656 149.8875732421875 C 80.61804962158203 151.7549285888672 80.63693237304688 153.26266479492188 80.91576385498047 154.68397521972656 C 81.4074935913086 156.12451171875 81.92022705078125 157.51434326171875 82.38455200195312 158.80670166015625 C 82.80814361572266 160.17291259765625 83.17958068847656 161.63294982910156 83.40090942382812 163.11984252929688 C 83.41631317138672 164.59283447265625 83.59098815917969 166.10890197753906 83.85223388671875 167.62603759765625 C 83.82000732421875 169.11985778808594 83.50912475585938 170.62118530273438 82.96572875976562 172.22499084472656 C 82.19064331054688 174.02879333496094 81.31951904296875 175.94866943359375 80.36155700683594 177.67462158203125 C 79.28325653076172 178.93455505371094 78.22084045410156 179.67266845703125 77.36289978027344 179.81539916992188 C 77.46556854248047 179.15176391601562 77.30526733398438 178.02902221679688 76.89325714111328 176.3393096923828 C 77.35140991210938 174.0341796875 77.88013458251953 171.43167114257812 78.12403869628906 169.395263671875 C 77.55948638916016 168.46359252929688 76.38191986083984 168.74559020996094 74.8634262084961 169.05064392089844 C 73.88928985595703 169.27601623535156 73.46393585205078 169.65940856933594 73.30268859863281 169.77740478515625 C 73.3327865600586 168.88038635253906 73.00496673583984 167.4145050048828 73.17798614501953 165.74635314941406 C 73.63145446777344 163.99058532714844 74.0167236328125 162.21722412109375 74.50968933105469 160.21629333496094 C 74.86468505859375 158.01388549804688 74.77434539794922 156.23216247558594 75.11418151855469 154.65301513671875 C 76.00176239013672 153.31494140625 77.38359069824219 151.64161682128906 80.42420959472656 149.8875732421875" stroke-width="0.0" fill="rgb(128, 130, 124)" opacity="0.99933505" stroke="rgb(141, 170, 175)" stroke-opacity="0.75550807" stroke-linecap="round" stroke-linejoin="round"/>
    <path d="M 117.31558990478516 292.0923156738281 C 117.2705078125 294.045166015625 117.41117858886719 295.32666015625 117.77696990966797 296.2720642089844 C 118.15520477294922 296.64971923828125 118.45005798339844 297.2065124511719 118.98126983642578 297.689697265625 C 119.7520980834961 298.3109436035156 120.97399139404297 298.9375305175781 122.50929260253906 299.3304138183594 C 123.81954193115234 299.53997802734375 125.20619201660156 300.2551574707031 125.96217346191406 301.47003173828125 C 125.23033905029297 302.7373046875 124.01160430908203 304.2872619628906 122.39356231689453 306.04486083984375 C 120.59821319580078 306.06109619140625 118.92086029052734 305.2521057128906 116.87178802490234 304.13165283203125 C 114.56883239746094 304.2895812988281 111.98706817626953 304.2720642089844 110.46003723144531 304.3839416503906 C 110.63180541992188 303.4710388183594 110.865234375 302.2733154296875 111.32279205322266 300.90728759765625 C 112.20687103271484 300.7358093261719 111.95774841308594 300.1302490234375 110.65850067138672 299.0649108886719 C 108.68340301513672 298.6605529785156 106.69280242919922 298.52191162109375 105.35405731201172 298.2718505859375 C 104.90780639648438 297.6603088378906 105.60474395751953 296.23992919921875 106.79161834716797 294.893310546875 C 107.85110473632812 294.10223388671875 108.8099594116211 293.771240234375 109.89110565185547 293.72015380859375 C 111.00926971435547 294.2859802246094 111.68342590332031 295.24017333984375 112.48721313476562 295.5528259277344 C 113.579345703125 295.7315368652344 114.63642883300781 295.69854736328125 114.94800567626953 294.9375 C 114.88538360595703 293.5527648925781 114.62923431396484 292.7193603515625 117.31558990478516 292.0923156738281" stroke-width="0.0" fill="rgb(125, 133, 126)" opacity="0.99949217" stroke="rgb(187, 140, 107)" stroke-opacity="0.90679836" stroke-linecap="round" stroke-linejoin="round"/>
    <path d="M 88.60687255859375 118.9696044921875 C 89.27149963378906 119.69378662109375 89.92692565917969 120.52510833740234 90.54207611083984 121.4247817993164 C 91.09576416015625 122.32869720458984 91.57547760009766 123.26807403564453 91.9206314086914 124.26903533935547 C 92.04773712158203 125.32589721679688 91.9015121459961 126.39289093017578 91.59252166748047 127.41035461425781 C 91.11202239990234 128.41905212402344 90.36845397949219 129.36865234375 89.33503723144531 130.2478790283203 C 88.08226013183594 131.11534118652344 86.75232696533203 131.7637939453125 85.58943939208984 131.9813690185547 C 84.5197525024414 131.98825073242188 83.55904388427734 131.7154083251953 82.96465301513672 130.9801788330078 C 82.59439086914062 130.40757751464844 81.95162963867188 129.99057006835938 81.12925720214844 130.52664184570312 C 80.14126586914062 130.63430786132812 79.14683532714844 130.4345703125 78.33195495605469 130.37020874023438 C 77.53783416748047 130.630859375 76.00636291503906 130.01812744140625 72.796142578125 129.10870361328125 C 68.69532012939453 129.91055297851562 65.02313232421875 130.8089599609375 63.22975540161133 130.06275939941406 C 64.08204650878906 128.962890625 66.57678985595703 127.87786102294922 69.51838684082031 126.24547576904297 C 71.43399047851562 124.02288055419922 72.74771118164062 122.26061248779297 73.53020477294922 121.47024536132812 C 74.63758087158203 121.60953521728516 76.33460998535156 122.1992416381836 78.21849822998047 122.86953735351562 C 79.9743881225586 123.5273666381836 80.86701965332031 124.16883850097656 80.9635238647461 124.69352722167969 C 80.54593658447266 125.1597900390625 79.63856506347656 125.49119567871094 78.92489624023438 125.4308090209961 C 78.83494567871094 125.11936950683594 79.20951843261719 124.65719604492188 79.45455169677734 123.97413635253906 C 79.32148742675781 123.21849060058594 79.2151870727539 122.64301300048828 78.85578155517578 122.1593017578125 C 78.40292358398438 121.99971771240234 77.76161193847656 122.07723999023438 76.93194580078125 122.18724060058594 C 76.02362060546875 122.34368896484375 75.04063415527344 122.59263610839844 74.1119155883789 122.8455810546875 C 73.395263671875 123.03862762451172 72.9453125 123.20177459716797 72.83072662353516 123.32479858398438 C 73.11456298828125 123.38648986816406 73.70220947265625 123.3475112915039 74.44734191894531 123.22097778320312 C 75.32022857666016 123.02394104003906 76.36743927001953 122.75336456298828 77.5649642944336 122.40780639648438 C 78.87787628173828 121.98149871826172 80.27902221679688 121.47114562988281 81.75331115722656 120.88292694091797 C 83.27500915527344 120.21939086914062 84.7977066040039 119.5143051147461 88.60687255859375 118.9696044921875" stroke-width="0.0" fill="rgb(103, 131, 143)" opacity="0.99928874" stroke="rgb(158, 155, 125)" stroke-opacity="0.18493003" stroke-linecap="round" stroke-linejoin="round"/>
    <path d="M 108.58589172363281 108.99739837646484 C 109.09708404541016 109.6359634399414 109.53875732421875 109.65768432617188 109.82746124267578 109.97828674316406 C 109.51508331298828 110.68711853027344 108.6773910522461 111.6915054321289 107.54679870605469 112.87670135498047 C 106.35137939453125 114.1889419555664 105.1406478881836 115.34883117675781 103.96304321289062 116.31402587890625 C 102.93270111083984 117.06233978271484 102.04029846191406 117.53690338134766 101.05696105957031 117.82613372802734 C 99.85224914550781 118.05122375488281 98.407470703125 118.23841857910156 96.74675750732422 118.34310150146484 C 94.92499542236328 118.3238296508789 93.08234405517578 118.34977722167969 91.22173309326172 118.20022583007812 C 89.38579559326172 117.57494354248047 87.76615905761719 116.76927947998047 86.48886108398438 116.0374984741211 C 85.59322357177734 115.38579559326172 85.2002182006836 114.73956298828125 85.4574203491211 114.08501434326172 C 86.87489318847656 113.29232025146484 88.7800064086914 112.99696350097656 90.44458770751953 112.30279541015625 C 92.25506591796875 111.06078338623047 93.8982925415039 110.12476348876953 95.53762817382812 109.94683837890625 C 96.85792541503906 110.21502685546875 97.92108917236328 110.50047302246094 98.43269348144531 110.59668731689453 C 98.74241638183594 110.3865966796875 98.74559020996094 110.04890441894531 98.47525024414062 109.89680480957031 C 98.68043518066406 110.03840637207031 98.71553039550781 109.4291763305664 108.58589172363281 108.99739837646484" stroke-width="0.0" fill="rgb(102, 132, 145)" opacity="0.9999942" stroke="rgb(208, 149, 146)" stroke-opacity="0.06581256" stroke-linecap="round" stroke-linejoin="round"/>
    <path d="M 188.98292541503906 250.73895263671875 C 189.92152404785156 249.88809204101562 190.775634765625 249.26332092285156 191.734619140625 249.1913299560547 C 192.78826904296875 249.53701782226562 194.09324645996094 249.69390869140625 195.37893676757812 249.78993225097656 C 196.85142517089844 249.90159606933594 198.59835815429688 249.595947265625 199.93666076660156 249.6641387939453 C 200.850830078125 250.8041534423828 201.33480834960938 251.83526611328125 201.60345458984375 252.7884979248047 C 201.1608428955078 253.84274291992188 200.1112518310547 255.00128173828125 198.6221466064453 256.0104675292969 C 197.0196075439453 256.62109375 195.12538146972656 257.480712890625 193.4083709716797 258.6058654785156 C 191.95863342285156 258.4413146972656 190.44683837890625 258.14459228515625 189.14320373535156 258.58807373046875 C 187.41929626464844 258.3247985839844 185.47857666015625 258.39630126953125 183.64401245117188 258.41729736328125 C 182.18045043945312 258.23980712890625 181.373291015625 257.1897888183594 181.0725555419922 256.4026794433594 C 181.71267700195312 255.199462890625 183.25294494628906 253.75338745117188 185.1829376220703 252.2207794189453 C 187.35523986816406 250.36415100097656 189.5816192626953 248.4299774169922 188.98292541503906 250.73895263671875" stroke-width="0.0" fill="rgb(114, 122, 120)" opacity="0.99999535" stroke="rgb(219, 248, 55)" stroke-opacity="0.7712805" stroke-linecap="round" stroke-linejoin="round"/>
    <path d="M 222.9497833251953 93.01297760009766 C 226.0303955078125 94.10359191894531 228.95562744140625 94.3593521118164 231.0618133544922 94.77166748046875 C 231.20846557617188 95.4646987915039 229.89794921875 96.96480560302734 228.24078369140625 98.25823211669922 C 227.21859741210938 99.20072937011719 227.3050537109375 100.84952545166016 227.49195861816406 102.70291137695312 C 227.48085021972656 104.22503662109375 226.66757202148438 104.92102813720703 225.24697875976562 105.43439483642578 C 223.56170654296875 105.7013931274414 221.88302612304688 105.80734252929688 220.44869995117188 105.74292755126953 C 219.37429809570312 105.33092498779297 218.4744110107422 104.64265441894531 217.48513793945312 104.04994201660156 C 216.30406188964844 103.70939636230469 215.61187744140625 103.31257629394531 215.6584930419922 102.65209197998047 C 215.6218719482422 101.24909210205078 215.49533081054688 99.43199920654297 215.45777893066406 98.59115600585938 C 216.1892547607422 98.72047424316406 217.6434783935547 98.66822052001953 218.76417541503906 98.3734359741211 C 218.87904357910156 96.95155334472656 219.5181884765625 96.32502746582031 220.9669189453125 96.2938232421875 C 221.95960998535156 96.33028411865234 222.40219116210938 95.84502410888672 222.9497833251953 93.01297760009766" stroke-width="0.0" fill="rgb(103, 130, 146)" opacity="0.9992388" stroke="rgb(72, 197, 85)" stroke-opacity="0.34560654" stroke-linecap="round" stroke-linejoin="round"/>
    <path d="M 72.94061279296875 179.48951721191406 C 72.64078521728516 178.56610107421875 72.95716094970703 178.1565399169922 73.23383331298828 177.8388214111328 C 74.06791687011719 178.3816375732422 74.37298583984375 179.1967010498047 74.04730224609375 180.8035888671875 C 73.65741729736328 182.67544555664062 73.50305938720703 184.27691650390625 73.82261657714844 185.59519958496094 C 74.42777252197266 186.3892059326172 75.34353637695312 186.67335510253906 76.06868743896484 186.5378875732422 C 76.3547134399414 186.8020477294922 76.47998809814453 187.36289978027344 76.67584991455078 188.38682556152344 C 77.19286346435547 189.7034454345703 76.94474792480469 191.01951599121094 76.15940856933594 192.7670135498047 C 75.33342742919922 194.67662048339844 74.56260681152344 196.3816680908203 74.35357666015625 198.4591064453125 C 74.92073059082031 199.8066864013672 75.34233856201172 201.19053649902344 75.5538558959961 202.6380615234375 C 75.89247131347656 203.91513061523438 75.93766784667969 204.67349243164062 75.71455383300781 205.03683471679688 C 75.23072052001953 205.42758178710938 74.53192138671875 205.39639282226562 73.5470962524414 204.6251220703125 C 73.28241729736328 202.99412536621094 74.02208709716797 201.83868408203125 73.8882827758789 201.14471435546875 C 72.69657897949219 201.5071258544922 72.04509735107422 202.0436553955078 71.1085433959961 202.60595703125 C 70.10821533203125 203.13568115234375 69.2169418334961 203.28395080566406 68.51741790771484 202.88189697265625 C 68.08081817626953 202.00851440429688 67.9044418334961 200.81085205078125 68.11389923095703 199.44839477539062 C 68.63998413085938 198.1246337890625 69.60245513916016 197.20254516601562 70.56928253173828 196.388916015625 C 70.83248138427734 195.5842742919922 70.44882202148438 194.90821838378906 70.41151428222656 194.183349609375 C 70.64098358154297 193.369140625 70.81877136230469 192.45669555664062 71.07637786865234 191.6432342529297 C 71.25668334960938 190.81912231445312 71.23971557617188 190.2135772705078 71.03113555908203 189.77719116210938 C 70.39710998535156 189.20811462402344 69.64615631103516 188.31663513183594 69.35317993164062 187.3606719970703 C 69.3404769897461 186.4825439453125 69.46808624267578 185.25469970703125 69.81641387939453 183.99072265625 C 70.41650390625 182.29737854003906 70.84107208251953 180.56031799316406 71.19895935058594 178.57077026367188 C 71.50611114501953 176.6080780029297 72.47399139404297 174.5757598876953 73.33164978027344 172.25050354003906 C 73.94132232666016 169.79794311523438 74.57311248779297 166.9919891357422 72.94061279296875 179.48951721191406" stroke-width="0.0" fill="rgb(131, 134, 131)" opacity="0.9997237" stroke="rgb(76, 125, 96)" stroke-opacity="0.0067758006" stroke-linecap="round" stroke-linejoin="round"/>
    <path d="M 275.8760986328125 11.401562690734863 C 267.03997802734375 13.789739608764648 258.83642578125 13.765544891357422 252.32980346679688 13.662344932556152 C 247.8403778076172 14.336709022521973 244.72752380371094 14.011422157287598 242.93910217285156 14.62160587310791 C 241.74525451660156 15.45271110534668 241.8970947265625 16.503681182861328 242.6474151611328 17.067432403564453 C 244.05592346191406 17.295516967773438 245.62188720703125 16.596473693847656 247.6211395263672 15.99072265625 C 250.33384704589844 15.442726135253906 253.17630004882812 15.349957466125488 256.2664489746094 15.363266944885254 C 259.4064025878906 15.791047096252441 261.52410888671875 16.599796295166016 261.9736022949219 17.935888290405273 C 260.0033264160156 18.860761642456055 257.09124755859375 19.25897216796875 254.5322265625 19.107009887695312 C 252.3904266357422 19.652786254882812 250.30520629882812 19.599214553833008 247.86050415039062 19.60907554626465 C 245.13912963867188 19.204124450683594 242.40135192871094 20.303293228149414 239.80661010742188 21.434101104736328 C 236.72459411621094 21.956045150756836 233.82830810546875 21.777193069458008 232.11866760253906 21.068681716918945 C 232.44076538085938 20.415515899658203 234.10455322265625 20.057458877563477 236.4815673828125 19.345279693603516 C 238.6986846923828 18.688112258911133 240.75537109375 17.64344596862793 242.3526611328125 16.36237907409668 C 242.5011749267578 15.37925910949707 241.37913513183594 14.49708080291748 239.3276824951172 14.647331237792969 C 236.9346923828125 14.715805053710938 235.18478393554688 14.49770450592041 234.2730255126953 14.108675956726074 C 234.7013702392578 13.223211288452148 235.8850860595703 13.111136436462402 238.57984924316406 13.159300804138184 C 241.6875762939453 12.260843276977539 244.75045776367188 9.498905181884766 275.8760986328125 11.401562690734863" stroke-width="0.0" fill="rgb(108, 169, 107)" opacity="0.99980444" stroke="rgb(125, 126, 89)" stroke-opacity="0.7427753" stroke-linecap="round" stroke-linejoin="round"/>
  </g>
</svg>
