<?xml version="1.0" ?>
<svg xmlns="http://www.w3.org/2000/svg" version="1.1" width="512" height="512">
  <defs/>
  <g>
    <path d="M 334.0 250.0 C 335.0 250.0 336.0 250.0 337.0 250.0 C 337.0 251.0 337.0 252.0 336.0 253.0 C 335.0 254.0 334.0 254.0 333.0 255.0 C 332.0 256.0 331.0 256.0 330.0 257.0 C 329.0 258.0 329.0 259.0 329.0 260.0 C 329.0 261.0 330.0 262.0 331.0 262.0 C 331.0 263.0 332.0 264.0 333.0 263.0 C 333.0 262.0 334.0 262.0 335.0 262.0 C 336.0 262.0 337.0 262.0 338.0 261.0 C 339.0 261.0 340.0 261.0 341.0 261.0 C 342.0 260.0 343.0 260.0 344.0 260.0 C 345.0 259.0 346.0 259.0 347.0 258.0 C 348.0 258.0 349.0 257.0 350.0 256.0 C 351.0 256.0 352.0 255.0 353.0 255.0 C 354.0 255.0 355.0 255.0 356.0 255.0 C 357.0 256.0 358.0 255.0 358.0 254.0 C 359.0 253.0 358.0 252.0 358.0 251.0 C 358.0 250.0 359.0 250.0 360.0 250.0 C 360.0 251.0 360.0 252.0 361.0 253.0 C 361.0 254.0 361.0 255.0 360.0 256.0 C 359.0 256.0 358.0 257.0 358.0 258.0 C 358.0 259.0 357.0 260.0 357.0 261.0 C 356.0 261.0 355.0 262.0 355.0 263.0 C 354.0 263.0 353.0 264.0 352.0 264.0 C 351.0 265.0 350.0 265.0 349.0 266.0 C 349.0 267.0 348.0 268.0 348.0 269.0 C 347.0 269.0 346.0 269.0 345.0 268.0 C 344.0 269.0 344.0 270.0 344.0 271.0 C 343.0 271.0 342.0 271.0 342.0 270.0 C 341.0 269.0 340.0 270.0 340.0 271.0 C 340.0 272.0 340.0 273.0 339.0 273.0 C 338.0 274.0 337.0 274.0 336.0 274.0 C 335.0 274.0 335.0 273.0 334.0 272.0 C 333.0 273.0 333.0 274.0 333.0 275.0 C 333.0 276.0 332.0 276.0 331.0 277.0 C 330.0 277.0 329.0 278.0 328.0 278.0 C 327.0 278.0 326.0 278.0 325.0 277.0 C 324.0 277.0 324.0 276.0 324.0 275.0 C 323.0 274.0 322.0 274.0 321.0 275.0 C 321.0 276.0 321.0 277.0 321.0 278.0 C 321.0 279.0 320.0 279.0 319.0 279.0 C 318.0 279.0 317.0 279.0 317.0 278.0 C 317.0 277.0 318.0 277.0 319.0 276.0 C 318.0 275.0 317.0 275.0 316.0 275.0 C 315.0 275.0 315.0 274.0 314.0 273.0 C 312.0 274.0 310.0 274.0 308.0 274.0 C 308.0 272.0 306.0 271.0 306.0 273.0 C 306.0 275.0 305.0 276.0 304.0 275.0 C 304.0 273.0 302.0 273.0 300.0 274.0 C 298.0 273.0 297.0 271.0 296.0 269.0 C 296.0 267.0 297.0 266.0 299.0 266.0 C 301.0 265.0 299.0 264.0 297.0 264.0 C 296.0 263.0 296.0 261.0 298.0 261.0 C 300.0 261.0 302.0 260.0 304.0 259.0 C 304.0 257.0 306.0 257.0 307.0 259.0 C 309.0 258.0 309.0 256.0 311.0 256.0 C 313.0 256.0 315.0 256.0 317.0 256.0 C 319.0 256.0 321.0 255.0 323.0 255.0 C 325.0 254.0 327.0 254.0 329.0 253.0 C 331.0 252.0 333.0 250.0 334.0 250.0" stroke-width="0.0" fill="rgb(235, 32, 66)" opacity="1.0" stroke="rgb(148, 129, 187)" stroke-opacity="0.3644811" stroke-linecap="round" stroke-linejoin="round"/>
  </g>
</svg>
