<?xml version="1.0" ?>
<svg xmlns="http://www.w3.org/2000/svg" version="1.1" width="512" height="512">
  <defs/>
  <g>
    <path d="M 63.38607406616211 262.4691162109375 C 70.20349884033203 262.6766357421875 73.55353546142578 268.9761962890625 77.38211059570312 271.7998046875 C 79.99102020263672 271.2368469238281 86.13557434082031 277.1756591796875 87.79135131835938 279.5056457519531 C 88.61327362060547 280.6314697265625 91.86425018310547 281.3837890625 91.09529876708984 281.9010009765625 C 91.6247329711914 281.30572509765625 89.20700073242188 281.0145263671875 87.6798324584961 279.4869079589844 C 87.3219223022461 277.92913818359375 82.57305145263672 276.6833801269531 76.30583953857422 266.2732238769531 C 76.80072021484375 256.9398193359375 77.55785369873047 269.46685791015625 58.78478240966797 253.87278747558594 C 63.97439193725586 242.2584991455078 69.77901458740234 236.8749542236328 80.0142822265625 231.167724609375 C 92.31742858886719 235.82240295410156 98.68010711669922 241.37518310546875 104.3891372680664 243.9907989501953 C 114.61053466796875 247.09620666503906 125.34305572509766 250.812255859375 135.27719116210938 256.1214599609375 C 140.4592742919922 260.6282043457031 152.4830322265625 262.0896911621094 146.02239990234375 266.5825500488281 C 159.49827575683594 268.9079895019531 166.0369873046875 274.56121826171875 171.43336486816406 277.8040466308594 C 175.61260986328125 280.8634033203125 184.00462341308594 286.593505859375 188.94979858398438 290.9719543457031 C 192.28353881835938 293.6983642578125 197.85890197753906 300.34600830078125 204.43084716796875 306.5434875488281 C 198.7836456298828 304.1470031738281 203.8359375 307.19366455078125 204.43621826171875 306.4481506347656 C 206.2908935546875 311.2615661621094 212.37493896484375 313.7062683105469 212.13209533691406 318.56182861328125 C 212.21876525878906 313.48370361328125 213.4994354248047 318.8560485839844 212.0999755859375 315.0017395019531 C 216.73257446289062 320.99212646484375 221.00259399414062 325.264892578125 217.94749450683594 322.0216979980469 C 221.09976196289062 325.743408203125 223.986572265625 328.8199157714844 227.2917938232422 332.5797424316406 C 232.39126586914062 338.9395751953125 236.25946044921875 344.31317138671875 238.103515625 346.5763244628906 C 240.70677185058594 351.27996826171875 246.72166442871094 357.6970520019531 251.55006408691406 362.1957092285156 C 255.7919921875 366.79083251953125 260.4647216796875 372.52001953125 265.89599609375 377.52685546875 C 269.05572509765625 380.1238098144531 273.1382751464844 384.1214599609375 278.2116394042969 388.33740234375 C 277.6331787109375 387.3847961425781 274.8942565917969 387.31640625 274.9392395019531 387.7752685546875 C 270.1653747558594 387.9867858886719 264.0958251953125 387.5461120605469 259.2435607910156 388.9337158203125 C 256.9830627441406 389.0491943359375 250.15927124023438 388.3320617675781 244.0077667236328 389.4221496582031 C 248.17108154296875 388.82763671875 243.89505004882812 387.80926513671875 245.0342559814453 388.67181396484375 C 244.37759399414062 388.0528869628906 243.92332458496094 389.27752685546875 247.84616088867188 388.9065246582031 C 249.1575164794922 388.0713195800781 255.67137145996094 389.3835144042969 250.78517150878906 389.10137939453125 C 255.5635986328125 389.2563171386719 263.3988037109375 388.4668273925781 269.3423767089844 388.04193115234375 C 273.0215759277344 387.980712890625 277.9154357910156 387.4098815917969 276.6515197753906 386.8547058105469 C 283.5406799316406 392.1412658691406 290.45001220703125 396.18743896484375 294.6253662109375 398.81048583984375 C 297.79864501953125 400.6827392578125 305.722900390625 404.3514404296875 309.8493347167969 406.3072509765625 C 313.5112609863281 407.5066223144531 325.9289245605469 409.8424377441406 330.7633361816406 412.1552734375 C 334.9730224609375 412.5624084472656 340.9827575683594 415.45770263671875 344.4912109375 416.5694274902344 C 346.6430969238281 417.0634460449219 350.6889953613281 419.3806457519531 356.2246398925781 420.8905334472656 C 353.7232971191406 420.4369812011719 349.6526184082031 420.46258544921875 348.9664001464844 420.40899658203125 C 340.2157287597656 422.6326904296875 332.9812927246094 421.4595947265625 321.86309814453125 423.0072326660156 C 319.0125427246094 423.2743835449219 312.32733154296875 423.8930969238281 310.1031799316406 424.17144775390625 C 301.1348571777344 423.9776306152344 293.8734130859375 423.6269836425781 285.6982727050781 422.16143798828125 C 282.4444580078125 420.8791198730469 273.07666015625 418.84881591796875 268.6224060058594 416.020263671875 C 262.9369812011719 413.9705810546875 256.7179260253906 411.4524230957031 251.59390258789062 408.3908996582031 C 243.2736358642578 405.3277282714844 236.68106079101562 402.147705078125 228.6852264404297 399.37469482421875 C 225.1298370361328 397.84783935546875 216.04217529296875 395.3047790527344 211.9188690185547 392.9425048828125 C 206.99484252929688 391.33587646484375 203.5404510498047 388.42523193359375 200.53668212890625 385.0577087402344 C 197.6450653076172 379.2370300292969 201.8136444091797 380.7013854980469 207.04872131347656 382.5552062988281 C 210.926025390625 384.25244140625 213.6563720703125 383.6374816894531 212.00631713867188 382.15692138671875 C 207.7701416015625 378.4336242675781 203.2657928466797 377.7689514160156 201.9773712158203 377.8519592285156 C 192.2880859375 373.527587890625 184.28990173339844 375.74627685546875 190.5640106201172 372.0552978515625 C 185.45730590820312 366.4403991699219 180.8902130126953 359.4556579589844 177.63941955566406 356.8269348144531 C 176.0850830078125 354.711669921875 170.70765686035156 352.5791931152344 170.0206756591797 352.65057373046875 C 164.176513671875 352.7669677734375 159.24172973632812 352.6673583984375 151.09222412109375 350.5531311035156 C 164.97181701660156 342.4131164550781 148.91676330566406 348.7095642089844 153.13095092773438 340.13330078125 C 149.9398651123047 336.4117736816406 144.6586151123047 335.4084777832031 143.6845245361328 334.42742919921875 C 138.36874389648438 333.05438232421875 134.76690673828125 330.0173034667969 132.43516540527344 329.1483154296875 C 128.5369415283203 326.3093566894531 122.80953216552734 322.329345703125 120.368408203125 319.8242492675781 C 118.32597351074219 317.42071533203125 118.51757049560547 313.3182067871094 116.42609405517578 311.09356689453125 C 114.00553894042969 308.82232666015625 109.86742401123047 305.73846435546875 109.46155548095703 305.80792236328125 C 106.01964569091797 303.718505859375 100.52494812011719 299.297607421875 96.49437713623047 296.1848449707031 C 93.60173034667969 294.53802490234375 87.98921966552734 290.216552734375 81.45333099365234 287.4967346191406 C 78.69010162353516 285.2295227050781 65.83014678955078 275.78228759765625 63.38607406616211 262.4691162109375" stroke-width="0.0" fill="rgb(27, 183, 226)" opacity="0.99994844" stroke="rgb(207, 17, 164)" stroke-opacity="0.43710604" stroke-linecap="round" stroke-linejoin="round"/>
    <path d="M 85.82295227050781 30.189294815063477 C 87.10423278808594 30.046340942382812 88.55105590820312 30.224456787109375 89.99147033691406 30.65557289123535 C 91.71942138671875 31.142667770385742 93.46641540527344 31.987268447875977 95.2087173461914 33.18114471435547 C 97.21570587158203 34.29682540893555 99.4164810180664 35.894588470458984 101.78954315185547 37.677913665771484 C 104.4893798828125 39.698116302490234 107.29086303710938 41.6720085144043 110.3436508178711 43.97651290893555 C 113.26123046875 46.58739471435547 116.41602325439453 49.17041015625 119.98113250732422 51.632083892822266 C 123.54439544677734 54.206912994384766 127.0146255493164 56.98759078979492 130.4049072265625 59.84558868408203 C 133.7790985107422 62.69541931152344 137.14671325683594 65.5481948852539 140.438720703125 68.3614501953125 C 143.67919921875 71.16972351074219 146.79092407226562 74.00180053710938 149.92425537109375 76.85469818115234 C 153.133056640625 79.58880615234375 156.31301879882812 82.37968444824219 159.15187072753906 85.3130111694336 C 162.020751953125 88.39619445800781 165.18197631835938 91.28616333007812 168.2971649169922 94.12005615234375 C 171.58953857421875 96.94989013671875 175.00680541992188 99.64704132080078 178.5605926513672 102.40472412109375 C 181.7268829345703 105.47112274169922 184.93319702148438 108.49647521972656 188.16497802734375 111.43917083740234 C 191.3520050048828 114.4328842163086 194.39125061035156 117.49468994140625 197.2344512939453 120.69153594970703 C 199.8496856689453 123.93807983398438 202.63418579101562 126.96981811523438 205.52305603027344 129.83457946777344 C 208.3514862060547 132.57984924316406 211.02651977539062 135.2771453857422 213.39166259765625 138.06661987304688 C 215.62950134277344 140.6786346435547 217.77081298828125 143.06729125976562 219.75457763671875 145.27978515625 C 221.58665466308594 147.33663940429688 223.25424194335938 149.46437072753906 224.8509979248047 151.6390380859375 C 226.52896118164062 153.92100524902344 228.44927978515625 156.6647186279297 230.7726287841797 159.99627685546875 C 233.61566162109375 163.89794921875 237.25521850585938 168.92677307128906 241.15692138671875 175.54884338378906 C 245.9315948486328 183.6822052001953 252.16517639160156 193.4219207763672 258.4519348144531 204.79019165039062 C 265.9153747558594 216.82098388671875 273.0877685546875 229.23904418945312 279.60009765625 241.45018005371094 C 283.09527587890625 252.1892547607422 282.7616271972656 261.1051330566406 277.99224853515625 266.75628662109375 C 269.49365234375 268.1687927246094 258.6746826171875 265.0486145019531 247.14157104492188 258.50543212890625 C 235.4113311767578 250.3614501953125 225.46388244628906 240.36752319335938 217.82455444335938 229.18109130859375 C 210.7663116455078 219.72645568847656 202.186767578125 213.61312866210938 193.55001831054688 209.7884979248047 C 186.92745971679688 206.0064697265625 182.55641174316406 202.3700408935547 180.8276824951172 199.2328643798828 C 181.74972534179688 197.26834106445312 184.55674743652344 196.76214599609375 188.4227752685547 197.45957946777344 C 192.62457275390625 198.8120880126953 196.22706604003906 200.03831481933594 198.2771453857422 200.19631958007812 C 198.24549865722656 198.73196411132812 196.05783081054688 196.62962341308594 192.05564880371094 194.2496795654297 C 186.77098083496094 191.1140594482422 181.16835021972656 187.5313262939453 175.21832275390625 184.066650390625 C 168.99014282226562 180.50831604003906 162.61358642578125 177.0260467529297 156.43882751464844 173.66455078125 C 150.7080535888672 170.45924377441406 145.46737670898438 167.0490264892578 140.92677307128906 163.66635131835938 C 137.24139404296875 160.4307098388672 134.56393432617188 157.36558532714844 132.84339904785156 154.74111938476562 C 132.16403198242188 152.94602966308594 132.60328674316406 152.15089416503906 134.42820739746094 152.09027099609375 C 137.2537384033203 152.86325073242188 140.8371124267578 154.0726318359375 144.9943389892578 155.62551879882812 C 149.5117645263672 157.29986572265625 154.12222290039062 158.7620391845703 158.41551208496094 160.09219360351562 C 162.15213012695312 161.05015563964844 165.01242065429688 161.93460083007812 166.87109375 162.34461975097656 C 167.61671447753906 161.44052124023438 166.8417205810547 160.44155883789062 164.61326599121094 159.17349243164062 C 161.31504821777344 157.39578247070312 157.63633728027344 154.9730682373047 153.3600311279297 152.18453979492188 C 148.43975830078125 149.8129119873047 142.7871551513672 147.6488494873047 137.11952209472656 145.79568481445312 C 131.71380615234375 143.62713623046875 126.59176635742188 140.9429931640625 121.50155639648438 137.98629760742188 C 116.38761138916016 135.22079467773438 112.03036499023438 132.28416442871094 108.8276138305664 128.965576171875 C 106.0270767211914 125.9312973022461 104.23020935058594 122.74153900146484 104.14368438720703 119.52323913574219 C 105.46281433105469 116.22901916503906 107.04316711425781 112.89568328857422 108.77912139892578 109.60332489013672 C 110.65202331542969 107.02790069580078 112.83478546142578 105.72651672363281 115.40644836425781 105.91852569580078 C 118.0591812133789 107.04302215576172 120.96463775634766 108.52107238769531 123.982421875 109.71376037597656 C 126.38046264648438 110.25099182128906 127.52678680419922 110.11785888671875 127.04739379882812 108.98553466796875 C 125.12037658691406 107.24925994873047 121.84821319580078 104.8887939453125 117.36400604248047 102.33683013916016 C 111.91790771484375 99.5389633178711 106.18157196044922 96.58631134033203 100.58406829833984 93.11735534667969 C 95.1524429321289 89.89783477783203 90.52344512939453 86.66783142089844 86.93282318115234 83.4859619140625 C 84.88443756103516 80.20703887939453 84.27703094482422 77.28475952148438 84.99781036376953 75.47795104980469 C 86.85442352294922 75.21175384521484 89.72176361083984 76.04745483398438 93.31532287597656 77.71727752685547 C 97.12223052978516 79.6270523071289 101.04655456542969 81.64419555664062 104.83497619628906 83.43739318847656 C 107.95826721191406 84.43433380126953 109.8978271484375 84.31608581542969 110.21247100830078 83.36064147949219 C 108.9447021484375 82.0453872680664 106.47457122802734 80.34086608886719 102.91638946533203 78.03215026855469 C 98.56437683105469 74.94058990478516 94.0393295288086 71.67293548583984 89.51280212402344 68.53440856933594 C 85.2131118774414 65.4499282836914 81.72653198242188 62.050899505615234 79.42196655273438 58.23200607299805 C 78.13660430908203 54.65888214111328 77.8172836303711 50.87782669067383 78.01983642578125 47.24661636352539 C 78.49412536621094 44.073028564453125 79.47399139404297 41.53221893310547 81.03594970703125 39.65374755859375 C 83.45283508300781 38.5268669128418 85.95692443847656 37.47560119628906 85.82295227050781 30.189294815063477" stroke-width="0.0" fill="rgb(27, 187, 228)" opacity="0.99775285" stroke="rgb(194, 118, 98)" stroke-opacity="0.86411303" stroke-linecap="round" stroke-linejoin="round"/>
    <path d="M 86.92817687988281 23.423091888427734 C 90.47583770751953 24.20138931274414 93.95159912109375 25.403064727783203 97.25492095947266 26.988927841186523 C 100.4551010131836 28.029048919677734 103.79325103759766 28.6468505859375 106.77848052978516 28.83161163330078 C 109.50569915771484 28.6729736328125 111.9393310546875 28.60590934753418 114.15402221679688 28.673492431640625 C 116.27012634277344 28.677257537841797 118.08019256591797 28.65540885925293 119.5099868774414 28.507659912109375 C 120.65032958984375 28.408676147460938 121.5570068359375 28.396221160888672 122.30833435058594 28.486692428588867 C 122.99408721923828 28.459901809692383 123.60051727294922 28.40817642211914 124.08194732666016 28.41574478149414 C 124.56873321533203 28.449295043945312 125.16643524169922 28.41973304748535 125.80851745605469 28.406158447265625 C 126.4356918334961 28.495145797729492 127.11578369140625 28.604021072387695 127.9014663696289 28.807178497314453 C 128.7456512451172 29.05323600769043 129.6715850830078 29.337501525878906 130.71011352539062 29.459491729736328 C 131.77139282226562 29.464956283569336 132.921142578125 29.671585083007812 134.25343322753906 29.987295150756836 C 135.7361602783203 30.37173080444336 137.36045837402344 30.683897018432617 139.0930938720703 30.990772247314453 C 140.91815185546875 31.50850486755371 142.8329315185547 32.176753997802734 144.92752075195312 32.86100769042969 C 147.1809844970703 33.58496856689453 149.53411865234375 34.1873779296875 152.08238220214844 34.750553131103516 C 154.83685302734375 35.48723220825195 157.55734252929688 36.346168518066406 160.2651824951172 37.342586517333984 C 163.15032958984375 38.284156799316406 166.24119567871094 39.07501983642578 169.3130645751953 40.071590423583984 C 172.37075805664062 41.253326416015625 175.4285888671875 42.33761978149414 178.6082000732422 43.4085578918457 C 181.80056762695312 44.501705169677734 185.00186157226562 45.75202560424805 188.17564392089844 47.1112060546875 C 191.2279815673828 48.53229522705078 194.31089782714844 50.062076568603516 197.51788330078125 51.59046936035156 C 200.63343811035156 53.09128189086914 203.63294982910156 54.69044876098633 206.65415954589844 56.38637161254883 C 209.61241149902344 58.13222885131836 212.629150390625 59.88664245605469 215.72264099121094 61.7140998840332 C 218.7379608154297 63.623870849609375 221.6105194091797 65.87030792236328 224.20379638671875 68.4218978881836 C 226.72691345214844 71.10438537597656 229.68927001953125 73.78089141845703 232.57591247558594 76.62753295898438 C 235.2026824951172 79.48872375488281 238.1417694091797 82.2358169555664 241.51829528808594 84.9721450805664 C 244.63059997558594 87.75157165527344 247.45095825195312 90.42848205566406 250.33116149902344 93.17742156982422 C 253.4874725341797 96.01734924316406 256.80419921875 98.54181671142578 259.81512451171875 100.87303924560547 C 262.964111328125 103.31206512451172 265.92425537109375 105.8997802734375 268.5072021484375 108.56175231933594 C 270.86114501953125 111.23465728759766 273.05584716796875 114.02420043945312 275.0018310546875 117.0843276977539 C 276.6729736328125 120.06622314453125 278.3542785644531 122.82808685302734 280.00628662109375 125.56153869628906 C 281.6357421875 128.21478271484375 283.4265441894531 130.7204132080078 285.2004699707031 133.13763427734375 C 286.9949645996094 135.62277221679688 288.75201416015625 138.2762451171875 290.5998840332031 141.20164489746094 C 292.4725341796875 144.47579956054688 294.1042175292969 148.31973266601562 295.7081604003906 152.74624633789062 C 296.9417724609375 157.8991241455078 298.1859436035156 163.7531280517578 300.1009826660156 170.35125732421875 C 303.1070556640625 177.41744995117188 306.93817138671875 184.93470764160156 310.6927185058594 193.20333862304688 C 313.2533874511719 202.2323760986328 314.4626770019531 211.86386108398438 314.787353515625 221.66351318359375 C 314.42010498046875 231.1408233642578 312.4320068359375 239.42642211914062 308.1780090332031 245.50570678710938 C 302.10211181640625 248.36119079589844 295.1344909667969 247.4347686767578 288.2737731933594 242.73422241210938 C 282.279541015625 235.1758270263672 276.9694519042969 226.14273071289062 271.9175720214844 216.66018676757812 C 266.8792419433594 207.7128448486328 261.98236083984375 199.4584197998047 257.59637451171875 192.00399780273438 C 253.725830078125 185.65267944335938 250.5358428955078 180.56175231933594 248.2000274658203 176.72015380859375 C 246.5819854736328 174.00323486328125 245.4405975341797 172.2552947998047 244.7781982421875 171.10142517089844 C 244.4195556640625 170.33212280273438 244.11643981933594 169.82997131347656 243.783935546875 169.3211669921875 C 243.30853271484375 168.68455505371094 242.6614532470703 167.69241333007812 241.800048828125 166.40342712402344 C 240.6321258544922 164.84373474121094 239.2362518310547 163.00350952148438 237.64329528808594 160.90821838378906 C 235.94175720214844 158.5280303955078 234.11456298828125 155.92767333984375 232.20077514648438 153.24398803710938 C 230.2449493408203 150.47418212890625 228.20632934570312 147.6841583251953 225.98377990722656 144.9661407470703 C 223.84872436523438 142.23614501953125 221.5288848876953 139.50308227539062 219.24281311035156 136.79681396484375 C 216.9028778076172 133.9355926513672 214.49462890625 131.1423797607422 211.9931182861328 128.3701934814453 C 209.39942932128906 125.56307220458984 206.77294921875 122.72149658203125 203.99574279785156 119.79845428466797 C 201.13449096679688 116.94635772705078 198.2909393310547 114.03636169433594 195.33963012695312 111.12975311279297 C 192.5288543701172 108.15604400634766 189.7213897705078 105.22712707519531 186.65306091308594 102.52291870117188 C 183.5384063720703 99.99090576171875 180.1499786376953 97.60893249511719 177.10206604003906 95.15798950195312 C 174.20458984375 92.64593505859375 171.27978515625 90.13091278076172 168.44497680664062 87.55481719970703 C 165.51190185546875 84.97776794433594 162.76205444335938 82.37902069091797 160.11219787597656 79.7852554321289 C 157.33856201171875 77.2324447631836 154.6768798828125 74.46302795410156 151.9854278564453 71.73827362060547 C 149.11392211914062 69.3672103881836 146.0999298095703 66.91339874267578 143.2308349609375 64.10887908935547 C 140.33863830566406 61.726646423339844 137.36817932128906 59.22072982788086 134.34861755371094 56.582374572753906 C 131.13873291015625 54.0983772277832 127.87738800048828 51.72225570678711 124.82496643066406 49.30297088623047 C 121.6562728881836 46.90520095825195 118.36041259765625 44.49973678588867 115.2189712524414 42.05188751220703 C 112.29698944091797 39.58339309692383 109.56025695800781 37.1214599609375 107.13189697265625 34.6226921081543 C 104.5657730102539 32.272396087646484 101.762451171875 30.161235809326172 86.92817687988281 23.423091888427734" stroke-width="0.0" fill="rgb(18, 182, 225)" opacity="0.99753386" stroke="rgb(77, 251, 63)" stroke-opacity="0.04171924" stroke-linecap="round" stroke-linejoin="round"/>
    <path d="M 116.0 212.0 C 117.0 212.0 118.0 212.0 121.0 212.0 C 124.0 213.0 127.0 214.0 130.0 215.0 C 133.0 216.0 136.0 217.0 139.0 218.0 C 142.0 220.0 145.0 220.0 148.0 221.0 C 151.0 222.0 154.0 223.0 157.0 224.0 C 160.0 226.0 163.0 227.0 166.0 229.0 C 169.0 232.0 172.0 234.0 175.0 237.0 C 178.0 240.0 181.0 242.0 184.0 244.0 C 187.0 246.0 190.0 247.0 193.0 249.0 C 196.0 250.0 199.0 251.0 202.0 252.0 C 205.0 253.0 208.0 254.0 211.0 255.0 C 214.0 256.0 217.0 257.0 220.0 258.0 C 223.0 259.0 226.0 260.0 229.0 262.0 C 232.0 263.0 235.0 265.0 238.0 267.0 C 241.0 268.0 244.0 270.0 247.0 272.0 C 250.0 274.0 253.0 277.0 256.0 280.0 C 258.0 283.0 261.0 286.0 263.0 289.0 C 266.0 292.0 269.0 294.0 269.0 297.0 C 272.0 300.0 274.0 303.0 277.0 306.0 C 280.0 309.0 282.0 312.0 285.0 315.0 C 287.0 318.0 290.0 321.0 292.0 324.0 C 294.0 327.0 296.0 330.0 298.0 333.0 C 300.0 336.0 302.0 339.0 304.0 342.0 C 306.0 345.0 308.0 348.0 309.0 351.0 C 311.0 354.0 313.0 357.0 315.0 360.0 C 318.0 360.0 319.0 362.0 320.0 365.0 C 321.0 368.0 323.0 371.0 324.0 374.0 C 323.0 376.0 326.0 377.0 326.0 380.0 C 325.0 383.0 323.0 386.0 323.0 389.0 C 325.0 392.0 328.0 395.0 330.0 398.0 C 332.0 400.0 335.0 402.0 337.0 405.0 C 335.0 406.0 332.0 405.0 329.0 404.0 C 326.0 403.0 323.0 402.0 320.0 401.0 C 317.0 399.0 314.0 398.0 311.0 397.0 C 308.0 396.0 305.0 394.0 302.0 392.0 C 299.0 390.0 298.0 393.0 295.0 393.0 C 292.0 391.0 289.0 389.0 286.0 387.0 C 283.0 385.0 280.0 383.0 277.0 380.0 C 274.0 378.0 271.0 375.0 268.0 372.0 C 265.0 369.0 262.0 366.0 260.0 363.0 C 257.0 360.0 255.0 357.0 252.0 354.0 C 250.0 351.0 247.0 348.0 245.0 345.0 C 242.0 342.0 240.0 339.0 238.0 336.0 C 236.0 333.0 233.0 330.0 231.0 327.0 C 228.0 324.0 226.0 321.0 223.0 318.0 C 221.0 315.0 219.0 313.0 216.0 310.0 C 213.0 307.0 211.0 304.0 208.0 301.0 C 205.0 298.0 202.0 295.0 199.0 292.0 C 196.0 289.0 193.0 286.0 190.0 283.0 C 187.0 280.0 184.0 277.0 181.0 275.0 C 178.0 272.0 175.0 270.0 172.0 268.0 C 169.0 266.0 166.0 264.0 163.0 263.0 C 160.0 261.0 157.0 260.0 154.0 258.0 C 151.0 257.0 148.0 255.0 146.0 253.0 C 146.0 250.0 143.0 248.0 140.0 247.0 C 137.0 247.0 134.0 247.0 133.0 245.0 C 132.0 242.0 131.0 239.0 129.0 236.0 C 128.0 233.0 126.0 230.0 124.0 227.0 C 122.0 224.0 120.0 221.0 118.0 218.0 C 116.0 215.0 115.0 212.0 116.0 212.0" stroke-width="0.0" fill="rgb(40, 185, 225)" opacity="1.0" stroke="rgb(8, 61, 246)" stroke-opacity="0.8693122" stroke-linecap="round" stroke-linejoin="round"/>
    <path d="M 249.0 167.0 C 250.0 167.0 250.0 168.0 251.0 169.0 C 252.0 169.0 253.0 169.0 254.0 170.0 C 255.0 171.0 257.0 172.0 260.0 172.0 C 264.0 172.0 265.0 176.0 269.0 178.0 C 272.0 180.0 274.0 184.0 278.0 188.0 C 281.0 191.0 284.0 193.0 286.0 190.0 C 287.0 186.0 288.0 182.0 290.0 180.0 C 293.0 181.0 297.0 182.0 301.0 180.0 C 299.0 176.0 301.0 174.0 303.0 178.0 C 304.0 182.0 306.0 185.0 307.0 189.0 C 309.0 193.0 312.0 196.0 311.0 200.0 C 313.0 203.0 313.0 207.0 313.0 210.0 C 314.0 214.0 314.0 218.0 314.0 222.0 C 313.0 226.0 317.0 229.0 319.0 233.0 C 321.0 237.0 324.0 241.0 326.0 245.0 C 328.0 249.0 330.0 253.0 331.0 257.0 C 333.0 261.0 334.0 265.0 335.0 269.0 C 336.0 273.0 336.0 277.0 336.0 281.0 C 336.0 285.0 336.0 289.0 335.0 293.0 C 335.0 297.0 335.0 301.0 335.0 305.0 C 334.0 309.0 334.0 313.0 334.0 317.0 C 334.0 321.0 334.0 325.0 336.0 329.0 C 337.0 325.0 338.0 321.0 340.0 319.0 C 340.0 323.0 340.0 327.0 339.0 331.0 C 339.0 335.0 338.0 339.0 338.0 343.0 C 337.0 347.0 337.0 351.0 338.0 355.0 C 338.0 359.0 339.0 363.0 339.0 367.0 C 340.0 371.0 342.0 375.0 343.0 379.0 C 345.0 383.0 347.0 387.0 350.0 391.0 C 353.0 395.0 355.0 399.0 358.0 399.0 C 360.0 397.0 362.0 401.0 364.0 405.0 C 367.0 409.0 370.0 413.0 374.0 417.0 C 377.0 421.0 381.0 425.0 385.0 429.0 C 388.0 433.0 392.0 437.0 396.0 441.0 C 400.0 445.0 402.0 449.0 399.0 449.0 C 395.0 447.0 391.0 444.0 387.0 441.0 C 383.0 438.0 379.0 434.0 375.0 431.0 C 371.0 427.0 367.0 423.0 363.0 419.0 C 359.0 415.0 355.0 411.0 351.0 407.0 C 348.0 403.0 344.0 399.0 341.0 395.0 C 338.0 391.0 335.0 387.0 334.0 383.0 C 333.0 379.0 332.0 375.0 331.0 371.0 C 329.0 367.0 328.0 363.0 326.0 359.0 C 324.0 355.0 323.0 351.0 321.0 347.0 C 320.0 343.0 319.0 339.0 317.0 335.0 C 316.0 331.0 315.0 327.0 315.0 323.0 C 314.0 319.0 314.0 315.0 313.0 311.0 C 312.0 307.0 311.0 303.0 310.0 299.0 C 309.0 295.0 308.0 291.0 307.0 287.0 C 306.0 283.0 304.0 279.0 302.0 275.0 C 300.0 271.0 298.0 267.0 296.0 263.0 C 294.0 259.0 292.0 255.0 290.0 251.0 C 288.0 247.0 286.0 243.0 284.0 239.0 C 282.0 235.0 281.0 231.0 278.0 228.0 C 276.0 224.0 274.0 221.0 272.0 217.0 C 270.0 213.0 268.0 209.0 266.0 205.0 C 264.0 202.0 262.0 198.0 260.0 195.0 C 257.0 191.0 255.0 188.0 255.0 184.0 C 253.0 180.0 251.0 176.0 253.0 173.0 C 249.0 171.0 248.0 167.0 249.0 167.0" stroke-width="0.0" fill="rgb(107, 203, 231)" opacity="1.0" stroke="rgb(153, 92, 63)" stroke-opacity="0.90736425" stroke-linecap="round" stroke-linejoin="round"/>
    <path d="M 460.0 78.0 C 461.0 79.0 462.0 78.0 463.0 78.0 C 464.0 78.0 464.0 79.0 464.0 80.0 C 465.0 81.0 466.0 81.0 466.0 82.0 C 466.0 83.0 466.0 84.0 467.0 85.0 C 468.0 85.0 469.0 85.0 469.0 86.0 C 469.0 87.0 469.0 88.0 468.0 89.0 C 469.0 90.0 470.0 90.0 471.0 91.0 C 471.0 92.0 472.0 93.0 472.0 94.0 C 472.0 95.0 472.0 96.0 472.0 97.0 C 472.0 98.0 473.0 99.0 473.0 100.0 C 473.0 101.0 473.0 102.0 472.0 103.0 C 472.0 104.0 472.0 105.0 472.0 106.0 C 473.0 107.0 473.0 108.0 473.0 109.0 C 474.0 110.0 474.0 111.0 474.0 112.0 C 474.0 113.0 474.0 114.0 474.0 115.0 C 475.0 116.0 475.0 117.0 475.0 118.0 C 475.0 119.0 475.0 120.0 475.0 119.0 C 475.0 118.0 474.0 117.0 473.0 116.0 C 472.0 116.0 471.0 116.0 471.0 115.0 C 471.0 114.0 471.0 113.0 471.0 112.0 C 471.0 111.0 471.0 110.0 471.0 109.0 C 470.0 108.0 470.0 107.0 470.0 106.0 C 470.0 105.0 469.0 104.0 469.0 103.0 C 470.0 103.0 471.0 103.0 472.0 102.0 C 472.0 101.0 472.0 100.0 472.0 99.0 C 471.0 98.0 470.0 98.0 469.0 98.0 C 468.0 99.0 468.0 100.0 468.0 101.0 C 468.0 100.0 467.0 99.0 467.0 98.0 C 466.0 97.0 465.0 98.0 465.0 99.0 C 465.0 100.0 465.0 101.0 465.0 102.0 C 465.0 103.0 464.0 103.0 463.0 103.0 C 462.0 103.0 461.0 103.0 460.0 102.0 C 460.0 101.0 460.0 100.0 460.0 99.0 C 460.0 98.0 460.0 97.0 459.0 96.0 C 460.0 96.0 461.0 96.0 462.0 96.0 C 463.0 96.0 464.0 95.0 464.0 94.0 C 464.0 93.0 464.0 92.0 464.0 91.0 C 464.0 90.0 464.0 89.0 464.0 88.0 C 465.0 88.0 466.0 87.0 466.0 86.0 C 466.0 85.0 465.0 84.0 465.0 83.0 C 464.0 82.0 463.0 81.0 462.0 81.0 C 461.0 81.0 461.0 80.0 460.0 79.0 C 460.0 78.0 459.0 77.0 460.0 78.0" stroke-width="0.0" fill="rgb(46, 187, 230)" opacity="1.0" stroke="rgb(234, 148, 26)" stroke-opacity="0.3634056" stroke-linecap="round" stroke-linejoin="round"/>
  </g>
</svg>
