<?xml version="1.0" ?>
<svg xmlns="http://www.w3.org/2000/svg" version="1.1" width="512" height="512">
  <defs/>
  <g>
    <path d="M 63.26057052612305 262.0177917480469 C 68.33828735351562 264.55963134765625 72.72858428955078 267.6693420410156 76.9540023803711 270.8290710449219 C 81.11410522460938 273.79522705078125 84.84025573730469 276.4230041503906 87.75604248046875 278.9689025878906 C 90.03978729248047 280.95074462890625 91.69547271728516 282.31658935546875 92.45887756347656 282.9468994140625 C 92.33750915527344 282.8117370605469 91.24720764160156 282.02130126953125 89.2593994140625 280.53643798828125 C 86.54898071289062 278.4046630859375 83.4201431274414 275.36968994140625 80.09164428710938 271.4472351074219 C 76.89156341552734 266.5316162109375 74.38235473632812 260.9317932128906 73.32878875732422 255.2684783935547 C 74.5116958618164 250.13291931152344 78.07122039794922 246.11892700195312 83.88970184326172 243.63230895996094 C 91.1368179321289 242.75086975097656 99.23160552978516 243.30276489257812 107.82306671142578 245.00216674804688 C 116.47544860839844 247.70257568359375 124.99042510986328 251.0983123779297 133.124267578125 254.97201538085938 C 140.7741241455078 259.1070861816406 147.87100219726562 263.3050231933594 154.50917053222656 267.4505920410156 C 160.88893127441406 271.4335021972656 166.98390197753906 275.1108703613281 172.6127166748047 278.6184387207031 C 177.83914184570312 282.1697082519531 182.72116088867188 285.8088073730469 187.23504638671875 289.5001220703125 C 191.35830688476562 293.29693603515625 195.0649871826172 296.9964599609375 198.46478271484375 300.4753723144531 C 201.48011779785156 303.7418518066406 204.19566345214844 306.73388671875 206.58432006835938 309.44378662109375 C 208.7007598876953 311.8123779296875 210.57467651367188 313.8983154296875 212.22840881347656 315.7154235839844 C 213.68643188476562 317.3108825683594 215.07029724121094 318.7969970703125 216.4364471435547 320.25384521484375 C 217.8321075439453 321.8240051269531 219.41029357910156 323.504638671875 221.20501708984375 325.4802551269531 C 223.2391357421875 327.8468933105469 225.59092712402344 330.6397705078125 228.2845001220703 333.9159851074219 C 231.28257751464844 337.7080993652344 234.58786010742188 342.02606201171875 238.19163513183594 346.8269958496094 C 242.18948364257812 351.899658203125 246.53472900390625 357.0549011230469 251.1922149658203 362.228515625 C 255.82693481445312 367.3896484375 260.3585510253906 372.2809753417969 264.7433776855469 376.5976867675781 C 268.7393493652344 380.1943054199219 272.0633850097656 383.05340576171875 274.2704162597656 385.20843505859375 C 274.8543395996094 386.7808837890625 273.8871154785156 387.7568054199219 271.4986267089844 388.17724609375 C 268.1381530761719 388.2717590332031 264.2145080566406 388.198486328125 259.9579772949219 388.0920104980469 C 255.7115478515625 387.97564697265625 251.75843811035156 387.84771728515625 248.26292419433594 387.7496337890625 C 245.3892059326172 387.6905517578125 243.3079833984375 387.6806640625 242.15924072265625 387.75970458984375 C 241.990478515625 387.9046630859375 242.74440002441406 387.9814147949219 244.3678436279297 387.9627990722656 C 246.7603759765625 387.94061279296875 249.79563903808594 387.9844970703125 253.35592651367188 387.944580078125 C 257.35638427734375 387.79571533203125 261.72772216796875 387.7170104980469 266.32843017578125 387.64569091796875 C 270.9746398925781 387.6814880371094 275.563232421875 388.2580871582031 280.0537414550781 389.7339782714844 C 284.47271728515625 392.28936767578125 289.015869140625 395.4967956542969 293.8519592285156 398.6929016113281 C 299.1225891113281 401.6528625488281 304.72723388671875 404.1982116699219 310.6229248046875 406.4869689941406 C 316.7906494140625 408.282958984375 322.9366760253906 409.7825012207031 328.7909240722656 411.3041076660156 C 334.3274841308594 412.9538879394531 339.30364990234375 414.6307373046875 343.5104064941406 416.1350402832031 C 346.69580078125 417.46002197265625 348.49969482421875 418.57611083984375 348.8150329589844 419.669921875 C 347.5214538574219 420.6341247558594 344.8368225097656 421.2842712402344 341.11669921875 421.6432189941406 C 336.3631896972656 421.7519836425781 330.9026794433594 421.99005126953125 325.05474853515625 422.6217346191406 C 318.9300842285156 423.24603271484375 312.6044006347656 423.67877197265625 306.24151611328125 423.9638366699219 C 299.81402587890625 423.93328857421875 293.4507751464844 423.3397521972656 287.1404724121094 422.29833984375 C 280.9871826171875 420.94537353515625 274.90966796875 418.7758483886719 268.6821594238281 416.31085205078125 C 262.5071716308594 413.6857604980469 256.2344665527344 411.0038146972656 249.89476013183594 407.84197998046875 C 243.53619384765625 404.77642822265625 237.0809326171875 402.2442626953125 230.53875732421875 399.7777099609375 C 223.96945190429688 397.7982482910156 217.8414306640625 395.5840759277344 212.4003448486328 393.47601318359375 C 207.95802307128906 391.1551513671875 204.96730041503906 388.9921875 203.3981170654297 386.91314697265625 C 203.3966064453125 384.92547607421875 204.76287841796875 383.57098388671875 207.11941528320312 383.1138916015625 C 209.20663452148438 383.03826904296875 210.0932159423828 382.1736755371094 209.50148010253906 380.45684814453125 C 207.3083038330078 379.2127990722656 203.86880493164062 378.14599609375 199.73284912109375 376.9062805175781 C 195.47254943847656 375.2456970214844 191.50526428222656 372.6466369628906 187.98251342773438 369.2211608886719 C 184.8313446044922 365.2579345703125 181.8350372314453 361.2911682128906 178.81431579589844 357.6958923339844 C 175.5507354736328 354.93243408203125 171.96963500976562 353.2508544921875 168.08279418945312 352.6058349609375 C 164.21286010742188 352.121337890625 160.84129333496094 351.0784912109375 158.21237182617188 348.98089599609375 C 156.17364501953125 345.98931884765625 154.2900390625 342.664794921875 152.2786865234375 339.4207458496094 C 149.45663452148438 336.9941101074219 145.75637817382812 335.345703125 141.75030517578125 333.86956787109375 C 137.74815368652344 332.06072998046875 133.85809326171875 330.03997802734375 130.20379638671875 327.7049560546875 C 126.8896713256836 325.31439208984375 123.9273452758789 322.79498291015625 121.39967346191406 320.30474853515625 C 119.52962493896484 317.4583740234375 118.05860137939453 314.6221008300781 116.61695098876953 311.76800537109375 C 114.48682403564453 309.3689880371094 111.72746276855469 307.1223449707031 108.46517944335938 304.9239807128906 C 104.95602416992188 302.40240478515625 101.1768569946289 299.73492431640625 97.02103424072266 296.72943115234375 C 92.3174819946289 293.76361083984375 87.17874908447266 290.5654296875 81.81133270263672 287.1800537109375 C 76.24100494384766 283.7673645019531 70.34612274169922 280.2962341308594 63.26057052612305 262.0177917480469" stroke-width="0.0" fill="rgb(27, 183, 226)" opacity="0.9999774" stroke="rgb(207, 17, 164)" stroke-opacity="0.43710604" stroke-linecap="round" stroke-linejoin="round"/>
    <path d="M 88.0 31.0 C 89.0 31.0 90.0 32.0 91.0 32.0 C 92.0 33.0 93.0 33.0 94.0 34.0 C 95.0 34.0 96.0 34.0 97.0 35.0 C 100.0 37.0 104.0 40.0 108.0 43.0 C 112.0 46.0 116.0 50.0 120.0 52.0 C 124.0 56.0 128.0 59.0 132.0 62.0 C 133.0 66.0 137.0 67.0 141.0 70.0 C 145.0 74.0 148.0 78.0 145.0 79.0 C 147.0 82.0 151.0 85.0 155.0 87.0 C 159.0 88.0 162.0 90.0 166.0 93.0 C 170.0 97.0 174.0 100.0 178.0 104.0 C 180.0 108.0 184.0 109.0 188.0 113.0 C 191.0 117.0 194.0 120.0 197.0 123.0 C 199.0 127.0 197.0 130.0 199.0 134.0 C 203.0 134.0 207.0 135.0 211.0 137.0 C 214.0 141.0 217.0 145.0 219.0 148.0 C 221.0 151.0 223.0 155.0 224.0 158.0 C 220.0 159.0 221.0 162.0 223.0 165.0 C 220.0 167.0 224.0 171.0 227.0 173.0 C 224.0 176.0 228.0 179.0 230.0 181.0 C 227.0 184.0 226.0 187.0 223.0 186.0 C 219.0 186.0 221.0 189.0 225.0 190.0 C 223.0 192.0 219.0 192.0 219.0 194.0 C 217.0 196.0 215.0 193.0 213.0 195.0 C 210.0 194.0 206.0 193.0 205.0 189.0 C 201.0 191.0 201.0 195.0 205.0 195.0 C 208.0 197.0 211.0 199.0 208.0 200.0 C 204.0 199.0 200.0 198.0 198.0 195.0 C 195.0 193.0 191.0 192.0 187.0 190.0 C 183.0 187.0 179.0 185.0 175.0 183.0 C 171.0 181.0 167.0 178.0 163.0 176.0 C 159.0 174.0 155.0 171.0 151.0 169.0 C 147.0 167.0 143.0 164.0 139.0 161.0 C 136.0 157.0 134.0 153.0 138.0 154.0 C 142.0 155.0 146.0 157.0 150.0 158.0 C 154.0 160.0 158.0 161.0 162.0 162.0 C 166.0 163.0 170.0 164.0 174.0 162.0 C 170.0 160.0 166.0 159.0 162.0 156.0 C 158.0 154.0 154.0 151.0 150.0 149.0 C 146.0 147.0 142.0 146.0 138.0 144.0 C 134.0 143.0 130.0 142.0 126.0 140.0 C 122.0 137.0 118.0 135.0 114.0 132.0 C 110.0 129.0 108.0 125.0 109.0 121.0 C 106.0 117.0 109.0 115.0 110.0 111.0 C 110.0 107.0 113.0 106.0 117.0 107.0 C 121.0 109.0 125.0 111.0 129.0 113.0 C 133.0 114.0 134.0 111.0 130.0 109.0 C 126.0 107.0 122.0 104.0 118.0 102.0 C 114.0 99.0 110.0 97.0 106.0 95.0 C 102.0 93.0 98.0 90.0 94.0 88.0 C 90.0 85.0 86.0 81.0 86.0 77.0 C 89.0 76.0 93.0 78.0 97.0 80.0 C 101.0 82.0 105.0 84.0 109.0 85.0 C 113.0 86.0 117.0 86.0 113.0 83.0 C 109.0 81.0 105.0 78.0 101.0 76.0 C 97.0 73.0 93.0 70.0 89.0 67.0 C 85.0 64.0 82.0 60.0 79.0 56.0 C 78.0 52.0 79.0 48.0 79.0 44.0 C 80.0 40.0 84.0 40.0 88.0 39.0 C 89.0 35.0 87.0 31.0 88.0 31.0" stroke-width="0.0" fill="rgb(26, 186, 227)" opacity="1.0" stroke="rgb(194, 118, 98)" stroke-opacity="0.86411303" stroke-linecap="round" stroke-linejoin="round"/>
    <path d="M 105.0 29.0 C 106.0 29.0 107.0 29.0 108.0 29.0 C 109.0 29.0 110.0 29.0 111.0 29.0 C 112.0 29.0 113.0 29.0 114.0 29.0 C 115.0 29.0 116.0 29.0 117.0 29.0 C 118.0 29.0 119.0 29.0 120.0 29.0 C 121.0 29.0 122.0 29.0 123.0 29.0 C 124.0 29.0 125.0 29.0 126.0 29.0 C 127.0 29.0 128.0 29.0 129.0 29.0 C 130.0 29.0 131.0 30.0 132.0 30.0 C 133.0 30.0 134.0 30.0 135.0 30.0 C 136.0 31.0 137.0 31.0 138.0 31.0 C 139.0 32.0 140.0 32.0 142.0 33.0 C 145.0 33.0 148.0 34.0 151.0 35.0 C 154.0 36.0 157.0 37.0 160.0 38.0 C 163.0 39.0 166.0 40.0 169.0 40.0 C 172.0 41.0 175.0 43.0 178.0 44.0 C 181.0 45.0 184.0 46.0 187.0 47.0 C 190.0 49.0 193.0 50.0 196.0 52.0 C 199.0 53.0 202.0 55.0 205.0 56.0 C 208.0 58.0 211.0 60.0 214.0 61.0 C 217.0 63.0 220.0 65.0 223.0 68.0 C 226.0 71.0 229.0 74.0 232.0 77.0 C 235.0 80.0 238.0 83.0 241.0 86.0 C 244.0 88.0 247.0 91.0 250.0 93.0 C 253.0 96.0 256.0 99.0 259.0 101.0 C 262.0 103.0 265.0 106.0 268.0 109.0 C 271.0 112.0 273.0 115.0 274.0 118.0 C 276.0 121.0 278.0 124.0 280.0 127.0 C 282.0 130.0 284.0 133.0 286.0 136.0 C 288.0 139.0 290.0 142.0 291.0 145.0 C 293.0 148.0 294.0 151.0 295.0 154.0 C 296.0 157.0 296.0 160.0 296.0 163.0 C 296.0 166.0 294.0 167.0 291.0 168.0 C 291.0 171.0 288.0 172.0 286.0 175.0 C 287.0 178.0 286.0 181.0 285.0 184.0 C 283.0 187.0 280.0 187.0 279.0 184.0 C 278.0 181.0 277.0 178.0 276.0 175.0 C 273.0 174.0 271.0 171.0 269.0 169.0 C 266.0 169.0 263.0 168.0 260.0 166.0 C 259.0 163.0 256.0 161.0 253.0 158.0 C 250.0 158.0 248.0 159.0 247.0 162.0 C 246.0 164.0 245.0 162.0 242.0 161.0 C 241.0 159.0 240.0 157.0 237.0 157.0 C 235.0 155.0 233.0 153.0 233.0 150.0 C 233.0 147.0 230.0 145.0 228.0 142.0 C 226.0 140.0 223.0 139.0 221.0 137.0 C 218.0 134.0 216.0 131.0 213.0 128.0 C 210.0 125.0 207.0 122.0 205.0 119.0 C 202.0 116.0 199.0 113.0 196.0 111.0 C 193.0 108.0 190.0 105.0 187.0 102.0 C 184.0 99.0 181.0 97.0 178.0 95.0 C 175.0 92.0 172.0 90.0 169.0 87.0 C 166.0 84.0 163.0 81.0 161.0 79.0 C 158.0 77.0 155.0 74.0 152.0 71.0 C 150.0 69.0 147.0 67.0 144.0 64.0 C 141.0 61.0 138.0 59.0 135.0 56.0 C 132.0 54.0 129.0 51.0 126.0 49.0 C 123.0 47.0 120.0 45.0 117.0 42.0 C 114.0 40.0 111.0 37.0 108.0 35.0 C 105.0 32.0 104.0 29.0 105.0 29.0" stroke-width="0.0" fill="rgb(18, 181, 224)" opacity="1.0" stroke="rgb(77, 251, 63)" stroke-opacity="0.04171924" stroke-linecap="round" stroke-linejoin="round"/>
  </g>
</svg>
