<?xml version="1.0" ?>
<svg xmlns="http://www.w3.org/2000/svg" version="1.1" width="512" height="512">
  <defs/>
  <g>
    <path d="M 81.0 283.0 C 82.0 283.0 83.0 283.0 84.0 283.0 C 84.0 284.0 85.0 285.0 86.0 285.0 C 87.0 285.0 88.0 285.0 89.0 285.0 C 90.0 284.0 91.0 284.0 92.0 284.0 C 93.0 284.0 94.0 285.0 95.0 285.0 C 96.0 286.0 97.0 286.0 98.0 287.0 C 99.0 287.0 100.0 287.0 104.0 285.0 C 106.0 286.0 109.0 289.0 112.0 292.0 C 117.0 291.0 122.0 293.0 127.0 295.0 C 132.0 297.0 137.0 297.0 142.0 299.0 C 147.0 300.0 152.0 300.0 157.0 301.0 C 162.0 302.0 167.0 303.0 172.0 306.0 C 177.0 307.0 182.0 308.0 187.0 311.0 C 192.0 312.0 193.0 317.0 198.0 318.0 C 203.0 320.0 208.0 321.0 213.0 324.0 C 210.0 326.0 205.0 325.0 200.0 326.0 C 202.0 331.0 206.0 335.0 211.0 337.0 C 216.0 338.0 221.0 339.0 226.0 341.0 C 230.0 343.0 234.0 346.0 238.0 351.0 C 241.0 355.0 242.0 360.0 247.0 361.0 C 251.0 364.0 255.0 368.0 259.0 373.0 C 264.0 377.0 269.0 382.0 273.0 385.0 C 277.0 389.0 273.0 388.0 268.0 387.0 C 263.0 386.0 260.0 383.0 255.0 386.0 C 250.0 386.0 245.0 385.0 240.0 385.0 C 235.0 385.0 230.0 384.0 225.0 385.0 C 230.0 387.0 235.0 389.0 240.0 390.0 C 245.0 391.0 250.0 393.0 255.0 393.0 C 260.0 395.0 265.0 395.0 270.0 395.0 C 275.0 395.0 280.0 397.0 280.0 401.0 C 276.0 404.0 281.0 405.0 286.0 407.0 C 291.0 408.0 296.0 408.0 301.0 409.0 C 306.0 409.0 311.0 410.0 316.0 410.0 C 321.0 411.0 326.0 412.0 331.0 413.0 C 336.0 415.0 341.0 416.0 345.0 419.0 C 341.0 420.0 336.0 420.0 331.0 421.0 C 326.0 421.0 321.0 421.0 316.0 422.0 C 311.0 422.0 306.0 422.0 301.0 422.0 C 296.0 422.0 291.0 421.0 286.0 421.0 C 281.0 419.0 276.0 418.0 271.0 416.0 C 266.0 414.0 261.0 412.0 256.0 410.0 C 251.0 407.0 246.0 405.0 241.0 403.0 C 236.0 401.0 231.0 399.0 226.0 397.0 C 221.0 395.0 216.0 393.0 211.0 391.0 C 206.0 388.0 202.0 384.0 206.0 383.0 C 211.0 384.0 211.0 380.0 206.0 377.0 C 201.0 375.0 196.0 374.0 193.0 371.0 C 188.0 368.0 184.0 363.0 180.0 358.0 C 183.0 356.0 188.0 357.0 193.0 359.0 C 192.0 355.0 187.0 353.0 182.0 351.0 C 177.0 350.0 172.0 349.0 169.0 346.0 C 164.0 346.0 159.0 344.0 154.0 342.0 C 153.0 337.0 148.0 335.0 143.0 333.0 C 138.0 331.0 133.0 328.0 128.0 325.0 C 123.0 321.0 119.0 316.0 117.0 311.0 C 120.0 310.0 125.0 309.0 130.0 309.0 C 128.0 306.0 123.0 305.0 118.0 305.0 C 113.0 305.0 108.0 303.0 103.0 300.0 C 98.0 296.0 93.0 293.0 88.0 289.0 C 83.0 287.0 80.0 283.0 81.0 283.0" stroke-width="0.0" fill="rgb(27, 183, 226)" opacity="1.0" stroke="rgb(207, 17, 164)" stroke-opacity="0.43710604" stroke-linecap="round" stroke-linejoin="round"/>
  </g>
</svg>
