<?xml version="1.0" ?>
<svg xmlns="http://www.w3.org/2000/svg" version="1.1" width="474" height="596">
  <defs/>
  <g>
    <path d="M 265.03753662109375 -2.7548041343688965 C 266.9434509277344 -1.9807618856430054 267.9080810546875 -1.6689808368682861 269.38507080078125 -2.0271472930908203 C 269.5315856933594 -3.627847671508789 268.8218688964844 -5.11745023727417 269.9110412597656 -4.588892936706543 C 270.6556091308594 -5.150441646575928 270.5014343261719 -5.240174770355225 271.5550231933594 -5.2468671798706055 C 271.95977783203125 -4.970135688781738 272.94122314453125 -4.506771564483643 275.2565002441406 -3.363250494003296 C 276.41436767578125 -3.477062463760376 278.7503967285156 -2.050808906555176 293.3547058105469 -2.1733202934265137 C 281.17645263671875 2.970975875854492 289.39111328125 0.7026116251945496 298.924560546875 4.269935131072998 C 304.65618896484375 5.659847259521484 311.6276550292969 8.34730339050293 318.55328369140625 10.816802978515625 C 326.712158203125 14.52605152130127 336.16552734375 19.068471908569336 344.04010009765625 23.808446884155273 C 352.64697265625 28.83970069885254 360.64105224609375 34.71830368041992 368.66107177734375 41.238548278808594 C 376.96185302734375 47.84642028808594 384.3891906738281 55.54224395751953 391.9981994628906 63.220947265625 C 399.41583251953125 71.18598175048828 406.1570739746094 79.92141723632812 412.199951171875 87.73365020751953 C 418.03167724609375 97.37718200683594 423.58392333984375 103.75596618652344 427.6504821777344 112.22394561767578 C 433.744384765625 120.72201538085938 435.080078125 128.89804077148438 432.4317321777344 135.10728454589844 C 429.80780029296875 142.40689086914062 422.97857666015625 152.38453674316406 415.7655334472656 161.25086975097656 C 410.828857421875 167.75149536132812 400.877197265625 177.14466857910156 393.5185852050781 184.2976531982422 C 385.03717041015625 191.64926147460938 376.73638916015625 197.8398895263672 367.004150390625 205.00079345703125 C 357.91241455078125 210.7770538330078 345.94757080078125 219.16259765625 334.91827392578125 221.69068908691406 C 314.2623291015625 228.5934600830078 326.7286376953125 220.6672821044922 298.4818115234375 234.98423767089844 C 296.0598449707031 217.02716064453125 319.3938293457031 221.92086791992188 326.53131103515625 213.5137176513672 C 337.50653076171875 208.45558166503906 344.1358947753906 199.25987243652344 352.624267578125 191.28858947753906 C 359.764892578125 182.89295959472656 365.132568359375 173.4580841064453 366.88519287109375 162.91607666015625 C 367.86273193359375 154.83302307128906 370.27142333984375 145.59844970703125 366.0628662109375 142.06398010253906 C 367.4435119628906 130.97576904296875 364.2290344238281 122.13143920898438 361.70123291015625 113.47534942626953 C 354.7795715332031 107.44210052490234 349.79119873046875 100.42193603515625 344.4050598144531 98.10932922363281 C 336.4286804199219 95.55300903320312 350.8636779785156 97.71240997314453 342.43853759765625 111.30452728271484 C 323.81573486328125 92.0136489868164 301.70465087890625 103.5475845336914 298.44036865234375 110.8618392944336 C 281.5917053222656 104.81314086914062 272.30328369140625 109.23265838623047 262.0731201171875 110.68392944335938 C 255.9688262939453 113.94649505615234 253.6894989013672 110.33203887939453 248.84182739257812 107.04369354248047 C 249.65150451660156 99.78861999511719 248.97642517089844 98.64318084716797 248.30715942382812 104.83597564697266 C 252.48123168945312 114.61952209472656 250.1080780029297 122.70988464355469 229.58514404296875 124.05314636230469 C 211.01124572753906 125.40788269042969 228.05372619628906 133.12823486328125 205.7791748046875 139.61244201660156 C 209.59524536132812 155.08741760253906 245.03062438964844 120.29279327392578 220.30560302734375 166.18772888183594 C 200.91140747070312 166.8769989013672 187.1271209716797 161.9628143310547 186.97549438476562 145.97865295410156 C 187.78268432617188 136.97335815429688 182.0765380859375 144.05772399902344 175.86386108398438 138.19427490234375 C 168.00360107421875 139.2097930908203 158.5020294189453 146.75228881835938 149.8360595703125 153.18551635742188 C 144.57896423339844 162.07229614257812 144.49658203125 169.17831420898438 146.49209594726562 178.82421875 C 144.75491333007812 187.89942932128906 148.9412841796875 197.29151916503906 155.1459197998047 204.00973510742188 C 160.3748779296875 212.77191162109375 168.5771026611328 219.88255310058594 178.18408203125 227.78746032714844 C 186.41282653808594 229.7804412841797 198.436279296875 231.86306762695312 202.37606811523438 236.956787109375 C 208.16554260253906 239.50486755371094 216.174072265625 235.1468048095703 246.24935913085938 246.3449249267578 C 211.21200561523438 246.5264892578125 203.3096923828125 245.9817352294922 192.12635803222656 247.04696655273438 C 189.9522247314453 238.63804626464844 181.6322784423828 244.0927734375 174.271728515625 239.52474975585938 C 172.44300842285156 240.5691680908203 150.70530700683594 241.54197692871094 140.50746154785156 239.80137634277344 C 134.30152893066406 239.53077697753906 121.32238006591797 236.9425048828125 110.2210464477539 233.8655548095703 C 103.35447692871094 232.0563507080078 95.12948608398438 228.84335327148438 86.21627044677734 225.4534912109375 C 78.04131317138672 222.34149169921875 68.03673553466797 217.28785705566406 61.54237747192383 213.38580322265625 C 55.28607177734375 208.12879943847656 55.58690643310547 206.5036163330078 53.54610824584961 201.4229278564453 C 52.73820495605469 193.11585998535156 54.64830017089844 179.9589385986328 56.498104095458984 170.0579376220703 C 58.209014892578125 160.58724975585938 59.363704681396484 155.4618682861328 61.959354400634766 147.57179260253906 C 63.96813201904297 138.7359161376953 68.01907348632812 128.22622680664062 71.14713287353516 121.74283599853516 C 73.45247650146484 114.91459655761719 78.86227416992188 105.45040130615234 83.62216186523438 96.6965560913086 C 88.3817138671875 89.23163604736328 93.71183776855469 80.6829605102539 101.11136627197266 72.43144226074219 C 106.94192504882812 65.40974426269531 114.86161041259766 56.55104064941406 122.97498321533203 49.88350296020508 C 129.4734344482422 43.74542236328125 138.9868621826172 36.70512390136719 147.3672332763672 30.798904418945312 C 155.9794464111328 25.41715431213379 164.45486450195312 23.989181518554688 174.06492614746094 23.587289810180664 C 178.5045166015625 23.59600067138672 191.55577087402344 24.75710678100586 198.45753479003906 26.97080421447754 C 221.78970336914062 32.429866790771484 211.0009307861328 35.409847259521484 210.98008728027344 13.82494831085205 C 218.5447235107422 36.02174758911133 214.45855712890625 27.415117263793945 223.83111572265625 29.8416805267334 C 232.54837036132812 20.28441619873047 237.69369506835938 13.663704872131348 248.87120056152344 7.494054794311523 C 257.8841247558594 1.813405156135559 270.41943359375 1.3432482481002808 265.03753662109375 -2.7548041343688965" stroke-width="0.0" fill="rgb(64, 38, 31)" opacity="0.99997354" stroke="rgb(200, 131, 241)" stroke-opacity="0.5338206" stroke-linecap="round" stroke-linejoin="round"/>
    <path d="M 367.40692138671875 126.56578063964844 C 365.8841552734375 157.01803588867188 359.2526550292969 184.81138610839844 339.4234924316406 202.55661010742188 C 293.7347412109375 206.13662719726562 303.1509704589844 242.09921264648438 293.9286804199219 235.15000915527344 C 290.01593017578125 251.78968811035156 281.8407897949219 254.91160583496094 284.9478454589844 257.6826477050781 C 272.02069091796875 257.60528564453125 262.79644775390625 257.99884033203125 248.89576721191406 252.28244018554688 C 241.67298889160156 250.90443420410156 234.04180908203125 250.1424560546875 229.28976440429688 250.67227172851562 C 228.71694946289062 248.82223510742188 232.1228790283203 249.4361572265625 239.18113708496094 250.52593994140625 C 248.72628784179688 250.028564453125 257.9992370605469 258.6855773925781 273.0279235839844 256.31787109375 C 284.0433349609375 255.9456024169922 289.8921203613281 271.4455261230469 292.7230224609375 279.58380126953125 C 303.5854187011719 293.14404296875 309.487548828125 306.0439147949219 311.374755859375 309.0389099121094 C 312.3351745605469 317.05865478515625 310.2765197753906 334.3205871582031 310.4932861328125 308.6889343261719 C 304.2660827636719 295.19915771484375 294.6654052734375 283.9271240234375 282.9665222167969 259.3998107910156 C 276.818359375 261.50091552734375 287.3372802734375 252.68222045898438 293.1995544433594 239.18490600585938 C 307.95672607421875 241.426025390625 332.8245544433594 244.3644561767578 361.4514465332031 260.278564453125 C 370.169677734375 271.1729431152344 377.5629577636719 270.2736511230469 392.32342529296875 279.8268127441406 C 406.09423828125 287.59906005859375 410.14093017578125 293.518798828125 412.5825500488281 294.9960632324219 C 435.23974609375 285.3807373046875 429.3628845214844 293.001708984375 441.81964111328125 278.71221923828125 C 446.9706726074219 295.8739318847656 454.95623779296875 315.163818359375 468.0926208496094 333.42236328125 C 449.1084899902344 367.98468017578125 442.8335266113281 323.3296203613281 439.68109130859375 363.2167053222656 C 425.6790466308594 340.87701416015625 386.4842224121094 325.51019287109375 370.13885498046875 327.77984619140625 C 324.96124267578125 315.4213562011719 354.69970703125 336.3219909667969 328.0399475097656 320.6173400878906 C 315.2680358886719 349.94232177734375 332.8851013183594 390.061767578125 316.8799743652344 380.7150573730469 C 314.9675598144531 412.3643493652344 304.3904724121094 450.78521728515625 296.281005859375 463.310791015625 C 286.5064392089844 474.2193603515625 287.1036376953125 516.63134765625 287.42822265625 528.4879150390625 C 275.291259765625 534.3130493164062 255.59835815429688 535.7235107421875 239.69412231445312 530.3355102539062 C 239.95315551757812 541.8340454101562 238.00527954101562 544.9695434570312 238.51319885253906 563.4448852539062 C 253.14352416992188 569.81298828125 264.0129699707031 571.8392944335938 301.9516296386719 571.4053344726562 C 317.57342529296875 572.43994140625 330.4293518066406 570.570556640625 340.1813659667969 571.9261474609375 C 335.7864074707031 580.5840454101562 325.60418701171875 584.3731689453125 300.3834228515625 584.583740234375 C 280.7738037109375 584.8421630859375 241.15260314941406 582.1168823242188 238.6795196533203 576.5075073242188 C 227.39295959472656 570.2200927734375 237.70654296875 529.0633544921875 236.4717559814453 506.2025451660156 C 244.96693420410156 511.57574462890625 243.35472106933594 451.44598388671875 238.85150146484375 455.56982421875 C 219.748046875 450.2634582519531 232.36703491210938 461.9085388183594 224.96246337890625 474.4989929199219 C 212.44244384765625 475.440185546875 217.2664031982422 481.1128845214844 213.48558044433594 492.08343505859375 C 212.80699157714844 501.6202392578125 209.7392120361328 510.7417297363281 212.0997772216797 516.3074951171875 C 213.47918701171875 533.8186645507812 215.9104766845703 550.8663940429688 217.56256103515625 570.3919067382812 C 201.8717041015625 573.8510131835938 212.1004638671875 582.333740234375 175.14297485351562 591.77099609375 C 156.78533935546875 598.3419189453125 121.55789184570312 597.5723266601562 117.98267364501953 587.4368286132812 C 114.3936767578125 569.7874145507812 122.49685668945312 578.5881958007812 144.4311981201172 582.6320190429688 C 162.33473205566406 580.8568115234375 187.60560607910156 574.9314575195312 212.9944305419922 573.0274658203125 C 214.17018127441406 582.9320678710938 213.28443908691406 549.0384521484375 209.5709686279297 530.2781982421875 C 195.09127807617188 538.0571899414062 177.60391235351562 539.9896850585938 159.1956787109375 526.8743896484375 C 164.18414306640625 522.65283203125 139.93052673339844 524.81201171875 157.72364807128906 507.1128845214844 C 179.38330078125 503.786376953125 171.85838317871094 470.89361572265625 158.02590942382812 468.4118957519531 C 155.51434326171875 439.39288330078125 151.62159729003906 410.5445251464844 152.60801696777344 398.1963806152344 C 125.69241333007812 399.4295349121094 113.54194641113281 386.2950744628906 114.50628662109375 362.8780212402344 C 108.4583511352539 339.3672180175781 128.5904083251953 338.99237060546875 91.50255584716797 354.80316162109375 C 68.53399658203125 363.1871032714844 75.71772003173828 389.3889465332031 40.60482406616211 386.4969177246094 C 33.029991149902344 347.8529968261719 33.49760818481445 334.68359375 55.85344696044922 324.03326416015625 C 64.2783203125 310.2392883300781 78.2347640991211 298.308837890625 91.86686706542969 288.02728271484375 C 82.83719635009766 284.1517028808594 102.31029510498047 270.6722106933594 114.77222442626953 262.8702087402344 C 131.23007202148438 252.59396362304688 145.6314239501953 246.20779418945312 168.0485076904297 239.66371154785156 C 194.01470947265625 235.5681915283203 193.59349060058594 242.25149536132812 204.66229248046875 243.02590942382812 C 188.75643920898438 261.9881896972656 183.41871643066406 284.8587646484375 172.6309356689453 304.9465026855469 C 166.99058532714844 321.6324157714844 162.5185546875 336.73016357421875 156.05987548828125 345.6906433105469 C 153.67384338378906 352.1489562988281 154.58258056640625 357.91558837890625 153.48123168945312 353.219482421875 C 151.83912658691406 344.7314758300781 162.2892608642578 340.6337890625 164.07119750976562 327.427734375 C 171.47271728515625 311.0141906738281 179.64208984375 293.5838317871094 186.52552795410156 273.03863525390625 C 191.15809631347656 240.86236572265625 171.71926879882812 238.66500854492188 241.1876983642578 248.6432342529297 C 233.7610321044922 221.91897583007812 206.6830596923828 211.8586883544922 200.58163452148438 190.27166748046875 C 206.7808380126953 169.8531036376953 218.3920440673828 147.4405517578125 367.40692138671875 126.56578063964844" stroke-width="0.0" fill="rgb(232, 106, 162)" opacity="0.99803567" stroke="rgb(44, 183, 177)" stroke-opacity="0.06237474" stroke-linecap="round" stroke-linejoin="round"/>
    <path d="M 236.00912475585938 89.93267822265625 C 246.6896209716797 95.68372344970703 254.75686645507812 103.14659881591797 259.6116027832031 110.7020034790039 C 260.3277282714844 109.58821868896484 274.8271179199219 107.6130142211914 268.0877380371094 108.01457977294922 C 281.3143005371094 105.81128692626953 291.15618896484375 102.0945053100586 315.0142517089844 98.76559448242188 C 292.1890869140625 106.33531951904297 305.32183837890625 104.37229919433594 317.48675537109375 104.02843475341797 C 318.9250793457031 106.49748992919922 320.5832214355469 103.44898986816406 327.6783447265625 111.78557586669922 C 330.85076904296875 117.07231140136719 328.885498046875 122.47659301757812 330.260986328125 117.36307525634766 C 331.3800964355469 136.90219116210938 327.6031188964844 130.20376586914062 307.0211486816406 141.8158416748047 C 334.75555419921875 136.2382354736328 333.5267028808594 129.57424926757812 343.640380859375 127.22761535644531 C 344.9425048828125 125.08218383789062 346.7579650878906 125.53946685791016 343.9259948730469 108.01811218261719 C 347.9957275390625 123.33094787597656 342.517333984375 113.85079956054688 341.95550537109375 108.32814025878906 C 336.05438232421875 103.01870727539062 327.8043212890625 96.32498931884766 306.7756652832031 99.62056732177734 C 315.5121765136719 97.68090057373047 329.25390625 96.49586486816406 335.7766418457031 94.4879379272461 C 335.7900695800781 95.42969512939453 347.49749755859375 93.24217987060547 346.5816955566406 95.09320831298828 C 352.4609069824219 100.187744140625 358.32672119140625 106.9405746459961 361.47686767578125 110.96636962890625 C 365.85870361328125 118.73681640625 368.2959899902344 124.73404693603516 370.4430236816406 136.1750946044922 C 370.83880615234375 142.6309356689453 371.4005126953125 141.7222442626953 370.5926818847656 152.70809936523438 C 369.2630310058594 162.37115478515625 367.5848083496094 167.87777709960938 365.7168884277344 171.30455017089844 C 363.5800476074219 177.4883575439453 359.484375 184.3137664794922 356.7016296386719 187.8833770751953 C 354.2381591796875 191.3983154296875 347.1761779785156 200.46783447265625 345.6940612792969 200.97357177734375 C 345.1335754394531 201.83108520507812 340.5279846191406 206.17539978027344 335.0302734375 210.39332580566406 C 330.6146545410156 213.64608764648438 324.8209228515625 218.27142333984375 321.4559020996094 219.77908325195312 C 318.7892150878906 221.8705291748047 310.8462829589844 225.9927520751953 303.9800109863281 229.3313446044922 C 299.8954772949219 231.00704956054688 295.1252746582031 232.77731323242188 292.5816345214844 234.28475952148438 C 295.3856506347656 232.4888916015625 288.2384338378906 235.3269500732422 284.15447998046875 236.4317626953125 C 283.5987854003906 236.54893493652344 281.4870910644531 236.98788452148438 282.8545837402344 236.23757934570312 C 280.146240234375 238.44056701660156 276.4193420410156 237.2220001220703 277.4473571777344 238.21640014648438 C 275.5283508300781 239.28366088867188 271.3270263671875 238.23214721679688 272.4650573730469 239.37335205078125 C 273.763916015625 240.59983825683594 269.7184143066406 238.73086547851562 265.08746337890625 240.41372680664062 C 262.852783203125 240.54937744140625 258.6626892089844 241.78501892089844 255.29063415527344 242.41888427734375 C 253.7418670654297 242.97235107421875 249.50643920898438 242.45458984375 245.01165771484375 243.22186279296875 C 242.03358459472656 244.00694274902344 234.98660278320312 243.5003662109375 238.4839324951172 244.1986541748047 C 236.72677612304688 244.4703369140625 229.681640625 245.81332397460938 240.25387573242188 243.5869140625 C 230.39096069335938 244.1777801513672 219.92694091796875 243.8220977783203 211.19345092773438 241.6715087890625 C 206.91842651367188 241.1856689453125 198.3020477294922 238.63002014160156 193.3566131591797 236.4061737060547 C 189.81851196289062 235.40875244140625 182.10015869140625 231.17434692382812 179.72344970703125 229.73272705078125 C 171.13690185546875 224.6930694580078 167.36541748046875 221.15573120117188 163.14187622070312 217.2820281982422 C 158.75668334960938 213.31887817382812 152.76126098632812 206.49220275878906 149.75540161132812 199.8174285888672 C 145.9259796142578 192.80397033691406 144.86329650878906 187.5006866455078 143.7941131591797 182.45310974121094 C 142.08212280273438 170.42098999023438 143.03173828125 162.53086853027344 147.01010131835938 152.28431701660156 C 143.5431671142578 152.31629943847656 152.36688232421875 149.8341522216797 156.25352478027344 144.93565368652344 C 157.816650390625 138.30560302734375 157.8939208984375 129.6291961669922 157.5427703857422 122.0034408569336 C 160.8529510498047 128.22047424316406 166.4850616455078 138.31326293945312 166.55487060546875 138.6848907470703 C 169.10284423828125 139.31712341308594 175.37924194335938 135.88343811035156 178.2612762451172 134.15232849121094 C 185.6585693359375 131.28775024414062 197.32452392578125 125.99836730957031 202.57891845703125 125.85031127929688 C 178.60467529296875 137.92564392089844 189.15834045410156 142.24124145507812 183.54498291015625 151.44276428222656 C 185.1112823486328 158.57040405273438 184.4407501220703 167.66928100585938 193.36111450195312 166.3553924560547 C 211.1180419921875 163.02398681640625 200.06158447265625 169.1424560546875 222.62637329101562 162.33314514160156 C 233.2003631591797 137.4163055419922 231.43319702148438 146.60838317871094 211.2606964111328 143.73651123046875 C 215.22137451171875 133.52818298339844 206.8529510498047 142.2624053955078 221.03781127929688 128.28057861328125 C 220.80714416503906 130.13319396972656 227.7701416015625 133.46775817871094 226.37322998046875 137.50827026367188 C 230.40936279296875 138.04176330566406 227.51016235351562 154.03575134277344 226.885986328125 153.67247009277344 C 226.96975708007812 154.12571716308594 222.43421936035156 159.31016540527344 218.5772705078125 161.98765563964844 C 227.54136657714844 158.10983276367188 227.9302215576172 163.2428741455078 237.9574737548828 157.76573181152344 C 248.73382568359375 154.5358428955078 239.66207885742188 152.89907836914062 245.5655975341797 151.1068115234375 C 244.02557373046875 143.1783905029297 242.65213012695312 137.65159606933594 236.5035858154297 132.90931701660156 C 231.94357299804688 126.93931579589844 214.35545349121094 127.24481201171875 223.96641540527344 125.26811981201172 C 205.14163208007812 122.96987915039062 205.928466796875 127.82777404785156 197.60397338867188 126.42225646972656 C 213.7443084716797 120.71512603759766 222.7515411376953 119.400146484375 225.2056884765625 118.1853256225586 C 231.39308166503906 116.44213104248047 241.21348571777344 115.48190307617188 245.6060333251953 114.13762664794922 C 245.1566162109375 115.69647979736328 251.20716857910156 115.00151824951172 236.00912475585938 89.93267822265625" stroke-width="0.0" fill="rgb(251, 188, 103)" opacity="1.0" stroke="rgb(249, 18, 118)" stroke-opacity="0.9835308" stroke-linecap="round" stroke-linejoin="round"/>
    <path d="M 300.8012390136719 377.406005859375 C 284.94757080078125 376.621337890625 298.9510498046875 375.76666259765625 306.7106018066406 376.59307861328125 C 305.1630859375 378.73876953125 315.68707275390625 376.1506042480469 308.8356018066406 378.57464599609375 C 313.0844421386719 377.7244873046875 315.9501647949219 380.5261535644531 315.8614196777344 382.2194519042969 C 316.2819519042969 390.614013671875 315.07879638671875 395.906005859375 313.98797607421875 402.7185974121094 C 312.7567443847656 411.4027099609375 310.36981201171875 420.8470764160156 308.2221984863281 431.1879577636719 C 305.37548828125 440.3296813964844 303.8089294433594 448.9734802246094 302.0878601074219 455.3511047363281 C 299.4408264160156 469.5577392578125 301.4315185546875 469.4841003417969 296.27191162109375 471.86822509765625 C 286.6679382324219 475.61859130859375 285.8559875488281 480.5609436035156 288.23492431640625 473.04150390625 C 275.6368713378906 475.2716979980469 267.61083984375 473.72576904296875 257.8270263671875 471.8273010253906 C 249.74636840820312 474.0406188964844 248.65061950683594 466.2911682128906 246.800048828125 474.86273193359375 C 244.85452270507812 490.4020080566406 245.04281616210938 500.7456359863281 243.42831420898438 505.6326904296875 C 253.8107452392578 506.5330810546875 260.5006408691406 513.0018310546875 276.03997802734375 510.8707580566406 C 282.9644775390625 510.5270690917969 281.043212890625 503.9400329589844 296.21807861328125 505.6697692871094 C 303.716552734375 508.579833984375 307.7189636230469 511.6260986328125 303.4476318359375 517.8823852539062 C 295.85308837890625 523.324951171875 296.0952453613281 513.4510498046875 290.2817077636719 525.9860229492188 C 297.0227966308594 529.9088134765625 305.1944885253906 547.1176147460938 315.30609130859375 544.2752075195312 C 325.39300537109375 553.2848510742188 337.0808410644531 551.1644897460938 340.1344909667969 562.460693359375 C 345.67578125 554.1432495117188 343.3289794921875 573.3038330078125 340.8276062011719 576.182373046875 C 334.22174072265625 579.5498657226562 324.28802490234375 582.002685546875 325.044189453125 580.5756225585938 C 231.44473266601562 580.8923950195312 251.6946258544922 582.2620239257812 302.88079833984375 584.37646484375 C 339.1408386230469 582.2830810546875 312.65216064453125 582.3280029296875 336.1624450683594 575.2994995117188 C 342.8483581542969 573.822021484375 336.3390808105469 562.065185546875 343.04730224609375 560.6187133789062 C 336.8619384765625 547.796142578125 325.213134765625 548.5531005859375 317.87823486328125 542.0963745117188 C 299.0200500488281 537.2998657226562 302.0282287597656 526.8539428710938 294.5440979003906 536.7523193359375 C 280.12744140625 508.3356628417969 268.4152526855469 531.0206909179688 261.0323791503906 522.8976440429688 C 243.92819213867188 536.6245727539062 247.25399780273438 526.1832885742188 241.95053100585938 518.8741455078125 C 238.42141723632812 529.3727416992188 238.71678161621094 551.5005493164062 238.42555236816406 540.4287719726562 C 239.53343200683594 555.2708740234375 232.6956787109375 571.5338134765625 247.38844299316406 579.322265625 C 229.5590362548828 578.8426513671875 234.5557098388672 557.8756713867188 233.4945831298828 547.1470947265625 C 236.91717529296875 532.7788696289062 240.66265869140625 525.6857299804688 227.5650634765625 511.65069580078125 C 240.13169860839844 506.2891845703125 243.51724243164062 502.7593688964844 242.1150665283203 491.9993896484375 C 243.91268920898438 485.26904296875 242.9018096923828 475.9728698730469 242.3489532470703 469.538330078125 C 232.54409790039062 466.41357421875 234.69200134277344 470.4220886230469 231.9701690673828 452.5807800292969 C 233.38682556152344 457.4313659667969 227.58163452148438 452.08135986328125 227.57272338867188 456.29071044921875 C 228.33163452148438 460.4011535644531 225.4232635498047 475.98663330078125 227.2268829345703 472.71392822265625 C 205.8401336669922 473.39996337890625 217.28570556640625 502.64501953125 208.85507202148438 475.0534362792969 C 191.226318359375 475.21478271484375 180.20361328125 475.2676696777344 168.3045196533203 472.4075622558594 C 172.50643920898438 481.8030700683594 173.57476806640625 487.39434814453125 171.59173583984375 490.33538818359375 C 168.35601806640625 505.38421630859375 167.06564331054688 508.6259765625 173.84632873535156 508.1222229003906 C 185.4331512451172 512.9296875 196.54605102539062 513.1742553710938 208.45523071289062 507.3431091308594 C 203.94845581054688 507.3577880859375 214.90103149414062 507.1109924316406 218.68218994140625 511.4734802246094 C 220.9833526611328 511.2437438964844 222.03411865234375 522.1045532226562 219.0592498779297 521.1943969726562 C 210.38739013671875 528.237548828125 200.24710083007812 519.68603515625 196.17831420898438 528.9509887695312 C 185.67567443847656 525.3700561523438 173.7723846435547 530.4221801757812 163.1263427734375 528.3692016601562 C 146.7087860107422 558.677490234375 168.79991149902344 517.229248046875 153.50282287597656 521.9773559570312 C 149.18527221679688 512.3422241210938 155.79705810546875 507.89825439453125 165.52249145507812 505.2060852050781 C 164.71864318847656 499.5772399902344 168.74005126953125 481.27032470703125 164.39425659179688 472.87579345703125 C 161.075927734375 472.1813659667969 157.38011169433594 470.6661071777344 158.0207061767578 461.8859558105469 C 156.3115692138672 449.4151611328125 155.75521850585938 435.5345153808594 154.14996337890625 426.2337646484375 C 152.71981811523438 403.7229919433594 151.48593139648438 398.8997497558594 154.94276428222656 394.8582458496094 C 155.17794799804688 388.1034240722656 151.87136840820312 380.8903503417969 166.22825622558594 381.3158874511719 C 160.2917938232422 378.5890808105469 185.00697326660156 378.6058044433594 193.86317443847656 380.7752990722656 C 200.72933959960938 381.09967041015625 212.50633239746094 384.183837890625 219.3046417236328 385.68890380859375 C 229.27757263183594 385.5304260253906 238.0687713623047 386.76971435546875 246.13510131835938 386.9220275878906 C 250.8704071044922 386.72174072265625 254.0808868408203 386.4469299316406 256.5810241699219 386.3424072265625 C 256.71630859375 385.44189453125 256.4704284667969 382.82086181640625 255.10174560546875 382.2358703613281 C 254.48477172851562 381.17767333984375 253.15272521972656 381.9624938964844 249.8909912109375 381.8555603027344 C 252.18496704101562 384.00115966796875 254.78985595703125 379.8808898925781 256.359375 385.1658020019531 C 257.0336608886719 386.2874450683594 263.1976013183594 385.48468017578125 265.0507507324219 384.7236633300781 C 268.78411865234375 385.1999816894531 279.0606994628906 384.1650695800781 300.8012390136719 377.406005859375" stroke-width="0.0" fill="rgb(234, 82, 10)" opacity="0.9988975" stroke="rgb(229, 34, 200)" stroke-opacity="0.44484466" stroke-linecap="round" stroke-linejoin="round"/>
    <path d="M 182.3748779296875 240.39439392089844 C 187.4318084716797 237.19461059570312 193.45919799804688 242.00990295410156 185.80258178710938 237.16603088378906 C 198.14195251464844 242.15296936035156 202.7174835205078 242.99742126464844 200.63034057617188 243.41122436523438 C 202.97305297851562 243.23870849609375 205.1712646484375 243.96417236328125 202.84291076660156 243.29489135742188 C 201.85650634765625 248.91685485839844 199.25181579589844 257.7522888183594 198.1502685546875 256.2540588378906 C 199.70050048828125 260.5792541503906 194.99864196777344 262.83514404296875 195.3839569091797 268.908935546875 C 193.91122436523438 266.4888000488281 195.11849975585938 278.5399475097656 193.43118286132812 280.7919921875 C 194.44708251953125 290.89447021484375 191.96957397460938 283.25335693359375 191.46347045898438 294.5702209472656 C 186.12086486816406 300.60076904296875 186.4311065673828 302.2578125 180.89300537109375 301.3128356933594 C 178.3396453857422 301.55029296875 174.45513916015625 309.4620361328125 175.63758850097656 310.2241516113281 C 172.8872833251953 312.94366455078125 172.0466766357422 318.1761779785156 169.71783447265625 322.77215576171875 C 169.02798461914062 325.2464294433594 167.79812622070312 332.1673583984375 164.34030151367188 334.1846618652344 C 164.70974731445312 334.3395080566406 162.64871215820312 343.2088317871094 160.19940185546875 346.9460754394531 C 160.86993408203125 349.8800048828125 158.10874938964844 354.2742614746094 158.13221740722656 357.79132080078125 C 151.61801147460938 363.99700927734375 156.40219116210938 359.5545654296875 153.41552734375 371.8599853515625 C 156.99044799804688 380.05029296875 154.05630493164062 386.0934753417969 157.18484497070312 386.9812316894531 C 153.90313720703125 389.93963623046875 156.9633331298828 399.328125 153.6396484375 397.188232421875 C 153.88233947753906 404.71044921875 153.7366485595703 408.5582275390625 153.6230010986328 410.6688232421875 C 156.19247436523438 409.9678039550781 155.7243194580078 410.5457458496094 155.3252410888672 409.67193603515625 C 155.001220703125 411.019775390625 153.93772888183594 411.016845703125 154.20826721191406 409.5865173339844 C 154.48916625976562 401.2203674316406 153.5251007080078 395.4648742675781 155.97784423828125 399.6580505371094 C 153.36058044433594 397.92333984375 146.9830322265625 398.14178466796875 152.32064819335938 397.15692138671875 C 147.16485595703125 399.18621826171875 133.23365783691406 397.2908630371094 128.74241638183594 393.62860107421875 C 124.87582397460938 391.6076354980469 121.72653198242188 389.0638427734375 117.4623031616211 382.0227966308594 C 114.90016174316406 374.50286865234375 113.77399444580078 369.2704772949219 114.29810333251953 362.51116943359375 C 111.95942687988281 361.0703430175781 113.64771270751953 343.5178527832031 113.78618621826172 349.1701354980469 C 114.66679382324219 341.3442687988281 114.80359649658203 343.8891906738281 106.53126525878906 344.77703857421875 C 117.40031433105469 342.294677734375 113.55322265625 344.667724609375 93.75279998779297 353.6827697753906 C 88.6081771850586 356.6116638183594 83.73827362060547 346.44146728515625 84.29168701171875 358.4631652832031 C 71.51527404785156 368.2711486816406 69.66637420654297 380.73602294921875 60.45519256591797 383.0781555175781 C 58.62196731567383 373.5286560058594 60.661537170410156 385.5858154296875 59.15397644042969 395.4556884765625 C 57.8027458190918 386.7153015136719 61.67113494873047 404.33697509765625 52.277645111083984 405.6784362792969 C 40.50435256958008 400.80572509765625 47.95768737792969 395.1138610839844 44.778709411621094 393.4332580566406 C 47.23399353027344 392.911376953125 40.10524368286133 388.1937561035156 44.860939025878906 386.1828918457031 C 38.655277252197266 388.4119567871094 38.575435638427734 397.2364501953125 33.747169494628906 399.0215759277344 C 34.7740478515625 402.9280090332031 23.1699275970459 402.41571044921875 22.81598472595215 397.5089111328125 C 23.245121002197266 401.8858337402344 21.164655685424805 396.6980285644531 22.83940887451172 383.3399353027344 C 22.837696075439453 388.6609191894531 20.55571174621582 384.1305847167969 18.4138240814209 379.7419128417969 C 15.478710174560547 375.7154541015625 15.95118522644043 371.052001953125 18.079513549804688 365.8596496582031 C 17.90926170349121 361.1905517578125 17.602325439453125 356.3001708984375 16.850385665893555 355.4122009277344 C 11.105085372924805 350.7997741699219 16.077871322631836 347.5929260253906 21.752887725830078 340.8271179199219 C 18.19336700439453 331.2945556640625 11.258617401123047 323.14501953125 23.525163650512695 320.34283447265625 C 20.1247615814209 327.5857238769531 21.462257385253906 327.3975830078125 25.118947982788086 328.7301940917969 C 29.380977630615234 330.2690124511719 34.948848724365234 330.3268127441406 39.72920227050781 330.08612060546875 C 48.88157272338867 330.7807922363281 48.90365219116211 328.399169921875 55.38534164428711 324.4226379394531 C 58.863990783691406 319.9700622558594 63.18802261352539 311.3774108886719 73.41252899169922 304.0335388183594 C 77.9574966430664 308.3633728027344 80.69671630859375 306.46142578125 84.42158508300781 302.9881286621094 C 87.87591552734375 299.202880859375 91.13862609863281 296.2811279296875 94.18475341796875 294.4166564941406 C 96.98198699951172 293.2293701171875 99.79190826416016 292.6175842285156 102.21917724609375 293.01318359375 C 104.38542175292969 294.56903076171875 106.7989273071289 296.9150085449219 109.08375549316406 299.99395751953125 C 110.97796630859375 303.82305908203125 112.90545654296875 308.1440734863281 115.34121704101562 312.5105895996094 C 117.53962707519531 317.0390625 119.27984619140625 321.61578369140625 121.24571990966797 326.2959899902344 C 121.65808868408203 331.1687927246094 122.10051727294922 333.3597106933594 130.43353271484375 332.48126220703125 C 136.5513916015625 333.3167724609375 136.04319763183594 330.6484069824219 140.38999938964844 329.1046447753906 C 144.03363037109375 322.72906494140625 148.82386779785156 325.5703125 152.60296630859375 319.4449157714844 C 151.5596923828125 315.6788635253906 155.10516357421875 310.40948486328125 155.64736938476562 305.305908203125 C 157.47117614746094 300.82427978515625 160.6177978515625 292.1027526855469 156.82391357421875 292.6039733886719 C 154.61361694335938 288.103271484375 155.980224609375 281.9856872558594 155.44366455078125 280.19757080078125 C 158.6815185546875 271.07012939453125 162.53073120117188 263.8480224609375 166.50833129882812 259.3330383300781 C 169.67982482910156 254.79306030273438 171.73609924316406 250.79710388183594 178.00303649902344 244.88949584960938 C 184.33607482910156 239.553955078125 179.90174865722656 239.06553649902344 182.3748779296875 240.39439392089844" stroke-width="0.0" fill="rgb(157, 135, 186)" opacity="0.99999344" stroke="rgb(107, 159, 52)" stroke-opacity="0.43928063" stroke-linecap="round" stroke-linejoin="round"/>
    <path d="M 92.80201721191406 289.6255187988281 C 97.39115905761719 284.9289855957031 100.05409240722656 287.0436096191406 99.43852233886719 286.08697509765625 C 100.12593841552734 282.8179931640625 101.76901245117188 293.2411804199219 100.99668884277344 286.17938232421875 C 100.92709350585938 288.75 107.80945587158203 292.3641357421875 110.22625732421875 295.3977355957031 C 105.25420379638672 287.7864685058594 105.61876678466797 293.17059326171875 105.32684326171875 290.39794921875 C 110.06192779541016 292.1171875 111.7928466796875 300.8841247558594 115.9698715209961 302.9589538574219 C 111.47045135498047 296.73870849609375 111.3907470703125 296.63360595703125 105.90477752685547 290.9817199707031 C 113.48937225341797 300.45526123046875 117.95975494384766 307.087890625 116.86932373046875 304.5168762207031 C 112.1936264038086 299.8958435058594 117.63230895996094 301.3525390625 118.42879486083984 309.766357421875 C 118.96448516845703 304.289794921875 118.28633117675781 308.3963317871094 119.01512908935547 306.1531982421875 C 118.3858642578125 306.4166564941406 119.78614044189453 311.4833679199219 117.48097229003906 304.0315246582031 C 119.98175048828125 309.74566650390625 120.70250701904297 309.4694519042969 121.21133422851562 318.2350769042969 C 121.36473846435547 307.75762939453125 121.34813690185547 313.6173095703125 123.78170776367188 319.2941589355469 C 123.60555267333984 314.5191345214844 123.19286346435547 317.06976318359375 122.6136703491211 315.4529724121094 C 124.16353607177734 316.9317321777344 124.03778839111328 323.6593017578125 124.0774917602539 318.9835205078125 C 124.61702728271484 316.880615234375 124.14535522460938 326.26849365234375 125.72061920166016 333.3667907714844 C 125.04845428466797 322.8882751464844 126.30623626708984 324.2314147949219 126.28767395019531 330.35711669921875 C 128.61585998535156 326.9709777832031 126.76602935791016 329.91021728515625 124.44718170166016 334.39422607421875 C 127.11328125 330.38909912109375 125.59113311767578 334.1246032714844 124.88790130615234 333.5193176269531 C 127.1405029296875 328.70062255859375 124.79627990722656 332.9416198730469 127.5232162475586 330.6729736328125 C 126.65755462646484 331.46417236328125 118.08782958984375 336.3784484863281 115.67876434326172 338.6575622558594 C 118.90433502197266 335.1044921875 117.25651550292969 339.24688720703125 118.41259765625 337.4065246582031 C 114.08003997802734 338.64483642578125 108.90872955322266 342.6286315917969 108.88771057128906 342.0855407714844 C 106.50601196289062 344.0508728027344 99.6207275390625 347.1607666015625 92.53605651855469 350.3514709472656 C 86.444091796875 351.98565673828125 90.76085662841797 353.3043212890625 79.30748748779297 352.3210144042969 C 91.58177947998047 357.84307861328125 87.35137939453125 360.2687072753906 89.0976791381836 353.8411865234375 C 90.14947509765625 363.70013427734375 90.6270523071289 364.50701904296875 81.3115463256836 365.86712646484375 C 82.12061309814453 360.6667175292969 75.89163970947266 372.96246337890625 82.11380004882812 351.97198486328125 C 75.83213806152344 355.28515625 77.73595428466797 363.28369140625 69.28654479980469 371.1546325683594 C 68.9903793334961 372.85400390625 63.273807525634766 377.8171691894531 62.341880798339844 379.2474670410156 C 55.57522201538086 380.78302001953125 56.18700408935547 384.0557556152344 56.45907211303711 390.1174011230469 C 56.128196716308594 394.5152282714844 56.66828155517578 404.9792785644531 50.012847900390625 400.85040283203125 C 53.949771881103516 407.6083068847656 47.15422821044922 402.0193786621094 54.9631233215332 404.4817199707031 C 49.042816162109375 403.1344909667969 44.63222885131836 400.2491149902344 53.99773406982422 404.8853759765625 C 45.03377914428711 401.837646484375 47.77446746826172 375.0550231933594 45.18452835083008 399.5981140136719 C 44.39288330078125 393.680908203125 41.063880920410156 376.85955810546875 45.82891082763672 396.2943420410156 C 47.84150314331055 376.5211181640625 39.74517059326172 382.0498352050781 39.1149787902832 385.78472900390625 C 34.85926818847656 390.4936828613281 34.50922775268555 395.5138854980469 28.42637062072754 398.6331787109375 C 17.002986907958984 394.0212707519531 35.18442916870117 376.7043762207031 23.168548583984375 383.8995666503906 C 23.30353546142578 396.92547607421875 8.166265487670898 393.8053894042969 9.460620880126953 386.72283935546875 C 13.793388366699219 385.4822692871094 15.301794052124023 388.8300476074219 12.336302757263184 387.3349914550781 C 6.422945976257324 389.0396423339844 10.073105812072754 379.43829345703125 19.515411376953125 367.9559020996094 C 23.123109817504883 374.25408935546875 13.103943824768066 373.41937255859375 8.213613510131836 377.9616394042969 C 7.685564041137695 379.55657958984375 -5.1147613525390625 377.9495849609375 4.283027648925781 372.49456787109375 C -2.887676477432251 379.42608642578125 1.170433759689331 378.4032897949219 0.26975709199905396 370.8244934082031 C -0.11854854226112366 371.2419128417969 3.437849998474121 363.4736633300781 7.695688724517822 357.9982604980469 C 10.703386306762695 356.94232177734375 14.545247077941895 345.965576171875 13.670466423034668 352.1419677734375 C 18.04196548461914 356.5507507324219 20.51894187927246 339.3055114746094 28.330907821655273 345.549560546875 C 22.513463973999023 334.0843200683594 19.67669677734375 332.2060546875 19.696104049682617 324.6756896972656 C 15.665812492370605 330.7855529785156 30.83085823059082 314.9595947265625 18.8316650390625 321.9073791503906 C 20.994287490844727 318.3606872558594 27.986120223999023 317.8240966796875 28.499120712280273 324.9827575683594 C 24.51015281677246 318.8847961425781 33.0059700012207 325.5832824707031 35.144981384277344 328.2120056152344 C 45.47746658325195 331.9903869628906 22.608097076416016 326.8011169433594 39.16999053955078 333.1721496582031 C 67.41161346435547 332.30548095703125 61.087520599365234 335.82861328125 46.63764190673828 328.35504150390625 C 44.37617874145508 321.9602355957031 51.8715934753418 319.4790954589844 50.95658493041992 320.2418212890625 C 58.60698318481445 320.71881103515625 56.162803649902344 318.2747802734375 57.25343322753906 324.5185852050781 C 58.97243881225586 325.1585693359375 61.656776428222656 321.0593566894531 64.371337890625 316.5618591308594 C 67.71391296386719 314.20733642578125 70.54248046875 310.5093994140625 73.14317321777344 308.15264892578125 C 76.94454193115234 304.20245361328125 80.72106170654297 300.6839904785156 82.21207427978516 298.978759765625 C 85.3221435546875 296.594482421875 89.95054626464844 292.34033203125 93.55613708496094 290.1151123046875 C 97.64242553710938 286.69805908203125 98.40387725830078 284.7663879394531 92.80201721191406 289.6255187988281" stroke-width="0.0" fill="rgb(248, 189, 111)" opacity="1.0" stroke="rgb(23, 122, 97)" stroke-opacity="0.88492876" stroke-linecap="round" stroke-linejoin="round"/>
    <path d="M 386.5206604003906 280.25164794921875 C 385.92352294921875 280.11029052734375 385.3174133300781 280.3505554199219 387.9276428222656 281.0932922363281 C 384.9361572265625 278.2367248535156 386.9352722167969 280.31640625 387.55126953125 281.0241394042969 C 385.15655517578125 280.6047058105469 385.2493591308594 280.030029296875 386.35943603515625 280.2906188964844 C 388.34735107421875 280.7665710449219 390.6086120605469 283.1556091308594 393.7219543457031 283.9464111328125 C 392.2471923828125 285.29205322265625 396.46966552734375 286.1417541503906 402.4982604980469 291.1318054199219 C 406.6138916015625 293.704833984375 403.88165283203125 291.941650390625 401.5605773925781 292.7203369140625 C 396.467529296875 293.8509216308594 394.1884460449219 298.069091796875 389.9990234375 299.7392883300781 C 391.124267578125 299.12353515625 387.9495849609375 300.9218444824219 391.5368347167969 298.89288330078125 C 389.0418395996094 300.3421630859375 388.9190979003906 300.0888366699219 391.01654052734375 300.0985412597656 C 388.6939697265625 300.33624267578125 390.5013732910156 299.6416931152344 388.5539245605469 300.5232238769531 C 388.6946105957031 300.189453125 391.9313659667969 299.5225830078125 388.0114440917969 299.9726867675781 C 391.69775390625 300.2574157714844 394.36724853515625 296.340087890625 398.0491943359375 294.1754150390625 C 398.08795166015625 294.0989990234375 405.1954040527344 289.7864074707031 406.4981994628906 295.5062561035156 C 411.7235412597656 296.1212158203125 407.0775146484375 297.2520751953125 409.3143615722656 295.045654296875 C 404.59844970703125 299.8081359863281 404.49932861328125 298.7716369628906 406.5809631347656 300.0696105957031 C 403.876953125 298.61358642578125 406.1746520996094 299.4082336425781 409.2875061035156 295.1443176269531 C 407.84130859375 304.0545654296875 421.8360900878906 292.20263671875 451.26409912109375 283.3170166015625 C 445.52557373046875 315.6492614746094 424.5467224121094 316.4829406738281 410.5126037597656 318.1810607910156 C 412.8218994140625 318.8309326171875 439.7626953125 318.57891845703125 445.29083251953125 359.81121826171875 C 413.1746826171875 333.0418701171875 415.3894348144531 340.4781799316406 408.312744140625 333.843017578125 C 398.7876281738281 324.2383728027344 401.9599914550781 326.52227783203125 399.2228698730469 326.5845642089844 C 392.68585205078125 325.9914245605469 389.36175537109375 326.6729431152344 388.37261962890625 325.39727783203125 C 387.7933349609375 325.8707580566406 386.2501220703125 325.0730285644531 384.3372802734375 325.546875 C 384.63128662109375 324.9339599609375 383.78448486328125 324.3566589355469 383.3587341308594 325.3854064941406 C 383.4060974121094 323.91217041015625 381.6687927246094 324.3648681640625 382.8127746582031 325.8345947265625 C 383.634033203125 324.0730285644531 380.96453857421875 325.4945983886719 380.5239562988281 324.81658935546875 C 378.5888671875 324.60345458984375 376.0533447265625 323.52862548828125 375.1200256347656 323.0232238769531 C 375.36041259765625 323.9373474121094 373.90533447265625 323.20477294921875 372.08038330078125 323.1075134277344 C 370.6502685546875 323.4968566894531 369.4206848144531 321.7920227050781 368.25750732421875 322.51043701171875 C 367.0732116699219 322.3052673339844 366.0763854980469 320.9539794921875 359.8028564453125 321.17962646484375 C 363.1919860839844 321.03668212890625 363.2378845214844 320.4112854003906 357.5771789550781 320.2685546875 C 358.88232421875 320.883544921875 358.2218017578125 318.7602844238281 358.7133483886719 319.7952880859375 C 355.4679260253906 317.42242431640625 343.3485412597656 317.8711853027344 352.408447265625 310.7012023925781 C 352.9233703613281 304.24078369140625 356.1833190917969 306.9968566894531 355.39239501953125 305.71405029296875 C 355.17120361328125 307.0976867675781 354.80609130859375 306.5006408691406 355.8149108886719 301.01904296875 C 354.6723327636719 301.68438720703125 360.5797424316406 302.5028991699219 357.8625183105469 301.2664489746094 C 360.341552734375 302.0881042480469 358.0252380371094 302.8465270996094 353.71575927734375 301.7669982910156 C 357.0314636230469 302.40069580078125 356.6591796875 297.81243896484375 357.4647216796875 302.03778076171875 C 356.2872314453125 298.8656921386719 358.2462463378906 292.5779113769531 359.0065002441406 299.5784912109375 C 357.0654296875 289.7779846191406 363.3812561035156 289.4295959472656 358.0111083984375 295.2674865722656 C 359.7653503417969 292.6210021972656 364.7770690917969 278.23980712890625 365.8780517578125 269.9250183105469 C 364.5932922363281 272.94525146484375 365.6089782714844 269.4258728027344 386.5206604003906 280.25164794921875" stroke-width="0.0" fill="rgb(252, 188, 101)" opacity="0.99951667" stroke="rgb(212, 121, 5)" stroke-opacity="0.9909295" stroke-linecap="round" stroke-linejoin="round"/>
    <path d="M 320.9855651855469 371.148193359375 C 321.8548278808594 372.1786804199219 322.6334533691406 373.2208251953125 323.17547607421875 374.4103088378906 C 323.65093994140625 375.5438537597656 323.6983337402344 376.5225524902344 323.2296142578125 377.2619934082031 C 322.75445556640625 378.2087097167969 321.7168273925781 378.8370361328125 320.2770690917969 379.2215881347656 C 318.5666198730469 379.70184326171875 316.5322570800781 379.8008728027344 313.9219665527344 379.67926025390625 C 312.9671936035156 379.3587341308594 313.4022216796875 380.14935302734375 313.4700622558594 381.4349670410156 C 313.9292907714844 385.5181579589844 314.0242004394531 390.2808532714844 313.8125305175781 394.7752685546875 C 313.6282653808594 399.84210205078125 312.85052490234375 406.4212951660156 310.9825134277344 413.6175842285156 C 308.94818115234375 421.5954895019531 306.2259826660156 429.9195556640625 304.5245666503906 438.2515869140625 C 302.9162292480469 447.756591796875 301.6038818359375 458.29156494140625 293.59906005859375 466.2065734863281 C 284.7872314453125 472.8310852050781 288.88116455078125 471.3457946777344 283.2049560546875 508.4880065917969 C 304.1182556152344 506.6697082519531 305.0455017089844 507.537109375 277.45458984375 532.7106323242188 C 265.0939025878906 531.1021728515625 266.9382629394531 538.8198852539062 267.915283203125 555.9944458007812 C 268.8387145996094 566.7618408203125 272.7889709472656 574.5429077148438 280.1697082519531 577.4356689453125 C 290.2528991699219 578.338134765625 299.3899841308594 575.5620727539062 308.71368408203125 573.2239990234375 C 313.2369689941406 570.1686401367188 313.9889221191406 568.1165771484375 314.2680358886719 568.2430419921875 C 313.0603942871094 570.0315551757812 309.79827880859375 572.6492309570312 306.20855712890625 576.8272094726562 C 300.7461853027344 580.5328979492188 293.7226257324219 577.290771484375 285.35894775390625 578.8681030273438 C 287.03106689453125 575.1817016601562 282.1585388183594 569.2774047851562 274.03033447265625 576.7970581054688 C 271.70172119140625 569.15673828125 268.5973205566406 565.3190307617188 267.9385986328125 555.2806396484375 C 267.3346862792969 543.6914672851562 266.43212890625 536.3421630859375 270.18939208984375 533.4890747070312 C 260.70361328125 533.7752685546875 233.5594024658203 535.1544189453125 240.05767822265625 522.125244140625 C 223.3904571533203 506.2051086425781 246.4931640625 511.36456298828125 244.7285614013672 499.6708984375 C 246.0386962890625 483.4049072265625 247.28309631347656 474.9287414550781 246.8922576904297 469.3771057128906 C 239.2541046142578 466.15576171875 236.6298370361328 462.40936279296875 231.2452392578125 464.81158447265625 C 214.74118041992188 469.8446350097656 209.5561065673828 468.66748046875 209.5233917236328 502.36669921875 C 203.21466064453125 507.685302734375 230.73411560058594 535.2650146484375 182.56643676757812 536.5484619140625 C 173.2434539794922 529.6231689453125 176.5884246826172 541.2418212890625 175.6654052734375 561.8367309570312 C 175.77081298828125 575.710693359375 173.47178649902344 579.0845947265625 180.64602661132812 578.2494506835938 C 182.66653442382812 591.9342041015625 197.42274475097656 585.5111083984375 203.9206085205078 580.0947265625 C 214.6082000732422 568.5719604492188 219.16104125976562 567.1806640625 217.462646484375 580.1764526367188 C 214.44998168945312 590.30810546875 196.63201904296875 585.1180419921875 187.8827362060547 587.146240234375 C 179.73831176757812 581.57275390625 169.949462890625 587.4033203125 160.10743713378906 585.05615234375 C 161.73690795898438 590.871826171875 162.42324829101562 592.9801025390625 159.0421905517578 590.505126953125 C 163.8275909423828 591.0828857421875 172.3000030517578 589.0029296875 175.42076110839844 583.0172119140625 C 175.38201904296875 573.1266479492188 176.1085968017578 560.4674072265625 175.68438720703125 541.3926391601562 C 177.28785705566406 525.2410278320312 175.10450744628906 546.6249389648438 154.40655517578125 514.0446166992188 C 171.03451538085938 500.5989685058594 167.97015380859375 516.7479248046875 169.5530548095703 485.91339111328125 C 169.72230529785156 477.3768615722656 168.37083435058594 472.43182373046875 170.04949951171875 472.455078125 C 165.9708251953125 473.09136962890625 166.1754150390625 470.1127014160156 165.9585723876953 469.7520751953125 C 166.91554260253906 474.2044372558594 170.5000762939453 471.3876953125 173.83474731445312 474.17236328125 C 180.24673461914062 475.0527648925781 190.21615600585938 475.52130126953125 193.2317657470703 475.6195373535156 C 205.33786010742188 475.57562255859375 215.17816162109375 475.5744934082031 212.92361450195312 474.7354736328125 C 217.51939392089844 466.7523193359375 227.36766052246094 466.7049560546875 234.0663604736328 463.79034423828125 C 240.32513427734375 464.631591796875 245.42030334472656 470.5635681152344 253.7384033203125 471.1659240722656 C 254.12722778320312 472.0823974609375 270.66766357421875 472.4124450683594 274.6050109863281 472.9119567871094 C 286.1967468261719 471.7338562011719 286.680908203125 475.2615966796875 290.34765625 468.81109619140625 C 299.5531005859375 462.6337585449219 302.6886291503906 451.2209167480469 304.3143310546875 439.08197021484375 C 307.1150817871094 425.18682861328125 311.7850036621094 414.439697265625 313.2953186035156 401.12884521484375 C 314.1173400878906 394.6297607421875 314.1919860839844 386.0267028808594 313.2081298828125 379.654052734375 C 309.21661376953125 380.36151123046875 296.1241760253906 376.9261169433594 294.8224792480469 379.3497314453125 C 285.32666015625 382.1522216796875 275.8012390136719 384.4842224121094 263.3945007324219 386.1824951171875 C 248.35992431640625 387.6632385253906 247.43736267089844 387.7641296386719 231.41656494140625 387.4512634277344 C 219.8957977294922 386.3902587890625 211.36097717285156 384.98486328125 204.2601318359375 383.6919250488281 C 198.58026123046875 382.9603271484375 192.83920288085938 381.1731262207031 183.90182495117188 379.86895751953125 C 187.42947387695312 376.6863098144531 202.96128845214844 379.6685791015625 201.07949829101562 377.7033996582031 C 220.18910217285156 377.58441162109375 201.3211212158203 376.3791198730469 227.43133544921875 376.5135192871094 C 235.40296936035156 376.2109069824219 234.2137908935547 375.3510437011719 256.592529296875 375.5461730957031 C 264.84112548828125 376.068603515625 278.8565368652344 374.69775390625 260.6444091796875 376.4220886230469 C 284.17803955078125 375.7867736816406 301.32000732421875 379.3067321777344 307.6962585449219 378.714111328125 C 317.8519287109375 381.0407409667969 328.5688171386719 379.7366027832031 320.9855651855469 371.148193359375" stroke-width="0.0" fill="rgb(243, 197, 96)" opacity="0.99959326" stroke="rgb(131, 54, 218)" stroke-opacity="0.6647498" stroke-linecap="round" stroke-linejoin="round"/>
    <path d="M 107.83641052246094 204.47991943359375 C 103.73989868164062 204.036865234375 106.4739990234375 204.2395477294922 103.97259521484375 204.10736083984375 C 107.6030044555664 203.88348388671875 112.84504699707031 206.02455139160156 109.59043884277344 204.67649841308594 C 109.81098175048828 206.13731384277344 110.11669921875 206.07728576660156 109.85297393798828 204.32379150390625 C 107.58919525146484 205.4600372314453 116.41494750976562 205.57630920410156 115.02574157714844 206.2535400390625 C 114.75579071044922 205.81436157226562 117.65877532958984 206.7599639892578 119.86732482910156 206.76812744140625 C 118.78067016601562 207.26902770996094 122.82237243652344 206.39727783203125 141.32603454589844 212.8330535888672 C 121.986572265625 210.05929565429688 123.0831069946289 208.8584747314453 123.67437744140625 209.66189575195312 C 123.42540740966797 209.2191619873047 125.06364440917969 209.8647003173828 127.52610778808594 210.46755981445312 C 132.1389617919922 210.86338806152344 132.96864318847656 211.7581024169922 130.3939208984375 211.889404296875 C 129.99252319335938 211.73849487304688 131.2487335205078 209.9005126953125 148.7548065185547 216.48524475097656 C 134.44334411621094 218.64453125 132.50599670410156 214.8824920654297 149.80160522460938 220.03790283203125 C 141.11993408203125 226.36019897460938 142.75442504882812 223.97756958007812 148.8887176513672 236.45899963378906 C 127.14744567871094 233.57273864746094 124.72064971923828 232.74600219726562 125.22140502929688 232.90994262695312 C 122.21728515625 233.85443115234375 120.20878601074219 230.02957153320312 119.1917724609375 231.42918395996094 C 120.51969909667969 227.8430633544922 119.4327163696289 228.6473846435547 119.7758560180664 232.26754760742188 C 118.15496063232422 226.1094512939453 117.80237579345703 225.1217498779297 119.84080505371094 231.82101440429688 C 112.6522445678711 229.28318786621094 114.31280517578125 230.45089721679688 115.7904281616211 231.26304626464844 C 112.16668701171875 229.1795196533203 110.475830078125 229.5174560546875 110.66374206542969 230.5135955810547 C 108.7323989868164 227.39529418945312 106.84795379638672 227.93478393554688 112.11641693115234 229.66232299804688 C 106.16243743896484 227.78285217285156 100.04259490966797 227.78317260742188 104.78197479248047 226.57386779785156 C 99.2574462890625 227.44525146484375 100.14772033691406 225.5092315673828 100.49848937988281 225.72706604003906 C 99.53941345214844 227.34837341308594 97.10218811035156 224.674560546875 94.65057373046875 223.48619079589844 C 96.4233169555664 224.01771545410156 94.05084228515625 224.3816680908203 82.20560455322266 219.09249877929688 C 73.83832550048828 216.01455688476562 74.01953125 214.1682891845703 82.77593994140625 211.85824584960938 C 92.69515228271484 214.00155639648438 92.96400451660156 212.60926818847656 91.42626190185547 213.18960571289062 C 93.23606872558594 212.51528930664062 92.5431900024414 213.28460693359375 83.81212615966797 212.35047912597656 C 93.4819564819336 210.38629150390625 92.30186462402344 211.4138946533203 75.99820709228516 212.77879333496094 C 76.52328491210938 200.64077758789062 82.62847137451172 200.3096466064453 107.83641052246094 204.47991943359375" stroke-width="0.0" fill="rgb(1, 1, 1)" opacity="0.99903274" stroke="rgb(223, 5, 216)" stroke-opacity="0.3006155" stroke-linecap="round" stroke-linejoin="round"/>
    <path d="M 435.87469482421875 309.9532470703125 C 438.08563232421875 305.9417724609375 446.20233154296875 287.1423645019531 476.3354187011719 318.21868896484375 C 462.3635559082031 332.28558349609375 456.6795959472656 315.6115417480469 461.1990966796875 337.4689636230469 C 436.2709045410156 330.6630554199219 441.64208984375 320.2976379394531 440.2393798828125 329.3434753417969 C 436.5003356933594 334.76470947265625 434.8998107910156 331.7518615722656 447.5992431640625 332.977783203125 C 438.7528381347656 336.31024169921875 441.5785217285156 328.7688903808594 457.4098205566406 339.72808837890625 C 434.5148010253906 340.7894592285156 434.1864013671875 336.48052978515625 433.25799560546875 336.0568542480469 C 431.465087890625 337.4422302246094 430.81243896484375 337.7980041503906 429.9660339355469 338.0532531738281 C 428.52593994140625 337.8866271972656 427.467529296875 338.16558837890625 426.5046691894531 338.5389404296875 C 425.5780944824219 337.6341552734375 424.7724304199219 337.38037109375 423.50946044921875 336.8484802246094 C 422.2579040527344 336.94586181640625 421.22552490234375 336.07196044921875 420.205810546875 336.4129333496094 C 419.132568359375 336.82183837890625 418.21929931640625 337.0138854980469 417.52581787109375 335.7348327636719 C 417.0707092285156 334.2998352050781 416.4561767578125 333.5517272949219 416.23193359375 332.66082763671875 C 416.33062744140625 331.7344970703125 416.45916748046875 330.9054260253906 416.39312744140625 329.806884765625 C 416.8505859375 328.96478271484375 417.3228759765625 328.1449279785156 417.91424560546875 327.51812744140625 C 418.7743835449219 327.100341796875 419.384765625 326.4402160644531 419.70263671875 325.7346496582031 C 420.2186279296875 324.9902038574219 420.7093200683594 324.2076416015625 421.1163635253906 323.468017578125 C 421.49810791015625 322.8489990234375 421.0652770996094 322.362548828125 418.1524353027344 319.90087890625 C 421.24993896484375 319.5520935058594 423.3519287109375 320.8282165527344 435.87469482421875 309.9532470703125" stroke-width="0.0" fill="rgb(252, 187, 105)" opacity="1.0" stroke="rgb(163, 207, 97)" stroke-opacity="0.21390456" stroke-linecap="round" stroke-linejoin="round"/>
    <path d="M 327.8522644042969 113.54976654052734 C 325.6021728515625 115.28398132324219 327.8223571777344 115.83445739746094 291.2548522949219 115.29170227050781 C 315.8012390136719 112.39479064941406 309.878662109375 116.44666290283203 309.2915344238281 118.11306762695312 C 309.1985168457031 116.70525360107422 307.4205322265625 123.12748718261719 314.72705078125 121.5568618774414 C 315.5932922363281 116.68585205078125 320.31671142578125 115.25139617919922 323.31927490234375 121.92188262939453 C 321.2355651855469 124.20919799804688 318.0746765136719 130.2080535888672 319.5067138671875 136.0325164794922 C 324.4544677734375 127.43246459960938 328.2525329589844 136.78677368164062 324.90936279296875 133.13026428222656 C 314.4082336425781 139.3260955810547 309.13360595703125 142.9585723876953 300.4825439453125 142.19461059570312 C 308.1634216308594 145.8509521484375 296.2057800292969 138.8090057373047 303.83355712890625 142.68740844726562 C 299.40625 143.93896484375 293.2073669433594 131.2003631591797 292.2839660644531 126.66275787353516 C 303.8267517089844 130.81985473632812 290.73504638671875 132.388427734375 291.83056640625 120.01312255859375 C 292.6954040527344 107.9933090209961 306.1490478515625 100.85726928710938 303.60919189453125 106.2352294921875 C 292.043701171875 117.46276092529297 304.1231689453125 105.98133850097656 327.8522644042969 113.54976654052734" stroke-width="0.0" fill="rgb(11, 1, 5)" opacity="0.9960704" stroke="rgb(140, 133, 171)" stroke-opacity="0.89648443" stroke-linecap="round" stroke-linejoin="round"/>
    <path d="M 267.59271240234375 243.07220458984375 C 284.00787353515625 236.6667938232422 289.9031677246094 247.0991668701172 293.2581787109375 250.54063415527344 C 298.0090026855469 253.2044219970703 302.74853515625 261.9435729980469 304.5142517089844 264.5313720703125 C 306.8848571777344 266.5146484375 306.8873596191406 272.07647705078125 310.11224365234375 274.06927490234375 C 308.1231384277344 271.73687744140625 307.2819519042969 273.5704650878906 313.0893249511719 278.38751220703125 C 312.0739440917969 286.15350341796875 311.6171875 285.0550842285156 311.2440490722656 287.37689208984375 C 304.75738525390625 283.49176025390625 303.7423095703125 283.1455078125 304.9129638671875 284.8227844238281 C 308.2198181152344 284.4064636230469 317.1220703125 283.8089294433594 316.0028381347656 330.103759765625 C 291.2025146484375 297.36187744140625 298.46630859375 287.2917175292969 298.79937744140625 293.9754638671875 C 295.84698486328125 285.541259765625 294.7908020019531 285.15118408203125 294.0965270996094 285.17535400390625 C 293.2823181152344 285.06451416015625 292.8160400390625 284.563232421875 293.4696044921875 284.7395935058594 C 293.04510498046875 284.5801086425781 293.29656982421875 285.12249755859375 292.7192077636719 284.31866455078125 C 292.8399353027344 284.58984375 293.6553649902344 285.30938720703125 295.619140625 285.5248718261719 C 295.111572265625 286.1679382324219 295.7470397949219 286.8642883300781 296.7655944824219 287.5501403808594 C 296.59954833984375 288.75885009765625 296.1773681640625 290.0034484863281 298.9768981933594 295.149169921875 C 299.20220947265625 296.8265686035156 299.3949279785156 302.8377990722656 293.42791748046875 297.05352783203125 C 291.5724182128906 296.1570129394531 290.9033508300781 296.926025390625 286.8600769042969 296.4274597167969 C 282.6409912109375 295.5566711425781 283.8949890136719 289.10968017578125 282.017333984375 286.512939453125 C 284.1544189453125 288.8705139160156 280.88677978515625 285.98333740234375 282.5726013183594 283.1464538574219 C 284.96954345703125 284.5079345703125 281.3638916015625 283.8105163574219 281.37445068359375 288.0039367675781 C 285.5682373046875 282.4554748535156 285.73724365234375 281.7545471191406 285.4526062011719 282.0696105957031 C 285.72674560546875 282.96417236328125 285.6234436035156 282.6396789550781 285.2801208496094 282.56085205078125 C 284.9540710449219 281.84161376953125 284.9123840332031 281.8116760253906 284.2413024902344 283.86224365234375 C 282.62628173828125 284.6465148925781 280.468017578125 281.70782470703125 280.2340393066406 275.7846984863281 C 284.3246765136719 278.23455810546875 284.70819091796875 277.7857666015625 284.5331726074219 277.75384521484375 C 283.81695556640625 277.10675048828125 281.97113037109375 272.9828186035156 278.32037353515625 279.10858154296875 C 281.7122802734375 272.66326904296875 268.2742004394531 266.9408264160156 267.59271240234375 243.07220458984375" stroke-width="0.0" fill="rgb(171, 160, 198)" opacity="0.9990092" stroke="rgb(53, 39, 105)" stroke-opacity="0.36624187" stroke-linecap="round" stroke-linejoin="round"/>
    <path d="M 241.61936950683594 203.89797973632812 C 241.57408142089844 203.90481567382812 241.27835083007812 204.14254760742188 241.15753173828125 204.12615966796875 C 241.4237060546875 203.95191955566406 241.91506958007812 203.75086975097656 242.62750244140625 203.56211853027344 C 243.61692810058594 203.49464416503906 244.83633422851562 203.53207397460938 246.11489868164062 203.49559020996094 C 247.24131774902344 203.57920837402344 248.11849975585938 203.9403076171875 248.56480407714844 204.57046508789062 C 248.44776916503906 205.29010009765625 248.04620361328125 205.88909912109375 247.57662963867188 206.3807373046875 C 247.24533081054688 206.6798553466797 247.15087890625 206.67776489257812 247.28427124023438 206.25978088378906 C 247.73788452148438 205.4328155517578 248.7908935546875 204.6739044189453 250.4824981689453 203.99073791503906 C 252.8757781982422 203.5363311767578 255.58447265625 203.24278259277344 258.1654357910156 202.82852172851562 C 260.2889709472656 202.918212890625 261.6265869140625 203.5574188232422 261.7571716308594 204.9488983154297 C 260.6105041503906 207.2239532470703 258.9176025390625 210.270751953125 257.684814453125 214.16607666015625 C 257.28619384765625 218.36904907226562 257.12860107421875 222.2407989501953 256.9013366699219 225.46286010742188 C 256.4515075683594 227.67526245117188 255.18667602539062 228.53741455078125 253.3306884765625 228.546630859375 C 251.11900329589844 228.33157348632812 248.75433349609375 227.88343811035156 246.4646759033203 227.45046997070312 C 244.3609619140625 226.9498291015625 242.61061096191406 226.34506225585938 241.2313232421875 225.62786865234375 C 239.94349670410156 224.82464599609375 238.71070861816406 223.97557067871094 237.67813110351562 223.5047607421875 C 236.99066162109375 223.23020935058594 236.39768981933594 222.7548370361328 235.90890502929688 222.1177520751953 C 235.2676239013672 221.75042724609375 234.98171997070312 221.41314697265625 234.76673889160156 220.98927307128906 C 234.26524353027344 220.70892333984375 233.93338012695312 220.32119750976562 233.45762634277344 219.822509765625 C 232.8883514404297 219.18661499023438 232.25466918945312 218.24461364746094 231.39617919921875 217.07177734375 C 230.38034057617188 215.40771484375 229.0680389404297 213.3061065673828 227.9604949951172 210.62939453125 C 226.9550018310547 208.22825622558594 226.01869201660156 205.26499938964844 225.01986694335938 202.04588317871094 C 223.8806610107422 199.17694091796875 221.97059631347656 196.4854278564453 241.61936950683594 203.89797973632812" stroke-width="0.0" fill="rgb(243, 5, 9)" opacity="0.9983598" stroke="rgb(45, 124, 204)" stroke-opacity="0.06258725" stroke-linecap="round" stroke-linejoin="round"/>
    <path d="M 320.09808349609375 105.54389953613281 C 322.9033508300781 107.83853912353516 325.80816650390625 109.92927551269531 327.8899841308594 112.65089416503906 C 329.0939025878906 115.55008697509766 329.3940124511719 117.99117279052734 329.81805419921875 119.9161605834961 C 330.1789245605469 121.45281219482422 330.6160888671875 122.39616394042969 330.9703369140625 123.0722427368164 C 330.9439392089844 123.68799591064453 330.3869934082031 124.11698150634766 329.4397277832031 124.64566040039062 C 328.57122802734375 125.5512466430664 328.441650390625 126.83251953125 328.8739013671875 128.78224182128906 C 328.9167175292969 131.5100555419922 327.94866943359375 134.08741760253906 325.6229248046875 135.83311462402344 C 322.3770446777344 137.03570556640625 318.53668212890625 138.42361450195312 314.80517578125 139.31546020507812 C 311.78558349609375 139.65318298339844 309.42047119140625 138.32192993164062 308.46533203125 136.3822479248047 C 309.1842346191406 133.94522094726562 310.96990966796875 131.4453582763672 313.17291259765625 129.201904296875 C 315.2272033691406 127.24423217773438 316.63909912109375 125.29241943359375 317.0764465332031 123.33148956298828 C 316.5484619140625 121.26427459716797 315.59295654296875 118.92823028564453 314.8504333496094 116.48639678955078 C 314.9028015136719 114.82306671142578 315.14874267578125 114.52601623535156 315.2237548828125 114.69170379638672 C 315.2177429199219 115.21112060546875 314.6858215332031 116.8730239868164 313.0342712402344 117.54736328125 C 310.1711120605469 116.69883728027344 306.46600341796875 114.27565002441406 302.3388366699219 111.97344970703125 C 298.2682189941406 109.05082702636719 294.1830749511719 105.74505615234375 320.09808349609375 105.54389953613281" stroke-width="0.0" fill="rgb(137, 72, 35)" opacity="1.0" stroke="rgb(235, 130, 168)" stroke-opacity="0.47328734" stroke-linecap="round" stroke-linejoin="round"/>
    <path d="M 163.0 582.0 C 163.0 583.0 163.0 584.0 162.0 584.0 C 161.0 584.0 160.0 584.0 159.0 585.0 C 158.0 585.0 157.0 585.0 156.0 586.0 C 157.0 587.0 158.0 587.0 159.0 587.0 C 160.0 587.0 160.0 588.0 160.0 589.0 C 159.0 590.0 158.0 590.0 157.0 590.0 C 156.0 590.0 155.0 590.0 154.0 591.0 C 153.0 590.0 152.0 590.0 152.0 589.0 C 152.0 588.0 151.0 587.0 150.0 587.0 C 149.0 587.0 148.0 587.0 147.0 587.0 C 146.0 587.0 145.0 587.0 144.0 587.0 C 143.0 588.0 143.0 589.0 142.0 589.0 C 141.0 589.0 140.0 589.0 139.0 589.0 C 138.0 589.0 138.0 588.0 137.0 587.0 C 136.0 587.0 136.0 586.0 135.0 585.0 C 134.0 586.0 134.0 587.0 133.0 588.0 C 133.0 589.0 133.0 590.0 132.0 591.0 C 131.0 590.0 130.0 589.0 129.0 589.0 C 128.0 589.0 128.0 588.0 128.0 587.0 C 128.0 586.0 128.0 585.0 129.0 585.0 C 130.0 585.0 131.0 586.0 132.0 586.0 C 133.0 585.0 133.0 584.0 133.0 583.0 C 134.0 583.0 135.0 583.0 136.0 583.0 C 137.0 583.0 138.0 583.0 139.0 584.0 C 140.0 584.0 141.0 584.0 142.0 584.0 C 143.0 584.0 144.0 584.0 145.0 584.0 C 146.0 584.0 147.0 584.0 148.0 584.0 C 149.0 584.0 150.0 584.0 151.0 584.0 C 151.0 585.0 152.0 586.0 153.0 585.0 C 153.0 584.0 154.0 584.0 155.0 583.0 C 156.0 583.0 157.0 583.0 158.0 583.0 C 159.0 583.0 160.0 582.0 163.0 582.0" stroke-width="0.0" fill="rgb(251, 192, 187)" opacity="1.0" stroke="rgb(110, 242, 157)" stroke-opacity="0.37208068" stroke-linecap="round" stroke-linejoin="round"/>
    <path d="M 251.0 570.0 C 251.0 571.0 251.0 572.0 252.0 573.0 C 253.0 572.0 253.0 571.0 254.0 571.0 C 255.0 571.0 256.0 571.0 257.0 571.0 C 256.0 572.0 256.0 573.0 256.0 574.0 C 257.0 575.0 258.0 575.0 259.0 575.0 C 260.0 575.0 260.0 576.0 261.0 577.0 C 262.0 577.0 263.0 577.0 264.0 576.0 C 264.0 575.0 264.0 574.0 263.0 573.0 C 262.0 573.0 262.0 572.0 263.0 572.0 C 264.0 573.0 265.0 573.0 266.0 573.0 C 267.0 573.0 268.0 573.0 269.0 573.0 C 270.0 573.0 271.0 573.0 272.0 573.0 C 272.0 574.0 272.0 575.0 273.0 576.0 C 274.0 577.0 275.0 576.0 276.0 576.0 C 277.0 576.0 278.0 577.0 279.0 576.0 C 279.0 575.0 279.0 574.0 280.0 573.0 C 281.0 573.0 282.0 573.0 283.0 573.0 C 283.0 574.0 283.0 575.0 283.0 576.0 C 282.0 576.0 281.0 576.0 280.0 576.0 C 279.0 577.0 279.0 578.0 279.0 579.0 C 278.0 579.0 277.0 579.0 276.0 579.0 C 275.0 579.0 274.0 579.0 274.0 578.0 C 273.0 577.0 272.0 577.0 271.0 577.0 C 270.0 577.0 269.0 578.0 269.0 579.0 C 268.0 578.0 268.0 577.0 268.0 576.0 C 268.0 575.0 267.0 574.0 266.0 574.0 C 265.0 574.0 264.0 575.0 264.0 576.0 C 264.0 577.0 264.0 578.0 263.0 578.0 C 262.0 578.0 261.0 577.0 260.0 577.0 C 259.0 577.0 258.0 577.0 257.0 577.0 C 256.0 577.0 256.0 576.0 256.0 575.0 C 256.0 574.0 255.0 573.0 254.0 573.0 C 253.0 573.0 252.0 574.0 252.0 575.0 C 251.0 575.0 251.0 574.0 251.0 573.0 C 250.0 572.0 249.0 572.0 248.0 572.0 C 247.0 573.0 247.0 574.0 247.0 575.0 C 246.0 575.0 245.0 574.0 244.0 575.0 C 243.0 574.0 242.0 574.0 242.0 573.0 C 243.0 573.0 244.0 572.0 244.0 571.0 C 245.0 571.0 246.0 571.0 247.0 572.0 C 248.0 571.0 248.0 570.0 251.0 570.0" stroke-width="0.0" fill="rgb(243, 196, 183)" opacity="1.0" stroke="rgb(249, 19, 34)" stroke-opacity="0.6001797" stroke-linecap="round" stroke-linejoin="round"/>
  </g>
</svg>
