<?xml version="1.0" ?>
<svg xmlns="http://www.w3.org/2000/svg" version="1.1" width="474" height="596">
  <defs/>
  <g>
    <path d="M 267.19793701171875 -0.8900709748268127 C 266.9434509277344 -1.9807618856430054 267.9080810546875 -1.6689808368682861 269.38507080078125 -2.0271472930908203 C 269.5315856933594 -3.627847671508789 268.8218688964844 -5.11745023727417 269.9110412597656 -4.588892936706543 C 270.6556091308594 -5.150441646575928 270.5014343261719 -5.240174770355225 271.5550231933594 -5.2468671798706055 C 271.95977783203125 -4.970135688781738 272.94122314453125 -4.506771564483643 275.2565002441406 -3.363250494003296 C 276.41436767578125 -3.477062463760376 278.7503967285156 -2.050808906555176 288.19415283203125 -2.2990200519561768 C 281.6114807128906 2.046849250793457 290.16015625 1.1983811855316162 299.20050048828125 4.390256404876709 C 304.5954895019531 5.602473735809326 311.9091796875 8.615342140197754 318.6470642089844 10.904784202575684 C 326.9842834472656 14.77016830444336 336.3302001953125 18.837820053100586 344.03369140625 24.16156768798828 C 352.9122314453125 28.729225158691406 360.4571533203125 34.58601379394531 368.9230041503906 41.150543212890625 C 376.7631530761719 47.86357116699219 384.38519287109375 55.53840637207031 391.896484375 63.17552947998047 C 399.3270263671875 71.4394302368164 406.16253662109375 79.24384307861328 412.478271484375 88.25267028808594 C 418.54229736328125 97.07502746582031 424.23931884765625 105.40306091308594 428.6575622558594 113.89033508300781 C 433.2434997558594 120.86797332763672 435.1647033691406 127.84892272949219 432.6829833984375 134.80284118652344 C 429.128662109375 143.52957153320312 423.2543640136719 151.90744018554688 416.13360595703125 160.5490264892578 C 410.021240234375 168.68910217285156 401.1487121582031 177.00692749023438 393.7261657714844 184.0706787109375 C 385.1872253417969 191.3095245361328 376.6138000488281 198.037353515625 367.05975341796875 204.5821533203125 C 358.29547119140625 211.11053466796875 346.1865234375 218.93272399902344 336.2676086425781 221.31295776367188 C 322.2414855957031 226.42991638183594 316.8824768066406 223.54214477539062 301.81866455078125 233.64730834960938 C 307.020263671875 219.36070251464844 320.14312744140625 221.09681701660156 328.33416748046875 214.84535217285156 C 337.8309631347656 208.22178649902344 346.8731994628906 201.42898559570312 353.5069580078125 191.99143981933594 C 360.469970703125 183.8999481201172 364.7883605957031 174.1471405029297 367.1312561035156 163.15907287597656 C 368.0212097167969 154.8194580078125 370.2731628417969 145.59832763671875 367.093994140625 140.137939453125 C 370.3411560058594 127.79469299316406 366.3962707519531 120.51856231689453 362.06317138671875 111.98954772949219 C 357.32305908203125 105.1588134765625 350.8970031738281 99.4810791015625 345.42578125 94.41302490234375 C 335.9256591796875 94.40370178222656 334.5325927734375 95.8948745727539 335.8721618652344 105.23997497558594 C 315.97491455078125 94.75983428955078 307.05499267578125 104.64736938476562 293.3981628417969 108.02824401855469 C 281.6190490722656 104.76303100585938 272.3081970214844 109.23161315917969 262.5159606933594 110.59062194824219 C 258.3081970214844 112.78436279296875 257.270263671875 107.56935119628906 253.43276977539062 102.97809600830078 C 249.8670654296875 99.4322509765625 249.0083770751953 98.51849365234375 248.31106567382812 104.80767059326172 C 252.480224609375 114.61724090576172 250.10658264160156 122.70263671875 235.86505126953125 118.04476928710938 C 218.46481323242188 120.08235168457031 222.3942108154297 131.66709899902344 204.86534118652344 140.79837036132812 C 218.64576721191406 150.60531616210938 216.64007568359375 155.2701873779297 212.8510284423828 167.826171875 C 200.05938720703125 164.3143310546875 188.32960510253906 162.1898651123047 187.18267822265625 147.106201171875 C 187.7945556640625 139.37550354003906 184.19061279296875 139.59710693359375 177.07496643066406 136.80532836914062 C 167.8832550048828 139.19944763183594 157.392822265625 145.05169677734375 147.9150390625 151.62814331054688 C 143.48410034179688 160.3754425048828 144.2872772216797 168.72439575195312 146.52005004882812 178.7698516845703 C 144.7557830810547 187.89816284179688 148.94508361816406 197.28866577148438 155.56175231933594 204.08468627929688 C 158.79090881347656 215.0478973388672 166.82437133789062 221.5763397216797 177.27577209472656 227.6241912841797 C 186.46205139160156 229.63951110839844 198.4414825439453 231.85916137695312 202.39112854003906 236.94276428222656 C 208.00572204589844 239.70516967773438 213.11643981933594 239.54183959960938 221.65530395507812 244.79037475585938 C 210.5706024169922 250.1569061279297 203.26319885253906 246.6969757080078 192.1403350830078 244.9686279296875 C 189.94351196289062 238.745361328125 181.6598358154297 244.42576599121094 172.50328063964844 240.59254455566406 C 165.0688018798828 240.73944091796875 149.9939422607422 241.3093719482422 139.97723388671875 239.70069885253906 C 131.48947143554688 239.17774963378906 122.32593536376953 236.87684631347656 111.49542999267578 234.0430145263672 C 102.95731353759766 231.80577087402344 95.13751220703125 228.91177368164062 86.33861541748047 225.54617309570312 C 77.93155670166016 222.09059143066406 68.8240737915039 217.78712463378906 62.42963790893555 213.4818878173828 C 56.444313049316406 210.036865234375 54.81720733642578 205.08673095703125 53.62086486816406 201.57174682617188 C 52.30364227294922 193.40879821777344 54.710330963134766 180.58462524414062 56.13661575317383 171.41656494140625 C 57.98792266845703 162.5843963623047 59.46649932861328 154.11111450195312 62.68540954589844 144.6331329345703 C 64.4652328491211 136.9777374267578 67.8544692993164 128.9382781982422 70.91429138183594 122.1334457397461 C 73.92878723144531 113.92064666748047 78.7767562866211 105.88798522949219 83.27122497558594 97.30589294433594 C 88.54618072509766 89.2691650390625 93.85444641113281 80.74833679199219 100.9322509765625 72.68246459960938 C 107.0120849609375 64.93379974365234 114.55030822753906 56.887332916259766 122.63948059082031 50.332515716552734 C 130.44830322265625 43.714569091796875 138.92105102539062 36.90476608276367 147.33335876464844 30.891935348510742 C 154.84271240234375 25.68010902404785 165.4296417236328 23.898204803466797 176.8999786376953 23.74416160583496 C 180.62765502929688 23.886962890625 192.52989196777344 24.76492691040039 199.5446014404297 27.09332847595215 C 209.5376739501953 28.943838119506836 215.2664031982422 34.79277420043945 212.7491912841797 26.06482696533203 C 215.7781219482422 31.35820770263672 227.5255584716797 27.912254333496094 226.42721557617188 26.75100326538086 C 232.5598602294922 20.151084899902344 238.3952178955078 13.623024940490723 248.1428985595703 7.88286018371582 C 257.33551025390625 2.414247512817383 269.23681640625 -0.2641366720199585 267.19793701171875 -0.8900709748268127" stroke-width="0.0" fill="rgb(64, 38, 31)" opacity="0.99998355" stroke="rgb(200, 131, 241)" stroke-opacity="0.5338206" stroke-linecap="round" stroke-linejoin="round"/>
    <path d="M 368.22601318359375 127.18339538574219 C 365.6812744140625 156.8837890625 357.77288818359375 183.89390563964844 342.50323486328125 204.41302490234375 C 314.5480651855469 211.61740112304688 306.3511657714844 234.14926147460938 294.2651062011719 236.5230255126953 C 291.97528076171875 247.01829528808594 284.8215637207031 253.6627197265625 284.36688232421875 257.1087341308594 C 273.8670959472656 258.58453369140625 262.7007141113281 256.77215576171875 250.43934631347656 253.346923828125 C 241.6011505126953 252.69775390625 233.86428833007812 250.55035400390625 229.29827880859375 249.39743041992188 C 228.73516845703125 249.14280700683594 232.02536010742188 249.8954620361328 238.3517303466797 251.36196899414062 C 248.54151916503906 250.53086853027344 259.6369323730469 258.1479797363281 273.8903503417969 256.6302185058594 C 284.08441162109375 258.3593444824219 288.4858703613281 272.2666931152344 293.2872314453125 282.5506591796875 C 303.39166259765625 292.6199035644531 307.8435974121094 304.4347839355469 309.85687255859375 312.82171630859375 C 309.7035827636719 311.33221435546875 308.1507873535156 313.1434326171875 308.7890319824219 306.6806945800781 C 303.3978271484375 295.6249694824219 294.4513244628906 283.7294616699219 284.3265686035156 262.20135498046875 C 275.101318359375 259.1947021484375 289.51715087890625 252.7833709716797 293.01678466796875 239.42066955566406 C 310.8074645996094 241.31195068359375 329.5765380859375 244.7455596923828 351.9432678222656 255.56773376464844 C 366.57666015625 266.4838562011719 379.42327880859375 273.3553771972656 394.0647888183594 280.6592102050781 C 405.5688781738281 287.6474304199219 410.810791015625 293.24029541015625 412.9610900878906 295.51495361328125 C 426.1534423828125 287.05828857421875 433.7769775390625 292.40618896484375 441.9182434082031 278.546875 C 447.4550476074219 299.02001953125 454.5851135253906 316.1089172363281 467.8854675292969 334.2199401855469 C 448.7841491699219 364.7208557128906 441.44366455078125 326.8525390625 439.46722412109375 361.3272399902344 C 419.51617431640625 338.9041442871094 392.9580993652344 328.8240966796875 371.292724609375 327.4990539550781 C 351.20428466796875 321.6871337890625 342.44366455078125 324.4447326660156 327.1791076660156 325.40264892578125 C 313.6115417480469 353.87799072265625 333.4322814941406 386.2830810546875 317.1519470214844 381.5715026855469 C 313.2374572753906 416.08721923828125 304.7390441894531 442.5404052734375 296.0594787597656 464.34527587890625 C 284.6827087402344 482.0042419433594 288.3909606933594 509.48712158203125 288.2373962402344 528.07470703125 C 273.2496337890625 534.97021484375 259.0395202636719 535.3711547851562 240.00762939453125 530.0896606445312 C 237.07391357421875 541.2608032226562 238.97097778320312 552.2686767578125 238.43907165527344 563.1370849609375 C 251.95989990234375 569.9063110351562 269.8065490722656 571.6433715820312 292.07635498046875 571.4163818359375 C 312.87744140625 571.6796875 329.2966003417969 570.8192138671875 336.0297546386719 571.8489379882812 C 338.949951171875 580.041259765625 323.9400939941406 583.5930786132812 303.2759094238281 584.8985595703125 C 278.16241455078125 584.6823120117188 242.86822509765625 582.380859375 237.5801544189453 575.9026489257812 C 228.64599609375 564.7521362304688 236.21693420410156 538.347900390625 236.3263702392578 507.50555419921875 C 247.24761962890625 496.2587890625 242.2955322265625 463.7135925292969 233.99142456054688 455.819580078125 C 224.35401916503906 451.0980224609375 230.36605834960938 461.4592590332031 225.84339904785156 473.6717834472656 C 211.18309020996094 476.4732971191406 216.61720275878906 484.56494140625 213.699462890625 490.459716796875 C 211.9840087890625 500.1142578125 210.25149536132812 510.7738952636719 212.08229064941406 519.7593383789062 C 214.3347930908203 533.7777099609375 215.3031005859375 549.8427124023438 216.8043212890625 564.7289428710938 C 206.28518676757812 578.7642822265625 200.3218536376953 585.1912841796875 174.1318817138672 592.04296875 C 158.6599578857422 598.33740234375 128.7377471923828 597.2932739257812 120.48486328125 590.458740234375 C 116.1016845703125 589.1790771484375 132.0128173828125 583.0460815429688 150.23667907714844 582.1229248046875 C 169.62554931640625 580.253662109375 189.84036254882812 576.9607543945312 209.1012725830078 573.1294555664062 C 218.51051330566406 569.8740234375 210.79608154296875 552.177734375 210.85400390625 529.2471313476562 C 194.7156524658203 538.1629638671875 180.93421936035156 539.7178955078125 162.4987030029297 528.9497680664062 C 154.68704223632812 518.2943115234375 144.45223999023438 522.9796752929688 156.6800537109375 507.91400146484375 C 177.81996154785156 500.29052734375 168.9141082763672 478.5635070800781 158.20419311523438 469.3583068847656 C 155.24391174316406 439.286376953125 152.0232391357422 413.5418395996094 152.23287963867188 397.65069580078125 C 124.9314956665039 399.1864318847656 114.75182342529297 387.30389404296875 114.01451873779297 361.7051696777344 C 110.65057373046875 344.2879333496094 123.26764678955078 338.7450866699219 93.79234313964844 353.763671875 C 70.38235473632812 360.99945068359375 72.22764587402344 389.41729736328125 40.173221588134766 386.1977233886719 C 32.913291931152344 347.1385498046875 33.15388870239258 334.02227783203125 55.07950210571289 324.6125183105469 C 66.58646392822266 308.4688720703125 77.4580307006836 298.99639892578125 91.54341888427734 288.4724426269531 C 84.24212646484375 283.1525573730469 102.72844696044922 270.755615234375 115.1708755493164 262.5242919921875 C 131.02798461914062 253.22811889648438 146.3764190673828 245.76898193359375 165.96363830566406 240.3893585205078 C 189.69903564453125 235.75111389160156 192.66183471679688 241.12472534179688 202.5319061279297 243.14151000976562 C 189.19125366210938 262.548828125 184.24343872070312 285.69866943359375 173.0833282470703 305.3664855957031 C 166.86883544921875 321.53790283203125 162.48971557617188 336.52264404296875 155.4056396484375 344.9084777832031 C 153.7685546875 352.13433837890625 154.4921112060547 357.857177734375 153.48599243164062 353.42108154296875 C 152.788818359375 345.8764953613281 162.85971069335938 341.760009765625 163.7283477783203 327.0774230957031 C 171.10601806640625 310.62335205078125 178.68568420410156 292.58502197265625 186.5834503173828 274.1789855957031 C 193.34445190429688 256.428955078125 194.01882934570312 235.94219970703125 220.95013427734375 246.86001586914062 C 212.62969970703125 228.2557373046875 205.1539306640625 212.38623046875 201.6251678466797 190.0377655029297 C 206.60658264160156 169.05801391601562 217.97117614746094 147.6217498779297 368.22601318359375 127.18339538574219" stroke-width="0.0" fill="rgb(232, 106, 162)" opacity="0.99862033" stroke="rgb(44, 183, 177)" stroke-opacity="0.06237474" stroke-linecap="round" stroke-linejoin="round"/>
    <path d="M 236.72523498535156 90.0758056640625 C 245.4049530029297 95.74679565429688 252.5115509033203 102.37010955810547 257.8986511230469 108.21627044677734 C 262.9927062988281 110.48241424560547 268.55560302734375 109.30628967285156 275.0461730957031 107.01513671875 C 281.9645080566406 104.54631042480469 289.1946716308594 102.89228057861328 296.66156005859375 102.08333587646484 C 303.6387939453125 102.90980529785156 310.0526428222656 104.48908233642578 316.096923828125 104.57501983642578 C 321.3167419433594 105.3847427368164 325.0356140136719 107.962158203125 327.5692138671875 111.66505432128906 C 329.5163879394531 115.68803405761719 330.6750183105469 120.56385040283203 330.602783203125 124.8315200805664 C 329.3243408203125 128.25001525878906 328.318359375 130.7430877685547 328.7723388671875 131.6523895263672 C 331.28924560546875 131.6360321044922 334.9157409667969 130.86878967285156 339.3395080566406 129.39682006835938 C 342.9189453125 127.3438491821289 345.7279968261719 124.48139953613281 346.5302734375 120.51161193847656 C 345.6141662597656 116.00926208496094 342.8153991699219 111.52210235595703 338.6812438964844 107.1261978149414 C 334.2314453125 103.24567413330078 329.79058837890625 100.60407257080078 326.4335632324219 98.65583038330078 C 325.9174499511719 96.86438751220703 328.0306396484375 95.77713775634766 331.9755554199219 94.96234893798828 C 337.1044006347656 94.24419403076172 342.78594970703125 94.58090209960938 348.3360595703125 96.75858306884766 C 353.436279296875 100.96544647216797 358.2753601074219 106.37301635742188 362.47845458984375 112.89031219482422 C 366.004638671875 119.76749420166016 368.6397399902344 126.88301086425781 370.1598815917969 134.08865356445312 C 370.89508056640625 141.18409729003906 370.9808044433594 147.9199676513672 370.5115661621094 154.3844757080078 C 369.383544921875 160.55015563964844 367.69464111328125 166.42343139648438 365.4617004394531 172.08343505859375 C 363.0094909667969 177.53465270996094 360.2518005371094 182.65066528320312 357.1621398925781 187.5343017578125 C 353.658203125 191.9110870361328 349.765380859375 195.79896545410156 346.24847412109375 199.86441040039062 C 342.677734375 203.9207305908203 338.7256164550781 207.51364135742188 334.6305236816406 210.8202667236328 C 330.15887451171875 213.97348022460938 325.9132385253906 217.10980224609375 321.50933837890625 220.11941528320312 C 316.84222412109375 222.8065643310547 312.09002685546875 225.24832153320312 307.7752990722656 227.490234375 C 303.3665771484375 229.56915283203125 299.0411682128906 231.29678344726562 295.1758728027344 232.87294006347656 C 291.7642517089844 234.22877502441406 288.6996765136719 235.3244171142578 285.9765930175781 236.18408203125 C 283.675537109375 236.83316040039062 281.86865234375 237.32273864746094 280.4436950683594 237.70494079589844 C 279.29425048828125 237.98316955566406 278.31353759765625 238.18663024902344 277.3575439453125 238.35162353515625 C 276.30828857421875 238.54110717773438 275.0693664550781 238.78488159179688 273.54962158203125 239.06338500976562 C 271.66204833984375 239.4200439453125 269.39202880859375 239.85665893554688 266.7756042480469 240.3695068359375 C 263.818359375 240.91574096679688 260.55047607421875 241.4742431640625 257.0791015625 242.05810546875 C 253.4691619873047 242.60037231445312 249.7375946044922 243.0551300048828 245.9070587158203 243.40274047851562 C 242.0870361328125 243.7444305419922 238.28781127929688 244.0323028564453 234.4397430419922 244.20623779296875 C 230.4962615966797 244.17141723632812 226.4908447265625 243.88075256347656 222.40869140625 243.5009002685547 C 218.13624572753906 243.06787109375 213.68287658691406 242.389404296875 208.9620361328125 241.450927734375 C 204.04039001464844 240.45140075683594 198.9792938232422 238.89344787597656 193.9005126953125 236.85775756835938 C 188.725341796875 234.5255584716797 183.5723419189453 231.98007202148438 178.2738494873047 228.89256286621094 C 173.00001525878906 225.5941925048828 167.91127014160156 221.71481323242188 163.1333770751953 217.39663696289062 C 158.4942169189453 212.49522399902344 154.16195678710938 207.08258056640625 150.30909729003906 201.011474609375 C 147.06602478027344 194.42698669433594 144.9923095703125 187.24607849121094 143.55601501464844 179.83543395996094 C 142.57325744628906 172.5999755859375 142.91893005371094 165.458740234375 144.72964477539062 158.97340393066406 C 148.29623413085938 153.5103759765625 152.63809204101562 148.8011016845703 156.2942657470703 143.9629364013672 C 157.52828979492188 138.3742218017578 158.06431579589844 133.6335906982422 159.41839599609375 131.22784423828125 C 162.05580139160156 132.04220581054688 164.71823120117188 135.23159790039062 167.16552734375 138.01882934570312 C 171.11985778808594 137.68994140625 175.79421997070312 136.25086975097656 180.34548950195312 133.7645721435547 C 183.86746215820312 131.39161682128906 186.817626953125 130.8177947998047 187.7887420654297 133.08457946777344 C 186.60556030273438 138.06314086914062 185.32534790039062 144.22682189941406 183.81199645996094 151.22824096679688 C 183.23773193359375 158.04391479492188 184.86907958984375 163.36892700195312 188.86978149414062 166.50221252441406 C 195.39540100097656 166.86842346191406 202.1466827392578 165.94070434570312 208.17149353027344 163.71434020996094 C 211.5870361328125 158.89500427246094 212.17723083496094 151.98855590820312 211.57611083984375 144.20877075195312 C 212.1502227783203 137.07325744628906 214.85519409179688 131.7877960205078 218.84918212890625 129.12269592285156 C 222.89483642578125 129.6016387939453 225.6187286376953 132.69908142089844 227.76820373535156 137.90170288085938 C 228.8878936767578 143.54576110839844 228.4093017578125 149.26112365722656 226.63307189941406 153.86924743652344 C 224.02389526367188 157.22862243652344 222.43687438964844 159.14076232910156 223.0637664794922 160.1671600341797 C 225.9342803955078 160.4087677001953 231.0092010498047 159.99559020996094 236.6709747314453 158.7033233642578 C 241.85028076171875 156.28955078125 244.43325805664062 152.73033142089844 245.42153930664062 148.10165405273438 C 244.2718048095703 142.4136505126953 241.5699462890625 136.81251525878906 236.92367553710938 132.26246643066406 C 230.8734893798828 129.2165069580078 224.77125549316406 126.960693359375 219.6778564453125 124.9812240600586 C 216.06036376953125 123.89002990722656 214.5734100341797 122.64691162109375 215.41847229003906 121.28955841064453 C 218.20718383789062 120.06428527832031 222.7333221435547 118.67161560058594 227.75193786621094 117.6062240600586 C 233.09291076660156 116.59552764892578 238.12144470214844 115.73051452636719 242.662109375 115.04781341552734 C 246.63583374023438 114.94790649414062 250.18116760253906 115.07958984375 236.72523498535156 90.0758056640625" stroke-width="0.0" fill="rgb(251, 188, 103)" opacity="1.0" stroke="rgb(249, 18, 118)" stroke-opacity="0.9835308" stroke-linecap="round" stroke-linejoin="round"/>
    <path d="M 299.9157409667969 377.1900939941406 C 301.8713073730469 376.7735595703125 303.9501647949219 376.5024719238281 306.1276550292969 376.4244689941406 C 308.3246765136719 376.37164306640625 310.52178955078125 376.3537292480469 312.4297790527344 376.9098815917969 C 314.1346435546875 378.41973876953125 315.3284606933594 380.8810729980469 315.8659362792969 384.6888427734375 C 316.02447509765625 389.7393798828125 315.2640380859375 395.7839050292969 314.0232849121094 403.39544677734375 C 312.7809753417969 412.2239074707031 310.54901123046875 421.3935241699219 308.4610900878906 430.6268615722656 C 305.56573486328125 440.16015625 303.4708557128906 448.803955078125 301.67364501953125 456.5749206542969 C 301.0482177734375 463.36602783203125 300.3861389160156 468.600830078125 297.84710693359375 471.7579040527344 C 293.992919921875 473.5513000488281 288.7972717285156 474.0011291503906 282.498779296875 473.4459228515625 C 275.5389709472656 472.6344299316406 268.08343505859375 471.95648193359375 260.77392578125 472.125244140625 C 254.46412658691406 473.78448486328125 249.32260131835938 477.5111389160156 246.1071014404297 483.3390197753906 C 244.3372039794922 490.6006164550781 244.2576141357422 498.0416564941406 246.87246704101562 504.25347900390625 C 252.3966064453125 508.19635009765625 260.1180725097656 509.5057373046875 269.7645263671875 508.4320068359375 C 280.0618896484375 506.0316467285156 289.6439514160156 504.67010498046875 298.2694396972656 506.3016662597656 C 304.50250244140625 509.33465576171875 306.41009521484375 513.565185546875 303.4056091308594 517.6209106445312 C 297.27783203125 518.5091552734375 292.0411376953125 520.0541381835938 290.8428649902344 524.9696655273438 C 294.2867736816406 532.4302368164062 302.0466613769531 539.416259765625 313.4974365234375 544.3438720703125 C 325.1490783691406 549.5526733398438 335.4217224121094 554.6076049804688 342.0242919921875 559.8579711914062 C 344.1624450683594 566.0350952148438 343.62152099609375 571.9627685546875 340.63671875 576.20849609375 C 336.2413330078125 578.5955200195312 331.781494140625 579.5856323242188 327.5748291015625 579.8677368164062 C 324.5714111328125 580.5971069335938 324.07403564453125 581.4003295898438 325.8615417480469 581.7440795898438 C 328.8510437011719 580.924560546875 332.80035400390625 578.4459838867188 337.37335205078125 574.6288452148438 C 340.132568359375 569.0215454101562 341.0850830078125 562.5623168945312 340.21826171875 556.1002197265625 C 335.9674987792969 551.2214965820312 328.2337951660156 547.3674926757812 318.6669006347656 543.6480102539062 C 308.4867248535156 538.6478271484375 298.29693603515625 532.5687866210938 287.618896484375 527.6838989257812 C 277.1650085449219 524.2625122070312 267.1272277832031 522.8677978515625 258.0611877441406 523.2117919921875 C 250.20819091796875 524.5972900390625 244.0641326904297 527.0518188476562 240.260986328125 530.9954223632812 C 238.82334899902344 536.6943359375 238.5369110107422 543.2329711914062 238.49285888671875 549.4337158203125 C 237.8434295654297 554.305908203125 236.50949096679688 557.0407104492188 234.9678497314453 557.202880859375 C 233.97427368164062 554.65478515625 233.90530395507812 549.7562866210938 234.5048828125 543.0126953125 C 235.19297790527344 534.92578125 236.0452880859375 526.0202026367188 237.3778076171875 516.823974609375 C 239.3022003173828 507.6665344238281 241.364013671875 498.7626953125 242.94261169433594 490.2944641113281 C 243.7476806640625 482.7663269042969 243.3230438232422 476.0928039550781 240.6880340576172 470.4483947753906 C 236.19863891601562 466.07183837890625 233.13580322265625 461.4443359375 231.73904418945312 456.75885009765625 C 230.23655700683594 454.20904541015625 228.73440551757812 454.8033142089844 227.8828887939453 458.2864685058594 C 227.6233367919922 463.4916687011719 226.44747924804688 469.0278015136719 223.18301391601562 473.4854431152344 C 217.17384338378906 475.784423828125 209.20103454589844 476.12054443359375 200.18345642089844 475.4837646484375 C 191.01687622070312 474.78155517578125 182.45066833496094 474.74346923828125 175.33871459960938 476.46588134765625 C 170.6974334716797 480.79986572265625 168.69473266601562 487.0705261230469 168.62664794921875 494.1283264160156 C 170.05990600585938 500.8905029296875 173.39776611328125 506.56243896484375 179.00230407714844 510.149658203125 C 186.28567504882812 511.3602294921875 194.4261474609375 510.78570556640625 202.53982543945312 509.2964782714844 C 209.60765075683594 507.9512939453125 215.35086059570312 508.4716491699219 219.3166046142578 511.19439697265625 C 221.66920471191406 515.128662109375 221.35198974609375 519.2216796875 218.00242614746094 522.3428344726562 C 212.0220184326172 524.7344360351562 204.36178588867188 526.19970703125 195.7591094970703 527.0325927734375 C 187.0033721923828 527.4592895507812 178.5003204345703 527.5823364257812 170.9337921142578 527.48779296875 C 165.04856872558594 527.0092163085938 160.88055419921875 525.5386962890625 158.8794708251953 522.592041015625 C 159.41146850585938 518.16357421875 161.50885009765625 512.4052734375 164.1954803466797 505.5178527832031 C 166.14846801757812 497.7019348144531 166.82186889648438 489.2057800292969 166.12710571289062 480.62200927734375 C 163.3052520751953 472.3852844238281 159.54739379882812 464.0225524902344 157.1450653076172 454.9006042480469 C 155.9531707763672 444.99615478515625 155.15936279296875 434.75537109375 154.21963500976562 424.49102783203125 C 153.12623596191406 414.4523010253906 152.60887145996094 404.94036865234375 153.34786987304688 396.4657287597656 C 155.4270782470703 389.4969177246094 158.8629913330078 383.904541015625 164.2055206298828 380.1981506347656 C 171.746826171875 378.7762451171875 180.8146209716797 379.0928955078125 190.5832061767578 380.5513000488281 C 201.03961181640625 382.6050720214844 211.53526306152344 384.5892028808594 221.5571746826172 385.9695129394531 C 230.79208374023438 386.6812438964844 238.9387664794922 386.81756591796875 245.71583557128906 386.8249816894531 C 250.87722778320312 386.8681640625 254.42001342773438 386.6600646972656 256.464111328125 385.9685974121094 C 257.01336669921875 384.88616943359375 256.3789367675781 383.8016662597656 255.0558624267578 382.9195251464844 C 253.49282836914062 382.2586669921875 252.1597442626953 381.9026184082031 251.438232421875 381.883056640625 C 251.74172973632812 382.1383361816406 253.1998291015625 382.40618896484375 255.85546875 382.58197021484375 C 259.63128662109375 382.681396484375 264.2568664550781 382.68975830078125 269.4266357421875 382.7623291015625 C 274.88885498046875 383.06658935546875 280.4593811035156 383.5552978515625 299.9157409667969 377.1900939941406" stroke-width="0.0" fill="rgb(234, 82, 10)" opacity="0.9989745" stroke="rgb(229, 34, 200)" stroke-opacity="0.44484466" stroke-linecap="round" stroke-linejoin="round"/>
    <path d="M 187.0 238.0 C 188.0 238.0 189.0 238.0 190.0 239.0 C 191.0 240.0 192.0 240.0 196.0 242.0 C 200.0 244.0 202.0 248.0 200.0 247.0 C 195.0 249.0 193.0 254.0 195.0 255.0 C 198.0 254.0 196.0 259.0 195.0 264.0 C 194.0 269.0 193.0 274.0 193.0 279.0 C 192.0 284.0 191.0 289.0 190.0 294.0 C 186.0 299.0 181.0 300.0 176.0 301.0 C 173.0 302.0 175.0 306.0 173.0 311.0 C 171.0 316.0 168.0 315.0 165.0 320.0 C 163.0 325.0 163.0 330.0 164.0 332.0 C 160.0 335.0 158.0 340.0 161.0 343.0 C 159.0 348.0 158.0 353.0 156.0 358.0 C 153.0 361.0 153.0 366.0 154.0 370.0 C 155.0 374.0 156.0 379.0 158.0 383.0 C 157.0 388.0 156.0 393.0 156.0 398.0 C 155.0 403.0 156.0 408.0 156.0 413.0 C 156.0 418.0 156.0 423.0 156.0 428.0 C 154.0 427.0 154.0 422.0 153.0 417.0 C 153.0 412.0 153.0 407.0 153.0 402.0 C 153.0 397.0 149.0 398.0 144.0 398.0 C 139.0 396.0 134.0 395.0 129.0 393.0 C 124.0 390.0 121.0 386.0 118.0 381.0 C 116.0 376.0 115.0 371.0 115.0 366.0 C 114.0 361.0 114.0 356.0 114.0 351.0 C 114.0 346.0 110.0 345.0 105.0 348.0 C 100.0 350.0 95.0 352.0 90.0 354.0 C 89.0 358.0 88.0 363.0 83.0 365.0 C 78.0 364.0 75.0 368.0 71.0 373.0 C 67.0 378.0 62.0 382.0 59.0 386.0 C 59.0 391.0 58.0 396.0 57.0 401.0 C 53.0 405.0 48.0 403.0 45.0 398.0 C 44.0 393.0 43.0 388.0 39.0 391.0 C 36.0 396.0 32.0 400.0 27.0 401.0 C 22.0 398.0 22.0 393.0 19.0 392.0 C 14.0 392.0 9.0 389.0 9.0 384.0 C 11.0 379.0 11.0 375.0 6.0 378.0 C 1.0 377.0 0.0 372.0 1.0 368.0 C 4.0 363.0 7.0 358.0 11.0 353.0 C 15.0 348.0 19.0 343.0 21.0 338.0 C 18.0 333.0 17.0 328.0 17.0 323.0 C 22.0 319.0 27.0 321.0 32.0 325.0 C 37.0 329.0 42.0 330.0 47.0 329.0 C 46.0 324.0 50.0 320.0 55.0 320.0 C 59.0 319.0 62.0 314.0 66.0 310.0 C 70.0 306.0 75.0 301.0 79.0 297.0 C 83.0 294.0 87.0 292.0 92.0 288.0 C 90.0 284.0 93.0 287.0 98.0 285.0 C 102.0 289.0 107.0 293.0 111.0 298.0 C 115.0 303.0 118.0 306.0 119.0 311.0 C 122.0 316.0 125.0 319.0 126.0 324.0 C 124.0 328.0 127.0 331.0 132.0 330.0 C 135.0 333.0 137.0 329.0 141.0 327.0 C 146.0 327.0 150.0 324.0 152.0 319.0 C 154.0 314.0 155.0 309.0 156.0 304.0 C 158.0 299.0 159.0 294.0 156.0 289.0 C 155.0 284.0 156.0 279.0 158.0 274.0 C 160.0 269.0 163.0 264.0 167.0 259.0 C 170.0 255.0 173.0 250.0 178.0 245.0 C 182.0 241.0 186.0 238.0 187.0 238.0" stroke-width="0.0" fill="rgb(157, 136, 187)" opacity="1.0" stroke="rgb(107, 159, 52)" stroke-opacity="0.43928063" stroke-linecap="round" stroke-linejoin="round"/>
    <path d="M 97.0 285.0 C 98.0 285.0 99.0 286.0 100.0 287.0 C 101.0 287.0 101.0 288.0 102.0 289.0 C 103.0 289.0 104.0 290.0 105.0 291.0 C 106.0 292.0 107.0 293.0 108.0 294.0 C 109.0 295.0 109.0 296.0 110.0 297.0 C 111.0 298.0 112.0 299.0 113.0 300.0 C 114.0 301.0 114.0 302.0 115.0 303.0 C 116.0 304.0 117.0 304.0 118.0 304.0 C 118.0 305.0 118.0 306.0 117.0 307.0 C 118.0 308.0 119.0 309.0 119.0 310.0 C 119.0 311.0 120.0 312.0 120.0 313.0 C 121.0 314.0 121.0 315.0 122.0 316.0 C 123.0 316.0 124.0 316.0 124.0 317.0 C 124.0 318.0 125.0 319.0 125.0 320.0 C 125.0 321.0 126.0 322.0 126.0 323.0 C 126.0 324.0 125.0 324.0 124.0 325.0 C 124.0 326.0 124.0 327.0 124.0 328.0 C 124.0 329.0 124.0 330.0 125.0 331.0 C 125.0 332.0 125.0 333.0 124.0 334.0 C 123.0 335.0 122.0 335.0 121.0 336.0 C 120.0 336.0 119.0 336.0 118.0 337.0 C 118.0 339.0 116.0 341.0 113.0 343.0 C 111.0 344.0 108.0 346.0 105.0 347.0 C 102.0 349.0 99.0 350.0 96.0 351.0 C 93.0 353.0 90.0 354.0 88.0 356.0 C 88.0 359.0 87.0 362.0 85.0 364.0 C 82.0 364.0 79.0 363.0 76.0 365.0 C 75.0 368.0 73.0 370.0 70.0 373.0 C 68.0 376.0 65.0 379.0 62.0 381.0 C 59.0 383.0 58.0 386.0 58.0 389.0 C 58.0 392.0 58.0 395.0 57.0 398.0 C 56.0 400.0 53.0 400.0 52.0 402.0 C 54.0 403.0 52.0 404.0 49.0 404.0 C 47.0 401.0 46.0 398.0 45.0 395.0 C 44.0 392.0 44.0 389.0 42.0 386.0 C 40.0 388.0 38.0 391.0 37.0 394.0 C 35.0 397.0 32.0 399.0 29.0 400.0 C 28.0 397.0 25.0 395.0 22.0 395.0 C 22.0 392.0 20.0 390.0 18.0 392.0 C 16.0 391.0 14.0 389.0 11.0 390.0 C 10.0 387.0 10.0 384.0 11.0 381.0 C 12.0 378.0 12.0 375.0 9.0 376.0 C 6.0 377.0 3.0 377.0 0.0 376.0 C 0.0 373.0 0.0 370.0 2.0 368.0 C 3.0 365.0 5.0 362.0 7.0 359.0 C 9.0 356.0 11.0 353.0 14.0 350.0 C 16.0 347.0 19.0 344.0 20.0 341.0 C 22.0 339.0 20.0 336.0 19.0 333.0 C 18.0 330.0 17.0 327.0 17.0 324.0 C 19.0 321.0 22.0 320.0 25.0 320.0 C 28.0 322.0 30.0 324.0 33.0 327.0 C 36.0 328.0 38.0 330.0 41.0 331.0 C 44.0 331.0 47.0 329.0 46.0 326.0 C 47.0 323.0 49.0 320.0 52.0 320.0 C 55.0 320.0 58.0 320.0 60.0 318.0 C 61.0 315.0 64.0 313.0 66.0 310.0 C 68.0 308.0 71.0 305.0 74.0 302.0 C 77.0 300.0 79.0 297.0 82.0 296.0 C 85.0 293.0 87.0 292.0 90.0 289.0 C 93.0 287.0 96.0 285.0 97.0 285.0" stroke-width="0.0" fill="rgb(248, 190, 111)" opacity="1.0" stroke="rgb(23, 122, 97)" stroke-opacity="0.88492876" stroke-linecap="round" stroke-linejoin="round"/>
  </g>
</svg>
