<?xml version="1.0" ?>
<svg xmlns="http://www.w3.org/2000/svg" version="1.1" width="474" height="596">
  <defs/>
  <g>
    <path d="M 266.6417236328125 -0.6990267038345337 C 267.388427734375 -1.20607590675354 268.08538818359375 -1.8772038221359253 268.6887512207031 -2.702765941619873 C 269.05145263671875 -3.5614168643951416 269.3660888671875 -4.25720739364624 270.0188903808594 -4.664614677429199 C 270.4563903808594 -5.049560546875 270.8364562988281 -5.2159905433654785 271.4867248535156 -5.243553638458252 C 272.21087646484375 -5.039618968963623 273.10546875 -4.525487899780273 274.62811279296875 -3.677330732345581 C 276.48187255859375 -2.9389774799346924 278.94189453125 -1.8864145278930664 282.35540771484375 -0.6006743907928467 C 286.3013916015625 0.9457912445068359 291.2882995605469 2.4007973670959473 297.3926086425781 3.737271308898926 C 304.30169677734375 5.714788436889648 311.7718200683594 8.283086776733398 319.6636047363281 11.447372436523438 C 327.8465881347656 15.036113739013672 336.0240783691406 19.18621826171875 344.00958251953125 24.075332641601562 C 352.385009765625 28.867870330810547 360.44598388671875 34.714439392089844 368.4907531738281 41.14301300048828 C 376.6064453125 48.01055145263672 384.4397277832031 55.404823303222656 391.94378662109375 63.18589401245117 C 399.10589599609375 71.20020294189453 405.856689453125 79.48213958740234 412.1977233886719 88.07177734375 C 418.23236083984375 96.82266998291016 423.6907043457031 105.50418090820312 428.6022033691406 113.6752700805664 C 433.0662536621094 120.65426635742188 434.59710693359375 127.5601806640625 432.6790466308594 135.05789184570312 C 428.7274475097656 143.3881378173828 423.0928955078125 152.06027221679688 416.2800598144531 160.62930297851562 C 409.18939208984375 169.02706909179688 401.58642578125 176.79380798339844 393.58856201171875 184.02378845214844 C 385.43353271484375 191.16943359375 376.63970947265625 197.91177368164062 367.4367980957031 204.5876007080078 C 358.0431823730469 211.43240356445312 348.0272521972656 217.32070922851562 337.09051513671875 221.2264862060547 C 326.7651062011719 224.1815948486328 318.11822509765625 226.02796936035156 313.6237487792969 226.19488525390625 C 314.88922119140625 223.8075408935547 320.7099609375 219.8420867919922 329.0644226074219 214.8173828125 C 338.1653747558594 208.65887451171875 346.2427673339844 200.60150146484375 353.4444885253906 191.7939910888672 C 359.9833068847656 183.36831665039062 364.72027587890625 174.43780517578125 367.80682373046875 165.1457061767578 C 370.2890625 155.85806274414062 371.01263427734375 146.59886169433594 370.3745422363281 137.58084106445312 C 368.7743835449219 128.6954345703125 365.93939208984375 120.25310516357422 361.92559814453125 112.44447326660156 C 356.8974304199219 105.37178039550781 351.5832824707031 99.52101135253906 345.6871032714844 95.55590057373047 C 338.6144714355469 94.44878387451172 330.91571044921875 95.99246215820312 322.7435607910156 99.50163269042969 C 313.2164306640625 101.84153747558594 302.8587646484375 102.92733001708984 292.283935546875 103.43111419677734 C 282.0392761230469 105.3069839477539 272.7978210449219 107.885009765625 265.129638671875 109.74304962158203 C 259.5028076171875 110.16145324707031 255.77342224121094 107.77022552490234 253.15451049804688 103.4273681640625 C 250.5758514404297 100.15982055664062 248.28369140625 99.75433349609375 246.93954467773438 102.5749282836914 C 246.84951782226562 107.63478088378906 243.86050415039062 112.6169204711914 236.56005859375 116.62471771240234 C 225.8640594482422 121.72825622558594 215.50381469726562 129.77879333496094 207.4011993408203 139.2880096435547 C 206.48529052734375 148.5972900390625 207.5613250732422 157.41026306152344 205.316650390625 163.85691833496094 C 198.05001831054688 164.9288787841797 191.00082397460938 160.26416015625 187.65615844726562 151.11880493164062 C 187.9952392578125 141.82415771484375 184.44004821777344 135.60072326660156 176.20843505859375 135.36705017089844 C 165.6137237548828 138.9095458984375 155.9185791015625 144.81231689453125 148.0744171142578 151.91773986816406 C 143.86380004882812 160.02801513671875 142.77447509765625 169.372802734375 143.52005004882812 178.7924346923828 C 144.94190979003906 188.29598999023438 148.14967346191406 197.67648315429688 153.3531036376953 206.3179473876953 C 160.1780242919922 213.72857666015625 167.78952026367188 220.62557983398438 176.02105712890625 226.9894256591797 C 184.287841796875 232.54440307617188 192.86558532714844 236.2948760986328 200.81532287597656 238.74264526367188 C 206.78277587890625 240.25534057617188 210.41299438476562 241.54470825195312 210.87278747558594 242.9863739013672 C 208.24427795410156 244.16502380371094 203.65296936035156 243.47183227539062 197.44784545898438 241.73118591308594 C 189.76573181152344 241.16995239257812 180.92318725585938 241.37413024902344 171.74282836914062 241.30201721191406 C 161.8583526611328 240.9580078125 151.81585693359375 240.89508056640625 141.8731231689453 240.2434844970703 C 131.8214111328125 238.9911346435547 122.03581237792969 236.90208435058594 112.5556869506836 234.40414428710938 C 103.2998046875 231.54957580566406 94.63584899902344 228.57200622558594 85.92845916748047 225.2429962158203 C 77.65558624267578 221.8931884765625 70.10517120361328 218.2676239013672 63.34341049194336 214.34561157226562 C 57.737571716308594 210.69784545898438 54.33694839477539 205.75172424316406 53.29225158691406 198.99456787109375 C 53.54469680786133 190.80445861816406 54.40735626220703 181.81753540039062 56.00006866455078 172.3461151123047 C 57.69926071166992 163.16893005371094 59.950218200683594 153.94692993164062 62.458194732666016 145.20765686035156 C 64.79106140136719 136.838134765625 68.00252532958984 129.13885498046875 71.18968200683594 121.31208038330078 C 74.69884490966797 113.62416076660156 78.53260040283203 105.5185775756836 83.32274627685547 97.49903869628906 C 88.08528137207031 88.93174743652344 93.79031372070312 80.67683410644531 100.64066314697266 72.9573745727539 C 107.41569519042969 64.905517578125 114.6446533203125 57.24386978149414 122.60453033447266 50.32973861694336 C 130.49351501464844 43.35135269165039 138.81800842285156 37.103824615478516 146.9861602783203 31.16020965576172 C 154.97055053710938 26.445533752441406 163.85789489746094 24.21732521057129 173.0316925048828 23.576492309570312 C 182.09754943847656 24.044496536254883 191.0032958984375 25.03908920288086 198.68251037597656 26.683788299560547 C 204.6435546875 29.178335189819336 209.4813995361328 29.87059211730957 213.60377502441406 28.16227149963379 C 218.0829315185547 29.336727142333984 222.65061950683594 29.303241729736328 227.20840454101562 26.24398422241211 C 232.45010375976562 20.121925354003906 239.3656005859375 13.53348445892334 248.08665466308594 7.896688938140869 C 257.9846496582031 2.9703798294067383 268.15216064453125 -1.3551549911499023 266.6417236328125 -0.6990267038345337" stroke-width="0.0" fill="rgb(64, 38, 31)" opacity="0.999987" stroke="rgb(200, 131, 241)" stroke-opacity="0.5338206" stroke-linecap="round" stroke-linejoin="round"/>
    <path d="M 368.7729187011719 126.51921844482422 C 365.234619140625 157.3542938232422 355.9141540527344 184.11973571777344 340.79400634765625 204.80645751953125 C 323.76239013671875 219.6648712158203 307.8637390136719 229.64674377441406 295.0727844238281 236.1748046875 C 290.58544921875 245.81167602539062 287.04296875 253.1890106201172 281.3302917480469 257.4093322753906 C 273.0406494140625 257.8738708496094 262.5890197753906 255.88467407226562 251.48866271972656 253.2434539794922 C 241.18907165527344 251.2678680419922 233.32583618164062 249.88006591796875 228.91734313964844 248.98223876953125 C 228.46336364746094 248.7342071533203 231.7827606201172 249.21397399902344 238.4547576904297 250.3435821533203 C 247.91311645507812 251.99456787109375 259.2767333984375 254.14808654785156 271.0346984863281 257.7210998535156 C 281.631591796875 263.8050842285156 290.01544189453125 272.6525573730469 296.4883728027344 283.40252685546875 C 302.15533447265625 293.8439025878906 306.95306396484375 302.58624267578125 310.2979431152344 308.811767578125 C 311.77606201171875 311.657470703125 311.0115051269531 310.5927734375 307.8831787109375 305.41302490234375 C 302.6019592285156 296.12017822265625 295.55047607421875 284.13006591796875 288.929443359375 270.6678161621094 C 285.84033203125 257.34063720703125 287.6860046386719 246.11392211914062 295.836669921875 240.25735473632812 C 310.5872497558594 240.8471221923828 328.89215087890625 245.5990753173828 348.2262878417969 253.89283752441406 C 365.4161376953125 265.4259948730469 381.6369934082031 274.8434143066406 395.58209228515625 281.6552734375 C 404.8333740234375 288.0793762207031 410.2137756347656 293.4067077636719 414.89154052734375 294.80902099609375 C 421.95159912109375 290.7991638183594 430.3919677734375 287.1540832519531 439.418701171875 289.6148376464844 C 448.9577331542969 298.63043212890625 458.17413330078125 311.6541748046875 461.51275634765625 326.37347412109375 C 456.0946960449219 338.9140625 444.1334228515625 347.91668701171875 429.0843505859375 350.4603576660156 C 414.23681640625 340.69256591796875 396.1820983886719 331.38055419921875 374.77838134765625 327.2820739746094 C 354.26080322265625 322.9653015136719 337.0308532714844 322.3973083496094 325.5724792480469 329.0371398925781 C 321.4598083496094 344.099853515625 320.0857238769531 365.52105712890625 315.98699951171875 390.4646911621094 C 312.00030517578125 417.181884765625 305.5559997558594 443.49481201171875 297.8003845214844 467.97711181640625 C 290.1845397949219 489.3663635253906 285.82196044921875 507.9268493652344 279.5754089355469 521.0064086914062 C 268.1097106933594 527.0220947265625 254.81292724609375 529.217041015625 243.1416778564453 532.4030151367188 C 237.28208923339844 542.017578125 235.90260314941406 553.2843017578125 239.8721160888672 563.84765625 C 252.30490112304688 569.9215087890625 270.477783203125 572.0277709960938 291.69610595703125 571.4749145507812 C 312.04278564453125 571.3326416015625 327.88702392578125 570.2312622070312 336.3594970703125 572.54443359375 C 335.0150451660156 579.848388671875 322.8680725097656 584.2819213867188 302.0144348144531 584.6815185546875 C 276.9706115722656 584.3091430664062 253.5261993408203 583.3018798828125 237.07118225097656 575.9132690429688 C 231.6156768798828 559.0364990234375 233.72488403320312 535.9533081054688 237.9204559326172 510.1499328613281 C 241.69078063964844 487.2191467285156 239.91815185546875 470.4150695800781 234.01437377929688 460.15924072265625 C 230.15309143066406 459.5351257324219 227.8733367919922 465.8447265625 223.47894287109375 473.5110168457031 C 218.33868408203125 480.29290771484375 214.68763732910156 486.9081726074219 212.806640625 493.8336181640625 C 211.3265380859375 501.1732177734375 211.71763610839844 509.9270324707031 212.33416748046875 520.9326171875 C 213.4167938232422 533.8697509765625 215.93211364746094 547.8840942382812 215.69171142578125 562.1218872070312 C 208.68313598632812 575.2969970703125 194.41188049316406 585.8536376953125 174.326416015625 592.2012939453125 C 153.65753173828125 597.5831298828125 135.46771240234375 597.1405029296875 123.04652404785156 592.3387451171875 C 120.6182861328125 587.5369873046875 128.9617156982422 584.3518676757812 146.14292907714844 582.4797973632812 C 168.09605407714844 580.3101806640625 190.4005584716797 577.8216552734375 208.08238220214844 573.0039672851562 C 215.362060546875 560.8565673828125 214.301025390625 545.172607421875 208.0340576171875 532.3754272460938 C 195.9090576171875 529.3335571289062 180.8449249267578 530.1210327148438 166.4766082763672 530.6937866210938 C 157.1552276611328 527.9647216796875 155.04296875 520.2809448242188 159.3876190185547 508.3276672363281 C 165.1904296875 493.96575927734375 164.05157470703125 478.0754089355469 157.00363159179688 460.21246337890625 C 155.03582763671875 438.310546875 154.48158264160156 416.56781005859375 148.15585327148438 399.5788269042969 C 131.06930541992188 390.2511291503906 118.16383361816406 377.4518737792969 114.60467529296875 360.8687438964844 C 114.99588012695312 347.8465576171875 110.62596893310547 344.89337158203125 99.15105438232422 351.10894775390625 C 83.34675598144531 360.1590270996094 66.25464630126953 364.8863525390625 52.09769058227539 362.131591796875 C 45.79646682739258 351.7458190917969 47.878440856933594 337.2519226074219 56.785011291503906 322.2379150390625 C 67.5846939086914 308.1431579589844 79.79364013671875 297.80145263671875 90.54306030273438 289.2495422363281 C 94.9150619506836 277.70574951171875 102.71669006347656 269.6662902832031 115.26795959472656 262.8011169433594 C 130.06747436523438 253.74867248535156 146.64173889160156 246.0336456298828 163.17660522460938 241.17681884765625 C 177.48507690429688 240.0934295654297 187.6887969970703 244.52159118652344 192.17874145507812 254.33872985839844 C 189.95509338378906 268.2879333496094 182.97642517089844 285.0896301269531 174.5795440673828 303.0931396484375 C 166.99261474609375 320.38104248046875 161.09945678710938 335.6074523925781 156.75315856933594 347.4696960449219 C 154.50523376464844 355.13861083984375 154.01004028320312 357.5982360839844 154.9019775390625 354.97515869140625 C 157.1462860107422 347.85015869140625 161.27757263183594 337.1766662597656 166.5650177001953 323.788818359375 C 172.1529541015625 308.5384216308594 178.32821655273438 292.5140380859375 185.0229034423828 276.837158203125 C 193.0393829345703 263.1351623535156 202.30029296875 252.27037048339844 209.8973846435547 242.60089111328125 C 207.87503051757812 229.123291015625 204.8236541748047 212.26087951660156 205.43701171875 192.3084259033203 C 211.25546264648438 169.66082763671875 219.36155700683594 144.25442504882812 368.7729187011719 126.51921844482422" stroke-width="0.0" fill="rgb(232, 106, 162)" opacity="0.99930215" stroke="rgb(44, 183, 177)" stroke-opacity="0.06237474" stroke-linecap="round" stroke-linejoin="round"/>
    <path d="M 242.0 94.0 C 248.0 98.0 252.0 104.0 258.0 108.0 C 264.0 109.0 270.0 109.0 276.0 107.0 C 282.0 106.0 288.0 104.0 294.0 104.0 C 299.0 101.0 305.0 100.0 308.0 104.0 C 314.0 104.0 320.0 105.0 326.0 110.0 C 329.0 116.0 330.0 122.0 329.0 128.0 C 328.0 134.0 326.0 137.0 332.0 137.0 C 337.0 133.0 343.0 133.0 349.0 135.0 C 352.0 132.0 347.0 130.0 344.0 126.0 C 345.0 120.0 344.0 114.0 339.0 108.0 C 333.0 104.0 327.0 101.0 322.0 99.0 C 326.0 96.0 332.0 96.0 337.0 95.0 C 342.0 94.0 348.0 97.0 352.0 102.0 C 357.0 107.0 361.0 112.0 363.0 118.0 C 365.0 124.0 366.0 130.0 369.0 135.0 C 369.0 141.0 369.0 147.0 369.0 153.0 C 368.0 159.0 367.0 165.0 364.0 171.0 C 361.0 177.0 359.0 183.0 356.0 188.0 C 352.0 193.0 348.0 194.0 345.0 196.0 C 341.0 201.0 335.0 206.0 331.0 209.0 C 328.0 214.0 322.0 215.0 319.0 211.0 C 315.0 214.0 313.0 219.0 309.0 222.0 C 305.0 226.0 299.0 226.0 293.0 230.0 C 287.0 231.0 281.0 230.0 275.0 229.0 C 273.0 232.0 279.0 234.0 277.0 238.0 C 283.0 237.0 281.0 240.0 286.0 244.0 C 287.0 248.0 283.0 244.0 277.0 241.0 C 274.0 237.0 269.0 234.0 265.0 237.0 C 259.0 239.0 260.0 243.0 256.0 239.0 C 250.0 237.0 244.0 237.0 248.0 239.0 C 248.0 241.0 242.0 241.0 237.0 239.0 C 231.0 239.0 226.0 242.0 220.0 241.0 C 215.0 242.0 211.0 244.0 213.0 241.0 C 208.0 239.0 202.0 238.0 196.0 236.0 C 191.0 234.0 185.0 231.0 179.0 228.0 C 174.0 224.0 169.0 220.0 163.0 217.0 C 159.0 212.0 155.0 207.0 151.0 201.0 C 149.0 195.0 146.0 190.0 145.0 184.0 C 144.0 178.0 144.0 172.0 144.0 166.0 C 145.0 160.0 147.0 155.0 151.0 149.0 C 156.0 146.0 157.0 140.0 157.0 134.0 C 158.0 128.0 161.0 130.0 165.0 136.0 C 169.0 138.0 175.0 136.0 180.0 135.0 C 184.0 132.0 190.0 129.0 190.0 133.0 C 185.0 138.0 185.0 144.0 183.0 150.0 C 184.0 156.0 186.0 162.0 190.0 166.0 C 196.0 166.0 202.0 164.0 206.0 160.0 C 207.0 154.0 207.0 148.0 209.0 144.0 C 211.0 139.0 211.0 134.0 217.0 129.0 C 222.0 130.0 226.0 136.0 228.0 142.0 C 227.0 148.0 225.0 154.0 220.0 160.0 C 224.0 163.0 230.0 163.0 235.0 161.0 C 240.0 160.0 245.0 156.0 249.0 159.0 C 253.0 157.0 249.0 151.0 245.0 149.0 C 244.0 143.0 241.0 137.0 235.0 131.0 C 229.0 128.0 224.0 126.0 220.0 124.0 C 214.0 124.0 210.0 122.0 216.0 120.0 C 222.0 119.0 228.0 118.0 233.0 118.0 C 237.0 116.0 243.0 111.0 244.0 105.0 C 241.0 99.0 239.0 93.0 242.0 94.0" stroke-width="0.0" fill="rgb(251, 188, 104)" opacity="1.0" stroke="rgb(249, 18, 118)" stroke-opacity="0.9835308" stroke-linecap="round" stroke-linejoin="round"/>
    <path d="M 300.0 377.0 C 301.0 377.0 302.0 377.0 303.0 377.0 C 304.0 377.0 304.0 378.0 304.0 379.0 C 305.0 380.0 306.0 380.0 307.0 380.0 C 314.0 380.0 315.0 389.0 314.0 399.0 C 312.0 409.0 310.0 419.0 308.0 429.0 C 305.0 439.0 302.0 449.0 301.0 459.0 C 299.0 469.0 294.0 475.0 291.0 485.0 C 286.0 485.0 287.0 480.0 285.0 472.0 C 275.0 472.0 269.0 476.0 261.0 473.0 C 269.0 471.0 259.0 471.0 249.0 469.0 C 246.0 477.0 245.0 487.0 244.0 497.0 C 245.0 506.0 255.0 508.0 264.0 511.0 C 273.0 508.0 278.0 500.0 281.0 504.0 C 284.0 503.0 288.0 505.0 298.0 506.0 C 304.0 514.0 296.0 519.0 292.0 527.0 C 301.0 533.0 310.0 540.0 320.0 544.0 C 330.0 548.0 339.0 555.0 343.0 565.0 C 340.0 575.0 330.0 579.0 320.0 582.0 C 310.0 583.0 300.0 583.0 290.0 583.0 C 280.0 583.0 280.0 581.0 290.0 581.0 C 300.0 581.0 310.0 581.0 320.0 579.0 C 330.0 577.0 339.0 570.0 339.0 560.0 C 331.0 552.0 321.0 548.0 312.0 543.0 C 303.0 539.0 295.0 534.0 288.0 526.0 C 282.0 530.0 272.0 532.0 262.0 533.0 C 254.0 531.0 249.0 532.0 241.0 529.0 C 239.0 533.0 238.0 543.0 238.0 553.0 C 237.0 563.0 238.0 573.0 234.0 565.0 C 234.0 555.0 234.0 545.0 235.0 535.0 C 236.0 525.0 227.0 521.0 228.0 511.0 C 238.0 506.0 239.0 498.0 240.0 491.0 C 243.0 483.0 243.0 473.0 240.0 478.0 C 238.0 469.0 233.0 461.0 231.0 457.0 C 226.0 465.0 223.0 473.0 219.0 476.0 C 215.0 480.0 213.0 489.0 212.0 499.0 C 209.0 501.0 210.0 491.0 211.0 481.0 C 208.0 474.0 198.0 474.0 188.0 474.0 C 178.0 473.0 168.0 472.0 168.0 482.0 C 168.0 492.0 168.0 502.0 173.0 505.0 C 179.0 511.0 186.0 512.0 194.0 512.0 C 204.0 510.0 214.0 509.0 220.0 516.0 C 214.0 523.0 212.0 532.0 211.0 540.0 C 208.0 532.0 203.0 530.0 195.0 535.0 C 185.0 536.0 175.0 534.0 167.0 529.0 C 161.0 531.0 157.0 540.0 158.0 532.0 C 157.0 523.0 151.0 515.0 159.0 507.0 C 161.0 502.0 163.0 492.0 162.0 482.0 C 162.0 473.0 158.0 465.0 157.0 455.0 C 156.0 445.0 155.0 435.0 154.0 425.0 C 152.0 415.0 153.0 405.0 153.0 395.0 C 155.0 391.0 157.0 384.0 166.0 380.0 C 176.0 380.0 184.0 380.0 194.0 380.0 C 202.0 383.0 212.0 385.0 222.0 386.0 C 232.0 387.0 240.0 386.0 250.0 387.0 C 258.0 384.0 267.0 385.0 276.0 384.0 C 270.0 381.0 260.0 381.0 250.0 381.0 C 240.0 381.0 230.0 381.0 224.0 379.0 C 234.0 379.0 244.0 378.0 254.0 378.0 C 264.0 379.0 274.0 378.0 280.0 383.0 C 289.0 380.0 299.0 377.0 300.0 377.0" stroke-width="0.0" fill="rgb(235, 82, 10)" opacity="1.0" stroke="rgb(229, 34, 200)" stroke-opacity="0.44484466" stroke-linecap="round" stroke-linejoin="round"/>
  </g>
</svg>
