<?xml version="1.0" ?>
<svg xmlns="http://www.w3.org/2000/svg" version="1.1" width="474" height="596">
  <defs/>
  <g>
    <path d="M 266.1744384765625 -2.605159282684326 C 266.9434509277344 -1.9807618856430054 267.9080810546875 -1.6689808368682861 269.38507080078125 -2.0271472930908203 C 269.5315856933594 -3.627847671508789 268.8218688964844 -5.11745023727417 269.9110412597656 -4.588892936706543 C 270.6556091308594 -5.150441646575928 270.5014343261719 -5.240174770355225 271.5550231933594 -5.2468671798706055 C 271.95977783203125 -4.970135688781738 272.94122314453125 -4.506771564483643 275.2565002441406 -3.363250494003296 C 276.41436767578125 -3.477062463760376 278.7503967285156 -2.050808906555176 293.3410949707031 -3.1506407260894775 C 281.6275634765625 2.884782075881958 289.8403015136719 0.9462388753890991 299.1598815917969 4.192219257354736 C 304.50653076171875 5.700798511505127 311.8013610839844 8.326004028320312 318.56597900390625 10.786993980407715 C 326.77362060546875 14.489110946655273 336.1956787109375 19.032878875732422 344.1581115722656 23.829565048217773 C 352.6022644042969 28.93113899230957 360.83380126953125 34.5575065612793 368.8674011230469 41.10211944580078 C 377.0973815917969 47.69389724731445 384.3612060546875 55.58571243286133 392.11114501953125 63.205196380615234 C 399.30517578125 71.201904296875 406.19635009765625 79.84835815429688 412.289794921875 87.74089050292969 C 418.0063781738281 97.47628784179688 423.74188232421875 104.0571060180664 427.7907409667969 112.41011047363281 C 433.7030029296875 120.60653686523438 435.0288391113281 128.80081176757812 432.4380798339844 135.16943359375 C 429.7371520996094 142.7834014892578 423.0049743652344 152.24395751953125 415.69561767578125 160.95962524414062 C 410.6511535644531 168.1085662841797 400.9235534667969 177.08154296875 393.6406555175781 184.3117218017578 C 385.0973205566406 191.54702758789062 376.70928955078125 197.90345764160156 367.1371154785156 204.9403076171875 C 358.0369873046875 210.92982482910156 345.9669494628906 219.1186065673828 334.9654235839844 221.71189880371094 C 315.33819580078125 228.1459197998047 325.38128662109375 221.1456298828125 298.471923828125 235.0531463623047 C 297.21759033203125 216.9688262939453 319.41778564453125 221.9199981689453 326.53131103515625 213.5137176513672 C 337.50653076171875 208.45558166503906 344.1358947753906 199.25987243652344 352.62420654296875 191.28846740722656 C 359.76483154296875 182.8927764892578 365.132568359375 173.4580841064453 366.88519287109375 162.91607666015625 C 367.86273193359375 154.83302307128906 370.27142333984375 145.59844970703125 366.0628662109375 142.06398010253906 C 367.4435119628906 130.97576904296875 364.2290344238281 122.13143920898438 361.70123291015625 113.47534942626953 C 354.7795715332031 107.44210052490234 349.79119873046875 100.42193603515625 344.4050598144531 98.10932922363281 C 336.4130859375 95.5492935180664 349.5087585449219 97.30859375 342.054931640625 110.78675842285156 C 322.74725341796875 92.04898071289062 302.64404296875 103.625732421875 297.5444641113281 110.64840698242188 C 281.619384765625 104.76316833496094 272.3083190917969 109.2321548461914 262.07562255859375 110.69129943847656 C 255.96917724609375 113.946044921875 253.6898956298828 110.33135223388672 248.84197998046875 107.04338073730469 C 249.65150451660156 99.78861999511719 248.97642517089844 98.64318084716797 248.30715942382812 104.8359375 C 252.48109436035156 114.61933898925781 250.1078643798828 122.70951843261719 232.60305786132812 119.86409759521484 C 213.4840850830078 123.7667465209961 226.5619354248047 132.08750915527344 204.85626220703125 140.33116149902344 C 218.398193359375 154.46707153320312 241.6942596435547 126.39226531982422 219.7082977294922 166.49923706054688 C 200.8203125 166.6885528564453 187.25857543945312 162.00732421875 186.9969024658203 146.03268432617188 C 187.88697814941406 137.42568969726562 182.46241760253906 144.2953338623047 175.93331909179688 138.14169311523438 C 168.0041046142578 139.21176147460938 158.50213623046875 146.7526092529297 149.83555603027344 153.184814453125 C 144.57896423339844 162.07229614257812 144.49658203125 169.17831420898438 146.49209594726562 178.82421875 C 144.75491333007812 187.89942932128906 148.9412841796875 197.29151916503906 155.1475830078125 204.00770568847656 C 160.37625122070312 212.7709197998047 168.57733154296875 219.88241577148438 178.18408203125 227.78744506835938 C 186.4128875732422 229.7797393798828 198.436279296875 231.86306762695312 202.37124633789062 236.96156311035156 C 208.0404052734375 239.68789672851562 214.79507446289062 237.3662567138672 238.7996368408203 246.4183349609375 C 211.00125122070312 246.142822265625 203.1922149658203 245.34805297851562 192.11611938476562 245.97325134277344 C 189.95050048828125 238.5778350830078 181.6248321533203 243.98214721679688 174.6565399169922 239.8339080810547 C 171.22776794433594 240.41778564453125 151.32675170898438 241.5628204345703 140.65069580078125 239.84666442871094 C 134.13345336914062 239.53192138671875 121.32962036132812 236.9654998779297 110.41844940185547 233.98085021972656 C 102.93901824951172 231.857177734375 95.1183853149414 228.9296112060547 86.29048919677734 225.42343139648438 C 78.02159118652344 222.3631591796875 68.02885437011719 217.32455444335938 61.578758239746094 213.37149047851562 C 55.3981819152832 208.28515625 55.62677764892578 206.20513916015625 53.55171585083008 201.37545776367188 C 52.827152252197266 192.43763732910156 54.756248474121094 180.36669921875 56.38996887207031 170.24075317382812 C 58.020023345947266 161.45956420898438 59.544891357421875 154.8097381591797 62.040809631347656 147.14942932128906 C 64.13081359863281 138.4375 67.93101501464844 128.39102172851562 71.13207244873047 121.89262390136719 C 73.49604034423828 114.6307601928711 78.78986358642578 105.5074691772461 83.61329650878906 96.74320983886719 C 88.49658966064453 89.2837142944336 93.87860870361328 80.85993194580078 101.07963562011719 72.39624786376953 C 106.86380767822266 65.30592346191406 114.8250961303711 56.56033706665039 122.78616333007812 49.75217056274414 C 129.64671325683594 43.79656982421875 138.82998657226562 36.59795379638672 147.383056640625 30.882383346557617 C 155.85147094726562 25.303796768188477 164.5448455810547 23.946718215942383 174.74859619140625 23.665889739990234 C 178.57398986816406 23.69416618347168 192.23843383789062 24.817541122436523 198.6825408935547 27.092443466186523 C 219.29718017578125 31.45206069946289 211.65086364746094 35.72483825683594 212.25880432128906 18.3216552734375 C 217.60093688964844 34.86662292480469 216.3440399169922 27.530160903930664 223.64935302734375 29.941282272338867 C 232.4492645263672 20.320341110229492 238.0006866455078 13.738276481628418 248.74783325195312 7.609328269958496 C 257.7742004394531 1.9725450277328491 270.14776611328125 0.5299347043037415 266.1744384765625 -2.605159282684326" stroke-width="0.0" fill="rgb(64, 38, 31)" opacity="0.9999761" stroke="rgb(200, 131, 241)" stroke-opacity="0.5338206" stroke-linecap="round" stroke-linejoin="round"/>
    <path d="M 367.3807373046875 126.46278381347656 C 365.8841552734375 157.01803588867188 359.2526550292969 184.81138610839844 339.9527893066406 202.70071411132812 C 298.7090148925781 206.6761016845703 302.6242370605469 241.21942138671875 293.7297668457031 235.26071166992188 C 290.4413757324219 251.0670623779297 282.025390625 254.9199981689453 285.16082763671875 257.3816833496094 C 271.6709899902344 257.68963623046875 263.1095886230469 257.99114990234375 249.04147338867188 252.3410186767578 C 241.69784545898438 250.42454528808594 234.0241241455078 250.02090454101562 229.30108642578125 250.69322204589844 C 228.7660369873047 248.77615356445312 232.11570739746094 249.46417236328125 239.36593627929688 250.3333740234375 C 248.8595733642578 250.0469207763672 258.0158996582031 258.7572937011719 273.8045654296875 256.3475341796875 C 283.19805908203125 256.9969177246094 290.5540771484375 271.40667724609375 292.6684875488281 279.78997802734375 C 303.4259948730469 293.48101806640625 309.8516845703125 305.64947509765625 311.41009521484375 309.2891540527344 C 311.86669921875 314.9651794433594 310.2951965332031 328.5093994140625 310.64288330078125 308.59356689453125 C 304.20947265625 295.2337341308594 294.5968322753906 283.94647216796875 282.74285888671875 259.2767639160156 C 277.11273193359375 261.5616760253906 287.52752685546875 252.47828674316406 293.2846984863281 239.12461853027344 C 308.4454650878906 241.40692138671875 332.14984130859375 244.48260498046875 359.9515686035156 259.5586853027344 C 370.1612548828125 270.5220031738281 378.7037658691406 271.07330322265625 392.932373046875 280.1260070800781 C 406.018310546875 287.7754211425781 410.59124755859375 293.11187744140625 412.21392822265625 295.0748291015625 C 432.8681335449219 285.9500732421875 429.7504577636719 293.0030517578125 441.70062255859375 278.7275390625 C 446.0157470703125 296.6221618652344 458.2320556640625 313.3055725097656 467.32464599609375 334.9774475097656 C 447.95172119140625 367.2195739746094 443.5389099121094 323.343017578125 439.9235534667969 363.4134216308594 C 424.88653564453125 340.76556396484375 386.3990173339844 325.5190734863281 369.9598388671875 327.7215270996094 C 328.69073486328125 316.8797607421875 352.6922607421875 332.36541748046875 327.5849914550781 321.7391662597656 C 315.5543518066406 350.00701904296875 332.5165100097656 390.0650329589844 316.84613037109375 380.8165588378906 C 314.5108642578125 413.5330505371094 304.77667236328125 449.65948486328125 296.0404052734375 462.74713134765625 C 286.42510986328125 476.20025634765625 287.1064758300781 515.939453125 287.75579833984375 528.4569091796875 C 274.8355407714844 534.5589599609375 256.93701171875 535.595458984375 239.68740844726562 530.3136596679688 C 239.7076416015625 541.5488891601562 237.9634552001953 546.7911987304688 238.7238006591797 563.4022827148438 C 253.0000762939453 570.0673217773438 264.6499938964844 571.5009155273438 301.7276611328125 571.4959716796875 C 315.69586181640625 572.1295776367188 330.7504577636719 570.7010498046875 339.9479675292969 571.98486328125 C 336.3213195800781 580.4453735351562 325.4656982421875 584.3613891601562 301.393798828125 584.67822265625 C 280.0299377441406 584.9115600585938 241.23887634277344 582.1713256835938 238.49700927734375 576.3045654296875 C 227.68423461914062 569.814453125 237.3882293701172 531.2779541015625 236.3075408935547 506.2403259277344 C 245.2852325439453 511.2565002441406 243.2583465576172 452.0126953125 238.70608520507812 455.6238708496094 C 219.91810607910156 449.9786376953125 232.26962280273438 461.37652587890625 224.91688537597656 474.337646484375 C 212.14476013183594 474.94097900390625 216.72259521484375 482.68414306640625 213.5326690673828 491.5337829589844 C 212.47280883789062 499.9768981933594 209.96900939941406 510.5301208496094 212.43560791015625 516.881591796875 C 213.2199249267578 534.1963500976562 215.8770751953125 550.7870483398438 217.46865844726562 570.25048828125 C 201.93856811523438 573.8563232421875 211.4203643798828 582.5858154296875 175.1178741455078 591.7610473632812 C 157.0775604248047 598.0513916015625 122.23971557617188 597.5818481445312 118.27914428710938 587.708984375 C 113.97486114501953 571.3548583984375 123.31207275390625 578.085693359375 143.7848663330078 582.5646362304688 C 165.36769104003906 580.9655151367188 189.24246215820312 574.8280639648438 212.4697723388672 573.1011962890625 C 214.3979034423828 582.6817016601562 213.276123046875 549.7601928710938 209.51895141601562 530.5296020507812 C 193.2060546875 537.9761352539062 180.04087829589844 539.962158203125 158.83604431152344 527.2996215820312 C 163.72474670410156 521.9695434570312 139.89962768554688 525.2147827148438 157.57781982421875 507.18408203125 C 179.63009643554688 503.41546630859375 171.666748046875 471.7991027832031 158.09051513671875 468.3963317871094 C 155.4877471923828 439.2874755859375 151.51390075683594 410.9546203613281 152.66244506835938 398.2913818359375 C 125.34281158447266 399.05023193359375 113.85691833496094 386.6267395019531 114.51690673828125 363.1872253417969 C 108.55171203613281 339.1815490722656 128.06678771972656 339.2075500488281 91.66312408447266 354.692138671875 C 68.14347076416016 363.19635009765625 75.80494689941406 389.4742126464844 41.17253112792969 385.3232116699219 C 32.9331169128418 347.3761901855469 33.131900787353516 333.8210754394531 55.52484130859375 324.00323486328125 C 64.7338638305664 310.1156921386719 77.95018005371094 298.1918640136719 91.89720916748047 288.0492858886719 C 82.65166473388672 284.2080383300781 102.21916198730469 270.5782165527344 114.78496551513672 262.7982482910156 C 131.11642456054688 252.6976776123047 145.753173828125 245.95660400390625 168.03256225585938 239.63345336914062 C 194.05564880371094 235.32998657226562 193.32972717285156 242.2208251953125 204.57992553710938 243.10134887695312 C 188.370849609375 261.42608642578125 183.38583374023438 284.7983703613281 172.63088989257812 304.9461975097656 C 166.9911651611328 321.6328430175781 162.518798828125 336.73028564453125 156.05987548828125 345.6906433105469 C 153.67384338378906 352.1489562988281 154.58258056640625 357.91558837890625 153.48123168945312 353.219482421875 C 151.83912658691406 344.7314758300781 162.2892608642578 340.6337890625 164.07168579101562 327.42803955078125 C 171.4734344482422 311.0148620605469 179.64227294921875 293.58392333984375 186.51910400390625 273.7032470703125 C 191.60330200195312 245.8102264404297 178.97459411621094 236.5936737060547 234.7908935546875 248.83067321777344 C 227.1167755126953 223.82345581054688 206.21969604492188 212.01028442382812 201.07334899902344 190.39732360839844 C 206.92007446289062 169.8230743408203 218.40362548828125 147.5152130126953 367.3807373046875 126.46278381347656" stroke-width="0.0" fill="rgb(232, 106, 162)" opacity="0.9980731" stroke="rgb(44, 183, 177)" stroke-opacity="0.06237474" stroke-linecap="round" stroke-linejoin="round"/>
    <path d="M 236.0653533935547 89.64106750488281 C 246.5732879638672 96.03009033203125 254.81838989257812 102.59738159179688 259.20343017578125 110.33924865722656 C 259.5263977050781 109.86576843261719 271.3188781738281 108.21196746826172 269.76239013671875 107.76802062988281 C 281.24224853515625 105.4503402709961 291.3252258300781 102.38521575927734 315.4048156738281 98.58284759521484 C 292.5770568847656 106.20663452148438 304.18157958984375 104.41608428955078 317.1954345703125 104.19970703125 C 319.730224609375 106.59378051757812 321.49542236328125 103.81222534179688 328.1880187988281 112.44730377197266 C 328.8786926269531 117.01563262939453 331.29949951171875 122.32939147949219 330.3714599609375 118.03347778320312 C 331.4935302734375 135.17074584960938 327.8649597167969 130.530029296875 309.8127746582031 139.47357177734375 C 334.3850402832031 137.2863006591797 333.1077575683594 129.43206787109375 343.7856140136719 127.7356948852539 C 344.8996887207031 125.51634216308594 346.6365661621094 125.5438232421875 344.3486022949219 110.89527130126953 C 347.76806640625 122.6719970703125 342.17327880859375 113.03784942626953 342.15704345703125 108.46265411376953 C 336.2063293457031 102.9440689086914 327.8889465332031 96.29816436767578 307.770751953125 99.52256774902344 C 315.1298828125 97.62403106689453 329.0594177246094 96.97909545898438 333.5735168457031 94.66383361816406 C 335.2550964355469 95.04351043701172 347.8861083984375 93.1632308959961 346.4660339355469 94.9348373413086 C 352.6710510253906 100.07886505126953 358.5663757324219 106.69834899902344 361.20721435546875 110.60706329345703 C 365.7479553222656 119.23760223388672 368.36688232421875 124.087646484375 370.362060546875 136.08079528808594 C 370.9862976074219 143.45143127441406 371.5471496582031 141.80825805664062 370.62542724609375 152.83119201660156 C 369.1368408203125 161.9315948486328 367.46856689453125 167.70388793945312 365.85247802734375 170.82801818847656 C 363.7560119628906 177.79173278808594 359.4317626953125 183.95761108398438 356.8116760253906 187.95745849609375 C 354.2368469238281 191.51304626464844 347.4461975097656 200.57803344726562 345.8124084472656 200.7931671142578 C 345.15203857421875 201.8943328857422 340.4972839355469 206.12704467773438 335.1159362792969 210.5575714111328 C 330.6924133300781 213.78799438476562 325.117919921875 218.02615356445312 321.4986267089844 219.7683868408203 C 318.3982238769531 221.9016876220703 310.912353515625 225.74560546875 303.833984375 229.2040252685547 C 300.7445373535156 230.98660278320312 295.2081298828125 232.29637145996094 292.9812316894531 234.6095733642578 C 295.03955078125 232.78887939453125 288.2156066894531 235.00491333007812 284.990478515625 236.2550811767578 C 283.7098083496094 237.0255889892578 281.5700988769531 236.98507690429688 283.0425720214844 236.78636169433594 C 280.0162353515625 238.07460021972656 276.9466552734375 237.48960876464844 277.3272399902344 238.32826232910156 C 275.54791259765625 239.3525390625 271.3385009765625 238.38365173339844 272.70025634765625 239.53338623046875 C 273.69671630859375 240.11978149414062 270.3387756347656 238.7618408203125 265.93084716796875 240.4143524169922 C 262.57244873046875 239.9189453125 258.748046875 241.72177124023438 255.69190979003906 242.35533142089844 C 253.86056518554688 242.64527893066406 249.7050323486328 242.764892578125 245.52389526367188 243.4612274169922 C 242.91136169433594 243.49989318847656 236.62066650390625 243.87057495117188 235.04893493652344 243.8965301513672 C 231.405517578125 243.80343627929688 226.60638427734375 246.09994506835938 234.48789978027344 243.50039672851562 C 228.9354705810547 244.37014770507812 219.36825561523438 243.56320190429688 210.85765075683594 241.7354736328125 C 206.54945373535156 240.9963836669922 198.5014190673828 238.57179260253906 193.49551391601562 236.51364135742188 C 189.6547088623047 235.12144470214844 181.9058074951172 231.5382843017578 179.68890380859375 229.73831176757812 C 171.56936645507812 224.7873077392578 167.0862579345703 221.07525634765625 163.13589477539062 217.4903564453125 C 158.80532836914062 213.1746063232422 152.8910675048828 206.72122192382812 149.8149871826172 199.9971923828125 C 145.90841674804688 193.01780700683594 144.83872985839844 187.61802673339844 143.70419311523438 181.74327087402344 C 142.14227294921875 171.04840087890625 142.8539581298828 162.2608642578125 147.08937072753906 152.23597717285156 C 145.24786376953125 151.61239624023438 151.93392944335938 149.32762145996094 156.25390625 145.3011932373047 C 157.96368408203125 138.08737182617188 157.8965606689453 129.4140167236328 157.4816131591797 122.28633117675781 C 160.71331787109375 128.42190551757812 166.5084991455078 137.7513885498047 166.35836791992188 138.5155487060547 C 170.2913055419922 138.8418731689453 175.31105041503906 135.7244110107422 178.49305725097656 134.11044311523438 C 185.67929077148438 131.25099182128906 196.57333374023438 126.5076675415039 202.09556579589844 125.2852554321289 C 179.31051635742188 139.51708984375 188.94525146484375 140.07289123535156 183.74923706054688 150.71255493164062 C 184.05435180664062 157.343994140625 185.04873657226562 168.37831115722656 192.91236877441406 166.25576782226562 C 208.60939025878906 163.29098510742188 201.2114715576172 168.56442260742188 222.00827026367188 162.53167724609375 C 231.51455688476562 138.96714782714844 233.38934326171875 145.1571807861328 211.0582275390625 144.25540161132812 C 214.77423095703125 131.5940399169922 208.24740600585938 142.84849548339844 221.1283416748047 127.71923828125 C 220.470458984375 130.72991943359375 227.6553497314453 133.2004852294922 226.46044921875 136.6585235595703 C 231.46044921875 143.4109344482422 226.7107391357422 150.61471557617188 226.4269561767578 154.06092834472656 C 225.99559020996094 154.42535400390625 222.63034057617188 159.80343627929688 218.6625213623047 162.19979858398438 C 225.33456420898438 157.9447021484375 229.9702911376953 162.8527069091797 237.23785400390625 157.9297332763672 C 245.95228576660156 156.4936065673828 240.2244415283203 153.92404174804688 245.34112548828125 150.69061279296875 C 243.88548278808594 143.2701873779297 242.49110412597656 137.4727783203125 236.82369995117188 132.8385467529297 C 231.24142456054688 127.16740417480469 214.84014892578125 127.07405090332031 223.22157287597656 125.20849609375 C 204.7378387451172 123.13719940185547 205.32777404785156 127.90922546386719 197.13897705078125 126.21990203857422 C 214.13172912597656 121.08790588378906 222.21490478515625 119.10221862792969 225.646728515625 118.19163513183594 C 231.63352966308594 116.69245910644531 240.7850341796875 115.56764221191406 246.13877868652344 114.29208374023438 C 245.160888671875 115.82617950439453 251.1339874267578 114.88907623291016 236.0653533935547 89.64106750488281" stroke-width="0.0" fill="rgb(251, 188, 103)" opacity="1.0" stroke="rgb(249, 18, 118)" stroke-opacity="0.9835308" stroke-linecap="round" stroke-linejoin="round"/>
    <path d="M 301.4609375 377.0934143066406 C 295.7646789550781 375.9946594238281 303.3672180175781 376.6288146972656 306.38555908203125 376.497314453125 C 305.9649963378906 378.5511169433594 314.40704345703125 376.422119140625 308.5555114746094 378.54766845703125 C 313.85595703125 378.0850830078125 315.8894348144531 380.080810546875 315.841796875 382.5356750488281 C 316.23895263671875 390.42236328125 315.1506652832031 395.8534240722656 313.9787902832031 402.7164306640625 C 312.77099609375 411.75 310.2869873046875 420.7239074707031 308.16204833984375 431.1170654296875 C 305.3185119628906 440.4473571777344 303.8741760253906 449.1070556640625 301.92779541015625 455.6250915527344 C 299.8880310058594 467.47418212890625 301.1256103515625 470.76593017578125 295.7572021484375 472.21075439453125 C 288.16632080078125 475.9297790527344 282.3833312988281 476.4751892089844 288.7063903808594 472.6212158203125 C 275.7120361328125 472.7208251953125 267.685302734375 472.7182922363281 257.8558349609375 472.61865234375 C 249.72940063476562 474.2142028808594 247.75900268554688 466.23907470703125 247.12110900878906 474.2958679199219 C 245.00790405273438 490.7615051269531 244.7024383544922 500.17242431640625 243.45822143554688 505.148193359375 C 253.79603576660156 506.6040954589844 260.5172119140625 512.9525146484375 275.15032958984375 509.8453369140625 C 281.4801025390625 510.4963684082031 282.0500183105469 503.8539733886719 296.4599914550781 505.72149658203125 C 303.6695861816406 508.4958801269531 307.72760009765625 511.54742431640625 303.4485778808594 517.738525390625 C 296.5705261230469 523.3455810546875 296.01593017578125 513.9049682617188 290.5430603027344 525.0344848632812 C 295.0771484375 529.54150390625 307.34490966796875 547.5388793945312 315.3167724609375 544.3668823242188 C 324.27978515625 553.2858276367188 336.6966552734375 550.341552734375 340.54248046875 562.3019409179688 C 345.9855041503906 555.4293212890625 342.947021484375 572.8587646484375 341.1070251464844 575.8655395507812 C 334.58026123046875 579.9144287109375 324.8365173339844 581.0093994140625 324.59814453125 580.687255859375 C 240.03219604492188 581.1552124023438 257.7717590332031 583.4880981445312 309.8714294433594 584.0897216796875 C 335.3929443359375 582.3465576171875 316.45770263671875 580.6403198242188 336.3727111816406 575.4086303710938 C 342.5486755371094 574.03662109375 336.6993103027344 561.0772094726562 342.987548828125 561.2972412109375 C 337.90777587890625 547.992431640625 325.66064453125 548.739013671875 317.8507995605469 541.9050903320312 C 300.8768615722656 538.1557006835938 301.67327880859375 527.1396484375 294.7015380859375 536.6202392578125 C 280.97613525390625 508.1650390625 268.2372741699219 532.0088500976562 260.4798889160156 522.9400634765625 C 243.76414489746094 536.5575561523438 247.19573974609375 526.1942749023438 241.88189697265625 518.7870483398438 C 238.7412109375 529.1716918945312 238.73353576660156 550.8076171875 238.36341857910156 541.74755859375 C 239.0816192626953 553.5022583007812 234.14649963378906 567.8259887695312 243.23973083496094 578.7005615234375 C 230.4629669189453 575.137451171875 234.6846160888672 556.0120239257812 234.275390625 546.2411499023438 C 234.95309448242188 535.099853515625 236.54383850097656 525.68017578125 236.27439880371094 513.2698364257812 C 239.0719757080078 506.8790588378906 242.75355529785156 500.09930419921875 242.5109100341797 490.4022216796875 C 243.84034729003906 485.0971374511719 243.1748809814453 476.0899353027344 242.17904663085938 469.32086181640625 C 232.73681640625 467.6405944824219 234.17108154296875 468.25408935546875 231.99708557128906 452.5834045410156 C 233.56771850585938 457.44573974609375 227.12083435058594 452.61279296875 227.71217346191406 455.7514343261719 C 227.92083740234375 460.8255920410156 225.37632751464844 476.56353759765625 227.46066284179688 472.4081726074219 C 214.10464477539062 476.58380126953125 209.5133819580078 479.2302551269531 203.13882446289062 476.025390625 C 190.27987670898438 475.09576416015625 179.30636596679688 475.3667297363281 169.0663604736328 472.1673889160156 C 173.36195373535156 479.6661071777344 173.6266326904297 487.1683349609375 171.6266326904297 490.44378662109375 C 168.78924560546875 505.41455078125 167.156982421875 508.653564453125 173.88844299316406 508.1844482421875 C 185.4107666015625 512.9974975585938 196.52560424804688 513.2007446289062 208.90399169921875 509.15032958984375 C 204.64239501953125 507.5312194824219 214.47032165527344 507.1069030761719 218.63687133789062 511.4304504394531 C 220.9273223876953 511.73870849609375 221.61227416992188 522.8056030273438 219.0054473876953 521.144775390625 C 210.70779418945312 528.3552856445312 200.5444793701172 519.1115112304688 196.11953735351562 528.6956176757812 C 185.55841064453125 525.5344848632812 171.53640747070312 534.5784301757812 164.0457763671875 524.423095703125 C 160.7783203125 534.3330688476562 166.57591247558594 526.5759887695312 151.90753173828125 519.7240600585938 C 150.7384490966797 512.6583862304688 156.13583374023438 507.1143798828125 165.39317321777344 505.3642272949219 C 164.5020751953125 499.6300964355469 168.7802734375 483.2243957519531 164.72532653808594 473.0624694824219 C 161.0738983154297 472.3092041015625 157.33917236328125 470.8401794433594 157.90252685546875 461.6422119140625 C 156.18655395507812 449.52618408203125 155.9197540283203 435.86224365234375 154.1839141845703 426.2720947265625 C 152.71286010742188 405.5666198730469 151.69296264648438 398.1386413574219 154.1900634765625 393.541259765625 C 154.59898376464844 388.6122741699219 152.5155487060547 380.3307189941406 165.3605499267578 381.6322326660156 C 164.04751586914062 378.18707275390625 184.56434631347656 378.37451171875 193.28843688964844 381.6036071777344 C 200.7447509765625 381.04730224609375 212.5204315185547 384.1482849121094 219.3037567138672 385.6886291503906 C 229.27989196777344 385.4905090332031 238.0716094970703 386.73199462890625 246.1352996826172 386.85711669921875 C 250.86981201171875 386.7013244628906 254.0806884765625 386.4261474609375 256.5833740234375 386.33441162109375 C 256.71710205078125 385.4414978027344 256.4757080078125 382.8143310546875 255.12921142578125 382.2106628417969 C 254.48477172851562 381.14154052734375 253.15272521972656 381.9491882324219 249.8871612548828 381.8726501464844 C 252.17892456054688 384.0240173339844 254.7824249267578 379.93048095703125 256.34747314453125 385.14398193359375 C 257.03619384765625 386.21575927734375 263.2168884277344 385.16363525390625 266.36114501953125 385.4918518066406 C 268.42962646484375 384.75982666015625 278.90435791015625 383.82037353515625 301.4609375 377.0934143066406" stroke-width="0.0" fill="rgb(234, 82, 10)" opacity="0.9989169" stroke="rgb(229, 34, 200)" stroke-opacity="0.44484466" stroke-linecap="round" stroke-linejoin="round"/>
    <path d="M 183.1481170654297 240.70376586914062 C 184.33642578125 237.15235900878906 193.0959930419922 240.33761596679688 187.57997131347656 237.6396484375 C 197.481689453125 241.67999267578125 204.4315948486328 242.76588439941406 202.71055603027344 247.10748291015625 C 200.72439575195312 244.66136169433594 202.69158935546875 245.92098999023438 203.75619506835938 244.58221435546875 C 199.5958709716797 250.0626220703125 200.0948944091797 256.79522705078125 198.14068603515625 256.2558288574219 C 199.24267578125 259.4465026855469 196.79090881347656 262.7196350097656 194.7927703857422 268.72662353515625 C 194.21812438964844 271.4220275878906 194.72653198242188 278.2781677246094 193.95741271972656 280.1602478027344 C 194.8529052734375 288.3282775878906 190.89028930664062 286.2041931152344 191.973388671875 293.9127502441406 C 187.4933624267578 299.2560729980469 186.14157104492188 302.535888671875 180.55140686035156 301.3212890625 C 177.5494842529297 302.7013854980469 175.18972778320312 308.409912109375 175.6156463623047 309.91839599609375 C 172.7470245361328 314.5545349121094 171.65499877929688 318.6286926269531 169.99990844726562 322.313720703125 C 168.80104064941406 325.4365539550781 168.27908325195312 330.6769714355469 164.67745971679688 334.1496887207031 C 164.6996612548828 335.896484375 162.6494903564453 342.3190612792969 160.2445068359375 346.64166259765625 C 161.0996551513672 349.4710388183594 157.6560821533203 353.8749694824219 158.3899383544922 357.7855224609375 C 151.48123168945312 362.71844482421875 156.3195037841797 363.8294677734375 153.5668182373047 371.43499755859375 C 157.15164184570312 376.4456787109375 153.83084106445312 383.5555114746094 157.3229522705078 386.9690856933594 C 154.52056884765625 388.5572814941406 156.3315887451172 395.8328552246094 153.70388793945312 399.2934265136719 C 153.58741760253906 404.13720703125 154.1815948486328 407.20343017578125 155.3681182861328 409.7275390625 C 156.16578674316406 410.94476318359375 155.76072692871094 410.9425048828125 155.315673828125 410.04571533203125 C 155.80563354492188 410.3654479980469 155.7170867919922 409.5471496582031 154.54148864746094 407.27783203125 C 153.93939208984375 402.145751953125 153.90740966796875 397.1959533691406 155.5243377685547 399.1384582519531 C 153.14141845703125 397.4478759765625 147.6536407470703 398.8811340332031 144.42623901367188 396.7149963378906 C 141.23526000976562 398.6380615234375 133.67044067382812 396.9595031738281 129.63824462890625 393.4951477050781 C 124.16707611083984 390.890625 121.95475769042969 390.150634765625 117.17678833007812 381.4961853027344 C 115.18905639648438 375.3069152832031 113.3995361328125 367.8269348144531 114.5109634399414 362.0436096191406 C 112.2706069946289 359.0921325683594 114.11407470703125 343.1930847167969 114.09969329833984 347.999755859375 C 114.65608215332031 338.2574462890625 113.1707763671875 339.6546630859375 103.52088165283203 344.4844665527344 C 110.30560302734375 344.84686279296875 110.45389556884766 346.44085693359375 95.79743194580078 352.5670166015625 C 90.28421783447266 353.6841125488281 81.2651596069336 348.9120178222656 82.62439727783203 359.2313537597656 C 72.41504669189453 368.5290832519531 70.23339080810547 380.273193359375 63.23923873901367 379.0671081542969 C 58.20615005493164 374.8381652832031 60.711402893066406 385.97918701171875 59.204524993896484 395.480712890625 C 58.604984283447266 388.9205627441406 60.18623733520508 404.6977844238281 51.81128692626953 405.8095397949219 C 41.211368560791016 400.4650573730469 46.869503021240234 395.5943908691406 48.84726333618164 392.8720397949219 C 46.01972579956055 390.8263854980469 41.21831130981445 388.75518798828125 44.74648666381836 386.5885314941406 C 38.98244857788086 388.3905334472656 38.98775863647461 396.45599365234375 33.9394645690918 399.0390930175781 C 33.83787155151367 402.7292175292969 22.77837562561035 402.9408874511719 23.997594833374023 398.256591796875 C 22.523740768432617 401.4306945800781 21.509906768798828 396.9200134277344 22.486112594604492 382.5561218261719 C 21.726593017578125 387.9470520019531 20.44338035583496 384.087158203125 18.908109664916992 379.5552673339844 C 15.707682609558105 375.0072021484375 15.236981391906738 370.5159606933594 17.749099731445312 365.76141357421875 C 17.909242630004883 361.1905517578125 17.602161407470703 356.3001708984375 18.096698760986328 353.2809143066406 C 11.720090866088867 348.9354553222656 16.69468116760254 347.5590515136719 21.766071319580078 341.2021179199219 C 18.705324172973633 331.9315185546875 11.949430465698242 323.9049987792969 21.155689239501953 320.53509521484375 C 19.145030975341797 326.943115234375 21.333925247192383 327.2982177734375 25.16115951538086 328.39752197265625 C 29.63224220275879 329.0760803222656 35.58718490600586 330.5439758300781 40.76517105102539 329.9447021484375 C 48.092987060546875 330.93792724609375 50.99976348876953 328.4145812988281 51.26317596435547 322.4351806640625 C 59.66986083984375 320.291259765625 65.9784927368164 316.90350341796875 72.21513366699219 315.0368347167969 C 76.81239318847656 311.0403137207031 80.64944458007812 306.51861572265625 84.42168426513672 302.9886474609375 C 87.87669372558594 299.2031555175781 91.1386947631836 296.2811279296875 94.18475341796875 294.4166564941406 C 96.98198699951172 293.2293701171875 99.79190826416016 292.6175842285156 102.21917724609375 293.01318359375 C 104.38542175292969 294.56903076171875 106.7989273071289 296.9150085449219 109.0892333984375 299.9909973144531 C 110.98322296142578 303.8216247558594 112.90658569335938 308.14373779296875 115.3396987915039 312.5111999511719 C 117.53449249267578 317.0411071777344 119.27522277832031 321.6165771484375 121.41637420654297 326.05950927734375 C 122.75279235839844 330.3549499511719 124.00564575195312 333.6485290527344 130.3511199951172 332.2144470214844 C 136.30406188964844 332.86212158203125 136.0240936279297 330.9706726074219 140.39064025878906 328.5906982421875 C 144.03497314453125 323.2229309082031 149.89706420898438 324.8904724121094 152.28016662597656 319.5614929199219 C 151.5194549560547 316.5627746582031 154.85565185546875 310.8832092285156 155.9386749267578 304.1932067871094 C 156.97393798828125 300.2117614746094 160.9829559326172 294.8030700683594 157.0845489501953 292.2290954589844 C 153.797119140625 288.649658203125 155.5479736328125 281.3695068359375 155.5653076171875 280.3985290527344 C 159.0563507080078 271.05804443359375 162.3779754638672 264.6108703613281 166.55621337890625 259.30377197265625 C 168.7758331298828 255.27113342285156 172.80555725097656 250.1319580078125 178.0582733154297 244.7484893798828 C 184.00877380371094 240.30555725097656 179.74122619628906 238.73570251464844 183.1481170654297 240.70376586914062" stroke-width="0.0" fill="rgb(157, 135, 186)" opacity="0.99999356" stroke="rgb(107, 159, 52)" stroke-opacity="0.43928063" stroke-linecap="round" stroke-linejoin="round"/>
    <path d="M 91.4510726928711 289.7751770019531 C 97.43694305419922 285.9339904785156 100.00553131103516 285.6390380859375 100.49327850341797 287.1471862792969 C 101.33350372314453 285.79718017578125 102.06241607666016 291.260009765625 100.73136901855469 286.9586486816406 C 102.18984985351562 288.3088684082031 107.3984603881836 292.11993408203125 108.45777893066406 295.0396728515625 C 105.20012664794922 289.45233154296875 108.20531463623047 292.76824951171875 106.11197662353516 291.5149230957031 C 108.67130279541016 295.0263366699219 113.75348663330078 299.02264404296875 114.43321228027344 301.1361389160156 C 110.64440155029297 296.4344787597656 112.95052337646484 295.1907043457031 108.87114715576172 291.9652404785156 C 113.63037872314453 299.7142333984375 118.44866180419922 305.499755859375 115.79712677001953 303.3990783691406 C 112.11886596679688 301.2216491699219 117.5011215209961 302.17547607421875 118.39310455322266 308.5907287597656 C 117.82964324951172 307.923583984375 118.0486068725586 309.8686828613281 119.6026611328125 306.2386779785156 C 118.41983032226562 306.010986328125 120.4963150024414 311.0185546875 118.53584289550781 303.662841796875 C 119.249755859375 310.1224365234375 120.91682434082031 311.317138671875 121.96248626708984 316.0839538574219 C 121.09363555908203 308.0080871582031 121.51525115966797 313.5704040527344 123.31299591064453 318.3248291015625 C 123.48477172851562 314.87841796875 124.17088317871094 317.18536376953125 123.39273071289062 314.9725341796875 C 123.82099151611328 317.5644226074219 123.32772827148438 322.77984619140625 125.87550354003906 317.95074462890625 C 124.21751403808594 320.6230773925781 124.54627990722656 325.7747497558594 126.15242004394531 331.9112548828125 C 122.97478485107422 325.45904541015625 127.46902465820312 326.2940673828125 126.0971450805664 330.8149108886719 C 126.00537109375 324.2533264160156 126.61891174316406 329.61224365234375 126.51339721679688 333.4963684082031 C 126.78797149658203 326.3616943359375 126.17437744140625 330.7259521484375 124.02304077148438 329.79913330078125 C 126.94853210449219 329.8154602050781 125.16215515136719 335.02960205078125 125.70069885253906 330.94757080078125 C 126.38923645019531 332.625244140625 118.76290130615234 336.0638122558594 116.78540802001953 338.216064453125 C 120.35620880126953 336.7981262207031 117.84368133544922 339.20654296875 118.25747680664062 337.84954833984375 C 114.0951156616211 339.39947509765625 109.90850067138672 342.87103271484375 108.97309875488281 342.15850830078125 C 106.4707260131836 344.3463439941406 99.79021453857422 346.7584228515625 94.47917938232422 350.318115234375 C 90.75753021240234 350.0831298828125 89.33343505859375 353.3665466308594 79.02433776855469 352.33740234375 C 90.89281463623047 357.31036376953125 88.23370361328125 360.0959777832031 88.38715362548828 354.8074951171875 C 91.78776550292969 361.9643249511719 90.58909606933594 364.2507629394531 82.15357208251953 365.5324401855469 C 78.94507598876953 363.08209228515625 78.37459564208984 369.89105224609375 80.84587097167969 352.32830810546875 C 75.06275939941406 359.44171142578125 74.88391876220703 366.23931884765625 69.60689544677734 371.212158203125 C 68.70001983642578 373.6539611816406 63.47465133666992 377.69842529296875 60.8765754699707 379.75799560546875 C 56.47933578491211 380.5540466308594 56.173770904541016 384.7715759277344 56.41026306152344 389.9765930175781 C 55.30721664428711 395.5779724121094 58.92984390258789 403.5155334472656 48.84709930419922 400.38470458984375 C 52.579349517822266 407.5522766113281 43.656211853027344 403.0899963378906 55.854862213134766 401.44537353515625 C 48.654396057128906 400.9954833984375 44.10557556152344 400.57379150390625 55.69971466064453 403.9028015136719 C 43.94952392578125 400.9819641113281 48.498512268066406 384.0943603515625 45.76042938232422 400.1694030761719 C 44.21971130371094 394.5229187011719 41.574188232421875 379.4666442871094 45.12344741821289 393.6336975097656 C 47.979427337646484 376.5888671875 40.22703552246094 382.1427001953125 39.132118225097656 386.2488098144531 C 35.5692138671875 390.6611328125 34.072139739990234 396.1712341308594 28.28017807006836 398.40167236328125 C 18.414445877075195 393.54949951171875 32.45890808105469 382.4660339355469 23.87662696838379 382.3426513671875 C 23.881250381469727 397.5229187011719 8.263859748840332 393.8170166015625 9.446945190429688 386.8919677734375 C 13.212799072265625 385.3000793457031 15.342517852783203 390.33526611328125 11.787322044372559 386.70654296875 C 7.078644275665283 390.5555419921875 9.648212432861328 378.6770324707031 19.741025924682617 368.9105529785156 C 23.400070190429688 373.214111328125 12.913629531860352 374.23406982421875 7.523679256439209 377.6864929199219 C 9.426614761352539 380.0155334472656 -5.2833943367004395 376.80084228515625 2.589890956878662 374.3487854003906 C -2.5963990688323975 379.4294128417969 -0.3633383512496948 376.6981506347656 -0.9459283947944641 372.8898010253906 C -0.08419409394264221 370.5348205566406 3.6793456077575684 363.9291076660156 7.263098239898682 358.58892822265625 C 9.232219696044922 357.2351379394531 14.127665519714355 348.2177429199219 15.103792190551758 349.77410888671875 C 20.341859817504883 353.9180603027344 19.066158294677734 341.057861328125 28.037954330444336 344.6617736816406 C 22.135822296142578 335.0130310058594 19.606698989868164 331.6706237792969 20.307191848754883 327.9435729980469 C 17.668594360351562 333.4115295410156 24.35376739501953 313.5212707519531 20.43173599243164 323.4888916015625 C 19.06034278869629 318.35662841796875 28.23902130126953 318.9125671386719 27.198030471801758 321.90252685546875 C 26.25311851501465 321.27374267578125 33.48765182495117 324.68280029296875 34.806575775146484 328.0296630859375 C 40.87932205200195 328.15838623046875 29.95844268798828 332.5877380371094 42.016273498535156 333.0111389160156 C 61.123329162597656 333.2786865234375 57.69352722167969 334.8567199707031 46.77629470825195 328.11956787109375 C 43.193931579589844 324.01593017578125 52.2298698425293 318.7850036621094 50.26418685913086 320.2688293457031 C 55.068180084228516 320.84417724609375 58.9875373840332 318.3791198730469 57.23497009277344 325.3492431640625 C 60.047142028808594 324.0971374511719 61.46123123168945 320.27655029296875 64.75822448730469 316.7273864746094 C 67.62522888183594 314.4106750488281 70.30850219726562 310.7707214355469 73.11091613769531 307.8094177246094 C 76.84513854980469 304.091064453125 81.01712799072266 301.2769775390625 82.15403747558594 298.7695617675781 C 85.91886138916016 296.66552734375 89.50846099853516 292.4924621582031 93.3155517578125 290.22216796875 C 97.23442840576172 286.8863830566406 99.13151550292969 284.6453857421875 91.4510726928711 289.7751770019531" stroke-width="0.0" fill="rgb(248, 189, 111)" opacity="1.0" stroke="rgb(23, 122, 97)" stroke-opacity="0.88492876" stroke-linecap="round" stroke-linejoin="round"/>
    <path d="M 385.2808837890625 279.5296630859375 C 384.843017578125 279.55426025390625 386.0793762207031 280.1090393066406 386.30487060546875 280.4569091796875 C 384.11944580078125 280.2143859863281 383.4368896484375 280.4459533691406 383.3526916503906 279.5309143066406 C 384.1618957519531 280.06475830078125 385.3648986816406 280.3067626953125 386.9295959472656 280.4388427734375 C 388.28546142578125 281.39849853515625 390.01263427734375 282.4028015136719 392.1288757324219 283.3103942871094 C 393.6350402832031 285.2425842285156 397.2600402832031 286.0339050292969 400.797607421875 289.8871765136719 C 404.65997314453125 291.27630615234375 400.9508972167969 292.77191162109375 399.0542907714844 292.50616455078125 C 396.0481262207031 295.4981994628906 394.0872497558594 298.07293701171875 390.86529541015625 300.0779113769531 C 391.03717041015625 300.4281921386719 388.1648254394531 301.2264404296875 390.35198974609375 300.51068115234375 C 388.1770324707031 301.2265319824219 387.8298034667969 301.98321533203125 388.89910888671875 300.3761901855469 C 387.9580078125 301.7784423828125 389.3962097167969 301.407470703125 387.698974609375 301.11773681640625 C 388.830810546875 301.5165710449219 391.7572326660156 299.99169921875 388.9869079589844 300.7160949707031 C 391.8521423339844 300.4752197265625 394.0857238769531 297.1322021484375 397.2529296875 294.4561767578125 C 398.70684814453125 294.0144348144531 400.02423095703125 288.02630615234375 406.4498596191406 294.33111572265625 C 407.1152038574219 297.1131896972656 405.3536376953125 297.2599182128906 407.5106201171875 297.5458068847656 C 402.7884826660156 300.0849914550781 403.2701110839844 300.0521240234375 404.4351806640625 297.9225158691406 C 404.1189270019531 300.1814270019531 405.1216125488281 299.398681640625 408.368896484375 295.59423828125 C 411.01275634765625 302.6755065917969 415.8855285644531 294.219970703125 451.168701171875 284.7069091796875 C 443.5107727050781 315.3543395996094 440.2916259765625 315.5100402832031 410.60626220703125 317.05279541015625 C 419.6508483886719 320.6039123535156 433.0272216796875 321.6324768066406 434.3390197753906 345.6781005859375 C 409.2562255859375 338.1339416503906 409.0864562988281 333.6735534667969 404.9877014160156 330.7400207519531 C 400.8489685058594 324.47271728515625 399.3087158203125 326.91595458984375 396.7631530761719 326.6733703613281 C 392.63037109375 326.27740478515625 389.486572265625 326.16552734375 388.1737060546875 325.53900146484375 C 387.77178955078125 326.0694274902344 386.3014831542969 325.0157775878906 384.4833068847656 325.622314453125 C 384.6764221191406 324.86920166015625 383.6955261230469 324.2242126464844 383.0899353027344 325.4845886230469 C 383.008544921875 324.57330322265625 381.7002258300781 324.6277160644531 382.2871398925781 325.6984558105469 C 381.86224365234375 323.935791015625 379.2963562011719 324.2950744628906 380.4377746582031 324.31011962890625 C 378.6175842285156 324.88128662109375 375.9739990234375 324.51715087890625 374.71209716796875 323.33013916015625 C 375.0521545410156 323.814697265625 373.764892578125 323.33331298828125 372.2397766113281 323.2015686035156 C 370.8375549316406 323.4590148925781 369.3923034667969 321.9810485839844 368.22515869140625 322.54571533203125 C 367.2881164550781 322.2709655761719 366.026611328125 321.2079772949219 359.5245361328125 320.9939270019531 C 362.9584045410156 320.0583190917969 363.5221252441406 319.584716796875 357.2013244628906 319.78643798828125 C 359.6412353515625 315.2535095214844 360.5556335449219 315.6936950683594 358.0043029785156 318.8262023925781 C 355.05242919921875 319.00030517578125 344.1559143066406 317.0658264160156 353.6283874511719 311.3130187988281 C 352.51251220703125 305.74334716796875 360.068603515625 305.89959716796875 359.2081604003906 307.4971008300781 C 354.9640197753906 307.490234375 353.55523681640625 305.6343994140625 356.93902587890625 302.24407958984375 C 360.6618347167969 302.57147216796875 359.8260803222656 302.2784729003906 361.9601135253906 302.0661926269531 C 362.1382141113281 301.884521484375 361.0733947753906 301.7787780761719 358.1507263183594 301.4429931640625 C 356.5555725097656 300.0740661621094 358.2606506347656 298.9937744140625 358.5021667480469 299.0654296875 C 358.3558044433594 296.32879638671875 358.35772705078125 293.88946533203125 357.08990478515625 295.98468017578125 C 359.267578125 290.7071838378906 362.8372497558594 287.67755126953125 359.441650390625 292.1734924316406 C 360.9833068847656 290.35760498046875 364.4383544921875 278.5121154785156 364.7297058105469 274.0191650390625 C 366.5866394042969 272.06768798828125 365.67999267578125 269.4987487792969 385.2808837890625 279.5296630859375" stroke-width="0.0" fill="rgb(252, 189, 101)" opacity="0.99950975" stroke="rgb(212, 121, 5)" stroke-opacity="0.9909295" stroke-linecap="round" stroke-linejoin="round"/>
    <path d="M 320.9800109863281 371.1706237792969 C 321.876953125 372.1431884765625 322.6407165527344 373.20831298828125 323.1654052734375 374.4099426269531 C 323.6226806640625 375.54791259765625 323.6720886230469 376.539794921875 323.3161315917969 377.344482421875 C 322.814208984375 378.32867431640625 321.8045654296875 378.9776611328125 320.3085021972656 379.26177978515625 C 318.58270263671875 379.8712463378906 316.5943908691406 379.8654479980469 314.2561340332031 379.8538513183594 C 312.9787902832031 379.10052490234375 313.30291748046875 380.0486145019531 313.52935791015625 381.4930725097656 C 314.0196533203125 385.54437255859375 314.1122131347656 390.1846923828125 313.999267578125 394.8045349121094 C 313.62896728515625 399.7819519042969 312.9349060058594 406.4722900390625 311.081298828125 413.5398864746094 C 309.0781555175781 421.5837707519531 306.67108154296875 429.901123046875 305.6396179199219 438.9432067871094 C 302.966552734375 447.7770080566406 300.3211975097656 456.4114074707031 293.9230041503906 464.39300537109375 C 285.92864990234375 472.0911865234375 287.4457702636719 475.4344177246094 283.2388000488281 509.4095764160156 C 300.38446044921875 504.9456481933594 305.64935302734375 508.7011413574219 276.76483154296875 532.77587890625 C 266.234619140625 528.6007690429688 267.1547546386719 541.27294921875 267.8067321777344 556.0652465820312 C 268.9957580566406 566.3076782226562 273.1054382324219 574.454345703125 280.0432434082031 577.634521484375 C 290.03369140625 577.927978515625 299.33563232421875 575.3533935546875 308.08673095703125 572.6289672851562 C 312.92535400390625 569.5180053710938 314.3044128417969 567.665771484375 314.43218994140625 567.9315185546875 C 312.554443359375 569.5977172851562 309.0292053222656 571.99755859375 305.2666320800781 575.5270385742188 C 299.4300231933594 579.3626098632812 293.19549560546875 578.2666015625 286.774658203125 578.6450805664062 C 283.36895751953125 578.1749877929688 280.8336181640625 570.233642578125 274.30914306640625 574.9357299804688 C 270.99169921875 569.3307495117188 268.80859375 564.1838989257812 267.74188232421875 555.0886840820312 C 267.2354736328125 545.7606201171875 266.7711486816406 535.2342529296875 270.293212890625 532.70849609375 C 261.3804016113281 532.5042114257812 238.73374938964844 534.0296020507812 239.30255126953125 523.1746215820312 C 250.9221954345703 505.3317565917969 244.73855590820312 502.43365478515625 244.76271057128906 498.6778869628906 C 247.06077575683594 483.6388244628906 246.54188537597656 474.9986877441406 247.05580139160156 469.49713134765625 C 239.53274536132812 466.71051025390625 236.74929809570312 463.392822265625 230.27268981933594 465.58453369140625 C 220.7050323486328 467.52252197265625 207.60011291503906 472.53076171875 208.868408203125 498.6497802734375 C 207.9237060546875 518.132080078125 221.97677612304688 533.0538330078125 185.73146057128906 536.8074951171875 C 173.5948028564453 527.2445068359375 175.99765014648438 543.7674560546875 175.5808563232422 560.53759765625 C 175.82150268554688 572.791259765625 174.1437225341797 580.0650634765625 180.2549285888672 582.05517578125 C 186.45846557617188 590.54150390625 197.6692352294922 585.289306640625 206.62547302246094 578.7455444335938 C 215.95779418945312 568.3442993164062 220.39659118652344 566.0537719726562 216.44944763183594 582.7125854492188 C 212.98178100585938 588.5320434570312 195.11428833007812 586.1032104492188 186.39772033691406 586.34765625 C 179.50706481933594 582.07373046875 169.2258758544922 586.7750854492188 161.4110565185547 585.2543334960938 C 161.51341247558594 590.0728149414062 161.3103790283203 591.5750732421875 161.87586975097656 590.20166015625 C 165.0591278076172 591.4359130859375 171.0121612548828 588.865966796875 175.24644470214844 582.4491577148438 C 175.77056884765625 572.4207763671875 175.37728881835938 560.1173706054688 175.84207153320312 543.7890625 C 178.20645141601562 530.4149169921875 172.82608032226562 535.6038208007812 154.064453125 513.553955078125 C 173.8197021484375 505.2133483886719 167.506103515625 503.54644775390625 169.64503479003906 485.92535400390625 C 169.79959106445312 478.57666015625 168.9590301513672 473.0757141113281 169.4307403564453 472.5094909667969 C 166.013671875 471.20623779296875 165.95486450195312 469.0386657714844 165.75595092773438 469.1968994140625 C 166.96673583984375 472.1651916503906 169.87245178222656 472.9129333496094 174.48150634765625 474.11480712890625 C 181.8280029296875 475.1316223144531 190.64413452148438 474.8058166503906 194.29710388183594 475.34857177734375 C 205.280029296875 474.4190673828125 214.6475372314453 476.7772216796875 214.1492919921875 474.3505554199219 C 220.2838897705078 466.9736633300781 227.60780334472656 465.8912658691406 234.1245880126953 464.8327941894531 C 240.0011749267578 465.1327209472656 245.56906127929688 469.86895751953125 252.64840698242188 470.8923645019531 C 259.0843505859375 472.7461242675781 269.8331298828125 471.5810241699219 276.2310485839844 472.85748291015625 C 284.6022644042969 471.5549621582031 288.07843017578125 475.2293395996094 290.68701171875 468.0390319824219 C 298.7288513183594 461.2839660644531 302.4901123046875 450.5636291503906 305.67364501953125 438.9887390136719 C 307.11358642578125 424.9195556640625 311.9881286621094 414.58709716796875 313.35455322265625 401.29852294921875 C 314.19622802734375 394.6679992675781 314.23870849609375 386.0558776855469 313.2210998535156 379.4688720703125 C 308.6394348144531 380.2189636230469 299.7968444824219 377.3320617675781 294.87005615234375 379.52117919921875 C 286.17724609375 382.13262939453125 275.1818542480469 384.73681640625 263.2059326171875 386.2606201171875 C 250.83041381835938 387.6188659667969 243.43116760253906 387.6905517578125 230.794189453125 387.45123291015625 C 220.20907592773438 386.38671875 211.2235870361328 384.88629150390625 202.7987823486328 383.66412353515625 C 198.75929260253906 383.2494201660156 194.8599090576172 381.84906005859375 183.0877227783203 379.5238342285156 C 192.84054565429688 377.3774108886719 198.4444580078125 379.8077697753906 202.78421020507812 377.31585693359375 C 210.82098388671875 378.229248046875 209.16571044921875 375.82769775390625 225.41238403320312 376.4699401855469 C 232.77725219726562 375.88275146484375 239.8397979736328 375.5048522949219 254.38409423828125 375.7101745605469 C 258.607177734375 374.7218017578125 264.03228759765625 376.5921936035156 270.09307861328125 376.2224426269531 C 289.48858642578125 378.1304931640625 300.77001953125 378.4139709472656 307.80438232421875 378.7530212402344 C 318.0712585449219 381.13360595703125 328.5354309082031 379.9178771972656 320.9800109863281 371.1706237792969" stroke-width="0.0" fill="rgb(243, 197, 96)" opacity="0.99960047" stroke="rgb(131, 54, 218)" stroke-opacity="0.6647498" stroke-linecap="round" stroke-linejoin="round"/>
    <path d="M 102.65782928466797 206.40274047851562 C 103.6080322265625 206.79391479492188 104.56292724609375 207.18099975585938 105.53416442871094 207.49102783203125 C 106.53306579589844 207.68910217285156 107.56766510009766 207.7912139892578 108.6292724609375 207.82167053222656 C 109.6998062133789 207.78822326660156 110.77827453613281 207.6991729736328 111.8592758178711 207.58888244628906 C 112.94048309326172 207.4871826171875 114.01271057128906 207.39944458007812 115.06287384033203 207.3660430908203 C 116.07942962646484 207.41127014160156 117.05096435546875 207.53421020507812 117.97125244140625 207.74461364746094 C 118.83200073242188 208.0551300048828 119.64585876464844 208.44041442871094 120.41072845458984 208.91436767578125 C 121.1435546875 209.46107482910156 121.87010955810547 210.04385375976562 122.62674713134766 210.62498474121094 C 123.41929626464844 211.21595764160156 124.25084686279297 211.81398010253906 125.09603881835938 212.4550018310547 C 125.92938232421875 213.15191650390625 126.71714782714844 213.8970947265625 127.4319839477539 214.68211364746094 C 128.0226593017578 215.53140258789062 128.4824981689453 216.41542053222656 128.79290771484375 217.35084533691406 C 128.95640563964844 218.311279296875 128.97357177734375 219.2786407470703 128.83731079101562 220.23550415039062 C 128.53060913085938 221.15762329101562 128.04991149902344 222.01239013671875 127.40135955810547 222.77882385253906 C 126.60659790039062 223.43133544921875 125.68891143798828 223.9525604248047 124.6728744506836 224.33717346191406 C 123.58432006835938 224.5641326904297 122.4599380493164 224.67982482910156 121.32726287841797 224.72193908691406 C 120.20313262939453 224.72459411621094 119.09624481201172 224.7100067138672 118.01323699951172 224.6894989013672 C 116.95923614501953 224.6793975830078 115.93487548828125 224.6916046142578 114.9362564086914 224.73011779785156 C 113.95381164550781 224.7959442138672 112.97611999511719 224.88800048828125 111.99650573730469 225.00039672851562 C 111.01006317138672 225.1300048828125 110.00872039794922 225.27407836914062 108.98531341552734 225.4258270263672 C 107.93583679199219 225.57069396972656 106.85962677001953 225.6941680908203 105.76002502441406 225.77841186523438 C 104.63597869873047 225.8061065673828 103.50078582763672 225.76402282714844 102.3768310546875 225.62953186035156 C 101.27799987792969 225.3896484375 100.21388244628906 225.0434112548828 99.20691680908203 224.58203125 C 98.28668212890625 223.998046875 97.47624969482422 223.2891387939453 96.79212188720703 222.45993041992188 C 96.24129486083984 221.52264404296875 95.823486328125 220.4971923828125 95.52772521972656 219.40835571289062 C 95.32356262207031 218.2804412841797 95.18746185302734 217.14190673828125 95.11358642578125 216.00723266601562 C 95.1011962890625 214.89768981933594 95.12396240234375 213.83778381347656 95.1667709350586 212.84461975097656 C 95.22808837890625 211.91903686523438 95.29820251464844 211.04061889648438 95.36097717285156 210.1739044189453 C 95.40765380859375 209.29092407226562 95.43531799316406 208.3855743408203 95.46229553222656 207.4572296142578 C 95.46620178222656 206.5205078125 95.47738647460938 205.58474731445312 102.65782928466797 206.40274047851562" stroke-width="0.0" fill="rgb(0, 0, 0)" opacity="1.0" stroke="rgb(223, 5, 216)" stroke-opacity="0.3006155" stroke-linecap="round" stroke-linejoin="round"/>
    <path d="M 436.89715576171875 312.0722961425781 C 436.9632568359375 313.98419189453125 437.12762451171875 315.8923034667969 437.3864440917969 317.7872314453125 C 437.59130859375 319.6842041015625 437.73272705078125 321.56402587890625 437.835693359375 323.40997314453125 C 437.8641662597656 325.1903991699219 437.8187561035156 326.8819274902344 437.6282653808594 328.4590759277344 C 437.13287353515625 329.8890686035156 436.517578125 331.2015075683594 435.8661804199219 332.3988037109375 C 435.255859375 333.4738464355469 434.695068359375 334.4139404296875 434.1324462890625 335.2242126464844 C 433.496337890625 335.9006652832031 432.8227233886719 336.4547424316406 432.1055908203125 336.8865661621094 C 431.313232421875 337.2200927734375 430.4303894042969 337.4778747558594 429.4748229980469 337.6944580078125 C 428.4833679199219 337.8721618652344 427.4901428222656 337.9980773925781 426.478271484375 338.0606994628906 C 425.419921875 338.0534973144531 424.33203125 337.9747314453125 423.2466125488281 337.8196105957031 C 422.1861572265625 337.5772705078125 421.1575012207031 337.23785400390625 420.17193603515625 336.8015441894531 C 419.2474060058594 336.2735595703125 418.4213562011719 335.662841796875 417.7280578613281 334.9795227050781 C 417.1728820800781 334.23284912109375 416.7638244628906 333.43255615234375 416.5144348144531 332.5939636230469 C 416.4352111816406 331.7385559082031 416.5264892578125 330.88909912109375 416.77398681640625 330.0660095214844 C 417.15606689453125 329.27642822265625 417.6482849121094 328.5155944824219 418.21478271484375 327.7898254394531 C 418.81866455078125 327.103759765625 419.4283447265625 326.4443054199219 420.0119934082031 325.79278564453125 C 420.5386962890625 325.1305847167969 420.9794006347656 324.4348449707031 421.309814453125 323.6852722167969 C 421.5290832519531 322.8865661621094 421.6621398925781 322.04364013671875 421.7373352050781 321.15985107421875 C 421.7951354980469 320.2535705566406 421.8510437011719 319.3426208496094 436.89715576171875 312.0722961425781" stroke-width="0.0" fill="rgb(252, 188, 105)" opacity="1.0" stroke="rgb(163, 207, 97)" stroke-opacity="0.21390456" stroke-linecap="round" stroke-linejoin="round"/>
    <path d="M 308.0 117.0 C 308.0 118.0 308.0 119.0 308.0 120.0 C 309.0 121.0 310.0 122.0 311.0 122.0 C 312.0 122.0 313.0 122.0 314.0 122.0 C 315.0 122.0 316.0 122.0 316.0 123.0 C 316.0 124.0 315.0 125.0 315.0 126.0 C 314.0 127.0 313.0 127.0 312.0 128.0 C 311.0 128.0 310.0 128.0 309.0 128.0 C 308.0 128.0 307.0 128.0 306.0 128.0 C 305.0 127.0 304.0 126.0 303.0 125.0 C 303.0 124.0 303.0 123.0 303.0 122.0 C 303.0 121.0 304.0 120.0 304.0 119.0 C 305.0 118.0 306.0 117.0 308.0 117.0" stroke-width="0.0" fill="rgb(10, 0, 4)" opacity="1.0" stroke="rgb(140, 133, 171)" stroke-opacity="0.89648443" stroke-linecap="round" stroke-linejoin="round"/>
    <path d="M 291.0 276.0 C 292.0 276.0 293.0 276.0 294.0 276.0 C 295.0 276.0 296.0 276.0 297.0 276.0 C 298.0 276.0 299.0 276.0 300.0 276.0 C 301.0 276.0 302.0 276.0 302.0 277.0 C 302.0 278.0 302.0 279.0 302.0 280.0 C 302.0 281.0 303.0 282.0 302.0 282.0 C 301.0 282.0 300.0 281.0 299.0 281.0 C 298.0 281.0 297.0 281.0 296.0 282.0 C 296.0 283.0 295.0 282.0 294.0 283.0 C 293.0 283.0 292.0 283.0 291.0 283.0 C 290.0 284.0 290.0 285.0 290.0 286.0 C 291.0 287.0 292.0 287.0 293.0 287.0 C 294.0 287.0 295.0 287.0 296.0 287.0 C 295.0 288.0 295.0 289.0 295.0 290.0 C 294.0 289.0 293.0 289.0 292.0 289.0 C 291.0 289.0 290.0 290.0 289.0 290.0 C 288.0 289.0 288.0 288.0 288.0 287.0 C 288.0 286.0 288.0 285.0 288.0 284.0 C 288.0 283.0 289.0 282.0 289.0 281.0 C 288.0 280.0 287.0 279.0 286.0 280.0 C 286.0 281.0 286.0 282.0 286.0 283.0 C 286.0 282.0 286.0 281.0 285.0 280.0 C 284.0 280.0 283.0 280.0 283.0 279.0 C 284.0 279.0 285.0 279.0 286.0 278.0 C 287.0 278.0 288.0 278.0 289.0 277.0 C 289.0 276.0 290.0 275.0 291.0 276.0" stroke-width="0.0" fill="rgb(172, 160, 198)" opacity="1.0" stroke="rgb(53, 39, 105)" stroke-opacity="0.36624187" stroke-linecap="round" stroke-linejoin="round"/>
  </g>
</svg>
