<?xml version="1.0" ?>
<svg xmlns="http://www.w3.org/2000/svg" version="1.1" width="474" height="596">
  <defs/>
  <g>
    <path d="M 266.1632080078125 -1.4374803304672241 C 266.9434509277344 -1.9807618856430054 267.9080810546875 -1.6689808368682861 269.38507080078125 -2.0271472930908203 C 269.5315856933594 -3.627847671508789 268.8218688964844 -5.11745023727417 269.9110412597656 -4.588892936706543 C 270.6556091308594 -5.150441646575928 270.5014343261719 -5.240174770355225 271.5550231933594 -5.2468671798706055 C 271.95977783203125 -4.970135688781738 272.94122314453125 -4.506771564483643 275.2565002441406 -3.363250494003296 C 276.41436767578125 -3.477062463760376 278.7503967285156 -2.050808906555176 290.4428405761719 -2.2748897075653076 C 281.0859069824219 2.3840858936309814 289.84967041015625 1.0205775499343872 299.35394287109375 4.1976847648620605 C 304.2987976074219 5.425588607788086 311.90228271484375 8.36423397064209 318.0688171386719 10.77115535736084 C 326.9532470703125 14.634176254272461 336.1263732910156 18.917320251464844 344.2929992675781 23.951684951782227 C 352.6184387207031 29.017925262451172 360.7939758300781 34.43296432495117 368.8525390625 41.15726089477539 C 377.0214538574219 47.72841262817383 384.4471740722656 55.48603057861328 392.2352600097656 63.18824005126953 C 399.3989562988281 71.24565124511719 406.3618469238281 79.49454498291016 412.3812255859375 88.0847396850586 C 418.425537109375 97.14730834960938 423.9740905761719 104.55208587646484 428.3522644042969 113.15558624267578 C 433.2561950683594 120.84369659423828 434.87225341796875 128.82180786132812 432.5721740722656 134.8012237548828 C 429.28204345703125 143.2000732421875 423.33038330078125 152.19952392578125 415.8790283203125 160.91000366210938 C 410.4236145019531 168.32498168945312 400.830322265625 176.8866424560547 393.7227783203125 184.29928588867188 C 384.9333801269531 191.1973419189453 376.7048645019531 198.08370971679688 367.14373779296875 204.7939910888672 C 357.7951354980469 210.87539672851562 346.4399719238281 218.9496612548828 336.0855712890625 221.34303283691406 C 320.1004333496094 227.16455078125 322.3894958496094 221.75941467285156 299.1303405761719 234.7679901123047 C 303.6244812011719 218.35400390625 319.6817321777344 221.9645538330078 326.5326232910156 213.51478576660156 C 337.5075378417969 208.45709228515625 344.1358947753906 199.26010131835938 352.62420654296875 191.28846740722656 C 359.76483154296875 182.8927764892578 365.132568359375 173.4580841064453 366.88519287109375 162.91607666015625 C 367.86273193359375 154.83302307128906 370.27142333984375 145.59844970703125 366.0628662109375 142.06398010253906 C 367.4435119628906 130.97576904296875 364.2290344238281 122.13143920898438 361.70123291015625 113.47534942626953 C 354.7795715332031 107.44210052490234 349.79119873046875 100.42193603515625 344.40521240234375 98.10932922363281 C 336.3692932128906 95.53778076171875 342.3450927734375 96.0025634765625 339.8653869628906 108.01070404052734 C 318.4001770019531 93.33615112304688 306.4757385253906 104.48454284667969 293.5911865234375 109.26917266845703 C 281.6190490722656 104.76303100585938 272.3081970214844 109.23161315917969 262.07562255859375 110.69123077392578 C 255.96917724609375 113.946044921875 253.6898956298828 110.33135223388672 248.84197998046875 107.04338073730469 C 249.65150451660156 99.78861999511719 248.97637939453125 98.64318084716797 248.30673217773438 104.83551788330078 C 252.480224609375 114.61724090576172 250.10658264160156 122.70263671875 234.66339111328125 118.1989517211914 C 215.70755004882812 120.9041976928711 224.3025665283203 133.12982177734375 204.4837646484375 140.47621154785156 C 222.12266540527344 153.17794799804688 228.47216796875 148.0052490234375 219.80227661132812 168.11740112304688 C 199.84588623046875 165.28248596191406 187.73719787597656 162.69439697265625 186.93637084960938 146.274169921875 C 188.22958374023438 138.7779998779297 183.232421875 142.91156005859375 176.24038696289062 137.1721649169922 C 168.004150390625 139.21237182617188 158.50413513183594 146.7549591064453 149.837890625 153.1878662109375 C 144.57896423339844 162.07229614257812 144.49658203125 169.17831420898438 146.49209594726562 178.82421875 C 144.75503540039062 187.8994140625 148.94114685058594 197.2917022705078 155.14744567871094 204.0078582763672 C 160.37625122070312 212.7709197998047 168.57733154296875 219.88241577148438 178.18350219726562 227.78955078125 C 186.41171264648438 229.78501892089844 198.4404296875 231.8608856201172 202.37649536132812 236.95486450195312 C 207.95054626464844 239.78013610839844 213.44932556152344 239.2576141357422 229.18301391601562 245.5065460205078 C 210.7654266357422 247.8542022705078 203.1854248046875 245.65882873535156 192.1675262451172 244.7998809814453 C 189.94754028320312 238.64149475097656 181.63592529296875 244.16610717773438 173.71458435058594 239.91525268554688 C 168.25257873535156 240.6969451904297 152.58645629882812 241.23619079589844 140.41873168945312 239.83958435058594 C 132.9335479736328 239.08547973632812 121.80569458007812 237.04998779296875 110.9754638671875 233.93067932128906 C 102.92449188232422 231.97402954101562 95.36212158203125 228.8519287109375 86.2066650390625 225.31887817382812 C 78.01459503173828 222.1952362060547 68.00389862060547 217.47483825683594 62.00217819213867 213.05328369140625 C 55.67953109741211 209.2920379638672 55.757293701171875 205.93603515625 53.5175666809082 201.8119354248047 C 52.786983489990234 192.529541015625 54.63669967651367 180.09860229492188 56.28866958618164 170.77890014648438 C 58.078365325927734 162.08668518066406 59.49784851074219 154.34429931640625 62.137977600097656 146.3676300048828 C 64.13031005859375 137.5977020263672 67.88056945800781 128.64801025390625 71.10493469238281 122.1633071899414 C 73.68602752685547 114.25812530517578 78.74606323242188 105.7886962890625 83.30631256103516 97.50480651855469 C 88.51653289794922 89.18566131591797 93.9632568359375 80.7486343383789 101.03585052490234 72.44548034667969 C 107.01411437988281 65.26305389404297 114.90452575683594 56.872962951660156 122.6877670288086 50.00510025024414 C 130.0151824951172 43.68987274169922 138.75306701660156 36.71677017211914 147.16481018066406 31.066814422607422 C 155.9647216796875 25.182462692260742 164.17530822753906 24.355207443237305 174.70545959472656 23.694732666015625 C 179.0751190185547 23.655311584472656 192.77015686035156 25.019250869750977 199.07766723632812 27.276498794555664 C 213.36398315429688 29.800230026245117 213.98744201660156 34.99045944213867 213.32977294921875 24.007434844970703 C 215.15695190429688 33.14725112915039 226.0264892578125 27.730253219604492 225.9355010986328 27.28897476196289 C 232.57901000976562 20.201148986816406 238.1015625 13.777876853942871 248.45233154296875 7.667529106140137 C 257.1012878417969 2.0820116996765137 269.33892822265625 0.3362228274345398 266.1632080078125 -1.4374803304672241" stroke-width="0.0" fill="rgb(64, 38, 31)" opacity="0.99998075" stroke="rgb(200, 131, 241)" stroke-opacity="0.5338206" stroke-linecap="round" stroke-linejoin="round"/>
    <path d="M 367.5080261230469 126.11112976074219 C 365.8841552734375 157.01803588867188 359.2526550292969 184.81138610839844 340.7720642089844 203.07525634765625 C 307.55548095703125 208.6114501953125 302.3311767578125 238.2666015625 293.6019592285156 235.96815490722656 C 291.8157043457031 247.96133422851562 282.13055419921875 254.03111267089844 284.8940734863281 257.4515380859375 C 272.3450622558594 258.0626220703125 262.0194396972656 257.82513427734375 249.54640197753906 252.41552734375 C 241.67723083496094 250.7892303466797 233.9243621826172 249.92367553710938 229.20098876953125 250.8092803955078 C 228.7577362060547 248.67730712890625 232.06057739257812 249.67335510253906 238.71395874023438 250.6247100830078 C 248.4121856689453 250.63058471679688 258.7360534667969 259.046142578125 273.7268981933594 256.4291687011719 C 284.17144775390625 258.0726623535156 290.33050537109375 270.9263610839844 291.9192810058594 279.0082092285156 C 302.82421875 294.357666015625 310.678466796875 303.5050354003906 311.5693664550781 311.8847961425781 C 311.4277648925781 312.064453125 311.3386535644531 320.507568359375 310.1625061035156 308.31597900390625 C 303.9015197753906 295.1631164550781 293.3236083984375 283.8819885253906 283.0939636230469 259.4767761230469 C 275.8043212890625 260.6151123046875 289.32366943359375 254.18150329589844 292.5893859863281 239.10394287109375 C 310.6080627441406 241.46990966796875 329.8966369628906 244.32081604003906 356.9268493652344 257.8531188964844 C 369.0245361328125 269.2350769042969 380.1624450683594 272.350341796875 393.57855224609375 280.50323486328125 C 405.9961242675781 287.56207275390625 410.59893798828125 293.1358337402344 412.5140380859375 295.3106384277344 C 427.91851806640625 287.146728515625 432.338134765625 292.3812255859375 441.5845642089844 278.508544921875 C 447.156982421875 297.11163330078125 456.58477783203125 315.0805358886719 467.37939453125 334.1399230957031 C 449.4149475097656 366.82183837890625 442.9011535644531 324.49200439453125 439.6413269042969 362.37664794921875 C 423.1130676269531 340.0316162109375 388.11077880859375 327.0602722167969 371.54425048828125 327.80029296875 C 340.84954833984375 319.83245849609375 344.7188720703125 327.28643798828125 327.6612854003906 323.5338134765625 C 315.6855773925781 351.40057373046875 332.30755615234375 389.15399169921875 317.05670166015625 380.81793212890625 C 313.93048095703125 415.6535949707031 305.4649353027344 446.4707946777344 295.9940185546875 463.37054443359375 C 285.8569641113281 479.7729187011719 287.3717956542969 513.1320190429688 287.94427490234375 528.6786499023438 C 274.5040283203125 534.6011352539062 257.1568298339844 535.5919799804688 239.80296325683594 530.1165161132812 C 238.98793029785156 541.7429809570312 238.3638916015625 551.05322265625 238.58226013183594 563.2754516601562 C 252.5818634033203 570.1502685546875 267.40582275390625 571.5126953125 296.43011474609375 571.3795166015625 C 314.4832763671875 571.9348754882812 330.40203857421875 570.8112182617188 336.5682067871094 571.8056030273438 C 337.76007080078125 580.3148193359375 324.69287109375 584.1563110351562 303.1098327636719 584.7023315429688 C 278.7833557128906 584.8051147460938 242.48165893554688 582.1541137695312 238.0365753173828 575.8564453125 C 228.49769592285156 566.473388671875 236.60107421875 535.0957641601562 236.4145050048828 507.10406494140625 C 245.9412841796875 505.1716613769531 243.12060546875 455.4822998046875 236.59896850585938 455.4822692871094 C 222.11109924316406 449.95147705078125 231.5890350341797 461.6351318359375 224.774169921875 474.25872802734375 C 212.2403106689453 475.5476989746094 216.54579162597656 483.44866943359375 213.89007568359375 490.311767578125 C 212.21424865722656 500.17120361328125 209.82644653320312 510.44720458984375 212.69129943847656 518.56787109375 C 213.25662231445312 534.3236694335938 215.93722534179688 549.9848022460938 217.3030548095703 567.6655883789062 C 202.63877868652344 578.2223510742188 205.52548217773438 583.9607543945312 175.21009826660156 591.798095703125 C 158.69375610351562 598.3567504882812 122.44822692871094 597.2232666015625 119.04215240478516 588.5521240234375 C 112.29824829101562 574.7311401367188 125.77953338623047 576.65380859375 142.2926788330078 582.7728881835938 C 169.11212158203125 580.7943725585938 189.2615509033203 575.7666625976562 211.1508026123047 572.8565063476562 C 215.6227264404297 578.697021484375 212.54649353027344 550.6765747070312 209.92080688476562 529.8136596679688 C 195.37648010253906 537.7569580078125 178.94215393066406 539.951171875 159.67922973632812 527.2692260742188 C 159.65316772460938 521.1572265625 141.53163146972656 523.9358520507812 157.3623504638672 507.28790283203125 C 179.10418701171875 502.06793212890625 170.37852478027344 474.9841003417969 158.15548706054688 468.4068908691406 C 155.5403289794922 438.9769287109375 151.6357879638672 412.4444885253906 152.37115478515625 398.2732849121094 C 125.1911849975586 399.2949523925781 114.70271301269531 386.810791015625 114.54769897460938 364.7281799316406 C 109.1768569946289 340.0799255371094 126.40851593017578 339.25396728515625 92.24723815917969 354.4504089355469 C 68.91960906982422 362.5367736816406 74.81615447998047 389.57086181640625 41.11115264892578 385.72430419921875 C 32.89156723022461 347.34674072265625 33.28526306152344 334.701904296875 55.28602600097656 324.22772216796875 C 65.40229797363281 309.321044921875 77.87129211425781 298.7375183105469 91.89568328857422 287.912841796875 C 83.01380157470703 283.89971923828125 102.61817932128906 270.8414611816406 114.91610717773438 262.6955871582031 C 130.92649841308594 253.0309295654297 146.2669219970703 245.8336944580078 167.0724639892578 240.11782836914062 C 193.24838256835938 235.39633178710938 193.5824737548828 241.9413604736328 203.1757354736328 242.6790771484375 C 188.2798614501953 261.2825927734375 183.38320922851562 284.7933044433594 172.63099670410156 304.9461975097656 C 166.9911651611328 321.6328430175781 162.5186767578125 336.73028564453125 156.0596466064453 345.6906433105469 C 153.67352294921875 352.1489562988281 154.58230590820312 357.91558837890625 153.48123168945312 353.219482421875 C 151.83934020996094 344.7314758300781 162.28948974609375 340.6337890625 164.07264709472656 327.4286193847656 C 171.47467041015625 311.0161437988281 179.64288330078125 293.58453369140625 186.5222625732422 274.19219970703125 C 192.29776000976562 252.9894561767578 190.6593017578125 234.77113342285156 227.18260192871094 248.6048583984375 C 218.64590454101562 226.34800720214844 205.59259033203125 212.22518920898438 199.88885498046875 189.17698669433594 C 205.65960693359375 169.42611694335938 218.4181671142578 148.67892456054688 367.5080261230469 126.11112976074219" stroke-width="0.0" fill="rgb(232, 106, 162)" opacity="0.9982652" stroke="rgb(44, 183, 177)" stroke-opacity="0.06237474" stroke-linecap="round" stroke-linejoin="round"/>
    <path d="M 236.55532836914062 89.96726989746094 C 246.30593872070312 96.26306915283203 254.13262939453125 102.0634536743164 259.4028625488281 109.95008087158203 C 261.2140197753906 110.3126220703125 268.77886962890625 107.8299789428711 271.0093994140625 107.87962341308594 C 281.1622009277344 105.29293060302734 291.3279113769531 102.99296569824219 312.1623840332031 98.8418960571289 C 295.0588073730469 107.19252014160156 299.3616027832031 103.89364624023438 317.5880432128906 104.25325012207031 C 320.4786682128906 106.72047424316406 323.24298095703125 104.78369903564453 328.3816833496094 112.71155548095703 C 329.0665283203125 116.18818664550781 330.37591552734375 121.27761840820312 330.6445007324219 119.91573333740234 C 331.02923583984375 130.9730682373047 327.1125793457031 131.55963134765625 322.47930908203125 136.81854248046875 C 332.6741027832031 134.79635620117188 335.4501953125 129.52565002441406 341.8497314453125 127.74425506591797 C 342.42962646484375 126.55925750732422 346.24957275390625 124.8078842163086 345.2022399902344 118.29637908935547 C 346.5623779296875 118.71874237060547 341.927734375 111.66410827636719 339.1321105957031 106.16093444824219 C 335.7098693847656 103.60702514648438 327.00543212890625 96.40060424804688 313.8960266113281 98.62345886230469 C 319.6188049316406 98.14857482910156 328.519775390625 96.93883514404297 330.3040466308594 95.19216918945312 C 336.3880615234375 94.96711730957031 348.3057861328125 93.18794250488281 347.5081787109375 95.96602630615234 C 352.6411437988281 100.51364135742188 358.22381591796875 106.4742202758789 361.9141845703125 111.6781234741211 C 365.74652099609375 118.9214096069336 368.3175048828125 124.9681396484375 370.2660217285156 135.23538208007812 C 370.96075439453125 141.67080688476562 371.2176208496094 145.29701232910156 370.4637145996094 154.28392028808594 C 369.4443664550781 161.9649200439453 367.39263916015625 167.52899169921875 366.2090148925781 170.08030700683594 C 363.8812255859375 177.7251434326172 359.8550109863281 184.7908477783203 356.41961669921875 188.2484588623047 C 353.7703552246094 192.2120819091797 347.7926940917969 199.93585205078125 344.8245849609375 201.61685180664062 C 344.544677734375 202.34097290039062 340.51568603515625 206.3611602783203 335.38421630859375 210.57986450195312 C 330.8462219238281 213.8179931640625 325.8233337402344 217.3450164794922 322.0504150390625 219.87217712402344 C 317.8898010253906 222.327392578125 311.4337463378906 225.8523712158203 304.8637390136719 229.23748779296875 C 302.5480651855469 230.72409057617188 296.7431335449219 230.61624145507812 293.6465148925781 234.05612182617188 C 292.8993835449219 234.034423828125 288.6460876464844 234.9036407470703 285.8385314941406 236.27188110351562 C 283.4174499511719 235.6959228515625 281.4151916503906 237.2642059326172 282.0905456542969 237.25494384765625 C 279.878173828125 237.7606201171875 277.8321838378906 237.9905548095703 276.690673828125 238.13502502441406 C 275.6717834472656 239.85150146484375 272.09490966796875 238.0616912841797 272.06365966796875 239.6732635498047 C 273.0478515625 239.65188598632812 270.1557312011719 239.0428924560547 267.13800048828125 240.20297241210938 C 263.41461181640625 240.4142303466797 259.538818359375 241.29403686523438 256.34130859375 242.15907287597656 C 253.6194305419922 242.99256896972656 249.53793334960938 243.42437744140625 245.33059692382812 243.0284423828125 C 242.75347900390625 243.20960998535156 237.7737274169922 244.2821044921875 234.39064025878906 244.21995544433594 C 231.43167114257812 243.92381286621094 226.7228546142578 243.13131713867188 224.66796875 244.04209899902344 C 223.97828674316406 243.47508239746094 216.82565307617188 243.3845672607422 210.4170684814453 241.73416137695312 C 205.89016723632812 240.99989318847656 198.7857208251953 239.0138397216797 193.39935302734375 236.56263732910156 C 189.45413208007812 234.992919921875 182.04989624023438 231.55125427246094 179.5709686279297 229.79721069335938 C 171.8783416748047 225.3777618408203 166.6426544189453 221.21258544921875 163.31687927246094 217.49607849121094 C 158.7799530029297 212.92758178710938 153.34555053710938 206.72647094726562 150.20071411132812 200.72650146484375 C 146.49806213378906 193.71426391601562 144.55149841308594 186.326904296875 143.67584228515625 180.4215087890625 C 142.33169555664062 172.55770874023438 142.45068359375 162.39573669433594 146.69541931152344 154.2030029296875 C 145.79751586914062 150.89637756347656 151.9364471435547 149.08323669433594 155.84510803222656 146.35105895996094 C 157.86851501464844 137.56370544433594 158.61390686035156 131.71597290039062 156.9601287841797 122.05029296875 C 161.17442321777344 128.02427673339844 165.1822052001953 136.60177612304688 167.18356323242188 139.07839965820312 C 170.52191162109375 136.7209014892578 177.2572479248047 135.91392517089844 179.51992797851562 133.71583557128906 C 185.8852081298828 131.39198303222656 195.1493682861328 127.40911865234375 199.09974670410156 125.42173767089844 C 180.1431121826172 139.36778259277344 188.4189910888672 139.94027709960938 183.6501922607422 151.0921173095703 C 182.92247009277344 156.5830078125 185.7220001220703 163.00852966308594 188.4256134033203 166.74832153320312 C 193.8736114501953 165.60763549804688 205.07476806640625 166.201171875 221.97732543945312 162.8299102783203 C 225.2623748779297 153.1485595703125 225.41073608398438 151.37022399902344 210.97494506835938 144.85330200195312 C 213.65211486816406 134.78225708007812 211.59996032714844 138.07772827148438 219.91493225097656 128.30613708496094 C 221.44349670410156 130.7920684814453 226.8352813720703 132.8114013671875 226.49081420898438 136.6383514404297 C 230.29112243652344 143.70523071289062 227.64927673339844 149.6263427734375 226.55735778808594 154.45652770996094 C 223.24241638183594 155.40882873535156 224.2562713623047 159.3197784423828 218.23399353027344 160.82009887695312 C 226.37069702148438 159.48492431640625 231.77035522460938 161.77952575683594 236.68536376953125 157.58932495117188 C 245.49813842773438 155.57293701171875 242.72152709960938 154.00389099121094 245.69703674316406 149.20816040039062 C 243.92108154296875 142.91085815429688 242.4705810546875 137.56639099121094 236.77479553222656 132.64993286132812 C 231.13157653808594 127.87157440185547 222.70761108398438 127.32530975341797 221.00924682617188 124.64122009277344 C 210.14761352539062 123.67782592773438 204.99392700195312 126.30810546875 200.95291137695312 125.93785858154297 C 214.61520385742188 120.48673248291016 222.1932830810547 119.88239288330078 223.6015625 118.5524673461914 C 231.3638153076172 116.86656951904297 239.72698974609375 115.69490051269531 246.63478088378906 114.2239990234375 C 245.35385131835938 115.7555160522461 250.7008514404297 114.98265838623047 236.55532836914062 89.96726989746094" stroke-width="0.0" fill="rgb(251, 188, 103)" opacity="1.0" stroke="rgb(249, 18, 118)" stroke-opacity="0.9835308" stroke-linecap="round" stroke-linejoin="round"/>
    <path d="M 301.847900390625 376.51019287109375 C 300.117919921875 376.11102294921875 304.39825439453125 376.94122314453125 304.2119140625 376.1846618652344 C 306.7646789550781 376.8970642089844 312.4434814453125 375.9100036621094 308.6556701660156 377.9449462890625 C 313.9172668457031 380.0818176269531 316.4140319824219 380.2820739746094 315.805908203125 382.9543762207031 C 316.2220458984375 390.19720458984375 315.32135009765625 395.8741760253906 313.9471130371094 403.0450744628906 C 312.8576354980469 412.433837890625 310.075927734375 420.5390625 308.5760498046875 430.6459045410156 C 305.4151611328125 440.2349548339844 303.57080078125 448.5838928222656 301.68316650390625 456.772705078125 C 300.71099853515625 465.9330139160156 299.6061706542969 470.8751220703125 296.98431396484375 471.2863464355469 C 288.796875 474.94354248046875 285.47607421875 477.0535888671875 288.37982177734375 472.7618103027344 C 275.5711975097656 472.37347412109375 267.8162841796875 473.00201416015625 258.3496398925781 471.5887145996094 C 250.05242919921875 472.7095947265625 245.7149200439453 464.96783447265625 246.88287353515625 475.92803955078125 C 245.2119140625 491.04583740234375 244.94549560546875 499.595947265625 243.43397521972656 505.0128479003906 C 253.4331512451172 508.1130676269531 260.3976135253906 513.1467895507812 275.0012512207031 510.504150390625 C 283.8202209472656 509.4366149902344 284.31158447265625 502.46588134765625 298.3771667480469 506.3441162109375 C 303.3705139160156 508.77069091796875 308.60418701171875 511.4189147949219 302.7076110839844 518.6698608398438 C 295.4273376464844 521.3269653320312 295.9360046386719 515.8575439453125 290.6498718261719 524.7202758789062 C 293.5610046386719 529.9881591796875 309.08984375 547.136962890625 314.23089599609375 544.239501953125 C 324.9571228027344 551.3563232421875 335.15875244140625 552.6322631835938 342.0224304199219 561.545654296875 C 344.9983825683594 562.7798461914062 342.4176025390625 572.718017578125 341.6537780761719 575.891845703125 C 334.3925476074219 579.2086791992188 327.8771057128906 580.83740234375 329.9747314453125 578.4190673828125 C 287.42181396484375 581.2607421875 294.2460632324219 586.232177734375 317.50537109375 583.0712280273438 C 332.176513671875 582.0430297851562 328.2278137207031 577.2255249023438 335.355224609375 575.6283569335938 C 341.533203125 571.7725219726562 338.15869140625 560.0418701171875 341.97149658203125 559.3086547851562 C 335.4397888183594 548.0261840820312 325.84686279296875 548.3116455078125 317.3484802246094 542.0365600585938 C 307.0583190917969 539.888671875 302.0796203613281 532.085205078125 291.16229248046875 530.5828857421875 C 285.8111877441406 515.1842041015625 269.32305908203125 530.47021484375 261.1763610839844 521.838134765625 C 245.82135009765625 536.3673095703125 248.29544067382812 526.772216796875 241.22642517089844 517.5608520507812 C 239.4685516357422 530.2467651367188 238.09104919433594 549.4555053710938 238.64833068847656 544.0338134765625 C 238.33993530273438 554.056884765625 235.69854736328125 561.1823120117188 240.8859405517578 577.2705688476562 C 230.44699096679688 573.2322387695312 234.6630401611328 554.0968017578125 234.25099182128906 544.6004638671875 C 235.25132751464844 535.1009521484375 236.30674743652344 525.85986328125 236.19935607910156 515.316162109375 C 238.7594451904297 506.97802734375 242.65309143066406 499.000244140625 242.46299743652344 490.3041076660156 C 243.65390014648438 484.889404296875 243.2473602294922 476.3720397949219 242.32781982421875 468.9566955566406 C 231.86605834960938 468.2619323730469 234.7432098388672 466.0586853027344 232.1280517578125 454.6923828125 C 228.75579833984375 454.8810729980469 227.24754333496094 454.0921630859375 227.79110717773438 456.1771240234375 C 227.80587768554688 461.5906982421875 225.42662048339844 475.3272705078125 226.61178588867188 472.4981994628906 C 215.6852569580078 477.2160949707031 210.75823974609375 474.8929748535156 202.41119384765625 475.5036926269531 C 191.41554260253906 475.21881103515625 181.1582794189453 475.5868835449219 169.1084442138672 472.49249267578125 C 169.87811279296875 479.47833251953125 169.53387451171875 487.1001281738281 169.55471801757812 495.77783203125 C 169.12037658691406 505.093994140625 165.03648376464844 506.9267883300781 174.68553161621094 509.03900146484375 C 185.2219696044922 512.9766235351562 195.28842163085938 512.2493286132812 208.46995544433594 509.4913024902344 C 207.36070251464844 506.43988037109375 215.24676513671875 507.5085754394531 219.53892517089844 511.52532958984375 C 221.43923950195312 514.5397338867188 221.6737060546875 522.035888671875 218.18606567382812 521.7272338867188 C 213.24562072753906 526.18017578125 201.93031311035156 520.4570922851562 195.18199157714844 527.8458251953125 C 187.061767578125 525.927978515625 176.43589782714844 529.2017211914062 170.34490966796875 526.6915893554688 C 164.96661376953125 525.6329345703125 162.67486572265625 527.0603637695312 152.0075225830078 520.881591796875 C 150.0340118408203 512.6266479492188 156.22491455078125 507.69097900390625 165.30625915527344 505.14276123046875 C 164.65541076660156 499.0026550292969 168.07508850097656 490.60113525390625 165.3524169921875 473.21240234375 C 159.8866424560547 472.1358947753906 158.117431640625 471.6795959472656 157.82911682128906 462.0434265136719 C 156.0764617919922 448.743408203125 155.8598175048828 436.0823974609375 154.1358642578125 426.3125305175781 C 152.77423095703125 409.87884521484375 152.25440979003906 399.6894836425781 153.8125457763672 394.26806640625 C 157.66107177734375 388.8252258300781 154.74911499023438 381.0327453613281 163.92127990722656 381.5003662109375 C 165.76046752929688 378.256591796875 183.57630920410156 378.6832275390625 191.654541015625 381.45538330078125 C 199.9093780517578 383.6325378417969 212.26065063476562 385.1053771972656 220.2171630859375 386.2500915527344 C 229.23916625976562 386.97186279296875 238.08958435058594 386.478271484375 246.1718292236328 386.83935546875 C 250.89932250976562 386.7843322753906 254.06344604492188 386.630126953125 256.61297607421875 386.669189453125 C 256.88690185546875 385.4388427734375 256.49945068359375 382.8353271484375 255.0887908935547 382.24072265625 C 254.46807861328125 380.990966796875 253.14370727539062 381.8868408203125 249.97134399414062 381.63116455078125 C 252.20835876464844 383.8749694824219 254.7827606201172 379.77886962890625 256.4753723144531 384.9046325683594 C 257.1932373046875 386.5811462402344 263.0382385253906 385.3827819824219 266.93572998046875 385.7842102050781 C 271.0522155761719 384.6666259765625 279.6646728515625 384.7579650878906 301.847900390625 376.51019287109375" stroke-width="0.0" fill="rgb(234, 82, 10)" opacity="0.9989586" stroke="rgb(229, 34, 200)" stroke-opacity="0.44484466" stroke-linecap="round" stroke-linejoin="round"/>
    <path d="M 187.4735870361328 238.8536834716797 C 189.7826385498047 239.81504821777344 191.87957763671875 240.32904052734375 194.09768676757812 240.6905517578125 C 196.09765625 241.15672302246094 198.16542053222656 241.58518981933594 199.8358154296875 242.15380859375 C 201.29832458496094 243.1719207763672 201.7914581298828 244.74473571777344 201.92874145507812 246.61663818359375 C 201.3565216064453 249.03575134277344 200.3170166015625 252.08755493164062 199.24819946289062 255.55784606933594 C 197.99859619140625 259.4414978027344 196.65892028808594 263.4772033691406 195.42518615722656 267.81036376953125 C 194.68626403808594 272.6275634765625 194.30975341796875 277.4862976074219 193.9103240966797 282.2618408203125 C 193.30691528320312 286.9049377441406 191.88644409179688 290.9328918457031 189.48492431640625 294.2829895019531 C 186.51856994628906 296.9810791015625 183.3202667236328 299.3750305175781 180.27891540527344 301.5478515625 C 177.70838928222656 304.05828857421875 175.83091735839844 307.08978271484375 174.45138549804688 310.4379577636719 C 173.03189086914062 313.9407958984375 171.70700073242188 317.7312927246094 170.4049530029297 321.6261291503906 C 168.98497009277344 325.4859313964844 167.4034423828125 329.4182434082031 165.57339477539062 333.33251953125 C 164.02223205566406 337.21197509765625 162.2956085205078 341.15997314453125 161.03167724609375 345.2727966308594 C 159.8194580078125 349.4985656738281 158.63580322265625 353.7768859863281 157.01979064941406 357.8723449707031 C 155.23204040527344 361.8939514160156 154.103271484375 366.1239318847656 153.9871063232422 370.5942687988281 C 154.46751403808594 375.2796630859375 155.3526611328125 380.248046875 155.8660125732422 385.36932373046875 C 155.693115234375 390.46759033203125 155.3262481689453 395.384521484375 155.21417236328125 399.9385681152344 C 155.328857421875 403.8741760253906 155.63436889648438 407.0538635253906 155.77383422851562 409.4869079589844 C 155.8433380126953 411.1072998046875 155.82046508789062 411.5855407714844 155.77403259277344 410.9035339355469 C 155.7925262451172 409.70611572265625 155.86141967773438 408.2751770019531 155.87246704101562 406.268798828125 C 155.6437530517578 403.6100158691406 154.97268676757812 401.0239562988281 153.48623657226562 399.1136474609375 C 151.067138671875 397.5361328125 147.57054138183594 396.21875 143.31893920898438 395.632568359375 C 139.0654754638672 395.5342712402344 134.76588439941406 394.5634765625 129.98487854003906 393.3773193359375 C 124.90813446044922 391.1722412109375 120.3241958618164 387.77459716796875 117.6701431274414 382.35894775390625 C 115.78224182128906 376.1353454589844 114.57542419433594 369.8338623046875 114.06133270263672 363.5673828125 C 114.16609954833984 357.6144714355469 114.39938354492188 352.15625 114.35291290283203 347.68658447265625 C 114.10225677490234 344.96533203125 113.22674560546875 343.9836120605469 111.24078369140625 344.4375915527344 C 107.86615753173828 345.9537658691406 103.35918426513672 348.224365234375 97.80574798583984 351.0688781738281 C 91.47862243652344 354.3276672363281 84.73184204101562 357.833740234375 78.16859436035156 361.49444580078125 C 72.14063262939453 365.5180358886719 66.91997528076172 370.09429931640625 62.77460861206055 375.1665344238281 C 60.123905181884766 380.5616455078125 58.963199615478516 386.20135498046875 59.28710174560547 391.6813049316406 C 59.0544548034668 396.1706237792969 58.48295593261719 399.22027587890625 57.20695877075195 400.32086181640625 C 55.206504821777344 399.03662109375 52.861785888671875 396.1958923339844 50.15973663330078 392.5435485839844 C 47.15081787109375 389.2375183105469 44.21099090576172 387.5740051269531 41.51601028442383 388.1858215332031 C 39.146934509277344 391.42926025390625 36.771087646484375 395.87762451171875 33.9119758605957 399.5270080566406 C 30.898099899291992 401.7664794921875 27.757034301757812 402.01129150390625 24.860504150390625 400.626708984375 C 22.845895767211914 398.6858215332031 22.032405853271484 395.5975341796875 22.3225154876709 391.7318420410156 C 21.51036834716797 387.7249450683594 20.421667098999023 383.57318115234375 19.051071166992188 379.1627502441406 C 17.82382583618164 374.624755859375 17.122804641723633 370.0928649902344 17.02217674255371 365.5978088378906 C 17.38107681274414 361.1241760253906 18.18838119506836 356.4718933105469 19.41672134399414 351.7044677734375 C 20.59440040588379 347.0356140136719 21.34181022644043 342.50665283203125 21.18523597717285 338.0953674316406 C 19.48455238342285 334.49853515625 17.96763801574707 331.382080078125 17.338903427124023 328.84197998046875 C 18.432506561279297 327.62164306640625 21.16449737548828 327.6582946777344 25.039400100708008 328.2648620605469 C 29.913318634033203 328.99652099609375 35.4465446472168 329.72796630859375 41.09071731567383 330.38128662109375 C 46.87794494628906 330.27557373046875 52.48780059814453 328.679443359375 57.81949996948242 326.29876708984375 C 62.91953659057617 323.31280517578125 67.82467651367188 319.511474609375 72.43917846679688 315.22174072265625 C 76.7005615234375 310.9363098144531 80.6821517944336 306.7893371582031 84.44010925292969 302.82720947265625 C 87.91085815429688 299.2750244140625 91.141845703125 296.43658447265625 94.15949249267578 294.32196044921875 C 96.98114776611328 292.9093933105469 99.67110443115234 292.3777160644531 102.18836212158203 292.88677978515625 C 104.53787994384766 294.3741455078125 106.79510498046875 296.7397766113281 109.00617980957031 299.87139892578125 C 111.0968246459961 303.6470031738281 113.11334228515625 307.9051513671875 115.22611236572266 312.42706298828125 C 117.45390319824219 317.0286865234375 119.65914916992188 321.4891357421875 122.03733825683594 325.5063171386719 C 124.81251525878906 328.78350830078125 127.88298034667969 331.1669921875 131.27035522460938 332.4625244140625 C 135.0612030029297 332.5835876464844 138.94271850585938 331.77020263671875 142.61399841308594 330.04034423828125 C 146.0482177734375 327.4915771484375 149.12677001953125 324.2845458984375 151.52024841308594 320.3747253417969 C 153.0654296875 315.768798828125 154.292236328125 310.79510498046875 155.75177001953125 305.8885192871094 C 157.77685546875 301.19390869140625 158.92300415039062 296.369140625 158.7187957763672 291.3840637207031 C 157.87896728515625 286.21661376953125 157.39920043945312 280.9827880859375 157.89183044433594 275.8067932128906 C 159.5468292236328 270.6944885253906 162.00070190429688 265.4500732421875 165.5314483642578 260.610595703125 C 168.95675659179688 255.51904296875 173.0128173828125 250.73829650878906 177.1266632080078 245.9993133544922 C 181.1923065185547 241.24244689941406 185.56044006347656 236.8542022705078 187.4735870361328 238.8536834716797" stroke-width="0.0" fill="rgb(157, 135, 186)" opacity="1.0" stroke="rgb(107, 159, 52)" stroke-opacity="0.43928063" stroke-linecap="round" stroke-linejoin="round"/>
    <path d="M 97.18449401855469 286.0236511230469 C 98.03352355957031 286.3828125 98.8823013305664 286.76068115234375 99.7344741821289 287.1836242675781 C 100.5906753540039 287.66705322265625 101.45738220214844 288.20111083984375 102.33270263671875 288.7814025878906 C 103.21306610107422 289.409912109375 104.09672546386719 290.09210205078125 104.98668670654297 290.8322448730469 C 105.88238525390625 291.63031005859375 106.78152465820312 292.47503662109375 107.6815185546875 293.3658142089844 C 108.57987213134766 294.2948913574219 109.4739990234375 295.249755859375 110.35945892333984 296.21905517578125 C 111.22998809814453 297.19317626953125 112.08132934570312 298.1628112792969 112.90817260742188 299.1201477050781 C 113.70083618164062 300.061767578125 114.45308685302734 300.9849548339844 115.15821838378906 301.892822265625 C 115.80706787109375 302.7908630371094 116.39920043945312 303.67919921875 116.9395751953125 304.56378173828125 C 117.42967224121094 305.4501953125 117.87959289550781 306.3426208496094 118.30232238769531 307.2386169433594 C 118.71161651611328 308.1378479003906 119.12117004394531 309.0404357910156 119.54176330566406 309.94415283203125 C 119.97772216796875 310.846923828125 120.42726135253906 311.7472229003906 120.88953399658203 312.6446228027344 C 121.36519622802734 313.5354919433594 121.84400177001953 314.41204833984375 122.2980728149414 315.2684326171875 C 122.7281265258789 316.1090087890625 123.15377807617188 316.94134521484375 123.54269409179688 317.7701416015625 C 123.86390686035156 318.5966796875 124.11819458007812 319.42816162109375 124.30461120605469 320.2684326171875 C 124.44625854492188 321.1142883300781 124.5446548461914 321.9694519042969 124.61922454833984 322.8340759277344 C 124.69136047363281 323.7131042480469 124.77297973632812 324.6098937988281 124.90638732910156 325.5213317871094 C 125.07617950439453 326.4310607910156 125.27867889404297 327.3205871582031 125.48664093017578 328.18701171875 C 125.65660858154297 329.03509521484375 125.78878021240234 329.8520812988281 125.82170867919922 330.6134948730469 C 125.68475341796875 331.3056335449219 125.35801696777344 331.96221923828125 124.81551361083984 332.6174621582031 C 123.96603393554688 333.2623596191406 122.87822723388672 333.93902587890625 121.59420013427734 334.7812194824219 C 120.08644104003906 335.7733154296875 118.29273986816406 336.9299621582031 116.19120788574219 338.2260437011719 C 113.81124877929688 339.6633605957031 111.12419128417969 341.2826843261719 108.11273956298828 342.99810791015625 C 104.8636703491211 344.7752380371094 101.41063690185547 346.4612121582031 97.82768249511719 348.02154541015625 C 94.41645812988281 349.52197265625 91.54725646972656 351.06353759765625 89.4912338256836 352.8140563964844 C 88.58165740966797 355.09149169921875 88.60765838623047 357.7791748046875 88.8399887084961 360.2101135253906 C 88.73271942138672 362.17877197265625 87.91238403320312 363.7987060546875 86.2633056640625 364.7999572753906 C 83.74434661865234 364.69488525390625 80.96422576904297 364.5535888671875 77.9448471069336 364.713623046875 C 74.92273712158203 365.82720947265625 72.04873657226562 367.68585205078125 69.28300476074219 370.39703369140625 C 66.44343566894531 373.2201232910156 63.453590393066406 376.2273254394531 60.54844284057617 379.3840026855469 C 58.1887321472168 382.5297546386719 56.72532653808594 385.7343444824219 56.13740921020508 389.3858337402344 C 56.0674934387207 393.162841796875 56.31647872924805 396.7665100097656 56.84593963623047 399.9710998535156 C 57.0516471862793 402.3602294921875 56.18941879272461 403.86785888671875 54.47739791870117 404.7731628417969 C 52.26364517211914 404.9201965332031 50.141910552978516 404.5444030761719 48.291709899902344 402.9954528808594 C 46.65771484375 400.5314025878906 45.38698959350586 397.47802734375 44.587120056152344 394.3072509765625 C 44.167091369628906 391.1700439453125 43.53199768066406 388.49658203125 42.467220306396484 386.6443786621094 C 41.1732177734375 386.1546325683594 39.54214096069336 386.8458557128906 37.59613800048828 388.2782897949219 C 35.50981140136719 389.9285888671875 33.066219329833984 391.3105163574219 30.292640686035156 391.9781799316406 C 27.346826553344727 391.6181640625 24.21771812438965 391.0311584472656 21.170251846313477 391.10369873046875 C 18.72735595703125 392.37591552734375 15.831087112426758 393.12109375 13.02857780456543 392.4285583496094 C 10.767736434936523 390.7857971191406 9.984436988830566 388.8761291503906 9.987274169921875 385.91131591796875 C 10.920379638671875 382.4298095703125 12.126760482788086 379.07464599609375 13.208005905151367 376.6130065917969 C 13.125699043273926 375.6222839355469 12.045459747314453 375.8448486328125 10.072399139404297 376.8106689453125 C 7.290643692016602 377.9020690917969 4.3160481452941895 378.1495056152344 1.8036106824874878 377.35833740234375 C 0.035208553075790405 376.03253173828125 -0.5581859946250916 374.11859130859375 0.07273658365011215 371.39947509765625 C 1.5951054096221924 368.128662109375 3.8907392024993896 364.24432373046875 6.388043403625488 360.1485290527344 C 9.209128379821777 356.0696716308594 12.310203552246094 351.98016357421875 15.55371379852295 348.10455322265625 C 18.739700317382812 344.81060791015625 21.338579177856445 341.3937072753906 22.705366134643555 338.4461975097656 C 22.504573822021484 335.62127685546875 20.95075035095215 332.871826171875 18.862834930419922 330.31402587890625 C 17.219524383544922 328.15997314453125 16.81585121154785 325.72491455078125 17.53876304626465 323.0838317871094 C 19.423297882080078 321.0628662109375 21.85502815246582 319.8558654785156 24.822439193725586 320.2497863769531 C 27.98950958251953 322.25921630859375 31.398435592651367 325.0640869140625 34.828678131103516 328.0291748046875 C 37.85547637939453 330.7076721191406 40.732322692871094 332.74114990234375 43.27486038208008 333.39154052734375 C 44.99275588989258 332.4119873046875 45.80324935913086 330.21527099609375 46.2421875 327.362060546875 C 46.62022399902344 324.5368957519531 47.959564208984375 322.09991455078125 50.135562896728516 320.3943176269531 C 52.57267761230469 319.89813232421875 55.312705993652344 320.4945373535156 57.852474212646484 321.19573974609375 C 60.52190017700195 320.9351806640625 62.87457275390625 319.5801086425781 65.44671630859375 316.78350830078125 C 68.1159439086914 313.794677734375 70.84539031982422 310.6430969238281 73.7286605834961 307.2511291503906 C 76.77484893798828 304.0331115722656 79.93811798095703 301.0940856933594 83.1894302368164 298.22412109375 C 86.39500427246094 295.50482177734375 89.6219711303711 292.92547607421875 92.85072326660156 290.3509826660156 C 96.03905487060547 287.8984375 99.20960998535156 285.5440979003906 97.18449401855469 286.0236511230469" stroke-width="0.0" fill="rgb(248, 189, 111)" opacity="1.0" stroke="rgb(23, 122, 97)" stroke-opacity="0.88492876" stroke-linecap="round" stroke-linejoin="round"/>
    <path d="M 372.0 285.0 C 373.0 285.0 374.0 286.0 375.0 286.0 C 376.0 286.0 377.0 286.0 378.0 286.0 C 379.0 287.0 380.0 287.0 381.0 287.0 C 381.0 288.0 382.0 289.0 383.0 289.0 C 383.0 290.0 383.0 291.0 383.0 292.0 C 383.0 293.0 383.0 294.0 383.0 295.0 C 383.0 296.0 383.0 297.0 383.0 298.0 C 383.0 299.0 383.0 300.0 383.0 301.0 C 383.0 302.0 383.0 303.0 384.0 304.0 C 385.0 304.0 386.0 305.0 387.0 305.0 C 388.0 305.0 389.0 305.0 390.0 305.0 C 391.0 305.0 392.0 305.0 393.0 305.0 C 394.0 305.0 395.0 305.0 396.0 305.0 C 397.0 305.0 398.0 305.0 399.0 304.0 C 400.0 304.0 401.0 304.0 401.0 305.0 C 401.0 306.0 400.0 307.0 399.0 308.0 C 398.0 309.0 398.0 310.0 398.0 311.0 C 398.0 312.0 398.0 313.0 398.0 314.0 C 398.0 315.0 398.0 316.0 398.0 317.0 C 398.0 318.0 397.0 318.0 396.0 318.0 C 395.0 318.0 394.0 318.0 393.0 318.0 C 392.0 318.0 391.0 318.0 390.0 318.0 C 389.0 318.0 388.0 318.0 387.0 318.0 C 386.0 319.0 385.0 319.0 384.0 319.0 C 383.0 320.0 383.0 321.0 382.0 321.0 C 381.0 321.0 380.0 321.0 379.0 320.0 C 378.0 320.0 377.0 320.0 377.0 319.0 C 376.0 318.0 375.0 318.0 374.0 318.0 C 373.0 318.0 372.0 318.0 371.0 318.0 C 370.0 318.0 369.0 318.0 369.0 317.0 C 369.0 316.0 369.0 315.0 369.0 314.0 C 368.0 313.0 367.0 313.0 366.0 313.0 C 366.0 312.0 366.0 311.0 366.0 310.0 C 366.0 309.0 366.0 308.0 366.0 307.0 C 367.0 306.0 367.0 305.0 367.0 304.0 C 368.0 304.0 369.0 303.0 369.0 302.0 C 369.0 301.0 369.0 300.0 369.0 299.0 C 369.0 298.0 369.0 297.0 369.0 296.0 C 369.0 295.0 369.0 294.0 369.0 293.0 C 369.0 292.0 369.0 291.0 369.0 290.0 C 369.0 289.0 368.0 288.0 369.0 287.0 C 369.0 286.0 369.0 285.0 372.0 285.0" stroke-width="0.0" fill="rgb(253, 188, 101)" opacity="1.0" stroke="rgb(212, 121, 5)" stroke-opacity="0.9909295" stroke-linecap="round" stroke-linejoin="round"/>
    <path d="M 322.0 369.0 C 323.0 369.0 323.0 370.0 323.0 371.0 C 323.0 372.0 324.0 373.0 324.0 374.0 C 324.0 375.0 324.0 376.0 324.0 377.0 C 324.0 378.0 324.0 379.0 323.0 380.0 C 322.0 380.0 321.0 380.0 320.0 380.0 C 319.0 380.0 318.0 380.0 315.0 388.0 C 314.0 397.0 313.0 406.0 311.0 415.0 C 309.0 424.0 307.0 433.0 305.0 442.0 C 302.0 451.0 300.0 460.0 299.0 469.0 C 290.0 474.0 288.0 483.0 287.0 492.0 C 287.0 501.0 292.0 505.0 301.0 508.0 C 304.0 516.0 295.0 519.0 291.0 526.0 C 300.0 533.0 309.0 539.0 318.0 543.0 C 326.0 546.0 334.0 550.0 341.0 558.0 C 342.0 567.0 340.0 575.0 331.0 579.0 C 322.0 582.0 313.0 583.0 304.0 583.0 C 295.0 583.0 286.0 583.0 277.0 583.0 C 268.0 582.0 259.0 581.0 250.0 580.0 C 241.0 578.0 235.0 571.0 234.0 562.0 C 234.0 553.0 234.0 544.0 235.0 535.0 C 235.0 526.0 227.0 521.0 227.0 512.0 C 236.0 506.0 241.0 499.0 242.0 490.0 C 243.0 481.0 242.0 472.0 234.0 466.0 C 233.0 457.0 227.0 458.0 226.0 467.0 C 222.0 474.0 215.0 480.0 213.0 489.0 C 212.0 498.0 211.0 507.0 219.0 511.0 C 219.0 520.0 212.0 525.0 213.0 534.0 C 214.0 543.0 215.0 552.0 216.0 561.0 C 217.0 570.0 217.0 579.0 210.0 585.0 C 201.0 587.0 192.0 586.0 183.0 589.0 C 174.0 591.0 165.0 594.0 157.0 595.0 C 148.0 595.0 139.0 595.0 131.0 593.0 C 122.0 591.0 117.0 584.0 118.0 575.0 C 126.0 566.0 134.0 560.0 142.0 553.0 C 149.0 547.0 155.0 538.0 159.0 529.0 C 154.0 522.0 151.0 514.0 157.0 508.0 C 164.0 504.0 165.0 495.0 166.0 486.0 C 165.0 477.0 160.0 471.0 158.0 462.0 C 157.0 453.0 156.0 444.0 158.0 445.0 C 159.0 454.0 160.0 463.0 168.0 469.0 C 177.0 472.0 186.0 473.0 195.0 473.0 C 204.0 473.0 213.0 472.0 222.0 467.0 C 223.0 458.0 226.0 449.0 235.0 448.0 C 237.0 455.0 239.0 464.0 248.0 468.0 C 257.0 469.0 266.0 470.0 275.0 470.0 C 284.0 470.0 293.0 469.0 297.0 460.0 C 299.0 451.0 301.0 442.0 303.0 433.0 C 305.0 424.0 308.0 415.0 310.0 406.0 C 311.0 397.0 311.0 388.0 309.0 380.0 C 300.0 378.0 292.0 381.0 283.0 383.0 C 275.0 386.0 266.0 387.0 257.0 387.0 C 248.0 388.0 239.0 388.0 231.0 387.0 C 222.0 385.0 215.0 385.0 206.0 383.0 C 197.0 383.0 188.0 381.0 181.0 379.0 C 184.0 377.0 193.0 375.0 202.0 375.0 C 211.0 374.0 220.0 373.0 229.0 373.0 C 238.0 373.0 247.0 373.0 256.0 373.0 C 265.0 373.0 274.0 374.0 283.0 374.0 C 292.0 375.0 301.0 376.0 310.0 376.0 C 319.0 377.0 321.0 369.0 322.0 369.0" stroke-width="0.0" fill="rgb(243, 197, 96)" opacity="1.0" stroke="rgb(131, 54, 218)" stroke-opacity="0.6647498" stroke-linecap="round" stroke-linejoin="round"/>
  </g>
</svg>
