<?xml version="1.0" ?>
<svg xmlns="http://www.w3.org/2000/svg" version="1.1" width="474" height="596">
  <defs/>
  <g>
    <path d="M 265.6027526855469 -2.9875707626342773 C 266.9434509277344 -1.9807618856430054 267.9080810546875 -1.6689808368682861 269.38507080078125 -2.0271472930908203 C 269.5315856933594 -3.627847671508789 268.8218688964844 -5.11745023727417 269.9110412597656 -4.588892936706543 C 270.6556091308594 -5.150441646575928 270.5014343261719 -5.240174770355225 271.5550231933594 -5.2468671798706055 C 271.95977783203125 -4.970135688781738 272.94122314453125 -4.506771564483643 275.2565002441406 -3.363250494003296 C 276.41436767578125 -3.477062463760376 278.7503967285156 -2.050808906555176 293.13189697265625 -2.931210517883301 C 281.24456787109375 2.8237287998199463 289.5479431152344 0.89410799741745 299.0460510253906 4.268200397491455 C 304.5478820800781 5.737780570983887 311.77642822265625 8.24163818359375 318.574462890625 10.842954635620117 C 326.6745910644531 14.543074607849121 336.1417236328125 19.110074996948242 344.02203369140625 23.845041275024414 C 352.54791259765625 28.96390151977539 360.82586669921875 34.56383514404297 368.7540283203125 41.166160583496094 C 377.0267028808594 47.77996826171875 384.3988037109375 55.55029296875 392.10546875 63.15494155883789 C 399.4736328125 71.09949493408203 406.2033996582031 79.85759735107422 412.3640441894531 87.66616821289062 C 418.1665344238281 97.30154418945312 423.55572509765625 103.97604370117188 427.6872253417969 112.25157928466797 C 433.6956481933594 120.59465789794922 434.99237060546875 129.07037353515625 432.40985107421875 135.0939483642578 C 429.86004638671875 142.61158752441406 423.0578918457031 152.40701293945312 415.74493408203125 161.134765625 C 410.6661682128906 167.8762969970703 400.8710632324219 177.0855255126953 393.53289794921875 184.33531188964844 C 385.0877380371094 191.59173583984375 376.74102783203125 197.89308166503906 367.04876708984375 204.92308044433594 C 357.99530029296875 210.8728485107422 346.0522155761719 219.19410705566406 334.92645263671875 221.7859344482422 C 314.5797119140625 228.40394592285156 326.2789001464844 220.7566375732422 298.44549560546875 234.9610595703125 C 296.4901123046875 217.0022430419922 319.4047546386719 221.9203643798828 326.53131103515625 213.5137176513672 C 337.50653076171875 208.45558166503906 344.1358947753906 199.25987243652344 352.62420654296875 191.28846740722656 C 359.76483154296875 182.8927764892578 365.132568359375 173.4580841064453 366.88519287109375 162.91607666015625 C 367.86273193359375 154.83302307128906 370.27142333984375 145.59844970703125 366.0628662109375 142.06398010253906 C 367.4435119628906 130.97576904296875 364.2290344238281 122.13143920898438 361.70123291015625 113.47534942626953 C 354.7795715332031 107.44210052490234 349.79119873046875 100.42193603515625 344.4050598144531 98.10932922363281 C 336.4259338378906 95.55232238769531 350.5117492675781 97.60195922851562 342.3161315917969 111.15771484375 C 323.2261657714844 92.0418701171875 301.86553955078125 103.46627044677734 298.2492980957031 110.73402404785156 C 281.6191101074219 104.76206970214844 272.30682373046875 109.22880554199219 262.0731201171875 110.68399810791016 C 255.9688262939453 113.94649505615234 253.6894989013672 110.33203887939453 248.84182739257812 107.04369354248047 C 249.65150451660156 99.78861999511719 248.97642517089844 98.64318084716797 248.30715942382812 104.83597564697266 C 252.48123168945312 114.61952209472656 250.1080780029297 122.70988464355469 230.68994140625 121.71353149414062 C 211.79197692871094 124.98656463623047 227.5850067138672 132.9952850341797 205.61732482910156 139.8775177001953 C 211.79281616210938 154.84066772460938 244.0195770263672 123.23261260986328 219.90589904785156 166.3068389892578 C 200.883544921875 166.77894592285156 187.1358184814453 161.98606872558594 186.97177124023438 146.1275177001953 C 187.81532287597656 137.23374938964844 182.10092163085938 144.1035919189453 175.87200927734375 138.1375732421875 C 168.00360107421875 139.2097930908203 158.50209045410156 146.75234985351562 149.8360595703125 153.18551635742188 C 144.57896423339844 162.07229614257812 144.49658203125 169.17831420898438 146.49209594726562 178.82421875 C 144.75491333007812 187.89942932128906 148.9412841796875 197.29151916503906 155.1459197998047 204.00973510742188 C 160.3748779296875 212.77191162109375 168.5771026611328 219.88255310058594 178.18408203125 227.78746032714844 C 186.41282653808594 229.7804412841797 198.436279296875 231.86306762695312 202.37417602539062 236.95838928222656 C 208.12155151367188 239.57131958007812 215.6706085205078 235.96798706054688 243.43899536132812 246.22100830078125 C 211.06686401367188 246.5231170654297 203.20065307617188 245.63832092285156 192.11080932617188 246.47616577148438 C 189.95175170898438 238.61241149902344 181.63035583496094 244.0457305908203 174.3931427001953 239.63755798339844 C 171.96240234375 240.58041381835938 150.92572021484375 241.61328125 140.4577178955078 239.8448028564453 C 134.264892578125 239.52255249023438 121.3348159790039 236.93211364746094 110.27361297607422 233.9048614501953 C 103.12808990478516 232.02732849121094 95.15255737304688 228.85919189453125 86.1731948852539 225.5253448486328 C 78.0925521850586 222.291259765625 67.9688720703125 217.34982299804688 61.545169830322266 213.3725128173828 C 55.25284194946289 208.3745880126953 55.675289154052734 206.43246459960938 53.59189224243164 201.6036376953125 C 52.73204803466797 192.6522674560547 54.68854904174805 180.21815490722656 56.45614242553711 170.19711303710938 C 58.117618560791016 160.9632568359375 59.45201110839844 155.169921875 62.10981750488281 147.28689575195312 C 64.00745391845703 138.67459106445312 68.03120422363281 128.2972412109375 71.10675048828125 121.67129516601562 C 73.55730438232422 114.83526611328125 78.88672637939453 105.51420593261719 83.70907592773438 96.7680435180664 C 88.3987045288086 89.24539184570312 93.78882598876953 80.76590728759766 101.09346008300781 72.4153060913086 C 107.00469970703125 65.41651916503906 114.82101440429688 56.56615447998047 123.01349639892578 49.91529846191406 C 129.6581268310547 43.83259963989258 138.98870849609375 36.746585845947266 147.36924743652344 30.86330795288086 C 155.97555541992188 25.28066062927246 164.3391571044922 24.073068618774414 174.19383239746094 23.57935333251953 C 178.53048706054688 23.674362182617188 191.73399353027344 24.738426208496094 198.6018829345703 27.01318359375 C 221.73635864257812 32.201271057128906 210.6795196533203 35.76980209350586 211.50057983398438 15.46303939819336 C 218.10336303710938 35.40950393676758 215.2521514892578 27.194551467895508 223.7423095703125 29.948657989501953 C 232.4713134765625 20.262882232666016 237.6880645751953 13.58564567565918 248.8821563720703 7.6456522941589355 C 257.3827819824219 1.7289406061172485 270.3815002441406 1.10337233543396 265.6027526855469 -2.9875707626342773" stroke-width="0.0" fill="rgb(64, 38, 31)" opacity="0.9999748" stroke="rgb(200, 131, 241)" stroke-opacity="0.5338206" stroke-linecap="round" stroke-linejoin="round"/>
    <path d="M 367.3209533691406 126.40866088867188 C 365.8841552734375 157.01803588867188 359.2526550292969 184.81138610839844 339.70672607421875 202.62625122070312 C 296.4485168457031 206.38282775878906 303.08447265625 241.6173858642578 293.8175048828125 235.10256958007812 C 290.4599609375 251.74330139160156 281.6440734863281 254.69569396972656 284.90545654296875 257.536376953125 C 271.9441833496094 257.52752685546875 262.9331970214844 258.0279846191406 248.67933654785156 252.5530242919922 C 241.67234802246094 250.90174865722656 234.0277862548828 250.0596923828125 229.27354431152344 250.590576171875 C 228.7298126220703 248.80755615234375 232.11495971679688 249.4678955078125 239.29498291015625 250.3744659423828 C 248.81454467773438 250.107421875 257.7383117675781 258.7297668457031 273.09686279296875 256.4173583984375 C 284.0453796386719 255.9423065185547 289.8945617675781 271.4432678222656 292.600341796875 279.73577880859375 C 303.5510559082031 293.19970703125 309.54791259765625 305.9552917480469 311.4100341796875 308.839599609375 C 311.90496826171875 315.7109069824219 310.1667175292969 331.1687927246094 310.5601501464844 308.7453308105469 C 304.2116394042969 295.2375793457031 294.70269775390625 283.8886413574219 282.98602294921875 259.3888854980469 C 276.9072570800781 261.5731201171875 287.7474365234375 253.03750610351562 293.23748779296875 239.1586151123047 C 308.1617736816406 241.40274047851562 332.44696044921875 244.46702575683594 360.8262023925781 260.0009765625 C 370.2430419921875 270.85797119140625 377.9744567871094 270.73394775390625 392.5489807128906 279.9732360839844 C 406.0587463378906 287.682861328125 410.1315612792969 293.4438781738281 412.4756774902344 295.0210266113281 C 434.187255859375 285.61004638671875 429.5256042480469 293.0833740234375 441.8460998535156 278.5933532714844 C 445.1387023925781 297.1281433105469 457.0071105957031 312.48614501953125 467.5795593261719 334.6541442871094 C 447.69140625 367.2296142578125 443.7494201660156 323.4821472167969 439.7618103027344 363.3054504394531 C 425.2966613769531 340.68505859375 386.7183837890625 325.5950012207031 370.06134033203125 327.7431335449219 C 325.9175720214844 315.58575439453125 353.9248962402344 335.9477233886719 327.9943542480469 320.7455749511719 C 315.2751770019531 349.3869323730469 332.8265075683594 390.0333557128906 316.83392333984375 380.7110290527344 C 314.8085021972656 412.7769470214844 304.48358154296875 450.42108154296875 296.2997131347656 463.37701416015625 C 286.3545227050781 474.8505554199219 287.17779541015625 516.233642578125 287.5623474121094 528.5130004882812 C 275.04541015625 534.4412231445312 256.5619812011719 535.62060546875 239.6878204345703 530.4404907226562 C 239.9655303955078 541.7490844726562 237.933349609375 545.5955200195312 238.60047912597656 563.4199829101562 C 253.04815673828125 569.9010009765625 264.3338928222656 571.7564697265625 302.39874267578125 571.432373046875 C 317.1142272949219 572.3193359375 330.500244140625 570.5396728515625 340.0985107421875 571.9885864257812 C 336.0680236816406 580.6846923828125 325.67681884765625 584.3382568359375 300.9125061035156 584.592529296875 C 280.39886474609375 584.8549194335938 241.0715789794922 582.212158203125 238.63140869140625 576.40087890625 C 227.46592712402344 570.2401123046875 237.5443115234375 530.3578491210938 236.36090087890625 506.0793762207031 C 245.1682891845703 511.58294677734375 243.27008056640625 451.8338317871094 238.67190551757812 455.5871276855469 C 220.01046752929688 450.0692443847656 233.1332244873047 461.5260925292969 224.69467163085938 474.59478759765625 C 212.7017364501953 474.87774658203125 216.7145538330078 482.0591735839844 213.58485412597656 491.4934387207031 C 212.5372772216797 500.0241394042969 209.9663848876953 510.51165771484375 211.96795654296875 516.8707885742188 C 213.55947875976562 533.7111206054688 215.82940673828125 550.8265991210938 217.5164794921875 570.3359375 C 201.89186096191406 573.8896484375 211.70506286621094 582.427734375 175.13323974609375 591.7569580078125 C 156.82351684570312 598.2151489257812 122.01853942871094 597.5728759765625 118.07032775878906 587.4519653320312 C 114.26946258544922 570.5858154296875 123.87247467041016 578.5386352539062 144.05508422851562 582.5755615234375 C 163.5702362060547 580.9859008789062 188.05259704589844 574.7259521484375 212.8446807861328 573.0573120117188 C 214.36126708984375 582.8368530273438 213.2743682861328 549.45166015625 209.54734802246094 530.4334716796875 C 194.1699676513672 538.0377197265625 178.65330505371094 539.9757690429688 158.7938232421875 526.8589477539062 C 163.72451782226562 522.4081420898438 140.2398223876953 525.2611083984375 157.51731872558594 507.1520080566406 C 179.53036499023438 503.7024841308594 171.81820678710938 471.21502685546875 158.05955505371094 468.4423522949219 C 155.44476318359375 439.4328918457031 151.5770263671875 410.7171325683594 152.57705688476562 398.17059326171875 C 125.82909393310547 399.42047119140625 113.44441986083984 386.128662109375 114.4842758178711 362.8493957519531 C 108.51378631591797 338.9600830078125 128.3684539794922 339.1685485839844 91.6837387084961 354.6780090332031 C 68.35050964355469 363.0062255859375 75.54068756103516 389.47491455078125 40.7495002746582 386.47540283203125 C 32.96322250366211 347.4706115722656 33.15927505493164 333.71954345703125 55.7408561706543 323.9592590332031 C 64.51628875732422 310.2305603027344 78.18244171142578 298.3175048828125 91.84017944335938 288.0466003417969 C 82.74571990966797 284.2727966308594 102.23365020751953 270.58001708984375 114.79890441894531 262.8622131347656 C 131.16542053222656 252.60032653808594 145.67300415039062 246.12525939941406 168.02163696289062 239.66493225097656 C 194.3566436767578 235.4055938720703 193.5208282470703 242.33323669433594 204.76051330566406 242.98834228515625 C 188.08731079101562 260.81787109375 183.381591796875 284.78826904296875 172.63067626953125 304.9461975097656 C 166.99058532714844 321.6324157714844 162.5185546875 336.73016357421875 156.05987548828125 345.6906433105469 C 153.67384338378906 352.1489562988281 154.58258056640625 357.91558837890625 153.48123168945312 353.219482421875 C 151.83912658691406 344.7314758300781 162.2892608642578 340.6337890625 164.07119750976562 327.427734375 C 171.4727783203125 311.0141906738281 179.64208984375 293.5838317871094 186.5223846435547 273.2806091308594 C 191.27935791015625 242.3704833984375 173.8644256591797 237.8929901123047 239.34646606445312 248.83982849121094 C 231.55795288085938 222.54661560058594 206.53773498535156 211.90512084960938 200.91159057617188 190.41754150390625 C 206.92434692382812 169.84506225585938 218.36009216308594 147.32571411132812 367.3209533691406 126.40866088867188" stroke-width="0.0" fill="rgb(232, 106, 162)" opacity="0.9980482" stroke="rgb(44, 183, 177)" stroke-opacity="0.06237474" stroke-linecap="round" stroke-linejoin="round"/>
    <path d="M 236.14256286621094 89.74095916748047 C 246.4816131591797 96.01032257080078 255.03515625 102.87390899658203 259.1827697753906 110.62327575683594 C 260.11846923828125 109.69184875488281 274.154541015625 107.91338348388672 268.7399597167969 107.97254943847656 C 281.49725341796875 105.73294830322266 291.0976867675781 102.19890594482422 315.1733703613281 98.63441467285156 C 292.3996887207031 106.25166320800781 305.0792236328125 104.33021545410156 317.2835388183594 104.14557647705078 C 318.6810302734375 106.45414733886719 320.9389343261719 103.66436767578125 327.9352111816406 112.11193084716797 C 329.82000732421875 116.5190658569336 329.9460144042969 123.11074829101562 330.32275390625 117.35885620117188 C 331.4029235839844 136.50820922851562 327.7051696777344 129.35813903808594 307.11688232421875 141.32260131835938 C 333.9673156738281 136.65234375 333.68646240234375 129.82679748535156 343.95843505859375 127.65397644042969 C 344.99090576171875 125.07329559326172 346.80267333984375 125.53466796875 344.2037658691406 108.78564453125 C 347.9593200683594 123.50851440429688 342.4918518066406 113.65015411376953 342.1494445800781 108.28253936767578 C 335.8454895019531 103.05733489990234 328.0669250488281 96.48086547851562 307.4136047363281 99.69417572021484 C 315.44818115234375 97.69235229492188 328.8403015136719 96.7764892578125 334.4623107910156 94.4854736328125 C 335.6895446777344 95.40658569335938 347.3960266113281 93.02767944335938 346.6165771484375 95.11709594726562 C 352.4143981933594 100.29761505126953 358.3680114746094 106.87957000732422 361.4361267089844 111.0649642944336 C 365.822265625 118.74137115478516 368.4295349121094 124.61210632324219 370.3990783691406 136.0269012451172 C 370.7908935546875 142.5907745361328 371.4449157714844 140.80555725097656 370.6549072265625 152.5574493408203 C 369.3570556640625 162.16952514648438 367.4554443359375 168.0140380859375 365.7943420410156 171.2370147705078 C 363.514404296875 177.4879608154297 359.5264587402344 184.38034057617188 356.7281188964844 187.92770385742188 C 354.1951904296875 191.37359619140625 347.2180480957031 200.41416931152344 345.7518005371094 200.88951110839844 C 344.9673767089844 201.71446228027344 340.44195556640625 206.08868408203125 335.071044921875 210.50421142578125 C 330.6361083984375 213.72079467773438 324.8685302734375 218.21075439453125 321.4340515136719 219.7913818359375 C 318.5301818847656 221.7576446533203 310.752197265625 225.7947540283203 303.8525390625 229.31455993652344 C 300.0790100097656 230.9835968017578 295.3078918457031 232.55613708496094 292.870361328125 234.29873657226562 C 295.47576904296875 232.8630828857422 288.6566162109375 235.80657958984375 284.59735107421875 236.26248168945312 C 283.9285888671875 236.97430419921875 281.6404724121094 236.8278045654297 282.9543151855469 236.72962951660156 C 280.1419372558594 238.50257873535156 276.6854553222656 237.41334533691406 277.3450927734375 238.1783447265625 C 275.40679931640625 239.37094116210938 271.1066589355469 238.35528564453125 272.406005859375 239.37615966796875 C 273.7812805175781 240.072265625 270.2510986328125 238.86676025390625 265.7444152832031 240.3072509765625 C 262.9037170410156 240.83030700683594 258.57635498046875 241.6551971435547 255.34503173828125 242.26173400878906 C 253.72169494628906 242.39028930664062 249.59527587890625 242.5188446044922 245.4392852783203 243.12603759765625 C 242.3529815673828 243.41510009765625 235.729736328125 244.1402130126953 236.913330078125 244.34945678710938 C 235.5889129638672 243.6670684814453 229.4047088623047 245.91787719726562 238.52810668945312 243.58425903320312 C 230.4781036376953 244.30636596679688 219.90090942382812 243.57684326171875 210.94073486328125 241.65989685058594 C 206.74459838867188 241.14549255371094 198.4556427001953 238.59188842773438 193.47509765625 236.36456298828125 C 189.6472625732422 235.37721252441406 182.2096405029297 231.15057373046875 179.74395751953125 229.69686889648438 C 171.366455078125 224.7263946533203 167.37319946289062 220.97059631347656 163.13157653808594 217.2345733642578 C 158.79852294921875 213.31163024902344 152.83737182617188 206.4532012939453 149.83018493652344 199.8856964111328 C 145.90548706054688 192.8574676513672 144.86622619628906 187.4796600341797 143.72752380371094 182.37939453125 C 142.15853881835938 170.39002990722656 142.9578094482422 162.50843811035156 147.08450317382812 152.33323669433594 C 143.79315185546875 152.46287536621094 152.12600708007812 149.5636444091797 156.37083435058594 145.06741333007812 C 157.9147186279297 137.79978942871094 157.74270629882812 130.17970275878906 157.684326171875 122.33966827392578 C 160.994873046875 128.14627075195312 166.21522521972656 138.41099548339844 166.75657653808594 138.58731079101562 C 169.52633666992188 139.07859802246094 175.41217041015625 135.88626098632812 178.38134765625 134.15032958984375 C 185.6178436279297 131.25547790527344 196.8804931640625 126.1783218383789 202.40283203125 125.72759246826172 C 178.56512451171875 138.66653442382812 189.13522338867188 141.4189453125 183.59295654296875 151.0338592529297 C 184.5640869140625 158.21463012695312 184.5595703125 168.10655212402344 193.18008422851562 166.39076232910156 C 210.64634704589844 163.25057983398438 200.15579223632812 169.092529296875 221.93655395507812 162.42979431152344 C 232.798828125 138.2347869873047 232.3680419921875 145.68434143066406 211.2059326171875 143.99517822265625 C 215.1370086669922 132.94171142578125 207.2686309814453 142.21006774902344 221.1033935546875 128.06674194335938 C 220.8389892578125 130.02911376953125 227.48281860351562 133.63401794433594 226.61972045898438 137.05006408691406 C 230.8012237548828 140.58192443847656 227.14390563964844 152.82826232910156 226.5513153076172 154.30374145507812 C 227.17918395996094 154.35414123535156 222.4033660888672 159.165283203125 218.61512756347656 162.04031372070312 C 226.77206420898438 158.17218017578125 228.05130004882812 163.3343963623047 237.76889038085938 157.46432495117188 C 247.00869750976562 155.53334045410156 239.9752197265625 153.57444763183594 245.3898468017578 150.78343200683594 C 243.96636962890625 143.50180053710938 242.6219940185547 137.311279296875 236.5367431640625 132.80564880371094 C 231.68829345703125 126.98974609375 214.47474670410156 127.2253646850586 223.38880920410156 125.15571594238281 C 205.14060974121094 123.02123260498047 205.6672821044922 127.65814208984375 196.983154296875 126.5147705078125 C 213.911865234375 120.82616424560547 222.3997039794922 119.15087127685547 225.42071533203125 118.07522583007812 C 231.57911682128906 116.53648376464844 241.12095642089844 115.58592987060547 245.53273010253906 114.17700958251953 C 245.30645751953125 115.65398406982422 251.1699981689453 115.15005493164062 236.14256286621094 89.74095916748047" stroke-width="0.0" fill="rgb(251, 188, 103)" opacity="1.0" stroke="rgb(249, 18, 118)" stroke-opacity="0.9835308" stroke-linecap="round" stroke-linejoin="round"/>
    <path d="M 300.89764404296875 377.5813293457031 C 289.2384948730469 376.5736083984375 300.9878845214844 376.1753845214844 306.58380126953125 376.6340026855469 C 305.44378662109375 378.68695068359375 315.0447082519531 376.16741943359375 308.54217529296875 378.6589660644531 C 313.3613586425781 377.92828369140625 315.9217529296875 380.38238525390625 315.8669738769531 382.3798522949219 C 316.2619323730469 390.5330505371094 315.0790710449219 395.8512268066406 314.0600280761719 402.761474609375 C 312.6682434082031 411.46527099609375 310.2467346191406 420.7442321777344 308.2774963378906 431.110107421875 C 305.38275146484375 440.39080810546875 303.73272705078125 448.9742431640625 302.1009521484375 455.32098388671875 C 299.5890197753906 468.8789367675781 301.0577697753906 469.9312438964844 296.1225891113281 471.81207275390625 C 287.4764099121094 476.12799072265625 283.61444091796875 478.8047180175781 288.2378845214844 473.1109313964844 C 275.64324951171875 475.45892333984375 267.60498046875 473.8019714355469 257.8241882324219 471.870849609375 C 249.74169921875 474.130615234375 248.4545135498047 466.3030700683594 246.84835815429688 474.6703186035156 C 245.0744171142578 490.507080078125 245.0955352783203 500.3096618652344 243.16851806640625 505.1783447265625 C 253.8133087158203 506.5307922363281 260.5071716308594 512.990234375 275.6305236816406 510.4785461425781 C 282.2677917480469 510.56634521484375 281.6852111816406 503.6898193359375 296.08221435546875 505.68316650390625 C 303.7745056152344 508.32769775390625 307.8086853027344 511.7170104980469 303.32354736328125 517.9378051757812 C 296.0408630371094 523.2958374023438 295.8385925292969 513.189453125 290.123291015625 526.35546875 C 297.15887451171875 529.4794921875 305.3168029785156 547.1497802734375 315.087158203125 544.3740844726562 C 325.1280822753906 553.2756958007812 336.8802490234375 550.8619995117188 340.1663818359375 562.34375 C 345.8287048339844 554.8716430664062 343.34259033203125 573.0172119140625 340.8531188964844 576.0335693359375 C 334.1968078613281 579.5995483398438 324.6633605957031 581.961669921875 324.1867370605469 580.466552734375 C 232.48609924316406 581.0364990234375 252.8033447265625 582.5245971679688 305.4185791015625 584.4135131835938 C 336.1422119140625 582.0239868164062 313.1042785644531 581.976806640625 336.1200866699219 575.30908203125 C 342.8961486816406 573.194580078125 336.2778015136719 560.8197021484375 343.1575622558594 561.1571655273438 C 337.2516784667969 547.5235595703125 325.4100646972656 548.8121948242188 316.7510986328125 541.69091796875 C 299.6273498535156 537.4971923828125 301.6240539550781 526.9830322265625 294.4566650390625 536.7145385742188 C 281.0924987792969 508.91436767578125 266.6077880859375 533.5155029296875 260.25091552734375 523.0919799804688 C 243.85284423828125 536.5887451171875 247.22657775878906 526.1860961914062 241.89382934570312 518.825439453125 C 238.53268432617188 529.238037109375 238.71823120117188 551.176025390625 238.24453735351562 540.8508911132812 C 239.58544921875 554.4768676757812 233.24423217773438 570.6704711914062 245.2045135498047 578.9440307617188 C 230.0163116455078 577.2220458984375 234.5998077392578 557.1367797851562 234.1798095703125 546.2823486328125 C 235.0827178955078 535.064208984375 236.5670928955078 525.6424560546875 236.37164306640625 512.46142578125 C 238.9862060546875 506.5484313964844 242.9146270751953 500.6173400878906 242.49151611328125 490.89990234375 C 243.75189208984375 485.1703186035156 242.99111938476562 476.0158996582031 242.38990783691406 469.35638427734375 C 232.6464080810547 466.8244323730469 234.53927612304688 469.6710510253906 231.9573974609375 452.5121154785156 C 233.5144500732422 457.3911437988281 227.3507537841797 452.6026306152344 227.6673126220703 456.07403564453125 C 227.93084716796875 460.6861572265625 225.06625366210938 476.982177734375 227.1248016357422 472.4017028808594 C 208.79531860351562 475.3617248535156 215.19212341308594 492.79278564453125 208.62765502929688 475.06195068359375 C 190.8877410888672 474.9896545410156 180.29864501953125 475.3756408691406 167.53431701660156 472.2001647949219 C 172.96241760253906 480.7171630859375 173.60220336914062 487.2796630859375 171.60707092285156 490.3825378417969 C 168.56707763671875 505.3992004394531 167.11575317382812 508.64019775390625 173.87359619140625 508.1393127441406 C 185.4242706298828 512.94921875 196.52670288085938 513.1648559570312 208.6238250732422 508.1324462890625 C 204.35585021972656 507.32733154296875 214.6016387939453 507.17547607421875 218.74127197265625 511.43804931640625 C 220.79263305664062 510.5799255371094 221.8726043701172 522.1470947265625 219.1277618408203 521.1625366210938 C 210.57139587402344 528.1324462890625 200.28358459472656 519.2632446289062 196.13742065429688 528.8257446289062 C 185.65602111816406 525.4223022460938 173.36595153808594 531.8973388671875 163.34332275390625 527.6784057617188 C 148.58663940429688 550.2648315429688 169.48912048339844 520.1310424804688 152.36558532714844 520.8262329101562 C 150.24903869628906 512.3360595703125 155.9326171875 507.3093566894531 165.43394470214844 505.31756591796875 C 164.56431579589844 499.5495910644531 168.69009399414062 481.7547607421875 164.49560546875 472.8190002441406 C 161.07481384277344 471.9915771484375 157.14109802246094 470.7109375 158.0487060546875 462.0799560546875 C 156.1664276123047 449.534912109375 155.77542114257812 435.61895751953125 154.13540649414062 426.1746826171875 C 152.72596740722656 404.2119140625 151.3876190185547 398.7200622558594 154.73779296875 394.41070556640625 C 154.81570434570312 388.04486083984375 151.68289184570312 380.4380798339844 165.70285034179688 381.5042419433594 C 161.86915588378906 378.4445495605469 185.05320739746094 378.32110595703125 193.7410125732422 380.87042236328125 C 200.7356719970703 381.08184814453125 212.5126190185547 384.1688537597656 219.30416870117188 385.6891784667969 C 229.2787322998047 385.51300048828125 238.0701904296875 386.7525939941406 246.13519287109375 386.8937683105469 C 250.87034606933594 386.7133483886719 254.0808868408203 386.4384460449219 256.5845031738281 386.33917236328125 C 256.71728515625 385.44158935546875 256.4729919433594 382.81793212890625 255.11431884765625 382.2250671386719 C 254.48477172851562 381.1617431640625 253.15272521972656 381.9563293457031 249.88943481445312 381.8628234863281 C 252.18197631835938 384.01123046875 254.78614807128906 379.904052734375 256.3516845703125 385.1580505371094 C 257.0336608886719 386.2706604003906 263.1965026855469 385.4743957519531 265.0064697265625 384.671875 C 268.4198913574219 384.84613037109375 278.7577209472656 383.7479553222656 300.89764404296875 377.5813293457031" stroke-width="0.0" fill="rgb(234, 82, 10)" opacity="0.99890614" stroke="rgb(229, 34, 200)" stroke-opacity="0.44484466" stroke-linecap="round" stroke-linejoin="round"/>
    <path d="M 183.2950897216797 240.79527282714844 C 186.54171752929688 236.9995880126953 192.32977294921875 241.9240264892578 186.44056701660156 237.56369018554688 C 198.1499481201172 241.9069061279297 202.55996704101562 242.61346435546875 200.29464721679688 243.81190490722656 C 202.40887451171875 242.34925842285156 204.15121459960938 244.6885986328125 202.6315460205078 243.2539825439453 C 201.01353454589844 249.1769256591797 199.72947692871094 257.32733154296875 198.1343994140625 256.30657958984375 C 199.38751220703125 259.79730224609375 195.81224060058594 262.2441101074219 195.11163330078125 268.37261962890625 C 194.0020294189453 268.4087219238281 195.0640411376953 279.11578369140625 193.5256805419922 281.3983459472656 C 194.7073516845703 289.5985412597656 191.0331268310547 284.721435546875 191.7993927001953 294.1005554199219 C 186.83018493652344 300.10418701171875 186.13722229003906 302.5282897949219 180.703125 301.2281799316406 C 178.10401916503906 301.93804931640625 174.76620483398438 309.10540771484375 175.7383575439453 310.12225341796875 C 172.45046997070312 313.49237060546875 172.10336303710938 318.2721862792969 169.75271606445312 322.3227233886719 C 168.8627471923828 325.4307861328125 167.87188720703125 331.3866271972656 164.32693481445312 334.184326171875 C 164.7183837890625 334.8865966796875 162.6492156982422 342.76422119140625 160.27947998046875 347.1882019042969 C 160.98458862304688 349.49658203125 157.60977172851562 353.73406982421875 158.2205810546875 358.2668151855469 C 151.50743103027344 363.31610107421875 156.36767578125 361.0409240722656 153.5186309814453 372.02587890625 C 156.67898559570312 378.3172912597656 154.18826293945312 384.5538635253906 157.25173950195312 387.10662841796875 C 154.1753387451172 389.3051452636719 156.70443725585938 397.31878662109375 153.5868377685547 397.7647705078125 C 154.50381469726562 404.6296691894531 152.75440979003906 408.1274719238281 154.4886016845703 409.40045166015625 C 156.2347869873047 410.4046630859375 155.74896240234375 410.77899169921875 155.2390594482422 410.07440185546875 C 155.4069061279297 410.7342834472656 154.89450073242188 410.2602844238281 154.1427001953125 408.77960205078125 C 154.47792053222656 401.2061767578125 153.59896850585938 395.3529052734375 155.9444580078125 399.8458557128906 C 153.30511474609375 397.508544921875 147.11785888671875 398.41375732421875 151.46815490722656 397.2174987792969 C 146.60406494140625 398.90716552734375 133.03553771972656 397.3140869140625 129.1901092529297 393.37908935546875 C 124.29203033447266 391.843505859375 122.19709777832031 389.094482421875 117.33633422851562 381.6932067871094 C 115.1864242553711 374.4974670410156 113.62689208984375 368.66510009765625 114.04496002197266 361.419189453125 C 111.67058563232422 360.8997497558594 114.32500457763672 343.5841064453125 114.51731872558594 349.174072265625 C 114.5649642944336 340.68212890625 113.28146362304688 342.0495300292969 105.64305877685547 344.5841064453125 C 116.19047546386719 343.2313537597656 112.802734375 344.9069519042969 94.61331176757812 353.2567138671875 C 89.69024658203125 355.36737060546875 82.89640808105469 347.2613830566406 84.01410675048828 360.51629638671875 C 69.64524841308594 366.40557861328125 67.24041748046875 377.28759765625 60.04423522949219 377.3511962890625 C 58.871158599853516 374.2618103027344 60.508052825927734 385.7048645019531 59.1815185546875 395.2765197753906 C 57.96772766113281 388.29901123046875 61.03995895385742 403.505615234375 52.613548278808594 405.7371520996094 C 40.82179260253906 401.2969665527344 47.774051666259766 394.31878662109375 46.336307525634766 392.499755859375 C 46.235015869140625 393.2463684082031 41.02297592163086 388.32965087890625 44.5551872253418 386.3050842285156 C 38.81272506713867 388.5445251464844 38.90853500366211 397.0619201660156 33.91541290283203 398.94134521484375 C 34.55656814575195 402.9396057128906 23.425493240356445 402.910888671875 22.82725715637207 397.4970703125 C 23.110366821289062 401.7735900878906 21.293846130371094 396.927978515625 23.22254180908203 383.21539306640625 C 21.909374237060547 388.0738525390625 20.453004837036133 384.0929260253906 18.610614776611328 379.681396484375 C 15.629430770874023 375.45306396484375 15.752145767211914 370.8221740722656 17.967784881591797 365.8124084472656 C 17.90926170349121 361.1905517578125 17.602325439453125 356.3001708984375 16.562198638916016 354.8818359375 C 10.876686096191406 350.3948974609375 16.11695671081543 347.6853332519531 21.89541244506836 340.68988037109375 C 18.477575302124023 331.3317565917969 11.467316627502441 322.9623107910156 23.119260787963867 320.3443908691406 C 19.017684936523438 326.8834533691406 20.942636489868164 327.2016296386719 25.10120391845703 328.4576110839844 C 29.543630599975586 329.3984375 35.2917594909668 330.5166015625 40.16425323486328 330.08795166015625 C 47.935794830322266 330.83355712890625 49.3028450012207 327.6976623535156 55.07558822631836 324.1781921386719 C 59.81476593017578 320.3263854980469 62.58092498779297 310.511474609375 71.09298706054688 307.8148193359375 C 76.86455535888672 310.7262268066406 80.65214538574219 306.5137634277344 84.42127227783203 302.98834228515625 C 87.87594604492188 299.202880859375 91.13862609863281 296.2811279296875 94.18475341796875 294.4166564941406 C 96.98198699951172 293.2293701171875 99.79190826416016 292.6175842285156 102.21917724609375 293.01318359375 C 104.38542175292969 294.56903076171875 106.7989273071289 296.9150085449219 109.08772277832031 299.9917907714844 C 110.9808349609375 303.822265625 112.90579986572266 308.1440124511719 115.34071350097656 312.51068115234375 C 117.5379409790039 317.03961181640625 119.27824401855469 321.6159362792969 121.3113021850586 326.1952209472656 C 122.10114288330078 330.8262939453125 122.90777587890625 333.5463562011719 130.28555297851562 332.32196044921875 C 136.02674865722656 333.1390380859375 135.9621124267578 330.83709716796875 140.17684936523438 329.20538330078125 C 143.59286499023438 322.7103576660156 149.20310974121094 324.92742919921875 152.31033325195312 319.5113525390625 C 151.55784606933594 316.220458984375 155.1177520751953 310.8695068359375 155.92991638183594 305.5318603515625 C 157.42254638671875 300.48822021484375 160.59115600585938 292.85601806640625 156.92459106445312 292.42352294921875 C 154.4878387451172 288.2648620605469 155.7938995361328 281.6261901855469 155.6453399658203 280.09796142578125 C 158.9969024658203 271.1918029785156 162.5717010498047 264.1907653808594 166.6510009765625 259.2225341796875 C 169.26846313476562 254.96047973632812 172.24368286132812 250.5982208251953 178.09207153320312 244.82144165039062 C 184.30078125 239.91761779785156 179.6339111328125 238.61111450195312 183.2950897216797 240.79527282714844" stroke-width="0.0" fill="rgb(157, 135, 186)" opacity="0.9999932" stroke="rgb(107, 159, 52)" stroke-opacity="0.43928063" stroke-linecap="round" stroke-linejoin="round"/>
    <path d="M 92.56040954589844 289.98065185546875 C 96.9561996459961 285.417724609375 99.1324691772461 286.3240051269531 99.90693664550781 286.46685791015625 C 100.40746307373047 284.3991394042969 102.04473876953125 292.89483642578125 100.97408294677734 285.71258544921875 C 101.4361572265625 288.83074951171875 108.0837173461914 292.53631591796875 110.52857971191406 295.7874450683594 C 105.79268646240234 289.3865661621094 108.5594711303711 292.45941162109375 106.51525115966797 289.5924377441406 C 109.61956787109375 293.26348876953125 112.21658325195312 300.2933654785156 116.11637115478516 303.1576843261719 C 111.67897033691406 296.26690673828125 110.30435943603516 297.6012878417969 106.71736145019531 291.2121276855469 C 114.68622589111328 299.45550537109375 117.32882690429688 307.8150939941406 115.8694076538086 304.5436706542969 C 112.10379791259766 299.6087341308594 116.88114166259766 301.7073059082031 118.93633270263672 309.3974304199219 C 118.69253540039062 304.8468933105469 118.33074951171875 308.4215393066406 119.09949493408203 306.1411437988281 C 118.37984466552734 306.2841796875 120.03701782226562 311.1209716796875 118.3336410522461 303.5675048828125 C 119.20672607421875 310.32159423828125 120.98314666748047 311.03759765625 123.14070129394531 318.30389404296875 C 121.08512115478516 308.29754638671875 121.71944427490234 313.6967468261719 124.4012451171875 318.50091552734375 C 123.13917541503906 315.2890319824219 123.56551361083984 317.49713134765625 123.14624786376953 315.13604736328125 C 123.84200286865234 317.5731201171875 124.28263854980469 323.8034362792969 124.73490905761719 318.2104797363281 C 124.4411849975586 316.9610290527344 124.24242401123047 326.1080627441406 126.12309265136719 333.54901123046875 C 124.72306060791016 323.31451416015625 125.82018280029297 324.44635009765625 126.49378967285156 329.9718933105469 C 128.31332397460938 326.5037536621094 126.55934143066406 330.489501953125 123.44882202148438 334.2561340332031 C 126.92291259765625 327.701416015625 126.38722229003906 332.68927001953125 125.47450256347656 333.4604187011719 C 127.44404602050781 329.5123291015625 125.01309204101562 333.8336181640625 127.65552520751953 330.9865417480469 C 127.17493438720703 332.21270751953125 117.9341812133789 335.91693115234375 116.20806884765625 338.5656433105469 C 119.3827896118164 336.03753662109375 117.56083679199219 339.2271423339844 118.72039031982422 337.4028015136719 C 114.0246810913086 338.6504821777344 109.52787017822266 342.7248840332031 109.14598083496094 342.1809387207031 C 106.32443237304688 344.1202087402344 99.85850524902344 347.234130859375 93.14765930175781 350.27880859375 C 89.17073059082031 351.27392578125 89.79171752929688 353.0926818847656 79.33995819091797 352.5599365234375 C 91.36953735351562 357.3463134765625 88.0406723022461 360.11358642578125 88.38184356689453 354.9740295410156 C 91.56444549560547 361.248779296875 89.8057632446289 364.6687316894531 81.79166412353516 365.7430114746094 C 79.51409912109375 361.689208984375 77.94620513916016 371.7693176269531 81.51065826416016 352.2486877441406 C 75.6390609741211 357.2453308105469 76.2295913696289 364.22100830078125 69.28953552246094 371.31439208984375 C 68.7633285522461 373.060302734375 63.49614715576172 377.8641662597656 61.50296401977539 379.362548828125 C 55.84297561645508 381.40850830078125 56.15321350097656 384.1703796386719 56.437686920166016 389.8795166015625 C 56.18601608276367 394.1777648925781 56.502220153808594 404.1792297363281 50.55702209472656 400.8367004394531 C 54.05997085571289 407.3537902832031 46.208797454833984 402.04779052734375 56.180686950683594 403.9371032714844 C 48.56649398803711 403.2563171386719 44.540714263916016 400.2189025878906 54.40513610839844 404.584228515625 C 44.813087463378906 401.8515625 47.897647857666016 377.1216125488281 45.315948486328125 398.66796875 C 44.37303161621094 393.58917236328125 40.721580505371094 377.42816162109375 45.14759826660156 394.0635986328125 C 48.173702239990234 376.1189270019531 39.99772262573242 382.0054016113281 39.00197219848633 386.26458740234375 C 35.02476119995117 390.6494140625 34.31584167480469 395.6365661621094 28.154434204101562 398.93768310546875 C 18.334321975708008 392.9378356933594 34.52689743041992 378.3523864746094 23.183305740356445 383.49957275390625 C 23.336288452148438 397.0767517089844 8.299994468688965 393.7183532714844 9.482836723327637 386.8195495605469 C 13.305508613586426 385.2928771972656 15.352195739746094 388.8961486816406 12.257011413574219 387.260986328125 C 6.519709587097168 389.3851623535156 10.159635543823242 379.4999694824219 19.45260238647461 368.20867919921875 C 23.466773986816406 373.8277282714844 13.160126686096191 373.8748779296875 7.992205619812012 377.5827331542969 C 8.204819679260254 379.93975830078125 -5.201939105987549 377.890625 3.971269130706787 372.8373107910156 C -2.838959217071533 379.6974792480469 0.7977214455604553 377.82122802734375 0.2206854373216629 372.51416015625 C -0.43750858306884766 370.74554443359375 3.68464732170105 363.9473876953125 7.7198028564453125 358.15411376953125 C 10.43561840057373 357.5295715332031 14.342466354370117 347.15704345703125 13.535722732543945 351.55023193359375 C 18.518354415893555 357.0341796875 19.520706176757812 339.7729797363281 28.404590606689453 345.1528015136719 C 21.771366119384766 335.1558837890625 20.173175811767578 331.2449951171875 20.03205680847168 326.15380859375 C 16.10209083557129 332.160400390625 28.948505401611328 312.9822998046875 19.455631256103516 322.5061340332031 C 19.594736099243164 318.2689514160156 28.475004196166992 318.35125732421875 27.958890914916992 323.1695861816406 C 25.51947021484375 320.0209655761719 33.51793670654297 325.3908386230469 34.93069076538086 328.434814453125 C 43.010223388671875 329.8872375488281 26.982446670532227 329.80462646484375 39.84768295288086 333.4329528808594 C 63.867984771728516 332.2547607421875 60.0052490234375 335.8291015625 46.750667572021484 327.9544677734375 C 44.237552642822266 322.35467529296875 51.93903732299805 319.205322265625 50.64654541015625 320.201904296875 C 56.0700798034668 320.4959411621094 57.303165435791016 318.8482971191406 57.283607482910156 325.4425354003906 C 59.91073989868164 324.6488952636719 61.73589324951172 320.5823669433594 64.49072265625 316.774658203125 C 67.91165161132812 314.87432861328125 69.9140396118164 310.5683898925781 73.10140228271484 308.0107727050781 C 76.86190795898438 304.21673583984375 80.33636474609375 300.6110534667969 82.3121337890625 298.92718505859375 C 85.47647094726562 296.425048828125 89.79244232177734 292.2661437988281 93.45162963867188 289.79339599609375 C 97.97346496582031 287.2283020019531 98.3393325805664 284.9519958496094 92.56040954589844 289.98065185546875" stroke-width="0.0" fill="rgb(248, 189, 111)" opacity="1.0" stroke="rgb(23, 122, 97)" stroke-opacity="0.88492876" stroke-linecap="round" stroke-linejoin="round"/>
    <path d="M 386.4130554199219 280.2460632324219 C 386.3436279296875 280.0047302246094 386.437255859375 280.0115966796875 386.5766296386719 281.242919921875 C 382.9515686035156 278.1485900878906 384.5335388183594 281.41607666015625 385.90234375 280.2025451660156 C 384.962890625 278.7557678222656 385.46710205078125 280.0126953125 386.754150390625 280.2401428222656 C 387.3415832519531 281.78533935546875 389.7427673339844 281.80499267578125 391.9206237792969 283.2926330566406 C 394.03631591796875 284.5902404785156 396.37908935546875 286.6638488769531 401.60418701171875 290.75701904296875 C 407.7497253417969 293.9217529296875 402.99114990234375 291.9518127441406 401.511474609375 292.6744079589844 C 396.6450500488281 294.1419372558594 394.1575927734375 297.9136962890625 390.4796447753906 300.538818359375 C 391.975830078125 299.8940734863281 388.79888916015625 300.94140625 392.3216857910156 299.91082763671875 C 388.77825927734375 300.7896728515625 388.5049133300781 301.3273620605469 390.6911315917969 301.0173034667969 C 388.5259094238281 301.54217529296875 389.9079284667969 300.42242431640625 388.4897155761719 301.13421630859375 C 388.4754638671875 301.0865173339844 390.95849609375 300.522216796875 388.20831298828125 301.05792236328125 C 391.8565368652344 300.7217712402344 394.53765869140625 296.8099670410156 398.1023254394531 294.0937805175781 C 398.4691467285156 294.30743408203125 404.6541442871094 289.8084411621094 406.6288146972656 295.4992980957031 C 411.0810241699219 296.6222839355469 407.23388671875 297.0451965332031 408.8414306640625 295.871337890625 C 404.2958984375 300.44940185546875 404.04437255859375 299.77288818359375 405.7316589355469 300.48724365234375 C 403.2216796875 299.74249267578125 405.6648864746094 300.12152099609375 408.7669677734375 295.23992919921875 C 409.6688232421875 303.4955749511719 419.059814453125 292.82049560546875 451.4056396484375 284.5885009765625 C 442.404541015625 317.7098083496094 436.33380126953125 314.4654846191406 411.1548767089844 318.3846435546875 C 422.32568359375 320.2991027832031 430.7358093261719 316.5412292480469 445.3446960449219 359.2154846191406 C 413.1575012207031 333.4964599609375 412.13043212890625 339.35040283203125 407.4779968261719 332.75982666015625 C 399.15771484375 324.60491943359375 401.9504089355469 326.3960266113281 398.7954406738281 326.7931213378906 C 392.63323974609375 325.8354797363281 389.41436767578125 326.76580810546875 388.4004821777344 325.3330078125 C 387.80548095703125 325.8861999511719 386.27496337890625 325.0653076171875 384.4435119628906 325.5684814453125 C 384.676025390625 324.86920166015625 383.6868896484375 324.21929931640625 383.1160888671875 325.4573059082031 C 383.0467834472656 324.5685729980469 381.8223571777344 324.59686279296875 382.5043029785156 325.2745666503906 C 382.7420959472656 323.9327697753906 380.16204833984375 324.998779296875 380.3573913574219 324.3174133300781 C 378.7171325683594 324.2729797363281 376.0441589355469 324.3212890625 374.90753173828125 323.1899719238281 C 375.1155700683594 323.9063720703125 373.8273010253906 323.2215270996094 372.1642150878906 323.21331787109375 C 370.746337890625 323.4927062988281 369.4200134277344 321.8477478027344 368.2293701171875 322.59393310546875 C 367.1700439453125 322.2939147949219 366.050537109375 321.08111572265625 359.6809997558594 321.0888977050781 C 363.02777099609375 320.8686828613281 363.22674560546875 320.4808654785156 357.8377990722656 320.5500793457031 C 359.26165771484375 320.341552734375 358.63677978515625 319.3095397949219 357.8975830078125 319.712646484375 C 356.2298278808594 317.7572326660156 343.17388916015625 317.00372314453125 352.4692687988281 311.1673278808594 C 351.4117126464844 305.7073059082031 357.21893310546875 306.5838928222656 356.00201416015625 305.2481384277344 C 355.2127380371094 308.0067443847656 354.7742614746094 306.71844482421875 355.7129821777344 301.4642028808594 C 357.22613525390625 301.53594970703125 359.63946533203125 302.6559753417969 358.7593994140625 301.89947509765625 C 359.2373046875 302.4334411621094 357.3678894042969 302.426513671875 353.0006408691406 302.0312805175781 C 356.8599853515625 303.373291015625 357.4097595214844 299.2743225097656 356.6329345703125 299.47967529296875 C 357.3544616699219 298.0470275878906 356.5106506347656 294.0351867675781 358.1170349121094 299.5948181152344 C 357.695068359375 291.8798828125 363.7413635253906 288.513916015625 358.3213806152344 291.6648864746094 C 360.9632873535156 293.22314453125 363.9891052246094 278.1283264160156 365.6708984375 272.19854736328125 C 364.9356384277344 272.0789794921875 365.5663146972656 269.3180236816406 386.4130554199219 280.2460632324219" stroke-width="0.0" fill="rgb(252, 188, 101)" opacity="0.99945456" stroke="rgb(212, 121, 5)" stroke-opacity="0.9909295" stroke-linecap="round" stroke-linejoin="round"/>
    <path d="M 320.9854736328125 371.1119689941406 C 321.8373107910156 372.2020263671875 322.6211242675781 373.2379150390625 323.1717834472656 374.4164733886719 C 323.6543884277344 375.54559326171875 323.71807861328125 376.5322570800781 323.2626953125 377.29913330078125 C 322.77252197265625 378.2447814941406 321.7236328125 378.818603515625 320.28253173828125 379.2031555175781 C 318.568115234375 379.64495849609375 316.55316162109375 379.73870849609375 314.06976318359375 379.725341796875 C 313.0378112792969 379.2663269042969 313.4794921875 380.1363220214844 313.5478210449219 381.4247741699219 C 313.9259948730469 385.5204162597656 314.06512451171875 390.2781066894531 313.79473876953125 394.7755432128906 C 313.6376647949219 399.803466796875 312.8214111328125 406.3968200683594 310.971923828125 413.5924377441406 C 308.8753967285156 421.5273742675781 306.06146240234375 429.8018493652344 304.5878601074219 438.36224365234375 C 302.59503173828125 448.0115051269531 301.1175537109375 456.4013671875 293.7958679199219 465.7020568847656 C 285.4551696777344 472.91925048828125 288.2177429199219 473.7912902832031 283.2867126464844 508.5255432128906 C 302.0477294921875 506.8566589355469 305.8243713378906 507.5689392089844 277.6920471191406 532.2931518554688 C 265.73004150390625 531.0186767578125 266.9002990722656 540.2780151367188 267.6800842285156 556.2662963867188 C 268.9684143066406 566.7730102539062 272.64739990234375 574.8241577148438 279.8643493652344 577.5166015625 C 290.1333923339844 578.1126098632812 299.36279296875 575.449462890625 308.21563720703125 572.7366943359375 C 313.1588439941406 569.7658081054688 314.2876281738281 567.6969604492188 314.31524658203125 567.8681030273438 C 312.6689147949219 569.6943359375 309.2749328613281 572.1941528320312 305.31634521484375 575.9675903320312 C 300.0745849609375 580.9644775390625 293.4928894042969 577.24609375 285.3479309082031 578.7891845703125 C 285.1130065917969 575.7779541015625 282.0924377441406 569.0231323242188 273.6049499511719 576.83984375 C 271.86614990234375 568.701171875 268.41259765625 564.8322143554688 267.66314697265625 555.7767333984375 C 267.2158203125 544.2841186523438 266.4429626464844 535.8688354492188 270.6663818359375 533.5567016601562 C 261.3945007324219 534.1896362304688 235.904541015625 534.6467895507812 240.11563110351562 523.3939208984375 C 235.93328857421875 502.6261291503906 247.40692138671875 505.1883544921875 244.713134765625 499.6846923828125 C 246.24996948242188 483.43182373046875 247.0390625 475.0035705566406 246.92813110351562 469.36895751953125 C 239.40078735351562 466.5390625 237.42623901367188 463.5486755371094 231.09803771972656 465.6352844238281 C 217.7582244873047 468.7194519042969 208.19610595703125 469.0869140625 208.90843200683594 502.6781005859375 C 206.59970092773438 513.6551513671875 226.99281311035156 534.1929931640625 182.7724151611328 536.5986938476562 C 173.6381072998047 529.2401733398438 176.5845489501953 541.8824462890625 175.80422973632812 561.2162475585938 C 176.07325744628906 574.3522338867188 173.36083984375 579.2424926757812 180.5032196044922 579.4487915039062 C 184.6013641357422 592.7150268554688 195.80810546875 584.8795776367188 205.37905883789062 579.6654663085938 C 214.8430938720703 568.6180419921875 219.18777465820312 566.6598510742188 217.4795379638672 580.1753540039062 C 214.44432067871094 589.78271484375 197.49472045898438 585.1428833007812 187.52188110351562 586.931396484375 C 180.36767578125 581.214111328125 169.75665283203125 587.4593505859375 161.3459930419922 585.016845703125 C 162.06423950195312 590.3884887695312 160.85409545898438 592.5726928710938 159.80604553222656 590.6763305664062 C 164.0806427001953 590.8907470703125 172.38710021972656 589.0183715820312 175.36724853515625 582.91064453125 C 175.420166015625 572.8087768554688 176.16574096679688 560.2991333007812 175.91860961914062 544.1057739257812 C 177.24630737304688 526.6134643554688 173.04461669921875 542.6178588867188 154.2674102783203 513.4894409179688 C 172.49664306640625 501.48773193359375 167.647216796875 513.8255615234375 169.60433959960938 486.6667785644531 C 169.95596313476562 477.290771484375 168.4842987060547 472.8990783691406 170.1359100341797 472.87750244140625 C 165.80796813964844 472.1746826171875 166.20892333984375 469.84576416015625 165.77459716796875 469.44708251953125 C 167.0663299560547 473.8440246582031 170.39218139648438 471.65264892578125 174.26890563964844 474.0718688964844 C 180.10263061523438 475.36962890625 189.759521484375 474.8994445800781 192.77784729003906 475.34844970703125 C 205.60057067871094 475.0748596191406 215.2504425048828 476.2335205078125 213.6410369873047 474.8478698730469 C 218.78515625 466.2610168457031 227.59951782226562 466.8757629394531 234.40921020507812 464.782470703125 C 240.2538299560547 464.96905517578125 245.60101318359375 470.4833984375 253.8149871826172 471.10870361328125 C 255.31971740722656 472.37109375 269.429931640625 472.2415771484375 273.365966796875 472.6982727050781 C 285.52264404296875 471.4886779785156 287.390869140625 475.64483642578125 290.5796203613281 468.548583984375 C 298.9848937988281 462.0368957519531 302.5233154296875 450.71014404296875 304.33319091796875 438.9190673828125 C 307.06915283203125 425.1529846191406 311.8783264160156 414.4768981933594 313.2705078125 401.144775390625 C 314.13818359375 394.644287109375 314.1912536621094 386.02947998046875 313.2681579589844 379.33447265625 C 308.8805236816406 380.2290954589844 298.59814453125 377.2088623046875 295.4409484863281 378.8193054199219 C 285.777587890625 382.23895263671875 275.577880859375 384.5585632324219 263.5766296386719 386.19256591796875 C 249.51060485839844 387.7743225097656 245.84423828125 387.7435302734375 231.06646728515625 387.4920959472656 C 220.1729736328125 386.3849792480469 211.05047607421875 385.071533203125 203.10641479492188 383.6409606933594 C 198.2766876220703 382.8887939453125 193.6346435546875 381.54266357421875 183.7452392578125 380.0946044921875 C 188.53915405273438 377.06927490234375 199.38597106933594 379.6781005859375 201.82168579101562 377.7251892089844 C 216.36544799804688 377.65142822265625 204.92662048339844 376.2425231933594 225.92735290527344 376.544189453125 C 233.42214965820312 376.20782470703125 237.37149047851562 375.0647277832031 254.5367889404297 375.5135803222656 C 260.4051208496094 375.39642333984375 269.8050231933594 375.4715576171875 262.5944519042969 376.3358154296875 C 287.93768310546875 376.4253845214844 301.323974609375 379.21038818359375 307.4010925292969 378.9766845703125 C 318.03424072265625 380.6340637207031 328.5379943847656 379.821044921875 320.9854736328125 371.1119689941406" stroke-width="0.0" fill="rgb(243, 197, 96)" opacity="0.99959683" stroke="rgb(131, 54, 218)" stroke-opacity="0.6647498" stroke-linecap="round" stroke-linejoin="round"/>
    <path d="M 106.93510437011719 204.73631286621094 C 103.4777603149414 206.0137176513672 104.6047592163086 206.12742614746094 104.67356872558594 204.58575439453125 C 108.46124267578125 203.42791748046875 111.63816833496094 205.97518920898438 110.1828842163086 205.41165161132812 C 110.69564819335938 207.2952880859375 111.10774230957031 207.39891052246094 110.07597351074219 206.5223846435547 C 110.96623229980469 204.18173217773438 116.01319885253906 205.95004272460938 115.37982177734375 206.47079467773438 C 115.92591857910156 206.30966186523438 118.18463897705078 206.2251434326172 119.3887939453125 206.41702270507812 C 119.12751007080078 207.33460998535156 122.81645202636719 206.7338104248047 137.1698760986328 211.12680053710938 C 121.52842712402344 210.9127655029297 122.25657653808594 209.6114959716797 123.42545318603516 208.47787475585938 C 123.67908477783203 210.69244384765625 124.51448059082031 211.34849548339844 127.3361587524414 209.23927307128906 C 130.29319763183594 211.45706176757812 130.30767822265625 212.7335968017578 129.34193420410156 212.97042846679688 C 129.4136962890625 212.81393432617188 130.38023376464844 212.01597595214844 140.8634033203125 216.5740966796875 C 131.81228637695312 219.4405059814453 131.04669189453125 214.44686889648438 142.7110595703125 220.54766845703125 C 135.80885314941406 224.8607635498047 134.83782958984375 224.26026916503906 137.51902770996094 233.47508239746094 C 128.4703826904297 232.3210906982422 127.82115936279297 236.45184326171875 125.52790832519531 231.38253784179688 C 121.49689483642578 235.4392547607422 120.45713806152344 229.4970703125 118.39763641357422 228.6772918701172 C 118.44329833984375 226.2267608642578 118.27975463867188 226.26365661621094 117.71289825439453 225.91786193847656 C 116.42444610595703 223.42625427246094 115.78602600097656 223.09243774414062 119.06722259521484 231.01365661621094 C 113.48846435546875 227.71849060058594 113.78311157226562 226.57366943359375 114.99000549316406 227.79827880859375 C 111.97976684570312 227.86090087890625 110.66329193115234 227.8545379638672 109.10162353515625 227.88674926757812 C 107.61903381347656 226.75355529785156 105.7710952758789 226.67115783691406 108.60687255859375 227.28497314453125 C 105.65401458740234 227.74977111816406 102.66114044189453 228.6497344970703 103.27273559570312 227.0681915283203 C 101.12460327148438 224.68394470214844 99.28951263427734 226.20233154296875 97.5219497680664 224.51869201660156 C 97.95319366455078 224.68194580078125 96.71293640136719 224.4095458984375 95.51681518554688 223.82492065429688 C 95.10238647460938 223.1505584716797 94.3758773803711 222.4876251220703 87.58211517333984 221.29940795898438 C 85.92013549804688 217.33853149414062 86.17620086669922 215.85919189453125 89.02108764648438 210.93328857421875 C 93.72333526611328 212.78515625 93.99017333984375 213.2401123046875 93.0837631225586 213.0164031982422 C 93.67178344726562 213.05441284179688 92.87084197998047 213.22805786132812 87.65369415283203 209.74305725097656 C 94.1076431274414 209.03384399414062 93.62677764892578 210.01585388183594 83.2737045288086 207.88548278808594 C 83.31935119628906 201.56790161132812 85.22674560546875 200.58180236816406 106.93510437011719 204.73631286621094" stroke-width="0.0" fill="rgb(1, 0, 1)" opacity="0.9992195" stroke="rgb(223, 5, 216)" stroke-opacity="0.3006155" stroke-linecap="round" stroke-linejoin="round"/>
    <path d="M 438.790771484375 307.8709716796875 C 436.76861572265625 303.09881591796875 443.1765441894531 287.4392395019531 477.3607482910156 318.7090759277344 C 458.3928527832031 331.446533203125 445.3910827636719 318.9712219238281 447.77325439453125 333.24169921875 C 439.47564697265625 323.4909362792969 440.5131530761719 322.5331115722656 440.4169006347656 329.09454345703125 C 438.85162353515625 331.4340515136719 435.92279052734375 332.3840637207031 440.8578796386719 336.9341125488281 C 436.6494445800781 335.5322570800781 437.7130126953125 334.48687744140625 442.37164306640625 339.5385437011719 C 434.2860412597656 338.3700256347656 433.279541015625 337.023681640625 432.2689514160156 336.824951171875 C 431.3981018066406 337.3323059082031 430.5799560546875 337.5745849609375 429.677001953125 337.8750305175781 C 428.5263671875 338.0029602050781 427.442138671875 338.1236877441406 426.47882080078125 338.3644714355469 C 425.5140075683594 337.8258056640625 424.50408935546875 337.7143859863281 423.3316650390625 337.4060974121094 C 422.1728210449219 337.4472351074219 421.1548767089844 336.9375305175781 420.19537353515625 336.5487365722656 C 419.2127380371094 336.4564514160156 418.3462219238281 336.068115234375 417.6266784667969 335.2578430175781 C 417.115478515625 334.26751708984375 416.594970703125 333.5011901855469 416.3661804199219 332.63726806640625 C 416.4261474609375 331.744140625 416.5277099609375 330.9122009277344 416.472412109375 329.8563232421875 C 416.9552917480469 329.0881042480469 417.4657287597656 328.32098388671875 418.03826904296875 327.6548767089844 C 418.7910461425781 327.1250915527344 419.38970947265625 326.4493408203125 419.8879699707031 325.7879638671875 C 420.462890625 325.1212158203125 420.90533447265625 324.3741455078125 421.21710205078125 323.5834655761719 C 421.48797607421875 322.8243103027344 421.5223693847656 322.0078430175781 420.0281066894531 320.5545349121094 C 421.1232604980469 319.939453125 422.7547607421875 320.9186706542969 438.790771484375 307.8709716796875" stroke-width="0.0" fill="rgb(252, 187, 105)" opacity="1.0" stroke="rgb(163, 207, 97)" stroke-opacity="0.21390456" stroke-linecap="round" stroke-linejoin="round"/>
    <path d="M 327.541015625 113.57101440429688 C 322.4735412597656 114.93402862548828 317.887939453125 115.61859893798828 314.1579284667969 115.4798812866211 C 311.4313659667969 115.45475006103516 309.6174011230469 116.3288803100586 308.7192077636719 117.98954010009766 C 308.91363525390625 120.04663848876953 310.1165466308594 121.39303588867188 312.0054016113281 122.10761260986328 C 314.17327880859375 121.62081909179688 316.5168762207031 121.28651428222656 318.1132507324219 121.5481948852539 C 318.58203125 123.34398651123047 318.5782165527344 126.18394470214844 318.4617004394531 129.4891815185547 C 318.79638671875 132.6380157470703 319.07806396484375 135.6214599609375 318.0193786621094 138.41732788085938 C 314.9591369628906 140.18853759765625 311.24737548828125 140.462890625 307.6481628417969 140.1382598876953 C 304.89276123046875 141.10537719726562 302.33270263671875 141.5777587890625 300.1019287109375 141.4833526611328 C 297.7979431152344 139.3447723388672 295.87969970703125 135.80101013183594 294.5583801269531 132.3374786376953 C 294.3900146484375 129.71063232421875 295.908447265625 127.2394027709961 298.62994384765625 124.611328125 C 300.7904968261719 122.1527099609375 301.7552795410156 118.97651672363281 301.6518859863281 114.7010498046875 C 301.0967712402344 109.61669921875 300.5634765625 104.1142578125 327.541015625 113.57101440429688" stroke-width="0.0" fill="rgb(10, 1, 4)" opacity="0.9978637" stroke="rgb(140, 133, 171)" stroke-opacity="0.89648443" stroke-linecap="round" stroke-linejoin="round"/>
    <path d="M 276.6291198730469 247.8982696533203 C 283.6536865234375 250.3431854248047 290.1044006347656 252.92678833007812 295.5323486328125 255.76405334472656 C 299.7314147949219 258.84173583984375 302.6064453125 261.9740905761719 304.2776184082031 264.9067077636719 C 304.94464111328125 267.55902099609375 304.908447265625 269.8189697265625 304.7402038574219 271.75347900390625 C 304.7138977050781 273.5262145996094 304.8468322753906 275.2281188964844 304.8765869140625 276.8871765136719 C 304.6188659667969 278.2304992675781 304.3244934082031 279.2879638671875 303.9597473144531 280.2370910644531 C 303.4449768066406 281.1653747558594 302.8320007324219 282.00762939453125 302.1444396972656 282.7803955078125 C 301.3809814453125 283.4618225097656 300.52685546875 284.0041809082031 299.5850524902344 284.4031677246094 C 298.56158447265625 284.6280822753906 297.496337890625 284.746826171875 296.4398193359375 284.7657775878906 C 295.4355163574219 284.71490478515625 294.5239562988281 284.616455078125 293.7310485839844 284.49127197265625 C 293.0848388671875 284.3452453613281 292.6073303222656 284.2209167480469 292.3197937011719 284.1438293457031 C 292.2396240234375 284.1339416503906 292.36676025390625 284.2256164550781 292.6834716796875 284.42047119140625 C 293.1528625488281 284.72509765625 293.7171325683594 285.14239501953125 294.3009948730469 285.66522216796875 C 294.8464050292969 286.2962646484375 295.2874755859375 287.0289001464844 295.5751953125 287.8503112792969 C 295.6710510253906 288.728271484375 295.5305480957031 289.6147155761719 295.1174011230469 290.4403076171875 C 294.4143371582031 291.11474609375 293.4795837402344 291.56585693359375 292.3846435546875 291.7641296386719 C 291.21258544921875 291.7017517089844 290.05401611328125 291.3771667480469 288.9720764160156 290.80902099609375 C 288.03509521484375 290.0263366699219 287.27099609375 289.0771484375 286.70458984375 288.03009033203125 C 286.3437805175781 286.9405517578125 286.14739990234375 285.8626403808594 286.0750427246094 284.8542785644531 C 286.08587646484375 283.958984375 286.1412048339844 283.1936340332031 286.2012939453125 282.57501220703125 C 286.24609375 282.1092529296875 286.23779296875 281.7857971191406 286.16876220703125 281.589111328125 C 286.032958984375 281.4847717285156 285.8330993652344 281.4322509765625 285.5752258300781 281.39080810546875 C 285.29071044921875 281.3209533691406 285.0440673828125 281.1871337890625 284.8424987792969 280.9610595703125 C 284.66607666015625 280.61761474609375 284.54840087890625 280.1709289550781 284.595947265625 279.63421630859375 C 284.8254699707031 279.0182189941406 285.066162109375 278.34161376953125 285.0758361816406 277.6326904296875 C 284.62603759765625 276.9049377441406 283.5987548828125 276.1514892578125 282.0352783203125 275.3744201660156 C 280.1014099121094 274.58251953125 277.96661376953125 273.8110046386719 276.6291198730469 247.8982696533203" stroke-width="0.0" fill="rgb(171, 160, 198)" opacity="0.9990639" stroke="rgb(53, 39, 105)" stroke-opacity="0.36624187" stroke-linecap="round" stroke-linejoin="round"/>
    <path d="M 234.0 211.0 C 234.0 212.0 235.0 213.0 236.0 213.0 C 237.0 213.0 238.0 213.0 239.0 214.0 C 240.0 214.0 241.0 214.0 242.0 214.0 C 243.0 213.0 243.0 212.0 244.0 213.0 C 245.0 214.0 244.0 214.0 243.0 215.0 C 243.0 216.0 243.0 217.0 244.0 218.0 C 245.0 218.0 246.0 218.0 247.0 217.0 C 247.0 216.0 248.0 217.0 249.0 218.0 C 249.0 219.0 249.0 220.0 249.0 221.0 C 250.0 222.0 250.0 223.0 250.0 224.0 C 250.0 225.0 250.0 226.0 250.0 227.0 C 249.0 227.0 248.0 227.0 247.0 226.0 C 247.0 225.0 246.0 224.0 245.0 224.0 C 244.0 225.0 243.0 225.0 242.0 225.0 C 241.0 224.0 240.0 224.0 239.0 223.0 C 238.0 223.0 238.0 222.0 238.0 221.0 C 238.0 220.0 237.0 219.0 236.0 219.0 C 235.0 219.0 234.0 219.0 234.0 218.0 C 234.0 217.0 233.0 216.0 232.0 216.0 C 231.0 216.0 230.0 215.0 230.0 214.0 C 230.0 213.0 230.0 212.0 231.0 212.0 C 232.0 211.0 233.0 210.0 234.0 211.0" stroke-width="0.0" fill="rgb(243, 5, 9)" opacity="1.0" stroke="rgb(45, 124, 204)" stroke-opacity="0.06258725" stroke-linecap="round" stroke-linejoin="round"/>
    <path d="M 328.0 114.0 C 328.0 115.0 328.0 116.0 329.0 117.0 C 329.0 118.0 329.0 119.0 329.0 120.0 C 329.0 121.0 329.0 122.0 329.0 123.0 C 329.0 124.0 329.0 125.0 329.0 126.0 C 329.0 127.0 329.0 128.0 328.0 127.0 C 327.0 127.0 326.0 127.0 325.0 128.0 C 325.0 129.0 324.0 129.0 323.0 129.0 C 323.0 128.0 322.0 127.0 321.0 128.0 C 320.0 128.0 319.0 128.0 319.0 127.0 C 319.0 126.0 320.0 125.0 319.0 124.0 C 319.0 123.0 319.0 122.0 319.0 121.0 C 320.0 120.0 320.0 119.0 321.0 119.0 C 322.0 119.0 323.0 118.0 323.0 117.0 C 324.0 117.0 325.0 117.0 326.0 116.0 C 326.0 115.0 326.0 114.0 328.0 114.0" stroke-width="0.0" fill="rgb(138, 72, 35)" opacity="1.0" stroke="rgb(235, 130, 168)" stroke-opacity="0.47328734" stroke-linecap="round" stroke-linejoin="round"/>
  </g>
</svg>
