<?xml version="1.0" ?>
<svg xmlns="http://www.w3.org/2000/svg" version="1.1" width="474" height="596">
  <defs/>
  <g>
    <path d="M 265.93341064453125 -0.1197696402668953 C 267.0711669921875 -1.150635004043579 268.3597717285156 -1.7402242422103882 269.3971252441406 -2.576500177383423 C 270.32977294921875 -3.6331241130828857 271.0733337402344 -4.2553277015686035 271.97406005859375 -4.4672160148620605 C 272.6766662597656 -4.729249954223633 273.1267395019531 -4.787413597106934 273.6848449707031 -4.6059675216674805 C 274.6864929199219 -4.200198173522949 276.2293395996094 -3.4234468936920166 278.8804931640625 -3.125847816467285 C 282.4960021972656 -1.7743675708770752 286.2195739746094 1.231072187423706 292.82940673828125 2.6134707927703857 C 300.6937255859375 4.617116451263428 309.6324462890625 7.260619640350342 318.1587829589844 10.871380805969238 C 326.7202453613281 14.36900520324707 334.5710144042969 18.276752471923828 342.2886962890625 22.79680633544922 C 350.4636535644531 27.511064529418945 358.37799072265625 32.885528564453125 366.2674560546875 39.373809814453125 C 374.7336730957031 45.947235107421875 382.7011413574219 53.44036865234375 390.29864501953125 61.43623733520508 C 397.7176513671875 69.3624496459961 404.4569396972656 77.42949676513672 410.424072265625 85.67859649658203 C 416.21722412109375 93.72703552246094 421.7323303222656 101.89134216308594 426.75445556640625 110.25292205810547 C 431.43182373046875 118.49583435058594 434.9808349609375 123.6591567993164 433.1153259277344 132.89134216308594 C 430.1378479003906 141.99169921875 424.2635498046875 150.2836151123047 417.6205749511719 158.8072509765625 C 411.1339416503906 167.19505310058594 403.6988220214844 174.51109313964844 396.26580810546875 181.67601013183594 C 388.7830810546875 188.53636169433594 380.81939697265625 194.70895385742188 373.1118469238281 200.48670959472656 C 365.37860107421875 206.1571044921875 357.2639465332031 211.4838409423828 347.5865783691406 216.98634338378906 C 336.911376953125 221.86415100097656 325.1589660644531 224.75518798828125 313.40521240234375 226.5208282470703 C 310.84429931640625 225.9740753173828 315.0824890136719 222.18548583984375 323.4436340332031 218.4454345703125 C 333.3548583984375 212.3348388671875 343.2877502441406 204.53123474121094 351.0362243652344 195.2911376953125 C 357.93609619140625 187.5181427001953 362.80999755859375 178.97915649414062 366.07733154296875 170.7593231201172 C 369.1027526855469 162.51158142089844 371.1739196777344 154.0153045654297 371.0252685546875 145.12525939941406 C 370.72479248046875 136.10992431640625 369.1038513183594 126.80839538574219 365.1797790527344 118.46540832519531 C 361.6031188964844 109.56636047363281 355.6468811035156 103.65672302246094 349.1266784667969 97.572021484375 C 345.1136474609375 93.3331298828125 337.8831481933594 93.83602142333984 328.64654541015625 96.84613800048828 C 323.4130554199219 100.58136749267578 312.71966552734375 100.51387786865234 305.30023193359375 103.75242614746094 C 294.7231750488281 102.01493835449219 286.3509216308594 103.66352844238281 278.11376953125 106.35936737060547 C 270.3233947753906 107.84932708740234 264.1123962402344 109.61991882324219 258.64251708984375 110.35272216796875 C 255.79971313476562 105.18914031982422 253.39443969726562 101.7239761352539 250.30857849121094 102.7838134765625 C 248.4393310546875 106.47987365722656 247.488037109375 110.53214263916016 245.86563110351562 115.24978637695312 C 238.42185974121094 115.38624572753906 230.87535095214844 116.35257720947266 223.9998779296875 122.54429626464844 C 214.94688415527344 131.05799865722656 205.8234100341797 138.9390869140625 202.1837158203125 150.375 C 190.29296875 147.742431640625 182.84104919433594 140.9317169189453 173.24122619628906 138.64842224121094 C 165.59304809570312 138.21803283691406 161.14088439941406 137.77919006347656 158.52102661132812 139.34889221191406 C 157.65672302246094 143.47764587402344 154.9376983642578 147.8800048828125 148.63438415527344 150.56382751464844 C 144.99520874023438 156.114990234375 143.16502380371094 163.41387939453125 142.9705047607422 171.53440856933594 C 143.47035217285156 180.2800750732422 145.239501953125 189.32412719726562 149.0767364501953 197.77943420410156 C 153.03692626953125 207.03707885742188 159.47776794433594 214.765380859375 167.9166717529297 221.48269653320312 C 177.6650848388672 228.0138397216797 186.64306640625 234.05503845214844 197.01463317871094 237.5056915283203 C 204.7809295654297 241.22125244140625 212.6675262451172 242.07318115234375 219.23594665527344 242.84429931640625 C 219.56382751464844 244.32644653320312 217.0121307373047 245.40484619140625 211.74996948242188 244.78158569335938 C 204.50045776367188 245.02664184570312 197.29803466796875 240.74171447753906 188.0220184326172 240.2795867919922 C 179.22140502929688 240.3349151611328 170.3302001953125 243.1676025390625 161.82350158691406 240.7507781982422 C 153.6097412109375 240.8220672607422 144.9278564453125 240.8098907470703 137.53738403320312 239.58038330078125 C 129.2593536376953 238.43246459960938 121.02357482910156 236.8794403076172 113.47406005859375 234.6585235595703 C 105.20341491699219 232.44671630859375 97.06155395507812 229.83444213867188 88.82918548583984 226.4904022216797 C 80.35530853271484 223.09205627441406 71.87940979003906 219.44711303710938 64.44398498535156 214.9097900390625 C 57.949134826660156 211.54928588867188 53.831443786621094 205.54507446289062 53.4198112487793 199.18408203125 C 53.227455139160156 189.46051025390625 54.6463623046875 180.21942138671875 56.46677780151367 170.55506896972656 C 57.974239349365234 161.24295043945312 60.10280990600586 153.37490844726562 62.34501647949219 145.2628936767578 C 64.58199310302734 137.51084899902344 67.37997436523438 129.92152404785156 70.92884063720703 121.83146667480469 C 74.44683837890625 113.51498413085938 78.69237518310547 105.27452087402344 83.43061828613281 97.15372467041016 C 88.48754119873047 89.14143371582031 93.79815673828125 81.12920379638672 100.3099594116211 73.41431427001953 C 107.07909393310547 65.2699203491211 114.45000457763672 57.26057434082031 122.56092071533203 50.19131851196289 C 130.25686645507812 43.076568603515625 138.6092071533203 37.39949035644531 146.3092803955078 31.69765853881836 C 153.8819580078125 26.517433166503906 161.54441833496094 24.50471305847168 171.76828002929688 23.7893123626709 C 179.08180236816406 23.208221435546875 188.89224243164062 24.707958221435547 196.35208129882812 26.38666534423828 C 204.07273864746094 28.097198486328125 209.54095458984375 30.934783935546875 214.400146484375 29.043004989624023 C 217.12777709960938 30.270275115966797 224.921630859375 28.913028717041016 227.81687927246094 25.417909622192383 C 233.55528259277344 18.988147735595703 240.47781372070312 11.988719940185547 249.25457763671875 7.290729522705078 C 258.1885681152344 2.787930488586426 267.5735168457031 -0.6686211824417114 265.93341064453125 -0.1197696402668953" stroke-width="0.0" fill="rgb(64, 38, 30)" opacity="0.99999124" stroke="rgb(249, 57, 121)" stroke-opacity="0.14353259" stroke-linecap="round" stroke-linejoin="round"/>
    <path d="M 313.1049499511719 242.63540649414062 C 340.14776611328125 248.02183532714844 358.1940002441406 256.91925048828125 373.67596435546875 270.7933654785156 C 391.83856201171875 277.9698486328125 402.2528076171875 285.8031921386719 409.762451171875 292.37567138671875 C 405.5550537109375 294.5260925292969 396.4763488769531 292.720703125 386.0517578125 290.3270263671875 C 377.1824645996094 291.4386901855469 373.8465576171875 290.062255859375 378.4776611328125 291.53759765625 C 393.5157165527344 291.45819091796875 411.49798583984375 291.4969482421875 435.21270751953125 300.4991455078125 C 443.3348083496094 321.02508544921875 447.8360290527344 339.298095703125 439.1912536621094 353.1805725097656 C 423.68927001953125 347.5864562988281 410.11468505859375 339.7515869140625 394.5975341796875 329.78033447265625 C 368.4892272949219 329.244384765625 351.25762939453125 321.0199890136719 332.4902648925781 322.5289611816406 C 324.0663146972656 328.586181640625 320.9279479980469 343.4125671386719 323.8330993652344 363.8880310058594 C 318.81427001953125 378.6033020019531 314.0777893066406 398.4852294921875 311.07940673828125 420.5836486816406 C 305.70135498046875 441.65966796875 300.5862731933594 462.5671691894531 289.9690246582031 478.1238708496094 C 287.284912109375 494.4723205566406 292.05596923828125 505.4673767089844 299.79620361328125 516.5128173828125 C 292.7513122558594 523.4708862304688 284.76824951171875 528.0281982421875 273.2344665527344 527.5093994140625 C 260.725341796875 527.4389038085938 248.8962860107422 528.0054931640625 240.2962646484375 531.2239379882812 C 237.52821350097656 548.9266357421875 236.4170379638672 562.3277587890625 247.60975646972656 572.423583984375 C 266.0560302734375 577.06201171875 288.7320861816406 575.739013671875 312.6893310546875 572.554443359375 C 332.2403259277344 569.8802490234375 343.7599182128906 568.2373046875 342.7593994140625 573.8983764648438 C 334.1147766113281 581.2094116210938 317.751953125 585.2433471679688 295.4996032714844 584.60986328125 C 272.2143249511719 583.8179931640625 248.7230987548828 583.0744018554688 237.2322235107422 575.8557739257812 C 229.66920471191406 565.1128540039062 235.36367797851562 545.055419921875 235.58172607421875 518.9984741210938 C 241.94876098632812 502.56842041015625 243.52345275878906 486.88531494140625 242.1788787841797 472.39593505859375 C 233.96844482421875 464.5530700683594 226.5791778564453 461.1864929199219 226.52462768554688 472.104248046875 C 214.84796142578125 476.2695007324219 207.81625366210938 485.0635986328125 199.98501586914062 488.4907531738281 C 192.49574279785156 487.3452453613281 188.43606567382812 484.96380615234375 189.55335998535156 483.3355407714844 C 195.46588134765625 484.2968444824219 204.45913696289062 489.0663146972656 211.36984252929688 496.1211242675781 C 213.1138153076172 519.8195190429688 213.75045776367188 540.2569580078125 217.22817993164062 564.2636108398438 C 219.95359802246094 575.32275390625 206.86659240722656 582.546630859375 190.06756591796875 587.1904296875 C 169.34878540039062 593.3580932617188 153.38839721679688 600.2844848632812 131.18667602539062 594.5462036132812 C 117.12061309814453 592.9321899414062 114.82656860351562 583.7237548828125 119.41792297363281 575.2608642578125 C 131.86741638183594 580.9387817382812 151.60362243652344 583.5839233398438 173.03598022460938 585.8701782226562 C 189.70901489257812 585.0421142578125 204.0211944580078 578.6522216796875 213.57913208007812 569.2916870117188 C 213.08753967285156 556.0892333984375 212.40512084960938 543.1510009765625 209.2986602783203 532.8343505859375 C 197.1904754638672 529.810546875 185.78759765625 528.9918212890625 174.0707244873047 530.6279907226562 C 164.8083038330078 529.1956787109375 155.33531188964844 526.0009765625 150.70413208007812 515.9755859375 C 160.9136962890625 505.166015625 170.322998046875 494.8554382324219 166.41481018066406 476.3661193847656 C 157.45997619628906 457.56304931640625 154.0348663330078 436.3916931152344 153.0161590576172 412.1043701171875 C 148.7659149169922 397.99798583984375 130.55116271972656 390.38555908203125 115.97844696044922 379.5081481933594 C 114.50765991210938 359.77716064453125 113.56456756591797 349.4964904785156 106.56641387939453 348.00592041015625 C 93.56803131103516 353.43304443359375 84.39012908935547 359.8438720703125 76.78077697753906 356.9463195800781 C 75.35824584960938 347.17156982421875 80.79815673828125 335.7684326171875 91.08428955078125 325.5561828613281 C 102.56771850585938 318.76904296875 110.15969848632812 314.9129943847656 111.52639770507812 312.7309875488281 C 106.43880462646484 309.5984802246094 97.48979187011719 303.935302734375 89.70777893066406 295.8866271972656 C 88.07936096191406 282.9838562011719 93.68887329101562 276.8253479003906 106.95040130615234 268.1577453613281 C 121.71857452392578 257.41522216796875 139.41835021972656 248.934814453125 157.24266052246094 242.9739532470703 C 171.2115936279297 237.98167419433594 180.2948760986328 240.26370239257812 181.730224609375 251.7543182373047 C 177.21678161621094 269.079345703125 171.32090759277344 286.8629455566406 166.27003479003906 305.66888427734375 C 163.0667724609375 324.8735046386719 160.7093963623047 340.414306640625 160.46485900878906 352.8250427246094 C 161.00645446777344 362.21685791015625 161.61837768554688 367.3670654296875 161.7736053466797 368.595947265625 C 161.47181701660156 366.02325439453125 160.64549255371094 359.8663635253906 160.5291748046875 350.3337097167969 C 161.92372131347656 339.4144287109375 163.1955108642578 326.39166259765625 165.75294494628906 312.4374084472656 C 168.22833251953125 298.2166442871094 171.37860107421875 284.41241455078125 175.85302734375 270.9440612792969 C 180.37281799316406 258.9027404785156 190.35243225097656 252.00637817382812 204.1000213623047 245.41159057617188 C 222.1567840576172 244.52947998046875 239.01858520507812 239.1808624267578 254.00482177734375 235.70773315429688 C 267.8476867675781 237.89744567871094 279.6576232910156 245.3502655029297 288.9090576171875 256.4397888183594 C 293.3052062988281 271.2676086425781 300.8248291015625 283.5080261230469 306.349853515625 296.0699768066406 C 311.4425964355469 306.0697937011719 313.2381896972656 313.28424072265625 316.71923828125 315.720458984375 C 316.3942565917969 314.1014099121094 316.4816589355469 310.4557189941406 316.5063781738281 306.6547546386719 C 316.4974060058594 304.35223388671875 315.6838684082031 303.69171142578125 313.0102844238281 303.148193359375 C 309.0804748535156 299.95904541015625 302.4316101074219 290.35040283203125 296.2640075683594 276.0955505371094 C 286.8583068847656 259.719970703125 279.29449462890625 232.76202392578125 313.1049499511719 242.63540649414062" stroke-width="0.0" fill="rgb(251, 110, 165)" opacity="0.9998008" stroke="rgb(118, 200, 126)" stroke-opacity="0.87374717" stroke-linecap="round" stroke-linejoin="round"/>
    <path d="M 236.1419219970703 89.97931671142578 C 239.28541564941406 91.3211898803711 241.29786682128906 93.28083038330078 242.7215118408203 94.10991668701172 C 244.303466796875 94.99078369140625 245.6053924560547 96.23149108886719 246.48451232910156 96.40606689453125 C 246.7459716796875 96.6784439086914 247.31301879882812 97.22189331054688 247.88487243652344 97.39190673828125 C 248.9315643310547 98.48546600341797 250.85964965820312 100.08073425292969 253.0527801513672 102.13774108886719 C 255.1272430419922 104.2341537475586 257.2681884765625 107.37767028808594 259.9767761230469 110.6462631225586 C 262.447998046875 109.52035522460938 266.8530578613281 108.49501037597656 272.15478515625 107.38589477539062 C 278.053955078125 105.9953384399414 284.5331115722656 104.38038635253906 291.6878967285156 103.11051940917969 C 299.51220703125 99.9537582397461 304.6778564453125 103.17262268066406 311.02532958984375 104.63410186767578 C 319.35784912109375 102.9158935546875 325.44842529296875 107.87110137939453 328.5664367675781 113.09561157226562 C 330.61468505859375 120.19792175292969 329.889892578125 128.10693359375 329.02325439453125 132.726318359375 C 331.56488037109375 131.69638061523438 338.2544860839844 129.6327362060547 344.1184387207031 126.35223388671875 C 347.06390380859375 120.6534423828125 345.2505798339844 115.05573272705078 340.6360778808594 109.69487762451172 C 335.58624267578125 104.99317169189453 330.1182861328125 101.79505157470703 319.5536193847656 100.32324981689453 C 322.57220458984375 95.38497924804688 331.6118469238281 95.9151840209961 342.96160888671875 94.0849380493164 C 346.6153869628906 92.72651672363281 351.3486633300781 100.41490936279297 357.7413330078125 105.97010803222656 C 362.2284851074219 111.74240112304688 365.9720458984375 118.85594940185547 368.04150390625 126.13627624511719 C 370.0679626464844 132.48825073242188 371.2284851074219 139.4384307861328 370.8324279785156 145.97132873535156 C 371.0270690917969 152.28363037109375 369.9231262207031 158.92657470703125 367.9228515625 165.41824340820312 C 366.25244140625 171.16136169433594 363.2060546875 177.8783721923828 359.8047790527344 183.42672729492188 C 355.8219909667969 189.4543914794922 351.6218566894531 195.23501586914062 346.63763427734375 200.2252197265625 C 341.40887451171875 205.2819061279297 335.8160095214844 210.1774444580078 329.6249694824219 214.36279296875 C 323.9222106933594 219.14437866210938 316.5202331542969 221.55345153808594 312.5733947753906 226.01515197753906 C 309.7875671386719 231.02427673339844 302.6926574707031 232.9225616455078 297.9732666015625 235.16458129882812 C 293.4429626464844 236.58815002441406 289.88983154296875 237.79949951171875 287.3670349121094 237.98831176757812 C 290.29901123046875 240.38079833984375 290.0696716308594 245.4654998779297 289.6816101074219 250.52542114257812 C 294.0662536621094 254.62001037597656 296.75164794921875 257.8787536621094 298.532958984375 260.0864562988281 C 299.53668212890625 261.4671936035156 299.77099609375 261.4552917480469 298.64801025390625 260.4264831542969 C 296.7375183105469 258.0159606933594 293.9876403808594 254.73109436035156 290.5069580078125 250.6360626220703 C 285.4183654785156 247.5823211669922 280.1493225097656 244.15484619140625 273.6285400390625 242.46646118164062 C 268.94720458984375 239.37838745117188 263.5551452636719 239.8430938720703 258.6582946777344 242.71302795410156 C 253.27273559570312 242.12765502929688 248.0437469482422 243.23916625976562 243.3857421875 244.43653869628906 C 237.8105926513672 244.44387817382812 232.99325561523438 244.49642944335938 228.46446228027344 244.5513916015625 C 224.0341033935547 243.834228515625 219.518798828125 242.94712829589844 215.65798950195312 242.66629028320312 C 210.49462890625 241.7646026611328 205.42724609375 240.70326232910156 200.17990112304688 238.94912719726562 C 194.57774353027344 237.2699737548828 188.99998474121094 234.69923400878906 183.1494140625 231.71627807617188 C 177.4321746826172 228.56275939941406 171.53395080566406 224.70664978027344 166.82485961914062 220.5775604248047 C 161.75743103027344 216.5077362060547 157.82713317871094 212.03199768066406 154.03163146972656 207.08412170410156 C 150.6219482421875 201.82586669921875 147.57872009277344 196.42611694335938 145.62184143066406 190.02621459960938 C 143.7893524169922 183.97828674316406 142.4506072998047 176.1078338623047 143.2854766845703 169.49557495117188 C 142.86834716796875 162.81344604492188 145.29417419433594 157.8213653564453 147.53579711914062 150.81698608398438 C 154.0337371826172 148.97042846679688 156.6035614013672 145.6454620361328 157.23890686035156 139.14060974121094 C 158.2071533203125 133.4524383544922 156.13128662109375 127.71830749511719 159.73365783691406 126.0140151977539 C 164.91708374023438 134.96226501464844 164.90109252929688 138.59957885742188 170.49305725097656 137.87547302246094 C 176.57220458984375 135.4739227294922 181.9957733154297 131.89169311523438 194.2442626953125 128.1904754638672 C 193.55154418945312 133.03280639648438 185.9368133544922 135.3486328125 185.0070037841797 142.29286193847656 C 182.82981872558594 152.8828887939453 183.5923614501953 158.87677001953125 188.61180114746094 166.13902282714844 C 192.6829071044922 166.70907592773438 198.3025360107422 165.72207641601562 201.8822021484375 164.51171875 C 195.43719482421875 162.5514373779297 189.4794921875 159.55001831054688 187.4249725341797 150.36924743652344 C 185.45266723632812 143.8821258544922 190.5633087158203 146.02610778808594 201.66732788085938 148.649658203125 C 206.12521362304688 143.5848846435547 214.40821838378906 143.91009521484375 212.11358642578125 138.8484344482422 C 212.60206604003906 128.9797821044922 219.53622436523438 125.17937469482422 223.4613037109375 131.48008728027344 C 229.3037872314453 136.3050994873047 229.44094848632812 143.79705810546875 227.52076721191406 152.16165161132812 C 224.56614685058594 157.9966278076172 221.09251403808594 160.4096221923828 223.57334899902344 160.77207946777344 C 230.0871124267578 157.68923950195312 239.12857055664062 156.19483947753906 244.4735107421875 151.590576171875 C 245.64813232421875 145.6173095703125 242.67239379882812 139.09913635253906 237.12501525878906 132.80615234375 C 229.94207763671875 128.9430694580078 222.6694793701172 125.45789337158203 213.99745178222656 124.05806732177734 C 206.65768432617188 123.33406066894531 213.18182373046875 121.06707000732422 219.69430541992188 119.8868179321289 C 225.52452087402344 117.98576354980469 232.2284698486328 116.97152709960938 238.09725952148438 115.58606719970703 C 242.95677185058594 115.40473937988281 246.3177032470703 114.54080200195312 246.6434326171875 113.19813537597656 C 245.7887420654297 109.28750610351562 245.44467163085938 105.357666015625 236.1419219970703 89.97931671142578" stroke-width="0.0" fill="rgb(250, 188, 107)" opacity="0.9999995" stroke="rgb(18, 17, 225)" stroke-opacity="0.6161581" stroke-linecap="round" stroke-linejoin="round"/>
    <path d="M 173.23411560058594 238.45712280273438 C 174.94212341308594 239.69815063476562 176.6573028564453 239.48634338378906 178.5310821533203 239.6767578125 C 180.3004913330078 239.18324279785156 182.4595947265625 238.92518615722656 183.9741973876953 241.27493286132812 C 187.3428955078125 241.94061279296875 188.2715301513672 245.22494506835938 187.1772003173828 249.49337768554688 C 185.63531494140625 256.0409851074219 183.6915740966797 264.19415283203125 182.43894958496094 273.49383544921875 C 179.43289184570312 282.5419006347656 176.79063415527344 290.91876220703125 174.1006622314453 297.86773681640625 C 171.17379760742188 303.2703857421875 168.46665954589844 307.91864013671875 165.3305206298828 312.86590576171875 C 161.4495086669922 318.73101806640625 156.23912048339844 326.65277099609375 148.00442504882812 334.8845520019531 C 144.2689666748047 345.5137023925781 142.67515563964844 358.41497802734375 145.63455200195312 368.375732421875 C 150.14747619628906 378.26025390625 154.22129821777344 384.6338806152344 162.2771759033203 386.5118103027344 C 173.2494659423828 383.9757995605469 185.41050720214844 379.9107971191406 198.92889404296875 377.93017578125 C 216.7176513671875 376.2081604003906 234.03684997558594 376.0372009277344 252.52450561523438 376.4679260253906 C 270.5782165527344 375.656494140625 287.4149475097656 376.60577392578125 301.59698486328125 379.8137512207031 C 311.6377868652344 380.16217041015625 316.7905578613281 375.6031494140625 320.12164306640625 371.3315124511719 C 321.4213562011719 370.40008544921875 319.3272705078125 372.7468566894531 313.5681457519531 377.511474609375 C 310.3172302246094 388.5731506347656 308.06903076171875 403.4365539550781 305.73284912109375 419.7228088378906 C 305.0284118652344 436.3705139160156 303.5157470703125 451.126953125 300.3719787597656 465.6969909667969 C 297.0687255859375 471.5170593261719 288.1904602050781 476.3662109375 286.3441162109375 482.5513610839844 C 285.8553466796875 490.6761779785156 283.6778869628906 498.7793273925781 287.9588928222656 507.2340087890625 C 288.3191833496094 516.2691650390625 290.7724304199219 529.0300903320312 297.5930480957031 535.5350952148438 C 310.88433837890625 538.5567016601562 322.5758972167969 544.793701171875 334.4092102050781 550.7464599609375 C 342.3678283691406 555.5991821289062 342.2386779785156 560.9025268554688 336.4501037597656 555.8229370117188 C 324.9490051269531 549.47509765625 308.5267639160156 544.9530029296875 298.0722351074219 531.897705078125 C 280.8338317871094 525.5398559570312 263.2838134765625 530.5059814453125 246.6725311279297 530.4395141601562 C 236.29928588867188 529.0352783203125 235.12962341308594 538.80517578125 237.12782287597656 550.1638793945312 C 239.36570739746094 561.6363525390625 243.50514221191406 570.3850708007812 247.37477111816406 575.7227783203125 C 247.9051971435547 578.0187377929688 246.6196746826172 576.3215942382812 243.43626403808594 571.527099609375 C 239.7294464111328 563.3321533203125 236.97103881835938 551.810791015625 237.34779357910156 537.5823364257812 C 235.42161560058594 521.4691162109375 241.03929138183594 505.3001403808594 245.87588500976562 490.68890380859375 C 245.6733856201172 477.0578918457031 241.4078369140625 467.8095703125 233.95274353027344 463.2249450683594 C 224.7879638671875 465.7880554199219 217.49151611328125 471.6029968261719 214.37554931640625 482.5791320800781 C 213.11380004882812 495.6686096191406 211.00857543945312 508.6207580566406 211.48268127441406 521.8129272460938 C 212.29937744140625 534.9218139648438 215.14913940429688 546.7833251953125 216.13800048828125 559.114013671875 C 215.0761260986328 570.5570068359375 208.86758422851562 580.1008911132812 197.24166870117188 585.5907592773438 C 181.24913024902344 589.4288940429688 164.6354522705078 590.1600952148438 148.89132690429688 589.1795043945312 C 134.63174438476562 584.4591064453125 126.65306854248047 578.1199951171875 123.75465393066406 569.2393798828125 C 132.3733367919922 564.8062744140625 137.2695770263672 557.5744018554688 141.8352813720703 554.9529418945312 C 142.08351135253906 562.815673828125 132.86810302734375 565.4973754882812 125.15885162353516 572.1009521484375 C 126.57321166992188 577.3146362304688 134.34861755371094 583.7875366210938 148.2047119140625 587.0025634765625 C 166.0837860107422 590.8070068359375 183.9411163330078 586.7789916992188 209.46839904785156 586.4359741210938 C 213.1912384033203 576.8465576171875 216.68490600585938 562.46337890625 215.31723022460938 547.0473022460938 C 213.10108947753906 534.9793701171875 206.41946411132812 528.5350952148438 197.27491760253906 534.908935546875 C 182.08798217773438 539.3202514648438 171.02084350585938 533.5953979492188 161.3195343017578 528.7968139648438 C 158.36036682128906 526.9309692382812 158.5771026611328 519.6644897460938 161.377197265625 510.02984619140625 C 166.1316680908203 501.6918029785156 167.11990356445312 489.27178955078125 166.18038940429688 477.3407897949219 C 158.501220703125 465.95281982421875 156.20118713378906 455.1068115234375 155.384521484375 439.0208435058594 C 156.35528564453125 423.2618713378906 156.8279266357422 405.6075439453125 155.66441345214844 387.7615966796875 C 148.650146484375 371.10137939453125 141.1238250732422 356.5722351074219 128.6869354248047 346.12353515625 C 112.69388580322266 344.907958984375 98.83856201171875 346.7523193359375 86.8912582397461 354.28369140625 C 77.31586456298828 365.8190002441406 69.17941284179688 377.2054443359375 56.95769500732422 388.22076416015625 C 46.28935241699219 389.1988525390625 35.63731002807617 392.75189208984375 27.659208297729492 394.7863464355469 C 12.42590045928955 390.93023681640625 12.455170631408691 385.0082092285156 10.146265029907227 373.7724914550781 C 2.0062732696533203 364.2252502441406 7.561563014984131 357.48358154296875 16.12693977355957 347.39141845703125 C 24.592975616455078 335.435546875 28.730266571044922 329.0543518066406 45.19535446166992 330.1781005859375 C 57.10973358154297 321.36968994140625 66.95206451416016 310.8072204589844 76.95120239257812 299.91741943359375 C 85.72679901123047 290.3558044433594 95.36707305908203 292.2147216796875 110.41989135742188 298.6485290527344 C 118.77704620361328 311.23663330078125 125.51321411132812 323.2008972167969 127.29395294189453 336.05743408203125 C 138.1580810546875 341.4417724609375 146.78880310058594 338.3479919433594 152.62831115722656 330.18994140625 C 160.341796875 319.89715576171875 167.51071166992188 309.56640625 173.6788330078125 298.28857421875 C 177.9691162109375 287.159423828125 181.03599548339844 276.4691467285156 184.44981384277344 266.4172058105469 C 185.2415008544922 257.7706298828125 184.8397674560547 247.36099243164062 173.23411560058594 238.45712280273438" stroke-width="0.0" fill="rgb(248, 200, 106)" opacity="0.99978113" stroke="rgb(207, 9, 130)" stroke-opacity="0.32220793" stroke-linecap="round" stroke-linejoin="round"/>
    <path d="M 171.16366577148438 380.6998291015625 C 171.3914337158203 380.6466979980469 171.48301696777344 379.83544921875 171.87966918945312 379.39556884765625 C 173.08738708496094 379.6573486328125 174.1085662841797 379.6013488769531 174.7601776123047 378.5473327636719 C 176.02511596679688 378.4643249511719 177.12973022460938 378.3442077636719 178.43087768554688 378.413330078125 C 179.66015625 378.3564758300781 180.77902221679688 378.4464416503906 182.34519958496094 378.1465148925781 C 182.92031860351562 379.5710144042969 183.84683227539062 379.8450012207031 185.45538330078125 379.3990478515625 C 185.44056701660156 380.6260070800781 186.3860321044922 380.7305908203125 187.4342498779297 380.7574157714844 C 187.8962860107422 381.1135559082031 188.69088745117188 381.10479736328125 189.593017578125 380.8788146972656 C 190.3561553955078 381.1733093261719 191.56065368652344 381.5711669921875 192.32342529296875 381.5240783691406 C 193.19424438476562 381.6040954589844 193.9447479248047 381.7679748535156 194.63272094726562 381.66058349609375 C 194.99014282226562 382.0722961425781 195.48056030273438 382.2555236816406 196.29019165039062 382.25286865234375 C 196.88204956054688 382.4483337402344 198.00364685058594 382.6024169921875 199.3807830810547 382.6272888183594 C 201.18751525878906 383.7847595214844 203.7772979736328 383.1769714355469 206.10032653808594 384.17864990234375 C 209.80816650390625 384.35064697265625 213.24827575683594 385.6207580566406 217.4533233642578 385.69842529296875 C 220.62957763671875 387.0205993652344 225.26039123535156 386.0220031738281 228.94320678710938 387.3071594238281 C 233.8564453125 387.26275634765625 238.2072296142578 387.6194152832031 242.4413299560547 387.48553466796875 C 246.30824279785156 387.52423095703125 250.16778564453125 387.514404296875 253.73883056640625 387.2117614746094 C 257.0092468261719 386.4023742675781 260.27374267578125 386.5560607910156 263.21331787109375 386.2284851074219 C 265.8883972167969 385.3797607421875 268.5109558105469 385.6429138183594 270.8381042480469 385.25433349609375 C 272.88531494140625 384.2470703125 275.25616455078125 384.61541748046875 277.40771484375 383.8630065917969 C 279.8622741699219 383.13751220703125 283.0000305175781 383.02484130859375 285.9356994628906 381.7519226074219 C 289.9296569824219 380.2789001464844 295.3854064941406 379.9381103515625 298.811767578125 377.4287109375 C 303.735595703125 377.4178466796875 308.5916442871094 377.32525634765625 313.0372009277344 377.628662109375 C 316.5661926269531 381.38568115234375 316.25457763671875 385.40045166015625 315.6271057128906 389.89324951171875 C 315.3448486328125 394.8055725097656 314.9415588378906 400.4206237792969 313.7304382324219 405.19097900390625 C 313.3339538574219 410.5055847167969 311.8436584472656 415.9573974609375 310.3252868652344 421.286376953125 C 308.9898376464844 427.5041809082031 307.55560302734375 434.6103820800781 304.924560546875 441.35064697265625 C 303.9201965332031 448.2054138183594 302.4163513183594 454.4538269042969 300.8618469238281 459.91790771484375 C 300.9496765136719 465.30029296875 300.1997375488281 469.07708740234375 297.9015197753906 471.332275390625 C 294.6396484375 472.44232177734375 292.1094970703125 474.1326904296875 289.1621398925781 474.3188781738281 C 285.8298034667969 471.0550231933594 281.75732421875 473.0046691894531 277.74078369140625 472.6710510253906 C 273.9446716308594 472.3812255859375 269.8267822265625 472.7503967285156 264.8387756347656 472.072021484375 C 260.5067443847656 472.03204345703125 255.7320556640625 471.291748046875 250.11997985839844 470.6116638183594 C 246.0692901611328 469.7640380859375 244.64511108398438 465.0766296386719 242.5687713623047 461.44000244140625 C 240.7736053466797 458.2182312011719 239.81646728515625 456.20703125 239.65313720703125 455.533203125 C 239.83277893066406 456.267333984375 240.90328979492188 458.4750061035156 242.87811279296875 462.0032958984375 C 244.88473510742188 466.1836242675781 247.97979736328125 469.0057067871094 246.7645721435547 473.2928771972656 C 246.6467742919922 477.7142028808594 246.67137145996094 481.0821228027344 244.73709106445312 484.9842529296875 C 242.2607421875 481.4983825683594 243.1919403076172 478.16552734375 242.94110107421875 470.5196228027344 C 241.44375610351562 468.836181640625 234.56480407714844 468.0047607421875 233.55516052246094 463.5502014160156 C 233.42633056640625 456.572998046875 232.66445922851562 453.7034912109375 229.04049682617188 454.4549560546875 C 226.96658325195312 455.50787353515625 228.24749755859375 459.7763977050781 226.8101348876953 465.31536865234375 C 226.92288208007812 472.56683349609375 227.01626586914062 475.66448974609375 217.02316284179688 474.6323547363281 C 215.43475341796875 477.95745849609375 215.8932647705078 483.3096618652344 214.14320373535156 487.9320068359375 C 213.29335021972656 492.58026123046875 213.16929626464844 497.22308349609375 210.8759307861328 506.986083984375 C 207.41470336914062 502.9443054199219 209.70999145507812 499.39849853515625 209.5951690673828 495.16192626953125 C 210.0795440673828 490.3017578125 210.4008331298828 485.25213623046875 211.1752166748047 479.7236633300781 C 211.30245971679688 474.8334045410156 214.22695922851562 471.3297119140625 216.04652404785156 467.3293762207031 C 217.24014282226562 464.5130920410156 218.2548370361328 462.0840759277344 219.08099365234375 460.8096008300781 C 219.41622924804688 460.28253173828125 219.1500701904297 460.55352783203125 218.56134033203125 461.71630859375 C 217.55494689941406 463.4029846191406 216.7227783203125 466.1257019042969 215.22251892089844 468.9879150390625 C 213.7871856689453 471.8299560546875 212.37889099121094 475.89837646484375 209.84922790527344 474.84710693359375 C 204.4901580810547 475.6967468261719 199.02398681640625 475.1409912109375 193.06536865234375 475.2729797363281 C 186.42953491210938 474.7979431152344 179.31024169921875 475.3060607910156 171.89743041992188 472.8338623046875 C 167.18563842773438 473.8221740722656 163.2982177734375 473.62481689453125 159.64422607421875 470.6981506347656 C 157.29306030273438 468.1748352050781 157.6522674560547 462.8345642089844 157.31837463378906 456.7419128417969 C 156.95660400390625 450.4214172363281 155.9184112548828 443.88336181640625 155.35531616210938 437.42462158203125 C 155.2036590576172 430.7056884765625 154.02256774902344 424.402099609375 153.47030639648438 418.1610107421875 C 153.03204345703125 412.31219482421875 153.02474975585938 406.53466796875 152.71432495117188 399.9482116699219 C 154.75502014160156 396.353271484375 156.2478790283203 392.209716796875 156.2913818359375 385.9152526855469 C 158.28054809570312 382.9225158691406 161.0731658935547 379.39996337890625 171.16366577148438 380.6998291015625" stroke-width="0.0" fill="rgb(251, 76, 3)" opacity="0.9999867" stroke="rgb(20, 77, 79)" stroke-opacity="0.46054134" stroke-linecap="round" stroke-linejoin="round"/>
    <path d="M 289.2548522949219 15.590127944946289 C 290.1394958496094 15.2406587600708 290.9764709472656 14.880680084228516 291.8619079589844 14.463958740234375 C 292.64599609375 14.334495544433594 293.40814208984375 14.342883110046387 294.3121643066406 14.388503074645996 C 295.2279357910156 14.977974891662598 296.31768798828125 15.722638130187988 297.717041015625 16.714780807495117 C 299.386474609375 18.26388168334961 301.4151611328125 20.370813369750977 303.4256591796875 22.669742584228516 C 305.2021179199219 25.745864868164062 307.4999694824219 29.044231414794922 309.8290100097656 32.51094436645508 C 312.018798828125 36.39157485961914 313.93682861328125 40.36715316772461 315.9961242675781 44.38578796386719 C 317.7320251464844 48.426658630371094 319.7408447265625 52.223358154296875 321.52044677734375 55.835506439208984 C 323.76947021484375 59.019012451171875 326.1107482910156 61.96864318847656 328.4208068847656 64.44072723388672 C 330.4771728515625 66.64228820800781 331.69598388671875 68.6280288696289 332.1220397949219 70.50605010986328 C 331.35882568359375 72.3018569946289 329.73712158203125 74.02181243896484 327.20684814453125 76.10604095458984 C 323.9867248535156 77.46709442138672 320.54962158203125 79.06930541992188 317.0732116699219 80.79907989501953 C 313.227294921875 82.54625701904297 309.65576171875 84.45360565185547 306.3677673339844 86.5165023803711 C 303.37017822265625 88.80882263183594 300.18328857421875 90.81340789794922 296.87322998046875 92.87651824951172 C 293.18353271484375 94.46371459960938 289.3401794433594 95.64103698730469 285.08660888671875 96.5622329711914 C 280.7879638671875 96.40386962890625 276.21612548828125 95.90367126464844 271.50042724609375 94.8309097290039 C 266.9193115234375 93.00983428955078 262.2586975097656 90.34752655029297 257.4892578125 87.71024322509766 C 253.26089477539062 84.69476318359375 248.5545196533203 82.36405181884766 243.55819702148438 80.61299896240234 C 239.86239624023438 78.896484375 235.9683837890625 78.38029479980469 232.56858825683594 78.98947143554688 C 229.64906311035156 80.48102569580078 227.32156372070312 83.05972290039062 226.09970092773438 86.31546020507812 C 224.94183349609375 90.14374542236328 224.07333374023438 94.15179443359375 223.79286193847656 98.1644515991211 C 223.49635314941406 101.79901885986328 222.66270446777344 105.0419692993164 221.41148376464844 107.77494049072266 C 218.8343505859375 109.51517486572266 215.542236328125 110.72589111328125 211.49691772460938 111.62139892578125 C 206.7151641845703 111.92993927001953 201.32949829101562 111.6314468383789 195.50111389160156 111.44022369384766 C 189.5892791748047 110.97252655029297 183.7472381591797 110.81269073486328 178.0111541748047 110.382568359375 C 172.62283325195312 109.56712341308594 167.57203674316406 109.50643157958984 163.0120391845703 109.98591613769531 C 159.0240478515625 110.5712661743164 155.13754272460938 111.99893951416016 151.9124755859375 113.8508071899414 C 149.18617248535156 116.42656707763672 146.8804473876953 119.5185546875 144.97434997558594 122.86685943603516 C 143.4570770263672 126.7947006225586 141.9512176513672 130.57412719726562 140.34002685546875 134.3877716064453 C 138.3941192626953 137.75662231445312 136.38333129882812 141.140625 134.2046356201172 144.40505981445312 C 132.11305236816406 147.88632202148438 130.3455352783203 151.52699279785156 128.6473846435547 155.23837280273438 C 128.34619140625 159.83096313476562 127.68421173095703 164.3221893310547 127.26067352294922 168.98385620117188 C 126.71564483642578 173.50210571289062 126.24913024902344 177.81832885742188 125.12586975097656 181.859375 C 122.59625244140625 184.9884796142578 119.61933898925781 187.8454132080078 115.85384368896484 190.25738525390625 C 111.02287292480469 191.315185546875 105.46617889404297 191.89736938476562 99.49078369140625 191.8235626220703 C 93.28067779541016 191.81983947753906 87.08223724365234 191.3097686767578 81.14156341552734 190.10140991210938 C 75.76124572753906 188.097900390625 71.37325286865234 186.01849365234375 67.89336395263672 183.01539611816406 C 65.87447357177734 179.5865478515625 64.73921203613281 176.21371459960938 64.50442504882812 172.60238647460938 C 65.6553726196289 168.97262573242188 67.27486419677734 165.41905212402344 68.87171173095703 161.73521423339844 C 71.57311248779297 158.07489013671875 74.03477478027344 154.15943908691406 76.12380981445312 150.17050170898438 C 78.28346252441406 146.05796813964844 79.68936157226562 141.47369384765625 80.76539611816406 136.57595825195312 C 81.85247039794922 131.75411987304688 83.16153717041016 126.9735107421875 84.50883483886719 122.21693420410156 C 86.53506469726562 117.90645599365234 88.77043151855469 113.8783187866211 91.3476791381836 110.31217193603516 C 94.16288757324219 107.07672882080078 97.03336334228516 104.04276275634766 99.7932357788086 101.11246490478516 C 102.67446899414062 98.7183837890625 105.46729278564453 96.21784973144531 108.08484649658203 93.66307067871094 C 110.49798583984375 90.66659545898438 112.9887466430664 87.75559997558594 115.3563232421875 84.5855712890625 C 118.3659439086914 81.50062561035156 121.57018280029297 78.2276382446289 124.8223876953125 74.96794891357422 C 128.14186096191406 71.54624938964844 131.56283569335938 68.16378784179688 135.16534423828125 64.65567779541016 C 138.97067260742188 61.53126525878906 142.62306213378906 58.20795822143555 146.1133575439453 54.63819885253906 C 149.60475158691406 51.16429138183594 153.08432006835938 47.71144104003906 156.51678466796875 44.409305572509766 C 159.36305236816406 40.752811431884766 162.31300354003906 37.678985595703125 165.11935424804688 35.14815139770508 C 168.92514038085938 33.89236068725586 172.27920532226562 33.26263427734375 175.92567443847656 33.42189025878906 C 179.7423858642578 34.7096061706543 183.7500762939453 36.63011169433594 188.06332397460938 38.84852981567383 C 192.13275146484375 41.57661437988281 196.42349243164062 43.86219024658203 200.98245239257812 45.549137115478516 C 205.5717010498047 46.54840087890625 210.04869079589844 46.94176483154297 214.23873901367188 46.34451675415039 C 218.4119873046875 45.31399917602539 222.36936950683594 43.168087005615234 225.6173095703125 40.244224548339844 C 228.98751831054688 36.927772521972656 232.10157775878906 33.352149963378906 235.1027069091797 29.73026466369629 C 238.38577270507812 26.31345558166504 241.7417449951172 23.585922241210938 245.30979919433594 21.053129196166992 C 249.39674377441406 19.134920120239258 253.83848571777344 17.548419952392578 258.86663818359375 16.425064086914062 C 264.2681884765625 15.734643936157227 269.99261474609375 15.186176300048828 276.00244140625 15.30786418914795 C 282.18853759765625 15.489595413208008 288.35028076171875 15.498579978942871 289.2548522949219 15.590127944946289" stroke-width="0.0" fill="rgb(61, 39, 36)" opacity="0.999537" stroke="rgb(184, 91, 242)" stroke-opacity="0.17438076" stroke-linecap="round" stroke-linejoin="round"/>
    <path d="M 217.28573608398438 271.99945068359375 C 219.1381378173828 271.953125 220.5684356689453 272.1004638671875 221.96986389160156 272.26837158203125 C 223.35267639160156 272.4054870605469 224.7291717529297 272.48602294921875 225.88084411621094 272.5634765625 C 227.0596923828125 272.5451965332031 228.18838500976562 272.42852783203125 229.11801147460938 272.3429260253906 C 230.17445373535156 272.29443359375 231.1272735595703 272.19219970703125 232.08465576171875 272.096435546875 C 233.04299926757812 272.10748291015625 234.05076599121094 272.1041564941406 235.09622192382812 272.1230773925781 C 236.09317016601562 272.26043701171875 237.11026000976562 272.3503112792969 238.10279846191406 272.4493103027344 C 239.0319366455078 272.5915222167969 239.93397521972656 272.6603698730469 240.7871551513672 272.7127990722656 C 241.6295928955078 272.8184509277344 242.55789184570312 272.8466796875 243.55850219726562 272.7732849121094 C 244.75741577148438 272.7667236328125 246.20083618164062 272.6779479980469 247.8891143798828 272.4492492675781 C 249.84799194335938 272.2673034667969 252.13673400878906 272.1148986816406 254.62619018554688 271.9983825683594 C 257.24981689453125 272.0866394042969 259.9027099609375 272.36029052734375 262.45245361328125 272.7760314941406 C 264.7163391113281 273.7121887207031 266.648193359375 274.85687255859375 268.34228515625 276.2840576171875 C 269.333984375 278.221435546875 270.092529296875 280.3616027832031 270.5119323730469 282.6959533691406 C 270.585205078125 285.22894287109375 270.7055969238281 287.86968994140625 270.90643310546875 290.4170837402344 C 271.15594482421875 292.9066467285156 271.5804748535156 295.263916015625 272.05767822265625 297.40228271484375 C 273.2476806640625 299.3570251464844 274.5286560058594 301.1459045410156 275.951171875 302.7863464355469 C 277.6521911621094 304.18701171875 279.39971923828125 305.57733154296875 281.0735168457031 306.9375305175781 C 282.6864318847656 308.4075012207031 284.2741394042969 309.9983215332031 285.6709289550781 311.5361633300781 C 287.200439453125 313.2656555175781 288.7313232421875 314.9236145019531 290.43780517578125 316.539794921875 C 292.2217102050781 318.1890869140625 294.15155029296875 319.73077392578125 296.1207580566406 321.1578063964844 C 297.92999267578125 322.6839599609375 299.5283508300781 324.3861999511719 300.9146728515625 326.1406555175781 C 301.79656982421875 328.20745849609375 302.35272216796875 330.430908203125 302.6668701171875 332.94989013671875 C 302.5882568359375 335.5800476074219 302.5382385253906 338.28948974609375 302.5303955078125 341.0291442871094 C 302.7894592285156 343.6819152832031 303.38134765625 346.2601318359375 303.7703857421875 348.78253173828125 C 305.3691711425781 351.00201416015625 306.89666748046875 353.133544921875 308.3454284667969 355.0788879394531 C 309.5587158203125 357.0696105957031 310.3572082519531 358.923095703125 310.66845703125 360.75360107421875 C 310.32440185546875 362.390380859375 309.31585693359375 363.81146240234375 307.7340393066406 365.0063171386719 C 305.5696716308594 365.8885192871094 303.0812683105469 366.5520324707031 300.2569580078125 366.8761901855469 C 297.30242919921875 367.0267639160156 294.2430725097656 367.0065002441406 291.15240478515625 366.93084716796875 C 288.0803527832031 366.8849182128906 285.0339050292969 366.8541564941406 281.98345947265625 366.9024963378906 C 278.9838562011719 366.9884948730469 275.94879150390625 367.1804504394531 272.9445495605469 367.4539794921875 C 269.9481201171875 367.5650939941406 266.95977783203125 367.7158203125 264.0167541503906 367.78302001953125 C 261.0137023925781 367.8124694824219 258.0436096191406 367.7119445800781 255.201416015625 367.5618896484375 C 252.29176330566406 367.37664794921875 249.30226135253906 367.1325378417969 246.39385986328125 366.91351318359375 C 243.46473693847656 366.6302185058594 240.49362182617188 366.5032653808594 237.4567108154297 366.52777099609375 C 234.45521545410156 366.4544372558594 231.36965942382812 366.40924072265625 228.19654846191406 366.4818420410156 C 225.0565185546875 366.41827392578125 221.9746856689453 366.45269775390625 218.8321075439453 366.4975891113281 C 215.79690551757812 366.4395446777344 212.7248992919922 366.4851379394531 209.73361206054688 366.4721374511719 C 206.80564880371094 366.4263000488281 203.9222412109375 366.4637145996094 200.99676513671875 366.53668212890625 C 198.09078979492188 366.62518310546875 195.2005615234375 366.8858642578125 192.22906494140625 367.09039306640625 C 189.12496948242188 367.3341064453125 185.9293975830078 367.5425720214844 182.7500457763672 367.74835205078125 C 179.4600830078125 367.7242431640625 176.12278747558594 367.5077819824219 172.9119110107422 367.1192626953125 C 169.95193481445312 366.43048095703125 167.27857971191406 365.6328125 164.96131896972656 364.638671875 C 163.2907257080078 363.4240417480469 162.18858337402344 362.0948486328125 161.56175231933594 360.6927795410156 C 161.9842071533203 359.35888671875 162.9132537841797 357.9296569824219 164.38101196289062 356.666259765625 C 166.1685791015625 355.3651428222656 168.20578002929688 353.9652404785156 170.3065185546875 352.462158203125 C 172.2447509765625 350.8353576660156 173.92369079589844 348.9446105957031 175.3321990966797 346.8293151855469 C 175.9737548828125 344.2615966796875 176.34352111816406 341.5675964355469 176.46707153320312 338.73809814453125 C 176.47705078125 335.838134765625 176.4561767578125 333.0423278808594 176.63079833984375 330.3362731933594 C 177.2491912841797 327.92962646484375 178.11595153808594 325.835205078125 179.42172241210938 323.9791259765625 C 181.14419555664062 322.4159851074219 183.02259826660156 321.1012268066406 185.10215759277344 319.78399658203125 C 187.03170776367188 318.425537109375 188.79177856445312 316.7852478027344 190.36778259277344 314.92205810546875 C 191.47198486328125 312.8330993652344 192.21307373046875 310.4676818847656 192.65496826171875 307.8762512207031 C 192.97589111328125 305.2393798828125 193.2037353515625 302.6835632324219 193.61322021484375 300.2113952636719 C 194.25436401367188 297.8540954589844 195.01712036132812 295.8106994628906 196.08636474609375 293.8532409667969 C 197.48812866210938 292.1612854003906 198.9767608642578 290.5200500488281 200.630615234375 288.84674072265625 C 202.29373168945312 287.2626647949219 203.90089416503906 285.7050476074219 205.5082244873047 283.9349060058594 C 206.73095703125 281.6712951660156 208.06004333496094 279.7391662597656 209.29769897460938 277.69830322265625 C 210.7974395751953 275.8357849121094 212.197265625 274.0635986328125 213.71563720703125 272.2950744628906 C 215.20973205566406 270.6202087402344 216.67872619628906 269.1706237792969 217.28573608398438 271.99945068359375" stroke-width="0.0" fill="rgb(254, 111, 167)" opacity="0.9995053" stroke="rgb(208, 36, 111)" stroke-opacity="0.34216064" stroke-linecap="round" stroke-linejoin="round"/>
    <path d="M 365.04852294921875 268.6352233886719 C 365.785888671875 268.6658020019531 366.4322509765625 268.9832763671875 367.0273132324219 269.482421875 C 368.1876220703125 269.6455078125 368.9646301269531 270.22760009765625 370.02197265625 270.5915832519531 C 371.1465148925781 271.1233215332031 372.3620300292969 271.54083251953125 373.4134521484375 272.14532470703125 C 374.65802001953125 272.57720947265625 375.8053283691406 273.0595703125 376.8396911621094 273.5294494628906 C 377.88592529296875 273.9628601074219 378.8843994140625 274.43212890625 380.05682373046875 274.8496398925781 C 381.0596923828125 275.3839111328125 382.1611328125 275.9544372558594 383.3685302734375 276.8053894042969 C 384.6246337890625 277.72802734375 386.1505432128906 278.311767578125 387.6446533203125 279.2815246582031 C 389.4256591796875 279.9244079589844 391.07354736328125 280.9322509765625 392.7716369628906 282.0843200683594 C 394.87451171875 283.19927978515625 396.6863098144531 284.60174560546875 398.27972412109375 286.40863037109375 C 400.17529296875 287.7837219238281 401.96875 289.50115966796875 403.8769836425781 291.12591552734375 C 405.2762451171875 293.0657958984375 406.839111328125 294.3715515136719 408.6993103027344 295.44427490234375 C 410.9473876953125 295.6917419433594 413.7865295410156 296.1008605957031 415.28662109375 293.7474365234375 C 417.4580383300781 292.96868896484375 420.6188659667969 292.0893859863281 422.82183837890625 290.9783020019531 C 425.9808044433594 290.7193603515625 427.7984313964844 289.2311706542969 430.17236328125 289.16973876953125 C 433.3736877441406 288.38037109375 434.3709411621094 286.89508056640625 436.2074890136719 285.22015380859375 C 437.5416259765625 283.1293029785156 439.46856689453125 281.4463806152344 441.2503356933594 279.6609191894531 C 443.0085754394531 278.9168395996094 445.4674377441406 279.4574890136719 447.415771484375 279.4636535644531 C 448.0988464355469 280.58294677734375 449.63226318359375 282.06256103515625 450.5207824707031 282.9477844238281 C 450.4967956542969 284.7915344238281 450.8201904296875 286.9314270019531 450.3663024902344 288.4304504394531 C 449.2606506347656 289.5122375488281 449.9051818847656 292.32476806640625 448.7055358886719 292.0624694824219 C 448.33319091796875 294.6957092285156 447.6530456542969 296.3363342285156 446.78131103515625 297.3617858886719 C 445.9854431152344 299.3525695800781 446.2137145996094 299.83917236328125 447.9588623046875 299.1961669921875 C 449.91748046875 300.4166564941406 452.56689453125 301.1082458496094 454.8533935546875 302.29315185546875 C 456.7821044921875 303.4420471191406 459.457763671875 304.4977111816406 461.96539306640625 305.88177490234375 C 464.0394287109375 307.4392395019531 466.4363708496094 308.8299865722656 468.4544982910156 310.321533203125 C 470.5325012207031 311.8972473144531 471.6074523925781 314.3238525390625 473.7486572265625 314.8767395019531 C 473.7532653808594 317.133544921875 473.60150146484375 319.23907470703125 473.9312744140625 321.4627990722656 C 471.47979736328125 321.71099853515625 470.3182678222656 324.3363952636719 467.9765625 323.690673828125 C 464.9176025390625 323.7503967285156 462.6750793457031 323.7200622558594 460.12615966796875 323.4866027832031 C 460.1799011230469 324.7554931640625 461.8563232421875 325.37847900390625 463.5018615722656 327.5660095214844 C 465.72845458984375 328.998779296875 467.1852111816406 331.6925048828125 467.6970520019531 333.81097412109375 C 467.8246765136719 336.837158203125 467.7969055175781 338.174072265625 465.51617431640625 339.5062255859375 C 463.8050231933594 340.083984375 462.1054992675781 340.9957275390625 460.6992492675781 341.0423889160156 C 460.7223205566406 342.9376220703125 460.58563232421875 344.89495849609375 460.8580627441406 346.4801940917969 C 458.501708984375 347.9770202636719 456.2799987792969 347.7349548339844 453.3750915527344 347.66705322265625 C 450.7016296386719 347.2707824707031 447.8257751464844 346.1460876464844 445.41412353515625 345.3848876953125 C 443.57122802734375 344.1123352050781 441.3688659667969 344.17218017578125 439.9458312988281 343.462158203125 C 438.65960693359375 343.7953186035156 437.808349609375 343.3913879394531 437.32513427734375 343.00146484375 C 437.7161560058594 342.3425598144531 438.13140869140625 341.7957458496094 438.84326171875 340.9520568847656 C 439.4892883300781 339.98504638671875 439.364501953125 338.7726135253906 438.4637145996094 336.1852111816406 C 441.5583190917969 335.08587646484375 442.31854248046875 334.2292175292969 441.5822448730469 332.46185302734375 C 443.52008056640625 331.2832336425781 443.8970642089844 329.6948547363281 443.1856994628906 328.10882568359375 C 442.03192138671875 326.756103515625 440.7324523925781 325.4747314453125 437.9373779296875 325.26611328125 C 437.15838623046875 321.6048583984375 436.5633239746094 319.623291015625 436.4539794921875 317.8655090332031 C 436.751953125 315.5939636230469 436.87554931640625 313.3753356933594 436.50048828125 311.8692321777344 C 436.1611022949219 310.8796081542969 434.8550109863281 309.51470947265625 431.61419677734375 308.0479736328125 C 431.8045959472656 305.4844665527344 431.4788513183594 304.84625244140625 429.24578857421875 305.8367919921875 C 428.15594482421875 302.41986083984375 426.965576171875 301.5006408691406 424.5614013671875 301.0517883300781 C 423.39471435546875 299.08514404296875 422.2953186035156 299.0913391113281 421.4100036621094 298.771240234375 C 420.7911682128906 294.58868408203125 419.378662109375 294.2899475097656 417.6957702636719 294.8250427246094 C 415.8290100097656 294.1746520996094 414.1251220703125 294.2645568847656 412.3998718261719 294.54791259765625 C 410.6533203125 294.7315368652344 408.7880859375 294.5458984375 407.0450134277344 293.4956970214844 C 404.8877258300781 292.7499084472656 402.5843811035156 292.4339294433594 401.060791015625 290.47320556640625 C 398.4505920410156 289.4302062988281 396.2297668457031 287.940185546875 393.9130859375 286.42926025390625 C 393.1595153808594 284.7317810058594 391.5976257324219 283.40875244140625 388.9720764160156 282.5884704589844 C 387.3362121582031 281.9432373046875 385.6532287597656 280.890625 383.70550537109375 280.1595764160156 C 382.1169738769531 278.5117492675781 380.299072265625 277.7428283691406 379.0053405761719 275.8114318847656 C 377.26513671875 274.2828063964844 375.38031005859375 273.42242431640625 373.2192687988281 273.25262451171875 C 371.3277893066406 272.1990051269531 369.5189514160156 271.3199462890625 367.77911376953125 270.277587890625 C 365.8933410644531 269.3318176269531 364.1207275390625 268.46368408203125 365.04852294921875 268.6352233886719" stroke-width="0.0" fill="rgb(247, 185, 103)" opacity="0.9999899" stroke="rgb(40, 81, 52)" stroke-opacity="0.21538487" stroke-linecap="round" stroke-linejoin="round"/>
    <path d="M 304.8846740722656 101.59649658203125 C 305.7567443847656 102.85218048095703 306.6397399902344 103.69510650634766 305.9994201660156 104.810302734375 C 307.719970703125 104.64979553222656 309.0424499511719 103.86161804199219 310.7752990722656 104.27793884277344 C 312.5063781738281 103.98036193847656 314.24029541015625 104.36906433105469 317.14849853515625 104.45134735107422 C 315.6454772949219 105.56293487548828 315.4215087890625 106.69564819335938 316.4841613769531 107.48393249511719 C 315.2864074707031 108.0648422241211 315.7908630371094 107.19038391113281 315.9134826660156 106.48372650146484 C 315.7016296386719 105.4659423828125 316.076171875 104.79585266113281 317.6805114746094 104.98625183105469 C 319.8822937011719 104.69869232177734 320.8184509277344 106.36936950683594 323.1255187988281 107.36734771728516 C 324.6654968261719 108.11454772949219 325.70526123046875 109.74470520019531 327.0039978027344 110.57279968261719 C 326.603515625 111.7981948852539 327.7769775390625 112.06497955322266 328.0223693847656 113.10380554199219 C 328.3365173339844 113.99948120117188 329.0582580566406 114.9000244140625 329.56597900390625 115.8683853149414 C 329.78021240234375 116.83425903320312 329.8031921386719 118.43875885009766 330.50567626953125 118.54340362548828 C 330.4877624511719 119.64712524414062 330.5685119628906 120.56616973876953 330.5497741699219 121.5499496459961 C 330.56768798828125 122.63825988769531 330.5361328125 123.75237274169922 330.63592529296875 125.07381439208984 C 330.3309326171875 126.50691223144531 329.8641052246094 128.37600708007812 329.0520935058594 129.8590087890625 C 329.4854431152344 131.19422912597656 327.4714050292969 132.32373046875 328.6656799316406 132.8419952392578 C 331.3281555175781 133.83282470703125 330.29522705078125 134.91305541992188 328.8650817871094 134.87200927734375 C 327.887939453125 135.26657104492188 327.1960754394531 135.9683837890625 325.938232421875 136.09129333496094 C 324.95074462890625 136.3303985595703 323.8802185058594 137.00205993652344 322.5667419433594 137.26132202148438 C 321.4843444824219 137.95904541015625 320.07958984375 138.07313537597656 318.9297790527344 138.34713745117188 C 318.3017272949219 139.23536682128906 317.3218994140625 138.93826293945312 316.2743835449219 139.06369018554688 C 315.59161376953125 139.78903198242188 314.7562561035156 139.96182250976562 313.47723388671875 139.8663787841797 C 313.5959167480469 140.5403594970703 312.7960510253906 140.9027099609375 310.9333801269531 141.0475616455078 C 309.3387145996094 141.55455017089844 307.80804443359375 142.14694213867188 306.74212646484375 142.1228790283203 C 305.728515625 142.77700805664062 304.2321472167969 143.29055786132812 302.7475280761719 142.88319396972656 C 301.5718994140625 143.38870239257812 301.00115966796875 143.25482177734375 300.27783203125 142.75550842285156 C 299.8771057128906 141.96951293945312 299.4102783203125 141.34095764160156 298.7000732421875 140.9762420654297 C 298.7308044433594 139.15145874023438 297.27569580078125 139.06594848632812 296.94793701171875 137.99822998046875 C 296.5398864746094 135.76622009277344 295.0068054199219 135.87606811523438 294.7464599609375 134.53211975097656 C 294.0531311035156 132.8459930419922 293.4951171875 131.57484436035156 292.9900817871094 130.56211853027344 C 292.72265625 129.24400329589844 292.02032470703125 128.30140686035156 292.0798645019531 127.3257827758789 C 291.9538269042969 126.2490005493164 291.7405090332031 125.5573501586914 291.511474609375 125.00010681152344 C 291.32275390625 124.48375701904297 291.39141845703125 123.5514907836914 291.5856018066406 122.84893035888672 C 291.3644714355469 122.3538589477539 291.4476623535156 121.34273529052734 291.537841796875 120.36083221435547 C 291.0093688964844 119.651611328125 292.07421875 118.77760314941406 291.9570007324219 116.80718231201172 C 292.0663757324219 115.25348663330078 293.2735290527344 114.42313385009766 293.77508544921875 112.49445343017578 C 294.8572692871094 111.18927764892578 295.5055236816406 109.29126739501953 296.7149963378906 108.53733825683594 C 297.84912109375 107.35708618164062 298.942138671875 105.93852233886719 299.93084716796875 105.79491424560547 C 300.6213684082031 104.3888168334961 302.3213195800781 104.27113342285156 304.8846740722656 101.59649658203125" stroke-width="0.0" fill="rgb(140, 69, 26)" opacity="0.9999977" stroke="rgb(198, 26, 229)" stroke-opacity="0.54831547" stroke-linecap="round" stroke-linejoin="round"/>
    <path d="M 126.25203704833984 331.3940734863281 C 126.9234390258789 331.7565612792969 127.79142761230469 331.9965515136719 129.30308532714844 332.1595458984375 C 130.02870178222656 333.4052734375 131.2144775390625 332.9964904785156 132.78028869628906 333.5630798339844 C 134.1021728515625 334.6243591308594 135.81982421875 334.677978515625 137.71707153320312 332.5575256347656 C 139.66387939453125 334.0164489746094 141.6045379638672 335.05047607421875 143.39234924316406 335.2541809082031 C 145.14718627929688 335.10125732421875 146.59548950195312 334.519775390625 148.3769073486328 335.4806213378906 C 148.7652587890625 338.7650451660156 149.0848846435547 340.9991760253906 151.91549682617188 343.3193664550781 C 149.8260955810547 345.6095275878906 148.71044921875 347.5728759765625 149.36422729492188 349.0386657714844 C 149.7664031982422 350.7124328613281 149.7704620361328 352.2003173828125 150.62278747558594 353.6798095703125 C 149.57330322265625 355.0750732421875 148.27423095703125 356.4620361328125 148.7307891845703 357.96728515625 C 148.6643524169922 359.68701171875 148.67898559570312 361.5129699707031 147.993408203125 363.2436218261719 C 146.76947021484375 364.5182800292969 145.61318969726562 366.08441162109375 143.8850860595703 369.87982177734375 C 141.7358856201172 368.0539245605469 139.5455322265625 367.6979064941406 135.3170623779297 367.61285400390625 C 133.59091186523438 364.3271179199219 132.638916015625 361.7264404296875 129.6553955078125 360.42034912109375 C 128.3662872314453 356.5875549316406 126.68899536132812 353.7332458496094 123.0014419555664 352.7727355957031 C 123.88720703125 349.1567687988281 123.30921936035156 347.56951904296875 122.6041030883789 347.3750915527344 C 122.10379028320312 347.0101623535156 121.4585189819336 347.607177734375 121.75486755371094 349.3907775878906 C 120.64523315429688 350.49371337890625 120.10317993164062 352.1498718261719 120.68914794921875 354.65496826171875 C 119.1755142211914 355.9341125488281 118.8408203125 357.1269226074219 119.69084930419922 358.048095703125 C 119.40263366699219 359.43438720703125 120.89773559570312 360.3263854980469 122.05506134033203 360.5879821777344 C 122.68341827392578 361.8272705078125 124.16506958007812 362.2055358886719 125.99065399169922 362.9728698730469 C 127.0671157836914 364.9731750488281 127.96151733398438 366.1182861328125 128.54965209960938 366.81414794921875 C 129.30540466308594 367.489990234375 130.4832000732422 366.1797180175781 132.84429931640625 365.9974060058594 C 133.8872528076172 368.32049560546875 135.25286865234375 367.9064025878906 137.4417266845703 366.2890319824219 C 139.47897338867188 368.68896484375 141.14317321777344 369.03668212890625 143.51927185058594 369.7007751464844 C 143.8479461669922 371.68603515625 144.57505798339844 371.91033935546875 144.61105346679688 371.64068603515625 C 144.55133056640625 370.8531799316406 144.11192321777344 369.56329345703125 144.35760498046875 367.95623779296875 C 145.61428833007812 365.99957275390625 146.28958129882812 364.6646423339844 147.9422149658203 363.3471374511719 C 148.68690490722656 361.54986572265625 149.8290252685547 360.7776794433594 151.3820343017578 359.9471740722656 C 152.39682006835938 362.3668518066406 153.6343994140625 363.6832580566406 154.91146850585938 365.4215087890625 C 153.31809997558594 367.87109375 153.36904907226562 369.982177734375 154.2208709716797 372.0713195800781 C 154.48941040039062 374.4526672363281 154.30963134765625 376.9493713378906 156.36026000976562 379.0655517578125 C 155.52249145507812 381.2487487792969 155.1484375 383.1341857910156 156.83348083496094 385.4364929199219 C 155.336181640625 385.7994689941406 154.29318237304688 385.7767639160156 152.5767822265625 385.9467468261719 C 151.46456909179688 385.01129150390625 150.05035400390625 383.63714599609375 148.05557250976562 382.4957580566406 C 148.879638671875 381.269287109375 148.30894470214844 380.71441650390625 148.02017211914062 381.54095458984375 C 147.418701171875 381.91107177734375 146.40711975097656 381.73333740234375 145.5882568359375 384.83648681640625 C 144.02391052246094 382.9093933105469 142.62350463867188 383.3644714355469 140.81695556640625 385.36639404296875 C 138.42807006835938 383.1238098144531 136.53302001953125 382.56365966796875 134.2644805908203 382.9709777832031 C 132.1038818359375 382.3521423339844 130.0785675048828 381.9283142089844 127.96858978271484 381.6116027832031 C 126.15218353271484 380.716064453125 124.84385681152344 380.46014404296875 124.47044372558594 380.0204162597656 C 123.8260726928711 379.681396484375 123.55797576904297 380.69744873046875 122.72381591796875 380.8384094238281 C 121.16350555419922 380.6088562011719 120.2468032836914 380.8074645996094 118.95840454101562 381.2171630859375 C 117.73738098144531 380.53497314453125 116.6478042602539 379.8241271972656 116.10025024414062 377.8298645019531 C 115.8476333618164 375.7242736816406 115.303955078125 373.8349304199219 114.94520568847656 371.9443359375 C 114.71394348144531 370.0604248046875 114.4232177734375 368.1174621582031 114.43010711669922 366.1654357910156 C 115.30265045166016 364.0652160644531 114.68002319335938 362.0750427246094 113.53446960449219 360.2411193847656 C 113.64483642578125 357.6693420410156 113.12712860107422 355.5387268066406 112.68555450439453 353.5138244628906 C 113.62186431884766 351.2849426269531 113.07904052734375 349.5047607421875 112.97443389892578 347.730712890625 C 111.71062469482422 347.0843505859375 110.31153869628906 347.0677795410156 108.66714477539062 347.0311584472656 C 106.70156860351562 348.3097229003906 104.43289184570312 349.2173156738281 102.462646484375 346.8426513671875 C 100.13021087646484 346.8155212402344 98.0216293334961 347.94232177734375 95.77537536621094 349.1895446777344 C 93.31952667236328 350.2108154296875 91.01990509033203 350.97637939453125 88.65654754638672 352.1658630371094 C 86.5640640258789 353.0419921875 84.63926696777344 352.8833312988281 81.3125228881836 353.5146789550781 C 85.6714859008789 355.6883544921875 86.99854278564453 357.2221374511719 88.7907485961914 355.58648681640625 C 91.22015380859375 355.3981018066406 93.16740417480469 353.60455322265625 95.67367553710938 352.66717529296875 C 98.18753051757812 351.6867980957031 100.74380493164062 350.3673095703125 103.74458312988281 348.9251708984375 C 102.52169799804688 345.9434814453125 104.2299575805664 344.3638000488281 107.30292510986328 343.42962646484375 C 109.17101287841797 341.61480712890625 111.58393859863281 341.1464538574219 113.35482788085938 339.7274475097656 C 115.36679077148438 338.6489562988281 117.14128875732422 337.2424621582031 119.04240417480469 336.2102355957031 C 120.67337036132812 334.7789001464844 122.8956527709961 334.3167419433594 126.25203704833984 331.3940734863281" stroke-width="0.0" fill="rgb(145, 116, 173)" opacity="0.99992883" stroke="rgb(248, 58, 203)" stroke-opacity="0.41993797" stroke-linecap="round" stroke-linejoin="round"/>
    <path d="M 216.63388061523438 132.33860778808594 C 217.17112731933594 132.10626220703125 217.83335876464844 131.6024169921875 218.79696655273438 130.86572265625 C 220.16036987304688 130.1167755126953 221.64793395996094 130.0793914794922 223.02621459960938 130.8462371826172 C 224.18930053710938 132.1199493408203 225.17198181152344 133.6074676513672 226.05162048339844 134.95855712890625 C 226.771240234375 136.19642639160156 227.24253845214844 137.3697509765625 227.6891632080078 138.5601348876953 C 228.08624267578125 139.75576782226562 228.34922790527344 140.99868774414062 228.6009063720703 142.2680206298828 C 228.78016662597656 143.5598602294922 228.8574676513672 144.92933654785156 228.7570037841797 146.28421020507812 C 228.44229125976562 147.5987548828125 228.00868225097656 148.93406677246094 227.72454833984375 150.2929229736328 C 227.40118408203125 151.6466064453125 226.8420867919922 152.79217529296875 226.15060424804688 153.485595703125 C 225.20040893554688 153.9710235595703 224.519287109375 154.77603149414062 224.2570037841797 155.91781616210938 C 223.63841247558594 157.2161102294922 222.79876708984375 158.4395294189453 222.0447540283203 159.4902801513672 C 221.68258666992188 160.50830078125 221.72560119628906 161.5259246826172 221.76089477539062 162.44342041015625 C 221.40249633789062 163.02932739257812 220.71917724609375 163.38153076171875 219.8216094970703 163.61422729492188 C 218.7896270751953 163.76962280273438 217.67132568359375 163.8960723876953 216.5645751953125 164.0609130859375 C 215.47853088378906 164.30067443847656 214.37875366210938 164.58279418945312 213.26519775390625 164.8796844482422 C 212.1242218017578 165.1502227783203 211.0113525390625 165.42117309570312 209.8852081298828 165.64414978027344 C 208.67318725585938 165.8683319091797 207.3812255859375 166.22747802734375 206.08445739746094 166.58447265625 C 204.7902374267578 166.8809356689453 203.56634521484375 167.03216552734375 202.6881561279297 166.89077758789062 C 202.27352905273438 166.2930908203125 202.23092651367188 165.31866455078125 202.06512451171875 164.263427734375 C 201.15013122558594 163.7185516357422 199.52920532226562 163.3411407470703 197.72354125976562 162.84397888183594 C 196.04220581054688 161.97470092773438 194.51649475097656 160.878662109375 193.41049194335938 159.71299743652344 C 193.0444793701172 158.4360809326172 193.12332153320312 157.32461547851562 193.25767517089844 156.69619750976562 C 192.93026733398438 156.8295440673828 191.99185180664062 157.12290954589844 190.9059295654297 156.92556762695312 C 189.78407287597656 156.03582763671875 188.82479858398438 154.62353515625 188.1189422607422 152.8646697998047 C 187.8040313720703 151.28187561035156 187.8662872314453 150.10247802734375 187.9224395751953 149.399169921875 C 187.92335510253906 149.06333923339844 187.79263305664062 148.81939697265625 187.45252990722656 148.30862426757812 C 187.19166564941406 147.3740234375 187.0270538330078 146.2595977783203 187.3595428466797 145.39381408691406 C 188.27261352539062 144.98988342285156 189.65745544433594 145.3485565185547 191.24732971191406 145.9440460205078 C 192.79774475097656 146.4959716796875 194.3371124267578 146.77554321289062 195.81861877441406 146.78675842285156 C 197.0021209716797 146.76690673828125 197.98707580566406 146.97073364257812 198.9233856201172 147.56393432617188 C 199.8505401611328 148.18551635742188 200.8585968017578 148.63693237304688 201.90235900878906 148.41213989257812 C 202.92291259765625 147.63003540039062 203.8342742919922 146.35601806640625 204.468994140625 144.9575653076172 C 205.12115478515625 143.5785675048828 205.6796875 142.49436950683594 206.29478454589844 142.2675018310547 C 207.1331024169922 142.8590850830078 208.185791015625 143.6422576904297 209.381591796875 144.04879760742188 C 210.6134796142578 144.01556396484375 211.5381622314453 143.61595153808594 212.08963012695312 142.8596649169922 C 212.22447204589844 141.94076538085938 211.99398803710938 141.0705108642578 211.38697814941406 140.1639404296875 C 210.49794006347656 139.25547790527344 209.7160186767578 138.22483825683594 209.2930908203125 136.9018096923828 C 209.4456024169922 135.3071746826172 210.02777099609375 133.6688995361328 210.96218872070312 132.1207733154297 C 212.11647033691406 130.78677368164062 213.31231689453125 129.7217254638672 214.56539916992188 128.85304260253906 C 215.87974548339844 128.1436004638672 217.21556091308594 127.45780944824219 216.63388061523438 132.33860778808594" stroke-width="0.0" fill="rgb(141, 71, 27)" opacity="1.0" stroke="rgb(145, 240, 2)" stroke-opacity="0.20760542" stroke-linecap="round" stroke-linejoin="round"/>
    <path d="M 225.4559326171875 198.1356201171875 C 226.61012268066406 198.4484100341797 227.7760467529297 198.95960998535156 228.91416931152344 199.48121643066406 C 230.09841918945312 199.95916748046875 231.34158325195312 200.38067626953125 232.63221740722656 200.7547607421875 C 233.86898803710938 201.16693115234375 234.9987335205078 201.58340454101562 236.04891967773438 201.9176483154297 C 237.05357360839844 202.15545654296875 237.97640991210938 202.27102661132812 238.80235290527344 202.40773010253906 C 239.5693359375 202.5214080810547 240.21432495117188 202.63983154296875 240.8152313232422 202.82127380371094 C 241.4527130126953 202.9723663330078 242.21351623535156 203.08718872070312 243.18487548828125 203.17599487304688 C 244.2903594970703 203.24990844726562 245.4893341064453 203.3495635986328 246.75299072265625 203.41943359375 C 248.05821228027344 203.47181701660156 249.38128662109375 203.47828674316406 250.6810302734375 203.4722442626953 C 251.91732788085938 203.46612548828125 253.0956268310547 203.46066284179688 254.3256072998047 203.4225311279297 C 255.59742736816406 203.3938446044922 256.8728332519531 203.2230682373047 258.16461181640625 203.04164123535156 C 259.4340515136719 202.7167205810547 260.6945495605469 202.3628692626953 261.7541809082031 202.01702880859375 C 262.44378662109375 201.9385223388672 262.8021240234375 202.2349395751953 262.83953857421875 202.79763793945312 C 262.37567138671875 203.70591735839844 261.70635986328125 204.96273803710938 261.0904235839844 206.4819793701172 C 260.4645080566406 208.01441955566406 259.81182861328125 209.47610473632812 259.18804931640625 210.84536743164062 C 258.78228759765625 211.95745849609375 258.4554138183594 212.93902587890625 258.16839599609375 213.8666229248047 C 257.94171142578125 214.80181884765625 257.77587890625 215.7797393798828 257.6165466308594 216.84503173828125 C 257.4769287109375 217.92050170898438 257.31732177734375 218.95433044433594 257.1653137207031 219.90357971191406 C 257.0204162597656 220.71421813964844 256.8831481933594 221.4654083251953 256.8563232421875 222.1927032470703 C 256.8897399902344 222.8969268798828 257.0520324707031 223.67782592773438 257.3412170410156 224.63278198242188 C 257.7420349121094 225.63975524902344 257.99407958984375 226.68634033203125 257.88055419921875 227.62649536132812 C 257.0948181152344 228.2171630859375 255.82952880859375 228.54563903808594 254.27235412597656 228.67713928222656 C 252.53028869628906 228.6616668701172 250.8090362548828 228.5155792236328 249.18505859375 228.2843017578125 C 247.6990966796875 227.99502563476562 246.3922576904297 227.6685791015625 245.2266082763672 227.29734802246094 C 244.13525390625 226.92527770996094 243.13299560546875 226.55284118652344 242.14666748046875 226.12771606445312 C 241.08685302734375 225.6573486328125 239.9605255126953 225.0965576171875 238.7313232421875 224.42234802246094 C 237.52163696289062 223.6012420654297 236.4176483154297 222.66976928710938 235.43165588378906 221.7443084716797 C 234.5745391845703 220.92782592773438 233.9248504638672 220.25546264648438 233.51902770996094 219.87294006347656 C 233.34825134277344 219.6476593017578 233.33767700195312 219.58285522460938 233.34376525878906 219.50169372558594 C 233.0908203125 219.2701416015625 232.5801239013672 218.72926330566406 231.8964385986328 217.9091796875 C 231.03921508789062 216.76951599121094 230.0935516357422 215.3628692626953 229.21446228027344 213.74339294433594 C 228.3673858642578 212.02783203125 227.56385803222656 210.38922119140625 226.78707885742188 208.89048767089844 C 226.1941375732422 207.4481658935547 225.72637939453125 206.03091430664062 225.31292724609375 204.6663818359375 C 224.94287109375 203.34933471679688 224.53346252441406 202.05674743652344 224.2680206298828 200.80194091796875 C 224.18405151367188 199.67652893066406 224.26771545410156 198.80677795410156 224.71690368652344 198.22344970703125 C 225.37200927734375 197.91197204589844 226.1057891845703 197.70819091796875 225.4559326171875 198.1356201171875" stroke-width="0.0" fill="rgb(196, 40, 10)" opacity="0.99998844" stroke="rgb(226, 122, 108)" stroke-opacity="0.83390206" stroke-linecap="round" stroke-linejoin="round"/>
    <path d="M 433.0 351.0 C 433.0 352.0 434.0 353.0 435.0 354.0 C 436.0 355.0 437.0 356.0 438.0 356.0 C 439.0 357.0 440.0 357.0 441.0 357.0 C 442.0 356.0 442.0 355.0 443.0 355.0 C 444.0 355.0 444.0 356.0 444.0 357.0 C 444.0 358.0 443.0 359.0 442.0 359.0 C 441.0 360.0 440.0 360.0 439.0 360.0 C 438.0 360.0 437.0 359.0 436.0 359.0 C 435.0 358.0 434.0 357.0 433.0 356.0 C 432.0 355.0 432.0 354.0 431.0 353.0 C 431.0 352.0 431.0 351.0 433.0 351.0" stroke-width="0.0" fill="rgb(67, 36, 24)" opacity="1.0" stroke="rgb(168, 112, 3)" stroke-opacity="0.6367145" stroke-linecap="round" stroke-linejoin="round"/>
    <path d="M 350.0 318.0 C 351.0 318.0 352.0 318.0 353.0 318.0 C 354.0 319.0 355.0 319.0 356.0 319.0 C 357.0 320.0 358.0 320.0 359.0 320.0 C 360.0 321.0 361.0 321.0 362.0 321.0 C 363.0 322.0 364.0 322.0 365.0 322.0 C 366.0 322.0 367.0 323.0 368.0 323.0 C 369.0 323.0 370.0 323.0 371.0 323.0 C 372.0 323.0 373.0 324.0 374.0 324.0 C 375.0 324.0 376.0 324.0 377.0 324.0 C 378.0 325.0 379.0 325.0 380.0 325.0 C 381.0 325.0 382.0 325.0 383.0 325.0 C 384.0 326.0 385.0 326.0 385.0 327.0 C 385.0 328.0 384.0 328.0 383.0 328.0 C 382.0 327.0 381.0 327.0 380.0 327.0 C 379.0 327.0 378.0 327.0 377.0 327.0 C 376.0 327.0 375.0 327.0 374.0 326.0 C 373.0 326.0 372.0 326.0 371.0 326.0 C 370.0 326.0 369.0 326.0 368.0 325.0 C 367.0 325.0 366.0 325.0 365.0 325.0 C 364.0 325.0 363.0 324.0 362.0 324.0 C 361.0 324.0 360.0 324.0 359.0 324.0 C 358.0 324.0 357.0 323.0 356.0 323.0 C 355.0 323.0 354.0 323.0 353.0 322.0 C 352.0 322.0 351.0 322.0 350.0 321.0 C 349.0 321.0 348.0 321.0 348.0 320.0 C 348.0 319.0 349.0 318.0 350.0 318.0" stroke-width="0.0" fill="rgb(78, 36, 23)" opacity="1.0" stroke="rgb(3, 24, 73)" stroke-opacity="0.29510662" stroke-linecap="round" stroke-linejoin="round"/>
  </g>
</svg>
