<?xml version="1.0" ?>
<svg xmlns="http://www.w3.org/2000/svg" version="1.1" width="474" height="596">
  <defs/>
  <g>
    <path d="M 265.8187561035156 -0.22633151710033417 C 267.0711669921875 -1.1506210565567017 268.3597717285156 -1.7402411699295044 269.3971252441406 -2.5765185356140137 C 270.32977294921875 -3.6331117153167725 271.0733337402344 -4.255310535430908 271.97406005859375 -4.4672160148620605 C 272.6766662597656 -4.729249954223633 273.1267395019531 -4.787413597106934 273.6848449707031 -4.6059675216674805 C 274.6864929199219 -4.200198173522949 276.2293395996094 -3.4234509468078613 278.822021484375 -3.012188673019409 C 282.3612365722656 -1.634599208831787 286.251953125 1.1620569229125977 292.8343811035156 2.616663694381714 C 300.6474914550781 4.662966251373291 309.55194091796875 7.335920810699463 318.1857604980469 10.85076904296875 C 326.6800842285156 14.375247955322266 334.5547180175781 18.319622039794922 342.30816650390625 22.77559471130371 C 350.3923645019531 27.559789657592773 358.3721618652344 32.92144012451172 366.24188232421875 39.409759521484375 C 374.86383056640625 45.809722900390625 382.664794921875 53.4644660949707 390.3363037109375 61.40532684326172 C 397.6615905761719 69.4272689819336 404.4514465332031 77.43193054199219 410.427734375 85.67648315429688 C 416.2412414550781 93.70226287841797 421.70758056640625 101.91048431396484 426.70819091796875 110.28983306884766 C 431.6343994140625 118.28641510009766 435.1791076660156 123.6181869506836 433.0924987792969 132.95130920410156 C 430.2221374511719 142.03173828125 424.25634765625 150.27658081054688 417.6345520019531 158.81973266601562 C 411.10833740234375 167.1719512939453 403.74884033203125 174.56622314453125 396.2489013671875 181.66612243652344 C 388.8276062011719 188.58871459960938 380.822998046875 194.70559692382812 373.17559814453125 200.56117248535156 C 365.2908630371094 206.0576934814453 357.19512939453125 211.4269561767578 347.6010437011719 216.98394775390625 C 336.87664794921875 221.83587646484375 325.1669006347656 224.7736053466797 314.1060485839844 226.47059631347656 C 311.1300048828125 225.54978942871094 315.06109619140625 222.06932067871094 323.4732666015625 218.40589904785156 C 333.4462585449219 212.45108032226562 343.0220947265625 204.32614135742188 350.9388427734375 195.1719970703125 C 357.8046569824219 187.4363250732422 362.5995178222656 178.76759338378906 365.9896545410156 170.6730499267578 C 369.28033447265625 162.5820770263672 371.09771728515625 154.0946044921875 370.9548645019531 145.1515350341797 C 370.5638732910156 136.18148803710938 368.8765869140625 127.06597900390625 365.0103759765625 118.6341552734375 C 361.5362854003906 109.73762512207031 355.5252685546875 103.73124694824219 349.25079345703125 97.716064453125 C 344.4742126464844 93.77135467529297 337.5628662109375 93.79177856445312 328.7715759277344 96.35415649414062 C 323.17254638671875 100.28352355957031 312.982177734375 100.89008331298828 304.7347717285156 103.54109954833984 C 294.83734130859375 102.33133697509766 286.4911804199219 104.10025787353516 277.9316101074219 106.11088562011719 C 270.2331848144531 107.6951904296875 264.1812744140625 109.78742980957031 258.79083251953125 110.27484893798828 C 255.8716278076172 105.22577667236328 253.28297424316406 101.94571685791016 250.2621307373047 102.91667175292969 C 248.45016479492188 106.48450469970703 247.56312561035156 110.56782531738281 245.92213439941406 115.31705474853516 C 238.2445831298828 115.2323226928711 230.7336883544922 116.10933685302734 224.1639404296875 122.67699432373047 C 215.1413116455078 131.12701416015625 206.0792694091797 139.20484924316406 201.76194763183594 150.04531860351562 C 190.5437774658203 147.5081024169922 182.71307373046875 141.01675415039062 173.15475463867188 138.812255859375 C 165.59304809570312 138.2179412841797 161.14088439941406 137.7791748046875 158.51966857910156 139.34774780273438 C 157.67408752441406 143.4952392578125 154.9918212890625 147.95693969726562 148.76870727539062 150.72976684570312 C 145.22439575195312 156.07301330566406 143.54098510742188 163.43197631835938 143.0469512939453 171.51266479492188 C 143.69427490234375 180.23435974121094 145.23675537109375 189.33509826660156 149.09219360351562 197.70828247070312 C 153.35140991210938 206.70498657226562 159.7147979736328 214.58502197265625 167.95623779296875 221.4129180908203 C 177.81405639648438 227.88673400878906 186.61492919921875 234.11614990234375 196.76271057128906 237.75901794433594 C 205.191162109375 240.7554168701172 212.94363403320312 241.71119689941406 218.92129516601562 242.67605590820312 C 219.42572021484375 244.24681091308594 216.98219299316406 245.2728729248047 211.85475158691406 244.7148895263672 C 204.5755157470703 244.95266723632812 197.40988159179688 240.6305389404297 188.02540588378906 240.28684997558594 C 179.22940063476562 240.3589630126953 170.42453002929688 242.9301300048828 162.002685546875 240.89456176757812 C 153.5394744873047 240.68704223632812 145.093994140625 240.75677490234375 137.4601287841797 239.59906005859375 C 129.17617797851562 238.55934143066406 121.35957336425781 236.59542846679688 113.44406127929688 234.6614227294922 C 105.1993408203125 232.48081970214844 97.11427307128906 229.7654571533203 88.82925415039062 226.49313354492188 C 80.36235809326172 223.09046936035156 71.980224609375 219.3612060546875 64.39691925048828 214.96360778808594 C 58.01507568359375 211.5387725830078 53.966976165771484 205.4193115234375 53.318763732910156 199.11831665039062 C 53.4214973449707 189.58763122558594 54.59174346923828 180.07943725585938 56.4263916015625 170.5518798828125 C 57.992183685302734 161.26303100585938 60.14812088012695 153.42318725585938 62.37793731689453 145.29502868652344 C 64.63412475585938 137.56971740722656 67.38557434082031 129.91229248046875 70.90528869628906 121.8111572265625 C 74.4042739868164 113.47190856933594 78.60767364501953 105.18534088134766 83.4281997680664 97.16862487792969 C 88.51557159423828 89.17350769042969 93.8059310913086 81.12539672851562 100.24344635009766 73.34783172607422 C 107.07427215576172 65.25576782226562 114.40553283691406 57.23124694824219 122.5032958984375 50.1342658996582 C 130.1797332763672 43.01346969604492 138.65896606445312 37.4503173828125 146.25009155273438 31.640226364135742 C 153.87864685058594 26.662893295288086 161.7687530517578 24.43657684326172 171.48280334472656 23.715303421020508 C 179.0753631591797 23.371078491210938 188.88059997558594 24.743940353393555 196.40432739257812 26.329195022583008 C 203.95008850097656 28.146011352539062 209.3801727294922 30.776140213012695 214.4107208251953 29.03837013244629 C 217.52642822265625 30.197452545166016 224.57281494140625 28.882766723632812 227.82786560058594 25.396089553833008 C 233.5009002685547 18.941787719726562 240.52194213867188 12.064584732055664 249.25875854492188 7.265708923339844 C 258.22271728515625 2.8119070529937744 267.47637939453125 -0.7617681622505188 265.8187561035156 -0.22633151710033417" stroke-width="0.0" fill="rgb(64, 38, 30)" opacity="0.9999914" stroke="rgb(249, 57, 121)" stroke-opacity="0.14353259" stroke-linecap="round" stroke-linejoin="round"/>
    <path d="M 313.5249328613281 242.6210174560547 C 339.7772521972656 248.01373291015625 357.84930419921875 257.427734375 373.8472595214844 271.00531005859375 C 391.7076110839844 278.2481689453125 402.4181823730469 285.6535339355469 409.703369140625 292.2766418457031 C 405.4741516113281 294.6828918457031 396.34832763671875 293.2342529296875 386.003662109375 290.2509765625 C 377.18365478515625 291.45892333984375 373.85430908203125 290.1336364746094 378.503173828125 291.7106018066406 C 393.73974609375 290.7391052246094 411.4178161621094 291.3104553222656 434.9644470214844 300.84271240234375 C 443.1763916015625 321.117431640625 447.8666687011719 339.6131896972656 439.17376708984375 352.33953857421875 C 423.8102111816406 347.4996337890625 410.4720764160156 339.456787109375 394.1029357910156 330.03033447265625 C 369.5694885253906 328.2941589355469 351.062744140625 321.28753662109375 332.6485900878906 322.6761169433594 C 323.9993591308594 328.7218017578125 321.3228759765625 343.0069885253906 323.4072570800781 362.8067932128906 C 318.9092712402344 378.6084899902344 314.0596008300781 398.6153564453125 310.9752502441406 420.70367431640625 C 305.81048583984375 441.7705078125 300.70086669921875 462.6652526855469 290.11492919921875 477.6949157714844 C 288.03582763671875 493.8177795410156 292.5528564453125 505.641357421875 298.6286315917969 515.9683837890625 C 292.7320861816406 523.4630737304688 284.7685546875 527.9435424804688 273.1750183105469 527.4142456054688 C 260.5741271972656 527.2836303710938 248.7799835205078 527.7492065429688 240.12405395507812 531.487060546875 C 237.4699249267578 548.1115112304688 236.9105224609375 562.4591674804688 247.61105346679688 572.7655639648438 C 265.6278991699219 577.0087890625 289.31866455078125 575.9856567382812 313.0065612792969 572.8235473632812 C 332.0133361816406 569.4090576171875 343.33453369140625 568.0380859375 342.8269958496094 574.0974731445312 C 334.1084899902344 580.8572387695312 317.3062744140625 585.1524047851562 295.5341491699219 584.649169921875 C 272.2584533691406 583.7935180664062 249.56732177734375 582.8956909179688 237.2859344482422 575.8644409179688 C 230.06504821777344 564.2342529296875 234.90638732910156 544.6307983398438 235.38316345214844 519.8328247070312 C 241.80999755859375 502.6244812011719 243.5902557373047 486.5520324707031 242.10728454589844 472.4953918457031 C 234.28775024414062 464.678466796875 227.3262176513672 461.66046142578125 226.31405639648438 471.3517761230469 C 215.2941131591797 476.7261962890625 208.1366424560547 485.378662109375 200.01385498046875 488.5230712890625 C 192.49574279785156 487.3452453613281 188.43606567382812 484.96380615234375 189.55332946777344 483.3355407714844 C 195.46585083007812 484.2968444824219 204.45928955078125 489.06610107421875 211.39772033691406 496.0867919921875 C 213.0399932861328 519.7288818359375 214.05673217773438 540.1795654296875 217.1278076171875 563.5281372070312 C 219.18272399902344 574.8226318359375 206.71865844726562 582.76416015625 189.9534454345703 587.052001953125 C 169.0965576171875 593.2430419921875 153.48208618164062 600.513916015625 131.57693481445312 594.8460083007812 C 117.63451385498047 592.1136474609375 114.79935455322266 583.2755126953125 119.30223846435547 576.0439453125 C 132.30801391601562 580.4475708007812 151.6844940185547 583.8136596679688 172.5116729736328 586.2691040039062 C 189.90211486816406 585.1214599609375 204.21461486816406 578.9008178710938 213.54879760742188 568.8868408203125 C 213.40553283691406 556.0525512695312 212.2611083984375 543.2384643554688 208.5435028076172 533.0795288085938 C 197.21780395507812 529.7356567382812 185.79718017578125 528.965087890625 173.9243927001953 530.688720703125 C 164.6384735107422 529.4301147460938 156.14663696289062 525.72607421875 150.616455078125 515.9581909179688 C 161.1074981689453 505.96917724609375 169.64276123046875 494.3888244628906 166.30105590820312 476.20355224609375 C 157.43902587890625 457.5577392578125 154.06015014648438 436.40447998046875 153.0080108642578 412.9207763671875 C 147.99588012695312 398.5216064453125 131.1634521484375 389.4609375 115.9617691040039 378.9869384765625 C 115.43389892578125 360.0542907714844 112.9321517944336 349.99468994140625 105.9751205444336 348.34539794921875 C 93.7560043334961 353.53741455078125 84.169921875 358.9863586425781 76.64292907714844 356.56219482421875 C 75.35768127441406 347.17156982421875 80.79811096191406 335.7684326171875 91.0848159790039 325.556396484375 C 102.56779479980469 318.76904296875 110.1597671508789 314.9129943847656 111.52645874023438 312.7309875488281 C 106.4388656616211 309.5984802246094 97.48963928222656 303.9354248046875 89.85502624511719 295.99053955078125 C 88.27503204345703 283.75201416015625 93.91454315185547 276.8397216796875 106.95051574707031 268.1396179199219 C 121.65991973876953 257.41949462890625 139.57388305664062 249.0829620361328 157.11253356933594 242.8628692626953 C 171.63119506835938 238.3102264404297 180.0076141357422 240.11366271972656 181.36952209472656 252.3734893798828 C 177.27224731445312 269.1354064941406 171.55300903320312 287.0954895019531 166.23191833496094 305.90374755859375 C 162.8999786376953 324.7155456542969 160.79100036621094 340.4058532714844 160.59519958496094 353.0285949707031 C 160.98233032226562 362.2187805175781 161.6269073486328 367.3653869628906 161.7718048095703 368.5962219238281 C 161.47366333007812 366.0257263183594 160.72305297851562 359.86004638671875 160.5708770751953 350.2060546875 C 161.95916748046875 339.41943359375 163.11085510253906 326.3620910644531 165.62319946289062 312.33197021484375 C 168.36781311035156 298.37957763671875 171.4041748046875 284.3669128417969 175.9763641357422 270.94970703125 C 180.27835083007812 259.2057189941406 190.9010772705078 252.61985778808594 204.357177734375 245.80824279785156 C 221.78489685058594 244.1402130126953 238.7496795654297 238.99044799804688 254.1597137451172 235.62193298339844 C 267.80950927734375 237.82164001464844 279.2647399902344 245.66140747070312 288.4795227050781 256.6964416503906 C 293.63824462890625 270.98443603515625 300.6544189453125 283.72784423828125 306.26776123046875 296.1704406738281 C 311.35943603515625 306.1494140625 313.3399353027344 313.3365173339844 316.2895202636719 315.7749938964844 C 316.616455078125 314.0767822265625 316.4826965332031 310.43701171875 316.4015808105469 306.65704345703125 C 316.4812927246094 304.35394287109375 315.6692199707031 303.7047424316406 313.02264404296875 303.2004089355469 C 309.1896057128906 299.78155517578125 302.6645202636719 290.2132568359375 296.1467590332031 276.2936706542969 C 286.9054870605469 259.58929443359375 279.14990234375 233.24298095703125 313.5249328613281 242.6210174560547" stroke-width="0.0" fill="rgb(251, 110, 165)" opacity="0.999807" stroke="rgb(118, 200, 126)" stroke-opacity="0.87374717" stroke-linecap="round" stroke-linejoin="round"/>
    <path d="M 236.5813446044922 90.42723846435547 C 239.05191040039062 91.69729614257812 241.14048767089844 93.14299774169922 242.9176483154297 94.3444595336914 C 244.29600524902344 95.31490325927734 245.32638549804688 96.00421142578125 246.0981903076172 96.48126983642578 C 246.64822387695312 96.86611938476562 247.31393432617188 97.08172607421875 248.27377319335938 97.26895141601562 C 249.2379608154297 98.22258758544922 250.61550903320312 99.87606811523438 252.48818969726562 102.12947845458984 C 254.49525451660156 104.81938934326172 256.8509826660156 107.4451904296875 259.71160888671875 109.3533935546875 C 263.2116394042969 109.74615478515625 267.499755859375 108.9640884399414 272.626708984375 107.59407806396484 C 278.43084716796875 106.0413589477539 284.65289306640625 104.50548553466797 290.99932861328125 102.80980682373047 C 297.5669860839844 101.97310638427734 304.5925598144531 103.52131652832031 312.1305236816406 104.36151885986328 C 319.5821533203125 104.66388702392578 325.2491760253906 107.66216278076172 328.87347412109375 113.57825469970703 C 330.3016662597656 120.74860382080078 329.5447998046875 127.46051788330078 328.9942932128906 132.02008056640625 C 332.85870361328125 132.49655151367188 338.7254333496094 130.08982849121094 344.2662658691406 126.04926300048828 C 346.54803466796875 120.79080963134766 345.34710693359375 114.81752014160156 341.1118469238281 109.41719055175781 C 335.31390380859375 105.27923583984375 329.78350830078125 102.42418670654297 326.64361572265625 99.9797134399414 C 328.0074462890625 97.04923248291016 332.47021484375 94.97441864013672 338.8587646484375 94.47232055664062 C 345.8646240234375 96.12059020996094 352.53338623046875 100.1870346069336 358.0006408691406 106.01884460449219 C 362.33819580078125 112.34355163574219 365.6751708984375 119.03369903564453 368.0417785644531 126.04476928710938 C 369.71002197265625 132.84169006347656 370.7619934082031 139.43333435058594 371.0321044921875 145.9370574951172 C 371.0104675292969 152.45652770996094 369.96343994140625 158.82752990722656 368.05712890625 165.31117248535156 C 366.13336181640625 171.61087036132812 363.1479187011719 177.72274780273438 359.75946044921875 183.5774688720703 C 355.6232604980469 189.26373291015625 351.15167236328125 194.74192810058594 346.46710205078125 200.10116577148438 C 341.2852478027344 205.15203857421875 335.5682067871094 209.8571319580078 329.722412109375 214.41893005371094 C 323.27557373046875 218.01451110839844 317.4165344238281 221.8093719482422 312.6915588378906 226.45101928710938 C 308.14849853515625 230.69566345214844 302.9437255859375 233.32931518554688 297.80010986328125 234.95111083984375 C 293.30450439453125 236.03599548339844 289.8321838378906 236.82894897460938 287.9486999511719 238.29371643066406 C 288.38934326171875 241.4320068359375 289.73797607421875 245.74569702148438 291.51751708984375 250.43939208984375 C 293.8630065917969 254.77845764160156 296.3144226074219 258.1087341308594 298.4076232910156 260.37548828125 C 299.6972961425781 261.56341552734375 299.8856201171875 261.5719909667969 298.95947265625 260.3282775878906 C 297.001708984375 257.86163330078125 294.0948791503906 254.5480499267578 290.1610107421875 251.04977416992188 C 285.2846374511719 247.8519744873047 279.98199462890625 244.6703338623047 274.38671875 242.20692443847656 C 268.7590026855469 240.61624145507812 263.1830139160156 240.18165588378906 257.78460693359375 240.4195098876953 C 252.596435546875 241.01336669921875 247.53646850585938 241.98260498046875 242.5665283203125 243.00245666503906 C 237.71250915527344 243.6856689453125 233.0118408203125 243.98480224609375 228.410400390625 243.97044372558594 C 223.97093200683594 243.7001495361328 219.55215454101562 243.32192993164062 214.97760009765625 242.77574157714844 C 210.33042907714844 241.90367126464844 205.66384887695312 240.52105712890625 200.53607177734375 238.64588928222656 C 195.01974487304688 236.64535522460938 188.9617462158203 234.6535186767578 183.3096160888672 231.5612335205078 C 177.42161560058594 228.3378448486328 171.70082092285156 224.75045776367188 166.6116485595703 220.6479034423828 C 161.94427490234375 216.46327209472656 157.83596801757812 211.7968292236328 153.98773193359375 207.21194458007812 C 150.58642578125 201.94027709960938 147.7266387939453 196.31185913085938 145.49427795410156 190.20437622070312 C 143.72024536132812 183.77297973632812 142.73974609375 176.9927215576172 142.78440856933594 170.1763916015625 C 143.65093994140625 163.74554443359375 145.6521759033203 157.93096923828125 148.88539123535156 152.60267639160156 C 152.8409881591797 148.2466583251953 156.060546875 144.0963592529297 157.48370361328125 139.48171997070312 C 157.6634979248047 135.17356872558594 158.57276916503906 132.62643432617188 160.58160400390625 132.6757354736328 C 163.1165771484375 135.27053833007812 166.3444366455078 137.8854217529297 170.83555603027344 138.05552673339844 C 176.44960021972656 135.3505096435547 182.0515899658203 132.4925537109375 186.44207763671875 131.2625274658203 C 187.964599609375 132.73988342285156 186.6435546875 136.86300659179688 184.49281311035156 143.48353576660156 C 183.02273559570312 151.6475830078125 183.9102325439453 159.47767639160156 187.61866760253906 165.1796112060547 C 193.3793182373047 167.29092407226562 198.46986389160156 166.719482421875 200.2564239501953 164.40492248535156 C 196.12338256835938 161.94189453125 190.82821655273438 158.0707550048828 187.94981384277344 152.8629150390625 C 188.28826904296875 148.54029846191406 192.8105010986328 147.0746612548828 199.82704162597656 147.51295471191406 C 206.94058227539062 146.7843475341797 211.93380737304688 143.66709899902344 213.57125854492188 137.65740966796875 C 215.636962890625 132.1041717529297 219.49534606933594 129.88926696777344 224.30523681640625 132.017578125 C 228.3262939453125 137.32760620117188 229.49600219726562 144.30894470214844 227.45367431640625 151.35379028320312 C 223.85205078125 157.0106964111328 221.81057739257812 160.05072021484375 224.24656677246094 160.44126892089844 C 230.9468994140625 158.88653564453125 238.77859497070312 156.0074462890625 244.6532440185547 151.5371551513672 C 245.87521362304688 145.44229125976562 242.96470642089844 138.797607421875 237.31491088867188 132.79737854003906 C 229.94898986816406 128.80506896972656 222.5660858154297 126.16059112548828 216.83937072753906 124.06057739257812 C 214.39389038085938 122.24646759033203 215.6976776123047 120.69017028808594 219.8749542236328 119.30293273925781 C 225.8711395263672 118.1308364868164 232.3579864501953 117.14878845214844 238.33648681640625 116.26730346679688 C 242.99794006347656 115.26795196533203 245.66983032226562 113.82788848876953 246.49415588378906 111.64945220947266 C 245.8822784423828 108.82310485839844 244.81822204589844 105.6734619140625 236.5813446044922 90.42723846435547" stroke-width="0.0" fill="rgb(250, 188, 107)" opacity="1.0" stroke="rgb(18, 17, 225)" stroke-opacity="0.6161581" stroke-linecap="round" stroke-linejoin="round"/>
    <path d="M 173.25657653808594 239.4904327392578 C 175.05615234375 239.635498046875 176.79225158691406 239.51275634765625 178.4380645751953 239.45938110351562 C 180.04808044433594 239.5392608642578 182.02993774414062 239.84103393554688 184.56407165527344 240.39215087890625 C 186.572265625 242.34320068359375 187.47877502441406 245.11605834960938 186.9300537109375 249.2261199951172 C 185.2108154296875 255.49429321289062 182.99253845214844 263.83837890625 181.05189514160156 273.3080139160156 C 179.159423828125 282.6974792480469 176.77671813964844 291.1095886230469 173.91102600097656 298.04473876953125 C 171.0462188720703 303.41778564453125 168.3444366455078 307.8765563964844 164.93478393554688 312.2683410644531 C 160.7602996826172 317.9342041015625 155.6182403564453 325.39788818359375 150.76959228515625 335.0041198730469 C 147.44456481933594 346.5596008300781 145.85853576660156 358.89892578125 146.17384338378906 370.3251953125 C 149.1363067626953 379.16094970703125 154.7693328857422 384.51605224609375 162.98133850097656 386.3254699707031 C 173.5153045654297 385.1524658203125 186.07701110839844 382.4116516113281 200.5089111328125 379.3885803222656 C 216.61537170410156 377.17535400390625 233.96522521972656 376.092041015625 252.0127716064453 376.2781982421875 C 269.853759765625 377.66534423828125 286.44415283203125 379.5147705078125 300.66455078125 380.5809631347656 C 311.2906494140625 379.3905029296875 317.5250244140625 375.52374267578125 320.3835144042969 371.2701110839844 C 321.2102966308594 370.0921325683594 319.0003662109375 372.0409851074219 314.3705139160156 377.8433532714844 C 310.673583984375 388.83978271484375 307.8631591796875 403.43988037109375 305.8133850097656 419.9029846191406 C 304.4195861816406 436.3951110839844 303.0982666015625 451.3282165527344 300.7991943359375 463.46478271484375 C 296.2383728027344 471.6925048828125 290.849365234375 477.511474609375 286.8717041015625 483.419921875 C 284.9096984863281 490.3347473144531 284.67535400390625 498.31805419921875 285.7414855957031 507.5492248535156 C 287.5929260253906 517.794921875 290.8709716796875 527.4666748046875 297.8777160644531 535.07275390625 C 309.7091979980469 540.3826293945312 322.926025390625 545.2040405273438 334.0706481933594 550.6887817382812 C 340.6841735839844 555.5137329101562 341.1554260253906 557.6787719726562 335.75189208984375 555.5911865234375 C 324.8285217285156 550.5355834960938 311.5239562988281 541.7257080078125 296.8240661621094 531.447998046875 C 279.80364990234375 526.0181274414062 262.6063232421875 524.6574096679688 247.80747985839844 526.2733764648438 C 238.12562561035156 530.89404296875 234.92767333984375 539.4171142578125 236.37322998046875 550.6046142578125 C 239.74269104003906 561.7765502929688 243.72755432128906 570.6619262695312 246.9104461669922 576.1412353515625 C 248.31439208984375 577.9403686523438 247.1844024658203 576.1860961914062 244.1028594970703 571.235595703125 C 240.05894470214844 563.11328125 237.44027709960938 551.7557373046875 237.25843811035156 537.87353515625 C 239.41050720214844 522.3433227539062 242.75491333007812 506.1814270019531 245.5240936279297 490.7361755371094 C 245.52296447753906 477.5582275390625 241.10733032226562 468.3455505371094 233.33468627929688 464.3701477050781 C 224.71426391601562 465.9922790527344 218.1786651611328 472.6383972167969 214.6307830810547 483.2215881347656 C 212.4608917236328 495.7339172363281 211.12960815429688 508.802001953125 211.55140686035156 521.6843872070312 C 213.0177001953125 534.290771484375 214.97183227539062 546.473388671875 215.9876708984375 558.3028564453125 C 214.2340850830078 569.1923828125 207.867431640625 578.6328735351562 196.4445037841797 585.6429443359375 C 181.44097900390625 589.5787353515625 164.76344299316406 590.5166625976562 148.5125274658203 588.7022094726562 C 135.0371551513672 584.3677368164062 126.80348205566406 577.8374633789062 125.55819702148438 570.1609497070312 C 131.26026916503906 563.5916137695312 137.78440856933594 558.5265502929688 141.60809326171875 557.276123046875 C 139.69712829589844 560.9127807617188 133.0601043701172 565.8610229492188 126.04666900634766 571.0396728515625 C 126.38209533691406 577.1543579101562 133.9756317138672 582.8671875 147.8106689453125 587.2174072265625 C 165.68724060058594 589.4146728515625 184.66661071777344 589.2083129882812 201.21096801757812 585.4888916015625 C 211.88954162597656 575.674560546875 216.23272705078125 562.1889038085938 215.5458221435547 547.6592407226562 C 212.15283203125 536.0904541015625 205.10459899902344 530.3773803710938 194.29908752441406 530.5289306640625 C 181.759765625 532.2299194335938 170.2469024658203 532.0697021484375 162.0349578857422 529.6842651367188 C 159.02186584472656 526.365966796875 160.03509521484375 520.357177734375 163.05690002441406 512.1240234375 C 166.0665283203125 501.9635314941406 167.332275390625 489.5728759765625 165.861572265625 476.9082946777344 C 159.89508056640625 465.874267578125 155.90223693847656 453.8533630371094 155.45526123046875 439.5375671386719 C 156.22886657714844 423.2966613769531 156.38351440429688 405.9076843261719 153.9862823486328 388.4140930175781 C 147.9036102294922 372.15545654296875 138.44773864746094 358.74688720703125 126.3149642944336 349.5169982910156 C 112.68722534179688 345.7591552734375 99.15609741210938 347.59442138671875 86.94969177246094 354.58172607421875 C 77.01268005371094 365.4480895996094 68.4937744140625 377.2065734863281 58.58890151977539 385.64404296875 C 46.849693298339844 389.37274169921875 35.04065704345703 391.9144592285156 24.64272117614746 393.494384765625 C 17.134775161743164 390.8455505371094 12.562125205993652 383.9923400878906 9.737571716308594 374.3028564453125 C 7.725218296051025 364.1767578125 9.896909713745117 354.8609313964844 16.394140243530273 346.51947021484375 C 23.889680862426758 338.34307861328125 33.93457794189453 333.4658508300781 45.792110443115234 329.55438232421875 C 57.034454345703125 321.62420654296875 66.98352813720703 310.84808349609375 76.18019104003906 300.2666931152344 C 85.5240249633789 294.2253723144531 95.21387481689453 295.1763000488281 104.97176361083984 302.11822509765625 C 114.07572937011719 312.69403076171875 122.40716552734375 324.0611267089844 130.29757690429688 332.9825744628906 C 138.24734497070312 336.7095947265625 146.12437438964844 335.28961181640625 153.7487030029297 329.2939453125 C 160.87457275390625 319.9895935058594 167.38644409179688 309.1532287597656 173.47398376464844 297.9414367675781 C 178.39031982421875 287.0224609375 181.94183349609375 276.66143798828125 184.02757263183594 266.736328125 C 184.9338836669922 256.9639587402344 185.26820373535156 247.09732055664062 173.25657653808594 239.4904327392578" stroke-width="0.0" fill="rgb(248, 200, 106)" opacity="0.9997796" stroke="rgb(207, 9, 130)" stroke-opacity="0.32220793" stroke-linecap="round" stroke-linejoin="round"/>
    <path d="M 169.0 382.0 C 170.0 382.0 171.0 382.0 172.0 382.0 C 173.0 382.0 174.0 382.0 175.0 382.0 C 176.0 382.0 177.0 382.0 178.0 382.0 C 179.0 382.0 180.0 382.0 181.0 382.0 C 182.0 382.0 182.0 383.0 183.0 384.0 C 184.0 383.0 185.0 383.0 186.0 383.0 C 187.0 384.0 188.0 384.0 189.0 384.0 C 190.0 384.0 191.0 384.0 192.0 385.0 C 193.0 385.0 194.0 384.0 194.0 383.0 C 195.0 383.0 196.0 383.0 197.0 383.0 C 198.0 383.0 199.0 383.0 199.0 384.0 C 196.0 386.0 201.0 387.0 206.0 388.0 C 209.0 391.0 213.0 389.0 218.0 390.0 C 222.0 387.0 225.0 390.0 230.0 391.0 C 234.0 389.0 238.0 388.0 241.0 391.0 C 246.0 391.0 251.0 391.0 256.0 392.0 C 257.0 390.0 259.0 387.0 263.0 388.0 C 267.0 386.0 270.0 388.0 271.0 390.0 C 274.0 388.0 272.0 385.0 277.0 385.0 C 281.0 384.0 286.0 383.0 287.0 387.0 C 288.0 385.0 290.0 382.0 294.0 385.0 C 299.0 384.0 304.0 382.0 309.0 383.0 C 309.0 388.0 308.0 393.0 308.0 398.0 C 304.0 400.0 308.0 401.0 307.0 405.0 C 305.0 409.0 305.0 414.0 304.0 419.0 C 303.0 424.0 302.0 429.0 300.0 434.0 C 298.0 439.0 298.0 444.0 297.0 449.0 C 296.0 454.0 294.0 459.0 294.0 464.0 C 291.0 466.0 286.0 464.0 283.0 467.0 C 280.0 466.0 277.0 464.0 274.0 466.0 C 277.0 468.0 272.0 468.0 267.0 467.0 C 262.0 468.0 257.0 467.0 255.0 466.0 C 250.0 465.0 245.0 463.0 240.0 462.0 C 239.0 457.0 241.0 452.0 238.0 449.0 C 236.0 453.0 237.0 458.0 238.0 463.0 C 242.0 466.0 246.0 468.0 246.0 473.0 C 245.0 478.0 245.0 483.0 244.0 487.0 C 243.0 483.0 243.0 478.0 243.0 473.0 C 241.0 468.0 236.0 467.0 234.0 463.0 C 233.0 458.0 231.0 453.0 227.0 456.0 C 229.0 460.0 229.0 463.0 226.0 463.0 C 226.0 468.0 224.0 473.0 219.0 474.0 C 215.0 477.0 214.0 482.0 213.0 487.0 C 213.0 492.0 212.0 497.0 211.0 502.0 C 209.0 503.0 209.0 498.0 210.0 493.0 C 210.0 488.0 211.0 483.0 211.0 478.0 C 210.0 474.0 209.0 472.0 214.0 471.0 C 219.0 470.0 223.0 467.0 223.0 462.0 C 223.0 457.0 221.0 458.0 218.0 461.0 C 219.0 466.0 215.0 468.0 214.0 464.0 C 209.0 465.0 212.0 468.0 208.0 470.0 C 203.0 470.0 198.0 471.0 193.0 471.0 C 188.0 470.0 183.0 470.0 178.0 469.0 C 174.0 466.0 169.0 465.0 164.0 463.0 C 163.0 458.0 161.0 453.0 161.0 448.0 C 160.0 443.0 160.0 438.0 159.0 433.0 C 160.0 428.0 159.0 423.0 159.0 418.0 C 159.0 413.0 159.0 408.0 159.0 403.0 C 159.0 398.0 158.0 393.0 160.0 388.0 C 163.0 384.0 168.0 382.0 169.0 382.0" stroke-width="0.0" fill="rgb(251, 76, 3)" opacity="1.0" stroke="rgb(20, 77, 79)" stroke-opacity="0.46054134" stroke-linecap="round" stroke-linejoin="round"/>
    <path d="M 289.0 15.0 C 290.0 15.0 291.0 16.0 292.0 16.0 C 293.0 15.0 294.0 15.0 295.0 15.0 C 296.0 15.0 296.0 16.0 297.0 17.0 C 298.0 17.0 302.0 17.0 303.0 23.0 C 302.0 29.0 306.0 33.0 311.0 34.0 C 316.0 36.0 315.0 39.0 318.0 43.0 C 318.0 47.0 318.0 53.0 319.0 59.0 C 320.0 64.0 323.0 60.0 326.0 65.0 C 332.0 65.0 335.0 67.0 337.0 68.0 C 334.0 73.0 333.0 78.0 328.0 79.0 C 322.0 78.0 316.0 79.0 314.0 82.0 C 310.0 78.0 304.0 78.0 302.0 84.0 C 304.0 90.0 304.0 91.0 300.0 95.0 C 296.0 94.0 292.0 96.0 287.0 95.0 C 281.0 94.0 275.0 94.0 269.0 94.0 C 263.0 94.0 257.0 94.0 257.0 92.0 C 257.0 86.0 255.0 80.0 250.0 78.0 C 244.0 78.0 238.0 79.0 232.0 78.0 C 228.0 79.0 222.0 79.0 222.0 85.0 C 223.0 91.0 222.0 97.0 222.0 103.0 C 224.0 108.0 229.0 109.0 226.0 108.0 C 222.0 110.0 216.0 110.0 210.0 110.0 C 204.0 110.0 198.0 110.0 192.0 110.0 C 186.0 110.0 181.0 112.0 180.0 112.0 C 175.0 110.0 169.0 110.0 163.0 110.0 C 159.0 113.0 155.0 110.0 149.0 110.0 C 144.0 112.0 142.0 117.0 142.0 123.0 C 143.0 129.0 142.0 135.0 142.0 141.0 C 145.0 145.0 140.0 143.0 134.0 142.0 C 128.0 142.0 126.0 148.0 126.0 154.0 C 129.0 159.0 129.0 165.0 126.0 169.0 C 127.0 175.0 126.0 177.0 126.0 183.0 C 126.0 189.0 121.0 190.0 117.0 190.0 C 111.0 191.0 105.0 190.0 99.0 190.0 C 93.0 190.0 87.0 190.0 81.0 190.0 C 75.0 190.0 69.0 190.0 65.0 188.0 C 65.0 182.0 65.0 176.0 65.0 170.0 C 64.0 166.0 65.0 160.0 68.0 160.0 C 74.0 160.0 80.0 160.0 81.0 154.0 C 81.0 148.0 81.0 142.0 80.0 136.0 C 81.0 130.0 81.0 124.0 82.0 119.0 C 88.0 119.0 87.0 113.0 93.0 113.0 C 97.0 110.0 97.0 104.0 97.0 98.0 C 102.0 97.0 108.0 97.0 113.0 94.0 C 108.0 91.0 112.0 89.0 113.0 83.0 C 117.0 81.0 123.0 80.0 126.0 76.0 C 129.0 71.0 129.0 65.0 135.0 65.0 C 140.0 62.0 144.0 59.0 145.0 53.0 C 147.0 49.0 153.0 49.0 159.0 49.0 C 161.0 43.0 161.0 37.0 163.0 33.0 C 167.0 32.0 171.0 30.0 175.0 33.0 C 181.0 33.0 187.0 33.0 190.0 36.0 C 190.0 42.0 192.0 48.0 198.0 49.0 C 204.0 49.0 210.0 49.0 216.0 49.0 C 222.0 49.0 224.0 44.0 225.0 38.0 C 227.0 33.0 231.0 33.0 237.0 33.0 C 241.0 29.0 241.0 23.0 246.0 23.0 C 247.0 17.0 253.0 17.0 259.0 17.0 C 265.0 17.0 271.0 17.0 277.0 17.0 C 283.0 17.0 288.0 15.0 289.0 15.0" stroke-width="0.0" fill="rgb(61, 40, 37)" opacity="1.0" stroke="rgb(184, 91, 242)" stroke-opacity="0.17438076" stroke-linecap="round" stroke-linejoin="round"/>
  </g>
</svg>
