<?xml version="1.0" ?>
<svg xmlns="http://www.w3.org/2000/svg" version="1.1" width="474" height="596">
  <defs/>
  <g>
    <path d="M 265.923095703125 -0.13003131747245789 C 267.0711669921875 -1.150635004043579 268.3597717285156 -1.7402242422103882 269.3971252441406 -2.576500177383423 C 270.32977294921875 -3.6331241130828857 271.0733337402344 -4.2553277015686035 271.97406005859375 -4.4672160148620605 C 272.6766662597656 -4.729249954223633 273.1267395019531 -4.787413597106934 273.6848449707031 -4.6059675216674805 C 274.6864929199219 -4.200198173522949 276.2293395996094 -3.4234468936920166 278.8804931640625 -3.124652147293091 C 282.4944152832031 -1.7728506326675415 286.2194519042969 1.2311463356018066 292.8292541503906 2.613762617111206 C 300.69384765625 4.617007732391357 309.6317138671875 7.261390209197998 318.1583251953125 10.871841430664062 C 326.7196960449219 14.369173049926758 334.5707092285156 18.277259826660156 342.28863525390625 22.796730041503906 C 350.463134765625 27.5112247467041 358.3783264160156 32.885780334472656 366.26763916015625 39.37371063232422 C 374.734130859375 45.94696044921875 382.70135498046875 53.440101623535156 390.2987060546875 61.43619155883789 C 397.7169189453125 69.3633804321289 404.4577941894531 77.42841339111328 410.4239501953125 85.67872619628906 C 416.2178649902344 93.72643280029297 421.732177734375 101.8916015625 426.7541809082031 110.253173828125 C 431.43304443359375 118.49441528320312 434.9823913574219 123.66040802001953 433.1157531738281 132.89239501953125 C 430.1390380859375 141.99234008789062 424.26397705078125 150.28419494628906 417.62127685546875 158.8080596923828 C 411.1343688964844 167.19534301757812 403.6985168457031 174.51075744628906 396.2664794921875 181.6768035888672 C 388.7840270996094 188.53732299804688 380.81915283203125 194.7087860107422 373.1116943359375 200.48663330078125 C 365.3780822753906 206.15652465820312 357.2634582519531 211.48342895507812 347.587890625 216.9878692626953 C 336.9127502441406 221.86512756347656 325.1593933105469 224.7557830810547 313.40966796875 226.520751953125 C 310.8480224609375 225.97079467773438 315.0824890136719 222.18548583984375 323.44305419921875 218.44483947753906 C 333.355224609375 212.33494567871094 343.2884216308594 204.5320587158203 351.038330078125 195.2932586669922 C 357.9376525878906 187.5200958251953 362.8110046386719 178.98011779785156 366.0783996582031 170.76052856445312 C 369.1045837402344 162.51312255859375 371.1751708984375 154.0166778564453 371.0264587402344 145.12648010253906 C 370.7232971191406 136.11061096191406 369.10089111328125 126.81303405761719 365.1768798828125 118.46758270263672 C 361.60650634765625 109.56413269042969 355.645751953125 103.65802001953125 349.12481689453125 97.57414245605469 C 345.115966796875 93.33533477783203 337.8866882324219 93.83924865722656 328.64813232421875 96.8480453491211 C 323.4122314453125 100.57990264892578 312.7208251953125 100.51497650146484 305.2998046875 103.75304412841797 C 294.7236022949219 102.01688385009766 286.3497314453125 103.66316986083984 278.1127624511719 106.35835266113281 C 270.32379150390625 107.85000610351562 264.1134033203125 109.62154388427734 258.6429748535156 110.35366821289062 C 255.79971313476562 105.18914031982422 253.39443969726562 101.7239761352539 250.30857849121094 102.7838134765625 C 248.4385528564453 106.47953033447266 247.484130859375 110.52977752685547 245.8615264892578 115.24842071533203 C 238.42185974121094 115.38624572753906 230.87535095214844 116.35257720947266 224.0010528564453 122.54473114013672 C 214.95526123046875 131.06434631347656 205.83360290527344 138.94775390625 202.1920166015625 150.37998962402344 C 190.29457092285156 147.7407989501953 182.84214782714844 140.9305877685547 173.24168395996094 138.64764404296875 C 165.59304809570312 138.21803283691406 161.14088439941406 137.77919006347656 158.52102661132812 139.34889221191406 C 157.65542602539062 143.47691345214844 154.93748474121094 147.8804168701172 148.63589477539062 150.56826782226562 C 144.9932098388672 156.1135711669922 143.16470336914062 163.4124755859375 142.97344970703125 171.533447265625 C 143.47283935546875 180.27978515625 145.239501953125 189.32412719726562 149.0764617919922 197.77955627441406 C 153.03782653808594 207.035888671875 159.47885131835938 214.76429748535156 167.9169464111328 221.48245239257812 C 177.6650848388672 228.0138397216797 186.64306640625 234.05503845214844 197.01470947265625 237.50607299804688 C 204.77857971191406 241.22425842285156 212.6640167236328 242.07667541503906 219.22882080078125 242.8456573486328 C 219.56137084960938 244.3248748779297 217.0114288330078 245.40484619140625 211.74855041503906 244.7936248779297 C 204.5017852783203 245.02651977539062 197.2994384765625 240.7400360107422 188.02365112304688 240.27894592285156 C 179.2216033935547 240.3358612060547 170.33096313476562 243.166015625 161.824462890625 240.75091552734375 C 153.60960388183594 240.822265625 144.9319610595703 240.80821228027344 137.5350799560547 239.58164978027344 C 129.258056640625 238.43431091308594 121.02552795410156 236.87786865234375 113.47171783447266 234.6607208251953 C 105.20404815673828 232.44642639160156 97.06246948242188 229.8333282470703 88.82904052734375 226.4905548095703 C 80.3556137084961 223.09173583984375 71.87884521484375 219.4475555419922 64.44512176513672 214.90846252441406 C 57.94626998901367 211.55120849609375 53.830657958984375 205.5484161376953 53.4188232421875 199.18328857421875 C 53.2297248840332 189.4639892578125 54.64870834350586 180.22068786621094 56.46809005737305 170.5562286376953 C 57.97499465942383 161.24351501464844 60.10268020629883 153.37472534179688 62.34547805786133 145.2632598876953 C 64.58158874511719 137.51051330566406 67.3798828125 129.92141723632812 70.92928314208984 121.8318862915039 C 74.44586181640625 113.51408386230469 78.69205474853516 105.27425384521484 83.43026733398438 97.15348815917969 C 88.48687744140625 89.14089965820312 93.79830169677734 81.12935638427734 100.31014251708984 73.4144515991211 C 107.07794189453125 65.26861572265625 114.4471206665039 57.25771713256836 122.55982971191406 50.1904296875 C 130.25831604003906 43.077903747558594 138.60850524902344 37.39872360229492 146.3090057373047 31.69746971130371 C 153.88169860839844 26.517637252807617 161.5446319580078 24.502662658691406 171.76686096191406 23.788068771362305 C 179.07533264160156 23.20966148376465 188.8851318359375 24.71449089050293 196.35105895996094 26.388553619384766 C 204.0721893310547 28.09723663330078 209.53952026367188 30.93364143371582 214.40045166015625 29.041824340820312 C 217.13082885742188 30.27046775817871 224.91836547851562 28.91306495666504 227.816650390625 25.417543411254883 C 233.55484008789062 18.987743377685547 240.47877502441406 11.99021053314209 249.2543182373047 7.289801597595215 C 258.1808776855469 2.7799110412597656 267.5601806640625 -0.682144045829773 265.923095703125 -0.13003131747245789" stroke-width="0.0" fill="rgb(64, 38, 30)" opacity="0.99999124" stroke="rgb(249, 57, 121)" stroke-opacity="0.14353259" stroke-linecap="round" stroke-linejoin="round"/>
    <path d="M 313.1092224121094 242.6370849609375 C 340.1475830078125 248.0205078125 358.1890869140625 256.92279052734375 373.6800231933594 270.7930908203125 C 391.8374328613281 277.9719543457031 402.253173828125 285.8027038574219 409.7619934082031 292.3759765625 C 405.5550537109375 294.5278015136719 396.47625732421875 292.7240905761719 386.0517578125 290.3265075683594 C 377.1824645996094 291.4386901855469 373.8465576171875 290.062255859375 378.4776611328125 291.5400695800781 C 393.5156555175781 291.45855712890625 411.49798583984375 291.4969177246094 435.2127685546875 300.4989013671875 C 443.3371887207031 321.0262451171875 447.8406982421875 339.30010986328125 439.1961975097656 353.1658630371094 C 423.69281005859375 347.58209228515625 410.1157531738281 339.75048828125 394.5939636230469 329.7804260253906 C 368.4916687011719 329.2418518066406 351.25439453125 321.0224914550781 332.49310302734375 322.528076171875 C 324.06695556640625 328.58917236328125 320.92919921875 343.4119873046875 323.83123779296875 363.8816833496094 C 318.81378173828125 378.6016540527344 314.0785827636719 398.48638916015625 311.0769348144531 420.5810241699219 C 305.69775390625 441.6562194824219 300.58489990234375 462.5668640136719 289.9704895019531 478.11822509765625 C 287.29583740234375 494.4641418457031 292.0638732910156 505.4681091308594 299.7872009277344 516.5095825195312 C 292.75140380859375 523.47119140625 284.7685546875 528.0281372070312 273.2341003417969 527.5093994140625 C 260.725341796875 527.4389038085938 248.8973846435547 528.0054931640625 240.2965545654297 531.22705078125 C 237.5301513671875 548.9163208007812 236.42459106445312 562.3272094726562 247.6034393310547 572.4425048828125 C 266.0433349609375 577.0848999023438 288.7477722167969 575.75927734375 312.7076110839844 572.572509765625 C 332.23626708984375 569.8665771484375 343.7557373046875 568.2245483398438 342.7625732421875 573.8947143554688 C 334.11517333984375 581.20703125 317.7485046386719 585.243408203125 295.500244140625 584.6104736328125 C 272.2149658203125 583.81884765625 248.7295379638672 583.072998046875 237.2324676513672 575.8573608398438 C 229.6697998046875 565.1036376953125 235.3601531982422 545.0513916015625 235.580322265625 519.0056762695312 C 241.94796752929688 502.5697326660156 243.52378845214844 486.882568359375 242.17828369140625 472.3997497558594 C 233.96600341796875 464.5551452636719 226.5770721435547 461.18817138671875 226.52407836914062 472.1063232421875 C 214.85194396972656 476.27435302734375 207.81822204589844 485.06597900390625 199.98501586914062 488.4907531738281 C 192.49574279785156 487.3452453613281 188.43606567382812 484.96380615234375 189.55335998535156 483.3355407714844 C 195.46588134765625 484.2968444824219 204.45913696289062 489.0663146972656 211.36849975585938 496.1209716796875 C 213.1169891357422 519.81640625 213.75607299804688 540.2543334960938 217.22149658203125 564.2508544921875 C 219.93263244628906 575.3082885742188 206.85684204101562 582.5429077148438 190.06675720214844 587.1897583007812 C 169.3497314453125 593.3595581054688 153.39012145996094 600.2865600585938 131.1897430419922 594.5493774414062 C 117.12528228759766 592.9266357421875 114.82544708251953 583.718017578125 119.41500091552734 575.265625 C 131.8697967529297 580.9351806640625 151.6036834716797 583.5867919921875 173.0379180908203 585.8764038085938 C 189.71463012695312 585.0479125976562 204.02499389648438 578.6575317382812 213.5805206298828 569.2938842773438 C 213.0941619873047 556.0866088867188 212.40948486328125 543.150634765625 209.2898406982422 532.8407592773438 C 197.1904754638672 529.810546875 185.78759765625 528.9918212890625 174.07041931152344 530.6279907226562 C 164.8087158203125 529.1957397460938 155.33993530273438 525.9984130859375 150.70278930664062 515.9771728515625 C 160.91357421875 505.16802978515625 170.3212127685547 494.8522644042969 166.41470336914062 476.3656311035156 C 157.45849609375 457.5634765625 154.03269958496094 436.3932189941406 153.01788330078125 412.1029052734375 C 148.75885009765625 398.0037536621094 130.5516357421875 390.38360595703125 115.97341918945312 379.50335693359375 C 114.51045227050781 359.7785339355469 113.56216430664062 349.5000305175781 106.56018829345703 348.00482177734375 C 93.57295989990234 353.4388732910156 84.39311218261719 359.84686279296875 76.78058624267578 356.94512939453125 C 75.35824584960938 347.17156982421875 80.79815673828125 335.7684326171875 91.08428955078125 325.5561828613281 C 102.56771850585938 318.76904296875 110.15969848632812 314.9129943847656 111.52639770507812 312.7309875488281 C 106.43880462646484 309.5984802246094 97.48979187011719 303.935302734375 89.71382904052734 295.8945007324219 C 88.08796691894531 282.9945068359375 93.6946029663086 276.8265686035156 106.9498062133789 268.1564025878906 C 121.71418762207031 257.4110107421875 139.4160919189453 248.93304443359375 157.24168395996094 242.97386169433594 C 171.2069549560547 237.98843383789062 180.28477478027344 240.2750244140625 181.72938537597656 251.76412963867188 C 177.21664428710938 269.07928466796875 171.3240203857422 286.8656311035156 166.2701873779297 305.672119140625 C 163.06369018554688 324.8707580566406 160.7078399658203 340.4125671386719 160.4628448486328 352.82470703125 C 161.00637817382812 362.21685791015625 161.61837768554688 367.3670654296875 161.7736053466797 368.595947265625 C 161.47181701660156 366.02325439453125 160.64596557617188 359.8663635253906 160.5331268310547 350.3367614746094 C 161.92404174804688 339.41461181640625 163.19366455078125 326.3909912109375 165.751220703125 312.4356689453125 C 168.22422790527344 298.2141418457031 171.38226318359375 284.41558837890625 175.8567352294922 270.9500732421875 C 180.3853759765625 258.9181823730469 190.3720703125 252.02658081054688 204.11988830566406 245.42950439453125 C 222.14913940429688 244.52076721191406 239.01321411132812 239.17657470703125 254.0045166015625 235.70680236816406 C 267.8384094238281 237.9024658203125 279.64385986328125 245.36376953125 288.90692138671875 256.44866943359375 C 293.31414794921875 271.2598876953125 300.8226013183594 283.5108947753906 306.3406677246094 296.0777587890625 C 311.44342041015625 306.06927490234375 313.2397155761719 313.2843322753906 316.7189636230469 315.7241516113281 C 316.3956298828125 314.1014099121094 316.4803161621094 310.4557189941406 316.5061340332031 306.6547546386719 C 316.49713134765625 304.35223388671875 315.68341064453125 303.69207763671875 313.02581787109375 303.1340026855469 C 309.0970153808594 299.9425354003906 302.4443359375 290.3365783691406 296.2627868652344 276.09686279296875 C 286.8582458496094 259.72589111328125 279.29925537109375 232.7672882080078 313.1092224121094 242.6370849609375" stroke-width="0.0" fill="rgb(251, 110, 165)" opacity="0.9998008" stroke="rgb(118, 200, 126)" stroke-opacity="0.87374717" stroke-linecap="round" stroke-linejoin="round"/>
    <path d="M 236.10427856445312 90.00682830810547 C 239.27633666992188 91.33206176757812 241.30226135253906 93.2776107788086 242.7220916748047 94.11096954345703 C 244.3031768798828 94.9913330078125 245.6038360595703 96.23400115966797 246.47776794433594 96.41310119628906 C 246.74075317382812 96.68324279785156 247.3124237060547 97.22159576416016 247.9051055908203 97.37044525146484 C 248.93917846679688 98.47860717773438 250.85975646972656 100.08102416992188 253.03636169433594 102.15128326416016 C 255.10569763183594 104.25725555419922 257.28448486328125 107.36299896240234 260.0008239746094 110.62548065185547 C 262.4446105957031 109.5173110961914 266.8507995605469 108.49298858642578 272.1681823730469 107.39990997314453 C 278.0599365234375 106.00072479248047 284.527587890625 104.37435150146484 291.6821594238281 103.12613677978516 C 299.4931945800781 100.03892517089844 304.69403076171875 103.20504760742188 311.0335998535156 104.63362884521484 C 319.3331298828125 102.9491958618164 325.4297790527344 107.89612579345703 328.55230712890625 113.11561584472656 C 330.6146240234375 120.19544219970703 329.8869934082031 128.106201171875 329.0263366699219 132.72315979003906 C 331.57293701171875 131.70420837402344 338.2606506347656 129.64012145996094 344.11285400390625 126.34037017822266 C 347.06982421875 120.64806365966797 345.25311279296875 115.06049346923828 340.634765625 109.69347381591797 C 335.5951843261719 104.98596954345703 330.1209716796875 101.79894256591797 319.5503845214844 100.32998657226562 C 322.5926208496094 95.38761138916016 331.6208190917969 95.91801452636719 342.950439453125 94.09193420410156 C 346.6195373535156 92.7313003540039 351.3446960449219 100.41949462890625 357.7410888671875 105.97264099121094 C 362.23089599609375 111.73728942871094 365.9548645019531 118.86856079101562 368.0257873535156 126.1551284790039 C 370.06768798828125 132.4895477294922 371.2313232421875 139.43804931640625 370.830810546875 145.96279907226562 C 371.03173828125 152.28440856933594 369.9226379394531 158.9250946044922 367.91632080078125 165.41172790527344 C 366.2542419433594 171.1648712158203 363.2087707519531 177.87969970703125 359.80609130859375 183.42837524414062 C 355.8276672363281 189.4593963623047 351.6175537109375 195.22975158691406 346.63714599609375 200.2251434326172 C 341.4140319824219 205.2870330810547 335.8157043457031 210.17640686035156 329.6282043457031 214.36654663085938 C 323.9252624511719 219.1459197998047 316.52801513671875 221.55360412597656 312.5881042480469 226.03564453125 C 309.7722473144531 231.024658203125 302.69403076171875 232.92669677734375 297.9700622558594 235.16407775878906 C 293.45489501953125 236.60092163085938 289.887939453125 237.79568481445312 287.37249755859375 237.98760986328125 C 290.28515625 240.38827514648438 290.08203125 245.47303771972656 289.715087890625 250.53195190429688 C 294.0613098144531 254.62185668945312 296.7531433105469 257.8787536621094 298.5328063964844 260.0864562988281 C 299.53668212890625 261.4671936035156 299.77099609375 261.4552917480469 298.64813232421875 260.4260559082031 C 296.7375183105469 258.0159912109375 293.9894104003906 254.7271728515625 290.5110168457031 250.6346435546875 C 285.4182434082031 247.5818328857422 280.154052734375 244.1413116455078 273.6289978027344 242.46604919433594 C 268.9302062988281 239.40333557128906 263.5436706542969 239.83248901367188 258.64923095703125 242.70779418945312 C 253.26889038085938 242.1236572265625 248.04180908203125 243.23326110839844 243.3843231201172 244.43435668945312 C 237.8105926513672 244.44308471679688 232.99325561523438 244.49647521972656 228.46473693847656 244.552734375 C 224.03433227539062 243.83145141601562 219.51840209960938 242.94766235351562 215.65374755859375 242.67247009277344 C 210.4864501953125 241.77256774902344 205.4138946533203 240.71971130371094 200.1756134033203 238.95448303222656 C 194.57913208007812 237.2696075439453 189.00221252441406 234.696533203125 183.1448974609375 231.7200469970703 C 177.4217071533203 228.57398986816406 171.53472900390625 224.70721435546875 166.82601928710938 220.57669067382812 C 161.76284790039062 216.50360107421875 157.8314208984375 212.02688598632812 154.03021240234375 207.08616638183594 C 150.62054443359375 201.82818603515625 147.57711791992188 196.4259796142578 145.6165771484375 190.03192138671875 C 143.78317260742188 183.9786834716797 142.44308471679688 176.1237030029297 143.28375244140625 169.5137481689453 C 142.87554931640625 162.82550048828125 145.30006408691406 157.82449340820312 147.5250244140625 150.8096466064453 C 154.0316162109375 148.9784393310547 156.60069274902344 145.64027404785156 157.2430419921875 139.13922119140625 C 158.2261962890625 133.4580078125 156.1495361328125 127.7394027709961 159.73255920410156 126.03961944580078 C 164.8693389892578 134.99696350097656 164.86886596679688 138.6045684814453 170.4966278076172 137.88140869140625 C 176.56039428710938 135.4628143310547 181.99386596679688 131.89263916015625 194.1929473876953 128.19488525390625 C 193.53196716308594 133.02975463867188 185.93431091308594 135.36221313476562 184.99676513671875 142.2836456298828 C 182.82315063476562 152.8856964111328 183.58763122558594 158.881591796875 188.60128784179688 166.1444854736328 C 192.69598388671875 166.7274932861328 198.30487060546875 165.7329864501953 201.85238647460938 164.51992797851562 C 195.42738342285156 162.5634002685547 189.46595764160156 159.55923461914062 187.42588806152344 150.37889099121094 C 185.44522094726562 143.90304565429688 190.55429077148438 146.04737854003906 201.63990783691406 148.67172241210938 C 206.11361694335938 143.58023071289062 214.3926544189453 143.8905792236328 212.11106872558594 138.83494567871094 C 212.6063232421875 128.98770141601562 219.53810119628906 125.18864440917969 223.4606475830078 131.48428344726562 C 229.28732299804688 136.31185913085938 229.42796325683594 143.81243896484375 227.50436401367188 152.1315460205078 C 224.53158569335938 157.96090698242188 221.08889770507812 160.40687561035156 223.56716918945312 160.77137756347656 C 230.0877685546875 157.6917724609375 239.12803649902344 156.19244384765625 244.4752960205078 151.59957885742188 C 245.65003967285156 145.61460876464844 242.66966247558594 139.1050262451172 237.1210174560547 132.8047332763672 C 229.95657348632812 128.926025390625 222.6759796142578 125.46330261230469 214.01126098632812 124.0661392211914 C 206.6967315673828 123.32799530029297 213.1915740966797 121.05288696289062 219.68312072753906 119.86656188964844 C 225.5351104736328 117.99717712402344 232.2329864501953 116.97606658935547 238.09307861328125 115.58026123046875 C 242.95718383789062 115.39030456542969 246.31568908691406 114.54483032226562 246.6396484375 113.1924057006836 C 245.79196166992188 109.2825927734375 245.44358825683594 105.36054992675781 236.10427856445312 90.00682830810547" stroke-width="0.0" fill="rgb(250, 188, 107)" opacity="0.9999995" stroke="rgb(18, 17, 225)" stroke-opacity="0.6161581" stroke-linecap="round" stroke-linejoin="round"/>
    <path d="M 173.2350616455078 238.45896911621094 C 174.9400634765625 239.70010375976562 176.6565704345703 239.48744201660156 178.530029296875 239.6775360107422 C 180.29823303222656 239.18157958984375 182.4578399658203 238.92955017089844 183.98814392089844 241.27162170410156 C 187.37843322753906 241.94300842285156 188.28990173339844 245.20396423339844 187.08802795410156 249.39891052246094 C 185.60716247558594 256.0174865722656 183.67996215820312 264.1889343261719 182.4351806640625 273.4934997558594 C 179.43231201171875 282.5419006347656 176.79225158691406 290.91876220703125 174.0991973876953 297.86773681640625 C 171.17393493652344 303.2703857421875 168.46987915039062 307.9207763671875 165.32269287109375 312.8606872558594 C 161.44888305664062 318.73052978515625 156.2350616455078 326.647216796875 147.99713134765625 334.8699951171875 C 144.26930236816406 345.5137023925781 142.67501831054688 358.41497802734375 145.63230895996094 368.3768615722656 C 150.14781188964844 378.259521484375 154.22476196289062 384.6333312988281 162.27923583984375 386.5118103027344 C 173.2557830810547 384.02410888671875 185.4438934326172 379.989501953125 198.96292114257812 377.94708251953125 C 216.71543884277344 376.1938781738281 234.03831481933594 376.0048828125 252.5187530517578 376.448486328125 C 270.5588684082031 375.660888671875 287.3813781738281 376.6700134277344 301.582763671875 379.8557434082031 C 311.63623046875 380.15875244140625 316.7959899902344 375.60552978515625 320.1192626953125 371.3291931152344 C 321.42974853515625 370.401611328125 319.3234558105469 372.74261474609375 313.57135009765625 377.515869140625 C 310.3172302246094 388.5731506347656 308.06903076171875 403.4365539550781 305.73345947265625 419.7229309082031 C 305.0291442871094 436.37078857421875 303.51751708984375 451.1285705566406 300.37542724609375 465.7001647949219 C 297.0714416503906 471.5186462402344 288.1964111328125 476.3689270019531 286.35955810546875 482.5574645996094 C 285.8689270019531 490.6761779785156 283.7055358886719 498.7756652832031 287.9328918457031 507.2337341308594 C 288.3095703125 516.2806396484375 290.7752685546875 529.0099487304688 297.6103820800781 535.5313110351562 C 310.856689453125 538.590576171875 322.5762023925781 544.7990112304688 334.400146484375 550.7557983398438 C 342.345703125 555.6063232421875 342.2239990234375 560.8929443359375 336.4524230957031 555.8185424804688 C 324.9661560058594 549.4598388671875 308.5615539550781 544.9177856445312 298.0510559082031 531.8994140625 C 280.8058776855469 525.501220703125 263.2466735839844 530.4049682617188 246.69888305664062 530.3886108398438 C 236.32540893554688 529.0797729492188 235.1260986328125 538.818359375 237.1299591064453 550.158935546875 C 239.3749542236328 561.6317749023438 243.50657653808594 570.385498046875 247.36549377441406 575.72705078125 C 247.9051971435547 578.0187377929688 246.62017822265625 576.3215942382812 243.43572998046875 571.527099609375 C 239.7221221923828 563.333984375 236.9582061767578 551.8169555664062 237.35910034179688 537.6018676757812 C 235.48861694335938 521.4877319335938 241.0707550048828 505.314697265625 245.87757873535156 490.687255859375 C 245.67178344726562 477.0605163574219 241.40550231933594 467.8122253417969 233.9511260986328 463.2232666015625 C 224.78787231445312 465.7879638671875 217.49087524414062 471.60235595703125 214.37063598632812 482.5779724121094 C 213.10824584960938 495.66717529296875 211.0070037841797 508.6206359863281 211.48211669921875 521.8096923828125 C 212.3119354248047 534.915771484375 215.14979553222656 546.7831420898438 216.13937377929688 559.1094360351562 C 215.06752014160156 570.5444946289062 208.8483428955078 580.0770874023438 197.22189331054688 585.5811767578125 C 181.246337890625 589.4282836914062 164.63641357421875 590.169189453125 148.89163208007812 589.1710815429688 C 134.62950134277344 584.4630737304688 126.65487670898438 578.1200561523438 123.77218627929688 569.2476196289062 C 132.37594604492188 564.8111572265625 137.28846740722656 557.5965576171875 141.8424530029297 554.9668579101562 C 142.02288818359375 562.7623901367188 132.83590698242188 565.4693603515625 125.15463256835938 572.0853881835938 C 126.57431030273438 577.3138427734375 134.3495330810547 583.7850341796875 148.20758056640625 586.9873657226562 C 166.07383728027344 590.7861328125 183.93516540527344 586.7725830078125 209.42433166503906 586.419677734375 C 213.1742706298828 576.836181640625 216.6787872314453 562.4630126953125 215.3181915283203 547.0454711914062 C 213.0963134765625 534.9774780273438 206.42076110839844 528.5266723632812 197.3086700439453 534.91162109375 C 182.08193969726562 539.310546875 171.00619506835938 533.6049194335938 161.3441925048828 528.7781372070312 C 158.36917114257812 526.9205322265625 158.5911865234375 519.668212890625 161.38999938964844 510.0456848144531 C 166.12564086914062 501.6903381347656 167.12271118164062 489.26898193359375 166.17398071289062 477.34466552734375 C 158.49591064453125 465.96441650390625 156.20034790039062 455.10479736328125 155.3839874267578 439.0214538574219 C 156.35528564453125 423.2618713378906 156.8279266357422 405.6075439453125 155.6576690673828 387.7638854980469 C 148.65072631835938 371.10089111328125 141.12451171875 356.57196044921875 128.6869354248047 346.12353515625 C 112.69342041015625 344.907958984375 98.8382339477539 346.75152587890625 86.87420654296875 354.2743225097656 C 77.28162384033203 365.78485107421875 69.1513442993164 377.189697265625 56.976348876953125 388.1975402832031 C 46.29558181762695 389.1965637207031 35.6412239074707 392.7550354003906 27.69479751586914 394.73394775390625 C 12.493795394897461 390.88800048828125 12.469945907592773 384.9830627441406 10.126967430114746 373.7662353515625 C 2.0051639080047607 364.2187805175781 7.549181938171387 357.4707946777344 16.1372013092041 347.40301513671875 C 24.60367202758789 335.48297119140625 28.791868209838867 329.1014709472656 45.1929817199707 330.1619873046875 C 57.104026794433594 321.36810302734375 66.95529174804688 310.8079528808594 76.94776916503906 299.92425537109375 C 85.70796966552734 290.41131591796875 95.32456970214844 292.2818908691406 110.3125991821289 298.7455139160156 C 118.68855285644531 311.2799072265625 125.45735931396484 323.222900390625 127.29207611083984 336.0606994628906 C 138.15863037109375 341.4413757324219 146.7926788330078 338.3508605957031 152.642578125 330.211669921875 C 160.34075927734375 319.8962707519531 167.5101776123047 309.5658874511719 173.67892456054688 298.28900146484375 C 177.96878051757812 287.159423828125 181.0370330810547 276.4692687988281 184.4527130126953 266.4151306152344 C 185.2455596923828 257.7648620605469 184.84393310546875 247.36073303222656 173.2350616455078 238.45896911621094" stroke-width="0.0" fill="rgb(248, 200, 106)" opacity="0.99978113" stroke="rgb(207, 9, 130)" stroke-opacity="0.32220793" stroke-linecap="round" stroke-linejoin="round"/>
    <path d="M 171.1365509033203 380.7791442871094 C 171.41574096679688 380.6597900390625 171.50909423828125 379.84967041015625 171.90016174316406 379.4080810546875 C 173.08169555664062 379.6481628417969 174.09317016601562 379.57037353515625 174.7579803466797 378.5436706542969 C 176.02511596679688 378.46759033203125 177.12973022460938 378.3455810546875 178.43087768554688 378.42010498046875 C 179.65994262695312 378.36053466796875 180.7776641845703 378.4342041015625 182.33595275878906 378.130859375 C 182.92735290527344 379.5502014160156 183.85885620117188 379.8336486816406 185.41641235351562 379.4448547363281 C 185.51324462890625 380.5491638183594 186.43594360351562 380.699462890625 187.43499755859375 380.7789306640625 C 187.8887939453125 381.1189270019531 188.6903533935547 381.1077575683594 189.59329223632812 380.8818359375 C 190.3537139892578 381.1770324707031 191.5569305419922 381.5827331542969 192.29598999023438 381.5828552246094 C 193.18528747558594 381.6422424316406 193.94041442871094 381.8004150390625 194.62057495117188 381.693359375 C 194.9827117919922 382.08428955078125 195.47561645507812 382.25872802734375 196.2925567626953 382.2486877441406 C 196.88075256347656 382.4604797363281 197.99903869628906 382.61474609375 199.3831329345703 382.6233825683594 C 201.2020721435547 383.7840270996094 203.7642059326172 383.2320251464844 206.13638305664062 384.108642578125 C 209.79786682128906 384.3346252441406 213.26742553710938 385.5907897949219 217.44143676757812 385.6943664550781 C 220.62168884277344 386.9948425292969 225.234375 386.0400695800781 228.954345703125 387.3291015625 C 233.85760498046875 387.253662109375 238.2091522216797 387.59869384765625 242.44207763671875 387.51531982421875 C 246.30810546875 387.5285949707031 250.16778564453125 387.5042419433594 253.7305450439453 387.1746520996094 C 256.9985656738281 386.3473815917969 260.2692565917969 386.5281982421875 263.2299499511719 386.3466796875 C 265.8803405761719 385.31463623046875 268.50506591796875 385.589111328125 270.8463439941406 385.2753601074219 C 272.9023132324219 384.296142578125 275.2651672363281 384.6423034667969 277.4064025878906 383.8434753417969 C 279.84722900390625 383.05572509765625 283.0157165527344 383.0641174316406 285.94281005859375 381.76739501953125 C 289.9086608886719 380.2293701171875 295.2287292480469 379.8301696777344 298.7254638671875 377.3648376464844 C 303.735595703125 377.43756103515625 308.5916442871094 377.3364562988281 313.05462646484375 377.6375427246094 C 316.5445556640625 381.38690185546875 316.2640075683594 385.40802001953125 315.6504821777344 389.9045104980469 C 315.3880310058594 394.8435974121094 314.9713439941406 400.438232421875 313.7177429199219 405.1845703125 C 313.29095458984375 410.4638366699219 311.76239013671875 415.8866882324219 310.26763916015625 421.244384765625 C 308.9896240234375 427.50299072265625 307.55047607421875 434.6033935546875 304.9283447265625 441.35333251953125 C 303.9228515625 448.2084045410156 302.42230224609375 454.4610595703125 300.8378601074219 459.8906555175781 C 300.90179443359375 465.18804931640625 300.06512451171875 468.9339904785156 297.8591003417969 471.3252258300781 C 294.64227294921875 472.4441833496094 292.1067810058594 474.10308837890625 289.1113586425781 474.22515869140625 C 285.7382507324219 471.1538391113281 281.73992919921875 472.9914855957031 277.7397766113281 472.677978515625 C 273.9444274902344 472.3662414550781 269.82421875 472.7615966796875 264.82720947265625 472.11590576171875 C 260.5175476074219 472.00067138671875 255.73739624023438 471.2357482910156 250.12303161621094 470.630126953125 C 246.11924743652344 469.7302551269531 244.695068359375 465.0382080078125 242.5948486328125 461.41998291015625 C 240.7736053466797 458.2182312011719 239.81646728515625 456.20703125 239.65313720703125 455.533203125 C 239.83277893066406 456.267333984375 240.9031524658203 458.4750061035156 242.87155151367188 462.0072021484375 C 244.8627166748047 466.1991882324219 247.95924377441406 469.04315185546875 246.77757263183594 473.3184814453125 C 246.69053649902344 477.7248229980469 246.68312072753906 481.0682373046875 244.7738037109375 484.802490234375 C 242.2979736328125 481.4483947753906 243.09695434570312 478.15155029296875 242.9622344970703 470.5967712402344 C 241.44622802734375 468.8644714355469 234.62570190429688 467.9292907714844 233.5203857421875 463.51800537109375 C 233.4508056640625 456.588134765625 232.64328002929688 453.72589111328125 229.05604553222656 454.40740966796875 C 226.980224609375 455.5351867675781 228.20779418945312 459.7780456542969 226.7850799560547 465.32025146484375 C 226.96267700195312 472.59454345703125 227.03953552246094 475.7083740234375 217.03570556640625 474.6526184082031 C 215.4114532470703 477.9520263671875 215.88401794433594 483.31988525390625 214.14923095703125 487.92218017578125 C 213.26498413085938 492.5693054199219 213.11021423339844 497.1879577636719 210.9541778564453 506.59808349609375 C 207.4337921142578 502.8280944824219 209.61985778808594 499.376708984375 209.5980682373047 495.16265869140625 C 210.06643676757812 490.2974548339844 210.38975524902344 485.2454833984375 211.1501922607422 479.7146301269531 C 211.31480407714844 474.83514404296875 214.21524047851562 471.31463623046875 216.02828979492188 467.3115234375 C 217.23873901367188 464.5115051269531 218.25473022460938 462.0840148925781 219.08099365234375 460.8096008300781 C 219.41622924804688 460.28253173828125 219.1500701904297 460.55352783203125 218.56143188476562 461.71630859375 C 217.55662536621094 463.4040832519531 216.728271484375 466.1291198730469 215.2429962158203 469.0036315917969 C 213.80235290527344 471.8365173339844 212.37606811523438 475.8316345214844 209.82005310058594 474.8558044433594 C 204.5010986328125 475.7771911621094 199.02804565429688 475.2371826171875 193.0829315185547 475.291259765625 C 186.4347381591797 474.7891845703125 179.3340606689453 475.2669677734375 172.0206756591797 472.8346252441406 C 167.19656372070312 473.7313537597656 163.23350524902344 473.6379699707031 159.60960388183594 470.7279968261719 C 157.25677490234375 468.2348937988281 157.66505432128906 462.8828125 157.3387451171875 456.7403869628906 C 156.9336700439453 450.4333801269531 155.90753173828125 443.88946533203125 155.34176635742188 437.4283447265625 C 155.20436096191406 430.70281982421875 154.0286102294922 424.39801025390625 153.473388671875 418.16229248046875 C 153.04278564453125 412.3098449707031 153.02471923828125 406.5343933105469 152.69854736328125 399.98712158203125 C 154.75657653808594 396.3573913574219 156.24807739257812 392.20465087890625 156.27606201171875 385.88214111328125 C 158.22813415527344 382.836181640625 160.9737548828125 379.3541564941406 171.1365509033203 380.7791442871094" stroke-width="0.0" fill="rgb(251, 76, 3)" opacity="0.99998677" stroke="rgb(20, 77, 79)" stroke-opacity="0.46054134" stroke-linecap="round" stroke-linejoin="round"/>
    <path d="M 289.2548522949219 15.591489791870117 C 290.1394958496094 15.239923477172852 290.9764709472656 14.880453109741211 291.8619079589844 14.467299461364746 C 292.64599609375 14.335134506225586 293.40814208984375 14.343892097473145 294.31060791015625 14.396004676818848 C 295.2275695800781 14.979589462280273 296.31768798828125 15.723554611206055 297.7119140625 16.722900390625 C 299.3785400390625 18.278717041015625 301.4012756347656 20.37755012512207 303.4154968261719 22.676467895507812 C 305.2033996582031 25.744203567504883 307.5025939941406 29.041959762573242 309.82501220703125 32.513404846191406 C 312.0096130371094 36.395748138427734 313.9313049316406 40.369380950927734 315.9861145019531 44.388301849365234 C 317.7265319824219 48.42794418334961 319.7379150390625 52.22379684448242 321.5238342285156 55.833744049072266 C 323.76837158203125 59.019771575927734 326.11041259765625 61.96870803833008 328.41583251953125 64.44359588623047 C 330.47113037109375 66.64502716064453 331.6919860839844 68.62980651855469 332.1174621582031 70.50553894042969 C 331.3559265136719 72.29752349853516 329.73291015625 74.0134048461914 327.1992492675781 76.06610870361328 C 323.98284912109375 77.44401550292969 320.5433654785156 79.05701446533203 317.0512390136719 80.78401184082031 C 313.2239990234375 82.54043579101562 309.65972900390625 84.45722961425781 306.3699035644531 86.52013397216797 C 303.3581848144531 88.80020141601562 300.1673583984375 90.80742645263672 296.8612365722656 92.86424255371094 C 293.1775207519531 94.4548568725586 289.329345703125 95.63153839111328 285.084716796875 96.54037475585938 C 280.7889404296875 96.38846588134766 276.2178955078125 95.8831787109375 271.5110168457031 94.79007720947266 C 266.9256286621094 92.97798156738281 262.264892578125 90.33506774902344 257.5034484863281 87.69993591308594 C 253.2601776123047 84.69449615478516 248.5626678466797 82.34861755371094 243.61618041992188 80.572265625 C 239.86524963378906 78.89070892333984 235.96885681152344 78.37541961669922 232.56185913085938 78.97794342041016 C 229.64166259765625 80.472900390625 227.3189239501953 83.05677032470703 226.035400390625 86.3036117553711 C 224.9237060546875 90.1375503540039 224.07627868652344 94.1522216796875 223.79339599609375 98.16456604003906 C 223.49014282226562 101.79612731933594 222.65475463867188 105.03541564941406 221.3982696533203 107.75684356689453 C 218.83062744140625 109.50360107421875 215.54017639160156 110.71858215332031 211.4943389892578 111.60884094238281 C 206.7151641845703 111.92090606689453 201.32949829101562 111.62886047363281 195.50503540039062 111.41514587402344 C 189.59097290039062 110.9538345336914 183.74806213378906 110.77838134765625 178.01402282714844 110.31714630126953 C 172.6231231689453 109.55599212646484 167.57203674316406 109.49797821044922 163.00650024414062 109.96102142333984 C 159.0074920654297 110.56237030029297 155.1352996826172 111.9940414428711 151.9118194580078 113.85032653808594 C 149.1873779296875 116.42691802978516 146.88360595703125 119.52039337158203 144.981201171875 122.87248992919922 C 143.4534149169922 126.79132080078125 141.9441375732422 130.57070922851562 140.3249053955078 134.37196350097656 C 138.38424682617188 137.74725341796875 136.37457275390625 141.13526916503906 134.20306396484375 144.40419006347656 C 132.10861206054688 147.88343811035156 130.34130859375 151.5234375 128.66073608398438 155.2480010986328 C 128.33460998535156 159.83038330078125 127.67029571533203 164.3214111328125 127.23248291015625 168.98106384277344 C 126.70186614990234 173.50018310546875 126.20841979980469 177.81507873535156 125.07930755615234 181.8453826904297 C 122.59033203125 184.97813415527344 119.61288452148438 187.82025146484375 115.84202575683594 190.2020721435547 C 111.02043914794922 191.29962158203125 105.46499633789062 191.89028930664062 99.4903564453125 191.83322143554688 C 93.28116607666016 191.82032775878906 87.083740234375 191.29638671875 81.1552734375 190.06707763671875 C 75.78705596923828 188.0753936767578 71.39575958251953 185.98765563964844 67.9325180053711 182.99105834960938 C 65.88134765625 179.5837860107422 64.74678802490234 176.21192932128906 64.52095794677734 172.6025390625 C 65.66088104248047 168.9754638671875 67.28114318847656 165.42214965820312 68.92840576171875 161.74740600585938 C 71.59823608398438 158.0841522216797 74.0501708984375 154.16929626464844 76.1460952758789 150.18031311035156 C 78.27995300292969 146.05694580078125 79.69237518310547 141.47450256347656 80.78070831298828 136.5831756591797 C 81.87469482421875 131.75965881347656 83.18311309814453 126.97918701171875 84.53072357177734 122.22510528564453 C 86.54166412353516 117.9103775024414 88.77704620361328 113.88204956054688 91.34889221191406 110.3124008178711 C 94.16377258300781 107.07766723632812 97.03465270996094 104.04571533203125 99.80179595947266 101.1283950805664 C 102.67725372314453 98.7245864868164 105.46723937988281 96.21800231933594 108.0826416015625 93.65342712402344 C 110.50068664550781 90.67211151123047 112.99356842041016 87.76069641113281 115.37333679199219 84.59658813476562 C 118.37430572509766 81.50424194335938 121.56979370117188 78.22714233398438 124.81961822509766 74.9646224975586 C 128.14297485351562 71.54737854003906 131.56808471679688 68.1692123413086 135.1717987060547 64.6623306274414 C 138.9697265625 61.53031921386719 142.6212158203125 58.20522689819336 146.11691284179688 54.64293670654297 C 149.60784912109375 51.167232513427734 153.08290100097656 47.71049880981445 156.50628662109375 44.402015686035156 C 159.36929321289062 40.757179260253906 162.32928466796875 37.688987731933594 165.16696166992188 35.17900466918945 C 168.9315185546875 33.903629302978516 172.28273010253906 33.27054977416992 175.9224853515625 33.44004440307617 C 179.73626708984375 34.72892761230469 183.74546813964844 36.64490509033203 188.0411376953125 38.878028869628906 C 192.1227569580078 41.584903717041016 196.42074584960938 43.86521530151367 200.97854614257812 45.5626335144043 C 205.5717010498047 46.58511734008789 210.04931640625 46.97736358642578 214.24737548828125 46.39954376220703 C 218.4150390625 45.319793701171875 222.3674774169922 43.16731262207031 225.63162231445312 40.24822998046875 C 228.9950408935547 36.930320739746094 232.11346435546875 33.35586166381836 235.11514282226562 29.738487243652344 C 238.39813232421875 26.335603713989258 241.74769592285156 23.59340476989746 245.31573486328125 21.062116622924805 C 249.40028381347656 19.143138885498047 253.84219360351562 17.560094833374023 258.86993408203125 16.44215202331543 C 264.2698669433594 15.754785537719727 269.99444580078125 15.214317321777344 276.00335693359375 15.315876960754395 C 282.18853759765625 15.484136581420898 288.35028076171875 15.494821548461914 289.2548522949219 15.591489791870117" stroke-width="0.0" fill="rgb(61, 39, 36)" opacity="0.999537" stroke="rgb(184, 91, 242)" stroke-opacity="0.17438076" stroke-linecap="round" stroke-linejoin="round"/>
    <path d="M 217.35333251953125 271.9564514160156 C 219.13807678222656 271.9538879394531 220.5676727294922 272.10260009765625 221.96812438964844 272.2768249511719 C 223.3520965576172 272.41021728515625 224.72906494140625 272.48956298828125 225.88084411621094 272.5722351074219 C 227.0596923828125 272.548583984375 228.18838500976562 272.4300537109375 229.11801147460938 272.3477783203125 C 230.17445373535156 272.29937744140625 231.1272735595703 272.1973571777344 232.08465576171875 272.0975646972656 C 233.04299926757812 272.10772705078125 234.05076599121094 272.1091613769531 235.09616088867188 272.1322937011719 C 236.09317016601562 272.2621765136719 237.11024475097656 272.3507385253906 238.10243225097656 272.4517517089844 C 239.03176879882812 272.5948486328125 239.9332733154297 272.6658020019531 240.78604125976562 272.7366943359375 C 241.6295928955078 272.8376159667969 242.55789184570312 272.8607482910156 243.55865478515625 272.7978515625 C 244.75880432128906 272.7764587402344 246.20181274414062 272.6834716796875 247.88987731933594 272.4562683105469 C 249.84825134277344 272.2747497558594 252.13674926757812 272.12213134765625 254.62619018554688 272.0043640136719 C 257.24981689453125 272.0896911621094 259.9027099609375 272.3646545410156 262.4465637207031 272.7891845703125 C 264.70867919921875 273.72027587890625 266.644287109375 274.86346435546875 268.32147216796875 276.3006896972656 C 269.3187255859375 278.2270812988281 270.0686950683594 280.3669738769531 270.4873962402344 282.6999206542969 C 270.5791015625 285.22894287109375 270.6990966796875 287.86968994140625 270.887939453125 290.41778564453125 C 271.1364440917969 292.9066467285156 271.577392578125 295.263916015625 272.11187744140625 297.39752197265625 C 273.2619323730469 299.3538513183594 274.5407409667969 301.13873291015625 275.9718017578125 302.76483154296875 C 277.6539001464844 304.18426513671875 279.3992614746094 305.58135986328125 281.06890869140625 306.9467468261719 C 282.6826477050781 308.41217041015625 284.2721862792969 310.0010986328125 285.66558837890625 311.5428161621094 C 287.19830322265625 313.2693176269531 288.73126220703125 314.925537109375 290.4349670410156 316.54705810546875 C 292.22357177734375 318.1866149902344 294.1542663574219 319.7285461425781 296.115478515625 321.1649475097656 C 297.92254638671875 322.69952392578125 299.5245056152344 324.38922119140625 300.9042663574219 326.14447021484375 C 301.7889099121094 328.2096862792969 302.3428955078125 330.4329833984375 302.6460266113281 332.951904296875 C 302.5685119628906 335.5800476074219 302.5082092285156 338.28948974609375 302.5209045410156 341.0291442871094 C 302.7845153808594 343.6836242675781 303.372802734375 346.2623291015625 303.861572265625 348.7632141113281 C 305.3994140625 350.9869689941406 306.9034118652344 353.12811279296875 308.3381042480469 355.084228515625 C 309.5554504394531 357.07147216796875 310.35235595703125 358.9263916015625 310.6623229980469 360.75115966796875 C 310.3204040527344 362.38470458984375 309.3129577636719 363.80718994140625 307.73126220703125 364.99835205078125 C 305.5692138671875 365.88446044921875 303.08099365234375 366.5476989746094 300.2565612792969 366.8675231933594 C 297.30242919921875 367.0246276855469 294.2430725097656 367.004638671875 291.15240478515625 366.9231262207031 C 288.0803527832031 366.8788757324219 285.0339050292969 366.8485107421875 281.98345947265625 366.8910217285156 C 278.9838562011719 366.9855041503906 275.94879150390625 367.17327880859375 272.94256591796875 367.428955078125 C 269.9481201171875 367.5575866699219 266.95977783203125 367.7020263671875 264.0167541503906 367.77081298828125 C 261.0137023925781 367.7966003417969 258.0436096191406 367.70172119140625 255.2025146484375 367.5444030761719 C 252.29359436035156 367.33697509765625 249.30401611328125 367.0927429199219 246.3956298828125 366.8842468261719 C 243.46600341796875 366.6242980957031 240.49362182617188 366.4978942871094 237.4567108154297 366.5135498046875 C 234.45521545410156 366.44293212890625 231.36965942382812 366.3975524902344 228.19654846191406 366.4677734375 C 225.0565185546875 366.4133605957031 221.9746856689453 366.4480895996094 218.8321075439453 366.4881591796875 C 215.79690551757812 366.4337158203125 212.7248992919922 366.4771423339844 209.73361206054688 366.45452880859375 C 206.80564880371094 366.41278076171875 203.9222412109375 366.45098876953125 200.99607849121094 366.5246276855469 C 198.0897674560547 366.6152648925781 195.19976806640625 366.8673400878906 192.22824096679688 367.0838623046875 C 189.12435913085938 367.3251953125 185.92881774902344 367.52923583984375 182.75001525878906 367.7141418457031 C 179.46072387695312 367.70458984375 176.12396240234375 367.4924011230469 172.9145050048828 367.0990905761719 C 169.95362854003906 366.4255676269531 167.28150939941406 365.6253662109375 164.97537231445312 364.6185302734375 C 163.30023193359375 363.41534423828125 162.19808959960938 362.08551025390625 161.62075805664062 360.6914978027344 C 162.006103515625 359.36468505859375 162.92404174804688 357.9569396972656 164.38861083984375 356.67431640625 C 166.1730499267578 355.3734130859375 168.20944213867188 353.97320556640625 170.30877685546875 352.46478271484375 C 172.23939514160156 350.83319091796875 173.910400390625 348.9323425292969 175.28689575195312 346.7978515625 C 175.9611053466797 344.2564697265625 176.3389892578125 341.56689453125 176.4702911376953 338.73809814453125 C 176.4805908203125 335.838134765625 176.47142028808594 333.0423278808594 176.65847778320312 330.3414001464844 C 177.26156616210938 327.9364013671875 178.134033203125 325.84039306640625 179.436279296875 323.9932861328125 C 181.14996337890625 322.4377136230469 183.02757263183594 321.1156005859375 185.10450744628906 319.78863525390625 C 187.03309631347656 318.4271240234375 188.79754638671875 316.78887939453125 190.36582946777344 314.9234924316406 C 191.4656219482422 312.82843017578125 192.21026611328125 310.4656677246094 192.66534423828125 307.880126953125 C 192.98243713378906 305.2395935058594 193.2197265625 302.6837158203125 193.6297607421875 300.2137756347656 C 194.26019287109375 297.8560791015625 195.0298309326172 295.81378173828125 196.1097412109375 293.85894775390625 C 197.4866180419922 292.15850830078125 198.97390747070312 290.5163269042969 200.62648010253906 288.8426513671875 C 202.28314208984375 287.242919921875 203.8843536376953 285.6315612792969 205.47825622558594 283.855224609375 C 206.73422241210938 281.6781005859375 208.07217407226562 279.75152587890625 209.31639099121094 277.7139587402344 C 210.80174255371094 275.8418273925781 212.20068359375 274.0684509277344 213.71629333496094 272.2928161621094 C 215.20657348632812 270.6033020019531 216.69580078125 269.11883544921875 217.35333251953125 271.9564514160156" stroke-width="0.0" fill="rgb(254, 111, 167)" opacity="0.9995052" stroke="rgb(208, 36, 111)" stroke-opacity="0.34216064" stroke-linecap="round" stroke-linejoin="round"/>
    <path d="M 365.0572204589844 268.6101379394531 C 365.78857421875 268.6626281738281 366.4488525390625 268.9748840332031 367.05975341796875 269.46160888671875 C 368.1767883300781 269.67889404296875 368.9729309082031 270.20953369140625 370.0181884765625 270.59320068359375 C 371.15093994140625 271.11541748046875 372.3548889160156 271.5523376464844 373.4245300292969 272.1269226074219 C 374.6524353027344 272.5841979980469 375.8036804199219 273.06268310546875 376.8395080566406 273.5309143066406 C 377.8926086425781 273.9590148925781 378.9060974121094 274.40966796875 380.0547180175781 274.8556213378906 C 381.06390380859375 275.37005615234375 382.1588134765625 275.96539306640625 383.3691101074219 276.7991943359375 C 384.64208984375 277.6556701660156 386.1629943847656 278.2689514160156 387.67572021484375 279.2309875488281 C 389.43438720703125 279.9139099121094 391.1041259765625 280.9153137207031 392.8406982421875 282.0310974121094 C 394.88079833984375 283.1897888183594 396.6812744140625 284.6105041503906 398.3085632324219 286.35162353515625 C 400.2323913574219 287.7416076660156 401.9945983886719 289.48529052734375 403.82550048828125 291.1505126953125 C 405.2866516113281 293.0508728027344 406.8758544921875 294.3387756347656 408.7439270019531 295.3919982910156 C 410.9382019042969 295.72528076171875 413.77117919921875 296.1063232421875 415.30560302734375 293.7471618652344 C 417.4294738769531 292.9446716308594 420.5738525390625 292.0420227050781 422.830810546875 290.9365539550781 C 425.9629821777344 290.7312316894531 427.896728515625 289.3421630859375 430.1908264160156 289.1231384277344 C 433.28594970703125 288.34375 434.2875061035156 286.79119873046875 436.1913146972656 285.17572021484375 C 437.69219970703125 283.24029541015625 439.4478454589844 281.39044189453125 441.2619934082031 279.7055969238281 C 443.04583740234375 278.92974853515625 445.4635009765625 279.4752502441406 447.4059753417969 279.52069091796875 C 448.1589660644531 280.5254821777344 449.6429748535156 282.03125 450.55767822265625 282.9241638183594 C 450.33905029296875 284.82928466796875 450.7406311035156 286.95318603515625 450.4125061035156 288.4449768066406 C 449.4272155761719 289.5703125 449.84649658203125 292.26507568359375 448.60125732421875 292.083740234375 C 448.2808837890625 294.6947326660156 447.64849853515625 296.32086181640625 446.70794677734375 297.3042907714844 C 445.9674377441406 299.2407531738281 446.1882019042969 299.7445068359375 447.95782470703125 299.2073059082031 C 449.9627685546875 300.3578186035156 452.7875061035156 300.8507080078125 454.8395690917969 302.22833251953125 C 456.599609375 303.6313171386719 459.6021728515625 304.3560485839844 461.8155517578125 305.98455810546875 C 464.0336608886719 307.45556640625 466.3784484863281 308.90728759765625 468.38372802734375 310.43084716796875 C 470.5123596191406 311.86444091796875 471.72784423828125 314.1785583496094 473.7586975097656 314.92401123046875 C 473.7422180175781 317.1329650878906 473.6600341796875 319.2352294921875 473.94671630859375 321.3853759765625 C 471.5466613769531 321.7998962402344 470.2568664550781 324.2447509765625 467.90472412109375 323.71588134765625 C 464.9168701171875 323.6838684082031 462.6760559082031 323.6329650878906 460.4709167480469 323.5993957519531 C 460.33953857421875 324.6909484863281 461.7911376953125 325.51544189453125 463.5216064453125 327.5050964355469 C 465.6717529296875 329.0447998046875 467.08282470703125 331.77947998046875 467.6421813964844 333.9842834472656 C 467.8931579589844 336.7635803222656 467.7065734863281 338.1885070800781 465.5090026855469 339.473876953125 C 463.7279968261719 339.8888244628906 461.96917724609375 340.74530029296875 460.654541015625 341.11505126953125 C 460.7123718261719 342.9120788574219 460.8783264160156 344.83160400390625 460.64947509765625 346.1455383300781 C 458.376708984375 347.7355651855469 456.1900634765625 347.6981201171875 453.44287109375 347.6145324707031 C 450.7409973144531 347.1793518066406 447.8412780761719 346.1148376464844 445.42138671875 345.38262939453125 C 443.5201416015625 344.1646728515625 441.380859375 344.0618896484375 439.9398498535156 343.506591796875 C 438.6657409667969 343.7545166015625 437.8466491699219 343.335693359375 437.4033508300781 342.95062255859375 C 437.7195129394531 342.34619140625 438.12481689453125 341.78277587890625 438.82305908203125 340.9390563964844 C 439.520263671875 339.93328857421875 439.9891662597656 338.6858215332031 439.49224853515625 336.3800048828125 C 441.74859619140625 335.5378723144531 442.5059509277344 334.37127685546875 441.9088439941406 332.5798645019531 C 443.5397644042969 331.3236389160156 443.8592834472656 329.7078552246094 443.124755859375 328.1483459472656 C 442.04608154296875 326.7149963378906 440.7738952636719 325.3268127441406 438.6201477050781 324.5808410644531 C 437.89862060546875 321.46343994140625 437.3377990722656 319.50177001953125 437.2330017089844 317.7831726074219 C 437.3279113769531 315.59271240234375 437.3796081542969 313.34814453125 436.869384765625 311.71112060546875 C 436.2864685058594 310.48193359375 434.9962463378906 309.0926818847656 432.4485778808594 307.6402282714844 C 432.31756591796875 305.349853515625 431.56573486328125 304.4322204589844 429.77032470703125 304.6971435546875 C 428.7274169921875 301.85968017578125 427.31292724609375 300.92626953125 425.02685546875 300.419677734375 C 423.69268798828125 298.81927490234375 422.58294677734375 298.51678466796875 421.6662292480469 297.8865051269531 C 420.8068542480469 294.6084899902344 419.36224365234375 294.2569274902344 417.6630554199219 294.88916015625 C 415.8557434082031 294.09161376953125 414.1390686035156 294.2862243652344 412.4011535644531 294.5690002441406 C 410.65875244140625 294.7104797363281 408.79693603515625 294.50579833984375 407.0398864746094 293.48516845703125 C 404.8947448730469 292.80078125 402.6147766113281 292.3709411621094 401.06060791015625 290.22943115234375 C 398.8434143066406 288.9048156738281 396.7320556640625 287.511962890625 394.75555419921875 286.1363525390625 C 393.1396179199219 284.74700927734375 391.4364929199219 283.47412109375 389.0235290527344 282.6145324707031 C 387.54962158203125 281.5931091308594 385.8949279785156 280.4319763183594 383.9609375 279.7015686035156 C 382.1806640625 278.4409484863281 380.3802795410156 277.623046875 378.9971923828125 275.8314208984375 C 377.2375793457031 274.38592529296875 375.3625793457031 273.50103759765625 373.2498779296875 273.16534423828125 C 371.34332275390625 272.1915588378906 369.5185241699219 271.31939697265625 367.7767639160156 270.2780456542969 C 365.8740234375 269.3522644042969 364.1072692871094 268.48162841796875 365.0572204589844 268.6101379394531" stroke-width="0.0" fill="rgb(247, 185, 103)" opacity="0.99998987" stroke="rgb(40, 81, 52)" stroke-opacity="0.21538487" stroke-linecap="round" stroke-linejoin="round"/>
    <path d="M 304.8826904296875 101.85761260986328 C 305.34002685546875 102.97110748291016 305.8925476074219 103.9584732055664 306.6051330566406 104.47846221923828 C 307.6446838378906 104.60992431640625 309.048828125 104.41826629638672 310.7850341796875 104.11371612548828 C 312.61083984375 104.03504180908203 314.2484130859375 104.25335693359375 315.46014404296875 104.67435455322266 C 316.0891418457031 105.4862060546875 316.2125244140625 106.51666259765625 316.1143798828125 107.21317291259766 C 315.9120178222656 107.41500854492188 315.7595520019531 107.15320587158203 315.718017578125 106.52056884765625 C 315.9389953613281 105.68524932861328 316.6552429199219 105.10079956054688 317.869873046875 104.93865966796875 C 319.4189758300781 105.34088897705078 321.1055603027344 106.20225524902344 322.7941589355469 107.31314086914062 C 324.36553955078125 108.5172348022461 325.711669921875 109.56376647949219 326.6519775390625 110.5804443359375 C 327.2257385253906 111.55573272705078 327.63250732421875 112.45550537109375 327.9621276855469 113.2847900390625 C 328.33856201171875 114.1517562866211 328.88287353515625 114.9710464477539 329.2766418457031 115.91397857666016 C 329.6155090332031 116.92874908447266 329.96966552734375 118.10614776611328 330.3941345214844 119.16168212890625 C 330.60870361328125 120.02277374267578 330.7371826171875 120.69410705566406 330.763671875 121.49232482910156 C 330.73876953125 122.40340423583984 330.6531066894531 123.45208740234375 330.5913391113281 124.75294494628906 C 330.2818908691406 126.2287368774414 329.6824645996094 127.7923355102539 329.1881408691406 129.3881072998047 C 328.6901550292969 130.90200805664062 328.45257568359375 132.2773895263672 328.6063537597656 133.43711853027344 C 328.7189025878906 134.30184936523438 328.5960388183594 134.8035430908203 328.1769104003906 135.15447998046875 C 327.522705078125 135.46714782714844 326.7142028808594 135.7263641357422 325.80401611328125 136.0430908203125 C 324.78607177734375 136.42420959472656 323.6940002441406 136.80369567871094 322.5093994140625 137.1578369140625 C 321.2690734863281 137.4918212890625 320.06634521484375 137.88343811035156 318.97564697265625 138.31576538085938 C 317.9971923828125 138.6871795654297 317.114990234375 138.9860382080078 316.3211975097656 139.22842407226562 C 315.5548400878906 139.4872589111328 314.7447814941406 139.7238311767578 313.9029846191406 140.02581787109375 C 312.94439697265625 140.39369201660156 311.8721618652344 140.76153564453125 310.68487548828125 141.06993103027344 C 309.372314453125 141.42279052734375 308.0100402832031 141.82530212402344 306.61370849609375 142.2349853515625 C 305.2614440917969 142.6089324951172 303.9747314453125 142.90354919433594 302.78570556640625 143.03378295898438 C 301.758544921875 142.99745178222656 300.936279296875 142.8645477294922 300.2566833496094 142.57350158691406 C 299.7457580566406 142.08258056640625 299.3035888671875 141.41156005859375 298.8538818359375 140.6382598876953 C 298.3529357910156 139.78451538085938 297.6727600097656 138.8148956298828 296.93487548828125 137.7259063720703 C 296.18646240234375 136.515869140625 295.46209716796875 135.27476501464844 294.7334289550781 134.0098419189453 C 294.0755310058594 132.69297790527344 293.53436279296875 131.38963317871094 293.02081298828125 130.17752075195312 C 292.5831298828125 129.0758056640625 292.2418212890625 128.102783203125 291.95916748046875 127.24038696289062 C 291.8453063964844 126.47166442871094 291.75274658203125 125.75560760498047 291.6476135253906 125.05929565429688 C 291.55389404296875 124.41140747070312 291.4560546875 123.7781982421875 291.38580322265625 123.12528991699219 C 291.3909912109375 122.41210174560547 291.4967041015625 121.62003326416016 291.52301025390625 120.7602767944336 C 291.5806579589844 119.74212646484375 291.7818603515625 118.5289306640625 292.08160400390625 117.122802734375 C 292.47186279296875 115.63375854492188 293.0583801269531 114.08353424072266 293.8291931152344 112.45361328125 C 294.7608642578125 110.92650604248047 295.7708740234375 109.5763931274414 296.77520751953125 108.3792495727539 C 297.7819519042969 107.38282012939453 298.8435974121094 106.4926986694336 299.9451599121094 105.68565368652344 C 300.9709167480469 104.89984130859375 302.0151062011719 104.24476623535156 304.8826904296875 101.85761260986328" stroke-width="0.0" fill="rgb(140, 69, 26)" opacity="1.0" stroke="rgb(198, 26, 229)" stroke-opacity="0.54831547" stroke-linecap="round" stroke-linejoin="round"/>
    <path d="M 125.89672088623047 331.783935546875 C 126.76275634765625 332.2117614746094 127.65421295166016 332.6119689941406 128.64797973632812 333.1109924316406 C 129.71214294433594 333.7109375 130.8731231689453 334.2918701171875 132.25433349609375 334.9320068359375 C 133.9296112060547 335.5422668457031 135.7644805908203 335.8354797363281 137.6571807861328 335.762939453125 C 139.57073974609375 335.7415466308594 141.49034118652344 335.69439697265625 143.298828125 335.6888122558594 C 144.94810485839844 335.9234619140625 146.2863006591797 336.5745849609375 147.26962280273438 337.7486572265625 C 147.79318237304688 339.3973693847656 147.92872619628906 341.32086181640625 147.8517608642578 343.3758850097656 C 147.72999572753906 345.4667663574219 147.6337890625 347.4122314453125 147.6058807373047 349.2026672363281 C 147.60826110839844 350.8344421386719 147.60110473632812 352.2878112792969 147.62228393554688 353.64056396484375 C 147.72586059570312 354.97967529296875 147.87841796875 356.3395080566406 147.95654296875 357.81494140625 C 147.93362426757812 359.4169921875 147.8081817626953 361.1021728515625 147.4626922607422 362.7763671875 C 146.70594787597656 364.2880554199219 145.4779052734375 365.449951171875 143.8468017578125 366.0859069824219 C 141.87057495117188 366.0770568847656 139.73330688476562 365.4908142089844 137.50132751464844 364.2762145996094 C 135.41744995117188 362.36383056640625 133.47744750976562 360.0057373046875 131.54212951660156 357.4620056152344 C 129.76893615722656 354.8788757324219 128.01564025878906 352.4643859863281 126.36939239501953 350.3481750488281 C 124.98052978515625 348.55828857421875 123.80559539794922 347.245849609375 122.78315734863281 346.6064147949219 C 121.93547058105469 346.65142822265625 121.18584442138672 347.3531799316406 120.51912689208984 348.56866455078125 C 119.8707046508789 350.1683044433594 119.2528076171875 351.94384765625 118.74707794189453 353.79339599609375 C 118.40345764160156 355.55908203125 118.32608032226562 357.1611633300781 118.51287078857422 358.5787048339844 C 119.03052520751953 359.7507629394531 119.92259216308594 360.71533203125 121.05366516113281 361.54681396484375 C 122.27903747558594 362.4374694824219 123.52959442138672 363.4150695800781 124.75261688232422 364.47467041015625 C 125.90581512451172 365.58209228515625 127.00875091552734 366.6056213378906 128.10272216796875 367.4560852050781 C 129.21701049804688 368.1136474609375 130.41433715820312 368.5754699707031 131.841796875 368.9251708984375 C 133.39645385742188 369.2034912109375 135.11627197265625 369.35882568359375 137.03062438964844 369.5677795410156 C 138.95950317382812 370.03216552734375 140.77700805664062 370.715087890625 142.39625549316406 371.4535217285156 C 143.6835479736328 371.9888610839844 144.59283447265625 372.1763000488281 145.17263793945312 371.9017028808594 C 145.48822021484375 371.1510925292969 145.6659698486328 369.95343017578125 145.93307495117188 368.4378662109375 C 146.42019653320312 366.7579040527344 147.0522003173828 365.1132507324219 147.85540771484375 363.7144775390625 C 148.86004638671875 362.714111328125 149.99232482910156 362.21490478515625 151.0664825439453 362.3152770996094 C 151.9110107421875 363.05145263671875 152.46429443359375 364.3000183105469 152.76832580566406 365.9430847167969 C 152.9401092529297 367.90875244140625 153.1409912109375 370.05169677734375 153.517578125 372.2872619628906 C 154.09637451171875 374.56158447265625 154.75758361816406 376.8365173339844 155.34727478027344 379.0619201660156 C 155.67723083496094 381.1685791015625 155.7367706298828 382.9991149902344 155.57916259765625 384.41619873046875 C 155.05221557617188 385.3396911621094 154.1915740966797 385.6072082519531 153.13421630859375 385.2801818847656 C 152.02809143066406 384.42791748046875 150.93331909179688 383.25732421875 149.93756103515625 382.0906982421875 C 149.0743865966797 381.15716552734375 148.29794311523438 380.6105651855469 147.5583038330078 380.49176025390625 C 146.8228302001953 380.6961364746094 146.01817321777344 381.0666198730469 145.0446319580078 381.4245910644531 C 143.8195343017578 381.7613525390625 142.34986877441406 382.1083068847656 140.6503448486328 382.3448486328125 C 138.71302795410156 382.3011169433594 136.6576690673828 382.069580078125 134.5094757080078 381.78424072265625 C 132.32569885253906 381.43499755859375 130.25367736816406 380.91558837890625 128.3968963623047 380.2767639160156 C 126.81957244873047 379.6296081542969 125.55706024169922 379.17047119140625 124.56221771240234 379.0019836425781 C 123.70687866210938 379.09954833984375 122.95294189453125 379.41973876953125 122.145751953125 379.8644104003906 C 121.18859100341797 380.31585693359375 120.19538879394531 380.5762939453125 119.1671142578125 380.5028381347656 C 118.1417465209961 379.9448547363281 117.15814971923828 378.8996887207031 116.38621520996094 377.400634765625 C 116.01256561279297 375.59979248046875 115.84613800048828 373.69903564453125 115.66191864013672 371.7625732421875 C 115.4142837524414 369.81341552734375 115.17337799072266 367.8546142578125 114.94072723388672 365.8890380859375 C 114.75007629394531 363.92681884765625 114.42283630371094 361.94500732421875 113.8734359741211 359.9871826171875 C 113.34423065185547 357.7944641113281 113.13725280761719 355.5410461425781 113.11053466796875 353.35223388671875 C 113.06563568115234 351.2838439941406 112.90502166748047 349.5238952636719 112.4482421875 348.170166015625 C 111.56446075439453 347.4279479980469 110.31732177734375 347.2431945800781 108.7703857421875 347.3972473144531 C 106.88644409179688 347.66729736328125 104.77338409423828 347.6516418457031 102.58682250976562 347.4169006347656 C 100.38304138183594 347.5110778808594 98.110595703125 348.1291198730469 95.70057678222656 349.0674133300781 C 93.25444793701172 350.01544189453125 90.94327545166016 350.97491455078125 88.71371459960938 351.8963623046875 C 86.68517303466797 352.60894775390625 85.45259094238281 353.6539306640625 85.1269302368164 354.8595275878906 C 85.66606903076172 355.6717529296875 86.97322082519531 355.9176330566406 88.87610626220703 355.59185791015625 C 91.0191879272461 354.8160095214844 93.35028839111328 353.7985534667969 95.81803894042969 352.7549133300781 C 98.23491668701172 351.6978759765625 100.42072296142578 350.34307861328125 102.20750427246094 348.5879211425781 C 103.72148895263672 346.5557556152344 105.36424255371094 344.736083984375 107.28720092773438 343.21282958984375 C 109.32333374023438 342.0208435058594 111.42571258544922 340.90521240234375 113.46581268310547 339.7193603515625 C 115.4107666015625 338.55389404296875 117.23239135742188 337.3737487792969 119.02208709716797 336.1783752441406 C 120.8837661743164 335.15252685546875 122.78646087646484 334.195556640625 125.89672088623047 331.783935546875" stroke-width="0.0" fill="rgb(145, 116, 173)" opacity="0.99993575" stroke="rgb(248, 58, 203)" stroke-opacity="0.41993797" stroke-linecap="round" stroke-linejoin="round"/>
    <path d="M 219.0 128.0 C 220.0 129.0 221.0 130.0 222.0 131.0 C 223.0 132.0 224.0 133.0 225.0 134.0 C 225.0 135.0 226.0 136.0 226.0 137.0 C 227.0 138.0 227.0 139.0 227.0 140.0 C 227.0 141.0 227.0 142.0 227.0 143.0 C 228.0 144.0 228.0 145.0 228.0 146.0 C 227.0 147.0 227.0 148.0 227.0 149.0 C 227.0 150.0 226.0 151.0 226.0 152.0 C 225.0 153.0 225.0 154.0 224.0 155.0 C 224.0 156.0 223.0 157.0 222.0 158.0 C 221.0 159.0 220.0 160.0 220.0 161.0 C 220.0 162.0 219.0 162.0 218.0 163.0 C 217.0 163.0 216.0 163.0 215.0 164.0 C 214.0 164.0 213.0 164.0 212.0 164.0 C 211.0 164.0 210.0 165.0 209.0 165.0 C 208.0 165.0 207.0 165.0 206.0 165.0 C 205.0 165.0 204.0 166.0 203.0 166.0 C 202.0 166.0 202.0 165.0 202.0 164.0 C 201.0 163.0 200.0 163.0 199.0 163.0 C 198.0 162.0 197.0 162.0 196.0 162.0 C 195.0 161.0 194.0 160.0 193.0 159.0 C 192.0 158.0 191.0 157.0 190.0 156.0 C 189.0 155.0 189.0 154.0 189.0 153.0 C 188.0 152.0 188.0 151.0 188.0 150.0 C 187.0 149.0 187.0 148.0 187.0 147.0 C 187.0 146.0 188.0 146.0 189.0 146.0 C 190.0 146.0 191.0 147.0 192.0 147.0 C 193.0 147.0 194.0 147.0 195.0 148.0 C 196.0 148.0 197.0 148.0 198.0 148.0 C 199.0 148.0 200.0 148.0 201.0 148.0 C 202.0 147.0 203.0 146.0 204.0 145.0 C 205.0 144.0 205.0 143.0 206.0 143.0 C 207.0 143.0 208.0 143.0 209.0 144.0 C 210.0 143.0 211.0 143.0 212.0 142.0 C 212.0 141.0 212.0 140.0 211.0 139.0 C 210.0 138.0 210.0 137.0 210.0 136.0 C 211.0 135.0 212.0 134.0 213.0 133.0 C 214.0 132.0 214.0 131.0 215.0 130.0 C 216.0 129.0 217.0 128.0 219.0 128.0" stroke-width="0.0" fill="rgb(141, 71, 27)" opacity="1.0" stroke="rgb(145, 240, 2)" stroke-opacity="0.20760542" stroke-linecap="round" stroke-linejoin="round"/>
    <path d="M 226.0 198.0 C 227.0 199.0 228.0 199.0 229.0 200.0 C 230.0 200.0 231.0 200.0 232.0 201.0 C 233.0 201.0 234.0 201.0 235.0 202.0 C 236.0 202.0 237.0 202.0 238.0 202.0 C 239.0 202.0 240.0 203.0 241.0 203.0 C 242.0 203.0 243.0 203.0 244.0 203.0 C 245.0 203.0 246.0 203.0 247.0 204.0 C 248.0 204.0 249.0 204.0 250.0 204.0 C 251.0 204.0 252.0 203.0 253.0 203.0 C 254.0 203.0 255.0 203.0 256.0 203.0 C 257.0 203.0 258.0 203.0 259.0 202.0 C 260.0 202.0 261.0 202.0 261.0 203.0 C 261.0 204.0 261.0 205.0 260.0 206.0 C 260.0 207.0 259.0 208.0 259.0 209.0 C 258.0 210.0 258.0 211.0 258.0 212.0 C 257.0 213.0 257.0 214.0 257.0 215.0 C 257.0 216.0 257.0 217.0 256.0 218.0 C 256.0 219.0 256.0 220.0 256.0 221.0 C 256.0 222.0 256.0 223.0 256.0 224.0 C 256.0 225.0 256.0 226.0 256.0 227.0 C 255.0 228.0 254.0 228.0 253.0 228.0 C 252.0 228.0 251.0 228.0 250.0 227.0 C 249.0 227.0 248.0 227.0 247.0 227.0 C 246.0 227.0 245.0 226.0 244.0 226.0 C 243.0 226.0 242.0 225.0 241.0 225.0 C 240.0 224.0 239.0 224.0 238.0 223.0 C 237.0 223.0 236.0 222.0 235.0 221.0 C 234.0 220.0 233.0 219.0 232.0 218.0 C 231.0 217.0 231.0 216.0 230.0 215.0 C 229.0 214.0 229.0 213.0 228.0 212.0 C 228.0 211.0 227.0 210.0 227.0 209.0 C 226.0 208.0 226.0 207.0 226.0 206.0 C 225.0 205.0 225.0 204.0 225.0 203.0 C 225.0 202.0 224.0 201.0 224.0 200.0 C 224.0 199.0 224.0 198.0 226.0 198.0" stroke-width="0.0" fill="rgb(196, 40, 10)" opacity="1.0" stroke="rgb(226, 122, 108)" stroke-opacity="0.83390206" stroke-linecap="round" stroke-linejoin="round"/>
  </g>
</svg>
