<?xml version="1.0" ?>
<svg xmlns="http://www.w3.org/2000/svg" version="1.1" width="474" height="596">
  <defs/>
  <g>
    <path d="M 265.6542053222656 -0.22334325313568115 C 267.00640869140625 -1.0131709575653076 268.2515869140625 -1.9068684577941895 269.3763427734375 -2.76068377494812 C 270.3715515136719 -3.507498025894165 271.24383544921875 -4.074069976806641 272.0352478027344 -4.47695779800415 C 272.6612854003906 -4.736565113067627 273.21099853515625 -4.776181221008301 273.8462829589844 -4.595980167388916 C 274.7375793457031 -4.20139741897583 276.1542053222656 -3.4683756828308105 278.43951416015625 -2.398573160171509 C 281.835693359375 -0.9667112231254578 286.5317687988281 0.7864404916763306 292.79608154296875 2.629302740097046 C 300.7055969238281 4.605160236358643 309.4446716308594 7.428291320800781 318.18603515625 10.897092819213867 C 326.5611572265625 14.4810152053833 334.52545166015625 18.391014099121094 342.3001403808594 22.80276870727539 C 350.31121826171875 27.578699111938477 358.2870178222656 33.0474967956543 366.2884216308594 39.34136962890625 C 374.50006103515625 46.16039276123047 382.6298522949219 53.538658142089844 390.33990478515625 61.42202377319336 C 397.6352844238281 69.4731674194336 404.2664794921875 77.61672973632812 410.41229248046875 85.70201873779297 C 416.21820068359375 93.7056655883789 421.665771484375 101.91984558105469 426.59295654296875 110.21710968017578 C 431.4003601074219 117.89323425292969 434.20953369140625 125.20191955566406 433.3013916015625 133.01699829101562 C 429.8018798828125 141.70465087890625 424.2896423339844 150.43917846679688 417.663330078125 158.89590454101562 C 410.9283142089844 167.06256103515625 403.8165588378906 174.66163635253906 396.25616455078125 181.66481018066406 C 388.6878967285156 188.4827880859375 380.7757568359375 194.70053100585938 372.9771423339844 200.43064880371094 C 365.3737487792969 206.05770874023438 357.20660400390625 211.47666931152344 347.8379211425781 216.83251953125 C 336.6591491699219 221.64109802246094 325.4595947265625 224.76129150390625 316.7944030761719 225.95875549316406 C 313.3503112792969 225.09278869628906 316.1065368652344 222.53135681152344 323.55438232421875 218.20733642578125 C 333.33209228515625 212.09779357910156 342.8637390136719 203.991943359375 351.0683288574219 195.1345672607422 C 357.60791015625 186.7521514892578 362.5488586425781 178.72027587890625 365.94146728515625 170.6339569091797 C 368.748291015625 162.49932861328125 370.46923828125 154.0347900390625 370.8290710449219 145.32859802246094 C 370.4215393066406 136.46380615234375 368.5316162109375 127.4718017578125 365.14007568359375 118.64850616455078 C 360.7439270019531 110.62175750732422 355.5185546875 103.68051147460938 349.8115539550781 98.16128540039062 C 343.9442443847656 94.8826904296875 337.2984619140625 94.5853500366211 329.97265625 96.26616668701172 C 322.06939697265625 98.88935852050781 313.4609680175781 101.47640228271484 304.3436279296875 103.23281860351562 C 295.200927734375 103.0908203125 286.24786376953125 103.91160583496094 278.0003662109375 106.3138656616211 C 270.58941650390625 108.72472381591797 264.3234558105469 110.17707061767578 259.224853515625 109.42926025390625 C 255.39857482910156 106.44837951660156 252.4105224609375 103.9126205444336 249.98944091796875 103.74799346923828 C 248.52674865722656 106.56379699707031 247.3931884765625 110.57837677001953 244.929443359375 114.18379211425781 C 239.3927001953125 115.78997039794922 232.03680419921875 117.52928924560547 223.92384338378906 122.33036804199219 C 215.4591827392578 130.81997680664062 207.5897979736328 140.52757263183594 200.66311645507812 147.9423828125 C 191.83590698242188 145.9616241455078 182.13470458984375 140.9511260986328 172.57252502441406 138.15403747558594 C 165.23512268066406 137.27296447753906 160.78672790527344 137.1151580810547 158.73590087890625 139.0605010986328 C 157.42747497558594 142.91029357910156 154.3943634033203 147.06825256347656 149.6609344482422 151.1157989501953 C 145.72421264648438 156.39602661132812 143.65231323242188 163.3797149658203 143.1461181640625 171.5984649658203 C 143.44915771484375 180.5029296875 145.25794982910156 189.41104125976562 148.95269775390625 198.00863647460938 C 153.56842041015625 206.5955810546875 159.86061096191406 214.4129638671875 167.80087280273438 221.55804443359375 C 177.0341033935547 228.2151641845703 186.93194580078125 233.7255859375 196.85678100585938 237.642333984375 C 205.94515991210938 240.35536193847656 213.33102416992188 241.96395874023438 218.0843963623047 243.00022888183594 C 219.28782653808594 244.1071319580078 217.06475830078125 244.9645538330078 212.042724609375 245.0316619873047 C 205.05686950683594 243.8677520751953 196.8944854736328 241.6884002685547 188.15420532226562 240.2607879638672 C 179.1952362060547 241.01657104492188 170.35572814941406 241.8909454345703 161.83642578125 241.1352081298828 C 153.40663146972656 240.63589477539062 145.23468017578125 240.45556640625 137.2460174560547 239.66958618164062 C 129.28648376464844 238.36854553222656 121.31828308105469 236.72926330566406 113.32457733154297 234.68760681152344 C 105.3174057006836 232.470947265625 97.18859100341797 229.6985321044922 88.8752212524414 226.5133056640625 C 80.35272979736328 223.18382263183594 72.11782836914062 219.31886291503906 64.48983764648438 214.9788360595703 C 57.95591735839844 211.05740356445312 54.17317581176758 205.8053436279297 53.23604965209961 198.46484375 C 53.696632385253906 189.60336303710938 54.62773513793945 180.0513458251953 56.5200309753418 170.4977264404297 C 58.240318298339844 161.46099853515625 59.938655853271484 153.0298309326172 62.33953094482422 145.2351837158203 C 64.6341781616211 137.61318969726562 67.25807189941406 129.75782775878906 70.92354583740234 121.86395263671875 C 74.59203338623047 113.63172149658203 78.59812927246094 105.16702270507812 83.41078186035156 97.17566680908203 C 88.59656524658203 89.27394104003906 93.81848907470703 81.09339904785156 100.23474884033203 73.3552474975586 C 107.08181762695312 65.26142883300781 114.34300994873047 57.22920227050781 122.57940673828125 50.22985076904297 C 130.54486083984375 43.36839294433594 138.5975341796875 37.33930206298828 146.2522430419922 31.679420471191406 C 153.87855529785156 26.91768455505371 162.1804962158203 24.476011276245117 170.9398956298828 23.790761947631836 C 179.94906616210938 23.66954231262207 188.55699157714844 24.683364868164062 196.51971435546875 26.187082290649414 C 203.392333984375 28.391143798828125 209.19570922851562 29.99355125427246 214.32806396484375 29.14068031311035 C 219.10838317871094 29.45608139038086 223.42630004882812 28.88754653930664 227.7411346435547 25.281179428100586 C 233.4432830810547 18.914363861083984 240.842529296875 12.382588386535645 249.3536834716797 7.215425968170166 C 258.2386779785156 2.901036262512207 267.34619140625 -0.8072021007537842 265.6542053222656 -0.22334325313568115" stroke-width="0.0" fill="rgb(64, 38, 30)" opacity="0.9999921" stroke="rgb(249, 57, 121)" stroke-opacity="0.14353259" stroke-linecap="round" stroke-linejoin="round"/>
    <path d="M 314.9554138183594 242.72512817382812 C 337.80279541015625 248.33030700683594 357.58905029296875 258.8269348144531 374.8966979980469 271.4642028808594 C 391.45062255859375 279.2920227050781 402.7937316894531 285.4882507324219 407.3501281738281 290.747802734375 C 404.2826232910156 293.7665710449219 395.9601135253906 294.2522888183594 385.61126708984375 293.14947509765625 C 376.70245361328125 291.8275146484375 373.1019287109375 290.693603515625 377.65631103515625 290.5306701660156 C 390.6474609375 292.12615966796875 407.8628845214844 297.5955810546875 424.3042297363281 308.3747253417969 C 434.5420837402344 323.7515869140625 437.2223815917969 338.7752990722656 432.7656555175781 348.39752197265625 C 423.68426513671875 347.5306091308594 411.1810607910156 338.9356384277344 393.62835693359375 330.55804443359375 C 371.63568115234375 326.28265380859375 350.3596496582031 322.3075256347656 333.4379577636719 322.42333984375 C 323.97601318359375 329.28680419921875 321.9797668457031 342.77239990234375 322.9223937988281 360.333740234375 C 319.21923828125 378.9588317871094 314.0500793457031 398.91046142578125 310.61529541015625 420.3934020996094 C 306.25665283203125 441.9880065917969 299.89813232421875 461.7364196777344 291.79296875 478.3907775878906 C 289.45050048828125 493.3477478027344 292.83990478515625 506.41522216796875 296.4783630371094 516.8408813476562 C 293.2642517089844 524.1854858398438 284.8706970214844 527.6595458984375 272.9344177246094 527.8147583007812 C 259.83087158203125 526.6875610351562 248.0098876953125 526.728759765625 239.7920684814453 532.0906372070312 C 236.7275848388672 546.7294921875 237.96224975585938 562.3464965820312 247.3875274658203 573.0518798828125 C 266.49066162109375 576.6325073242188 289.88507080078125 576.0855712890625 313.17547607421875 572.8640747070312 C 331.71722412109375 568.9835205078125 342.228271484375 568.3985595703125 343.0301208496094 573.6953735351562 C 334.0062561035156 580.8482666015625 317.0093994140625 584.7195434570312 295.24078369140625 584.5784301757812 C 272.10302734375 584.0126953125 251.39857482910156 582.6561889648438 237.2150115966797 575.7657470703125 C 231.7796173095703 561.805908203125 232.63710021972656 542.7285766601562 235.68405151367188 521.7214965820312 C 240.98440551757812 502.06097412109375 244.00845336914062 485.1363525390625 241.99224853515625 472.62396240234375 C 235.3043975830078 464.940185546875 229.2284698486328 463.48040771484375 223.93695068359375 469.6907653808594 C 216.73214721679688 478.618408203125 208.45030212402344 485.9530944824219 199.6006622314453 488.59051513671875 C 192.1454620361328 487.35089111328125 187.9374237060547 484.9464416503906 188.6720428466797 483.3260498046875 C 194.772216796875 484.238037109375 203.69981384277344 489.44879150390625 211.1782989501953 500.9463806152344 C 213.45626831054688 519.0011596679688 214.09947204589844 540.1644287109375 216.57522583007812 560.1116943359375 C 216.04254150390625 574.8583374023438 207.10165405273438 583.4998168945312 190.41822814941406 587.1563720703125 C 170.70065307617188 593.4080810546875 150.3155517578125 597.3402099609375 131.7759246826172 595.3556518554688 C 118.40744018554688 590.176513671875 114.23870849609375 582.5701904296875 119.89315032958984 576.996826171875 C 133.41934204101562 579.83740234375 151.73936462402344 584.2581787109375 171.84579467773438 586.4246215820312 C 190.3382110595703 585.1784057617188 204.46356201171875 579.04150390625 213.14913940429688 568.7725830078125 C 214.67820739746094 556.0321044921875 212.51605224609375 543.0973510742188 207.02503967285156 533.2587890625 C 197.28961181640625 528.9131469726562 185.61181640625 528.6625366210938 173.79832458496094 529.999755859375 C 163.51292419433594 530.0859985351562 156.69564819335938 526.3748779296875 154.95834350585938 518.389404296875 C 159.82916259765625 506.812744140625 165.6023712158203 492.4822692871094 165.2189483642578 475.7579650878906 C 157.37477111816406 457.5152893066406 154.15223693847656 436.6751403808594 153.35479736328125 415.77203369140625 C 146.26385498046875 399.53759765625 133.83694458007812 386.7586364746094 122.23175811767578 374.0425720214844 C 115.60183715820312 360.741943359375 110.81810760498047 351.17041015625 103.86920928955078 349.2423400878906 C 93.78276824951172 353.7080383300781 83.75242614746094 357.7593688964844 76.58010864257812 356.1809387207031 C 75.73448181152344 347.345947265625 81.33924102783203 336.1622619628906 91.70994567871094 325.85906982421875 C 103.27101135253906 318.9584045410156 110.80375671386719 315.0953674316406 112.14588165283203 312.8015441894531 C 107.00765991210938 309.5342102050781 98.06153106689453 303.717041015625 90.67720794677734 295.45367431640625 C 88.86695098876953 285.744140625 94.5599594116211 276.6174011230469 106.79530334472656 268.042236328125 C 122.27151489257812 258.04058837890625 139.65267944335938 249.23046875 156.7517547607422 243.0216827392578 C 170.28611755371094 240.37271118164062 178.68991088867188 243.84298706054688 180.69979858398438 254.06924438476562 C 177.1411590576172 269.4636535644531 171.3982391357422 287.7211608886719 166.19015502929688 306.732421875 C 162.50804138183594 324.9280090332031 160.76930236816406 340.72918701171875 160.39857482910156 353.3017883300781 C 160.89215087890625 362.23773193359375 161.57081604003906 367.4455261230469 161.87086486816406 368.7343444824219 C 161.6138458251953 366.12335205078125 160.84927368164062 359.90399169921875 160.68148803710938 350.7013244628906 C 161.5843963623047 339.30908203125 163.30813598632812 326.39385986328125 165.57803344726562 312.39190673828125 C 168.26629638671875 298.2919616699219 171.42596435546875 284.3975830078125 175.43641662597656 271.2354736328125 C 181.23252868652344 260.0714416503906 190.68931579589844 252.0859375 204.16107177734375 246.80455017089844 C 220.49603271484375 242.98020935058594 237.55020141601562 238.71588134765625 253.84019470214844 236.0869903564453 C 268.3205871582031 238.34683227539062 279.6492614746094 245.48635864257812 288.0730285644531 256.7675476074219 C 294.50494384765625 270.259521484375 300.4293212890625 283.840576171875 306.1429748535156 296.1607360839844 C 310.7756042480469 306.451171875 314.0887145996094 313.3912048339844 316.0059814453125 315.85528564453125 C 316.6138610839844 314.11199951171875 316.7098083496094 310.2312316894531 316.5821533203125 306.2783203125 C 316.5309143066406 304.030029296875 315.8319091796875 303.6854553222656 313.5647888183594 303.36492919921875 C 309.4287414550781 299.7484130859375 303.48577880859375 290.88861083984375 296.0047607421875 276.575439453125 C 287.13470458984375 258.2900390625 278.1965026855469 238.42555236816406 314.9554138183594 242.72512817382812" stroke-width="0.0" fill="rgb(251, 110, 165)" opacity="0.99982977" stroke="rgb(118, 200, 126)" stroke-opacity="0.87374717" stroke-linecap="round" stroke-linejoin="round"/>
    <path d="M 240.0 93.0 C 241.0 93.0 242.0 94.0 243.0 94.0 C 244.0 95.0 245.0 96.0 246.0 96.0 C 247.0 97.0 248.0 98.0 249.0 99.0 C 250.0 100.0 251.0 101.0 251.0 102.0 C 251.0 103.0 250.0 104.0 255.0 107.0 C 261.0 110.0 267.0 110.0 273.0 108.0 C 279.0 106.0 285.0 105.0 291.0 104.0 C 297.0 102.0 303.0 101.0 308.0 104.0 C 314.0 104.0 320.0 105.0 326.0 110.0 C 329.0 116.0 330.0 122.0 329.0 128.0 C 331.0 132.0 337.0 129.0 343.0 127.0 C 345.0 121.0 344.0 115.0 340.0 109.0 C 334.0 104.0 329.0 101.0 331.0 96.0 C 337.0 96.0 342.0 94.0 346.0 97.0 C 351.0 101.0 356.0 105.0 360.0 110.0 C 362.0 116.0 365.0 122.0 367.0 128.0 C 368.0 134.0 369.0 140.0 369.0 146.0 C 369.0 152.0 369.0 158.0 366.0 164.0 C 365.0 170.0 362.0 176.0 358.0 182.0 C 356.0 188.0 351.0 193.0 346.0 198.0 C 340.0 204.0 334.0 209.0 328.0 214.0 C 323.0 216.0 318.0 220.0 315.0 225.0 C 310.0 228.0 304.0 231.0 298.0 234.0 C 292.0 236.0 286.0 238.0 292.0 239.0 C 297.0 241.0 292.0 243.0 292.0 248.0 C 297.0 254.0 301.0 260.0 304.0 265.0 C 307.0 270.0 304.0 267.0 300.0 262.0 C 295.0 259.0 292.0 254.0 288.0 249.0 C 284.0 251.0 278.0 246.0 273.0 242.0 C 267.0 242.0 265.0 238.0 259.0 236.0 C 253.0 235.0 247.0 236.0 241.0 237.0 C 235.0 238.0 229.0 240.0 223.0 241.0 C 225.0 243.0 221.0 245.0 217.0 243.0 C 213.0 241.0 207.0 239.0 201.0 238.0 C 195.0 236.0 189.0 233.0 183.0 230.0 C 178.0 227.0 172.0 224.0 167.0 220.0 C 163.0 216.0 158.0 212.0 155.0 207.0 C 151.0 201.0 149.0 196.0 146.0 190.0 C 145.0 184.0 144.0 178.0 144.0 172.0 C 143.0 166.0 145.0 160.0 148.0 154.0 C 152.0 149.0 156.0 143.0 160.0 139.0 C 157.0 136.0 158.0 130.0 160.0 128.0 C 163.0 134.0 167.0 138.0 173.0 138.0 C 177.0 135.0 183.0 132.0 189.0 130.0 C 191.0 132.0 186.0 138.0 183.0 143.0 C 184.0 148.0 183.0 154.0 185.0 160.0 C 188.0 166.0 194.0 166.0 200.0 165.0 C 196.0 162.0 190.0 157.0 187.0 151.0 C 187.0 145.0 192.0 145.0 198.0 147.0 C 203.0 144.0 209.0 144.0 211.0 139.0 C 213.0 133.0 219.0 129.0 225.0 133.0 C 227.0 139.0 228.0 145.0 227.0 151.0 C 223.0 157.0 223.0 160.0 229.0 158.0 C 235.0 156.0 241.0 154.0 245.0 148.0 C 243.0 142.0 241.0 136.0 235.0 131.0 C 229.0 128.0 223.0 126.0 218.0 124.0 C 212.0 124.0 212.0 122.0 218.0 120.0 C 224.0 118.0 230.0 117.0 236.0 117.0 C 242.0 115.0 247.0 110.0 244.0 105.0 C 241.0 99.0 239.0 93.0 240.0 93.0" stroke-width="0.0" fill="rgb(250, 188, 107)" opacity="1.0" stroke="rgb(18, 17, 225)" stroke-opacity="0.6161581" stroke-linecap="round" stroke-linejoin="round"/>
    <path d="M 178.0 238.0 C 179.0 238.0 180.0 238.0 180.0 239.0 C 180.0 240.0 181.0 241.0 182.0 241.0 C 183.0 241.0 184.0 241.0 197.0 242.0 C 196.0 249.0 194.0 259.0 193.0 273.0 C 192.0 285.0 186.0 297.0 176.0 302.0 C 168.0 316.0 166.0 311.0 166.0 302.0 C 164.0 314.0 159.0 327.0 160.0 338.0 C 154.0 348.0 156.0 357.0 152.0 369.0 C 154.0 384.0 154.0 394.0 160.0 382.0 C 175.0 378.0 188.0 380.0 203.0 379.0 C 218.0 379.0 233.0 378.0 248.0 378.0 C 263.0 378.0 278.0 379.0 293.0 379.0 C 306.0 376.0 319.0 377.0 320.0 362.0 C 321.0 355.0 323.0 370.0 318.0 380.0 C 315.0 393.0 313.0 408.0 309.0 423.0 C 305.0 438.0 302.0 453.0 299.0 468.0 C 291.0 478.0 287.0 472.0 284.0 480.0 C 286.0 485.0 287.0 491.0 292.0 504.0 C 304.0 513.0 293.0 520.0 299.0 532.0 C 313.0 540.0 328.0 547.0 341.0 558.0 C 341.0 573.0 340.0 570.0 336.0 555.0 C 321.0 548.0 307.0 542.0 295.0 534.0 C 286.0 527.0 272.0 532.0 257.0 533.0 C 243.0 530.0 238.0 541.0 237.0 556.0 C 238.0 569.0 250.0 577.0 265.0 580.0 C 269.0 582.0 254.0 580.0 239.0 577.0 C 233.0 563.0 234.0 548.0 234.0 533.0 C 230.0 523.0 230.0 510.0 241.0 499.0 C 243.0 484.0 239.0 469.0 229.0 465.0 C 223.0 474.0 214.0 483.0 212.0 498.0 C 209.0 497.0 206.0 508.0 220.0 513.0 C 213.0 525.0 213.0 540.0 215.0 555.0 C 217.0 570.0 213.0 584.0 198.0 586.0 C 183.0 588.0 168.0 593.0 154.0 595.0 C 139.0 595.0 125.0 592.0 118.0 580.0 C 127.0 566.0 139.0 555.0 151.0 544.0 C 149.0 553.0 138.0 562.0 124.0 572.0 C 122.0 586.0 136.0 592.0 151.0 591.0 C 166.0 590.0 181.0 585.0 196.0 582.0 C 211.0 581.0 214.0 566.0 212.0 551.0 C 209.0 536.0 201.0 531.0 188.0 536.0 C 173.0 534.0 161.0 531.0 167.0 539.0 C 155.0 538.0 158.0 523.0 153.0 511.0 C 162.0 499.0 163.0 492.0 166.0 477.0 C 158.0 465.0 156.0 450.0 155.0 435.0 C 154.0 420.0 153.0 405.0 144.0 400.0 C 130.0 394.0 117.0 381.0 114.0 366.0 C 110.0 353.0 97.0 351.0 88.0 362.0 C 75.0 367.0 63.0 381.0 58.0 395.0 C 49.0 403.0 43.0 389.0 33.0 399.0 C 22.0 394.0 10.0 390.0 13.0 375.0 C 0.0 374.0 6.0 360.0 17.0 345.0 C 17.0 330.0 25.0 320.0 40.0 330.0 C 49.0 321.0 62.0 314.0 77.0 299.0 C 91.0 289.0 100.0 300.0 111.0 300.0 C 118.0 315.0 117.0 327.0 118.0 340.0 C 130.0 335.0 145.0 327.0 151.0 322.0 C 156.0 314.0 159.0 300.0 157.0 288.0 C 161.0 276.0 164.0 267.0 169.0 256.0 C 177.0 246.0 177.0 238.0 178.0 238.0" stroke-width="0.0" fill="rgb(248, 200, 106)" opacity="1.0" stroke="rgb(207, 9, 130)" stroke-opacity="0.32220793" stroke-linecap="round" stroke-linejoin="round"/>
  </g>
</svg>
