<?xml version="1.0" ?>
<svg xmlns="http://www.w3.org/2000/svg" version="1.1" width="474" height="596">
  <defs/>
  <g>
    <path d="M 266.0 0.0 C 267.0 0.0 268.0 0.0 269.0 0.0 C 270.0 0.0 271.0 0.0 272.0 0.0 C 273.0 0.0 274.0 0.0 275.0 0.0 C 276.0 0.0 277.0 0.0 278.0 0.0 C 279.0 0.0 286.0 0.0 294.0 3.0 C 302.0 5.0 310.0 8.0 318.0 11.0 C 326.0 15.0 334.0 19.0 342.0 23.0 C 350.0 28.0 358.0 33.0 366.0 40.0 C 374.0 46.0 382.0 54.0 390.0 62.0 C 397.0 70.0 404.0 78.0 410.0 86.0 C 415.0 94.0 421.0 102.0 426.0 110.0 C 430.0 118.0 433.0 126.0 431.0 134.0 C 428.0 142.0 423.0 150.0 417.0 158.0 C 410.0 166.0 403.0 174.0 396.0 180.0 C 388.0 187.0 380.0 194.0 372.0 200.0 C 364.0 205.0 356.0 211.0 348.0 215.0 C 340.0 219.0 332.0 221.0 324.0 223.0 C 316.0 225.0 320.0 220.0 328.0 215.0 C 336.0 209.0 344.0 202.0 351.0 194.0 C 358.0 186.0 362.0 178.0 366.0 170.0 C 369.0 162.0 370.0 154.0 371.0 146.0 C 370.0 138.0 369.0 130.0 367.0 122.0 C 363.0 114.0 358.0 106.0 350.0 98.0 C 342.0 93.0 334.0 94.0 326.0 96.0 C 318.0 97.0 312.0 100.0 305.0 99.0 C 297.0 101.0 289.0 103.0 281.0 104.0 C 273.0 106.0 265.0 108.0 257.0 107.0 C 250.0 99.0 242.0 93.0 238.0 95.0 C 243.0 103.0 246.0 111.0 240.0 115.0 C 232.0 116.0 224.0 118.0 216.0 120.0 C 208.0 122.0 200.0 125.0 192.0 128.0 C 184.0 131.0 176.0 134.0 168.0 138.0 C 163.0 132.0 159.0 124.0 157.0 130.0 C 157.0 138.0 155.0 146.0 147.0 151.0 C 144.0 159.0 142.0 167.0 142.0 175.0 C 143.0 183.0 145.0 191.0 149.0 199.0 C 154.0 207.0 160.0 214.0 167.0 221.0 C 175.0 227.0 183.0 232.0 191.0 236.0 C 199.0 239.0 207.0 241.0 215.0 242.0 C 223.0 243.0 217.0 245.0 209.0 244.0 C 201.0 242.0 193.0 239.0 185.0 239.0 C 177.0 240.0 169.0 242.0 162.0 240.0 C 154.0 240.0 146.0 239.0 138.0 239.0 C 130.0 237.0 122.0 236.0 114.0 234.0 C 106.0 232.0 98.0 229.0 90.0 226.0 C 82.0 223.0 74.0 219.0 66.0 215.0 C 58.0 209.0 54.0 201.0 54.0 193.0 C 54.0 185.0 55.0 177.0 57.0 169.0 C 58.0 161.0 60.0 153.0 62.0 145.0 C 65.0 137.0 68.0 129.0 71.0 121.0 C 75.0 113.0 79.0 105.0 83.0 97.0 C 88.0 89.0 94.0 81.0 100.0 73.0 C 107.0 65.0 115.0 57.0 123.0 50.0 C 131.0 43.0 139.0 37.0 147.0 31.0 C 155.0 27.0 163.0 25.0 171.0 24.0 C 179.0 24.0 187.0 25.0 195.0 26.0 C 203.0 28.0 211.0 31.0 215.0 27.0 C 220.0 32.0 221.0 28.0 227.0 26.0 C 234.0 19.0 242.0 12.0 250.0 7.0 C 258.0 3.0 265.0 0.0 266.0 0.0" stroke-width="0.0" fill="rgb(64, 38, 30)" opacity="1.0" stroke="rgb(249, 57, 121)" stroke-opacity="0.14353259" stroke-linecap="round" stroke-linejoin="round"/>
    <path d="M 318.0 244.0 C 337.0 250.0 356.0 258.0 372.0 270.0 C 391.0 279.0 410.0 293.0 429.0 289.0 C 422.0 294.0 403.0 291.0 384.0 279.0 C 365.0 272.0 359.0 291.0 351.0 310.0 C 362.0 320.0 381.0 324.0 400.0 326.0 C 418.0 340.0 435.0 353.0 443.0 359.0 C 427.0 348.0 408.0 337.0 389.0 329.0 C 370.0 326.0 351.0 322.0 334.0 323.0 C 324.0 327.0 321.0 346.0 323.0 365.0 C 318.0 380.0 314.0 398.0 311.0 417.0 C 306.0 436.0 301.0 455.0 294.0 472.0 C 288.0 489.0 290.0 505.0 304.0 515.0 C 291.0 527.0 288.0 524.0 272.0 524.0 C 256.0 528.0 244.0 519.0 239.0 535.0 C 237.0 554.0 239.0 573.0 258.0 578.0 C 277.0 581.0 296.0 581.0 315.0 580.0 C 334.0 576.0 338.0 558.0 342.0 571.0 C 325.0 581.0 306.0 583.0 287.0 583.0 C 268.0 582.0 249.0 580.0 234.0 568.0 C 234.0 549.0 235.0 530.0 226.0 516.0 C 239.0 509.0 242.0 494.0 243.0 475.0 C 233.0 460.0 226.0 464.0 215.0 477.0 C 212.0 496.0 209.0 497.0 211.0 478.0 C 195.0 475.0 176.0 473.0 169.0 485.0 C 168.0 504.0 184.0 511.0 203.0 510.0 C 220.0 515.0 212.0 531.0 215.0 550.0 C 217.0 569.0 210.0 585.0 191.0 586.0 C 172.0 592.0 154.0 595.0 135.0 595.0 C 118.0 586.0 125.0 568.0 121.0 578.0 C 133.0 591.0 152.0 592.0 171.0 588.0 C 190.0 583.0 209.0 582.0 213.0 565.0 C 212.0 546.0 209.0 527.0 198.0 527.0 C 189.0 525.0 181.0 531.0 184.0 519.0 C 178.0 526.0 164.0 523.0 158.0 523.0 C 157.0 508.0 166.0 493.0 165.0 474.0 C 157.0 458.0 155.0 439.0 153.0 420.0 C 152.0 401.0 136.0 396.0 118.0 383.0 C 115.0 364.0 114.0 345.0 97.0 351.0 C 79.0 358.0 76.0 365.0 71.0 368.0 C 81.0 353.0 92.0 350.0 111.0 340.0 C 129.0 330.0 123.0 317.0 120.0 308.0 C 119.0 292.0 106.0 281.0 97.0 279.0 C 103.0 284.0 92.0 289.0 102.0 272.0 C 121.0 259.0 140.0 249.0 159.0 242.0 C 168.0 246.0 166.0 254.0 159.0 261.0 C 152.0 272.0 154.0 291.0 151.0 309.0 C 151.0 321.0 151.0 338.0 156.0 355.0 C 158.0 369.0 164.0 379.0 158.0 375.0 C 174.0 374.0 160.0 366.0 163.0 347.0 C 165.0 332.0 170.0 333.0 176.0 315.0 C 181.0 303.0 192.0 298.0 192.0 287.0 C 196.0 274.0 201.0 262.0 205.0 255.0 C 215.0 247.0 232.0 255.0 251.0 251.0 C 258.0 260.0 261.0 259.0 271.0 267.0 C 275.0 280.0 281.0 296.0 295.0 302.0 C 297.0 312.0 307.0 313.0 315.0 332.0 C 320.0 331.0 318.0 312.0 311.0 294.0 C 316.0 298.0 326.0 315.0 330.0 307.0 C 321.0 300.0 317.0 283.0 312.0 266.0 C 301.0 251.0 303.0 241.0 318.0 244.0" stroke-width="0.0" fill="rgb(251, 110, 165)" opacity="1.0" stroke="rgb(118, 200, 126)" stroke-opacity="0.87374717" stroke-linecap="round" stroke-linejoin="round"/>
  </g>
</svg>
