<?xml version="1.0" ?>
<svg xmlns="http://www.w3.org/2000/svg" version="1.1" width="1047" height="584">
  <defs/>
  <g>
    <path d="M 797.0 213.0 C 798.0 213.0 799.0 213.0 800.0 213.0 C 801.0 213.0 802.0 213.0 803.0 213.0 C 804.0 213.0 805.0 213.0 811.0 213.0 C 828.0 224.0 841.0 241.0 836.0 254.0 C 832.0 271.0 839.0 288.0 850.0 305.0 C 864.0 322.0 880.0 337.0 897.0 350.0 C 914.0 361.0 931.0 361.0 948.0 349.0 C 962.0 332.0 976.0 315.0 992.0 302.0 C 1008.0 317.0 1025.0 319.0 1042.0 311.0 C 1046.0 321.0 1046.0 338.0 1046.0 355.0 C 1046.0 372.0 1046.0 389.0 1046.0 406.0 C 1046.0 423.0 1046.0 440.0 1046.0 457.0 C 1046.0 474.0 1046.0 491.0 1046.0 508.0 C 1046.0 525.0 1046.0 542.0 1046.0 559.0 C 1046.0 576.0 1036.0 583.0 1019.0 583.0 C 1002.0 583.0 985.0 583.0 968.0 583.0 C 951.0 583.0 934.0 583.0 917.0 583.0 C 900.0 583.0 883.0 583.0 866.0 583.0 C 849.0 583.0 832.0 583.0 815.0 583.0 C 798.0 583.0 781.0 583.0 764.0 583.0 C 747.0 583.0 730.0 583.0 713.0 583.0 C 696.0 583.0 679.0 583.0 662.0 583.0 C 645.0 583.0 628.0 583.0 611.0 583.0 C 594.0 583.0 577.0 583.0 560.0 583.0 C 543.0 583.0 526.0 583.0 509.0 583.0 C 492.0 583.0 475.0 583.0 458.0 583.0 C 441.0 583.0 424.0 583.0 407.0 583.0 C 390.0 583.0 373.0 583.0 356.0 583.0 C 339.0 583.0 322.0 583.0 305.0 583.0 C 288.0 583.0 271.0 583.0 254.0 583.0 C 237.0 583.0 220.0 583.0 203.0 583.0 C 186.0 583.0 169.0 583.0 152.0 583.0 C 135.0 583.0 118.0 583.0 101.0 583.0 C 84.0 583.0 67.0 583.0 50.0 583.0 C 33.0 583.0 16.0 583.0 0.0 582.0 C 0.0 565.0 0.0 548.0 0.0 531.0 C 0.0 514.0 0.0 497.0 0.0 480.0 C 0.0 463.0 0.0 446.0 0.0 429.0 C 0.0 412.0 0.0 395.0 0.0 378.0 C 0.0 361.0 0.0 344.0 0.0 327.0 C 0.0 310.0 0.0 293.0 17.0 289.0 C 33.0 273.0 49.0 268.0 66.0 260.0 C 78.0 243.0 93.0 231.0 110.0 234.0 C 127.0 248.0 144.0 253.0 161.0 250.0 C 178.0 256.0 189.0 273.0 204.0 287.0 C 221.0 290.0 237.0 303.0 254.0 306.0 C 271.0 305.0 288.0 303.0 305.0 300.0 C 322.0 297.0 339.0 294.0 356.0 290.0 C 373.0 287.0 390.0 283.0 407.0 279.0 C 424.0 277.0 441.0 281.0 458.0 281.0 C 475.0 273.0 492.0 268.0 509.0 272.0 C 523.0 288.0 539.0 301.0 556.0 303.0 C 557.0 315.0 556.0 332.0 566.0 349.0 C 583.0 362.0 600.0 366.0 617.0 364.0 C 634.0 359.0 651.0 351.0 668.0 341.0 C 685.0 329.0 702.0 317.0 719.0 303.0 C 736.0 288.0 746.0 271.0 742.0 254.0 C 725.0 246.0 708.0 245.0 711.0 235.0 C 728.0 231.0 745.0 233.0 762.0 232.0 C 779.0 221.0 796.0 213.0 797.0 213.0" stroke-width="0.0" fill="rgb(165, 83, 156)" opacity="1.0" stroke="rgb(67, 101, 93)" stroke-opacity="0.60733277" stroke-linecap="round" stroke-linejoin="round"/>
    <path d="M 14.0 0.0 C 36.0 0.0 58.0 0.0 80.0 0.0 C 102.0 0.0 124.0 0.0 146.0 0.0 C 168.0 0.0 190.0 0.0 212.0 0.0 C 234.0 0.0 256.0 0.0 278.0 0.0 C 300.0 0.0 322.0 0.0 344.0 0.0 C 366.0 0.0 388.0 0.0 410.0 0.0 C 432.0 0.0 454.0 0.0 476.0 0.0 C 498.0 0.0 520.0 0.0 542.0 0.0 C 564.0 0.0 586.0 0.0 608.0 0.0 C 630.0 0.0 652.0 0.0 674.0 0.0 C 696.0 0.0 718.0 0.0 740.0 0.0 C 762.0 0.0 784.0 0.0 806.0 0.0 C 828.0 0.0 850.0 0.0 872.0 0.0 C 894.0 0.0 916.0 0.0 938.0 0.0 C 960.0 0.0 982.0 0.0 1004.0 0.0 C 1026.0 0.0 1046.0 2.0 1046.0 24.0 C 1046.0 46.0 1046.0 68.0 1046.0 90.0 C 1046.0 112.0 1046.0 134.0 1046.0 156.0 C 1046.0 178.0 1046.0 200.0 1046.0 222.0 C 1046.0 244.0 1046.0 266.0 1042.0 286.0 C 1020.0 300.0 1005.0 283.0 988.0 269.0 C 970.0 291.0 951.0 313.0 933.0 335.0 C 912.0 335.0 890.0 318.0 871.0 298.0 C 855.0 276.0 860.0 266.0 882.0 266.0 C 904.0 266.0 926.0 266.0 947.0 263.0 C 926.0 251.0 904.0 251.0 888.0 231.0 C 866.0 226.0 850.0 219.0 831.0 199.0 C 809.0 191.0 787.0 194.0 765.0 205.0 C 744.0 211.0 722.0 211.0 700.0 217.0 C 679.0 236.0 665.0 245.0 643.0 250.0 C 642.0 266.0 664.0 266.0 686.0 266.0 C 708.0 266.0 730.0 266.0 708.0 285.0 C 686.0 303.0 664.0 319.0 642.0 332.0 C 620.0 342.0 598.0 346.0 577.0 330.0 C 585.0 321.0 607.0 322.0 629.0 321.0 C 625.0 309.0 603.0 306.0 587.0 294.0 C 565.0 282.0 543.0 284.0 530.0 262.0 C 508.0 249.0 486.0 248.0 464.0 254.0 C 442.0 260.0 420.0 255.0 398.0 260.0 C 376.0 265.0 354.0 270.0 332.0 274.0 C 310.0 278.0 288.0 282.0 266.0 285.0 C 244.0 286.0 229.0 267.0 208.0 268.0 C 197.0 246.0 176.0 231.0 154.0 229.0 C 134.0 228.0 113.0 212.0 91.0 209.0 C 69.0 220.0 55.0 242.0 38.0 246.0 C 16.0 258.0 2.0 272.0 0.0 252.0 C 0.0 230.0 0.0 208.0 0.0 186.0 C 0.0 164.0 0.0 142.0 0.0 120.0 C 0.0 98.0 9.0 85.0 31.0 85.0 C 53.0 85.0 75.0 85.0 97.0 85.0 C 119.0 85.0 141.0 85.0 163.0 85.0 C 176.0 78.0 154.0 71.0 160.0 66.0 C 182.0 66.0 204.0 66.0 226.0 66.0 C 248.0 66.0 270.0 66.0 292.0 66.0 C 309.0 62.0 287.0 57.0 266.0 55.0 C 244.0 47.0 222.0 47.0 200.0 35.0 C 178.0 30.0 156.0 25.0 134.0 18.0 C 112.0 18.0 90.0 26.0 69.0 27.0 C 47.0 25.0 25.0 30.0 3.0 41.0 C 0.0 22.0 0.0 0.0 14.0 0.0" stroke-width="0.0" fill="rgb(230, 154, 202)" opacity="1.0" stroke="rgb(207, 203, 146)" stroke-opacity="0.37334898" stroke-linecap="round" stroke-linejoin="round"/>
    <path d="M 156.0 352.0 C 169.0 371.0 176.0 388.0 180.0 402.0 C 178.0 408.0 169.0 411.0 185.0 430.0 C 176.0 434.0 191.0 453.0 173.0 446.0 C 154.0 438.0 151.0 454.0 151.0 473.0 C 151.0 492.0 169.0 489.0 171.0 477.0 C 184.0 475.0 199.0 476.0 212.0 479.0 C 230.0 487.0 249.0 497.0 265.0 505.0 C 284.0 515.0 303.0 524.0 322.0 533.0 C 341.0 540.0 360.0 547.0 379.0 553.0 C 398.0 556.0 417.0 553.0 436.0 548.0 C 455.0 541.0 474.0 533.0 493.0 535.0 C 512.0 546.0 531.0 556.0 550.0 560.0 C 569.0 554.0 588.0 541.0 607.0 526.0 C 626.0 511.0 645.0 498.0 664.0 492.0 C 682.0 504.0 692.0 523.0 703.0 542.0 C 721.0 552.0 733.0 542.0 737.0 539.0 C 749.0 537.0 768.0 529.0 786.0 540.0 C 805.0 551.0 816.0 541.0 816.0 522.0 C 808.0 511.0 795.0 512.0 800.0 498.0 C 799.0 488.0 805.0 470.0 819.0 456.0 C 830.0 475.0 833.0 490.0 835.0 503.0 C 833.0 513.0 819.0 514.0 818.0 533.0 C 821.0 551.0 840.0 548.0 859.0 543.0 C 878.0 537.0 889.0 526.0 894.0 517.0 C 907.0 520.0 915.0 525.0 934.0 532.0 C 953.0 540.0 972.0 548.0 991.0 551.0 C 1010.0 554.0 1029.0 558.0 1046.0 562.0 C 1046.0 581.0 1029.0 583.0 1010.0 583.0 C 991.0 583.0 972.0 583.0 953.0 583.0 C 934.0 583.0 915.0 583.0 896.0 583.0 C 877.0 583.0 858.0 583.0 839.0 583.0 C 820.0 583.0 801.0 583.0 782.0 583.0 C 763.0 583.0 744.0 583.0 725.0 583.0 C 706.0 583.0 687.0 583.0 668.0 583.0 C 649.0 583.0 630.0 583.0 611.0 583.0 C 592.0 583.0 573.0 583.0 554.0 583.0 C 535.0 583.0 516.0 583.0 497.0 583.0 C 478.0 583.0 459.0 583.0 440.0 583.0 C 421.0 583.0 402.0 583.0 383.0 583.0 C 364.0 583.0 345.0 583.0 326.0 583.0 C 307.0 583.0 288.0 583.0 269.0 583.0 C 250.0 583.0 231.0 583.0 212.0 583.0 C 193.0 583.0 174.0 583.0 155.0 583.0 C 136.0 583.0 117.0 583.0 98.0 583.0 C 79.0 583.0 60.0 583.0 41.0 583.0 C 22.0 583.0 3.0 583.0 0.0 567.0 C 0.0 548.0 2.0 530.0 21.0 525.0 C 27.0 515.0 36.0 512.0 48.0 511.0 C 55.0 517.0 58.0 500.0 56.0 482.0 C 37.0 489.0 38.0 477.0 43.0 463.0 C 42.0 452.0 50.0 434.0 66.0 434.0 C 74.0 452.0 70.0 461.0 75.0 476.0 C 74.0 486.0 60.0 487.0 61.0 506.0 C 71.0 513.0 90.0 509.0 109.0 504.0 C 128.0 500.0 145.0 492.0 145.0 473.0 C 145.0 454.0 139.0 440.0 120.0 447.0 C 101.0 454.0 111.0 439.0 110.0 432.0 C 112.0 423.0 125.0 406.0 106.0 413.0 C 121.0 395.0 114.0 389.0 128.0 372.0 C 128.0 361.0 146.0 342.0 156.0 352.0" stroke-width="0.0" fill="rgb(26, 8, 24)" opacity="1.0" stroke="rgb(167, 101, 120)" stroke-opacity="0.40031233" stroke-linecap="round" stroke-linejoin="round"/>
    <path d="M 206.0 394.0 C 207.0 394.0 208.0 394.0 209.0 394.0 C 210.0 395.0 211.0 395.0 212.0 395.0 C 213.0 396.0 214.0 396.0 215.0 397.0 C 216.0 397.0 225.0 400.0 237.0 405.0 C 249.0 410.0 261.0 415.0 273.0 420.0 C 285.0 428.0 297.0 435.0 309.0 443.0 C 321.0 450.0 333.0 457.0 345.0 464.0 C 357.0 471.0 369.0 477.0 381.0 484.0 C 393.0 490.0 405.0 496.0 417.0 501.0 C 429.0 506.0 441.0 510.0 453.0 513.0 C 465.0 515.0 477.0 517.0 489.0 516.0 C 501.0 515.0 513.0 512.0 525.0 509.0 C 537.0 505.0 549.0 501.0 561.0 496.0 C 573.0 492.0 585.0 487.0 597.0 481.0 C 609.0 476.0 621.0 471.0 633.0 465.0 C 645.0 460.0 657.0 455.0 669.0 450.0 C 681.0 445.0 693.0 440.0 705.0 435.0 C 717.0 431.0 729.0 428.0 740.0 423.0 C 747.0 418.0 756.0 423.0 768.0 424.0 C 780.0 434.0 787.0 446.0 795.0 448.0 C 803.0 458.0 800.0 470.0 797.0 480.0 C 795.0 489.0 793.0 497.0 793.0 502.0 C 794.0 508.0 784.0 520.0 795.0 518.0 C 807.0 514.0 814.0 517.0 814.0 529.0 C 814.0 541.0 809.0 549.0 797.0 546.0 C 786.0 536.0 774.0 527.0 762.0 528.0 C 750.0 534.0 750.0 525.0 739.0 526.0 C 737.0 531.0 729.0 532.0 717.0 529.0 C 719.0 533.0 725.0 541.0 723.0 546.0 C 713.0 548.0 702.0 537.0 696.0 525.0 C 690.0 513.0 682.0 501.0 671.0 491.0 C 659.0 491.0 647.0 495.0 635.0 502.0 C 623.0 510.0 611.0 520.0 599.0 530.0 C 587.0 539.0 575.0 548.0 563.0 555.0 C 551.0 558.0 539.0 556.0 527.0 551.0 C 515.0 545.0 503.0 539.0 491.0 532.0 C 479.0 529.0 467.0 534.0 455.0 538.0 C 443.0 543.0 431.0 547.0 419.0 550.0 C 407.0 553.0 395.0 554.0 383.0 552.0 C 371.0 549.0 359.0 545.0 347.0 540.0 C 335.0 535.0 323.0 530.0 311.0 525.0 C 299.0 519.0 287.0 514.0 275.0 508.0 C 263.0 501.0 255.0 494.0 255.0 482.0 C 259.0 476.0 271.0 480.0 282.0 482.0 C 279.0 472.0 273.0 461.0 275.0 455.0 C 270.0 443.0 264.0 431.0 254.0 423.0 C 243.0 435.0 239.0 446.0 235.0 457.0 C 237.0 462.0 230.0 472.0 231.0 478.0 C 219.0 478.0 207.0 478.0 213.0 473.0 C 205.0 471.0 193.0 475.0 191.0 467.0 C 180.0 465.0 182.0 475.0 172.0 472.0 C 160.0 470.0 166.0 476.0 168.0 481.0 C 166.0 487.0 154.0 490.0 153.0 479.0 C 153.0 467.0 153.0 455.0 153.0 443.0 C 162.0 444.0 174.0 449.0 186.0 455.0 C 198.0 458.0 189.0 446.0 179.0 434.0 C 190.0 437.0 188.0 430.0 178.0 418.0 C 175.0 410.0 187.0 415.0 192.0 413.0 C 182.0 401.0 185.0 396.0 197.0 402.0 C 209.0 406.0 205.0 394.0 206.0 394.0" stroke-width="0.0" fill="rgb(43, 9, 42)" opacity="1.0" stroke="rgb(31, 31, 218)" stroke-opacity="0.79020715" stroke-linecap="round" stroke-linejoin="round"/>
    <path d="M 822.0 343.0 C 823.0 343.0 824.0 343.0 825.0 343.0 C 823.0 350.0 827.0 355.0 839.0 352.0 C 851.0 349.0 863.0 346.0 875.0 346.0 C 887.0 348.0 899.0 352.0 911.0 359.0 C 923.0 362.0 935.0 359.0 947.0 356.0 C 959.0 357.0 971.0 359.0 983.0 361.0 C 995.0 365.0 992.0 371.0 989.0 382.0 C 988.0 388.0 987.0 398.0 999.0 394.0 C 1006.0 396.0 995.0 402.0 983.0 410.0 C 972.0 417.0 961.0 426.0 949.0 434.0 C 942.0 430.0 939.0 419.0 932.0 408.0 C 922.0 415.0 917.0 425.0 917.0 432.0 C 908.0 434.0 896.0 434.0 884.0 434.0 C 872.0 434.0 860.0 434.0 848.0 434.0 C 836.0 434.0 824.0 434.0 812.0 434.0 C 800.0 434.0 790.0 429.0 779.0 425.0 C 767.0 422.0 757.0 420.0 757.0 417.0 C 753.0 413.0 746.0 413.0 738.0 413.0 C 736.0 417.0 735.0 425.0 723.0 428.0 C 714.0 428.0 721.0 426.0 721.0 416.0 C 717.0 406.0 710.0 397.0 702.0 408.0 C 700.0 418.0 703.0 426.0 710.0 427.0 C 703.0 434.0 691.0 434.0 679.0 434.0 C 667.0 434.0 655.0 434.0 643.0 434.0 C 631.0 434.0 619.0 434.0 607.0 434.0 C 595.0 434.0 583.0 434.0 571.0 434.0 C 559.0 434.0 547.0 434.0 535.0 434.0 C 523.0 434.0 511.0 434.0 499.0 434.0 C 487.0 434.0 475.0 434.0 466.0 429.0 C 467.0 418.0 460.0 410.0 450.0 414.0 C 444.0 406.0 436.0 399.0 427.0 401.0 C 428.0 413.0 424.0 416.0 416.0 411.0 C 415.0 419.0 414.0 430.0 411.0 429.0 C 405.0 420.0 401.0 429.0 394.0 434.0 C 382.0 434.0 370.0 434.0 358.0 434.0 C 346.0 434.0 334.0 434.0 322.0 434.0 C 310.0 434.0 298.0 434.0 286.0 427.0 C 274.0 420.0 264.0 413.0 253.0 410.0 C 244.0 402.0 234.0 396.0 223.0 389.0 C 212.0 383.0 201.0 377.0 189.0 373.0 C 178.0 370.0 181.0 364.0 193.0 358.0 C 205.0 356.0 217.0 354.0 229.0 353.0 C 241.0 355.0 253.0 357.0 265.0 359.0 C 277.0 362.0 289.0 365.0 301.0 366.0 C 313.0 364.0 325.0 360.0 337.0 359.0 C 349.0 357.0 361.0 356.0 373.0 365.0 C 378.0 362.0 384.0 355.0 396.0 359.0 C 408.0 365.0 420.0 371.0 432.0 378.0 C 444.0 386.0 456.0 392.0 462.0 399.0 C 471.0 400.0 483.0 404.0 495.0 406.0 C 507.0 404.0 519.0 399.0 531.0 396.0 C 543.0 395.0 555.0 396.0 567.0 398.0 C 579.0 400.0 591.0 402.0 593.0 399.0 C 593.0 395.0 605.0 396.0 617.0 397.0 C 629.0 400.0 641.0 402.0 653.0 402.0 C 665.0 399.0 677.0 396.0 689.0 392.0 C 701.0 387.0 713.0 383.0 725.0 377.0 C 737.0 372.0 749.0 366.0 761.0 361.0 C 773.0 355.0 785.0 350.0 797.0 348.0 C 809.0 345.0 821.0 343.0 822.0 343.0" stroke-width="0.0" fill="rgb(94, 33, 92)" opacity="1.0" stroke="rgb(92, 74, 245)" stroke-opacity="0.93250984" stroke-linecap="round" stroke-linejoin="round"/>
    <path d="M 1028.0 409.0 C 1029.0 409.0 1030.0 409.0 1031.0 409.0 C 1032.0 409.0 1033.0 409.0 1034.0 409.0 C 1035.0 409.0 1036.0 409.0 1037.0 410.0 C 1038.0 410.0 1039.0 410.0 1040.0 411.0 C 1041.0 411.0 1042.0 411.0 1043.0 412.0 C 1044.0 413.0 1045.0 413.0 1046.0 414.0 C 1046.0 415.0 1046.0 416.0 1046.0 417.0 C 1046.0 419.0 1046.0 425.0 1046.0 431.0 C 1046.0 437.0 1046.0 443.0 1046.0 449.0 C 1046.0 455.0 1046.0 461.0 1046.0 467.0 C 1046.0 473.0 1046.0 479.0 1046.0 485.0 C 1046.0 491.0 1046.0 497.0 1046.0 503.0 C 1046.0 509.0 1046.0 515.0 1046.0 521.0 C 1046.0 527.0 1046.0 533.0 1046.0 539.0 C 1046.0 545.0 1046.0 551.0 1046.0 557.0 C 1041.0 557.0 1035.0 556.0 1029.0 555.0 C 1023.0 554.0 1017.0 553.0 1015.0 549.0 C 1015.0 543.0 1015.0 537.0 1019.0 536.0 C 1025.0 539.0 1031.0 541.0 1029.0 535.0 C 1030.0 530.0 1026.0 524.0 1030.0 522.0 C 1026.0 516.0 1024.0 510.0 1022.0 504.0 C 1017.0 498.0 1012.0 492.0 1007.0 497.0 C 1001.0 503.0 1000.0 509.0 995.0 515.0 C 993.0 521.0 996.0 524.0 992.0 530.0 C 993.0 535.0 990.0 541.0 996.0 539.0 C 1002.0 537.0 1008.0 535.0 1010.0 540.0 C 1010.0 546.0 1009.0 552.0 1003.0 551.0 C 997.0 550.0 991.0 549.0 985.0 548.0 C 979.0 547.0 973.0 546.0 967.0 544.0 C 961.0 541.0 955.0 539.0 949.0 536.0 C 943.0 534.0 937.0 531.0 931.0 529.0 C 925.0 526.0 919.0 524.0 913.0 523.0 C 908.0 523.0 909.0 518.0 905.0 516.0 C 900.0 517.0 902.0 511.0 899.0 509.0 C 894.0 513.0 889.0 509.0 890.0 515.0 C 886.0 516.0 880.0 513.0 874.0 513.0 C 876.0 517.0 882.0 520.0 882.0 524.0 C 876.0 523.0 879.0 527.0 879.0 530.0 C 878.0 535.0 872.0 537.0 866.0 539.0 C 860.0 540.0 854.0 542.0 848.0 543.0 C 842.0 545.0 836.0 546.0 830.0 547.0 C 824.0 548.0 821.0 545.0 821.0 539.0 C 821.0 533.0 821.0 527.0 821.0 521.0 C 821.0 515.0 823.0 511.0 829.0 514.0 C 835.0 517.0 841.0 520.0 846.0 519.0 C 841.0 513.0 841.0 509.0 842.0 505.0 C 837.0 499.0 837.0 495.0 843.0 498.0 C 841.0 492.0 837.0 486.0 837.0 481.0 C 833.0 475.0 832.0 469.0 837.0 469.0 C 843.0 470.0 849.0 472.0 855.0 472.0 C 861.0 473.0 867.0 473.0 873.0 474.0 C 879.0 475.0 885.0 474.0 891.0 472.0 C 897.0 470.0 903.0 468.0 909.0 465.0 C 915.0 463.0 921.0 459.0 927.0 456.0 C 932.0 452.0 938.0 449.0 944.0 446.0 C 950.0 443.0 956.0 440.0 962.0 436.0 C 968.0 433.0 974.0 430.0 980.0 427.0 C 986.0 425.0 992.0 422.0 998.0 419.0 C 1004.0 417.0 1009.0 413.0 1015.0 413.0 C 1021.0 411.0 1027.0 409.0 1028.0 409.0" stroke-width="0.0" fill="rgb(43, 8, 41)" opacity="1.0" stroke="rgb(159, 5, 1)" stroke-opacity="0.26149538" stroke-linecap="round" stroke-linejoin="round"/>
    <path d="M 1.0 375.0 C 2.0 375.0 3.0 375.0 4.0 375.0 C 5.0 375.0 6.0 375.0 7.0 375.0 C 8.0 375.0 9.0 375.0 11.0 375.0 C 17.0 375.0 23.0 375.0 29.0 375.0 C 35.0 375.0 41.0 376.0 47.0 376.0 C 53.0 376.0 59.0 376.0 65.0 377.0 C 71.0 377.0 77.0 377.0 83.0 378.0 C 89.0 378.0 95.0 379.0 101.0 380.0 C 107.0 380.0 113.0 381.0 116.0 384.0 C 111.0 388.0 107.0 393.0 111.0 395.0 C 117.0 393.0 115.0 398.0 109.0 404.0 C 103.0 410.0 98.0 415.0 100.0 418.0 C 106.0 415.0 112.0 413.0 118.0 412.0 C 114.0 418.0 108.0 424.0 102.0 430.0 C 97.0 436.0 100.0 438.0 106.0 436.0 C 112.0 434.0 108.0 440.0 102.0 446.0 C 96.0 452.0 90.0 458.0 95.0 459.0 C 101.0 457.0 107.0 455.0 113.0 452.0 C 119.0 450.0 125.0 448.0 131.0 446.0 C 137.0 444.0 143.0 442.0 143.0 448.0 C 143.0 454.0 143.0 460.0 143.0 466.0 C 143.0 472.0 143.0 478.0 143.0 484.0 C 143.0 490.0 140.0 494.0 134.0 495.0 C 128.0 497.0 122.0 499.0 116.0 500.0 C 110.0 502.0 104.0 503.0 98.0 504.0 C 92.0 506.0 86.0 507.0 80.0 509.0 C 74.0 510.0 68.0 512.0 63.0 512.0 C 65.0 508.0 65.0 505.0 63.0 501.0 C 63.0 495.0 63.0 489.0 64.0 484.0 C 70.0 486.0 76.0 489.0 82.0 492.0 C 88.0 494.0 86.0 488.0 80.0 482.0 C 84.0 481.0 83.0 476.0 78.0 470.0 C 78.0 466.0 84.0 469.0 85.0 465.0 C 80.0 459.0 80.0 453.0 75.0 447.0 C 74.0 441.0 70.0 435.0 65.0 429.0 C 61.0 423.0 55.0 425.0 51.0 430.0 C 45.0 436.0 40.0 442.0 43.0 446.0 C 37.0 452.0 36.0 457.0 38.0 459.0 C 33.0 464.0 30.0 470.0 36.0 468.0 C 36.0 472.0 30.0 478.0 31.0 482.0 C 35.0 483.0 29.0 489.0 27.0 494.0 C 33.0 492.0 39.0 490.0 45.0 488.0 C 51.0 486.0 56.0 486.0 56.0 492.0 C 56.0 498.0 56.0 504.0 52.0 507.0 C 46.0 510.0 45.0 506.0 47.0 500.0 C 41.0 503.0 36.0 503.0 30.0 500.0 C 33.0 506.0 33.0 511.0 27.0 508.0 C 21.0 506.0 15.0 505.0 9.0 505.0 C 13.0 508.0 19.0 511.0 23.0 516.0 C 17.0 515.0 16.0 518.0 20.0 522.0 C 15.0 524.0 9.0 526.0 3.0 527.0 C 0.0 525.0 0.0 519.0 0.0 513.0 C 0.0 507.0 0.0 501.0 0.0 495.0 C 0.0 489.0 0.0 483.0 0.0 477.0 C 0.0 471.0 0.0 465.0 0.0 459.0 C 0.0 453.0 0.0 447.0 0.0 441.0 C 0.0 435.0 0.0 429.0 0.0 423.0 C 0.0 417.0 0.0 411.0 0.0 405.0 C 0.0 399.0 0.0 393.0 0.0 387.0 C 0.0 381.0 0.0 375.0 1.0 375.0" stroke-width="0.0" fill="rgb(43, 9, 41)" opacity="1.0" stroke="rgb(38, 97, 240)" stroke-opacity="0.54975444" stroke-linecap="round" stroke-linejoin="round"/>
    <path d="M 743.0 258.0 C 744.0 258.0 744.0 259.0 744.0 260.0 C 745.0 261.0 745.0 262.0 745.0 263.0 C 745.0 264.0 745.0 265.0 745.0 266.0 C 745.0 267.0 745.0 268.0 745.0 269.0 C 745.0 270.0 745.0 271.0 744.0 272.0 C 744.0 273.0 744.0 274.0 743.0 275.0 C 743.0 276.0 743.0 277.0 742.0 278.0 C 742.0 279.0 741.0 280.0 741.0 281.0 C 740.0 282.0 739.0 283.0 738.0 284.0 C 738.0 285.0 737.0 286.0 736.0 287.0 C 735.0 288.0 734.0 289.0 733.0 290.0 C 732.0 291.0 731.0 292.0 730.0 293.0 C 729.0 293.0 728.0 294.0 727.0 295.0 C 726.0 296.0 725.0 297.0 724.0 298.0 C 723.0 299.0 722.0 299.0 721.0 300.0 C 720.0 301.0 719.0 302.0 718.0 303.0 C 717.0 304.0 716.0 304.0 715.0 305.0 C 714.0 306.0 713.0 307.0 712.0 308.0 C 711.0 308.0 710.0 309.0 709.0 310.0 C 708.0 311.0 707.0 312.0 706.0 312.0 C 703.0 315.0 700.0 317.0 697.0 319.0 C 694.0 322.0 691.0 324.0 688.0 326.0 C 685.0 328.0 682.0 330.0 679.0 332.0 C 676.0 334.0 673.0 336.0 670.0 338.0 C 667.0 340.0 664.0 342.0 661.0 344.0 C 658.0 346.0 655.0 347.0 652.0 349.0 C 649.0 351.0 646.0 352.0 643.0 354.0 C 640.0 355.0 637.0 356.0 634.0 358.0 C 631.0 359.0 628.0 360.0 625.0 361.0 C 622.0 362.0 619.0 363.0 616.0 363.0 C 613.0 364.0 610.0 365.0 607.0 365.0 C 604.0 365.0 601.0 365.0 598.0 365.0 C 595.0 365.0 592.0 364.0 589.0 363.0 C 586.0 362.0 583.0 361.0 580.0 359.0 C 577.0 358.0 574.0 355.0 571.0 353.0 C 569.0 350.0 569.0 347.0 569.0 344.0 C 568.0 341.0 567.0 338.0 566.0 335.0 C 566.0 332.0 565.0 329.0 564.0 326.0 C 563.0 323.0 563.0 320.0 562.0 317.0 C 564.0 316.0 566.0 319.0 568.0 322.0 C 570.0 325.0 573.0 328.0 575.0 331.0 C 577.0 334.0 580.0 337.0 583.0 340.0 C 586.0 343.0 589.0 346.0 592.0 347.0 C 595.0 348.0 598.0 348.0 601.0 348.0 C 604.0 348.0 607.0 348.0 610.0 347.0 C 613.0 347.0 616.0 346.0 619.0 345.0 C 622.0 344.0 625.0 343.0 628.0 342.0 C 631.0 340.0 634.0 339.0 637.0 337.0 C 640.0 336.0 643.0 334.0 646.0 332.0 C 649.0 331.0 652.0 329.0 655.0 327.0 C 658.0 325.0 661.0 324.0 664.0 321.0 C 667.0 319.0 670.0 317.0 673.0 315.0 C 676.0 313.0 679.0 311.0 682.0 309.0 C 685.0 306.0 688.0 304.0 691.0 302.0 C 694.0 300.0 697.0 297.0 700.0 295.0 C 703.0 292.0 706.0 290.0 709.0 288.0 C 712.0 285.0 715.0 282.0 718.0 280.0 C 721.0 277.0 724.0 275.0 727.0 272.0 C 730.0 269.0 733.0 267.0 736.0 264.0 C 739.0 261.0 742.0 258.0 743.0 258.0" stroke-width="0.0" fill="rgb(165, 83, 157)" opacity="1.0" stroke="rgb(248, 246, 206)" stroke-opacity="0.6376281" stroke-linecap="round" stroke-linejoin="round"/>
  </g>
</svg>
