<?xml version="1.0" ?>
<svg xmlns="http://www.w3.org/2000/svg" version="1.1" width="474" height="596">
  <defs/>
  <g>
    <path d="M 269.6896057128906 -1.5192090272903442 C 269.63201904296875 -2.100450038909912 269.6441650390625 -2.487762451171875 270.51617431640625 -2.6296334266662598 C 270.8299255371094 -3.2549712657928467 270.5106506347656 -3.8100359439849854 270.5755615234375 -4.031977653503418 C 271.64971923828125 -4.3200249671936035 271.15185546875 -4.579830169677734 271.0719909667969 -4.791019916534424 C 272.47210693359375 -4.566208839416504 272.6650390625 -4.427554130554199 273.31109619140625 -4.100372314453125 C 275.7906494140625 -2.5036122798919678 278.70599365234375 -2.7634315490722656 287.27880859375 -3.4525601863861084 C 282.4302673339844 1.9958285093307495 288.287353515625 1.3285936117172241 297.1590270996094 3.6955230236053467 C 303.33575439453125 5.679976463317871 311.068359375 8.239044189453125 319.0152587890625 11.079597473144531 C 327.30712890625 14.679594993591309 336.68231201171875 19.088876724243164 344.21331787109375 24.163101196289062 C 352.9193420410156 28.883264541625977 360.4568176269531 34.659217834472656 368.51031494140625 40.728206634521484 C 376.74932861328125 47.674320220947266 384.4815979003906 55.4846305847168 392.0217590332031 63.247032165527344 C 399.25726318359375 71.46324157714844 406.2674255371094 79.19859313964844 412.3211364746094 87.94357299804688 C 417.9288024902344 96.72952270507812 423.8746337890625 105.4246597290039 428.6657409667969 114.14988708496094 C 433.13232421875 121.56513214111328 435.0464172363281 127.6037826538086 432.39813232421875 135.2884063720703 C 428.7590026855469 143.3035430908203 423.1911926269531 152.5852813720703 416.07159423828125 161.05320739746094 C 409.62750244140625 169.0939483642578 401.05206298828125 177.49903869628906 393.2170104980469 184.60325622558594 C 385.59222412109375 191.0546112060547 377.13702392578125 197.72628784179688 367.51898193359375 204.23135375976562 C 359.1550598144531 210.0726776123047 349.1389465332031 216.81106567382812 340.52386474609375 219.8759307861328 C 329.22259521484375 223.68148803710938 319.6946105957031 225.3201904296875 307.30029296875 227.69940185546875 C 312.66925048828125 221.52239990234375 319.4644775390625 216.9238739013672 325.5645446777344 210.3067169189453 C 333.05352783203125 202.63629150390625 341.14215087890625 194.27256774902344 348.7761535644531 185.86459350585938 C 355.2796325683594 177.3123016357422 360.5155334472656 169.55557250976562 364.10137939453125 161.5438232421875 C 366.81561279296875 153.19866943359375 368.0093078613281 146.69482421875 367.2301025390625 141.1082763671875 C 365.34149169921875 135.14059448242188 362.4574890136719 129.670654296875 358.1069641113281 125.6210708618164 C 354.345947265625 119.63410949707031 348.8429870605469 113.46007537841797 343.3315124511719 112.88916778564453 C 338.90374755859375 105.81013488769531 330.2994384765625 102.41014099121094 324.9761657714844 101.18118286132812 C 316.47137451171875 99.58157348632812 304.73101806640625 101.45404815673828 304.9955749511719 108.73320007324219 C 292.82476806640625 110.95014953613281 286.715576171875 105.90885162353516 282.28314208984375 108.12191009521484 C 275.2998046875 109.54010009765625 268.3293762207031 109.75251007080078 262.6384582519531 110.93373107910156 C 257.1643371582031 112.0767822265625 251.92820739746094 112.70213317871094 246.87232971191406 113.8996353149414 C 241.99270629882812 115.46820831298828 237.3260955810547 117.09646606445312 232.45668029785156 118.95098114013672 C 227.2164764404297 121.04020690917969 221.6209259033203 123.33201599121094 215.70849609375 125.67919921875 C 209.59280395507812 127.87533569335938 203.43690490722656 130.11795043945312 196.97938537597656 132.51438903808594 C 189.74884033203125 134.75631713867188 182.21067810058594 136.51309204101562 175.244384765625 138.40017700195312 C 169.1604461669922 140.4043731689453 163.1464080810547 142.2279510498047 158.29795837402344 149.28492736816406 C 155.0738067626953 151.73553466796875 147.98927307128906 152.69749450683594 147.33262634277344 156.9945831298828 C 144.50250244140625 163.22695922851562 144.19642639160156 169.9609832763672 145.67689514160156 177.01287841796875 C 148.5542755126953 184.5973358154297 152.90725708007812 192.14637756347656 158.68434143066406 200.17718505859375 C 165.60630798339844 208.0421600341797 173.34848022460938 215.26771545410156 181.50048828125 221.6588134765625 C 189.75030517578125 227.23179626464844 197.5381317138672 232.01234436035156 204.3283233642578 235.99073791503906 C 210.28172302246094 238.5424346923828 215.1809844970703 235.0399169921875 258.0860900878906 242.17189025878906 C 214.17918395996094 259.888916015625 207.44775390625 245.19119262695312 194.3122100830078 241.7513885498047 C 179.71954345703125 239.6276397705078 176.79617309570312 239.91741943359375 166.54051208496094 243.39614868164062 C 163.4976043701172 239.29161071777344 157.85333251953125 242.1088104248047 141.7393341064453 239.94696044921875 C 132.87844848632812 239.48394775390625 120.63624572753906 236.28854370117188 112.44608306884766 234.40609741210938 C 103.63448333740234 232.06593322753906 95.15998077392578 229.06771850585938 87.37461853027344 225.83242797851562 C 78.36634826660156 222.51210021972656 69.76428985595703 218.2284698486328 62.836952209472656 213.54660034179688 C 56.819313049316406 210.16094970703125 55.01268005371094 206.5470733642578 53.54001235961914 201.1082000732422 C 52.779640197753906 192.0452117919922 54.58209991455078 180.17955017089844 56.20243835449219 171.97901916503906 C 57.949825286865234 161.6366729736328 59.811954498291016 153.5970916748047 62.64851760864258 144.730712890625 C 64.40005493164062 137.62405395507812 67.65178680419922 128.62872314453125 71.1762466430664 121.754150390625 C 74.04700469970703 113.98380279541016 78.99822998046875 105.27942657470703 83.67118835449219 97.01709747314453 C 88.53178405761719 89.06209564208984 93.89220428466797 80.65894317626953 100.93763732910156 72.51859283447266 C 107.13481140136719 65.24432373046875 114.75289916992188 56.631996154785156 122.91585540771484 49.8348503112793 C 130.23709106445312 42.95685958862305 138.46803283691406 37.03007125854492 146.62254333496094 31.289939880371094 C 155.16165161132812 25.72944450378418 164.45301818847656 24.18374252319336 176.30039978027344 23.46803092956543 C 179.62261962890625 24.255630493164062 192.5681915283203 24.5661563873291 198.8936309814453 27.13155746459961 C 214.81011962890625 29.974397659301758 212.93939208984375 36.33882141113281 212.08013916015625 19.672819137573242 C 217.82354736328125 31.297014236450195 213.63917541503906 31.485761642456055 226.7336883544922 26.749853134155273 C 232.80032348632812 19.73872184753418 239.939697265625 12.513935089111328 248.75619506835938 7.53153133392334 C 258.43804931640625 2.1680757999420166 270.1899719238281 -0.48760905861854553 269.6896057128906 -1.5192090272903442" stroke-width="0.0" fill="rgb(64, 38, 31)" opacity="0.99998444" stroke="rgb(132, 70, 107)" stroke-opacity="0.70199823" stroke-linecap="round" stroke-linejoin="round"/>
    <path d="M 314.160888671875 226.94134521484375 C 312.81011962890625 228.05821228027344 304.4335021972656 233.32469177246094 291.8438415527344 236.99508666992188 C 284.00146484375 239.1023406982422 289.69952392578125 237.81173706054688 295.0029602050781 239.92596435546875 C 293.41961669921875 247.18504333496094 290.61932373046875 259.0537414550781 293.9942321777344 260.3586730957031 C 282.6553649902344 261.04034423828125 268.4413146972656 260.6912536621094 253.57603454589844 254.16128540039062 C 244.21495056152344 252.5733184814453 236.06871032714844 248.43252563476562 230.4875946044922 249.1419219970703 C 229.2683563232422 250.6718292236328 232.33851623535156 250.92727661132812 238.82980346679688 249.93357849121094 C 248.44277954101562 252.57406616210938 260.8282775878906 257.6568908691406 277.07122802734375 260.1596374511719 C 287.1563415527344 256.8853454589844 292.3110656738281 267.3457336425781 296.8779602050781 279.32757568359375 C 301.4615478515625 290.1844177246094 306.2930603027344 300.7479248046875 308.2366943359375 308.4737548828125 C 305.7646179199219 310.2179870605469 309.5346984863281 310.49407958984375 307.92828369140625 307.9000244140625 C 308.54779052734375 296.85107421875 296.38055419921875 285.60113525390625 291.0146789550781 266.2187194824219 C 289.0652160644531 261.7130432128906 293.1981201171875 246.98239135742188 295.64959716796875 239.95285034179688 C 312.3824157714844 241.76034545898438 332.1677551269531 245.40350341796875 357.67706298828125 258.4962158203125 C 368.2703857421875 268.9588623046875 382.3028259277344 273.68096923828125 393.96441650390625 280.7694396972656 C 405.96673583984375 287.9497985839844 410.2602844238281 293.2705993652344 412.99285888671875 295.7216491699219 C 418.5502624511719 291.728515625 428.52435302734375 289.1315612792969 450.9900207519531 283.6031799316406 C 437.7945861816406 309.2394104003906 461.8049011230469 294.45452880859375 476.5460205078125 321.6299133300781 C 461.4501037597656 322.47369384765625 445.7323913574219 339.3052673339844 435.92376708984375 356.58062744140625 C 420.4349670410156 341.1778564453125 390.470703125 329.4507751464844 376.12042236328125 327.8710632324219 C 351.39996337890625 322.79779052734375 341.20123291015625 323.0801086425781 327.1321105957031 326.60589599609375 C 313.41217041015625 353.6212463378906 333.565673828125 383.98919677734375 317.0709533691406 381.7489013671875 C 312.4310607910156 421.18096923828125 304.32855224609375 451.66064453125 292.6248474121094 470.50079345703125 C 285.4588623046875 488.26483154296875 289.51422119140625 512.7963256835938 285.1127014160156 524.3132934570312 C 268.4156494140625 527.5882568359375 253.59619140625 528.4095458984375 238.53981018066406 529.2653198242188 C 238.8224639892578 540.922119140625 238.62493896484375 554.9440307617188 238.63433837890625 563.324462890625 C 254.7133331298828 570.7902221679688 270.94940185546875 571.6436767578125 307.0230712890625 571.3811645507812 C 320.52362060546875 571.5714721679688 337.3046569824219 570.6461791992188 342.7826843261719 571.631591796875 C 339.949951171875 580.1107177734375 319.1912841796875 584.3427124023438 299.054443359375 584.76123046875 C 274.9778137207031 584.1533813476562 241.02781677246094 582.2059936523438 236.7849578857422 574.7181396484375 C 228.6014404296875 561.6564331054688 237.11465454101562 533.5451049804688 236.6631622314453 507.6100769042969 C 250.38853454589844 492.0934143066406 244.18125915527344 465.6724853515625 233.11187744140625 459.2970886230469 C 225.05624389648438 456.20361328125 229.21878051757812 463.4905090332031 225.75668334960938 473.54144287109375 C 209.04104614257812 476.81158447265625 217.33740234375 483.1347351074219 213.51881408691406 491.892822265625 C 212.7466278076172 508.0486755371094 208.0034637451172 514.8434448242188 213.4687042236328 529.112060546875 C 214.76377868652344 548.649169921875 219.93997192382812 573.907958984375 216.4518280029297 582.6653442382812 C 205.70391845703125 583.2328491210938 192.26649475097656 586.5325317382812 173.06533813476562 592.5081787109375 C 151.5394287109375 599.2633666992188 125.1397933959961 595.8742065429688 119.15602111816406 589.5498657226562 C 112.6763916015625 571.7367553710938 119.9898452758789 581.7701416015625 150.7554473876953 582.5309448242188 C 168.2837677001953 577.8745727539062 186.04579162597656 575.66064453125 211.75830078125 572.840087890625 C 215.98439025878906 563.4217529296875 210.74449157714844 543.4402465820312 210.32955932617188 530.4558715820312 C 194.95814514160156 531.9329223632812 180.99298095703125 531.515625 169.76719665527344 529.4120483398438 C 156.54986572265625 522.4766235351562 142.89743041992188 522.4796142578125 157.55044555664062 507.5628662109375 C 176.46983337402344 503.5603942871094 172.23202514648438 479.46258544921875 158.15394592285156 469.7967834472656 C 155.13381958007812 438.0322570800781 152.30599975585938 416.1031799316406 152.25369262695312 398.377685546875 C 119.55088806152344 398.8488464355469 111.92451477050781 376.12701416015625 113.75849914550781 345.1658630371094 C 97.88621520996094 341.89361572265625 93.56503295898438 362.3597412109375 69.27816009521484 368.36566162109375 C 54.3512077331543 368.2151184082031 43.53754806518555 355.1414794921875 41.61688232421875 332.4174499511719 C 59.37481689453125 322.0981140136719 70.36686706542969 304.1612854003906 81.65528869628906 296.3708801269531 C 88.2166976928711 289.51055908203125 93.09213256835938 290.0609436035156 89.50431823730469 285.1040954589844 C 93.38378143310547 277.8999328613281 100.43390655517578 272.33489990234375 111.222900390625 265.20501708984375 C 126.16924285888672 255.4990692138672 141.80604553222656 247.71620178222656 162.39828491210938 241.23895263671875 C 178.14111328125 243.2664031982422 183.8033905029297 234.8212432861328 192.1411895751953 240.13160705566406 C 185.60589599609375 264.1512145996094 183.03843688964844 285.8924255371094 172.39669799804688 299.5322265625 C 165.91383361816406 316.2357482910156 163.93942260742188 334.6824951171875 158.29486083984375 347.36273193359375 C 154.4495086669922 357.1977233886719 158.09539794921875 357.15509033203125 155.46853637695312 354.7941589355469 C 158.30482482910156 347.784423828125 162.70925903320312 331.95965576171875 165.787109375 318.05511474609375 C 168.3173370361328 304.4269104003906 177.73312377929688 293.3993225097656 181.8353729248047 277.9480285644531 C 186.74525451660156 265.6078186035156 190.89926147460938 250.78533935546875 192.0657958984375 239.7589569091797 C 209.20257568359375 246.32080078125 230.82972717285156 246.5963134765625 253.76217651367188 245.45709228515625 C 252.14956665039062 235.7835235595703 260.9738464355469 235.373779296875 314.160888671875 226.94134521484375" stroke-width="0.0" fill="rgb(232, 106, 162)" opacity="0.9992772" stroke="rgb(201, 16, 132)" stroke-opacity="0.47924513" stroke-linecap="round" stroke-linejoin="round"/>
    <path d="M 336.0621337890625 94.71146392822266 C 341.89617919921875 94.4351577758789 345.6029357910156 94.79780578613281 341.4841003417969 93.35989379882812 C 344.06158447265625 93.75968170166016 346.1517639160156 94.59778594970703 344.8697814941406 93.27433776855469 C 344.1874084472656 92.163330078125 347.6745910644531 97.46631622314453 350.7474670410156 98.22244262695312 C 349.5741882324219 94.64544677734375 357.6863708496094 100.83304595947266 350.1492004394531 96.67741394042969 C 350.5152893066406 99.71977233886719 357.7762756347656 106.63743591308594 359.6510314941406 108.93307495117188 C 354.2559814453125 99.73517608642578 359.7335510253906 103.71505737304688 358.8885498046875 103.32823181152344 C 354.5753173828125 103.8466796875 359.47955322265625 104.60662078857422 358.0129699707031 105.99345397949219 C 355.81396484375 105.67913055419922 358.385009765625 108.70372009277344 357.2232360839844 105.65348815917969 C 363.2875671386719 112.5955810546875 364.5286560058594 118.29176330566406 366.2204284667969 122.26102447509766 C 368.2124328613281 127.7118148803711 369.89031982421875 132.47666931152344 369.9303283691406 136.56089782714844 C 371.37469482421875 138.07510375976562 370.59649658203125 144.04685974121094 370.271728515625 149.5525665283203 C 370.5638427734375 153.4459228515625 368.9667053222656 158.19924926757812 368.1252746582031 163.814208984375 C 366.4832763671875 168.23768615722656 364.8976745605469 174.24880981445312 362.78662109375 176.197998046875 C 360.3383483886719 181.74476623535156 357.461181640625 187.2449188232422 353.8258056640625 191.00885009765625 C 349.8392028808594 195.3357391357422 346.74334716796875 200.6241455078125 343.2523193359375 202.3104248046875 C 342.5082092285156 204.25685119628906 336.8566589355469 208.37359619140625 333.49951171875 211.68870544433594 C 328.6500549316406 215.2291717529297 323.0932312011719 218.7711181640625 314.10455322265625 224.26580810546875 C 306.7586669921875 227.21527099609375 317.6637268066406 227.06837463378906 311.77264404296875 227.0955047607422 C 315.43121337890625 223.03111267089844 301.3168029785156 232.09457397460938 296.70135498046875 231.8158721923828 C 295.3826599121094 233.37582397460938 288.25323486328125 235.34628295898438 282.1022644042969 237.1167755126953 C 281.5315856933594 237.93212890625 273.0648498535156 238.1331329345703 270.6815185546875 239.6220245361328 C 269.3663024902344 241.97987365722656 264.819580078125 242.76156616210938 258.631103515625 243.49554443359375 C 255.8508758544922 242.66371154785156 252.1103973388672 245.75173950195312 251.30734252929688 252.85623168945312 C 241.88763427734375 251.54603576660156 238.97108459472656 251.4241943359375 243.63192749023438 251.84478759765625 C 210.4769287109375 251.22372436523438 206.51678466796875 251.3932342529297 260.5968322753906 243.2574462890625 C 217.46705627441406 245.6311798095703 211.0002899169922 241.6478271484375 203.5018768310547 239.44802856445312 C 200.12753295898438 239.03302001953125 193.93043518066406 236.8760986328125 190.79139709472656 235.21644592285156 C 186.02865600585938 233.0890350341797 180.36448669433594 230.51348876953125 175.8682403564453 227.01544189453125 C 173.99166870117188 225.72401428222656 170.28543090820312 223.15472412109375 166.64788818359375 220.46282958984375 C 162.44024658203125 216.96096801757812 159.3841094970703 213.91920471191406 156.310791015625 209.6651153564453 C 154.30616760253906 207.04579162597656 150.8795623779297 202.7063446044922 148.41265869140625 196.97225952148438 C 147.1886749267578 193.55178833007812 144.9792938232422 187.56793212890625 144.6343994140625 186.00628662109375 C 142.04615783691406 175.57101440429688 142.92701721191406 169.878662109375 143.69708251953125 162.47898864746094 C 144.71865844726562 159.61773681640625 146.67832946777344 152.19003295898438 148.00607299804688 150.9219970703125 C 151.6303253173828 150.0326385498047 156.66580200195312 144.89051818847656 156.0523223876953 145.82785034179688 C 156.67401123046875 139.63185119628906 158.55673217773438 132.6066131591797 157.04331970214844 126.87097930908203 C 158.6383514404297 128.0789337158203 162.37355041503906 133.2408447265625 165.81069946289062 134.72256469726562 C 163.89910888671875 135.6063995361328 170.08822631835938 139.01132202148438 174.57545471191406 135.66238403320312 C 178.1134033203125 134.3595733642578 184.20338439941406 132.03123474121094 188.46414184570312 129.98220825195312 C 195.02757263183594 127.86445617675781 200.7094268798828 125.15342712402344 202.43212890625 124.37115478515625 C 205.37779235839844 124.42823028564453 213.7802734375 121.3757095336914 218.81028747558594 119.80682373046875 C 222.68019104003906 118.93512725830078 230.88345336914062 117.1631851196289 240.17784118652344 115.44327545166016 C 239.0619659423828 115.32909393310547 242.44781494140625 113.43607330322266 245.89622497558594 114.11458587646484 C 243.271484375 107.55879211425781 243.6273193359375 104.43212127685547 242.59385681152344 102.80376434326172 C 240.11668395996094 94.90381622314453 241.54115295410156 94.9248275756836 242.85308837890625 95.15855407714844 C 245.4306640625 95.52100372314453 249.74407958984375 99.42982482910156 255.33518981933594 104.37152862548828 C 258.55523681640625 106.37683868408203 259.62255859375 110.61736297607422 259.2373962402344 109.82943725585938 C 265.1262512207031 108.83723449707031 270.5310363769531 106.36534118652344 273.3433837890625 106.06784057617188 C 280.087646484375 105.99060821533203 288.61346435546875 103.61522674560547 295.49090576171875 101.91483306884766 C 299.8497314453125 100.98404693603516 315.5271911621094 100.16519927978516 308.68316650390625 99.71183776855469 C 279.8821716308594 118.29917907714844 311.08203125 108.01773834228516 305.8316650390625 104.37480163574219 C 317.1045837402344 103.80802917480469 318.0505065917969 103.31294250488281 324.0530090332031 108.05528259277344 C 327.97265625 109.97550964355469 331.4744873046875 117.81643676757812 330.85247802734375 124.02642822265625 C 329.8628845214844 126.57286834716797 328.93511962890625 130.39373779296875 326.0818176269531 135.70205688476562 C 328.6951599121094 133.11215209960938 329.7552185058594 131.8406219482422 331.9866943359375 132.49539184570312 C 336.34197998046875 129.88377380371094 341.1661376953125 129.30699157714844 343.8697204589844 126.48027038574219 C 346.1987609863281 126.35381317138672 345.1401062011719 121.80728912353516 345.3141174316406 115.37409973144531 C 339.5417175292969 112.07091522216797 347.8514709472656 114.22551727294922 341.3470764160156 107.77811431884766 C 336.52081298828125 103.10077667236328 329.9611511230469 100.0065689086914 323.3494873046875 99.04342651367188 C 308.2546691894531 98.77053833007812 308.8043518066406 100.01428985595703 336.0621337890625 94.71146392822266" stroke-width="0.0" fill="rgb(251, 188, 104)" opacity="1.0" stroke="rgb(158, 41, 67)" stroke-opacity="0.17667209" stroke-linecap="round" stroke-linejoin="round"/>
    <path d="M 101.64196014404297 286.5440673828125 C 106.88369750976562 292.2558898925781 111.82514190673828 298.0166320800781 115.9293212890625 304.0147705078125 C 118.60641479492188 310.5834045410156 119.6845703125 317.7456970214844 119.54962921142578 325.2194519042969 C 118.96392822265625 332.8548583984375 118.98456573486328 340.38433837890625 120.78958892822266 347.5088195800781 C 124.95531463623047 354.0525817871094 130.26834106445312 360.4518127441406 135.51296997070312 367.0782470703125 C 140.0504150390625 373.9041748046875 143.81976318359375 380.51953125 147.07908630371094 386.2510681152344 C 150.55361938476562 390.260009765625 155.1116485595703 391.9241943359375 161.07774353027344 391.2253112792969 C 168.63514709472656 388.7534484863281 177.7406768798828 385.3213806152344 188.31134033203125 381.68914794921875 C 200.1809539794922 378.7738952636719 212.98971557617188 376.9319763183594 226.26051330566406 375.9177551269531 C 239.47052001953125 375.4060974121094 252.18133544921875 375.1911926269531 263.9075012207031 375.66131591796875 C 274.0155334472656 377.49066162109375 282.0959167480469 381.13739013671875 288.0364074707031 387.0347900390625 C 291.9793395996094 394.8993225097656 294.1907958984375 404.287841796875 294.77056884765625 414.9533996582031 C 293.98590087890625 426.74298095703125 292.3157958984375 439.4583740234375 290.2259826660156 452.7638854980469 C 288.1248474121094 466.14544677734375 286.4173889160156 479.27899169921875 285.8037414550781 491.93951416015625 C 287.1268310546875 504.0621032714844 289.0650329589844 515.7918090820312 291.4806213378906 526.8241577148438 C 296.95574951171875 535.6876220703125 305.17626953125 541.8545532226562 315.9024658203125 545.5003051757812 C 326.45611572265625 550.4130249023438 335.14337158203125 554.968505859375 340.645263671875 557.7027587890625 C 341.41583251953125 556.1183471679688 336.8602294921875 552.5147705078125 327.92120361328125 548.0111083984375 C 316.13140869140625 542.4077758789062 303.3936462402344 534.877197265625 289.2417907714844 528.9134521484375 C 272.8062438964844 529.2345581054688 256.8288879394531 530.3357543945312 243.59458923339844 531.8116455078125 C 236.2003936767578 536.8617553710938 233.79652404785156 544.9341430664062 234.45706176757812 554.171630859375 C 237.2307586669922 562.30810546875 242.68006896972656 568.0507202148438 251.37261962890625 571.25537109375 C 261.60003662109375 572.746826171875 272.3538818359375 573.2776489257812 282.5554504394531 573.2539672851562 C 291.51043701171875 573.36962890625 298.5609436035156 573.904541015625 303.09033203125 575.0267333984375 C 304.76580810546875 576.6810913085938 303.5022277832031 578.563720703125 299.46356201171875 580.0614013671875 C 292.9853210449219 580.8722534179688 284.5631408691406 581.0234375 274.8443908691406 580.6563110351562 C 264.5667419433594 579.7581176757812 254.59091186523438 577.7947387695312 245.86758422851562 574.1012573242188 C 239.3147430419922 568.0344848632812 235.57894897460938 559.488525390625 235.02476501464844 548.5161743164062 C 237.05386352539062 535.4360961914062 239.40467834472656 520.8905029296875 241.53541564941406 505.8068542480469 C 243.08872985839844 491.1815185546875 243.19879150390625 478.1204528808594 241.05166625976562 467.7037658691406 C 236.6937255859375 461.00457763671875 230.65402221679688 458.8695983886719 223.82553100585938 461.79290771484375 C 217.19400024414062 469.33453369140625 212.30035400390625 480.00750732421875 209.88815307617188 492.14080810546875 C 210.78611755371094 504.6509704589844 213.24966430664062 516.4210205078125 212.6217498779297 526.0687866210938 C 207.09292602539062 532.6678466796875 197.70556640625 536.10107421875 187.28968811035156 536.696533203125 C 177.35430908203125 534.9428100585938 169.12399291992188 531.7965087890625 162.9529266357422 529.60205078125 C 158.4111785888672 533.51806640625 154.14010620117188 541.1898803710938 148.09628295898438 550.5645141601562 C 138.2657470703125 558.587158203125 128.2164764404297 566.3887939453125 119.83769989013672 572.964599609375 C 116.7235107421875 578.9859008789062 119.09986114501953 583.9345703125 124.94718933105469 587.4912109375 C 133.03500366210938 588.5869750976562 142.50973510742188 587.3977661132812 153.19259643554688 584.2833862304688 C 164.54806518554688 581.3834228515625 176.12200927734375 579.281982421875 187.07188415527344 577.5176391601562 C 196.75823974609375 576.1610717773438 204.85914611816406 575.963134765625 211.17529296875 576.8336791992188 C 214.80398559570312 578.80322265625 215.7235107421875 581.8212280273438 214.0889129638672 584.7123413085938 C 209.59686279296875 586.7106323242188 202.1190643310547 587.1258544921875 192.1240997314453 586.4642944335938 C 180.15074157714844 585.9676513671875 167.00259399414062 585.7174682617188 153.7050018310547 585.322021484375 C 141.42962646484375 584.0736694335938 131.21603393554688 581.270751953125 124.4617919921875 577.5712890625 C 122.37373352050781 573.869140625 125.62499237060547 570.3292846679688 133.39979553222656 565.92431640625 C 142.36346435546875 558.9797973632812 151.34361267089844 550.2396240234375 158.43638610839844 539.0970458984375 C 163.61598205566406 526.3311157226562 167.17056274414062 512.20947265625 169.1779022216797 497.6657409667969 C 169.85545349121094 482.7082824707031 169.5773162841797 467.3685302734375 168.33071899414062 452.0098876953125 C 166.07090759277344 436.8794860839844 162.7190704345703 422.0080871582031 158.1602783203125 407.74267578125 C 152.2369384765625 394.42987060546875 145.1648712158203 381.9654235839844 137.7217559814453 370.3417053222656 C 130.59518432617188 359.785400390625 123.6637191772461 351.0694580078125 116.22551727294922 345.6152038574219 C 107.759521484375 344.5791320800781 98.8125228881836 347.3052673339844 89.7938461303711 352.9845886230469 C 81.26952362060547 360.8494873046875 73.87345123291016 370.01678466796875 66.91407012939453 378.7412414550781 C 59.716617584228516 385.5823974609375 51.75255584716797 389.401611328125 42.623023986816406 390.02496337890625 C 33.65892028808594 392.4570617675781 25.347200393676758 392.8944396972656 17.913915634155273 389.91864013671875 C 12.3668794631958 382.0814208984375 6.644096374511719 373.7853088378906 3.2150046825408936 366.2196960449219 C 7.5859694480896 357.4692687988281 15.213624954223633 347.8780212402344 23.3365478515625 338.7113952636719 C 33.03937911987305 333.1383056640625 43.1707878112793 331.1440124511719 52.90953826904297 327.7369384765625 C 61.38123321533203 321.3572692871094 69.30400848388672 313.3702087402344 77.20381164550781 304.8209533691406 C 85.27806854248047 296.3411560058594 93.33087158203125 287.8700256347656 101.64196014404297 286.5440673828125" stroke-width="0.0" fill="rgb(245, 197, 112)" opacity="0.9999275" stroke="rgb(115, 224, 22)" stroke-opacity="0.63578844" stroke-linecap="round" stroke-linejoin="round"/>
    <path d="M 174.3070831298828 382.829833984375 C 175.19500732421875 382.8739013671875 176.0836639404297 382.961181640625 176.97433471679688 383.09814453125 C 177.8668670654297 383.24658203125 178.76535034179688 383.4142150878906 179.67431640625 383.5972900390625 C 180.59788513183594 383.7705078125 181.53892517089844 383.9344787597656 182.49655151367188 384.0985107421875 C 183.46646118164062 384.2624816894531 184.44168090820312 384.4232177734375 185.4132843017578 384.58917236328125 C 186.37071228027344 384.7609558105469 187.2988739013672 384.9400329589844 188.181396484375 385.1297607421875 C 189.00205993652344 385.33477783203125 189.7444610595703 385.56427001953125 190.392578125 385.8260498046875 C 190.93431091308594 386.1277160644531 191.36257934570312 386.4781188964844 191.67477416992188 386.88555908203125 C 191.87037658691406 387.3563232421875 191.9543914794922 387.8951416015625 191.93875122070312 388.50518798828125 C 191.83831787109375 389.1871643066406 191.670654296875 389.9394226074219 191.45616149902344 390.7562561035156 C 191.21658325195312 391.6290283203125 190.9744110107422 392.5437316894531 190.75177001953125 393.48284912109375 C 190.57003784179688 394.4289245605469 190.44895935058594 395.3636779785156 190.40489196777344 396.2674560546875 C 190.4495086669922 397.12078857421875 190.58961486816406 397.90704345703125 190.82882690429688 398.61260986328125 C 191.16908264160156 399.22650146484375 191.61170959472656 399.74078369140625 192.15858459472656 400.1512756347656 C 192.81301879882812 400.4588623046875 193.5803680419922 400.6690368652344 194.4675750732422 400.7911376953125 C 195.4849395751953 400.8388366699219 196.6446533203125 400.8287048339844 197.95989990234375 400.7777404785156 C 199.44520568847656 400.70269775390625 201.1146240234375 400.61907958984375 202.9812469482422 400.5404968261719 C 205.05516052246094 400.4772644042969 207.342529296875 400.4350891113281 209.8443603515625 400.41534423828125 C 212.55506896972656 400.41668701171875 215.46206665039062 400.4342956542969 218.54843139648438 400.4598388671875 C 221.79574584960938 400.4829406738281 225.1831817626953 400.492431640625 228.6883544921875 400.4776611328125 C 232.28970336914062 400.4286804199219 235.96754455566406 400.33685302734375 239.7056121826172 400.1961975097656 C 243.4915008544922 400.00592041015625 247.31419372558594 399.7709655761719 251.16517639160156 399.4983825683594 C 255.0372314453125 399.1992492675781 258.9236755371094 398.8883056640625 262.8162841796875 398.5868835449219 C 266.70306396484375 398.32421875 270.5678405761719 398.1336975097656 274.3909912109375 398.05145263671875 C 278.1437072753906 398.11456298828125 281.786376953125 398.3584289550781 285.2720947265625 398.8157653808594 C 288.5503845214844 399.51446533203125 291.56884765625 400.47308349609375 294.277099609375 401.6988220214844 C 296.6310119628906 403.1868896484375 298.59002685546875 404.9189453125 300.12420654296875 406.8664245605469 C 301.2217102050781 408.99761962890625 301.887939453125 411.2799377441406 302.14617919921875 413.6833801269531 C 302.0357971191406 416.1821594238281 301.6048889160156 418.7555847167969 300.9063720703125 421.3896484375 C 299.9913330078125 424.07415771484375 298.9027404785156 426.80364990234375 297.6770324707031 429.5743408203125 C 296.34527587890625 432.38238525390625 294.9269104003906 435.2204895019531 293.4339294433594 438.07305908203125 C 291.871826171875 440.921630859375 290.2413024902344 443.7377014160156 288.5411376953125 446.4825744628906 C 286.7690124511719 449.1120910644531 284.92108154296875 451.57525634765625 282.9953308105469 453.81781005859375 C 280.9940185546875 455.7823791503906 278.9230041503906 457.41180419921875 276.79156494140625 458.65277099609375 C 274.6141052246094 459.46258544921875 272.4079284667969 459.80963134765625 270.1918029785156 459.67767333984375 C 267.9855041503906 459.0627136230469 265.80645751953125 457.9721374511719 263.669189453125 456.4333190917969 C 261.5849914550781 454.49371337890625 259.56005859375 452.2225646972656 257.593505859375 449.7017517089844 C 255.6780242919922 447.019775390625 253.80291748046875 444.268310546875 251.9570770263672 441.54156494140625 C 250.1320037841797 438.9300537109375 248.32073974609375 436.51763916015625 246.51951599121094 434.37994384765625 C 244.72901916503906 432.5779113769531 242.95449829101562 431.1502990722656 241.20579528808594 430.10955810546875 C 239.4950408935547 429.4463806152344 237.83433532714844 429.1435546875 236.2341766357422 429.1778564453125 C 234.702880859375 429.52203369140625 233.2440185546875 430.1475524902344 231.8535919189453 431.0248718261719 C 230.52069091796875 432.1250305175781 229.2279815673828 433.419677734375 227.9519500732422 434.8824462890625 C 226.6633758544922 436.4908752441406 225.33056640625 438.22552490234375 223.92144775390625 440.06805419921875 C 222.40542602539062 441.9998474121094 220.75604248046875 444.00079345703125 218.95339965820312 446.0480041503906 C 216.98524475097656 448.11334228515625 214.84828186035156 450.1637878417969 212.54800415039062 452.16021728515625 C 210.09701538085938 454.0595397949219 207.5140380859375 455.8182678222656 204.82203674316406 457.39300537109375 C 202.04714965820312 458.74383544921875 199.21737670898438 459.8393859863281 196.36282348632812 460.6610107421875 C 193.5163116455078 461.20391845703125 190.71322631835938 461.47589111328125 187.98895263671875 461.49481201171875 C 185.37689208984375 461.2830810546875 182.90611267089844 460.8697814941406 180.60317993164062 460.2870788574219 C 178.48936462402344 459.5661926269531 176.57830810546875 458.73638916015625 174.88108825683594 457.8224182128906 C 173.39779663085938 456.83734130859375 172.11463928222656 455.7881774902344 171.00460815429688 454.67193603515625 C 170.0332794189453 453.4735107421875 169.16395568847656 452.17083740234375 168.36041259765625 450.7394714355469 C 167.5906982421875 449.1542663574219 166.83213806152344 447.3896179199219 166.07086181640625 445.4204406738281 C 165.30184936523438 443.2241516113281 164.52476501464844 440.7838439941406 163.7451934814453 438.09405517578125 C 162.97837829589844 435.16162109375 162.2457733154297 432.0023193359375 161.57188415527344 428.641845703125 C 160.9833526611328 425.1137390136719 160.5087127685547 421.4606628417969 160.17352294921875 417.7288513183594 C 159.9986572265625 413.96063232421875 159.99977111816406 410.1827087402344 160.1829376220703 406.4219970703125 C 160.5435333251953 402.68292236328125 161.060302734375 398.96429443359375 161.69403076171875 395.2758483886719 C 162.40626525878906 391.6434631347656 163.16104125976562 388.07440185546875 163.93092346191406 384.5665588378906 C 164.7025909423828 381.1376953125 165.47320556640625 377.7563781738281 174.3070831298828 382.829833984375" stroke-width="0.0" fill="rgb(252, 76, 2)" opacity="0.999647" stroke="rgb(231, 48, 19)" stroke-opacity="0.13409148" stroke-linecap="round" stroke-linejoin="round"/>
    <path d="M 126.7387466430664 332.83642578125 C 124.6773910522461 334.3749084472656 122.74071502685547 336.00372314453125 120.94288635253906 337.4690246582031 C 119.33679962158203 338.9880065917969 118.15245819091797 340.5367736816406 117.07440948486328 341.9103088378906 C 116.17047882080078 343.0030822753906 115.55467987060547 343.932373046875 115.21575927734375 344.77471923828125 C 115.01556396484375 345.57830810546875 114.86447143554688 346.4208984375 114.78565216064453 347.3362121582031 C 114.78517150878906 348.3975524902344 114.91218566894531 349.76947021484375 115.14485931396484 351.4730529785156 C 115.404052734375 353.4683837890625 115.3303451538086 355.7781677246094 115.20040893554688 358.36602783203125 C 115.1198959350586 361.0865173339844 115.12664031982422 363.8013000488281 115.28583526611328 366.41912841796875 C 115.4374008178711 368.8404846191406 115.37393188476562 370.9079895019531 115.45860290527344 372.41705322265625 C 116.0113296508789 373.4107971191406 116.0870132446289 374.2158508300781 116.13536071777344 374.76422119140625 C 116.15149688720703 375.1915588378906 116.31359100341797 375.86370849609375 116.65328216552734 376.93890380859375 C 117.05492401123047 378.3775329589844 117.9027328491211 380.4226989746094 118.92869567871094 383.0846862792969 C 120.88375091552734 385.5477294921875 123.40299987792969 388.6598815917969 126.42364501953125 391.90411376953125 C 130.1719512939453 394.54119873046875 134.5753631591797 396.5289306640625 139.56173706054688 397.3249206542969 C 144.57456970214844 397.47381591796875 149.19631958007812 396.75213623046875 152.78858947753906 394.3891296386719 C 155.62229919433594 390.2592468261719 158.78469848632812 385.60333251953125 162.9625701904297 382.0015869140625 C 168.3219451904297 379.7957763671875 174.62168884277344 378.9997863769531 181.59774780273438 379.3203430175781 C 189.09710693359375 380.5105285644531 197.1409454345703 382.099853515625 205.6267852783203 383.7886047363281 C 214.303466796875 385.2912902832031 223.11019897460938 386.43511962890625 232.037841796875 387.20672607421875 C 241.03952026367188 387.5408630371094 250.0455780029297 387.3929443359375 258.9645690917969 386.7203674316406 C 267.6354675292969 385.64764404296875 275.9448547363281 384.0538330078125 283.8219299316406 381.9731140136719 C 291.2450866699219 379.8618469238281 298.0292663574219 378.12481689453125 304.0237731933594 377.09735107421875 C 309.0969543457031 377.1930847167969 312.96405029296875 378.5140380859375 315.3860168457031 381.17352294921875 C 316.17279052734375 385.2539978027344 315.7607421875 390.6727294921875 314.76214599609375 397.22900390625 C 313.6492004394531 404.6425476074219 311.83642578125 412.3555603027344 310.0931091308594 420.8066101074219 C 308.22784423828125 429.9839782714844 305.7547302246094 438.4397277832031 304.04803466796875 446.02081298828125 C 302.39666748046875 453.51593017578125 301.2435607910156 460.0871887207031 300.7671813964844 465.21051025390625 C 299.88848876953125 468.8229064941406 298.056396484375 471.1260681152344 295.4173889160156 472.5068664550781 C 292.27197265625 473.63043212890625 288.5518493652344 473.8199768066406 283.7977294921875 473.1885070800781 C 278.2275695800781 472.2001647949219 271.92633056640625 471.07354736328125 265.2999267578125 470.0741882324219 C 258.8972473144531 469.5244140625 253.20448303222656 469.8704528808594 248.9097137451172 471.73870849609375 C 246.6020050048828 475.35101318359375 245.9017333984375 480.24041748046875 245.88482666015625 485.7171630859375 C 245.66079711914062 491.115234375 244.98342895507812 495.1664733886719 243.66909790039062 497.005126953125 C 242.2357940673828 496.07611083984375 241.93470764160156 492.5802307128906 242.6435089111328 487.4911193847656 C 243.22267150878906 481.6575012207031 243.26295471191406 475.8721618652344 241.95436096191406 471.1484375 C 238.68093872070312 468.75885009765625 235.13682556152344 466.9898681640625 233.37860107421875 463.695556640625 C 233.0352783203125 459.1022033691406 232.1349639892578 455.429931640625 230.16818237304688 454.35687255859375 C 228.24302673339844 456.6246643066406 227.05018615722656 461.3944396972656 225.23492431640625 467.0713195800781 C 221.489013671875 472.0317077636719 217.6925506591797 476.34454345703125 215.37603759765625 480.7205505371094 C 214.47555541992188 484.8704528808594 213.61685180664062 487.5570983886719 212.6390380859375 488.01507568359375 C 211.4004364013672 486.2464294433594 209.2958221435547 482.9642028808594 205.80763244628906 479.34686279296875 C 201.05027770996094 476.1942138671875 195.085205078125 473.7108459472656 188.39251708984375 472.0093078613281 C 181.71429443359375 471.27227783203125 175.82923889160156 471.83099365234375 171.51499938964844 473.7772216796875 C 169.3897705078125 477.4440612792969 168.6452178955078 482.6180419921875 168.7382354736328 489.0328063964844 C 169.11920166015625 496.2261047363281 168.62542724609375 503.7082214355469 167.04286193847656 511.0414733886719 C 165.62255859375 518.0341796875 164.23788452148438 524.169677734375 162.20790100097656 528.9528198242188 C 160.78890991210938 532.3153686523438 160.08676147460938 533.7455444335938 159.21990966796875 532.71923828125 C 158.704833984375 529.201904296875 159.0592803955078 523.9984130859375 160.59918212890625 517.79931640625 C 162.7130889892578 511.1607666015625 164.73739624023438 504.27203369140625 166.03976440429688 497.1374206542969 C 166.4814910888672 489.8301696777344 166.6824188232422 482.7645263671875 165.54071044921875 476.28717041015625 C 162.19805908203125 470.5472106933594 158.94992065429688 464.4278869628906 157.2833251953125 457.11822509765625 C 156.62586975097656 448.7701721191406 155.91758728027344 440.018310546875 155.0132293701172 431.1311340332031 C 153.97421264648438 422.6964416503906 153.27845764160156 414.7305908203125 153.13519287109375 407.70867919921875 C 153.41294860839844 402.189208984375 152.85467529296875 398.49609375 150.49742126464844 396.7650146484375 C 146.1335906982422 396.7344055175781 140.71803283691406 396.9157409667969 134.8032989501953 395.39251708984375 C 128.19432067871094 393.43798828125 122.34699249267578 389.3564758300781 118.3064193725586 383.3923034667969 C 115.55780029296875 376.6903991699219 114.58997344970703 369.13311767578125 115.0458755493164 361.7074890136719 C 115.38520812988281 354.7536315917969 115.3024673461914 348.9515075683594 114.92153930664062 345.183349609375 C 113.86800384521484 343.675537109375 111.94689178466797 344.5307922363281 108.51142120361328 347.0093688964844 C 103.33473205566406 349.51031494140625 96.7816390991211 352.405029296875 89.59261322021484 354.8313293457031 C 81.97528076171875 357.0798645019531 74.3338851928711 359.352783203125 126.7387466430664 332.83642578125" stroke-width="0.0" fill="rgb(241, 77, 9)" opacity="0.9992935" stroke="rgb(114, 53, 169)" stroke-opacity="0.27271873" stroke-linecap="round" stroke-linejoin="round"/>
    <path d="M 289.0 15.0 C 290.0 15.0 291.0 16.0 292.0 16.0 C 293.0 15.0 294.0 15.0 295.0 15.0 C 296.0 15.0 296.0 16.0 297.0 17.0 C 298.0 17.0 302.0 17.0 303.0 23.0 C 302.0 29.0 306.0 33.0 311.0 34.0 C 316.0 36.0 315.0 39.0 318.0 43.0 C 318.0 47.0 318.0 53.0 319.0 59.0 C 320.0 64.0 323.0 60.0 326.0 65.0 C 332.0 65.0 335.0 67.0 337.0 68.0 C 334.0 73.0 333.0 78.0 328.0 79.0 C 322.0 78.0 316.0 79.0 314.0 82.0 C 310.0 78.0 304.0 78.0 302.0 84.0 C 304.0 90.0 304.0 91.0 300.0 94.0 C 296.0 94.0 292.0 96.0 287.0 95.0 C 283.0 94.0 277.0 94.0 271.0 94.0 C 265.0 94.0 259.0 94.0 253.0 93.0 C 257.0 90.0 257.0 84.0 254.0 78.0 C 248.0 78.0 242.0 78.0 236.0 78.0 C 230.0 78.0 226.0 78.0 222.0 81.0 C 222.0 87.0 222.0 93.0 222.0 99.0 C 222.0 105.0 226.0 108.0 228.0 111.0 C 224.0 108.0 220.0 110.0 214.0 110.0 C 208.0 110.0 202.0 110.0 196.0 110.0 C 190.0 111.0 184.0 110.0 180.0 114.0 C 179.0 110.0 173.0 110.0 167.0 110.0 C 161.0 110.0 159.0 111.0 153.0 110.0 C 147.0 110.0 142.0 113.0 142.0 119.0 C 142.0 125.0 143.0 131.0 142.0 137.0 C 143.0 143.0 144.0 143.0 138.0 143.0 C 132.0 142.0 126.0 144.0 126.0 150.0 C 126.0 156.0 128.0 161.0 129.0 167.0 C 126.0 171.0 129.0 175.0 126.0 179.0 C 126.0 185.0 125.0 190.0 119.0 190.0 C 115.0 190.0 109.0 191.0 103.0 190.0 C 97.0 190.0 91.0 190.0 85.0 190.0 C 79.0 190.0 73.0 190.0 67.0 190.0 C 65.0 186.0 65.0 180.0 65.0 174.0 C 63.0 169.0 65.0 164.0 65.0 158.0 C 70.0 161.0 76.0 160.0 81.0 158.0 C 81.0 152.0 81.0 146.0 79.0 140.0 C 80.0 134.0 81.0 128.0 81.0 122.0 C 84.0 120.0 88.0 117.0 89.0 113.0 C 95.0 113.0 97.0 108.0 97.0 102.0 C 98.0 97.0 104.0 97.0 110.0 97.0 C 112.0 92.0 108.0 91.0 112.0 87.0 C 113.0 81.0 119.0 81.0 124.0 78.0 C 128.0 75.0 129.0 69.0 131.0 65.0 C 137.0 65.0 140.0 60.0 145.0 57.0 C 145.0 51.0 149.0 49.0 155.0 49.0 C 161.0 47.0 161.0 41.0 161.0 35.0 C 165.0 33.0 169.0 33.0 175.0 33.0 C 181.0 33.0 187.0 33.0 190.0 36.0 C 190.0 42.0 192.0 48.0 198.0 49.0 C 204.0 49.0 210.0 49.0 216.0 49.0 C 222.0 49.0 224.0 44.0 225.0 38.0 C 227.0 33.0 231.0 33.0 237.0 33.0 C 241.0 29.0 241.0 23.0 246.0 23.0 C 247.0 17.0 253.0 17.0 259.0 17.0 C 265.0 17.0 271.0 17.0 277.0 17.0 C 283.0 17.0 288.0 15.0 289.0 15.0" stroke-width="0.0" fill="rgb(61, 40, 37)" opacity="1.0" stroke="rgb(18, 101, 131)" stroke-opacity="0.3657945" stroke-linecap="round" stroke-linejoin="round"/>
    <path d="M 365.0 267.0 C 366.0 267.0 367.0 268.0 368.0 268.0 C 369.0 268.0 370.0 268.0 371.0 268.0 C 371.0 269.0 372.0 270.0 373.0 270.0 C 374.0 271.0 375.0 271.0 376.0 272.0 C 377.0 272.0 378.0 273.0 379.0 273.0 C 380.0 274.0 381.0 274.0 382.0 275.0 C 383.0 275.0 384.0 275.0 385.0 276.0 C 386.0 277.0 387.0 277.0 388.0 278.0 C 389.0 278.0 390.0 279.0 391.0 279.0 C 392.0 280.0 393.0 281.0 394.0 281.0 C 395.0 282.0 396.0 283.0 397.0 283.0 C 398.0 284.0 399.0 284.0 400.0 285.0 C 401.0 286.0 402.0 287.0 403.0 288.0 C 404.0 288.0 405.0 289.0 406.0 289.0 C 407.0 290.0 408.0 291.0 409.0 292.0 C 410.0 293.0 411.0 294.0 412.0 294.0 C 413.0 294.0 414.0 294.0 415.0 293.0 C 416.0 293.0 417.0 293.0 418.0 292.0 C 419.0 292.0 420.0 292.0 421.0 292.0 C 422.0 291.0 423.0 291.0 424.0 291.0 C 425.0 290.0 426.0 290.0 427.0 290.0 C 428.0 290.0 429.0 289.0 430.0 289.0 C 431.0 289.0 432.0 289.0 433.0 288.0 C 434.0 287.0 434.0 286.0 435.0 286.0 C 437.0 285.0 438.0 282.0 441.0 279.0 C 444.0 279.0 447.0 279.0 449.0 282.0 C 450.0 285.0 449.0 288.0 449.0 291.0 C 448.0 294.0 446.0 293.0 443.0 294.0 C 443.0 297.0 445.0 298.0 448.0 299.0 C 450.0 301.0 453.0 301.0 456.0 303.0 C 459.0 305.0 462.0 306.0 465.0 308.0 C 468.0 310.0 470.0 312.0 473.0 314.0 C 473.0 317.0 473.0 320.0 471.0 321.0 C 469.0 323.0 466.0 323.0 463.0 325.0 C 462.0 327.0 465.0 329.0 467.0 332.0 C 467.0 335.0 466.0 338.0 463.0 340.0 C 460.0 341.0 461.0 344.0 459.0 346.0 C 456.0 347.0 453.0 347.0 450.0 346.0 C 447.0 346.0 444.0 344.0 441.0 344.0 C 442.0 347.0 443.0 350.0 444.0 353.0 C 445.0 356.0 444.0 359.0 441.0 360.0 C 438.0 360.0 435.0 359.0 432.0 356.0 C 430.0 353.0 428.0 350.0 425.0 347.0 C 424.0 344.0 421.0 344.0 419.0 343.0 C 416.0 342.0 413.0 341.0 410.0 339.0 C 407.0 337.0 404.0 336.0 401.0 334.0 C 398.0 333.0 395.0 332.0 392.0 331.0 C 389.0 330.0 386.0 330.0 384.0 329.0 C 381.0 328.0 378.0 327.0 375.0 327.0 C 372.0 327.0 369.0 326.0 366.0 326.0 C 363.0 325.0 360.0 324.0 357.0 324.0 C 354.0 323.0 351.0 323.0 349.0 322.0 C 346.0 321.0 343.0 320.0 344.0 317.0 C 346.0 314.0 349.0 315.0 351.0 316.0 C 351.0 313.0 352.0 310.0 354.0 307.0 C 355.0 304.0 356.0 301.0 358.0 298.0 C 359.0 295.0 360.0 292.0 361.0 289.0 C 362.0 286.0 363.0 283.0 364.0 280.0 C 366.0 277.0 366.0 274.0 367.0 271.0 C 364.0 270.0 364.0 267.0 365.0 267.0" stroke-width="0.0" fill="rgb(248, 189, 112)" opacity="1.0" stroke="rgb(52, 74, 141)" stroke-opacity="0.452024" stroke-linecap="round" stroke-linejoin="round"/>
    <path d="M 204.0 138.0 C 205.0 138.0 205.0 139.0 205.0 140.0 C 205.0 141.0 206.0 142.0 207.0 143.0 C 208.0 144.0 209.0 145.0 210.0 145.0 C 211.0 145.0 212.0 145.0 212.0 146.0 C 212.0 147.0 211.0 148.0 210.0 149.0 C 209.0 150.0 208.0 150.0 207.0 150.0 C 206.0 151.0 205.0 151.0 204.0 151.0 C 203.0 150.0 202.0 150.0 201.0 149.0 C 200.0 148.0 200.0 147.0 199.0 146.0 C 199.0 145.0 199.0 144.0 199.0 143.0 C 199.0 142.0 200.0 141.0 201.0 140.0 C 201.0 139.0 202.0 138.0 204.0 138.0" stroke-width="0.0" fill="rgb(6, 1, 1)" opacity="1.0" stroke="rgb(164, 234, 181)" stroke-opacity="0.99039906" stroke-linecap="round" stroke-linejoin="round"/>
  </g>
</svg>
