<?xml version="1.0" ?>
<svg xmlns="http://www.w3.org/2000/svg" version="1.1" width="474" height="596">
  <defs/>
  <g>
    <path d="M 268.0286560058594 -2.9404239654541016 C 269.63201904296875 -2.100450038909912 269.6441650390625 -2.487762451171875 270.51617431640625 -2.6296334266662598 C 270.8299255371094 -3.2549712657928467 270.5106506347656 -3.8100359439849854 270.5755615234375 -4.031977653503418 C 271.64971923828125 -4.3200249671936035 271.15185546875 -4.579830169677734 271.0719909667969 -4.791019916534424 C 272.47210693359375 -4.566208839416504 272.6650390625 -4.427554130554199 273.31109619140625 -4.100372314453125 C 275.7906494140625 -2.5036122798919678 278.70599365234375 -2.7634315490722656 293.11883544921875 -1.0196466445922852 C 281.5702819824219 1.5600796937942505 285.9726867675781 0.48072269558906555 298.467041015625 3.858701229095459 C 304.49639892578125 5.63032341003418 311.5394592285156 8.366998672485352 318.7288513183594 10.904500961303711 C 327.0838928222656 14.734562873840332 336.1461181640625 19.14051628112793 344.0893249511719 23.928356170654297 C 352.6722717285156 28.77662467956543 360.3836669921875 34.829307556152344 368.28863525390625 40.755897521972656 C 377.16387939453125 47.576515197753906 384.37066650390625 55.581878662109375 391.99658203125 63.23245620727539 C 399.4437561035156 71.32115936279297 406.27447509765625 79.49559783935547 412.2916564941406 88.1076431274414 C 418.1619567871094 96.66776275634766 423.807373046875 104.97858428955078 428.5521545410156 113.62259674072266 C 433.4897766113281 120.85739135742188 435.16009521484375 128.8377685546875 432.14300537109375 135.69415283203125 C 428.8056640625 143.44769287109375 423.05792236328125 152.4219207763672 415.7563171386719 160.98382568359375 C 410.0760192871094 168.07113647460938 400.3780212402344 177.90260314941406 393.2681579589844 184.42984008789062 C 385.46136474609375 191.2229461669922 377.12298583984375 197.5781707763672 367.3935852050781 204.53150939941406 C 359.4371032714844 210.09141540527344 348.23175048828125 217.37686157226562 340.5743713378906 219.82528686523438 C 326.1695861816406 225.21104431152344 317.3719177246094 223.84242248535156 299.8312072753906 233.23721313476562 C 305.7322692871094 217.12940979003906 319.4801330566406 216.94822692871094 325.5650939941406 210.30709838867188 C 333.05352783203125 202.63629150390625 341.14215087890625 194.27256774902344 348.7761535644531 185.86459350585938 C 355.2796325683594 177.3123016357422 360.5155334472656 169.5555877685547 364.1014099121094 161.54396057128906 C 366.81561279296875 153.19866943359375 368.0093078613281 146.69482421875 367.2301025390625 141.1082763671875 C 365.34149169921875 135.14059448242188 362.4574890136719 129.670654296875 358.0818786621094 125.69749450683594 C 352.7748107910156 121.20317840576172 347.7317810058594 122.71092987060547 344.3631286621094 114.65303039550781 C 340.5058288574219 106.73040008544922 329.3370361328125 101.52706146240234 321.8975830078125 100.73907470703125 C 315.07916259765625 99.42790985107422 293.6397705078125 106.45771789550781 316.5333557128906 104.12432861328125 C 332.5517272949219 122.7790756225586 290.13568115234375 112.15811157226562 281.6212463378906 109.98542785644531 C 275.2996520996094 109.53900146484375 268.3293762207031 109.75248718261719 262.6384582519531 110.93373107910156 C 257.1636962890625 112.07503509521484 251.9014892578125 112.5981674194336 250.5267333984375 114.681640625 C 243.0658416748047 117.07640838623047 237.43862915039062 117.28540802001953 232.4590606689453 118.95357513427734 C 227.1996612548828 121.02555084228516 221.44900512695312 123.20426177978516 215.5581512451172 125.54778289794922 C 209.59530639648438 127.87751770019531 203.4373016357422 130.118408203125 196.95333862304688 132.47401428222656 C 189.69058227539062 134.70481872558594 182.1930389404297 136.4867706298828 175.24383544921875 138.39944458007812 C 169.1604461669922 140.4043731689453 163.1464080810547 142.2279510498047 158.29771423339844 149.2835693359375 C 155.0736083984375 151.73516845703125 147.98927307128906 152.69749450683594 147.33262634277344 156.9945831298828 C 144.50250244140625 163.22695922851562 144.1962432861328 169.9610595703125 145.6763916015625 177.01344299316406 C 148.55335998535156 184.5989227294922 152.90484619140625 192.1486358642578 158.68373107910156 200.1776885986328 C 165.60630798339844 208.0421600341797 173.34848022460938 215.26771545410156 181.50021362304688 221.65919494628906 C 189.74510192871094 227.23757934570312 197.52975463867188 232.0204315185547 204.3204345703125 235.99705505371094 C 210.28150939941406 238.54568481445312 215.18081665039062 235.0430908203125 260.084716796875 244.0727081298828 C 215.65174865722656 260.26171875 208.4424591064453 244.5617218017578 194.80213928222656 241.50657653808594 C 180.79263305664062 238.7519073486328 177.6574249267578 240.7696533203125 162.7937469482422 242.7230987548828 C 165.06723022460938 238.663818359375 162.16624450683594 242.27427673339844 141.6498565673828 239.75076293945312 C 133.48214721679688 239.75843811035156 120.51268768310547 236.50917053222656 111.41780090332031 234.2520751953125 C 104.03116607666016 232.33795166015625 95.44596099853516 228.78872680664062 87.83821105957031 226.05735778808594 C 79.05111694335938 222.59414672851562 68.82213592529297 217.779052734375 62.96177291870117 213.86569213867188 C 55.758522033691406 209.2404327392578 55.99915313720703 207.39744567871094 53.53641128540039 201.33865356445312 C 52.856201171875 191.10198974609375 54.91778564453125 181.3439178466797 55.7293586730957 173.26193237304688 C 57.985443115234375 161.3898468017578 59.78315353393555 154.00201416015625 62.89997482299805 143.87847900390625 C 64.24681854248047 138.59193420410156 67.71431732177734 128.4815673828125 71.31702423095703 121.75403594970703 C 73.60181427001953 114.48090362548828 79.1654281616211 105.08763122558594 83.66999053955078 96.73542022705078 C 88.69740295410156 89.27324676513672 93.73690032958984 80.79187774658203 101.02654266357422 72.391845703125 C 106.75090789794922 65.1955795288086 115.00928497314453 56.47060012817383 123.18524169921875 49.60633850097656 C 130.37594604492188 43.20711135864258 138.65155029296875 36.945858001708984 146.3384246826172 31.590572357177734 C 155.06045532226562 25.627349853515625 163.7476806640625 24.13319206237793 175.34970092773438 23.502044677734375 C 178.7117462158203 23.73841094970703 191.08168029785156 24.322980880737305 198.2494354248047 27.034339904785156 C 221.14999389648438 31.829313278198242 211.5891571044922 37.20173645019531 210.6539306640625 13.631824493408203 C 218.85235595703125 35.663639068603516 212.82135009765625 27.91499137878418 225.56069946289062 27.759782791137695 C 232.7916259765625 19.648788452148438 239.4662322998047 12.468436241149902 249.42198181152344 7.119154453277588 C 258.2604675292969 1.8407081365585327 270.7326965332031 0.5708962082862854 268.0286560058594 -2.9404239654541016" stroke-width="0.0" fill="rgb(64, 38, 31)" opacity="0.9999796" stroke="rgb(132, 70, 107)" stroke-opacity="0.70199823" stroke-linecap="round" stroke-linejoin="round"/>
    <path d="M 318.0616149902344 225.65554809570312 C 313.5357360839844 227.48141479492188 303.4148864746094 234.33511352539062 291.49407958984375 237.06256103515625 C 279.1757507324219 240.17752075195312 289.44439697265625 238.51986694335938 295.56463623046875 239.58486938476562 C 293.8307800292969 247.07852172851562 290.8442687988281 260.4575500488281 293.7230224609375 260.3659973144531 C 280.6174621582031 260.58612060546875 271.6392517089844 261.7561340332031 253.00225830078125 253.67410278320312 C 244.30393981933594 249.7302703857422 236.48695373535156 246.40048217773438 230.5033416748047 248.95204162597656 C 229.2683563232422 250.6718292236328 232.33851623535156 250.92727661132812 239.26153564453125 248.81605529785156 C 248.6884765625 251.44903564453125 260.74285888671875 257.8211975097656 274.1501159667969 260.3378601074219 C 289.8697204589844 255.96734619140625 291.32867431640625 267.8865661621094 296.07958984375 280.32415771484375 C 301.5621337890625 289.1222839355469 306.2592468261719 302.3786315917969 309.61566162109375 310.69073486328125 C 307.7813720703125 307.456787109375 310.7345886230469 308.9544372558594 308.68243408203125 312.15740966796875 C 308.65850830078125 298.2928771972656 296.906982421875 285.24810791015625 291.5281982421875 266.23089599609375 C 287.74053955078125 267.4127502441406 294.58587646484375 248.391357421875 294.9964599609375 239.27992248535156 C 311.19073486328125 241.74044799804688 333.3041687011719 245.31773376464844 359.87054443359375 259.6366882324219 C 369.4219055175781 270.377197265625 379.97552490234375 271.6412353515625 394.4127502441406 281.0107727050781 C 406.1003112792969 287.8828430175781 410.31048583984375 293.65338134765625 412.5545654296875 295.1297302246094 C 418.1866760253906 292.8169250488281 428.8129577636719 288.9437561035156 451.135009765625 283.0118103027344 C 438.74517822265625 308.9693603515625 458.2595520019531 293.1881103515625 477.3954772949219 320.3604736328125 C 461.9559020996094 324.2086486816406 442.7031555175781 337.3186950683594 438.4594421386719 353.3289794921875 C 414.9230651855469 344.9960632324219 395.5462951660156 326.1973876953125 378.6896667480469 328.8756103515625 C 336.3358459472656 320.1822509765625 352.22088623046875 325.96044921875 327.4366149902344 324.2388000488281 C 315.5965576171875 348.708740234375 332.2312316894531 387.9140319824219 316.8872985839844 380.9792175292969 C 313.8809509277344 419.2633972167969 303.1682434082031 453.80621337890625 292.6011962890625 470.83343505859375 C 286.18475341796875 484.98199462890625 289.6341552734375 516.3828735351562 282.99957275390625 525.6928100585938 C 268.41607666015625 527.5865478515625 253.59442138671875 528.4070434570312 240.64324951171875 528.93896484375 C 238.7461395263672 540.2534790039062 238.30238342285156 554.4671630859375 238.4039764404297 563.1721801757812 C 255.7751922607422 570.9925537109375 262.44952392578125 570.9113159179688 313.0483093261719 571.6614990234375 C 321.29644775390625 571.1958618164062 338.2376403808594 571.5866088867188 342.98822021484375 571.7579956054688 C 339.5134582519531 579.3533935546875 320.9273376464844 585.0093994140625 297.55322265625 584.6331787109375 C 275.8708190917969 584.48291015625 241.30516052246094 582.0078125 238.30291748046875 576.0496215820312 C 226.97775268554688 567.8262329101562 239.39901733398438 522.3634033203125 235.04066467285156 507.9508361816406 C 253.13328552246094 501.8824768066406 244.83438110351562 462.1724548339844 232.6874542236328 455.2366638183594 C 222.96939086914062 451.8306884765625 231.28561401367188 462.5907897949219 225.02432250976562 474.0565185546875 C 212.40576171875 476.72247314453125 217.62510681152344 475.9462890625 213.3203582763672 492.43408203125 C 211.77670288085938 508.8448486328125 209.02003479003906 512.4901123046875 213.3859405517578 528.7261352539062 C 214.85159301757812 550.952880859375 221.06134033203125 581.704345703125 215.43678283691406 583.4672241210938 C 204.94976806640625 587.1497192382812 194.4664764404297 584.269287109375 174.5835723876953 591.9904174804688 C 150.9989013671875 599.0772705078125 122.23686218261719 595.9971313476562 118.13505554199219 587.881591796875 C 113.84453582763672 568.041015625 124.50434875488281 582.8049926757812 152.0994873046875 582.5469970703125 C 180.14404296875 574.5838623046875 185.90089416503906 576.177001953125 212.81773376464844 572.7537231445312 C 214.6855926513672 574.8423461914062 211.8013458251953 540.8997802734375 209.63397216796875 530.4024658203125 C 195.4198760986328 530.048095703125 180.99940490722656 531.4334716796875 170.7436065673828 527.88037109375 C 157.25714111328125 523.8114624023438 142.92129516601562 522.9978637695312 156.5134735107422 507.9530334472656 C 176.30740356445312 504.4915771484375 172.72869873046875 475.5904541015625 157.8572540283203 467.907958984375 C 155.23353576660156 437.65985107421875 151.63607788085938 411.7927551269531 152.52464294433594 398.28021240234375 C 117.87718963623047 399.4732971191406 111.9972152709961 379.58636474609375 113.88639068603516 343.0225524902344 C 80.09149169921875 338.1002502441406 96.97278594970703 372.13555908203125 79.76177215576172 364.6084899902344 C 54.230506896972656 366.6403503417969 43.523223876953125 355.0768127441406 40.148197174072266 332.00506591796875 C 60.57334518432617 322.4772644042969 70.17353820800781 303.86553955078125 80.92595672607422 296.92144775390625 C 88.71807098388672 288.8298645019531 94.00570678710938 289.7305603027344 89.37786102294922 285.5208740234375 C 91.56575012207031 278.8948059082031 100.24612426757812 272.58392333984375 110.94064331054688 265.2528991699219 C 127.35982513427734 254.53221130371094 140.8329620361328 248.3787841796875 162.28065490722656 240.97447204589844 C 176.99021911621094 243.49623107910156 178.1718292236328 235.7477264404297 192.37696838378906 239.19497680664062 C 185.75950622558594 263.8174743652344 183.01458740234375 285.0957946777344 173.36521911621094 298.3216552734375 C 165.17138671875 315.28607177734375 163.6710662841797 333.9613342285156 157.5858917236328 347.796875 C 153.3568572998047 361.7031555175781 153.9529571533203 357.100341796875 154.2978057861328 358.95147705078125 C 157.92921447753906 349.8553771972656 161.7024383544922 330.76123046875 167.03680419921875 313.4009094238281 C 169.0213623046875 300.9114685058594 178.27288818359375 293.0073547363281 181.8429412841797 278.4589538574219 C 187.59405517578125 265.9131164550781 189.72805786132812 247.2611846923828 193.05430603027344 239.93817138671875 C 211.88966369628906 247.1336212158203 235.95574951171875 246.6802978515625 255.6019744873047 244.90916442871094 C 249.7891082763672 234.36099243164062 268.11016845703125 246.69195556640625 318.0616149902344 225.65554809570312" stroke-width="0.0" fill="rgb(232, 106, 162)" opacity="0.99922246" stroke="rgb(201, 16, 132)" stroke-opacity="0.47924513" stroke-linecap="round" stroke-linejoin="round"/>
    <path d="M 335.41290283203125 94.5774917602539 C 345.4168701171875 94.27751159667969 346.90118408203125 94.207275390625 339.4889221191406 93.74761962890625 C 344.9556579589844 93.35538482666016 347.1605529785156 94.37812042236328 346.61798095703125 94.93614959716797 C 343.8891296386719 92.38761901855469 349.0893859863281 97.321533203125 352.0426940917969 99.97434997558594 C 349.5984802246094 97.0155258178711 356.1218566894531 97.82775115966797 351.7889404296875 98.07807922363281 C 348.78472900390625 98.41201782226562 357.84576416015625 105.33194732666016 358.3052978515625 108.60157012939453 C 355.2085266113281 100.78962707519531 358.90185546875 105.1522445678711 358.0315246582031 102.86732482910156 C 355.25634765625 106.0007553100586 357.65570068359375 105.24100494384766 357.25177001953125 104.97233581542969 C 355.0552062988281 106.25117492675781 362.09869384765625 108.36048126220703 355.5979309082031 104.85311889648438 C 363.2432861328125 110.62006378173828 365.4920654296875 119.99382781982422 366.1886291503906 121.04317474365234 C 369.24481201171875 127.94802856445312 369.7314758300781 134.56002807617188 370.17156982421875 134.81671142578125 C 370.2076110839844 133.2366943359375 371.8947448730469 147.9661407470703 370.471923828125 150.77720642089844 C 371.1969299316406 147.92726135253906 369.44268798828125 159.8230438232422 368.9395751953125 163.15835571289062 C 366.43438720703125 168.5046844482422 364.5677185058594 176.2954864501953 363.8418273925781 175.51766967773438 C 361.9601745605469 180.68556213378906 357.4720153808594 187.1847381591797 353.9598388671875 191.8882293701172 C 350.7373046875 196.0013885498047 347.2972412109375 200.25814819335938 344.2698974609375 202.55259704589844 C 343.67083740234375 203.25994873046875 337.9631652832031 208.20498657226562 334.775146484375 210.7142791748047 C 328.97052001953125 215.42938232421875 323.4383544921875 218.76849365234375 312.7958679199219 224.90597534179688 C 301.5224914550781 229.8300323486328 314.0903015136719 230.9027099609375 307.51397705078125 229.0382080078125 C 311.2633972167969 223.97097778320312 300.46026611328125 231.3323211669922 296.6683349609375 232.95606994628906 C 297.7997741699219 232.55494689941406 288.541259765625 235.75015258789062 279.2674865722656 237.95657348632812 C 283.6370849609375 237.24302673339844 270.94805908203125 238.97023010253906 267.1606140136719 240.3709716796875 C 269.8379211425781 241.8673553466797 264.8505554199219 242.75701904296875 257.2796630859375 243.19029235839844 C 256.13568115234375 242.6374969482422 257.09454345703125 248.307373046875 251.55601501464844 250.7534942626953 C 249.0492401123047 253.2525634765625 241.13368225097656 253.7998504638672 233.18527221679688 255.70037841796875 C 200.76348876953125 244.1895294189453 211.70663452148438 250.26327514648438 269.9532470703125 242.91539001464844 C 218.25233459472656 245.04177856445312 219.622314453125 243.57542419433594 203.57510375976562 240.18533325195312 C 201.2510528564453 239.31492614746094 193.5921173095703 236.9076690673828 189.87916564941406 234.9524383544922 C 186.16598510742188 233.4400177001953 179.940673828125 230.5050811767578 173.36158752441406 225.70555114746094 C 173.6486358642578 225.4593963623047 169.7096710205078 223.326904296875 166.86708068847656 220.73629760742188 C 162.10462951660156 216.81895446777344 159.44190979003906 213.5672149658203 155.1392364501953 208.46124267578125 C 155.05368041992188 208.7271270751953 150.7418975830078 203.0464630126953 147.62135314941406 195.64146423339844 C 146.44598388671875 192.8735809326172 144.8719024658203 188.43968200683594 144.76255798339844 186.87818908691406 C 142.19285583496094 175.67723083496094 143.0309600830078 170.09219360351562 143.6368408203125 162.77833557128906 C 145.0714569091797 158.52333068847656 147.14564514160156 149.17593383789062 149.2505340576172 150.61068725585938 C 151.1870574951172 148.27976989746094 160.78163146972656 144.05206298828125 155.52102661132812 145.72242736816406 C 157.83407592773438 140.93804931640625 157.98951721191406 125.44894409179688 157.23709106445312 121.85755920410156 C 158.7891387939453 125.79107666015625 164.12408447265625 132.24517822265625 164.49630737304688 135.6133270263672 C 166.52210998535156 133.74595642089844 165.86581420898438 138.18338012695312 170.7828826904297 137.7962646484375 C 176.544677734375 135.00308227539062 182.58544921875 131.9347381591797 188.2854461669922 130.17442321777344 C 195.12950134277344 127.35906219482422 202.6349639892578 124.65330505371094 201.4536590576172 124.82682800292969 C 204.67892456054688 124.8916244506836 215.52394104003906 120.36554718017578 217.40167236328125 120.38945770263672 C 222.2312774658203 118.91590118408203 232.11231994628906 116.25054168701172 243.95773315429688 114.93196105957031 C 240.635009765625 114.11369323730469 246.35891723632812 114.67313385009766 245.56224060058594 113.55319213867188 C 245.61172485351562 107.47654724121094 243.5637664794922 105.85198974609375 243.4262237548828 103.32835388183594 C 236.68516540527344 90.3918685913086 233.07064819335938 88.30770111083984 240.1305694580078 92.23568725585938 C 246.0087127685547 95.57514190673828 249.7276153564453 99.43650817871094 255.57875061035156 104.99433135986328 C 256.1560363769531 106.55391693115234 258.71044921875 110.39643096923828 260.7743225097656 109.18374633789062 C 261.90960693359375 111.53299713134766 269.5874938964844 106.65193939208984 271.1457824707031 107.4721450805664 C 278.1742248535156 105.81932067871094 290.0760803222656 103.71774291992188 297.7000732421875 101.5139389038086 C 301.109619140625 101.51207733154297 320.6197509765625 96.19631958007812 308.692138671875 100.38514709472656 C 273.227783203125 119.1737060546875 319.1959228515625 116.30780029296875 317.8913269042969 103.69388580322266 C 313.4494323730469 105.06974792480469 321.5420837402344 103.88370513916016 323.8887939453125 108.20533752441406 C 327.8707580566406 110.05654907226562 332.2906188964844 119.11952209472656 330.1195068359375 127.66535186767578 C 329.4796142578125 129.7623748779297 329.360107421875 131.32908630371094 324.10528564453125 136.28274536132812 C 330.17755126953125 132.02137756347656 326.5529479980469 132.397705078125 314.9001770019531 132.732177734375 C 333.5406188964844 134.7434844970703 338.42578125 128.11932373046875 344.6983337402344 126.33824920654297 C 344.0374755859375 138.0178680419922 347.3790283203125 118.69002532958984 343.85052490234375 112.99488067626953 C 341.062255859375 113.3396987915039 353.18701171875 126.61782836914062 343.2017517089844 110.01905059814453 C 336.8016662597656 102.88034057617188 330.04180908203125 100.10040283203125 323.11572265625 99.1709213256836 C 299.51055908203125 97.73456573486328 310.2979736328125 100.13783264160156 335.41290283203125 94.5774917602539" stroke-width="0.0" fill="rgb(251, 188, 104)" opacity="1.0" stroke="rgb(158, 41, 67)" stroke-opacity="0.17667209" stroke-linecap="round" stroke-linejoin="round"/>
    <path d="M 99.20765686035156 286.0306396484375 C 105.85640716552734 289.8798522949219 113.64263153076172 300.132568359375 118.44903564453125 306.7889404296875 C 119.7674560546875 312.38128662109375 125.47089385986328 315.9697265625 125.75483703613281 332.5682373046875 C 124.09698486328125 336.1659851074219 114.75204467773438 337.474365234375 117.67817687988281 341.0937194824219 C 124.96121978759766 353.10736083984375 130.4962158203125 360.1611328125 135.58644104003906 367.71075439453125 C 140.6927490234375 373.70611572265625 144.828857421875 380.2102355957031 150.6127471923828 386.2716369628906 C 154.71473693847656 390.3567810058594 155.12322998046875 393.2839050292969 160.34747314453125 392.0199890136719 C 169.03501892089844 388.5834045410156 177.42941284179688 384.5130310058594 176.12982177734375 379.86016845703125 C 193.34669494628906 379.12969970703125 212.64344787597656 375.3877258300781 235.54209899902344 376.2560119628906 C 233.3013458251953 375.1331787109375 254.7539520263672 375.4587097167969 269.3319396972656 375.7131042480469 C 286.3707275390625 377.1163024902344 299.95587158203125 376.7751770019531 302.57623291015625 381.067138671875 C 291.89654541015625 394.9598083496094 293.9924011230469 403.9402770996094 294.36456298828125 414.6400146484375 C 293.684814453125 426.86376953125 292.1925048828125 439.8165588378906 290.622314453125 452.7447814941406 C 288.9983215332031 464.8341979980469 286.7388610839844 477.854248046875 283.5792541503906 507.4856872558594 C 290.20855712890625 500.8992919921875 319.0333557128906 509.0001220703125 289.9226379394531 522.256103515625 C 293.39520263671875 531.9070434570312 309.8973388671875 548.1246337890625 314.8456726074219 543.9747924804688 C 327.694091796875 556.1935424804688 344.2818908691406 549.2719116210938 339.6293640136719 574.0159301757812 C 350.1045227050781 560.7051391601562 336.783447265625 551.4756469726562 329.330810546875 548.3217163085938 C 315.42462158203125 542.40234375 302.75823974609375 534.5023803710938 287.3484802246094 528.4203491210938 C 273.7654724121094 534.219482421875 256.8489990234375 535.9924926757812 237.5821075439453 528.763671875 C 240.5448455810547 541.1152954101562 235.4227294921875 541.8209228515625 234.73468017578125 550.28759765625 C 237.20472717285156 564.5550537109375 238.21359252929688 568.90576171875 251.62152099609375 569.40185546875 C 260.811279296875 573.7935791015625 272.181884765625 571.8707275390625 283.35626220703125 572.6320190429688 C 290.05560302734375 574.447021484375 298.05767822265625 572.7167358398438 307.9438171386719 573.6115112304688 C 306.9479064941406 574.1064453125 309.7333984375 578.8358764648438 313.85479736328125 580.391357421875 C 293.3584289550781 580.9949951171875 283.8841247558594 580.6810913085938 274.9875183105469 580.5892944335938 C 263.2563171386719 579.233154296875 253.5806884765625 577.6851196289062 246.46453857421875 575.464599609375 C 237.96900939941406 568.496337890625 234.40084838867188 560.3840942382812 237.84262084960938 535.0850830078125 C 245.85008239746094 517.9136962890625 208.17039489746094 522.5107421875 237.2106475830078 506.0956115722656 C 244.71339416503906 504.8205261230469 242.33668518066406 470.5108642578125 242.2412872314453 461.3459777832031 C 238.1844482421875 457.66839599609375 231.65101623535156 450.94903564453125 222.0919952392578 456.1833801269531 C 211.4281463623047 466.7783508300781 210.54286193847656 477.1775207519531 208.2850799560547 511.4101867675781 C 213.17520141601562 500.7939758300781 231.5882568359375 520.4092407226562 212.48280334472656 524.1972045898438 C 207.3654022216797 533.6104125976562 201.53732299804688 535.07177734375 185.87193298339844 536.578857421875 C 173.76292419433594 534.7374877929688 170.21664428710938 532.5016479492188 161.2169189453125 527.9103393554688 C 162.76966857910156 537.419921875 152.1420135498047 537.46826171875 148.503662109375 551.1863403320312 C 135.5786590576172 555.2346801757812 138.21437072753906 562.732421875 125.88111877441406 567.3766479492188 C 112.81360626220703 578.4022216796875 117.73749542236328 574.3193359375 127.91947937011719 589.747802734375 C 138.2609405517578 592.6172485351562 141.04083251953125 588.7177124023438 143.82594299316406 583.7412109375 C 160.95277404785156 584.62939453125 174.7122344970703 576.5409545898438 187.65635681152344 576.4891967773438 C 197.20140075683594 576.9768676757812 207.62889099121094 575.3246459960938 213.57261657714844 578.3601684570312 C 210.30580139160156 581.9401245117188 184.8263702392578 590.3951416015625 213.76824951171875 584.5328369140625 C 213.47938537597656 586.9612426757812 189.29656982421875 588.913330078125 202.33987426757812 583.4971313476562 C 176.2596893310547 581.4891967773438 171.32350158691406 592.9519653320312 141.58050537109375 591.8589477539062 C 142.16639709472656 579.301513671875 123.00128173828125 581.1136474609375 129.67604064941406 579.4456787109375 C 118.74024200439453 576.2576293945312 123.02893829345703 572.087646484375 139.39991760253906 562.2586059570312 C 142.4230194091797 552.2915649414062 151.8153076171875 560.5176391601562 155.885986328125 540.1307983398438 C 166.3241424560547 527.239990234375 148.15269470214844 509.14874267578125 166.16061401367188 508.03387451171875 C 168.31588745117188 481.8803405761719 166.30958557128906 466.7579345703125 166.9101104736328 451.8311767578125 C 166.1007843017578 436.7637939453125 162.809814453125 421.96771240234375 167.13380432128906 403.4678039550781 C 155.69656372070312 392.3201599121094 145.97544860839844 381.60009765625 137.44754028320312 370.2938537597656 C 130.20916748046875 359.7766418457031 123.44757843017578 350.821044921875 117.45052337646484 340.62677001953125 C 112.36766815185547 346.430419921875 97.08753967285156 351.67254638671875 89.5803451538086 356.1933898925781 C 73.6307144165039 363.01434326171875 75.68659973144531 374.2508239746094 60.48475646972656 383.9871826171875 C 59.02147674560547 372.3471984863281 61.040401458740234 434.7240905761719 42.240840911865234 387.29486083984375 C 19.196870803833008 422.1490478515625 31.55706024169922 383.4998474121094 9.122830390930176 390.483154296875 C 12.653757095336914 367.1073303222656 16.750015258789062 382.5499267578125 -3.0595998764038086 375.82647705078125 C 8.102944374084473 355.92626953125 16.340572357177734 346.24505615234375 21.949125289916992 340.5486145019531 C 4.293088436126709 307.8050842285156 35.428890228271484 327.64678955078125 44.86254119873047 334.11248779296875 C 59.57981491088867 319.03338623046875 69.5496826171875 315.9028015136719 73.34197998046875 307.9194641113281 C 84.16773986816406 296.6610412597656 95.58214569091797 288.1721496582031 99.20765686035156 286.0306396484375" stroke-width="0.0" fill="rgb(245, 197, 112)" opacity="1.0" stroke="rgb(115, 224, 22)" stroke-opacity="0.63578844" stroke-linecap="round" stroke-linejoin="round"/>
    <path d="M 173.82583618164062 385.6353759765625 C 174.8415069580078 382.815185546875 175.83815002441406 382.7425842285156 176.920654296875 382.9712219238281 C 177.87637329101562 383.1364440917969 178.78761291503906 383.1619567871094 179.75961303710938 383.09954833984375 C 180.63706970214844 383.62335205078125 181.56288146972656 383.8465576171875 182.52442932128906 384.0125427246094 C 183.5020751953125 384.1864318847656 184.47271728515625 384.3562316894531 185.4348907470703 384.5189208984375 C 186.3816680908203 384.72296142578125 187.3076934814453 384.9169006347656 188.19142150878906 385.1040954589844 C 188.9978485107422 385.3205871582031 189.7343292236328 385.5445251464844 190.39492797851562 385.7062683105469 C 190.91688537597656 386.1173095703125 191.34181213378906 386.47943115234375 191.68228149414062 386.8659973144531 C 191.8709259033203 387.3545227050781 191.9891357421875 387.90228271484375 191.9625244140625 388.5202941894531 C 191.85113525390625 389.2046813964844 191.70933532714844 389.9596252441406 191.54429626464844 390.7917785644531 C 191.31451416015625 391.6563720703125 191.0524444580078 392.56610107421875 190.8111114501953 393.5011291503906 C 190.59912109375 394.4322814941406 190.4781036376953 395.359130859375 190.4536895751953 396.256103515625 C 190.48345947265625 397.1040954589844 190.62606811523438 397.87591552734375 190.9035186767578 398.54351806640625 C 191.18678283691406 399.180419921875 191.62078857421875 399.69683837890625 192.1773223876953 400.0792541503906 C 192.80459594726562 400.4134216308594 193.56240844726562 400.6318359375 194.45721435546875 400.7125244140625 C 195.4678497314453 400.7655944824219 196.6352081298828 400.77154541015625 197.9524383544922 400.6791076660156 C 199.45327758789062 400.65960693359375 201.13380432128906 400.5909729003906 203.0063934326172 400.48431396484375 C 205.08700561523438 400.3898620605469 207.377197265625 400.2588806152344 209.8843536376953 400.1840515136719 C 212.59442138671875 400.29302978515625 215.49600219726562 400.3177795410156 218.5699005126953 400.3109130859375 C 221.80291748046875 400.4560241699219 225.1788330078125 400.46905517578125 228.66842651367188 400.04046630859375 C 232.263671875 400.2159118652344 235.93350219726562 400.13916015625 239.6287078857422 399.8377380371094 C 243.45281982421875 399.4464416503906 247.2810516357422 399.4949951171875 251.12786865234375 398.8837585449219 C 255.03271484375 398.9768371582031 258.9333801269531 398.7214050292969 262.8315734863281 398.3548583984375 C 266.7352600097656 398.1617736816406 270.61529541015625 398.0057067871094 274.4419250488281 397.8703308105469 C 278.1959228515625 397.98077392578125 281.83013916015625 398.2652893066406 285.33099365234375 398.6602783203125 C 288.5682067871094 399.48687744140625 291.5671691894531 400.453857421875 294.69610595703125 401.5597839355469 C 296.7011413574219 403.13726806640625 298.6164245605469 404.7615661621094 300.29254150390625 406.6524353027344 C 301.27313232421875 408.94464111328125 301.9690856933594 411.1950988769531 302.4918212890625 413.61907958984375 C 302.20599365234375 416.1730041503906 301.7832336425781 418.80548095703125 301.27978515625 421.4855651855469 C 300.23968505859375 424.1361389160156 299.3714904785156 426.9198913574219 298.1974182128906 429.744140625 C 296.6795349121094 432.4765625 295.2502746582031 435.4676208496094 293.8812561035156 438.2648010253906 C 292.66131591796875 441.08416748046875 290.5315246582031 443.96343994140625 288.7988586425781 446.72088623046875 C 286.80902099609375 449.3139343261719 284.938720703125 451.6625671386719 283.1309509277344 453.9814453125 C 281.0583801269531 455.8746337890625 278.95831298828125 457.447509765625 276.9637756347656 458.9595642089844 C 274.6258239746094 459.4746398925781 272.41314697265625 459.80279541015625 270.16595458984375 460.0177917480469 C 267.9505920410156 459.05572509765625 265.7267761230469 457.9858093261719 263.5567932128906 456.51214599609375 C 261.55230712890625 454.5174255371094 259.5244445800781 452.34405517578125 257.4912414550781 450.1161193847656 C 255.6210174560547 447.0691223144531 253.72987365722656 444.3397521972656 251.57240295410156 441.74658203125 C 249.95343017578125 439.12872314453125 248.20034790039062 436.6820373535156 246.42098999023438 434.5338134765625 C 244.6737518310547 432.7205505371094 242.8930206298828 431.30023193359375 241.06971740722656 430.3546447753906 C 239.50103759765625 429.58319091796875 237.85934448242188 429.2826843261719 236.29098510742188 429.64215087890625 C 234.77435302734375 429.64385986328125 233.3203125 430.2041931152344 231.97743225097656 431.5137939453125 C 230.5868377685547 432.1409606933594 229.2698974609375 433.40679931640625 228.03269958496094 434.91259765625 C 226.7158660888672 436.53326416015625 225.38970947265625 438.30413818359375 224.04624938964844 440.33612060546875 C 222.4115753173828 442.0859375 220.75567626953125 444.0820007324219 219.0037078857422 446.2194519042969 C 216.99610900878906 448.2115478515625 214.875244140625 450.2557067871094 212.61268615722656 452.31256103515625 C 210.11813354492188 454.35626220703125 207.53799438476562 455.857666015625 204.97494506835938 457.53369140625 C 202.09466552734375 458.80206298828125 199.2388458251953 459.8661804199219 196.38145446777344 460.8171691894531 C 193.5221710205078 461.3111267089844 190.72366333007812 461.6075134277344 187.99594116210938 461.6383361816406 C 185.3699493408203 461.4127502441406 182.92042541503906 461.05230712890625 180.62020874023438 460.51885986328125 C 178.51956176757812 459.6300048828125 176.63690185546875 458.80853271484375 174.93267822265625 457.9513244628906 C 173.43850708007812 456.95556640625 172.13978576660156 455.89117431640625 170.97503662109375 454.8001708984375 C 169.94259643554688 453.60595703125 169.06954956054688 452.3302917480469 168.1753692626953 450.8638000488281 C 167.41265869140625 449.1881408691406 166.6038360595703 447.4305419921875 165.38363647460938 445.494873046875 C 164.93663024902344 443.2001647949219 164.25634765625 440.76239013671875 163.193115234375 438.1529846191406 C 162.6110382080078 435.1485290527344 161.8804931640625 432.0239562988281 161.0955810546875 428.69677734375 C 160.84149169921875 425.11383056640625 160.37335205078125 421.4678649902344 159.6463165283203 417.7720947265625 C 159.70346069335938 414.0234069824219 159.72019958496094 410.2633056640625 159.59793090820312 406.4409484863281 C 160.27919006347656 402.67657470703125 160.53793334960938 398.8898620605469 160.86514282226562 395.15240478515625 C 162.1397705078125 391.5996398925781 162.794677734375 388.0358581542969 163.5299072265625 385.18798828125 C 164.56394958496094 383.94140625 165.5267333984375 384.1264343261719 173.82583618164062 385.6353759765625" stroke-width="0.0" fill="rgb(252, 76, 1)" opacity="1.0" stroke="rgb(231, 48, 19)" stroke-opacity="0.13409148" stroke-linecap="round" stroke-linejoin="round"/>
    <path d="M 126.04983520507812 331.3135070800781 C 129.03855895996094 332.9407043457031 119.67156982421875 336.5721435546875 119.41793060302734 339.1955871582031 C 120.18426513671875 338.1605224609375 116.9275894165039 340.3435363769531 115.89250183105469 344.2673034667969 C 114.5446548461914 342.56243896484375 111.11503601074219 344.72021484375 107.69727325439453 344.2782897949219 C 115.1173095703125 344.5191650390625 117.33148956298828 340.9207763671875 117.68779754638672 340.6018371582031 C 113.86836242675781 347.5884094238281 114.40316009521484 349.07525634765625 114.61068725585938 351.4250183105469 C 114.45381927490234 353.64154052734375 114.51949310302734 356.10748291015625 115.34093475341797 359.09405517578125 C 116.21661376953125 361.62554931640625 115.33222198486328 364.3883361816406 115.6811294555664 365.6376647949219 C 115.6254653930664 368.55755615234375 115.82068634033203 371.0891418457031 115.77200317382812 372.2320251464844 C 116.50752258300781 373.8359680175781 115.74225616455078 377.4499816894531 117.40360260009766 378.4609680175781 C 116.91864776611328 375.8584289550781 117.32947540283203 378.08148193359375 117.11128997802734 376.2920837402344 C 116.78612518310547 377.847900390625 119.63943481445312 383.61676025390625 119.82445526123047 379.82257080078125 C 118.45867156982422 383.9191589355469 122.95065307617188 389.2510070800781 130.40049743652344 392.4080505371094 C 134.31776428222656 394.47705078125 138.44667053222656 394.87445068359375 139.828857421875 395.05780029296875 C 142.86476135253906 395.6813659667969 151.14332580566406 396.606201171875 154.01901245117188 398.38580322265625 C 157.27784729003906 388.9764099121094 157.01441955566406 377.7291259765625 158.79502868652344 384.7386169433594 C 169.26341247558594 376.2206115722656 178.71009826660156 381.3782043457031 175.0301055908203 378.15606689453125 C 182.5115203857422 378.8275146484375 194.16580200195312 382.1659240722656 205.52224731445312 384.04144287109375 C 214.0941162109375 385.5410461425781 222.0133819580078 386.8669738769531 227.03639221191406 386.56396484375 C 235.8712615966797 388.5018005371094 255.94448852539062 387.1064147949219 257.9137878417969 386.719482421875 C 267.5854187011719 386.3917541503906 281.8769836425781 382.7437744140625 285.9749450683594 382.1622619628906 C 290.2547302246094 379.8573913574219 301.18524169921875 377.7038269042969 299.2919921875 377.25592041015625 C 313.186767578125 376.8619079589844 308.51641845703125 377.5309753417969 315.6470947265625 380.3761901855469 C 316.216552734375 383.6775207519531 315.8420104980469 391.9736328125 314.7495422363281 397.89776611328125 C 313.620849609375 405.9507141113281 312.55657958984375 413.11663818359375 310.354736328125 420.0494384765625 C 308.5184326171875 432.7084655761719 304.5601806640625 440.8995666503906 304.4897766113281 446.13397216796875 C 301.43743896484375 456.12042236328125 301.08740234375 468.59307861328125 298.8260803222656 470.6775207519531 C 300.2593688964844 466.9737854003906 300.8108215332031 472.4454650878906 290.7335510253906 473.7744445800781 C 289.1906433105469 488.6116943359375 282.9474182128906 512.891845703125 288.0314636230469 472.642333984375 C 277.81048583984375 472.81817626953125 270.8725280761719 472.8937072753906 267.38861083984375 470.3553771972656 C 259.8142395019531 471.0778503417969 249.08120727539062 471.8823547363281 245.86892700195312 468.9093933105469 C 248.56089782714844 468.83428955078125 245.26678466796875 479.9378356933594 245.98289489746094 488.99542236328125 C 243.66355895996094 498.9777526855469 246.00242614746094 508.9036560058594 236.5015869140625 508.09002685546875 C 244.36659240722656 501.7974853515625 241.00035095214844 490.8337707519531 241.21913146972656 502.23187255859375 C 241.78616333007812 496.6185302734375 245.4888916015625 474.54974365234375 240.7261199951172 466.25408935546875 C 244.71170043945312 470.4732971191406 235.36199951171875 467.74932861328125 234.58639526367188 466.9853820800781 C 231.2432861328125 461.327392578125 235.80426025390625 451.4987487792969 227.07574462890625 455.340576171875 C 229.39590454101562 452.8630676269531 225.89285278320312 468.3851318359375 226.96534729003906 472.492431640625 C 226.19955444335938 474.3639221191406 212.8285369873047 475.5428771972656 215.72760009765625 475.97625732421875 C 215.50222778320312 497.2188415527344 207.0941162109375 476.300537109375 209.714111328125 512.1334228515625 C 217.46739196777344 482.6881103515625 207.990966796875 493.07244873046875 212.2911376953125 474.3314208984375 C 201.89845275878906 477.4181823730469 194.664306640625 472.9023742675781 195.7111358642578 474.9187927246094 C 182.6348419189453 474.74700927734375 172.8673858642578 473.520751953125 168.34886169433594 472.1011657714844 C 168.47747802734375 469.6159362792969 168.8208770751953 480.72113037109375 169.64512634277344 486.1023254394531 C 167.82945251464844 518.2447509765625 171.59141540527344 497.4095153808594 150.61920166015625 519.3579711914062 C 172.5681610107422 519.6121826171875 165.90052795410156 514.389892578125 163.3448944091797 526.84033203125 C 159.505615234375 533.8089599609375 160.33299255371094 540.733642578125 154.63693237304688 541.6821899414062 C 164.70761108398438 522.3285522460938 156.36553955078125 523.4312133789062 153.9935302734375 514.033203125 C 166.45806884765625 508.81353759765625 164.8005828857422 505.6601257324219 166.0462188720703 495.0233459472656 C 166.77334594726562 505.021728515625 166.03231811523438 468.9925842285156 166.1461944580078 473.80316162109375 C 156.5281982421875 469.3793640136719 159.1027069091797 472.549560546875 157.8053436279297 460.234130859375 C 156.52874755859375 451.7911682128906 156.0520477294922 439.2747497558594 154.516845703125 428.00634765625 C 154.157958984375 421.0837707519531 151.37208557128906 400.6590576171875 153.51852416992188 396.62860107421875 C 156.2292938232422 396.9241638183594 159.4114227294922 397.09454345703125 152.91598510742188 397.546142578125 C 146.123779296875 396.0164794921875 141.7185821533203 395.291015625 134.75796508789062 394.3011474609375 C 129.46929931640625 391.86566162109375 120.38583374023438 389.352783203125 119.558837890625 381.42987060546875 C 115.19351196289062 377.7832946777344 115.7932357788086 369.8078918457031 115.6725845336914 360.9034729003906 C 114.33989715576172 355.2364807128906 113.7859115600586 348.23944091796875 115.58038330078125 343.3390808105469 C 113.63707733154297 342.89581298828125 89.88057708740234 356.91253662109375 109.74467468261719 342.9243469238281 C 101.74468231201172 344.76104736328125 92.31109619140625 353.5068664550781 77.08226013183594 354.3080749511719 C 93.546142578125 354.0000915527344 80.745849609375 363.66644287109375 126.04983520507812 331.3135070800781" stroke-width="0.0" fill="rgb(241, 77, 9)" opacity="0.9992819" stroke="rgb(114, 53, 169)" stroke-opacity="0.27271873" stroke-linecap="round" stroke-linejoin="round"/>
    <path d="M 288.6352844238281 13.773458480834961 C 289.6151428222656 13.42827033996582 290.5806884765625 13.437484741210938 291.5615539550781 13.357088088989258 C 292.5633850097656 13.610678672790527 293.58740234375 13.820341110229492 295.2561340332031 12.927422523498535 C 295.8914489746094 15.505656242370605 297.067138671875 16.696292877197266 299.1968688964844 17.18873405456543 C 300.23828125 19.40628433227539 302.5341491699219 22.253955841064453 303.68328857421875 24.667457580566406 C 303.108154296875 29.176733016967773 305.71185302734375 31.59520721435547 309.5581970214844 33.16376495361328 C 311.9142761230469 36.96375274658203 314.2969055175781 40.496360778808594 318.44195556640625 43.677459716796875 C 319.3361511230469 47.83620071411133 320.0044860839844 51.679481506347656 322.25518798828125 55.09182357788086 C 324.93011474609375 57.976383209228516 326.0976257324219 61.17848205566406 327.1171875 64.06842803955078 C 329.359619140625 66.33748626708984 329.7082824707031 68.77460479736328 330.3893737792969 71.38229370117188 C 329.2552185058594 73.85098266601562 328.2896728515625 75.84783172607422 327.1480712890625 79.43614196777344 C 324.8989562988281 80.75824737548828 322.9770202636719 82.05877685546875 321.052001953125 83.81878662109375 C 316.9353942871094 85.6596450805664 313.07025146484375 86.5615234375 309.55914306640625 88.06306457519531 C 306.5071105957031 90.82357788085938 303.0033264160156 92.30786895751953 298.63909912109375 94.75193786621094 C 293.9806213378906 94.81402587890625 289.8835754394531 95.47413635253906 285.4915771484375 97.6064224243164 C 281.0120544433594 98.04525756835938 276.9432678222656 94.70479583740234 271.4815979003906 102.59871673583984 C 266.67718505859375 92.02497100830078 263.488525390625 90.09098815917969 259.2298889160156 89.76908874511719 C 255.90643310546875 83.66758728027344 251.701171875 83.62803649902344 247.0984344482422 85.6569595336914 C 243.15032958984375 83.21261596679688 239.29368591308594 81.0035629272461 236.29490661621094 83.53201293945312 C 232.9008026123047 83.84525299072266 229.90089416503906 83.13775634765625 228.23965454101562 86.17552185058594 C 227.0064239501953 90.17689514160156 224.18809509277344 91.95828247070312 223.37237548828125 95.37713623046875 C 223.1738739013672 98.94965362548828 222.02059936523438 102.051513671875 220.39129638671875 105.7706298828125 C 216.316650390625 107.36418914794922 213.47329711914062 109.46622467041016 210.36965942382812 111.77003479003906 C 205.90707397460938 111.7607421875 201.6775360107422 110.98295593261719 197.29197692871094 112.28353881835938 C 192.5587615966797 112.86957550048828 187.5591583251953 112.24169921875 182.3686981201172 112.84803771972656 C 177.24151611328125 112.52993774414062 172.16592407226562 112.71710205078125 167.1189422607422 111.58645629882812 C 162.44346618652344 111.15620422363281 158.356201171875 113.86103820800781 153.9973602294922 114.31952667236328 C 150.32664489746094 115.84634399414062 147.05616760253906 118.02051544189453 144.2199249267578 120.33251953125 C 142.910400390625 124.79472351074219 141.13685607910156 127.98982238769531 142.88409423828125 132.3367156982422 C 137.98460388183594 135.09715270996094 135.94876098632812 138.90525817871094 132.85630798339844 142.7164764404297 C 132.25294494628906 146.6772003173828 132.77017211914062 151.1643829345703 129.25767517089844 153.9832763671875 C 130.5636444091797 158.86807250976562 130.73248291015625 163.17529296875 130.7681121826172 167.86627197265625 C 128.4095458984375 171.8125 126.82833099365234 175.7930145263672 126.09296417236328 181.5609588623047 C 124.45982360839844 184.42933654785156 119.18365478515625 186.36492919921875 115.84589385986328 191.8218536376953 C 110.48091125488281 192.28387451171875 106.0859146118164 191.48922729492188 101.26068115234375 191.74024963378906 C 96.26136016845703 191.55984497070312 91.4462890625 191.31565856933594 86.22381591796875 191.99935913085938 C 81.54679107666016 191.4677276611328 77.68974304199219 189.6034393310547 72.50505065917969 188.50230407714844 C 70.80792236328125 185.1478729248047 68.25687408447266 182.53173828125 64.15819549560547 177.41976928710938 C 66.55307006835938 172.63601684570312 66.65735626220703 168.8456268310547 65.83277130126953 164.42770385742188 C 67.75650024414062 160.1631317138672 69.2260971069336 155.83326721191406 70.31572723388672 150.74998474121094 C 73.6974868774414 147.4217071533203 77.04060363769531 143.68734741210938 77.15766906738281 138.0473175048828 C 78.76107788085938 134.3346405029297 81.63343048095703 130.27328491210938 81.42782592773438 125.01046752929688 C 82.32643127441406 120.3011474609375 87.01949310302734 116.8508071899414 89.45869445800781 113.81990814208984 C 92.4962387084961 110.99520874023438 94.30207824707031 107.4730453491211 96.86888122558594 104.14971160888672 C 98.77745819091797 100.01982116699219 101.1293716430664 96.26062774658203 105.7884521484375 95.52771759033203 C 107.22296142578125 91.93885040283203 109.8575439453125 87.92735290527344 112.32746887207031 83.18990325927734 C 116.03761291503906 82.45260620117188 119.92921447753906 80.1881332397461 122.98776245117188 76.78423309326172 C 126.61860656738281 73.57112884521484 129.22564697265625 69.1948013305664 132.47032165527344 65.7684097290039 C 136.91595458984375 63.30366897583008 139.34320068359375 58.75476837158203 143.59523010253906 55.92512512207031 C 145.84381103515625 51.216732025146484 149.5095977783203 47.41575622558594 153.8137664794922 47.30146026611328 C 157.06056213378906 43.398563385009766 159.60256958007812 40.34366989135742 162.7967529296875 36.2839241027832 C 167.61175537109375 36.33565139770508 171.6072540283203 34.98829650878906 175.83274841308594 33.14630889892578 C 180.36260986328125 34.746768951416016 184.66917419433594 35.57798767089844 189.71107482910156 35.65007400512695 C 193.177978515625 38.952613830566406 197.21470642089844 40.4664306640625 201.62844848632812 40.49413299560547 C 205.29013061523438 43.178890228271484 209.2177276611328 44.19021224975586 213.35308837890625 44.593475341796875 C 217.32325744628906 43.37546920776367 220.84373474121094 41.60602569580078 222.78184509277344 38.71871566772461 C 226.0424346923828 35.96359634399414 229.20799255371094 33.075279235839844 233.1122589111328 29.686084747314453 C 237.7593231201172 26.17355728149414 241.78793334960938 24.162839889526367 245.5277862548828 21.08696937561035 C 250.46632385253906 19.61994743347168 254.6006622314453 16.85878562927246 260.0471496582031 15.776405334472656 C 264.7265930175781 12.439274787902832 270.0385437011719 13.226152420043945 275.2692565917969 13.874436378479004 C 280.447021484375 14.876282691955566 285.7264404296875 15.38648796081543 288.6352844238281 13.773458480834961" stroke-width="0.0" fill="rgb(61, 39, 36)" opacity="0.99806756" stroke="rgb(18, 101, 131)" stroke-opacity="0.3657945" stroke-linecap="round" stroke-linejoin="round"/>
    <path d="M 375.2171936035156 273.24395751953125 C 366.5135803222656 270.2042541503906 366.5942687988281 269.50323486328125 362.9070129394531 270.0308532714844 C 366.38720703125 269.35687255859375 367.6745300292969 271.4548034667969 365.0641784667969 272.62664794921875 C 366.96783447265625 271.63238525390625 364.1616516113281 277.6902770996094 367.6058654785156 271.33758544921875 C 366.80560302734375 271.4578857421875 370.1561279296875 273.4068603515625 371.2290954589844 272.6007385253906 C 368.3474426269531 273.2024230957031 373.8812255859375 273.2515563964844 366.50921630859375 271.4186096191406 C 373.5758972167969 273.8960266113281 381.1182861328125 276.62872314453125 382.82843017578125 278.7338562011719 C 379.6964111328125 277.0815734863281 380.5065002441406 277.563720703125 382.8479919433594 278.7648010253906 C 383.82122802734375 278.43121337890625 384.7001037597656 280.34649658203125 386.0102844238281 279.2323913574219 C 385.3747863769531 280.2288513183594 387.78900146484375 280.6511535644531 389.0855407714844 281.1123046875 C 389.3177185058594 281.5732116699219 391.9631042480469 284.0794982910156 394.7621765136719 283.89825439453125 C 390.9762268066406 282.9891662597656 394.18109130859375 284.4921569824219 393.1352233886719 282.371337890625 C 392.4750671386719 284.08709716796875 395.4969482421875 286.4263916015625 398.14166259765625 286.9936828613281 C 396.209228515625 286.509765625 400.1698913574219 288.4445495605469 399.1192932128906 287.73089599609375 C 399.0814514160156 289.85504150390625 402.6877746582031 291.1788330078125 405.068359375 292.40228271484375 C 407.05975341796875 293.6914367675781 408.6001892089844 297.7778015136719 409.2322082519531 296.3582458496094 C 408.00244140625 297.12811279296875 411.3235168457031 299.1675109863281 411.9077453613281 298.6918640136719 C 412.4000244140625 298.7027893066406 412.9581604003906 297.2535095214844 414.47662353515625 297.4851379394531 C 415.7518615722656 296.4640808105469 417.93206787109375 295.846435546875 416.1737365722656 296.303955078125 C 419.7426452636719 295.4572448730469 426.7090759277344 293.09210205078125 425.7110900878906 292.9501647949219 C 421.6263122558594 294.4497985839844 423.9073486328125 293.7644348144531 425.0291442871094 293.97735595703125 C 427.7017517089844 292.6051330566406 431.7636413574219 290.6483459472656 430.50140380859375 292.6590881347656 C 429.6235046386719 291.9162902832031 434.1953430175781 291.7327880859375 435.6289367675781 290.39825439453125 C 432.58599853515625 292.23870849609375 435.1935119628906 289.0889892578125 439.1287841796875 285.0979309082031 C 431.276611328125 291.0889892578125 436.46649169921875 285.3619384765625 439.55267333984375 281.7695617675781 C 438.1313171386719 283.2266845703125 441.1984558105469 280.13018798828125 440.2507019042969 280.3231506347656 C 441.9282531738281 278.7928161621094 448.305908203125 279.41607666015625 447.8869323730469 280.0484313964844 C 450.8185119628906 282.8685302734375 450.8717956542969 285.67913818359375 449.8045349121094 288.1107482910156 C 447.0520935058594 295.5572814941406 445.1715393066406 306.53948974609375 447.22039794921875 292.7710266113281 C 443.58880615234375 294.8301086425781 440.34466552734375 299.62060546875 441.22564697265625 301.8373718261719 C 445.36737060546875 302.3674621582031 448.5998840332031 303.5631103515625 451.5654296875 304.7088623046875 C 456.46484375 306.06396484375 460.2494201660156 308.25970458984375 463.37603759765625 309.8655700683594 C 465.8583984375 312.0579833984375 468.7882995605469 313.4862365722656 470.8760681152344 318.64501953125 C 468.29473876953125 322.8223571777344 464.3113098144531 320.5562438964844 447.3257751464844 318.12689208984375 C 455.09808349609375 326.8067932128906 461.8772888183594 327.5179443359375 463.0660095214844 327.5345458984375 C 466.7991027832031 328.61053466796875 468.5995178222656 338.1839294433594 469.1152648925781 334.9415283203125 C 466.33984375 339.2613525390625 462.3776550292969 342.8055725097656 460.6021423339844 338.6861267089844 C 460.5997619628906 344.27252197265625 459.94366455078125 350.6703796386719 461.5796813964844 341.1201477050781 C 463.0143127441406 349.0395202636719 456.9503173828125 348.0328674316406 451.8514709472656 346.93902587890625 C 447.7158203125 346.44781494140625 439.8970642089844 344.3117980957031 436.96832275390625 338.30718994140625 C 434.26849365234375 346.9516906738281 440.79833984375 343.7061462402344 443.76739501953125 349.97760009765625 C 442.26416015625 349.6109924316406 447.2334289550781 358.1554870605469 445.1519470214844 358.7885437011719 C 443.6802978515625 362.4447021484375 434.5676574707031 358.4759521484375 439.3059387207031 361.3174133300781 C 435.6643371582031 360.307373046875 430.1521301269531 355.20220947265625 427.63531494140625 349.0210266113281 C 435.5509033203125 354.6048583984375 431.68902587890625 347.5083923339844 423.8973388671875 341.30828857421875 C 420.4034423828125 340.48388671875 416.29620361328125 339.2374267578125 412.736572265625 337.07379150390625 C 409.83868408203125 335.22711181640625 406.93408203125 331.72991943359375 404.1199035644531 329.8918762207031 C 401.3818664550781 327.9257507324219 399.8954772949219 325.79278564453125 398.2803649902344 326.66131591796875 C 394.085693359375 326.0826110839844 390.70794677734375 326.41290283203125 388.2787780761719 325.5631408691406 C 384.09649658203125 324.9669189453125 377.6112060546875 323.48345947265625 377.2737731933594 323.966796875 C 375.5683898925781 324.2220764160156 370.07391357421875 322.2994384765625 368.6761474609375 322.4519348144531 C 365.01544189453125 321.9017639160156 360.9486389160156 320.6290283203125 361.432861328125 320.8197937011719 C 356.55474853515625 318.55517578125 351.15972900390625 318.7628479003906 358.07080078125 317.84466552734375 C 353.19183349609375 318.3971862792969 348.61083984375 315.627197265625 348.6405029296875 316.285888671875 C 350.1811218261719 314.3282165527344 350.2484130859375 312.1008605957031 349.1748046875 315.3057556152344 C 353.45989990234375 312.1701354980469 354.0029296875 300.7471618652344 354.1023864746094 308.5896301269531 C 353.4237060546875 305.3526306152344 358.4836730957031 297.70513916015625 356.9878845214844 299.8404846191406 C 357.8927307128906 298.5634765625 361.5423583984375 287.927001953125 364.7535400390625 277.5394287109375 C 361.7989501953125 283.14776611328125 362.4252014160156 278.8930358886719 362.619140625 280.0097961425781 C 364.1060485839844 284.8316650390625 365.01495361328125 269.57965087890625 365.5397033691406 269.07757568359375 C 365.587890625 270.4027099609375 368.0379638671875 270.34619140625 375.2171936035156 273.24395751953125" stroke-width="0.0" fill="rgb(248, 188, 112)" opacity="1.0" stroke="rgb(52, 74, 141)" stroke-opacity="0.452024" stroke-linecap="round" stroke-linejoin="round"/>
    <path d="M 221.6747589111328 124.78776550292969 C 209.2255859375 128.70118713378906 222.79833984375 140.7766876220703 220.97256469726562 128.04010009765625 C 216.35382080078125 129.33168029785156 205.03097534179688 142.09983825683594 206.30101013183594 141.417236328125 C 206.9796905517578 142.49916076660156 209.841064453125 147.63392639160156 213.11868286132812 141.15415954589844 C 208.79356384277344 138.76889038085938 209.2518768310547 132.2569580078125 228.86985778808594 135.12156677246094 C 212.5869598388672 148.9676055908203 217.6632843017578 137.7790069580078 214.3233184814453 147.30203247070312 C 228.44158935546875 141.1136016845703 238.67076110839844 151.17494201660156 234.15943908691406 158.20054626464844 C 221.55966186523438 160.39292907714844 210.39791870117188 159.77239990234375 194.4076690673828 159.5644073486328 C 210.2461395263672 156.4613037109375 222.62599182128906 156.2215118408203 221.76190185546875 162.85641479492188 C 205.0699005126953 166.83682250976562 206.79981994628906 167.5102081298828 196.01515197753906 161.3466796875 C 193.02586364746094 160.87823486328125 187.61399841308594 153.16969299316406 187.8959503173828 149.8079833984375 C 186.70947265625 153.8516387939453 188.2301025390625 138.328125 186.01705932617188 140.3659210205078 C 190.54649353027344 133.5425567626953 195.18641662597656 124.41910552978516 221.6747589111328 124.78776550292969" stroke-width="0.0" fill="rgb(7, 2, 2)" opacity="0.99582404" stroke="rgb(164, 234, 181)" stroke-opacity="0.99039906" stroke-linecap="round" stroke-linejoin="round"/>
    <path d="M 205.42149353027344 261.4034118652344 C 207.54896545410156 262.2405090332031 209.6907958984375 263.0740661621094 211.67333984375 263.7125244140625 C 213.4224090576172 264.1947937011719 215.03927612304688 264.79156494140625 216.53829956054688 265.4764099121094 C 217.8910369873047 266.1197814941406 219.13601684570312 266.7208557128906 220.27569580078125 267.2412109375 C 221.30589294433594 267.6740417480469 222.2472381591797 267.9881896972656 223.09625244140625 268.2830810546875 C 223.8846893310547 268.5777893066406 224.6181182861328 268.850830078125 225.31260681152344 269.0416564941406 C 225.9902801513672 269.19366455078125 226.689453125 269.3232116699219 227.42166137695312 269.4250793457031 C 228.20948791503906 269.5056457519531 229.06161499023438 269.5764465332031 229.9762420654297 269.6273498535156 C 230.9763946533203 269.6977233886719 232.10157775878906 269.7896423339844 233.35462951660156 269.9434509277344 C 234.74090576171875 270.0377502441406 236.28244018554688 270.059814453125 238.01190185546875 269.9590759277344 C 239.9430694580078 269.7259826660156 242.07078552246094 269.42291259765625 244.3848419189453 269.0810852050781 C 246.86997985839844 268.69525146484375 249.5269317626953 268.33306884765625 252.34205627441406 268.08367919921875 C 255.25543212890625 268.04364013671875 258.1947326660156 268.255615234375 261.0755920410156 268.7826843261719 C 263.8366394042969 269.6654052734375 266.4237060546875 270.9263916015625 268.74835205078125 272.54998779296875 C 270.77593994140625 274.50067138671875 272.4212646484375 276.7704162597656 273.66119384765625 279.2645568847656 C 274.5421142578125 281.8805847167969 275.09527587890625 284.5404357910156 275.40545654296875 287.1526184082031 C 275.6343994140625 289.6435546875 275.8729553222656 291.9947509765625 276.1214904785156 294.18133544921875 C 276.462890625 296.1822814941406 276.9271545410156 298.001708984375 277.5867919921875 299.6609191894531 C 278.4881591796875 301.1212463378906 279.6568298339844 302.3981018066406 281.0781555175781 303.56158447265625 C 282.7416076660156 304.6305236816406 284.5792236328125 305.6611022949219 286.5589599609375 306.7450866699219 C 288.6642150878906 307.8982849121094 290.8082580566406 309.15533447265625 292.9685974121094 310.61212158203125 C 295.0925598144531 312.2466125488281 297.1326904296875 314.13427734375 299.09136962890625 316.2737121582031 C 300.93817138671875 318.6432189941406 302.54437255859375 321.2239990234375 304.238037109375 323.8504333496094 C 305.8533020019531 326.4501953125 307.5478820800781 329.068603515625 309.1942443847656 331.58843994140625 C 310.6907043457031 334.21173095703125 311.88275146484375 336.8757629394531 312.9208068847656 339.6116638183594 C 313.80010986328125 342.3562316894531 314.5859375 345.1167297363281 315.2489013671875 347.8725280761719 C 315.7102355957031 350.5604248046875 315.93499755859375 353.2029113769531 315.9211730957031 355.8021545410156 C 315.69873046875 358.3338623046875 315.2532653808594 360.8028564453125 314.477783203125 363.3028259277344 C 313.39593505859375 365.7776184082031 311.939697265625 368.0335998535156 310.0664367675781 370.0186462402344 C 307.9130554199219 371.72216796875 305.4371032714844 373.07708740234375 302.7635498046875 373.9668884277344 C 299.9083557128906 374.3599548339844 296.884765625 374.3128662109375 293.7630310058594 373.9847412109375 C 290.60028076171875 373.6968688964844 287.4126892089844 373.5014343261719 284.2082214355469 373.320068359375 C 281.00079345703125 373.1120910644531 277.820068359375 372.8902282714844 274.65667724609375 372.69195556640625 C 271.50006103515625 372.5455322265625 268.3603210449219 372.4491271972656 265.247314453125 372.3709411621094 C 262.1606140136719 372.38482666015625 259.1006774902344 372.3580627441406 256.0686950683594 372.3591613769531 C 253.04933166503906 372.37786865234375 250.0242462158203 372.4052734375 246.9835205078125 372.4385986328125 C 243.92982482910156 372.534912109375 240.8604278564453 372.6046447753906 237.7691650390625 372.56488037109375 C 234.6657257080078 372.51922607421875 231.56454467773438 372.5095520019531 228.47195434570312 372.58734130859375 C 225.39349365234375 372.6672668457031 222.3450164794922 372.7502746582031 219.35157775878906 372.82196044921875 C 216.4315948486328 372.8510437011719 213.57896423339844 372.690673828125 210.79725646972656 372.3677062988281 C 208.05384826660156 371.9427185058594 205.3657684326172 371.59613037109375 202.6980743408203 371.38958740234375 C 200.001953125 371.2378234863281 197.2444305419922 371.2304992675781 194.41070556640625 371.3680725097656 C 191.5057373046875 371.3185729980469 188.53684997558594 371.3809509277344 185.49624633789062 371.4335021972656 C 182.42539978027344 371.51129150390625 179.33290100097656 371.5916442871094 176.2501678466797 371.7738342285156 C 173.2671356201172 371.8813781738281 170.46365356445312 371.6664733886719 167.87326049804688 371.1064147949219 C 165.54087829589844 370.2160339355469 163.453369140625 368.9565124511719 161.7811737060547 367.31085205078125 C 160.51156616210938 365.3466796875 159.74383544921875 363.1600646972656 159.4473419189453 360.7734375 C 159.5904998779297 358.3677673339844 160.082763671875 355.98760986328125 160.91542053222656 353.6759948730469 C 161.9873046875 351.4088439941406 163.1748046875 349.25140380859375 164.34413146972656 347.1355285644531 C 165.47254943847656 345.042724609375 166.66307067871094 343.0091247558594 167.9156036376953 341.0264587402344 C 169.26524353027344 339.0361328125 170.5924530029297 336.99786376953125 171.81121826171875 334.82440185546875 C 172.79782104492188 332.4671325683594 173.71058654785156 329.9799499511719 174.5736083984375 327.36712646484375 C 175.45285034179688 324.7140197753906 176.45677185058594 322.1223449707031 177.64886474609375 319.6199951171875 C 179.00857543945312 317.3075256347656 180.49757385253906 315.10589599609375 182.09890747070312 313.0677185058594 C 183.79884338378906 311.2092590332031 185.54197692871094 309.4181823730469 187.22604370117188 307.7399597167969 C 188.79124450683594 306.1053161621094 190.18865966796875 304.43731689453125 191.3180694580078 302.66668701171875 C 192.14797973632812 300.7893371582031 192.81492614746094 298.79510498046875 193.42637634277344 296.7245788574219 C 193.98712158203125 294.60125732421875 194.5972442626953 292.43017578125 195.19644165039062 290.1725158691406 C 195.66712951660156 287.8350830078125 196.03770446777344 285.3978271484375 196.3808135986328 282.86846923828125 C 196.66526794433594 280.2638854980469 196.9123077392578 277.54510498046875 197.08782958984375 274.6790466308594 C 197.14125061035156 271.7822570800781 197.15562438964844 268.85174560546875 205.42149353027344 261.4034118652344" stroke-width="0.0" fill="rgb(254, 111, 167)" opacity="0.9981293" stroke="rgb(181, 46, 131)" stroke-opacity="0.6068225" stroke-linecap="round" stroke-linejoin="round"/>
    <path d="M 310.971923828125 114.55155944824219 C 309.5702209472656 116.9834976196289 308.9264831542969 118.89509582519531 309.3191223144531 120.61531829833984 C 310.40899658203125 121.95333862304688 311.92987060546875 122.47196197509766 313.7995300292969 121.63497161865234 C 315.0210266113281 119.9193115234375 316.33502197265625 118.39213562011719 317.937744140625 118.16714477539062 C 319.2232666015625 119.53807067871094 320.2548828125 122.00116729736328 320.74578857421875 124.84365844726562 C 320.8731994628906 127.69904327392578 320.01837158203125 130.00563049316406 318.0008239746094 131.41783142089844 C 314.7970275878906 131.82455444335938 310.64013671875 131.57455444335938 305.8848571777344 131.40745544433594 C 301.2709655761719 131.5962677001953 297.3583679199219 131.9113311767578 294.3184509277344 131.3367919921875 C 292.88067626953125 129.16712951660156 292.49896240234375 126.14418029785156 292.42144775390625 122.3040771484375 C 292.3353271484375 118.0744400024414 291.859130859375 113.05280303955078 310.971923828125 114.55155944824219" stroke-width="0.0" fill="rgb(11, 0, 4)" opacity="0.99809825" stroke="rgb(34, 4, 168)" stroke-opacity="0.7917638" stroke-linecap="round" stroke-linejoin="round"/>
    <path d="M 240.14964294433594 521.00048828125 C 239.82424926757812 522.9122314453125 239.6501007080078 524.9298706054688 239.7227783203125 527.0785522460938 C 239.88629150390625 529.1339721679688 239.90371704101562 530.9073486328125 239.76385498046875 532.5180053710938 C 239.5123291015625 534.187255859375 239.12242126464844 535.7898559570312 238.95358276367188 537.1546020507812 C 238.9161834716797 538.283203125 239.0593719482422 539.6395263671875 238.97647094726562 541.2725219726562 C 237.61744689941406 542.8577880859375 236.2433319091797 543.9288330078125 236.0420684814453 544.6674194335938 C 237.01385498046875 546.193359375 237.9290008544922 549.2402954101562 238.1139678955078 552.9197387695312 C 237.75613403320312 557.57763671875 237.89932250976562 563.10009765625 238.39112854003906 567.662109375 C 238.90223693847656 571.033447265625 239.5515899658203 573.7685546875 238.85324096679688 575.3765869140625 C 237.1496124267578 574.7722778320312 235.2073974609375 572.1331787109375 233.9277801513672 567.3028564453125 C 233.5135955810547 561.833740234375 233.89186096191406 556.01025390625 234.15322875976562 550.7435913085938 C 234.1060333251953 546.6207885742188 234.19937133789062 543.3469848632812 234.234619140625 541.3820190429688 C 234.95208740234375 540.654296875 235.85975646972656 540.0258178710938 235.88954162597656 539.7001342773438 C 235.3373565673828 538.6107177734375 234.70765686035156 536.9522705078125 235.08770751953125 534.7359619140625 C 235.34266662597656 532.5399169921875 235.32083129882812 530.105224609375 235.91221618652344 527.6869506835938 C 236.5871124267578 525.75341796875 236.25372314453125 524.555419921875 234.92669677734375 524.370849609375 C 232.52798461914062 525.0101318359375 230.33287048339844 524.1275024414062 228.32333374023438 521.5740966796875 C 225.89866638183594 518.425048828125 222.60194396972656 516.1948852539062 240.14964294433594 521.00048828125" stroke-width="0.0" fill="rgb(74, 46, 37)" opacity="0.9992273" stroke="rgb(178, 118, 11)" stroke-opacity="0.78702766" stroke-linecap="round" stroke-linejoin="round"/>
    <path d="M 229.0 148.0 C 230.0 148.0 231.0 148.0 232.0 149.0 C 233.0 150.0 234.0 151.0 234.0 152.0 C 234.0 153.0 234.0 154.0 234.0 155.0 C 234.0 156.0 233.0 156.0 232.0 157.0 C 231.0 157.0 230.0 157.0 229.0 158.0 C 228.0 158.0 227.0 158.0 226.0 158.0 C 225.0 158.0 225.0 157.0 225.0 156.0 C 226.0 155.0 226.0 154.0 227.0 153.0 C 227.0 152.0 228.0 151.0 228.0 150.0 C 228.0 149.0 228.0 148.0 229.0 148.0" stroke-width="0.0" fill="rgb(252, 252, 251)" opacity="1.0" stroke="rgb(145, 211, 213)" stroke-opacity="0.76676816" stroke-linecap="round" stroke-linejoin="round"/>
    <path d="M 143.0 330.0 C 144.0 330.0 145.0 330.0 146.0 330.0 C 146.0 331.0 146.0 332.0 146.0 333.0 C 147.0 334.0 148.0 335.0 148.0 336.0 C 148.0 337.0 148.0 338.0 148.0 339.0 C 148.0 340.0 148.0 341.0 148.0 342.0 C 148.0 343.0 148.0 344.0 148.0 345.0 C 148.0 346.0 148.0 347.0 147.0 348.0 C 147.0 349.0 147.0 350.0 148.0 351.0 C 149.0 351.0 150.0 351.0 151.0 351.0 C 152.0 350.0 152.0 349.0 152.0 348.0 C 152.0 347.0 153.0 346.0 153.0 345.0 C 153.0 344.0 154.0 343.0 154.0 342.0 C 154.0 341.0 154.0 340.0 155.0 339.0 C 155.0 338.0 155.0 339.0 156.0 340.0 C 157.0 340.0 158.0 340.0 158.0 341.0 C 158.0 342.0 158.0 343.0 159.0 344.0 C 159.0 345.0 159.0 346.0 158.0 346.0 C 157.0 346.0 156.0 347.0 156.0 348.0 C 156.0 349.0 155.0 350.0 155.0 351.0 C 155.0 352.0 155.0 353.0 155.0 352.0 C 154.0 351.0 153.0 351.0 152.0 351.0 C 151.0 352.0 151.0 353.0 150.0 352.0 C 149.0 351.0 148.0 352.0 148.0 353.0 C 148.0 354.0 149.0 355.0 149.0 356.0 C 149.0 357.0 149.0 358.0 150.0 359.0 C 151.0 359.0 152.0 359.0 152.0 360.0 C 152.0 361.0 152.0 362.0 152.0 363.0 C 152.0 364.0 152.0 365.0 152.0 366.0 C 152.0 367.0 152.0 368.0 152.0 367.0 C 152.0 366.0 152.0 365.0 152.0 364.0 C 152.0 363.0 151.0 362.0 150.0 362.0 C 149.0 362.0 148.0 363.0 148.0 364.0 C 148.0 365.0 148.0 366.0 148.0 367.0 C 148.0 368.0 148.0 369.0 148.0 370.0 C 148.0 371.0 148.0 372.0 149.0 373.0 C 150.0 373.0 151.0 373.0 152.0 373.0 C 151.0 373.0 150.0 373.0 149.0 374.0 C 148.0 375.0 148.0 377.0 150.0 378.0 C 152.0 378.0 150.0 378.0 148.0 378.0 C 148.0 376.0 148.0 374.0 148.0 372.0 C 148.0 370.0 148.0 368.0 148.0 366.0 C 148.0 364.0 148.0 362.0 146.0 361.0 C 145.0 363.0 145.0 365.0 145.0 367.0 C 144.0 369.0 145.0 371.0 146.0 373.0 C 146.0 375.0 145.0 373.0 143.0 373.0 C 141.0 372.0 139.0 372.0 137.0 373.0 C 135.0 373.0 133.0 373.0 131.0 373.0 C 129.0 372.0 128.0 371.0 128.0 369.0 C 126.0 367.0 124.0 367.0 122.0 367.0 C 121.0 365.0 120.0 364.0 118.0 363.0 C 118.0 361.0 118.0 359.0 118.0 357.0 C 118.0 355.0 118.0 353.0 119.0 351.0 C 119.0 349.0 119.0 347.0 118.0 345.0 C 118.0 343.0 120.0 344.0 121.0 342.0 C 123.0 342.0 124.0 340.0 126.0 340.0 C 127.0 338.0 128.0 337.0 130.0 337.0 C 131.0 335.0 133.0 335.0 135.0 334.0 C 137.0 333.0 139.0 333.0 140.0 335.0 C 142.0 336.0 144.0 335.0 142.0 333.0 C 141.0 332.0 142.0 330.0 143.0 330.0" stroke-width="0.0" fill="rgb(147, 115, 174)" opacity="1.0" stroke="rgb(54, 115, 145)" stroke-opacity="0.8528498" stroke-linecap="round" stroke-linejoin="round"/>
    <path d="M 169.0 257.0 C 169.0 258.0 169.0 259.0 169.0 260.0 C 170.0 261.0 171.0 262.0 172.0 262.0 C 172.0 263.0 172.0 264.0 172.0 265.0 C 172.0 266.0 172.0 267.0 172.0 268.0 C 172.0 269.0 173.0 270.0 174.0 270.0 C 175.0 270.0 175.0 271.0 176.0 272.0 C 177.0 272.0 178.0 272.0 179.0 272.0 C 180.0 272.0 181.0 272.0 182.0 272.0 C 183.0 272.0 184.0 273.0 185.0 272.0 C 185.0 271.0 185.0 270.0 185.0 271.0 C 186.0 272.0 187.0 272.0 188.0 272.0 C 189.0 272.0 190.0 272.0 190.0 273.0 C 190.0 274.0 191.0 275.0 192.0 275.0 C 193.0 275.0 193.0 276.0 193.0 277.0 C 192.0 278.0 192.0 279.0 192.0 280.0 C 192.0 281.0 192.0 282.0 192.0 284.0 C 192.0 284.0 191.0 282.0 189.0 281.0 C 187.0 281.0 185.0 282.0 185.0 284.0 C 184.0 286.0 184.0 288.0 185.0 290.0 C 186.0 292.0 188.0 292.0 189.0 290.0 C 190.0 291.0 190.0 293.0 188.0 294.0 C 186.0 295.0 186.0 297.0 186.0 299.0 C 186.0 297.0 186.0 295.0 184.0 294.0 C 182.0 294.0 180.0 294.0 178.0 293.0 C 177.0 292.0 178.0 290.0 179.0 288.0 C 180.0 286.0 179.0 284.0 177.0 286.0 C 177.0 288.0 176.0 290.0 175.0 292.0 C 173.0 294.0 172.0 296.0 172.0 298.0 C 170.0 300.0 170.0 302.0 169.0 304.0 C 168.0 306.0 167.0 308.0 166.0 310.0 C 164.0 310.0 163.0 309.0 162.0 307.0 C 162.0 305.0 160.0 304.0 158.0 305.0 C 158.0 307.0 158.0 309.0 158.0 311.0 C 159.0 313.0 160.0 315.0 162.0 315.0 C 164.0 315.0 165.0 316.0 164.0 318.0 C 164.0 320.0 163.0 322.0 162.0 324.0 C 162.0 326.0 162.0 328.0 161.0 330.0 C 160.0 332.0 160.0 334.0 160.0 334.0 C 158.0 333.0 157.0 331.0 158.0 329.0 C 159.0 327.0 160.0 325.0 160.0 323.0 C 159.0 321.0 157.0 321.0 155.0 321.0 C 154.0 319.0 153.0 318.0 153.0 316.0 C 154.0 314.0 155.0 313.0 157.0 312.0 C 157.0 310.0 158.0 308.0 157.0 306.0 C 157.0 304.0 157.0 302.0 158.0 300.0 C 159.0 299.0 161.0 298.0 160.0 296.0 C 159.0 294.0 158.0 292.0 157.0 290.0 C 157.0 288.0 158.0 290.0 160.0 291.0 C 162.0 291.0 163.0 293.0 165.0 293.0 C 166.0 291.0 168.0 292.0 170.0 292.0 C 171.0 290.0 171.0 288.0 169.0 287.0 C 167.0 286.0 165.0 286.0 163.0 287.0 C 162.0 287.0 162.0 285.0 161.0 283.0 C 161.0 281.0 159.0 280.0 157.0 281.0 C 156.0 282.0 156.0 280.0 157.0 278.0 C 158.0 277.0 160.0 276.0 159.0 274.0 C 159.0 272.0 161.0 271.0 163.0 270.0 C 164.0 268.0 163.0 266.0 163.0 264.0 C 165.0 262.0 167.0 262.0 169.0 260.0 C 169.0 258.0 169.0 256.0 169.0 257.0" stroke-width="0.0" fill="rgb(171, 158, 201)" opacity="1.0" stroke="rgb(248, 85, 91)" stroke-opacity="0.38011515" stroke-linecap="round" stroke-linejoin="round"/>
  </g>
</svg>
