<?xml version="1.0" ?>
<svg xmlns="http://www.w3.org/2000/svg" version="1.1" width="474" height="596">
  <defs/>
  <g>
    <path d="M 267.5403137207031 -2.8890419006347656 C 269.63201904296875 -2.100450038909912 269.6441650390625 -2.487762451171875 270.51617431640625 -2.6296334266662598 C 270.8299255371094 -3.2549712657928467 270.5106506347656 -3.8100359439849854 270.5755615234375 -4.031977653503418 C 271.64971923828125 -4.3200249671936035 271.15185546875 -4.579830169677734 271.0719909667969 -4.791019916534424 C 272.47210693359375 -4.566208839416504 272.6650390625 -4.427554130554199 273.31109619140625 -4.100372314453125 C 275.7906494140625 -2.5036122798919678 278.70599365234375 -2.7634315490722656 295.8086242675781 -0.7927207350730896 C 281.47119140625 1.320373296737671 284.5273742675781 0.3517192304134369 298.8541259765625 3.9321048259735107 C 304.495849609375 5.769543647766113 311.4671630859375 8.23403549194336 318.5970153808594 10.967519760131836 C 326.8876037597656 14.692423820495605 336.2323913574219 19.190536499023438 344.18426513671875 23.88661003112793 C 352.62298583984375 28.883577346801758 360.61700439453125 34.63430404663086 368.172119140625 40.76818084716797 C 377.1248779296875 47.78923797607422 384.36541748046875 55.521156311035156 392.0057678222656 63.31363296508789 C 399.4673156738281 71.43663787841797 406.1778259277344 79.6390151977539 412.42889404296875 88.36190032958984 C 418.18695068359375 96.74357604980469 423.8083801269531 104.78299713134766 428.2915954589844 113.11333465576172 C 433.5645446777344 120.76300048828125 435.21246337890625 128.94161987304688 432.16961669921875 135.74942016601562 C 429.0393371582031 143.61538696289062 423.0087585449219 152.4117431640625 415.5981140136719 161.18223571777344 C 410.67626953125 167.9935760498047 400.0771179199219 177.76657104492188 393.3961486816406 184.41848754882812 C 385.2419128417969 191.27952575683594 377.2546081542969 197.5444793701172 367.2505798339844 204.69638061523438 C 359.6122741699219 210.0863494873047 347.8562316894531 217.7218017578125 339.7486877441406 220.2452850341797 C 323.19342041015625 226.42959594726562 320.3522644042969 222.38406372070312 296.5086975097656 236.02957153320312 C 289.4173889160156 215.21920776367188 319.0809326171875 216.91358947753906 325.56494140625 210.30709838867188 C 333.05352783203125 202.63629150390625 341.14215087890625 194.27256774902344 348.7761535644531 185.86459350585938 C 355.2796325683594 177.3124542236328 360.5155334472656 169.5557861328125 364.1014099121094 161.54396057128906 C 366.81561279296875 153.19866943359375 368.0093078613281 146.69482421875 367.23028564453125 141.1077117919922 C 365.3431091308594 135.1397247314453 362.45770263671875 129.6702880859375 358.0324401855469 125.77970123291016 C 349.0884704589844 122.96630859375 348.45599365234375 126.12666320800781 344.212646484375 114.81961059570312 C 340.80865478515625 106.80892944335938 329.24298095703125 100.80427551269531 320.0001525878906 100.72212982177734 C 317.8599548339844 100.01495361328125 294.8695373535156 104.68789672851562 316.3653259277344 104.10649108886719 C 350.0027160644531 117.8382568359375 285.6674499511719 116.54762268066406 280.184326171875 113.62152862548828 C 275.29931640625 109.5416488647461 268.3289794921875 109.74628448486328 262.63818359375 110.9276123046875 C 257.1636962890625 112.07503509521484 251.9014892578125 112.5981674194336 250.5267333984375 114.681640625 C 243.0658416748047 117.07640838623047 237.43862915039062 117.28540802001953 232.4590606689453 118.95342254638672 C 227.17233276367188 121.00074768066406 221.05018615722656 122.89293670654297 215.01438903808594 125.04478454589844 C 209.5926055908203 127.87561798095703 203.43714904785156 130.11827087402344 196.82310485839844 132.25894165039062 C 189.28515625 134.33236694335938 182.00350952148438 136.19015502929688 175.2194061279297 138.3548126220703 C 169.1604461669922 140.4043731689453 163.1464080810547 142.2279510498047 158.29771423339844 149.2835693359375 C 155.0736083984375 151.73516845703125 147.98927307128906 152.69749450683594 147.33262634277344 156.9945831298828 C 144.50250244140625 163.22695922851562 144.1962432861328 169.9610595703125 145.6763916015625 177.01344299316406 C 148.55335998535156 184.5989227294922 152.90484619140625 192.1486358642578 158.68373107910156 200.1776885986328 C 165.60630798339844 208.0421600341797 173.34848022460938 215.26771545410156 181.50009155273438 221.65940856933594 C 189.7445068359375 227.2381591796875 197.5320281982422 232.0181884765625 204.32521057128906 235.9939422607422 C 210.28138732910156 238.5469512939453 215.1798553466797 235.0496368408203 260.08331298828125 244.2791290283203 C 215.85975646972656 261.00927734375 207.24635314941406 245.85736083984375 194.1060791015625 240.53204345703125 C 182.75804138183594 237.27517700195312 178.95455932617188 242.2673797607422 162.09814453125 242.6102752685547 C 166.00079345703125 238.4124755859375 162.34584045410156 242.56637573242188 141.6604461669922 239.88612365722656 C 133.2292938232422 239.64112854003906 120.38390350341797 236.56005859375 111.05675506591797 234.12034606933594 C 104.2662582397461 232.50514221191406 95.29298400878906 228.8773193359375 87.79866027832031 226.1692657470703 C 79.17479705810547 222.7617950439453 68.53214263916016 217.8111572265625 63.01368713378906 213.97047424316406 C 55.82796859741211 209.2985076904297 56.01640319824219 207.1903839111328 53.51298141479492 201.39401245117188 C 52.85723114013672 189.0244140625 54.90098571777344 182.03646850585938 55.71908950805664 174.06793212890625 C 58.24013137817383 160.82981872558594 59.642982482910156 154.9536590576172 62.87997055053711 143.94515991210938 C 64.2346420288086 139.0710906982422 67.68476104736328 128.40997314453125 71.17716979980469 121.83132934570312 C 73.49864196777344 114.87876892089844 79.28057098388672 105.05313110351562 83.74569702148438 96.61468505859375 C 88.50684356689453 89.19580841064453 93.66069793701172 80.7849349975586 101.14395904541016 72.39785766601562 C 106.84125518798828 65.3337631225586 114.99931335449219 56.46744155883789 123.2149658203125 49.45344161987305 C 129.97537231445312 43.44729232788086 138.6863250732422 36.8581657409668 146.07241821289062 31.74644660949707 C 155.20680236816406 25.64415168762207 163.43521118164062 23.791297912597656 176.15914916992188 23.545351028442383 C 177.9111785888672 23.918195724487305 191.2960662841797 24.55430793762207 198.58946228027344 27.119298934936523 C 221.61886596679688 32.05819320678711 211.2601776123047 37.61604690551758 210.4144744873047 11.949007987976074 C 220.23133850097656 43.052886962890625 213.84124755859375 23.897930145263672 224.50469970703125 28.994264602661133 C 232.90072631835938 19.848844528198242 239.04653930664062 12.436808586120605 249.7328338623047 7.082888603210449 C 258.59661865234375 1.6487011909484863 271.1246032714844 0.9345768690109253 267.5403137207031 -2.8890419006347656" stroke-width="0.0" fill="rgb(64, 38, 31)" opacity="0.99997705" stroke="rgb(132, 70, 107)" stroke-opacity="0.70199823" stroke-linecap="round" stroke-linejoin="round"/>
    <path d="M 316.9217529296875 225.20709228515625 C 314.3126525878906 227.78402709960938 302.7157287597656 234.30731201171875 291.8449401855469 237.06446838378906 C 278.68853759765625 240.67225646972656 288.0306396484375 238.4088897705078 294.3587341308594 239.59295654296875 C 294.9810791015625 248.3332977294922 290.62957763671875 260.7501525878906 293.3492736816406 260.4621887207031 C 277.8270568847656 260.02154541015625 273.2403259277344 262.2769775390625 252.86004638671875 253.75096130371094 C 244.22532653808594 249.8903350830078 236.4896697998047 246.3411102294922 230.502685546875 248.9530487060547 C 229.2683563232422 250.6718292236328 232.33851623535156 250.92727661132812 239.95848083496094 247.97845458984375 C 248.3852081298828 251.7023468017578 260.2724609375 258.0072326660156 273.94158935546875 260.6730651855469 C 290.09100341796875 256.02532958984375 289.0830993652344 264.8840026855469 296.77789306640625 279.98968505859375 C 301.5824279785156 289.3459777832031 306.03900146484375 302.6463928222656 309.9729309082031 311.3035583496094 C 308.69940185546875 305.8966979980469 312.9337158203125 304.4909973144531 308.5011291503906 313.64508056640625 C 309.4792175292969 297.4751281738281 295.37969970703125 285.7896728515625 291.3423156738281 265.73309326171875 C 287.7142333984375 266.07061767578125 295.2513732910156 249.37855529785156 294.53863525390625 239.3238067626953 C 310.2627868652344 241.5887908935547 334.2544860839844 245.3703155517578 360.2437744140625 259.72296142578125 C 370.7214050292969 271.4947204589844 378.37054443359375 270.74066162109375 394.5258483886719 281.1321105957031 C 406.16046142578125 288.09039306640625 410.29296875 293.5936584472656 412.391357421875 294.9864807128906 C 417.1115417480469 292.6743469238281 429.2253112792969 289.1420593261719 450.52716064453125 282.30340576171875 C 439.22137451171875 309.0980529785156 457.5362548828125 292.98822021484375 477.8058776855469 320.4949951171875 C 461.8611755371094 324.2131042480469 443.4779357910156 337.7083435058594 438.65045166015625 352.04925537109375 C 411.6260070800781 345.2487487792969 401.21417236328125 327.4725646972656 377.98992919921875 328.7642517089844 C 328.83172607421875 318.4537658691406 353.73773193359375 328.4475402832031 327.1982116699219 323.08953857421875 C 315.98785400390625 350.6726379394531 332.3335266113281 388.4349365234375 316.8218688964844 380.9032897949219 C 314.26995849609375 417.6111755371094 302.88079833984375 456.14373779296875 292.7373046875 471.1568298339844 C 285.8954772949219 483.3678894042969 289.46014404296875 517.2183837890625 283.27081298828125 526.4853515625 C 268.41607666015625 527.5863647460938 253.59378051757812 528.4033203125 240.4684295654297 527.8892211914062 C 239.11526489257812 539.6456298828125 238.1190185546875 553.35107421875 238.5997314453125 563.2271728515625 C 256.209228515625 570.5390625 256.6264953613281 570.8177490234375 314.11724853515625 571.7398071289062 C 323.90606689453125 571.267822265625 338.3738098144531 571.2113647460938 343.70550537109375 572.3091430664062 C 338.12432861328125 579.1967163085938 322.67144775390625 585.187744140625 297.4348449707031 584.6222534179688 C 277.4315490722656 584.48876953125 239.78111267089844 581.5248413085938 238.7670135498047 576.334228515625 C 226.65989685058594 570.7666015625 238.92372131347656 520.12353515625 236.3778839111328 507.4076232910156 C 253.62803649902344 502.1142578125 245.47979736328125 461.7489318847656 232.71942138671875 455.3225402832031 C 223.0405731201172 451.451416015625 231.31578063964844 463.12890625 224.87147521972656 474.5263671875 C 214.23599243164062 476.2926940917969 217.49102783203125 473.99713134765625 213.25778198242188 493.6977844238281 C 211.5349578857422 508.7730407714844 209.20498657226562 510.7237548828125 213.3123016357422 528.5965576171875 C 215.0589141845703 552.0923461914062 220.88795471191406 581.9382934570312 215.5178985595703 583.3895874023438 C 204.30682373046875 587.65625 196.4931182861328 583.72607421875 175.63421630859375 591.7554321289062 C 151.37576293945312 599.445556640625 120.43946838378906 596.3518676757812 117.835205078125 586.9552001953125 C 115.18023681640625 565.6286010742188 125.96910858154297 584.1041870117188 153.01986694335938 582.444580078125 C 185.55325317382812 573.5285034179688 182.66265869140625 576.9908447265625 212.7169189453125 572.9226684570312 C 214.74017333984375 576.711669921875 211.87115478515625 540.3501586914062 209.51597595214844 530.3487548828125 C 195.7169189453125 531.8499755859375 181.0176239013672 531.4750366210938 170.94244384765625 527.123046875 C 157.6116943359375 524.58203125 142.78663635253906 522.727294921875 156.7123260498047 508.0643615722656 C 177.57830810546875 503.2778015136719 172.96743774414062 476.7491760253906 158.027587890625 468.1007080078125 C 155.3012237548828 437.72113037109375 151.708984375 410.8367614746094 152.59176635742188 398.3296203613281 C 117.47840118408203 398.93792724609375 111.41568756103516 380.0523986816406 114.76956176757812 343.1805725097656 C 77.90704345703125 336.8399353027344 98.96855926513672 371.8138122558594 78.91215515136719 364.49853515625 C 54.20037078857422 366.11260986328125 43.522178649902344 355.0668029785156 39.307228088378906 331.720458984375 C 61.63813781738281 322.25946044921875 69.36347198486328 303.8155517578125 81.05537414550781 297.04327392578125 C 89.8909683227539 287.39044189453125 93.76307678222656 290.5387878417969 89.28648376464844 285.3906555175781 C 91.29206085205078 278.66107177734375 99.92012023925781 272.64422607421875 110.853271484375 265.3150634765625 C 128.2530975341797 253.9833526611328 140.084716796875 248.67161560058594 162.07949829101562 241.14903259277344 C 181.22373962402344 242.97706604003906 172.0566864013672 236.2258758544922 191.89962768554688 238.93417358398438 C 186.27716064453125 264.0358581542969 182.53182983398438 284.60406494140625 173.19247436523438 298.0301208496094 C 165.03005981445312 315.2364196777344 163.34913635253906 334.01922607421875 157.69830322265625 348.3442687988281 C 152.79132080078125 362.0810852050781 154.53097534179688 359.5064697265625 154.86239624023438 359.95428466796875 C 157.8202362060547 349.9665222167969 161.75189208984375 330.8267517089844 166.96543884277344 312.45458984375 C 168.9244842529297 300.8777770996094 177.81178283691406 292.61309814453125 181.9540557861328 278.66595458984375 C 187.14059448242188 265.8645324707031 190.18190002441406 247.53042602539062 192.2498779296875 239.54147338867188 C 211.0962677001953 247.48118591308594 237.11492919921875 247.0417022705078 257.54180908203125 244.28408813476562 C 251.34527587890625 226.53619384765625 278.4775085449219 249.91543579101562 316.9217529296875 225.20709228515625" stroke-width="0.0" fill="rgb(232, 106, 162)" opacity="0.9992103" stroke="rgb(201, 16, 132)" stroke-opacity="0.47924513" stroke-linecap="round" stroke-linejoin="round"/>
    <path d="M 335.7686767578125 94.59690856933594 C 348.5028076171875 94.063232421875 346.1814880371094 93.34999084472656 342.7208251953125 93.42971801757812 C 345.8371887207031 93.74140930175781 346.7140808105469 95.48200988769531 348.3570251464844 95.15655517578125 C 343.1679992675781 92.93406677246094 349.3918151855469 97.22219848632812 351.07061767578125 100.08432006835938 C 349.41912841796875 97.42029571533203 354.93994140625 97.37759399414062 350.1889953613281 98.2685775756836 C 348.68994140625 97.31334686279297 357.8953552246094 105.1900405883789 359.06689453125 108.61738586425781 C 354.2276916503906 100.61261749267578 358.0457763671875 105.30673217773438 358.4215087890625 103.21987915039062 C 355.0730895996094 105.08042907714844 357.4959716796875 105.14610290527344 357.51434326171875 107.44441986083984 C 356.4635009765625 103.73551940917969 361.9862365722656 107.03651428222656 355.50616455078125 104.34613037109375 C 362.9713439941406 110.29337310791016 365.42608642578125 119.95086669921875 365.8527526855469 119.7236557006836 C 369.3324890136719 128.80467224121094 369.9207458496094 134.2107696533203 369.757568359375 134.419921875 C 370.230712890625 131.34910583496094 371.9308776855469 149.3184814453125 370.0838317871094 152.1293182373047 C 371.933837890625 148.14073181152344 369.10205078125 158.89932250976562 369.48370361328125 161.0476837158203 C 367.1696472167969 168.68336486816406 364.1274108886719 176.06704711914062 363.8526306152344 175.26901245117188 C 361.99517822265625 180.62149047851562 357.5383605957031 187.3672637939453 353.6477355957031 191.86306762695312 C 350.75732421875 195.9906768798828 347.20147705078125 199.829345703125 344.0509033203125 202.47044372558594 C 343.8478088378906 203.0333709716797 338.1109924316406 208.12867736816406 334.77069091796875 210.5272979736328 C 328.7082824707031 215.2714385986328 323.5065002441406 218.7451934814453 312.8943176269531 224.89797973632812 C 302.12506103515625 229.59645080566406 312.558837890625 232.72525024414062 307.21484375 228.6737060546875 C 312.88134765625 224.1000213623047 300.21014404296875 231.81259155273438 293.9687805175781 232.8909454345703 C 301.49212646484375 234.73020935058594 287.78521728515625 235.842529296875 276.1373596191406 238.09390258789062 C 287.51641845703125 238.2417449951172 271.04010009765625 237.62391662597656 266.680908203125 240.8379669189453 C 269.8379211425781 241.86732482910156 264.8505554199219 242.75701904296875 255.2611541748047 242.58901977539062 C 255.2037353515625 240.0626983642578 259.2830810546875 247.2064971923828 251.2403564453125 250.94924926757812 C 250.42149353027344 252.77842712402344 242.07586669921875 254.8274688720703 231.87696838378906 255.54998779296875 C 194.58935546875 242.19061279296875 223.66903686523438 250.50990295410156 272.23193359375 242.0880889892578 C 222.64111328125 245.1415557861328 221.69842529296875 243.97804260253906 203.86447143554688 240.16085815429688 C 201.84034729003906 239.19564819335938 193.5866241455078 237.06784057617188 189.7386932373047 234.83792114257812 C 186.24044799804688 233.37034606933594 180.0772705078125 230.4786834716797 173.07180786132812 225.4388885498047 C 173.96273803710938 225.4918212890625 169.40328979492188 223.43780517578125 166.82546997070312 220.6724395751953 C 162.1491241455078 216.64532470703125 159.25479125976562 213.6761932373047 154.98171997070312 208.25088500976562 C 155.21153259277344 208.63856506347656 150.907958984375 202.60739135742188 147.37779235839844 195.26358032226562 C 146.48809814453125 192.57601928710938 145.17408752441406 188.41140747070312 144.89645385742188 187.47293090820312 C 142.1085205078125 175.66062927246094 143.0575408935547 169.8262939453125 143.56590270996094 163.07608032226562 C 145.1476287841797 158.297119140625 147.9124755859375 148.287841796875 148.6487274169922 150.8535614013672 C 151.14097595214844 148.5313720703125 160.58604431152344 143.90576171875 155.6556854248047 145.8327178955078 C 157.89125061035156 140.37010192871094 157.9790496826172 124.56969451904297 157.3299102783203 121.6246337890625 C 158.71815490722656 124.94094848632812 163.94154357910156 132.76199340820312 164.77578735351562 135.7513885498047 C 165.9509735107422 132.6040496826172 165.99951171875 137.7954864501953 170.68699645996094 138.05645751953125 C 176.4534149169922 135.01882934570312 182.4496612548828 132.25961303710938 188.03781127929688 130.2338409423828 C 195.302490234375 127.37361145019531 202.94276428222656 124.36112213134766 201.0118865966797 125.07183837890625 C 203.66458129882812 124.74330139160156 216.5560302734375 120.20709228515625 217.39015197753906 120.43524169921875 C 222.36129760742188 119.31664276123047 233.11280822753906 115.50576782226562 245.05258178710938 115.01185607910156 C 237.58697509765625 114.00358581542969 247.70013427734375 114.68228149414062 246.37257385253906 113.9162368774414 C 246.19627380371094 108.17982482910156 244.48768615722656 106.89588928222656 243.212646484375 103.10855865478516 C 237.06814575195312 90.52162170410156 233.16848754882812 88.49268341064453 239.74197387695312 91.93045043945312 C 246.19886779785156 95.99189758300781 249.72772216796875 99.2935791015625 255.3737030029297 104.65923309326172 C 255.8925323486328 106.49187469482422 260.3907470703125 110.95397186279297 258.8871154785156 109.00670623779297 C 263.7009582519531 111.73221588134766 270.7614440917969 106.20824432373047 268.8764953613281 107.93840789794922 C 277.8998718261719 105.57649230957031 290.7036437988281 103.69295501708984 297.0245666503906 101.71125793457031 C 300.3944396972656 101.81851959228516 322.1216125488281 95.81146240234375 307.9342041015625 100.52040100097656 C 273.6959228515625 120.52916717529297 316.38934326171875 113.30387878417969 323.1785888671875 106.72213745117188 C 313.6778259277344 104.80599212646484 321.2728271484375 103.64417266845703 323.6669616699219 108.0913314819336 C 327.7742919921875 109.18855285644531 332.5968322753906 119.80571746826172 329.7986755371094 128.53318786621094 C 329.85626220703125 130.3690643310547 328.4690856933594 132.0419464111328 324.2008056640625 136.267333984375 C 330.2513732910156 131.4647979736328 327.4561462402344 133.27835083007812 315.18475341796875 134.9154510498047 C 332.0346984863281 135.50343322753906 337.6088562011719 128.3963623046875 344.8500061035156 126.3917236328125 C 343.92364501953125 138.07289123535156 347.6063232421875 118.13215637207031 343.6119689941406 112.73077392578125 C 342.507568359375 115.9917221069336 353.2710266113281 129.53065490722656 343.9915466308594 110.59247589111328 C 337.2742614746094 102.77955627441406 329.837646484375 100.0582275390625 323.44952392578125 99.11113739013672 C 300.14031982421875 97.50032806396484 308.9903869628906 100.12728881835938 335.7686767578125 94.59690856933594" stroke-width="0.0" fill="rgb(251, 188, 104)" opacity="1.0" stroke="rgb(158, 41, 67)" stroke-opacity="0.17667209" stroke-linecap="round" stroke-linejoin="round"/>
    <path d="M 99.31278228759766 285.5716857910156 C 105.492431640625 290.85040283203125 114.14421081542969 299.2980041503906 119.41254425048828 308.9293518066406 C 119.6712417602539 312.787353515625 125.70991516113281 315.2220764160156 125.76551055908203 333.83221435546875 C 124.15840911865234 336.627197265625 115.1600570678711 338.1650390625 118.12062072753906 341.4630432128906 C 124.85198211669922 353.2568664550781 130.43064880371094 360.2066955566406 135.5089874267578 367.9063415527344 C 140.32852172851562 373.81988525390625 145.0137939453125 380.1225891113281 150.5823516845703 386.3647155761719 C 154.7786102294922 390.45159912109375 154.91395568847656 393.4306640625 160.08213806152344 392.0907287597656 C 169.03125 388.5775451660156 177.49415588378906 384.4859619140625 172.90451049804688 379.9994812011719 C 192.44290161132812 378.88519287109375 215.39540100097656 375.3774719238281 239.35597229003906 376.478515625 C 225.9505615234375 375.24169921875 254.01022338867188 375.47723388671875 266.8040771484375 375.6529846191406 C 285.6558532714844 376.8221435546875 300.62261962890625 377.00579833984375 303.6126708984375 382.2408752441406 C 292.08306884765625 395.0004577636719 294.0860595703125 403.95916748046875 294.3835754394531 414.6424255371094 C 293.6949462890625 426.86376953125 292.23114013671875 439.8165283203125 291.09173583984375 452.7840270996094 C 288.63519287109375 464.3462219238281 286.8811340332031 477.5455627441406 283.4851989746094 507.9178466796875 C 289.8274841308594 500.60498046875 318.8462219238281 508.3346252441406 289.223876953125 523.0123901367188 C 294.95391845703125 530.4869995117188 309.1572570800781 549.0673217773438 314.6232604980469 544.1445922851562 C 328.7553405761719 556.4855346679688 344.3331298828125 549.1075439453125 339.6272888183594 575.5855712890625 C 350.1328430175781 560.9891967773438 336.9894714355469 551.4133911132812 329.6651916503906 548.305908203125 C 315.616455078125 541.8424072265625 302.7237548828125 534.9019165039062 287.94989013671875 528.6212158203125 C 272.4707336425781 533.8341064453125 255.88458251953125 536.3753051757812 237.26162719726562 528.7131958007812 C 240.5010528564453 541.1697998046875 235.49742126464844 542.071533203125 235.08909606933594 550.4947509765625 C 237.02915954589844 564.7503051757812 237.8463897705078 568.8558959960938 253.2720947265625 569.539794921875 C 262.47821044921875 573.3034057617188 271.282470703125 572.313720703125 285.8564147949219 572.4823608398438 C 288.9201965332031 574.2311401367188 298.53314208984375 573.1614379882812 313.1356506347656 573.8694458007812 C 308.01422119140625 575.8815307617188 315.4203796386719 567.5103759765625 333.0391540527344 577.323974609375 C 297.9851989746094 582.8424682617188 283.2302551269531 580.1183471679688 275.9894104003906 580.4293212890625 C 260.9106140136719 579.1893310546875 254.8416290283203 577.7296142578125 239.5736541748047 574.4522094726562 C 239.50160217285156 571.8782958984375 237.04241943359375 559.5420532226562 237.45574951171875 533.51708984375 C 246.6420135498047 519.153076171875 209.34307861328125 520.103271484375 236.80050659179688 506.51800537109375 C 244.42263793945312 508.19329833984375 242.990478515625 468.43890380859375 241.34475708007812 461.6311950683594 C 238.58114624023438 457.24151611328125 232.0896759033203 449.992431640625 221.52725219726562 455.4945068359375 C 211.9460906982422 465.6795654296875 210.16650390625 476.3490905761719 208.5394287109375 511.4261779785156 C 215.74697875976562 501.13421630859375 230.5487060546875 522.3011474609375 211.93775939941406 524.0887451171875 C 207.27394104003906 534.7069702148438 200.78785705566406 535.0188598632812 186.1713409423828 536.5384521484375 C 170.48841857910156 534.025146484375 173.2211151123047 533.5144653320312 160.35130310058594 527.7801513671875 C 162.98318481445312 538.535888671875 150.604736328125 537.7584838867188 148.42991638183594 551.4038696289062 C 133.7435302734375 555.404052734375 140.2338104248047 561.4804077148438 125.52294921875 567.5426025390625 C 113.6469955444336 578.5901489257812 117.77196502685547 575.0050659179688 128.41693115234375 590.4488525390625 C 142.51663208007812 591.6177368164062 142.36572265625 590.4395141601562 143.74693298339844 583.1846313476562 C 158.6338653564453 585.3667602539062 173.77760314941406 576.8132934570312 187.76507568359375 576.3966064453125 C 197.92955017089844 576.7237548828125 208.0000762939453 575.4404907226562 213.6527099609375 578.05615234375 C 210.02305603027344 582.2467041015625 182.73187255859375 590.3582153320312 215.0474395751953 584.192626953125 C 212.49044799804688 587.5337524414062 184.47702026367188 588.7086791992188 206.6951141357422 583.0823364257812 C 173.0063934326172 580.9019165039062 169.91029357910156 594.6699829101562 140.58538818359375 591.467041015625 C 146.97134399414062 580.5084228515625 119.58686828613281 580.3760375976562 128.8867645263672 579.5333251953125 C 119.45792388916016 574.5597534179688 123.32221221923828 572.0193481445312 139.65077209472656 562.22998046875 C 142.02195739746094 551.5377807617188 151.86936950683594 561.8494873046875 155.97393798828125 538.7468872070312 C 169.8748016357422 522.9830322265625 141.36795043945312 513.244873046875 165.0937957763672 507.184814453125 C 168.80755615234375 482.6008605957031 166.41195678710938 466.8019714355469 166.44732666015625 451.8399658203125 C 166.06063842773438 436.7637939453125 162.80715942382812 421.96771240234375 167.143310546875 403.4553527832031 C 155.59463500976562 392.3885803222656 145.89102172851562 381.65411376953125 137.61688232421875 370.1710205078125 C 130.26068115234375 359.7386779785156 123.59791564941406 350.7051086425781 117.4853286743164 339.89520263671875 C 113.10214233398438 347.04510498046875 95.21212005615234 351.43658447265625 88.5323486328125 357.0096130371094 C 71.36811828613281 365.0680236816406 74.86539459228516 376.5544738769531 59.25591278076172 384.53179931640625 C 61.007598876953125 372.6076354980469 58.49989318847656 435.5845642089844 42.48133850097656 386.8681640625 C 18.48417091369629 423.3012390136719 31.714616775512695 381.7235107421875 9.0171537399292 391.8114013671875 C 12.4290771484375 364.647705078125 18.501766204833984 383.0203857421875 -2.478400468826294 375.91162109375 C 6.689419269561768 356.1234130859375 17.012836456298828 346.85650634765625 21.793441772460938 340.23248291015625 C 4.099306583404541 307.75146484375 36.01752471923828 327.4693603515625 45.01025390625 334.18743896484375 C 56.99186706542969 319.89520263671875 66.74781036376953 317.7442932128906 71.7312240600586 309.8129577636719 C 84.23657989501953 296.5929260253906 95.5101089477539 288.24786376953125 99.31278228759766 285.5716857910156" stroke-width="0.0" fill="rgb(245, 197, 112)" opacity="1.0" stroke="rgb(115, 224, 22)" stroke-opacity="0.63578844" stroke-linecap="round" stroke-linejoin="round"/>
    <path d="M 173.80697631835938 384.8097839355469 C 174.7921600341797 382.77215576171875 175.80531311035156 382.7114562988281 176.9282989501953 382.864501953125 C 177.8799285888672 383.0456848144531 178.78761291503906 383.06890869140625 179.77694702148438 382.9689636230469 C 180.64439392089844 383.591552734375 181.5664520263672 383.8187255859375 182.53024291992188 383.9737854003906 C 183.51307678222656 384.1344909667969 184.48153686523438 384.3205871582031 185.44029235839844 384.48895263671875 C 186.3816680908203 384.7084655761719 187.3077392578125 384.9131164550781 188.19602966308594 385.0918884277344 C 188.9984588623047 385.3124694824219 189.73484802246094 385.5332946777344 190.40626525878906 385.64764404296875 C 190.92323303222656 386.1078186035156 191.34852600097656 386.47747802734375 191.71072387695312 386.8468933105469 C 191.8958740234375 387.34814453125 192.0384979248047 387.9019470214844 192.04037475585938 388.5202941894531 C 191.9200439453125 389.2097473144531 191.80874633789062 389.9627990722656 191.608642578125 390.8041687011719 C 191.3692626953125 391.6667785644531 191.094482421875 392.57122802734375 190.83596801757812 393.50604248046875 C 190.6016845703125 394.4322814941406 190.4791259765625 395.359130859375 190.46534729003906 396.256103515625 C 190.48983764648438 397.1040954589844 190.63832092285156 397.87115478515625 190.94601440429688 398.5166320800781 C 191.20132446289062 399.1693420410156 191.63455200195312 399.6868591308594 192.20115661621094 400.05120849609375 C 192.81509399414062 400.3968811035156 193.56771850585938 400.6166076660156 194.4642791748047 400.66961669921875 C 195.4678497314453 400.70672607421875 196.63021850585938 400.7035217285156 197.94093322753906 400.55108642578125 C 199.45265197753906 400.6053466796875 201.1334686279297 400.5621643066406 203.00051879882812 400.4306945800781 C 205.08090209960938 400.3158874511719 207.37139892578125 400.1474609375 209.8843536376953 400.0263366699219 C 212.59658813476562 400.18743896484375 215.49656677246094 400.202392578125 218.57980346679688 400.04205322265625 C 221.80654907226562 400.3159484863281 225.17672729492188 400.38323974609375 228.6602020263672 399.55963134765625 C 232.263671875 400.0722961425781 235.9240264892578 399.9775695800781 239.56900024414062 399.54754638671875 C 243.44473266601562 399.2248229980469 247.2596893310547 399.2848205566406 251.10462951660156 398.3894348144531 C 255.03085327148438 398.8135986328125 258.9316711425781 398.6298828125 262.81671142578125 398.1200256347656 C 266.7283935546875 398.0430908203125 270.61505126953125 397.92388916015625 274.4415588378906 397.6733093261719 C 278.19671630859375 397.90679931640625 281.84149169921875 398.1573791503906 285.35577392578125 398.5375061035156 C 288.58624267578125 399.429443359375 291.5971984863281 400.3685607910156 295.051025390625 401.4017639160156 C 296.81280517578125 403.06976318359375 298.7008056640625 404.6189270019531 300.4561767578125 406.514892578125 C 301.392333984375 408.9072570800781 302.08526611328125 411.1459045410156 302.7507019042969 413.61383056640625 C 302.3885803222656 416.2091979980469 301.92559814453125 418.87615966796875 301.5268249511719 421.591064453125 C 300.5088195800781 424.2490234375 299.797607421875 427.03955078125 298.6739501953125 429.91668701171875 C 296.9913330078125 432.5494689941406 295.5396728515625 435.69512939453125 294.2912902832031 438.3867492675781 C 293.12060546875 441.1336364746094 290.63592529296875 444.02264404296875 288.9755859375 446.8421325683594 C 286.8508605957031 449.43646240234375 284.96966552734375 451.70013427734375 283.26220703125 454.10760498046875 C 281.1397705078125 455.9696044921875 278.99981689453125 457.5022888183594 277.0368957519531 459.15570068359375 C 274.64190673828125 459.5631408691406 272.4162292480469 459.8729553222656 270.14361572265625 460.29302978515625 C 267.9070129394531 459.17596435546875 265.6549377441406 458.1055908203125 263.4617919921875 456.6653747558594 C 261.53173828125 454.5653991699219 259.50994873046875 452.3952941894531 257.4056396484375 450.42431640625 C 255.5895233154297 447.10198974609375 253.6995391845703 444.36602783203125 251.31253051757812 441.8556213378906 C 249.83261108398438 439.21820068359375 248.12046813964844 436.7362976074219 246.35272216796875 434.5755920410156 C 244.65110778808594 432.7441101074219 242.85989379882812 431.333984375 240.93362426757812 430.52593994140625 C 239.48660278320312 429.6976318359375 237.8507843017578 429.4020080566406 236.29751586914062 430.0042724609375 C 234.78286743164062 429.70166015625 233.33468627929688 430.23931884765625 232.021240234375 431.86431884765625 C 230.5987091064453 432.17059326171875 229.27969360351562 433.4188537597656 228.08514404296875 434.9537658691406 C 226.7484893798828 436.5643615722656 225.4415740966797 438.3529968261719 224.1671600341797 440.53399658203125 C 222.46563720703125 442.16754150390625 220.81170654296875 444.1526794433594 219.11279296875 446.3925476074219 C 217.03353881835938 448.2680969238281 214.91355895996094 450.30352783203125 212.6777801513672 452.4178466796875 C 210.14854431152344 454.5961608886719 207.5742645263672 455.9222717285156 205.0673370361328 457.63507080078125 C 202.11744689941406 458.84954833984375 199.2530975341797 459.9093017578125 196.39588928222656 460.94842529296875 C 193.53028869628906 461.4619140625 190.7296905517578 461.8280029296875 187.98936462402344 461.8907775878906 C 185.34950256347656 461.5127258300781 182.90818786621094 461.1402282714844 180.58795166015625 460.6690979003906 C 178.48585510253906 459.6493225097656 176.63241577148438 458.8169860839844 174.9236297607422 458.00140380859375 C 173.4246368408203 456.99761962890625 172.12405395507812 455.9172668457031 170.93783569335938 454.84588623046875 C 169.81752014160156 453.7207336425781 168.98594665527344 452.5009765625 168.0916748046875 450.9412536621094 C 167.3583221435547 449.2147521972656 166.5166473388672 447.48406982421875 164.77862548828125 445.60931396484375 C 164.64993286132812 443.2340393066406 164.06202697753906 440.8177490234375 162.69253540039062 438.2984924316406 C 162.3781280517578 435.18975830078125 161.6414794921875 432.0896911621094 160.7823028564453 428.77288818359375 C 160.7381134033203 425.1371765136719 160.2418212890625 421.4864196777344 159.26800537109375 417.78607177734375 C 159.56544494628906 414.0234069824219 159.59445190429688 410.2633056640625 159.32713317871094 406.3915710449219 C 160.08338928222656 402.6237487792969 160.32814025878906 398.86224365234375 160.39202880859375 395.0778503417969 C 161.97804260253906 391.5424499511719 162.5818634033203 387.9766845703125 163.30593872070312 385.113037109375 C 164.5758056640625 383.9068908691406 165.587890625 383.8534851074219 173.80697631835938 384.8097839355469" stroke-width="0.0" fill="rgb(252, 76, 1)" opacity="1.0" stroke="rgb(231, 48, 19)" stroke-opacity="0.13409148" stroke-linecap="round" stroke-linejoin="round"/>
    <path d="M 127.27659606933594 331.03216552734375 C 130.74234008789062 333.857666015625 120.49323272705078 338.0264892578125 120.4382095336914 340.7043151855469 C 120.7513427734375 339.9710388183594 117.03475952148438 341.0322265625 115.04402923583984 343.32763671875 C 115.01691436767578 342.76220703125 111.63117218017578 344.7565612792969 108.07649993896484 344.24853515625 C 115.51258850097656 344.658935546875 116.73900604248047 341.0066833496094 116.95783233642578 340.64715576171875 C 114.4747085571289 347.1083068847656 115.34606170654297 349.5145263671875 114.55471801757812 351.4791564941406 C 114.64389038085938 353.5821533203125 114.80157470703125 356.1131591796875 116.64736938476562 359.0599060058594 C 116.19910430908203 361.6595153808594 115.52448272705078 364.4702453613281 115.86956787109375 365.84442138671875 C 115.3044204711914 368.57818603515625 115.72074127197266 371.0782165527344 115.87931823730469 372.2689514160156 C 117.41262817382812 373.9151611328125 116.37458801269531 377.4913024902344 117.57389068603516 378.4739685058594 C 116.73970794677734 375.9966735839844 117.22484588623047 378.4126892089844 116.83936309814453 376.1849670410156 C 116.8062515258789 377.8070373535156 119.49419403076172 383.7851257324219 119.8122329711914 379.9292907714844 C 118.97737884521484 383.42547607421875 123.83118438720703 388.2935485839844 130.5735626220703 392.510498046875 C 133.9219207763672 395.0645446777344 138.2872314453125 395.0476989746094 139.6874542236328 395.2937316894531 C 142.85691833496094 395.7436828613281 151.14111328125 397.2149353027344 154.38462829589844 398.4781494140625 C 157.05519104003906 388.2895202636719 157.63409423828125 375.61224365234375 157.17637634277344 383.5350341796875 C 168.0462646484375 376.6942138671875 179.4641876220703 381.31634521484375 174.072021484375 378.29779052734375 C 182.6024627685547 378.3636474609375 194.6053466796875 382.3369445800781 205.4833984375 383.84014892578125 C 214.24595642089844 385.4767761230469 221.41453552246094 386.7501525878906 228.922607421875 386.7646789550781 C 226.96990966796875 387.890380859375 255.96115112304688 387.5696716308594 255.31576538085938 386.80157470703125 C 267.0151672363281 386.4463195800781 282.8581237792969 382.7091064453125 285.1719665527344 382.0399475097656 C 290.74688720703125 380.09014892578125 301.5500183105469 377.72735595703125 298.9501037597656 377.3926086425781 C 321.0992126464844 377.32794189453125 307.1903991699219 377.87481689453125 315.5476989746094 380.77020263671875 C 316.2468566894531 383.0135498046875 315.8556823730469 392.3209533691406 314.6583251953125 397.7626953125 C 313.6044921875 405.8473815917969 312.50982666015625 412.9532775878906 310.29156494140625 420.2711486816406 C 308.22265625 433.8231506347656 303.906005859375 441.3580627441406 304.63458251953125 445.55859375 C 301.567138671875 457.1062316894531 300.1365051269531 469.01617431640625 299.54638671875 470.865966796875 C 300.7828674316406 466.4619140625 300.2328796386719 472.38568115234375 289.5875549316406 474.1693420410156 C 289.231689453125 498.08160400390625 278.7003479003906 542.3125 287.9996643066406 472.5636901855469 C 277.873779296875 472.55230712890625 270.8731689453125 473.5909118652344 267.2987060546875 470.3211975097656 C 259.5860595703125 471.305908203125 249.83273315429688 471.4794921875 245.55966186523438 469.0044250488281 C 248.15155029296875 468.88421630859375 245.64559936523438 479.40203857421875 245.9113006591797 488.90631103515625 C 242.9148712158203 503.1925964355469 247.88621520996094 507.6722412109375 228.23902893066406 511.6971740722656 C 244.96726989746094 502.61517333984375 243.62864685058594 501.3900146484375 239.98460388183594 505.8515625 C 241.84217834472656 498.7530517578125 245.8278350830078 474.55902099609375 240.44029235839844 466.2031555175781 C 244.49366760253906 470.7500305175781 236.52359008789062 468.4318542480469 234.8000946044922 467.017578125 C 231.79930114746094 461.5512390136719 233.94691467285156 446.90484619140625 226.33370971679688 457.5169372558594 C 229.59353637695312 451.3703308105469 225.60989379882812 469.6963806152344 226.76454162597656 472.2319030761719 C 228.968994140625 472.4271545410156 213.5955047607422 476.3166198730469 215.76116943359375 475.7727966308594 C 214.7971954345703 504.1111755371094 206.4700164794922 476.15069580078125 209.81971740722656 512.353515625 C 218.258056640625 476.8963317871094 206.00978088378906 504.1830139160156 212.51441955566406 474.79779052734375 C 197.90460205078125 475.8778076171875 188.27911376953125 474.75567626953125 190.7788543701172 474.69830322265625 C 182.58055114746094 474.3938903808594 173.65499877929688 472.96392822265625 168.9901123046875 472.0491027832031 C 168.57046508789062 467.4193115234375 169.36834716796875 477.6924743652344 169.49313354492188 483.8653259277344 C 168.59730529785156 524.2730102539062 168.32044982910156 494.7150573730469 150.77386474609375 519.5802001953125 C 171.5841522216797 520.3610229492188 165.85939025878906 512.61572265625 163.05348205566406 528.1229248046875 C 159.578125 534.9198608398438 160.67987060546875 539.9801635742188 154.28106689453125 541.9339599609375 C 164.72227478027344 521.4158325195312 156.30453491210938 524.79345703125 153.0034942626953 511.9987487792969 C 166.8788604736328 499.58648681640625 164.77120971679688 513.8764038085938 165.8372802734375 493.744873046875 C 166.63900756835938 511.2084045410156 165.95504760742188 468.8397216796875 166.2875518798828 473.9111022949219 C 156.865478515625 468.9567565917969 158.8531494140625 472.3892822265625 157.92860412597656 459.6292724609375 C 156.6399383544922 451.7156982421875 155.88900756835938 437.96417236328125 154.1480712890625 426.47705078125 C 153.97203063964844 419.4823913574219 151.03492736816406 397.60308837890625 153.96270751953125 396.7216796875 C 156.22023010253906 396.58038330078125 159.69639587402344 396.9714660644531 152.55661010742188 397.7617492675781 C 146.0924835205078 396.1179504394531 141.6734161376953 395.40447998046875 134.6181640625 394.7400817871094 C 129.1583251953125 392.71588134765625 120.62476348876953 389.6029052734375 119.52055358886719 381.39276123046875 C 116.26718139648438 377.3811950683594 116.72882080078125 369.2468566894531 115.22400665283203 360.78619384765625 C 114.18508911132812 355.2239685058594 113.79728698730469 348.3658447265625 115.09119415283203 343.0483703613281 C 111.12626647949219 344.79998779296875 78.25167083740234 362.65655517578125 110.61080932617188 342.09796142578125 C 101.81861114501953 345.2560119628906 91.16508483886719 353.52935791015625 76.86454010009766 354.1964416503906 C 97.09102630615234 355.0421447753906 78.54167938232422 362.34295654296875 127.27659606933594 331.03216552734375" stroke-width="0.0" fill="rgb(241, 77, 9)" opacity="0.9992718" stroke="rgb(114, 53, 169)" stroke-opacity="0.27271873" stroke-linecap="round" stroke-linejoin="round"/>
    <path d="M 288.381591796875 13.939481735229492 C 289.5675048828125 13.013551712036133 290.56597900390625 12.715036392211914 291.4833984375 13.477272987365723 C 292.5821228027344 13.506035804748535 293.5025939941406 13.590003967285156 295.7633056640625 11.836018562316895 C 295.35980224609375 16.132869720458984 296.6302185058594 16.798158645629883 300.2766418457031 15.216837882995605 C 302.1221008300781 17.045522689819336 306.2285461425781 21.126970291137695 305.2867431640625 24.25660514831543 C 301.47723388671875 31.219600677490234 304.7415466308594 33.487056732177734 311.25555419921875 31.72670555114746 C 314.3586730957031 35.255306243896484 316.1081237792969 39.21733093261719 321.2557373046875 43.398067474365234 C 322.24285888671875 47.908416748046875 319.1217346191406 52.058807373046875 321.3993225097656 54.993247985839844 C 326.00714111328125 57.30124282836914 325.5968322753906 61.127079010009766 325.9302062988281 64.07135772705078 C 330.9521789550781 65.58995056152344 331.2562561035156 68.06365966796875 334.17010498046875 71.70626831054688 C 331.189453125 75.52259063720703 330.4130554199219 77.23524475097656 329.3533935546875 82.963623046875 C 325.16033935546875 82.41441345214844 323.1488342285156 82.62979125976562 320.4493408203125 83.79708099365234 C 317.83233642578125 87.14669799804688 313.2235107421875 86.42874145507812 309.5963134765625 87.72003173828125 C 309.71844482421875 92.84087371826172 307.5558166503906 94.49746704101562 301.3250427246094 97.2136459350586 C 294.2519836425781 95.44409942626953 290.68560791015625 98.80228424072266 286.1516418457031 97.56950378417969 C 281.30609130859375 97.14103698730469 278.11602783203125 96.6764907836914 271.0248718261719 103.50543975830078 C 264.1260070800781 93.71154022216797 262.1156311035156 91.86100006103516 257.4971618652344 92.67814636230469 C 256.41497802734375 79.73143768310547 252.4245147705078 82.18333435058594 247.01748657226562 89.6265640258789 C 242.68771362304688 83.55191802978516 239.51693725585938 80.24378204345703 236.42295837402344 83.55660247802734 C 232.62884521484375 84.67424011230469 229.45343017578125 81.5560302734375 227.94261169433594 85.59011840820312 C 228.35708618164062 91.74694061279297 223.92138671875 91.67186737060547 223.4615936279297 94.23458862304688 C 224.2391357421875 99.05023193359375 223.31826782226562 102.28539276123047 223.59722900390625 108.79627990722656 C 217.61776733398438 109.6102066040039 214.56874084472656 111.6786117553711 210.67469787597656 111.91852569580078 C 205.7586212158203 113.26068115234375 201.29750061035156 109.98151397705078 196.73500061035156 113.16127014160156 C 192.41421508789062 114.60250854492188 187.3939971923828 110.79458618164062 182.6114044189453 114.04878997802734 C 177.1074981689453 115.16439819335938 172.0028533935547 115.24361419677734 167.31854248046875 111.72460174560547 C 162.1918487548828 110.38715362548828 158.4797821044922 114.36524200439453 153.93222045898438 114.20437622070312 C 150.25198364257812 115.59355926513672 146.8297882080078 117.51832580566406 143.48951721191406 118.9254150390625 C 143.78211975097656 124.67164611816406 143.19061279296875 127.04513549804688 152.49281311035156 135.45974731445312 C 141.50608825683594 138.59390258789062 137.9565887451172 141.4783172607422 132.05691528320312 144.61302185058594 C 133.5065460205078 148.3717498779297 134.5242919921875 151.38702392578125 126.69263458251953 153.6576385498047 C 132.82891845703125 158.8839874267578 129.69647216796875 162.79600524902344 130.72552490234375 168.4282684326172 C 130.3220672607422 172.53358459472656 127.89086151123047 176.37973022460938 128.46298217773438 185.02728271484375 C 129.42538452148438 189.8577423095703 120.8225326538086 189.91201782226562 116.9945297241211 191.7696533203125 C 110.24793243408203 192.60890197753906 106.00302124023438 193.04432678222656 101.4905776977539 191.60755920410156 C 96.2628402709961 191.59268188476562 91.43692779541016 191.5170135498047 86.12326049804688 191.5010986328125 C 81.32379913330078 191.7951202392578 77.4162826538086 191.25094604492188 68.63284301757812 191.76327514648438 C 67.55430603027344 188.70643615722656 64.7955093383789 186.7759246826172 64.0510025024414 176.4621124267578 C 62.67107009887695 171.9625701904297 64.17688751220703 168.664794921875 63.62393569946289 163.67909240722656 C 65.79175567626953 159.1578826904297 68.04319763183594 155.1443634033203 70.82933044433594 149.48947143554688 C 73.33299255371094 145.99798583984375 80.06537628173828 144.21766662597656 73.79072570800781 134.7055206298828 C 80.60555267333984 133.767822265625 83.81426239013672 130.70870971679688 77.4415054321289 126.25699615478516 C 79.05984497070312 117.54058074951172 85.60328674316406 113.10265350341797 89.48027801513672 112.85906982421875 C 92.9399185180664 111.86263275146484 92.72412872314453 107.4494857788086 96.62873840332031 104.96435546875 C 96.61290740966797 97.90625762939453 99.01482391357422 94.66118621826172 107.7802505493164 96.66960906982422 C 105.77960968017578 91.25171661376953 108.8047866821289 86.61663055419922 112.79801177978516 81.84806823730469 C 116.00001525878906 81.54248809814453 120.78742218017578 80.89759826660156 122.79034423828125 76.62744140625 C 127.71710205078125 74.07342529296875 128.69483947753906 68.42398834228516 131.90867614746094 65.33157348632812 C 137.708251953125 64.26481628417969 138.28712463378906 57.974491119384766 144.1012725830078 56.33320236206055 C 144.5317840576172 49.54408645629883 148.5087432861328 44.85759353637695 156.7510528564453 48.95673370361328 C 158.81460571289062 44.870643615722656 157.91867065429688 39.887542724609375 160.92955017089844 32.20580291748047 C 166.6713104248047 32.94760513305664 170.58363342285156 30.100439071655273 175.19485473632812 29.992443084716797 C 181.2143096923828 30.934730529785156 185.412109375 32.44080352783203 192.37583923339844 32.349769592285156 C 194.2638702392578 38.13744354248047 197.5093536376953 40.586448669433594 202.89051818847656 40.31177520751953 C 205.61802673339844 42.73991012573242 209.09463500976562 45.0870475769043 213.7932891845703 44.44847106933594 C 218.69485473632812 45.09642028808594 221.10353088378906 42.307350158691406 223.2550048828125 38.691471099853516 C 224.59515380859375 35.32726287841797 228.0782928466797 32.66563034057617 234.306640625 29.289411544799805 C 237.38157653808594 24.552738189697266 240.2686767578125 22.177780151367188 243.3236541748047 17.435287475585938 C 249.5758056640625 17.265727996826172 253.42861938476562 14.921992301940918 260.1775207519531 16.672119140625 C 262.7918701171875 9.54826545715332 269.6429748535156 13.206103324890137 275.7155456542969 12.27605152130127 C 280.17974853515625 16.010976791381836 285.6579895019531 16.94428825378418 288.381591796875 13.939481735229492" stroke-width="0.0" fill="rgb(61, 39, 36)" opacity="0.9980361" stroke="rgb(18, 101, 131)" stroke-opacity="0.3657945" stroke-linecap="round" stroke-linejoin="round"/>
    <path d="M 374.7608642578125 273.03375244140625 C 365.97314453125 271.0950927734375 364.2117919921875 271.2121276855469 363.74346923828125 272.0645446777344 C 364.7698974609375 271.13336181640625 367.1284484863281 270.447021484375 364.6520080566406 271.0659484863281 C 367.2001953125 269.64862060546875 362.7364501953125 273.59765625 365.5351257324219 270.5483703613281 C 364.2596740722656 271.0703125 370.1668701171875 271.96923828125 369.1897277832031 271.6361083984375 C 366.74505615234375 271.1545715332031 368.5028991699219 273.5911560058594 364.0486755371094 270.5010681152344 C 373.0862121582031 273.6112060546875 382.054443359375 277.5367736816406 383.9444580078125 279.2857666015625 C 379.99359130859375 274.1020202636719 380.66937255859375 275.83056640625 382.2663879394531 277.0523986816406 C 382.9202575683594 277.80938720703125 384.8124694824219 279.1030578613281 381.4270324707031 277.8570861816406 C 383.5314025878906 279.1344299316406 388.70880126953125 281.0260009765625 389.292236328125 282.3331298828125 C 386.8907775878906 279.9461364746094 389.203125 283.3301086425781 392.6491394042969 282.5353088378906 C 388.03460693359375 282.5079650878906 392.05841064453125 283.6023864746094 391.2731018066406 281.5035095214844 C 391.77593994140625 283.22088623046875 396.7190856933594 286.4278259277344 398.9512939453125 288.0292053222656 C 396.3975524902344 286.3802185058594 400.4103698730469 289.35577392578125 399.4839172363281 288.2853698730469 C 399.2705078125 289.47564697265625 403.0907287597656 291.4677429199219 405.3177795410156 293.2682189941406 C 406.3894958496094 293.36444091796875 408.8388366699219 297.3294372558594 409.4297790527344 295.8296813964844 C 407.6456298828125 297.2559814453125 412.24102783203125 299.1306457519531 410.8111267089844 298.810791015625 C 413.0452880859375 299.1554260253906 412.6242980957031 296.9918518066406 414.41180419921875 297.6902160644531 C 415.78680419921875 296.496337890625 418.6797180175781 295.2645568847656 414.28924560546875 297.86492919921875 C 418.4275207519531 295.5261535644531 426.48052978515625 293.2878112792969 424.27972412109375 292.9788818359375 C 419.05670166015625 294.2970275878906 422.6286315917969 292.88104248046875 424.6872863769531 293.7923889160156 C 427.72265625 291.92108154296875 433.27874755859375 290.729736328125 425.5187683105469 292.95758056640625 C 429.4735412597656 292.149169921875 434.00579833984375 292.07354736328125 434.9945983886719 290.2855224609375 C 433.22509765625 292.19085693359375 433.937744140625 291.6501159667969 441.0582580566406 282.20367431640625 C 430.9964294433594 293.54180908203125 435.581298828125 283.2591857910156 439.74871826171875 282.1897888183594 C 435.7731628417969 282.0531005859375 443.72821044921875 281.31854248046875 439.8061828613281 281.3976135253906 C 440.53228759765625 277.794677734375 452.6000061035156 279.5712585449219 446.6120300292969 281.2416076660156 C 451.6805114746094 280.2960205078125 450.7515869140625 287.2381896972656 450.7177429199219 286.25390625 C 449.35015869140625 294.5626220703125 443.1644287109375 303.659912109375 450.0318908691406 282.4649963378906 C 448.6803283691406 296.38311767578125 438.9112548828125 296.8165283203125 441.9384765625 301.77703857421875 C 443.4425048828125 302.4620666503906 446.95904541015625 302.8457946777344 451.6919860839844 304.8408203125 C 455.9309387207031 305.9852600097656 460.37994384765625 308.3535461425781 462.9328918457031 309.8398132324219 C 465.3397521972656 311.9350280761719 469.6524353027344 314.1038513183594 470.98004150390625 318.6940002441406 C 468.710205078125 324.12841796875 463.42962646484375 320.0595703125 447.4290466308594 318.616943359375 C 454.0594482421875 325.3559265136719 464.5480651855469 329.4609069824219 462.4151306152344 326.61688232421875 C 467.7044372558594 329.4971618652344 470.532470703125 339.5729064941406 467.7857666015625 334.7984924316406 C 469.416015625 339.5622253417969 459.1512756347656 343.6754455566406 458.2434387207031 336.89739990234375 C 461.67156982421875 340.61138916015625 457.8600158691406 354.2718505859375 459.9459533691406 338.9919128417969 C 465.0521240234375 348.6485595703125 457.0494079589844 348.5580139160156 449.50555419921875 347.1487731933594 C 442.98553466796875 344.7852478027344 444.9483337402344 345.53863525390625 438.6208190917969 337.80487060546875 C 431.34881591796875 342.78253173828125 440.5675964355469 344.7451477050781 443.6997985839844 349.6863098144531 C 442.46392822265625 349.55572509765625 448.91326904296875 358.1340026855469 443.33172607421875 359.21002197265625 C 446.4002380371094 362.2550354003906 431.4383239746094 359.1611022949219 439.65740966796875 361.4965515136719 C 435.969482421875 362.4385986328125 431.0796203613281 354.3245544433594 425.7073669433594 347.3107604980469 C 440.5994567871094 355.62042236328125 432.3158874511719 350.5142517089844 424.5212097167969 341.43524169921875 C 419.1167297363281 340.8364562988281 414.9304504394531 338.4164733886719 413.60662841796875 337.712158203125 C 411.80242919921875 336.550537109375 406.11285400390625 331.9880065917969 403.89263916015625 329.4775695800781 C 401.5438232421875 326.4967041015625 400.1611328125 325.9480285644531 400.28594970703125 326.620849609375 C 393.39697265625 325.7287902832031 389.39007568359375 327.0046691894531 388.82659912109375 325.8713684082031 C 384.49420166015625 324.3265075683594 373.22760009765625 323.9803161621094 368.9947814941406 323.0193786621094 C 376.130615234375 323.0189514160156 368.8424377441406 323.33148193359375 368.41937255859375 323.79754638671875 C 364.59600830078125 323.4468078613281 359.2560729980469 321.3734436035156 359.64813232421875 323.0296325683594 C 354.32427978515625 320.407958984375 348.90478515625 317.7989196777344 354.6952209472656 320.01373291015625 C 350.76824951171875 320.7471618652344 347.0147705078125 316.779296875 347.4141845703125 317.1129455566406 C 347.7261657714844 317.745361328125 354.8573303222656 318.346923828125 347.7330627441406 315.9317626953125 C 354.1405334472656 311.6361999511719 353.0489807128906 298.4632263183594 354.0246276855469 310.91888427734375 C 353.4700012207031 302.5384826660156 359.1302185058594 295.1659240722656 354.8345031738281 305.62451171875 C 355.9338073730469 300.2420349121094 362.0106201171875 287.94415283203125 364.064208984375 277.9948425292969 C 360.5356140136719 280.0353698730469 364.27130126953125 276.79058837890625 364.24359130859375 281.9322814941406 C 363.0219421386719 280.25872802734375 366.48876953125 269.3536376953125 366.24322509765625 270.6364440917969 C 364.5909118652344 271.2882080078125 366.1290283203125 271.3804016113281 374.7608642578125 273.03375244140625" stroke-width="0.0" fill="rgb(248, 188, 112)" opacity="1.0" stroke="rgb(52, 74, 141)" stroke-opacity="0.452024" stroke-linecap="round" stroke-linejoin="round"/>
    <path d="M 221.6125946044922 125.03704071044922 C 208.50296020507812 129.6334228515625 223.47879028320312 139.27197265625 220.37213134765625 128.44554138183594 C 217.2140350341797 128.0421142578125 205.81137084960938 143.4346466064453 206.2815704345703 140.3367919921875 C 205.74472045898438 143.55728149414062 213.68272399902344 147.3283233642578 213.07159423828125 138.58018493652344 C 210.99850463867188 137.2535858154297 207.79554748535156 133.27099609375 231.4916229248047 134.43594360351562 C 209.04837036132812 149.759033203125 217.23414611816406 137.07449340820312 213.60935974121094 146.85008239746094 C 232.77423095703125 141.35031127929688 244.81695556640625 149.9190673828125 245.82464599609375 150.69424438476562 C 239.85926818847656 163.1505126953125 220.22975158691406 157.79019165039062 193.70999145507812 159.80996704101562 C 215.48707580566406 156.5745849609375 215.37974548339844 159.48072814941406 234.36927795410156 159.25924682617188 C 194.14254760742188 170.96788024902344 207.23841857910156 163.7159423828125 199.84585571289062 163.41285705566406 C 192.12326049804688 161.2891082763672 187.2048797607422 151.88233947753906 188.4463348388672 151.54640197753906 C 185.63653564453125 149.12118530273438 190.1171112060547 135.41885375976562 184.20213317871094 144.20274353027344 C 186.91407775878906 134.03839111328125 198.4892578125 122.8548355102539 221.6125946044922 125.03704071044922" stroke-width="0.0" fill="rgb(7, 2, 3)" opacity="0.9945993" stroke="rgb(164, 234, 181)" stroke-opacity="0.99039906" stroke-linecap="round" stroke-linejoin="round"/>
    <path d="M 203.54112243652344 254.9645233154297 C 205.8343505859375 262.91705322265625 208.37762451171875 264.0979919433594 213.032958984375 262.8280029296875 C 212.4203643798828 265.5231628417969 214.71682739257812 263.1983642578125 216.4530487060547 265.00958251953125 C 216.871337890625 266.7109680175781 219.1573486328125 265.2893371582031 219.08038330078125 266.9117431640625 C 221.673583984375 266.8758544921875 221.92430114746094 268.1092224121094 222.34588623046875 267.9857482910156 C 224.2833709716797 268.1290588378906 225.24208068847656 267.72784423828125 225.50892639160156 268.28973388671875 C 226.19004821777344 268.5082702636719 226.76902770996094 269.2342529296875 227.11610412597656 269.0380859375 C 228.0604705810547 269.0376892089844 229.00372314453125 268.9746398925781 230.4871368408203 269.09552001953125 C 231.65975952148438 268.5916442871094 232.387451171875 270.0989074707031 232.77369689941406 269.953857421875 C 234.52894592285156 270.0566711425781 236.3282470703125 270.0447082519531 239.09217834472656 269.8944396972656 C 239.98904418945312 269.61004638671875 241.82623291015625 268.8649597167969 246.0843963623047 269.01873779296875 C 246.15261840820312 267.42474365234375 248.81495666503906 269.206298828125 253.29632568359375 266.17388916015625 C 256.1027526855469 264.9635314941406 258.2300720214844 267.16644287109375 263.09613037109375 262.07940673828125 C 265.0429992675781 265.4765930175781 268.0767822265625 261.8822326660156 273.48883056640625 267.587158203125 C 273.96392822265625 275.0010681152344 271.99359130859375 276.8233337402344 276.4122314453125 275.044189453125 C 277.247314453125 281.9526672363281 275.2867736816406 283.93035888671875 275.365478515625 287.6100158691406 C 277.858154296875 288.3124694824219 278.31524658203125 290.6852111816406 279.30615234375 290.9781494140625 C 280.48883056640625 297.131591796875 281.12139892578125 297.9658203125 297.2137756347656 300.6481018066406 C 278.5809326171875 304.18243408203125 279.7397766113281 298.1850280761719 279.593994140625 303.4248962402344 C 284.3397521972656 303.8193054199219 285.1881408691406 302.51513671875 289.9370422363281 304.6155700683594 C 290.93511962890625 307.07891845703125 297.1566162109375 309.1805419921875 293.0956115722656 301.0592956542969 C 299.6474914550781 304.0885314941406 299.5589599609375 310.6023254394531 300.9188537597656 310.80596923828125 C 305.7414855957031 315.3486022949219 305.60455322265625 319.2031555175781 305.5023193359375 322.7633972167969 C 302.7448425292969 329.1842346191406 309.0856628417969 325.07110595703125 308.9579162597656 325.9745788574219 C 313.0944519042969 333.46527099609375 311.3990173339844 336.57330322265625 313.27117919921875 337.9371337890625 C 313.75006103515625 342.69219970703125 313.57464599609375 345.4918212890625 316.9754333496094 348.274169921875 C 312.9046630859375 352.8591003417969 317.4261169433594 349.2651672363281 318.75372314453125 358.6143493652344 C 318.46875 359.79437255859375 320.06488037109375 361.737060546875 320.00885009765625 369.52056884765625 C 314.947265625 369.98583984375 314.4054260253906 369.2579040527344 322.01324462890625 376.90118408203125 C 310.1546936035156 375.66998291015625 307.24993896484375 376.0040588378906 305.2037353515625 374.7448425292969 C 298.8128662109375 375.681640625 295.960693359375 373.6860656738281 293.8442077636719 373.9045104980469 C 289.47296142578125 373.41387939453125 286.876953125 373.9607238769531 284.82550048828125 373.8323669433594 C 280.9197082519531 372.7025451660156 277.0324401855469 373.080078125 273.4053039550781 372.9198913574219 C 271.70208740234375 373.0992736816406 268.3362731933594 372.7918701171875 266.2824401855469 373.1388244628906 C 262.39031982421875 372.8162841796875 259.1542053222656 372.81134033203125 256.99041748046875 372.7078857421875 C 253.2654571533203 372.2540588378906 249.86508178710938 372.4258117675781 246.9063720703125 372.3453063964844 C 243.99327087402344 372.3541259765625 240.68968200683594 372.1783142089844 237.46963500976562 372.5169982910156 C 234.5860137939453 372.3244323730469 231.51376342773438 372.7453918457031 228.34927368164062 372.8200378417969 C 225.2705535888672 372.4484558105469 222.40414428710938 373.4581604003906 220.97999572753906 372.8828430175781 C 217.0189666748047 373.0590515136719 212.84385681152344 372.8395690917969 207.2442169189453 373.143798828125 C 208.86856079101562 370.34088134765625 206.63888549804688 371.802978515625 201.32150268554688 371.5483703613281 C 196.47764587402344 370.6046447753906 203.39251708984375 375.9286193847656 192.6394500732422 374.7299499511719 C 191.96929931640625 369.711181640625 189.7305450439453 372.4827880859375 186.32298278808594 371.4493713378906 C 182.2720947265625 371.609619140625 179.03211975097656 371.40692138671875 176.23837280273438 371.4700927734375 C 181.09437561035156 383.6529846191406 171.62924194335938 374.6632995605469 164.80189514160156 378.6814270019531 C 157.68124389648438 384.9645690917969 153.3827362060547 373.0155029296875 160.70790100097656 370.27496337890625 C 158.30816650390625 366.35546875 158.17808532714844 364.188720703125 158.34703063964844 360.3491516113281 C 160.81263732910156 360.2290344238281 158.1217498779297 357.2325134277344 160.50094604492188 353.997802734375 C 158.54200744628906 349.483154296875 166.63917541503906 349.7694396972656 163.99496459960938 345.76751708984375 C 166.12384033203125 344.9700622558594 168.63958740234375 343.567626953125 164.27587890625 341.0816955566406 C 166.75823974609375 332.78643798828125 161.91712951660156 335.817138671875 174.6961212158203 335.4794921875 C 167.0804901123047 330.59210205078125 166.7110595703125 321.5909118652344 175.56019592285156 326.7275695800781 C 170.87342834472656 326.3382873535156 172.56031799316406 322.2160339355469 173.8446807861328 316.6628723144531 C 175.54849243164062 314.49285888671875 176.03695678710938 313.4748840332031 177.47377014160156 307.1618347167969 C 181.355224609375 308.1924743652344 182.51535034179688 305.9926452636719 179.56118774414062 303.60552978515625 C 188.8386993408203 303.2208557128906 189.3683624267578 303.2119445800781 192.6524200439453 304.4770202636719 C 190.19468688964844 299.3821105957031 186.3408966064453 300.1080322265625 189.99801635742188 298.2972106933594 C 193.99778747558594 295.17755126953125 191.91160583496094 292.3668212890625 193.78648376464844 288.3513488769531 C 197.00038146972656 288.0442199707031 195.16065979003906 285.94659423828125 194.3004913330078 283.61883544921875 C 197.11593627929688 282.0298156738281 193.99591064453125 279.22149658203125 195.81275939941406 272.0392150878906 C 199.1495819091797 272.740478515625 194.96682739257812 261.8968811035156 203.54112243652344 254.9645233154297" stroke-width="0.0" fill="rgb(254, 111, 167)" opacity="0.9981378" stroke="rgb(181, 46, 131)" stroke-opacity="0.6068225" stroke-linecap="round" stroke-linejoin="round"/>
    <path d="M 318.7111511230469 114.23522186279297 C 305.9913024902344 115.18418884277344 309.7752380371094 120.5915756225586 309.720458984375 121.58840942382812 C 307.6127014160156 118.95030212402344 315.4959411621094 127.31399536132812 315.5190734863281 116.9654769897461 C 311.6614685058594 115.4220199584961 309.0838623046875 109.15185546875 323.825927734375 110.6231689453125 C 322.5299987792969 138.54515075683594 326.6781311035156 127.61587524414062 323.75506591796875 107.81632232666016 C 335.93255615234375 118.1871109008789 329.3989562988281 139.85845947265625 318.9815673828125 137.2053985595703 C 305.65203857421875 148.8167266845703 267.6923828125 129.59825134277344 336.704833984375 132.62327575683594 C 306.9208679199219 129.20187377929688 279.87518310546875 135.2199249267578 305.999267578125 126.2344970703125 C 292.6263732910156 133.23509216308594 292.39544677734375 133.27078247070312 291.39044189453125 119.83209228515625 C 294.9573669433594 110.99626159667969 285.2740173339844 115.2435073852539 318.7111511230469 114.23522186279297" stroke-width="0.0" fill="rgb(12, 1, 4)" opacity="0.99506307" stroke="rgb(34, 4, 168)" stroke-opacity="0.7917638" stroke-linecap="round" stroke-linejoin="round"/>
    <path d="M 241.3040313720703 517.14990234375 C 238.31216430664062 525.6309204101562 239.75827026367188 527.6213989257812 238.8399200439453 525.4071655273438 C 242.03182983398438 532.50146484375 238.863037109375 527.8453979492188 239.42442321777344 530.8667602539062 C 238.96786499023438 531.275146484375 238.55337524414062 534.4874877929688 240.05027770996094 529.3732299804688 C 238.56246948242188 536.0307006835938 238.8068389892578 553.9364624023438 238.44915771484375 548.078369140625 C 237.93560791015625 548.4171142578125 238.0611114501953 548.6953735351562 238.15573120117188 547.7095336914062 C 239.74073791503906 546.4423217773438 238.69580078125 546.2850341796875 238.16619873046875 546.153564453125 C 237.7722930908203 558.7069702148438 237.806396484375 570.7266845703125 238.8583221435547 561.7406005859375 C 237.42332458496094 577.8772583007812 237.8297576904297 576.424072265625 305.73944091796875 584.3431396484375 C 233.96302795410156 583.0159912109375 236.7415771484375 578.4341430664062 233.8597869873047 566.342529296875 C 234.258056640625 564.8978881835938 232.92959594726562 561.0726318359375 233.88758850097656 555.6692504882812 C 233.60768127441406 542.4773559570312 235.85708618164062 536.0796508789062 234.56153869628906 540.8676147460938 C 235.12869262695312 540.1795654296875 235.1952667236328 541.10400390625 236.49522399902344 540.7432250976562 C 235.87277221679688 540.9237670898438 233.9864044189453 540.4761962890625 234.8947296142578 540.2780151367188 C 234.3903350830078 535.0953979492188 237.17893981933594 524.3640747070312 235.20486450195312 526.3157348632812 C 237.80374145507812 524.1048583984375 234.75775146484375 525.0023193359375 237.36659240722656 523.0877685546875 C 236.6288299560547 523.7904663085938 230.38145446777344 526.9154663085938 226.99371337890625 520.4481201171875 C 222.83316040039062 505.8669738769531 231.2660675048828 527.8312377929688 241.3040313720703 517.14990234375" stroke-width="0.0" fill="rgb(74, 46, 37)" opacity="0.99920124" stroke="rgb(178, 118, 11)" stroke-opacity="0.78702766" stroke-linecap="round" stroke-linejoin="round"/>
    <path d="M 217.96029663085938 127.11813354492188 C 227.3560333251953 126.83737182617188 235.0041046142578 131.6937713623047 239.12741088867188 134.67385864257812 C 240.1229248046875 137.95504760742188 246.17233276367188 143.14947509765625 244.40870666503906 156.7117462158203 C 245.86160278320312 153.5070037841797 244.328857421875 155.3790283203125 244.75564575195312 151.90264892578125 C 240.17755126953125 155.64804077148438 234.4029541015625 156.23324584960938 227.12989807128906 159.50572204589844 C 232.7540283203125 158.19667053222656 227.16812133789062 157.51144409179688 233.65072631835938 157.63394165039062 C 223.7863006591797 161.05894470214844 215.40078735351562 161.70480346679688 217.94615173339844 160.61105346679688 C 222.4962921142578 163.17727661132812 219.0640411376953 160.46182250976562 220.76097106933594 160.23158264160156 C 225.00955200195312 157.20126342773438 226.76670837402344 153.06959533691406 227.2457275390625 151.41444396972656 C 228.29579162597656 148.26486206054688 230.10797119140625 142.55287170410156 227.49424743652344 142.27590942382812 C 227.40321350097656 136.09967041015625 226.15252685546875 130.64952087402344 217.96029663085938 127.11813354492188" stroke-width="0.0" fill="rgb(252, 251, 251)" opacity="0.99833524" stroke="rgb(145, 211, 213)" stroke-opacity="0.76676816" stroke-linecap="round" stroke-linejoin="round"/>
    <path d="M 152.3668670654297 321.8201904296875 C 146.04710388183594 327.5992431640625 145.3167724609375 324.61517333984375 155.7427978515625 320.3172607421875 C 152.9701385498047 323.1580505371094 152.67718505859375 325.3495788574219 155.74722290039062 326.67413330078125 C 154.62725830078125 329.7572021484375 153.68231201171875 331.3089904785156 154.24526977539062 332.87762451171875 C 154.44259643554688 334.51318359375 154.44024658203125 335.9707946777344 153.97451782226562 337.2654113769531 C 151.820556640625 338.96551513671875 153.2686004638672 340.7291259765625 152.7364044189453 342.51104736328125 C 152.15724182128906 344.6481018066406 153.20370483398438 345.6895446777344 155.56727600097656 341.519775390625 C 151.12591552734375 345.2605285644531 149.6498565673828 347.1990661621094 151.8968963623047 346.0819091796875 C 150.36961364746094 347.04156494140625 150.5022430419922 347.0364685058594 150.54493713378906 347.8436584472656 C 150.9688720703125 346.7430114746094 150.30645751953125 347.0022277832031 151.68817138671875 346.1433410644531 C 150.39051818847656 347.7740478515625 151.28118896484375 343.75555419921875 155.8572998046875 341.6004333496094 C 152.2004852294922 344.4302673339844 152.23924255371094 343.8852233886719 153.20172119140625 343.2065124511719 C 152.95901489257812 342.4372253417969 153.2548370361328 341.3009338378906 153.43447875976562 340.2860412597656 C 153.999755859375 339.1915588378906 154.58587646484375 338.3505554199219 154.2926788330078 335.3306579589844 C 155.2864990234375 335.9897155761719 156.94317626953125 336.0900573730469 157.9322509765625 336.2451171875 C 158.79026794433594 336.1047058105469 160.41909790039062 334.4759216308594 165.9335174560547 329.8966064453125 C 164.1201629638672 334.8099060058594 162.80987548828125 341.8680419921875 162.9242401123047 341.4395751953125 C 163.64642333984375 339.6282653808594 160.87576293945312 344.2507629394531 161.4406280517578 346.7110595703125 C 160.29055786132812 344.3177795410156 160.03736877441406 352.6139221191406 158.7979736328125 352.4159851074219 C 158.42544555664062 354.52142333984375 157.79783630371094 358.1412353515625 158.3629913330078 357.9855651855469 C 157.8565673828125 356.00372314453125 157.5001678466797 359.1981201171875 155.03854370117188 366.51104736328125 C 154.90721130371094 360.18524169921875 153.04188537597656 358.7302551269531 155.64187622070312 361.63458251953125 C 153.08770751953125 358.3504943847656 150.63430786132812 353.56292724609375 150.5056610107422 353.30377197265625 C 151.31155395507812 355.6560974121094 149.98965454101562 357.6859436035156 150.3712921142578 359.1454162597656 C 150.71328735351562 355.0882568359375 150.81561279296875 353.7177429199219 152.0700225830078 356.1060791015625 C 150.1290740966797 354.6304016113281 150.26844787597656 355.5023498535156 150.92092895507812 357.03448486328125 C 151.94117736816406 353.4859924316406 152.44715881347656 358.3517761230469 154.81163024902344 360.2099914550781 C 154.51922607421875 361.2332458496094 156.96286010742188 362.4584045410156 154.11329650878906 361.71051025390625 C 156.3523406982422 363.7133483886719 155.72010803222656 365.2473449707031 155.43167114257812 363.9140930175781 C 155.18157958984375 363.9547119140625 153.35731506347656 364.9888610839844 156.10076904296875 362.77410888671875 C 154.23707580566406 365.9003601074219 152.11184692382812 364.2501525878906 155.36277770996094 364.63037109375 C 152.96786499023438 364.18682861328125 151.96876525878906 364.7180480957031 157.43142700195312 364.0570983886719 C 152.25816345214844 365.4548034667969 151.91395568847656 364.6212158203125 155.4082489013672 365.47216796875 C 151.1791229248047 364.69476318359375 152.543212890625 364.87933349609375 153.24783325195312 364.81195068359375 C 151.2751922607422 364.5516662597656 155.00218200683594 367.11395263671875 154.8529815673828 362.6268615722656 C 154.47537231445312 366.2200622558594 156.452880859375 367.3832092285156 155.16990661621094 369.0662841796875 C 154.297119140625 371.0992431640625 154.2289581298828 373.2424621582031 154.82020568847656 374.1933898925781 C 155.07394409179688 376.5516662597656 155.048828125 380.3104248046875 158.97357177734375 384.06756591796875 C 156.3586883544922 383.63092041015625 156.59133911132812 388.4215087890625 154.2535400390625 392.6756286621094 C 147.73924255371094 384.41766357421875 146.09426879882812 381.0065612792969 147.0204620361328 383.9841003417969 C 145.59597778320312 381.0306396484375 145.73277282714844 373.4323425292969 145.45555114746094 371.70672607421875 C 145.50521850585938 373.8335266113281 144.02346801757812 369.529052734375 144.83502197265625 375.5282287597656 C 145.84112548828125 376.8695983886719 145.4326629638672 373.2768859863281 145.79798889160156 373.2801208496094 C 144.77047729492188 373.6295166015625 146.0669403076172 374.48919677734375 146.25033569335938 375.71533203125 C 145.0653533935547 371.830078125 146.2307891845703 376.4803771972656 145.47708129882812 374.69952392578125 C 146.44276428222656 372.6099853515625 145.16326904296875 376.4745788574219 146.81109619140625 383.7717590332031 C 147.68629455566406 383.5036926269531 151.5770263671875 390.9971008300781 156.4746856689453 392.7817687988281 C 152.6939697265625 394.2751159667969 152.84751892089844 398.8863525390625 146.359130859375 397.7685852050781 C 127.0985107421875 397.1476135253906 124.37310028076172 389.7955017089844 123.12928771972656 389.57159423828125 C 120.945068359375 390.0838928222656 116.83578491210938 379.62811279296875 116.27114868164062 379.2472839355469 C 115.13053894042969 374.5493469238281 114.96332550048828 368.5167236328125 114.96421813964844 367.7451171875 C 113.61991882324219 369.121337890625 114.64076232910156 363.94659423828125 113.81948852539062 360.5921630859375 C 112.87248229980469 359.6250305175781 112.84381103515625 352.7515563964844 113.80670928955078 347.8665466308594 C 114.50728607177734 347.7483215332031 114.16899871826172 344.793701171875 114.58610534667969 339.15618896484375 C 112.9585952758789 340.6015625 119.32461547851562 342.5049743652344 120.78857421875 334.9287109375 C 120.10010528564453 338.31304931640625 121.74533081054688 336.43353271484375 123.13497161865234 334.7705383300781 C 125.85005950927734 334.02923583984375 127.4346694946289 330.4101867675781 128.89825439453125 331.6169128417969 C 131.19537353515625 331.0176696777344 134.539306640625 332.634521484375 137.956787109375 330.4458312988281 C 136.07940673828125 331.4406433105469 136.58242797851562 331.8425598144531 140.195068359375 331.2640380859375 C 136.07180786132812 330.8670654296875 132.739990234375 330.38018798828125 135.63308715820312 331.08587646484375 C 132.46531677246094 332.3028869628906 134.88938903808594 330.4078674316406 152.3668670654297 321.8201904296875" stroke-width="0.0" fill="rgb(147, 116, 174)" opacity="0.9983431" stroke="rgb(54, 115, 145)" stroke-opacity="0.8528498" stroke-linecap="round" stroke-linejoin="round"/>
    <path d="M 162.36859130859375 266.6451721191406 C 167.46408081054688 256.56854248046875 172.21437072753906 253.6492156982422 177.73342895507812 246.32244873046875 C 177.7316436767578 254.14353942871094 177.2145538330078 254.25177001953125 178.930908203125 251.83367919921875 C 177.8347625732422 258.69671630859375 179.93630981445312 260.4365539550781 178.42886352539062 260.3022766113281 C 178.44949340820312 264.3204650878906 178.16070556640625 265.5726318359375 177.39227294921875 266.64691162109375 C 176.45982360839844 267.4254455566406 176.41964721679688 268.3186340332031 176.4668426513672 268.4135437011719 C 176.28048706054688 267.8514709472656 176.46505737304688 265.89678955078125 177.70436096191406 265.8465881347656 C 180.1182861328125 267.4253234863281 174.03402709960938 265.0094909667969 182.82257080078125 238.2869110107422 C 186.1566925048828 259.58514404296875 178.1859130859375 259.865234375 182.90948486328125 266.4609680175781 C 181.92507934570312 268.3448791503906 182.48281860351562 268.23712158203125 181.9544677734375 267.583984375 C 183.89114379882812 266.955810546875 180.46893310546875 262.47845458984375 185.60903930664062 241.48130798339844 C 210.40744018554688 241.49905395507812 194.5254669189453 263.9461975097656 195.18048095703125 265.9133605957031 C 193.3834991455078 263.27178955078125 195.22885131835938 268.1004333496094 193.7073974609375 268.66949462890625 C 193.60528564453125 270.6537780761719 193.6265106201172 271.6723327636719 193.48887634277344 273.000244140625 C 193.53662109375 274.629638671875 193.52877807617188 276.1792907714844 193.804931640625 277.6484069824219 C 194.01956176757812 279.1338195800781 193.1950225830078 283.13330078125 193.43902587890625 286.73828125 C 193.03329467773438 284.7683410644531 194.7296600341797 286.2768249511719 192.0774383544922 287.99444580078125 C 192.87705993652344 281.63470458984375 191.5343780517578 284.6392822265625 191.54737854003906 286.60211181640625 C 192.01654052734375 292.3698425292969 189.65098571777344 290.7589111328125 190.8035125732422 292.6206359863281 C 191.62156677246094 286.93798828125 191.3218994140625 287.9850769042969 190.81658935546875 287.1778564453125 C 190.27578735351562 287.6563415527344 190.43075561523438 291.3871154785156 191.44308471679688 292.30657958984375 C 190.0161895751953 292.8267517089844 190.98471069335938 298.3778076171875 189.9619598388672 295.54547119140625 C 187.17820739746094 295.75592041015625 185.7992401123047 298.5733642578125 186.3347625732422 300.2883605957031 C 184.9911346435547 299.72900390625 180.55606079101562 298.0546875 182.63282775878906 300.17156982421875 C 177.66725158691406 300.4619445800781 179.77308654785156 292.6004638671875 173.16929626464844 292.5311279296875 C 172.91928100585938 292.7437744140625 171.58912658691406 292.0155334472656 180.23435974121094 292.8077392578125 C 173.34228515625 293.4005432128906 179.34332275390625 291.180908203125 173.6242218017578 291.7977600097656 C 177.5839385986328 289.3743896484375 177.9393310546875 297.3835144042969 180.59060668945312 301.5112609863281 C 176.15878295898438 299.5400695800781 177.98971557617188 302.69659423828125 176.73251342773438 305.88836669921875 C 175.800537109375 309.1756896972656 173.09410095214844 311.21246337890625 171.30206298828125 315.7550354003906 C 173.11691284179688 314.8581848144531 171.10667419433594 316.0446472167969 169.28334045410156 317.5770568847656 C 166.7591094970703 314.5682678222656 164.668701171875 313.05804443359375 162.6409454345703 311.19244384765625 C 164.0998077392578 312.49359130859375 163.418701171875 311.1663818359375 162.65194702148438 310.7149963378906 C 162.40426635742188 310.21563720703125 162.3554229736328 310.0256652832031 162.40460205078125 310.4341735839844 C 162.3473663330078 311.3348083496094 163.9640350341797 312.69317626953125 163.3037567138672 311.90240478515625 C 165.96578979492188 313.2183532714844 168.71116638183594 318.5957336425781 171.78790283203125 317.0442199707031 C 167.40257263183594 318.7973327636719 167.66737365722656 324.5478210449219 167.40005493164062 326.9120178222656 C 167.47450256347656 332.51318359375 167.43955993652344 330.3697509765625 163.7493896484375 332.1241455078125 C 162.90769958496094 336.5247802734375 160.3978271484375 338.1918029785156 155.3457489013672 356.0992736816406 C 149.19357299804688 345.6792907714844 154.345458984375 339.65203857421875 152.9324493408203 337.2881774902344 C 152.6321563720703 336.49993896484375 152.76373291015625 332.1037292480469 152.08470153808594 331.9739074707031 C 152.1862335205078 326.7706298828125 153.26376342773438 324.5291442871094 152.32472229003906 322.3747863769531 C 150.10560607910156 320.7682189941406 154.3212890625 316.23065185546875 155.3044891357422 305.0027160644531 C 151.6302490234375 320.0267333984375 155.535400390625 312.22052001953125 157.64089965820312 304.8927001953125 C 156.4562530517578 306.7713317871094 154.99417114257812 303.2117004394531 157.84727478027344 304.938720703125 C 157.21536254882812 303.48382568359375 157.74441528320312 300.4366455078125 157.69627380371094 296.8548278808594 C 159.43893432617188 304.15570068359375 157.996826171875 296.5167236328125 158.90354919433594 290.7453918457031 C 158.11582946777344 292.03228759765625 154.98695373535156 290.7745056152344 157.8350372314453 286.98016357421875 C 153.8329315185547 288.4853820800781 156.8628692626953 287.9989318847656 161.5562286376953 287.87451171875 C 163.38754272460938 288.6573181152344 164.19915771484375 286.8934631347656 164.1638641357422 287.14794921875 C 164.7990264892578 288.4816589355469 165.68161010742188 288.6934509277344 165.82827758789062 289.9256591796875 C 165.991943359375 288.3089294433594 166.1587677001953 288.5767822265625 164.83358764648438 288.6492614746094 C 164.27066040039062 287.576904296875 163.2252655029297 286.2949523925781 164.32408142089844 286.5746765136719 C 164.84970092773438 288.6068420410156 158.8886260986328 287.9117431640625 153.73898315429688 288.3591613769531 C 156.71209716796875 288.43603515625 156.78663635253906 286.562744140625 156.55172729492188 284.74786376953125 C 156.927490234375 282.5465393066406 155.5331268310547 280.4029235839844 157.67852783203125 280.3726806640625 C 156.96217346191406 278.0645446777344 158.2748565673828 276.6304016113281 159.49847412109375 274.63433837890625 C 159.02731323242188 273.2034912109375 160.39039611816406 271.3282470703125 160.2498321533203 268.1949768066406 C 162.7286834716797 268.1589660644531 163.25442504882812 266.3145446777344 163.67892456054688 265.3105773925781 C 165.43431091308594 262.7741394042969 168.48516845703125 260.31695556640625 168.9543914794922 255.24954223632812 C 167.6395263671875 255.73995971679688 171.46778869628906 256.5460510253906 162.36859130859375 266.6451721191406" stroke-width="0.0" fill="rgb(171, 158, 200)" opacity="0.9981598" stroke="rgb(248, 85, 91)" stroke-opacity="0.38011515" stroke-linecap="round" stroke-linejoin="round"/>
    <path d="M 229.75782775878906 199.85232543945312 C 229.9016876220703 199.8907470703125 230.30447387695312 200.18185424804688 230.9450225830078 200.59996032714844 C 231.7873992919922 200.8912353515625 232.75254821777344 201.14503479003906 233.81748962402344 201.26397705078125 C 234.9608612060547 201.51011657714844 235.71127319335938 201.9856719970703 236.6690673828125 202.3104248046875 C 237.5194091796875 202.1253662109375 238.61068725585938 202.37005615234375 239.54627990722656 202.64353942871094 C 240.189208984375 202.5616455078125 241.0160675048828 202.8125762939453 241.94107055664062 203.43313598632812 C 242.77783203125 203.72909545898438 243.7213134765625 203.72662353515625 244.83335876464844 203.5750732421875 C 245.91603088378906 203.51551818847656 247.02879333496094 203.4599151611328 248.2021942138672 203.4329376220703 C 249.37933349609375 203.48699951171875 250.61964416503906 203.44821166992188 251.995361328125 203.3180389404297 C 253.49378967285156 203.39230346679688 254.93385314941406 203.47630310058594 256.1724853515625 203.79498291015625 C 257.2275695800781 203.9024658203125 258.49560546875 203.5971221923828 260.01361083984375 202.8042755126953 C 261.5754699707031 202.02476501464844 262.85186767578125 201.6824493408203 263.6435241699219 201.5906219482422 C 263.8663330078125 202.02989196777344 263.6554260253906 202.64138793945312 263.10028076171875 203.32823181152344 C 262.38543701171875 204.26593017578125 261.8005065917969 205.2433319091797 260.88726806640625 206.5957489013672 C 260.0705871582031 208.25747680664062 259.3027038574219 210.0205535888672 258.6582946777344 211.6618194580078 C 258.2257995605469 213.02674865722656 257.88482666015625 214.0611114501953 257.70733642578125 214.6870880126953 C 257.6441345214844 215.42652893066406 257.3343811035156 216.46731567382812 257.3100280761719 217.5935516357422 C 256.6547546386719 218.6201934814453 255.8105926513672 219.0941162109375 255.61436462402344 220.402099609375 C 256.2576599121094 222.37347412109375 256.8140563964844 224.36697387695312 257.17889404296875 225.558837890625 C 257.9734191894531 226.19393920898438 259.0380859375 226.5753936767578 260.078857421875 226.7307586669922 C 260.6699523925781 226.9329071044922 260.639892578125 227.49684143066406 259.9181213378906 228.00750732421875 C 258.78131103515625 228.4510498046875 256.9175720214844 228.45700073242188 254.90036010742188 228.68197631835938 C 253.04647827148438 228.74635314941406 251.3572235107422 228.199951171875 249.4823455810547 227.858154296875 C 247.3564910888672 227.59527587890625 245.0880126953125 227.5589599609375 242.94241333007812 227.0072784423828 C 241.4473419189453 225.97093200683594 240.0557861328125 225.04454040527344 238.3921356201172 224.37319946289062 C 237.037841796875 223.43551635742188 236.24325561523438 222.03067016601562 235.64529418945312 221.11233520507812 C 234.795166015625 220.9535369873047 234.05319213867188 220.80300903320312 233.70217895507812 220.5030975341797 C 233.52967834472656 220.1313934326172 233.47006225585938 219.75868225097656 233.34097290039062 219.46754455566406 C 232.9441375732422 219.00653076171875 232.4130096435547 218.57894897460938 231.8130645751953 217.9396209716797 C 231.19134521484375 216.9522247314453 230.41883850097656 216.05149841308594 229.72731018066406 214.96511840820312 C 229.09634399414062 213.71539306640625 228.57945251464844 212.10581970214844 227.56236267089844 210.88539123535156 C 226.54241943359375 209.57852172851562 225.97352600097656 208.4478302001953 226.10403442382812 206.9809112548828 C 225.8134002685547 205.37229919433594 225.5194549560547 204.04283142089844 225.0682373046875 202.6824188232422 C 224.64321899414062 201.447509765625 224.2046661376953 200.369140625 224.26702880859375 199.32846069335938 C 224.35870361328125 197.97850036621094 224.29519653320312 196.71937561035156 229.75782775878906 199.85232543945312" stroke-width="0.0" fill="rgb(207, 39, 8)" opacity="1.0" stroke="rgb(161, 10, 64)" stroke-opacity="0.6324691" stroke-linecap="round" stroke-linejoin="round"/>
    <path d="M 348.5039367675781 315.8701171875 C 350.59698486328125 317.1231384277344 352.41693115234375 317.920166015625 354.5408630371094 318.5736083984375 C 356.558837890625 319.0263671875 358.08013916015625 319.5062255859375 359.2513122558594 320.1708679199219 C 360.2662353515625 320.8305358886719 360.6322021484375 321.4869689941406 360.9669189453125 321.5126647949219 C 361.707275390625 321.3398132324219 362.44500732421875 321.15875244140625 363.12615966796875 320.9934387207031 C 364.083984375 321.12615966796875 365.01495361328125 321.8507385253906 366.0465087890625 322.7347412109375 C 367.7892761230469 322.5310974121094 369.15911865234375 322.61175537109375 369.9976501464844 322.8816223144531 C 371.40484619140625 323.2255859375 372.5521240234375 323.2073059082031 373.4330749511719 323.4523010253906 C 374.4368896484375 324.0940856933594 375.2515869140625 324.40838623046875 376.4018859863281 324.10736083984375 C 377.57476806640625 324.1579895019531 379.12225341796875 324.52520751953125 381.1353759765625 324.8426513671875 C 384.01385498046875 325.4197082519531 387.28192138671875 326.0417175292969 390.9758605957031 326.33319091796875 C 394.53863525390625 326.5318908691406 397.6690979003906 326.3035888671875 400.4928283691406 327.3107604980469 C 402.6881408691406 329.4773254394531 404.27301025390625 330.8793640136719 404.8250732421875 332.0407409667969 C 403.4069519042969 331.9491882324219 400.490234375 331.0426025390625 396.4801025390625 329.9153747558594 C 392.2254333496094 329.12750244140625 388.5828552246094 328.665771484375 385.59039306640625 327.3514099121094 C 383.4622497558594 327.3328552246094 381.6994323730469 327.7958984375 380.37847900390625 327.743896484375 C 379.08447265625 327.55389404296875 377.9334716796875 327.92071533203125 376.7337646484375 328.0303649902344 C 375.5356140136719 327.80596923828125 374.1995544433594 327.2997131347656 372.9794616699219 326.8677978515625 C 371.5244445800781 326.8179626464844 369.8877868652344 326.88690185546875 368.41650390625 326.5754699707031 C 367.1911926269531 326.0907897949219 366.043701171875 325.710205078125 364.8455810546875 325.68572998046875 C 363.7231140136719 325.72711181640625 362.7010498046875 325.5218200683594 361.2214050292969 325.0038757324219 C 359.7238464355469 324.1004943847656 358.7765808105469 323.3846435546875 358.30657958984375 323.3280029296875 C 357.69085693359375 323.3390197753906 356.567138671875 323.6171569824219 355.1148986816406 324.053466796875 C 353.5575256347656 323.82373046875 352.0955810546875 323.2377624511719 350.6794738769531 322.62481689453125 C 349.35699462890625 322.2518615722656 348.0927429199219 321.87091064453125 346.7952880859375 321.2623291015625 C 345.5290832519531 320.66119384765625 343.99859619140625 320.08795166015625 348.5039367675781 315.8701171875" stroke-width="0.0" fill="rgb(82, 38, 21)" opacity="0.9992816" stroke="rgb(96, 145, 38)" stroke-opacity="0.2472142" stroke-linecap="round" stroke-linejoin="round"/>
    <path d="M 205.596923828125 125.41476440429688 C 206.64599609375 125.90409088134766 207.99635314941406 126.37577056884766 209.33119201660156 126.5079116821289 C 210.62542724609375 126.4457015991211 212.2496795654297 126.36189270019531 213.8455810546875 126.1318588256836 C 215.3074951171875 126.20768737792969 216.6256103515625 126.43861389160156 217.7732696533203 126.86128234863281 C 218.83526611328125 127.54987335205078 219.1781768798828 128.38880920410156 219.3720245361328 129.31723022460938 C 219.34120178222656 130.07716369628906 219.1297607421875 130.55812072753906 218.73687744140625 130.7934112548828 C 218.69635009765625 130.86871337890625 218.906005859375 130.68247985839844 219.21963500976562 130.30224609375 C 219.80738830566406 129.9082489013672 220.71029663085938 129.75009155273438 221.7373046875 129.9828338623047 C 222.7621307373047 130.56385803222656 223.78756713867188 131.3172607421875 224.44371032714844 132.24989318847656 C 224.47015380859375 133.185791015625 224.32127380371094 134.0236358642578 224.27056884765625 134.95513916015625 C 224.81243896484375 135.88792419433594 226.07266235351562 136.85977172851562 227.1852264404297 137.97085571289062 C 227.6109161376953 139.31597900390625 228.37271118164062 141.1678924560547 229.02293395996094 143.05747985839844 C 228.750244140625 144.79388427734375 227.86537170410156 146.3010711669922 226.78424072265625 147.2801971435547 C 226.23561096191406 147.63633728027344 225.73770141601562 147.63113403320312 224.84048461914062 147.37889099121094 C 224.02207946777344 146.92523193359375 223.55296325683594 146.49853515625 223.26821899414062 146.09048461914062 C 223.0786895751953 145.7625274658203 222.95022583007812 145.4241485595703 222.79132080078125 145.1625213623047 C 222.5436248779297 145.02500915527344 222.35098266601562 144.9256591796875 222.39910888671875 144.9713134765625 C 222.640625 145.15545654296875 223.01722717285156 145.50680541992188 223.48867797851562 146.0079803466797 C 224.14610290527344 146.51419067382812 224.9132537841797 147.01596069335938 225.6991729736328 147.60572814941406 C 226.2515869140625 148.32945251464844 226.46885681152344 149.2591094970703 226.41165161132812 150.19677734375 C 226.12046813964844 151.165771484375 225.59254455566406 152.2116241455078 224.83245849609375 153.49557495117188 C 223.9271697998047 154.80845642089844 223.04345703125 156.03929138183594 222.03366088867188 157.00927734375 C 220.8481903076172 157.73834228515625 219.89443969726562 158.73040771484375 219.2353057861328 160.10653686523438 C 218.42771911621094 161.37905883789062 217.43563842773438 162.5312957763672 216.03968811035156 163.3988800048828 C 214.48541259765625 163.85353088378906 212.9185028076172 164.0454559326172 211.16505432128906 164.05421447753906 C 209.3568115234375 163.90391540527344 207.63331604003906 163.979736328125 206.09024047851562 164.2765655517578 C 204.70285034179688 164.53173828125 203.401611328125 164.41824340820312 202.2577362060547 163.7388153076172 C 201.29823303222656 162.68572998046875 200.46884155273438 161.6641082763672 199.6707000732422 160.8440399169922 C 198.82196044921875 160.3370819091797 198.03419494628906 160.36595153808594 197.33250427246094 160.53579711914062 C 196.65618896484375 160.58203125 195.999267578125 160.53298950195312 195.42710876464844 160.4614715576172 C 195.09756469726562 160.150634765625 195.36532592773438 159.50648498535156 195.4690704345703 159.0699462890625 C 195.48013305664062 158.6090850830078 194.63137817382812 158.3061065673828 193.3675079345703 157.77157592773438 C 192.12742614746094 156.8379364013672 191.14361572265625 155.6011505126953 190.46214294433594 154.30551147460938 C 189.60145568847656 153.1697998046875 188.88375854492188 152.24058532714844 189.1001434326172 151.241943359375 C 188.58018493652344 150.3734893798828 188.30419921875 149.454833984375 188.6073455810547 148.3013458251953 C 188.6802978515625 146.9790802001953 188.73326110839844 145.67449951171875 188.65638732910156 144.46307373046875 C 188.69517517089844 143.31747436523438 188.88951110839844 142.20448303222656 189.10098266601562 141.10736083984375 C 189.23602294921875 140.03350830078125 189.40550231933594 138.9713134765625 189.65261840820312 137.9462127685547 C 190.07615661621094 136.9827117919922 190.5966796875 136.12274169921875 191.22767639160156 135.347412109375 C 191.90798950195312 134.60791015625 192.51779174804688 133.88088989257812 193.13656616210938 133.27015686035156 C 193.7401885986328 132.59800720214844 194.4130096435547 131.9120635986328 195.12680053710938 131.2238311767578 C 195.86672973632812 130.52476501464844 196.7283172607422 129.8631134033203 197.75274658203125 129.29415893554688 C 198.9025115966797 128.86534118652344 200.03887939453125 128.5594024658203 201.04901123046875 128.16964721679688 C 201.9464569091797 127.6923599243164 202.85804748535156 127.25399017333984 205.596923828125 125.41476440429688" stroke-width="0.0" fill="rgb(143, 71, 28)" opacity="0.99830043" stroke="rgb(203, 120, 123)" stroke-opacity="0.9192825" stroke-linecap="round" stroke-linejoin="round"/>
    <path d="M 190.0 584.0 C 191.0 584.0 192.0 584.0 192.0 585.0 C 192.0 586.0 191.0 586.0 190.0 586.0 C 189.0 586.0 188.0 586.0 187.0 587.0 C 186.0 587.0 185.0 587.0 184.0 587.0 C 183.0 587.0 182.0 588.0 181.0 588.0 C 180.0 588.0 179.0 589.0 178.0 589.0 C 177.0 589.0 176.0 590.0 175.0 590.0 C 174.0 590.0 173.0 591.0 172.0 591.0 C 171.0 591.0 170.0 592.0 169.0 592.0 C 168.0 592.0 167.0 592.0 166.0 592.0 C 165.0 593.0 164.0 593.0 163.0 593.0 C 162.0 593.0 162.0 592.0 162.0 591.0 C 163.0 591.0 164.0 591.0 165.0 591.0 C 166.0 590.0 167.0 590.0 168.0 590.0 C 169.0 589.0 170.0 589.0 171.0 589.0 C 172.0 588.0 173.0 588.0 174.0 588.0 C 175.0 587.0 176.0 587.0 177.0 587.0 C 178.0 587.0 179.0 586.0 180.0 586.0 C 181.0 586.0 182.0 586.0 183.0 585.0 C 184.0 585.0 185.0 585.0 186.0 585.0 C 187.0 585.0 188.0 584.0 190.0 584.0" stroke-width="0.0" fill="rgb(78, 42, 31)" opacity="1.0" stroke="rgb(17, 7, 34)" stroke-opacity="0.04515319" stroke-linecap="round" stroke-linejoin="round"/>
    <path d="M 156.0 592.0 C 157.0 592.0 158.0 592.0 159.0 592.0 C 159.0 593.0 159.0 594.0 158.0 594.0 C 157.0 595.0 156.0 595.0 155.0 595.0 C 154.0 595.0 153.0 595.0 152.0 595.0 C 151.0 595.0 150.0 595.0 149.0 595.0 C 148.0 595.0 147.0 595.0 146.0 595.0 C 145.0 595.0 144.0 595.0 143.0 595.0 C 142.0 595.0 141.0 595.0 140.0 595.0 C 139.0 595.0 138.0 595.0 138.0 594.0 C 138.0 593.0 139.0 593.0 140.0 593.0 C 141.0 593.0 142.0 593.0 143.0 593.0 C 144.0 593.0 145.0 593.0 146.0 593.0 C 147.0 593.0 148.0 593.0 149.0 593.0 C 150.0 593.0 151.0 593.0 152.0 593.0 C 153.0 593.0 154.0 592.0 156.0 592.0" stroke-width="0.0" fill="rgb(72, 28, 16)" opacity="1.0" stroke="rgb(18, 91, 87)" stroke-opacity="0.22900175" stroke-linecap="round" stroke-linejoin="round"/>
    <path d="M 316.0 111.0 C 317.0 111.0 318.0 111.0 319.0 111.0 C 320.0 111.0 321.0 111.0 322.0 111.0 C 322.0 112.0 322.0 113.0 322.0 114.0 C 322.0 115.0 322.0 116.0 322.0 117.0 C 322.0 118.0 322.0 119.0 322.0 120.0 C 322.0 121.0 322.0 122.0 322.0 123.0 C 322.0 124.0 322.0 125.0 322.0 126.0 C 323.0 127.0 324.0 127.0 325.0 126.0 C 325.0 125.0 325.0 124.0 325.0 123.0 C 325.0 122.0 325.0 121.0 325.0 120.0 C 325.0 119.0 325.0 118.0 325.0 117.0 C 325.0 116.0 326.0 116.0 327.0 116.0 C 327.0 117.0 327.0 118.0 327.0 119.0 C 327.0 120.0 328.0 121.0 328.0 122.0 C 328.0 123.0 328.0 124.0 327.0 125.0 C 327.0 126.0 327.0 127.0 327.0 128.0 C 327.0 129.0 326.0 130.0 325.0 130.0 C 324.0 130.0 323.0 130.0 322.0 130.0 C 321.0 130.0 320.0 130.0 319.0 130.0 C 318.0 130.0 317.0 130.0 316.0 130.0 C 315.0 130.0 314.0 130.0 314.0 129.0 C 314.0 128.0 315.0 127.0 316.0 126.0 C 317.0 125.0 317.0 124.0 317.0 123.0 C 317.0 122.0 317.0 121.0 318.0 121.0 C 319.0 120.0 319.0 119.0 318.0 118.0 C 317.0 118.0 316.0 117.0 316.0 116.0 C 315.0 115.0 315.0 114.0 314.0 113.0 C 314.0 112.0 314.0 111.0 316.0 111.0" stroke-width="0.0" fill="rgb(144, 71, 27)" opacity="1.0" stroke="rgb(81, 73, 111)" stroke-opacity="0.23489156" stroke-linecap="round" stroke-linejoin="round"/>
    <path d="M 229.0 449.0 C 230.0 449.0 231.0 449.0 232.0 449.0 C 233.0 449.0 234.0 449.0 235.0 449.0 C 235.0 450.0 235.0 451.0 235.0 452.0 C 235.0 453.0 235.0 454.0 236.0 455.0 C 236.0 456.0 236.0 457.0 236.0 458.0 C 236.0 459.0 236.0 460.0 237.0 461.0 C 237.0 462.0 237.0 463.0 237.0 464.0 C 238.0 465.0 239.0 466.0 240.0 466.0 C 241.0 466.0 242.0 467.0 243.0 467.0 C 244.0 467.0 245.0 467.0 246.0 468.0 C 246.0 469.0 246.0 470.0 246.0 471.0 C 246.0 472.0 246.0 473.0 246.0 474.0 C 245.0 474.0 244.0 474.0 243.0 474.0 C 243.0 473.0 243.0 472.0 243.0 471.0 C 242.0 470.0 241.0 469.0 240.0 468.0 C 239.0 468.0 238.0 467.0 237.0 467.0 C 236.0 467.0 235.0 467.0 235.0 466.0 C 235.0 465.0 234.0 464.0 234.0 463.0 C 234.0 462.0 234.0 461.0 234.0 460.0 C 233.0 459.0 233.0 458.0 233.0 457.0 C 233.0 456.0 233.0 455.0 232.0 454.0 C 231.0 453.0 230.0 454.0 229.0 454.0 C 228.0 454.0 227.0 455.0 227.0 456.0 C 227.0 457.0 227.0 458.0 227.0 459.0 C 226.0 460.0 226.0 461.0 226.0 462.0 C 226.0 463.0 226.0 464.0 225.0 464.0 C 224.0 464.0 224.0 463.0 224.0 462.0 C 224.0 461.0 224.0 460.0 224.0 459.0 C 224.0 458.0 224.0 457.0 224.0 456.0 C 224.0 455.0 225.0 454.0 225.0 453.0 C 225.0 452.0 226.0 451.0 226.0 450.0 C 227.0 450.0 228.0 449.0 229.0 449.0" stroke-width="0.0" fill="rgb(95, 41, 21)" opacity="1.0" stroke="rgb(216, 233, 66)" stroke-opacity="0.63011855" stroke-linecap="round" stroke-linejoin="round"/>
  </g>
</svg>
