<?xml version="1.0" ?>
<svg xmlns="http://www.w3.org/2000/svg" version="1.1" width="474" height="596">
  <defs/>
  <g>
    <path d="M 266.0 0.0 C 267.0 0.0 268.0 0.0 269.0 0.0 C 270.0 0.0 271.0 0.0 272.0 0.0 C 273.0 0.0 274.0 0.0 275.0 0.0 C 276.0 0.0 277.0 0.0 278.0 0.0 C 279.0 0.0 280.0 0.0 281.0 0.0 C 282.0 0.0 288.0 2.0 296.0 4.0 C 304.0 6.0 312.0 9.0 320.0 12.0 C 328.0 16.0 336.0 20.0 344.0 24.0 C 352.0 29.0 360.0 35.0 368.0 41.0 C 376.0 48.0 384.0 56.0 392.0 64.0 C 399.0 72.0 405.0 80.0 411.0 88.0 C 417.0 96.0 422.0 104.0 427.0 112.0 C 431.0 120.0 432.0 128.0 431.0 136.0 C 426.0 144.0 421.0 152.0 415.0 160.0 C 408.0 168.0 400.0 176.0 392.0 184.0 C 384.0 191.0 376.0 197.0 368.0 203.0 C 360.0 208.0 352.0 213.0 344.0 217.0 C 336.0 220.0 328.0 222.0 320.0 224.0 C 316.0 223.0 324.0 218.0 332.0 212.0 C 340.0 206.0 348.0 198.0 355.0 190.0 C 360.0 182.0 364.0 174.0 367.0 166.0 C 370.0 158.0 371.0 150.0 371.0 142.0 C 370.0 134.0 368.0 126.0 365.0 118.0 C 361.0 110.0 354.0 102.0 346.0 94.0 C 338.0 94.0 330.0 95.0 322.0 96.0 C 314.0 98.0 309.0 98.0 301.0 100.0 C 293.0 102.0 285.0 104.0 277.0 105.0 C 269.0 107.0 261.0 109.0 254.0 103.0 C 246.0 96.0 238.0 91.0 241.0 99.0 C 244.0 107.0 244.0 114.0 236.0 115.0 C 228.0 117.0 220.0 119.0 212.0 121.0 C 204.0 123.0 196.0 126.0 188.0 129.0 C 180.0 132.0 172.0 136.0 165.0 135.0 C 160.0 127.0 157.0 127.0 157.0 135.0 C 156.0 143.0 150.0 149.0 145.0 156.0 C 143.0 164.0 142.0 172.0 143.0 180.0 C 144.0 188.0 147.0 196.0 151.0 204.0 C 157.0 212.0 165.0 219.0 173.0 226.0 C 181.0 231.0 189.0 235.0 197.0 238.0 C 205.0 240.0 213.0 242.0 209.0 243.0 C 201.0 242.0 193.0 239.0 185.0 238.0 C 177.0 239.0 169.0 241.0 162.0 240.0 C 154.0 240.0 146.0 239.0 138.0 239.0 C 130.0 237.0 122.0 236.0 114.0 234.0 C 106.0 231.0 98.0 229.0 90.0 226.0 C 82.0 223.0 74.0 219.0 66.0 215.0 C 58.0 209.0 54.0 201.0 54.0 193.0 C 54.0 185.0 55.0 177.0 57.0 169.0 C 59.0 161.0 60.0 153.0 63.0 145.0 C 65.0 137.0 68.0 129.0 71.0 121.0 C 75.0 113.0 79.0 105.0 83.0 97.0 C 89.0 89.0 94.0 81.0 100.0 73.0 C 107.0 65.0 115.0 57.0 123.0 50.0 C 131.0 43.0 139.0 37.0 147.0 31.0 C 155.0 27.0 163.0 25.0 171.0 24.0 C 179.0 24.0 187.0 25.0 195.0 26.0 C 203.0 28.0 211.0 31.0 214.0 27.0 C 219.0 33.0 221.0 27.0 226.0 27.0 C 234.0 19.0 242.0 12.0 250.0 7.0 C 258.0 3.0 265.0 0.0 266.0 0.0" stroke-width="0.0" fill="rgb(64, 38, 31)" opacity="1.0" stroke="rgb(132, 70, 107)" stroke-opacity="0.70199823" stroke-linecap="round" stroke-linejoin="round"/>
    <path d="M 312.0 225.0 C 313.0 225.0 313.0 226.0 313.0 227.0 C 312.0 227.0 302.0 232.0 292.0 239.0 C 288.0 243.0 305.0 262.0 297.0 259.0 C 276.0 241.0 258.0 246.0 237.0 245.0 C 215.0 246.0 235.0 255.0 242.0 257.0 C 221.0 254.0 214.0 260.0 228.0 259.0 C 237.0 267.0 258.0 260.0 259.0 260.0 C 271.0 273.0 278.0 288.0 291.0 302.0 C 296.0 307.0 304.0 311.0 315.0 331.0 C 321.0 329.0 317.0 307.0 311.0 289.0 C 321.0 309.0 326.0 305.0 321.0 303.0 C 317.0 283.0 310.0 264.0 299.0 250.0 C 303.0 241.0 325.0 246.0 347.0 254.0 C 366.0 267.0 388.0 278.0 410.0 293.0 C 432.0 288.0 416.0 296.0 394.0 285.0 C 372.0 273.0 360.0 287.0 351.0 309.0 C 364.0 321.0 386.0 325.0 407.0 333.0 C 429.0 346.0 444.0 354.0 428.0 350.0 C 407.0 336.0 385.0 328.0 363.0 325.0 C 342.0 324.0 324.0 321.0 322.0 343.0 C 323.0 365.0 315.0 382.0 313.0 404.0 C 309.0 426.0 303.0 448.0 298.0 470.0 C 288.0 488.0 292.0 505.0 300.0 518.0 C 295.0 533.0 278.0 519.0 260.0 529.0 C 245.0 521.0 238.0 536.0 237.0 558.0 C 246.0 576.0 268.0 580.0 290.0 581.0 C 312.0 580.0 334.0 576.0 339.0 556.0 C 338.0 576.0 316.0 583.0 294.0 584.0 C 272.0 582.0 250.0 580.0 234.0 566.0 C 234.0 544.0 234.0 523.0 233.0 509.0 C 241.0 499.0 243.0 477.0 233.0 459.0 C 226.0 468.0 214.0 484.0 210.0 505.0 C 210.0 484.0 198.0 475.0 176.0 473.0 C 169.0 488.0 171.0 508.0 193.0 511.0 C 215.0 509.0 212.0 527.0 214.0 549.0 C 217.0 571.0 205.0 586.0 183.0 588.0 C 162.0 595.0 140.0 595.0 119.0 588.0 C 126.0 568.0 120.0 582.0 140.0 592.0 C 162.0 591.0 184.0 584.0 206.0 582.0 C 213.0 565.0 212.0 543.0 206.0 524.0 C 197.0 530.0 186.0 532.0 186.0 521.0 C 176.0 527.0 163.0 528.0 151.0 518.0 C 165.0 501.0 166.0 479.0 157.0 460.0 C 155.0 438.0 153.0 416.0 148.0 397.0 C 126.0 391.0 115.0 370.0 114.0 348.0 C 97.0 351.0 80.0 361.0 72.0 371.0 C 76.0 359.0 87.0 352.0 109.0 342.0 C 130.0 330.0 125.0 316.0 127.0 311.0 C 120.0 300.0 110.0 284.0 104.0 274.0 C 99.0 282.0 93.0 289.0 104.0 270.0 C 126.0 256.0 148.0 246.0 158.0 246.0 C 166.0 247.0 165.0 255.0 158.0 267.0 C 152.0 282.0 152.0 303.0 148.0 322.0 C 151.0 338.0 158.0 354.0 156.0 376.0 C 165.0 377.0 169.0 373.0 163.0 367.0 C 163.0 347.0 172.0 338.0 176.0 329.0 C 179.0 312.0 193.0 301.0 193.0 288.0 C 196.0 270.0 204.0 256.0 213.0 252.0 C 223.0 243.0 245.0 243.0 267.0 240.0 C 289.0 235.0 311.0 225.0 312.0 225.0" stroke-width="0.0" fill="rgb(232, 106, 162)" opacity="1.0" stroke="rgb(201, 16, 132)" stroke-opacity="0.47924513" stroke-linecap="round" stroke-linejoin="round"/>
    <path d="M 341.0 94.0 C 342.0 94.0 343.0 94.0 344.0 94.0 C 345.0 94.0 346.0 95.0 347.0 96.0 C 347.0 97.0 347.0 98.0 348.0 99.0 C 349.0 100.0 350.0 100.0 351.0 100.0 C 351.0 101.0 351.0 102.0 352.0 103.0 C 353.0 104.0 354.0 104.0 355.0 104.0 C 355.0 105.0 355.0 106.0 356.0 107.0 C 357.0 107.0 358.0 107.0 359.0 110.0 C 361.0 115.0 363.0 120.0 366.0 123.0 C 367.0 128.0 368.0 133.0 369.0 137.0 C 369.0 141.0 370.0 145.0 370.0 150.0 C 368.0 154.0 367.0 159.0 367.0 164.0 C 365.0 168.0 363.0 173.0 360.0 177.0 C 359.0 182.0 356.0 185.0 353.0 190.0 C 348.0 193.0 346.0 197.0 343.0 201.0 C 339.0 204.0 335.0 209.0 330.0 211.0 C 326.0 215.0 321.0 216.0 317.0 218.0 C 313.0 221.0 314.0 225.0 312.0 224.0 C 308.0 226.0 303.0 227.0 298.0 229.0 C 293.0 231.0 288.0 233.0 283.0 235.0 C 280.0 232.0 277.0 235.0 272.0 237.0 C 267.0 238.0 263.0 240.0 261.0 241.0 C 257.0 240.0 252.0 240.0 247.0 241.0 C 242.0 241.0 237.0 242.0 232.0 242.0 C 227.0 242.0 222.0 241.0 217.0 240.0 C 212.0 241.0 207.0 240.0 203.0 237.0 C 199.0 235.0 194.0 235.0 190.0 232.0 C 185.0 231.0 182.0 228.0 178.0 227.0 C 174.0 224.0 173.0 220.0 168.0 219.0 C 164.0 216.0 160.0 212.0 158.0 208.0 C 154.0 207.0 152.0 202.0 150.0 198.0 C 148.0 193.0 147.0 188.0 144.0 184.0 C 143.0 179.0 143.0 174.0 143.0 169.0 C 144.0 165.0 144.0 160.0 147.0 156.0 C 149.0 151.0 153.0 150.0 156.0 146.0 C 157.0 141.0 157.0 136.0 158.0 131.0 C 163.0 133.0 163.0 138.0 167.0 141.0 C 171.0 139.0 176.0 137.0 180.0 134.0 C 185.0 132.0 189.0 133.0 192.0 129.0 C 197.0 128.0 202.0 126.0 207.0 124.0 C 212.0 124.0 217.0 124.0 220.0 122.0 C 217.0 120.0 222.0 119.0 227.0 118.0 C 231.0 117.0 236.0 116.0 241.0 117.0 C 245.0 114.0 247.0 110.0 245.0 106.0 C 243.0 101.0 241.0 97.0 245.0 96.0 C 248.0 100.0 251.0 103.0 254.0 106.0 C 257.0 110.0 261.0 112.0 265.0 109.0 C 270.0 108.0 274.0 107.0 279.0 106.0 C 284.0 105.0 289.0 105.0 293.0 103.0 C 298.0 102.0 301.0 104.0 305.0 102.0 C 309.0 99.0 310.0 101.0 305.0 103.0 C 309.0 104.0 314.0 104.0 319.0 105.0 C 324.0 108.0 328.0 113.0 329.0 118.0 C 330.0 123.0 329.0 128.0 328.0 133.0 C 331.0 136.0 332.0 133.0 335.0 131.0 C 339.0 132.0 344.0 130.0 343.0 127.0 C 347.0 126.0 345.0 123.0 345.0 118.0 C 344.0 113.0 343.0 111.0 339.0 108.0 C 335.0 105.0 334.0 100.0 331.0 97.0 C 335.0 95.0 340.0 94.0 341.0 94.0" stroke-width="0.0" fill="rgb(251, 188, 104)" opacity="1.0" stroke="rgb(158, 41, 67)" stroke-opacity="0.17667209" stroke-linecap="round" stroke-linejoin="round"/>
  </g>
</svg>
