<?xml version="1.0" ?>
<svg xmlns="http://www.w3.org/2000/svg" version="1.1" width="474" height="596">
  <defs/>
  <g>
    <path d="M 266.0 0.0 C 267.0 0.0 268.0 0.0 269.0 0.0 C 270.0 0.0 271.0 0.0 272.0 0.0 C 273.0 0.0 274.0 0.0 275.0 0.0 C 276.0 0.0 277.0 0.0 278.0 0.0 C 279.0 0.0 280.0 0.0 281.0 0.0 C 282.0 0.0 288.0 2.0 296.0 4.0 C 304.0 6.0 312.0 9.0 320.0 12.0 C 328.0 16.0 336.0 20.0 344.0 24.0 C 352.0 29.0 360.0 35.0 368.0 41.0 C 376.0 48.0 384.0 56.0 392.0 64.0 C 399.0 72.0 405.0 80.0 411.0 88.0 C 417.0 96.0 422.0 104.0 427.0 112.0 C 431.0 120.0 432.0 128.0 431.0 136.0 C 426.0 144.0 421.0 152.0 415.0 160.0 C 408.0 168.0 400.0 176.0 392.0 184.0 C 384.0 191.0 376.0 197.0 368.0 203.0 C 360.0 208.0 352.0 213.0 344.0 217.0 C 336.0 220.0 328.0 222.0 320.0 224.0 C 316.0 223.0 324.0 218.0 332.0 212.0 C 340.0 206.0 348.0 198.0 355.0 190.0 C 360.0 182.0 364.0 174.0 367.0 166.0 C 370.0 158.0 371.0 150.0 371.0 142.0 C 370.0 134.0 368.0 126.0 365.0 118.0 C 361.0 110.0 354.0 102.0 346.0 94.0 C 338.0 94.0 330.0 95.0 322.0 96.0 C 314.0 98.0 309.0 98.0 301.0 100.0 C 293.0 102.0 285.0 104.0 277.0 105.0 C 269.0 107.0 261.0 109.0 254.0 103.0 C 246.0 96.0 238.0 91.0 241.0 99.0 C 244.0 107.0 244.0 114.0 236.0 115.0 C 228.0 117.0 220.0 119.0 212.0 121.0 C 204.0 123.0 196.0 126.0 188.0 129.0 C 180.0 132.0 172.0 136.0 165.0 135.0 C 160.0 127.0 157.0 127.0 157.0 135.0 C 156.0 143.0 150.0 149.0 145.0 156.0 C 143.0 164.0 142.0 172.0 143.0 180.0 C 144.0 188.0 147.0 196.0 151.0 204.0 C 157.0 212.0 165.0 219.0 173.0 226.0 C 181.0 231.0 189.0 235.0 197.0 238.0 C 205.0 240.0 213.0 242.0 209.0 243.0 C 201.0 242.0 193.0 239.0 185.0 238.0 C 177.0 239.0 169.0 241.0 162.0 240.0 C 154.0 240.0 146.0 239.0 138.0 239.0 C 130.0 237.0 122.0 236.0 114.0 234.0 C 106.0 231.0 98.0 229.0 90.0 226.0 C 82.0 223.0 74.0 219.0 66.0 215.0 C 58.0 209.0 54.0 201.0 54.0 193.0 C 54.0 185.0 55.0 177.0 57.0 169.0 C 59.0 161.0 60.0 153.0 63.0 145.0 C 65.0 137.0 68.0 129.0 71.0 121.0 C 75.0 113.0 79.0 105.0 83.0 97.0 C 89.0 89.0 94.0 81.0 100.0 73.0 C 107.0 65.0 115.0 57.0 123.0 50.0 C 131.0 43.0 139.0 37.0 147.0 31.0 C 155.0 27.0 163.0 25.0 171.0 24.0 C 179.0 24.0 187.0 25.0 195.0 26.0 C 203.0 28.0 211.0 31.0 214.0 27.0 C 219.0 33.0 221.0 27.0 226.0 27.0 C 234.0 19.0 242.0 12.0 250.0 7.0 C 258.0 3.0 265.0 0.0 266.0 0.0" stroke-width="0.0" fill="rgb(64, 38, 31)" opacity="1.0" stroke="rgb(101, 190, 202)" stroke-opacity="0.02008896" stroke-linecap="round" stroke-linejoin="round"/>
    <path d="M 312.0 225.0 C 313.0 225.0 313.0 226.0 313.0 227.0 C 312.0 227.0 302.0 232.0 292.0 239.0 C 288.0 243.0 305.0 262.0 297.0 259.0 C 276.0 241.0 258.0 246.0 237.0 245.0 C 215.0 246.0 235.0 255.0 242.0 257.0 C 221.0 254.0 214.0 260.0 228.0 259.0 C 237.0 267.0 258.0 260.0 259.0 260.0 C 271.0 273.0 278.0 288.0 291.0 302.0 C 296.0 307.0 304.0 311.0 315.0 331.0 C 321.0 329.0 317.0 307.0 311.0 289.0 C 321.0 309.0 326.0 305.0 321.0 303.0 C 317.0 283.0 310.0 264.0 299.0 250.0 C 303.0 241.0 325.0 246.0 347.0 254.0 C 366.0 267.0 388.0 278.0 410.0 293.0 C 432.0 288.0 416.0 296.0 394.0 285.0 C 372.0 273.0 360.0 287.0 351.0 309.0 C 364.0 321.0 386.0 325.0 407.0 333.0 C 429.0 346.0 444.0 354.0 428.0 350.0 C 407.0 336.0 385.0 328.0 363.0 325.0 C 342.0 324.0 324.0 321.0 322.0 343.0 C 323.0 365.0 315.0 382.0 313.0 404.0 C 309.0 426.0 303.0 448.0 298.0 470.0 C 288.0 488.0 292.0 505.0 300.0 518.0 C 295.0 533.0 278.0 519.0 260.0 529.0 C 245.0 521.0 238.0 536.0 237.0 558.0 C 246.0 576.0 268.0 580.0 290.0 581.0 C 312.0 580.0 334.0 576.0 339.0 556.0 C 338.0 576.0 316.0 583.0 294.0 584.0 C 272.0 582.0 250.0 580.0 234.0 566.0 C 234.0 544.0 234.0 523.0 233.0 509.0 C 241.0 499.0 243.0 477.0 233.0 459.0 C 226.0 468.0 214.0 484.0 210.0 505.0 C 210.0 484.0 198.0 475.0 176.0 473.0 C 169.0 488.0 171.0 508.0 193.0 511.0 C 215.0 509.0 212.0 527.0 214.0 549.0 C 217.0 571.0 205.0 586.0 183.0 588.0 C 162.0 595.0 140.0 595.0 119.0 588.0 C 126.0 568.0 120.0 582.0 140.0 592.0 C 162.0 591.0 184.0 584.0 206.0 582.0 C 213.0 565.0 212.0 543.0 206.0 524.0 C 197.0 530.0 186.0 532.0 186.0 521.0 C 176.0 527.0 163.0 528.0 151.0 518.0 C 165.0 501.0 166.0 479.0 157.0 460.0 C 155.0 438.0 153.0 416.0 148.0 397.0 C 126.0 391.0 115.0 370.0 114.0 348.0 C 97.0 351.0 80.0 361.0 72.0 371.0 C 76.0 359.0 87.0 352.0 109.0 342.0 C 130.0 330.0 125.0 316.0 127.0 311.0 C 120.0 300.0 110.0 284.0 104.0 274.0 C 99.0 282.0 93.0 289.0 104.0 270.0 C 126.0 256.0 148.0 246.0 158.0 246.0 C 166.0 247.0 165.0 255.0 158.0 267.0 C 152.0 282.0 152.0 303.0 148.0 322.0 C 151.0 338.0 158.0 354.0 156.0 376.0 C 165.0 377.0 169.0 373.0 163.0 367.0 C 163.0 347.0 172.0 338.0 176.0 329.0 C 179.0 312.0 193.0 301.0 193.0 288.0 C 196.0 270.0 204.0 256.0 213.0 252.0 C 223.0 243.0 245.0 243.0 267.0 240.0 C 289.0 235.0 311.0 225.0 312.0 225.0" stroke-width="0.0" fill="rgb(232, 106, 162)" opacity="1.0" stroke="rgb(247, 17, 133)" stroke-opacity="0.7202703" stroke-linecap="round" stroke-linejoin="round"/>
    <path d="M 341.0 94.0 C 342.0 94.0 343.0 94.0 344.0 94.0 C 345.0 94.0 346.0 95.0 347.0 96.0 C 347.0 97.0 347.0 98.0 348.0 99.0 C 349.0 100.0 350.0 100.0 351.0 100.0 C 351.0 101.0 351.0 102.0 352.0 103.0 C 353.0 104.0 354.0 104.0 355.0 104.0 C 355.0 105.0 355.0 106.0 356.0 107.0 C 357.0 107.0 358.0 107.0 359.0 110.0 C 361.0 115.0 363.0 120.0 366.0 123.0 C 367.0 128.0 368.0 133.0 369.0 137.0 C 369.0 141.0 370.0 145.0 370.0 150.0 C 368.0 154.0 367.0 159.0 367.0 164.0 C 365.0 168.0 363.0 173.0 360.0 177.0 C 359.0 182.0 356.0 185.0 353.0 190.0 C 348.0 193.0 346.0 197.0 343.0 201.0 C 339.0 204.0 335.0 209.0 330.0 211.0 C 326.0 215.0 321.0 216.0 317.0 218.0 C 313.0 221.0 314.0 225.0 312.0 224.0 C 308.0 226.0 303.0 227.0 298.0 229.0 C 293.0 231.0 288.0 233.0 283.0 235.0 C 280.0 232.0 277.0 235.0 272.0 237.0 C 267.0 238.0 263.0 240.0 261.0 241.0 C 257.0 240.0 252.0 240.0 247.0 241.0 C 242.0 241.0 237.0 242.0 232.0 242.0 C 227.0 242.0 222.0 241.0 217.0 240.0 C 212.0 241.0 207.0 240.0 203.0 237.0 C 199.0 235.0 194.0 235.0 190.0 232.0 C 185.0 231.0 182.0 228.0 178.0 227.0 C 174.0 224.0 173.0 220.0 168.0 219.0 C 164.0 216.0 160.0 212.0 158.0 208.0 C 154.0 207.0 152.0 202.0 150.0 198.0 C 148.0 193.0 147.0 188.0 144.0 184.0 C 143.0 179.0 143.0 174.0 143.0 169.0 C 144.0 165.0 144.0 160.0 147.0 156.0 C 149.0 151.0 153.0 150.0 156.0 146.0 C 157.0 141.0 157.0 136.0 158.0 131.0 C 163.0 133.0 163.0 138.0 167.0 141.0 C 171.0 139.0 176.0 137.0 180.0 134.0 C 185.0 132.0 189.0 133.0 192.0 129.0 C 197.0 128.0 202.0 126.0 207.0 124.0 C 212.0 124.0 217.0 124.0 220.0 122.0 C 217.0 120.0 222.0 119.0 227.0 118.0 C 231.0 117.0 236.0 116.0 241.0 117.0 C 245.0 114.0 247.0 110.0 245.0 106.0 C 243.0 101.0 241.0 97.0 245.0 96.0 C 248.0 100.0 251.0 103.0 254.0 106.0 C 257.0 110.0 261.0 112.0 265.0 109.0 C 270.0 108.0 274.0 107.0 279.0 106.0 C 284.0 105.0 289.0 105.0 293.0 103.0 C 298.0 102.0 301.0 104.0 305.0 102.0 C 309.0 99.0 310.0 101.0 305.0 103.0 C 309.0 104.0 314.0 104.0 319.0 105.0 C 324.0 108.0 328.0 113.0 329.0 118.0 C 330.0 123.0 329.0 128.0 328.0 133.0 C 331.0 136.0 332.0 133.0 335.0 131.0 C 339.0 132.0 344.0 130.0 343.0 127.0 C 347.0 126.0 345.0 123.0 345.0 118.0 C 344.0 113.0 343.0 111.0 339.0 108.0 C 335.0 105.0 334.0 100.0 331.0 97.0 C 335.0 95.0 340.0 94.0 341.0 94.0" stroke-width="0.0" fill="rgb(251, 188, 104)" opacity="1.0" stroke="rgb(22, 221, 110)" stroke-opacity="0.12477562" stroke-linecap="round" stroke-linejoin="round"/>
    <path d="M 170.0 383.0 C 171.0 383.0 172.0 383.0 173.0 383.0 C 174.0 383.0 175.0 383.0 176.0 383.0 C 177.0 383.0 178.0 383.0 179.0 383.0 C 180.0 383.0 181.0 384.0 182.0 385.0 C 183.0 385.0 184.0 385.0 185.0 385.0 C 186.0 385.0 187.0 385.0 188.0 385.0 C 189.0 385.0 190.0 385.0 190.0 386.0 C 191.0 387.0 190.0 388.0 190.0 389.0 C 190.0 390.0 190.0 391.0 190.0 392.0 C 190.0 393.0 190.0 394.0 190.0 395.0 C 190.0 396.0 190.0 397.0 190.0 398.0 C 190.0 399.0 191.0 400.0 192.0 401.0 C 193.0 401.0 194.0 401.0 195.0 401.0 C 196.0 401.0 197.0 401.0 198.0 401.0 C 199.0 400.0 200.0 400.0 201.0 400.0 C 202.0 400.0 203.0 400.0 204.0 400.0 C 205.0 400.0 206.0 400.0 207.0 399.0 C 207.0 398.0 207.0 399.0 207.0 400.0 C 210.0 401.0 214.0 401.0 218.0 401.0 C 222.0 401.0 226.0 400.0 230.0 400.0 C 234.0 400.0 238.0 400.0 241.0 398.0 C 245.0 398.0 249.0 398.0 253.0 398.0 C 257.0 397.0 260.0 396.0 264.0 398.0 C 268.0 398.0 271.0 398.0 273.0 401.0 C 277.0 401.0 281.0 401.0 285.0 401.0 C 287.0 398.0 291.0 400.0 295.0 400.0 C 299.0 400.0 302.0 401.0 302.0 405.0 C 304.0 409.0 302.0 412.0 304.0 415.0 C 302.0 419.0 302.0 423.0 302.0 427.0 C 301.0 430.0 297.0 431.0 293.0 430.0 C 289.0 432.0 287.0 435.0 286.0 439.0 C 286.0 443.0 286.0 447.0 286.0 451.0 C 286.0 455.0 286.0 459.0 285.0 462.0 C 281.0 462.0 277.0 462.0 273.0 462.0 C 269.0 462.0 265.0 462.0 261.0 462.0 C 257.0 462.0 256.0 458.0 256.0 454.0 C 256.0 450.0 257.0 446.0 257.0 442.0 C 256.0 438.0 257.0 434.0 255.0 430.0 C 251.0 431.0 247.0 430.0 243.0 430.0 C 239.0 430.0 235.0 430.0 231.0 430.0 C 227.0 430.0 223.0 432.0 226.0 435.0 C 230.0 435.0 234.0 435.0 238.0 435.0 C 234.0 435.0 230.0 435.0 226.0 435.0 C 223.0 437.0 224.0 441.0 228.0 441.0 C 230.0 441.0 226.0 441.0 222.0 444.0 C 221.0 447.0 217.0 447.0 213.0 447.0 C 209.0 448.0 208.0 451.0 206.0 455.0 C 206.0 459.0 205.0 462.0 201.0 462.0 C 198.0 464.0 195.0 464.0 192.0 463.0 C 188.0 462.0 184.0 462.0 180.0 464.0 C 177.0 463.0 177.0 459.0 177.0 455.0 C 174.0 452.0 170.0 453.0 167.0 455.0 C 166.0 454.0 168.0 451.0 170.0 448.0 C 166.0 446.0 162.0 446.0 161.0 443.0 C 161.0 439.0 161.0 435.0 161.0 431.0 C 161.0 427.0 161.0 423.0 161.0 419.0 C 161.0 415.0 161.0 411.0 159.0 408.0 C 159.0 404.0 159.0 400.0 159.0 396.0 C 159.0 392.0 161.0 388.0 162.0 385.0 C 166.0 385.0 169.0 383.0 170.0 383.0" stroke-width="0.0" fill="rgb(252, 77, 1)" opacity="1.0" stroke="rgb(90, 175, 90)" stroke-opacity="0.76792943" stroke-linecap="round" stroke-linejoin="round"/>
    <path d="M 221.0 374.0 C 222.0 374.0 223.0 374.0 223.0 375.0 C 224.0 376.0 225.0 376.0 226.0 376.0 C 227.0 376.0 228.0 376.0 229.0 376.0 C 230.0 376.0 237.0 376.0 246.0 376.0 C 254.0 374.0 262.0 376.0 271.0 376.0 C 280.0 375.0 288.0 377.0 295.0 379.0 C 303.0 378.0 311.0 380.0 316.0 385.0 C 314.0 394.0 313.0 403.0 311.0 412.0 C 309.0 421.0 307.0 430.0 305.0 439.0 C 303.0 448.0 301.0 457.0 299.0 466.0 C 293.0 473.0 289.0 480.0 287.0 484.0 C 284.0 489.0 287.0 496.0 283.0 499.0 C 287.0 506.0 296.0 506.0 304.0 511.0 C 300.0 518.0 292.0 521.0 286.0 527.0 C 278.0 531.0 269.0 533.0 260.0 533.0 C 254.0 532.0 245.0 531.0 238.0 534.0 C 238.0 543.0 238.0 552.0 237.0 561.0 C 238.0 570.0 244.0 576.0 253.0 578.0 C 262.0 579.0 271.0 580.0 267.0 582.0 C 258.0 581.0 249.0 580.0 240.0 577.0 C 234.0 570.0 234.0 561.0 233.0 552.0 C 234.0 543.0 235.0 534.0 236.0 525.0 C 228.0 522.0 227.0 513.0 235.0 507.0 C 241.0 500.0 242.0 491.0 242.0 482.0 C 243.0 473.0 237.0 468.0 233.0 460.0 C 229.0 454.0 226.0 462.0 226.0 471.0 C 218.0 474.0 214.0 482.0 213.0 491.0 C 211.0 500.0 213.0 509.0 220.0 513.0 C 217.0 522.0 212.0 528.0 213.0 537.0 C 211.0 536.0 207.0 531.0 202.0 533.0 C 193.0 535.0 184.0 536.0 175.0 534.0 C 167.0 530.0 162.0 529.0 159.0 538.0 C 157.0 536.0 159.0 527.0 153.0 521.0 C 153.0 512.0 162.0 506.0 166.0 498.0 C 166.0 489.0 166.0 480.0 162.0 472.0 C 158.0 464.0 157.0 455.0 156.0 446.0 C 155.0 437.0 154.0 428.0 154.0 419.0 C 153.0 410.0 153.0 401.0 157.0 396.0 C 158.0 404.0 160.0 412.0 160.0 421.0 C 160.0 430.0 160.0 439.0 162.0 447.0 C 166.0 451.0 168.0 455.0 176.0 454.0 C 176.0 463.0 184.0 463.0 192.0 465.0 C 199.0 463.0 207.0 461.0 208.0 452.0 C 214.0 448.0 223.0 447.0 229.0 442.0 C 226.0 440.0 227.0 436.0 236.0 436.0 C 233.0 434.0 226.0 432.0 234.0 431.0 C 243.0 431.0 252.0 432.0 255.0 437.0 C 256.0 446.0 255.0 455.0 258.0 463.0 C 267.0 463.0 276.0 463.0 285.0 463.0 C 287.0 455.0 287.0 446.0 287.0 437.0 C 293.0 431.0 302.0 431.0 303.0 422.0 C 304.0 413.0 303.0 406.0 300.0 399.0 C 291.0 399.0 284.0 400.0 275.0 400.0 C 268.0 397.0 259.0 395.0 251.0 397.0 C 242.0 397.0 234.0 399.0 225.0 399.0 C 216.0 400.0 208.0 399.0 201.0 399.0 C 192.0 400.0 191.0 391.0 188.0 384.0 C 179.0 382.0 178.0 378.0 187.0 380.0 C 196.0 382.0 195.0 378.0 204.0 377.0 C 213.0 377.0 220.0 374.0 221.0 374.0" stroke-width="0.0" fill="rgb(239, 80, 9)" opacity="1.0" stroke="rgb(64, 179, 135)" stroke-opacity="0.28700206" stroke-linecap="round" stroke-linejoin="round"/>
    <path d="M 106.0 282.0 C 107.0 282.0 107.0 283.0 108.0 284.0 C 109.0 284.0 109.0 285.0 109.0 286.0 C 109.0 287.0 110.0 288.0 111.0 288.0 C 112.0 289.0 113.0 289.0 114.0 289.0 C 114.0 290.0 114.0 291.0 115.0 292.0 C 116.0 292.0 117.0 292.0 117.0 293.0 C 117.0 294.0 117.0 295.0 117.0 296.0 C 118.0 297.0 118.0 298.0 119.0 299.0 C 119.0 300.0 119.0 301.0 119.0 302.0 C 119.0 303.0 119.0 304.0 118.0 304.0 C 117.0 304.0 116.0 303.0 115.0 302.0 C 114.0 303.0 114.0 304.0 115.0 305.0 C 116.0 306.0 116.0 307.0 117.0 308.0 C 118.0 308.0 118.0 309.0 118.0 310.0 C 119.0 311.0 120.0 310.0 120.0 309.0 C 121.0 309.0 122.0 309.0 123.0 309.0 C 124.0 309.0 124.0 310.0 124.0 311.0 C 124.0 313.0 120.0 314.0 121.0 318.0 C 123.0 321.0 123.0 325.0 125.0 325.0 C 127.0 323.0 129.0 325.0 129.0 329.0 C 125.0 329.0 121.0 330.0 118.0 334.0 C 114.0 337.0 110.0 340.0 106.0 339.0 C 104.0 343.0 100.0 344.0 97.0 347.0 C 93.0 348.0 89.0 349.0 86.0 347.0 C 85.0 343.0 81.0 344.0 83.0 347.0 C 80.0 345.0 76.0 346.0 74.0 350.0 C 76.0 354.0 79.0 356.0 76.0 357.0 C 74.0 359.0 74.0 363.0 76.0 365.0 C 73.0 363.0 70.0 367.0 68.0 370.0 C 65.0 373.0 68.0 375.0 66.0 378.0 C 62.0 382.0 59.0 385.0 59.0 389.0 C 58.0 393.0 58.0 397.0 57.0 401.0 C 54.0 404.0 50.0 404.0 46.0 401.0 C 45.0 397.0 44.0 393.0 44.0 389.0 C 41.0 387.0 39.0 391.0 36.0 395.0 C 33.0 399.0 29.0 401.0 25.0 400.0 C 22.0 396.0 22.0 392.0 19.0 391.0 C 15.0 392.0 11.0 391.0 9.0 387.0 C 10.0 383.0 11.0 379.0 14.0 375.0 C 10.0 374.0 8.0 377.0 4.0 377.0 C 0.0 376.0 0.0 372.0 1.0 369.0 C 3.0 365.0 5.0 361.0 8.0 357.0 C 11.0 353.0 14.0 349.0 17.0 345.0 C 21.0 341.0 21.0 337.0 21.0 334.0 C 23.0 331.0 20.0 330.0 18.0 332.0 C 17.0 328.0 17.0 324.0 20.0 321.0 C 24.0 320.0 28.0 322.0 26.0 324.0 C 22.0 322.0 19.0 326.0 22.0 327.0 C 26.0 326.0 28.0 329.0 32.0 333.0 C 36.0 332.0 32.0 329.0 30.0 326.0 C 34.0 327.0 38.0 330.0 42.0 330.0 C 46.0 330.0 46.0 326.0 48.0 322.0 C 51.0 320.0 55.0 320.0 59.0 319.0 C 62.0 315.0 65.0 311.0 69.0 307.0 C 73.0 303.0 77.0 299.0 81.0 296.0 C 85.0 294.0 84.0 297.0 84.0 300.0 C 87.0 298.0 89.0 295.0 92.0 293.0 C 95.0 291.0 97.0 288.0 101.0 288.0 C 103.0 291.0 106.0 290.0 109.0 288.0 C 106.0 286.0 105.0 282.0 106.0 282.0" stroke-width="0.0" fill="rgb(249, 186, 106)" opacity="1.0" stroke="rgb(96, 53, 36)" stroke-opacity="0.29072452" stroke-linecap="round" stroke-linejoin="round"/>
    <path d="M 367.0 268.0 C 368.0 268.0 369.0 269.0 370.0 269.0 C 371.0 270.0 372.0 270.0 373.0 270.0 C 374.0 270.0 375.0 271.0 376.0 271.0 C 377.0 272.0 378.0 273.0 379.0 273.0 C 380.0 274.0 381.0 274.0 382.0 275.0 C 383.0 275.0 384.0 276.0 385.0 276.0 C 386.0 276.0 387.0 277.0 387.0 278.0 C 387.0 279.0 386.0 279.0 385.0 280.0 C 385.0 281.0 386.0 282.0 387.0 282.0 C 388.0 283.0 389.0 282.0 389.0 281.0 C 389.0 280.0 390.0 280.0 391.0 280.0 C 392.0 280.0 393.0 280.0 394.0 281.0 C 394.0 282.0 395.0 283.0 396.0 283.0 C 397.0 283.0 397.0 284.0 398.0 285.0 C 399.0 285.0 401.0 286.0 403.0 288.0 C 406.0 290.0 409.0 292.0 412.0 295.0 C 413.0 297.0 410.0 297.0 407.0 296.0 C 409.0 299.0 412.0 299.0 415.0 298.0 C 417.0 297.0 420.0 296.0 423.0 295.0 C 426.0 293.0 429.0 293.0 429.0 290.0 C 431.0 289.0 432.0 292.0 433.0 290.0 C 434.0 287.0 437.0 284.0 439.0 282.0 C 441.0 280.0 444.0 279.0 447.0 280.0 C 449.0 282.0 450.0 285.0 449.0 287.0 C 447.0 285.0 446.0 288.0 446.0 291.0 C 448.0 292.0 447.0 295.0 445.0 298.0 C 448.0 300.0 451.0 301.0 454.0 302.0 C 457.0 303.0 460.0 305.0 463.0 307.0 C 466.0 309.0 469.0 311.0 472.0 314.0 C 473.0 316.0 473.0 319.0 472.0 321.0 C 469.0 323.0 466.0 323.0 463.0 323.0 C 460.0 324.0 463.0 327.0 465.0 330.0 C 467.0 333.0 467.0 336.0 465.0 338.0 C 462.0 339.0 460.0 341.0 457.0 341.0 C 458.0 343.0 460.0 344.0 459.0 346.0 C 456.0 347.0 453.0 347.0 450.0 346.0 C 447.0 345.0 444.0 344.0 441.0 345.0 C 442.0 348.0 443.0 351.0 442.0 353.0 C 443.0 355.0 444.0 357.0 442.0 359.0 C 439.0 360.0 436.0 360.0 434.0 357.0 C 432.0 354.0 429.0 351.0 428.0 348.0 C 430.0 346.0 428.0 343.0 425.0 340.0 C 422.0 339.0 419.0 340.0 422.0 341.0 C 421.0 343.0 418.0 342.0 415.0 341.0 C 412.0 340.0 410.0 338.0 407.0 337.0 C 406.0 334.0 403.0 333.0 400.0 330.0 C 397.0 329.0 394.0 329.0 391.0 328.0 C 388.0 328.0 385.0 328.0 382.0 328.0 C 379.0 327.0 376.0 327.0 373.0 326.0 C 370.0 326.0 367.0 325.0 364.0 325.0 C 361.0 324.0 358.0 324.0 355.0 323.0 C 352.0 322.0 349.0 321.0 347.0 320.0 C 347.0 317.0 350.0 317.0 353.0 318.0 C 353.0 315.0 352.0 313.0 352.0 310.0 C 354.0 307.0 355.0 305.0 357.0 302.0 C 357.0 299.0 358.0 296.0 359.0 293.0 C 361.0 290.0 361.0 287.0 363.0 285.0 C 364.0 282.0 365.0 279.0 365.0 276.0 C 368.0 275.0 371.0 274.0 370.0 272.0 C 367.0 271.0 366.0 268.0 367.0 268.0" stroke-width="0.0" fill="rgb(249, 187, 108)" opacity="1.0" stroke="rgb(33, 146, 222)" stroke-opacity="0.89753634" stroke-linecap="round" stroke-linejoin="round"/>
    <path d="M 305.0 376.0 C 306.0 376.0 307.0 376.0 308.0 376.0 C 309.0 377.0 310.0 377.0 314.0 377.0 C 321.0 377.0 321.0 381.0 316.0 384.0 C 315.0 391.0 314.0 398.0 313.0 405.0 C 312.0 412.0 310.0 419.0 309.0 426.0 C 307.0 433.0 305.0 440.0 303.0 447.0 C 302.0 454.0 300.0 461.0 299.0 468.0 C 293.0 473.0 289.0 479.0 288.0 486.0 C 288.0 493.0 287.0 500.0 290.0 505.0 C 297.0 506.0 304.0 510.0 303.0 517.0 C 296.0 519.0 290.0 524.0 295.0 531.0 C 302.0 534.0 309.0 539.0 316.0 541.0 C 323.0 545.0 330.0 548.0 337.0 553.0 C 342.0 559.0 343.0 566.0 342.0 573.0 C 335.0 578.0 328.0 580.0 321.0 582.0 C 314.0 583.0 307.0 584.0 300.0 584.0 C 293.0 584.0 286.0 584.0 279.0 583.0 C 272.0 583.0 265.0 582.0 258.0 581.0 C 251.0 580.0 244.0 579.0 237.0 575.0 C 234.0 568.0 233.0 561.0 233.0 554.0 C 234.0 547.0 234.0 540.0 235.0 533.0 C 236.0 526.0 231.0 524.0 226.0 518.0 C 228.0 511.0 235.0 507.0 240.0 502.0 C 242.0 495.0 242.0 488.0 242.0 481.0 C 242.0 474.0 239.0 468.0 234.0 464.0 C 233.0 457.0 227.0 456.0 227.0 463.0 C 226.0 470.0 221.0 474.0 216.0 478.0 C 214.0 485.0 213.0 492.0 212.0 499.0 C 211.0 506.0 217.0 510.0 220.0 516.0 C 217.0 522.0 212.0 526.0 213.0 533.0 C 214.0 540.0 215.0 547.0 215.0 554.0 C 216.0 561.0 217.0 568.0 217.0 575.0 C 216.0 582.0 209.0 586.0 202.0 586.0 C 195.0 586.0 188.0 587.0 181.0 589.0 C 174.0 591.0 167.0 593.0 160.0 595.0 C 153.0 595.0 146.0 595.0 139.0 595.0 C 132.0 595.0 126.0 593.0 119.0 589.0 C 117.0 582.0 118.0 575.0 124.0 568.0 C 131.0 564.0 136.0 558.0 143.0 553.0 C 149.0 548.0 153.0 541.0 157.0 534.0 C 159.0 527.0 154.0 522.0 151.0 515.0 C 156.0 508.0 163.0 505.0 165.0 498.0 C 166.0 491.0 166.0 484.0 166.0 477.0 C 161.0 471.0 157.0 465.0 157.0 458.0 C 156.0 451.0 155.0 444.0 155.0 437.0 C 155.0 431.0 157.0 437.0 158.0 444.0 C 158.0 451.0 159.0 458.0 160.0 465.0 C 167.0 469.0 174.0 471.0 178.0 473.0 C 184.0 473.0 191.0 473.0 198.0 473.0 C 205.0 473.0 212.0 472.0 219.0 471.0 C 223.0 465.0 224.0 458.0 225.0 451.0 C 232.0 448.0 236.0 451.0 236.0 458.0 C 239.0 465.0 246.0 468.0 253.0 469.0 C 260.0 470.0 267.0 470.0 274.0 471.0 C 281.0 471.0 288.0 470.0 295.0 468.0 C 297.0 461.0 299.0 454.0 300.0 447.0 C 302.0 440.0 304.0 433.0 305.0 426.0 C 307.0 419.0 309.0 412.0 310.0 405.0 C 312.0 398.0 312.0 391.0 312.0 384.0 C 308.0 379.0 304.0 376.0 305.0 376.0" stroke-width="0.0" fill="rgb(241, 204, 92)" opacity="1.0" stroke="rgb(4, 230, 206)" stroke-opacity="0.8681624" stroke-linecap="round" stroke-linejoin="round"/>
    <path d="M 182.0 237.0 C 183.0 237.0 184.0 237.0 185.0 237.0 C 186.0 237.0 187.0 237.0 195.0 240.0 C 212.0 246.0 203.0 252.0 197.0 265.0 C 194.0 283.0 192.0 299.0 181.0 308.0 C 171.0 322.0 169.0 334.0 161.0 350.0 C 159.0 364.0 157.0 371.0 155.0 369.0 C 158.0 380.0 169.0 379.0 168.0 384.0 C 158.0 395.0 156.0 413.0 157.0 431.0 C 158.0 449.0 163.0 467.0 171.0 472.0 C 169.0 489.0 167.0 507.0 157.0 519.0 C 162.0 527.0 167.0 538.0 154.0 544.0 C 145.0 555.0 129.0 568.0 132.0 579.0 C 150.0 582.0 168.0 578.0 186.0 575.0 C 204.0 574.0 213.0 561.0 211.0 543.0 C 209.0 526.0 217.0 515.0 209.0 501.0 C 210.0 483.0 200.0 475.0 200.0 473.0 C 218.0 471.0 224.0 454.0 237.0 451.0 C 244.0 467.0 245.0 483.0 243.0 501.0 C 230.0 513.0 239.0 522.0 239.0 540.0 C 238.0 558.0 252.0 568.0 270.0 570.0 C 288.0 570.0 306.0 571.0 324.0 571.0 C 339.0 563.0 325.0 550.0 308.0 545.0 C 293.0 535.0 291.0 519.0 298.0 509.0 C 284.0 504.0 286.0 486.0 283.0 472.0 C 267.0 470.0 285.0 470.0 297.0 459.0 C 301.0 441.0 306.0 423.0 310.0 405.0 C 312.0 387.0 305.0 376.0 321.0 374.0 C 323.0 374.0 316.0 386.0 313.0 404.0 C 310.0 422.0 305.0 440.0 301.0 458.0 C 292.0 473.0 288.0 491.0 292.0 505.0 C 304.0 516.0 292.0 527.0 309.0 539.0 C 327.0 547.0 342.0 560.0 338.0 577.0 C 320.0 583.0 302.0 584.0 284.0 584.0 C 266.0 582.0 248.0 580.0 234.0 568.0 C 233.0 550.0 235.0 532.0 227.0 520.0 C 237.0 506.0 242.0 489.0 242.0 471.0 C 232.0 457.0 227.0 467.0 215.0 480.0 C 212.0 498.0 219.0 512.0 212.0 526.0 C 214.0 544.0 216.0 562.0 217.0 580.0 C 200.0 587.0 182.0 589.0 165.0 595.0 C 147.0 595.0 130.0 594.0 117.0 582.0 C 128.0 565.0 144.0 552.0 157.0 536.0 C 152.0 521.0 161.0 506.0 166.0 489.0 C 162.0 472.0 157.0 455.0 155.0 437.0 C 153.0 419.0 152.0 401.0 136.0 396.0 C 119.0 385.0 114.0 367.0 113.0 349.0 C 101.0 350.0 89.0 361.0 74.0 369.0 C 59.0 385.0 56.0 403.0 44.0 393.0 C 33.0 399.0 22.0 392.0 9.0 385.0 C 4.0 378.0 4.0 363.0 17.0 345.0 C 16.0 327.0 29.0 323.0 46.0 328.0 C 55.0 320.0 70.0 306.0 87.0 291.0 C 96.0 275.0 103.0 281.0 93.0 286.0 C 93.0 291.0 79.0 301.0 71.0 310.0 C 63.0 319.0 69.0 332.0 79.0 340.0 C 91.0 350.0 107.0 341.0 124.0 330.0 C 129.0 326.0 140.0 327.0 150.0 316.0 C 156.0 299.0 153.0 281.0 159.0 267.0 C 167.0 254.0 168.0 243.0 157.0 247.0 C 163.0 240.0 181.0 237.0 182.0 237.0" stroke-width="0.0" fill="rgb(160, 123, 170)" opacity="1.0" stroke="rgb(249, 241, 162)" stroke-opacity="0.85327744" stroke-linecap="round" stroke-linejoin="round"/>
    <path d="M 311.0 224.0 C 312.0 224.0 313.0 224.0 314.0 224.0 C 314.0 225.0 314.0 226.0 310.0 229.0 C 294.0 236.0 298.0 240.0 297.0 241.0 C 295.0 247.0 300.0 256.0 304.0 263.0 C 313.0 274.0 315.0 288.0 319.0 299.0 C 323.0 307.0 327.0 317.0 342.0 318.0 C 346.0 305.0 351.0 297.0 358.0 289.0 C 362.0 273.0 355.0 261.0 344.0 258.0 C 335.0 256.0 332.0 251.0 317.0 248.0 C 314.0 242.0 330.0 247.0 345.0 252.0 C 361.0 260.0 374.0 270.0 390.0 278.0 C 406.0 289.0 422.0 291.0 437.0 285.0 C 423.0 294.0 408.0 297.0 394.0 285.0 C 379.0 277.0 364.0 277.0 359.0 293.0 C 352.0 308.0 359.0 320.0 375.0 323.0 C 391.0 325.0 405.0 331.0 417.0 339.0 C 432.0 348.0 442.0 352.0 439.0 339.0 C 455.0 344.0 462.0 336.0 454.0 323.0 C 455.0 319.0 469.0 318.0 457.0 306.0 C 441.0 301.0 447.0 285.0 444.0 279.0 C 449.0 292.0 456.0 302.0 471.0 313.0 C 466.0 324.0 468.0 336.0 458.0 347.0 C 442.0 346.0 442.0 360.0 428.0 350.0 C 413.0 341.0 398.0 330.0 382.0 328.0 C 366.0 326.0 350.0 323.0 335.0 324.0 C 325.0 324.0 323.0 340.0 323.0 356.0 C 324.0 372.0 316.0 383.0 314.0 399.0 C 311.0 415.0 308.0 431.0 303.0 447.0 C 300.0 463.0 290.0 476.0 288.0 492.0 C 291.0 505.0 305.0 513.0 293.0 521.0 C 302.0 534.0 317.0 542.0 333.0 550.0 C 343.0 564.0 336.0 577.0 320.0 583.0 C 304.0 584.0 288.0 584.0 272.0 583.0 C 256.0 581.0 240.0 577.0 233.0 563.0 C 233.0 547.0 235.0 531.0 227.0 521.0 C 234.0 507.0 241.0 494.0 242.0 478.0 C 234.0 466.0 228.0 456.0 226.0 472.0 C 215.0 483.0 212.0 499.0 219.0 511.0 C 213.0 523.0 214.0 539.0 216.0 555.0 C 217.0 571.0 211.0 585.0 195.0 586.0 C 179.0 590.0 164.0 595.0 148.0 595.0 C 132.0 595.0 118.0 587.0 120.0 572.0 C 135.0 560.0 149.0 548.0 158.0 533.0 C 152.0 520.0 159.0 506.0 165.0 493.0 C 165.0 477.0 157.0 464.0 156.0 448.0 C 154.0 432.0 153.0 416.0 152.0 400.0 C 156.0 385.0 160.0 380.0 176.0 378.0 C 192.0 375.0 208.0 374.0 208.0 372.0 C 213.0 370.0 227.0 373.0 243.0 373.0 C 259.0 373.0 272.0 369.0 285.0 373.0 C 287.0 372.0 301.0 376.0 317.0 377.0 C 320.0 364.0 317.0 348.0 310.0 335.0 C 306.0 328.0 304.0 314.0 296.0 302.0 C 285.0 299.0 279.0 285.0 273.0 272.0 C 262.0 263.0 251.0 262.0 238.0 268.0 C 231.0 258.0 246.0 256.0 230.0 256.0 C 219.0 262.0 216.0 250.0 207.0 255.0 C 201.0 245.0 216.0 242.0 232.0 243.0 C 248.0 242.0 264.0 240.0 279.0 236.0 C 295.0 232.0 310.0 224.0 311.0 224.0" stroke-width="0.0" fill="rgb(203, 145, 173)" opacity="1.0" stroke="rgb(61, 47, 150)" stroke-opacity="0.49986264" stroke-linecap="round" stroke-linejoin="round"/>
    <path d="M 103.0 208.0 C 104.0 208.0 105.0 209.0 106.0 209.0 C 107.0 209.0 108.0 209.0 109.0 208.0 C 110.0 208.0 111.0 208.0 112.0 209.0 C 113.0 209.0 114.0 208.0 115.0 208.0 C 116.0 208.0 117.0 208.0 118.0 209.0 C 119.0 209.0 119.0 210.0 120.0 211.0 C 121.0 211.0 121.0 212.0 121.0 213.0 C 121.0 214.0 122.0 215.0 123.0 215.0 C 124.0 215.0 125.0 215.0 126.0 215.0 C 127.0 215.0 127.0 216.0 127.0 217.0 C 127.0 218.0 127.0 219.0 127.0 220.0 C 127.0 221.0 127.0 222.0 127.0 223.0 C 126.0 223.0 125.0 223.0 124.0 223.0 C 123.0 223.0 122.0 223.0 121.0 223.0 C 120.0 222.0 119.0 222.0 118.0 222.0 C 117.0 222.0 116.0 222.0 115.0 222.0 C 114.0 222.0 113.0 222.0 112.0 222.0 C 111.0 222.0 110.0 222.0 109.0 222.0 C 108.0 222.0 107.0 222.0 106.0 222.0 C 105.0 222.0 104.0 222.0 103.0 222.0 C 102.0 222.0 101.0 222.0 100.0 222.0 C 99.0 222.0 98.0 222.0 97.0 222.0 C 97.0 221.0 96.0 220.0 96.0 219.0 C 96.0 218.0 96.0 217.0 96.0 216.0 C 96.0 215.0 97.0 214.0 97.0 213.0 C 97.0 212.0 97.0 211.0 97.0 210.0 C 97.0 209.0 98.0 209.0 99.0 209.0 C 100.0 209.0 101.0 208.0 103.0 208.0" stroke-width="0.0" fill="rgb(1, 1, 1)" opacity="1.0" stroke="rgb(170, 115, 230)" stroke-opacity="0.4245683" stroke-linecap="round" stroke-linejoin="round"/>
    <path d="M 175.0 271.0 C 175.0 272.0 175.0 273.0 175.0 274.0 C 175.0 275.0 176.0 276.0 177.0 276.0 C 178.0 276.0 179.0 276.0 180.0 276.0 C 181.0 276.0 182.0 275.0 182.0 274.0 C 182.0 273.0 182.0 272.0 183.0 272.0 C 184.0 272.0 184.0 273.0 184.0 274.0 C 184.0 275.0 184.0 276.0 184.0 277.0 C 183.0 278.0 183.0 279.0 184.0 280.0 C 184.0 281.0 184.0 282.0 183.0 282.0 C 182.0 282.0 182.0 281.0 182.0 280.0 C 181.0 279.0 180.0 279.0 180.0 278.0 C 179.0 277.0 178.0 277.0 177.0 277.0 C 176.0 277.0 175.0 278.0 175.0 279.0 C 175.0 280.0 174.0 281.0 174.0 282.0 C 174.0 283.0 174.0 284.0 174.0 285.0 C 174.0 286.0 174.0 287.0 173.0 287.0 C 172.0 287.0 171.0 287.0 170.0 287.0 C 169.0 288.0 168.0 288.0 167.0 288.0 C 167.0 287.0 167.0 286.0 168.0 285.0 C 168.0 284.0 167.0 283.0 167.0 282.0 C 167.0 281.0 168.0 280.0 168.0 279.0 C 168.0 278.0 168.0 277.0 168.0 276.0 C 168.0 275.0 168.0 274.0 168.0 273.0 C 168.0 272.0 169.0 272.0 170.0 272.0 C 171.0 272.0 172.0 272.0 173.0 272.0 C 174.0 271.0 174.0 270.0 175.0 271.0" stroke-width="0.0" fill="rgb(172, 159, 202)" opacity="1.0" stroke="rgb(172, 4, 22)" stroke-opacity="0.23408283" stroke-linecap="round" stroke-linejoin="round"/>
    <path d="M 204.0 126.0 C 205.0 126.0 205.0 127.0 205.0 128.0 C 206.0 129.0 207.0 129.0 208.0 128.0 C 209.0 128.0 210.0 128.0 211.0 128.0 C 212.0 128.0 213.0 128.0 214.0 128.0 C 215.0 128.0 216.0 127.0 216.0 128.0 C 216.0 129.0 215.0 130.0 215.0 131.0 C 215.0 132.0 216.0 133.0 216.0 134.0 C 216.0 135.0 217.0 136.0 218.0 136.0 C 219.0 136.0 220.0 135.0 221.0 135.0 C 222.0 135.0 223.0 136.0 224.0 136.0 C 225.0 136.0 226.0 136.0 226.0 137.0 C 226.0 138.0 225.0 138.0 224.0 139.0 C 224.0 140.0 225.0 141.0 226.0 141.0 C 227.0 141.0 227.0 142.0 227.0 143.0 C 227.0 144.0 227.0 145.0 227.0 146.0 C 227.0 147.0 226.0 147.0 225.0 147.0 C 224.0 148.0 224.0 149.0 223.0 150.0 C 223.0 151.0 222.0 151.0 221.0 151.0 C 220.0 151.0 219.0 151.0 218.0 151.0 C 217.0 151.0 216.0 151.0 216.0 150.0 C 216.0 149.0 215.0 148.0 215.0 147.0 C 215.0 146.0 215.0 145.0 216.0 144.0 C 215.0 143.0 215.0 142.0 215.0 141.0 C 215.0 140.0 215.0 139.0 215.0 138.0 C 215.0 137.0 214.0 136.0 213.0 136.0 C 212.0 136.0 211.0 135.0 210.0 136.0 C 210.0 137.0 209.0 137.0 208.0 137.0 C 208.0 136.0 208.0 135.0 208.0 134.0 C 208.0 133.0 207.0 132.0 206.0 132.0 C 205.0 133.0 205.0 134.0 205.0 135.0 C 204.0 135.0 203.0 135.0 202.0 134.0 C 201.0 134.0 201.0 133.0 201.0 132.0 C 200.0 131.0 200.0 130.0 201.0 130.0 C 202.0 130.0 203.0 129.0 203.0 128.0 C 203.0 127.0 203.0 126.0 204.0 126.0" stroke-width="0.0" fill="rgb(139, 72, 27)" opacity="1.0" stroke="rgb(118, 91, 154)" stroke-opacity="0.8348958" stroke-linecap="round" stroke-linejoin="round"/>
    <path d="M 203.0 152.0 C 204.0 152.0 205.0 152.0 206.0 152.0 C 207.0 152.0 208.0 152.0 209.0 152.0 C 210.0 152.0 211.0 152.0 212.0 152.0 C 213.0 152.0 214.0 152.0 215.0 152.0 C 215.0 153.0 215.0 154.0 216.0 155.0 C 217.0 155.0 217.0 156.0 217.0 157.0 C 217.0 158.0 216.0 158.0 215.0 159.0 C 215.0 160.0 214.0 160.0 213.0 160.0 C 212.0 161.0 211.0 161.0 210.0 162.0 C 210.0 163.0 210.0 164.0 210.0 163.0 C 210.0 162.0 209.0 161.0 208.0 161.0 C 207.0 162.0 206.0 162.0 205.0 162.0 C 204.0 162.0 203.0 162.0 203.0 161.0 C 202.0 160.0 201.0 160.0 200.0 160.0 C 199.0 161.0 199.0 162.0 198.0 162.0 C 197.0 162.0 197.0 161.0 197.0 160.0 C 197.0 159.0 198.0 159.0 199.0 159.0 C 200.0 158.0 200.0 157.0 199.0 156.0 C 199.0 155.0 199.0 154.0 199.0 153.0 C 200.0 152.0 201.0 151.0 203.0 152.0" stroke-width="0.0" fill="rgb(149, 69, 23)" opacity="1.0" stroke="rgb(130, 27, 176)" stroke-opacity="0.3509656" stroke-linecap="round" stroke-linejoin="round"/>
    <path d="M 297.0 111.0 C 298.0 112.0 299.0 112.0 300.0 112.0 C 301.0 112.0 302.0 112.0 303.0 112.0 C 303.0 113.0 303.0 114.0 303.0 115.0 C 303.0 116.0 303.0 117.0 303.0 118.0 C 303.0 119.0 302.0 119.0 301.0 120.0 C 301.0 121.0 301.0 122.0 300.0 123.0 C 301.0 124.0 301.0 125.0 302.0 126.0 C 303.0 127.0 304.0 128.0 303.0 129.0 C 304.0 130.0 305.0 130.0 306.0 131.0 C 307.0 130.0 308.0 130.0 309.0 130.0 C 310.0 130.0 310.0 131.0 311.0 132.0 C 312.0 132.0 313.0 132.0 313.0 133.0 C 313.0 134.0 312.0 134.0 311.0 135.0 C 311.0 136.0 311.0 137.0 311.0 138.0 C 311.0 139.0 311.0 140.0 310.0 140.0 C 309.0 140.0 308.0 140.0 307.0 140.0 C 307.0 139.0 306.0 138.0 305.0 138.0 C 304.0 138.0 303.0 138.0 303.0 137.0 C 302.0 136.0 301.0 136.0 300.0 136.0 C 299.0 135.0 299.0 134.0 299.0 133.0 C 298.0 132.0 297.0 133.0 297.0 134.0 C 296.0 134.0 295.0 134.0 295.0 133.0 C 294.0 132.0 294.0 131.0 294.0 130.0 C 295.0 130.0 296.0 129.0 296.0 128.0 C 296.0 127.0 296.0 126.0 296.0 125.0 C 297.0 125.0 298.0 124.0 298.0 123.0 C 298.0 122.0 298.0 121.0 299.0 121.0 C 300.0 120.0 299.0 119.0 298.0 119.0 C 297.0 119.0 296.0 119.0 296.0 118.0 C 295.0 117.0 295.0 116.0 294.0 115.0 C 293.0 115.0 293.0 114.0 294.0 113.0 C 294.0 112.0 295.0 111.0 297.0 111.0" stroke-width="0.0" fill="rgb(146, 70, 23)" opacity="1.0" stroke="rgb(75, 215, 62)" stroke-opacity="0.18339153" stroke-linecap="round" stroke-linejoin="round"/>
    <path d="M 315.0 108.0 C 316.0 108.0 317.0 108.0 317.0 109.0 C 318.0 110.0 319.0 110.0 320.0 110.0 C 321.0 110.0 322.0 110.0 322.0 111.0 C 323.0 112.0 324.0 111.0 325.0 111.0 C 326.0 111.0 326.0 112.0 326.0 113.0 C 327.0 114.0 328.0 114.0 328.0 115.0 C 328.0 116.0 329.0 117.0 329.0 118.0 C 329.0 119.0 329.0 120.0 329.0 121.0 C 329.0 122.0 329.0 123.0 329.0 124.0 C 329.0 125.0 329.0 126.0 329.0 127.0 C 329.0 128.0 328.0 129.0 328.0 130.0 C 327.0 130.0 326.0 130.0 325.0 129.0 C 324.0 129.0 323.0 130.0 323.0 131.0 C 324.0 132.0 324.0 133.0 324.0 134.0 C 325.0 135.0 326.0 135.0 325.0 135.0 C 324.0 135.0 323.0 136.0 322.0 136.0 C 321.0 136.0 320.0 136.0 319.0 137.0 C 318.0 137.0 317.0 138.0 316.0 138.0 C 315.0 138.0 314.0 138.0 313.0 138.0 C 313.0 137.0 313.0 136.0 313.0 135.0 C 314.0 134.0 315.0 134.0 316.0 133.0 C 315.0 132.0 314.0 132.0 314.0 131.0 C 314.0 130.0 315.0 130.0 316.0 130.0 C 316.0 131.0 317.0 132.0 318.0 132.0 C 319.0 132.0 320.0 132.0 321.0 131.0 C 321.0 130.0 322.0 130.0 323.0 129.0 C 323.0 128.0 322.0 127.0 321.0 128.0 C 320.0 128.0 319.0 128.0 319.0 127.0 C 318.0 126.0 318.0 125.0 318.0 124.0 C 319.0 123.0 319.0 122.0 319.0 121.0 C 320.0 120.0 320.0 119.0 319.0 118.0 C 319.0 117.0 319.0 116.0 320.0 115.0 C 319.0 114.0 318.0 114.0 318.0 113.0 C 317.0 112.0 316.0 112.0 315.0 111.0 C 314.0 112.0 313.0 112.0 312.0 112.0 C 311.0 112.0 311.0 111.0 311.0 110.0 C 312.0 109.0 312.0 108.0 315.0 108.0" stroke-width="0.0" fill="rgb(145, 70, 23)" opacity="1.0" stroke="rgb(94, 238, 83)" stroke-opacity="0.63148177" stroke-linecap="round" stroke-linejoin="round"/>
    <path d="M 205.0 137.0 C 206.0 137.0 206.0 138.0 206.0 139.0 C 205.0 140.0 205.0 141.0 206.0 142.0 C 207.0 143.0 208.0 144.0 209.0 144.0 C 210.0 144.0 211.0 144.0 212.0 144.0 C 212.0 145.0 212.0 146.0 212.0 147.0 C 212.0 148.0 211.0 149.0 210.0 150.0 C 209.0 150.0 208.0 150.0 207.0 151.0 C 206.0 151.0 205.0 151.0 204.0 151.0 C 203.0 151.0 202.0 150.0 201.0 150.0 C 200.0 149.0 200.0 148.0 199.0 147.0 C 199.0 146.0 199.0 145.0 199.0 144.0 C 199.0 143.0 199.0 142.0 200.0 141.0 C 200.0 140.0 201.0 139.0 202.0 138.0 C 203.0 138.0 204.0 137.0 205.0 137.0" stroke-width="0.0" fill="rgb(3, 2, 4)" opacity="1.0" stroke="rgb(214, 188, 186)" stroke-opacity="0.734049" stroke-linecap="round" stroke-linejoin="round"/>
    <path d="M 244.0 509.0 C 245.0 509.0 246.0 509.0 246.0 510.0 C 246.0 511.0 245.0 512.0 244.0 513.0 C 245.0 514.0 246.0 514.0 247.0 514.0 C 248.0 514.0 249.0 513.0 250.0 513.0 C 251.0 513.0 252.0 513.0 253.0 513.0 C 254.0 513.0 255.0 513.0 256.0 513.0 C 257.0 513.0 258.0 513.0 259.0 513.0 C 260.0 514.0 261.0 514.0 262.0 515.0 C 263.0 515.0 264.0 515.0 265.0 515.0 C 266.0 515.0 267.0 515.0 268.0 515.0 C 269.0 515.0 270.0 515.0 271.0 515.0 C 272.0 514.0 273.0 514.0 274.0 514.0 C 275.0 514.0 276.0 514.0 277.0 514.0 C 278.0 514.0 279.0 513.0 280.0 513.0 C 281.0 513.0 282.0 513.0 283.0 513.0 C 284.0 513.0 285.0 512.0 285.0 511.0 C 285.0 510.0 286.0 510.0 287.0 510.0 C 288.0 510.0 289.0 510.0 290.0 510.0 C 291.0 510.0 292.0 510.0 293.0 510.0 C 294.0 510.0 295.0 510.0 296.0 511.0 C 297.0 511.0 297.0 512.0 297.0 513.0 C 296.0 513.0 295.0 513.0 294.0 513.0 C 293.0 513.0 292.0 512.0 291.0 512.0 C 290.0 513.0 290.0 514.0 290.0 515.0 C 290.0 516.0 290.0 517.0 289.0 518.0 C 288.0 518.0 287.0 518.0 286.0 518.0 C 285.0 518.0 284.0 518.0 283.0 517.0 C 282.0 517.0 281.0 517.0 280.0 517.0 C 279.0 518.0 278.0 518.0 277.0 518.0 C 276.0 518.0 275.0 518.0 274.0 518.0 C 273.0 517.0 272.0 518.0 271.0 519.0 C 270.0 520.0 269.0 520.0 268.0 520.0 C 267.0 520.0 266.0 520.0 265.0 519.0 C 264.0 519.0 263.0 519.0 262.0 519.0 C 261.0 518.0 260.0 518.0 259.0 518.0 C 258.0 518.0 257.0 518.0 256.0 518.0 C 255.0 517.0 254.0 517.0 253.0 518.0 C 252.0 519.0 252.0 520.0 252.0 521.0 C 253.0 522.0 254.0 522.0 254.0 523.0 C 254.0 524.0 253.0 524.0 252.0 524.0 C 251.0 524.0 250.0 524.0 249.0 524.0 C 248.0 523.0 247.0 524.0 246.0 524.0 C 245.0 524.0 245.0 523.0 245.0 522.0 C 246.0 522.0 247.0 522.0 248.0 521.0 C 248.0 520.0 248.0 519.0 247.0 518.0 C 246.0 517.0 245.0 518.0 244.0 518.0 C 243.0 518.0 242.0 518.0 242.0 517.0 C 241.0 516.0 240.0 517.0 239.0 517.0 C 238.0 517.0 237.0 517.0 236.0 517.0 C 235.0 517.0 234.0 517.0 233.0 517.0 C 232.0 517.0 232.0 516.0 232.0 515.0 C 232.0 514.0 233.0 513.0 234.0 513.0 C 235.0 513.0 236.0 512.0 237.0 511.0 C 238.0 510.0 239.0 510.0 240.0 510.0 C 241.0 510.0 242.0 509.0 244.0 509.0" stroke-width="0.0" fill="rgb(246, 229, 42)" opacity="1.0" stroke="rgb(179, 244, 72)" stroke-opacity="0.7055568" stroke-linecap="round" stroke-linejoin="round"/>
    <path d="M 203.0 512.0 C 204.0 513.0 205.0 513.0 206.0 514.0 C 207.0 513.0 208.0 513.0 209.0 513.0 C 210.0 513.0 211.0 514.0 212.0 514.0 C 213.0 514.0 214.0 514.0 215.0 515.0 C 215.0 516.0 215.0 517.0 215.0 518.0 C 214.0 518.0 213.0 518.0 212.0 518.0 C 211.0 517.0 210.0 517.0 209.0 517.0 C 208.0 517.0 207.0 517.0 206.0 516.0 C 205.0 516.0 204.0 515.0 203.0 515.0 C 202.0 515.0 201.0 516.0 201.0 517.0 C 200.0 517.0 199.0 517.0 198.0 517.0 C 197.0 517.0 196.0 518.0 195.0 519.0 C 195.0 520.0 195.0 521.0 194.0 522.0 C 193.0 523.0 192.0 523.0 191.0 524.0 C 190.0 524.0 189.0 524.0 188.0 524.0 C 187.0 525.0 187.0 526.0 187.0 527.0 C 188.0 528.0 189.0 528.0 190.0 528.0 C 191.0 529.0 192.0 529.0 193.0 529.0 C 194.0 529.0 195.0 528.0 196.0 527.0 C 197.0 527.0 198.0 527.0 199.0 526.0 C 200.0 525.0 200.0 524.0 200.0 523.0 C 200.0 522.0 200.0 521.0 201.0 521.0 C 202.0 521.0 203.0 521.0 204.0 521.0 C 205.0 521.0 206.0 521.0 206.0 522.0 C 206.0 523.0 206.0 524.0 206.0 525.0 C 206.0 526.0 205.0 526.0 204.0 526.0 C 203.0 526.0 202.0 525.0 201.0 526.0 C 201.0 527.0 201.0 528.0 201.0 529.0 C 200.0 529.0 199.0 530.0 198.0 530.0 C 197.0 531.0 196.0 531.0 195.0 531.0 C 194.0 531.0 193.0 531.0 192.0 531.0 C 191.0 532.0 190.0 532.0 189.0 532.0 C 188.0 532.0 187.0 532.0 186.0 532.0 C 185.0 532.0 184.0 532.0 183.0 532.0 C 182.0 532.0 181.0 532.0 180.0 532.0 C 179.0 531.0 178.0 531.0 177.0 531.0 C 176.0 531.0 176.0 530.0 175.0 529.0 C 174.0 529.0 173.0 529.0 173.0 528.0 C 173.0 527.0 173.0 526.0 174.0 525.0 C 174.0 524.0 174.0 523.0 174.0 522.0 C 175.0 522.0 176.0 522.0 176.0 523.0 C 177.0 524.0 178.0 523.0 178.0 522.0 C 179.0 522.0 180.0 522.0 181.0 523.0 C 182.0 523.0 183.0 522.0 184.0 522.0 C 185.0 522.0 186.0 521.0 187.0 521.0 C 188.0 521.0 189.0 520.0 188.0 519.0 C 188.0 518.0 187.0 517.0 187.0 516.0 C 187.0 515.0 188.0 515.0 189.0 515.0 C 190.0 515.0 191.0 515.0 192.0 515.0 C 193.0 515.0 194.0 515.0 195.0 515.0 C 196.0 515.0 197.0 515.0 198.0 514.0 C 199.0 514.0 200.0 514.0 201.0 513.0 C 201.0 512.0 201.0 511.0 203.0 512.0" stroke-width="0.0" fill="rgb(251, 252, 74)" opacity="1.0" stroke="rgb(156, 118, 134)" stroke-opacity="0.73262334" stroke-linecap="round" stroke-linejoin="round"/>
    <path d="M 180.0 257.0 C 181.0 257.0 182.0 257.0 183.0 257.0 C 184.0 257.0 185.0 257.0 186.0 257.0 C 187.0 257.0 188.0 257.0 189.0 257.0 C 190.0 257.0 190.0 258.0 190.0 259.0 C 190.0 260.0 191.0 261.0 191.0 262.0 C 191.0 263.0 192.0 264.0 192.0 265.0 C 192.0 266.0 191.0 267.0 191.0 268.0 C 191.0 269.0 191.0 270.0 190.0 270.0 C 189.0 270.0 188.0 270.0 187.0 270.0 C 186.0 270.0 185.0 270.0 184.0 270.0 C 183.0 270.0 182.0 270.0 181.0 270.0 C 180.0 270.0 179.0 270.0 178.0 270.0 C 177.0 270.0 177.0 269.0 177.0 268.0 C 177.0 267.0 177.0 266.0 177.0 265.0 C 177.0 264.0 177.0 263.0 177.0 262.0 C 177.0 261.0 177.0 260.0 177.0 259.0 C 177.0 258.0 177.0 257.0 180.0 257.0" stroke-width="0.0" fill="rgb(169, 161, 202)" opacity="1.0" stroke="rgb(60, 11, 171)" stroke-opacity="0.42803046" stroke-linecap="round" stroke-linejoin="round"/>
    <path d="M 308.0 117.0 C 308.0 118.0 308.0 119.0 308.0 120.0 C 309.0 121.0 310.0 122.0 311.0 122.0 C 312.0 122.0 313.0 122.0 314.0 122.0 C 315.0 122.0 316.0 122.0 316.0 123.0 C 316.0 124.0 315.0 125.0 315.0 126.0 C 314.0 127.0 313.0 127.0 312.0 128.0 C 311.0 128.0 310.0 128.0 309.0 128.0 C 308.0 128.0 307.0 128.0 306.0 128.0 C 305.0 127.0 304.0 126.0 303.0 125.0 C 303.0 124.0 303.0 123.0 303.0 122.0 C 303.0 121.0 303.0 120.0 304.0 119.0 C 305.0 118.0 306.0 117.0 308.0 117.0" stroke-width="0.0" fill="rgb(11, 0, 4)" opacity="1.0" stroke="rgb(25, 175, 38)" stroke-opacity="0.93031204" stroke-linecap="round" stroke-linejoin="round"/>
    <path d="M 223.0 378.0 C 224.0 378.0 225.0 378.0 226.0 378.0 C 227.0 378.0 228.0 378.0 229.0 378.0 C 230.0 378.0 231.0 378.0 232.0 378.0 C 233.0 378.0 234.0 378.0 235.0 378.0 C 236.0 378.0 237.0 378.0 238.0 378.0 C 239.0 378.0 240.0 378.0 241.0 378.0 C 242.0 378.0 243.0 378.0 244.0 378.0 C 245.0 378.0 246.0 378.0 247.0 378.0 C 248.0 378.0 249.0 378.0 250.0 378.0 C 251.0 378.0 252.0 378.0 253.0 378.0 C 254.0 378.0 255.0 378.0 256.0 378.0 C 257.0 378.0 258.0 378.0 259.0 378.0 C 260.0 378.0 261.0 378.0 262.0 378.0 C 263.0 378.0 264.0 378.0 265.0 378.0 C 266.0 378.0 267.0 378.0 268.0 378.0 C 269.0 378.0 270.0 378.0 271.0 378.0 C 272.0 378.0 273.0 378.0 274.0 378.0 C 275.0 378.0 276.0 378.0 277.0 378.0 C 278.0 379.0 279.0 379.0 280.0 379.0 C 281.0 379.0 282.0 379.0 283.0 379.0 C 284.0 379.0 285.0 379.0 286.0 379.0 C 287.0 379.0 288.0 379.0 289.0 379.0 C 290.0 379.0 291.0 379.0 290.0 379.0 C 289.0 379.0 288.0 379.0 287.0 380.0 C 286.0 380.0 285.0 380.0 284.0 380.0 C 283.0 380.0 282.0 381.0 281.0 382.0 C 280.0 382.0 279.0 382.0 278.0 382.0 C 277.0 382.0 276.0 383.0 275.0 383.0 C 274.0 383.0 273.0 383.0 272.0 383.0 C 271.0 384.0 271.0 385.0 271.0 386.0 C 270.0 386.0 270.0 385.0 269.0 384.0 C 268.0 384.0 267.0 384.0 266.0 384.0 C 265.0 384.0 264.0 384.0 263.0 384.0 C 262.0 385.0 262.0 386.0 262.0 387.0 C 261.0 387.0 260.0 387.0 260.0 386.0 C 259.0 385.0 258.0 385.0 257.0 385.0 C 256.0 385.0 255.0 385.0 254.0 386.0 C 253.0 386.0 252.0 386.0 251.0 386.0 C 250.0 386.0 249.0 386.0 248.0 386.0 C 247.0 387.0 247.0 388.0 246.0 388.0 C 245.0 388.0 244.0 388.0 243.0 388.0 C 242.0 388.0 241.0 388.0 240.0 388.0 C 239.0 388.0 238.0 388.0 237.0 388.0 C 236.0 388.0 235.0 388.0 234.0 388.0 C 233.0 388.0 232.0 388.0 231.0 388.0 C 231.0 387.0 231.0 386.0 230.0 385.0 C 229.0 385.0 228.0 385.0 227.0 385.0 C 226.0 385.0 225.0 385.0 224.0 385.0 C 223.0 386.0 223.0 387.0 222.0 387.0 C 221.0 387.0 220.0 387.0 220.0 386.0 C 220.0 385.0 219.0 384.0 218.0 384.0 C 217.0 384.0 216.0 384.0 215.0 385.0 C 215.0 386.0 214.0 386.0 213.0 386.0 C 211.0 386.0 209.0 386.0 207.0 385.0 C 205.0 384.0 203.0 384.0 201.0 384.0 C 200.0 382.0 200.0 380.0 200.0 379.0 C 202.0 379.0 204.0 379.0 206.0 379.0 C 208.0 380.0 210.0 380.0 212.0 379.0 C 214.0 379.0 216.0 379.0 218.0 379.0 C 220.0 379.0 222.0 378.0 223.0 378.0" stroke-width="0.0" fill="rgb(248, 191, 100)" opacity="1.0" stroke="rgb(108, 48, 142)" stroke-opacity="0.41850087" stroke-linecap="round" stroke-linejoin="round"/>
    <path d="M 195.0 132.0 C 196.0 133.0 197.0 133.0 198.0 134.0 C 199.0 134.0 200.0 134.0 200.0 135.0 C 200.0 136.0 200.0 137.0 200.0 138.0 C 200.0 139.0 199.0 140.0 199.0 141.0 C 198.0 142.0 198.0 143.0 198.0 144.0 C 198.0 145.0 198.0 146.0 198.0 147.0 C 199.0 148.0 199.0 149.0 199.0 150.0 C 199.0 151.0 199.0 152.0 198.0 153.0 C 198.0 154.0 198.0 155.0 198.0 156.0 C 198.0 157.0 198.0 158.0 197.0 158.0 C 196.0 159.0 196.0 160.0 195.0 160.0 C 194.0 160.0 193.0 159.0 192.0 158.0 C 191.0 157.0 192.0 157.0 193.0 156.0 C 193.0 155.0 193.0 154.0 193.0 153.0 C 192.0 152.0 191.0 153.0 190.0 153.0 C 189.0 154.0 189.0 153.0 188.0 152.0 C 188.0 151.0 188.0 150.0 187.0 149.0 C 187.0 148.0 187.0 147.0 188.0 147.0 C 189.0 147.0 190.0 146.0 189.0 145.0 C 188.0 145.0 187.0 145.0 187.0 144.0 C 187.0 143.0 187.0 144.0 188.0 145.0 C 189.0 145.0 190.0 145.0 191.0 144.0 C 191.0 143.0 191.0 142.0 191.0 141.0 C 191.0 140.0 190.0 139.0 191.0 138.0 C 192.0 137.0 192.0 136.0 192.0 135.0 C 191.0 134.0 190.0 134.0 191.0 133.0 C 192.0 132.0 193.0 131.0 195.0 132.0" stroke-width="0.0" fill="rgb(148, 75, 32)" opacity="1.0" stroke="rgb(55, 203, 107)" stroke-opacity="0.84985286" stroke-linecap="round" stroke-linejoin="round"/>
    <path d="M 245.0 204.0 C 246.0 204.0 247.0 204.0 247.0 205.0 C 247.0 206.0 248.0 207.0 249.0 207.0 C 250.0 207.0 251.0 207.0 252.0 207.0 C 253.0 207.0 254.0 207.0 255.0 207.0 C 256.0 207.0 256.0 208.0 256.0 209.0 C 256.0 210.0 257.0 211.0 257.0 212.0 C 257.0 213.0 257.0 214.0 257.0 215.0 C 256.0 216.0 256.0 217.0 256.0 218.0 C 255.0 218.0 254.0 218.0 254.0 217.0 C 254.0 216.0 253.0 215.0 252.0 215.0 C 251.0 216.0 251.0 217.0 250.0 217.0 C 249.0 218.0 249.0 219.0 249.0 220.0 C 250.0 221.0 250.0 222.0 250.0 223.0 C 250.0 224.0 250.0 225.0 250.0 226.0 C 250.0 227.0 249.0 227.0 248.0 227.0 C 247.0 226.0 246.0 226.0 245.0 226.0 C 244.0 226.0 243.0 225.0 242.0 225.0 C 241.0 224.0 240.0 224.0 239.0 223.0 C 238.0 223.0 237.0 222.0 236.0 221.0 C 235.0 220.0 234.0 219.0 234.0 218.0 C 234.0 217.0 233.0 216.0 232.0 216.0 C 231.0 216.0 230.0 215.0 230.0 214.0 C 230.0 213.0 230.0 212.0 231.0 211.0 C 232.0 211.0 233.0 210.0 233.0 209.0 C 232.0 208.0 232.0 207.0 232.0 206.0 C 233.0 206.0 234.0 206.0 234.0 207.0 C 234.0 208.0 235.0 209.0 236.0 209.0 C 237.0 209.0 238.0 209.0 237.0 209.0 C 236.0 209.0 235.0 209.0 234.0 210.0 C 234.0 211.0 234.0 212.0 235.0 213.0 C 236.0 213.0 237.0 213.0 238.0 213.0 C 239.0 213.0 240.0 213.0 241.0 212.0 C 241.0 211.0 241.0 210.0 242.0 211.0 C 243.0 211.0 244.0 212.0 245.0 211.0 C 245.0 210.0 245.0 209.0 245.0 208.0 C 244.0 207.0 243.0 207.0 242.0 206.0 C 242.0 205.0 242.0 204.0 245.0 204.0" stroke-width="0.0" fill="rgb(199, 38, 7)" opacity="1.0" stroke="rgb(179, 173, 179)" stroke-opacity="0.57993734" stroke-linecap="round" stroke-linejoin="round"/>
    <path d="M 231.0 448.0 C 232.0 448.0 233.0 448.0 234.0 448.0 C 235.0 448.0 236.0 448.0 237.0 448.0 C 237.0 449.0 237.0 450.0 236.0 450.0 C 235.0 451.0 235.0 452.0 236.0 453.0 C 236.0 454.0 236.0 455.0 236.0 456.0 C 236.0 457.0 236.0 458.0 237.0 459.0 C 237.0 460.0 237.0 461.0 238.0 462.0 C 238.0 463.0 238.0 464.0 239.0 465.0 C 240.0 465.0 241.0 465.0 242.0 466.0 C 243.0 467.0 244.0 467.0 245.0 467.0 C 246.0 467.0 246.0 468.0 246.0 469.0 C 246.0 470.0 246.0 471.0 246.0 472.0 C 246.0 473.0 246.0 474.0 245.0 473.0 C 244.0 473.0 243.0 473.0 243.0 472.0 C 243.0 471.0 243.0 470.0 242.0 469.0 C 241.0 468.0 240.0 468.0 239.0 467.0 C 238.0 467.0 237.0 467.0 236.0 467.0 C 235.0 466.0 235.0 465.0 234.0 464.0 C 234.0 463.0 234.0 462.0 234.0 461.0 C 233.0 460.0 233.0 459.0 233.0 458.0 C 233.0 457.0 233.0 456.0 233.0 455.0 C 232.0 454.0 231.0 453.0 230.0 453.0 C 229.0 454.0 228.0 454.0 227.0 455.0 C 227.0 456.0 227.0 457.0 227.0 458.0 C 227.0 457.0 226.0 456.0 225.0 456.0 C 224.0 456.0 224.0 455.0 224.0 454.0 C 224.0 453.0 224.0 452.0 225.0 451.0 C 226.0 450.0 227.0 449.0 228.0 449.0 C 229.0 449.0 230.0 448.0 231.0 448.0" stroke-width="0.0" fill="rgb(99, 38, 17)" opacity="1.0" stroke="rgb(106, 52, 129)" stroke-opacity="0.86705476" stroke-linecap="round" stroke-linejoin="round"/>
    <path d="M 113.0 290.0 C 114.0 291.0 115.0 292.0 116.0 292.0 C 117.0 292.0 117.0 293.0 117.0 294.0 C 117.0 295.0 117.0 296.0 116.0 296.0 C 115.0 296.0 114.0 297.0 113.0 297.0 C 112.0 297.0 112.0 296.0 111.0 295.0 C 110.0 294.0 109.0 293.0 109.0 292.0 C 109.0 291.0 110.0 290.0 113.0 290.0" stroke-width="0.0" fill="rgb(254, 110, 178)" opacity="1.0" stroke="rgb(108, 25, 231)" stroke-opacity="0.66054714" stroke-linecap="round" stroke-linejoin="round"/>
    <path d="M 276.0 244.0 C 276.0 245.0 277.0 246.0 278.0 246.0 C 279.0 246.0 280.0 246.0 281.0 247.0 C 282.0 247.0 283.0 248.0 283.0 249.0 C 284.0 250.0 285.0 250.0 286.0 251.0 C 287.0 251.0 287.0 252.0 288.0 253.0 C 289.0 253.0 290.0 254.0 291.0 255.0 C 292.0 256.0 292.0 257.0 292.0 258.0 C 293.0 259.0 294.0 260.0 295.0 261.0 C 296.0 262.0 297.0 263.0 298.0 264.0 C 299.0 265.0 300.0 266.0 300.0 267.0 C 301.0 268.0 302.0 269.0 302.0 270.0 C 303.0 271.0 304.0 271.0 305.0 271.0 C 306.0 271.0 307.0 271.0 308.0 270.0 C 308.0 269.0 309.0 270.0 309.0 271.0 C 310.0 272.0 311.0 273.0 311.0 274.0 C 312.0 275.0 312.0 276.0 313.0 277.0 C 314.0 278.0 315.0 278.0 316.0 278.0 C 317.0 279.0 316.0 279.0 315.0 280.0 C 315.0 281.0 315.0 282.0 316.0 283.0 C 316.0 284.0 316.0 285.0 315.0 286.0 C 314.0 286.0 313.0 286.0 312.0 286.0 C 312.0 285.0 312.0 284.0 311.0 283.0 C 311.0 282.0 311.0 281.0 311.0 280.0 C 311.0 279.0 311.0 278.0 310.0 277.0 C 309.0 276.0 308.0 276.0 307.0 276.0 C 306.0 277.0 306.0 278.0 306.0 279.0 C 305.0 279.0 304.0 280.0 304.0 281.0 C 304.0 282.0 303.0 283.0 302.0 283.0 C 301.0 283.0 300.0 283.0 299.0 283.0 C 298.0 284.0 297.0 284.0 296.0 284.0 C 295.0 285.0 294.0 286.0 294.0 287.0 C 294.0 288.0 294.0 289.0 294.0 290.0 C 293.0 291.0 293.0 292.0 293.0 293.0 C 292.0 294.0 292.0 295.0 291.0 295.0 C 290.0 295.0 289.0 295.0 288.0 295.0 C 287.0 296.0 287.0 297.0 287.0 298.0 C 287.0 299.0 286.0 299.0 285.0 299.0 C 284.0 299.0 284.0 298.0 284.0 297.0 C 285.0 296.0 286.0 296.0 287.0 295.0 C 288.0 295.0 289.0 294.0 289.0 293.0 C 289.0 292.0 288.0 291.0 287.0 290.0 C 286.0 290.0 285.0 290.0 286.0 289.0 C 287.0 288.0 286.0 287.0 286.0 286.0 C 286.0 285.0 286.0 284.0 286.0 283.0 C 286.0 282.0 286.0 281.0 285.0 280.0 C 284.0 280.0 283.0 280.0 282.0 281.0 C 281.0 281.0 280.0 282.0 280.0 281.0 C 280.0 280.0 279.0 279.0 279.0 278.0 C 279.0 277.0 278.0 276.0 278.0 275.0 C 277.0 274.0 276.0 274.0 275.0 274.0 C 275.0 273.0 275.0 272.0 276.0 270.0 C 275.0 268.0 276.0 267.0 278.0 267.0 C 280.0 267.0 281.0 265.0 281.0 263.0 C 281.0 261.0 279.0 260.0 277.0 260.0 C 276.0 262.0 276.0 264.0 275.0 265.0 C 273.0 265.0 272.0 263.0 271.0 261.0 C 269.0 259.0 269.0 257.0 270.0 255.0 C 269.0 253.0 269.0 251.0 270.0 249.0 C 270.0 247.0 270.0 245.0 272.0 244.0 C 274.0 244.0 276.0 243.0 276.0 244.0" stroke-width="0.0" fill="rgb(170, 158, 199)" opacity="1.0" stroke="rgb(165, 53, 243)" stroke-opacity="0.3132856" stroke-linecap="round" stroke-linejoin="round"/>
    <path d="M 171.0 267.0 C 171.0 268.0 171.0 269.0 172.0 270.0 C 173.0 270.0 173.0 271.0 172.0 271.0 C 171.0 271.0 170.0 271.0 169.0 271.0 C 168.0 271.0 167.0 272.0 167.0 273.0 C 167.0 274.0 167.0 275.0 167.0 276.0 C 167.0 277.0 167.0 278.0 167.0 279.0 C 167.0 280.0 166.0 281.0 166.0 282.0 C 166.0 283.0 166.0 284.0 165.0 284.0 C 164.0 284.0 163.0 284.0 162.0 285.0 C 162.0 286.0 162.0 287.0 162.0 288.0 C 163.0 289.0 164.0 290.0 164.0 291.0 C 165.0 292.0 166.0 292.0 167.0 292.0 C 168.0 293.0 169.0 293.0 170.0 293.0 C 171.0 292.0 171.0 291.0 171.0 290.0 C 171.0 289.0 171.0 288.0 172.0 288.0 C 173.0 288.0 174.0 288.0 175.0 287.0 C 175.0 286.0 175.0 285.0 175.0 284.0 C 175.0 283.0 175.0 282.0 175.0 281.0 C 176.0 280.0 176.0 279.0 176.0 278.0 C 177.0 278.0 178.0 278.0 179.0 278.0 C 179.0 279.0 180.0 280.0 181.0 280.0 C 181.0 281.0 181.0 282.0 182.0 283.0 C 183.0 283.0 184.0 283.0 185.0 282.0 C 185.0 281.0 185.0 280.0 185.0 279.0 C 185.0 278.0 185.0 277.0 185.0 276.0 C 185.0 275.0 185.0 274.0 185.0 273.0 C 185.0 272.0 185.0 271.0 186.0 271.0 C 187.0 271.0 190.0 271.0 191.0 273.0 C 193.0 274.0 194.0 272.0 195.0 274.0 C 195.0 277.0 194.0 279.0 191.0 279.0 C 190.0 282.0 190.0 285.0 189.0 288.0 C 188.0 291.0 187.0 294.0 186.0 295.0 C 183.0 293.0 180.0 294.0 180.0 297.0 C 178.0 298.0 176.0 300.0 176.0 297.0 C 174.0 295.0 172.0 293.0 169.0 293.0 C 167.0 296.0 165.0 297.0 164.0 300.0 C 165.0 303.0 168.0 304.0 171.0 304.0 C 174.0 304.0 176.0 303.0 176.0 305.0 C 175.0 306.0 173.0 307.0 171.0 310.0 C 170.0 313.0 173.0 314.0 174.0 316.0 C 172.0 317.0 171.0 315.0 168.0 313.0 C 165.0 314.0 165.0 317.0 163.0 319.0 C 161.0 321.0 163.0 323.0 166.0 323.0 C 165.0 326.0 163.0 329.0 162.0 332.0 C 161.0 331.0 158.0 331.0 156.0 331.0 C 156.0 328.0 153.0 327.0 154.0 326.0 C 157.0 325.0 156.0 322.0 154.0 321.0 C 155.0 318.0 156.0 315.0 156.0 312.0 C 157.0 309.0 154.0 309.0 153.0 307.0 C 155.0 306.0 157.0 308.0 158.0 305.0 C 159.0 302.0 162.0 303.0 163.0 300.0 C 160.0 299.0 157.0 299.0 156.0 302.0 C 155.0 301.0 155.0 300.0 156.0 297.0 C 156.0 294.0 158.0 295.0 159.0 298.0 C 162.0 297.0 162.0 294.0 160.0 291.0 C 158.0 288.0 157.0 285.0 160.0 286.0 C 161.0 283.0 159.0 281.0 159.0 279.0 C 160.0 277.0 163.0 276.0 162.0 273.0 C 162.0 271.0 164.0 270.0 166.0 271.0 C 167.0 268.0 170.0 267.0 171.0 267.0" stroke-width="0.0" fill="rgb(171, 159, 201)" opacity="1.0" stroke="rgb(241, 201, 7)" stroke-opacity="0.08109261" stroke-linecap="round" stroke-linejoin="round"/>
    <path d="M 303.0 288.0 C 304.0 289.0 304.0 290.0 304.0 291.0 C 305.0 292.0 306.0 293.0 306.0 294.0 C 307.0 295.0 308.0 295.0 309.0 295.0 C 310.0 294.0 310.0 293.0 311.0 293.0 C 312.0 292.0 313.0 293.0 313.0 294.0 C 313.0 295.0 314.0 296.0 315.0 297.0 C 314.0 297.0 313.0 297.0 312.0 298.0 C 311.0 299.0 311.0 300.0 311.0 301.0 C 311.0 302.0 310.0 303.0 309.0 304.0 C 309.0 305.0 309.0 306.0 310.0 307.0 C 311.0 307.0 312.0 307.0 313.0 307.0 C 314.0 307.0 315.0 308.0 315.0 309.0 C 315.0 310.0 315.0 311.0 315.0 312.0 C 315.0 313.0 316.0 314.0 316.0 315.0 C 316.0 316.0 317.0 317.0 317.0 318.0 C 317.0 319.0 317.0 320.0 317.0 321.0 C 317.0 322.0 317.0 323.0 316.0 323.0 C 315.0 323.0 314.0 323.0 313.0 324.0 C 313.0 323.0 312.0 322.0 312.0 321.0 C 313.0 320.0 313.0 319.0 313.0 318.0 C 313.0 317.0 313.0 316.0 312.0 315.0 C 312.0 314.0 311.0 313.0 310.0 313.0 C 310.0 312.0 310.0 311.0 309.0 310.0 C 309.0 309.0 309.0 308.0 308.0 307.0 C 307.0 307.0 306.0 307.0 305.0 307.0 C 304.0 307.0 303.0 307.0 302.0 308.0 C 301.0 307.0 300.0 307.0 299.0 307.0 C 299.0 306.0 299.0 305.0 299.0 304.0 C 299.0 303.0 299.0 302.0 298.0 301.0 C 297.0 300.0 297.0 299.0 296.0 298.0 C 295.0 297.0 294.0 298.0 294.0 299.0 C 293.0 299.0 293.0 298.0 293.0 297.0 C 294.0 297.0 295.0 297.0 296.0 297.0 C 297.0 296.0 298.0 296.0 299.0 295.0 C 300.0 296.0 301.0 296.0 302.0 297.0 C 303.0 296.0 304.0 295.0 304.0 294.0 C 303.0 293.0 302.0 293.0 301.0 293.0 C 302.0 292.0 302.0 291.0 302.0 290.0 C 302.0 289.0 301.0 288.0 303.0 288.0" stroke-width="0.0" fill="rgb(173, 158, 197)" opacity="1.0" stroke="rgb(126, 88, 84)" stroke-opacity="0.7994269" stroke-linecap="round" stroke-linejoin="round"/>
    <path d="M 188.0 238.0 C 189.0 238.0 189.0 239.0 190.0 240.0 C 191.0 240.0 192.0 240.0 193.0 241.0 C 194.0 241.0 195.0 242.0 196.0 242.0 C 197.0 242.0 198.0 243.0 199.0 243.0 C 200.0 243.0 200.0 244.0 201.0 245.0 C 202.0 244.0 202.0 243.0 203.0 243.0 C 204.0 242.0 204.0 243.0 204.0 244.0 C 203.0 245.0 203.0 246.0 203.0 247.0 C 202.0 247.0 201.0 248.0 201.0 249.0 C 201.0 248.0 201.0 247.0 201.0 246.0 C 200.0 245.0 199.0 246.0 199.0 247.0 C 198.0 248.0 198.0 249.0 198.0 250.0 C 197.0 251.0 197.0 252.0 197.0 251.0 C 196.0 250.0 195.0 250.0 194.0 250.0 C 193.0 249.0 192.0 250.0 192.0 251.0 C 192.0 252.0 193.0 253.0 192.0 254.0 C 192.0 255.0 192.0 256.0 192.0 257.0 C 193.0 258.0 194.0 258.0 194.0 259.0 C 194.0 260.0 193.0 260.0 192.0 260.0 C 191.0 260.0 191.0 259.0 191.0 258.0 C 191.0 257.0 190.0 256.0 189.0 256.0 C 188.0 256.0 188.0 255.0 188.0 254.0 C 188.0 253.0 188.0 252.0 189.0 252.0 C 190.0 252.0 191.0 251.0 192.0 250.0 C 192.0 249.0 192.0 248.0 191.0 247.0 C 190.0 247.0 189.0 247.0 188.0 247.0 C 187.0 247.0 186.0 248.0 186.0 249.0 C 186.0 250.0 185.0 250.0 184.0 250.0 C 183.0 251.0 183.0 250.0 183.0 249.0 C 183.0 248.0 182.0 247.0 181.0 247.0 C 180.0 247.0 179.0 247.0 180.0 246.0 C 181.0 245.0 182.0 244.0 183.0 243.0 C 184.0 242.0 185.0 241.0 186.0 240.0 C 187.0 239.0 187.0 238.0 188.0 238.0" stroke-width="0.0" fill="rgb(171, 158, 201)" opacity="1.0" stroke="rgb(64, 204, 215)" stroke-opacity="0.7334106" stroke-linecap="round" stroke-linejoin="round"/>
    <path d="M 235.0 556.0 C 236.0 556.0 237.0 556.0 237.0 557.0 C 237.0 558.0 237.0 559.0 237.0 560.0 C 237.0 561.0 237.0 562.0 237.0 563.0 C 237.0 564.0 237.0 565.0 237.0 566.0 C 237.0 567.0 237.0 568.0 237.0 569.0 C 237.0 570.0 236.0 570.0 235.0 570.0 C 235.0 569.0 235.0 568.0 234.0 567.0 C 234.0 566.0 234.0 565.0 234.0 564.0 C 234.0 563.0 234.0 562.0 234.0 561.0 C 234.0 560.0 234.0 559.0 234.0 558.0 C 234.0 557.0 234.0 556.0 235.0 556.0" stroke-width="0.0" fill="rgb(74, 37, 33)" opacity="1.0" stroke="rgb(205, 140, 253)" stroke-opacity="0.13773175" stroke-linecap="round" stroke-linejoin="round"/>
    <path d="M 147.0 593.0 C 148.0 593.0 149.0 593.0 150.0 593.0 C 151.0 593.0 152.0 593.0 153.0 593.0 C 154.0 593.0 155.0 593.0 156.0 593.0 C 156.0 594.0 156.0 595.0 155.0 595.0 C 154.0 595.0 153.0 595.0 152.0 595.0 C 151.0 595.0 150.0 595.0 149.0 595.0 C 148.0 595.0 147.0 595.0 146.0 595.0 C 146.0 594.0 146.0 593.0 147.0 593.0" stroke-width="0.0" fill="rgb(79, 35, 22)" opacity="1.0" stroke="rgb(16, 24, 37)" stroke-opacity="0.509752" stroke-linecap="round" stroke-linejoin="round"/>
  </g>
</svg>
