<?xml version="1.0" ?>
<svg xmlns="http://www.w3.org/2000/svg" version="1.1" width="353" height="294">
  <defs/>
  <g>
    <path d="M 1.0 0.0 C 2.0 0.0 3.0 0.0 4.0 0.0 C 5.0 0.0 6.0 0.0 8.0 0.0 C 27.0 0.0 43.0 7.0 59.0 0.0 C 78.0 0.0 97.0 2.0 96.0 15.0 C 77.0 17.0 60.0 25.0 47.0 21.0 C 29.0 31.0 31.0 50.0 44.0 66.0 C 49.0 72.0 52.0 54.0 61.0 37.0 C 80.0 47.0 99.0 46.0 116.0 32.0 C 123.0 45.0 126.0 64.0 139.0 56.0 C 150.0 39.0 152.0 20.0 150.0 1.0 C 161.0 7.0 173.0 25.0 188.0 18.0 C 192.0 0.0 211.0 0.0 230.0 0.0 C 249.0 0.0 261.0 8.0 257.0 20.0 C 247.0 2.0 228.0 10.0 220.0 29.0 C 229.0 48.0 239.0 35.0 253.0 29.0 C 264.0 34.0 248.0 49.0 260.0 56.0 C 279.0 53.0 285.0 68.0 267.0 67.0 C 254.0 86.0 251.0 105.0 251.0 124.0 C 267.0 141.0 283.0 152.0 285.0 143.0 C 276.0 124.0 273.0 105.0 276.0 86.0 C 289.0 71.0 308.0 67.0 325.0 54.0 C 344.0 45.0 341.0 31.0 322.0 31.0 C 305.0 41.0 286.0 42.0 288.0 27.0 C 292.0 8.0 308.0 0.0 327.0 0.0 C 346.0 0.0 352.0 13.0 352.0 32.0 C 352.0 51.0 352.0 70.0 352.0 89.0 C 345.0 99.0 352.0 111.0 352.0 130.0 C 352.0 149.0 352.0 168.0 352.0 187.0 C 352.0 204.0 352.0 223.0 352.0 242.0 C 352.0 261.0 352.0 280.0 346.0 293.0 C 327.0 293.0 308.0 293.0 289.0 293.0 C 270.0 293.0 251.0 293.0 232.0 293.0 C 213.0 293.0 194.0 293.0 175.0 293.0 C 156.0 293.0 137.0 293.0 133.0 280.0 C 130.0 263.0 113.0 254.0 97.0 268.0 C 78.0 267.0 61.0 278.0 73.0 288.0 C 92.0 289.0 109.0 293.0 90.0 293.0 C 71.0 293.0 52.0 293.0 33.0 293.0 C 14.0 293.0 0.0 288.0 5.0 276.0 C 24.0 278.0 42.0 272.0 34.0 256.0 C 30.0 240.0 21.0 224.0 32.0 223.0 C 36.0 241.0 48.0 257.0 66.0 261.0 C 52.0 255.0 40.0 239.0 38.0 220.0 C 36.0 201.0 35.0 182.0 50.0 177.0 C 68.0 167.0 73.0 150.0 55.0 148.0 C 36.0 156.0 19.0 167.0 0.0 169.0 C 0.0 150.0 13.0 139.0 32.0 139.0 C 51.0 129.0 68.0 135.0 71.0 119.0 C 80.0 123.0 81.0 142.0 86.0 161.0 C 86.0 142.0 87.0 123.0 97.0 105.0 C 116.0 103.0 130.0 116.0 146.0 134.0 C 161.0 152.0 173.0 171.0 181.0 190.0 C 180.0 176.0 175.0 157.0 179.0 139.0 C 195.0 130.0 182.0 120.0 163.0 108.0 C 146.0 94.0 131.0 100.0 112.0 100.0 C 93.0 97.0 79.0 113.0 71.0 96.0 C 69.0 77.0 50.0 78.0 33.0 91.0 C 17.0 107.0 0.0 114.0 0.0 95.0 C 0.0 76.0 0.0 57.0 0.0 38.0 C 0.0 19.0 0.0 0.0 1.0 0.0" stroke-width="0.0" fill="rgb(125, 184, 103)" opacity="1.0" stroke="rgb(143, 251, 74)" stroke-opacity="0.31662744" stroke-linecap="round" stroke-linejoin="round"/>
    <path d="M 182.0 42.0 C 183.0 42.0 184.0 42.0 185.0 42.0 C 186.0 42.0 187.0 42.0 188.0 42.0 C 189.0 43.0 190.0 43.0 191.0 44.0 C 191.0 45.0 191.0 46.0 192.0 50.0 C 203.0 53.0 214.0 59.0 223.0 60.0 C 234.0 61.0 245.0 62.0 254.0 65.0 C 251.0 70.0 250.0 79.0 246.0 88.0 C 243.0 99.0 246.0 109.0 247.0 98.0 C 251.0 87.0 256.0 77.0 264.0 68.0 C 260.0 77.0 254.0 88.0 250.0 99.0 C 251.0 110.0 250.0 121.0 257.0 132.0 C 268.0 141.0 279.0 148.0 283.0 141.0 C 279.0 130.0 274.0 119.0 273.0 108.0 C 273.0 97.0 276.0 86.0 281.0 75.0 C 281.0 80.0 279.0 91.0 282.0 97.0 C 283.0 86.0 291.0 87.0 298.0 81.0 C 309.0 83.0 319.0 84.0 329.0 90.0 C 333.0 96.0 341.0 101.0 345.0 110.0 C 352.0 117.0 345.0 119.0 338.0 125.0 C 344.0 130.0 352.0 131.0 352.0 142.0 C 352.0 153.0 350.0 155.0 343.0 144.0 C 334.0 138.0 331.0 146.0 331.0 156.0 C 320.0 148.0 309.0 145.0 301.0 152.0 C 294.0 151.0 285.0 156.0 293.0 162.0 C 304.0 161.0 314.0 156.0 323.0 161.0 C 329.0 169.0 338.0 175.0 347.0 182.0 C 352.0 192.0 346.0 202.0 347.0 213.0 C 352.0 209.0 352.0 220.0 352.0 231.0 C 352.0 242.0 352.0 253.0 352.0 264.0 C 352.0 275.0 352.0 286.0 347.0 290.0 C 339.0 284.0 328.0 279.0 317.0 281.0 C 316.0 290.0 327.0 287.0 335.0 289.0 C 335.0 293.0 324.0 293.0 313.0 293.0 C 302.0 293.0 291.0 293.0 280.0 293.0 C 269.0 293.0 258.0 293.0 247.0 293.0 C 242.0 284.0 231.0 276.0 220.0 275.0 C 209.0 273.0 198.0 272.0 189.0 279.0 C 185.0 288.0 175.0 286.0 171.0 293.0 C 160.0 293.0 149.0 293.0 147.0 285.0 C 151.0 276.0 151.0 268.0 158.0 258.0 C 150.0 258.0 139.0 260.0 128.0 259.0 C 117.0 255.0 109.0 245.0 108.0 234.0 C 108.0 223.0 102.0 212.0 104.0 221.0 C 98.0 226.0 89.0 219.0 83.0 209.0 C 89.0 204.0 98.0 203.0 93.0 193.0 C 94.0 184.0 96.0 173.0 90.0 165.0 C 91.0 156.0 89.0 149.0 87.0 148.0 C 87.0 137.0 87.0 126.0 85.0 133.0 C 85.0 144.0 85.0 155.0 82.0 146.0 C 81.0 135.0 81.0 124.0 82.0 113.0 C 89.0 102.0 99.0 97.0 105.0 101.0 C 115.0 103.0 126.0 107.0 132.0 118.0 C 143.0 128.0 152.0 139.0 161.0 150.0 C 168.0 161.0 176.0 171.0 177.0 160.0 C 174.0 150.0 178.0 139.0 186.0 131.0 C 197.0 129.0 188.0 123.0 177.0 119.0 C 168.0 113.0 158.0 106.0 151.0 99.0 C 142.0 91.0 141.0 80.0 150.0 69.0 C 159.0 61.0 168.0 55.0 179.0 55.0 C 176.0 51.0 181.0 42.0 182.0 42.0" stroke-width="0.0" fill="rgb(44, 55, 33)" opacity="1.0" stroke="rgb(237, 175, 4)" stroke-opacity="0.8515836" stroke-linecap="round" stroke-linejoin="round"/>
    <path d="M 108.0 108.0 C 109.0 108.0 110.0 108.0 111.0 109.0 C 112.0 109.0 113.0 109.0 114.0 109.0 C 115.0 109.0 116.0 109.0 117.0 111.0 C 119.0 113.0 121.0 114.0 122.0 116.0 C 122.0 118.0 122.0 120.0 122.0 122.0 C 124.0 123.0 125.0 124.0 124.0 126.0 C 123.0 128.0 123.0 130.0 125.0 131.0 C 127.0 130.0 129.0 130.0 130.0 132.0 C 130.0 134.0 132.0 135.0 134.0 136.0 C 136.0 136.0 138.0 138.0 140.0 138.0 C 141.0 140.0 141.0 142.0 143.0 143.0 C 145.0 143.0 147.0 144.0 148.0 146.0 C 150.0 147.0 151.0 149.0 153.0 151.0 C 153.0 153.0 154.0 155.0 156.0 155.0 C 158.0 157.0 159.0 159.0 160.0 161.0 C 161.0 163.0 162.0 165.0 163.0 167.0 C 164.0 169.0 165.0 171.0 165.0 173.0 C 166.0 175.0 167.0 177.0 169.0 179.0 C 169.0 181.0 171.0 183.0 171.0 185.0 C 171.0 187.0 172.0 189.0 173.0 191.0 C 174.0 193.0 174.0 195.0 175.0 197.0 C 175.0 199.0 176.0 201.0 176.0 203.0 C 177.0 205.0 178.0 207.0 179.0 208.0 C 180.0 210.0 181.0 212.0 181.0 214.0 C 182.0 216.0 182.0 218.0 184.0 219.0 C 184.0 221.0 184.0 223.0 183.0 225.0 C 182.0 227.0 181.0 229.0 180.0 231.0 C 178.0 233.0 176.0 234.0 174.0 235.0 C 172.0 236.0 170.0 237.0 168.0 238.0 C 166.0 239.0 164.0 240.0 162.0 241.0 C 160.0 242.0 158.0 243.0 156.0 243.0 C 154.0 244.0 152.0 244.0 150.0 244.0 C 148.0 244.0 146.0 245.0 144.0 245.0 C 142.0 244.0 140.0 244.0 138.0 245.0 C 136.0 244.0 134.0 244.0 132.0 244.0 C 130.0 244.0 128.0 242.0 126.0 242.0 C 125.0 241.0 123.0 239.0 121.0 238.0 C 120.0 236.0 119.0 234.0 117.0 232.0 C 116.0 231.0 116.0 229.0 117.0 227.0 C 117.0 225.0 118.0 223.0 117.0 221.0 C 115.0 220.0 113.0 220.0 112.0 218.0 C 110.0 216.0 109.0 214.0 108.0 212.0 C 106.0 210.0 105.0 208.0 104.0 206.0 C 104.0 204.0 103.0 202.0 103.0 200.0 C 102.0 198.0 101.0 196.0 100.0 194.0 C 98.0 192.0 97.0 190.0 96.0 188.0 C 96.0 186.0 95.0 184.0 95.0 182.0 C 95.0 180.0 95.0 178.0 95.0 176.0 C 96.0 174.0 97.0 172.0 97.0 170.0 C 96.0 168.0 95.0 166.0 93.0 166.0 C 92.0 164.0 91.0 162.0 91.0 160.0 C 91.0 158.0 91.0 156.0 91.0 154.0 C 91.0 152.0 91.0 150.0 91.0 148.0 C 91.0 146.0 91.0 144.0 91.0 142.0 C 91.0 140.0 91.0 138.0 92.0 136.0 C 93.0 134.0 93.0 132.0 94.0 130.0 C 94.0 128.0 95.0 126.0 95.0 124.0 C 96.0 122.0 98.0 120.0 99.0 118.0 C 100.0 116.0 102.0 114.0 104.0 112.0 C 106.0 110.0 107.0 108.0 108.0 108.0" stroke-width="0.0" fill="rgb(84, 174, 2)" opacity="1.0" stroke="rgb(244, 27, 199)" stroke-opacity="0.71296227" stroke-linecap="round" stroke-linejoin="round"/>
    <path d="M 208.0 55.0 C 209.0 55.0 210.0 56.0 211.0 57.0 C 212.0 58.0 213.0 58.0 214.0 59.0 C 215.0 60.0 216.0 60.0 217.0 60.0 C 217.0 61.0 218.0 62.0 219.0 61.0 C 219.0 60.0 220.0 60.0 221.0 60.0 C 222.0 60.0 223.0 60.0 224.0 60.0 C 225.0 60.0 226.0 60.0 227.0 60.0 C 228.0 60.0 229.0 60.0 230.0 60.0 C 231.0 61.0 232.0 61.0 233.0 61.0 C 234.0 61.0 235.0 61.0 236.0 61.0 C 238.0 61.0 240.0 61.0 242.0 61.0 C 244.0 62.0 246.0 62.0 247.0 64.0 C 249.0 63.0 250.0 64.0 252.0 65.0 C 254.0 65.0 256.0 65.0 256.0 67.0 C 255.0 68.0 253.0 68.0 252.0 70.0 C 250.0 71.0 250.0 73.0 248.0 74.0 C 248.0 76.0 248.0 78.0 250.0 79.0 C 250.0 81.0 248.0 82.0 248.0 84.0 C 248.0 86.0 247.0 87.0 245.0 89.0 C 244.0 91.0 243.0 93.0 243.0 95.0 C 242.0 97.0 243.0 99.0 243.0 101.0 C 243.0 103.0 243.0 105.0 243.0 107.0 C 243.0 109.0 242.0 110.0 240.0 111.0 C 241.0 113.0 241.0 115.0 239.0 117.0 C 238.0 119.0 236.0 120.0 234.0 121.0 C 234.0 123.0 233.0 125.0 231.0 126.0 C 229.0 128.0 229.0 130.0 227.0 130.0 C 225.0 130.0 224.0 129.0 223.0 127.0 C 222.0 129.0 221.0 130.0 220.0 132.0 C 218.0 133.0 216.0 133.0 214.0 132.0 C 214.0 130.0 212.0 129.0 210.0 128.0 C 209.0 126.0 208.0 124.0 206.0 124.0 C 204.0 124.0 202.0 122.0 200.0 121.0 C 199.0 120.0 197.0 119.0 195.0 118.0 C 193.0 118.0 191.0 117.0 189.0 115.0 C 188.0 113.0 186.0 113.0 185.0 112.0 C 184.0 110.0 182.0 110.0 180.0 108.0 C 178.0 107.0 176.0 106.0 175.0 105.0 C 174.0 103.0 172.0 103.0 170.0 102.0 C 169.0 100.0 169.0 98.0 167.0 97.0 C 166.0 96.0 166.0 94.0 166.0 92.0 C 168.0 90.0 167.0 88.0 166.0 86.0 C 166.0 84.0 167.0 82.0 169.0 80.0 C 169.0 78.0 171.0 78.0 171.0 76.0 C 169.0 75.0 168.0 74.0 167.0 72.0 C 165.0 72.0 163.0 72.0 161.0 72.0 C 160.0 71.0 161.0 69.0 163.0 68.0 C 165.0 68.0 166.0 69.0 168.0 70.0 C 170.0 70.0 172.0 70.0 174.0 71.0 C 176.0 70.0 178.0 69.0 178.0 67.0 C 180.0 66.0 178.0 65.0 176.0 64.0 C 174.0 64.0 172.0 65.0 170.0 65.0 C 170.0 63.0 171.0 61.0 173.0 61.0 C 175.0 61.0 177.0 62.0 179.0 63.0 C 181.0 64.0 183.0 64.0 185.0 64.0 C 187.0 65.0 189.0 66.0 191.0 65.0 C 192.0 64.0 194.0 64.0 196.0 64.0 C 198.0 63.0 198.0 61.0 200.0 61.0 C 201.0 59.0 203.0 59.0 205.0 59.0 C 207.0 57.0 207.0 55.0 208.0 55.0" stroke-width="0.0" fill="rgb(75, 245, 8)" opacity="1.0" stroke="rgb(75, 244, 39)" stroke-opacity="0.15017268" stroke-linecap="round" stroke-linejoin="round"/>
    <path d="M 297.0 81.0 C 298.0 81.0 299.0 81.0 300.0 81.0 C 301.0 82.0 302.0 83.0 303.0 83.0 C 304.0 83.0 305.0 83.0 306.0 83.0 C 307.0 83.0 308.0 83.0 309.0 83.0 C 310.0 82.0 311.0 82.0 312.0 81.0 C 313.0 81.0 314.0 81.0 315.0 81.0 C 316.0 82.0 316.0 83.0 317.0 84.0 C 318.0 84.0 319.0 84.0 320.0 85.0 C 321.0 85.0 322.0 85.0 323.0 86.0 C 324.0 86.0 325.0 86.0 326.0 87.0 C 326.0 88.0 327.0 89.0 328.0 89.0 C 329.0 90.0 329.0 91.0 329.0 92.0 C 328.0 93.0 327.0 94.0 327.0 95.0 C 328.0 96.0 329.0 97.0 330.0 97.0 C 331.0 97.0 332.0 97.0 333.0 96.0 C 334.0 96.0 335.0 96.0 336.0 96.0 C 337.0 96.0 338.0 96.0 338.0 97.0 C 338.0 98.0 338.0 99.0 339.0 100.0 C 340.0 101.0 341.0 101.0 342.0 101.0 C 343.0 102.0 343.0 103.0 343.0 104.0 C 342.0 105.0 342.0 106.0 342.0 107.0 C 341.0 108.0 341.0 109.0 341.0 110.0 C 341.0 111.0 341.0 112.0 340.0 113.0 C 340.0 114.0 340.0 115.0 339.0 116.0 C 338.0 116.0 337.0 117.0 336.0 117.0 C 335.0 117.0 334.0 118.0 333.0 119.0 C 332.0 119.0 331.0 120.0 330.0 121.0 C 330.0 122.0 329.0 122.0 328.0 122.0 C 327.0 122.0 326.0 122.0 325.0 121.0 C 324.0 122.0 324.0 123.0 323.0 124.0 C 323.0 125.0 322.0 125.0 321.0 126.0 C 321.0 127.0 320.0 127.0 319.0 127.0 C 318.0 127.0 317.0 127.0 316.0 127.0 C 315.0 126.0 314.0 126.0 313.0 126.0 C 313.0 125.0 313.0 124.0 312.0 123.0 C 312.0 122.0 312.0 121.0 311.0 120.0 C 310.0 121.0 310.0 122.0 309.0 123.0 C 308.0 123.0 307.0 123.0 306.0 123.0 C 305.0 123.0 304.0 122.0 303.0 122.0 C 302.0 122.0 301.0 122.0 299.0 122.0 C 297.0 122.0 296.0 120.0 295.0 122.0 C 293.0 122.0 291.0 122.0 289.0 122.0 C 287.0 122.0 286.0 120.0 284.0 119.0 C 283.0 117.0 281.0 116.0 280.0 114.0 C 279.0 112.0 278.0 110.0 278.0 108.0 C 279.0 107.0 281.0 108.0 283.0 109.0 C 284.0 111.0 286.0 111.0 288.0 111.0 C 288.0 109.0 290.0 109.0 291.0 111.0 C 290.0 112.0 290.0 114.0 292.0 115.0 C 294.0 115.0 296.0 116.0 298.0 116.0 C 300.0 116.0 302.0 115.0 304.0 115.0 C 306.0 114.0 304.0 113.0 302.0 113.0 C 300.0 113.0 298.0 113.0 296.0 113.0 C 294.0 112.0 293.0 111.0 294.0 109.0 C 296.0 108.0 298.0 107.0 299.0 105.0 C 300.0 103.0 301.0 101.0 303.0 99.0 C 304.0 97.0 304.0 95.0 304.0 93.0 C 303.0 91.0 303.0 89.0 301.0 87.0 C 299.0 85.0 297.0 85.0 295.0 85.0 C 295.0 83.0 296.0 81.0 297.0 81.0" stroke-width="0.0" fill="rgb(80, 237, 3)" opacity="1.0" stroke="rgb(131, 59, 139)" stroke-opacity="0.59198374" stroke-linecap="round" stroke-linejoin="round"/>
    <path d="M 202.0 138.0 C 203.0 138.0 204.0 138.0 205.0 138.0 C 206.0 138.0 207.0 138.0 208.0 138.0 C 209.0 138.0 210.0 138.0 211.0 139.0 C 212.0 139.0 213.0 139.0 214.0 140.0 C 215.0 140.0 216.0 140.0 217.0 140.0 C 218.0 141.0 219.0 141.0 220.0 141.0 C 221.0 142.0 222.0 142.0 223.0 142.0 C 224.0 142.0 225.0 142.0 226.0 142.0 C 227.0 143.0 228.0 143.0 229.0 144.0 C 230.0 144.0 231.0 144.0 232.0 144.0 C 233.0 144.0 234.0 144.0 235.0 144.0 C 236.0 144.0 237.0 145.0 238.0 145.0 C 239.0 146.0 240.0 146.0 240.0 147.0 C 240.0 148.0 239.0 149.0 238.0 150.0 C 237.0 151.0 236.0 151.0 235.0 152.0 C 234.0 152.0 233.0 153.0 232.0 153.0 C 231.0 153.0 230.0 153.0 229.0 153.0 C 228.0 153.0 227.0 153.0 226.0 153.0 C 225.0 153.0 224.0 153.0 223.0 153.0 C 222.0 153.0 221.0 153.0 220.0 154.0 C 219.0 154.0 218.0 154.0 217.0 154.0 C 216.0 153.0 215.0 153.0 214.0 153.0 C 213.0 154.0 212.0 154.0 211.0 154.0 C 210.0 154.0 209.0 155.0 208.0 155.0 C 207.0 156.0 207.0 157.0 207.0 158.0 C 206.0 159.0 205.0 159.0 204.0 160.0 C 203.0 161.0 202.0 161.0 201.0 162.0 C 201.0 163.0 201.0 164.0 200.0 164.0 C 199.0 164.0 198.0 165.0 197.0 165.0 C 196.0 166.0 195.0 167.0 194.0 167.0 C 193.0 167.0 193.0 166.0 193.0 165.0 C 193.0 164.0 192.0 163.0 192.0 162.0 C 192.0 161.0 191.0 160.0 191.0 159.0 C 191.0 158.0 191.0 157.0 191.0 156.0 C 191.0 155.0 191.0 154.0 191.0 153.0 C 191.0 152.0 192.0 152.0 193.0 151.0 C 192.0 150.0 192.0 149.0 192.0 148.0 C 193.0 147.0 193.0 146.0 194.0 145.0 C 195.0 144.0 195.0 143.0 195.0 142.0 C 196.0 142.0 197.0 141.0 197.0 140.0 C 198.0 140.0 199.0 140.0 200.0 140.0 C 201.0 139.0 201.0 138.0 202.0 138.0" stroke-width="0.0" fill="rgb(70, 247, 3)" opacity="1.0" stroke="rgb(12, 26, 218)" stroke-opacity="0.7737826" stroke-linecap="round" stroke-linejoin="round"/>
    <path d="M 63.0 144.0 C 64.0 144.0 65.0 144.0 66.0 144.0 C 67.0 145.0 68.0 146.0 69.0 146.0 C 70.0 147.0 70.0 148.0 71.0 149.0 C 72.0 150.0 73.0 151.0 74.0 152.0 C 74.0 153.0 75.0 154.0 75.0 155.0 C 75.0 156.0 75.0 157.0 75.0 158.0 C 75.0 159.0 75.0 160.0 74.0 161.0 C 73.0 161.0 72.0 162.0 72.0 163.0 C 71.0 164.0 70.0 165.0 68.0 166.0 C 65.0 168.0 62.0 170.0 59.0 172.0 C 56.0 174.0 53.0 176.0 50.0 176.0 C 51.0 174.0 54.0 173.0 57.0 170.0 C 60.0 168.0 63.0 166.0 66.0 164.0 C 69.0 161.0 70.0 158.0 70.0 155.0 C 69.0 152.0 66.0 150.0 63.0 149.0 C 60.0 151.0 57.0 153.0 54.0 155.0 C 51.0 156.0 48.0 157.0 45.0 158.0 C 42.0 160.0 39.0 162.0 37.0 165.0 C 35.0 168.0 32.0 168.0 29.0 170.0 C 28.0 173.0 29.0 176.0 30.0 179.0 C 31.0 182.0 29.0 184.0 30.0 187.0 C 29.0 189.0 29.0 192.0 29.0 195.0 C 31.0 198.0 32.0 201.0 35.0 203.0 C 36.0 205.0 36.0 208.0 36.0 211.0 C 37.0 214.0 37.0 217.0 37.0 220.0 C 34.0 220.0 33.0 218.0 31.0 216.0 C 28.0 216.0 25.0 218.0 22.0 220.0 C 20.0 223.0 20.0 226.0 21.0 229.0 C 21.0 232.0 23.0 235.0 25.0 237.0 C 27.0 239.0 30.0 241.0 30.0 244.0 C 28.0 246.0 27.0 249.0 27.0 252.0 C 30.0 255.0 33.0 256.0 36.0 257.0 C 39.0 259.0 41.0 262.0 42.0 265.0 C 42.0 268.0 42.0 271.0 40.0 274.0 C 37.0 277.0 34.0 278.0 31.0 278.0 C 28.0 278.0 25.0 277.0 22.0 277.0 C 19.0 277.0 16.0 277.0 13.0 276.0 C 10.0 276.0 7.0 275.0 4.0 274.0 C 1.0 273.0 0.0 271.0 0.0 268.0 C 0.0 265.0 0.0 262.0 0.0 259.0 C 0.0 256.0 0.0 253.0 0.0 250.0 C 0.0 247.0 0.0 244.0 0.0 241.0 C 0.0 238.0 0.0 235.0 0.0 232.0 C 1.0 230.0 4.0 231.0 7.0 231.0 C 10.0 230.0 10.0 227.0 8.0 224.0 C 5.0 224.0 2.0 226.0 1.0 228.0 C 0.0 226.0 0.0 223.0 0.0 220.0 C 0.0 217.0 0.0 214.0 0.0 211.0 C 0.0 208.0 0.0 205.0 0.0 202.0 C 0.0 199.0 0.0 196.0 0.0 193.0 C 0.0 190.0 0.0 187.0 0.0 184.0 C 0.0 181.0 0.0 178.0 0.0 175.0 C 0.0 172.0 1.0 170.0 4.0 170.0 C 7.0 168.0 10.0 167.0 13.0 168.0 C 16.0 168.0 19.0 168.0 22.0 168.0 C 25.0 167.0 28.0 166.0 30.0 163.0 C 33.0 161.0 35.0 158.0 38.0 156.0 C 41.0 154.0 44.0 153.0 47.0 153.0 C 50.0 152.0 53.0 151.0 56.0 148.0 C 59.0 146.0 62.0 144.0 63.0 144.0" stroke-width="0.0" fill="rgb(154, 220, 125)" opacity="1.0" stroke="rgb(98, 215, 50)" stroke-opacity="0.57909936" stroke-linecap="round" stroke-linejoin="round"/>
    <path d="M 13.0 67.0 C 14.0 67.0 14.0 68.0 14.0 69.0 C 15.0 70.0 16.0 70.0 17.0 70.0 C 18.0 70.0 19.0 70.0 19.0 71.0 C 19.0 72.0 19.0 73.0 19.0 74.0 C 20.0 75.0 20.0 76.0 21.0 77.0 C 21.0 78.0 21.0 79.0 20.0 80.0 C 20.0 81.0 19.0 81.0 18.0 82.0 C 17.0 83.0 17.0 84.0 16.0 85.0 C 15.0 86.0 14.0 86.0 13.0 86.0 C 12.0 85.0 11.0 84.0 11.0 83.0 C 10.0 82.0 10.0 81.0 9.0 80.0 C 8.0 79.0 8.0 78.0 7.0 77.0 C 6.0 76.0 5.0 75.0 5.0 74.0 C 4.0 73.0 3.0 72.0 3.0 71.0 C 3.0 70.0 3.0 69.0 4.0 68.0 C 5.0 68.0 6.0 68.0 7.0 68.0 C 8.0 68.0 9.0 68.0 10.0 68.0 C 11.0 68.0 12.0 67.0 13.0 67.0" stroke-width="0.0" fill="rgb(20, 16, 16)" opacity="1.0" stroke="rgb(176, 189, 83)" stroke-opacity="0.29886413" stroke-linecap="round" stroke-linejoin="round"/>
  </g>
</svg>
