<?xml version="1.0" ?>
<svg xmlns="http://www.w3.org/2000/svg" version="1.1" width="718" height="404">
  <defs/>
  <g>
    <path d="M 1.0 0.0 C 2.0 0.0 3.0 0.0 4.0 0.0 C 5.0 0.0 6.0 0.0 7.0 0.0 C 8.0 0.0 17.0 0.0 30.0 0.0 C 43.0 0.0 56.0 0.0 69.0 0.0 C 82.0 0.0 95.0 0.0 108.0 0.0 C 121.0 0.0 134.0 0.0 147.0 0.0 C 160.0 0.0 173.0 0.0 186.0 0.0 C 199.0 0.0 212.0 0.0 225.0 0.0 C 238.0 0.0 251.0 0.0 264.0 0.0 C 277.0 0.0 290.0 0.0 303.0 0.0 C 316.0 0.0 329.0 0.0 342.0 0.0 C 355.0 0.0 368.0 0.0 381.0 0.0 C 394.0 0.0 407.0 0.0 420.0 0.0 C 433.0 0.0 446.0 0.0 459.0 0.0 C 472.0 0.0 485.0 0.0 498.0 0.0 C 511.0 0.0 524.0 0.0 537.0 0.0 C 550.0 0.0 563.0 0.0 576.0 0.0 C 589.0 0.0 602.0 0.0 615.0 0.0 C 628.0 0.0 641.0 0.0 654.0 0.0 C 667.0 0.0 680.0 0.0 693.0 0.0 C 706.0 0.0 717.0 2.0 717.0 15.0 C 717.0 28.0 717.0 41.0 717.0 54.0 C 717.0 67.0 717.0 80.0 717.0 93.0 C 717.0 106.0 717.0 119.0 717.0 132.0 C 717.0 145.0 717.0 158.0 717.0 171.0 C 717.0 184.0 717.0 197.0 717.0 210.0 C 717.0 223.0 717.0 236.0 717.0 249.0 C 717.0 262.0 717.0 275.0 717.0 288.0 C 717.0 301.0 717.0 314.0 717.0 327.0 C 717.0 340.0 717.0 353.0 717.0 366.0 C 717.0 379.0 717.0 392.0 715.0 403.0 C 702.0 403.0 689.0 403.0 676.0 403.0 C 663.0 403.0 650.0 403.0 637.0 403.0 C 624.0 403.0 611.0 403.0 598.0 403.0 C 585.0 403.0 572.0 403.0 559.0 403.0 C 546.0 403.0 533.0 403.0 520.0 403.0 C 507.0 403.0 494.0 403.0 481.0 403.0 C 468.0 403.0 455.0 403.0 442.0 403.0 C 429.0 403.0 416.0 403.0 403.0 403.0 C 390.0 403.0 377.0 403.0 364.0 403.0 C 351.0 403.0 338.0 403.0 325.0 403.0 C 312.0 403.0 299.0 403.0 286.0 403.0 C 273.0 403.0 260.0 403.0 247.0 403.0 C 234.0 403.0 221.0 403.0 208.0 403.0 C 195.0 403.0 182.0 403.0 169.0 403.0 C 156.0 403.0 143.0 403.0 130.0 403.0 C 117.0 403.0 104.0 403.0 91.0 403.0 C 78.0 403.0 65.0 403.0 52.0 403.0 C 39.0 403.0 26.0 403.0 13.0 403.0 C 0.0 403.0 0.0 390.0 0.0 377.0 C 0.0 364.0 0.0 351.0 0.0 338.0 C 0.0 325.0 0.0 312.0 0.0 299.0 C 0.0 286.0 0.0 273.0 0.0 260.0 C 0.0 247.0 0.0 234.0 0.0 221.0 C 0.0 208.0 0.0 195.0 0.0 182.0 C 0.0 169.0 0.0 156.0 0.0 143.0 C 0.0 130.0 0.0 117.0 0.0 104.0 C 0.0 91.0 0.0 78.0 0.0 65.0 C 0.0 52.0 0.0 39.0 0.0 26.0 C 0.0 13.0 0.0 0.0 1.0 0.0" stroke-width="0.0" fill="rgb(8, 6, 5)" opacity="1.0" stroke="rgb(201, 50, 254)" stroke-opacity="0.08803808" stroke-linecap="round" stroke-linejoin="round"/>
    <path d="M 176.0 124.0 C 177.0 124.0 181.0 124.0 182.0 142.0 C 182.0 162.0 184.0 181.0 190.0 189.0 C 180.0 201.0 171.0 217.0 170.0 226.0 C 183.0 224.0 178.0 239.0 179.0 242.0 C 182.0 250.0 186.0 247.0 193.0 245.0 C 207.0 245.0 225.0 241.0 238.0 249.0 C 247.0 237.0 264.0 231.0 279.0 224.0 C 289.0 210.0 304.0 200.0 324.0 188.0 C 343.0 178.0 361.0 169.0 381.0 162.0 C 398.0 154.0 417.0 149.0 432.0 146.0 C 449.0 142.0 461.0 136.0 474.0 134.0 C 483.0 136.0 492.0 130.0 495.0 128.0 C 511.0 132.0 525.0 128.0 539.0 130.0 C 556.0 133.0 551.0 149.0 551.0 169.0 C 546.0 185.0 550.0 201.0 547.0 219.0 C 556.0 231.0 559.0 249.0 568.0 254.0 C 585.0 250.0 600.0 254.0 592.0 258.0 C 581.0 268.0 576.0 273.0 593.0 269.0 C 609.0 271.0 619.0 278.0 631.0 278.0 C 650.0 279.0 669.0 275.0 679.0 271.0 C 686.0 257.0 689.0 240.0 698.0 245.0 C 705.0 233.0 709.0 225.0 709.0 245.0 C 711.0 264.0 711.0 284.0 711.0 300.0 C 711.0 320.0 711.0 340.0 711.0 360.0 C 711.0 380.0 711.0 400.0 694.0 403.0 C 678.0 401.0 677.0 386.0 670.0 391.0 C 669.0 403.0 649.0 403.0 638.0 397.0 C 656.0 391.0 656.0 387.0 637.0 393.0 C 620.0 403.0 600.0 403.0 580.0 403.0 C 560.0 403.0 563.0 400.0 583.0 395.0 C 603.0 389.0 598.0 388.0 578.0 393.0 C 558.0 398.0 538.0 403.0 520.0 403.0 C 500.0 403.0 480.0 403.0 485.0 400.0 C 505.0 390.0 525.0 382.0 541.0 386.0 C 545.0 373.0 533.0 375.0 519.0 373.0 C 513.0 353.0 501.0 334.0 486.0 314.0 C 467.0 295.0 448.0 281.0 429.0 271.0 C 409.0 264.0 389.0 259.0 369.0 256.0 C 349.0 257.0 329.0 259.0 309.0 264.0 C 290.0 271.0 273.0 280.0 255.0 291.0 C 238.0 307.0 224.0 323.0 213.0 340.0 C 205.0 357.0 199.0 375.0 210.0 388.0 C 230.0 391.0 245.0 401.0 265.0 401.0 C 284.0 403.0 264.0 403.0 244.0 403.0 C 224.0 403.0 204.0 403.0 184.0 403.0 C 164.0 403.0 144.0 403.0 124.0 394.0 C 107.0 387.0 89.0 397.0 69.0 393.0 C 58.0 393.0 54.0 394.0 45.0 403.0 C 25.0 403.0 10.0 398.0 20.0 386.0 C 19.0 384.0 10.0 374.0 10.0 354.0 C 10.0 334.0 10.0 314.0 10.0 294.0 C 10.0 274.0 12.0 259.0 12.0 239.0 C 16.0 222.0 19.0 217.0 30.0 225.0 C 38.0 233.0 53.0 233.0 60.0 233.0 C 70.0 233.0 80.0 224.0 89.0 231.0 C 98.0 233.0 113.0 242.0 104.0 224.0 C 105.0 204.0 121.0 189.0 117.0 184.0 C 116.0 174.0 134.0 175.0 136.0 160.0 C 132.0 148.0 134.0 136.0 150.0 138.0 C 155.0 134.0 175.0 124.0 176.0 124.0" stroke-width="0.0" fill="rgb(201, 178, 123)" opacity="1.0" stroke="rgb(80, 229, 225)" stroke-opacity="0.8833682" stroke-linecap="round" stroke-linejoin="round"/>
    <path d="M 178.0 123.0 C 179.0 123.0 180.0 123.0 181.0 123.0 C 182.0 123.0 183.0 124.0 183.0 147.0 C 183.0 170.0 173.0 182.0 168.0 199.0 C 173.0 214.0 185.0 197.0 195.0 181.0 C 206.0 177.0 197.0 200.0 197.0 223.0 C 219.0 236.0 242.0 234.0 265.0 226.0 C 275.0 222.0 290.0 208.0 307.0 196.0 C 330.0 183.0 352.0 173.0 370.0 164.0 C 391.0 156.0 407.0 159.0 424.0 151.0 C 425.0 145.0 431.0 146.0 446.0 153.0 C 460.0 162.0 474.0 173.0 480.0 191.0 C 489.0 206.0 501.0 202.0 508.0 219.0 C 518.0 232.0 518.0 255.0 516.0 277.0 C 502.0 288.0 495.0 307.0 488.0 318.0 C 503.0 341.0 513.0 364.0 521.0 377.0 C 539.0 373.0 548.0 369.0 561.0 361.0 C 568.0 347.0 582.0 339.0 591.0 354.0 C 591.0 363.0 596.0 344.0 606.0 335.0 C 613.0 325.0 629.0 319.0 634.0 312.0 C 651.0 308.0 642.0 323.0 649.0 326.0 C 662.0 317.0 671.0 315.0 680.0 296.0 C 699.0 289.0 703.0 278.0 710.0 288.0 C 711.0 305.0 709.0 327.0 709.0 350.0 C 709.0 373.0 711.0 395.0 696.0 403.0 C 676.0 402.0 654.0 403.0 631.0 403.0 C 608.0 403.0 585.0 403.0 562.0 403.0 C 539.0 403.0 516.0 403.0 493.0 403.0 C 470.0 403.0 447.0 403.0 424.0 403.0 C 401.0 403.0 378.0 403.0 355.0 403.0 C 332.0 403.0 309.0 403.0 286.0 403.0 C 263.0 403.0 240.0 403.0 217.0 403.0 C 194.0 403.0 171.0 403.0 148.0 403.0 C 125.0 403.0 102.0 403.0 79.0 403.0 C 56.0 403.0 33.0 403.0 10.0 403.0 C 9.0 381.0 9.0 358.0 12.0 337.0 C 12.0 314.0 12.0 291.0 23.0 282.0 C 41.0 279.0 53.0 291.0 51.0 301.0 C 64.0 291.0 67.0 270.0 82.0 251.0 C 102.0 254.0 125.0 267.0 132.0 281.0 C 124.0 295.0 109.0 310.0 119.0 315.0 C 117.0 331.0 116.0 345.0 114.0 361.0 C 123.0 340.0 134.0 324.0 147.0 334.0 C 140.0 347.0 152.0 348.0 169.0 349.0 C 179.0 358.0 177.0 375.0 196.0 379.0 C 206.0 365.0 216.0 342.0 231.0 319.0 C 247.0 302.0 258.0 288.0 244.0 280.0 C 231.0 284.0 225.0 271.0 220.0 290.0 C 207.0 295.0 196.0 281.0 201.0 264.0 C 210.0 251.0 221.0 263.0 220.0 240.0 C 200.0 246.0 190.0 253.0 182.0 243.0 C 180.0 244.0 183.0 225.0 168.0 226.0 C 156.0 246.0 142.0 252.0 119.0 249.0 C 99.0 233.0 88.0 226.0 73.0 231.0 C 52.0 232.0 34.0 232.0 24.0 220.0 C 10.0 209.0 10.0 186.0 16.0 165.0 C 39.0 156.0 62.0 148.0 85.0 142.0 C 108.0 138.0 131.0 135.0 140.0 138.0 C 131.0 154.0 136.0 172.0 116.0 173.0 C 135.0 177.0 151.0 172.0 146.0 149.0 C 154.0 134.0 177.0 123.0 178.0 123.0" stroke-width="0.0" fill="rgb(205, 136, 101)" opacity="1.0" stroke="rgb(111, 98, 219)" stroke-opacity="0.36652502" stroke-linecap="round" stroke-linejoin="round"/>
    <path d="M 351.0 256.0 C 352.0 256.0 356.0 257.0 362.0 257.0 C 368.0 256.0 372.0 258.0 378.0 258.0 C 383.0 260.0 389.0 260.0 394.0 262.0 C 399.0 263.0 404.0 266.0 410.0 266.0 C 416.0 268.0 421.0 270.0 427.0 271.0 C 432.0 275.0 437.0 277.0 441.0 281.0 C 446.0 283.0 450.0 286.0 454.0 289.0 C 459.0 293.0 462.0 295.0 466.0 299.0 C 472.0 302.0 476.0 307.0 480.0 312.0 C 484.0 316.0 489.0 322.0 492.0 326.0 C 496.0 331.0 499.0 336.0 502.0 341.0 C 505.0 346.0 505.0 351.0 500.0 355.0 C 497.0 355.0 496.0 359.0 493.0 357.0 C 487.0 360.0 482.0 363.0 485.0 368.0 C 479.0 367.0 481.0 372.0 486.0 371.0 C 489.0 373.0 493.0 368.0 498.0 369.0 C 498.0 365.0 502.0 362.0 507.0 364.0 C 509.0 362.0 514.0 366.0 514.0 372.0 C 516.0 378.0 517.0 383.0 514.0 387.0 C 518.0 389.0 523.0 386.0 526.0 380.0 C 531.0 378.0 535.0 377.0 540.0 380.0 C 542.0 385.0 547.0 386.0 552.0 389.0 C 558.0 393.0 557.0 399.0 561.0 402.0 C 558.0 403.0 554.0 403.0 548.0 403.0 C 543.0 401.0 538.0 403.0 532.0 403.0 C 527.0 402.0 522.0 403.0 516.0 403.0 C 510.0 403.0 504.0 403.0 498.0 403.0 C 492.0 403.0 486.0 403.0 480.0 403.0 C 474.0 403.0 468.0 403.0 462.0 403.0 C 456.0 403.0 450.0 403.0 444.0 403.0 C 438.0 403.0 432.0 403.0 426.0 403.0 C 420.0 403.0 414.0 403.0 408.0 403.0 C 402.0 403.0 396.0 403.0 390.0 403.0 C 384.0 403.0 378.0 403.0 372.0 403.0 C 366.0 403.0 360.0 403.0 354.0 403.0 C 348.0 403.0 342.0 403.0 336.0 403.0 C 330.0 403.0 324.0 403.0 318.0 403.0 C 312.0 403.0 306.0 403.0 300.0 403.0 C 294.0 403.0 288.0 403.0 282.0 403.0 C 276.0 403.0 270.0 403.0 264.0 403.0 C 258.0 403.0 252.0 403.0 247.0 401.0 C 242.0 403.0 236.0 403.0 230.0 403.0 C 224.0 403.0 218.0 403.0 212.0 403.0 C 206.0 403.0 200.0 403.0 197.0 399.0 C 200.0 394.0 204.0 390.0 208.0 388.0 C 213.0 386.0 209.0 383.0 204.0 381.0 C 204.0 376.0 205.0 370.0 206.0 364.0 C 209.0 360.0 210.0 354.0 212.0 350.0 C 216.0 345.0 219.0 339.0 223.0 334.0 C 226.0 331.0 227.0 326.0 229.0 321.0 C 234.0 318.0 238.0 313.0 243.0 308.0 C 247.0 302.0 247.0 298.0 252.0 299.0 C 254.0 295.0 257.0 292.0 263.0 290.0 C 267.0 285.0 271.0 282.0 275.0 282.0 C 281.0 279.0 285.0 277.0 288.0 274.0 C 292.0 272.0 296.0 270.0 302.0 268.0 C 307.0 266.0 311.0 267.0 315.0 263.0 C 320.0 263.0 325.0 262.0 330.0 259.0 C 335.0 260.0 338.0 258.0 341.0 259.0 C 346.0 259.0 350.0 256.0 351.0 256.0" stroke-width="0.0" fill="rgb(218, 117, 42)" opacity="1.0" stroke="rgb(61, 87, 80)" stroke-opacity="0.49966338" stroke-linecap="round" stroke-linejoin="round"/>
    <path d="M 136.0 189.0 C 137.0 189.0 138.0 190.0 139.0 190.0 C 140.0 190.0 141.0 190.0 142.0 191.0 C 143.0 191.0 144.0 191.0 145.0 192.0 C 146.0 192.0 147.0 193.0 148.0 193.0 C 149.0 194.0 150.0 195.0 151.0 195.0 C 152.0 196.0 153.0 197.0 154.0 198.0 C 155.0 199.0 156.0 200.0 156.0 201.0 C 157.0 202.0 158.0 203.0 158.0 204.0 C 159.0 205.0 159.0 206.0 159.0 207.0 C 160.0 208.0 160.0 209.0 160.0 210.0 C 161.0 211.0 161.0 212.0 161.0 213.0 C 161.0 214.0 161.0 215.0 161.0 216.0 C 161.0 217.0 161.0 218.0 161.0 219.0 C 161.0 220.0 160.0 221.0 160.0 222.0 C 160.0 223.0 160.0 224.0 159.0 225.0 C 159.0 226.0 158.0 227.0 158.0 228.0 C 157.0 229.0 157.0 230.0 156.0 231.0 C 156.0 232.0 155.0 233.0 154.0 234.0 C 153.0 235.0 152.0 236.0 151.0 237.0 C 150.0 237.0 149.0 238.0 148.0 239.0 C 147.0 239.0 146.0 240.0 145.0 241.0 C 144.0 241.0 143.0 241.0 142.0 242.0 C 141.0 242.0 140.0 242.0 139.0 242.0 C 138.0 242.0 137.0 242.0 136.0 242.0 C 136.0 241.0 136.0 240.0 137.0 240.0 C 138.0 239.0 139.0 238.0 140.0 237.0 C 141.0 236.0 142.0 235.0 142.0 234.0 C 143.0 233.0 144.0 232.0 144.0 231.0 C 145.0 230.0 145.0 229.0 146.0 228.0 C 146.0 227.0 146.0 226.0 147.0 225.0 C 147.0 224.0 147.0 223.0 147.0 222.0 C 148.0 221.0 148.0 220.0 148.0 219.0 C 148.0 218.0 148.0 217.0 148.0 216.0 C 148.0 215.0 148.0 214.0 148.0 213.0 C 148.0 212.0 147.0 211.0 147.0 210.0 C 147.0 209.0 147.0 208.0 146.0 207.0 C 146.0 206.0 145.0 205.0 145.0 204.0 C 145.0 203.0 144.0 202.0 143.0 201.0 C 143.0 200.0 142.0 199.0 141.0 198.0 C 140.0 197.0 140.0 196.0 139.0 195.0 C 138.0 194.0 137.0 193.0 136.0 193.0 C 135.0 192.0 134.0 191.0 133.0 191.0 C 133.0 190.0 133.0 189.0 136.0 189.0" stroke-width="0.0" fill="rgb(1, 6, 6)" opacity="1.0" stroke="rgb(242, 229, 227)" stroke-opacity="0.89056647" stroke-linecap="round" stroke-linejoin="round"/>
    <path d="M 124.0 196.0 C 125.0 196.0 126.0 196.0 127.0 197.0 C 128.0 197.0 129.0 197.0 130.0 197.0 C 131.0 198.0 132.0 198.0 133.0 198.0 C 133.0 199.0 133.0 200.0 134.0 201.0 C 135.0 202.0 136.0 201.0 136.0 200.0 C 137.0 200.0 138.0 200.0 139.0 201.0 C 140.0 202.0 140.0 203.0 140.0 204.0 C 141.0 205.0 142.0 206.0 143.0 207.0 C 144.0 208.0 144.0 209.0 144.0 210.0 C 144.0 211.0 143.0 212.0 143.0 213.0 C 144.0 214.0 144.0 215.0 145.0 216.0 C 145.0 217.0 145.0 218.0 145.0 219.0 C 144.0 219.0 143.0 220.0 143.0 221.0 C 144.0 222.0 144.0 223.0 144.0 224.0 C 144.0 225.0 143.0 226.0 143.0 227.0 C 142.0 228.0 142.0 229.0 141.0 229.0 C 140.0 230.0 140.0 231.0 139.0 231.0 C 138.0 231.0 137.0 231.0 136.0 231.0 C 135.0 232.0 136.0 233.0 136.0 234.0 C 136.0 235.0 135.0 235.0 134.0 235.0 C 133.0 234.0 132.0 234.0 131.0 234.0 C 130.0 234.0 129.0 234.0 128.0 234.0 C 127.0 234.0 126.0 234.0 125.0 234.0 C 124.0 234.0 123.0 234.0 122.0 234.0 C 121.0 234.0 121.0 233.0 120.0 232.0 C 120.0 231.0 119.0 230.0 118.0 230.0 C 117.0 230.0 116.0 230.0 115.0 230.0 C 115.0 229.0 115.0 228.0 115.0 227.0 C 114.0 226.0 114.0 225.0 113.0 224.0 C 112.0 223.0 111.0 222.0 111.0 221.0 C 111.0 220.0 111.0 219.0 111.0 218.0 C 111.0 217.0 111.0 216.0 111.0 215.0 C 111.0 214.0 111.0 213.0 111.0 212.0 C 112.0 211.0 112.0 210.0 112.0 209.0 C 112.0 208.0 111.0 207.0 110.0 207.0 C 110.0 206.0 110.0 205.0 111.0 205.0 C 112.0 205.0 112.0 206.0 113.0 207.0 C 114.0 207.0 115.0 206.0 115.0 205.0 C 115.0 204.0 115.0 203.0 115.0 202.0 C 115.0 201.0 116.0 201.0 117.0 201.0 C 118.0 201.0 119.0 201.0 120.0 200.0 C 120.0 199.0 121.0 198.0 121.0 197.0 C 122.0 197.0 123.0 196.0 124.0 196.0" stroke-width="0.0" fill="rgb(16, 171, 164)" opacity="1.0" stroke="rgb(19, 110, 138)" stroke-opacity="0.34235802" stroke-linecap="round" stroke-linejoin="round"/>
    <path d="M 705.0 106.0 C 706.0 106.0 707.0 106.0 708.0 106.0 C 709.0 106.0 710.0 106.0 711.0 106.0 C 711.0 107.0 711.0 125.0 711.0 143.0 C 711.0 161.0 711.0 179.0 711.0 197.0 C 711.0 215.0 704.0 227.0 701.0 239.0 C 691.0 247.0 685.0 245.0 685.0 263.0 C 676.0 274.0 659.0 278.0 642.0 276.0 C 628.0 272.0 615.0 276.0 607.0 272.0 C 592.0 268.0 577.0 272.0 580.0 269.0 C 589.0 259.0 605.0 256.0 593.0 248.0 C 579.0 253.0 567.0 247.0 556.0 251.0 C 548.0 258.0 538.0 258.0 536.0 276.0 C 519.0 278.0 509.0 287.0 507.0 305.0 C 506.0 316.0 496.0 326.0 495.0 312.0 C 499.0 296.0 488.0 288.0 480.0 285.0 C 467.0 278.0 456.0 280.0 447.0 273.0 C 439.0 268.0 427.0 267.0 414.0 261.0 C 409.0 265.0 397.0 262.0 385.0 258.0 C 382.0 253.0 372.0 251.0 358.0 254.0 C 346.0 257.0 336.0 260.0 332.0 260.0 C 320.0 262.0 306.0 264.0 291.0 270.0 C 285.0 275.0 268.0 278.0 265.0 284.0 C 257.0 291.0 252.0 298.0 244.0 296.0 C 232.0 296.0 214.0 298.0 201.0 292.0 C 196.0 278.0 199.0 264.0 200.0 248.0 C 191.0 251.0 187.0 240.0 181.0 253.0 C 180.0 239.0 183.0 225.0 172.0 222.0 C 164.0 240.0 151.0 253.0 133.0 254.0 C 115.0 250.0 100.0 236.0 91.0 230.0 C 77.0 223.0 66.0 232.0 50.0 232.0 C 37.0 232.0 26.0 226.0 18.0 213.0 C 10.0 204.0 10.0 186.0 10.0 168.0 C 28.0 160.0 46.0 153.0 64.0 148.0 C 82.0 143.0 100.0 139.0 118.0 136.0 C 135.0 136.0 151.0 133.0 169.0 126.0 C 183.0 127.0 183.0 145.0 183.0 163.0 C 185.0 180.0 172.0 186.0 171.0 195.0 C 171.0 211.0 180.0 202.0 189.0 191.0 C 193.0 178.0 206.0 176.0 200.0 194.0 C 194.0 212.0 203.0 229.0 221.0 236.0 C 238.0 235.0 256.0 230.0 274.0 222.0 C 290.0 207.0 308.0 195.0 325.0 186.0 C 339.0 178.0 345.0 181.0 357.0 172.0 C 369.0 169.0 370.0 181.0 354.0 185.0 C 362.0 197.0 380.0 197.0 390.0 197.0 C 399.0 187.0 403.0 172.0 412.0 181.0 C 426.0 187.0 428.0 169.0 424.0 154.0 C 431.0 157.0 442.0 160.0 435.0 145.0 C 438.0 146.0 448.0 149.0 463.0 144.0 C 471.0 153.0 481.0 163.0 491.0 154.0 C 498.0 165.0 508.0 174.0 510.0 191.0 C 523.0 193.0 533.0 183.0 533.0 173.0 C 536.0 188.0 547.0 187.0 552.0 173.0 C 552.0 155.0 554.0 139.0 550.0 128.0 C 532.0 128.0 517.0 133.0 500.0 132.0 C 498.0 128.0 515.0 124.0 533.0 121.0 C 551.0 118.0 569.0 116.0 587.0 114.0 C 605.0 112.0 623.0 111.0 626.0 120.0 C 632.0 110.0 650.0 109.0 668.0 108.0 C 686.0 107.0 704.0 106.0 705.0 106.0" stroke-width="0.0" fill="rgb(227, 174, 121)" opacity="1.0" stroke="rgb(133, 231, 229)" stroke-opacity="0.29049888" stroke-linecap="round" stroke-linejoin="round"/>
    <path d="M 136.0 178.0 C 137.0 178.0 138.0 178.0 139.0 178.0 C 140.0 178.0 141.0 178.0 142.0 178.0 C 143.0 178.0 144.0 179.0 145.0 179.0 C 146.0 179.0 147.0 179.0 148.0 179.0 C 149.0 178.0 150.0 178.0 151.0 178.0 C 152.0 178.0 153.0 179.0 153.0 180.0 C 153.0 181.0 154.0 182.0 155.0 182.0 C 156.0 182.0 157.0 182.0 158.0 182.0 C 158.0 183.0 158.0 184.0 159.0 185.0 C 159.0 186.0 160.0 187.0 161.0 188.0 C 161.0 189.0 161.0 190.0 162.0 191.0 C 163.0 191.0 164.0 192.0 165.0 192.0 C 165.0 193.0 165.0 194.0 165.0 195.0 C 164.0 195.0 163.0 195.0 162.0 195.0 C 161.0 196.0 161.0 197.0 162.0 198.0 C 163.0 198.0 164.0 197.0 165.0 197.0 C 166.0 197.0 166.0 198.0 166.0 199.0 C 166.0 200.0 165.0 201.0 166.0 202.0 C 166.0 203.0 166.0 204.0 166.0 205.0 C 167.0 206.0 167.0 207.0 168.0 208.0 C 168.0 209.0 168.0 210.0 168.0 211.0 C 167.0 212.0 167.0 213.0 167.0 214.0 C 167.0 215.0 167.0 216.0 167.0 217.0 C 167.0 218.0 167.0 219.0 167.0 220.0 C 167.0 221.0 167.0 222.0 167.0 223.0 C 167.0 224.0 167.0 225.0 167.0 226.0 C 166.0 227.0 166.0 228.0 166.0 229.0 C 166.0 230.0 166.0 231.0 166.0 232.0 C 165.0 233.0 164.0 233.0 163.0 234.0 C 162.0 235.0 162.0 236.0 162.0 237.0 C 162.0 238.0 161.0 239.0 160.0 239.0 C 159.0 240.0 159.0 241.0 158.0 242.0 C 157.0 243.0 156.0 244.0 155.0 244.0 C 154.0 244.0 153.0 244.0 152.0 244.0 C 151.0 244.0 150.0 245.0 149.0 246.0 C 148.0 246.0 147.0 246.0 146.0 247.0 C 146.0 248.0 146.0 249.0 145.0 249.0 C 143.0 250.0 141.0 251.0 139.0 251.0 C 137.0 251.0 136.0 250.0 137.0 248.0 C 135.0 247.0 133.0 248.0 133.0 250.0 C 131.0 250.0 129.0 250.0 127.0 250.0 C 125.0 250.0 123.0 249.0 121.0 249.0 C 120.0 248.0 120.0 246.0 118.0 246.0 C 116.0 247.0 114.0 247.0 112.0 245.0 C 110.0 243.0 108.0 241.0 107.0 239.0 C 105.0 237.0 103.0 236.0 102.0 234.0 C 101.0 232.0 100.0 230.0 100.0 228.0 C 100.0 226.0 99.0 224.0 98.0 222.0 C 96.0 222.0 96.0 220.0 96.0 218.0 C 96.0 216.0 96.0 214.0 96.0 212.0 C 96.0 210.0 96.0 208.0 98.0 207.0 C 99.0 205.0 100.0 203.0 100.0 201.0 C 100.0 199.0 101.0 197.0 102.0 196.0 C 103.0 194.0 105.0 192.0 106.0 190.0 C 107.0 188.0 109.0 188.0 111.0 186.0 C 113.0 185.0 115.0 186.0 116.0 184.0 C 117.0 183.0 119.0 183.0 121.0 182.0 C 121.0 180.0 123.0 179.0 125.0 179.0 C 127.0 179.0 129.0 179.0 131.0 179.0 C 133.0 179.0 135.0 178.0 136.0 178.0" stroke-width="0.0" fill="rgb(158, 188, 156)" opacity="1.0" stroke="rgb(153, 158, 117)" stroke-opacity="0.8970211" stroke-linecap="round" stroke-linejoin="round"/>
    <path d="M 243.0 77.0 C 244.0 77.0 245.0 77.0 246.0 78.0 C 246.0 79.0 246.0 80.0 245.0 81.0 C 245.0 82.0 244.0 83.0 243.0 84.0 C 242.0 84.0 241.0 85.0 240.0 85.0 C 239.0 86.0 240.0 87.0 240.0 88.0 C 240.0 89.0 239.0 90.0 238.0 91.0 C 238.0 92.0 238.0 93.0 237.0 94.0 C 237.0 95.0 237.0 96.0 237.0 97.0 C 237.0 98.0 237.0 99.0 237.0 100.0 C 236.0 101.0 236.0 102.0 236.0 103.0 C 236.0 104.0 236.0 105.0 235.0 105.0 C 234.0 105.0 233.0 105.0 233.0 104.0 C 232.0 103.0 231.0 104.0 230.0 105.0 C 229.0 106.0 229.0 107.0 228.0 107.0 C 227.0 107.0 227.0 106.0 226.0 105.0 C 225.0 104.0 225.0 103.0 225.0 102.0 C 225.0 101.0 226.0 100.0 225.0 99.0 C 225.0 98.0 225.0 97.0 224.0 96.0 C 224.0 95.0 224.0 94.0 224.0 93.0 C 225.0 92.0 225.0 91.0 226.0 91.0 C 227.0 91.0 228.0 90.0 228.0 89.0 C 229.0 88.0 229.0 87.0 229.0 86.0 C 229.0 85.0 230.0 85.0 231.0 85.0 C 232.0 84.0 232.0 83.0 232.0 82.0 C 233.0 82.0 234.0 81.0 235.0 81.0 C 236.0 81.0 237.0 81.0 238.0 80.0 C 238.0 79.0 239.0 78.0 240.0 78.0 C 241.0 78.0 242.0 77.0 243.0 77.0" stroke-width="0.0" fill="rgb(212, 176, 66)" opacity="1.0" stroke="rgb(198, 101, 198)" stroke-opacity="0.9718016" stroke-linecap="round" stroke-linejoin="round"/>
    <path d="M 101.0 259.0 C 102.0 259.0 103.0 259.0 104.0 259.0 C 104.0 260.0 104.0 261.0 104.0 262.0 C 104.0 263.0 104.0 264.0 105.0 265.0 C 106.0 265.0 107.0 266.0 108.0 267.0 C 108.0 268.0 109.0 269.0 110.0 269.0 C 111.0 269.0 112.0 270.0 113.0 270.0 C 114.0 270.0 114.0 271.0 114.0 272.0 C 114.0 273.0 114.0 274.0 115.0 275.0 C 115.0 276.0 115.0 277.0 114.0 278.0 C 114.0 279.0 114.0 280.0 114.0 281.0 C 114.0 282.0 115.0 283.0 115.0 284.0 C 115.0 285.0 115.0 286.0 115.0 287.0 C 115.0 288.0 114.0 289.0 113.0 290.0 C 113.0 291.0 113.0 292.0 112.0 292.0 C 111.0 292.0 110.0 292.0 109.0 293.0 C 109.0 294.0 109.0 295.0 109.0 296.0 C 109.0 297.0 109.0 298.0 109.0 299.0 C 108.0 300.0 107.0 300.0 106.0 300.0 C 106.0 299.0 106.0 298.0 105.0 297.0 C 104.0 296.0 103.0 296.0 102.0 296.0 C 101.0 296.0 101.0 295.0 101.0 294.0 C 102.0 294.0 103.0 294.0 104.0 294.0 C 105.0 294.0 106.0 293.0 106.0 292.0 C 105.0 291.0 104.0 291.0 103.0 291.0 C 102.0 291.0 101.0 291.0 100.0 291.0 C 99.0 291.0 98.0 291.0 97.0 291.0 C 96.0 290.0 95.0 289.0 94.0 290.0 C 94.0 291.0 93.0 291.0 92.0 291.0 C 92.0 290.0 92.0 289.0 93.0 288.0 C 92.0 287.0 91.0 286.0 90.0 286.0 C 89.0 286.0 88.0 286.0 87.0 286.0 C 87.0 285.0 87.0 284.0 87.0 283.0 C 86.0 282.0 85.0 282.0 84.0 282.0 C 83.0 282.0 82.0 282.0 81.0 282.0 C 80.0 283.0 80.0 284.0 80.0 285.0 C 80.0 286.0 79.0 286.0 78.0 286.0 C 77.0 286.0 77.0 285.0 77.0 284.0 C 77.0 283.0 77.0 282.0 77.0 281.0 C 77.0 280.0 77.0 279.0 76.0 278.0 C 75.0 278.0 74.0 278.0 73.0 278.0 C 72.0 278.0 71.0 278.0 70.0 278.0 C 70.0 277.0 70.0 276.0 70.0 275.0 C 71.0 275.0 72.0 275.0 72.0 276.0 C 72.0 277.0 73.0 278.0 74.0 278.0 C 75.0 277.0 75.0 276.0 75.0 275.0 C 75.0 274.0 75.0 273.0 76.0 273.0 C 77.0 272.0 77.0 271.0 78.0 270.0 C 78.0 269.0 79.0 269.0 80.0 269.0 C 81.0 269.0 82.0 269.0 83.0 268.0 C 83.0 267.0 83.0 266.0 84.0 265.0 C 84.0 264.0 84.0 263.0 84.0 262.0 C 84.0 261.0 83.0 260.0 82.0 260.0 C 81.0 260.0 82.0 260.0 83.0 260.0 C 84.0 260.0 84.0 261.0 84.0 262.0 C 84.0 263.0 84.0 264.0 85.0 265.0 C 86.0 265.0 87.0 264.0 87.0 263.0 C 87.0 262.0 87.0 261.0 87.0 260.0 C 88.0 260.0 89.0 260.0 90.0 260.0 C 92.0 260.0 94.0 260.0 96.0 260.0 C 98.0 260.0 100.0 259.0 101.0 259.0" stroke-width="0.0" fill="rgb(214, 172, 207)" opacity="1.0" stroke="rgb(83, 129, 216)" stroke-opacity="0.17184016" stroke-linecap="round" stroke-linejoin="round"/>
    <path d="M 349.0 331.0 C 350.0 331.0 351.0 331.0 352.0 331.0 C 353.0 331.0 354.0 331.0 355.0 331.0 C 356.0 331.0 357.0 331.0 358.0 331.0 C 359.0 331.0 360.0 331.0 361.0 331.0 C 362.0 331.0 363.0 331.0 363.0 332.0 C 363.0 333.0 363.0 334.0 364.0 335.0 C 365.0 336.0 366.0 336.0 367.0 336.0 C 368.0 336.0 369.0 336.0 370.0 337.0 C 371.0 337.0 372.0 337.0 373.0 337.0 C 374.0 337.0 375.0 337.0 376.0 337.0 C 377.0 337.0 378.0 337.0 378.0 338.0 C 378.0 339.0 378.0 340.0 378.0 341.0 C 378.0 342.0 378.0 343.0 378.0 344.0 C 378.0 345.0 379.0 346.0 380.0 346.0 C 381.0 346.0 382.0 346.0 382.0 347.0 C 382.0 348.0 382.0 349.0 382.0 350.0 C 382.0 351.0 382.0 352.0 382.0 353.0 C 382.0 354.0 381.0 354.0 380.0 354.0 C 379.0 354.0 378.0 355.0 378.0 356.0 C 378.0 357.0 378.0 358.0 378.0 359.0 C 378.0 360.0 378.0 361.0 378.0 362.0 C 378.0 363.0 377.0 363.0 376.0 363.0 C 375.0 363.0 374.0 364.0 373.0 365.0 C 373.0 366.0 373.0 367.0 373.0 368.0 C 373.0 369.0 373.0 370.0 373.0 371.0 C 373.0 372.0 373.0 373.0 372.0 373.0 C 371.0 373.0 370.0 373.0 369.0 373.0 C 368.0 373.0 367.0 373.0 366.0 373.0 C 365.0 373.0 364.0 373.0 363.0 374.0 C 363.0 375.0 363.0 376.0 363.0 377.0 C 363.0 378.0 362.0 378.0 361.0 378.0 C 360.0 378.0 359.0 378.0 358.0 378.0 C 357.0 378.0 356.0 378.0 356.0 377.0 C 356.0 376.0 356.0 375.0 356.0 374.0 C 355.0 373.0 354.0 373.0 353.0 373.0 C 352.0 373.0 351.0 373.0 350.0 373.0 C 349.0 373.0 348.0 373.0 347.0 373.0 C 346.0 373.0 345.0 373.0 344.0 373.0 C 343.0 373.0 342.0 373.0 341.0 373.0 C 341.0 372.0 341.0 371.0 341.0 370.0 C 340.0 369.0 339.0 369.0 338.0 369.0 C 337.0 369.0 337.0 368.0 337.0 367.0 C 337.0 366.0 337.0 365.0 336.0 364.0 C 336.0 363.0 336.0 362.0 336.0 361.0 C 336.0 360.0 335.0 359.0 334.0 359.0 C 333.0 359.0 332.0 359.0 331.0 359.0 C 331.0 358.0 331.0 357.0 331.0 356.0 C 331.0 355.0 331.0 354.0 331.0 353.0 C 331.0 352.0 331.0 351.0 331.0 350.0 C 332.0 350.0 333.0 350.0 334.0 350.0 C 335.0 350.0 336.0 349.0 336.0 348.0 C 336.0 347.0 336.0 346.0 337.0 345.0 C 337.0 344.0 337.0 343.0 337.0 342.0 C 337.0 341.0 338.0 341.0 339.0 341.0 C 340.0 341.0 341.0 340.0 341.0 339.0 C 341.0 338.0 341.0 337.0 342.0 337.0 C 343.0 337.0 344.0 337.0 345.0 336.0 C 346.0 335.0 346.0 334.0 346.0 333.0 C 346.0 332.0 346.0 331.0 349.0 331.0" stroke-width="0.0" fill="rgb(228, 50, 36)" opacity="1.0" stroke="rgb(148, 83, 196)" stroke-opacity="0.7283891" stroke-linecap="round" stroke-linejoin="round"/>
    <path d="M 178.0 123.0 C 179.0 123.0 180.0 123.0 181.0 123.0 C 182.0 123.0 183.0 123.0 183.0 124.0 C 183.0 125.0 183.0 126.0 183.0 127.0 C 183.0 128.0 183.0 129.0 183.0 130.0 C 183.0 131.0 183.0 132.0 183.0 133.0 C 183.0 134.0 183.0 135.0 183.0 136.0 C 183.0 137.0 183.0 138.0 183.0 139.0 C 183.0 140.0 183.0 141.0 183.0 142.0 C 183.0 143.0 183.0 144.0 183.0 145.0 C 183.0 146.0 183.0 147.0 183.0 148.0 C 183.0 149.0 183.0 150.0 183.0 151.0 C 183.0 152.0 183.0 153.0 183.0 154.0 C 183.0 155.0 183.0 156.0 183.0 157.0 C 183.0 158.0 183.0 159.0 183.0 160.0 C 183.0 161.0 183.0 162.0 183.0 163.0 C 183.0 164.0 183.0 165.0 183.0 166.0 C 183.0 167.0 183.0 168.0 183.0 169.0 C 183.0 170.0 183.0 171.0 183.0 172.0 C 182.0 172.0 181.0 173.0 181.0 174.0 C 181.0 175.0 181.0 176.0 181.0 177.0 C 181.0 178.0 181.0 179.0 180.0 179.0 C 179.0 179.0 178.0 179.0 177.0 179.0 C 176.0 178.0 175.0 178.0 174.0 178.0 C 173.0 178.0 172.0 179.0 171.0 180.0 C 170.0 180.0 169.0 180.0 168.0 180.0 C 167.0 179.0 166.0 179.0 165.0 179.0 C 164.0 179.0 163.0 179.0 163.0 178.0 C 163.0 177.0 162.0 176.0 161.0 175.0 C 160.0 174.0 159.0 173.0 158.0 172.0 C 157.0 172.0 156.0 171.0 156.0 170.0 C 155.0 169.0 154.0 169.0 154.0 168.0 C 154.0 167.0 153.0 166.0 153.0 165.0 C 153.0 164.0 152.0 163.0 151.0 162.0 C 151.0 161.0 151.0 160.0 150.0 159.0 C 150.0 158.0 150.0 157.0 149.0 156.0 C 149.0 155.0 149.0 154.0 148.0 153.0 C 147.0 152.0 147.0 151.0 147.0 150.0 C 147.0 149.0 147.0 148.0 147.0 147.0 C 147.0 146.0 147.0 145.0 147.0 144.0 C 146.0 143.0 146.0 142.0 146.0 141.0 C 146.0 140.0 146.0 139.0 146.0 138.0 C 146.0 137.0 146.0 136.0 147.0 136.0 C 148.0 135.0 148.0 134.0 148.0 133.0 C 149.0 133.0 150.0 133.0 151.0 133.0 C 152.0 133.0 153.0 133.0 154.0 133.0 C 155.0 133.0 156.0 133.0 157.0 134.0 C 158.0 133.0 159.0 133.0 160.0 132.0 C 161.0 131.0 162.0 130.0 163.0 129.0 C 164.0 129.0 165.0 128.0 166.0 127.0 C 167.0 127.0 168.0 126.0 169.0 126.0 C 170.0 125.0 171.0 125.0 172.0 125.0 C 173.0 124.0 174.0 124.0 175.0 124.0 C 176.0 124.0 177.0 123.0 178.0 123.0" stroke-width="0.0" fill="rgb(143, 179, 120)" opacity="1.0" stroke="rgb(15, 58, 83)" stroke-opacity="0.084441826" stroke-linecap="round" stroke-linejoin="round"/>
    <path d="M 328.0 365.0 C 329.0 365.0 330.0 365.0 331.0 365.0 C 332.0 365.0 333.0 365.0 334.0 365.0 C 335.0 365.0 336.0 365.0 336.0 366.0 C 336.0 367.0 336.0 368.0 336.0 369.0 C 335.0 370.0 335.0 371.0 335.0 372.0 C 335.0 373.0 336.0 374.0 337.0 374.0 C 338.0 374.0 339.0 374.0 340.0 374.0 C 341.0 374.0 342.0 374.0 343.0 374.0 C 344.0 374.0 345.0 374.0 346.0 374.0 C 347.0 374.0 348.0 374.0 349.0 374.0 C 349.0 375.0 349.0 376.0 349.0 377.0 C 349.0 378.0 349.0 379.0 350.0 380.0 C 351.0 380.0 352.0 380.0 353.0 380.0 C 354.0 380.0 354.0 381.0 354.0 382.0 C 354.0 383.0 353.0 383.0 352.0 383.0 C 351.0 383.0 350.0 383.0 349.0 383.0 C 348.0 383.0 347.0 383.0 346.0 383.0 C 345.0 383.0 344.0 383.0 343.0 383.0 C 342.0 383.0 341.0 383.0 340.0 383.0 C 339.0 383.0 338.0 383.0 337.0 383.0 C 336.0 383.0 336.0 382.0 336.0 381.0 C 336.0 380.0 336.0 379.0 336.0 378.0 C 336.0 377.0 336.0 376.0 336.0 375.0 C 335.0 374.0 334.0 373.0 333.0 373.0 C 332.0 373.0 331.0 373.0 330.0 373.0 C 329.0 373.0 328.0 373.0 327.0 373.0 C 327.0 372.0 327.0 371.0 327.0 370.0 C 327.0 369.0 326.0 368.0 326.0 367.0 C 326.0 366.0 326.0 365.0 328.0 365.0" stroke-width="0.0" fill="rgb(229, 56, 39)" opacity="1.0" stroke="rgb(23, 151, 108)" stroke-opacity="0.65990394" stroke-linecap="round" stroke-linejoin="round"/>
    <path d="M 320.0 40.0 C 321.0 40.0 322.0 40.0 322.0 41.0 C 322.0 42.0 321.0 43.0 320.0 43.0 C 319.0 44.0 318.0 45.0 317.0 46.0 C 316.0 47.0 315.0 48.0 314.0 49.0 C 313.0 50.0 312.0 51.0 312.0 52.0 C 311.0 53.0 310.0 54.0 310.0 55.0 C 309.0 56.0 309.0 57.0 309.0 58.0 C 308.0 59.0 308.0 60.0 308.0 61.0 C 308.0 62.0 307.0 63.0 307.0 64.0 C 307.0 65.0 307.0 66.0 306.0 66.0 C 306.0 65.0 306.0 64.0 306.0 63.0 C 306.0 62.0 306.0 61.0 306.0 60.0 C 306.0 59.0 306.0 58.0 306.0 57.0 C 305.0 56.0 304.0 56.0 303.0 56.0 C 302.0 57.0 302.0 58.0 302.0 59.0 C 302.0 60.0 302.0 61.0 301.0 61.0 C 300.0 61.0 300.0 60.0 300.0 59.0 C 301.0 58.0 301.0 57.0 302.0 56.0 C 303.0 55.0 303.0 54.0 303.0 53.0 C 304.0 52.0 304.0 51.0 305.0 50.0 C 306.0 49.0 307.0 48.0 308.0 47.0 C 309.0 46.0 310.0 45.0 311.0 44.0 C 312.0 44.0 313.0 43.0 314.0 43.0 C 315.0 42.0 316.0 42.0 317.0 41.0 C 318.0 41.0 319.0 40.0 320.0 40.0" stroke-width="0.0" fill="rgb(202, 137, 57)" opacity="1.0" stroke="rgb(102, 233, 186)" stroke-opacity="0.9633597" stroke-linecap="round" stroke-linejoin="round"/>
    <path d="M 118.0 265.0 C 119.0 266.0 119.0 267.0 120.0 268.0 C 121.0 269.0 122.0 270.0 122.0 271.0 C 122.0 272.0 123.0 273.0 123.0 274.0 C 124.0 275.0 124.0 276.0 124.0 277.0 C 125.0 278.0 125.0 279.0 125.0 280.0 C 125.0 281.0 125.0 282.0 125.0 283.0 C 125.0 284.0 125.0 285.0 125.0 286.0 C 125.0 287.0 124.0 288.0 124.0 289.0 C 124.0 290.0 124.0 291.0 123.0 292.0 C 123.0 293.0 122.0 293.0 121.0 294.0 C 121.0 295.0 121.0 296.0 121.0 297.0 C 120.0 298.0 119.0 299.0 119.0 300.0 C 118.0 300.0 117.0 300.0 117.0 299.0 C 117.0 298.0 118.0 297.0 118.0 296.0 C 119.0 295.0 119.0 294.0 120.0 293.0 C 120.0 292.0 120.0 291.0 120.0 290.0 C 121.0 291.0 122.0 291.0 123.0 291.0 C 124.0 290.0 124.0 289.0 124.0 288.0 C 123.0 287.0 122.0 287.0 121.0 287.0 C 121.0 286.0 121.0 285.0 121.0 284.0 C 121.0 283.0 121.0 282.0 121.0 281.0 C 121.0 280.0 122.0 280.0 123.0 280.0 C 124.0 279.0 124.0 278.0 124.0 277.0 C 123.0 276.0 122.0 276.0 121.0 276.0 C 120.0 277.0 120.0 276.0 120.0 275.0 C 120.0 274.0 119.0 273.0 119.0 272.0 C 119.0 271.0 118.0 270.0 117.0 269.0 C 117.0 268.0 116.0 267.0 115.0 266.0 C 115.0 265.0 115.0 264.0 118.0 265.0" stroke-width="0.0" fill="rgb(4, 1, 4)" opacity="1.0" stroke="rgb(13, 48, 71)" stroke-opacity="0.33492255" stroke-linecap="round" stroke-linejoin="round"/>
    <path d="M 305.0 58.0 C 305.0 59.0 305.0 60.0 305.0 61.0 C 305.0 62.0 305.0 63.0 305.0 64.0 C 305.0 65.0 305.0 66.0 306.0 67.0 C 307.0 67.0 307.0 68.0 307.0 69.0 C 307.0 70.0 307.0 71.0 307.0 72.0 C 307.0 73.0 308.0 74.0 308.0 75.0 C 307.0 74.0 306.0 73.0 306.0 72.0 C 305.0 71.0 304.0 71.0 303.0 71.0 C 302.0 72.0 301.0 72.0 300.0 73.0 C 300.0 74.0 300.0 73.0 300.0 72.0 C 300.0 71.0 300.0 70.0 300.0 69.0 C 300.0 68.0 300.0 67.0 300.0 66.0 C 300.0 65.0 300.0 64.0 300.0 63.0 C 300.0 62.0 301.0 62.0 302.0 62.0 C 303.0 61.0 303.0 60.0 303.0 59.0 C 303.0 58.0 303.0 57.0 305.0 58.0" stroke-width="0.0" fill="rgb(211, 136, 63)" opacity="1.0" stroke="rgb(98, 103, 94)" stroke-opacity="0.5791388" stroke-linecap="round" stroke-linejoin="round"/>
  </g>
</svg>
