<?xml version="1.0" ?>
<svg xmlns="http://www.w3.org/2000/svg" version="1.1" width="512" height="512">
  <defs/>
  <g>
    <path d="M 443.09088134765625 205.51763916015625 C 447.06097412109375 227.3146514892578 447.9892272949219 213.60504150390625 465.6577453613281 237.8092041015625 C 473.236328125 250.89346313476562 476.7874450683594 257.77496337890625 478.7911376953125 272.8636169433594 C 479.6178894042969 277.31292724609375 479.6588439941406 295.091796875 478.223876953125 301.6088562011719 C 477.39251708984375 310.22943115234375 474.1841735839844 320.69573974609375 471.0296630859375 327.02911376953125 C 469.461181640625 332.5090026855469 465.4664611816406 337.7398986816406 462.7799377441406 342.2834777832031 C 466.1712341308594 335.2527770996094 463.51031494140625 342.1459655761719 465.14288330078125 340.27740478515625 C 465.97125244140625 339.67315673828125 465.5870056152344 339.73040771484375 464.6820983886719 339.87847900390625 C 465.39788818359375 339.1252136230469 464.4223327636719 340.2449035644531 463.3983459472656 339.7239074707031 C 464.46099853515625 341.19036865234375 464.3061218261719 336.4737548828125 464.700439453125 340.4293212890625 C 465.5628967285156 337.217529296875 463.2967529296875 341.1239318847656 458.01617431640625 346.74395751953125 C 455.5192565917969 349.5678405761719 446.60089111328125 356.3994445800781 438.6602783203125 354.5306701660156 C 441.46832275390625 356.0723876953125 429.2505187988281 351.7567443847656 417.9461364746094 354.30474853515625 C 402.7321472167969 357.3930969238281 412.6015625 360.2841491699219 396.0848388671875 365.5181579589844 C 381.0396423339844 367.0909729003906 386.51153564453125 362.5597839355469 351.7438659667969 362.79364013671875 C 320.8283996582031 365.21563720703125 347.082275390625 372.6808166503906 313.46160888671875 389.4443054199219 C 323.6246643066406 365.99658203125 326.1897277832031 352.40594482421875 332.0821533203125 319.8593444824219 C 356.1949462890625 320.4366149902344 335.4102783203125 332.34521484375 350.5794677734375 343.6576843261719 C 365.48162841796875 346.7121887207031 379.0182189941406 352.3846130371094 391.73321533203125 351.4367370605469 C 395.26177978515625 347.7147216796875 397.86474609375 344.6536865234375 403.9595947265625 341.9823303222656 C 409.1562805175781 339.8237609863281 421.3708190917969 338.19927978515625 433.79913330078125 342.3246765136719 C 424.0675964355469 339.4709777832031 437.5577697753906 344.20648193359375 439.0492248535156 341.8930969238281 C 437.3685607910156 344.0069580078125 446.16375732421875 335.4383239746094 444.9392395019531 337.2700500488281 C 444.1795654296875 337.9815979003906 447.12994384765625 333.8542175292969 443.46966552734375 337.8601989746094 C 450.4860534667969 330.53717041015625 450.619384765625 329.4421691894531 447.8760070800781 331.8147888183594 C 452.0794982910156 328.5890808105469 448.1455383300781 332.4971008300781 451.4046325683594 328.5381164550781 C 449.68035888671875 331.19219970703125 452.8134460449219 328.8910217285156 449.21795654296875 329.56158447265625 C 452.2777404785156 328.9486083984375 450.5334167480469 328.7333068847656 450.4790954589844 329.5390625 C 451.815673828125 329.0650634765625 449.9520263671875 329.00518798828125 453.038818359375 328.0149230957031 C 450.50921630859375 329.0597839355469 450.425537109375 328.04736328125 451.9764099121094 328.9925537109375 C 451.51971435546875 327.94146728515625 450.9775390625 329.6669616699219 450.10626220703125 329.4188232421875 C 450.8359375 330.1761169433594 450.9154357910156 328.085205078125 450.458251953125 330.59283447265625 C 451.4811706542969 327.9736633300781 448.945556640625 329.8013000488281 450.4586486816406 329.0046691894531 C 450.48553466796875 329.3600158691406 449.4024963378906 330.919677734375 452.42041015625 327.5387268066406 C 453.3000793457031 327.4673156738281 452.3357849121094 327.1874084472656 448.9626770019531 331.95001220703125 C 450.4717712402344 329.4949645996094 457.67767333984375 322.4498291015625 461.4366760253906 303.2786865234375 C 462.3743591308594 307.3536071777344 460.361572265625 305.46185302734375 461.4619140625 307.35345458984375 C 460.588134765625 307.3178405761719 461.9281311035156 305.24127197265625 461.4902038574219 306.6168518066406 C 460.5836486816406 308.08209228515625 462.12579345703125 303.50048828125 461.0232238769531 308.4001159667969 C 462.3347473144531 303.0146179199219 461.8768310546875 303.7755432128906 461.29144287109375 307.7494201660156 C 461.5477294921875 303.1119079589844 459.8795471191406 303.4825439453125 461.6826477050781 304.7843322753906 C 461.3257751464844 308.8323974609375 463.69134521484375 300.73980712890625 460.97027587890625 308.3013610839844 C 461.170166015625 303.3833923339844 464.535400390625 293.0072937011719 462.8088073730469 277.6397705078125 C 462.9940490722656 274.0526123046875 459.19989013671875 255.1526336669922 452.2319030761719 247.7733612060547 C 446.1606750488281 235.59039306640625 421.57427978515625 214.14227294921875 407.71868896484375 242.41001892089844 C 385.3898620605469 223.86709594726562 323.9083557128906 252.01495361328125 443.09088134765625 205.51763916015625" stroke-width="0.0" fill="rgb(74, 65, 41)" opacity="0.9991119" stroke="rgb(25, 218, 179)" stroke-opacity="0.81168795" stroke-linecap="round" stroke-linejoin="round"/>
    <path d="M 265.6327819824219 258.9533996582031 C 275.0479431152344 261.2070617675781 276.3869323730469 263.9043884277344 278.32427978515625 264.39739990234375 C 279.51702880859375 265.2544250488281 287.4621276855469 274.24041748046875 284.3564758300781 285.0263671875 C 284.26324462890625 278.34088134765625 284.74786376953125 284.35107421875 282.3387145996094 287.81634521484375 C 283.0055236816406 287.5958557128906 282.9302062988281 284.7667236328125 282.2831115722656 287.8538818359375 C 285.72509765625 281.51171875 281.6349182128906 290.3619689941406 274.8327941894531 295.14910888671875 C 280.2249755859375 291.3938903808594 274.12054443359375 295.3858337402344 274.94085693359375 294.59967041015625 C 276.17010498046875 292.3773193359375 273.4148254394531 296.08782958984375 275.7295837402344 293.92889404296875 C 274.9938049316406 296.2930908203125 267.5303649902344 300.8418273925781 273.7599792480469 295.5132751464844 C 270.72216796875 298.4145202636719 268.0646057128906 301.6240539550781 267.2254333496094 300.5766906738281 C 268.4229431152344 300.43798828125 265.651123046875 301.0959777832031 268.1215515136719 299.189453125 C 265.42352294921875 301.4692687988281 267.59844970703125 299.7265625 267.4330139160156 300.0834655761719 C 270.0226745605469 300.2998352050781 265.9788818359375 302.00396728515625 267.7995300292969 300.2958984375 C 266.29803466796875 301.5743103027344 265.2250671386719 302.2960510253906 267.2354736328125 301.6902770996094 C 261.5233154296875 303.9423522949219 254.86785888671875 307.6881103515625 261.760009765625 304.02276611328125 C 258.3149108886719 306.44903564453125 247.61192321777344 310.6102600097656 245.2314910888672 309.16522216796875 C 247.73085021972656 308.87103271484375 254.2262420654297 309.7688903808594 239.80361938476562 310.09130859375 C 248.5009002685547 309.07257080078125 240.79751586914062 310.35113525390625 237.306640625 310.9512939453125 C 236.43202209472656 311.2893981933594 241.4875030517578 310.40985107421875 237.56443786621094 310.5064392089844 C 235.15634155273438 310.5790710449219 236.31846618652344 310.2487487792969 238.18515014648438 310.5724182128906 C 233.8767852783203 310.2080383300781 243.67898559570312 309.73565673828125 238.22528076171875 310.6556396484375 C 225.5854949951172 309.983642578125 223.6214599609375 314.0447082519531 221.48675537109375 316.64642333984375 C 222.85397338867188 316.5714416503906 220.28164672851562 317.52716064453125 220.624755859375 322.3733215332031 C 221.73751831054688 332.4903259277344 229.7982177734375 336.39642333984375 236.3644256591797 340.704345703125 C 243.82672119140625 347.1705322265625 249.4540557861328 354.5103454589844 246.3960418701172 367.6839599609375 C 232.9614715576172 394.2989807128906 243.5780792236328 362.1920471191406 239.9391326904297 356.71588134765625 C 236.3956756591797 343.6456604003906 214.78964233398438 340.17041015625 211.5716552734375 332.2314758300781 C 205.72866821289062 323.8235168457031 220.6779327392578 314.9086608886719 192.6616668701172 316.8799743652344 C 202.4384307861328 302.660888671875 215.9531707763672 310.6277160644531 218.14552307128906 311.7193603515625 C 220.17831420898438 311.263671875 225.1651153564453 301.0005187988281 217.54873657226562 292.8178405761719 C 211.0985565185547 282.55767822265625 197.56954956054688 274.6856689453125 199.34046936035156 259.9345397949219 C 205.18443298339844 240.57119750976562 200.13421630859375 255.89016723632812 186.94815063476562 246.24664306640625 C 241.754150390625 234.43341064453125 206.4944610595703 258.6705627441406 207.0355224609375 256.08062744140625 C 198.276611328125 270.47607421875 215.0590057373047 278.05908203125 218.63446044921875 283.4091491699219 C 224.541259765625 288.8489990234375 230.1536102294922 296.6703796386719 229.49197387695312 296.5165710449219 C 235.05084228515625 301.8608703613281 244.73094177246094 299.96990966796875 238.49391174316406 300.9584655761719 C 242.20037841796875 298.45648193359375 239.9155731201172 300.61395263671875 238.63453674316406 299.8657531738281 C 241.7757568359375 301.193359375 241.789306640625 302.3459777832031 241.9819793701172 300.004150390625 C 242.73167419433594 303.003173828125 236.89871215820312 297.4391784667969 241.03521728515625 303.22564697265625 C 236.57923889160156 297.9986877441406 243.97279357910156 302.2913513183594 239.14169311523438 299.5022888183594 C 245.66952514648438 303.9059143066406 240.4525909423828 300.450927734375 242.03512573242188 301.7506408691406 C 238.86688232421875 300.2526550292969 241.5842742919922 299.85443115234375 238.83184814453125 300.17193603515625 C 242.5463104248047 300.9752502441406 237.4199981689453 300.95001220703125 238.88572692871094 300.169921875 C 239.88894653320312 299.8642883300781 241.82215881347656 301.42041015625 238.43698120117188 299.919677734375 C 241.73641967773438 302.2702941894531 256.1779479980469 298.5290832519531 248.5212860107422 300.1478576660156 C 253.99429321289062 299.1858215332031 256.6340637207031 297.2446594238281 256.1332702636719 297.9939880371094 C 255.55043029785156 297.8084716796875 258.07110595703125 297.2434997558594 256.3702392578125 297.8309020996094 C 257.23504638671875 297.1396179199219 257.07061767578125 297.9229431152344 256.1938781738281 297.4468078613281 C 254.41799926757812 297.91265869140625 259.0703430175781 296.61376953125 265.1029968261719 293.0809326171875 C 258.95062255859375 295.98602294921875 262.69403076171875 294.1863098144531 262.62103271484375 294.47662353515625 C 259.67938232421875 295.35601806640625 269.6539306640625 292.6904296875 270.5726623535156 285.9450378417969 C 268.4384460449219 293.447509765625 269.193603515625 287.8806457519531 270.3126220703125 289.3229675292969 C 270.0812072753906 288.98089599609375 268.9888610839844 289.1461486816406 269.3173522949219 290.5269470214844 C 268.7151794433594 289.57098388671875 274.5196838378906 282.96868896484375 272.26214599609375 274.5959777832031 C 273.281982421875 282.0510559082031 272.8751525878906 276.68310546875 272.9794006347656 274.86163330078125 C 272.48907470703125 280.8614196777344 273.1573791503906 277.6669006347656 272.9198913574219 278.40087890625 C 272.2421569824219 269.94158935546875 265.460205078125 262.962158203125 267.34063720703125 265.4836730957031 C 264.198486328125 262.2471923828125 256.9387512207031 264.2265930175781 260.155029296875 263.11138916015625 C 263.356689453125 262.6531982421875 254.2681121826172 264.8835754394531 254.59933471679688 264.3591613769531 C 244.81137084960938 267.8840026855469 245.35211181640625 268.2788391113281 244.40606689453125 266.6148376464844 C 242.88587951660156 267.28021240234375 242.48532104492188 259.7407531738281 265.6327819824219 258.9533996582031" stroke-width="0.0" fill="rgb(72, 62, 39)" opacity="0.9972963" stroke="rgb(6, 196, 117)" stroke-opacity="0.84052944" stroke-linecap="round" stroke-linejoin="round"/>
    <path d="M 390.537841796875 418.8372802734375 C 389.4725341796875 417.7582702636719 394.3184814453125 418.4029846191406 389.39691162109375 418.6662902832031 C 398.3896789550781 417.2493896484375 399.178466796875 418.73345947265625 399.5692443847656 428.8004455566406 C 399.20135498046875 421.7109680175781 399.27490234375 428.7159423828125 399.3602294921875 422.8614807128906 C 399.2838134765625 423.20513916015625 398.40386962890625 433.2201232910156 397.6664123535156 429.74932861328125 C 399.1749267578125 431.9744567871094 396.0614013671875 433.4183349609375 398.2281188964844 431.5552062988281 C 395.78973388671875 432.5460205078125 400.2007751464844 428.8614501953125 396.5077209472656 431.9149475097656 C 388.4476318359375 431.6095886230469 393.97808837890625 431.0364990234375 390.0419921875 431.1625671386719 C 394.21929931640625 432.52667236328125 388.89996337890625 431.06146240234375 393.8363037109375 430.7236328125 C 393.1008605957031 432.4703063964844 388.1239929199219 430.69122314453125 393.0220031738281 433.3387145996094 C 387.03955078125 430.62530517578125 390.5426940917969 433.29827880859375 388.2412414550781 432.2984924316406 C 391.9687194824219 431.718994140625 388.7680358886719 432.2589416503906 388.2115783691406 432.9691467285156 C 390.8860778808594 431.83099365234375 387.1824035644531 433.32550048828125 389.59576416015625 432.58135986328125 C 389.60858154296875 430.8597412109375 382.34417724609375 438.04827880859375 376.3329772949219 443.4846496582031 C 383.6932678222656 437.4478454589844 377.3430480957031 442.8230285644531 379.5862121582031 439.7298889160156 C 379.2597351074219 440.5630187988281 376.67901611328125 442.356689453125 377.5264892578125 442.1089172363281 C 378.4661560058594 440.99835205078125 375.1333923339844 443.5625915527344 378.9535217285156 441.5502014160156 C 370.6989440917969 447.5376281738281 372.4955749511719 446.0365905761719 375.7122802734375 444.38720703125 C 372.0852966308594 445.4708557128906 376.842529296875 444.3548583984375 372.57318115234375 445.42919921875 C 376.9656982421875 443.836181640625 370.321533203125 448.5170593261719 373.9924011230469 444.9525451660156 C 371.409423828125 447.63421630859375 365.33642578125 450.449462890625 367.4226379394531 448.4084777832031 C 366.4842529296875 450.35418701171875 367.0921630859375 447.3216552734375 366.9103088378906 450.1531066894531 C 366.5732727050781 449.0787048339844 365.54925537109375 448.53887939453125 367.2086486816406 450.0746154785156 C 366.75726318359375 449.3492126464844 366.892578125 451.5281677246094 365.5786437988281 447.9781494140625 C 365.88922119140625 450.3312683105469 368.0658874511719 448.4273376464844 370.38665771484375 449.027099609375 C 370.0513000488281 448.4028625488281 364.4698791503906 448.91693115234375 363.6157531738281 449.2367858886719 C 365.1509094238281 449.00421142578125 369.01434326171875 448.0617370605469 362.70330810546875 449.98199462890625 C 369.11871337890625 448.330078125 365.3375244140625 447.8817138671875 357.4531555175781 448.2698974609375 C 364.51226806640625 447.9090881347656 371.0586242675781 448.3450012207031 362.4954833984375 451.3108825683594 C 354.1110534667969 452.9734802246094 353.5091552734375 453.8028564453125 356.3791198730469 452.2398986816406 C 355.4022216796875 452.9614562988281 356.9437255859375 452.89337158203125 352.666748046875 452.674560546875 C 354.3394775390625 451.4985046386719 355.39093017578125 450.78582763671875 352.3381652832031 452.99462890625 C 356.8375549316406 452.0634460449219 353.62347412109375 454.86767578125 357.5669860839844 451.8856506347656 C 356.5069274902344 452.6303405761719 358.2914733886719 451.9117126464844 352.9399108886719 451.13623046875 C 362.4961242675781 452.87652587890625 356.8146667480469 452.5545349121094 358.3125915527344 452.3066711425781 C 358.03302001953125 451.6170349121094 361.0964050292969 453.00360107421875 346.231201171875 452.62890625 C 337.0680847167969 451.4892272949219 332.1806640625 446.9188232421875 325.3233947753906 446.6727294921875 C 317.7286071777344 444.8502502441406 311.8382263183594 448.4989929199219 301.66650390625 455.9937744140625 C 280.8147888183594 472.2994384765625 263.41436767578125 452.9517822265625 267.86444091796875 465.691162109375 C 303.4087219238281 469.4823303222656 219.1909942626953 476.7084045410156 164.93243408203125 472.50604248046875 C 144.3037567138672 476.17529296875 145.04527282714844 452.1769714355469 125.07789611816406 468.46087646484375 C 135.36050415039062 419.3916320800781 106.02965545654297 440.651123046875 162.77218627929688 447.3017578125 C 180.8203125 451.1918640136719 251.3063201904297 452.99920654296875 272.8929443359375 444.245361328125 C 294.4726867675781 430.9508361816406 285.62921142578125 444.2075500488281 310.1678466796875 437.7205810546875 C 332.4551086425781 432.10125732421875 331.5108337402344 439.62298583984375 347.35693359375 444.3488464355469 C 338.6964416503906 442.76361083984375 352.9493103027344 445.41998291015625 349.9999084472656 444.3467102050781 C 348.25518798828125 445.3426818847656 357.635009765625 444.8970947265625 348.3135986328125 444.6271057128906 C 351.80816650390625 444.7299499511719 356.3118896484375 446.0316162109375 344.93463134765625 444.0416259765625 C 362.0262451171875 447.9580383300781 366.6383361816406 439.7981872558594 362.7539367675781 444.2557678222656 C 362.80010986328125 442.78704833984375 362.07464599609375 442.7069396972656 361.4505920410156 443.8548583984375 C 364.2586975097656 442.98272705078125 362.5199279785156 442.6366882324219 366.3215026855469 440.7983703613281 C 362.3938903808594 441.07513427734375 370.1005554199219 440.5573425292969 363.833251953125 442.1986999511719 C 371.240234375 438.0595397949219 378.6820373535156 431.2751159667969 379.1783752441406 429.4151916503906 C 377.5303649902344 432.6169128417969 377.29876708984375 431.6619873046875 376.6893005371094 430.79437255859375 C 377.89617919921875 433.0123291015625 376.49267578125 429.3103942871094 377.5748596191406 431.4217834472656 C 375.6665344238281 433.0042419433594 379.4996643066406 428.67999267578125 376.5314636230469 432.933349609375 C 376.8240051269531 431.5484924316406 385.2693176269531 420.7461242675781 390.2201232910156 418.06121826171875 C 385.13458251953125 421.76068115234375 390.2066650390625 418.153564453125 389.4922790527344 419.2097473144531 C 392.84002685546875 418.47576904296875 386.9029541015625 419.0966491699219 385.11041259765625 423.3771057128906 C 386.69012451171875 419.3481140136719 385.94696044921875 423.1368408203125 386.8443298339844 421.169677734375 C 386.5544128417969 422.66839599609375 384.7044372558594 420.9906311035156 390.537841796875 418.8372802734375" stroke-width="0.0" fill="rgb(71, 62, 38)" opacity="0.9963878" stroke="rgb(247, 152, 166)" stroke-opacity="0.9878934" stroke-linecap="round" stroke-linejoin="round"/>
    <path d="M 103.14583587646484 137.69741821289062 C 119.3458023071289 132.3775634765625 136.0825653076172 128.15444946289062 153.05528259277344 124.440185546875 C 169.90426635742188 121.41090393066406 186.60610961914062 118.89550018310547 202.42031860351562 117.3859634399414 C 217.2231903076172 116.5665512084961 230.557373046875 116.35648345947266 241.56214904785156 116.43624114990234 C 249.52879333496094 116.33606719970703 253.77357482910156 116.94285583496094 253.7422332763672 118.26400756835938 C 249.1432342529297 120.16922760009766 240.8798828125 122.41272735595703 230.13783264160156 124.65641021728516 C 217.9154510498047 125.63761901855469 204.79986572265625 126.49846649169922 191.40670776367188 128.22300720214844 C 178.59913635253906 130.1818389892578 167.0218505859375 131.88290405273438 156.52081298828125 133.30496215820312 C 147.5220489501953 134.60882568359375 140.31744384765625 136.318603515625 134.67678833007812 137.72427368164062 C 130.3150177001953 138.24240112304688 127.41520690917969 138.9479217529297 126.10205078125 139.65130615234375 C 125.44683837890625 139.98428344726562 125.31969451904297 140.02603149414062 125.59530639648438 139.6533203125 C 126.17338562011719 139.35398864746094 126.78828430175781 138.8277587890625 127.14825439453125 138.2301483154297 C 127.25025939941406 137.85081481933594 127.23717498779297 137.79348754882812 127.23060607910156 138.0658416748047 C 126.97494506835938 138.68862915039062 126.32746124267578 139.16964721679688 125.47174072265625 139.7200927734375 C 124.45691680908203 140.4247283935547 123.201171875 141.26165771484375 121.81513977050781 141.984375 C 120.24591064453125 142.32778930664062 118.31983947753906 142.2788848876953 116.14136505126953 141.95248413085938 C 113.7116470336914 141.6230010986328 111.3046646118164 141.13304138183594 109.64984130859375 140.80140686035156 C 109.24108123779297 140.83428955078125 110.28936767578125 140.90635681152344 113.34597778320312 141.5602264404297 C 119.12369537353516 142.53480529785156 127.91184997558594 143.46884155273438 140.32273864746094 143.50296020507812 C 157.0523681640625 142.4984893798828 176.67156982421875 140.4974822998047 199.98556518554688 137.29127502441406 C 226.1337432861328 130.70626831054688 256.35858154296875 133.8135986328125 291.8404235839844 137.39596557617188 C 329.9679870605469 138.91957092285156 361.99566650390625 146.1155548095703 377.99066162109375 158.3415985107422 C 369.25579833984375 166.87515258789062 340.9966735839844 169.69476318359375 303.4651794433594 171.7904510498047 C 268.4312744140625 175.90460205078125 245.71902465820312 166.11708068847656 236.45950317382812 145.5369110107422 C 224.7445526123047 143.2724609375 210.83473205566406 147.35916137695312 194.94947814941406 149.88751220703125 C 178.81761169433594 153.10037231445312 164.7411346435547 155.97662353515625 151.61485290527344 158.04942321777344 C 140.0693359375 158.62338256835938 130.36367797851562 159.03599548339844 122.4743881225586 159.18067932128906 C 116.49769592285156 158.6345672607422 111.9986801147461 158.83441162109375 109.45267486572266 158.71197509765625 C 108.75170135498047 158.14682006835938 108.95350646972656 158.37466430664062 109.83908081054688 158.23568725585938 C 111.01326751708984 158.01473999023438 112.3085708618164 157.54156494140625 113.75533294677734 156.87960815429688 C 115.4294662475586 156.36856079101562 117.19243621826172 156.33447265625 118.82420349121094 156.6222381591797 C 119.68498992919922 156.96307373046875 119.81275177001953 157.04074096679688 119.59809875488281 157.01019287109375 C 119.2431411743164 156.81866455078125 118.7274169921875 156.50889587402344 117.97754669189453 156.38265991210938 C 116.97093963623047 156.371826171875 115.74555206298828 156.38844299316406 114.32481384277344 156.81527709960938 C 112.9197006225586 157.72413635253906 111.35525512695312 158.39346313476562 109.65889739990234 158.62770080566406 C 107.57376861572266 158.00694274902344 105.08357238769531 157.29547119140625 102.603515625 157.1092529296875 C 100.38671112060547 156.7761688232422 98.92923736572266 155.84136962890625 98.38031005859375 154.15040588378906 C 98.53409576416016 151.57525634765625 98.4116439819336 149.4412841796875 97.12513732910156 148.27072143554688 C 94.53428649902344 148.04737854003906 89.82266235351562 149.17935180664062 84.6320571899414 151.19190979003906 C 79.40808868408203 153.67434692382812 74.9912109375 156.9407958984375 73.15283203125 161.3692169189453 C 75.23638153076172 166.5729522705078 77.20320129394531 173.6337890625 77.85205078125 183.40380859375 C 79.61294555664062 195.2706756591797 81.5244369506836 207.72998046875 81.46045684814453 219.47853088378906 C 79.54317474365234 229.0440216064453 76.18286895751953 234.039306640625 72.46939086914062 232.57647705078125 C 70.16278839111328 224.50088500976562 68.91632843017578 211.6580047607422 66.99834442138672 196.63970947265625 C 63.70193862915039 181.61802673339844 60.49812698364258 167.92674255371094 60.04301834106445 156.24349975585938 C 62.79011154174805 147.84683227539062 67.66095733642578 142.0745391845703 73.93367767333984 137.9512481689453 C 79.1580581665039 134.98167419433594 85.1711196899414 132.79603576660156 90.78487396240234 132.35694885253906 C 95.47183227539062 131.80853271484375 99.80105590820312 131.2569580078125 103.29380798339844 131.8341827392578 C 106.01563262939453 132.48275756835938 108.06633758544922 132.9888916015625 109.53759765625 133.3649139404297 C 110.31631469726562 133.62083435058594 110.39884185791016 133.7853546142578 110.06778717041016 133.53067016601562 C 109.5816650390625 132.83212280273438 108.6299819946289 132.1410369873047 107.08895874023438 132.66555786132812 C 105.5401840209961 132.3751983642578 103.9916000366211 132.0282745361328 102.47863006591797 131.80296325683594 C 101.11851501464844 131.81263732910156 99.9399185180664 131.72039794921875 99.05203247070312 131.53013610839844 C 98.67582702636719 131.4766082763672 98.71752166748047 131.46456909179688 99.00296020507812 131.5784149169922 C 99.74952697753906 131.9203338623047 100.97242736816406 131.98736572265625 102.13587951660156 131.75830078125 C 103.68183898925781 131.9306640625 105.54229736328125 132.94744873046875 107.44103240966797 133.6327362060547 C 109.65819549560547 133.21783447265625 112.0461654663086 133.1360321044922 114.7743148803711 133.380126953125 C 117.20825958251953 133.48155212402344 119.6676025390625 133.29786682128906 122.3088607788086 132.72799682617188 C 125.2757797241211 131.5509796142578 128.870361328125 130.6702117919922 132.744140625 129.96278381347656 C 136.4564971923828 128.82208251953125 140.24612426757812 127.94682312011719 144.323486328125 126.81832885742188 C 148.38275146484375 125.7432632446289 152.58404541015625 124.27796936035156 103.14583587646484 137.69741821289062" stroke-width="0.0" fill="rgb(76, 65, 40)" opacity="0.9965521" stroke="rgb(182, 219, 4)" stroke-opacity="0.52783203" stroke-linecap="round" stroke-linejoin="round"/>
    <path d="M 81.24158477783203 204.1627960205078 C 87.26177978515625 240.24307250976562 93.0388412475586 274.8752136230469 98.8326416015625 306.56964111328125 C 103.5848617553711 333.9677429199219 106.76143646240234 356.59698486328125 112.01131439208984 373.4436340332031 C 117.67223358154297 385.57806396484375 122.05401611328125 393.9105529785156 125.84654235839844 398.3634948730469 C 127.38196563720703 400.7606506347656 127.64897918701172 400.8221435546875 126.37541961669922 399.544921875 C 124.11000061035156 397.5390625 121.62861633300781 395.30255126953125 119.41099548339844 393.3927307128906 C 118.51502227783203 391.85772705078125 118.50371551513672 391.84808349609375 120.22711181640625 393.62677001953125 C 124.04730224609375 397.4921569824219 130.1348114013672 403.548828125 139.5205078125 411.32720947265625 C 153.1078338623047 420.01727294921875 171.24188232421875 427.4073791503906 192.27244567871094 432.4738464355469 C 213.48403930664062 434.2767028808594 232.20196533203125 431.39794921875 245.5096435546875 429.23577880859375 C 248.84336853027344 432.9400939941406 241.22213745117188 437.11676025390625 225.25096130371094 440.56231689453125 C 204.5924530029297 443.28375244140625 182.25294494628906 442.7527770996094 160.653564453125 439.0419921875 C 142.03268432617188 435.770263671875 128.37136840820312 430.5743408203125 119.38645935058594 423.55633544921875 C 113.47594451904297 417.32342529296875 110.09896087646484 412.29742431640625 107.13577270507812 409.9863586425781 C 104.8755874633789 408.820068359375 102.70262145996094 408.32940673828125 101.74334716796875 407.507080078125 C 101.78514862060547 407.29052734375 101.6202392578125 407.4561462402344 101.43164825439453 407.7246398925781 C 101.79072570800781 407.8399353027344 102.76539611816406 407.55926513671875 103.66334533691406 407.19573974609375 C 104.34626770019531 406.9621276855469 105.06949615478516 406.6861267089844 105.80072784423828 406.3703918457031 C 106.25450897216797 406.07073974609375 106.59848022460938 405.879638671875 106.76969146728516 405.85076904296875 C 106.78306579589844 405.8365783691406 106.7128677368164 405.83575439453125 106.5238037109375 405.89959716796875 C 106.13921356201172 406.0045166015625 105.53999328613281 406.28076171875 104.79216003417969 406.7427978515625 C 103.88751220703125 407.2198791503906 102.87944793701172 407.4892578125 101.70108032226562 407.50860595703125 C 100.4091796875 407.4949035644531 99.13742065429688 407.5167236328125 97.88972473144531 407.3278503417969 C 96.54539489746094 406.8824157714844 95.4638900756836 406.79156494140625 94.6180648803711 406.824462890625 C 93.9668197631836 406.8456115722656 93.2625961303711 406.9166564941406 92.5352554321289 406.82086181640625 C 92.16105651855469 406.2079772949219 92.00093078613281 405.2434387207031 91.78952026367188 404.0411071777344 C 91.3814926147461 402.70257568359375 90.75809478759766 401.3706359863281 90.3570327758789 400.091064453125 C 90.17698669433594 398.9821472167969 90.12397003173828 398.0077819824219 90.02547454833984 397.3086242675781 C 89.81391906738281 396.8642883300781 89.82450103759766 396.7245788574219 89.77484893798828 396.86248779296875 C 89.92322540283203 397.24383544921875 90.18276977539062 397.8380126953125 90.3998031616211 398.6968688964844 C 90.65116882324219 399.67431640625 90.8764877319336 400.7430114746094 91.09066009521484 401.81024169921875 C 91.5694580078125 402.9214782714844 91.85517883300781 404.14080810546875 92.06934356689453 405.2784423828125 C 92.34159088134766 405.87158203125 92.43580627441406 406.026611328125 92.16047668457031 405.6390380859375 C 91.55272674560547 405.18292236328125 90.940185546875 405.322509765625 90.11111450195312 406.52587890625 C 88.67008972167969 407.3901062011719 86.93698120117188 407.945068359375 84.90049743652344 407.87957763671875 C 83.02643585205078 408.2330017089844 81.10018920898438 408.42706298828125 79.15682983398438 408.2669982910156 C 77.25975799560547 407.67205810546875 75.51959228515625 407.39202880859375 74.04554748535156 407.039306640625 C 72.49214935302734 406.63128662109375 70.99761199951172 405.99365234375 69.95440673828125 404.89874267578125 C 69.4714584350586 403.4786376953125 69.32466125488281 402.34027099609375 69.53984069824219 401.0708923339844 C 70.1357421875 399.8507995605469 70.95476531982422 398.4322204589844 71.51410675048828 396.9639892578125 C 72.4752426147461 395.79248046875 73.11759185791016 394.4356994628906 73.96354675292969 393.0399475097656 C 74.92204284667969 392.0787658691406 76.0256576538086 391.2939758300781 77.30891418457031 390.38946533203125 C 78.53458404541016 389.6906433105469 79.42486572265625 388.8914794921875 79.8894271850586 387.9932556152344 C 80.34235382080078 387.10498046875 81.1728286743164 386.6182556152344 82.42052459716797 386.4122314453125 C 83.56629180908203 385.786865234375 84.8577651977539 384.9967041015625 86.36410522460938 384.4978942871094 C 87.97344970703125 384.2250061035156 89.423583984375 383.93157958984375 90.88079071044922 383.64520263671875 C 92.2010498046875 383.2566833496094 93.335205078125 383.22027587890625 94.17583465576172 383.66168212890625 C 94.48760986328125 383.77178955078125 94.5160140991211 383.5743103027344 94.42332458496094 383.2171936035156 C 94.50413513183594 383.1822204589844 94.73539733886719 383.1854248046875 94.8595962524414 382.9742736816406 C 94.91358184814453 383.2335510253906 95.26652526855469 383.68255615234375 95.99209594726562 383.2783508300781 C 97.16183471679688 383.30828857421875 99.0440902709961 383.50164794921875 101.13153076171875 383.56549072265625 C 103.13243103027344 384.14947509765625 104.875732421875 385.0623474121094 106.55221557617188 385.9948425292969 C 107.74584197998047 386.8628234863281 108.7552490234375 387.49169921875 109.61455535888672 387.6205139160156 C 110.00179290771484 387.11944580078125 110.16519927978516 385.9481506347656 110.20182037353516 384.3634033203125 C 110.00198364257812 382.9794921875 109.83946990966797 381.6360168457031 109.44652557373047 380.5347595214844 C 108.21453094482422 379.8816833496094 105.9311294555664 378.9478759765625 103.31411743164062 376.6473083496094 C 100.02479553222656 371.4606018066406 96.52568817138672 362.608642578125 93.49176788330078 349.9281005859375 C 89.92491149902344 333.2706298828125 86.23391723632812 313.0368347167969 82.86295318603516 289.71820068359375 C 78.67687225341797 264.8520812988281 71.4026107788086 239.790771484375 81.24158477783203 204.1627960205078" stroke-width="0.0" fill="rgb(74, 63, 39)" opacity="0.99802464" stroke="rgb(186, 222, 251)" stroke-opacity="0.37455836" stroke-linecap="round" stroke-linejoin="round"/>
    <path d="M 369.0 170.0 C 370.0 170.0 370.0 171.0 370.0 172.0 C 371.0 173.0 370.0 174.0 370.0 175.0 C 370.0 176.0 371.0 177.0 370.0 177.0 C 369.0 178.0 369.0 179.0 369.0 180.0 C 370.0 181.0 371.0 181.0 372.0 181.0 C 372.0 182.0 373.0 183.0 374.0 184.0 C 375.0 184.0 375.0 185.0 375.0 186.0 C 375.0 185.0 374.0 184.0 373.0 184.0 C 372.0 184.0 371.0 185.0 371.0 186.0 C 371.0 187.0 372.0 188.0 373.0 188.0 C 374.0 188.0 374.0 189.0 374.0 190.0 C 373.0 189.0 372.0 189.0 371.0 189.0 C 370.0 190.0 369.0 191.0 369.0 192.0 C 370.0 193.0 371.0 193.0 372.0 194.0 C 372.0 195.0 372.0 196.0 372.0 197.0 C 372.0 198.0 371.0 198.0 370.0 198.0 C 369.0 199.0 370.0 200.0 371.0 200.0 C 371.0 201.0 371.0 202.0 371.0 203.0 C 370.0 204.0 370.0 205.0 370.0 206.0 C 370.0 208.0 369.0 210.0 368.0 211.0 C 366.0 211.0 365.0 213.0 365.0 215.0 C 366.0 217.0 367.0 218.0 366.0 219.0 C 364.0 220.0 362.0 220.0 362.0 222.0 C 364.0 222.0 366.0 222.0 367.0 224.0 C 369.0 224.0 371.0 224.0 371.0 226.0 C 373.0 227.0 375.0 227.0 377.0 226.0 C 377.0 224.0 378.0 225.0 379.0 227.0 C 381.0 227.0 382.0 225.0 383.0 224.0 C 385.0 224.0 386.0 225.0 385.0 226.0 C 383.0 227.0 381.0 228.0 379.0 229.0 C 377.0 229.0 375.0 230.0 373.0 231.0 C 371.0 233.0 370.0 235.0 370.0 237.0 C 370.0 238.0 368.0 240.0 366.0 241.0 C 364.0 241.0 362.0 242.0 361.0 243.0 C 359.0 243.0 359.0 241.0 359.0 239.0 C 360.0 241.0 362.0 241.0 364.0 241.0 C 366.0 239.0 366.0 237.0 367.0 235.0 C 367.0 233.0 366.0 231.0 368.0 231.0 C 369.0 229.0 368.0 227.0 366.0 227.0 C 365.0 225.0 363.0 225.0 361.0 225.0 C 360.0 224.0 360.0 222.0 358.0 221.0 C 356.0 219.0 354.0 219.0 352.0 219.0 C 351.0 221.0 349.0 222.0 349.0 224.0 C 351.0 225.0 353.0 225.0 351.0 225.0 C 350.0 227.0 349.0 229.0 348.0 230.0 C 347.0 232.0 347.0 234.0 346.0 235.0 C 346.0 233.0 346.0 231.0 347.0 229.0 C 348.0 228.0 349.0 226.0 349.0 224.0 C 349.0 222.0 349.0 220.0 350.0 218.0 C 350.0 216.0 350.0 214.0 351.0 212.0 C 351.0 210.0 351.0 208.0 351.0 206.0 C 351.0 204.0 352.0 202.0 352.0 200.0 C 352.0 198.0 352.0 196.0 351.0 194.0 C 351.0 192.0 351.0 190.0 353.0 189.0 C 351.0 188.0 351.0 186.0 352.0 184.0 C 352.0 182.0 353.0 181.0 355.0 181.0 C 356.0 183.0 358.0 182.0 360.0 182.0 C 361.0 180.0 362.0 179.0 364.0 178.0 C 366.0 177.0 367.0 175.0 368.0 174.0 C 368.0 172.0 368.0 170.0 369.0 170.0" stroke-width="0.0" fill="rgb(73, 62, 36)" opacity="1.0" stroke="rgb(199, 131, 27)" stroke-opacity="0.023791261" stroke-linecap="round" stroke-linejoin="round"/>
    <path d="M 235.0 147.0 C 236.0 147.0 237.0 148.0 237.0 149.0 C 238.0 150.0 238.0 151.0 239.0 152.0 C 240.0 153.0 240.0 154.0 241.0 155.0 C 242.0 156.0 243.0 157.0 244.0 158.0 C 245.0 159.0 246.0 160.0 247.0 161.0 C 248.0 162.0 249.0 162.0 250.0 163.0 C 251.0 164.0 252.0 165.0 253.0 165.0 C 254.0 166.0 255.0 166.0 256.0 167.0 C 257.0 167.0 258.0 167.0 259.0 168.0 C 260.0 168.0 259.0 168.0 258.0 168.0 C 257.0 168.0 256.0 167.0 255.0 167.0 C 254.0 167.0 253.0 166.0 252.0 166.0 C 251.0 166.0 250.0 166.0 249.0 166.0 C 248.0 166.0 247.0 166.0 246.0 166.0 C 245.0 166.0 244.0 166.0 243.0 166.0 C 242.0 166.0 241.0 166.0 240.0 166.0 C 239.0 166.0 238.0 166.0 237.0 166.0 C 236.0 166.0 235.0 166.0 234.0 166.0 C 233.0 166.0 232.0 167.0 232.0 168.0 C 232.0 169.0 231.0 168.0 230.0 168.0 C 229.0 168.0 229.0 167.0 229.0 166.0 C 229.0 165.0 229.0 164.0 228.0 163.0 C 227.0 163.0 226.0 163.0 225.0 163.0 C 224.0 164.0 223.0 164.0 222.0 164.0 C 221.0 164.0 220.0 164.0 219.0 164.0 C 218.0 164.0 217.0 164.0 216.0 164.0 C 215.0 164.0 214.0 164.0 213.0 164.0 C 212.0 164.0 211.0 164.0 210.0 164.0 C 209.0 165.0 209.0 166.0 208.0 166.0 C 207.0 166.0 206.0 166.0 205.0 166.0 C 204.0 166.0 203.0 166.0 202.0 166.0 C 201.0 166.0 200.0 166.0 200.0 165.0 C 200.0 164.0 199.0 163.0 198.0 163.0 C 197.0 163.0 196.0 162.0 195.0 162.0 C 194.0 162.0 194.0 161.0 193.0 160.0 C 192.0 160.0 192.0 159.0 191.0 158.0 C 190.0 158.0 189.0 158.0 188.0 159.0 C 188.0 160.0 188.0 161.0 189.0 162.0 C 190.0 162.0 189.0 162.0 188.0 162.0 C 187.0 162.0 186.0 162.0 185.0 162.0 C 184.0 162.0 183.0 162.0 182.0 162.0 C 181.0 162.0 180.0 162.0 179.0 162.0 C 178.0 163.0 178.0 164.0 178.0 165.0 C 177.0 165.0 176.0 165.0 176.0 164.0 C 175.0 163.0 174.0 163.0 173.0 163.0 C 174.0 163.0 175.0 163.0 176.0 162.0 C 177.0 162.0 178.0 162.0 179.0 161.0 C 179.0 160.0 179.0 159.0 180.0 159.0 C 181.0 159.0 182.0 159.0 183.0 158.0 C 184.0 158.0 186.0 158.0 188.0 157.0 C 190.0 157.0 192.0 157.0 194.0 156.0 C 196.0 156.0 198.0 155.0 200.0 155.0 C 202.0 155.0 204.0 156.0 206.0 155.0 C 208.0 155.0 210.0 155.0 210.0 157.0 C 212.0 157.0 212.0 155.0 212.0 153.0 C 213.0 152.0 215.0 151.0 217.0 151.0 C 219.0 150.0 221.0 150.0 223.0 149.0 C 225.0 149.0 227.0 149.0 228.0 149.0 C 229.0 151.0 231.0 151.0 233.0 151.0 C 234.0 149.0 234.0 147.0 235.0 147.0" stroke-width="0.0" fill="rgb(74, 63, 38)" opacity="1.0" stroke="rgb(47, 174, 176)" stroke-opacity="0.6312269" stroke-linecap="round" stroke-linejoin="round"/>
  </g>
</svg>
