<?xml version="1.0" ?>
<svg xmlns="http://www.w3.org/2000/svg" version="1.1" width="512" height="512">
  <defs/>
  <g>
    <path d="M 442.77386474609375 205.74530029296875 C 446.1133728027344 225.18331909179688 447.6412048339844 214.2210235595703 465.2984619140625 237.30458068847656 C 472.8530578613281 249.93565368652344 476.40582275390625 258.2947998046875 478.4696350097656 272.1694030761719 C 479.7322082519531 281.39794921875 479.6829833984375 292.0279235839844 478.2130432128906 302.8485107421875 C 476.72467041015625 311.6968078613281 474.4416198730469 320.31793212890625 471.1601867675781 326.6661682128906 C 469.4238586425781 332.0794677734375 465.7146911621094 337.1438903808594 463.0550537109375 342.3204345703125 C 466.554443359375 335.7992858886719 462.7179260253906 341.7016906738281 464.560546875 339.38262939453125 C 465.5620422363281 340.1985778808594 461.366943359375 335.1528625488281 464.6099548339844 339.5758972167969 C 464.7037048339844 339.84881591796875 464.1308288574219 337.9412841796875 464.80572509765625 335.7047424316406 C 464.7531433105469 336.1880798339844 464.2879638671875 339.6814880371094 464.2406921386719 339.2791442871094 C 466.3597717285156 336.22601318359375 463.39385986328125 341.45245361328125 457.63433837890625 346.8748474121094 C 455.80926513671875 349.4816589355469 445.9295959472656 356.052001953125 439.316650390625 354.5406494140625 C 438.5805969238281 354.9583740234375 428.5245361328125 351.9769287109375 417.65533447265625 354.4237060546875 C 403.0705261230469 357.594482421875 412.4605712890625 360.9233093261719 395.0980529785156 365.6347961425781 C 384.7262268066406 367.11480712890625 382.08148193359375 362.6974182128906 352.9649353027344 362.8882141113281 C 319.8541259765625 364.6338806152344 346.8512268066406 373.9358825683594 315.8395690917969 385.65557861328125 C 322.5313720703125 366.46240234375 326.5262756347656 353.3143005371094 331.82110595703125 321.35675048828125 C 352.4330139160156 320.0172119140625 336.5901184082031 337.3707580566406 351.9433898925781 343.9396057128906 C 365.9786376953125 347.0717468261719 380.2147521972656 352.11761474609375 391.6020812988281 351.6567077636719 C 395.9804382324219 348.0891418457031 397.30615234375 344.737548828125 405.3648986816406 341.5630187988281 C 409.9442138671875 339.9129333496094 421.8159484863281 338.28363037109375 429.86090087890625 341.5848693847656 C 427.7109069824219 339.6004943847656 435.3418884277344 343.93310546875 438.5408020019531 342.2775573730469 C 437.65704345703125 342.6119384765625 446.35467529296875 335.9541931152344 445.6737060546875 336.0940246582031 C 447.04742431640625 334.3419494628906 451.6725158691406 329.0111999511719 446.1728515625 335.5185241699219 C 451.111572265625 328.9119873046875 452.9375915527344 327.3789367675781 450.9886474609375 332.3830871582031 C 453.70404052734375 326.2654113769531 447.6275329589844 330.8435974121094 451.8470153808594 328.47967529296875 C 448.7153015136719 331.0285339355469 452.3534240722656 328.3447570800781 449.97088623046875 329.5218505859375 C 452.1724548339844 327.694580078125 451.3721008300781 328.4792785644531 450.5351867675781 329.3637390136719 C 450.7421569824219 327.5821228027344 450.2784423828125 330.6503601074219 452.6459045410156 328.0877990722656 C 449.89990234375 331.24957275390625 449.9284973144531 329.1865234375 451.6986083984375 328.6295166015625 C 451.19232177734375 327.1131286621094 451.81341552734375 328.8449401855469 450.9573669433594 328.4245910644531 C 451.8570861816406 329.3301086425781 451.3258361816406 327.2434997558594 449.8074035644531 330.7107238769531 C 451.6470642089844 328.0324401855469 448.0501403808594 332.6274108886719 451.87689208984375 327.9751281738281 C 451.57073974609375 329.3180847167969 447.46697998046875 331.810302734375 452.34423828125 327.73052978515625 C 453.4978942871094 327.9620666503906 452.2012023925781 326.69195556640625 449.78521728515625 330.7486267089844 C 451.04248046875 329.08013916015625 456.9443359375 322.55865478515625 461.1817321777344 305.3045654296875 C 460.3596496582031 308.2378845214844 459.9175720214844 308.1220703125 462.6152648925781 308.6060791015625 C 459.3952941894531 308.47247314453125 461.4623718261719 306.40863037109375 461.0478820800781 307.36212158203125 C 460.0782470703125 308.9622802734375 460.3424377441406 304.3813781738281 460.2911682128906 308.6689758300781 C 463.7295227050781 303.01812744140625 462.6478576660156 304.1242370605469 461.6708068847656 306.54754638671875 C 461.1361999511719 301.4146423339844 461.58856201171875 303.3254089355469 462.01123046875 301.3308410644531 C 460.3089294433594 302.02960205078125 464.0960388183594 302.08221435546875 459.5101623535156 309.005859375 C 461.7919616699219 302.8227844238281 464.85003662109375 293.3410339355469 462.78643798828125 277.4659423828125 C 462.72625732421875 273.8961486816406 459.6587219238281 256.71759033203125 453.2755126953125 249.2469482421875 C 448.0882873535156 237.43515014648438 421.8743591308594 212.58950805664062 407.4261169433594 242.74807739257812 C 401.8507385253906 228.5743408203125 336.9336242675781 245.75592041015625 442.77386474609375 205.74530029296875" stroke-width="0.0" fill="rgb(74, 65, 41)" opacity="0.99915874" stroke="rgb(25, 218, 179)" stroke-opacity="0.81168795" stroke-linecap="round" stroke-linejoin="round"/>
    <path d="M 266.2708740234375 259.0394592285156 C 270.877685546875 260.5674133300781 275.04913330078125 262.51934814453125 278.5465087890625 265.09222412109375 C 281.2542724609375 267.7987060546875 283.060302734375 270.8276672363281 284.2096252441406 274.1275939941406 C 285.03253173828125 276.9898986816406 285.29034423828125 279.7275085449219 284.9171447753906 282.1999816894531 C 283.9379577636719 284.0570983886719 282.8069763183594 285.775390625 281.8497314453125 287.5152587890625 C 281.05072021484375 289.07421875 280.0090026855469 290.27239990234375 278.9072265625 291.2149963378906 C 278.0538024902344 292.4407043457031 277.0882568359375 293.2824401855469 276.1083984375 293.90380859375 C 274.90130615234375 294.0914611816406 274.2040710449219 294.61102294921875 273.9695129394531 295.6298522949219 C 273.6650085449219 296.5259704589844 272.9811706542969 296.9705505371094 272.23846435546875 297.08038330078125 C 271.7822265625 297.2016906738281 271.52398681640625 297.38897705078125 271.2320861816406 297.6789245605469 C 270.7441101074219 298.2090148925781 269.85205078125 298.9810485839844 268.5733947753906 299.911376953125 C 267.79266357421875 301.015869140625 266.6288146972656 301.47125244140625 265.45220947265625 301.9787292480469 C 264.46759033203125 302.55517578125 263.6807861328125 303.0174255371094 263.0878601074219 303.46600341796875 C 262.5321044921875 303.7126770019531 262.1628723144531 303.62933349609375 261.6262512207031 303.99346923828125 C 260.83685302734375 304.67822265625 260.12005615234375 305.3702087402344 259.2341003417969 305.9213562011719 C 257.9787292480469 306.2805480957031 256.6109313964844 306.739013671875 255.2709197998047 307.31768798828125 C 253.86849975585938 307.7679443359375 252.54971313476562 308.19537353515625 251.41363525390625 308.580810546875 C 250.08607482910156 308.9142150878906 248.40203857421875 309.3837585449219 246.5126495361328 309.698486328125 C 245.0176239013672 309.7175598144531 243.9813995361328 309.6016540527344 243.2960662841797 309.32904052734375 C 242.21585083007812 309.9391784667969 240.30935668945312 310.48382568359375 237.7025909423828 310.6271667480469 C 234.4468231201172 310.46417236328125 231.5027313232422 310.3874816894531 229.26853942871094 311.1395263671875 C 226.91940307617188 311.9823913574219 224.52940368652344 313.2377014160156 222.48463439941406 315.1285400390625 C 220.65846252441406 317.5552673339844 220.03060913085938 321.1705322265625 221.11032104492188 325.6904296875 C 223.03126525878906 331.03289794921875 228.24169921875 335.6863098144531 235.71266174316406 340.2479248046875 C 243.1499481201172 345.76287841796875 247.28099060058594 353.1488037109375 247.27734375 360.22216796875 C 244.51255798339844 363.3184509277344 241.33926391601562 360.1575622558594 238.2210693359375 352.29302978515625 C 232.14134216308594 345.4079895019531 222.83682250976562 340.8302001953125 214.2555694580078 335.50335693359375 C 210.27720642089844 327.14642333984375 209.4817657470703 318.1416015625 209.20077514648438 311.2991027832031 C 211.06993103027344 309.4698791503906 214.8498077392578 310.8552551269531 219.15528869628906 311.2052917480469 C 222.65847778320312 307.248779296875 222.91477966308594 300.2008361816406 218.35226440429688 292.60284423828125 C 210.4928436279297 284.5805358886719 202.99317932128906 276.1300964355469 199.1613006591797 266.8020324707031 C 198.63870239257812 257.7255859375 201.03521728515625 251.8795623779297 204.10064697265625 249.32015991210938 C 205.17514038085938 252.604736328125 204.77073669433594 259.52520751953125 204.6560821533203 267.36737060546875 C 207.69700622558594 273.461669921875 213.1484832763672 278.5010986328125 218.7811737060547 283.51025390625 C 223.2864227294922 288.3540954589844 226.8115234375 292.69097900390625 229.48291015625 296.1941223144531 C 231.36419677734375 298.65264892578125 233.33009338378906 299.5992431640625 234.83677673339844 299.7362365722656 C 235.63076782226562 299.88232421875 236.0062255859375 299.96221923828125 236.3579864501953 299.93353271484375 C 236.74681091308594 300.24078369140625 236.93975830078125 300.49658203125 237.1520233154297 300.5280456542969 C 237.8316650390625 300.50860595703125 238.9564666748047 300.5093078613281 240.2559814453125 300.6361999511719 C 241.47335815429688 300.7797546386719 242.57115173339844 300.789306640625 243.49664306640625 300.5559387207031 C 244.17514038085938 300.45770263671875 244.6501922607422 300.4921569824219 245.125732421875 300.39007568359375 C 245.71444702148438 300.3197326660156 246.32449340820312 300.34771728515625 246.58895874023438 300.3296203613281 C 246.47203063964844 300.424560546875 246.7452850341797 300.3189697265625 247.2213134765625 300.01666259765625 C 247.82957458496094 300.004150390625 248.5725555419922 299.92950439453125 249.43154907226562 299.8413391113281 C 250.43116760253906 299.9233093261719 251.8009033203125 299.612548828125 253.3594512939453 298.718994140625 C 254.65863037109375 298.3147888183594 255.58241271972656 298.33453369140625 256.33038330078125 298.00689697265625 C 257.0885925292969 297.44586181640625 257.9974670410156 297.1422424316406 258.86041259765625 297.0340881347656 C 259.732177734375 296.50726318359375 260.5169677734375 295.7361145019531 261.445556640625 295.1629943847656 C 262.23968505859375 294.9478759765625 262.71002197265625 295.10546875 263.1371765136719 295.1640319824219 C 263.786376953125 294.3638610839844 264.4667053222656 293.4828186035156 265.46063232421875 292.7847595214844 C 266.5086364746094 292.1697998046875 267.5754089355469 291.4386901855469 268.5107421875 290.362548828125 C 269.25390625 289.5804748535156 269.8966979980469 288.6398010253906 270.29803466796875 287.7203674316406 C 270.7979431152344 286.80950927734375 271.38885498046875 285.96685791015625 271.8538513183594 285.1806945800781 C 272.2255859375 284.54132080078125 272.3440856933594 283.6836853027344 272.28717041015625 282.58917236328125 C 272.6186828613281 281.2435302734375 272.88690185546875 279.5406799316406 272.9620056152344 277.6178283691406 C 272.754638671875 275.5847473144531 272.0836181640625 273.5762634277344 271.3106689453125 271.5585632324219 C 270.2933349609375 269.0956115722656 269.09820556640625 266.5704345703125 267.2804870605469 264.72918701171875 C 264.83966064453125 263.4694519042969 261.9394226074219 263.2955322265625 258.7300720214844 263.147705078125 C 255.55633544921875 263.8506164550781 252.37112426757812 265.0045166015625 249.46791076660156 266.10418701171875 C 247.0188446044922 267.433837890625 245.49256896972656 267.9822998046875 244.43309020996094 266.7956237792969 C 243.973388671875 264.0694274902344 243.52236938476562 260.54425048828125 266.2708740234375 259.0394592285156" stroke-width="0.0" fill="rgb(72, 62, 39)" opacity="0.9973157" stroke="rgb(6, 196, 117)" stroke-opacity="0.84052944" stroke-linecap="round" stroke-linejoin="round"/>
    <path d="M 390.2518310546875 419.8721008300781 C 390.358154296875 418.9937438964844 390.99114990234375 418.19873046875 392.62347412109375 418.0325927734375 C 394.84423828125 417.9390869140625 396.4327087402344 418.40625 397.397216796875 419.55987548828125 C 398.5575866699219 420.9071044921875 399.3614501953125 422.4104919433594 399.2955627441406 424.3350524902344 C 399.16064453125 426.1567687988281 398.88958740234375 427.70587158203125 398.47540283203125 429.12701416015625 C 398.30963134765625 430.428955078125 398.0050354003906 431.38812255859375 397.20904541015625 431.8591613769531 C 396.0837707519531 432.0597839355469 394.8208923339844 431.90447998046875 393.64288330078125 431.54132080078125 C 392.6044616699219 431.2830505371094 391.5086364746094 431.4353332519531 390.11358642578125 432.1396789550781 C 388.5184631347656 432.86151123046875 386.8224792480469 433.5946960449219 385.7352600097656 434.0279541015625 C 385.2618408203125 433.8504943847656 385.18914794921875 433.80340576171875 385.6658630371094 433.7805480957031 C 386.0259704589844 434.04718017578125 385.9888610839844 434.39508056640625 385.4542236328125 435.1785583496094 C 384.5733947753906 435.9955749511719 383.759033203125 436.6160583496094 382.9717712402344 437.0467834472656 C 382.7647399902344 437.3202819824219 382.957763671875 437.3202819824219 382.85009765625 437.09967041015625 C 382.8348083496094 437.2072448730469 382.7146301269531 437.2890319824219 382.5042724609375 437.3572692871094 C 382.3365783691406 437.4830627441406 381.9778137207031 437.6202087402344 381.64910888671875 437.7899169921875 C 381.445556640625 438.1645812988281 381.01031494140625 438.78021240234375 380.13751220703125 439.4707336425781 C 379.3222961425781 440.2950134277344 378.4424133300781 441.32391357421875 377.3741760253906 442.437255859375 C 375.9129333496094 443.40802001953125 374.69964599609375 444.3953857421875 373.7500915527344 445.2179260253906 C 373.1693420410156 445.77178955078125 372.67108154296875 445.9442443847656 372.60546875 446.29449462890625 C 372.49542236328125 446.22613525390625 372.2718811035156 445.898681640625 372.1845397949219 445.80072021484375 C 372.16845703125 445.97955322265625 372.3534851074219 446.1402893066406 372.5557556152344 446.2845458984375 C 372.3802490234375 446.2666931152344 372.0887145996094 446.24267578125 371.7989501953125 446.4293212890625 C 371.5978088378906 446.70892333984375 371.24090576171875 446.8851318359375 370.64422607421875 447.164306640625 C 370.4078674316406 447.7206115722656 370.38226318359375 448.1409606933594 369.6495361328125 448.7161865234375 C 367.7137756347656 448.95562744140625 365.0389404296875 448.4676818847656 363.0508728027344 448.2021484375 C 362.0914611816406 449.0304260253906 362.2982177734375 449.10321044921875 362.4370422363281 447.90216064453125 C 362.6971740722656 447.6364440917969 363.898193359375 448.3379821777344 364.9170227050781 449.2845764160156 C 365.28741455078125 450.4137268066406 364.9289245605469 450.87744140625 364.2291259765625 450.63323974609375 C 363.19207763671875 450.7720031738281 362.2814636230469 451.1620178222656 361.48779296875 451.4561767578125 C 360.6355895996094 451.712646484375 359.8115234375 451.9045715332031 359.2882385253906 452.0535583496094 C 359.06640625 452.1171875 358.6684875488281 452.147216796875 358.19171142578125 452.2440490722656 C 357.99090576171875 452.3277282714844 357.84979248046875 452.3740539550781 357.5914611816406 452.3363342285156 C 357.5379333496094 452.3240966796875 357.54888916015625 452.3289794921875 357.4147033691406 452.41497802734375 C 357.3043212890625 452.43182373046875 357.07354736328125 452.37548828125 356.4791259765625 452.3692321777344 C 355.4426574707031 452.47039794921875 354.0066223144531 452.7073669433594 351.9556884765625 452.8294372558594 C 348.9641418457031 453.5002136230469 345.1479797363281 453.3243408203125 340.9144287109375 451.7265319824219 C 336.1670837402344 449.8153991699219 330.6214904785156 447.7008056640625 324.1347351074219 446.02911376953125 C 317.2760925292969 446.0083312988281 310.2789306640625 448.8894348144531 303.1783447265625 454.8345031738281 C 295.54669189453125 461.1942138671875 284.3310852050781 461.75848388671875 267.947509765625 461.94500732421875 C 248.1339569091797 472.9911804199219 221.0543212890625 475.2771911621094 190.40969848632812 473.65863037109375 C 161.8182830810547 474.12506103515625 140.2555389404297 466.69232177734375 127.55323028564453 454.62567138671875 C 127.37548828125 443.4996337890625 139.60824584960938 441.9051818847656 162.32675170898438 447.5927734375 C 192.1651611328125 451.4612121582031 224.3546142578125 451.5433044433594 255.6344451904297 448.6707763671875 C 282.40960693359375 442.49725341796875 304.5877685546875 438.2800598144531 321.1293029785156 435.78375244140625 C 331.48162841796875 436.8253479003906 337.736328125 440.6377868652344 342.4592590332031 444.5098876953125 C 348.106689453125 445.3868408203125 353.0076904296875 445.5422058105469 356.05340576171875 445.1786193847656 C 358.0162048339844 444.6867980957031 359.29693603515625 444.74871826171875 359.70684814453125 445.0197448730469 C 359.5560302734375 445.03521728515625 359.40386962890625 444.7672119140625 359.40679931640625 444.363525390625 C 359.8783264160156 444.2412414550781 360.6820373535156 444.0192565917969 361.9607849121094 443.5325622558594 C 363.41046142578125 442.9631042480469 364.7545471191406 442.36065673828125 365.91143798828125 441.4996032714844 C 367.0285949707031 440.7203063964844 367.8414611816406 439.88446044921875 368.8318176269531 439.3248291015625 C 369.5471496582031 438.6473693847656 370.310546875 438.0621643066406 371.1665954589844 437.4681396484375 C 372.1101379394531 436.52239990234375 372.92376708984375 435.4968566894531 373.9671325683594 434.535400390625 C 375.18609619140625 433.6201171875 376.35107421875 432.7240905761719 377.23883056640625 431.707275390625 C 377.9764709472656 430.5135498046875 378.82232666015625 429.3446044921875 379.93548583984375 428.3035888671875 C 381.03094482421875 427.1351318359375 382.113525390625 426.0546875 383.06854248046875 424.86456298828125 C 384.10260009765625 423.8041076660156 384.9547119140625 422.8956298828125 385.56536865234375 422.1275634765625 C 386.2592468261719 421.88031005859375 386.6263427734375 421.5460205078125 386.8369140625 421.18548583984375 C 387.0054016113281 421.0329284667969 387.09906005859375 420.869140625 387.1153564453125 420.6302185058594 C 387.3137512207031 420.4154357910156 387.64215087890625 420.1332702636719 388.1136779785156 419.6833190917969 C 388.8589172363281 419.2574157714844 389.72369384765625 418.8343200683594 390.2518310546875 419.8721008300781" stroke-width="0.0" fill="rgb(71, 62, 38)" opacity="0.9964056" stroke="rgb(247, 152, 166)" stroke-opacity="0.9878934" stroke-linecap="round" stroke-linejoin="round"/>
    <path d="M 139.0 128.0 C 139.0 129.0 139.0 130.0 140.0 131.0 C 141.0 131.0 141.0 132.0 142.0 133.0 C 143.0 133.0 144.0 133.0 145.0 132.0 C 146.0 132.0 147.0 132.0 147.0 133.0 C 146.0 133.0 145.0 134.0 144.0 134.0 C 143.0 134.0 142.0 134.0 141.0 134.0 C 140.0 135.0 139.0 135.0 138.0 135.0 C 138.0 134.0 138.0 133.0 138.0 132.0 C 137.0 131.0 136.0 131.0 135.0 131.0 C 134.0 132.0 134.0 133.0 133.0 133.0 C 132.0 134.0 132.0 135.0 132.0 136.0 C 131.0 137.0 130.0 137.0 129.0 137.0 C 128.0 137.0 127.0 138.0 126.0 138.0 C 125.0 138.0 124.0 139.0 123.0 139.0 C 122.0 139.0 121.0 139.0 120.0 140.0 C 120.0 141.0 121.0 142.0 122.0 143.0 C 123.0 143.0 124.0 143.0 125.0 143.0 C 126.0 143.0 127.0 143.0 128.0 144.0 C 129.0 144.0 130.0 144.0 131.0 144.0 C 132.0 144.0 133.0 144.0 134.0 144.0 C 135.0 144.0 136.0 144.0 137.0 144.0 C 137.0 145.0 137.0 146.0 136.0 146.0 C 135.0 146.0 134.0 146.0 133.0 146.0 C 132.0 145.0 131.0 145.0 130.0 145.0 C 129.0 146.0 128.0 147.0 127.0 146.0 C 126.0 146.0 125.0 146.0 124.0 147.0 C 123.0 147.0 122.0 147.0 121.0 147.0 C 120.0 147.0 119.0 147.0 118.0 147.0 C 117.0 148.0 117.0 149.0 117.0 150.0 C 118.0 151.0 119.0 151.0 120.0 151.0 C 121.0 152.0 122.0 152.0 121.0 152.0 C 120.0 152.0 119.0 152.0 118.0 152.0 C 117.0 152.0 116.0 152.0 115.0 152.0 C 114.0 152.0 113.0 153.0 112.0 153.0 C 111.0 154.0 110.0 154.0 109.0 154.0 C 108.0 154.0 107.0 154.0 106.0 155.0 C 106.0 156.0 106.0 157.0 105.0 156.0 C 104.0 156.0 103.0 155.0 102.0 155.0 C 102.0 154.0 101.0 153.0 100.0 153.0 C 100.0 152.0 100.0 151.0 101.0 150.0 C 101.0 149.0 100.0 148.0 99.0 148.0 C 98.0 147.0 97.0 147.0 96.0 147.0 C 96.0 146.0 97.0 146.0 98.0 145.0 C 98.0 144.0 99.0 145.0 100.0 145.0 C 101.0 145.0 102.0 145.0 103.0 144.0 C 104.0 143.0 104.0 142.0 105.0 142.0 C 106.0 141.0 106.0 140.0 107.0 141.0 C 108.0 141.0 109.0 141.0 110.0 140.0 C 110.0 139.0 110.0 138.0 110.0 137.0 C 109.0 136.0 108.0 136.0 107.0 136.0 C 106.0 136.0 106.0 135.0 106.0 134.0 C 105.0 133.0 104.0 133.0 103.0 133.0 C 101.0 133.0 99.0 133.0 98.0 132.0 C 100.0 132.0 102.0 132.0 104.0 133.0 C 106.0 133.0 108.0 133.0 110.0 133.0 C 112.0 133.0 114.0 134.0 116.0 134.0 C 118.0 134.0 120.0 134.0 122.0 133.0 C 124.0 133.0 126.0 132.0 128.0 131.0 C 130.0 131.0 132.0 130.0 134.0 129.0 C 136.0 129.0 138.0 128.0 139.0 128.0" stroke-width="0.0" fill="rgb(75, 64, 39)" opacity="1.0" stroke="rgb(182, 219, 4)" stroke-opacity="0.52783203" stroke-linecap="round" stroke-linejoin="round"/>
    <path d="M 113.0 377.0 C 113.0 378.0 114.0 379.0 114.0 380.0 C 115.0 381.0 115.0 382.0 115.0 383.0 C 116.0 384.0 116.0 385.0 117.0 386.0 C 117.0 387.0 118.0 388.0 118.0 389.0 C 119.0 390.0 120.0 391.0 120.0 392.0 C 121.0 393.0 122.0 394.0 122.0 395.0 C 123.0 396.0 124.0 397.0 125.0 398.0 C 126.0 399.0 126.0 400.0 127.0 401.0 C 126.0 401.0 125.0 402.0 124.0 403.0 C 124.0 404.0 124.0 405.0 123.0 405.0 C 122.0 406.0 122.0 407.0 122.0 406.0 C 122.0 405.0 122.0 404.0 122.0 403.0 C 121.0 402.0 121.0 401.0 122.0 400.0 C 122.0 399.0 122.0 398.0 121.0 397.0 C 120.0 396.0 120.0 395.0 119.0 394.0 C 119.0 393.0 118.0 392.0 117.0 392.0 C 116.0 392.0 115.0 393.0 114.0 393.0 C 113.0 392.0 112.0 392.0 111.0 391.0 C 111.0 390.0 110.0 389.0 109.0 389.0 C 108.0 389.0 107.0 389.0 106.0 390.0 C 106.0 391.0 105.0 390.0 104.0 390.0 C 103.0 390.0 102.0 390.0 101.0 390.0 C 100.0 390.0 99.0 390.0 98.0 390.0 C 97.0 391.0 96.0 390.0 95.0 390.0 C 94.0 390.0 93.0 391.0 92.0 391.0 C 92.0 390.0 92.0 389.0 91.0 388.0 C 90.0 388.0 89.0 388.0 88.0 389.0 C 88.0 390.0 88.0 391.0 87.0 391.0 C 86.0 392.0 85.0 392.0 84.0 392.0 C 83.0 392.0 82.0 393.0 81.0 393.0 C 80.0 393.0 79.0 394.0 79.0 395.0 C 79.0 396.0 79.0 397.0 79.0 398.0 C 79.0 399.0 78.0 400.0 78.0 401.0 C 78.0 402.0 77.0 402.0 76.0 403.0 C 75.0 404.0 75.0 405.0 75.0 406.0 C 74.0 406.0 73.0 405.0 72.0 405.0 C 72.0 404.0 72.0 403.0 71.0 402.0 C 71.0 401.0 71.0 400.0 71.0 399.0 C 71.0 398.0 72.0 397.0 72.0 396.0 C 73.0 395.0 74.0 394.0 75.0 393.0 C 76.0 392.0 77.0 391.0 78.0 390.0 C 79.0 390.0 80.0 390.0 81.0 389.0 C 81.0 388.0 81.0 387.0 82.0 387.0 C 83.0 386.0 84.0 386.0 85.0 385.0 C 86.0 385.0 87.0 385.0 88.0 384.0 C 89.0 384.0 90.0 384.0 91.0 384.0 C 92.0 384.0 93.0 384.0 94.0 384.0 C 95.0 384.0 96.0 384.0 97.0 384.0 C 98.0 384.0 99.0 384.0 100.0 384.0 C 101.0 384.0 102.0 385.0 103.0 385.0 C 104.0 385.0 105.0 386.0 105.0 387.0 C 106.0 388.0 107.0 389.0 108.0 388.0 C 109.0 388.0 110.0 388.0 111.0 387.0 C 111.0 386.0 111.0 385.0 111.0 384.0 C 111.0 383.0 110.0 382.0 110.0 381.0 C 111.0 381.0 112.0 381.0 113.0 380.0 C 113.0 379.0 113.0 378.0 113.0 377.0 C 113.0 376.0 113.0 375.0 113.0 377.0" stroke-width="0.0" fill="rgb(73, 62, 38)" opacity="1.0" stroke="rgb(186, 222, 251)" stroke-opacity="0.37455836" stroke-linecap="round" stroke-linejoin="round"/>
  </g>
</svg>
