<?xml version="1.0" ?>
<svg xmlns="http://www.w3.org/2000/svg" version="1.1" width="512" height="512">
  <defs/>
  <g>
    <path d="M 437.221435546875 207.85089111328125 C 446.4698181152344 218.39776611328125 456.5524597167969 227.7970733642578 465.4901123046875 237.49923706054688 C 472.01239013671875 248.3991241455078 476.3258972167969 259.7198791503906 478.2710266113281 271.3507080078125 C 479.1693115234375 283.00408935546875 479.46728515625 293.69073486328125 478.04388427734375 303.4398498535156 C 476.4281311035156 312.2069396972656 474.34124755859375 319.6882019042969 471.9864807128906 325.5291442871094 C 469.8529968261719 330.17584228515625 467.9183349609375 333.77227783203125 466.31634521484375 336.53076171875 C 465.2427673339844 338.2533874511719 464.531494140625 339.47125244140625 464.0798645019531 340.10906982421875 C 464.0542297363281 339.95672607421875 464.2259826660156 339.07025146484375 464.1770324707031 337.8410949707031 C 464.25518798828125 336.73004150390625 464.3481140136719 336.013916015625 464.5052185058594 335.9581298828125 C 464.8077697753906 336.55645751953125 464.90802001953125 337.6038818359375 464.4570617675781 339.09442138671875 C 463.14599609375 340.8711853027344 460.9974670410156 343.2557373046875 457.9969482421875 346.6234436035156 C 454.23553466796875 350.1216735839844 449.3903503417969 352.9148254394531 443.33697509765625 354.4888916015625 C 436.1083679199219 354.27667236328125 428.153076171875 353.4709777832031 419.9729309082031 353.3561706542969 C 412.3545227050781 354.98809814453125 405.4909362792969 359.89715576171875 397.1222839355469 364.6785583496094 C 385.6999816894531 365.1123962402344 372.2361755371094 363.5230712890625 357.8262023925781 362.2392578125 C 344.0723876953125 363.29254150390625 332.5282897949219 366.1228942871094 324.7757263183594 365.5767517089844 C 323.2719421386719 359.7049865722656 325.6860656738281 350.6182556152344 329.2416687011719 341.8089599609375 C 335.155517578125 338.341552734375 343.5590515136719 340.2240295410156 354.6629638671875 344.76776123046875 C 367.45147705078125 348.4480895996094 380.2806091308594 351.3956604003906 390.5491943359375 351.9130859375 C 396.7383728027344 348.3501892089844 401.6950988769531 343.98321533203125 406.931396484375 340.9698791503906 C 413.04388427734375 339.9296875 419.295166015625 339.52874755859375 425.35699462890625 340.3099670410156 C 430.4668884277344 342.03033447265625 434.61663818359375 342.6784362792969 438.0897216796875 342.1522521972656 C 441.4283447265625 340.48272705078125 444.2601623535156 337.9964294433594 446.3316955566406 335.70501708984375 C 448.0958251953125 333.4375 449.58306884765625 331.2896423339844 450.8189392089844 329.889404296875 C 452.4756164550781 329.30169677734375 453.94775390625 329.366455078125 455.0433044433594 329.60479736328125 C 456.00860595703125 330.18780517578125 456.9104309082031 331.0335693359375 457.57440185546875 331.7870178222656 C 457.95770263671875 332.4203796386719 458.22137451171875 333.00909423828125 458.4215393066406 333.379150390625 C 458.5129699707031 333.4855041503906 458.4720764160156 333.46392822265625 458.3744812011719 333.2262268066406 C 458.253173828125 332.95941162109375 457.974609375 332.493408203125 457.5259094238281 331.8309631347656 C 457.0252990722656 331.2649841308594 456.5132141113281 330.7867431640625 455.9561767578125 330.28619384765625 C 455.26177978515625 329.827880859375 454.5125732421875 329.4629821777344 453.71807861328125 329.3001708984375 C 452.9382629394531 329.4429016113281 452.1776428222656 329.693115234375 451.60107421875 329.82073974609375 C 451.1915588378906 329.740966796875 450.78045654296875 329.6612548828125 450.6003112792969 329.6150207519531 C 450.7765808105469 329.4360046386719 451.210693359375 329.0108642578125 451.8239440917969 328.36065673828125 C 452.5319519042969 327.35614013671875 453.410888671875 326.0400695800781 454.33428955078125 324.37713623046875 C 455.1930847167969 322.285888671875 456.3825378417969 319.73883056640625 457.618896484375 317.2947998046875 C 458.86871337890625 314.5010986328125 459.7781982421875 311.5203552246094 460.41876220703125 308.82720947265625 C 461.1820068359375 306.562744140625 461.60888671875 304.6258850097656 461.6037292480469 303.3240661621094 C 461.70660400390625 302.8778991699219 461.9996643066406 303.2432556152344 461.9269104003906 304.3045654296875 C 461.63714599609375 305.608154296875 461.4703063964844 306.9230651855469 461.2705383300781 308.3822326660156 C 461.04541015625 309.7688903808594 461.1302795410156 310.5975036621094 461.25738525390625 310.2963562011719 C 461.2363586425781 308.8130187988281 461.6016540527344 306.19793701171875 462.419189453125 302.31353759765625 C 463.2835693359375 297.0069274902344 463.70440673828125 289.8778381347656 463.0807189941406 280.76495361328125 C 463.1172790527344 270.729248046875 460.2286071777344 259.92535400390625 454.2199401855469 248.8982696533203 C 447.3186340332031 237.78228759765625 438.1388854980469 229.01768493652344 423.1177062988281 227.8905792236328 C 401.29888916015625 229.72731018066406 376.6770324707031 231.68045043945312 437.221435546875 207.85089111328125" stroke-width="0.0" fill="rgb(74, 65, 41)" opacity="0.9991724" stroke="rgb(25, 218, 179)" stroke-opacity="0.81168795" stroke-linecap="round" stroke-linejoin="round"/>
    <path d="M 283.0 275.0 C 283.0 276.0 283.0 277.0 284.0 278.0 C 284.0 279.0 284.0 280.0 283.0 281.0 C 283.0 282.0 283.0 283.0 282.0 284.0 C 282.0 285.0 281.0 286.0 281.0 287.0 C 280.0 288.0 279.0 289.0 278.0 290.0 C 277.0 291.0 276.0 292.0 275.0 293.0 C 274.0 294.0 273.0 295.0 273.0 294.0 C 272.0 293.0 271.0 293.0 270.0 293.0 C 269.0 294.0 269.0 295.0 269.0 296.0 C 270.0 297.0 269.0 298.0 268.0 299.0 C 267.0 299.0 266.0 300.0 265.0 301.0 C 264.0 301.0 263.0 302.0 262.0 302.0 C 261.0 302.0 260.0 303.0 260.0 304.0 C 259.0 304.0 258.0 305.0 257.0 305.0 C 256.0 305.0 255.0 306.0 254.0 306.0 C 253.0 307.0 252.0 307.0 251.0 307.0 C 250.0 307.0 249.0 308.0 248.0 308.0 C 247.0 308.0 246.0 308.0 245.0 308.0 C 244.0 308.0 243.0 308.0 242.0 309.0 C 242.0 308.0 242.0 307.0 242.0 306.0 C 241.0 305.0 240.0 305.0 239.0 305.0 C 239.0 304.0 238.0 303.0 237.0 303.0 C 236.0 303.0 235.0 303.0 234.0 303.0 C 233.0 303.0 232.0 303.0 232.0 302.0 C 231.0 301.0 231.0 300.0 231.0 299.0 C 230.0 298.0 229.0 298.0 228.0 298.0 C 227.0 297.0 226.0 297.0 225.0 297.0 C 225.0 296.0 224.0 295.0 225.0 294.0 C 225.0 293.0 225.0 292.0 224.0 291.0 C 223.0 290.0 222.0 290.0 221.0 290.0 C 222.0 289.0 222.0 288.0 223.0 289.0 C 224.0 290.0 225.0 291.0 225.0 292.0 C 226.0 293.0 227.0 294.0 228.0 295.0 C 229.0 296.0 230.0 297.0 231.0 298.0 C 232.0 299.0 232.0 300.0 232.0 301.0 C 232.0 302.0 233.0 303.0 234.0 303.0 C 235.0 303.0 236.0 302.0 236.0 301.0 C 237.0 301.0 238.0 301.0 239.0 301.0 C 240.0 301.0 241.0 301.0 242.0 301.0 C 243.0 301.0 244.0 301.0 244.0 302.0 C 244.0 303.0 245.0 304.0 246.0 304.0 C 247.0 304.0 248.0 304.0 249.0 303.0 C 249.0 302.0 249.0 301.0 249.0 300.0 C 250.0 300.0 251.0 300.0 252.0 300.0 C 253.0 299.0 254.0 299.0 255.0 299.0 C 256.0 298.0 257.0 298.0 258.0 297.0 C 259.0 297.0 260.0 296.0 261.0 296.0 C 262.0 295.0 263.0 295.0 264.0 294.0 C 265.0 293.0 266.0 293.0 267.0 292.0 C 268.0 291.0 269.0 290.0 269.0 289.0 C 270.0 288.0 271.0 287.0 271.0 286.0 C 272.0 285.0 272.0 284.0 273.0 283.0 C 274.0 283.0 275.0 283.0 274.0 284.0 C 274.0 285.0 274.0 286.0 274.0 287.0 C 275.0 288.0 276.0 288.0 277.0 288.0 C 278.0 287.0 278.0 286.0 279.0 285.0 C 279.0 284.0 279.0 283.0 280.0 282.0 C 280.0 281.0 281.0 280.0 282.0 279.0 C 282.0 278.0 282.0 277.0 281.0 276.0 C 281.0 276.0 283.0 274.0 283.0 275.0" stroke-width="0.0" fill="rgb(72, 62, 39)" opacity="1.0" stroke="rgb(6, 196, 117)" stroke-opacity="0.84052944" stroke-linecap="round" stroke-linejoin="round"/>
    <path d="M 395.0 419.0 C 396.0 419.0 397.0 420.0 397.0 421.0 C 397.0 422.0 397.0 423.0 397.0 424.0 C 397.0 425.0 397.0 426.0 397.0 427.0 C 397.0 428.0 397.0 429.0 397.0 430.0 C 396.0 430.0 395.0 430.0 394.0 430.0 C 393.0 429.0 392.0 430.0 391.0 430.0 C 390.0 430.0 389.0 431.0 388.0 431.0 C 387.0 432.0 386.0 433.0 385.0 433.0 C 384.0 434.0 383.0 435.0 382.0 436.0 C 382.0 435.0 382.0 434.0 381.0 433.0 C 380.0 433.0 379.0 433.0 378.0 434.0 C 378.0 435.0 378.0 436.0 378.0 437.0 C 379.0 438.0 380.0 438.0 379.0 439.0 C 378.0 440.0 378.0 439.0 377.0 438.0 C 376.0 438.0 375.0 438.0 374.0 439.0 C 374.0 440.0 374.0 441.0 375.0 442.0 C 376.0 442.0 375.0 443.0 374.0 443.0 C 374.0 442.0 373.0 441.0 372.0 441.0 C 371.0 441.0 370.0 442.0 370.0 443.0 C 370.0 444.0 371.0 445.0 372.0 445.0 C 371.0 446.0 370.0 446.0 370.0 445.0 C 369.0 444.0 368.0 444.0 367.0 444.0 C 366.0 444.0 365.0 445.0 365.0 446.0 C 365.0 447.0 366.0 448.0 367.0 448.0 C 366.0 448.0 365.0 449.0 365.0 448.0 C 365.0 447.0 364.0 446.0 363.0 446.0 C 362.0 446.0 361.0 447.0 361.0 448.0 C 361.0 449.0 362.0 450.0 361.0 450.0 C 360.0 450.0 359.0 450.0 358.0 451.0 C 358.0 450.0 358.0 449.0 357.0 448.0 C 356.0 448.0 355.0 448.0 354.0 448.0 C 353.0 448.0 352.0 447.0 351.0 447.0 C 350.0 447.0 349.0 448.0 349.0 449.0 C 349.0 450.0 349.0 451.0 349.0 450.0 C 349.0 449.0 349.0 448.0 348.0 447.0 C 347.0 447.0 346.0 447.0 345.0 447.0 C 344.0 447.0 343.0 447.0 342.0 448.0 C 342.0 449.0 342.0 450.0 341.0 450.0 C 340.0 450.0 339.0 450.0 340.0 450.0 C 341.0 450.0 342.0 449.0 342.0 448.0 C 342.0 447.0 342.0 446.0 343.0 445.0 C 343.0 444.0 344.0 444.0 345.0 444.0 C 346.0 445.0 347.0 445.0 348.0 445.0 C 349.0 445.0 350.0 445.0 351.0 445.0 C 352.0 445.0 353.0 446.0 354.0 445.0 C 355.0 445.0 356.0 445.0 357.0 445.0 C 358.0 445.0 359.0 445.0 360.0 445.0 C 361.0 444.0 362.0 444.0 363.0 443.0 C 364.0 443.0 365.0 442.0 366.0 441.0 C 367.0 441.0 368.0 440.0 369.0 439.0 C 370.0 438.0 371.0 438.0 372.0 437.0 C 373.0 436.0 374.0 435.0 375.0 434.0 C 376.0 433.0 377.0 432.0 378.0 431.0 C 379.0 430.0 379.0 429.0 379.0 430.0 C 381.0 431.0 383.0 431.0 384.0 429.0 C 383.0 427.0 381.0 427.0 383.0 425.0 C 384.0 427.0 386.0 427.0 387.0 427.0 C 388.0 429.0 390.0 429.0 392.0 428.0 C 394.0 427.0 394.0 425.0 395.0 423.0 C 395.0 421.0 394.0 419.0 395.0 419.0" stroke-width="0.0" fill="rgb(71, 61, 37)" opacity="1.0" stroke="rgb(247, 152, 166)" stroke-opacity="0.9878934" stroke-linecap="round" stroke-linejoin="round"/>
  </g>
</svg>
