<?xml version="1.0" ?>
<svg xmlns="http://www.w3.org/2000/svg" version="1.1" width="512" height="512">
  <defs/>
  <g>
    <path d="M 442.89190673828125 205.44703674316406 C 447.0499267578125 227.72459411621094 448.58880615234375 214.12474060058594 465.8286437988281 237.94171142578125 C 473.30267333984375 251.0684814453125 476.6112365722656 257.7886657714844 478.6583251953125 272.35552978515625 C 479.4710693359375 275.24163818359375 479.9112548828125 294.4453430175781 478.20892333984375 302.0478515625 C 477.50250244140625 310.06298828125 474.2185363769531 321.3469543457031 471.1017150878906 326.93890380859375 C 469.6177673339844 332.07659912109375 465.10870361328125 337.7229309082031 463.3092956542969 341.8369445800781 C 466.14581298828125 335.27960205078125 463.3699951171875 341.1864013671875 464.8212585449219 339.3009948730469 C 463.9255065917969 339.6180419921875 463.89141845703125 339.9575500488281 464.27734375 339.0826721191406 C 464.9853820800781 338.7603759765625 464.0662536621094 340.73748779296875 464.4679870605469 338.7945556640625 C 464.9620361328125 340.3500061035156 465.4132080078125 338.2818908691406 463.70758056640625 340.7690124511719 C 465.9021911621094 336.8362121582031 463.2956237792969 341.1474609375 457.7519226074219 346.947021484375 C 455.6629943847656 349.4000244140625 445.9132385253906 356.54046630859375 438.3703308105469 354.4903869628906 C 441.0511169433594 356.3460693359375 432.49237060546875 351.78765869140625 418.5646057128906 354.2480163574219 C 402.7396545410156 357.373046875 412.6349182128906 360.6557922363281 395.81243896484375 365.49920654296875 C 381.32489013671875 366.9837646484375 385.3584289550781 362.3528747558594 351.302490234375 362.8902587890625 C 320.66253662109375 365.3182067871094 347.8116760253906 372.6246032714844 311.61773681640625 391.2200012207031 C 324.5610656738281 367.9155578613281 325.93853759765625 351.3276672363281 335.5865478515625 301.24749755859375 C 363.4412841796875 301.89337158203125 332.0280456542969 332.2521667480469 350.63580322265625 343.737548828125 C 366.089111328125 346.843017578125 379.4696350097656 352.26806640625 392.08685302734375 351.54998779296875 C 395.5307312011719 347.77435302734375 397.7122802734375 344.9036865234375 403.419921875 342.1863708496094 C 410.3682861328125 339.8246765136719 421.1142883300781 338.054443359375 435.95037841796875 342.83154296875 C 423.0914001464844 339.0922546386719 437.99273681640625 344.18695068359375 438.2453918457031 341.97021484375 C 436.85491943359375 344.3336486816406 445.7816162109375 335.9222717285156 444.632080078125 337.6097106933594 C 442.81488037109375 337.3587341308594 446.18231201171875 335.86932373046875 443.08013916015625 338.7267150878906 C 450.50555419921875 330.45880126953125 451.0960998535156 328.91656494140625 448.546875 331.6134033203125 C 451.8758850097656 327.46783447265625 448.85308837890625 332.2736511230469 450.6474914550781 328.7518005371094 C 449.6508483886719 331.54522705078125 452.3526916503906 328.63433837890625 448.9832763671875 330.0372009277344 C 451.3705139160156 329.2032165527344 450.10076904296875 329.2177429199219 450.47540283203125 329.6007385253906 C 451.9192199707031 328.708251953125 450.1365051269531 328.9059143066406 452.9308166503906 327.4454345703125 C 450.6017150878906 328.8302917480469 450.5563659667969 328.30767822265625 451.986083984375 329.00677490234375 C 451.5337219238281 327.6255187988281 450.9749450683594 329.8096008300781 450.4971923828125 329.43243408203125 C 450.59234619140625 330.5733947753906 451.1090087890625 329.1087951660156 450.882080078125 331.2496643066406 C 451.6103210449219 328.147216796875 449.2784729003906 330.0872802734375 450.48626708984375 329.427001953125 C 450.3635559082031 329.34857177734375 449.3512878417969 330.8363037109375 452.4032897949219 327.7012939453125 C 453.3031005859375 327.296630859375 451.925537109375 327.1629943847656 448.5184326171875 332.314697265625 C 450.13134765625 330.11590576171875 457.8153381347656 322.1033935546875 461.2670593261719 304.34967041015625 C 460.3409729003906 311.76568603515625 461.33758544921875 307.5146789550781 461.1285095214844 307.4737243652344 C 461.193603515625 307.42340087890625 462.0821228027344 305.3995666503906 461.4638977050781 306.8885192871094 C 460.5133972167969 309.3542785644531 462.08001708984375 304.7165222167969 461.32952880859375 308.65142822265625 C 462.0184020996094 305.4475402832031 461.03436279296875 305.67791748046875 461.6398620605469 308.69000244140625 C 461.68731689453125 306.30712890625 459.71856689453125 307.429931640625 461.14801025390625 307.1864318847656 C 460.219970703125 310.80096435546875 462.5058288574219 301.4457092285156 460.19891357421875 308.8798522949219 C 461.1119384765625 305.5671081542969 464.6606750488281 294.5556945800781 462.7023620605469 277.4840087890625 C 462.8890686035156 274.0177917480469 459.0813293457031 254.72119140625 451.9818115234375 247.57870483398438 C 444.9416198730469 234.03164672851562 420.761474609375 215.0618896484375 407.6117248535156 242.90589904785156 C 386.7963562011719 222.5702362060547 317.45306396484375 254.78826904296875 442.89190673828125 205.44703674316406" stroke-width="0.0" fill="rgb(74, 65, 41)" opacity="0.99909186" stroke="rgb(25, 218, 179)" stroke-opacity="0.81168795" stroke-linecap="round" stroke-linejoin="round"/>
    <path d="M 265.24481201171875 259.0771484375 C 277.76812744140625 261.94830322265625 277.37005615234375 265.01068115234375 277.02587890625 263.6180725097656 C 278.4744567871094 263.8751525878906 288.4793701171875 274.6434020996094 283.5248107910156 285.60833740234375 C 283.0380554199219 279.78021240234375 283.7854919433594 285.71600341796875 283.2018737792969 284.61358642578125 C 285.15252685546875 284.6507568359375 285.27679443359375 285.0155029296875 283.36480712890625 285.0181884765625 C 286.530517578125 280.6205749511719 282.4735107421875 289.7958984375 273.7508850097656 296.0577392578125 C 280.1257629394531 291.09710693359375 273.9783630371094 295.79541015625 274.4161376953125 295.3494567871094 C 275.9459533691406 295.0220642089844 273.2415466308594 296.023681640625 274.2689514160156 296.1358947753906 C 275.041748046875 295.3905029296875 267.7336120605469 301.4313659667969 271.4367370605469 297.3884582519531 C 269.8810119628906 298.6351318359375 267.9756774902344 301.25299072265625 267.0085754394531 300.5529479980469 C 269.48583984375 300.6374816894531 266.05279541015625 301.7052307128906 267.9245910644531 300.0985412597656 C 266.3907470703125 301.8219909667969 268.8736572265625 299.609375 266.0657653808594 300.52093505859375 C 268.2821350097656 299.9024658203125 265.6151123046875 300.3453674316406 268.79296875 300.0650939941406 C 267.0646057128906 300.4139709472656 264.6766357421875 302.79388427734375 267.42120361328125 300.6850891113281 C 263.08148193359375 304.6883850097656 254.00096130371094 306.75 262.11712646484375 304.29119873046875 C 258.16668701171875 307.2660217285156 246.1226348876953 309.9013366699219 248.34716796875 309.4331359863281 C 250.54359436035156 309.44830322265625 255.21731567382812 309.0088195800781 234.60302734375 310.63812255859375 C 247.06190490722656 309.24053955078125 239.6654815673828 311.0005187988281 236.85694885253906 310.6449890136719 C 233.6116485595703 311.5981750488281 238.17442321777344 310.6296081542969 235.818603515625 310.3106994628906 C 238.72308349609375 309.9761657714844 236.66256713867188 310.0616149902344 242.01513671875 310.36956787109375 C 237.65280151367188 310.01910400390625 242.408447265625 310.905029296875 241.52572631835938 310.3888244628906 C 224.95899963378906 310.39007568359375 224.49188232421875 313.5138854980469 221.2904510498047 317.4305725097656 C 223.77853393554688 314.5792236328125 220.3722686767578 317.051513671875 220.4313507080078 322.27813720703125 C 221.65345764160156 332.73638916015625 230.3513641357422 336.6522521972656 236.0095977783203 340.3190002441406 C 244.44482421875 346.5953063964844 250.59556579589844 356.5522766113281 245.39419555664062 370.46856689453125 C 231.358154296875 394.6522216796875 242.88787841796875 366.44683837890625 240.1867218017578 358.3484191894531 C 237.80145263671875 343.4250183105469 215.2318572998047 340.9119873046875 211.0516357421875 331.5146179199219 C 206.49298095703125 324.0513916015625 220.636962890625 313.72998046875 189.461669921875 317.783447265625 C 203.0994873046875 302.429443359375 216.6578826904297 310.5132141113281 218.0894012451172 311.853271484375 C 219.46299743652344 312.4654846191406 225.89910888671875 301.7996520996094 217.2566680908203 292.1492614746094 C 210.0651092529297 281.2254638671875 197.7707977294922 275.3699645996094 199.0601043701172 259.90582275390625 C 206.01963806152344 240.76828002929688 196.83065795898438 256.2821044921875 187.0222625732422 246.26419067382812 C 243.07913208007812 235.0785369873047 206.6498565673828 257.7319030761719 207.5717010498047 255.85968017578125 C 197.5948944091797 269.62335205078125 215.569580078125 278.49383544921875 218.2279815673828 282.4028015136719 C 224.44651794433594 289.51226806640625 230.5655517578125 297.02392578125 228.8036651611328 295.33856201171875 C 235.07986450195312 302.45306396484375 242.93106079101562 299.4791564941406 239.14016723632812 300.3778381347656 C 241.69622802734375 298.9190368652344 239.72654724121094 301.4862060546875 238.77432250976562 300.1178894042969 C 241.03485107421875 300.10845947265625 241.6395721435547 301.73028564453125 239.8651580810547 300.20892333984375 C 241.55392456054688 300.8169860839844 237.1304931640625 298.0290832519531 241.2643280029297 303.2426452636719 C 236.5133056640625 297.6111145019531 244.30287170410156 301.7196350097656 238.68348693847656 299.2773132324219 C 242.0849609375 300.5923767089844 237.68414306640625 299.9585266113281 242.5624237060547 299.60272216796875 C 238.9992218017578 299.77850341796875 241.3311309814453 300.006591796875 238.9707794189453 300.1301574707031 C 243.42877197265625 301.4080505371094 237.61537170410156 300.9039306640625 238.5447998046875 300.4029541015625 C 239.96292114257812 299.96820068359375 241.76593017578125 301.40985107421875 236.70651245117188 299.6856384277344 C 243.98141479492188 302.68243408203125 256.66619873046875 297.3674621582031 248.036376953125 300.99169921875 C 253.4110870361328 298.6777648925781 260.38775634765625 296.193359375 259.9080810546875 297.4853210449219 C 255.0884246826172 296.26129150390625 259.0543518066406 297.3030090332031 257.6087646484375 296.3717346191406 C 259.69769287109375 296.726318359375 257.8634948730469 297.8634948730469 259.90484619140625 296.33380126953125 C 255.41668701171875 296.2061767578125 260.36029052734375 297.4025573730469 264.99237060546875 292.92108154296875 C 260.57830810546875 296.18096923828125 263.247802734375 294.671142578125 262.73944091796875 294.785400390625 C 260.6341552734375 294.05279541015625 268.9986572265625 293.4615783691406 270.2382507324219 285.817138671875 C 268.2245788574219 294.1745910644531 269.08599853515625 286.8164978027344 270.4504699707031 289.49371337890625 C 269.6051330566406 288.5191955566406 269.2179870605469 287.57244873046875 269.40496826171875 289.6111145019531 C 268.070556640625 290.10101318359375 274.2186584472656 283.86614990234375 272.2964782714844 277.4137878417969 C 273.67242431640625 283.8586730957031 271.38555908203125 276.96026611328125 272.8785095214844 281.3321228027344 C 272.833251953125 279.7678527832031 272.9085388183594 273.709716796875 272.697998046875 280.6087951660156 C 273.442138671875 268.6307373046875 264.2060241699219 262.7459716796875 267.2344970703125 266.1016845703125 C 266.4106750488281 262.71783447265625 258.0559387207031 263.80218505859375 258.3976745605469 264.10662841796875 C 262.9817199707031 261.6753234863281 257.05718994140625 264.4136962890625 254.07247924804688 264.529541015625 C 244.0742950439453 268.2334899902344 244.34808349609375 268.01129150390625 244.03158569335938 266.6259460449219 C 243.44125366210938 266.8276672363281 241.6543731689453 260.04620361328125 265.24481201171875 259.0771484375" stroke-width="0.0" fill="rgb(72, 62, 39)" opacity="0.9972346" stroke="rgb(6, 196, 117)" stroke-opacity="0.84052944" stroke-linecap="round" stroke-linejoin="round"/>
    <path d="M 390.088134765625 419.0384521484375 C 388.15765380859375 418.1562194824219 394.5670166015625 416.7828063964844 387.950927734375 418.9277648925781 C 398.3190002441406 416.0147705078125 399.396240234375 420.08306884765625 399.9358825683594 428.28167724609375 C 399.15045166015625 417.72271728515625 396.9393615722656 424.9994201660156 398.5002136230469 422.0084533691406 C 398.5533752441406 417.1169738769531 398.22283935546875 429.2259216308594 398.130615234375 419.4012451171875 C 399.761474609375 432.7066955566406 396.24578857421875 431.66033935546875 396.2802734375 431.68121337890625 C 393.5171813964844 433.2012023925781 397.7252197265625 430.4748229980469 394.7559814453125 432.4300842285156 C 393.02105712890625 431.29248046875 396.13995361328125 431.83642578125 392.2135009765625 432.2947692871094 C 396.04931640625 431.5633544921875 391.61273193359375 431.2871398925781 393.6610107421875 431.9836120605469 C 393.33343505859375 430.2165222167969 393.1553649902344 430.6959533691406 394.3548278808594 431.29803466796875 C 389.9611511230469 431.2262268066406 388.3846740722656 433.1124267578125 389.8721618652344 432.2488708496094 C 390.1376037597656 432.85784912109375 388.64569091796875 432.3439636230469 389.22589111328125 432.0451965332031 C 390.05096435546875 434.0515441894531 388.9078369140625 431.22589111328125 392.4851379394531 431.3164367675781 C 389.67626953125 430.672607421875 382.0415954589844 437.37646484375 376.4125061035156 444.048828125 C 382.8236999511719 436.2981872558594 377.7203369140625 442.47552490234375 379.7578125 440.0588073730469 C 379.43743896484375 440.80584716796875 378.2384338378906 442.11749267578125 378.8193664550781 440.8997802734375 C 378.7844543457031 441.43292236328125 375.5146179199219 445.0216064453125 378.4784851074219 440.2898254394531 C 373.58587646484375 447.8872985839844 372.8858947753906 444.9999694824219 376.9661560058594 443.5993347167969 C 372.3696594238281 445.18817138671875 376.5663146972656 443.4263610839844 373.4409484863281 445.9022521972656 C 375.76611328125 443.62841796875 369.6045837402344 449.21136474609375 374.09368896484375 444.82159423828125 C 371.58203125 447.65008544921875 366.4576721191406 450.2300109863281 369.6134338378906 448.1214294433594 C 367.3184814453125 450.62384033203125 367.7149963378906 447.0330810546875 367.74383544921875 449.26495361328125 C 368.48565673828125 448.2537841796875 368.0596618652344 447.76080322265625 368.11529541015625 448.2384948730469 C 370.09912109375 449.5268859863281 368.1949768066406 448.4019775390625 367.6974792480469 448.9375305175781 C 368.1800537109375 449.14874267578125 368.0572814941406 447.7225036621094 370.0865783691406 448.0462951660156 C 369.89019775390625 448.3492431640625 364.3706359863281 448.4554443359375 363.53607177734375 448.5500793457031 C 365.07940673828125 448.5551452636719 369.01837158203125 448.01654052734375 362.4679870605469 449.29412841796875 C 369.35894775390625 447.7078552246094 366.5657958984375 448.7101745605469 359.8831787109375 448.6440124511719 C 368.23150634765625 448.76922607421875 373.3267822265625 446.5334777832031 362.1822814941406 451.3411560058594 C 352.0229797363281 453.6194763183594 353.07952880859375 453.3752746582031 356.2177734375 451.16357421875 C 353.9089050292969 452.516845703125 358.0969543457031 452.3421325683594 352.8614501953125 452.2316589355469 C 355.15020751953125 452.3348693847656 356.6213073730469 452.5517578125 353.9245300292969 452.2486877441406 C 357.2904968261719 452.63299560546875 355.5327453613281 452.1114196777344 353.8810729980469 451.9439697265625 C 353.8598937988281 452.7498474121094 360.0255126953125 451.9537658691406 353.0422058105469 452.7868347167969 C 360.746826171875 452.61444091796875 353.1807861328125 452.141357421875 356.0842590332031 452.01605224609375 C 353.1954040527344 452.5849609375 361.86627197265625 453.1460876464844 346.20550537109375 452.57666015625 C 338.743896484375 452.0196838378906 334.6901550292969 448.5314636230469 326.7394714355469 446.76568603515625 C 315.6869812011719 444.448486328125 310.7785949707031 449.82391357421875 297.1428527832031 458.73992919921875 C 282.84710693359375 469.6985778808594 259.412109375 454.22503662109375 268.8445739746094 465.6247253417969 C 301.9898681640625 470.48858642578125 218.1298370361328 476.4297790527344 163.11439514160156 472.5233154296875 C 144.32321166992188 475.55535888671875 145.08624267578125 452.18475341796875 124.7208023071289 468.6347351074219 C 133.8305206298828 418.6739196777344 107.72362518310547 441.5801086425781 165.50230407714844 447.7413635253906 C 187.21636962890625 451.7274475097656 257.28472900390625 452.22955322265625 273.6744689941406 443.7052307128906 C 291.8993835449219 431.9015808105469 289.8173522949219 443.3781433105469 307.3825378417969 438.16607666015625 C 332.98529052734375 432.28961181640625 328.1561584472656 437.8466796875 349.813232421875 445.5993347167969 C 341.4151306152344 442.4283142089844 349.943115234375 445.65069580078125 347.3659973144531 444.300048828125 C 344.4601135253906 445.4346618652344 353.192626953125 444.0997314453125 346.7154846191406 444.05035400390625 C 347.1997985839844 444.41973876953125 350.06280517578125 445.9840393066406 345.4130859375 444.1884460449219 C 362.3646545410156 447.67156982421875 363.8579406738281 440.089599609375 362.2742614746094 444.81414794921875 C 363.0897216796875 443.27264404296875 362.6710205078125 444.27813720703125 360.8083801269531 443.8404541015625 C 361.9214172363281 442.38177490234375 364.3380432128906 444.97967529296875 366.280517578125 440.3227844238281 C 363.2093200683594 443.32464599609375 368.52496337890625 439.0936584472656 362.9385681152344 442.82440185546875 C 370.98223876953125 438.0139465332031 377.85418701171875 431.50860595703125 378.62200927734375 428.5253601074219 C 377.9891052246094 431.3159484863281 376.226806640625 429.7420959472656 377.1861267089844 430.80303955078125 C 377.56280517578125 433.2437744140625 376.3225402832031 429.6099548339844 377.73577880859375 431.18060302734375 C 375.59185791015625 433.2122497558594 379.9223937988281 428.0371398925781 375.61444091796875 432.9687805175781 C 376.68365478515625 432.32012939453125 385.787353515625 420.02154541015625 390.8947448730469 418.2067565917969 C 385.1174011230469 420.9342041015625 391.024169921875 418.3927001953125 387.75946044921875 419.530517578125 C 390.8376159667969 418.66986083984375 386.3924865722656 421.04541015625 386.4948425292969 421.63739013671875 C 387.6195373535156 418.9491882324219 384.93304443359375 422.24560546875 386.5723571777344 421.370849609375 C 386.20458984375 421.6338806152344 384.748046875 420.93572998046875 390.088134765625 419.0384521484375" stroke-width="0.0" fill="rgb(71, 62, 38)" opacity="0.9963488" stroke="rgb(247, 152, 166)" stroke-opacity="0.9878934" stroke-linecap="round" stroke-linejoin="round"/>
    <path d="M 112.30223083496094 135.9146270751953 C 126.26782989501953 131.5748748779297 135.24185180664062 128.06918334960938 150.6800994873047 125.25540924072266 C 165.0033721923828 122.06983184814453 195.0996856689453 117.2328872680664 203.06631469726562 117.5625228881836 C 206.87399291992188 116.34362030029297 258.4310302734375 116.07205963134766 255.21343994140625 117.38728332519531 C 247.64646911621094 118.17169189453125 256.1744384765625 114.87081909179688 254.175537109375 119.09142303466797 C 255.50296020507812 117.58683776855469 241.0994110107422 123.00043487548828 224.88702392578125 125.49563598632812 C 225.1464385986328 125.2425765991211 206.15428161621094 126.07420349121094 191.7451934814453 128.41665649414062 C 177.4308624267578 129.93801879882812 165.1024627685547 132.4276885986328 160.63980102539062 132.62330627441406 C 143.71669006347656 134.58023071289062 137.57858276367188 137.6421356201172 127.6380615234375 138.68548583984375 C 129.8647918701172 138.1094512939453 131.8217010498047 139.38748168945312 130.08998107910156 138.4202423095703 C 125.51293182373047 139.5049591064453 125.77123260498047 140.49180603027344 128.3999481201172 139.41744995117188 C 121.24761199951172 140.98052978515625 121.32862854003906 142.84886169433594 126.03268432617188 142.4710235595703 C 124.19295501708984 143.37232971191406 125.06855010986328 141.72938537597656 123.1015625 142.97987365722656 C 120.51728057861328 141.54736328125 120.89104461669922 142.9276580810547 121.10737609863281 142.1535186767578 C 122.89867401123047 142.93814086914062 122.28556060791016 142.1464385986328 121.20565795898438 142.96861267089844 C 123.64122009277344 141.90460205078125 120.25041198730469 142.29708862304688 119.43106842041016 142.80226135253906 C 120.81942749023438 142.65504455566406 117.58966827392578 143.49313354492188 118.56199645996094 143.14857482910156 C 119.98615264892578 142.81385803222656 117.34613800048828 143.74371337890625 120.69213104248047 142.3137969970703 C 123.5290298461914 142.1342010498047 117.56903839111328 143.13807678222656 139.57521057128906 142.9998779296875 C 150.3610382080078 143.1676025390625 179.53025817871094 140.55064392089844 210.58779907226562 135.71530151367188 C 304.2922058105469 117.66922760009766 306.3814392089844 111.69988250732422 269.93450927734375 135.79953002929688 C 328.0456848144531 136.84666442871094 370.5343933105469 147.54824829101562 380.3325500488281 160.52842712402344 C 365.117919921875 167.3258819580078 341.7886657714844 170.8210906982422 298.6773681640625 172.41212463378906 C 247.40809631347656 173.97268676757812 231.32479858398438 173.7772216796875 238.44744873046875 144.7711181640625 C 228.18942260742188 144.0725860595703 210.9994659423828 147.3183135986328 199.5526580810547 149.302490234375 C 176.3319091796875 153.09136962890625 160.83155822753906 157.55001831054688 151.00257873535156 157.91477966308594 C 141.6359405517578 159.28720092773438 116.98377990722656 159.44786071777344 122.69416046142578 159.2196044921875 C 113.75750732421875 159.25599670410156 116.1360092163086 157.96148681640625 117.02021026611328 158.97528076171875 C 108.86978912353516 159.05026245117188 110.21280670166016 157.03077697753906 110.73731231689453 159.0106201171875 C 110.86834716796875 158.71229553222656 119.33506774902344 158.18441772460938 121.16345977783203 159.79220581054688 C 116.93514251708984 158.28106689453125 120.8317642211914 159.45973205566406 120.29491424560547 159.3320770263672 C 119.55482482910156 157.79283142089844 116.7115478515625 160.62803649902344 116.51913452148438 157.54820251464844 C 117.74893951416016 162.07577514648438 119.09086608886719 167.37277221679688 116.621826171875 157.7945098876953 C 117.46128845214844 159.05662536621094 113.81108856201172 158.85671997070312 107.51115417480469 157.88735961914062 C 116.0296630859375 159.1228790283203 105.73693084716797 157.99365234375 111.6913070678711 158.6228485107422 C 110.9204330444336 159.58326721191406 97.62947082519531 156.6511993408203 99.86211395263672 155.60260009765625 C 100.75506591796875 158.86825561523438 97.7905044555664 155.8690185546875 97.39734649658203 148.90554809570312 C 98.24419403076172 159.86032104492188 98.60153198242188 144.2466278076172 97.86026763916016 149.10772705078125 C 99.12054443359375 147.92181396484375 91.5203628540039 147.61468505859375 82.49140167236328 152.52835083007812 C 78.94210815429688 153.95140075683594 67.48226928710938 162.30728149414062 77.47955322265625 165.83522033691406 C 123.5848159790039 163.30911254882812 88.84233856201172 175.9197998046875 76.71040344238281 171.1880645751953 C 78.29159545898438 196.57383728027344 83.85791015625 209.677490234375 81.29215240478516 220.77084350585938 C 79.94361877441406 230.64889526367188 79.74769592285156 241.31005859375 76.33523559570312 251.66221618652344 C 69.42292022705078 223.36781311035156 69.50830078125 213.22293090820312 67.05459594726562 196.5347900390625 C 64.23982238769531 183.24327087402344 59.09004211425781 162.41464233398438 59.980690002441406 157.02565002441406 C 60.62364196777344 148.6920166015625 68.64817810058594 141.52578735351562 74.10391998291016 137.6282501220703 C 82.83601379394531 134.34512329101562 82.43408966064453 133.21273803710938 92.9817123413086 131.84173583984375 C 108.49541473388672 130.6589813232422 114.57259368896484 134.38510131835938 110.9046401977539 132.64486694335938 C 112.88528442382812 134.17599487304688 107.98821258544922 130.7272491455078 102.51777648925781 132.47006225585938 C 103.5990982055664 132.32363891601562 108.72666931152344 131.0074005126953 104.58995819091797 131.990234375 C 106.06916809082031 131.3906707763672 108.39825439453125 132.67994689941406 108.2293701171875 133.2654266357422 C 108.04440307617188 133.43991088867188 108.4994125366211 131.83494567871094 110.82452392578125 132.21397399902344 C 106.74485778808594 133.49261474609375 114.50555419921875 133.20181274414062 110.5771255493164 132.18951416015625 C 111.89928436279297 137.6303253173828 111.39708709716797 130.08226013183594 107.58248138427734 132.71559143066406 C 111.87357330322266 133.92579650878906 106.00273895263672 131.80735778808594 105.12480926513672 131.64102172851562 C 101.89700317382812 130.3557586669922 108.7455062866211 133.72874450683594 111.9974594116211 132.4077911376953 C 96.52381896972656 131.08216857910156 113.14108276367188 132.8759307861328 108.81866455078125 132.50660705566406 C 103.30066680908203 131.2174072265625 118.75650787353516 135.20375061035156 105.48844146728516 131.28924560546875 C 121.18486022949219 136.31834411621094 122.95211791992188 129.5810546875 136.3400421142578 129.22669982910156 C 129.25384521484375 130.56002807617188 131.70606994628906 129.62579345703125 132.8211212158203 128.9637451171875 C 126.42881774902344 132.10296630859375 146.12757873535156 123.951416015625 112.30223083496094 135.9146270751953" stroke-width="0.0" fill="rgb(76, 65, 40)" opacity="0.9965113" stroke="rgb(182, 219, 4)" stroke-opacity="0.52783203" stroke-linecap="round" stroke-linejoin="round"/>
    <path d="M 81.12691497802734 203.94508361816406 C 87.329345703125 239.51446533203125 93.00823211669922 274.6021423339844 99.21634674072266 308.1141052246094 C 103.29969787597656 331.7687683105469 107.65532684326172 359.39599609375 110.85614013671875 368.4892272949219 C 118.70259094238281 386.63323974609375 118.18462371826172 389.385009765625 127.96781158447266 400.0938415527344 C 126.95182800292969 404.56964111328125 128.14137268066406 399.3547668457031 127.55767822265625 400.69580078125 C 127.82977294921875 396.45404052734375 125.71293640136719 402.6011047363281 130.54554748535156 403.86181640625 C 126.95829772949219 402.804443359375 128.1230010986328 400.23321533203125 126.11473846435547 398.8795166015625 C 123.32074737548828 395.48919677734375 127.92886352539062 402.205078125 138.93511962890625 410.78948974609375 C 151.80963134765625 419.8835144042969 172.17523193359375 428.1937561035156 193.40133666992188 432.5096740722656 C 209.16629028320312 434.96124267578125 237.8756561279297 430.89190673828125 257.3152160644531 425.9012451171875 C 254.5376434326172 430.2800598144531 242.5031280517578 437.1339111328125 226.46353149414062 440.1207580566406 C 208.8982391357422 443.6921691894531 178.18743896484375 442.31512451171875 162.63604736328125 439.4018249511719 C 139.19131469726562 434.6063232421875 129.8355712890625 432.65875244140625 117.14038848876953 421.7108459472656 C 114.02511596679688 418.7177429199219 113.2549819946289 412.9825744628906 102.4018783569336 408.07012939453125 C 101.95598602294922 407.1922607421875 101.53870391845703 407.3631896972656 105.79779815673828 410.0926818847656 C 100.8548355102539 406.2746276855469 101.82181549072266 408.7401123046875 103.87843322753906 408.4068298339844 C 100.06810760498047 407.8271179199219 105.49818420410156 410.0696716308594 103.25695037841797 408.2672424316406 C 104.03892517089844 408.75567626953125 100.9452896118164 409.4465637207031 103.71009826660156 408.30743408203125 C 104.07305145263672 409.2098388671875 101.7939224243164 406.9619445800781 105.08587646484375 409.4460754394531 C 102.2635498046875 408.1161804199219 110.54133605957031 410.2666320800781 104.65943145751953 408.9400329589844 C 105.3507308959961 409.5893249511719 101.78863525390625 406.39300537109375 102.56745910644531 410.115478515625 C 101.65267181396484 406.70556640625 106.00965881347656 409.6207275390625 104.21087646484375 410.1409912109375 C 107.26692962646484 408.6085205078125 100.08991241455078 407.7752685546875 102.95392608642578 409.03173828125 C 106.003173828125 407.775146484375 83.16839599609375 405.93023681640625 93.5450210571289 406.71575927734375 C 93.14063262939453 406.57171630859375 91.39119720458984 408.9812316894531 90.30445861816406 397.9970397949219 C 90.31022644042969 398.39971923828125 90.45397186279297 398.825439453125 90.40966796875 398.4915771484375 C 89.48229217529297 397.8883972167969 91.30767822265625 399.4620361328125 89.12505340576172 396.3016662597656 C 91.39889526367188 399.4004211425781 89.80314636230469 399.6598205566406 91.31034851074219 397.7565002441406 C 90.12471771240234 399.1670227050781 91.19793701171875 398.1575012207031 89.13965606689453 398.0868225097656 C 89.6751937866211 397.8790588378906 88.06837463378906 397.149658203125 90.77900695800781 398.61456298828125 C 88.95545959472656 399.46636962890625 87.45244598388672 397.9098205566406 87.94114685058594 398.2666015625 C 88.29701232910156 398.9032897949219 87.14860534667969 398.0596923828125 89.32701873779297 397.84674072265625 C 87.34349060058594 398.3811950683594 89.28660583496094 397.6304016113281 90.20641326904297 398.0655517578125 C 91.67271423339844 408.6766662597656 93.39591217041016 406.0213623046875 90.89442443847656 406.0775451660156 C 96.73455810546875 407.0267333984375 82.34088897705078 407.9476623535156 85.88175964355469 407.7605285644531 C 85.34112548828125 408.587158203125 70.90811920166016 408.4940185546875 78.88520812988281 406.99822998046875 C 71.74015045166016 408.1343688964844 72.16692352294922 407.5452880859375 76.29349517822266 407.79364013671875 C 71.21400451660156 406.9649963378906 68.7034683227539 401.2513122558594 69.6340103149414 406.3433837890625 C 68.04582977294922 401.6812744140625 70.7597427368164 398.3008728027344 68.91387939453125 402.1904602050781 C 70.63050079345703 399.09710693359375 69.9578857421875 396.446533203125 70.3843765258789 401.15740966796875 C 69.69039154052734 398.01715087890625 73.5445327758789 393.2731018066406 78.92816162109375 388.662841796875 C 77.0698013305664 389.9065856933594 80.70166778564453 388.29742431640625 77.5712890625 389.5397033691406 C 76.5024185180664 390.9218444824219 81.34676361083984 387.14532470703125 78.81319427490234 389.15972900390625 C 79.77266693115234 388.23736572265625 78.85230255126953 389.422119140625 79.41700744628906 387.960205078125 C 78.51996612548828 390.40576171875 80.77271270751953 384.5414123535156 91.00760650634766 383.66314697265625 C 86.00164031982422 384.3284912109375 95.7484130859375 382.3135070800781 89.13251495361328 383.6462707519531 C 92.67324829101562 382.1812438964844 96.11966705322266 384.297607421875 94.35983276367188 383.7700500488281 C 96.86915588378906 383.4931945800781 91.0591049194336 383.20062255859375 95.4400405883789 383.2030334472656 C 86.31394958496094 384.8499755859375 94.93404388427734 382.9696350097656 96.20509338378906 383.57537841796875 C 92.82151794433594 383.1551818847656 98.91777038574219 383.3235778808594 96.73062133789062 383.2338562011719 C 91.57868957519531 383.3858947753906 98.82494354248047 383.1393127441406 93.217529296875 383.94000244140625 C 99.02197265625 381.4044189453125 111.28199768066406 388.2007751464844 107.0325927734375 386.7122802734375 C 106.98388671875 386.2288513183594 110.40052795410156 387.95831298828125 109.70648193359375 387.4944763183594 C 109.041748046875 388.18572998046875 112.06095123291016 388.2425231933594 110.02664184570312 386.2462463378906 C 110.5303955078125 387.45806884765625 110.33464050292969 384.64715576171875 110.3421859741211 389.43634033203125 C 109.98578643798828 375.3121032714844 109.46162414550781 381.5159606933594 103.15283203125 376.9799499511719 C 102.20307159423828 376.0393371582031 93.45393371582031 355.4529724121094 93.5716781616211 350.906982421875 C 90.16217803955078 335.69146728515625 86.02506256103516 312.27008056640625 82.50139617919922 289.9681091308594 C 78.54617309570312 261.8140563964844 69.7750473022461 229.95346069335938 81.12691497802734 203.94508361816406" stroke-width="0.0" fill="rgb(74, 63, 39)" opacity="0.9979883" stroke="rgb(186, 222, 251)" stroke-opacity="0.37455836" stroke-linecap="round" stroke-linejoin="round"/>
    <path d="M 375.7478332519531 157.4168701171875 C 377.80303955078125 157.9309844970703 379.4462585449219 158.74388122558594 380.42974853515625 159.96823120117188 C 380.8817443847656 161.56161499023438 380.7410888671875 163.52322387695312 380.66033935546875 165.82183837890625 C 380.14617919921875 167.92269897460938 379.2410888671875 169.4198760986328 378.7289123535156 171.35972595214844 C 379.27081298828125 174.15394592285156 379.101318359375 176.7126922607422 378.1934814453125 178.19595336914062 C 377.7752380371094 178.95375061035156 377.912841796875 179.81715393066406 377.6676330566406 180.47384643554688 C 377.8507385253906 181.4658203125 377.5365905761719 182.15948486328125 377.42193603515625 182.31483459472656 C 377.1815490722656 182.22787475585938 376.9765625 182.09732055664062 376.48944091796875 181.9560546875 C 376.20587158203125 181.77639770507812 376.2685852050781 181.53273010253906 376.47650146484375 181.45428466796875 C 376.7849426269531 181.62661743164062 376.94610595703125 181.980712890625 377.0553283691406 182.5367431640625 C 377.0465393066406 183.33004760742188 376.9161682128906 184.25408935546875 376.6784362792969 185.06993103027344 C 376.17022705078125 186.0518798828125 375.4845886230469 187.2357635498047 375.5758361816406 188.27919006347656 C 375.26873779296875 189.1455535888672 375.39776611328125 189.6797637939453 375.4794006347656 190.04205322265625 C 375.51702880859375 190.20872497558594 375.50347900390625 190.8484344482422 375.07269287109375 191.6837615966797 C 374.2538757324219 192.1349639892578 374.0652160644531 192.17333984375 374.44000244140625 192.2400360107422 C 374.998046875 192.27345275878906 375.27740478515625 192.5472869873047 375.06231689453125 192.9162139892578 C 374.8915710449219 193.37039184570312 374.0826416015625 194.0267791748047 373.5639953613281 194.7408447265625 C 373.3407287597656 195.6593475341797 373.28094482421875 196.69839477539062 373.2195739746094 198.22434997558594 C 372.8289794921875 199.56732177734375 372.64990234375 200.55531311035156 372.48028564453125 202.015869140625 C 372.24249267578125 203.82423400878906 371.8902893066406 205.54115295410156 371.3568115234375 206.7243194580078 C 370.58697509765625 207.80984497070312 370.1148986816406 209.38131713867188 369.9748840332031 211.19544982910156 C 369.87823486328125 213.1198272705078 369.683837890625 215.01284790039062 369.3089599609375 216.67193603515625 C 368.8455810546875 218.01467895507812 368.5523986816406 219.28761291503906 368.4538269042969 220.44009399414062 C 368.1873779296875 221.32530212402344 367.84332275390625 222.2322235107422 367.5653381347656 222.9505615234375 C 367.72198486328125 223.44610595703125 368.37994384765625 223.80355834960938 369.58245849609375 223.90318298339844 C 371.0978698730469 223.6336669921875 372.7032470703125 223.64300537109375 374.4855651855469 223.71986389160156 C 376.41455078125 223.6232452392578 378.4067077636719 223.36317443847656 380.7604064941406 223.00424194335938 C 383.30694580078125 223.00738525390625 386.1673583984375 222.95257568359375 389.3672180175781 222.71224975585938 C 392.4293212890625 222.5995635986328 395.34051513671875 222.49142456054688 397.4969482421875 222.5493621826172 C 398.50628662109375 223.16763305664062 398.5293273925781 224.29747009277344 397.7709655761719 225.85574340820312 C 396.04315185546875 227.7716522216797 392.87750244140625 229.9095001220703 388.69683837890625 232.04286193847656 C 384.0308837890625 234.06484985351562 378.7747497558594 236.02969360351562 372.7401428222656 238.5136260986328 C 366.9342956542969 242.0359344482422 362.0921630859375 246.85252380371094 358.6705627441406 253.76780700683594 C 356.8028564453125 262.9405212402344 355.1531677246094 273.17340087890625 353.2297058105469 283.7012634277344 C 351.6325378417969 293.3922424316406 350.3779296875 301.4980163574219 348.2822265625 307.1272888183594 C 344.67779541015625 309.4229431152344 340.46026611328125 308.8655090332031 337.1456298828125 305.9662780761719 C 335.9784240722656 300.9385070800781 336.9260559082031 294.5989074707031 338.55865478515625 287.03070068359375 C 339.68035888671875 278.2025451660156 340.8982849121094 269.26544189453125 341.8195495605469 260.70806884765625 C 342.93133544921875 252.8667755126953 343.7252502441406 245.63934326171875 344.80364990234375 239.3824462890625 C 346.15460205078125 234.2579345703125 347.85882568359375 230.07476806640625 349.5830383300781 226.78445434570312 C 351.0882568359375 224.25025939941406 352.25848388671875 222.4780731201172 352.984130859375 221.2842254638672 C 353.4682922363281 220.53192138671875 353.56683349609375 220.3732147216797 353.3031005859375 220.76307678222656 C 352.8700256347656 221.5194091796875 352.2032775878906 222.48974609375 351.1962890625 223.86233520507812 C 350.2855224609375 225.58755493164062 349.1535949707031 227.395751953125 348.13409423828125 229.4156951904297 C 347.32470703125 231.53915405273438 346.63568115234375 233.67349243164062 346.1527099609375 235.74880981445312 C 345.5108337402344 237.57394409179688 344.9492492675781 238.93614196777344 344.6877136230469 239.86544799804688 C 344.5809020996094 240.3987274169922 344.4508361816406 240.471435546875 344.2956848144531 240.09605407714844 C 344.4220275878906 239.02548217773438 344.8294677734375 237.6078643798828 345.19329833984375 236.03726196289062 C 345.474853515625 234.25987243652344 345.5208740234375 232.05142211914062 346.0055236816406 229.26559448242188 C 346.52349853515625 226.48764038085938 346.7127990722656 223.71966552734375 347.5567932128906 220.81011962890625 C 347.5821838378906 218.12464904785156 347.72393798828125 215.42808532714844 348.3448181152344 212.97662353515625 C 348.29888916015625 210.72235107421875 348.2359619140625 208.6858367919922 349.1337890625 206.33035278320312 C 349.0638732910156 204.31201171875 349.13189697265625 202.50645446777344 349.23779296875 200.45860290527344 C 349.6600036621094 198.13380432128906 349.90850830078125 195.76776123046875 350.34906005859375 193.3707275390625 C 350.42352294921875 191.1690673828125 350.7085876464844 189.4586639404297 351.4990539550781 187.6917724609375 C 351.5246887207031 185.77976989746094 351.3769836425781 183.64979553222656 351.4676818847656 181.8463134765625 C 351.47259521484375 180.63128662109375 351.7713317871094 179.487060546875 352.4731750488281 178.6904296875 C 353.5155029296875 178.31658935546875 354.88818359375 178.2064208984375 356.6625061035156 178.0269012451172 C 358.73773193359375 177.59881591796875 360.91204833984375 176.82664489746094 362.7658386230469 175.6890411376953 C 364.14300537109375 174.29196166992188 365.2711486816406 172.3201446533203 365.78289794921875 169.74713134765625 C 365.7192687988281 166.81936645507812 365.7427978515625 164.00149536132812 375.7478332519531 157.4168701171875" stroke-width="0.0" fill="rgb(73, 62, 37)" opacity="0.997825" stroke="rgb(199, 131, 27)" stroke-opacity="0.023791261" stroke-linecap="round" stroke-linejoin="round"/>
    <path d="M 237.47903442382812 145.7045135498047 C 238.13507080078125 146.0381317138672 238.8332061767578 146.40924072265625 239.52821350097656 146.87045288085938 C 240.2874755859375 147.46475219726562 241.09400939941406 148.16580200195312 241.91880798339844 148.97921752929688 C 242.7857208251953 149.84698486328125 243.7461395263672 150.77630615234375 244.8016357421875 151.7818145751953 C 245.89910888671875 152.91934204101562 246.9957275390625 154.11253356933594 248.09617614746094 155.28671264648438 C 249.23666381835938 156.42623901367188 250.4421844482422 157.5780792236328 251.67282104492188 158.73512268066406 C 252.84706115722656 159.91842651367188 253.94786071777344 161.17588806152344 255.00657653808594 162.52317810058594 C 256.0356140136719 163.81631469726562 257.01214599609375 164.9873809814453 257.9102783203125 166.15484619140625 C 258.72454833984375 167.26177978515625 259.4366149902344 168.25169372558594 260.0148010253906 169.19415283203125 C 260.4429016113281 170.12306213378906 260.7204284667969 170.94590759277344 260.8511047363281 171.53384399414062 C 260.82318115234375 171.87078857421875 260.6044921875 172.1083221435547 260.2525329589844 172.3762969970703 C 259.8092346191406 172.53826904296875 259.2159118652344 172.53219604492188 258.6236877441406 172.44049072265625 C 258.0832824707031 172.2205352783203 257.4999084472656 172.14894104003906 256.6054992675781 172.2156982421875 C 255.3198699951172 172.32662963867188 253.7028350830078 172.30963134765625 252.05389404296875 172.11102294921875 C 250.68309020996094 171.76983642578125 249.8427276611328 171.5973358154297 249.50994873046875 171.73779296875 C 249.21389770507812 171.8526153564453 248.73695373535156 171.99468994140625 247.640380859375 171.91184997558594 C 245.8848114013672 171.79046630859375 243.3978271484375 171.52139282226562 240.70433044433594 171.098876953125 C 238.0848846435547 171.03065490722656 236.80641174316406 170.775634765625 237.03884887695312 169.62583923339844 C 237.30088806152344 169.92333984375 237.0559844970703 170.40386962890625 235.6959228515625 170.66323852539062 C 234.24000549316406 170.50808715820312 233.0358428955078 169.8549346923828 231.7556915283203 169.37078857421875 C 230.4747314453125 169.05429077148438 229.3938446044922 169.64552307128906 228.96241760253906 169.848388671875 C 229.0894317626953 169.91062927246094 229.1433563232422 169.96401977539062 228.80908203125 169.99598693847656 C 228.02252197265625 169.9060516357422 226.97921752929688 169.73947143554688 225.84767150878906 169.610107421875 C 224.52268981933594 169.46681213378906 223.2364044189453 169.40463256835938 222.14865112304688 169.0585479736328 C 221.43182373046875 168.60816955566406 221.09939575195312 168.5286407470703 220.8529052734375 168.48455810546875 C 220.68470764160156 168.6014404296875 220.67581176757812 168.55422973632812 220.80398559570312 168.40000915527344 C 220.93260192871094 168.3748016357422 220.93553161621094 168.51914978027344 220.54519653320312 168.7185821533203 C 219.68099975585938 168.7189483642578 218.47930908203125 168.70669555664062 216.86228942871094 168.82440185546875 C 214.97293090820312 168.6602020263672 212.92840576171875 168.37583923339844 211.10626220703125 168.05795288085938 C 209.7347412109375 167.96615600585938 208.7183380126953 167.97254943847656 207.95997619628906 167.9280242919922 C 207.3625946044922 167.913330078125 206.63656616210938 167.80564880371094 205.64967346191406 167.80084228515625 C 204.70738220214844 167.5818634033203 203.9689178466797 167.4296112060547 203.33384704589844 167.518310546875 C 202.61480712890625 167.48873901367188 201.6001739501953 167.42262268066406 200.33868408203125 167.39248657226562 C 199.09274291992188 167.38653564453125 197.96656799316406 167.28712463378906 196.9486541748047 167.2266387939453 C 196.0518341064453 167.2039337158203 195.34744262695312 167.00836181640625 194.9177703857422 166.75555419921875 C 194.78797912597656 166.4838409423828 194.72567749023438 166.16677856445312 194.61900329589844 165.7407684326172 C 194.41290283203125 165.24476623535156 194.25889587402344 164.82215881347656 194.05111694335938 164.5548095703125 C 193.8402099609375 164.40170288085938 193.71128845214844 164.3428497314453 193.67816162109375 164.30702209472656 C 193.78175354003906 164.36534118652344 193.94886779785156 164.5350341796875 194.1000518798828 164.81785583496094 C 194.27130126953125 165.1275177001953 194.6715850830078 165.5628204345703 195.03631591796875 165.92706298828125 C 195.08493041992188 166.2781982421875 194.59521484375 166.79212951660156 193.51658630371094 166.95462036132812 C 191.58518981933594 166.95826721191406 188.49302673339844 166.8335723876953 184.24407958984375 166.7390899658203 C 178.95535278320312 166.68983459472656 172.5172119140625 167.13653564453125 164.952392578125 167.7700653076172 C 156.20567321777344 168.47251892089844 146.61119079589844 169.36599731445312 136.55560302734375 170.30001831054688 C 126.53562927246094 171.30322265625 116.85560607910156 172.29232788085938 107.90288543701172 172.90591430664062 C 100.34395599365234 173.03875732421875 94.84178924560547 172.81610107421875 91.81572723388672 171.84996032714844 C 91.6674575805664 169.74826049804688 94.55191040039062 167.47145080566406 100.10121154785156 165.8476104736328 C 107.6801528930664 165.52586364746094 117.21943664550781 165.50167846679688 128.0128173828125 165.24253845214844 C 138.8062286376953 164.89988708496094 149.40489196777344 164.24755859375 159.5944061279297 162.85313415527344 C 168.3040008544922 161.216552734375 175.95213317871094 159.599609375 182.5120849609375 157.99090576171875 C 187.87814331054688 157.1351776123047 192.38519287109375 156.18296813964844 196.19664001464844 155.83485412597656 C 198.90036010742188 155.1168670654297 200.78811645507812 154.33810424804688 202.43557739257812 153.8138427734375 C 203.2286834716797 153.6344757080078 203.75950622558594 153.38705444335938 204.5465087890625 153.34707641601562 C 205.52938842773438 153.26145935058594 206.20999145507812 153.6800537109375 206.34283447265625 154.28065490722656 C 206.65667724609375 153.52316284179688 206.82298278808594 152.72659301757812 207.59500122070312 152.46929931640625 C 208.7987060546875 152.27780151367188 210.02267456054688 152.1581268310547 211.28848266601562 151.71961975097656 C 212.7306365966797 151.48333740234375 214.29029846191406 151.36618041992188 215.8391571044922 150.77517700195312 C 217.53671264648438 150.3251495361328 219.4462890625 149.9755859375 221.530029296875 149.55026245117188 C 223.82936096191406 149.21836853027344 226.0569610595703 148.75099182128906 228.43763732910156 148.08346557617188 C 230.2286376953125 147.4814453125 232.09156799316406 147.24545288085938 234.00128173828125 146.81948852539062 C 235.52272033691406 146.29092407226562 236.9655303955078 146.07090759277344 237.47903442382812 145.7045135498047" stroke-width="0.0" fill="rgb(75, 64, 39)" opacity="0.99839556" stroke="rgb(47, 174, 176)" stroke-opacity="0.6312269" stroke-linecap="round" stroke-linejoin="round"/>
    <path d="M 321.0 454.0 C 322.0 454.0 323.0 454.0 324.0 454.0 C 325.0 454.0 326.0 454.0 327.0 454.0 C 328.0 455.0 329.0 455.0 330.0 455.0 C 331.0 456.0 332.0 456.0 333.0 456.0 C 334.0 456.0 335.0 457.0 336.0 457.0 C 336.0 458.0 336.0 459.0 335.0 460.0 C 334.0 460.0 333.0 461.0 332.0 462.0 C 331.0 463.0 330.0 464.0 329.0 464.0 C 328.0 465.0 327.0 466.0 326.0 466.0 C 325.0 466.0 324.0 465.0 323.0 466.0 C 323.0 467.0 323.0 468.0 323.0 469.0 C 322.0 470.0 321.0 470.0 320.0 470.0 C 319.0 471.0 319.0 472.0 318.0 472.0 C 317.0 473.0 316.0 474.0 315.0 474.0 C 314.0 475.0 313.0 475.0 312.0 476.0 C 311.0 477.0 310.0 477.0 309.0 478.0 C 308.0 478.0 307.0 479.0 306.0 480.0 C 305.0 480.0 304.0 481.0 303.0 481.0 C 302.0 482.0 301.0 482.0 300.0 482.0 C 300.0 481.0 299.0 480.0 298.0 481.0 C 298.0 482.0 298.0 483.0 297.0 483.0 C 296.0 483.0 296.0 482.0 295.0 481.0 C 294.0 482.0 294.0 483.0 294.0 484.0 C 293.0 484.0 292.0 484.0 291.0 484.0 C 291.0 483.0 290.0 482.0 290.0 481.0 C 289.0 480.0 288.0 480.0 287.0 481.0 C 287.0 482.0 287.0 483.0 287.0 484.0 C 287.0 485.0 286.0 485.0 285.0 485.0 C 284.0 485.0 283.0 485.0 282.0 485.0 C 281.0 485.0 280.0 485.0 279.0 484.0 C 278.0 484.0 277.0 484.0 276.0 484.0 C 275.0 483.0 274.0 483.0 273.0 483.0 C 272.0 483.0 271.0 482.0 270.0 482.0 C 269.0 482.0 268.0 481.0 267.0 481.0 C 266.0 480.0 265.0 479.0 264.0 479.0 C 263.0 478.0 262.0 478.0 261.0 477.0 C 260.0 476.0 259.0 475.0 259.0 474.0 C 259.0 473.0 259.0 472.0 260.0 472.0 C 261.0 472.0 262.0 472.0 263.0 472.0 C 264.0 471.0 265.0 471.0 266.0 471.0 C 267.0 471.0 268.0 471.0 269.0 471.0 C 270.0 471.0 271.0 470.0 272.0 470.0 C 273.0 470.0 274.0 469.0 275.0 469.0 C 276.0 469.0 277.0 469.0 278.0 469.0 C 279.0 470.0 280.0 470.0 281.0 470.0 C 282.0 470.0 283.0 471.0 284.0 471.0 C 285.0 471.0 286.0 471.0 287.0 471.0 C 288.0 471.0 289.0 471.0 290.0 471.0 C 291.0 470.0 292.0 470.0 293.0 470.0 C 294.0 470.0 295.0 469.0 296.0 469.0 C 297.0 468.0 298.0 468.0 299.0 467.0 C 300.0 467.0 301.0 466.0 302.0 465.0 C 303.0 465.0 304.0 464.0 305.0 463.0 C 306.0 462.0 307.0 462.0 308.0 461.0 C 309.0 461.0 310.0 460.0 310.0 459.0 C 311.0 459.0 312.0 459.0 313.0 459.0 C 313.0 460.0 313.0 461.0 315.0 463.0 C 317.0 462.0 319.0 461.0 318.0 459.0 C 316.0 458.0 316.0 456.0 317.0 455.0 C 319.0 456.0 320.0 454.0 321.0 454.0" stroke-width="0.0" fill="rgb(74, 62, 37)" opacity="1.0" stroke="rgb(40, 64, 65)" stroke-opacity="0.56899256" stroke-linecap="round" stroke-linejoin="round"/>
    <path d="M 243.0 191.0 C 244.0 191.0 245.0 191.0 244.0 191.0 C 243.0 192.0 243.0 193.0 243.0 194.0 C 243.0 195.0 244.0 196.0 245.0 196.0 C 246.0 196.0 247.0 195.0 248.0 195.0 C 249.0 194.0 249.0 193.0 249.0 192.0 C 250.0 193.0 251.0 193.0 252.0 194.0 C 253.0 194.0 254.0 195.0 255.0 195.0 C 256.0 196.0 257.0 197.0 258.0 198.0 C 259.0 199.0 260.0 200.0 260.0 201.0 C 261.0 202.0 261.0 203.0 262.0 204.0 C 262.0 205.0 262.0 206.0 263.0 207.0 C 263.0 208.0 263.0 209.0 263.0 210.0 C 264.0 211.0 264.0 212.0 264.0 213.0 C 264.0 214.0 264.0 215.0 264.0 216.0 C 264.0 217.0 264.0 218.0 263.0 219.0 C 263.0 220.0 263.0 221.0 263.0 222.0 C 262.0 223.0 262.0 224.0 261.0 225.0 C 261.0 226.0 261.0 227.0 260.0 228.0 C 260.0 229.0 259.0 230.0 258.0 231.0 C 258.0 232.0 257.0 233.0 256.0 234.0 C 255.0 235.0 254.0 236.0 254.0 235.0 C 254.0 234.0 254.0 233.0 253.0 232.0 C 252.0 232.0 251.0 232.0 250.0 233.0 C 250.0 234.0 249.0 235.0 249.0 236.0 C 249.0 237.0 250.0 238.0 251.0 238.0 C 250.0 239.0 248.0 240.0 246.0 241.0 C 244.0 242.0 242.0 243.0 240.0 244.0 C 238.0 245.0 236.0 245.0 234.0 246.0 C 232.0 246.0 230.0 247.0 228.0 247.0 C 226.0 248.0 224.0 248.0 222.0 249.0 C 220.0 249.0 218.0 249.0 218.0 247.0 C 220.0 247.0 222.0 247.0 224.0 246.0 C 224.0 244.0 222.0 243.0 220.0 243.0 C 220.0 243.0 222.0 243.0 224.0 243.0 C 226.0 242.0 228.0 242.0 230.0 241.0 C 232.0 240.0 234.0 240.0 236.0 239.0 C 238.0 238.0 240.0 237.0 242.0 235.0 C 244.0 234.0 246.0 233.0 248.0 231.0 C 250.0 229.0 252.0 228.0 253.0 226.0 C 255.0 224.0 256.0 222.0 256.0 220.0 C 257.0 218.0 257.0 216.0 257.0 214.0 C 257.0 212.0 257.0 210.0 255.0 208.0 C 253.0 207.0 251.0 208.0 250.0 210.0 C 250.0 212.0 250.0 214.0 249.0 216.0 C 249.0 218.0 248.0 220.0 247.0 222.0 C 245.0 224.0 243.0 226.0 241.0 227.0 C 239.0 228.0 237.0 229.0 235.0 229.0 C 233.0 230.0 231.0 230.0 229.0 230.0 C 227.0 230.0 225.0 230.0 225.0 230.0 C 226.0 228.0 227.0 227.0 229.0 227.0 C 231.0 227.0 233.0 226.0 235.0 225.0 C 237.0 224.0 239.0 223.0 241.0 221.0 C 243.0 219.0 245.0 217.0 246.0 215.0 C 247.0 213.0 248.0 211.0 248.0 209.0 C 248.0 207.0 247.0 205.0 245.0 203.0 C 243.0 202.0 241.0 201.0 239.0 201.0 C 237.0 200.0 235.0 200.0 235.0 200.0 C 237.0 200.0 239.0 199.0 241.0 199.0 C 242.0 197.0 241.0 195.0 240.0 194.0 C 242.0 193.0 242.0 191.0 243.0 191.0" stroke-width="0.0" fill="rgb(75, 64, 40)" opacity="1.0" stroke="rgb(219, 82, 233)" stroke-opacity="0.9831645" stroke-linecap="round" stroke-linejoin="round"/>
    <path d="M 386.0 382.0 C 387.0 382.0 388.0 382.0 389.0 382.0 C 390.0 382.0 391.0 382.0 392.0 382.0 C 393.0 382.0 394.0 383.0 395.0 383.0 C 395.0 384.0 396.0 385.0 396.0 386.0 C 397.0 387.0 397.0 388.0 397.0 389.0 C 396.0 390.0 396.0 391.0 395.0 391.0 C 394.0 391.0 393.0 392.0 393.0 393.0 C 393.0 394.0 392.0 394.0 391.0 394.0 C 390.0 393.0 389.0 393.0 388.0 392.0 C 388.0 391.0 387.0 390.0 386.0 390.0 C 385.0 391.0 384.0 391.0 383.0 391.0 C 382.0 392.0 382.0 393.0 382.0 394.0 C 382.0 395.0 382.0 396.0 382.0 397.0 C 381.0 397.0 380.0 397.0 379.0 397.0 C 378.0 397.0 377.0 397.0 376.0 398.0 C 377.0 399.0 378.0 399.0 379.0 399.0 C 379.0 400.0 379.0 401.0 378.0 401.0 C 377.0 401.0 376.0 402.0 375.0 402.0 C 374.0 402.0 374.0 401.0 373.0 400.0 C 372.0 400.0 371.0 399.0 370.0 400.0 C 369.0 400.0 368.0 400.0 367.0 401.0 C 368.0 402.0 368.0 403.0 368.0 404.0 C 367.0 405.0 366.0 405.0 365.0 405.0 C 364.0 406.0 363.0 406.0 362.0 406.0 C 361.0 407.0 360.0 407.0 359.0 407.0 C 358.0 407.0 357.0 408.0 356.0 408.0 C 355.0 408.0 354.0 408.0 354.0 407.0 C 354.0 406.0 353.0 405.0 352.0 406.0 C 352.0 407.0 351.0 407.0 350.0 407.0 C 349.0 407.0 348.0 407.0 347.0 407.0 C 346.0 407.0 345.0 407.0 344.0 407.0 C 343.0 408.0 342.0 408.0 341.0 408.0 C 341.0 407.0 341.0 406.0 341.0 405.0 C 341.0 404.0 340.0 403.0 339.0 403.0 C 338.0 403.0 338.0 402.0 338.0 401.0 C 338.0 400.0 338.0 399.0 338.0 398.0 C 338.0 399.0 338.0 400.0 339.0 401.0 C 340.0 401.0 341.0 401.0 342.0 402.0 C 343.0 402.0 344.0 402.0 345.0 402.0 C 346.0 401.0 347.0 401.0 348.0 401.0 C 349.0 401.0 350.0 401.0 351.0 400.0 C 351.0 399.0 351.0 398.0 351.0 397.0 C 352.0 397.0 353.0 397.0 354.0 397.0 C 355.0 396.0 356.0 396.0 357.0 396.0 C 358.0 396.0 359.0 396.0 360.0 396.0 C 361.0 397.0 362.0 397.0 363.0 398.0 C 363.0 399.0 363.0 400.0 363.0 401.0 C 364.0 402.0 365.0 401.0 365.0 400.0 C 365.0 399.0 366.0 399.0 367.0 399.0 C 368.0 398.0 367.0 397.0 366.0 397.0 C 365.0 397.0 365.0 396.0 365.0 395.0 C 366.0 395.0 367.0 394.0 367.0 393.0 C 368.0 392.0 369.0 391.0 370.0 391.0 C 371.0 391.0 372.0 391.0 373.0 391.0 C 374.0 390.0 374.0 389.0 374.0 388.0 C 375.0 388.0 376.0 388.0 377.0 387.0 C 377.0 386.0 378.0 385.0 378.0 384.0 C 379.0 384.0 380.0 384.0 381.0 385.0 C 382.0 385.0 383.0 384.0 383.0 383.0 C 384.0 383.0 385.0 382.0 386.0 382.0" stroke-width="0.0" fill="rgb(72, 61, 35)" opacity="1.0" stroke="rgb(204, 83, 116)" stroke-opacity="0.092047594" stroke-linecap="round" stroke-linejoin="round"/>
  </g>
</svg>
