<?xml version="1.0" ?>
<svg xmlns="http://www.w3.org/2000/svg" version="1.1" width="512" height="512">
  <defs/>
  <g>
    <path d="M 475.0 312.0 C 474.0 313.0 474.0 314.0 474.0 315.0 C 474.0 316.0 473.0 317.0 473.0 318.0 C 473.0 319.0 472.0 320.0 472.0 321.0 C 472.0 322.0 471.0 323.0 471.0 324.0 C 470.0 325.0 470.0 326.0 469.0 327.0 C 469.0 328.0 469.0 329.0 468.0 330.0 C 467.0 331.0 467.0 332.0 466.0 333.0 C 466.0 334.0 465.0 335.0 465.0 336.0 C 464.0 337.0 463.0 338.0 462.0 339.0 C 461.0 340.0 461.0 341.0 460.0 342.0 C 459.0 343.0 458.0 343.0 457.0 343.0 C 456.0 344.0 455.0 345.0 455.0 346.0 C 455.0 347.0 454.0 348.0 453.0 349.0 C 452.0 349.0 451.0 350.0 450.0 351.0 C 449.0 351.0 448.0 352.0 447.0 352.0 C 447.0 351.0 447.0 350.0 446.0 349.0 C 447.0 348.0 448.0 348.0 449.0 347.0 C 450.0 347.0 451.0 346.0 451.0 345.0 C 451.0 344.0 452.0 343.0 452.0 342.0 C 453.0 341.0 453.0 340.0 453.0 339.0 C 453.0 338.0 454.0 337.0 454.0 336.0 C 454.0 335.0 455.0 335.0 456.0 336.0 C 457.0 336.0 456.0 336.0 455.0 337.0 C 455.0 338.0 455.0 339.0 456.0 340.0 C 457.0 340.0 458.0 340.0 459.0 340.0 C 460.0 339.0 460.0 338.0 460.0 337.0 C 461.0 337.0 462.0 336.0 462.0 335.0 C 463.0 335.0 464.0 334.0 464.0 333.0 C 464.0 332.0 464.0 331.0 464.0 330.0 C 464.0 329.0 464.0 328.0 464.0 327.0 C 463.0 326.0 462.0 326.0 461.0 326.0 C 460.0 325.0 459.0 325.0 458.0 325.0 C 457.0 325.0 456.0 325.0 455.0 325.0 C 455.0 324.0 455.0 323.0 456.0 322.0 C 456.0 321.0 457.0 320.0 457.0 319.0 C 458.0 318.0 458.0 317.0 459.0 317.0 C 460.0 316.0 460.0 315.0 460.0 314.0 C 461.0 315.0 462.0 315.0 463.0 316.0 C 464.0 316.0 465.0 316.0 465.0 317.0 C 465.0 318.0 465.0 319.0 466.0 320.0 C 467.0 320.0 468.0 320.0 469.0 319.0 C 469.0 318.0 469.0 317.0 470.0 317.0 C 471.0 317.0 472.0 316.0 472.0 315.0 C 472.0 314.0 472.0 313.0 473.0 313.0 C 474.0 312.0 474.0 311.0 475.0 312.0" stroke-width="0.0" fill="rgb(74, 65, 41)" opacity="1.0" stroke="rgb(25, 218, 179)" stroke-opacity="0.81168795" stroke-linecap="round" stroke-linejoin="round"/>
  </g>
</svg>
