<?xml version="1.0" ?>
<svg xmlns="http://www.w3.org/2000/svg" version="1.1" width="353" height="294">
  <defs/>
  <g>
    <path d="M 1.0 0.0 C 2.0 0.0 3.0 0.0 4.0 0.0 C 5.0 0.0 15.0 0.0 33.0 0.0 C 48.0 4.0 63.0 0.0 81.0 0.0 C 99.0 3.0 95.0 16.0 77.0 17.0 C 60.0 25.0 47.0 21.0 29.0 30.0 C 30.0 48.0 43.0 63.0 54.0 50.0 C 62.0 38.0 79.0 47.0 97.0 46.0 C 114.0 34.0 124.0 40.0 122.0 58.0 C 136.0 64.0 142.0 46.0 152.0 29.0 C 152.0 11.0 157.0 0.0 164.0 14.0 C 179.0 28.0 190.0 12.0 197.0 0.0 C 215.0 0.0 233.0 0.0 251.0 0.0 C 262.0 9.0 263.0 27.0 253.0 41.0 C 250.0 58.0 268.0 51.0 286.0 58.0 C 279.0 67.0 264.0 72.0 253.0 90.0 C 251.0 108.0 252.0 126.0 268.0 142.0 C 283.0 152.0 285.0 144.0 277.0 126.0 C 273.0 108.0 276.0 90.0 284.0 72.0 C 302.0 70.0 319.0 60.0 335.0 51.0 C 350.0 37.0 332.0 31.0 315.0 36.0 C 297.0 42.0 280.0 38.0 291.0 21.0 C 295.0 5.0 310.0 0.0 328.0 0.0 C 346.0 0.0 352.0 12.0 352.0 30.0 C 352.0 48.0 352.0 66.0 352.0 84.0 C 351.0 101.0 351.0 105.0 352.0 122.0 C 352.0 140.0 352.0 158.0 352.0 176.0 C 352.0 194.0 352.0 211.0 352.0 229.0 C 352.0 247.0 352.0 265.0 352.0 283.0 C 344.0 293.0 326.0 293.0 308.0 293.0 C 290.0 293.0 272.0 293.0 254.0 293.0 C 236.0 293.0 218.0 293.0 200.0 293.0 C 182.0 293.0 164.0 293.0 146.0 293.0 C 132.0 290.0 133.0 272.0 124.0 260.0 C 110.0 258.0 92.0 271.0 74.0 268.0 C 60.0 281.0 75.0 286.0 93.0 289.0 C 109.0 293.0 91.0 293.0 73.0 293.0 C 55.0 293.0 37.0 293.0 19.0 293.0 C 1.0 293.0 0.0 276.0 16.0 278.0 C 34.0 278.0 43.0 263.0 28.0 250.0 C 24.0 235.0 26.0 218.0 33.0 228.0 C 37.0 245.0 50.0 259.0 67.0 261.0 C 52.0 255.0 41.0 241.0 38.0 223.0 C 37.0 205.0 34.0 187.0 44.0 175.0 C 61.0 172.0 76.0 157.0 63.0 143.0 C 45.0 152.0 28.0 164.0 11.0 166.0 C 0.0 162.0 1.0 145.0 19.0 138.0 C 37.0 138.0 54.0 128.0 69.0 134.0 C 71.0 120.0 80.0 121.0 81.0 139.0 C 83.0 157.0 86.0 147.0 86.0 129.0 C 92.0 111.0 108.0 102.0 126.0 107.0 C 138.0 124.0 153.0 141.0 165.0 159.0 C 176.0 177.0 186.0 190.0 179.0 172.0 C 175.0 154.0 180.0 137.0 196.0 130.0 C 182.0 120.0 164.0 109.0 148.0 95.0 C 133.0 98.0 116.0 100.0 98.0 96.0 C 83.0 109.0 73.0 103.0 71.0 85.0 C 59.0 74.0 43.0 86.0 25.0 98.0 C 10.0 110.0 0.0 108.0 0.0 90.0 C 0.0 72.0 0.0 54.0 0.0 36.0 C 0.0 18.0 0.0 0.0 1.0 0.0" stroke-width="0.0" fill="rgb(124, 182, 101)" opacity="1.0" stroke="rgb(191, 90, 201)" stroke-opacity="0.24031615" stroke-linecap="round" stroke-linejoin="round"/>
    <path d="M 182.0 42.0 C 183.0 42.0 184.0 42.0 185.0 42.0 C 186.0 42.0 187.0 42.0 188.0 43.0 C 189.0 43.0 190.0 43.0 191.0 44.0 C 191.0 45.0 191.0 47.0 195.0 50.0 C 206.0 54.0 217.0 60.0 228.0 60.0 C 239.0 61.0 249.0 63.0 257.0 67.0 C 250.0 73.0 248.0 83.0 243.0 93.0 C 243.0 104.0 246.0 104.0 247.0 93.0 C 252.0 82.0 259.0 73.0 265.0 71.0 C 257.0 82.0 252.0 93.0 251.0 104.0 C 250.0 115.0 252.0 126.0 262.0 136.0 C 273.0 145.0 284.0 147.0 282.0 136.0 C 276.0 125.0 274.0 114.0 272.0 103.0 C 275.0 92.0 277.0 81.0 284.0 74.0 C 280.0 85.0 279.0 96.0 281.0 91.0 C 288.0 84.0 295.0 84.0 302.0 81.0 C 309.0 81.0 318.0 83.0 329.0 89.0 C 331.0 95.0 340.0 100.0 344.0 110.0 C 352.0 116.0 346.0 119.0 338.0 124.0 C 343.0 130.0 352.0 130.0 352.0 141.0 C 352.0 152.0 351.0 156.0 344.0 145.0 C 335.0 138.0 331.0 145.0 332.0 156.0 C 321.0 149.0 310.0 145.0 301.0 151.0 C 295.0 151.0 285.0 155.0 292.0 162.0 C 303.0 162.0 314.0 156.0 323.0 161.0 C 329.0 169.0 338.0 175.0 347.0 182.0 C 352.0 192.0 347.0 201.0 346.0 212.0 C 352.0 208.0 352.0 219.0 352.0 230.0 C 352.0 241.0 352.0 252.0 352.0 263.0 C 352.0 274.0 352.0 285.0 348.0 291.0 C 339.0 285.0 329.0 279.0 318.0 280.0 C 315.0 291.0 326.0 287.0 335.0 290.0 C 336.0 293.0 325.0 293.0 314.0 293.0 C 303.0 293.0 292.0 293.0 281.0 293.0 C 270.0 293.0 259.0 293.0 248.0 293.0 C 242.0 285.0 232.0 276.0 221.0 274.0 C 210.0 273.0 199.0 272.0 188.0 278.0 C 186.0 288.0 176.0 285.0 172.0 293.0 C 161.0 293.0 150.0 293.0 147.0 286.0 C 151.0 276.0 152.0 268.0 158.0 258.0 C 150.0 258.0 139.0 260.0 128.0 259.0 C 117.0 255.0 109.0 245.0 108.0 234.0 C 108.0 223.0 102.0 212.0 104.0 221.0 C 98.0 226.0 89.0 219.0 83.0 209.0 C 89.0 203.0 97.0 198.0 93.0 188.0 C 94.0 179.0 92.0 171.0 89.0 160.0 C 91.0 151.0 88.0 153.0 87.0 143.0 C 87.0 132.0 88.0 121.0 85.0 128.0 C 85.0 139.0 85.0 150.0 82.0 147.0 C 81.0 136.0 80.0 125.0 81.0 114.0 C 88.0 103.0 98.0 97.0 103.0 101.0 C 114.0 101.0 124.0 106.0 131.0 116.0 C 141.0 126.0 150.0 137.0 159.0 147.0 C 166.0 158.0 173.0 169.0 177.0 163.0 C 175.0 152.0 177.0 141.0 184.0 132.0 C 195.0 129.0 190.0 124.0 179.0 120.0 C 170.0 113.0 160.0 107.0 153.0 100.0 C 144.0 92.0 140.0 82.0 148.0 71.0 C 157.0 61.0 166.0 56.0 177.0 56.0 C 178.0 51.0 181.0 42.0 182.0 42.0" stroke-width="0.0" fill="rgb(42, 53, 31)" opacity="1.0" stroke="rgb(235, 160, 37)" stroke-opacity="0.21840616" stroke-linecap="round" stroke-linejoin="round"/>
    <path d="M 192.0 52.0 C 193.0 52.0 194.0 52.0 195.0 52.0 C 196.0 52.0 197.0 52.0 198.0 53.0 C 199.0 53.0 200.0 53.0 201.0 53.0 C 202.0 53.0 203.0 53.0 204.0 53.0 C 205.0 54.0 206.0 54.0 207.0 54.0 C 208.0 54.0 209.0 55.0 210.0 56.0 C 211.0 56.0 212.0 57.0 213.0 58.0 C 214.0 59.0 215.0 59.0 216.0 60.0 C 217.0 60.0 218.0 60.0 219.0 60.0 C 220.0 60.0 221.0 60.0 222.0 60.0 C 223.0 60.0 224.0 60.0 225.0 60.0 C 226.0 60.0 227.0 60.0 228.0 60.0 C 229.0 60.0 230.0 60.0 231.0 60.0 C 232.0 60.0 233.0 60.0 234.0 60.0 C 235.0 60.0 236.0 60.0 237.0 60.0 C 238.0 60.0 239.0 60.0 240.0 60.0 C 241.0 61.0 245.0 61.0 249.0 62.0 C 253.0 64.0 257.0 65.0 257.0 69.0 C 254.0 72.0 251.0 75.0 251.0 79.0 C 249.0 82.0 249.0 86.0 246.0 89.0 C 244.0 93.0 244.0 97.0 244.0 101.0 C 244.0 105.0 244.0 109.0 241.0 111.0 C 242.0 115.0 239.0 118.0 240.0 121.0 C 241.0 125.0 242.0 128.0 246.0 130.0 C 246.0 133.0 248.0 136.0 251.0 140.0 C 255.0 140.0 257.0 143.0 258.0 147.0 C 261.0 150.0 259.0 153.0 259.0 156.0 C 256.0 154.0 254.0 150.0 253.0 147.0 C 250.0 145.0 246.0 143.0 242.0 144.0 C 238.0 145.0 242.0 147.0 244.0 151.0 C 248.0 153.0 248.0 155.0 245.0 158.0 C 244.0 162.0 243.0 165.0 241.0 168.0 C 242.0 172.0 246.0 171.0 247.0 175.0 C 249.0 179.0 250.0 182.0 247.0 186.0 C 243.0 190.0 239.0 193.0 235.0 196.0 C 231.0 196.0 227.0 198.0 223.0 197.0 C 219.0 198.0 216.0 196.0 212.0 194.0 C 209.0 192.0 206.0 190.0 204.0 188.0 C 201.0 186.0 198.0 184.0 197.0 180.0 C 194.0 177.0 192.0 173.0 191.0 169.0 C 191.0 165.0 190.0 161.0 189.0 157.0 C 190.0 153.0 191.0 149.0 193.0 145.0 C 195.0 141.0 199.0 139.0 202.0 137.0 C 206.0 138.0 210.0 138.0 214.0 139.0 C 218.0 140.0 222.0 141.0 226.0 142.0 C 230.0 143.0 234.0 144.0 234.0 141.0 C 230.0 140.0 226.0 138.0 222.0 137.0 C 218.0 135.0 214.0 134.0 210.0 131.0 C 206.0 128.0 202.0 126.0 198.0 123.0 C 194.0 122.0 190.0 121.0 186.0 118.0 C 183.0 116.0 180.0 113.0 176.0 111.0 C 173.0 108.0 172.0 105.0 168.0 102.0 C 164.0 101.0 161.0 99.0 161.0 95.0 C 161.0 93.0 158.0 90.0 154.0 89.0 C 152.0 87.0 151.0 83.0 149.0 81.0 C 152.0 78.0 155.0 75.0 154.0 71.0 C 158.0 68.0 162.0 67.0 163.0 63.0 C 166.0 61.0 170.0 60.0 174.0 59.0 C 175.0 55.0 179.0 55.0 183.0 55.0 C 187.0 55.0 191.0 52.0 192.0 52.0" stroke-width="0.0" fill="rgb(85, 224, 4)" opacity="1.0" stroke="rgb(28, 76, 8)" stroke-opacity="0.16054724" stroke-linecap="round" stroke-linejoin="round"/>
    <path d="M 108.0 108.0 C 109.0 108.0 110.0 108.0 111.0 108.0 C 112.0 108.0 113.0 108.0 114.0 108.0 C 115.0 109.0 116.0 109.0 117.0 109.0 C 118.0 111.0 120.0 113.0 122.0 114.0 C 123.0 116.0 123.0 118.0 125.0 120.0 C 126.0 122.0 127.0 124.0 129.0 126.0 C 129.0 128.0 131.0 129.0 132.0 131.0 C 133.0 133.0 134.0 134.0 136.0 135.0 C 138.0 137.0 140.0 138.0 142.0 139.0 C 144.0 140.0 146.0 142.0 147.0 144.0 C 149.0 145.0 150.0 147.0 152.0 148.0 C 153.0 150.0 154.0 152.0 156.0 154.0 C 158.0 156.0 159.0 158.0 160.0 160.0 C 161.0 162.0 162.0 164.0 163.0 166.0 C 165.0 168.0 166.0 170.0 166.0 172.0 C 167.0 174.0 167.0 176.0 169.0 178.0 C 169.0 180.0 170.0 182.0 172.0 183.0 C 172.0 185.0 172.0 187.0 173.0 189.0 C 173.0 191.0 174.0 193.0 175.0 195.0 C 176.0 197.0 176.0 199.0 177.0 201.0 C 178.0 203.0 179.0 205.0 180.0 207.0 C 181.0 209.0 181.0 211.0 182.0 213.0 C 182.0 215.0 183.0 217.0 184.0 219.0 C 185.0 221.0 185.0 223.0 185.0 225.0 C 185.0 227.0 183.0 229.0 181.0 231.0 C 179.0 233.0 177.0 234.0 175.0 236.0 C 173.0 237.0 171.0 237.0 169.0 238.0 C 167.0 240.0 165.0 241.0 163.0 241.0 C 161.0 242.0 159.0 243.0 157.0 244.0 C 155.0 244.0 153.0 245.0 151.0 245.0 C 149.0 245.0 147.0 245.0 145.0 245.0 C 143.0 245.0 141.0 245.0 139.0 245.0 C 137.0 245.0 135.0 244.0 133.0 244.0 C 131.0 244.0 129.0 244.0 127.0 242.0 C 125.0 242.0 123.0 240.0 121.0 238.0 C 119.0 236.0 118.0 234.0 116.0 232.0 C 115.0 231.0 116.0 229.0 116.0 227.0 C 116.0 225.0 117.0 223.0 116.0 221.0 C 114.0 221.0 112.0 220.0 111.0 218.0 C 109.0 216.0 108.0 214.0 107.0 212.0 C 105.0 210.0 104.0 208.0 104.0 206.0 C 103.0 204.0 103.0 202.0 102.0 200.0 C 101.0 198.0 100.0 196.0 99.0 194.0 C 98.0 192.0 97.0 190.0 96.0 188.0 C 95.0 186.0 94.0 184.0 92.0 183.0 C 90.0 183.0 90.0 181.0 90.0 179.0 C 91.0 178.0 92.0 179.0 93.0 181.0 C 94.0 179.0 94.0 177.0 95.0 175.0 C 96.0 173.0 96.0 171.0 94.0 169.0 C 93.0 167.0 92.0 165.0 91.0 163.0 C 91.0 161.0 90.0 159.0 90.0 157.0 C 88.0 156.0 88.0 154.0 90.0 153.0 C 90.0 151.0 90.0 149.0 90.0 147.0 C 90.0 145.0 90.0 143.0 91.0 141.0 C 91.0 139.0 91.0 137.0 92.0 135.0 C 92.0 133.0 92.0 131.0 93.0 129.0 C 93.0 127.0 95.0 126.0 95.0 124.0 C 96.0 122.0 98.0 120.0 98.0 118.0 C 100.0 116.0 102.0 114.0 103.0 112.0 C 105.0 110.0 107.0 108.0 108.0 108.0" stroke-width="0.0" fill="rgb(88, 189, 3)" opacity="1.0" stroke="rgb(17, 75, 249)" stroke-opacity="0.25267234" stroke-linecap="round" stroke-linejoin="round"/>
    <path d="M 307.0 80.0 C 307.0 81.0 308.0 82.0 309.0 81.0 C 309.0 80.0 309.0 79.0 310.0 79.0 C 311.0 79.0 312.0 80.0 313.0 80.0 C 314.0 81.0 315.0 81.0 316.0 82.0 C 317.0 83.0 318.0 83.0 319.0 84.0 C 320.0 84.0 321.0 84.0 322.0 84.0 C 323.0 85.0 324.0 86.0 325.0 86.0 C 326.0 86.0 327.0 87.0 328.0 88.0 C 329.0 89.0 330.0 89.0 330.0 90.0 C 330.0 91.0 330.0 92.0 329.0 92.0 C 328.0 93.0 327.0 94.0 328.0 95.0 C 329.0 95.0 330.0 95.0 331.0 95.0 C 332.0 95.0 333.0 95.0 334.0 95.0 C 335.0 95.0 336.0 95.0 336.0 96.0 C 337.0 97.0 338.0 97.0 338.0 98.0 C 339.0 99.0 340.0 100.0 341.0 101.0 C 342.0 101.0 343.0 102.0 343.0 103.0 C 343.0 104.0 342.0 105.0 341.0 105.0 C 340.0 106.0 339.0 106.0 338.0 107.0 C 337.0 108.0 337.0 109.0 336.0 110.0 C 335.0 110.0 334.0 111.0 333.0 112.0 C 332.0 113.0 332.0 114.0 331.0 115.0 C 330.0 116.0 329.0 116.0 328.0 117.0 C 327.0 117.0 326.0 117.0 325.0 117.0 C 324.0 117.0 323.0 117.0 322.0 118.0 C 322.0 119.0 321.0 119.0 320.0 119.0 C 319.0 119.0 318.0 119.0 318.0 118.0 C 318.0 117.0 318.0 116.0 318.0 115.0 C 317.0 114.0 316.0 113.0 315.0 113.0 C 314.0 113.0 314.0 112.0 313.0 111.0 C 312.0 112.0 311.0 112.0 310.0 112.0 C 310.0 111.0 309.0 110.0 308.0 110.0 C 307.0 110.0 307.0 109.0 306.0 108.0 C 305.0 107.0 305.0 106.0 305.0 105.0 C 304.0 104.0 304.0 103.0 304.0 102.0 C 304.0 101.0 305.0 100.0 305.0 99.0 C 305.0 98.0 305.0 97.0 305.0 96.0 C 305.0 95.0 305.0 94.0 305.0 93.0 C 304.0 92.0 304.0 91.0 304.0 90.0 C 303.0 89.0 303.0 88.0 302.0 87.0 C 301.0 86.0 300.0 85.0 299.0 85.0 C 298.0 84.0 297.0 84.0 296.0 84.0 C 295.0 84.0 295.0 83.0 295.0 82.0 C 295.0 81.0 295.0 80.0 296.0 80.0 C 297.0 80.0 298.0 80.0 299.0 81.0 C 300.0 81.0 301.0 81.0 302.0 81.0 C 303.0 82.0 304.0 82.0 305.0 81.0 C 305.0 80.0 305.0 79.0 307.0 80.0" stroke-width="0.0" fill="rgb(61, 251, 8)" opacity="1.0" stroke="rgb(17, 180, 29)" stroke-opacity="0.4857266" stroke-linecap="round" stroke-linejoin="round"/>
    <path d="M 301.0 101.0 C 302.0 101.0 303.0 101.0 303.0 102.0 C 303.0 103.0 303.0 104.0 304.0 105.0 C 304.0 106.0 304.0 107.0 305.0 108.0 C 306.0 109.0 306.0 110.0 307.0 111.0 C 308.0 111.0 309.0 111.0 309.0 112.0 C 310.0 113.0 311.0 113.0 312.0 113.0 C 313.0 113.0 314.0 114.0 315.0 114.0 C 316.0 114.0 317.0 115.0 317.0 116.0 C 317.0 117.0 317.0 118.0 317.0 119.0 C 318.0 120.0 319.0 120.0 320.0 120.0 C 321.0 120.0 322.0 120.0 323.0 119.0 C 323.0 118.0 324.0 118.0 325.0 118.0 C 326.0 118.0 327.0 118.0 328.0 118.0 C 329.0 117.0 330.0 117.0 331.0 116.0 C 332.0 115.0 333.0 114.0 333.0 113.0 C 334.0 112.0 335.0 111.0 336.0 111.0 C 337.0 110.0 338.0 109.0 338.0 108.0 C 339.0 107.0 340.0 107.0 341.0 107.0 C 341.0 108.0 341.0 109.0 341.0 110.0 C 341.0 111.0 341.0 112.0 340.0 113.0 C 341.0 114.0 341.0 115.0 341.0 116.0 C 340.0 116.0 339.0 116.0 338.0 117.0 C 337.0 118.0 337.0 119.0 336.0 119.0 C 335.0 120.0 334.0 120.0 333.0 120.0 C 332.0 121.0 332.0 122.0 331.0 122.0 C 330.0 122.0 329.0 122.0 328.0 122.0 C 327.0 123.0 326.0 123.0 325.0 123.0 C 324.0 123.0 323.0 124.0 323.0 125.0 C 323.0 126.0 322.0 127.0 321.0 127.0 C 320.0 128.0 319.0 128.0 318.0 128.0 C 317.0 128.0 316.0 128.0 315.0 128.0 C 314.0 128.0 313.0 128.0 312.0 128.0 C 311.0 127.0 310.0 128.0 309.0 128.0 C 308.0 128.0 308.0 127.0 307.0 126.0 C 306.0 126.0 305.0 126.0 304.0 125.0 C 303.0 125.0 302.0 125.0 301.0 124.0 C 300.0 124.0 299.0 124.0 298.0 124.0 C 298.0 123.0 297.0 122.0 296.0 123.0 C 295.0 123.0 294.0 123.0 293.0 123.0 C 292.0 124.0 292.0 125.0 291.0 125.0 C 290.0 125.0 289.0 124.0 289.0 123.0 C 288.0 122.0 287.0 122.0 286.0 122.0 C 286.0 121.0 285.0 120.0 284.0 119.0 C 283.0 118.0 282.0 117.0 281.0 117.0 C 281.0 116.0 280.0 115.0 280.0 114.0 C 279.0 113.0 278.0 112.0 278.0 111.0 C 278.0 110.0 278.0 109.0 278.0 108.0 C 278.0 107.0 278.0 106.0 279.0 106.0 C 280.0 106.0 281.0 106.0 281.0 107.0 C 281.0 108.0 282.0 109.0 283.0 108.0 C 283.0 107.0 284.0 107.0 285.0 107.0 C 286.0 107.0 286.0 108.0 286.0 109.0 C 285.0 109.0 284.0 109.0 283.0 110.0 C 284.0 111.0 285.0 111.0 286.0 111.0 C 287.0 111.0 288.0 110.0 288.0 109.0 C 289.0 109.0 290.0 109.0 291.0 109.0 C 292.0 110.0 293.0 109.0 294.0 108.0 C 295.0 107.0 296.0 107.0 297.0 107.0 C 298.0 106.0 299.0 105.0 299.0 104.0 C 300.0 103.0 300.0 101.0 301.0 101.0" stroke-width="0.0" fill="rgb(83, 230, 2)" opacity="1.0" stroke="rgb(110, 131, 146)" stroke-opacity="0.041371707" stroke-linecap="round" stroke-linejoin="round"/>
    <path d="M 10.0 58.0 C 11.0 58.0 12.0 58.0 13.0 58.0 C 14.0 58.0 15.0 59.0 16.0 60.0 C 17.0 61.0 18.0 62.0 19.0 63.0 C 20.0 63.0 21.0 64.0 21.0 65.0 C 22.0 66.0 22.0 67.0 23.0 68.0 C 23.0 69.0 23.0 70.0 23.0 71.0 C 23.0 72.0 23.0 73.0 24.0 74.0 C 24.0 75.0 24.0 76.0 24.0 77.0 C 24.0 78.0 24.0 79.0 24.0 80.0 C 24.0 81.0 23.0 82.0 22.0 83.0 C 21.0 84.0 21.0 85.0 20.0 86.0 C 19.0 87.0 19.0 88.0 18.0 88.0 C 17.0 89.0 17.0 90.0 16.0 91.0 C 15.0 92.0 14.0 92.0 13.0 92.0 C 12.0 91.0 11.0 91.0 11.0 90.0 C 11.0 89.0 10.0 88.0 9.0 87.0 C 9.0 86.0 9.0 85.0 8.0 84.0 C 7.0 83.0 7.0 82.0 6.0 81.0 C 5.0 80.0 5.0 79.0 4.0 78.0 C 4.0 77.0 3.0 76.0 2.0 76.0 C 1.0 75.0 0.0 74.0 0.0 73.0 C 0.0 72.0 0.0 71.0 0.0 70.0 C 0.0 69.0 0.0 68.0 0.0 67.0 C 0.0 66.0 0.0 65.0 0.0 64.0 C 0.0 63.0 0.0 62.0 1.0 61.0 C 2.0 61.0 3.0 61.0 4.0 61.0 C 5.0 60.0 6.0 60.0 7.0 59.0 C 8.0 59.0 9.0 58.0 10.0 58.0" stroke-width="0.0" fill="rgb(21, 20, 18)" opacity="1.0" stroke="rgb(88, 224, 242)" stroke-opacity="0.066263445" stroke-linecap="round" stroke-linejoin="round"/>
    <path d="M 4.0 183.0 C 5.0 183.0 6.0 183.0 7.0 183.0 C 8.0 183.0 9.0 183.0 10.0 183.0 C 11.0 183.0 12.0 183.0 13.0 184.0 C 14.0 183.0 15.0 183.0 16.0 183.0 C 17.0 183.0 18.0 183.0 19.0 183.0 C 20.0 183.0 21.0 183.0 22.0 183.0 C 23.0 183.0 24.0 183.0 25.0 183.0 C 26.0 183.0 26.0 184.0 27.0 185.0 C 27.0 186.0 27.0 187.0 27.0 188.0 C 27.0 189.0 27.0 190.0 27.0 191.0 C 27.0 192.0 27.0 193.0 27.0 194.0 C 26.0 194.0 25.0 194.0 24.0 194.0 C 23.0 194.0 22.0 194.0 21.0 194.0 C 20.0 194.0 19.0 194.0 18.0 195.0 C 17.0 195.0 16.0 196.0 15.0 197.0 C 14.0 197.0 13.0 198.0 13.0 199.0 C 13.0 200.0 12.0 201.0 12.0 202.0 C 12.0 203.0 11.0 204.0 11.0 205.0 C 11.0 206.0 11.0 207.0 11.0 208.0 C 10.0 209.0 10.0 210.0 11.0 211.0 C 11.0 212.0 11.0 213.0 11.0 214.0 C 11.0 215.0 10.0 216.0 9.0 217.0 C 8.0 217.0 7.0 217.0 6.0 216.0 C 5.0 216.0 4.0 216.0 3.0 216.0 C 2.0 216.0 1.0 216.0 0.0 215.0 C 0.0 214.0 0.0 213.0 0.0 212.0 C 0.0 211.0 0.0 210.0 0.0 209.0 C 0.0 208.0 0.0 207.0 0.0 206.0 C 0.0 205.0 0.0 204.0 0.0 203.0 C 0.0 202.0 0.0 201.0 0.0 200.0 C 0.0 199.0 0.0 198.0 0.0 197.0 C 0.0 196.0 0.0 195.0 0.0 194.0 C 0.0 193.0 0.0 192.0 0.0 191.0 C 0.0 190.0 0.0 189.0 0.0 188.0 C 0.0 187.0 0.0 186.0 0.0 185.0 C 1.0 184.0 2.0 183.0 4.0 183.0" stroke-width="0.0" fill="rgb(132, 223, 102)" opacity="1.0" stroke="rgb(132, 7, 126)" stroke-opacity="0.11276943" stroke-linecap="round" stroke-linejoin="round"/>
  </g>
</svg>
