<?xml version="1.0" ?>
<svg xmlns="http://www.w3.org/2000/svg" version="1.1" width="638" height="767">
  <defs/>
  <g>
    <path d="M 140.0 1.0 C 141.0 1.0 142.0 1.0 143.0 1.0 C 144.0 1.0 145.0 1.0 153.0 13.0 C 151.0 31.0 149.0 49.0 147.0 67.0 C 146.0 85.0 144.0 103.0 142.0 121.0 C 140.0 139.0 138.0 157.0 137.0 175.0 C 126.0 188.0 108.0 195.0 126.0 191.0 C 144.0 194.0 162.0 209.0 175.0 227.0 C 181.0 245.0 167.0 256.0 149.0 260.0 C 131.0 266.0 130.0 284.0 130.0 302.0 C 131.0 320.0 132.0 338.0 134.0 356.0 C 148.0 370.0 164.0 367.0 182.0 365.0 C 185.0 347.0 192.0 329.0 203.0 311.0 C 212.0 293.0 204.0 275.0 207.0 257.0 C 212.0 239.0 217.0 221.0 212.0 203.0 C 219.0 185.0 233.0 170.0 245.0 152.0 C 249.0 134.0 250.0 116.0 267.0 115.0 C 285.0 112.0 303.0 101.0 321.0 92.0 C 339.0 81.0 356.0 73.0 374.0 68.0 C 392.0 66.0 410.0 70.0 428.0 74.0 C 446.0 81.0 464.0 90.0 481.0 104.0 C 491.0 120.0 509.0 107.0 522.0 118.0 C 522.0 136.0 523.0 154.0 519.0 172.0 C 513.0 190.0 506.0 208.0 497.0 226.0 C 487.0 237.0 504.0 245.0 520.0 257.0 C 530.0 274.0 547.0 291.0 561.0 309.0 C 579.0 309.0 596.0 303.0 608.0 315.0 C 609.0 333.0 610.0 351.0 615.0 369.0 C 617.0 387.0 619.0 405.0 619.0 423.0 C 617.0 441.0 618.0 459.0 608.0 477.0 C 605.0 495.0 590.0 510.0 572.0 520.0 C 554.0 530.0 537.0 541.0 534.0 558.0 C 531.0 576.0 532.0 591.0 542.0 605.0 C 538.0 623.0 541.0 641.0 554.0 655.0 C 563.0 673.0 564.0 691.0 552.0 707.0 C 535.0 718.0 517.0 724.0 499.0 733.0 C 483.0 748.0 465.0 757.0 447.0 763.0 C 429.0 766.0 411.0 766.0 393.0 765.0 C 375.0 762.0 357.0 759.0 339.0 755.0 C 325.0 739.0 328.0 721.0 331.0 705.0 C 313.0 709.0 295.0 711.0 277.0 714.0 C 259.0 721.0 241.0 723.0 223.0 726.0 C 205.0 728.0 187.0 730.0 169.0 732.0 C 151.0 732.0 133.0 730.0 115.0 724.0 C 99.0 712.0 101.0 694.0 104.0 676.0 C 118.0 661.0 100.0 647.0 88.0 630.0 C 104.0 623.0 122.0 621.0 129.0 607.0 C 121.0 589.0 103.0 585.0 91.0 572.0 C 81.0 559.0 68.0 545.0 68.0 527.0 C 56.0 509.0 45.0 493.0 39.0 476.0 C 36.0 458.0 38.0 440.0 36.0 422.0 C 29.0 404.0 31.0 386.0 45.0 372.0 C 27.0 371.0 12.0 363.0 8.0 345.0 C 6.0 327.0 5.0 309.0 6.0 291.0 C 7.0 273.0 9.0 255.0 12.0 237.0 C 16.0 219.0 20.0 201.0 25.0 183.0 C 31.0 165.0 37.0 147.0 45.0 129.0 C 56.0 112.0 74.0 110.0 90.0 98.0 C 95.0 80.0 84.0 70.0 66.0 70.0 C 70.0 52.0 85.0 34.0 103.0 18.0 C 121.0 8.0 139.0 1.0 140.0 1.0" stroke-width="0.0" fill="rgb(0, 0, 0)" opacity="1.0" stroke="rgb(122, 246, 240)" stroke-opacity="0.344352" stroke-linecap="round" stroke-linejoin="round"/>
    <path d="M 396.0 75.0 C 397.0 75.0 398.0 75.0 399.0 75.0 C 400.0 76.0 401.0 76.0 400.0 76.0 C 399.0 77.0 398.0 77.0 397.0 77.0 C 396.0 78.0 396.0 79.0 396.0 80.0 C 397.0 81.0 400.0 80.0 407.0 79.0 C 415.0 80.0 423.0 82.0 431.0 85.0 C 439.0 88.0 447.0 92.0 455.0 95.0 C 463.0 100.0 471.0 107.0 473.0 114.0 C 474.0 122.0 474.0 130.0 469.0 138.0 C 461.0 146.0 455.0 154.0 463.0 153.0 C 471.0 148.0 479.0 143.0 486.0 138.0 C 494.0 131.0 502.0 123.0 510.0 117.0 C 513.0 123.0 513.0 131.0 513.0 139.0 C 514.0 147.0 513.0 155.0 512.0 163.0 C 510.0 171.0 507.0 179.0 504.0 187.0 C 501.0 195.0 498.0 203.0 494.0 211.0 C 490.0 219.0 484.0 220.0 476.0 223.0 C 468.0 225.0 460.0 227.0 454.0 224.0 C 457.0 218.0 465.0 214.0 473.0 210.0 C 479.0 202.0 482.0 194.0 474.0 193.0 C 466.0 193.0 467.0 187.0 471.0 179.0 C 476.0 171.0 482.0 163.0 490.0 155.0 C 498.0 147.0 504.0 139.0 504.0 132.0 C 496.0 137.0 488.0 143.0 480.0 149.0 C 472.0 155.0 464.0 161.0 456.0 166.0 C 448.0 168.0 442.0 170.0 449.0 175.0 C 454.0 181.0 454.0 189.0 448.0 197.0 C 444.0 204.0 444.0 212.0 443.0 220.0 C 441.0 228.0 438.0 236.0 434.0 244.0 C 428.0 252.0 420.0 259.0 412.0 264.0 C 416.0 271.0 424.0 272.0 417.0 280.0 C 409.0 288.0 401.0 296.0 393.0 303.0 C 385.0 310.0 377.0 317.0 369.0 322.0 C 361.0 325.0 353.0 328.0 345.0 330.0 C 337.0 331.0 329.0 332.0 321.0 332.0 C 313.0 332.0 305.0 331.0 297.0 329.0 C 289.0 327.0 281.0 324.0 273.0 320.0 C 265.0 315.0 257.0 310.0 249.0 304.0 C 241.0 299.0 233.0 295.0 225.0 293.0 C 219.0 286.0 214.0 278.0 213.0 270.0 C 216.0 262.0 222.0 254.0 226.0 246.0 C 222.0 238.0 226.0 230.0 233.0 226.0 C 241.0 225.0 248.0 225.0 249.0 233.0 C 253.0 238.0 258.0 243.0 264.0 243.0 C 272.0 238.0 280.0 232.0 282.0 225.0 C 281.0 219.0 285.0 215.0 279.0 207.0 C 279.0 199.0 274.0 201.0 269.0 209.0 C 261.0 214.0 253.0 217.0 245.0 219.0 C 237.0 220.0 229.0 218.0 224.0 214.0 C 222.0 206.0 222.0 198.0 227.0 190.0 C 235.0 186.0 240.0 178.0 245.0 170.0 C 250.0 162.0 256.0 154.0 262.0 146.0 C 268.0 140.0 275.0 132.0 281.0 126.0 C 289.0 121.0 297.0 116.0 305.0 111.0 C 313.0 107.0 321.0 103.0 329.0 99.0 C 337.0 93.0 345.0 91.0 353.0 89.0 C 360.0 83.0 368.0 78.0 376.0 80.0 C 376.0 87.0 368.0 92.0 361.0 94.0 C 368.0 96.0 376.0 93.0 382.0 85.0 C 387.0 81.0 395.0 75.0 396.0 75.0" stroke-width="0.0" fill="rgb(170, 199, 54)" opacity="1.0" stroke="rgb(222, 40, 141)" stroke-opacity="0.73397666" stroke-linecap="round" stroke-linejoin="round"/>
    <path d="M 348.0 431.0 C 349.0 431.0 350.0 431.0 351.0 431.0 C 352.0 431.0 353.0 431.0 354.0 431.0 C 355.0 431.0 356.0 431.0 357.0 431.0 C 358.0 431.0 359.0 431.0 360.0 431.0 C 361.0 431.0 362.0 431.0 363.0 431.0 C 364.0 431.0 365.0 431.0 366.0 431.0 C 367.0 431.0 368.0 431.0 369.0 431.0 C 370.0 431.0 371.0 431.0 372.0 431.0 C 373.0 431.0 374.0 431.0 375.0 431.0 C 376.0 431.0 376.0 432.0 376.0 433.0 C 376.0 434.0 375.0 434.0 374.0 434.0 C 373.0 435.0 373.0 436.0 372.0 437.0 C 372.0 438.0 371.0 439.0 371.0 440.0 C 370.0 441.0 369.0 444.0 367.0 449.0 C 364.0 454.0 362.0 459.0 360.0 464.0 C 358.0 469.0 355.0 474.0 353.0 479.0 C 351.0 484.0 348.0 489.0 347.0 494.0 C 343.0 495.0 338.0 495.0 333.0 495.0 C 328.0 497.0 323.0 500.0 318.0 504.0 C 314.0 509.0 315.0 513.0 320.0 515.0 C 325.0 516.0 330.0 517.0 333.0 521.0 C 331.0 525.0 326.0 525.0 322.0 523.0 C 317.0 522.0 312.0 521.0 307.0 518.0 C 303.0 519.0 301.0 520.0 296.0 515.0 C 291.0 513.0 291.0 508.0 287.0 507.0 C 285.0 511.0 283.0 516.0 282.0 521.0 C 285.0 526.0 286.0 531.0 282.0 535.0 C 277.0 534.0 275.0 529.0 275.0 524.0 C 274.0 519.0 275.0 514.0 272.0 511.0 C 267.0 511.0 262.0 511.0 257.0 511.0 C 255.0 508.0 251.0 509.0 248.0 514.0 C 247.0 519.0 246.0 524.0 246.0 529.0 C 249.0 534.0 248.0 539.0 245.0 538.0 C 241.0 539.0 240.0 534.0 239.0 529.0 C 239.0 524.0 240.0 519.0 240.0 514.0 C 235.0 512.0 234.0 507.0 231.0 504.0 C 228.0 509.0 227.0 514.0 226.0 519.0 C 226.0 524.0 228.0 529.0 225.0 534.0 C 220.0 533.0 219.0 528.0 218.0 523.0 C 218.0 518.0 218.0 513.0 218.0 508.0 C 213.0 508.0 208.0 509.0 203.0 512.0 C 204.0 517.0 205.0 522.0 205.0 527.0 C 203.0 531.0 200.0 527.0 198.0 522.0 C 198.0 517.0 197.0 512.0 197.0 507.0 C 197.0 502.0 198.0 497.0 195.0 492.0 C 192.0 487.0 190.0 482.0 188.0 477.0 C 186.0 472.0 189.0 468.0 193.0 467.0 C 194.0 472.0 199.0 474.0 204.0 474.0 C 209.0 475.0 214.0 475.0 219.0 476.0 C 224.0 477.0 229.0 477.0 234.0 478.0 C 239.0 478.0 244.0 479.0 249.0 479.0 C 254.0 479.0 259.0 480.0 264.0 480.0 C 269.0 480.0 274.0 480.0 279.0 480.0 C 284.0 480.0 287.0 484.0 292.0 489.0 C 297.0 494.0 302.0 498.0 307.0 500.0 C 312.0 496.0 317.0 491.0 321.0 486.0 C 324.0 481.0 324.0 476.0 325.0 471.0 C 328.0 466.0 331.0 461.0 334.0 456.0 C 336.0 451.0 339.0 446.0 342.0 441.0 C 345.0 436.0 347.0 431.0 348.0 431.0" stroke-width="0.0" fill="rgb(120, 68, 33)" opacity="1.0" stroke="rgb(75, 91, 249)" stroke-opacity="0.039889727" stroke-linecap="round" stroke-linejoin="round"/>
    <path d="M 470.0 383.0 C 470.0 384.0 469.0 385.0 469.0 386.0 C 469.0 387.0 469.0 388.0 468.0 389.0 C 468.0 390.0 468.0 391.0 468.0 392.0 C 468.0 393.0 468.0 394.0 468.0 395.0 C 468.0 396.0 468.0 397.0 468.0 398.0 C 468.0 399.0 468.0 400.0 468.0 401.0 C 468.0 402.0 468.0 403.0 468.0 404.0 C 468.0 405.0 468.0 406.0 468.0 407.0 C 468.0 408.0 468.0 409.0 468.0 410.0 C 468.0 411.0 469.0 412.0 469.0 413.0 C 469.0 414.0 469.0 415.0 469.0 416.0 C 469.0 417.0 470.0 418.0 470.0 419.0 C 470.0 420.0 471.0 421.0 471.0 422.0 C 471.0 423.0 472.0 424.0 473.0 425.0 C 476.0 428.0 480.0 431.0 484.0 434.0 C 485.0 437.0 485.0 441.0 485.0 445.0 C 488.0 449.0 492.0 453.0 496.0 457.0 C 500.0 459.0 503.0 463.0 504.0 467.0 C 505.0 471.0 506.0 475.0 507.0 479.0 C 507.0 483.0 507.0 487.0 508.0 491.0 C 512.0 494.0 516.0 497.0 520.0 499.0 C 524.0 501.0 528.0 505.0 529.0 509.0 C 528.0 513.0 527.0 517.0 527.0 521.0 C 529.0 525.0 530.0 529.0 527.0 531.0 C 523.0 532.0 519.0 533.0 515.0 534.0 C 511.0 535.0 507.0 536.0 503.0 537.0 C 499.0 538.0 495.0 538.0 491.0 536.0 C 487.0 532.0 486.0 529.0 486.0 525.0 C 482.0 526.0 478.0 526.0 474.0 526.0 C 470.0 526.0 466.0 526.0 462.0 527.0 C 461.0 525.0 457.0 525.0 455.0 528.0 C 451.0 525.0 449.0 521.0 447.0 517.0 C 445.0 513.0 443.0 509.0 447.0 509.0 C 451.0 509.0 455.0 508.0 453.0 505.0 C 449.0 505.0 445.0 504.0 441.0 503.0 C 437.0 502.0 433.0 501.0 429.0 500.0 C 426.0 496.0 425.0 492.0 425.0 488.0 C 425.0 484.0 425.0 480.0 426.0 477.0 C 430.0 477.0 434.0 477.0 438.0 477.0 C 442.0 477.0 446.0 477.0 450.0 477.0 C 454.0 479.0 458.0 482.0 461.0 480.0 C 459.0 476.0 457.0 472.0 454.0 468.0 C 451.0 470.0 447.0 471.0 443.0 471.0 C 439.0 471.0 435.0 472.0 431.0 473.0 C 427.0 473.0 423.0 473.0 419.0 472.0 C 417.0 468.0 416.0 464.0 414.0 460.0 C 413.0 456.0 411.0 452.0 410.0 448.0 C 410.0 444.0 412.0 440.0 416.0 438.0 C 420.0 436.0 424.0 434.0 428.0 433.0 C 432.0 432.0 436.0 431.0 440.0 429.0 C 444.0 427.0 448.0 425.0 452.0 422.0 C 455.0 419.0 457.0 415.0 459.0 411.0 C 460.0 407.0 459.0 403.0 455.0 404.0 C 451.0 406.0 447.0 407.0 443.0 409.0 C 439.0 410.0 435.0 412.0 431.0 414.0 C 427.0 416.0 426.0 413.0 428.0 409.0 C 430.0 405.0 434.0 401.0 438.0 398.0 C 442.0 395.0 446.0 393.0 450.0 391.0 C 454.0 389.0 458.0 387.0 462.0 385.0 C 466.0 384.0 470.0 382.0 470.0 383.0" stroke-width="0.0" fill="rgb(170, 199, 54)" opacity="1.0" stroke="rgb(107, 212, 26)" stroke-opacity="0.16525312" stroke-linecap="round" stroke-linejoin="round"/>
    <path d="M 502.0 136.0 C 503.0 136.0 503.0 137.0 503.0 138.0 C 502.0 139.0 502.0 140.0 501.0 141.0 C 500.0 142.0 500.0 143.0 499.0 144.0 C 498.0 145.0 497.0 146.0 496.0 147.0 C 495.0 148.0 494.0 149.0 493.0 150.0 C 492.0 151.0 491.0 152.0 490.0 153.0 C 489.0 154.0 488.0 155.0 487.0 156.0 C 486.0 157.0 485.0 158.0 484.0 159.0 C 483.0 160.0 482.0 161.0 481.0 162.0 C 480.0 163.0 479.0 164.0 479.0 165.0 C 478.0 166.0 477.0 167.0 476.0 168.0 C 475.0 169.0 475.0 170.0 474.0 171.0 C 473.0 172.0 473.0 173.0 471.0 176.0 C 468.0 181.0 465.0 186.0 463.0 191.0 C 465.0 195.0 470.0 196.0 475.0 195.0 C 480.0 195.0 478.0 200.0 475.0 205.0 C 471.0 209.0 466.0 211.0 461.0 214.0 C 456.0 216.0 453.0 219.0 452.0 224.0 C 455.0 228.0 460.0 228.0 465.0 228.0 C 470.0 227.0 473.0 228.0 469.0 229.0 C 464.0 230.0 459.0 232.0 454.0 232.0 C 449.0 234.0 445.0 235.0 444.0 240.0 C 448.0 243.0 452.0 248.0 455.0 251.0 C 457.0 255.0 453.0 260.0 449.0 265.0 C 445.0 270.0 440.0 275.0 436.0 280.0 C 432.0 285.0 427.0 290.0 423.0 295.0 C 419.0 300.0 414.0 305.0 409.0 310.0 C 405.0 315.0 400.0 320.0 395.0 325.0 C 391.0 330.0 386.0 335.0 382.0 333.0 C 377.0 333.0 372.0 335.0 367.0 338.0 C 362.0 340.0 357.0 341.0 352.0 343.0 C 347.0 345.0 342.0 346.0 337.0 347.0 C 332.0 348.0 327.0 349.0 322.0 349.0 C 317.0 348.0 312.0 347.0 307.0 346.0 C 302.0 344.0 297.0 342.0 292.0 339.0 C 287.0 336.0 282.0 333.0 277.0 330.0 C 272.0 326.0 267.0 322.0 264.0 318.0 C 269.0 320.0 274.0 323.0 279.0 326.0 C 284.0 328.0 289.0 329.0 294.0 331.0 C 299.0 332.0 304.0 333.0 309.0 333.0 C 314.0 334.0 319.0 334.0 324.0 334.0 C 329.0 334.0 334.0 333.0 339.0 332.0 C 344.0 332.0 349.0 331.0 354.0 329.0 C 359.0 328.0 364.0 326.0 369.0 324.0 C 374.0 322.0 379.0 318.0 384.0 313.0 C 389.0 309.0 394.0 304.0 399.0 299.0 C 404.0 295.0 409.0 290.0 414.0 285.0 C 418.0 280.0 423.0 275.0 424.0 270.0 C 419.0 270.0 414.0 268.0 416.0 264.0 C 421.0 260.0 426.0 256.0 430.0 251.0 C 435.0 246.0 438.0 241.0 440.0 236.0 C 442.0 231.0 444.0 226.0 445.0 221.0 C 446.0 216.0 446.0 211.0 446.0 206.0 C 446.0 201.0 450.0 198.0 454.0 193.0 C 456.0 188.0 457.0 183.0 456.0 178.0 C 452.0 174.0 447.0 172.0 446.0 169.0 C 451.0 169.0 456.0 168.0 461.0 165.0 C 466.0 161.0 471.0 158.0 476.0 154.0 C 481.0 150.0 486.0 147.0 491.0 143.0 C 496.0 140.0 501.0 136.0 502.0 136.0" stroke-width="0.0" fill="rgb(103, 119, 32)" opacity="1.0" stroke="rgb(236, 14, 20)" stroke-opacity="0.18815555" stroke-linecap="round" stroke-linejoin="round"/>
    <path d="M 473.0 601.0 C 474.0 601.0 475.0 601.0 476.0 601.0 C 477.0 601.0 478.0 601.0 479.0 601.0 C 480.0 601.0 481.0 601.0 482.0 602.0 C 484.0 605.0 486.0 608.0 489.0 611.0 C 492.0 613.0 495.0 613.0 498.0 612.0 C 501.0 611.0 504.0 610.0 507.0 608.0 C 510.0 606.0 513.0 603.0 515.0 602.0 C 518.0 602.0 521.0 602.0 524.0 601.0 C 527.0 601.0 530.0 601.0 532.0 602.0 C 531.0 605.0 530.0 608.0 529.0 611.0 C 528.0 614.0 528.0 617.0 528.0 620.0 C 528.0 623.0 528.0 626.0 528.0 629.0 C 528.0 632.0 529.0 635.0 531.0 637.0 C 531.0 640.0 531.0 643.0 532.0 646.0 C 532.0 649.0 532.0 652.0 534.0 654.0 C 537.0 655.0 540.0 656.0 543.0 658.0 C 546.0 660.0 548.0 663.0 550.0 666.0 C 551.0 669.0 552.0 672.0 553.0 675.0 C 554.0 678.0 554.0 681.0 555.0 684.0 C 555.0 687.0 555.0 690.0 554.0 693.0 C 551.0 696.0 548.0 698.0 545.0 699.0 C 542.0 701.0 540.0 704.0 537.0 706.0 C 534.0 708.0 531.0 709.0 528.0 711.0 C 525.0 712.0 522.0 713.0 519.0 714.0 C 516.0 714.0 513.0 714.0 514.0 714.0 C 517.0 714.0 520.0 713.0 522.0 710.0 C 523.0 707.0 524.0 704.0 524.0 701.0 C 523.0 698.0 522.0 695.0 521.0 692.0 C 521.0 689.0 519.0 686.0 518.0 683.0 C 516.0 680.0 514.0 678.0 511.0 679.0 C 508.0 681.0 505.0 683.0 503.0 686.0 C 501.0 683.0 499.0 680.0 497.0 677.0 C 494.0 674.0 492.0 671.0 489.0 668.0 C 486.0 665.0 483.0 663.0 480.0 661.0 C 477.0 660.0 474.0 659.0 471.0 658.0 C 469.0 656.0 467.0 655.0 465.0 656.0 C 462.0 655.0 460.0 654.0 460.0 651.0 C 459.0 648.0 459.0 645.0 459.0 642.0 C 459.0 639.0 459.0 636.0 462.0 635.0 C 465.0 635.0 468.0 636.0 471.0 637.0 C 474.0 638.0 477.0 639.0 480.0 639.0 C 483.0 640.0 486.0 640.0 489.0 640.0 C 492.0 640.0 495.0 640.0 498.0 640.0 C 501.0 640.0 504.0 640.0 507.0 640.0 C 510.0 640.0 513.0 640.0 516.0 640.0 C 519.0 639.0 522.0 639.0 525.0 637.0 C 524.0 634.0 521.0 634.0 518.0 634.0 C 515.0 634.0 512.0 635.0 509.0 635.0 C 506.0 635.0 503.0 635.0 500.0 635.0 C 497.0 635.0 494.0 635.0 491.0 635.0 C 488.0 634.0 485.0 634.0 482.0 634.0 C 479.0 633.0 476.0 633.0 473.0 632.0 C 470.0 632.0 467.0 631.0 464.0 631.0 C 461.0 630.0 458.0 629.0 455.0 629.0 C 452.0 628.0 451.0 625.0 449.0 622.0 C 448.0 619.0 447.0 616.0 445.0 614.0 C 446.0 611.0 446.0 608.0 448.0 610.0 C 451.0 609.0 454.0 608.0 457.0 607.0 C 460.0 606.0 463.0 604.0 466.0 603.0 C 469.0 602.0 472.0 601.0 473.0 601.0" stroke-width="0.0" fill="rgb(127, 101, 0)" opacity="1.0" stroke="rgb(62, 99, 185)" stroke-opacity="0.24760196" stroke-linecap="round" stroke-linejoin="round"/>
    <path d="M 439.0 653.0 C 440.0 653.0 441.0 653.0 442.0 653.0 C 443.0 653.0 444.0 653.0 445.0 653.0 C 446.0 653.0 447.0 653.0 448.0 654.0 C 449.0 654.0 450.0 654.0 451.0 654.0 C 452.0 654.0 453.0 654.0 454.0 654.0 C 455.0 655.0 456.0 655.0 457.0 655.0 C 458.0 655.0 459.0 655.0 460.0 656.0 C 461.0 656.0 462.0 656.0 463.0 656.0 C 464.0 656.0 465.0 657.0 466.0 657.0 C 467.0 657.0 468.0 657.0 469.0 658.0 C 470.0 658.0 471.0 659.0 472.0 659.0 C 473.0 659.0 474.0 660.0 475.0 660.0 C 476.0 660.0 477.0 661.0 478.0 661.0 C 479.0 662.0 480.0 662.0 481.0 663.0 C 482.0 663.0 483.0 664.0 484.0 664.0 C 485.0 665.0 486.0 666.0 487.0 667.0 C 488.0 668.0 489.0 669.0 490.0 670.0 C 491.0 671.0 492.0 672.0 493.0 673.0 C 493.0 674.0 494.0 675.0 496.0 677.0 C 499.0 681.0 502.0 685.0 503.0 689.0 C 506.0 693.0 502.0 694.0 498.0 695.0 C 494.0 696.0 491.0 696.0 489.0 692.0 C 487.0 688.0 484.0 684.0 480.0 680.0 C 476.0 676.0 472.0 673.0 468.0 670.0 C 464.0 667.0 460.0 664.0 456.0 663.0 C 452.0 661.0 448.0 660.0 444.0 660.0 C 440.0 660.0 436.0 660.0 432.0 660.0 C 428.0 660.0 424.0 660.0 420.0 661.0 C 416.0 661.0 413.0 665.0 416.0 667.0 C 420.0 667.0 424.0 668.0 428.0 670.0 C 432.0 671.0 436.0 673.0 440.0 675.0 C 444.0 677.0 448.0 679.0 452.0 681.0 C 456.0 683.0 460.0 685.0 464.0 687.0 C 468.0 690.0 472.0 693.0 476.0 695.0 C 479.0 699.0 476.0 701.0 472.0 702.0 C 468.0 703.0 464.0 703.0 460.0 704.0 C 456.0 705.0 452.0 706.0 448.0 707.0 C 444.0 708.0 440.0 709.0 436.0 711.0 C 432.0 713.0 429.0 717.0 427.0 721.0 C 426.0 725.0 425.0 729.0 426.0 733.0 C 427.0 737.0 427.0 741.0 427.0 745.0 C 425.0 749.0 421.0 751.0 417.0 752.0 C 413.0 753.0 409.0 755.0 406.0 756.0 C 402.0 756.0 398.0 755.0 394.0 755.0 C 390.0 755.0 386.0 754.0 382.0 754.0 C 378.0 753.0 374.0 752.0 370.0 752.0 C 366.0 751.0 362.0 751.0 358.0 750.0 C 354.0 749.0 350.0 748.0 346.0 747.0 C 342.0 746.0 338.0 743.0 336.0 739.0 C 334.0 735.0 335.0 731.0 336.0 727.0 C 337.0 723.0 339.0 719.0 340.0 715.0 C 342.0 711.0 344.0 707.0 347.0 703.0 C 351.0 700.0 355.0 697.0 359.0 694.0 C 363.0 691.0 367.0 688.0 371.0 685.0 C 375.0 682.0 379.0 679.0 383.0 676.0 C 387.0 673.0 391.0 670.0 395.0 667.0 C 399.0 667.0 403.0 667.0 407.0 667.0 C 410.0 663.0 414.0 661.0 418.0 659.0 C 422.0 657.0 426.0 656.0 430.0 655.0 C 434.0 654.0 438.0 653.0 439.0 653.0" stroke-width="0.0" fill="rgb(212, 170, 0)" opacity="1.0" stroke="rgb(176, 214, 55)" stroke-opacity="0.26118818" stroke-linecap="round" stroke-linejoin="round"/>
    <path d="M 225.0 297.0 C 226.0 297.0 227.0 297.0 228.0 298.0 C 229.0 298.0 230.0 299.0 231.0 299.0 C 232.0 300.0 233.0 300.0 234.0 301.0 C 234.0 302.0 234.0 303.0 234.0 304.0 C 234.0 305.0 234.0 306.0 234.0 307.0 C 234.0 308.0 234.0 309.0 234.0 310.0 C 234.0 311.0 234.0 312.0 234.0 313.0 C 234.0 314.0 234.0 315.0 234.0 316.0 C 235.0 317.0 235.0 318.0 235.0 319.0 C 235.0 320.0 235.0 321.0 235.0 322.0 C 235.0 323.0 234.0 324.0 233.0 325.0 C 232.0 326.0 231.0 327.0 231.0 328.0 C 230.0 329.0 229.0 330.0 228.0 333.0 C 226.0 337.0 224.0 341.0 222.0 345.0 C 221.0 349.0 220.0 353.0 219.0 357.0 C 220.0 361.0 221.0 365.0 221.0 369.0 C 225.0 370.0 229.0 366.0 232.0 362.0 C 235.0 359.0 234.0 363.0 233.0 367.0 C 232.0 371.0 231.0 375.0 231.0 379.0 C 231.0 383.0 232.0 387.0 233.0 390.0 C 232.0 394.0 233.0 398.0 237.0 400.0 C 240.0 396.0 242.0 392.0 245.0 388.0 C 247.0 384.0 249.0 388.0 248.0 391.0 C 247.0 395.0 248.0 399.0 251.0 402.0 C 255.0 405.0 255.0 409.0 253.0 412.0 C 252.0 416.0 250.0 420.0 250.0 424.0 C 251.0 428.0 254.0 432.0 257.0 435.0 C 260.0 439.0 262.0 443.0 264.0 447.0 C 267.0 451.0 269.0 455.0 272.0 459.0 C 274.0 463.0 276.0 467.0 279.0 471.0 C 281.0 475.0 283.0 479.0 279.0 479.0 C 275.0 479.0 271.0 479.0 267.0 479.0 C 263.0 479.0 259.0 479.0 255.0 478.0 C 251.0 478.0 247.0 478.0 243.0 478.0 C 239.0 477.0 235.0 477.0 231.0 476.0 C 227.0 476.0 223.0 476.0 219.0 475.0 C 215.0 475.0 211.0 474.0 207.0 474.0 C 203.0 473.0 199.0 473.0 195.0 472.0 C 194.0 468.0 193.0 464.0 193.0 460.0 C 192.0 456.0 192.0 452.0 192.0 448.0 C 192.0 444.0 192.0 440.0 192.0 436.0 C 192.0 432.0 192.0 428.0 192.0 424.0 C 193.0 420.0 193.0 416.0 193.0 412.0 C 193.0 412.0 194.0 416.0 198.0 420.0 C 202.0 422.0 206.0 424.0 210.0 425.0 C 214.0 426.0 218.0 427.0 222.0 428.0 C 226.0 429.0 230.0 430.0 234.0 431.0 C 236.0 428.0 232.0 426.0 228.0 424.0 C 224.0 422.0 220.0 420.0 216.0 419.0 C 212.0 417.0 208.0 415.0 204.0 412.0 C 200.0 408.0 197.0 404.0 194.0 400.0 C 193.0 396.0 193.0 392.0 193.0 388.0 C 193.0 384.0 193.0 380.0 193.0 376.0 C 193.0 372.0 191.0 369.0 193.0 365.0 C 193.0 361.0 193.0 357.0 194.0 353.0 C 194.0 349.0 195.0 345.0 196.0 341.0 C 198.0 337.0 201.0 333.0 203.0 329.0 C 206.0 325.0 208.0 321.0 211.0 317.0 C 214.0 313.0 216.0 309.0 219.0 305.0 C 222.0 301.0 224.0 297.0 225.0 297.0" stroke-width="0.0" fill="rgb(171, 199, 55)" opacity="1.0" stroke="rgb(111, 126, 38)" stroke-opacity="0.9759944" stroke-linecap="round" stroke-linejoin="round"/>
  </g>
</svg>
