<?xml version="1.0" ?>
<svg xmlns="http://www.w3.org/2000/svg" version="1.1" width="474" height="596">
  <defs/>
  <g>
    <path d="M 262.94110107421875 2.6651787757873535 C 266.9658508300781 -3.7609610557556152 277.1007995605469 -4.059122085571289 289.64508056640625 1.858573317527771 C 310.5600891113281 6.523950099945068 332.7613830566406 15.763815879821777 354.2801818847656 30.30828857421875 C 376.76544189453125 46.1939811706543 396.38848876953125 65.48175048828125 413.8226623535156 90.38224792480469 C 432.7946472167969 118.59207916259766 441.71026611328125 127.31140899658203 423.5130920410156 150.71604919433594 C 404.1122741699219 178.4833526611328 379.250732421875 197.03135681152344 354.6894226074219 213.02120971679688 C 336.3310852050781 224.39149475097656 312.3988342285156 224.67495727539062 292.52691650390625 237.8926239013672 C 283.3908386230469 246.05325317382812 280.57647705078125 251.17088317871094 278.1162414550781 252.9414825439453 C 273.3069763183594 251.95228576660156 266.2051696777344 249.55450439453125 258.3088684082031 247.15658569335938 C 251.39439392089844 246.4918670654297 247.2286834716797 248.39930725097656 246.9919891357422 253.25186157226562 C 250.86155700683594 260.8667907714844 258.3645324707031 270.701171875 268.4251403808594 281.7701721191406 C 279.5932312011719 293.0128173828125 290.4429626464844 303.6293029785156 299.9364013671875 312.8108215332031 C 307.61688232421875 319.6371765136719 313.3053283691406 323.1943664550781 317.0530700683594 323.17156982421875 C 318.91644287109375 319.62164306640625 319.17218017578125 312.8065490722656 318.2371520996094 303.4048156738281 C 316.5794677734375 292.5650634765625 314.7015380859375 281.4548645019531 313.740234375 270.995361328125 C 314.9776916503906 262.3990783691406 319.7360534667969 256.7603759765625 329.2200927734375 255.11744689941406 C 344.749267578125 257.9582214355469 366.0770568847656 265.574462890625 390.07080078125 278.4364318847656 C 411.7996520996094 291.8008117675781 419.2899475097656 300.2852783203125 415.0091552734375 302.0926818847656 C 405.21636962890625 299.22900390625 395.2961730957031 295.3725891113281 388.5428466796875 293.633544921875 C 386.8519287109375 295.3373718261719 390.95794677734375 301.29193115234375 400.849609375 311.6511535644531 C 415.4465026855469 325.9920959472656 431.9893798828125 340.6737365722656 432.6582946777344 355.6777648925781 C 430.6487731933594 348.96820068359375 414.8017272949219 343.5307312011719 398.4091796875 330.083984375 C 368.7651672363281 329.05828857421875 343.31842041015625 320.885498046875 325.5462646484375 317.1618347167969 C 317.31646728515625 329.1279602050781 315.5973205566406 350.0557556152344 316.67010498046875 375.47723388671875 C 316.6025390625 400.7738952636719 310.1990966796875 423.8031921386719 304.12860107421875 447.0865783691406 C 297.13739013671875 466.0704040527344 285.3421936035156 480.34710693359375 288.0804138183594 504.37347412109375 C 302.21490478515625 516.7268676757812 295.1388244628906 529.31494140625 278.82379150390625 521.4783325195312 C 253.74557495117188 507.160400390625 240.13124084472656 505.251708984375 240.08094787597656 525.7632446289062 C 238.50439453125 556.4014282226562 234.55667114257812 575.3355712890625 246.4720458984375 576.0581665039062 C 277.7392578125 583.578857421875 313.7509460449219 581.7155151367188 342.06878662109375 575.3218383789062 C 345.6484375 555.8912963867188 341.9346618652344 557.3838500976562 335.80413818359375 578.5152587890625 C 314.0979919433594 588.0202026367188 275.4305725097656 584.6304321289062 244.58033752441406 579.9757080078125 C 229.6029052734375 575.5296020507812 233.1751251220703 557.792236328125 235.61082458496094 529.0991821289062 C 235.1008758544922 512.147216796875 246.34320068359375 495.69476318359375 241.80532836914062 470.50543212890625 C 231.7608642578125 462.2652893066406 220.44754028320312 464.9419250488281 215.2516632080078 482.1005554199219 C 210.29803466796875 509.63397216796875 212.6051025390625 519.281494140625 203.6256103515625 506.1893310546875 C 182.3828125 494.0780334472656 168.4447784423828 494.9476623535156 168.21617126464844 506.4479064941406 C 180.4286346435547 513.9075927734375 198.2975616455078 516.3121948242188 213.3417510986328 520.8804931640625 C 212.59263610839844 548.7385864257812 222.63941955566406 575.809326171875 214.08816528320312 585.7755737304688 C 188.72378540039062 585.1375122070312 168.05361938476562 594.1495361328125 147.206298828125 599.6923217773438 C 122.90349578857422 594.34375 112.71492767333984 588.269287109375 119.17632293701172 578.715576171875 C 124.32014465332031 597.9896240234375 152.66505432128906 594.9104614257812 187.97637939453125 583.3322143554688 C 215.14137268066406 584.2108764648438 215.36688232421875 582.7044677734375 212.91378784179688 558.5194091796875 C 211.05377197265625 531.7246704101562 208.7184600830078 514.10498046875 197.4304962158203 510.6277770996094 C 175.9064178466797 509.3950500488281 165.42861938476562 517.3207397460938 161.2261505126953 532.5176391601562 C 150.2436065673828 517.35498046875 167.54408264160156 508.81646728515625 166.7219696044922 481.56390380859375 C 156.34268188476562 461.5234069824219 155.1925506591797 441.0273742675781 152.95809936523438 413.4346008300781 C 151.86180114746094 385.9347839355469 150.83526611328125 360.7913818359375 141.98158264160156 341.4383850097656 C 127.62549591064453 335.9460754394531 109.54380798339844 346.3179931640625 85.02671813964844 357.8360900878906 C 74.30825805664062 369.0014343261719 73.24634552001953 370.4664306640625 76.14022827148438 357.9377746582031 C 84.59939575195312 343.6919860839844 93.98540496826172 330.0990295410156 100.92024230957031 318.4745788574219 C 104.55422973632812 309.70635986328125 104.61194610595703 303.46551513671875 102.17872619628906 298.68048095703125 C 100.0927505493164 294.0203857421875 101.55398559570312 288.16168212890625 109.96540832519531 279.5289611816406 C 128.2537078857422 266.4930419921875 149.4717559814453 252.0644073486328 159.94903564453125 240.7047882080078 C 146.93994140625 241.3737335205078 123.33573913574219 239.2229766845703 95.07237243652344 228.8661346435547 C 67.80157470703125 218.08282470703125 51.212215423583984 211.61085510253906 53.39765930175781 194.16954040527344 C 55.67247772216797 164.92031860351562 63.03078842163086 138.8677978515625 72.68734741210938 117.81852722167969 C 82.90080261230469 95.01738739013672 98.28712463378906 72.49231719970703 120.08641052246094 52.56338119506836 C 142.01119995117188 32.538021087646484 158.45132446289062 20.910585403442383 181.2208251953125 24.10219955444336 C 199.89332580566406 25.64447021484375 211.43911743164062 32.9581298828125 225.64352416992188 28.30222511291504 C 238.870361328125 10.184917449951172 261.1123046875 0.23864328861236572 262.94110107421875 2.6651787757873535" stroke-width="0.0" fill="rgb(61, 35, 26)" opacity="0.99968505" stroke="rgb(92, 35, 30)" stroke-opacity="0.4294523" stroke-linecap="round" stroke-linejoin="round"/>
    <path d="M 177.98291015625 239.218505859375 C 179.89866638183594 240.7638702392578 179.9231414794922 239.46815490722656 179.03404235839844 238.1909942626953 C 180.76478576660156 238.9002685546875 182.14166259765625 238.44903564453125 184.33316040039062 238.55311584472656 C 187.5364532470703 238.0086669921875 190.80996704101562 239.0216064453125 195.0827178955078 240.81971740722656 C 200.2545928955078 242.913330078125 207.51602172851562 244.2368927001953 215.82664489746094 245.34803771972656 C 226.2679443359375 246.07656860351562 236.63882446289062 246.3584442138672 247.94583129882812 245.2910919189453 C 259.2529296875 244.3877716064453 269.5028991699219 242.35304260253906 279.96954345703125 241.25132751464844 C 288.33135986328125 238.41165161132812 292.42529296875 234.0928955078125 293.22900390625 239.14486694335938 C 301.7828063964844 240.83892822265625 312.9216613769531 241.93209838867188 324.1470031738281 245.21852111816406 C 334.6177062988281 248.30191040039062 344.5253601074219 251.7469940185547 353.7781982421875 256.61785888671875 C 363.6457214355469 260.86456298828125 367.9099426269531 263.2547607421875 364.7458801269531 270.6408996582031 C 372.84246826171875 273.6232604980469 383.4014892578125 277.8166198730469 394.6184997558594 285.14862060546875 C 406.15655517578125 292.5178527832031 410.6188659667969 301.1543273925781 413.9681396484375 294.5960998535156 C 423.9457702636719 290.347412109375 435.3768005371094 289.4039306640625 441.1528015136719 279.5168151855469 C 452.0691223144531 277.7622375488281 453.296142578125 284.9239501953125 446.4217834472656 297.7786865234375 C 453.3439636230469 302.64593505859375 465.6326904296875 305.9380187988281 473.3010559082031 314.8375244140625 C 475.41900634765625 323.09588623046875 471.496826171875 322.2787170410156 465.6968688964844 325.4321594238281 C 472.11297607421875 341.40869140625 461.67633056640625 351.2666320800781 443.964599609375 346.31292724609375 C 445.1499328613281 358.29046630859375 446.6667175292969 363.13427734375 434.9169616699219 359.8591003417969 C 431.7754821777344 350.8424072265625 430.71331787109375 342.5346984863281 418.4465637207031 340.1846618652344 C 406.5187072753906 335.2647399902344 403.3931884765625 325.5414123535156 395.9490051269531 326.46075439453125 C 381.95257568359375 325.3030700683594 366.5760498046875 322.6689453125 353.2176208496094 318.1712646484375 C 345.9001159667969 313.6060485839844 345.51422119140625 318.1730651855469 342.8212585449219 326.9151306152344 C 335.1507263183594 326.39764404296875 328.7315368652344 320.28662109375 323.9727478027344 318.0113220214844 C 324.6714172363281 324.10699462890625 325.76885986328125 334.71484375 321.5957336425781 346.2652893066406 C 323.7099304199219 359.3431091308594 323.95855712890625 371.5045471191406 323.5852355957031 380.68206787109375 C 320.8847351074219 383.0045471191406 316.66595458984375 381.41973876953125 314.11590576171875 378.20263671875 C 309.02642822265625 381.11016845703125 304.2710876464844 388.7108154296875 300.4247741699219 399.63201904296875 C 297.9476623535156 412.01666259765625 296.4600830078125 424.7885437011719 295.2400817871094 436.81768798828125 C 293.6539611816406 447.3514404296875 291.2137756347656 456.1085510253906 287.7172546386719 462.8249206542969 C 283.0328369140625 467.24951171875 277.1546936035156 469.1734313964844 270.206787109375 468.6831359863281 C 262.41912841796875 465.8471374511719 254.0574188232422 461.1517028808594 245.66551208496094 455.49566650390625 C 237.7793731689453 450.2456970214844 230.70237731933594 446.3761291503906 224.67141723632812 444.9114990234375 C 219.35130310058594 447.0411071777344 214.162109375 451.61810302734375 208.45384216308594 457.44866943359375 C 202.03099060058594 463.3575744628906 195.19253540039062 468.01678466796875 188.2779541015625 470.5948791503906 C 181.70584106445312 470.5085754394531 175.98379516601562 467.99896240234375 171.43325805664062 463.4202880859375 C 168.4655303955078 457.1204528808594 167.08404541015625 449.2008361816406 167.04014587402344 440.1297607421875 C 167.71511840820312 430.1113586425781 168.05259704589844 419.4129943847656 167.01763916015625 408.7298889160156 C 163.7738494873047 399.1402282714844 160.03565979003906 391.23553466796875 155.8233642578125 386.201904296875 C 156.0440216064453 392.9801025390625 154.8480987548828 397.1292419433594 148.71177673339844 398.3354187011719 C 136.94813537597656 398.12493896484375 126.08325958251953 394.9181823730469 118.83406829833984 384.5935974121094 C 113.64363098144531 374.651123046875 113.5923080444336 360.5559387207031 113.53363800048828 347.72747802734375 C 116.98323822021484 340.7932434082031 122.91317749023438 337.37921142578125 122.9564208984375 333.9953308105469 C 116.94602966308594 337.68463134765625 108.68211364746094 343.2489013671875 98.21614074707031 347.875732421875 C 89.80309295654297 352.7701721191406 84.85955047607422 352.8973083496094 80.04605102539062 353.3713684082031 C 76.25872802734375 355.5937194824219 75.24040222167969 361.8299255371094 75.31829071044922 368.8633117675781 C 69.85015869140625 378.1164855957031 58.98066329956055 382.0872802734375 59.52852249145508 390.52349853515625 C 59.007484436035156 404.98541259765625 53.180137634277344 409.1087341308594 45.6175422668457 400.2106628417969 C 44.088645935058594 386.57244873046875 40.43257141113281 389.1816101074219 32.56610870361328 401.53668212890625 C 26.974090576171875 403.9604797363281 20.638671875 394.4075927734375 8.850667953491211 389.7904357910156 C 12.177501678466797 379.9524841308594 10.469603538513184 377.6305236816406 0.981115460395813 377.3953857421875 C -2.399592161178589 371.1305236816406 4.8808913230896 361.7570495605469 14.374767303466797 349.5260925292969 C 22.198867797851562 343.1700744628906 17.27760124206543 332.8207702636719 18.440771102905273 322.05303955078125 C 24.950363159179688 316.16082763671875 30.34922218322754 325.1225280761719 41.197147369384766 331.73101806640625 C 45.65152359008789 325.8203430175781 48.060997009277344 318.6930847167969 59.98208999633789 318.0577392578125 C 69.76483917236328 305.8485107421875 80.19571685791016 296.7253112792969 88.07609558105469 291.1044921875 C 92.12796020507812 288.9435119628906 90.2891616821289 288.17230224609375 90.21260833740234 282.88861083984375 C 94.25091552734375 276.6473083496094 103.10272216796875 271.08343505859375 112.36976623535156 264.474365234375 C 121.26605987548828 258.7358093261719 130.00318908691406 254.34164428710938 138.2224884033203 250.39218139648438 C 146.25714111328125 246.72531127929688 155.34231567382812 245.02493286132812 160.82981872558594 240.31512451171875 C 165.6277618408203 242.03936767578125 170.0175018310547 242.49600219726562 177.98291015625 239.218505859375" stroke-width="0.0" fill="rgb(248, 187, 108)" opacity="1.0" stroke="rgb(246, 201, 170)" stroke-opacity="0.6662853" stroke-linecap="round" stroke-linejoin="round"/>
    <path d="M 343.2680358886719 92.47859954833984 C 342.8725280761719 92.00812530517578 343.008544921875 92.0583267211914 343.1878356933594 92.07552337646484 C 343.5904541015625 92.19473266601562 344.194091796875 92.5381088256836 345.1001281738281 93.12289428710938 C 346.3074035644531 94.00691986083984 347.65618896484375 95.2669906616211 349.34625244140625 96.80308532714844 C 351.31683349609375 98.54840850830078 353.5347595214844 100.58460235595703 355.2012939453125 103.4352798461914 C 357.82586669921875 105.84410858154297 360.3922424316406 108.79660034179688 362.4127197265625 112.88352966308594 C 364.7283630371094 117.34195709228516 367.2341613769531 122.0633773803711 368.4769592285156 127.84367370605469 C 369.8227844238281 133.54107666015625 370.8168029785156 138.89073181152344 371.24542236328125 144.08262634277344 C 371.0828552246094 149.20565795898438 370.6814880371094 154.01829528808594 369.53045654296875 158.76670837402344 C 368.86846923828125 163.88169860839844 367.0238037109375 168.65377807617188 364.83868408203125 173.7530517578125 C 362.4889221191406 178.66397094726562 359.6434326171875 183.5884552001953 356.6222229003906 188.35647583007812 C 352.9661865234375 192.4220733642578 350.16656494140625 196.9557342529297 345.8787841796875 200.23190307617188 C 342.21978759765625 203.91018676757812 338.67529296875 207.9921875 334.1444091796875 211.12039184570312 C 329.4638671875 214.5548095703125 324.8453063964844 218.00588989257812 319.8203125 220.7176055908203 C 315.51287841796875 223.54151916503906 311.0181884765625 225.73077392578125 306.6998596191406 227.93238830566406 C 302.1264953613281 230.02267456054688 297.2203674316406 232.04592895507812 292.3665771484375 234.15480041503906 C 287.0192565917969 235.7198486328125 282.0604553222656 237.6693115234375 277.1590576171875 238.4900360107422 C 271.9174499511719 239.15472412109375 267.1717224121094 240.37054443359375 262.3283996582031 241.19561767578125 C 257.7637939453125 242.01951599121094 252.84104919433594 242.63729858398438 247.81759643554688 243.2939910888672 C 242.49014282226562 243.57850646972656 236.97528076171875 243.79542541503906 231.10105895996094 243.83932495117188 C 224.8837127685547 243.8596954345703 219.14120483398438 243.32177734375 213.4293975830078 242.27174377441406 C 208.157470703125 241.2991180419922 203.4161834716797 240.05267333984375 199.02444458007812 238.63906860351562 C 195.1833038330078 237.13644409179688 191.08798217773438 235.8480682373047 187.3096160888672 233.68585205078125 C 182.99302673339844 231.68936157226562 178.67396545410156 229.4326934814453 174.6052703857422 226.42837524414062 C 170.48220825195312 223.1862335205078 166.00137329101562 220.17190551757812 161.9424285888672 216.37789916992188 C 158.74530029296875 212.40589904785156 155.4559326171875 208.6615447998047 152.38816833496094 204.528076171875 C 149.5062713623047 199.83926391601562 146.8675079345703 194.5102996826172 145.09091186523438 188.32786560058594 C 143.58103942871094 182.15255737304688 142.78492736816406 176.36514282226562 143.00119018554688 171.02256774902344 C 143.3640899658203 166.0082244873047 143.5035400390625 161.28375244140625 145.3455352783203 157.1475067138672 C 146.82977294921875 152.06134033203125 150.93849182128906 148.77581787109375 155.28475952148438 145.30836486816406 C 157.07164001464844 139.9974365234375 157.51480102539062 134.50689697265625 157.80221557617188 130.4397735595703 C 160.78306579589844 130.2747344970703 162.9594268798828 132.546875 165.15057373046875 135.8690643310547 C 169.2536163330078 137.92295837402344 173.4310760498047 137.1489715576172 178.65362548828125 134.11209106445312 C 183.76898193359375 131.5663299560547 187.55538940429688 130.91473388671875 189.73239135742188 132.518310546875 C 188.93447875976562 135.17105102539062 186.15879821777344 138.56332397460938 183.93882751464844 143.0698699951172 C 184.112060546875 148.6607666015625 185.14353942871094 153.9344940185547 185.99363708496094 158.5281524658203 C 188.15940856933594 162.30772399902344 191.1383514404297 165.06936645507812 194.4604034423828 167.41249084472656 C 198.0669708251953 168.0637969970703 202.02476501464844 166.78968811035156 207.56130981445312 166.20777893066406 C 213.25674438476562 164.7962646484375 219.82052612304688 163.31414794921875 226.33981323242188 161.6190948486328 C 231.92462158203125 159.85696411132812 236.97964477539062 158.30313110351562 241.39340209960938 156.0663299560547 C 245.1165771484375 154.244140625 247.4059600830078 152.10137939453125 246.8912811279297 149.32627868652344 C 246.50155639648438 143.39266967773438 244.78973388671875 140.0701904296875 242.63763427734375 136.55502319335938 C 240.1328582763672 132.60601806640625 236.3946533203125 129.6680145263672 230.89414978027344 127.32493591308594 C 225.3872833251953 125.06478881835938 219.36318969726562 124.27693939208984 209.6434326171875 124.62123107910156 C 210.324951171875 120.8908462524414 213.5840606689453 121.38660430908203 218.1834259033203 120.25157928466797 C 224.54458618164062 118.14034271240234 232.89840698242188 116.77212524414062 240.58868408203125 115.18791961669922 C 245.31163024902344 112.46812438964844 246.11631774902344 108.68705749511719 243.73760986328125 104.1531753540039 C 241.57701110839844 99.42972564697266 240.3961944580078 96.28272247314453 241.88723754882812 94.61271667480469 C 245.0718231201172 95.81523895263672 249.79519653320312 99.14488983154297 254.7930450439453 102.99302673339844 C 258.66705322265625 106.69261932373047 262.01275634765625 108.7230453491211 266.0966796875 108.76602172851562 C 270.20623779296875 107.86011505126953 275.5184020996094 106.63794708251953 281.51849365234375 105.16127014160156 C 288.3200988769531 104.0851821899414 294.0984191894531 102.2080078125 299.8208312988281 101.34770965576172 C 305.8446350097656 100.03646850585938 308.9626159667969 99.23839569091797 302.26910400390625 104.2574691772461 C 303.35662841796875 111.42634582519531 306.732666015625 114.42838287353516 312.2494201660156 115.53197479248047 C 317.4427490234375 116.89099884033203 319.7901306152344 121.27567291259766 319.6973876953125 128.99169921875 C 323.0008544921875 132.32798767089844 327.98565673828125 132.80213928222656 332.6788635253906 129.64682006835938 C 335.65203857421875 127.48554992675781 338.205810546875 125.8200912475586 339.88568115234375 123.04991912841797 C 340.447998046875 120.48649597167969 339.6099853515625 116.22142028808594 338.5118713378906 110.22940063476562 C 338.8626708984375 103.67955780029297 334.44842529296875 101.46138000488281 325.18792724609375 99.49771118164062 C 321.28277587890625 97.95145416259766 323.06292724609375 96.6916275024414 328.97454833984375 95.93350982666016 C 332.987548828125 95.25272369384766 336.97772216796875 95.73251342773438 343.2680358886719 92.47859954833984" stroke-width="0.0" fill="rgb(252, 188, 106)" opacity="0.99998385" stroke="rgb(58, 145, 187)" stroke-opacity="0.24435565" stroke-linecap="round" stroke-linejoin="round"/>
    <path d="M 301.4449768066406 373.7557678222656 C 302.330322265625 375.62677001953125 302.198974609375 376.41632080078125 302.18475341796875 377.0856018066406 C 302.21234130859375 377.4663391113281 302.01116943359375 377.4678955078125 301.7181396484375 377.3103942871094 C 301.6115417480469 376.57916259765625 301.61944580078125 376.21051025390625 301.89984130859375 376.2005615234375 C 302.982177734375 376.3885498046875 304.8280029296875 376.40557861328125 307.1725158691406 376.4718322753906 C 309.802001953125 376.4302673339844 312.13446044921875 376.164306640625 312.4776611328125 377.38140869140625 C 310.75897216796875 379.9313049316406 311.9093933105469 384.01715087890625 311.70361328125 389.2654113769531 C 311.66326904296875 394.7262878417969 311.4930114746094 399.62469482421875 311.2529602050781 403.8126525878906 C 310.1512145996094 407.370849609375 309.24542236328125 410.6395568847656 309.2996520996094 413.6720275878906 C 307.8325500488281 416.4786682128906 307.6389465332031 419.2275390625 306.8183898925781 421.4154052734375 C 306.54815673828125 423.5879821777344 306.1683654785156 425.6950988769531 305.4635925292969 427.4921875 C 304.5174560546875 429.0437927246094 304.5459899902344 431.67706298828125 303.3080139160156 434.9429931640625 C 301.9676818847656 439.6831359863281 300.7252502441406 445.7900390625 299.1393127441406 452.3587646484375 C 297.2303161621094 458.4617004394531 298.9233703613281 461.9273376464844 301.15625 454.4664306640625 C 301.84149169921875 451.825927734375 302.5374450683594 456.18182373046875 300.69219970703125 462.23895263671875 C 300.68914794921875 468.7243347167969 298.5682678222656 472.41461181640625 293.0709228515625 472.9024353027344 C 294.2565612792969 469.6084289550781 294.5542907714844 468.31103515625 288.7162170410156 470.19305419921875 C 282.50604248046875 470.9039611816406 274.5719299316406 470.4491882324219 267.5744323730469 470.5126037597656 C 267.25714111328125 471.4795227050781 263.8111267089844 470.3049011230469 261.1432800292969 469.8016052246094 C 255.24546813964844 469.966552734375 251.5093536376953 468.7946472167969 247.906982421875 467.7904052734375 C 244.19126892089844 467.078125 241.2582550048828 465.93463134765625 238.7694854736328 465.28271484375 C 237.777099609375 462.79571533203125 237.38807678222656 460.43023681640625 237.474609375 457.2351989746094 C 237.20457458496094 454.0755615234375 236.8637237548828 451.0292053222656 236.12489318847656 448.5290222167969 C 234.6854248046875 446.7597351074219 232.77740478515625 446.1618957519531 230.513427734375 447.1006164550781 C 227.5670928955078 449.1639404296875 225.4562530517578 453.2398986816406 223.7769012451172 458.5831604003906 C 223.5864715576172 466.0662536621094 222.1890869140625 470.65521240234375 226.3399658203125 466.9149169921875 C 227.94821166992188 472.0472717285156 226.14625549316406 475.61627197265625 219.0865020751953 474.55828857421875 C 211.42210388183594 466.62738037109375 211.9291534423828 474.5109558105469 209.26060485839844 495.76910400390625 C 209.82310485839844 516.2919311523438 207.5983428955078 526.5897827148438 190.49331665039062 524.750244140625 C 189.53944396972656 510.71893310546875 191.5618133544922 502.86053466796875 190.0361328125 503.4419860839844 C 185.02099609375 508.9025573730469 176.02578735351562 510.68121337890625 169.6161651611328 506.2041015625 C 168.8523406982422 494.935791015625 169.28579711914062 482.6978454589844 169.52926635742188 470.9052734375 C 168.29518127441406 468.71209716796875 163.34915161132812 467.1615295410156 160.45448303222656 466.84368896484375 C 162.4198455810547 472.4896240234375 162.2425537109375 473.57110595703125 158.79649353027344 469.71868896484375 C 156.998779296875 461.91796875 156.62112426757812 454.8928527832031 158.9210662841797 449.9112548828125 C 158.1300048828125 444.6234130859375 158.82154846191406 441.39715576171875 157.7584991455078 440.38836669921875 C 157.41099548339844 438.8886413574219 157.90673828125 437.1432800292969 157.5133819580078 434.7148132324219 C 157.442626953125 431.5459289550781 157.6669158935547 428.14788818359375 156.61660766601562 425.2308044433594 C 156.64491271972656 422.0234680175781 156.49209594726562 418.81378173828125 156.45957946777344 415.5563659667969 C 156.53369140625 412.0771789550781 156.49575805664062 408.3124694824219 156.29710388183594 404.8343811035156 C 156.60899353027344 400.5127258300781 156.46226501464844 396.36572265625 156.85963439941406 392.3433532714844 C 156.7786865234375 388.9542541503906 156.46273803710938 385.99481201171875 157.02577209472656 383.5374450683594 C 156.5865020751953 381.527587890625 158.38885498046875 379.9198303222656 161.6363983154297 379.7457580566406 C 163.9877166748047 378.4524230957031 167.4593963623047 379.2933044433594 170.8873748779297 379.5509033203125 C 175.74945068359375 377.7019348144531 179.99725341796875 377.1378173828125 183.44601440429688 378.7355651855469 C 185.9483642578125 381.0108642578125 189.45736694335938 380.21075439453125 192.17300415039062 381.3957824707031 C 194.6521453857422 381.94134521484375 197.1837615966797 382.55908203125 199.81175231933594 382.7600402832031 C 201.79478454589844 383.34381103515625 204.1395263671875 383.9322204589844 206.70803833007812 384.16009521484375 C 207.6836395263672 384.122802734375 208.709716796875 384.8886413574219 210.44873046875 384.4580383300781 C 210.60072326660156 385.4625244140625 211.44264221191406 385.0219421386719 212.7088165283203 385.2890930175781 C 214.41607666015625 385.2449951171875 216.34840393066406 385.33349609375 218.27780151367188 386.8404541015625 C 220.41139221191406 387.27069091796875 223.03140258789062 387.4303894042969 225.82814025878906 387.5798034667969 C 228.7344207763672 388.08294677734375 231.7860107421875 388.3091735839844 234.78160095214844 388.4047546386719 C 237.81192016601562 388.4408874511719 240.86326599121094 388.41046142578125 243.81651306152344 388.43927001953125 C 246.70240783691406 388.4759216308594 249.56362915039062 388.5615539550781 252.3277587890625 388.6686706542969 C 255.0763702392578 388.69049072265625 257.8207092285156 388.5710144042969 260.59368896484375 388.19317626953125 C 263.40423583984375 387.4467468261719 266.01153564453125 386.4277648925781 268.5699768066406 385.3748474121094 C 272.0127868652344 384.7903137207031 275.12469482421875 384.4096374511719 278.25262451171875 383.67706298828125 C 281.2203369140625 382.9858703613281 284.119140625 382.6097412109375 286.001220703125 381.7015380859375 C 288.451904296875 381.13507080078125 290.4139404296875 380.5995178222656 292.81878662109375 379.73040771484375 C 296.9463806152344 379.4616394042969 298.8661804199219 377.4453125 301.4449768066406 373.7557678222656" stroke-width="0.0" fill="rgb(253, 76, 2)" opacity="0.999574" stroke="rgb(241, 157, 206)" stroke-opacity="0.58332807" stroke-linecap="round" stroke-linejoin="round"/>
    <path d="M 217.2015838623047 245.3505401611328 C 214.27383422851562 249.5044403076172 211.06851196289062 253.3303680419922 208.56005859375 256.8365173339844 C 206.75799560546875 259.67144775390625 205.5873260498047 261.4080810546875 205.22659301757812 261.9287109375 C 205.65853881835938 261.2992248535156 206.70516967773438 259.6841735839844 208.37884521484375 257.1558837890625 C 210.45892333984375 254.1455078125 212.99061584472656 251.21669006347656 215.20155334472656 248.12693786621094 C 216.6411590576172 247.58580017089844 217.91897583007812 249.89707946777344 221.4839630126953 252.17112731933594 C 226.45285034179688 254.22866821289062 232.19000244140625 254.88711547851562 238.2655487060547 254.6848907470703 C 243.90237426757812 254.43191528320312 247.96165466308594 253.2989959716797 250.56607055664062 251.86460876464844 C 251.5469970703125 254.7117919921875 251.21914672851562 258.1689453125 248.61117553710938 261.4333801269531 C 244.98748779296875 264.9017028808594 240.23362731933594 267.47760009765625 235.98561096191406 269.6042175292969 C 233.2978515625 271.0241394042969 232.37905883789062 271.5116271972656 233.24041748046875 271.1073913574219 C 235.5791015625 269.8673095703125 238.89385986328125 268.1072692871094 242.44473266601562 266.05450439453125 C 245.49603271484375 264.0156555175781 248.35693359375 262.2820739746094 249.6125030517578 260.0729064941406 C 250.79098510742188 257.8780212402344 251.26397705078125 255.54690551757812 251.06459045410156 253.1385498046875 C 252.34149169921875 249.52500915527344 256.125244140625 244.4930877685547 265.80120849609375 243.10440063476562 C 282.2366027832031 238.55552673339844 301.489013671875 238.43284606933594 321.966552734375 244.9693603515625 C 339.2160339355469 247.44517517089844 342.443115234375 254.84927368164062 328.75555419921875 261.9210510253906 C 315.47760009765625 276.43695068359375 302.2882080078125 285.2400207519531 290.55023193359375 289.1565246582031 C 283.7226867675781 292.4998779296875 280.9004821777344 292.9253234863281 282.61480712890625 292.2922668457031 C 287.6094665527344 290.3207702636719 294.7983703613281 287.72088623046875 302.1754455566406 283.7450256347656 C 308.7303466796875 279.93560791015625 313.04473876953125 276.1286926269531 316.1188659667969 274.8686218261719 C 313.1596374511719 279.3045654296875 307.7084045410156 284.8271179199219 302.9924011230469 293.15570068359375 C 297.7126159667969 301.6405334472656 293.76947021484375 309.1806945800781 291.0552673339844 314.2486572265625 C 290.0379943847656 316.1527099609375 290.5806884765625 315.25054931640625 292.1281433105469 312.1581115722656 C 294.91485595703125 307.28326416015625 298.764404296875 299.6567687988281 305.344482421875 288.4210510253906 C 317.3385314941406 273.4886169433594 330.2201232910156 256.06207275390625 346.8455810546875 253.21437072753906 C 369.94000244140625 260.5507507324219 367.6769714355469 280.8046569824219 351.7501525878906 311.300048828125 C 337.3131103515625 324.3585510253906 324.1233825683594 321.0247802734375 323.4796447753906 320.0794677734375 C 325.476806640625 328.5366516113281 324.7881164550781 336.5350341796875 323.1296081542969 341.9351501464844 C 321.60546875 344.0739440917969 321.4930419921875 343.8665771484375 321.9632873535156 342.646240234375 C 321.9786376953125 341.76202392578125 321.9385681152344 342.183349609375 321.8008117675781 344.26177978515625 C 321.3853454589844 347.74395751953125 322.1820373535156 352.8653869628906 323.412109375 359.17059326171875 C 323.8529968261719 366.7994079589844 323.7334289550781 374.3047180175781 323.66302490234375 380.8875732421875 C 321.7020263671875 382.4146728515625 318.2132873535156 381.67584228515625 313.3719787597656 379.4176940917969 C 309.473876953125 376.6221008300781 303.9761047363281 377.29931640625 298.2852783203125 377.5091247558594 C 292.8295593261719 377.7898864746094 287.7909851074219 377.3738098144531 283.1110534667969 376.3587646484375 C 278.5682678222656 375.6670837402344 274.61798095703125 375.469970703125 271.1879577636719 375.6333312988281 C 268.20501708984375 375.52490234375 265.8132019042969 375.54144287109375 263.9180603027344 375.5146179199219 C 262.3280029296875 375.4839782714844 261.0539855957031 375.4945068359375 259.9140319824219 375.5299377441406 C 258.7276306152344 375.5357971191406 257.2733154296875 375.4783935546875 255.30108642578125 375.5010681152344 C 252.9098663330078 375.5224304199219 250.3013916015625 375.4940490722656 247.57833862304688 375.50390625 C 244.88255310058594 375.5237731933594 242.37950134277344 375.450927734375 239.9748992919922 375.5290832519531 C 237.5428009033203 375.5945129394531 234.83477783203125 375.59393310546875 231.64076232910156 375.6114807128906 C 227.84982299804688 375.6013488769531 223.4671173095703 375.5978698730469 218.93328857421875 375.7160339355469 C 214.5791473388672 376.9174499511719 210.3193359375 377.4149475097656 206.28564453125 377.5665588378906 C 201.59274291992188 377.0668640136719 197.08128356933594 378.6109924316406 190.99864196777344 378.488525390625 C 183.48468017578125 378.130615234375 175.4120330810547 377.96453857421875 164.41542053222656 380.64215087890625 C 155.40789794921875 383.4302978515625 148.2047882080078 393.4431457519531 135.71731567382812 396.6315002441406 C 119.51380920410156 392.88385009765625 113.42344665527344 376.4700012207031 113.48079681396484 353.78021240234375 C 119.9091796875 338.12628173828125 127.0609359741211 328.29022216796875 130.5082244873047 324.7206726074219 C 138.80447387695312 332.6686096191406 147.9148406982422 337.6319580078125 154.54534912109375 340.2489013671875 C 156.22335815429688 340.96783447265625 151.55662536621094 338.8210754394531 139.06460571289062 333.26611328125 C 125.68001556396484 320.570556640625 112.54486846923828 299.1067810058594 96.97834777832031 278.5452575683594 C 109.7293930053711 263.700439453125 127.8021240234375 253.84593200683594 141.7184295654297 250.37889099121094 C 153.98593139648438 266.8858947753906 165.9397735595703 277.2969055175781 171.19705200195312 284.0262145996094 C 171.3390655517578 285.2300109863281 167.75588989257812 281.3299560546875 162.85926818847656 275.1724853515625 C 158.20730590820312 270.0249328613281 155.88124084472656 267.7052917480469 158.04779052734375 268.2272644042969 C 165.22169494628906 270.9120788574219 174.0724639892578 274.3210144042969 183.34678649902344 276.4073791503906 C 190.0653533935547 277.51812744140625 191.7311553955078 277.7699890136719 187.31968688964844 277.3672790527344 C 177.6559295654297 275.758056640625 164.22833251953125 273.3868713378906 152.55308532714844 264.331787109375 C 140.056396484375 253.09414672851562 132.15432739257812 233.50344848632812 217.2015838623047 245.3505401611328" stroke-width="0.0" fill="rgb(254, 112, 168)" opacity="0.99965715" stroke="rgb(95, 74, 141)" stroke-opacity="0.3292003" stroke-linecap="round" stroke-linejoin="round"/>
    <path d="M 252.34103393554688 470.5761413574219 C 253.50852966308594 470.7642822265625 254.72796630859375 470.958251953125 255.4816436767578 471.4131164550781 C 255.98916625976562 471.550537109375 255.9870147705078 471.498291015625 255.43572998046875 471.3341979980469 C 254.70037841796875 471.3758239746094 254.03985595703125 471.3555908203125 253.37997436523438 470.83447265625 C 252.52626037597656 470.7806701660156 252.47174072265625 470.6895446777344 253.63775634765625 470.78033447265625 C 255.02879333496094 471.3681640625 257.3241882324219 471.6080322265625 260.4454650878906 471.7190246582031 C 263.1914978027344 471.8976135253906 265.7698974609375 472.2892761230469 268.19219970703125 472.2647705078125 C 269.6341857910156 472.3383483886719 270.8377685546875 472.33074951171875 271.7264709472656 472.29144287109375 C 272.226318359375 472.4353332519531 273.06982421875 472.5053405761719 273.9205627441406 472.4261474609375 C 274.9201965332031 472.4684753417969 275.8179931640625 472.4725646972656 276.4808349609375 472.44921875 C 277.092529296875 472.4588623046875 277.9544677734375 472.4214172363281 278.7571716308594 472.50799560546875 C 279.39019775390625 472.4978942871094 279.7414245605469 472.5072021484375 280.06683349609375 472.384521484375 C 280.2859191894531 472.18902587890625 280.32354736328125 472.1659240722656 279.91461181640625 472.4449157714844 C 279.7691345214844 472.588623046875 280.0813903808594 472.6851501464844 281.10418701171875 472.3625183105469 C 283.2171936035156 472.6862487792969 285.8890686035156 472.3367614746094 287.84490966796875 472.4491882324219 C 287.7479248046875 475.4721984863281 287.1871643066406 479.3463439941406 286.68756103515625 483.0038757324219 C 286.4866638183594 485.5876159667969 286.3279724121094 487.3701477050781 286.01544189453125 488.5574645996094 C 285.8601379394531 489.44183349609375 285.80804443359375 490.62921142578125 285.47332763671875 492.63250732421875 C 285.4137878417969 495.7377624511719 284.57275390625 498.9220275878906 284.5763244628906 502.22564697265625 C 284.43206787109375 504.9751892089844 283.91033935546875 506.9363708496094 284.115966796875 508.166748046875 C 283.89727783203125 508.124755859375 283.0866394042969 509.2018737792969 280.4515075683594 509.8143615722656 C 277.8170166015625 510.4107971191406 279.71826171875 511.73150634765625 282.9204406738281 509.7348327636719 C 287.5229187011719 507.0571594238281 292.7367858886719 508.90777587890625 289.8492126464844 505.4525146484375 C 292.68597412109375 505.1867370605469 295.114990234375 505.07452392578125 296.60797119140625 506.372314453125 C 299.15411376953125 506.15606689453125 300.908447265625 508.1056213378906 303.87469482421875 509.8119201660156 C 305.1410217285156 510.3616027832031 304.5029602050781 513.746826171875 304.54254150390625 516.9723510742188 C 301.72589111328125 519.2598266601562 299.0769348144531 519.9599609375 296.4302062988281 519.6471557617188 C 296.3993225097656 518.4376831054688 296.31561279296875 516.7991943359375 295.71759033203125 516.249267578125 C 299.98358154296875 516.8071899414062 303.169921875 516.3782958984375 302.7054443359375 517.473388671875 C 298.9171447753906 517.524169921875 296.5645446777344 515.285400390625 293.7979431152344 515.7326049804688 C 292.0906982421875 520.16943359375 288.3098449707031 522.1839599609375 284.0933837890625 522.9953002929688 C 280.76873779296875 520.7350463867188 277.998291015625 518.3603515625 274.0172424316406 518.52490234375 C 275.2156677246094 516.9951782226562 276.6665344238281 518.2291259765625 279.0030212402344 518.8058471679688 C 282.2052001953125 519.5747680664062 283.4688415527344 523.44189453125 290.4852294921875 524.5842895507812 C 294.8506774902344 532.4619140625 308.49517822265625 537.8201293945312 321.274658203125 544.42724609375 C 307.5790100097656 546.8431396484375 295.7984313964844 535.3161010742188 288.580810546875 527.7686767578125 C 283.6257019042969 529.9454345703125 278.8570556640625 532.0941162109375 274.5575256347656 532.4942016601562 C 272.1325988769531 532.9821166992188 271.92791748046875 532.17724609375 272.8596496582031 531.3839111328125 C 273.9405517578125 531.039794921875 273.4315185546875 531.4262084960938 272.6863708496094 533.1569213867188 C 270.8990478515625 533.4996948242188 268.03143310546875 533.5081787109375 264.9189147949219 533.6133422851562 C 261.1011657714844 533.63525390625 257.3451232910156 533.5819702148438 253.42523193359375 533.45703125 C 251.50930786132812 532.5736083984375 249.26185607910156 532.4922485351562 247.20175170898438 532.3773803710938 C 246.39535522460938 532.7445678710938 246.61346435546875 532.0336303710938 246.06198120117188 531.5380249023438 C 244.15802001953125 531.5277099609375 241.4101104736328 531.4970092773438 240.22801208496094 529.2868041992188 C 238.52186584472656 524.873046875 240.11785888671875 521.7099609375 241.11485290527344 518.5645751953125 C 238.04856872558594 519.0064086914062 234.6407470703125 521.1505737304688 233.2452392578125 523.0862426757812 C 234.66836547851562 524.8364868164062 234.35028076171875 523.2466430664062 234.48822021484375 520.3713989257812 C 236.29505920410156 520.5999755859375 235.8462371826172 522.1783447265625 235.3817596435547 523.8018798828125 C 234.06546020507812 524.8624267578125 232.3701629638672 524.9619140625 229.6961669921875 523.3599853515625 C 227.08029174804688 521.3701171875 225.71817016601562 518.3706665039062 226.41220092773438 514.29248046875 C 228.3031768798828 511.2546691894531 230.10321044921875 509.2177429199219 231.70465087890625 509.2986755371094 C 232.54295349121094 509.9513244628906 232.5573272705078 508.7050476074219 234.18865966796875 507.6424560546875 C 236.27676391601562 507.4392395019531 237.99656677246094 505.9066162109375 239.36746215820312 505.09710693359375 C 239.78683471679688 506.0841064453125 238.9728240966797 507.7778625488281 237.04779052734375 508.8562316894531 C 238.03065490722656 508.8625183105469 239.46157836914062 507.80206298828125 241.14303588867188 506.797119140625 C 242.7889404296875 505.9547119140625 244.20741271972656 506.3683776855469 243.46571350097656 504.51251220703125 C 244.18312072753906 500.9355773925781 244.924072265625 496.1490478515625 245.36032104492188 490.83697509765625 C 245.83660888671875 485.8476867675781 246.0044708251953 481.4010009765625 246.43495178222656 478.0504455566406 C 246.43585205078125 475.5340270996094 246.8350830078125 473.609130859375 246.81808471679688 472.0164489746094 C 246.84503173828125 470.71539306640625 246.65072631835938 469.5584411621094 247.4318389892578 469.3973083496094 C 250.07958984375 470.6876220703125 253.8409881591797 471.4207763671875 252.34103393554688 470.5761413574219" stroke-width="0.0" fill="rgb(251, 189, 103)" opacity="1.0" stroke="rgb(200, 91, 200)" stroke-opacity="0.94128263" stroke-linecap="round" stroke-linejoin="round"/>
    <path d="M 226.7730712890625 127.69922637939453 C 226.73326110839844 128.18893432617188 227.20651245117188 128.33926391601562 229.1329345703125 128.55113220214844 C 232.32676696777344 130.19448852539062 236.7342071533203 131.98541259765625 239.1074676513672 135.24354553222656 C 240.00570678710938 136.38429260253906 240.05384826660156 135.05331420898438 240.19931030273438 133.36668395996094 C 239.18511962890625 132.3681640625 239.24652099609375 131.65499877929688 239.59495544433594 131.38897705078125 C 239.636474609375 131.2969970703125 239.8780517578125 131.4576873779297 240.1652374267578 131.8796844482422 C 240.20741271972656 132.7542724609375 240.1415252685547 133.78875732421875 240.03134155273438 134.7523956298828 C 239.88980102539062 135.74461364746094 240.0000457763672 137.07574462890625 241.57467651367188 138.27105712890625 C 243.11717224121094 141.01022338867188 244.20974731445312 144.6544189453125 244.8966064453125 147.5008544921875 C 244.2916717529297 148.78030395507812 243.91293334960938 148.31906127929688 244.8878173828125 148.17550659179688 C 245.18588256835938 149.3260498046875 244.7640838623047 150.60968017578125 244.68087768554688 151.566650390625 C 244.676513671875 151.53338623046875 244.88511657714844 151.2035369873047 244.69639587402344 151.3762969970703 C 243.85791015625 152.34300231933594 241.56874084472656 154.0231475830078 238.01927185058594 155.62037658691406 C 234.1641387939453 157.2546844482422 231.419189453125 157.96377563476562 230.28488159179688 157.89781188964844 C 230.93911743164062 157.9219512939453 231.74517822265625 157.95242309570312 231.15711975097656 158.18807983398438 C 228.27066040039062 158.91647338867188 224.40968322753906 160.52029418945312 220.16403198242188 161.31869506835938 C 220.2286834716797 160.4241943359375 222.9483184814453 158.96961975097656 225.00888061523438 156.32614135742188 C 226.4137420654297 154.16690063476562 227.0762176513672 153.15611267089844 226.69003295898438 152.94480895996094 C 226.38653564453125 153.55699157714844 226.45046997070312 153.79476928710938 227.02825927734375 153.13369750976562 C 227.69854736328125 150.95799255371094 228.14910888671875 148.62681579589844 228.76177978515625 146.8104705810547 C 228.8175048828125 145.629150390625 228.85372924804688 144.7381591796875 228.61212158203125 143.86148071289062 C 228.64598083496094 142.7765350341797 228.6939239501953 141.4845428466797 228.3935546875 140.44515991210938 C 227.69024658203125 140.4228973388672 227.65057373046875 140.6435546875 227.99447631835938 140.3846893310547 C 228.1833953857422 140.61859130859375 228.09315490722656 140.78640747070312 228.2845916748047 140.36373901367188 C 228.12159729003906 139.20950317382812 227.8003387451172 138.34495544433594 227.47642517089844 137.68145751953125 C 227.59246826171875 136.8311004638672 226.52279663085938 135.05624389648438 223.77577209472656 131.4433135986328 C 219.08103942871094 126.92814636230469 210.10791015625 125.02864837646484 226.7730712890625 127.69922637939453" stroke-width="0.0" fill="rgb(251, 253, 252)" opacity="0.9998875" stroke="rgb(20, 80, 115)" stroke-opacity="0.1036895" stroke-linecap="round" stroke-linejoin="round"/>
    <path d="M 303.9914245605469 104.46939849853516 C 309.319580078125 104.87191009521484 313.19036865234375 103.67198944091797 316.9441223144531 100.89451599121094 C 320.3767395019531 100.25248718261719 324.0588073730469 100.9254379272461 326.18792724609375 101.64491271972656 C 326.5587463378906 101.58155059814453 325.7720947265625 101.53083038330078 324.9164123535156 101.2679443359375 C 324.6685485839844 101.11698913574219 325.4365234375 101.35356140136719 327.5425109863281 101.71292114257812 C 330.44744873046875 102.77734375 332.78973388671875 103.86975860595703 334.6341247558594 104.67929077148438 C 334.615966796875 105.55419158935547 334.59747314453125 105.66133880615234 334.4753723144531 105.46543884277344 C 334.7115783691406 105.11527252197266 335.4534606933594 105.12613677978516 336.73345947265625 106.25678253173828 C 338.4733581542969 108.02288818359375 340.3387145996094 109.76673889160156 341.907470703125 111.38665771484375 C 342.892578125 113.27516174316406 343.8448181152344 114.46670532226562 344.3397521972656 115.73099517822266 C 345.0884094238281 116.31900024414062 344.95013427734375 118.0113525390625 345.0772705078125 119.24225616455078 C 345.2745056152344 120.08695983886719 345.2175598144531 120.6524658203125 345.19061279296875 120.98552703857422 C 345.2479553222656 121.36727905273438 345.1729736328125 121.95736694335938 344.9865417480469 123.05924224853516 C 344.9415588378906 124.88424682617188 343.6853332519531 126.81525421142578 340.5694274902344 127.91830444335938 C 336.4664001464844 129.7084197998047 332.4997863769531 131.43191528320312 328.3612976074219 132.8140411376953 C 328.33514404296875 132.0328826904297 329.4288330078125 130.2862091064453 330.0614318847656 127.48892211914062 C 330.7352600097656 124.7340087890625 330.8443603515625 122.73976135253906 330.37103271484375 120.1111831665039 C 330.4792785644531 118.04637908935547 329.7994079589844 116.77037048339844 329.40045166015625 116.12632751464844 C 330.1820373535156 115.79009246826172 330.45050048828125 115.78287506103516 330.2822265625 115.8544692993164 C 329.9222717285156 116.14350891113281 329.4413146972656 116.0075912475586 329.0837707519531 115.68335723876953 C 328.8533020019531 115.7591323852539 329.04888916015625 116.04076385498047 329.2544250488281 115.69322967529297 C 329.08721923828125 114.47537231445312 328.2258605957031 113.0315933227539 327.95770263671875 112.18702697753906 C 328.0256042480469 112.01461791992188 327.88909912109375 112.28086853027344 326.7002258300781 110.57861328125 C 323.546630859375 106.58773040771484 318.6651916503906 103.75009155273438 311.6299133300781 104.1926498413086 C 310.871337890625 103.83906555175781 314.2818298339844 102.97382354736328 317.5786437988281 100.54431915283203 C 319.7507629394531 100.4864501953125 320.70135498046875 101.72899627685547 320.8265075683594 102.5195083618164 C 320.4931640625 101.36724090576172 319.62066650390625 98.09815979003906 303.9914245605469 104.46939849853516" stroke-width="0.0" fill="rgb(247, 253, 253)" opacity="0.9999196" stroke="rgb(50, 5, 126)" stroke-opacity="0.30369705" stroke-linecap="round" stroke-linejoin="round"/>
    <path d="M 168.54568481445312 472.811767578125 C 169.85987854003906 472.8183288574219 171.25042724609375 472.9823913574219 172.67755126953125 473.33111572265625 C 174.14476013183594 473.81524658203125 175.6849822998047 474.0143127441406 177.08731079101562 474.0689392089844 C 178.4569854736328 474.2512512207031 179.6938934326172 474.4150390625 180.80990600585938 474.4674072265625 C 181.82080078125 474.63824462890625 182.76275634765625 474.7496643066406 183.7295379638672 474.8092346191406 C 184.79107666015625 474.86468505859375 185.99143981933594 474.9535217285156 187.31890869140625 475.0030822753906 C 188.6784210205078 474.9936218261719 190.0061798095703 475.07318115234375 191.31552124023438 475.12774658203125 C 192.54693603515625 475.07464599609375 193.55416870117188 475.0870056152344 194.30007934570312 475.08209228515625 C 194.9138946533203 475.1447448730469 195.34031677246094 475.199951171875 195.64431762695312 475.1451721191406 C 195.9945068359375 475.1302490234375 196.37701416015625 475.19525146484375 196.96588134765625 475.2142639160156 C 197.8294219970703 475.24639892578125 199.0227508544922 475.3015441894531 200.47015380859375 475.32171630859375 C 202.0676727294922 475.1788024902344 203.6831817626953 475.1029357910156 205.24740600585938 475.18035888671875 C 206.6990509033203 475.25384521484375 208.03512573242188 475.2608642578125 209.06912231445312 475.173828125 C 209.6747283935547 475.1161804199219 209.81024169921875 475.1633605957031 209.54739379882812 475.1334533691406 C 209.06808471679688 475.2974548339844 208.5324249267578 475.4742431640625 208.15516662597656 475.5030212402344 C 208.1572723388672 475.29364013671875 208.96945190429688 475.0086975097656 210.43565368652344 474.90191650390625 C 211.9436798095703 475.03216552734375 211.9374237060547 476.32196044921875 211.0712127685547 479.0767517089844 C 210.73675537109375 483.3075256347656 210.4471893310547 487.79638671875 209.99853515625 491.2795715332031 C 208.09864807128906 492.2879638671875 205.99966430664062 492.1706848144531 205.07957458496094 492.191162109375 C 206.06788635253906 492.1535339355469 208.0594024658203 491.7396240234375 209.7510528564453 491.897216796875 C 209.8092803955078 494.15582275390625 209.43768310546875 497.4679260253906 209.06788635253906 500.90057373046875 C 209.1715087890625 503.2767639160156 208.93446350097656 504.1977844238281 207.6549530029297 504.02203369140625 C 205.82054138183594 503.7403259277344 204.2686309814453 503.6201477050781 203.58697509765625 503.6011657714844 C 204.09922790527344 503.7479248046875 205.4051971435547 503.7748718261719 207.02957153320312 503.83038330078125 C 208.36087036132812 503.82373046875 209.00692749023438 504.2451477050781 209.06593322753906 505.4383239746094 C 209.1173858642578 507.1600646972656 208.99990844726562 508.95172119140625 208.2673797607422 510.15106201171875 C 206.807861328125 510.3538818359375 204.5447540283203 510.41741943359375 201.7187957763672 511.1181640625 C 198.68418884277344 511.78802490234375 195.8537139892578 512.4718017578125 193.306640625 512.552734375 C 191.15525817871094 512.3043823242188 189.7084197998047 512.2796020507812 188.83651733398438 512.804443359375 C 188.21852111816406 513.2092895507812 187.83084106445312 513.5075073242188 187.89883422851562 513.602294921875 C 188.22694396972656 513.4114990234375 188.4971160888672 512.7275390625 188.8724365234375 511.6529541015625 C 188.67831420898438 510.41729736328125 188.20846557617188 509.3131103515625 187.9296875 508.65142822265625 C 187.92555236816406 508.53509521484375 188.02345275878906 508.7750244140625 188.19158935546875 509.13067626953125 C 188.41444396972656 509.4187316894531 188.42567443847656 509.55108642578125 188.34767150878906 509.4145202636719 C 188.1938934326172 508.9482116699219 187.8839874267578 508.23260498046875 187.52589416503906 507.5431213378906 C 187.4099578857422 507.1100158691406 187.54376220703125 507.29559326171875 187.89442443847656 508.2720947265625 C 188.383544921875 509.8771057128906 188.88217163085938 511.4269714355469 189.29051208496094 512.648193359375 C 189.4430694580078 512.9647216796875 188.49403381347656 512.4478149414062 185.9211883544922 511.91680908203125 C 181.91818237304688 511.768798828125 177.4051055908203 511.4617004394531 174.03736877441406 510.1578063964844 C 172.37530517578125 510.9008483886719 172.66159057617188 512.3772583007812 173.87583923339844 514.2916870117188 C 175.1011962890625 516.0857543945312 175.5018768310547 517.3782958984375 174.3958282470703 517.7830200195312 C 171.54527282714844 517.3242797851562 167.45587158203125 517.3385009765625 162.46560668945312 518.3446044921875 C 157.5990447998047 520.9329833984375 154.25852966308594 523.6156616210938 151.69644165039062 520.1932983398438 C 150.35682678222656 514.83447265625 153.3789520263672 509.6284484863281 157.72604370117188 508.12060546875 C 163.27366638183594 509.3558349609375 168.8872833251953 507.3160095214844 173.58335876464844 504.5958557128906 C 175.83181762695312 503.5331115722656 175.48370361328125 503.898193359375 173.26559448242188 505.3210144042969 C 170.3357696533203 506.80438232421875 168.31692504882812 506.70758056640625 168.47914123535156 503.61309814453125 C 169.09408569335938 497.7311706542969 169.3345184326172 491.072509765625 169.25181579589844 485.1719665527344 C 169.2822723388672 481.6667785644531 170.481201171875 481.2332458496094 173.00323486328125 482.4313659667969 C 175.13694763183594 483.41363525390625 176.33050537109375 484.1938781738281 176.69483947753906 484.55999755859375 C 176.53575134277344 484.5554504394531 175.9821014404297 483.9990234375 174.91053771972656 483.1534729003906 C 173.2664031982422 482.3166809082031 171.11912536621094 481.9931945800781 169.39161682128906 481.5192565917969 C 169.1328125 479.32916259765625 169.20159912109375 476.4411315917969 169.22511291503906 473.8612365722656 C 169.98941040039062 472.212890625 171.59315490722656 471.2739562988281 173.95266723632812 470.2382507324219 C 176.54571533203125 469.1557312011719 179.32447814941406 468.00115966796875 168.54568481445312 472.811767578125" stroke-width="0.0" fill="rgb(252, 188, 101)" opacity="1.0" stroke="rgb(201, 229, 112)" stroke-opacity="0.123497054" stroke-linecap="round" stroke-linejoin="round"/>
    <path d="M 185.84056091308594 238.55502319335938 C 187.62794494628906 238.6508026123047 189.71121215820312 239.0505828857422 191.83645629882812 239.70623779296875 C 193.95228576660156 240.35350036621094 195.6969451904297 240.80889892578125 197.1599884033203 241.57899475097656 C 198.42337036132812 241.8380126953125 199.18716430664062 242.57046508789062 199.83966064453125 243.3956298828125 C 200.50564575195312 244.10787963867188 200.97406005859375 244.86180114746094 201.39450073242188 245.58810424804688 C 201.86428833007812 246.1112823486328 202.29994201660156 246.19949340820312 202.59750366210938 245.5909423828125 C 202.7606201171875 244.57998657226562 202.47238159179688 243.37564086914062 201.271484375 242.54617309570312 C 199.27847290039062 242.21568298339844 197.06527709960938 242.33135986328125 195.2376251220703 242.8218536376953 C 194.0351104736328 243.54258728027344 193.58335876464844 243.775390625 193.9966278076172 243.4984893798828 C 195.2454376220703 243.1322479248047 196.95657348632812 242.80389404296875 198.9025421142578 242.59812927246094 C 200.466796875 243.04612731933594 201.3134307861328 244.07864379882812 201.68934631347656 245.59286499023438 C 201.6536407470703 247.36083984375 201.59600830078125 249.0443878173828 201.3175811767578 250.43350219726562 C 200.78927612304688 251.3940887451172 200.26873779296875 252.06048583984375 199.75592041015625 252.58575439453125 C 199.56947326660156 253.24778747558594 199.6593017578125 254.08726501464844 199.57363891601562 255.10047912597656 C 199.1149444580078 256.1996765136719 198.5819549560547 257.3651123046875 198.2760009765625 258.6367492675781 C 197.81103515625 259.7434387207031 197.45640563964844 260.676025390625 197.0568084716797 261.283935546875 C 196.55364990234375 261.3406982421875 196.1483612060547 261.07952880859375 196.06138610839844 260.6719970703125 C 196.23883056640625 260.4423522949219 196.4477081298828 260.73663330078125 196.5333709716797 261.580322265625 C 196.50006103515625 262.74627685546875 196.6013641357422 264.0971374511719 196.65850830078125 265.4261169433594 C 196.05441284179688 266.3591613769531 195.23049926757812 267.2122497558594 194.6974639892578 268.00482177734375 C 194.5039825439453 268.8433837890625 194.48104858398438 269.79095458984375 194.57632446289062 270.9642333984375 C 194.51771545410156 272.5123291015625 194.47000122070312 274.4762878417969 194.4383544921875 276.87933349609375 C 194.09010314941406 279.7139587402344 193.59268188476562 282.8651428222656 192.9139404296875 286.1141357421875 C 192.09930419921875 289.1475830078125 191.60423278808594 291.75390625 191.38429260253906 293.7343444824219 C 190.9966583251953 294.8959045410156 190.3693084716797 295.12786865234375 189.93316650390625 294.7834777832031 C 189.67173767089844 294.27099609375 189.61415100097656 293.9029235839844 189.7913055419922 293.80029296875 C 189.9553985595703 294.1063232421875 189.92970275878906 294.79241943359375 189.64920043945312 295.64691162109375 C 188.9962158203125 296.5250244140625 188.16647338867188 297.55999755859375 187.45521545410156 298.7834777832031 C 186.559814453125 300.0644226074219 185.4625244140625 301.1615905761719 183.97152709960938 301.5587158203125 C 182.174072265625 301.42083740234375 180.34693908691406 301.28326416015625 178.86793518066406 301.8967590332031 C 177.56729125976562 303.590576171875 176.51429748535156 306.0975646972656 175.51828002929688 309.10400390625 C 174.3317108154297 312.2066650390625 172.96578979492188 315.2527770996094 171.6772003173828 318.0986328125 C 170.5770263671875 320.775146484375 169.63577270507812 322.8287353515625 168.80560302734375 324.3304138183594 C 168.38955688476562 325.1223449707031 168.35301208496094 325.462158203125 168.51998901367188 325.56268310546875 C 168.5957489013672 325.67156982421875 168.58731079101562 326.150146484375 168.4586181640625 327.1640625 C 168.05679321289062 328.66876220703125 167.1674041748047 330.5935363769531 165.6630859375 332.7443542480469 C 164.30189514160156 335.3406066894531 163.26560974121094 338.5393981933594 162.44435119628906 342.0076904296875 C 161.17474365234375 345.1571350097656 159.69241333007812 347.9228820800781 158.15184020996094 350.0480651855469 C 156.60902404785156 351.362548828125 155.04818725585938 351.7513732910156 153.5346221923828 351.1222839355469 C 152.34722900390625 349.3070983886719 151.4954376220703 346.7556457519531 150.98228454589844 343.7428283691406 C 150.81329345703125 340.63702392578125 151.0837860107422 337.59576416015625 151.6789093017578 334.97540283203125 C 152.56027221679688 333.06658935546875 153.3570098876953 331.8233337402344 153.9149169921875 331.2871398925781 C 154.049560546875 331.40374755859375 153.66018676757812 331.705078125 152.94557189941406 331.75 C 152.42449951171875 331.14471435546875 152.1237335205078 329.9176025390625 151.97515869140625 328.1866455078125 C 151.98487854003906 326.2701416015625 152.06436157226562 324.2715148925781 152.16427612304688 322.2651672363281 C 152.2267608642578 320.3626708984375 152.29246520996094 318.47991943359375 152.52645874023438 316.5784606933594 C 153.11605834960938 314.6438903808594 153.8133087158203 312.53863525390625 154.53741455078125 310.169921875 C 155.29788208007812 307.51531982421875 155.9813232421875 304.6308288574219 156.9833984375 301.78863525390625 C 158.12579345703125 299.04608154296875 158.74012756347656 296.5268859863281 158.5181427001953 294.16748046875 C 157.62411499023438 292.04302978515625 156.5684814453125 290.18402099609375 155.92694091796875 288.7330017089844 C 155.58218383789062 287.86151123046875 154.9279327392578 287.36578369140625 154.45953369140625 287.1759338378906 C 154.40811157226562 286.4512634277344 154.458740234375 285.3848876953125 154.68284606933594 284.0531311035156 C 155.25039672851562 282.3524475097656 155.87969970703125 280.2550048828125 156.56809997558594 277.83221435546875 C 157.6138916015625 275.2796325683594 158.943359375 272.5513000488281 160.24273681640625 269.68963623046875 C 161.6415557861328 266.9175109863281 163.032470703125 264.29638671875 164.47154235839844 262.0858154296875 C 165.85781860351562 260.4129943847656 167.01956176757812 258.9576721191406 167.6981201171875 257.61578369140625 C 168.3446502685547 256.63836669921875 169.221435546875 255.8634490966797 170.06861877441406 255.0565643310547 C 170.5331268310547 253.87591552734375 171.09754943847656 252.49273681640625 172.11495971679688 250.87335205078125 C 173.6990509033203 249.33131408691406 175.50823974609375 247.60719299316406 177.31858825683594 245.9293975830078 C 178.93104553222656 244.4430389404297 180.0349578857422 242.8936309814453 180.46383666992188 241.30715942382812 C 180.01824951171875 239.6779327392578 179.48681640625 237.943115234375 185.84056091308594 238.55502319335938" stroke-width="0.0" fill="rgb(171, 158, 201)" opacity="0.9996312" stroke="rgb(98, 72, 225)" stroke-opacity="0.6375499" stroke-linecap="round" stroke-linejoin="round"/>
    <path d="M 152.75946044921875 328.1624755859375 C 153.70516967773438 327.698486328125 154.50930786132812 327.19085693359375 154.93060302734375 326.9046630859375 C 154.9639892578125 326.85626220703125 154.50621032714844 327.07122802734375 153.7307891845703 327.5915222167969 C 152.96231079101562 328.30499267578125 152.44711303710938 329.1683349609375 152.2259063720703 330.14227294921875 C 152.313720703125 331.1200256347656 152.7782440185547 331.9703063964844 153.63706970214844 332.6857604980469 C 154.77601623535156 332.9942932128906 155.94239807128906 333.1915588378906 157.21511840820312 333.43780517578125 C 158.4488067626953 333.75555419921875 159.33261108398438 334.044677734375 159.75634765625 334.1884765625 C 159.5748291015625 334.1017761230469 158.7542724609375 333.79254150390625 157.44009399414062 333.3679504394531 C 155.83595275878906 332.990234375 154.04412841796875 332.9232177734375 152.5128936767578 333.4117126464844 C 151.7744140625 334.8459167480469 151.5078887939453 336.8294982910156 151.51895141601562 338.85772705078125 C 151.7605743408203 340.52362060546875 152.32371520996094 341.6422424316406 153.19061279296875 342.2055969238281 C 154.12185668945312 342.26104736328125 154.95774841308594 342.0613098144531 155.56707763671875 341.8817443847656 C 155.88278198242188 341.7618713378906 155.84437561035156 341.774169921875 155.45285034179688 341.8062744140625 C 154.79579162597656 341.7792053222656 153.94171142578125 341.7171936035156 153.0382080078125 341.73565673828125 C 152.29226684570312 341.966064453125 151.8682403564453 342.804931640625 151.76710510253906 344.3399658203125 C 151.9359130859375 346.3952941894531 152.4221954345703 348.65155029296875 153.21826171875 350.7192687988281 C 154.484375 351.9417419433594 155.93006896972656 351.6987609863281 157.19972229003906 350.00408935546875 C 158.18115234375 347.5716247558594 159.32032775878906 345.9521179199219 160.47691345214844 346.3307189941406 C 160.4646453857422 348.7175598144531 159.58395385742188 352.0495300292969 158.56332397460938 355.5295104980469 C 157.74917602539062 358.525634765625 157.2041778564453 360.65789794921875 156.8390655517578 361.6708679199219 C 156.4625244140625 361.82940673828125 156.12615966796875 361.6669921875 155.90875244140625 361.4420166015625 C 155.82493591308594 361.36181640625 155.9646453857422 361.5131530761719 156.27513122558594 361.8235778808594 C 156.5587158203125 362.3534851074219 156.58607482910156 363.1109924316406 156.48179626464844 364.0537109375 C 156.21807861328125 365.1206970214844 155.8547821044922 366.288330078125 155.6224822998047 367.57537841796875 C 155.4666290283203 368.93511962890625 155.44708251953125 370.30657958984375 155.51258850097656 371.6546325683594 C 155.57876586914062 372.8749084472656 155.52940368652344 373.95318603515625 155.58905029296875 374.9370422363281 C 155.7762451171875 375.90264892578125 155.99732971191406 376.8642272949219 156.24374389648438 377.7909851074219 C 156.41163635253906 378.68701171875 156.64842224121094 379.5460205078125 157.20950317382812 380.3271484375 C 158.09329223632812 381.0894470214844 158.77020263671875 381.9658508300781 158.7688751220703 382.8905334472656 C 158.11781311035156 383.5711364746094 157.45645141601562 384.1973876953125 157.35679626464844 385.3139343261719 C 157.242431640625 386.83966064453125 157.28912353515625 388.18841552734375 158.0164794921875 388.67425537109375 C 158.78468322753906 387.947509765625 158.54124450683594 386.9593200683594 157.5873260498047 386.3441467285156 C 156.75083923339844 386.53814697265625 156.04397583007812 387.5930480957031 155.63050842285156 389.2436828613281 C 155.57626342773438 391.10369873046875 155.67173767089844 392.7072448730469 155.3992919921875 393.90826416015625 C 154.94749450683594 395.0689392089844 154.4215087890625 396.20623779296875 153.69696044921875 397.0699462890625 C 152.31680297851562 398.1891784667969 150.06764221191406 398.5082092285156 146.91885375976562 397.8802795410156 C 143.08218383789062 398.04962158203125 139.26051330566406 397.4450988769531 135.9521484375 396.9303283691406 C 133.83526611328125 396.31793212890625 132.9174041748047 395.8648376464844 132.7501678466797 395.6056213378906 C 132.6873016357422 395.4505615234375 131.96426391601562 395.22515869140625 130.20059204101562 394.69366455078125 C 128.04795837402344 393.6242980957031 126.11988067626953 392.4983825683594 124.76739501953125 391.3104248046875 C 124.11753845214844 390.73529052734375 123.76457214355469 390.5028381347656 123.46630859375 390.26190185546875 C 122.69271850585938 389.8020324707031 121.33036041259766 388.540283203125 119.69353485107422 386.0038757324219 C 117.72505187988281 382.8316955566406 116.3827896118164 379.3690490722656 115.83352661132812 376.1880187988281 C 114.90892791748047 373.84130859375 114.51639556884766 371.4976501464844 114.46273040771484 369.2483215332031 C 114.32401275634766 366.9433288574219 114.28148651123047 364.3942565917969 113.96802520751953 361.7388610839844 C 113.67363739013672 359.2591552734375 113.43948364257812 356.8271179199219 113.48501586914062 354.5171203613281 C 113.35084533691406 352.6316223144531 113.36756896972656 351.3608093261719 113.49872589111328 350.60284423828125 C 113.72709655761719 350.1244201660156 113.84805297851562 349.4681701660156 114.00311279296875 347.9288024902344 C 114.40145874023438 346.1407470703125 114.38804626464844 345.0055847167969 113.19766998291016 344.8617248535156 C 112.12785339355469 344.31121826171875 112.94039916992188 343.78875732421875 114.98175048828125 342.9548645019531 C 117.35478210449219 341.3872375488281 118.95046997070312 339.3253173828125 120.51056671142578 337.7871398925781 C 121.96957397460938 336.71697998046875 122.92030334472656 335.65277099609375 122.97950744628906 334.3177795410156 C 123.4158706665039 333.1177673339844 124.7515869140625 332.2207946777344 126.92202758789062 331.41314697265625 C 129.45240783691406 330.9844055175781 132.1289825439453 330.5908203125 134.2704620361328 329.85955810546875 C 136.0255584716797 329.1650695800781 137.170654296875 328.4947204589844 138.0907440185547 328.0103454589844 C 138.8643035888672 327.6605224609375 139.57223510742188 327.3169250488281 140.3295135498047 326.7301330566406 C 141.31875610351562 326.05657958984375 142.436767578125 325.5563659667969 143.49090576171875 325.4935302734375 C 144.27105712890625 326.0419616699219 144.64859008789062 326.6203918457031 144.61346435546875 326.8223876953125 C 144.2245635986328 326.51214599609375 143.89666748046875 325.7651672363281 144.238037109375 324.8188171386719 C 145.99766540527344 324.1659240722656 148.6361846923828 322.8458557128906 151.28900146484375 320.0810241699219 C 153.7584228515625 315.72186279296875 156.2817840576172 310.9814758300781 152.75946044921875 328.1624755859375" stroke-width="0.0" fill="rgb(146, 116, 172)" opacity="1.0" stroke="rgb(227, 251, 89)" stroke-opacity="0.2102405" stroke-linecap="round" stroke-linejoin="round"/>
    <path d="M 172.97048950195312 510.0449523925781 C 172.82162475585938 511.0829162597656 173.27133178710938 511.5491638183594 174.50015258789062 511.27154541015625 C 176.27581787109375 511.55535888671875 178.36097717285156 512.3876342773438 180.85848999023438 512.3637084960938 C 183.57797241210938 512.399658203125 186.01025390625 512.6019897460938 187.9669647216797 512.5667724609375 C 189.28025817871094 512.2759399414062 189.6656494140625 512.0503540039062 189.13453674316406 512.0161743164062 C 188.04061889648438 512.289794921875 186.96104431152344 512.804931640625 186.23944091796875 513.1044311523438 C 186.3733367919922 513.5823364257812 187.1664581298828 513.6469116210938 188.2781524658203 513.5645141601562 C 189.46548461914062 513.3946533203125 190.47958374023438 513.4548950195312 191.2464599609375 513.6785278320312 C 191.8212432861328 513.7242431640625 192.24102783203125 513.7883911132812 192.64942932128906 513.6998901367188 C 193.31045532226562 513.5504150390625 194.36846923828125 513.4920654296875 195.76266479492188 513.459716796875 C 197.27197265625 513.48779296875 198.63999938964844 513.4178466796875 199.8358612060547 512.8497924804688 C 200.9580841064453 512.6293334960938 202.18734741210938 512.6045532226562 203.65882873535156 512.2710571289062 C 205.39137268066406 511.7783508300781 207.7147216796875 511.43084716796875 210.7635955810547 510.78643798828125 C 213.6756134033203 509.0025634765625 214.23455810546875 508.18359375 211.65487670898438 508.3623352050781 C 210.24609375 509.29443359375 211.66146850585938 510.01971435546875 214.86891174316406 509.1157531738281 C 218.1488037109375 509.90203857421875 220.83558654785156 512.861083984375 220.7581329345703 516.6917724609375 C 221.00338745117188 520.2590942382812 218.7772979736328 522.1101684570312 215.1273651123047 523.5023803710938 C 212.62551879882812 523.4813842773438 210.9864959716797 522.5338745117188 210.94058227539062 521.7401123046875 C 211.89329528808594 520.7477416992188 213.22691345214844 521.192138671875 214.59530639648438 521.9913940429688 C 213.46224975585938 522.6077880859375 212.3272705078125 523.3043212890625 210.94488525390625 523.3662109375 C 209.65760803222656 524.3123779296875 208.89881896972656 525.4974975585938 209.1456756591797 526.439208984375 C 209.60543823242188 526.3807373046875 209.83477783203125 525.63671875 209.4497833251953 524.4073486328125 C 208.9458465576172 522.9456787109375 208.240234375 521.393310546875 207.33648681640625 519.9940185546875 C 205.6161651611328 519.0278930664062 203.66673278808594 518.3294677734375 201.669921875 518.0005493164062 C 200.0155029296875 517.7041625976562 199.04983520507812 517.3355102539062 198.64431762695312 517.1605224609375 C 198.61685180664062 517.2059326171875 198.73243713378906 517.4595947265625 198.8201446533203 518.097900390625 C 198.75804138183594 519.3602294921875 198.52468872070312 521.0846557617188 198.17564392089844 522.8271484375 C 197.3270263671875 523.9641723632812 196.31863403320312 524.7097778320312 195.4736328125 525.2003173828125 C 195.8009796142578 525.4498901367188 197.0443572998047 525.4692993164062 198.25088500976562 525.0103149414062 C 199.07070922851562 523.1469116210938 199.54147338867188 520.74169921875 199.6194305419922 518.5299682617188 C 200.00827026367188 517.097412109375 200.5150604248047 516.4342651367188 201.26210021972656 516.4636840820312 C 202.5506591796875 516.6587524414062 204.25717163085938 517.288330078125 206.30178833007812 517.9688110351562 C 208.0770263671875 518.9987182617188 209.09347534179688 520.6572265625 209.12461853027344 522.5195922851562 C 209.60104370117188 523.2741088867188 209.74880981445312 522.60400390625 209.5120086669922 521.1878051757812 C 210.17893981933594 520.7432861328125 210.61131286621094 521.6373901367188 210.76718139648438 523.4186401367188 C 210.55084228515625 525.1427612304688 209.7008514404297 526.6956787109375 208.79489135742188 528.32373046875 C 208.60888671875 529.6641235351562 208.64376831054688 530.910888671875 207.88978576660156 531.2980346679688 C 206.5654754638672 531.3057250976562 205.42645263671875 531.3385620117188 204.42689514160156 532.3095092773438 C 202.298095703125 533.2440795898438 200.1729736328125 534.1824340820312 198.78854370117188 534.6163330078125 C 198.37155151367188 534.5869140625 198.3524627685547 533.955322265625 198.7003173828125 533.4212036132812 C 198.87440490722656 532.4795532226562 199.01837158203125 532.135498046875 198.45323181152344 532.69580078125 C 197.27413940429688 533.5390625 195.8616943359375 533.5020141601562 195.1150360107422 532.977294921875 C 196.03379821777344 532.6014404296875 197.92771911621094 532.8631591796875 199.45437622070312 533.6468505859375 C 199.60601806640625 534.3291625976562 198.7388916015625 534.9431762695312 196.60269165039062 535.27294921875 C 193.49420166015625 535.45849609375 190.24072265625 535.6012573242188 187.73695373535156 535.7184448242188 C 187.02627563476562 536.8250732421875 186.81356811523438 537.015380859375 186.38978576660156 535.5836181640625 C 184.9304962158203 535.5316162109375 182.5588836669922 535.6590576171875 179.30690002441406 535.6163940429688 C 175.78179931640625 534.8861083984375 171.72476196289062 533.8356323242188 168.00682067871094 531.7586059570312 C 165.98008728027344 528.4843139648438 164.29986572265625 527.47119140625 163.3227081298828 528.4715576171875 C 164.737060546875 530.438232421875 167.52267456054688 531.7682495117188 169.83229064941406 531.6607666015625 C 168.43722534179688 531.23681640625 165.39437866210938 529.91845703125 163.21092224121094 527.2976684570312 C 164.34066772460938 523.169677734375 166.0668182373047 519.1080932617188 166.233642578125 516.47705078125 C 165.37643432617188 515.989990234375 165.2372589111328 517.170166015625 166.5471649169922 519.0103759765625 C 169.83074951171875 520.1162719726562 173.63015747070312 520.8643188476562 176.06199645996094 521.0858764648438 C 176.51904296875 521.3065185546875 175.6083526611328 521.114013671875 173.9573974609375 520.9132690429688 C 172.08023071289062 520.6079711914062 170.6287384033203 520.358154296875 170.3614501953125 519.8629150390625 C 171.5217742919922 519.1006469726562 172.9837646484375 517.7874755859375 173.9990692138672 516.2520141601562 C 174.4619598388672 515.430419921875 174.36233520507812 515.6748046875 173.6185760498047 516.7495727539062 C 172.56597900390625 518.1571044921875 171.30990600585938 519.6249389648438 169.32058715820312 519.9749145507812 C 166.17626953125 519.0808715820312 162.33212280273438 518.2290649414062 158.34124755859375 516.8550415039062 C 154.8788604736328 514.5303344726562 151.46890258789062 511.5798645019531 172.97048950195312 510.0449523925781" stroke-width="0.0" fill="rgb(246, 227, 48)" opacity="0.9996844" stroke="rgb(227, 187, 64)" stroke-opacity="0.027573729" stroke-linecap="round" stroke-linejoin="round"/>
    <path d="M 103.0 208.0 C 104.0 208.0 105.0 209.0 106.0 209.0 C 107.0 209.0 108.0 209.0 109.0 208.0 C 110.0 208.0 111.0 208.0 112.0 209.0 C 113.0 209.0 114.0 208.0 115.0 208.0 C 116.0 208.0 117.0 208.0 118.0 209.0 C 119.0 209.0 119.0 210.0 120.0 211.0 C 121.0 211.0 121.0 212.0 121.0 213.0 C 121.0 214.0 122.0 215.0 123.0 215.0 C 124.0 215.0 125.0 215.0 126.0 215.0 C 127.0 215.0 127.0 216.0 127.0 217.0 C 127.0 218.0 127.0 219.0 127.0 220.0 C 127.0 221.0 127.0 222.0 127.0 223.0 C 126.0 223.0 125.0 223.0 124.0 223.0 C 123.0 223.0 122.0 223.0 121.0 223.0 C 120.0 222.0 119.0 222.0 118.0 222.0 C 117.0 222.0 116.0 222.0 115.0 222.0 C 114.0 222.0 113.0 222.0 112.0 222.0 C 111.0 222.0 110.0 222.0 109.0 222.0 C 108.0 222.0 107.0 222.0 106.0 222.0 C 105.0 222.0 104.0 222.0 103.0 222.0 C 102.0 222.0 101.0 222.0 100.0 222.0 C 99.0 222.0 98.0 222.0 97.0 222.0 C 97.0 221.0 96.0 220.0 96.0 219.0 C 96.0 218.0 96.0 217.0 96.0 216.0 C 96.0 215.0 97.0 214.0 97.0 213.0 C 97.0 212.0 97.0 211.0 97.0 210.0 C 97.0 209.0 98.0 209.0 99.0 209.0 C 100.0 209.0 101.0 208.0 103.0 208.0" stroke-width="0.0" fill="rgb(1, 1, 1)" opacity="1.0" stroke="rgb(212, 250, 238)" stroke-opacity="0.19116648" stroke-linecap="round" stroke-linejoin="round"/>
    <path d="M 297.0 111.0 C 298.0 111.0 299.0 112.0 300.0 111.0 C 301.0 111.0 302.0 111.0 303.0 111.0 C 303.0 112.0 303.0 113.0 303.0 114.0 C 303.0 115.0 304.0 116.0 305.0 115.0 C 306.0 115.0 307.0 115.0 308.0 115.0 C 309.0 115.0 309.0 116.0 309.0 117.0 C 308.0 116.0 307.0 116.0 306.0 116.0 C 305.0 116.0 304.0 117.0 303.0 118.0 C 303.0 119.0 302.0 120.0 302.0 121.0 C 301.0 122.0 301.0 123.0 301.0 124.0 C 302.0 125.0 302.0 126.0 303.0 127.0 C 304.0 128.0 305.0 129.0 306.0 130.0 C 307.0 130.0 308.0 130.0 309.0 130.0 C 310.0 130.0 311.0 130.0 312.0 130.0 C 313.0 129.0 314.0 128.0 315.0 128.0 C 316.0 127.0 316.0 126.0 317.0 125.0 C 317.0 126.0 317.0 127.0 318.0 128.0 C 319.0 129.0 320.0 130.0 321.0 131.0 C 322.0 132.0 323.0 132.0 324.0 132.0 C 325.0 132.0 326.0 132.0 327.0 132.0 C 327.0 133.0 327.0 134.0 326.0 135.0 C 325.0 135.0 324.0 135.0 323.0 136.0 C 322.0 136.0 321.0 136.0 320.0 137.0 C 319.0 137.0 318.0 137.0 317.0 138.0 C 316.0 138.0 315.0 138.0 314.0 139.0 C 313.0 139.0 312.0 139.0 311.0 140.0 C 310.0 140.0 309.0 140.0 308.0 141.0 C 307.0 141.0 306.0 141.0 305.0 141.0 C 304.0 142.0 303.0 142.0 302.0 142.0 C 301.0 142.0 300.0 142.0 300.0 141.0 C 300.0 140.0 300.0 139.0 301.0 138.0 C 300.0 137.0 299.0 137.0 298.0 137.0 C 297.0 137.0 296.0 136.0 296.0 135.0 C 295.0 134.0 295.0 133.0 294.0 132.0 C 294.0 131.0 293.0 130.0 293.0 129.0 C 293.0 128.0 292.0 127.0 292.0 126.0 C 292.0 125.0 292.0 124.0 292.0 123.0 C 292.0 122.0 292.0 121.0 292.0 120.0 C 292.0 119.0 292.0 118.0 292.0 117.0 C 292.0 116.0 293.0 115.0 293.0 114.0 C 294.0 113.0 294.0 112.0 295.0 111.0 C 295.0 110.0 296.0 109.0 297.0 111.0" stroke-width="0.0" fill="rgb(148, 70, 25)" opacity="1.0" stroke="rgb(136, 114, 225)" stroke-opacity="0.1261254" stroke-linecap="round" stroke-linejoin="round"/>
    <path d="M 307.0 117.0 C 308.0 117.0 308.0 118.0 308.0 119.0 C 308.0 120.0 309.0 121.0 310.0 122.0 C 311.0 123.0 312.0 123.0 313.0 123.0 C 314.0 123.0 315.0 123.0 315.0 124.0 C 315.0 125.0 315.0 126.0 314.0 127.0 C 313.0 127.0 312.0 128.0 311.0 128.0 C 310.0 128.0 309.0 128.0 308.0 128.0 C 307.0 128.0 306.0 127.0 305.0 127.0 C 304.0 126.0 304.0 125.0 303.0 124.0 C 303.0 123.0 303.0 122.0 304.0 121.0 C 304.0 120.0 304.0 119.0 305.0 119.0 C 306.0 118.0 306.0 117.0 307.0 117.0" stroke-width="0.0" fill="rgb(11, 0, 9)" opacity="1.0" stroke="rgb(250, 37, 47)" stroke-opacity="0.5826421" stroke-linecap="round" stroke-linejoin="round"/>
    <path d="M 276.0 241.0 C 277.0 241.0 278.0 241.0 278.0 242.0 C 278.0 243.0 278.0 244.0 279.0 245.0 C 280.0 245.0 281.0 245.0 281.0 246.0 C 282.0 247.0 283.0 248.0 283.0 249.0 C 284.0 250.0 285.0 250.0 286.0 251.0 C 287.0 251.0 287.0 252.0 288.0 253.0 C 289.0 253.0 290.0 254.0 291.0 255.0 C 292.0 256.0 293.0 256.0 293.0 257.0 C 293.0 258.0 293.0 259.0 294.0 260.0 C 294.0 261.0 295.0 262.0 296.0 263.0 C 297.0 264.0 298.0 264.0 299.0 265.0 C 300.0 265.0 300.0 266.0 301.0 267.0 C 302.0 268.0 301.0 269.0 301.0 270.0 C 301.0 271.0 302.0 272.0 303.0 272.0 C 304.0 272.0 305.0 272.0 306.0 272.0 C 307.0 272.0 308.0 272.0 309.0 271.0 C 309.0 272.0 310.0 273.0 310.0 274.0 C 311.0 275.0 312.0 276.0 312.0 277.0 C 313.0 278.0 313.0 279.0 314.0 280.0 C 314.0 281.0 314.0 282.0 314.0 283.0 C 313.0 284.0 313.0 285.0 312.0 286.0 C 312.0 287.0 311.0 288.0 311.0 289.0 C 310.0 288.0 309.0 288.0 309.0 287.0 C 308.0 286.0 307.0 286.0 308.0 285.0 C 309.0 285.0 310.0 284.0 311.0 283.0 C 311.0 282.0 311.0 281.0 311.0 280.0 C 311.0 279.0 310.0 278.0 310.0 277.0 C 309.0 276.0 308.0 276.0 307.0 276.0 C 306.0 277.0 306.0 278.0 306.0 279.0 C 305.0 280.0 304.0 281.0 304.0 282.0 C 303.0 283.0 302.0 283.0 301.0 283.0 C 300.0 283.0 299.0 283.0 298.0 284.0 C 297.0 285.0 297.0 286.0 297.0 287.0 C 296.0 287.0 295.0 287.0 294.0 288.0 C 294.0 289.0 294.0 290.0 293.0 291.0 C 293.0 292.0 293.0 293.0 292.0 294.0 C 292.0 295.0 292.0 296.0 291.0 296.0 C 290.0 296.0 289.0 296.0 288.0 296.0 C 287.0 296.0 286.0 296.0 285.0 296.0 C 284.0 295.0 283.0 294.0 283.0 293.0 C 282.0 292.0 282.0 291.0 282.0 290.0 C 283.0 290.0 284.0 290.0 285.0 289.0 C 284.0 288.0 283.0 288.0 282.0 288.0 C 283.0 288.0 284.0 288.0 285.0 288.0 C 286.0 287.0 287.0 286.0 287.0 285.0 C 287.0 284.0 286.0 283.0 286.0 282.0 C 285.0 281.0 284.0 281.0 283.0 281.0 C 282.0 282.0 281.0 283.0 281.0 284.0 C 281.0 285.0 281.0 284.0 281.0 283.0 C 281.0 282.0 280.0 281.0 280.0 280.0 C 280.0 279.0 279.0 278.0 279.0 277.0 C 279.0 276.0 278.0 275.0 278.0 274.0 C 278.0 273.0 277.0 272.0 277.0 271.0 C 276.0 270.0 276.0 269.0 275.0 268.0 C 275.0 267.0 274.0 266.0 273.0 265.0 C 273.0 264.0 272.0 262.0 270.0 260.0 C 269.0 258.0 268.0 256.0 268.0 254.0 C 269.0 252.0 269.0 250.0 269.0 248.0 C 269.0 246.0 270.0 244.0 271.0 243.0 C 273.0 243.0 275.0 241.0 276.0 241.0" stroke-width="0.0" fill="rgb(171, 158, 196)" opacity="1.0" stroke="rgb(241, 229, 207)" stroke-opacity="0.0062183556" stroke-linecap="round" stroke-linejoin="round"/>
  </g>
</svg>
