<?xml version="1.0" ?>
<svg xmlns="http://www.w3.org/2000/svg" version="1.1" width="474" height="596">
  <defs/>
  <g>
    <path d="M 265.0 0.0 C 266.0 0.0 267.0 0.0 288.0 2.0 C 310.0 8.0 332.0 17.0 354.0 30.0 C 376.0 48.0 395.0 67.0 412.0 89.0 C 426.0 111.0 432.0 133.0 419.0 155.0 C 400.0 177.0 378.0 195.0 356.0 211.0 C 334.0 221.0 312.0 227.0 290.0 236.0 C 298.0 242.0 298.0 253.0 305.0 268.0 C 286.0 248.0 266.0 245.0 247.0 245.0 C 225.0 245.0 225.0 253.0 247.0 253.0 C 260.0 258.0 259.0 263.0 274.0 274.0 C 278.0 290.0 291.0 300.0 300.0 312.0 C 310.0 319.0 319.0 341.0 320.0 319.0 C 313.0 297.0 315.0 298.0 328.0 314.0 C 331.0 303.0 316.0 292.0 313.0 272.0 C 302.0 254.0 303.0 241.0 325.0 246.0 C 347.0 254.0 366.0 267.0 388.0 278.0 C 410.0 293.0 432.0 288.0 420.0 294.0 C 398.0 288.0 376.0 275.0 362.0 283.0 C 353.0 305.0 360.0 320.0 382.0 324.0 C 403.0 329.0 425.0 342.0 442.0 352.0 C 431.0 354.0 411.0 339.0 389.0 329.0 C 367.0 326.0 345.0 320.0 325.0 318.0 C 323.0 339.0 322.0 361.0 319.0 380.0 C 314.0 400.0 309.0 422.0 304.0 444.0 C 299.0 466.0 288.0 484.0 288.0 505.0 C 303.0 516.0 294.0 530.0 281.0 521.0 C 264.0 529.0 245.0 525.0 239.0 532.0 C 237.0 554.0 242.0 575.0 264.0 579.0 C 286.0 581.0 308.0 580.0 330.0 577.0 C 339.0 559.0 341.0 573.0 320.0 582.0 C 298.0 584.0 276.0 583.0 254.0 581.0 C 235.0 570.0 234.0 548.0 236.0 526.0 C 230.0 511.0 240.0 503.0 243.0 481.0 C 233.0 463.0 226.0 464.0 215.0 480.0 C 211.0 502.0 209.0 488.0 202.0 475.0 C 180.0 474.0 169.0 484.0 167.0 506.0 C 189.0 511.0 211.0 508.0 213.0 523.0 C 214.0 545.0 216.0 567.0 209.0 585.0 C 187.0 587.0 165.0 593.0 144.0 595.0 C 123.0 591.0 122.0 570.0 121.0 578.0 C 136.0 592.0 158.0 591.0 180.0 585.0 C 202.0 583.0 214.0 569.0 212.0 547.0 C 209.0 525.0 201.0 529.0 190.0 529.0 C 183.0 526.0 181.0 524.0 165.0 521.0 C 157.0 523.0 161.0 506.0 166.0 486.0 C 158.0 467.0 156.0 445.0 154.0 423.0 C 152.0 401.0 133.0 395.0 116.0 377.0 C 114.0 355.0 104.0 348.0 82.0 355.0 C 77.0 364.0 73.0 366.0 82.0 348.0 C 100.0 346.0 122.0 334.0 124.0 322.0 C 121.0 307.0 117.0 291.0 105.0 279.0 C 94.0 285.0 99.0 285.0 97.0 275.0 C 119.0 260.0 141.0 249.0 163.0 241.0 C 141.0 239.0 119.0 235.0 97.0 229.0 C 75.0 220.0 56.0 206.0 54.0 184.0 C 58.0 162.0 64.0 140.0 72.0 118.0 C 84.0 96.0 99.0 74.0 120.0 52.0 C 142.0 34.0 164.0 24.0 186.0 24.0 C 208.0 30.0 219.0 31.0 223.0 30.0 C 243.0 11.0 264.0 0.0 265.0 0.0" stroke-width="0.0" fill="rgb(61, 34, 26)" opacity="1.0" stroke="rgb(92, 35, 30)" stroke-opacity="0.4294523" stroke-linecap="round" stroke-linejoin="round"/>
    <path d="M 178.0 238.0 C 179.0 238.0 180.0 238.0 181.0 238.0 C 182.0 238.0 183.0 238.0 184.0 238.0 C 185.0 238.0 187.0 238.0 194.0 241.0 C 202.0 243.0 211.0 245.0 220.0 246.0 C 229.0 246.0 238.0 246.0 247.0 245.0 C 256.0 246.0 264.0 243.0 273.0 241.0 C 282.0 240.0 291.0 239.0 300.0 240.0 C 309.0 242.0 317.0 243.0 326.0 246.0 C 334.0 248.0 342.0 251.0 350.0 255.0 C 358.0 260.0 363.0 265.0 366.0 273.0 C 375.0 275.0 384.0 279.0 393.0 284.0 C 402.0 291.0 409.0 299.0 418.0 296.0 C 427.0 293.0 436.0 288.0 441.0 279.0 C 449.0 282.0 446.0 288.0 447.0 295.0 C 452.0 301.0 461.0 306.0 470.0 312.0 C 473.0 320.0 465.0 324.0 464.0 328.0 C 467.0 337.0 461.0 342.0 455.0 347.0 C 446.0 345.0 443.0 349.0 440.0 356.0 C 433.0 350.0 424.0 341.0 415.0 338.0 C 407.0 331.0 398.0 326.0 389.0 325.0 C 380.0 324.0 371.0 322.0 362.0 320.0 C 353.0 317.0 347.0 313.0 343.0 321.0 C 336.0 323.0 327.0 319.0 323.0 319.0 C 324.0 328.0 323.0 337.0 321.0 346.0 C 322.0 354.0 323.0 362.0 323.0 371.0 C 322.0 379.0 313.0 379.0 311.0 387.0 C 311.0 396.0 310.0 405.0 307.0 414.0 C 305.0 423.0 303.0 432.0 301.0 441.0 C 298.0 450.0 297.0 459.0 295.0 468.0 C 286.0 469.0 277.0 470.0 268.0 470.0 C 259.0 469.0 250.0 467.0 241.0 465.0 C 237.0 457.0 239.0 448.0 230.0 447.0 C 223.0 454.0 223.0 463.0 218.0 470.0 C 209.0 472.0 200.0 472.0 191.0 472.0 C 182.0 472.0 173.0 470.0 164.0 467.0 C 160.0 459.0 159.0 450.0 158.0 441.0 C 158.0 432.0 157.0 423.0 156.0 414.0 C 156.0 405.0 157.0 396.0 158.0 387.0 C 155.0 387.0 153.0 396.0 145.0 397.0 C 136.0 396.0 127.0 392.0 120.0 386.0 C 116.0 377.0 114.0 368.0 113.0 359.0 C 113.0 350.0 116.0 342.0 123.0 333.0 C 114.0 338.0 105.0 344.0 96.0 348.0 C 88.0 351.0 81.0 347.0 78.0 348.0 C 76.0 354.0 76.0 358.0 72.0 367.0 C 66.0 374.0 62.0 382.0 59.0 390.0 C 57.0 399.0 51.0 404.0 45.0 397.0 C 43.0 388.0 38.0 393.0 30.0 401.0 C 22.0 396.0 18.0 392.0 10.0 389.0 C 11.0 380.0 10.0 376.0 1.0 376.0 C 0.0 368.0 6.0 360.0 12.0 351.0 C 20.0 342.0 19.0 333.0 17.0 324.0 C 25.0 320.0 34.0 327.0 43.0 330.0 C 47.0 323.0 55.0 320.0 63.0 314.0 C 71.0 305.0 80.0 297.0 89.0 290.0 C 96.0 287.0 96.0 284.0 92.0 280.0 C 99.0 274.0 107.0 269.0 115.0 264.0 C 123.0 259.0 129.0 255.0 137.0 250.0 C 145.0 249.0 152.0 246.0 160.0 242.0 C 168.0 240.0 177.0 238.0 178.0 238.0" stroke-width="0.0" fill="rgb(248, 188, 108)" opacity="1.0" stroke="rgb(246, 201, 170)" stroke-opacity="0.6662853" stroke-linecap="round" stroke-linejoin="round"/>
    <path d="M 340.0 94.0 C 341.0 94.0 342.0 94.0 343.0 94.0 C 344.0 94.0 345.0 94.0 346.0 95.0 C 347.0 96.0 348.0 97.0 348.0 98.0 C 348.0 99.0 349.0 100.0 352.0 102.0 C 356.0 105.0 360.0 110.0 363.0 115.0 C 365.0 120.0 367.0 125.0 368.0 130.0 C 369.0 134.0 370.0 139.0 370.0 144.0 C 370.0 149.0 369.0 154.0 368.0 159.0 C 367.0 164.0 366.0 169.0 363.0 173.0 C 361.0 177.0 359.0 182.0 355.0 186.0 C 353.0 191.0 349.0 194.0 346.0 199.0 C 341.0 202.0 337.0 207.0 332.0 210.0 C 328.0 214.0 323.0 216.0 319.0 220.0 C 314.0 222.0 309.0 224.0 305.0 227.0 C 300.0 228.0 296.0 231.0 291.0 233.0 C 286.0 234.0 281.0 235.0 277.0 237.0 C 272.0 238.0 267.0 239.0 262.0 240.0 C 257.0 241.0 252.0 242.0 247.0 242.0 C 243.0 243.0 238.0 243.0 233.0 243.0 C 228.0 243.0 223.0 243.0 218.0 242.0 C 213.0 241.0 208.0 240.0 203.0 239.0 C 198.0 237.0 194.0 235.0 190.0 233.0 C 185.0 232.0 181.0 228.0 176.0 227.0 C 171.0 223.0 168.0 219.0 163.0 216.0 C 159.0 212.0 155.0 208.0 153.0 203.0 C 149.0 199.0 148.0 194.0 146.0 190.0 C 144.0 185.0 144.0 180.0 143.0 175.0 C 143.0 170.0 143.0 165.0 144.0 160.0 C 146.0 155.0 148.0 151.0 153.0 148.0 C 157.0 143.0 157.0 138.0 158.0 133.0 C 158.0 128.0 162.0 131.0 164.0 136.0 C 169.0 138.0 174.0 136.0 179.0 134.0 C 184.0 132.0 189.0 130.0 189.0 134.0 C 184.0 138.0 185.0 142.0 184.0 147.0 C 183.0 152.0 184.0 157.0 186.0 162.0 C 188.0 166.0 193.0 166.0 198.0 165.0 C 202.0 167.0 207.0 166.0 212.0 165.0 C 216.0 164.0 221.0 162.0 225.0 160.0 C 230.0 158.0 235.0 156.0 239.0 157.0 C 244.0 156.0 243.0 152.0 245.0 148.0 C 244.0 143.0 242.0 138.0 243.0 135.0 C 238.0 134.0 235.0 131.0 230.0 128.0 C 225.0 127.0 226.0 125.0 223.0 123.0 C 218.0 124.0 217.0 120.0 222.0 119.0 C 227.0 118.0 232.0 117.0 237.0 116.0 C 242.0 115.0 246.0 112.0 245.0 107.0 C 243.0 102.0 240.0 97.0 243.0 95.0 C 248.0 98.0 251.0 103.0 254.0 106.0 C 258.0 109.0 263.0 111.0 267.0 109.0 C 272.0 107.0 277.0 106.0 282.0 105.0 C 287.0 104.0 292.0 103.0 297.0 102.0 C 302.0 101.0 306.0 100.0 307.0 104.0 C 312.0 104.0 317.0 104.0 322.0 107.0 C 327.0 111.0 329.0 116.0 330.0 121.0 C 329.0 126.0 328.0 131.0 333.0 131.0 C 338.0 130.0 340.0 129.0 344.0 126.0 C 345.0 121.0 345.0 116.0 342.0 111.0 C 337.0 106.0 332.0 103.0 329.0 100.0 C 327.0 101.0 325.0 98.0 329.0 96.0 C 334.0 95.0 339.0 94.0 340.0 94.0" stroke-width="0.0" fill="rgb(252, 188, 106)" opacity="1.0" stroke="rgb(58, 145, 187)" stroke-opacity="0.24435565" stroke-linecap="round" stroke-linejoin="round"/>
    <path d="M 300.0 376.0 C 301.0 376.0 302.0 376.0 303.0 376.0 C 303.0 377.0 303.0 378.0 302.0 378.0 C 301.0 378.0 300.0 379.0 301.0 380.0 C 302.0 380.0 303.0 381.0 304.0 382.0 C 305.0 381.0 307.0 381.0 309.0 383.0 C 309.0 386.0 309.0 389.0 309.0 392.0 C 309.0 395.0 308.0 398.0 308.0 401.0 C 308.0 404.0 307.0 407.0 306.0 409.0 C 305.0 412.0 306.0 415.0 305.0 418.0 C 304.0 421.0 303.0 424.0 303.0 427.0 C 303.0 430.0 301.0 432.0 300.0 435.0 C 299.0 438.0 299.0 441.0 298.0 444.0 C 297.0 447.0 297.0 450.0 296.0 453.0 C 295.0 456.0 295.0 459.0 294.0 462.0 C 294.0 465.0 292.0 466.0 289.0 467.0 C 286.0 467.0 283.0 468.0 280.0 468.0 C 277.0 468.0 274.0 468.0 271.0 468.0 C 268.0 468.0 265.0 468.0 262.0 468.0 C 259.0 467.0 256.0 467.0 253.0 466.0 C 250.0 465.0 247.0 464.0 244.0 464.0 C 241.0 463.0 240.0 461.0 239.0 458.0 C 239.0 455.0 240.0 452.0 239.0 449.0 C 237.0 447.0 234.0 446.0 231.0 446.0 C 228.0 446.0 225.0 447.0 223.0 450.0 C 223.0 453.0 221.0 456.0 221.0 459.0 C 221.0 462.0 220.0 465.0 218.0 468.0 C 215.0 469.0 212.0 469.0 209.0 470.0 C 207.0 472.0 204.0 471.0 201.0 471.0 C 198.0 471.0 195.0 471.0 192.0 471.0 C 189.0 471.0 186.0 471.0 183.0 472.0 C 181.0 470.0 178.0 470.0 176.0 468.0 C 173.0 468.0 170.0 467.0 167.0 466.0 C 165.0 465.0 163.0 463.0 163.0 460.0 C 162.0 457.0 161.0 454.0 159.0 452.0 C 160.0 449.0 160.0 446.0 160.0 443.0 C 160.0 440.0 160.0 437.0 159.0 434.0 C 159.0 431.0 159.0 428.0 159.0 425.0 C 159.0 422.0 159.0 419.0 158.0 416.0 C 158.0 413.0 158.0 410.0 158.0 407.0 C 158.0 404.0 159.0 401.0 158.0 398.0 C 158.0 395.0 158.0 392.0 159.0 389.0 C 160.0 386.0 162.0 384.0 165.0 383.0 C 168.0 382.0 171.0 382.0 174.0 382.0 C 177.0 381.0 180.0 382.0 183.0 382.0 C 186.0 383.0 188.0 381.0 191.0 382.0 C 193.0 383.0 196.0 383.0 199.0 383.0 C 202.0 384.0 205.0 384.0 204.0 386.0 C 203.0 388.0 206.0 388.0 207.0 390.0 C 209.0 389.0 212.0 389.0 213.0 386.0 C 215.0 387.0 217.0 389.0 219.0 387.0 C 222.0 387.0 223.0 389.0 226.0 390.0 C 229.0 389.0 231.0 388.0 234.0 388.0 C 237.0 388.0 240.0 388.0 243.0 388.0 C 246.0 388.0 249.0 388.0 252.0 388.0 C 255.0 388.0 258.0 387.0 261.0 387.0 C 264.0 386.0 267.0 386.0 270.0 385.0 C 273.0 385.0 276.0 384.0 278.0 385.0 C 280.0 384.0 283.0 383.0 286.0 382.0 C 289.0 381.0 292.0 381.0 295.0 380.0 C 298.0 379.0 299.0 376.0 300.0 376.0" stroke-width="0.0" fill="rgb(253, 76, 2)" opacity="1.0" stroke="rgb(241, 157, 206)" stroke-opacity="0.58332807" stroke-linecap="round" stroke-linejoin="round"/>
  </g>
</svg>
