<?xml version="1.0" ?>
<svg xmlns="http://www.w3.org/2000/svg" version="1.1" width="279" height="351">
  <defs/>
  <g>
    <path d="M 116.94794464111328 17.629215240478516 C 115.98161315917969 17.497297286987305 116.06476593017578 16.982160568237305 118.41722106933594 16.949068069458008 C 123.34075164794922 18.04197883605957 125.4247055053711 20.011428833007812 123.43124389648438 22.159910202026367 C 122.16757202148438 19.645063400268555 123.48562622070312 17.829063415527344 128.02622985839844 20.31664276123047 C 133.81524658203125 23.198429107666016 138.07958984375 21.98035430908203 143.66583251953125 16.841049194335938 C 154.114013671875 22.170127868652344 163.00921630859375 26.111175537109375 171.29701232910156 23.14537239074707 C 172.38198852539062 29.623401641845703 176.04647827148438 35.172157287597656 184.83767700195312 40.198368072509766 C 198.108154296875 46.759063720703125 207.21571350097656 59.89536666870117 210.89527893066406 76.52871704101562 C 217.0592498779297 80.91671752929688 227.1904754638672 74.52318572998047 238.99880981445312 68.97167205810547 C 246.549560546875 75.00666809082031 245.7865753173828 89.20811462402344 241.0266876220703 103.21784973144531 C 248.36155700683594 110.64240264892578 257.0074157714844 118.97909545898438 262.2669982910156 131.24542236328125 C 267.1277770996094 142.464599609375 266.638671875 152.47247314453125 267.4486083984375 161.12290954589844 C 279.5793762207031 166.92691040039062 278.3896179199219 180.8416290283203 265.2999572753906 194.52552795410156 C 254.84376525878906 200.3931427001953 255.8717803955078 208.2571563720703 254.24948120117188 220.47732543945312 C 251.72714233398438 234.0951385498047 249.94911193847656 247.67686462402344 248.0846405029297 260.13623046875 C 246.3948974609375 271.7780456542969 244.95657348632812 283.96923828125 243.19241333007812 296.5373229980469 C 242.86619567871094 308.0674743652344 238.81044006347656 316.39837646484375 228.4342803955078 323.08660888671875 C 217.22251892089844 330.0411071777344 205.34371948242188 333.1589660644531 194.46475219726562 336.8117370605469 C 184.0478515625 338.9237365722656 173.80784606933594 340.71533203125 163.3411407470703 341.56982421875 C 151.9369659423828 342.1063232421875 139.31895446777344 342.84637451171875 124.45073699951172 341.8874816894531 C 108.1960220336914 341.4454650878906 92.43054962158203 337.9931335449219 84.36988067626953 336.0838623046875 C 92.79698944091797 332.69085693359375 97.312255859375 329.86651611328125 94.91876983642578 320.184326171875 C 94.16748809814453 304.86785888671875 93.08355712890625 287.2557678222656 92.07182312011719 270.2261657714844 C 91.29286193847656 254.95143127441406 90.49718475341797 242.47244262695312 89.21481323242188 234.50608825683594 C 84.27767181396484 230.83135986328125 79.13151550292969 229.7499542236328 76.33985900878906 230.25286865234375 C 76.34512329101562 236.9879913330078 77.62767791748047 249.108642578125 78.9085464477539 267.036865234375 C 80.76728820800781 288.59393310546875 82.57549285888672 310.4315185546875 84.09663391113281 328.5023498535156 C 87.40292358398438 337.3327331542969 84.8797836303711 336.2590026855469 75.68551635742188 332.9874572753906 C 70.49977111816406 333.1706848144531 73.67721557617188 328.301513671875 72.60517120361328 316.9158020019531 C 71.40371704101562 301.1350402832031 69.84471893310547 283.39349365234375 67.93098449707031 263.0956726074219 C 65.85672760009766 241.6776580810547 67.33485412597656 225.927734375 56.904296875 221.30967712402344 C 50.5589485168457 229.39175415039062 57.28409194946289 259.06512451171875 58.74726486206055 291.3666076660156 C 47.8457145690918 290.059326171875 50.00712585449219 258.51385498046875 44.23089599609375 222.6473846435547 C 35.97039031982422 211.15785217285156 34.92202377319336 221.73501586914062 35.31620788574219 235.61770629882812 C 26.67669105529785 224.1719970703125 19.44276237487793 207.41159057617188 20.8859920501709 198.18788146972656 C 35.50917053222656 202.82962036132812 53.857112884521484 210.9752960205078 71.07569885253906 212.2598876953125 C 81.8542251586914 213.47268676757812 82.44512939453125 212.4092254638672 76.81073760986328 208.00355529785156 C 68.96714782714844 205.6480712890625 58.3245964050293 203.26206970214844 44.75454330444336 198.3780975341797 C 30.668792724609375 192.19248962402344 18.58031463623047 187.719970703125 13.85142993927002 178.63116455078125 C 10.917539596557617 169.17251586914062 10.527673721313477 163.58782958984375 12.500609397888184 164.60153198242188 C 17.642831802368164 167.42349243164062 21.04628562927246 168.3295440673828 18.89533233642578 167.95819091796875 C 12.023831367492676 166.7027130126953 7.595162391662598 161.40866088867188 9.570111274719238 154.3981170654297 C 17.13179588317871 157.70436096191406 28.980674743652344 161.98941040039062 38.40313720703125 166.89979553222656 C 39.170772552490234 161.10150146484375 40.677040100097656 150.0194549560547 45.865238189697266 138.2661590576172 C 53.31099319458008 130.99423217773438 60.38023376464844 124.87562561035156 66.74504852294922 118.72118377685547 C 77.6028823852539 116.65760040283203 82.9598617553711 112.20036315917969 78.06183624267578 106.84712982177734 C 66.89894104003906 102.25837707519531 59.322998046875 109.57086944580078 48.72465133666992 118.472900390625 C 33.32487106323242 109.01421356201172 23.560894012451172 112.34345245361328 18.558147430419922 131.0078887939453 C 6.822737693786621 138.37771606445312 1.5191766023635864 130.9464111328125 7.788566589355469 114.61067199707031 C 14.90140438079834 98.06095123291016 23.184499740600586 89.74403381347656 33.16642761230469 89.17703247070312 C 38.88007354736328 92.96795654296875 45.51565933227539 90.09619140625 52.099525451660156 86.25814819335938 C 50.85822296142578 80.6895523071289 52.66119384765625 74.41680908203125 51.31501007080078 69.35499572753906 C 37.176483154296875 68.79830169677734 32.00478744506836 72.94544219970703 37.336753845214844 86.30799102783203 C 35.26705551147461 95.70240020751953 31.674877166748047 88.34082794189453 28.527252197265625 71.49380493164062 C 39.49657440185547 59.30625534057617 50.96955108642578 57.18721389770508 43.02604675292969 49.71533966064453 C 40.057987213134766 33.26371383666992 40.64057540893555 28.330883026123047 47.74022674560547 38.977169036865234 C 56.010501861572266 47.89266586303711 61.70209884643555 51.09730529785156 66.51900482177734 48.53962326049805 C 71.88776397705078 46.166831970214844 74.40865325927734 47.300086975097656 74.50067901611328 55.979862213134766 C 75.13243103027344 64.59123229980469 82.14012145996094 68.01272583007812 90.04779815673828 64.4426498413086 C 97.0751953125 52.72498321533203 104.35751342773438 41.454673767089844 111.98648834228516 35.57106399536133 C 109.60332489013672 27.671485900878906 108.18419647216797 18.136489868164062 116.94794464111328 17.629215240478516" stroke-width="0.0" fill="rgb(191, 114, 124)" opacity="0.9996647" stroke="rgb(76, 231, 239)" stroke-opacity="0.19003901" stroke-linecap="round" stroke-linejoin="round"/>
    <path d="M 140.89744567871094 140.33297729492188 C 142.23837280273438 141.80902099609375 143.55397033691406 143.1820831298828 144.80380249023438 144.2906494140625 C 146.024169921875 145.02098083496094 147.1474151611328 145.4000701904297 148.1721649169922 145.53407287597656 C 149.11827087402344 145.55776977539062 149.9880828857422 145.6484375 150.81716918945312 146.02590942382812 C 151.6602325439453 146.9248809814453 152.5581512451172 148.54039001464844 153.5352783203125 151.0374755859375 C 154.52015686035156 154.43170166015625 155.40379333496094 158.56385803222656 156.0337371826172 163.1820831298828 C 156.16346740722656 167.8732147216797 155.54347229003906 172.120849609375 153.92877197265625 175.4243621826172 C 151.29147338867188 177.301025390625 148.10195922851562 177.7148895263672 144.9351806640625 176.9891357421875 C 142.34327697753906 175.65870666503906 140.55287170410156 174.2318115234375 139.54823303222656 173.0832061767578 C 139.19989013671875 172.48098754882812 139.17762756347656 172.58828735351562 139.17018127441406 173.2955780029297 C 138.877685546875 174.38143920898438 138.19908142089844 175.53475952148438 137.10479736328125 176.46485900878906 C 135.68972778320312 176.93040466308594 134.37416076660156 176.75465393066406 133.57821655273438 176.075439453125 C 133.59304809570312 175.12179565429688 134.6081085205078 174.1215362548828 136.61532592773438 173.3960723876953 C 139.4580535888672 173.12684631347656 142.78829956054688 173.3822021484375 146.23971557617188 174.16827392578125 C 149.5162811279297 175.3657684326172 152.536865234375 176.8708038330078 155.30136108398438 178.54248046875 C 157.8812255859375 180.2545623779297 160.35549926757812 181.9449462890625 162.7802734375 183.5670166015625 C 165.22911071777344 185.08538818359375 167.75274658203125 186.59500122070312 170.3929443359375 188.1482391357422 C 173.18572998046875 189.85813903808594 176.12380981445312 191.67283630371094 179.18231201171875 193.5482177734375 C 182.3255615234375 195.43203735351562 185.45753479003906 197.18003845214844 188.5584716796875 198.74258422851562 C 191.49012756347656 200.0451202392578 194.1951446533203 201.0550079345703 196.5363006591797 201.7848663330078 C 198.41615295410156 202.26693725585938 199.7120819091797 202.5629425048828 200.3501739501953 202.75167846679688 C 200.2988739013672 202.87811279296875 199.5634307861328 202.98687744140625 198.2418975830078 203.14076232910156 C 196.4593048095703 203.3660430908203 194.3286895751953 203.70755004882812 191.9584503173828 204.2166748046875 C 189.45953369140625 204.9293670654297 186.92539978027344 205.90077209472656 184.4062957763672 207.1991729736328 C 181.91639709472656 208.87428283691406 179.44528198242188 210.8311309814453 176.9686737060547 212.98605346679688 C 174.44451904296875 215.22169494628906 171.82916259765625 217.28480529785156 169.09246826171875 218.98825073242188 C 166.19688415527344 220.09523010253906 163.13784790039062 220.55288696289062 159.94760131835938 220.47479248046875 C 156.6321563720703 220.08531188964844 153.3248748779297 219.5635986328125 150.14344787597656 219.08644104003906 C 147.23179626464844 218.7080535888672 144.7640380859375 218.46702575683594 142.8926544189453 218.29061889648438 C 141.74935913085938 218.10675048828125 141.3973388671875 217.8882293701172 141.7974090576172 217.6269989013672 C 142.8151397705078 217.33641052246094 144.14170837402344 217.1428985595703 145.44969177246094 217.0912322998047 C 146.42642211914062 217.26402282714844 146.8007354736328 217.70191955566406 146.36798095703125 218.32334899902344 C 145.09104919433594 219.0491180419922 143.1029052734375 219.80276489257812 140.58229064941406 220.5360107421875 C 137.69198608398438 221.2306671142578 134.60092163085938 221.9519500732422 131.44947814941406 222.7526397705078 C 128.32302856445312 223.66844177246094 125.28016662597656 224.73489379882812 122.36260986328125 225.93849182128906 C 119.54930114746094 227.14480590820312 116.81111907958984 228.06329345703125 114.21878814697266 228.38943481445312 C 111.85843658447266 227.95127868652344 109.80018615722656 226.82473754882812 108.09474182128906 225.15451049804688 C 106.78140258789062 223.09909057617188 105.86016845703125 220.80999755859375 105.29266357421875 218.42213439941406 C 105.03572082519531 216.0330352783203 105.03812408447266 213.75332641601562 105.19050598144531 211.697021484375 C 105.50142669677734 209.98240661621094 105.93751525878906 208.75758361816406 106.45918273925781 208.11566162109375 C 107.01154327392578 208.14254760742188 107.499755859375 208.8431396484375 107.808837890625 210.13626098632812 C 107.76954650878906 211.86367797851562 107.13758850097656 213.7884063720703 105.72062683105469 215.5060272216797 C 103.39361572265625 216.5682830810547 100.17398071289062 216.6466064453125 96.1343994140625 215.65704345703125 C 91.53849029541016 213.8432159423828 86.85770416259766 211.64353942871094 82.67697143554688 209.674072265625 C 79.38440704345703 208.09320068359375 76.37232971191406 206.89471435546875 73.19180297851562 205.96429443359375 C 69.25286865234375 205.10272216796875 64.42892456054688 203.4024658203125 59.984920501708984 201.2252960205078 C 57.51722717285156 199.6011505126953 58.1030158996582 198.01295471191406 60.48719024658203 197.04327392578125 C 59.03433609008789 194.3874053955078 56.99297332763672 190.6950225830078 55.461605072021484 186.49021911621094 C 55.16964340209961 182.51934814453125 56.128726959228516 179.20562744140625 57.961177825927734 176.7241973876953 C 60.43296813964844 175.09854125976562 63.35835266113281 173.80596923828125 66.56756591796875 172.86093139648438 C 69.86045837402344 172.3914031982422 73.195556640625 172.30091857910156 76.58741760253906 172.5220947265625 C 80.01286315917969 173.04598999023438 83.42607116699219 173.80593872070312 86.78522491455078 174.7649688720703 C 90.06204223632812 175.8942413330078 93.18461608886719 177.08970642089844 96.04093170166016 178.13970947265625 C 98.50565338134766 178.8692626953125 100.46009063720703 179.10836791992188 101.81097412109375 178.69046020507812 C 102.52302551269531 177.52586364746094 102.66265869140625 175.58636474609375 102.41222381591797 172.92820739746094 C 101.99656677246094 169.7833709716797 101.70429229736328 166.4423370361328 101.81124114990234 163.17897033691406 C 102.57042694091797 160.29637145996094 104.10726928710938 158.01927185058594 106.40913391113281 156.42459106445312 C 109.35718536376953 155.5389404296875 112.69186401367188 155.14341735839844 116.08781433105469 154.9425506591797 C 119.22884368896484 154.62525939941406 121.88629913330078 153.92227172851562 123.90322875976562 152.59695434570312 C 125.2797622680664 150.51243591308594 126.11614227294922 147.67864990234375 126.60265350341797 144.25381469726562 C 126.91767883300781 140.4628448486328 127.17475891113281 136.5105743408203 140.89744567871094 140.33297729492188" stroke-width="0.0" fill="rgb(74, 126, 6)" opacity="0.9999932" stroke="rgb(77, 198, 202)" stroke-opacity="0.8499393" stroke-linecap="round" stroke-linejoin="round"/>
    <path d="M 171.70477294921875 25.613786697387695 C 172.20396423339844 27.42365264892578 172.89393615722656 28.540802001953125 173.78726196289062 28.880687713623047 C 174.93914794921875 28.597307205200195 175.5803680419922 28.207983016967773 174.86495971679688 28.261993408203125 C 173.09536743164062 29.021270751953125 172.66648864746094 30.446048736572266 173.92137145996094 32.6911735534668 C 176.45823669433594 35.25871658325195 177.73301696777344 36.639102935791016 178.00306701660156 36.84468078613281 C 177.82843017578125 37.01436996459961 177.79898071289062 37.03470993041992 178.25332641601562 37.10013961791992 C 178.70518493652344 37.4001579284668 179.37269592285156 37.70162582397461 179.55795288085938 37.811561584472656 C 179.3257598876953 37.809593200683594 178.98765563964844 37.58120346069336 179.64749145507812 37.28498458862305 C 182.026611328125 38.05428695678711 186.5457305908203 37.500850677490234 191.367431640625 37.4777717590332 C 191.8301544189453 37.839107513427734 189.48341369628906 40.144710540771484 187.78614807128906 42.29127883911133 C 189.78433227539062 44.3992919921875 191.0581512451172 46.18949508666992 191.6664276123047 48.52203369140625 C 193.11851501464844 49.53533935546875 194.66416931152344 49.647377014160156 195.7534942626953 49.69487762451172 C 195.9602813720703 49.877864837646484 195.2072296142578 50.01785659790039 193.43544006347656 49.69105529785156 C 191.2059326171875 48.97429656982422 189.96981811523438 47.77203369140625 190.86911010742188 46.331417083740234 C 193.33438110351562 47.168270111083984 196.48207092285156 49.63582992553711 198.4905548095703 52.25453186035156 C 197.5164794921875 54.20248794555664 194.8112335205078 55.779563903808594 191.7989501953125 57.514217376708984 C 189.1416778564453 59.05318832397461 187.00625610351562 60.16041564941406 185.62464904785156 60.718711853027344 C 184.9832305908203 60.74954605102539 185.0364990234375 60.23457336425781 185.81936645507812 59.47935104370117 C 187.0727996826172 58.396400451660156 188.51393127441406 57.00102615356445 190.24159240722656 55.63314437866211 C 191.9091796875 54.05332565307617 194.33111572265625 53.41745376586914 196.16600036621094 53.393672943115234 C 196.22360229492188 54.689395904541016 194.8157196044922 56.14544677734375 192.75625610351562 57.2769775390625 C 190.54425048828125 58.05150604248047 188.50827026367188 58.600669860839844 186.96188354492188 58.68436813354492 C 186.09925842285156 58.05952453613281 186.40362548828125 56.85966110229492 188.14158630371094 55.37610626220703 C 191.02374267578125 53.55849075317383 194.95127868652344 53.18940734863281 198.83670043945312 53.5523796081543 C 200.97657775878906 53.45183181762695 201.25851440429688 53.292755126953125 200.61740112304688 54.26967239379883 C 201.08584594726562 57.08467102050781 203.10208129882812 61.75105285644531 209.30601501464844 64.18968200683594 C 210.3816680908203 69.66030883789062 209.57186889648438 76.01194763183594 207.66961669921875 81.5943832397461 C 205.0633087158203 86.02162170410156 202.2173309326172 89.14752197265625 199.6258544921875 90.93399047851562 C 197.63577270507812 91.8530502319336 195.6121826171875 92.45478820800781 192.9337615966797 93.14603424072266 C 189.159423828125 94.18973541259766 184.73793029785156 95.62860870361328 180.2200927734375 97.02430725097656 C 176.28158569335938 98.0537338256836 173.46270751953125 98.69642639160156 172.2464599609375 99.02464294433594 C 172.73760986328125 99.09395599365234 173.59181213378906 99.04507446289062 173.5402069091797 99.21943664550781 C 171.42745971679688 100.14520263671875 168.0087890625 101.84407806396484 164.21197509765625 104.10540771484375 C 161.0044403076172 106.6249771118164 158.3599395751953 109.19872283935547 156.1245880126953 111.92621612548828 C 154.16107177734375 114.84730529785156 152.26058959960938 117.79901123046875 150.22640991210938 120.44417572021484 C 147.990966796875 122.37288665771484 145.66152954101562 123.41596221923828 143.3341064453125 123.501953125 C 141.0543975830078 122.58908081054688 138.79173278808594 120.68191528320312 136.49725341796875 117.80419921875 C 134.1007843017578 114.0077896118164 131.79457092285156 109.602783203125 129.85023498535156 104.87080383300781 C 128.6177215576172 100.08509826660156 128.49655151367188 95.44536590576172 129.7614288330078 91.10993957519531 C 132.5359649658203 87.28164672851562 136.4344940185547 84.09590148925781 140.9056396484375 81.6579360961914 C 145.4169464111328 80.08186340332031 149.38888549804688 79.47196960449219 152.2440948486328 79.75636291503906 C 153.57086181640625 80.80867004394531 153.58901977539062 82.30059051513672 152.69439697265625 83.87873840332031 C 151.46109008789062 85.1683578491211 150.51705932617188 85.82152557373047 150.41859436035156 85.57393646240234 C 151.46742248535156 84.26229858398438 153.37579345703125 82.06875610351562 155.7923126220703 79.26874542236328 C 158.2959747314453 76.34584045410156 160.5828399658203 73.775634765625 162.4977264404297 71.9742660522461 C 163.96176147460938 71.34242248535156 164.99513244628906 71.71040344238281 165.6392822265625 72.6965560913086 C 165.86354064941406 73.77803802490234 165.5712890625 74.36277770996094 164.68304443359375 73.9305191040039 C 163.10650634765625 72.04623413085938 161.0811309814453 68.96089172363281 158.91836547851562 65.20893096923828 C 156.83030700683594 61.295040130615234 154.99859619140625 57.696990966796875 153.6360321044922 54.743717193603516 C 153.05905151367188 52.66524124145508 153.5628204345703 51.477481842041016 155.19232177734375 51.15165710449219 C 157.7691650390625 51.53947448730469 160.94227600097656 52.592811584472656 164.25259399414062 54.15609359741211 C 167.17578125 55.77834701538086 169.44100952148438 57.08941650390625 170.94061279296875 57.811946868896484 C 171.6425018310547 57.61576843261719 171.71360778808594 56.689117431640625 171.22328186035156 55.488067626953125 C 170.07688903808594 54.66088104248047 168.14376831054688 54.58664321899414 165.52809143066406 54.83106231689453 C 162.00123596191406 54.35376739501953 157.52484130859375 53.47892379760742 152.32736206054688 52.80998992919922 C 146.79132080078125 52.88459777832031 141.54592895507812 52.893638610839844 137.12400817871094 52.25412368774414 C 134.0634002685547 50.47371292114258 132.57351684570312 47.66982650756836 132.57003784179688 44.129615783691406 C 133.77328491210938 40.31272888183594 135.75640869140625 36.735923767089844 138.11509704589844 33.60475158691406 C 140.5245361328125 30.838947296142578 142.973876953125 28.602785110473633 145.39195251464844 27.00816535949707 C 147.76600646972656 26.05844497680664 150.1536102294922 25.628971099853516 152.6722412109375 25.512371063232422 C 155.3445281982422 25.465391159057617 158.06275939941406 25.344295501708984 171.70477294921875 25.613786697387695" stroke-width="0.0" fill="rgb(79, 35, 13)" opacity="0.9999375" stroke="rgb(140, 177, 192)" stroke-opacity="0.19078323" stroke-linecap="round" stroke-linejoin="round"/>
    <path d="M 226.94984436035156 98.75672912597656 C 229.19078063964844 100.19734954833984 231.2239227294922 101.47875213623047 233.1042938232422 102.98915100097656 C 234.72560119628906 104.4640121459961 235.74911499023438 105.89966583251953 236.7987823486328 106.60990905761719 C 237.4707794189453 106.90621185302734 237.73793029785156 107.11788940429688 237.85560607910156 107.27764892578125 C 237.9894256591797 107.4870834350586 238.1778106689453 108.06147003173828 238.67153930664062 108.7562484741211 C 239.75686645507812 109.25379943847656 240.43446350097656 109.94955444335938 240.9122314453125 111.21951293945312 C 241.60577392578125 112.65239715576172 242.5692901611328 114.33917236328125 243.49708557128906 116.2077865600586 C 244.26437377929688 118.55594635009766 244.9410400390625 121.01615905761719 245.15802001953125 123.22444915771484 C 244.96778869628906 125.11949157714844 244.57533264160156 126.61847686767578 243.93902587890625 127.63062286376953 C 242.98182678222656 128.0949249267578 241.7252655029297 128.122802734375 240.28977966308594 127.80792236328125 C 238.77468872070312 127.1859130859375 237.2157440185547 126.3273696899414 235.6672821044922 125.39814758300781 C 234.21737670898438 124.41342163085938 232.94883728027344 123.36554718017578 231.8905792236328 122.28276062011719 C 231.08192443847656 121.24895477294922 230.5813446044922 120.36226654052734 230.42991638183594 119.70335388183594 C 230.6205291748047 119.41410827636719 231.15846252441406 119.54837799072266 231.97967529296875 119.99187469482422 C 233.02874755859375 120.68434143066406 234.12493896484375 121.57646942138672 235.18887329101562 122.56709289550781 C 236.00088500976562 123.73453521728516 236.55496215820312 125.02064514160156 236.86244201660156 126.41570281982422 C 236.94403076171875 127.91876220703125 236.8853759765625 129.56314086914062 236.78663635253906 131.29197692871094 C 236.73495483398438 133.11061096191406 236.7637176513672 134.99630737304688 236.87673950195312 136.912353515625 C 237.07460021972656 138.8615264892578 237.33470153808594 140.8515167236328 237.62278747558594 142.8572540283203 C 237.88462829589844 144.85548400878906 238.08123779296875 146.86178588867188 238.21670532226562 148.89999389648438 C 238.27932739257812 150.9517822265625 238.26760864257812 152.9869384765625 238.2454376220703 155.0231475830078 C 238.2105255126953 157.05857849121094 238.17201232910156 159.07481384277344 238.16737365722656 161.08412170410156 C 238.21351623535156 163.11276245117188 238.2707061767578 165.16635131835938 238.42628479003906 167.23263549804688 C 238.67539978027344 169.30311584472656 239.0938262939453 171.36981201171875 239.67303466796875 173.3889617919922 C 240.4694061279297 175.29443359375 241.47340393066406 177.0543212890625 242.71495056152344 178.58721923828125 C 244.17849731445312 179.8240203857422 245.8270721435547 180.6952667236328 247.61170959472656 181.156982421875 C 249.49732971191406 181.2232208251953 251.37335205078125 180.93801879882812 253.1712188720703 180.4109344482422 C 254.84922790527344 179.74986267089844 256.29559326171875 179.07643127441406 257.4783020019531 178.5157470703125 C 258.34857177734375 178.1737518310547 258.8458251953125 178.13290405273438 258.97100830078125 178.43704223632812 C 258.718017578125 179.07057189941406 258.06903076171875 179.94593811035156 257.03387451171875 180.98020935058594 C 255.6793975830078 182.07135009765625 254.01429748535156 183.11080932617188 252.11990356445312 184.0139923095703 C 250.03106689453125 184.7283935546875 247.81094360351562 185.1922149658203 245.56895446777344 185.3536834716797 C 243.39053344726562 185.18740844726562 241.3582305908203 184.70205688476562 239.58926391601562 183.9171142578125 C 238.1117706298828 182.88890075683594 236.95828247070312 181.65785217285156 236.1415557861328 180.2491912841797 C 235.59120178222656 178.73178100585938 235.22132873535156 177.18670654296875 234.8456573486328 175.6710968017578 C 234.34109497070312 174.19862365722656 233.58445739746094 172.83917236328125 232.55352783203125 171.56704711914062 C 231.25784301757812 170.35716247558594 229.81015014648438 169.17079162597656 228.38890075683594 167.92623901367188 C 227.1527862548828 166.55784606933594 226.25054931640625 165.0301055908203 225.69581604003906 163.2515869140625 C 225.48483276367188 161.2715301513672 225.6050567626953 159.09036254882812 225.9660186767578 156.72959899902344 C 226.4044647216797 154.32272338867188 226.7912139892578 151.94395446777344 226.96978759765625 149.71018981933594 C 226.80372619628906 147.69155883789062 226.29888916015625 145.92507934570312 225.50291442871094 144.450927734375 C 224.5318145751953 143.24789428710938 223.5167236328125 142.2895050048828 222.5482940673828 141.5407257080078 C 221.60487365722656 140.9676971435547 220.68397521972656 140.50262451171875 219.75892639160156 140.0690155029297 C 218.87030029296875 139.561767578125 218.0493927001953 138.80972290039062 217.29432678222656 137.67977905273438 C 216.57907104492188 136.0527801513672 215.8395538330078 133.95797729492188 215.02438354492188 131.52920532226562 C 214.07498168945312 128.974853515625 212.90513610839844 126.490478515625 211.41111755371094 124.2754135131836 C 209.54762268066406 122.51370239257812 207.23428344726562 121.31360626220703 204.49246215820312 120.61288452148438 C 201.4315643310547 120.32057189941406 198.11227416992188 120.2318344116211 194.80349731445312 120.12902069091797 C 191.758544921875 119.8763198852539 189.18089294433594 119.33316040039062 187.3131561279297 118.38992309570312 C 186.3677215576172 117.0154037475586 186.3545684814453 115.32203674316406 187.23818969726562 113.43145751953125 C 188.75021362304688 111.52251434326172 190.59690856933594 109.75667572021484 192.46780395507812 108.25093841552734 C 194.13897705078125 107.07020568847656 195.5767364501953 106.25382995605469 196.77426147460938 105.78463745117188 C 197.8177032470703 105.54077911376953 198.8509063720703 105.2725830078125 200.0294952392578 104.70574188232422 C 201.45648193359375 103.67395782470703 203.21185302734375 102.26109313964844 205.3298797607422 100.68586730957031 C 207.76547241210938 99.25082397460938 210.4113311767578 98.3273696899414 213.15664672851562 98.23841094970703 C 215.84963989257812 99.20513153076172 218.30873107910156 101.02842712402344 220.38668823242188 103.37471771240234 C 222.00474548339844 105.99832916259766 223.1794891357422 108.5886459350586 223.92642211914062 110.97351837158203 C 224.26229858398438 112.97368621826172 224.25296020507812 114.4571304321289 223.92274475097656 115.3727798461914 C 223.32882690429688 115.71800994873047 222.5321807861328 115.45526123046875 221.54852294921875 114.63008117675781 C 220.3915557861328 113.2284927368164 219.04998779296875 111.35575866699219 217.57374572753906 109.14997863769531 C 216.0032958984375 106.78453063964844 214.37213134765625 104.33841705322266 226.94984436035156 98.75672912597656" stroke-width="0.0" fill="rgb(234, 0, 37)" opacity="0.99999034" stroke="rgb(164, 196, 164)" stroke-opacity="0.8057579" stroke-linecap="round" stroke-linejoin="round"/>
    <path d="M 111.4201431274414 30.92095375061035 C 112.7097396850586 35.19898986816406 114.39154052734375 38.0542106628418 116.48368072509766 38.79798889160156 C 118.8851318359375 37.76097106933594 121.04249572753906 36.1192512512207 122.796875 34.543312072753906 C 124.04755401611328 33.692962646484375 124.74632263183594 33.801307678222656 124.8746109008789 34.78141784667969 C 124.61971282958984 36.15868377685547 124.14444732666016 37.474647521972656 123.5173568725586 38.38677215576172 C 122.7527847290039 38.744197845458984 121.90049743652344 38.66096878051758 121.06717681884766 38.43361282348633 C 120.32783508300781 38.3632698059082 119.70393371582031 38.70461654663086 119.1063003540039 39.585445404052734 C 118.46038818359375 40.86978530883789 117.96788787841797 42.34331130981445 117.8478775024414 43.76991653442383 C 118.48436737060547 44.933555603027344 119.66869354248047 45.8109016418457 121.08488464355469 46.441368103027344 C 122.3919448852539 46.8505859375 123.3428726196289 47.21687698364258 123.79092407226562 47.80271530151367 C 123.6201171875 48.755611419677734 122.84610748291016 50.20283889770508 121.47101593017578 52.12510299682617 C 119.56398010253906 54.32206726074219 117.27888488769531 56.382118225097656 114.87393951416016 57.88732147216797 C 112.47457122802734 58.52067947387695 110.44729614257812 58.419918060302734 108.98825073242188 57.83912658691406 C 108.1730728149414 57.0379753112793 108.00128173828125 56.19099426269531 108.32147979736328 55.474266052246094 C 108.7701187133789 54.96293258666992 109.08680725097656 54.65153503417969 109.15090942382812 54.7110595703125 C 108.2684326171875 54.96678924560547 106.51654052734375 55.65306854248047 104.15807342529297 57.1919059753418 C 100.83354949951172 58.97581481933594 98.82341003417969 61.197608947753906 98.13215637207031 60.5444221496582 C 100.32386016845703 58.2204704284668 103.25458526611328 55.61845397949219 104.37215423583984 52.96461868286133 C 104.6683349609375 50.89034652709961 105.47037506103516 50.9337158203125 105.56951141357422 52.38729476928711 C 105.14803314208984 53.756282806396484 104.53494262695312 53.74690246582031 103.58206176757812 52.36315155029297 C 101.01482391357422 52.02729415893555 99.35718536376953 50.040260314941406 99.23629760742188 46.75716018676758 C 100.48051452636719 46.862823486328125 103.18513488769531 46.28407669067383 104.98297119140625 45.070587158203125 C 105.1055908203125 45.257232666015625 103.62138366699219 46.661624908447266 101.07350158691406 47.04607391357422 C 98.58684539794922 47.21440124511719 98.7628173828125 46.10602951049805 103.30421447753906 45.49269485473633 C 107.0128402709961 41.89890670776367 111.1207275390625 38.972103118896484 115.56879425048828 37.30268859863281 C 118.5663070678711 35.60049057006836 119.9595947265625 33.20708084106445 119.20499420166016 29.74847984313965 C 116.00821685791016 25.19246482849121 111.57291412353516 20.002857208251953 111.4201431274414 30.92095375061035" stroke-width="0.0" fill="rgb(73, 23, 5)" opacity="0.99981093" stroke="rgb(175, 223, 238)" stroke-opacity="0.7521107" stroke-linecap="round" stroke-linejoin="round"/>
    <path d="M 229.50559997558594 70.21211242675781 C 233.52984619140625 70.45349884033203 237.14663696289062 70.63336181640625 239.59066772460938 70.08013153076172 C 240.77828979492188 71.28386688232422 242.30032348632812 74.81133270263672 243.91766357421875 80.74169158935547 C 243.3415069580078 89.7232894897461 242.3699188232422 98.05984497070312 239.6851043701172 102.6102523803711 C 234.6369171142578 100.07144165039062 230.5791473388672 94.93748474121094 228.98223876953125 88.99809265136719 C 229.3170928955078 83.95978546142578 230.1396484375 80.48004150390625 230.78823852539062 78.75640869140625 C 231.18251037597656 78.31195831298828 231.3883819580078 78.55728912353516 231.20114135742188 78.81568908691406 C 230.82070922851562 78.46100616455078 230.62466430664062 77.9615707397461 230.72409057617188 77.83291625976562 C 230.65020751953125 78.41816711425781 230.27366638183594 79.81319427490234 230.05491638183594 81.67262268066406 C 229.94227600097656 83.70769500732422 229.7630615234375 85.62618255615234 229.50323486328125 87.26415252685547 C 228.92628479003906 88.57718658447266 227.98907470703125 89.56055450439453 226.95953369140625 90.18244171142578 C 226.11268615722656 90.58081817626953 225.4275665283203 90.83287811279297 224.95753479003906 90.95917510986328 C 224.83131408691406 90.9554443359375 225.01177978515625 90.76104736328125 225.44956970214844 90.31562042236328 C 226.054443359375 89.65646362304688 226.7164306640625 88.88967895507812 227.25674438476562 88.15119171142578 C 227.52857971191406 87.60932159423828 227.58018493652344 87.21441650390625 227.4686737060547 86.82091522216797 C 227.2614288330078 86.37474060058594 227.01107788085938 85.9653091430664 226.76040649414062 85.68744659423828 C 226.44007873535156 85.62918090820312 225.89663696289062 85.86888122558594 225.01588439941406 86.42882537841797 C 223.73992919921875 87.27816009521484 222.0545196533203 88.32029724121094 220.0581512451172 89.4392318725586 C 217.81507873535156 90.55776977539062 215.45738220214844 91.60183715820312 213.14413452148438 92.52873992919922 C 211.08871459960938 93.39558410644531 209.461669921875 94.01483917236328 208.35342407226562 94.18240356445312 C 207.7593231201172 93.72235107421875 207.74765014648438 92.65866088867188 208.25799560546875 90.96166229248047 C 209.051025390625 88.58837890625 210.0817413330078 85.65074920654297 211.4402618408203 82.67345428466797 C 213.19798278808594 80.39289093017578 215.22100830078125 79.10955047607422 216.48997497558594 78.34965515136719 C 216.04269409179688 77.44430541992188 216.3424835205078 77.33589935302734 217.7371063232422 77.01019287109375 C 220.75897216796875 75.65010070800781 222.35308837890625 72.93157196044922 224.26986694335938 72.4675521850586 C 226.73118591308594 72.52982330322266 228.1683807373047 71.72193908691406 227.70639038085938 70.42131805419922 C 227.32357788085938 70.82545471191406 226.76560974121094 72.03306579589844 226.8622283935547 72.71981811523438 C 227.50936889648438 72.2978744506836 226.82763671875 71.70394134521484 226.42813110351562 71.3497314453125 C 226.0845947265625 72.32533264160156 225.17825317382812 73.760986328125 229.50559997558594 70.21211242675781" stroke-width="0.0" fill="rgb(58, 119, 4)" opacity="0.9997647" stroke="rgb(196, 34, 103)" stroke-opacity="0.9734062" stroke-linecap="round" stroke-linejoin="round"/>
    <path d="M 113.26327514648438 22.460058212280273 C 112.75053405761719 22.201414108276367 113.16427612304688 21.193010330200195 114.09906005859375 18.950166702270508 C 114.31350708007812 16.177122116088867 115.2042236328125 15.76323413848877 118.4219970703125 18.154539108276367 C 123.38801574707031 20.06257438659668 127.36031341552734 20.401268005371094 128.27464294433594 21.941896438598633 C 128.1377716064453 23.538692474365234 127.46039581298828 24.421649932861328 127.11454010009766 24.537038803100586 C 127.52236938476562 24.40840721130371 128.2020721435547 23.625072479248047 128.07420349121094 21.674068450927734 C 126.48020935058594 19.99474334716797 125.08024597167969 19.863370895385742 126.13111877441406 20.9204044342041 C 129.72996520996094 21.734577178955078 133.9571533203125 23.635448455810547 136.62098693847656 22.904991149902344 C 138.46141052246094 19.092866897583008 140.53314208984375 17.476356506347656 142.5182647705078 17.396455764770508 C 141.95411682128906 16.459104537963867 141.91412353515625 16.5684814453125 142.83055114746094 18.122045516967773 C 142.7464141845703 19.764673233032227 142.0198211669922 21.579959869384766 142.31349182128906 22.994522094726562 C 143.05213928222656 22.051855087280273 142.68580627441406 19.383804321289062 143.82989501953125 18.221725463867188 C 148.4264373779297 20.196269989013672 152.6607208251953 21.93100929260254 154.76800537109375 22.92945098876953 C 155.47850036621094 23.063949584960938 156.33775329589844 23.201051712036133 158.09939575195312 23.94109535217285 C 160.25845336914062 23.92280387878418 161.1314239501953 25.2509765625 160.984130859375 28.037851333618164 C 161.48451232910156 30.481115341186523 162.60101318359375 31.557825088500977 164.1092529296875 31.16956329345703 C 165.65577697753906 30.08645248413086 166.70692443847656 28.631338119506836 167.2116241455078 27.31212615966797 C 167.13392639160156 26.525676727294922 166.26101684570312 26.413724899291992 164.9236297607422 27.073518753051758 C 163.87379455566406 28.163265228271484 163.8393096923828 28.717599868774414 165.59027099609375 27.90573501586914 C 169.61795043945312 25.184968948364258 174.58517456054688 22.845699310302734 179.90496826171875 23.574180603027344 C 182.14151000976562 26.265230178833008 178.42391967773438 28.39501953125 174.12330627441406 31.744138717651367 C 171.6804962158203 34.703941345214844 171.00645446777344 37.39377212524414 171.15196228027344 39.43909454345703 C 171.02915954589844 40.61700439453125 170.80027770996094 40.88866424560547 170.68862915039062 40.35884475708008 C 170.78565979003906 39.193885803222656 171.20509338378906 37.621212005615234 171.96514892578125 35.770503997802734 C 172.78958129882812 33.71106719970703 173.23431396484375 31.660938262939453 172.61447143554688 30.063114166259766 C 170.38458251953125 29.16260528564453 167.47067260742188 28.817153930664062 164.40335083007812 29.001386642456055 C 161.41087341308594 30.330047607421875 158.53770446777344 32.457035064697266 155.894775390625 34.85907745361328 C 153.57513427734375 37.18758773803711 151.50311279296875 39.13883972167969 149.55198669433594 40.41090774536133 C 147.64453125 40.835445404052734 145.77291870117188 40.75660705566406 143.9228057861328 40.513519287109375 C 142.10153198242188 40.431121826171875 140.34043884277344 40.77188491821289 138.71563720703125 41.68693923950195 C 137.29739379882812 43.26188278198242 136.15457153320312 45.288944244384766 135.30470275878906 47.47966384887695 C 134.6901397705078 49.5955810546875 134.20350646972656 51.39734649658203 133.66006469726562 52.74296569824219 C 132.86756896972656 53.64956283569336 131.67135620117188 54.36949157714844 129.92576599121094 55.12766647338867 C 127.73661041259766 56.08466339111328 125.41943359375 57.08681869506836 123.3770980834961 57.73191833496094 C 121.95142364501953 57.48682403564453 121.35065460205078 56.27153778076172 121.1537094116211 54.54594039916992 C 120.85194396972656 52.986534118652344 120.39667510986328 51.911598205566406 119.96048736572266 51.493492126464844 C 119.83818817138672 51.57709884643555 120.05282592773438 51.782169342041016 120.5126953125 51.706787109375 C 120.95103454589844 51.49553680419922 120.93061065673828 51.88979721069336 120.30757904052734 53.49245834350586 C 119.0920639038086 56.52058792114258 117.58323669433594 60.111549377441406 115.9930648803711 63.01083755493164 C 114.66425323486328 63.52699279785156 114.11483764648438 61.85263442993164 114.51668548583984 59.1332893371582 C 115.54013061523438 56.81363296508789 116.79306030273438 56.045997619628906 117.98838806152344 57.716949462890625 C 118.76054382324219 61.969451904296875 118.82034301757812 67.41758728027344 117.94766998291016 72.52178955078125 C 116.23249053955078 76.11746215820312 113.85346221923828 78.11967468261719 111.0428695678711 78.62505340576172 C 108.10054779052734 77.93331146240234 105.4941177368164 76.41019439697266 103.6407470703125 74.472900390625 C 102.7401351928711 72.61377716064453 102.37181091308594 70.93122100830078 101.90277099609375 69.37735748291016 C 100.68834686279297 67.96356964111328 98.64968872070312 67.12376403808594 97.57086181640625 65.90325927734375 C 100.00232696533203 63.290931701660156 102.42935943603516 59.86991882324219 103.64421844482422 56.44096755981445 C 105.13031005859375 54.187713623046875 105.94339752197266 52.893455505371094 106.15399169921875 52.5526123046875 C 105.84780883789062 52.877071380615234 105.31884765625 53.544490814208984 104.88263702392578 54.205841064453125 C 104.73863983154297 54.51875305175781 105.0903549194336 54.288429260253906 106.23092651367188 53.51945877075195 C 108.40775299072266 52.32794952392578 111.23172760009766 50.75843048095703 114.35836029052734 48.97159194946289 C 117.49881744384766 47.095947265625 120.41573333740234 45.2040901184082 122.94549560546875 43.39667892456055 C 124.91580963134766 42.036441802978516 126.0462646484375 40.843894958496094 126.27740478515625 39.71800994873047 C 125.75165557861328 38.93498611450195 124.66112518310547 38.78378677368164 123.0655517578125 39.44325256347656 C 121.0317153930664 40.99754333496094 118.61824798583984 42.40812683105469 116.3360366821289 42.96565246582031 C 114.66120910644531 42.52255630493164 113.93817901611328 41.27066421508789 114.20874786376953 39.27902603149414 C 115.07976531982422 36.692813873291016 115.81390380859375 34.06637191772461 115.7289810180664 31.958757400512695 C 114.34864044189453 30.870542526245117 112.47386169433594 30.549251556396484 110.81669616699219 30.048995971679688 C 109.1080322265625 27.73464012145996 107.50324249267578 23.801288604736328 107.1221694946289 21.40163803100586 C 106.87934875488281 21.417091369628906 107.32675170898438 21.982458114624023 108.33173370361328 20.669275283813477 C 111.96646881103516 20.362756729125977 116.25430297851562 20.621789932250977 113.26327514648438 22.460058212280273" stroke-width="0.0" fill="rgb(72, 23, 7)" opacity="0.9998408" stroke="rgb(100, 167, 237)" stroke-opacity="0.66791743" stroke-linecap="round" stroke-linejoin="round"/>
    <path d="M 206.64434814453125 63.77643585205078 C 207.87852478027344 70.05579376220703 208.16783142089844 74.91838073730469 207.86424255371094 77.34053039550781 C 207.7783966064453 75.9613037109375 208.06710815429688 71.45234680175781 208.98355102539062 67.58773803710938 C 210.3760986328125 67.35132598876953 211.50979614257812 71.2647933959961 211.88076782226562 76.51172637939453 C 211.95150756835938 79.85176086425781 213.0899658203125 80.2408447265625 215.6173095703125 79.11495971679688 C 218.89080810546875 78.07137298583984 220.1385498046875 76.56629180908203 219.33763122558594 75.43172454833984 C 217.79266357421875 75.7875747680664 216.0130157470703 78.195556640625 214.60629272460938 81.24666595458984 C 214.4401397705078 84.2527084350586 215.6334228515625 86.82552337646484 217.3934783935547 88.62052154541016 C 219.24771118164062 89.61265563964844 221.18394470214844 89.92607116699219 222.75155639648438 89.99341583251953 C 223.46881103515625 89.6157455444336 223.44076538085938 88.90937805175781 223.06686401367188 88.1324462890625 C 222.66934204101562 87.4537124633789 222.34860229492188 86.92579650878906 222.3104705810547 86.47960662841797 C 222.8116912841797 86.14403533935547 223.75767517089844 85.93949127197266 224.95687866210938 85.85377502441406 C 226.22482299804688 85.9548110961914 227.3408966064453 86.29895782470703 228.06655883789062 86.90225982666016 C 228.214599609375 87.77606964111328 227.7880401611328 88.8747329711914 226.9340362548828 90.08184814453125 C 225.84637451171875 91.28837585449219 224.7246551513672 92.42249298095703 223.7123565673828 93.38335418701172 C 222.86532592773438 94.08849334716797 222.14712524414062 94.52513122558594 221.4914093017578 94.73966979980469 C 220.83810424804688 94.83198547363281 220.11248779296875 94.91230010986328 219.27635192871094 95.0726547241211 C 218.3146209716797 95.32530975341797 217.2789306640625 95.7941665649414 216.24644470214844 96.41828918457031 C 215.24229431152344 97.23643493652344 214.3308868408203 98.0180435180664 213.47621154785156 98.68728637695312 C 212.69906616210938 99.29476928710938 212.03314208984375 99.77814483642578 211.4127960205078 100.11550903320312 C 210.73155212402344 100.22823333740234 209.93434143066406 100.0669174194336 208.9499969482422 99.52497100830078 C 207.68618774414062 98.52249145507812 206.12644958496094 97.07012939453125 204.29232788085938 95.23712921142578 C 202.20762634277344 93.17315673828125 199.96466064453125 91.0283203125 197.70486450195312 88.99310302734375 C 195.6239013671875 87.28591918945312 193.8888702392578 85.97724914550781 192.6894989013672 85.11720275878906 C 192.13156127929688 84.63602447509766 192.25575256347656 84.41638946533203 192.966552734375 84.31143188476562 C 194.03875732421875 84.18109893798828 195.1709747314453 83.94912719726562 196.09295654296875 83.6056900024414 C 196.56361389160156 83.18827819824219 196.59471130371094 82.7120590209961 196.3268585205078 82.13301086425781 C 195.93324279785156 81.43560791015625 195.6295166015625 80.6004409790039 195.6822509765625 79.55245971679688 C 196.22572326660156 78.11125183105469 197.2629852294922 76.11619567871094 198.72865295410156 73.9754409790039 C 200.4583282470703 71.88402557373047 202.03199768066406 69.66807556152344 203.21063232421875 67.3794937133789 C 203.85040283203125 65.17190551757812 204.0950469970703 62.9079475402832 206.64434814453125 63.77643585205078" stroke-width="0.0" fill="rgb(103, 53, 32)" opacity="0.9999351" stroke="rgb(223, 207, 48)" stroke-opacity="0.61998755" stroke-linecap="round" stroke-linejoin="round"/>
  </g>
</svg>
