<?xml version="1.0" ?>
<svg xmlns="http://www.w3.org/2000/svg" version="1.1" width="407" height="320">
  <defs/>
  <g>
    <path d="M 1.0 0.0 C 2.0 0.0 3.0 0.0 4.0 0.0 C 5.0 0.0 6.0 0.0 7.0 0.0 C 8.0 0.0 11.0 0.0 32.0 0.0 C 53.0 0.0 74.0 0.0 95.0 0.0 C 116.0 0.0 133.0 6.0 154.0 0.0 C 175.0 0.0 196.0 0.0 217.0 0.0 C 238.0 0.0 259.0 0.0 273.0 2.0 C 252.0 8.0 251.0 16.0 272.0 12.0 C 285.0 17.0 269.0 21.0 253.0 32.0 C 233.0 43.0 235.0 22.0 226.0 39.0 C 224.0 34.0 210.0 27.0 190.0 20.0 C 171.0 26.0 176.0 17.0 185.0 9.0 C 164.0 18.0 143.0 24.0 123.0 22.0 C 106.0 26.0 104.0 47.0 84.0 50.0 C 88.0 58.0 86.0 77.0 65.0 80.0 C 56.0 83.0 43.0 92.0 34.0 90.0 C 32.0 111.0 28.0 130.0 39.0 119.0 C 47.0 122.0 68.0 121.0 85.0 108.0 C 70.0 126.0 52.0 138.0 50.0 159.0 C 58.0 143.0 65.0 152.0 72.0 155.0 C 74.0 140.0 83.0 120.0 90.0 133.0 C 95.0 150.0 112.0 154.0 133.0 142.0 C 154.0 126.0 169.0 122.0 172.0 130.0 C 180.0 123.0 191.0 107.0 200.0 89.0 C 207.0 107.0 196.0 126.0 196.0 131.0 C 200.0 149.0 216.0 143.0 216.0 122.0 C 219.0 134.0 227.0 148.0 229.0 138.0 C 230.0 133.0 218.0 112.0 206.0 91.0 C 218.0 87.0 234.0 100.0 240.0 97.0 C 238.0 77.0 239.0 71.0 234.0 65.0 C 239.0 44.0 257.0 41.0 267.0 62.0 C 267.0 81.0 265.0 101.0 277.0 106.0 C 277.0 85.0 281.0 68.0 274.0 67.0 C 281.0 46.0 295.0 63.0 302.0 84.0 C 316.0 102.0 335.0 114.0 348.0 119.0 C 364.0 109.0 377.0 103.0 382.0 85.0 C 365.0 81.0 349.0 64.0 330.0 66.0 C 316.0 50.0 304.0 39.0 289.0 22.0 C 291.0 7.0 301.0 5.0 310.0 0.0 C 331.0 0.0 352.0 0.0 373.0 0.0 C 394.0 0.0 406.0 9.0 406.0 30.0 C 406.0 51.0 406.0 72.0 406.0 93.0 C 403.0 112.0 402.0 133.0 401.0 154.0 C 399.0 175.0 386.0 192.0 371.0 212.0 C 389.0 206.0 400.0 187.0 406.0 192.0 C 403.0 213.0 406.0 231.0 406.0 252.0 C 390.0 265.0 381.0 283.0 394.0 277.0 C 406.0 267.0 406.0 288.0 406.0 309.0 C 395.0 319.0 374.0 319.0 353.0 319.0 C 332.0 319.0 311.0 319.0 290.0 319.0 C 269.0 319.0 248.0 319.0 227.0 319.0 C 206.0 319.0 185.0 319.0 164.0 319.0 C 143.0 319.0 122.0 319.0 101.0 319.0 C 80.0 319.0 59.0 319.0 38.0 319.0 C 17.0 319.0 0.0 315.0 0.0 294.0 C 0.0 273.0 0.0 252.0 0.0 231.0 C 0.0 210.0 0.0 189.0 0.0 168.0 C 0.0 147.0 0.0 126.0 0.0 105.0 C 0.0 84.0 0.0 63.0 0.0 42.0 C 0.0 21.0 0.0 0.0 1.0 0.0" stroke-width="0.0" fill="rgb(48, 59, 61)" opacity="1.0" stroke="rgb(159, 249, 174)" stroke-opacity="0.72985315" stroke-linecap="round" stroke-linejoin="round"/>
    <path d="M 95.0 236.0 C 96.0 236.0 97.0 236.0 97.0 237.0 C 98.0 238.0 99.0 238.0 100.0 238.0 C 101.0 238.0 102.0 238.0 103.0 239.0 C 104.0 239.0 105.0 239.0 106.0 239.0 C 107.0 238.0 108.0 238.0 109.0 238.0 C 110.0 237.0 111.0 237.0 112.0 237.0 C 113.0 237.0 114.0 237.0 115.0 237.0 C 116.0 237.0 117.0 237.0 118.0 237.0 C 119.0 237.0 120.0 237.0 121.0 237.0 C 122.0 236.0 123.0 236.0 124.0 236.0 C 124.0 237.0 124.0 238.0 124.0 239.0 C 123.0 240.0 122.0 240.0 121.0 242.0 C 121.0 244.0 123.0 245.0 125.0 245.0 C 127.0 245.0 129.0 245.0 131.0 245.0 C 133.0 245.0 135.0 245.0 137.0 245.0 C 139.0 246.0 141.0 246.0 143.0 246.0 C 145.0 247.0 147.0 247.0 149.0 247.0 C 151.0 247.0 153.0 247.0 155.0 247.0 C 157.0 247.0 159.0 246.0 161.0 246.0 C 163.0 246.0 164.0 247.0 165.0 249.0 C 167.0 249.0 169.0 249.0 171.0 249.0 C 173.0 250.0 175.0 250.0 177.0 250.0 C 179.0 249.0 181.0 249.0 183.0 250.0 C 185.0 250.0 187.0 251.0 189.0 250.0 C 191.0 250.0 193.0 250.0 195.0 250.0 C 197.0 250.0 199.0 250.0 200.0 251.0 C 199.0 253.0 201.0 254.0 203.0 254.0 C 205.0 255.0 207.0 255.0 209.0 255.0 C 211.0 255.0 213.0 255.0 215.0 255.0 C 217.0 255.0 219.0 255.0 221.0 255.0 C 221.0 257.0 219.0 257.0 217.0 257.0 C 215.0 257.0 213.0 258.0 211.0 258.0 C 209.0 260.0 207.0 262.0 205.0 264.0 C 204.0 266.0 203.0 268.0 202.0 270.0 C 200.0 272.0 199.0 274.0 198.0 276.0 C 196.0 276.0 194.0 276.0 192.0 276.0 C 190.0 277.0 188.0 277.0 186.0 276.0 C 184.0 276.0 182.0 276.0 180.0 275.0 C 178.0 275.0 176.0 275.0 174.0 274.0 C 172.0 275.0 170.0 274.0 168.0 274.0 C 166.0 274.0 165.0 273.0 166.0 272.0 C 168.0 272.0 170.0 270.0 168.0 269.0 C 166.0 268.0 164.0 268.0 162.0 268.0 C 160.0 268.0 158.0 267.0 156.0 267.0 C 154.0 267.0 152.0 266.0 150.0 266.0 C 148.0 266.0 146.0 266.0 144.0 266.0 C 142.0 266.0 140.0 265.0 138.0 265.0 C 136.0 265.0 134.0 264.0 132.0 263.0 C 130.0 263.0 128.0 262.0 126.0 261.0 C 124.0 260.0 122.0 259.0 120.0 258.0 C 120.0 256.0 122.0 256.0 122.0 254.0 C 120.0 252.0 118.0 253.0 116.0 253.0 C 115.0 255.0 114.0 257.0 113.0 259.0 C 112.0 260.0 110.0 260.0 108.0 259.0 C 106.0 259.0 105.0 258.0 103.0 257.0 C 101.0 257.0 99.0 257.0 97.0 256.0 C 96.0 255.0 96.0 253.0 96.0 251.0 C 94.0 250.0 94.0 248.0 95.0 246.0 C 95.0 244.0 94.0 242.0 94.0 240.0 C 94.0 238.0 94.0 236.0 95.0 236.0" stroke-width="0.0" fill="rgb(74, 41, 44)" opacity="1.0" stroke="rgb(100, 74, 89)" stroke-opacity="0.7269224" stroke-linecap="round" stroke-linejoin="round"/>
    <path d="M 116.0 66.0 C 117.0 66.0 118.0 67.0 119.0 68.0 C 120.0 69.0 121.0 70.0 121.0 71.0 C 122.0 72.0 123.0 73.0 124.0 74.0 C 125.0 75.0 125.0 76.0 126.0 77.0 C 126.0 78.0 126.0 79.0 126.0 80.0 C 127.0 81.0 127.0 82.0 128.0 83.0 C 129.0 84.0 130.0 85.0 130.0 86.0 C 131.0 87.0 132.0 88.0 132.0 89.0 C 133.0 90.0 134.0 91.0 135.0 92.0 C 135.0 93.0 136.0 94.0 137.0 95.0 C 138.0 96.0 139.0 97.0 140.0 96.0 C 141.0 95.0 142.0 95.0 143.0 95.0 C 143.0 96.0 144.0 97.0 144.0 98.0 C 145.0 99.0 146.0 99.0 147.0 98.0 C 148.0 97.0 149.0 96.0 149.0 95.0 C 150.0 94.0 151.0 93.0 152.0 92.0 C 153.0 91.0 153.0 90.0 154.0 89.0 C 155.0 89.0 156.0 89.0 157.0 90.0 C 158.0 91.0 159.0 92.0 160.0 93.0 C 161.0 94.0 162.0 95.0 163.0 95.0 C 164.0 96.0 164.0 97.0 164.0 98.0 C 164.0 99.0 163.0 100.0 162.0 101.0 C 162.0 102.0 161.0 103.0 160.0 103.0 C 159.0 104.0 159.0 105.0 158.0 105.0 C 157.0 106.0 156.0 107.0 155.0 108.0 C 154.0 109.0 153.0 110.0 152.0 111.0 C 151.0 111.0 150.0 112.0 149.0 113.0 C 148.0 113.0 147.0 114.0 146.0 115.0 C 145.0 116.0 144.0 117.0 143.0 118.0 C 142.0 119.0 141.0 120.0 140.0 121.0 C 139.0 122.0 138.0 123.0 137.0 124.0 C 136.0 125.0 135.0 126.0 134.0 127.0 C 133.0 128.0 132.0 128.0 131.0 129.0 C 130.0 130.0 129.0 131.0 128.0 132.0 C 127.0 133.0 126.0 134.0 125.0 134.0 C 124.0 135.0 123.0 136.0 122.0 137.0 C 121.0 137.0 120.0 138.0 119.0 139.0 C 118.0 140.0 117.0 141.0 116.0 142.0 C 115.0 142.0 114.0 143.0 113.0 144.0 C 112.0 145.0 111.0 145.0 110.0 146.0 C 109.0 147.0 108.0 147.0 107.0 147.0 C 106.0 146.0 105.0 147.0 105.0 148.0 C 105.0 149.0 104.0 149.0 103.0 150.0 C 102.0 150.0 101.0 150.0 100.0 149.0 C 99.0 149.0 99.0 148.0 98.0 146.0 C 96.0 144.0 94.0 142.0 93.0 140.0 C 94.0 138.0 94.0 136.0 93.0 134.0 C 91.0 133.0 90.0 131.0 91.0 129.0 C 92.0 128.0 94.0 126.0 96.0 124.0 C 98.0 123.0 100.0 123.0 102.0 123.0 C 104.0 122.0 106.0 120.0 106.0 118.0 C 107.0 116.0 108.0 114.0 109.0 112.0 C 110.0 110.0 110.0 108.0 111.0 106.0 C 112.0 104.0 112.0 102.0 112.0 100.0 C 112.0 98.0 111.0 96.0 111.0 94.0 C 112.0 92.0 112.0 90.0 113.0 88.0 C 114.0 86.0 114.0 84.0 115.0 82.0 C 116.0 80.0 116.0 78.0 116.0 76.0 C 115.0 74.0 115.0 72.0 115.0 70.0 C 115.0 68.0 115.0 66.0 116.0 66.0" stroke-width="0.0" fill="rgb(29, 128, 140)" opacity="1.0" stroke="rgb(92, 30, 34)" stroke-opacity="0.034084108" stroke-linecap="round" stroke-linejoin="round"/>
    <path d="M 118.0 22.0 C 119.0 22.0 120.0 22.0 121.0 22.0 C 122.0 22.0 123.0 23.0 124.0 23.0 C 125.0 23.0 126.0 23.0 127.0 23.0 C 128.0 23.0 129.0 23.0 130.0 23.0 C 131.0 24.0 132.0 24.0 133.0 24.0 C 134.0 24.0 135.0 24.0 136.0 23.0 C 137.0 23.0 138.0 23.0 138.0 24.0 C 139.0 25.0 140.0 25.0 141.0 25.0 C 142.0 25.0 143.0 25.0 144.0 24.0 C 145.0 24.0 146.0 24.0 147.0 24.0 C 148.0 25.0 149.0 25.0 150.0 25.0 C 151.0 25.0 152.0 26.0 153.0 27.0 C 154.0 26.0 155.0 26.0 156.0 26.0 C 157.0 26.0 158.0 26.0 159.0 25.0 C 160.0 25.0 161.0 24.0 162.0 24.0 C 163.0 24.0 163.0 25.0 164.0 26.0 C 165.0 27.0 166.0 27.0 167.0 27.0 C 168.0 27.0 169.0 27.0 170.0 27.0 C 171.0 27.0 172.0 27.0 173.0 27.0 C 174.0 27.0 175.0 26.0 176.0 26.0 C 177.0 26.0 177.0 27.0 178.0 28.0 C 179.0 28.0 180.0 28.0 180.0 29.0 C 180.0 30.0 179.0 30.0 178.0 30.0 C 177.0 31.0 176.0 31.0 175.0 31.0 C 174.0 31.0 173.0 32.0 172.0 32.0 C 171.0 32.0 170.0 33.0 169.0 33.0 C 168.0 33.0 167.0 34.0 166.0 34.0 C 165.0 34.0 164.0 35.0 163.0 35.0 C 162.0 35.0 161.0 36.0 160.0 36.0 C 159.0 36.0 157.0 37.0 154.0 38.0 C 151.0 39.0 148.0 40.0 145.0 42.0 C 148.0 43.0 151.0 42.0 154.0 41.0 C 157.0 40.0 160.0 40.0 163.0 39.0 C 166.0 38.0 169.0 37.0 172.0 36.0 C 175.0 35.0 178.0 34.0 181.0 34.0 C 183.0 37.0 185.0 40.0 184.0 42.0 C 181.0 44.0 178.0 46.0 175.0 45.0 C 172.0 45.0 169.0 46.0 166.0 47.0 C 163.0 50.0 161.0 53.0 161.0 56.0 C 162.0 59.0 162.0 62.0 159.0 64.0 C 156.0 64.0 153.0 64.0 150.0 61.0 C 149.0 59.0 149.0 56.0 149.0 53.0 C 147.0 50.0 144.0 48.0 141.0 46.0 C 138.0 46.0 135.0 47.0 132.0 49.0 C 130.0 52.0 130.0 55.0 130.0 58.0 C 130.0 61.0 127.0 64.0 124.0 66.0 C 121.0 67.0 118.0 66.0 115.0 65.0 C 113.0 64.0 111.0 67.0 108.0 68.0 C 105.0 69.0 102.0 70.0 99.0 71.0 C 96.0 72.0 93.0 73.0 92.0 71.0 C 94.0 68.0 94.0 65.0 93.0 62.0 C 91.0 59.0 88.0 57.0 85.0 55.0 C 82.0 53.0 79.0 51.0 80.0 49.0 C 83.0 50.0 86.0 52.0 89.0 53.0 C 92.0 54.0 95.0 53.0 98.0 53.0 C 101.0 51.0 103.0 49.0 106.0 46.0 C 107.0 43.0 108.0 40.0 108.0 37.0 C 108.0 34.0 108.0 31.0 108.0 28.0 C 107.0 25.0 108.0 23.0 111.0 23.0 C 114.0 23.0 117.0 22.0 118.0 22.0" stroke-width="0.0" fill="rgb(178, 126, 135)" opacity="1.0" stroke="rgb(55, 145, 74)" stroke-opacity="0.20637196" stroke-linecap="round" stroke-linejoin="round"/>
    <path d="M 283.0 136.0 C 284.0 136.0 285.0 137.0 286.0 138.0 C 287.0 139.0 287.0 140.0 287.0 141.0 C 287.0 142.0 286.0 142.0 285.0 143.0 C 284.0 144.0 285.0 145.0 286.0 145.0 C 287.0 145.0 288.0 144.0 289.0 144.0 C 290.0 144.0 290.0 145.0 290.0 146.0 C 290.0 147.0 291.0 148.0 292.0 148.0 C 293.0 148.0 293.0 149.0 294.0 150.0 C 295.0 150.0 295.0 151.0 295.0 152.0 C 295.0 153.0 295.0 154.0 295.0 155.0 C 295.0 156.0 295.0 157.0 294.0 157.0 C 293.0 158.0 293.0 159.0 293.0 160.0 C 293.0 161.0 292.0 162.0 293.0 163.0 C 294.0 163.0 295.0 163.0 296.0 163.0 C 296.0 164.0 296.0 165.0 296.0 166.0 C 295.0 167.0 294.0 167.0 293.0 167.0 C 292.0 167.0 291.0 167.0 290.0 167.0 C 289.0 167.0 289.0 166.0 289.0 165.0 C 288.0 164.0 287.0 164.0 286.0 163.0 C 286.0 162.0 285.0 161.0 285.0 160.0 C 284.0 159.0 283.0 160.0 283.0 161.0 C 282.0 161.0 281.0 162.0 281.0 163.0 C 282.0 164.0 283.0 165.0 283.0 166.0 C 283.0 167.0 284.0 168.0 285.0 168.0 C 285.0 169.0 286.0 170.0 287.0 170.0 C 288.0 170.0 288.0 171.0 287.0 171.0 C 286.0 171.0 285.0 171.0 284.0 171.0 C 283.0 171.0 282.0 171.0 281.0 171.0 C 280.0 172.0 279.0 172.0 279.0 171.0 C 279.0 170.0 279.0 169.0 279.0 168.0 C 279.0 167.0 279.0 166.0 279.0 165.0 C 278.0 164.0 277.0 164.0 277.0 163.0 C 277.0 162.0 277.0 161.0 277.0 160.0 C 276.0 159.0 275.0 159.0 274.0 158.0 C 273.0 159.0 273.0 158.0 272.0 157.0 C 271.0 157.0 271.0 156.0 271.0 155.0 C 270.0 154.0 269.0 154.0 268.0 153.0 C 269.0 153.0 270.0 154.0 271.0 153.0 C 271.0 152.0 271.0 151.0 272.0 151.0 C 273.0 151.0 274.0 151.0 275.0 151.0 C 275.0 152.0 275.0 153.0 275.0 154.0 C 276.0 155.0 277.0 154.0 277.0 153.0 C 278.0 153.0 279.0 153.0 280.0 152.0 C 279.0 151.0 279.0 150.0 279.0 149.0 C 279.0 148.0 280.0 147.0 280.0 146.0 C 280.0 145.0 280.0 144.0 281.0 144.0 C 282.0 143.0 282.0 142.0 281.0 141.0 C 280.0 141.0 279.0 141.0 279.0 140.0 C 279.0 139.0 280.0 138.0 280.0 137.0 C 281.0 137.0 282.0 136.0 283.0 136.0" stroke-width="0.0" fill="rgb(69, 37, 52)" opacity="1.0" stroke="rgb(164, 200, 70)" stroke-opacity="0.99872273" stroke-linecap="round" stroke-linejoin="round"/>
    <path d="M 296.0 36.0 C 297.0 36.0 298.0 36.0 299.0 36.0 C 300.0 36.0 301.0 37.0 302.0 38.0 C 303.0 38.0 303.0 39.0 304.0 40.0 C 305.0 40.0 306.0 40.0 307.0 40.0 C 308.0 40.0 309.0 40.0 310.0 40.0 C 311.0 41.0 312.0 42.0 313.0 42.0 C 314.0 42.0 315.0 42.0 315.0 43.0 C 315.0 44.0 315.0 45.0 315.0 46.0 C 315.0 47.0 315.0 48.0 315.0 49.0 C 314.0 49.0 313.0 49.0 312.0 50.0 C 311.0 50.0 310.0 51.0 309.0 52.0 C 309.0 53.0 308.0 54.0 307.0 55.0 C 307.0 56.0 307.0 57.0 306.0 58.0 C 306.0 59.0 307.0 60.0 308.0 60.0 C 309.0 60.0 310.0 60.0 311.0 60.0 C 312.0 60.0 313.0 60.0 314.0 59.0 C 315.0 59.0 316.0 59.0 317.0 59.0 C 318.0 59.0 319.0 60.0 319.0 61.0 C 320.0 62.0 321.0 63.0 322.0 64.0 C 323.0 64.0 323.0 65.0 323.0 66.0 C 322.0 66.0 321.0 67.0 320.0 67.0 C 319.0 67.0 318.0 67.0 317.0 67.0 C 316.0 67.0 315.0 66.0 314.0 66.0 C 313.0 66.0 312.0 66.0 311.0 66.0 C 310.0 66.0 310.0 65.0 309.0 64.0 C 308.0 64.0 307.0 64.0 306.0 64.0 C 306.0 63.0 305.0 62.0 304.0 63.0 C 303.0 63.0 302.0 64.0 301.0 65.0 C 300.0 65.0 299.0 65.0 299.0 64.0 C 299.0 63.0 300.0 62.0 299.0 61.0 C 298.0 61.0 297.0 60.0 296.0 60.0 C 295.0 60.0 295.0 59.0 294.0 58.0 C 293.0 58.0 292.0 58.0 291.0 57.0 C 291.0 56.0 290.0 55.0 290.0 54.0 C 289.0 53.0 289.0 52.0 288.0 51.0 C 288.0 50.0 287.0 49.0 286.0 48.0 C 286.0 47.0 285.0 46.0 285.0 45.0 C 284.0 44.0 283.0 44.0 282.0 44.0 C 281.0 45.0 280.0 46.0 279.0 47.0 C 279.0 48.0 278.0 49.0 278.0 50.0 C 278.0 51.0 277.0 51.0 276.0 51.0 C 275.0 52.0 274.0 53.0 273.0 53.0 C 272.0 53.0 271.0 53.0 270.0 53.0 C 270.0 52.0 269.0 51.0 268.0 51.0 C 267.0 51.0 267.0 50.0 267.0 49.0 C 266.0 48.0 265.0 49.0 264.0 49.0 C 263.0 49.0 262.0 49.0 262.0 48.0 C 261.0 47.0 261.0 46.0 260.0 45.0 C 260.0 44.0 260.0 43.0 260.0 42.0 C 261.0 42.0 262.0 42.0 263.0 42.0 C 264.0 41.0 265.0 41.0 266.0 41.0 C 267.0 41.0 268.0 41.0 269.0 41.0 C 270.0 40.0 271.0 40.0 272.0 40.0 C 273.0 40.0 274.0 40.0 275.0 40.0 C 276.0 40.0 277.0 39.0 278.0 39.0 C 279.0 39.0 280.0 39.0 281.0 39.0 C 282.0 38.0 283.0 38.0 284.0 38.0 C 285.0 38.0 286.0 38.0 287.0 38.0 C 288.0 37.0 289.0 37.0 291.0 37.0 C 293.0 37.0 295.0 36.0 296.0 36.0" stroke-width="0.0" fill="rgb(175, 121, 139)" opacity="1.0" stroke="rgb(172, 211, 123)" stroke-opacity="0.6720904" stroke-linecap="round" stroke-linejoin="round"/>
    <path d="M 293.0 244.0 C 294.0 244.0 294.0 245.0 295.0 246.0 C 296.0 245.0 296.0 244.0 297.0 244.0 C 298.0 244.0 299.0 244.0 300.0 244.0 C 301.0 244.0 302.0 244.0 303.0 244.0 C 304.0 244.0 305.0 244.0 306.0 244.0 C 307.0 244.0 308.0 244.0 309.0 244.0 C 310.0 244.0 311.0 244.0 312.0 244.0 C 313.0 244.0 314.0 244.0 315.0 244.0 C 316.0 244.0 317.0 244.0 318.0 244.0 C 319.0 244.0 320.0 244.0 321.0 245.0 C 322.0 245.0 323.0 245.0 324.0 245.0 C 325.0 244.0 326.0 244.0 327.0 244.0 C 328.0 244.0 328.0 245.0 328.0 246.0 C 327.0 246.0 326.0 246.0 325.0 247.0 C 324.0 247.0 323.0 247.0 322.0 248.0 C 321.0 248.0 320.0 248.0 319.0 248.0 C 318.0 248.0 317.0 249.0 316.0 250.0 C 316.0 251.0 316.0 252.0 316.0 253.0 C 315.0 253.0 314.0 253.0 313.0 253.0 C 312.0 253.0 311.0 254.0 311.0 255.0 C 311.0 256.0 310.0 256.0 309.0 256.0 C 308.0 255.0 307.0 255.0 306.0 255.0 C 305.0 256.0 305.0 257.0 304.0 258.0 C 303.0 258.0 302.0 259.0 302.0 260.0 C 301.0 260.0 300.0 261.0 299.0 261.0 C 298.0 261.0 297.0 261.0 296.0 261.0 C 295.0 262.0 294.0 262.0 293.0 262.0 C 292.0 262.0 291.0 263.0 291.0 264.0 C 290.0 265.0 290.0 266.0 289.0 266.0 C 288.0 266.0 287.0 266.0 286.0 266.0 C 285.0 266.0 284.0 266.0 283.0 266.0 C 282.0 267.0 282.0 268.0 281.0 269.0 C 280.0 269.0 279.0 269.0 278.0 269.0 C 278.0 268.0 278.0 267.0 277.0 266.0 C 276.0 266.0 275.0 266.0 274.0 266.0 C 273.0 266.0 272.0 266.0 271.0 266.0 C 270.0 266.0 269.0 267.0 268.0 267.0 C 267.0 267.0 266.0 267.0 265.0 267.0 C 264.0 266.0 263.0 266.0 263.0 265.0 C 263.0 264.0 262.0 263.0 261.0 263.0 C 260.0 263.0 259.0 263.0 259.0 262.0 C 259.0 261.0 260.0 261.0 261.0 261.0 C 262.0 261.0 263.0 262.0 264.0 261.0 C 264.0 260.0 264.0 259.0 265.0 259.0 C 266.0 259.0 267.0 259.0 268.0 259.0 C 269.0 259.0 270.0 258.0 271.0 258.0 C 272.0 258.0 273.0 257.0 273.0 256.0 C 273.0 255.0 274.0 255.0 275.0 255.0 C 276.0 256.0 277.0 255.0 278.0 254.0 C 278.0 253.0 278.0 252.0 279.0 252.0 C 280.0 252.0 281.0 252.0 282.0 253.0 C 283.0 253.0 284.0 253.0 285.0 253.0 C 286.0 252.0 287.0 252.0 288.0 251.0 C 287.0 250.0 287.0 249.0 287.0 248.0 C 287.0 247.0 287.0 246.0 288.0 246.0 C 289.0 246.0 289.0 247.0 289.0 248.0 C 289.0 249.0 290.0 250.0 291.0 249.0 C 292.0 248.0 291.0 247.0 291.0 246.0 C 291.0 245.0 292.0 244.0 293.0 244.0" stroke-width="0.0" fill="rgb(200, 158, 92)" opacity="1.0" stroke="rgb(63, 153, 9)" stroke-opacity="0.12906928" stroke-linecap="round" stroke-linejoin="round"/>
    <path d="M 248.0 286.0 C 249.0 286.0 250.0 287.0 251.0 287.0 C 251.0 288.0 251.0 289.0 250.0 290.0 C 250.0 291.0 250.0 292.0 249.0 293.0 C 248.0 293.0 247.0 293.0 246.0 293.0 C 245.0 293.0 244.0 294.0 245.0 295.0 C 246.0 295.0 247.0 295.0 248.0 295.0 C 249.0 295.0 250.0 295.0 251.0 295.0 C 252.0 295.0 253.0 295.0 254.0 294.0 C 255.0 293.0 256.0 293.0 257.0 293.0 C 258.0 293.0 259.0 293.0 260.0 293.0 C 261.0 293.0 262.0 293.0 263.0 293.0 C 264.0 294.0 265.0 294.0 266.0 294.0 C 267.0 294.0 268.0 294.0 269.0 294.0 C 270.0 294.0 271.0 294.0 273.0 294.0 C 276.0 295.0 279.0 296.0 282.0 297.0 C 285.0 298.0 288.0 300.0 291.0 301.0 C 294.0 301.0 297.0 301.0 300.0 301.0 C 303.0 301.0 303.0 304.0 300.0 306.0 C 297.0 305.0 294.0 306.0 291.0 305.0 C 289.0 303.0 287.0 304.0 287.0 307.0 C 285.0 308.0 282.0 309.0 279.0 310.0 C 276.0 310.0 274.0 312.0 272.0 313.0 C 269.0 314.0 266.0 313.0 264.0 311.0 C 261.0 311.0 260.0 314.0 260.0 317.0 C 257.0 317.0 254.0 317.0 251.0 318.0 C 248.0 319.0 245.0 319.0 242.0 319.0 C 239.0 319.0 236.0 319.0 233.0 319.0 C 230.0 319.0 227.0 319.0 224.0 319.0 C 221.0 319.0 218.0 319.0 215.0 319.0 C 212.0 319.0 209.0 319.0 206.0 319.0 C 203.0 318.0 200.0 318.0 197.0 319.0 C 197.0 318.0 199.0 315.0 200.0 312.0 C 197.0 311.0 194.0 312.0 191.0 313.0 C 192.0 310.0 192.0 307.0 189.0 308.0 C 186.0 310.0 184.0 309.0 182.0 307.0 C 182.0 304.0 184.0 301.0 184.0 298.0 C 181.0 299.0 178.0 302.0 175.0 304.0 C 173.0 306.0 172.0 308.0 170.0 306.0 C 167.0 307.0 166.0 305.0 169.0 302.0 C 171.0 299.0 169.0 297.0 166.0 298.0 C 163.0 300.0 160.0 301.0 161.0 298.0 C 162.0 295.0 164.0 293.0 167.0 292.0 C 169.0 289.0 171.0 287.0 174.0 287.0 C 177.0 288.0 180.0 288.0 183.0 289.0 C 186.0 289.0 189.0 289.0 191.0 290.0 C 193.0 292.0 196.0 292.0 198.0 289.0 C 201.0 289.0 204.0 290.0 205.0 293.0 C 208.0 293.0 211.0 293.0 213.0 291.0 C 216.0 292.0 219.0 293.0 221.0 294.0 C 224.0 294.0 227.0 294.0 226.0 296.0 C 223.0 297.0 220.0 297.0 217.0 297.0 C 214.0 297.0 211.0 298.0 210.0 300.0 C 213.0 301.0 215.0 302.0 213.0 303.0 C 211.0 305.0 214.0 306.0 217.0 307.0 C 220.0 307.0 223.0 308.0 226.0 308.0 C 229.0 308.0 232.0 308.0 233.0 305.0 C 230.0 303.0 227.0 303.0 228.0 301.0 C 231.0 301.0 234.0 300.0 237.0 299.0 C 240.0 296.0 242.0 293.0 243.0 290.0 C 246.0 289.0 247.0 286.0 248.0 286.0" stroke-width="0.0" fill="rgb(17, 167, 179)" opacity="1.0" stroke="rgb(222, 77, 142)" stroke-opacity="0.62337583" stroke-linecap="round" stroke-linejoin="round"/>
    <path d="M 130.0 0.0 C 136.0 0.0 146.0 0.0 156.0 0.0 C 166.0 0.0 176.0 0.0 186.0 0.0 C 196.0 0.0 206.0 0.0 216.0 0.0 C 226.0 0.0 236.0 0.0 246.0 0.0 C 256.0 0.0 266.0 0.0 276.0 0.0 C 286.0 0.0 296.0 0.0 306.0 0.0 C 316.0 0.0 326.0 0.0 336.0 0.0 C 346.0 0.0 355.0 0.0 355.0 6.0 C 346.0 12.0 336.0 11.0 328.0 14.0 C 318.0 22.0 308.0 24.0 298.0 23.0 C 288.0 17.0 279.0 15.0 270.0 19.0 C 264.0 23.0 257.0 30.0 250.0 24.0 C 244.0 14.0 236.0 13.0 237.0 21.0 C 236.0 31.0 235.0 41.0 236.0 49.0 C 236.0 59.0 235.0 69.0 239.0 72.0 C 239.0 82.0 239.0 92.0 240.0 102.0 C 241.0 108.0 233.0 100.0 227.0 92.0 C 217.0 89.0 207.0 85.0 206.0 92.0 C 212.0 102.0 218.0 112.0 223.0 122.0 C 229.0 132.0 235.0 142.0 241.0 152.0 C 247.0 162.0 250.0 171.0 245.0 178.0 C 245.0 188.0 244.0 198.0 246.0 207.0 C 240.0 212.0 230.0 212.0 220.0 212.0 C 220.0 202.0 228.0 200.0 238.0 200.0 C 241.0 193.0 241.0 183.0 241.0 173.0 C 239.0 166.0 229.0 166.0 219.0 166.0 C 209.0 166.0 199.0 166.0 189.0 166.0 C 179.0 166.0 186.0 161.0 196.0 162.0 C 206.0 161.0 216.0 162.0 226.0 162.0 C 236.0 163.0 234.0 154.0 227.0 157.0 C 230.0 152.0 224.0 150.0 214.0 150.0 C 207.0 154.0 210.0 152.0 216.0 156.0 C 208.0 159.0 199.0 157.0 201.0 152.0 C 199.0 150.0 189.0 150.0 192.0 146.0 C 188.0 142.0 192.0 132.0 194.0 130.0 C 201.0 131.0 201.0 129.0 197.0 124.0 C 197.0 114.0 201.0 110.0 207.0 108.0 C 203.0 98.0 197.0 96.0 191.0 106.0 C 186.0 116.0 181.0 126.0 176.0 136.0 C 170.0 146.0 165.0 156.0 159.0 166.0 C 153.0 173.0 156.0 164.0 161.0 154.0 C 164.0 144.0 159.0 141.0 158.0 151.0 C 156.0 157.0 154.0 153.0 149.0 155.0 C 145.0 146.0 142.0 140.0 142.0 150.0 C 139.0 157.0 134.0 160.0 129.0 170.0 C 125.0 179.0 122.0 170.0 119.0 162.0 C 116.0 172.0 111.0 175.0 109.0 165.0 C 106.0 155.0 101.0 160.0 97.0 150.0 C 106.0 148.0 116.0 143.0 126.0 134.0 C 136.0 126.0 145.0 117.0 155.0 109.0 C 163.0 101.0 159.0 92.0 150.0 94.0 C 142.0 94.0 134.0 90.0 127.0 80.0 C 121.0 70.0 129.0 63.0 131.0 53.0 C 139.0 47.0 148.0 53.0 150.0 62.0 C 160.0 65.0 162.0 55.0 169.0 47.0 C 179.0 47.0 185.0 39.0 177.0 34.0 C 168.0 35.0 177.0 32.0 178.0 26.0 C 168.0 26.0 159.0 24.0 149.0 24.0 C 139.0 24.0 130.0 22.0 123.0 19.0 C 130.0 10.0 129.0 0.0 130.0 0.0" stroke-width="0.0" fill="rgb(206, 166, 96)" opacity="1.0" stroke="rgb(182, 244, 16)" stroke-opacity="0.088317305" stroke-linecap="round" stroke-linejoin="round"/>
    <path d="M 346.0 74.0 C 347.0 74.0 348.0 74.0 349.0 74.0 C 350.0 74.0 350.0 75.0 350.0 76.0 C 349.0 77.0 348.0 78.0 347.0 79.0 C 347.0 80.0 346.0 81.0 346.0 82.0 C 345.0 83.0 344.0 84.0 344.0 85.0 C 343.0 86.0 342.0 87.0 342.0 88.0 C 341.0 89.0 341.0 90.0 340.0 90.0 C 339.0 91.0 338.0 91.0 337.0 91.0 C 337.0 90.0 337.0 89.0 337.0 88.0 C 336.0 87.0 335.0 86.0 334.0 85.0 C 333.0 85.0 332.0 85.0 331.0 85.0 C 330.0 86.0 329.0 86.0 328.0 87.0 C 327.0 88.0 327.0 89.0 326.0 90.0 C 325.0 91.0 325.0 92.0 325.0 93.0 C 325.0 94.0 326.0 95.0 327.0 95.0 C 328.0 95.0 330.0 95.0 332.0 95.0 C 334.0 94.0 336.0 94.0 338.0 94.0 C 340.0 94.0 342.0 94.0 344.0 93.0 C 346.0 93.0 348.0 93.0 350.0 93.0 C 352.0 93.0 354.0 93.0 356.0 93.0 C 358.0 92.0 360.0 92.0 362.0 92.0 C 364.0 92.0 366.0 92.0 368.0 92.0 C 370.0 91.0 372.0 90.0 370.0 89.0 C 368.0 88.0 366.0 88.0 364.0 88.0 C 362.0 88.0 360.0 87.0 359.0 86.0 C 358.0 84.0 357.0 82.0 358.0 80.0 C 360.0 80.0 362.0 81.0 364.0 82.0 C 366.0 82.0 368.0 82.0 370.0 82.0 C 372.0 82.0 374.0 81.0 376.0 80.0 C 378.0 80.0 380.0 80.0 380.0 82.0 C 381.0 84.0 382.0 86.0 382.0 88.0 C 383.0 90.0 384.0 92.0 385.0 93.0 C 385.0 95.0 385.0 97.0 383.0 97.0 C 381.0 99.0 379.0 100.0 377.0 102.0 C 375.0 103.0 373.0 105.0 371.0 107.0 C 369.0 107.0 368.0 106.0 368.0 104.0 C 366.0 103.0 364.0 103.0 363.0 105.0 C 363.0 107.0 363.0 109.0 362.0 111.0 C 362.0 113.0 360.0 115.0 358.0 117.0 C 356.0 118.0 354.0 120.0 352.0 121.0 C 350.0 121.0 350.0 119.0 348.0 118.0 C 346.0 119.0 346.0 121.0 346.0 123.0 C 344.0 124.0 342.0 124.0 340.0 122.0 C 339.0 120.0 338.0 118.0 337.0 116.0 C 336.0 114.0 334.0 112.0 333.0 110.0 C 332.0 108.0 330.0 106.0 328.0 104.0 C 326.0 102.0 324.0 101.0 322.0 100.0 C 320.0 100.0 318.0 100.0 316.0 100.0 C 315.0 98.0 314.0 96.0 313.0 94.0 C 312.0 92.0 310.0 90.0 308.0 89.0 C 306.0 88.0 304.0 87.0 304.0 85.0 C 303.0 83.0 302.0 81.0 301.0 79.0 C 301.0 77.0 303.0 77.0 305.0 77.0 C 307.0 77.0 309.0 77.0 311.0 77.0 C 313.0 77.0 315.0 77.0 317.0 77.0 C 319.0 77.0 321.0 77.0 323.0 77.0 C 325.0 77.0 327.0 77.0 329.0 77.0 C 331.0 76.0 333.0 76.0 335.0 76.0 C 337.0 76.0 339.0 75.0 341.0 75.0 C 343.0 75.0 345.0 74.0 346.0 74.0" stroke-width="0.0" fill="rgb(192, 134, 134)" opacity="1.0" stroke="rgb(162, 246, 118)" stroke-opacity="0.3871281" stroke-linecap="round" stroke-linejoin="round"/>
    <path d="M 113.0 0.0 C 118.0 0.0 125.0 0.0 132.0 0.0 C 139.0 0.0 146.0 0.0 153.0 0.0 C 160.0 0.0 167.0 0.0 174.0 0.0 C 181.0 0.0 188.0 0.0 195.0 0.0 C 202.0 0.0 209.0 0.0 216.0 0.0 C 223.0 0.0 230.0 0.0 237.0 0.0 C 244.0 0.0 251.0 0.0 258.0 0.0 C 265.0 0.0 272.0 0.0 279.0 0.0 C 286.0 0.0 288.0 4.0 286.0 11.0 C 286.0 18.0 289.0 23.0 293.0 30.0 C 296.0 35.0 289.0 36.0 282.0 37.0 C 275.0 39.0 268.0 40.0 261.0 41.0 C 258.0 46.0 261.0 52.0 266.0 50.0 C 271.0 54.0 277.0 54.0 275.0 61.0 C 274.0 68.0 278.0 62.0 281.0 56.0 C 285.0 62.0 288.0 69.0 285.0 69.0 C 281.0 63.0 281.0 70.0 281.0 77.0 C 282.0 84.0 283.0 91.0 286.0 98.0 C 289.0 105.0 292.0 111.0 295.0 118.0 C 298.0 125.0 297.0 132.0 296.0 139.0 C 292.0 136.0 287.0 129.0 283.0 122.0 C 279.0 115.0 275.0 108.0 269.0 102.0 C 262.0 99.0 256.0 96.0 249.0 94.0 C 247.0 88.0 247.0 81.0 250.0 74.0 C 246.0 68.0 243.0 62.0 236.0 61.0 C 234.0 68.0 227.0 71.0 229.0 78.0 C 230.0 85.0 227.0 89.0 220.0 86.0 C 213.0 84.0 206.0 82.0 199.0 80.0 C 194.0 86.0 191.0 93.0 187.0 100.0 C 184.0 107.0 180.0 114.0 176.0 120.0 C 172.0 127.0 169.0 134.0 165.0 141.0 C 162.0 148.0 159.0 153.0 156.0 160.0 C 152.0 165.0 151.0 160.0 149.0 153.0 C 145.0 146.0 144.0 139.0 140.0 144.0 C 136.0 151.0 134.0 158.0 133.0 164.0 C 129.0 170.0 126.0 177.0 123.0 180.0 C 123.0 173.0 121.0 166.0 118.0 163.0 C 117.0 170.0 115.0 177.0 112.0 182.0 C 111.0 176.0 109.0 169.0 109.0 162.0 C 106.0 155.0 105.0 162.0 99.0 157.0 C 97.0 150.0 104.0 150.0 110.0 147.0 C 117.0 142.0 123.0 136.0 130.0 131.0 C 137.0 125.0 144.0 118.0 150.0 113.0 C 154.0 107.0 151.0 103.0 151.0 96.0 C 158.0 93.0 159.0 100.0 157.0 107.0 C 163.0 101.0 169.0 95.0 173.0 88.0 C 178.0 81.0 183.0 74.0 188.0 67.0 C 193.0 64.0 199.0 70.0 206.0 70.0 C 209.0 63.0 212.0 56.0 216.0 49.0 C 219.0 42.0 223.0 35.0 227.0 31.0 C 227.0 29.0 220.0 27.0 213.0 31.0 C 208.0 25.0 201.0 20.0 194.0 19.0 C 187.0 21.0 181.0 27.0 175.0 25.0 C 168.0 26.0 162.0 22.0 156.0 22.0 C 149.0 24.0 142.0 24.0 136.0 22.0 C 129.0 22.0 123.0 21.0 128.0 15.0 C 131.0 8.0 129.0 1.0 126.0 8.0 C 120.0 12.0 113.0 13.0 106.0 12.0 C 103.0 7.0 107.0 7.0 114.0 6.0 C 116.0 3.0 112.0 0.0 113.0 0.0" stroke-width="0.0" fill="rgb(45, 128, 145)" opacity="1.0" stroke="rgb(112, 75, 82)" stroke-opacity="0.6571992" stroke-linecap="round" stroke-linejoin="round"/>
    <path d="M 248.0 48.0 C 249.0 48.0 249.0 49.0 249.0 50.0 C 249.0 51.0 250.0 52.0 250.0 53.0 C 251.0 54.0 252.0 55.0 252.0 56.0 C 252.0 57.0 252.0 58.0 252.0 59.0 C 253.0 60.0 254.0 60.0 255.0 60.0 C 255.0 61.0 256.0 62.0 256.0 63.0 C 256.0 64.0 256.0 65.0 256.0 66.0 C 256.0 67.0 256.0 68.0 256.0 69.0 C 256.0 70.0 256.0 71.0 257.0 72.0 C 258.0 72.0 259.0 72.0 260.0 72.0 C 261.0 72.0 262.0 72.0 262.0 73.0 C 262.0 74.0 262.0 75.0 262.0 76.0 C 262.0 77.0 262.0 78.0 262.0 79.0 C 262.0 80.0 262.0 81.0 262.0 82.0 C 262.0 83.0 261.0 83.0 260.0 83.0 C 259.0 84.0 259.0 85.0 259.0 86.0 C 259.0 87.0 258.0 87.0 257.0 88.0 C 258.0 89.0 259.0 89.0 259.0 90.0 C 259.0 91.0 258.0 91.0 257.0 91.0 C 257.0 90.0 257.0 89.0 257.0 88.0 C 256.0 87.0 255.0 87.0 254.0 87.0 C 253.0 87.0 252.0 87.0 251.0 87.0 C 250.0 88.0 250.0 89.0 250.0 90.0 C 250.0 91.0 249.0 91.0 248.0 91.0 C 248.0 90.0 248.0 89.0 248.0 88.0 C 249.0 87.0 249.0 86.0 250.0 86.0 C 251.0 85.0 251.0 84.0 250.0 83.0 C 249.0 84.0 248.0 84.0 248.0 83.0 C 248.0 82.0 248.0 81.0 248.0 80.0 C 249.0 81.0 250.0 81.0 251.0 81.0 C 252.0 81.0 253.0 81.0 254.0 80.0 C 255.0 80.0 256.0 79.0 256.0 78.0 C 256.0 77.0 256.0 76.0 256.0 75.0 C 256.0 74.0 255.0 73.0 254.0 73.0 C 255.0 72.0 255.0 71.0 255.0 70.0 C 255.0 69.0 254.0 68.0 253.0 68.0 C 252.0 68.0 251.0 68.0 250.0 69.0 C 250.0 68.0 251.0 67.0 252.0 66.0 C 253.0 65.0 252.0 64.0 251.0 64.0 C 250.0 64.0 249.0 64.0 248.0 65.0 C 248.0 66.0 248.0 67.0 247.0 67.0 C 246.0 67.0 246.0 66.0 246.0 65.0 C 247.0 64.0 247.0 63.0 247.0 62.0 C 248.0 61.0 248.0 60.0 248.0 59.0 C 247.0 58.0 246.0 58.0 245.0 58.0 C 245.0 57.0 245.0 56.0 245.0 55.0 C 245.0 54.0 246.0 54.0 247.0 53.0 C 247.0 52.0 247.0 51.0 247.0 50.0 C 247.0 49.0 247.0 48.0 248.0 48.0" stroke-width="0.0" fill="rgb(30, 105, 136)" opacity="1.0" stroke="rgb(33, 236, 151)" stroke-opacity="0.9907443" stroke-linecap="round" stroke-linejoin="round"/>
    <path d="M 379.0 175.0 C 380.0 176.0 381.0 176.0 382.0 175.0 C 383.0 175.0 384.0 175.0 385.0 176.0 C 386.0 176.0 387.0 176.0 388.0 176.0 C 389.0 176.0 389.0 177.0 389.0 178.0 C 390.0 179.0 391.0 179.0 391.0 180.0 C 391.0 181.0 391.0 182.0 391.0 183.0 C 391.0 184.0 391.0 185.0 390.0 185.0 C 389.0 185.0 388.0 185.0 387.0 184.0 C 386.0 185.0 385.0 185.0 384.0 185.0 C 383.0 185.0 382.0 185.0 381.0 185.0 C 380.0 185.0 379.0 185.0 378.0 185.0 C 377.0 186.0 377.0 187.0 377.0 188.0 C 376.0 188.0 376.0 187.0 376.0 186.0 C 376.0 185.0 376.0 184.0 376.0 183.0 C 376.0 182.0 376.0 181.0 376.0 180.0 C 376.0 179.0 376.0 178.0 376.0 177.0 C 376.0 176.0 377.0 175.0 379.0 175.0" stroke-width="0.0" fill="rgb(18, 55, 87)" opacity="1.0" stroke="rgb(167, 150, 209)" stroke-opacity="0.5771721" stroke-linecap="round" stroke-linejoin="round"/>
    <path d="M 118.0 305.0 C 118.0 306.0 118.0 307.0 118.0 308.0 C 118.0 309.0 118.0 310.0 118.0 311.0 C 118.0 312.0 118.0 313.0 118.0 314.0 C 118.0 315.0 118.0 316.0 118.0 317.0 C 118.0 318.0 118.0 319.0 117.0 319.0 C 116.0 319.0 115.0 319.0 114.0 319.0 C 113.0 319.0 112.0 319.0 111.0 319.0 C 111.0 318.0 111.0 317.0 111.0 316.0 C 111.0 315.0 111.0 314.0 112.0 313.0 C 111.0 312.0 110.0 311.0 110.0 310.0 C 110.0 309.0 111.0 309.0 112.0 308.0 C 113.0 308.0 114.0 308.0 115.0 307.0 C 115.0 306.0 115.0 305.0 118.0 305.0" stroke-width="0.0" fill="rgb(19, 55, 87)" opacity="1.0" stroke="rgb(252, 23, 102)" stroke-opacity="0.062991805" stroke-linecap="round" stroke-linejoin="round"/>
    <path d="M 32.0 297.0 C 33.0 297.0 34.0 297.0 35.0 298.0 C 35.0 299.0 36.0 300.0 37.0 299.0 C 37.0 300.0 37.0 301.0 37.0 302.0 C 37.0 303.0 37.0 304.0 37.0 305.0 C 37.0 306.0 38.0 307.0 38.0 308.0 C 38.0 309.0 39.0 310.0 40.0 309.0 C 41.0 308.0 41.0 307.0 41.0 308.0 C 41.0 309.0 41.0 310.0 41.0 311.0 C 40.0 312.0 39.0 313.0 39.0 312.0 C 38.0 311.0 37.0 311.0 36.0 311.0 C 35.0 312.0 35.0 313.0 35.0 314.0 C 34.0 315.0 34.0 314.0 33.0 313.0 C 32.0 313.0 31.0 313.0 30.0 314.0 C 30.0 315.0 30.0 314.0 30.0 313.0 C 31.0 313.0 32.0 313.0 33.0 313.0 C 34.0 312.0 33.0 311.0 32.0 311.0 C 32.0 310.0 32.0 309.0 33.0 309.0 C 34.0 308.0 34.0 307.0 34.0 306.0 C 33.0 305.0 32.0 305.0 31.0 305.0 C 31.0 304.0 31.0 303.0 31.0 302.0 C 31.0 301.0 31.0 300.0 31.0 299.0 C 31.0 298.0 31.0 297.0 32.0 297.0" stroke-width="0.0" fill="rgb(18, 54, 87)" opacity="1.0" stroke="rgb(123, 122, 117)" stroke-opacity="0.8310572" stroke-linecap="round" stroke-linejoin="round"/>
    <path d="M 348.0 144.0 C 349.0 144.0 350.0 144.0 351.0 144.0 C 350.0 145.0 350.0 146.0 350.0 147.0 C 350.0 148.0 350.0 149.0 350.0 150.0 C 350.0 151.0 349.0 152.0 349.0 153.0 C 350.0 154.0 351.0 154.0 351.0 155.0 C 351.0 156.0 350.0 156.0 349.0 157.0 C 349.0 158.0 349.0 159.0 348.0 159.0 C 347.0 159.0 346.0 159.0 345.0 159.0 C 344.0 159.0 344.0 158.0 343.0 157.0 C 343.0 156.0 343.0 155.0 344.0 154.0 C 344.0 153.0 344.0 152.0 344.0 151.0 C 344.0 150.0 344.0 151.0 345.0 152.0 C 346.0 151.0 347.0 150.0 347.0 149.0 C 347.0 148.0 347.0 147.0 347.0 146.0 C 347.0 145.0 347.0 144.0 348.0 144.0" stroke-width="0.0" fill="rgb(18, 55, 87)" opacity="1.0" stroke="rgb(171, 201, 234)" stroke-opacity="0.9748259" stroke-linecap="round" stroke-linejoin="round"/>
  </g>
</svg>
