<?xml version="1.0" ?>
<svg xmlns="http://www.w3.org/2000/svg" version="1.1" width="438" height="481">
  <defs/>
  <g>
    <path d="M 265.5314636230469 69.89572143554688 C 272.445068359375 70.2127685546875 279.419677734375 70.73568725585938 286.7274475097656 71.5104751586914 C 294.66326904296875 72.49959564208984 303.6561279296875 74.19448852539062 314.2519226074219 76.52835083007812 C 326.3444519042969 79.4754867553711 339.6824951171875 83.70419311523438 353.9684753417969 89.4632797241211 C 368.69012451171875 98.3756103515625 384.003173828125 108.60595703125 400.1790771484375 119.37077331542969 C 415.50579833984375 130.4925994873047 428.291259765625 142.15509033203125 436.78131103515625 154.64996337890625 C 439.10113525390625 167.47203063964844 435.2547912597656 179.85845947265625 426.9835510253906 191.1550750732422 C 415.87542724609375 200.32540893554688 403.2763671875 207.04351806640625 390.8519287109375 211.84088134765625 C 379.4746398925781 216.24644470214844 369.3644104003906 221.0258331298828 360.6893310546875 226.533447265625 C 353.0398864746094 233.00477600097656 346.298583984375 240.90777587890625 340.64324951171875 250.40487670898438 C 336.1990661621094 262.3653869628906 332.05438232421875 276.3815002441406 327.1448974609375 291.6863098144531 C 320.68878173828125 307.3611755371094 312.2793884277344 323.10467529296875 302.04071044921875 338.9020080566406 C 290.9880065917969 354.4147033691406 280.23687744140625 369.348876953125 271.1874694824219 383.1647033691406 C 264.04388427734375 395.14892578125 257.84716796875 404.63653564453125 252.45851135253906 411.54888916015625 C 248.1422576904297 416.7779235839844 244.89573669433594 421.5143127441406 242.97605895996094 426.71502685546875 C 242.15423583984375 432.75750732421875 240.6720733642578 439.3699951171875 238.21212768554688 445.67193603515625 C 234.83267211914062 450.29949951171875 230.822021484375 451.93536376953125 227.1304473876953 449.4407043457031 C 223.7353057861328 442.38995361328125 221.20230102539062 431.8526916503906 220.04881286621094 418.65948486328125 C 218.2108154296875 404.00762939453125 215.6058349609375 388.71954345703125 213.3446807861328 373.97796630859375 C 208.4796142578125 362.40045166015625 205.2481689453125 353.70391845703125 208.42056274414062 347.124755859375 C 219.50244140625 341.6669921875 235.50765991210938 336.8669738769531 252.5721893310547 331.3160400390625 C 267.0511169433594 324.3560791015625 275.5452575683594 317.28155517578125 276.2946472167969 312.30645751953125 C 268.8731384277344 311.8427734375 255.6488494873047 314.1338806152344 239.17901611328125 316.8338317871094 C 222.2340087890625 319.090576171875 207.24899291992188 321.20458984375 195.45506286621094 324.36553955078125 C 188.49774169921875 331.4544372558594 183.89797973632812 340.14984130859375 177.84104919433594 346.5174560546875 C 167.6301727294922 347.9490051269531 156.09762573242188 347.60333251953125 145.49606323242188 349.9792175292969 C 138.0741729736328 358.1769104003906 134.66098022460938 369.4214782714844 135.38992309570312 381.4388122558594 C 139.33766174316406 392.5985412597656 141.20083618164062 403.3025817871094 139.10047912597656 414.9974670410156 C 136.22132873535156 428.2330322265625 133.7954864501953 442.64752197265625 132.1539764404297 457.4410095214844 C 128.92510986328125 471.0436706542969 122.00398254394531 482.1500549316406 111.22252655029297 490.3468322753906 C 96.95476531982422 495.4335021972656 80.20271301269531 497.34686279296875 62.46228790283203 496.37646484375 C 44.87139892578125 492.8876647949219 28.39060401916504 487.3811950683594 14.311392784118652 480.36083984375 C 4.482000350952148 472.26983642578125 -0.30152055621147156 463.62200927734375 0.12856344878673553 455.0719299316406 C 5.34576940536499 447.0809020996094 13.884469985961914 440.3485107421875 23.99536895751953 435.42706298828125 C 33.57604217529297 431.6181640625 40.13824462890625 428.2568054199219 41.83150100708008 424.8743591308594 C 38.171688079833984 421.2455749511719 30.440221786499023 417.28436279296875 21.097448348999023 412.2373352050781 C 12.900144577026367 406.98931884765625 8.498096466064453 402.1439514160156 8.634392738342285 397.9129638671875 C 13.040908813476562 394.3801574707031 21.300445556640625 391.7434997558594 32.27001953125 389.2845458984375 C 44.386077880859375 386.59063720703125 55.74775314331055 383.1781005859375 65.3945083618164 378.5902099609375 C 72.47518157958984 372.5590515136719 77.59516906738281 365.5387268066406 81.45809936523438 358.3341369628906 C 84.66056823730469 352.157470703125 85.63861846923828 347.7057189941406 82.20625305175781 345.6210632324219 C 73.65054321289062 345.6751403808594 61.39761734008789 347.3645324707031 46.59621810913086 350.5633544921875 C 31.376903533935547 355.15350341796875 17.257633209228516 359.4043273925781 5.509158134460449 361.5362854003906 C -1.8505687713623047 358.079833984375 -5.516109943389893 350.00506591796875 -6.626280307769775 338.1242980957031 C -6.616671085357666 323.1465759277344 -6.10328483581543 306.4134216308594 -5.297678470611572 288.7840270996094 C -4.266616344451904 271.3374328613281 -2.7399892807006836 254.46092224121094 0.034940168261528015 238.79161071777344 C 4.792902946472168 225.03871154785156 11.87165355682373 213.185791015625 21.228614807128906 203.92335510253906 C 33.1060905456543 198.23123168945312 46.94606399536133 194.6793670654297 61.67100524902344 190.9538116455078 C 75.79594421386719 184.20559692382812 87.93733215332031 173.93968200683594 97.21295166015625 160.12217712402344 C 103.274169921875 144.00985717773438 107.54900360107422 127.7094955444336 111.39802551269531 113.37614440917969 C 115.17650604248047 103.05894470214844 118.24784088134766 98.19309997558594 119.46629333496094 99.72809600830078 C 116.91227722167969 106.87274169921875 113.31794738769531 117.73229217529297 111.0455093383789 130.3841552734375 C 111.7921371459961 142.80780029296875 115.94518280029297 152.96946716308594 123.60844421386719 159.08938598632812 C 134.74639892578125 159.92660522460938 148.1687774658203 155.97280883789062 162.2758331298828 148.4439697265625 C 175.5635986328125 137.88853454589844 188.3713836669922 127.15691375732422 202.39254760742188 119.9264907836914 C 218.8031463623047 117.22220611572266 235.84268188476562 114.80668640136719 252.55487060546875 110.08660125732422 C 268.04248046875 102.99118041992188 281.4619445800781 95.83433532714844 292.4231872558594 90.56671905517578 C 301.19403076171875 88.39186096191406 307.1034240722656 88.08214569091797 309.80633544921875 88.69996643066406 C 309.2981872558594 89.69203186035156 306.1661682128906 90.07925415039062 301.61529541015625 89.4649429321289 C 296.8878479003906 88.1356430053711 293.33636474609375 85.80157470703125 291.7148132324219 82.78104400634766 C 292.7143249511719 79.56909942626953 294.3977966308594 76.47217559814453 265.5314636230469 69.89572143554688" stroke-width="0.0" fill="rgb(4, 2, 8)" opacity="0.9999957" stroke="rgb(32, 147, 179)" stroke-opacity="0.020377828" stroke-linecap="round" stroke-linejoin="round"/>
    <path d="M 437.0 292.0 C 437.0 293.0 437.0 294.0 437.0 295.0 C 437.0 296.0 437.0 297.0 437.0 298.0 C 437.0 299.0 437.0 300.0 437.0 301.0 C 437.0 302.0 437.0 303.0 437.0 304.0 C 437.0 305.0 437.0 306.0 437.0 307.0 C 437.0 308.0 437.0 309.0 437.0 310.0 C 437.0 311.0 437.0 312.0 437.0 313.0 C 437.0 314.0 437.0 315.0 437.0 318.0 C 437.0 325.0 437.0 332.0 437.0 339.0 C 437.0 346.0 437.0 353.0 437.0 360.0 C 437.0 367.0 437.0 374.0 437.0 381.0 C 437.0 388.0 437.0 395.0 437.0 402.0 C 437.0 409.0 437.0 416.0 437.0 423.0 C 437.0 430.0 437.0 437.0 437.0 444.0 C 437.0 451.0 437.0 458.0 437.0 465.0 C 437.0 472.0 437.0 479.0 431.0 480.0 C 424.0 480.0 417.0 480.0 410.0 480.0 C 409.0 473.0 409.0 466.0 409.0 459.0 C 410.0 452.0 411.0 445.0 406.0 440.0 C 399.0 439.0 398.0 446.0 397.0 453.0 C 397.0 460.0 397.0 467.0 397.0 474.0 C 397.0 480.0 390.0 480.0 383.0 480.0 C 376.0 480.0 369.0 480.0 362.0 480.0 C 355.0 480.0 348.0 480.0 341.0 480.0 C 334.0 480.0 327.0 480.0 320.0 480.0 C 313.0 480.0 306.0 480.0 299.0 480.0 C 292.0 480.0 285.0 480.0 278.0 480.0 C 271.0 480.0 264.0 480.0 257.0 480.0 C 250.0 480.0 243.0 480.0 236.0 480.0 C 229.0 480.0 222.0 480.0 215.0 480.0 C 208.0 480.0 205.0 477.0 207.0 470.0 C 208.0 463.0 210.0 456.0 212.0 449.0 C 214.0 442.0 216.0 441.0 218.0 448.0 C 221.0 455.0 224.0 462.0 229.0 469.0 C 235.0 474.0 242.0 474.0 249.0 472.0 C 256.0 467.0 259.0 460.0 260.0 453.0 C 260.0 446.0 259.0 439.0 258.0 432.0 C 260.0 425.0 260.0 418.0 263.0 419.0 C 263.0 426.0 265.0 423.0 269.0 418.0 C 276.0 416.0 283.0 415.0 290.0 413.0 C 297.0 412.0 304.0 411.0 311.0 410.0 C 318.0 410.0 313.0 408.0 308.0 408.0 C 305.0 404.0 309.0 400.0 310.0 397.0 C 317.0 397.0 324.0 397.0 328.0 398.0 C 334.0 397.0 341.0 398.0 348.0 398.0 C 354.0 400.0 352.0 403.0 346.0 400.0 C 346.0 405.0 350.0 411.0 354.0 415.0 C 350.0 418.0 355.0 418.0 359.0 421.0 C 364.0 420.0 368.0 414.0 375.0 412.0 C 377.0 407.0 374.0 404.0 381.0 406.0 C 388.0 407.0 395.0 405.0 402.0 403.0 C 409.0 401.0 415.0 397.0 419.0 390.0 C 422.0 383.0 424.0 376.0 425.0 369.0 C 427.0 362.0 427.0 355.0 428.0 348.0 C 430.0 341.0 426.0 344.0 420.0 351.0 C 414.0 354.0 409.0 347.0 408.0 342.0 C 413.0 335.0 419.0 328.0 423.0 321.0 C 424.0 314.0 424.0 307.0 425.0 300.0 C 426.0 303.0 429.0 308.0 435.0 306.0 C 436.0 299.0 436.0 292.0 437.0 292.0" stroke-width="0.0" fill="rgb(72, 128, 93)" opacity="1.0" stroke="rgb(148, 237, 218)" stroke-opacity="0.09554641" stroke-linecap="round" stroke-linejoin="round"/>
    <path d="M 1.0 0.0 C 2.0 0.0 3.0 0.0 4.0 0.0 C 5.0 0.0 6.0 0.0 7.0 0.0 C 8.0 0.0 9.0 0.0 10.0 0.0 C 12.0 0.0 27.0 0.0 42.0 0.0 C 57.0 0.0 72.0 0.0 87.0 0.0 C 102.0 0.0 117.0 0.0 132.0 1.0 C 147.0 1.0 162.0 1.0 177.0 1.0 C 190.0 4.0 201.0 3.0 213.0 8.0 C 226.0 5.0 237.0 1.0 252.0 1.0 C 264.0 6.0 278.0 8.0 293.0 8.0 C 305.0 4.0 318.0 1.0 333.0 0.0 C 348.0 0.0 363.0 0.0 378.0 0.0 C 393.0 0.0 408.0 0.0 423.0 0.0 C 437.0 1.0 437.0 16.0 432.0 28.0 C 417.0 36.0 403.0 41.0 388.0 45.0 C 373.0 46.0 358.0 50.0 343.0 51.0 C 328.0 54.0 322.0 66.0 336.0 72.0 C 351.0 73.0 366.0 71.0 381.0 76.0 C 396.0 75.0 411.0 76.0 426.0 77.0 C 437.0 81.0 437.0 96.0 437.0 111.0 C 437.0 126.0 437.0 141.0 430.0 141.0 C 425.0 129.0 412.0 120.0 399.0 110.0 C 386.0 102.0 371.0 94.0 357.0 86.0 C 343.0 82.0 329.0 78.0 316.0 73.0 C 303.0 71.0 290.0 70.0 280.0 68.0 C 266.0 66.0 251.0 64.0 236.0 65.0 C 245.0 68.0 260.0 68.0 274.0 73.0 C 286.0 74.0 301.0 76.0 300.0 79.0 C 294.0 86.0 306.0 84.0 311.0 87.0 C 323.0 81.0 324.0 88.0 309.0 93.0 C 294.0 96.0 281.0 95.0 269.0 100.0 C 256.0 107.0 242.0 111.0 233.0 113.0 C 223.0 117.0 212.0 118.0 198.0 121.0 C 184.0 130.0 172.0 139.0 160.0 147.0 C 149.0 153.0 134.0 156.0 120.0 161.0 C 105.0 162.0 103.0 151.0 107.0 136.0 C 112.0 135.0 111.0 121.0 117.0 108.0 C 122.0 95.0 137.0 89.0 152.0 85.0 C 155.0 74.0 167.0 76.0 171.0 73.0 C 165.0 64.0 159.0 61.0 153.0 60.0 C 138.0 57.0 123.0 59.0 114.0 57.0 C 109.0 62.0 102.0 55.0 97.0 40.0 C 94.0 53.0 95.0 68.0 100.0 83.0 C 101.0 92.0 94.0 79.0 90.0 94.0 C 91.0 109.0 105.0 104.0 115.0 99.0 C 110.0 112.0 107.0 127.0 102.0 142.0 C 97.0 157.0 92.0 169.0 82.0 176.0 C 69.0 185.0 54.0 192.0 43.0 194.0 C 28.0 199.0 25.0 212.0 11.0 225.0 C 1.0 234.0 16.0 225.0 20.0 231.0 C 15.0 246.0 11.0 261.0 8.0 276.0 C 6.0 291.0 4.0 306.0 0.0 308.0 C 0.0 293.0 0.0 278.0 0.0 263.0 C 0.0 248.0 0.0 233.0 2.0 222.0 C 0.0 209.0 1.0 194.0 0.0 180.0 C 0.0 165.0 14.0 161.0 14.0 153.0 C 0.0 150.0 0.0 135.0 0.0 120.0 C 0.0 105.0 0.0 90.0 0.0 75.0 C 0.0 60.0 0.0 45.0 0.0 30.0 C 0.0 15.0 0.0 0.0 1.0 0.0" stroke-width="0.0" fill="rgb(148, 211, 235)" opacity="1.0" stroke="rgb(65, 79, 73)" stroke-opacity="0.97658587" stroke-linecap="round" stroke-linejoin="round"/>
  </g>
</svg>
