<?xml version="1.0" ?>
<svg xmlns="http://www.w3.org/2000/svg" version="1.1" width="693" height="488">
  <defs/>
  <g>
    <path d="M 1.0 0.0 C 2.0 0.0 3.0 0.0 4.0 0.0 C 14.0 0.0 24.0 0.0 34.0 0.0 C 44.0 0.0 54.0 0.0 64.0 0.0 C 74.0 0.0 84.0 0.0 94.0 0.0 C 104.0 0.0 114.0 0.0 124.0 0.0 C 134.0 0.0 144.0 0.0 154.0 0.0 C 164.0 0.0 174.0 0.0 184.0 0.0 C 194.0 0.0 204.0 0.0 214.0 0.0 C 224.0 0.0 234.0 0.0 244.0 0.0 C 254.0 0.0 264.0 0.0 274.0 0.0 C 284.0 0.0 294.0 0.0 304.0 0.0 C 314.0 0.0 324.0 0.0 334.0 0.0 C 344.0 0.0 354.0 0.0 364.0 0.0 C 374.0 0.0 384.0 0.0 394.0 0.0 C 404.0 0.0 414.0 0.0 424.0 0.0 C 434.0 0.0 444.0 0.0 454.0 0.0 C 464.0 0.0 474.0 0.0 484.0 0.0 C 494.0 0.0 504.0 0.0 514.0 0.0 C 524.0 0.0 534.0 0.0 544.0 0.0 C 554.0 0.0 564.0 0.0 574.0 0.0 C 584.0 0.0 594.0 0.0 604.0 0.0 C 614.0 0.0 624.0 0.0 634.0 0.0 C 644.0 0.0 654.0 0.0 664.0 0.0 C 674.0 0.0 684.0 0.0 692.0 2.0 C 692.0 12.0 692.0 22.0 692.0 32.0 C 692.0 42.0 692.0 52.0 692.0 62.0 C 692.0 72.0 692.0 82.0 692.0 92.0 C 692.0 102.0 692.0 112.0 692.0 122.0 C 692.0 132.0 692.0 142.0 692.0 152.0 C 692.0 162.0 692.0 172.0 692.0 182.0 C 685.0 185.0 675.0 185.0 665.0 185.0 C 655.0 185.0 645.0 185.0 635.0 185.0 C 625.0 185.0 615.0 185.0 605.0 185.0 C 595.0 185.0 585.0 185.0 575.0 185.0 C 565.0 185.0 555.0 185.0 545.0 185.0 C 535.0 185.0 525.0 185.0 515.0 185.0 C 505.0 185.0 495.0 185.0 485.0 185.0 C 475.0 185.0 465.0 185.0 455.0 185.0 C 445.0 185.0 435.0 185.0 425.0 185.0 C 415.0 185.0 405.0 185.0 395.0 185.0 C 385.0 185.0 375.0 185.0 365.0 185.0 C 355.0 185.0 345.0 185.0 335.0 185.0 C 325.0 185.0 315.0 185.0 305.0 185.0 C 295.0 185.0 285.0 185.0 276.0 183.0 C 269.0 177.0 261.0 169.0 251.0 162.0 C 242.0 157.0 232.0 153.0 222.0 151.0 C 212.0 149.0 202.0 149.0 192.0 149.0 C 182.0 151.0 172.0 154.0 162.0 158.0 C 152.0 164.0 142.0 171.0 133.0 180.0 C 125.0 185.0 115.0 185.0 105.0 185.0 C 95.0 185.0 85.0 185.0 75.0 185.0 C 65.0 185.0 55.0 185.0 45.0 185.0 C 35.0 185.0 25.0 185.0 15.0 185.0 C 5.0 185.0 0.0 180.0 0.0 170.0 C 0.0 160.0 0.0 150.0 0.0 140.0 C 0.0 130.0 0.0 120.0 0.0 110.0 C 0.0 100.0 0.0 90.0 0.0 80.0 C 0.0 70.0 0.0 60.0 0.0 50.0 C 0.0 40.0 0.0 30.0 0.0 20.0 C 0.0 10.0 0.0 0.0 1.0 0.0" stroke-width="0.0" fill="rgb(158, 38, 53)" opacity="1.0" stroke="rgb(22, 150, 76)" stroke-opacity="0.9512232" stroke-linecap="round" stroke-linejoin="round"/>
    <path d="M 201.0 150.0 C 216.0 151.0 231.0 154.0 245.0 160.0 C 260.0 170.0 272.0 180.0 284.0 186.0 C 299.0 186.0 314.0 186.0 329.0 186.0 C 344.0 186.0 359.0 186.0 374.0 186.0 C 389.0 186.0 404.0 186.0 419.0 186.0 C 434.0 186.0 449.0 186.0 464.0 186.0 C 479.0 186.0 494.0 186.0 509.0 186.0 C 524.0 186.0 539.0 186.0 554.0 186.0 C 569.0 186.0 584.0 186.0 599.0 186.0 C 614.0 186.0 629.0 186.0 644.0 186.0 C 659.0 186.0 674.0 186.0 689.0 186.0 C 692.0 198.0 692.0 213.0 692.0 228.0 C 692.0 243.0 692.0 258.0 692.0 273.0 C 692.0 288.0 692.0 303.0 688.0 315.0 C 681.0 315.0 674.0 315.0 666.0 314.0 C 658.0 313.0 650.0 312.0 643.0 311.0 C 636.0 312.0 628.0 313.0 620.0 314.0 C 612.0 315.0 605.0 315.0 598.0 315.0 C 590.0 314.0 583.0 313.0 576.0 314.0 C 568.0 315.0 561.0 315.0 554.0 315.0 C 546.0 314.0 538.0 313.0 530.0 312.0 C 523.0 311.0 520.0 325.0 519.0 340.0 C 523.0 348.0 538.0 347.0 553.0 343.0 C 568.0 340.0 583.0 338.0 598.0 339.0 C 610.0 331.0 625.0 330.0 640.0 339.0 C 652.0 351.0 655.0 366.0 658.0 381.0 C 664.0 396.0 663.0 411.0 676.0 413.0 C 691.0 412.0 692.0 426.0 692.0 441.0 C 692.0 456.0 692.0 471.0 692.0 486.0 C 678.0 487.0 663.0 487.0 648.0 487.0 C 633.0 487.0 618.0 487.0 603.0 487.0 C 588.0 487.0 573.0 487.0 558.0 487.0 C 543.0 487.0 528.0 487.0 513.0 487.0 C 498.0 487.0 483.0 487.0 468.0 487.0 C 453.0 487.0 438.0 487.0 423.0 487.0 C 408.0 487.0 393.0 487.0 378.0 487.0 C 363.0 487.0 348.0 487.0 333.0 487.0 C 318.0 487.0 303.0 487.0 288.0 487.0 C 273.0 487.0 258.0 487.0 243.0 487.0 C 228.0 487.0 213.0 487.0 198.0 487.0 C 183.0 487.0 168.0 487.0 153.0 487.0 C 138.0 487.0 123.0 487.0 108.0 487.0 C 93.0 487.0 78.0 487.0 63.0 487.0 C 48.0 487.0 33.0 487.0 18.0 487.0 C 3.0 487.0 0.0 475.0 0.0 460.0 C 0.0 445.0 0.0 430.0 0.0 415.0 C 0.0 400.0 2.0 385.0 10.0 370.0 C 16.0 355.0 28.0 340.0 39.0 344.0 C 46.0 358.0 56.0 355.0 59.0 340.0 C 61.0 325.0 61.0 315.0 54.0 315.0 C 46.0 314.0 39.0 313.0 32.0 314.0 C 24.0 315.0 17.0 315.0 10.0 315.0 C 2.0 314.0 0.0 303.0 0.0 288.0 C 0.0 273.0 0.0 258.0 0.0 243.0 C 0.0 228.0 0.0 213.0 0.0 198.0 C 3.0 186.0 18.0 186.0 33.0 186.0 C 48.0 186.0 63.0 186.0 78.0 186.0 C 93.0 186.0 108.0 186.0 123.0 186.0 C 135.0 178.0 150.0 166.0 165.0 158.0 C 180.0 152.0 195.0 149.0 201.0 150.0" stroke-width="0.0" fill="rgb(192, 106, 80)" opacity="1.0" stroke="rgb(66, 193, 37)" stroke-opacity="0.38697982" stroke-linecap="round" stroke-linejoin="round"/>
    <path d="M 8.0 395.0 C 9.0 395.0 10.0 395.0 11.0 395.0 C 12.0 395.0 13.0 395.0 14.0 395.0 C 15.0 395.0 16.0 395.0 17.0 396.0 C 18.0 396.0 19.0 396.0 20.0 396.0 C 21.0 396.0 22.0 397.0 25.0 397.0 C 34.0 399.0 43.0 401.0 52.0 402.0 C 61.0 403.0 70.0 404.0 79.0 405.0 C 88.0 407.0 97.0 407.0 106.0 408.0 C 115.0 408.0 124.0 409.0 133.0 409.0 C 142.0 409.0 151.0 409.0 160.0 409.0 C 169.0 409.0 178.0 409.0 187.0 408.0 C 196.0 408.0 205.0 407.0 214.0 407.0 C 223.0 408.0 232.0 409.0 241.0 410.0 C 250.0 411.0 259.0 412.0 268.0 414.0 C 277.0 416.0 286.0 418.0 295.0 420.0 C 304.0 422.0 313.0 424.0 322.0 425.0 C 331.0 427.0 340.0 429.0 349.0 430.0 C 358.0 431.0 367.0 431.0 376.0 432.0 C 385.0 432.0 394.0 432.0 403.0 432.0 C 412.0 432.0 421.0 432.0 430.0 433.0 C 439.0 433.0 448.0 433.0 457.0 434.0 C 466.0 434.0 475.0 435.0 484.0 435.0 C 493.0 436.0 502.0 437.0 511.0 437.0 C 520.0 438.0 529.0 439.0 538.0 440.0 C 547.0 441.0 556.0 441.0 565.0 442.0 C 574.0 443.0 583.0 444.0 592.0 445.0 C 601.0 446.0 610.0 447.0 619.0 448.0 C 628.0 448.0 637.0 449.0 646.0 450.0 C 655.0 450.0 664.0 450.0 673.0 449.0 C 682.0 448.0 691.0 449.0 692.0 458.0 C 692.0 467.0 692.0 476.0 687.0 481.0 C 678.0 480.0 669.0 480.0 660.0 480.0 C 651.0 480.0 642.0 480.0 633.0 480.0 C 624.0 480.0 615.0 480.0 606.0 480.0 C 597.0 480.0 588.0 480.0 579.0 480.0 C 570.0 480.0 561.0 480.0 552.0 480.0 C 543.0 480.0 534.0 480.0 525.0 480.0 C 516.0 480.0 507.0 480.0 498.0 480.0 C 489.0 480.0 480.0 480.0 471.0 480.0 C 462.0 480.0 453.0 480.0 444.0 480.0 C 435.0 480.0 426.0 480.0 417.0 480.0 C 408.0 480.0 399.0 480.0 390.0 480.0 C 381.0 480.0 372.0 480.0 363.0 480.0 C 354.0 480.0 345.0 480.0 336.0 480.0 C 327.0 480.0 318.0 480.0 309.0 480.0 C 300.0 480.0 291.0 480.0 282.0 480.0 C 273.0 480.0 264.0 480.0 255.0 480.0 C 246.0 480.0 237.0 480.0 228.0 480.0 C 219.0 480.0 210.0 480.0 201.0 480.0 C 192.0 480.0 183.0 480.0 174.0 480.0 C 165.0 480.0 156.0 480.0 147.0 480.0 C 138.0 480.0 129.0 480.0 120.0 480.0 C 111.0 480.0 102.0 480.0 93.0 480.0 C 84.0 480.0 75.0 480.0 66.0 480.0 C 57.0 480.0 48.0 480.0 39.0 480.0 C 30.0 480.0 21.0 480.0 12.0 480.0 C 3.0 480.0 0.0 474.0 0.0 465.0 C 0.0 456.0 0.0 447.0 0.0 438.0 C 0.0 429.0 0.0 420.0 0.0 411.0 C 0.0 402.0 7.0 395.0 8.0 395.0" stroke-width="0.0" fill="rgb(68, 29, 37)" opacity="1.0" stroke="rgb(76, 110, 242)" stroke-opacity="0.43044272" stroke-linecap="round" stroke-linejoin="round"/>
    <path d="M 178.0 272.0 C 179.0 272.0 180.0 272.0 180.0 273.0 C 181.0 274.0 182.0 275.0 183.0 274.0 C 184.0 273.0 184.0 272.0 185.0 272.0 C 186.0 272.0 187.0 273.0 187.0 274.0 C 188.0 275.0 188.0 276.0 188.0 277.0 C 189.0 278.0 189.0 279.0 189.0 280.0 C 189.0 281.0 189.0 282.0 189.0 283.0 C 189.0 284.0 189.0 285.0 189.0 286.0 C 190.0 289.0 190.0 292.0 190.0 295.0 C 190.0 298.0 190.0 301.0 190.0 304.0 C 190.0 307.0 190.0 310.0 190.0 313.0 C 190.0 316.0 190.0 319.0 191.0 322.0 C 190.0 325.0 190.0 328.0 190.0 331.0 C 190.0 334.0 191.0 337.0 194.0 336.0 C 197.0 333.0 200.0 331.0 200.0 328.0 C 201.0 325.0 202.0 322.0 202.0 319.0 C 202.0 316.0 203.0 313.0 203.0 310.0 C 204.0 307.0 205.0 304.0 206.0 301.0 C 208.0 298.0 210.0 295.0 213.0 296.0 C 216.0 296.0 219.0 296.0 221.0 298.0 C 223.0 301.0 223.0 304.0 224.0 307.0 C 224.0 310.0 224.0 313.0 223.0 316.0 C 222.0 319.0 222.0 322.0 220.0 325.0 C 220.0 328.0 218.0 330.0 217.0 333.0 C 215.0 335.0 212.0 337.0 209.0 340.0 C 206.0 343.0 203.0 345.0 200.0 348.0 C 197.0 349.0 194.0 349.0 191.0 350.0 C 190.0 353.0 190.0 356.0 190.0 359.0 C 190.0 362.0 190.0 365.0 189.0 368.0 C 189.0 371.0 189.0 374.0 189.0 377.0 C 189.0 380.0 189.0 383.0 189.0 386.0 C 189.0 389.0 188.0 392.0 188.0 395.0 C 188.0 398.0 188.0 401.0 187.0 404.0 C 186.0 406.0 183.0 406.0 180.0 406.0 C 177.0 407.0 176.0 405.0 176.0 402.0 C 175.0 399.0 175.0 396.0 175.0 393.0 C 175.0 390.0 174.0 387.0 174.0 384.0 C 174.0 381.0 174.0 378.0 174.0 375.0 C 174.0 372.0 173.0 369.0 173.0 366.0 C 173.0 363.0 173.0 360.0 172.0 357.0 C 172.0 354.0 172.0 351.0 172.0 348.0 C 172.0 345.0 172.0 342.0 172.0 339.0 C 172.0 336.0 171.0 333.0 168.0 332.0 C 165.0 330.0 162.0 328.0 159.0 327.0 C 158.0 325.0 155.0 323.0 154.0 320.0 C 152.0 317.0 150.0 314.0 148.0 311.0 C 147.0 308.0 146.0 305.0 145.0 302.0 C 145.0 299.0 145.0 296.0 144.0 293.0 C 144.0 290.0 144.0 287.0 145.0 284.0 C 147.0 281.0 150.0 280.0 153.0 279.0 C 156.0 279.0 159.0 282.0 160.0 285.0 C 161.0 288.0 162.0 291.0 163.0 294.0 C 163.0 297.0 163.0 300.0 164.0 303.0 C 164.0 306.0 164.0 309.0 165.0 312.0 C 166.0 315.0 169.0 316.0 172.0 314.0 C 172.0 311.0 172.0 308.0 172.0 305.0 C 172.0 302.0 172.0 299.0 172.0 296.0 C 173.0 293.0 173.0 290.0 173.0 287.0 C 174.0 284.0 175.0 281.0 175.0 278.0 C 176.0 275.0 177.0 272.0 178.0 272.0" stroke-width="0.0" fill="rgb(0, 0, 0)" opacity="1.0" stroke="rgb(38, 72, 1)" stroke-opacity="0.3095115" stroke-linecap="round" stroke-linejoin="round"/>
    <path d="M 1.0 118.0 C 2.0 118.0 3.0 118.0 4.0 118.0 C 5.0 118.0 6.0 118.0 7.0 118.0 C 8.0 118.0 9.0 118.0 10.0 118.0 C 11.0 118.0 16.0 118.0 25.0 118.0 C 34.0 118.0 43.0 118.0 52.0 118.0 C 61.0 118.0 70.0 118.0 79.0 118.0 C 88.0 118.0 97.0 118.0 106.0 118.0 C 115.0 118.0 124.0 118.0 133.0 118.0 C 142.0 118.0 151.0 118.0 160.0 118.0 C 169.0 118.0 178.0 118.0 187.0 118.0 C 196.0 118.0 205.0 118.0 214.0 118.0 C 223.0 118.0 232.0 118.0 241.0 118.0 C 250.0 118.0 259.0 118.0 268.0 118.0 C 277.0 118.0 286.0 118.0 295.0 118.0 C 304.0 118.0 313.0 118.0 322.0 118.0 C 331.0 118.0 340.0 118.0 349.0 118.0 C 358.0 118.0 367.0 118.0 376.0 118.0 C 385.0 118.0 394.0 118.0 403.0 118.0 C 412.0 118.0 421.0 118.0 430.0 118.0 C 439.0 118.0 448.0 118.0 457.0 118.0 C 466.0 118.0 475.0 118.0 484.0 118.0 C 493.0 118.0 502.0 118.0 511.0 118.0 C 520.0 118.0 529.0 118.0 538.0 118.0 C 547.0 118.0 556.0 118.0 565.0 118.0 C 574.0 118.0 583.0 118.0 592.0 118.0 C 601.0 118.0 610.0 118.0 619.0 118.0 C 628.0 118.0 637.0 118.0 646.0 118.0 C 655.0 118.0 664.0 118.0 673.0 118.0 C 682.0 118.0 691.0 118.0 692.0 126.0 C 692.0 135.0 692.0 144.0 692.0 153.0 C 692.0 162.0 692.0 171.0 692.0 180.0 C 688.0 185.0 679.0 185.0 670.0 185.0 C 661.0 185.0 652.0 185.0 643.0 185.0 C 634.0 185.0 625.0 185.0 616.0 185.0 C 607.0 185.0 598.0 185.0 589.0 185.0 C 580.0 185.0 571.0 185.0 562.0 185.0 C 553.0 185.0 544.0 185.0 535.0 185.0 C 526.0 185.0 517.0 185.0 508.0 185.0 C 499.0 185.0 490.0 185.0 481.0 185.0 C 472.0 185.0 463.0 185.0 454.0 185.0 C 445.0 185.0 436.0 185.0 427.0 185.0 C 418.0 185.0 409.0 185.0 400.0 185.0 C 391.0 185.0 382.0 185.0 373.0 185.0 C 364.0 185.0 355.0 185.0 346.0 185.0 C 337.0 185.0 328.0 185.0 319.0 185.0 C 310.0 185.0 301.0 185.0 292.0 185.0 C 283.0 185.0 275.0 183.0 269.0 177.0 C 262.0 170.0 253.0 164.0 244.0 159.0 C 236.0 155.0 227.0 152.0 218.0 150.0 C 209.0 149.0 200.0 149.0 191.0 149.0 C 182.0 151.0 173.0 153.0 164.0 157.0 C 155.0 162.0 146.0 168.0 137.0 176.0 C 129.0 182.0 122.0 185.0 113.0 185.0 C 104.0 185.0 95.0 185.0 86.0 185.0 C 77.0 185.0 68.0 185.0 59.0 185.0 C 50.0 185.0 41.0 185.0 32.0 185.0 C 23.0 185.0 14.0 185.0 5.0 185.0 C 0.0 181.0 0.0 172.0 0.0 163.0 C 0.0 154.0 0.0 145.0 0.0 136.0 C 0.0 127.0 0.0 118.0 1.0 118.0" stroke-width="0.0" fill="rgb(185, 90, 71)" opacity="1.0" stroke="rgb(2, 221, 68)" stroke-opacity="0.6805975" stroke-linecap="round" stroke-linejoin="round"/>
    <path d="M 501.0 330.0 C 502.0 330.0 503.0 330.0 504.0 330.0 C 505.0 331.0 505.0 332.0 505.0 333.0 C 505.0 334.0 504.0 335.0 504.0 336.0 C 504.0 337.0 503.0 338.0 503.0 339.0 C 502.0 340.0 503.0 341.0 503.0 342.0 C 503.0 343.0 504.0 344.0 504.0 345.0 C 505.0 346.0 505.0 347.0 505.0 348.0 C 505.0 350.0 505.0 352.0 506.0 354.0 C 508.0 354.0 510.0 354.0 512.0 355.0 C 514.0 355.0 516.0 356.0 518.0 356.0 C 520.0 354.0 521.0 352.0 522.0 350.0 C 524.0 348.0 526.0 347.0 528.0 347.0 C 530.0 347.0 532.0 349.0 533.0 351.0 C 534.0 353.0 534.0 355.0 533.0 357.0 C 532.0 359.0 530.0 361.0 528.0 362.0 C 526.0 362.0 524.0 363.0 523.0 365.0 C 524.0 367.0 524.0 369.0 524.0 371.0 C 524.0 373.0 523.0 375.0 523.0 377.0 C 522.0 379.0 521.0 381.0 519.0 382.0 C 517.0 384.0 515.0 386.0 513.0 387.0 C 511.0 389.0 509.0 390.0 507.0 392.0 C 505.0 394.0 504.0 396.0 506.0 398.0 C 507.0 400.0 507.0 402.0 508.0 404.0 C 509.0 406.0 509.0 408.0 509.0 410.0 C 508.0 412.0 508.0 414.0 508.0 416.0 C 507.0 418.0 506.0 420.0 505.0 422.0 C 504.0 424.0 503.0 426.0 502.0 428.0 C 501.0 430.0 500.0 432.0 499.0 434.0 C 497.0 434.0 495.0 434.0 493.0 434.0 C 491.0 434.0 489.0 434.0 487.0 434.0 C 486.0 432.0 484.0 430.0 483.0 428.0 C 481.0 426.0 480.0 424.0 478.0 422.0 C 477.0 420.0 476.0 418.0 475.0 416.0 C 475.0 414.0 475.0 412.0 474.0 410.0 C 474.0 408.0 473.0 406.0 471.0 406.0 C 469.0 406.0 467.0 406.0 465.0 406.0 C 463.0 406.0 461.0 406.0 459.0 405.0 C 457.0 404.0 455.0 403.0 453.0 401.0 C 451.0 399.0 450.0 397.0 450.0 395.0 C 450.0 393.0 450.0 391.0 451.0 389.0 C 452.0 387.0 453.0 385.0 455.0 383.0 C 457.0 382.0 459.0 382.0 461.0 382.0 C 463.0 382.0 465.0 382.0 467.0 384.0 C 469.0 385.0 470.0 387.0 471.0 389.0 C 472.0 391.0 473.0 393.0 474.0 395.0 C 474.0 397.0 476.0 398.0 478.0 396.0 C 480.0 394.0 482.0 392.0 484.0 391.0 C 486.0 390.0 488.0 390.0 490.0 390.0 C 492.0 390.0 494.0 390.0 496.0 390.0 C 498.0 390.0 497.0 388.0 497.0 386.0 C 496.0 384.0 496.0 382.0 495.0 380.0 C 495.0 378.0 495.0 376.0 495.0 374.0 C 494.0 372.0 495.0 370.0 495.0 368.0 C 495.0 366.0 496.0 364.0 497.0 362.0 C 499.0 360.0 500.0 358.0 498.0 356.0 C 496.0 354.0 494.0 353.0 493.0 351.0 C 492.0 349.0 492.0 347.0 492.0 345.0 C 492.0 343.0 494.0 341.0 496.0 340.0 C 497.0 338.0 497.0 336.0 498.0 334.0 C 498.0 332.0 500.0 330.0 501.0 330.0" stroke-width="0.0" fill="rgb(0, 0, 0)" opacity="1.0" stroke="rgb(132, 177, 92)" stroke-opacity="0.15001854" stroke-linecap="round" stroke-linejoin="round"/>
    <path d="M 638.0 336.0 C 639.0 336.0 640.0 336.0 641.0 336.0 C 642.0 336.0 643.0 336.0 644.0 336.0 C 645.0 336.0 646.0 336.0 647.0 336.0 C 648.0 336.0 649.0 336.0 650.0 336.0 C 651.0 336.0 652.0 336.0 653.0 336.0 C 654.0 336.0 655.0 336.0 656.0 336.0 C 657.0 336.0 658.0 336.0 659.0 336.0 C 660.0 336.0 661.0 336.0 662.0 336.0 C 663.0 336.0 664.0 336.0 665.0 336.0 C 666.0 336.0 667.0 336.0 668.0 336.0 C 669.0 336.0 670.0 336.0 671.0 336.0 C 672.0 336.0 673.0 336.0 674.0 336.0 C 675.0 336.0 676.0 336.0 677.0 336.0 C 678.0 336.0 679.0 336.0 680.0 336.0 C 681.0 336.0 682.0 336.0 683.0 336.0 C 684.0 336.0 685.0 336.0 686.0 336.0 C 687.0 336.0 688.0 336.0 689.0 336.0 C 690.0 336.0 691.0 336.0 692.0 336.0 C 692.0 337.0 692.0 338.0 692.0 339.0 C 692.0 340.0 692.0 341.0 692.0 342.0 C 692.0 343.0 692.0 344.0 692.0 345.0 C 692.0 346.0 692.0 347.0 692.0 348.0 C 692.0 349.0 692.0 350.0 692.0 351.0 C 692.0 352.0 692.0 353.0 692.0 354.0 C 692.0 355.0 691.0 355.0 690.0 356.0 C 690.0 357.0 690.0 358.0 690.0 359.0 C 689.0 359.0 688.0 359.0 688.0 358.0 C 688.0 357.0 688.0 356.0 687.0 355.0 C 686.0 356.0 686.0 357.0 686.0 358.0 C 686.0 359.0 685.0 359.0 684.0 359.0 C 684.0 358.0 684.0 357.0 684.0 356.0 C 683.0 355.0 682.0 356.0 682.0 357.0 C 682.0 358.0 682.0 359.0 681.0 359.0 C 680.0 359.0 680.0 358.0 680.0 357.0 C 680.0 356.0 679.0 355.0 678.0 356.0 C 678.0 357.0 678.0 358.0 678.0 359.0 C 677.0 359.0 676.0 359.0 676.0 358.0 C 676.0 357.0 676.0 356.0 675.0 355.0 C 674.0 356.0 674.0 357.0 674.0 358.0 C 674.0 359.0 673.0 359.0 672.0 359.0 C 672.0 358.0 672.0 357.0 672.0 356.0 C 671.0 355.0 670.0 356.0 670.0 357.0 C 670.0 358.0 670.0 359.0 669.0 359.0 C 668.0 359.0 668.0 358.0 668.0 357.0 C 668.0 356.0 667.0 355.0 666.0 356.0 C 666.0 357.0 666.0 358.0 666.0 359.0 C 665.0 359.0 664.0 359.0 664.0 358.0 C 664.0 357.0 664.0 356.0 663.0 355.0 C 662.0 356.0 662.0 357.0 662.0 358.0 C 662.0 359.0 661.0 359.0 660.0 359.0 C 660.0 358.0 660.0 357.0 660.0 356.0 C 659.0 355.0 658.0 356.0 658.0 357.0 C 658.0 358.0 658.0 359.0 657.0 359.0 C 656.0 359.0 656.0 358.0 656.0 357.0 C 656.0 356.0 655.0 355.0 654.0 355.0 C 654.0 354.0 654.0 353.0 653.0 352.0 C 653.0 351.0 653.0 350.0 652.0 348.0 C 651.0 346.0 649.0 344.0 647.0 342.0 C 645.0 341.0 643.0 340.0 641.0 339.0 C 639.0 337.0 637.0 336.0 638.0 336.0" stroke-width="0.0" fill="rgb(217, 149, 93)" opacity="1.0" stroke="rgb(42, 160, 252)" stroke-opacity="0.45370638" stroke-linecap="round" stroke-linejoin="round"/>
    <path d="M 451.0 337.0 C 452.0 338.0 453.0 338.0 454.0 338.0 C 455.0 337.0 455.0 336.0 456.0 336.0 C 457.0 336.0 458.0 336.0 459.0 336.0 C 459.0 337.0 460.0 338.0 461.0 338.0 C 462.0 338.0 463.0 337.0 463.0 336.0 C 464.0 336.0 465.0 336.0 466.0 336.0 C 467.0 336.0 467.0 337.0 468.0 338.0 C 469.0 338.0 470.0 338.0 471.0 337.0 C 471.0 336.0 472.0 336.0 473.0 336.0 C 474.0 336.0 475.0 336.0 475.0 337.0 C 476.0 338.0 477.0 338.0 478.0 338.0 C 479.0 337.0 479.0 336.0 480.0 336.0 C 481.0 336.0 482.0 336.0 483.0 336.0 C 483.0 337.0 484.0 338.0 485.0 338.0 C 486.0 338.0 487.0 337.0 487.0 336.0 C 487.0 337.0 487.0 338.0 487.0 339.0 C 487.0 340.0 487.0 341.0 486.0 342.0 C 485.0 342.0 484.0 342.0 483.0 343.0 C 482.0 344.0 481.0 345.0 481.0 346.0 C 481.0 347.0 481.0 348.0 481.0 349.0 C 481.0 350.0 481.0 351.0 481.0 352.0 C 481.0 353.0 481.0 354.0 481.0 355.0 C 481.0 356.0 481.0 357.0 481.0 358.0 C 481.0 359.0 481.0 360.0 481.0 361.0 C 480.0 362.0 480.0 363.0 480.0 364.0 C 480.0 365.0 479.0 366.0 479.0 367.0 C 479.0 368.0 479.0 369.0 479.0 370.0 C 479.0 371.0 479.0 372.0 479.0 373.0 C 480.0 374.0 480.0 375.0 480.0 376.0 C 480.0 377.0 480.0 378.0 480.0 379.0 C 480.0 380.0 480.0 381.0 480.0 382.0 C 480.0 383.0 479.0 383.0 478.0 383.0 C 477.0 383.0 476.0 383.0 475.0 383.0 C 474.0 383.0 473.0 383.0 472.0 383.0 C 471.0 383.0 470.0 382.0 469.0 382.0 C 469.0 381.0 469.0 380.0 468.0 379.0 C 468.0 378.0 468.0 377.0 468.0 376.0 C 467.0 375.0 466.0 375.0 465.0 375.0 C 464.0 375.0 463.0 376.0 462.0 377.0 C 461.0 377.0 460.0 377.0 459.0 376.0 C 458.0 376.0 457.0 375.0 456.0 374.0 C 455.0 373.0 455.0 372.0 455.0 371.0 C 455.0 370.0 455.0 369.0 455.0 368.0 C 456.0 367.0 456.0 366.0 456.0 365.0 C 456.0 364.0 456.0 363.0 456.0 362.0 C 456.0 361.0 456.0 360.0 455.0 359.0 C 455.0 358.0 455.0 357.0 454.0 356.0 C 454.0 355.0 453.0 354.0 453.0 353.0 C 453.0 352.0 453.0 351.0 452.0 350.0 C 452.0 349.0 452.0 348.0 452.0 347.0 C 452.0 346.0 452.0 345.0 452.0 344.0 C 452.0 343.0 452.0 342.0 452.0 341.0 C 452.0 340.0 451.0 339.0 451.0 338.0 C 451.0 337.0 451.0 336.0 451.0 337.0" stroke-width="0.0" fill="rgb(218, 151, 93)" opacity="1.0" stroke="rgb(44, 152, 196)" stroke-opacity="0.07251779" stroke-linecap="round" stroke-linejoin="round"/>
  </g>
</svg>
