<?xml version="1.0" ?>
<svg xmlns="http://www.w3.org/2000/svg" version="1.1" width="718" height="404">
  <defs/>
  <g>
    <path d="M 1.0 0.0 C 2.0 0.0 3.0 0.0 4.0 0.0 C 5.0 0.0 6.0 0.0 7.0 0.0 C 8.0 0.0 17.0 0.0 30.0 0.0 C 43.0 0.0 56.0 0.0 69.0 0.0 C 82.0 0.0 95.0 0.0 108.0 0.0 C 121.0 0.0 134.0 0.0 147.0 0.0 C 160.0 0.0 173.0 0.0 186.0 0.0 C 199.0 0.0 212.0 0.0 225.0 0.0 C 238.0 0.0 251.0 0.0 264.0 0.0 C 277.0 0.0 290.0 0.0 303.0 0.0 C 316.0 0.0 329.0 0.0 342.0 0.0 C 355.0 0.0 368.0 0.0 381.0 0.0 C 394.0 0.0 407.0 0.0 420.0 0.0 C 433.0 0.0 446.0 0.0 459.0 0.0 C 472.0 0.0 485.0 0.0 498.0 0.0 C 511.0 0.0 524.0 0.0 537.0 0.0 C 550.0 0.0 563.0 0.0 576.0 0.0 C 589.0 0.0 602.0 0.0 615.0 0.0 C 628.0 0.0 641.0 0.0 654.0 0.0 C 667.0 0.0 680.0 0.0 693.0 0.0 C 706.0 0.0 717.0 2.0 717.0 15.0 C 717.0 28.0 717.0 41.0 717.0 54.0 C 717.0 67.0 717.0 80.0 717.0 93.0 C 717.0 106.0 717.0 119.0 717.0 132.0 C 717.0 145.0 717.0 158.0 717.0 171.0 C 717.0 184.0 717.0 197.0 717.0 210.0 C 717.0 223.0 717.0 236.0 717.0 249.0 C 717.0 262.0 717.0 275.0 717.0 288.0 C 717.0 301.0 717.0 314.0 717.0 327.0 C 717.0 340.0 717.0 353.0 717.0 366.0 C 717.0 379.0 717.0 392.0 715.0 403.0 C 702.0 403.0 689.0 403.0 676.0 403.0 C 663.0 403.0 650.0 403.0 637.0 403.0 C 624.0 403.0 611.0 403.0 598.0 403.0 C 585.0 403.0 572.0 403.0 559.0 403.0 C 546.0 403.0 533.0 403.0 520.0 403.0 C 507.0 403.0 494.0 403.0 481.0 403.0 C 468.0 403.0 455.0 403.0 442.0 403.0 C 429.0 403.0 416.0 403.0 403.0 403.0 C 390.0 403.0 377.0 403.0 364.0 403.0 C 351.0 403.0 338.0 403.0 325.0 403.0 C 312.0 403.0 299.0 403.0 286.0 403.0 C 273.0 403.0 260.0 403.0 247.0 403.0 C 234.0 403.0 221.0 403.0 208.0 403.0 C 195.0 403.0 182.0 403.0 169.0 403.0 C 156.0 403.0 143.0 403.0 130.0 403.0 C 117.0 403.0 104.0 403.0 91.0 403.0 C 78.0 403.0 65.0 403.0 52.0 403.0 C 39.0 403.0 26.0 403.0 13.0 403.0 C 0.0 403.0 0.0 390.0 0.0 377.0 C 0.0 364.0 0.0 351.0 0.0 338.0 C 0.0 325.0 0.0 312.0 0.0 299.0 C 0.0 286.0 0.0 273.0 0.0 260.0 C 0.0 247.0 0.0 234.0 0.0 221.0 C 0.0 208.0 0.0 195.0 0.0 182.0 C 0.0 169.0 0.0 156.0 0.0 143.0 C 0.0 130.0 0.0 117.0 0.0 104.0 C 0.0 91.0 0.0 78.0 0.0 65.0 C 0.0 52.0 0.0 39.0 0.0 26.0 C 0.0 13.0 0.0 0.0 1.0 0.0" stroke-width="0.0" fill="rgb(8, 6, 5)" opacity="1.0" stroke="rgb(67, 230, 155)" stroke-opacity="0.5287331" stroke-linecap="round" stroke-linejoin="round"/>
    <path d="M 176.0 124.0 C 177.0 124.0 181.0 124.0 182.0 142.0 C 182.0 162.0 184.0 181.0 190.0 189.0 C 180.0 201.0 171.0 217.0 170.0 226.0 C 183.0 224.0 178.0 239.0 179.0 242.0 C 182.0 250.0 186.0 247.0 193.0 245.0 C 207.0 245.0 225.0 241.0 238.0 249.0 C 247.0 237.0 264.0 231.0 279.0 224.0 C 289.0 210.0 304.0 200.0 324.0 188.0 C 343.0 178.0 361.0 169.0 381.0 162.0 C 398.0 154.0 417.0 149.0 432.0 146.0 C 449.0 142.0 461.0 136.0 474.0 134.0 C 483.0 136.0 492.0 130.0 495.0 128.0 C 511.0 132.0 525.0 128.0 539.0 130.0 C 556.0 133.0 551.0 149.0 551.0 169.0 C 546.0 185.0 550.0 201.0 547.0 219.0 C 556.0 231.0 559.0 249.0 568.0 254.0 C 585.0 250.0 600.0 254.0 592.0 258.0 C 581.0 268.0 576.0 273.0 593.0 269.0 C 609.0 271.0 619.0 278.0 631.0 278.0 C 650.0 279.0 669.0 275.0 679.0 271.0 C 686.0 257.0 689.0 240.0 698.0 245.0 C 705.0 233.0 709.0 225.0 709.0 245.0 C 711.0 264.0 711.0 284.0 711.0 300.0 C 711.0 320.0 711.0 340.0 711.0 360.0 C 711.0 380.0 711.0 400.0 694.0 403.0 C 678.0 401.0 677.0 386.0 670.0 391.0 C 669.0 403.0 649.0 403.0 638.0 397.0 C 656.0 391.0 656.0 387.0 637.0 393.0 C 620.0 403.0 600.0 403.0 580.0 403.0 C 560.0 403.0 563.0 400.0 583.0 395.0 C 603.0 389.0 598.0 388.0 578.0 393.0 C 558.0 398.0 538.0 403.0 520.0 403.0 C 500.0 403.0 480.0 403.0 485.0 400.0 C 505.0 390.0 525.0 382.0 541.0 386.0 C 545.0 373.0 533.0 375.0 519.0 373.0 C 513.0 353.0 501.0 334.0 486.0 314.0 C 467.0 295.0 448.0 281.0 429.0 271.0 C 409.0 264.0 389.0 259.0 369.0 256.0 C 349.0 257.0 329.0 259.0 309.0 264.0 C 290.0 271.0 273.0 280.0 255.0 291.0 C 238.0 307.0 224.0 323.0 213.0 340.0 C 205.0 357.0 199.0 375.0 210.0 388.0 C 230.0 391.0 245.0 401.0 265.0 401.0 C 284.0 403.0 264.0 403.0 244.0 403.0 C 224.0 403.0 204.0 403.0 184.0 403.0 C 164.0 403.0 144.0 403.0 124.0 394.0 C 107.0 387.0 89.0 397.0 69.0 393.0 C 58.0 393.0 54.0 394.0 45.0 403.0 C 25.0 403.0 10.0 398.0 20.0 386.0 C 19.0 384.0 10.0 374.0 10.0 354.0 C 10.0 334.0 10.0 314.0 10.0 294.0 C 10.0 274.0 12.0 259.0 12.0 239.0 C 16.0 222.0 19.0 217.0 30.0 225.0 C 38.0 233.0 53.0 233.0 60.0 233.0 C 70.0 233.0 80.0 224.0 89.0 231.0 C 98.0 233.0 113.0 242.0 104.0 224.0 C 105.0 204.0 121.0 189.0 117.0 184.0 C 116.0 174.0 134.0 175.0 136.0 160.0 C 132.0 148.0 134.0 136.0 150.0 138.0 C 155.0 134.0 175.0 124.0 176.0 124.0" stroke-width="0.0" fill="rgb(201, 178, 123)" opacity="1.0" stroke="rgb(117, 129, 124)" stroke-opacity="0.6026316" stroke-linecap="round" stroke-linejoin="round"/>
    <path d="M 340.0 260.0 C 341.0 260.0 342.0 260.0 343.0 260.0 C 344.0 260.0 345.0 260.0 346.0 260.0 C 347.0 260.0 348.0 260.0 349.0 260.0 C 350.0 260.0 351.0 260.0 352.0 260.0 C 353.0 260.0 354.0 260.0 355.0 260.0 C 356.0 260.0 357.0 260.0 358.0 260.0 C 359.0 260.0 360.0 260.0 361.0 260.0 C 362.0 260.0 363.0 260.0 364.0 260.0 C 365.0 260.0 366.0 260.0 367.0 260.0 C 368.0 260.0 370.0 260.0 377.0 260.0 C 384.0 261.0 391.0 262.0 398.0 264.0 C 404.0 266.0 411.0 268.0 418.0 270.0 C 425.0 273.0 432.0 276.0 439.0 280.0 C 446.0 284.0 451.0 289.0 458.0 292.0 C 462.0 298.0 467.0 301.0 473.0 304.0 C 478.0 310.0 481.0 316.0 486.0 322.0 C 489.0 325.0 484.0 328.0 481.0 333.0 C 484.0 338.0 485.0 345.0 488.0 350.0 C 486.0 356.0 479.0 361.0 475.0 365.0 C 469.0 369.0 464.0 372.0 463.0 379.0 C 469.0 380.0 475.0 378.0 479.0 380.0 C 480.0 387.0 474.0 388.0 469.0 391.0 C 466.0 393.0 459.0 393.0 452.0 392.0 C 451.0 386.0 451.0 379.0 448.0 374.0 C 446.0 368.0 446.0 361.0 446.0 354.0 C 446.0 347.0 446.0 340.0 446.0 333.0 C 447.0 327.0 451.0 323.0 452.0 317.0 C 454.0 311.0 450.0 307.0 447.0 311.0 C 444.0 306.0 437.0 306.0 430.0 306.0 C 423.0 306.0 418.0 304.0 412.0 301.0 C 405.0 301.0 399.0 300.0 394.0 296.0 C 389.0 298.0 385.0 294.0 380.0 291.0 C 373.0 293.0 367.0 294.0 360.0 294.0 C 353.0 295.0 346.0 295.0 341.0 291.0 C 336.0 293.0 339.0 297.0 334.0 300.0 C 327.0 300.0 320.0 302.0 316.0 306.0 C 309.0 308.0 304.0 312.0 301.0 317.0 C 298.0 321.0 291.0 322.0 289.0 323.0 C 287.0 326.0 284.0 330.0 283.0 336.0 C 283.0 340.0 276.0 340.0 272.0 344.0 C 277.0 348.0 274.0 352.0 275.0 354.0 C 273.0 360.0 273.0 367.0 278.0 370.0 C 274.0 373.0 272.0 380.0 272.0 387.0 C 270.0 392.0 269.0 386.0 266.0 386.0 C 265.0 392.0 260.0 395.0 255.0 397.0 C 250.0 396.0 244.0 392.0 238.0 391.0 C 232.0 388.0 227.0 384.0 220.0 383.0 C 213.0 382.0 211.0 376.0 217.0 371.0 C 220.0 374.0 225.0 377.0 229.0 374.0 C 227.0 370.0 231.0 374.0 233.0 368.0 C 235.0 362.0 236.0 355.0 239.0 351.0 C 243.0 354.0 243.0 347.0 245.0 341.0 C 243.0 335.0 242.0 329.0 242.0 322.0 C 239.0 326.0 236.0 330.0 236.0 324.0 C 235.0 318.0 239.0 312.0 243.0 307.0 C 250.0 301.0 255.0 296.0 262.0 291.0 C 269.0 286.0 276.0 282.0 283.0 278.0 C 290.0 274.0 297.0 271.0 304.0 269.0 C 311.0 266.0 318.0 264.0 325.0 263.0 C 332.0 261.0 339.0 260.0 340.0 260.0" stroke-width="0.0" fill="rgb(228, 108, 38)" opacity="1.0" stroke="rgb(52, 191, 23)" stroke-opacity="0.51390564" stroke-linecap="round" stroke-linejoin="round"/>
    <path d="M 375.0 173.0 C 376.0 173.0 377.0 173.0 378.0 173.0 C 379.0 173.0 380.0 173.0 381.0 173.0 C 382.0 173.0 383.0 173.0 384.0 173.0 C 385.0 173.0 386.0 173.0 387.0 173.0 C 388.0 173.0 389.0 173.0 390.0 173.0 C 391.0 173.0 392.0 173.0 393.0 173.0 C 394.0 173.0 395.0 173.0 396.0 173.0 C 397.0 173.0 398.0 173.0 399.0 173.0 C 400.0 173.0 401.0 173.0 402.0 173.0 C 403.0 173.0 404.0 173.0 405.0 173.0 C 406.0 173.0 407.0 173.0 408.0 173.0 C 409.0 173.0 410.0 173.0 411.0 173.0 C 411.0 174.0 411.0 175.0 411.0 176.0 C 411.0 177.0 411.0 178.0 411.0 179.0 C 411.0 180.0 411.0 181.0 412.0 182.0 C 413.0 183.0 414.0 183.0 415.0 183.0 C 416.0 183.0 420.0 183.0 421.0 186.0 C 421.0 190.0 423.0 193.0 426.0 194.0 C 426.0 198.0 424.0 200.0 421.0 202.0 C 421.0 206.0 421.0 210.0 421.0 214.0 C 418.0 215.0 414.0 215.0 410.0 215.0 C 406.0 215.0 402.0 215.0 398.0 215.0 C 397.0 219.0 397.0 223.0 399.0 226.0 C 403.0 226.0 407.0 226.0 406.0 229.0 C 402.0 230.0 402.0 234.0 405.0 236.0 C 407.0 238.0 407.0 242.0 404.0 243.0 C 402.0 246.0 404.0 249.0 408.0 249.0 C 412.0 249.0 412.0 253.0 415.0 255.0 C 416.0 258.0 419.0 260.0 417.0 262.0 C 415.0 259.0 412.0 257.0 412.0 253.0 C 411.0 249.0 407.0 249.0 403.0 249.0 C 399.0 249.0 395.0 249.0 391.0 249.0 C 387.0 249.0 383.0 249.0 383.0 245.0 C 383.0 241.0 379.0 240.0 375.0 240.0 C 371.0 240.0 367.0 240.0 363.0 240.0 C 359.0 240.0 355.0 241.0 357.0 244.0 C 361.0 244.0 363.0 245.0 359.0 245.0 C 355.0 245.0 355.0 249.0 359.0 249.0 C 363.0 250.0 367.0 251.0 371.0 251.0 C 374.0 252.0 372.0 255.0 370.0 253.0 C 374.0 252.0 370.0 251.0 366.0 251.0 C 364.0 254.0 361.0 255.0 357.0 254.0 C 353.0 255.0 349.0 255.0 346.0 254.0 C 349.0 253.0 353.0 253.0 356.0 251.0 C 352.0 250.0 350.0 248.0 350.0 244.0 C 354.0 244.0 355.0 240.0 359.0 240.0 C 363.0 240.0 365.0 236.0 369.0 236.0 C 370.0 232.0 367.0 230.0 364.0 228.0 C 367.0 226.0 371.0 226.0 375.0 225.0 C 375.0 221.0 372.0 219.0 368.0 219.0 C 365.0 218.0 363.0 215.0 360.0 214.0 C 359.0 210.0 356.0 209.0 354.0 205.0 C 350.0 205.0 349.0 209.0 346.0 210.0 C 342.0 210.0 341.0 207.0 341.0 203.0 C 339.0 200.0 337.0 198.0 337.0 194.0 C 340.0 193.0 344.0 193.0 348.0 193.0 C 352.0 193.0 355.0 191.0 355.0 187.0 C 355.0 183.0 358.0 182.0 362.0 182.0 C 366.0 182.0 370.0 182.0 374.0 181.0 C 374.0 177.0 374.0 173.0 375.0 173.0" stroke-width="0.0" fill="rgb(236, 140, 109)" opacity="1.0" stroke="rgb(48, 229, 147)" stroke-opacity="0.8371771" stroke-linecap="round" stroke-linejoin="round"/>
    <path d="M 323.0 311.0 C 324.0 311.0 325.0 311.0 326.0 312.0 C 327.0 312.0 328.0 312.0 329.0 312.0 C 330.0 312.0 331.0 312.0 332.0 312.0 C 335.0 312.0 339.0 311.0 343.0 312.0 C 347.0 312.0 350.0 314.0 354.0 314.0 C 358.0 314.0 361.0 312.0 365.0 312.0 C 369.0 312.0 373.0 312.0 374.0 316.0 C 374.0 320.0 374.0 322.0 371.0 320.0 C 369.0 323.0 366.0 321.0 362.0 321.0 C 358.0 321.0 354.0 321.0 351.0 320.0 C 355.0 321.0 359.0 321.0 363.0 321.0 C 367.0 320.0 371.0 320.0 374.0 318.0 C 371.0 316.0 367.0 316.0 363.0 316.0 C 360.0 315.0 356.0 314.0 352.0 315.0 C 348.0 315.0 345.0 313.0 341.0 313.0 C 340.0 317.0 340.0 321.0 336.0 321.0 C 332.0 321.0 330.0 324.0 333.0 326.0 C 333.0 326.0 329.0 326.0 326.0 324.0 C 324.0 321.0 321.0 323.0 321.0 327.0 C 321.0 331.0 321.0 335.0 325.0 336.0 C 321.0 336.0 317.0 336.0 315.0 339.0 C 319.0 340.0 323.0 340.0 323.0 340.0 C 319.0 341.0 315.0 340.0 311.0 341.0 C 311.0 345.0 311.0 349.0 311.0 353.0 C 311.0 357.0 309.0 359.0 306.0 361.0 C 307.0 365.0 311.0 365.0 312.0 369.0 C 316.0 369.0 320.0 368.0 324.0 369.0 C 326.0 372.0 329.0 374.0 327.0 374.0 C 327.0 378.0 331.0 379.0 335.0 379.0 C 331.0 379.0 327.0 379.0 327.0 383.0 C 331.0 383.0 335.0 383.0 336.0 387.0 C 340.0 388.0 344.0 388.0 342.0 389.0 C 338.0 389.0 336.0 392.0 340.0 393.0 C 344.0 393.0 348.0 393.0 352.0 393.0 C 356.0 393.0 360.0 393.0 364.0 393.0 C 368.0 393.0 372.0 393.0 370.0 393.0 C 366.0 393.0 364.0 396.0 362.0 397.0 C 358.0 397.0 354.0 397.0 350.0 397.0 C 346.0 397.0 344.0 401.0 342.0 403.0 C 338.0 403.0 334.0 403.0 331.0 402.0 C 328.0 400.0 325.0 397.0 321.0 397.0 C 317.0 397.0 318.0 394.0 322.0 393.0 C 322.0 389.0 318.0 388.0 317.0 385.0 C 313.0 383.0 312.0 380.0 309.0 378.0 C 306.0 380.0 306.0 384.0 310.0 385.0 C 311.0 388.0 315.0 389.0 314.0 392.0 C 310.0 392.0 308.0 390.0 305.0 387.0 C 303.0 385.0 300.0 383.0 298.0 381.0 C 298.0 377.0 298.0 373.0 298.0 369.0 C 294.0 368.0 293.0 365.0 295.0 362.0 C 293.0 359.0 293.0 355.0 296.0 357.0 C 295.0 361.0 296.0 365.0 300.0 365.0 C 303.0 362.0 303.0 358.0 303.0 354.0 C 303.0 350.0 303.0 346.0 299.0 344.0 C 298.0 341.0 302.0 341.0 303.0 337.0 C 306.0 336.0 310.0 336.0 312.0 333.0 C 314.0 331.0 317.0 329.0 316.0 325.0 C 312.0 325.0 313.0 322.0 317.0 321.0 C 320.0 320.0 322.0 317.0 326.0 316.0 C 325.0 312.0 322.0 311.0 323.0 311.0" stroke-width="0.0" fill="rgb(228, 63, 38)" opacity="1.0" stroke="rgb(212, 183, 232)" stroke-opacity="0.8998815" stroke-linecap="round" stroke-linejoin="round"/>
    <path d="M 635.0 135.0 C 636.0 135.0 637.0 135.0 637.0 136.0 C 637.0 137.0 637.0 138.0 638.0 139.0 C 639.0 139.0 640.0 139.0 641.0 139.0 C 642.0 139.0 642.0 140.0 642.0 141.0 C 642.0 142.0 642.0 143.0 643.0 144.0 C 643.0 145.0 643.0 146.0 643.0 147.0 C 643.0 148.0 643.0 149.0 643.0 150.0 C 643.0 151.0 643.0 152.0 643.0 153.0 C 643.0 154.0 643.0 155.0 643.0 156.0 C 643.0 157.0 643.0 158.0 643.0 159.0 C 643.0 160.0 643.0 161.0 643.0 162.0 C 643.0 163.0 643.0 164.0 643.0 165.0 C 643.0 166.0 643.0 167.0 643.0 168.0 C 643.0 171.0 643.0 175.0 643.0 179.0 C 643.0 183.0 642.0 186.0 638.0 187.0 C 638.0 191.0 638.0 195.0 638.0 199.0 C 638.0 203.0 638.0 207.0 639.0 211.0 C 643.0 210.0 643.0 206.0 643.0 202.0 C 643.0 198.0 643.0 194.0 645.0 192.0 C 649.0 192.0 653.0 190.0 653.0 186.0 C 653.0 182.0 653.0 178.0 653.0 174.0 C 653.0 170.0 653.0 166.0 654.0 163.0 C 657.0 161.0 659.0 158.0 662.0 156.0 C 662.0 152.0 662.0 148.0 666.0 148.0 C 662.0 149.0 662.0 153.0 666.0 154.0 C 670.0 154.0 671.0 157.0 668.0 158.0 C 666.0 161.0 666.0 165.0 664.0 167.0 C 662.0 170.0 660.0 172.0 657.0 174.0 C 657.0 178.0 657.0 182.0 657.0 186.0 C 657.0 190.0 657.0 194.0 657.0 198.0 C 654.0 195.0 650.0 196.0 647.0 198.0 C 647.0 202.0 651.0 202.0 652.0 205.0 C 654.0 208.0 652.0 210.0 648.0 210.0 C 647.0 214.0 644.0 215.0 640.0 216.0 C 637.0 215.0 637.0 219.0 633.0 220.0 C 630.0 222.0 626.0 223.0 626.0 227.0 C 624.0 231.0 622.0 234.0 620.0 236.0 C 619.0 234.0 618.0 230.0 614.0 230.0 C 613.0 234.0 609.0 234.0 610.0 230.0 C 614.0 229.0 614.0 225.0 614.0 221.0 C 610.0 220.0 609.0 224.0 606.0 225.0 C 602.0 225.0 599.0 227.0 598.0 230.0 C 595.0 228.0 595.0 224.0 594.0 220.0 C 590.0 220.0 586.0 220.0 585.0 217.0 C 582.0 215.0 581.0 212.0 584.0 211.0 C 585.0 215.0 587.0 213.0 589.0 216.0 C 593.0 216.0 595.0 213.0 597.0 211.0 C 601.0 211.0 605.0 210.0 605.0 206.0 C 605.0 202.0 605.0 198.0 607.0 198.0 C 608.0 202.0 612.0 202.0 613.0 205.0 C 613.0 209.0 613.0 213.0 613.0 217.0 C 615.0 219.0 615.0 215.0 615.0 211.0 C 615.0 207.0 615.0 203.0 615.0 199.0 C 616.0 195.0 618.0 192.0 622.0 193.0 C 623.0 189.0 624.0 185.0 624.0 181.0 C 623.0 179.0 625.0 175.0 624.0 171.0 C 625.0 167.0 623.0 163.0 622.0 160.0 C 625.0 158.0 624.0 154.0 625.0 150.0 C 628.0 148.0 630.0 145.0 634.0 143.0 C 634.0 139.0 634.0 135.0 635.0 135.0" stroke-width="0.0" fill="rgb(227, 199, 125)" opacity="1.0" stroke="rgb(110, 122, 46)" stroke-opacity="0.40650314" stroke-linecap="round" stroke-linejoin="round"/>
    <path d="M 29.0 307.0 C 30.0 307.0 31.0 307.0 31.0 308.0 C 31.0 309.0 31.0 310.0 31.0 311.0 C 31.0 312.0 31.0 313.0 31.0 314.0 C 31.0 315.0 31.0 316.0 30.0 316.0 C 29.0 316.0 28.0 316.0 27.0 317.0 C 27.0 318.0 27.0 319.0 27.0 320.0 C 27.0 321.0 27.0 322.0 27.0 323.0 C 27.0 324.0 27.0 325.0 28.0 326.0 C 29.0 327.0 30.0 327.0 31.0 327.0 C 32.0 327.0 33.0 327.0 34.0 327.0 C 35.0 327.0 36.0 327.0 37.0 327.0 C 37.0 328.0 37.0 329.0 37.0 330.0 C 37.0 331.0 37.0 332.0 37.0 333.0 C 37.0 334.0 37.0 335.0 38.0 336.0 C 39.0 337.0 40.0 337.0 41.0 337.0 C 42.0 337.0 43.0 337.0 44.0 337.0 C 45.0 337.0 46.0 337.0 47.0 337.0 C 48.0 337.0 49.0 337.0 50.0 337.0 C 51.0 337.0 51.0 338.0 51.0 339.0 C 51.0 340.0 51.0 341.0 51.0 342.0 C 51.0 343.0 50.0 343.0 49.0 343.0 C 48.0 344.0 47.0 345.0 47.0 346.0 C 46.0 347.0 46.0 348.0 46.0 349.0 C 46.0 350.0 45.0 350.0 44.0 350.0 C 43.0 351.0 43.0 352.0 43.0 353.0 C 43.0 354.0 43.0 355.0 43.0 356.0 C 42.0 357.0 42.0 358.0 43.0 359.0 C 44.0 359.0 45.0 358.0 45.0 357.0 C 46.0 357.0 47.0 357.0 48.0 356.0 C 49.0 356.0 50.0 356.0 51.0 356.0 C 52.0 356.0 53.0 357.0 54.0 356.0 C 55.0 356.0 56.0 356.0 56.0 357.0 C 56.0 358.0 56.0 359.0 55.0 359.0 C 54.0 359.0 53.0 359.0 52.0 360.0 C 52.0 361.0 52.0 362.0 52.0 363.0 C 52.0 364.0 53.0 365.0 54.0 365.0 C 55.0 365.0 56.0 365.0 56.0 366.0 C 56.0 367.0 56.0 368.0 56.0 369.0 C 56.0 370.0 55.0 371.0 56.0 372.0 C 57.0 372.0 57.0 373.0 56.0 373.0 C 55.0 373.0 54.0 373.0 53.0 373.0 C 52.0 373.0 51.0 373.0 50.0 373.0 C 49.0 373.0 48.0 373.0 47.0 373.0 C 46.0 373.0 45.0 373.0 44.0 373.0 C 44.0 372.0 44.0 371.0 43.0 369.0 C 41.0 368.0 39.0 368.0 37.0 368.0 C 35.0 368.0 34.0 367.0 34.0 365.0 C 34.0 363.0 34.0 361.0 33.0 359.0 C 31.0 359.0 29.0 359.0 27.0 359.0 C 25.0 359.0 24.0 358.0 24.0 356.0 C 24.0 354.0 24.0 352.0 24.0 350.0 C 24.0 348.0 24.0 346.0 24.0 344.0 C 24.0 342.0 24.0 340.0 22.0 339.0 C 20.0 339.0 20.0 337.0 20.0 335.0 C 20.0 333.0 20.0 331.0 20.0 329.0 C 20.0 327.0 20.0 325.0 20.0 323.0 C 20.0 321.0 20.0 319.0 20.0 317.0 C 20.0 315.0 20.0 313.0 21.0 312.0 C 23.0 312.0 24.0 310.0 24.0 308.0 C 26.0 308.0 28.0 307.0 29.0 307.0" stroke-width="0.0" fill="rgb(216, 140, 112)" opacity="1.0" stroke="rgb(186, 24, 62)" stroke-opacity="0.17232631" stroke-linecap="round" stroke-linejoin="round"/>
    <path d="M 119.0 142.0 C 120.0 142.0 121.0 142.0 121.0 143.0 C 122.0 144.0 123.0 144.0 124.0 144.0 C 124.0 145.0 124.0 146.0 124.0 147.0 C 124.0 148.0 123.0 148.0 122.0 148.0 C 121.0 148.0 120.0 148.0 119.0 149.0 C 119.0 150.0 119.0 151.0 119.0 152.0 C 119.0 153.0 119.0 154.0 119.0 155.0 C 119.0 156.0 119.0 157.0 119.0 158.0 C 119.0 159.0 120.0 160.0 121.0 160.0 C 122.0 160.0 123.0 160.0 124.0 160.0 C 125.0 160.0 125.0 161.0 126.0 162.0 C 125.0 162.0 124.0 162.0 123.0 162.0 C 122.0 162.0 121.0 162.0 120.0 162.0 C 119.0 163.0 118.0 162.0 117.0 162.0 C 116.0 162.0 115.0 162.0 115.0 161.0 C 115.0 160.0 115.0 159.0 115.0 158.0 C 114.0 157.0 111.0 157.0 109.0 160.0 C 106.0 160.0 105.0 163.0 105.0 166.0 C 106.0 169.0 103.0 169.0 100.0 169.0 C 97.0 171.0 95.0 173.0 97.0 176.0 C 95.0 177.0 92.0 178.0 92.0 181.0 C 91.0 182.0 88.0 181.0 86.0 183.0 C 87.0 186.0 87.0 189.0 89.0 191.0 C 87.0 190.0 87.0 187.0 84.0 186.0 C 82.0 188.0 82.0 191.0 81.0 194.0 C 80.0 196.0 77.0 197.0 77.0 200.0 C 74.0 201.0 71.0 202.0 71.0 205.0 C 73.0 207.0 73.0 210.0 75.0 212.0 C 72.0 213.0 72.0 210.0 69.0 210.0 C 66.0 212.0 66.0 215.0 63.0 215.0 C 61.0 217.0 61.0 220.0 60.0 222.0 C 57.0 222.0 54.0 222.0 51.0 221.0 C 48.0 220.0 48.0 217.0 46.0 215.0 C 43.0 215.0 43.0 212.0 41.0 210.0 C 38.0 210.0 38.0 207.0 36.0 205.0 C 34.0 204.0 33.0 201.0 30.0 201.0 C 27.0 201.0 24.0 201.0 24.0 198.0 C 22.0 196.0 19.0 196.0 17.0 198.0 C 17.0 195.0 15.0 193.0 13.0 191.0 C 12.0 189.0 13.0 187.0 16.0 187.0 C 16.0 190.0 18.0 191.0 18.0 188.0 C 18.0 185.0 19.0 182.0 22.0 182.0 C 25.0 182.0 28.0 182.0 31.0 182.0 C 34.0 182.0 37.0 182.0 39.0 180.0 C 39.0 177.0 39.0 174.0 38.0 171.0 C 36.0 169.0 33.0 170.0 30.0 171.0 C 29.0 169.0 30.0 167.0 33.0 167.0 C 36.0 166.0 39.0 164.0 42.0 164.0 C 45.0 164.0 48.0 164.0 50.0 162.0 C 53.0 162.0 55.0 164.0 58.0 163.0 C 60.0 162.0 63.0 163.0 66.0 163.0 C 68.0 161.0 66.0 159.0 67.0 156.0 C 69.0 154.0 72.0 153.0 75.0 154.0 C 78.0 153.0 81.0 154.0 84.0 152.0 C 87.0 152.0 89.0 154.0 92.0 154.0 C 95.0 154.0 96.0 151.0 97.0 149.0 C 100.0 149.0 103.0 149.0 105.0 150.0 C 105.0 153.0 108.0 154.0 111.0 152.0 C 111.0 149.0 111.0 146.0 112.0 143.0 C 115.0 143.0 118.0 142.0 119.0 142.0" stroke-width="0.0" fill="rgb(233, 210, 129)" opacity="1.0" stroke="rgb(249, 157, 205)" stroke-opacity="0.865476" stroke-linecap="round" stroke-linejoin="round"/>
    <path d="M 87.0 251.0 C 88.0 251.0 89.0 251.0 90.0 251.0 C 109.0 256.0 126.0 274.0 129.0 284.0 C 124.0 296.0 106.0 311.0 111.0 321.0 C 114.0 333.0 107.0 326.0 99.0 333.0 C 91.0 341.0 104.0 353.0 111.0 365.0 C 118.0 357.0 122.0 346.0 129.0 331.0 C 133.0 346.0 136.0 364.0 143.0 355.0 C 156.0 352.0 168.0 352.0 179.0 350.0 C 174.0 369.0 178.0 383.0 188.0 381.0 C 202.0 379.0 209.0 356.0 221.0 333.0 C 235.0 325.0 244.0 340.0 237.0 350.0 C 230.0 369.0 218.0 369.0 218.0 384.0 C 237.0 392.0 257.0 399.0 273.0 389.0 C 279.0 370.0 278.0 354.0 274.0 341.0 C 284.0 331.0 300.0 322.0 313.0 307.0 C 333.0 301.0 347.0 296.0 370.0 295.0 C 388.0 297.0 405.0 302.0 425.0 307.0 C 445.0 310.0 450.0 317.0 445.0 336.0 C 445.0 359.0 450.0 379.0 460.0 394.0 C 477.0 389.0 472.0 378.0 471.0 368.0 C 489.0 354.0 482.0 335.0 495.0 328.0 C 508.0 351.0 516.0 373.0 528.0 380.0 C 538.0 378.0 549.0 365.0 563.0 354.0 C 578.0 339.0 591.0 348.0 589.0 363.0 C 602.0 372.0 598.0 358.0 599.0 342.0 C 610.0 332.0 626.0 320.0 640.0 333.0 C 635.0 346.0 648.0 356.0 652.0 355.0 C 664.0 348.0 682.0 353.0 683.0 333.0 C 703.0 329.0 689.0 321.0 675.0 313.0 C 675.0 303.0 692.0 293.0 705.0 288.0 C 709.0 283.0 709.0 302.0 709.0 325.0 C 709.0 348.0 709.0 371.0 711.0 393.0 C 698.0 403.0 676.0 401.0 654.0 403.0 C 631.0 403.0 608.0 403.0 585.0 403.0 C 562.0 403.0 539.0 403.0 516.0 403.0 C 493.0 403.0 470.0 403.0 447.0 403.0 C 424.0 403.0 401.0 403.0 378.0 403.0 C 355.0 403.0 354.0 398.0 373.0 394.0 C 352.0 392.0 343.0 390.0 329.0 382.0 C 327.0 376.0 316.0 368.0 312.0 357.0 C 319.0 342.0 320.0 337.0 322.0 322.0 C 331.0 324.0 345.0 314.0 366.0 317.0 C 359.0 320.0 363.0 322.0 375.0 317.0 C 357.0 313.0 335.0 311.0 324.0 316.0 C 315.0 326.0 302.0 336.0 302.0 352.0 C 297.0 357.0 294.0 369.0 302.0 385.0 C 315.0 388.0 311.0 382.0 316.0 394.0 C 327.0 403.0 304.0 403.0 281.0 403.0 C 258.0 403.0 235.0 403.0 212.0 403.0 C 189.0 403.0 166.0 403.0 143.0 403.0 C 122.0 403.0 99.0 403.0 86.0 403.0 C 63.0 403.0 40.0 403.0 17.0 403.0 C 9.0 388.0 9.0 372.0 9.0 349.0 C 13.0 327.0 12.0 304.0 16.0 307.0 C 16.0 330.0 23.0 348.0 33.0 362.0 C 47.0 374.0 67.0 374.0 87.0 378.0 C 105.0 369.0 96.0 359.0 86.0 357.0 C 82.0 373.0 75.0 354.0 58.0 344.0 C 67.0 326.0 62.0 305.0 67.0 289.0 C 68.0 267.0 86.0 251.0 87.0 251.0" stroke-width="0.0" fill="rgb(200, 132, 113)" opacity="1.0" stroke="rgb(144, 214, 205)" stroke-opacity="0.4096792" stroke-linecap="round" stroke-linejoin="round"/>
    <path d="M 178.0 123.0 C 179.0 123.0 180.0 123.0 181.0 123.0 C 182.0 123.0 183.0 128.0 183.0 145.0 C 183.0 162.0 183.0 179.0 169.0 182.0 C 169.0 199.0 171.0 215.0 179.0 207.0 C 188.0 195.0 195.0 183.0 204.0 171.0 C 204.0 186.0 196.0 203.0 195.0 220.0 C 210.0 233.0 227.0 236.0 244.0 234.0 C 261.0 229.0 275.0 219.0 292.0 206.0 C 309.0 195.0 326.0 185.0 343.0 176.0 C 360.0 169.0 374.0 163.0 390.0 156.0 C 406.0 153.0 414.0 156.0 424.0 152.0 C 421.0 147.0 437.0 141.0 442.0 152.0 C 456.0 149.0 469.0 144.0 477.0 154.0 C 486.0 163.0 488.0 178.0 498.0 186.0 C 502.0 201.0 508.0 213.0 509.0 230.0 C 516.0 220.0 513.0 206.0 517.0 219.0 C 528.0 213.0 537.0 218.0 537.0 235.0 C 536.0 252.0 530.0 244.0 528.0 260.0 C 527.0 277.0 510.0 278.0 508.0 294.0 C 502.0 302.0 501.0 312.0 494.0 318.0 C 479.0 309.0 472.0 298.0 458.0 291.0 C 447.0 281.0 436.0 275.0 423.0 269.0 C 407.0 266.0 393.0 260.0 379.0 260.0 C 364.0 259.0 350.0 256.0 365.0 253.0 C 375.0 251.0 358.0 248.0 363.0 243.0 C 364.0 241.0 381.0 241.0 390.0 250.0 C 407.0 250.0 414.0 261.0 415.0 254.0 C 403.0 248.0 407.0 235.0 408.0 226.0 C 398.0 218.0 413.0 216.0 422.0 207.0 C 427.0 194.0 420.0 182.0 411.0 172.0 C 394.0 172.0 377.0 172.0 368.0 181.0 C 354.0 185.0 344.0 192.0 338.0 201.0 C 346.0 211.0 356.0 211.0 366.0 220.0 C 370.0 225.0 369.0 233.0 356.0 239.0 C 349.0 251.0 340.0 259.0 326.0 259.0 C 315.0 264.0 302.0 268.0 287.0 272.0 C 274.0 281.0 267.0 284.0 256.0 289.0 C 252.0 299.0 248.0 297.0 242.0 296.0 C 232.0 288.0 222.0 298.0 215.0 298.0 C 203.0 292.0 196.0 281.0 197.0 266.0 C 202.0 253.0 197.0 247.0 190.0 253.0 C 185.0 239.0 180.0 253.0 180.0 239.0 C 182.0 225.0 173.0 220.0 165.0 235.0 C 154.0 248.0 141.0 253.0 124.0 252.0 C 107.0 243.0 96.0 227.0 86.0 225.0 C 76.0 230.0 61.0 230.0 46.0 230.0 C 33.0 232.0 24.0 225.0 16.0 213.0 C 10.0 203.0 15.0 194.0 23.0 201.0 C 37.0 206.0 46.0 216.0 59.0 223.0 C 67.0 212.0 74.0 207.0 80.0 197.0 C 86.0 190.0 89.0 182.0 96.0 174.0 C 106.0 165.0 114.0 162.0 124.0 159.0 C 123.0 149.0 115.0 142.0 106.0 153.0 C 95.0 151.0 81.0 153.0 66.0 157.0 C 55.0 162.0 39.0 163.0 30.0 172.0 C 38.0 180.0 22.0 181.0 10.0 184.0 C 12.0 167.0 29.0 160.0 46.0 153.0 C 63.0 148.0 80.0 144.0 97.0 140.0 C 114.0 137.0 131.0 135.0 144.0 135.0 C 160.0 132.0 177.0 123.0 178.0 123.0" stroke-width="0.0" fill="rgb(233, 157, 113)" opacity="1.0" stroke="rgb(178, 211, 125)" stroke-opacity="0.36381274" stroke-linecap="round" stroke-linejoin="round"/>
    <path d="M 135.0 189.0 C 136.0 189.0 137.0 189.0 138.0 189.0 C 139.0 190.0 140.0 190.0 141.0 190.0 C 142.0 190.0 143.0 191.0 144.0 191.0 C 145.0 192.0 146.0 192.0 147.0 193.0 C 148.0 193.0 149.0 194.0 150.0 194.0 C 151.0 195.0 152.0 196.0 153.0 197.0 C 154.0 198.0 155.0 199.0 156.0 200.0 C 156.0 201.0 157.0 202.0 158.0 203.0 C 158.0 204.0 159.0 205.0 159.0 206.0 C 160.0 207.0 160.0 208.0 160.0 209.0 C 161.0 210.0 161.0 211.0 161.0 212.0 C 161.0 213.0 161.0 214.0 161.0 215.0 C 161.0 216.0 161.0 217.0 161.0 218.0 C 161.0 219.0 161.0 220.0 161.0 221.0 C 160.0 222.0 160.0 223.0 160.0 224.0 C 159.0 225.0 159.0 226.0 159.0 227.0 C 158.0 228.0 158.0 229.0 157.0 230.0 C 156.0 231.0 156.0 232.0 155.0 233.0 C 154.0 234.0 153.0 235.0 152.0 236.0 C 151.0 237.0 150.0 238.0 149.0 238.0 C 148.0 239.0 147.0 239.0 146.0 240.0 C 145.0 241.0 144.0 241.0 143.0 241.0 C 142.0 242.0 141.0 242.0 140.0 242.0 C 139.0 242.0 138.0 242.0 137.0 243.0 C 136.0 243.0 135.0 243.0 135.0 242.0 C 135.0 241.0 136.0 240.0 137.0 239.0 C 138.0 238.0 139.0 237.0 140.0 237.0 C 141.0 236.0 141.0 235.0 142.0 234.0 C 143.0 233.0 143.0 232.0 144.0 231.0 C 144.0 230.0 145.0 229.0 145.0 228.0 C 146.0 227.0 146.0 226.0 147.0 225.0 C 147.0 224.0 147.0 223.0 147.0 222.0 C 147.0 221.0 148.0 220.0 148.0 219.0 C 148.0 218.0 148.0 217.0 148.0 216.0 C 148.0 215.0 148.0 214.0 147.0 213.0 C 147.0 212.0 147.0 211.0 147.0 210.0 C 147.0 209.0 146.0 208.0 146.0 207.0 C 146.0 206.0 145.0 205.0 145.0 204.0 C 144.0 203.0 144.0 202.0 143.0 201.0 C 142.0 200.0 142.0 199.0 141.0 198.0 C 140.0 197.0 139.0 196.0 139.0 195.0 C 138.0 194.0 137.0 194.0 136.0 193.0 C 135.0 192.0 134.0 191.0 133.0 191.0 C 133.0 190.0 133.0 189.0 135.0 189.0" stroke-width="0.0" fill="rgb(1, 7, 6)" opacity="1.0" stroke="rgb(179, 22, 15)" stroke-opacity="0.7400452" stroke-linecap="round" stroke-linejoin="round"/>
    <path d="M 123.0 192.0 C 124.0 192.0 125.0 192.0 126.0 192.0 C 127.0 192.0 128.0 192.0 128.0 193.0 C 129.0 194.0 130.0 194.0 131.0 195.0 C 132.0 196.0 133.0 196.0 134.0 196.0 C 135.0 196.0 136.0 196.0 137.0 197.0 C 138.0 198.0 139.0 199.0 139.0 200.0 C 140.0 201.0 141.0 202.0 141.0 203.0 C 141.0 204.0 142.0 205.0 143.0 206.0 C 143.0 207.0 144.0 208.0 144.0 209.0 C 144.0 210.0 145.0 211.0 145.0 212.0 C 145.0 213.0 145.0 214.0 145.0 215.0 C 145.0 216.0 145.0 217.0 145.0 218.0 C 145.0 219.0 145.0 220.0 144.0 221.0 C 144.0 222.0 144.0 223.0 144.0 224.0 C 144.0 225.0 143.0 226.0 143.0 227.0 C 143.0 228.0 142.0 229.0 141.0 230.0 C 141.0 231.0 140.0 232.0 139.0 232.0 C 138.0 232.0 137.0 232.0 136.0 233.0 C 137.0 234.0 137.0 235.0 137.0 236.0 C 136.0 236.0 135.0 236.0 134.0 236.0 C 133.0 237.0 133.0 238.0 132.0 238.0 C 131.0 238.0 130.0 239.0 129.0 239.0 C 128.0 239.0 127.0 239.0 126.0 238.0 C 125.0 238.0 124.0 238.0 123.0 238.0 C 122.0 237.0 121.0 236.0 120.0 235.0 C 119.0 234.0 118.0 233.0 117.0 232.0 C 116.0 231.0 115.0 231.0 114.0 231.0 C 114.0 230.0 113.0 229.0 112.0 228.0 C 112.0 227.0 112.0 226.0 111.0 225.0 C 110.0 224.0 109.0 223.0 108.0 222.0 C 107.0 221.0 107.0 220.0 107.0 219.0 C 107.0 218.0 107.0 217.0 107.0 216.0 C 107.0 215.0 107.0 214.0 107.0 213.0 C 107.0 212.0 108.0 212.0 109.0 211.0 C 110.0 211.0 111.0 210.0 110.0 209.0 C 109.0 208.0 108.0 208.0 108.0 207.0 C 108.0 206.0 108.0 205.0 109.0 204.0 C 110.0 203.0 110.0 202.0 111.0 202.0 C 112.0 202.0 113.0 202.0 114.0 201.0 C 114.0 200.0 115.0 199.0 116.0 199.0 C 117.0 198.0 118.0 198.0 119.0 197.0 C 120.0 196.0 121.0 195.0 121.0 194.0 C 122.0 193.0 122.0 192.0 123.0 192.0" stroke-width="0.0" fill="rgb(18, 171, 158)" opacity="1.0" stroke="rgb(124, 100, 253)" stroke-opacity="0.3650914" stroke-linecap="round" stroke-linejoin="round"/>
    <path d="M 683.0 173.0 C 684.0 173.0 685.0 173.0 686.0 173.0 C 687.0 173.0 688.0 173.0 689.0 173.0 C 690.0 173.0 690.0 174.0 690.0 175.0 C 690.0 176.0 690.0 177.0 690.0 178.0 C 690.0 179.0 690.0 180.0 690.0 181.0 C 690.0 182.0 691.0 183.0 692.0 183.0 C 693.0 183.0 694.0 183.0 695.0 183.0 C 696.0 183.0 697.0 183.0 698.0 183.0 C 699.0 183.0 699.0 184.0 699.0 185.0 C 699.0 186.0 699.0 187.0 699.0 188.0 C 699.0 189.0 699.0 190.0 699.0 191.0 C 699.0 192.0 699.0 193.0 699.0 194.0 C 699.0 195.0 699.0 196.0 699.0 197.0 C 699.0 198.0 699.0 199.0 699.0 200.0 C 699.0 201.0 699.0 202.0 699.0 203.0 C 699.0 204.0 699.0 205.0 699.0 206.0 C 699.0 207.0 699.0 208.0 699.0 209.0 C 699.0 210.0 699.0 211.0 699.0 212.0 C 699.0 213.0 699.0 214.0 699.0 215.0 C 699.0 216.0 699.0 217.0 699.0 218.0 C 699.0 219.0 699.0 220.0 699.0 221.0 C 699.0 222.0 699.0 223.0 699.0 224.0 C 699.0 225.0 699.0 226.0 699.0 227.0 C 699.0 228.0 699.0 229.0 699.0 230.0 C 699.0 231.0 699.0 232.0 699.0 233.0 C 699.0 234.0 699.0 235.0 699.0 236.0 C 699.0 237.0 699.0 238.0 699.0 239.0 C 700.0 240.0 700.0 241.0 700.0 242.0 C 700.0 243.0 700.0 244.0 699.0 244.0 C 698.0 244.0 697.0 244.0 696.0 244.0 C 695.0 245.0 695.0 246.0 695.0 247.0 C 695.0 248.0 694.0 248.0 693.0 248.0 C 692.0 248.0 692.0 247.0 692.0 246.0 C 692.0 245.0 692.0 244.0 692.0 243.0 C 692.0 242.0 692.0 241.0 692.0 240.0 C 692.0 239.0 691.0 238.0 690.0 238.0 C 689.0 238.0 688.0 238.0 687.0 238.0 C 687.0 236.0 688.0 235.0 690.0 235.0 C 692.0 235.0 694.0 235.0 696.0 234.0 C 696.0 232.0 696.0 230.0 694.0 229.0 C 692.0 229.0 690.0 229.0 688.0 229.0 C 686.0 229.0 685.0 231.0 685.0 233.0 C 684.0 234.0 682.0 234.0 682.0 232.0 C 682.0 230.0 682.0 228.0 682.0 226.0 C 682.0 224.0 682.0 222.0 681.0 220.0 C 679.0 219.0 677.0 219.0 675.0 219.0 C 673.0 219.0 672.0 218.0 672.0 216.0 C 672.0 214.0 672.0 212.0 672.0 210.0 C 672.0 208.0 672.0 206.0 672.0 204.0 C 672.0 202.0 674.0 202.0 675.0 203.0 C 675.0 205.0 676.0 207.0 676.0 209.0 C 677.0 211.0 679.0 211.0 681.0 211.0 C 682.0 209.0 682.0 207.0 684.0 207.0 C 685.0 205.0 685.0 203.0 685.0 201.0 C 683.0 200.0 681.0 201.0 681.0 201.0 C 682.0 199.0 682.0 197.0 682.0 195.0 C 682.0 193.0 682.0 191.0 682.0 189.0 C 682.0 187.0 682.0 185.0 682.0 183.0 C 682.0 181.0 682.0 179.0 682.0 177.0 C 682.0 175.0 682.0 173.0 683.0 173.0" stroke-width="0.0" fill="rgb(208, 194, 124)" opacity="1.0" stroke="rgb(80, 54, 26)" stroke-opacity="0.779912" stroke-linecap="round" stroke-linejoin="round"/>
    <path d="M 644.0 216.0 C 645.0 216.0 646.0 216.0 647.0 216.0 C 647.0 217.0 648.0 218.0 649.0 218.0 C 648.0 219.0 648.0 220.0 648.0 221.0 C 647.0 221.0 646.0 222.0 646.0 223.0 C 646.0 224.0 647.0 225.0 648.0 225.0 C 649.0 225.0 650.0 225.0 651.0 224.0 C 651.0 223.0 651.0 222.0 651.0 223.0 C 651.0 224.0 652.0 225.0 653.0 225.0 C 654.0 225.0 655.0 224.0 655.0 223.0 C 655.0 222.0 655.0 221.0 654.0 220.0 C 653.0 220.0 653.0 219.0 654.0 219.0 C 655.0 218.0 655.0 217.0 655.0 216.0 C 656.0 217.0 657.0 217.0 658.0 217.0 C 659.0 217.0 660.0 217.0 660.0 218.0 C 659.0 219.0 660.0 220.0 661.0 221.0 C 662.0 221.0 663.0 221.0 664.0 220.0 C 664.0 219.0 665.0 219.0 666.0 219.0 C 665.0 219.0 664.0 220.0 664.0 221.0 C 664.0 222.0 664.0 223.0 664.0 224.0 C 663.0 225.0 663.0 226.0 663.0 227.0 C 664.0 228.0 665.0 228.0 666.0 228.0 C 667.0 228.0 668.0 227.0 668.0 226.0 C 668.0 225.0 668.0 226.0 668.0 227.0 C 668.0 228.0 669.0 229.0 670.0 229.0 C 671.0 229.0 672.0 229.0 673.0 229.0 C 673.0 230.0 674.0 231.0 675.0 231.0 C 676.0 231.0 675.0 232.0 675.0 233.0 C 675.0 234.0 674.0 234.0 672.0 235.0 C 669.0 236.0 666.0 237.0 665.0 240.0 C 668.0 241.0 670.0 243.0 667.0 243.0 C 666.0 246.0 669.0 248.0 672.0 248.0 C 673.0 245.0 675.0 243.0 675.0 240.0 C 676.0 238.0 677.0 236.0 678.0 237.0 C 676.0 239.0 679.0 241.0 681.0 243.0 C 684.0 242.0 685.0 242.0 685.0 245.0 C 683.0 243.0 681.0 245.0 680.0 247.0 C 677.0 248.0 678.0 251.0 677.0 252.0 C 675.0 250.0 672.0 249.0 670.0 248.0 C 667.0 249.0 667.0 252.0 670.0 252.0 C 671.0 254.0 673.0 256.0 672.0 257.0 C 669.0 256.0 666.0 255.0 665.0 258.0 C 663.0 258.0 661.0 260.0 659.0 262.0 C 660.0 265.0 661.0 267.0 660.0 269.0 C 661.0 272.0 658.0 272.0 655.0 273.0 C 654.0 275.0 651.0 276.0 651.0 277.0 C 649.0 275.0 646.0 273.0 644.0 275.0 C 641.0 276.0 639.0 274.0 640.0 273.0 C 642.0 272.0 645.0 271.0 644.0 268.0 C 641.0 267.0 639.0 269.0 637.0 270.0 C 636.0 267.0 634.0 265.0 632.0 267.0 C 631.0 265.0 629.0 262.0 628.0 259.0 C 627.0 257.0 626.0 254.0 624.0 251.0 C 623.0 249.0 621.0 246.0 620.0 243.0 C 621.0 240.0 620.0 237.0 623.0 236.0 C 626.0 236.0 628.0 238.0 631.0 237.0 C 630.0 234.0 627.0 233.0 624.0 234.0 C 623.0 232.0 626.0 230.0 627.0 227.0 C 627.0 224.0 629.0 223.0 632.0 223.0 C 634.0 221.0 637.0 221.0 638.0 218.0 C 640.0 217.0 643.0 216.0 644.0 216.0" stroke-width="0.0" fill="rgb(207, 200, 134)" opacity="1.0" stroke="rgb(14, 211, 169)" stroke-opacity="0.23806675" stroke-linecap="round" stroke-linejoin="round"/>
    <path d="M 692.0 114.0 C 693.0 114.0 694.0 114.0 695.0 114.0 C 696.0 114.0 697.0 114.0 698.0 114.0 C 699.0 114.0 700.0 114.0 701.0 115.0 C 702.0 115.0 703.0 115.0 704.0 115.0 C 705.0 115.0 706.0 114.0 707.0 114.0 C 708.0 114.0 709.0 114.0 709.0 115.0 C 709.0 116.0 709.0 117.0 709.0 118.0 C 709.0 119.0 708.0 119.0 707.0 119.0 C 706.0 119.0 705.0 119.0 704.0 120.0 C 704.0 121.0 704.0 122.0 704.0 123.0 C 703.0 123.0 702.0 123.0 701.0 123.0 C 700.0 123.0 699.0 124.0 699.0 125.0 C 699.0 126.0 699.0 127.0 699.0 128.0 C 699.0 129.0 699.0 130.0 699.0 131.0 C 699.0 132.0 699.0 133.0 698.0 133.0 C 697.0 133.0 696.0 133.0 696.0 132.0 C 696.0 131.0 696.0 130.0 696.0 129.0 C 695.0 128.0 694.0 128.0 693.0 128.0 C 692.0 128.0 691.0 128.0 690.0 129.0 C 690.0 130.0 690.0 131.0 690.0 132.0 C 690.0 133.0 689.0 133.0 688.0 133.0 C 687.0 133.0 686.0 134.0 685.0 133.0 C 684.0 133.0 683.0 133.0 682.0 133.0 C 681.0 134.0 680.0 135.0 680.0 136.0 C 680.0 137.0 679.0 137.0 678.0 137.0 C 677.0 137.0 676.0 137.0 675.0 137.0 C 674.0 137.0 673.0 137.0 672.0 137.0 C 671.0 138.0 670.0 138.0 668.0 138.0 C 666.0 139.0 666.0 141.0 666.0 143.0 C 666.0 145.0 666.0 147.0 664.0 147.0 C 662.0 147.0 661.0 149.0 661.0 151.0 C 661.0 153.0 661.0 155.0 661.0 157.0 C 659.0 157.0 657.0 158.0 656.0 160.0 C 656.0 162.0 654.0 162.0 652.0 162.0 C 650.0 162.0 648.0 162.0 647.0 164.0 C 647.0 166.0 647.0 168.0 647.0 170.0 C 647.0 172.0 647.0 174.0 647.0 176.0 C 647.0 178.0 647.0 180.0 647.0 182.0 C 647.0 184.0 647.0 186.0 645.0 186.0 C 644.0 185.0 644.0 183.0 644.0 181.0 C 644.0 179.0 644.0 177.0 644.0 175.0 C 644.0 173.0 644.0 171.0 644.0 169.0 C 644.0 167.0 644.0 165.0 644.0 163.0 C 644.0 161.0 644.0 159.0 644.0 157.0 C 644.0 155.0 644.0 153.0 644.0 151.0 C 644.0 149.0 644.0 147.0 644.0 145.0 C 645.0 144.0 647.0 144.0 649.0 144.0 C 651.0 144.0 653.0 144.0 655.0 144.0 C 657.0 144.0 658.0 142.0 658.0 140.0 C 658.0 138.0 658.0 136.0 658.0 134.0 C 658.0 132.0 658.0 130.0 660.0 130.0 C 662.0 130.0 664.0 130.0 666.0 130.0 C 667.0 128.0 667.0 126.0 668.0 125.0 C 670.0 125.0 671.0 126.0 671.0 128.0 C 672.0 130.0 674.0 130.0 676.0 130.0 C 677.0 128.0 677.0 126.0 677.0 124.0 C 677.0 122.0 677.0 120.0 677.0 118.0 C 677.0 116.0 679.0 116.0 681.0 116.0 C 683.0 115.0 685.0 115.0 687.0 115.0 C 689.0 115.0 691.0 114.0 692.0 114.0" stroke-width="0.0" fill="rgb(224, 202, 125)" opacity="1.0" stroke="rgb(188, 193, 157)" stroke-opacity="0.981082" stroke-linecap="round" stroke-linejoin="round"/>
    <path d="M 703.0 107.0 C 704.0 107.0 705.0 107.0 706.0 107.0 C 707.0 107.0 708.0 107.0 709.0 107.0 C 709.0 108.0 708.0 108.0 707.0 108.0 C 706.0 108.0 705.0 109.0 705.0 110.0 C 705.0 111.0 705.0 112.0 706.0 113.0 C 707.0 113.0 708.0 113.0 709.0 113.0 C 708.0 113.0 707.0 113.0 706.0 113.0 C 705.0 114.0 704.0 114.0 703.0 114.0 C 702.0 114.0 701.0 114.0 700.0 113.0 C 699.0 113.0 698.0 113.0 697.0 113.0 C 696.0 113.0 695.0 113.0 694.0 113.0 C 693.0 113.0 692.0 113.0 691.0 113.0 C 690.0 114.0 689.0 114.0 688.0 114.0 C 687.0 114.0 686.0 114.0 685.0 114.0 C 684.0 114.0 683.0 114.0 682.0 114.0 C 681.0 115.0 680.0 115.0 679.0 115.0 C 678.0 115.0 677.0 115.0 676.0 116.0 C 676.0 117.0 676.0 118.0 676.0 119.0 C 676.0 120.0 676.0 121.0 676.0 122.0 C 676.0 123.0 676.0 124.0 676.0 125.0 C 676.0 126.0 676.0 127.0 676.0 128.0 C 676.0 129.0 675.0 129.0 674.0 129.0 C 673.0 129.0 672.0 129.0 672.0 128.0 C 672.0 127.0 672.0 126.0 672.0 125.0 C 671.0 124.0 670.0 124.0 669.0 124.0 C 668.0 124.0 667.0 124.0 666.0 125.0 C 666.0 126.0 666.0 127.0 666.0 128.0 C 666.0 129.0 664.0 129.0 662.0 129.0 C 660.0 129.0 658.0 129.0 657.0 131.0 C 657.0 133.0 657.0 135.0 657.0 137.0 C 657.0 139.0 657.0 141.0 657.0 143.0 C 655.0 143.0 653.0 143.0 651.0 143.0 C 649.0 143.0 647.0 143.0 645.0 143.0 C 643.0 143.0 643.0 141.0 643.0 139.0 C 641.0 138.0 639.0 138.0 638.0 137.0 C 638.0 135.0 636.0 134.0 634.0 134.0 C 633.0 136.0 633.0 138.0 633.0 140.0 C 633.0 142.0 632.0 143.0 630.0 144.0 C 628.0 145.0 628.0 147.0 626.0 148.0 C 625.0 147.0 625.0 145.0 627.0 145.0 C 627.0 143.0 626.0 142.0 625.0 140.0 C 623.0 140.0 625.0 140.0 627.0 140.0 C 629.0 140.0 631.0 139.0 632.0 137.0 C 632.0 135.0 631.0 133.0 629.0 133.0 C 628.0 132.0 628.0 130.0 629.0 128.0 C 631.0 128.0 632.0 126.0 633.0 124.0 C 635.0 123.0 637.0 123.0 639.0 122.0 C 641.0 122.0 643.0 121.0 645.0 121.0 C 647.0 121.0 649.0 120.0 651.0 120.0 C 653.0 120.0 655.0 120.0 657.0 120.0 C 659.0 120.0 661.0 120.0 662.0 118.0 C 662.0 116.0 663.0 114.0 665.0 114.0 C 667.0 114.0 669.0 114.0 671.0 114.0 C 672.0 112.0 673.0 111.0 675.0 111.0 C 677.0 110.0 679.0 110.0 681.0 111.0 C 683.0 110.0 685.0 110.0 687.0 109.0 C 689.0 109.0 690.0 111.0 691.0 109.0 C 691.0 111.0 693.0 112.0 695.0 112.0 C 697.0 112.0 698.0 110.0 699.0 109.0 C 701.0 109.0 702.0 107.0 703.0 107.0" stroke-width="0.0" fill="rgb(227, 203, 128)" opacity="1.0" stroke="rgb(189, 98, 178)" stroke-opacity="0.13129291" stroke-linecap="round" stroke-linejoin="round"/>
  </g>
</svg>
