<?xml version="1.0" ?>
<svg xmlns="http://www.w3.org/2000/svg" version="1.1" width="413" height="416">
  <defs/>
  <g>
    <path d="M -2.3838164806365967 -4.433252334594727 C -1.1100069284439087 -4.446309566497803 0.042716752737760544 -4.513345241546631 1.1198010444641113 -4.509631633758545 C 2.1296820640563965 -4.515090465545654 3.035576105117798 -4.411099433898926 3.8336784839630127 -4.2871198654174805 C 4.534511089324951 -4.089334964752197 5.363090991973877 -3.831982135772705 6.4009175300598145 -3.5405163764953613 C 7.667654514312744 -3.2707908153533936 9.402307510375977 -3.0553131103515625 11.856627464294434 -2.8918707370758057 C 15.007365226745605 -2.824172258377075 18.98983383178711 -2.901494264602661 23.896329879760742 -3.109968662261963 C 29.693519592285156 -3.322657346725464 36.43133544921875 -3.584929943084717 44.03400802612305 -3.9476964473724365 C 52.4050407409668 -4.276299953460693 61.46763229370117 -4.5942182540893555 71.03221893310547 -4.849660873413086 C 80.98554992675781 -5.039316654205322 91.24554443359375 -5.141863822937012 101.70196533203125 -5.184033393859863 C 112.21444702148438 -5.173120498657227 122.70039367675781 -5.135538101196289 133.16639709472656 -5.090569972991943 C 143.58102416992188 -5.05140495300293 153.92445373535156 -4.995838165283203 164.15939331054688 -4.99032735824585 C 174.29185485839844 -5.014952659606934 184.38706970214844 -5.020064353942871 194.366455078125 -5.050868988037109 C 204.3513946533203 -5.0658183097839355 214.2875518798828 -5.069411277770996 224.1515350341797 -5.068366527557373 C 233.97760009765625 -5.047935962677002 243.7278594970703 -5.007917881011963 253.53952026367188 -4.98012638092041 C 263.38702392578125 -4.964019298553467 273.23394775390625 -4.941185474395752 283.1639709472656 -4.94548225402832 C 293.21746826171875 -4.937797546386719 303.5461730957031 -4.905004978179932 314.1184997558594 -4.838743686676025 C 324.8328857421875 -4.815197467803955 335.8018493652344 -4.716475486755371 346.8613586425781 -4.677073955535889 C 357.9737548828125 -4.690553665161133 369.14556884765625 -4.7865777015686035 380.0874328613281 -4.962025165557861 C 390.4756774902344 -5.1549882888793945 400.0135192871094 -4.453261852264404 408.2978820800781 -3.5263476371765137 C 414.24957275390625 -1.0767570734024048 417.4671936035156 5.370302200317383 418.91790771484375 12.934795379638672 C 419.0953063964844 21.591154098510742 418.56268310546875 31.531042098999023 417.92938232421875 42.25983428955078 C 417.67779541015625 53.820960998535156 417.7110900878906 65.52519989013672 417.8485107421875 77.09526062011719 C 417.8907775878906 88.48155975341797 417.87017822265625 99.98805236816406 417.85601806640625 111.32699584960938 C 417.857177734375 122.15655517578125 417.858642578125 132.8053436279297 417.85833740234375 143.1699981689453 C 417.85821533203125 153.22569274902344 417.8582458496094 163.18235778808594 417.8582763671875 173.0390625 C 417.8582763671875 182.77667236328125 417.8582763671875 192.49786376953125 417.8582763671875 202.2965087890625 C 417.8582763671875 211.9813232421875 417.8582763671875 221.63214111328125 417.8582763671875 231.392578125 C 417.8582763671875 241.09521484375 417.8582763671875 250.8184356689453 417.8582763671875 260.7100524902344 C 417.8583068847656 270.7160949707031 417.8584289550781 280.9075622558594 417.8581237792969 291.4043273925781 C 417.8563537597656 302.24310302734375 417.8567810058594 313.43310546875 417.8666076660156 324.9505615234375 C 417.87371826171875 336.6715087890625 417.8338928222656 348.5664978027344 417.77142333984375 360.49005126953125 C 417.8110656738281 372.1649169921875 418.075927734375 383.243408203125 418.5333251953125 393.45013427734375 C 418.8059997558594 402.5566101074219 418.0138854980469 410.19598388671875 415.33758544921875 416.0826416015625 C 410.39422607421875 419.889404296875 403.50604248046875 421.8197326660156 394.9669494628906 422.2872314453125 C 385.165283203125 421.8676452636719 374.3993835449219 421.21044921875 363.0776062011719 420.7733459472656 C 351.44482421875 420.6881103515625 339.6899108886719 420.7730407714844 328.0632629394531 420.8689270019531 C 316.6610107421875 420.8799743652344 305.531005859375 420.8614196777344 294.68218994140625 420.8562316894531 C 284.14459228515625 420.85821533203125 273.8706970214844 420.85870361328125 263.8114929199219 420.8582763671875 C 253.8559112548828 420.85821533203125 244.0103759765625 420.8582458496094 234.27732849121094 420.8582763671875 C 224.5735626220703 420.8582763671875 214.76431274414062 420.8582763671875 205.11195373535156 420.8582763671875 C 195.4283447265625 420.8582763671875 185.6633758544922 420.8582763671875 175.9520721435547 420.8582763671875 C 166.2190399169922 420.8582458496094 156.28408813476562 420.8581848144531 146.16648864746094 420.8583068847656 C 135.89678955078125 420.8587951660156 125.34226989746094 420.85833740234375 114.41506958007812 420.8558654785156 C 103.28770446777344 420.861328125 91.9021987915039 420.8811340332031 80.27875518798828 420.8688049316406 C 68.67568969726562 420.76239013671875 57.21821975708008 420.6808166503906 46.08523941040039 420.7950134277344 C 35.51853942871094 421.2994384765625 25.834373474121094 421.968994140625 16.540809631347656 422.2146301269531 C 7.024694442749023 422.14959716796875 -2.2804503440856934 422.6200256347656 -7.0751051902771 419.862548828125 C -3.132120132446289 406.5415344238281 -4.313843727111816 397.6871643066406 -4.798138618469238 387.74603271484375 C -4.753643035888672 377.0212097167969 -4.664529800415039 365.84136962890625 -4.624418258666992 354.5456848144531 C -4.669703483581543 343.1874694824219 -4.682375907897949 331.87921142578125 -4.770556449890137 320.8836975097656 C -4.841930389404297 310.1343994140625 -4.9041666984558105 299.5815734863281 -4.9475860595703125 289.3267517089844 C -4.973016262054443 279.23956298828125 -5.000654220581055 269.25518798828125 -5.010652542114258 259.3701171875 C -5.030168056488037 249.57093811035156 -5.036540985107422 239.7560577392578 -5.060256004333496 229.8729248046875 C -5.059610843658447 219.9778594970703 -5.0580363273620605 210.02545166015625 -5.0362348556518555 200.03073120117188 C -5.028352737426758 189.98342895507812 -5.041893005371094 179.9983673095703 -5.045013904571533 170.01611328125 C -5.0479912757873535 159.9832305908203 -5.054957389831543 150.0363006591797 -5.055418014526367 140.1795654296875 C -5.042065620422363 130.24632263183594 -5.001510143280029 120.2714614868164 -4.943734169006348 110.37462615966797 C -4.885382652282715 100.44092559814453 -4.838423252105713 90.3755111694336 -4.791339874267578 80.32243347167969 C -4.778042793273926 70.27578735351562 -4.785017967224121 60.063899993896484 -4.800755977630615 49.78750228881836 C -4.892529010772705 39.614501953125 -5.0120463371276855 29.350770950317383 -5.167717456817627 19.05059814453125 C -5.340211868286133 8.7332181930542 -5.531407356262207 -1.6775163412094116 -2.3838164806365967 -4.433252334594727" stroke-width="0.0" fill="rgb(73, 73, 180)" opacity="0.99999523" stroke="rgb(6, 158, 243)" stroke-opacity="0.104724735" stroke-linecap="round" stroke-linejoin="round"/>
    <path d="M 124.24219512939453 138.80902099609375 C 124.94181060791016 138.05465698242188 123.58922576904297 137.6845703125 121.95475006103516 137.70558166503906 C 121.55485534667969 138.28314208984375 121.40253448486328 135.99391174316406 121.49856567382812 136.43911743164062 C 121.82362365722656 136.19627380371094 121.76004028320312 136.59730529785156 123.48086547851562 137.39364624023438 C 124.98070526123047 139.0196533203125 123.77998352050781 141.67245483398438 125.62074279785156 140.38455200195312 C 128.29847717285156 141.81529235839844 130.78439331054688 144.56790161132812 134.19325256347656 153.45213317871094 C 133.05628967285156 152.13970947265625 139.183837890625 146.99203491210938 140.9225616455078 145.0306396484375 C 147.7069854736328 146.35157775878906 148.74908447265625 145.58517456054688 149.76002502441406 151.6904296875 C 153.17507934570312 152.08131408691406 154.2963409423828 155.4491729736328 155.799560546875 158.021728515625 C 157.67404174804688 160.75572204589844 159.0712432861328 163.51829528808594 161.1929931640625 165.79742431640625 C 163.2660675048828 167.4258270263672 165.93141174316406 168.93679809570312 169.6908721923828 169.97962951660156 C 172.8480682373047 171.902099609375 176.31446838378906 172.53590393066406 182.0683135986328 173.66941833496094 C 180.09835815429688 177.39540100097656 181.19491577148438 178.00006103515625 194.92840576171875 175.5579833984375 C 190.75437927246094 184.7429962158203 192.3986358642578 186.38560485839844 193.86961364746094 190.3383331298828 C 186.9528045654297 198.8206329345703 188.0285186767578 202.99888610839844 188.0102081298828 206.63270568847656 C 187.74586486816406 209.79124450683594 187.8090362548828 212.7461700439453 187.82373046875 215.1073455810547 C 187.87606811523438 217.0259552001953 188.1183624267578 218.72731018066406 188.49148559570312 220.00836181640625 C 189.0195770263672 220.8074493408203 189.8546600341797 221.3287811279297 191.05523681640625 221.3647918701172 C 191.61172485351562 220.75914001464844 191.49473571777344 219.43861389160156 191.25900268554688 216.732421875 C 198.14356994628906 218.29991149902344 198.6070098876953 216.83987426757812 197.84353637695312 216.42471313476562 C 205.3692169189453 217.10546875 208.71969604492188 215.64089965820312 210.2480926513672 209.77313232421875 C 214.04959106445312 209.0629425048828 216.5927276611328 210.35092163085938 213.39064025878906 215.02670288085938 C 218.0347442626953 215.3743133544922 219.5611572265625 217.239990234375 219.82896423339844 219.36000061035156 C 219.9718780517578 221.55133056640625 220.26918029785156 222.37991333007812 230.0001678466797 225.55606079101562 C 226.52593994140625 230.33164978027344 223.72735595703125 233.24794006347656 220.82528686523438 235.71853637695312 C 216.1126708984375 237.91656494140625 215.38262939453125 240.75099182128906 214.8960723876953 243.1034393310547 C 216.1783447265625 243.67933654785156 218.30772399902344 247.14894104003906 217.54664611816406 249.8870849609375 C 215.080810546875 253.94012451171875 214.84767150878906 256.1495666503906 214.37948608398438 258.17474365234375 C 213.6865997314453 259.8219909667969 212.7990264892578 261.12255859375 211.77613830566406 262.30401611328125 C 210.69320678710938 263.5382385253906 209.27316284179688 264.1869201660156 208.05517578125 264.3641357421875 C 207.19036865234375 263.8861083984375 206.9559783935547 264.27606201171875 221.23057556152344 270.373046875 C 210.45236206054688 272.41168212890625 210.76803588867188 278.75042724609375 202.51536560058594 276.57232666015625 C 196.33665466308594 271.0502624511719 190.89842224121094 269.6393127441406 182.64404296875 271.0144958496094 C 173.7877197265625 273.1648864746094 180.315185546875 278.66339111328125 173.46360778808594 305.1455078125 C 150.10995483398438 296.2717590332031 151.20750427246094 300.5812072753906 156.98684692382812 277.6717529296875 C 164.5400848388672 264.56976318359375 173.0547637939453 260.594970703125 177.29283142089844 258.7464599609375 C 174.89788818359375 250.97772216796875 171.8217315673828 245.0223388671875 167.05770874023438 237.53555297851562 C 163.53244018554688 230.72549438476562 159.22059631347656 224.78111267089844 152.9593963623047 217.28367614746094 C 148.19204711914062 211.22421264648438 141.91183471679688 206.38656616210938 134.77369689941406 201.94752502441406 C 129.5149688720703 223.5794677734375 131.28823852539062 230.5925750732422 132.16290283203125 238.25003051757812 C 132.54409790039062 244.78765869140625 134.574462890625 250.38922119140625 135.3777313232422 254.23336791992188 C 136.76974487304688 258.33856201171875 137.79440307617188 263.0730285644531 140.47584533691406 268.48388671875 C 144.4466094970703 281.3511657714844 148.0099334716797 279.1482238769531 139.38983154296875 275.6279602050781 C 129.3990936279297 270.0959777832031 125.56884765625 267.5262756347656 121.87068939208984 267.025390625 C 121.39160919189453 266.14013671875 116.91685485839844 264.2245178222656 116.93205261230469 261.2403869628906 C 117.73714447021484 259.17254638671875 117.05167388916016 253.74862670898438 114.86577606201172 249.68240356445312 C 112.26576232910156 246.11422729492188 109.4727783203125 242.71351623535156 106.39326477050781 239.79603576660156 C 103.45405578613281 237.11663818359375 99.50030517578125 233.6940155029297 96.80748748779297 230.5298614501953 C 93.93143463134766 227.4259796142578 90.36526489257812 222.44100952148438 89.15083312988281 218.73394775390625 C 89.33836364746094 218.478515625 87.82205200195312 214.0567626953125 87.85114288330078 215.6643829345703 C 87.29060363769531 208.943115234375 87.87509155273438 202.3266143798828 88.76114654541016 196.47894287109375 C 84.88834381103516 203.1398468017578 86.65357208251953 206.81851196289062 85.66041564941406 203.6465606689453 C 85.14446258544922 193.8959503173828 83.00521850585938 184.31802368164062 85.13103485107422 189.43128967285156 C 89.00120544433594 194.43399047851562 87.69305419921875 188.0692138671875 87.08838653564453 186.50924682617188 C 85.07833099365234 188.3846435546875 86.6928939819336 187.70034790039062 85.9661636352539 186.26959228515625 C 84.90885925292969 188.641357421875 84.29275512695312 185.42343139648438 84.85067749023438 182.72703552246094 C 85.38675689697266 180.82615661621094 86.40201568603516 178.24075317382812 88.0366439819336 174.89259338378906 C 91.02259063720703 169.0095977783203 93.69573211669922 165.19775390625 97.03810119628906 161.9883270263672 C 99.63520050048828 159.43463134765625 103.99816131591797 154.82798767089844 109.17259216308594 152.14273071289062 C 111.90174102783203 150.23931884765625 117.82411193847656 147.26190185546875 124.04757690429688 145.98638916015625 C 130.41453552246094 145.8134765625 132.77134704589844 145.7609405517578 124.24219512939453 138.80902099609375" stroke-width="0.0" fill="rgb(90, 90, 187)" opacity="0.99999774" stroke="rgb(14, 103, 180)" stroke-opacity="0.04718994" stroke-linecap="round" stroke-linejoin="round"/>
    <path d="M 280.210205078125 145.19126892089844 C 280.22833251953125 146.12139892578125 280.1637268066406 147.09278869628906 280.14276123046875 148.01785278320312 C 280.0770568847656 148.9281463623047 279.9991149902344 149.89511108398438 279.90283203125 150.90382385253906 C 279.685302734375 151.8701629638672 279.5244140625 152.83950805664062 279.2787780761719 153.8288116455078 C 279.0693664550781 154.7684326171875 278.9745788574219 155.61947631835938 278.84619140625 156.42262268066406 C 278.8109436035156 157.14662170410156 278.9679870605469 157.70745849609375 279.357421875 157.79052734375 C 279.8104248046875 157.5050811767578 280.6049499511719 157.30401611328125 281.56646728515625 158.72677612304688 C 282.0137023925781 158.8514404296875 283.1029052734375 158.50601196289062 283.6209411621094 157.65484619140625 C 284.51190185546875 156.51402282714844 285.6598205566406 156.85073852539062 286.775390625 156.64244079589844 C 287.83648681640625 156.5446014404297 288.6354064941406 156.57395935058594 288.9078063964844 156.9285888671875 C 288.1269836425781 156.96510314941406 289.1727294921875 157.26345825195312 288.3406677246094 157.2340545654297 C 289.1109619140625 158.1858673095703 288.72381591796875 159.11972045898438 288.1871337890625 160.32275390625 C 287.96075439453125 161.85560607910156 287.995849609375 163.82354736328125 288.2944030761719 166.09588623046875 C 288.978271484375 168.728759765625 290.2357177734375 171.60865783691406 291.83673095703125 174.61817932128906 C 293.245361328125 177.9416961669922 294.6833801269531 181.46902465820312 298.978515625 184.02601623535156 C 303.4246520996094 185.8835906982422 307.1692810058594 188.1475372314453 311.0683288574219 190.06361389160156 C 315.03125 191.6707763671875 318.8868408203125 193.007568359375 322.76324462890625 194.18141174316406 C 326.46197509765625 195.32591247558594 329.91497802734375 196.49728393554688 333.33489990234375 197.64283752441406 C 336.25506591796875 199.15419006347656 339.1211853027344 201.04444885253906 341.7081298828125 203.0908660888672 C 344.027099609375 205.7002716064453 346.1640930175781 208.5446014404297 348.0116271972656 211.471923828125 C 349.74951171875 214.31617736816406 351.33587646484375 216.96519470214844 353.5594177246094 219.1658935546875 C 351.94818115234375 223.15078735351562 353.3183898925781 224.91757202148438 354.11309814453125 226.3257293701172 C 355.90460205078125 225.78952026367188 356.0732116699219 226.0608367919922 356.3729248046875 226.2920684814453 C 356.303466796875 226.07159423828125 355.3407287597656 225.98117065429688 354.2392578125 224.39593505859375 C 353.548095703125 228.32305908203125 351.6928405761719 230.29351806640625 349.5332336425781 232.22982788085938 C 347.26934814453125 234.94970703125 344.89422607421875 237.9626922607422 341.8662414550781 241.1847686767578 C 337.7843322753906 243.7581329345703 332.8014831542969 246.1672821044922 335.6251220703125 250.60389709472656 C 332.4626770019531 253.8953857421875 332.4128723144531 256.9532165527344 331.1706848144531 258.99072265625 C 329.9183654785156 260.78424072265625 329.68804931640625 262.51593017578125 328.5241394042969 264.80682373046875 C 328.4868469238281 265.6990661621094 329.3271789550781 266.6352233886719 326.19097900390625 267.9182434082031 C 326.38995361328125 270.1958312988281 323.023193359375 273.7985534667969 317.15771484375 282.57952880859375 C 306.8110656738281 291.31689453125 308.78289794921875 289.3179626464844 339.0677795410156 297.67803955078125 C 303.5959777832031 323.3023376464844 297.79180908203125 332.7687072753906 258.51422119140625 345.9691467285156 C 245.32786560058594 322.41357421875 245.67396545410156 309.2353210449219 255.99072265625 298.5593566894531 C 256.40997314453125 278.2694396972656 252.8604278564453 269.0189514160156 260.1767272949219 260.72772216796875 C 264.2535400390625 251.5569305419922 267.1777038574219 246.05828857421875 272.1574401855469 242.8000946044922 C 274.26031494140625 240.27137756347656 274.089599609375 237.50628662109375 273.22796630859375 235.9442138671875 C 272.40545654296875 235.0492706298828 270.9105224609375 233.71035766601562 270.1803283691406 231.6959991455078 C 269.52581787109375 229.20834350585938 266.58001708984375 228.45301818847656 262.7641296386719 227.11160278320312 C 264.1529235839844 222.37966918945312 263.48828125 219.69427490234375 261.29443359375 217.333251953125 C 258.9356689453125 215.28546142578125 257.44952392578125 213.09800720214844 256.26507568359375 211.103271484375 C 255.5769500732422 209.03431701660156 255.40663146972656 207.06265258789062 255.73500061035156 204.94094848632812 C 256.51751708984375 202.84593200683594 257.3468017578125 200.46505737304688 258.28094482421875 197.8624267578125 C 259.4555358886719 195.00767517089844 260.551025390625 191.95550537109375 267.0076599121094 188.8188934326172 C 273.9701232910156 185.31304931640625 263.9126281738281 181.23434448242188 264.8121337890625 181.06802368164062 C 266.6786804199219 177.81039428710938 267.5630798339844 176.11949157714844 268.24884033203125 174.8646697998047 C 268.341064453125 173.59886169433594 268.1280517578125 173.28097534179688 267.6156311035156 172.92555236816406 C 266.7560729980469 173.09722900390625 265.53411865234375 173.3155059814453 264.1365966796875 173.6935272216797 C 262.6138610839844 174.1123504638672 260.8302917480469 174.39035034179688 258.90350341796875 174.4584197998047 C 257.0389709472656 174.27989196777344 255.22154235839844 173.8227996826172 253.3459930419922 173.10955810546875 C 251.68466186523438 172.098388671875 250.1219482421875 170.8302001953125 248.7262725830078 169.25396728515625 C 247.574951171875 167.60699462890625 246.74436950683594 165.791748046875 246.134521484375 164.05638122558594 C 245.84933471679688 162.4088897705078 245.9897918701172 161.03262329101562 246.41485595703125 159.8733367919922 C 247.12466430664062 159.0780792236328 248.1803741455078 158.60484313964844 249.499755859375 158.47911071777344 C 251.00816345214844 158.6435546875 252.5732421875 158.95582580566406 254.275146484375 159.39601135253906 C 255.9688262939453 159.876708984375 257.57794189453125 160.33192443847656 259.2071228027344 160.6346893310547 C 260.7344970703125 160.77655029296875 262.12762451171875 160.66635131835938 263.5301208496094 160.26206970214844 C 264.8038330078125 159.629150390625 266.0053405761719 158.71414184570312 267.18316650390625 157.5251007080078 C 268.33990478515625 156.2308807373047 269.41656494140625 154.7511444091797 270.58575439453125 153.22518920898438 C 271.63885498046875 151.65487670898438 272.7810974121094 150.08363342285156 273.8653869628906 148.5003204345703 C 274.9981384277344 146.8682861328125 276.0861511230469 145.3310546875 280.210205078125 145.19126892089844" stroke-width="0.0" fill="rgb(73, 73, 166)" opacity="1.0" stroke="rgb(95, 141, 32)" stroke-opacity="0.4469963" stroke-linecap="round" stroke-linejoin="round"/>
    <path d="M 153.7914581298828 41.510963439941406 C 143.35545349121094 40.093841552734375 148.3195037841797 41.94122314453125 148.05291748046875 41.32401657104492 C 141.4859619140625 42.440059661865234 146.94793701171875 40.44940948486328 154.45773315429688 43.351417541503906 C 151.78317260742188 41.74786376953125 148.84298706054688 40.101192474365234 146.79161071777344 41.73505401611328 C 160.18540954589844 41.32578659057617 157.25540161132812 45.29436492919922 157.0317840576172 43.452674865722656 C 158.4684600830078 43.6369514465332 159.10740661621094 44.277862548828125 159.0487823486328 44.99659729003906 C 158.24249267578125 44.52293014526367 159.57666015625 44.97853088378906 160.12197875976562 45.14602279663086 C 164.8057098388672 45.42404556274414 169.65086364746094 49.18138122558594 174.59945678710938 50.60390090942383 C 177.89700317382812 53.936763763427734 183.8265380859375 57.43832778930664 188.81478881835938 61.356266021728516 C 193.7052459716797 64.96356201171875 198.6451873779297 68.862060546875 204.31292724609375 71.41792297363281 C 208.97262573242188 74.26317596435547 215.90150451660156 76.88407897949219 222.64793395996094 76.21471405029297 C 225.69859313964844 75.28298950195312 232.1916961669922 73.85881042480469 236.19598388671875 71.45098114013672 C 242.48980712890625 71.7027587890625 247.85525512695312 73.65960693359375 249.90354919433594 76.94481658935547 C 251.0990447998047 84.20003509521484 250.10670471191406 88.71483612060547 244.9859619140625 90.97100830078125 C 241.20709228515625 96.49137115478516 238.74667358398438 101.38179016113281 238.5807342529297 104.32601928710938 C 239.9906768798828 109.65657806396484 245.20298767089844 113.47949981689453 250.88258361816406 114.8835220336914 C 256.1705322265625 117.27857208251953 262.5096130371094 118.78557586669922 267.4415283203125 120.68952178955078 C 273.14471435546875 123.2484130859375 275.8312072753906 126.89286804199219 277.9613952636719 131.87757873535156 C 279.8023986816406 136.2686004638672 282.18414306640625 140.56549072265625 281.4107360839844 147.88717651367188 C 283.1124572753906 155.45538330078125 280.6641845703125 158.224609375 277.94537353515625 164.3887176513672 C 276.0722351074219 169.1212921142578 271.4944152832031 174.9148406982422 267.298583984375 179.05780029296875 C 263.0660705566406 184.0708465576172 257.8908386230469 187.82278442382812 252.50228881835938 191.5179901123047 C 247.4619598388672 194.42752075195312 242.7859649658203 197.75755310058594 239.3638458251953 202.0221710205078 C 235.81138610839844 207.4792022705078 233.41311645507812 210.45782470703125 233.8565673828125 219.21241760253906 C 234.05075073242188 223.2526092529297 236.6278533935547 230.83192443847656 234.3333282470703 232.44259643554688 C 231.62353515625 241.06121826171875 224.83961486816406 244.83248901367188 216.24087524414062 247.71153259277344 C 208.2176971435547 247.3192901611328 212.64305114746094 250.1748046875 210.9018096923828 237.7957305908203 C 214.01756286621094 231.729736328125 220.64254760742188 230.95822143554688 216.41819763183594 225.11203002929688 C 217.15008544921875 221.64456176757812 217.0775604248047 218.86569213867188 216.08558654785156 216.8951416015625 C 213.92144775390625 216.26025390625 211.09283447265625 216.1669921875 208.22064208984375 216.5929718017578 C 205.71148681640625 217.70338439941406 203.98312377929688 219.7975616455078 203.0181427001953 222.8721923828125 C 202.23570251464844 227.57188415527344 193.00225830078125 232.22970581054688 199.0602264404297 231.17538452148438 C 207.5379180908203 234.5366668701172 201.4989776611328 248.47726440429688 201.93911743164062 246.0364990234375 C 195.4268341064453 243.88038635253906 189.7716522216797 239.63760375976562 184.9748992919922 235.220703125 C 181.51808166503906 230.93370056152344 179.99400329589844 226.26171875 179.64878845214844 221.66030883789062 C 180.17967224121094 214.48544311523438 182.5020751953125 209.5492401123047 185.41551208496094 204.12461853027344 C 188.46762084960938 199.05715942382812 190.7853546142578 191.9376678466797 190.08615112304688 186.92787170410156 C 189.44676208496094 182.7461700439453 186.7752227783203 178.8162841796875 181.49034118652344 176.36683654785156 C 173.96522521972656 174.05609130859375 173.93569946289062 174.16481018066406 159.54234313964844 175.92527770996094 C 158.8735809326172 175.14854431152344 159.68199157714844 176.79322814941406 150.23654174804688 175.42820739746094 C 144.9413604736328 172.7476043701172 139.9100341796875 168.80764770507812 139.67625427246094 166.0453643798828 C 137.62252807617188 160.9861602783203 141.3608856201172 155.0684051513672 146.36026000976562 149.97323608398438 C 150.517822265625 145.16270446777344 153.9245147705078 138.2598419189453 153.5374755859375 134.51449584960938 C 154.0035858154297 131.28518676757812 149.3839569091797 127.58796691894531 147.01498413085938 126.9148178100586 C 136.626708984375 125.65560913085938 136.4437255859375 127.27415466308594 128.71636962890625 130.48370361328125 C 125.22003936767578 131.53948974609375 119.93672180175781 134.8925323486328 120.87142944335938 135.10845947265625 C 107.3309326171875 137.33470153808594 102.150634765625 132.08262634277344 98.84441375732422 124.79541015625 C 95.22833251953125 117.93301391601562 96.49955749511719 116.94156646728516 98.94141387939453 109.51253509521484 C 101.11404418945312 104.51173400878906 105.16263580322266 100.75054168701172 111.75809478759766 99.31852722167969 C 116.83944702148438 98.70243835449219 122.51605987548828 99.6541748046875 126.03199768066406 101.20214080810547 C 132.22244262695312 104.40343475341797 138.11167907714844 106.03568267822266 141.88795471191406 109.09293365478516 C 145.55833435058594 112.2247314453125 154.4568328857422 113.89653778076172 155.98912048339844 114.74427795410156 C 162.87252807617188 114.6763916015625 167.66580200195312 114.71049499511719 171.22793579101562 110.70608520507812 C 175.3993377685547 107.72260284423828 178.93666076660156 100.5631103515625 176.76382446289062 98.16387939453125 C 177.01858520507812 92.89874267578125 173.1661376953125 91.40259552001953 168.4488983154297 88.89960479736328 C 163.90765380859375 88.44196319580078 158.0694122314453 86.55744171142578 152.66311645507812 86.96754455566406 C 145.48365783691406 86.17721557617188 138.24581909179688 85.99763488769531 135.01828002929688 84.40872192382812 C 127.98960876464844 81.88748168945312 125.21007537841797 78.96187591552734 121.14156341552734 74.51819610595703 C 118.93531799316406 70.72522735595703 117.62003326416016 64.3047866821289 119.73533630371094 57.92790222167969 C 121.51428985595703 52.072608947753906 125.65715789794922 47.745704650878906 130.536376953125 44.78469467163086 C 134.65643310546875 42.73602294921875 138.7437744140625 40.391815185546875 153.7914581298828 41.510963439941406" stroke-width="0.0" fill="rgb(21, 18, 71)" opacity="0.99999386" stroke="rgb(17, 241, 122)" stroke-opacity="0.90690255" stroke-linecap="round" stroke-linejoin="round"/>
    <path d="M 281.0032958984375 132.48524475097656 C 282.7723693847656 136.93182373046875 284.56878662109375 141.03115844726562 287.2315979003906 143.87271118164062 C 288.3443298339844 146.29078674316406 289.2650146484375 147.67385864257812 289.6880187988281 148.31263732910156 C 289.04034423828125 148.6484832763672 288.4935302734375 148.3953399658203 288.5459289550781 147.9584503173828 C 289.0883483886719 148.19984436035156 289.4634704589844 148.79364013671875 289.5355224609375 149.31387329101562 C 289.324951171875 149.82452392578125 289.097900390625 150.3466033935547 288.943359375 150.84683227539062 C 289.2197570800781 150.78453063964844 290.0755615234375 150.90602111816406 290.01080322265625 152.5016632080078 C 289.2015380859375 154.5108184814453 288.94635009765625 157.5311737060547 288.5263366699219 160.57554626464844 C 288.2364196777344 162.06326293945312 288.0267028808594 162.64352416992188 288.4803466796875 163.1462860107422 C 288.3287048339844 163.3177947998047 288.29925537109375 162.75845336914062 288.7466125488281 161.123046875 C 289.9358215332031 160.12867736816406 289.6697998046875 160.52468872070312 289.4359130859375 162.22691345214844 C 288.959716796875 164.98211669921875 289.094970703125 167.61892700195312 290.5318603515625 170.4833984375 C 291.5249938964844 173.09715270996094 293.9043884277344 174.56622314453125 295.3940124511719 176.072021484375 C 296.3443298339844 177.25491333007812 297.5286865234375 177.87327575683594 297.9338073730469 177.9339141845703 C 297.6739807128906 178.0107879638672 297.7567443847656 178.13702392578125 298.4063720703125 178.6712646484375 C 299.0830078125 179.47096252441406 300.5896301269531 180.85621643066406 302.6792297363281 182.2043914794922 C 304.3443908691406 183.71279907226562 306.2762145996094 184.93869018554688 308.00787353515625 185.8105926513672 C 309.4481201171875 185.9803924560547 310.7626953125 185.91014099121094 312.2835388183594 186.10556030273438 C 313.4227600097656 187.07431030273438 313.7753601074219 188.1973876953125 313.4703674316406 189.1827850341797 C 313.2828063964844 189.4769744873047 313.32452392578125 189.1214599609375 313.7089538574219 188.55003356933594 C 314.8066711425781 188.39349365234375 316.6493225097656 188.2916259765625 318.5424499511719 188.66082763671875 C 320.9313659667969 189.96820068359375 324.2808837890625 190.627685546875 328.3603210449219 191.64849853515625 C 332.1009826660156 192.95755004882812 335.7432556152344 195.1579132080078 338.5954895019531 198.2640838623047 C 342.3223571777344 199.97479248046875 346.2147521972656 201.6937255859375 348.8601379394531 205.2224578857422 C 350.4894714355469 209.4062957763672 352.61468505859375 212.88623046875 353.3121032714844 215.72134399414062 C 353.3575439453125 218.30030822753906 353.2934265136719 221.4192352294922 354.1155700683594 224.6927947998047 C 354.4074401855469 227.96543884277344 353.2894287109375 231.20184326171875 351.7960510253906 234.64071655273438 C 350.31158447265625 237.8463134765625 347.8294677734375 240.4979705810547 345.098388671875 242.8497772216797 C 342.39141845703125 245.49351501464844 339.7577819824219 247.52464294433594 337.9486083984375 247.25531005859375 C 336.0314636230469 245.42132568359375 333.5022277832031 244.8480987548828 330.1312255859375 245.42410278320312 C 326.3565673828125 246.2613525390625 322.63787841796875 247.3295135498047 319.0861511230469 248.10775756835938 C 315.55224609375 248.5653076171875 312.2242126464844 248.9900665283203 309.4691162109375 250.1326141357422 C 306.9473571777344 250.94715881347656 304.5494689941406 251.94869995117188 301.63861083984375 253.01028442382812 C 298.2098083496094 254.09951782226562 294.55804443359375 255.32383728027344 290.16131591796875 257.21343994140625 C 285.6360168457031 259.51080322265625 281.3263244628906 261.2388610839844 277.0699157714844 262.2579345703125 C 274.21600341796875 263.32232666015625 274.0908203125 263.3113098144531 275.59625244140625 261.46258544921875 C 277.82183837890625 257.68048095703125 280.5672607421875 253.67543029785156 283.60614013671875 249.6737060546875 C 286.2104797363281 245.48974609375 288.3690185546875 241.9857177734375 290.3251647949219 238.83221435546875 C 292.0596923828125 235.98208618164062 293.6359558105469 232.9163818359375 295.5263977050781 229.5963134765625 C 297.3763427734375 226.4027862548828 299.0989685058594 222.927978515625 301.00506591796875 219.23043823242188 C 302.4364318847656 215.63951110839844 304.0782470703125 213.04443359375 304.9831237792969 211.27325439453125 C 304.45941162109375 210.26588439941406 302.6360778808594 209.9347381591797 299.92083740234375 210.25521850585938 C 296.7433776855469 210.93222045898438 293.34185791015625 211.622802734375 289.9442138671875 212.32373046875 C 286.5352478027344 212.6579132080078 283.4736633300781 213.4912567138672 280.6980285644531 214.6488494873047 C 277.8815002441406 215.68191528320312 275.06146240234375 216.4933624267578 272.14874267578125 217.47959899902344 C 268.8016052246094 218.77078247070312 265.5746765136719 220.0553741455078 262.6560363769531 221.87130737304688 C 259.0141906738281 223.72459411621094 256.14453125 225.17933654785156 253.19296264648438 227.0643768310547 C 250.21701049804688 228.81544494628906 247.1669158935547 231.22637939453125 243.3905029296875 234.34706115722656 C 238.63442993164062 236.4277801513672 235.55653381347656 239.79788208007812 233.1935272216797 242.08502197265625 C 231.85997009277344 241.5498046875 232.59898376464844 239.06234741210938 235.10719299316406 236.02838134765625 C 235.6577911376953 231.2285919189453 235.6000213623047 225.57469177246094 235.61654663085938 221.23988342285156 C 235.0289764404297 218.50489807128906 233.85269165039062 215.4626922607422 234.6851348876953 212.005126953125 C 235.66603088378906 208.84054565429688 237.43882751464844 206.1285858154297 239.92233276367188 204.29347229003906 C 240.7127685546875 201.0804901123047 242.00875854492188 198.44509887695312 245.56614685058594 197.6089324951172 C 248.98704528808594 194.74911499023438 253.01304626464844 191.36477661132812 257.2699890136719 188.66856384277344 C 260.80419921875 186.40957641601562 262.8838195800781 184.343505859375 264.8175964355469 182.59085083007812 C 267.28387451171875 180.5535125732422 269.8351135253906 177.80599975585938 272.40008544921875 174.67068481445312 C 274.8884582519531 171.5609588623047 277.1568603515625 167.9764404296875 278.68585205078125 164.0836639404297 C 280.6727600097656 160.51148986816406 282.0467529296875 156.63694763183594 282.6390686035156 152.54971313476562 C 282.83843994140625 148.59275817871094 283.26263427734375 144.57998657226562 282.57177734375 141.1977081298828 C 281.3719787597656 139.93411254882812 282.0516662597656 136.6312255859375 281.0032958984375 132.48524475097656" stroke-width="0.0" fill="rgb(147, 147, 237)" opacity="0.9991692" stroke="rgb(201, 36, 61)" stroke-opacity="0.20435451" stroke-linecap="round" stroke-linejoin="round"/>
    <path d="M 122.47410583496094 148.28289794921875 C 124.1881332397461 147.73641967773438 125.56507110595703 147.0350799560547 126.82044219970703 146.30307006835938 C 128.12098693847656 146.34298706054688 129.15504455566406 146.95904541015625 129.81858825683594 148.22988891601562 C 130.85888671875 149.92364501953125 131.93858337402344 151.3164520263672 132.8535919189453 152.0525360107422 C 133.42210388183594 152.1299591064453 134.04605102539062 152.40008544921875 134.8897247314453 152.68038940429688 C 135.7161407470703 152.22259521484375 136.77210998535156 151.63246154785156 137.62741088867188 151.1456298828125 C 138.02151489257812 150.6796112060547 138.2091827392578 150.35824584960938 138.46963500976562 149.87420654296875 C 139.03765869140625 148.6919403076172 140.09359741210938 147.3696746826172 141.85621643066406 146.45401000976562 C 143.965576171875 146.3211669921875 145.942626953125 146.91636657714844 147.22633361816406 147.0889892578125 C 147.38485717773438 146.41659545898438 146.6754913330078 146.7119903564453 145.7527618408203 147.76380920410156 C 145.0897979736328 149.18975830078125 144.3685302734375 150.26663208007812 143.8233184814453 151.1807098388672 C 142.91383361816406 152.48231506347656 141.7779541015625 153.7256622314453 140.67092895507812 154.65750122070312 C 139.83338928222656 155.68812561035156 139.28236389160156 156.79583740234375 138.8271942138672 158.06951904296875 C 138.43917846679688 159.5795440673828 137.97972106933594 161.37155151367188 137.706298828125 163.52557373046875 C 137.87950134277344 165.966064453125 138.97171020507812 168.57545471191406 141.12686157226562 171.66644287109375 C 144.53204345703125 174.82273864746094 149.02757263183594 176.75341796875 154.50526428222656 177.03834533691406 C 160.55686950683594 176.5027313232422 165.84625244140625 176.17977905273438 169.0980224609375 176.83004760742188 C 168.9817352294922 178.8209228515625 165.78079223632812 180.6075897216797 160.61595153808594 181.6400604248047 C 155.23817443847656 182.06130981445312 150.53158569335938 181.07650756835938 147.53598022460938 182.28765869140625 C 146.88385009765625 185.14830017089844 148.88372802734375 187.87969970703125 152.93289184570312 189.170166015625 C 158.2136688232422 188.7714385986328 163.7672882080078 188.19833374023438 168.92037963867188 188.843994140625 C 172.743408203125 190.4725799560547 174.524658203125 193.36868286132812 173.86233520507812 197.8858184814453 C 173.3177947998047 203.59291076660156 173.243896484375 209.51535034179688 171.90135192871094 214.9901885986328 C 169.84884643554688 219.83270263671875 169.08375549316406 223.74710083007812 170.32313537597656 226.65811157226562 C 172.44358825683594 228.1177520751953 175.0416259765625 227.31369018554688 177.4388885498047 225.7958221435547 C 179.39984130859375 227.17286682128906 180.86782836914062 230.35528564453125 183.00743103027344 234.739013671875 C 186.81016540527344 239.42758178710938 192.49444580078125 243.20916748046875 198.14500427246094 246.06015014648438 C 201.93038940429688 247.4561767578125 203.8826141357422 245.56773376464844 204.551513671875 241.765625 C 203.6514434814453 238.91162109375 200.05609130859375 236.84304809570312 196.51687622070312 232.33657836914062 C 194.76927185058594 224.9322052001953 193.0770721435547 218.61947631835938 194.1525421142578 215.5487060546875 C 199.77674865722656 215.486328125 206.41619873046875 214.1951904296875 212.5040740966797 211.1377716064453 C 218.18109130859375 213.46302795410156 223.76797485351562 217.00059509277344 226.7035369873047 220.60626220703125 C 224.96498107910156 224.16226196289062 222.21539306640625 229.55313110351562 218.26119995117188 235.3784942626953 C 211.7124786376953 238.7467803955078 208.73121643066406 243.36441040039062 210.71844482421875 248.3427734375 C 214.58656311035156 249.421142578125 220.41322326660156 247.1234588623047 226.18109130859375 245.71417236328125 C 226.9162139892578 248.3238525390625 223.59970092773438 253.01026916503906 220.28469848632812 259.0492858886719 C 217.76927185058594 262.9413757324219 219.35325622558594 263.8880920410156 224.26846313476562 264.02459716796875 C 228.5772247314453 267.7846984863281 229.30751037597656 270.0516052246094 224.27001953125 270.0316162109375 C 216.2548370361328 271.1618957519531 207.20216369628906 269.4463806152344 198.92750549316406 265.4691162109375 C 193.9303741455078 260.42010498046875 191.6810302734375 255.85755920410156 189.4590301513672 253.37857055664062 C 186.132568359375 253.96142578125 181.48226928710938 255.09165954589844 177.7334747314453 254.2939910888672 C 175.2770538330078 250.50146484375 172.8729248046875 245.09915161132812 169.91915893554688 239.17556762695312 C 166.6512451171875 233.5030059814453 163.2726593017578 228.19493103027344 159.70802307128906 223.3074188232422 C 155.967041015625 218.859619140625 151.98439025878906 214.61122131347656 147.9648895263672 210.18704223632812 C 143.7572479248047 205.93280029296875 139.77072143554688 202.3490753173828 136.29718017578125 199.90603637695312 C 133.78782653808594 199.8925323486328 132.4575958251953 202.28009033203125 131.6592254638672 206.1307830810547 C 130.85836791992188 211.04798889160156 129.708740234375 216.58775329589844 129.68247985839844 222.80601501464844 C 129.1893768310547 228.9536590576172 129.96322631835938 235.06483459472656 131.47889709472656 241.2462615966797 C 132.68858337402344 247.71957397460938 133.99099731445312 254.01022338867188 135.90603637695312 259.9798889160156 C 138.29122924804688 265.3328552246094 139.66683959960938 269.6701354980469 139.37294006347656 272.4097595214844 C 136.89772033691406 273.23956298828125 133.12318420410156 271.9521789550781 129.07418823242188 269.09747314453125 C 125.0601577758789 266.4001159667969 121.48995208740234 264.0172424316406 119.06952667236328 260.7691955566406 C 118.17131805419922 256.0682373046875 116.49620056152344 250.80870056152344 113.41648864746094 245.4211883544922 C 109.42581939697266 240.35523986816406 104.72386169433594 235.72012329101562 99.98912048339844 231.44967651367188 C 95.7353286743164 227.47967529296875 92.40371704101562 223.3934783935547 90.04654693603516 219.0573272705078 C 88.17864227294922 214.70306396484375 86.67201232910156 210.4722900390625 85.40342712402344 205.9683380126953 C 84.20840454101562 201.14614868164062 84.30181884765625 196.31797790527344 84.34786987304688 191.2755889892578 C 85.07438659667969 186.37887573242188 87.07765197753906 181.4140625 89.09256744384766 176.5052490234375 C 91.36170959472656 171.3910369873047 94.55587005615234 166.6312255859375 98.28652954101562 162.43125915527344 C 102.40454864501953 158.42567443847656 106.95184326171875 155.03443908691406 111.7376708984375 152.21087646484375 C 116.60493469238281 149.75234985351562 121.53485107421875 147.2674560546875 122.47410583496094 148.28289794921875" stroke-width="0.0" fill="rgb(149, 149, 238)" opacity="0.9996782" stroke="rgb(77, 141, 167)" stroke-opacity="0.7673982" stroke-linecap="round" stroke-linejoin="round"/>
    <path d="M 153.58319091796875 300.74835205078125 C 156.74876403808594 301.93402099609375 159.13722229003906 303.5566101074219 160.625732421875 304.7500915527344 C 161.42877197265625 305.7276611328125 161.56051635742188 306.12762451171875 161.37283325195312 305.67242431640625 C 160.4847869873047 304.4789123535156 159.1357421875 303.1385192871094 157.7112274169922 302.2613830566406 C 157.343994140625 301.7162780761719 158.02694702148438 301.2266540527344 159.47740173339844 301.09228515625 C 162.1969451904297 301.9869689941406 166.01478576660156 303.19366455078125 170.07972717285156 305.1562194824219 C 173.81155395507812 307.2412109375 176.7511749267578 308.9784240722656 178.47293090820312 310.63433837890625 C 178.28448486328125 312.2757873535156 176.68630981445312 313.43896484375 174.1497802734375 314.2979736328125 C 171.0910186767578 315.48370361328125 167.94161987304688 316.27685546875 165.10617065429688 316.1759033203125 C 162.7391357421875 315.83831787109375 160.79379272460938 315.7225036621094 159.267578125 315.6033935546875 C 158.18753051757812 315.6587829589844 157.51773071289062 315.7108154296875 157.1378173828125 315.7393798828125 C 156.88858032226562 315.99468994140625 156.58395385742188 316.37164306640625 156.1735382080078 316.6515808105469 C 155.71092224121094 316.74017333984375 155.15310668945312 316.8406677246094 154.54769897460938 317.0830078125 C 153.951171875 317.3670959472656 153.46128845214844 317.5094909667969 153.0709228515625 317.39483642578125 C 152.8565216064453 316.9337158203125 152.86599731445312 316.8119201660156 153.00604248046875 316.75946044921875 C 153.3184051513672 316.8025817871094 153.75494384765625 316.8786926269531 154.28482055664062 316.8448486328125 C 155.09341430664062 316.57501220703125 156.00465393066406 316.25994873046875 156.93275451660156 315.7835388183594 C 157.7926483154297 315.4185791015625 158.5883331298828 315.29339599609375 159.454345703125 315.51800537109375 C 160.61415100097656 315.7077331542969 162.00259399414062 315.731201171875 163.60826110839844 315.6144714355469 C 165.2482452392578 315.6880798339844 166.58660888671875 315.5791015625 167.89425659179688 315.2103576660156 C 169.5740509033203 315.1283874511719 171.67861938476562 314.47796630859375 173.70921325683594 313.64251708984375 C 175.0920867919922 313.8190002441406 176.02516174316406 314.8174133300781 176.57177734375 316.3273010253906 C 176.64173889160156 317.759033203125 176.8649139404297 318.58306884765625 176.98439025878906 318.682373046875 C 177.0459442138672 318.4023132324219 176.96778869628906 317.8143615722656 177.12893676757812 316.5631408691406 C 177.1104278564453 314.5576477050781 177.2090606689453 312.5074157714844 177.73155212402344 311.19342041015625 C 178.8622283935547 310.9751281738281 180.53427124023438 311.7479248046875 182.6336669921875 313.7765197753906 C 185.69696044921875 316.068115234375 188.74159240722656 319.0542907714844 191.9776153564453 321.4925231933594 C 194.6598663330078 323.6169738769531 196.75546264648438 325.33917236328125 197.88340759277344 326.22271728515625 C 197.63490295410156 326.76556396484375 196.60272216796875 326.8286437988281 195.3004608154297 326.5333557128906 C 194.40591430664062 326.32415771484375 194.55563354492188 326.20745849609375 195.3859405517578 326.276123046875 C 196.99444580078125 327.374267578125 199.9110870361328 328.9732666015625 204.74281311035156 328.44061279296875 C 213.28001403808594 323.4697265625 224.8941192626953 316.1520080566406 238.2158660888672 309.30914306640625 C 251.25921630859375 308.6950378417969 260.907470703125 315.0565185546875 264.07977294921875 325.6343994140625 C 258.8438720703125 335.19219970703125 247.47866821289062 340.6833801269531 234.5679931640625 344.49273681640625 C 223.6759033203125 346.05743408203125 214.61611938476562 345.6397705078125 207.0568084716797 344.1089782714844 C 200.6704864501953 343.50579833984375 195.21470642089844 343.1825256347656 191.4153594970703 343.3634338378906 C 188.5623321533203 343.4726867675781 186.2754364013672 343.3376770019531 184.88543701171875 343.2267150878906 C 184.7364959716797 342.85162353515625 185.58299255371094 343.03253173828125 186.80320739746094 343.4212646484375 C 188.0113525390625 343.5527648925781 189.19247436523438 343.6058044433594 190.7581787109375 343.6815490722656 C 193.483642578125 343.693115234375 197.84129333496094 343.8009338378906 203.66030883789062 344.03009033203125 C 210.63385009765625 344.5613098144531 219.1602325439453 345.1996765136719 228.12693786621094 347.3652038574219 C 236.35850524902344 352.7635498046875 243.38742065429688 356.5627746582031 247.0823211669922 359.3910827636719 C 244.4750518798828 361.86962890625 237.68264770507812 362.6653747558594 228.63372802734375 362.6617126464844 C 218.94671630859375 362.6103210449219 210.06492614746094 363.02618408203125 203.13365173339844 363.31524658203125 C 198.30062866210938 363.0653381347656 194.84359741210938 363.3461608886719 192.42120361328125 363.28656005859375 C 190.3068084716797 363.3741455078125 187.8405303955078 363.0994873046875 183.84976196289062 362.4000549316406 C 177.474365234375 362.2330627441406 168.67709350585938 362.1114501953125 158.68931579589844 361.97418212890625 C 149.7348175048828 360.8264465332031 145.0592498779297 357.7199401855469 147.57411193847656 353.55657958984375 C 156.00067138671875 352.7939758300781 165.3404998779297 351.7022399902344 172.52769470214844 347.8209228515625 C 176.8452911376953 342.35430908203125 178.77203369140625 337.83807373046875 179.63397216796875 335.40985107421875 C 179.7831573486328 335.29522705078125 178.85369873046875 337.2575378417969 177.35504150390625 340.67523193359375 C 175.6982879638672 344.6828308105469 172.9019775390625 347.91656494140625 169.23251342773438 349.6810607910156 C 165.1734161376953 349.1142578125 160.4674072265625 346.29705810546875 155.4190216064453 343.85064697265625 C 150.6936492919922 342.3150329589844 147.21775817871094 340.5682678222656 144.82791137695312 338.55279541015625 C 144.0111083984375 336.0188293457031 144.5109405517578 333.4795837402344 145.60009765625 331.43994140625 C 147.2600860595703 329.5338439941406 148.58250427246094 327.84002685546875 149.19076538085938 326.86962890625 C 149.2491455078125 326.8976135253906 148.66915893554688 328.2395324707031 147.61279296875 330.4214782714844 C 145.87612915039062 332.2797546386719 143.05555725097656 332.53704833984375 139.13638305664062 329.7759094238281 C 133.3839569091797 323.0613098144531 124.63762664794922 314.4036865234375 113.6011734008789 304.45648193359375 C 102.15634155273438 294.5905456542969 96.4681396484375 285.0958557128906 101.62155151367188 275.2253723144531 C 116.23323059082031 266.58160400390625 135.3392333984375 259.2718505859375 153.58319091796875 300.74835205078125" stroke-width="0.0" fill="rgb(54, 48, 146)" opacity="1.0" stroke="rgb(24, 46, 202)" stroke-opacity="0.3789944" stroke-linecap="round" stroke-linejoin="round"/>
    <path d="M 257.8086242675781 238.9642791748047 C 258.9324951171875 238.95001220703125 260.05096435546875 238.9481658935547 261.17303466796875 238.9364471435547 C 262.3102722167969 238.92007446289062 263.44268798828125 238.91050720214844 264.56195068359375 238.90028381347656 C 265.65069580078125 238.87335205078125 266.6629333496094 238.85342407226562 267.5793151855469 238.8464813232422 C 268.34490966796875 238.82432556152344 268.9292907714844 238.8130645751953 269.32659912109375 238.8251953125 C 269.5212097167969 238.82781982421875 269.50384521484375 238.8600616455078 269.3135681152344 238.91342163085938 C 269.0072021484375 238.99411010742188 268.6096496582031 239.1196746826172 268.2085876464844 239.28907775878906 C 267.87445068359375 239.50531005859375 267.6417541503906 239.77401733398438 267.55780029296875 240.10145568847656 C 267.6529541015625 240.47413635253906 267.89801025390625 240.91493225097656 268.27252197265625 241.39413452148438 C 268.7158203125 241.92196655273438 269.14642333984375 242.48953247070312 269.50457763671875 243.09092712402344 C 269.7235412597656 243.72125244140625 269.7386169433594 244.3854522705078 269.54345703125 245.06845092773438 C 269.1415710449219 245.77914428710938 268.57073974609375 246.50811767578125 267.9000549316406 247.25506591796875 C 267.1820373535156 248.0131378173828 266.4941711425781 248.77647399902344 265.8791198730469 249.52957153320312 C 265.3593444824219 250.26963806152344 264.9413757324219 250.96975708007812 264.6054382324219 251.62486267089844 C 264.3213806152344 252.21275329589844 264.0632629394531 252.7139892578125 263.7961120605469 253.12586975097656 C 263.4627380371094 253.4390869140625 263.04339599609375 253.64712524414062 262.5216979980469 253.77659606933594 C 261.87030029296875 253.8355255126953 261.1180725097656 253.8260040283203 260.2672119140625 253.77041625976562 C 259.318359375 253.69412231445312 258.3106689453125 253.60598754882812 257.2594299316406 253.5056610107422 C 256.1788024902344 253.41148376464844 255.09263610839844 253.32818603515625 254.02854919433594 253.24896240234375 C 252.97532653808594 253.16363525390625 251.95028686523438 253.0941162109375 250.9518585205078 253.04119873046875 C 249.9654541015625 252.9769744873047 248.98812866210938 252.93353271484375 248.00921630859375 252.8961944580078 C 247.0007781982422 252.86721801757812 245.96218872070312 252.8671875 244.8861846923828 252.87417602539062 C 243.7797393798828 252.9120635986328 242.6519775390625 252.98019409179688 241.5316619873047 253.04824829101562 C 240.45510864257812 253.13621520996094 239.4506378173828 253.20716857910156 238.55490112304688 253.23629760742188 C 237.80319213867188 253.2178955078125 237.20542907714844 253.1172637939453 236.79237365722656 252.9213409423828 C 236.56915283203125 252.6260223388672 236.5167236328125 252.23394775390625 236.63294982910156 251.75978088378906 C 236.88475036621094 251.2305145263672 237.21131896972656 250.6641082763672 237.57676696777344 250.07852172851562 C 237.93040466308594 249.50555419921875 238.22097778320312 248.97239685058594 238.40585327148438 248.4654083251953 C 238.46034240722656 248.02276611328125 238.3855438232422 247.61854553222656 238.185302734375 247.2312774658203 C 237.90489196777344 246.8716583251953 237.5792999267578 246.50579833984375 237.27940368652344 246.1170654296875 C 237.0424346923828 245.70465087890625 236.9430694580078 245.26968383789062 237.00999450683594 244.81552124023438 C 237.26377868652344 244.3634033203125 237.7066192626953 243.9405975341797 238.31988525390625 243.5797576904297 C 239.08016967773438 243.3123321533203 239.95301818847656 243.1529998779297 240.91207885742188 243.10787963867188 C 241.90940856933594 243.1558837890625 242.91583251953125 243.27845764160156 243.91580200195312 243.42608642578125 C 244.89146423339844 243.55921936035156 245.81817626953125 243.66094970703125 246.69590759277344 243.67816162109375 C 247.54141235351562 243.6175994873047 248.3489227294922 243.47244262695312 249.1372833251953 243.2260284423828 C 249.92771911621094 242.88656616210938 250.7066192626953 242.47776794433594 251.51002502441406 241.98690795898438 C 252.3045654296875 241.4385223388672 253.10496520996094 240.86268615722656 253.9251251220703 240.2638702392578 C 254.72650146484375 239.64111328125 255.55133056640625 239.0345916748047 257.8086242675781 238.9642791748047" stroke-width="0.0" fill="rgb(62, 62, 116)" opacity="1.0" stroke="rgb(67, 107, 202)" stroke-opacity="0.9640279" stroke-linecap="round" stroke-linejoin="round"/>
  </g>
</svg>
