<?xml version="1.0" ?>
<svg xmlns="http://www.w3.org/2000/svg" version="1.1" width="413" height="416">
  <defs/>
  <g>
    <path d="M -2.5226187705993652 -4.397087097167969 C -1.1425482034683228 -4.44320011138916 0.16945502161979675 -4.489470481872559 1.3716609477996826 -4.5194573402404785 C 2.4353981018066406 -4.503394603729248 3.3449761867523193 -4.438065528869629 4.132289886474609 -4.314752101898193 C 4.853000164031982 -4.109760284423828 5.606784343719482 -3.847642183303833 6.509920597076416 -3.5419297218322754 C 7.6908063888549805 -3.2584447860717773 9.338027000427246 -3.004422903060913 11.62193489074707 -2.837676763534546 C 14.693913459777832 -2.778512716293335 18.665903091430664 -2.847191572189331 23.579191207885742 -3.0197246074676514 C 29.435523986816406 -3.268167495727539 36.21840286254883 -3.578913688659668 43.862117767333984 -3.937363624572754 C 52.28050231933594 -4.296732425689697 61.370018005371094 -4.621040344238281 71.00939178466797 -4.884632110595703 C 81.06130981445312 -5.059629440307617 91.3884506225586 -5.152275085449219 101.87977600097656 -5.183177471160889 C 112.43609619140625 -5.166400909423828 122.96988677978516 -5.119792938232422 133.4251251220703 -5.071490287780762 C 143.7677001953125 -5.03303337097168 154.00645446777344 -5.004265308380127 164.15655517578125 -4.999197483062744 C 174.23385620117188 -5.0091047286987305 184.27346801757812 -5.0207014083862305 194.2852783203125 -5.040407180786133 C 204.2696533203125 -5.062257289886475 214.22764587402344 -5.075578689575195 224.15625 -5.0758843421936035 C 234.04212951660156 -5.0559539794921875 243.88523864746094 -5.024117946624756 253.70559692382812 -4.98349142074585 C 263.5154724121094 -4.951776504516602 273.3400573730469 -4.931236267089844 283.22418212890625 -4.92457914352417 C 293.2364501953125 -4.923501968383789 303.4368591308594 -4.914572715759277 313.85137939453125 -4.884180068969727 C 324.51373291015625 -4.836610794067383 335.4235534667969 -4.770583629608154 346.50439453125 -4.71747350692749 C 357.6683654785156 -4.698511123657227 368.83111572265625 -4.761777400970459 379.8304443359375 -4.951381206512451 C 390.3410949707031 -5.095568656921387 399.8438415527344 -4.648402214050293 407.90740966796875 -3.1403961181640625 C 413.8059997558594 0.166708305478096 417.3828430175781 5.767557144165039 418.9439392089844 13.020366668701172 C 419.0917053222656 21.825511932373047 418.491943359375 31.83934211730957 417.87530517578125 42.723388671875 C 417.6716613769531 54.12942123413086 417.7395935058594 65.76289367675781 417.8624572753906 77.44622802734375 C 417.8824768066406 89.06950378417969 417.8629150390625 100.5380630493164 417.85626220703125 111.6917953491211 C 417.8578186035156 122.47685241699219 417.8584899902344 132.94854736328125 417.8581848144531 143.15164184570312 C 417.858154296875 153.1381072998047 417.8581848144531 162.99172973632812 417.8581848144531 172.79307556152344 C 417.8581848144531 182.5813446044922 417.8581848144531 192.37327575683594 417.8581848144531 202.18519592285156 C 417.8581848144531 212.00424194335938 417.8581848144531 221.80535888671875 417.8581848144531 231.57492065429688 C 417.8581848144531 241.31814575195312 417.8581848144531 251.06199645996094 417.8581848144531 260.8453674316406 C 417.8581848144531 270.7392883300781 417.8582458496094 280.8258056640625 417.8581237792969 291.1827087402344 C 417.85687255859375 301.8707580566406 417.8564758300781 312.938720703125 417.86328125 324.38262939453125 C 417.87493896484375 336.12921142578125 417.84954833984375 348.0731201171875 417.7839050292969 360.0385437011719 C 417.7815246582031 371.786376953125 418.00946044921875 383.02630615234375 418.4715270996094 393.43310546875 C 418.8120422363281 402.67352294921875 418.10174560546875 410.4068603515625 415.4692077636719 416.3180847167969 C 410.4930114746094 420.1090087890625 403.5056457519531 421.9373779296875 394.8648376464844 422.29180908203125 C 384.9433288574219 421.8031921386719 374.10107421875 421.1435852050781 362.6800231933594 420.7505798339844 C 350.9698486328125 420.7046813964844 339.2053527832031 420.80059814453125 327.58148193359375 420.8729553222656 C 316.2201843261719 420.8719482421875 305.1775207519531 420.8577880859375 294.45947265625 420.85675048828125 C 284.04583740234375 420.85833740234375 273.8868103027344 420.85845947265625 263.9073181152344 420.858154296875 C 254.04156494140625 420.858154296875 244.2389678955078 420.8581848144531 234.45655822753906 420.8581848144531 C 224.6663055419922 420.8581848144531 214.861572265625 420.8581848144531 205.06039428710938 420.8581848144531 C 195.26873779296875 420.8581848144531 185.4951934814453 420.8581848144531 175.75527954101562 420.8581848144531 C 165.99496459960938 420.8581848144531 156.15713500976562 420.858154296875 146.19400024414062 420.858154296875 C 136.03189086914062 420.8585205078125 125.5964584350586 420.8583984375 114.84288024902344 420.8564758300781 C 103.76930236816406 420.85723876953125 92.3915786743164 420.8723449707031 80.7889404296875 420.8742980957031 C 69.09878540039062 420.7933654785156 57.49631881713867 420.69732666015625 46.21177291870117 420.7646484375 C 35.5098876953125 421.2150573730469 25.652555465698242 421.897705078125 16.899612426757812 422.23309326171875 C 9.466991424560547 421.3775939941406 3.4997081756591797 418.72998046875 -0.7786186933517456 413.88623046875 C -3.136544942855835 406.641357421875 -4.424394130706787 397.7466125488281 -4.7933573722839355 387.6098327636719 C -4.726043701171875 376.7428283691406 -4.648965358734131 365.50341796875 -4.631903171539307 354.1236877441406 C -4.664494037628174 342.7674560546875 -4.722562789916992 331.5635070800781 -4.7954511642456055 320.59588623046875 C -4.857443332672119 309.90594482421875 -4.910013675689697 299.4791259765625 -4.940725803375244 289.2768249511719 C -4.962595462799072 279.25494384765625 -4.984025001525879 269.35711669921875 -5.008720397949219 259.52618408203125 C -5.036440372467041 249.7144317626953 -5.0581841468811035 239.8739013671875 -5.067318916320801 229.9766845703125 C -5.061287879943848 220.026611328125 -5.046930313110352 210.02520751953125 -5.028524875640869 199.99365234375 C -5.024413585662842 189.96429443359375 -5.030506134033203 179.93991088867188 -5.0432634353637695 169.94317626953125 C -5.056439399719238 159.98326110839844 -5.061715126037598 150.04898071289062 -5.058725833892822 140.1336669921875 C -5.038781642913818 130.22628784179688 -5.0013604164123535 120.31087493896484 -4.950929641723633 110.37751770019531 C -4.8933563232421875 100.41680908203125 -4.836615562438965 90.41346740722656 -4.790696620941162 80.35852813720703 C -4.760890960693359 70.25199890136719 -4.757987976074219 60.092716217041016 -4.796292304992676 49.883609771728516 C -4.882544040679932 39.63890838623047 -5.009762287139893 29.35210418701172 -5.180944919586182 19.027143478393555 C -5.3616251945495605 8.675484657287598 -5.550778388977051 -1.7026234865188599 -2.5226187705993652 -4.397087097167969" stroke-width="0.0" fill="rgb(73, 73, 180)" opacity="0.99999636" stroke="rgb(6, 158, 243)" stroke-opacity="0.104724735" stroke-linecap="round" stroke-linejoin="round"/>
    <path d="M 124.81024932861328 137.5359649658203 C 123.41204071044922 137.59716796875 122.20748138427734 137.74920654296875 121.38172912597656 137.42184448242188 C 121.09777069091797 136.61851501464844 120.93550872802734 135.724365234375 120.91800689697266 135.4551544189453 C 121.06627655029297 135.52511596679688 121.32354736328125 135.99537658691406 121.820068359375 137.15977478027344 C 122.57687377929688 138.69700622558594 123.86292266845703 140.28016662597656 125.57555389404297 141.86822509765625 C 127.6257553100586 143.5722198486328 129.84317016601562 145.05596923828125 132.5214080810547 145.7833251953125 C 135.63653564453125 145.694091796875 139.20191955566406 145.33738708496094 142.9729766845703 145.21682739257812 C 146.5373992919922 145.63499450683594 149.3623046875 147.23703002929688 151.58787536621094 149.5786895751953 C 153.30935668945312 152.56478881835938 154.6685028076172 155.70346069335938 155.8895263671875 158.63824462890625 C 157.20240783691406 161.42779541015625 158.81385803222656 163.86265563964844 160.90353393554688 165.79966735839844 C 163.39427185058594 167.43539428710938 166.16795349121094 169.00111389160156 169.24253845214844 170.51751708984375 C 172.60592651367188 171.9985809326172 175.71592712402344 173.6542510986328 178.82003784179688 175.53497314453125 C 181.85403442382812 177.76296997070312 184.54476928710938 180.23255920410156 186.67373657226562 183.12960815429688 C 187.9537353515625 186.69924926757812 188.43255615234375 190.84437561035156 188.58724975585938 195.1269073486328 C 188.4618682861328 199.2340087890625 188.30909729003906 203.1774139404297 188.08212280273438 206.70932006835938 C 187.97059631347656 209.86447143554688 187.89402770996094 212.62176513671875 187.80528259277344 214.97921752929688 C 187.80067443847656 216.9926300048828 187.9556121826172 218.67010498046875 188.3068389892578 219.9779052734375 C 188.98422241210938 220.90049743652344 190.00140380859375 221.4309844970703 191.2767333984375 221.54403686523438 C 192.75125122070312 221.26055908203125 194.4022216796875 220.56944274902344 196.22232055664062 219.61143493652344 C 198.20912170410156 218.4879608154297 200.36473083496094 217.29391479492188 202.68045043945312 216.0830078125 C 205.1344451904297 214.98281860351562 207.6548614501953 214.108154296875 210.14315795898438 213.55406188964844 C 212.52720642089844 213.39454650878906 214.75 213.69613647460938 216.68653869628906 214.4842987060547 C 218.25686645507812 215.74835205078125 219.3849334716797 217.44351196289062 220.00631713867188 219.47930908203125 C 220.11026000976562 221.7882537841797 219.79676818847656 224.29953002929688 219.15255737304688 226.94998168945312 C 218.29266357421875 229.68499755859375 217.3485870361328 232.4456024169922 216.47219848632812 235.223388671875 C 215.73971557617188 237.93394470214844 215.19387817382812 240.6660919189453 214.895751953125 243.45384216308594 C 214.8599090576172 246.23597717285156 214.99118041992188 248.95623779296875 215.18328857421875 251.5471649169922 C 215.2680206298828 253.9741973876953 215.1122589111328 256.2099304199219 214.6861114501953 258.2261657714844 C 213.95846557617188 259.950439453125 212.97665405273438 261.3339538574219 211.8265838623047 262.43426513671875 C 210.57177734375 263.3912048339844 209.21388244628906 264.1329345703125 207.84217834472656 264.5771789550781 C 206.58860778808594 264.812255859375 205.43173217773438 265.13201904296875 204.2164764404297 265.78857421875 C 202.71177673339844 266.4927673339844 200.76414489746094 266.89849853515625 198.25523376464844 267.4234313964844 C 194.70721435546875 267.74041748046875 190.0993194580078 267.9435729980469 184.91891479492188 268.98089599609375 C 179.91775512695312 272.3179626464844 174.98269653320312 277.052978515625 170.09976196289062 280.290283203125 C 165.8331756591797 279.8076477050781 163.01473999023438 276.245849609375 163.14007568359375 271.1993408203125 C 167.307861328125 266.1003112792969 172.60877990722656 261.15936279296875 175.96047973632812 256.0330810546875 C 174.95606994628906 250.3332977294922 171.17715454101562 244.34442138671875 167.15904235839844 238.0404510498047 C 163.341552734375 232.12445068359375 158.84144592285156 227.07408142089844 153.50840759277344 223.46116638183594 C 148.10406494140625 221.77728271484375 142.94610595703125 222.21913146972656 138.37408447265625 224.59811401367188 C 134.80831909179688 228.74163818359375 132.6328582763672 233.89146423339844 132.1182861328125 239.43707275390625 C 132.9396209716797 244.8656005859375 134.15957641601562 249.96421813964844 135.61093139648438 254.54530334472656 C 137.19261169433594 258.5461120605469 138.57571411132812 261.9610900878906 139.03070068359375 264.95074462890625 C 137.8985595703125 267.5648193359375 135.42320251464844 269.61676025390625 132.27809143066406 270.84521484375 C 128.8115997314453 271.18499755859375 125.32284545898438 270.7189636230469 122.14031982421875 269.3485107421875 C 119.45732116699219 267.2757568359375 117.61641693115234 264.66754150390625 116.99818420410156 261.4347229003906 C 117.02401733398438 257.6206970214844 116.47432708740234 253.7814483642578 114.85850524902344 249.9742889404297 C 112.25881958007812 246.3472137451172 109.34071350097656 242.8570098876953 105.91453552246094 239.7155303955078 C 102.72135925292969 236.67250061035156 99.70712280273438 233.71530151367188 96.85926818847656 230.81492614746094 C 94.47663879394531 227.75144958496094 92.39276123046875 224.9778289794922 90.57936096191406 222.298828125 C 89.13890075683594 219.31906127929688 87.95179748535156 216.38926696777344 86.9720687866211 213.8678741455078 C 85.9871826171875 211.11314392089844 84.98995971679688 208.27288818359375 84.32339477539062 205.44618225097656 C 83.95857238769531 202.62582397460938 83.65922546386719 199.78036499023438 83.62675476074219 196.94985961914062 C 83.71129608154297 194.30548095703125 83.8060302734375 192.0848388671875 83.84696960449219 190.29336547851562 C 83.62789916992188 188.8723907470703 83.45919799804688 187.74423217773438 83.3481674194336 187.1798095703125 C 83.18984985351562 187.23715209960938 83.2139663696289 187.34368896484375 83.40774536132812 187.2987823486328 C 83.9005126953125 186.9027862548828 84.55062866210938 185.88206481933594 85.10585021972656 183.7412109375 C 85.76770782470703 180.76220703125 86.87108612060547 177.25872802734375 88.47229766845703 173.40818786621094 C 90.88945007324219 169.33482360839844 93.60694122314453 165.25228881835938 96.98743438720703 161.34222412109375 C 100.72496795654297 157.89974975585938 104.5432357788086 154.67608642578125 108.67822265625 151.98292541503906 C 113.26673126220703 149.5771026611328 118.06078338623047 147.53131103515625 123.1149673461914 146.0758056640625 C 128.12449645996094 145.29489135742188 133.0850830078125 144.78794860839844 124.81024932861328 137.5359649658203" stroke-width="0.0" fill="rgb(90, 90, 187)" opacity="0.999998" stroke="rgb(14, 103, 180)" stroke-opacity="0.04718994" stroke-linecap="round" stroke-linejoin="round"/>
    <path d="M 280.1826477050781 145.22903442382812 C 280.1816711425781 146.14646911621094 280.167724609375 147.08108520507812 280.1440734863281 148.00404357910156 C 280.0995788574219 148.93057250976562 280.02313232421875 149.88174438476562 279.89996337890625 150.85421752929688 C 279.7268371582031 151.8385772705078 279.52532958984375 152.8295135498047 279.3072814941406 153.80929565429688 C 279.10589599609375 154.7621307373047 278.947021484375 155.65037536621094 278.83782958984375 156.45269775390625 C 278.8146057128906 157.15261840820312 278.916259765625 157.72117614746094 279.1634826660156 158.13633728027344 C 279.55657958984375 158.3829803466797 280.08184814453125 158.45339965820312 280.746826171875 158.37185668945312 C 281.5409240722656 158.1581573486328 282.4365539550781 157.83177185058594 283.4323425292969 157.45118713378906 C 284.5205993652344 157.083984375 285.64617919921875 156.78085327148438 286.758544921875 156.57139587402344 C 287.81085205078125 156.4797821044922 288.72607421875 156.51841735839844 289.46246337890625 156.6728973388672 C 289.9827575683594 156.91004943847656 290.23138427734375 157.2496795654297 290.1697692871094 157.71441650390625 C 289.85906982421875 158.3602294921875 289.32574462890625 159.2325897216797 288.73626708984375 160.34620666503906 C 288.22796630859375 161.81272888183594 287.97381591796875 163.66848754882812 288.0982360839844 165.92930603027344 C 288.7086486816406 168.55636596679688 289.8818664550781 171.454345703125 291.6380920410156 174.5162353515625 C 293.95404052734375 177.61270141601562 296.7719421386719 180.6221160888672 300.0010986328125 183.47434997558594 C 303.5373229980469 186.0689697265625 307.31103515625 188.34371948242188 311.23382568359375 190.25489807128906 C 315.1975402832031 191.8032684326172 319.1031799316406 193.0806121826172 322.9004211425781 194.18109130859375 C 326.55010986328125 195.22219848632812 329.9973449707031 196.32080078125 333.25146484375 197.55484008789062 C 336.2830810546875 199.02281188964844 339.09649658203125 200.84091186523438 341.67767333984375 202.95547485351562 C 344.053955078125 205.42327880859375 346.215087890625 208.2196807861328 348.1298828125 211.20660400390625 C 349.80438232421875 214.2105255126953 351.25994873046875 217.07542419433594 352.5329895019531 219.6215057373047 C 353.6473388671875 221.7877655029297 354.6020202636719 223.5479278564453 355.3883972167969 224.8275909423828 C 356.03997802734375 225.51019287109375 356.45159912109375 225.81993103027344 356.66876220703125 225.93751525878906 C 356.54425048828125 226.0697784423828 355.9519958496094 226.4375457763672 354.97296142578125 227.25390625 C 353.6133728027344 228.51148986816406 351.76971435546875 230.21209716796875 349.5807800292969 232.4208221435547 C 347.2158203125 235.0443115234375 344.7101135253906 237.9910430908203 342.12481689453125 241.10220336914062 C 339.6386413574219 244.34750366210938 337.2781982421875 247.6236114501953 335.1706848144531 250.8042449951172 C 333.3602294921875 253.8817138671875 331.9468994140625 256.75567626953125 330.8807373046875 259.2618408203125 C 330.15753173828125 261.2685546875 329.5222473144531 262.8240051269531 328.9173583984375 264.17767333984375 C 328.3464050292969 265.3087463378906 327.7928771972656 266.3719787597656 326.9033203125 267.8408508300781 C 325.3697509765625 270.0285949707031 323.0122985839844 273.38043212890625 319.35791015625 278.1921081542969 C 314.0489196777344 284.67657470703125 307.7205505371094 293.0496826171875 300.49615478515625 302.6425476074219 C 292.04217529296875 311.29547119140625 282.4985656738281 316.1631774902344 272.8161926269531 315.47186279296875 C 263.94512939453125 309.4261169433594 258.043701171875 300.2276916503906 255.88873291015625 289.5180358886719 C 256.2875061035156 278.67462158203125 258.9896545410156 268.67596435546875 262.7987365722656 259.9356384277344 C 266.54180908203125 252.77847290039062 270.1741638183594 247.30198669433594 272.77923583984375 243.32945251464844 C 273.82415771484375 240.36451721191406 273.96856689453125 238.08319091796875 273.6670837402344 236.3085479736328 C 273.0852355957031 234.6571502685547 272.2500915527344 232.82835388183594 271.2125244140625 230.81097412109375 C 269.9267578125 228.67990112304688 268.3884582519531 226.49404907226562 266.6753845214844 224.2652130126953 C 264.85638427734375 222.04495239257812 262.88580322265625 219.78463745117188 260.8489074707031 217.53378295898438 C 259.01123046875 215.29734802246094 257.4288635253906 213.10757446289062 256.1771545410156 210.9859619140625 C 255.406005859375 208.9241943359375 255.16969299316406 206.9271240234375 255.43675231933594 204.91497802734375 C 256.13848876953125 202.8156280517578 257.1403503417969 200.52024841308594 258.2794494628906 197.98475646972656 C 259.4878845214844 195.1886444091797 260.7327880859375 192.18365478515625 261.990478515625 189.05413818359375 C 263.25799560546875 185.9068603515625 264.4863586425781 182.8799591064453 265.7452697753906 180.17320251464844 C 266.9023742675781 177.8192138671875 267.7973327636719 175.9520263671875 268.324951171875 174.5492401123047 C 268.4704895019531 173.58755493164062 268.2517395019531 173.05813598632812 267.6695861816406 172.8984832763672 C 266.7535095214844 173.04298400878906 265.5496520996094 173.35850524902344 264.1404113769531 173.78851318359375 C 262.516845703125 174.19386291503906 260.74609375 174.4713134765625 258.90802001953125 174.55398559570312 C 257.0473327636719 174.4009246826172 255.1971435546875 173.98165893554688 253.40267944335938 173.25238037109375 C 251.6963348388672 172.21792602539062 250.1160430908203 170.91046142578125 248.7184295654297 169.35137939453125 C 247.55406188964844 167.6165771484375 246.66053771972656 165.81048583984375 246.06695556640625 164.02000427246094 C 245.80213928222656 162.35943603515625 245.88523864746094 160.9067840576172 246.31321716308594 159.74618530273438 C 247.08071899414062 158.9354705810547 248.1597900390625 158.48123168945312 249.4730987548828 158.35305786132812 C 250.99839782714844 158.50881958007812 252.63302612304688 158.8742218017578 254.32583618164062 159.36509704589844 C 256.02020263671875 159.90310668945312 257.6766052246094 160.4048614501953 259.2591552734375 160.7658233642578 C 260.76068115234375 160.91294860839844 262.1825866699219 160.8081817626953 263.5309143066406 160.42523193359375 C 264.803466796875 159.74180603027344 266.0068664550781 158.77149963378906 267.16949462890625 157.5605010986328 C 268.3136291503906 156.17323303222656 269.4294128417969 154.67161560058594 270.546875 153.1240692138672 C 271.66204833984375 151.5651092529297 272.7725830078125 150.0127716064453 273.8807373046875 148.4785919189453 C 274.97637939453125 146.95480346679688 276.07781982421875 145.42860412597656 280.1826477050781 145.22903442382812" stroke-width="0.0" fill="rgb(73, 73, 166)" opacity="0.9999999" stroke="rgb(95, 141, 32)" stroke-opacity="0.4469963" stroke-linecap="round" stroke-linejoin="round"/>
    <path d="M 146.90562438964844 41.630348205566406 C 146.6219482421875 41.735015869140625 146.49769592285156 41.372493743896484 146.89137268066406 41.20893478393555 C 147.62667846679688 41.57958221435547 148.49974060058594 41.78627395629883 149.47999572753906 41.97580337524414 C 150.6510467529297 42.462764739990234 152.05455017089844 41.94901657104492 152.79505920410156 42.087066650390625 C 153.4187469482422 42.64389419555664 153.94442749023438 42.84219741821289 154.522705078125 42.962989807128906 C 155.0859375 42.94839859008789 155.92974853515625 42.98316955566406 157.00494384765625 43.773746490478516 C 158.45693969726562 44.90285110473633 159.98048400878906 45.32556915283203 162.3301239013672 45.17182159423828 C 165.6094207763672 46.84468078613281 168.7677459716797 49.21483612060547 173.05462646484375 51.616668701171875 C 178.75689697265625 54.03749084472656 183.99444580078125 57.26299285888672 188.82449340820312 61.34340286254883 C 194.18544006347656 64.9251708984375 199.0078125 68.57206726074219 204.09219360351562 71.60433959960938 C 209.38491821289062 74.32466888427734 214.49925231933594 76.22356414794922 220.38233947753906 76.40203857421875 C 225.79466247558594 75.86076354980469 231.41368103027344 73.73493957519531 237.32412719726562 72.51561737060547 C 242.82192993164062 72.82180786132812 247.16867065429688 74.36600494384766 249.659423828125 77.0655288696289 C 249.56976318359375 80.8486557006836 247.4132080078125 85.4151382446289 244.10498046875 90.47980499267578 C 240.94309997558594 95.8207015991211 239.3725128173828 100.95109558105469 239.26280212402344 105.50349426269531 C 240.82388305664062 109.95831298828125 245.1226806640625 113.2134017944336 250.97665405273438 114.86888122558594 C 256.5951843261719 116.6773910522461 262.161865234375 118.51319122314453 267.6003723144531 120.57491302490234 C 272.28619384765625 122.51676177978516 275.295166015625 126.23649597167969 276.8561706542969 131.23509216308594 C 278.9920654296875 136.0751495361328 280.01104736328125 141.16111755371094 280.5820007324219 147.03631591796875 C 280.6025085449219 153.17733764648438 279.4722595214844 158.72061157226562 277.37261962890625 163.67779541015625 C 274.3910217285156 168.8527374267578 270.8348083496094 174.00563049316406 267.1758117675781 179.13189697265625 C 262.7926025390625 183.66270446777344 258.0042724609375 187.77891540527344 252.5254669189453 191.01242065429688 C 246.96766662597656 194.14781188964844 242.42623901367188 197.89622497558594 238.86073303222656 202.09898376464844 C 235.97235107421875 206.55023193359375 233.8999786376953 211.09671020507812 233.2189178466797 216.29823303222656 C 233.53770446777344 221.9102020263672 233.92820739746094 227.9726104736328 232.5632781982422 233.95687866210938 C 229.03697204589844 239.41525268554688 224.59097290039062 243.86997985839844 219.8014678955078 246.5162811279297 C 215.4688720703125 247.00332641601562 212.53610229492188 245.06060791015625 211.82850646972656 240.76234436035156 C 212.80242919921875 235.25677490234375 214.60362243652344 229.63314819335938 216.4800567626953 224.75489807128906 C 217.57171630859375 221.05999755859375 217.5122833251953 218.47328186035156 216.25779724121094 216.93966674804688 C 213.9528350830078 216.3410186767578 211.08035278320312 216.2095489501953 208.09280395507812 216.62677001953125 C 205.47874450683594 217.6731414794922 203.6903076171875 219.65380859375 202.8007354736328 222.75009155273438 C 202.65463256835938 226.9862823486328 202.87911987304688 231.83055114746094 203.11895751953125 237.04629516601562 C 203.014404296875 241.75257873535156 202.09048461914062 244.6444854736328 199.69482421875 245.1248016357422 C 195.2548065185547 242.58555603027344 190.04115295410156 239.48953247070312 185.46034240722656 235.26634216308594 C 181.97842407226562 230.37417602539062 180.032958984375 225.2860870361328 179.78465270996094 220.1900177001953 C 180.2693634033203 214.6940460205078 182.5830841064453 209.44456481933594 185.47401428222656 204.11550903320312 C 188.6464080810547 198.954345703125 190.41783142089844 193.43765258789062 190.45639038085938 187.57461547851562 C 189.6637725830078 182.6353759765625 186.61988830566406 178.5841064453125 182.15676879882812 176.19725036621094 C 176.85757446289062 174.74526977539062 171.4751434326172 174.06039428710938 165.85781860351562 174.0139923095703 C 160.3856964111328 174.3135223388672 155.04544067382812 174.47232055664062 149.94830322265625 173.9967803955078 C 145.18960571289062 172.2777862548828 141.42771911621094 169.23577880859375 139.527587890625 164.85830688476562 C 139.3100128173828 159.81846618652344 141.54171752929688 154.61109924316406 146.2237091064453 150.114013671875 C 150.59326171875 145.34243774414062 152.8582305908203 139.99395751953125 154.1206512451172 134.8391876220703 C 153.12437438964844 131.3284454345703 150.46463012695312 128.54039001464844 146.2882080078125 126.65995788574219 C 141.68663024902344 126.0246353149414 135.96514892578125 126.96356201171875 130.58021545410156 129.06863403320312 C 125.11463928222656 131.3653106689453 119.3621597290039 133.31643676757812 113.73955535888672 134.05311584472656 C 108.3961181640625 133.17562866210938 103.5677719116211 130.56625366210938 99.80301666259766 126.45674896240234 C 97.60538482666016 121.01824951171875 96.9051284790039 115.22901153564453 98.75031280517578 109.80183410644531 C 101.60223388671875 104.7906494140625 105.06297302246094 101.120849609375 110.0558090209961 99.50859832763672 C 115.40298461914062 98.88414764404297 121.02928161621094 99.94430541992188 126.57949829101562 102.13601684570312 C 131.7371063232422 104.69693756103516 136.91818237304688 107.35417938232422 141.95269775390625 109.76765441894531 C 147.14515686035156 111.82093048095703 152.46519470214844 113.22582244873047 157.92431640625 114.08189392089844 C 162.65736389160156 114.89590454101562 167.16880798339844 114.14161682128906 171.29002380371094 110.91703796386719 C 175.3431854248047 107.15846252441406 177.66677856445312 102.59489440917969 177.7818603515625 97.93345642089844 C 175.85968017578125 93.24569702148438 172.79776000976562 90.23526763916016 167.803955078125 89.25175476074219 C 162.46063232421875 87.76982879638672 157.74636840820312 86.89199829101562 152.60401916503906 86.07955169677734 C 146.7142333984375 85.9222412109375 140.9333038330078 85.19805908203125 135.1876678466797 83.45933532714844 C 129.63461303710938 80.95405578613281 124.31652069091797 78.02661895751953 120.24747467041016 73.88874053955078 C 118.47087097167969 69.08663940429688 118.00870513916016 62.960289001464844 119.22209167480469 57.24002456665039 C 122.49956512451172 52.24823760986328 125.8603286743164 47.7958984375 129.72134399414062 44.926513671875 C 134.74313354492188 42.971492767333984 139.51600646972656 40.41781234741211 146.90562438964844 41.630348205566406" stroke-width="0.0" fill="rgb(21, 18, 71)" opacity="0.99999493" stroke="rgb(17, 241, 122)" stroke-opacity="0.90690255" stroke-linecap="round" stroke-linejoin="round"/>
  </g>
</svg>
