<?xml version="1.0" ?>
<svg xmlns="http://www.w3.org/2000/svg" version="1.1" width="363" height="550">
  <defs/>
  <g>
    <path d="M 10.0 0.0 C 22.0 0.0 34.0 0.0 46.0 0.0 C 58.0 0.0 69.0 3.0 79.0 0.0 C 88.0 3.0 91.0 0.0 103.0 0.0 C 115.0 0.0 127.0 0.0 139.0 0.0 C 151.0 0.0 163.0 0.0 173.0 2.0 C 176.0 13.0 180.0 20.0 180.0 32.0 C 183.0 24.0 186.0 15.0 195.0 22.0 C 207.0 22.0 217.0 19.0 213.0 16.0 C 216.0 13.0 225.0 10.0 230.0 13.0 C 241.0 14.0 239.0 18.0 241.0 29.0 C 245.0 37.0 248.0 31.0 258.0 33.0 C 260.0 44.0 266.0 42.0 264.0 32.0 C 266.0 23.0 272.0 19.0 267.0 16.0 C 257.0 16.0 250.0 12.0 250.0 3.0 C 256.0 0.0 267.0 0.0 279.0 0.0 C 291.0 0.0 303.0 0.0 315.0 0.0 C 327.0 0.0 339.0 0.0 351.0 0.0 C 362.0 1.0 362.0 13.0 362.0 25.0 C 362.0 37.0 362.0 49.0 362.0 61.0 C 362.0 73.0 362.0 85.0 362.0 97.0 C 362.0 109.0 362.0 121.0 362.0 132.0 C 362.0 140.0 362.0 152.0 362.0 164.0 C 362.0 176.0 362.0 188.0 362.0 200.0 C 362.0 212.0 362.0 224.0 362.0 236.0 C 362.0 248.0 362.0 260.0 362.0 272.0 C 362.0 284.0 362.0 296.0 362.0 308.0 C 362.0 320.0 362.0 332.0 362.0 344.0 C 362.0 356.0 362.0 368.0 362.0 380.0 C 362.0 392.0 362.0 404.0 362.0 416.0 C 362.0 428.0 362.0 440.0 362.0 452.0 C 362.0 464.0 362.0 476.0 362.0 488.0 C 362.0 500.0 362.0 512.0 362.0 524.0 C 362.0 536.0 362.0 548.0 351.0 549.0 C 339.0 549.0 327.0 549.0 315.0 549.0 C 303.0 549.0 291.0 549.0 279.0 549.0 C 267.0 549.0 255.0 549.0 243.0 549.0 C 231.0 549.0 219.0 549.0 207.0 549.0 C 195.0 549.0 183.0 549.0 171.0 549.0 C 159.0 549.0 147.0 549.0 135.0 549.0 C 123.0 549.0 111.0 549.0 99.0 549.0 C 87.0 549.0 75.0 549.0 63.0 549.0 C 51.0 549.0 39.0 549.0 27.0 549.0 C 15.0 549.0 3.0 549.0 0.0 540.0 C 0.0 528.0 0.0 516.0 0.0 504.0 C 0.0 492.0 0.0 480.0 0.0 468.0 C 3.0 458.0 8.0 450.0 0.0 442.0 C 4.0 436.0 0.0 429.0 0.0 417.0 C 0.0 405.0 0.0 393.0 0.0 381.0 C 9.0 378.0 8.0 373.0 0.0 367.0 C 0.0 355.0 0.0 343.0 0.0 331.0 C 0.0 319.0 0.0 307.0 0.0 295.0 C 0.0 283.0 0.0 271.0 0.0 259.0 C 0.0 247.0 0.0 235.0 0.0 223.0 C 0.0 211.0 2.0 201.0 0.0 190.0 C 0.0 178.0 0.0 166.0 0.0 154.0 C 0.0 142.0 0.0 130.0 0.0 118.0 C 0.0 106.0 0.0 94.0 0.0 82.0 C 3.0 73.0 2.0 65.0 1.0 56.0 C 0.0 48.0 0.0 36.0 0.0 24.0 C 0.0 12.0 0.0 0.0 10.0 0.0" stroke-width="0.0" fill="rgb(148, 164, 101)" opacity="1.0" stroke="rgb(104, 224, 59)" stroke-opacity="0.30927762" stroke-linecap="round" stroke-linejoin="round"/>
    <path d="M 293.0 143.0 C 305.0 151.0 323.0 149.0 335.0 145.0 C 327.0 160.0 344.0 157.0 341.0 162.0 C 350.0 170.0 357.0 180.0 357.0 187.0 C 362.0 196.0 362.0 215.0 361.0 234.0 C 354.0 240.0 357.0 249.0 362.0 254.0 C 362.0 273.0 360.0 292.0 349.0 293.0 C 358.0 300.0 362.0 306.0 362.0 325.0 C 362.0 344.0 362.0 363.0 358.0 380.0 C 362.0 384.0 362.0 403.0 362.0 422.0 C 362.0 438.0 362.0 457.0 362.0 476.0 C 362.0 495.0 362.0 514.0 362.0 524.0 C 362.0 543.0 349.0 549.0 330.0 549.0 C 317.0 546.0 301.0 549.0 282.0 549.0 C 263.0 549.0 244.0 549.0 225.0 549.0 C 206.0 549.0 191.0 546.0 181.0 549.0 C 167.0 541.0 149.0 535.0 150.0 517.0 C 143.0 506.0 143.0 519.0 135.0 519.0 C 118.0 518.0 124.0 526.0 123.0 538.0 C 131.0 549.0 114.0 541.0 101.0 534.0 C 88.0 528.0 73.0 526.0 63.0 525.0 C 60.0 515.0 69.0 520.0 68.0 502.0 C 72.0 493.0 89.0 501.0 107.0 508.0 C 117.0 496.0 111.0 486.0 119.0 474.0 C 124.0 468.0 126.0 486.0 137.0 491.0 C 143.0 498.0 156.0 509.0 158.0 499.0 C 170.0 488.0 174.0 499.0 190.0 501.0 C 199.0 491.0 205.0 485.0 201.0 478.0 C 207.0 474.0 198.0 464.0 182.0 464.0 C 169.0 456.0 160.0 446.0 150.0 450.0 C 136.0 443.0 147.0 435.0 157.0 442.0 C 168.0 444.0 182.0 450.0 192.0 443.0 C 206.0 440.0 218.0 438.0 206.0 430.0 C 216.0 421.0 231.0 421.0 238.0 432.0 C 236.0 428.0 240.0 417.0 240.0 404.0 C 245.0 394.0 243.0 382.0 258.0 391.0 C 271.0 386.0 272.0 370.0 281.0 363.0 C 292.0 349.0 298.0 339.0 306.0 331.0 C 297.0 321.0 302.0 309.0 307.0 299.0 C 313.0 297.0 327.0 294.0 344.0 295.0 C 335.0 290.0 326.0 279.0 317.0 272.0 C 332.0 263.0 321.0 257.0 311.0 264.0 C 303.0 270.0 294.0 260.0 280.0 256.0 C 274.0 259.0 256.0 257.0 240.0 261.0 C 248.0 279.0 255.0 298.0 258.0 317.0 C 259.0 336.0 241.0 344.0 228.0 340.0 C 214.0 343.0 203.0 334.0 205.0 316.0 C 188.0 311.0 185.0 316.0 174.0 302.0 C 162.0 293.0 170.0 284.0 180.0 283.0 C 189.0 293.0 199.0 289.0 202.0 299.0 C 203.0 280.0 214.0 270.0 195.0 269.0 C 183.0 259.0 166.0 251.0 169.0 239.0 C 178.0 228.0 168.0 219.0 175.0 216.0 C 194.0 213.0 213.0 213.0 232.0 213.0 C 251.0 214.0 270.0 215.0 274.0 207.0 C 257.0 192.0 238.0 189.0 236.0 184.0 C 217.0 185.0 199.0 187.0 200.0 175.0 C 219.0 174.0 238.0 172.0 257.0 173.0 C 276.0 172.0 295.0 175.0 314.0 176.0 C 316.0 171.0 324.0 161.0 312.0 157.0 C 293.0 154.0 287.0 139.0 293.0 143.0" stroke-width="0.0" fill="rgb(30, 47, 19)" opacity="1.0" stroke="rgb(10, 67, 22)" stroke-opacity="0.4440872" stroke-linecap="round" stroke-linejoin="round"/>
    <path d="M 4.0 496.0 C 5.0 496.0 6.0 497.0 6.0 498.0 C 7.0 499.0 8.0 499.0 9.0 499.0 C 10.0 500.0 10.0 501.0 11.0 502.0 C 11.0 503.0 11.0 504.0 11.0 505.0 C 12.0 506.0 13.0 507.0 14.0 508.0 C 15.0 508.0 16.0 508.0 17.0 508.0 C 18.0 508.0 19.0 509.0 19.0 510.0 C 19.0 511.0 18.0 511.0 17.0 511.0 C 16.0 512.0 16.0 513.0 15.0 514.0 C 16.0 515.0 17.0 515.0 18.0 515.0 C 19.0 515.0 20.0 516.0 21.0 516.0 C 22.0 516.0 23.0 517.0 24.0 517.0 C 25.0 518.0 26.0 518.0 27.0 518.0 C 28.0 519.0 29.0 519.0 30.0 518.0 C 30.0 517.0 30.0 516.0 30.0 515.0 C 31.0 515.0 32.0 515.0 33.0 515.0 C 34.0 515.0 35.0 516.0 35.0 517.0 C 35.0 518.0 34.0 518.0 33.0 518.0 C 32.0 519.0 32.0 520.0 33.0 521.0 C 34.0 522.0 35.0 523.0 36.0 524.0 C 37.0 524.0 38.0 525.0 38.0 526.0 C 38.0 527.0 39.0 528.0 40.0 527.0 C 41.0 527.0 42.0 527.0 43.0 526.0 C 44.0 525.0 44.0 524.0 44.0 523.0 C 45.0 523.0 46.0 523.0 47.0 523.0 C 48.0 524.0 49.0 525.0 49.0 526.0 C 50.0 527.0 51.0 527.0 52.0 527.0 C 52.0 528.0 52.0 529.0 52.0 530.0 C 51.0 531.0 51.0 532.0 52.0 533.0 C 52.0 534.0 52.0 535.0 52.0 536.0 C 52.0 537.0 51.0 537.0 50.0 538.0 C 50.0 539.0 51.0 540.0 51.0 541.0 C 51.0 542.0 50.0 542.0 49.0 543.0 C 49.0 544.0 49.0 545.0 49.0 546.0 C 48.0 546.0 47.0 546.0 46.0 546.0 C 45.0 545.0 44.0 545.0 43.0 545.0 C 42.0 545.0 41.0 545.0 40.0 545.0 C 39.0 545.0 38.0 545.0 38.0 544.0 C 37.0 543.0 36.0 544.0 35.0 544.0 C 34.0 544.0 33.0 543.0 32.0 543.0 C 32.0 542.0 31.0 541.0 31.0 540.0 C 30.0 539.0 29.0 539.0 28.0 540.0 C 28.0 541.0 27.0 542.0 27.0 543.0 C 27.0 545.0 28.0 547.0 27.0 549.0 C 25.0 549.0 23.0 549.0 21.0 549.0 C 20.0 548.0 18.0 547.0 17.0 549.0 C 15.0 549.0 13.0 549.0 12.0 548.0 C 13.0 547.0 15.0 547.0 17.0 546.0 C 16.0 544.0 14.0 543.0 13.0 541.0 C 13.0 539.0 12.0 537.0 10.0 535.0 C 8.0 537.0 8.0 539.0 7.0 540.0 C 5.0 539.0 3.0 540.0 2.0 539.0 C 2.0 537.0 0.0 536.0 0.0 534.0 C 1.0 532.0 0.0 530.0 0.0 528.0 C 0.0 526.0 0.0 524.0 0.0 522.0 C 0.0 520.0 0.0 518.0 0.0 516.0 C 0.0 514.0 0.0 512.0 1.0 510.0 C 1.0 508.0 1.0 506.0 0.0 504.0 C 1.0 503.0 3.0 502.0 3.0 500.0 C 3.0 498.0 3.0 496.0 4.0 496.0" stroke-width="0.0" fill="rgb(31, 62, 8)" opacity="1.0" stroke="rgb(195, 2, 4)" stroke-opacity="0.45455316" stroke-linecap="round" stroke-linejoin="round"/>
    <path d="M 316.0 81.0 C 317.0 81.0 317.0 82.0 318.0 83.0 C 319.0 83.0 320.0 83.0 321.0 83.0 C 322.0 83.0 323.0 82.0 324.0 82.0 C 325.0 82.0 326.0 82.0 327.0 82.0 C 328.0 82.0 329.0 82.0 330.0 82.0 C 331.0 82.0 332.0 82.0 333.0 82.0 C 333.0 83.0 333.0 84.0 334.0 85.0 C 335.0 85.0 336.0 85.0 337.0 85.0 C 338.0 84.0 338.0 83.0 339.0 83.0 C 340.0 83.0 341.0 83.0 342.0 84.0 C 343.0 84.0 344.0 83.0 344.0 82.0 C 345.0 82.0 346.0 82.0 347.0 82.0 C 348.0 82.0 349.0 82.0 350.0 82.0 C 350.0 83.0 350.0 84.0 350.0 85.0 C 349.0 85.0 348.0 86.0 348.0 87.0 C 348.0 88.0 348.0 89.0 347.0 90.0 C 347.0 91.0 346.0 91.0 345.0 92.0 C 345.0 93.0 345.0 94.0 345.0 95.0 C 344.0 96.0 345.0 97.0 346.0 97.0 C 347.0 96.0 348.0 94.0 350.0 92.0 C 353.0 92.0 355.0 91.0 357.0 90.0 C 359.0 91.0 361.0 93.0 362.0 95.0 C 362.0 98.0 360.0 98.0 357.0 99.0 C 354.0 98.0 352.0 100.0 351.0 103.0 C 350.0 106.0 350.0 109.0 350.0 112.0 C 348.0 114.0 345.0 115.0 342.0 116.0 C 339.0 117.0 338.0 120.0 338.0 123.0 C 339.0 126.0 342.0 126.0 344.0 124.0 C 347.0 124.0 350.0 123.0 353.0 122.0 C 354.0 124.0 352.0 126.0 354.0 128.0 C 357.0 128.0 360.0 128.0 362.0 129.0 C 362.0 132.0 360.0 133.0 357.0 135.0 C 354.0 136.0 351.0 135.0 350.0 133.0 C 347.0 132.0 344.0 135.0 341.0 135.0 C 338.0 133.0 335.0 133.0 332.0 132.0 C 329.0 132.0 330.0 129.0 328.0 127.0 C 325.0 129.0 325.0 132.0 322.0 133.0 C 320.0 135.0 318.0 136.0 318.0 133.0 C 320.0 131.0 323.0 130.0 325.0 128.0 C 323.0 126.0 321.0 124.0 322.0 122.0 C 324.0 120.0 327.0 119.0 328.0 121.0 C 330.0 122.0 332.0 121.0 333.0 118.0 C 334.0 115.0 335.0 112.0 332.0 110.0 C 331.0 113.0 328.0 112.0 327.0 110.0 C 329.0 108.0 330.0 106.0 332.0 104.0 C 334.0 103.0 337.0 102.0 337.0 99.0 C 340.0 99.0 341.0 96.0 342.0 93.0 C 341.0 90.0 338.0 91.0 335.0 91.0 C 334.0 88.0 333.0 91.0 332.0 94.0 C 330.0 96.0 327.0 96.0 327.0 93.0 C 325.0 91.0 322.0 92.0 320.0 91.0 C 318.0 88.0 317.0 91.0 316.0 93.0 C 313.0 94.0 312.0 91.0 309.0 91.0 C 306.0 92.0 303.0 94.0 303.0 97.0 C 304.0 100.0 303.0 103.0 300.0 104.0 C 299.0 102.0 298.0 99.0 300.0 96.0 C 299.0 93.0 297.0 92.0 299.0 90.0 C 302.0 89.0 305.0 87.0 308.0 87.0 C 311.0 87.0 313.0 89.0 315.0 87.0 C 314.0 84.0 315.0 81.0 316.0 81.0" stroke-width="0.0" fill="rgb(46, 83, 15)" opacity="1.0" stroke="rgb(169, 84, 199)" stroke-opacity="0.9029039" stroke-linecap="round" stroke-linejoin="round"/>
    <path d="M 98.0 105.0 C 99.0 105.0 100.0 105.0 101.0 105.0 C 102.0 105.0 103.0 105.0 104.0 105.0 C 105.0 106.0 106.0 106.0 107.0 106.0 C 108.0 106.0 109.0 106.0 110.0 107.0 C 111.0 107.0 112.0 107.0 113.0 107.0 C 114.0 107.0 115.0 107.0 116.0 108.0 C 117.0 108.0 118.0 108.0 119.0 108.0 C 120.0 108.0 120.0 109.0 120.0 110.0 C 119.0 110.0 118.0 111.0 117.0 112.0 C 117.0 113.0 117.0 114.0 117.0 115.0 C 117.0 116.0 117.0 117.0 117.0 118.0 C 117.0 119.0 117.0 120.0 116.0 121.0 C 115.0 122.0 115.0 123.0 115.0 124.0 C 114.0 124.0 113.0 124.0 112.0 125.0 C 111.0 125.0 110.0 125.0 109.0 125.0 C 108.0 125.0 107.0 125.0 106.0 125.0 C 105.0 125.0 104.0 124.0 103.0 124.0 C 102.0 125.0 102.0 126.0 102.0 127.0 C 102.0 128.0 102.0 129.0 102.0 130.0 C 102.0 131.0 102.0 132.0 102.0 133.0 C 102.0 134.0 102.0 135.0 102.0 136.0 C 102.0 137.0 102.0 138.0 102.0 139.0 C 102.0 140.0 102.0 141.0 102.0 142.0 C 102.0 143.0 102.0 144.0 101.0 145.0 C 101.0 146.0 102.0 147.0 102.0 148.0 C 102.0 149.0 102.0 150.0 102.0 151.0 C 102.0 152.0 102.0 153.0 102.0 154.0 C 102.0 155.0 102.0 156.0 102.0 157.0 C 102.0 158.0 102.0 159.0 102.0 160.0 C 102.0 161.0 101.0 161.0 100.0 161.0 C 100.0 160.0 100.0 159.0 100.0 158.0 C 100.0 157.0 99.0 156.0 99.0 155.0 C 99.0 154.0 99.0 153.0 99.0 152.0 C 99.0 151.0 99.0 150.0 99.0 149.0 C 99.0 148.0 99.0 147.0 99.0 146.0 C 99.0 145.0 99.0 144.0 99.0 143.0 C 99.0 142.0 99.0 141.0 98.0 140.0 C 97.0 139.0 97.0 138.0 97.0 137.0 C 97.0 136.0 97.0 135.0 97.0 134.0 C 96.0 133.0 96.0 132.0 96.0 131.0 C 96.0 130.0 97.0 129.0 97.0 128.0 C 96.0 127.0 96.0 126.0 96.0 125.0 C 96.0 124.0 96.0 123.0 96.0 122.0 C 96.0 121.0 96.0 120.0 96.0 119.0 C 96.0 118.0 96.0 117.0 96.0 116.0 C 96.0 115.0 96.0 114.0 95.0 113.0 C 95.0 112.0 95.0 111.0 95.0 110.0 C 95.0 109.0 95.0 108.0 95.0 107.0 C 95.0 106.0 95.0 105.0 98.0 105.0" stroke-width="0.0" fill="rgb(26, 20, 16)" opacity="1.0" stroke="rgb(167, 17, 144)" stroke-opacity="0.73624307" stroke-linecap="round" stroke-linejoin="round"/>
    <path d="M 208.0 368.0 C 209.0 368.0 210.0 368.0 211.0 369.0 C 212.0 369.0 213.0 370.0 214.0 370.0 C 215.0 370.0 216.0 371.0 217.0 370.0 C 218.0 370.0 219.0 370.0 220.0 370.0 C 221.0 370.0 221.0 371.0 221.0 372.0 C 222.0 373.0 224.0 373.0 227.0 373.0 C 230.0 374.0 233.0 374.0 236.0 373.0 C 239.0 371.0 242.0 370.0 245.0 371.0 C 248.0 372.0 251.0 373.0 254.0 373.0 C 257.0 371.0 259.0 372.0 260.0 375.0 C 262.0 374.0 265.0 374.0 266.0 377.0 C 265.0 380.0 263.0 382.0 261.0 385.0 C 259.0 388.0 256.0 388.0 253.0 387.0 C 250.0 385.0 250.0 382.0 248.0 380.0 C 245.0 379.0 242.0 379.0 239.0 378.0 C 237.0 380.0 236.0 383.0 233.0 383.0 C 230.0 380.0 227.0 379.0 225.0 377.0 C 222.0 375.0 220.0 373.0 217.0 373.0 C 214.0 372.0 211.0 374.0 214.0 376.0 C 214.0 379.0 217.0 381.0 218.0 383.0 C 215.0 385.0 216.0 388.0 214.0 389.0 C 211.0 389.0 208.0 390.0 205.0 391.0 C 202.0 393.0 202.0 396.0 204.0 398.0 C 204.0 401.0 202.0 402.0 199.0 404.0 C 200.0 406.0 203.0 406.0 206.0 408.0 C 206.0 411.0 203.0 412.0 200.0 413.0 C 201.0 416.0 200.0 418.0 201.0 420.0 C 201.0 423.0 200.0 425.0 197.0 424.0 C 196.0 427.0 199.0 430.0 201.0 433.0 C 202.0 435.0 201.0 437.0 198.0 438.0 C 196.0 436.0 194.0 438.0 191.0 438.0 C 189.0 439.0 187.0 441.0 184.0 441.0 C 181.0 441.0 178.0 441.0 175.0 441.0 C 173.0 442.0 172.0 440.0 175.0 439.0 C 172.0 438.0 170.0 437.0 167.0 436.0 C 166.0 433.0 166.0 430.0 167.0 427.0 C 167.0 424.0 168.0 421.0 168.0 418.0 C 167.0 415.0 168.0 412.0 169.0 409.0 C 170.0 406.0 170.0 403.0 170.0 400.0 C 171.0 397.0 168.0 395.0 167.0 392.0 C 168.0 389.0 167.0 386.0 165.0 387.0 C 163.0 388.0 160.0 389.0 157.0 390.0 C 155.0 392.0 154.0 390.0 152.0 387.0 C 153.0 384.0 156.0 384.0 158.0 382.0 C 160.0 381.0 162.0 383.0 165.0 384.0 C 168.0 383.0 171.0 382.0 174.0 381.0 C 177.0 381.0 178.0 379.0 175.0 376.0 C 172.0 375.0 172.0 372.0 175.0 370.0 C 177.0 369.0 180.0 369.0 183.0 369.0 C 186.0 371.0 189.0 370.0 192.0 370.0 C 195.0 370.0 198.0 370.0 201.0 369.0 C 202.0 371.0 199.0 372.0 196.0 372.0 C 193.0 372.0 190.0 373.0 187.0 374.0 C 184.0 376.0 183.0 378.0 183.0 381.0 C 186.0 381.0 189.0 381.0 192.0 382.0 C 194.0 380.0 197.0 380.0 200.0 380.0 C 203.0 380.0 206.0 379.0 204.0 377.0 C 201.0 378.0 198.0 378.0 197.0 376.0 C 200.0 375.0 203.0 375.0 206.0 374.0 C 208.0 371.0 207.0 368.0 208.0 368.0" stroke-width="0.0" fill="rgb(31, 41, 39)" opacity="1.0" stroke="rgb(42, 109, 0)" stroke-opacity="0.9670665" stroke-linecap="round" stroke-linejoin="round"/>
    <path d="M 20.0 138.0 C 21.0 138.0 22.0 138.0 23.0 138.0 C 24.0 139.0 25.0 139.0 25.0 140.0 C 25.0 141.0 25.0 142.0 26.0 143.0 C 27.0 143.0 28.0 142.0 29.0 142.0 C 30.0 142.0 31.0 143.0 32.0 144.0 C 32.0 145.0 32.0 146.0 32.0 147.0 C 31.0 148.0 31.0 149.0 31.0 150.0 C 30.0 151.0 30.0 152.0 29.0 153.0 C 29.0 154.0 28.0 154.0 27.0 154.0 C 26.0 153.0 26.0 152.0 27.0 152.0 C 28.0 152.0 29.0 151.0 29.0 150.0 C 29.0 149.0 28.0 148.0 27.0 148.0 C 26.0 148.0 25.0 149.0 25.0 150.0 C 24.0 149.0 23.0 149.0 22.0 150.0 C 21.0 150.0 20.0 150.0 19.0 149.0 C 20.0 149.0 21.0 149.0 22.0 148.0 C 22.0 147.0 23.0 146.0 23.0 145.0 C 23.0 144.0 22.0 143.0 21.0 143.0 C 22.0 142.0 22.0 141.0 22.0 140.0 C 22.0 139.0 21.0 138.0 20.0 138.0 C 19.0 138.0 18.0 138.0 20.0 138.0" stroke-width="0.0" fill="rgb(28, 63, 7)" opacity="1.0" stroke="rgb(220, 102, 143)" stroke-opacity="0.48883593" stroke-linecap="round" stroke-linejoin="round"/>
    <path d="M 307.0 0.0 C 308.0 0.0 309.0 0.0 310.0 0.0 C 311.0 0.0 312.0 0.0 313.0 0.0 C 314.0 0.0 315.0 0.0 316.0 0.0 C 317.0 1.0 318.0 2.0 319.0 1.0 C 319.0 0.0 326.0 0.0 334.0 0.0 C 342.0 0.0 349.0 3.0 355.0 0.0 C 362.0 2.0 362.0 10.0 362.0 18.0 C 362.0 26.0 362.0 34.0 360.0 39.0 C 362.0 44.0 362.0 52.0 359.0 56.0 C 362.0 61.0 362.0 69.0 362.0 77.0 C 362.0 85.0 361.0 92.0 356.0 88.0 C 351.0 90.0 349.0 86.0 348.0 81.0 C 342.0 79.0 338.0 79.0 333.0 80.0 C 334.0 73.0 330.0 73.0 328.0 81.0 C 321.0 79.0 313.0 82.0 312.0 88.0 C 305.0 86.0 298.0 89.0 299.0 95.0 C 296.0 99.0 299.0 106.0 298.0 114.0 C 300.0 122.0 302.0 129.0 310.0 130.0 C 313.0 125.0 307.0 123.0 303.0 118.0 C 303.0 110.0 305.0 108.0 308.0 109.0 C 312.0 110.0 319.0 109.0 317.0 103.0 C 314.0 97.0 307.0 102.0 305.0 99.0 C 309.0 92.0 315.0 95.0 322.0 94.0 C 328.0 98.0 331.0 105.0 324.0 107.0 C 324.0 109.0 328.0 115.0 332.0 120.0 C 325.0 118.0 320.0 121.0 322.0 129.0 C 317.0 134.0 311.0 136.0 312.0 142.0 C 317.0 137.0 323.0 139.0 325.0 144.0 C 320.0 148.0 312.0 148.0 307.0 149.0 C 300.0 151.0 297.0 146.0 299.0 142.0 C 292.0 140.0 284.0 139.0 286.0 147.0 C 285.0 153.0 281.0 147.0 282.0 155.0 C 279.0 163.0 280.0 171.0 275.0 168.0 C 275.0 160.0 276.0 152.0 268.0 151.0 C 260.0 151.0 256.0 147.0 253.0 150.0 C 245.0 150.0 238.0 146.0 241.0 143.0 C 249.0 142.0 256.0 139.0 260.0 134.0 C 264.0 136.0 269.0 140.0 269.0 137.0 C 275.0 140.0 282.0 137.0 287.0 132.0 C 285.0 124.0 284.0 117.0 282.0 123.0 C 277.0 121.0 278.0 116.0 285.0 112.0 C 281.0 107.0 288.0 106.0 291.0 99.0 C 293.0 91.0 293.0 84.0 287.0 84.0 C 287.0 82.0 290.0 74.0 291.0 79.0 C 294.0 74.0 297.0 76.0 302.0 74.0 C 308.0 70.0 311.0 63.0 314.0 58.0 C 307.0 60.0 305.0 68.0 298.0 70.0 C 299.0 66.0 300.0 61.0 306.0 56.0 C 306.0 49.0 308.0 42.0 306.0 35.0 C 302.0 42.0 296.0 45.0 299.0 49.0 C 295.0 54.0 290.0 60.0 284.0 60.0 C 289.0 54.0 283.0 50.0 280.0 56.0 C 281.0 64.0 287.0 67.0 283.0 74.0 C 276.0 75.0 274.0 67.0 266.0 68.0 C 270.0 61.0 274.0 54.0 272.0 46.0 C 269.0 39.0 269.0 32.0 273.0 28.0 C 278.0 27.0 282.0 25.0 289.0 23.0 C 289.0 19.0 285.0 18.0 290.0 14.0 C 295.0 15.0 301.0 12.0 307.0 7.0 C 311.0 4.0 306.0 0.0 307.0 0.0" stroke-width="0.0" fill="rgb(66, 102, 33)" opacity="1.0" stroke="rgb(98, 208, 74)" stroke-opacity="0.33333984" stroke-linecap="round" stroke-linejoin="round"/>
  </g>
</svg>
