<?xml version="1.0" ?>
<svg xmlns="http://www.w3.org/2000/svg" version="1.1" width="474" height="596">
  <defs/>
  <g>
    <path d="M 266.0 0.0 C 267.0 0.0 268.0 0.0 269.0 0.0 C 270.0 0.0 271.0 0.0 272.0 0.0 C 273.0 0.0 274.0 0.0 275.0 0.0 C 276.0 0.0 277.0 0.0 278.0 0.0 C 279.0 0.0 280.0 0.0 281.0 0.0 C 282.0 0.0 288.0 2.0 296.0 4.0 C 304.0 6.0 312.0 9.0 320.0 12.0 C 328.0 16.0 336.0 20.0 344.0 24.0 C 352.0 29.0 360.0 35.0 368.0 41.0 C 376.0 48.0 384.0 56.0 392.0 64.0 C 399.0 72.0 405.0 80.0 411.0 88.0 C 417.0 96.0 422.0 104.0 427.0 112.0 C 431.0 120.0 432.0 128.0 431.0 136.0 C 426.0 144.0 421.0 152.0 415.0 160.0 C 408.0 168.0 400.0 176.0 392.0 184.0 C 384.0 191.0 376.0 197.0 368.0 203.0 C 360.0 208.0 352.0 213.0 344.0 217.0 C 336.0 220.0 328.0 222.0 320.0 224.0 C 316.0 223.0 324.0 218.0 332.0 212.0 C 340.0 206.0 348.0 198.0 355.0 190.0 C 360.0 182.0 364.0 174.0 367.0 166.0 C 370.0 158.0 371.0 150.0 371.0 142.0 C 370.0 134.0 368.0 126.0 365.0 118.0 C 361.0 110.0 354.0 102.0 346.0 94.0 C 338.0 94.0 330.0 95.0 322.0 96.0 C 314.0 98.0 309.0 98.0 301.0 100.0 C 293.0 102.0 285.0 104.0 277.0 105.0 C 269.0 107.0 261.0 109.0 254.0 103.0 C 246.0 96.0 238.0 91.0 241.0 99.0 C 244.0 107.0 244.0 114.0 236.0 115.0 C 228.0 117.0 220.0 119.0 212.0 121.0 C 204.0 123.0 196.0 126.0 188.0 129.0 C 180.0 132.0 172.0 136.0 165.0 135.0 C 160.0 127.0 157.0 127.0 157.0 135.0 C 156.0 143.0 150.0 149.0 145.0 156.0 C 143.0 164.0 142.0 172.0 143.0 180.0 C 144.0 188.0 147.0 196.0 151.0 204.0 C 157.0 212.0 165.0 219.0 173.0 226.0 C 181.0 231.0 189.0 235.0 197.0 238.0 C 205.0 240.0 213.0 242.0 209.0 243.0 C 201.0 242.0 193.0 239.0 185.0 238.0 C 177.0 239.0 169.0 241.0 162.0 240.0 C 154.0 240.0 146.0 239.0 138.0 239.0 C 130.0 237.0 122.0 236.0 114.0 234.0 C 106.0 231.0 98.0 229.0 90.0 226.0 C 82.0 223.0 74.0 219.0 66.0 215.0 C 58.0 209.0 54.0 201.0 54.0 193.0 C 54.0 185.0 55.0 177.0 57.0 169.0 C 59.0 161.0 60.0 153.0 63.0 145.0 C 65.0 137.0 68.0 129.0 71.0 121.0 C 75.0 113.0 79.0 105.0 83.0 97.0 C 89.0 89.0 94.0 81.0 100.0 73.0 C 107.0 65.0 115.0 57.0 123.0 50.0 C 131.0 43.0 139.0 37.0 147.0 31.0 C 155.0 27.0 163.0 25.0 171.0 24.0 C 179.0 24.0 187.0 25.0 195.0 26.0 C 203.0 28.0 211.0 31.0 214.0 27.0 C 219.0 33.0 221.0 27.0 226.0 27.0 C 234.0 19.0 242.0 12.0 250.0 7.0 C 258.0 3.0 265.0 0.0 266.0 0.0" stroke-width="0.0" fill="rgb(64, 38, 31)" opacity="1.0" stroke="rgb(205, 69, 173)" stroke-opacity="0.49402016" stroke-linecap="round" stroke-linejoin="round"/>
    <path d="M 312.0 225.0 C 313.0 225.0 313.0 226.0 313.0 227.0 C 312.0 227.0 311.0 228.0 310.0 228.0 C 309.0 229.0 308.0 229.0 297.0 234.0 C 293.0 240.0 291.0 242.0 300.0 256.0 C 298.0 244.0 314.0 243.0 332.0 248.0 C 350.0 255.0 365.0 266.0 383.0 275.0 C 401.0 286.0 419.0 292.0 436.0 288.0 C 419.0 295.0 401.0 290.0 383.0 278.0 C 365.0 272.0 359.0 290.0 352.0 308.0 C 359.0 320.0 377.0 324.0 395.0 326.0 C 412.0 337.0 429.0 347.0 443.0 352.0 C 434.0 357.0 418.0 343.0 400.0 330.0 C 382.0 328.0 364.0 325.0 346.0 321.0 C 330.0 321.0 324.0 330.0 321.0 348.0 C 323.0 366.0 318.0 380.0 314.0 397.0 C 311.0 415.0 307.0 433.0 302.0 451.0 C 298.0 469.0 288.0 483.0 287.0 501.0 C 300.0 508.0 295.0 518.0 293.0 533.0 C 280.0 520.0 267.0 529.0 252.0 528.0 C 239.0 522.0 238.0 540.0 237.0 558.0 C 242.0 575.0 260.0 579.0 278.0 581.0 C 296.0 581.0 314.0 580.0 332.0 576.0 C 339.0 561.0 342.0 567.0 330.0 579.0 C 312.0 583.0 294.0 584.0 276.0 583.0 C 258.0 581.0 240.0 577.0 233.0 560.0 C 234.0 542.0 236.0 524.0 228.0 513.0 C 242.0 508.0 242.0 492.0 242.0 474.0 C 233.0 460.0 227.0 463.0 217.0 475.0 C 213.0 493.0 209.0 501.0 210.0 483.0 C 201.0 475.0 183.0 474.0 169.0 477.0 C 169.0 495.0 175.0 509.0 193.0 511.0 C 211.0 508.0 217.0 521.0 213.0 537.0 C 215.0 555.0 217.0 573.0 207.0 586.0 C 189.0 586.0 171.0 592.0 154.0 595.0 C 136.0 595.0 119.0 588.0 122.0 570.0 C 122.0 574.0 128.0 590.0 146.0 592.0 C 164.0 590.0 182.0 585.0 200.0 583.0 C 214.0 575.0 213.0 557.0 211.0 539.0 C 206.0 524.0 194.0 527.0 187.0 532.0 C 183.0 525.0 178.0 526.0 164.0 523.0 C 159.0 524.0 155.0 509.0 166.0 496.0 C 166.0 478.0 158.0 463.0 156.0 445.0 C 154.0 427.0 153.0 409.0 145.0 397.0 C 127.0 392.0 116.0 375.0 114.0 357.0 C 110.0 345.0 92.0 353.0 80.0 362.0 C 74.0 368.0 73.0 366.0 82.0 352.0 C 92.0 350.0 110.0 341.0 127.0 330.0 C 129.0 324.0 127.0 311.0 121.0 304.0 C 114.0 298.0 98.0 285.0 94.0 278.0 C 112.0 264.0 130.0 254.0 148.0 246.0 C 162.0 245.0 171.0 244.0 174.0 248.0 C 162.0 257.0 159.0 267.0 152.0 278.0 C 155.0 296.0 150.0 313.0 151.0 328.0 C 151.0 346.0 158.0 358.0 161.0 351.0 C 162.0 335.0 169.0 332.0 176.0 315.0 C 187.0 301.0 192.0 290.0 195.0 282.0 C 199.0 265.0 201.0 252.0 204.0 251.0 C 206.0 249.0 215.0 252.0 221.0 243.0 C 239.0 243.0 257.0 242.0 275.0 238.0 C 293.0 233.0 311.0 225.0 312.0 225.0" stroke-width="0.0" fill="rgb(232, 106, 164)" opacity="1.0" stroke="rgb(14, 133, 68)" stroke-opacity="0.28877532" stroke-linecap="round" stroke-linejoin="round"/>
  </g>
</svg>
