<?xml version="1.0" ?>
<svg xmlns="http://www.w3.org/2000/svg" version="1.1" width="364" height="490">
  <defs/>
  <g>
    <path d="M 150.0516357421875 -4.1409173011779785 C 146.69276428222656 -7.064626693725586 145.3665771484375 -8.21987533569336 147.27146911621094 -6.274991989135742 C 149.81243896484375 -1.3365111351013184 149.01821899414062 4.3021721839904785 148.174072265625 7.584385395050049 C 148.67572021484375 7.3187971115112305 148.9807586669922 6.250790596008301 148.54739379882812 6.407639503479004 C 148.3892822265625 8.307523727416992 147.505859375 11.555255889892578 147.15408325195312 16.432546615600586 C 146.16546630859375 22.425979614257812 145.0957794189453 28.90389633178711 145.0000762939453 33.679359436035156 C 149.3714141845703 31.862781524658203 163.1875 27.439361572265625 181.63890075683594 24.85917091369629 C 195.35610961914062 23.11695671081543 205.5097198486328 22.882938385009766 215.9251251220703 23.0233154296875 C 228.4079132080078 23.479602813720703 242.87904357910156 24.643348693847656 256.662109375 27.85262680053711 C 270.2207946777344 31.301963806152344 286.6062316894531 35.32354736328125 299.9205627441406 44.21706008911133 C 289.19366455078125 54.0950927734375 304.601806640625 50.6376838684082 323.4805603027344 58.40791702270508 C 301.3099670410156 71.16117095947266 315.2568359375 66.2912826538086 345.28094482421875 79.31167602539062 C 330.6329345703125 81.1485366821289 341.27374267578125 87.13591003417969 324.02093505859375 97.82748413085938 C 351.25665283203125 107.87760925292969 357.0564270019531 103.7105484008789 327.7451171875 115.08244323730469 C 312.009521484375 117.93862915039062 325.3003234863281 126.26773834228516 331.50616455078125 147.27142333984375 C 307.89208984375 135.86241149902344 312.4261169433594 135.91195678710938 304.435546875 167.052978515625 C 312.7037353515625 171.1954345703125 323.31011962890625 177.78248596191406 327.14898681640625 194.556396484375 C 329.3821105957031 211.15213012695312 322.5662841796875 226.77774047851562 303.9602966308594 235.33837890625 C 290.5144348144531 235.61451721191406 286.4714050292969 243.64772033691406 270.337158203125 248.9966583251953 C 236.6929168701172 257.8629455566406 216.43666076660156 271.61492919921875 218.59767150878906 251.4004364013672 C 250.24407958984375 256.08319091796875 256.5099792480469 245.63172912597656 234.81228637695312 239.11244201660156 C 213.15274047851562 234.9188232421875 201.8853302001953 235.88865661621094 204.65142822265625 228.71615600585938 C 217.71018981933594 219.54981994628906 235.18344116210938 217.26112365722656 251.73300170898438 220.50328063964844 C 263.7178649902344 224.36843872070312 271.7480163574219 227.4236297607422 277.15216064453125 228.92889404296875 C 281.2372741699219 228.34104919433594 284.2152099609375 225.1781005859375 285.8592834472656 219.17259216308594 C 285.885498046875 210.2582244873047 284.7771301269531 198.94039916992188 283.9180603027344 186.10311889648438 C 283.8550720214844 172.7834930419922 283.1366271972656 160.0631561279297 280.4603271484375 148.92323303222656 C 275.3148498535156 140.25498962402344 268.2379455566406 134.62403869628906 260.04107666015625 131.81201171875 C 251.47125244140625 130.98582458496094 242.26649475097656 131.88226318359375 232.13043212890625 133.75186157226562 C 221.31878662109375 134.8762969970703 211.3057403564453 134.22921752929688 203.49517822265625 131.8284912109375 C 197.97943115234375 128.93753051757812 193.00856018066406 127.58704376220703 186.62991333007812 128.12171936035156 C 177.69522094726562 127.9782943725586 169.48739624023438 124.52890014648438 164.92898559570312 120.47350311279297 C 163.04067993164062 121.57412719726562 161.37156677246094 126.83769989013672 158.06765747070312 134.01499938964844 C 153.33653259277344 140.76437377929688 148.41050720214844 147.0467987060547 144.36099243164062 153.28700256347656 C 141.95127868652344 159.75535583496094 139.0823974609375 166.73623657226562 136.09161376953125 174.57676696777344 C 133.56015014648438 184.36029052734375 131.66725158691406 195.0885467529297 130.27850341796875 205.61778259277344 C 127.4710922241211 214.5834503173828 119.79727935791016 218.9744415283203 109.5962142944336 216.2416229248047 C 99.94538879394531 206.21560668945312 91.9817123413086 193.70828247070312 85.7370834350586 184.1620635986328 C 81.13188171386719 183.04122924804688 78.22642517089844 187.9740753173828 77.18302917480469 195.64495849609375 C 78.24051666259766 202.7574462890625 81.76109313964844 208.9900665283203 88.1292495727539 214.10751342773438 C 97.68546295166016 217.90701293945312 109.86958312988281 221.09747314453125 123.84446716308594 224.381591796875 C 138.31251525878906 227.79959106445312 151.70628356933594 231.18240356445312 163.17379760742188 234.759765625 C 173.19873046875 239.98513793945312 186.26412963867188 249.64869689941406 210.45855712890625 257.7507629394531 C 243.0045928955078 261.7720947265625 244.47640991210938 279.9139099121094 199.30831909179688 282.0091552734375 C 178.9495391845703 291.91241455078125 171.5546112060547 295.80859375 170.03158569335938 292.0489807128906 C 168.73780822753906 287.5024108886719 168.2812957763672 286.559326171875 170.0205841064453 291.78570556640625 C 174.7362518310547 303.4815979003906 175.94564819335938 317.6769104003906 168.3163604736328 328.1566162109375 C 150.4001007080078 329.0276794433594 128.82644653320312 322.4580078125 111.3525619506836 313.465087890625 C 104.48281860351562 304.9861145019531 104.35563659667969 299.47125244140625 105.25989532470703 298.8492431640625 C 102.37386322021484 302.87188720703125 94.15229034423828 306.03076171875 83.15985107421875 303.1915283203125 C 74.14743041992188 293.04583740234375 81.9938735961914 279.9240417480469 88.74166107177734 259.6695556640625 C 99.1045150756836 239.99378967285156 108.81727600097656 233.50640869140625 98.5853042602539 236.7883758544922 C 77.9290771484375 239.09017944335938 63.253257751464844 225.67105102539062 58.62479019165039 209.5460205078125 C 55.168514251708984 194.53843688964844 60.92884826660156 179.78038024902344 75.68384552001953 169.49398803710938 C 86.58465576171875 165.20216369628906 87.30756378173828 167.8964385986328 85.05978393554688 157.0776824951172 C 82.205810546875 137.30502319335938 83.51055908203125 115.29692840576172 87.08417510986328 95.28316497802734 C 93.3838119506836 72.46792602539062 106.2699203491211 70.84881591796875 79.8872299194336 69.5497817993164 C 76.2427749633789 65.80460357666016 94.79411315917969 61.12370300292969 104.62711334228516 54.729190826416016 C 82.65514373779297 42.73912811279297 68.76860809326172 38.24940490722656 82.83467102050781 38.25458526611328 C 109.9316635131836 36.895267486572266 124.88945770263672 40.6963996887207 125.84736633300781 33.94404220581055 C 137.93939208984375 14.748454093933105 148.82774353027344 -4.202903747558594 150.0516357421875 -4.1409173011779785" stroke-width="0.0" fill="rgb(80, 41, 41)" opacity="0.9999755" stroke="rgb(34, 115, 167)" stroke-opacity="0.06597448" stroke-linecap="round" stroke-linejoin="round"/>
    <path d="M 154.74110412597656 273.7905578613281 C 155.88906860351562 269.5472717285156 156.81101989746094 265.4656982421875 157.31654357910156 261.9167175292969 C 157.40866088867188 259.43914794921875 157.2330322265625 258.70379638671875 156.8577423095703 260.28466796875 C 156.2834930419922 264.3604736328125 155.7265625 270.6280822753906 155.36846923828125 278.3964538574219 C 155.3534698486328 286.6689453125 155.72821044921875 293.9822082519531 157.02523803710938 298.52764892578125 C 160.46714782714844 298.5992126464844 164.6865997314453 297.32122802734375 168.67547607421875 297.3617858886719 C 170.7429962158203 296.85308837890625 171.18687438964844 293.0096740722656 171.27401733398438 286.7322692871094 C 173.0774688720703 281.3782653808594 178.33900451660156 280.140380859375 184.6132049560547 283.9192199707031 C 186.07327270507812 288.7185363769531 184.3320770263672 294.1748046875 185.22952270507812 299.10888671875 C 186.6586456298828 302.2217712402344 187.2572021484375 303.07830810546875 187.3145751953125 302.81134033203125 C 187.10069274902344 303.19171142578125 186.469970703125 302.6775817871094 185.32501220703125 298.3388366699219 C 184.2218475341797 288.28887939453125 186.46421813964844 283.6995544433594 189.0499725341797 291.56280517578125 C 206.1705780029297 302.6617431640625 216.8253173828125 295.945556640625 219.349853515625 277.3795471191406 C 220.861328125 270.9301452636719 224.57855224609375 281.5629577636719 230.31881713867188 298.104736328125 C 239.8790283203125 302.3497009277344 242.9632568359375 289.84564208984375 256.012939453125 292.89892578125 C 273.8164978027344 301.95489501953125 276.86444091796875 312.0295104980469 262.6692810058594 314.31884765625 C 270.19390869140625 324.1878967285156 274.8719177246094 336.138671875 268.36126708984375 338.1788024902344 C 258.6518859863281 340.6880187988281 256.53070068359375 332.7549743652344 254.41635131835938 331.9443664550781 C 259.64019775390625 349.23992919921875 253.5206298828125 363.29296875 243.2756805419922 354.1662292480469 C 239.17333984375 344.1961975097656 244.24037170410156 340.9898681640625 232.67689514160156 341.71484375 C 215.14239501953125 343.3551330566406 209.1783447265625 338.40557861328125 207.03285217285156 335.5566711425781 C 213.12338256835938 351.54510498046875 211.65501403808594 364.7889709472656 199.57376098632812 359.2499694824219 C 195.03489685058594 354.8634948730469 198.10748291015625 365.914794921875 188.39564514160156 378.041259765625 C 175.0403289794922 377.0742492675781 172.6400604248047 375.99560546875 169.97140502929688 386.8247985839844 C 175.4133758544922 396.50555419921875 166.99632263183594 402.1003723144531 162.86959838867188 413.664794921875 C 158.14874267578125 423.0559387207031 160.18836975097656 426.99652099609375 163.5889129638672 433.0309143066406 C 175.86572265625 432.08477783203125 187.39138793945312 436.85211181640625 195.37847900390625 445.1222839355469 C 204.86843872070312 453.7042541503906 203.43629455566406 463.634033203125 208.13400268554688 472.07122802734375 C 208.27334594726562 482.6517028808594 208.95179748535156 487.7813415527344 206.35513305664062 486.93756103515625 C 195.4574432373047 487.7245178222656 180.51019287109375 486.6324462890625 164.28717041015625 487.1010437011719 C 149.62319946289062 487.16748046875 136.5953369140625 487.3901062011719 124.890380859375 487.34130859375 C 115.41801452636719 487.0820617675781 109.80371856689453 487.6259765625 108.6576919555664 486.9495849609375 C 109.1380844116211 487.48333740234375 105.40381622314453 487.28228759765625 95.00685119628906 487.2430725097656 C 79.23208618164062 487.22900390625 62.153316497802734 487.16473388671875 48.878353118896484 487.2271423339844 C 44.923221588134766 488.1365051269531 46.01866149902344 481.4126281738281 46.375 470.8152770996094 C 52.03044509887695 465.2450256347656 46.57826232910156 453.421142578125 55.37623596191406 442.0966491699219 C 63.52602767944336 436.9192810058594 55.842105865478516 429.2570495605469 63.54758071899414 423.9420471191406 C 70.89319610595703 421.81207275390625 73.3209457397461 404.4007873535156 82.54257202148438 386.0382080078125 C 82.30471801757812 380.726318359375 79.70743560791016 388.2104797363281 74.69414520263672 390.40130615234375 C 73.41230010986328 377.9499206542969 72.07609558105469 359.9447326660156 70.99073028564453 344.2224426269531 C 76.90422058105469 337.3583679199219 72.20757293701172 331.6966247558594 71.52655792236328 320.12530517578125 C 70.7743148803711 314.4948425292969 76.95189666748047 314.95306396484375 77.02737426757812 305.82708740234375 C 78.3534927368164 294.5207214355469 81.64657592773438 290.2640380859375 89.58602142333984 293.0561218261719 C 94.20349884033203 287.8370056152344 98.2427749633789 281.4309387207031 104.57907104492188 278.8767395019531 C 113.35232543945312 280.2705383300781 121.67304992675781 282.9736328125 128.43194580078125 285.5648193359375 C 135.02523803710938 287.7652282714844 142.97874450683594 290.392822265625 151.61874389648438 293.9945983886719 C 158.8629913330078 298.064697265625 161.5009002685547 305.1786804199219 162.7507781982422 312.93218994140625 C 164.94198608398438 317.9131164550781 167.12828063964844 322.1527099609375 169.17872619628906 327.47540283203125 C 172.50067138671875 334.28948974609375 173.65318298339844 341.6512145996094 172.30963134765625 348.6861267089844 C 172.25596618652344 353.01458740234375 172.6349639892578 352.4114074707031 172.51849365234375 346.68035888671875 C 172.37342834472656 338.89764404296875 172.90025329589844 336.8106689453125 177.67906188964844 342.68487548828125 C 184.6990509033203 351.08758544921875 189.010986328125 355.8274841308594 188.8728790283203 355.4032897949219 C 184.3657684326172 349.7416076660156 176.11688232421875 342.6033935546875 172.24807739257812 336.6939697265625 C 182.33311462402344 334.4544677734375 194.7883758544922 334.02728271484375 201.12278747558594 334.3271789550781 C 202.2307586669922 334.66094970703125 199.60824584960938 333.8864440917969 192.6715850830078 333.52001953125 C 182.51258850097656 335.1783447265625 174.39268493652344 337.2071838378906 171.32167053222656 334.60107421875 C 169.4743194580078 328.1580810546875 167.4514923095703 322.7668151855469 165.85720825195312 319.857177734375 C 163.82025146484375 320.0552978515625 161.87330627441406 321.486328125 160.6865234375 322.8193054199219 C 160.82083129882812 322.12188720703125 161.095458984375 317.1109313964844 160.316162109375 307.13470458984375 C 157.09616088867188 294.4877624511719 155.68392944335938 280.59320068359375 157.0199737548828 266.50982666015625 C 159.73658752441406 252.668701171875 162.93234252929688 238.93563842773438 154.74110412597656 273.7905578613281" stroke-width="0.0" fill="rgb(48, 111, 111)" opacity="0.9997967" stroke="rgb(220, 24, 152)" stroke-opacity="0.60477114" stroke-linecap="round" stroke-linejoin="round"/>
    <path d="M 191.5525360107422 28.14988899230957 C 194.97470092773438 27.891191482543945 198.4324951171875 28.01933479309082 201.84442138671875 28.003509521484375 C 205.19039916992188 27.953771591186523 208.36322021484375 27.996978759765625 211.14796447753906 28.000917434692383 C 213.51148986816406 27.9991455078125 215.46875 27.999217987060547 217.00439453125 28.034042358398438 C 218.19467163085938 28.031402587890625 219.1204833984375 28.019956588745117 219.8802947998047 28.058258056640625 C 220.6074981689453 28.043983459472656 221.39576721191406 27.98994255065918 222.23130798339844 27.98920249938965 C 223.0511016845703 27.9912166595459 223.7915802001953 27.999614715576172 224.34432983398438 28.037643432617188 C 224.48033142089844 27.917795181274414 224.2503204345703 27.875951766967773 223.63807678222656 27.763513565063477 C 222.7647705078125 27.61918067932129 221.75086975097656 27.42913818359375 220.76100158691406 27.146270751953125 C 219.98329162597656 26.868408203125 219.6666717529297 26.756013870239258 220.0835723876953 26.906158447265625 C 221.3142547607422 27.357288360595703 223.41648864746094 27.836009979248047 226.28814697265625 28.206693649291992 C 229.51419067382812 29.055082321166992 232.98532104492188 29.084190368652344 236.5174102783203 29.005756378173828 C 239.62648010253906 29.63823127746582 241.96710205078125 30.138540267944336 243.3328857421875 30.088115692138672 C 243.4752655029297 30.141307830810547 242.37432861328125 30.032947540283203 240.4742431640625 29.783496856689453 C 238.70703125 29.476516723632812 238.08010864257812 29.425079345703125 239.45556640625 29.800199508666992 C 243.68299865722656 30.058095932006836 250.96652221679688 31.355098724365234 260.9691162109375 33.722686767578125 C 272.623046875 36.55425262451172 283.7092590332031 40.616859436035156 291.5899353027344 44.72772979736328 C 293.1462707519531 48.39609909057617 289.71636962890625 49.545162200927734 282.9998779296875 47.42635726928711 C 274.49273681640625 44.82210922241211 266.19476318359375 42.42747497558594 259.6572265625 40.65701675415039 C 255.71714782714844 39.47260665893555 254.38909912109375 39.09629821777344 255.14199829101562 39.46495819091797 C 257.18914794921875 40.43091583251953 259.6420593261719 41.732513427734375 261.65972900390625 43.20658874511719 C 262.8285217285156 44.754703521728516 263.2868347167969 46.27085494995117 263.2886962890625 47.674983978271484 C 263.1085205078125 48.926578521728516 262.8879089355469 50.05248260498047 262.66717529296875 51.134342193603516 C 262.4471740722656 52.2698974609375 262.2072448730469 53.49808883666992 261.901123046875 54.83891677856445 C 261.499755859375 56.335269927978516 261.0265197753906 57.97196960449219 260.51019287109375 59.67970275878906 C 260.00726318359375 61.40297317504883 259.51214599609375 63.089744567871094 258.9616394042969 64.67198181152344 C 258.3675537109375 66.09221649169922 257.69561767578125 67.30730438232422 256.9034729003906 68.28471374511719 C 255.9939422607422 69.03482818603516 254.9455108642578 69.5919189453125 253.77215576171875 70.01180267333984 C 252.53030395507812 70.35623931884766 251.2399444580078 70.65461730957031 249.96456909179688 70.97836303710938 C 248.7548065185547 71.29741668701172 247.627685546875 71.59112548828125 246.58306884765625 71.83280944824219 C 245.631103515625 71.9903793334961 244.77890014648438 72.03266143798828 243.9839324951172 71.93008422851562 C 243.20108032226562 71.69605255126953 242.38998413085938 71.37039184570312 241.49765014648438 70.97998046875 C 240.48709106445312 70.6261978149414 239.3634796142578 70.3916244506836 238.12802124023438 70.33124542236328 C 236.7981414794922 70.48713684082031 235.42796325683594 70.86955261230469 234.04847717285156 71.48057556152344 C 232.68556213378906 72.29036712646484 231.39520263671875 73.25984191894531 230.1915283203125 74.32429504394531 C 229.0830078125 75.42473602294922 228.0872039794922 76.49899291992188 227.19619750976562 77.47078704833984 C 226.37811279296875 78.2621841430664 225.59783935546875 78.84881591796875 224.8175811767578 79.24600219726562 C 223.99330139160156 79.4708480834961 223.0813751220703 79.5531234741211 222.08750915527344 79.53917694091797 C 221.03488159179688 79.4898910522461 219.95278930664062 79.46833038330078 218.87139892578125 79.52332305908203 C 217.81857299804688 79.68406677246094 216.82440185546875 79.93335723876953 215.92739868164062 80.23526763916016 C 215.14256286621094 80.5382308959961 214.46458435058594 80.75826263427734 213.87588500976562 80.80406951904297 C 213.31649780273438 80.60116577148438 212.7293243408203 80.13959503173828 212.06285095214844 79.42218780517578 C 211.27699279785156 78.46797180175781 210.3501434326172 77.3548812866211 209.28140258789062 76.17420196533203 C 208.06394958496094 75.0211410522461 206.7122039794922 74.04666137695312 205.28529357910156 73.54023742675781 C 203.85008239746094 73.70431518554688 202.45565795898438 74.40677642822266 201.12210083007812 75.3508071899414 C 199.87124633789062 76.32034301757812 198.72288513183594 77.22168731689453 197.70074462890625 78.0061264038086 C 196.7874298095703 78.65494537353516 195.95375061035156 79.13414001464844 195.17562866210938 79.41825866699219 C 194.4303741455078 79.51053619384766 193.6815948486328 79.4341812133789 192.85520935058594 79.20476531982422 C 191.92904663085938 78.8591079711914 190.90423583984375 78.43037414550781 189.7772979736328 77.9217758178711 C 188.5182647705078 77.29619598388672 187.0926971435547 76.50711822509766 185.48728942871094 75.5302505493164 C 183.67274475097656 74.40086364746094 181.62098693847656 73.15538787841797 179.33761596679688 71.80931854248047 C 176.99154663085938 70.29801940917969 174.7664794921875 68.55481719970703 172.91262817382812 66.64517974853516 C 171.68165588378906 64.59211730957031 170.94837951660156 62.54265213012695 170.29266357421875 60.61001205444336 C 169.20274353027344 58.799888610839844 167.06863403320312 57.05135726928711 163.55276489257812 55.30362319946289 C 158.6981201171875 53.39390563964844 152.96710205078125 51.18366241455078 147.1204071044922 48.668087005615234 C 142.16537475585938 45.96360397338867 139.24539184570312 43.25404357910156 139.57305908203125 40.808570861816406 C 143.9619903564453 39.05022430419922 150.5583953857422 37.02363204956055 157.91018676757812 34.592403411865234 C 164.9999237060547 32.858768463134766 170.90264892578125 31.447463989257812 175.22520446777344 30.58409309387207 C 177.9308319091797 29.933683395385742 179.49514770507812 29.966650009155273 180.50906372070312 30.02438735961914 C 181.37863159179688 29.75446891784668 182.3932647705078 29.316251754760742 183.70237731933594 29.002979278564453 C 185.2707061767578 28.93624496459961 186.84854125976562 29.391094207763672 191.5525360107422 28.14988899230957" stroke-width="0.0" fill="rgb(128, 64, 64)" opacity="1.0" stroke="rgb(120, 5, 132)" stroke-opacity="0.43978372" stroke-linecap="round" stroke-linejoin="round"/>
    <path d="M 155.40753173828125 104.677490234375 C 158.0836944580078 105.57966613769531 160.6488494873047 106.50239562988281 162.98695373535156 107.5599365234375 C 165.04693603515625 108.86642456054688 166.86769104003906 110.50971984863281 168.50160217285156 112.54907989501953 C 170.0209503173828 114.96416473388672 171.54656982421875 117.408935546875 173.2157745361328 119.42317199707031 C 175.15142822265625 120.43196868896484 177.30560302734375 119.96582794189453 179.41314697265625 117.96212768554688 C 181.18994140625 115.04886627197266 182.3550567626953 112.4490737915039 182.85421752929688 111.27325439453125 C 182.7403106689453 112.12651824951172 182.33731079101562 114.6589126586914 182.00064086914062 118.12335205078125 C 182.02777099609375 121.45561981201172 182.2698211669922 123.76644134521484 182.53517150878906 124.42474365234375 C 182.59039306640625 123.36679077148438 182.19418334960938 121.44746398925781 181.08187866210938 119.52115631103516 C 178.95018005371094 118.07089233398438 175.9586944580078 117.13101196289062 172.76336669921875 116.56037139892578 C 170.08973693847656 116.15274047851562 168.54173278808594 115.87904357910156 168.718505859375 115.72954559326172 C 171.07809448242188 115.76567077636719 174.66238403320312 115.74929809570312 178.28831481933594 114.9439468383789 C 181.2544708251953 113.17805480957031 183.49330139160156 111.55332946777344 185.13812255859375 110.56249237060547 C 186.33868408203125 110.3600845336914 187.38507080078125 111.11241912841797 188.62939453125 112.75738525390625 C 190.32489013671875 114.88164520263672 192.56248474121094 116.80086517333984 195.35800170898438 117.8017578125 C 198.65316772460938 117.31268310546875 202.27676391601562 115.47787475585938 205.95472717285156 112.80980682373047 C 209.391845703125 110.3187484741211 212.05564880371094 109.62799072265625 213.2943878173828 112.3449935913086 C 212.4478759765625 119.07420349121094 209.65069580078125 127.5950927734375 205.47885131835938 135.65077209472656 C 200.6861114501953 141.3522491455078 196.12179565429688 144.28465270996094 192.53868103027344 144.81982421875 C 190.4025115966797 143.7728271484375 189.725341796875 142.01136779785156 190.43373107910156 140.333984375 C 192.33580017089844 139.50259399414062 195.0302276611328 139.9365692138672 197.9547119140625 141.5433349609375 C 200.53236389160156 143.9269256591797 202.5233154296875 146.50038146972656 204.038818359375 148.90231323242188 C 205.3354949951172 150.90850830078125 206.64463806152344 152.31581115722656 208.16510009765625 152.9295196533203 C 210.0187530517578 152.65255737304688 212.22813415527344 151.65455627441406 214.7838134765625 150.2168426513672 C 217.6146240234375 148.6725616455078 220.56015014648438 147.33827209472656 223.4295654296875 146.4239959716797 C 226.0254364013672 146.08392333984375 228.08277893066406 146.0738525390625 229.3593292236328 146.06216430664062 C 229.62002563476562 145.7291259765625 228.78086853027344 144.80055236816406 226.8849334716797 143.00816345214844 C 224.24603271484375 140.14341735839844 221.9652557373047 136.24171447753906 221.25022888183594 131.5904083251953 C 223.25721740722656 126.6618423461914 228.508056640625 122.17435455322266 235.94703674316406 119.12337493896484 C 243.53358459472656 118.59036254882812 250.09774780273438 119.85273742675781 254.58192443847656 121.8395767211914 C 256.294921875 123.2759017944336 256.03662109375 123.88372039794922 255.41207885742188 123.68477630615234 C 256.1294860839844 122.6572494506836 259.0555419921875 120.47892761230469 262.9678649902344 117.67654418945312 C 266.28826904296875 115.939697265625 268.0992126464844 116.86553955078125 268.3189392089844 120.25081634521484 C 267.9202575683594 124.1406021118164 267.73370361328125 126.89572143554688 268.40545654296875 127.7539291381836 C 270.0555419921875 126.9431381225586 272.3888854980469 125.45654296875 274.9866943359375 124.61793518066406 C 277.5103454589844 125.81188201904297 279.7528076171875 129.9012451171875 281.426513671875 136.9959259033203 C 282.2958984375 146.5771942138672 282.37860107421875 156.43734741210938 281.5164489746094 164.50315856933594 C 279.2441711425781 168.57431030273438 275.5699462890625 167.216064453125 270.9061584472656 163.38031005859375 C 266.2120361328125 160.11375427246094 262.4714660644531 157.83224487304688 259.944091796875 156.31764221191406 C 258.73577880859375 155.76254272460938 257.8649597167969 155.70460510253906 257.7016296386719 155.75100708007812 C 258.24346923828125 155.75929260253906 259.389892578125 155.9139404296875 260.4825439453125 156.30662536621094 C 261.0361633300781 156.9872283935547 261.7889099121094 157.71827697753906 263.5333251953125 158.5590362548828 C 266.0569763183594 159.96763610839844 269.51068115234375 162.09210205078125 273.10791015625 165.10655212402344 C 274.4595947265625 169.4425048828125 273.46429443359375 174.51553344726562 270.42510986328125 179.83982849121094 C 266.04443359375 184.45579528808594 261.26397705078125 187.8220977783203 256.4388122558594 189.9226531982422 C 251.6962432861328 191.21876525878906 247.349609375 192.0415496826172 243.44036865234375 192.62332153320312 C 239.85888671875 193.10791015625 236.5711212158203 193.5137176513672 233.59754943847656 193.8411102294922 C 230.81430053710938 194.14614868164062 227.96493530273438 194.3983917236328 224.86126708984375 194.6579132080078 C 221.39732360839844 194.96478271484375 217.50234985351562 195.2881622314453 213.17898559570312 195.57064819335938 C 208.47703552246094 195.7222442626953 203.62356567382812 195.64393615722656 199.08709716796875 195.2269744873047 C 195.33950805664062 194.38034057617188 192.7051239013672 192.99549865722656 191.05271911621094 191.022216796875 C 189.94590759277344 188.42984008789062 188.79620361328125 185.31674194335938 187.18106079101562 181.85952758789062 C 184.9754638671875 178.3107147216797 182.24514770507812 174.91119384765625 179.06591796875 171.8955841064453 C 175.56704711914062 169.47381591796875 172.03289794921875 167.51296997070312 168.7327423095703 165.70132446289062 C 165.85089111328125 163.75152587890625 163.4247589111328 161.53549194335938 161.37542724609375 159.1678009033203 C 159.57351684570312 156.9531707763672 157.87551879882812 155.07395935058594 156.1311492919922 153.57383728027344 C 154.22476196289062 152.30819702148438 152.17803955078125 150.98202514648438 150.1212921142578 149.14125061035156 C 148.2178497314453 146.340576171875 146.6329803466797 142.20901489257812 145.55087280273438 136.529296875 C 145.08303833007812 129.4491424560547 145.11264038085938 121.91244506835938 145.46546936035156 114.94932556152344 C 146.05078125 109.56151580810547 146.9447784423828 106.3712158203125 148.19776916503906 105.47142028808594 C 149.8230743408203 106.28060913085938 151.61769104003906 107.69375610351562 155.40753173828125 104.677490234375" stroke-width="0.0" fill="rgb(84, 161, 161)" opacity="0.9998207" stroke="rgb(64, 46, 95)" stroke-opacity="0.039746523" stroke-linecap="round" stroke-linejoin="round"/>
    <path d="M 82.24091339111328 171.80502319335938 C 88.3947525024414 170.40541076660156 94.16027069091797 169.63870239257812 98.95110321044922 168.7998809814453 C 102.40837097167969 167.59500122070312 104.61536407470703 167.15350341796875 105.7409896850586 168.30902099609375 C 106.10688018798828 171.31410217285156 106.25460052490234 175.60069274902344 106.74396514892578 180.4414520263672 C 107.8230972290039 185.12307739257812 109.5641098022461 189.0022735595703 111.89382934570312 191.53131103515625 C 114.38690948486328 191.90472412109375 116.40552520751953 191.37002563476562 117.5724105834961 192.12525939941406 C 117.99810791015625 194.57855224609375 117.98213958740234 197.52073669433594 117.64727020263672 200.14801025390625 C 117.02723693847656 201.8712615966797 116.0925521850586 202.52914428710938 114.80107116699219 202.1690673828125 C 113.24227142333984 201.114501953125 111.69432830810547 199.80567932128906 110.48009490966797 198.61444091796875 C 109.6272201538086 197.66404724121094 108.9249496459961 196.85028076171875 108.33381652832031 196.09188842773438 C 107.99263000488281 195.06394958496094 109.19181060791016 193.8329620361328 112.85980987548828 192.17742919921875 C 118.48555755615234 190.5952911376953 124.66768646240234 188.839111328125 130.51803588867188 187.6511688232422 C 135.10264587402344 187.7191162109375 138.2740936279297 189.0214385986328 140.24168395996094 191.38229370117188 C 141.55105590820312 194.5531463623047 142.7333221435547 198.1520233154297 144.2339630126953 201.8027801513672 C 146.4019012451172 205.18667602539062 149.18966674804688 208.1591339111328 152.36729431152344 210.67633056640625 C 155.5983428955078 212.76832580566406 158.47769165039062 214.51101684570312 160.67994689941406 215.9223175048828 C 162.04977416992188 217.00155639648438 162.67788696289062 217.7856903076172 162.75973510742188 218.35963439941406 C 162.55535888671875 218.79237365722656 162.4087677001953 218.94903564453125 162.68019104003906 218.6988525390625 C 163.73568725585938 218.04750061035156 165.80581665039062 217.2060089111328 168.99085998535156 216.4530792236328 C 173.25338745117188 216.15985107421875 178.1132049560547 216.5955352783203 183.0608673095703 217.77813720703125 C 187.6480255126953 219.63430786132812 191.41302490234375 222.03172302246094 193.89683532714844 224.79200744628906 C 194.66961669921875 227.7271728515625 193.8627166748047 230.43167114257812 191.9313201904297 232.59072875976562 C 189.42758178710938 234.03802490234375 186.56190490722656 234.26531982421875 183.6763153076172 233.93638610839844 C 181.98867797851562 233.44419860839844 183.20680236816406 233.5244140625 187.07286071777344 234.43077087402344 C 191.72845458984375 232.66587829589844 195.97035217285156 229.48463439941406 199.28656005859375 225.83445739746094 C 201.7825927734375 222.85354614257812 203.89952087402344 220.91441345214844 206.0126953125 219.92849731445312 C 208.2978057861328 219.76795959472656 210.8643798828125 219.9240264892578 213.83334350585938 220.03929138183594 C 217.2418212890625 219.9391632080078 221.05990600585938 219.7495880126953 225.18673706054688 219.6945343017578 C 229.47262573242188 219.773193359375 233.71804809570312 219.96969604492188 237.75636291503906 220.3004608154297 C 241.4481201171875 220.90797424316406 244.67442321777344 222.0833740234375 247.3065948486328 224.1602020263672 C 249.2847137451172 227.29063415527344 250.77809143066406 231.09719848632812 251.94854736328125 235.23345947265625 C 252.91880798339844 239.2913818359375 253.78048706054688 242.78384399414062 254.62899780273438 245.1939239501953 C 255.4687042236328 246.02944946289062 256.02557373046875 245.24888610839844 255.85787963867188 243.2263641357422 C 254.70745849609375 240.40884399414062 252.71949768066406 237.38140869140625 249.97210693359375 234.91282653808594 C 246.45126342773438 233.85987854003906 242.32398986816406 234.04623413085938 237.94589233398438 234.52560424804688 C 233.8036651611328 234.1161346435547 229.89549255371094 233.1414337158203 225.7966766357422 232.43601989746094 C 221.0210723876953 231.8173065185547 216.3979034423828 231.2927703857422 212.7218017578125 232.9835662841797 C 211.22312927246094 236.64573669433594 207.2106170654297 235.8663787841797 203.07066345214844 236.7100372314453 C 200.63223266601562 237.51986694335938 198.93682861328125 237.56259155273438 197.67689514160156 238.74777221679688 C 197.201904296875 240.84158325195312 193.95135498046875 240.5700225830078 189.43035888671875 242.4049530029297 C 187.1575927734375 244.4106903076172 188.50482177734375 248.4748077392578 189.5416717529297 251.37081909179688 C 188.12962341308594 249.63467407226562 184.78094482421875 245.58251953125 178.32470703125 243.1197052001953 C 173.0565948486328 244.929443359375 168.40467834472656 249.4945068359375 164.6188507080078 254.59182739257812 C 161.5669403076172 258.26177978515625 159.48834228515625 259.18731689453125 157.77001953125 257.4497375488281 C 155.53941345214844 254.171142578125 152.0099639892578 250.52056884765625 146.85751342773438 247.30078125 C 140.58045959472656 244.82989501953125 134.14134216308594 243.3485107421875 128.56040954589844 243.12319946289062 C 124.7607192993164 244.28306579589844 122.83072662353516 246.34071350097656 122.29866790771484 248.33352661132812 C 122.48182678222656 249.34454345703125 122.64178466796875 248.9390106201172 122.13053894042969 247.04019165039062 C 120.58653259277344 244.00918579101562 118.37635803222656 240.66661071777344 116.0409927368164 237.794677734375 C 114.08912658691406 235.86715698242188 112.77265167236328 234.6890411376953 111.75244903564453 233.87380981445312 C 110.28236389160156 233.1595001220703 108.77690887451172 231.93043518066406 107.99757385253906 229.89649963378906 C 106.93504333496094 228.67747497558594 104.18132781982422 229.54283142089844 99.80491638183594 231.4429931640625 C 94.37224578857422 232.728759765625 88.56297302246094 231.9106903076172 82.92356872558594 230.07936096191406 C 78.48428344726562 228.16368103027344 75.31807708740234 225.77281188964844 72.79597473144531 223.6680450439453 C 70.74781036376953 221.83441162109375 68.98893737792969 219.65982055664062 67.06334686279297 216.7479248046875 C 64.69205474853516 213.06320190429688 63.173912048339844 208.46067810058594 62.68820571899414 203.4933624267578 C 62.415931701660156 198.62789916992188 62.93514633178711 194.47134399414062 64.30242919921875 191.16317749023438 C 65.39601135253906 188.46192932128906 66.40827178955078 186.3466033935547 67.57616424560547 184.36566162109375 C 69.0325927734375 182.1087646484375 71.19620513916016 179.31015014648438 74.46118927001953 176.40065002441406 C 78.35601043701172 173.6536865234375 82.20904541015625 172.17933654785156 84.21478271484375 171.65077209472656 C 83.27252197265625 171.54115295410156 80.86182403564453 171.8701629638672 82.24091339111328 171.80502319335938" stroke-width="0.0" fill="rgb(60, 117, 117)" opacity="0.9999216" stroke="rgb(176, 234, 208)" stroke-opacity="0.5115529" stroke-linecap="round" stroke-linejoin="round"/>
    <path d="M 138.13575744628906 64.42505645751953 C 136.7563018798828 63.64267349243164 135.61293029785156 63.39572525024414 134.75181579589844 63.86374282836914 C 134.5810089111328 64.51476287841797 135.50375366210938 64.79707336425781 137.51162719726562 64.70281982421875 C 140.14852905273438 64.61930847167969 142.89796447753906 64.38581085205078 145.43353271484375 64.23062133789062 C 147.59042358398438 64.06423950195312 149.3030548095703 63.756080627441406 150.7225341796875 63.5528564453125 C 152.0767364501953 63.47919845581055 153.39244079589844 63.431312561035156 154.7742919921875 63.437862396240234 C 156.17181396484375 63.483612060546875 157.4619140625 63.622955322265625 158.67123413085938 63.822113037109375 C 159.9151611328125 64.07135772705078 161.1686553955078 64.41451263427734 162.38223266601562 64.8399887084961 C 163.52906799316406 65.1974105834961 164.606689453125 65.32109832763672 165.62466430664062 65.14553833007812 C 166.60499572753906 64.67449188232422 167.5047149658203 63.936126708984375 168.3128204345703 63.02937316894531 C 169.05392456054688 62.062435150146484 169.72830200195312 61.18611526489258 170.3219757080078 60.52776336669922 C 170.85284423828125 60.19886016845703 171.3339385986328 60.24900436401367 171.78335571289062 60.6993293762207 C 172.24159240722656 61.49394226074219 172.7484588623047 62.54631805419922 173.3035430908203 63.77679443359375 C 173.9102325439453 65.03697967529297 174.5954132080078 66.2355728149414 175.35183715820312 67.27031707763672 C 176.20367431640625 68.04820251464844 177.16644287109375 68.57874298095703 178.2513885498047 68.88460540771484 C 179.4523468017578 69.00138092041016 180.78585815429688 68.99958801269531 182.2711944580078 68.95430755615234 C 183.84486389160156 68.95682525634766 185.4620361328125 69.0591049194336 187.08641052246094 69.21781158447266 C 188.65394592285156 69.38166809082031 190.1305389404297 69.51255798339844 191.43295288085938 69.59068298339844 C 192.47128295898438 69.60067749023438 193.19683837890625 69.53573608398438 193.625244140625 69.446044921875 C 193.82249450683594 69.3609619140625 193.89633178710938 69.30775451660156 193.96621704101562 69.27643585205078 C 194.1323699951172 69.28990936279297 194.46897888183594 69.32093811035156 194.98728942871094 69.35208892822266 C 195.66616821289062 69.36567687988281 196.46914672851562 69.33110046386719 197.3462677001953 69.2294692993164 C 198.22079467773438 69.06871795654297 199.05548095703125 68.85862731933594 199.8334197998047 68.64413452148438 C 200.559814453125 68.48344421386719 201.26589965820312 68.37960052490234 202.01541137695312 68.3475570678711 C 202.89097595214844 68.40265655517578 203.94091796875 68.51445770263672 205.20596313476562 68.65443420410156 C 206.68663024902344 68.81266784667969 208.38023376464844 69.00350952148438 210.25071716308594 69.21897888183594 C 212.24078369140625 69.43574523925781 214.30152893066406 69.61433410644531 216.39695739746094 69.69175720214844 C 218.5231475830078 69.64891052246094 220.7016143798828 69.47126770019531 223.00677490234375 69.23162078857422 C 225.5418701171875 69.07010650634766 228.39137268066406 68.99317932128906 231.54937744140625 69.00555419921875 C 235.03282165527344 69.05353546142578 238.8028564453125 69.0621566772461 242.757568359375 68.92414855957031 C 246.80938720703125 68.6659164428711 250.84202575683594 68.36166381835938 254.5244903564453 68.01951599121094 C 257.7157897949219 67.3929672241211 260.4633483886719 66.8069839477539 262.91644287109375 66.31336212158203 C 265.25518798828125 66.03546142578125 267.5339050292969 65.66060638427734 269.7207946777344 64.8817138671875 C 272.3761291503906 64.49666595458984 275.0038146972656 64.45890808105469 277.8768615722656 64.3897933959961 C 280.82830810546875 63.70360565185547 283.7284851074219 63.721412658691406 286.6054992675781 64.50701904296875 C 289.6202087402344 65.3194351196289 292.91778564453125 66.24166870117188 296.61273193359375 67.49311828613281 C 300.7440185546875 69.2410888671875 305.551025390625 70.7575454711914 310.67694091796875 72.48457336425781 C 315.837646484375 74.13343048095703 319.87298583984375 75.08198547363281 321.396484375 76.16380310058594 C 319.52783203125 76.9574203491211 315.39373779296875 76.76560974121094 309.88031005859375 76.02481842041016 C 304.1301574707031 75.07496643066406 298.56292724609375 75.48178100585938 293.5479736328125 77.14347076416016 C 289.1173095703125 78.8028335571289 285.3723449707031 80.06489562988281 282.3177490234375 81.11910247802734 C 279.6077575683594 81.42865753173828 276.9994201660156 82.12223052978516 274.669677734375 83.38866424560547 C 271.6891174316406 83.42364501953125 268.6485290527344 83.38518524169922 265.61676025390625 83.75245666503906 C 262.7940979003906 83.95185089111328 260.36065673828125 83.62950134277344 258.1995544433594 83.24860382080078 C 256.1460876464844 84.30049133300781 253.56216430664062 85.22645568847656 250.12831115722656 85.63512420654297 C 246.0232696533203 86.19144439697266 241.60189819335938 87.01332092285156 237.23031616210938 87.52574920654297 C 233.18206787109375 87.15509033203125 229.93551635742188 85.95035552978516 227.600830078125 84.66973114013672 C 225.95982360839844 84.83192443847656 225.03598022460938 86.33173370361328 223.7765350341797 88.19634246826172 C 221.5403289794922 89.39056396484375 218.72409057617188 89.87322235107422 215.9718475341797 89.31079864501953 C 214.145751953125 87.06419372558594 212.34927368164062 83.71056365966797 210.22283935546875 79.98175811767578 C 208.4120635986328 76.42473602294922 206.8467254638672 74.0162353515625 204.93911743164062 73.51241302490234 C 203.3126983642578 75.13971710205078 201.6385955810547 78.02095031738281 199.8861846923828 81.34667205810547 C 197.94943237304688 84.41738891601562 195.7499237060547 86.86685943603516 193.16209411621094 88.44512176513672 C 190.2742462158203 89.15415954589844 187.170166015625 88.89810943603516 183.80812072753906 87.49392700195312 C 180.19308471679688 84.71932983398438 176.16636657714844 81.22256469726562 172.2695770263672 77.43717193603516 C 169.10848999023438 73.97147369384766 166.7457733154297 72.03937530517578 165.04843139648438 72.39317321777344 C 164.65261840820312 75.4455337524414 164.63694763183594 79.3987808227539 164.54330444335938 82.9283218383789 C 163.32806396484375 85.02115631103516 161.0831298828125 85.0555648803711 158.2892303466797 83.33798217773438 C 154.91534423828125 80.8262710571289 151.40054321289062 78.1470947265625 148.01168823242188 75.56561279296875 C 144.91331481933594 73.17121124267578 141.88662719726562 70.90632629394531 138.83262634277344 68.60700988769531 C 136.00125122070312 65.92172241210938 133.21942138671875 63.08116149902344 138.13575744628906 64.42505645751953" stroke-width="0.0" fill="rgb(155, 79, 79)" opacity="0.9998123" stroke="rgb(83, 99, 25)" stroke-opacity="0.13336" stroke-linecap="round" stroke-linejoin="round"/>
    <path d="M 252.196044921875 123.70567321777344 C 256.003173828125 124.09054565429688 259.6831359863281 124.52031707763672 263.1370544433594 125.02519989013672 C 266.2873229980469 125.53874206542969 269.1419372558594 125.98992156982422 271.7363586425781 126.24638366699219 C 274.1022033691406 126.179931640625 276.2320251464844 125.75691986083984 278.0563049316406 125.00779724121094 C 279.4972229003906 123.96280670166016 280.31048583984375 122.80256652832031 280.42523193359375 121.72874450683594 C 279.6449890136719 120.92670440673828 277.9877624511719 120.48979187011719 275.84124755859375 120.11287689208984 C 273.74554443359375 119.66796112060547 272.35137939453125 119.38504791259766 272.22076416015625 119.36228942871094 C 273.38134765625 119.60327911376953 275.5345153808594 120.00921630859375 277.8383483886719 120.62582397460938 C 280.3258361816406 121.35556030273438 282.4542541503906 122.116943359375 284.0839538574219 122.9073715209961 C 285.2489013671875 123.74295043945312 285.90960693359375 124.66700744628906 286.14801025390625 125.69906616210938 C 286.2325744628906 126.92696380615234 286.2873229980469 128.2506561279297 286.47259521484375 129.5973358154297 C 286.9813537597656 130.96240234375 287.7949523925781 132.22088623046875 288.894287109375 133.25807189941406 C 290.2598876953125 134.02967834472656 291.7447814941406 134.51487731933594 293.19830322265625 134.70887756347656 C 294.4635314941406 134.67462158203125 295.4236145019531 134.56240844726562 295.9894104003906 134.5399932861328 C 296.1063232421875 134.84214782714844 295.8199768066406 135.7965087890625 295.353759765625 137.69122314453125 C 295.0632019042969 140.83871459960938 295.06512451171875 145.4175567626953 295.35906982421875 151.22164916992188 C 295.7890625 157.91555786132812 296.057861328125 164.9014892578125 296.490234375 171.39260864257812 C 298.2392883300781 176.4912109375 301.05224609375 180.33042907714844 303.8280944824219 183.3557586669922 C 305.6007080078125 186.15664672851562 306.6104736328125 189.34510803222656 307.14776611328125 193.4713897705078 C 307.20843505859375 199.02023315429688 306.3536682128906 205.8516387939453 304.216796875 213.49778747558594 C 300.8426818847656 221.20394897460938 296.2566833496094 227.94876098632812 290.8482666015625 232.8539581298828 C 286.2973937988281 236.3506317138672 282.7132263183594 238.3156280517578 280.318603515625 239.47203063964844 C 278.5633544921875 240.48373413085938 276.3755187988281 241.49017333984375 272.7959899902344 242.83779907226562 C 267.9377136230469 244.58602905273438 262.5771179199219 246.7887725830078 257.4450988769531 247.42156982421875 C 252.5988006591797 242.343505859375 245.39903259277344 237.79205322265625 236.9514923095703 234.81512451171875 C 229.84454345703125 232.2815399169922 224.76576232910156 231.31947326660156 222.12144470214844 232.2555694580078 C 222.30259704589844 234.2036895751953 223.07369995117188 234.37454223632812 221.6134490966797 232.18760681152344 C 215.53565979003906 231.16575622558594 206.3984375 232.04542541503906 196.50518798828125 234.7327423095703 C 188.78713989257812 237.19630432128906 184.94912719726562 237.0762939453125 185.92991638183594 234.20106506347656 C 190.95297241210938 231.90887451171875 193.6603240966797 228.43235778808594 192.0578155517578 225.26708984375 C 185.98678588867188 224.4345245361328 176.9461669921875 225.5840301513672 166.7031707763672 226.70907592773438 C 156.95022583007812 226.156005859375 148.7052459716797 223.9811553955078 142.37611389160156 220.70249938964844 C 137.62266540527344 216.23513793945312 133.7551727294922 210.6768035888672 130.302978515625 204.6520233154297 C 126.94470977783203 198.74658203125 123.79476928710938 193.40634155273438 120.91738891601562 188.85491943359375 C 118.67707824707031 184.65301513671875 117.65715026855469 180.01507568359375 117.6655502319336 174.69354248046875 C 118.47145080566406 168.75929260253906 120.6172103881836 162.8153533935547 124.73719787597656 157.68948364257812 C 130.27740478515625 153.95169067382812 135.0787811279297 151.32566833496094 137.14846801757812 150.38853454589844 C 135.1282958984375 151.43788146972656 130.44190979003906 153.94451904296875 126.44816589355469 156.59129333496094 C 126.42765808105469 158.21963500976562 128.808837890625 157.75994873046875 131.05413818359375 154.29083251953125 C 131.73812866210938 148.13214111328125 131.2997283935547 140.93666076660156 130.65504455566406 134.06407165527344 C 131.19656372070312 128.7593994140625 133.67507934570312 125.73589324951172 137.71737670898438 124.89545440673828 C 142.32632446289062 125.70721435546875 146.92677307128906 128.17124938964844 151.244140625 132.35426330566406 C 155.36485290527344 137.33619689941406 160.62086486816406 140.19056701660156 165.9172821044922 140.8828582763672 C 168.159912109375 142.57745361328125 167.63270568847656 145.81643676757812 166.89874267578125 149.79017639160156 C 169.6651611328125 152.49761962890625 174.441162109375 154.3625030517578 179.97621154785156 156.00547790527344 C 185.2283477783203 157.99070739746094 189.8978271484375 160.98204040527344 193.92886352539062 165.31442260742188 C 197.65711975097656 170.83766174316406 200.82656860351562 176.94384765625 203.134765625 182.4057159423828 C 204.76712036132812 185.58828735351562 205.276611328125 186.43753051757812 204.54286193847656 185.5852508544922 C 203.70457458496094 183.4611053466797 202.60830688476562 181.57676696777344 202.0576934814453 181.17315673828125 C 202.9326934814453 183.02984619140625 205.49041748046875 186.67092895507812 209.5489501953125 190.27786254882812 C 214.66604614257812 191.84043884277344 220.51644897460938 191.0707244873047 226.6425323486328 188.8219757080078 C 232.70445251464844 185.9715118408203 238.59239196777344 182.91055297851562 244.53976440429688 179.8159637451172 C 251.3265380859375 176.67251586914062 258.9150695800781 173.53472900390625 267.0082702636719 170.93067932128906 C 273.74554443359375 169.43153381347656 275.7176818847656 167.32815551757812 272.04608154296875 164.16134643554688 C 266.1258850097656 160.60691833496094 260.9768981933594 157.18728637695312 258.0130310058594 154.8856201171875 C 257.2715759277344 154.0068817138672 257.3979187011719 153.90341186523438 257.5497741699219 154.0457763671875 C 257.27581787109375 154.05587768554688 257.4501953125 154.3194122314453 259.8584289550781 156.10098266601562 C 265.4997253417969 160.4375762939453 273.0868835449219 165.3029327392578 279.7462158203125 166.47914123535156 C 280.9703674316406 163.38868713378906 276.38671875 156.55555725097656 271.9818420410156 147.1255340576172 C 271.0211181640625 136.19354248046875 267.6953430175781 127.4059829711914 261.2230529785156 122.48197937011719 C 253.4155731201172 120.44257354736328 245.07737731933594 119.2344970703125 252.196044921875 123.70567321777344" stroke-width="0.0" fill="rgb(50, 97, 97)" opacity="1.0" stroke="rgb(4, 170, 158)" stroke-opacity="0.113241784" stroke-linecap="round" stroke-linejoin="round"/>
    <path d="M 208.88050842285156 118.35894012451172 C 210.86428833007812 118.53085327148438 212.92495727539062 118.94489288330078 215.20591735839844 119.92829132080078 C 217.83998107910156 121.52892303466797 220.8147430419922 123.26892852783203 224.03070068359375 124.60897827148438 C 227.25784301757812 124.97190856933594 230.2965087890625 124.10089874267578 233.02223205566406 122.20933532714844 C 235.38775634765625 119.77809143066406 237.44332885742188 117.39620971679688 239.18553161621094 115.753662109375 C 240.6188201904297 115.12911987304688 241.50360107421875 115.25879669189453 241.65191650390625 115.73230743408203 C 240.93824768066406 116.38007354736328 239.59657287597656 117.2769546508789 237.9308319091797 118.59231567382812 C 236.2589111328125 120.35260009765625 234.98373413085938 122.59669494628906 234.13858032226562 125.13465118408203 C 233.73426818847656 127.71792602539062 233.76834106445312 130.0729522705078 234.2071533203125 132.01837158203125 C 234.96380615234375 133.4385528564453 235.81927490234375 134.35047912597656 236.59915161132812 134.82093811035156 C 237.1527557373047 134.95262145996094 237.50616455078125 134.9530792236328 237.7222900390625 135.048095703125 C 237.88394165039062 135.46971130371094 238.11251831054688 136.41250610351562 238.44349670410156 137.88510131835938 C 238.8237762451172 139.8359375 239.12710571289062 142.1275177001953 239.27613830566406 144.56178283691406 C 239.17198181152344 146.96798706054688 238.77328491210938 149.20138549804688 238.07176208496094 151.1510772705078 C 237.1347198486328 152.78480529785156 236.1256866455078 154.142578125 235.18710327148438 155.2757110595703 C 234.37826538085938 156.22967529296875 233.64559936523438 157.0056915283203 232.9531707763672 157.6300811767578 C 232.29823303222656 158.13250732421875 231.71401977539062 158.55172729492188 231.27783203125 158.92796325683594 C 231.0469970703125 159.28713989257812 231.05429077148438 159.6178436279297 231.2947540283203 159.90415954589844 C 231.6961669921875 160.109130859375 232.10646057128906 160.194580078125 232.33799743652344 160.17041015625 C 232.1849822998047 160.04925537109375 231.4368896484375 159.90087890625 229.9261016845703 159.81736755371094 C 227.6320343017578 159.9835662841797 225.02667236328125 160.54347229003906 222.64419555664062 161.57237243652344 C 221.16387939453125 163.13600158691406 220.92652893066406 165.15914916992188 221.63656616210938 167.30596923828125 C 222.30154418945312 169.14173889160156 222.63766479492188 170.02198791503906 222.53524780273438 169.419677734375 C 222.20428466796875 167.28359985351562 221.14544677734375 164.69891357421875 218.6766357421875 162.881103515625 C 214.75257873535156 162.41705322265625 210.4091033935547 162.97607421875 206.72084045410156 164.46145629882812 C 204.70907592773438 166.7794952392578 204.12892150878906 168.9234619140625 204.26966857910156 169.88357543945312 C 204.64381408691406 169.42474365234375 204.9292449951172 168.04989624023438 204.7200469970703 166.41232299804688 C 203.5628662109375 164.9932403564453 201.93186950683594 163.93746948242188 200.25218200683594 163.1021728515625 C 198.72402954101562 162.48623657226562 197.31314086914062 162.03631591796875 195.9071807861328 161.6035614013672 C 194.52728271484375 160.87200927734375 193.23780822753906 159.94244384765625 192.189208984375 159.07241821289062 C 191.5697479248047 158.49830627441406 191.54380798339844 158.5396270751953 192.2057647705078 159.18299865722656 C 193.5260467529297 160.209228515625 195.0922393798828 161.24447631835938 196.43809509277344 161.8969268798828 C 197.105224609375 161.7429656982422 196.89950561523438 160.58056640625 195.76390075683594 158.62767028808594 C 193.7594757080078 156.33033752441406 191.10189819335938 154.07579040527344 188.03575134277344 152.10935974121094 C 184.88482666015625 150.5225830078125 181.97462463378906 149.3582305908203 179.52711486816406 148.72210693359375 C 177.73045349121094 148.7400360107422 176.68914794921875 149.47023010253906 176.28152465820312 150.69415283203125 C 176.06703186035156 151.96539306640625 175.92491149902344 152.96788024902344 175.93853759765625 153.4368438720703 C 176.1063995361328 153.17575073242188 176.33908081054688 152.17453002929688 176.53475952148438 150.49407958984375 C 176.37635803222656 148.24281311035156 176.02200317382812 145.55575561523438 176.3277130126953 142.6355438232422 C 177.77145385742188 139.73435974121094 179.5175323486328 136.98629760742188 180.78248596191406 134.4848175048828 C 180.78619384765625 132.38365173339844 179.8422088623047 130.76759338378906 178.732177734375 129.6041717529297 C 178.0483856201172 128.801513671875 177.938232421875 128.62356567382812 178.32272338867188 129.22564697265625 C 179.13458251953125 130.709716796875 180.50343322753906 132.33746337890625 182.5843505859375 133.1102294921875 C 185.1566162109375 132.46435546875 187.704833984375 130.75123596191406 189.50579833984375 128.4770050048828 C 189.6907958984375 126.2364730834961 188.44024658203125 124.34923553466797 186.6553192138672 122.78863525390625 C 185.15086364746094 121.42286682128906 184.11019897460938 120.43824005126953 183.65420532226562 119.99526977539062 C 183.90487670898438 120.17915344238281 184.76107788085938 120.93778228759766 186.0655059814453 122.24983215332031 C 187.51893615722656 124.10494995117188 189.16302490234375 125.97322082519531 191.216552734375 127.16883087158203 C 193.64356994628906 127.23734283447266 195.98878479003906 126.26680755615234 197.83584594726562 124.42576599121094 C 198.79086303710938 121.89995574951172 198.95635986328125 119.21500396728516 198.4980010986328 116.8292007446289 C 197.61175537109375 115.11258697509766 196.4878692626953 114.19741821289062 195.276123046875 114.00431060791016 C 194.08380126953125 114.38291931152344 192.98948669433594 115.2680435180664 191.98849487304688 116.58602905273438 C 191.04966735839844 118.26947021484375 190.14578247070312 120.16285705566406 208.88050842285156 118.35894012451172" stroke-width="0.0" fill="rgb(90, 172, 172)" opacity="0.9997991" stroke="rgb(49, 177, 64)" stroke-opacity="0.05981225" stroke-linecap="round" stroke-linejoin="round"/>
    <path d="M 117.0 351.0 C 118.0 351.0 119.0 351.0 120.0 351.0 C 121.0 351.0 122.0 351.0 123.0 351.0 C 124.0 351.0 125.0 351.0 126.0 351.0 C 127.0 351.0 128.0 351.0 129.0 351.0 C 129.0 352.0 130.0 353.0 130.0 354.0 C 130.0 355.0 130.0 356.0 130.0 357.0 C 130.0 358.0 130.0 359.0 130.0 360.0 C 130.0 361.0 130.0 362.0 130.0 363.0 C 130.0 364.0 131.0 365.0 131.0 366.0 C 131.0 367.0 131.0 368.0 131.0 369.0 C 131.0 370.0 131.0 371.0 131.0 372.0 C 131.0 373.0 131.0 374.0 131.0 375.0 C 132.0 376.0 132.0 377.0 132.0 378.0 C 132.0 379.0 132.0 380.0 132.0 381.0 C 132.0 382.0 132.0 383.0 132.0 384.0 C 132.0 385.0 132.0 386.0 133.0 387.0 C 134.0 388.0 135.0 387.0 136.0 387.0 C 137.0 387.0 137.0 388.0 137.0 389.0 C 137.0 390.0 136.0 391.0 136.0 392.0 C 135.0 393.0 135.0 394.0 135.0 395.0 C 134.0 396.0 134.0 397.0 133.0 398.0 C 133.0 399.0 133.0 400.0 132.0 401.0 C 132.0 402.0 132.0 403.0 131.0 404.0 C 131.0 405.0 130.0 406.0 130.0 407.0 C 129.0 408.0 129.0 409.0 129.0 410.0 C 128.0 411.0 128.0 412.0 128.0 413.0 C 127.0 414.0 127.0 415.0 126.0 416.0 C 126.0 417.0 126.0 418.0 125.0 419.0 C 125.0 420.0 124.0 421.0 124.0 422.0 C 123.0 423.0 122.0 424.0 121.0 425.0 C 120.0 426.0 119.0 427.0 119.0 428.0 C 119.0 429.0 118.0 430.0 118.0 431.0 C 118.0 432.0 117.0 432.0 116.0 432.0 C 115.0 432.0 114.0 432.0 113.0 432.0 C 112.0 432.0 111.0 432.0 110.0 432.0 C 109.0 432.0 108.0 432.0 107.0 432.0 C 106.0 432.0 105.0 432.0 104.0 432.0 C 103.0 432.0 103.0 431.0 102.0 430.0 C 102.0 429.0 102.0 428.0 101.0 427.0 C 101.0 426.0 101.0 425.0 101.0 424.0 C 102.0 423.0 102.0 422.0 103.0 421.0 C 103.0 420.0 103.0 419.0 104.0 418.0 C 104.0 417.0 105.0 416.0 105.0 415.0 C 105.0 414.0 106.0 413.0 106.0 412.0 C 107.0 411.0 107.0 410.0 107.0 409.0 C 108.0 408.0 108.0 407.0 109.0 406.0 C 109.0 405.0 110.0 404.0 111.0 403.0 C 112.0 402.0 112.0 401.0 113.0 400.0 C 113.0 399.0 113.0 398.0 113.0 397.0 C 114.0 396.0 114.0 395.0 114.0 394.0 C 114.0 393.0 114.0 392.0 114.0 391.0 C 113.0 390.0 113.0 389.0 113.0 388.0 C 113.0 387.0 113.0 385.0 114.0 383.0 C 114.0 381.0 116.0 381.0 118.0 383.0 C 120.0 383.0 121.0 381.0 121.0 379.0 C 121.0 377.0 120.0 375.0 120.0 373.0 C 120.0 371.0 119.0 369.0 119.0 367.0 C 119.0 365.0 118.0 363.0 118.0 361.0 C 117.0 359.0 117.0 357.0 117.0 355.0 C 116.0 353.0 116.0 351.0 117.0 351.0" stroke-width="0.0" fill="rgb(254, 254, 254)" opacity="1.0" stroke="rgb(27, 229, 165)" stroke-opacity="0.6468696" stroke-linecap="round" stroke-linejoin="round"/>
    <path d="M 251.0 195.0 C 251.0 196.0 251.0 197.0 251.0 198.0 C 251.0 199.0 251.0 200.0 251.0 201.0 C 252.0 202.0 252.0 203.0 252.0 204.0 C 252.0 205.0 252.0 206.0 253.0 207.0 C 253.0 208.0 253.0 209.0 254.0 210.0 C 254.0 211.0 255.0 212.0 255.0 213.0 C 256.0 214.0 256.0 215.0 257.0 216.0 C 258.0 217.0 259.0 218.0 260.0 219.0 C 260.0 220.0 260.0 221.0 259.0 221.0 C 258.0 221.0 257.0 221.0 256.0 221.0 C 255.0 222.0 254.0 222.0 253.0 222.0 C 252.0 222.0 251.0 222.0 250.0 223.0 C 249.0 223.0 248.0 223.0 247.0 223.0 C 246.0 224.0 245.0 224.0 244.0 224.0 C 243.0 224.0 242.0 225.0 241.0 225.0 C 240.0 225.0 239.0 226.0 239.0 227.0 C 238.0 227.0 237.0 227.0 236.0 227.0 C 235.0 227.0 234.0 226.0 233.0 226.0 C 232.0 226.0 231.0 226.0 230.0 226.0 C 229.0 225.0 228.0 225.0 227.0 225.0 C 226.0 225.0 225.0 225.0 224.0 225.0 C 223.0 225.0 222.0 225.0 221.0 225.0 C 220.0 225.0 219.0 225.0 218.0 225.0 C 217.0 225.0 216.0 225.0 215.0 225.0 C 214.0 225.0 213.0 225.0 212.0 225.0 C 211.0 225.0 210.0 226.0 210.0 225.0 C 210.0 224.0 209.0 223.0 208.0 223.0 C 207.0 223.0 206.0 224.0 206.0 225.0 C 206.0 226.0 205.0 226.0 204.0 227.0 C 203.0 227.0 202.0 227.0 201.0 227.0 C 200.0 227.0 199.0 228.0 198.0 228.0 C 197.0 228.0 197.0 227.0 197.0 226.0 C 196.0 225.0 195.0 225.0 194.0 225.0 C 193.0 225.0 192.0 225.0 191.0 224.0 C 190.0 224.0 189.0 224.0 188.0 224.0 C 187.0 224.0 186.0 224.0 185.0 224.0 C 184.0 224.0 183.0 224.0 183.0 223.0 C 183.0 222.0 184.0 221.0 185.0 221.0 C 186.0 220.0 187.0 220.0 188.0 219.0 C 189.0 218.0 190.0 217.0 191.0 216.0 C 192.0 215.0 193.0 214.0 194.0 213.0 C 195.0 212.0 196.0 211.0 196.0 210.0 C 197.0 209.0 197.0 208.0 198.0 207.0 C 198.0 206.0 199.0 205.0 199.0 204.0 C 200.0 203.0 200.0 202.0 201.0 201.0 C 201.0 200.0 201.0 199.0 201.0 198.0 C 201.0 199.0 201.0 200.0 201.0 201.0 C 201.0 202.0 202.0 203.0 203.0 203.0 C 204.0 203.0 205.0 203.0 206.0 203.0 C 207.0 203.0 208.0 203.0 209.0 203.0 C 210.0 203.0 211.0 203.0 212.0 203.0 C 213.0 203.0 214.0 203.0 215.0 203.0 C 216.0 203.0 217.0 203.0 218.0 203.0 C 219.0 202.0 220.0 202.0 221.0 202.0 C 222.0 202.0 223.0 202.0 225.0 202.0 C 227.0 202.0 229.0 202.0 231.0 202.0 C 233.0 202.0 235.0 201.0 237.0 201.0 C 239.0 200.0 241.0 200.0 243.0 200.0 C 245.0 199.0 247.0 199.0 249.0 198.0 C 251.0 196.0 251.0 194.0 251.0 195.0" stroke-width="0.0" fill="rgb(74, 145, 145)" opacity="1.0" stroke="rgb(73, 242, 10)" stroke-opacity="0.51882267" stroke-linecap="round" stroke-linejoin="round"/>
    <path d="M 166.0 161.0 C 167.0 161.0 168.0 161.0 169.0 161.0 C 170.0 161.0 171.0 161.0 172.0 161.0 C 173.0 161.0 174.0 162.0 175.0 162.0 C 176.0 162.0 177.0 163.0 178.0 163.0 C 179.0 163.0 180.0 164.0 181.0 164.0 C 182.0 165.0 183.0 165.0 184.0 166.0 C 185.0 167.0 186.0 168.0 187.0 169.0 C 188.0 170.0 189.0 171.0 190.0 172.0 C 190.0 173.0 191.0 174.0 192.0 175.0 C 192.0 176.0 192.0 177.0 193.0 178.0 C 193.0 179.0 193.0 180.0 194.0 181.0 C 194.0 182.0 194.0 183.0 194.0 184.0 C 194.0 185.0 195.0 186.0 195.0 187.0 C 195.0 188.0 194.0 189.0 194.0 190.0 C 194.0 191.0 194.0 192.0 194.0 193.0 C 193.0 194.0 193.0 195.0 193.0 196.0 C 192.0 197.0 192.0 198.0 192.0 199.0 C 191.0 200.0 190.0 201.0 190.0 202.0 C 189.0 203.0 188.0 204.0 188.0 205.0 C 187.0 206.0 186.0 207.0 185.0 207.0 C 184.0 208.0 183.0 209.0 182.0 209.0 C 181.0 210.0 180.0 211.0 179.0 211.0 C 178.0 211.0 177.0 212.0 176.0 212.0 C 175.0 212.0 174.0 213.0 173.0 213.0 C 172.0 213.0 171.0 213.0 170.0 213.0 C 169.0 213.0 168.0 213.0 167.0 213.0 C 166.0 213.0 165.0 213.0 164.0 213.0 C 163.0 212.0 162.0 212.0 161.0 212.0 C 160.0 212.0 159.0 211.0 158.0 211.0 C 157.0 211.0 156.0 210.0 155.0 210.0 C 154.0 209.0 153.0 208.0 152.0 207.0 C 151.0 207.0 150.0 206.0 149.0 205.0 C 149.0 204.0 148.0 203.0 147.0 202.0 C 146.0 201.0 146.0 200.0 145.0 199.0 C 145.0 198.0 144.0 197.0 144.0 196.0 C 144.0 195.0 143.0 194.0 143.0 193.0 C 143.0 192.0 143.0 191.0 142.0 190.0 C 142.0 189.0 142.0 188.0 142.0 187.0 C 142.0 186.0 142.0 185.0 143.0 184.0 C 143.0 183.0 143.0 182.0 143.0 181.0 C 143.0 180.0 144.0 179.0 144.0 178.0 C 145.0 177.0 145.0 176.0 145.0 175.0 C 146.0 174.0 147.0 173.0 147.0 172.0 C 148.0 171.0 149.0 170.0 150.0 169.0 C 151.0 168.0 152.0 167.0 153.0 166.0 C 154.0 165.0 155.0 165.0 156.0 164.0 C 157.0 164.0 158.0 163.0 159.0 163.0 C 160.0 162.0 161.0 162.0 162.0 162.0 C 163.0 162.0 164.0 161.0 166.0 161.0" stroke-width="0.0" fill="rgb(255, 255, 255)" opacity="1.0" stroke="rgb(244, 133, 223)" stroke-opacity="0.7680064" stroke-linecap="round" stroke-linejoin="round"/>
    <path d="M 107.0 437.0 C 108.0 437.0 109.0 437.0 110.0 438.0 C 111.0 438.0 112.0 438.0 113.0 438.0 C 114.0 438.0 115.0 439.0 116.0 439.0 C 117.0 439.0 118.0 440.0 119.0 440.0 C 120.0 440.0 121.0 440.0 122.0 441.0 C 123.0 441.0 124.0 442.0 125.0 443.0 C 126.0 443.0 127.0 444.0 128.0 445.0 C 129.0 446.0 130.0 447.0 131.0 448.0 C 132.0 448.0 132.0 449.0 133.0 450.0 C 134.0 451.0 135.0 452.0 135.0 453.0 C 136.0 454.0 137.0 455.0 137.0 456.0 C 137.0 457.0 138.0 458.0 138.0 459.0 C 139.0 460.0 139.0 461.0 139.0 462.0 C 139.0 463.0 139.0 464.0 140.0 465.0 C 140.0 466.0 140.0 467.0 140.0 468.0 C 140.0 469.0 139.0 469.0 138.0 469.0 C 137.0 469.0 136.0 469.0 135.0 469.0 C 134.0 469.0 133.0 469.0 132.0 469.0 C 131.0 469.0 130.0 469.0 129.0 469.0 C 128.0 469.0 127.0 469.0 126.0 469.0 C 125.0 469.0 124.0 469.0 123.0 469.0 C 122.0 469.0 121.0 469.0 120.0 469.0 C 119.0 469.0 118.0 469.0 117.0 469.0 C 116.0 469.0 115.0 469.0 114.0 469.0 C 113.0 469.0 112.0 469.0 111.0 469.0 C 110.0 469.0 109.0 469.0 108.0 469.0 C 107.0 469.0 106.0 468.0 105.0 468.0 C 104.0 468.0 103.0 468.0 102.0 468.0 C 101.0 468.0 100.0 468.0 99.0 468.0 C 98.0 468.0 97.0 468.0 96.0 468.0 C 95.0 468.0 94.0 468.0 93.0 468.0 C 92.0 468.0 91.0 468.0 90.0 468.0 C 89.0 468.0 88.0 468.0 87.0 468.0 C 86.0 468.0 85.0 468.0 84.0 468.0 C 83.0 468.0 82.0 468.0 81.0 469.0 C 80.0 469.0 79.0 469.0 78.0 469.0 C 77.0 469.0 76.0 469.0 75.0 469.0 C 74.0 469.0 73.0 469.0 73.0 468.0 C 73.0 467.0 73.0 466.0 74.0 465.0 C 74.0 464.0 74.0 463.0 75.0 462.0 C 75.0 461.0 76.0 460.0 76.0 459.0 C 77.0 458.0 77.0 457.0 78.0 456.0 C 79.0 455.0 80.0 454.0 80.0 453.0 C 81.0 452.0 82.0 451.0 83.0 450.0 C 84.0 449.0 84.0 448.0 85.0 447.0 C 86.0 446.0 87.0 445.0 88.0 444.0 C 89.0 444.0 90.0 443.0 91.0 442.0 C 92.0 442.0 93.0 441.0 94.0 441.0 C 95.0 440.0 96.0 440.0 97.0 439.0 C 98.0 439.0 99.0 439.0 100.0 438.0 C 101.0 438.0 102.0 438.0 103.0 438.0 C 104.0 438.0 105.0 437.0 107.0 437.0" stroke-width="0.0" fill="rgb(230, 230, 230)" opacity="1.0" stroke="rgb(122, 235, 117)" stroke-opacity="0.44035226" stroke-linecap="round" stroke-linejoin="round"/>
    <path d="M 267.0 176.0 C 268.0 176.0 269.0 176.0 270.0 176.0 C 271.0 176.0 272.0 177.0 273.0 177.0 C 274.0 178.0 275.0 178.0 276.0 179.0 C 276.0 180.0 277.0 181.0 278.0 182.0 C 279.0 183.0 279.0 184.0 279.0 185.0 C 278.0 185.0 277.0 185.0 276.0 184.0 C 275.0 183.0 274.0 182.0 273.0 182.0 C 272.0 181.0 271.0 181.0 270.0 182.0 C 269.0 183.0 269.0 184.0 270.0 185.0 C 270.0 186.0 270.0 187.0 270.0 188.0 C 270.0 189.0 270.0 190.0 270.0 191.0 C 269.0 192.0 269.0 193.0 268.0 194.0 C 267.0 195.0 266.0 195.0 265.0 196.0 C 264.0 196.0 263.0 196.0 262.0 196.0 C 261.0 197.0 261.0 198.0 261.0 199.0 C 261.0 200.0 261.0 201.0 262.0 202.0 C 262.0 203.0 263.0 204.0 264.0 205.0 C 265.0 206.0 266.0 207.0 267.0 208.0 C 268.0 208.0 269.0 208.0 270.0 208.0 C 271.0 208.0 272.0 208.0 273.0 208.0 C 274.0 207.0 274.0 206.0 274.0 205.0 C 274.0 204.0 274.0 203.0 275.0 203.0 C 276.0 203.0 277.0 204.0 278.0 204.0 C 279.0 204.0 279.0 205.0 279.0 206.0 C 279.0 207.0 278.0 208.0 277.0 209.0 C 277.0 210.0 276.0 211.0 275.0 212.0 C 274.0 212.0 273.0 213.0 272.0 213.0 C 271.0 213.0 270.0 214.0 269.0 214.0 C 268.0 214.0 267.0 214.0 266.0 214.0 C 265.0 213.0 264.0 213.0 263.0 212.0 C 262.0 212.0 261.0 211.0 260.0 210.0 C 259.0 209.0 258.0 208.0 258.0 207.0 C 257.0 206.0 257.0 205.0 256.0 204.0 C 256.0 203.0 256.0 202.0 255.0 201.0 C 255.0 200.0 255.0 199.0 255.0 198.0 C 255.0 197.0 255.0 196.0 255.0 195.0 C 255.0 194.0 255.0 193.0 255.0 192.0 C 255.0 191.0 255.0 190.0 255.0 189.0 C 255.0 188.0 256.0 187.0 256.0 186.0 C 257.0 185.0 257.0 184.0 258.0 183.0 C 258.0 182.0 259.0 181.0 260.0 180.0 C 261.0 179.0 262.0 178.0 263.0 177.0 C 264.0 177.0 265.0 176.0 267.0 176.0" stroke-width="0.0" fill="rgb(255, 255, 255)" opacity="1.0" stroke="rgb(131, 10, 151)" stroke-opacity="0.9169382" stroke-linecap="round" stroke-linejoin="round"/>
    <path d="M 61.0 473.0 C 62.0 473.0 63.0 473.0 64.0 473.0 C 65.0 473.0 66.0 473.0 67.0 473.0 C 68.0 473.0 69.0 473.0 70.0 473.0 C 71.0 473.0 72.0 473.0 73.0 473.0 C 74.0 473.0 75.0 473.0 76.0 473.0 C 77.0 473.0 78.0 473.0 79.0 473.0 C 80.0 473.0 81.0 473.0 82.0 473.0 C 83.0 473.0 84.0 473.0 85.0 473.0 C 86.0 473.0 87.0 473.0 88.0 473.0 C 89.0 473.0 90.0 473.0 91.0 473.0 C 92.0 473.0 93.0 473.0 94.0 473.0 C 95.0 473.0 96.0 473.0 97.0 473.0 C 98.0 473.0 99.0 473.0 100.0 473.0 C 101.0 473.0 102.0 473.0 103.0 473.0 C 104.0 473.0 105.0 473.0 106.0 473.0 C 107.0 473.0 108.0 473.0 109.0 473.0 C 110.0 473.0 111.0 473.0 112.0 473.0 C 113.0 473.0 114.0 473.0 115.0 473.0 C 116.0 473.0 117.0 473.0 118.0 473.0 C 119.0 473.0 120.0 473.0 121.0 473.0 C 122.0 473.0 123.0 473.0 124.0 473.0 C 125.0 473.0 126.0 473.0 127.0 473.0 C 128.0 473.0 129.0 473.0 130.0 473.0 C 131.0 473.0 132.0 473.0 133.0 473.0 C 134.0 473.0 135.0 473.0 136.0 473.0 C 137.0 473.0 138.0 474.0 139.0 474.0 C 140.0 474.0 141.0 474.0 142.0 474.0 C 143.0 475.0 143.0 476.0 143.0 477.0 C 143.0 478.0 143.0 479.0 143.0 480.0 C 143.0 481.0 142.0 481.0 141.0 481.0 C 140.0 481.0 139.0 481.0 138.0 481.0 C 137.0 481.0 136.0 482.0 135.0 482.0 C 134.0 482.0 133.0 482.0 132.0 482.0 C 131.0 482.0 130.0 482.0 129.0 482.0 C 128.0 482.0 127.0 482.0 126.0 482.0 C 125.0 482.0 124.0 482.0 123.0 482.0 C 122.0 482.0 121.0 482.0 120.0 482.0 C 119.0 482.0 118.0 482.0 117.0 482.0 C 116.0 482.0 115.0 482.0 114.0 482.0 C 113.0 482.0 112.0 482.0 111.0 482.0 C 110.0 482.0 109.0 482.0 108.0 482.0 C 107.0 482.0 106.0 482.0 105.0 482.0 C 104.0 482.0 103.0 482.0 102.0 482.0 C 101.0 482.0 100.0 482.0 99.0 482.0 C 98.0 482.0 97.0 482.0 96.0 482.0 C 95.0 482.0 94.0 482.0 93.0 482.0 C 92.0 482.0 91.0 482.0 90.0 482.0 C 89.0 482.0 88.0 482.0 87.0 482.0 C 86.0 482.0 85.0 482.0 84.0 482.0 C 83.0 482.0 82.0 482.0 81.0 482.0 C 80.0 482.0 79.0 482.0 78.0 482.0 C 77.0 482.0 76.0 482.0 75.0 482.0 C 74.0 482.0 73.0 482.0 72.0 482.0 C 71.0 482.0 70.0 482.0 69.0 482.0 C 67.0 482.0 65.0 482.0 63.0 482.0 C 61.0 482.0 59.0 481.0 57.0 481.0 C 55.0 481.0 53.0 481.0 51.0 481.0 C 51.0 479.0 51.0 477.0 51.0 475.0 C 52.0 474.0 54.0 474.0 56.0 474.0 C 58.0 474.0 60.0 473.0 61.0 473.0" stroke-width="0.0" fill="rgb(229, 229, 229)" opacity="1.0" stroke="rgb(26, 149, 172)" stroke-opacity="0.5280913" stroke-linecap="round" stroke-linejoin="round"/>
    <path d="M 176.0 170.0 C 177.0 170.0 178.0 171.0 179.0 171.0 C 180.0 171.0 181.0 172.0 182.0 172.0 C 183.0 173.0 184.0 174.0 185.0 175.0 C 186.0 176.0 187.0 177.0 188.0 178.0 C 188.0 179.0 188.0 180.0 189.0 181.0 C 189.0 182.0 190.0 183.0 190.0 184.0 C 190.0 185.0 190.0 186.0 190.0 187.0 C 190.0 188.0 190.0 189.0 190.0 190.0 C 190.0 191.0 189.0 192.0 189.0 193.0 C 189.0 194.0 188.0 195.0 187.0 196.0 C 187.0 197.0 186.0 197.0 185.0 197.0 C 184.0 197.0 183.0 197.0 182.0 196.0 C 181.0 196.0 180.0 196.0 179.0 197.0 C 178.0 198.0 177.0 199.0 177.0 200.0 C 177.0 201.0 178.0 202.0 178.0 203.0 C 178.0 204.0 177.0 204.0 176.0 204.0 C 175.0 204.0 174.0 204.0 173.0 204.0 C 172.0 204.0 171.0 204.0 170.0 204.0 C 169.0 204.0 168.0 204.0 167.0 203.0 C 166.0 203.0 165.0 202.0 164.0 202.0 C 163.0 202.0 162.0 201.0 161.0 200.0 C 160.0 199.0 159.0 198.0 158.0 197.0 C 158.0 196.0 157.0 195.0 157.0 194.0 C 157.0 193.0 156.0 192.0 156.0 191.0 C 156.0 190.0 156.0 189.0 157.0 189.0 C 158.0 189.0 159.0 189.0 160.0 189.0 C 161.0 189.0 162.0 189.0 163.0 189.0 C 164.0 189.0 165.0 189.0 166.0 189.0 C 167.0 188.0 168.0 188.0 169.0 187.0 C 170.0 186.0 171.0 185.0 172.0 184.0 C 172.0 183.0 173.0 182.0 173.0 181.0 C 174.0 180.0 174.0 179.0 174.0 178.0 C 174.0 177.0 174.0 176.0 174.0 175.0 C 174.0 174.0 173.0 173.0 173.0 172.0 C 173.0 171.0 173.0 170.0 176.0 170.0" stroke-width="0.0" fill="rgb(229, 229, 229)" opacity="1.0" stroke="rgb(72, 148, 127)" stroke-opacity="0.8310137" stroke-linecap="round" stroke-linejoin="round"/>
    <path d="M 164.0 439.0 C 165.0 439.0 166.0 439.0 167.0 439.0 C 168.0 439.0 169.0 439.0 170.0 439.0 C 171.0 439.0 172.0 439.0 173.0 439.0 C 174.0 440.0 175.0 440.0 176.0 440.0 C 177.0 440.0 178.0 440.0 179.0 441.0 C 180.0 441.0 181.0 442.0 182.0 442.0 C 183.0 443.0 184.0 444.0 185.0 445.0 C 186.0 446.0 187.0 447.0 188.0 448.0 C 188.0 449.0 189.0 450.0 189.0 451.0 C 189.0 452.0 190.0 453.0 190.0 454.0 C 190.0 455.0 189.0 456.0 189.0 457.0 C 188.0 458.0 187.0 459.0 186.0 459.0 C 185.0 460.0 184.0 460.0 183.0 460.0 C 182.0 460.0 181.0 460.0 180.0 461.0 C 179.0 461.0 178.0 461.0 177.0 460.0 C 176.0 460.0 175.0 460.0 174.0 460.0 C 173.0 460.0 172.0 460.0 171.0 460.0 C 170.0 459.0 169.0 459.0 168.0 458.0 C 167.0 458.0 166.0 457.0 165.0 457.0 C 164.0 456.0 163.0 455.0 162.0 455.0 C 161.0 454.0 160.0 453.0 160.0 452.0 C 159.0 451.0 159.0 450.0 158.0 449.0 C 158.0 448.0 158.0 447.0 158.0 446.0 C 158.0 445.0 158.0 444.0 158.0 443.0 C 159.0 442.0 160.0 441.0 161.0 440.0 C 162.0 440.0 163.0 439.0 164.0 439.0" stroke-width="0.0" fill="rgb(210, 210, 210)" opacity="1.0" stroke="rgb(40, 227, 188)" stroke-opacity="0.20521502" stroke-linecap="round" stroke-linejoin="round"/>
  </g>
</svg>
