<?xml version="1.0" ?>
<svg xmlns="http://www.w3.org/2000/svg" version="1.1" width="364" height="490">
  <defs/>
  <g>
    <path d="M 147.0 1.0 C 148.0 1.0 148.0 2.0 148.0 3.0 C 147.0 4.0 147.0 5.0 147.0 6.0 C 147.0 7.0 147.0 8.0 147.0 9.0 C 147.0 10.0 146.0 11.0 146.0 12.0 C 146.0 13.0 146.0 16.0 144.0 29.0 C 153.0 31.0 166.0 28.0 179.0 26.0 C 192.0 24.0 205.0 23.0 218.0 23.0 C 231.0 24.0 244.0 26.0 257.0 28.0 C 270.0 32.0 283.0 36.0 296.0 42.0 C 298.0 52.0 311.0 55.0 318.0 60.0 C 312.0 68.0 325.0 73.0 338.0 77.0 C 332.0 81.0 335.0 87.0 324.0 98.0 C 337.0 103.0 342.0 108.0 329.0 113.0 C 318.0 120.0 325.0 133.0 327.0 144.0 C 314.0 138.0 308.0 148.0 304.0 161.0 C 310.0 171.0 321.0 182.0 326.0 195.0 C 325.0 208.0 320.0 221.0 308.0 232.0 C 295.0 236.0 282.0 242.0 269.0 248.0 C 256.0 252.0 243.0 256.0 247.0 250.0 C 259.0 247.0 248.0 239.0 235.0 233.0 C 222.0 230.0 209.0 230.0 206.0 228.0 C 219.0 227.0 232.0 228.0 245.0 232.0 C 258.0 239.0 267.0 245.0 279.0 238.0 C 282.0 238.0 295.0 228.0 299.0 215.0 C 296.0 202.0 295.0 189.0 296.0 176.0 C 296.0 163.0 295.0 150.0 294.0 137.0 C 288.0 124.0 280.0 129.0 269.0 117.0 C 262.0 122.0 253.0 123.0 240.0 116.0 C 233.0 122.0 224.0 121.0 211.0 112.0 C 203.0 117.0 192.0 115.0 179.0 109.0 C 181.0 122.0 168.0 112.0 155.0 102.0 C 152.0 110.0 146.0 113.0 149.0 126.0 C 140.0 128.0 130.0 128.0 132.0 141.0 C 133.0 154.0 135.0 167.0 125.0 156.0 C 121.0 165.0 120.0 178.0 119.0 191.0 C 117.0 204.0 116.0 217.0 112.0 208.0 C 109.0 195.0 106.0 182.0 101.0 170.0 C 88.0 170.0 75.0 175.0 65.0 187.0 C 62.0 200.0 65.0 213.0 75.0 226.0 C 88.0 231.0 101.0 231.0 113.0 235.0 C 126.0 241.0 139.0 245.0 152.0 247.0 C 165.0 250.0 178.0 252.0 190.0 252.0 C 189.0 261.0 194.0 272.0 196.0 285.0 C 185.0 286.0 173.0 282.0 171.0 273.0 C 172.0 260.0 164.0 254.0 167.0 265.0 C 164.0 278.0 161.0 291.0 154.0 301.0 C 151.0 302.0 142.0 301.0 129.0 295.0 C 124.0 285.0 114.0 278.0 102.0 282.0 C 98.0 289.0 94.0 298.0 87.0 292.0 C 79.0 288.0 84.0 275.0 88.0 262.0 C 95.0 249.0 104.0 236.0 92.0 236.0 C 79.0 233.0 66.0 223.0 59.0 210.0 C 58.0 197.0 62.0 184.0 73.0 171.0 C 86.0 166.0 85.0 153.0 84.0 140.0 C 84.0 127.0 85.0 114.0 86.0 101.0 C 90.0 88.0 96.0 75.0 88.0 69.0 C 85.0 64.0 98.0 58.0 100.0 51.0 C 87.0 44.0 82.0 38.0 95.0 38.0 C 108.0 38.0 121.0 38.0 130.0 27.0 C 138.0 14.0 146.0 1.0 147.0 1.0" stroke-width="0.0" fill="rgb(80, 41, 41)" opacity="1.0" stroke="rgb(34, 115, 167)" stroke-opacity="0.06597448" stroke-linecap="round" stroke-linejoin="round"/>
    <path d="M 169.0 256.0 C 170.0 256.0 171.0 256.0 171.0 257.0 C 171.0 258.0 171.0 259.0 171.0 260.0 C 171.0 261.0 171.0 262.0 171.0 263.0 C 171.0 264.0 171.0 265.0 171.0 266.0 C 171.0 267.0 171.0 268.0 171.0 269.0 C 171.0 270.0 171.0 271.0 170.0 272.0 C 170.0 276.0 171.0 284.0 175.0 288.0 C 171.0 295.0 180.0 297.0 181.0 304.0 C 187.0 308.0 193.0 313.0 202.0 315.0 C 206.0 309.0 203.0 301.0 194.0 297.0 C 185.0 293.0 185.0 287.0 190.0 293.0 C 199.0 297.0 208.0 298.0 216.0 290.0 C 222.0 284.0 228.0 291.0 230.0 299.0 C 239.0 298.0 248.0 293.0 257.0 294.0 C 266.0 300.0 270.0 309.0 261.0 314.0 C 267.0 323.0 270.0 332.0 264.0 337.0 C 256.0 332.0 249.0 329.0 255.0 338.0 C 255.0 347.0 252.0 356.0 243.0 353.0 C 242.0 344.0 234.0 341.0 225.0 341.0 C 216.0 340.0 208.0 335.0 206.0 337.0 C 209.0 346.0 209.0 355.0 202.0 359.0 C 195.0 358.0 193.0 367.0 188.0 376.0 C 179.0 375.0 172.0 376.0 169.0 385.0 C 170.0 394.0 166.0 403.0 162.0 412.0 C 159.0 421.0 161.0 430.0 168.0 433.0 C 177.0 435.0 186.0 439.0 194.0 445.0 C 201.0 454.0 204.0 463.0 207.0 471.0 C 207.0 480.0 204.0 486.0 195.0 486.0 C 186.0 486.0 177.0 486.0 168.0 486.0 C 159.0 486.0 150.0 486.0 141.0 486.0 C 132.0 486.0 123.0 486.0 114.0 486.0 C 105.0 486.0 96.0 486.0 87.0 486.0 C 78.0 486.0 69.0 486.0 60.0 486.0 C 51.0 486.0 46.0 481.0 46.0 472.0 C 50.0 465.0 50.0 456.0 52.0 447.0 C 59.0 439.0 60.0 430.0 66.0 423.0 C 71.0 414.0 75.0 405.0 78.0 396.0 C 82.0 387.0 77.0 387.0 74.0 380.0 C 73.0 371.0 73.0 362.0 72.0 353.0 C 72.0 344.0 75.0 335.0 72.0 326.0 C 72.0 317.0 76.0 311.0 78.0 302.0 C 80.0 293.0 86.0 292.0 89.0 301.0 C 98.0 298.0 99.0 290.0 99.0 282.0 C 107.0 283.0 108.0 292.0 109.0 301.0 C 109.0 310.0 118.0 315.0 127.0 317.0 C 136.0 321.0 145.0 325.0 150.0 329.0 C 155.0 338.0 161.0 337.0 160.0 342.0 C 166.0 349.0 169.0 358.0 166.0 365.0 C 158.0 370.0 164.0 373.0 172.0 366.0 C 173.0 357.0 178.0 350.0 187.0 356.0 C 186.0 365.0 187.0 372.0 192.0 363.0 C 192.0 354.0 186.0 347.0 185.0 339.0 C 193.0 336.0 199.0 344.0 201.0 353.0 C 206.0 350.0 205.0 341.0 198.0 333.0 C 193.0 327.0 191.0 331.0 184.0 325.0 C 177.0 316.0 186.0 315.0 182.0 309.0 C 173.0 308.0 165.0 308.0 166.0 299.0 C 161.0 304.0 156.0 307.0 156.0 298.0 C 161.0 292.0 165.0 283.0 166.0 274.0 C 168.0 265.0 168.0 256.0 169.0 256.0" stroke-width="0.0" fill="rgb(48, 111, 111)" opacity="1.0" stroke="rgb(220, 24, 152)" stroke-opacity="0.60477114" stroke-linecap="round" stroke-linejoin="round"/>
    <path d="M 200.0 34.0 C 201.0 34.0 202.0 34.0 203.0 34.0 C 204.0 34.0 205.0 34.0 206.0 34.0 C 207.0 34.0 208.0 34.0 209.0 34.0 C 210.0 34.0 211.0 34.0 212.0 34.0 C 213.0 34.0 214.0 34.0 215.0 34.0 C 216.0 34.0 217.0 34.0 218.0 34.0 C 219.0 35.0 220.0 35.0 221.0 35.0 C 222.0 35.0 223.0 35.0 224.0 35.0 C 225.0 35.0 226.0 35.0 227.0 35.0 C 228.0 35.0 229.0 35.0 230.0 35.0 C 231.0 35.0 232.0 35.0 233.0 35.0 C 234.0 35.0 235.0 35.0 236.0 36.0 C 237.0 36.0 238.0 36.0 239.0 36.0 C 240.0 36.0 241.0 36.0 242.0 37.0 C 243.0 37.0 244.0 37.0 245.0 37.0 C 246.0 37.0 247.0 38.0 248.0 38.0 C 249.0 38.0 249.0 39.0 249.0 40.0 C 250.0 41.0 251.0 41.0 252.0 41.0 C 253.0 42.0 254.0 43.0 255.0 44.0 C 256.0 45.0 257.0 46.0 258.0 47.0 C 258.0 48.0 258.0 49.0 259.0 50.0 C 259.0 51.0 259.0 52.0 259.0 53.0 C 259.0 54.0 259.0 55.0 259.0 56.0 C 259.0 57.0 259.0 58.0 258.0 59.0 C 258.0 60.0 257.0 61.0 256.0 62.0 C 255.0 63.0 254.0 64.0 254.0 65.0 C 254.0 66.0 253.0 66.0 252.0 66.0 C 251.0 67.0 250.0 67.0 249.0 67.0 C 248.0 67.0 247.0 67.0 246.0 67.0 C 245.0 67.0 244.0 67.0 243.0 67.0 C 242.0 67.0 241.0 67.0 240.0 67.0 C 239.0 67.0 238.0 67.0 237.0 67.0 C 236.0 68.0 235.0 68.0 234.0 68.0 C 233.0 68.0 232.0 68.0 231.0 68.0 C 230.0 68.0 229.0 68.0 228.0 68.0 C 227.0 68.0 226.0 68.0 225.0 68.0 C 224.0 68.0 223.0 68.0 222.0 68.0 C 221.0 68.0 220.0 68.0 219.0 68.0 C 218.0 68.0 217.0 68.0 216.0 68.0 C 215.0 68.0 214.0 68.0 213.0 68.0 C 212.0 68.0 211.0 68.0 210.0 68.0 C 209.0 68.0 208.0 68.0 207.0 68.0 C 206.0 68.0 205.0 68.0 204.0 68.0 C 203.0 68.0 202.0 68.0 201.0 68.0 C 200.0 68.0 199.0 68.0 198.0 68.0 C 197.0 68.0 196.0 68.0 195.0 68.0 C 194.0 68.0 193.0 68.0 192.0 68.0 C 191.0 68.0 190.0 68.0 189.0 68.0 C 188.0 68.0 187.0 68.0 186.0 68.0 C 184.0 68.0 182.0 68.0 181.0 67.0 C 180.0 65.0 178.0 65.0 176.0 63.0 C 174.0 61.0 173.0 60.0 171.0 58.0 C 169.0 56.0 168.0 54.0 168.0 52.0 C 168.0 50.0 168.0 48.0 169.0 46.0 C 170.0 44.0 172.0 42.0 174.0 40.0 C 174.0 38.0 175.0 37.0 177.0 37.0 C 179.0 36.0 181.0 36.0 183.0 36.0 C 185.0 36.0 187.0 35.0 189.0 35.0 C 191.0 35.0 193.0 35.0 195.0 35.0 C 197.0 35.0 199.0 34.0 200.0 34.0" stroke-width="0.0" fill="rgb(128, 64, 64)" opacity="1.0" stroke="rgb(120, 5, 132)" stroke-opacity="0.43978372" stroke-linecap="round" stroke-linejoin="round"/>
    <path d="M 160.0 109.0 C 161.0 109.0 162.0 110.0 163.0 111.0 C 164.0 112.0 165.0 113.0 166.0 113.0 C 167.0 114.0 168.0 115.0 169.0 116.0 C 170.0 117.0 171.0 118.0 172.0 119.0 C 173.0 120.0 174.0 120.0 175.0 121.0 C 176.0 122.0 177.0 123.0 178.0 124.0 C 179.0 125.0 180.0 125.0 181.0 126.0 C 182.0 126.0 183.0 125.0 184.0 124.0 C 184.0 123.0 184.0 122.0 184.0 121.0 C 184.0 120.0 183.0 119.0 183.0 118.0 C 183.0 117.0 183.0 116.0 183.0 115.0 C 183.0 114.0 184.0 114.0 185.0 114.0 C 186.0 114.0 187.0 115.0 188.0 116.0 C 189.0 116.0 190.0 117.0 191.0 117.0 C 192.0 118.0 193.0 119.0 194.0 119.0 C 195.0 120.0 196.0 121.0 198.0 121.0 C 200.0 125.0 196.0 126.0 192.0 127.0 C 188.0 129.0 184.0 132.0 180.0 136.0 C 177.0 139.0 174.0 143.0 175.0 147.0 C 179.0 149.0 183.0 150.0 187.0 152.0 C 191.0 155.0 195.0 159.0 198.0 162.0 C 202.0 165.0 206.0 165.0 210.0 163.0 C 214.0 164.0 218.0 163.0 222.0 162.0 C 226.0 161.0 228.0 158.0 231.0 160.0 C 232.0 158.0 234.0 158.0 236.0 154.0 C 239.0 150.0 240.0 146.0 240.0 142.0 C 239.0 138.0 237.0 134.0 233.0 131.0 C 234.0 128.0 236.0 124.0 236.0 120.0 C 239.0 118.0 243.0 120.0 247.0 122.0 C 251.0 125.0 255.0 127.0 259.0 129.0 C 262.0 126.0 263.0 122.0 264.0 118.0 C 266.0 116.0 269.0 119.0 273.0 123.0 C 274.0 125.0 270.0 121.0 267.0 117.0 C 264.0 119.0 263.0 123.0 263.0 127.0 C 266.0 130.0 269.0 134.0 270.0 138.0 C 273.0 140.0 270.0 143.0 270.0 147.0 C 272.0 150.0 269.0 152.0 268.0 152.0 C 264.0 149.0 260.0 146.0 256.0 144.0 C 252.0 145.0 249.0 149.0 248.0 153.0 C 248.0 157.0 248.0 161.0 248.0 165.0 C 250.0 169.0 253.0 170.0 257.0 167.0 C 261.0 164.0 263.0 164.0 260.0 168.0 C 262.0 171.0 260.0 171.0 256.0 171.0 C 253.0 174.0 249.0 176.0 245.0 178.0 C 241.0 180.0 239.0 183.0 239.0 183.0 C 236.0 181.0 232.0 182.0 228.0 183.0 C 224.0 183.0 220.0 183.0 217.0 184.0 C 213.0 184.0 209.0 183.0 205.0 184.0 C 204.0 188.0 204.0 192.0 204.0 194.0 C 204.0 190.0 204.0 186.0 203.0 182.0 C 202.0 178.0 201.0 174.0 198.0 171.0 C 196.0 168.0 194.0 164.0 190.0 160.0 C 187.0 158.0 183.0 155.0 180.0 155.0 C 178.0 153.0 174.0 152.0 170.0 151.0 C 166.0 151.0 167.0 147.0 170.0 145.0 C 169.0 141.0 165.0 138.0 161.0 139.0 C 157.0 139.0 156.0 135.0 153.0 131.0 C 151.0 127.0 149.0 124.0 150.0 120.0 C 151.0 116.0 153.0 115.0 157.0 116.0 C 160.0 113.0 159.0 109.0 160.0 109.0" stroke-width="0.0" fill="rgb(84, 161, 161)" opacity="1.0" stroke="rgb(64, 46, 95)" stroke-opacity="0.039746523" stroke-linecap="round" stroke-linejoin="round"/>
    <path d="M 92.0 174.0 C 93.0 174.0 94.0 174.0 95.0 174.0 C 98.0 174.0 101.0 175.0 104.0 175.0 C 105.0 178.0 105.0 181.0 106.0 183.0 C 106.0 186.0 107.0 189.0 108.0 192.0 C 108.0 195.0 109.0 198.0 110.0 201.0 C 110.0 204.0 111.0 207.0 112.0 210.0 C 112.0 213.0 113.0 216.0 114.0 219.0 C 117.0 218.0 117.0 215.0 118.0 212.0 C 118.0 209.0 118.0 206.0 119.0 203.0 C 119.0 200.0 119.0 197.0 119.0 194.0 C 120.0 191.0 122.0 192.0 123.0 195.0 C 126.0 198.0 127.0 201.0 128.0 204.0 C 129.0 207.0 131.0 210.0 133.0 213.0 C 135.0 216.0 138.0 219.0 141.0 222.0 C 144.0 224.0 147.0 226.0 150.0 227.0 C 153.0 228.0 156.0 229.0 159.0 229.0 C 162.0 230.0 165.0 230.0 168.0 230.0 C 171.0 229.0 174.0 229.0 177.0 228.0 C 180.0 227.0 183.0 225.0 186.0 225.0 C 189.0 225.0 192.0 226.0 191.0 228.0 C 188.0 229.0 185.0 231.0 182.0 232.0 C 179.0 234.0 176.0 236.0 177.0 238.0 C 180.0 236.0 183.0 235.0 186.0 233.0 C 189.0 232.0 192.0 231.0 195.0 230.0 C 198.0 229.0 201.0 229.0 202.0 232.0 C 205.0 232.0 208.0 231.0 211.0 231.0 C 214.0 231.0 217.0 231.0 220.0 231.0 C 223.0 231.0 226.0 232.0 229.0 232.0 C 232.0 233.0 235.0 234.0 238.0 235.0 C 241.0 236.0 244.0 237.0 247.0 239.0 C 250.0 241.0 253.0 243.0 255.0 246.0 C 253.0 248.0 250.0 248.0 247.0 248.0 C 247.0 245.0 246.0 242.0 243.0 241.0 C 240.0 240.0 237.0 239.0 234.0 238.0 C 231.0 237.0 228.0 237.0 225.0 236.0 C 222.0 236.0 219.0 236.0 216.0 235.0 C 213.0 234.0 210.0 234.0 207.0 235.0 C 204.0 235.0 201.0 236.0 198.0 237.0 C 196.0 239.0 193.0 240.0 190.0 241.0 C 187.0 242.0 186.0 245.0 187.0 248.0 C 186.0 250.0 184.0 252.0 181.0 252.0 C 178.0 251.0 175.0 250.0 172.0 250.0 C 169.0 249.0 166.0 249.0 163.0 248.0 C 160.0 248.0 157.0 247.0 154.0 247.0 C 151.0 246.0 148.0 246.0 145.0 245.0 C 142.0 244.0 139.0 244.0 136.0 243.0 C 133.0 242.0 130.0 241.0 127.0 240.0 C 124.0 239.0 121.0 238.0 118.0 237.0 C 115.0 235.0 112.0 233.0 109.0 231.0 C 107.0 228.0 104.0 228.0 101.0 230.0 C 98.0 230.0 95.0 231.0 92.0 231.0 C 89.0 231.0 86.0 230.0 84.0 228.0 C 81.0 228.0 78.0 227.0 75.0 225.0 C 72.0 222.0 69.0 219.0 67.0 216.0 C 66.0 213.0 64.0 210.0 65.0 207.0 C 65.0 204.0 65.0 201.0 66.0 198.0 C 67.0 195.0 68.0 192.0 69.0 189.0 C 71.0 186.0 73.0 183.0 76.0 181.0 C 79.0 179.0 82.0 177.0 85.0 176.0 C 88.0 175.0 91.0 174.0 92.0 174.0" stroke-width="0.0" fill="rgb(60, 117, 117)" opacity="1.0" stroke="rgb(176, 234, 208)" stroke-opacity="0.5115529" stroke-linecap="round" stroke-linejoin="round"/>
    <path d="M 137.0 64.0 C 138.0 64.0 139.0 64.0 140.0 65.0 C 141.0 65.0 142.0 65.0 143.0 65.0 C 144.0 65.0 145.0 65.0 146.0 66.0 C 147.0 66.0 148.0 66.0 149.0 66.0 C 150.0 66.0 151.0 66.0 152.0 66.0 C 153.0 67.0 154.0 67.0 155.0 67.0 C 156.0 67.0 157.0 67.0 158.0 67.0 C 159.0 67.0 160.0 67.0 161.0 68.0 C 162.0 68.0 163.0 68.0 164.0 68.0 C 165.0 68.0 166.0 68.0 167.0 68.0 C 168.0 68.0 169.0 68.0 170.0 68.0 C 171.0 68.0 172.0 68.0 173.0 68.0 C 174.0 68.0 175.0 68.0 176.0 68.0 C 177.0 68.0 177.0 69.0 178.0 70.0 C 179.0 70.0 180.0 70.0 181.0 69.0 C 182.0 69.0 183.0 69.0 184.0 69.0 C 185.0 69.0 186.0 69.0 187.0 69.0 C 188.0 69.0 189.0 69.0 190.0 69.0 C 191.0 69.0 192.0 69.0 193.0 69.0 C 194.0 69.0 195.0 69.0 196.0 69.0 C 197.0 69.0 198.0 69.0 199.0 69.0 C 200.0 69.0 201.0 69.0 202.0 69.0 C 203.0 69.0 204.0 69.0 205.0 69.0 C 206.0 69.0 207.0 69.0 208.0 69.0 C 209.0 69.0 210.0 69.0 211.0 69.0 C 212.0 69.0 213.0 69.0 215.0 69.0 C 218.0 69.0 221.0 69.0 224.0 69.0 C 227.0 69.0 230.0 69.0 233.0 69.0 C 236.0 69.0 239.0 68.0 242.0 68.0 C 245.0 68.0 248.0 68.0 251.0 68.0 C 254.0 67.0 257.0 67.0 260.0 67.0 C 263.0 67.0 266.0 66.0 269.0 65.0 C 272.0 65.0 275.0 65.0 278.0 64.0 C 281.0 64.0 284.0 64.0 287.0 65.0 C 290.0 66.0 293.0 66.0 296.0 68.0 C 299.0 69.0 302.0 71.0 305.0 71.0 C 308.0 72.0 311.0 73.0 310.0 75.0 C 307.0 75.0 304.0 74.0 301.0 74.0 C 298.0 75.0 295.0 76.0 292.0 76.0 C 289.0 77.0 287.0 78.0 284.0 79.0 C 281.0 80.0 278.0 81.0 275.0 81.0 C 272.0 82.0 269.0 82.0 266.0 83.0 C 263.0 84.0 260.0 83.0 257.0 83.0 C 255.0 85.0 252.0 85.0 249.0 85.0 C 246.0 86.0 243.0 86.0 240.0 87.0 C 237.0 87.0 234.0 87.0 231.0 86.0 C 228.0 84.0 225.0 85.0 224.0 88.0 C 221.0 88.0 218.0 88.0 215.0 88.0 C 213.0 85.0 212.0 82.0 210.0 79.0 C 208.0 76.0 206.0 73.0 203.0 74.0 C 202.0 77.0 200.0 80.0 198.0 83.0 C 197.0 86.0 194.0 88.0 191.0 88.0 C 188.0 87.0 185.0 87.0 182.0 86.0 C 179.0 83.0 176.0 80.0 173.0 78.0 C 170.0 75.0 167.0 72.0 164.0 73.0 C 164.0 76.0 164.0 79.0 164.0 82.0 C 164.0 85.0 161.0 85.0 158.0 83.0 C 155.0 80.0 152.0 78.0 149.0 76.0 C 146.0 73.0 143.0 71.0 140.0 69.0 C 137.0 66.0 136.0 64.0 137.0 64.0" stroke-width="0.0" fill="rgb(155, 80, 80)" opacity="1.0" stroke="rgb(83, 99, 25)" stroke-opacity="0.13336" stroke-linecap="round" stroke-linejoin="round"/>
    <path d="M 266.0 118.0 C 267.0 118.0 267.0 119.0 268.0 120.0 C 269.0 121.0 270.0 122.0 271.0 123.0 C 272.0 124.0 273.0 125.0 274.0 126.0 C 275.0 127.0 276.0 127.0 277.0 128.0 C 278.0 129.0 279.0 130.0 280.0 130.0 C 281.0 130.0 282.0 129.0 282.0 128.0 C 282.0 127.0 282.0 126.0 283.0 125.0 C 283.0 124.0 283.0 123.0 284.0 123.0 C 285.0 123.0 286.0 123.0 287.0 124.0 C 288.0 125.0 289.0 126.0 289.0 127.0 C 290.0 128.0 291.0 129.0 292.0 130.0 C 293.0 131.0 293.0 132.0 293.0 133.0 C 293.0 134.0 293.0 135.0 293.0 136.0 C 293.0 137.0 293.0 138.0 293.0 140.0 C 294.0 145.0 294.0 150.0 294.0 155.0 C 295.0 160.0 295.0 165.0 295.0 170.0 C 295.0 175.0 294.0 180.0 294.0 185.0 C 294.0 190.0 294.0 195.0 295.0 200.0 C 296.0 205.0 297.0 210.0 298.0 215.0 C 298.0 220.0 296.0 225.0 292.0 230.0 C 287.0 234.0 282.0 236.0 279.0 232.0 C 276.0 235.0 277.0 240.0 272.0 242.0 C 267.0 244.0 262.0 244.0 260.0 240.0 C 255.0 236.0 250.0 233.0 245.0 231.0 C 240.0 229.0 235.0 228.0 230.0 227.0 C 225.0 226.0 220.0 226.0 215.0 226.0 C 210.0 227.0 205.0 228.0 200.0 228.0 C 195.0 229.0 193.0 226.0 188.0 224.0 C 183.0 224.0 178.0 226.0 173.0 228.0 C 168.0 229.0 163.0 229.0 158.0 228.0 C 153.0 227.0 148.0 225.0 143.0 222.0 C 138.0 218.0 134.0 213.0 130.0 208.0 C 129.0 203.0 127.0 198.0 123.0 193.0 C 120.0 190.0 120.0 185.0 120.0 180.0 C 121.0 175.0 121.0 170.0 122.0 165.0 C 122.0 160.0 124.0 157.0 128.0 161.0 C 131.0 166.0 136.0 167.0 135.0 162.0 C 135.0 157.0 134.0 152.0 134.0 147.0 C 133.0 142.0 132.0 137.0 132.0 132.0 C 131.0 127.0 135.0 127.0 140.0 129.0 C 145.0 131.0 150.0 131.0 154.0 134.0 C 156.0 139.0 161.0 140.0 166.0 139.0 C 169.0 144.0 166.0 148.0 167.0 152.0 C 172.0 152.0 177.0 154.0 181.0 156.0 C 186.0 158.0 190.0 161.0 195.0 166.0 C 197.0 170.0 200.0 174.0 201.0 179.0 C 202.0 184.0 203.0 189.0 203.0 194.0 C 205.0 193.0 205.0 188.0 207.0 185.0 C 212.0 185.0 217.0 185.0 221.0 184.0 C 226.0 184.0 231.0 183.0 236.0 182.0 C 238.0 185.0 240.0 182.0 244.0 179.0 C 249.0 177.0 254.0 174.0 258.0 171.0 C 261.0 173.0 261.0 169.0 264.0 165.0 C 261.0 163.0 256.0 167.0 251.0 169.0 C 249.0 164.0 249.0 159.0 249.0 154.0 C 250.0 149.0 254.0 145.0 259.0 146.0 C 264.0 150.0 268.0 154.0 271.0 152.0 C 271.0 149.0 271.0 144.0 274.0 140.0 C 271.0 137.0 268.0 132.0 265.0 127.0 C 264.0 123.0 265.0 118.0 266.0 118.0" stroke-width="0.0" fill="rgb(50, 97, 97)" opacity="1.0" stroke="rgb(4, 170, 158)" stroke-opacity="0.113241784" stroke-linecap="round" stroke-linejoin="round"/>
    <path d="M 212.0 125.0 C 213.0 125.0 214.0 126.0 215.0 126.0 C 216.0 126.0 217.0 126.0 218.0 126.0 C 219.0 127.0 220.0 127.0 221.0 127.0 C 222.0 128.0 223.0 128.0 224.0 128.0 C 225.0 128.0 226.0 129.0 227.0 129.0 C 228.0 130.0 229.0 130.0 230.0 131.0 C 231.0 131.0 232.0 131.0 233.0 132.0 C 234.0 133.0 235.0 133.0 236.0 134.0 C 236.0 135.0 237.0 136.0 237.0 137.0 C 238.0 138.0 238.0 139.0 238.0 140.0 C 239.0 141.0 239.0 142.0 239.0 143.0 C 239.0 144.0 239.0 145.0 239.0 146.0 C 239.0 147.0 239.0 148.0 239.0 149.0 C 238.0 150.0 237.0 151.0 237.0 152.0 C 236.0 153.0 235.0 154.0 234.0 155.0 C 233.0 156.0 232.0 156.0 231.0 155.0 C 230.0 154.0 229.0 154.0 228.0 155.0 C 228.0 156.0 228.0 157.0 227.0 157.0 C 226.0 158.0 225.0 159.0 225.0 160.0 C 225.0 161.0 224.0 161.0 223.0 161.0 C 222.0 161.0 221.0 162.0 220.0 162.0 C 219.0 162.0 218.0 162.0 217.0 162.0 C 216.0 162.0 215.0 163.0 214.0 163.0 C 213.0 163.0 212.0 163.0 211.0 163.0 C 210.0 162.0 209.0 162.0 208.0 162.0 C 207.0 163.0 206.0 164.0 205.0 165.0 C 204.0 165.0 203.0 165.0 202.0 164.0 C 201.0 164.0 200.0 163.0 199.0 162.0 C 198.0 161.0 197.0 161.0 197.0 160.0 C 196.0 159.0 195.0 158.0 195.0 157.0 C 195.0 156.0 195.0 155.0 194.0 154.0 C 193.0 154.0 192.0 154.0 191.0 154.0 C 190.0 153.0 189.0 152.0 188.0 152.0 C 187.0 151.0 186.0 151.0 185.0 150.0 C 184.0 150.0 183.0 149.0 182.0 149.0 C 181.0 149.0 180.0 148.0 179.0 148.0 C 178.0 147.0 177.0 147.0 176.0 146.0 C 175.0 146.0 175.0 145.0 175.0 144.0 C 175.0 143.0 175.0 142.0 176.0 141.0 C 177.0 140.0 178.0 139.0 178.0 138.0 C 179.0 138.0 180.0 137.0 181.0 136.0 C 182.0 136.0 183.0 136.0 184.0 135.0 C 184.0 134.0 184.0 133.0 185.0 133.0 C 186.0 133.0 187.0 133.0 188.0 133.0 C 189.0 132.0 189.0 131.0 190.0 131.0 C 191.0 130.0 192.0 130.0 193.0 130.0 C 194.0 129.0 195.0 129.0 196.0 128.0 C 196.0 127.0 197.0 127.0 198.0 127.0 C 199.0 127.0 200.0 128.0 201.0 127.0 C 202.0 127.0 203.0 127.0 204.0 127.0 C 205.0 126.0 206.0 126.0 207.0 126.0 C 208.0 126.0 209.0 125.0 212.0 125.0" stroke-width="0.0" fill="rgb(90, 173, 173)" opacity="1.0" stroke="rgb(49, 177, 64)" stroke-opacity="0.05981225" stroke-linecap="round" stroke-linejoin="round"/>
  </g>
</svg>
