<?xml version="1.0" ?>
<svg xmlns="http://www.w3.org/2000/svg" version="1.1" width="438" height="481">
  <defs/>
  <g>
    <path d="M 260.514892578125 69.17930603027344 C 269.65826416015625 69.1901626586914 278.11724853515625 70.39933776855469 286.7344665527344 71.55916595458984 C 295.7027282714844 72.8787841796875 305.39984130859375 74.46253967285156 316.0273132324219 77.05020141601562 C 327.9089050292969 79.98806762695312 340.9162292480469 84.3048324584961 355.2887878417969 90.09295654296875 C 369.51116943359375 99.28617858886719 385.0309143066406 109.40360260009766 401.0254821777344 119.90729522705078 C 415.9179382324219 131.1945037841797 428.8303527832031 142.4514923095703 438.2078552246094 154.35191345214844 C 439.6955871582031 167.3721160888672 436.304931640625 179.31256103515625 428.0603332519531 189.771484375 C 417.91644287109375 199.1764678955078 405.7373962402344 206.07815551757812 392.9029235839844 210.76100158691406 C 381.83062744140625 216.69384765625 371.9416809082031 222.58316040039062 363.6437072753906 229.27369689941406 C 356.4601745605469 236.4594268798828 348.2350769042969 243.4694366455078 340.9599609375 252.1225128173828 C 336.0939636230469 263.612060546875 331.8724365234375 277.1477355957031 327.0304870605469 292.29620361328125 C 320.822998046875 309.058349609375 311.5895080566406 323.5523986816406 301.5049133300781 339.2854309082031 C 291.1612548828125 354.6277160644531 280.6991271972656 367.5564880371094 271.99017333984375 380.83782958984375 C 265.72503662109375 393.8292541503906 259.9075012207031 403.4937438964844 253.26315307617188 410.4919738769531 C 248.39785766601562 416.5287780761719 244.75479125976562 421.9879150390625 242.0978546142578 427.8201599121094 C 240.38455200195312 434.31585693359375 238.6918182373047 441.0782775878906 236.51458740234375 447.184326171875 C 233.66213989257812 451.2847595214844 230.36276245117188 452.1402893066406 227.15504455566406 449.1342468261719 C 223.7903289794922 441.8450622558594 220.82569885253906 431.4350280761719 219.83474731445312 418.0302429199219 C 218.4183807373047 403.1894226074219 215.14588928222656 388.059814453125 213.02137756347656 373.4984436035156 C 207.85267639160156 362.0382995605469 204.5465087890625 353.230224609375 209.02615356445312 346.94183349609375 C 220.3885040283203 340.8905029296875 236.1527862548828 336.5020751953125 252.7532501220703 331.7253112792969 C 266.6943664550781 326.2520751953125 275.66363525390625 320.21002197265625 276.947021484375 312.651123046875 C 269.61614990234375 310.64739990234375 257.1623840332031 311.0662536621094 241.22314453125 312.3283386230469 C 224.19622802734375 315.0425109863281 208.2067108154297 319.10455322265625 195.16690063476562 324.5500183105469 C 188.04249572753906 333.1412353515625 183.300537109375 341.9703063964844 177.1855926513672 347.69525146484375 C 167.07276916503906 347.7345275878906 155.96884155273438 347.00897216796875 145.7882080078125 349.39544677734375 C 138.9562530517578 357.48907470703125 134.9127655029297 367.84014892578125 134.87623596191406 379.986083984375 C 138.98843383789062 391.6343078613281 141.7685546875 403.15228271484375 138.6777801513672 415.62445068359375 C 136.2671661376953 429.8610534667969 133.3430633544922 444.578125 131.6763458251953 459.5550842285156 C 130.47703552246094 473.0262451171875 121.89669799804688 483.34344482421875 110.3967056274414 490.1823425292969 C 95.91036224365234 494.4814147949219 79.39982604980469 496.2705993652344 61.76873016357422 495.4810791015625 C 44.123069763183594 492.39471435546875 27.757915496826172 487.4248046875 14.153264999389648 480.8113098144531 C 4.291296482086182 473.35906982421875 -0.5753450393676758 465.3295593261719 0.2302614003419876 457.107666015625 C 6.010416030883789 449.4058532714844 14.38857364654541 442.70050048828125 23.346446990966797 436.8360900878906 C 31.401885986328125 431.7315979003906 36.62992858886719 426.9672546386719 38.51005172729492 422.5163269042969 C 35.59019470214844 418.3616943359375 29.860687255859375 414.4835510253906 23.03493881225586 410.6556701660156 C 16.924293518066406 406.7671813964844 13.208433151245117 403.0843811035156 12.89234447479248 399.7074279785156 C 16.35224151611328 396.83465576171875 23.188257217407227 394.1012268066406 32.707523345947266 391.49761962890625 C 43.28798294067383 387.56109619140625 54.35519027709961 383.2550354003906 64.79022216796875 380.0174255371094 C 72.81352996826172 371.69403076171875 78.5758056640625 364.1222229003906 81.81983184814453 356.6185607910156 C 84.7261734008789 351.6561584472656 84.49113464355469 348.5057067871094 80.12741088867188 347.4853515625 C 71.54580688476562 347.3908996582031 59.53894805908203 348.4861755371094 44.97263717651367 349.7466735839844 C 30.158958435058594 354.58990478515625 16.81545639038086 358.8943786621094 5.25623083114624 361.7794189453125 C -2.1733429431915283 358.745849609375 -6.5299248695373535 350.4734191894531 -8.701480865478516 338.37811279296875 C -9.433440208435059 323.6079406738281 -9.10041618347168 306.9946594238281 -8.015182495117188 289.4069519042969 C -6.3376617431640625 271.7729187011719 -3.9040839672088623 254.5821990966797 -0.474447637796402 238.59378051757812 C 4.715887546539307 224.48089599609375 11.60715103149414 212.60906982421875 21.215456008911133 203.6929931640625 C 33.68509292602539 198.0948944091797 48.202232360839844 194.67178344726562 62.86117172241211 190.39337158203125 C 77.08135986328125 182.884521484375 89.06522369384766 172.47726440429688 97.926025390625 158.7463836669922 C 103.74498748779297 143.22918701171875 106.83658599853516 127.13346862792969 111.50265502929688 113.57192993164062 C 115.06468963623047 103.28618621826172 118.16402435302734 98.19281768798828 119.83135986328125 99.47860717773438 C 117.32781219482422 106.38259887695312 113.3681869506836 116.58951568603516 110.77131652832031 128.79373168945312 C 112.06851959228516 141.22938537597656 116.81602478027344 151.58029174804688 124.88160705566406 158.2183074951172 C 135.57415771484375 159.4453582763672 147.67605590820312 155.60003662109375 161.2983856201172 148.8398895263672 C 174.2186737060547 139.50759887695312 187.03097534179688 128.3726806640625 201.54019165039062 120.22337341308594 C 218.8626251220703 117.85970306396484 236.4649200439453 114.9036636352539 252.997314453125 110.19217681884766 C 267.55023193359375 102.99451446533203 279.9573974609375 95.56309509277344 290.2355651855469 90.24996185302734 C 298.54962158203125 88.48375701904297 304.2348327636719 88.52682495117188 307.2196044921875 89.06249237060547 C 307.25537109375 89.61807250976562 305.1337585449219 89.42558288574219 301.5339660644531 88.97810363769531 C 297.57037353515625 88.29735565185547 294.03741455078125 86.26660919189453 291.6265563964844 83.22225952148438 C 290.5645751953125 79.62115478515625 289.9696350097656 75.96977233886719 260.514892578125 69.17930603027344" stroke-width="0.0" fill="rgb(4, 2, 8)" opacity="0.99999434" stroke="rgb(132, 37, 73)" stroke-opacity="0.69533926" stroke-linecap="round" stroke-linejoin="round"/>
    <path d="M 437.5065612792969 290.3711853027344 C 439.52056884765625 292.1471862792969 440.4922790527344 293.5236511230469 441.280517578125 294.8327331542969 C 441.91021728515625 296.0225830078125 442.3962707519531 297.064453125 442.7982482910156 298.10888671875 C 443.0993347167969 299.1298828125 443.3670959472656 300.0885009765625 443.65673828125 301.07659912109375 C 443.8791198730469 302.1162414550781 444.0672607421875 303.16119384765625 444.2951965332031 304.1911926269531 C 444.52685546875 305.2503356933594 444.68359375 306.1944274902344 444.8350830078125 307.0367736816406 C 445.0119934082031 307.83099365234375 445.1837463378906 308.5086975097656 445.3106994628906 309.0765075683594 C 445.4432067871094 309.6978454589844 445.60345458984375 310.46820068359375 445.74700927734375 311.47235107421875 C 445.8904113769531 312.89129638671875 446.0328063964844 314.8451232910156 446.19976806640625 317.4856262207031 C 446.38824462890625 320.9167785644531 446.54473876953125 325.14208984375 446.5976257324219 330.18939208984375 C 446.6181945800781 335.9621276855469 446.6073913574219 342.3554382324219 446.5313415527344 349.19873046875 C 446.3857421875 356.40887451171875 446.2452392578125 363.81781005859375 446.1451110839844 371.251953125 C 446.07037353515625 378.66082763671875 446.0632629394531 385.9513244628906 446.1089172363281 393.06890869140625 C 446.2105712890625 400.04736328125 446.3570861816406 406.978271484375 446.5062255859375 413.9441223144531 C 446.6528625488281 421.0384826660156 446.7208557128906 428.3822326660156 446.6141052246094 435.99774169921875 C 446.20648193359375 443.8972473144531 445.46466064453125 451.9591064453125 444.2113952636719 459.89898681640625 C 442.3063049316406 467.4844055175781 439.6114807128906 474.2368469238281 437.1439514160156 480.82928466796875 C 430.7774353027344 482.7223205566406 425.38201904296875 483.65045166015625 419.9921875 483.1154479980469 C 414.8812255859375 479.6211242675781 411.4982604980469 474.037353515625 408.99041748046875 466.64044189453125 C 410.1197204589844 458.2767028808594 410.5839538574219 450.31024169921875 410.9444274902344 443.6441955566406 C 407.6800537109375 440.18524169921875 403.7585144042969 439.0094909667969 400.0597839355469 440.31787109375 C 398.72637939453125 445.2937316894531 398.2342834472656 452.2448425292969 397.7791442871094 460.22235107421875 C 398.3794860839844 468.2164306640625 398.17462158203125 475.5888977050781 395.6021423339844 481.54974365234375 C 388.8636169433594 484.7969055175781 382.2345275878906 487.3489990234375 374.8772888183594 488.791259765625 C 367.11041259765625 489.32537841796875 359.16943359375 489.2868957519531 351.3210144042969 488.9765625 C 343.6447448730469 488.5772399902344 336.1393127441406 488.1822509765625 328.7908630371094 487.82928466796875 C 321.6722717285156 487.5770568847656 314.704345703125 487.47210693359375 307.7886047363281 487.44879150390625 C 300.9798889160156 487.49847412109375 294.2352294921875 487.6198425292969 287.4152526855469 487.7483215332031 C 280.4630432128906 487.9634094238281 273.3137512207031 488.2571716308594 265.9759826660156 488.5794372558594 C 258.4070739746094 488.9653015136719 250.62380981445312 489.3313293457031 242.7867889404297 489.47796630859375 C 234.9426727294922 489.25311279296875 227.3289794921875 488.52459716796875 220.30105590820312 487.1139221191406 C 214.06430053710938 484.9103698730469 208.909423828125 481.5157165527344 205.75613403320312 476.69427490234375 C 206.910400390625 469.7401428222656 208.4669647216797 463.1700744628906 210.2203369140625 456.6482849121094 C 211.34986877441406 450.9865417480469 213.210693359375 447.4935607910156 216.68190002441406 446.6665344238281 C 219.41197204589844 450.00762939453125 221.51332092285156 455.3834533691406 224.58042907714844 461.7510681152344 C 227.7246856689453 468.2906799316406 232.35308837890625 473.0475769042969 238.7144775390625 474.4691162109375 C 245.45350646972656 474.70562744140625 251.8158416748047 472.0255432128906 256.7668151855469 466.8074951171875 C 260.1563415527344 460.6156311035156 260.9433898925781 453.185546875 260.43170166015625 445.5123596191406 C 259.15155029296875 438.4659118652344 258.7984619140625 432.1019592285156 259.9029235839844 426.9056396484375 C 261.6680908203125 422.42547607421875 264.4833068847656 419.4267883300781 268.39599609375 417.47479248046875 C 272.89874267578125 416.2378845214844 277.85205078125 415.32855224609375 282.97943115234375 414.545166015625 C 288.103271484375 413.8592834472656 292.9048767089844 413.0802307128906 297.0815734863281 412.2293701171875 C 300.4657287597656 411.330810546875 302.90155029296875 410.3515625 304.6299133300781 409.3402099609375 C 305.8946533203125 408.22833251953125 306.8677062988281 406.9537658691406 307.84002685546875 405.5824279785156 C 309.22314453125 403.9108581542969 311.2869873046875 402.1097106933594 314.1769714355469 400.2644348144531 C 318.07379150390625 398.52294921875 322.7118835449219 397.2049865722656 327.7636413574219 396.4996337890625 C 333.00506591796875 396.6324157714844 338.13616943359375 397.8265686035156 342.7722473144531 400.2019348144531 C 346.8957214355469 403.71502685546875 350.2943115234375 408.1900329589844 353.2836608886719 412.8780822753906 C 355.2950134277344 417.71612548828125 357.5357971191406 421.3006896972656 360.59979248046875 423.12310791015625 C 362.4674377441406 422.7314453125 365.16790771484375 420.2336730957031 368.29534912109375 416.8590393066406 C 373.5390625 414.4558410644531 378.6607971191406 411.62225341796875 384.2510986328125 409.00579833984375 C 390.21270751953125 406.537109375 396.41162109375 403.9049987792969 402.5001525878906 400.84619140625 C 408.2691650390625 397.134521484375 413.5989990234375 392.67645263671875 418.1593933105469 387.5126953125 C 421.7423400878906 381.76873779296875 424.28094482421875 375.7660827636719 425.66485595703125 369.93670654296875 C 426.6600341796875 364.8153076171875 426.382080078125 360.3461608886719 424.9722595214844 356.79461669921875 C 422.6517333984375 354.022216796875 419.84112548828125 351.6907653808594 416.9843444824219 349.4188232421875 C 414.59735107421875 346.66888427734375 412.97418212890625 343.1660461425781 412.2981872558594 339.0335693359375 C 412.7738342285156 334.1302185058594 414.1952209472656 328.65545654296875 416.2420959472656 322.9383850097656 C 418.6446228027344 317.2906494140625 421.3092956542969 312.0236511230469 423.99078369140625 307.3597717285156 C 426.9222717285156 303.70550537109375 429.9230041503906 300.8506164550781 432.68212890625 298.40533447265625 C 435.1609802246094 296.0998229980469 437.39227294921875 293.72515869140625 437.5065612792969 290.3711853027344" stroke-width="0.0" fill="rgb(72, 128, 93)" opacity="0.9996578" stroke="rgb(214, 245, 183)" stroke-opacity="0.8082053" stroke-linecap="round" stroke-linejoin="round"/>
    <path d="M 1.5952086448669434 -0.4996517598628998 C 2.483513355255127 -0.41260525584220886 3.245422840118408 -0.3281816244125366 3.9142556190490723 -0.24093228578567505 C 4.506909370422363 -0.15962304174900055 4.880913257598877 -0.06872227042913437 5.258268356323242 -0.009837531484663486 C 5.84223747253418 0.006456828210502863 6.804165840148926 0.004590219352394342 8.575078010559082 -0.06922769546508789 C 11.481253623962402 -0.01215444691479206 15.766561508178711 -0.031451571732759476 21.70122718811035 -0.14916233718395233 C 29.466289520263672 -0.06379372626543045 38.98735427856445 -0.09158169478178024 50.14356231689453 -0.11697088927030563 C 62.74055099487305 -0.1799899935722351 76.47473907470703 -0.1612684577703476 90.92941284179688 -0.08710044622421265 C 105.71953582763672 -0.09688902646303177 120.52424621582031 -0.021148305386304855 135.04135131835938 -0.17767992615699768 C 149.00535583496094 -0.07256489992141724 162.35316467285156 -0.04765331745147705 175.0826873779297 -0.2525361478328705 C 187.3086395263672 0.002829723758623004 199.249755859375 0.3004227578639984 211.05967712402344 0.06875552982091904 C 222.84991455078125 1.2556555271148682 234.63499450683594 2.2151920795440674 246.3836669921875 3.0550684928894043 C 258.2252502441406 3.7982335090637207 270.1621398925781 3.937875747680664 282.20233154296875 3.451016664505005 C 294.672119140625 2.592245578765869 307.4646911621094 1.1712533235549927 320.82489013671875 -0.2897391617298126 C 334.99151611328125 -1.3066178560256958 349.6712341308594 -2.5044920444488525 364.7340087890625 -3.2789227962493896 C 379.9337158203125 -3.343923807144165 394.6192626953125 -2.424703359603882 407.9617004394531 -0.41761383414268494 C 418.9168395996094 3.1396491527557373 426.429443359375 8.084404945373535 429.7622985839844 14.340343475341797 C 428.1086120605469 21.48857307434082 422.0305480957031 28.266944885253906 411.9218444824219 34.7711067199707 C 398.02777099609375 39.9123649597168 382.27587890625 44.209835052490234 366.4645080566406 48.34219741821289 C 350.73455810546875 50.49773406982422 338.2950744628906 53.46453857421875 330.1886291503906 57.68529510498047 C 328.2556457519531 63.191917419433594 332.0475769042969 67.98786163330078 340.7226257324219 71.51566314697266 C 353.5874328613281 72.63928985595703 368.5301513671875 73.9950180053711 384.9188537597656 75.19544982910156 C 400.1790771484375 77.64405822753906 414.19146728515625 81.81179809570312 426.2061767578125 87.20021057128906 C 434.8047180175781 95.17205810546875 440.2816467285156 103.134033203125 442.12945556640625 111.14350128173828 C 441.0771789550781 118.28865051269531 437.2770080566406 123.64261627197266 430.8513488769531 126.88787841796875 C 422.32525634765625 127.03875732421875 412.1088562011719 124.28105163574219 401.7713928222656 118.17586517333984 C 390.1737060546875 110.47039794921875 377.1435241699219 103.09174346923828 364.5838317871094 95.33361053466797 C 351.43853759765625 87.95365142822266 337.5968017578125 82.97669219970703 323.6468200683594 78.38736724853516 C 310.0157775878906 74.01891326904297 296.7195129394531 71.16805267333984 284.4958190917969 69.23023986816406 C 274.2226867675781 67.57125854492188 266.2464294433594 66.84660339355469 261.1885681152344 66.32682037353516 C 259.166748046875 66.43618774414062 260.0102233886719 67.19847869873047 263.1414794921875 68.72964477539062 C 267.90283203125 71.49408721923828 273.9097900390625 74.8593521118164 280.3383483886719 79.24041748046875 C 286.7286682128906 84.30741119384766 292.8951721191406 89.14511108398438 298.9067077636719 92.8680648803711 C 304.5823059082031 94.55624389648438 309.0743103027344 94.5807113647461 311.5812683105469 93.3672103881836 C 311.4587097167969 92.15276336669922 308.4288635253906 91.67191314697266 302.535400390625 92.32962036132812 C 294.1146240234375 94.2700424194336 283.4971618652344 96.6543197631836 271.5326843261719 99.45750427246094 C 258.8673400878906 102.41980743408203 245.91207885742188 105.63469696044922 233.1508026123047 108.98041534423828 C 220.86878967285156 112.61585998535156 208.9353790283203 116.8458251953125 197.54290771484375 122.24436950683594 C 186.6846466064453 129.56166076660156 175.62867736816406 137.46676635742188 164.0182647705078 145.02420043945312 C 151.89039611816406 151.7920684814453 139.87747192382812 157.0843048095703 128.5650634765625 160.031982421875 C 118.80558013916016 159.93150329589844 111.50067138671875 156.4257049560547 107.26680755615234 149.57861328125 C 106.87355041503906 140.1230010986328 110.15087127685547 129.0839080810547 116.35467529296875 117.40238952636719 C 124.5995864868164 105.95732879638672 133.7250518798828 95.42852020263672 142.90480041503906 86.46228790283203 C 151.19265747070312 79.20530700683594 157.35015869140625 73.38389587402344 160.9477996826172 68.91886901855469 C 162.195068359375 65.82212829589844 160.26132202148438 63.32394027709961 155.41482543945312 61.3419189453125 C 149.14105224609375 58.96162033081055 140.97373962402344 58.0307731628418 131.8905029296875 58.5101432800293 C 122.68222045898438 58.742984771728516 114.19322204589844 59.476680755615234 106.87689208984375 59.97952651977539 C 101.17791748046875 60.89866256713867 97.24565124511719 63.18370056152344 94.9913558959961 66.57830047607422 C 94.16058349609375 70.94430541992188 94.2878189086914 76.01124572753906 94.83938598632812 81.35809326171875 C 96.8299331665039 86.63780212402344 98.75215911865234 91.93241882324219 101.08112335205078 97.47050476074219 C 103.40489959716797 103.41831970214844 105.46392059326172 110.15353393554688 107.04106903076172 118.0887451171875 C 106.78981018066406 127.2305679321289 104.41462707519531 137.33358764648438 100.14234924316406 148.0196533203125 C 93.14400482177734 158.5274200439453 83.62554168701172 168.23538208007812 71.8362045288086 176.92312622070312 C 58.81306076049805 184.722900390625 46.01842498779297 192.55514526367188 34.049434661865234 199.3850555419922 C 24.642675399780273 207.51954650878906 16.72081756591797 213.99649047851562 10.248513221740723 217.6322479248047 C 5.229516983032227 217.6153106689453 1.9406824111938477 214.1360626220703 0.34570690989494324 207.76956176757812 C 0.6952856779098511 199.17501831054688 2.3445303440093994 189.1256561279297 4.385541915893555 178.18673706054688 C 6.698392868041992 167.02525329589844 7.5809326171875 155.94320678710938 6.5153727531433105 145.0516815185547 C 4.659135341644287 134.2401580810547 2.8837697505950928 123.08985900878906 0.9745476245880127 111.38270568847656 C 0.11866877973079681 98.98757934570312 -0.625956654548645 85.88899993896484 -1.2027497291564941 72.00947570800781 C -1.5091809034347534 57.51095199584961 -1.6883418560028076 42.49321746826172 -1.7089314460754395 27.069137573242188 C -1.6939618587493896 11.431817054748535 -1.6427732706069946 -4.305075645446777 1.5952086448669434 -0.4996517598628998" stroke-width="0.0" fill="rgb(148, 211, 234)" opacity="0.9996479" stroke="rgb(152, 175, 137)" stroke-opacity="0.3796741" stroke-linecap="round" stroke-linejoin="round"/>
    <path d="M 265.32208251953125 198.9610595703125 C 266.289794921875 198.91278076171875 267.1044006347656 199.1741180419922 267.88238525390625 199.6263885498047 C 268.63629150390625 200.29202270507812 269.3688659667969 200.98121643066406 269.6280517578125 202.03102111816406 C 270.0140380859375 203.05361938476562 270.6206359863281 204.02293395996094 271.1024475097656 205.00381469726562 C 271.5769348144531 205.99232482910156 271.996826171875 206.835693359375 272.2786865234375 207.7318878173828 C 272.55413818359375 208.578125 272.9765625 209.301025390625 273.35546875 210.0901641845703 C 273.7685546875 210.82737731933594 274.1716613769531 211.50946044921875 274.7100524902344 212.3332977294922 C 275.2204895019531 213.01332092285156 275.7036437988281 213.6526336669922 276.212646484375 214.81390380859375 C 276.6141052246094 215.92446899414062 277.1495361328125 216.8991241455078 277.732421875 217.84475708007812 C 278.3370056152344 218.89825439453125 278.87432861328125 219.99386596679688 279.5755615234375 220.92034912109375 C 280.1927185058594 222.40586853027344 280.8524169921875 223.6761474609375 281.4897766113281 224.92483520507812 C 281.9540710449219 226.2015838623047 282.322998046875 227.27914428710938 282.937255859375 228.13931274414062 C 282.9951171875 228.9693145751953 283.18194580078125 229.61692810058594 283.61663818359375 230.14797973632812 C 283.8975830078125 230.67662048339844 284.1670227050781 231.41787719726562 284.61773681640625 232.1658477783203 C 284.816650390625 233.15692138671875 285.240966796875 234.18350219726562 285.784912109375 235.30496215820312 C 286.44073486328125 236.37039184570312 286.73724365234375 237.6054229736328 287.23187255859375 238.76979064941406 C 287.5407409667969 239.9310760498047 287.7582702636719 241.05393981933594 288.0791931152344 241.94705200195312 C 288.5347595214844 242.76170349121094 288.8474426269531 243.96051025390625 289.0002136230469 244.983154296875 C 289.37847900390625 246.05636596679688 289.748291015625 247.14541625976562 290.1018981933594 248.27926635742188 C 290.451171875 249.4913330078125 290.7331237792969 250.65687561035156 291.2026062011719 251.92881774902344 C 291.4469909667969 253.218505859375 291.5001220703125 254.3732452392578 291.5531311035156 255.51031494140625 C 291.76593017578125 256.51031494140625 292.0440673828125 257.3471374511719 292.1991271972656 258.4062805175781 C 292.2416687011719 259.462158203125 292.3992919921875 260.4442443847656 292.63421630859375 261.45306396484375 C 292.82373046875 262.5443420410156 293.2303771972656 263.6402282714844 293.6283264160156 264.8057861328125 C 293.5625305175781 266.08612060546875 293.84149169921875 267.2909851074219 293.925048828125 268.466552734375 C 294.0666809082031 269.4703674316406 294.0511779785156 270.3915710449219 294.18975830078125 271.26458740234375 C 294.1170349121094 272.15869140625 294.1673583984375 273.1349792480469 294.5476379394531 274.1527099609375 C 294.6893310546875 275.510009765625 294.8197326660156 277.11810302734375 295.0251159667969 279.0193786621094 C 294.9837646484375 281.3718566894531 295.05218505859375 283.9872741699219 294.88604736328125 286.893798828125 C 294.43670654296875 290.0845031738281 293.7618103027344 293.278564453125 291.9689025878906 296.42474365234375 C 290.32244873046875 299.7377014160156 288.31463623046875 302.81353759765625 286.34954833984375 305.739990234375 C 284.8092041015625 308.76214599609375 282.8540954589844 310.74102783203125 280.97064208984375 312.714111328125 C 279.1882019042969 313.39532470703125 276.9729919433594 312.80426025390625 274.3400573730469 311.9605712890625 C 271.2540283203125 311.4517822265625 267.8187561035156 310.92742919921875 264.2052307128906 310.7747802734375 C 260.63970947265625 310.65179443359375 257.328125 310.0712890625 254.49700927734375 309.6944580078125 C 252.327392578125 309.6607971191406 251.00314331054688 309.49493408203125 250.62161254882812 309.478515625 C 251.250244140625 309.5149230957031 252.80621337890625 309.57061767578125 255.05686950683594 309.761962890625 C 257.71917724609375 310.10223388671875 260.30328369140625 310.5029602050781 262.58734130859375 310.8519592285156 C 263.2483825683594 312.7654113769531 262.9626770019531 314.33953857421875 261.4972229003906 315.9327697753906 C 258.8498840332031 317.11419677734375 255.71981811523438 318.091064453125 252.36131286621094 319.3726806640625 C 248.9530487060547 320.5196838378906 245.47239685058594 321.78265380859375 242.00502014160156 322.6868896484375 C 238.76011657714844 323.6700134277344 235.4876251220703 324.4468994140625 232.26670837402344 325.38104248046875 C 228.68597412109375 325.82720947265625 225.3236541748047 326.6202392578125 221.85752868652344 327.1447448730469 C 218.42892456054688 327.4874572753906 215.12783813476562 327.53948974609375 212.0669403076172 327.1202392578125 C 209.27272033691406 326.7569274902344 206.8052978515625 326.1731262207031 204.83583068847656 325.3375244140625 C 203.18161010742188 324.35076904296875 201.9913330078125 323.2074890136719 201.39952087402344 321.865478515625 C 201.52688598632812 320.2112121582031 201.22604370117188 318.67279052734375 200.74319458007812 316.9935302734375 C 200.18417358398438 314.99517822265625 199.4070587158203 312.7753601074219 198.2869110107422 310.4081115722656 C 197.28216552734375 307.7296447753906 196.14031982421875 304.2475280761719 194.8468780517578 300.80743408203125 C 193.40155029296875 297.335205078125 192.0506591796875 293.9374694824219 190.72055053710938 290.5494079589844 C 190.00213623046875 287.1042175292969 190.24559020996094 283.739013671875 190.72299194335938 280.41253662109375 C 191.97801208496094 277.4127197265625 193.63392639160156 274.59747314453125 195.4930419921875 271.830810546875 C 197.35162353515625 268.95489501953125 199.39605712890625 266.0135498046875 201.6743927001953 263.07110595703125 C 203.96165466308594 260.2397155761719 206.39234924316406 256.90399169921875 209.00900268554688 253.84744262695312 C 211.88558959960938 250.86825561523438 214.82354736328125 248.15322875976562 217.63613891601562 244.49835205078125 C 220.4146728515625 241.66888427734375 223.17665100097656 239.01651000976562 226.13880920410156 236.55223083496094 C 228.89254760742188 234.25320434570312 231.86656188964844 231.938720703125 234.69627380371094 229.79568481445312 C 238.04148864746094 227.85775756835938 241.12692260742188 225.54635620117188 244.11312866210938 223.07070922851562 C 247.3819122314453 220.8356170654297 250.1976318359375 218.0505828857422 252.8301239013672 214.9072265625 C 255.6947784423828 211.9878692626953 258.12744140625 208.9755096435547 260.5281677246094 205.99940490722656 C 262.34326171875 202.6002197265625 264.171142578125 199.25518798828125 265.32208251953125 198.9610595703125" stroke-width="0.0" fill="rgb(109, 116, 119)" opacity="0.99963164" stroke="rgb(93, 37, 234)" stroke-opacity="0.26187748" stroke-linecap="round" stroke-linejoin="round"/>
    <path d="M 437.6341552734375 170.61253356933594 C 439.71240234375 172.02825927734375 441.088134765625 173.57386779785156 442.1692810058594 175.32093811035156 C 443.0268859863281 177.53424072265625 443.76806640625 180.54762268066406 444.6337585449219 184.5341339111328 C 445.4886169433594 189.74313354492188 446.23724365234375 196.21585083007812 446.8636169433594 203.7578125 C 447.2427062988281 212.22674560546875 447.2830810546875 221.52975463867188 446.9391174316406 231.3411407470703 C 446.25616455078125 241.32154846191406 445.28533935546875 251.14845275878906 444.0704345703125 260.6106872558594 C 442.6817321777344 269.35260009765625 441.2213134765625 277.25732421875 439.6090393066406 284.10894775390625 C 437.926025390625 289.803466796875 436.4360046386719 294.3997802734375 434.9232482910156 298.0035095214844 C 432.39837646484375 300.3877258300781 429.62939453125 302.3724365234375 426.599853515625 303.92236328125 C 424.2673645019531 306.2969665527344 422.7481384277344 309.4735412597656 422.3403015136719 313.2398681640625 C 420.59393310546875 317.2153625488281 419.818359375 321.2701721191406 419.6532897949219 325.3145751953125 C 418.26055908203125 329.0111389160156 417.9812927246094 332.5976867675781 418.4089660644531 336.3548889160156 C 419.3255310058594 340.4890441894531 420.30413818359375 345.2696228027344 422.32269287109375 350.5803527832031 C 424.144775390625 356.65301513671875 424.48193359375 363.154541015625 424.5421447753906 369.5228271484375 C 424.2686462402344 374.9432678222656 424.45220947265625 378.6022033691406 425.7373352050781 380.083251953125 C 427.26019287109375 378.37445068359375 428.6754455566406 374.244873046875 430.20074462890625 368.66033935546875 C 431.5777282714844 362.2151184082031 432.85003662109375 355.8570861816406 434.0793762207031 350.4263916015625 C 435.03582763671875 346.70465087890625 435.762939453125 345.1563720703125 436.2906799316406 346.0216064453125 C 436.5242919921875 349.3037109375 436.5107116699219 354.7617492675781 436.38824462890625 361.9162292480469 C 435.3760070800781 370.1245422363281 434.1112060546875 378.8337707519531 432.03369140625 387.482177734375 C 430.52923583984375 396.0265197753906 428.4833068847656 404.0029602050781 426.0266418457031 411.1423645019531 C 423.6697082519531 417.5066833496094 421.2264709472656 422.9683837890625 419.01239013671875 427.4118957519531 C 417.2128601074219 430.93170166015625 415.5788879394531 433.2799987792969 413.8271179199219 434.3605041503906 C 411.8318786621094 434.47503662109375 408.998291015625 433.6431579589844 405.3355712890625 432.535400390625 C 400.1773986816406 431.94622802734375 393.9031066894531 431.3670654296875 386.4179992675781 431.5743713378906 C 377.9403991699219 431.29302978515625 368.7193908691406 431.1214904785156 359.3265075683594 431.79449462890625 C 350.2081604003906 432.43878173828125 341.8534240722656 432.8426208496094 334.86358642578125 433.49884033203125 C 329.73663330078125 433.7235107421875 326.89434814453125 433.531494140625 326.7582702636719 433.0028991699219 C 329.4681701660156 432.54608154296875 334.9423828125 432.66510009765625 342.7616882324219 431.6666564941406 C 352.5302734375 431.27691650390625 363.478515625 431.64984130859375 374.7316589355469 431.20721435546875 C 385.4252014160156 430.6787414550781 394.32623291015625 429.7451477050781 401.0872497558594 427.7864990234375 C 404.15631103515625 425.5550231933594 403.4111022949219 422.95849609375 399.7122497558594 420.5072021484375 C 393.5887756347656 419.2553405761719 386.8241882324219 417.9887390136719 380.29486083984375 416.6298828125 C 375.0209045410156 415.11358642578125 371.76300048828125 412.4920349121094 371.16900634765625 408.3705749511719 C 374.1620788574219 402.3558349609375 379.52899169921875 394.8263244628906 386.9480895996094 385.9975280761719 C 395.3292236328125 376.62127685546875 403.3488464355469 367.3535461425781 409.6182556152344 359.7336120605469 C 411.3253173828125 353.34954833984375 408.9500427246094 350.0361328125 403.39697265625 350.8116149902344 C 396.993408203125 356.8077087402344 389.3807373046875 365.5597839355469 381.11492919921875 375.5360412597656 C 372.5560607910156 385.60455322265625 364.7811584472656 395.3006896972656 359.429443359375 404.9963073730469 C 354.8934020996094 412.75714111328125 348.1154479980469 418.39483642578125 341.5485534667969 422.4056701660156 C 334.8420715332031 424.971435546875 327.62518310546875 426.35675048828125 319.74285888671875 426.7153625488281 C 311.3199462890625 426.1923522949219 302.5219421386719 425.46673583984375 293.5979309082031 424.73431396484375 C 284.8765563964844 423.7358703613281 276.7058410644531 422.42437744140625 269.41937255859375 421.4930419921875 C 263.2170104980469 419.63165283203125 258.3133239746094 418.1700439453125 254.57589721679688 417.4808654785156 C 251.9597625732422 417.50494384765625 250.72689819335938 416.8855285644531 250.39019775390625 416.1183166503906 C 250.97698974609375 414.7840881347656 252.4066619873047 412.62933349609375 254.8036346435547 409.97930908203125 C 257.7401123046875 406.1916198730469 261.08917236328125 401.4365539550781 264.58087158203125 395.4472961425781 C 268.236572265625 388.2095947265625 272.90557861328125 381.1278076171875 278.18414306640625 373.48516845703125 C 283.81768798828125 365.22210693359375 289.4842834472656 356.599853515625 295.68988037109375 348.08123779296875 C 301.62005615234375 339.0857849121094 307.4272155761719 329.5534973144531 313.0781555175781 320.74444580078125 C 318.6947021484375 312.043212890625 323.397705078125 302.5454406738281 327.031982421875 292.51519775390625 C 330.3753662109375 282.56536865234375 333.3374938964844 272.8341064453125 334.4473876953125 263.0811767578125 C 335.67877197265625 254.26190185546875 335.77197265625 246.74264526367188 335.96844482421875 239.28501892089844 C 340.8656005859375 237.70982360839844 345.4656066894531 237.92860412597656 349.8294982910156 239.50021362304688 C 353.3003845214844 240.11453247070312 356.00848388671875 238.8114013671875 357.6321716308594 236.54246520996094 C 359.80206298828125 234.45974731445312 361.99627685546875 231.568359375 364.4115295410156 228.16055297851562 C 366.8869934082031 223.70237731933594 369.92059326171875 217.98672485351562 375.3730773925781 215.61903381347656 C 381.9189147949219 211.98257446289062 388.8619384765625 208.3834991455078 396.0970764160156 205.2270050048828 C 403.3032531738281 203.47171020507812 409.81866455078125 203.27662658691406 415.051513671875 200.97630310058594 C 418.8668518066406 197.381591796875 421.5259094238281 192.5709228515625 424.666748046875 187.86549377441406 C 430.4972839355469 184.34561157226562 436.0043640136719 181.86044311523438 437.6341552734375 170.61253356933594" stroke-width="0.0" fill="rgb(152, 212, 236)" opacity="0.99966353" stroke="rgb(168, 26, 175)" stroke-opacity="0.24237897" stroke-linecap="round" stroke-linejoin="round"/>
    <path d="M 97.61870574951172 36.310699462890625 C 98.44574737548828 37.095951080322266 98.93951416015625 37.57588577270508 99.16816711425781 38.091426849365234 C 99.17738342285156 38.59226608276367 99.00473022460938 39.026649475097656 98.99610900878906 39.57284164428711 C 99.20733642578125 40.426673889160156 99.76927947998047 41.80817794799805 100.78792572021484 43.92366027832031 C 102.1563949584961 47.06019973754883 103.92950439453125 51.29807662963867 105.92426300048828 56.571693420410156 C 107.99593353271484 62.655521392822266 110.41786193847656 68.94184875488281 112.67034149169922 75.20991516113281 C 115.21575927734375 80.64057159423828 117.93724822998047 84.72547149658203 120.84053802490234 87.23653411865234 C 124.09839630126953 88.08916473388672 128.05014038085938 87.36203002929688 133.0656280517578 86.31246948242188 C 139.0150909423828 84.26109313964844 146.17599487304688 82.53284454345703 154.20973205566406 80.50777435302734 C 162.9870147705078 78.7807846069336 172.4173126220703 77.75003051757812 182.33140563964844 76.73867797851562 C 192.54080200195312 74.25395965576172 203.1703338623047 72.36355590820312 214.14053344726562 71.0224838256836 C 225.26861572265625 69.39803314208984 236.41709899902344 68.35198211669922 247.34014892578125 68.06851196289062 C 257.7076110839844 69.06952667236328 267.1969909667969 70.99222564697266 275.8502502441406 72.57784271240234 C 282.36956787109375 75.5862808227539 287.8077392578125 79.7548599243164 292.0384826660156 84.25729370117188 C 294.3363952636719 89.70308685302734 298.3512878417969 92.22586059570312 303.2646789550781 93.05170440673828 C 307.6697082519531 93.27666473388672 311.3144836425781 92.73355865478516 313.2469482421875 92.8928451538086 C 312.20501708984375 93.4649429321289 308.7383728027344 94.32238006591797 303.00640869140625 95.70425415039062 C 295.55438232421875 96.87300872802734 286.8101806640625 97.64807891845703 277.1686706542969 97.89759826660156 C 268.2128601074219 101.31114959716797 259.4117126464844 106.66004943847656 250.22506713867188 110.54520416259766 C 240.52426147460938 112.8641586303711 230.56727600097656 115.11619567871094 220.58424377441406 116.56924438476562 C 211.46847534179688 117.18488311767578 204.49600219726562 118.37102508544922 200.82546997070312 121.16056823730469 C 202.6361541748047 126.90516662597656 207.59176635742188 134.3682861328125 214.66250610351562 142.9029083251953 C 222.3021697998047 151.93287658691406 229.18898010253906 160.92262268066406 234.29360961914062 169.3883514404297 C 236.7767333984375 177.04856872558594 235.97145080566406 183.81396484375 231.86407470703125 189.65443420410156 C 224.7262420654297 194.55178833007812 215.10975646972656 198.85824584960938 203.64219665527344 203.00865173339844 C 190.9424285888672 207.48080444335938 177.6693115234375 212.43417358398438 164.46926879882812 217.97116088867188 C 151.91159057617188 223.6673583984375 140.36395263671875 228.75099182128906 130.17616271972656 232.38731384277344 C 121.50142669677734 233.93905639648438 114.47826385498047 233.12274169921875 109.0357666015625 230.0558624267578 C 105.3509750366211 225.17105102539062 103.41642761230469 218.8383331298828 103.35633087158203 211.5551300048828 C 105.38765716552734 203.78817749023438 109.51165771484375 195.90977478027344 115.51740264892578 188.12112426757812 C 123.16358947753906 180.6054229736328 132.0100555419922 173.45118713378906 141.57083129882812 166.63780212402344 C 151.26431274414062 160.1081085205078 160.52223205566406 153.9763641357422 168.62379455566406 148.19386291503906 C 174.75363159179688 143.3103790283203 178.2340850830078 139.75344848632812 178.6334991455078 138.0129852294922 C 175.6566925048828 139.35064697265625 169.3681640625 142.42808532714844 160.79603576660156 147.30682373046875 C 149.37451171875 152.32411193847656 137.78179931640625 157.3964385986328 126.0712661743164 160.55044555664062 C 115.65770721435547 162.7235870361328 108.0108642578125 163.14378356933594 101.96891021728516 157.2854461669922 C 104.52171325683594 146.72340393066406 107.12918090820312 135.2974395751953 110.57315063476562 122.73713684082031 C 114.6490478515625 111.78707122802734 119.27484893798828 103.7225112915039 119.26284790039062 99.35537719726562 C 115.75713348388672 101.9058837890625 112.75846862792969 110.0615463256836 109.1395492553711 121.51500701904297 C 105.18482208251953 134.301025390625 101.98289489746094 147.06666564941406 100.00827026367188 159.06028747558594 C 95.88155364990234 168.6258544921875 87.9586181640625 174.86831665039062 78.66028594970703 181.3529052734375 C 69.38383483886719 185.82293701171875 58.29039764404297 189.0362548828125 47.35057067871094 192.42039489746094 C 37.40803909301758 195.28598022460938 30.71833610534668 200.9015655517578 27.442638397216797 209.2548828125 C 23.128643035888672 214.57818603515625 19.276018142700195 219.5826416015625 15.693781852722168 223.64190673828125 C 14.636322021484375 228.36343383789062 14.379827499389648 233.66944885253906 14.520259857177734 239.9999542236328 C 14.47526741027832 247.49546813964844 13.958329200744629 256.09375 12.823705673217773 265.5292663574219 C 11.140348434448242 275.2189636230469 9.024554252624512 284.4624328613281 6.747918605804443 292.34478759765625 C 4.625147819519043 298.1485290527344 2.8019258975982666 300.9767761230469 0.7934015989303589 300.56768798828125 C 0.2724798023700714 296.4376220703125 -0.09121643006801605 289.1393127441406 -0.40635356307029724 279.1405944824219 C -0.4072421193122864 267.11920166015625 -0.17175324261188507 253.76608276367188 0.06899294257164001 239.8618621826172 C 0.29032808542251587 226.29238891601562 0.3221781253814697 213.68115234375 0.320705384016037 202.5829620361328 C 0.014052396640181541 193.412109375 -0.4167681634426117 186.42567443847656 -0.3618985414505005 181.72433471679688 C 0.43492889404296875 179.17005920410156 2.2379698753356934 178.3328399658203 5.412128448486328 178.2470245361328 C 9.385030746459961 177.24693298339844 14.16147518157959 174.5856170654297 19.799060821533203 169.3677215576172 C 26.57693099975586 162.14120483398438 34.822452545166016 153.9266815185547 44.29608917236328 145.04098510742188 C 54.69823455810547 136.6477813720703 64.99966430664062 128.87457275390625 74.84491729736328 122.06236267089844 C 83.4913330078125 116.45835876464844 90.10872650146484 111.54940795898438 94.69438171386719 107.44095611572266 C 97.41258239746094 104.1131362915039 98.7789535522461 101.50198364257812 99.1148452758789 99.09058380126953 C 98.73865509033203 96.3538818359375 98.04047393798828 92.58940124511719 97.11795043945312 87.34101867675781 C 95.9493408203125 80.37663269042969 94.41413116455078 71.78421783447266 92.51006317138672 62.09306335449219 C 91.1451187133789 51.57759094238281 89.47781372070312 40.79289627075195 97.61870574951172 36.310699462890625" stroke-width="0.0" fill="rgb(184, 170, 193)" opacity="0.9997417" stroke="rgb(181, 250, 242)" stroke-opacity="0.01712187" stroke-linecap="round" stroke-linejoin="round"/>
    <path d="M 331.90863037109375 86.88105010986328 C 338.9181823730469 88.89810180664062 346.17388916015625 91.39437103271484 353.4130859375 94.72587585449219 C 361.03936767578125 98.32327270507812 369.100830078125 102.54707336425781 377.6080017089844 107.39464569091797 C 386.7192077636719 112.81268310546875 396.0678405761719 118.94707489013672 405.056396484375 125.82488250732422 C 413.75469970703125 132.38612365722656 421.1542663574219 139.03143310546875 426.9506530761719 145.17153930664062 C 430.26837158203125 150.90286254882812 431.389404296875 155.65830993652344 429.9684143066406 159.25904846191406 C 426.0278015136719 161.46041870117188 420.35736083984375 162.6566619873047 413.3446044921875 162.49095153808594 C 405.62493896484375 162.34458923339844 397.8750305175781 162.38650512695312 390.620849609375 162.84927368164062 C 384.444091796875 162.8143768310547 379.6124267578125 162.88661193847656 376.0559997558594 163.10476684570312 C 373.98822021484375 164.48992919921875 372.59844970703125 165.6665802001953 371.3738708496094 166.08555603027344 C 369.91339111328125 165.6387939453125 367.9989318847656 164.53709411621094 365.3273010253906 163.43081665039062 C 361.5986633300781 163.4630126953125 356.7644958496094 163.95928955078125 350.9683837890625 164.78472900390625 C 344.0684814453125 165.4466094970703 336.480224609375 166.63035583496094 328.3699645996094 168.0885772705078 C 319.6270751953125 169.62979125976562 310.64599609375 171.42982482910156 301.6880798339844 173.96995544433594 C 292.7372741699219 176.52548217773438 284.3772888183594 179.34559631347656 276.8118591308594 182.2674560546875 C 269.9215087890625 184.84039306640625 264.1885681152344 187.1827392578125 259.6826171875 188.6282958984375 C 257.59759521484375 190.79856872558594 256.5102233886719 192.5644073486328 255.7954559326172 193.62762451171875 C 254.7760009765625 193.44369506835938 253.34841918945312 192.3742218017578 250.9206085205078 192.01144409179688 C 247.20565795898438 193.0368194580078 242.43875122070312 193.73020935058594 236.71038818359375 194.92727661132812 C 230.350830078125 196.7013702392578 223.40304565429688 198.37266540527344 215.97134399414062 200.29214477539062 C 208.02316284179688 202.36341857910156 199.97024536132812 204.88247680664062 191.5561981201172 207.82080078125 C 183.06748962402344 211.00112915039062 174.09149169921875 214.4521026611328 165.58155822753906 218.369873046875 C 156.831298828125 222.60470581054688 148.09786987304688 226.5902557373047 140.0370330810547 231.24295043945312 C 132.63417053222656 235.76007080078125 126.05525207519531 239.81497192382812 120.4501953125 243.41468811035156 C 115.40184783935547 246.0292510986328 112.08539581298828 248.59629821777344 110.77330780029297 251.1066131591797 C 110.45172119140625 253.8998260498047 109.9615478515625 255.7107391357422 108.8679428100586 256.41717529296875 C 106.86481475830078 255.95870971679688 103.95172882080078 255.21974182128906 99.90553283691406 255.40599060058594 C 94.46068572998047 257.09051513671875 87.81820678710938 259.80426025390625 79.95742797851562 263.1256103515625 C 71.1795654296875 267.0572814941406 62.37461471557617 271.9638671875 53.32123947143555 277.3761291503906 C 45.06195068359375 282.93133544921875 37.709510803222656 288.2579345703125 31.466697692871094 292.5957336425781 C 26.031763076782227 294.58929443359375 21.815338134765625 294.3782043457031 18.575164794921875 292.3648376464844 C 16.815231323242188 289.0415344238281 15.997611045837402 285.4779357910156 15.551499366760254 282.6893005371094 C 14.310698509216309 282.3049621582031 13.532538414001465 284.02593994140625 13.568913459777832 287.6315002441406 C 13.171256065368652 292.568115234375 12.9423189163208 298.2513427734375 12.631409645080566 304.0661926269531 C 13.587911605834961 309.37579345703125 13.537198066711426 313.6258850097656 12.79931640625 316.4537048339844 C 11.149569511413574 317.3761291503906 9.546721458435059 316.5622253417969 7.946224689483643 314.4814758300781 C 7.459858417510986 310.9735412597656 5.934925556182861 307.3449401855469 3.2212510108947754 303.90234375 C 1.2194960117340088 299.3039855957031 0.04034968093037605 294.0513610839844 -0.8199828267097473 287.7395324707031 C -1.5836291313171387 280.4887390136719 -2.336207151412964 272.42291259765625 -3.1129093170166016 263.7246398925781 C -3.5760459899902344 254.84400939941406 -3.4632949829101562 246.3252410888672 -2.3451149463653564 238.62579345703125 C 0.6669942140579224 232.62303161621094 5.7228169441223145 228.4534912109375 11.83349609375 225.40826416015625 C 18.330158233642578 222.99484252929688 24.9661922454834 221.02024841308594 30.888099670410156 218.3862762451172 C 34.69000244140625 214.10003662109375 38.596309661865234 209.53163146972656 42.235939025878906 204.83714294433594 C 47.120643615722656 201.0535125732422 52.52199172973633 197.3369598388672 59.03034591674805 194.42825317382812 C 66.07127380371094 191.57318115234375 72.8357925415039 187.41305541992188 79.43618774414062 183.30587768554688 C 85.6993637084961 179.99118041992188 91.73497772216797 177.82373046875 96.5588607788086 176.51097106933594 C 99.98450469970703 175.89157104492188 101.87261962890625 175.74684143066406 102.6042251586914 176.68272399902344 C 102.52550506591797 178.54782104492188 102.32891082763672 180.74526977539062 102.50303649902344 182.76541137695312 C 103.21566772460938 183.3070068359375 104.45816040039062 181.94400024414062 106.0252456665039 179.49607849121094 C 109.60271453857422 176.3144989013672 114.23859405517578 172.8848114013672 119.67328643798828 169.1192626953125 C 126.54010772705078 165.58035278320312 134.4886932373047 161.4924774169922 143.38999938964844 158.5460662841797 C 152.76295471191406 155.3667449951172 161.43954467773438 151.3251953125 169.45054626464844 146.59988403320312 C 176.47525024414062 141.5371856689453 181.26535034179688 135.35842895507812 186.34820556640625 130.40786743164062 C 190.31588745117188 125.92813110351562 193.9246063232422 122.75096893310547 197.57748413085938 121.22238159179688 C 201.51019287109375 122.76455688476562 205.93133544921875 123.70865631103516 211.02037048339844 122.83303833007812 C 216.98829650878906 122.06771850585938 223.7717742919922 120.721923828125 231.21958923339844 118.96554565429688 C 239.23202514648438 117.2252197265625 247.04083251953125 115.1129150390625 254.68753051757812 112.4548568725586 C 262.07940673828125 109.97167205810547 269.337890625 108.01669311523438 276.3063049316406 106.61692810058594 C 282.9538879394531 105.1408920288086 289.0234375 102.7697982788086 294.8846740722656 99.86760711669922 C 301.6339416503906 97.94298553466797 308.516357421875 96.33272552490234 315.6779479980469 94.66287231445312 C 323.0386657714844 92.9021224975586 330.6471862792969 91.5161361694336 331.90863037109375 86.88105010986328" stroke-width="0.0" fill="rgb(109, 51, 92)" opacity="0.9996168" stroke="rgb(0, 117, 184)" stroke-opacity="0.21648504" stroke-linecap="round" stroke-linejoin="round"/>
    <path d="M 57.46192169189453 386.82666015625 C 57.692142486572266 388.8966064453125 57.74175262451172 390.90191650390625 57.69386672973633 392.443603515625 C 57.824256896972656 393.2657165527344 58.0264778137207 393.3311462402344 58.355712890625 392.5141906738281 C 59.039649963378906 391.1652526855469 60.197872161865234 389.7742919921875 61.85931396484375 388.96649169921875 C 63.71244812011719 389.093017578125 65.26189422607422 389.8878173828125 66.22027587890625 391.1472473144531 C 66.40889739990234 392.5847473144531 66.15306854248047 393.99835205078125 65.78256225585938 395.4192810058594 C 65.3400650024414 396.7864685058594 64.86820220947266 398.0301208496094 64.47528839111328 399.31591796875 C 64.07806396484375 400.6112060546875 63.676090240478516 401.814697265625 63.36544418334961 403.053466796875 C 62.955257415771484 404.3017578125 62.572242736816406 405.5018310546875 62.173561096191406 406.6575012207031 C 61.78565979003906 407.8183898925781 61.38800811767578 408.9906921386719 60.99288558959961 410.15155029296875 C 60.647457122802734 411.295654296875 60.27867126464844 412.5199279785156 59.88483428955078 413.6939697265625 C 59.57131576538086 414.734130859375 59.279808044433594 415.7710266113281 58.96197509765625 416.7509460449219 C 58.736854553222656 417.5922546386719 58.552452087402344 418.32763671875 58.37028503417969 419.0146789550781 C 58.24111557006836 419.62420654296875 58.09705352783203 420.1657409667969 58.00607681274414 420.81158447265625 C 57.87779235839844 421.731201171875 57.70448303222656 422.9779052734375 57.42627716064453 424.6492004394531 C 57.04643630981445 426.7815856933594 56.513065338134766 429.23992919921875 55.67976379394531 431.7579345703125 C 54.21180725097656 433.8732604980469 51.958866119384766 435.28564453125 48.89052963256836 435.9107360839844 C 45.29545974731445 435.7779235839844 41.67137908935547 434.60919189453125 38.60084533691406 432.30035400390625 C 36.974334716796875 429.0795593261719 37.00025177001953 425.91070556640625 38.244049072265625 423.557373046875 C 39.894954681396484 422.1685485839844 41.21780014038086 421.55413818359375 41.856319427490234 421.5155334472656 C 41.840824127197266 421.82489013671875 41.388126373291016 422.2485656738281 40.689029693603516 422.6625061035156 C 39.89085006713867 423.0234375 39.10236358642578 423.18792724609375 38.370361328125 422.987548828125 C 37.77947235107422 422.2954406738281 37.3878173828125 421.43548583984375 37.09674835205078 420.5758972167969 C 36.94903564453125 420.20947265625 36.820560455322266 420.2282409667969 36.75132751464844 420.7200012207031 C 36.46965026855469 421.48388671875 35.83064651489258 422.3421936035156 34.92534637451172 423.18560791015625 C 33.7495002746582 423.8873291015625 32.37582015991211 424.2932434082031 31.05278205871582 424.3572692871094 C 29.745759963989258 424.1585998535156 28.67008399963379 423.73529052734375 27.800743103027344 423.20538330078125 C 27.0823974609375 422.7039794921875 26.560697555541992 422.2641906738281 26.162689208984375 421.94793701171875 C 25.708385467529297 421.72210693359375 25.222627639770508 421.6278381347656 24.55390739440918 421.5763854980469 C 23.830120086669922 421.66162109375 23.061227798461914 421.8319396972656 22.112028121948242 422.11541748046875 C 21.146446228027344 422.4468994140625 20.09269905090332 422.80712890625 18.94657325744629 423.1346435546875 C 17.753259658813477 423.3204650878906 16.503890991210938 423.3616638183594 15.24089527130127 423.35565185546875 C 14.021683692932129 423.32769775390625 12.907879829406738 423.31292724609375 11.911391258239746 423.30267333984375 C 10.985074043273926 423.3645935058594 10.175089836120605 423.52789306640625 9.427913665771484 423.8374938964844 C 8.63013744354248 424.35357666015625 7.804716110229492 424.98492431640625 6.845681190490723 425.5250244140625 C 5.697911739349365 425.76068115234375 4.491193771362305 425.7121276855469 3.342172384262085 425.34881591796875 C 2.281526803970337 424.4870910644531 1.386674404144287 423.2598876953125 0.7311998009681702 421.836181640625 C 0.29635822772979736 420.295166015625 -0.017248239368200302 418.6925048828125 -0.19091761112213135 417.23858642578125 C -0.207433819770813 415.9955749511719 -0.19911867380142212 414.9123840332031 -0.21301962435245514 413.98760986328125 C -0.11125583946704865 413.1880187988281 -0.06648360937833786 412.4180908203125 -0.030232084915041924 411.63232421875 C -0.01345028169453144 410.7687072753906 -0.021156080067157745 409.8517150878906 -0.011946039274334908 408.9287414550781 C -0.01819995790719986 407.9035949707031 -0.05387530475854874 406.79461669921875 -0.09529399126768112 405.6732177734375 C -0.12886711955070496 404.55206298828125 -0.24471397697925568 403.34222412109375 -0.2655027210712433 402.0987243652344 C -0.31918826699256897 400.875732421875 -0.35726287961006165 399.6624450683594 -0.25271540880203247 398.4982604980469 C -0.0460442490875721 397.38409423828125 0.33068692684173584 396.45611572265625 0.9475135803222656 395.7336120605469 C 1.9350261688232422 395.37152099609375 3.031404733657837 395.1129455566406 4.139289855957031 394.8566589355469 C 5.320883750915527 394.7139892578125 6.466090679168701 394.6186218261719 7.58065938949585 394.5472717285156 C 8.70565128326416 394.6524963378906 9.755316734313965 394.8426513671875 10.698441505432129 395.20947265625 C 11.556451797485352 395.60284423828125 12.228739738464355 396.0841369628906 12.663551330566406 396.6156005859375 C 12.973379135131836 397.1189270019531 13.095438003540039 397.53179931640625 13.049285888671875 397.67352294921875 C 13.052204132080078 397.5246887207031 13.173460960388184 397.15728759765625 13.43892765045166 396.5146179199219 C 13.95173454284668 395.7283630371094 14.813987731933594 394.78936767578125 15.990097999572754 393.8445739746094 C 17.337772369384766 393.09185791015625 18.831735610961914 392.57861328125 20.42675018310547 392.2701416015625 C 21.952760696411133 392.0491943359375 23.430747985839844 391.8387756347656 24.849950790405273 391.67987060546875 C 26.199920654296875 391.5065612792969 27.453571319580078 391.1690368652344 28.570270538330078 390.49786376953125 C 29.574405670166016 389.330322265625 30.48914337158203 387.751953125 31.452394485473633 386.0660095214844 C 32.75868606567383 384.6074523925781 34.42613220214844 383.4991760253906 36.51873016357422 382.7126770019531 C 38.951324462890625 382.19989013671875 41.5595817565918 381.8405456542969 44.31464385986328 381.6116638183594 C 47.11029052734375 381.5204772949219 49.84259033203125 381.6937255859375 52.36790466308594 382.2763977050781 C 54.58099365234375 383.2310791015625 56.208866119384766 384.661865234375 57.0396842956543 386.6922607421875 C 57.06209945678711 389.1788024902344 56.84153747558594 391.7333679199219 57.46192169189453 386.82666015625" stroke-width="0.0" fill="rgb(142, 175, 93)" opacity="1.0" stroke="rgb(101, 124, 65)" stroke-opacity="0.5054454" stroke-linecap="round" stroke-linejoin="round"/>
    <path d="M 179.46885681152344 385.3814697265625 C 177.0251922607422 387.5495300292969 175.2572479248047 389.4759521484375 174.3992156982422 391.0406494140625 C 175.08738708496094 392.1034240722656 176.5574188232422 392.968017578125 177.75442504882812 394.0693664550781 C 178.01600646972656 395.7825622558594 177.64431762695312 397.69622802734375 176.93338012695312 399.53778076171875 C 176.3973388671875 401.0687561035156 176.21234130859375 402.1513977050781 176.27386474609375 402.7130432128906 C 176.62380981445312 402.7183837890625 177.19456481933594 402.22357177734375 177.79965209960938 401.5981750488281 C 178.29119873046875 401.0357360839844 178.708984375 400.5631408691406 179.0788116455078 400.1622009277344 C 179.29425048828125 399.86224365234375 179.61660766601562 399.38116455078125 180.2407684326172 398.4906921386719 C 181.08460998535156 397.2399597167969 182.31690979003906 395.6604309082031 183.65081787109375 393.7664489746094 C 185.13026428222656 392.2271423339844 186.46697998046875 391.7395324707031 187.47789001464844 392.36248779296875 C 187.61441040039062 394.0821838378906 187.05316162109375 396.4695129394531 186.21368408203125 399.0146789550781 C 185.255615234375 401.52734375 184.3485107421875 403.7561950683594 183.6529998779297 405.4090270996094 C 183.125732421875 406.4906311035156 182.88418579101562 407.091796875 183.07872009277344 407.28240966796875 C 183.5707550048828 407.1293029785156 184.1953887939453 406.7473449707031 184.84901428222656 406.30157470703125 C 185.38775634765625 405.77484130859375 185.91156005859375 405.2764587402344 186.37939453125 404.8247985839844 C 186.90147399902344 404.32080078125 187.6049346923828 403.5955810546875 188.4007568359375 402.47381591796875 C 189.12265014648438 400.88555908203125 189.837890625 398.92742919921875 190.8092041015625 397.1504211425781 C 192.20321655273438 396.08880615234375 193.64825439453125 395.7786560058594 194.66659545898438 396.2813720703125 C 194.82083129882812 397.572021484375 194.31417846679688 399.4077453613281 193.6071319580078 401.56915283203125 C 192.99119567871094 403.82159423828125 192.33839416503906 405.94366455078125 191.65005493164062 407.738525390625 C 190.93911743164062 409.28131103515625 190.30877685546875 410.689208984375 189.70364379882812 412.0234375 C 189.12130737304688 413.302734375 188.64817810058594 414.4743347167969 188.20791625976562 415.5599365234375 C 187.78541564941406 416.51239013671875 187.4882049560547 417.3664855957031 187.14064025878906 418.2412414550781 C 186.81051635742188 419.1748962402344 186.46502685546875 420.11883544921875 186.0127716064453 421.097900390625 C 185.54608154296875 422.0787048339844 185.2206573486328 422.94891357421875 184.9945068359375 423.59368896484375 C 184.77557373046875 424.0574645996094 184.71749877929688 424.2989501953125 184.6903076171875 424.4418029785156 C 184.62966918945312 424.6080627441406 184.53170776367188 424.89202880859375 184.29779052734375 425.4006652832031 C 183.8544158935547 426.18072509765625 183.40687561035156 427.3058776855469 182.81951904296875 428.66424560546875 C 182.17689514160156 430.1947326660156 181.5743865966797 431.7585754394531 180.90724182128906 433.22491455078125 C 180.33470153808594 434.5820007324219 179.77029418945312 435.81097412109375 179.2210693359375 436.9879150390625 C 178.67178344726562 438.18939208984375 178.0878448486328 439.4568786621094 177.448974609375 440.80841064453125 C 176.78558349609375 442.1912841796875 176.1819305419922 443.4518127441406 175.6581573486328 444.6686706542969 C 175.19137573242188 445.7610168457031 174.6983184814453 446.7374572753906 174.2234344482422 447.6448974609375 C 173.77613830566406 448.3811340332031 173.43116760253906 449.03363037109375 173.16903686523438 449.5709228515625 C 172.91372680664062 449.9561462402344 172.6556396484375 450.3420104980469 172.29354858398438 450.9392395019531 C 171.80361938476562 451.7689208984375 171.2131805419922 452.90985107421875 170.5001678466797 454.235107421875 C 169.7111053466797 455.6664733886719 168.9409942626953 457.0227355957031 168.11473083496094 458.3726806640625 C 167.38067626953125 459.56121826171875 166.63494873046875 460.6794128417969 165.92266845703125 461.7767333984375 C 165.23614501953125 462.713134765625 164.64498901367188 463.547119140625 164.2527313232422 464.3415832519531 C 163.78787231445312 465.0804443359375 163.18165588378906 465.7459411621094 162.48458862304688 466.5417785644531 C 161.67190551757812 467.5110168457031 160.65426635742188 468.5860595703125 159.47003173828125 469.6481018066406 C 158.05035400390625 470.51519775390625 156.41299438476562 470.9381408691406 154.78170776367188 470.6568603515625 C 153.44020080566406 469.5912170410156 152.63978576660156 467.83721923828125 152.45669555664062 465.7464599609375 C 153.02474975585938 463.9021911621094 154.3672637939453 462.6574401855469 156.00904846191406 462.0583801269531 C 157.10169982910156 461.8673400878906 157.26760864257812 461.90960693359375 156.6262664794922 462.14410400390625 C 155.4998779296875 462.6607666015625 154.20562744140625 462.8948669433594 153.21578979492188 462.2216491699219 C 152.94650268554688 460.29608154296875 153.24989318847656 457.46234130859375 153.6895294189453 454.2314453125 C 154.0044708251953 451.0835876464844 154.3758544921875 448.443115234375 155.186767578125 446.6997985839844 C 156.60675048828125 446.094482421875 158.2635955810547 446.2064514160156 159.6903839111328 446.5926818847656 C 160.62620544433594 446.9489440917969 160.95887756347656 447.2512512207031 160.55081176757812 447.33587646484375 C 159.2876739501953 447.1859130859375 157.5255889892578 446.7784423828125 155.93092346191406 445.96112060546875 C 155.2985382080078 444.56732177734375 155.5507354736328 442.6155090332031 156.12440490722656 440.2690124511719 C 156.60064697265625 437.78668212890625 156.98504638671875 435.32373046875 157.57269287109375 432.9770812988281 C 158.1026611328125 430.6721496582031 158.64926147460938 428.4122009277344 159.19281005859375 426.22662353515625 C 159.7355194091797 424.0853576660156 160.3200225830078 421.88043212890625 160.87010192871094 419.6269226074219 C 161.4763946533203 417.33416748046875 162.02783203125 415.001953125 162.52891540527344 412.7517395019531 C 163.05079650878906 410.63409423828125 163.54571533203125 408.65380859375 163.96005249023438 406.8356018066406 C 164.30296325683594 405.1499328613281 164.6935577392578 403.49053955078125 165.07040405273438 401.8215026855469 C 165.38368225097656 400.132080078125 165.91802978515625 398.4382629394531 167.0587615966797 396.63775634765625 C 169.0281982421875 394.8655090332031 171.4395751953125 393.3052673339844 174.32635498046875 392.35052490234375 C 177.75381469726562 392.88604736328125 181.3585205078125 393.90814208984375 179.46885681152344 385.3814697265625" stroke-width="0.0" fill="rgb(1, 1, 4)" opacity="0.9998892" stroke="rgb(8, 77, 31)" stroke-opacity="0.28334025" stroke-linecap="round" stroke-linejoin="round"/>
    <path d="M 319.6888122558594 123.19818115234375 C 321.8059387207031 124.54827880859375 323.74432373046875 125.78868865966797 325.221923828125 126.65814971923828 C 326.4169006347656 127.39967346191406 327.4367370605469 128.0439453125 328.4094543457031 128.5307159423828 C 329.3392639160156 129.10813903808594 330.219482421875 129.73910522460938 331.095947265625 130.28929138183594 C 331.9404602050781 130.8547821044922 332.78826904296875 131.3727264404297 333.60418701171875 131.905029296875 C 334.3875732421875 132.44163513183594 335.2041320800781 132.9512176513672 336.0774841308594 133.4674835205078 C 337.0010986328125 134.05979919433594 337.9486389160156 134.71200561523438 338.9681396484375 135.4095458984375 C 340.0477600097656 136.1412353515625 341.1197509765625 136.86277770996094 342.1683654785156 137.5641632080078 C 343.19635009765625 138.311767578125 344.24542236328125 139.05470275878906 345.3611145019531 139.74708557128906 C 346.45574951171875 140.56729125976562 347.5660400390625 141.3467254638672 348.66766357421875 142.16836547851562 C 349.74700927734375 142.9058074951172 350.8387451171875 143.64988708496094 351.9615173339844 144.33975219726562 C 353.0792541503906 144.9625244140625 354.12823486328125 145.76141357421875 355.1352844238281 146.54249572753906 C 356.1496887207031 147.37379455566406 357.2561340332031 148.25010681152344 358.3612976074219 149.1707000732422 C 359.316162109375 150.0445098876953 360.26483154296875 150.73275756835938 361.2591552734375 151.45620727539062 C 362.18902587890625 152.1282196044922 362.97528076171875 152.8634796142578 363.70379638671875 153.62918090820312 C 364.44171142578125 154.3162078857422 365.224365234375 155.08578491210938 366.1578369140625 155.8387908935547 C 367.1846618652344 156.62498474121094 368.2277526855469 157.4744873046875 369.2882995605469 158.4190673828125 C 370.3755187988281 159.4379425048828 371.3474426269531 160.4388885498047 372.14312744140625 161.39431762695312 C 372.73583984375 162.3347625732422 373.0247497558594 163.21986389160156 372.91754150390625 163.9727783203125 C 372.4753723144531 164.53726196289062 371.77581787109375 164.86253356933594 370.89154052734375 164.92628479003906 C 369.8882751464844 164.7483673095703 368.7946472167969 164.36041259765625 367.6164245605469 163.73828125 C 366.4668884277344 162.9380645751953 365.36285400390625 162.03146362304688 364.24029541015625 161.1343994140625 C 363.0979309082031 160.16958618164062 362.0567626953125 159.17877197265625 361.0946960449219 158.22079467773438 C 360.14892578125 157.35186767578125 359.14312744140625 156.56317138671875 358.14874267578125 155.82627868652344 C 357.2199401855469 155.1190948486328 356.3716735839844 154.36500549316406 355.5623779296875 153.66488647460938 C 354.7782897949219 152.91915893554688 353.9431457519531 152.2042694091797 352.9773254394531 151.44955444335938 C 351.9083557128906 150.64093017578125 350.8300476074219 149.72540283203125 349.7353820800781 148.77732849121094 C 348.47698974609375 147.8462371826172 347.14813232421875 146.91014099121094 345.90087890625 145.95115661621094 C 344.6752624511719 144.9297637939453 343.5246887207031 143.98155212402344 342.4136657714844 143.1803741455078 C 341.3917541503906 142.26934814453125 340.34808349609375 141.46763610839844 339.24237060546875 140.66696166992188 C 338.18878173828125 139.96485900878906 337.1853332519531 139.24961853027344 336.0702209472656 138.55364990234375 C 334.8757629394531 137.795654296875 333.8888244628906 136.99008178710938 332.9624938964844 136.14552307128906 C 331.9666442871094 135.43919372558594 331.0360412597656 134.84954833984375 330.3216552734375 134.29505920410156 C 329.6607360839844 133.7555389404297 329.1006164550781 133.33726501464844 328.5934143066406 133.04444885253906 C 328.0612487792969 132.7005157470703 327.4239807128906 132.2815399169922 326.79046630859375 131.8422088623047 C 326.1033935546875 131.36386108398438 325.43133544921875 130.85311889648438 324.6674499511719 130.40936279296875 C 323.7276916503906 129.78273010253906 322.5387268066406 129.0365753173828 320.9288635253906 128.0555419921875 C 318.94854736328125 126.97554016113281 316.7129211425781 125.91563415527344 319.6888122558594 123.19818115234375" stroke-width="0.0" fill="rgb(227, 231, 243)" opacity="0.99992406" stroke="rgb(250, 123, 136)" stroke-opacity="0.65751" stroke-linecap="round" stroke-linejoin="round"/>
    <path d="M 101.31200408935547 190.8105010986328 C 101.553955078125 194.45004272460938 101.72689056396484 197.74183654785156 101.85926055908203 200.56817626953125 C 101.99472045898438 202.82093811035156 102.16145324707031 204.56483459472656 102.24302673339844 205.96115112304688 C 102.26380920410156 207.18052673339844 102.3770980834961 208.22811889648438 102.50637817382812 209.17457580566406 C 102.56697845458984 210.13751220703125 102.60418701171875 211.07769775390625 102.7025146484375 211.92514038085938 C 102.81021118164062 212.8197021484375 102.89741516113281 213.69590759277344 102.89598083496094 214.52554321289062 C 102.92736053466797 215.3614044189453 102.96874237060547 216.2110595703125 102.9759292602539 217.08628845214844 C 103.05172729492188 218.01829528808594 103.1646728515625 219.0338134765625 103.2655029296875 220.1468505859375 C 103.39542388916016 221.3292999267578 103.55340576171875 222.54629516601562 103.65229034423828 223.74183654785156 C 103.6971664428711 224.95193481445312 103.81375122070312 226.12974548339844 103.85269165039062 227.26873779296875 C 103.83186340332031 228.36170959472656 104.03419494628906 229.30194091796875 104.23051452636719 230.1192169189453 C 104.2517318725586 230.8257598876953 104.24299621582031 231.39227294921875 104.1657485961914 231.8522186279297 C 104.1814193725586 232.3219757080078 104.35574340820312 232.77386474609375 104.58429718017578 233.27072143554688 C 104.75094604492188 233.94618225097656 104.97867584228516 234.7812957763672 105.14713287353516 235.69566345214844 C 105.35492706298828 236.698974609375 105.57423400878906 237.8196258544922 105.70689392089844 238.9314727783203 C 105.82659149169922 240.00758361816406 106.02455139160156 241.08816528320312 106.1708984375 242.106689453125 C 106.37501525878906 243.22320556640625 106.5307388305664 244.48965454101562 106.59506225585938 245.90650939941406 C 106.92009735107422 247.47926330566406 107.69022369384766 249.0775909423828 109.38023376464844 250.4350128173828 C 111.926513671875 251.08848571777344 114.4376449584961 251.90185546875 115.75531005859375 253.50808715820312 C 114.9999008178711 255.34019470214844 112.70912170410156 256.5574035644531 109.98774719238281 257.6120910644531 C 108.05509948730469 259.4493713378906 106.61029815673828 261.5514221191406 104.91804504394531 262.8252868652344 C 103.22400665283203 262.4471130371094 102.18528747558594 260.7821044921875 102.26750183105469 258.61041259765625 C 103.32171630859375 256.7120666503906 104.28965759277344 255.261474609375 104.42462921142578 254.1134490966797 C 104.15512084960938 253.1865997314453 103.809814453125 252.30323791503906 103.4059829711914 251.39671325683594 C 102.97332763671875 250.43055725097656 102.60353088378906 249.3638916015625 102.29949951171875 248.18455505371094 C 102.01667022705078 246.93946838378906 101.78726959228516 245.67080688476562 101.46379089355469 244.39344787597656 C 101.25312042236328 243.1009063720703 101.03282928466797 241.77281188964844 100.76827239990234 240.3948516845703 C 100.5406494140625 238.95823669433594 100.28501892089844 237.4698028564453 100.127197265625 235.9599609375 C 100.0135269165039 234.50807189941406 99.99667358398438 233.2370147705078 100.09259796142578 232.1710205078125 C 100.21842193603516 231.3182830810547 100.30128479003906 230.79908752441406 100.26069641113281 230.4370574951172 C 100.1005859375 230.030517578125 99.8702163696289 229.50331115722656 99.64854431152344 228.69638061523438 C 99.45962524414062 227.6363983154297 99.30380249023438 226.38165283203125 99.22946166992188 225.03599548339844 C 99.24616241455078 223.6807861328125 99.20571899414062 222.35952758789062 99.08055877685547 221.11878967285156 C 98.90294647216797 219.97171020507812 98.73782348632812 218.87232971191406 98.59613800048828 217.8711395263672 C 98.4887466430664 216.88414001464844 98.43994140625 215.920166015625 98.40665435791016 214.95816040039062 C 98.35841369628906 214.0303192138672 98.29452514648438 213.15345764160156 98.26512145996094 212.35107421875 C 98.25983428955078 211.5849609375 98.25668334960938 210.8705596923828 98.2225112915039 210.23822021484375 C 98.15203857421875 209.6687774658203 98.09790802001953 209.00563049316406 98.14110565185547 208.288330078125 C 98.1604995727539 207.3876190185547 98.12078094482422 206.19601440429688 98.0942153930664 204.69619750976562 C 98.20195770263672 202.8550567626953 98.29535675048828 200.5039825439453 98.23332977294922 197.7547607421875 C 97.97551727294922 194.62286376953125 97.48274230957031 191.35552978515625 101.31200408935547 190.8105010986328" stroke-width="0.0" fill="rgb(226, 229, 239)" opacity="0.9999308" stroke="rgb(238, 226, 165)" stroke-opacity="0.45140472" stroke-linecap="round" stroke-linejoin="round"/>
    <path d="M 94.81623077392578 57.3563117980957 C 95.5813980102539 57.5888557434082 96.27973937988281 57.772483825683594 97.03807067871094 58.01856231689453 C 97.987060546875 58.23704528808594 99.07803344726562 58.545257568359375 100.17527770996094 58.93321228027344 C 101.38311767578125 59.269657135009766 102.57925415039062 59.68694305419922 103.69184875488281 59.907901763916016 C 104.79317474365234 60.040016174316406 105.7586441040039 60.13719940185547 106.52706909179688 60.4000244140625 C 107.10455322265625 60.84649658203125 107.54891204833984 61.45453643798828 107.80345153808594 62.176841735839844 C 107.95199584960938 62.89433670043945 108.14019012451172 63.67204666137695 108.36416625976562 64.43377685546875 C 108.56700897216797 65.09481048583984 108.77702331542969 65.7965316772461 109.06544494628906 66.46503448486328 C 109.38565063476562 67.19207000732422 109.68453216552734 68.04822540283203 109.95206451416016 68.98958587646484 C 110.21723937988281 70.0270004272461 110.44902801513672 71.16043090820312 110.6510009765625 72.32081604003906 C 110.925537109375 73.48641204833984 111.30180358886719 74.59426879882812 111.77193450927734 75.57050323486328 C 112.3523178100586 76.37199401855469 113.04156494140625 76.99639129638672 113.86815643310547 77.36450958251953 C 114.92133331298828 77.62239837646484 116.06263732910156 77.6830062866211 117.3561782836914 77.71905517578125 C 118.59845733642578 77.87470245361328 119.69818878173828 78.14930725097656 120.69088745117188 78.43268585205078 C 121.40383911132812 78.72938537597656 121.6881103515625 79.09424591064453 121.76349639892578 79.63310241699219 C 121.60403442382812 80.31446075439453 121.43975067138672 81.04957580566406 121.21358489990234 81.7424087524414 C 120.9422836303711 82.27034759521484 120.88512420654297 82.68919372558594 121.16378784179688 83.02276611328125 C 121.71749877929688 83.1734619140625 122.51665496826172 83.146728515625 123.49291229248047 83.04093933105469 C 124.57856750488281 82.78101348876953 125.6619644165039 82.520263671875 126.61727905273438 82.42346954345703 C 127.35126495361328 82.59829711914062 127.79592895507812 83.13652038574219 128.06674194335938 83.92231750488281 C 128.42037963867188 84.7243881225586 128.91209411621094 85.51663970947266 129.4093017578125 86.2642593383789 C 129.95408630371094 87.06722259521484 130.40338134765625 87.86029052734375 130.71493530273438 88.73833465576172 C 130.915283203125 89.63059997558594 130.95962524414062 90.38032531738281 130.7076873779297 91.13034057617188 C 130.2191925048828 91.63662719726562 129.49478149414062 92.1454849243164 128.50863647460938 92.55939483642578 C 127.39368438720703 92.89485168457031 126.19542694091797 93.3214340209961 124.91033935546875 93.78929901123047 C 123.68595123291016 94.27628326416016 122.57582092285156 94.89358520507812 121.60677337646484 95.60719299316406 C 120.97161102294922 96.31143188476562 120.51835632324219 96.9677734375 120.39173126220703 97.41242218017578 C 120.40718078613281 97.59270477294922 120.37728118896484 97.5151138305664 120.27571868896484 97.18329620361328 C 119.94546508789062 96.59434509277344 119.44747924804688 95.82378387451172 118.88685607910156 95.00299835205078 C 118.22273254394531 94.25444030761719 117.64100646972656 93.73021697998047 117.12208557128906 93.5223388671875 C 116.65076446533203 93.7136001586914 116.25133514404297 94.1549301147461 115.93579864501953 94.88414764404297 C 115.5969467163086 95.76805114746094 115.11688232421875 96.57493591308594 114.52523803710938 97.39289093017578 C 113.66725158691406 98.01397705078125 112.67011260986328 98.38643646240234 111.56973266601562 98.6941909790039 C 110.370849609375 98.85918426513672 109.17448425292969 98.94873046875 108.0732192993164 99.19587707519531 C 107.17118835449219 99.65214538574219 106.5180435180664 100.31510162353516 106.10575866699219 101.03109741210938 C 105.7800521850586 101.76277923583984 105.51104736328125 102.34090423583984 105.21556091308594 102.94051361083984 C 104.80610656738281 103.4161376953125 104.25389099121094 103.9549789428711 103.46595001220703 104.52103424072266 C 102.4304428100586 105.14130401611328 101.18846130371094 105.82553100585938 99.7786636352539 106.4259033203125 C 98.27019500732422 106.93196105957031 96.83483123779297 107.33487701416016 95.49773406982422 107.58113098144531 C 94.30939483642578 107.61610412597656 93.37696838378906 107.42556762695312 92.6703872680664 106.99706268310547 C 92.07608795166016 106.20110321044922 91.6649398803711 105.14291381835938 91.39124298095703 103.72175598144531 C 91.22725677490234 102.03441619873047 91.15007781982422 100.21747589111328 91.09059143066406 98.30836486816406 C 91.0705795288086 96.40473175048828 91.0384750366211 94.63836669921875 91.05393981933594 92.97527313232422 C 91.1273193359375 91.45951080322266 91.12664031982422 90.11396789550781 91.1362075805664 88.88002014160156 C 91.16905975341797 87.7106704711914 91.19698333740234 86.64803314208984 91.27538299560547 85.73165893554688 C 91.52909088134766 84.86893463134766 91.8011474609375 84.10476684570312 92.21489715576172 83.53170013427734 C 92.62787628173828 83.17085266113281 93.05150604248047 83.09867095947266 93.51825714111328 83.41345977783203 C 94.03011322021484 84.18535614013672 94.58442687988281 85.27538299560547 95.24224853515625 86.71757507324219 C 96.03477478027344 88.30931854248047 96.91173553466797 89.93673706054688 97.93882751464844 91.55485534667969 C 99.11206817626953 93.10802459716797 100.39042663574219 94.4369888305664 101.78559112548828 95.55836486816406 C 103.19818878173828 96.43952178955078 104.55198669433594 96.95756530761719 105.73727416992188 97.10726928710938 C 106.54669952392578 96.72357177734375 106.86691284179688 95.92625427246094 106.66258239746094 94.81216430664062 C 105.9947509765625 93.40715026855469 105.02579498291016 91.80657958984375 103.95108032226562 90.08062744140625 C 102.91885375976562 88.21192932128906 101.99761199951172 86.25341033935547 101.21431732177734 84.27840423583984 C 100.58246612548828 82.28771209716797 100.0777587890625 80.3007583618164 99.64888000488281 78.46013641357422 C 99.26519012451172 76.77017974853516 98.8725357055664 75.22061920166016 98.44815063476562 73.95375061035156 C 97.98343658447266 72.86051940917969 97.52057647705078 71.97482299804688 97.10687255859375 71.26107788085938 C 96.75918579101562 70.59020233154297 96.4324951171875 69.91622161865234 96.21416473388672 69.23798370361328 C 96.0621566772461 68.40306091308594 95.91065979003906 67.50841522216797 95.7807846069336 66.5448226928711 C 95.65145111083984 65.4426498413086 95.53272247314453 64.30213928222656 95.47244262695312 63.03872299194336 C 95.46121215820312 61.700260162353516 95.49604034423828 60.4793586730957 94.81623077392578 57.3563117980957" stroke-width="0.0" fill="rgb(208, 214, 229)" opacity="0.99971867" stroke="rgb(106, 83, 228)" stroke-opacity="0.5722242" stroke-linecap="round" stroke-linejoin="round"/>
    <path d="M 240.04959106445312 436.44586181640625 C 241.97560119628906 436.6643981933594 243.7420196533203 436.5615234375 245.18060302734375 435.9664611816406 C 246.18797302246094 435.0362243652344 247.00442504882812 434.1337585449219 247.80123901367188 433.635986328125 C 248.8377227783203 433.7355041503906 250.13697814941406 433.9898986816406 251.4154052734375 434.4549865722656 C 252.58583068847656 435.1279602050781 253.20712280273438 435.84649658203125 253.30787658691406 436.5315246582031 C 252.72650146484375 437.02239990234375 252.0677032470703 437.2718811035156 251.6287384033203 437.298095703125 C 251.70159912109375 437.2056579589844 252.144775390625 437.102783203125 252.95423889160156 437.1874694824219 C 253.66424560546875 437.72674560546875 254.2002716064453 438.72723388671875 254.52587890625 440.0018005371094 C 254.69383239746094 441.49810791015625 254.82952880859375 443.0918884277344 254.87733459472656 444.5050964355469 C 254.93450927734375 445.79248046875 254.9663848876953 446.97027587890625 254.97523498535156 447.89111328125 C 254.943359375 448.7146301269531 254.6582794189453 449.3824157714844 253.9901580810547 449.8874816894531 C 252.99429321289062 450.3236389160156 251.75401306152344 450.6814270019531 250.30723571777344 451.0365295410156 C 248.80068969726562 451.3201904296875 247.31988525390625 451.5821838378906 245.9129638671875 451.7244567871094 C 244.5891571044922 451.71502685546875 243.40859985351562 451.5888977050781 242.22740173339844 451.336669921875 C 241.1126251220703 450.9631652832031 240.0910186767578 450.48876953125 239.13735961914062 449.9847412109375 C 238.2445526123047 449.4593811035156 237.3940887451172 448.8582458496094 236.57850646972656 448.2862548828125 C 235.89271545410156 447.5353088378906 235.40904235839844 446.6156921386719 235.21810913085938 445.4671936035156 C 235.37680053710938 444.1391296386719 235.8746337890625 442.739013671875 236.61257934570312 441.33587646484375 C 237.3621063232422 439.9371337890625 238.0744171142578 438.6595458984375 238.62550354003906 437.6317138671875 C 239.19915771484375 436.892333984375 239.59742736816406 436.39117431640625 240.04232788085938 436.15338134765625 C 240.43125915527344 436.1783447265625 240.77993774414062 436.3121337890625 241.28665161132812 436.5650939941406 C 241.73390197753906 436.79376220703125 242.2409210205078 436.9830322265625 242.81301879882812 436.9951171875 C 243.53823852539062 436.90264892578125 244.4586639404297 436.7372741699219 245.48780822753906 436.33416748046875 C 246.43301391601562 435.60223388671875 246.767333984375 434.2707824707031 245.97718811035156 432.088134765625 C 244.37112426757812 429.1435852050781 242.38888549804688 425.79486083984375 240.04959106445312 436.44586181640625" stroke-width="0.0" fill="rgb(76, 153, 118)" opacity="1.0" stroke="rgb(171, 58, 125)" stroke-opacity="0.16336343" stroke-linecap="round" stroke-linejoin="round"/>
    <path d="M 238.7743682861328 447.2845458984375 C 239.6218719482422 447.8442687988281 240.4009246826172 448.23541259765625 241.1682586669922 448.593505859375 C 241.9379119873047 448.7379150390625 242.71957397460938 448.86773681640625 243.57228088378906 448.99395751953125 C 244.4334716796875 449.0970153808594 245.34800720214844 449.27716064453125 246.28111267089844 449.4722900390625 C 247.2643585205078 449.6059265136719 248.25694274902344 449.6841125488281 249.33218383789062 449.7314453125 C 250.4698486328125 449.6643981933594 251.5916290283203 449.62158203125 252.6954803466797 449.5436096191406 C 253.618408203125 449.71783447265625 254.29965209960938 450.21710205078125 254.5537109375 451.1767272949219 C 254.45779418945312 452.53497314453125 254.09429931640625 454.1070556640625 253.532470703125 455.7208557128906 C 252.95254516601562 457.2173767089844 252.383056640625 458.4516296386719 251.86489868164062 459.4326477050781 C 251.4992218017578 460.1817626953125 251.20164489746094 460.70355224609375 250.93704223632812 461.0507507324219 C 250.67654418945312 461.364013671875 250.29637145996094 461.8240661621094 249.67440795898438 462.4962463378906 C 248.80935668945312 463.2642822265625 247.63502502441406 464.2115173339844 246.12327575683594 465.0585632324219 C 244.36439514160156 465.62921142578125 242.48089599609375 465.9883728027344 240.5972900390625 465.9067687988281 C 238.8124237060547 465.55938720703125 237.2199249267578 464.9140625 235.8299560546875 464.04095458984375 C 234.65692138671875 463.2818298339844 233.80838012695312 462.4410705566406 233.12442016601562 461.5553894042969 C 232.56935119628906 460.8204650878906 232.09938049316406 460.1573181152344 231.6764678955078 459.4476318359375 C 231.28379821777344 458.67388916015625 230.8421173095703 457.88629150390625 230.2826690673828 457.0060119628906 C 229.76356506347656 455.9764709472656 229.25238037109375 454.855712890625 228.74166870117188 453.75048828125 C 228.3356170654297 452.7258605957031 228.1296844482422 451.8223571777344 228.1599884033203 451.0776672363281 C 228.41961669921875 450.4300231933594 228.80787658691406 449.79034423828125 229.1868438720703 448.93719482421875 C 229.48297119140625 447.92877197265625 229.7665557861328 446.78240966796875 238.7743682861328 447.2845458984375" stroke-width="0.0" fill="rgb(48, 105, 81)" opacity="1.0" stroke="rgb(246, 160, 202)" stroke-opacity="0.6008884" stroke-linecap="round" stroke-linejoin="round"/>
    <path d="M 378.9088134765625 167.08338928222656 C 379.2842102050781 167.0935516357422 379.72259521484375 167.05609130859375 380.36358642578125 166.93887329101562 C 381.1496276855469 166.99697875976562 382.1423645019531 167.15066528320312 383.22711181640625 167.52134704589844 C 384.1617431640625 168.1370391845703 384.7905578613281 169.05877685546875 384.95068359375 170.09690856933594 C 384.4363098144531 170.9879913330078 383.4939270019531 171.71971130371094 382.4002685546875 172.25747680664062 C 381.2694091796875 172.6353302001953 380.1557922363281 172.84356689453125 379.1463928222656 172.92430114746094 C 378.2362976074219 172.96107482910156 377.3063659667969 172.91444396972656 376.3798522949219 172.73646545410156 C 375.4934997558594 172.36358642578125 374.64227294921875 171.93121337890625 373.8679504394531 171.38511657714844 C 373.1572570800781 170.83984375 372.3328552246094 170.58094787597656 371.3526916503906 170.82493591308594 C 370.117919921875 171.73728942871094 368.5417785644531 173.0464630126953 366.67681884765625 174.30227661132812 C 364.7134704589844 174.96791076660156 362.91412353515625 174.73402404785156 361.72406005859375 173.537109375 C 361.5296325683594 171.67433166503906 362.1321716308594 169.81980895996094 363.25201416015625 168.5469512939453 C 364.502685546875 168.21653747558594 365.4486999511719 168.63429260253906 365.8205261230469 169.2706756591797 C 365.7057189941406 169.60452270507812 365.3816223144531 169.45526123046875 365.1096496582031 168.76358032226562 C 365.3056335449219 167.7906494140625 366.18878173828125 166.52096557617188 367.5779113769531 164.94105529785156 C 369.170166015625 162.98843383789062 370.7124328613281 160.97857666015625 378.9088134765625 167.08338928222656" stroke-width="0.0" fill="rgb(229, 233, 243)" opacity="0.9999393" stroke="rgb(220, 77, 154)" stroke-opacity="0.15821405" stroke-linecap="round" stroke-linejoin="round"/>
    <path d="M 64.0 275.0 C 64.0 276.0 64.0 277.0 64.0 278.0 C 64.0 279.0 64.0 280.0 65.0 281.0 C 65.0 282.0 65.0 283.0 65.0 284.0 C 65.0 285.0 65.0 286.0 65.0 287.0 C 65.0 288.0 66.0 289.0 66.0 290.0 C 66.0 291.0 66.0 292.0 66.0 293.0 C 66.0 294.0 67.0 295.0 67.0 296.0 C 67.0 297.0 67.0 298.0 67.0 299.0 C 68.0 300.0 68.0 301.0 68.0 302.0 C 68.0 303.0 68.0 304.0 68.0 305.0 C 68.0 306.0 68.0 307.0 69.0 308.0 C 69.0 309.0 69.0 310.0 69.0 311.0 C 69.0 312.0 69.0 313.0 69.0 314.0 C 69.0 315.0 69.0 316.0 70.0 317.0 C 70.0 318.0 70.0 319.0 70.0 320.0 C 70.0 321.0 70.0 322.0 71.0 323.0 C 71.0 324.0 71.0 325.0 71.0 326.0 C 71.0 327.0 71.0 328.0 71.0 329.0 C 72.0 330.0 72.0 331.0 72.0 332.0 C 72.0 333.0 72.0 334.0 72.0 335.0 C 73.0 336.0 73.0 337.0 73.0 338.0 C 74.0 339.0 75.0 340.0 76.0 341.0 C 77.0 341.0 78.0 341.0 79.0 341.0 C 80.0 342.0 80.0 343.0 80.0 344.0 C 79.0 345.0 78.0 346.0 77.0 346.0 C 76.0 346.0 75.0 346.0 74.0 346.0 C 73.0 345.0 72.0 345.0 71.0 345.0 C 70.0 346.0 69.0 346.0 68.0 346.0 C 68.0 345.0 68.0 344.0 69.0 343.0 C 70.0 342.0 69.0 341.0 69.0 340.0 C 69.0 339.0 69.0 338.0 69.0 337.0 C 69.0 336.0 69.0 335.0 68.0 334.0 C 68.0 333.0 68.0 332.0 68.0 331.0 C 68.0 330.0 68.0 329.0 68.0 328.0 C 67.0 327.0 67.0 326.0 67.0 325.0 C 67.0 324.0 67.0 323.0 67.0 322.0 C 67.0 321.0 67.0 320.0 67.0 319.0 C 67.0 318.0 66.0 317.0 66.0 316.0 C 66.0 315.0 66.0 314.0 66.0 313.0 C 66.0 312.0 66.0 311.0 66.0 310.0 C 65.0 309.0 65.0 308.0 65.0 307.0 C 65.0 306.0 65.0 305.0 64.0 304.0 C 64.0 303.0 64.0 302.0 64.0 301.0 C 64.0 300.0 64.0 299.0 64.0 298.0 C 64.0 297.0 63.0 296.0 63.0 295.0 C 63.0 294.0 63.0 293.0 63.0 292.0 C 63.0 291.0 63.0 290.0 63.0 289.0 C 63.0 288.0 63.0 287.0 62.0 286.0 C 62.0 285.0 62.0 284.0 62.0 283.0 C 62.0 282.0 62.0 281.0 62.0 280.0 C 62.0 279.0 62.0 278.0 62.0 277.0 C 62.0 276.0 62.0 275.0 64.0 275.0" stroke-width="0.0" fill="rgb(158, 164, 185)" opacity="1.0" stroke="rgb(34, 141, 36)" stroke-opacity="0.37923375" stroke-linecap="round" stroke-linejoin="round"/>
    <path d="M 264.0 192.0 C 265.0 192.0 266.0 193.0 266.0 194.0 C 266.0 195.0 265.0 195.0 264.0 196.0 C 263.0 196.0 262.0 196.0 261.0 196.0 C 260.0 196.0 259.0 196.0 258.0 195.0 C 257.0 195.0 256.0 196.0 255.0 197.0 C 254.0 198.0 254.0 199.0 253.0 200.0 C 252.0 201.0 251.0 202.0 251.0 201.0 C 251.0 200.0 251.0 199.0 250.0 198.0 C 249.0 198.0 249.0 197.0 250.0 196.0 C 251.0 196.0 252.0 195.0 253.0 194.0 C 254.0 194.0 255.0 194.0 256.0 193.0 C 257.0 193.0 258.0 193.0 259.0 193.0 C 260.0 193.0 261.0 192.0 264.0 192.0" stroke-width="0.0" fill="rgb(232, 237, 246)" opacity="1.0" stroke="rgb(27, 184, 54)" stroke-opacity="0.15219797" stroke-linecap="round" stroke-linejoin="round"/>
    <path d="M 318.0 81.0 C 319.0 81.0 320.0 81.0 321.0 81.0 C 322.0 82.0 323.0 82.0 324.0 82.0 C 325.0 82.0 326.0 83.0 327.0 83.0 C 328.0 83.0 328.0 84.0 328.0 85.0 C 327.0 86.0 326.0 86.0 325.0 87.0 C 324.0 87.0 323.0 88.0 322.0 88.0 C 321.0 89.0 320.0 89.0 319.0 90.0 C 318.0 90.0 317.0 90.0 316.0 91.0 C 315.0 91.0 314.0 91.0 313.0 91.0 C 312.0 91.0 311.0 91.0 310.0 91.0 C 309.0 91.0 308.0 91.0 307.0 91.0 C 307.0 90.0 307.0 89.0 308.0 89.0 C 309.0 89.0 310.0 88.0 311.0 88.0 C 312.0 87.0 313.0 87.0 314.0 86.0 C 315.0 85.0 316.0 84.0 316.0 83.0 C 317.0 82.0 317.0 81.0 318.0 81.0" stroke-width="0.0" fill="rgb(183, 169, 190)" opacity="1.0" stroke="rgb(82, 138, 30)" stroke-opacity="0.8658925" stroke-linecap="round" stroke-linejoin="round"/>
    <path d="M 3.0 435.0 C 4.0 435.0 5.0 435.0 6.0 435.0 C 7.0 435.0 8.0 435.0 9.0 435.0 C 10.0 436.0 11.0 436.0 12.0 436.0 C 13.0 436.0 13.0 437.0 12.0 438.0 C 12.0 439.0 11.0 439.0 10.0 439.0 C 9.0 438.0 8.0 438.0 7.0 438.0 C 6.0 439.0 6.0 440.0 6.0 441.0 C 7.0 442.0 7.0 443.0 8.0 444.0 C 9.0 444.0 10.0 444.0 11.0 443.0 C 12.0 443.0 13.0 443.0 12.0 443.0 C 11.0 444.0 10.0 445.0 9.0 446.0 C 8.0 447.0 7.0 448.0 6.0 448.0 C 5.0 449.0 5.0 450.0 4.0 450.0 C 3.0 451.0 3.0 452.0 2.0 453.0 C 1.0 454.0 0.0 454.0 0.0 453.0 C 0.0 452.0 0.0 451.0 0.0 450.0 C 0.0 449.0 0.0 448.0 0.0 447.0 C 0.0 446.0 1.0 446.0 2.0 445.0 C 2.0 444.0 2.0 443.0 1.0 442.0 C 0.0 442.0 0.0 441.0 0.0 440.0 C 0.0 439.0 0.0 438.0 0.0 437.0 C 0.0 436.0 0.0 435.0 3.0 435.0" stroke-width="0.0" fill="rgb(76, 155, 118)" opacity="1.0" stroke="rgb(252, 144, 148)" stroke-opacity="0.70249873" stroke-linecap="round" stroke-linejoin="round"/>
    <path d="M 191.0 334.0 C 191.0 335.0 191.0 336.0 191.0 337.0 C 191.0 338.0 190.0 338.0 189.0 339.0 C 189.0 340.0 188.0 341.0 187.0 342.0 C 186.0 343.0 186.0 344.0 185.0 345.0 C 184.0 346.0 183.0 347.0 182.0 348.0 C 181.0 349.0 180.0 350.0 179.0 351.0 C 178.0 351.0 178.0 350.0 178.0 349.0 C 178.0 348.0 178.0 347.0 179.0 346.0 C 179.0 345.0 180.0 345.0 181.0 344.0 C 182.0 343.0 182.0 342.0 183.0 341.0 C 184.0 340.0 184.0 339.0 185.0 338.0 C 186.0 337.0 187.0 336.0 187.0 335.0 C 188.0 334.0 189.0 333.0 191.0 334.0" stroke-width="0.0" fill="rgb(92, 96, 99)" opacity="1.0" stroke="rgb(252, 13, 90)" stroke-opacity="0.037377916" stroke-linecap="round" stroke-linejoin="round"/>
    <path d="M 160.0 71.0 C 161.0 71.0 162.0 72.0 163.0 72.0 C 164.0 73.0 165.0 74.0 166.0 75.0 C 166.0 76.0 167.0 77.0 168.0 78.0 C 168.0 79.0 168.0 80.0 167.0 81.0 C 166.0 81.0 165.0 81.0 164.0 82.0 C 163.0 82.0 162.0 82.0 161.0 82.0 C 160.0 82.0 160.0 81.0 159.0 80.0 C 158.0 79.0 158.0 78.0 157.0 77.0 C 157.0 76.0 156.0 75.0 156.0 74.0 C 156.0 73.0 157.0 73.0 158.0 73.0 C 159.0 72.0 159.0 71.0 160.0 71.0" stroke-width="0.0" fill="rgb(0, 0, 1)" opacity="1.0" stroke="rgb(61, 84, 243)" stroke-opacity="0.19994083" stroke-linecap="round" stroke-linejoin="round"/>
    <path d="M 90.0 336.0 C 90.0 337.0 90.0 338.0 89.0 339.0 C 89.0 340.0 88.0 341.0 87.0 342.0 C 87.0 343.0 87.0 344.0 86.0 345.0 C 85.0 345.0 84.0 345.0 84.0 344.0 C 84.0 343.0 84.0 342.0 84.0 341.0 C 83.0 340.0 83.0 339.0 83.0 338.0 C 84.0 337.0 85.0 337.0 86.0 336.0 C 87.0 336.0 88.0 335.0 90.0 336.0" stroke-width="0.0" fill="rgb(183, 234, 248)" opacity="1.0" stroke="rgb(67, 92, 245)" stroke-opacity="0.9434559" stroke-linecap="round" stroke-linejoin="round"/>
    <path d="M 71.0 375.0 C 71.0 376.0 71.0 377.0 71.0 378.0 C 70.0 379.0 70.0 380.0 69.0 381.0 C 69.0 382.0 69.0 383.0 68.0 383.0 C 67.0 383.0 66.0 383.0 65.0 383.0 C 64.0 383.0 63.0 383.0 63.0 382.0 C 63.0 381.0 64.0 381.0 65.0 380.0 C 66.0 379.0 67.0 378.0 67.0 377.0 C 68.0 376.0 69.0 375.0 71.0 375.0" stroke-width="0.0" fill="rgb(173, 231, 245)" opacity="1.0" stroke="rgb(136, 30, 140)" stroke-opacity="0.7241933" stroke-linecap="round" stroke-linejoin="round"/>
    <path d="M 355.0 222.0 C 355.0 223.0 356.0 224.0 357.0 225.0 C 358.0 225.0 359.0 225.0 360.0 225.0 C 361.0 225.0 362.0 225.0 363.0 226.0 C 363.0 227.0 363.0 228.0 362.0 229.0 C 361.0 229.0 360.0 229.0 359.0 228.0 C 358.0 228.0 357.0 228.0 356.0 229.0 C 356.0 230.0 355.0 231.0 355.0 232.0 C 355.0 233.0 354.0 234.0 354.0 235.0 C 353.0 236.0 352.0 236.0 351.0 236.0 C 351.0 235.0 351.0 234.0 351.0 233.0 C 351.0 232.0 352.0 231.0 353.0 230.0 C 354.0 229.0 354.0 228.0 354.0 227.0 C 354.0 226.0 354.0 225.0 353.0 224.0 C 353.0 223.0 353.0 222.0 355.0 222.0" stroke-width="0.0" fill="rgb(144, 152, 170)" opacity="1.0" stroke="rgb(147, 126, 182)" stroke-opacity="0.4738304" stroke-linecap="round" stroke-linejoin="round"/>
    <path d="M 288.0 74.0 C 289.0 75.0 290.0 75.0 291.0 75.0 C 292.0 75.0 293.0 75.0 294.0 75.0 C 295.0 76.0 296.0 76.0 297.0 76.0 C 298.0 76.0 299.0 76.0 300.0 77.0 C 301.0 77.0 302.0 77.0 303.0 77.0 C 304.0 77.0 304.0 78.0 304.0 79.0 C 303.0 79.0 302.0 79.0 301.0 79.0 C 300.0 79.0 299.0 79.0 298.0 79.0 C 297.0 79.0 296.0 79.0 295.0 79.0 C 294.0 80.0 293.0 80.0 292.0 80.0 C 291.0 80.0 290.0 79.0 289.0 78.0 C 288.0 77.0 287.0 76.0 286.0 76.0 C 286.0 75.0 286.0 74.0 288.0 74.0" stroke-width="0.0" fill="rgb(187, 171, 195)" opacity="1.0" stroke="rgb(137, 48, 233)" stroke-opacity="0.79102165" stroke-linecap="round" stroke-linejoin="round"/>
    <path d="M 11.0 296.0 C 11.0 297.0 11.0 298.0 11.0 299.0 C 11.0 300.0 11.0 301.0 11.0 302.0 C 10.0 303.0 10.0 304.0 10.0 305.0 C 10.0 306.0 11.0 307.0 12.0 308.0 C 13.0 308.0 12.0 309.0 12.0 310.0 C 12.0 311.0 12.0 312.0 12.0 313.0 C 12.0 314.0 12.0 315.0 11.0 315.0 C 10.0 315.0 9.0 315.0 8.0 314.0 C 7.0 314.0 8.0 313.0 8.0 312.0 C 8.0 311.0 8.0 310.0 8.0 309.0 C 8.0 308.0 8.0 307.0 8.0 306.0 C 8.0 305.0 8.0 304.0 8.0 303.0 C 9.0 302.0 9.0 301.0 9.0 300.0 C 9.0 299.0 9.0 298.0 9.0 297.0 C 9.0 296.0 9.0 295.0 11.0 296.0" stroke-width="0.0" fill="rgb(226, 231, 242)" opacity="1.0" stroke="rgb(5, 42, 86)" stroke-opacity="0.4879721" stroke-linecap="round" stroke-linejoin="round"/>
    <path d="M 346.0 232.0 C 347.0 232.0 347.0 233.0 347.0 234.0 C 347.0 235.0 347.0 236.0 347.0 237.0 C 346.0 237.0 345.0 237.0 344.0 237.0 C 343.0 237.0 342.0 237.0 341.0 237.0 C 340.0 237.0 339.0 237.0 338.0 237.0 C 338.0 236.0 338.0 235.0 339.0 235.0 C 340.0 234.0 341.0 234.0 342.0 233.0 C 343.0 233.0 344.0 232.0 346.0 232.0" stroke-width="0.0" fill="rgb(160, 222, 249)" opacity="1.0" stroke="rgb(202, 53, 228)" stroke-opacity="0.730848" stroke-linecap="round" stroke-linejoin="round"/>
    <path d="M 17.0 309.0 C 18.0 309.0 19.0 309.0 20.0 309.0 C 21.0 310.0 21.0 311.0 21.0 312.0 C 21.0 313.0 20.0 314.0 19.0 314.0 C 18.0 315.0 17.0 315.0 16.0 315.0 C 15.0 315.0 14.0 315.0 14.0 314.0 C 14.0 313.0 14.0 312.0 14.0 311.0 C 14.0 310.0 14.0 309.0 17.0 309.0" stroke-width="0.0" fill="rgb(223, 232, 244)" opacity="1.0" stroke="rgb(61, 31, 165)" stroke-opacity="0.95455045" stroke-linecap="round" stroke-linejoin="round"/>
    <path d="M 6.0 317.0 C 7.0 317.0 8.0 317.0 8.0 318.0 C 8.0 319.0 8.0 320.0 7.0 321.0 C 7.0 322.0 6.0 323.0 5.0 323.0 C 4.0 323.0 3.0 323.0 3.0 322.0 C 3.0 321.0 3.0 320.0 4.0 319.0 C 4.0 318.0 5.0 317.0 6.0 317.0" stroke-width="0.0" fill="rgb(231, 235, 248)" opacity="1.0" stroke="rgb(90, 229, 47)" stroke-opacity="0.4321246" stroke-linecap="round" stroke-linejoin="round"/>
    <path d="M 247.0 174.0 C 247.0 175.0 248.0 176.0 249.0 176.0 C 249.0 177.0 250.0 178.0 251.0 179.0 C 251.0 180.0 252.0 181.0 252.0 182.0 C 253.0 183.0 254.0 184.0 254.0 185.0 C 254.0 186.0 255.0 187.0 255.0 188.0 C 256.0 189.0 256.0 190.0 256.0 191.0 C 256.0 192.0 255.0 192.0 254.0 192.0 C 253.0 191.0 253.0 190.0 252.0 189.0 C 252.0 188.0 252.0 187.0 251.0 186.0 C 251.0 185.0 250.0 184.0 250.0 183.0 C 249.0 182.0 249.0 181.0 248.0 180.0 C 248.0 179.0 247.0 178.0 247.0 177.0 C 247.0 176.0 246.0 175.0 245.0 175.0 C 245.0 174.0 245.0 173.0 247.0 174.0" stroke-width="0.0" fill="rgb(230, 236, 243)" opacity="1.0" stroke="rgb(242, 32, 67)" stroke-opacity="0.8773113" stroke-linecap="round" stroke-linejoin="round"/>
    <path d="M 18.0 436.0 C 19.0 436.0 19.0 437.0 19.0 438.0 C 18.0 439.0 17.0 439.0 16.0 440.0 C 15.0 441.0 14.0 442.0 13.0 442.0 C 12.0 442.0 11.0 442.0 10.0 443.0 C 9.0 443.0 8.0 443.0 8.0 442.0 C 7.0 441.0 7.0 440.0 7.0 439.0 C 8.0 439.0 9.0 439.0 10.0 440.0 C 11.0 440.0 12.0 440.0 13.0 439.0 C 13.0 438.0 14.0 437.0 15.0 437.0 C 16.0 437.0 17.0 436.0 18.0 436.0" stroke-width="0.0" fill="rgb(47, 111, 77)" opacity="1.0" stroke="rgb(99, 36, 251)" stroke-opacity="0.8777853" stroke-linecap="round" stroke-linejoin="round"/>
  </g>
</svg>
