<?xml version="1.0" ?>
<svg xmlns="http://www.w3.org/2000/svg" version="1.1" width="438" height="481">
  <defs/>
  <g>
    <path d="M 261.0720520019531 69.16825103759766 C 269.66290283203125 69.63727569580078 278.20037841796875 70.33816528320312 286.7875671386719 71.4235610961914 C 295.7132263183594 72.72669982910156 305.3534240722656 74.52849578857422 316.0246887207031 76.97138214111328 C 327.8981018066406 79.934814453125 341.0047607421875 84.05585479736328 355.1199035644531 90.08605194091797 C 369.61981201171875 99.05516815185547 385.0370178222656 109.35090637207031 401.0121765136719 119.92520141601562 C 416.11871337890625 130.94281005859375 428.6927490234375 142.49673461914062 436.84564208984375 154.7091827392578 C 439.14630126953125 167.20587158203125 435.90191650390625 179.22108459472656 428.2167053222656 190.0337371826172 C 417.69683837890625 199.06106567382812 405.66748046875 206.1275634765625 393.36175537109375 211.8487548828125 C 382.0060119628906 217.3066864013672 372.1441345214844 223.0321807861328 363.5319519042969 229.33035278320312 C 355.6172790527344 236.00340270996094 348.3527526855469 243.4703826904297 341.9838562011719 252.5389404296875 C 336.73565673828125 263.8050537109375 332.0533752441406 277.16876220703125 327.0061950683594 292.1306457519531 C 320.37396240234375 307.9261474609375 311.71612548828125 323.8320007324219 301.5730895996094 339.3490905761719 C 290.9727783203125 354.215576171875 280.90008544921875 368.28594970703125 272.2418212890625 381.41949462890625 C 265.1820373535156 393.2712097167969 259.0408935546875 403.1218566894531 253.32579040527344 410.6647033691406 C 248.37945556640625 416.55255126953125 244.61630249023438 421.92486572265625 242.16085815429688 427.7569580078125 C 240.44976806640625 434.26556396484375 238.6310577392578 440.9951477050781 236.4250946044922 447.0252685546875 C 233.62330627441406 451.13848876953125 230.4248046875 452.1396484375 227.07273864746094 449.14471435546875 C 223.6875762939453 442.03662109375 221.1295928955078 431.4065246582031 220.06546020507812 418.0378723144531 C 218.20587158203125 403.2340087890625 215.47390747070312 388.0589904785156 212.85287475585938 373.6234130859375 C 208.05128479003906 362.0971374511719 205.17587280273438 353.2783508300781 209.05699157714844 346.75885009765625 C 220.51345825195312 341.28564453125 236.19105529785156 336.4364929199219 252.55059814453125 331.40789794921875 C 266.1672668457031 325.28680419921875 274.595947265625 318.55560302734375 276.0851745605469 312.7569274902344 C 269.4951477050781 310.25640869140625 257.1047668457031 310.4220886230469 241.2084503173828 312.19305419921875 C 224.13754272460938 315.0021057128906 208.0974884033203 318.9356994628906 195.25743103027344 324.5751953125 C 187.80848693847656 333.0344543457031 182.93429565429688 341.7352600097656 176.8439178466797 347.4219665527344 C 167.0938262939453 348.018798828125 156.02496337890625 347.6162414550781 145.8739471435547 349.7752380371094 C 138.70941162109375 357.1584167480469 135.0528106689453 367.88079833984375 135.14727783203125 379.9089660644531 C 138.9827423095703 391.6274108886719 141.1484832763672 403.2027893066406 139.0146026611328 415.7686767578125 C 135.96717834472656 429.7914733886719 133.60418701171875 444.6248474121094 131.8929901123047 459.2051086425781 C 128.3694305419922 472.1662292480469 121.17900848388672 482.53375244140625 110.17679595947266 489.9739685058594 C 95.94688415527344 494.53265380859375 79.4729995727539 496.32830810546875 61.79863357543945 495.537841796875 C 44.13547134399414 492.4532165527344 27.75004768371582 487.47064208984375 13.985544204711914 480.9827880859375 C 4.276346683502197 473.3529357910156 -0.35551267862319946 465.1986083984375 0.5132901668548584 457.0541076660156 C 6.197229385375977 449.39996337890625 14.532668113708496 442.70684814453125 23.4786319732666 436.92901611328125 C 31.276958465576172 431.6778259277344 36.6727294921875 426.9040222167969 38.4514045715332 422.4918518066406 C 35.61094284057617 418.4060974121094 29.84425163269043 414.5817565917969 22.98231315612793 410.7327880859375 C 16.811372756958008 406.7881774902344 13.056979179382324 403.0320129394531 12.739279747009277 399.6690979003906 C 16.186912536621094 396.7106018066406 23.043607711791992 393.9128112792969 32.448326110839844 390.9382629394531 C 43.2700309753418 387.36199951171875 54.35462951660156 383.0403747558594 64.41230010986328 377.7449951171875 C 72.43148040771484 371.17523193359375 78.21758270263672 363.8809814453125 82.19508361816406 356.93133544921875 C 84.65927124023438 351.66583251953125 84.40245819091797 348.54791259765625 80.17919921875 347.2968444824219 C 71.65911865234375 347.3420715332031 59.633018493652344 348.67230224609375 45.47645950317383 351.28509521484375 C 30.747385025024414 355.3980407714844 17.051963806152344 359.6532897949219 5.728785991668701 361.7386169433594 C -1.9077916145324707 358.573974609375 -6.379008769989014 350.4118957519531 -8.638206481933594 338.3982849121094 C -9.385125160217285 323.57196044921875 -9.028882026672363 306.94940185546875 -7.926204681396484 289.4157409667969 C -6.243734836578369 271.7702941894531 -3.8455605506896973 254.5831756591797 -0.38568341732025146 238.56912231445312 C 4.596104621887207 224.40744018554688 11.619329452514648 212.65574645996094 21.2340087890625 203.78964233398438 C 33.66202926635742 198.13426208496094 48.074806213378906 194.51805114746094 63.01017761230469 190.25193786621094 C 76.93263244628906 182.91201782226562 88.8531494140625 172.31336975097656 97.88996887207031 158.8024444580078 C 103.63560485839844 143.2063446044922 107.56881713867188 127.4096908569336 111.22694396972656 113.4736328125 C 114.9593276977539 103.24974822998047 118.14656829833984 98.2655029296875 119.68840789794922 99.49435424804688 C 117.23650360107422 106.27619934082031 113.33561706542969 116.61304473876953 110.95687866210938 128.89614868164062 C 111.98377227783203 141.25289916992188 116.76852416992188 151.6225128173828 124.90351104736328 158.13265991210938 C 135.66195678710938 159.40208435058594 148.0726318359375 155.99990844726562 161.28733825683594 149.13619995117188 C 173.92173767089844 139.07272338867188 186.9055633544922 128.2746124267578 201.6661834716797 120.2818374633789 C 218.85614013671875 117.14777374267578 236.4418182373047 114.64864349365234 253.02931213378906 110.10205078125 C 267.5862121582031 103.03428649902344 280.0473937988281 95.69215393066406 290.31109619140625 90.23237609863281 C 298.6568603515625 88.29467010498047 304.3644714355469 88.41280364990234 307.1728210449219 89.05640411376953 C 307.20709228515625 89.49004364013672 305.0777587890625 89.54620361328125 301.5965270996094 89.09428405761719 C 297.6123352050781 87.97366333007812 294.0641784667969 86.03104400634766 291.5822448730469 83.33250427246094 C 290.5254821777344 79.96734619140625 289.9826965332031 76.36961364746094 261.0720520019531 69.16825103759766" stroke-width="0.0" fill="rgb(4, 2, 8)" opacity="0.99999446" stroke="rgb(132, 37, 73)" stroke-opacity="0.69533926" stroke-linecap="round" stroke-linejoin="round"/>
    <path d="M 437.0 292.0 C 437.0 293.0 437.0 294.0 437.0 295.0 C 437.0 296.0 437.0 297.0 437.0 298.0 C 437.0 299.0 437.0 300.0 437.0 301.0 C 437.0 302.0 437.0 303.0 437.0 304.0 C 437.0 305.0 437.0 306.0 437.0 307.0 C 437.0 308.0 437.0 309.0 437.0 310.0 C 437.0 311.0 437.0 312.0 437.0 313.0 C 437.0 314.0 437.0 315.0 437.0 316.0 C 437.0 317.0 437.0 323.0 437.0 330.0 C 437.0 337.0 437.0 344.0 437.0 351.0 C 437.0 358.0 437.0 365.0 437.0 372.0 C 437.0 379.0 437.0 386.0 437.0 393.0 C 437.0 400.0 437.0 407.0 437.0 414.0 C 437.0 421.0 437.0 428.0 437.0 435.0 C 437.0 442.0 437.0 449.0 437.0 456.0 C 437.0 463.0 437.0 470.0 437.0 477.0 C 433.0 480.0 426.0 480.0 419.0 480.0 C 412.0 480.0 409.0 475.0 409.0 468.0 C 409.0 461.0 409.0 454.0 410.0 447.0 C 408.0 441.0 401.0 439.0 398.0 444.0 C 398.0 451.0 397.0 458.0 397.0 465.0 C 397.0 472.0 398.0 479.0 392.0 480.0 C 385.0 480.0 378.0 480.0 371.0 480.0 C 364.0 480.0 357.0 480.0 350.0 480.0 C 343.0 480.0 336.0 480.0 329.0 480.0 C 322.0 480.0 315.0 480.0 308.0 480.0 C 301.0 480.0 294.0 480.0 287.0 480.0 C 280.0 480.0 273.0 480.0 266.0 480.0 C 259.0 480.0 252.0 480.0 245.0 480.0 C 238.0 480.0 231.0 480.0 224.0 480.0 C 217.0 480.0 210.0 480.0 204.0 479.0 C 206.0 472.0 208.0 465.0 210.0 458.0 C 211.0 451.0 213.0 444.0 216.0 439.0 C 218.0 446.0 220.0 453.0 223.0 460.0 C 227.0 467.0 233.0 473.0 240.0 474.0 C 247.0 473.0 254.0 469.0 259.0 462.0 C 260.0 455.0 260.0 448.0 260.0 441.0 C 258.0 434.0 260.0 427.0 261.0 420.0 C 262.0 417.0 263.0 424.0 265.0 423.0 C 269.0 418.0 276.0 416.0 283.0 415.0 C 290.0 413.0 297.0 412.0 297.0 409.0 C 299.0 406.0 302.0 409.0 308.0 411.0 C 315.0 410.0 316.0 408.0 310.0 406.0 C 305.0 407.0 306.0 401.0 309.0 397.0 C 316.0 397.0 323.0 397.0 328.0 399.0 C 333.0 397.0 340.0 397.0 347.0 398.0 C 354.0 399.0 352.0 404.0 349.0 409.0 C 353.0 413.0 355.0 418.0 359.0 421.0 C 364.0 420.0 368.0 414.0 375.0 412.0 C 377.0 407.0 374.0 404.0 381.0 406.0 C 388.0 407.0 395.0 405.0 402.0 403.0 C 409.0 401.0 415.0 397.0 419.0 390.0 C 422.0 383.0 424.0 376.0 425.0 369.0 C 427.0 362.0 427.0 355.0 428.0 348.0 C 430.0 341.0 426.0 344.0 420.0 351.0 C 414.0 354.0 409.0 347.0 408.0 342.0 C 413.0 335.0 419.0 328.0 423.0 321.0 C 424.0 314.0 424.0 307.0 425.0 300.0 C 426.0 303.0 429.0 308.0 435.0 306.0 C 436.0 299.0 436.0 292.0 437.0 292.0" stroke-width="0.0" fill="rgb(72, 128, 93)" opacity="1.0" stroke="rgb(214, 245, 183)" stroke-opacity="0.8082053" stroke-linecap="round" stroke-linejoin="round"/>
    <path d="M 1.0 0.0 C 2.0 0.0 3.0 0.0 4.0 0.0 C 5.0 0.0 6.0 0.0 7.0 0.0 C 8.0 0.0 9.0 0.0 10.0 0.0 C 11.0 0.0 12.0 0.0 13.0 0.0 C 22.0 0.0 36.0 0.0 50.0 0.0 C 64.0 0.0 78.0 0.0 92.0 0.0 C 106.0 0.0 120.0 0.0 134.0 1.0 C 148.0 1.0 162.0 1.0 176.0 1.0 C 188.0 4.0 200.0 1.0 210.0 6.0 C 223.0 8.0 231.0 1.0 245.0 1.0 C 257.0 4.0 269.0 8.0 283.0 8.0 C 297.0 8.0 308.0 4.0 320.0 1.0 C 334.0 0.0 348.0 0.0 362.0 0.0 C 376.0 0.0 390.0 0.0 404.0 0.0 C 418.0 0.0 432.0 0.0 437.0 9.0 C 437.0 23.0 426.0 30.0 413.0 40.0 C 399.0 42.0 385.0 47.0 371.0 47.0 C 357.0 50.0 343.0 51.0 329.0 54.0 C 321.0 64.0 333.0 72.0 347.0 73.0 C 361.0 71.0 375.0 75.0 389.0 76.0 C 403.0 76.0 417.0 76.0 431.0 78.0 C 437.0 85.0 437.0 99.0 437.0 113.0 C 437.0 127.0 437.0 141.0 431.0 141.0 C 426.0 131.0 415.0 122.0 402.0 113.0 C 390.0 104.0 377.0 98.0 363.0 90.0 C 350.0 85.0 337.0 81.0 325.0 76.0 C 312.0 72.0 302.0 68.0 290.0 68.0 C 279.0 68.0 267.0 66.0 253.0 63.0 C 239.0 65.0 241.0 68.0 255.0 68.0 C 267.0 69.0 280.0 75.0 292.0 75.0 C 306.0 77.0 296.0 80.0 294.0 89.0 C 290.0 93.0 304.0 90.0 316.0 81.0 C 329.0 83.0 319.0 90.0 305.0 94.0 C 291.0 96.0 279.0 95.0 267.0 101.0 C 255.0 109.0 242.0 111.0 234.0 114.0 C 225.0 117.0 214.0 117.0 201.0 119.0 C 188.0 127.0 175.0 136.0 164.0 144.0 C 153.0 151.0 144.0 153.0 131.0 158.0 C 120.0 161.0 106.0 162.0 103.0 153.0 C 106.0 139.0 111.0 127.0 115.0 113.0 C 118.0 99.0 130.0 92.0 144.0 87.0 C 158.0 83.0 158.0 70.0 170.0 76.0 C 173.0 72.0 164.0 62.0 160.0 62.0 C 153.0 60.0 139.0 57.0 125.0 59.0 C 115.0 59.0 112.0 64.0 105.0 58.0 C 99.0 46.0 94.0 46.0 94.0 60.0 C 96.0 74.0 102.0 88.0 99.0 88.0 C 93.0 82.0 90.0 96.0 91.0 110.0 C 105.0 104.0 114.0 99.0 112.0 110.0 C 107.0 124.0 103.0 138.0 99.0 152.0 C 98.0 164.0 85.0 173.0 74.0 183.0 C 60.0 190.0 50.0 195.0 39.0 197.0 C 29.0 201.0 23.0 214.0 10.0 226.0 C 1.0 233.0 0.0 221.0 0.0 207.0 C 1.0 193.0 0.0 180.0 0.0 166.0 C 12.0 161.0 17.0 154.0 3.0 152.0 C 0.0 140.0 0.0 126.0 0.0 112.0 C 0.0 98.0 0.0 84.0 0.0 70.0 C 0.0 56.0 0.0 42.0 0.0 28.0 C 0.0 14.0 0.0 0.0 1.0 0.0" stroke-width="0.0" fill="rgb(148, 211, 235)" opacity="1.0" stroke="rgb(152, 175, 137)" stroke-opacity="0.3796741" stroke-linecap="round" stroke-linejoin="round"/>
  </g>
</svg>
