<?xml version="1.0" ?>
<svg xmlns="http://www.w3.org/2000/svg" version="1.1" width="438" height="481">
  <defs/>
  <g>
    <path d="M 282.0 71.0 C 283.0 71.0 284.0 71.0 285.0 71.0 C 286.0 71.0 297.0 73.0 312.0 76.0 C 327.0 80.0 342.0 85.0 357.0 90.0 C 366.0 99.0 381.0 107.0 396.0 117.0 C 411.0 128.0 426.0 141.0 437.0 155.0 C 437.0 170.0 431.0 182.0 419.0 195.0 C 416.0 207.0 407.0 204.0 393.0 206.0 C 378.0 213.0 363.0 222.0 360.0 233.0 C 349.0 237.0 340.0 233.0 335.0 246.0 C 334.0 261.0 331.0 276.0 326.0 291.0 C 320.0 306.0 312.0 321.0 303.0 336.0 C 292.0 351.0 281.0 366.0 271.0 381.0 C 264.0 396.0 256.0 409.0 252.0 410.0 C 243.0 417.0 235.0 426.0 234.0 419.0 C 236.0 430.0 246.0 433.0 254.0 444.0 C 251.0 459.0 237.0 464.0 228.0 450.0 C 222.0 435.0 218.0 422.0 221.0 407.0 C 218.0 398.0 213.0 398.0 215.0 383.0 C 216.0 368.0 208.0 359.0 206.0 350.0 C 221.0 341.0 236.0 336.0 251.0 332.0 C 266.0 326.0 280.0 313.0 279.0 307.0 C 264.0 314.0 249.0 319.0 234.0 324.0 C 219.0 326.0 204.0 324.0 194.0 323.0 C 188.0 318.0 191.0 333.0 184.0 346.0 C 173.0 355.0 158.0 345.0 144.0 350.0 C 135.0 365.0 134.0 380.0 133.0 395.0 C 143.0 384.0 141.0 398.0 138.0 413.0 C 136.0 428.0 133.0 443.0 131.0 458.0 C 130.0 473.0 123.0 480.0 108.0 480.0 C 93.0 480.0 78.0 480.0 63.0 480.0 C 48.0 480.0 33.0 480.0 18.0 480.0 C 3.0 480.0 0.0 468.0 0.0 453.0 C 0.0 438.0 2.0 425.0 17.0 427.0 C 32.0 428.0 47.0 429.0 57.0 426.0 C 45.0 421.0 30.0 423.0 15.0 420.0 C 0.0 419.0 0.0 404.0 1.0 392.0 C 7.0 384.0 22.0 384.0 37.0 383.0 C 52.0 384.0 64.0 387.0 58.0 392.0 C 67.0 389.0 73.0 374.0 80.0 359.0 C 88.0 344.0 88.0 334.0 83.0 345.0 C 69.0 351.0 63.0 346.0 51.0 345.0 C 36.0 348.0 21.0 353.0 6.0 362.0 C 0.0 363.0 0.0 348.0 0.0 333.0 C 0.0 318.0 0.0 303.0 0.0 288.0 C 0.0 273.0 0.0 258.0 0.0 243.0 C 4.0 230.0 19.0 219.0 30.0 204.0 C 37.0 189.0 41.0 198.0 56.0 193.0 C 71.0 185.0 86.0 175.0 99.0 161.0 C 102.0 146.0 105.0 131.0 110.0 116.0 C 113.0 102.0 116.0 98.0 130.0 94.0 C 118.0 104.0 111.0 119.0 107.0 134.0 C 103.0 149.0 104.0 162.0 119.0 161.0 C 134.0 158.0 149.0 153.0 164.0 147.0 C 179.0 136.0 193.0 122.0 205.0 119.0 C 220.0 118.0 235.0 115.0 250.0 111.0 C 265.0 104.0 278.0 97.0 293.0 96.0 C 308.0 94.0 323.0 89.0 324.0 81.0 C 314.0 85.0 299.0 91.0 284.0 93.0 C 279.0 85.0 294.0 80.0 309.0 78.0 C 294.0 75.0 281.0 71.0 282.0 71.0" stroke-width="0.0" fill="rgb(4, 2, 8)" opacity="1.0" stroke="rgb(132, 37, 73)" stroke-opacity="0.69533926" stroke-linecap="round" stroke-linejoin="round"/>
  </g>
</svg>
