<?xml version="1.0" ?>
<svg xmlns="http://www.w3.org/2000/svg" version="1.1" width="512" height="512">
  <defs/>
  <g>
    <path d="M 8.534714698791504 216.0923614501953 C 34.50551223754883 232.61204528808594 59.86139678955078 248.63096618652344 82.02059173583984 266.3431396484375 C 101.25349426269531 284.4024963378906 113.66482543945312 300.5894775390625 114.064697265625 313.7940368652344 C 103.64752960205078 320.3696594238281 90.2013931274414 318.0614929199219 78.86702728271484 310.799072265625 C 73.24930572509766 306.73260498046875 74.28477478027344 310.0331726074219 79.86685943603516 317.8205871582031 C 86.76802062988281 327.3981628417969 93.29995727539062 336.4543762207031 98.29553985595703 343.4671936035156 C 101.84717559814453 347.9575500488281 103.72671508789062 350.5560607910156 103.90055847167969 352.2927551269531 C 102.66133880615234 353.7870788574219 100.81087493896484 355.3591003417969 98.87118530273438 357.2324523925781 C 97.16010284423828 359.607666015625 95.69670104980469 362.123291015625 94.5763931274414 364.3780822753906 C 93.84746551513672 366.1181640625 93.49346160888672 367.17230224609375 93.40170288085938 367.4755859375 C 93.56514739990234 367.0478820800781 94.07611083984375 365.8211364746094 95.03500366210938 363.7838439941406 C 96.3822250366211 361.21514892578125 97.85387420654297 358.56329345703125 99.50690460205078 356.1852722167969 C 101.33908081054688 353.9999694824219 103.51433563232422 352.4898681640625 105.99064636230469 352.68597412109375 C 108.67863464355469 355.1259765625 111.65917205810547 358.63470458984375 115.13134765625 362.5436706542969 C 119.10928344726562 366.542724609375 122.60429382324219 370.3576354980469 124.67872619628906 373.9064025878906 C 124.74198913574219 377.1418762207031 123.08687591552734 379.9910583496094 120.42532348632812 382.3958740234375 C 117.74462127685547 384.49493408203125 115.5650863647461 386.1782531738281 114.16303253173828 387.3119812011719 C 113.57022094726562 387.8224792480469 113.84039306640625 387.6793212890625 114.89090728759766 386.9354248046875 C 116.53294372558594 385.6310729980469 118.5043716430664 383.8280334472656 120.58411407470703 381.6726989746094 C 122.55503845214844 379.441162109375 124.29212188720703 377.4344177246094 125.89891815185547 376.16839599609375 C 127.5775146484375 376.1205139160156 129.09295654296875 376.9122619628906 130.3799285888672 378.1958923339844 C 131.5384521484375 379.7480773925781 133.1276397705078 381.3192443847656 135.38844299316406 383.3912048339844 C 138.6528778076172 386.3870544433594 143.18423461914062 390.2549133300781 149.3446044921875 395.47760009765625 C 157.38882446289062 401.9440002441406 166.99081420898438 410.1722412109375 177.46206665039062 419.2581481933594 C 188.199462890625 428.9907531738281 198.6405029296875 437.62518310546875 206.27085876464844 445.3736877441406 C 208.4270477294922 452.49383544921875 204.8408660888672 457.99212646484375 197.62765502929688 462.2810974121094 C 188.38424682617188 465.8675842285156 179.1271209716797 467.8923034667969 170.61685180664062 468.4646911621094 C 162.87945556640625 468.44000244140625 157.396728515625 468.5479431152344 153.52035522460938 467.68170166015625 C 150.96676635742188 467.3039245605469 148.8927764892578 466.9497985839844 146.47735595703125 466.8365783691406 C 143.23538208007812 466.59033203125 138.7025604248047 465.8460388183594 132.963134765625 464.3682861328125 C 126.26664733886719 462.6728210449219 119.20722198486328 460.3263244628906 112.64258575439453 457.8458557128906 C 107.10831451416016 455.8675231933594 102.69558715820312 454.6007385253906 99.7256088256836 453.9045104980469 C 97.99166870117188 453.4981689453125 97.2621078491211 453.4236755371094 97.1842041015625 453.5626220703125 C 97.07183074951172 453.5231018066406 96.47801971435547 453.37274169921875 95.23247528076172 453.00482177734375 C 93.20423126220703 452.3785705566406 90.45892333984375 451.5302734375 87.24500274658203 450.62249755859375 C 83.9334487915039 449.73211669921875 80.9045181274414 448.69537353515625 78.32565307617188 447.40203857421875 C 76.15332794189453 446.1712646484375 74.3028564453125 444.9820556640625 72.7959213256836 444.2852478027344 C 71.66146087646484 443.5571594238281 70.72956085205078 442.9441833496094 69.83500671386719 442.4342041015625 C 69.015869140625 441.7568664550781 68.19749450683594 441.02105712890625 67.10945129394531 440.2995300292969 C 65.87397766113281 439.4162292480469 64.78665161132812 438.1127014160156 63.61408615112305 436.71514892578125 C 62.3508415222168 435.3596496582031 60.91075897216797 434.0328369140625 59.73444366455078 432.6629943847656 C 58.711456298828125 431.22930908203125 57.82691955566406 429.83544921875 57.10407638549805 428.4925537109375 C 56.22669219970703 427.19219970703125 55.41810989379883 425.7451171875 54.52206802368164 424.3223571777344 C 53.434715270996094 422.8246765136719 52.068572998046875 421.2420349121094 50.604557037353516 419.35125732421875 C 49.11310958862305 417.1503601074219 47.55479431152344 414.6828308105469 45.856380462646484 412.15582275390625 C 44.1550178527832 409.59014892578125 42.53791427612305 407.1232604980469 41.0487060546875 404.7984924316406 C 39.730770111083984 402.86279296875 38.81931686401367 401.15911865234375 38.3741340637207 399.8567199707031 C 38.660369873046875 398.897705078125 39.37808609008789 398.24261474609375 40.177635192871094 397.8431091308594 C 40.83583068847656 397.63330078125 41.112308502197266 397.63958740234375 41.04433059692383 397.8553161621094 C 40.659175872802734 398.1775207519531 39.99575424194336 398.552001953125 39.07035446166992 398.8977355957031 C 38.000831604003906 398.9391784667969 37.04709243774414 398.3847351074219 36.32761001586914 396.97406005859375 C 35.55158615112305 394.937744140625 34.427974700927734 392.5616149902344 32.981685638427734 389.8798828125 C 31.43109130859375 386.946533203125 30.155664443969727 383.852783203125 28.92465591430664 380.5614318847656 C 27.890806198120117 377.4007568359375 26.886180877685547 374.364501953125 25.851032257080078 371.5150451660156 C 24.752466201782227 368.7430725097656 24.04729652404785 365.9569091796875 23.60448455810547 363.1177062988281 C 23.190732955932617 360.3512268066406 22.535297393798828 357.579833984375 22.028745651245117 354.8641052246094 C 21.763811111450195 352.0828552246094 21.33139991760254 349.2943420410156 20.714088439941406 346.6441650390625 C 19.705541610717773 344.1602478027344 18.410741806030273 341.7764587402344 17.037179946899414 339.3338928222656 C 15.905092239379883 336.62310791015625 14.925284385681152 333.77069091796875 13.663277626037598 330.6003723144531 C 12.652556419372559 327.08984375 12.089381217956543 322.80975341796875 11.182781219482422 317.9360046386719 C 9.38137149810791 312.5341491699219 5.298917770385742 306.9985046386719 8.534714698791504 216.0923614501953" stroke-width="0.0" fill="rgb(71, 160, 61)" opacity="0.9999514" stroke="rgb(244, 42, 122)" stroke-opacity="0.5070383" stroke-linecap="round" stroke-linejoin="round"/>
    <path d="M 484.4075622558594 292.6194152832031 C 485.6962890625 327.3255920410156 477.95703125 357.2359313964844 461.16705322265625 381.2532043457031 C 444.5038757324219 401.8105773925781 429.53741455078125 417.2793273925781 417.09039306640625 426.52630615234375 C 406.6872253417969 429.2332458496094 397.83428955078125 427.70233154296875 390.2510681152344 424.7250671386719 C 383.95086669921875 421.6986389160156 378.71380615234375 419.1640930175781 374.190185546875 417.1810302734375 C 370.3924560546875 416.1107482910156 367.2263488769531 415.5901184082031 364.736083984375 415.51129150390625 C 362.9487609863281 415.8233337402344 361.6662292480469 416.1844787597656 360.8625793457031 416.376953125 C 360.775146484375 416.3731384277344 361.42864990234375 416.0606994628906 362.8464050292969 415.6387634277344 C 365.27996826171875 415.2886047363281 368.9208068847656 415.68597412109375 373.6369323730469 417.0704345703125 C 379.24969482421875 419.5374755859375 385.63702392578125 422.5087890625 392.7073059082031 425.25250244140625 C 399.9173583984375 427.0743408203125 406.1304931640625 427.933837890625 410.1429443359375 428.8846130371094 C 410.47418212890625 431.0405578613281 407.5763854980469 433.8818664550781 402.39556884765625 437.4915771484375 C 395.9270324707031 441.5278625488281 389.0146789550781 445.3024597167969 382.0948486328125 448.1972351074219 C 375.9508361816406 449.1170654296875 370.72015380859375 447.6228332519531 366.69427490234375 444.7600402832031 C 363.1578674316406 441.8848876953125 360.5752868652344 439.358154296875 358.9178771972656 437.4213562011719 C 357.9931640625 436.24945068359375 357.6927795410156 435.6376953125 357.7596130371094 435.5343933105469 C 357.92718505859375 435.7884826660156 357.988525390625 436.1492919921875 357.85809326171875 436.41607666015625 C 357.3938293457031 436.4165344238281 356.62396240234375 436.0360412597656 355.5648193359375 435.33154296875 C 354.27276611328125 434.4403076171875 352.8929748535156 433.5007019042969 351.5682373046875 432.6475830078125 C 350.406005859375 431.9535217285156 349.54962158203125 431.5422058105469 349.15802001953125 431.3416748046875 C 349.3131408691406 431.362060546875 350.0408020019531 431.7347717285156 351.32818603515625 432.40045166015625 C 353.1806640625 433.4832763671875 355.6050720214844 435.1914978027344 358.431640625 437.42169189453125 C 361.599365234375 440.06097412109375 364.7052307128906 443.055908203125 368.11444091796875 445.51348876953125 C 371.6025390625 447.0680236816406 374.3995056152344 448.1929016113281 375.5271301269531 449.266845703125 C 374.7878112792969 450.4935607910156 372.1481628417969 452.03997802734375 368.3043518066406 454.2878723144531 C 363.9281311035156 457.22943115234375 358.4380187988281 460.019775390625 352.4228210449219 462.5135803222656 C 346.37469482421875 464.8945617675781 340.14007568359375 466.7328186035156 334.27105712890625 467.9057312011719 C 328.9097900390625 468.849609375 324.25689697265625 469.5987548828125 320.40283203125 469.83502197265625 C 317.4101257324219 470.0190734863281 315.2490539550781 470.15997314453125 314.0156555175781 470.3290100097656 C 313.46490478515625 470.158203125 313.32733154296875 469.7228698730469 313.4507141113281 469.3994445800781 C 313.5662841796875 469.57012939453125 313.4307861328125 469.9410400390625 312.8304138183594 470.1976623535156 C 311.5802001953125 470.39105224609375 309.7891845703125 470.5238342285156 307.55316162109375 470.4817199707031 C 304.91796875 470.2536926269531 301.9258117675781 470.00433349609375 298.7385559082031 469.8585510253906 C 295.5398864746094 469.56317138671875 292.4091491699219 468.99847412109375 289.45233154296875 468.51849365234375 C 286.8009338378906 467.94842529296875 284.461181640625 467.31610107421875 282.38238525390625 466.7283630371094 C 280.4689636230469 466.4070129394531 278.66900634765625 465.9922180175781 277.11724853515625 465.5513916015625 C 275.682861328125 465.01666259765625 274.11566162109375 464.4739685058594 272.3436584472656 463.8135681152344 C 270.345947265625 463.00042724609375 268.0638122558594 462.2516784667969 265.35784912109375 461.2369384765625 C 262.5694274902344 459.70953369140625 259.6153259277344 457.906005859375 256.4418029785156 455.9744567871094 C 253.32638549804688 453.7972412109375 250.55743408203125 451.4482727050781 248.20350646972656 449.1878662109375 C 246.52249145507812 447.18585205078125 245.8221435546875 445.4830017089844 246.633056640625 444.085205078125 C 248.7003936767578 443.1331481933594 251.6896514892578 442.177734375 255.17071533203125 440.8564758300781 C 258.9786682128906 439.42529296875 262.7549133300781 438.18658447265625 266.25396728515625 436.845458984375 C 269.6116027832031 435.9273986816406 272.78704833984375 434.95928955078125 275.5133056640625 433.6787414550781 C 278.1525573730469 432.18035888671875 280.6116638183594 430.50823974609375 283.2978515625 429.14178466796875 C 286.04437255859375 427.7344055175781 288.2394104003906 426.1316833496094 289.4590759277344 424.6645812988281 C 289.2892150878906 423.904296875 287.5059814453125 423.9752197265625 283.8007507324219 425.235595703125 C 277.8363342285156 427.85565185546875 270.1077575683594 431.1358947753906 261.5191345214844 435.1419372558594 C 253.03443908691406 439.0569152832031 245.72889709472656 441.95318603515625 240.48324584960938 441.1477355957031 C 237.85751342773438 435.195556640625 238.3843536376953 425.0572509765625 242.39031982421875 411.7850341796875 C 249.2364501953125 396.7659606933594 257.82568359375 381.0233154296875 266.90399169921875 366.3286437988281 C 274.5522766113281 353.9540710449219 281.3133544921875 346.7428283691406 288.33489990234375 346.5184020996094 C 295.1662902832031 353.3602294921875 302.3514404296875 363.6901550292969 310.12725830078125 374.7642517089844 C 317.10797119140625 384.598876953125 321.8988952636719 392.4224548339844 324.20281982421875 397.9939880371094 C 324.8511047363281 400.4638671875 324.59930419921875 400.4261474609375 323.74090576171875 398.72113037109375 C 322.83465576171875 396.30670166015625 322.3231506347656 394.2054138183594 322.6271667480469 393.3804016113281 C 323.8373718261719 394.60772705078125 325.9221496582031 397.6347351074219 328.7712097167969 401.770751953125 C 332.04937744140625 406.1194152832031 334.9645690917969 409.70513916015625 336.44134521484375 411.64434814453125 C 335.7344970703125 410.8782653808594 332.5315246582031 407.0228576660156 326.9062194824219 399.554931640625 C 319.5032043457031 388.26263427734375 310.0818176269531 374.17962646484375 298.6330261230469 359.2281188964844 C 285.4882507324219 344.8092346191406 271.6336975097656 329.6492614746094 484.4075622558594 292.6194152832031" stroke-width="0.0" fill="rgb(72, 160, 60)" opacity="0.99997574" stroke="rgb(245, 2, 204)" stroke-opacity="0.8547275" stroke-linecap="round" stroke-linejoin="round"/>
    <path d="M 188.0 207.0 C 189.0 207.0 190.0 207.0 190.0 208.0 C 190.0 209.0 190.0 210.0 190.0 211.0 C 189.0 211.0 188.0 212.0 188.0 213.0 C 187.0 213.0 186.0 213.0 185.0 213.0 C 184.0 214.0 188.0 216.0 190.0 220.0 C 186.0 224.0 190.0 227.0 194.0 229.0 C 195.0 223.0 199.0 227.0 198.0 231.0 C 197.0 236.0 200.0 241.0 201.0 245.0 C 202.0 248.0 206.0 248.0 207.0 254.0 C 209.0 260.0 208.0 266.0 208.0 272.0 C 211.0 273.0 215.0 274.0 216.0 280.0 C 218.0 285.0 218.0 291.0 218.0 295.0 C 222.0 297.0 223.0 303.0 224.0 309.0 C 222.0 314.0 220.0 319.0 221.0 325.0 C 223.0 331.0 227.0 335.0 226.0 341.0 C 226.0 347.0 225.0 353.0 222.0 357.0 C 224.0 362.0 223.0 368.0 224.0 373.0 C 223.0 379.0 224.0 384.0 222.0 389.0 C 221.0 395.0 218.0 399.0 216.0 404.0 C 215.0 410.0 215.0 413.0 213.0 418.0 C 216.0 422.0 215.0 428.0 213.0 434.0 C 208.0 433.0 202.0 428.0 198.0 424.0 C 194.0 419.0 191.0 413.0 189.0 407.0 C 192.0 403.0 191.0 397.0 192.0 391.0 C 190.0 386.0 189.0 381.0 185.0 379.0 C 186.0 376.0 184.0 371.0 184.0 367.0 C 184.0 363.0 182.0 360.0 182.0 354.0 C 182.0 349.0 182.0 345.0 180.0 341.0 C 179.0 335.0 183.0 333.0 183.0 339.0 C 188.0 339.0 191.0 334.0 191.0 330.0 C 189.0 325.0 193.0 322.0 198.0 319.0 C 197.0 313.0 197.0 307.0 193.0 304.0 C 187.0 306.0 184.0 311.0 181.0 316.0 C 177.0 313.0 176.0 307.0 176.0 301.0 C 175.0 295.0 174.0 289.0 176.0 284.0 C 175.0 278.0 179.0 274.0 181.0 279.0 C 184.0 283.0 180.0 286.0 181.0 292.0 C 181.0 298.0 187.0 298.0 191.0 300.0 C 192.0 294.0 192.0 288.0 188.0 291.0 C 187.0 285.0 187.0 279.0 183.0 275.0 C 182.0 269.0 179.0 265.0 178.0 259.0 C 174.0 257.0 174.0 263.0 170.0 264.0 C 165.0 263.0 160.0 267.0 158.0 269.0 C 154.0 269.0 155.0 272.0 158.0 276.0 C 154.0 279.0 155.0 282.0 153.0 287.0 C 149.0 291.0 144.0 293.0 138.0 293.0 C 134.0 295.0 130.0 299.0 125.0 301.0 C 120.0 299.0 117.0 294.0 118.0 289.0 C 124.0 289.0 122.0 284.0 121.0 278.0 C 123.0 274.0 125.0 270.0 130.0 268.0 C 134.0 264.0 139.0 264.0 145.0 265.0 C 149.0 263.0 151.0 261.0 152.0 257.0 C 152.0 251.0 149.0 247.0 154.0 249.0 C 154.0 254.0 159.0 256.0 164.0 252.0 C 168.0 250.0 174.0 251.0 176.0 251.0 C 176.0 245.0 181.0 246.0 186.0 242.0 C 184.0 236.0 179.0 234.0 176.0 230.0 C 175.0 224.0 170.0 222.0 166.0 219.0 C 170.0 215.0 176.0 214.0 176.0 210.0 C 182.0 210.0 187.0 207.0 188.0 207.0" stroke-width="0.0" fill="rgb(72, 160, 62)" opacity="1.0" stroke="rgb(58, 18, 58)" stroke-opacity="0.30739155" stroke-linecap="round" stroke-linejoin="round"/>
    <path d="M 432.0 166.0 C 433.0 166.0 434.0 166.0 435.0 167.0 C 435.0 168.0 435.0 169.0 436.0 170.0 C 437.0 170.0 438.0 170.0 439.0 171.0 C 440.0 171.0 441.0 171.0 441.0 172.0 C 442.0 173.0 442.0 174.0 442.0 175.0 C 442.0 176.0 443.0 177.0 444.0 175.0 C 445.0 171.0 448.0 167.0 452.0 168.0 C 452.0 172.0 454.0 174.0 453.0 178.0 C 450.0 181.0 448.0 185.0 447.0 189.0 C 446.0 193.0 445.0 197.0 441.0 199.0 C 439.0 201.0 440.0 205.0 438.0 207.0 C 436.0 210.0 434.0 212.0 432.0 216.0 C 432.0 220.0 429.0 222.0 429.0 226.0 C 427.0 228.0 426.0 231.0 422.0 232.0 C 420.0 236.0 417.0 239.0 413.0 240.0 C 411.0 243.0 408.0 246.0 404.0 248.0 C 406.0 251.0 403.0 252.0 400.0 254.0 C 398.0 256.0 401.0 258.0 403.0 261.0 C 400.0 259.0 396.0 261.0 393.0 265.0 C 391.0 268.0 388.0 269.0 388.0 273.0 C 386.0 275.0 383.0 274.0 381.0 274.0 C 379.0 270.0 377.0 273.0 379.0 276.0 C 379.0 280.0 377.0 283.0 374.0 284.0 C 372.0 287.0 370.0 289.0 366.0 288.0 C 363.0 289.0 359.0 289.0 356.0 288.0 C 356.0 292.0 357.0 296.0 353.0 296.0 C 349.0 295.0 345.0 297.0 347.0 299.0 C 346.0 302.0 343.0 301.0 340.0 304.0 C 336.0 305.0 332.0 306.0 328.0 306.0 C 324.0 307.0 320.0 308.0 317.0 307.0 C 315.0 309.0 311.0 309.0 307.0 309.0 C 305.0 307.0 309.0 306.0 313.0 306.0 C 311.0 303.0 307.0 300.0 306.0 296.0 C 303.0 294.0 302.0 291.0 302.0 289.0 C 304.0 285.0 307.0 283.0 311.0 281.0 C 313.0 278.0 317.0 276.0 319.0 272.0 C 322.0 269.0 325.0 266.0 328.0 262.0 C 331.0 262.0 334.0 261.0 337.0 258.0 C 338.0 255.0 341.0 256.0 344.0 257.0 C 348.0 257.0 351.0 255.0 353.0 259.0 C 354.0 255.0 353.0 251.0 349.0 252.0 C 347.0 249.0 348.0 245.0 351.0 243.0 C 353.0 239.0 357.0 240.0 360.0 241.0 C 361.0 237.0 363.0 235.0 365.0 232.0 C 369.0 230.0 373.0 230.0 376.0 226.0 C 376.0 222.0 380.0 221.0 384.0 221.0 C 387.0 218.0 391.0 217.0 393.0 219.0 C 396.0 219.0 400.0 217.0 400.0 213.0 C 401.0 209.0 401.0 205.0 401.0 201.0 C 403.0 203.0 405.0 207.0 408.0 210.0 C 412.0 209.0 414.0 212.0 414.0 216.0 C 418.0 217.0 419.0 213.0 420.0 209.0 C 417.0 205.0 418.0 201.0 422.0 200.0 C 420.0 197.0 416.0 195.0 413.0 194.0 C 410.0 191.0 407.0 189.0 404.0 189.0 C 404.0 187.0 405.0 183.0 409.0 182.0 C 412.0 183.0 415.0 179.0 415.0 175.0 C 411.0 175.0 413.0 172.0 415.0 174.0 C 418.0 173.0 422.0 172.0 425.0 171.0 C 428.0 168.0 431.0 166.0 432.0 166.0" stroke-width="0.0" fill="rgb(72, 161, 62)" opacity="1.0" stroke="rgb(43, 146, 126)" stroke-opacity="0.0780347" stroke-linecap="round" stroke-linejoin="round"/>
    <path d="M 469.0 75.0 C 470.0 75.0 470.0 76.0 470.0 77.0 C 469.0 77.0 468.0 78.0 468.0 79.0 C 467.0 80.0 466.0 80.0 465.0 80.0 C 464.0 81.0 464.0 82.0 464.0 83.0 C 464.0 84.0 463.0 85.0 463.0 86.0 C 463.0 87.0 462.0 87.0 461.0 88.0 C 460.0 89.0 460.0 90.0 459.0 91.0 C 458.0 92.0 457.0 93.0 457.0 94.0 C 456.0 95.0 455.0 96.0 455.0 97.0 C 454.0 98.0 452.0 100.0 449.0 103.0 C 448.0 106.0 445.0 108.0 443.0 111.0 C 441.0 113.0 439.0 115.0 438.0 118.0 C 435.0 120.0 433.0 122.0 431.0 125.0 C 428.0 128.0 426.0 130.0 424.0 133.0 C 421.0 136.0 419.0 138.0 417.0 141.0 C 414.0 144.0 412.0 146.0 411.0 149.0 C 409.0 151.0 407.0 154.0 405.0 156.0 C 403.0 159.0 402.0 162.0 400.0 164.0 C 398.0 166.0 396.0 169.0 394.0 172.0 C 391.0 174.0 388.0 175.0 385.0 174.0 C 383.0 176.0 380.0 175.0 377.0 177.0 C 374.0 177.0 372.0 178.0 371.0 181.0 C 371.0 184.0 369.0 183.0 366.0 183.0 C 364.0 185.0 366.0 187.0 367.0 190.0 C 364.0 191.0 361.0 192.0 362.0 195.0 C 359.0 194.0 356.0 194.0 354.0 193.0 C 351.0 192.0 348.0 191.0 348.0 188.0 C 347.0 186.0 345.0 184.0 342.0 186.0 C 344.0 189.0 342.0 191.0 340.0 193.0 C 337.0 194.0 338.0 191.0 339.0 188.0 C 340.0 185.0 342.0 182.0 343.0 179.0 C 346.0 179.0 346.0 182.0 349.0 182.0 C 349.0 179.0 351.0 177.0 352.0 175.0 C 351.0 173.0 352.0 170.0 355.0 170.0 C 358.0 170.0 361.0 169.0 364.0 169.0 C 366.0 171.0 368.0 170.0 371.0 169.0 C 374.0 167.0 377.0 166.0 380.0 164.0 C 382.0 162.0 384.0 160.0 383.0 157.0 C 385.0 155.0 386.0 152.0 383.0 151.0 C 382.0 149.0 382.0 146.0 382.0 143.0 C 384.0 141.0 386.0 138.0 388.0 137.0 C 388.0 134.0 389.0 131.0 391.0 129.0 C 393.0 128.0 396.0 128.0 397.0 125.0 C 394.0 124.0 391.0 124.0 392.0 121.0 C 394.0 118.0 397.0 117.0 398.0 119.0 C 396.0 121.0 397.0 124.0 399.0 125.0 C 401.0 126.0 401.0 123.0 401.0 120.0 C 401.0 117.0 403.0 115.0 406.0 114.0 C 409.0 112.0 412.0 112.0 414.0 111.0 C 415.0 108.0 418.0 107.0 421.0 107.0 C 423.0 106.0 425.0 105.0 426.0 103.0 C 426.0 100.0 428.0 98.0 430.0 97.0 C 431.0 99.0 428.0 100.0 431.0 101.0 C 434.0 100.0 433.0 98.0 433.0 95.0 C 435.0 92.0 438.0 91.0 440.0 88.0 C 443.0 88.0 446.0 88.0 449.0 88.0 C 448.0 86.0 447.0 84.0 450.0 84.0 C 453.0 83.0 455.0 81.0 456.0 78.0 C 458.0 77.0 460.0 79.0 463.0 78.0 C 466.0 77.0 468.0 75.0 469.0 75.0" stroke-width="0.0" fill="rgb(72, 161, 62)" opacity="1.0" stroke="rgb(30, 58, 93)" stroke-opacity="0.06598292" stroke-linecap="round" stroke-linejoin="round"/>
    <path d="M 161.0 313.0 C 162.0 313.0 162.0 315.0 160.0 316.0 C 162.0 317.0 164.0 317.0 165.0 315.0 C 167.0 315.0 167.0 317.0 165.0 318.0 C 165.0 320.0 165.0 322.0 163.0 323.0 C 162.0 325.0 162.0 327.0 162.0 329.0 C 164.0 329.0 166.0 329.0 166.0 331.0 C 164.0 332.0 165.0 334.0 167.0 334.0 C 168.0 335.0 168.0 337.0 168.0 339.0 C 168.0 341.0 167.0 343.0 168.0 345.0 C 169.0 346.0 169.0 348.0 171.0 349.0 C 171.0 351.0 172.0 353.0 172.0 355.0 C 170.0 356.0 172.0 357.0 172.0 359.0 C 173.0 361.0 173.0 363.0 173.0 365.0 C 173.0 367.0 174.0 369.0 174.0 371.0 C 174.0 373.0 175.0 375.0 175.0 377.0 C 175.0 379.0 175.0 381.0 176.0 383.0 C 176.0 385.0 176.0 387.0 176.0 389.0 C 175.0 390.0 173.0 391.0 171.0 393.0 C 169.0 393.0 168.0 391.0 166.0 390.0 C 166.0 388.0 166.0 386.0 166.0 384.0 C 165.0 382.0 163.0 381.0 161.0 381.0 C 159.0 381.0 157.0 381.0 155.0 382.0 C 154.0 383.0 152.0 383.0 151.0 381.0 C 150.0 383.0 148.0 383.0 147.0 381.0 C 145.0 381.0 143.0 379.0 141.0 377.0 C 139.0 376.0 137.0 374.0 135.0 372.0 C 133.0 370.0 131.0 369.0 129.0 367.0 C 127.0 365.0 126.0 363.0 125.0 361.0 C 124.0 359.0 124.0 357.0 124.0 355.0 C 124.0 353.0 124.0 351.0 122.0 349.0 C 121.0 347.0 120.0 345.0 119.0 343.0 C 118.0 341.0 117.0 339.0 115.0 337.0 C 115.0 335.0 116.0 334.0 118.0 335.0 C 120.0 336.0 121.0 338.0 123.0 339.0 C 125.0 340.0 126.0 342.0 128.0 342.0 C 128.0 340.0 130.0 339.0 130.0 337.0 C 132.0 337.0 133.0 335.0 135.0 334.0 C 135.0 332.0 135.0 330.0 135.0 328.0 C 137.0 327.0 137.0 325.0 137.0 323.0 C 139.0 323.0 141.0 324.0 142.0 325.0 C 141.0 327.0 142.0 329.0 142.0 331.0 C 142.0 333.0 142.0 335.0 142.0 337.0 C 141.0 339.0 141.0 341.0 139.0 341.0 C 139.0 343.0 141.0 343.0 141.0 345.0 C 141.0 347.0 139.0 347.0 138.0 349.0 C 138.0 351.0 136.0 351.0 136.0 349.0 C 134.0 349.0 134.0 351.0 134.0 353.0 C 135.0 355.0 137.0 355.0 138.0 354.0 C 140.0 354.0 142.0 354.0 144.0 354.0 C 144.0 352.0 142.0 351.0 142.0 349.0 C 144.0 349.0 146.0 349.0 147.0 347.0 C 148.0 346.0 150.0 345.0 152.0 345.0 C 154.0 344.0 156.0 343.0 158.0 343.0 C 160.0 342.0 160.0 340.0 160.0 338.0 C 160.0 336.0 160.0 334.0 160.0 332.0 C 162.0 331.0 160.0 330.0 158.0 330.0 C 158.0 328.0 160.0 327.0 160.0 325.0 C 161.0 324.0 162.0 322.0 162.0 320.0 C 160.0 319.0 158.0 318.0 158.0 316.0 C 160.0 315.0 160.0 313.0 161.0 313.0" stroke-width="0.0" fill="rgb(72, 160, 63)" opacity="1.0" stroke="rgb(154, 45, 66)" stroke-opacity="0.23115832" stroke-linecap="round" stroke-linejoin="round"/>
  </g>
</svg>
