<?xml version="1.0" ?>
<svg xmlns="http://www.w3.org/2000/svg" version="1.1" width="512" height="512">
  <defs/>
  <g>
    <path d="M 9.136581420898438 203.24766540527344 C 24.79696273803711 240.10316467285156 57.39527130126953 237.5751190185547 80.7789306640625 265.0896911621094 C 105.8785400390625 290.7159423828125 125.07234191894531 299.9375 137.6875762939453 342.33251953125 C 104.79039001464844 357.46942138671875 102.09101867675781 335.0223083496094 82.26898956298828 315.50927734375 C 71.36387634277344 300.2652282714844 70.21694946289062 303.91162109375 78.58516693115234 315.3406066894531 C 85.70558166503906 325.4855041503906 92.50226593017578 335.57635498046875 97.98712158203125 343.2510070800781 C 102.11186981201172 348.47528076171875 105.73621368408203 351.03070068359375 104.86634063720703 351.54620361328125 C 103.02600860595703 351.9673767089844 100.24087524414062 356.26922607421875 99.42761993408203 356.3114318847656 C 98.2622299194336 358.52191162109375 96.40313720703125 363.9395751953125 96.46629333496094 363.5773620605469 C 95.21061706542969 360.86529541015625 95.87673950195312 362.9212951660156 95.78143310546875 362.1405334472656 C 93.37841796875 360.46612548828125 97.47489929199219 362.68609619140625 96.36148071289062 364.1298828125 C 97.23373413085938 361.5834045410156 98.77267456054688 356.52972412109375 99.86962127685547 355.9300231933594 C 100.44123077392578 355.7503662109375 103.6885757446289 351.9560241699219 105.15596008300781 351.50274658203125 C 107.92005157470703 354.4700012207031 111.17559051513672 358.7474670410156 114.6603012084961 362.5086975097656 C 119.35098266601562 366.45794677734375 122.9142837524414 371.8283386230469 126.98710632324219 375.1213073730469 C 125.14600372314453 375.185302734375 124.3811264038086 380.7908020019531 121.64828491210938 382.7790832519531 C 119.43335723876953 385.3085021972656 117.75656127929688 386.924560546875 119.9941635131836 386.09747314453125 C 118.2295150756836 386.0567626953125 120.3155517578125 385.73101806640625 118.89089965820312 386.24517822265625 C 118.47811126708984 386.0263977050781 119.75923156738281 385.1911315917969 121.94139099121094 382.5570373535156 C 123.98219299316406 380.88385009765625 124.82231140136719 376.3703918457031 127.01416778564453 374.3558044433594 C 125.83927154541016 374.85748291015625 129.69540405273438 376.55084228515625 131.2005157470703 379.1826477050781 C 130.40867614746094 378.9300231933594 133.57618713378906 381.7132568359375 134.4949493408203 382.50384521484375 C 138.18624877929688 385.6577453613281 143.29710388183594 390.4971008300781 149.5972900390625 396.1980895996094 C 157.48312377929688 402.02935791015625 167.21348571777344 410.809326171875 177.16339111328125 418.3437805175781 C 188.03036499023438 429.1495056152344 199.20321655273438 437.79193115234375 208.9783935546875 447.6258850097656 C 216.17723083496094 453.6551513671875 208.75094604492188 453.8707580566406 199.49209594726562 461.0269775390625 C 187.50033569335938 467.614501953125 182.73924255371094 467.1688537597656 175.09762573242188 468.2020568847656 C 164.86830139160156 469.0626220703125 156.17202758789062 468.16522216796875 154.93008422851562 468.33306884765625 C 150.39306640625 466.8414611816406 145.7095184326172 468.3523864746094 146.7420654296875 466.44744873046875 C 144.86024475097656 467.483154296875 137.6238555908203 465.80767822265625 131.2740478515625 464.3656311035156 C 127.11542510986328 463.2427673339844 118.36157989501953 460.1667175292969 112.63742065429688 457.555419921875 C 106.0659408569336 456.2827453613281 100.8818359375 453.44403076171875 101.25505828857422 454.6561279296875 C 101.3058853149414 453.57916259765625 96.56714630126953 453.95989990234375 106.64109802246094 455.5378723144531 C 97.65229797363281 453.696533203125 92.54351043701172 453.3602600097656 96.35903930664062 453.8738098144531 C 97.58685302734375 453.5165710449219 91.42403411865234 451.54156494140625 88.66702270507812 450.9275817871094 C 82.98222351074219 449.4073181152344 78.43611907958984 447.97308349609375 75.69427490234375 446.2091369628906 C 78.71290588378906 446.96246337890625 72.744873046875 445.32647705078125 69.8631591796875 442.0379333496094 C 72.3982162475586 444.69439697265625 70.433349609375 441.7750244140625 69.40701293945312 441.6485900878906 C 71.98040771484375 443.7220458984375 70.4493179321289 443.9828796386719 68.76421356201172 441.6748046875 C 64.40453338623047 438.51617431640625 63.17070388793945 436.239013671875 65.49250030517578 439.10235595703125 C 63.531185150146484 436.8896789550781 60.327415466308594 431.8760070800781 60.601139068603516 433.9625549316406 C 58.96063232421875 431.67706298828125 56.86922836303711 427.9809265136719 56.132442474365234 428.46588134765625 C 57.75822830200195 429.62335205078125 55.987640380859375 426.1871032714844 52.849361419677734 422.1624450683594 C 56.51499938964844 425.0599365234375 52.07079315185547 422.3036193847656 52.22979736328125 422.3236389160156 C 49.12422561645508 417.610595703125 46.549110412597656 412.6143798828125 46.61107635498047 413.8120422363281 C 45.19524002075195 410.6142578125 41.8077392578125 406.2648010253906 41.338653564453125 405.0904235839844 C 39.34617233276367 402.21258544921875 37.040382385253906 399.3134765625 39.362586975097656 397.2968444824219 C 38.14484786987305 397.9348449707031 39.868099212646484 398.6497497558594 37.99994659423828 397.50738525390625 C 40.101375579833984 398.4773864746094 38.5692024230957 399.3792724609375 34.11445236206055 401.70294189453125 C 41.142791748046875 397.8170166015625 36.39284896850586 399.3258972167969 39.07595443725586 400.6023254394531 C 37.834815979003906 399.956298828125 36.184661865234375 399.25079345703125 38.27422332763672 400.01617431640625 C 36.29945373535156 398.4757080078125 34.8367919921875 393.22979736328125 33.826358795166016 391.20147705078125 C 31.894458770751953 387.6950988769531 29.504638671875 382.6903076171875 28.398195266723633 379.9883728027344 C 27.68614387512207 377.583984375 26.084726333618164 373.60125732421875 26.100887298583984 372.5564270019531 C 25.148494720458984 369.7954406738281 23.22284507751465 365.3817138671875 22.85526466369629 356.52935791015625 C 23.50216293334961 364.90386962890625 22.560190200805664 358.7536315917969 22.05411720275879 354.6482238769531 C 21.29271697998047 353.0208740234375 20.975622177124023 343.81756591796875 20.28317642211914 347.4813232421875 C 21.24197006225586 346.68829345703125 17.396747589111328 340.9167175292969 18.730552673339844 341.06964111328125 C 16.709735870361328 339.6485290527344 15.464839935302734 335.5904235839844 13.74696159362793 330.80157470703125 C 12.835944175720215 326.7437438964844 11.668594360351562 322.2082824707031 11.57408618927002 323.1947326660156 C 9.465763092041016 309.7962951660156 4.287020683288574 304.9814453125 9.136581420898438 203.24766540527344" stroke-width="0.0" fill="rgb(71, 160, 61)" opacity="0.999894" stroke="rgb(244, 42, 122)" stroke-opacity="0.5070383" stroke-linecap="round" stroke-linejoin="round"/>
    <path d="M 500.35894775390625 290.12054443359375 C 498.9642028808594 323.4662170410156 481.7306823730469 351.617919921875 462.3489074707031 378.8336181640625 C 446.045654296875 401.5844421386719 430.4601135253906 415.9729919433594 415.83056640625 427.5405578613281 C 410.9721984863281 430.1715087890625 398.6335754394531 426.9265441894531 391.8201599121094 424.44598388671875 C 383.5854187011719 422.13824462890625 376.87823486328125 420.1155090332031 374.9593200683594 417.38128662109375 C 371.7282409667969 415.83935546875 364.2657165527344 416.47125244140625 361.22454833984375 417.2193603515625 C 364.1628112792969 416.6500549316406 361.7055969238281 416.9088439941406 363.3968505859375 417.1801452636719 C 361.25146484375 416.6918640136719 361.54345703125 417.4917297363281 361.8771057128906 417.07952880859375 C 362.9444274902344 416.5697937011719 370.8583984375 415.6126403808594 374.8912353515625 417.2076416015625 C 377.7106628417969 420.63934326171875 385.74798583984375 422.703125 393.4081115722656 425.0576171875 C 400.44134521484375 427.1132507324219 407.53765869140625 428.9224853515625 415.3264465332031 428.6160888671875 C 410.8830261230469 429.6559753417969 407.50701904296875 434.01153564453125 402.8702392578125 437.1897888183594 C 394.822021484375 442.6969299316406 389.37091064453125 445.17889404296875 379.2037048339844 448.98876953125 C 378.5834655761719 450.1528625488281 371.06756591796875 447.23828125 367.4324951171875 444.548828125 C 363.1805419921875 442.1944580078125 359.5384216308594 439.1207275390625 356.74627685546875 438.11981201171875 C 357.9927978515625 437.93243408203125 356.68670654296875 439.7336120605469 357.3835754394531 436.6048889160156 C 356.3661804199219 439.41064453125 358.87542724609375 435.6258239746094 361.8671569824219 439.1986389160156 C 359.79901123046875 435.540283203125 357.05767822265625 438.8042297363281 356.2581787109375 436.7917175292969 C 355.3800048828125 436.0260925292969 352.767578125 433.1037902832031 349.97760009765625 430.7009582519531 C 351.03167724609375 431.1806335449219 350.65185546875 430.8910827636719 349.1623840332031 430.6134338378906 C 350.43511962890625 430.7671203613281 351.2840270996094 431.3402404785156 350.24578857421875 430.7026062011719 C 352.2140808105469 432.69671630859375 355.9587097167969 436.03228759765625 357.5662536621094 438.0348205566406 C 361.6676940917969 439.898193359375 365.09014892578125 443.5569152832031 368.3688049316406 445.27899169921875 C 371.9339904785156 447.46417236328125 375.6240539550781 449.3309326171875 379.225341796875 449.07781982421875 C 377.51239013671875 449.6612548828125 371.2559814453125 451.4989013671875 367.01287841796875 455.3891906738281 C 364.01190185546875 456.77911376953125 358.0398864746094 461.13970947265625 350.82318115234375 463.09234619140625 C 345.9433898925781 465.384765625 340.7629699707031 466.8374938964844 334.3798522949219 467.9796142578125 C 330.2396545410156 468.7877502441406 323.8211669921875 469.9450378417969 315.5498962402344 470.19146728515625 C 314.4158020019531 470.3856201171875 311.2158508300781 470.871337890625 312.2169189453125 469.94024658203125 C 313.7941589355469 471.7109375 313.2191467285156 470.7698974609375 313.83746337890625 470.6040344238281 C 312.9231872558594 470.5552062988281 312.86358642578125 469.16107177734375 314.15435791015625 470.8426818847656 C 316.80792236328125 470.2135314941406 305.2138366699219 470.8126220703125 305.0603332519531 470.3973388671875 C 305.2791442871094 469.9757385253906 300.42059326171875 470.48187255859375 301.8666076660156 469.86279296875 C 294.9096374511719 469.9345703125 291.08734130859375 468.7569885253906 288.23773193359375 468.21221923828125 C 288.8244934082031 469.14361572265625 286.7413330078125 469.068603515625 289.03753662109375 468.1080322265625 C 278.98541259765625 466.3515319824219 273.73516845703125 464.8193054199219 275.5018310546875 465.6600036621094 C 276.8180236816406 465.10943603515625 268.7070007324219 463.40985107421875 277.3695068359375 464.6723937988281 C 275.1762390136719 465.2498779296875 268.0906982421875 462.2979431152344 263.8486633300781 460.36468505859375 C 263.6305847167969 460.06378173828125 257.73193359375 456.37939453125 256.2024230957031 455.9866027832031 C 255.70362854003906 455.4283447265625 250.4730224609375 451.7117004394531 246.6658477783203 447.8553466796875 C 244.61277770996094 444.7574768066406 242.6610107421875 440.9697570800781 243.3247833251953 441.9173889160156 C 245.73411560058594 445.3613586425781 249.85165405273438 441.93115234375 253.89453125 441.2812194824219 C 256.6317443847656 440.0176696777344 263.26080322265625 438.17230224609375 268.3623962402344 435.72930908203125 C 268.4681396484375 436.52703857421875 275.21337890625 433.2137756347656 274.7308044433594 433.5671081542969 C 275.4417724609375 432.95367431640625 282.8448486328125 430.3046875 284.33612060546875 428.5076599121094 C 284.5395812988281 427.9887390136719 291.1749267578125 424.78863525390625 287.63653564453125 425.27410888671875 C 289.2393493652344 426.50811767578125 290.7365417480469 422.1866149902344 284.5240173339844 425.3193054199219 C 277.008544921875 428.55230712890625 268.7636413574219 431.91119384765625 261.2585754394531 435.217041015625 C 252.2285614013672 439.4842529296875 241.58737182617188 442.5990295410156 240.44139099121094 442.0105285644531 C 237.95574951171875 434.214599609375 237.5932159423828 425.8121643066406 243.44293212890625 409.1357116699219 C 248.7792205810547 398.1188049316406 258.4424133300781 379.4059143066406 267.27996826171875 365.9447021484375 C 274.6453552246094 353.240478515625 279.092041015625 349.3954162597656 288.9703369140625 342.8930969238281 C 291.48468017578125 354.26519775390625 302.4267272949219 360.9350280761719 309.98822021484375 374.1552429199219 C 317.4478454589844 383.91357421875 321.16119384765625 393.82147216796875 325.9509582519531 396.4730224609375 C 324.2051696777344 395.42938232421875 326.7833251953125 397.13897705078125 325.6922912597656 396.29620361328125 C 327.00048828125 396.8497009277344 323.46875 395.2550354003906 320.6056823730469 390.65570068359375 C 323.423828125 394.2707824707031 324.81854248046875 399.61322021484375 328.73187255859375 401.6585998535156 C 332.4975280761719 405.5225524902344 334.04229736328125 408.6575927734375 331.2518310546875 405.8570251464844 C 333.9830627441406 409.105224609375 332.48602294921875 404.8300476074219 325.9495544433594 399.5147399902344 C 318.957763671875 388.1280517578125 310.9781188964844 373.2032775878906 295.8990478515625 355.6102600097656 C 287.4144287109375 346.2796630859375 268.1402587890625 327.9377136230469 500.35894775390625 290.12054443359375" stroke-width="0.0" fill="rgb(72, 160, 60)" opacity="0.9998677" stroke="rgb(245, 2, 204)" stroke-opacity="0.8547275" stroke-linecap="round" stroke-linejoin="round"/>
    <path d="M 180.4464874267578 183.69476318359375 C 184.5292510986328 191.347900390625 188.6309814453125 198.48727416992188 192.1558837890625 204.55665588378906 C 194.7689666748047 209.11416625976562 196.5447540283203 212.63775634765625 197.7440185546875 215.26316833496094 C 198.43484497070312 216.9316864013672 198.54037475585938 217.93492126464844 198.3695068359375 218.4034881591797 C 198.14248657226562 218.21189880371094 197.7188262939453 217.63592529296875 197.05877685546875 217.06846618652344 C 196.43768310546875 216.77195739746094 196.18325805664062 216.55117797851562 196.3766326904297 216.48561096191406 C 196.96775817871094 216.71986389160156 197.85348510742188 217.49026489257812 198.92678833007812 218.85736083984375 C 200.06285095214844 220.87625122070312 201.201171875 223.5326690673828 202.40513610839844 226.79867553710938 C 203.8008575439453 230.62559509277344 205.17852783203125 234.64732360839844 206.57139587402344 238.9456787109375 C 208.11965942382812 243.46046447753906 209.3859100341797 248.0430450439453 210.76123046875 252.63172912597656 C 212.25157165527344 257.1531982421875 213.9198455810547 261.5518493652344 215.36541748046875 265.99456787109375 C 216.57717895507812 270.41790771484375 217.8953857421875 274.77374267578125 219.40200805664062 279.14923095703125 C 221.09535217285156 283.7217102050781 222.09555053710938 288.3023986816406 223.23867797851562 293.0798034667969 C 224.45513916015625 298.04986572265625 225.6870880126953 302.9764404296875 226.95419311523438 307.9928894042969 C 228.13787841796875 313.1440124511719 229.16920471191406 318.4571838378906 229.71217346191406 323.8611145019531 C 229.97119140625 329.3739013671875 229.85574340820312 334.9219055175781 229.5937042236328 340.42919921875 C 228.8114776611328 345.7982177734375 228.36546325683594 351.18218994140625 228.29421997070312 356.82177734375 C 228.2338104248047 362.369384765625 228.37330627441406 367.7011413574219 228.0004119873047 373.0468444824219 C 227.62228393554688 378.7290954589844 227.42857360839844 384.8213806152344 227.02772521972656 391.0397033691406 C 226.21511840820312 397.3293151855469 224.5888671875 403.9983215332031 222.834716796875 410.7413635253906 C 221.049072265625 417.5352783203125 219.40379333496094 424.0417175292969 217.67955017089844 430.0252685546875 C 216.25279235839844 434.9025573730469 214.75392150878906 437.8937072753906 212.6399383544922 438.53582763671875 C 209.52407836914062 436.6898498535156 205.28009033203125 433.2281799316406 200.5890350341797 428.8459167480469 C 195.73736572265625 424.29412841796875 191.89492797851562 419.0389709472656 189.072021484375 413.2531433105469 C 187.11837768554688 407.1756591796875 186.30853271484375 401.34368896484375 185.27757263183594 395.7561340332031 C 184.3854522705078 390.5068054199219 183.69775390625 385.4900817871094 183.2993621826172 380.6211242675781 C 182.9351043701172 375.7613830566406 182.16351318359375 370.9503479003906 181.35665893554688 366.1653747558594 C 180.86032104492188 361.3133239746094 180.54368591308594 356.1959228515625 179.60240173339844 351.0942077636719 C 178.62664794921875 345.97918701171875 177.92518615722656 341.0667419433594 177.34950256347656 336.44635009765625 C 176.81991577148438 332.22039794921875 176.47633361816406 328.47076416015625 176.17575073242188 325.3292236328125 C 176.02230834960938 323.1549987792969 176.4993133544922 321.931396484375 177.63116455078125 321.4762268066406 C 178.5838623046875 321.51190185546875 179.20272827148438 321.71875 179.53298950195312 322.0125732421875 C 179.13478088378906 322.3646240234375 178.1517333984375 322.5438537597656 177.0064239501953 322.2847900390625 C 176.1501922607422 321.2868347167969 175.50863647460938 319.0289001464844 175.36907958984375 315.37255859375 C 174.80245971679688 310.5531311035156 174.41622924804688 304.9582214355469 173.52198791503906 298.87152099609375 C 172.78219604492188 292.7920837402344 172.0304412841797 287.2247314453125 170.99891662597656 282.6708679199219 C 170.38348388671875 279.6279296875 170.68421936035156 278.4313659667969 172.29896545410156 278.8307800292969 C 174.9817352294922 280.2467346191406 177.93115234375 282.30859375 180.5756378173828 284.66656494140625 C 182.81016540527344 286.9068603515625 184.366455078125 288.6414794921875 185.15968322753906 289.6358337402344 C 185.24952697753906 289.7434387207031 184.75588989257812 289.07769775390625 183.69549560546875 287.8294677734375 C 182.0919647216797 286.2127990722656 180.1533203125 284.36810302734375 178.13133239746094 282.6381530761719 C 176.03854370117188 281.0782470703125 173.80482482910156 279.6379699707031 171.70567321777344 278.4953308105469 C 169.97955322265625 277.54559326171875 168.81533813476562 276.68408203125 168.13949584960938 276.1572570800781 C 167.5516357421875 276.5543518066406 167.1417694091797 278.1643981933594 167.37548828125 280.5356140136719 C 168.58193969726562 283.8004455566406 169.898193359375 287.7519226074219 170.47935485839844 292.4377746582031 C 171.1097412109375 297.60699462890625 170.78836059570312 302.808837890625 168.4373321533203 307.6326904296875 C 163.9412078857422 311.85308837890625 157.64862060546875 315.3353576660156 149.85137939453125 317.593505859375 C 140.92733764648438 318.23968505859375 131.45608520507812 317.15087890625 122.0792007446289 314.3027648925781 C 113.33031463623047 309.6047668457031 105.6534423828125 303.3132019042969 99.60228729248047 295.57049560546875 C 95.77835845947266 286.54400634765625 94.5979995727539 276.3216552734375 95.70681762695312 264.9461669921875 C 97.95838928222656 252.26809692382812 99.62723541259766 238.93084716796875 99.12065124511719 224.83863830566406 C 96.4380874633789 210.93838500976562 93.07300567626953 198.18972778320312 90.85660552978516 188.18629455566406 C 90.09622192382812 182.84947204589844 92.13014221191406 183.06004333496094 96.79501342773438 188.4796142578125 C 103.34235382080078 197.39926147460938 112.23770141601562 207.3319549560547 123.07768249511719 216.71774291992188 C 134.91522216796875 224.70257568359375 146.63966369628906 231.32186889648438 157.23721313476562 236.70245361328125 C 166.2318115234375 241.17001342773438 173.0107879638672 244.38815307617188 177.26498413085938 246.19793701171875 C 178.5494842529297 246.6637725830078 176.1929473876953 245.63499450683594 169.9224395751953 242.82086181640625 C 159.70419311523438 238.12806701660156 145.82260131835938 231.03665161132812 129.03175354003906 220.98406982421875 C 110.4906234741211 207.4844207763672 93.77898406982422 188.95819091796875 83.233154296875 164.3746337890625 C 77.91680145263672 135.8737335205078 78.8091812133789 112.61649322509766 89.2522964477539 102.74298095703125 C 106.52825927734375 112.77897644042969 126.27467346191406 130.74807739257812 180.4464874267578 183.69476318359375" stroke-width="0.0" fill="rgb(72, 160, 62)" opacity="0.99943596" stroke="rgb(58, 18, 58)" stroke-opacity="0.30739155" stroke-linecap="round" stroke-linejoin="round"/>
    <path d="M 456.0162048339844 143.11001586914062 C 453.4352111816406 147.46835327148438 450.89788818359375 151.7613525390625 448.22296142578125 155.8881072998047 C 445.533447265625 159.68533325195312 442.8884582519531 163.08204650878906 440.5835266113281 166.03306579589844 C 438.80169677734375 168.52674865722656 437.6380310058594 170.2687225341797 437.0751647949219 171.03622436523438 C 437.1800842285156 170.8842010498047 438.0061340332031 169.6553497314453 439.62872314453125 167.3243865966797 C 441.85601806640625 164.06292724609375 444.6445617675781 160.1605987548828 448.29266357421875 156.20472717285156 C 452.5906677246094 152.56353759765625 457.3384094238281 149.5364532470703 462.0014343261719 147.33709716796875 C 466.3292541503906 146.4010467529297 469.7552795410156 146.93983459472656 471.7821044921875 149.08956909179688 C 471.81256103515625 152.80381774902344 470.118408203125 158.11959838867188 467.692626953125 164.8148651123047 C 464.8539733886719 172.44175720214844 461.4753112792969 180.27838134765625 458.0062255859375 187.66204833984375 C 454.7371826171875 194.4731903076172 451.5426940917969 199.6959228515625 448.6525573730469 204.27719116210938 C 446.311767578125 207.90467834472656 444.8996276855469 211.00442504882812 443.6358337402344 213.5803680419922 C 442.2696228027344 215.64669799804688 440.83978271484375 217.5362091064453 439.1802978515625 219.48509216308594 C 437.34991455078125 221.85238647460938 435.4148254394531 224.65512084960938 433.2308044433594 227.83982849121094 C 430.91912841796875 231.3677520751953 428.6582946777344 235.12962341308594 426.3464660644531 238.98826599121094 C 423.9716491699219 242.6183624267578 421.71771240234375 245.9954071044922 419.5712890625 249.0073699951172 C 417.6368713378906 251.59210205078125 415.9395751953125 253.84144592285156 414.5161437988281 255.78062438964844 C 413.1988220214844 257.56732177734375 411.87200927734375 259.1171569824219 410.6563720703125 260.64501953125 C 409.40289306640625 262.208740234375 407.8459167480469 263.8067321777344 406.1512145996094 265.5587463378906 C 404.2685852050781 267.449951171875 402.1971740722656 269.4727783203125 400.1221923828125 271.6671142578125 C 398.1023254394531 273.7838134765625 396.07659912109375 275.6039733886719 394.2308349609375 277.3153381347656 C 392.57916259765625 278.7525634765625 391.05975341796875 280.0094909667969 389.7015686035156 280.9447937011719 C 388.2565612792969 282.1072998046875 386.8623046875 283.34991455078125 385.3643493652344 284.5219421386719 C 383.61083984375 285.8237609863281 381.6357727050781 287.330810546875 379.5243225097656 289.178466796875 C 377.0310974121094 290.8983459472656 374.17462158203125 292.64801025390625 371.69970703125 294.3845520019531 C 369.0732421875 295.9234619140625 366.42864990234375 297.0930480957031 363.84375 298.27978515625 C 361.64312744140625 299.3543395996094 359.5824279785156 300.2975769042969 357.3056640625 301.0653076171875 C 355.0623779296875 301.76898193359375 352.9530029296875 302.55096435546875 350.7803039550781 303.4194641113281 C 348.071044921875 304.4499816894531 345.0985107421875 305.6123352050781 342.1121826171875 306.4645080566406 C 338.6676940917969 307.25262451171875 334.71923828125 308.2721252441406 330.7083740234375 309.0981750488281 C 326.552734375 310.1621398925781 322.0502014160156 310.8161315917969 317.4467468261719 311.8767395019531 C 312.8565673828125 312.5505065917969 308.0142822265625 312.41864013671875 302.90789794921875 311.5193786621094 C 297.8354187011719 310.1456604003906 292.93121337890625 308.9406433105469 288.3404235839844 307.56689453125 C 284.53765869140625 306.1784362792969 282.1123962402344 304.9366760253906 281.4580383300781 303.42449951171875 C 283.16058349609375 301.3877258300781 286.5878601074219 298.88128662109375 291.0845031738281 295.696533203125 C 295.73748779296875 291.5098876953125 300.41778564453125 286.81085205078125 305.37554931640625 282.2780456542969 C 310.62286376953125 278.33538818359375 315.1623840332031 274.0751037597656 319.06146240234375 269.6745910644531 C 322.81561279296875 265.64373779296875 326.094482421875 261.92279052734375 329.3798828125 258.7911376953125 C 331.8469543457031 255.6376190185547 334.1697998046875 253.33767700195312 335.65716552734375 251.20941162109375 C 337.0001525878906 249.69158935546875 337.961669921875 248.76071166992188 338.4564208984375 248.23272705078125 C 338.64129638671875 247.91632080078125 338.5954895019531 247.70692443847656 338.58831787109375 247.54376220703125 C 338.7543640136719 247.32872009277344 339.21600341796875 246.99822998046875 339.8353271484375 246.45106506347656 C 340.6417541503906 245.51089477539062 341.67156982421875 244.12228393554688 342.98748779296875 242.36688232421875 C 344.8186340332031 240.38168334960938 346.9609375 237.90573120117188 349.17254638671875 234.91732788085938 C 351.8527526855469 231.68045043945312 354.5518798828125 228.01206970214844 357.46917724609375 224.044921875 C 360.3373718261719 219.67970275878906 363.3111267089844 215.3096923828125 366.37908935546875 211.1115264892578 C 369.2174987792969 207.005615234375 372.1031799316406 203.26744079589844 374.56610107421875 199.85415649414062 C 377.1103515625 197.03562927246094 378.68890380859375 194.32496643066406 379.96160888671875 191.9937744140625 C 380.666259765625 190.09886169433594 381.60418701171875 189.16603088378906 382.6311340332031 189.2239532470703 C 384.1953125 190.36895751953125 386.5319519042969 192.3068084716797 389.39990234375 194.5595703125 C 393.04168701171875 196.7422637939453 397.2186584472656 198.99029541015625 401.5971374511719 201.16896057128906 C 405.9361877441406 203.1993408203125 409.9034423828125 204.9547882080078 413.12835693359375 206.3680419921875 C 415.4374694824219 207.32931518554688 416.6410827636719 207.74288940429688 416.388427734375 207.62518310546875 C 414.8195495605469 207.0099334716797 412.0014953613281 205.86407470703125 408.11175537109375 204.17762756347656 C 403.4195861816406 202.06991577148438 398.34014892578125 199.64065551757812 393.28460693359375 196.93020629882812 C 388.57147216796875 194.2064971923828 384.898193359375 191.61944580078125 382.9942932128906 189.14405822753906 C 383.2357482910156 186.3876190185547 384.9252624511719 183.6016387939453 387.776611328125 180.74539184570312 C 390.58941650390625 177.31298828125 394.2052917480469 174.32907104492188 397.8336486816406 171.41062927246094 C 400.8476257324219 168.0646514892578 403.7671203613281 165.07232666015625 406.1568603515625 162.1026611328125 C 408.0234680175781 159.04981994628906 409.5271301269531 155.9413604736328 410.730712890625 152.82888793945312 C 411.7817687988281 149.7568359375 412.8287048339844 146.63148498535156 456.0162048339844 143.11001586914062" stroke-width="0.0" fill="rgb(72, 161, 63)" opacity="0.9994874" stroke="rgb(43, 146, 126)" stroke-opacity="0.0780347" stroke-linecap="round" stroke-linejoin="round"/>
    <path d="M 507.1669921875 50.42964553833008 C 505.4837951660156 56.51443862915039 502.4794921875 61.63445281982422 500.0653991699219 66.71024322509766 C 498.31298828125 71.64502716064453 497.1224365234375 76.25653839111328 496.3330383300781 80.05767822265625 C 495.50970458984375 83.75166320800781 494.54510498046875 87.76350402832031 493.77996826171875 91.82498931884766 C 492.79229736328125 95.56197357177734 491.2308349609375 99.71831512451172 490.08502197265625 103.66787719726562 C 488.4942321777344 107.31470489501953 487.36761474609375 110.30887603759766 486.0938720703125 112.54186248779297 C 484.44140625 113.08622741699219 482.6160888671875 112.12905883789062 480.6680908203125 110.70111083984375 C 478.47247314453125 109.6355209350586 476.7391662597656 108.67025756835938 475.7131042480469 108.13815307617188 C 475.5157470703125 108.23579406738281 476.3517761230469 108.66663360595703 478.0481262207031 109.39830017089844 C 480.49407958984375 110.41264343261719 483.0889892578125 111.79542541503906 484.8302307128906 113.71612548828125 C 484.94647216796875 116.43531799316406 483.9104919433594 119.89329528808594 482.2995910644531 124.26046752929688 C 480.6118469238281 129.0568389892578 478.7458801269531 133.87179565429688 476.8185119628906 138.79405212402344 C 475.01751708984375 143.10484313964844 473.37530517578125 146.70094299316406 472.456787109375 149.97557067871094 C 470.9863586425781 152.3419952392578 468.9298400878906 153.64453125 466.46905517578125 154.21214294433594 C 463.54180908203125 154.44883728027344 460.46832275390625 154.547119140625 457.19525146484375 154.61065673828125 C 453.7179260253906 154.7781524658203 450.15521240234375 155.3011932373047 446.58355712890625 156.225341796875 C 443.0065002441406 157.53570556640625 439.36370849609375 159.24978637695312 435.64801025390625 161.32830810546875 C 431.9553527832031 163.73728942871094 428.324462890625 166.3441925048828 424.6616516113281 168.9447479248047 C 420.943115234375 171.45233154296875 417.2346496582031 173.7750701904297 413.4767150878906 175.74725341796875 C 409.59375 177.20924377441406 405.6680603027344 178.16030883789062 401.8256530761719 178.71347045898438 C 398.0812683105469 178.9917449951172 394.41888427734375 179.06130981445312 391.0297546386719 179.00347900390625 C 388.1629333496094 179.058837890625 385.94842529296875 179.7968292236328 384.3835144042969 181.08018493652344 C 383.20245361328125 182.4671173095703 382.3721008300781 183.66709899902344 381.67010498046875 184.34022521972656 C 381.5516052246094 185.03927612304688 380.9850769042969 185.39736938476562 380.22613525390625 186.28245544433594 C 378.817626953125 188.1826629638672 376.44061279296875 191.72142028808594 372.37255859375 197.22088623046875 C 366.3521728515625 205.20606994628906 357.9224548339844 215.89859008789062 347.09918212890625 229.04351806640625 C 335.1458435058594 244.28372192382812 322.9031982421875 258.4115295410156 311.8116455078125 266.4040832519531 C 305.31707763671875 264.1080017089844 306.3412780761719 255.16537475585938 313.5540466308594 243.75743103027344 C 320.9981994628906 231.57015991210938 326.3881530761719 219.9058837890625 329.8835754394531 210.12234497070312 C 332.1702880859375 202.47299194335938 333.6098937988281 197.50099182128906 334.54241943359375 194.31976318359375 C 335.3564147949219 192.4231719970703 335.8919677734375 191.3470458984375 336.3064880371094 190.18930053710938 C 336.8531188964844 188.66978454589844 337.7958984375 186.68588256835938 339.0215148925781 184.18687438964844 C 340.4760437011719 181.09457397460938 342.0419006347656 177.70147705078125 343.72869873046875 174.48814392089844 C 345.5240173339844 171.38433837890625 346.7575988769531 168.27464294433594 348.22149658203125 165.48712158203125 C 349.7437744140625 163.23715209960938 351.0595397949219 161.0289764404297 352.38385009765625 158.7555389404297 C 353.92266845703125 156.71095275878906 355.5819091796875 154.67930603027344 357.1688537597656 152.5934600830078 C 358.5777282714844 150.68072509765625 359.75396728515625 148.94155883789062 360.6295471191406 147.539794921875 C 361.0841369628906 146.65557861328125 361.4782409667969 146.48196411132812 362.0242004394531 146.99876403808594 C 362.31298828125 147.79734802246094 362.3003845214844 148.49288940429688 362.0943603515625 148.9147491455078 C 361.82952880859375 148.95364379882812 361.66253662109375 148.42678833007812 361.7161560058594 147.50936889648438 C 362.0971984863281 146.1256103515625 363.08990478515625 144.29835510253906 364.95611572265625 142.20974731445312 C 367.5058288574219 139.625244140625 370.48516845703125 136.78477478027344 373.87127685546875 133.82000732421875 C 377.2639465332031 130.79849243164062 380.5516662597656 127.939697265625 383.3794860839844 125.25540161132812 C 386.1898498535156 123.10287475585938 388.24072265625 121.36602783203125 390.1377868652344 120.21481323242188 C 391.31201171875 119.16687774658203 391.9913024902344 118.38412475585938 392.42041015625 117.96661376953125 C 392.6066589355469 117.4813003540039 392.79132080078125 117.38182067871094 392.9254455566406 117.33851623535156 C 393.01727294921875 117.11880493164062 393.2740173339844 116.7912368774414 393.74285888671875 116.2992172241211 C 394.41156005859375 115.6191177368164 395.38604736328125 114.74996185302734 396.7132873535156 113.75332641601562 C 398.3050231933594 112.49810028076172 400.1092834472656 111.02360534667969 402.1191101074219 109.23757934570312 C 404.36175537109375 107.33728790283203 406.7975769042969 105.24665069580078 409.3614501953125 103.16667938232422 C 411.92193603515625 101.06365203857422 414.3126220703125 99.03128814697266 416.6347961425781 97.38567352294922 C 418.676513671875 96.11833190917969 420.19403076171875 94.91661071777344 421.3083801269531 94.04307556152344 C 422.0356750488281 93.427734375 422.3567199707031 92.95005798339844 422.6639709472656 92.67868041992188 C 423.0185852050781 92.53216552734375 423.4349670410156 92.2294921875 424.0362854003906 91.76582336425781 C 425.0443115234375 91.16567993164062 426.36688232421875 90.23967742919922 428.09893798828125 89.27194213867188 C 430.1595458984375 88.14910125732422 432.53570556640625 86.93816375732422 435.109375 85.86234283447266 C 437.6686096191406 84.89215850830078 440.02496337890625 83.76905059814453 442.0833435058594 82.3871078491211 C 444.00555419921875 81.17304229736328 446.2394714355469 80.08792877197266 448.5648498535156 79.01504516601562 C 450.992431640625 77.76386260986328 454.0135498046875 76.16869354248047 457.7398681640625 74.76445007324219 C 461.65447998046875 72.49759674072266 466.38623046875 70.44874572753906 472.23370361328125 68.71710968017578 C 478.4403991699219 68.5081787109375 485.3102111816406 69.75630950927734 507.1669921875 50.42964553833008" stroke-width="0.0" fill="rgb(72, 161, 62)" opacity="0.99942905" stroke="rgb(30, 58, 93)" stroke-opacity="0.06598292" stroke-linecap="round" stroke-linejoin="round"/>
    <path d="M 171.51829528808594 302.1410827636719 C 171.65737915039062 303.84771728515625 171.82533264160156 305.537841796875 172.12359619140625 307.20050048828125 C 172.38937377929688 308.83465576171875 172.50099182128906 310.4549255371094 172.5189208984375 312.11846923828125 C 172.5131072998047 313.82806396484375 172.4971466064453 315.5906982421875 172.52879333496094 317.41204833984375 C 172.58792114257812 319.2287902832031 172.6680145263672 320.9551696777344 172.77952575683594 322.54534912109375 C 172.90786743164062 323.99609375 173.02244567871094 325.3043518066406 173.133544921875 326.5259094238281 C 173.17051696777344 327.607666015625 173.2008056640625 328.5662536621094 173.2249298095703 329.484375 C 173.4254913330078 330.4622497558594 173.57823181152344 331.519287109375 173.5922393798828 332.70904541015625 C 173.47756958007812 333.9918518066406 173.4424285888672 335.379150390625 173.60476684570312 336.95355224609375 C 173.45213317871094 338.78399658203125 173.26206970214844 340.5827331542969 173.45260620117188 342.3646545410156 C 173.65618896484375 344.16693115234375 174.36239624023438 345.9203796386719 174.66387939453125 347.6131591796875 C 174.61866760253906 349.4420166015625 174.3783416748047 351.16729736328125 174.3385467529297 352.62017822265625 C 174.47117614746094 353.9722595214844 174.56838989257812 355.23443603515625 174.87139892578125 356.42816162109375 C 175.38018798828125 357.78643798828125 175.6148681640625 359.33074951171875 175.51824951171875 361.0373229980469 C 175.47091674804688 362.94976806640625 175.6298065185547 365.09228515625 176.3487091064453 367.817138671875 C 176.9212646484375 371.3110046386719 177.03733825683594 375.28399658203125 177.68881225585938 379.5150451660156 C 178.57540893554688 384.0216369628906 179.7615966796875 388.80328369140625 180.69512939453125 393.89984130859375 C 181.47982788085938 399.03155517578125 182.31472778320312 403.2979736328125 182.84292602539062 406.1501159667969 C 182.1038055419922 407.2515563964844 180.31861877441406 406.6446228027344 178.07208251953125 404.7809753417969 C 175.32794189453125 402.42352294921875 171.87704467773438 400.42059326171875 168.09922790527344 398.9263000488281 C 165.04934692382812 397.2397155761719 162.47015380859375 395.77471923828125 160.31968688964844 394.3216857910156 C 158.83316040039062 392.9508361816406 157.79881286621094 392.26654052734375 156.77000427246094 391.8130798339844 C 156.13250732421875 391.3432922363281 155.5361328125 390.8585205078125 154.7508087158203 390.77825927734375 C 153.83547973632812 390.17730712890625 152.7477264404297 389.20562744140625 151.5249786376953 388.3567199707031 C 150.01718139648438 387.1763000488281 148.47763061523438 385.57269287109375 146.58889770507812 384.1715087890625 C 144.4349365234375 382.6903076171875 142.20021057128906 380.87066650390625 140.01364135742188 379.01226806640625 C 138.04913330078125 376.9628601074219 135.89044189453125 375.0822448730469 133.6115264892578 373.43060302734375 C 131.59506225585938 371.7510070800781 130.02731323242188 369.864501953125 128.25364685058594 368.3629150390625 C 126.64723205566406 366.8013610839844 125.3691177368164 365.19891357421875 123.95194244384766 363.7334899902344 C 122.56700134277344 362.406005859375 121.07884216308594 360.99908447265625 119.84234619140625 359.26495361328125 C 118.5669174194336 357.27447509765625 116.57450103759766 355.4546813964844 114.32051086425781 353.3766784667969 C 112.1013412475586 350.655517578125 109.55963897705078 347.71875 106.9896011352539 344.83087158203125 C 104.982421875 341.8716735839844 103.97679138183594 338.80023193359375 104.06599426269531 335.78875732421875 C 105.18561553955078 333.060791015625 107.25627899169922 330.815673828125 110.0216064453125 329.1201477050781 C 113.18329620361328 328.11395263671875 116.45591735839844 327.8099365234375 119.56463623046875 328.1183776855469 C 122.25057983398438 328.8919372558594 124.3099136352539 329.9309997558594 125.69649505615234 331.0052795410156 C 126.42049407958984 331.9226379394531 126.55683135986328 332.5345153808594 126.25917053222656 332.65704345703125 C 125.69621276855469 332.0906982421875 125.02853393554688 330.78167724609375 124.45838165283203 328.7642517089844 C 124.22492218017578 326.1466064453125 124.4888916015625 323.1630859375 125.37628936767578 320.0723876953125 C 127.02265930175781 317.2173156738281 129.43719482421875 315.0149841308594 132.4890594482422 313.6121826171875 C 135.95858764648438 313.0126037597656 139.61961364746094 313.18475341796875 143.1971435546875 314.123046875 C 146.3326416015625 315.81378173828125 148.78378295898438 318.18511962890625 150.49923706054688 321.17596435546875 C 151.5959930419922 324.5134582519531 152.07461547851562 327.9763488769531 151.94801330566406 331.45501708984375 C 151.1986541748047 334.8153076171875 149.95664978027344 337.9638671875 148.44386291503906 340.7572326660156 C 146.81747436523438 343.12396240234375 145.19468688964844 345.11474609375 143.67578125 346.734375 C 142.27798461914062 348.09857177734375 141.0501708984375 349.1599426269531 140.01318359375 349.99517822265625 C 139.16712951660156 350.6240539550781 138.52133178710938 351.0635986328125 138.0409698486328 351.3940124511719 C 137.71226501464844 351.6239929199219 137.54852294921875 351.7472229003906 137.54171752929688 351.7640075683594 C 137.6739959716797 351.6788330078125 137.9447784423828 351.48541259765625 138.34458923339844 351.1690368652344 C 138.85801696777344 350.7384948730469 139.51638793945312 350.2203674316406 140.30018615722656 349.61639404296875 C 141.17974853515625 348.9306945800781 142.0927734375 348.1661376953125 143.02830505371094 347.31414794921875 C 143.9790802001953 346.37860107421875 144.89927673339844 345.3742370605469 145.78720092773438 344.31866455078125 C 146.650390625 343.2742919921875 147.45724487304688 342.22308349609375 148.1786346435547 341.13360595703125 C 148.81643676757812 340.0463562011719 149.36550903320312 338.9833984375 149.8328399658203 337.9485778808594 C 150.24208068847656 336.96209716796875 150.62127685546875 336.0313720703125 150.9651336669922 335.1472473144531 C 151.24349975585938 334.29833984375 151.48336791992188 333.5007629394531 151.72415161132812 332.7113342285156 C 151.89273071289062 331.86297607421875 152.0128936767578 330.9116516113281 152.06326293945312 329.8063659667969 C 152.01515197753906 328.4972229003906 151.89129638671875 326.9127197265625 151.5648651123047 325.0483703613281 C 150.96192932128906 322.913818359375 149.9647674560547 320.5359802246094 148.81109619140625 317.8961486816406 C 147.53558349609375 314.9395751953125 146.35313415527344 311.77862548828125 145.1439208984375 308.38873291015625 C 143.88243103027344 304.9438781738281 142.4749755859375 301.5188293457031 171.51829528808594 302.1410827636719" stroke-width="0.0" fill="rgb(72, 160, 63)" opacity="0.99953735" stroke="rgb(154, 45, 66)" stroke-opacity="0.23115832" stroke-linecap="round" stroke-linejoin="round"/>
    <path d="M 271.0 23.0 C 272.0 23.0 272.0 24.0 272.0 25.0 C 273.0 26.0 274.0 26.0 274.0 27.0 C 275.0 28.0 276.0 29.0 276.0 30.0 C 277.0 31.0 278.0 32.0 278.0 33.0 C 279.0 34.0 280.0 35.0 280.0 36.0 C 280.0 37.0 281.0 38.0 282.0 38.0 C 282.0 39.0 283.0 40.0 284.0 41.0 C 284.0 42.0 285.0 43.0 286.0 44.0 C 286.0 45.0 287.0 46.0 288.0 47.0 C 288.0 48.0 289.0 49.0 289.0 50.0 C 290.0 51.0 290.0 52.0 292.0 54.0 C 294.0 60.0 296.0 66.0 298.0 72.0 C 298.0 78.0 302.0 78.0 304.0 84.0 C 306.0 90.0 307.0 96.0 308.0 102.0 C 310.0 108.0 312.0 114.0 313.0 120.0 C 315.0 126.0 316.0 132.0 317.0 138.0 C 318.0 144.0 319.0 150.0 319.0 156.0 C 318.0 162.0 318.0 168.0 317.0 174.0 C 316.0 180.0 315.0 186.0 314.0 192.0 C 313.0 198.0 312.0 204.0 310.0 210.0 C 307.0 216.0 304.0 220.0 300.0 224.0 C 296.0 227.0 292.0 232.0 288.0 229.0 C 284.0 233.0 280.0 235.0 274.0 236.0 C 268.0 237.0 262.0 237.0 262.0 231.0 C 263.0 225.0 264.0 219.0 265.0 213.0 C 265.0 207.0 266.0 201.0 265.0 195.0 C 266.0 189.0 266.0 183.0 267.0 177.0 C 267.0 171.0 267.0 165.0 268.0 159.0 C 269.0 153.0 269.0 147.0 269.0 141.0 C 272.0 136.0 270.0 131.0 270.0 125.0 C 270.0 119.0 270.0 113.0 269.0 107.0 C 269.0 101.0 268.0 95.0 268.0 89.0 C 267.0 83.0 267.0 77.0 266.0 72.0 C 262.0 68.0 261.0 74.0 260.0 80.0 C 260.0 86.0 260.0 92.0 260.0 98.0 C 259.0 101.0 261.0 106.0 261.0 112.0 C 261.0 118.0 261.0 124.0 261.0 130.0 C 260.0 136.0 259.0 142.0 259.0 148.0 C 259.0 154.0 258.0 160.0 258.0 166.0 C 257.0 172.0 256.0 178.0 255.0 184.0 C 255.0 190.0 254.0 196.0 254.0 202.0 C 254.0 208.0 253.0 214.0 252.0 220.0 C 251.0 225.0 247.0 227.0 243.0 225.0 C 237.0 225.0 232.0 223.0 228.0 219.0 C 223.0 214.0 220.0 209.0 221.0 204.0 C 216.0 202.0 215.0 196.0 211.0 191.0 C 212.0 186.0 208.0 182.0 207.0 176.0 C 206.0 170.0 205.0 164.0 207.0 158.0 C 206.0 152.0 203.0 148.0 207.0 145.0 C 205.0 141.0 203.0 141.0 203.0 135.0 C 204.0 129.0 206.0 123.0 207.0 117.0 C 209.0 111.0 212.0 105.0 215.0 100.0 C 216.0 94.0 219.0 89.0 222.0 94.0 C 223.0 88.0 220.0 84.0 223.0 78.0 C 227.0 72.0 230.0 67.0 235.0 65.0 C 239.0 65.0 241.0 60.0 243.0 58.0 C 248.0 60.0 252.0 59.0 249.0 55.0 C 250.0 50.0 256.0 50.0 262.0 49.0 C 265.0 45.0 266.0 39.0 266.0 33.0 C 268.0 29.0 270.0 23.0 271.0 23.0" stroke-width="0.0" fill="rgb(74, 163, 63)" opacity="1.0" stroke="rgb(148, 165, 217)" stroke-opacity="0.85870004" stroke-linecap="round" stroke-linejoin="round"/>
    <path d="M 88.0 85.0 C 89.0 85.0 89.0 86.0 89.0 87.0 C 90.0 88.0 91.0 88.0 92.0 88.0 C 92.0 89.0 92.0 90.0 92.0 91.0 C 93.0 92.0 94.0 92.0 95.0 92.0 C 95.0 93.0 96.0 94.0 96.0 95.0 C 96.0 96.0 97.0 97.0 98.0 98.0 C 98.0 99.0 99.0 100.0 100.0 101.0 C 100.0 102.0 101.0 103.0 102.0 104.0 C 102.0 105.0 103.0 106.0 104.0 107.0 C 105.0 108.0 105.0 109.0 106.0 110.0 C 106.0 111.0 106.0 112.0 105.0 112.0 C 104.0 112.0 103.0 111.0 102.0 110.0 C 101.0 109.0 100.0 109.0 99.0 108.0 C 98.0 107.0 97.0 107.0 96.0 106.0 C 95.0 106.0 94.0 105.0 93.0 104.0 C 92.0 103.0 91.0 103.0 91.0 102.0 C 91.0 101.0 91.0 100.0 90.0 99.0 C 90.0 98.0 90.0 97.0 90.0 96.0 C 90.0 95.0 90.0 94.0 90.0 93.0 C 89.0 92.0 88.0 92.0 87.0 92.0 C 86.0 93.0 86.0 94.0 86.0 95.0 C 86.0 96.0 86.0 97.0 86.0 96.0 C 86.0 95.0 86.0 94.0 86.0 93.0 C 86.0 92.0 87.0 91.0 87.0 90.0 C 87.0 89.0 87.0 88.0 87.0 87.0 C 87.0 86.0 87.0 85.0 88.0 85.0" stroke-width="0.0" fill="rgb(73, 165, 66)" opacity="1.0" stroke="rgb(16, 105, 97)" stroke-opacity="0.406561" stroke-linecap="round" stroke-linejoin="round"/>
    <path d="M 264.0 31.0 C 264.0 32.0 265.0 33.0 265.0 34.0 C 265.0 35.0 265.0 36.0 265.0 37.0 C 265.0 38.0 265.0 39.0 265.0 40.0 C 265.0 41.0 265.0 42.0 264.0 43.0 C 264.0 44.0 264.0 45.0 264.0 46.0 C 264.0 47.0 264.0 48.0 263.0 48.0 C 262.0 48.0 261.0 48.0 260.0 49.0 C 259.0 49.0 258.0 49.0 257.0 49.0 C 256.0 49.0 255.0 50.0 254.0 50.0 C 253.0 50.0 252.0 50.0 251.0 49.0 C 251.0 48.0 251.0 47.0 252.0 46.0 C 252.0 45.0 253.0 45.0 254.0 44.0 C 254.0 43.0 255.0 43.0 256.0 42.0 C 256.0 41.0 257.0 40.0 258.0 39.0 C 259.0 38.0 259.0 37.0 260.0 36.0 C 260.0 35.0 261.0 34.0 261.0 33.0 C 262.0 32.0 262.0 31.0 264.0 31.0" stroke-width="0.0" fill="rgb(77, 167, 65)" opacity="1.0" stroke="rgb(19, 88, 134)" stroke-opacity="0.3265705" stroke-linecap="round" stroke-linejoin="round"/>
    <path d="M 268.0 1.0 C 267.0 2.0 267.0 3.0 267.0 4.0 C 267.0 5.0 268.0 6.0 268.0 7.0 C 268.0 8.0 268.0 9.0 268.0 10.0 C 268.0 11.0 268.0 12.0 268.0 13.0 C 268.0 14.0 268.0 15.0 269.0 16.0 C 269.0 17.0 269.0 18.0 269.0 19.0 C 270.0 20.0 271.0 20.0 271.0 21.0 C 271.0 22.0 270.0 22.0 269.0 23.0 C 268.0 24.0 268.0 25.0 267.0 26.0 C 267.0 27.0 267.0 28.0 267.0 29.0 C 266.0 29.0 265.0 29.0 264.0 29.0 C 264.0 28.0 264.0 27.0 264.0 26.0 C 265.0 25.0 264.0 24.0 264.0 23.0 C 264.0 22.0 264.0 21.0 264.0 20.0 C 265.0 19.0 265.0 18.0 265.0 17.0 C 265.0 16.0 265.0 15.0 265.0 14.0 C 265.0 13.0 265.0 12.0 265.0 11.0 C 265.0 10.0 265.0 9.0 265.0 8.0 C 265.0 7.0 265.0 6.0 265.0 5.0 C 265.0 4.0 265.0 3.0 265.0 2.0 C 265.0 1.0 266.0 0.0 268.0 1.0" stroke-width="0.0" fill="rgb(78, 166, 66)" opacity="1.0" stroke="rgb(135, 118, 248)" stroke-opacity="0.5045438" stroke-linecap="round" stroke-linejoin="round"/>
  </g>
</svg>
