<?xml version="1.0" ?>
<svg xmlns="http://www.w3.org/2000/svg" version="1.1" width="512" height="512">
  <defs/>
  <g>
    <path d="M 37.0 336.0 C 39.0 336.0 42.0 338.0 45.0 339.0 C 48.0 338.0 50.0 340.0 52.0 343.0 C 55.0 343.0 58.0 344.0 60.0 347.0 C 63.0 347.0 65.0 349.0 67.0 351.0 C 69.0 354.0 72.0 355.0 75.0 354.0 C 75.0 357.0 74.0 360.0 74.0 363.0 C 77.0 364.0 79.0 365.0 78.0 367.0 C 77.0 369.0 79.0 371.0 82.0 372.0 C 85.0 374.0 88.0 375.0 91.0 374.0 C 94.0 374.0 95.0 377.0 98.0 377.0 C 101.0 378.0 101.0 375.0 99.0 374.0 C 97.0 372.0 98.0 370.0 99.0 372.0 C 102.0 373.0 104.0 375.0 106.0 376.0 C 108.0 378.0 109.0 381.0 111.0 379.0 C 112.0 381.0 110.0 383.0 107.0 383.0 C 104.0 383.0 103.0 386.0 103.0 389.0 C 106.0 391.0 109.0 393.0 112.0 394.0 C 115.0 394.0 118.0 394.0 121.0 393.0 C 124.0 394.0 126.0 393.0 128.0 394.0 C 130.0 395.0 130.0 392.0 131.0 390.0 C 133.0 392.0 134.0 395.0 136.0 397.0 C 139.0 397.0 138.0 399.0 136.0 401.0 C 134.0 403.0 137.0 405.0 138.0 407.0 C 140.0 410.0 142.0 411.0 142.0 414.0 C 139.0 415.0 136.0 415.0 134.0 417.0 C 134.0 420.0 134.0 423.0 131.0 423.0 C 131.0 426.0 130.0 428.0 128.0 430.0 C 126.0 432.0 128.0 434.0 129.0 436.0 C 126.0 436.0 123.0 437.0 121.0 438.0 C 119.0 436.0 117.0 433.0 115.0 432.0 C 112.0 431.0 109.0 431.0 106.0 431.0 C 105.0 428.0 102.0 426.0 99.0 426.0 C 96.0 428.0 93.0 428.0 90.0 429.0 C 87.0 429.0 84.0 429.0 82.0 432.0 C 79.0 432.0 79.0 435.0 78.0 437.0 C 76.0 435.0 73.0 435.0 70.0 435.0 C 69.0 437.0 72.0 437.0 74.0 438.0 C 73.0 440.0 70.0 439.0 68.0 437.0 C 65.0 437.0 64.0 434.0 65.0 432.0 C 63.0 431.0 63.0 428.0 64.0 426.0 C 63.0 423.0 61.0 424.0 61.0 427.0 C 58.0 427.0 57.0 425.0 58.0 422.0 C 60.0 421.0 61.0 418.0 58.0 415.0 C 56.0 414.0 55.0 411.0 54.0 408.0 C 51.0 408.0 48.0 409.0 47.0 407.0 C 48.0 404.0 50.0 402.0 52.0 401.0 C 53.0 398.0 51.0 396.0 50.0 393.0 C 49.0 391.0 50.0 388.0 48.0 386.0 C 46.0 387.0 43.0 388.0 41.0 390.0 C 40.0 393.0 37.0 393.0 38.0 391.0 C 39.0 388.0 39.0 385.0 36.0 384.0 C 33.0 383.0 32.0 380.0 32.0 377.0 C 31.0 374.0 31.0 371.0 30.0 368.0 C 27.0 368.0 26.0 366.0 25.0 363.0 C 24.0 360.0 24.0 357.0 23.0 354.0 C 23.0 351.0 24.0 349.0 27.0 349.0 C 27.0 346.0 25.0 347.0 23.0 346.0 C 22.0 343.0 22.0 340.0 25.0 340.0 C 28.0 340.0 31.0 340.0 33.0 341.0 C 34.0 338.0 36.0 336.0 37.0 336.0" stroke-width="0.0" fill="rgb(71, 160, 61)" opacity="1.0" stroke="rgb(244, 42, 122)" stroke-opacity="0.5070383" stroke-linecap="round" stroke-linejoin="round"/>
    <path d="M 358.0 402.0 C 359.0 402.0 360.0 402.0 360.0 403.0 C 360.0 404.0 359.0 405.0 359.0 406.0 C 359.0 407.0 359.0 408.0 359.0 409.0 C 359.0 410.0 360.0 411.0 360.0 412.0 C 360.0 413.0 359.0 414.0 360.0 415.0 C 360.0 416.0 360.0 417.0 360.0 418.0 C 359.0 419.0 359.0 420.0 360.0 421.0 C 361.0 422.0 362.0 422.0 362.0 423.0 C 362.0 424.0 362.0 425.0 363.0 426.0 C 364.0 426.0 365.0 426.0 365.0 427.0 C 365.0 428.0 365.0 429.0 365.0 430.0 C 365.0 431.0 364.0 431.0 363.0 431.0 C 362.0 431.0 361.0 431.0 361.0 430.0 C 361.0 429.0 360.0 428.0 359.0 429.0 C 359.0 430.0 359.0 431.0 358.0 431.0 C 357.0 431.0 356.0 431.0 355.0 431.0 C 354.0 431.0 353.0 431.0 352.0 431.0 C 352.0 430.0 352.0 429.0 352.0 428.0 C 352.0 427.0 351.0 426.0 350.0 427.0 C 350.0 428.0 348.0 429.0 346.0 431.0 C 343.0 433.0 346.0 435.0 346.0 438.0 C 344.0 439.0 345.0 441.0 348.0 442.0 C 350.0 443.0 349.0 446.0 346.0 449.0 C 349.0 451.0 350.0 453.0 348.0 455.0 C 346.0 456.0 344.0 457.0 342.0 459.0 C 339.0 460.0 336.0 460.0 333.0 462.0 C 330.0 463.0 327.0 464.0 325.0 462.0 C 322.0 460.0 320.0 457.0 317.0 457.0 C 315.0 455.0 312.0 455.0 309.0 457.0 C 306.0 457.0 305.0 459.0 307.0 461.0 C 306.0 463.0 303.0 463.0 300.0 464.0 C 302.0 466.0 300.0 467.0 297.0 467.0 C 298.0 464.0 295.0 463.0 293.0 466.0 C 290.0 466.0 289.0 463.0 286.0 463.0 C 284.0 460.0 282.0 459.0 280.0 457.0 C 277.0 458.0 275.0 456.0 272.0 458.0 C 270.0 457.0 269.0 454.0 268.0 457.0 C 265.0 457.0 262.0 457.0 259.0 455.0 C 258.0 453.0 255.0 452.0 254.0 449.0 C 251.0 449.0 250.0 446.0 253.0 444.0 C 256.0 442.0 259.0 441.0 262.0 440.0 C 265.0 439.0 268.0 439.0 270.0 441.0 C 272.0 439.0 274.0 437.0 277.0 438.0 C 278.0 436.0 279.0 434.0 282.0 432.0 C 284.0 431.0 285.0 434.0 288.0 433.0 C 291.0 433.0 294.0 432.0 297.0 432.0 C 300.0 433.0 303.0 432.0 306.0 432.0 C 307.0 429.0 307.0 426.0 307.0 423.0 C 307.0 420.0 309.0 418.0 308.0 415.0 C 305.0 414.0 303.0 412.0 305.0 410.0 C 307.0 407.0 308.0 405.0 310.0 407.0 C 310.0 410.0 308.0 412.0 310.0 415.0 C 311.0 417.0 313.0 418.0 315.0 419.0 C 317.0 420.0 318.0 417.0 321.0 417.0 C 323.0 416.0 324.0 414.0 327.0 413.0 C 330.0 412.0 333.0 411.0 336.0 412.0 C 337.0 414.0 340.0 415.0 342.0 417.0 C 345.0 416.0 348.0 415.0 351.0 415.0 C 353.0 412.0 353.0 409.0 353.0 406.0 C 355.0 404.0 357.0 402.0 358.0 402.0" stroke-width="0.0" fill="rgb(72, 160, 60)" opacity="1.0" stroke="rgb(245, 2, 204)" stroke-opacity="0.8547275" stroke-linecap="round" stroke-linejoin="round"/>
  </g>
</svg>
