<?xml version="1.0" ?>
<svg xmlns="http://www.w3.org/2000/svg" version="1.1" width="474" height="596">
  <defs/>
  <g>
    <path d="M 267.3117370605469 -2.741560935974121 C 268.72088623046875 -2.2161295413970947 269.0372619628906 -3.5593152046203613 269.81915283203125 -3.5110154151916504 C 270.3088684082031 -4.356412887573242 270.6606750488281 -4.44197416305542 271.0022888183594 -4.650302886962891 C 271.1368103027344 -4.840991497039795 271.09222412109375 -4.88153600692749 271.0746765136719 -4.875840187072754 C 271.1807556152344 -4.914844512939453 271.32720947265625 -4.972384929656982 272.0966491699219 -4.870189189910889 C 273.0402526855469 -4.364347457885742 275.2705993652344 -3.673196315765381 279.2602233886719 -4.329421043395996 C 281.1607971191406 0.3688737750053406 287.0282287597656 1.5715230703353882 295.2113037109375 3.195016384124756 C 303.83697509765625 5.259286403656006 312.5655212402344 8.344528198242188 320.64727783203125 11.82989501953125 C 328.64984130859375 14.96900463104248 336.1886901855469 19.2265567779541 344.20208740234375 23.895906448364258 C 352.4515380859375 28.7020263671875 360.2654724121094 34.346282958984375 368.2685546875 40.80872344970703 C 376.7521057128906 47.63310623168945 384.6501159667969 55.64984130859375 392.31103515625 63.77946472167969 C 399.6511535644531 71.46934509277344 405.9857177734375 79.4872817993164 411.8668518066406 87.5014877319336 C 417.2986755371094 95.64441680908203 423.3774108886719 104.24642944335938 428.4927673339844 113.23590850830078 C 433.1008605957031 120.66767120361328 435.4673156738281 128.28712463378906 431.7561340332031 136.03823852539062 C 428.1383056640625 144.89451599121094 422.65045166015625 153.06163024902344 415.8995666503906 161.00144958496094 C 409.244873046875 169.20542907714844 401.3012390136719 177.24600219726562 393.08062744140625 184.57412719726562 C 384.6590881347656 191.73350524902344 376.45770263671875 197.6405792236328 368.5850524902344 203.5186309814453 C 361.21075439453125 208.9116973876953 352.92022705078125 214.2423553466797 342.8159484863281 219.0719757080078 C 332.5402526855469 222.84849548339844 321.6252746582031 226.29376220703125 310.0745544433594 226.49298095703125 C 318.5135192871094 223.1055450439453 320.549560546875 216.31639099121094 326.7647705078125 208.27407836914062 C 335.39312744140625 200.87091064453125 343.4364929199219 193.42349243164062 350.3958740234375 185.6862335205078 C 355.8013916015625 177.84030151367188 359.886962890625 169.9724884033203 362.8642272949219 161.99111938476562 C 364.81451416015625 154.0102081298828 365.7090148925781 145.80149841308594 365.9219970703125 137.5149383544922 C 364.9253234863281 129.44522094726562 363.2063293457031 122.1314468383789 360.6569519042969 115.9476089477539 C 356.5690612792969 110.9555435180664 352.9348449707031 107.25076293945312 344.4057312011719 110.24368286132812 C 338.817138671875 111.43487548828125 342.0277404785156 106.9730453491211 329.7420349121094 102.5425033569336 C 319.0575256347656 99.05143737792969 312.02520751953125 100.67880249023438 302.7434387207031 105.50147247314453 C 295.4648742675781 108.23373413085938 284.34027099609375 108.46510314941406 276.08941650390625 109.78639221191406 C 268.51995849609375 109.87799072265625 261.52606201171875 112.33805084228516 257.2893981933594 111.75676727294922 C 254.361328125 109.13031768798828 252.43850708007812 108.66154479980469 250.20297241210938 109.9429702758789 C 248.0625457763672 112.07928466796875 245.1309051513672 114.59211730957031 241.17384338378906 118.07564544677734 C 235.59796142578125 121.36798095703125 228.74343872070312 124.68310546875 220.79196166992188 127.57278442382812 C 212.4487762451172 130.2847900390625 203.84925842285156 132.5165557861328 195.40028381347656 134.6346893310547 C 187.41671752929688 136.58447265625 179.98561096191406 138.1791534423828 173.61463928222656 139.93453979492188 C 168.1260986328125 141.87081909179688 163.49169921875 143.92628479003906 159.69085693359375 146.3478546142578 C 156.42218017578125 149.49412536621094 153.51026916503906 153.52264404296875 151.3260498046875 158.47215270996094 C 149.50750732421875 164.16018676757812 148.55624389648438 170.6959991455078 148.8460693359375 177.91104125976562 C 150.16412353515625 185.52374267578125 152.89109802246094 193.2193145751953 157.3072967529297 200.84278869628906 C 163.6047821044922 208.3491973876953 171.75857543945312 215.40753173828125 180.70005798339844 222.0075225830078 C 190.4027099609375 227.8431854248047 199.56324768066406 232.898681640625 208.6009521484375 237.26234436035156 C 219.04379272460938 238.93740844726562 224.18402099609375 239.2311553955078 231.64791870117188 245.6658477783203 C 203.6008758544922 248.8866424560547 196.97959899902344 246.1087188720703 190.54940795898438 240.27777099609375 C 180.4335174560547 237.22402954101562 172.1167755126953 243.99822998046875 166.1774444580078 240.69212341308594 C 154.46763610839844 241.30661010742188 145.50917053222656 240.6512908935547 135.62196350097656 239.26158142089844 C 127.97654724121094 238.1896209716797 120.0140151977539 236.4381866455078 111.78668212890625 234.07867431640625 C 104.9400634765625 232.33929443359375 97.72578430175781 229.8041534423828 89.43460845947266 227.0435333251953 C 80.85397338867188 223.5172576904297 72.3802261352539 219.78221130371094 64.20942687988281 214.91925048828125 C 57.096778869628906 210.73326110839844 53.45363998413086 205.09925842285156 53.535011291503906 198.19677734375 C 53.14208984375 191.00389099121094 54.95083236694336 178.7830810546875 56.91807174682617 168.9871063232422 C 57.812191009521484 160.175048828125 60.335758209228516 152.52694702148438 62.4254035949707 145.07870483398438 C 64.36234283447266 137.4715576171875 67.43376159667969 129.3086395263672 71.05809783935547 121.57779693603516 C 74.65641021728516 113.20262145996094 78.90745544433594 105.11734771728516 83.46882629394531 96.8787612915039 C 88.22339630126953 88.76752471923828 93.93487548828125 80.929443359375 100.3439712524414 73.24988555908203 C 107.34739685058594 65.30522155761719 114.57677459716797 56.848411560058594 122.94100189208984 49.72230529785156 C 130.81375122070312 42.701927185058594 139.61737060546875 36.30904006958008 147.83436584472656 30.699512481689453 C 155.02513122558594 25.913984298706055 163.1498260498047 24.15890884399414 173.37088012695312 23.575157165527344 C 176.7799072265625 23.43553924560547 188.98651123046875 24.17498779296875 195.9705810546875 26.309661865234375 C 206.7158203125 28.468931198120117 213.56637573242188 33.412506103515625 213.3180389404297 25.547916412353516 C 215.80918884277344 31.35546875 225.5028533935547 28.834997177124023 226.47247314453125 27.040115356445312 C 233.25848388671875 19.524097442626953 240.29910278320312 11.807665824890137 250.0764617919922 6.9257965087890625 C 258.4352111816406 2.366544485092163 269.40997314453125 0.32835716009140015 267.3117370605469 -2.741560935974121" stroke-width="0.0" fill="rgb(63, 39, 32)" opacity="0.9999902" stroke="rgb(84, 229, 242)" stroke-opacity="0.3668558" stroke-linecap="round" stroke-linejoin="round"/>
    <path d="M 315.5184631347656 226.3611297607422 C 306.2186279296875 231.7916259765625 296.6520080566406 235.89178466796875 288.37127685546875 238.2790069580078 C 296.7851867675781 239.28707885742188 294.47802734375 253.44229125976562 297.1835021972656 265.5710754394531 C 289.1360168457031 259.1195983886719 276.3048095703125 254.7650604248047 262.49444580078125 251.80752563476562 C 252.03623962402344 251.23812866210938 249.71434020996094 252.3130340576172 249.17535400390625 252.11318969726562 C 259.068603515625 249.42481994628906 274.73468017578125 252.35479736328125 289.24298095703125 261.5706787109375 C 299.9623718261719 266.3617248535156 299.1343688964844 279.4490051269531 305.2555847167969 293.1924743652344 C 310.522705078125 303.7423095703125 312.7621765136719 313.9554138183594 311.1363830566406 320.2626647949219 C 315.6925964355469 322.1418151855469 313.8019104003906 321.5758361816406 310.33123779296875 321.43634033203125 C 311.9525451660156 311.5600891113281 308.74822998046875 300.8548583984375 303.3785095214844 286.87353515625 C 296.9908752441406 269.56317138671875 295.4852600097656 252.78504943847656 292.4225769042969 239.68348693847656 C 306.88818359375 240.997802734375 328.00274658203125 244.12025451660156 352.72003173828125 255.9142303466797 C 371.3470153808594 271.15716552734375 392.00811767578125 277.8183898925781 403.75140380859375 287.7143249511719 C 410.1665954589844 291.8843688964844 410.86865234375 293.5238952636719 405.56097412109375 293.91217041015625 C 399.9615783691406 296.8727722167969 394.9252014160156 301.1317443847656 392.7613830566406 307.17742919921875 C 394.2600402832031 314.37408447265625 399.3402099609375 322.2276611328125 407.1909484863281 329.702880859375 C 415.2452697753906 335.5222473144531 421.14202880859375 338.94927978515625 421.5882568359375 340.7319030761719 C 414.0257263183594 338.8451232910156 403.72943115234375 329.0232849121094 378.9739990234375 328.609130859375 C 358.5358581542969 323.3834533691406 348.2413024902344 325.0492248535156 325.1834716796875 324.4258728027344 C 322.1686706542969 345.2884216308594 322.0404052734375 346.7610778808594 324.4041442871094 380.0546569824219 C 307.5607604980469 382.7183532714844 294.6249694824219 404.68389892578125 299.5243225097656 440.0096435546875 C 291.6844177246094 463.6656799316406 288.2195739746094 487.0908203125 287.4623718261719 506.4935302734375 C 286.04754638671875 514.2745971679688 277.67474365234375 517.7481689453125 265.5807800292969 519.9199829101562 C 252.391357421875 517.2947998046875 241.6654052734375 525.4530639648438 234.66998291015625 536.9237060546875 C 233.48521423339844 557.9541015625 233.31837463378906 561.1489868164062 249.0470733642578 567.9265747070312 C 267.234130859375 571.8157958984375 299.010009765625 572.0228881835938 323.08551025390625 571.2781982421875 C 342.7574462890625 567.9616088867188 344.9924621582031 567.861083984375 341.9128112792969 575.0464477539062 C 325.8890380859375 584.67919921875 304.8535461425781 585.9933471679688 275.97442626953125 583.6228637695312 C 257.9417724609375 583.8455810546875 240.27655029296875 574.6022338867188 234.44073486328125 562.9031372070312 C 235.1688690185547 535.4737548828125 238.20655822753906 514.6036376953125 242.43994140625 492.6570739746094 C 242.9279327392578 467.11395263671875 243.41635131835938 461.7246398925781 233.60247802734375 455.8448791503906 C 222.09681701660156 456.98846435546875 211.76290893554688 463.0693359375 202.5172119140625 468.8057861328125 C 196.53330993652344 473.67193603515625 193.98768615722656 477.55035400390625 195.00082397460938 481.7039489746094 C 199.5323944091797 487.77325439453125 205.40647888183594 497.4947204589844 211.8653106689453 508.9022216796875 C 212.7822265625 531.1151123046875 216.622314453125 554.054931640625 217.91583251953125 575.0392456054688 C 218.5451202392578 586.4343872070312 209.317138671875 588.2623901367188 189.9164581298828 586.9823608398438 C 164.80859375 595.8462524414062 144.51531982421875 600.96337890625 121.45575714111328 591.4371337890625 C 112.29120635986328 585.6603393554688 120.81240844726562 561.01220703125 124.6785888671875 577.6524047851562 C 151.5283660888672 587.9564819335938 163.37567138671875 578.921142578125 200.83505249023438 574.3460693359375 C 218.05966186523438 576.448486328125 213.3562469482422 566.1251831054688 211.36732482910156 540.7958984375 C 209.10092163085938 527.0800170898438 207.68629455566406 519.8665771484375 196.45375061035156 520.2301025390625 C 184.99290466308594 519.5987548828125 175.6689910888672 517.5870971679688 166.2601318359375 519.0074462890625 C 163.76315307617188 510.10198974609375 166.30862426757812 492.56927490234375 167.6144256591797 472.68377685546875 C 167.35292053222656 451.6390686035156 165.4847869873047 429.7265930175781 159.93663024902344 401.80572509765625 C 145.88694763183594 396.53643798828125 125.0147476196289 401.4135437011719 117.19060516357422 379.62310791015625 C 113.1524429321289 366.3208312988281 116.94224548339844 350.9901123046875 113.6106948852539 344.8385009765625 C 97.0079574584961 352.66058349609375 87.82366180419922 356.69940185546875 82.12438201904297 358.07861328125 C 83.29756927490234 349.2364807128906 93.548095703125 340.9751892089844 100.84300231933594 332.85833740234375 C 104.4150390625 323.542724609375 104.41724395751953 314.6857604980469 101.79932403564453 307.5242919921875 C 95.35104370117188 301.13287353515625 93.8658218383789 291.8327331542969 89.1262435913086 285.1063232421875 C 92.08685302734375 277.7941589355469 105.18721008300781 268.8077392578125 122.17832946777344 258.60308837890625 C 143.28273010253906 247.3690185546875 164.9307403564453 237.99417114257812 183.27613830566406 239.56837463378906 C 185.09510803222656 242.97129821777344 178.01651000976562 258.67156982421875 171.60366821289062 277.9108581542969 C 168.27186584472656 302.0316162109375 165.7962188720703 325.25653076171875 159.873046875 340.2773742675781 C 153.3060760498047 349.101318359375 153.7851104736328 359.9129333496094 155.2273406982422 361.2569580078125 C 153.9844970703125 362.76373291015625 155.1157684326172 356.9101867675781 156.671875 347.4232177734375 C 157.81385803222656 333.4576721191406 159.62591552734375 317.40667724609375 168.77220153808594 306.32012939453125 C 168.4998016357422 284.8272399902344 176.23004150390625 268.1404113769531 182.7115020751953 250.84622192382812 C 183.32017517089844 232.0876007080078 182.26751708984375 237.38844299316406 201.23216247558594 242.59591674804688 C 228.80401611328125 248.24362182617188 236.1891326904297 247.04202270507812 252.36241149902344 232.70895385742188 C 275.6164245605469 227.74057006835938 291.8313293457031 224.46763610839844 315.5184631347656 226.3611297607422" stroke-width="0.0" fill="rgb(232, 109, 162)" opacity="0.999958" stroke="rgb(58, 137, 133)" stroke-opacity="0.48754156" stroke-linecap="round" stroke-linejoin="round"/>
    <path d="M 345.7042236328125 93.78837585449219 C 348.8576965332031 93.59003448486328 346.6440734863281 94.3843765258789 345.7779541015625 93.89785766601562 C 347.7095947265625 93.95211029052734 345.7794494628906 96.4903335571289 345.093505859375 93.33824920654297 C 349.1369323730469 97.66342163085938 348.98468017578125 99.71765899658203 349.1947021484375 95.37224578857422 C 346.8088073730469 94.95452117919922 351.3887634277344 93.65267944335938 349.2326965332031 97.54991149902344 C 351.810791015625 100.5290298461914 353.496826171875 102.96739959716797 356.05419921875 103.10474395751953 C 355.52410888671875 102.69210815429688 351.6880798339844 100.93257904052734 355.40875244140625 102.04669952392578 C 357.1231384277344 107.57498168945312 356.27581787109375 104.68276977539062 355.054931640625 103.74752044677734 C 356.81866455078125 104.75373077392578 361.20452880859375 108.9335708618164 360.4759521484375 113.26377868652344 C 360.3061218261719 105.37437438964844 362.4346923828125 114.82523345947266 366.2614440917969 121.2240982055664 C 367.80621337890625 125.9619140625 369.9253845214844 131.23020935058594 370.0986633300781 136.64125061035156 C 370.92724609375 138.73585510253906 370.5002746582031 143.8429718017578 370.81085205078125 149.0113983154297 C 369.7066650390625 154.27615356445312 369.758056640625 163.6316375732422 368.62506103515625 160.9493408203125 C 367.7052917480469 165.34869384765625 365.3045959472656 171.2134246826172 363.0066223144531 177.01446533203125 C 360.16363525390625 180.9638214111328 358.2236328125 186.59791564941406 354.3414611816406 189.974853515625 C 351.34735107421875 193.1766815185547 348.3493347167969 198.59121704101562 345.7483215332031 201.04193115234375 C 341.3828430175781 204.03053283691406 336.4617614746094 208.85720825195312 332.9058532714844 211.70004272460938 C 328.4789123535156 215.0716552734375 324.0044250488281 218.43984985351562 318.5800476074219 221.29971313476562 C 313.5943603515625 224.51950073242188 308.559326171875 226.1907958984375 308.9726257324219 227.8712615966797 C 305.7857666015625 229.3034210205078 297.8725891113281 229.80459594726562 296.49676513671875 232.48193359375 C 295.8077697753906 233.07437133789062 289.1647644042969 234.436279296875 285.3412170410156 237.09193420410156 C 279.4224548339844 238.30157470703125 272.5572814941406 237.6702423095703 271.3111877441406 241.30960083007812 C 269.86279296875 241.57493591308594 264.018798828125 239.36305236816406 259.3246154785156 242.6581573486328 C 255.08489990234375 245.07899475097656 248.26280212402344 240.74301147460938 247.3778839111328 247.7295684814453 C 243.27554321289062 246.47352600097656 239.2129669189453 250.2937774658203 234.01791381835938 248.40191650390625 C 231.0167694091797 245.4960174560547 226.7909698486328 244.55279541015625 226.91416931152344 244.45037841796875 C 216.4716033935547 243.93829345703125 210.26406860351562 241.5803680419922 205.5072021484375 240.53138732910156 C 199.5275115966797 239.08973693847656 192.72947692871094 236.31222534179688 189.11358642578125 234.6224365234375 C 185.2821502685547 232.9264678955078 180.9071044921875 230.78421020507812 176.85537719726562 227.82357788085938 C 173.18177795410156 225.500244140625 170.1916961669922 222.68067932128906 168.1223907470703 220.49826049804688 C 163.93116760253906 218.17007446289062 160.95980834960938 214.87950134277344 157.259033203125 211.41519165039062 C 153.26019287109375 206.25392150878906 150.97181701660156 203.14511108398438 148.5678253173828 197.50611877441406 C 147.14683532714844 194.41871643066406 145.9413299560547 190.3303985595703 145.3741455078125 189.56576538085938 C 143.12301635742188 180.4504852294922 142.94740295410156 171.26800537109375 142.0185546875 178.603759765625 C 143.4063720703125 169.56536865234375 142.9967498779297 163.13912963867188 146.55836486816406 154.35108947753906 C 147.3894805908203 151.4875946044922 154.0220489501953 147.4340362548828 155.0235595703125 144.29769897460938 C 158.3290557861328 137.67996215820312 157.43214416503906 129.06504821777344 157.2729949951172 129.46722412109375 C 158.23631286621094 129.78936767578125 162.48953247070312 132.7661590576172 166.67599487304688 135.57080078125 C 165.71922302246094 138.13970947265625 171.96766662597656 137.0935516357422 177.3467254638672 134.80126953125 C 184.14523315429688 131.98399353027344 188.2559814453125 130.0479736328125 193.21995544433594 128.41371154785156 C 195.94464111328125 126.95518493652344 200.70716857910156 125.40198516845703 202.48464965820312 124.53070068359375 C 205.4031219482422 123.69320678710938 216.3000946044922 120.83684539794922 220.89308166503906 119.09025573730469 C 218.31471252441406 120.82540130615234 223.71571350097656 119.42575073242188 228.0284881591797 117.502197265625 C 234.04718017578125 116.57239532470703 242.13148498535156 115.74679565429688 246.22352600097656 113.17705535888672 C 243.4884490966797 111.64846801757812 243.3264617919922 113.0348892211914 244.1437225341797 108.26795959472656 C 243.83346557617188 99.41152954101562 238.53858947753906 92.35484313964844 238.7700653076172 94.16156768798828 C 243.05088806152344 92.7080078125 248.94354248046875 98.25264739990234 253.9969940185547 102.79840087890625 C 253.7729949951172 105.65123748779297 258.11907958984375 107.6007080078125 260.4600524902344 110.08241271972656 C 263.8846435546875 109.19759368896484 272.54150390625 107.99823760986328 277.78057861328125 105.85252380371094 C 283.8890380859375 103.97970581054688 290.6385803222656 103.4477767944336 294.5232849121094 101.7854232788086 C 301.4983825683594 101.78900909423828 307.36346435546875 99.44123077392578 313.3728332519531 98.43741607666016 C 307.6541442871094 101.92890167236328 301.20257568359375 103.28890991210938 300.4249572753906 107.07225799560547 C 308.64617919921875 102.54105377197266 318.4600524902344 104.59611511230469 318.51922607421875 105.11479187011719 C 321.0959167480469 104.21002960205078 327.9996643066406 111.1284408569336 329.1451110839844 116.04459381103516 C 332.31951904296875 120.02295684814453 330.7966003417969 127.30055236816406 328.3762512207031 131.01524353027344 C 328.1357116699219 132.53562927246094 326.720947265625 132.2631378173828 330.5238037109375 132.5554656982422 C 334.44696044921875 130.5016326904297 340.93316650390625 128.2056427001953 344.9337158203125 126.32804870605469 C 345.5293273925781 127.6748046875 345.47021484375 126.17134857177734 345.31842041015625 117.30397033691406 C 343.6081848144531 114.79622650146484 341.3126525878906 110.86832427978516 341.8758850097656 107.79999542236328 C 336.6716613769531 104.39791107177734 332.5251770019531 100.96922302246094 324.090576171875 99.13644409179688 C 312.4764709472656 98.25942993164062 306.2643127441406 99.42351531982422 345.7042236328125 93.78837585449219" stroke-width="0.0" fill="rgb(250, 187, 104)" opacity="0.99999946" stroke="rgb(137, 187, 11)" stroke-opacity="0.6419144" stroke-linecap="round" stroke-linejoin="round"/>
    <path d="M 243.29046630859375 379.9472961425781 C 245.4561004638672 379.2551574707031 251.88568115234375 376.83746337890625 254.47833251953125 376.4372863769531 C 256.0574951171875 376.5931701660156 257.5453796386719 376.72198486328125 258.8949890136719 376.67535400390625 C 260.1807861328125 376.6875305175781 261.3819580078125 376.745361328125 262.4055480957031 376.7207336425781 C 263.20977783203125 376.6888427734375 263.8548889160156 376.6226806640625 264.406005859375 376.54730224609375 C 264.7135314941406 376.4516296386719 264.8858642578125 376.4922180175781 265.154541015625 376.58941650390625 C 265.66888427734375 376.5704345703125 266.3460388183594 376.5851745605469 267.3150939941406 377.1177673339844 C 268.851318359375 377.80120849609375 271.0473937988281 378.6760559082031 273.9178771972656 379.111328125 C 277.58343505859375 379.61517333984375 282.1752014160156 379.2132568359375 286.7647705078125 378.78717041015625 C 292.24005126953125 379.4993591308594 298.6223449707031 379.0259704589844 305.49615478515625 377.1979675292969 C 311.9212951660156 376.2516174316406 314.676025390625 381.85772705078125 316.30584716796875 383.4078674316406 C 317.0225524902344 387.28155517578125 315.243408203125 397.9779968261719 313.250732421875 407.406494140625 C 311.8844909667969 418.1158447265625 309.1412048339844 428.58233642578125 306.9042663574219 436.4974365234375 C 303.7861328125 446.5511779785156 302.0469055175781 455.89239501953125 300.3445129394531 465.23046875 C 299.244384765625 470.4347229003906 298.1142578125 471.627197265625 291.2126159667969 474.23193359375 C 284.337158203125 475.1836242675781 284.4706726074219 474.1326904296875 283.69451904296875 473.8944396972656 C 285.1617126464844 473.2957458496094 287.97900390625 473.9413757324219 284.76788330078125 474.0166320800781 C 290.37005615234375 471.5099182128906 290.0179138183594 475.3373107910156 289.6034851074219 479.52545166015625 C 288.61944580078125 490.63726806640625 286.5061950683594 499.3181457519531 286.602294921875 508.1697692871094 C 288.59600830078125 505.00360107421875 294.3679504394531 504.1883850097656 298.9847412109375 507.3900451660156 C 305.9705505371094 509.9692687988281 307.14581298828125 516.5371704101562 301.77587890625 518.508544921875 C 299.0396728515625 521.0820922851562 290.0412902832031 518.0767211914062 280.6494140625 516.9310913085938 C 274.2386169433594 520.0238647460938 264.9876708984375 520.3685913085938 256.4087219238281 521.7383422851562 C 248.83644104003906 523.9029541015625 242.37246704101562 526.7575073242188 239.64117431640625 526.4163818359375 C 240.152587890625 536.4843139648438 237.90020751953125 547.3390502929688 238.55914306640625 557.4060668945312 C 237.8402557373047 567.1775512695312 240.7910919189453 572.0850219726562 236.27284240722656 573.4814453125 C 232.7161865234375 565.01806640625 233.7161407470703 557.5750122070312 233.7108612060547 548.2200317382812 C 234.97824096679688 541.2069702148438 235.47576904296875 529.4827880859375 235.96627807617188 519.2769165039062 C 235.90089416503906 521.6914672851562 236.59521484375 516.0361938476562 238.22032165527344 511.6572265625 C 238.96090698242188 506.9839172363281 241.10142517089844 501.1987609863281 242.4623260498047 496.3442687988281 C 241.91783142089844 490.8313293457031 244.58412170410156 482.1771545410156 242.46697998046875 469.3568420410156 C 244.9818115234375 467.52239990234375 234.7384490966797 471.58465576171875 233.43026733398438 463.83929443359375 C 233.02748107910156 451.0351257324219 231.3033905029297 452.55572509765625 227.784423828125 456.8006591796875 C 227.0592041015625 470.5368957519531 227.1546630859375 476.6142883300781 217.36737060546875 475.05755615234375 C 212.953369140625 484.41278076171875 210.99009704589844 494.3451843261719 209.6519775390625 503.61773681640625 C 209.38282775878906 510.77294921875 209.80740356445312 516.3685302734375 210.06375122070312 520.5346069335938 C 209.73719787597656 523.5310668945312 208.6441650390625 525.89404296875 206.80418395996094 527.7882690429688 C 204.17352294921875 529.312744140625 200.92584228515625 530.4867553710938 197.1926727294922 531.371337890625 C 193.10171508789062 532.0177612304688 188.71591186523438 532.3348388671875 184.21238708496094 532.3905639648438 C 179.55545043945312 531.935302734375 174.91574096679688 531.1476440429688 170.517822265625 530.1173706054688 C 166.51708984375 528.64208984375 163.165771484375 526.8759765625 160.68588256835938 524.8551025390625 C 159.1898193359375 522.7655029296875 158.84605407714844 520.7149658203125 160.02853393554688 518.8014526367188 C 162.5061798095703 517.2864379882812 165.91334533691406 516.0604858398438 169.44500732421875 515.1351318359375 C 172.2158660888672 514.5199584960938 174.42507934570312 514.0584106445312 175.8699951171875 513.51123046875 C 176.26028442382812 512.7162475585938 175.39883422851562 511.8630676269531 172.9761505126953 510.586181640625 C 165.8489990234375 508.0467529296875 148.99864196777344 508.86572265625 165.27508544921875 505.15203857421875 C 167.24632263183594 495.3000183105469 166.3813018798828 485.18768310546875 166.5597686767578 486.337158203125 C 166.8423309326172 472.8539123535156 164.6678466796875 474.1555480957031 159.51675415039062 469.94879150390625 C 157.5153350830078 467.7244567871094 157.56932067871094 459.53143310546875 156.0692596435547 448.57135009765625 C 155.6674041748047 440.9974060058594 154.6220703125 433.4856872558594 154.12217712402344 424.45819091796875 C 153.0265350341797 421.48712158203125 154.19395446777344 412.9775695800781 152.4176483154297 406.1648254394531 C 152.03961181640625 398.5418395996094 155.8126983642578 393.2734680175781 155.65716552734375 387.4868469238281 C 158.85739135742188 382.71160888671875 165.14244079589844 380.8587341308594 177.49839782714844 379.7842712402344 C 183.90687561035156 377.8381652832031 193.31996154785156 376.9736022949219 203.35696411132812 379.3768310546875 C 212.8777313232422 380.820556640625 221.10614013671875 381.4851379394531 227.50125122070312 382.0727844238281 C 231.69076538085938 382.49102783203125 233.6334991455078 382.7218322753906 233.43878173828125 382.8335876464844 C 231.54029846191406 382.81365966796875 228.2648162841797 382.7167663574219 224.26666259765625 382.58636474609375 C 220.1884307861328 382.3382568359375 216.58233642578125 382.0494689941406 213.94960021972656 381.7142639160156 C 212.68919372558594 381.4304504394531 213.06796264648438 381.2039794921875 215.06451416015625 380.9799499511719 C 218.59608459472656 380.842041015625 223.19122314453125 380.77716064453125 228.56695556640625 380.7596130371094 C 234.33497619628906 380.7561950683594 240.23959350585938 380.7682189941406 243.29046630859375 379.9472961425781" stroke-width="0.0" fill="rgb(243, 79, 5)" opacity="0.99998474" stroke="rgb(4, 41, 76)" stroke-opacity="0.8516295" stroke-linecap="round" stroke-linejoin="round"/>
    <path d="M 108.24703979492188 286.7154541015625 C 105.22782135009766 283.9004821777344 105.68438720703125 284.0138244628906 104.55525970458984 284.7044372558594 C 105.9775619506836 284.9759216308594 107.20469665527344 285.42083740234375 103.4057846069336 286.8622741699219 C 104.71472930908203 287.5435791015625 106.57731628417969 288.03765869140625 108.99342346191406 288.5743103027344 C 109.34688568115234 289.5666809082031 109.09444427490234 290.90814208984375 105.71726989746094 289.23956298828125 C 107.2142333984375 292.1416015625 110.21988677978516 297.4419250488281 115.7430419921875 301.9083251953125 C 113.15338134765625 297.84423828125 115.36367797851562 299.92425537109375 114.52561950683594 302.5072937011719 C 115.23723602294922 302.47412109375 118.8408432006836 305.8245544433594 118.65998840332031 302.3830261230469 C 118.91566467285156 303.7247314453125 118.430419921875 310.49920654296875 120.45124053955078 307.87579345703125 C 123.3460464477539 312.5189514160156 120.95112609863281 314.857177734375 121.85655212402344 315.80682373046875 C 123.9566421508789 312.9606018066406 124.55089569091797 315.81182861328125 125.98829650878906 317.77685546875 C 127.75950622558594 318.4682922363281 128.46058654785156 320.0516052246094 126.80329895019531 322.0033264160156 C 127.85812377929688 323.47991943359375 128.07859802246094 325.02923583984375 127.76454162597656 327.18048095703125 C 127.97054290771484 328.7500915527344 126.14960479736328 325.7754211425781 127.61616516113281 329.4248962402344 C 127.29620361328125 335.56500244140625 122.84419250488281 336.62884521484375 120.39762115478516 341.2651672363281 C 118.34883880615234 340.86578369140625 114.77667236328125 341.5304260253906 111.71376037597656 340.57470703125 C 107.87945556640625 342.7425842285156 105.11380767822266 346.88238525390625 102.91455841064453 347.800048828125 C 100.25534057617188 350.9253234863281 94.21440887451172 348.58453369140625 89.5816650390625 351.9435729980469 C 88.311279296875 353.57958984375 87.6953125 350.9667053222656 84.09494018554688 361.05194091796875 C 88.60646057128906 348.5313720703125 89.45130157470703 350.8982238769531 85.56905364990234 353.7081604003906 C 84.07963562011719 356.20068359375 76.55399322509766 355.6561279296875 71.724853515625 354.61163330078125 C 80.2929458618164 354.8925476074219 85.39183044433594 354.9416198730469 89.38331604003906 354.87451171875 C 86.43911743164062 356.83111572265625 91.8575439453125 356.2154846191406 88.60328674316406 364.13671875 C 89.70598602294922 362.02484130859375 88.25157165527344 363.0289306640625 83.90594482421875 365.2445068359375 C 80.67377471923828 365.5604248046875 78.36205291748047 362.8945007324219 78.86302947998047 362.25494384765625 C 75.54208374023438 366.40570068359375 74.69306945800781 370.4715576171875 72.2401123046875 372.4151306152344 C 70.60906219482422 373.5172119140625 69.01180267333984 378.87738037109375 64.06935119628906 381.1358337402344 C 61.73662185668945 384.042724609375 58.59345245361328 382.8505554199219 60.03963851928711 387.9280700683594 C 57.6849365234375 389.5306396484375 58.945072174072266 391.2584533691406 58.77003860473633 397.1028747558594 C 57.522178649902344 401.2953796386719 55.97875213623047 404.9841003417969 54.21796798706055 404.6929931640625 C 54.13590621948242 406.963623046875 49.5825080871582 405.16693115234375 46.80463790893555 401.7886657714844 C 45.169334411621094 399.514404296875 44.0239372253418 393.07061767578125 44.30183029174805 390.77789306640625 C 41.59883499145508 387.5320739746094 46.405517578125 388.2158203125 41.09775924682617 387.52569580078125 C 39.99289321899414 391.2456359863281 36.98727035522461 398.1523132324219 32.51520538330078 400.4328918457031 C 32.6691780090332 400.30096435546875 28.044002532958984 403.6935729980469 22.67121696472168 398.9519958496094 C 21.872133255004883 400.4626770019531 22.822656631469727 391.0538024902344 21.5607852935791 387.83697509765625 C 20.951440811157227 394.2347412109375 17.460769653320312 392.6756591796875 11.924066543579102 392.5389709472656 C 14.623674392700195 391.6246337890625 9.243748664855957 391.5848693847656 9.357223510742188 386.38214111328125 C 10.328603744506836 380.0166015625 12.139538764953613 376.0372619628906 14.173070907592773 375.5690002441406 C 11.110925674438477 374.11334228515625 9.884634971618652 377.9326477050781 6.531059741973877 378.5073547363281 C 2.613236427307129 378.17138671875 0.20445074141025543 376.6248779296875 -5.082294940948486 371.9550476074219 C -1.6613731384277344 370.111083984375 2.3887875080108643 369.6128234863281 3.3341808319091797 364.7002258300781 C 5.176446914672852 362.4006652832031 6.300394535064697 358.8602600097656 9.588103294372559 355.4709167480469 C 12.606972694396973 352.094482421875 15.414305686950684 347.8551025390625 18.52715492248535 344.37628173828125 C 23.296215057373047 339.3558349609375 24.193771362304688 332.5079345703125 21.072555541992188 344.92803955078125 C 25.43111801147461 340.8587341308594 18.880502700805664 338.1858215332031 17.480003356933594 328.7880859375 C 20.85692024230957 330.85546875 15.756393432617188 330.4730529785156 17.551708221435547 327.5047607421875 C 16.933910369873047 320.6844482421875 19.074342727661133 325.0800476074219 20.027339935302734 320.5137634277344 C 19.766111373901367 320.3879089355469 25.060592651367188 320.59619140625 26.30436897277832 319.99267578125 C 27.99617576599121 322.180419921875 32.563201904296875 324.751220703125 34.833465576171875 327.7000427246094 C 40.65066909790039 332.2138366699219 37.26415252685547 330.3716125488281 51.46441650390625 329.6440734863281 C 44.600074768066406 331.6517028808594 46.777523040771484 327.8067321777344 46.75483322143555 323.5952453613281 C 48.235416412353516 321.4811096191406 49.0335807800293 319.6046142578125 56.55826187133789 320.8064880371094 C 57.74077224731445 323.6468505859375 57.22599411010742 319.843017578125 62.146053314208984 316.1632385253906 C 63.35000228881836 312.14154052734375 69.9472885131836 308.66021728515625 71.89436340332031 305.0711669921875 C 74.25050354003906 303.050048828125 77.72765350341797 298.0848083496094 80.86444854736328 296.80718994140625 C 84.19258880615234 293.28216552734375 90.69624328613281 290.7293395996094 96.615478515625 286.2577209472656 C 94.75703430175781 292.2012939453125 95.08576965332031 287.22650146484375 96.0972900390625 285.7950744628906 C 97.648193359375 284.5157470703125 97.9713134765625 284.8634948730469 97.12344360351562 284.8545837402344 C 95.43592834472656 286.7375793457031 96.2001724243164 288.6499938964844 97.18086242675781 286.7115783691406 C 100.08386993408203 285.89752197265625 104.88603210449219 287.58026123046875 108.24703979492188 286.7154541015625" stroke-width="0.0" fill="rgb(249, 185, 107)" opacity="1.0" stroke="rgb(86, 233, 60)" stroke-opacity="0.3230082" stroke-linecap="round" stroke-linejoin="round"/>
    <path d="M 365.3630065917969 269.91436767578125 C 366.49224853515625 270.3443298339844 366.26531982421875 271.0392761230469 367.24267578125 272.80780029296875 C 367.5892639160156 271.7465515136719 367.9839172363281 271.6499328613281 368.07501220703125 271.244140625 C 368.8791198730469 271.8772888183594 371.560546875 272.9563293457031 373.88311767578125 273.5067138671875 C 374.48876953125 274.6228332519531 376.4975891113281 275.4056396484375 378.1083068847656 275.84088134765625 C 379.0605773925781 276.3689880371094 381.05902099609375 277.29473876953125 383.0494689941406 278.6142578125 C 383.64166259765625 278.09619140625 384.34783935546875 275.4358215332031 384.6424255371094 276.7026062011719 C 386.37725830078125 273.7311096191406 383.91748046875 276.5565490722656 383.70068359375 278.0053405761719 C 385.63604736328125 275.98638916015625 385.404296875 276.9066162109375 383.12115478515625 278.2558288574219 C 385.2223815917969 278.09002685546875 385.9874572753906 279.3211364746094 386.1611633300781 279.4267578125 C 385.5223083496094 280.5279541015625 388.2571716308594 281.175048828125 389.11138916015625 281.5290832519531 C 388.66888427734375 280.5593566894531 391.17626953125 283.7058410644531 393.7088928222656 283.8223876953125 C 392.4241638183594 283.55987548828125 393.7921447753906 284.7713928222656 394.4316711425781 284.8065185546875 C 395.4046936035156 283.9326477050781 396.29534912109375 283.7364807128906 395.73907470703125 284.03656005859375 C 395.3456726074219 283.8511047363281 394.1916198730469 284.9806213378906 394.310791015625 285.2072448730469 C 398.39935302734375 287.13812255859375 399.9453125 289.8232116699219 403.5770263671875 291.5900573730469 C 409.8959045410156 296.45452880859375 408.5440368652344 293.92840576171875 408.7296142578125 293.46771240234375 C 410.9208068847656 296.2115783691406 420.40020751953125 293.438232421875 427.2201232910156 293.1329040527344 C 415.5715026855469 293.1156921386719 413.0400390625 295.0970764160156 413.1741943359375 297.74627685546875 C 413.78851318359375 295.1057434082031 414.11199951171875 293.26611328125 422.3234558105469 292.4278564453125 C 418.6123046875 290.54534912109375 422.9641418457031 292.1515197753906 426.8097839355469 290.0843505859375 C 429.518798828125 289.01385498046875 435.3194580078125 286.4768371582031 431.2531433105469 290.52935791015625 C 435.4382019042969 287.5216979980469 437.0218505859375 281.76409912109375 441.81146240234375 280.2848815917969 C 439.4859619140625 278.3818664550781 451.8283996582031 278.6032409667969 446.93359375 280.7942199707031 C 448.6340026855469 279.4558410644531 453.05487060546875 284.922119140625 450.2868347167969 290.27105712890625 C 449.2193908691406 290.3569030761719 450.5600891113281 290.5508728027344 447.9986877441406 294.7256164550781 C 448.35968017578125 295.4110412597656 445.4089050292969 298.03363037109375 447.5758056640625 299.52001953125 C 446.0653991699219 299.0767822265625 451.6617736816406 300.578125 451.32904052734375 301.1801452636719 C 454.1611328125 301.8641662597656 459.88604736328125 304.590576171875 464.13787841796875 307.28289794921875 C 468.30914306640625 309.1654052734375 470.3944396972656 314.0956115722656 474.83416748046875 315.7386474609375 C 477.2469482421875 316.1728820800781 478.0852966308594 323.35516357421875 471.6724548339844 321.42083740234375 C 472.4996337890625 324.558349609375 467.68902587890625 323.5254821777344 460.5545349121094 323.87725830078125 C 459.28369140625 326.3265380859375 462.8612060546875 325.34503173828125 464.9457092285156 329.2857360839844 C 466.181396484375 328.99072265625 467.77923583984375 335.6008605957031 468.7196350097656 334.76171875 C 466.2858581542969 338.65594482421875 464.41448974609375 341.12744140625 459.4832458496094 338.6023864746094 C 461.8682556152344 337.0102233886719 460.58428955078125 347.8618469238281 460.81536865234375 346.3621520996094 C 459.67938232421875 348.0664978027344 450.954833984375 348.43511962890625 447.4120178222656 345.85540771484375 C 439.86029052734375 344.0721130371094 442.31201171875 342.08209228515625 440.8677978515625 344.5499267578125 C 441.4190368652344 347.3651428222656 444.80615234375 350.73394775390625 444.8362121582031 354.37237548828125 C 446.9969482421875 353.5591125488281 444.7352600097656 361.50933837890625 442.13616943359375 360.44757080078125 C 442.9111022949219 359.9247131347656 437.0702209472656 362.71844482421875 434.14947509765625 358.418212890625 C 431.4469299316406 353.25579833984375 426.5253601074219 350.9563903808594 424.5452880859375 344.2989196777344 C 425.178955078125 344.7899475097656 420.7764892578125 345.5501708984375 424.9370422363281 343.469970703125 C 420.72064208984375 343.7961120605469 418.9831237792969 344.1632385253906 419.4745788574219 343.2507019042969 C 419.5240478515625 344.09844970703125 417.33013916015625 343.71697998046875 413.68096923828125 341.5365295410156 C 411.7078552246094 339.938232421875 407.2206115722656 338.2054443359375 404.6670227050781 334.4316101074219 C 400.5255432128906 333.35968017578125 408.447265625 332.069091796875 402.2839050292969 328.67413330078125 C 400.9781494140625 325.6706237792969 397.9432373046875 327.05340576171875 393.97265625 326.2732849121094 C 387.5709228515625 325.35699462890625 382.3173522949219 324.3024597167969 381.724365234375 327.9768371582031 C 384.2635192871094 328.90264892578125 378.6541748046875 329.24676513671875 378.0539245605469 323.7290344238281 C 372.0042419433594 324.875732421875 371.0185852050781 325.541259765625 368.67694091796875 322.7644348144531 C 365.26123046875 320.2976379394531 359.7386779785156 321.78570556640625 354.6225891113281 321.5015869140625 C 351.923828125 320.2711486816406 349.12518310546875 318.699462890625 347.85931396484375 315.1581726074219 C 347.23492431640625 319.6789245605469 345.4107971191406 317.20458984375 348.2560729980469 319.29608154296875 C 347.1917419433594 314.26715087890625 352.8343505859375 313.4931945800781 351.58929443359375 309.8148193359375 C 352.9445495605469 308.95184326171875 354.64990234375 305.3424072265625 357.72119140625 300.9207458496094 C 355.16070556640625 299.5425720214844 358.03057861328125 298.50811767578125 358.7803955078125 294.64544677734375 C 361.00823974609375 289.6202697753906 361.6963806152344 286.52667236328125 363.5220947265625 280.37908935546875 C 363.7014465332031 281.0290222167969 365.5059814453125 278.3830871582031 363.8836364746094 278.1773681640625 C 366.3138122558594 272.0518798828125 366.20184326171875 265.9649658203125 365.9945983886719 271.63043212890625 C 366.9225769042969 272.2992248535156 367.2819519042969 271.1237487792969 365.3630065917969 269.91436767578125" stroke-width="0.0" fill="rgb(249, 187, 107)" opacity="0.9999998" stroke="rgb(34, 185, 41)" stroke-opacity="0.36581048" stroke-linecap="round" stroke-linejoin="round"/>
    <path d="M 311.9501953125 407.6720886230469 C 311.61163330078125 408.2138977050781 311.5466003417969 408.8638610839844 311.345458984375 409.3652648925781 C 311.2958068847656 409.79852294921875 311.1650390625 410.3459777832031 310.978271484375 410.8020324707031 C 310.8681335449219 411.308837890625 310.7799987792969 411.83197021484375 310.55419921875 412.50787353515625 C 310.5595397949219 413.1677551269531 310.45196533203125 413.4460144042969 310.2613220214844 414.32476806640625 C 310.1188659667969 415.0518798828125 309.8321533203125 416.3736267089844 309.6009521484375 417.4826965332031 C 309.42291259765625 418.2288513183594 309.309326171875 419.0554504394531 308.97900390625 420.5444030761719 C 308.7667541503906 421.68585205078125 308.4619445800781 422.9234313964844 308.30517578125 424.1939392089844 C 307.9993591308594 425.677734375 307.8701477050781 427.7032470703125 307.2742004394531 429.7783508300781 C 306.4472961425781 432.62847900390625 305.43768310546875 435.7060546875 305.1484069824219 437.493896484375 C 303.7509460449219 440.370361328125 302.0327453613281 443.75946044921875 302.3228454589844 447.3260803222656 C 301.87823486328125 453.28399658203125 299.9575500488281 456.8196105957031 296.2109069824219 462.63330078125 C 296.5915222167969 469.1810302734375 290.2413635253906 471.7471008300781 287.6536865234375 472.7943420410156 C 286.78515625 483.8160095214844 285.3021240234375 490.93255615234375 284.7062072753906 501.7667236328125 C 283.9563293457031 510.5299377441406 282.5640563964844 511.6191711425781 289.093017578125 505.0269775390625 C 288.287841796875 506.0902099609375 295.0825500488281 509.0398254394531 300.1106872558594 509.53045654296875 C 303.43438720703125 518.9332885742188 298.9962158203125 514.8115844726562 295.6340026855469 516.5236206054688 C 291.72979736328125 526.2906494140625 284.56292724609375 531.2529296875 273.9890441894531 532.6624145507812 C 269.5773620605469 534.22119140625 250.26971435546875 533.6480712890625 251.93020629882812 533.6397705078125 C 244.14785766601562 530.4054565429688 235.05535888671875 531.0277099609375 237.54910278320312 534.1478271484375 C 233.4368438720703 541.1552734375 232.86598205566406 552.091064453125 235.64126586914062 574.2759399414062 C 236.12942504882812 571.5205688476562 245.3529510498047 565.7584228515625 247.75889587402344 568.3460693359375 C 253.46176147460938 570.3916625976562 259.4306335449219 572.76171875 268.7138671875 572.3635864257812 C 273.03546142578125 578.4755859375 266.7953186035156 577.1650390625 265.494873046875 582.6622314453125 C 263.2756652832031 582.4296875 249.50656127929688 582.1040649414062 243.1726531982422 578.6332397460938 C 237.04928588867188 578.134033203125 233.56109619140625 568.4746704101562 233.49285888671875 563.6135864257812 C 233.1986846923828 547.9446411132812 234.16619873046875 540.2603149414062 240.33868408203125 526.9603881835938 C 239.72836303710938 522.8223876953125 229.89804077148438 528.181640625 226.71031188964844 519.56298828125 C 224.90887451171875 514.0458374023438 227.7725830078125 511.317626953125 233.7784881591797 507.7782897949219 C 244.0238800048828 503.9349670410156 243.1859588623047 509.75628662109375 244.06797790527344 500.51055908203125 C 245.49240112304688 491.9110107421875 245.91317749023438 483.5530090332031 246.75814819335938 470.22833251953125 C 237.13356018066406 468.7571716308594 232.0834197998047 467.1699523925781 232.95652770996094 456.1585693359375 C 226.06072998046875 454.4360046386719 227.37451171875 459.1964111328125 227.92877197265625 462.7547912597656 C 224.87611389160156 473.9068298339844 225.6942138671875 473.76251220703125 217.23641967773438 475.4243469238281 C 215.36610412597656 484.0036315917969 212.8468780517578 490.9868469238281 212.47877502441406 501.7996520996094 C 209.155029296875 508.9767761230469 214.73422241210938 507.5984802246094 219.22227478027344 511.3784484863281 C 220.2483673095703 512.4793701171875 222.04095458984375 519.5213012695312 219.41917419433594 521.2982788085938 C 211.95286560058594 525.3635864257812 208.16236877441406 522.8710327148438 210.2330780029297 529.406494140625 C 202.99864196777344 534.4050903320312 192.14646911621094 536.4490356445312 183.56626892089844 536.3972778320312 C 175.61424255371094 535.2362670898438 166.50662231445312 532.04443359375 163.01766967773438 529.1002807617188 C 159.8865203857422 530.490234375 162.38052368164062 540.2318725585938 149.55210876464844 546.74267578125 C 158.91690063476562 536.1279296875 162.1372528076172 529.734619140625 157.5137939453125 523.5465087890625 C 149.43809509277344 521.31298828125 150.18809509277344 517.0697631835938 155.04702758789062 508.9774475097656 C 161.22328186035156 504.5718078613281 170.26927185058594 510.1838684082031 168.1054229736328 506.9017028808594 C 170.0501708984375 488.364013671875 169.17477416992188 478.3496398925781 168.69566345214844 472.53753662109375 C 167.13494873046875 470.121337890625 166.2121124267578 469.2596435546875 166.36997985839844 469.5138854980469 C 167.45887756347656 470.66668701171875 168.33509826660156 472.08831787109375 169.35708618164062 473.09716796875 C 168.5778045654297 473.7033996582031 169.0296173095703 473.7347106933594 169.36666870117188 472.3520812988281 C 172.32781982421875 473.02569580078125 177.06564331054688 474.13592529296875 182.6658477783203 473.4801025390625 C 189.2438507080078 473.2054138183594 195.86602783203125 473.8522033691406 209.34536743164062 474.4811096191406 C 214.8064422607422 477.31011962890625 204.9579315185547 492.3078308105469 219.3651885986328 474.1959228515625 C 227.80429077148438 476.3401184082031 223.50238037109375 468.8416748046875 226.7317657470703 471.59381103515625 C 226.69236755371094 452.6362609863281 227.58236694335938 454.10504150390625 232.08828735351562 455.35968017578125 C 234.42237854003906 461.5250244140625 232.93673706054688 466.1366882324219 237.9583740234375 468.1860656738281 C 240.77601623535156 470.7320556640625 248.02838134765625 469.90582275390625 255.60182189941406 469.5620422363281 C 260.4403076171875 471.81463623046875 267.7051696777344 471.12432861328125 274.53411865234375 470.5199890136719 C 279.9386901855469 474.03814697265625 286.19830322265625 472.54583740234375 287.929443359375 472.3834533691406 C 293.78619384765625 470.5041198730469 296.2505798339844 467.067626953125 297.4353942871094 462.4154357910156 C 300.6316223144531 457.40850830078125 302.3421630859375 450.8623352050781 302.75872802734375 442.9756164550781 C 305.1435546875 436.89154052734375 307.43798828125 431.09674072265625 308.4364318847656 423.1816711425781 C 309.9455871582031 415.8916015625 311.3522033691406 408.4076232910156 311.9501953125 407.6720886230469" stroke-width="0.0" fill="rgb(243, 187, 107)" opacity="1.0" stroke="rgb(77, 192, 251)" stroke-opacity="0.7488618" stroke-linecap="round" stroke-linejoin="round"/>
    <path d="M 144.4734649658203 324.9067077636719 C 146.0572052001953 323.9513244628906 151.1546630859375 322.31341552734375 150.60336303710938 321.2724609375 C 153.76002502441406 324.5517272949219 151.6507568359375 298.49700927734375 177.9315185546875 261.1440124511719 C 184.77423095703125 307.7981872558594 169.60240173339844 316.2254333496094 167.54737854003906 329.6815185546875 C 163.15989685058594 335.879150390625 162.89366149902344 341.98681640625 159.68324279785156 347.7765808105469 C 162.56805419921875 349.1808776855469 158.13783264160156 347.77020263671875 153.87686157226562 350.6328430175781 C 154.56654357910156 347.0154724121094 154.3911895751953 343.75360107421875 154.83041381835938 346.9422302246094 C 153.53221130371094 346.742919921875 155.8574981689453 345.9311218261719 154.39553833007812 347.54583740234375 C 153.3156280517578 345.8844909667969 154.0923309326172 347.89398193359375 157.06484985351562 347.7157287597656 C 157.13128662109375 348.9286804199219 156.8974151611328 349.67462158203125 155.1769256591797 350.2073974609375 C 155.54205322265625 351.7805480957031 154.67547607421875 350.7033996582031 154.02088928222656 351.7398681640625 C 155.56044006347656 350.7991638183594 155.46356201171875 347.85382080078125 153.6615753173828 349.3966369628906 C 152.78822326660156 345.292236328125 159.0925750732422 348.8384094238281 159.51979064941406 348.86883544921875 C 160.1368865966797 352.4781799316406 158.4788818359375 354.763916015625 158.12876892089844 357.2215576171875 C 156.77040100097656 360.33349609375 156.44468688964844 362.8669738769531 153.900146484375 367.318603515625 C 154.79434204101562 366.5492248535156 155.1824493408203 365.2922668457031 154.9789581298828 365.0064392089844 C 153.1668701171875 363.2760925292969 152.62722778320312 363.7310485839844 154.73794555664062 363.62225341796875 C 156.4054718017578 364.1077880859375 156.6924591064453 366.0773010253906 153.80398559570312 372.05731201171875 C 153.43246459960938 369.1389465332031 153.38833618164062 369.68609619140625 151.54115295410156 369.09942626953125 C 149.78106689453125 368.3537902832031 148.86239624023438 367.74151611328125 145.4395294189453 367.3232421875 C 145.64007568359375 367.8816833496094 145.53518676757812 365.9609680175781 145.69638061523438 364.584228515625 C 145.0918426513672 363.959228515625 144.087890625 363.2654113769531 144.8560028076172 364.86865234375 C 144.67559814453125 362.43072509765625 144.0638427734375 361.95672607421875 144.19381713867188 362.82708740234375 C 145.11331176757812 361.9538879394531 144.45774841308594 361.88555908203125 144.6874542236328 362.3041687011719 C 144.2177734375 362.8555908203125 144.36097717285156 363.369140625 145.46751403808594 363.59185791015625 C 144.70143127441406 363.8513488769531 145.76242065429688 364.8849182128906 144.9174041748047 364.3357238769531 C 144.9512481689453 365.815673828125 145.49740600585938 367.9364929199219 148.0594482421875 369.0152282714844 C 147.96282958984375 370.3197937011719 146.70150756835938 371.2569274902344 145.88119506835938 372.9054260253906 C 145.29653930664062 373.7440490722656 144.93331909179688 374.5794982910156 144.0340118408203 375.6878967285156 C 142.63998413085938 377.1714172363281 141.94920349121094 378.88702392578125 140.03701782226562 379.8243713378906 C 138.7557830810547 376.28375244140625 137.79090881347656 374.843505859375 136.62716674804688 374.2486267089844 C 135.4103240966797 374.26708984375 134.20436096191406 374.7894592285156 131.2051544189453 379.62890625 C 131.7482147216797 376.4200439453125 131.15603637695312 374.0162353515625 128.97305297851562 374.59173583984375 C 127.53388214111328 373.7539978027344 126.3341293334961 371.7223205566406 128.61949157714844 373.1040344238281 C 127.72967529296875 374.16143798828125 124.73403930664062 368.86297607421875 125.51226806640625 369.67999267578125 C 125.64091491699219 369.6377258300781 124.71638488769531 367.696044921875 126.03395080566406 366.40936279296875 C 124.55296325683594 368.2132568359375 125.98577117919922 371.39111328125 125.546142578125 370.4591064453125 C 125.32405853271484 369.009033203125 127.01892852783203 373.95574951171875 133.0158233642578 376.7961730957031 C 140.79806518554688 381.32501220703125 153.16546630859375 386.07342529296875 152.3440399169922 399.2156982421875 C 125.0780029296875 396.6681823730469 121.72929382324219 388.06903076171875 118.57954406738281 382.87799072265625 C 114.37285614013672 375.9556884765625 114.02912902832031 366.3357849121094 114.43364715576172 362.2036437988281 C 113.04581451416016 359.909912109375 113.06690216064453 350.84991455078125 113.49305725097656 349.9989318847656 C 112.60889434814453 346.7938537597656 121.87723541259766 339.9990234375 95.68045806884766 352.03057861328125 C 97.36786651611328 347.7217712402344 112.98119354248047 340.552978515625 117.10777282714844 339.3431396484375 C 115.791748046875 343.6216735839844 116.52494812011719 343.6465148925781 116.70020294189453 341.3089599609375 C 117.40589904785156 343.5667724609375 117.5549545288086 343.5338134765625 116.63158416748047 342.08978271484375 C 117.00074768066406 341.13177490234375 118.33186340332031 340.4971923828125 116.08395385742188 339.392333984375 C 117.84361267089844 340.26123046875 120.41079711914062 338.7386779785156 118.52727508544922 338.2659912109375 C 121.5890884399414 339.12811279296875 122.8187026977539 337.9360656738281 121.2607650756836 337.2135314941406 C 123.01506805419922 337.392578125 123.63904571533203 336.8731384277344 119.99809265136719 335.298583984375 C 122.59222412109375 335.419921875 125.4740982055664 333.97021484375 120.66804504394531 337.03692626953125 C 118.44094848632812 334.93072509765625 122.76046752929688 333.695556640625 124.5883560180664 334.273681640625 C 124.46162414550781 333.3532409667969 126.07202911376953 333.65374755859375 126.75516510009766 333.6675720214844 C 127.51207733154297 333.7112121582031 128.43341064453125 333.62982177734375 127.8790054321289 333.47998046875 C 131.04324340820312 333.3656005859375 136.74234008789062 332.70452880859375 132.39691162109375 331.45086669921875 C 131.95867919921875 333.61553955078125 133.92588806152344 330.20892333984375 139.54859924316406 328.344970703125 C 137.81277465820312 330.4716491699219 138.63075256347656 332.49859619140625 139.6360626220703 332.6280212402344 C 140.40985107421875 333.2546691894531 140.60281372070312 333.6056823730469 138.62689208984375 333.6201171875 C 140.21849060058594 333.4488525390625 140.46533203125 333.6231994628906 140.2121124267578 332.5516662597656 C 140.5747833251953 334.0218505859375 139.90419006347656 332.5155944824219 137.66464233398438 331.1356506347656 C 135.95960998535156 330.15234375 137.71005249023438 333.2581787109375 144.4734649658203 324.9067077636719" stroke-width="0.0" fill="rgb(147, 115, 173)" opacity="0.99976003" stroke="rgb(186, 229, 232)" stroke-opacity="0.60660046" stroke-linecap="round" stroke-linejoin="round"/>
    <path d="M 102.67103576660156 203.38198852539062 C 104.13725280761719 203.9736328125 105.22105407714844 204.61618041992188 105.85153198242188 205.12939453125 C 106.61149597167969 205.09228515625 107.3531265258789 204.99598693847656 108.33718872070312 204.66744995117188 C 109.31448364257812 204.81959533691406 110.56409454345703 204.95240783691406 111.91796112060547 205.2563934326172 C 113.38459014892578 205.478759765625 114.58990478515625 205.8407745361328 115.83316040039062 206.5639190673828 C 117.24327087402344 206.64784240722656 118.86122131347656 206.6746368408203 120.40493774414062 206.8156280517578 C 121.90145111083984 206.903564453125 123.53732299804688 207.1220245361328 124.6442642211914 207.5963134765625 C 124.5622329711914 208.47149658203125 124.49598693847656 208.87521362304688 124.18632507324219 209.46893310546875 C 123.67411804199219 210.10679626464844 123.49015045166016 210.1887664794922 123.54911041259766 209.64602661132812 C 124.05805969238281 208.71563720703125 125.55055236816406 208.39064025878906 128.6675262451172 209.31919860839844 C 133.71385192871094 210.31837463378906 140.2432861328125 211.45352172851562 147.6007537841797 212.81729125976562 C 154.28369140625 215.27914428710938 158.94943237304688 219.6910400390625 160.53192138671875 225.53594970703125 C 158.3632049560547 230.9994659423828 153.13372802734375 234.62643432617188 145.9457550048828 235.75384521484375 C 138.3109588623047 235.37132263183594 131.49588012695312 234.04571533203125 125.4986801147461 232.81297302246094 C 121.11754608154297 232.2882080078125 118.25237274169922 232.00819396972656 117.05148315429688 231.31683349609375 C 116.99869537353516 230.07830810546875 117.43907165527344 229.388671875 117.8694839477539 229.4668426513672 C 118.20166015625 229.80624389648438 118.03553009033203 229.90480041503906 117.36399841308594 230.13803100585938 C 116.40018463134766 230.5816650390625 115.19429016113281 230.79953002929688 113.72042083740234 230.43359375 C 112.35013580322266 229.90151977539062 110.92786407470703 229.81546020507812 109.66707611083984 229.48248291015625 C 108.5792007446289 228.90640258789062 107.81893920898438 228.63232421875 106.92356872558594 228.72396850585938 C 106.3461685180664 228.4459228515625 105.81780242919922 228.06549072265625 105.0169677734375 227.7586669921875 C 104.21027374267578 227.9397735595703 103.33707427978516 227.53506469726562 101.71356964111328 226.79812622070312 C 99.29564666748047 226.0810546875 96.5157699584961 224.7788848876953 92.99486541748047 223.47669982910156 C 88.99405670166016 222.16128540039062 84.7832260131836 220.84918212890625 81.20430755615234 218.81631469726562 C 79.11724090576172 216.23130798339844 78.86360931396484 214.1875762939453 80.299072265625 212.41807556152344 C 83.44416809082031 211.28399658203125 87.15530395507812 210.737060546875 90.55049133300781 210.62086486816406 C 92.61923217773438 210.7144012451172 92.70272064208984 210.95533752441406 90.63269805908203 211.39804077148438 C 86.25865936279297 211.88612365722656 79.82659912109375 211.7046356201172 72.21617126464844 209.6988983154297 C 64.48760986328125 205.23275756835938 56.918235778808594 199.55662536621094 102.67103576660156 203.38198852539062" stroke-width="0.0" fill="rgb(1, 1, 0)" opacity="0.99952227" stroke="rgb(204, 78, 218)" stroke-opacity="0.2795233" stroke-linecap="round" stroke-linejoin="round"/>
    <path d="M 203.91015625 133.36260986328125 C 207.0661163330078 133.1862335205078 209.80723571777344 133.1435089111328 210.80230712890625 134.5376434326172 C 209.40621948242188 136.32037353515625 206.90814208984375 138.7167510986328 206.23883056640625 141.88099670410156 C 208.60202026367188 144.73831176757812 210.93226623535156 145.2421417236328 212.3466339111328 141.60885620117188 C 212.15472412109375 135.7967529296875 212.15420532226562 130.3618927001953 214.38035583496094 126.92759704589844 C 219.16900634765625 127.03765869140625 223.99270629882812 131.0492401123047 227.43972778320312 137.8174285888672 C 229.17674255371094 144.5663299560547 228.32470703125 150.40798950195312 225.80807495117188 154.30921936035156 C 221.8157196044922 154.74264526367188 216.9101104736328 154.2098388671875 211.01698303222656 154.5398406982422 C 204.8221893310547 154.623046875 198.98219299316406 154.37710571289062 193.7944793701172 154.34901428222656 C 190.20965576171875 154.95736694335938 188.42724609375 154.47747802734375 187.7394256591797 151.41644287109375 C 187.21739196777344 146.3218994140625 187.41075134277344 140.18972778320312 188.66348266601562 136.7582244873047 C 189.846923828125 133.45632934570312 192.88426208496094 133.95570373535156 194.53591918945312 135.32460021972656 C 195.73985290527344 135.67230224609375 197.03598022460938 134.30453491210938 198.6449432373047 131.99273681640625 C 202.12808227539062 130.07186889648438 206.4712677001953 129.03208923339844 203.91015625 133.36260986328125" stroke-width="0.0" fill="rgb(5, 3, 4)" opacity="0.9989663" stroke="rgb(104, 65, 25)" stroke-opacity="0.10608013" stroke-linecap="round" stroke-linejoin="round"/>
    <path d="M 315.8650207519531 104.04752349853516 C 313.2923583984375 109.37287902832031 310.99542236328125 114.01044464111328 309.2489929199219 117.74176788330078 C 308.63720703125 120.0427474975586 309.46600341796875 121.6595230102539 311.4710388183594 122.11648559570312 C 313.9983825683594 121.8780746459961 316.6285705566406 121.1049575805664 318.96307373046875 120.21260070800781 C 320.9034423828125 119.89887237548828 322.4053955078125 120.02812194824219 323.3310241699219 120.70770263671875 C 323.58966064453125 121.91512298583984 323.2867126464844 123.63097381591797 322.39453125 125.62956237792969 C 320.966796875 127.65376281738281 319.1592712402344 129.54067993164062 317.0647888183594 131.09539794921875 C 314.7397766113281 132.1502685546875 312.29095458984375 132.79177856445312 309.8848571777344 132.97718811035156 C 307.65435791015625 132.6767578125 305.6238098144531 132.07882690429688 303.89825439453125 131.3755645751953 C 302.53900146484375 130.6724090576172 301.4952087402344 129.85955810546875 300.5947265625 128.8898468017578 C 299.7071533203125 127.77489471435547 298.72491455078125 126.38065338134766 297.53460693359375 124.42472839355469 C 296.01031494140625 121.76145935058594 294.9403076171875 119.10104370117188 294.7834167480469 115.76500701904297 C 294.5323181152344 110.8763656616211 295.0845947265625 105.33716583251953 315.8650207519531 104.04752349853516" stroke-width="0.0" fill="rgb(13, 1, 4)" opacity="0.9994496" stroke="rgb(202, 13, 56)" stroke-opacity="0.050438877" stroke-linecap="round" stroke-linejoin="round"/>
    <path d="M 229.28445434570312 200.36459350585938 C 234.90052795410156 201.59556579589844 241.028564453125 202.78921508789062 246.8300018310547 203.3773193359375 C 252.0358123779297 203.92300415039062 256.76324462890625 202.75257873535156 261.89654541015625 202.3496856689453 C 266.4427185058594 202.8232879638672 269.1789245605469 202.17428588867188 269.7140808105469 200.10015869140625 C 267.1346435546875 199.9229736328125 263.859619140625 201.6062774658203 260.889892578125 205.55003356933594 C 258.5872802734375 211.2906494140625 256.8490905761719 218.06991577148438 256.5588073730469 223.445068359375 C 256.7804870605469 227.25047302246094 255.72286987304688 228.8105010986328 254.11404418945312 228.74826049804688 C 252.80458068847656 227.938720703125 251.92977905273438 227.997314453125 251.17141723632812 227.764892578125 C 250.3964080810547 227.96163940429688 249.7713165283203 228.15798950195312 248.74147033691406 227.8738250732422 C 246.45501708984375 227.79881286621094 244.12026977539062 227.36849975585938 242.4806671142578 226.28457641601562 C 241.0407257080078 224.94261169433594 239.8485107421875 223.7595672607422 238.32919311523438 223.54013061523438 C 237.2906494140625 222.7418212890625 236.2869110107422 222.3061981201172 235.5169677734375 221.8474884033203 C 234.47897338867188 221.4080047607422 233.4169158935547 220.0184326171875 232.21511840820312 218.51739501953125 C 231.4294891357422 217.25906372070312 231.18312072753906 216.3721466064453 231.50637817382812 216.1109161376953 C 232.23922729492188 215.71067810058594 232.64500427246094 215.5075225830078 232.5970916748047 215.8085479736328 C 232.48989868164062 216.2518768310547 232.20887756347656 216.477294921875 231.24131774902344 216.80393981933594 C 230.32005310058594 216.62164306640625 230.2510528564453 215.26141357421875 229.3783416748047 213.5496826171875 C 227.8158721923828 210.93576049804688 226.30059814453125 207.91555786132812 225.03334045410156 203.90072631835938 C 223.98863220214844 199.62448120117188 221.52134704589844 195.66441345214844 229.28445434570312 200.36459350585938" stroke-width="0.0" fill="rgb(160, 11, 2)" opacity="0.9991966" stroke="rgb(227, 248, 55)" stroke-opacity="0.80255044" stroke-linecap="round" stroke-linejoin="round"/>
    <path d="M 350.3945617675781 317.0726318359375 C 353.8558349609375 318.718505859375 356.8106994628906 320.01104736328125 360.3487548828125 320.6474914550781 C 363.47576904296875 321.5653991699219 366.065185546875 322.3565368652344 368.2001953125 323.5107421875 C 369.5360412597656 325.0328369140625 369.5122985839844 326.21759033203125 368.0951232910156 326.71148681640625 C 365.8114318847656 326.5315246582031 363.6413879394531 325.74029541015625 362.16241455078125 324.64300537109375 C 361.8880920410156 323.83251953125 361.78826904296875 324.193359375 361.5443420410156 324.7491760253906 C 361.2865295410156 324.1540222167969 360.2017517089844 322.9600830078125 358.749267578125 323.3433532714844 C 355.5554504394531 324.1978759765625 351.4187927246094 323.2536926269531 347.1204833984375 321.4402160644531 C 344.7008361816406 319.99835205078125 344.93505859375 318.67041015625 346.7903137207031 316.94256591796875 C 349.006591796875 316.7953796386719 351.9205322265625 316.9953308105469 350.3945617675781 317.0726318359375" stroke-width="0.0" fill="rgb(69, 24, 7)" opacity="0.9996966" stroke="rgb(239, 98, 224)" stroke-opacity="0.84998745" stroke-linecap="round" stroke-linejoin="round"/>
    <path d="M 324.96002197265625 108.03905487060547 C 319.50592041015625 112.50914764404297 313.98406982421875 115.45076751708984 308.36578369140625 117.06523895263672 C 304.3406982421875 118.8326187133789 302.6246032714844 121.26950073242188 302.673095703125 124.1971435546875 C 304.0975036621094 126.88636016845703 306.76263427734375 128.59873962402344 309.4597473144531 129.42213439941406 C 311.451904296875 130.1849822998047 312.29693603515625 131.1201629638672 312.05926513671875 132.26248168945312 C 311.0975036621094 133.40782165527344 309.7777404785156 134.32257080078125 308.50927734375 134.85142517089844 C 307.4889221191406 135.05886840820312 306.69134521484375 135.13510131835938 306.13995361328125 135.2372589111328 C 305.752197265625 135.48707580566406 305.281982421875 135.9428253173828 304.4585266113281 136.4896697998047 C 303.3366394042969 137.0309295654297 302.0648498535156 137.61935424804688 300.79022216796875 138.1194305419922 C 299.63983154296875 138.41036987304688 298.64166259765625 138.6483154296875 297.76361083984375 138.77745056152344 C 297.1661682128906 138.48426818847656 296.9134216308594 137.97152709960938 296.69891357421875 137.46890258789062 C 296.5439758300781 136.67868041992188 296.5867004394531 135.8944091796875 295.9710998535156 135.4209747314453 C 294.9095458984375 134.5578155517578 294.1650695800781 132.90768432617188 293.2909240722656 130.28097534179688 C 291.5101013183594 127.11088562011719 290.9549255371094 123.29618835449219 291.3417663574219 119.51068878173828 C 292.0973205566406 115.65485382080078 292.981689453125 113.1098861694336 294.48919677734375 111.82608032226562 C 295.7265625 111.47396850585938 296.9004211425781 111.85586547851562 297.33551025390625 112.8666000366211 C 297.16650390625 113.37150573730469 296.9439697265625 112.8467025756836 296.84063720703125 110.88610076904297 C 297.58837890625 106.41213989257812 299.306884765625 99.93598175048828 324.96002197265625 108.03905487060547" stroke-width="0.0" fill="rgb(141, 71, 29)" opacity="0.99999845" stroke="rgb(100, 17, 235)" stroke-opacity="0.7033247" stroke-linecap="round" stroke-linejoin="round"/>
    <path d="M 328.803466796875 132.8189239501953 C 328.70068359375 133.86427307128906 328.3841552734375 134.47401428222656 327.7577209472656 135.01165771484375 C 327.2456359863281 135.1805877685547 326.4882507324219 136.03611755371094 324.8175964355469 136.7709503173828 C 322.400634765625 137.2216033935547 318.5633239746094 138.2689971923828 314.8990783691406 139.77139282226562 C 310.530517578125 141.29086303710938 307.1239013671875 142.33175659179688 304.5535583496094 143.0114288330078 C 302.8538818359375 142.65602111816406 302.2401428222656 142.45884704589844 302.4486389160156 142.58843994140625 C 301.9737243652344 143.0888671875 301.3210754394531 142.78036499023438 300.3793029785156 141.87060546875 C 299.4012145996094 141.0279998779297 298.4059753417969 140.28640747070312 298.00201416015625 139.1665802001953 C 297.91131591796875 137.9892120361328 298.0489807128906 136.76596069335938 298.3732604980469 135.7402801513672 C 298.9967041015625 135.03350830078125 299.6960754394531 134.66563415527344 300.53643798828125 134.575439453125 C 301.70709228515625 134.85281372070312 303.2664489746094 135.2174530029297 305.1620178222656 135.21018981933594 C 307.4458312988281 134.45855712890625 310.2083435058594 132.57554626464844 312.7437744140625 129.47027587890625 C 314.3611755371094 125.52593231201172 314.6670837402344 120.17898559570312 316.4036560058594 114.01132202148438 C 322.65521240234375 108.04930114746094 332.57708740234375 102.48811340332031 328.803466796875 132.8189239501953" stroke-width="0.0" fill="rgb(137, 70, 32)" opacity="1.0" stroke="rgb(20, 160, 7)" stroke-opacity="0.66656375" stroke-linecap="round" stroke-linejoin="round"/>
    <path d="M 362.9983215332031 322.282958984375 C 366.82061767578125 321.64202880859375 370.07708740234375 322.4275817871094 373.4720764160156 323.672119140625 C 375.6784973144531 325.1292419433594 377.09063720703125 325.8538818359375 379.0299987792969 324.7063903808594 C 382.39935302734375 324.8825378417969 386.4527282714844 325.4686279296875 390.86505126953125 325.762939453125 C 394.6408996582031 326.4684753417969 396.6490478515625 327.99444580078125 395.6243896484375 329.8387145996094 C 390.75042724609375 329.6573791503906 384.99713134765625 328.8018493652344 380.0736083984375 327.8168640136719 C 378.1103210449219 326.02630615234375 377.9350280761719 325.4518127441406 378.46392822265625 325.2070617675781 C 379.237548828125 326.4992980957031 378.8340759277344 327.671142578125 376.4019775390625 327.8101806640625 C 372.7088928222656 327.61492919921875 369.05194091796875 327.8815612792969 362.9983215332031 322.282958984375" stroke-width="0.0" fill="rgb(70, 30, 20)" opacity="0.9998967" stroke="rgb(41, 238, 205)" stroke-opacity="0.5151914" stroke-linecap="round" stroke-linejoin="round"/>
  </g>
</svg>
