<?xml version="1.0" ?>
<svg xmlns="http://www.w3.org/2000/svg" version="1.1" width="353" height="294">
  <defs/>
  <g>
    <path d="M -19.57485008239746 0.9542295932769775 C -15.580137252807617 0.12434335798025131 -10.912280082702637 -0.7586963772773743 -4.5728535652160645 -1.8347581624984741 C 4.5651044845581055 -3.2116966247558594 17.320098876953125 -4.939868927001953 34.22622299194336 -6.919328689575195 C 55.13739013671875 -8.982765197753906 77.7060775756836 -10.136673927307129 98.24755096435547 -8.709228515625 C 112.36341094970703 -3.0870556831359863 116.34300231933594 6.908151149749756 108.71920776367188 18.480091094970703 C 89.442138671875 26.225011825561523 65.4324951171875 30.120065689086914 43.09362030029297 28.180021286010742 C 29.378950119018555 30.43646812438965 27.24205780029297 39.46488952636719 34.00563049316406 49.15920639038086 C 42.93339538574219 51.90705490112305 51.106719970703125 44.53301239013672 61.20453643798828 36.19799041748047 C 78.12100219726562 39.43385314941406 96.13136291503906 38.240501403808594 113.37100982666016 28.658418655395508 C 130.14544677734375 28.92356300354004 140.75669860839844 29.104393005371094 144.00201416015625 22.863079071044922 C 141.31317138671875 9.991942405700684 142.20645141601562 -1.6530455350875854 150.5998077392578 -6.088240146636963 C 161.4764862060547 -0.21053414046764374 167.646240234375 12.08012580871582 175.2639617919922 16.320035934448242 C 187.04962158203125 0.8747349381446838 207.82872009277344 -11.64941692352295 234.43673706054688 -15.063217163085938 C 258.2375183105469 -9.531547546386719 270.9685974121094 1.905472993850708 270.58599853515625 14.817678451538086 C 261.47967529296875 22.12723159790039 249.7108154296875 25.0720157623291 242.17141723632812 26.087934494018555 C 243.21107482910156 25.722423553466797 251.42477416992188 23.68375587463379 263.8159484863281 19.897735595703125 C 276.41400146484375 20.28147315979004 286.0863342285156 30.176776885986328 292.5211486816406 46.76881408691406 C 293.37799072265625 63.23952865600586 285.7944641113281 69.75605773925781 270.3490905761719 66.83824920654297 C 256.3172607421875 77.43455505371094 248.5349884033203 97.32079315185547 249.36805725097656 120.3087158203125 C 259.6714172363281 139.95230102539062 273.56683349609375 150.7771453857422 284.3643798828125 149.0989532470703 C 285.2065124511719 133.5576629638672 281.54949951171875 110.0435791015625 279.2427673339844 85.15882110595703 C 284.1263732910156 65.58301544189453 294.2613525390625 53.13713836669922 304.4748229980469 47.61709213256836 C 310.29974365234375 47.806312561035156 309.8041076660156 50.44771957397461 304.2192687988281 51.97726058959961 C 294.8475341796875 49.219242095947266 285.9167175292969 39.126197814941406 281.281494140625 22.156715393066406 C 281.2499084472656 3.006011724472046 290.6346130371094 -10.905597686767578 309.260498046875 -16.53380012512207 C 331.40606689453125 -14.296616554260254 349.9460144042969 -5.324689865112305 360.55755615234375 9.377766609191895 C 362.8733215332031 28.383878707885742 360.6721496582031 49.86286163330078 358.4482421875 72.22539520263672 C 357.8477783203125 94.16631317138672 358.0953674316406 115.37676239013672 358.38653564453125 135.95249938964844 C 358.1886291503906 156.07061767578125 357.8495178222656 175.94952392578125 357.82708740234375 195.7513885498047 C 358.2997131347656 215.42047119140625 359.01177978515625 234.60841369628906 359.4699401855469 252.9471435546875 C 358.3971252441406 269.77581787109375 355.1153259277344 284.0786437988281 348.13134765625 294.54962158203125 C 335.16180419921875 300.4613037109375 318.2560729980469 302.8377990722656 297.6430358886719 302.7034912109375 C 273.4598693847656 301.1986083984375 246.73780822753906 299.4721374511719 219.01519775390625 298.6375427246094 C 191.85369873046875 299.4384765625 166.5926971435547 301.07342529296875 144.8163604736328 302.0740661621094 C 128.7978515625 300.4842834472656 120.98299407958984 294.2587890625 122.92022705078125 283.3653564453125 C 127.08847045898438 270.5845031738281 124.37531280517578 261.64337158203125 115.157470703125 261.0679016113281 C 103.03302001953125 267.2518310546875 95.32122039794922 275.1668395996094 98.0521469116211 281.979736328125 C 110.54598236083984 284.963134765625 118.3178939819336 288.7093200683594 112.75775909423828 294.1856994628906 C 93.34333038330078 298.9356384277344 65.87017059326172 301.6476745605469 36.603233337402344 302.8992004394531 C 11.789323806762695 301.6486511230469 -3.3148140907287598 294.49981689453125 -7.142684459686279 280.77081298828125 C -2.5109691619873047 263.9729309082031 6.268406867980957 247.19786071777344 15.73423957824707 232.9132537841797 C 24.04814338684082 223.6623077392578 30.698627471923828 221.1981201171875 36.38779067993164 226.3188018798828 C 42.3122444152832 236.65277099609375 47.38264083862305 246.77540588378906 49.841312408447266 251.28750610351562 C 47.96208190917969 248.07505798339844 41.30525207519531 236.71864318847656 34.10684585571289 219.60279846191406 C 30.924148559570312 200.79928588867188 33.13282012939453 184.38316345214844 39.83265686035156 174.2573699951172 C 42.791996002197266 169.09439086914062 40.77829360961914 167.80282592773438 33.60451889038086 169.08709716796875 C 22.08617401123047 171.02381896972656 8.480842590332031 170.987548828125 -3.322854995727539 165.7209930419922 C -8.793270111083984 153.885009765625 -6.16930627822876 141.1573028564453 5.868977069854736 131.867431640625 C 25.898862838745117 128.0392608642578 46.2388801574707 120.81478881835938 64.32353210449219 113.20319366455078 C 80.45624542236328 113.82360076904297 91.22590637207031 116.80115509033203 97.02588653564453 120.77078247070312 C 101.034912109375 124.15441131591797 105.97120666503906 126.12764739990234 112.7232437133789 127.2284164428711 C 121.51110076904297 128.51019287109375 132.14154052734375 131.4639129638672 144.12811279296875 137.9770050048828 C 156.224853515625 149.35641479492188 167.22496032714844 161.8513946533203 176.35858154296875 170.6917266845703 C 184.98207092285156 168.935302734375 191.50180053710938 158.38021850585938 194.44747924804688 142.15272521972656 C 191.73049926757812 123.48959350585938 183.61534118652344 105.97581481933594 171.0445098876953 93.13203430175781 C 155.66297912597656 88.54318237304688 139.4852294921875 94.3094711303711 122.0037612915039 106.8109130859375 C 101.95713806152344 115.91343688964844 81.99090576171875 118.19099426269531 64.07312774658203 112.01900482177734 C 52.02527618408203 100.73686981201172 42.25767517089844 95.30906677246094 32.733482360839844 100.81211853027344 C 21.694364547729492 115.34307861328125 11.256022453308105 129.00619506835938 1.8430674076080322 134.30821228027344 C -4.969267845153809 124.7663803100586 -9.73196792602539 104.48297882080078 -13.130648612976074 77.97430419921875 C -16.087862014770508 48.72056198120117 -18.929950714111328 18.72735595703125 -19.57485008239746 0.9542295932769775" stroke-width="0.0" fill="rgb(125, 184, 103)" opacity="0.9999898" stroke="rgb(143, 251, 74)" stroke-opacity="0.31662744" stroke-linecap="round" stroke-linejoin="round"/>
    <path d="M 179.91769409179688 44.88407897949219 C 179.81138610839844 45.68777847290039 180.58399963378906 45.13399124145508 181.94883728027344 44.57322311401367 C 182.7958526611328 45.196067810058594 182.61355590820312 45.698394775390625 182.50782775878906 46.04692840576172 C 183.0673065185547 46.51691436767578 183.91336059570312 46.989463806152344 185.6119842529297 47.560577392578125 C 188.25132751464844 48.39641571044922 192.0179901123047 49.69449996948242 197.3256072998047 51.3548698425293 C 203.775390625 53.94220733642578 210.80166625976562 57.6090202331543 217.95431518554688 62.28819274902344 C 224.88189697265625 67.61473846435547 231.05728149414062 73.19825744628906 236.24664306640625 78.4830093383789 C 240.23545837402344 82.87625122070312 243.46864318847656 85.98025512695312 246.38153076171875 87.45304107666016 C 249.0172882080078 86.65843200683594 251.7180633544922 83.36050415039062 255.0137176513672 78.59105682373047 C 258.0821838378906 73.15739440917969 261.62353515625 70.24414825439453 263.0999450683594 71.03652954101562 C 259.92724609375 75.69988250732422 254.5547637939453 83.76282501220703 251.5537109375 95.76446533203125 C 250.4783935546875 110.07526397705078 248.95286560058594 122.44432830810547 255.76889038085938 131.76466369628906 C 268.7829284667969 142.59083557128906 281.36529541015625 151.75355529785156 288.38812255859375 153.2891387939453 C 286.026123046875 143.9681396484375 277.6361083984375 129.51498413085938 273.5008850097656 113.34491729736328 C 272.2552185058594 98.19241333007812 276.42962646484375 85.81316375732422 280.4704895019531 77.80630493164062 C 282.2740783691406 78.82709503173828 281.27801513671875 85.24427032470703 280.2806701660156 92.42607116699219 C 281.89923095703125 93.68367004394531 285.7479553222656 89.86888885498047 292.86602783203125 86.24922180175781 C 303.82415771484375 87.30948638916016 316.5461120605469 91.55154418945312 329.3741455078125 97.23884582519531 C 340.4244384765625 104.02754974365234 347.5584716796875 110.71843719482422 348.5334167480469 116.4761962890625 C 343.2245788574219 120.2793960571289 338.65643310546875 123.53876495361328 341.03045654296875 127.34690856933594 C 349.7983093261719 131.2836151123047 354.9555358886719 139.80709838867188 353.5913391113281 149.66970825195312 C 349.41253662109375 154.53207397460938 345.8067932128906 149.7623291015625 341.25067138671875 141.06517028808594 C 333.99835205078125 139.92999267578125 331.51849365234375 147.0829620361328 331.1807861328125 155.45458984375 C 325.8141174316406 153.2589111328125 318.0909729003906 147.23385620117188 308.5043029785156 146.25611877441406 C 300.137451171875 150.99932861328125 294.8854064941406 157.1571807861328 295.2017822265625 161.90451049804688 C 301.3384704589844 160.2777557373047 310.7036437988281 158.08509826660156 322.064208984375 159.4435577392578 C 329.2773132324219 167.58148193359375 337.8807678222656 176.05755615234375 348.11322021484375 181.20480346679688 C 351.1698913574219 188.35545349121094 348.8147888183594 196.75640869140625 346.94683837890625 205.19650268554688 C 351.4488220214844 213.65699768066406 355.6269226074219 224.45181274414062 357.661865234375 238.0587921142578 C 358.7494201660156 253.57908630371094 359.7029113769531 268.9365234375 359.9502868652344 282.29339599609375 C 358.2769775390625 292.0140686035156 354.2205505371094 296.0906066894531 347.83184814453125 292.8025817871094 C 339.3790588378906 283.7253112792969 328.9074401855469 278.7196960449219 318.7214660644531 280.6502990722656 C 314.5069580078125 284.9659118652344 318.1798400878906 287.6877136230469 326.1429748535156 286.8560485839844 C 333.245361328125 287.7359924316406 335.5018310546875 290.9254150390625 330.38885498046875 295.28466796875 C 319.1413879394531 298.64971923828125 304.4496765136719 299.91650390625 288.2275695800781 300.16192626953125 C 271.76580810546875 299.7096862792969 257.2941589355469 297.3420715332031 246.60153198242188 291.9078063964844 C 240.74822998046875 282.87579345703125 233.6777801513672 276.52740478515625 222.9130859375 275.34954833984375 C 210.0756378173828 273.3317565917969 199.32553100585938 271.5538024902344 191.3029327392578 276.070556640625 C 185.4724884033203 286.1850280761719 177.0797882080078 292.4207763671875 166.76373291015625 295.6011657714844 C 157.86746215820312 295.953125 150.82276916503906 292.21661376953125 147.3065948486328 285.2560729980469 C 150.16015625 275.43798828125 153.73477172851562 264.7597351074219 156.75497436523438 258.4147644042969 C 151.07188415527344 258.1673889160156 140.7459716796875 259.9521179199219 128.1504364013672 260.3005676269531 C 116.82598114013672 257.84521484375 110.34728240966797 251.5267333984375 107.81432342529297 242.26510620117188 C 108.23899841308594 232.84605407714844 107.85206604003906 224.43605041503906 104.78273010253906 218.48117065429688 C 101.30973052978516 213.48130798339844 97.72183227539062 209.0699462890625 94.85072326660156 204.40353393554688 C 92.93142700195312 199.18544006347656 92.4479751586914 193.43392944335938 93.67654418945312 186.8039093017578 C 95.11698913574219 180.113525390625 94.249755859375 173.43992614746094 90.9026870727539 166.89353942871094 C 87.57748413085938 159.97801208496094 86.34751892089844 153.17674255371094 86.93628692626953 147.18218994140625 C 85.30867767333984 143.10162353515625 83.95349884033203 140.50975036621094 83.5072021484375 138.71670532226562 C 84.02025604248047 137.38671875 84.83285522460938 136.01568603515625 86.08442687988281 133.56878662109375 C 86.59735870361328 128.87911987304688 87.46637725830078 122.70602416992188 89.95187377929688 115.94103240966797 C 94.53478240966797 107.58560943603516 99.93314361572266 101.24662780761719 108.3785629272461 101.05158233642578 C 120.70794677734375 103.6078872680664 129.6438751220703 107.13317108154297 131.5192413330078 117.38713073730469 C 141.34925842285156 127.57080841064453 153.5858154296875 140.4810791015625 164.09719848632812 156.77838134765625 C 171.73779296875 172.41424560546875 177.37852478027344 180.13302612304688 179.36964416503906 174.75527954101562 C 173.9502716064453 159.89366149902344 173.14244079589844 144.4967498779297 182.23004150390625 133.3162384033203 C 194.20468139648438 129.4368896484375 193.19300842285156 126.05018615722656 180.7328643798828 121.03386688232422 C 167.96116638183594 113.3844223022461 156.59596252441406 105.32502746582031 147.11395263671875 95.56134796142578 C 138.18406677246094 88.91346740722656 137.9806671142578 81.9540023803711 145.6526641845703 73.11547088623047 C 154.61526489257812 63.26136779785156 163.99685668945312 56.71678924560547 172.95497131347656 55.16325378417969 C 180.57359313964844 54.33062744140625 186.2140350341797 50.49772644042969 179.91769409179688 44.88407897949219" stroke-width="0.0" fill="rgb(44, 55, 33)" opacity="0.99999285" stroke="rgb(237, 175, 4)" stroke-opacity="0.8515836" stroke-linecap="round" stroke-linejoin="round"/>
    <path d="M 107.26676940917969 108.7664566040039 C 108.13150787353516 107.91678619384766 109.51544189453125 107.59293365478516 111.14739990234375 108.05451965332031 C 112.56951904296875 108.349609375 114.03065490722656 108.46459197998047 115.75511169433594 107.97516632080078 C 117.09526062011719 107.8386459350586 117.84395599365234 108.90655517578125 118.80890655517578 110.2185287475586 C 120.25270080566406 111.26152801513672 122.30348205566406 111.6513442993164 123.52912139892578 113.75746154785156 C 123.61474609375 117.32272338867188 124.8272476196289 119.70552825927734 126.55950164794922 120.697021484375 C 126.7932357788086 122.00546264648438 127.05940246582031 123.08177185058594 127.64476776123047 123.73564910888672 C 128.2923583984375 124.32067108154297 128.94668579101562 125.03746795654297 129.72528076171875 126.03325653076172 C 130.57376098632812 126.85888671875 131.355712890625 127.8877182006836 131.9051513671875 129.3233184814453 C 132.14686584472656 131.22264099121094 132.91339111328125 132.9250946044922 134.5530242919922 133.95994567871094 C 136.66722106933594 134.5670623779297 138.68739318847656 135.5594482421875 140.0587615966797 136.80335998535156 C 141.81663513183594 137.7434539794922 143.4989013671875 138.75845336914062 144.8277587890625 139.71519470214844 C 146.3726348876953 141.6501922607422 148.34942626953125 143.46237182617188 149.74301147460938 145.4063720703125 C 151.594970703125 146.70135498046875 152.79220581054688 148.72740173339844 154.26377868652344 150.1477508544922 C 155.89373779296875 151.5547332763672 157.20921325683594 153.50689697265625 158.42013549804688 155.24671936035156 C 159.46983337402344 156.77264404296875 160.59324645996094 157.76455688476562 161.29559326171875 159.5894012451172 C 162.12088012695312 161.07418823242188 162.61972045898438 163.07273864746094 164.11009216308594 164.75448608398438 C 165.2711639404297 166.127197265625 166.00546264648438 167.87269592285156 167.02301025390625 170.2298583984375 C 168.7422637939453 172.0476531982422 169.80245971679688 174.28440856933594 170.4814453125 176.6214141845703 C 171.35218811035156 179.0587158203125 172.1061553955078 181.70106506347656 172.5917510986328 184.183349609375 C 173.09791564941406 186.1295928955078 173.972900390625 187.97073364257812 174.76060485839844 190.13656616210938 C 174.82786560058594 192.1574249267578 175.10211181640625 193.9431915283203 175.7943572998047 195.8020782470703 C 176.3776092529297 197.85438537597656 176.8557586669922 199.96751403808594 177.51318359375 201.9339599609375 C 178.59828186035156 203.7576446533203 179.91812133789062 205.41287231445312 181.20993041992188 207.07254028320312 C 182.33494567871094 208.74375915527344 182.81947326660156 210.67916870117188 183.21673583984375 212.63648986816406 C 183.44427490234375 214.76063537597656 183.8380584716797 216.9165496826172 183.7349395751953 219.32855224609375 C 184.04901123046875 221.530029296875 184.00421142578125 223.62937927246094 183.6487579345703 226.18783569335938 C 183.69915771484375 228.78619384765625 182.9477081298828 230.7176055908203 181.3724365234375 232.04531860351562 C 179.59234619140625 233.52301025390625 177.90924072265625 235.02188110351562 175.70993041992188 235.66456604003906 C 173.2404022216797 236.23233032226562 171.25086975097656 237.33526611328125 169.26068115234375 238.63375854492188 C 167.04225158691406 239.74684143066406 164.8454132080078 240.7777557373047 162.72088623046875 241.7668914794922 C 160.3944549560547 242.6224822998047 157.89089965820312 243.28878784179688 155.54446411132812 243.6876678466797 C 153.3339080810547 244.05726623535156 151.249755859375 244.37646484375 149.32838439941406 244.539794921875 C 147.44247436523438 244.67034912109375 145.52252197265625 244.90945434570312 143.4949493408203 245.23899841308594 C 141.49835205078125 245.52777099609375 139.71649169921875 245.48031616210938 138.00885009765625 245.2411651611328 C 136.1115264892578 244.85108947753906 134.09974670410156 244.56137084960938 132.06558227539062 244.43675231933594 C 130.0756378173828 244.29959106445312 128.07757568359375 243.85520935058594 125.9679183959961 243.0508270263672 C 124.08185577392578 241.80491638183594 122.12752532958984 240.44244384765625 121.02363586425781 238.10931396484375 C 120.2331314086914 235.7776336669922 118.36829376220703 233.72080993652344 116.4542465209961 232.2841033935547 C 115.84817504882812 230.60006713867188 115.7400894165039 228.6363525390625 116.12803649902344 226.37725830078125 C 116.95706176757812 224.48695373535156 117.5280990600586 222.99966430664062 117.47115325927734 221.73544311523438 C 116.14788055419922 221.3282012939453 114.75624084472656 220.93850708007812 112.95503997802734 219.88436889648438 C 111.22856903076172 218.5182342529297 109.76219940185547 216.62069702148438 108.09733581542969 214.50025939941406 C 106.31298065185547 212.31813049316406 104.7436752319336 209.75811767578125 103.90015411376953 207.2238006591797 C 102.4913101196289 204.93238830566406 101.88795471191406 203.2694091796875 101.93994903564453 201.1204376220703 C 100.89136505126953 199.1317901611328 99.8301010131836 196.98097229003906 98.59477996826172 194.46929931640625 C 97.5023193359375 191.89625549316406 95.89427947998047 189.3136444091797 94.83133697509766 186.85704040527344 C 94.39627838134766 184.42469787597656 93.99956512451172 182.03468322753906 93.98902130126953 179.94972229003906 C 94.55516052246094 178.10926818847656 95.4058609008789 176.3042755126953 96.00198364257812 174.38925170898438 C 96.04805755615234 172.37710571289062 95.72481536865234 170.724853515625 95.11797332763672 169.86141967773438 C 94.42950439453125 169.16824340820312 93.33010864257812 168.11216735839844 92.06098937988281 166.56121826171875 C 91.01876068115234 164.63052368164062 91.22016143798828 162.3956756591797 91.42860412597656 160.67486572265625 C 90.73375701904297 158.81922912597656 90.20802307128906 157.1265869140625 90.21822357177734 155.2904052734375 C 90.04469299316406 153.30294799804688 90.43186950683594 151.7247772216797 90.69303131103516 150.1784210205078 C 90.79370880126953 147.79232788085938 90.83032989501953 145.37445068359375 90.83775329589844 143.6275634765625 C 91.05290985107422 141.67555236816406 91.13510131835938 139.28421020507812 91.32608032226562 136.60073852539062 C 91.37625122070312 133.37191772460938 92.20022583007812 130.69757080078125 93.26393127441406 128.73223876953125 C 94.19731140136719 126.36193084716797 95.26395416259766 124.27821350097656 95.82913208007812 122.28205871582031 C 97.514404296875 121.1333236694336 98.40805053710938 119.83665466308594 98.65493774414062 117.2573471069336 C 100.75770568847656 115.39192962646484 103.00022888183594 113.23882293701172 105.23914337158203 110.7411117553711 C 107.0457992553711 108.38447570800781 108.10201263427734 105.81671142578125 107.26676940917969 108.7664566040039" stroke-width="0.0" fill="rgb(84, 174, 2)" opacity="0.99998647" stroke="rgb(244, 27, 199)" stroke-opacity="0.71296227" stroke-linecap="round" stroke-linejoin="round"/>
    <path d="M 204.7991485595703 52.31948471069336 C 206.923828125 52.92827224731445 208.8319091796875 54.511619567871094 210.6416015625 56.21281433105469 C 212.67051696777344 57.64412307739258 214.46243286132812 58.815032958984375 215.936767578125 59.24055099487305 C 216.99082946777344 59.69053268432617 217.8315887451172 59.96968078613281 217.94137573242188 59.986083984375 C 217.88998413085938 60.03725814819336 217.99867248535156 59.95838165283203 218.1301727294922 59.92100524902344 C 218.18544006347656 59.819122314453125 218.59686279296875 59.6201286315918 219.53671264648438 59.414939880371094 C 220.81259155273438 59.4479866027832 222.37515258789062 59.6336784362793 224.1572265625 59.90254211425781 C 225.95919799804688 59.93759536743164 227.55087280273438 59.55888366699219 229.12110900878906 59.057525634765625 C 230.84259033203125 58.337615966796875 232.3420867919922 58.46179962158203 233.66635131835938 58.95508575439453 C 234.70669555664062 58.67937469482422 235.23524475097656 59.29671859741211 235.31951904296875 60.095787048339844 C 235.67481994628906 60.02659225463867 236.58370971679688 59.695587158203125 238.00250244140625 59.472137451171875 C 239.64630126953125 59.495113372802734 241.20489501953125 59.47947311401367 242.47796630859375 59.667457580566406 C 243.61891174316406 61.06734848022461 245.15419006347656 62.16498947143555 247.09906005859375 62.29629898071289 C 249.48858642578125 62.580596923828125 252.31394958496094 63.078125 255.0565948486328 63.30910110473633 C 257.22296142578125 63.98343276977539 258.6925354003906 64.96085357666016 259.5362548828125 65.95402526855469 C 259.6834411621094 67.30541229248047 259.17449951171875 68.91931915283203 258.16571044921875 70.3105697631836 C 256.8932800292969 71.93077087402344 255.50340270996094 73.46373748779297 254.3975372314453 74.5980224609375 C 253.67274475097656 76.03543853759766 253.1007537841797 77.78300476074219 252.37745666503906 79.69379425048828 C 251.3959503173828 81.99238586425781 250.8443603515625 84.6238021850586 250.43934631347656 87.06787872314453 C 249.81849670410156 89.23885345458984 248.24777221679688 90.89935302734375 246.5735626220703 92.5008773803711 C 246.00933837890625 94.57476806640625 245.98809814453125 97.02874755859375 246.51361083984375 99.58091735839844 C 246.8324432373047 101.73627471923828 245.7125701904297 104.11088562011719 245.5425262451172 106.37525177001953 C 244.6245574951172 108.12725067138672 244.68255615234375 110.13883972167969 244.3747100830078 111.27816009521484 C 242.6699676513672 111.69509887695312 241.5915985107422 111.64376831054688 241.58636474609375 112.52848815917969 C 242.8074951171875 113.51520538330078 243.91000366210938 114.49457550048828 243.48809814453125 115.9198989868164 C 241.4306640625 117.45217895507812 239.11802673339844 119.8267593383789 237.2195587158203 122.76002502441406 C 235.6456756591797 125.64075469970703 234.1483612060547 128.0911102294922 232.79661560058594 130.08644104003906 C 231.56124877929688 131.6122589111328 230.2352294921875 132.66409301757812 228.72210693359375 133.3091583251953 C 227.08497619628906 133.7047119140625 225.45404052734375 134.0078125 223.91290283203125 134.3026123046875 C 222.4582061767578 134.55923461914062 221.05911254882812 134.73382568359375 219.65029907226562 134.7627716064453 C 218.20321655273438 134.56834411621094 216.69485473632812 134.07302856445312 215.01856994628906 133.2122802734375 C 213.16700744628906 131.97584533691406 211.17568969726562 130.51287841796875 209.1449432373047 129.0442352294922 C 207.0237274169922 127.86422729492188 204.9381103515625 127.04441833496094 202.97023010253906 126.0379638671875 C 201.22140502929688 124.5268325805664 199.6606903076172 123.09790802001953 198.10696411132812 122.47406005859375 C 196.45191955566406 122.26224517822266 194.54237365722656 121.83084869384766 192.6896514892578 121.54449462890625 C 190.9767608642578 120.65601348876953 189.26991271972656 119.38561248779297 187.7895965576172 118.42142486572266 C 186.54776000976562 117.2232666015625 185.0594482421875 116.00755310058594 183.35952758789062 114.9700698852539 C 181.1259002685547 114.50432586669922 179.12596130371094 113.1428451538086 177.19981384277344 111.2773666381836 C 175.6275634765625 109.40515899658203 173.64883422851562 108.14794921875 171.5053253173828 107.13742065429688 C 169.738525390625 106.16802215576172 168.0128631591797 105.1697006225586 166.04843139648438 104.21760559082031 C 164.71519470214844 102.88905334472656 163.5552520751953 101.34248352050781 162.27947998046875 99.72640228271484 C 161.36923217773438 97.82952117919922 160.5450897216797 95.93586730957031 160.15834045410156 93.90837860107422 C 160.36541748046875 91.75303649902344 161.1433563232422 89.50218963623047 162.18101501464844 87.27429962158203 C 163.32118225097656 85.29438781738281 164.353271484375 83.6104965209961 165.1298828125 82.14452362060547 C 165.5493927001953 80.902587890625 165.58673095703125 79.91981506347656 165.20191955566406 79.11205291748047 C 164.41555786132812 78.38348388671875 163.35308837890625 77.64562225341797 162.1203155517578 76.82242584228516 C 160.8889923095703 75.8450698852539 159.85484313964844 74.61798095703125 159.2135467529297 73.12792205810547 C 159.17864990234375 71.42695617675781 159.7841033935547 69.78475189208984 160.9985809326172 68.41499328613281 C 162.75082397460938 67.51385498046875 164.89627075195312 66.97551727294922 167.1837158203125 66.74310302734375 C 169.3959503173828 66.85274505615234 171.3650360107422 67.19937133789062 172.9255828857422 67.6833267211914 C 173.93885803222656 68.19835662841797 174.32598876953125 68.6637191772461 174.0390167236328 68.94257354736328 C 173.264404296875 68.96984100341797 172.14718627929688 68.79745483398438 170.8316650390625 68.39523315429688 C 169.8111572265625 67.6161880493164 169.058837890625 66.39570617675781 168.7964324951172 64.86135864257812 C 169.3725128173828 63.381446838378906 170.50839233398438 61.99083709716797 172.51959228515625 60.738338470458984 C 175.0782470703125 59.712093353271484 177.90135192871094 59.12101364135742 180.76893615722656 58.99760818481445 C 183.57728576660156 58.82304000854492 186.0643310546875 58.81195831298828 187.9824981689453 59.32508087158203 C 189.625732421875 59.995235443115234 191.28900146484375 60.439727783203125 192.78286743164062 60.625980377197266 C 193.87347412109375 60.50544738769531 194.7281036376953 60.140193939208984 195.6134796142578 59.59566116333008 C 196.567626953125 58.91864013671875 197.6218719482422 58.155269622802734 198.87562561035156 57.357444763183594 C 200.28518676757812 56.5939826965332 201.82872009277344 55.856388092041016 203.40841674804688 55.135677337646484 C 205.01258850097656 54.482845306396484 206.6731719970703 53.763450622558594 204.7991485595703 52.31948471069336" stroke-width="0.0" fill="rgb(75, 245, 8)" opacity="0.9999598" stroke="rgb(75, 244, 39)" stroke-opacity="0.15017268" stroke-linecap="round" stroke-linejoin="round"/>
    <path d="M 296.89862060546875 79.72911071777344 C 297.9062194824219 80.30106353759766 298.9164123535156 80.86675262451172 299.93017578125 81.40118408203125 C 300.93914794921875 81.89756774902344 301.9521789550781 82.32196044921875 302.97125244140625 82.6417007446289 C 303.9900817871094 82.85369873046875 305.0092468261719 82.95891571044922 306.0299987792969 82.94539642333984 C 307.0441589355469 82.83744812011719 308.04803466796875 82.66715240478516 309.0429992675781 82.44876098632812 C 310.0227355957031 82.2222671508789 310.9803466796875 82.02412414550781 311.9206848144531 81.89752197265625 C 312.8443603515625 81.84746551513672 313.75091552734375 81.88868713378906 314.6451110839844 82.02448272705078 C 315.5386657714844 82.25140380859375 316.43597412109375 82.57493591308594 317.3399963378906 82.9437255859375 C 318.2626953125 83.35810089111328 319.2188415527344 83.80033111572266 320.1976013183594 84.24154663085938 C 321.18634033203125 84.71153259277344 322.1741638183594 85.18310546875 323.1564025878906 85.63053894042969 C 324.0998840332031 86.11200714111328 324.97430419921875 86.6587142944336 325.76739501953125 87.28404998779297 C 326.4737548828125 87.96878051757812 327.0479431152344 88.73308563232422 327.49908447265625 89.57362365722656 C 327.82861328125 90.46834564208984 328.0798645019531 91.43743896484375 328.2485046386719 92.36646270751953 C 328.4006042480469 93.21724700927734 328.62896728515625 94.04608154296875 328.8678894042969 94.85403442382812 C 329.1658020019531 95.4651870727539 329.6103515625 95.89716339111328 330.2627258300781 96.13935852050781 C 331.15069580078125 96.17935943603516 332.2442626953125 95.98916625976562 333.4338073730469 95.62075805664062 C 334.6003112792969 95.75367736816406 335.7682800292969 96.18589782714844 336.9604187011719 96.25113677978516 C 338.2138671875 96.21095275878906 339.4552001953125 95.5265884399414 340.5530090332031 95.40681457519531 C 341.1346740722656 96.01557159423828 341.4279479980469 96.9210205078125 341.8742980957031 97.80402374267578 C 342.48138427734375 98.38475799560547 343.0539855957031 98.94645690917969 343.48223876953125 99.74775695800781 C 343.6473388671875 100.86249542236328 343.5934753417969 102.17228698730469 343.44207763671875 103.47106170654297 C 343.24835205078125 104.61259460449219 342.9587707519531 105.65013885498047 342.6066589355469 106.67243194580078 C 342.24432373046875 107.77546691894531 341.94915771484375 108.92375946044922 341.744873046875 110.07675170898438 C 341.5957336425781 111.2124252319336 341.4940490722656 112.46598815917969 341.4222717285156 113.8275146484375 C 341.3634338378906 115.23451232910156 341.28533935546875 116.66185760498047 341.1197204589844 118.03519439697266 C 340.8450927734375 119.29486846923828 340.4335021972656 120.44100952148438 339.83489990234375 121.42395782470703 C 339.0478820800781 122.2125244140625 338.0653991699219 122.77040100097656 336.863525390625 123.10582733154297 C 335.5189208984375 123.2372817993164 334.14129638671875 123.24542999267578 332.78228759765625 123.2249526977539 C 331.5375061035156 123.23130798339844 330.4423828125 123.33527374267578 329.5418701171875 123.54337310791016 C 328.8157958984375 123.88462829589844 328.24371337890625 124.31108093261719 327.7801208496094 124.8299331665039 C 327.3586120605469 125.41251373291016 326.8897399902344 126.0182876586914 326.25457763671875 126.6209487915039 C 325.3619079589844 127.19609069824219 324.21234130859375 127.72482299804688 322.809326171875 128.20574951171875 C 321.1824035644531 128.64141845703125 319.37054443359375 129.03640747070312 317.4557800292969 129.3773651123047 C 315.5378112792969 129.64842224121094 313.7089538574219 129.8198699951172 312.0862731933594 129.84315490722656 C 310.76361083984375 129.70684814453125 309.7936096191406 129.40591430664062 309.2025146484375 128.95481872558594 C 308.959716796875 128.34022521972656 308.9849853515625 127.56580352783203 309.1800842285156 126.70293426513672 C 309.42596435546875 125.80397033691406 309.6393127441406 124.9661865234375 309.70794677734375 124.28843688964844 C 309.55255126953125 123.8354263305664 309.13623046875 123.66510009765625 308.46173095703125 123.7394790649414 C 307.567626953125 123.93751525878906 306.4847717285156 124.15482330322266 305.2310791015625 124.35223388671875 C 303.8875427246094 124.48388671875 302.58099365234375 124.48627471923828 301.4060974121094 124.42088317871094 C 300.4154052734375 124.35879516601562 299.490478515625 124.55824279785156 298.608642578125 125.21451568603516 C 297.7843017578125 126.43778228759766 296.8186950683594 128.27915954589844 295.7102966308594 130.6545867919922 C 294.5067138671875 133.1639404296875 292.81011962890625 135.1243438720703 290.5935974121094 135.88893127441406 C 288.09332275390625 134.64720153808594 285.35296630859375 132.11917114257812 282.89483642578125 128.0792694091797 C 280.0824279785156 124.00531768798828 278.1783142089844 120.0447998046875 278.5704345703125 115.78451538085938 C 278.05145263671875 111.69640350341797 276.5351867675781 108.31459045410156 276.025390625 105.26431274414062 C 277.6356506347656 103.36943817138672 280.0605773925781 101.52519226074219 282.23431396484375 100.30500793457031 C 284.14630126953125 99.92973327636719 285.9889831542969 100.79342651367188 287.6357727050781 102.3878402709961 C 289.2886047363281 104.85395812988281 290.45355224609375 107.08011627197266 291.3138427734375 108.84062194824219 C 292.42242431640625 110.68902587890625 293.52642822265625 112.2322998046875 294.715087890625 113.19474029541016 C 296.0617370605469 113.74850463867188 297.476318359375 114.0755386352539 298.8205261230469 114.18252563476562 C 299.95025634765625 114.21543884277344 300.7349853515625 114.20830535888672 301.0961608886719 114.16284942626953 C 300.9477233886719 114.15365600585938 300.27392578125 114.18670654296875 299.1019592285156 114.18289947509766 C 297.5845642089844 113.99065399169922 295.95025634765625 113.55001068115234 294.40313720703125 112.78382110595703 C 293.11767578125 111.62861633300781 292.2654113769531 110.10111236572266 291.965576171875 108.3209228515625 C 292.29083251953125 106.32319641113281 293.1492919921875 104.1572036743164 294.6010437011719 102.19184875488281 C 296.8329772949219 101.14869689941406 299.1961669921875 99.69505310058594 300.1595153808594 96.80015563964844 C 300.42340087890625 94.10861206054688 300.34527587890625 91.82008361816406 301.4807434082031 90.59371185302734 C 301.5006103515625 89.99606323242188 300.6277770996094 88.78700256347656 299.28668212890625 87.58415985107422 C 297.5986022949219 86.58355712890625 295.64678955078125 85.77830505371094 293.54144287109375 85.07850646972656 C 291.3820495605469 84.44583892822266 289.1986389160156 83.8506851196289 296.89862060546875 79.72911071777344" stroke-width="0.0" fill="rgb(80, 237, 3)" opacity="0.99996215" stroke="rgb(131, 59, 139)" stroke-opacity="0.59198374" stroke-linecap="round" stroke-linejoin="round"/>
    <path d="M 200.49473571777344 136.95021057128906 C 201.04830932617188 137.41648864746094 201.94281005859375 137.44334411621094 202.98092651367188 137.50352478027344 C 204.6210479736328 137.5395965576172 206.69638061523438 137.5891571044922 208.6353302001953 137.6370086669922 C 210.25149536132812 137.68780517578125 211.6870574951172 138.19407653808594 212.85877990722656 138.3726806640625 C 213.73992919921875 138.1802215576172 214.81094360351562 138.4850616455078 216.46759033203125 139.15113830566406 C 217.90016174316406 139.80104064941406 219.02493286132812 140.10079956054688 220.03982543945312 140.7694854736328 C 220.69741821289062 141.00732421875 221.4794158935547 141.3341522216797 222.3069610595703 141.69947814941406 C 223.19598388671875 141.65573120117188 223.65122985839844 141.28643798828125 224.22500610351562 141.13758850097656 C 224.77127075195312 141.4339599609375 225.51168823242188 141.8592071533203 226.49810791015625 142.2680206298828 C 227.1926727294922 142.85418701171875 228.29678344726562 143.01779174804688 229.86468505859375 143.25543212890625 C 231.31141662597656 143.50901794433594 232.42076110839844 143.43045043945312 233.44970703125 142.9832763671875 C 234.58340454101562 142.3946075439453 235.6782684326172 141.85984802246094 236.5601043701172 141.54002380371094 C 237.38397216796875 141.4839324951172 238.3616180419922 141.71156311035156 239.32919311523438 142.30076599121094 C 240.1698760986328 143.3085174560547 240.83900451660156 144.6611785888672 241.3365936279297 146.2344207763672 C 241.5999298095703 147.91336059570312 241.57421875 149.60696411132812 241.30862426757812 151.20147705078125 C 240.82557678222656 152.65357971191406 240.10877990722656 153.92593383789062 239.1460723876953 154.93533325195312 C 237.9363555908203 155.65863037109375 236.5554962158203 156.1313018798828 235.04119873046875 156.39669799804688 C 233.4324188232422 156.5548858642578 231.76454162597656 156.66380310058594 230.08676147460938 156.7391815185547 C 228.4560546875 156.8188018798828 226.9092254638672 156.91888427734375 225.43527221679688 157.04598999023438 C 224.03834533691406 157.18238830566406 222.70895385742188 157.27102661132812 221.4509735107422 157.27578735351562 C 220.27145385742188 157.20635986328125 219.13031005859375 157.0296173095703 218.00514221191406 156.7735137939453 C 216.8867950439453 156.461669921875 215.77926635742188 156.1338653564453 214.70111083984375 155.8373260498047 C 213.6704559326172 155.61898803710938 212.7077178955078 155.4991455078125 211.825927734375 155.51185607910156 C 211.024658203125 155.6508331298828 210.3313446044922 155.88990783691406 209.74200439453125 156.22607421875 C 209.25083923339844 156.64016723632812 208.8816375732422 157.0877227783203 208.56842041015625 157.58631896972656 C 208.29833984375 158.13064575195312 208.0761260986328 158.71554565429688 207.87628173828125 159.34768676757812 C 207.65943908691406 160.02561950683594 207.42445373535156 160.74859619140625 207.1074981689453 161.50279235839844 C 206.66070556640625 162.27720642089844 206.06298828125 163.07801818847656 205.28097534179688 163.8905029296875 C 204.3091583251953 164.69168090820312 203.13999938964844 165.44456481933594 201.79034423828125 166.14100646972656 C 200.2920379638672 166.7230682373047 198.75758361816406 167.18463134765625 197.27049255371094 167.54940795898438 C 195.8578338623047 167.75180053710938 194.5830535888672 167.73146057128906 193.53501892089844 167.49118041992188 C 192.72996520996094 167.083740234375 192.1876220703125 166.53253173828125 191.86170959472656 165.7676544189453 C 191.6632537841797 164.8277587890625 191.5128173828125 163.8017578125 191.40267944335938 162.78077697753906 C 191.2323760986328 161.64389038085938 190.97372436523438 160.37713623046875 190.61651611328125 159.0482635498047 C 190.36788940429688 157.67869567871094 190.34181213378906 156.33184814453125 190.48681640625 154.88987731933594 C 190.82098388671875 153.28793334960938 191.0565185546875 151.98648071289062 191.1407928466797 151.11825561523438 C 191.04359436035156 150.5623779296875 191.12774658203125 150.16134643554688 191.52980041503906 150.36000061035156 C 191.41537475585938 150.77761840820312 191.3734893798828 150.08700561523438 191.9333038330078 148.02484130859375 C 193.22666931152344 146.0428924560547 194.90618896484375 144.3431396484375 195.01890563964844 142.16204833984375 C 195.96856689453125 141.70904541015625 196.57765197753906 141.5017547607422 197.00685119628906 141.2577667236328 C 196.84519958496094 140.6551513671875 196.46189880371094 140.17987060546875 196.6644287109375 140.13101196289062 C 197.0306396484375 139.96458435058594 197.93125915527344 139.64114379882812 199.3369140625 139.6191864013672 C 200.76837158203125 138.95057678222656 202.15081787109375 137.668701171875 200.49473571777344 136.95021057128906" stroke-width="0.0" fill="rgb(70, 247, 3)" opacity="0.99999386" stroke="rgb(12, 26, 218)" stroke-opacity="0.7737826" stroke-linecap="round" stroke-linejoin="round"/>
    <path d="M 73.49995422363281 128.2884521484375 C 71.3421859741211 131.99644470214844 69.65119934082031 135.37612915039062 68.5503158569336 138.5358123779297 C 68.14067077636719 141.13363647460938 68.24533081054688 143.13580322265625 68.8262710571289 144.6374053955078 C 70.14132690429688 145.63638305664062 71.66871643066406 146.49856567382812 72.54680633544922 147.538330078125 C 73.0055923461914 148.7662353515625 73.573974609375 150.0827178955078 74.31144714355469 151.42852783203125 C 75.25580596923828 152.48355102539062 76.15054321289062 153.54278564453125 77.10445404052734 154.50357055664062 C 77.4454345703125 155.5425262451172 77.39289855957031 156.52117919921875 76.95960998535156 157.5857696533203 C 76.63484191894531 158.58856201171875 76.62940216064453 159.68211364746094 76.28744506835938 160.7094268798828 C 75.57379150390625 161.64610290527344 74.62355041503906 162.8562774658203 73.01522827148438 164.27731323242188 C 70.7452621459961 165.6845245361328 67.97584533691406 167.51483154296875 64.71867370605469 169.86244201660156 C 61.15155029296875 172.57717895507812 57.27643966674805 175.0447540283203 52.831871032714844 176.59036254882812 C 47.91465759277344 176.44549560546875 43.30851364135742 175.3753662109375 40.250877380371094 174.0014190673828 C 39.825679779052734 172.23751831054688 41.8270378112793 170.67774963378906 45.26318359375 169.04087829589844 C 49.00539779663086 166.7000274658203 52.5318489074707 163.94932556152344 55.58126449584961 161.30126953125 C 58.09490203857422 159.02902221679688 60.099510192871094 157.27830505371094 61.50151062011719 156.08224487304688 C 62.198299407958984 155.42910766601562 62.22989273071289 155.39549255371094 61.71297836303711 156.01039123535156 C 60.60588836669922 157.16506958007812 58.81782913208008 158.8089141845703 56.51738357543945 160.812255859375 C 53.898765563964844 162.90066528320312 51.08274841308594 165.00079345703125 48.30917739868164 167.04171752929688 C 45.60894012451172 168.86465454101562 43.032859802246094 170.42581176757812 40.63975143432617 171.31158447265625 C 38.347660064697266 170.80458068847656 36.122962951660156 169.94581604003906 34.69622802734375 170.3130645751953 C 33.99002456665039 172.0818328857422 35.38957977294922 174.132568359375 37.652244567871094 175.43331909179688 C 38.44112777709961 177.0465087890625 37.52590560913086 178.72979736328125 35.814090728759766 180.8114776611328 C 34.46775817871094 183.8896484375 33.64597702026367 187.0200653076172 33.32183074951172 190.10719299316406 C 33.775630950927734 193.2407684326172 34.604190826416016 196.42709350585938 35.50254440307617 199.6588592529297 C 36.21460723876953 203.28854370117188 36.79520034790039 207.4998321533203 37.20474624633789 211.852783203125 C 37.61181640625 215.920654296875 37.51692581176758 219.5017852783203 37.37380599975586 222.5205078125 C 37.16461944580078 224.83055114746094 36.438575744628906 226.4031219482422 35.46710205078125 227.15809631347656 C 34.37873077392578 226.60665893554688 32.947532653808594 225.1536102294922 31.525562286376953 223.7567901611328 C 29.442873001098633 223.3612060546875 27.78755760192871 223.57264709472656 26.442459106445312 224.73855590820312 C 25.908191680908203 226.6805419921875 26.121179580688477 228.8617401123047 27.168928146362305 231.25437927246094 C 28.633487701416016 234.2708740234375 30.138782501220703 237.61854553222656 31.280105590820312 240.87806701660156 C 31.780841827392578 244.13844299316406 31.671255111694336 247.52352905273438 31.642288208007812 250.73040771484375 C 32.595638275146484 253.30123901367188 34.768272399902344 255.0666961669922 37.59893035888672 256.2892761230469 C 40.089393615722656 257.79254150390625 42.03556442260742 259.9593200683594 43.51197814941406 262.6593933105469 C 43.81325912475586 265.975830078125 43.62131118774414 269.91607666015625 42.73612976074219 273.76129150390625 C 40.7101936340332 276.22021484375 37.976905822753906 277.8635559082031 34.458778381347656 279.2010498046875 C 30.081989288330078 279.6451721191406 25.188594818115234 279.6053466796875 20.24747657775879 279.5495300292969 C 15.481950759887695 279.45574951171875 11.018623352050781 279.40252685546875 7.006928443908691 279.4563903808594 C 3.5171892642974854 279.1429443359375 0.6143249869346619 278.7229919433594 -1.5454949140548706 277.7628173828125 C -2.994680643081665 276.1949462890625 -3.8508694171905518 274.07037353515625 -4.229172229766846 271.4402770996094 C -4.288879871368408 268.37908935546875 -4.204531192779541 264.9512939453125 -4.124666690826416 261.2757568359375 C -4.1368865966796875 257.4579162597656 -4.321583271026611 253.58619689941406 -4.609737873077393 249.76426696777344 C -4.782280921936035 246.05111694335938 -4.673973560333252 242.48602294921875 -4.21488618850708 239.14138793945312 C -3.414975166320801 236.1232147216797 -2.331782579421997 233.62615966796875 -1.064426302909851 231.7559814453125 C 0.2418455183506012 230.4748077392578 1.4206451177597046 229.79827880859375 2.3323779106140137 229.56752014160156 C 2.767399787902832 229.51837158203125 2.7773048877716064 229.58294677734375 2.3926873207092285 229.74951171875 C 1.6661485433578491 229.91514587402344 0.7028937935829163 229.8145294189453 -0.3802034258842468 229.10989379882812 C -1.4749597311019897 227.4200439453125 -2.4201767444610596 224.97836303710938 -3.1715402603149414 222.06761169433594 C -3.7552711963653564 218.88389587402344 -4.185546875 215.5359344482422 -4.46143102645874 212.15469360351562 C -4.58117151260376 208.83387756347656 -4.6073079109191895 205.49429321289062 -4.533507347106934 202.09823608398438 C -4.466251373291016 198.7790985107422 -4.433487415313721 195.50808715820312 -4.436965465545654 192.151611328125 C -4.555902004241943 188.66917419433594 -4.750700950622559 185.00926208496094 -4.95412540435791 181.20330810546875 C -4.962061882019043 177.48326110839844 -4.697192192077637 174.11050415039062 -4.058384895324707 171.22238159179688 C -3.1042349338531494 168.91775512695312 -1.9853147268295288 167.18382263183594 -0.2419491410255432 166.18247985839844 C 2.6593899726867676 166.5869140625 6.046164035797119 166.47007751464844 9.437265396118164 166.0530548095703 C 12.900679588317871 165.6038055419922 16.543739318847656 165.39100646972656 20.269128799438477 164.81494140625 C 23.83088493347168 164.2650146484375 26.72795867919922 163.45596313476562 29.037954330444336 161.98683166503906 C 31.10710334777832 160.14231872558594 33.19223403930664 158.03753662109375 35.241172790527344 156.03684997558594 C 37.6754264831543 154.43948364257812 40.498924255371094 153.18136596679688 43.61159896850586 152.31529235839844 C 47.013954162597656 151.5914306640625 50.417640686035156 150.62738037109375 53.728084564208984 149.24537658691406 C 56.584205627441406 147.24166870117188 58.96672439575195 144.943115234375 73.49995422363281 128.2884521484375" stroke-width="0.0" fill="rgb(154, 220, 125)" opacity="1.0" stroke="rgb(98, 215, 50)" stroke-opacity="0.57909936" stroke-linecap="round" stroke-linejoin="round"/>
    <path d="M 15.907454490661621 65.27896118164062 C 16.109638214111328 65.70443725585938 16.320287704467773 66.13874816894531 16.59724998474121 66.59945678710938 C 16.997535705566406 67.09617614746094 17.522090911865234 67.62368774414062 18.200931549072266 68.21986389160156 C 19.037235260009766 68.89130401611328 19.96675682067871 69.6257095336914 20.95229721069336 70.45970916748047 C 21.931631088256836 71.36674499511719 22.857107162475586 72.31253814697266 23.612638473510742 73.3157730102539 C 24.18990135192871 74.37840270996094 24.509971618652344 75.49849700927734 24.602575302124023 76.67826843261719 C 24.461572647094727 77.9293441772461 24.073862075805664 79.25244140625 23.47559928894043 80.62860107421875 C 22.652334213256836 82.00984191894531 21.61013412475586 83.36373138427734 20.34918212890625 84.64965057373047 C 18.9069766998291 85.78174591064453 17.304594039916992 86.730224609375 15.619889259338379 87.43152618408203 C 13.922761917114258 87.87657928466797 12.264532089233398 88.08190155029297 10.69162368774414 88.04301452636719 C 9.292745590209961 87.79622650146484 8.083622932434082 87.39942932128906 7.0421977043151855 86.88977813720703 C 6.144902229309082 86.30696868896484 5.332075119018555 85.66392517089844 4.572072982788086 84.9475326538086 C 3.8065507411956787 84.13978576660156 3.0079219341278076 83.21610260009766 2.205974817276001 82.1430435180664 C 1.420356273651123 80.89442443847656 0.7576257586479187 79.4450912475586 0.3193386197090149 77.79187774658203 C 0.16470769047737122 75.99629974365234 0.3023597002029419 74.11749267578125 0.7487090229988098 72.21784210205078 C 1.4779672622680664 70.37294006347656 2.4497382640838623 68.6626968383789 3.633776903152466 67.15042114257812 C 4.9891839027404785 65.89556121826172 6.461274147033691 64.94059753417969 7.9954609870910645 64.26480102539062 C 9.568852424621582 63.845550537109375 11.178556442260742 63.64948272705078 12.802369117736816 63.61826705932617 C 14.418075561523438 63.669193267822266 16.034948348999023 63.764251708984375 15.907454490661621 65.27896118164062" stroke-width="0.0" fill="rgb(20, 16, 16)" opacity="0.99999285" stroke="rgb(176, 189, 83)" stroke-opacity="0.29886413" stroke-linecap="round" stroke-linejoin="round"/>
  </g>
</svg>
