<?xml version="1.0" ?>
<svg xmlns="http://www.w3.org/2000/svg" version="1.1" width="353" height="294">
  <defs/>
  <g>
    <path d="M -14.480823516845703 1.4203485250473022 C -10.922258377075195 0.05861100181937218 -6.936504364013672 -1.3116711378097534 -1.7266418933868408 -2.716470956802368 C 5.491884231567383 -3.9217004776000977 15.212190628051758 -4.867549896240234 27.843507766723633 -5.415438652038574 C 43.39756774902344 -5.283190727233887 60.452545166015625 -4.005966663360596 77.85652160644531 -1.402665376663208 C 93.89176940917969 0.661787211894989 101.32930755615234 7.091113567352295 96.83432006835938 18.532894134521484 C 79.48188018798828 17.99872589111328 67.01117706298828 32.263980865478516 45.44121170043945 26.20940399169922 C 32.97642517089844 33.55253982543945 29.423540115356445 41.811309814453125 34.396881103515625 48.95779800415039 C 39.43305587768555 51.94597625732422 51.0616455078125 46.76784896850586 60.81110763549805 36.62419509887695 C 75.15736389160156 38.48688507080078 100.43500518798828 38.315269470214844 112.76708221435547 33.05514144897461 C 126.59320831298828 28.11146354675293 139.97836303710938 32.277679443359375 145.51394653320312 31.297199249267578 C 147.01559448242188 7.6038994789123535 142.78907775878906 1.0608234405517578 150.34996032714844 -0.8051442503929138 C 160.8551025390625 1.365806221961975 166.62725830078125 13.239009857177734 177.3365936279297 17.54793930053711 C 186.82186889648438 2.6769373416900635 202.05506896972656 -6.624639511108398 224.48858642578125 -8.38086986541748 C 245.38523864746094 -4.892444133758545 257.3598937988281 1.0792948007583618 262.9814758300781 12.586119651794434 C 263.7328186035156 24.808563232421875 260.1915283203125 30.264253616333008 241.13406372070312 28.115034103393555 C 242.2165985107422 28.446243286132812 244.6132049560547 25.911685943603516 254.138916015625 28.36135482788086 C 263.7474670410156 26.76749610900879 272.1262512207031 33.58382034301758 282.4682312011719 50.14827346801758 C 288.2892150878906 61.48553466796875 279.8780212402344 65.26963806152344 267.1982727050781 67.71443176269531 C 253.26864624023438 81.225341796875 248.11685180664062 98.894287109375 250.390380859375 126.46759796142578 C 257.579833984375 140.80189514160156 271.2754821777344 148.0400848388672 283.9223937988281 147.43447875976562 C 285.9289855957031 129.3592529296875 282.58270263671875 106.50126647949219 279.8225402832031 84.19376373291016 C 290.0641784667969 68.18538665771484 301.2095031738281 56.118873596191406 309.40142822265625 48.894630432128906 C 312.1017150878906 46.702274322509766 308.4848327636719 45.51926803588867 297.05560302734375 50.540199279785156 C 289.2524719238281 44.18934631347656 281.0168762207031 36.94738006591797 279.78564453125 23.874549865722656 C 286.48468017578125 9.649574279785156 298.30267333984375 0.4748588502407074 313.4751281738281 -5.600612640380859 C 332.0842590332031 -4.330503463745117 346.94696044921875 -2.8156561851501465 360.3600769042969 3.463519334793091 C 356.6158447265625 29.24441909790039 358.7671813964844 47.135719299316406 358.6553649902344 67.6950912475586 C 358.10223388671875 89.22024536132812 358.1849365234375 110.8275146484375 358.3385009765625 132.4138946533203 C 360.1488037109375 153.54124450683594 361.7757568359375 174.18101501464844 363.6349792480469 194.58941650390625 C 365.4329528808594 214.79966735839844 365.9020690917969 233.19387817382812 364.7041015625 250.7397003173828 C 361.101806640625 267.2176818847656 356.11541748046875 281.7942810058594 349.9439392089844 295.0721435546875 C 331.44732666015625 302.796142578125 314.5036315917969 309.7743835449219 294.7880554199219 314.6365051269531 C 272.9779968261719 317.4404602050781 249.3666229248047 318.3810729980469 224.7115020751953 318.5113830566406 C 200.986572265625 316.858154296875 180.19984436035156 312.8384094238281 154.1157989501953 312.5343322753906 C 141.94366455078125 300.92510986328125 135.4725799560547 285.9495544433594 125.9571762084961 271.8258361816406 C 124.5433578491211 259.8353271484375 116.60794067382812 258.8171691894531 108.7274169921875 264.1897277832031 C 98.71656036376953 269.68621826171875 95.32785034179688 280.48223876953125 99.96620178222656 287.9396057128906 C 107.19718170166016 291.5108947753906 97.12814331054688 298.683837890625 85.6150894165039 301.41143798828125 C 70.50157928466797 302.69976806640625 52.749107360839844 302.6714782714844 34.20333480834961 302.7192687988281 C 17.965662002563477 299.5570373535156 6.28154182434082 293.5760192871094 1.468981146812439 280.7478332519531 C -2.9503860473632812 265.50244140625 7.053619384765625 249.6490936279297 15.434707641601562 237.7711181640625 C 21.773305892944336 223.99314880371094 27.946687698364258 218.82691955566406 33.474327087402344 220.4221649169922 C 36.30120849609375 229.12420654296875 41.094886779785156 231.87750244140625 42.13682556152344 231.76434326171875 C 37.53566360473633 232.08335876464844 35.14063262939453 223.94691467285156 28.474525451660156 211.473388671875 C 33.22239685058594 198.7025146484375 33.302001953125 188.86387634277344 38.257179260253906 178.69033813476562 C 45.63343811035156 170.83187866210938 39.45602798461914 162.92161560058594 30.87433624267578 175.34568786621094 C 15.450520515441895 179.33172607421875 5.280897617340088 175.8415985107422 -1.5343791246414185 169.07745361328125 C -2.181339740753174 157.13401794433594 2.47965669631958 144.33877563476562 12.008903503417969 134.56552124023438 C 37.16299819946289 129.0620574951172 48.55117416381836 118.2067642211914 64.3305435180664 116.11227416992188 C 77.97249603271484 115.32569122314453 86.53009033203125 118.39236450195312 91.99702453613281 127.01353454589844 C 97.6756362915039 131.6601104736328 104.46052551269531 134.83570861816406 112.02871704101562 137.8726348876953 C 120.51671600341797 141.512451171875 130.22474670410156 146.24720764160156 141.0955352783203 152.0477294921875 C 151.87403869628906 160.27438354492188 163.00624084472656 163.96058654785156 174.28125 165.87274169921875 C 183.37588500976562 160.50685119628906 188.67361450195312 152.15606689453125 192.91184997558594 139.41763305664062 C 190.593017578125 127.19170379638672 183.72164916992188 116.07379150390625 172.6256561279297 105.30811309814453 C 156.05201721191406 97.26549530029297 141.0449981689453 94.13558197021484 130.73536682128906 101.53496551513672 C 105.85663604736328 104.22648620605469 88.08385467529297 107.78278350830078 68.5496826171875 106.12960052490234 C 52.63981628417969 94.228759765625 35.18709945678711 93.82794189453125 30.046733856201172 106.56812286376953 C 17.17707633972168 109.41270446777344 6.964259624481201 106.81954956054688 -5.003692626953125 106.27770233154297 C -4.475244998931885 94.74569702148438 -7.587703704833984 82.5321044921875 -9.848824501037598 66.86182403564453 C -10.895730018615723 49.90292739868164 -12.246782302856445 33.69806671142578 -14.480823516845703 1.4203485250473022" stroke-width="0.0" fill="rgb(125, 184, 103)" opacity="0.99999106" stroke="rgb(23, 140, 144)" stroke-opacity="0.867762" stroke-linecap="round" stroke-linejoin="round"/>
    <path d="M 188.1356964111328 50.158050537109375 C 185.84213256835938 47.30780792236328 183.83692932128906 47.533592224121094 183.356689453125 48.923770904541016 C 182.3597869873047 44.79583740234375 182.29515075683594 45.33131790161133 182.33218383789062 45.50923156738281 C 183.05548095703125 46.53901290893555 184.64617919921875 47.0986328125 185.1194305419922 49.27174377441406 C 184.71499633789062 51.74330520629883 195.2063751220703 48.36320877075195 199.2582550048828 50.40933609008789 C 207.92076110839844 53.689453125 212.16360473632812 58.88974380493164 218.47579956054688 63.206031799316406 C 226.45729064941406 67.2989730834961 232.25196838378906 73.05644226074219 236.2348175048828 78.78883361816406 C 239.475830078125 83.21562957763672 241.64186096191406 86.12703704833984 243.66421508789062 88.0213623046875 C 246.2449951171875 88.20158386230469 250.6436767578125 85.8203353881836 251.578857421875 80.68427276611328 C 255.97415161132812 76.34415435791016 260.22979736328125 70.22945404052734 264.3994140625 69.38496398925781 C 260.56048583984375 76.24874877929688 252.677490234375 83.0788803100586 251.67930603027344 96.26598358154297 C 249.9119873046875 115.79524230957031 248.900634765625 124.51970672607422 258.1480407714844 134.10581970214844 C 271.6781311035156 142.70155334472656 273.7514343261719 148.9646759033203 285.4031982421875 144.43899536132812 C 283.9396667480469 135.0098876953125 276.9035339355469 124.94747161865234 273.2845458984375 111.41584777832031 C 272.4651794433594 98.0599136352539 277.5553894042969 88.61689758300781 280.0882568359375 78.97451782226562 C 282.879638671875 76.13712310791016 281.2071533203125 77.5034408569336 281.4117736816406 89.47293853759766 C 286.6903991699219 87.342529296875 294.2192077636719 86.8658447265625 303.0286560058594 87.42958068847656 C 312.95758056640625 90.81356811523438 323.539306640625 96.1134262084961 335.66351318359375 97.8735122680664 C 342.5962829589844 106.64672088623047 348.2600402832031 113.28553771972656 352.1897277832031 118.34329223632812 C 341.2818298339844 120.11161041259766 338.7505798339844 123.75933074951172 340.6818542480469 128.0544891357422 C 351.6332092285156 131.16604614257812 356.5910339355469 139.7193145751953 354.47149658203125 153.37818908691406 C 346.0647888183594 155.57650756835938 346.4400634765625 147.1502227783203 341.05706787109375 140.9939422607422 C 334.3832702636719 137.83724975585938 330.0452880859375 147.848388671875 332.33734130859375 157.52191162109375 C 324.4696960449219 154.46185302734375 322.52447509765625 146.3855438232422 304.9792785644531 145.1717529296875 C 303.1405334472656 149.82870483398438 298.3664245605469 158.4761962890625 291.028564453125 162.24635314941406 C 301.8478088378906 160.8719940185547 310.38714599609375 156.53468322753906 320.8017272949219 158.53041076660156 C 329.259765625 167.3551483154297 336.5979309082031 175.7025909423828 348.1645812988281 180.61679077148438 C 349.14453125 193.500244140625 354.5223693847656 197.75067138671875 345.4853210449219 203.48944091796875 C 351.3318176269531 213.6375732421875 357.733642578125 224.72706604003906 364.5366516113281 236.46963500976562 C 360.75408935546875 251.4187469482422 360.34906005859375 265.6727600097656 359.53790283203125 278.4660949707031 C 358.0535888671875 289.63201904296875 351.8081359863281 293.59124755859375 342.77960205078125 288.9770202636719 C 336.1658935546875 281.3805847167969 323.81854248046875 276.27056884765625 318.13250732421875 281.6911315917969 C 309.977783203125 288.9044494628906 314.167724609375 287.5347595214844 326.29327392578125 287.3132629394531 C 334.9552917480469 287.2236633300781 334.3564758300781 289.7816162109375 333.027099609375 299.48095703125 C 320.298583984375 298.75543212890625 303.41693115234375 299.49395751953125 287.29681396484375 302.2909851074219 C 271.2893981933594 300.3872985839844 258.75982666015625 298.7231140136719 246.11131286621094 291.4364013671875 C 238.6538848876953 282.69903564453125 230.5635986328125 274.3069152832031 221.61073303222656 275.61932373046875 C 209.776611328125 272.9324645996094 197.63278198242188 272.0801696777344 191.20651245117188 277.3446960449219 C 188.24847412109375 285.52862548828125 175.59918212890625 289.8851623535156 167.93186950683594 295.59136962890625 C 157.9113006591797 293.05035400390625 148.16522216796875 292.34912109375 147.2355194091797 283.7785339355469 C 150.53587341308594 275.5867919921875 152.8401336669922 263.1822204589844 156.3983917236328 258.4886169433594 C 151.71966552734375 257.2413635253906 143.867431640625 262.2780456542969 131.7276153564453 261.0008850097656 C 118.71206665039062 258.591064453125 110.14030456542969 253.21388244628906 109.39976501464844 245.38330078125 C 105.07908630371094 232.77784729003906 109.84901428222656 225.81195068359375 107.24727630615234 221.8603515625 C 100.42574310302734 217.51763916015625 102.32398986816406 207.0892791748047 95.55982971191406 203.19122314453125 C 92.21739959716797 198.01487731933594 90.71800994873047 190.79193115234375 92.35606384277344 184.10208129882812 C 98.4549560546875 177.5714111328125 92.31230926513672 175.1939697265625 90.453369140625 167.24551391601562 C 87.89058685302734 160.45724487304688 86.9672622680664 148.7307586669922 86.46974182128906 145.18797302246094 C 87.3504409790039 137.99156188964844 86.06074523925781 131.8622283935547 86.94701385498047 128.55532836914062 C 85.24080657958984 128.22750854492188 85.11347961425781 126.37254333496094 85.10479736328125 122.61090850830078 C 83.44969177246094 121.06790161132812 85.91751861572266 115.71880340576172 91.49436950683594 113.6250228881836 C 93.8045654296875 107.67150115966797 100.68941497802734 101.88882446289062 105.13126373291016 101.29149627685547 C 117.54045867919922 103.45608520507812 129.2207794189453 105.16996765136719 132.05429077148438 118.74520874023438 C 143.9774932861328 128.50621032714844 153.13348388671875 142.09451293945312 163.16860961914062 153.6312255859375 C 168.6748046875 164.91854858398438 173.67849731445312 170.16636657714844 178.03623962402344 164.24183654785156 C 172.76605224609375 153.98829650878906 175.52218627929688 141.0494842529297 182.8788299560547 133.12437438964844 C 192.5760040283203 130.8262481689453 190.7469482421875 124.99144744873047 180.13978576660156 120.47457885742188 C 168.46530151367188 112.67272186279297 155.35629272460938 107.08728790283203 147.17623901367188 94.5030288696289 C 139.36944580078125 90.2136459350586 139.58203125 78.35601043701172 147.88523864746094 71.60595703125 C 153.40304565429688 63.36854553222656 164.78541564941406 55.04887390136719 176.31419372558594 55.18125534057617 C 181.78659057617188 50.405845642089844 194.069580078125 48.05105209350586 188.1356964111328 50.158050537109375" stroke-width="0.0" fill="rgb(44, 55, 33)" opacity="0.9999938" stroke="rgb(146, 122, 82)" stroke-opacity="0.24399643" stroke-linecap="round" stroke-linejoin="round"/>
    <path d="M 105.79924774169922 109.99525451660156 C 106.18733978271484 106.75230407714844 114.36837768554688 107.36236572265625 111.09738159179688 108.72154998779297 C 108.04034423828125 107.58731079101562 118.44942474365234 108.45440673828125 120.50794219970703 112.11483001708984 C 115.68692016601562 110.14514923095703 115.86156463623047 111.65652465820312 120.79142761230469 110.48318481445312 C 116.26210021972656 112.06681060791016 123.02007293701172 111.82208251953125 123.24403381347656 116.71385955810547 C 124.6742172241211 108.12689208984375 122.6490249633789 118.52449798583984 127.30047607421875 121.35213470458984 C 127.73464965820312 118.14979553222656 126.15292358398438 125.22675323486328 125.02401733398438 117.6545639038086 C 126.41437530517578 122.28934478759766 129.12355041503906 130.4815673828125 128.93106079101562 127.18079376220703 C 132.53912353515625 127.17682647705078 128.78526306152344 134.33807373046875 129.5059814453125 124.36335754394531 C 132.40780639648438 130.72976684570312 131.76364135742188 135.28189086914062 136.5714569091797 133.12814331054688 C 137.35882568359375 131.1274871826172 133.2210693359375 134.4273223876953 139.01673889160156 137.40919494628906 C 144.9524383544922 137.22024536132812 143.27484130859375 139.70037841796875 147.5424346923828 143.34873962402344 C 146.1770477294922 137.93191528320312 144.68153381347656 145.20921325683594 150.1652069091797 143.3214111328125 C 147.40675354003906 146.43972778320312 153.94003295898438 146.92117309570312 154.05035400390625 152.44268798828125 C 152.87326049804688 148.8137969970703 155.41943359375 152.9224090576172 157.0072479248047 153.92332458496094 C 162.71572875976562 160.77886962890625 161.5393524169922 164.01995849609375 163.1971435546875 161.0347900390625 C 159.88584899902344 156.7850341796875 164.4134063720703 163.6039581298828 165.18138122558594 169.76058959960938 C 162.95767211914062 164.07887268066406 165.691650390625 169.15379333496094 170.76351928710938 174.234375 C 166.68423461914062 168.3895263671875 168.07310485839844 176.91871643066406 172.1744842529297 177.2791748046875 C 169.95037841796875 177.6230010986328 171.7987518310547 180.83721923828125 172.75457763671875 179.1385955810547 C 173.91375732421875 185.60357666015625 172.7947540283203 194.08155822753906 174.7323455810547 187.13055419921875 C 173.32650756835938 195.69381713867188 178.26742553710938 200.7272491455078 175.63131713867188 191.830810546875 C 174.92898559570312 198.35011291503906 176.662353515625 201.3341827392578 179.58721923828125 200.30955505371094 C 178.1338348388672 199.49282836914062 177.3928985595703 207.22015380859375 181.4434814453125 207.6827392578125 C 181.97166442871094 210.4149169921875 183.01177978515625 207.3349151611328 181.98287963867188 215.29283142089844 C 183.5787811279297 208.7631378173828 183.6795654296875 215.34829711914062 183.84925842285156 224.3845672607422 C 184.83714294433594 217.65989685058594 186.79527282714844 224.62696838378906 186.5415496826172 228.4657745361328 C 185.8057098388672 229.8123779296875 184.09144592285156 229.90792846679688 182.1186065673828 230.46084594726562 C 180.7400665283203 232.4518280029297 178.81466674804688 234.9825897216797 174.56991577148438 236.98953247070312 C 176.8589324951172 237.21705627441406 168.1182861328125 239.02784729003906 168.69158935546875 239.89573669433594 C 167.94387817382812 241.7684783935547 160.88356018066406 241.24066162109375 161.3943634033203 243.69863891601562 C 162.69281005859375 242.78048706054688 156.48292541503906 243.5394744873047 165.8977508544922 241.99533081054688 C 156.99893188476562 245.21426391601562 150.84718322753906 246.8822021484375 144.60597229003906 244.8291473388672 C 149.81564331054688 246.47232055664062 146.185546875 246.25604248046875 151.38455200195312 245.9530487060547 C 145.81222534179688 247.81283569335938 138.3986053466797 245.1902618408203 145.25384521484375 246.03921508789062 C 136.05445861816406 247.69033813476562 136.3213348388672 244.2902069091797 132.91732788085938 245.2260284423828 C 129.1288604736328 246.1285400390625 130.13201904296875 241.8474884033203 125.43150329589844 243.77117919921875 C 124.95591735839844 241.2028045654297 120.0181884765625 239.67156982421875 119.66888427734375 236.66558837890625 C 120.12474060058594 235.48751831054688 116.78460693359375 233.1366729736328 115.28704833984375 231.1660919189453 C 114.97164154052734 231.16734313964844 118.19042205810547 225.1825714111328 115.1557388305664 225.1216278076172 C 116.71886444091797 227.7490234375 118.03218841552734 222.12652587890625 117.37059020996094 221.6597442626953 C 119.40210723876953 221.9840850830078 115.0667495727539 221.0806427001953 112.50481414794922 221.71920776367188 C 112.58343505859375 219.9550018310547 106.95752716064453 216.21327209472656 107.22441101074219 213.3236541748047 C 106.945068359375 212.68190002441406 103.29225158691406 208.02127075195312 102.54998779296875 202.1457061767578 C 102.29202270507812 204.6102294921875 102.79559326171875 197.92356872558594 102.25567626953125 199.93756103515625 C 100.85218811035156 197.24691772460938 98.60033416748047 194.33001708984375 100.12481689453125 196.6524658203125 C 99.64986419677734 193.6818389892578 95.76985168457031 189.9125213623047 96.5238037109375 190.03916931152344 C 97.06575012207031 188.61080932617188 93.1095199584961 184.88323974609375 92.27232360839844 179.349365234375 C 94.37459564208984 183.431884765625 93.95703887939453 179.4895782470703 91.99500274658203 176.09002685546875 C 94.06307220458984 176.4034881591797 96.60794830322266 171.9021453857422 95.63002014160156 169.6860809326172 C 94.36659240722656 174.0249481201172 95.4099349975586 168.30401611328125 93.628173828125 168.6695098876953 C 91.50962829589844 166.02369689941406 91.8319091796875 161.22735595703125 90.54132080078125 163.4176025390625 C 90.7862319946289 157.80026245117188 89.39285278320312 151.41482543945312 89.83108520507812 151.24317932128906 C 91.59920501708984 155.71791076660156 89.93071746826172 150.85459899902344 89.65715789794922 149.69859313964844 C 90.97805786132812 148.28318786621094 89.95767211914062 139.86732482910156 90.10591888427734 143.73049926757812 C 91.60891723632812 139.87579345703125 90.2321548461914 138.02076721191406 91.58696746826172 136.4729766845703 C 91.58979034423828 133.99510192871094 92.6419906616211 131.84410095214844 91.25455474853516 133.89768981933594 C 93.12064361572266 126.55205535888672 95.91792297363281 123.15020751953125 95.83977508544922 122.31407928466797 C 97.16566467285156 121.39104461669922 98.3709945678711 119.93778228759766 98.41513061523438 117.97242736816406 C 98.99923706054688 116.73674774169922 101.63018798828125 115.78311157226562 103.62281036376953 111.66726684570312 C 106.72520446777344 112.0894546508789 105.53890228271484 107.34700775146484 105.79924774169922 109.99525451660156" stroke-width="0.0" fill="rgb(84, 174, 2)" opacity="0.99998564" stroke="rgb(245, 30, 57)" stroke-opacity="0.21184567" stroke-linecap="round" stroke-linejoin="round"/>
    <path d="M 203.1875762939453 54.250545501708984 C 209.90625 52.624412536621094 209.2961883544922 55.447689056396484 212.68714904785156 56.890464782714844 C 212.47181701660156 58.0873908996582 217.458251953125 59.548500061035156 217.6337890625 60.256858825683594 C 217.80116271972656 58.19886016845703 216.9752960205078 57.70018005371094 217.16806030273438 59.838958740234375 C 216.43701171875 57.654598236083984 220.6298828125 57.82139205932617 216.01194763183594 60.331790924072266 C 221.0022735595703 57.368587493896484 226.46615600585938 61.43892288208008 219.27041625976562 57.491390228271484 C 225.29891967773438 60.319671630859375 222.9207305908203 60.04684066772461 215.1528778076172 59.610958099365234 C 220.1963653564453 57.92237091064453 221.67469787597656 62.840084075927734 221.4954833984375 59.387882232666016 C 229.00486755371094 59.85251998901367 234.16761779785156 59.881500244140625 225.72235107421875 57.688682556152344 C 229.19862365722656 59.3661003112793 233.22055053710938 58.294124603271484 241.9169464111328 58.175228118896484 C 231.53762817382812 59.25278854370117 232.69361877441406 60.035560607910156 241.27223205566406 59.09969711303711 C 234.4447021484375 60.34778594970703 235.9868621826172 60.197509765625 246.11412048339844 60.316192626953125 C 239.87872314453125 62.00562286376953 247.39349365234375 60.211181640625 252.09112548828125 63.33615493774414 C 244.35073852539062 62.092681884765625 251.0398712158203 64.05307006835938 259.705322265625 63.72773361206055 C 251.1922607421875 65.57716369628906 254.971923828125 63.47771072387695 256.29925537109375 63.7254753112793 C 258.74462890625 70.1950912475586 256.55914306640625 73.02413177490234 258.23797607421875 70.74681854248047 C 259.9853515625 71.1556396484375 253.35313415527344 73.62541961669922 254.24842834472656 76.67786407470703 C 252.69737243652344 72.7762680053711 251.1754150390625 78.567626953125 251.6967010498047 82.48281860351562 C 250.01248168945312 80.70362091064453 250.35301208496094 84.85041809082031 250.3143768310547 82.73261260986328 C 250.27609252929688 87.0582504272461 251.10238647460938 91.91278076171875 248.71047973632812 88.78040313720703 C 244.4669952392578 91.26162719726562 248.22406005859375 93.56776428222656 245.43460083007812 99.24517059326172 C 246.25604248046875 101.05491638183594 245.50006103515625 102.51332092285156 245.34768676757812 99.74604034423828 C 246.09217834472656 102.19850158691406 245.58792114257812 109.11378479003906 244.36973571777344 105.47402954101562 C 246.54783630371094 110.32073211669922 242.2714080810547 112.30281066894531 240.6160888671875 111.53047943115234 C 247.32516479492188 117.63951110839844 239.61611938476562 115.33139038085938 239.5831756591797 120.65071105957031 C 240.8639678955078 121.09053039550781 240.48330688476562 125.6204605102539 244.3094940185547 132.37110900878906 C 238.97650146484375 131.8870391845703 238.56503295898438 131.8727569580078 236.35743713378906 139.4158477783203 C 232.84228515625 137.9553680419922 231.4781036376953 136.5814971923828 230.9607696533203 136.92185974121094 C 228.86227416992188 135.08155822753906 230.47088623046875 136.85545349121094 230.50439453125 140.2001495361328 C 220.9412384033203 137.61756896972656 220.1500244140625 134.95948791503906 218.9214324951172 135.35284423828125 C 216.06103515625 136.5457305908203 213.48971557617188 135.46160888671875 212.80699157714844 134.97796630859375 C 212.55267333984375 134.0972442626953 211.7787322998047 130.30136108398438 212.97738647460938 133.4724884033203 C 205.5325164794922 128.46302795410156 202.8276824951172 125.03751373291016 204.3824462890625 125.22984313964844 C 205.844970703125 124.3365478515625 200.9239959716797 124.96215057373047 193.9539794921875 123.52836608886719 C 200.15269470214844 123.94601440429688 194.16543579101562 122.5741958618164 187.9130096435547 119.97244262695312 C 191.47462463378906 124.93949890136719 189.545654296875 118.17279052734375 184.3198699951172 117.11571502685547 C 182.94508361816406 120.30233001708984 184.52639770507812 112.00814056396484 186.88560485839844 117.63209533691406 C 186.2958221435547 116.52540588378906 178.69654846191406 112.36228942871094 174.3413543701172 109.44226837158203 C 174.56536865234375 106.00056457519531 164.17425537109375 103.47335052490234 174.39324951171875 108.06112670898438 C 172.04786682128906 110.45576477050781 168.17520141601562 104.0652847290039 163.95260620117188 100.45853424072266 C 162.41725158691406 101.43928527832031 160.82928466796875 99.32402801513672 161.10430908203125 90.7717514038086 C 163.11524963378906 90.06816101074219 159.6802978515625 89.81871795654297 162.61813354492188 104.88059997558594 C 161.90231323242188 94.97615051269531 162.61312866210938 83.90770721435547 160.9623565673828 83.10443878173828 C 159.7466583251953 82.71224975585938 161.32455444335938 81.0136947631836 162.12744140625 80.63727569580078 C 162.12454223632812 80.28130340576172 162.22962951660156 79.33757781982422 159.81814575195312 79.59113311767578 C 159.3944091796875 79.14447784423828 160.14784240722656 77.28682708740234 160.00625610351562 77.3152084350586 C 160.6171875 75.59193420410156 155.4465789794922 76.05903625488281 156.0247802734375 73.31820678710938 C 158.65257263183594 70.77254486083984 158.94764709472656 68.1327133178711 157.15830993652344 69.95974731445312 C 163.4530029296875 66.41387176513672 167.2403564453125 63.14246368408203 166.3121337890625 64.65697479248047 C 163.9470672607422 66.33541107177734 170.2235107421875 67.9432601928711 173.5402374267578 68.95215606689453 C 170.38751220703125 68.16072082519531 172.84576416015625 68.65306854248047 172.13265991210938 68.1877212524414 C 173.7273712158203 69.46614074707031 170.75828552246094 68.56393432617188 166.37791442871094 66.4918212890625 C 167.5639190673828 65.9196548461914 165.94041442871094 65.65992736816406 163.6110382080078 63.64902877807617 C 167.16189575195312 61.631221771240234 170.21563720703125 61.136383056640625 169.6801300048828 61.9222412109375 C 175.43199157714844 57.57127380371094 180.06764221191406 61.45677185058594 176.34730529785156 55.7412109375 C 183.11175537109375 54.625 185.92503356933594 56.11528778076172 190.04049682617188 56.68747329711914 C 192.14950561523438 57.624595642089844 193.0380096435547 57.989192962646484 194.03494262695312 57.48926544189453 C 192.2466583251953 57.14071273803711 191.12387084960938 59.011287689208984 189.92581176757812 56.61032485961914 C 198.78622436523438 51.45573806762695 199.37623596191406 54.271732330322266 193.61187744140625 54.69902801513672 C 199.4097900390625 53.427490234375 203.26611328125 51.69292068481445 203.6446075439453 55.61750411987305 C 203.3883819580078 55.03382873535156 201.53173828125 51.404788970947266 203.1875762939453 54.250545501708984" stroke-width="0.0" fill="rgb(75, 245, 8)" opacity="0.999914" stroke="rgb(100, 86, 97)" stroke-opacity="0.66450214" stroke-linecap="round" stroke-linejoin="round"/>
    <path d="M 308.52392578125 87.82518005371094 C 309.1227722167969 89.05116271972656 310.0115966796875 89.78207397460938 311.54595947265625 86.9024658203125 C 312.6261901855469 89.37464141845703 313.5972900390625 90.63786315917969 317.2739562988281 86.9499282836914 C 316.87042236328125 91.1526107788086 316.55426025390625 92.65451049804688 317.29473876953125 93.25682067871094 C 318.37335205078125 93.68335723876953 319.30889892578125 94.0689468383789 320.4171447753906 94.35440063476562 C 321.7338562011719 94.69538116455078 321.857666015625 95.2529067993164 322.3130187988281 95.92228698730469 C 322.9291076660156 96.44563293457031 323.78472900390625 96.88434600830078 323.6897277832031 97.26860046386719 C 323.4910583496094 98.11280822753906 323.76422119140625 98.56451416015625 324.5204772949219 98.05520629882812 C 324.2295837402344 99.13414001464844 324.60107421875 99.47264862060547 325.11065673828125 99.6229476928711 C 325.7583923339844 99.70365142822266 326.5463562011719 99.74815368652344 327.48785400390625 99.77266693115234 C 328.507080078125 99.82453918457031 329.6716613769531 99.8777847290039 332.09320068359375 98.09993743896484 C 332.5064697265625 98.96772003173828 333.3429870605469 100.25118255615234 336.418701171875 98.16468048095703 C 336.1838073730469 100.53836059570312 336.3212585449219 102.03170013427734 339.3805236816406 101.6861801147461 C 337.66961669921875 103.34187316894531 337.6034240722656 104.51303100585938 337.6086730957031 105.29585266113281 C 337.58953857421875 106.2696304321289 337.6124267578125 107.38887786865234 338.4076843261719 109.89859771728516 C 336.174072265625 108.888671875 336.0222473144531 109.957275390625 340.7765197753906 112.89045715332031 C 334.7881164550781 112.31069946289062 334.5796813964844 116.10338592529297 337.15216064453125 119.5638198852539 C 333.2288513183594 116.46942138671875 331.0646057128906 115.60613250732422 329.06756591796875 115.43951416015625 C 327.9221496582031 115.8340835571289 326.9447326660156 116.15673065185547 325.94488525390625 116.33251953125 C 324.9437255859375 116.37848663330078 323.9443054199219 116.1750259399414 318.67999267578125 122.37303924560547 C 319.8628845214844 120.33650207519531 320.3746337890625 116.41812896728516 320.12103271484375 115.20854187011719 C 319.2130126953125 115.44975280761719 319.07818603515625 113.78227233886719 318.5472106933594 114.17371368408203 C 318.56512451171875 112.61219787597656 318.1295166015625 112.28838348388672 317.3326110839844 114.4223403930664 C 317.0743713378906 112.79788208007812 315.9847106933594 112.65284729003906 316.2147216796875 113.6177749633789 C 315.7585144042969 112.05104064941406 315.0107116699219 112.18783569335938 313.8279113769531 114.2632827758789 C 313.5643005371094 112.28857421875 312.9615478515625 111.6887435913086 312.07867431640625 111.65299224853516 C 310.9476013183594 111.86959075927734 309.9324035644531 111.34008026123047 309.0411071777344 111.41470336914062 C 308.2994384765625 111.23834228515625 306.9457092285156 111.89960479736328 300.89544677734375 115.39248657226562 C 302.51165771484375 112.6976547241211 305.73358154296875 107.9019775390625 305.7422790527344 106.54750061035156 C 305.02886962890625 105.78341674804688 303.9629821777344 105.11705780029297 304.2309875488281 104.13027954101562 C 303.40460205078125 103.13638305664062 297.9159851074219 102.58453369140625 298.1902160644531 102.02143859863281 C 304.3660583496094 100.08787536621094 304.3728942871094 99.05457305908203 300.89251708984375 98.05665588378906 C 298.5680847167969 97.06299591064453 299.13714599609375 95.86918640136719 299.8865661621094 96.38157653808594 C 301.1937255859375 95.10050964355469 300.4702453613281 93.64213562011719 302.740234375 92.33257293701172 C 304.1485595703125 90.97404479980469 304.0757751464844 89.93309783935547 308.52392578125 87.82518005371094" stroke-width="0.0" fill="rgb(63, 252, 7)" opacity="0.9999609" stroke="rgb(9, 106, 180)" stroke-opacity="0.36813998" stroke-linecap="round" stroke-linejoin="round"/>
    <path d="M 17.33345603942871 55.348392486572266 C 14.856287002563477 60.40625762939453 14.565775871276855 62.92203903198242 16.977476119995117 63.07392883300781 C 15.893448829650879 64.60685729980469 17.245100021362305 64.04130554199219 18.336217880249023 65.31753540039062 C 17.730253219604492 67.38046264648438 18.387781143188477 68.11175537109375 22.359130859375 66.08010864257812 C 22.617467880249023 65.63825988769531 21.71990203857422 68.39928436279297 21.08940315246582 71.14112854003906 C 23.25237464904785 71.11153411865234 26.97382164001465 70.81272888183594 26.359512329101562 71.08842468261719 C 21.97083282470703 75.88294982910156 22.081085205078125 77.14786529541016 24.135986328125 79.56157684326172 C 25.32609748840332 81.29989624023438 24.44700813293457 81.86258697509766 22.135150909423828 82.47317504882812 C 20.2613525390625 83.53370666503906 19.61791229248047 84.56790924072266 19.02601432800293 86.07330322265625 C 18.846837997436523 88.74881744384766 18.18271827697754 89.15105438232422 17.088821411132812 88.21829986572266 C 15.167397499084473 87.638671875 14.310683250427246 87.61222076416016 12.201985359191895 88.031005859375 C 11.414755821228027 88.95088958740234 11.050580978393555 87.46836853027344 10.060883522033691 87.13803100585938 C 9.972801208496094 85.90612030029297 7.690147399902344 85.48995971679688 4.938712120056152 86.95404815673828 C 7.140462875366211 83.09083557128906 6.9687652587890625 81.60993957519531 6.5630364418029785 80.5701675415039 C 4.022330284118652 80.01297760009766 2.765342950820923 78.83439636230469 3.908663034439087 78.10540771484375 C 3.0113582611083984 77.32096862792969 2.6435279846191406 75.98028564453125 2.6665971279144287 74.5544204711914 C 1.5369515419006348 74.04873657226562 -2.3131062984466553 73.93815612792969 -5.276479721069336 76.11541748046875 C -0.5492263436317444 72.09720611572266 0.23195341229438782 70.08411407470703 0.6012742519378662 69.12068176269531 C 0.30029574036598206 68.23076629638672 -0.6655168533325195 67.22978973388672 -1.181463360786438 65.25434112548828 C 0.521856963634491 64.36849212646484 0.7812495827674866 63.2252197265625 0.3374987244606018 58.76165008544922 C 2.05789852142334 58.94416809082031 4.170294761657715 60.843650817871094 6.152578830718994 63.473690032958984 C 7.613171577453613 64.35760498046875 8.751070022583008 64.13433074951172 17.33345603942871 55.348392486572266" stroke-width="0.0" fill="rgb(22, 23, 19)" opacity="0.99998987" stroke="rgb(62, 235, 61)" stroke-opacity="0.4529079" stroke-linecap="round" stroke-linejoin="round"/>
    <path d="M 9.269572257995605 178.5056915283203 C 9.68216609954834 184.72158813476562 10.35747241973877 185.61915588378906 11.814393997192383 184.17848205566406 C 12.460800170898438 185.71290588378906 13.085099220275879 186.25926208496094 13.704426765441895 185.12258911132812 C 14.256451606750488 183.08303833007812 15.246709823608398 182.0054931640625 16.599885940551758 183.85720825195312 C 17.92842674255371 186.03269958496094 19.000640869140625 185.84060668945312 20.05298614501953 185.67750549316406 C 21.13195037841797 185.60401916503906 22.182289123535156 185.64361572265625 23.302465438842773 184.7803192138672 C 24.549646377563477 183.71546936035156 25.363391876220703 184.8292694091797 28.31169319152832 184.9875946044922 C 29.046857833862305 185.92176818847656 29.787092208862305 187.33460998535156 29.139301300048828 189.06707763671875 C 27.73218536376953 190.56175231933594 27.307432174682617 191.02102661132812 25.765525817871094 191.1215362548828 C 24.501739501953125 191.54415893554688 23.745214462280273 192.4113311767578 22.736265182495117 191.95709228515625 C 21.720809936523438 191.35934448242188 20.73824119567871 191.49020385742188 20.131988525390625 194.50668334960938 C 19.743206024169922 196.24295043945312 19.058807373046875 194.0762176513672 16.829343795776367 193.27598571777344 C 15.625848770141602 192.66925048828125 14.582491874694824 193.051025390625 15.29733943939209 194.31497192382812 C 13.051990509033203 194.8453369140625 11.506260871887207 195.43638610839844 10.891196250915527 196.15541076660156 C 9.999595642089844 196.52793884277344 9.013309478759766 197.20489501953125 8.540340423583984 197.7554931640625 C 8.448659896850586 198.5464324951172 8.20489501953125 199.4621124267578 8.274760246276855 200.1081085205078 C 8.601940155029297 200.96897888183594 8.766846656799316 202.03753662109375 8.82662296295166 203.1951446533203 C 9.503701210021973 204.26805114746094 9.989173889160156 205.3139190673828 12.086143493652344 206.56178283691406 C 11.618208885192871 207.86106872558594 10.191744804382324 208.7997283935547 8.735573768615723 209.69789123535156 C 8.076310157775879 210.6204376220703 7.61027193069458 211.73634338378906 7.845485687255859 213.85960388183594 C 5.748529434204102 212.40972900390625 4.736091136932373 212.51028442382812 3.642352819442749 212.6668243408203 C 2.5516321659088135 212.86817932128906 1.4803179502487183 212.62567138671875 0.43765637278556824 211.75567626953125 C -1.5852587223052979 211.0229949951172 -3.2665719985961914 210.7443084716797 -4.688052654266357 209.59530639648438 C -0.15412575006484985 207.1685791015625 0.4378766417503357 206.0281524658203 -0.9023821949958801 203.23562622070312 C -1.9931946992874146 201.85409545898438 -3.6949634552001953 201.4836883544922 -0.4563286006450653 199.40150451660156 C 1.6155247688293457 198.75985717773438 2.3411779403686523 198.1490478515625 3.1291842460632324 197.5474853515625 C 3.3376924991607666 196.78955078125 3.51577091217041 195.98243713378906 1.7718709707260132 195.4683074951172 C 1.404576301574707 194.5992889404297 0.6050547361373901 193.80201721191406 2.816864013671875 192.64955139160156 C 4.059201240539551 191.6951141357422 3.922032594680786 190.85604858398438 3.8183083534240723 189.97694396972656 C 3.8636996746063232 189.11659240722656 3.866966724395752 188.2330322265625 2.938053607940674 187.0163116455078 C 2.4815728664398193 185.71060180664062 1.9268697500228882 182.1162567138672 9.269572257995605 178.5056915283203" stroke-width="0.0" fill="rgb(128, 224, 98)" opacity="0.9999934" stroke="rgb(151, 137, 58)" stroke-opacity="0.55227095" stroke-linecap="round" stroke-linejoin="round"/>
    <path d="M 202.4081268310547 138.4339141845703 C 205.9773406982422 136.05027770996094 212.92282104492188 138.45216369628906 217.0866241455078 139.30841064453125 C 211.4571075439453 140.7191925048828 214.2135009765625 139.8240203857422 218.13938903808594 139.14523315429688 C 222.24301147460938 143.1742706298828 226.04226684570312 143.73944091796875 221.8426513671875 141.60934448242188 C 223.06236267089844 141.07875061035156 222.66673278808594 143.31190490722656 222.26470947265625 142.20932006835938 C 222.4527130126953 140.21717834472656 223.87081909179688 142.6820526123047 227.44381713867188 142.58935546875 C 225.8460693359375 144.67869567871094 226.2772674560547 145.28021240234375 226.9004669189453 145.8527069091797 C 227.4298095703125 146.28256225585938 228.0281982421875 146.5532989501953 228.4628448486328 146.85850524902344 C 228.21209716796875 147.782958984375 228.13534545898438 148.009765625 227.9246063232422 148.20382690429688 C 227.18850708007812 148.1863555908203 226.48753356933594 148.20724487304688 225.69186401367188 148.2677001953125 C 224.67820739746094 149.68643188476562 223.5591583251953 151.67726135253906 222.4761199951172 150.34078979492188 C 221.64894104003906 147.8072509765625 220.5555877685547 147.75660705566406 219.59181213378906 147.86795043945312 C 218.69760131835938 148.46282958984375 217.8793487548828 149.7671661376953 217.23179626464844 150.91627502441406 C 216.21612548828125 148.57437133789062 215.34840393066406 149.5117950439453 212.34970092773438 150.89317321777344 C 214.55223083496094 147.6843719482422 214.26551818847656 147.0321044921875 212.39466857910156 146.79330444335938 C 211.07736206054688 146.56141662597656 210.17691040039062 145.99742126464844 212.75123596191406 146.97544860839844 C 212.09481811523438 146.0430145263672 211.55441284179688 144.95053100585938 210.97361755371094 145.46072387695312 C 211.88987731933594 143.75608825683594 211.64877319335938 143.76754760742188 211.43690490722656 144.03981018066406 C 211.29885864257812 144.52276611328125 211.13607788085938 145.1475372314453 213.55641174316406 148.06402587890625 C 212.80906677246094 147.26820373535156 212.6089630126953 147.71217346191406 210.6945037841797 148.37306213378906 C 210.06053161621094 148.96730041503906 209.54969787597656 149.53021240234375 208.99636840820312 150.07675170898438 C 208.34669494628906 150.19436645507812 207.66583251953125 150.37977600097656 206.83604431152344 150.43719482421875 C 206.05455017089844 150.43698120117188 205.1691131591797 150.36134338378906 204.2986297607422 150.3140869140625 C 203.445068359375 150.231201171875 202.58204650878906 150.1770782470703 201.78065490722656 150.2194061279297 C 200.9418182373047 150.1374053955078 200.20669555664062 150.02847290039062 199.21337890625 150.46511840820312 C 198.5445098876953 150.4925079345703 197.93104553222656 150.16500854492188 196.94332885742188 150.29893493652344 C 195.81715393066406 150.4265899658203 195.0979461669922 150.52699279785156 194.9921417236328 151.97520446777344 C 195.72113037109375 147.1459503173828 195.62893676757812 146.40306091308594 195.0846405029297 145.5904998779297 C 193.83555603027344 144.44712829589844 194.8302459716797 142.88619995117188 195.92431640625 142.49365234375 C 197.04611206054688 142.35374450683594 197.6560516357422 140.37545776367188 198.04605102539062 139.3096466064453 C 198.5518798828125 140.48643493652344 200.2163543701172 139.47691345214844 204.30897521972656 137.88815307617188 C 199.38551330566406 135.76568603515625 201.39915466308594 137.44593811035156 203.15985107421875 139.23721313476562 C 203.41134643554688 138.41024780273438 202.42271423339844 136.65887451171875 202.4081268310547 138.4339141845703" stroke-width="0.0" fill="rgb(67, 251, 3)" opacity="0.99990296" stroke="rgb(243, 203, 59)" stroke-opacity="0.5752354" stroke-linecap="round" stroke-linejoin="round"/>
    <path d="M 304.3681335449219 90.0096664428711 C 304.3046875 91.29908752441406 304.3504943847656 92.46135711669922 304.3170166015625 93.56626892089844 C 304.09674072265625 94.68805694580078 304.128662109375 95.72657012939453 304.05364990234375 96.68717193603516 C 303.953125 97.64933013916016 304.04638671875 98.58605194091797 304.15411376953125 99.45512390136719 C 304.32275390625 100.34793853759766 304.59954833984375 101.25251007080078 304.9316101074219 102.20568084716797 C 305.1451416015625 103.25370025634766 305.2947692871094 104.3634033203125 305.550537109375 105.52539825439453 C 306.0466613769531 106.59717559814453 306.77813720703125 107.53489685058594 307.5550537109375 108.49148559570312 C 308.3111267089844 109.44686889648438 309.079345703125 110.28861236572266 309.8807373046875 110.9989013671875 C 310.70770263671875 111.62321472167969 311.5653991699219 112.12998962402344 312.4956359863281 112.53050231933594 C 313.46783447265625 112.85465240478516 314.45062255859375 113.13618469238281 315.447509765625 113.41294860839844 C 316.4371337890625 113.71003723144531 317.4168395996094 114.05428314208984 318.39324951171875 114.41372680664062 C 319.3646240234375 114.82057189941406 320.348388671875 115.26311492919922 321.3272705078125 115.65972900390625 C 322.32012939453125 115.94611358642578 323.3471374511719 116.08187866210938 324.4038391113281 116.04379272460938 C 325.516357421875 115.89619445800781 326.68194580078125 115.65597534179688 327.8792724609375 115.36080169677734 C 329.09893798828125 115.01787567138672 330.2941589355469 114.5850830078125 331.43109130859375 114.06456756591797 C 332.51220703125 113.44342041015625 333.5168762207031 112.69649505615234 334.4297790527344 111.84114074707031 C 335.2544860839844 110.89616394042969 335.9918212890625 109.87117004394531 336.6537170410156 108.82079315185547 C 337.26666259765625 107.80426788330078 337.8521423339844 106.85478973388672 338.39324951171875 106.03034973144531 C 338.9164733886719 105.3979721069336 339.4371032714844 104.96702575683594 339.9236755371094 104.82430267333984 C 340.38751220703125 104.91627502441406 340.8350524902344 105.230712890625 341.23419189453125 105.74925231933594 C 341.5814514160156 106.43660736083984 341.8916931152344 107.28553771972656 342.13751220703125 108.25265502929688 C 342.30322265625 109.28215789794922 342.41217041015625 110.3735580444336 342.4681396484375 111.52832794189453 C 342.4430236816406 112.68948364257812 342.3849182128906 113.86731719970703 342.2571105957031 115.05460357666016 C 342.07379150390625 116.23588562011719 341.85101318359375 117.40430450439453 341.5769958496094 118.56139373779297 C 341.2396240234375 119.70036315917969 340.8619079589844 120.78868103027344 340.4252624511719 121.81696319580078 C 339.92718505859375 122.78987121582031 339.37469482421875 123.6679458618164 338.7557373046875 124.47429656982422 C 338.06329345703125 125.18773651123047 337.31634521484375 125.818603515625 336.51904296875 126.39386749267578 C 335.6562194824219 126.8974380493164 334.7469787597656 127.3659439086914 333.8067321777344 127.79988861083984 C 332.8365478515625 128.2161865234375 331.8574523925781 128.6309814453125 330.8744201660156 129.0469512939453 C 329.8883361816406 129.47242736816406 328.9112243652344 129.92318725585938 327.9348449707031 130.393310546875 C 326.9587707519531 130.87648010253906 325.9898376464844 131.3907470703125 325.017578125 131.91265869140625 C 324.0445251464844 132.44784545898438 323.0706481933594 132.98655700683594 322.09765625 133.51528930664062 C 321.1268615722656 134.03529357910156 320.1504211425781 134.5437774658203 319.1897277832031 135.0397491455078 C 318.2320251464844 135.514892578125 317.2989196777344 135.9751739501953 316.38031005859375 136.42262268066406 C 315.4866943359375 136.85165405273438 314.623046875 137.26011657714844 313.7634582519531 137.65097045898438 C 312.92523193359375 138.02471923828125 312.0722961425781 138.36526489257812 311.2016906738281 138.6640167236328 C 310.3255920410156 138.9226531982422 309.4038391113281 139.11993408203125 308.4433288574219 139.25242614746094 C 307.4533386230469 139.32305908203125 306.4083557128906 139.30007934570312 305.3437194824219 139.24392700195312 C 304.2234802246094 139.11289978027344 303.0919494628906 138.93740844726562 301.9542541503906 138.7539825439453 C 300.80633544921875 138.51649475097656 299.68890380859375 138.28256225585938 298.6161193847656 138.02931213378906 C 297.5738525390625 137.7327117919922 296.569580078125 137.3995819091797 295.6356506347656 137.03526306152344 C 294.7588195800781 136.61978149414062 293.94390869140625 136.14549255371094 293.1940002441406 135.59947204589844 C 292.4879455566406 134.98643493652344 291.82928466796875 134.31402587890625 291.1759033203125 133.5956268310547 C 290.5231628417969 132.85585021972656 289.8166198730469 132.08119201660156 289.0814208984375 131.284912109375 C 288.2637023925781 130.4744110107422 287.3839416503906 129.6457977294922 286.44580078125 128.78469848632812 C 285.4598083496094 127.90936279296875 284.4749450683594 127.02784729003906 283.5211486816406 126.15032958984375 C 282.6328430175781 125.2684326171875 281.8695983886719 124.40046691894531 281.23773193359375 123.5297622680664 C 280.75946044921875 122.6484603881836 280.44097900390625 121.75633239746094 280.2601318359375 120.82465362548828 C 280.2020263671875 119.8718490600586 280.2387390136719 118.88497161865234 280.3189392089844 117.85641479492188 C 280.3798828125 116.7998275756836 280.3809814453125 115.7346420288086 280.2730407714844 114.66801452636719 C 280.0503845214844 113.61829376220703 279.7328796386719 112.60142517089844 279.3669128417969 111.6401138305664 C 278.9942626953125 110.74518585205078 278.6490783691406 109.91516876220703 278.3712158203125 109.1499252319336 C 278.1754455566406 108.42425537109375 278.0850830078125 107.71832275390625 278.1225891113281 107.03791809082031 C 278.251220703125 106.3499755859375 278.47882080078125 105.65637969970703 278.7911071777344 104.9342041015625 C 279.17083740234375 104.20783996582031 279.601318359375 103.49732971191406 280.07940673828125 102.81961822509766 C 280.6082458496094 102.2022933959961 281.22601318359375 101.67420959472656 281.9602355957031 101.28241729736328 C 282.8044128417969 101.00789642333984 283.7692565917969 100.84518432617188 284.8916931152344 100.76067352294922 C 286.1904296875 100.72151184082031 287.6524658203125 100.69803619384766 289.29730224609375 100.63336944580078 C 291.1534118652344 100.498046875 293.1905822753906 100.30789184570312 295.3657531738281 100.0807113647461 C 297.5906982421875 99.86176300048828 299.90374755859375 99.59471893310547 302.28521728515625 99.35565948486328 C 304.5702209472656 99.07125091552734 307.01025390625 98.72826385498047 304.3681335449219 90.0096664428711" stroke-width="0.0" fill="rgb(91, 224, 4)" opacity="0.99989027" stroke="rgb(128, 233, 113)" stroke-opacity="0.12784432" stroke-linecap="round" stroke-linejoin="round"/>
    <path d="M 227.0817108154297 145.24888610839844 C 228.55038452148438 144.7533721923828 230.0067596435547 144.29232788085938 231.43299865722656 143.86846923828125 C 232.82411193847656 143.54246520996094 234.15475463867188 143.35955810546875 235.39324951171875 143.3095245361328 C 236.53709411621094 143.45001220703125 237.5421905517578 143.76373291015625 238.42835998535156 144.22775268554688 C 239.1570281982422 144.84739685058594 239.72666931152344 145.5933837890625 240.15234375 146.4283905029297 C 240.4208526611328 147.32749938964844 240.5393524169922 148.2818145751953 240.52732849121094 149.25389099121094 C 240.3861846923828 150.2342529296875 240.13742065429688 151.20164489746094 239.8094024658203 152.1504364013672 C 239.41763305664062 153.0955352783203 238.97061157226562 154.0270233154297 238.512939453125 154.9502410888672 C 238.03382873535156 155.87985229492188 237.5434112548828 156.8032684326172 237.07681274414062 157.73004150390625 C 236.61033630371094 158.63973999023438 236.16119384765625 159.531494140625 235.68443298339844 160.40333557128906 C 235.1968536376953 161.2279815673828 234.64915466308594 162.0098876953125 234.05416870117188 162.7296905517578 C 233.39842224121094 163.36367797851562 232.67825317382812 163.9112091064453 231.91046142578125 164.3704376220703 C 231.08316040039062 164.7100067138672 230.20472717285156 164.9363250732422 229.28854370117188 165.05453491210938 C 228.3438262939453 165.0636444091797 227.37921142578125 164.95921325683594 226.4024200439453 164.7400360107422 C 225.41366577148438 164.41517639160156 224.42428588867188 163.99110412597656 223.4378662109375 163.4808349609375 C 222.4497528076172 162.88624572753906 221.4581756591797 162.24581909179688 220.47154235839844 161.568115234375 C 219.47952270507812 160.89573669433594 218.4921417236328 160.25535583496094 217.5146484375 159.67337036132812 C 216.54473876953125 159.20208740234375 215.58395385742188 158.85313415527344 214.6438446044922 158.65078735351562 C 213.74911499023438 158.6275177001953 212.88735961914062 158.7879638671875 212.0885467529297 159.13558959960938 C 211.3534698486328 159.6798095703125 210.7052764892578 160.380615234375 210.138916015625 161.218505859375 C 209.66482543945312 162.16342163085938 209.251220703125 163.17857360839844 208.90509033203125 164.252685546875 C 208.63198852539062 165.34451293945312 208.37608337402344 166.44244384765625 208.1368408203125 167.5392303466797 C 207.9042510986328 168.61087036132812 207.65054321289062 169.6602783203125 207.40921020507812 170.70364379882812 C 207.145751953125 171.74371337890625 206.8731689453125 172.77685546875 206.60372924804688 173.8140106201172 C 206.3357696533203 174.86492919921875 206.07546997070312 175.92347717285156 205.84669494628906 176.98477172851562 C 205.62908935546875 178.04339599609375 205.4458770751953 179.08963012695312 205.25775146484375 180.10862731933594 C 205.06240844726562 181.08892822265625 204.8349151611328 181.99929809570312 204.5508270263672 182.81207275390625 C 204.19638061523438 183.513916015625 203.75045776367188 184.073486328125 203.2216033935547 184.45687866210938 C 202.6204833984375 184.65745544433594 201.95230102539062 184.6405029296875 201.25674438476562 184.4099578857422 C 200.56565856933594 183.97286987304688 199.89405822753906 183.3417510986328 199.26876831054688 182.54708862304688 C 198.7158203125 181.60513305664062 198.22195434570312 180.57113647460938 197.77601623535156 179.46383666992188 C 197.39175415039062 178.33876037597656 197.02455139160156 177.21408081054688 196.67050170898438 176.1189727783203 C 196.31063842773438 175.0885009765625 195.91653442382812 174.09043884277344 195.4781951904297 173.13302612304688 C 194.9833526611328 172.23516845703125 194.49844360351562 171.35214233398438 194.00743103027344 170.43905639648438 C 193.51377868652344 169.51287841796875 193.04666137695312 168.5523223876953 192.6170196533203 167.58863830566406 C 192.27110290527344 166.67742919921875 192.00376892089844 165.77633666992188 191.7911834716797 164.90701293945312 C 191.6052703857422 164.0398712158203 191.4377899169922 163.18035888671875 191.27755737304688 162.33209228515625 C 191.12380981445312 161.4665985107422 190.97525024414062 160.58975219726562 190.8688201904297 159.69403076171875 C 190.83473205566406 158.77859497070312 190.89645385742188 157.83645629882812 191.06907653808594 156.86557006835938 C 191.35159301757812 155.86785888671875 191.70440673828125 154.8292236328125 192.10992431640625 153.7760772705078 C 192.5277557373047 152.7270050048828 192.91444396972656 151.71466064453125 193.23501586914062 150.7667999267578 C 193.4523468017578 149.9108428955078 193.60362243652344 149.1961212158203 193.72666931152344 148.63360595703125 C 193.86940002441406 148.24627685546875 194.09674072265625 148.06056213378906 194.42169189453125 148.07696533203125 C 194.89317321777344 148.2498779296875 195.50912475585938 148.55078125 196.26393127441406 148.95274353027344 C 197.1510009765625 149.4115753173828 198.12850952148438 149.90609741210938 199.18963623046875 150.37542724609375 C 200.32005310058594 150.7523193359375 201.46954345703125 151.03379821777344 202.634765625 151.23272705078125 C 203.76329040527344 151.3092498779297 204.8618927001953 151.2344512939453 205.91036987304688 151.03021240234375 C 206.87709045410156 150.73341369628906 207.79762268066406 150.33602905273438 208.68386840820312 149.984130859375 C 209.3865203857422 149.52865600585938 210.06527709960938 149.16737365722656 210.6703643798828 148.80638122558594 C 211.16683959960938 148.50022888183594 211.61337280273438 148.2672119140625 212.09449768066406 148.16989135742188 C 212.61578369140625 148.20489501953125 213.22035217285156 148.3613739013672 213.9294891357422 148.59950256347656 C 214.7444610595703 148.88597106933594 215.7132110595703 149.19601440429688 216.8169708251953 149.48886108398438 C 218.01419067382812 149.7074432373047 219.26686096191406 149.88121032714844 220.5535888671875 149.96165466308594 C 221.85081481933594 149.91822814941406 223.1243133544922 149.80003356933594 224.36891174316406 149.64111328125 C 225.5140380859375 149.4259490966797 226.5109100341797 149.1079864501953 227.33526611328125 148.6825408935547 C 227.9792938232422 148.1819305419922 228.44602966308594 147.60379028320312 228.79730224609375 146.93678283691406 C 229.0664825439453 146.19302368164062 229.27896118164062 145.42945861816406 227.0817108154297 145.24888610839844" stroke-width="0.0" fill="rgb(90, 193, 2)" opacity="0.9998478" stroke="rgb(21, 243, 121)" stroke-opacity="0.61107635" stroke-linecap="round" stroke-linejoin="round"/>
    <path d="M 36.98625946044922 175.2305908203125 C 38.20708465576172 175.3192901611328 39.43164825439453 175.42169189453125 40.635128021240234 175.5557098388672 C 41.80928039550781 175.74354553222656 42.884979248046875 175.9897003173828 43.87009811401367 176.32107543945312 C 44.71699905395508 176.74754333496094 45.38029098510742 177.27403259277344 45.86235427856445 177.90667724609375 C 46.14995574951172 178.645751953125 46.215885162353516 179.48155212402344 46.10807418823242 180.40481567382812 C 45.82337188720703 181.38958740234375 45.413509368896484 182.43637084960938 44.91514587402344 183.5137481689453 C 44.36581802368164 184.60597229003906 43.81851577758789 185.7042999267578 43.30398178100586 186.79183959960938 C 42.83577346801758 187.85813903808594 42.456912994384766 188.90980529785156 42.163875579833984 189.93170166015625 C 41.94150924682617 190.90797424316406 41.79842758178711 191.86680603027344 41.705142974853516 192.80630493164062 C 41.64431381225586 193.70181274414062 41.609710693359375 194.5819854736328 41.57628631591797 195.45668029785156 C 41.540924072265625 196.31378173828125 41.50208282470703 197.16058349609375 41.45585250854492 198.00672912597656 C 41.427345275878906 198.86334228515625 41.40974807739258 199.7279815673828 41.42579650878906 200.607421875 C 41.4915657043457 201.52655029296875 41.603458404541016 202.4628448486328 41.77993392944336 203.41775512695312 C 42.005619049072266 204.4153289794922 42.29134750366211 205.43511962890625 42.59797286987305 206.4621124267578 C 42.929901123046875 207.50970458984375 43.25006866455078 208.58518981933594 43.53190612792969 209.63687133789062 C 43.76861572265625 210.70672607421875 43.933109283447266 211.75680541992188 44.035133361816406 212.77976989746094 C 44.055721282958984 213.79019165039062 44.02750778198242 214.78875732421875 43.96672058105469 215.7595977783203 C 43.871925354003906 216.70643615722656 43.77086639404297 217.65069580078125 43.70067596435547 218.5791015625 C 43.662715911865234 219.49681091308594 43.676429748535156 220.42648315429688 43.761932373046875 221.36038208007812 C 43.91270446777344 222.29135131835938 44.12353515625 223.22259521484375 44.395259857177734 224.1698455810547 C 44.719932556152344 225.1352996826172 45.07606506347656 226.09458923339844 45.45768356323242 227.0649871826172 C 45.86920928955078 228.0655517578125 46.29610061645508 229.0692138671875 46.73448944091797 230.0767364501953 C 47.19330978393555 231.11317443847656 47.67192077636719 232.16375732421875 48.17355728149414 233.21888732910156 C 48.717952728271484 234.28443908691406 49.31620407104492 235.36599731445312 49.9714241027832 236.44688415527344 C 50.70109176635742 237.51748657226562 51.49543380737305 238.58514404296875 52.37517166137695 239.63571166992188 C 53.31201934814453 240.64463806152344 54.29597473144531 241.62283325195312 55.33085250854492 242.54246520996094 C 56.413185119628906 243.41233825683594 57.495140075683594 244.2244110107422 58.5836067199707 244.96780395507812 C 59.68796920776367 245.66152954101562 60.75852966308594 246.2906036376953 61.793731689453125 246.8792724609375 C 62.81609344482422 247.4105224609375 63.78483200073242 247.89097595214844 64.72855377197266 248.32537841796875 C 65.63377380371094 248.69915771484375 66.52114868164062 249.01145935058594 67.40589904785156 249.2657470703125 C 68.29478454589844 249.45318603515625 69.20165252685547 249.55844116210938 70.15048217773438 249.5897674560547 C 71.12863159179688 249.550537109375 72.13813781738281 249.45602416992188 73.1918716430664 249.3138885498047 C 74.24000549316406 249.1377716064453 75.27357482910156 248.96620178222656 76.26945495605469 248.8306121826172 C 77.17613983154297 248.75137329101562 77.97351837158203 248.7504425048828 78.6177978515625 248.8537139892578 C 79.06424713134766 249.0853271484375 79.30338287353516 249.40966796875 79.31536865234375 249.86546325683594 C 79.12020874023438 250.3827667236328 78.71743774414062 250.98300170898438 78.1302719116211 251.59495544433594 C 77.38195037841797 252.2122344970703 76.49541473388672 252.80398559570312 75.50466918945312 253.3601531982422 C 74.43565368652344 253.87791442871094 73.29328918457031 254.34539794921875 72.11628723144531 254.75852966308594 C 70.94267272949219 255.13565063476562 69.74989318847656 255.45797729492188 68.5511245727539 255.73338317871094 C 67.3691177368164 255.9340362548828 66.18895721435547 256.0615539550781 65.00692749023438 256.12127685546875 C 63.831417083740234 256.09954833984375 62.67798614501953 255.9793243408203 61.55664825439453 255.7631378173828 C 60.45998001098633 255.4774627685547 59.415924072265625 255.092529296875 58.404144287109375 254.6473846435547 C 57.42681884765625 254.14942932128906 56.50395965576172 253.61228942871094 55.638851165771484 253.0464630126953 C 54.804744720458984 252.44134521484375 54.022361755371094 251.80398559570312 53.27069854736328 251.1175079345703 C 52.53767776489258 250.36343383789062 51.81806564331055 249.5598907470703 51.113563537597656 248.69532775878906 C 50.41472244262695 247.7900848388672 49.70355224609375 246.87548828125 49.003883361816406 245.9430694580078 C 48.30569839477539 245.0446319580078 47.603843688964844 244.15936279296875 46.936954498291016 243.32098388671875 C 46.271026611328125 242.49363708496094 45.64559555053711 241.65969848632812 45.06144714355469 240.82835388183594 C 44.50328826904297 239.95831298828125 43.98428726196289 239.00880432128906 43.4996337890625 237.9841766357422 C 43.03733444213867 236.85218811035156 42.604225158691406 235.59910583496094 42.18217468261719 234.2476043701172 C 41.7813720703125 232.80238342285156 41.40580368041992 231.2840576171875 41.05100631713867 229.717041015625 C 40.713741302490234 228.12550354003906 40.401737213134766 226.50938415527344 40.127113342285156 224.88095092773438 C 39.917999267578125 223.24171447753906 39.75599670410156 221.57945251464844 39.66180419921875 219.8856964111328 C 39.60530090332031 218.1405029296875 39.58078384399414 216.32467651367188 39.54549789428711 214.456787109375 C 39.47008514404297 212.54074096679688 39.34314727783203 210.56356811523438 39.12840270996094 208.55201721191406 C 38.81737518310547 206.5224151611328 38.39100646972656 204.48841857910156 37.867095947265625 202.49044799804688 C 37.25905990600586 200.5180206298828 36.59953308105469 198.5880889892578 35.93426513671875 196.7207794189453 C 35.30446243286133 194.90255737304688 34.74427032470703 193.14306640625 34.29257583618164 191.43212890625 C 33.96027374267578 189.77561950683594 33.74745178222656 188.17359924316406 33.682945251464844 186.5991668701172 C 33.75200653076172 185.04461669921875 33.913238525390625 183.511474609375 34.151084899902344 181.99732971191406 C 34.41604232788086 180.49180603027344 34.693641662597656 178.99513244628906 36.98625946044922 175.2305908203125" stroke-width="0.0" fill="rgb(24, 17, 22)" opacity="0.9998559" stroke="rgb(66, 36, 80)" stroke-opacity="0.2152116" stroke-linecap="round" stroke-linejoin="round"/>
    <path d="M 251.84677124023438 -0.08207185566425323 C 252.82196044921875 -0.07988172024488449 253.81625366210938 -0.08262470364570618 254.824951171875 -0.09792031347751617 C 255.83969116210938 -0.12566334009170532 256.8794250488281 -0.16176748275756836 257.9569091796875 -0.20888039469718933 C 259.05023193359375 -0.2816685438156128 260.15460205078125 -0.3581158220767975 261.2788391113281 -0.4194263219833374 C 262.3757629394531 -0.44675469398498535 263.4154357910156 -0.4232848882675171 264.39300537109375 -0.3293244540691376 C 265.27008056640625 -0.1492905467748642 265.9996643066406 0.1311025172472 266.5700988769531 0.5246362090110779 C 266.97686767578125 1.0198533535003662 267.1785583496094 1.6398510932922363 267.2107238769531 2.352902889251709 C 267.0782775878906 3.145862340927124 266.8271179199219 4.015262126922607 266.49273681640625 4.919140338897705 C 266.1380920410156 5.853311061859131 265.79766845703125 6.8175272941589355 265.5242004394531 7.799345016479492 C 265.3270568847656 8.785235404968262 265.2171630859375 9.765767097473145 265.2033996582031 10.74904727935791 C 265.28009033203125 11.724867820739746 265.4208679199219 12.711709022521973 265.6217041015625 13.710437774658203 C 265.8470153808594 14.71171760559082 266.0694885253906 15.74523639678955 266.294921875 16.776901245117188 C 266.51324462890625 17.82770538330078 266.7140808105469 18.89031410217285 266.9287109375 19.953048706054688 C 267.1561279296875 21.022287368774414 267.4482421875 22.093854904174805 267.77642822265625 23.14645004272461 C 268.1771240234375 24.158771514892578 268.6916809082031 25.11493492126465 269.3222961425781 25.983776092529297 C 270.0721435546875 26.7541446685791 270.9307861328125 27.419771194458008 271.8354187011719 27.966552734375 C 272.7828369140625 28.389057159423828 273.7903747558594 28.66812515258789 274.8526916503906 28.806867599487305 C 275.92218017578125 28.83586883544922 276.96380615234375 28.759164810180664 278.0440368652344 28.563907623291016 C 279.1638488769531 28.29076385498047 280.4092712402344 27.94710350036621 281.85479736328125 27.395662307739258 C 283.4232482910156 26.83514404296875 284.9624328613281 26.381723403930664 286.32086181640625 26.2134952545166 C 287.27410888671875 26.497926712036133 287.82403564453125 27.393978118896484 287.89324951171875 28.768239974975586 C 287.57293701171875 30.497812271118164 287.0811767578125 32.29714584350586 286.5331115722656 33.97926712036133 C 286.22607421875 35.631954193115234 286.2591247558594 37.240291595458984 286.4137878417969 38.63426208496094 C 286.7238464355469 39.83939743041992 287.1236877441406 40.92538070678711 287.4415588378906 41.90249252319336 C 287.5852355957031 42.74245071411133 287.56353759765625 43.496360778808594 287.3941955566406 44.215797424316406 C 287.0832824707031 44.94265365600586 286.6558532714844 45.68230056762695 286.1494445800781 46.44050979614258 C 285.6332092285156 47.215702056884766 285.1758117675781 48.00444412231445 284.82708740234375 48.820858001708984 C 284.6811218261719 49.65925979614258 284.77740478515625 50.54357147216797 285.1192932128906 51.47187805175781 C 285.65899658203125 52.43097686767578 286.3588562011719 53.416072845458984 287.2032775878906 54.42878341674805 C 288.09832763671875 55.46109390258789 289.02154541015625 56.50709915161133 289.9123840332031 57.602569580078125 C 290.7135314941406 58.68984603881836 291.38970947265625 59.80588150024414 291.90283203125 60.95249938964844 C 292.22808837890625 62.084957122802734 292.3631286621094 63.241416931152344 292.30072021484375 64.37687683105469 C 292.0517883300781 65.45340728759766 291.6385803222656 66.4628677368164 291.0799560546875 67.36714935302734 C 290.38494873046875 68.11936950683594 289.5688171386719 68.71461486816406 288.6290283203125 69.11351013183594 C 287.5782470703125 69.30948638916016 286.424072265625 69.30615234375 285.1659240722656 69.09729766845703 C 283.84527587890625 68.70891571044922 282.4897766113281 68.21900939941406 281.1358947753906 67.6888427734375 C 279.8522644042969 67.16001892089844 278.6962890625 66.6893310546875 277.7040100097656 66.330810546875 C 276.9757385253906 66.11239624023438 276.5174560546875 65.9747085571289 276.3649597167969 65.87825012207031 C 276.5319519042969 65.8394775390625 276.97528076171875 65.77656555175781 277.6712951660156 65.63233184814453 C 278.57159423828125 65.3816146850586 279.5762634277344 65.00098419189453 280.6266174316406 64.48323059082031 C 281.67596435546875 63.81526565551758 282.6128234863281 63.03044509887695 283.3916931152344 62.138790130615234 C 283.96527099609375 61.18903732299805 284.2530822753906 60.14306640625 284.220703125 59.09370040893555 C 283.89703369140625 58.00584411621094 283.28192138671875 56.95927810668945 282.491943359375 56.044185638427734 C 281.4665832519531 55.17136764526367 280.1525573730469 54.33314514160156 278.84600830078125 53.478485107421875 C 277.60638427734375 52.693939208984375 276.5235290527344 51.75691223144531 275.74725341796875 50.45962142944336 C 275.768310546875 48.98958206176758 275.8364562988281 47.54351806640625 275.8538513183594 46.22113037109375 C 275.95867919921875 45.02710723876953 275.9158020019531 44.092037200927734 275.5766296386719 43.38135528564453 C 274.825927734375 42.73668670654297 273.8235778808594 42.154300689697266 272.59149169921875 41.73929214477539 C 270.8506164550781 41.4857063293457 268.8101806640625 41.1938362121582 266.7267761230469 40.829383850097656 C 264.6232604980469 40.37648391723633 262.7579345703125 39.631587982177734 261.54095458984375 38.515968322753906 C 261.0898132324219 37.09112548828125 261.191162109375 35.31156921386719 261.5841064453125 33.60342025756836 C 261.7140808105469 32.02035903930664 261.611083984375 30.654632568359375 260.9916687011719 29.52471351623535 C 260.12908935546875 28.42258071899414 259.1775207519531 27.362272262573242 258.22845458984375 26.333271026611328 C 257.36163330078125 25.39508628845215 256.5661926269531 24.339515686035156 256.0310363769531 23.25762939453125 C 255.97207641601562 22.238243103027344 256.43243408203125 21.457361221313477 257.41656494140625 20.879383087158203 C 258.6351318359375 20.340375900268555 260.0510559082031 19.794153213500977 261.2719421386719 19.080015182495117 C 262.2721252441406 17.960302352905273 262.7919921875 16.71368408203125 262.8822326660156 15.477167129516602 C 262.716552734375 14.247243881225586 262.36907958984375 12.988842010498047 261.8298034667969 11.729842185974121 C 261.07562255859375 10.415830612182617 260.11456298828125 9.036656379699707 258.9826965332031 7.61676549911499 C 257.714599609375 6.149125099182129 256.327392578125 4.626223087310791 254.7775115966797 3.0576512813568115 C 253.15658569335938 1.4732887744903564 251.53114318847656 -0.0798327848315239 251.84677124023438 -0.08207185566425323" stroke-width="0.0" fill="rgb(149, 192, 126)" opacity="0.99972445" stroke="rgb(178, 218, 223)" stroke-opacity="0.4199606" stroke-linecap="round" stroke-linejoin="round"/>
    <path d="M 171.41407775878906 166.3857421875 C 172.37489318847656 166.33682250976562 173.31166076660156 166.29708862304688 174.1835479736328 166.31443786621094 C 174.958984375 166.40264892578125 175.60739135742188 166.5902099609375 176.10379028320312 166.8965301513672 C 176.4382781982422 167.33645629882812 176.65126037597656 167.9055633544922 176.76425170898438 168.60231018066406 C 176.86805725097656 169.42153930664062 176.9760284423828 170.34698486328125 177.10574340820312 171.37535095214844 C 177.2489013671875 172.49725341796875 177.42066955566406 173.68820190429688 177.60134887695312 174.91543579101562 C 177.78407287597656 176.1853790283203 177.97698974609375 177.47540283203125 178.17660522460938 178.76651000976562 C 178.40550231933594 180.0461883544922 178.69715881347656 181.2931365966797 179.0575408935547 182.4664306640625 C 179.53404235839844 183.55503845214844 180.14254760742188 184.55165100097656 180.8646240234375 185.4652862548828 C 181.72108459472656 186.28472900390625 182.67227172851562 187.0300750732422 183.6996612548828 187.7422332763672 C 184.77944946289062 188.44195556640625 185.86155700683594 189.15492248535156 186.9443817138672 189.9142303466797 C 187.99859619140625 190.7394561767578 189.0059356689453 191.64859008789062 189.96859741210938 192.616943359375 C 190.85379028320312 193.64088439941406 191.64285278320312 194.71368408203125 192.3632049560547 195.80262756347656 C 192.9750518798828 196.88931274414062 193.53811645507812 197.96876525878906 194.0828399658203 198.9713592529297 C 194.6377716064453 199.8997802734375 195.2257843017578 200.71803283691406 195.86782836914062 201.4555206298828 C 196.5724639892578 202.09210205078125 197.37796020507812 202.63308715820312 198.26553344726562 203.10130310058594 C 199.22021484375 203.5089569091797 200.2303924560547 203.87109375 201.27659606933594 204.19593811035156 C 202.3368377685547 204.51441955566406 203.37855529785156 204.84701538085938 204.38824462890625 205.224609375 C 205.31497192382812 205.66624450683594 206.131103515625 206.1941680908203 206.83876037597656 206.8221435546875 C 207.4242706298828 207.5515594482422 207.88739013671875 208.4048309326172 208.25686645507812 209.36827087402344 C 208.5515594482422 210.40896606445312 208.79107666015625 211.5235137939453 208.97702026367188 212.6862030029297 C 209.1226348876953 213.8622283935547 209.22598266601562 215.03793334960938 209.2727813720703 216.1797637939453 C 209.254150390625 217.2472686767578 209.15501403808594 218.2532958984375 208.9592742919922 219.16848754882812 C 208.65234375 219.98770141601562 208.21665954589844 220.7184600830078 207.66575622558594 221.3528594970703 C 206.99105834960938 221.9040985107422 206.1938018798828 222.37623596191406 205.2886505126953 222.77882385253906 C 204.2964630126953 223.12330627441406 203.23251342773438 223.41372680664062 202.1325225830078 223.64707946777344 C 201.00636291503906 223.8385467529297 199.87889099121094 223.99871826171875 198.7823944091797 224.10153198242188 C 197.72158813476562 224.15562438964844 196.71539306640625 224.14097595214844 195.78993225097656 224.04478454589844 C 194.94815063476562 223.82984924316406 194.18246459960938 223.5102081298828 193.51412963867188 223.05084228515625 C 192.93487548828125 222.4593505859375 192.4320526123047 221.7359619140625 192.0031280517578 220.88807678222656 C 191.63534545898438 219.93878173828125 191.30348205566406 218.91934204101562 191.0015869140625 217.85325622558594 C 190.7224578857422 216.7543487548828 190.44227600097656 215.66461181640625 190.1761932373047 214.58212280273438 C 189.9011688232422 213.52125549316406 189.62020874023438 212.48159790039062 189.30584716796875 211.47622680664062 C 188.96995544433594 210.48265075683594 188.6003875732422 209.51852416992188 188.1834716796875 208.5845489501953 C 187.72152709960938 207.65704345703125 187.223388671875 206.74517822265625 186.69488525390625 205.8236083984375 C 186.1797332763672 204.89398193359375 185.70236206054688 203.93785095214844 185.2430877685547 202.92990112304688 C 184.8463897705078 201.87721252441406 184.49273681640625 200.76617431640625 184.17529296875 199.57481384277344 C 183.89634704589844 198.33169555664062 183.63160705566406 197.04310607910156 183.36830139160156 195.70274353027344 C 183.0985565185547 194.34048461914062 182.79515075683594 192.97105407714844 182.46743774414062 191.61813354492188 C 182.10940551757812 190.32681274414062 181.73374938964844 189.09461975097656 181.35240173339844 187.939453125 C 180.98765563964844 186.87791442871094 180.6463165283203 185.89308166503906 180.33372497558594 184.99183654785156 C 180.0338592529297 184.1527099609375 179.73182678222656 183.37779235839844 179.41549682617188 182.63400268554688 C 179.0501251220703 181.90943908691406 178.6388702392578 181.21185302734375 178.17413330078125 180.516357421875 C 177.6448516845703 179.798583984375 177.09176635742188 179.06631469726562 176.5050506591797 178.31829833984375 C 175.93136596679688 177.5455780029297 175.37945556640625 176.73475646972656 174.86355590820312 175.900634765625 C 174.3821258544922 175.03955078125 173.93235778808594 174.14105224609375 173.5074005126953 173.2189483642578 C 173.09864807128906 172.2870635986328 172.66380310058594 171.33978271484375 172.1948699951172 170.4180908203125 C 171.66441345214844 169.5089111328125 171.0873565673828 168.6217803955078 170.4689178466797 167.7608642578125 C 169.8191680908203 166.88565063476562 169.14610290527344 165.9953155517578 168.45327758789062 165.10586547851562 C 167.74517822265625 164.221435546875 167.0474395751953 163.3382568359375 171.41407775878906 166.3857421875" stroke-width="0.0" fill="rgb(132, 141, 148)" opacity="0.9998791" stroke="rgb(74, 169, 194)" stroke-opacity="0.7353434" stroke-linecap="round" stroke-linejoin="round"/>
    <path d="M 27.03042221069336 187.54241943359375 C 27.288700103759766 188.39796447753906 27.562625885009766 189.25881958007812 27.847196578979492 190.14593505859375 C 28.15296173095703 191.07705688476562 28.501575469970703 192.03463745117188 28.870466232299805 193.05191040039062 C 29.268674850463867 194.1025848388672 29.68049430847168 195.19305419921875 30.087488174438477 196.33804321289062 C 30.48423194885254 197.49594116210938 30.825342178344727 198.65499877929688 31.12110137939453 199.80215454101562 C 31.3290958404541 200.8831329345703 31.422399520874023 201.85243225097656 31.418193817138672 202.68917846679688 C 31.297290802001953 203.36399841308594 31.05865478515625 203.81959533691406 30.719953536987305 204.06930541992188 C 30.28569793701172 204.1053009033203 29.77573013305664 203.92042541503906 29.224376678466797 203.53143310546875 C 28.627286911010742 202.9706268310547 28.007192611694336 202.26905822753906 27.37339973449707 201.4709930419922 C 26.721742630004883 200.64306640625 26.044330596923828 199.8241729736328 25.339567184448242 199.07354736328125 C 24.582874298095703 198.4312744140625 23.780115127563477 197.93092346191406 22.922332763671875 197.6007843017578 C 22.011070251464844 197.4551239013672 21.078449249267578 197.4913330078125 20.119556427001953 197.69784545898438 C 19.15995979309082 198.06259155273438 18.241107940673828 198.5697479248047 17.37867546081543 199.2069091796875 C 16.58733367919922 199.9394073486328 15.904027938842773 200.7610626220703 15.336527824401855 201.65518188476562 C 14.890328407287598 202.599609375 14.554452896118164 203.60511779785156 14.325813293457031 204.64881896972656 C 14.215829849243164 205.72048950195312 14.18655014038086 206.81536865234375 14.25770378112793 207.92466735839844 C 14.395461082458496 209.01681518554688 14.616308212280273 210.09458923339844 14.928362846374512 211.1066131591797 C 15.31052303314209 212.02987670898438 15.784049034118652 212.8545684814453 16.36310577392578 213.5470428466797 C 17.022064208984375 214.06634521484375 17.788772583007812 214.4176483154297 18.635955810546875 214.5962371826172 C 19.552648544311523 214.5908203125 20.54271125793457 214.40774536132812 21.57686996459961 214.0882568359375 C 22.6274356842041 213.65806579589844 23.690162658691406 213.1811981201172 24.731809616088867 212.70570373535156 C 25.73335075378418 212.3087158203125 26.690324783325195 212.02708435058594 27.572566986083984 211.89273071289062 C 28.371307373046875 211.970703125 29.077072143554688 212.2393035888672 29.6804256439209 212.6986541748047 C 30.16192626953125 213.34547424316406 30.50525665283203 214.12379455566406 30.723569869995117 215.00538635253906 C 30.78632354736328 215.94679260253906 30.689048767089844 216.90257263183594 30.435604095458984 217.8613739013672 C 30.022174835205078 218.78152465820312 29.4455623626709 219.65841674804688 28.729825973510742 220.512451171875 C 27.881454467773438 221.338134765625 26.928607940673828 222.16014099121094 25.911090850830078 222.98904418945312 C 24.859235763549805 223.8340301513672 23.800264358520508 224.72613525390625 22.784677505493164 225.64404296875 C 21.826007843017578 226.60379028320312 20.95505714416504 227.57579040527344 20.160860061645508 228.54376220703125 C 19.464153289794922 229.52044677734375 18.83296012878418 230.47669982910156 18.273578643798828 231.40972900390625 C 17.7576904296875 232.32968139648438 17.27495002746582 233.21636962890625 16.812191009521484 234.08795166015625 C 16.361202239990234 234.9501190185547 15.909480094909668 235.80369567871094 15.450410842895508 236.65667724609375 C 14.98660659790039 237.51620483398438 14.49377727508545 238.3693084716797 13.979837417602539 239.2596435546875 C 13.43178653717041 240.18264770507812 12.840717315673828 241.1610870361328 12.208529472351074 242.22576904296875 C 11.530950546264648 243.4134063720703 10.801434516906738 244.75103759765625 10.013880729675293 246.25059509277344 C 9.177878379821777 247.9511260986328 8.312172889709473 249.84242248535156 7.415032863616943 251.8949737548828 C 6.508610725402832 254.0833282470703 5.620387554168701 256.3575744628906 4.747692584991455 258.65606689453125 C 3.9268131256103516 260.92071533203125 3.1741528511047363 263.0657958984375 2.4798038005828857 265.0032653808594 C 1.8645070791244507 266.6666259765625 1.3421611785888672 267.98272705078125 0.8937441110610962 268.8697204589844 C 0.5315567851066589 269.3193054199219 0.2658250331878662 269.3215637207031 0.06916089355945587 268.871826171875 C -0.04865557327866554 268.0166931152344 -0.10790370404720306 266.79962158203125 -0.12472090125083923 265.26885986328125 C -0.11010090261697769 263.4793701171875 -0.06941302865743637 261.4796447753906 -0.04480092599987984 259.3067932128906 C -0.028238408267498016 257.0094299316406 -0.05181916803121567 254.6500701904297 -0.10565625876188278 252.2584686279297 C -0.1767600178718567 249.87049865722656 -0.2659675180912018 247.53958129882812 -0.3376171588897705 245.30935668945312 C -0.3647979497909546 243.21022033691406 -0.29918885231018066 241.29348754882812 -0.0994718074798584 239.57913208007812 C 0.2626546323299408 238.0854949951172 0.8191250562667847 236.83416748046875 1.6028015613555908 235.8154296875 C 2.597961902618408 235.0139617919922 3.7977476119995117 234.39389038085938 5.186666488647461 233.9207000732422 C 6.6767988204956055 233.54164123535156 8.202424049377441 233.16075134277344 9.66169548034668 232.73960876464844 C 10.944252967834473 232.2026824951172 11.976448059082031 231.5108184814453 12.673876762390137 230.65298461914062 C 12.981170654296875 229.61831665039062 12.868813514709473 228.43975830078125 12.324406623840332 227.15390014648438 C 11.363656044006348 225.8103485107422 10.056227684020996 224.465087890625 8.50029182434082 223.18203735351562 C 6.831956386566162 221.9851531982422 5.170188903808594 220.90655517578125 3.6503963470458984 219.95179748535156 C 2.4115967750549316 219.0953369140625 1.5411163568496704 218.3102569580078 1.1063603162765503 217.58416748046875 C 1.1568057537078857 216.90054321289062 1.6819851398468018 216.20022583007812 2.5995187759399414 215.44692993164062 C 3.7762203216552734 214.6082763671875 5.074514865875244 213.61962890625 6.374834060668945 212.4366912841797 C 7.483697414398193 211.02647399902344 8.283896446228027 209.37782287597656 8.776862144470215 207.49757385253906 C 9.04517650604248 205.47523498535156 9.199024200439453 203.431396484375 9.380187034606934 201.4208984375 C 9.680678367614746 199.49842834472656 10.200034141540527 197.7391357421875 10.983254432678223 196.20986938476562 C 12.040552139282227 194.89773559570312 13.344514846801758 193.82684326171875 14.90179443359375 192.98312377929688 C 16.680583953857422 192.34161376953125 18.62251853942871 191.8920135498047 20.693193435668945 191.60977172851562 C 22.864505767822266 191.42523193359375 25.078622817993164 191.27377319335938 27.03042221069336 187.54241943359375" stroke-width="0.0" fill="rgb(138, 218, 108)" opacity="0.9999356" stroke="rgb(14, 84, 137)" stroke-opacity="0.21954158" stroke-linecap="round" stroke-linejoin="round"/>
    <path d="M 10.54550552368164 46.97083282470703 C 11.657683372497559 47.77234649658203 12.777215957641602 48.571163177490234 13.893525123596191 49.36682891845703 C 15.021336555480957 50.179752349853516 16.138160705566406 50.98838424682617 17.25653839111328 51.8063850402832 C 18.37298011779785 52.64162063598633 19.46328353881836 53.492584228515625 20.532241821289062 54.35377502441406 C 21.56470489501953 55.244571685791016 22.528766632080078 56.158477783203125 23.431489944458008 57.09130859375 C 24.24001693725586 58.045040130615234 24.944318771362305 59.01797866821289 25.541994094848633 60.005088806152344 C 26.03252410888672 61.00477600097656 26.402463912963867 62.013912200927734 26.662866592407227 63.0278205871582 C 26.8308048248291 64.04768371582031 26.918014526367188 65.05644226074219 26.9560546875 66.06684112548828 C 26.950904846191406 67.08300018310547 26.94520378112793 68.09024047851562 26.946678161621094 69.08741760253906 C 26.966222763061523 70.0868148803711 27.02414321899414 71.09406280517578 27.13869285583496 72.08586883544922 C 27.2744140625 73.08757019042969 27.430713653564453 74.0953140258789 27.592212677001953 75.10006713867188 C 27.703521728515625 76.10628509521484 27.764436721801758 77.13481903076172 27.743242263793945 78.17144775390625 C 27.61919593811035 79.20318603515625 27.38294219970703 80.2575912475586 27.048376083374023 81.32901763916016 C 26.60464096069336 82.40100860595703 26.07046127319336 83.48686218261719 25.470293045043945 84.594970703125 C 24.815046310424805 85.71017456054688 24.118064880371094 86.82931518554688 23.406517028808594 87.95215606689453 C 22.67219352722168 89.07276916503906 21.92753791809082 90.16912841796875 21.16802215576172 91.22366333007812 C 20.376419067382812 92.22833251953125 19.546358108520508 93.16519927978516 18.678129196166992 94.00384521484375 C 17.762454986572266 94.722412109375 16.811933517456055 95.31092071533203 15.840810775756836 95.72615051269531 C 14.854557037353516 95.98501586914062 13.870803833007812 96.0615005493164 12.929585456848145 95.94634246826172 C 12.038131713867188 95.65785217285156 11.199010848999023 95.20421600341797 10.43962287902832 94.58073425292969 C 9.761228561401367 93.83887481689453 9.150910377502441 92.99745178222656 8.598474502563477 92.06552124023438 C 8.095508575439453 91.06497955322266 7.598954677581787 90.02362823486328 7.111462593078613 88.9552001953125 C 6.610032081604004 87.8624496459961 6.055141448974609 86.7588119506836 5.467594146728516 85.65420532226562 C 4.819878578186035 84.53256225585938 4.139317512512207 83.41280364990234 3.453338384628296 82.26946258544922 C 2.743886947631836 81.11648559570312 2.057264804840088 79.98362731933594 1.443273663520813 78.87935638427734 C 0.8901413679122925 77.80238342285156 0.4469514787197113 76.80364227294922 0.15241654217243195 75.91059875488281 C -0.015937335789203644 75.1321792602539 -0.03228577971458435 74.50446319580078 0.10159514844417572 74.0388412475586 C 0.36626341938972473 73.74848937988281 0.8200076818466187 73.63726043701172 1.403596043586731 73.709228515625 C 2.0988991260528564 73.96819305419922 2.858480930328369 74.40186309814453 3.6533703804016113 75.00253295898438 C 4.461619853973389 75.75769805908203 5.275237083435059 76.6226577758789 6.041009902954102 77.60969543457031 C 6.742281913757324 78.7040786743164 7.424668312072754 79.87881469726562 8.076169967651367 81.09844970703125 C 8.649994850158691 82.3017807006836 9.274118423461914 83.41600036621094 9.974109649658203 84.42811584472656 C 10.765836715698242 85.37472534179688 11.560056686401367 86.20355224609375 12.3883638381958 86.87196350097656 C 13.304792404174805 87.26921081542969 14.325566291809082 87.40702819824219 15.487579345703125 87.29647827148438 C 16.712520599365234 86.83519744873047 17.886789321899414 86.1491470336914 18.964834213256836 85.27452087402344 C 19.97511100769043 84.23899841308594 20.873815536499023 83.09575653076172 21.617286682128906 81.8668212890625 C 22.201122283935547 80.64662170410156 22.634506225585938 79.44810485839844 22.970630645751953 78.28596496582031 C 23.17646598815918 77.20707702636719 23.28812026977539 76.22117614746094 23.304306030273438 75.32479858398438 C 23.22734832763672 74.51390838623047 23.06790542602539 73.7711410522461 22.84194564819336 73.04043579101562 C 22.53136444091797 72.29707336425781 22.14958381652832 71.52957916259766 21.679765701293945 70.73394775390625 C 21.098608016967773 69.90379333496094 20.41280746459961 69.03606414794922 19.641569137573242 68.13072967529297 C 18.78924560546875 67.19416046142578 17.880823135375977 66.23296356201172 16.908594131469727 65.3357925415039 C 15.907443046569824 64.49788665771484 14.883577346801758 63.76493835449219 13.847600936889648 63.172401428222656 C 12.811629295349121 62.72541809082031 11.786894798278809 62.446510314941406 10.76724624633789 62.355430603027344 C 9.750625610351562 62.43571853637695 8.72623348236084 62.66973876953125 7.698570251464844 63.013938903808594 C 6.667882919311523 63.42784118652344 5.6408371925354 63.855438232421875 4.635981559753418 64.23738098144531 C 3.6638834476470947 64.54170989990234 2.7506184577941895 64.70600891113281 1.9231951236724854 64.72578430175781 C 1.1822806596755981 64.56620025634766 0.5645050406455994 64.22705841064453 0.05939554423093796 63.72419357299805 C -0.3308957517147064 63.0687141418457 -0.5993051528930664 62.26613998413086 -0.7613959312438965 61.3540153503418 C -0.8360377550125122 60.35060501098633 -0.8380953073501587 59.28612518310547 -0.780268132686615 58.18606185913086 C -0.677308201789856 57.0886344909668 -0.5289286971092224 56.03636169433594 -0.322926789522171 55.04527282714844 C -0.051352642476558685 54.123023986816406 0.2849952280521393 53.2956428527832 0.6889945268630981 52.57639694213867 C 1.167771577835083 51.95671463012695 1.7090119123458862 51.44461441040039 2.3134820461273193 51.01688766479492 C 2.9707772731781006 50.651309967041016 3.651395082473755 50.34521484375 4.354290008544922 50.06492614746094 C 5.0808281898498535 49.805442810058594 5.819236755371094 49.55610275268555 10.54550552368164 46.97083282470703" stroke-width="0.0" fill="rgb(33, 43, 26)" opacity="0.99974096" stroke="rgb(70, 203, 205)" stroke-opacity="0.9360626" stroke-linecap="round" stroke-linejoin="round"/>
    <path d="M 274.7755432128906 213.4350128173828 C 274.9916076660156 214.58229064941406 275.190185546875 215.74827575683594 275.3963623046875 216.89596557617188 C 275.613525390625 218.01792907714844 275.820556640625 219.1262664794922 276.0496520996094 220.18963623046875 C 276.31610107421875 221.18505859375 276.61993408203125 222.123046875 277.0077819824219 222.99781799316406 C 277.4684143066406 223.7792205810547 278.033935546875 224.47784423828125 278.6987609863281 225.10220336914062 C 279.4593200683594 225.64573669433594 280.3170166015625 226.13230895996094 281.2522277832031 226.5835723876953 C 282.2509460449219 227.00436401367188 283.2970886230469 227.41281127929688 284.3716125488281 227.8454132080078 C 285.4573669433594 228.2855224609375 286.5488586425781 228.77157592773438 287.6393127441406 229.28646850585938 C 288.7120056152344 229.8395233154297 289.7579345703125 230.4360809326172 290.8065185546875 231.06436157226562 C 291.83740234375 231.71878051757812 292.8460693359375 232.39869689941406 293.8592529296875 233.0897979736328 C 294.8533935546875 233.77581787109375 295.83941650390625 234.451416015625 296.8347473144531 235.1079559326172 C 297.82989501953125 235.7180633544922 298.822509765625 236.29071044921875 299.8337707519531 236.80580139160156 C 300.87060546875 237.25302124023438 301.9118347167969 237.64102172851562 302.9658203125 237.96575927734375 C 304.03521728515625 238.2332305908203 305.09588623046875 238.47177124023438 306.12237548828125 238.70333862304688 C 307.1011047363281 238.92845153808594 308.0058898925781 239.1978302001953 308.8009033203125 239.49859619140625 C 309.4479064941406 239.8479766845703 309.92864990234375 240.2413330078125 310.2134094238281 240.65489196777344 C 310.27166748046875 241.08990478515625 310.120361328125 241.5352783203125 309.73931884765625 241.96429443359375 C 309.17236328125 242.35682678222656 308.4364013671875 242.69931030273438 307.5409851074219 242.9713134765625 C 306.5336608886719 243.16494750976562 305.45513916015625 243.280029296875 304.305419921875 243.31161499023438 C 303.1223449707031 243.2548065185547 301.94024658203125 243.1146697998047 300.7484436035156 242.8995819091797 C 299.5679931640625 242.6232452392578 298.4189453125 242.28819274902344 297.2884216308594 241.91421508789062 C 296.17816162109375 241.51458740234375 295.0982971191406 241.09457397460938 294.04119873046875 240.6747589111328 C 293.00018310546875 240.27197265625 291.9771728515625 239.87225341796875 290.9761047363281 239.5222930908203 C 289.9927062988281 239.17471313476562 289.0203552246094 238.88491821289062 288.0542297363281 238.60902404785156 C 287.0993347167969 238.36807250976562 286.14630126953125 238.13211059570312 285.1841125488281 237.9267578125 C 284.21258544921875 237.7156219482422 283.2373962402344 237.49545288085938 282.2497863769531 237.2892303466797 C 281.24273681640625 237.0667724609375 280.2360534667969 236.8452911376953 279.22381591796875 236.62884521484375 C 278.2044372558594 236.41920471191406 277.2039489746094 236.21478271484375 276.22698974609375 236.01947021484375 C 275.2604675292969 235.83694458007812 274.3299255371094 235.6516571044922 273.4372863769531 235.46327209472656 C 272.5685729980469 235.25608825683594 271.7366027832031 234.99578857421875 270.9322204589844 234.68792724609375 C 270.1417236328125 234.30380249023438 269.3807678222656 233.82073974609375 268.62054443359375 233.24240112304688 C 267.8804626464844 232.5445556640625 267.1517028808594 231.7373046875 266.4478454589844 230.82391357421875 C 265.7826843261719 229.8202362060547 265.1695556640625 228.7438201904297 264.6236877441406 227.60458374023438 C 264.1673583984375 226.41635131835938 263.8152160644531 225.21871948242188 263.58392333984375 224.01808166503906 C 263.4930114746094 222.83384704589844 263.53497314453125 221.6977996826172 263.7201843261719 220.6189422607422 C 264.03717041015625 219.60549926757812 264.4627685546875 218.6593475341797 264.9847106933594 217.77577209472656 C 265.5710754394531 216.95558166503906 266.20263671875 216.18003845214844 266.8545837402344 215.43084716796875 C 267.5168762207031 214.70245361328125 268.18414306640625 213.9769744873047 274.7755432128906 213.4350128173828" stroke-width="0.0" fill="rgb(120, 169, 100)" opacity="1.0" stroke="rgb(148, 210, 226)" stroke-opacity="0.54241514" stroke-linecap="round" stroke-linejoin="round"/>
  </g>
</svg>
