<?xml version="1.0" ?>
<svg xmlns="http://www.w3.org/2000/svg" version="1.1" width="353" height="294">
  <defs/>
  <g>
    <path d="M -14.480779647827148 1.420351266860962 C -10.922233581542969 0.05861247330904007 -6.936498165130615 -1.3116707801818848 -1.7266544103622437 -2.716468095779419 C 5.491853713989258 -3.9216954708099365 15.212150573730469 -4.867545127868652 27.843469619750977 -5.41543436050415 C 43.39754104614258 -5.283190727233887 60.4525260925293 -4.005966663360596 77.5396957397461 -1.3415780067443848 C 91.99988555908203 2.120488405227661 99.61749267578125 8.24522876739502 96.53026580810547 17.34504508972168 C 79.43928527832031 17.510847091674805 63.7612190246582 28.15871238708496 44.19770812988281 28.164154052734375 C 32.85566711425781 32.29311752319336 29.760915756225586 42.86913299560547 34.200286865234375 49.18917465209961 C 39.87059020996094 52.58893585205078 50.23955535888672 46.089027404785156 61.6112060546875 36.676212310791016 C 75.90116119384766 38.34347915649414 99.64659881591797 38.53139114379883 112.66024017333984 33.547420501708984 C 126.67925262451172 29.047592163085938 139.46392822265625 31.79035186767578 145.9240264892578 29.230379104614258 C 144.95883178710938 12.00362777709961 145.0829620361328 4.5166144371032715 150.90289306640625 0.11833138763904572 C 159.5092010498047 2.753926992416382 167.25411987304688 12.85206127166748 176.73353576660156 17.68520164489746 C 186.57635498046875 3.3567159175872803 203.7584991455078 -4.683300018310547 225.5977020263672 -7.143877029418945 C 244.75868225097656 -4.294774055480957 255.51097106933594 2.6972479820251465 261.4926452636719 13.723506927490234 C 262.1825866699219 24.138795852661133 257.2337951660156 31.423444747924805 244.0775909423828 27.526552200317383 C 244.234375 29.865558624267578 245.47573852539062 27.437543869018555 253.7689971923828 27.29169464111328 C 262.92071533203125 27.51358413696289 271.5460510253906 36.206703186035156 281.2486877441406 50.681739807128906 C 286.3898010253906 60.711795806884766 279.6065979003906 65.53002166748047 265.98028564453125 68.1769027709961 C 254.71231079101562 81.46086120605469 249.72425842285156 101.27798461914062 249.3920135498047 126.83006286621094 C 257.5804443359375 140.80014038085938 271.2769470214844 148.03787231445312 283.91448974609375 147.43348693847656 C 285.9118957519531 129.35931396484375 282.5743713378906 106.50142669677734 279.68023681640625 83.74436950683594 C 290.0804443359375 68.08438110351562 301.3724365234375 56.29133987426758 309.04486083984375 48.78054428100586 C 312.08441162109375 46.77725601196289 308.85968017578125 46.860660552978516 296.8269958496094 50.36297607421875 C 289.0047607421875 44.69883346557617 285.1924743652344 36.52490997314453 281.99774169921875 21.552202224731445 C 289.1530456542969 12.17183780670166 301.4796447753906 2.6391372680664062 316.0572204589844 -3.176731586456299 C 331.6332702636719 -3.2327921390533447 345.4139099121094 0.47332170605659485 357.98590087890625 7.966959476470947 C 356.6158447265625 29.244434356689453 358.7671813964844 47.13574981689453 358.6553649902344 67.6950912475586 C 358.10223388671875 89.22024536132812 358.1849365234375 110.8275146484375 358.3385009765625 132.4138946533203 C 360.1488037109375 153.54124450683594 361.7757568359375 174.18101501464844 363.6349792480469 194.58941650390625 C 365.4329528808594 214.79966735839844 365.9020690917969 233.19387817382812 364.70135498046875 250.7396240234375 C 361.0483703613281 267.2055969238281 355.2355651855469 281.4162902832031 346.68328857421875 293.7365417480469 C 331.3973693847656 302.7466125488281 314.50311279296875 309.7738037109375 294.7880554199219 314.6365051269531 C 272.9779968261719 317.4404602050781 249.3666229248047 318.3810729980469 224.7115020751953 318.5113830566406 C 200.986572265625 316.858154296875 180.19984436035156 312.8384094238281 156.79037475585938 310.4331970214844 C 142.80868530273438 299.9894714355469 134.63050842285156 286.3150329589844 126.25251770019531 271.4603271484375 C 124.60918426513672 259.70037841796875 116.9586410522461 258.8738098144531 108.03626251220703 264.3475646972656 C 99.7237777709961 269.104248046875 97.00045776367188 278.8641052246094 98.73163604736328 286.0927429199219 C 101.3240966796875 292.6987609863281 96.22980499267578 298.3578796386719 85.48401641845703 301.3114318847656 C 70.50157928466797 302.69976806640625 52.749114990234375 302.6714782714844 34.29964828491211 302.6375427246094 C 18.268632888793945 299.3149719238281 6.855992317199707 292.6446838378906 1.9303748607635498 280.4831848144531 C 0.14566142857074738 266.0394287109375 8.440303802490234 251.1875 15.85158634185791 238.2764892578125 C 22.08854103088379 225.30262756347656 28.11463165283203 219.9835968017578 34.55299758911133 220.23153686523438 C 36.645145416259766 229.6332244873047 40.6230354309082 232.48977661132812 41.65745544433594 233.0729217529297 C 38.168617248535156 231.92739868164062 34.502174377441406 224.17758178710938 30.588376998901367 212.58876037597656 C 35.25790023803711 200.47393798828125 35.687965393066406 189.74095153808594 37.908695220947266 179.3448028564453 C 44.18247604370117 171.4862823486328 39.95857238769531 164.8488006591797 31.390869140625 174.0311737060547 C 18.555967330932617 174.7896728515625 6.703174114227295 173.18618774414062 -1.167391061782837 168.9056854248047 C -1.4053263664245605 157.6973419189453 4.149755001068115 145.27120971679688 13.100162506103516 134.18606567382812 C 36.72382354736328 128.26800537109375 48.89478302001953 118.68083190917969 64.22776794433594 117.03783416748047 C 76.28549194335938 119.61882781982422 85.02176666259766 123.34483337402344 91.66016387939453 127.8454818725586 C 97.69915771484375 131.62799072265625 104.46871185302734 134.8328399658203 112.02880096435547 137.8726348876953 C 120.51671600341797 141.512451171875 130.22474670410156 146.24720764160156 141.103271484375 152.0245361328125 C 152.10032653808594 159.54481506347656 163.35707092285156 163.66932678222656 175.79685974121094 166.1563720703125 C 184.05970764160156 160.8745880126953 188.74331665039062 152.1953582763672 192.32516479492188 140.19363403320312 C 189.9278564453125 128.38446044921875 182.27005004882812 117.45328521728516 170.88404846191406 106.2251968383789 C 158.40341186523438 98.1766128540039 142.61630249023438 96.18061828613281 126.61261749267578 101.64250183105469 C 106.4714126586914 104.5157241821289 87.13626861572266 106.31147766113281 68.03832244873047 106.31707763671875 C 51.25044250488281 97.21617889404297 36.763641357421875 96.71966552734375 31.04660415649414 106.01010131835938 C 16.80963134765625 108.72240447998047 7.512510776519775 107.33457946777344 -4.584535598754883 105.19831848144531 C -4.4752373695373535 94.74569702148438 -7.587696075439453 82.53209686279297 -9.848811149597168 66.86180114746094 C -10.895724296569824 49.90287399291992 -12.246768951416016 33.697967529296875 -14.480779647827148 1.420351266860962" stroke-width="0.0" fill="rgb(125, 184, 103)" opacity="0.99999356" stroke="rgb(23, 140, 144)" stroke-opacity="0.867762" stroke-linecap="round" stroke-linejoin="round"/>
    <path d="M 188.97181701660156 48.48881530761719 C 187.24374389648438 45.7849006652832 186.42001342773438 44.221492767333984 183.55715942382812 43.895938873291016 C 182.22537231445312 44.68149948120117 182.29238891601562 45.330406188964844 182.33218383789062 45.50923156738281 C 183.05528259277344 46.53896713256836 184.61631774902344 47.09021759033203 183.58531188964844 49.26442337036133 C 185.43917846679688 49.76355743408203 194.17819213867188 49.09668731689453 200.08108520507812 51.19063186645508 C 207.01409912109375 54.733299255371094 212.4745330810547 58.71195602416992 218.56427001953125 63.146270751953125 C 226.4610137939453 67.29736328125 232.2562255859375 73.05381774902344 236.23838806152344 78.78512573242188 C 239.477783203125 83.21371459960938 241.64466857910156 86.12406921386719 243.73892211914062 88.02552795410156 C 246.39422607421875 88.17657470703125 250.2978973388672 85.61195373535156 251.58322143554688 80.78248596191406 C 255.95448303222656 76.4218978881836 260.2831115722656 70.95533752441406 263.90838623046875 69.28593444824219 C 261.2572021484375 77.27569580078125 253.4443359375 84.25709533691406 252.0691375732422 96.9708251953125 C 249.50912475585938 113.10343170166016 249.92543029785156 124.36101531982422 258.2223815917969 133.70443725585938 C 270.31427001953125 142.5230255126953 272.9170227050781 148.22421264648438 283.65380859375 143.96517944335938 C 283.3102111816406 135.10977172851562 277.47393798828125 124.24310302734375 273.31036376953125 110.75635528564453 C 272.2988586425781 98.04557800292969 277.6899719238281 88.71479034423828 280.1127624511719 79.10123443603516 C 282.53240966796875 76.19702911376953 281.94293212890625 77.34436798095703 281.2504577636719 88.5366439819336 C 286.6488037109375 87.44224548339844 294.02178955078125 86.5762939453125 302.7352294921875 86.39734649658203 C 312.96148681640625 90.8045654296875 323.546875 96.0894775390625 334.9796447753906 99.25850677490234 C 343.1924743652344 106.37187194824219 348.73883056640625 112.69254302978516 350.01617431640625 117.19880676269531 C 341.8034973144531 119.10369873046875 339.21734619140625 124.81351470947266 340.4143371582031 127.46958923339844 C 351.12896728515625 131.6194610595703 355.84918212890625 140.0583953857422 351.97943115234375 152.23046875 C 345.50250244140625 155.7598114013672 346.6437683105469 147.1843719482422 341.01397705078125 141.10179138183594 C 334.36614990234375 138.58839416503906 331.0318908691406 147.63209533691406 331.5726013183594 156.49440002441406 C 325.2843017578125 154.0826873779297 320.578857421875 147.4282684326172 307.43951416015625 145.85865783691406 C 301.5401611328125 149.12818908691406 297.3499755859375 158.63124084472656 292.7367858886719 161.623046875 C 301.6316833496094 160.98031616210938 312.105224609375 157.22000122070312 320.5557861328125 158.51202392578125 C 329.5230407714844 167.15994262695312 337.15386962890625 175.76934814453125 347.8287353515625 180.5020751953125 C 350.2838439941406 190.0019073486328 351.6326599121094 198.6473846435547 345.9350280761719 204.2570343017578 C 351.69757080078125 213.01681518554688 356.51397705078125 225.16781616210938 361.89727783203125 237.16600036621094 C 360.75408935546875 251.4187469482422 360.34906005859375 265.6727600097656 359.38824462890625 278.3724365234375 C 357.6016845703125 289.2619323730469 351.35577392578125 293.6103515625 343.3994140625 288.9150390625 C 335.8111877441406 281.1476745605469 324.2007751464844 276.9255676269531 317.8822021484375 281.7689514160156 C 311.2022399902344 287.0846252441406 314.9607238769531 287.805908203125 326.385498046875 287.1560974121094 C 334.7568664550781 287.5091857910156 334.3895263671875 289.3408203125 331.6700744628906 298.7986755371094 C 320.298583984375 298.75543212890625 303.41693115234375 299.49395751953125 287.2930908203125 302.289306640625 C 271.2467956542969 299.9665222167969 258.19671630859375 298.3354187011719 245.9880828857422 291.1586608886719 C 239.29737854003906 282.42913818359375 230.1974334716797 275.3266296386719 221.36077880859375 275.4304504394531 C 209.79603576660156 273.0365905761719 199.17945861816406 272.1143493652344 191.80422973632812 277.2646179199219 C 187.53759765625 285.3176574707031 176.056396484375 290.6033935546875 166.50335693359375 295.205810546875 C 157.63877868652344 293.64971923828125 148.06178283691406 292.23944091796875 147.2125244140625 284.1756286621094 C 150.50927734375 275.4755859375 152.8296661376953 263.9847717285156 156.8142547607422 258.4201965332031 C 148.8079833984375 257.24945068359375 144.84178161621094 263.02716064453125 131.0889892578125 260.8860168457031 C 119.50560760498047 259.4888610839844 111.80208587646484 251.15359497070312 108.6807861328125 244.73562622070312 C 106.24942779541016 232.9387969970703 108.78678894042969 225.27557373046875 107.29674530029297 221.55104064941406 C 100.20649719238281 217.7019500732422 102.53789520263672 207.57998657226562 95.71393585205078 203.7584991455078 C 92.22039794921875 198.0161590576172 90.77955627441406 190.83444213867188 92.95185089111328 184.297119140625 C 96.63558197021484 178.7013397216797 93.51534271240234 173.46099853515625 89.93671417236328 166.8658905029297 C 88.14472198486328 158.8001708984375 86.31832885742188 148.9835662841797 86.69435119628906 143.32029724121094 C 87.27713775634766 137.39498901367188 86.06686401367188 132.11575317382812 86.73196411132812 129.06344604492188 C 85.21561431884766 128.22958374023438 85.06300354003906 126.37321472167969 85.39002227783203 122.97592163085938 C 85.6133804321289 123.42919921875 89.00092315673828 120.16608428955078 90.54234313964844 114.81342315673828 C 93.3705062866211 107.56737518310547 100.91578674316406 101.87760162353516 105.8172836303711 99.3811264038086 C 117.56108093261719 101.89479064941406 127.05650329589844 106.13199615478516 132.0078125 118.43519592285156 C 144.32237243652344 128.384521484375 154.349853515625 141.00770568847656 162.31610107421875 154.26292419433594 C 169.22251892089844 162.99313354492188 174.7364959716797 166.54376220703125 176.8714141845703 164.03457641601562 C 173.5133819580078 152.39598083496094 175.48707580566406 141.0726318359375 183.15841674804688 133.6767578125 C 190.78018188476562 128.1883087158203 189.12380981445312 125.93231964111328 180.31654357910156 120.22156524658203 C 168.0946044921875 112.90462493896484 155.404296875 106.54962921142578 147.4015655517578 95.68806457519531 C 140.78318786621094 90.59923553466797 140.8307647705078 79.3359375 147.71929931640625 71.95487976074219 C 153.71115112304688 62.98877716064453 163.5155487060547 56.27226257324219 175.9993438720703 54.94454574584961 C 182.0022735595703 50.9582633972168 194.1729736328125 48.20185470581055 188.97181701660156 48.48881530761719" stroke-width="0.0" fill="rgb(44, 55, 33)" opacity="0.9999952" stroke="rgb(146, 122, 82)" stroke-opacity="0.24399643" stroke-linecap="round" stroke-linejoin="round"/>
    <path d="M 105.14096069335938 110.1274642944336 C 106.43114471435547 107.06111145019531 113.4930191040039 106.89939880371094 111.77799224853516 108.77814483642578 C 109.27723693847656 107.44689178466797 119.06877136230469 107.59439086914062 121.03980255126953 109.90638732910156 C 116.32669830322266 107.9493408203125 116.24388885498047 111.01747131347656 119.31187438964844 110.0657730102539 C 116.82109069824219 110.7059326171875 122.99457550048828 111.6327896118164 122.86408233642578 113.18364715576172 C 122.79238891601562 113.79586029052734 124.35359954833984 116.91917419433594 125.16683197021484 120.32405090332031 C 125.38066101074219 121.0819320678711 126.37079620361328 123.74751281738281 123.67378997802734 121.20402526855469 C 125.97112274169922 123.40066528320312 127.15921783447266 126.95526123046875 129.59461975097656 127.52696990966797 C 132.37831115722656 127.30249786376953 129.5370330810547 132.43775939941406 131.12667846679688 124.6629638671875 C 131.36244201660156 129.97361755371094 132.2293701171875 134.41891479492188 135.19061279296875 133.2803955078125 C 137.44117736816406 130.52366638183594 134.639892578125 135.32301330566406 139.09613037109375 137.49188232421875 C 143.818603515625 136.44873046875 145.78770446777344 139.7165985107422 143.6111297607422 142.84597778320312 C 144.58877563476562 136.3847198486328 145.8380126953125 143.9306640625 149.4305419921875 144.87049865722656 C 148.0132598876953 144.1947021484375 152.28488159179688 146.3271942138672 155.1785888671875 152.1658477783203 C 155.29884338378906 148.27252197265625 155.4594268798828 153.65614318847656 158.3081817626953 155.4750518798828 C 160.4098663330078 161.1456756591797 162.17327880859375 160.79330444335938 163.03500366210938 160.6757049560547 C 159.7018280029297 160.03643798828125 162.68667602539062 164.4362335205078 165.651123046875 169.16717529296875 C 165.3465576171875 167.62005615234375 166.32968139648438 169.46804809570312 168.4539031982422 172.06332397460938 C 168.29637145996094 167.1110382080078 167.22274780273438 176.7061767578125 171.4278564453125 178.28733825683594 C 170.47317504882812 179.51766967773438 171.48828125 181.1121063232422 172.63291931152344 181.66444396972656 C 174.31521606445312 186.20269775390625 172.0375213623047 193.03921508789062 174.98751831054688 188.23834228515625 C 172.7220458984375 195.65489196777344 178.3672332763672 199.43850708007812 175.73912048339844 192.3566131591797 C 174.64279174804688 196.36251831054688 177.08663940429688 200.8142547607422 178.55052185058594 200.5400390625 C 177.819580078125 199.43658447265625 178.01739501953125 206.68113708496094 180.61270141601562 207.43511962890625 C 182.30589294433594 209.26763916015625 182.13400268554688 211.80845642089844 182.52735900878906 211.70870971679688 C 184.71315002441406 210.8356170654297 182.18994140625 214.9909210205078 184.33200073242188 223.0148162841797 C 185.34469604492188 219.74440002441406 185.31301879882812 222.95339965820312 185.65023803710938 224.8874969482422 C 183.0684356689453 228.31900024414062 183.7938995361328 230.6826171875 181.5281982421875 231.3672332763672 C 181.11758422851562 233.26571655273438 178.17730712890625 234.47019958496094 174.85572814941406 236.07135009765625 C 176.23880004882812 238.1826171875 167.446533203125 238.7268524169922 168.51736450195312 239.1509552001953 C 167.45663452148438 240.22686767578125 163.08154296875 243.85382080078125 161.9557342529297 242.73187255859375 C 161.51026916503906 241.56716918945312 158.95175170898438 243.3941650390625 163.0271453857422 243.39939880371094 C 157.426513671875 245.79908752441406 150.31483459472656 246.15667724609375 145.9367218017578 246.60972595214844 C 147.86337280273438 245.7239990234375 146.6152801513672 245.18185424804688 150.0231475830078 246.68943786621094 C 144.20065307617188 246.79354858398438 139.6862335205078 245.09103393554688 145.58717346191406 246.1042022705078 C 138.01492309570312 247.10292053222656 132.93658447265625 244.39492797851562 132.68365478515625 245.86343383789062 C 130.02235412597656 246.3093719482422 127.36090850830078 241.82728576660156 126.02357482910156 243.8249969482422 C 125.166748046875 240.9096221923828 120.56523132324219 240.0152130126953 119.47623443603516 237.00486755371094 C 119.9261245727539 234.75186157226562 116.51639556884766 233.76058959960938 115.81693267822266 231.73638916015625 C 115.66783905029297 230.7802276611328 116.97283172607422 226.0303497314453 115.62741088867188 225.1073455810547 C 117.74234771728516 225.7278289794922 117.79217529296875 221.87783813476562 117.74909973144531 221.07510375976562 C 119.53874206542969 223.77316284179688 114.7668228149414 220.62062072753906 113.95653533935547 220.87799072265625 C 112.12118530273438 219.83827209472656 107.98104858398438 215.33705139160156 106.90418243408203 212.86941528320312 C 106.96741485595703 211.98472595214844 102.78768920898438 207.90992736816406 103.84872436523438 206.4430389404297 C 101.88102722167969 205.38287353515625 103.15120697021484 199.44876098632812 102.3915786743164 199.81727600097656 C 100.5958480834961 196.8833770751953 98.1104736328125 194.39793395996094 100.07647705078125 195.2200164794922 C 99.05164337158203 194.24949645996094 95.8692855834961 190.82818603515625 96.26852416992188 190.40957641601562 C 96.46788024902344 188.4906768798828 94.22106170654297 184.47605895996094 92.03015899658203 180.1505889892578 C 91.99568176269531 182.4839324951172 93.63467407226562 178.92665100097656 95.24324798583984 177.05894470214844 C 95.2794189453125 175.84144592285156 95.87715911865234 169.75411987304688 95.43895721435547 169.58319091796875 C 94.951416015625 172.0559844970703 94.5043716430664 167.75466918945312 92.53761291503906 167.32154846191406 C 91.13124084472656 166.25253295898438 91.58692932128906 162.47622680664062 90.50975799560547 161.4502716064453 C 90.62738037109375 158.92025756835938 90.00988006591797 155.25782775878906 90.48096466064453 152.5684051513672 C 90.24657440185547 153.10794067382812 91.91786193847656 149.5609893798828 89.81464385986328 149.98460388183594 C 91.21076202392578 147.1032257080078 90.1791763305664 142.0034942626953 90.1865234375 142.52362060546875 C 91.35679626464844 140.03514099121094 89.97875213623047 137.64251708984375 92.15495300292969 134.43617248535156 C 90.92161560058594 132.4633026123047 92.88777160644531 132.97280883789062 91.2879638671875 134.87266540527344 C 93.25234985351562 126.02336883544922 95.18397521972656 123.19551849365234 96.54167175292969 121.28620147705078 C 97.36360168457031 121.19950103759766 98.22315216064453 120.13125610351562 98.6191635131836 117.66348266601562 C 99.6579360961914 116.55323791503906 101.89927673339844 115.27558898925781 103.38428497314453 112.0002212524414 C 106.58365631103516 111.34172058105469 106.79573059082031 108.25518035888672 105.14096069335938 110.1274642944336" stroke-width="0.0" fill="rgb(84, 174, 2)" opacity="0.99998444" stroke="rgb(245, 30, 57)" stroke-opacity="0.21184567" stroke-linecap="round" stroke-linejoin="round"/>
    <path d="M 202.6688232421875 54.32026290893555 C 209.36204528808594 51.48646545410156 208.3398895263672 55.40131759643555 212.51828002929688 56.871952056884766 C 212.79220581054688 57.827186584472656 216.20237731933594 59.45334243774414 217.4227294921875 59.29248809814453 C 216.76593017578125 58.220909118652344 217.66014099121094 59.2412109375 217.87342834472656 60.77402877807617 C 217.47171020507812 58.68330764770508 220.9416046142578 57.687644958496094 214.59738159179688 59.846839904785156 C 220.07327270507812 59.35646438598633 225.9010467529297 61.16873550415039 221.01695251464844 56.28852462768555 C 224.39649963378906 59.362491607666016 222.0208740234375 58.639827728271484 216.914306640625 61.77467346191406 C 224.75048828125 59.06232833862305 226.64337158203125 59.45609664916992 227.3221893310547 60.05560302734375 C 228.28077697753906 59.948726654052734 231.11676025390625 58.60077667236328 227.7641143798828 58.83614730834961 C 228.99234008789062 58.935516357421875 233.7539520263672 58.55448532104492 238.36636352539062 58.96720886230469 C 234.33206176757812 58.08272933959961 235.20909118652344 59.805789947509766 239.51162719726562 59.430763244628906 C 236.66793823242188 60.59809875488281 237.52635192871094 60.773921966552734 245.39031982421875 60.1584358215332 C 242.7935028076172 62.253868103027344 246.58578491210938 60.615997314453125 250.18568420410156 63.11491775512695 C 248.8075714111328 62.40156555175781 252.1158905029297 63.07933044433594 254.97479248046875 63.792179107666016 C 253.76315307617188 64.06805419921875 256.12298583984375 64.603271484375 257.0893859863281 64.18331146240234 C 255.8681640625 68.65868377685547 256.338623046875 70.74125671386719 257.00933837890625 71.34371948242188 C 256.43426513671875 72.0224380493164 254.9328155517578 75.14946746826172 252.9082489013672 75.66072082519531 C 252.70852661132812 74.18399047851562 251.11993408203125 78.3061294555664 251.5277099609375 81.4073257446289 C 250.78189086914062 80.89798736572266 249.48553466796875 81.24089813232422 250.92140197753906 85.49065399169922 C 250.4988555908203 88.1496353149414 249.12539672851562 89.8193130493164 245.8968963623047 90.55659484863281 C 246.3317108154297 90.82869720458984 249.4768524169922 92.81653594970703 245.2978057861328 98.5661392211914 C 246.25343322753906 101.04768371582031 245.69090270996094 102.2426986694336 244.74337768554688 99.86920928955078 C 245.9158935546875 102.21704864501953 246.13597106933594 107.34091186523438 244.78280639648438 105.43492126464844 C 246.20864868164062 109.23210144042969 241.98789978027344 112.5744857788086 241.08392333984375 111.56694030761719 C 244.25108337402344 115.96923828125 239.8072052001953 117.17723846435547 239.53826904296875 120.535400390625 C 239.7162322998047 121.42924499511719 240.29905700683594 124.95376586914062 241.4743194580078 129.41839599609375 C 238.53280639648438 130.58982849121094 238.29075622558594 131.5896453857422 236.01519775390625 133.5099639892578 C 232.92112731933594 133.0172882080078 231.740234375 134.8154754638672 229.8343505859375 134.08721923828125 C 226.92987060546875 133.2643280029297 227.0897216796875 136.1278076171875 226.24163818359375 139.8999481201172 C 222.4394073486328 134.85133361816406 220.768798828125 133.73806762695312 219.05308532714844 134.89918518066406 C 216.99005126953125 136.2174072265625 216.01559448242188 135.271728515625 213.86123657226562 134.26600646972656 C 212.06593322753906 133.0530242919922 211.2069091796875 130.8817901611328 209.0782928466797 132.015869140625 C 207.164306640625 127.21994018554688 202.34523010253906 127.09086608886719 202.3963165283203 124.05828094482422 C 202.4796142578125 125.12418365478516 201.5358123779297 124.71363830566406 195.55108642578125 123.0342025756836 C 196.6474151611328 123.04060363769531 194.19290161132812 121.58363342285156 190.51449584960938 121.75939178466797 C 189.90635681152344 123.3380126953125 188.95323181152344 118.12657165527344 184.26242065429688 116.96015930175781 C 182.1573486328125 119.75218963623047 184.14224243164062 114.43359375 186.9995574951172 116.84423828125 C 185.28460693359375 117.00659942626953 178.5144500732422 111.91576385498047 174.79869079589844 109.651611328125 C 172.90577697753906 107.82725524902344 164.64434814453125 106.76300048828125 173.7712860107422 107.67063903808594 C 171.90965270996094 109.36387634277344 167.56455993652344 104.41471099853516 164.08731079101562 100.18148803710938 C 162.1864013671875 101.70790100097656 162.23468017578125 102.01763153076172 163.2976531982422 99.6794204711914 C 162.40870666503906 96.82711791992188 159.56813049316406 94.94176483154297 162.8101348876953 98.97447967529297 C 162.4120330810547 92.32769775390625 162.6836395263672 87.50011444091797 162.05653381347656 84.83076477050781 C 162.2653045654297 83.6435775756836 162.75279235839844 81.62256622314453 162.53994750976562 80.6208724975586 C 162.9640655517578 79.95965576171875 162.01754760742188 79.08240509033203 161.01190185546875 74.95020294189453 C 164.53822326660156 76.54266357421875 163.47503662109375 77.13065338134766 160.109130859375 77.62519073486328 C 160.5610809326172 75.53187561035156 159.3442840576172 74.61190032958984 159.0487823486328 72.36219024658203 C 158.1897430419922 70.61204528808594 159.9757537841797 68.23127746582031 159.62893676757812 67.4283218383789 C 162.01255798339844 67.18028259277344 164.49215698242188 63.86307144165039 164.99996948242188 66.63634490966797 C 165.17764282226562 66.69961547851562 170.780517578125 67.6549301147461 174.4546356201172 68.60530853271484 C 172.8441162109375 67.97907257080078 172.6439208984375 68.95339965820312 172.18751525878906 68.47576904296875 C 173.68557739257812 70.1280288696289 171.0042724609375 68.31461334228516 166.8946990966797 66.01115417480469 C 167.71885681152344 65.9480972290039 168.15518188476562 65.8440170288086 168.42398071289062 64.24669647216797 C 167.95379638671875 61.81260681152344 170.37539672851562 61.13862228393555 170.66038513183594 61.83988952636719 C 173.58538818359375 58.18496322631836 178.89231872558594 60.98882293701172 178.8713836669922 56.42483139038086 C 183.0656280517578 55.683773040771484 185.5797119140625 55.679141998291016 187.7292938232422 57.96513748168945 C 189.7870330810547 59.727622985839844 191.5413055419922 59.79639434814453 192.4488067626953 60.483760833740234 C 193.556884765625 60.820438385009766 194.7302703857422 60.98067855834961 194.13079833984375 53.967960357666016 C 195.85940551757812 55.380550384521484 197.78488159179688 58.0001335144043 197.3125457763672 55.55865478515625 C 200.4436492919922 56.30440902709961 201.382568359375 52.72939682006836 200.4886932373047 50.551998138427734 C 201.22462463378906 52.1734619140625 199.19871520996094 51.37029266357422 202.6688232421875 54.32026290893555" stroke-width="0.0" fill="rgb(75, 245, 8)" opacity="0.9999439" stroke="rgb(100, 86, 97)" stroke-opacity="0.66450214" stroke-linecap="round" stroke-linejoin="round"/>
    <path d="M 307.8117980957031 89.69635772705078 C 308.8426208496094 90.08073425292969 309.8639221191406 90.4776611328125 310.90313720703125 90.8626708984375 C 311.9461364746094 91.24880981445312 313.0240478515625 91.64922332763672 314.1127624511719 92.03722381591797 C 315.1923828125 92.42489624023438 316.265380859375 92.83303833007812 317.3313903808594 93.23163604736328 C 318.3616027832031 93.66114044189453 319.32574462890625 94.09138488769531 320.22479248046875 94.55192565917969 C 321.01947021484375 95.0221939086914 321.7005920410156 95.52906036376953 322.26812744140625 96.0492172241211 C 322.7171630859375 96.57501983642578 323.0500793457031 97.11556243896484 323.3015441894531 97.63762664794922 C 323.5049133300781 98.13231658935547 323.6890869140625 98.58499908447266 323.89752197265625 98.96760559082031 C 324.1767883300781 99.28034973144531 324.5546569824219 99.51681518554688 325.0668640136719 99.6673812866211 C 325.7157287597656 99.74785614013672 326.506103515625 99.78562927246094 327.443603515625 99.80047607421875 C 328.4974060058594 99.81829833984375 329.64971923828125 99.88288879394531 330.8483581542969 100.0106201171875 C 332.0628662109375 100.23750305175781 333.2497863769531 100.56666564941406 334.3486022949219 101.00688934326172 C 335.3392333984375 101.54701232910156 336.1717224121094 102.19148254394531 336.8362121582031 102.9002685546875 C 337.3175964355469 103.67745208740234 337.5947570800781 104.50641632080078 337.66241455078125 105.35142517089844 C 337.5321350097656 106.22064208984375 337.2216491699219 107.08990478515625 336.751220703125 107.96963500976562 C 336.1475524902344 108.85125732421875 335.4422912597656 109.72111511230469 334.6468200683594 110.60649108886719 C 333.7812194824219 111.48015594482422 332.87298583984375 112.3425521850586 331.93597412109375 113.17937469482422 C 330.961181640625 113.9724349975586 329.9803161621094 114.69790649414062 328.9785461425781 115.3238296508789 C 327.9597473144531 115.82982635498047 326.9517822265625 116.19420623779297 325.94488525390625 116.37580108642578 C 324.9468078613281 116.39923858642578 323.9776611328125 116.23471069335938 323.0640869140625 115.94416046142578 C 322.2068176269531 115.53125 321.4103698730469 115.01447296142578 320.7146301269531 114.47065734863281 C 320.0881042480469 113.9094467163086 319.5242004394531 113.3685531616211 319.03363037109375 112.89496612548828 C 318.5806884765625 112.50090789794922 318.1440124511719 112.19702911376953 317.7101745605469 111.996826171875 C 317.2572326660156 111.88964080810547 316.7780456542969 111.84556579589844 316.2559814453125 111.84869384765625 C 315.6888427734375 111.87818908691406 315.0789794921875 111.88554382324219 314.4335021972656 111.85332489013672 C 313.7486572265625 111.75969696044922 313.02142333984375 111.60199737548828 312.2655944824219 111.36465454101562 C 311.4988098144531 111.06246948242188 310.7174987792969 110.69673156738281 309.92584228515625 110.26372528076172 C 309.1463623046875 109.76517486572266 308.3921203613281 109.21856689453125 307.6561584472656 108.61256408691406 C 306.975830078125 107.95101928710938 306.36944580078125 107.23680114746094 305.820068359375 106.46985626220703 C 305.3695373535156 105.65901184082031 305.0142822265625 104.78717803955078 304.74139404296875 103.89410400390625 C 304.56427001953125 102.964599609375 304.458740234375 102.0014419555664 304.40399169921875 101.02889251708984 C 304.3880920410156 100.04753112792969 304.4021911621094 99.05081176757812 304.4319763183594 98.05023193359375 C 304.44647216796875 97.04927825927734 304.43890380859375 96.03915405273438 304.4255676269531 95.03508758544922 C 304.3863525390625 94.01802825927734 304.31329345703125 93.0059814453125 304.2303161621094 91.98480224609375 C 304.1459655761719 90.96466064453125 304.0439453125 89.94779968261719 307.8117980957031 89.69635772705078" stroke-width="0.0" fill="rgb(63, 252, 7)" opacity="1.0" stroke="rgb(9, 106, 180)" stroke-opacity="0.36813998" stroke-linecap="round" stroke-linejoin="round"/>
    <path d="M 12.355107307434082 62.09931564331055 C 13.189322471618652 62.85550308227539 14.037138938903809 63.61172866821289 14.866252899169922 64.365966796875 C 15.6729736328125 65.1095199584961 16.4672794342041 65.8492202758789 17.210182189941406 66.5823745727539 C 17.928611755371094 67.29884338378906 18.600011825561523 68.0339584350586 19.21832847595215 68.7907943725586 C 19.800840377807617 69.5857925415039 20.341503143310547 70.43943786621094 20.824472427368164 71.36663055419922 C 21.260967254638672 72.36929321289062 21.614669799804688 73.44929504394531 21.88231658935547 74.61302185058594 C 22.047584533691406 75.84515380859375 22.083423614501953 77.1228256225586 21.99506950378418 78.43840026855469 C 21.760478973388672 79.76870727539062 21.404237747192383 81.07770538330078 20.90799903869629 82.33985900878906 C 20.295757293701172 83.53498077392578 19.593524932861328 84.60816192626953 18.803016662597656 85.56298065185547 C 17.94379234313965 86.36637115478516 17.049882888793945 86.98217010498047 16.12043571472168 87.401611328125 C 15.181975364685059 87.64346313476562 14.260663986206055 87.65876770019531 13.365913391113281 87.4837646484375 C 12.500256538391113 87.11692810058594 11.674242973327637 86.5713882446289 10.915492057800293 85.86650848388672 C 10.190694808959961 85.04210662841797 9.522904396057129 84.11444091796875 8.895585060119629 83.10504913330078 C 8.288007736206055 82.05156707763672 7.698015213012695 80.98914337158203 7.110626220703125 79.92123413085938 C 6.504485607147217 78.87369537353516 5.886408805847168 77.8625259399414 5.246193885803223 76.87267303466797 C 4.578495502471924 75.9192886352539 3.8994832038879395 75.0115737915039 3.216010332107544 74.10673522949219 C 2.5553908348083496 73.23030853271484 1.9479984045028687 72.36793518066406 1.4284605979919434 71.50773620605469 C 1.0235991477966309 70.68194580078125 0.7571996450424194 69.88220977783203 0.6542699337005615 69.10884857177734 C 0.7255517244338989 68.38722229003906 0.9686408638954163 67.7251968383789 1.3910977840423584 67.11632537841797 C 1.9798262119293213 66.57788848876953 2.7132225036621094 66.09274291992188 3.5603904724121094 65.65581512451172 C 4.494535446166992 65.25971221923828 5.499731063842773 64.89842224121094 6.53566312789917 64.55477142333984 C 7.578243255615234 64.21055603027344 8.643891334533691 63.88701629638672 12.355107307434082 62.09931564331055" stroke-width="0.0" fill="rgb(22, 23, 19)" opacity="1.0" stroke="rgb(62, 235, 61)" stroke-opacity="0.4529079" stroke-linecap="round" stroke-linejoin="round"/>
    <path d="M 8.519269943237305 185.21734619140625 C 9.418525695800781 185.5242462158203 10.321887016296387 185.82176208496094 11.22792911529541 186.09921264648438 C 12.116758346557617 186.32461547851562 13.026519775390625 186.4823760986328 13.961726188659668 186.56553649902344 C 14.89609146118164 186.54322814941406 15.86426067352295 186.43421936035156 16.857860565185547 186.26087951660156 C 17.8923397064209 186.04217529296875 18.95435333251953 185.84011840820312 20.036218643188477 185.66685485839844 C 21.109106063842773 185.5643768310547 22.152835845947266 185.58151245117188 23.14851951599121 185.7301025390625 C 24.033449172973633 185.9910430908203 24.800228118896484 186.3701171875 25.41080665588379 186.8712158203125 C 25.822834014892578 187.44967651367188 26.032672882080078 188.076904296875 26.05333137512207 188.71493530273438 C 25.87442970275879 189.33677673339844 25.4869441986084 189.88548278808594 24.941129684448242 190.3588409423828 C 24.25859832763672 190.73281860351562 23.461193084716797 191.00827026367188 22.5938663482666 191.2078399658203 C 21.681997299194336 191.35618591308594 20.729612350463867 191.46966552734375 19.766422271728516 191.58628845214844 C 18.769012451171875 191.737060546875 17.755571365356445 191.9357452392578 16.720561981201172 192.19094848632812 C 15.651487350463867 192.52316284179688 14.569413185119629 192.94290161132812 13.471323013305664 193.43417358398438 C 12.39478874206543 194.0015411376953 11.366436958312988 194.63011169433594 10.396134376525879 195.3103485107422 C 9.551620483398438 196.03343200683594 8.836837768554688 196.7932586669922 8.297463417053223 197.58375549316406 C 7.939488410949707 198.4168701171875 7.769636631011963 199.28952026367188 7.7681803703308105 200.19287109375 C 7.902342796325684 201.15435791015625 8.13784408569336 202.1724853515625 8.424604415893555 203.22239685058594 C 8.703258514404297 204.30441284179688 8.931756973266602 205.42124938964844 9.068670272827148 206.5411376953125 C 9.062453269958496 207.64134216308594 8.899554252624512 208.70152282714844 8.564077377319336 209.6912384033203 C 8.064805030822754 210.57650756835938 7.399548053741455 211.33255004882812 6.5990214347839355 211.92662048339844 C 5.699951648712158 212.3379669189453 4.734498500823975 212.5509033203125 3.7487246990203857 212.5487060546875 C 2.8187663555145264 212.3184356689453 1.944391131401062 211.87863159179688 1.2187308073043823 211.23716735839844 C 0.6476187705993652 210.41793823242188 0.2650854289531708 209.45538330078125 0.10409316420555115 208.37046813964844 C 0.13568393886089325 207.2058563232422 0.38601669669151306 205.98187255859375 0.7836185693740845 204.72113037109375 C 1.3086001873016357 203.46014404296875 1.8989638090133667 202.2323760986328 2.499105930328369 201.0373077392578 C 3.057295083999634 199.88583374023438 3.538782835006714 198.81553649902344 3.906169891357422 197.8050079345703 C 4.157210826873779 196.84307861328125 4.284382343292236 195.9475860595703 4.309091567993164 195.0858154296875 C 4.270015716552734 194.22935485839844 4.188536643981934 193.4001922607422 4.093770503997803 192.57289123535156 C 4.009032249450684 191.7260284423828 3.9405574798583984 190.86729431152344 3.8954415321350098 189.99993896484375 C 3.880707263946533 189.1151123046875 3.89458966255188 188.21202087402344 3.9266185760498047 187.3046875 C 3.9677906036376953 186.3980255126953 4.016222953796387 185.47418212890625 8.519269943237305 185.21734619140625" stroke-width="0.0" fill="rgb(128, 224, 98)" opacity="1.0" stroke="rgb(151, 137, 58)" stroke-opacity="0.55227095" stroke-linecap="round" stroke-linejoin="round"/>
    <path d="M 207.62408447265625 138.2147674560547 C 209.27774047851562 138.5888214111328 210.93577575683594 138.9811553955078 212.53529357910156 139.3520050048828 C 214.06983947753906 139.7216339111328 215.51052856445312 140.08709716796875 216.8334197998047 140.4532928466797 C 218.033935546875 140.8110809326172 219.1216278076172 141.18392944335938 220.09902954101562 141.53927612304688 C 220.97715759277344 141.92526245117188 221.7925262451172 142.33876037597656 222.56216430664062 142.75869750976562 C 223.3175048828125 143.2118682861328 224.06739807128906 143.7003173828125 224.81040954589844 144.2057647705078 C 225.5372772216797 144.74217224121094 226.23277282714844 145.28366088867188 226.8775634765625 145.83262634277344 C 227.42279052734375 146.36131286621094 227.85516357421875 146.85333251953125 228.1065673828125 147.29397583007812 C 228.18789672851562 147.65826416015625 228.04798889160156 147.93609619140625 227.72283935546875 148.11947631835938 C 227.20428466796875 148.20852661132812 226.5148468017578 148.2110137939453 225.6959991455078 148.1536865234375 C 224.76771545410156 148.0499267578125 223.7474365234375 147.9363555908203 222.6925048828125 147.82899475097656 C 221.61581420898438 147.73533630371094 220.56240844726562 147.68312072753906 219.55599975585938 147.6778106689453 C 218.60743713378906 147.7100830078125 217.7389373779297 147.7710723876953 216.96337890625 147.82469177246094 C 216.28594970703125 147.84034729003906 215.69142150878906 147.79669189453125 215.18031311035156 147.65672302246094 C 214.72891235351562 147.40679931640625 214.32177734375 147.04519653320312 213.9610137939453 146.56497192382812 C 213.6255645751953 146.0107421875 213.30018615722656 145.404296875 212.99281311035156 144.8103790283203 C 212.6981201171875 144.2748565673828 212.4036407470703 143.85044860839844 212.12142944335938 143.58352661132812 C 211.8706817626953 143.50987243652344 211.6274871826172 143.6363983154297 211.42501831054688 143.96029663085938 C 211.23828125 144.4625701904297 211.06451416015625 145.11309814453125 210.90118408203125 145.87570190429688 C 210.72946166992188 146.69024658203125 210.5197296142578 147.50050354003906 210.26040649414062 148.27609252929688 C 209.93251037597656 148.9545135498047 209.5132293701172 149.50924682617188 208.99659729003906 149.9456787109375 C 208.375732421875 150.2462921142578 207.6644287109375 150.3992919921875 206.86839294433594 150.45748901367188 C 206.03028869628906 150.4176788330078 205.14987182617188 150.3438720703125 204.2734375 150.2565155029297 C 203.41494750976562 150.1818389892578 202.5625457763672 150.1387481689453 201.761474609375 150.10861206054688 C 200.97671508789062 150.0758056640625 200.21591186523438 150.03265380859375 199.48228454589844 149.9648895263672 C 198.76980590820312 149.83766174316406 198.0811004638672 149.62576293945312 197.43988037109375 149.32952880859375 C 196.8467559814453 148.9246826171875 196.347900390625 148.41172790527344 195.95272827148438 147.8241424560547 C 195.69921875 147.1582489013672 195.5959930419922 146.4227294921875 195.63629150390625 145.67681884765625 C 195.8334197998047 144.9063720703125 196.16566467285156 144.1650390625 196.6000213623047 143.45706176757812 C 197.16160583496094 142.79164123535156 197.79029846191406 142.1995849609375 198.504150390625 141.6779022216797 C 199.28038024902344 141.22927856445312 200.08657836914062 140.8462371826172 200.9322967529297 140.51673889160156 C 201.81500244140625 140.22817993164062 202.713623046875 139.96304321289062 203.61038208007812 139.71380615234375 C 204.50936889648438 139.4799041748047 205.4336395263672 139.23680114746094 207.62408447265625 138.2147674560547" stroke-width="0.0" fill="rgb(67, 251, 3)" opacity="0.99990726" stroke="rgb(243, 203, 59)" stroke-opacity="0.5752354" stroke-linecap="round" stroke-linejoin="round"/>
  </g>
</svg>
