<?xml version="1.0" ?>
<svg xmlns="http://www.w3.org/2000/svg" version="1.1" width="474" height="596">
  <defs/>
  <g>
    <path d="M 262.9209289550781 2.67679762840271 C 267.01263427734375 -3.7222418785095215 277.0657958984375 -4.029897689819336 289.64593505859375 1.8550935983657837 C 310.5536804199219 6.529397010803223 332.7610778808594 15.766156196594238 354.277587890625 30.309913635253906 C 376.7644348144531 46.19773483276367 396.4033203125 65.46896362304688 413.82958984375 90.3672103881836 C 432.751220703125 118.5218276977539 441.6251220703125 127.43730163574219 423.4985046386719 150.73350524902344 C 404.12799072265625 178.50393676757812 379.259033203125 197.03419494628906 354.7071228027344 213.01626586914062 C 336.2488098144531 224.32469177246094 312.3343200683594 224.65377807617188 292.4682312011719 237.83200073242188 C 283.3908386230469 246.05325317382812 280.57647705078125 251.17088317871094 278.1162414550781 252.9414825439453 C 273.3069763183594 251.95228576660156 266.2051696777344 249.55450439453125 258.3088684082031 247.15658569335938 C 251.39439392089844 246.4918670654297 247.2286834716797 248.39930725097656 246.9919891357422 253.25186157226562 C 250.86155700683594 260.8667907714844 258.3645324707031 270.701171875 268.4251403808594 281.7701721191406 C 279.5932312011719 293.0128173828125 290.4429626464844 303.6293029785156 299.9364013671875 312.8108215332031 C 307.61688232421875 319.6371765136719 313.3053283691406 323.1943664550781 317.0530700683594 323.17156982421875 C 318.91644287109375 319.62164306640625 319.17218017578125 312.8065490722656 318.2371520996094 303.4048156738281 C 316.5794677734375 292.5650634765625 314.7015380859375 281.4548645019531 313.740234375 270.995361328125 C 314.9776916503906 262.3990783691406 319.7360534667969 256.7603759765625 329.2307434082031 255.10479736328125 C 344.7598571777344 257.9451904296875 366.0771484375 265.57318115234375 390.0727844238281 278.43377685546875 C 411.7958984375 291.8061828613281 419.2919921875 300.2815856933594 415.00341796875 302.0934753417969 C 405.21636962890625 299.22900390625 395.2961730957031 295.3725891113281 388.5428466796875 293.633544921875 C 386.8519287109375 295.3373718261719 390.95794677734375 301.29193115234375 400.849609375 311.6511535644531 C 415.4298400878906 325.9937438964844 431.7648010253906 340.7189636230469 432.69775390625 355.49969482421875 C 430.6749572753906 349.0118103027344 414.8350830078125 343.5099792480469 398.39453125 330.09893798828125 C 368.7942199707031 329.0436706542969 343.3359375 320.8646240234375 325.54168701171875 317.1790466308594 C 317.31646728515625 329.1279602050781 315.5973205566406 350.0557556152344 316.6792297363281 375.47784423828125 C 316.5936279296875 400.7593078613281 310.1827392578125 423.7864685058594 304.1194763183594 447.0487060546875 C 297.1177978515625 466.06451416015625 285.2991638183594 480.4822082519531 288.06732177734375 504.3883361816406 C 302.210205078125 516.8145751953125 295.2061462402344 529.3009033203125 278.8766174316406 521.4365844726562 C 253.73837280273438 507.160400390625 240.09512329101562 505.24761962890625 240.08355712890625 525.7613525390625 C 238.5013427734375 556.3588256835938 234.58013916015625 575.3236083984375 246.4941864013672 576.0968627929688 C 277.787353515625 583.5703735351562 313.7561340332031 581.7149047851562 342.0447692871094 575.3396606445312 C 345.7143249511719 556.0962524414062 342.13616943359375 557.6050415039062 335.843994140625 578.5742797851562 C 313.9749450683594 588.015625 275.49639892578125 584.6115112304688 244.61270141601562 579.942138671875 C 229.6254425048828 575.489990234375 233.18048095703125 557.7355346679688 235.59060668945312 529.1195068359375 C 234.97914123535156 512.0234375 246.32723999023438 495.55853271484375 241.8197784423828 470.5177307128906 C 231.83969116210938 462.3241882324219 220.5172119140625 465.0337829589844 215.22593688964844 482.1190185546875 C 210.32443237304688 509.6174621582031 212.60684204101562 519.2659912109375 203.5742645263672 506.18890380859375 C 182.3861541748047 494.0802001953125 168.44932556152344 494.9715270996094 168.2120361328125 506.44854736328125 C 180.42286682128906 513.9073486328125 198.30035400390625 516.3080444335938 213.38995361328125 520.87060546875 C 212.5940704345703 548.73876953125 222.59417724609375 575.7146606445312 214.11599731445312 585.7406005859375 C 188.76010131835938 585.1105346679688 168.03414916992188 594.142578125 147.16983032226562 599.6536865234375 C 122.94100189208984 594.3097534179688 112.754150390625 588.16845703125 119.12626647949219 578.8767700195312 C 124.4872817993164 597.934814453125 152.70095825195312 594.8968505859375 187.962158203125 583.3306884765625 C 215.05039978027344 584.2689819335938 215.4109344482422 582.6244506835938 212.90928649902344 558.4957275390625 C 211.083740234375 531.6849365234375 208.78775024414062 514.0792236328125 197.4755859375 510.6147155761719 C 175.94056701660156 509.3990783691406 165.4146728515625 517.3360595703125 161.30752563476562 532.3903198242188 C 150.2171173095703 517.4238891601562 167.37120056152344 508.6417236328125 166.67250061035156 481.72100830078125 C 156.34393310546875 461.5848388671875 155.14427185058594 441.020263671875 152.94973754882812 413.46697998046875 C 151.88644409179688 385.93328857421875 150.8119354248047 360.792724609375 142.00575256347656 341.51544189453125 C 127.66209411621094 336.01202392578125 109.49066925048828 346.2794494628906 85.06208038330078 357.8052978515625 C 74.35083770751953 368.9904479980469 73.22384643554688 370.3882141113281 76.13584899902344 357.91778564453125 C 84.59939575195312 343.6919860839844 93.98540496826172 330.0990295410156 100.92024230957031 318.4745788574219 C 104.55422973632812 309.70635986328125 104.61194610595703 303.46551513671875 102.17872619628906 298.68048095703125 C 100.0927505493164 294.0203857421875 101.55398559570312 288.16168212890625 109.96540832519531 279.5289611816406 C 128.2537078857422 266.4930419921875 149.47091674804688 252.0644073486328 159.92762756347656 240.7177734375 C 146.95875549316406 241.36705017089844 123.34066009521484 239.2112274169922 95.0743637084961 228.8629608154297 C 67.79562377929688 218.10659790039062 51.21295166015625 211.6060028076172 53.40266799926758 194.1626434326172 C 55.68480682373047 164.9208984375 63.02281188964844 138.85874938964844 72.6805648803711 117.8120346069336 C 82.89654541015625 95.0140609741211 98.28559112548828 72.4907455444336 120.07870483398438 52.554718017578125 C 141.98196411132812 32.524906158447266 158.47543334960938 20.895713806152344 181.19810485839844 24.074260711669922 C 199.87181091308594 25.68487548828125 211.5232696533203 32.96482849121094 225.63772583007812 28.30558967590332 C 238.87594604492188 10.193157196044922 261.1167297363281 0.23646849393844604 262.9209289550781 2.67679762840271" stroke-width="0.0" fill="rgb(61, 35, 26)" opacity="0.99968505" stroke="rgb(92, 35, 30)" stroke-opacity="0.4294523" stroke-linecap="round" stroke-linejoin="round"/>
    <path d="M 177.99090576171875 239.25694274902344 C 179.87474060058594 240.75445556640625 179.9287109375 239.43692016601562 179.08680725097656 238.24366760253906 C 180.7517852783203 238.92849731445312 182.1441192626953 238.50448608398438 184.3352813720703 238.61581420898438 C 187.51211547851562 238.0299835205078 190.8170623779297 239.0261688232422 195.050537109375 240.837646484375 C 200.28076171875 242.8837432861328 207.50894165039062 244.2642822265625 215.8070526123047 245.37969970703125 C 226.24600219726562 246.0898895263672 236.6220245361328 246.34234619140625 247.93453979492188 245.2765350341797 C 259.2322998046875 244.3665771484375 269.449951171875 242.27342224121094 279.9476013183594 241.21946716308594 C 288.29547119140625 238.4249725341797 292.2890625 234.15646362304688 293.2040100097656 239.16445922851562 C 301.7530822753906 240.8790740966797 312.90032958984375 241.9627227783203 324.1327209472656 245.23587036132812 C 334.6147155761719 248.30841064453125 344.5301513671875 251.7415313720703 353.75775146484375 256.638916015625 C 363.6318359375 260.85247802734375 367.90240478515625 263.28619384765625 364.796142578125 270.6410827636719 C 372.8457336425781 273.6202392578125 383.41339111328125 277.80731201171875 394.6354064941406 285.12799072265625 C 406.0856628417969 292.55108642578125 410.5149841308594 301.088623046875 413.9886474609375 294.6231689453125 C 423.9704284667969 290.3941345214844 435.3450012207031 289.35205078125 441.1480407714844 279.4864807128906 C 452.0447998046875 277.8005676269531 453.26031494140625 284.91552734375 446.4126281738281 297.5855712890625 C 453.3743591308594 302.6201477050781 465.6443786621094 305.9459228515625 473.28692626953125 314.8200988769531 C 475.4669494628906 323.0428161621094 471.5013122558594 322.3106384277344 465.6967468261719 325.52728271484375 C 472.04632568359375 341.3626708984375 461.6309814453125 351.1951904296875 443.93743896484375 346.3676452636719 C 445.1410217285156 358.2444763183594 446.6040344238281 363.1232604980469 434.8612365722656 359.8438720703125 C 431.751220703125 350.858154296875 430.6776428222656 342.5674133300781 418.4378356933594 340.20037841796875 C 406.5522155761719 335.24505615234375 403.3923645019531 325.5448303222656 395.9004211425781 326.45550537109375 C 381.94537353515625 325.3170471191406 366.5862121582031 322.6628723144531 353.2417907714844 318.163330078125 C 345.9375305175781 313.5907897949219 345.4474792480469 318.16632080078125 342.7992248535156 326.8998107910156 C 335.15362548828125 326.37725830078125 328.7099304199219 320.30096435546875 323.93292236328125 318.02557373046875 C 324.64678955078125 324.1260986328125 325.7671203613281 334.72705078125 321.6174621582031 346.2882385253906 C 323.725830078125 359.3389892578125 323.9748840332031 371.4996643066406 323.57470703125 380.69024658203125 C 320.9433898925781 383.031982421875 316.7369079589844 381.4017333984375 314.1173095703125 378.1736755371094 C 309.0343017578125 381.1121826171875 304.2729187011719 388.71710205078125 300.4247741699219 399.63201904296875 C 297.9476623535156 412.01666259765625 296.4600830078125 424.7885437011719 295.2400817871094 436.81768798828125 C 293.6539611816406 447.3514404296875 291.2137756347656 456.1085510253906 287.7172546386719 462.8249206542969 C 283.0328369140625 467.24951171875 277.1546936035156 469.1734313964844 270.206787109375 468.6831359863281 C 262.41912841796875 465.8471374511719 254.0574188232422 461.1517028808594 245.66551208496094 455.49566650390625 C 237.7785186767578 450.24853515625 230.701171875 446.37847900390625 224.67141723632812 444.9114990234375 C 219.35130310058594 447.0411071777344 214.162109375 451.61810302734375 208.45384216308594 457.44866943359375 C 202.03099060058594 463.3575744628906 195.19253540039062 468.01678466796875 188.2779541015625 470.5948791503906 C 181.70584106445312 470.5085754394531 175.98379516601562 467.99896240234375 171.43325805664062 463.4202880859375 C 168.4655303955078 457.1204528808594 167.08404541015625 449.2008361816406 167.04014587402344 440.1297607421875 C 167.71511840820312 430.1113586425781 168.05259704589844 419.4129943847656 167.01763916015625 408.7298889160156 C 163.77369689941406 399.1405029296875 160.0266876220703 391.244384765625 155.7235107421875 386.2268981933594 C 155.94203186035156 392.9642028808594 154.8075714111328 397.1214294433594 148.70396423339844 398.3138427734375 C 136.97955322265625 398.10369873046875 126.14996337890625 394.8686218261719 118.85485076904297 384.56072998046875 C 113.65027618408203 374.6285400390625 113.5960693359375 360.55682373046875 113.53787231445312 347.73687744140625 C 117.00574493408203 340.8332214355469 122.85563659667969 337.36566162109375 122.864013671875 334.0721130371094 C 116.946044921875 337.6861267089844 108.69666290283203 343.2643737792969 98.2548828125 347.91082763671875 C 89.88968658447266 352.7911682128906 84.83287811279297 352.9097900390625 80.09089660644531 353.4107666015625 C 76.29470825195312 355.7023010253906 75.28710174560547 361.8450622558594 75.34520721435547 368.89617919921875 C 69.83486938476562 378.08197021484375 59.0041618347168 382.07501220703125 59.505393981933594 390.5667724609375 C 58.99992370605469 404.9955749511719 53.186649322509766 409.1183776855469 45.6048469543457 400.2511291503906 C 44.132301330566406 386.7413024902344 40.4101448059082 389.2637634277344 32.581329345703125 401.4892272949219 C 27.09549903869629 403.8397216796875 20.624370574951172 394.3941955566406 8.842011451721191 389.7709655761719 C 12.175025939941406 379.9790344238281 10.43934154510498 377.6374816894531 0.9583573341369629 377.39813232421875 C -2.410090208053589 371.1258239746094 4.845993518829346 361.7142639160156 14.381942749023438 349.5658874511719 C 22.165624618530273 343.1607971191406 17.31317710876465 332.7441101074219 18.440860748291016 322.03466796875 C 24.925315856933594 316.1838073730469 30.392745971679688 325.1011657714844 41.191410064697266 331.7534484863281 C 45.6370735168457 325.8424072265625 48.126834869384766 318.7320251464844 59.96837615966797 317.99176025390625 C 69.76490783691406 305.8471984863281 80.18147277832031 296.70904541015625 88.09701538085938 291.14398193359375 C 92.13837432861328 288.9952087402344 90.327392578125 288.1124572753906 90.23764038085938 282.9232482910156 C 94.3089828491211 276.69805908203125 103.10396575927734 271.07574462890625 112.3724136352539 264.4790954589844 C 121.28861999511719 258.7594909667969 130.02345275878906 254.36306762695312 138.2167510986328 250.38682556152344 C 146.24948120117188 246.7210235595703 155.2949981689453 244.9864501953125 160.80886840820312 240.2887420654297 C 165.6342010498047 242.050048828125 170.02700805664062 242.5203399658203 177.99090576171875 239.25694274902344" stroke-width="0.0" fill="rgb(248, 187, 108)" opacity="1.0" stroke="rgb(246, 201, 170)" stroke-opacity="0.6662853" stroke-linecap="round" stroke-linejoin="round"/>
    <path d="M 343.160888671875 92.36721801757812 C 342.87042236328125 92.00816345214844 343.0074157714844 92.05833435058594 343.18768310546875 92.07552337646484 C 343.5904541015625 92.19473266601562 344.194091796875 92.5381088256836 345.1001281738281 93.12289428710938 C 346.3074035644531 94.00691986083984 347.65618896484375 95.2669906616211 349.341796875 96.80794525146484 C 351.29473876953125 98.56913757324219 353.5004577636719 100.60747528076172 355.3688659667969 103.2502670288086 C 357.84808349609375 105.81507110595703 360.3689880371094 108.82465362548828 362.4604187011719 112.84557342529297 C 364.73724365234375 117.32551574707031 367.1695861816406 122.10845947265625 368.3769836425781 127.91846466064453 C 369.7349853515625 133.5804901123047 370.75933837890625 138.926025390625 371.2440490722656 144.0917205810547 C 371.10150146484375 149.2086639404297 370.69256591796875 154.0225067138672 369.5324401855469 158.77426147460938 C 368.7874450683594 163.86256408691406 367.0854187011719 168.71307373046875 364.73822021484375 173.63873291015625 C 362.380615234375 178.6014862060547 359.588623046875 183.55615234375 356.63702392578125 188.38037109375 C 352.9720458984375 192.42904663085938 350.11444091796875 196.9110565185547 345.87188720703125 200.22396850585938 C 342.207275390625 203.90110778808594 338.71240234375 208.0405731201172 334.1527404785156 211.12574768066406 C 329.4385681152344 214.52999877929688 324.83343505859375 217.99539184570312 319.8265380859375 220.72491455078125 C 315.52252197265625 223.5519256591797 311.0454406738281 225.75811767578125 306.714599609375 227.94749450683594 C 302.1246337890625 230.02041625976562 297.2321472167969 232.05813598632812 292.3741149902344 234.15325927734375 C 286.984130859375 235.68460083007812 282.04412841796875 237.64454650878906 277.1402893066406 238.4973602294922 C 271.91864013671875 239.1676483154297 267.143798828125 240.3352813720703 262.3477478027344 241.22396850585938 C 257.76519775390625 242.0221405029297 252.85772705078125 242.65904235839844 247.84410095214844 243.3114471435547 C 242.4677734375 243.53001403808594 236.9388427734375 243.73484802246094 231.08193969726562 243.83583068847656 C 224.87855529785156 243.8804473876953 219.11866760253906 243.3426055908203 213.4057159423828 242.2985076904297 C 208.1376190185547 241.3272705078125 203.4181671142578 240.0537567138672 199.0222625732422 238.64187622070312 C 195.1464080810547 237.18289184570312 191.07110595703125 235.8770294189453 187.33338928222656 233.66455078125 C 182.99510192871094 231.68553161621094 178.6730194091797 229.4361114501953 174.62835693359375 226.40626525878906 C 170.58126831054688 223.0081787109375 166.1070556640625 220.01783752441406 162.0950469970703 216.26979064941406 C 158.83653259277344 212.3140869140625 155.48561096191406 208.62559509277344 152.39320373535156 204.52671813964844 C 149.5465545654297 199.8018035888672 146.88865661621094 194.4855194091797 145.0802764892578 188.33416748046875 C 143.5427703857422 182.17178344726562 142.73426818847656 176.39500427246094 142.97813415527344 171.02430725097656 C 143.3722381591797 166.02316284179688 143.5198211669922 161.28860473632812 145.30555725097656 157.1184844970703 C 147.0309295654297 152.26727294921875 151.1044158935547 148.93731689453125 155.29566955566406 145.3027801513672 C 157.03675842285156 139.9915771484375 157.4660186767578 134.46652221679688 157.78599548339844 130.42759704589844 C 160.781005859375 130.27587890625 162.9576873779297 132.5478973388672 165.15809631347656 135.8822021484375 C 169.25233459472656 137.9496612548828 173.42306518554688 137.15847778320312 178.6263885498047 134.08639526367188 C 183.75515747070312 131.55213928222656 187.53968811035156 130.90496826171875 189.72506713867188 132.51260375976562 C 188.91822814941406 135.1537628173828 186.13479614257812 138.53627014160156 183.91012573242188 142.98284912109375 C 184.16384887695312 148.6533660888672 185.15792846679688 153.93438720703125 185.99142456054688 158.52976989746094 C 188.1504669189453 162.3248291015625 191.0364532470703 165.16136169433594 194.3148956298828 167.49472045898438 C 198.05804443359375 168.0542755126953 202.0266571044922 166.793212890625 207.5464630126953 166.18801879882812 C 213.25804138183594 164.79820251464844 219.7984161376953 163.28726196289062 226.34469604492188 161.6190948486328 C 231.94065856933594 159.8766632080078 236.98379516601562 158.3124237060547 241.34808349609375 156.02003479003906 C 245.10919189453125 154.24722290039062 247.388916015625 152.0817413330078 246.83079528808594 149.3558349609375 C 246.39163208007812 143.4437713623047 244.78907775878906 140.04408264160156 242.6440887451172 136.55618286132812 C 240.0964813232422 132.64268493652344 236.37254333496094 129.67626953125 230.87794494628906 127.34444427490234 C 225.39263916015625 125.08251190185547 219.35560607910156 124.3429183959961 209.9046630859375 124.5834732055664 C 210.47654724121094 120.91028594970703 213.60272216796875 121.347412109375 218.1362762451172 120.22079467773438 C 224.5255126953125 118.11922454833984 232.88250732421875 116.75599670410156 240.5177001953125 115.14891815185547 C 245.2657012939453 112.41206359863281 246.1125946044922 108.64978790283203 243.74647521972656 104.13832092285156 C 241.56387329101562 99.44237518310547 240.39633178710938 96.28255462646484 241.898681640625 94.60582733154297 C 245.1074676513672 95.779541015625 249.8407440185547 99.09944152832031 254.80332946777344 102.97776794433594 C 258.6927795410156 106.67345428466797 262.0248107910156 108.72344970703125 266.09222412109375 108.77497100830078 C 270.2217102050781 107.88203430175781 275.5069274902344 106.62545013427734 281.4925231933594 105.1322250366211 C 288.2875671386719 104.05220794677734 294.0740966796875 102.18548583984375 299.75335693359375 101.34459686279297 C 305.57684326171875 100.16079711914062 308.6898193359375 99.3204345703125 302.5664978027344 104.22158813476562 C 303.6315612792969 111.17617797851562 306.9538269042969 114.20259094238281 312.2752990722656 115.59626007080078 C 317.4149169921875 116.9686279296875 319.8040771484375 121.28192901611328 319.8870849609375 128.77049255371094 C 323.1903076171875 132.08248901367188 328.03753662109375 132.59033203125 332.60723876953125 129.52305603027344 C 335.65203857421875 127.48554992675781 338.205810546875 125.8200912475586 339.88568115234375 123.04991912841797 C 340.447998046875 120.48649597167969 339.6099853515625 116.22142028808594 338.31170654296875 110.35968017578125 C 338.62298583984375 103.61726379394531 334.48193359375 101.2947769165039 325.2366027832031 99.63484954833984 C 321.4633483886719 97.88095092773438 323.19989013671875 96.48957061767578 328.9678955078125 95.90314483642578 C 332.9905700683594 95.30503845214844 336.8408203125 95.65177154541016 343.160888671875 92.36721801757812" stroke-width="0.0" fill="rgb(252, 188, 106)" opacity="0.99998385" stroke="rgb(58, 145, 187)" stroke-opacity="0.24435565" stroke-linecap="round" stroke-linejoin="round"/>
    <path d="M 301.4598083496094 373.7817077636719 C 302.330322265625 375.62677001953125 302.198974609375 376.41632080078125 302.1847839355469 377.0880126953125 C 302.2130432128906 377.4738464355469 302.0111083984375 377.481689453125 301.71490478515625 377.3370361328125 C 301.6115417480469 376.57916259765625 301.61944580078125 376.21051025390625 301.89984130859375 376.2005615234375 C 302.982177734375 376.3885498046875 304.8280029296875 376.40557861328125 307.1725158691406 376.4718322753906 C 309.802001953125 376.4302673339844 312.13446044921875 376.164306640625 312.5125732421875 377.3793640136719 C 310.8209533691406 379.93756103515625 311.9453125 384.0232238769531 311.69537353515625 389.27191162109375 C 311.7176818847656 394.7408752441406 311.5867004394531 399.6408386230469 311.2524108886719 403.7701721191406 C 310.0959167480469 407.3216247558594 309.2384948730469 410.6236267089844 309.295654296875 413.6874084472656 C 307.872802734375 416.49578857421875 307.6431579589844 419.224609375 306.8623962402344 421.4458312988281 C 306.5617980957031 423.5900573730469 306.1484069824219 425.6722412109375 305.468994140625 427.4955749511719 C 304.5222473144531 429.0469055175781 304.51519775390625 431.66253662109375 303.3525695800781 434.9807434082031 C 301.99609375 439.7124328613281 300.7150573730469 445.78082275390625 299.1507263183594 452.3403625488281 C 297.2255554199219 458.2352600097656 298.9586181640625 461.72174072265625 301.1330871582031 454.4674072265625 C 301.8846435546875 451.8804626464844 302.5509338378906 456.1697082519531 300.68096923828125 462.2178649902344 C 300.6689147949219 468.6925048828125 298.5255432128906 472.3909912109375 293.0791931152344 472.8935241699219 C 294.21160888671875 469.6933898925781 294.3848876953125 468.32269287109375 288.66290283203125 470.18109130859375 C 282.5085144042969 470.9757080078125 274.5816955566406 470.4225769042969 267.66845703125 470.6114807128906 C 267.22564697265625 471.6741943359375 263.82537841796875 470.34527587890625 261.189453125 469.8194885253906 C 255.2178497314453 470.0461120605469 251.44651794433594 468.8646240234375 247.8931884765625 467.8026123046875 C 244.21749877929688 467.0553894042969 241.24600219726562 465.9541320800781 238.71824645996094 465.2984924316406 C 237.7751922607422 462.81732177734375 237.41978454589844 460.4154968261719 237.49310302734375 457.2314147949219 C 237.20518493652344 454.0755615234375 236.8637237548828 451.0292053222656 236.14620971679688 448.4871520996094 C 234.70013427734375 446.6950378417969 232.7391815185547 446.014404296875 230.4686279296875 446.9973449707031 C 227.5853729248047 449.1806640625 225.475830078125 453.2552185058594 223.81838989257812 458.60260009765625 C 223.5041961669922 465.9611511230469 222.15484619140625 470.5640563964844 226.2711181640625 466.9941101074219 C 227.97987365722656 472.0416259765625 226.1479949951172 475.6457214355469 219.12704467773438 474.5370788574219 C 211.48001098632812 466.6719970703125 211.90419006347656 474.5500793457031 209.27520751953125 495.7469787597656 C 209.974609375 516.2786865234375 207.60243225097656 526.5953369140625 190.51026916503906 524.7735595703125 C 189.5262908935547 510.72039794921875 191.57711791992188 502.8653259277344 190.04296875 503.4432678222656 C 184.9998779296875 508.89654541015625 176.0237274169922 510.6826477050781 169.62242126464844 506.19293212890625 C 168.77853393554688 494.93231201171875 169.2325439453125 482.6971130371094 169.45901489257812 471.0118103027344 C 168.30120849609375 468.662109375 163.3600311279297 467.1926574707031 160.4942626953125 466.9428405761719 C 162.40931701660156 472.4928283691406 162.2007293701172 473.6053466796875 158.75674438476562 469.773193359375 C 156.98355102539062 461.93994140625 156.6173095703125 454.8981628417969 158.92388916015625 449.8628845214844 C 158.173583984375 444.6171569824219 158.82115173339844 441.4007263183594 157.7751922607422 440.3313293457031 C 157.38677978515625 438.8861999511719 157.90264892578125 437.135009765625 157.47898864746094 434.7239685058594 C 157.4324951171875 431.54345703125 157.67051696777344 428.1513977050781 156.62307739257812 425.20867919921875 C 156.6380615234375 422.0225524902344 156.5111541748047 418.8077392578125 156.4786376953125 415.5559997558594 C 156.49600219726562 412.08013916015625 156.44314575195312 408.31768798828125 156.2499237060547 404.79644775390625 C 156.5894012451172 400.5013427734375 156.4373779296875 396.3470764160156 156.79269409179688 392.3011169433594 C 156.77691650390625 388.9532165527344 156.4537811279297 385.995849609375 157.0241241455078 383.5380859375 C 156.58633422851562 381.527587890625 158.38885498046875 379.9198303222656 161.63653564453125 379.7449645996094 C 163.98971557617188 378.44366455078125 167.46615600585938 379.2627258300781 170.88412475585938 379.57861328125 C 175.7517547607422 377.7077941894531 179.99642944335938 377.1413269042969 183.4366455078125 378.74114990234375 C 185.9775390625 381.0122375488281 189.43434143066406 380.3465881347656 192.2001495361328 381.3790588378906 C 194.6561737060547 381.9228210449219 197.18324279785156 382.5710754394531 199.81082153320312 382.7833557128906 C 201.7848663330078 383.39178466796875 204.10861206054688 384.0200500488281 206.70413208007812 384.1502380371094 C 207.69285583496094 384.0841369628906 208.7147216796875 384.87371826171875 210.47714233398438 384.4425964355469 C 210.6259765625 385.4513244628906 211.4462127685547 385.0109558105469 212.71270751953125 385.2497253417969 C 214.41603088378906 385.1887512207031 216.33175659179688 385.33782958984375 218.26895141601562 386.8466796875 C 220.41139221191406 387.27069091796875 223.03140258789062 387.4303894042969 225.82814025878906 387.5798034667969 C 228.7344207763672 388.08294677734375 231.7860107421875 388.3091735839844 234.78160095214844 388.4047546386719 C 237.81192016601562 388.4408874511719 240.86326599121094 388.41046142578125 243.81651306152344 388.43927001953125 C 246.70240783691406 388.4759216308594 249.56362915039062 388.5615539550781 252.3277587890625 388.6686706542969 C 255.0763702392578 388.69049072265625 257.8207092285156 388.5710144042969 260.59368896484375 388.19317626953125 C 263.4048156738281 387.4477233886719 266.0193786621094 386.4339294433594 268.5787353515625 385.37762451171875 C 272.0193176269531 384.8096618652344 275.1252136230469 384.4170837402344 278.2458190917969 383.6607360839844 C 281.21600341796875 382.97314453125 284.11676025390625 382.6072082519531 286.0114440917969 381.7047119140625 C 288.44366455078125 381.11376953125 290.4068908691406 380.5881042480469 292.8468017578125 379.775146484375 C 297.00323486328125 379.5456237792969 298.9179992675781 377.5213928222656 301.4598083496094 373.7817077636719" stroke-width="0.0" fill="rgb(253, 76, 2)" opacity="0.999574" stroke="rgb(241, 157, 206)" stroke-opacity="0.58332807" stroke-linecap="round" stroke-linejoin="round"/>
    <path d="M 217.3075714111328 245.2093048095703 C 214.12429809570312 249.3585968017578 211.08689880371094 253.35897827148438 208.5703582763672 256.83929443359375 C 206.65968322753906 259.6486511230469 205.5675048828125 261.48919677734375 205.27133178710938 261.9772644042969 C 205.64073181152344 261.31512451171875 206.72097778320312 259.7225341796875 208.38958740234375 257.195556640625 C 210.45672607421875 254.20944213867188 212.6531219482422 251.12864685058594 214.69210815429688 248.54066467285156 C 216.3769073486328 248.0801544189453 218.34307861328125 249.67872619628906 221.5406951904297 252.158203125 C 226.44427490234375 254.1206512451172 232.14700317382812 255.29087829589844 238.17581176757812 255.3428497314453 C 243.6593017578125 254.01846313476562 247.93406677246094 252.5983428955078 250.6505126953125 252.51492309570312 C 251.69906616210938 254.69064331054688 251.18682861328125 258.0692443847656 248.81015014648438 261.564453125 C 244.8354034423828 264.7347106933594 240.19297790527344 267.5520324707031 235.99691772460938 269.72564697265625 C 233.17391967773438 271.0444030761719 232.24835205078125 271.4814758300781 233.14804077148438 271.0392761230469 C 235.52215576171875 269.8105773925781 238.8827362060547 268.0254211425781 242.4205322265625 265.99188232421875 C 245.67205810546875 264.1282653808594 248.27413940429688 262.1895751953125 249.96011352539062 260.1314697265625 C 250.90911865234375 257.94683837890625 251.14930725097656 255.53204345703125 251.0139617919922 252.73533630371094 C 251.76626586914062 249.3637237548828 256.0907897949219 245.7837677001953 266.02252197265625 242.9575653076172 C 281.34423828125 238.88858032226562 301.2232666015625 239.24041748046875 321.7941589355469 244.40553283691406 C 337.2879638671875 248.2916259765625 339.209228515625 254.86460876464844 328.5143737792969 264.4120788574219 C 314.8648986816406 276.2671813964844 301.2834167480469 284.5385437011719 290.3864440917969 289.3525390625 C 283.6020812988281 292.2849426269531 280.9705505371094 293.1277770996094 282.52972412109375 292.41265869140625 C 287.5955810546875 290.4881896972656 294.5071716308594 287.3841247558594 301.8294677734375 283.4237976074219 C 308.3814392089844 279.21868896484375 313.11175537109375 276.40606689453125 315.0857849121094 276.0547790527344 C 313.3006896972656 279.2811584472656 308.6353759765625 285.2219543457031 303.0188293457031 293.232666015625 C 297.8581848144531 301.9071960449219 293.704345703125 309.4940490722656 290.9529724121094 314.46478271484375 C 289.94354248046875 316.1114196777344 290.6059875488281 315.0766296386719 292.3228454589844 312.0447692871094 C 295.0238037109375 307.16748046875 299.0960693359375 299.9192199707031 305.52435302734375 288.91107177734375 C 316.209228515625 273.96807861328125 330.5928955078125 258.3035583496094 347.18707275390625 253.4978790283203 C 366.45953369140625 263.0441589355469 367.27215576171875 284.4549865722656 352.80413818359375 308.9195861816406 C 335.8067932128906 320.0514831542969 323.34783935546875 321.0664978027344 322.7030334472656 322.5543212890625 C 325.2458801269531 329.3976135253906 325.07037353515625 337.1827697753906 322.98870849609375 342.3223571777344 C 321.5547790527344 344.2298889160156 321.2918395996094 343.7782897949219 321.75152587890625 342.52099609375 C 322.11181640625 341.72320556640625 321.9692077636719 342.1738586425781 321.7300109863281 344.1259765625 C 321.5440673828125 347.671875 322.2231140136719 352.7965393066406 323.46124267578125 359.1700439453125 C 323.8590087890625 366.79412841796875 323.71575927734375 374.1942138671875 323.4596862792969 379.8484191894531 C 321.5911865234375 382.207275390625 318.1799621582031 381.44500732421875 313.5967102050781 379.4194641113281 C 308.9322509765625 377.32220458984375 303.6583557128906 376.9490661621094 298.2778625488281 377.4599914550781 C 292.8965759277344 377.7131042480469 287.754150390625 377.08221435546875 283.0116882324219 376.2701110839844 C 278.60589599609375 375.6795959472656 274.6177978515625 375.5433654785156 271.1253967285156 375.60968017578125 C 268.2060852050781 375.5852355957031 265.8282165527344 375.5217590332031 263.8672790527344 375.5950012207031 C 262.2974853515625 375.6645812988281 261.02801513671875 375.6205139160156 259.8937683105469 375.5544738769531 C 258.76202392578125 375.5331115722656 257.31549072265625 375.4726867675781 255.32574462890625 375.46160888671875 C 252.91751098632812 375.55242919921875 250.2872314453125 375.54833984375 247.5567626953125 375.4997863769531 C 244.87290954589844 375.5232238769531 242.3412628173828 375.51904296875 239.97894287109375 375.542236328125 C 237.5557403564453 375.550537109375 234.85922241210938 375.5718688964844 231.6658172607422 375.57757568359375 C 227.91014099121094 375.5152282714844 223.5846710205078 375.6315612792969 218.8834686279297 375.801025390625 C 214.28175354003906 376.3782043457031 210.02442932128906 376.68048095703125 205.8848114013672 377.26727294921875 C 201.55088806152344 377.4805908203125 196.91387939453125 377.91778564453125 191.0865478515625 378.4095458984375 C 183.9081573486328 378.2016296386719 175.466064453125 378.0694580078125 166.25657653808594 379.7698974609375 C 157.86900329589844 384.5239562988281 149.0476531982422 393.65386962890625 135.91561889648438 396.99365234375 C 120.3852767944336 392.2127685546875 113.0355453491211 375.7271728515625 113.57454681396484 353.66400146484375 C 119.44064331054688 337.621826171875 126.61074829101562 328.3167419433594 133.19810485839844 325.98681640625 C 140.4261474609375 331.6863708496094 148.46502685546875 337.2562255859375 154.96795654296875 340.21575927734375 C 156.834716796875 340.6697692871094 152.1095733642578 338.567138671875 140.73597717285156 332.2539367675781 C 126.12468719482422 319.9297790527344 111.49723052978516 300.8387451171875 100.69204711914062 279.81475830078125 C 109.9928207397461 263.18853759765625 127.07145690917969 253.0927276611328 142.6800994873047 252.9698944091797 C 155.6345672607422 266.42425537109375 165.56655883789062 278.5448913574219 171.27474975585938 284.9878234863281 C 171.44192504882812 285.54840087890625 167.5681610107422 281.4153137207031 162.40122985839844 275.2846984863281 C 158.07785034179688 270.1935729980469 156.32838439941406 267.79833984375 158.76161193847656 268.3498229980469 C 165.2036895751953 270.8341064453125 174.01644897460938 274.1097106933594 183.3865509033203 276.3316650390625 C 190.3397216796875 277.3771057128906 192.14894104003906 277.7559814453125 187.56871032714844 277.3998107910156 C 177.81065368652344 275.7852783203125 164.99349975585938 272.02978515625 152.05194091796875 264.19891357421875 C 140.7081298828125 252.1001739501953 131.5855255126953 234.2993927001953 217.3075714111328 245.2093048095703" stroke-width="0.0" fill="rgb(254, 112, 168)" opacity="0.99966025" stroke="rgb(95, 74, 141)" stroke-opacity="0.3292003" stroke-linecap="round" stroke-linejoin="round"/>
    <path d="M 252.03616333007812 470.6075744628906 C 253.3640594482422 470.9771728515625 254.64260864257812 471.27313232421875 255.55252075195312 471.3865966796875 C 255.98236083984375 471.68115234375 255.8963165283203 471.6730041503906 255.43136596679688 471.3720397949219 C 254.6752471923828 471.5087890625 253.97047424316406 471.5058898925781 253.25732421875 471.09783935546875 C 252.49900817871094 470.7313537597656 252.33425903320312 470.755859375 253.23355102539062 471.019287109375 C 255.02566528320312 471.35809326171875 257.43011474609375 471.5385437011719 260.1897277832031 471.8346252441406 C 263.133544921875 472.0337829589844 265.7913513183594 472.2845764160156 267.9892883300781 472.3504333496094 C 269.7189025878906 472.3681335449219 270.9572448730469 472.3476257324219 271.6671447753906 472.3169250488281 C 272.2303771972656 472.3185729980469 272.97930908203125 472.4745178222656 273.96893310546875 472.4676513671875 C 274.9911193847656 472.42724609375 275.8562927246094 472.5112609863281 276.4913330078125 472.4702453613281 C 277.1087951660156 472.47601318359375 277.8975830078125 472.3968811035156 278.786376953125 472.2916564941406 C 279.4591064453125 472.4348449707031 279.79937744140625 472.5360412597656 280.12188720703125 472.3327331542969 C 280.39337158203125 472.1584167480469 280.3328857421875 472.1796875 280.0006408691406 472.4202575683594 C 279.78411865234375 472.5634765625 280.0269775390625 472.63470458984375 281.1129150390625 472.56439208984375 C 283.19696044921875 472.5213928222656 285.8561706542969 472.2730712890625 287.8462829589844 472.60284423828125 C 287.9252014160156 475.57733154296875 287.1493225097656 479.4388427734375 286.6829833984375 483.05401611328125 C 286.4500732421875 485.6649169921875 286.31402587890625 487.4009704589844 285.95281982421875 488.5354309082031 C 285.90478515625 489.4568176269531 286.0075988769531 490.6619873046875 285.5138244628906 492.5956115722656 C 285.1602783203125 495.5619812011719 284.62347412109375 498.9732666015625 284.60845947265625 502.2370910644531 C 284.4284362792969 505.00750732421875 284.0937805175781 507.0201110839844 284.06488037109375 508.030517578125 C 284.0173034667969 508.16668701171875 283.04803466796875 508.5162353515625 280.9963684082031 509.5242614746094 C 279.18682861328125 510.66778564453125 279.83746337890625 511.20440673828125 282.73577880859375 510.0665283203125 C 286.6695861816406 508.2947082519531 289.58447265625 507.6933288574219 290.6395568847656 505.5113220214844 C 292.72528076171875 504.8741760253906 294.5147399902344 505.1013488769531 296.6531066894531 506.2912902832031 C 299.0160827636719 506.49420166015625 301.0528869628906 507.9769592285156 303.48663330078125 509.8621520996094 C 305.0881042480469 511.53173828125 305.0146789550781 514.2191162109375 304.29864501953125 517.205078125 C 301.6645202636719 519.1259765625 298.8809509277344 519.9964599609375 296.73846435546875 519.7205200195312 C 296.1927185058594 518.466064453125 296.0329895019531 516.8096923828125 296.4378662109375 516.211181640625 C 299.77679443359375 516.4578857421875 302.6117858886719 516.48291015625 302.43280029296875 517.8690185546875 C 299.96258544921875 516.9390869140625 296.86334228515625 515.2178955078125 293.9237976074219 515.9015502929688 C 291.5929870605469 520.0615844726562 288.2999267578125 522.4171752929688 284.43768310546875 522.8052368164062 C 280.5741882324219 521.0110473632812 277.6313781738281 518.866455078125 275.3851623535156 518.1486206054688 C 275.6981506347656 517.5244750976562 277.18365478515625 517.9695434570312 279.2532653808594 519.0235595703125 C 281.48333740234375 520.054443359375 284.3414611816406 521.5195922851562 289.1745910644531 524.31591796875 C 295.0487976074219 531.6328735351562 308.36663818359375 537.1005859375 318.0157165527344 544.3887939453125 C 307.1527099609375 545.3388671875 295.8424377441406 534.8372192382812 288.2766418457031 528.205810546875 C 283.5632629394531 529.6578979492188 278.8741455078125 531.8414916992188 274.550537109375 532.7003784179688 C 272.075927734375 533.0694580078125 271.9916687011719 532.1866455078125 273.382568359375 531.567626953125 C 274.26287841796875 531.1004638671875 273.943359375 531.7398681640625 272.8633728027344 533.0208740234375 C 270.70819091796875 533.5553588867188 267.9751281738281 533.5464477539062 264.9083557128906 533.627197265625 C 261.2046813964844 533.73779296875 257.3443298339844 533.6557006835938 253.8957061767578 533.4298095703125 C 251.2403564453125 532.9214477539062 249.0657958984375 532.2325439453125 247.64454650878906 532.3721923828125 C 246.7957763671875 532.5455932617188 246.3928985595703 531.9425048828125 245.8867645263672 531.4483032226562 C 244.14773559570312 531.6564331054688 241.67135620117188 531.3919677734375 240.14706420898438 529.0272827148438 C 238.82449340820312 525.2501831054688 240.0534210205078 521.237548828125 240.86715698242188 519.0330200195312 C 237.82127380371094 518.7778930664062 234.91419982910156 521.3970947265625 233.17051696777344 523.042724609375 C 233.75473022460938 524.116943359375 234.36366271972656 522.9883422851562 235.09231567382812 520.6406860351562 C 236.07232666015625 520.9890747070312 235.62635803222656 522.2514038085938 235.16941833496094 523.9349365234375 C 234.23611450195312 524.9818725585938 232.4076690673828 524.7994995117188 229.7340087890625 523.4814453125 C 227.02537536621094 521.5159912109375 225.5819549560547 518.2893676757812 226.37850952148438 514.4240112304688 C 228.2191162109375 511.1297912597656 230.17153930664062 509.3432922363281 231.8075714111328 509.36163330078125 C 232.54164123535156 509.7191467285156 232.8302001953125 508.94061279296875 233.99974060058594 507.8399353027344 C 236.41519165039062 507.528564453125 237.97125244140625 505.9252624511719 239.1257781982422 505.20281982421875 C 239.72312927246094 506.0573425292969 238.58804321289062 507.3700256347656 237.49209594726562 508.84832763671875 C 238.2594451904297 508.8152770996094 239.4387969970703 507.85205078125 241.02044677734375 506.80108642578125 C 242.7130584716797 506.4063415527344 243.81533813476562 506.21417236328125 243.62545776367188 504.4593200683594 C 244.0855255126953 500.8796691894531 244.91810607910156 496.135009765625 245.399169921875 490.8128356933594 C 245.73028564453125 485.79046630859375 246.079345703125 481.44342041015625 246.47305297851562 478.01275634765625 C 246.65330505371094 475.4892883300781 246.72366333007812 473.5667419433594 246.7407684326172 472.0433044433594 C 246.7367706298828 470.7791748046875 246.60671997070312 469.7184753417969 247.44346618652344 469.4842834472656 C 250.18289184570312 470.4524230957031 253.885009765625 471.5220031738281 252.03616333007812 470.6075744628906" stroke-width="0.0" fill="rgb(251, 189, 103)" opacity="1.0" stroke="rgb(200, 91, 200)" stroke-opacity="0.94128263" stroke-linecap="round" stroke-linejoin="round"/>
    <path d="M 226.8402862548828 127.87471008300781 C 226.80833435058594 128.03857421875 227.38995361328125 128.07830810546875 229.0365753173828 128.6415252685547 C 232.49969482421875 129.86111450195312 236.5884552001953 132.01510620117188 239.23367309570312 135.1865234375 C 240.2538299560547 136.16453552246094 240.2738494873047 135.05825805664062 240.06202697753906 133.30218505859375 C 239.5398712158203 132.1369171142578 239.41725158691406 131.57090759277344 239.54078674316406 131.31826782226562 C 239.70223999023438 131.2064971923828 239.89161682128906 131.32919311523438 240.17312622070312 131.8622589111328 C 240.22874450683594 132.76087951660156 240.13507080078125 133.8155975341797 239.96524047851562 134.72918701171875 C 239.8170623779297 135.76715087890625 240.08383178710938 136.82591247558594 241.52244567871094 138.25999450683594 C 243.0978546142578 141.04986572265625 244.27276611328125 144.59329223632812 244.82875061035156 147.42005920410156 C 244.1941375732422 148.71356201171875 243.83609008789062 148.387451171875 244.9397430419922 148.19271850585938 C 245.27450561523438 149.3366241455078 244.7163848876953 150.6195526123047 244.49293518066406 151.52659606933594 C 244.60145568847656 151.45252990722656 244.87619018554688 151.2466278076172 244.70947265625 151.40908813476562 C 243.9646759033203 152.36572265625 241.66139221191406 154.0852508544922 238.02603149414062 155.613037109375 C 234.04544067382812 157.1156463623047 231.33363342285156 157.9491424560547 230.2947235107422 158.1580047607422 C 230.91270446777344 158.0912628173828 231.69784545898438 157.95497131347656 231.01040649414062 158.1428680419922 C 228.34642028808594 158.92538452148438 224.35887145996094 160.33607482910156 220.56048583984375 161.1980743408203 C 220.2183837890625 160.31454467773438 222.77967834472656 158.66217041015625 225.04183959960938 156.28939819335938 C 226.44131469726562 154.21470642089844 226.99661254882812 153.10096740722656 226.6905059814453 152.91445922851562 C 226.42324829101562 153.56797790527344 226.48095703125 153.8343963623047 226.92852783203125 153.05857849121094 C 227.78982543945312 150.92359924316406 228.21133422851562 148.65945434570312 228.585205078125 146.76278686523438 C 228.79730224609375 145.6158447265625 228.8511199951172 144.7781219482422 228.6150665283203 143.85118103027344 C 228.69992065429688 142.79995727539062 228.70164489746094 141.53782653808594 228.34909057617188 140.4488525390625 C 227.65013122558594 140.4166259765625 227.540771484375 140.69778442382812 227.9785614013672 140.38998413085938 C 228.11630249023438 140.58892822265625 228.03819274902344 140.77723693847656 228.2864227294922 140.37168884277344 C 228.15243530273438 139.1484832763672 227.84536743164062 138.23338317871094 227.5434112548828 137.6249542236328 C 227.38018798828125 136.94134521484375 226.42196655273438 135.15501403808594 223.9527130126953 131.54811096191406 C 218.9755096435547 127.29759979248047 210.45291137695312 124.79946899414062 226.8402862548828 127.87471008300781" stroke-width="0.0" fill="rgb(251, 253, 252)" opacity="0.9998906" stroke="rgb(20, 80, 115)" stroke-opacity="0.1036895" stroke-linecap="round" stroke-linejoin="round"/>
    <path d="M 303.9875793457031 104.55250549316406 C 309.0379333496094 104.90599822998047 313.2090759277344 103.61531066894531 316.8902893066406 101.0620346069336 C 320.7611083984375 100.13445281982422 324.1181335449219 100.77437591552734 326.1103210449219 101.68673706054688 C 326.53228759765625 101.54886627197266 325.8054504394531 101.49673461914062 324.9225769042969 101.23493194580078 C 324.6342468261719 101.0811996459961 325.4384460449219 101.29671478271484 327.4668884277344 101.74385070800781 C 330.4156799316406 102.85212707519531 332.96966552734375 103.67518615722656 334.45751953125 104.85356140136719 C 335.16705322265625 105.61731719970703 334.78045654296875 105.83452606201172 334.2955017089844 105.33900451660156 C 334.48309326171875 104.84822082519531 335.2158508300781 105.23051452636719 336.755859375 106.29998016357422 C 338.5877990722656 107.9140396118164 340.31817626953125 109.81491088867188 341.8636474609375 111.6347885131836 C 343.0185852050781 113.24915313720703 343.75 114.55902862548828 344.2432556152344 115.6952896118164 C 344.72552490234375 116.8918685913086 345.0082092285156 118.06273651123047 345.1942443847656 119.18383026123047 C 345.30853271484375 120.15770721435547 345.3156433105469 120.72676849365234 345.2181091308594 121.03129577636719 C 345.2172546386719 121.34379577636719 345.2034912109375 121.90339660644531 345.0292663574219 122.99883270263672 C 344.8609924316406 124.80497741699219 343.5892028808594 126.63104248046875 340.6431884765625 128.02468872070312 C 336.4136047363281 129.65695190429688 332.52703857421875 131.3666534423828 329.425537109375 132.2249298095703 C 328.54864501953125 131.55609130859375 329.33905029296875 129.9197998046875 330.2053527832031 127.43217468261719 C 330.6597595214844 124.88163757324219 330.7806396484375 122.47764587402344 330.5079040527344 120.10082244873047 C 330.4452819824219 118.10099029541016 329.88214111328125 116.74298858642578 329.58709716796875 116.0024185180664 C 330.2149658203125 115.61205291748047 330.47296142578125 115.5867919921875 330.3810119628906 115.90969848632812 C 329.99176025390625 116.09502410888672 329.531005859375 115.8633041381836 329.06689453125 115.54378509521484 C 328.8123779296875 115.7170639038086 329.00579833984375 116.15149688720703 329.4848937988281 115.82575988769531 C 329.0746154785156 114.48973083496094 328.16400146484375 113.04145050048828 328.0278015136719 112.08831787109375 C 327.9935607910156 112.13333892822266 327.9730529785156 112.2463150024414 326.82366943359375 110.49957275390625 C 323.7633361816406 106.66068267822266 318.4092102050781 103.984375 312.717529296875 104.12786865234375 C 311.2473449707031 103.80292510986328 314.1418762207031 102.66926574707031 317.7349548339844 100.60807037353516 C 319.8576965332031 100.44164276123047 320.8246154785156 101.67547607421875 320.7395935058594 102.58563232421875 C 320.35400390625 101.19452667236328 319.8048095703125 98.05765533447266 303.9875793457031 104.55250549316406" stroke-width="0.0" fill="rgb(247, 253, 253)" opacity="0.9999208" stroke="rgb(50, 5, 126)" stroke-opacity="0.30369705" stroke-linecap="round" stroke-linejoin="round"/>
  </g>
</svg>
