<?xml version="1.0" ?>
<svg xmlns="http://www.w3.org/2000/svg" version="1.1" width="474" height="596">
  <defs/>
  <g>
    <path d="M 262.59014892578125 2.730985403060913 C 267.7099914550781 -3.07409405708313 276.6104736328125 -3.633545398712158 289.6653137207031 1.7769838571548462 C 310.4875183105469 6.604189872741699 332.83026123046875 15.745038986206055 354.23052978515625 30.334606170654297 C 376.72833251953125 46.27565383911133 396.4600524902344 65.40699005126953 413.71917724609375 90.36255645751953 C 432.8853759765625 117.15888214111328 441.177001953125 128.95408630371094 423.3321533203125 150.88177490234375 C 404.0622253417969 178.5661163330078 379.20806884765625 196.9113006591797 354.9745788574219 212.9573516845703 C 335.58245849609375 223.9578857421875 312.21856689453125 225.15003967285156 292.1013488769531 237.51260375976562 C 283.4561462402344 246.11557006835938 280.74981689453125 251.22471618652344 278.31903076171875 253.00770568847656 C 273.5142822265625 251.92233276367188 266.3238525390625 249.56959533691406 258.2773742675781 247.15249633789062 C 251.2461700439453 246.4072723388672 247.0628204345703 248.27284240722656 246.89035034179688 253.16114807128906 C 250.78060913085938 260.8569641113281 258.3229064941406 270.71826171875 268.45562744140625 281.77197265625 C 279.6238708496094 293.0179443359375 290.53216552734375 303.6331481933594 300.0314636230469 312.8138732910156 C 307.6651916503906 319.6399841308594 313.3407897949219 323.2426452636719 317.0895080566406 323.2033996582031 C 318.9560241699219 319.6478271484375 319.20843505859375 312.8324279785156 318.27490234375 303.4104309082031 C 316.6082458496094 292.5843811035156 314.75152587890625 281.42681884765625 313.7388916015625 270.9935607910156 C 314.93743896484375 262.3954162597656 319.6741943359375 256.7458801269531 329.2607421875 254.94558715820312 C 344.7689514160156 257.85687255859375 365.9556579589844 265.6618347167969 390.0959777832031 278.4056091308594 C 411.8751525878906 291.845947265625 419.57354736328125 300.1441650390625 415.08929443359375 302.0318298339844 C 405.0370788574219 299.2191467285156 395.0389099121094 295.26092529296875 388.276123046875 293.4900207519531 C 386.6180114746094 295.21563720703125 390.78363037109375 301.1801452636719 400.64984130859375 311.5842590332031 C 414.96331787109375 326.0185241699219 428.7337341308594 341.4145812988281 432.86590576171875 353.6859436035156 C 430.5025939941406 349.816650390625 415.1684875488281 343.29522705078125 397.9092102050781 330.1625061035156 C 369.0653381347656 328.88775634765625 343.3808288574219 320.6858215332031 325.47222900390625 317.5882263183594 C 317.32379150390625 329.1871337890625 315.584716796875 350.06884765625 316.7261962890625 375.45135498046875 C 316.4334716796875 400.5904846191406 310.2340087890625 423.8952941894531 304.17510986328125 446.5776062011719 C 297.1272888183594 465.92578125 285.29144287109375 482.86212158203125 288.01171875 504.2017822265625 C 301.80096435546875 517.9893798828125 295.8695068359375 529.0388793945312 279.1803283691406 521.0017700195312 C 253.74862670898438 507.02716064453125 239.82151794433594 505.22479248046875 240.19705200195312 525.9339599609375 C 238.2135772705078 556.0014038085938 234.5906982421875 574.9528198242188 246.91696166992188 576.3316650390625 C 278.21112060546875 583.4226684570312 313.9744567871094 581.6232299804688 341.5570373535156 575.5771484375 C 345.9342041015625 559.3521728515625 342.18231201171875 560.37744140625 334.8006591796875 578.9646606445312 C 310.8809814453125 587.9957885742188 276.0244445800781 584.6165161132812 244.60162353515625 579.8592529296875 C 229.72918701171875 575.272705078125 233.08978271484375 557.2067260742188 235.4509735107422 530.2510986328125 C 233.98736572265625 510.8640441894531 246.05587768554688 493.6003723144531 242.00045776367188 471.1380920410156 C 232.807861328125 462.23138427734375 221.62539672851562 465.53656005859375 214.78382873535156 482.3685607910156 C 211.1931610107422 509.2733154296875 211.97998046875 518.6878051757812 201.40234375 505.7894287109375 C 182.3384552001953 493.4999084472656 168.56185913085938 495.3975830078125 168.21905517578125 506.36920166015625 C 180.76834106445312 513.2628784179688 198.85238647460938 515.47900390625 213.1791534423828 521.0978393554688 C 212.9208526611328 548.3334350585938 222.15798950195312 574.011474609375 214.51971435546875 585.4077758789062 C 189.4049835205078 585.015380859375 167.94837951660156 594.2880249023438 146.3373260498047 599.4080810546875 C 123.13536071777344 594.5089111328125 113.25875854492188 587.2742309570312 118.98443603515625 581.2372436523438 C 127.56590270996094 596.9512939453125 153.5102996826172 594.9373168945312 187.80874633789062 583.3825073242188 C 213.84671020507812 584.72021484375 215.97296142578125 581.0708618164062 212.77288818359375 558.1410522460938 C 211.33619689941406 531.563232421875 208.75025939941406 514.4715576171875 196.63352966308594 510.4361572265625 C 178.7542724609375 509.96893310546875 167.0894775390625 518.9971923828125 161.02191162109375 530.1978149414062 C 151.45404052734375 519.888427734375 165.4916534423828 506.75360107421875 167.02342224121094 482.71612548828125 C 156.69435119628906 462.4383239746094 155.02679443359375 440.5210876464844 153.08546447753906 413.65533447265625 C 151.82180786132812 386.0598449707031 150.02926635742188 360.9281005859375 142.36492919921875 342.631591796875 C 128.20639038085938 337.0578918457031 108.77124786376953 345.7333068847656 85.8184585571289 357.7261962890625 C 74.65010070800781 368.4029846191406 72.82984924316406 368.8255920410156 76.52499389648438 357.7935485839844 C 85.0067367553711 343.68939208984375 94.16321563720703 329.7503967285156 101.18231964111328 318.1712646484375 C 104.85639190673828 309.5809631347656 104.87218475341797 303.4104309082031 102.33671569824219 298.63531494140625 C 100.14800262451172 294.053955078125 101.53123474121094 288.2238464355469 109.86445617675781 279.55615234375 C 128.21592712402344 266.4962463378906 149.47750854492188 252.07081604003906 159.7816619873047 240.95046997070312 C 147.14004516601562 241.15965270996094 123.19419860839844 239.1795654296875 95.11832427978516 228.83999633789062 C 67.80461120605469 218.31797790527344 51.25178146362305 211.51388549804688 53.350032806396484 193.98770141601562 C 55.87211990356445 164.89987182617188 62.91260528564453 138.65672302246094 72.6894302368164 117.84580993652344 C 82.91075897216797 95.03024291992188 98.27104949951172 72.47236633300781 120.01058197021484 52.492393493652344 C 141.76058959960938 32.550514221191406 159.03099060058594 20.939414978027344 181.07594299316406 23.901639938354492 C 199.69410705566406 26.086313247680664 212.9774169921875 32.727569580078125 225.5268096923828 28.2476806640625 C 239.0135040283203 10.310888290405273 261.1941223144531 0.11077089607715607 262.59014892578125 2.730985403060913" stroke-width="0.0" fill="rgb(61, 35, 26)" opacity="0.9996953" stroke="rgb(92, 35, 30)" stroke-opacity="0.4294523" stroke-linecap="round" stroke-linejoin="round"/>
    <path d="M 179.6913604736328 241.12347412109375 C 179.67059326171875 240.15391540527344 179.6763153076172 239.22021484375 179.9300079345703 238.5471954345703 C 180.64523315429688 238.32249450683594 181.890380859375 238.6070556640625 183.72915649414062 239.25143432617188 C 186.28375244140625 240.1207275390625 189.79037475585938 241.21817016601562 194.35121154785156 242.43212890625 C 200.16659545898438 243.75425720214844 207.51451110839844 244.8607940673828 216.17381286621094 245.75608825683594 C 225.84622192382812 246.19436645507812 236.44622802734375 245.90875244140625 247.76283264160156 245.1796875 C 259.0596618652344 244.68545532226562 269.8553161621094 243.97915649414062 279.3832702636719 241.9765625 C 286.3649597167969 237.93202209472656 290.312744140625 235.68577575683594 293.422607421875 239.0616912841797 C 301.75213623046875 240.91212463378906 312.81024169921875 242.1955108642578 324.1756591796875 245.2617645263672 C 334.6572265625 248.2652587890625 344.4631042480469 251.7417755126953 353.60015869140625 256.68060302734375 C 363.3317565917969 260.32000732421875 367.2127685546875 263.8215637207031 365.35638427734375 270.5868835449219 C 372.67840576171875 273.80865478515625 383.4006652832031 277.87548828125 394.54388427734375 285.090576171875 C 404.94525146484375 292.89239501953125 409.78125 298.8660583496094 414.55950927734375 294.5088195800781 C 424.3644714355469 291.2963562011719 434.43670654296875 288.68072509765625 441.4283142089844 279.4755859375 C 451.47186279296875 277.8328552246094 452.57049560546875 285.0606994628906 447.4649963378906 296.2734375 C 453.29498291015625 302.8978271484375 465.2425842285156 306.596435546875 473.3369140625 314.6449279785156 C 475.7519226074219 321.53271484375 471.25787353515625 322.50604248046875 466.0354919433594 326.27880859375 C 471.1180725097656 340.9686279296875 461.2391357421875 350.1541442871094 445.1665954589844 346.816650390625 C 444.7955322265625 357.62664794921875 445.2939147949219 363.5155029296875 434.8468933105469 359.6911926269531 C 432.1336975097656 350.81988525390625 430.5616760253906 342.7655029296875 418.67620849609375 340.3992919921875 C 407.2235412597656 334.622802734375 402.49749755859375 325.9770812988281 395.0425720214844 326.1728515625 C 381.8001708984375 325.4429626464844 366.6495666503906 322.703857421875 353.5322265625 318.19769287109375 C 346.5645446777344 313.7267150878906 344.9908752441406 318.3506164550781 342.7717590332031 326.8652648925781 C 335.14111328125 326.06439208984375 328.29180908203125 320.4545593261719 324.098388671875 318.13427734375 C 325.0088806152344 323.46539306640625 325.2933044433594 333.76776123046875 321.8565673828125 346.3846740722656 C 323.4384765625 359.6134033203125 323.9982604980469 371.58673095703125 323.68292236328125 380.36871337890625 C 321.1865234375 383.21502685546875 317.74896240234375 381.25994873046875 313.94085693359375 378.4000549316406 C 309.0721435546875 381.1996154785156 304.3052673339844 388.818115234375 300.3931884765625 399.670654296875 C 297.91644287109375 412.1367492675781 296.4590148925781 424.84197998046875 295.2474365234375 436.85498046875 C 293.6572570800781 447.3485412597656 291.2232360839844 456.0859375 287.73095703125 462.8318176269531 C 283.0551452636719 467.282470703125 277.1888122558594 469.2492980957031 270.25238037109375 468.7676696777344 C 262.4593505859375 465.90826416015625 254.07566833496094 461.19073486328125 245.6529541015625 455.4896240234375 C 237.83334350585938 449.9393005371094 230.79336547851562 445.99664306640625 224.6793212890625 444.80255126953125 C 219.34930419921875 447.0256652832031 214.1911163330078 451.61871337890625 208.49412536621094 457.46533203125 C 202.06658935546875 463.3725891113281 195.2133026123047 468.0693359375 188.2849884033203 470.6465148925781 C 181.70242309570312 470.53729248046875 175.95355224609375 467.9930419921875 171.41824340820312 463.41546630859375 C 168.42947387695312 457.1127014160156 167.05381774902344 449.2217102050781 166.98123168945312 440.1553955078125 C 167.65777587890625 430.197265625 168.06448364257812 419.5773010253906 167.10687255859375 408.86895751953125 C 163.78929138183594 399.2137756347656 159.60922241210938 392.0294494628906 156.08126831054688 389.20819091796875 C 155.52676391601562 392.8113708496094 154.3797607421875 397.0847473144531 148.45999145507812 398.2825622558594 C 137.28829956054688 398.1407165527344 126.3017807006836 394.5791015625 118.85584259033203 384.77008056640625 C 113.92510986328125 373.7881164550781 113.27104187011719 360.80279541015625 113.54519653320312 348.1937561035156 C 116.87968444824219 340.7969665527344 121.75354766845703 336.86712646484375 121.83607482910156 335.1235656738281 C 116.90928649902344 337.6425476074219 108.49740600585938 343.0577697753906 98.37190246582031 348.0028381347656 C 90.34838104248047 352.40863037109375 84.11537170410156 352.95916748046875 79.31981658935547 353.6221008300781 C 76.41293334960938 356.16717529296875 75.69001770019531 361.94940185546875 75.4038314819336 368.9789733886719 C 69.48538970947266 377.3314514160156 59.609718322753906 382.0704345703125 59.23175811767578 391.40960693359375 C 58.78789520263672 404.77215576171875 52.94383239746094 408.9842529296875 46.10010528564453 400.5105895996094 C 43.842105865478516 388.4640808105469 39.74303436279297 389.68560791015625 32.857112884521484 401.06463623046875 C 27.298734664916992 403.1723327636719 19.48298454284668 394.97161865234375 9.371708869934082 388.74151611328125 C 11.726515769958496 380.1834716796875 9.82688045501709 377.3675231933594 0.9531809091567993 377.3478088378906 C -2.1676204204559326 371.2017517089844 4.728830337524414 361.4659729003906 14.345755577087402 350.05438232421875 C 20.58562660217285 341.3763732910156 17.86506462097168 331.45086669921875 18.50918960571289 321.7646179199219 C 24.596559524536133 316.6925048828125 31.27850914001465 324.7110290527344 40.707862854003906 331.5804138183594 C 45.336708068847656 325.9874267578125 48.931602478027344 319.1358947753906 60.12508010864258 317.3999328613281 C 70.14230346679688 306.1061096191406 80.01388549804688 296.45599365234375 88.13016510009766 291.3667907714844 C 91.57361602783203 289.14794921875 90.69086456298828 287.140625 90.2451171875 282.8796691894531 C 94.57218933105469 276.8942565917969 102.89213562011719 270.7668151855469 112.38422393798828 264.46954345703125 C 121.45130920410156 258.9112854003906 130.1173095703125 254.43234252929688 138.07977294921875 250.36961364746094 C 146.52626037597656 247.1157684326172 154.6702880859375 244.61196899414062 160.53314208984375 240.62078857421875 C 165.9275665283203 241.3199462890625 171.16754150390625 242.7164306640625 179.6913604736328 241.12347412109375" stroke-width="0.0" fill="rgb(248, 187, 108)" opacity="1.0" stroke="rgb(246, 201, 170)" stroke-opacity="0.6662853" stroke-linecap="round" stroke-linejoin="round"/>
    <path d="M 342.78558349609375 92.0063705444336 C 342.8702392578125 92.01693725585938 343.0042724609375 92.07269287109375 343.1883544921875 92.08132934570312 C 343.5710754394531 92.178466796875 344.1888427734375 92.55162811279297 345.1039733886719 93.1152572631836 C 346.3026123046875 93.97799682617188 347.6680603027344 95.26675415039062 349.3151550292969 96.82518768310547 C 351.2294616699219 98.65482330322266 353.3623352050781 100.7037353515625 355.6195068359375 102.99585723876953 C 357.95599365234375 105.7414321899414 360.23583984375 108.97370910644531 362.5019836425781 112.82059478759766 C 364.654296875 117.32691955566406 366.6502380371094 122.49793243408203 368.25738525390625 128.05055236816406 C 369.59002685546875 133.64816284179688 370.474609375 139.02496337890625 370.8818054199219 144.20187377929688 C 370.7814636230469 149.17735290527344 370.2647399902344 153.97164916992188 369.4411315917969 158.69488525390625 C 368.0511474609375 163.4376983642578 366.3778991699219 168.31741333007812 364.4593505859375 173.3702392578125 C 362.20184326171875 178.48789978027344 359.49102783203125 183.5503387451172 356.48370361328125 188.31031799316406 C 353.1882019042969 192.56092834472656 349.53094482421875 196.4481964111328 345.7405700683594 200.06088256835938 C 342.005615234375 203.70249938964844 338.174560546875 207.44810485839844 334.11541748046875 211.13088989257812 C 329.5789489746094 214.6459503173828 324.7367858886719 217.89944458007812 319.8482971191406 220.7603302001953 C 315.4739074707031 223.49667358398438 311.0166015625 225.73582458496094 306.67669677734375 227.91925048828125 C 302.1321716308594 230.01089477539062 297.2821044921875 232.11224365234375 292.3171691894531 234.10630798339844 C 287.15997314453125 235.82594299316406 281.93438720703125 237.45382690429688 276.81829833984375 238.25454711914062 C 271.8184509277344 239.0168914794922 266.9213562011719 239.87269592285156 262.1749572753906 240.80569458007812 C 257.5035705566406 241.5763702392578 252.64981079101562 242.42050170898438 247.6444549560547 242.9706268310547 C 242.33010864257812 243.2436065673828 236.76223754882812 243.4883270263672 230.9358367919922 243.72833251953125 C 224.98350524902344 243.7745819091797 219.10499572753906 243.25794982910156 213.45721435546875 242.31007385253906 C 208.26109313964844 241.11648559570312 203.53956604003906 239.74302673339844 199.2737579345703 238.36277770996094 C 195.3329315185547 236.91390991210938 191.46405029296875 235.2996063232422 187.45436096191406 233.44580078125 C 183.19776916503906 231.50003051757812 178.98451232910156 229.0650177001953 174.80374145507812 226.21609497070312 C 170.56063842773438 223.0462646484375 166.460205078125 219.58131408691406 162.54393005371094 215.89479064941406 C 158.85084533691406 212.29071044921875 155.52198791503906 208.58934020996094 152.52923583984375 204.4157257080078 C 149.6880645751953 199.70504760742188 147.18264770507812 194.24794006347656 145.13734436035156 188.2051239013672 C 143.47035217285156 182.18112182617188 142.76510620117188 176.4031982421875 142.9956817626953 170.96533203125 C 143.15628051757812 165.98785400390625 143.69422912597656 161.50155639648438 145.21524047851562 157.01791381835938 C 147.24363708496094 152.46836853027344 151.29542541503906 149.12451171875 155.23931884765625 145.32603454589844 C 156.9830780029297 139.87100219726562 157.57962036132812 134.5175323486328 158.27841186523438 130.96177673339844 C 160.46238708496094 130.5283660888672 162.88204956054688 132.65365600585938 165.26699829101562 136.123779296875 C 168.81536865234375 138.02528381347656 173.41256713867188 137.07525634765625 178.59332275390625 134.04763793945312 C 183.80386352539062 131.631591796875 187.73992919921875 131.04441833496094 189.49444580078125 132.21714782714844 C 188.5684051513672 134.83335876464844 186.17489624023438 138.6063995361328 184.2314910888672 143.38455200195312 C 183.7772979736328 148.74697875976562 184.4542236328125 153.9869842529297 185.94886779785156 158.59275817871094 C 188.15065002441406 162.38113403320312 191.0587921142578 165.19064331054688 194.40078735351562 166.8788299560547 C 198.13624572753906 167.45033264160156 202.448974609375 167.12799072265625 207.41714477539062 166.13710021972656 C 213.24986267089844 164.8612518310547 219.66976928710938 163.2056884765625 226.14370727539062 161.24610900878906 C 231.88186645507812 159.71466064453125 236.78720092773438 158.20285034179688 240.6962432861328 156.10060119628906 C 243.4878387451172 153.50100708007812 245.32102966308594 150.31210327148438 246.24461364746094 146.8805389404297 C 246.18405151367188 143.32179260253906 245.1370086669922 139.73406982421875 243.03880310058594 136.31689453125 C 239.7379913330078 133.15892028808594 235.55149841308594 130.33338928222656 230.79640197753906 127.62390899658203 C 225.4085235595703 125.40032196044922 220.21908569335938 123.5859375 216.13719177246094 122.50283813476562 C 214.01878356933594 121.78330993652344 214.64256286621094 121.2254867553711 218.26905822753906 120.15180969238281 C 224.6950225830078 118.2852554321289 232.76416015625 116.70932006835938 240.66595458984375 115.1102294921875 C 245.36378479003906 112.68773651123047 245.75987243652344 108.76789855957031 243.7410430908203 104.04861450195312 C 241.65896606445312 99.37103271484375 240.5553436279297 96.1538314819336 241.6967010498047 94.76596069335938 C 245.095947265625 95.75091552734375 249.84597778320312 99.0864486694336 254.73468017578125 103.1048355102539 C 258.814697265625 106.55970764160156 262.3434753417969 108.47994995117188 265.93121337890625 108.7623519897461 C 270.31744384765625 108.01409149169922 275.4416198730469 106.65247344970703 281.4927978515625 105.16873931884766 C 288.1035461425781 103.85920715332031 294.3612976074219 102.62459564208984 299.6313781738281 101.59272766113281 C 303.3238220214844 100.5975112915039 305.5270080566406 100.61538696289062 307.1795654296875 102.88072204589844 C 309.9599304199219 105.42974090576172 313.1081237792969 108.35909271240234 316.39727783203125 111.61746978759766 C 319.6570739746094 115.12797546386719 322.6241455078125 118.89668273925781 325.2003173828125 122.6529769897461 C 327.7268371582031 125.84691619873047 330.4972229003906 127.96199035644531 333.45770263671875 128.74957275390625 C 336.3398132324219 128.26678466796875 338.860107421875 126.60700988769531 340.67919921875 123.82872772216797 C 341.24676513671875 120.05902099609375 340.4093017578125 115.48860168457031 338.2110290527344 110.52835845947266 C 334.92059326171875 105.72357177734375 331.01129150390625 101.69386291503906 327.4181823730469 99.2267837524414 C 326.104248046875 97.68567657470703 327.127197265625 96.4923095703125 329.72308349609375 95.74811553955078 C 333.0295104980469 95.42796325683594 336.3017883300781 95.37506866455078 342.78558349609375 92.0063705444336" stroke-width="0.0" fill="rgb(252, 188, 106)" opacity="0.9999948" stroke="rgb(58, 145, 187)" stroke-opacity="0.24435565" stroke-linecap="round" stroke-linejoin="round"/>
    <path d="M 302.2520751953125 374.71484375 C 302.2413635253906 375.605224609375 302.21038818359375 376.4458312988281 302.1827392578125 377.0879211425781 C 302.1530456542969 377.433349609375 302.0361022949219 377.43310546875 301.86944580078125 377.1180114746094 C 301.6667175292969 376.60589599609375 301.6828308105469 376.1891174316406 301.9225158691406 376.0687255859375 C 302.9389953613281 376.1980285644531 304.7229309082031 376.30780029296875 307.1033020019531 376.2919921875 C 309.699951171875 376.1977844238281 311.8585510253906 376.34027099609375 312.5239562988281 377.47705078125 C 311.37579345703125 380.263671875 311.4592590332031 384.4020690917969 311.8475341796875 389.5264587402344 C 311.681396484375 394.8490905761719 311.5086975097656 399.6311340332031 311.1685485839844 403.7248840332031 C 310.32952880859375 407.3180236816406 309.59442138671875 410.6801452636719 308.9259338378906 413.7581787109375 C 308.146240234375 416.5300598144531 307.54925537109375 419.0793762207031 306.9277038574219 421.460205078125 C 306.50286865234375 423.4654846191406 306.0106506347656 425.446533203125 305.475341796875 427.5176696777344 C 304.8810119628906 429.1625061035156 304.26495361328125 431.4586486816406 303.2986755371094 434.7936096191406 C 302.0274963378906 439.5932312011719 300.71148681640625 445.5472717285156 299.31756591796875 451.5796203613281 C 298.3983154296875 455.63934326171875 298.8693542480469 456.80413818359375 300.92938232421875 454.8832092285156 C 302.18890380859375 453.03662109375 302.3096008300781 455.8603820800781 300.7254943847656 461.9475402832031 C 300.8319396972656 468.6152648925781 298.4416198730469 472.46673583984375 293.4046630859375 472.85943603515625 C 293.50537109375 470.37005615234375 292.767333984375 468.969970703125 288.85699462890625 469.7901916503906 C 282.83935546875 471.06048583984375 276.40545654296875 472.3992614746094 270.7698669433594 473.3467102050781 C 266.0025634765625 473.44451904296875 261.88165283203125 472.7038879394531 258.1836242675781 471.3549499511719 C 254.6894989013672 469.89453125 251.29885864257812 468.69720458984375 247.66859436035156 467.8623352050781 C 244.2304229736328 467.0145568847656 241.06553649902344 466.1873779296875 238.81527709960938 465.12945556640625 C 237.83828735351562 462.9727478027344 237.43275451660156 460.2348937988281 237.4176483154297 457.239990234375 C 237.2168426513672 454.0931091308594 236.8228759765625 451.0235290527344 236.18231201171875 448.4084167480469 C 234.82168579101562 446.5990905761719 232.7705841064453 445.87091064453125 230.3416748046875 446.775390625 C 227.74728393554688 449.45843505859375 225.38121032714844 453.21759033203125 223.9327392578125 458.3457946777344 C 223.1050262451172 464.4010925292969 222.6805877685547 468.811767578125 226.11181640625 468.4742431640625 C 228.2303466796875 471.24517822265625 225.79339599609375 475.71173095703125 219.7803192138672 474.4275207519531 C 212.40403747558594 468.0284729003906 210.65032958984375 475.6765441894531 209.60145568847656 494.7928161621094 C 209.79759216308594 513.7655639648438 205.29469299316406 523.5067138671875 193.98133850097656 520.7706298828125 C 190.79595947265625 509.33319091796875 191.64964294433594 502.66497802734375 190.03504943847656 503.7401123046875 C 183.7183074951172 508.28546142578125 175.75579833984375 510.5544738769531 169.59188842773438 505.5099182128906 C 168.76536560058594 494.64776611328125 169.28138732910156 482.6213684082031 169.294921875 472.80126953125 C 168.0169677734375 467.9980773925781 163.8658447265625 466.5196228027344 161.02345275878906 467.66180419921875 C 162.0612030029297 472.2948303222656 161.8448028564453 473.3949279785156 158.90908813476562 469.4532165527344 C 156.79823303222656 462.3367004394531 156.7681884765625 454.89324951171875 158.660888671875 449.2176818847656 C 158.58975219726562 444.4668273925781 158.41368103027344 441.5159912109375 158.11708068847656 439.952880859375 C 157.5329132080078 438.7088928222656 157.57046508789062 436.94696044921875 157.5803985595703 434.5244445800781 C 157.57496643066406 431.5857238769531 157.3125457763672 428.4436950683594 156.61061096191406 425.2277526855469 C 156.56161499023438 421.9799499511719 156.53529357910156 418.8336181640625 156.52195739746094 415.5770263671875 C 156.53955078125 412.0606994628906 156.4004364013672 408.3880615234375 156.4093017578125 404.5143737792969 C 156.4578399658203 400.3975524902344 156.4539337158203 396.2917175292969 156.86126708984375 392.4167175292969 C 156.5958709716797 389.0574645996094 155.9970703125 386.18011474609375 155.79664611816406 383.6642150878906 C 156.42474365234375 381.3929748535156 158.114501953125 379.46429443359375 160.66390991210938 378.12835693359375 C 163.827392578125 377.3130798339844 167.49815368652344 377.1980895996094 171.51315307617188 377.5393371582031 C 175.61436462402344 378.11676025390625 179.54640197753906 378.92950439453125 183.1651153564453 379.7501525878906 C 186.4182586669922 380.4972229003906 189.3837890625 381.09588623046875 192.02200317382812 381.6830139160156 C 194.50074768066406 382.39276123046875 196.88133239746094 383.1383972167969 199.13449096679688 383.8373107910156 C 201.2813720703125 384.57525634765625 203.30052185058594 385.2706298828125 205.0336456298828 385.7908020019531 C 206.54562377929688 386.1445007324219 207.87400817871094 386.41265869140625 208.95701599121094 386.6444091796875 C 210.09536743164062 386.79705810546875 211.3734130859375 386.9190979003906 212.73208618164062 386.90826416015625 C 214.2957000732422 386.9256286621094 216.06011962890625 386.9886474609375 218.06065368652344 387.11578369140625 C 220.40834045410156 387.3367614746094 223.00758361816406 387.63201904296875 225.82162475585938 387.8785705566406 C 228.763427734375 388.1041259765625 231.76336669921875 388.3155517578125 234.79080200195312 388.40924072265625 C 237.8180694580078 388.4321594238281 240.86119079589844 388.41522216796875 243.82342529296875 388.43109130859375 C 246.6963348388672 388.458740234375 249.56307983398438 388.5514221191406 252.3585662841797 388.6623229980469 C 255.04742431640625 388.68157958984375 257.8190002441406 388.6003723144531 260.61907958984375 388.20208740234375 C 263.4318542480469 387.5148010253906 266.2853698730469 386.6369323730469 269.1155090332031 385.6737976074219 C 271.93896484375 384.6417236328125 274.89923095703125 384.0747985839844 277.9023132324219 383.9408874511719 C 280.94073486328125 384.0060119628906 283.9356384277344 384.0992736816406 286.844970703125 383.9683532714844 C 289.721923828125 383.5145568847656 292.3958435058594 382.5879211425781 294.9768371582031 381.3436584472656 C 297.5355224609375 379.7554931640625 300.1038818359375 378.0953674316406 302.2520751953125 374.71484375" stroke-width="0.0" fill="rgb(253, 76, 2)" opacity="0.99959403" stroke="rgb(241, 157, 206)" stroke-opacity="0.58332807" stroke-linecap="round" stroke-linejoin="round"/>
  </g>
</svg>
