<?xml version="1.0" ?>
<svg xmlns="http://www.w3.org/2000/svg" version="1.1" width="474" height="596">
  <defs/>
  <g>
    <path d="M 267.7655944824219 -2.023872137069702 C 268.36944580078125 -2.686692714691162 269.0472412109375 -3.185678720474243 269.801025390625 -3.6751952171325684 C 270.45062255859375 -4.034709930419922 270.9734802246094 -4.383416175842285 271.2355041503906 -4.662528038024902 C 271.2931823730469 -4.850395202636719 271.264892578125 -4.8905930519104 271.2315368652344 -4.867546081542969 C 271.2838134765625 -4.893889427185059 271.58770751953125 -4.94334602355957 272.15740966796875 -4.879885673522949 C 273.19293212890625 -4.4030375480651855 275.1027526855469 -3.6454098224639893 278.2115173339844 -2.12235689163208 C 282.4848937988281 -0.22936218976974487 288.2900695800781 1.932805061340332 295.8023681640625 3.361212968826294 C 303.9994812011719 5.47833776473999 312.2652587890625 8.341105461120605 320.30291748046875 11.938844680786133 C 328.48431396484375 15.209195137023926 336.3296813964844 19.41243553161621 344.2049255371094 24.009599685668945 C 352.2281188964844 28.815656661987305 360.0415954589844 34.636192321777344 368.2235412597656 40.85105895996094 C 376.5189514160156 47.85233688354492 384.74749755859375 55.46988296508789 392.36895751953125 63.58670425415039 C 399.3874206542969 71.56006622314453 405.73809814453125 79.41719818115234 411.64410400390625 87.22317504882812 C 417.3458251953125 95.32764434814453 423.0234069824219 104.02434539794922 428.2874450683594 112.88102722167969 C 433.5868225097656 120.59508514404297 434.9845886230469 128.02645874023438 432.0381164550781 136.0474395751953 C 428.00128173828125 144.85621643066406 422.383056640625 153.0385284423828 415.9320983886719 160.98544311523438 C 409.1936950683594 169.24559020996094 401.31475830078125 177.0194549560547 393.0599365234375 184.50277709960938 C 384.7816467285156 191.5703582763672 376.60736083984375 197.88839721679688 368.8199768066406 203.68919372558594 C 361.07391357421875 208.99388122558594 353.04736328125 213.9735870361328 344.0077209472656 218.66143798828125 C 332.93756103515625 222.56033325195312 322.7569885253906 225.57598876953125 315.5082702636719 225.8074951171875 C 314.4051208496094 222.0183868408203 319.02227783203125 215.69464111328125 326.8318176269531 208.19784545898438 C 335.42425537109375 200.88717651367188 343.4576416015625 193.47454833984375 350.41510009765625 185.68844604492188 C 355.7976989746094 177.76730346679688 359.8733215332031 169.95130920410156 362.8562316894531 162.06585693359375 C 364.81707763671875 154.07374572753906 365.8086242675781 145.95236206054688 365.8581848144531 137.84072875976562 C 364.9705505371094 129.94659423828125 363.2103576660156 122.55888366699219 360.60809326171875 116.01152038574219 C 357.09124755859375 110.63356018066406 352.6224365234375 106.59326934814453 347.4121398925781 104.02326202392578 C 340.59832763671875 102.945556640625 334.0017395019531 102.7525863647461 327.5646057128906 101.63868713378906 C 320.2254638671875 99.46125793457031 312.4708251953125 100.9415512084961 303.7185974121094 103.94091796875 C 294.08575439453125 106.17993927001953 284.4529113769531 108.03652954101562 275.55548095703125 109.33155059814453 C 267.7177429199219 109.98077392578125 261.4715576171875 109.83168029785156 256.9663391113281 108.83979797363281 C 253.96603393554688 108.04866790771484 251.9072723388672 108.31558227539062 250.26937866210938 109.88890838623047 C 248.5626983642578 112.21601867675781 245.9009246826172 115.06146240234375 241.8166961669922 118.2258529663086 C 236.1125946044922 121.50694274902344 229.11131286621094 124.77851104736328 221.1049346923828 127.83926391601562 C 212.48031616210938 130.51092529296875 203.65304565429688 132.82473754882812 195.02598571777344 134.83169555664062 C 186.9497528076172 136.59339904785156 179.7008056640625 138.3075714111328 173.41392517089844 140.04327392578125 C 168.07298278808594 141.7604217529297 163.56951904296875 143.68331909179688 159.7615509033203 146.1205596923828 C 156.48287963867188 149.30331420898438 153.68272399902344 153.3425750732422 151.36769104003906 158.2660369873047 C 149.67544555664062 164.01370239257812 148.79112243652344 170.50048828125 148.8745880126953 177.62472534179688 C 150.08624267578125 185.23489379882812 152.72064208984375 193.0830535888672 157.05035400390625 200.90147399902344 C 163.2329559326172 208.45875549316406 171.11892700195312 215.60093688964844 180.17794799804688 222.13943481445312 C 189.8559112548828 227.903076171875 199.253173828125 232.9174041748047 207.32777404785156 237.1916046142578 C 212.90904235839844 240.6436004638672 214.95603942871094 243.23439025878906 212.8164520263672 244.760986328125 C 207.1199951171875 244.71658325195312 199.6247100830078 242.7158203125 191.26841735839844 239.6248321533203 C 182.42208862304688 239.10220336914062 173.03903198242188 239.98951721191406 163.7109832763672 240.7559051513672 C 154.42942810058594 241.0128631591797 145.28826904296875 240.73057556152344 136.5548553466797 239.7206573486328 C 128.6323699951172 238.1090087890625 120.51622772216797 236.2412109375 112.69200134277344 234.4391632080078 C 105.0287094116211 232.26913452148438 97.38668823242188 229.5538787841797 89.19087982177734 226.72303771972656 C 80.83264923095703 223.4178924560547 72.41687774658203 219.43934631347656 64.50604248046875 214.8753662109375 C 57.342254638671875 210.91970825195312 53.52140426635742 205.42930603027344 53.34098815917969 197.5297088623047 C 53.92673110961914 187.9412841796875 54.7677001953125 178.1085662841797 56.86186599731445 168.8933563232422 C 58.12577438354492 160.21966552734375 60.07998275756836 152.6375732421875 62.5062141418457 145.27902221679688 C 64.78108215332031 137.5478057861328 67.45355987548828 129.52099609375 71.11373901367188 121.50785064697266 C 74.6702880859375 113.19738006591797 78.92076110839844 105.17239379882812 83.35232543945312 96.85211944580078 C 88.2630615234375 88.7575912475586 93.88424682617188 80.97449493408203 100.33035278320312 73.3199234008789 C 107.12578582763672 65.05162811279297 114.61128997802734 56.93905258178711 123.0240249633789 49.838340759277344 C 131.1075897216797 42.81843185424805 139.6172332763672 36.46883010864258 147.87921142578125 30.601131439208984 C 155.3386993408203 26.32393455505371 162.74288940429688 24.415380477905273 170.8012237548828 23.979793548583984 C 179.0816192626953 23.357526779174805 187.82435607910156 24.37062644958496 196.68170166015625 26.617727279663086 C 204.6675262451172 28.962194442749023 210.24966430664062 30.467370986938477 213.19056701660156 27.86893653869629 C 216.93556213378906 30.010601043701172 221.366455078125 30.238250732421875 226.7178192138672 26.851282119750977 C 233.10003662109375 19.205575942993164 240.7586212158203 11.990202903747559 249.9258575439453 7.10408878326416 C 258.7409362792969 2.446455478668213 268.8790588378906 -0.3165317177772522 267.7655944824219 -2.023872137069702" stroke-width="0.0" fill="rgb(63, 39, 32)" opacity="0.99999356" stroke="rgb(84, 229, 242)" stroke-opacity="0.3668558" stroke-linecap="round" stroke-linejoin="round"/>
    <path d="M 317.191162109375 225.33181762695312 C 306.1810302734375 231.72459411621094 296.0341491699219 235.08602905273438 290.75311279296875 237.72451782226562 C 293.96514892578125 245.33071899414062 296.8209533691406 254.53956604003906 295.16607666015625 260.66131591796875 C 286.6277160644531 259.81805419921875 274.7096862792969 255.2078857421875 262.8455505371094 250.7687530517578 C 253.76075744628906 247.8236846923828 249.67279052734375 246.6763916015625 252.16885375976562 247.5251007080078 C 260.7574157714844 249.92855834960938 273.41839599609375 253.69186401367188 287.3559265136719 258.78082275390625 C 298.00665283203125 267.33453369140625 304.40338134765625 279.40728759765625 308.18017578125 292.64349365234375 C 311.0388488769531 304.36737060546875 312.7628479003906 313.59124755859375 313.8541259765625 319.80010986328125 C 314.740234375 322.6302490234375 314.9647521972656 322.02093505859375 314.3990173339844 317.9938049316406 C 312.8721923828125 310.675537109375 309.8228454589844 299.5466003417969 305.0097961425781 285.1150207519531 C 297.4390869140625 269.1842956542969 293.0970153808594 253.3479766845703 295.0589904785156 241.54830932617188 C 307.28778076171875 239.7624053955078 327.1186828613281 244.73248291015625 349.92181396484375 254.74757385253906 C 370.83087158203125 269.7018127441406 391.0636291503906 279.4385986328125 404.29193115234375 287.9759216308594 C 410.35150146484375 292.0328674316406 409.79547119140625 293.5636291503906 404.9267272949219 294.0163879394531 C 398.56646728515625 295.97979736328125 393.0964050292969 300.1455383300781 390.53399658203125 306.25115966796875 C 392.28143310546875 313.7430114746094 398.170166015625 321.9498596191406 406.6709289550781 329.7691955566406 C 415.33245849609375 335.97674560546875 421.5776062011719 339.6075744628906 422.9303894042969 339.9024353027344 C 417.10614013671875 336.7242736816406 403.7403564453125 331.8910217285156 383.7832946777344 328.4018249511719 C 361.54986572265625 324.9552307128906 341.0054931640625 323.6549987792969 325.2511901855469 325.05523681640625 C 320.9088134765625 335.5875549316406 322.0662536621094 351.2432556152344 323.3453063964844 369.70068359375 C 312.9450378417969 390.8611145019531 303.17828369140625 415.5250244140625 296.9900207519531 441.6624450683594 C 291.64483642578125 466.3633117675781 288.0037536621094 487.8184814453125 287.7928466796875 504.1554260253906 C 285.2445983886719 513.2772216796875 278.4267272949219 517.9043579101562 267.8578186035156 520.6513671875 C 255.4205780029297 523.1876831054688 244.58645629882812 528.4412841796875 235.88819885253906 538.017333984375 C 231.68856811523438 551.3475952148438 234.98074340820312 562.5482177734375 249.1494140625 568.5811767578125 C 271.7474060058594 571.6345825195312 298.586181640625 572.374755859375 323.6448974609375 571.1414794921875 C 340.7181091308594 568.0635986328125 346.1309814453125 568.663818359375 340.593505859375 575.9689331054688 C 325.4947204589844 584.30224609375 303.521484375 586.1146240234375 278.93994140625 583.938720703125 C 257.6683349609375 582.60009765625 243.07138061523438 572.5841064453125 235.9161376953125 555.693603515625 C 235.5287322998047 535.2696533203125 238.64059448242188 513.6046752929688 242.29039001464844 493.1968688964844 C 243.79690551757812 476.4053649902344 240.75375366210938 464.9790344238281 232.7970733642578 459.5447998046875 C 222.3096923828125 459.9474182128906 211.4697723388672 464.0482482910156 202.02487182617188 469.62005615234375 C 195.6226348876953 474.6282958984375 193.09164428710938 478.3734436035156 194.09535217285156 481.7210998535156 C 198.22792053222656 486.8666687011719 204.71630859375 495.8420104980469 211.04342651367188 509.85455322265625 C 213.87525939941406 529.3303833007812 215.5336151123047 552.3320922851562 217.940185546875 573.5398559570312 C 218.695556640625 586.0753173828125 209.21405029296875 587.889404296875 189.876220703125 586.7479248046875 C 166.39927673339844 595.6983642578125 142.45993041992188 599.3699340820312 123.18751525878906 592.30029296875 C 113.50173950195312 581.9772338867188 115.7405776977539 575.9625244140625 128.7991485595703 579.6724853515625 C 151.49090576171875 584.3817138671875 178.1035614013672 583.4794311523438 201.18630981445312 579.456298828125 C 213.41188049316406 570.7885131835938 213.6076202392578 556.4620971679688 211.15638732910156 540.3211059570312 C 210.2757568359375 528.4415283203125 204.26571655273438 522.5431518554688 194.66697692871094 520.6371459960938 C 184.54525756835938 520.0724487304688 175.19473266601562 518.3804931640625 168.26458740234375 513.8711547851562 C 165.04515075683594 505.39678955078125 165.41172790527344 492.120361328125 166.69532775878906 473.95196533203125 C 167.20431518554688 452.53082275390625 165.27468872070312 430.599365234375 158.77720642089844 411.4223327636719 C 145.19456481933594 399.1602478027344 128.3193359375 392.2357177734375 117.12796783447266 381.6664733886719 C 114.48272705078125 365.5948181152344 112.33122253417969 352.78656005859375 105.86151123046875 348.7508544921875 C 95.7783203125 352.5569152832031 88.07492065429688 356.66131591796875 85.450439453125 355.927734375 C 88.7203598022461 349.3100280761719 95.4261703491211 340.7764892578125 102.4598388671875 331.7227478027344 C 106.54031372070312 322.90264892578125 106.51253509521484 314.54449462890625 102.9300537109375 306.5126953125 C 97.16504669189453 298.77716064453125 91.6203384399414 291.644775390625 89.63188171386719 284.76507568359375 C 93.7668228149414 277.2595520019531 105.11769104003906 269.0859069824219 121.8946762084961 258.4929504394531 C 142.80601501464844 247.27059936523438 163.37020874023438 239.57801818847656 178.5299835205078 238.82644653320312 C 183.21603393554688 246.30809020996094 179.40016174316406 260.6969299316406 172.04727172851562 279.6716003417969 C 165.5766143798828 300.6963195800781 160.65736389160156 321.44854736328125 157.5425262451172 339.4491882324219 C 156.1682586669922 352.9147033691406 155.33023071289062 361.40814208984375 155.02166748046875 364.4871520996094 C 155.12680053710938 362.81219482421875 155.6029052734375 356.843017578125 156.74623107910156 347.38153076171875 C 158.631591796875 334.796630859375 161.8418731689453 319.918701171875 166.04458618164062 303.05755615234375 C 171.05430603027344 285.13385009765625 175.77508544921875 267.7869567871094 179.5264434814453 253.35694885253906 C 184.67034912109375 244.18429565429688 193.12220764160156 241.99546813964844 205.5538330078125 243.65411376953125 C 220.96534729003906 244.09771728515625 238.3841094970703 240.56663513183594 257.11309814453125 234.86761474609375 C 276.4830627441406 227.6200408935547 296.0413818359375 219.49794006347656 317.191162109375 225.33181762695312" stroke-width="0.0" fill="rgb(232, 109, 162)" opacity="0.99997514" stroke="rgb(58, 137, 133)" stroke-opacity="0.48754156" stroke-linecap="round" stroke-linejoin="round"/>
    <path d="M 343.6792297363281 94.03150939941406 C 344.0845642089844 93.76285552978516 344.58905029296875 93.75106811523438 344.9171447753906 93.64140319824219 C 345.3600769042969 93.75996398925781 345.80877685546875 94.20645904541016 346.53973388671875 95.1202163696289 C 347.4644470214844 96.05760192871094 348.2880554199219 96.93246459960938 349.01971435546875 97.76599884033203 C 349.76129150390625 98.46845245361328 350.513671875 99.13127136230469 351.12255859375 99.89216613769531 C 351.6995544433594 100.67314147949219 352.39239501953125 101.60298919677734 353.2120666503906 102.5167007446289 C 354.16619873046875 103.31430053710938 355.1182556152344 103.98648071289062 356.07086181640625 104.5286636352539 C 356.93017578125 105.03594970703125 357.4464416503906 105.61592864990234 358.0857849121094 106.28278350830078 C 358.89892578125 107.20613098144531 359.98577880859375 108.60466766357422 361.20257568359375 110.69747161865234 C 362.5147705078125 113.71334838867188 364.1679382324219 117.49556732177734 366.01806640625 121.49962615966797 C 367.53460693359375 125.68534088134766 368.6991882324219 130.06069946289062 369.54132080078125 134.5853271484375 C 370.051025390625 139.209716796875 370.2698669433594 143.8788299560547 370.32293701171875 148.53131103515625 C 370.09808349609375 153.13763427734375 369.32305908203125 157.76841735839844 368.09429931640625 162.46624755859375 C 366.5671691894531 167.24288940429688 364.7606506347656 172.0516357421875 362.66094970703125 176.74624633789062 C 360.32470703125 181.1295166015625 357.78045654296875 185.33055114746094 354.9466857910156 189.39242553710938 C 351.77294921875 193.38426208496094 348.3374938964844 197.3111572265625 344.43157958984375 201.04409790039062 C 340.18792724609375 204.7036590576172 336.56146240234375 208.97213745117188 332.05718994140625 212.3943634033203 C 327.6661071777344 215.60711669921875 323.1217346191406 218.49520874023438 319.28741455078125 221.4701385498047 C 315.27069091796875 223.6715850830078 311.4846496582031 225.5334014892578 307.8204650878906 227.20599365234375 C 304.3479919433594 228.93394470214844 300.8770446777344 230.54420471191406 297.2491455078125 232.08358764648438 C 293.3713073730469 233.6464080810547 289.3155517578125 235.09378051757812 285.2030029296875 236.38674926757812 C 280.9999694824219 237.5179443359375 276.6524963378906 238.5159149169922 272.14447021484375 239.40786743164062 C 267.6569519042969 240.2318572998047 263.3058166503906 241.02569580078125 258.914794921875 241.76390075683594 C 254.4634246826172 242.2374267578125 250.1751708984375 242.81985473632812 245.88873291015625 243.41629028320312 C 241.36073303222656 243.69676208496094 236.67405700683594 243.87847900390625 232.1885223388672 243.97007751464844 C 227.69398498535156 243.76858520507812 222.99087524414062 243.42721557617188 218.15211486816406 243.03683471679688 C 213.21542358398438 242.74546813964844 208.40444946289062 241.62689208984375 203.2521209716797 239.99974060058594 C 198.3965606689453 238.49513244628906 193.79017639160156 236.6822052001953 189.41549682617188 234.60340881347656 C 185.14915466308594 232.72947692871094 181.33229064941406 230.7765350341797 177.91790771484375 228.48072814941406 C 174.83419799804688 225.8334197998047 171.76597595214844 223.03733825683594 168.59385681152344 220.07008361816406 C 164.8739471435547 216.88853454589844 160.91893005371094 213.47679138183594 157.11672973632812 209.80140686035156 C 153.828857421875 205.9285430908203 151.0624237060547 202.0797576904297 148.84303283691406 198.04815673828125 C 147.24383544921875 193.76629638671875 145.77232360839844 189.8600616455078 144.42799377441406 186.240966796875 C 143.4893798828125 182.07928466796875 142.33372497558594 177.05899047851562 141.74078369140625 171.56178283691406 C 143.38046264648438 166.2969207763672 144.06007385253906 161.09063720703125 145.72598266601562 156.09996032714844 C 149.09706115722656 151.5478057861328 152.8541259765625 147.41799926757812 155.78770446777344 142.6709442138672 C 157.1457977294922 137.79971313476562 157.57386779785156 133.73045349121094 157.79493713378906 131.55813598632812 C 159.2912139892578 131.7389373779297 161.69200134277344 132.8241424560547 164.64878845214844 134.51416015625 C 168.43936157226562 135.50396728515625 172.91363525390625 135.5552520751953 177.7277069091797 134.55145263671875 C 182.77999877929688 132.6600799560547 187.9998779296875 130.5909423828125 193.0439910888672 128.81716918945312 C 197.35009765625 127.06684875488281 201.2682647705078 125.26485443115234 204.6995391845703 123.76155090332031 C 207.8486328125 123.0212173461914 211.04537963867188 122.33964538574219 214.52552795410156 121.17562103271484 C 218.26083374023438 119.42100524902344 222.6229248046875 117.96286010742188 228.09263610839844 117.17147064208984 C 233.79505920410156 117.1512451171875 238.33428955078125 116.23394775390625 241.62925720214844 113.84405517578125 C 243.812744140625 110.21195220947266 245.01834106445312 107.17498016357422 244.5579071044922 104.19706726074219 C 242.0630340576172 100.2015609741211 241.0926055908203 96.5967025756836 242.88697814941406 94.49334716796875 C 245.78408813476562 94.84550476074219 248.75868225097656 97.66177368164062 251.31163024902344 101.49302673339844 C 254.10714721679688 105.24130249023438 257.54779052734375 108.17061614990234 261.61688232421875 109.57621765136719 C 266.7962341308594 109.19976806640625 272.3999938964844 107.74918365478516 277.8581237792969 105.90789031982422 C 283.22735595703125 104.15518951416016 289.136474609375 102.79464721679688 295.6143493652344 101.7828140258789 C 301.55291748046875 101.01568603515625 306.0326843261719 100.0530776977539 308.6053161621094 99.78316497802734 C 308.5777587890625 101.13792419433594 307.47698974609375 102.68466186523438 307.417724609375 104.33802032470703 C 309.5146179199219 104.56440734863281 313.1473693847656 104.3496322631836 317.6670837402344 104.98107147216797 C 323.0881042480469 106.32770538330078 327.0467224121094 109.76385498046875 329.1407165527344 115.40592956542969 C 331.08306884765625 121.01770782470703 331.16680908203125 126.01142120361328 329.2312927246094 129.81227111816406 C 327.6869201660156 132.0835418701172 328.7959289550781 132.89105224609375 331.4767761230469 131.97482299804688 C 335.3922424316406 130.71034240722656 339.7396240234375 128.73406982421875 343.7401428222656 126.98432159423828 C 345.9546813964844 125.09957885742188 345.42681884765625 122.52941131591797 345.2261962890625 118.51441955566406 C 344.73345947265625 114.7748794555664 342.8938293457031 111.01800537109375 339.3309631347656 107.74518585205078 C 334.6273498535156 104.53362274169922 329.4760437011719 101.06900024414062 323.4686279296875 98.86749267578125 C 316.2345886230469 98.61962890625 308.3974914550781 98.71527099609375 343.6792297363281 94.03150939941406" stroke-width="0.0" fill="rgb(250, 187, 104)" opacity="1.0" stroke="rgb(137, 187, 11)" stroke-opacity="0.6419144" stroke-linecap="round" stroke-linejoin="round"/>
    <path d="M 249.94346618652344 375.9275207519531 C 251.4539337158203 376.15252685546875 252.96542358398438 376.3334045410156 254.47569274902344 376.4761047363281 C 255.9732666015625 376.5848083496094 257.4375305175781 376.658203125 258.8477478027344 376.69097900390625 C 260.1849060058594 376.7116394042969 261.4248046875 376.73114013671875 262.49578857421875 376.72637939453125 C 263.3498840332031 376.6968078613281 264.0027770996094 376.642578125 264.4857177734375 376.55548095703125 C 264.8156433105469 376.4721374511719 265.04315185546875 376.46868896484375 265.2786865234375 376.53106689453125 C 265.65850830078125 376.6330261230469 266.2760314941406 376.7118835449219 267.228515625 376.99542236328125 C 268.6711730957031 377.5430908203125 270.7567443847656 378.2787780761719 273.5841369628906 378.99127197265625 C 277.19183349609375 379.4073181152344 281.6174621582031 379.4316711425781 286.8352355957031 379.3512268066406 C 292.729736328125 378.7720031738281 298.9293518066406 377.8892822265625 304.96014404296875 377.1052551269531 C 310.34576416015625 377.3287658691406 314.4575500488281 379.55096435546875 316.4678955078125 384.19757080078125 C 316.0321960449219 391.0008544921875 314.79022216796875 399.3729553222656 313.151611328125 408.7648010253906 C 311.26239013671875 418.540283203125 308.9497375488281 427.91558837890625 306.1273498535156 437.5169372558594 C 303.8781433105469 447.1359558105469 302.13189697265625 455.9310607910156 300.8268127441406 463.3333435058594 C 300.3265380859375 468.9076232910156 297.62603759765625 471.9412536621094 293.11810302734375 473.3246765136719 C 288.7914733886719 474.1247863769531 284.893310546875 474.2163391113281 282.53216552734375 474.1123352050781 C 282.55291748046875 473.509521484375 284.6081848144531 473.12237548828125 287.745849609375 473.6363220214844 C 290.14764404296875 475.4695739746094 290.40985107421875 479.4386901855469 288.91241455078125 485.5390625 C 287.9068908691406 492.87823486328125 286.7913513183594 499.5604553222656 287.0608825683594 504.693115234375 C 291.198486328125 507.15716552734375 296.2716369628906 508.1811828613281 302.65728759765625 507.9759521484375 C 305.6517639160156 510.68621826171875 305.7118225097656 514.53369140625 302.9787902832031 517.9818725585938 C 298.2852783203125 520.1753540039062 291.58660888671875 520.27099609375 283.10791015625 519.9361572265625 C 273.85369873046875 519.933349609375 264.70263671875 520.447509765625 256.1323547363281 521.727294921875 C 248.72427368164062 524.0503540039062 243.07696533203125 527.7269287109375 239.68594360351562 533.2027587890625 C 238.77183532714844 540.7931518554688 238.49050903320312 549.0245361328125 238.5371551513672 556.453125 C 238.6261444091797 561.9513549804688 237.1060333251953 564.7660522460938 234.76255798339844 564.6015625 C 234.18936157226562 561.7542724609375 234.5497589111328 556.7307739257812 235.00257873535156 550.023193359375 C 235.32676696777344 542.3048706054688 234.98406982421875 534.5685424804688 235.6505584716797 527.5115356445312 C 236.23208618164062 521.2813720703125 237.4326934814453 516.09033203125 238.31092834472656 511.6346435546875 C 239.4512481689453 507.1184387207031 240.79095458984375 502.1032409667969 241.959716796875 496.4160461425781 C 242.5264434814453 490.16357421875 243.23353576660156 483.39404296875 243.37216186523438 477.2252197265625 C 241.8935546875 472.4372253417969 238.25437927246094 468.56787109375 234.4568328857422 464.518798828125 C 231.82142639160156 460.78594970703125 229.35426330566406 458.7044982910156 227.91616821289062 460.3881530761719 C 227.08680725097656 466.12591552734375 223.55059814453125 471.6843566894531 217.56597900390625 477.27349853515625 C 213.45730590820312 485.54168701171875 210.98773193359375 495.0762634277344 209.55650329589844 503.8089904785156 C 209.44561767578125 511.0247497558594 209.86570739746094 516.5189819335938 210.13621520996094 520.4893798828125 C 209.8024444580078 523.4495849609375 208.6517791748047 525.760498046875 206.737060546875 527.6631469726562 C 204.12107849121094 529.2349243164062 200.90269470214844 530.4899291992188 197.20301818847656 531.437255859375 C 193.1412353515625 532.0637817382812 188.80303955078125 532.3695678710938 184.2758026123047 532.3352661132812 C 179.65414428710938 531.9338989257812 175.05267333984375 531.1858520507812 170.60385131835938 530.1090087890625 C 166.5477294921875 528.6913452148438 163.1099090576172 526.94287109375 160.54917907714844 524.959716796875 C 159.04476928710938 522.8260498046875 158.76947021484375 520.7108764648438 159.9133758544922 518.7794189453125 C 162.50503540039062 517.1158447265625 165.96939086914062 515.7966918945312 169.6178436279297 514.8359375 C 172.84783935546875 514.1813354492188 175.3642120361328 513.7164306640625 176.94625854492188 513.2760620117188 C 177.3675537109375 512.6931762695312 176.4844207763672 511.8359375 174.39939880371094 510.51751708984375 C 171.64102172851562 508.37518310546875 168.80511474609375 505.01300048828125 166.58670043945312 500.3465881347656 C 165.9798583984375 494.60528564453125 166.30178833007812 488.1612243652344 166.83889770507812 481.3276672363281 C 166.68882751464844 476.3020324707031 163.71849060058594 472.613525390625 158.90737915039062 469.36669921875 C 157.36451721191406 463.968017578125 157.46400451660156 456.4907531738281 156.5667266845703 448.7862548828125 C 155.43289184570312 441.0524597167969 154.67221069335938 433.39581298828125 154.2080535888672 426.0823669433594 C 153.25177001953125 419.0386047363281 153.18222045898438 412.0289306640625 153.1455535888672 405.1537780761719 C 153.06224060058594 398.6410827636719 153.54847717285156 392.71875 155.42567443847656 387.67889404296875 C 159.32049560546875 383.9046936035156 165.4781036376953 381.49725341796875 173.60174560546875 380.2188720703125 C 183.1270294189453 379.7269592285156 193.37913513183594 379.8186340332031 203.67391967773438 380.2684020996094 C 213.3019256591797 380.8755798339844 221.6060791015625 381.5114440917969 228.06362915039062 382.0854797363281 C 232.2980194091797 382.49420166015625 234.22821044921875 382.74310302734375 233.94078063964844 382.8624572753906 C 231.78001403808594 382.8525695800781 228.28311157226562 382.7509765625 224.07249450683594 382.5760498046875 C 219.77218627929688 382.33135986328125 215.9751434326172 382.0423278808594 213.19088745117188 381.7364501953125 C 211.85299682617188 381.4324951171875 212.2793426513672 381.1744689941406 214.4888153076172 380.965576171875 C 218.2996063232422 380.8379211425781 223.33140563964844 380.78912353515625 229.17987060546875 380.771484375 C 235.44686889648438 380.7701721191406 241.83189392089844 380.7726745605469 249.94346618652344 375.9275207519531" stroke-width="0.0" fill="rgb(243, 79, 5)" opacity="0.99999374" stroke="rgb(4, 41, 76)" stroke-opacity="0.8516295" stroke-linecap="round" stroke-linejoin="round"/>
    <path d="M 104.96957397460938 282.86859130859375 C 105.572265625 283.343505859375 106.16793823242188 283.7834167480469 106.76335906982422 284.22747802734375 C 107.33235168457031 284.6977233886719 107.84056091308594 285.2289733886719 108.27703857421875 285.8160705566406 C 108.64927673339844 286.50732421875 108.98330688476562 287.3364562988281 109.31489562988281 288.3148498535156 C 109.69485473632812 289.4459533691406 110.16588592529297 290.7356872558594 110.73609161376953 292.15380859375 C 111.43190002441406 293.6375732421875 112.2462387084961 295.15283203125 113.15897369384766 296.6661376953125 C 114.13447570800781 298.10467529296875 115.11530303955078 299.4565734863281 116.11333465576172 300.7336730957031 C 117.06397247314453 301.9031677246094 117.95294952392578 303.0322265625 118.77997589111328 304.142333984375 C 119.58031463623047 305.2471008300781 120.36030578613281 306.378173828125 121.14192962646484 307.5863342285156 C 121.97028350830078 308.9193420410156 122.87432861328125 310.3593444824219 123.86644744873047 311.87530517578125 C 124.88702392578125 313.4743957519531 125.9090576171875 315.1312255859375 126.90154266357422 316.8091735839844 C 127.80091094970703 318.4743347167969 128.55087280273438 320.12371826171875 129.0721435546875 321.7842102050781 C 129.31394958496094 323.4396057128906 129.26524353027344 325.09478759765625 128.88038635253906 326.7710266113281 C 128.10560607910156 328.4331970214844 126.90803527832031 330.06463623046875 125.34315490722656 331.71746826171875 C 123.40682983398438 333.4117736816406 121.12110900878906 335.1169128417969 118.55619812011719 336.792236328125 C 115.78791046142578 338.4815368652344 112.85689544677734 340.23284912109375 109.8099365234375 341.97601318359375 C 106.71919250488281 343.7238464355469 103.4599609375 345.47222900390625 100.17485809326172 347.1783752441406 C 96.99092102050781 348.5869140625 94.2140121459961 349.7994384765625 91.87329864501953 350.7750549316406 C 89.70025634765625 351.4685363769531 88.0443115234375 352.3725280761719 87.03033447265625 353.8703308105469 C 86.5845718383789 355.5283508300781 85.68989562988281 356.20709228515625 84.03671264648438 355.6744689941406 C 81.42203521728516 355.2493896484375 79.00523376464844 354.80096435546875 78.61827850341797 354.4302978515625 C 80.33378601074219 354.92034912109375 82.73920440673828 355.0451354980469 84.97914123535156 354.8075256347656 C 87.6684799194336 354.5210266113281 89.90599060058594 356.1698913574219 89.78594207763672 359.7131652832031 C 89.1417007446289 362.626220703125 86.97415161132812 364.4877624511719 84.04420471191406 365.9651184082031 C 81.64576721191406 364.607177734375 79.36005401611328 363.50634765625 77.29924774169922 364.50140380859375 C 76.16752624511719 366.9689025878906 74.44424438476562 369.7645263671875 72.51801300048828 372.2556457519531 C 70.54737091064453 374.7911376953125 68.57666778564453 377.4833068847656 66.2020263671875 380.0495910644531 C 63.44635772705078 382.1853332519531 60.407894134521484 383.33966064453125 59.15461349487305 386.1740417480469 C 58.500755310058594 389.5865478515625 58.74513244628906 393.3501892089844 58.65365982055664 396.99029541015625 C 57.929443359375 400.0491027832031 56.97846984863281 402.93096923828125 54.78362274169922 404.87078857421875 C 51.475929260253906 405.3206787109375 48.787818908691406 403.7975769042969 46.33197021484375 401.2060241699219 C 45.076507568359375 398.0260925292969 44.52727508544922 394.2858581542969 43.988853454589844 390.6571044921875 C 42.74931716918945 387.964111328125 41.7230224609375 387.4784240722656 40.00415802001953 389.1827087402344 C 38.221435546875 393.1632995605469 36.04460525512695 397.9202880859375 32.63905715942383 400.5101013183594 C 28.77536392211914 401.562744140625 25.052066802978516 400.7698974609375 22.586557388305664 398.33135986328125 C 22.27090072631836 394.5273742675781 22.382299423217773 391.8390808105469 21.97073745727539 390.84197998046875 C 20.85079574584961 392.13201904296875 18.089319229125977 392.80609130859375 14.167865753173828 392.5128479003906 C 10.569904327392578 391.5660400390625 9.017931938171387 389.6648864746094 9.637696266174316 385.2903137207031 C 10.284246444702148 380.7229919433594 11.9008207321167 376.84063720703125 12.971240043640137 375.0516357421875 C 12.042730331420898 374.9565734863281 9.99982738494873 375.9670104980469 7.139736652374268 377.561279296875 C 3.6641228199005127 378.1727600097656 0.765047013759613 377.38037109375 -0.8957354426383972 375.02801513671875 C -1.0209829807281494 371.68994140625 0.8389793634414673 367.8568115234375 3.7284281253814697 364.5697021484375 C 5.502481460571289 361.35089111328125 7.0826239585876465 358.1280822753906 9.605783462524414 355.44769287109375 C 12.659661293029785 352.0086975097656 15.159168243408203 348.0296325683594 17.83754539489746 345.06463623046875 C 19.80199432373047 342.67724609375 21.169300079345703 341.3419189453125 21.62554168701172 339.9612121582031 C 21.145797729492188 338.653564453125 20.31410789489746 336.9909362792969 19.582565307617188 334.8052673339844 C 18.60308074951172 333.0370788574219 17.878681182861328 330.60870361328125 17.362825393676758 327.80035400390625 C 17.25257110595703 325.4586181640625 18.07266616821289 322.97796630859375 19.43764877319336 320.6066589355469 C 21.08070945739746 319.7521667480469 23.59212303161621 319.91375732421875 26.282487869262695 320.5830078125 C 28.997055053710938 322.5798645019531 31.93383026123047 325.1383056640625 35.26824951171875 327.9309387207031 C 38.43878936767578 330.6183166503906 41.728668212890625 331.4826354980469 44.638362884521484 330.06219482421875 C 46.31401062011719 328.57574462890625 46.62456130981445 326.4740295410156 46.830589294433594 324.16552734375 C 48.30569839477539 321.44122314453125 50.885459899902344 320.2334289550781 54.381160736083984 320.4112854003906 C 57.78614807128906 320.52606201171875 60.07472229003906 318.650634765625 62.24319076538086 315.5394592285156 C 64.72686767578125 311.8562927246094 68.07196044921875 308.6700439453125 71.25139617919922 305.4833068847656 C 74.18476867675781 302.1537780761719 77.27279663085938 299.025390625 80.89273071289062 296.28302001953125 C 84.66278839111328 293.464111328125 88.3012466430664 290.808349609375 91.91485595703125 288.91302490234375 C 94.37361907958984 287.2962646484375 95.33927154541016 285.4422912597656 95.54615783691406 283.93585205078125 C 95.36703491210938 283.0757141113281 95.1412124633789 283.0206604003906 95.14704895019531 283.701171875 C 95.6017837524414 284.81005859375 96.55764770507812 285.8830261230469 97.9422836303711 286.7864685058594 C 99.57597351074219 287.57879638671875 101.2855224609375 288.4288635253906 104.96957397460938 282.86859130859375" stroke-width="0.0" fill="rgb(249, 185, 107)" opacity="1.0" stroke="rgb(86, 233, 60)" stroke-opacity="0.3230082" stroke-linecap="round" stroke-linejoin="round"/>
    <path d="M 366.4690856933594 269.63385009765625 C 366.8563537597656 270.0753173828125 367.2638854980469 270.57586669921875 367.6604309082031 271.0727233886719 C 368.02264404296875 271.5497741699219 368.4169616699219 271.9951171875 369.07666015625 272.48626708984375 C 370.2099609375 273.02984619140625 371.7051086425781 273.4941711425781 373.1482238769531 274.0075988769531 C 374.576416015625 274.8509216308594 376.12677001953125 275.62335205078125 378.1170959472656 275.9953308105469 C 379.936279296875 276.51116943359375 381.46820068359375 277.36865234375 382.8564453125 277.8009338378906 C 384.24188232421875 277.8537902832031 385.33953857421875 277.52301025390625 386.1099548339844 277.2379150390625 C 386.6966247558594 276.8739929199219 386.654296875 276.3179626464844 385.863525390625 276.12310791015625 C 385.1903076171875 276.7788391113281 384.8403625488281 277.60113525390625 384.64447021484375 277.9416198730469 C 384.6907958984375 278.19830322265625 385.21539306640625 278.8514709472656 385.9019470214844 279.7186279296875 C 386.8990783691406 280.4821472167969 387.6817626953125 281.251220703125 388.82061767578125 281.66632080078125 C 389.91705322265625 282.1961669921875 390.9043273925781 283.1164855957031 391.982177734375 283.70306396484375 C 393.0028991699219 283.9292297363281 393.9569091796875 283.9361877441406 394.8614196777344 283.80633544921875 C 395.472900390625 283.7458190917969 395.9072265625 283.3597106933594 396.0576477050781 283.08990478515625 C 395.9199523925781 283.2283935546875 395.8441467285156 284.1119079589844 396.3872985839844 285.7786865234375 C 397.9122619628906 287.7267761230469 400.0140686035156 289.4559326171875 402.6322021484375 291.0728454589844 C 405.45184326171875 292.505615234375 408.46527099609375 293.2962646484375 411.0450439453125 293.78521728515625 C 412.48223876953125 294.36993408203125 413.0331115722656 294.4994812011719 413.2198791503906 295.3664245605469 C 413.09283447265625 295.2796936035156 413.84808349609375 294.6612854003906 415.41119384765625 294.0877990722656 C 416.14410400390625 293.46734619140625 417.1660461425781 293.58880615234375 418.4635009765625 293.4510192871094 C 419.96722412109375 292.2861633300781 422.2173767089844 291.34002685546875 425.1395263671875 290.6544189453125 C 428.24468994140625 289.930908203125 431.126708984375 288.8992004394531 433.3602294921875 287.51116943359375 C 435.3489074707031 285.362548828125 437.49127197265625 283.1996154785156 439.6719970703125 280.9471740722656 C 441.7290344238281 279.2829284667969 443.970703125 278.975830078125 446.36175537109375 279.3855895996094 C 447.9935607910156 280.2863464355469 449.66986083984375 281.62896728515625 450.6619567871094 284.0823974609375 C 451.041259765625 286.7324523925781 450.5361022949219 289.266357421875 449.1343688964844 292.10430908203125 C 448.01348876953125 294.5838317871094 446.7806091308594 296.6427917480469 446.2856750488281 298.06671142578125 C 447.2237548828125 299.04290771484375 449.3721923828125 299.8656005859375 452.11590576171875 301.2318420410156 C 455.6399841308594 302.438232421875 459.3586730957031 304.8565368652344 463.3301086425781 307.1059875488281 C 467.3395690917969 309.3223876953125 470.5311279296875 312.0987854003906 473.19659423828125 314.8092041015625 C 474.0546569824219 317.1482849121094 474.1905822753906 319.8114318847656 472.5419921875 321.548583984375 C 469.68963623046875 323.8861999511719 465.8011779785156 324.23675537109375 462.02447509765625 323.6922302246094 C 460.82281494140625 324.1001892089844 461.9179382324219 325.9956359863281 464.4873962402344 328.6946105957031 C 466.9253234863281 331.5895080566406 468.36175537109375 334.1766052246094 468.3044128417969 336.794189453125 C 466.5121765136719 339.02197265625 463.4226989746094 340.0208435058594 460.84832763671875 340.43731689453125 C 460.4533386230469 342.24615478515625 460.872802734375 344.73956298828125 460.31695556640625 346.94171142578125 C 457.4377746582031 348.2186584472656 453.489013671875 347.9508361816406 448.84735107421875 346.626953125 C 444.598876953125 345.234619140625 442.0526123046875 344.22686767578125 441.0774841308594 345.10235595703125 C 442.28125 347.0542297363281 443.89263916015625 350.7940979003906 445.2977600097656 354.31597900390625 C 445.9095458984375 357.2598876953125 444.82977294921875 359.40850830078125 442.3557434082031 360.6224365234375 C 439.2200927734375 361.3076477050781 436.4492492675781 360.7002258300781 434.0537414550781 357.94677734375 C 431.0968933105469 354.48565673828125 428.2001953125 350.97052001953125 426.102294921875 347.7597351074219 C 424.4339599609375 345.4157409667969 423.0380859375 344.2482604980469 422.1821594238281 343.63494873046875 C 421.8485107421875 343.35302734375 421.38983154296875 343.6759948730469 420.6637878417969 343.92333984375 C 419.3575134277344 344.3904724121094 417.1417541503906 343.6781005859375 414.7798767089844 341.9898681640625 C 411.39715576171875 339.7231750488281 407.77447509765625 338.05401611328125 405.279296875 335.64764404296875 C 403.9796447753906 332.8995666503906 403.4007263183594 330.14495849609375 402.5352478027344 327.81121826171875 C 400.40692138671875 326.4620056152344 397.4681091308594 325.9279479980469 394.0566101074219 325.8620300292969 C 390.68682861328125 326.28143310546875 387.5357666015625 327.2945861816406 384.5300598144531 328.62542724609375 C 381.2851257324219 328.99224853515625 377.8087158203125 328.67218017578125 374.6261901855469 327.62164306640625 C 372.4988708496094 325.09136962890625 370.3917236328125 323.0415344238281 367.6688537597656 322.0864562988281 C 364.43304443359375 321.4754333496094 360.9888916015625 320.3982849121094 357.91064453125 319.6225891113281 C 355.0559387207031 319.1400146484375 353.0787658691406 318.1255798339844 351.5137634277344 317.26812744140625 C 350.2684020996094 316.5966796875 349.5810241699219 316.0145263671875 349.5806579589844 315.18988037109375 C 350.26861572265625 313.7862243652344 351.2702331542969 312.1561279296875 351.9807434082031 310.03460693359375 C 353.36041259765625 308.20953369140625 354.38275146484375 305.8805847167969 355.79840087890625 303.4616394042969 C 357.165771484375 300.767333984375 358.2560119628906 297.6452941894531 359.232421875 294.10205078125 C 360.6379089355469 290.6936950683594 361.6906433105469 287.17852783203125 362.7975769042969 283.95281982421875 C 363.10003662109375 280.98382568359375 364.1812438964844 278.6664123535156 365.51019287109375 276.9596252441406 C 365.33636474609375 275.0536193847656 365.328125 273.449951171875 366.0976867675781 272.3626708984375 C 367.2162170410156 271.64251708984375 368.470703125 271.11578369140625 366.4690856933594 269.63385009765625" stroke-width="0.0" fill="rgb(249, 187, 107)" opacity="1.0" stroke="rgb(34, 185, 41)" stroke-opacity="0.36581048" stroke-linecap="round" stroke-linejoin="round"/>
    <path d="M 311.931396484375 407.6484069824219 C 311.54315185546875 408.212158203125 311.3096923828125 408.7803649902344 311.255615234375 409.36358642578125 C 311.2051696777344 409.8826599121094 311.06744384765625 410.3587951660156 310.9206848144531 410.84197998046875 C 310.787109375 411.3133239746094 310.68798828125 411.7986145019531 310.5648498535156 412.28826904296875 C 310.4831848144531 412.8580627441406 310.3453369140625 413.56939697265625 310.1283264160156 414.4064025878906 C 309.9016418457031 415.26416015625 309.7076721191406 416.1243591308594 309.62335205078125 417.0191345214844 C 309.38165283203125 418.0043029785156 309.0998840332031 419.1102294921875 308.8738708496094 420.3431396484375 C 308.6425476074219 421.6617126464844 308.42462158203125 422.9882507324219 308.20111083984375 424.24505615234375 C 307.99591064453125 425.6098327636719 307.72869873046875 427.1972961425781 307.37451171875 429.1044616699219 C 307.02337646484375 431.4078674316406 306.64483642578125 433.9140625 306.1354675292969 436.7516174316406 C 305.1810302734375 440.2184143066406 304.0073547363281 444.1040344238281 303.09857177734375 448.3320007324219 C 301.857666015625 453.365478515625 300.073486328125 458.51434326171875 297.3521423339844 463.1939697265625 C 294.05865478515625 467.778564453125 290.3135986328125 471.86651611328125 287.4068908691406 477.4637756347656 C 286.7608947753906 484.5271301269531 286.1419677734375 491.9139709472656 284.8667907714844 498.2188720703125 C 284.2102966308594 503.094482421875 285.30303955078125 505.9359436035156 289.4393005371094 505.4013671875 C 295.1485290527344 504.6145935058594 300.037841796875 506.4158630371094 302.2760314941406 510.3521728515625 C 302.484619140625 514.2850341796875 299.4815673828125 516.78076171875 294.1177673339844 520.08251953125 C 290.1698303222656 526.2731323242188 284.43939208984375 530.7872314453125 275.8583068847656 532.5438232421875 C 267.0756530761719 534.0568237304688 258.3099060058594 534.3031616210938 250.52447509765625 532.6968383789062 C 243.6798553466797 530.8262329101562 238.02247619628906 530.7986450195312 234.51097106933594 533.5653686523438 C 234.0405731201172 540.11279296875 235.31817626953125 549.1228637695312 235.02122497558594 558.1489868164062 C 237.7754364013672 564.0255737304688 242.9668426513672 567.0848999023438 248.3736572265625 568.8764038085938 C 254.38294982910156 570.4421997070312 260.010986328125 572.1035766601562 265.01824951171875 574.7587280273438 C 267.8131103515625 578.0533447265625 268.29620361328125 581.073486328125 265.9595947265625 582.8142700195312 C 259.9083251953125 582.5022583007812 251.23190307617188 581.163818359375 242.6443634033203 578.703369140625 C 236.27720642089844 575.8379516601562 233.65695190429688 569.7290649414062 233.0994873046875 560.6853637695312 C 233.0224609375 549.84326171875 234.72865295410156 539.6668701171875 236.42198181152344 530.9464111328125 C 234.84439086914062 525.49560546875 230.5282440185547 522.9799194335938 226.55967712402344 519.31884765625 C 225.226806640625 514.761962890625 228.1396026611328 510.7764587402344 234.0895538330078 507.696044921875 C 240.41650390625 505.8108215332031 244.1435089111328 502.9794006347656 244.73739624023438 497.4231262207031 C 245.32440185546875 490.26629638671875 246.72357177734375 482.787841796875 245.53163146972656 475.9529724121094 C 239.59324645996094 471.0565185546875 233.5436248779297 465.9656982421875 229.83544921875 460.8048095703125 C 227.947998046875 458.8604736328125 227.32113647460938 461.08453369140625 227.46554565429688 466.28192138671875 C 227.75865173339844 471.49749755859375 224.49822998046875 474.20172119140625 218.05653381347656 476.19989013671875 C 214.1095733642578 482.80865478515625 213.58091735839844 491.737548828125 212.16770935058594 500.5359191894531 C 211.89627075195312 505.4638671875 215.01553344726562 508.91357421875 219.19686889648438 511.342529296875 C 221.38255310058594 514.6423950195312 221.3429718017578 518.1696166992188 219.47166442871094 520.9873657226562 C 215.04795837402344 522.877197265625 211.00286865234375 526.3873291015625 207.47329711914062 531.2909545898438 C 201.1861572265625 534.3504028320312 193.44964599609375 536.1690063476562 184.8870391845703 536.6539306640625 C 176.20736694335938 535.6180419921875 168.49264526367188 532.4928588867188 163.0743865966797 529.3444213867188 C 160.97982788085938 530.8016357421875 160.44171142578125 535.3902587890625 158.69688415527344 537.9366455078125 C 158.27952575683594 535.314697265625 158.48385620117188 529.5654907226562 155.93214416503906 524.09130859375 C 150.96971130371094 520.0089721679688 150.73170471191406 515.2571411132812 154.89279174804688 509.2087097167969 C 161.21603393554688 505.5642395019531 166.6112060546875 501.6541748046875 169.01988220214844 495.0234069824219 C 169.4590606689453 486.6654357910156 169.51063537597656 478.3011169433594 167.94068908691406 472.5498352050781 C 166.41709899902344 469.7226257324219 165.79490661621094 469.0223083496094 166.17169189453125 469.7350769042969 C 167.16082763671875 471.0594177246094 167.95675659179688 472.5317687988281 168.24049377441406 473.75982666015625 C 168.30528259277344 474.2774658203125 168.76345825195312 473.9062194824219 170.1549835205078 473.23828125 C 173.0124969482422 473.0867004394531 177.09188842773438 472.9193420410156 182.3563232421875 472.8653564453125 C 188.7230682373047 473.210205078125 195.73501586914062 473.9232177734375 202.97439575195312 474.9443359375 C 209.82493591308594 475.92437744140625 215.58779907226562 476.2354431152344 220.64622497558594 474.39569091796875 C 225.0357666015625 470.1014404296875 227.5982208251953 464.5751037597656 227.8077850341797 458.7070007324219 C 228.30764770507812 454.5335693359375 230.19808959960938 453.38482666015625 232.08248901367188 455.4050598144531 C 233.04844665527344 459.78179931640625 234.57455444335938 464.424072265625 237.62867736816406 467.9504089355469 C 242.2398223876953 469.876708984375 247.93064880371094 470.1860046386719 254.1664581298828 469.98895263671875 C 260.8193359375 470.29608154296875 267.7325744628906 471.10052490234375 274.18145751953125 471.83050537109375 C 280.0904235839844 472.50762939453125 285.5207214355469 472.9897155761719 289.7693786621094 472.7509460449219 C 293.3543701171875 470.44537353515625 296.0335693359375 466.7870178222656 298.2607727050781 461.9328918457031 C 300.4999084472656 456.56622314453125 302.36053466796875 450.3623962402344 304.2662048339844 444.00347900390625 C 305.9996337890625 437.70098876953125 307.2127685546875 430.762451171875 308.4119873046875 423.2078857421875 C 309.7872619628906 415.6373291015625 311.3250732421875 408.16510009765625 311.931396484375 407.6484069824219" stroke-width="0.0" fill="rgb(243, 187, 107)" opacity="1.0" stroke="rgb(77, 192, 251)" stroke-opacity="0.7488618" stroke-linecap="round" stroke-linejoin="round"/>
    <path d="M 144.40792846679688 324.80133056640625 C 146.90792846679688 323.7774963378906 149.19935607910156 322.070068359375 151.91993713378906 320.83477783203125 C 154.56263732910156 319.900634765625 157.41229248046875 320.019287109375 160.66983032226562 321.9458923339844 C 163.3334503173828 325.2392578125 164.96878051757812 329.4821472167969 165.4468536376953 334.1688537597656 C 164.93008422851562 338.4110412597656 163.5961456298828 341.9112243652344 161.79159545898438 344.6485595703125 C 159.81480407714844 346.2255554199219 157.59915161132812 346.8001403808594 155.338134765625 346.9015197753906 C 153.15792846679688 346.4700622558594 151.56373596191406 345.5942077636719 150.59339904785156 344.9145812988281 C 150.65821838378906 344.77947998046875 151.42056274414062 344.947509765625 152.77064514160156 345.32177734375 C 153.97286987304688 346.03668212890625 155.1536407470703 347.0490417480469 156.22750854492188 348.2196960449219 C 157.1844482421875 349.2918395996094 157.6219940185547 350.04534912109375 157.21693420410156 350.6866760253906 C 156.0746307373047 351.3522644042969 154.7562255859375 351.7386169433594 153.76988220214844 351.3243713378906 C 153.6233673095703 350.422119140625 154.39694213867188 349.29547119140625 155.83782958984375 348.5794677734375 C 157.7051239013672 348.9317321777344 159.15403747558594 349.4817810058594 160.09950256347656 350.9440002441406 C 160.12567138671875 353.1474914550781 159.34396362304688 355.5700988769531 158.13031005859375 358.1021728515625 C 156.90367126464844 360.49334716796875 155.75836181640625 362.2333984375 154.79969787597656 363.23529052734375 C 154.2098846435547 363.4273986816406 153.699951171875 363.15692138671875 153.0333251953125 363.09716796875 C 152.4725799560547 363.2405090332031 152.373291015625 363.4214172363281 152.6131591796875 363.824951171875 C 152.9709930419922 364.5185241699219 153.19749450683594 365.4407043457031 153.12181091308594 366.4254455566406 C 152.7113800048828 367.2750549316406 151.9375762939453 367.873291015625 150.96217346191406 368.16192626953125 C 149.961181640625 368.1346740722656 148.97193908691406 367.7624206542969 148.007568359375 367.06304931640625 C 147.16183471679688 366.148193359375 146.5048828125 365.1372375488281 146.03797912597656 364.15667724609375 C 145.7174072265625 363.293701171875 145.48355102539062 362.60614013671875 145.2822723388672 362.12811279296875 C 145.0692596435547 361.8377685546875 144.8215789794922 361.6983947753906 144.53628540039062 361.66192626953125 C 144.2633514404297 361.69317626953125 144.03695678710938 361.8193054199219 143.87347412109375 362.0400085449219 C 143.76806640625 362.3997802734375 143.7574462890625 362.9085388183594 143.84442138671875 363.52569580078125 C 144.01617431640625 364.25146484375 144.28631591796875 365.0956115722656 144.59909057617188 366.0240478515625 C 144.93157958984375 367.0199890136719 145.21878051757812 368.0596008300781 145.4171905517578 369.10760498046875 C 145.4949951171875 370.14697265625 145.3979034423828 371.14166259765625 145.1182861328125 372.0663757324219 C 144.65069580078125 372.8589782714844 143.97891235351562 373.5027770996094 143.1583251953125 373.9925537109375 C 142.20591735839844 374.30877685546875 141.15164184570312 374.4773254394531 140.0507354736328 374.5145568847656 C 138.92169189453125 374.44384765625 137.77606201171875 374.3104553222656 136.630615234375 374.150146484375 C 135.49330139160156 373.9864501953125 134.38343811035156 373.8486022949219 133.3434295654297 373.7045593261719 C 132.3832244873047 373.5041198730469 131.4893798828125 373.22381591796875 130.64971923828125 372.89898681640625 C 129.85655212402344 372.55462646484375 129.07440185546875 372.1673278808594 128.27346801757812 371.71417236328125 C 127.46089935302734 371.1266174316406 126.6651382446289 370.40814208984375 125.94636535644531 369.58197021484375 C 125.34142303466797 368.75634765625 124.79389953613281 368.01470947265625 124.32371520996094 367.2181701660156 C 124.1500015258789 366.42291259765625 124.34124755859375 366.21771240234375 124.79983520507812 366.9794616699219 C 125.49549102783203 368.7030944824219 126.5524673461914 371.4767761230469 127.43644714355469 375.0199890136719 C 127.64192962646484 379.06854248046875 126.94835662841797 382.9497375488281 125.08666229248047 385.80072021484375 C 122.43156433105469 386.4600524902344 119.66288757324219 384.7029724121094 117.23029327392578 381.3515930175781 C 115.31674194335938 376.27130126953125 114.02783966064453 370.2126770019531 113.91991424560547 364.82403564453125 C 114.0123291015625 360.41815185546875 113.55953979492188 356.921875 113.01646423339844 353.9821472167969 C 113.06975555419922 351.3241271972656 113.46552276611328 348.5468444824219 113.80226135253906 346.5799865722656 C 114.28597259521484 345.09466552734375 115.0608139038086 344.2869873046875 115.60498046875 344.0708312988281 C 116.30115509033203 344.1302490234375 116.87406921386719 344.13275146484375 117.20091247558594 344.1018981933594 C 117.41802215576172 343.9877624511719 117.62913513183594 343.6705017089844 117.92979431152344 343.17315673828125 C 118.22136688232422 342.52142333984375 118.73492431640625 341.7760009765625 119.39500427246094 341.0170593261719 C 120.13372802734375 340.37066650390625 120.93468475341797 339.8089599609375 121.73236083984375 339.3208923339844 C 122.45437622070312 338.8818664550781 123.08502960205078 338.48162841796875 123.6436767578125 338.1153869628906 C 124.15360260009766 337.7296447753906 124.54946899414062 337.2989807128906 124.75403594970703 336.820556640625 C 124.80764770507812 336.2847595214844 124.79676055908203 335.7224426269531 124.77396392822266 335.18328857421875 C 124.81681823730469 334.7022705078125 124.98613739013672 334.34393310546875 125.27462005615234 334.0488586425781 C 125.63197326660156 333.852294921875 126.13054656982422 333.76904296875 126.77764892578125 333.7464904785156 C 127.55126190185547 333.7685852050781 128.4467010498047 333.7757568359375 129.4279327392578 333.6863098144531 C 130.4549560546875 333.55438232421875 131.5543670654297 333.33837890625 132.7098846435547 333.0993347167969 C 133.90328979492188 332.9136962890625 135.08689880371094 332.813232421875 136.288818359375 332.7862854003906 C 137.4738006591797 332.77276611328125 138.5472869873047 332.85882568359375 139.45791625976562 333.0867919921875 C 140.20706176757812 333.3985595703125 140.7871551513672 333.6495056152344 141.17355346679688 333.81427001953125 C 141.3433837890625 333.8725891113281 141.31375122070312 333.777587890625 141.0948028564453 333.5221252441406 C 140.70237731933594 333.1368103027344 140.18418884277344 332.64251708984375 139.5876007080078 332.0174255371094 C 138.94546508789062 331.3238830566406 138.2835235595703 330.60791015625 144.40792846679688 324.80133056640625" stroke-width="0.0" fill="rgb(147, 115, 173)" opacity="0.9998722" stroke="rgb(186, 229, 232)" stroke-opacity="0.60660046" stroke-linecap="round" stroke-linejoin="round"/>
    <path d="M 103.0 208.0 C 104.0 208.0 105.0 209.0 106.0 209.0 C 107.0 209.0 108.0 209.0 109.0 208.0 C 110.0 208.0 111.0 208.0 112.0 209.0 C 113.0 209.0 114.0 208.0 115.0 208.0 C 116.0 208.0 117.0 208.0 118.0 209.0 C 119.0 209.0 119.0 210.0 120.0 211.0 C 121.0 211.0 121.0 212.0 121.0 213.0 C 121.0 214.0 122.0 215.0 123.0 215.0 C 124.0 215.0 125.0 215.0 126.0 215.0 C 127.0 215.0 127.0 216.0 127.0 217.0 C 127.0 218.0 127.0 219.0 127.0 220.0 C 127.0 221.0 127.0 222.0 127.0 223.0 C 126.0 223.0 125.0 223.0 124.0 223.0 C 123.0 223.0 122.0 223.0 121.0 223.0 C 120.0 222.0 119.0 222.0 118.0 222.0 C 117.0 222.0 116.0 222.0 115.0 222.0 C 114.0 222.0 113.0 222.0 112.0 222.0 C 111.0 222.0 110.0 222.0 109.0 222.0 C 108.0 222.0 107.0 222.0 106.0 222.0 C 105.0 222.0 104.0 222.0 103.0 222.0 C 102.0 222.0 101.0 222.0 100.0 222.0 C 99.0 222.0 98.0 222.0 97.0 222.0 C 97.0 221.0 96.0 220.0 96.0 219.0 C 96.0 218.0 96.0 217.0 96.0 216.0 C 96.0 215.0 97.0 214.0 97.0 213.0 C 97.0 212.0 97.0 211.0 97.0 210.0 C 97.0 209.0 98.0 209.0 99.0 209.0 C 100.0 209.0 101.0 208.0 103.0 208.0" stroke-width="0.0" fill="rgb(0, 1, 0)" opacity="1.0" stroke="rgb(204, 78, 218)" stroke-opacity="0.2795233" stroke-linecap="round" stroke-linejoin="round"/>
    <path d="M 203.0 138.0 C 204.0 138.0 205.0 138.0 205.0 139.0 C 205.0 140.0 205.0 141.0 206.0 142.0 C 207.0 143.0 208.0 144.0 209.0 145.0 C 210.0 144.0 211.0 144.0 212.0 144.0 C 212.0 145.0 212.0 146.0 212.0 147.0 C 211.0 148.0 211.0 149.0 210.0 149.0 C 209.0 150.0 208.0 150.0 207.0 151.0 C 206.0 151.0 205.0 151.0 204.0 151.0 C 203.0 150.0 202.0 150.0 201.0 149.0 C 200.0 148.0 199.0 147.0 199.0 146.0 C 199.0 145.0 199.0 144.0 199.0 143.0 C 199.0 142.0 200.0 141.0 200.0 140.0 C 201.0 139.0 202.0 138.0 203.0 138.0" stroke-width="0.0" fill="rgb(5, 2, 4)" opacity="1.0" stroke="rgb(104, 65, 25)" stroke-opacity="0.10608013" stroke-linecap="round" stroke-linejoin="round"/>
    <path d="M 308.0 117.0 C 308.0 118.0 308.0 119.0 308.0 120.0 C 309.0 121.0 310.0 122.0 311.0 122.0 C 312.0 123.0 313.0 122.0 314.0 122.0 C 315.0 122.0 316.0 122.0 316.0 123.0 C 316.0 124.0 315.0 125.0 315.0 126.0 C 314.0 127.0 313.0 127.0 312.0 128.0 C 311.0 128.0 310.0 128.0 309.0 128.0 C 308.0 128.0 307.0 128.0 306.0 127.0 C 305.0 127.0 304.0 126.0 304.0 125.0 C 303.0 124.0 303.0 123.0 303.0 122.0 C 303.0 121.0 304.0 120.0 304.0 119.0 C 305.0 118.0 306.0 117.0 308.0 117.0" stroke-width="0.0" fill="rgb(13, 1, 4)" opacity="1.0" stroke="rgb(202, 13, 56)" stroke-opacity="0.050438877" stroke-linecap="round" stroke-linejoin="round"/>
    <path d="M 237.0 210.0 C 238.0 210.0 239.0 210.0 240.0 210.0 C 241.0 211.0 242.0 211.0 242.0 212.0 C 243.0 213.0 244.0 213.0 245.0 214.0 C 246.0 215.0 247.0 216.0 248.0 217.0 C 248.0 218.0 249.0 219.0 249.0 220.0 C 249.0 221.0 249.0 222.0 249.0 223.0 C 248.0 223.0 247.0 223.0 246.0 223.0 C 245.0 223.0 244.0 223.0 243.0 223.0 C 242.0 224.0 241.0 224.0 240.0 224.0 C 239.0 223.0 239.0 222.0 239.0 221.0 C 240.0 220.0 239.0 219.0 238.0 219.0 C 237.0 219.0 236.0 219.0 235.0 218.0 C 235.0 217.0 235.0 216.0 235.0 215.0 C 235.0 214.0 234.0 213.0 233.0 213.0 C 232.0 214.0 232.0 215.0 231.0 215.0 C 230.0 215.0 230.0 214.0 230.0 213.0 C 230.0 212.0 231.0 212.0 232.0 211.0 C 233.0 211.0 234.0 210.0 237.0 210.0" stroke-width="0.0" fill="rgb(160, 11, 2)" opacity="1.0" stroke="rgb(227, 248, 55)" stroke-opacity="0.80255044" stroke-linecap="round" stroke-linejoin="round"/>
    <path d="M 359.0 320.0 C 360.0 321.0 361.0 321.0 362.0 321.0 C 363.0 322.0 364.0 322.0 365.0 322.0 C 366.0 322.0 365.0 323.0 365.0 324.0 C 365.0 325.0 364.0 325.0 363.0 324.0 C 362.0 324.0 361.0 324.0 360.0 324.0 C 359.0 324.0 358.0 324.0 357.0 323.0 C 356.0 323.0 355.0 323.0 354.0 323.0 C 355.0 323.0 356.0 322.0 356.0 321.0 C 356.0 320.0 356.0 319.0 359.0 320.0" stroke-width="0.0" fill="rgb(69, 24, 7)" opacity="1.0" stroke="rgb(239, 98, 224)" stroke-opacity="0.84998745" stroke-linecap="round" stroke-linejoin="round"/>
    <path d="M 303.0 129.0 C 304.0 130.0 305.0 130.0 306.0 131.0 C 307.0 130.0 307.0 129.0 308.0 129.0 C 309.0 129.0 310.0 129.0 310.0 130.0 C 310.0 131.0 309.0 132.0 309.0 133.0 C 309.0 134.0 309.0 133.0 309.0 132.0 C 308.0 131.0 307.0 131.0 306.0 131.0 C 305.0 132.0 305.0 133.0 304.0 132.0 C 303.0 133.0 302.0 133.0 301.0 133.0 C 300.0 133.0 299.0 134.0 299.0 135.0 C 299.0 136.0 299.0 135.0 299.0 134.0 C 299.0 133.0 298.0 132.0 297.0 133.0 C 297.0 134.0 296.0 134.0 295.0 134.0 C 295.0 133.0 294.0 132.0 294.0 131.0 C 294.0 130.0 295.0 130.0 296.0 131.0 C 297.0 132.0 298.0 132.0 299.0 132.0 C 300.0 132.0 301.0 131.0 301.0 130.0 C 301.0 129.0 301.0 128.0 303.0 129.0" stroke-width="0.0" fill="rgb(141, 71, 29)" opacity="1.0" stroke="rgb(100, 17, 235)" stroke-opacity="0.7033247" stroke-linecap="round" stroke-linejoin="round"/>
    <path d="M 313.0 132.0 C 313.0 133.0 313.0 134.0 312.0 134.0 C 311.0 135.0 311.0 136.0 311.0 137.0 C 311.0 138.0 311.0 139.0 311.0 140.0 C 310.0 140.0 309.0 140.0 308.0 140.0 C 307.0 140.0 307.0 139.0 306.0 138.0 C 305.0 138.0 304.0 138.0 303.0 138.0 C 303.0 137.0 302.0 136.0 301.0 136.0 C 300.0 136.0 300.0 135.0 300.0 134.0 C 301.0 134.0 302.0 134.0 303.0 134.0 C 304.0 134.0 304.0 135.0 304.0 136.0 C 305.0 137.0 306.0 137.0 307.0 137.0 C 308.0 136.0 309.0 135.0 310.0 134.0 C 310.0 133.0 310.0 132.0 313.0 132.0" stroke-width="0.0" fill="rgb(137, 71, 32)" opacity="1.0" stroke="rgb(20, 160, 7)" stroke-opacity="0.66656375" stroke-linecap="round" stroke-linejoin="round"/>
    <path d="M 374.0 324.0 C 375.0 324.0 376.0 324.0 377.0 325.0 C 378.0 325.0 379.0 325.0 380.0 325.0 C 381.0 325.0 382.0 325.0 383.0 325.0 C 383.0 326.0 383.0 327.0 382.0 327.0 C 381.0 327.0 380.0 327.0 379.0 327.0 C 378.0 327.0 377.0 327.0 376.0 327.0 C 375.0 326.0 374.0 326.0 373.0 326.0 C 373.0 325.0 373.0 324.0 374.0 324.0" stroke-width="0.0" fill="rgb(70, 30, 20)" opacity="1.0" stroke="rgb(41, 238, 205)" stroke-opacity="0.5151914" stroke-linecap="round" stroke-linejoin="round"/>
  </g>
</svg>
