<?xml version="1.0" ?>
<svg xmlns="http://www.w3.org/2000/svg" version="1.1" width="474" height="596">
  <defs/>
  <g>
    <path d="M 266.0 0.0 C 267.0 0.0 268.0 0.0 269.0 0.0 C 270.0 0.0 271.0 0.0 272.0 0.0 C 273.0 0.0 274.0 0.0 275.0 0.0 C 276.0 0.0 277.0 0.0 278.0 0.0 C 279.0 0.0 280.0 0.0 281.0 0.0 C 282.0 0.0 288.0 2.0 296.0 4.0 C 304.0 6.0 312.0 9.0 320.0 12.0 C 328.0 16.0 336.0 20.0 344.0 24.0 C 352.0 29.0 360.0 35.0 368.0 41.0 C 376.0 48.0 384.0 56.0 392.0 64.0 C 399.0 72.0 405.0 80.0 411.0 88.0 C 417.0 96.0 422.0 104.0 427.0 112.0 C 431.0 120.0 432.0 128.0 431.0 136.0 C 426.0 144.0 421.0 152.0 415.0 160.0 C 408.0 168.0 400.0 176.0 392.0 184.0 C 384.0 191.0 376.0 197.0 368.0 203.0 C 360.0 208.0 352.0 213.0 344.0 217.0 C 336.0 220.0 328.0 222.0 320.0 224.0 C 316.0 223.0 324.0 218.0 332.0 212.0 C 340.0 206.0 348.0 198.0 355.0 190.0 C 360.0 182.0 364.0 174.0 367.0 166.0 C 370.0 158.0 371.0 150.0 371.0 142.0 C 370.0 134.0 368.0 126.0 365.0 118.0 C 361.0 110.0 354.0 102.0 346.0 94.0 C 338.0 94.0 330.0 95.0 322.0 96.0 C 314.0 98.0 309.0 98.0 301.0 100.0 C 293.0 102.0 285.0 104.0 277.0 105.0 C 269.0 107.0 261.0 109.0 254.0 103.0 C 246.0 96.0 238.0 91.0 241.0 99.0 C 244.0 107.0 244.0 114.0 236.0 115.0 C 228.0 117.0 220.0 119.0 212.0 121.0 C 204.0 123.0 196.0 126.0 188.0 129.0 C 180.0 132.0 172.0 136.0 165.0 135.0 C 160.0 127.0 157.0 127.0 157.0 135.0 C 156.0 143.0 150.0 149.0 145.0 156.0 C 143.0 164.0 142.0 172.0 143.0 180.0 C 144.0 188.0 147.0 196.0 151.0 204.0 C 157.0 212.0 165.0 219.0 173.0 226.0 C 181.0 231.0 189.0 235.0 197.0 238.0 C 205.0 240.0 213.0 242.0 209.0 243.0 C 201.0 242.0 193.0 239.0 185.0 238.0 C 177.0 239.0 169.0 241.0 162.0 240.0 C 154.0 240.0 146.0 239.0 138.0 239.0 C 130.0 237.0 122.0 236.0 114.0 234.0 C 106.0 231.0 98.0 229.0 90.0 226.0 C 82.0 223.0 74.0 219.0 66.0 215.0 C 58.0 209.0 54.0 201.0 54.0 193.0 C 54.0 185.0 55.0 177.0 57.0 169.0 C 59.0 161.0 60.0 153.0 63.0 145.0 C 65.0 137.0 68.0 129.0 71.0 121.0 C 75.0 113.0 79.0 105.0 83.0 97.0 C 89.0 89.0 94.0 81.0 100.0 73.0 C 107.0 65.0 115.0 57.0 123.0 50.0 C 131.0 43.0 139.0 37.0 147.0 31.0 C 155.0 27.0 163.0 25.0 171.0 24.0 C 179.0 24.0 187.0 25.0 195.0 26.0 C 203.0 28.0 211.0 31.0 214.0 27.0 C 219.0 33.0 221.0 27.0 226.0 27.0 C 234.0 19.0 242.0 12.0 250.0 7.0 C 258.0 3.0 265.0 0.0 266.0 0.0" stroke-width="0.0" fill="rgb(63, 39, 32)" opacity="1.0" stroke="rgb(84, 229, 242)" stroke-opacity="0.3668558" stroke-linecap="round" stroke-linejoin="round"/>
    <path d="M 312.0 225.0 C 313.0 225.0 304.0 231.0 289.0 239.0 C 292.0 242.0 302.0 258.0 302.0 265.0 C 283.0 245.0 265.0 244.0 246.0 245.0 C 225.0 245.0 224.0 253.0 245.0 254.0 C 256.0 256.0 265.0 256.0 270.0 265.0 C 275.0 280.0 283.0 299.0 293.0 304.0 C 302.0 314.0 311.0 321.0 320.0 340.0 C 320.0 319.0 314.0 298.0 314.0 296.0 C 325.0 315.0 331.0 308.0 320.0 298.0 C 319.0 280.0 308.0 262.0 296.0 245.0 C 308.0 242.0 329.0 247.0 350.0 255.0 C 368.0 268.0 389.0 278.0 410.0 293.0 C 431.0 289.0 418.0 295.0 397.0 287.0 C 376.0 275.0 362.0 282.0 354.0 303.0 C 357.0 319.0 378.0 324.0 399.0 326.0 C 419.0 340.0 438.0 356.0 438.0 360.0 C 420.0 343.0 399.0 329.0 378.0 327.0 C 357.0 324.0 338.0 325.0 324.0 325.0 C 321.0 346.0 323.0 367.0 315.0 383.0 C 313.0 404.0 309.0 425.0 303.0 446.0 C 299.0 467.0 288.0 484.0 287.0 505.0 C 304.0 514.0 291.0 527.0 286.0 523.0 C 267.0 526.0 251.0 528.0 239.0 525.0 C 238.0 546.0 238.0 567.0 254.0 578.0 C 275.0 580.0 296.0 581.0 317.0 580.0 C 338.0 573.0 341.0 558.0 336.0 577.0 C 315.0 583.0 294.0 584.0 273.0 583.0 C 252.0 580.0 234.0 569.0 234.0 548.0 C 236.0 527.0 229.0 512.0 239.0 506.0 C 243.0 485.0 236.0 467.0 227.0 458.0 C 219.0 474.0 212.0 494.0 209.0 497.0 C 211.0 476.0 191.0 475.0 170.0 472.0 C 169.0 493.0 175.0 509.0 196.0 511.0 C 217.0 510.0 212.0 528.0 214.0 549.0 C 217.0 570.0 207.0 586.0 186.0 587.0 C 165.0 593.0 145.0 595.0 125.0 592.0 C 120.0 573.0 122.0 574.0 131.0 591.0 C 152.0 592.0 173.0 587.0 194.0 583.0 C 214.0 578.0 213.0 557.0 211.0 536.0 C 201.0 524.0 194.0 527.0 182.0 532.0 C 183.0 519.0 174.0 527.0 162.0 528.0 C 151.0 518.0 165.0 502.0 166.0 481.0 C 158.0 463.0 156.0 442.0 154.0 421.0 C 152.0 400.0 133.0 395.0 116.0 378.0 C 114.0 357.0 107.0 346.0 86.0 356.0 C 81.0 365.0 68.0 372.0 81.0 353.0 C 94.0 349.0 115.0 338.0 133.0 327.0 C 127.0 319.0 125.0 309.0 119.0 298.0 C 109.0 284.0 105.0 273.0 97.0 282.0 C 96.0 287.0 100.0 273.0 121.0 259.0 C 142.0 249.0 163.0 242.0 171.0 244.0 C 161.0 252.0 155.0 268.0 153.0 286.0 C 152.0 306.0 150.0 321.0 151.0 339.0 C 158.0 354.0 156.0 375.0 166.0 376.0 C 166.0 372.0 166.0 369.0 162.0 351.0 C 169.0 340.0 173.0 326.0 175.0 316.0 C 185.0 303.0 195.0 294.0 195.0 284.0 C 199.0 264.0 201.0 252.0 215.0 249.0 C 227.0 243.0 248.0 243.0 269.0 239.0 C 290.0 234.0 311.0 225.0 312.0 225.0" stroke-width="0.0" fill="rgb(232, 109, 162)" opacity="1.0" stroke="rgb(58, 137, 133)" stroke-opacity="0.48754156" stroke-linecap="round" stroke-linejoin="round"/>
    <path d="M 341.0 94.0 C 342.0 94.0 343.0 94.0 344.0 94.0 C 345.0 94.0 346.0 95.0 347.0 96.0 C 347.0 97.0 347.0 98.0 348.0 99.0 C 349.0 100.0 350.0 100.0 351.0 100.0 C 351.0 101.0 351.0 102.0 352.0 103.0 C 353.0 104.0 354.0 104.0 355.0 104.0 C 355.0 105.0 355.0 106.0 356.0 107.0 C 357.0 107.0 358.0 107.0 359.0 110.0 C 361.0 115.0 363.0 120.0 366.0 123.0 C 367.0 128.0 368.0 133.0 369.0 137.0 C 369.0 141.0 370.0 145.0 370.0 150.0 C 368.0 154.0 367.0 159.0 367.0 164.0 C 365.0 168.0 363.0 173.0 360.0 177.0 C 359.0 182.0 356.0 185.0 353.0 190.0 C 348.0 193.0 346.0 197.0 343.0 201.0 C 339.0 204.0 335.0 209.0 330.0 211.0 C 326.0 215.0 321.0 216.0 317.0 218.0 C 313.0 221.0 314.0 225.0 312.0 224.0 C 308.0 226.0 303.0 227.0 298.0 229.0 C 293.0 231.0 288.0 233.0 283.0 235.0 C 280.0 232.0 277.0 235.0 272.0 237.0 C 267.0 238.0 263.0 240.0 261.0 241.0 C 257.0 240.0 252.0 240.0 247.0 241.0 C 242.0 241.0 237.0 242.0 232.0 242.0 C 227.0 242.0 222.0 241.0 217.0 240.0 C 212.0 241.0 207.0 240.0 203.0 237.0 C 199.0 235.0 194.0 235.0 190.0 232.0 C 185.0 231.0 182.0 228.0 178.0 227.0 C 174.0 224.0 173.0 220.0 168.0 219.0 C 164.0 216.0 160.0 212.0 158.0 208.0 C 154.0 207.0 152.0 202.0 150.0 198.0 C 148.0 193.0 147.0 188.0 144.0 184.0 C 145.0 179.0 143.0 175.0 143.0 170.0 C 144.0 166.0 144.0 161.0 146.0 156.0 C 149.0 152.0 152.0 150.0 155.0 147.0 C 157.0 142.0 157.0 137.0 158.0 132.0 C 162.0 132.0 163.0 137.0 166.0 140.0 C 170.0 139.0 175.0 137.0 180.0 135.0 C 184.0 133.0 188.0 132.0 192.0 130.0 C 196.0 128.0 201.0 126.0 206.0 125.0 C 211.0 124.0 216.0 124.0 221.0 123.0 C 217.0 121.0 221.0 121.0 225.0 118.0 C 229.0 117.0 234.0 116.0 239.0 116.0 C 243.0 115.0 248.0 112.0 246.0 108.0 C 244.0 103.0 242.0 98.0 243.0 96.0 C 247.0 98.0 250.0 101.0 252.0 105.0 C 255.0 108.0 259.0 112.0 264.0 110.0 C 268.0 108.0 273.0 109.0 277.0 106.0 C 282.0 105.0 287.0 104.0 291.0 103.0 C 296.0 102.0 299.0 105.0 303.0 102.0 C 307.0 100.0 311.0 100.0 307.0 102.0 C 307.0 104.0 312.0 104.0 317.0 105.0 C 322.0 107.0 327.0 111.0 329.0 116.0 C 330.0 121.0 329.0 126.0 328.0 131.0 C 329.0 136.0 334.0 134.0 333.0 131.0 C 337.0 132.0 342.0 131.0 342.0 128.0 C 346.0 128.0 346.0 124.0 345.0 120.0 C 345.0 115.0 345.0 111.0 341.0 109.0 C 338.0 105.0 335.0 101.0 332.0 98.0 C 335.0 95.0 340.0 94.0 341.0 94.0" stroke-width="0.0" fill="rgb(250, 187, 104)" opacity="1.0" stroke="rgb(137, 187, 11)" stroke-opacity="0.6419144" stroke-linecap="round" stroke-linejoin="round"/>
    <path d="M 252.0 375.0 C 253.0 375.0 254.0 375.0 255.0 375.0 C 256.0 376.0 257.0 376.0 258.0 376.0 C 259.0 376.0 260.0 376.0 261.0 376.0 C 262.0 376.0 263.0 376.0 264.0 376.0 C 265.0 376.0 266.0 376.0 267.0 376.0 C 268.0 376.0 269.0 376.0 270.0 376.0 C 271.0 376.0 272.0 376.0 273.0 376.0 C 274.0 376.0 275.0 376.0 277.0 376.0 C 285.0 378.0 291.0 380.0 299.0 379.0 C 307.0 381.0 314.0 380.0 315.0 387.0 C 314.0 395.0 313.0 403.0 312.0 411.0 C 310.0 419.0 308.0 427.0 306.0 435.0 C 304.0 443.0 302.0 451.0 300.0 459.0 C 299.0 467.0 293.0 472.0 288.0 473.0 C 282.0 470.0 277.0 471.0 271.0 468.0 C 265.0 471.0 269.0 473.0 277.0 473.0 C 285.0 473.0 289.0 479.0 285.0 484.0 C 285.0 488.0 287.0 494.0 283.0 498.0 C 286.0 504.0 288.0 507.0 291.0 508.0 C 299.0 509.0 304.0 512.0 300.0 518.0 C 292.0 519.0 287.0 524.0 280.0 527.0 C 272.0 529.0 264.0 530.0 256.0 530.0 C 248.0 529.0 243.0 527.0 238.0 533.0 C 238.0 541.0 237.0 549.0 237.0 557.0 C 237.0 565.0 238.0 573.0 235.0 569.0 C 234.0 561.0 233.0 553.0 234.0 545.0 C 235.0 537.0 236.0 529.0 233.0 523.0 C 226.0 519.0 228.0 511.0 235.0 507.0 C 242.0 508.0 249.0 505.0 245.0 500.0 C 242.0 494.0 246.0 492.0 242.0 486.0 C 243.0 478.0 242.0 470.0 235.0 466.0 C 233.0 458.0 228.0 454.0 226.0 462.0 C 225.0 470.0 220.0 474.0 215.0 479.0 C 213.0 487.0 212.0 495.0 211.0 503.0 C 214.0 509.0 220.0 513.0 218.0 521.0 C 212.0 526.0 213.0 534.0 211.0 540.0 C 210.0 532.0 210.0 524.0 207.0 527.0 C 199.0 530.0 191.0 533.0 186.0 534.0 C 180.0 534.0 174.0 534.0 173.0 527.0 C 165.0 527.0 161.0 530.0 159.0 538.0 C 157.0 536.0 159.0 528.0 155.0 522.0 C 151.0 515.0 158.0 508.0 164.0 508.0 C 172.0 511.0 180.0 511.0 188.0 512.0 C 196.0 514.0 198.0 510.0 190.0 510.0 C 182.0 510.0 174.0 508.0 168.0 503.0 C 165.0 503.0 166.0 495.0 166.0 487.0 C 166.0 479.0 163.0 471.0 158.0 465.0 C 157.0 457.0 158.0 450.0 159.0 443.0 C 156.0 445.0 155.0 437.0 155.0 429.0 C 154.0 421.0 153.0 413.0 153.0 405.0 C 154.0 397.0 158.0 399.0 158.0 391.0 C 161.0 384.0 169.0 382.0 177.0 381.0 C 185.0 380.0 193.0 382.0 201.0 384.0 C 209.0 385.0 217.0 386.0 225.0 387.0 C 233.0 388.0 241.0 388.0 247.0 386.0 C 239.0 385.0 231.0 385.0 223.0 385.0 C 215.0 384.0 207.0 382.0 199.0 381.0 C 195.0 378.0 203.0 378.0 211.0 377.0 C 219.0 377.0 227.0 376.0 235.0 376.0 C 243.0 376.0 251.0 375.0 252.0 375.0" stroke-width="0.0" fill="rgb(243, 79, 5)" opacity="1.0" stroke="rgb(4, 41, 76)" stroke-opacity="0.8516295" stroke-linecap="round" stroke-linejoin="round"/>
    <path d="M 106.0 282.0 C 107.0 282.0 107.0 283.0 107.0 284.0 C 108.0 285.0 109.0 285.0 109.0 286.0 C 109.0 287.0 110.0 288.0 111.0 288.0 C 112.0 289.0 113.0 289.0 114.0 289.0 C 114.0 290.0 114.0 291.0 117.0 292.0 C 117.0 295.0 118.0 298.0 119.0 301.0 C 119.0 304.0 116.0 303.0 114.0 304.0 C 116.0 307.0 118.0 309.0 120.0 310.0 C 122.0 309.0 124.0 310.0 124.0 313.0 C 121.0 313.0 121.0 316.0 123.0 319.0 C 123.0 322.0 123.0 325.0 125.0 326.0 C 125.0 323.0 128.0 323.0 129.0 325.0 C 129.0 328.0 127.0 329.0 124.0 329.0 C 121.0 330.0 119.0 333.0 116.0 335.0 C 113.0 337.0 110.0 340.0 107.0 340.0 C 105.0 341.0 103.0 343.0 100.0 344.0 C 97.0 346.0 95.0 347.0 92.0 348.0 C 89.0 349.0 86.0 350.0 86.0 347.0 C 86.0 344.0 83.0 343.0 82.0 345.0 C 83.0 347.0 81.0 346.0 78.0 345.0 C 75.0 347.0 74.0 350.0 75.0 353.0 C 78.0 355.0 79.0 357.0 76.0 357.0 C 74.0 358.0 74.0 361.0 75.0 363.0 C 76.0 365.0 74.0 364.0 71.0 365.0 C 69.0 367.0 68.0 370.0 66.0 372.0 C 67.0 374.0 68.0 376.0 66.0 378.0 C 63.0 381.0 60.0 383.0 59.0 386.0 C 59.0 389.0 59.0 392.0 58.0 395.0 C 58.0 398.0 57.0 401.0 55.0 404.0 C 52.0 404.0 49.0 403.0 46.0 401.0 C 45.0 398.0 45.0 395.0 44.0 392.0 C 44.0 389.0 42.0 386.0 40.0 389.0 C 38.0 392.0 36.0 395.0 34.0 398.0 C 31.0 400.0 28.0 401.0 25.0 400.0 C 22.0 397.0 22.0 394.0 22.0 391.0 C 19.0 391.0 16.0 392.0 13.0 392.0 C 10.0 390.0 9.0 387.0 10.0 384.0 C 11.0 381.0 12.0 378.0 13.0 375.0 C 10.0 375.0 8.0 377.0 5.0 377.0 C 2.0 377.0 0.0 375.0 0.0 372.0 C 0.0 369.0 2.0 367.0 4.0 364.0 C 5.0 361.0 7.0 358.0 10.0 355.0 C 12.0 352.0 14.0 349.0 17.0 346.0 C 19.0 343.0 22.0 340.0 21.0 337.0 C 20.0 334.0 23.0 333.0 23.0 330.0 C 20.0 330.0 19.0 332.0 18.0 330.0 C 17.0 327.0 17.0 324.0 19.0 321.0 C 22.0 320.0 25.0 320.0 28.0 322.0 C 29.0 325.0 32.0 326.0 35.0 328.0 C 38.0 330.0 41.0 330.0 44.0 330.0 C 47.0 329.0 46.0 326.0 47.0 323.0 C 49.0 321.0 52.0 320.0 55.0 320.0 C 58.0 320.0 60.0 317.0 63.0 314.0 C 65.0 311.0 68.0 308.0 71.0 305.0 C 74.0 302.0 77.0 299.0 80.0 297.0 C 83.0 294.0 86.0 293.0 88.0 291.0 C 91.0 290.0 92.0 293.0 94.0 291.0 C 96.0 288.0 99.0 288.0 102.0 288.0 C 103.0 291.0 106.0 291.0 106.0 288.0 C 105.0 285.0 105.0 282.0 106.0 282.0" stroke-width="0.0" fill="rgb(249, 185, 107)" opacity="1.0" stroke="rgb(86, 233, 60)" stroke-opacity="0.3230082" stroke-linecap="round" stroke-linejoin="round"/>
    <path d="M 367.0 268.0 C 368.0 268.0 369.0 269.0 370.0 269.0 C 371.0 270.0 372.0 270.0 373.0 270.0 C 374.0 270.0 375.0 271.0 376.0 271.0 C 377.0 272.0 378.0 273.0 379.0 273.0 C 380.0 274.0 381.0 274.0 382.0 275.0 C 383.0 275.0 384.0 276.0 385.0 276.0 C 386.0 276.0 387.0 277.0 387.0 278.0 C 387.0 279.0 386.0 279.0 385.0 280.0 C 385.0 281.0 386.0 282.0 387.0 282.0 C 388.0 283.0 389.0 282.0 389.0 281.0 C 389.0 280.0 390.0 280.0 391.0 280.0 C 392.0 280.0 393.0 280.0 394.0 281.0 C 394.0 282.0 395.0 283.0 396.0 283.0 C 397.0 283.0 397.0 284.0 398.0 285.0 C 399.0 285.0 401.0 286.0 403.0 288.0 C 406.0 290.0 409.0 292.0 412.0 295.0 C 413.0 297.0 410.0 297.0 407.0 296.0 C 409.0 299.0 412.0 299.0 415.0 298.0 C 417.0 297.0 420.0 296.0 423.0 295.0 C 426.0 293.0 429.0 293.0 429.0 290.0 C 431.0 289.0 432.0 292.0 433.0 290.0 C 434.0 287.0 437.0 284.0 439.0 282.0 C 441.0 280.0 444.0 279.0 447.0 280.0 C 449.0 282.0 450.0 285.0 449.0 287.0 C 447.0 285.0 446.0 288.0 446.0 291.0 C 448.0 292.0 447.0 295.0 445.0 298.0 C 448.0 300.0 451.0 301.0 454.0 302.0 C 457.0 303.0 460.0 305.0 463.0 307.0 C 466.0 309.0 469.0 311.0 472.0 314.0 C 473.0 316.0 473.0 319.0 472.0 321.0 C 469.0 323.0 466.0 323.0 463.0 323.0 C 460.0 324.0 463.0 327.0 465.0 330.0 C 467.0 333.0 467.0 336.0 465.0 338.0 C 462.0 339.0 460.0 341.0 457.0 341.0 C 458.0 343.0 460.0 344.0 459.0 346.0 C 456.0 347.0 453.0 347.0 450.0 346.0 C 447.0 345.0 444.0 344.0 441.0 345.0 C 442.0 348.0 443.0 351.0 442.0 353.0 C 443.0 355.0 444.0 357.0 442.0 359.0 C 439.0 360.0 436.0 360.0 434.0 357.0 C 432.0 354.0 429.0 351.0 428.0 348.0 C 430.0 346.0 428.0 343.0 425.0 340.0 C 422.0 339.0 419.0 340.0 422.0 341.0 C 421.0 343.0 418.0 342.0 415.0 341.0 C 412.0 340.0 410.0 338.0 407.0 337.0 C 406.0 334.0 403.0 333.0 400.0 330.0 C 397.0 329.0 394.0 329.0 391.0 328.0 C 388.0 328.0 385.0 328.0 382.0 328.0 C 379.0 327.0 376.0 327.0 373.0 326.0 C 370.0 326.0 367.0 325.0 364.0 325.0 C 361.0 324.0 358.0 324.0 355.0 323.0 C 352.0 322.0 349.0 321.0 347.0 320.0 C 347.0 317.0 350.0 317.0 353.0 318.0 C 353.0 315.0 352.0 313.0 352.0 310.0 C 354.0 307.0 355.0 305.0 357.0 302.0 C 357.0 299.0 358.0 296.0 359.0 293.0 C 361.0 290.0 361.0 287.0 363.0 285.0 C 364.0 282.0 365.0 279.0 365.0 276.0 C 368.0 275.0 371.0 274.0 370.0 272.0 C 367.0 271.0 366.0 268.0 367.0 268.0" stroke-width="0.0" fill="rgb(249, 187, 107)" opacity="1.0" stroke="rgb(34, 185, 41)" stroke-opacity="0.36581048" stroke-linecap="round" stroke-linejoin="round"/>
    <path d="M 311.0 407.0 C 312.0 407.0 312.0 408.0 312.0 409.0 C 312.0 410.0 312.0 411.0 311.0 412.0 C 311.0 413.0 311.0 414.0 311.0 415.0 C 311.0 416.0 310.0 417.0 310.0 418.0 C 310.0 419.0 310.0 420.0 309.0 421.0 C 309.0 422.0 309.0 423.0 309.0 424.0 C 309.0 425.0 308.0 426.0 308.0 427.0 C 308.0 428.0 308.0 429.0 307.0 430.0 C 307.0 431.0 307.0 432.0 307.0 433.0 C 307.0 434.0 305.0 438.0 303.0 445.0 C 302.0 452.0 300.0 459.0 299.0 466.0 C 296.0 471.0 290.0 475.0 288.0 481.0 C 287.0 484.0 286.0 488.0 287.0 492.0 C 287.0 499.0 283.0 500.0 286.0 505.0 C 293.0 506.0 300.0 507.0 304.0 513.0 C 300.0 518.0 293.0 518.0 292.0 522.0 C 286.0 526.0 281.0 530.0 274.0 532.0 C 267.0 533.0 260.0 533.0 255.0 530.0 C 249.0 532.0 242.0 530.0 238.0 535.0 C 238.0 542.0 237.0 549.0 238.0 556.0 C 237.0 563.0 238.0 570.0 242.0 575.0 C 249.0 577.0 256.0 578.0 263.0 579.0 C 270.0 580.0 270.0 583.0 263.0 581.0 C 256.0 581.0 249.0 580.0 242.0 578.0 C 236.0 574.0 234.0 567.0 234.0 560.0 C 233.0 553.0 234.0 546.0 235.0 539.0 C 235.0 532.0 236.0 525.0 230.0 523.0 C 226.0 517.0 229.0 510.0 236.0 506.0 C 241.0 501.0 242.0 494.0 244.0 491.0 C 246.0 490.0 242.0 486.0 242.0 479.0 C 243.0 472.0 238.0 468.0 234.0 463.0 C 233.0 456.0 227.0 455.0 226.0 462.0 C 226.0 469.0 222.0 474.0 216.0 476.0 C 214.0 483.0 213.0 490.0 212.0 497.0 C 211.0 504.0 215.0 509.0 220.0 513.0 C 219.0 520.0 212.0 524.0 212.0 531.0 C 213.0 538.0 211.0 537.0 210.0 530.0 C 204.0 530.0 200.0 533.0 193.0 535.0 C 186.0 536.0 179.0 535.0 172.0 533.0 C 167.0 529.0 162.0 528.0 159.0 535.0 C 156.0 540.0 158.0 534.0 159.0 527.0 C 155.0 522.0 151.0 516.0 156.0 509.0 C 163.0 506.0 166.0 499.0 166.0 492.0 C 166.0 485.0 166.0 478.0 162.0 472.0 C 158.0 466.0 162.0 466.0 168.0 470.0 C 168.0 477.0 168.0 484.0 168.0 491.0 C 170.0 494.0 170.0 487.0 170.0 480.0 C 171.0 474.0 178.0 475.0 185.0 475.0 C 189.0 476.0 196.0 476.0 203.0 476.0 C 210.0 477.0 212.0 474.0 217.0 472.0 C 224.0 468.0 224.0 461.0 224.0 454.0 C 229.0 449.0 236.0 448.0 236.0 455.0 C 237.0 461.0 241.0 466.0 247.0 470.0 C 252.0 468.0 253.0 471.0 259.0 470.0 C 263.0 472.0 270.0 473.0 267.0 471.0 C 272.0 469.0 278.0 471.0 285.0 471.0 C 289.0 470.0 296.0 469.0 297.0 462.0 C 298.0 456.0 300.0 449.0 302.0 442.0 C 303.0 435.0 305.0 428.0 307.0 421.0 C 309.0 414.0 310.0 407.0 311.0 407.0" stroke-width="0.0" fill="rgb(243, 187, 107)" opacity="1.0" stroke="rgb(77, 192, 251)" stroke-opacity="0.7488618" stroke-linecap="round" stroke-linejoin="round"/>
    <path d="M 144.0 329.0 C 145.0 329.0 146.0 329.0 147.0 329.0 C 147.0 330.0 147.0 331.0 147.0 332.0 C 147.0 333.0 147.0 334.0 148.0 335.0 C 148.0 336.0 147.0 336.0 146.0 337.0 C 146.0 338.0 146.0 339.0 146.0 340.0 C 146.0 341.0 146.0 342.0 146.0 343.0 C 147.0 344.0 146.0 345.0 145.0 346.0 C 145.0 347.0 145.0 348.0 146.0 349.0 C 147.0 349.0 147.0 350.0 147.0 351.0 C 148.0 352.0 149.0 352.0 150.0 352.0 C 149.0 352.0 148.0 353.0 148.0 354.0 C 149.0 355.0 149.0 356.0 149.0 357.0 C 150.0 358.0 151.0 358.0 152.0 359.0 C 152.0 360.0 152.0 361.0 152.0 362.0 C 152.0 363.0 152.0 362.0 152.0 361.0 C 151.0 360.0 150.0 360.0 149.0 360.0 C 148.0 361.0 148.0 362.0 148.0 363.0 C 148.0 364.0 148.0 365.0 148.0 366.0 C 148.0 367.0 148.0 366.0 148.0 365.0 C 148.0 364.0 148.0 363.0 147.0 362.0 C 146.0 363.0 146.0 364.0 146.0 363.0 C 146.0 362.0 146.0 361.0 145.0 360.0 C 144.0 360.0 143.0 360.0 142.0 361.0 C 142.0 362.0 142.0 363.0 142.0 364.0 C 142.0 365.0 142.0 366.0 143.0 367.0 C 144.0 367.0 145.0 367.0 145.0 368.0 C 144.0 369.0 145.0 370.0 145.0 371.0 C 145.0 372.0 144.0 372.0 143.0 371.0 C 142.0 371.0 141.0 371.0 140.0 371.0 C 139.0 371.0 138.0 371.0 137.0 371.0 C 136.0 371.0 135.0 372.0 134.0 372.0 C 133.0 372.0 132.0 373.0 132.0 372.0 C 132.0 371.0 131.0 370.0 130.0 370.0 C 129.0 370.0 128.0 370.0 128.0 369.0 C 128.0 368.0 127.0 367.0 127.0 366.0 C 126.0 365.0 125.0 365.0 124.0 365.0 C 123.0 366.0 123.0 365.0 122.0 364.0 C 121.0 364.0 120.0 364.0 120.0 363.0 C 119.0 362.0 119.0 361.0 119.0 360.0 C 118.0 359.0 118.0 358.0 118.0 357.0 C 118.0 356.0 118.0 355.0 118.0 354.0 C 118.0 353.0 118.0 352.0 119.0 352.0 C 120.0 351.0 120.0 350.0 120.0 349.0 C 120.0 348.0 119.0 347.0 119.0 346.0 C 119.0 345.0 118.0 344.0 118.0 343.0 C 119.0 343.0 120.0 344.0 121.0 343.0 C 121.0 342.0 121.0 341.0 122.0 341.0 C 123.0 340.0 123.0 339.0 124.0 339.0 C 125.0 339.0 126.0 340.0 127.0 339.0 C 127.0 338.0 127.0 337.0 126.0 336.0 C 125.0 336.0 125.0 335.0 125.0 334.0 C 126.0 334.0 127.0 334.0 127.0 335.0 C 128.0 336.0 129.0 336.0 130.0 336.0 C 131.0 335.0 132.0 335.0 133.0 335.0 C 134.0 334.0 135.0 334.0 136.0 333.0 C 137.0 333.0 138.0 333.0 139.0 333.0 C 139.0 334.0 140.0 335.0 141.0 336.0 C 142.0 336.0 143.0 336.0 144.0 335.0 C 143.0 334.0 142.0 334.0 141.0 332.0 C 141.0 330.0 143.0 329.0 144.0 329.0" stroke-width="0.0" fill="rgb(147, 115, 173)" opacity="1.0" stroke="rgb(186, 229, 232)" stroke-opacity="0.60660046" stroke-linecap="round" stroke-linejoin="round"/>
  </g>
</svg>
