<?xml version="1.0" ?>
<svg xmlns="http://www.w3.org/2000/svg" version="1.1" width="502" height="323">
  <defs/>
  <g>
    <path d="M 1.0 0.0 C 2.0 0.0 3.0 0.0 10.0 0.0 C 22.0 0.0 34.0 0.0 46.0 0.0 C 58.0 0.0 70.0 0.0 82.0 0.0 C 94.0 0.0 106.0 0.0 118.0 0.0 C 130.0 0.0 142.0 0.0 154.0 0.0 C 166.0 0.0 178.0 0.0 190.0 0.0 C 202.0 0.0 214.0 0.0 226.0 0.0 C 238.0 0.0 250.0 0.0 262.0 0.0 C 274.0 0.0 286.0 0.0 297.0 1.0 C 307.0 1.0 318.0 0.0 330.0 0.0 C 342.0 0.0 354.0 0.0 366.0 0.0 C 378.0 0.0 390.0 0.0 402.0 0.0 C 414.0 0.0 426.0 0.0 438.0 0.0 C 450.0 0.0 462.0 0.0 474.0 0.0 C 486.0 0.0 498.0 0.0 501.0 9.0 C 501.0 21.0 501.0 33.0 501.0 45.0 C 501.0 57.0 501.0 69.0 501.0 81.0 C 501.0 93.0 501.0 105.0 501.0 117.0 C 501.0 129.0 501.0 141.0 501.0 153.0 C 497.0 163.0 486.0 164.0 476.0 170.0 C 469.0 170.0 457.0 176.0 445.0 181.0 C 445.0 184.0 451.0 185.0 444.0 194.0 C 435.0 201.0 428.0 203.0 419.0 208.0 C 410.0 212.0 400.0 217.0 396.0 217.0 C 398.0 226.0 387.0 231.0 384.0 243.0 C 382.0 251.0 387.0 249.0 387.0 243.0 C 393.0 240.0 397.0 249.0 405.0 254.0 C 406.0 247.0 407.0 236.0 415.0 233.0 C 411.0 235.0 413.0 243.0 415.0 246.0 C 414.0 252.0 412.0 261.0 407.0 269.0 C 416.0 270.0 419.0 276.0 421.0 284.0 C 417.0 289.0 425.0 289.0 436.0 288.0 C 441.0 283.0 444.0 281.0 453.0 282.0 C 456.0 278.0 462.0 277.0 465.0 280.0 C 477.0 277.0 480.0 269.0 489.0 274.0 C 497.0 273.0 501.0 282.0 501.0 294.0 C 501.0 306.0 501.0 318.0 493.0 322.0 C 481.0 322.0 469.0 322.0 457.0 322.0 C 445.0 322.0 433.0 322.0 421.0 322.0 C 409.0 322.0 397.0 322.0 385.0 322.0 C 373.0 322.0 361.0 322.0 349.0 322.0 C 337.0 322.0 325.0 322.0 313.0 322.0 C 301.0 322.0 289.0 322.0 277.0 322.0 C 265.0 322.0 253.0 322.0 241.0 322.0 C 229.0 322.0 217.0 322.0 205.0 322.0 C 193.0 322.0 181.0 322.0 169.0 322.0 C 157.0 322.0 145.0 322.0 133.0 322.0 C 122.0 321.0 110.0 322.0 98.0 322.0 C 86.0 322.0 74.0 322.0 62.0 322.0 C 50.0 322.0 38.0 322.0 26.0 322.0 C 14.0 322.0 2.0 322.0 0.0 312.0 C 0.0 300.0 0.0 288.0 0.0 276.0 C 0.0 264.0 0.0 252.0 0.0 240.0 C 0.0 228.0 0.0 216.0 0.0 204.0 C 0.0 192.0 0.0 180.0 0.0 168.0 C 0.0 156.0 0.0 144.0 0.0 132.0 C 0.0 120.0 0.0 108.0 0.0 96.0 C 0.0 84.0 0.0 72.0 0.0 60.0 C 0.0 48.0 0.0 36.0 0.0 24.0 C 0.0 12.0 0.0 0.0 1.0 0.0" stroke-width="0.0" fill="rgb(84, 109, 85)" opacity="1.0" stroke="rgb(101, 13, 157)" stroke-opacity="0.3264809" stroke-linecap="round" stroke-linejoin="round"/>
    <path d="M 486.0 165.0 C 487.0 165.0 488.0 166.0 489.0 166.0 C 490.0 166.0 491.0 166.0 492.0 165.0 C 493.0 165.0 494.0 165.0 495.0 166.0 C 496.0 166.0 497.0 166.0 498.0 166.0 C 499.0 166.0 500.0 166.0 501.0 166.0 C 501.0 167.0 501.0 168.0 501.0 169.0 C 501.0 170.0 501.0 171.0 501.0 172.0 C 501.0 173.0 501.0 174.0 501.0 175.0 C 501.0 176.0 501.0 177.0 501.0 178.0 C 501.0 179.0 501.0 180.0 501.0 181.0 C 501.0 182.0 501.0 183.0 501.0 184.0 C 501.0 185.0 501.0 186.0 501.0 187.0 C 501.0 188.0 501.0 189.0 501.0 190.0 C 501.0 191.0 501.0 192.0 501.0 193.0 C 501.0 194.0 501.0 195.0 501.0 196.0 C 501.0 197.0 501.0 198.0 501.0 199.0 C 501.0 200.0 501.0 203.0 501.0 207.0 C 501.0 211.0 501.0 215.0 501.0 219.0 C 501.0 223.0 499.0 226.0 496.0 227.0 C 497.0 230.0 501.0 230.0 501.0 234.0 C 501.0 238.0 501.0 242.0 501.0 246.0 C 501.0 250.0 501.0 254.0 501.0 258.0 C 501.0 262.0 501.0 266.0 501.0 270.0 C 501.0 274.0 500.0 275.0 498.0 272.0 C 494.0 273.0 490.0 274.0 488.0 271.0 C 484.0 271.0 481.0 268.0 477.0 268.0 C 475.0 271.0 475.0 275.0 473.0 278.0 C 469.0 278.0 465.0 279.0 463.0 276.0 C 459.0 276.0 456.0 273.0 454.0 276.0 C 457.0 279.0 456.0 282.0 452.0 280.0 C 448.0 280.0 444.0 280.0 440.0 280.0 C 437.0 282.0 439.0 285.0 442.0 286.0 C 439.0 287.0 435.0 287.0 431.0 288.0 C 427.0 288.0 423.0 288.0 422.0 285.0 C 421.0 281.0 419.0 278.0 422.0 276.0 C 423.0 272.0 419.0 271.0 416.0 268.0 C 413.0 270.0 410.0 269.0 411.0 265.0 C 413.0 261.0 414.0 257.0 415.0 253.0 C 414.0 249.0 416.0 246.0 420.0 244.0 C 418.0 241.0 414.0 242.0 411.0 240.0 C 410.0 236.0 414.0 237.0 418.0 236.0 C 418.0 232.0 414.0 232.0 410.0 230.0 C 406.0 232.0 406.0 236.0 405.0 240.0 C 406.0 244.0 404.0 247.0 402.0 250.0 C 398.0 250.0 397.0 246.0 394.0 244.0 C 394.0 240.0 393.0 236.0 389.0 237.0 C 386.0 237.0 387.0 233.0 390.0 231.0 C 393.0 228.0 397.0 227.0 400.0 225.0 C 401.0 221.0 397.0 219.0 398.0 216.0 C 401.0 218.0 405.0 217.0 408.0 215.0 C 412.0 214.0 414.0 216.0 416.0 214.0 C 418.0 211.0 420.0 208.0 422.0 206.0 C 426.0 207.0 429.0 203.0 430.0 200.0 C 433.0 202.0 437.0 202.0 440.0 199.0 C 443.0 197.0 446.0 194.0 448.0 191.0 C 449.0 187.0 453.0 185.0 453.0 181.0 C 451.0 179.0 455.0 178.0 459.0 176.0 C 463.0 174.0 467.0 172.0 471.0 171.0 C 473.0 174.0 477.0 172.0 478.0 169.0 C 481.0 166.0 485.0 165.0 486.0 165.0" stroke-width="0.0" fill="rgb(142, 127, 94)" opacity="1.0" stroke="rgb(203, 111, 142)" stroke-opacity="0.7018225" stroke-linecap="round" stroke-linejoin="round"/>
    <path d="M 1.0 0.0 C 2.0 0.0 3.0 0.0 4.0 0.0 C 5.0 0.0 6.0 0.0 7.0 0.0 C 8.0 0.0 9.0 0.0 10.0 0.0 C 11.0 0.0 12.0 0.0 13.0 0.0 C 14.0 0.0 15.0 0.0 16.0 0.0 C 17.0 0.0 18.0 0.0 19.0 0.0 C 20.0 0.0 21.0 0.0 22.0 0.0 C 23.0 0.0 24.0 0.0 25.0 0.0 C 26.0 0.0 27.0 0.0 28.0 0.0 C 29.0 0.0 30.0 0.0 31.0 0.0 C 32.0 0.0 33.0 0.0 34.0 0.0 C 35.0 0.0 36.0 0.0 37.0 0.0 C 38.0 0.0 39.0 0.0 40.0 0.0 C 42.0 0.0 46.0 0.0 50.0 0.0 C 54.0 0.0 58.0 0.0 62.0 0.0 C 66.0 0.0 70.0 0.0 74.0 0.0 C 78.0 0.0 82.0 0.0 86.0 0.0 C 88.0 3.0 92.0 1.0 95.0 0.0 C 99.0 0.0 103.0 0.0 107.0 0.0 C 111.0 0.0 115.0 0.0 119.0 0.0 C 123.0 0.0 127.0 0.0 131.0 0.0 C 135.0 0.0 139.0 0.0 143.0 0.0 C 147.0 0.0 151.0 0.0 155.0 0.0 C 159.0 0.0 163.0 0.0 167.0 0.0 C 171.0 0.0 174.0 1.0 171.0 5.0 C 169.0 8.0 165.0 12.0 162.0 16.0 C 161.0 20.0 159.0 23.0 155.0 25.0 C 154.0 28.0 154.0 32.0 156.0 36.0 C 153.0 39.0 149.0 40.0 145.0 42.0 C 147.0 45.0 144.0 45.0 142.0 42.0 C 138.0 44.0 135.0 46.0 131.0 50.0 C 127.0 51.0 123.0 53.0 119.0 56.0 C 115.0 55.0 111.0 55.0 108.0 57.0 C 106.0 59.0 102.0 59.0 99.0 58.0 C 95.0 60.0 92.0 62.0 94.0 65.0 C 96.0 68.0 93.0 71.0 90.0 73.0 C 88.0 69.0 85.0 71.0 82.0 70.0 C 78.0 69.0 76.0 71.0 73.0 72.0 C 77.0 73.0 77.0 75.0 73.0 76.0 C 72.0 72.0 70.0 76.0 66.0 77.0 C 67.0 80.0 66.0 83.0 62.0 86.0 C 58.0 85.0 55.0 87.0 51.0 88.0 C 49.0 85.0 46.0 84.0 47.0 88.0 C 43.0 88.0 39.0 89.0 35.0 89.0 C 31.0 90.0 27.0 88.0 23.0 89.0 C 25.0 91.0 25.0 93.0 21.0 92.0 C 17.0 92.0 14.0 94.0 10.0 93.0 C 6.0 95.0 2.0 93.0 0.0 91.0 C 1.0 88.0 4.0 91.0 8.0 90.0 C 12.0 89.0 16.0 86.0 20.0 87.0 C 20.0 83.0 16.0 82.0 12.0 81.0 C 8.0 81.0 6.0 78.0 2.0 76.0 C 0.0 74.0 3.0 72.0 1.0 68.0 C 0.0 65.0 3.0 63.0 7.0 62.0 C 6.0 59.0 2.0 58.0 0.0 56.0 C 0.0 52.0 0.0 48.0 0.0 44.0 C 0.0 40.0 0.0 36.0 0.0 32.0 C 0.0 28.0 0.0 24.0 0.0 20.0 C 0.0 16.0 0.0 12.0 0.0 8.0 C 0.0 4.0 0.0 0.0 1.0 0.0" stroke-width="0.0" fill="rgb(6, 8, 4)" opacity="1.0" stroke="rgb(49, 217, 130)" stroke-opacity="0.9067158" stroke-linecap="round" stroke-linejoin="round"/>
    <path d="M 132.0 182.0 C 133.0 182.0 133.0 183.0 133.0 184.0 C 134.0 185.0 134.0 186.0 134.0 187.0 C 133.0 188.0 133.0 189.0 133.0 190.0 C 133.0 191.0 134.0 192.0 135.0 192.0 C 135.0 193.0 136.0 194.0 136.0 195.0 C 137.0 196.0 137.0 197.0 137.0 198.0 C 137.0 199.0 137.0 200.0 136.0 201.0 C 136.0 202.0 136.0 203.0 135.0 204.0 C 135.0 205.0 135.0 206.0 134.0 207.0 C 134.0 208.0 134.0 209.0 134.0 210.0 C 134.0 211.0 133.0 212.0 134.0 213.0 C 135.0 213.0 136.0 213.0 137.0 212.0 C 138.0 211.0 139.0 211.0 140.0 211.0 C 141.0 211.0 142.0 211.0 143.0 211.0 C 144.0 210.0 144.0 209.0 144.0 208.0 C 144.0 207.0 143.0 206.0 142.0 205.0 C 142.0 204.0 142.0 203.0 142.0 202.0 C 142.0 201.0 141.0 200.0 141.0 199.0 C 141.0 198.0 141.0 197.0 140.0 196.0 C 140.0 195.0 140.0 194.0 140.0 193.0 C 140.0 192.0 140.0 191.0 140.0 190.0 C 140.0 189.0 141.0 188.0 142.0 188.0 C 143.0 188.0 144.0 188.0 145.0 189.0 C 145.0 190.0 146.0 191.0 146.0 192.0 C 146.0 193.0 145.0 194.0 145.0 195.0 C 145.0 196.0 145.0 197.0 145.0 198.0 C 145.0 199.0 145.0 200.0 145.0 201.0 C 145.0 204.0 146.0 207.0 148.0 209.0 C 151.0 208.0 153.0 207.0 155.0 209.0 C 158.0 209.0 160.0 210.0 158.0 213.0 C 158.0 216.0 155.0 217.0 156.0 220.0 C 158.0 219.0 161.0 219.0 163.0 217.0 C 164.0 219.0 163.0 222.0 163.0 225.0 C 162.0 227.0 159.0 227.0 160.0 229.0 C 163.0 229.0 164.0 232.0 166.0 235.0 C 169.0 237.0 172.0 237.0 175.0 238.0 C 178.0 237.0 180.0 235.0 182.0 234.0 C 185.0 236.0 188.0 236.0 187.0 239.0 C 184.0 240.0 181.0 241.0 178.0 240.0 C 175.0 240.0 172.0 242.0 169.0 245.0 C 166.0 244.0 164.0 243.0 162.0 246.0 C 164.0 248.0 162.0 250.0 162.0 253.0 C 161.0 256.0 160.0 259.0 160.0 262.0 C 159.0 265.0 156.0 266.0 156.0 269.0 C 155.0 271.0 152.0 272.0 149.0 272.0 C 148.0 270.0 151.0 267.0 151.0 264.0 C 149.0 262.0 148.0 259.0 145.0 258.0 C 142.0 260.0 142.0 263.0 142.0 266.0 C 145.0 268.0 145.0 271.0 142.0 272.0 C 140.0 271.0 137.0 270.0 135.0 267.0 C 136.0 264.0 135.0 261.0 134.0 258.0 C 133.0 255.0 132.0 252.0 132.0 249.0 C 129.0 247.0 130.0 244.0 130.0 241.0 C 129.0 238.0 128.0 235.0 128.0 232.0 C 129.0 229.0 131.0 227.0 133.0 224.0 C 133.0 221.0 131.0 218.0 130.0 215.0 C 130.0 212.0 130.0 209.0 131.0 206.0 C 130.0 203.0 129.0 200.0 130.0 197.0 C 130.0 194.0 131.0 191.0 131.0 188.0 C 131.0 185.0 131.0 182.0 132.0 182.0" stroke-width="0.0" fill="rgb(143, 146, 138)" opacity="1.0" stroke="rgb(134, 151, 198)" stroke-opacity="0.9755753" stroke-linecap="round" stroke-linejoin="round"/>
    <path d="M 1.0 128.0 C 2.0 128.0 2.0 129.0 2.0 130.0 C 3.0 131.0 3.0 132.0 4.0 133.0 C 5.0 133.0 6.0 133.0 7.0 132.0 C 8.0 131.0 9.0 131.0 10.0 131.0 C 11.0 131.0 12.0 131.0 12.0 132.0 C 12.0 133.0 12.0 134.0 13.0 135.0 C 14.0 135.0 15.0 134.0 16.0 134.0 C 17.0 134.0 18.0 134.0 19.0 134.0 C 20.0 134.0 21.0 134.0 22.0 134.0 C 24.0 133.0 26.0 136.0 29.0 139.0 C 34.0 141.0 39.0 140.0 44.0 140.0 C 49.0 142.0 50.0 144.0 46.0 146.0 C 49.0 149.0 46.0 152.0 51.0 153.0 C 56.0 154.0 61.0 154.0 66.0 154.0 C 69.0 158.0 71.0 163.0 71.0 168.0 C 70.0 173.0 69.0 178.0 67.0 183.0 C 66.0 188.0 65.0 193.0 64.0 198.0 C 63.0 203.0 61.0 206.0 56.0 206.0 C 51.0 208.0 47.0 208.0 46.0 213.0 C 51.0 216.0 55.0 220.0 53.0 224.0 C 58.0 223.0 61.0 227.0 58.0 230.0 C 63.0 231.0 68.0 234.0 65.0 236.0 C 60.0 236.0 61.0 239.0 66.0 240.0 C 70.0 242.0 71.0 247.0 68.0 249.0 C 63.0 249.0 58.0 250.0 60.0 254.0 C 56.0 255.0 55.0 257.0 58.0 259.0 C 59.0 264.0 61.0 260.0 65.0 262.0 C 61.0 265.0 65.0 267.0 63.0 271.0 C 61.0 267.0 57.0 266.0 56.0 271.0 C 60.0 274.0 63.0 278.0 67.0 279.0 C 72.0 279.0 77.0 280.0 81.0 282.0 C 84.0 285.0 80.0 287.0 82.0 291.0 C 77.0 292.0 72.0 292.0 68.0 294.0 C 66.0 298.0 71.0 299.0 76.0 300.0 C 81.0 299.0 86.0 299.0 89.0 301.0 C 91.0 304.0 96.0 305.0 99.0 308.0 C 104.0 308.0 109.0 307.0 114.0 307.0 C 117.0 310.0 119.0 313.0 114.0 314.0 C 109.0 314.0 104.0 315.0 99.0 315.0 C 98.0 319.0 102.0 320.0 100.0 322.0 C 95.0 322.0 90.0 322.0 85.0 322.0 C 80.0 322.0 75.0 322.0 70.0 322.0 C 65.0 322.0 60.0 322.0 55.0 322.0 C 50.0 322.0 45.0 322.0 40.0 322.0 C 35.0 322.0 30.0 322.0 25.0 322.0 C 20.0 322.0 15.0 322.0 10.0 322.0 C 5.0 322.0 0.0 322.0 0.0 317.0 C 0.0 312.0 0.0 307.0 0.0 302.0 C 0.0 297.0 0.0 292.0 0.0 287.0 C 0.0 282.0 0.0 277.0 0.0 272.0 C 0.0 267.0 0.0 262.0 0.0 257.0 C 0.0 252.0 0.0 247.0 0.0 242.0 C 0.0 237.0 0.0 232.0 0.0 227.0 C 0.0 222.0 0.0 217.0 0.0 212.0 C 0.0 207.0 0.0 202.0 0.0 197.0 C 0.0 192.0 0.0 187.0 0.0 182.0 C 0.0 177.0 0.0 172.0 0.0 167.0 C 0.0 162.0 0.0 157.0 0.0 152.0 C 0.0 147.0 0.0 142.0 0.0 137.0 C 0.0 133.0 0.0 128.0 1.0 128.0" stroke-width="0.0" fill="rgb(10, 15, 9)" opacity="1.0" stroke="rgb(216, 66, 53)" stroke-opacity="0.20891608" stroke-linecap="round" stroke-linejoin="round"/>
    <path d="M 305.0 83.0 C 306.0 83.0 307.0 83.0 307.0 84.0 C 307.0 85.0 308.0 86.0 308.0 87.0 C 308.0 88.0 310.0 89.0 311.0 93.0 C 310.0 97.0 309.0 101.0 306.0 103.0 C 308.0 106.0 307.0 110.0 306.0 113.0 C 302.0 112.0 298.0 113.0 298.0 117.0 C 302.0 117.0 306.0 116.0 310.0 116.0 C 311.0 112.0 313.0 109.0 316.0 105.0 C 316.0 101.0 315.0 97.0 317.0 95.0 C 321.0 96.0 324.0 97.0 326.0 100.0 C 325.0 104.0 324.0 108.0 324.0 112.0 C 326.0 116.0 326.0 120.0 329.0 123.0 C 333.0 124.0 336.0 126.0 339.0 128.0 C 342.0 126.0 344.0 128.0 346.0 131.0 C 350.0 129.0 353.0 130.0 356.0 132.0 C 357.0 128.0 353.0 127.0 354.0 124.0 C 358.0 123.0 358.0 119.0 360.0 116.0 C 364.0 115.0 363.0 119.0 361.0 123.0 C 359.0 126.0 363.0 129.0 364.0 133.0 C 367.0 135.0 370.0 137.0 371.0 141.0 C 371.0 145.0 375.0 146.0 377.0 149.0 C 381.0 147.0 385.0 147.0 388.0 148.0 C 387.0 151.0 383.0 150.0 379.0 151.0 C 375.0 152.0 371.0 154.0 367.0 153.0 C 364.0 155.0 360.0 157.0 356.0 157.0 C 352.0 157.0 348.0 158.0 344.0 158.0 C 340.0 158.0 336.0 158.0 332.0 158.0 C 328.0 159.0 324.0 159.0 320.0 158.0 C 316.0 158.0 312.0 159.0 309.0 158.0 C 306.0 158.0 304.0 160.0 300.0 161.0 C 296.0 159.0 292.0 159.0 288.0 160.0 C 284.0 161.0 280.0 162.0 276.0 164.0 C 272.0 164.0 270.0 161.0 266.0 163.0 C 265.0 166.0 263.0 163.0 259.0 163.0 C 255.0 164.0 251.0 164.0 247.0 163.0 C 243.0 163.0 240.0 163.0 243.0 161.0 C 243.0 157.0 247.0 157.0 251.0 158.0 C 255.0 157.0 259.0 157.0 263.0 157.0 C 267.0 156.0 271.0 156.0 275.0 156.0 C 279.0 158.0 283.0 158.0 286.0 156.0 C 290.0 154.0 294.0 153.0 298.0 152.0 C 302.0 151.0 306.0 151.0 310.0 151.0 C 314.0 150.0 318.0 149.0 322.0 149.0 C 326.0 149.0 330.0 149.0 334.0 150.0 C 338.0 150.0 342.0 150.0 346.0 150.0 C 350.0 151.0 354.0 150.0 358.0 150.0 C 358.0 148.0 355.0 146.0 352.0 144.0 C 349.0 143.0 348.0 139.0 346.0 141.0 C 344.0 143.0 343.0 140.0 342.0 136.0 C 339.0 132.0 335.0 132.0 332.0 134.0 C 328.0 135.0 324.0 137.0 320.0 135.0 C 318.0 139.0 316.0 141.0 314.0 138.0 C 316.0 135.0 313.0 133.0 314.0 129.0 C 313.0 125.0 311.0 128.0 310.0 125.0 C 308.0 121.0 305.0 120.0 301.0 120.0 C 297.0 121.0 295.0 117.0 291.0 117.0 C 289.0 115.0 288.0 111.0 285.0 110.0 C 287.0 108.0 291.0 107.0 294.0 103.0 C 294.0 99.0 297.0 95.0 298.0 91.0 C 301.0 87.0 304.0 83.0 305.0 83.0" stroke-width="0.0" fill="rgb(94, 123, 137)" opacity="1.0" stroke="rgb(99, 29, 78)" stroke-opacity="0.71093947" stroke-linecap="round" stroke-linejoin="round"/>
    <path d="M 222.0 181.0 C 223.0 181.0 224.0 181.0 225.0 181.0 C 226.0 181.0 227.0 181.0 227.0 182.0 C 227.0 183.0 227.0 184.0 227.0 185.0 C 228.0 186.0 229.0 187.0 230.0 188.0 C 231.0 188.0 231.0 189.0 231.0 190.0 C 231.0 191.0 231.0 192.0 231.0 193.0 C 231.0 194.0 231.0 195.0 230.0 195.0 C 229.0 195.0 228.0 196.0 228.0 197.0 C 228.0 198.0 228.0 199.0 228.0 200.0 C 228.0 201.0 227.0 202.0 228.0 203.0 C 229.0 204.0 230.0 205.0 231.0 205.0 C 232.0 205.0 232.0 206.0 232.0 207.0 C 232.0 208.0 232.0 209.0 232.0 210.0 C 231.0 211.0 230.0 212.0 230.0 213.0 C 229.0 214.0 228.0 215.0 228.0 216.0 C 228.0 217.0 227.0 217.0 226.0 218.0 C 225.0 219.0 225.0 220.0 224.0 221.0 C 224.0 222.0 223.0 223.0 224.0 224.0 C 224.0 225.0 224.0 226.0 223.0 227.0 C 222.0 228.0 222.0 229.0 221.0 229.0 C 220.0 230.0 221.0 231.0 222.0 231.0 C 222.0 232.0 223.0 233.0 224.0 233.0 C 225.0 233.0 226.0 233.0 227.0 233.0 C 228.0 233.0 228.0 234.0 228.0 235.0 C 228.0 236.0 229.0 237.0 229.0 238.0 C 230.0 239.0 231.0 239.0 232.0 240.0 C 232.0 241.0 232.0 242.0 232.0 243.0 C 232.0 244.0 232.0 245.0 232.0 246.0 C 232.0 247.0 232.0 248.0 232.0 249.0 C 232.0 250.0 232.0 251.0 232.0 252.0 C 232.0 253.0 232.0 254.0 233.0 255.0 C 233.0 256.0 233.0 257.0 233.0 258.0 C 232.0 258.0 231.0 258.0 230.0 258.0 C 229.0 258.0 228.0 259.0 228.0 260.0 C 227.0 261.0 227.0 262.0 226.0 262.0 C 225.0 262.0 224.0 262.0 223.0 262.0 C 222.0 262.0 221.0 262.0 221.0 261.0 C 221.0 260.0 221.0 259.0 221.0 258.0 C 222.0 257.0 224.0 257.0 226.0 256.0 C 226.0 254.0 228.0 252.0 228.0 250.0 C 227.0 248.0 225.0 248.0 225.0 246.0 C 224.0 244.0 224.0 242.0 223.0 240.0 C 221.0 238.0 219.0 239.0 220.0 241.0 C 219.0 243.0 219.0 245.0 217.0 245.0 C 216.0 243.0 215.0 242.0 214.0 240.0 C 214.0 238.0 215.0 236.0 215.0 234.0 C 214.0 232.0 212.0 232.0 210.0 233.0 C 209.0 235.0 208.0 236.0 207.0 238.0 C 205.0 238.0 203.0 236.0 201.0 235.0 C 201.0 233.0 202.0 232.0 204.0 232.0 C 206.0 232.0 208.0 230.0 210.0 230.0 C 212.0 229.0 214.0 228.0 216.0 226.0 C 217.0 224.0 215.0 222.0 214.0 220.0 C 212.0 218.0 212.0 216.0 211.0 214.0 C 211.0 212.0 210.0 210.0 210.0 208.0 C 211.0 206.0 212.0 204.0 212.0 202.0 C 213.0 200.0 214.0 198.0 215.0 196.0 C 216.0 194.0 217.0 192.0 218.0 191.0 C 219.0 189.0 219.0 187.0 219.0 185.0 C 219.0 183.0 221.0 181.0 222.0 181.0" stroke-width="0.0" fill="rgb(115, 117, 103)" opacity="1.0" stroke="rgb(4, 54, 212)" stroke-opacity="0.43061855" stroke-linecap="round" stroke-linejoin="round"/>
    <path d="M 342.0 0.0 C 343.0 0.0 344.0 0.0 345.0 0.0 C 346.0 0.0 363.0 0.0 382.0 0.0 C 401.0 0.0 420.0 0.0 439.0 0.0 C 458.0 0.0 477.0 0.0 486.0 8.0 C 493.0 8.0 491.0 0.0 501.0 10.0 C 501.0 29.0 500.0 42.0 501.0 60.0 C 501.0 79.0 501.0 85.0 501.0 102.0 C 501.0 114.0 491.0 114.0 486.0 99.0 C 479.0 90.0 480.0 105.0 474.0 123.0 C 468.0 115.0 464.0 117.0 460.0 125.0 C 454.0 112.0 449.0 114.0 452.0 127.0 C 436.0 124.0 433.0 131.0 420.0 134.0 C 430.0 148.0 423.0 138.0 415.0 151.0 C 417.0 158.0 409.0 166.0 396.0 182.0 C 407.0 179.0 416.0 186.0 400.0 198.0 C 389.0 210.0 373.0 222.0 357.0 235.0 C 341.0 244.0 334.0 246.0 335.0 252.0 C 319.0 258.0 317.0 264.0 336.0 262.0 C 347.0 265.0 345.0 274.0 357.0 278.0 C 367.0 284.0 377.0 298.0 391.0 300.0 C 398.0 313.0 412.0 306.0 415.0 313.0 C 430.0 316.0 425.0 322.0 407.0 322.0 C 388.0 322.0 369.0 322.0 350.0 321.0 C 331.0 322.0 312.0 322.0 294.0 321.0 C 288.0 318.0 275.0 320.0 257.0 321.0 C 239.0 321.0 220.0 321.0 201.0 322.0 C 182.0 322.0 163.0 322.0 144.0 322.0 C 135.0 315.0 128.0 303.0 134.0 291.0 C 145.0 299.0 160.0 296.0 147.0 289.0 C 132.0 283.0 138.0 276.0 156.0 277.0 C 171.0 271.0 188.0 265.0 197.0 267.0 C 210.0 264.0 218.0 273.0 207.0 283.0 C 197.0 295.0 197.0 309.0 215.0 312.0 C 230.0 312.0 233.0 304.0 243.0 303.0 C 241.0 298.0 248.0 295.0 263.0 298.0 C 275.0 298.0 284.0 299.0 300.0 290.0 C 283.0 292.0 265.0 293.0 258.0 291.0 C 241.0 293.0 242.0 282.0 244.0 270.0 C 257.0 266.0 267.0 255.0 263.0 244.0 C 250.0 237.0 239.0 237.0 230.0 242.0 C 221.0 233.0 228.0 218.0 243.0 211.0 C 262.0 211.0 281.0 211.0 287.0 205.0 C 306.0 209.0 325.0 209.0 325.0 201.0 C 325.0 194.0 311.0 186.0 311.0 179.0 C 324.0 170.0 307.0 172.0 289.0 170.0 C 277.0 176.0 276.0 179.0 295.0 178.0 C 278.0 181.0 259.0 184.0 240.0 183.0 C 253.0 187.0 272.0 185.0 291.0 185.0 C 292.0 194.0 276.0 192.0 259.0 196.0 C 243.0 194.0 233.0 193.0 238.0 178.0 C 239.0 172.0 257.0 176.0 272.0 172.0 C 289.0 167.0 304.0 165.0 317.0 170.0 C 334.0 168.0 351.0 164.0 370.0 159.0 C 389.0 158.0 403.0 148.0 393.0 148.0 C 386.0 136.0 385.0 118.0 380.0 127.0 C 379.0 119.0 376.0 104.0 372.0 86.0 C 378.0 68.0 385.0 52.0 383.0 41.0 C 373.0 58.0 370.0 47.0 369.0 35.0 C 357.0 30.0 341.0 39.0 344.0 28.0 C 342.0 13.0 341.0 0.0 342.0 0.0" stroke-width="0.0" fill="rgb(41, 56, 42)" opacity="1.0" stroke="rgb(128, 181, 211)" stroke-opacity="0.6891925" stroke-linecap="round" stroke-linejoin="round"/>
    <path d="M 77.0 157.0 C 78.0 157.0 79.0 157.0 79.0 158.0 C 79.0 159.0 79.0 160.0 79.0 161.0 C 79.0 162.0 79.0 163.0 80.0 164.0 C 80.0 165.0 80.0 166.0 80.0 167.0 C 80.0 168.0 80.0 169.0 80.0 170.0 C 80.0 171.0 79.0 172.0 79.0 173.0 C 79.0 174.0 78.0 175.0 78.0 176.0 C 78.0 175.0 78.0 174.0 78.0 173.0 C 78.0 172.0 78.0 171.0 78.0 170.0 C 77.0 169.0 76.0 169.0 75.0 169.0 C 74.0 169.0 73.0 169.0 73.0 168.0 C 73.0 167.0 73.0 166.0 73.0 165.0 C 73.0 164.0 74.0 163.0 75.0 162.0 C 75.0 161.0 76.0 160.0 76.0 159.0 C 76.0 158.0 76.0 157.0 77.0 157.0" stroke-width="0.0" fill="rgb(128, 131, 124)" opacity="1.0" stroke="rgb(141, 170, 175)" stroke-opacity="0.75550807" stroke-linecap="round" stroke-linejoin="round"/>
    <path d="M 116.0 293.0 C 117.0 293.0 117.0 294.0 117.0 295.0 C 117.0 296.0 118.0 297.0 118.0 298.0 C 119.0 299.0 120.0 299.0 121.0 299.0 C 122.0 300.0 123.0 300.0 123.0 301.0 C 123.0 302.0 122.0 303.0 121.0 303.0 C 120.0 303.0 119.0 303.0 118.0 303.0 C 117.0 303.0 116.0 302.0 115.0 301.0 C 114.0 301.0 113.0 301.0 112.0 301.0 C 111.0 301.0 111.0 300.0 111.0 299.0 C 110.0 298.0 109.0 297.0 108.0 297.0 C 108.0 296.0 108.0 295.0 109.0 294.0 C 110.0 294.0 111.0 294.0 111.0 295.0 C 111.0 296.0 112.0 297.0 113.0 297.0 C 114.0 297.0 115.0 296.0 115.0 295.0 C 115.0 294.0 115.0 293.0 116.0 293.0" stroke-width="0.0" fill="rgb(126, 133, 126)" opacity="1.0" stroke="rgb(187, 140, 107)" stroke-opacity="0.90679836" stroke-linecap="round" stroke-linejoin="round"/>
    <path d="M 86.0 123.0 C 87.0 123.0 88.0 123.0 89.0 123.0 C 90.0 123.0 91.0 123.0 91.0 124.0 C 91.0 125.0 90.0 125.0 89.0 125.0 C 88.0 125.0 87.0 126.0 87.0 127.0 C 87.0 128.0 87.0 129.0 86.0 130.0 C 85.0 130.0 84.0 130.0 83.0 129.0 C 82.0 129.0 82.0 128.0 81.0 127.0 C 80.0 127.0 79.0 128.0 79.0 129.0 C 78.0 129.0 77.0 129.0 76.0 129.0 C 75.0 129.0 74.0 129.0 73.0 129.0 C 72.0 129.0 71.0 128.0 71.0 127.0 C 72.0 127.0 73.0 127.0 74.0 127.0 C 75.0 128.0 76.0 128.0 77.0 128.0 C 78.0 127.0 79.0 127.0 80.0 127.0 C 81.0 127.0 82.0 127.0 83.0 126.0 C 83.0 125.0 83.0 124.0 82.0 123.0 C 81.0 123.0 80.0 123.0 79.0 123.0 C 78.0 123.0 77.0 123.0 76.0 123.0 C 75.0 123.0 74.0 123.0 73.0 123.0 C 72.0 123.0 71.0 123.0 72.0 123.0 C 73.0 123.0 74.0 123.0 75.0 123.0 C 76.0 123.0 77.0 123.0 78.0 123.0 C 79.0 123.0 80.0 123.0 81.0 123.0 C 82.0 123.0 83.0 122.0 86.0 123.0" stroke-width="0.0" fill="rgb(103, 131, 144)" opacity="1.0" stroke="rgb(158, 155, 125)" stroke-opacity="0.18493003" stroke-linecap="round" stroke-linejoin="round"/>
    <path d="M 103.0 110.0 C 103.0 111.0 104.0 112.0 105.0 112.0 C 106.0 112.0 106.0 113.0 106.0 114.0 C 105.0 115.0 104.0 115.0 103.0 115.0 C 102.0 115.0 101.0 115.0 100.0 115.0 C 99.0 115.0 98.0 115.0 97.0 115.0 C 96.0 115.0 95.0 115.0 94.0 115.0 C 93.0 115.0 92.0 115.0 91.0 115.0 C 90.0 115.0 90.0 114.0 90.0 113.0 C 91.0 112.0 92.0 112.0 93.0 111.0 C 94.0 111.0 95.0 111.0 96.0 111.0 C 97.0 111.0 98.0 111.0 98.0 112.0 C 99.0 113.0 100.0 113.0 101.0 112.0 C 101.0 111.0 101.0 110.0 103.0 110.0" stroke-width="0.0" fill="rgb(102, 132, 145)" opacity="1.0" stroke="rgb(208, 149, 146)" stroke-opacity="0.06581256" stroke-linecap="round" stroke-linejoin="round"/>
    <path d="M 189.0 250.0 C 190.0 250.0 191.0 250.0 192.0 250.0 C 193.0 250.0 194.0 250.0 195.0 250.0 C 196.0 250.0 197.0 250.0 198.0 250.0 C 198.0 251.0 198.0 252.0 198.0 253.0 C 198.0 254.0 197.0 254.0 196.0 255.0 C 195.0 255.0 194.0 256.0 193.0 257.0 C 192.0 257.0 191.0 257.0 191.0 256.0 C 191.0 255.0 191.0 254.0 190.0 253.0 C 189.0 253.0 188.0 254.0 187.0 254.0 C 186.0 254.0 186.0 253.0 186.0 252.0 C 186.0 251.0 186.0 250.0 189.0 250.0" stroke-width="0.0" fill="rgb(114, 122, 120)" opacity="1.0" stroke="rgb(219, 248, 55)" stroke-opacity="0.7712805" stroke-linecap="round" stroke-linejoin="round"/>
    <path d="M 224.0 95.0 C 225.0 95.0 226.0 95.0 226.0 96.0 C 226.0 97.0 226.0 98.0 226.0 99.0 C 226.0 100.0 226.0 101.0 226.0 102.0 C 225.0 102.0 224.0 102.0 223.0 102.0 C 222.0 103.0 221.0 103.0 220.0 103.0 C 220.0 102.0 220.0 101.0 219.0 100.0 C 218.0 101.0 217.0 102.0 216.0 102.0 C 216.0 101.0 216.0 100.0 216.0 99.0 C 217.0 99.0 218.0 99.0 219.0 98.0 C 219.0 97.0 220.0 97.0 221.0 97.0 C 222.0 96.0 223.0 95.0 224.0 95.0" stroke-width="0.0" fill="rgb(103, 130, 146)" opacity="1.0" stroke="rgb(72, 197, 85)" stroke-opacity="0.34560654" stroke-linecap="round" stroke-linejoin="round"/>
    <path d="M 71.0 178.0 C 71.0 179.0 71.0 180.0 72.0 181.0 C 73.0 181.0 73.0 182.0 73.0 183.0 C 73.0 184.0 73.0 185.0 74.0 186.0 C 75.0 186.0 76.0 186.0 76.0 187.0 C 76.0 188.0 76.0 189.0 76.0 190.0 C 75.0 191.0 75.0 192.0 75.0 193.0 C 75.0 194.0 75.0 195.0 75.0 196.0 C 74.0 197.0 74.0 198.0 75.0 199.0 C 75.0 200.0 75.0 201.0 75.0 202.0 C 74.0 202.0 73.0 202.0 73.0 201.0 C 73.0 200.0 72.0 199.0 71.0 200.0 C 71.0 201.0 71.0 202.0 71.0 203.0 C 70.0 203.0 69.0 203.0 69.0 202.0 C 69.0 201.0 69.0 200.0 69.0 199.0 C 70.0 198.0 70.0 197.0 70.0 196.0 C 70.0 195.0 71.0 195.0 72.0 195.0 C 73.0 194.0 73.0 193.0 73.0 192.0 C 73.0 191.0 73.0 190.0 73.0 189.0 C 73.0 188.0 73.0 187.0 73.0 186.0 C 72.0 185.0 71.0 185.0 71.0 184.0 C 71.0 183.0 71.0 182.0 71.0 181.0 C 71.0 180.0 71.0 179.0 71.0 178.0 C 71.0 177.0 71.0 176.0 71.0 178.0" stroke-width="0.0" fill="rgb(131, 134, 131)" opacity="1.0" stroke="rgb(76, 125, 96)" stroke-opacity="0.0067758006" stroke-linecap="round" stroke-linejoin="round"/>
    <path d="M 247.0 11.0 C 247.0 12.0 247.0 13.0 246.0 13.0 C 245.0 13.0 244.0 13.0 243.0 14.0 C 243.0 15.0 243.0 16.0 244.0 17.0 C 245.0 17.0 246.0 17.0 247.0 17.0 C 248.0 16.0 249.0 16.0 250.0 16.0 C 251.0 16.0 252.0 16.0 251.0 16.0 C 250.0 17.0 249.0 18.0 249.0 19.0 C 248.0 19.0 247.0 19.0 246.0 19.0 C 245.0 19.0 244.0 19.0 243.0 19.0 C 242.0 19.0 241.0 20.0 240.0 20.0 C 239.0 20.0 239.0 19.0 239.0 18.0 C 240.0 18.0 241.0 18.0 242.0 17.0 C 242.0 16.0 242.0 15.0 241.0 14.0 C 240.0 14.0 240.0 13.0 240.0 12.0 C 241.0 12.0 242.0 12.0 243.0 12.0 C 244.0 12.0 245.0 11.0 247.0 11.0" stroke-width="0.0" fill="rgb(108, 169, 107)" opacity="1.0" stroke="rgb(125, 126, 89)" stroke-opacity="0.7427753" stroke-linecap="round" stroke-linejoin="round"/>
  </g>
</svg>
