<?xml version="1.0" ?>
<svg xmlns="http://www.w3.org/2000/svg" version="1.1" width="222" height="406">
  <defs/>
  <g>
    <path d="M -7.555517673492432 -8.427815437316895 C 5.926965713500977 -10.978248596191406 19.048507690429688 -12.576379776000977 30.84368324279785 -12.207040786743164 C 40.0622444152832 -9.747291564941406 45.69537353515625 -5.594064712524414 47.2675895690918 -1.2727980613708496 C 46.43198013305664 0.9030987620353699 47.27607727050781 0.18649044632911682 51.84197998046875 -2.919525146484375 C 60.13683319091797 -5.848726749420166 70.89952850341797 -7.111884117126465 82.77750396728516 -6.1136603355407715 C 93.99018859863281 -5.191226959228516 103.51215362548828 -5.130349159240723 110.5261459350586 -6.139302730560303 C 115.04227447509766 -7.482613563537598 118.06185913085938 -8.263233184814453 120.99071502685547 -8.271635055541992 C 124.97679138183594 -8.049482345581055 130.1974639892578 -7.353704929351807 136.418212890625 -6.386155128479004 C 143.51278686523438 -5.51080322265625 151.09585571289062 -5.016751766204834 159.02679443359375 -5.380248546600342 C 167.26206970214844 -6.636904239654541 175.80206298828125 -8.37685775756836 184.6730194091797 -9.837751388549805 C 193.70498657226562 -10.477256774902344 202.57469177246094 -9.92948055267334 210.9175567626953 -8.026907920837402 C 218.295654296875 -4.676264762878418 224.28012084960938 0.09077272564172745 228.60093688964844 5.9942240715026855 C 231.338134765625 12.780619621276855 232.49136352539062 20.14958381652832 232.48936462402344 27.827882766723633 C 232.15660095214844 35.57603073120117 231.8728790283203 43.275611877441406 231.7333526611328 50.820213317871094 C 231.70111083984375 58.16868209838867 231.73333740234375 65.37782287597656 231.7733612060547 72.36888885498047 C 231.7741241455078 79.1980209350586 231.77891540527344 86.00499725341797 231.79798889160156 92.77474212646484 C 231.7379913330078 99.656005859375 231.6162567138672 106.69883728027344 231.67239379882812 113.87936401367188 C 232.05886840820312 121.22834777832031 232.36485290527344 128.73426818847656 232.30868530273438 136.3881072998047 C 231.7079620361328 144.08224487304688 230.62918090820312 151.68585205078125 229.34310913085938 159.18948364257812 C 228.25930786132812 166.58583068847656 228.00775146484375 173.73301696777344 228.9257354736328 180.61798095703125 C 230.48606872558594 187.3496551513672 231.8459014892578 193.84805297851562 232.6429901123047 200.17271423339844 C 232.6530303955078 206.52684020996094 232.18621826171875 212.9424591064453 231.71693420410156 219.3645477294922 C 231.5938262939453 225.9364776611328 231.6829376220703 232.7338409423828 231.78387451171875 239.63990783691406 C 231.79293823242188 246.58204650878906 231.77291870117188 253.68490600585938 231.76698303222656 260.873291015625 C 231.76930236816406 268.0310974121094 231.770263671875 275.17913818359375 231.7697296142578 282.3081970214844 C 231.76951599121094 289.3500061035156 231.7698516845703 296.2889709472656 231.77017211914062 303.1316833496094 C 231.76736450195312 309.898193359375 231.76365661621094 316.6224670410156 231.7748565673828 323.3759765625 C 231.80303955078125 330.1927490234375 231.78115844726562 337.20721435546875 231.6988983154297 344.4621276855469 C 231.64976501464844 352.01495361328125 231.7598876953125 359.92047119140625 232.08529663085938 368.1652526855469 C 232.48605346679688 376.58892822265625 232.50335693359375 385.0194396972656 231.57281494140625 393.1372985839844 C 229.3455047607422 400.4833679199219 225.84532165527344 406.79107666015625 221.15261840820312 411.7525939941406 C 215.40672302246094 414.92156982421875 208.83741760253906 416.4233703613281 201.6387481689453 416.71295166015625 C 193.8797149658203 416.4064025878906 185.84225463867188 415.95684814453125 177.68701171875 415.6747741699219 C 169.59095764160156 415.6526794433594 161.6546173095703 415.72222900390625 154.021728515625 415.7536926269531 C 146.7395477294922 415.7611999511719 139.82273864746094 415.8076477050781 133.2899169921875 415.8875427246094 C 127.0267562866211 415.9388732910156 120.9327392578125 415.9160461425781 115.00444030761719 415.8080139160156 C 109.09123992919922 415.48175048828125 103.1587905883789 414.75445556640625 97.05996704101562 413.49505615234375 C 90.70160675048828 411.6299743652344 83.93441772460938 410.70489501953125 76.59087371826172 411.17144775390625 C 68.6748046875 412.6021423339844 60.22514724731445 414.2898864746094 51.43819808959961 415.63079833984375 C 42.48307800292969 416.35528564453125 33.53778076171875 416.7250061035156 24.884767532348633 416.97711181640625 C 16.833515167236328 416.8220520019531 9.657090187072754 415.6114196777344 3.609551429748535 412.6595764160156 C -1.0314946174621582 407.56671142578125 -4.237705707550049 400.5474548339844 -6.102534294128418 392.2585144042969 C -6.99703311920166 383.439208984375 -7.2621073722839355 374.9682312011719 -7.387897968292236 367.6826171875 C -7.7051849365234375 361.5655212402344 -7.888623237609863 355.8983154296875 -7.682060718536377 349.92779541015625 C -7.035590648651123 343.0890808105469 -6.401515960693359 335.1615905761719 -6.278298854827881 326.25048828125 C -6.823014259338379 316.63409423828125 -7.524435997009277 307.2007751464844 -7.800525665283203 298.727294921875 C -7.242608547210693 292.0007019042969 -6.6069183349609375 286.6112060546875 -6.805209636688232 281.22674560546875 C -8.209107398986816 274.8087158203125 -9.555892944335938 267.0487976074219 -9.10784912109375 258.2547912597656 C -7.385730743408203 249.15541076660156 -6.108762741088867 240.9119873046875 -5.735985279083252 234.59266662597656 C -5.545957088470459 230.757568359375 -5.4793171882629395 228.7721405029297 -5.548172950744629 227.1353759765625 C -6.523011684417725 223.42916870117188 -8.556578636169434 216.3088836669922 -10.23672103881836 206.38658142089844 C -9.078351974487305 194.78109741210938 -4.8182454109191895 183.6206512451172 1.8783725500106812 177.50563049316406 C 7.171693801879883 177.142578125 2.0656850337982178 176.96888732910156 -6.374441146850586 173.8741455078125 C -10.244634628295898 165.43955993652344 -10.246118545532227 155.18270874023438 -7.74933385848999 143.77284240722656 C -4.657332420349121 132.66151428222656 -2.964336395263672 122.94255065917969 -3.3682076930999756 115.53177642822266 C -5.218031883239746 109.9951400756836 -6.780543804168701 104.89340209960938 -7.458048343658447 99.15874481201172 C -7.165829658508301 91.97461700439453 -7.134760856628418 83.5643310546875 -8.11685562133789 74.36612701416016 C -9.313612937927246 65.10584259033203 -9.224085807800293 57.11017608642578 -7.340075969696045 51.57023620605469 C -4.8640923500061035 49.278316497802734 -3.8374922275543213 48.478553771972656 -4.378896236419678 46.9231071472168 C -5.873322010040283 42.67914962768555 -7.974155426025391 35.65658950805664 -10.48135757446289 26.436922073364258 C -13.251296043395996 15.837472915649414 -16.017911911010742 4.858261585235596 -7.555517673492432 -8.427815437316895" stroke-width="0.0" fill="rgb(234, 229, 225)" opacity="1.0" stroke="rgb(205, 158, 225)" stroke-opacity="0.2682998" stroke-linecap="round" stroke-linejoin="round"/>
    <path d="M 60.553043365478516 88.35655212402344 C 63.27455520629883 89.30885314941406 65.39247131347656 90.24781799316406 67.49803161621094 90.95118713378906 C 69.00491333007812 91.71135711669922 69.76698303222656 92.29869079589844 70.98405456542969 92.01612091064453 C 71.08036041259766 93.26673126220703 72.15132141113281 92.9425277709961 73.36656951904297 93.01065826416016 C 73.40988159179688 94.10916137695312 74.51201629638672 93.86090850830078 75.8543930053711 94.1708755493164 C 77.72245025634766 95.31903076171875 81.1494369506836 95.99551391601562 84.19857788085938 97.12030792236328 C 87.79268646240234 97.94844055175781 91.11035919189453 99.03974151611328 94.13423919677734 99.5912094116211 C 95.89596557617188 100.27384185791016 97.95619201660156 99.97480773925781 98.95838928222656 100.80105590820312 C 99.9188232421875 100.76758575439453 100.42806243896484 101.11516571044922 101.71366119384766 100.9767074584961 C 102.58110809326172 101.06985473632812 104.73277282714844 102.00101470947266 108.22081756591797 102.02072143554688 C 111.802734375 102.40941619873047 115.35023498535156 103.24978637695312 119.30540466308594 102.94110107421875 C 123.23602294921875 103.57941436767578 124.70745086669922 103.38268280029297 125.25616455078125 101.6805648803711 C 125.36322021484375 98.78006744384766 125.0721206665039 97.16889953613281 124.83938598632812 96.70161437988281 C 124.94499969482422 97.8613510131836 125.91252899169922 98.99337768554688 127.82014465332031 101.478759765625 C 130.01522827148438 103.61431121826172 133.20790100097656 103.46363830566406 137.8673095703125 102.96839904785156 C 144.83596801757812 103.22825622558594 147.70086669921875 101.7928237915039 151.21250915527344 102.00647735595703 C 154.2360382080078 101.3682861328125 157.55264282226562 101.00350952148438 160.52340698242188 100.51332092285156 C 163.91424560546875 99.91851806640625 167.04391479492188 98.9850845336914 171.92642211914062 98.45948028564453 C 175.56285095214844 96.22496795654297 173.45558166503906 93.26665496826172 176.52032470703125 93.2682113647461 C 175.9646759033203 101.02849578857422 175.84024047851562 102.7631607055664 175.01524353027344 104.97529602050781 C 175.2571563720703 107.44388580322266 174.6367950439453 108.66602325439453 173.6942596435547 110.34254455566406 C 174.13735961914062 112.07381439208984 175.0009307861328 113.8166732788086 175.99119567871094 115.57022094726562 C 177.10824584960938 117.31884002685547 178.19581604003906 119.47247314453125 179.05007934570312 122.07891845703125 C 179.45706176757812 125.27405548095703 179.46331787109375 129.03565979003906 179.1314239501953 133.3604278564453 C 178.5610809326172 137.80191040039062 177.87733459472656 141.9920196533203 177.29177856445312 145.8733367919922 C 176.86557006835938 149.131103515625 176.1881866455078 151.7138671875 175.25933837890625 153.923828125 C 173.77084350585938 155.48367309570312 171.98355102539062 156.80490112304688 170.16424560546875 158.08230590820312 C 168.7312469482422 159.64154052734375 167.80886840820312 161.6011199951172 167.80718994140625 163.939697265625 C 167.59657287597656 166.15969848632812 167.190185546875 168.3974609375 166.93003845214844 170.44630432128906 C 166.65150451660156 172.43153381347656 166.06504821777344 174.25997924804688 165.4566192626953 176.12420654296875 C 164.84019470214844 177.73223876953125 164.47215270996094 179.18788146972656 164.47129821777344 180.70921325683594 C 164.54945373535156 182.30563354492188 164.46165466308594 183.99066162109375 164.16943359375 186.00926208496094 C 163.572265625 188.48355102539062 162.65231323242188 191.49484252929688 161.38497924804688 194.9315185546875 C 160.3271942138672 198.49261474609375 159.451904296875 201.8474884033203 158.4961700439453 204.53961181640625 C 157.81124877929688 206.4326934814453 157.03636169433594 207.68052673339844 155.8340301513672 208.32582092285156 C 153.98736572265625 208.73965454101562 151.31822204589844 208.87525939941406 147.90769958496094 208.8010711669922 C 143.85389709472656 208.93478393554688 139.58819580078125 209.1332244873047 135.48281860351562 209.4523468017578 C 131.6935577392578 209.86953735351562 128.4507598876953 210.2347869873047 125.59764099121094 210.46002197265625 C 123.11975860595703 210.49269104003906 120.69935607910156 210.3284454345703 118.16011047363281 210.0994110107422 C 115.28802490234375 209.93421936035156 112.14282989501953 209.86219787597656 108.71286010742188 209.9357452392578 C 105.04241180419922 210.19284057617188 101.31332397460938 210.40509033203125 97.52446746826172 210.5274200439453 C 93.70256042480469 210.19822692871094 89.82415771484375 209.41964721679688 85.8675308227539 208.29684448242188 C 81.93975830078125 207.1912841796875 78.10063171386719 206.14389038085938 74.43853759765625 205.44491577148438 C 70.91596984863281 205.0447540283203 67.65132904052734 204.9728240966797 64.7658462524414 205.01315307617188 C 62.36016845703125 204.8650665283203 60.49607467651367 204.45108032226562 59.0364990234375 203.70550537109375 C 57.785362243652344 202.700927734375 56.62617111206055 200.94775390625 56.159732818603516 197.73486328125 C 55.59599304199219 194.52114868164062 54.330684661865234 191.5818634033203 51.56658935546875 189.2837371826172 C 48.92940139770508 186.6840362548828 46.801918029785156 183.49513244628906 45.30704116821289 179.8607940673828 C 44.353511810302734 175.929931640625 43.9135856628418 171.94886779785156 43.87522888183594 167.8728790283203 C 44.13725280761719 163.72496032714844 44.372840881347656 159.61279296875 44.66489028930664 155.68833923339844 C 44.704952239990234 152.05917358398438 44.86410140991211 148.84913635253906 45.63258361816406 146.2755126953125 C 47.15879440307617 144.48007202148438 49.45714569091797 143.24363708496094 52.37688446044922 142.16525268554688 C 55.60826873779297 140.95166015625 58.9948844909668 139.38243103027344 62.29364776611328 137.4440460205078 C 65.34719848632812 135.3195343017578 67.96847534179688 133.39100646972656 70.10820007324219 131.8564453125 C 71.6289291381836 130.69879150390625 72.68827819824219 129.7255401611328 73.41798400878906 128.6088409423828 C 74.05056762695312 127.14628601074219 74.4554214477539 125.3676986694336 74.80636596679688 123.24353790283203 C 75.96240997314453 120.46533966064453 75.55891418457031 117.68287658691406 74.55549621582031 114.46448516845703 C 71.40399932861328 112.83940124511719 68.74398040771484 111.2463150024414 65.52555847167969 109.87406921386719 C 62.55990982055664 108.27223205566406 60.31972885131836 106.34080505371094 58.76089859008789 104.17343139648438 C 57.88513946533203 101.72750091552734 59.9385871887207 99.12832641601562 59.18314743041992 95.29685974121094 C 58.701881408691406 91.47467803955078 59.6817741394043 88.29994201660156 60.553043365478516 88.35655212402344" stroke-width="0.0" fill="rgb(0, 169, 211)" opacity="1.0" stroke="rgb(137, 48, 94)" stroke-opacity="0.7159321" stroke-linecap="round" stroke-linejoin="round"/>
    <path d="M 58.5174446105957 197.9849090576172 C 59.53937530517578 197.86331176757812 60.552101135253906 197.87298583984375 61.531715393066406 198.290283203125 C 62.210880279541016 198.03492736816406 62.7292366027832 197.97494506835938 62.94668960571289 197.94090270996094 C 62.96222686767578 198.05274963378906 62.76526641845703 198.32127380371094 62.64078903198242 198.63668823242188 C 62.597347259521484 198.9293670654297 62.74829864501953 199.17190551757812 63.03841781616211 199.04367065429688 C 63.536556243896484 199.10549926757812 64.44822692871094 198.967529296875 65.76396179199219 199.62100219726562 C 67.30022430419922 199.71336364746094 68.85761260986328 200.06747436523438 70.24807739257812 200.20864868164062 C 71.49040222167969 200.1671905517578 72.2836685180664 200.56661987304688 73.24396514892578 201.16162109375 C 72.96692657470703 201.40805053710938 72.43258666992188 201.4158477783203 71.73951721191406 201.34927368164062 C 71.1347427368164 201.46279907226562 70.89659881591797 201.4215545654297 71.11954498291016 201.44476318359375 C 72.19916534423828 201.3433837890625 73.86634063720703 201.19252014160156 75.87596893310547 201.51553344726562 C 77.9015884399414 201.9690704345703 79.74762725830078 202.13035583496094 81.38752746582031 202.07574462890625 C 82.49751281738281 201.76724243164062 83.43374633789062 201.46826171875 84.19989776611328 201.35337829589844 C 84.95110321044922 201.33485412597656 85.80805206298828 201.63449096679688 86.80379486083984 202.12985229492188 C 87.78170776367188 202.50546264648438 89.07434844970703 203.36329650878906 90.3162612915039 203.58905029296875 C 91.45929718017578 202.8369140625 92.04566192626953 202.84889221191406 92.1275863647461 202.6757354736328 C 91.8899154663086 202.3361053466797 91.35546112060547 202.0128173828125 90.84154510498047 201.8983917236328 C 90.56433868408203 202.10321044921875 90.72199249267578 202.4913330078125 91.36079406738281 203.02218627929688 C 92.41583251953125 203.4785919189453 93.76631927490234 203.82449340820312 95.22012329101562 204.0504608154297 C 96.79014587402344 204.15859985351562 98.38786315917969 204.18951416015625 99.82083129882812 204.19039916992188 C 101.0627670288086 204.12661743164062 102.25726318359375 204.1023712158203 103.38432312011719 204.15309143066406 C 104.34976959228516 204.17738342285156 105.18876647949219 204.16510009765625 105.9935073852539 204.1447296142578 C 106.78079986572266 204.09214782714844 107.58710479736328 204.0194549560547 108.53811645507812 203.99588012695312 C 109.63678741455078 204.02093505859375 110.82109069824219 204.0564727783203 112.1051025390625 204.09881591796875 C 113.57039642333984 204.1063690185547 115.21875 204.01690673828125 117.15917205810547 204.51119995117188 C 119.23625946044922 204.44320678710938 121.10592651367188 203.8555145263672 123.02758026123047 203.30368041992188 C 124.84033966064453 203.19158935546875 126.49295806884766 203.08889770507812 128.04615783691406 203.07131958007812 C 129.512939453125 203.13819885253906 130.90274047851562 203.16949462890625 132.3174285888672 203.19216918945312 C 133.82675170898438 203.1051025390625 135.3827362060547 203.0753936767578 137.06243896484375 202.9348602294922 C 138.82960510253906 202.6905975341797 140.59596252441406 202.53402709960938 142.44346618652344 202.4053192138672 C 144.15557861328125 202.3042449951172 145.75448608398438 202.1472625732422 147.19497680664062 201.98802185058594 C 148.59051513671875 201.7171630859375 150.1721649169922 201.46798706054688 151.88320922851562 201.2449951171875 C 153.85340881347656 201.12869262695312 155.7452392578125 201.11373901367188 157.43106079101562 201.49639892578125 C 158.54238891601562 200.84970092773438 159.25975036621094 200.46630859375 159.73611450195312 200.03518676757812 C 159.87986755371094 199.33349609375 160.18479919433594 199.3349151611328 160.99551391601562 200.39857482910156 C 162.3672637939453 202.97442626953125 163.92291259765625 206.78700256347656 165.5979766845703 211.1011962890625 C 167.1444091796875 215.25758361816406 168.2367706298828 218.72564697265625 168.71400451660156 221.4270477294922 C 168.21810913085938 222.9741668701172 167.07269287109375 223.97064208984375 164.8389434814453 225.01869201660156 C 161.77049255371094 225.8457489013672 158.02093505859375 226.19122314453125 153.23594665527344 225.503662109375 C 149.35447692871094 223.87109375 145.95130920410156 221.86331176757812 143.5670166015625 220.4073486328125 C 143.1165313720703 219.45944213867188 143.7620849609375 220.05667114257812 144.8082733154297 221.32542419433594 C 144.7672882080078 222.22869873046875 143.5260467529297 222.3789520263672 141.16757202148438 222.38772583007812 C 137.823974609375 222.50376892089844 134.27906799316406 222.55775451660156 131.3673095703125 221.9604034423828 C 129.79986572265625 221.12249755859375 129.3177947998047 220.51602172851562 129.2120361328125 220.43026733398438 C 128.5225372314453 221.13034057617188 127.0979995727539 221.96534729003906 124.7989730834961 222.49905395507812 C 120.70235443115234 222.73622131347656 117.17256927490234 223.14894104003906 113.57266235351562 223.53240966796875 C 110.26055908203125 223.7459259033203 107.49349975585938 223.51812744140625 105.54862213134766 222.8179473876953 C 104.28924560546875 221.89480590820312 103.5005874633789 220.99085998535156 102.9107437133789 220.33511352539062 C 102.24585723876953 220.22891235351562 101.40250396728516 220.614501953125 100.11410522460938 221.33763122558594 C 98.01365661621094 222.03009033203125 95.2509536743164 222.58792114257812 91.66400146484375 223.02183532714844 C 88.19916534423828 223.02938842773438 84.25678253173828 222.9771270751953 81.62834167480469 223.0122528076172 C 79.74254608154297 224.85595703125 78.03604888916016 225.31597900390625 76.84929656982422 225.85289001464844 C 76.05046844482422 227.06643676757812 75.16064453125 227.9483184814453 73.61107635498047 228.1334228515625 C 72.04779815673828 227.52073669433594 70.10372161865234 226.32461547851562 67.98470306396484 224.71432495117188 C 65.78388214111328 222.70021057128906 63.423851013183594 221.1450653076172 60.84046936035156 220.33651733398438 C 57.606414794921875 219.8155975341797 54.91199493408203 218.9866180419922 53.342620849609375 217.07669067382812 C 51.997920989990234 214.96725463867188 51.5125846862793 212.503173828125 49.369483947753906 210.1404266357422 C 46.230926513671875 207.6262664794922 47.57384490966797 206.7416534423828 52.06976318359375 208.00836181640625 C 55.642086029052734 206.5341339111328 51.67401123046875 201.5859375 52.27915954589844 200.60926818847656 C 57.63088607788086 203.8600616455078 56.13169860839844 200.88046264648438 57.26786422729492 198.31961059570312 C 58.954383850097656 197.7911376953125 59.92983627319336 197.13272094726562 58.5174446105957 197.9849090576172" stroke-width="0.0" fill="rgb(0, 84, 211)" opacity="1.0" stroke="rgb(111, 148, 228)" stroke-opacity="0.94932014" stroke-linecap="round" stroke-linejoin="round"/>
    <path d="M 79.0561752319336 113.22220611572266 C 80.18903350830078 118.29735565185547 81.1614990234375 119.61321258544922 80.9483871459961 121.40377044677734 C 81.54396057128906 123.39744567871094 81.47175598144531 125.17900085449219 81.3707275390625 127.52835845947266 C 81.11052703857422 128.79335021972656 80.97187042236328 130.09690856933594 80.66764831542969 131.351806640625 C 80.43567657470703 132.38351440429688 80.00023651123047 133.09243774414062 79.92317199707031 133.76507568359375 C 79.49832916259766 134.63035583496094 79.09429931640625 135.58831787109375 78.48483276367188 136.74192810058594 C 77.56777954101562 138.00518798828125 76.55303192138672 139.2240753173828 75.53433990478516 140.4167022705078 C 74.72663879394531 141.37220764160156 74.11653137207031 142.14273071289062 73.74153137207031 142.76480102539062 C 73.4410629272461 143.24246215820312 73.01398468017578 143.66554260253906 72.26363372802734 144.32711791992188 C 71.13448333740234 145.21324157714844 69.50274658203125 146.40966796875 67.55586242675781 147.69825744628906 C 65.5003890991211 148.9896697998047 63.54227066040039 150.0905303955078 61.91144561767578 150.861328125 C 60.866661071777344 151.1792755126953 60.27661895751953 151.14791870117188 60.039180755615234 151.0639190673828 C 59.855804443359375 151.11923217773438 59.61035919189453 151.1732635498047 59.23627471923828 151.3406524658203 C 58.530670166015625 151.56292724609375 57.71415710449219 151.6570281982422 56.700321197509766 151.69407653808594 C 56.719242095947266 152.3596649169922 56.330081939697266 152.6297149658203 55.94195556640625 152.5286102294922 C 55.435176849365234 152.19277954101562 54.832672119140625 151.78945922851562 54.0679931640625 151.747314453125 C 53.23978042602539 152.14828491210938 52.50336456298828 152.94110107421875 51.95229721069336 154.10903930664062 C 51.70163345336914 155.41209411621094 51.60921096801758 156.84007263183594 51.662803649902344 158.3164520263672 C 51.68930435180664 159.7055206298828 51.685951232910156 161.0685577392578 51.68655014038086 162.3428192138672 C 51.67490768432617 163.5223388671875 51.6170768737793 164.7240447998047 51.535526275634766 165.89834594726562 C 51.5144157409668 167.02169799804688 51.5250244140625 167.9651336669922 51.55111312866211 168.6913299560547 C 51.513370513916016 169.25624084472656 51.34453201293945 169.6889190673828 51.162479400634766 170.0935821533203 C 51.04396057128906 170.4334259033203 50.87999725341797 170.80551147460938 50.847129821777344 171.47970581054688 C 50.90663528442383 172.62274169921875 50.944087982177734 174.15838623046875 50.932918548583984 176.0216827392578 C 50.901790618896484 178.06805419921875 50.825538635253906 180.20071411132812 50.552005767822266 182.2275390625 C 50.03314971923828 183.73208618164062 49.292083740234375 184.67022705078125 48.18317794799805 185.05230712890625 C 46.83452224731445 184.88302612304688 45.887935638427734 184.6804656982422 45.071861267089844 184.4903106689453 C 44.5653076171875 184.34210205078125 44.19050598144531 184.2149658203125 43.78472900390625 183.98704528808594 C 43.11277389526367 183.72998046875 42.08993911743164 183.50469970703125 40.68503952026367 183.22422790527344 C 38.79999923706055 182.62098693847656 36.79573440551758 181.79324340820312 34.87691879272461 180.9183807373047 C 33.3546028137207 180.1780548095703 32.25138854980469 179.5237579345703 31.482948303222656 179.02085876464844 C 30.85321044921875 178.7456512451172 30.086027145385742 178.481201171875 29.19654655456543 178.08468627929688 C 28.151460647583008 177.39198303222656 27.099964141845703 176.39947509765625 25.406574249267578 175.64712524414062 C 25.025333404541016 173.9493408203125 25.47321891784668 172.36566162109375 25.96818733215332 170.87014770507812 C 26.311826705932617 169.8079376220703 26.560428619384766 169.06912231445312 26.7176513671875 168.7526092529297 C 26.692829132080078 168.84580993652344 26.53654670715332 169.12672424316406 26.542783737182617 169.21864318847656 C 26.661170959472656 168.95578002929688 26.983318328857422 167.97984313964844 27.322175979614258 166.41893005371094 C 27.29800796508789 164.5448760986328 27.260021209716797 162.30490112304688 27.336729049682617 160.2651824951172 C 27.897016525268555 158.55882263183594 27.520471572875977 156.99472045898438 26.966754913330078 155.73805236816406 C 26.405736923217773 154.6455078125 26.50972557067871 153.6237335205078 27.5143985748291 152.47132873535156 C 28.16147804260254 151.3063507080078 28.643632888793945 149.95899963378906 29.066999435424805 148.70367431640625 C 29.35833168029785 148.05490112304688 29.11542510986328 147.51246643066406 28.716001510620117 147.30111694335938 C 28.37442970275879 147.50927734375 28.351438522338867 147.8423614501953 28.713970184326172 148.0391387939453 C 29.42048454284668 147.98594665527344 30.2911319732666 147.87457275390625 31.256954193115234 147.48086547851562 C 32.075016021728516 146.90887451171875 32.80171203613281 146.2378692626953 33.23787307739258 145.4168701171875 C 33.60603713989258 144.52166748046875 34.07232666015625 143.27920532226562 34.875797271728516 141.79522705078125 C 36.18566131591797 140.05482482910156 38.790733337402344 138.86557006835938 41.30293655395508 137.22174072265625 C 43.612667083740234 135.66128540039062 45.89452362060547 134.35850524902344 47.74928665161133 133.45008850097656 C 48.178131103515625 131.8328094482422 47.79357147216797 131.49017333984375 46.97930145263672 129.53497314453125 C 46.82493209838867 128.0896759033203 45.73664474487305 127.26482391357422 48.28364562988281 127.08198547363281 C 50.260433197021484 129.3811492919922 49.98781204223633 130.58824157714844 49.57866287231445 130.91006469726562 C 49.43680953979492 129.2379913330078 48.87014389038086 127.72067260742188 48.45172119140625 126.32559967041016 C 50.121551513671875 126.17338562011719 51.42497253417969 126.3301773071289 55.99886703491211 124.75792694091797 C 57.76499557495117 124.67607879638672 58.45693588256836 126.08333587646484 58.52450180053711 129.0552520751953 C 55.663063049316406 133.5677947998047 54.93265151977539 135.5006866455078 54.41886520385742 137.55650329589844 C 55.15441131591797 137.81576538085938 56.683067321777344 137.4459228515625 54.55147933959961 135.7849884033203 C 54.685951232910156 135.58428955078125 55.448516845703125 133.81283569335938 55.88471221923828 131.701416015625 C 58.752044677734375 131.26222229003906 59.6214599609375 129.16619873046875 60.705169677734375 127.49177551269531 C 62.67533493041992 126.39036560058594 64.12109375 124.86981964111328 65.9640884399414 123.27035522460938 C 68.998779296875 123.20173645019531 70.83880615234375 121.41709899902344 71.5495834350586 118.28742218017578 C 74.4045181274414 116.1096420288086 76.36992645263672 112.92321014404297 79.0561752319336 113.22220611572266" stroke-width="0.0" fill="rgb(89, 159, 43)" opacity="1.0" stroke="rgb(250, 125, 8)" stroke-opacity="0.95793885" stroke-linecap="round" stroke-linejoin="round"/>
    <path d="M 75.8404312133789 9.505900382995605 C 76.5424575805664 9.195067405700684 77.34170532226562 9.163153648376465 77.87604522705078 9.26854419708252 C 77.99272155761719 9.485758781433105 77.94548034667969 9.453022956848145 78.02017211914062 9.075372695922852 C 78.55809783935547 8.84962272644043 79.99809265136719 8.420641899108887 82.15947723388672 8.009682655334473 C 84.77496337890625 6.092031478881836 86.68048858642578 6.701660633087158 87.18563842773438 10.673184394836426 C 88.16497039794922 14.43851375579834 88.43993377685547 18.46213150024414 87.07685089111328 20.99460220336914 C 83.5729751586914 20.43724250793457 81.17460632324219 21.06100082397461 79.87230682373047 21.24917984008789 C 80.1733627319336 21.080080032348633 82.11978912353516 20.86437225341797 85.13247680664062 20.747406005859375 C 88.2944107055664 20.81467628479004 91.29946899414062 21.434080123901367 93.84062957763672 20.90424919128418 C 94.4910659790039 21.9382381439209 94.78646087646484 22.35591697692871 94.47299194335938 21.837635040283203 C 93.68740844726562 21.202964782714844 94.21817779541016 20.56367301940918 96.26436614990234 19.99930763244629 C 99.34892272949219 20.213438034057617 102.50125885009766 20.140277862548828 106.52640533447266 19.04291534423828 C 107.23018646240234 20.571165084838867 107.07243347167969 22.765098571777344 106.8486099243164 24.49195671081543 C 107.05583190917969 25.881847381591797 106.83271789550781 26.38924789428711 106.81233215332031 25.701242446899414 C 107.17344665527344 23.687959671020508 106.58631896972656 20.875890731811523 107.4290771484375 19.067676544189453 C 111.46556091308594 18.917932510375977 115.45645904541016 19.10832405090332 119.65606689453125 18.99937629699707 C 121.82722473144531 20.240079879760742 122.9291763305664 20.907596588134766 124.20269012451172 20.37384605407715 C 127.33557891845703 20.189802169799805 130.92794799804688 19.282297134399414 131.37042236328125 21.204986572265625 C 130.13340759277344 26.085662841796875 132.9041290283203 30.136205673217773 137.22618103027344 30.597978591918945 C 144.3934783935547 31.38243293762207 147.93275451660156 30.54254150390625 149.25543212890625 26.9406681060791 C 151.51901245117188 24.223064422607422 154.45352172851562 26.112136840820312 158.2103271484375 27.16313362121582 C 162.05239868164062 28.463285446166992 164.8593292236328 29.753957748413086 167.83517456054688 28.9533634185791 C 169.76231384277344 26.04176139831543 171.0392303466797 21.918548583984375 173.0411376953125 17.887666702270508 C 174.26971435546875 14.273338317871094 177.72024536132812 14.38375473022461 180.8741455078125 15.51806354522705 C 181.95458984375 18.328750610351562 180.34861755371094 22.06786346435547 181.00169372558594 26.197093963623047 C 180.7984619140625 28.29218292236328 179.44183349609375 28.112791061401367 180.1590576171875 27.796953201293945 C 181.2949676513672 30.816984176635742 179.8343505859375 35.588558197021484 179.82748413085938 42.34505844116211 C 180.00274658203125 49.51081085205078 179.09933471679688 55.39372634887695 175.94271850585938 55.78636932373047 C 169.3795166015625 45.90000915527344 156.08868408203125 33.604286193847656 137.20236206054688 21.127853393554688 C 110.974365234375 23.10750389099121 103.53372192382812 38.39879608154297 103.95710754394531 81.97772979736328 C 125.27545928955078 99.0589599609375 139.46566772460938 95.65323638916016 153.21261596679688 88.16472625732422 C 165.5220947265625 83.74796295166016 170.4350128173828 74.6675033569336 175.7731475830078 73.0417709350586 C 177.21115112304688 81.51217651367188 174.67845153808594 88.26898956298828 173.8463897705078 95.69142150878906 C 174.76795959472656 98.07379150390625 169.9247283935547 98.09842681884766 166.27667236328125 98.86376953125 C 162.62315368652344 99.62329864501953 159.3724822998047 99.9344711303711 156.90957641601562 100.82659912109375 C 154.88458251953125 101.27982330322266 154.4451141357422 100.76710510253906 154.68272399902344 100.1840591430664 C 154.9918212890625 100.77635955810547 154.44700622558594 101.10527801513672 152.45062255859375 100.96218872070312 C 149.90228271484375 102.05300903320312 146.39813232421875 102.03475952148438 142.61000061035156 101.98095703125 C 139.01718139648438 103.11783599853516 135.37461853027344 102.8770523071289 131.7154998779297 103.01544952392578 C 127.86898803710938 103.51691436767578 124.02826690673828 103.19056701660156 120.64595794677734 102.72103118896484 C 118.9129867553711 101.42781066894531 119.08855438232422 100.78301239013672 119.48320770263672 101.57327270507812 C 119.48150634765625 104.069580078125 117.40109252929688 102.72547149658203 113.90799713134766 101.85394287109375 C 109.13201141357422 102.53113555908203 105.27007293701172 100.63836669921875 100.29859161376953 100.5941390991211 C 98.74690246582031 99.14262390136719 98.96293640136719 97.59651947021484 99.7671890258789 96.58480072021484 C 99.36105346679688 97.987060546875 99.48878479003906 100.56134033203125 91.69656372070312 98.71724700927734 C 89.28585052490234 96.92671203613281 87.374755859375 93.06330871582031 88.22594451904297 90.22118377685547 C 87.48020935058594 88.77074432373047 86.21833801269531 87.68292999267578 85.1221694946289 87.73574829101562 C 83.46910095214844 90.04130554199219 80.82020568847656 93.20225524902344 78.37828063964844 94.96774291992188 C 71.32496643066406 91.760009765625 64.69825744628906 90.5133285522461 61.620662689208984 86.54882049560547 C 61.881404876708984 79.94921112060547 63.08246612548828 74.51212310791016 65.35941314697266 70.43608093261719 C 67.17635345458984 68.60929870605469 67.95314025878906 68.4569091796875 66.70951080322266 69.15070343017578 C 65.955322265625 65.3133544921875 64.51490020751953 61.01060104370117 63.9593505859375 55.43149948120117 C 66.02845001220703 52.56634521484375 69.50189971923828 52.666255950927734 73.25615692138672 54.23584747314453 C 75.33123016357422 53.793701171875 76.15852355957031 53.969627380371094 75.84107971191406 53.86273193359375 C 74.40677642822266 54.20467758178711 72.29652404785156 53.9783821105957 69.56262969970703 53.29119110107422 C 67.75641632080078 53.45773696899414 67.9013442993164 49.17865753173828 67.66039276123047 44.477378845214844 C 67.21831512451172 39.41402053833008 66.88460540771484 34.39005661010742 67.79571533203125 29.5856876373291 C 68.68179321289062 25.955135345458984 70.88859558105469 22.871423721313477 72.56715393066406 18.77973747253418 C 73.28922271728516 14.72779655456543 74.56599426269531 10.105122566223145 76.23365783691406 6.502071857452393 C 77.48007202148438 3.4986016750335693 79.33255767822266 2.7911765575408936 82.89513397216797 2.79948091506958 C 86.23274230957031 4.137876033782959 90.18948364257812 6.540194034576416 75.8404312133789 9.505900382995605" stroke-width="0.0" fill="rgb(254, 254, 254)" opacity="0.9996458" stroke="rgb(129, 122, 9)" stroke-opacity="0.37318745" stroke-linecap="round" stroke-linejoin="round"/>
    <path d="M 57.190460205078125 208.163818359375 C 63.81409454345703 209.71697998046875 69.78936004638672 210.94680786132812 74.64257049560547 211.95330810546875 C 78.14826202392578 212.71141052246094 80.33526611328125 213.2901611328125 81.3191146850586 213.9418487548828 C 81.35148620605469 214.85195922851562 80.67382049560547 215.98312377929688 79.5589370727539 217.31765747070312 C 78.30572509765625 218.71656799316406 77.11428833007812 220.00857543945312 76.08683776855469 221.12449645996094 C 75.37275695800781 221.88864135742188 74.86500549316406 222.15811157226562 74.58929443359375 221.76502990722656 C 74.47809600830078 220.9432373046875 74.54833221435547 220.11050415039062 74.89976501464844 219.4123992919922 C 75.61048889160156 219.12147521972656 76.71572875976562 219.28924560546875 78.14785766601562 220.00894165039062 C 79.79373931884766 221.23301696777344 80.81881713867188 222.7614288330078 81.79691314697266 224.2399444580078 C 82.5082778930664 226.14935302734375 83.1758804321289 228.2330780029297 83.9090347290039 230.30557250976562 C 83.97391510009766 231.68772888183594 84.33818054199219 232.4319610595703 84.64183044433594 233.4617462158203 C 85.0381851196289 234.72525024414062 85.07461547851562 236.0850830078125 85.12352752685547 236.51296997070312 C 85.02715301513672 236.304931640625 85.31236267089844 236.5262451171875 85.4986801147461 237.82107543945312 C 86.14331817626953 239.77334594726562 85.76592254638672 242.22691345214844 86.40652465820312 243.9517059326172 C 86.71465301513672 245.5709228515625 86.82328033447266 246.0130157470703 86.8492431640625 245.8509063720703 C 86.6798095703125 245.18325805664062 86.62510681152344 245.72935485839844 86.9941177368164 247.94195556640625 C 86.95830535888672 251.14541625976562 87.02188110351562 254.50965881347656 87.70974731445312 258.0479736328125 C 87.53512573242188 259.5419616699219 86.4107437133789 259.3620300292969 85.03056335449219 259.33056640625 C 84.89090728759766 259.3473815917969 85.98783874511719 259.4586181640625 87.64058685302734 259.16082763671875 C 88.01557159423828 259.636474609375 87.65908813476562 260.7848205566406 87.26219940185547 261.3147888183594 C 88.35411834716797 261.84576416015625 87.84812927246094 263.4410095214844 85.66311645507812 269.75616455078125 C 85.24734497070312 296.6947937011719 87.22612762451172 318.0715637207031 83.42837524414062 311.45672607421875 C 83.9443588256836 279.8327941894531 82.89527893066406 267.62066650390625 83.53762817382812 267.4449157714844 C 83.07402801513672 269.2085266113281 83.33814239501953 269.4072570800781 84.80033111572266 269.17999267578125 C 85.54513549804688 269.3551025390625 84.431640625 268.9551696777344 81.83554077148438 269.5907287597656 C 77.65505981445312 271.9176940917969 72.14016723632812 269.861572265625 69.28081512451172 274.7206726074219 C 71.07300567626953 283.7063293457031 70.19255828857422 306.4620666503906 72.82482147216797 317.84259033203125 C 74.69020080566406 291.1922607421875 70.80327606201172 272.3152160644531 70.92344665527344 272.96051025390625 C 66.9629898071289 276.742431640625 70.48066711425781 271.69085693359375 68.13667297363281 270.76971435546875 C 64.47357177734375 269.1050109863281 64.24713897705078 265.4355163574219 64.24789428710938 262.61749267578125 C 65.21539306640625 261.90057373046875 66.01998138427734 261.8293762207031 66.21839141845703 261.8091735839844 C 65.7122802734375 261.8518371582031 65.09675598144531 262.0613098144531 64.5974349975586 262.3396911621094 C 64.21118927001953 262.6585693359375 64.39234924316406 262.2159423828125 64.48855590820312 260.822509765625 C 64.58200073242188 258.6987609863281 64.61329650878906 256.5000305175781 64.53739166259766 254.9213409423828 C 65.41771697998047 254.207275390625 66.90986633300781 253.85008239746094 67.34306335449219 253.65570068359375 C 66.5193099975586 253.7956085205078 65.40984344482422 254.51866149902344 64.53323364257812 254.7593536376953 C 64.54202270507812 252.76856994628906 64.62443542480469 249.3670654296875 63.97480392456055 246.47283935546875 C 64.13268280029297 245.94862365722656 64.23124694824219 247.3164825439453 65.58607482910156 247.24134826660156 C 68.22779846191406 247.03509521484375 69.48076629638672 246.56968688964844 69.691650390625 246.0879364013672 C 69.78839111328125 246.30039978027344 68.411865234375 247.27011108398438 64.58570861816406 247.21315002441406 C 63.34092712402344 244.8692169189453 64.76556396484375 239.2469940185547 62.834041595458984 233.50637817382812 C 64.01274871826172 231.97879028320312 65.7552261352539 231.4221649169922 67.20771789550781 230.63092041015625 C 67.69422149658203 230.65748596191406 65.70683288574219 230.88548278808594 63.07685470581055 233.15516662597656 C 62.542964935302734 232.0874786376953 62.401031494140625 228.69105529785156 60.460445404052734 225.0435791015625 C 59.214839935302734 223.50704956054688 60.2076301574707 223.6961669921875 61.7963981628418 225.3872833251953 C 62.75327682495117 225.54598999023438 63.028892517089844 225.4190673828125 62.613590240478516 225.45999145507812 C 61.8102912902832 225.41676330566406 60.94809341430664 225.24595642089844 60.69912338256836 225.141845703125 C 61.59856033325195 225.3099822998047 62.35679626464844 225.81301879882812 61.1268310546875 224.74197387695312 C 55.39313507080078 219.8870849609375 45.9284553527832 212.8568878173828 57.190460205078125 208.163818359375" stroke-width="0.0" fill="rgb(0, 84, 211)" opacity="1.0" stroke="rgb(58, 14, 102)" stroke-opacity="0.18668409" stroke-linecap="round" stroke-linejoin="round"/>
    <path d="M 54.56072998046875 367.6033020019531 C 61.500823974609375 374.31793212890625 67.76436614990234 372.5080871582031 70.40205383300781 372.6248474121094 C 67.05379486083984 373.50250244140625 64.54347229003906 373.5909729003906 64.13346099853516 374.4675598144531 C 65.39813232421875 372.5831298828125 72.0136489868164 374.2550048828125 79.40373992919922 368.09417724609375 C 83.5713119506836 354.4302978515625 85.85254669189453 368.16729736328125 75.24095153808594 372.8671569824219 C 71.46961212158203 373.8173522949219 72.86180877685547 374.9894104003906 72.67406463623047 375.46435546875 C 72.5512466430664 377.392822265625 72.87389373779297 378.7867126464844 73.14305877685547 380.26068115234375 C 74.0943832397461 382.1465148925781 77.62330627441406 383.8656005859375 80.75543212890625 385.4918212890625 C 81.62467193603516 386.29656982421875 80.97782135009766 385.4082336425781 79.86006927490234 385.0834655761719 C 81.26734161376953 385.9526062011719 84.74341583251953 387.5642395019531 87.68775177001953 389.3785400390625 C 87.83964538574219 390.1333923339844 87.10428619384766 388.995361328125 85.96002197265625 388.4114990234375 C 86.09486389160156 388.986572265625 88.23392486572266 389.8314208984375 90.3938217163086 391.24267578125 C 90.97065734863281 391.558349609375 90.37125396728516 391.51165771484375 89.36679077148438 390.77752685546875 C 88.89232635498047 389.16314697265625 88.31353759765625 389.08441162109375 89.67191314697266 390.84759521484375 C 94.20763397216797 393.9350891113281 96.50786590576172 397.3855895996094 95.91549682617188 398.876220703125 C 94.2945327758789 401.1773376464844 93.60222625732422 402.3893127441406 93.2979507446289 402.2903137207031 C 92.18748474121094 404.0682373046875 89.68370819091797 405.62054443359375 85.52790069580078 406.0645751953125 C 84.05718231201172 409.79473876953125 84.40292358398438 413.3798522949219 85.71287536621094 415.05419921875 C 86.92926788330078 413.703857421875 87.07217407226562 410.267333984375 85.68968200683594 406.5083923339844 C 81.43807983398438 405.8412170410156 76.48124694824219 404.7362365722656 72.0755615234375 402.00347900390625 C 69.52870178222656 400.69329833984375 69.07614135742188 400.50775146484375 69.43526458740234 400.5426025390625 C 69.64270782470703 400.10699462890625 69.62677764892578 398.9358825683594 69.2041244506836 398.5238342285156 C 69.22946166992188 398.4931640625 69.9842529296875 399.5849609375 69.2646255493164 400.29559326171875 C 67.65692901611328 399.79071044921875 66.92825317382812 398.6816711425781 67.4408950805664 399.2164001464844 C 67.61978149414062 399.0398864746094 65.86079406738281 398.4369812011719 64.13226318359375 397.00225830078125 C 63.317710876464844 396.34173583984375 62.240501403808594 395.5281677246094 60.20504379272461 393.8970031738281 C 58.0440673828125 391.7732849121094 56.70118713378906 389.89630126953125 56.767330169677734 388.0870666503906 C 56.58275604248047 386.51220703125 57.00215148925781 387.3389892578125 59.039066314697266 387.8980712890625 C 60.637550354003906 388.1906433105469 60.43342208862305 388.3459167480469 58.0877799987793 387.55584716796875 C 55.852264404296875 387.5263671875 57.19560241699219 382.7802429199219 58.311195373535156 376.3262634277344 C 59.124942779541016 374.2850646972656 57.98219299316406 374.38702392578125 58.123992919921875 374.711181640625 C 58.74638366699219 375.0241394042969 60.195430755615234 373.4217224121094 57.337703704833984 371.81573486328125 C 48.92224884033203 368.3813171386719 50.893558502197266 351.9227600097656 54.56072998046875 367.6033020019531" stroke-width="0.0" fill="rgb(0, 0, 0)" opacity="0.99991536" stroke="rgb(252, 162, 133)" stroke-opacity="0.44379368" stroke-linecap="round" stroke-linejoin="round"/>
    <path d="M 51.33793258666992 72.97366333007812 C 52.897857666015625 72.9966812133789 53.91545104980469 73.42989349365234 54.37360763549805 73.64191436767578 C 54.240081787109375 73.63488006591797 53.595672607421875 73.45008087158203 52.77311706542969 73.27006530761719 C 52.50926208496094 72.85828399658203 52.87290573120117 72.9634780883789 54.192134857177734 73.36077117919922 C 56.38547134399414 73.9623031616211 59.23736572265625 73.7427978515625 61.040809631347656 74.97846984863281 C 62.45159912109375 74.87368774414062 62.869449615478516 75.48251342773438 62.687713623046875 73.66900634765625 C 64.07861328125 62.218353271484375 66.14352416992188 38.582916259765625 72.64425659179688 6.936892032623291 C 80.04830932617188 -3.850090265274048 73.35023498535156 9.677645683288574 69.72846984863281 38.02039337158203 C 66.84405517578125 58.93162155151367 65.04866027832031 71.90892028808594 64.94571685791016 78.21894836425781 C 63.495235443115234 81.19924926757812 64.20370483398438 84.14075469970703 63.99307632446289 86.83370971679688 C 64.04618072509766 87.76737976074219 63.9702033996582 87.88970947265625 64.01270294189453 87.69445037841797 C 64.05265045166016 87.43025970458984 63.98295974731445 86.99298858642578 64.07233428955078 86.63058471679688 C 64.1607437133789 86.5925064086914 63.88320541381836 87.59569549560547 64.01960754394531 89.31824493408203 C 64.22210693359375 89.8321762084961 63.140621185302734 89.68209075927734 61.345481872558594 89.21009826660156 C 61.536312103271484 90.33293151855469 61.54825973510742 92.10969543457031 61.331260681152344 93.69256591796875 C 61.899173736572266 95.23046875 61.13797378540039 95.68081665039062 60.53170394897461 93.7488021850586 C 60.111297607421875 91.51627349853516 60.70816421508789 91.80643463134766 62.47726058959961 94.61543273925781 C 66.5830078125 96.70487976074219 68.66155242919922 100.47547912597656 71.58465576171875 101.8572006225586 C 71.39793395996094 102.7430191040039 70.31805419921875 102.94702911376953 69.1290283203125 103.273193359375 C 69.31982421875 103.37310791015625 70.346435546875 102.73016357421875 71.5331039428711 102.4854965209961 C 72.82910919189453 104.07977294921875 74.59406280517578 105.00009155273438 74.66343688964844 106.4258041381836 C 73.3988037109375 108.3118667602539 71.9474868774414 109.40220642089844 71.92868041992188 109.68099212646484 C 72.94805145263672 108.56371307373047 73.98646545410156 106.75652313232422 75.58480834960938 107.41510772705078 C 77.70001220703125 110.96074676513672 78.01956939697266 117.57012176513672 79.91964721679688 123.60140228271484 C 75.1880874633789 124.70381927490234 70.3187026977539 125.71321868896484 67.4516372680664 124.33294677734375 C 71.70013427734375 120.36902618408203 73.26659393310547 115.65442657470703 72.53131103515625 111.11450958251953 C 71.7989273071289 109.40029907226562 71.87158966064453 109.13523864746094 71.9614028930664 109.54096221923828 C 72.03926086425781 109.8594741821289 71.83354949951172 109.60918426513672 71.3921890258789 109.07597351074219 C 70.69847106933594 108.49931335449219 69.8226318359375 108.2057113647461 68.7496566772461 108.02823638916016 C 67.73810577392578 107.71498107910156 66.64431762695312 107.1861572265625 65.40656280517578 106.41150665283203 C 64.08312225341797 105.31604766845703 62.51544189453125 104.08106994628906 62.235389709472656 102.13579559326172 C 61.7559814453125 99.90655517578125 61.98466110229492 97.52764129638672 62.48337936401367 95.65264892578125 C 63.507450103759766 95.5824966430664 64.4603271484375 95.68023681640625 64.89188385009766 95.61038970947266 C 64.74906921386719 95.3186264038086 64.24578857421875 95.3536148071289 63.62328338623047 95.19108581542969 C 63.383399963378906 94.27821350097656 63.121238708496094 94.256591796875 62.625823974609375 95.1250991821289 C 61.970462799072266 97.42086029052734 61.55756378173828 100.47807312011719 62.604217529296875 103.4025650024414 C 64.18736267089844 106.0427017211914 66.65030670166016 107.43013763427734 69.2769775390625 108.14356994628906 C 71.67032623291016 108.510009765625 72.66392517089844 110.03960418701172 72.76939392089844 113.38665008544922 C 72.26319122314453 117.53962707519531 71.31998443603516 122.62326049804688 67.17257690429688 122.9363784790039 C 62.339080810546875 124.52766418457031 59.46604919433594 129.9778289794922 56.44506072998047 133.80958557128906 C 53.61996078491211 133.33966064453125 50.055240631103516 129.96873474121094 46.50542449951172 127.25836944580078 C 49.68825149536133 127.31063079833984 53.705928802490234 127.94915008544922 56.49360656738281 126.08796691894531 C 57.387962341308594 123.9288330078125 56.64919662475586 122.30121612548828 56.07302474975586 122.29849243164062 C 58.45243453979492 124.91352844238281 59.313438415527344 129.67257690429688 58.38531494140625 134.84368896484375 C 54.81264877319336 134.4846649169922 48.94761276245117 129.00440979003906 41.389713287353516 123.17198944091797 C 32.56895065307617 129.3793487548828 18.795024871826172 139.09095764160156 8.831649780273438 151.4640350341797 C 4.320104598999023 158.09353637695312 4.458230018615723 158.22164916992188 4.9660844802856445 157.31887817382812 C 3.2871451377868652 162.6981658935547 0.5978417992591858 166.8863067626953 0.7316445708274841 161.4431610107422 C 7.750649929046631 152.19369506835938 3.4054462909698486 143.81314086914062 -1.9663443565368652 142.3995361328125 C -4.444354057312012 144.26441955566406 -2.326911211013794 145.22923278808594 2.3677947521209717 144.03564453125 C 1.2968987226486206 134.23147583007812 1.7751857042312622 123.69359588623047 5.055943012237549 114.64264678955078 C 6.374119281768799 109.9581298828125 7.320740222930908 109.17733764648438 7.040831089019775 109.4415512084961 C 6.6826171875 109.35841369628906 7.328807353973389 108.74292755126953 8.379651069641113 106.15011596679688 C 10.637747764587402 101.50621032714844 13.754794120788574 96.09678649902344 17.065614700317383 92.12553405761719 C 18.26686668395996 91.12329864501953 18.210256576538086 91.5654525756836 17.748432159423828 91.39064025878906 C 18.733318328857422 90.02308654785156 20.768903732299805 87.39801025390625 23.93316650390625 84.64966583251953 C 27.426050186157227 81.98226165771484 29.86880874633789 79.78489685058594 31.13782501220703 79.47401428222656 C 29.942758560180664 80.55201721191406 29.445688247680664 82.59484100341797 29.713743209838867 83.80506134033203 C 29.387693405151367 81.24080657958984 30.503177642822266 78.76850891113281 35.233680725097656 77.0509262084961 C 39.63118362426758 74.75227355957031 43.41848373413086 73.7937240600586 46.00439453125 73.736083984375 C 47.620975494384766 73.25350952148438 48.588104248046875 72.94832611083984 51.33793258666992 72.97366333007812" stroke-width="0.0" fill="rgb(140, 210, 94)" opacity="1.0" stroke="rgb(14, 0, 220)" stroke-opacity="0.16717978" stroke-linecap="round" stroke-linejoin="round"/>
    <path d="M 144.95443725585938 213.46250915527344 C 148.78128051757812 213.89764404296875 152.21412658691406 214.38987731933594 155.0330810546875 214.83544921875 C 157.0615234375 215.15660095214844 158.39210510253906 215.4268798828125 159.02325439453125 215.65196228027344 C 159.0032958984375 215.7801055908203 158.5869598388672 215.67588806152344 157.92611694335938 215.26112365722656 C 157.43521118164062 214.59796142578125 157.36781311035156 213.8640594482422 157.94631958007812 213.3336944580078 C 159.394287109375 213.36500549316406 161.68128967285156 214.11415100097656 164.55233764648438 215.65231323242188 C 167.26300048828125 217.89767456054688 169.1349334716797 220.5606231689453 169.0941619873047 222.91600036621094 C 169.4420166015625 223.47755432128906 169.5326385498047 223.54525756835938 169.78048706054688 224.29769897460938 C 169.97254943847656 226.2997589111328 171.11769104003906 228.02679443359375 171.04141235351562 229.73348999023438 C 171.46495056152344 231.2154083251953 171.96986389160156 231.87799072265625 172.00306701660156 231.70523071289062 C 172.07513427734375 231.36935424804688 172.02978515625 231.711669921875 171.99169921875 233.57342529296875 C 172.71826171875 234.92433166503906 172.95761108398438 236.91116333007812 173.35340881347656 238.76014709472656 C 174.07321166992188 240.12310791015625 174.01715087890625 241.0069580078125 173.99887084960938 241.75860595703125 C 173.99502563476562 242.38682556152344 174.05723571777344 242.4336395263672 173.97850036621094 242.71112060546875 C 174.4200897216797 243.7817840576172 175.23538208007812 245.19052124023438 174.99769592285156 246.9318389892578 C 174.89474487304688 248.25563049316406 175.58103942871094 249.41146850585938 176.03012084960938 250.89723205566406 C 175.95262145996094 252.56588745117188 176.02804565429688 253.3430938720703 176.18035888671875 253.05886840820312 C 176.0196533203125 253.7295684814453 174.34478759765625 255.6956329345703 172.2517852783203 256.8283386230469 C 171.768310546875 257.57452392578125 172.76571655273438 256.61956787109375 173.90443420410156 255.6704559326172 C 174.9303436279297 258.1661071777344 175.28041076660156 257.9128723144531 172.80946350097656 256.4183044433594 C 171.16712951660156 257.83428955078125 174.76016235351562 272.3025817871094 175.01211547851562 302.2930603027344 C 174.41128540039062 328.66802978515625 179.81976318359375 312.3022155761719 175.5416717529297 271.6802062988281 C 174.10406494140625 255.47732543945312 176.21641540527344 255.3030548095703 167.98245239257812 257.97601318359375 C 161.6531982421875 258.51513671875 156.55975341796875 256.4705505371094 156.4210205078125 255.41375732421875 C 160.318603515625 265.07745361328125 162.83763122558594 287.1856994628906 162.5181427001953 319.180908203125 C 167.8072052001953 304.9497375488281 162.78024291992188 273.78179931640625 159.8986358642578 257.7922058105469 C 156.39959716796875 255.29393005371094 154.98617553710938 255.97799682617188 155.61289978027344 256.1614685058594 C 155.9021759033203 255.39524841308594 155.806396484375 253.55551147460938 155.2230682373047 249.70669555664062 C 154.92422485351562 245.3883819580078 154.80897521972656 242.62057495117188 155.29339599609375 243.27772521972656 C 157.66944885253906 244.4475555419922 159.1219482421875 244.23341369628906 159.22755432128906 244.0541534423828 C 158.47311401367188 244.35374450683594 157.0784912109375 244.08987426757812 155.07521057128906 243.17727661132812 C 153.84716796875 240.13914489746094 153.8369140625 238.2568359375 154.0519256591797 237.625 C 154.4413604736328 238.32313537597656 154.08889770507812 237.70079040527344 153.0009307861328 235.74172973632812 C 152.86465454101562 232.6372528076172 153.27403259277344 230.4629669189453 153.2209930419922 229.88980102539062 C 153.1376953125 231.1292724609375 153.1562042236328 233.13278198242188 152.55795288085938 234.01861572265625 C 152.298095703125 232.9727325439453 151.685302734375 230.35574340820312 150.05313110351562 227.5390167236328 C 149.90948486328125 225.7149200439453 147.744873046875 225.28904724121094 144.95443725585938 213.46250915527344" stroke-width="0.0" fill="rgb(0, 84, 211)" opacity="1.0" stroke="rgb(94, 58, 49)" stroke-opacity="0.8766891" stroke-linecap="round" stroke-linejoin="round"/>
    <path d="M 142.83096313476562 350.21282958984375 C 141.9588623046875 362.2818908691406 146.74610900878906 364.6995849609375 154.27731323242188 367.630859375 C 156.09837341308594 368.236083984375 155.5311279296875 367.9960632324219 154.74388122558594 368.0766296386719 C 154.2247772216797 368.1632080078125 152.64089965820312 368.1539001464844 153.2189178466797 368.2303771972656 C 162.15866088867188 367.3053894042969 167.32928466796875 370.80670166015625 171.9345703125 366.2640380859375 C 178.4526824951172 354.417236328125 175.5821075439453 361.37493896484375 162.0623779296875 370.7029724121094 C 162.01068115234375 372.8555908203125 164.4802703857422 373.25054931640625 164.49795532226562 373.7210388183594 C 164.594482421875 373.9823303222656 168.1514434814453 374.9640197753906 172.76742553710938 377.4708251953125 C 174.8552703857422 379.44866943359375 173.84555053710938 379.07196044921875 172.62673950195312 375.64410400390625 C 172.68658447265625 374.0887145996094 172.68792724609375 374.1759948730469 172.65284729003906 375.1905517578125 C 172.83465576171875 377.9477233886719 175.1988525390625 379.4418640136719 176.32595825195312 380.0319519042969 C 175.84446716308594 380.49114990234375 177.2577362060547 380.4969787597656 178.2267608642578 383.2906188964844 C 179.67410278320312 385.1065368652344 178.66445922851562 387.9297180175781 175.37777709960938 390.0896301269531 C 172.20858764648438 391.6990966796875 170.81797790527344 391.4049377441406 171.21971130371094 391.5352783203125 C 170.3064422607422 392.0912170410156 168.1154022216797 392.2384033203125 165.33999633789062 391.04412841796875 C 163.21246337890625 390.98095703125 163.51502990722656 390.7205505371094 164.1448516845703 390.85247802734375 C 163.00416564941406 390.74365234375 160.2989959716797 389.3154602050781 158.07350158691406 388.61541748046875 C 157.9513702392578 388.0041809082031 157.74462890625 387.8743591308594 156.61875915527344 388.0329895019531 C 155.881103515625 387.1846923828125 155.86399841308594 386.85394287109375 156.42071533203125 386.7628173828125 C 156.00950622558594 386.9541015625 155.8894805908203 387.04290771484375 155.03036499023438 387.05126953125 C 152.865234375 385.78460693359375 148.97586059570312 383.68743896484375 145.75146484375 381.5873107910156 C 145.13009643554688 381.4300231933594 145.1372528076172 381.36181640625 145.2625274658203 381.35357666015625 C 145.88502502441406 381.7923889160156 145.6763153076172 381.4139099121094 144.4285125732422 380.7874755859375 C 143.5709686279297 379.59100341796875 141.01931762695312 379.049072265625 140.8896484375 376.61016845703125 C 142.56329345703125 371.0854797363281 144.97604370117188 368.0996398925781 145.4061737060547 367.19952392578125 C 145.70916748046875 366.7763366699219 145.50418090820312 367.0382995605469 145.0574188232422 367.57281494140625 C 144.77371215820312 367.8255920410156 145.04632568359375 367.3035583496094 145.96533203125 366.5839538574219 C 147.9751739501953 364.11541748046875 137.35736083984375 363.04730224609375 142.83096313476562 350.21282958984375" stroke-width="0.0" fill="rgb(0, 0, 0)" opacity="0.99991834" stroke="rgb(238, 160, 3)" stroke-opacity="0.55101615" stroke-linecap="round" stroke-linejoin="round"/>
    <path d="M 29.586772918701172 145.13987731933594 C 35.602962493896484 140.67723083496094 39.01274108886719 138.57638549804688 40.89570999145508 140.00099182128906 C 41.232460021972656 144.39059448242188 40.300254821777344 148.93724060058594 38.83637237548828 153.21820068359375 C 37.47858810424805 156.47633361816406 36.48870849609375 158.50491333007812 36.01541519165039 159.57730102539062 C 36.100887298583984 159.86940002441406 36.46299362182617 159.68931579589844 36.90867614746094 159.6143035888672 C 37.24884796142578 160.03665161132812 37.10860061645508 160.90260314941406 36.28362274169922 162.5919647216797 C 35.32798385620117 165.34033203125 35.571041107177734 168.83180236816406 37.69108200073242 172.5249786376953 C 41.659725189208984 176.97506713867188 46.740760803222656 181.01565551757812 50.34307861328125 184.31649780273438 C 51.672447204589844 186.5823211669922 48.44634246826172 186.03359985351562 40.85279846191406 183.63442993164062 C 30.6101131439209 180.58157348632812 21.70982551574707 175.0639190673828 15.58094310760498 169.12689208984375 C 13.68157958984375 167.0975799560547 14.58384895324707 167.18173217773438 14.696229934692383 167.0767059326172 C 13.298401832580566 167.5457763671875 12.927599906921387 173.7397918701172 24.295625686645508 180.26766967773438 C 43.187286376953125 185.9182586669922 34.26641845703125 188.7353973388672 17.20775604248047 177.81199645996094 C 10.50497055053711 171.25306701660156 12.848414421081543 164.3004608154297 13.809443473815918 162.27838134765625 C 15.412753105163574 163.21115112304688 15.899354934692383 163.34820556640625 15.034399032592773 162.93521118164062 C 13.840303421020508 162.52017211914062 13.314292907714844 161.8274688720703 14.61265754699707 160.7519989013672 C 16.223770141601562 157.83447265625 18.905244827270508 154.13966369628906 21.877748489379883 151.66795349121094 C 22.48603630065918 150.15328979492188 23.01980972290039 151.14707946777344 23.146833419799805 153.35458374023438 C 23.220054626464844 154.36293029785156 23.213939666748047 153.54258728027344 22.934377670288086 151.67681884765625 C 22.479896545410156 150.72894287109375 22.309669494628906 150.98570251464844 29.586772918701172 145.13987731933594" stroke-width="0.0" fill="rgb(89, 159, 43)" opacity="1.0" stroke="rgb(198, 254, 241)" stroke-opacity="0.17988504" stroke-linecap="round" stroke-linejoin="round"/>
    <path d="M 173.83367919921875 105.19778442382812 C 177.83204650878906 111.63664245605469 181.9005889892578 115.9371337890625 183.04251098632812 119.49004364013672 C 182.752685546875 120.84721374511719 184.0404052734375 120.34662628173828 184.00039672851562 122.07275390625 C 184.31263732910156 123.70304870605469 187.97108459472656 125.67742156982422 189.52537536621094 127.87054443359375 C 188.2772979736328 127.1988754272461 186.31346130371094 126.78245544433594 185.17494201660156 127.40925598144531 C 187.25119018554688 126.57329559326172 190.45489501953125 127.01509094238281 194.49932861328125 133.1751708984375 C 195.41139221191406 135.86573791503906 190.8701629638672 130.28623962402344 188.1504669189453 137.18898010253906 C 184.1907501220703 141.6948699951172 184.255859375 143.0279541015625 185.63864135742188 143.87661743164062 C 184.95115661621094 142.6190643310547 184.71530151367188 142.80848693847656 183.73599243164062 144.8309783935547 C 186.4875030517578 146.1732940673828 191.65005493164062 154.77967834472656 201.9445037841797 168.23793029785156 C 197.52084350585938 155.1609344482422 186.22340393066406 146.70916748046875 185.04043579101562 142.5096893310547 C 181.89111328125 147.98968505859375 179.4758758544922 152.06117248535156 178.38851928710938 152.0438995361328 C 178.88475036621094 151.5285186767578 179.83441162109375 151.16952514648438 179.2333221435547 150.97413635253906 C 178.08795166015625 152.90911865234375 175.01890563964844 155.61875915527344 170.71774291992188 157.95541381835938 C 168.93988037109375 158.59181213378906 169.69265747070312 157.06924438476562 170.61126708984375 154.60116577148438 C 171.47952270507812 153.3538360595703 171.8294219970703 153.06704711914062 171.28750610351562 153.67193603515625 C 168.93435668945312 156.0277862548828 168.72634887695312 165.41673278808594 165.0089874267578 185.12457275390625 C 161.6367645263672 189.4513397216797 165.7117156982422 175.93592834472656 167.54632568359375 159.60267639160156 C 168.99891662597656 148.69996643066406 169.51348876953125 142.90655517578125 169.81483459472656 140.65167236328125 C 169.6067657470703 140.28211975097656 169.44805908203125 140.7862548828125 169.42581176757812 141.5819854736328 C 169.90444946289062 142.39862060546875 170.17269897460938 142.97718811035156 170.18109130859375 143.13006591796875 C 169.82440185546875 142.75213623046875 169.8603515625 141.3249969482422 170.0050048828125 138.6832733154297 C 170.49411010742188 135.39581298828125 170.41311645507812 132.44387817382812 171.4672393798828 131.18760681152344 C 173.65052795410156 130.18394470214844 175.1353302001953 129.80154418945312 175.08067321777344 129.98997497558594 C 173.50563049316406 130.01866149902344 171.72312927246094 130.74319458007812 170.63497924804688 132.1448211669922 C 171.00286865234375 133.42767333984375 171.23550415039062 134.23843383789062 171.05747985839844 133.7872314453125 C 170.68556213378906 132.1057586669922 170.9810333251953 129.97000122070312 171.06629943847656 128.1380157470703 C 171.13754272460938 126.99535369873047 171.20944213867188 126.30152893066406 171.50282287597656 125.71470642089844 C 171.56492614746094 124.69841003417969 171.92633056640625 122.90216827392578 171.8941192626953 120.09034729003906 C 173.00704956054688 116.96638488769531 172.04013061523438 111.45235443115234 174.5198516845703 105.21519470214844 C 179.7460174560547 93.0536117553711 174.33029174804688 80.70052337646484 173.83367919921875 105.19778442382812" stroke-width="0.0" fill="rgb(89, 159, 44)" opacity="1.0" stroke="rgb(18, 171, 149)" stroke-opacity="0.7291608" stroke-linecap="round" stroke-linejoin="round"/>
    <path d="M 9.966285705566406 118.11886596679688 C 9.509082794189453 114.72393035888672 7.671178817749023 112.59233093261719 8.044339179992676 111.2988052368164 C 9.403326988220215 110.15855407714844 9.056352615356445 110.18734741210938 8.284221649169922 111.83377838134766 C 9.02234172821045 114.2441177368164 8.806696891784668 115.12005615234375 9.11703872680664 114.21185302734375 C 9.43743896484375 114.61905670166016 11.925332069396973 114.69099426269531 13.49053955078125 115.7344741821289 C 16.015974044799805 116.19938659667969 19.276870727539062 116.7187728881836 22.12356185913086 117.9640884399414 C 24.514406204223633 118.03390502929688 26.08502960205078 117.64128112792969 26.6004581451416 118.96086883544922 C 28.23020362854004 119.04234313964844 29.298351287841797 118.96508026123047 30.159311294555664 118.99893951416016 C 30.867555618286133 118.98729705810547 31.46971893310547 119.01519775390625 32.12489700317383 118.97813415527344 C 32.69860076904297 118.96247100830078 33.24296569824219 119.32017517089844 34.03843307495117 120.00746154785156 C 35.70222473144531 119.77055358886719 39.071754455566406 120.2916030883789 43.19041442871094 119.72014617919922 C 53.22391128540039 114.24674224853516 56.821834564208984 107.03873443603516 59.565574645996094 110.10680389404297 C 58.52813720703125 116.7589340209961 45.97809600830078 120.40926361083984 36.27625274658203 126.31808471679688 C 31.752347946166992 127.56504821777344 30.405624389648438 125.8490219116211 30.494558334350586 124.04253387451172 C 30.374704360961914 123.4486083984375 30.3933162689209 123.98779296875 30.699073791503906 125.40245819091797 C 31.840118408203125 127.12966918945312 33.74415969848633 126.90971374511719 36.45173263549805 126.31865692138672 C 35.93169021606445 127.2746353149414 33.35185241699219 128.7759552001953 30.04819679260254 131.37899780273438 C 26.453731536865234 134.10739135742188 23.73298454284668 136.56004333496094 22.09531021118164 137.74623107910156 C 21.66160011291504 138.339111328125 21.757835388183594 138.21908569335938 21.823745727539062 137.9249267578125 C 21.33728790283203 138.25778198242188 20.71649742126465 139.00799560546875 19.92873764038086 139.70497131347656 C 18.754005432128906 141.03053283691406 18.378904342651367 141.71632385253906 16.67766761779785 140.85610961914062 C 14.747329711914062 141.00083923339844 13.554586410522461 142.1703643798828 12.731627464294434 143.49778747558594 C 11.852090835571289 144.96087646484375 11.053034782409668 146.9161376953125 10.266764640808105 148.919677734375 C 10.395231246948242 149.82115173339844 10.3771333694458 150.0323944091797 10.32553768157959 149.63600158691406 C 11.013032913208008 148.5406494140625 13.012785911560059 146.85789489746094 15.459565162658691 143.966796875 C 18.210365295410156 141.47601318359375 19.110437393188477 141.365966796875 16.278663635253906 140.87696838378906 C 12.960627555847168 141.3216094970703 11.697243690490723 145.42503356933594 9.610655784606934 150.59849548339844 C 5.066710472106934 156.2239532470703 5.139049053192139 158.62142944335938 4.836071968078613 151.80470275878906 C 0.9879915118217468 142.32298278808594 2.0067129135131836 133.2557830810547 2.0588860511779785 126.88143157958984 C 6.730215072631836 127.31845092773438 10.008782386779785 129.174072265625 10.3945894241333 131.4759521484375 C 10.111058235168457 132.5012664794922 10.195788383483887 132.75779724121094 10.386870384216309 131.17552185058594 C 9.638004302978516 129.51504516601562 8.237457275390625 128.49647521972656 6.732654571533203 128.0020294189453 C 5.3926286697387695 127.2976303100586 3.6806278228759766 127.10826873779297 2.42659330368042 126.96006774902344 C 2.8369815349578857 121.1535415649414 4.808398246765137 113.20442962646484 10.103974342346191 102.68240356445312 C 15.775273323059082 95.3185806274414 12.12177848815918 103.35197448730469 8.262120246887207 111.67504119873047 C 10.881824493408203 121.15560913085938 12.322007179260254 126.78585815429688 12.635873794555664 128.83221435546875 C 12.527236938476562 128.20468139648438 12.119172096252441 126.26506042480469 11.480756759643555 123.71329498291016 C 10.862960815429688 121.08955383300781 10.072220802307129 118.64616394042969 9.966285705566406 118.11886596679688" stroke-width="0.0" fill="rgb(89, 159, 43)" opacity="1.0" stroke="rgb(113, 44, 30)" stroke-opacity="0.3190168" stroke-linecap="round" stroke-linejoin="round"/>
    <path d="M 55.44693374633789 114.07740783691406 C 57.29023742675781 113.10711669921875 58.204933166503906 111.76148986816406 59.70387268066406 112.5273208618164 C 62.15589141845703 115.7457504272461 65.75704193115234 120.09008026123047 65.627197265625 126.65569305419922 C 64.4690933227539 134.08985900878906 59.01396560668945 137.7573699951172 54.34946060180664 138.95008850097656 C 52.76683807373047 132.55311584472656 54.875614166259766 129.2416534423828 60.75046157836914 126.14810943603516 C 61.32053756713867 124.43738555908203 57.90922927856445 125.46491241455078 53.84275436401367 128.64093017578125 C 50.25108337402344 130.78021240234375 49.115203857421875 132.2400360107422 49.0008544921875 131.14295959472656 C 49.1672248840332 128.2156524658203 46.73662567138672 126.28060150146484 44.252601623535156 123.41657257080078 C 42.185672760009766 123.61738586425781 41.298301696777344 123.428955078125 43.17215347290039 122.62920379638672 C 45.43721008300781 120.98291778564453 47.9285888671875 119.35126495361328 49.75325393676758 118.0384521484375 C 50.78533935546875 117.65447235107422 50.869041442871094 117.44633483886719 50.59396743774414 117.39795684814453 C 50.87559509277344 117.21350860595703 52.40394973754883 116.6072006225586 54.60858917236328 114.72883605957031 C 58.2745361328125 112.65225219726562 62.40763473510742 110.00104522705078 55.44693374633789 114.07740783691406" stroke-width="0.0" fill="rgb(0, 169, 211)" opacity="0.9996726" stroke="rgb(8, 213, 135)" stroke-opacity="0.6388324" stroke-linecap="round" stroke-linejoin="round"/>
    <path d="M 148.51686096191406 32.53083801269531 C 143.3099822998047 46.62495422363281 136.06959533691406 51.858665466308594 128.2493896484375 51.81739044189453 C 120.09365844726562 52.20868682861328 114.26335144042969 52.194610595703125 111.00386810302734 51.28424835205078 C 110.51104736328125 51.42973709106445 112.9057846069336 51.6959228515625 118.26827239990234 52.12006378173828 C 123.27313232421875 51.96879959106445 128.4474639892578 51.718772888183594 132.85223388671875 51.700218200683594 C 133.376220703125 55.194969177246094 130.42385864257812 57.45989990234375 125.64863586425781 58.67543411254883 C 121.61996459960938 60.23409652709961 119.03582763671875 61.188453674316406 118.42247009277344 61.42253875732422 C 119.59758758544922 60.960205078125 122.24008178710938 59.85828399658203 125.89148712158203 58.72739028930664 C 129.22097778320312 56.90244674682617 131.84902954101562 56.66450881958008 130.9759979248047 58.18628692626953 C 130.33580017089844 61.78044128417969 130.2722625732422 64.52405548095703 130.68374633789062 64.35602569580078 C 129.44883728027344 59.606990814208984 132.05455017089844 51.587459564208984 143.4344940185547 41.989585876464844 C 162.14450073242188 39.118858337402344 169.67672729492188 42.21906280517578 172.9097900390625 54.8078498840332 C 177.2509002685547 68.16478729248047 170.63507080078125 78.92581176757812 156.21009826660156 86.8585205078125 C 141.5568389892578 93.23922729492188 125.38058471679688 92.71720123291016 112.69061279296875 87.28178405761719 C 103.21309661865234 83.0213623046875 99.54145812988281 78.75061798095703 98.47238159179688 76.88209533691406 C 98.70460510253906 76.83655548095703 98.95006561279297 77.39507293701172 99.06542205810547 77.38948822021484 C 98.25653076171875 76.33265686035156 96.5518798828125 74.676025390625 95.37049102783203 71.69762420654297 C 93.90530395507812 69.0567626953125 93.59803009033203 66.89640045166016 93.52523803710938 65.96257019042969 C 93.49479675292969 66.21522521972656 93.45248413085938 66.97270965576172 93.96968078613281 67.44335174560547 C 94.16069793701172 66.49678039550781 93.24175262451172 65.37007141113281 92.95226287841797 64.0309829711914 C 92.96562194824219 61.93747329711914 93.05508422851562 60.35839080810547 92.9498519897461 59.41411590576172 C 91.54354858398438 59.12681198120117 90.25044250488281 59.048484802246094 89.3436279296875 59.14628601074219 C 89.10286712646484 59.196380615234375 89.40022277832031 59.0780029296875 90.12010192871094 59.1431884765625 C 91.07260131835938 59.09560775756836 92.10923767089844 59.23672866821289 92.83504486083984 59.435028076171875 C 93.2957763671875 58.918495178222656 94.05931854248047 58.056636810302734 93.90204620361328 56.360103607177734 C 93.85407257080078 54.673828125 95.36725616455078 52.800048828125 96.41355895996094 50.009910583496094 C 97.74868774414062 48.33111572265625 98.98213958740234 46.84328079223633 99.54927062988281 45.59089660644531 C 100.65770721435547 44.76246643066406 101.07559204101562 43.624114990234375 101.7973403930664 43.89807891845703 C 100.96146392822266 44.95098114013672 100.09161376953125 45.82562255859375 100.11396789550781 45.68519973754883 C 103.91088104248047 42.67306137084961 106.55271911621094 31.550376892089844 148.51686096191406 32.53083801269531" stroke-width="0.0" fill="rgb(254, 219, 197)" opacity="1.0" stroke="rgb(53, 217, 64)" stroke-opacity="0.8919255" stroke-linecap="round" stroke-linejoin="round"/>
    <path d="M 180.5293426513672 121.12053680419922 C 179.47203063964844 119.48770141601562 178.9540557861328 117.8593521118164 178.9289093017578 116.42618560791016 C 178.9219207763672 115.5101089477539 179.03993225097656 115.0606460571289 179.00755310058594 115.39051055908203 C 178.74673461914062 116.5184326171875 178.98916625976562 117.9443359375 179.79002380371094 119.83699035644531 C 180.9976348876953 122.02873992919922 182.50656127929688 124.09241485595703 183.88333129882812 126.60818481445312 C 184.2178497314453 128.15101623535156 183.6498260498047 130.19789123535156 184.5004119873047 131.83685302734375 C 183.17977905273438 132.18948364257812 181.45518493652344 132.35708618164062 179.07968139648438 132.9884490966797 C 176.28350830078125 132.95986938476562 173.7764129638672 133.07614135742188 172.08213806152344 132.89981079101562 C 171.6981658935547 131.6737060546875 173.25091552734375 130.40081787109375 173.05313110351562 128.18557739257812 C 172.9207763671875 125.07917022705078 173.01376342773438 122.49803161621094 173.6880340576172 120.73116302490234 C 174.09364318847656 120.53975677490234 174.54898071289062 122.20991516113281 176.24154663085938 123.79524993896484 C 177.9357452392578 125.5509262084961 179.13282775878906 126.76383209228516 179.4431915283203 127.16680145263672 C 178.87088012695312 126.50375366210938 177.0763702392578 124.75397491455078 174.5297393798828 121.92701721191406 C 173.6502227783203 118.65751647949219 173.91098022460938 114.19292449951172 174.94947814941406 111.18537139892578 C 175.56871032714844 110.78633117675781 177.17433166503906 112.89745330810547 179.61341857910156 116.76158142089844 C 182.471435546875 122.42951202392578 185.14097595214844 128.9010467529297 180.5293426513672 121.12053680419922" stroke-width="0.0" fill="rgb(141, 210, 95)" opacity="1.0" stroke="rgb(169, 104, 123)" stroke-opacity="0.56057084" stroke-linecap="round" stroke-linejoin="round"/>
    <path d="M 158.96145629882812 58.65629577636719 C 161.4827880859375 56.65172576904297 161.94618225097656 57.35246276855469 159.53868103027344 58.26185607910156 C 156.47970581054688 58.48590087890625 156.61940002441406 56.59062194824219 157.3394012451172 54.44522476196289 C 156.73214721679688 54.40904998779297 157.1155242919922 54.571903228759766 159.31451416015625 53.81083679199219 C 161.25640869140625 54.88919448852539 162.48585510253906 56.830078125 158.96145629882812 58.65629577636719" stroke-width="0.0" fill="rgb(1, 0, 0)" opacity="0.9999177" stroke="rgb(218, 186, 179)" stroke-opacity="0.35841602" stroke-linecap="round" stroke-linejoin="round"/>
    <path d="M 115.59415435791016 51.884952545166016 C 114.081298828125 53.62828063964844 113.95795440673828 56.602020263671875 117.8250732421875 56.14471435546875 C 119.05818176269531 52.41398239135742 119.9085693359375 53.411590576171875 118.10057830810547 56.14500427246094 C 117.62715911865234 55.266761779785156 119.84282684326172 53.76639938354492 118.16536712646484 52.500919342041016 C 118.32176971435547 51.811405181884766 120.4805908203125 52.340972900390625 115.59415435791016 51.884952545166016" stroke-width="0.0" fill="rgb(0, 0, 0)" opacity="0.9998965" stroke="rgb(27, 20, 199)" stroke-opacity="0.106971696" stroke-linecap="round" stroke-linejoin="round"/>
    <path d="M 86.43655395507812 -5.910057067871094 C 83.09647369384766 -3.090531826019287 85.47288513183594 0.07348089665174484 87.27210235595703 3.9363694190979004 C 81.19432067871094 1.3843134641647339 78.4700927734375 1.2120254039764404 85.7674560546875 0.9282443523406982 C 86.17959594726562 0.05390635132789612 78.11722564697266 0.12448961287736893 73.64298248291016 9.165966987609863 C 71.65359497070312 2.5425870418548584 79.73411560058594 1.225957989692688 86.43655395507812 -5.910057067871094" stroke-width="0.0" fill="rgb(10, 10, 10)" opacity="0.99978167" stroke="rgb(56, 40, 134)" stroke-opacity="0.8495241" stroke-linecap="round" stroke-linejoin="round"/>
    <path d="M 87.09650421142578 7.36519718170166 C 87.79615783691406 9.900446891784668 89.29234313964844 9.53571605682373 91.33611297607422 9.256983757019043 C 90.26321411132812 9.73970890045166 88.8130111694336 9.261574745178223 87.67501068115234 9.268126487731934 C 89.24829864501953 17.918621063232422 88.20866394042969 23.238637924194336 91.46604919433594 20.191946029663086 C 90.11669158935547 7.21414852142334 84.71807098388672 -7.622222423553467 87.09650421142578 7.36519718170166" stroke-width="0.0" fill="rgb(3, 3, 3)" opacity="0.9998382" stroke="rgb(97, 118, 229)" stroke-opacity="0.5084811" stroke-linecap="round" stroke-linejoin="round"/>
    <path d="M 186.02279663085938 133.33804321289062 C 184.18966674804688 131.9005889892578 183.3723602294922 130.728271484375 184.08956909179688 131.46746826171875 C 185.5342254638672 134.993896484375 183.80885314941406 140.3318634033203 182.9156951904297 144.21408081054688 C 185.9708251953125 140.71730041503906 188.23245239257812 136.552978515625 185.60888671875 132.9744415283203 C 183.8931427001953 129.09934997558594 184.15145874023438 128.60089111328125 185.18841552734375 130.61973571777344 C 186.19406127929688 131.9336395263672 186.44366455078125 130.6479034423828 185.69703674316406 128.49293518066406 C 185.96005249023438 127.18281555175781 187.872314453125 129.19989013671875 192.5899658203125 133.30067443847656 C 199.8353271484375 139.9176025390625 204.88885498046875 149.59149169921875 206.71017456054688 147.6938934326172 C 196.67808532714844 134.61268615722656 190.40960693359375 129.26202392578125 188.43588256835938 127.0356674194336 C 184.8902130126953 124.17828369140625 182.7523651123047 121.10362243652344 182.72357177734375 122.29096221923828 C 184.01895141601562 128.33645629882812 187.11196899414062 134.30770874023438 186.02279663085938 133.33804321289062" stroke-width="0.0" fill="rgb(5, 8, 8)" opacity="0.9998557" stroke="rgb(105, 219, 0)" stroke-opacity="0.28453615" stroke-linecap="round" stroke-linejoin="round"/>
    <path d="M 175.79396057128906 294.34515380859375 C 178.21482849121094 307.7049560546875 177.13934326171875 326.4220275878906 171.2305908203125 346.839599609375 C 168.87387084960938 358.7818603515625 178.02964782714844 359.9202880859375 172.55319213867188 352.6371765136719 C 167.06985473632812 350.1864318847656 169.512939453125 361.2282409667969 161.82745361328125 360.98370361328125 C 161.76165771484375 359.625 174.05165100097656 357.0149841308594 175.79396057128906 294.34515380859375" stroke-width="0.0" fill="rgb(2, 1, 1)" opacity="0.9998065" stroke="rgb(198, 22, 178)" stroke-opacity="0.19661395" stroke-linecap="round" stroke-linejoin="round"/>
    <path d="M 87.85563659667969 265.6654968261719 C 84.9103775024414 269.1512451171875 82.18810272216797 270.78961181640625 81.64229583740234 271.43255615234375 C 82.22953033447266 270.85821533203125 82.89055633544922 270.0158386230469 83.06551361083984 271.003173828125 C 82.95964050292969 274.83843994140625 83.08848571777344 279.64276123046875 83.14080810546875 284.1542663574219 C 83.47581481933594 286.9544677734375 82.87117767333984 287.7341613769531 82.13214111328125 287.6969909667969 C 84.33280181884766 287.9982604980469 86.22773742675781 286.9728088378906 86.91605377197266 283.2947082519531 C 87.71378326416016 279.6578674316406 88.51079559326172 277.1099853515625 88.67157745361328 276.938720703125 C 87.97093963623047 278.82421875 86.60670471191406 283.99066162109375 85.67935180664062 287.1291809082031 C 86.29312896728516 284.6623840332031 85.85707092285156 278.5066833496094 85.81571197509766 271.8722229003906 C 86.32939910888672 268.06024169921875 85.96794128417969 267.6671142578125 83.3720703125 269.4080505371094 C 75.4273452758789 271.8010559082031 66.64801788330078 273.4572448730469 87.85563659667969 265.6654968261719" stroke-width="0.0" fill="rgb(104, 104, 104)" opacity="0.99989" stroke="rgb(182, 94, 244)" stroke-opacity="0.22858915" stroke-linecap="round" stroke-linejoin="round"/>
    <path d="M 10.080584526062012 148.00051879882812 C -0.5012610554695129 157.3944854736328 -2.345160722732544 174.25299072265625 10.26740550994873 185.64016723632812 C 7.543104648590088 187.10557556152344 2.373405694961548 179.26217651367188 -0.5664918422698975 171.9185791015625 C -4.1031975746154785 169.42529296875 -7.270717144012451 169.9709014892578 -9.117941856384277 171.31858825683594 C -8.606612205505371 173.1185302734375 -4.856093883514404 175.97830200195312 10.080584526062012 148.00051879882812" stroke-width="0.0" fill="rgb(87, 79, 74)" opacity="0.9999822" stroke="rgb(160, 213, 60)" stroke-opacity="0.7605062" stroke-linecap="round" stroke-linejoin="round"/>
    <path d="M 82.03839874267578 323.0 C 82.19200134277344 323.0 82.4800033569336 323.0 82.80000305175781 323.0 C 83.0 323.0 84.0 323.0 84.0 324.0 C 84.0 325.0 83.0 325.0 82.0 325.0 C 82.0 324.0 82.0 323.0 82.03839874267578 323.0" stroke-width="0.0" fill="rgb(104, 99, 95)" opacity="1.0" stroke="rgb(12, 148, 108)" stroke-opacity="0.46067494" stroke-linecap="round" stroke-linejoin="round"/>
    <path d="M 81.03839874267578 331.0 C 81.19200134277344 331.0 81.4800033569336 331.0 81.80000305175781 331.0 C 82.0 331.0 83.0 331.0 83.0 332.0 C 83.0 333.0 82.0 333.0 81.0 333.0 C 81.0 332.0 81.0 331.0 81.03839874267578 331.0" stroke-width="0.0" fill="rgb(0, 0, 0)" opacity="1.0" stroke="rgb(200, 46, 242)" stroke-opacity="0.12190163" stroke-linecap="round" stroke-linejoin="round"/>
    <path d="M 160.0384063720703 328.0 C 160.19200134277344 328.0 160.47999572753906 328.0 160.8000030517578 328.0 C 161.0 328.0 162.0 328.0 162.0 329.0 C 162.0 330.0 161.0 330.0 160.0 330.0 C 160.0 329.0 160.0 328.0 160.0384063720703 328.0" stroke-width="0.0" fill="rgb(134, 125, 118)" opacity="1.0" stroke="rgb(81, 196, 33)" stroke-opacity="0.92991275" stroke-linecap="round" stroke-linejoin="round"/>
    <path d="M 220.00611877441406 183.0 C 220.04283142089844 183.0 220.14993286132812 183.0 220.349853515625 183.0 C 220.61224365234375 183.0 220.85714721679688 183.0 221.0 183.0 C 221.0 184.0 221.0 185.0 220.0 185.0 C 220.0 184.0 220.0 183.0 220.00611877441406 183.0" stroke-width="0.0" fill="rgb(77, 72, 68)" opacity="1.0" stroke="rgb(114, 197, 190)" stroke-opacity="0.58147126" stroke-linecap="round" stroke-linejoin="round"/>
  </g>
</svg>
