<?xml version="1.0" ?>
<svg xmlns="http://www.w3.org/2000/svg" version="1.1" width="222" height="406">
  <defs/>
  <g>
    <path d="M -7.555523872375488 -8.427815437316895 C 5.926962852478027 -10.978248596191406 19.048507690429688 -12.576379776000977 30.84368324279785 -12.207040786743164 C 40.0622444152832 -9.747291564941406 45.69537353515625 -5.594064712524414 47.2675895690918 -1.2727973461151123 C 46.43198013305664 0.9031004309654236 47.27607727050781 0.18649235367774963 51.84197998046875 -2.919525146484375 C 60.13683319091797 -5.848726749420166 70.89952850341797 -7.111884117126465 82.77750396728516 -6.1136603355407715 C 93.99018859863281 -5.191226959228516 103.51215362548828 -5.130349159240723 110.5261459350586 -6.139302730560303 C 115.04227447509766 -7.482613563537598 118.06185913085938 -8.263233184814453 120.99071502685547 -8.271635055541992 C 124.97679138183594 -8.049482345581055 130.1974639892578 -7.353704929351807 136.418212890625 -6.386155128479004 C 143.51278686523438 -5.51080322265625 151.09585571289062 -5.016751766204834 159.02679443359375 -5.380248546600342 C 167.26206970214844 -6.636904239654541 175.80206298828125 -8.37685775756836 184.6730194091797 -9.837751388549805 C 193.70498657226562 -10.477256774902344 202.57469177246094 -9.92948055267334 210.9175567626953 -8.026907920837402 C 218.295654296875 -4.676264762878418 224.28012084960938 0.09077268093824387 228.60093688964844 5.9942240715026855 C 231.338134765625 12.780619621276855 232.49136352539062 20.14958381652832 232.48936462402344 27.827882766723633 C 232.15660095214844 35.57603073120117 231.8728790283203 43.275611877441406 231.7333526611328 50.820213317871094 C 231.70111083984375 58.16868209838867 231.73333740234375 65.37782287597656 231.7733612060547 72.36888885498047 C 231.7741241455078 79.1980209350586 231.77891540527344 86.00499725341797 231.79798889160156 92.77474212646484 C 231.7379913330078 99.656005859375 231.6162567138672 106.69883728027344 231.67239379882812 113.87936401367188 C 232.05886840820312 121.22834777832031 232.36485290527344 128.73426818847656 232.30868530273438 136.3881072998047 C 231.7079620361328 144.08224487304688 230.62918090820312 151.68585205078125 229.34310913085938 159.18948364257812 C 228.25930786132812 166.58583068847656 228.00775146484375 173.73301696777344 228.9257354736328 180.61798095703125 C 230.48606872558594 187.3496551513672 231.8459014892578 193.84805297851562 232.6429901123047 200.17271423339844 C 232.6530303955078 206.52684020996094 232.18621826171875 212.9424591064453 231.71693420410156 219.3645477294922 C 231.5938262939453 225.9364776611328 231.6829376220703 232.7338409423828 231.78387451171875 239.63990783691406 C 231.79293823242188 246.58204650878906 231.77291870117188 253.68490600585938 231.76698303222656 260.873291015625 C 231.76930236816406 268.0310974121094 231.770263671875 275.17913818359375 231.7697296142578 282.3081970214844 C 231.76951599121094 289.3500061035156 231.7698516845703 296.2889709472656 231.77017211914062 303.1316833496094 C 231.76736450195312 309.898193359375 231.76365661621094 316.6224670410156 231.7748565673828 323.3759765625 C 231.80303955078125 330.1927490234375 231.78115844726562 337.20721435546875 231.6988983154297 344.4621276855469 C 231.64976501464844 352.01495361328125 231.7598876953125 359.92047119140625 232.08529663085938 368.1652526855469 C 232.48605346679688 376.58892822265625 232.50335693359375 385.0194396972656 231.57281494140625 393.1372985839844 C 229.3455047607422 400.4833679199219 225.84532165527344 406.79107666015625 221.15261840820312 411.7525939941406 C 215.40672302246094 414.92156982421875 208.83741760253906 416.4233703613281 201.6387481689453 416.71295166015625 C 193.8797149658203 416.4064025878906 185.84225463867188 415.95684814453125 177.68701171875 415.6747741699219 C 169.59095764160156 415.6526794433594 161.6546173095703 415.72222900390625 154.021728515625 415.7536926269531 C 146.7395477294922 415.7611999511719 139.82273864746094 415.8076477050781 133.2899169921875 415.8875427246094 C 127.0267562866211 415.9388732910156 120.9327392578125 415.9160461425781 115.00444030761719 415.8080139160156 C 109.09123992919922 415.48175048828125 103.1587905883789 414.75445556640625 97.05996704101562 413.49505615234375 C 90.70160675048828 411.6299743652344 83.93441772460938 410.70489501953125 76.59087371826172 411.17144775390625 C 68.6748046875 412.6021423339844 60.22514724731445 414.2898864746094 51.43819808959961 415.63079833984375 C 42.48307800292969 416.35528564453125 33.53778076171875 416.7250061035156 24.884767532348633 416.97711181640625 C 16.833515167236328 416.8220520019531 9.657090187072754 415.6114196777344 3.609551191329956 412.6595764160156 C -1.0314955711364746 407.56671142578125 -4.237705707550049 400.5474548339844 -6.102534294128418 392.2585144042969 C -6.99703311920166 383.439208984375 -7.2621073722839355 374.9682312011719 -7.387897968292236 367.6826171875 C -7.7051849365234375 361.5655212402344 -7.888623237609863 355.8983154296875 -7.682060718536377 349.92779541015625 C -7.035590648651123 343.0890808105469 -6.401515960693359 335.1615905761719 -6.278298854827881 326.25048828125 C -6.823014259338379 316.63409423828125 -7.524435997009277 307.2007751464844 -7.800525665283203 298.727294921875 C -7.242608547210693 292.0007019042969 -6.6069183349609375 286.6112060546875 -6.805209636688232 281.22674560546875 C -8.209107398986816 274.8087158203125 -9.555892944335938 267.0487976074219 -9.10784912109375 258.2547912597656 C -7.385730743408203 249.15541076660156 -6.108762741088867 240.9119873046875 -5.735985279083252 234.59266662597656 C -5.545957088470459 230.757568359375 -5.4793171882629395 228.7721405029297 -5.548172950744629 227.1353759765625 C -6.523011684417725 223.42916870117188 -8.556578636169434 216.3088836669922 -10.23672103881836 206.38658142089844 C -9.0784273147583 194.78054809570312 -4.81829833984375 183.6210174560547 1.8686360120773315 177.49745178222656 C 7.133646011352539 177.16107177734375 2.0492589473724365 176.99522399902344 -6.374767303466797 173.87181091308594 C -10.244634628295898 165.43955993652344 -10.246118545532227 155.18270874023438 -7.74933385848999 143.77284240722656 C -4.657332420349121 132.66151428222656 -2.964336395263672 122.94255065917969 -3.3682076930999756 115.53177642822266 C -5.218031883239746 109.9951400756836 -6.780543804168701 104.89340209960938 -7.458048343658447 99.15874481201172 C -7.165829658508301 91.97461700439453 -7.134760856628418 83.5643310546875 -8.11685562133789 74.36612701416016 C -9.313612937927246 65.10584259033203 -9.224085807800293 57.11017608642578 -7.340075969696045 51.57023620605469 C -4.8640923500061035 49.278316497802734 -3.837491989135742 48.478553771972656 -4.378896236419678 46.9231071472168 C -5.873322010040283 42.67914962768555 -7.974155426025391 35.65658950805664 -10.48135757446289 26.436922073364258 C -13.251296043395996 15.837472915649414 -16.017911911010742 4.858253479003906 -7.555523872375488 -8.427815437316895" stroke-width="0.0" fill="rgb(234, 229, 225)" opacity="1.0" stroke="rgb(205, 158, 225)" stroke-opacity="0.2682998" stroke-linecap="round" stroke-linejoin="round"/>
    <path d="M 60.55134963989258 88.35948181152344 C 63.248268127441406 89.33562469482422 65.34368133544922 90.28770446777344 67.50105285644531 90.92071533203125 C 68.95608520507812 91.75899505615234 69.74817657470703 92.34258270263672 70.99729919433594 92.06949615478516 C 71.0938720703125 93.24131774902344 72.1595230102539 92.8964614868164 73.34716033935547 92.99336242675781 C 73.40799713134766 94.08556365966797 74.51268768310547 93.8622817993164 75.87505340576172 94.1776351928711 C 77.71186828613281 95.34927368164062 81.1629409790039 95.98523712158203 84.21847534179688 97.11988067626953 C 87.7564468383789 97.98761749267578 91.04934692382812 99.11074829101562 94.08592987060547 99.64471435546875 C 95.92337799072266 100.26016998291016 97.96995544433594 99.9770736694336 98.96224975585938 100.8004150390625 C 99.9292221069336 100.75932312011719 100.43589782714844 101.13235473632812 101.71756744384766 100.98681640625 C 102.57659149169922 101.07231903076172 104.72834014892578 101.99720764160156 108.22113037109375 102.02899169921875 C 111.80026245117188 102.41999053955078 115.3404541015625 103.27140045166016 119.29251098632812 102.92121887207031 C 123.21173095703125 103.61272430419922 124.69157409667969 103.36956024169922 125.25393676757812 101.66777038574219 C 125.36322021484375 98.78006744384766 125.0721206665039 97.16889953613281 124.83938598632812 96.70161437988281 C 124.94499969482422 97.8613510131836 125.91252899169922 98.99337768554688 127.82505798339844 101.4602279663086 C 130.0402069091797 103.56365203857422 133.2453155517578 103.4447250366211 137.9116973876953 102.97232818603516 C 144.8605499267578 103.2342529296875 147.71986389160156 101.807861328125 151.20848083496094 102.01551055908203 C 154.2433319091797 101.37809753417969 157.55685424804688 101.00884246826172 160.55511474609375 100.54624938964844 C 163.9150848388672 99.91692352294922 166.9931640625 98.9307861328125 171.76193237304688 98.50029754638672 C 175.56982421875 96.19924926757812 173.75482177734375 93.47677612304688 176.4053497314453 93.59848022460938 C 176.01731872558594 101.0465316772461 175.83558654785156 102.75936889648438 175.06590270996094 104.97928619384766 C 175.18295288085938 107.29679870605469 174.48101806640625 108.52374267578125 173.60028076171875 110.24114990234375 C 174.06024169921875 112.11668395996094 174.9865264892578 113.81853485107422 176.03948974609375 115.5575942993164 C 177.1313018798828 117.31230163574219 178.21551513671875 119.46376037597656 179.05154418945312 122.0656967163086 C 179.43385314941406 125.2750473022461 179.44749450683594 129.03567504882812 179.10357666015625 133.33163452148438 C 178.5089874267578 137.78445434570312 177.83486938476562 141.9838409423828 177.26939392089844 145.85885620117188 C 176.82351684570312 149.076416015625 176.15139770507812 151.6876220703125 175.14291381835938 153.76675415039062 C 173.57452392578125 155.283447265625 171.74830627441406 156.56275939941406 169.9629364013672 157.84814453125 C 168.4966278076172 159.4475860595703 167.525390625 161.34181213378906 167.48951721191406 163.6433563232422 C 167.25938415527344 165.86297607421875 166.84310913085938 168.109619140625 166.67857360839844 170.2415008544922 C 166.4816436767578 172.27903747558594 165.90382385253906 174.1153106689453 165.29954528808594 175.96530151367188 C 164.72023010253906 177.61668395996094 164.36672973632812 179.12782287597656 164.3617401123047 180.67007446289062 C 164.45909118652344 182.28421020507812 164.3763885498047 183.95950317382812 164.100341796875 185.9576873779297 C 163.53170776367188 188.4451446533203 162.61978149414062 191.46578979492188 161.37474060058594 194.9221649169922 C 160.3271942138672 198.49261474609375 159.451904296875 201.8474884033203 158.4961700439453 204.53961181640625 C 157.81124877929688 206.4326934814453 157.03636169433594 207.68052673339844 155.8340301513672 208.32582092285156 C 153.98736572265625 208.73965454101562 151.31822204589844 208.87525939941406 147.90769958496094 208.8010711669922 C 143.85389709472656 208.93478393554688 139.58819580078125 209.1332244873047 135.48281860351562 209.4523468017578 C 131.6935577392578 209.86953735351562 128.4507598876953 210.2347869873047 125.59764099121094 210.46002197265625 C 123.11975860595703 210.49269104003906 120.69935607910156 210.3284454345703 118.16011047363281 210.0994110107422 C 115.28802490234375 209.93421936035156 112.14282989501953 209.86219787597656 108.71286010742188 209.9357452392578 C 105.04241180419922 210.19284057617188 101.31332397460938 210.40509033203125 97.52446746826172 210.5274200439453 C 93.70256042480469 210.19822692871094 89.82415771484375 209.41964721679688 85.8675308227539 208.29684448242188 C 81.93975830078125 207.1912841796875 78.10063171386719 206.14389038085938 74.43853759765625 205.44491577148438 C 70.91596984863281 205.0447540283203 67.65132904052734 204.9728240966797 64.7658462524414 205.01315307617188 C 62.36016845703125 204.8650665283203 60.49607467651367 204.45108032226562 59.03718948364258 203.70518493652344 C 57.79236602783203 202.69491577148438 56.666561126708984 200.9191436767578 56.23564910888672 197.70118713378906 C 55.5733642578125 194.5760040283203 54.22262191772461 191.68995666503906 51.77294158935547 189.0643768310547 C 49.19275665283203 186.41986083984375 47.05098342895508 183.26234436035156 45.413352966308594 179.75186157226562 C 44.353511810302734 175.929931640625 43.9135856628418 171.94886779785156 43.87522888183594 167.8728790283203 C 44.13725280761719 163.72496032714844 44.372840881347656 159.61279296875 44.66489028930664 155.68833923339844 C 44.704952239990234 152.05917358398438 44.86410140991211 148.84913635253906 45.63258361816406 146.2755126953125 C 47.15879440307617 144.48007202148438 49.45714569091797 143.24363708496094 52.37688446044922 142.16525268554688 C 55.60826873779297 140.95166015625 58.9948844909668 139.38243103027344 62.29364776611328 137.4440460205078 C 65.34719848632812 135.3195343017578 67.96847534179688 133.39100646972656 70.10820007324219 131.8564453125 C 71.6289291381836 130.69879150390625 72.68827819824219 129.7255401611328 73.41798400878906 128.6088409423828 C 74.05056762695312 127.14628601074219 74.4554214477539 125.3676986694336 74.80636596679688 123.24353790283203 C 75.96239471435547 120.46533966064453 75.55889129638672 117.68287658691406 74.55513763427734 114.4654541015625 C 71.403564453125 112.84066772460938 68.74384307861328 111.24658966064453 65.52555847167969 109.87406921386719 C 62.55990982055664 108.27223205566406 60.31972885131836 106.34080505371094 58.76089859008789 104.17343139648438 C 57.88513946533203 101.72750091552734 59.93855285644531 99.12832641601562 59.18314743041992 95.29685974121094 C 58.70193099975586 91.47469329833984 59.68182373046875 88.29996490478516 60.55134963989258 88.35948181152344" stroke-width="0.0" fill="rgb(0, 169, 211)" opacity="1.0" stroke="rgb(137, 48, 94)" stroke-opacity="0.7159321" stroke-linecap="round" stroke-linejoin="round"/>
    <path d="M 58.51788330078125 197.98228454589844 C 59.541648864746094 197.85382080078125 60.5556640625 197.86349487304688 61.5343132019043 198.2860870361328 C 62.2104377746582 198.0339813232422 62.72854995727539 197.9723663330078 62.94706726074219 197.9398651123047 C 62.96251678466797 198.05274963378906 62.76536178588867 198.32127380371094 62.63260269165039 198.6400909423828 C 62.56855392456055 198.94679260253906 62.702327728271484 199.2131805419922 63.015296936035156 199.15882873535156 C 63.52366256713867 199.23101806640625 64.43892669677734 199.16481018066406 65.75923156738281 199.6436309814453 C 67.30474853515625 199.6665802001953 68.86365509033203 200.0040740966797 70.25823211669922 200.19386291503906 C 71.4996566772461 200.1559295654297 72.30369567871094 200.53346252441406 73.22380828857422 201.13247680664062 C 72.96116638183594 201.42723083496094 72.43328094482422 201.44374084472656 71.73729705810547 201.3472900390625 C 71.13443756103516 201.4619140625 70.89659881591797 201.42149353027344 71.11954498291016 201.4443817138672 C 72.19837951660156 201.34768676757812 73.86447143554688 201.22964477539062 75.8753433227539 201.54165649414062 C 77.9015884399414 201.96920776367188 79.74762725830078 202.13035583496094 81.38613891601562 202.0747833251953 C 82.49718475341797 201.7667999267578 83.4337387084961 201.46824645996094 84.2000503540039 201.35316467285156 C 84.95411682128906 201.32562255859375 85.82743835449219 201.55572509765625 86.87303161621094 201.97523498535156 C 87.89501953125 202.4270477294922 89.12439727783203 203.27792358398438 90.32968139648438 203.55718994140625 C 91.45929718017578 202.8369140625 92.04566192626953 202.84889221191406 92.12798309326172 202.6757354736328 C 91.8899154663086 202.33587646484375 91.35552215576172 202.0126495361328 90.84069061279297 201.89764404296875 C 90.5642318725586 202.10287475585938 90.72199249267578 202.4913330078125 91.36079406738281 203.02218627929688 C 92.41583251953125 203.4785919189453 93.76631927490234 203.82449340820312 95.22012329101562 204.0504608154297 C 96.79014587402344 204.15859985351562 98.38786315917969 204.18951416015625 99.82083129882812 204.19039916992188 C 101.0627670288086 204.12661743164062 102.25726318359375 204.1023712158203 103.38432312011719 204.15309143066406 C 104.34976959228516 204.17738342285156 105.18876647949219 204.16510009765625 105.9935073852539 204.1447296142578 C 106.78079986572266 204.09214782714844 107.58710479736328 204.0194549560547 108.53811645507812 203.99588012695312 C 109.63678741455078 204.02093505859375 110.82109069824219 204.0564727783203 112.1051025390625 204.09881591796875 C 113.57039642333984 204.1063690185547 115.21875 204.01690673828125 117.16039276123047 204.5186004638672 C 119.25910949707031 204.49087524414062 121.13109588623047 203.9666290283203 123.04528045654297 203.38906860351562 C 124.84033966064453 203.19158935546875 126.49295806884766 203.08889770507812 128.04615783691406 203.07131958007812 C 129.512939453125 203.13819885253906 130.90274047851562 203.16949462890625 132.3174285888672 203.19216918945312 C 133.82675170898438 203.1051025390625 135.3827362060547 203.0752410888672 137.06240844726562 202.93431091308594 C 138.82960510253906 202.6905975341797 140.59596252441406 202.53402709960938 142.44346618652344 202.4053192138672 C 144.15557861328125 202.3042449951172 145.75448608398438 202.1472625732422 147.1971893310547 201.9912567138672 C 148.59262084960938 201.72544860839844 150.1728057861328 201.47320556640625 151.88327026367188 201.24696350097656 C 153.85340881347656 201.12869262695312 155.7452392578125 201.11373901367188 157.43106079101562 201.49639892578125 C 158.54238891601562 200.84970092773438 159.25975036621094 200.46630859375 159.72946166992188 200.031005859375 C 159.87689208984375 199.33108520507812 160.1838836669922 199.3334503173828 160.80184936523438 200.56533813476562 C 162.00704956054688 203.3314666748047 163.54600524902344 207.17611694335938 165.20852661132812 211.49908447265625 C 166.80526733398438 215.58619689941406 167.9626922607422 218.9627227783203 168.46937561035156 221.4137725830078 C 168.0743865966797 222.87376403808594 166.9932098388672 223.9154815673828 164.78848266601562 224.96875 C 161.75100708007812 225.8019256591797 158.0285186767578 226.1439208984375 153.38931274414062 225.40049743652344 C 149.56106567382812 223.671142578125 146.24664306640625 221.5729522705078 143.7223358154297 220.15057373046875 C 143.1308135986328 219.4215850830078 143.77932739257812 220.02215576171875 144.5444793701172 221.25286865234375 C 144.51455688476562 222.00099182128906 143.35067749023438 222.1454315185547 141.0444793701172 222.0044403076172 C 137.735595703125 222.1471710205078 134.25648498535156 222.26243591308594 131.36671447753906 221.90597534179688 C 129.79986572265625 221.12249755859375 129.3177947998047 220.51602172851562 129.1825714111328 220.38870239257812 C 128.4271697998047 221.01800537109375 127.00047302246094 221.91439819335938 124.72278594970703 222.47947692871094 C 120.70235443115234 222.73622131347656 117.17256927490234 223.14894104003906 113.57266235351562 223.53240966796875 C 110.26055908203125 223.7459259033203 107.49349975585938 223.51812744140625 105.54862213134766 222.8179473876953 C 104.28924560546875 221.89480590820312 103.5005874633789 220.99085998535156 102.90953826904297 220.334716796875 C 102.21508026123047 220.20567321777344 101.33483123779297 220.51307678222656 100.04327392578125 221.2343292236328 C 98.00084686279297 221.99002075195312 95.24043273925781 222.56170654296875 91.6559066772461 223.01499938964844 C 88.19669342041016 223.0415496826172 84.2562255859375 222.973876953125 81.66681671142578 223.0117950439453 C 79.74839782714844 224.86131286621094 78.03665161132812 225.3164520263672 76.84929656982422 225.85289001464844 C 76.05046844482422 227.06643676757812 75.16064453125 227.9483184814453 73.61107635498047 228.1334228515625 C 72.04779815673828 227.52073669433594 70.10372161865234 226.32461547851562 67.98470306396484 224.71432495117188 C 65.78388214111328 222.70021057128906 63.42385482788086 221.1450653076172 60.840476989746094 220.33651733398438 C 57.606449127197266 219.8155975341797 54.912044525146484 218.9866180419922 53.354732513427734 217.071044921875 C 52.03470993041992 214.940673828125 51.47867202758789 212.572998046875 49.4074821472168 209.9702606201172 C 46.29739761352539 207.46142578125 47.542198181152344 206.86219787597656 52.07538604736328 208.09808349609375 C 55.461849212646484 206.6060333251953 51.727054595947266 201.5618133544922 52.387081146240234 200.87054443359375 C 57.637535095214844 203.68621826171875 56.1552619934082 200.694580078125 57.397743225097656 198.40553283691406 C 58.96331024169922 197.8203887939453 59.931114196777344 197.13909912109375 58.51788330078125 197.98228454589844" stroke-width="0.0" fill="rgb(0, 84, 211)" opacity="1.0" stroke="rgb(111, 148, 228)" stroke-opacity="0.94932014" stroke-linecap="round" stroke-linejoin="round"/>
    <path d="M 79.19010925292969 113.39754486083984 C 80.1476821899414 118.3362808227539 81.1964111328125 119.5882568359375 80.98626708984375 121.3536148071289 C 81.56490325927734 123.38038635253906 81.49850463867188 125.18116760253906 81.43386840820312 127.55603790283203 C 81.15367126464844 128.82228088378906 80.97684478759766 130.0985565185547 80.6938247680664 131.37940979003906 C 80.43733978271484 132.37887573242188 79.99638366699219 133.08633422851562 79.90245056152344 133.7544403076172 C 79.49637603759766 134.6270751953125 79.09420776367188 135.5882568359375 78.48483276367188 136.74192810058594 C 77.56777954101562 138.00518798828125 76.55303192138672 139.2240753173828 75.53433990478516 140.4167022705078 C 74.72663879394531 141.37220764160156 74.11653137207031 142.14273071289062 73.74153137207031 142.76480102539062 C 73.4410629272461 143.24246215820312 73.01398468017578 143.66554260253906 72.26363372802734 144.32711791992188 C 71.13448333740234 145.21324157714844 69.50274658203125 146.40966796875 67.55586242675781 147.69825744628906 C 65.5003890991211 148.9896697998047 63.54227066040039 150.0905303955078 61.91144561767578 150.861328125 C 60.866661071777344 151.1792755126953 60.27661895751953 151.14791870117188 60.039180755615234 151.0639190673828 C 59.855804443359375 151.11923217773438 59.61035919189453 151.1732635498047 59.23627471923828 151.3406524658203 C 58.530670166015625 151.56292724609375 57.71415710449219 151.6570281982422 56.70033264160156 151.69407653808594 C 56.719242095947266 152.3596649169922 56.330081939697266 152.6297149658203 55.94195556640625 152.5286102294922 C 55.435176849365234 152.19277954101562 54.832672119140625 151.78945922851562 54.0679931640625 151.747314453125 C 53.23978042602539 152.14828491210938 52.50336456298828 152.94110107421875 51.95229721069336 154.10903930664062 C 51.70163345336914 155.41209411621094 51.60921096801758 156.84007263183594 51.662803649902344 158.3164520263672 C 51.68930435180664 159.7055206298828 51.685951232910156 161.0685577392578 51.68655014038086 162.3428192138672 C 51.67490768432617 163.5223388671875 51.6170768737793 164.7240447998047 51.535526275634766 165.89834594726562 C 51.5144157409668 167.02169799804688 51.5250244140625 167.9651336669922 51.55111312866211 168.6913299560547 C 51.513370513916016 169.25624084472656 51.34453201293945 169.6889190673828 51.162479400634766 170.0935821533203 C 51.043418884277344 170.4334259033203 50.87735366821289 170.8052978515625 50.76178741455078 171.48353576660156 C 50.773590087890625 172.63638305664062 50.78647232055664 174.17518615722656 50.75823974609375 175.9923858642578 C 50.710811614990234 178.0150146484375 50.61705780029297 180.08712768554688 50.31942367553711 182.00335693359375 C 49.82974624633789 183.52835083007812 49.10036087036133 184.4778289794922 48.111083984375 184.8435821533203 C 46.99467849731445 184.68093872070312 46.066776275634766 184.47923278808594 45.2757453918457 184.28390502929688 C 44.746543884277344 184.14056396484375 44.37417221069336 184.01229858398438 43.96711349487305 183.78822326660156 C 43.3016242980957 183.53256225585938 42.28110122680664 183.30845642089844 40.88819885253906 183.00672912597656 C 39.011024475097656 182.40530395507812 36.997310638427734 181.58668518066406 35.05781555175781 180.72726440429688 C 33.52969741821289 179.99998474121094 32.418128967285156 179.36233520507812 31.62605857849121 178.8634796142578 C 30.99951171875 178.59007263183594 30.227428436279297 178.32989501953125 29.321290969848633 177.9522247314453 C 28.2498779296875 177.2913818359375 27.197906494140625 176.30029296875 25.504188537597656 175.53927612304688 C 25.077035903930664 173.9518585205078 25.5253849029541 172.41064453125 26.01983070373535 170.9136199951172 C 26.335416793823242 169.84402465820312 26.58983039855957 169.10545349121094 26.744844436645508 168.77549743652344 C 26.704010009765625 168.86141967773438 26.546045303344727 169.1300048828125 26.554706573486328 169.2335662841797 C 26.696184158325195 168.9679412841797 27.028533935546875 168.0111541748047 27.374134063720703 166.45802307128906 C 27.342056274414062 164.54432678222656 27.29843521118164 162.3062286376953 27.38382911682129 160.2921600341797 C 27.9449462890625 158.5599822998047 27.56859588623047 156.98533630371094 27.000625610351562 155.69784545898438 C 26.43987274169922 154.6446533203125 26.54860496520996 153.6359405517578 27.546342849731445 152.52059936523438 C 28.19245719909668 151.32931518554688 28.676359176635742 149.9906463623047 29.077415466308594 148.73602294921875 C 29.306549072265625 148.1117706298828 29.02652359008789 147.5864715576172 28.689403533935547 147.39866638183594 C 28.453575134277344 147.5184326171875 28.44059181213379 147.76693725585938 28.80350685119629 147.9610137939453 C 29.437002182006836 148.06484985351562 30.322708129882812 147.955322265625 31.298974990844727 147.56288146972656 C 32.145843505859375 146.9876708984375 32.88047790527344 146.31011962890625 33.35060119628906 145.49539184570312 C 33.740047454833984 144.6253204345703 34.234622955322266 143.43560791015625 35.0706672668457 141.9821014404297 C 36.30623245239258 140.1568145751953 38.8692626953125 138.9452667236328 41.396419525146484 137.33607482910156 C 43.619285583496094 135.66049194335938 45.87866973876953 134.34381103515625 47.73611068725586 133.44754028320312 C 48.15998458862305 131.8520965576172 47.783119201660156 131.49871826171875 46.974422454833984 129.547607421875 C 46.86833572387695 128.2588348388672 46.04522705078125 127.48236083984375 48.45326232910156 127.234130859375 C 50.27311325073242 129.4105682373047 50.027950286865234 130.55123901367188 49.558509826660156 130.89393615722656 C 49.40888214111328 129.24563598632812 48.87297058105469 127.71245574951172 48.44529342651367 126.32880401611328 C 50.121551513671875 126.17340850830078 51.42497253417969 126.3301773071289 55.92179489135742 124.80366516113281 C 57.58342361450195 124.80522918701172 58.21112060546875 126.2593765258789 58.2893180847168 129.1238250732422 C 55.73237609863281 133.6603240966797 54.91572570800781 135.50257873535156 54.40467071533203 137.53408813476562 C 55.167945861816406 137.8348846435547 56.67681884765625 137.48081970214844 54.59958267211914 135.82044982910156 C 54.69948196411133 135.59828186035156 55.40632247924805 133.79058837890625 55.96513748168945 131.6361083984375 C 58.78959655761719 131.24261474609375 59.65553283691406 129.21678161621094 60.71657180786133 127.5084457397461 C 62.74818420410156 126.46484375 64.24897766113281 124.99613189697266 66.08712005615234 123.40501403808594 C 69.05867004394531 123.2542724609375 70.91374206542969 121.47897338867188 71.60132598876953 118.32206726074219 C 74.41930389404297 116.15154266357422 76.50927734375 113.06173706054688 79.19010925292969 113.39754486083984" stroke-width="0.0" fill="rgb(89, 159, 43)" opacity="1.0" stroke="rgb(250, 125, 8)" stroke-opacity="0.95793885" stroke-linecap="round" stroke-linejoin="round"/>
    <path d="M 75.63748168945312 9.180530548095703 C 76.49964904785156 9.29842758178711 77.27900695800781 9.4520263671875 77.83309173583984 9.532024383544922 C 78.03560638427734 9.510673522949219 78.00763702392578 9.482699394226074 78.04589080810547 9.186259269714355 C 78.52997589111328 8.539314270019531 79.7819595336914 7.679044723510742 81.93258666992188 6.902324199676514 C 84.20745086669922 6.922327041625977 86.05394744873047 8.320534706115723 87.3133316040039 10.95140266418457 C 88.16252899169922 14.44041633605957 87.981201171875 17.747472763061523 86.26419830322266 20.185182571411133 C 83.56509399414062 21.363948822021484 81.1399154663086 21.68790626525879 79.7748794555664 21.42665672302246 C 80.06900787353516 20.907129287719727 82.02392578125 20.493976593017578 85.04130554199219 20.347686767578125 C 88.34883880615234 20.907379150390625 91.35265350341797 21.389177322387695 93.63689422607422 21.52952766418457 C 94.82002258300781 21.96923065185547 94.98941802978516 22.353195190429688 94.52630615234375 22.304786682128906 C 94.1639633178711 21.65581703186035 94.66549682617188 20.78061294555664 96.4526138305664 20.398014068603516 C 99.28472137451172 20.257984161376953 102.42791748046875 20.135643005371094 105.29805755615234 20.17019271850586 C 106.9869613647461 21.140003204345703 107.54947662353516 22.827600479125977 107.45166015625 24.516132354736328 C 107.26368713378906 25.916059494018555 106.93203735351562 26.411521911621094 106.47191619873047 25.774396896362305 C 106.17774200439453 23.75126075744629 106.53702545166016 21.28206443786621 108.19493103027344 19.406240463256836 C 111.47402954101562 19.018239974975586 115.44627380371094 19.146133422851562 118.99470520019531 19.545326232910156 C 121.19116973876953 20.700946807861328 122.66964721679688 21.374910354614258 124.38822174072266 20.86699104309082 C 127.03380584716797 19.934593200683594 129.8785858154297 19.766883850097656 131.88417053222656 21.411344528198242 C 133.74737548828125 24.758682250976562 136.30935668945312 27.726842880249023 139.94821166992188 29.37409782409668 C 144.16578674316406 30.237821578979492 147.5738525390625 29.769601821899414 149.92994689941406 27.719247817993164 C 152.15304565429688 26.143522262573242 154.90403747558594 26.08603286743164 158.24960327148438 27.188886642456055 C 161.78395080566406 28.736387252807617 164.99417114257812 29.658178329467773 167.85374450683594 28.927886962890625 C 169.7859344482422 26.188739776611328 171.22718811035156 22.14072608947754 172.930419921875 18.012592315673828 C 175.19203186035156 15.093233108520508 177.89125061035156 14.158468246459961 180.2133026123047 15.462318420410156 C 181.04920959472656 18.49126434326172 181.0183563232422 22.23322868347168 180.65432739257812 25.643096923828125 C 179.66319274902344 27.45753288269043 178.88385009765625 27.859682083129883 179.27879333496094 28.422958374023438 C 179.80770874023438 30.83968734741211 179.64236450195312 35.534698486328125 179.5182342529297 42.17139434814453 C 179.97927856445312 49.43067169189453 179.1901092529297 54.41835021972656 175.74856567382812 54.3430290222168 C 169.1680450439453 46.147193908691406 156.6082763671875 33.169525146484375 136.91319274902344 21.1771240234375 C 113.26377868652344 19.63499641418457 106.35222625732422 43.50224304199219 107.62289428710938 83.76187896728516 C 124.5897445678711 101.50035858154297 140.1444854736328 98.61141204833984 153.375 89.20256042480469 C 164.35397338867188 82.06786346435547 171.53140258789062 76.97964477539062 175.38043212890625 76.37326049804688 C 176.17320251464844 81.72300720214844 175.13702392578125 88.85244750976562 173.81488037109375 94.70960998535156 C 172.43814086914062 97.61463928222656 169.92337036132812 98.58251190185547 166.3765411376953 98.89463806152344 C 162.67929077148438 99.64039611816406 159.42178344726562 100.08366394042969 156.81163024902344 100.62389373779297 C 155.14669799804688 100.67584228515625 154.51637268066406 100.31208801269531 154.7012176513672 99.92620086669922 C 154.89866638183594 100.21683502197266 154.29432678222656 100.69514465332031 152.5544891357422 101.01795959472656 C 149.77061462402344 101.5154800415039 146.23086547851562 101.68113708496094 142.39492797851562 101.9630126953125 C 138.82177734375 102.47393798828125 135.308349609375 102.67375183105469 131.73269653320312 103.01721954345703 C 127.85354614257812 103.47846221923828 123.95263671875 103.50397491455078 120.78643798828125 102.60681915283203 C 119.24459075927734 101.21234893798828 119.13594818115234 100.64906311035156 119.09246063232422 101.40036010742188 C 118.40220642089844 102.631591796875 116.55366516113281 102.6815414428711 113.43547058105469 101.7632064819336 C 109.27500915527344 101.55455780029297 104.83406829833984 101.10739135742188 101.2987060546875 100.41337585449219 C 99.71482849121094 98.79821014404297 99.62488555908203 97.11942291259766 99.96277618408203 96.39264678955078 C 99.27201843261719 97.3293228149414 96.9669189453125 98.95561981201172 93.72636413574219 98.98760986328125 C 91.08330535888672 96.40225982666016 89.54624938964844 92.8377456665039 88.97537994384766 90.10103607177734 C 88.0049819946289 88.616455078125 86.53816223144531 87.5120620727539 84.86451721191406 87.5025634765625 C 82.82614135742188 89.61842346191406 79.99850463867188 92.4214859008789 76.06681060791016 93.56320190429688 C 70.75289916992188 92.58782196044922 65.62810516357422 90.09422302246094 62.462188720703125 85.57500457763672 C 61.81494903564453 79.72007751464844 63.01902770996094 74.37350463867188 65.4298095703125 70.4884033203125 C 67.51713562011719 69.05118560791016 68.33243560791016 68.69796752929688 67.45917510986328 68.14213562011719 C 65.58734893798828 65.65682220458984 64.09951782226562 61.51724624633789 64.23279571533203 56.81865310668945 C 66.25222778320312 53.52716827392578 69.83211517333984 52.70394515991211 73.3508071899414 53.44821548461914 C 75.35887908935547 53.58372116088867 76.17523956298828 53.82893371582031 75.85346221923828 54.21063995361328 C 74.45087432861328 54.54624938964844 72.30831146240234 54.518123626708984 69.90245056152344 53.7511100769043 C 68.1535415649414 52.10988998413086 67.4739761352539 49.008087158203125 67.58566284179688 44.582908630371094 C 67.76336669921875 39.451107025146484 67.76317596435547 34.27738952636719 67.92862701416016 29.838666915893555 C 68.85006713867188 26.34699058532715 70.95195770263672 22.8577938079834 73.08329772949219 18.99604034423828 C 73.49681091308594 14.587616920471191 75.00012969970703 10.490938186645508 76.33108520507812 6.622307300567627 C 77.56453704833984 3.672898292541504 79.60697174072266 2.571584939956665 82.60970306396484 2.954580307006836 C 86.19110107421875 4.206764221191406 90.05818939208984 5.820539474487305 75.63748168945312 9.180530548095703" stroke-width="0.0" fill="rgb(254, 254, 254)" opacity="0.9996498" stroke="rgb(129, 122, 9)" stroke-opacity="0.37318745" stroke-linecap="round" stroke-linejoin="round"/>
    <path d="M 57.36484909057617 208.28785705566406 C 63.85670471191406 209.7063751220703 69.79276275634766 210.97128295898438 74.6854019165039 211.96694946289062 C 78.1993179321289 212.7068328857422 80.34754943847656 213.3087615966797 81.31063079833984 213.92706298828125 C 81.364990234375 214.8203125 80.66131591796875 215.95660400390625 79.53809356689453 217.29568481445312 C 78.30653381347656 218.73936462402344 77.09030151367188 220.03436279296875 76.05709075927734 221.1194610595703 C 75.36766815185547 221.90635681152344 74.87654876708984 222.1714324951172 74.61255645751953 221.79722595214844 C 74.46614837646484 220.94198608398438 74.5351791381836 220.08074951171875 74.89177703857422 219.42205810546875 C 75.62127685546875 219.09776306152344 76.71627044677734 219.24603271484375 78.13839721679688 219.99253845214844 C 79.8320083618164 221.23312377929688 80.92430877685547 222.58200073242188 81.7811050415039 224.2044219970703 C 82.42173767089844 226.21621704101562 83.16114807128906 228.24346923828125 83.92324829101562 230.1384735107422 C 83.94561767578125 231.71742248535156 84.30870056152344 232.5016326904297 84.67866516113281 233.36610412597656 C 84.96212005615234 234.74301147460938 85.0699691772461 236.09559631347656 85.06906127929688 236.52523803710938 C 84.90274810791016 236.3954620361328 85.2714614868164 236.68963623046875 85.56930541992188 237.77703857421875 C 86.03166198730469 239.710693359375 85.83197021484375 242.05447387695312 86.33999633789062 244.20480346679688 C 86.75894165039062 245.54701232910156 86.85234069824219 246.11361694335938 86.92962646484375 245.822021484375 C 86.7308578491211 245.0673828125 86.75102233886719 245.5067901611328 87.00209045410156 247.5277557373047 C 86.93801879882812 250.97463989257812 87.01031494140625 254.73187255859375 87.62933349609375 258.0946044921875 C 87.51493072509766 259.29071044921875 86.36366271972656 259.2984924316406 85.0086898803711 259.3022155761719 C 84.85871887207031 259.2091979980469 85.95343017578125 259.33636474609375 87.77642059326172 259.0027160644531 C 88.24707794189453 259.6160888671875 87.5576400756836 260.6786804199219 87.2991943359375 261.4719543457031 C 88.3653793334961 261.6171569824219 87.65855407714844 263.0233154296875 85.5449447631836 270.9687805175781 C 85.43461608886719 294.013916015625 86.99836730957031 312.9380187988281 83.60556030273438 307.2995910644531 C 83.56835174560547 279.446044921875 83.23709106445312 267.4996643066406 83.37123107910156 267.4826965332031 C 83.18412780761719 269.2193908691406 83.50653076171875 269.4768371582031 84.86634063720703 269.27325439453125 C 85.5645751953125 269.3348388671875 84.58721160888672 269.0643310546875 81.84398651123047 269.5910949707031 C 77.90005493164062 271.51141357421875 73.02055358886719 270.584228515625 70.22328186035156 273.0068054199219 C 70.02174377441406 283.82086181640625 70.77005767822266 304.12139892578125 72.87113189697266 313.5938720703125 C 74.17168426513672 290.07830810546875 71.53599548339844 272.7227783203125 70.58280181884766 274.5945129394531 C 67.52840423583984 274.97698974609375 70.27460479736328 271.3400573730469 67.8626480102539 270.67083740234375 C 64.4869384765625 268.7381591796875 63.903953552246094 265.3591003417969 64.28943634033203 262.7391662597656 C 65.24942779541016 261.85223388671875 65.9769287109375 261.8055114746094 66.22794342041016 261.76239013671875 C 65.72283172607422 261.92169189453125 65.14713287353516 262.1625671386719 64.6281967163086 262.29229736328125 C 64.28377532958984 262.5778503417969 64.45655822753906 262.1866455078125 64.46812438964844 260.8355712890625 C 64.55404663085938 258.6901550292969 64.63358306884766 256.4776306152344 64.46834564208984 254.9927215576172 C 65.47942352294922 254.22068786621094 66.92135620117188 253.81240844726562 67.35429382324219 253.66851806640625 C 66.55390930175781 253.82025146484375 65.45510864257812 254.47630310058594 64.46601104736328 254.7319793701172 C 64.56272888183594 252.79702758789062 64.65706634521484 249.41696166992188 63.92847442626953 246.5995330810547 C 64.19356536865234 245.9638671875 64.39707946777344 246.8392791748047 65.69120788574219 247.25775146484375 C 68.26342010498047 246.90048217773438 69.50797271728516 246.55223083496094 69.68132781982422 246.037353515625 C 69.77242279052734 246.0750274658203 68.45514678955078 247.13372802734375 64.82181549072266 247.13027954101562 C 63.229984283447266 244.78172302246094 64.74757385253906 239.05630493164062 62.928466796875 233.36767578125 C 63.99770736694336 231.78347778320312 65.72022247314453 231.37521362304688 67.25740814208984 230.79373168945312 C 67.6944580078125 230.5101318359375 65.92839050292969 230.95094299316406 63.11817169189453 232.8387451171875 C 62.420291900634766 232.13992309570312 62.47667694091797 228.67111206054688 60.434452056884766 225.03514099121094 C 59.369102478027344 223.54693603515625 60.18282699584961 223.9965057373047 61.82645034790039 225.35247802734375 C 62.74383544921875 225.55821228027344 63.05146026611328 225.4561309814453 62.62264633178711 225.43382263183594 C 61.780784606933594 225.46969604492188 60.94147872924805 225.26124572753906 60.67036056518555 225.16880798339844 C 61.59627151489258 225.31787109375 62.4986457824707 225.8361358642578 61.21826934814453 224.70504760742188 C 55.3646240234375 219.9935760498047 45.927223205566406 212.90481567382812 57.36484909057617 208.28785705566406" stroke-width="0.0" fill="rgb(0, 84, 211)" opacity="1.0" stroke="rgb(58, 14, 102)" stroke-opacity="0.18668409" stroke-linecap="round" stroke-linejoin="round"/>
    <path d="M 55.076480865478516 368.4230041503906 C 62.720970153808594 374.1109619140625 67.8953857421875 372.5902404785156 70.00651550292969 372.6520080566406 C 66.9496078491211 373.6719055175781 64.58124542236328 374.05902099609375 64.44865417480469 374.6596984863281 C 65.52656555175781 373.11309814453125 70.8069076538086 374.0050048828125 78.86466979980469 368.7662353515625 C 84.23645782470703 357.03509521484375 84.92955017089844 368.4995422363281 74.67008209228516 373.13641357421875 C 71.3678207397461 374.13653564453125 72.60334777832031 375.1111145019531 72.69512939453125 375.4730224609375 C 72.5724105834961 377.4676208496094 72.69123077392578 378.88336181640625 73.09636688232422 380.214599609375 C 74.15802001953125 382.04254150390625 77.65019989013672 383.8645935058594 80.77323150634766 385.51324462890625 C 81.61290740966797 386.35870361328125 80.81201171875 385.62164306640625 79.72158813476562 385.2550964355469 C 81.39984893798828 385.8454284667969 84.51457977294922 387.6883544921875 87.69987487792969 389.36151123046875 C 87.84290313720703 390.1413879394531 86.9928970336914 389.0516662597656 86.03036499023438 388.42620849609375 C 86.09709930419922 389.02734375 88.08551788330078 389.997802734375 90.41422271728516 391.2597961425781 C 90.95783996582031 391.5916442871094 90.35033416748047 391.6011657714844 89.3832015991211 390.6947937011719 C 88.8271255493164 389.11114501953125 88.34432983398438 388.9586181640625 89.71654510498047 390.8056640625 C 94.23054504394531 394.037353515625 96.52806854248047 397.0583801269531 95.8511962890625 399.2554626464844 C 94.21692657470703 401.10211181640625 93.37679290771484 402.156982421875 93.4291763305664 402.3454895019531 C 92.39573669433594 403.8934631347656 89.4468765258789 405.3575439453125 85.57315826416016 406.3370666503906 C 83.9731674194336 409.80975341796875 84.32760620117188 413.3908386230469 85.72208404541016 415.0797424316406 C 86.99229431152344 413.7420959472656 87.11630249023438 410.2731628417969 85.53005981445312 406.82415771484375 C 81.57544708251953 405.7469177246094 76.46422576904297 404.65020751953125 71.98038482666016 402.0453186035156 C 69.64674377441406 400.5082092285156 69.05235290527344 400.4842224121094 69.24974822998047 400.4601135253906 C 69.65211486816406 400.0803527832031 69.6906967163086 398.9259338378906 69.20270538330078 398.5162048339844 C 69.34141540527344 398.4200744628906 70.02877807617188 399.5067443847656 69.48139953613281 400.322265625 C 67.81718444824219 399.6197814941406 66.84017944335938 398.6555480957031 67.3511962890625 399.2799377441406 C 67.57398223876953 399.1502990722656 66.11410522460938 398.249755859375 64.14117431640625 396.9649963378906 C 63.247398376464844 396.44647216796875 62.22108459472656 395.55743408203125 60.244163513183594 393.836181640625 C 58.00249481201172 391.8428649902344 56.83213424682617 389.86248779296875 56.7603759765625 388.0727844238281 C 56.59748077392578 386.5401916503906 57.059627532958984 387.0401611328125 59.081459045410156 387.83563232421875 C 60.647762298583984 388.1381530761719 60.449214935302734 388.1568298339844 58.30551528930664 387.5989990234375 C 55.916805267333984 387.0257263183594 57.03590774536133 382.4648132324219 58.37688064575195 376.3392333984375 C 58.83150100708008 374.0511474609375 57.90323257446289 374.24273681640625 58.10835647583008 374.9804382324219 C 58.797542572021484 375.34375 59.98617935180664 374.1756591796875 57.68693542480469 372.0833740234375 C 49.82302474975586 368.4809875488281 49.597835540771484 353.7658386230469 55.076480865478516 368.4230041503906" stroke-width="0.0" fill="rgb(0, 0, 0)" opacity="0.99991536" stroke="rgb(252, 162, 133)" stroke-opacity="0.44379368" stroke-linecap="round" stroke-linejoin="round"/>
    <path d="M 51.27248764038086 72.93511199951172 C 52.70115280151367 73.11348724365234 53.834136962890625 73.50399780273438 54.422943115234375 73.63276672363281 C 54.20476150512695 73.7009506225586 53.672760009765625 73.39754486083984 52.90483093261719 73.13905334472656 C 52.4755744934082 72.88990783691406 52.823543548583984 73.01836395263672 54.13201141357422 73.4051513671875 C 56.29286575317383 73.84676361083984 58.92680740356445 73.99718475341797 61.018558502197266 74.89533996582031 C 62.51639938354492 74.9122314453125 62.76731872558594 75.60047912597656 62.644325256347656 73.78459167480469 C 63.98856735229492 62.4931526184082 66.38304901123047 39.437713623046875 71.73030090332031 10.921520233154297 C 77.33665466308594 0.4122125506401062 73.2533187866211 13.53801155090332 69.53910064697266 38.861820220947266 C 66.87741088867188 59.314998626708984 64.99825286865234 71.53923797607422 64.94953918457031 78.14340209960938 C 63.7203483581543 81.79846954345703 64.09381866455078 84.64555358886719 64.0194320678711 86.8523941040039 C 64.15867614746094 87.76036071777344 64.04500579833984 87.85944366455078 64.03581237792969 87.6480712890625 C 64.18187713623047 87.3878173828125 64.1539077758789 87.03804779052734 64.02538299560547 86.58598327636719 C 63.98328399658203 86.53447723388672 64.00784301757812 87.51766204833984 64.02916717529297 89.13858795166016 C 64.00462341308594 90.00762176513672 63.09387969970703 89.8377685546875 61.74423599243164 89.20075988769531 C 61.55119323730469 90.39202880859375 61.39662170410156 92.21733093261719 61.42989730834961 93.5704116821289 C 61.79609298706055 94.84196472167969 61.2425422668457 95.18018341064453 60.465087890625 93.7646255493164 C 59.982177734375 91.92637634277344 60.53635787963867 92.16532135009766 62.64461135864258 94.51229858398438 C 66.20061492919922 97.09219360351562 69.07577514648438 100.05791473388672 71.33797454833984 101.83214569091797 C 71.41346740722656 102.74114227294922 70.31549835205078 102.9727783203125 69.08722686767578 103.34445190429688 C 69.24944305419922 103.38492584228516 70.30081176757812 102.62741088867188 71.5357666015625 102.38314819335938 C 72.92200469970703 104.03829956054688 74.44156646728516 104.94548034667969 74.5893325805664 106.51109313964844 C 73.35396575927734 108.49425506591797 71.88770294189453 109.52120208740234 71.83548736572266 109.66704559326172 C 72.8330307006836 108.49510955810547 73.99903106689453 106.982177734375 75.4151382446289 107.50045013427734 C 77.55158233642578 111.2311019897461 78.73703002929688 117.26980590820312 78.88130187988281 123.17076110839844 C 75.36156463623047 125.20965576171875 70.86055755615234 125.48745727539062 68.86479949951172 124.1886978149414 C 71.46306610107422 119.8414535522461 73.25732421875 114.91939544677734 72.53024291992188 111.09795379638672 C 71.81724548339844 109.23877716064453 71.96143341064453 108.95781707763672 72.17059326171875 109.53914642333984 C 72.02481842041016 109.95167541503906 71.72354125976562 109.7411117553711 71.31841278076172 109.09674072265625 C 70.71133422851562 108.50495147705078 69.74742889404297 108.31243133544922 68.73118591308594 108.02912902832031 C 67.73072814941406 107.7441177368164 66.6712875366211 107.18050384521484 65.42630767822266 106.40518188476562 C 64.0147476196289 105.45476531982422 62.718910217285156 104.07097625732422 62.090423583984375 102.1338882446289 C 61.73933410644531 99.93495178222656 61.95985794067383 97.55663299560547 62.534629821777344 95.78543853759766 C 63.4617805480957 95.57830810546875 64.4957275390625 95.57176208496094 64.93730163574219 95.47402954101562 C 64.7417984008789 95.33758544921875 64.29744720458984 95.40785217285156 63.694252014160156 95.07933044433594 C 63.14323425292969 94.15445709228516 62.98028564453125 94.12583923339844 62.6457405090332 95.05786895751953 C 61.856842041015625 97.28065490722656 61.567378997802734 100.30476379394531 62.56119918823242 103.45731353759766 C 64.3478775024414 105.9504165649414 66.67808532714844 107.40614318847656 69.2293930053711 108.17496490478516 C 71.61988830566406 108.5461654663086 72.7446517944336 110.04707336425781 72.61801147460938 113.26934051513672 C 72.4248275756836 117.62431335449219 71.4369888305664 121.58358001708984 67.62491607666016 122.90206146240234 C 62.47110366821289 125.10102844238281 59.037803649902344 129.82127380371094 56.451072692871094 133.4956817626953 C 53.73828125 133.0734405517578 50.085365295410156 130.04974365234375 46.99472427368164 127.5213623046875 C 49.69014358520508 127.30769348144531 53.65897750854492 127.25944519042969 56.630271911621094 125.92906188964844 C 57.449073791503906 123.94306182861328 56.65815353393555 122.2702407836914 56.23979187011719 122.11378479003906 C 57.922889709472656 124.87740325927734 59.04568099975586 129.77932739257812 58.51791763305664 134.51963806152344 C 55.04147720336914 134.45169067382812 49.0779914855957 129.0396270751953 41.422767639160156 123.31527709960938 C 32.52058792114258 129.1637420654297 19.151470184326172 139.30435180664062 8.634981155395508 151.53140258789062 C 4.361635684967041 158.1931915283203 4.397347927093506 158.2232666015625 5.121554851531982 156.89236450195312 C 4.272660732269287 160.65304565429688 1.682051420211792 164.3782958984375 1.391831398010254 160.46102905273438 C 7.459113597869873 151.6815948486328 3.670950412750244 143.56863403320312 -2.2407612800598145 142.48977661132812 C -4.667700290679932 144.44190979003906 -2.469014883041382 145.49176025390625 2.25339674949646 143.56785583496094 C 1.239813208580017 134.29164123535156 1.7249573469161987 123.31865692138672 5.01479434967041 114.52178192138672 C 6.5921711921691895 110.05146026611328 7.2526350021362305 109.06987762451172 6.975962162017822 109.4156265258789 C 6.782749176025391 109.4720230102539 7.326694011688232 108.76118469238281 8.379453659057617 106.13909149169922 C 10.56345272064209 101.47055053710938 13.804231643676758 96.14886474609375 16.97081184387207 92.17759704589844 C 18.326171875 91.14990234375 18.202726364135742 91.56573486328125 17.760133743286133 91.45081329345703 C 18.652904510498047 89.96215057373047 20.8217830657959 87.47348022460938 23.928878784179688 84.64933776855469 C 27.304445266723633 81.82040405273438 29.9796199798584 79.81061553955078 31.178661346435547 79.47674560546875 C 30.137409210205078 80.65557098388672 29.523818969726562 82.8642349243164 29.76771354675293 83.90522766113281 C 29.44995880126953 81.44004821777344 30.63309097290039 78.76295471191406 35.21107482910156 76.99457550048828 C 39.579471588134766 74.68062591552734 43.42316436767578 73.70590209960938 46.203857421875 73.79574584960938 C 47.67061996459961 73.34551239013672 48.53537368774414 72.92874145507812 51.27248764038086 72.93511199951172" stroke-width="0.0" fill="rgb(140, 210, 94)" opacity="1.0" stroke="rgb(14, 0, 220)" stroke-opacity="0.16717978" stroke-linecap="round" stroke-linejoin="round"/>
    <path d="M 151.0 225.0 C 152.0 225.0 153.0 226.0 154.0 226.0 C 155.0 226.0 156.0 226.0 157.0 226.0 C 158.0 226.0 159.0 226.0 160.0 226.0 C 161.0 226.0 162.0 226.0 163.0 226.0 C 164.0 225.0 165.0 225.0 166.0 225.0 C 167.0 225.0 168.0 225.0 169.0 225.0 C 169.0 226.0 169.0 227.0 170.0 228.0 C 170.0 229.0 170.0 230.0 170.0 231.0 C 171.0 232.0 171.0 233.0 171.0 234.0 C 171.0 235.0 172.0 236.0 172.0 237.0 C 172.0 238.0 172.0 239.0 171.0 239.0 C 170.0 240.0 171.0 241.0 172.0 241.0 C 173.0 241.0 173.0 242.0 173.0 243.0 C 173.0 244.0 174.0 245.0 174.0 246.0 C 174.0 247.0 174.0 248.0 174.0 249.0 C 173.0 249.0 172.0 250.0 173.0 251.0 C 174.0 251.0 175.0 251.0 175.0 252.0 C 175.0 253.0 174.0 254.0 173.0 255.0 C 173.0 256.0 172.0 256.0 171.0 256.0 C 170.0 256.0 170.0 255.0 169.0 254.0 C 168.0 255.0 168.0 256.0 168.0 257.0 C 167.0 257.0 166.0 257.0 165.0 257.0 C 164.0 257.0 163.0 257.0 162.0 257.0 C 161.0 256.0 161.0 255.0 160.0 254.0 C 159.0 255.0 159.0 256.0 158.0 256.0 C 157.0 256.0 156.0 255.0 156.0 254.0 C 156.0 253.0 156.0 252.0 156.0 251.0 C 156.0 250.0 156.0 249.0 155.0 248.0 C 155.0 247.0 155.0 246.0 155.0 245.0 C 155.0 244.0 155.0 243.0 155.0 242.0 C 155.0 241.0 154.0 240.0 154.0 239.0 C 154.0 238.0 154.0 237.0 154.0 236.0 C 153.0 235.0 153.0 234.0 153.0 233.0 C 152.0 232.0 152.0 231.0 152.0 230.0 C 151.0 229.0 151.0 228.0 150.0 227.0 C 150.0 226.0 150.0 225.0 151.0 225.0" stroke-width="0.0" fill="rgb(0, 85, 211)" opacity="1.0" stroke="rgb(94, 58, 49)" stroke-opacity="0.8766891" stroke-linecap="round" stroke-linejoin="round"/>
    <path d="M 148.0 366.0 C 149.0 366.0 150.0 367.0 151.0 367.0 C 152.0 368.0 153.0 368.0 154.0 368.0 C 155.0 368.0 156.0 369.0 157.0 369.0 C 158.0 369.0 159.0 369.0 160.0 369.0 C 160.0 370.0 161.0 371.0 161.0 372.0 C 162.0 373.0 163.0 374.0 164.0 374.0 C 165.0 375.0 166.0 375.0 167.0 376.0 C 168.0 376.0 169.0 377.0 170.0 377.0 C 171.0 378.0 172.0 378.0 173.0 379.0 C 174.0 380.0 175.0 381.0 176.0 382.0 C 177.0 383.0 177.0 384.0 177.0 385.0 C 177.0 386.0 176.0 387.0 175.0 388.0 C 174.0 389.0 173.0 389.0 172.0 390.0 C 171.0 390.0 170.0 390.0 169.0 390.0 C 168.0 390.0 167.0 390.0 166.0 390.0 C 165.0 390.0 164.0 389.0 163.0 389.0 C 162.0 389.0 161.0 388.0 160.0 388.0 C 159.0 387.0 158.0 387.0 157.0 386.0 C 156.0 386.0 155.0 385.0 154.0 385.0 C 153.0 384.0 152.0 384.0 151.0 383.0 C 150.0 383.0 149.0 382.0 148.0 381.0 C 147.0 381.0 146.0 380.0 145.0 380.0 C 144.0 379.0 143.0 378.0 142.0 377.0 C 142.0 376.0 142.0 375.0 142.0 374.0 C 143.0 373.0 143.0 372.0 144.0 371.0 C 144.0 370.0 145.0 369.0 145.0 368.0 C 146.0 367.0 147.0 366.0 148.0 366.0" stroke-width="0.0" fill="rgb(0, 0, 0)" opacity="1.0" stroke="rgb(238, 160, 3)" stroke-opacity="0.55101615" stroke-linecap="round" stroke-linejoin="round"/>
    <path d="M 26.0 149.0 C 27.0 149.0 27.0 150.0 27.0 151.0 C 26.0 152.0 26.0 153.0 25.0 154.0 C 26.0 155.0 26.0 156.0 26.0 157.0 C 26.0 158.0 26.0 159.0 26.0 160.0 C 26.0 161.0 26.0 162.0 26.0 163.0 C 26.0 164.0 26.0 165.0 26.0 166.0 C 26.0 167.0 25.0 168.0 25.0 169.0 C 25.0 170.0 24.0 171.0 24.0 172.0 C 24.0 173.0 24.0 174.0 23.0 174.0 C 22.0 174.0 21.0 173.0 20.0 172.0 C 19.0 171.0 18.0 170.0 17.0 170.0 C 16.0 169.0 15.0 168.0 14.0 167.0 C 13.0 167.0 13.0 166.0 13.0 165.0 C 13.0 164.0 14.0 163.0 14.0 162.0 C 14.0 161.0 15.0 160.0 16.0 159.0 C 16.0 158.0 17.0 157.0 18.0 156.0 C 19.0 155.0 19.0 154.0 20.0 153.0 C 21.0 152.0 22.0 151.0 23.0 150.0 C 24.0 150.0 25.0 149.0 26.0 149.0" stroke-width="0.0" fill="rgb(90, 160, 44)" opacity="1.0" stroke="rgb(198, 254, 241)" stroke-opacity="0.17988504" stroke-linecap="round" stroke-linejoin="round"/>
    <path d="M 175.0 116.0 C 176.0 117.0 176.0 118.0 177.0 119.0 C 177.0 120.0 177.0 121.0 178.0 122.0 C 178.0 123.0 178.0 124.0 178.0 125.0 C 178.0 126.0 178.0 127.0 178.0 128.0 C 178.0 129.0 178.0 130.0 178.0 131.0 C 178.0 132.0 178.0 133.0 178.0 134.0 C 177.0 135.0 177.0 136.0 177.0 137.0 C 177.0 138.0 177.0 139.0 177.0 140.0 C 177.0 141.0 176.0 142.0 176.0 143.0 C 176.0 144.0 176.0 145.0 176.0 146.0 C 176.0 147.0 175.0 148.0 175.0 149.0 C 175.0 150.0 175.0 151.0 174.0 152.0 C 174.0 153.0 174.0 154.0 173.0 155.0 C 172.0 156.0 171.0 156.0 170.0 157.0 C 169.0 157.0 168.0 157.0 168.0 156.0 C 168.0 155.0 168.0 154.0 169.0 153.0 C 169.0 152.0 169.0 151.0 169.0 150.0 C 169.0 149.0 169.0 148.0 169.0 147.0 C 169.0 146.0 169.0 145.0 170.0 144.0 C 170.0 143.0 170.0 142.0 170.0 141.0 C 170.0 140.0 170.0 139.0 170.0 138.0 C 170.0 137.0 170.0 136.0 171.0 135.0 C 171.0 134.0 171.0 133.0 171.0 132.0 C 172.0 132.0 173.0 131.0 173.0 130.0 C 173.0 129.0 172.0 128.0 171.0 128.0 C 171.0 127.0 171.0 126.0 172.0 125.0 C 172.0 124.0 172.0 123.0 173.0 123.0 C 174.0 122.0 174.0 121.0 174.0 120.0 C 173.0 119.0 173.0 118.0 173.0 117.0 C 173.0 116.0 173.0 115.0 175.0 116.0" stroke-width="0.0" fill="rgb(90, 160, 44)" opacity="1.0" stroke="rgb(18, 171, 149)" stroke-opacity="0.7291608" stroke-linecap="round" stroke-linejoin="round"/>
  </g>
</svg>
