<?xml version="1.0" ?>
<svg xmlns="http://www.w3.org/2000/svg" version="1.1" width="222" height="406">
  <defs/>
  <g>
    <path d="M 1.0 0.0 C 6.0 0.0 13.0 0.0 20.0 0.0 C 27.0 0.0 34.0 0.0 41.0 0.0 C 48.0 0.0 55.0 0.0 62.0 0.0 C 69.0 0.0 76.0 0.0 83.0 0.0 C 90.0 0.0 97.0 0.0 104.0 0.0 C 111.0 0.0 118.0 0.0 125.0 0.0 C 132.0 0.0 139.0 0.0 146.0 0.0 C 153.0 0.0 160.0 0.0 167.0 0.0 C 174.0 0.0 181.0 0.0 188.0 0.0 C 195.0 0.0 202.0 0.0 209.0 0.0 C 216.0 0.0 221.0 2.0 221.0 9.0 C 221.0 16.0 221.0 23.0 221.0 30.0 C 221.0 37.0 221.0 44.0 221.0 51.0 C 221.0 58.0 221.0 65.0 221.0 72.0 C 221.0 79.0 221.0 86.0 221.0 93.0 C 221.0 100.0 221.0 107.0 221.0 114.0 C 221.0 121.0 221.0 128.0 221.0 135.0 C 221.0 142.0 221.0 149.0 221.0 156.0 C 221.0 163.0 221.0 170.0 221.0 177.0 C 221.0 184.0 221.0 191.0 221.0 198.0 C 221.0 205.0 221.0 212.0 221.0 219.0 C 221.0 226.0 221.0 233.0 221.0 240.0 C 221.0 247.0 221.0 254.0 221.0 261.0 C 221.0 268.0 221.0 275.0 221.0 282.0 C 221.0 289.0 221.0 296.0 221.0 303.0 C 221.0 310.0 221.0 317.0 221.0 324.0 C 221.0 331.0 221.0 338.0 221.0 345.0 C 221.0 352.0 221.0 359.0 221.0 366.0 C 221.0 373.0 221.0 380.0 221.0 387.0 C 221.0 394.0 221.0 401.0 218.0 405.0 C 211.0 405.0 204.0 405.0 197.0 405.0 C 190.0 405.0 183.0 405.0 176.0 405.0 C 169.0 405.0 162.0 405.0 155.0 405.0 C 148.0 405.0 141.0 405.0 134.0 405.0 C 127.0 405.0 120.0 405.0 113.0 405.0 C 106.0 405.0 99.0 405.0 92.0 405.0 C 85.0 405.0 78.0 405.0 71.0 405.0 C 64.0 405.0 57.0 405.0 50.0 405.0 C 43.0 405.0 36.0 405.0 29.0 405.0 C 22.0 405.0 15.0 405.0 8.0 405.0 C 1.0 405.0 0.0 399.0 0.0 392.0 C 0.0 385.0 0.0 378.0 0.0 371.0 C 0.0 364.0 0.0 357.0 0.0 350.0 C 0.0 343.0 0.0 336.0 0.0 329.0 C 0.0 322.0 0.0 315.0 0.0 308.0 C 0.0 301.0 0.0 294.0 0.0 287.0 C 0.0 280.0 0.0 273.0 0.0 266.0 C 0.0 259.0 0.0 252.0 0.0 245.0 C 0.0 238.0 0.0 231.0 0.0 224.0 C 0.0 217.0 0.0 210.0 0.0 203.0 C 0.0 196.0 0.0 189.0 0.0 182.0 C 0.0 175.0 0.0 168.0 0.0 161.0 C 0.0 154.0 0.0 147.0 0.0 140.0 C 0.0 133.0 0.0 126.0 0.0 119.0 C 0.0 112.0 0.0 105.0 0.0 98.0 C 0.0 91.0 0.0 84.0 0.0 77.0 C 0.0 70.0 0.0 63.0 0.0 56.0 C 0.0 49.0 0.0 42.0 0.0 35.0 C 0.0 28.0 0.0 21.0 0.0 14.0 C 0.0 7.0 0.0 0.0 1.0 0.0" stroke-width="0.0" fill="rgb(234, 229, 225)" opacity="1.0" stroke="rgb(205, 158, 225)" stroke-opacity="0.2682998" stroke-linecap="round" stroke-linejoin="round"/>
    <path d="M 64.0 90.0 C 65.0 90.0 66.0 91.0 67.0 91.0 C 68.0 92.0 69.0 92.0 69.0 93.0 C 69.0 94.0 70.0 95.0 71.0 94.0 C 72.0 94.0 73.0 94.0 74.0 95.0 C 76.0 97.0 79.0 97.0 81.0 96.0 C 84.0 97.0 87.0 98.0 88.0 101.0 C 90.0 99.0 93.0 100.0 96.0 100.0 C 97.0 103.0 99.0 101.0 102.0 101.0 C 103.0 104.0 105.0 102.0 108.0 102.0 C 109.0 104.0 112.0 105.0 114.0 103.0 C 117.0 103.0 120.0 103.0 121.0 105.0 C 124.0 106.0 127.0 106.0 130.0 106.0 C 133.0 106.0 135.0 104.0 137.0 103.0 C 140.0 103.0 143.0 103.0 145.0 105.0 C 147.0 103.0 150.0 102.0 153.0 102.0 C 155.0 103.0 156.0 101.0 159.0 101.0 C 161.0 103.0 162.0 100.0 165.0 100.0 C 168.0 99.0 170.0 100.0 172.0 99.0 C 174.0 98.0 175.0 100.0 172.0 101.0 C 174.0 103.0 174.0 106.0 174.0 109.0 C 173.0 112.0 173.0 115.0 171.0 116.0 C 171.0 119.0 172.0 121.0 172.0 124.0 C 170.0 125.0 169.0 128.0 171.0 130.0 C 170.0 132.0 169.0 135.0 169.0 138.0 C 168.0 141.0 168.0 144.0 168.0 147.0 C 167.0 150.0 167.0 153.0 167.0 156.0 C 168.0 159.0 167.0 161.0 166.0 163.0 C 167.0 165.0 166.0 167.0 164.0 169.0 C 166.0 171.0 166.0 174.0 163.0 175.0 C 165.0 177.0 165.0 180.0 162.0 181.0 C 164.0 183.0 163.0 185.0 162.0 187.0 C 163.0 189.0 162.0 192.0 161.0 194.0 C 160.0 196.0 161.0 198.0 159.0 199.0 C 156.0 200.0 153.0 199.0 150.0 200.0 C 147.0 200.0 144.0 200.0 141.0 201.0 C 138.0 201.0 135.0 201.0 132.0 201.0 C 129.0 202.0 126.0 202.0 123.0 202.0 C 120.0 202.0 117.0 203.0 114.0 203.0 C 111.0 203.0 108.0 203.0 105.0 203.0 C 102.0 203.0 99.0 202.0 96.0 202.0 C 93.0 202.0 90.0 201.0 87.0 202.0 C 84.0 201.0 81.0 201.0 78.0 200.0 C 75.0 200.0 72.0 199.0 69.0 198.0 C 66.0 198.0 63.0 197.0 60.0 196.0 C 57.0 196.0 56.0 197.0 54.0 194.0 C 55.0 191.0 52.0 189.0 49.0 188.0 C 49.0 185.0 51.0 183.0 52.0 180.0 C 52.0 177.0 52.0 174.0 52.0 171.0 C 52.0 168.0 52.0 165.0 53.0 162.0 C 53.0 159.0 53.0 156.0 53.0 153.0 C 56.0 153.0 59.0 152.0 62.0 151.0 C 65.0 150.0 68.0 149.0 71.0 146.0 C 74.0 144.0 76.0 141.0 78.0 138.0 C 80.0 135.0 81.0 132.0 82.0 129.0 C 82.0 126.0 81.0 123.0 80.0 121.0 C 79.0 118.0 78.0 115.0 77.0 112.0 C 75.0 109.0 74.0 106.0 71.0 103.0 C 69.0 100.0 69.0 97.0 66.0 97.0 C 65.0 95.0 63.0 94.0 60.0 94.0 C 61.0 92.0 63.0 90.0 64.0 90.0" stroke-width="0.0" fill="rgb(0, 170, 211)" opacity="1.0" stroke="rgb(137, 48, 94)" stroke-opacity="0.7159321" stroke-linecap="round" stroke-linejoin="round"/>
    <path d="M 58.0 198.0 C 59.0 198.0 60.0 198.0 60.0 199.0 C 60.0 200.0 61.0 201.0 62.0 200.0 C 62.0 199.0 63.0 199.0 64.0 199.0 C 64.0 200.0 64.0 201.0 65.0 202.0 C 66.0 201.0 66.0 200.0 67.0 200.0 C 68.0 200.0 69.0 200.0 70.0 200.0 C 71.0 200.0 72.0 201.0 73.0 201.0 C 74.0 201.0 74.0 202.0 74.0 203.0 C 75.0 204.0 76.0 203.0 76.0 202.0 C 77.0 202.0 78.0 202.0 79.0 202.0 C 80.0 202.0 81.0 202.0 81.0 203.0 C 81.0 204.0 82.0 205.0 83.0 204.0 C 83.0 203.0 84.0 203.0 85.0 203.0 C 86.0 203.0 87.0 203.0 88.0 203.0 C 89.0 203.0 89.0 204.0 89.0 205.0 C 90.0 206.0 91.0 206.0 92.0 206.0 C 93.0 206.0 94.0 205.0 94.0 204.0 C 95.0 204.0 96.0 204.0 97.0 204.0 C 98.0 204.0 99.0 204.0 100.0 204.0 C 101.0 204.0 102.0 204.0 103.0 204.0 C 104.0 204.0 105.0 204.0 106.0 204.0 C 107.0 204.0 108.0 204.0 109.0 204.0 C 110.0 204.0 111.0 204.0 112.0 204.0 C 113.0 204.0 115.0 204.0 117.0 204.0 C 119.0 204.0 121.0 204.0 123.0 204.0 C 125.0 204.0 126.0 205.0 128.0 206.0 C 130.0 206.0 131.0 204.0 132.0 203.0 C 134.0 203.0 136.0 203.0 138.0 203.0 C 140.0 203.0 141.0 205.0 143.0 204.0 C 143.0 202.0 145.0 202.0 147.0 202.0 C 149.0 202.0 151.0 202.0 152.0 204.0 C 154.0 203.0 154.0 201.0 156.0 201.0 C 158.0 201.0 160.0 200.0 161.0 201.0 C 161.0 203.0 161.0 205.0 163.0 205.0 C 163.0 207.0 164.0 209.0 165.0 211.0 C 165.0 213.0 163.0 214.0 163.0 216.0 C 161.0 217.0 159.0 218.0 157.0 218.0 C 155.0 219.0 153.0 219.0 151.0 220.0 C 149.0 220.0 147.0 221.0 145.0 221.0 C 144.0 220.0 142.0 219.0 141.0 221.0 C 139.0 222.0 137.0 222.0 135.0 222.0 C 133.0 222.0 131.0 222.0 130.0 220.0 C 128.0 220.0 126.0 221.0 125.0 222.0 C 123.0 222.0 121.0 222.0 119.0 222.0 C 117.0 222.0 115.0 222.0 113.0 222.0 C 111.0 222.0 109.0 222.0 107.0 222.0 C 105.0 222.0 104.0 221.0 102.0 220.0 C 100.0 220.0 98.0 220.0 96.0 221.0 C 95.0 222.0 93.0 222.0 91.0 222.0 C 89.0 222.0 87.0 222.0 85.0 222.0 C 83.0 222.0 81.0 222.0 79.0 222.0 C 78.0 220.0 76.0 220.0 74.0 219.0 C 72.0 219.0 70.0 219.0 68.0 218.0 C 66.0 218.0 64.0 218.0 62.0 217.0 C 60.0 217.0 58.0 216.0 56.0 216.0 C 54.0 215.0 52.0 214.0 51.0 212.0 C 50.0 210.0 50.0 208.0 52.0 208.0 C 54.0 208.0 56.0 207.0 54.0 206.0 C 54.0 204.0 54.0 202.0 56.0 202.0 C 57.0 200.0 57.0 198.0 58.0 198.0" stroke-width="0.0" fill="rgb(0, 85, 211)" opacity="1.0" stroke="rgb(111, 148, 228)" stroke-opacity="0.94932014" stroke-linecap="round" stroke-linejoin="round"/>
    <path d="M 78.0 124.0 C 79.0 124.0 80.0 124.0 81.0 124.0 C 81.0 125.0 81.0 126.0 81.0 127.0 C 81.0 128.0 81.0 129.0 80.0 130.0 C 80.0 131.0 80.0 132.0 80.0 133.0 C 79.0 134.0 79.0 135.0 78.0 136.0 C 78.0 137.0 77.0 138.0 77.0 139.0 C 76.0 140.0 75.0 141.0 75.0 142.0 C 74.0 143.0 73.0 144.0 72.0 145.0 C 71.0 145.0 70.0 146.0 69.0 147.0 C 68.0 148.0 67.0 148.0 66.0 149.0 C 65.0 149.0 64.0 150.0 63.0 150.0 C 62.0 150.0 61.0 151.0 60.0 151.0 C 59.0 151.0 58.0 151.0 57.0 152.0 C 56.0 152.0 55.0 152.0 54.0 152.0 C 53.0 152.0 52.0 153.0 52.0 154.0 C 52.0 155.0 52.0 156.0 52.0 157.0 C 52.0 158.0 52.0 159.0 52.0 160.0 C 52.0 161.0 52.0 162.0 52.0 163.0 C 51.0 164.0 51.0 165.0 51.0 166.0 C 51.0 167.0 51.0 168.0 51.0 169.0 C 51.0 170.0 51.0 171.0 51.0 172.0 C 51.0 173.0 51.0 174.0 51.0 175.0 C 51.0 176.0 51.0 177.0 51.0 178.0 C 50.0 179.0 50.0 180.0 50.0 181.0 C 50.0 182.0 50.0 183.0 50.0 184.0 C 49.0 184.0 48.0 184.0 47.0 184.0 C 46.0 184.0 45.0 184.0 44.0 184.0 C 43.0 183.0 42.0 183.0 41.0 183.0 C 40.0 182.0 39.0 182.0 38.0 182.0 C 37.0 181.0 36.0 181.0 35.0 181.0 C 34.0 180.0 33.0 180.0 32.0 179.0 C 32.0 178.0 32.0 177.0 32.0 176.0 C 32.0 175.0 32.0 174.0 32.0 173.0 C 32.0 172.0 32.0 171.0 32.0 170.0 C 32.0 169.0 33.0 168.0 33.0 167.0 C 33.0 166.0 33.0 165.0 33.0 164.0 C 33.0 163.0 33.0 162.0 33.0 161.0 C 33.0 160.0 34.0 159.0 34.0 158.0 C 34.0 157.0 34.0 156.0 34.0 155.0 C 35.0 154.0 35.0 153.0 35.0 152.0 C 35.0 151.0 36.0 150.0 36.0 149.0 C 36.0 148.0 36.0 147.0 36.0 146.0 C 36.0 145.0 36.0 144.0 35.0 143.0 C 35.0 142.0 35.0 141.0 36.0 141.0 C 37.0 140.0 38.0 139.0 39.0 139.0 C 40.0 138.0 41.0 137.0 42.0 137.0 C 43.0 136.0 44.0 136.0 45.0 135.0 C 46.0 134.0 47.0 134.0 48.0 134.0 C 49.0 134.0 50.0 134.0 51.0 133.0 C 51.0 132.0 51.0 131.0 50.0 130.0 C 49.0 130.0 48.0 130.0 49.0 130.0 C 50.0 130.0 51.0 130.0 51.0 131.0 C 52.0 132.0 53.0 132.0 54.0 132.0 C 54.0 133.0 54.0 134.0 53.0 135.0 C 53.0 136.0 53.0 137.0 54.0 138.0 C 56.0 138.0 58.0 137.0 60.0 135.0 C 62.0 133.0 63.0 131.0 64.0 129.0 C 65.0 127.0 65.0 125.0 67.0 125.0 C 69.0 125.0 71.0 125.0 73.0 125.0 C 75.0 125.0 77.0 124.0 78.0 124.0" stroke-width="0.0" fill="rgb(89, 159, 43)" opacity="1.0" stroke="rgb(250, 125, 8)" stroke-opacity="0.95793885" stroke-linecap="round" stroke-linejoin="round"/>
  </g>
</svg>
