<?xml version="1.0" ?>
<svg xmlns="http://www.w3.org/2000/svg" version="1.1" width="474" height="596">
  <defs/>
  <g>
    <path d="M 265.66741943359375 -3.202915906906128 C 266.9434509277344 -1.9807618856430054 267.9080810546875 -1.6689808368682861 269.38507080078125 -2.0271472930908203 C 269.5315856933594 -3.627847671508789 268.8218688964844 -5.11745023727417 269.9110412597656 -4.588892936706543 C 270.6556091308594 -5.150441646575928 270.5014343261719 -5.240174770355225 271.5550231933594 -5.2468671798706055 C 271.95977783203125 -4.970135688781738 272.94122314453125 -4.506771564483643 275.2565002441406 -3.363250494003296 C 276.41436767578125 -3.477062463760376 278.7503967285156 -2.050808906555176 292.10040283203125 -1.1296595335006714 C 280.89532470703125 2.496951103210449 289.7754821777344 0.9461289644241333 299.23602294921875 4.2931227684021 C 304.45672607421875 5.548298358917236 311.7023010253906 8.419031143188477 318.3577880859375 10.739152908325195 C 326.6908874511719 14.61123275756836 336.1356201171875 19.022235870361328 344.1749267578125 23.832740783691406 C 352.57147216796875 28.91088104248047 360.7620849609375 34.606422424316406 368.8726806640625 41.12773132324219 C 377.07672119140625 47.69770050048828 384.3834533691406 55.573848724365234 392.1761779785156 63.18761444091797 C 399.2569580078125 71.24365234375 406.178955078125 79.84142303466797 412.4667053222656 87.82518768310547 C 418.0202331542969 97.53992462158203 424.0552978515625 104.20565032958984 428.1787414550781 112.93470764160156 C 433.56280517578125 120.57464599609375 434.89764404296875 128.7283172607422 432.4657897949219 134.94577026367188 C 429.4432373046875 143.15557861328125 423.2756652832031 152.3018035888672 415.8478088378906 160.95057678222656 C 410.5738525390625 168.18630981445312 401.01708984375 177.16758728027344 393.7095031738281 184.38485717773438 C 385.01422119140625 191.3640899658203 376.7704162597656 198.04051208496094 367.2966613769531 204.9205780029297 C 357.9817810058594 210.9232940673828 346.1671447753906 219.0872344970703 334.9906921386719 221.63514709472656 C 316.09686279296875 227.6934814453125 323.85137939453125 221.46629333496094 299.3451232910156 234.59866333007812 C 298.7691345214844 216.98699951171875 319.4472351074219 221.91981506347656 326.53131103515625 213.5137176513672 C 337.50653076171875 208.45558166503906 344.1358947753906 199.25987243652344 352.62420654296875 191.28846740722656 C 359.76483154296875 182.8927764892578 365.132568359375 173.4580841064453 366.88519287109375 162.91607666015625 C 367.86273193359375 154.83302307128906 370.27142333984375 145.59844970703125 366.0628662109375 142.06398010253906 C 367.4435119628906 130.97576904296875 364.2290344238281 122.13143920898438 361.70123291015625 113.47534942626953 C 354.7795715332031 107.44210052490234 349.79119873046875 100.42193603515625 344.4050598144531 98.10932922363281 C 336.3733215332031 95.5416488647461 346.85107421875 96.66931915283203 341.2772521972656 109.87055206298828 C 321.281982421875 92.32785034179688 304.34381103515625 104.04239654541016 296.42230224609375 110.58379364013672 C 281.6190490722656 104.76303100585938 272.3081970214844 109.23161315917969 262.07562255859375 110.69123077392578 C 255.96917724609375 113.946044921875 253.6898956298828 110.33135223388672 248.84197998046875 107.04338073730469 C 249.65150451660156 99.78861999511719 248.97637939453125 98.64318084716797 248.30673217773438 104.83561706542969 C 252.480224609375 114.61840057373047 250.1067352294922 122.7079086303711 233.825439453125 119.02629852294922 C 214.47024536132812 122.4677505493164 225.62767028808594 132.73428344726562 204.6449737548828 140.5197296142578 C 221.0388641357422 154.1523895263672 234.02987670898438 135.16677856445312 219.8613739013672 167.159912109375 C 200.41197204589844 166.14768981933594 187.36444091796875 162.32009887695312 187.050048828125 145.9857635498047 C 187.7348175048828 137.796630859375 182.81182861328125 144.23153686523438 176.03346252441406 137.97030639648438 C 168.00411987304688 139.21206665039062 158.50294494628906 146.75355529785156 149.8364715576172 153.18603515625 C 144.57896423339844 162.07229614257812 144.49658203125 169.17831420898438 146.49209594726562 178.82421875 C 144.75491333007812 187.89942932128906 148.9412841796875 197.29151916503906 155.1475830078125 204.00770568847656 C 160.37625122070312 212.7709197998047 168.57733154296875 219.88241577148438 178.18408203125 227.78744506835938 C 186.4136962890625 229.77879333496094 198.44081115722656 231.86024475097656 202.3841094970703 236.94874572753906 C 208.0717010498047 239.61947631835938 214.50689697265625 237.6665496826172 235.80953979492188 246.44236755371094 C 211.19265747070312 246.1486053466797 203.2318572998047 244.48602294921875 192.16397094726562 244.78042602539062 C 189.95248413085938 238.5049591064453 181.62998962402344 243.79811096191406 174.29910278320312 239.7521514892578 C 169.85818481445312 240.5337371826172 152.15748596191406 241.4868621826172 140.70289611816406 239.84750366210938 C 133.6370391845703 239.2941436767578 121.52474975585938 237.0298614501953 110.49574279785156 234.055419921875 C 102.93453216552734 231.8865966796875 95.30387115478516 228.7807159423828 86.14826202392578 225.4468231201172 C 78.20623016357422 222.2235870361328 67.79441833496094 217.38238525390625 61.76439666748047 213.171142578125 C 55.39583206176758 208.88565063476562 55.59409713745117 205.83753967285156 53.51987075805664 201.8196258544922 C 52.810001373291016 192.1453399658203 54.63544464111328 180.26861572265625 56.30934524536133 170.29376220703125 C 58.030765533447266 162.0293731689453 59.522029876708984 154.27157592773438 62.1749267578125 146.86178588867188 C 64.11895751953125 138.19183349609375 67.99507141113281 128.538818359375 71.21893310546875 122.01990509033203 C 73.63379669189453 114.51262664794922 78.83548736572266 105.71874237060547 83.51435852050781 96.8853759765625 C 88.57489776611328 89.2435073852539 93.68904876708984 80.66874694824219 100.96636199951172 72.30329895019531 C 106.82036590576172 65.15740203857422 114.8634262084961 56.740787506103516 122.85867309570312 49.89794158935547 C 129.5889434814453 43.67193603515625 138.92974853515625 36.783878326416016 147.14059448242188 30.9439640045166 C 157.01663208007812 25.03129768371582 163.41624450683594 24.306955337524414 174.34957885742188 23.507150650024414 C 178.8392333984375 23.630260467529297 192.67510986328125 24.840927124023438 198.6774139404297 27.214900970458984 C 217.04385375976562 30.52633285522461 211.9617156982422 35.311946868896484 213.95843505859375 21.88851547241211 C 214.006103515625 33.78105163574219 223.11895751953125 27.692262649536133 224.56797790527344 28.8746337890625 C 232.3513641357422 20.15175437927246 238.01889038085938 13.771729469299316 248.6112060546875 7.635503768920898 C 257.6599426269531 2.3964614868164062 270.0570373535156 0.5427514314651489 265.66741943359375 -3.202915906906128" stroke-width="0.0" fill="rgb(64, 38, 31)" opacity="0.9999781" stroke="rgb(200, 131, 241)" stroke-opacity="0.5338206" stroke-linecap="round" stroke-linejoin="round"/>
    <path d="M 367.43121337890625 126.34307861328125 C 365.8841552734375 157.01803588867188 359.2526550292969 184.81138610839844 340.26416015625 202.8219451904297 C 302.3558654785156 207.2117156982422 303.37200927734375 239.13279724121094 293.6426086425781 235.73455810546875 C 290.8407897949219 249.67294311523438 282.2538757324219 254.7310333251953 285.01666259765625 257.4838562011719 C 272.0528564453125 257.77032470703125 262.7120361328125 257.85211181640625 248.77969360351562 252.87478637695312 C 241.6591033935547 251.1588897705078 233.93905639648438 249.9761199951172 229.29052734375 250.6782989501953 C 228.77963256835938 248.76145935058594 232.0683135986328 249.82142639160156 238.8177947998047 250.42274475097656 C 248.36846923828125 250.8214569091797 258.0914306640625 259.04449462890625 273.73779296875 256.45550537109375 C 283.7818908691406 257.70037841796875 290.19049072265625 271.28692626953125 292.69122314453125 279.345458984375 C 303.1767883300781 293.90423583984375 310.2391357421875 304.98590087890625 311.4833984375 309.838623046875 C 311.99285888671875 313.6100769042969 310.46490478515625 324.756591796875 310.47943115234375 308.3423767089844 C 303.8341979980469 295.58111572265625 294.166748046875 284.0356140136719 282.9017028808594 259.3866271972656 C 277.092529296875 260.5850524902344 287.8509826660156 252.5404510498047 293.2998046875 239.05111694335938 C 309.3113098144531 241.43997192382812 331.4532165527344 244.32177734375 359.24798583984375 259.327880859375 C 369.749267578125 270.09027099609375 379.57666015625 271.5748291015625 393.2908630371094 280.3756103515625 C 405.9190368652344 288.01336669921875 410.798828125 292.9255676269531 412.11114501953125 295.161376953125 C 431.34149169921875 286.2875061035156 430.7236633300781 292.91717529296875 441.3499755859375 278.83984375 C 447.521484375 296.1412658691406 456.6345520019531 315.9755859375 467.6192626953125 334.3212585449219 C 447.8917541503906 367.2808837890625 443.2149658203125 323.6425476074219 439.8833923339844 363.33209228515625 C 424.45306396484375 340.4872131347656 386.7900085449219 326.2070617675781 370.8116455078125 327.7607727050781 C 333.7794189453125 318.7098693847656 348.9591369628906 328.755126953125 327.4291687011719 322.79644775390625 C 315.8816833496094 350.40142822265625 332.2344970703125 389.8887939453125 316.94964599609375 380.65081787109375 C 314.2635192871094 414.4014587402344 305.15509033203125 448.6982421875 295.9512634277344 462.9559020996094 C 286.37939453125 477.1841125488281 287.2077941894531 515.4271240234375 287.59375 528.3477172851562 C 275.25958251953125 534.6885986328125 256.54681396484375 535.6446533203125 240.2180938720703 530.3931884765625 C 239.32078552246094 541.4033203125 238.1422882080078 548.363037109375 238.63661193847656 563.2925415039062 C 253.17788696289062 570.0311889648438 265.8204040527344 571.3594360351562 298.5148010253906 571.439697265625 C 315.1646728515625 571.8519897460938 330.8600158691406 570.7806396484375 337.70037841796875 571.7884521484375 C 336.365234375 580.3641967773438 325.0585021972656 584.4063720703125 301.9549865722656 584.602783203125 C 279.4182434082031 584.8212280273438 242.2198486328125 582.243408203125 238.1673583984375 576.128173828125 C 227.9527130126953 568.5126953125 237.19093322753906 532.5165405273438 236.39999389648438 506.22821044921875 C 245.474609375 509.5876770019531 243.09439086914062 452.9037170410156 238.3074951171875 455.980712890625 C 221.3756103515625 450.374267578125 231.91989135742188 460.6116027832031 224.76426696777344 474.2758483886719 C 211.9153594970703 475.1991271972656 216.42263793945312 483.8017578125 213.66375732421875 491.6373291015625 C 212.10406494140625 499.7342224121094 209.8640594482422 510.53204345703125 212.55404663085938 517.4984130859375 C 213.47158813476562 534.0387573242188 215.9374237060547 550.436279296875 217.4165802001953 568.848388671875 C 202.23068237304688 575.8269653320312 208.64300537109375 583.5921630859375 174.33108520507812 591.8753662109375 C 158.2050323486328 598.4188842773438 122.64643096923828 597.4894409179688 118.31739807128906 587.9548950195312 C 113.6614761352539 572.6848754882812 124.49120330810547 577.5596313476562 142.80897521972656 582.6666259765625 C 166.53750610351562 580.9743041992188 188.45065307617188 575.0656127929688 212.3096160888672 573.0558471679688 C 214.7279815673828 580.83740234375 213.09889221191406 550.2675170898438 209.66197204589844 530.3565673828125 C 193.9149169921875 537.8522338867188 179.40309143066406 540.150146484375 158.81790161132812 527.1055297851562 C 163.73548889160156 521.9955444335938 140.34933471679688 525.1923828125 157.4773406982422 506.949951171875 C 179.3319549560547 502.9515380859375 171.54090881347656 471.6161193847656 158.11483764648438 469.2389831542969 C 155.51487731933594 439.2546081542969 151.6465301513672 411.373291015625 152.35501098632812 398.10107421875 C 125.66050720214844 399.59259033203125 113.73139190673828 386.3810729980469 114.4092788696289 364.27825927734375 C 108.84259796142578 339.8416748046875 127.22940063476562 339.4445495605469 92.00659942626953 354.7557678222656 C 68.3606185913086 362.60894775390625 75.89904022216797 389.6540222167969 41.308589935302734 385.2019958496094 C 32.907779693603516 347.3748474121094 33.23867416381836 334.44879150390625 55.257774353027344 324.03369140625 C 64.80255126953125 309.8585205078125 78.03219604492188 298.4282531738281 91.76276397705078 288.01202392578125 C 82.73534393310547 283.8616027832031 102.35221862792969 270.696044921875 114.86676025390625 262.78387451171875 C 131.01820373535156 252.88565063476562 146.08872985839844 245.93666076660156 167.5989227294922 239.75485229492188 C 193.6096649169922 235.2452392578125 193.64048767089844 241.98873901367188 204.06996154785156 243.0702362060547 C 188.35475158691406 261.4089050292969 183.38414001464844 284.794921875 172.63088989257812 304.9461975097656 C 166.9911651611328 321.6328430175781 162.518798828125 336.73028564453125 156.05987548828125 345.6906433105469 C 153.67384338378906 352.1489562988281 154.58258056640625 357.91558837890625 153.48123168945312 353.219482421875 C 151.83912658691406 344.7314758300781 162.2892608642578 340.6337890625 164.07232666015625 327.42852783203125 C 171.4746856689453 311.0161437988281 179.6428680419922 293.58453369140625 186.51181030273438 273.92144775390625 C 191.73947143554688 248.79066467285156 183.68502807617188 235.4024200439453 232.05374145507812 249.0031280517578 C 223.55410766601562 224.8667449951172 205.9547882080078 212.09913635253906 200.79415893554688 190.040283203125 C 206.56077575683594 169.71670532226562 218.42408752441406 147.91441345214844 367.43121337890625 126.34307861328125" stroke-width="0.0" fill="rgb(232, 107, 162)" opacity="0.9981301" stroke="rgb(44, 183, 177)" stroke-opacity="0.06237474" stroke-linecap="round" stroke-linejoin="round"/>
    <path d="M 236.34588623046875 89.75484466552734 C 246.4392547607422 96.12614440917969 254.31427001953125 102.50304412841797 259.3965759277344 110.47286224365234 C 260.23516845703125 110.33077239990234 270.5103454589844 108.52335357666016 270.34918212890625 107.9236831665039 C 281.15838623046875 105.2813720703125 291.3760986328125 103.06810760498047 314.15380859375 98.4205551147461 C 293.47857666015625 107.17652130126953 301.9158935546875 103.9205322265625 317.4410400390625 104.31217956542969 C 319.1164245605469 106.2501449584961 322.31768798828125 104.74327850341797 328.3673095703125 112.36453247070312 C 329.0288391113281 116.6299819946289 330.6134338378906 122.2292709350586 330.5767517089844 118.41184997558594 C 331.8735046386719 132.40927124023438 327.5822448730469 133.24119567871094 315.8681945800781 137.2545623779297 C 334.78363037109375 136.9379119873047 333.992919921875 129.31800842285156 343.51690673828125 127.79435729980469 C 344.4857177734375 127.16458892822266 346.1790771484375 125.557861328125 345.1030578613281 113.65692901611328 C 346.8993835449219 121.56958770751953 342.0371398925781 112.2579345703125 341.2520446777344 107.36003112792969 C 335.6952209472656 103.48639678955078 327.32354736328125 95.9308090209961 311.779052734375 99.47087860107422 C 316.5529479980469 96.99691772460938 328.85748291015625 97.27403259277344 332.51715087890625 94.61018371582031 C 336.746826171875 95.380859375 346.398681640625 93.45687866210938 346.6612548828125 95.15937042236328 C 352.38177490234375 100.53013610839844 358.4245910644531 106.64291381835938 361.8382873535156 111.34154510498047 C 365.5369873046875 119.26248168945312 367.86627197265625 124.51470947265625 370.36419677734375 136.19496154785156 C 370.95343017578125 143.62899780273438 371.09710693359375 144.0305633544922 370.4851379394531 153.1090545654297 C 369.07757568359375 162.03749084472656 367.5269775390625 167.45115661621094 365.91766357421875 170.4511260986328 C 363.8932800292969 177.77166748046875 359.8179931640625 184.2747344970703 356.62982177734375 187.6419219970703 C 354.2196044921875 191.66592407226562 347.3257751464844 200.17860412597656 345.3735656738281 201.27182006835938 C 344.8545837402344 202.23521423339844 340.43060302734375 206.158447265625 335.11669921875 210.58494567871094 C 330.63140869140625 213.7231903076172 325.3143310546875 217.81625366210938 321.8423156738281 219.65914916992188 C 318.1307678222656 221.70428466796875 311.1211853027344 225.67164611816406 303.8387756347656 229.60516357421875 C 300.7193908691406 230.57737731933594 295.07073974609375 231.71739196777344 293.3244323730469 234.24269104003906 C 294.63385009765625 232.57748413085938 288.6413269042969 235.24253845214844 285.70623779296875 235.98046875 C 283.3212585449219 236.87001037597656 281.270751953125 236.74855041503906 282.6169128417969 237.33546447753906 C 279.9191589355469 237.54945373535156 277.44091796875 237.78756713867188 277.0819396972656 238.26199340820312 C 275.6982421875 239.20066833496094 271.8551940917969 237.86427307128906 272.5999755859375 239.63999938964844 C 273.50457763671875 239.8458709716797 270.3105773925781 238.550537109375 266.3577575683594 240.47569274902344 C 262.8555908203125 240.02633666992188 258.9715270996094 241.55210876464844 255.91148376464844 242.38156127929688 C 253.6179962158203 241.980224609375 249.54336547851562 242.86602783203125 245.40963745117188 243.29946899414062 C 242.80946350097656 243.15521240234375 237.0704345703125 244.19847106933594 235.55938720703125 243.89181518554688 C 231.91302490234375 243.7909698486328 226.48153686523438 243.665283203125 227.1497039794922 243.60116577148438 C 225.48419189453125 244.15435791015625 218.36441040039062 243.16700744628906 210.47544860839844 241.71051025390625 C 206.4332733154297 240.7800750732422 198.4260711669922 238.61050415039062 193.689697265625 236.5270233154297 C 189.9036407470703 235.0174102783203 182.3778839111328 231.45045471191406 179.81344604492188 229.53504943847656 C 171.73130798339844 224.83123779296875 167.0879669189453 220.75343322753906 163.25502014160156 217.31338500976562 C 159.0244903564453 212.9779815673828 152.82302856445312 206.6764678955078 150.00161743164062 200.19921875 C 146.11729431152344 192.74258422851562 144.8279571533203 187.75595092773438 143.549560546875 181.4425506591797 C 142.246826171875 172.0696258544922 142.9731903076172 162.4596405029297 146.67160034179688 153.6344757080078 C 145.3249053955078 151.7764434814453 151.71609497070312 149.22352600097656 156.17056274414062 145.81739807128906 C 158.2955322265625 137.9514617919922 157.79029846191406 129.52137756347656 157.49044799804688 122.71531677246094 C 160.95645141601562 128.06497192382812 165.79913330078125 137.72157287597656 166.9825439453125 139.19070434570312 C 169.8321990966797 137.65869140625 175.71693420410156 135.51242065429688 178.98468017578125 133.92953491210938 C 185.6097412109375 131.0588836669922 196.5488739013672 126.99324035644531 200.82781982421875 125.37374114990234 C 180.22914123535156 140.40565490722656 188.32635498046875 138.355712890625 183.28469848632812 152.51156616210938 C 184.3574676513672 156.7107391357422 185.0523223876953 167.9924774169922 192.3957061767578 166.67385864257812 C 204.14834594726562 163.53353881835938 202.9512176513672 168.0240936279297 222.44223022460938 162.64134216308594 C 228.14524841308594 145.32554626464844 230.86746215820312 149.26182556152344 211.10948181152344 144.2779083251953 C 214.1790008544922 132.66758728027344 209.6844940185547 141.92286682128906 220.21200561523438 127.79224395751953 C 219.86508178710938 129.9390411376953 227.26040649414062 133.3032989501953 226.6391143798828 136.24746704101562 C 230.8490447998047 145.44537353515625 226.89100646972656 150.6417694091797 226.3686065673828 154.5605926513672 C 225.029052734375 155.51734924316406 222.8207550048828 158.52333068847656 219.21096801757812 162.06163024902344 C 225.3684539794922 158.25526428222656 230.58566284179688 162.44175720214844 237.2567596435547 157.93832397460938 C 245.93145751953125 155.87777709960938 241.41043090820312 153.0960235595703 245.39276123046875 150.3502960205078 C 243.91696166992188 143.12669372558594 242.2811279296875 137.2250518798828 236.71498107910156 132.86793518066406 C 231.2015838623047 126.8778076171875 216.56271362304688 127.46137237548828 222.41571044921875 124.95995330810547 C 205.87062072753906 123.15058135986328 206.29360961914062 127.32715606689453 199.4460906982422 125.87198638916016 C 214.47377014160156 121.03622436523438 221.98887634277344 119.17996215820312 224.67758178710938 118.57421875 C 231.4031219482422 116.62701416015625 240.24725341796875 115.62788391113281 246.45040893554688 114.25029754638672 C 245.0320587158203 116.20999908447266 250.95068359375 114.87918090820312 236.34588623046875 89.75484466552734" stroke-width="0.0" fill="rgb(251, 188, 103)" opacity="1.0" stroke="rgb(249, 18, 118)" stroke-opacity="0.9835308" stroke-linecap="round" stroke-linejoin="round"/>
    <path d="M 301.5843200683594 376.691650390625 C 298.8543395996094 375.932373046875 304.24346923828125 376.9056091308594 306.3354187011719 376.3315124511719 C 306.3936462402344 378.3893127441406 312.64459228515625 376.8098449707031 310.06561279296875 378.1587829589844 C 314.7528076171875 379.1001281738281 315.89434814453125 379.7838439941406 315.85015869140625 382.5813903808594 C 316.25616455078125 390.31341552734375 315.1737976074219 395.7894592285156 313.840576171875 402.6296691894531 C 312.7678527832031 411.99005126953125 310.4486389160156 420.8924865722656 308.1228942871094 431.0732116699219 C 305.2620849609375 440.3544006347656 303.9704895019531 449.13177490234375 301.8511962890625 456.0113220214844 C 300.5859680175781 467.1620788574219 300.15997314453125 471.7466125488281 296.3199768066406 471.5126953125 C 288.5679626464844 475.5208740234375 281.5604553222656 474.1806335449219 288.3141174316406 472.58880615234375 C 275.57275390625 472.8190612792969 267.67279052734375 472.80230712890625 257.840576171875 471.69061279296875 C 249.6103515625 473.7244567871094 245.20596313476562 466.2545471191406 246.90780639648438 475.39764404296875 C 245.26431274414062 491.0340881347656 244.82406616210938 499.46649169921875 243.51560974121094 505.04833984375 C 253.5967559814453 507.6608581542969 260.4982604980469 512.9982299804688 275.2200927734375 510.0074462890625 C 282.3974609375 510.347412109375 282.9604187011719 503.1833190917969 296.8958435058594 505.9151306152344 C 303.6045837402344 508.30426025390625 307.77142333984375 511.66650390625 303.4166564941406 517.792236328125 C 296.3716735839844 522.8018798828125 296.3003234863281 513.991943359375 290.3761901855469 525.115966796875 C 294.263916015625 529.235107421875 308.7065734863281 547.9750366210938 315.4332275390625 544.2606811523438 C 324.28094482421875 553.2442626953125 336.57391357421875 550.8765258789062 340.6181640625 561.4697875976562 C 346.27325439453125 558.82958984375 342.5086975097656 572.2017211914062 341.07763671875 576.0578002929688 C 334.7333984375 579.6948852539062 325.9206237792969 581.5502319335938 328.2830505371094 579.4146118164062 C 256.8730163574219 582.262939453125 268.8979797363281 585.0484619140625 312.8467712402344 583.743896484375 C 334.16912841796875 582.7135620117188 323.25238037109375 578.2630004882812 335.7232360839844 575.69140625 C 342.51947021484375 572.388916015625 337.0295715332031 559.343994140625 342.977294921875 561.4078369140625 C 337.835205078125 547.8775634765625 325.91632080078125 548.7561645507812 317.6099853515625 542.0867919921875 C 301.8314514160156 538.317626953125 302.06402587890625 527.9800415039062 294.6502380371094 536.2142333984375 C 278.5901794433594 508.05853271484375 273.4956359863281 529.6383056640625 261.0856018066406 522.7169799804688 C 244.49099731445312 536.281005859375 248.12710571289062 526.0645141601562 241.9210662841797 517.58447265625 C 238.6562042236328 529.2979736328125 238.76417541503906 550.4992065429688 238.49069213867188 542.667724609375 C 238.7676544189453 553.379150390625 235.51133728027344 564.8422241210938 241.4268035888672 577.7757568359375 C 230.7653350830078 574.3743286132812 234.55796813964844 555.2843017578125 234.29867553710938 546.1195068359375 C 234.80348205566406 535.079345703125 236.70541381835938 525.7366943359375 236.26577758789062 514.2566528320312 C 238.7366180419922 506.92218017578125 242.6605682373047 499.3408203125 242.72093200683594 489.4001159667969 C 243.32241821289062 484.8621826171875 243.28274536132812 476.19476318359375 242.31227111816406 468.9183349609375 C 232.76036071777344 468.15130615234375 234.4154052734375 467.3983154296875 231.83055114746094 452.9062194824219 C 233.31222534179688 457.2146301269531 227.56637573242188 452.7419128417969 227.7877197265625 455.923095703125 C 227.5901641845703 461.1114501953125 225.4386749267578 473.92333984375 227.19680786132812 472.2785949707031 C 216.42361450195312 477.1687927246094 210.07191467285156 474.975341796875 202.73802185058594 475.4339294433594 C 190.6111602783203 474.896484375 179.49856567382812 476.0146789550781 168.71807861328125 474.0966796875 C 173.39735412597656 479.5928649902344 173.63462829589844 487.1633605957031 171.70143127441406 490.9413757324219 C 167.2818145751953 505.3207702636719 166.09268188476562 508.3416442871094 173.77474975585938 508.1321716308594 C 185.38853454589844 512.6845703125 196.65328979492188 513.1871948242188 209.02145385742188 509.4652099609375 C 204.74485778808594 506.72747802734375 214.19815063476562 507.4978332519531 219.32862854003906 511.5707092285156 C 220.85914611816406 513.4876098632812 221.76368713378906 521.9572143554688 218.64259338378906 521.117431640625 C 212.33193969726562 527.8397216796875 200.8011474609375 518.1889038085938 196.0576934814453 528.1845703125 C 186.01644897460938 525.1422729492188 174.06912231445312 530.644775390625 168.1962890625 525.0839233398438 C 162.1698760986328 527.9708251953125 163.34555053710938 527.185546875 151.67230224609375 519.8283081054688 C 150.63421630859375 512.2548217773438 156.10501098632812 506.763671875 165.4967803955078 505.3087463378906 C 164.62156677246094 499.08807373046875 168.42897033691406 488.0101318359375 164.97634887695312 473.4097595214844 C 160.99996948242188 472.3106689453125 157.5442352294922 471.4642333984375 157.91371154785156 461.41339111328125 C 156.0513153076172 449.74566650390625 156.0115966796875 436.0400695800781 154.20053100585938 426.1431579589844 C 152.23709106445312 407.3369445800781 152.118896484375 398.674072265625 154.51304626464844 393.5468444824219 C 154.42628479003906 388.7841491699219 152.80455017089844 381.11273193359375 164.38275146484375 381.3944396972656 C 167.28506469726562 377.9718322753906 183.7161407470703 378.6753845214844 194.1342315673828 381.8408508300781 C 200.7674102783203 380.9357604980469 212.52593994140625 384.1141052246094 219.30442810058594 385.6849670410156 C 229.28082275390625 385.4678039550781 238.0725860595703 386.71392822265625 246.1352996826172 386.8150939941406 C 250.8691864013672 386.6878662109375 254.08058166503906 386.4173278808594 256.58770751953125 386.36151123046875 C 256.7190856933594 385.4414978027344 256.4801330566406 382.80938720703125 255.1471710205078 382.1919250488281 C 254.48536682128906 381.1106872558594 253.1527557373047 381.9384765625 249.88436889648438 381.88433837890625 C 252.17591857910156 384.03887939453125 254.77804565429688 379.9608459472656 256.3412170410156 385.11199951171875 C 257.02886962890625 386.1869201660156 263.10699462890625 385.42657470703125 266.1104431152344 385.46044921875 C 269.0697937011719 384.7270202636719 280.45062255859375 385.3199768066406 301.5843200683594 376.691650390625" stroke-width="0.0" fill="rgb(234, 82, 10)" opacity="0.99893546" stroke="rgb(229, 34, 200)" stroke-opacity="0.44484466" stroke-linecap="round" stroke-linejoin="round"/>
    <path d="M 187.64645385742188 238.72488403320312 C 185.4790802001953 238.63784790039062 188.860107421875 240.0735626220703 189.40382385253906 238.63076782226562 C 195.97836303710938 241.41168212890625 201.77540588378906 243.5164337158203 202.52842712402344 243.2822723388672 C 201.51608276367188 243.86532592773438 203.04603576660156 245.95567321777344 203.64312744140625 246.2333221435547 C 199.98199462890625 249.05718994140625 200.380615234375 253.81629943847656 198.27418518066406 256.85430908203125 C 198.9553680419922 258.2550354003906 196.673828125 263.22625732421875 194.80357360839844 268.2958984375 C 193.7793731689453 272.6484375 194.7919464111328 278.6027526855469 193.94578552246094 281.54693603515625 C 194.36557006835938 287.53564453125 190.36788940429688 288.73822021484375 192.46018981933594 292.97802734375 C 188.48072814941406 298.958740234375 185.5663299560547 303.4072265625 180.48802185058594 301.3900451660156 C 177.07521057128906 303.6296081542969 175.87217712402344 307.6752624511719 175.30564880371094 309.611572265625 C 172.984375 313.8907165527344 171.9315185546875 318.23712158203125 170.23670959472656 322.00653076171875 C 168.53884887695312 325.25067138671875 168.00558471679688 330.29327392578125 164.6128692626953 334.5676574707031 C 164.201904296875 336.3196105957031 162.41346740722656 341.7464599609375 160.05470275878906 347.4178466796875 C 161.10833740234375 349.2986755371094 157.27853393554688 353.0118103027344 158.31080627441406 358.21142578125 C 152.10939025878906 360.4357604980469 155.4015655517578 365.8804016113281 153.9419403076172 374.22711181640625 C 156.3330535888672 375.2546691894531 153.28395080566406 381.99591064453125 157.21029663085938 387.1686096191406 C 154.67514038085938 388.5599060058594 156.209228515625 395.4524230957031 154.05770874023438 400.243408203125 C 154.6892547607422 403.8017272949219 155.41290283203125 406.7124328613281 155.85414123535156 409.29620361328125 C 156.05690002441406 410.9895935058594 155.827392578125 410.77081298828125 155.58457946777344 409.8423156738281 C 155.898681640625 410.28875732421875 156.11727905273438 409.3852844238281 155.36166381835938 406.28338623046875 C 153.9875030517578 402.2761535644531 153.7848358154297 399.24560546875 155.29690551757812 400.0179443359375 C 152.68653869628906 397.88671875 146.85110473632812 398.85015869140625 141.49546813964844 397.0538024902344 C 138.24900817871094 396.4745788574219 133.0745849609375 396.6344909667969 130.22702026367188 393.8363952636719 C 123.81362915039062 390.7392578125 121.78190612792969 389.8876953125 117.5492172241211 382.5185546875 C 115.39983367919922 376.5523681640625 113.9134521484375 369.45245361328125 114.27281188964844 360.88616943359375 C 113.02864837646484 357.2981262207031 113.62914276123047 345.1262512207031 114.61729431152344 349.466552734375 C 114.7371826171875 341.4794921875 114.89876556396484 342.9083251953125 106.50896453857422 347.95489501953125 C 104.13179779052734 343.4283142089844 102.32079315185547 345.435546875 98.97482299804688 349.9307556152344 C 90.23030853271484 351.6951904296875 79.6733627319336 351.0490417480469 80.06536102294922 361.76031494140625 C 75.1483154296875 368.423828125 67.4150390625 372.188232421875 60.9837532043457 374.80572509765625 C 59.46845626831055 376.6670837402344 59.868919372558594 383.53936767578125 59.692039489746094 394.3471984863281 C 57.658836364746094 392.9985046386719 60.41535186767578 403.466552734375 52.260215759277344 405.6864318847656 C 52.43317413330078 399.22259521484375 52.387630462646484 396.05169677734375 50.069549560546875 392.6617126464844 C 47.48643493652344 389.1658630371094 44.40092086791992 386.1416015625 44.11228942871094 386.0635070800781 C 39.583770751953125 389.21478271484375 38.505836486816406 396.3583679199219 34.510292053222656 398.18804931640625 C 32.470855712890625 403.0826110839844 24.443918228149414 403.0542907714844 22.870182037353516 398.137451171875 C 24.247896194458008 402.7975158691406 21.499006271362305 397.4093017578125 22.018394470214844 386.6788330078125 C 21.754077911376953 387.8263244628906 20.447118759155273 384.0799560546875 19.810062408447266 379.3959045410156 C 17.816747665405273 374.3830871582031 16.86686134338379 370.0435791015625 18.03361701965332 365.6786193847656 C 17.909242630004883 361.1905517578125 17.602161407470703 356.3001708984375 18.30311393737793 351.13006591796875 C 12.7243070602417 347.9578552246094 18.02286720275879 346.7344970703125 21.81220245361328 340.3390197753906 C 18.75656509399414 333.4205322265625 13.220235824584961 323.7392272949219 19.651548385620117 322.89630126953125 C 18.17310333251953 326.48358154296875 21.259113311767578 327.2932434082031 25.172136306762695 328.3540344238281 C 29.68533706665039 328.84906005859375 35.65824890136719 330.3504638671875 40.766502380371094 330.2073059082031 C 46.67831039428711 330.9439392089844 51.90455627441406 328.5989074707031 57.61149597167969 325.45416259765625 C 62.79117965698242 323.103515625 67.57255554199219 319.6687927246094 72.43529510498047 315.68048095703125 C 76.81182861328125 311.03955078125 80.64881134033203 306.51824951171875 84.42151641845703 302.9886474609375 C 87.87594604492188 299.2027587890625 91.13780212402344 296.2795715332031 94.1845474243164 294.41632080078125 C 96.98213195800781 293.22882080078125 99.7923355102539 292.6141662597656 102.21977233886719 293.005126953125 C 104.38542175292969 294.56903076171875 106.7989273071289 296.9150085449219 109.0911865234375 299.99005126953125 C 110.98937225341797 303.8199157714844 112.91088104248047 308.1418762207031 115.34032440185547 312.5107116699219 C 117.5322036743164 317.0421142578125 119.27328491210938 321.61700439453125 121.48609161376953 325.978271484375 C 123.18311309814453 330.09014892578125 124.7208480834961 333.9396667480469 130.2491912841797 332.2610778808594 C 136.08123779296875 333.1479797363281 135.39703369140625 331.1005554199219 139.71261596679688 329.0619201660156 C 143.73309326171875 323.8293151855469 149.4445343017578 323.7016296386719 152.3261260986328 319.8038330078125 C 151.9662322998047 316.3410339355469 154.751708984375 310.63775634765625 156.25857543945312 303.8593444824219 C 156.67787170410156 299.5400695800781 161.40975952148438 296.6347351074219 157.20484924316406 292.0384521484375 C 154.0136260986328 287.9172668457031 156.0559844970703 281.7489318847656 155.94638061523438 279.097900390625 C 159.74957275390625 270.99835205078125 162.00326538085938 265.3966369628906 166.2452392578125 259.84564208984375 C 168.67941284179688 255.38031005859375 173.04331970214844 250.27403259277344 177.52928161621094 245.56288146972656 C 182.88336181640625 241.41758728027344 180.87120056152344 238.38467407226562 187.64645385742188 238.72488403320312" stroke-width="0.0" fill="rgb(157, 135, 186)" opacity="0.999996" stroke="rgb(107, 159, 52)" stroke-opacity="0.43928063" stroke-linecap="round" stroke-linejoin="round"/>
    <path d="M 95.55331420898438 288.645263671875 C 97.38068389892578 286.0315246582031 99.66737365722656 285.94903564453125 99.74330139160156 287.43377685546875 C 100.33063507080078 287.2254638671875 102.01766967773438 288.34527587890625 102.09375762939453 288.8074645996094 C 102.66520690917969 289.3114929199219 106.14659881591797 290.8824768066406 108.60845947265625 292.56768798828125 C 103.32213592529297 289.635009765625 107.33131408691406 291.6197814941406 107.18897247314453 292.5104064941406 C 109.44121551513672 295.2393493652344 112.01274108886719 299.8231506347656 109.46592712402344 296.06463623046875 C 110.69676971435547 293.9288635253906 112.40769958496094 299.275146484375 111.5200424194336 297.9028625488281 C 113.7061767578125 299.406982421875 115.534912109375 303.142822265625 115.80773162841797 302.305419921875 C 112.59362030029297 302.0183410644531 116.19133758544922 303.2889709472656 118.7330551147461 305.02825927734375 C 116.17367553710938 304.2626647949219 117.10259246826172 307.4680480957031 119.75554656982422 306.5331726074219 C 116.74041748046875 307.4310302734375 118.5914077758789 310.8049011230469 118.11530303955078 305.413330078125 C 118.94557189941406 310.74530029296875 121.5716552734375 311.7015380859375 120.56391143798828 314.9654846191406 C 122.24594116210938 310.0106201171875 120.19170379638672 314.19805908203125 123.57502746582031 317.32684326171875 C 123.9633560180664 314.7145690917969 123.90690612792969 317.32464599609375 123.46934509277344 316.6133117675781 C 123.04859161376953 318.1649475097656 123.33060455322266 321.7894287109375 125.9978256225586 319.1206970214844 C 123.84115600585938 321.8569030761719 124.56022644042969 326.4017639160156 126.45805358886719 331.3067321777344 C 124.1958999633789 325.3301696777344 126.44517517089844 326.32110595703125 124.99088287353516 328.2575378417969 C 126.3837661743164 326.5977783203125 125.0977554321289 330.6283264160156 124.50927734375 332.3132629394531 C 127.3306884765625 325.4353942871094 126.17418670654297 328.7471618652344 126.03909301757812 332.52105712890625 C 126.34819793701172 331.20623779296875 125.37535858154297 332.7527160644531 127.06200408935547 331.5807189941406 C 126.0286636352539 333.0203857421875 117.89212799072266 334.9681701660156 116.7680892944336 338.2305908203125 C 120.61503601074219 335.6779479980469 118.25208282470703 338.6102294921875 116.34712219238281 338.27166748046875 C 113.45153045654297 339.5724182128906 110.16129302978516 342.4906005859375 109.22703552246094 342.3757019042969 C 106.04744720458984 344.2616882324219 100.81866455078125 346.451904296875 95.79315185546875 349.57269287109375 C 92.81617736816406 350.30169677734375 89.89750671386719 352.8946838378906 80.37454986572266 352.86212158203125 C 87.53864288330078 357.41387939453125 91.60499572753906 357.4219970703125 89.23560333251953 359.621337890625 C 90.5877456665039 362.0984191894531 87.2865219116211 363.2488708496094 86.34590148925781 365.0281677246094 C 77.41139221191406 363.3177795410156 78.21499633789062 369.5260314941406 80.89594268798828 351.4786071777344 C 74.77269744873047 361.229248046875 73.72234344482422 367.6170959472656 68.9664077758789 371.7434997558594 C 67.90625762939453 374.3483581542969 63.38134002685547 377.1658935546875 61.09214782714844 379.7910461425781 C 56.81305694580078 380.7530822753906 56.47785949707031 384.750244140625 56.72122573852539 389.2315979003906 C 55.06071090698242 394.68572998046875 59.80814743041992 400.6441345214844 48.632659912109375 403.6761779785156 C 53.85218048095703 405.63128662109375 49.353355407714844 403.6771240234375 55.68380355834961 401.046142578125 C 51.09762954711914 404.3012390136719 46.1888427734375 402.9584045410156 51.957313537597656 405.1300354003906 C 42.986637115478516 402.7915344238281 47.736236572265625 390.96246337890625 45.24199676513672 400.70721435546875 C 45.3762321472168 393.93927001953125 41.01097869873047 384.9519348144531 45.11256408691406 385.6644287109375 C 43.920738220214844 377.5682067871094 40.56818389892578 382.8496398925781 38.752872467041016 386.52618408203125 C 35.859657287597656 390.2750244140625 33.8388786315918 394.497314453125 29.672822952270508 398.1694030761719 C 19.254310607910156 398.265625 27.648849487304688 388.6194763183594 24.85732650756836 383.11322021484375 C 23.480411529541016 395.6229248046875 11.016658782958984 393.7242431640625 10.262454986572266 390.0838928222656 C 10.735974311828613 389.457275390625 8.726829528808594 390.2320556640625 9.735136032104492 384.9610595703125 C 9.817569732666016 383.9479064941406 11.865917205810547 378.8314208984375 15.331189155578613 373.5697326660156 C 18.341400146484375 374.52777099609375 11.469640731811523 374.8778381347656 8.235945701599121 377.88958740234375 C 10.918203353881836 378.6277160644531 -2.6605846881866455 377.90960693359375 3.182856798171997 376.0931396484375 C -2.276052713394165 376.88037109375 0.172506645321846 377.1150817871094 -1.447644829750061 372.2084655761719 C -0.39039501547813416 369.82159423828125 4.286258697509766 364.6986389160156 7.065394878387451 359.2415771484375 C 9.079422950744629 357.0046691894531 13.094407081604004 350.0594482421875 16.07904624938965 348.1496887207031 C 20.02659797668457 348.1911315917969 21.11219596862793 344.8679504394531 27.394100189208984 342.5329284667969 C 21.82740020751953 334.9640197753906 20.33019256591797 331.516845703125 19.94076919555664 327.50762939453125 C 18.3122501373291 335.5654602050781 20.131744384765625 319.26446533203125 16.43488121032715 324.6473083496094 C 20.091215133666992 319.9790344238281 21.308744430541992 319.780517578125 25.540620803833008 320.65234375 C 27.79157829284668 322.0144348144531 32.52798080444336 325.38629150390625 35.56185531616211 328.71209716796875 C 37.875885009765625 327.61297607421875 33.50550079345703 334.5527038574219 42.51715087890625 332.9075012207031 C 55.9269905090332 332.7464599609375 54.64582061767578 331.2430419921875 46.47699737548828 328.13311767578125 C 45.12679672241211 323.7783203125 50.57637023925781 320.02410888671875 50.30366134643555 320.1217041015625 C 53.15390396118164 321.27532958984375 57.6010856628418 317.3811340332031 57.7242317199707 325.7017517089844 C 61.22499084472656 323.1507263183594 62.019996643066406 319.9263610839844 65.0029296875 316.0774230957031 C 67.3656005859375 314.141845703125 70.12528991699219 310.6163330078125 73.22796630859375 307.8726501464844 C 77.1282730102539 304.5903015136719 80.1659927368164 300.9976806640625 82.25155639648438 298.6662292480469 C 85.80648803710938 296.3074035644531 89.80307006835938 293.29754638671875 92.59371948242188 290.1595458984375 C 95.8776626586914 286.6339416503906 97.34681701660156 284.7546081542969 95.55331420898438 288.645263671875" stroke-width="0.0" fill="rgb(248, 189, 111)" opacity="1.0" stroke="rgb(23, 122, 97)" stroke-opacity="0.88492876" stroke-linecap="round" stroke-linejoin="round"/>
    <path d="M 382.8261413574219 278.6030578613281 C 382.54547119140625 279.4022521972656 382.3343811035156 280.0777893066406 382.28521728515625 280.641845703125 C 382.3643493652344 281.0256042480469 382.6148986816406 281.2005310058594 383.1222839355469 281.23223876953125 C 383.9557800292969 281.21490478515625 385.08917236328125 281.192626953125 386.5233154296875 281.2557067871094 C 388.213623046875 281.57086181640625 390.0672302246094 282.2182312011719 391.9496154785156 283.2305603027344 C 393.7242736816406 284.51727294921875 395.23828125 286.076416015625 396.3768005371094 287.911865234375 C 397.01239013671875 289.95733642578125 397.1184387207031 292.0649719238281 396.6427001953125 294.04345703125 C 395.5917663574219 295.785888671875 394.0462646484375 297.26513671875 392.3193359375 298.53277587890625 C 390.49835205078125 299.6182861328125 388.88055419921875 300.5597229003906 387.5291748046875 301.3227233886719 C 386.55224609375 301.8796081542969 385.9744873046875 302.2319641113281 385.7513122558594 302.3747863769531 C 385.8572998046875 302.27789306640625 386.2923278808594 301.9290771484375 387.05645751953125 301.3642883300781 C 388.0927429199219 300.6429443359375 389.3517150878906 299.801513671875 390.7383117675781 298.8902893066406 C 392.2220458984375 297.98358154296875 393.7514343261719 297.1968688964844 395.3237609863281 296.58270263671875 C 396.8872985839844 296.3188781738281 398.327880859375 296.4028015136719 399.56451416015625 296.8526611328125 C 400.4904479980469 297.68658447265625 401.132080078125 298.71636962890625 401.56817626953125 299.7569580078125 C 401.89080810546875 300.6595153808594 402.23785400390625 301.333740234375 402.748779296875 301.7594299316406 C 403.5891418457031 302.0356140136719 404.8174133300781 302.2868347167969 406.4242858886719 302.6956481933594 C 408.3536071777344 303.5702819824219 410.3856201171875 305.03369140625 412.22125244140625 307.1069030761719 C 413.4543151855469 309.7174987792969 414.0415954589844 312.71905517578125 414.0853576660156 315.9115295410156 C 413.5774841308594 319.0787048339844 412.54541015625 321.90380859375 410.9126281738281 324.2074279785156 C 408.6819152832031 325.7959289550781 406.0476989746094 326.6673278808594 403.2176818847656 326.9615783691406 C 400.3827209472656 326.8985900878906 397.62139892578125 326.67718505859375 394.99835205078125 326.447998046875 C 392.63360595703125 326.22027587890625 390.61138916015625 325.96063232421875 388.9399719238281 325.67059326171875 C 387.5863037109375 325.3210754394531 386.486572265625 324.9305419921875 385.60552978515625 324.51361083984375 C 384.8948669433594 324.1272888183594 384.30810546875 323.8302307128906 383.7869873046875 323.6044006347656 C 383.25433349609375 323.4718017578125 382.67083740234375 323.41912841796875 382.0060729980469 323.4076232910156 C 381.2341613769531 323.4584655761719 380.3519592285156 323.50152587890625 379.3722229003906 323.5457763671875 C 378.30328369140625 323.571044921875 377.14276123046875 323.5780944824219 375.9075927734375 323.5730285644531 C 374.6386413574219 323.5238952636719 373.37750244140625 323.4244079589844 372.1457214355469 323.2500915527344 C 370.9446716308594 323.0087890625 369.7729797363281 322.7227478027344 368.63677978515625 322.35845947265625 C 367.5445861816406 321.87554931640625 366.5151672363281 321.3004150390625 365.5700988769531 320.593994140625 C 364.7576904296875 319.79327392578125 364.0982971191406 318.87261962890625 363.6258239746094 317.8345642089844 C 363.3570556640625 316.6899719238281 363.1287841796875 315.4808349609375 362.8398742675781 314.24310302734375 C 362.5954284667969 312.9720458984375 362.3855285644531 311.6870422363281 362.3271179199219 310.4082336425781 C 362.4407958984375 309.15203857421875 362.7269287109375 307.9256591796875 363.08447265625 306.7505798339844 C 363.3671875 305.6407470703125 363.5203552246094 304.61590576171875 363.57073974609375 303.7075500488281 C 363.5645446777344 302.9474792480469 363.47930908203125 302.33551025390625 363.2503662109375 301.82818603515625 C 362.8059997558594 301.3731994628906 362.2009582519531 300.9187316894531 361.583740234375 300.4476013183594 C 361.0840148925781 299.8531188964844 360.68890380859375 299.03045654296875 360.35052490234375 298.0057678222656 C 360.09002685546875 296.80426025390625 359.9949645996094 295.413330078125 360.1506652832031 293.78369140625 C 360.53216552734375 291.84686279296875 361.09442138671875 289.580810546875 361.77862548828125 286.9327392578125 C 362.5979309082031 283.8932189941406 363.5599060058594 280.5594177246094 364.5074462890625 277.0045471191406 C 365.49212646484375 273.33837890625 366.4442138671875 269.6045837402344 382.8261413574219 278.6030578613281" stroke-width="0.0" fill="rgb(252, 189, 101)" opacity="0.99994445" stroke="rgb(212, 121, 5)" stroke-opacity="0.9909295" stroke-linecap="round" stroke-linejoin="round"/>
    <path d="M 320.9578552246094 371.2314758300781 C 321.7696533203125 372.2903747558594 322.52386474609375 373.3454895019531 323.1514587402344 374.3905029296875 C 323.58929443359375 375.41937255859375 323.7466125488281 376.4066162109375 323.5445556640625 377.3099060058594 C 322.9513854980469 378.08270263671875 321.95770263671875 378.65374755859375 320.5691223144531 378.9815673828125 C 318.86676025390625 379.07720947265625 317.0048522949219 379.0350341796875 315.24017333984375 379.0256652832031 C 313.8724670410156 379.3680725097656 313.1329345703125 380.46527099609375 313.1492919921875 382.485107421875 C 313.6716003417969 385.4805603027344 314.102294921875 389.49737548828125 314.2500305175781 394.5238037109375 C 313.9842834472656 400.4527587890625 313.0760498046875 407.15081787109375 311.54815673828125 414.49237060546875 C 309.849365234375 422.35992431640625 307.9228210449219 430.6066589355469 305.3720703125 438.9931640625 C 302.4862060546875 447.3543395996094 299.04833984375 455.59429931640625 295.2725830078125 464.0176086425781 C 291.0442810058594 472.4001159667969 287.285400390625 481.4176940917969 283.8304748535156 491.1051940917969 C 280.05706787109375 501.16156005859375 275.8513488769531 511.48248291015625 271.3776550292969 522.04443359375 C 267.8407897949219 533.0040283203125 266.8656005859375 544.3427124023438 267.2353210449219 555.77734375 C 268.81463623046875 566.2733154296875 273.0317687988281 573.979248046875 280.528564453125 577.916015625 C 289.9794616699219 577.8883666992188 299.6220397949219 575.3310546875 307.7295837402344 571.8973999023438 C 312.9942626953125 569.099609375 315.30145263671875 567.5801391601562 314.9502868652344 567.6666870117188 C 312.47833251953125 569.2391967773438 308.55596923828125 571.60107421875 303.71868896484375 574.1589965820312 C 298.4062194824219 576.4434204101562 292.9492492675781 577.9752807617188 287.5145568847656 578.685791015625 C 282.50335693359375 577.9859619140625 278.07489013671875 575.7855224609375 273.9899597167969 572.5214233398438 C 270.488525390625 568.1113891601562 268.046142578125 562.4905395507812 267.1725158691406 555.74560546875 C 266.9515075683594 547.7537231445312 267.6770935058594 540.7567138671875 268.2146911621094 534.1063842773438 C 263.55029296875 529.5274658203125 256.6715393066406 524.2789306640625 250.4047393798828 517.6405029296875 C 246.67501831054688 509.2896423339844 245.3716278076172 500.09149169921875 245.84246826171875 491.0364685058594 C 246.91563415527344 482.4900817871094 247.30972290039062 475.0477600097656 245.87525939941406 469.3971252441406 C 241.75559997558594 465.6108703613281 236.3099822998047 463.7435607910156 229.95925903320312 465.5580749511719 C 221.93832397460938 469.2603759765625 213.8316192626953 475.8924560546875 205.9513397216797 485.13922119140625 C 197.24362182617188 496.0799255371094 188.41482543945312 508.1164855957031 180.4582977294922 520.6304321289062 C 175.7284393310547 533.5323486328125 175.06687927246094 547.2902221679688 175.43276977539062 560.95556640625 C 174.69117736816406 572.7107543945312 174.54898071289062 581.0213012695312 178.95037841796875 585.4161987304688 C 187.1932830810547 586.0602416992188 197.00392150878906 584.1796264648438 206.2367706298828 582.224609375 C 212.80410766601562 581.7830200195312 215.29042053222656 582.9881591796875 212.79725646972656 585.4930419921875 C 205.8657684326172 586.9266967773438 196.10618591308594 586.8193359375 185.46640014648438 586.2151489257812 C 175.5515594482422 586.4681396484375 167.37684631347656 587.5599975585938 161.6553955078125 589.1095581054688 C 158.67111206054688 590.880859375 158.57498168945312 592.2023315429688 161.05628967285156 592.8300170898438 C 165.30462646484375 592.1527099609375 170.3302764892578 589.0936279296875 174.6066436767578 582.5399169921875 C 175.41607666015625 572.1739501953125 174.9579620361328 559.6040649414062 175.7075958251953 546.7614135742188 C 177.4990234375 534.5573120117188 175.72500610351562 523.2357788085938 171.92457580566406 512.5560302734375 C 169.30235290527344 502.58770751953125 168.8216094970703 493.36309814453125 169.54461669921875 485.1872863769531 C 169.8322296142578 478.4437255859375 169.011474609375 473.5035705566406 167.44580078125 470.51458740234375 C 165.836181640625 468.909912109375 164.92677307128906 468.5491027832031 165.15548706054688 469.19378662109375 C 166.65528869628906 470.6444396972656 169.73556518554688 472.35296630859375 174.538330078125 473.61944580078125 C 180.82620239257812 474.5589294433594 188.0998077392578 475.6532897949219 195.86273193359375 476.52777099609375 C 203.58511352539062 476.7276611328125 210.87013244628906 475.7093200683594 217.28807067871094 473.09014892578125 C 222.59864807128906 469.0248718261719 227.62022399902344 465.66693115234375 233.12298583984375 464.9275207519531 C 239.0565948486328 465.8305358886719 245.5054168701172 468.2459716796875 252.58387756347656 470.8198547363281 C 260.2953796386719 472.60235595703125 268.101318359375 473.9696350097656 275.6470031738281 474.7633361816406 C 282.6219482421875 474.7242431640625 288.6226501464844 472.79986572265625 293.3629150390625 467.7189636230469 C 297.6834411621094 459.5607604980469 301.7584533691406 449.4837646484375 305.6163635253906 438.1803894042969 C 308.98236083984375 426.4325866699219 311.7100830078125 414.7720031738281 313.5105285644531 403.7440490722656 C 314.5479431152344 394.05596923828125 314.374755859375 386.14697265625 312.5223388671875 380.63232421875 C 308.2978210449219 378.3986511230469 301.8235168457031 378.05828857421875 293.8418884277344 379.0398254394531 C 284.7492370605469 381.49639892578125 274.6177978515625 384.3325500488281 263.8565979003906 386.4527893066406 C 252.56764221191406 387.4678649902344 241.111572265625 387.77996826171875 230.24803161621094 387.33807373046875 C 220.5727081298828 386.21258544921875 212.04676818847656 384.75665283203125 204.71527099609375 383.9650573730469 C 199.3072967529297 383.3193359375 195.79827880859375 382.6053466796875 194.4310302734375 381.4697265625 C 195.28895568847656 380.1970520019531 197.95001220703125 379.1527099609375 202.1656951904297 378.10198974609375 C 207.93663024902344 377.1986999511719 215.02703857421875 376.6319274902344 223.06753540039062 376.2568664550781 C 231.70045471191406 375.8576354980469 240.78677368164062 375.5238342285156 250.39820861816406 375.4566955566406 C 260.29254150390625 375.91986083984375 270.16241455078125 376.6373596191406 279.98065185546875 377.4314270019531 C 289.76446533203125 378.11419677734375 299.55010986328125 378.4304504394531 309.20111083984375 378.84698486328125 C 318.86492919921875 379.5277404785156 328.60369873046875 380.28021240234375 320.9578552246094 371.2314758300781" stroke-width="0.0" fill="rgb(243, 197, 96)" opacity="0.9996131" stroke="rgb(131, 54, 218)" stroke-opacity="0.6647498" stroke-linecap="round" stroke-linejoin="round"/>
  </g>
</svg>
