<?xml version="1.0" ?>
<svg xmlns="http://www.w3.org/2000/svg" version="1.1" width="474" height="596">
  <defs/>
  <g>
    <path d="M 268.28680419921875 -1.266066551208496 C 268.7216491699219 -1.3140161037445068 269.0270690917969 -1.47788667678833 269.317626953125 -1.7368863821029663 C 269.6080322265625 -2.071049928665161 269.8638000488281 -2.43660306930542 270.10595703125 -2.8072171211242676 C 270.30767822265625 -3.2871475219726562 270.5091857910156 -3.7591512203216553 270.7200927734375 -4.173915863037109 C 271.048583984375 -4.462502956390381 271.4798889160156 -4.441054344177246 272.2159118652344 -4.030935764312744 C 273.5390319824219 -3.161871910095215 275.6907958984375 -2.158693313598633 278.78118896484375 -0.8935549855232239 C 283.13055419921875 0.38284921646118164 288.7955017089844 1.6400163173675537 295.6063537597656 3.3463919162750244 C 303.3820495605469 5.61257266998291 311.716064453125 8.286968231201172 320.0791931152344 11.732046127319336 C 328.5867614746094 15.843128204345703 337.0186462402344 20.052047729492188 345.0767822265625 24.627504348754883 C 353.1320495605469 29.507694244384766 361.1439514160156 35.31792068481445 369.20172119140625 41.69548797607422 C 376.91650390625 48.5197639465332 384.4619140625 55.42751693725586 391.7433166503906 62.63202667236328 C 398.282958984375 70.74070739746094 404.73388671875 79.15998840332031 411.35028076171875 87.52753448486328 C 416.9339904785156 96.33297729492188 422.6761779785156 104.45616912841797 427.6731262207031 112.27386474609375 C 430.9507141113281 120.50458526611328 432.2581787109375 128.65777587890625 431.1119689941406 136.79421997070312 C 427.38311767578125 145.06735229492188 421.90911865234375 153.22543334960938 415.2816467285156 161.0901641845703 C 407.95587158203125 168.52903747558594 400.3794860839844 175.82579040527344 393.10992431640625 183.4249725341797 C 385.57489013671875 190.64886474609375 377.6664733886719 197.09780883789062 369.5537109375 202.81088256835938 C 361.455078125 208.103515625 353.0743408203125 213.15504455566406 344.14056396484375 217.90951538085938 C 334.7236633300781 221.95901489257812 326.3204345703125 224.29055786132812 320.14959716796875 223.985595703125 C 318.4713134765625 220.56637573242188 321.1252746582031 215.0128631591797 326.69122314453125 208.30738830566406 C 333.8601379394531 201.3880615234375 341.6322326660156 194.3142547607422 349.1042785644531 187.05496215820312 C 355.4407653808594 179.55287170410156 360.48974609375 171.79611206054688 364.1995544433594 163.80459594726562 C 366.57806396484375 155.6543426513672 367.68603515625 147.45220947265625 367.5932922363281 139.33291625976562 C 366.3680114746094 131.4621124267578 364.1142272949219 124.02726745605469 360.93994140625 117.2210464477539 C 356.9524230957031 111.23788452148438 352.2082824707031 106.26335144042969 346.74481201171875 102.47101593017578 C 340.5841064453125 99.99874114990234 333.7445373535156 98.81234741210938 326.2461853027344 98.76681518554688 C 318.1260681152344 99.657958984375 309.48126220703125 101.28665924072266 300.4737548828125 103.29622650146484 C 291.3550720214844 105.24214172363281 282.45166015625 106.78221893310547 274.11083984375 107.7162094116211 C 266.66094970703125 107.96892547607422 260.3918762207031 107.50334167480469 255.50926208496094 106.44135284423828 C 251.9824981689453 105.23353576660156 249.57870483398438 104.46649932861328 247.94078063964844 104.62982177734375 C 246.61187744140625 106.08786010742188 244.78976440429688 108.80999755859375 241.582763671875 112.39178466796875 C 236.4663848876953 116.52559661865234 229.55462646484375 120.78599548339844 221.09768676757812 124.98461151123047 C 211.57168579101562 128.72756958007812 201.50096130371094 131.9549560546875 191.49270629882812 134.60894775390625 C 182.26084899902344 136.7294921875 174.33871459960938 138.3527374267578 168.11192321777344 139.59585571289062 C 163.82293701171875 140.75819396972656 160.9455108642578 142.1923065185547 158.87823486328125 144.21864318847656 C 157.01084899902344 147.14308166503906 154.8575439453125 151.1317901611328 152.45382690429688 156.15142822265625 C 150.1219024658203 162.08583068847656 148.36636352539062 168.78932189941406 147.93177795410156 176.08229064941406 C 149.66868591308594 183.77178955078125 153.5190887451172 191.6421661376953 159.28884887695312 199.47999572753906 C 166.59127807617188 207.09605407714844 174.98023986816406 214.3356170654297 183.91397094726562 221.0572967529297 C 192.69100952148438 227.17198181152344 200.583984375 232.61578369140625 206.82965087890625 237.336669921875 C 210.5585174560547 241.31671142578125 211.27505493164062 244.4414520263672 209.03033447265625 246.45140075683594 C 204.40086364746094 246.98631286621094 197.9749755859375 246.3673095703125 190.22816467285156 245.0475616455078 C 181.5851593017578 243.44029235839844 172.429443359375 241.93653869628906 163.09886169433594 240.83499145507812 C 153.8818359375 240.28126525878906 144.9322052001953 239.91412353515625 136.3696746826172 239.2530517578125 C 128.27993774414062 237.8942108154297 120.52630615234375 236.05345153808594 112.85421752929688 233.9866485595703 C 105.06041717529297 231.79380798339844 97.12109375 229.2520294189453 88.84874725341797 226.14520263671875 C 80.26367950439453 222.42417907714844 71.74981689453125 218.81297302246094 64.62507629394531 214.2455291748047 C 58.583248138427734 208.6982421875 54.67933654785156 202.96551513671875 53.88058853149414 195.60968017578125 C 53.86800765991211 186.94644165039062 54.481895446777344 178.0503387451172 56.978965759277344 169.2362060546875 C 58.408748626708984 160.07260131835938 60.29682159423828 151.49867248535156 63.14379119873047 143.57666015625 C 65.15514373779297 135.67083740234375 67.85956573486328 128.400634765625 71.1731185913086 121.26390838623047 C 74.38300323486328 113.85810089111328 78.26179504394531 105.87559509277344 83.13658905029297 97.7487564086914 C 88.2759017944336 89.447998046875 93.79971313476562 81.15084838867188 100.40287780761719 73.36825561523438 C 107.11410522460938 65.08793640136719 114.35985565185547 57.09209060668945 122.7658462524414 50.24552917480469 C 130.67645263671875 43.18439483642578 138.74807739257812 37.105010986328125 146.5554656982422 31.576940536499023 C 154.04238891601562 26.79768180847168 162.20240783691406 24.44112777709961 171.37142944335938 23.92511558532715 C 181.011474609375 23.91057777404785 190.14385986328125 24.583797454833984 198.3594207763672 26.83578109741211 C 205.17123413085938 29.01544761657715 210.03842163085938 29.755226135253906 213.57008361816406 28.0771427154541 C 217.23312377929688 29.45901870727539 221.48118591308594 29.587675094604492 226.5707550048828 26.46507453918457 C 232.67286682128906 19.863487243652344 240.19427490234375 12.59428596496582 249.6053466796875 7.073269367218018 C 259.35980224609375 2.2115328311920166 269.60888671875 -1.8179653882980347 268.28680419921875 -1.266066551208496" stroke-width="0.0" fill="rgb(64, 38, 31)" opacity="0.9999962" stroke="rgb(189, 215, 162)" stroke-opacity="0.6611949" stroke-linecap="round" stroke-linejoin="round"/>
    <path d="M 316.55731201171875 221.69393920898438 C 314.44403076171875 222.7186737060547 312.22802734375 223.83941650390625 309.7843017578125 225.1162109375 C 307.0169677734375 226.59622192382812 303.9359436035156 228.3140869140625 300.6666259765625 230.25372314453125 C 297.4210510253906 232.36083984375 294.5107727050781 234.62265014648438 292.4302062988281 236.8428497314453 C 291.9006042480469 238.75758361816406 293.7462158203125 240.08438110351562 298.6203918457031 240.81494140625 C 307.0626525878906 241.36146545410156 318.8921203613281 242.86895751953125 333.7389221191406 248.00350952148438 C 350.98095703125 256.994384765625 368.8691711425781 267.4228515625 385.4759216308594 277.2667541503906 C 398.8548889160156 285.4181823730469 407.2421875 290.7194519042969 410.02777099609375 293.0229187011719 C 407.44378662109375 293.1988220214844 401.2261962890625 292.65093994140625 393.61407470703125 292.7701110839844 C 386.8100280761719 294.4318542480469 382.79150390625 298.2051696777344 382.6801452636719 303.9670715332031 C 386.2193908691406 311.22149658203125 392.3462829589844 319.1696472167969 399.7918395996094 326.839111328125 C 407.07672119140625 333.1725769042969 412.4836120605469 337.382080078125 414.3226623535156 338.885009765625 C 411.4683532714844 337.5270690917969 403.70489501953125 333.6571960449219 391.5867004394531 328.3600769042969 C 376.284423828125 323.0304260253906 359.6466979980469 319.1470947265625 343.8997497558594 318.2295837402344 C 331.2518005371094 321.67718505859375 323.9084167480469 330.2556457519531 321.9625244140625 343.56536865234375 C 322.56915283203125 359.5965576171875 320.3066711425781 376.6865234375 314.2482604980469 394.2626953125 C 307.8904724121094 412.7720642089844 301.466796875 431.2938232421875 295.7561950683594 449.42816162109375 C 291.1172790527344 466.4172058105469 287.8981628417969 481.8363342285156 285.5483093261719 495.1592712402344 C 282.7880554199219 506.015869140625 278.9460754394531 514.5076293945312 273.92425537109375 520.9354248046875 C 268.1063537597656 525.9087524414062 262.331298828125 530.3687133789062 257.61395263671875 535.21044921875 C 254.9619903564453 541.0029296875 255.20643615722656 547.9933471679688 258.6632995605469 555.7949829101562 C 265.1044616699219 563.7083129882812 274.1046447753906 570.8496704101562 284.7270812988281 576.3037719726562 C 295.7268371582031 579.2086791992188 305.7237243652344 580.3193969726562 313.3778076171875 580.47021484375 C 317.47906494140625 580.4248657226562 317.3958435058594 580.5655517578125 313.2914733886719 580.6238403320312 C 305.8338623046875 580.2566528320312 295.9194641113281 578.9183349609375 284.6241760253906 575.9583129882812 C 273.0522766113281 570.7197875976562 262.2914123535156 562.9146118164062 253.28543090820312 552.5079956054688 C 246.7379150390625 539.822021484375 242.94583129882812 525.5096435546875 241.75238037109375 510.43084716796875 C 242.34254455566406 495.5793151855469 243.20257568359375 482.0878601074219 242.3467559814453 471.456298828125 C 237.2222442626953 465.17340087890625 230.17376708984375 463.1883850097656 221.7184295654297 465.14727783203125 C 212.6576690673828 469.4460754394531 204.0251922607422 474.6544494628906 196.69029235839844 479.4668884277344 C 191.25198364257812 483.5755920410156 188.06552124023438 487.31884765625 187.29183959960938 491.1924743652344 C 189.0400390625 495.8664855957031 193.07630920410156 501.9453430175781 198.4730682373047 509.8597412109375 C 204.01722717285156 519.58251953125 208.40960693359375 530.8675537109375 210.19296264648438 543.064697265625 C 207.816162109375 555.343994140625 201.6437530517578 566.7776489257812 192.2607879638672 576.4435424804688 C 180.46966552734375 583.44482421875 167.48143005371094 587.5440673828125 154.8783721923828 589.3685302734375 C 144.227783203125 589.6415405273438 137.0069122314453 588.9752807617188 134.291748046875 587.7836303710938 C 136.154296875 586.1905517578125 141.8761749267578 584.0376586914062 150.64329528808594 581.1419677734375 C 161.28761291503906 577.3959350585938 172.49786376953125 572.7799682617188 182.970947265625 567.4279174804688 C 191.5534210205078 561.600341796875 197.27377319335938 555.5941772460938 199.84906005859375 549.7276000976562 C 199.57411193847656 544.2595825195312 196.86476135253906 539.3323974609375 192.4232177734375 534.8226928710938 C 187.04249572753906 530.538818359375 181.5190887451172 525.9970703125 176.59423828125 520.5333251953125 C 172.76773071289062 513.4208374023438 170.16781616210938 504.0776672363281 168.6259307861328 492.173828125 C 167.64418029785156 477.6728820800781 166.4416046142578 461.0078430175781 164.41368103027344 442.90850830078125 C 161.01202392578125 424.2136535644531 155.6600341796875 405.8476867675781 147.89207458496094 388.71527099609375 C 137.82664489746094 373.7965393066406 126.4842758178711 361.876220703125 115.02082824707031 353.5608825683594 C 104.58158111572266 349.1455383300781 96.35560607910156 347.9602966308594 91.09239959716797 348.75140380859375 C 89.01032257080078 350.01385498046875 89.67742156982422 350.6513977050781 92.27530670166016 349.8257141113281 C 95.77901458740234 347.0979919433594 99.10173034667969 342.4541320800781 101.32555389404297 336.1012878417969 C 101.66144561767578 328.2838439941406 99.89433288574219 319.302734375 96.36817932128906 309.4362487792969 C 92.14612579345703 298.9715270996094 90.32117462158203 288.1738586425781 94.78372955322266 277.2351989746094 C 108.81129455566406 265.9127502441406 127.062744140625 254.8434295654297 145.5078582763672 247.2056884765625 C 159.0177459716797 241.77471923828125 168.41598510742188 242.28880310058594 173.4686737060547 247.80471801757812 C 173.45452880859375 257.781494140625 170.31796264648438 270.8467712402344 165.6209716796875 285.41180419921875 C 160.61073303222656 299.9226989746094 156.35888671875 313.1634826660156 153.5421600341797 324.0780944824219 C 152.49517822265625 331.77239990234375 153.28709411621094 335.71453857421875 155.83645629882812 335.5176696777344 C 159.9835662841797 331.3098449707031 165.43675231933594 323.5528869628906 171.58029174804688 313.040283203125 C 177.5855255126953 300.877197265625 182.88946533203125 288.18572998046875 187.21803283691406 275.98663330078125 C 190.6296844482422 265.1860046386719 194.247802734375 256.2769775390625 199.2684783935547 249.58335876464844 C 206.5640869140625 245.04644775390625 215.99118041992188 242.11068725585938 227.08624267578125 240.05487060546875 C 239.31309509277344 238.30426025390625 252.28660583496094 236.6083526611328 265.7182922363281 234.8497314453125 C 279.3731689453125 232.98583984375 293.0887451171875 231.06106567382812 316.55731201171875 221.69393920898438" stroke-width="0.0" fill="rgb(232, 106, 164)" opacity="0.9999908" stroke="rgb(110, 111, 180)" stroke-opacity="0.8432935" stroke-linecap="round" stroke-linejoin="round"/>
    <path d="M 343.9256286621094 94.0642318725586 C 343.705322265625 93.73039245605469 343.7231750488281 93.55765533447266 344.062255859375 93.67688751220703 C 344.6911315917969 94.0858383178711 345.5430603027344 94.75341033935547 346.48663330078125 95.5947494506836 C 347.39422607421875 96.51319885253906 348.1836242675781 97.41175842285156 348.794189453125 98.17239379882812 C 349.196044921875 98.67015838623047 349.48828125 98.92181396484375 349.7878112792969 99.03208923339844 C 350.1960144042969 99.15391540527344 350.73101806640625 99.45675659179688 351.3838195800781 99.95536041259766 C 352.1305236816406 100.6022720336914 352.94708251953125 101.341796875 353.797607421875 102.12652587890625 C 354.6409912109375 102.92448425292969 355.45538330078125 103.73657989501953 356.24517822265625 104.6102294921875 C 357.0438232421875 105.63036346435547 357.9127197265625 106.89676666259766 358.9146423339844 108.5123291015625 C 360.11358642578125 110.57213592529297 361.4956970214844 113.127685546875 363.0052795410156 116.19596862792969 C 364.5690612792969 119.74984741210938 366.0948486328125 123.72135925292969 367.4913635253906 128.02670288085938 C 368.6619567871094 132.57904052734375 369.5263977050781 137.2945098876953 370.0311584472656 142.09466552734375 C 370.15277099609375 146.91024780273438 369.8865661621094 151.6926727294922 369.236328125 156.41876220703125 C 368.21087646484375 161.07769775390625 366.825439453125 165.67005920410156 365.10174560546875 170.2014617919922 C 363.06451416015625 174.67648315429688 360.74932861328125 179.086181640625 358.19512939453125 183.42555236816406 C 355.4294128417969 187.69573974609375 352.3871765136719 191.89126586914062 348.99224853515625 196.0066375732422 C 345.1805114746094 200.02755737304688 340.9707336425781 203.92233276367188 336.42987060546875 207.6601104736328 C 331.6616516113281 211.20904541015625 326.806640625 214.53318786621094 322.0138244628906 217.6095733642578 C 317.41253662109375 220.43392944335938 313.01019287109375 223.03851318359375 308.7742004394531 225.45286560058594 C 304.6613464355469 227.70156860351562 300.6102600097656 229.78802490234375 296.5740661621094 231.70950317382812 C 292.503662109375 233.46832275390625 288.3601989746094 235.0799102783203 284.1080322265625 236.56565856933594 C 279.7234802246094 237.94615173339844 275.18609619140625 239.2404022216797 270.47613525390625 240.4703369140625 C 265.5862731933594 241.6433868408203 260.51580810546875 242.75111389160156 255.2637481689453 243.7750244140625 C 249.83746337890625 244.69105529785156 244.27798461914062 245.44102478027344 238.61822509765625 245.94789123535156 C 232.89443969726562 246.12350463867188 227.21139526367188 245.89718627929688 221.62094116210938 245.2248992919922 C 216.22262573242188 244.0337371826172 211.181884765625 242.4266357421875 206.4445037841797 240.46653747558594 C 201.87127685546875 238.79222106933594 197.44447326660156 237.13023376464844 193.29183959960938 235.61349487304688 C 189.13870239257812 234.00917053222656 185.18533325195312 232.1578826904297 181.4254150390625 230.02146911621094 C 177.7925262451172 227.55010986328125 174.25613403320312 224.79859924316406 170.79443359375 221.85540771484375 C 167.32752990722656 218.81166076660156 163.85130310058594 215.6853485107422 160.43310546875 212.4176025390625 C 157.16162109375 208.92822265625 154.112548828125 205.1638946533203 151.31448364257812 201.11770629882812 C 148.797607421875 196.8568115234375 146.6216583251953 192.40411376953125 144.86085510253906 187.71791076660156 C 143.60679626464844 182.78993225097656 142.8974151611328 177.8354949951172 142.7738800048828 172.83511352539062 C 143.02944946289062 167.75518798828125 143.46990966796875 162.72434997558594 144.82106018066406 157.8636932373047 C 147.19512939453125 153.16737365722656 150.288330078125 148.74842834472656 153.4473876953125 144.6891326904297 C 156.05259704589844 140.958251953125 157.2754364013672 137.446044921875 157.96888732910156 134.37049865722656 C 159.22084045410156 132.42710876464844 160.92849731445312 132.53643798828125 163.29705810546875 133.69705200195312 C 166.0803985595703 135.18568420410156 169.34629821777344 135.9269561767578 173.18301391601562 135.61514282226562 C 177.5436553955078 134.48956298828125 182.17266845703125 132.76300048828125 186.9512481689453 130.76536560058594 C 191.5936279296875 128.74179077148438 196.0607147216797 126.97366333007812 200.2038116455078 125.43936920166016 C 204.0423126220703 124.10891723632812 207.5964813232422 122.96188354492188 210.94631958007812 121.96285247802734 C 214.24154663085938 121.0908432006836 217.6425018310547 120.28973388671875 221.26785278320312 119.52655792236328 C 225.18907165527344 118.77290344238281 229.32666015625 117.98249816894531 233.53622436523438 116.89105224609375 C 237.59666442871094 115.73258209228516 240.8076934814453 113.7447280883789 242.7943115234375 110.85702514648438 C 243.4607696533203 107.1421127319336 243.28994750976562 103.11105346679688 243.3407440185547 99.48702239990234 C 244.0655975341797 97.35108947753906 245.294921875 97.10045623779297 247.65155029296875 98.1031494140625 C 251.14364624023438 99.88982391357422 254.15992736816406 102.64066314697266 256.8525390625 105.30545043945312 C 260.3076171875 107.20967102050781 264.113037109375 108.10802459716797 268.38287353515625 107.48573303222656 C 273.26104736328125 106.5215835571289 278.4268493652344 105.51905059814453 283.7442626953125 104.3963851928711 C 289.11248779296875 103.19705963134766 294.4848937988281 101.92160034179688 299.6339416503906 100.63941955566406 C 304.0251770019531 99.52442169189453 307.2589416503906 98.96456146240234 309.0265808105469 99.17366790771484 C 309.1501770019531 99.95186614990234 308.37542724609375 101.48888397216797 307.9271240234375 103.9189682006836 C 308.5256652832031 106.80860900878906 310.0362854003906 110.06592559814453 312.2373962402344 113.68163299560547 C 314.8982849121094 117.57875061035156 317.80841064453125 121.51708984375 320.7737121582031 125.25979614257812 C 323.6926574707031 128.54067993164062 326.5341491699219 131.04611206054688 329.2401123046875 132.5115966796875 C 331.80767822265625 132.67405700683594 334.48004150390625 131.61341857910156 337.465576171875 130.34642028808594 C 340.558349609375 129.1773223876953 343.2144775390625 127.6641616821289 344.9312438964844 125.45423889160156 C 345.4682922363281 122.4012451171875 345.5125732421875 118.82220458984375 344.9947204589844 115.1832046508789 C 343.7132263183594 111.84846496582031 341.6185607910156 109.07195281982422 339.12359619140625 106.6925048828125 C 336.6031799316406 104.46758270263672 334.127685546875 102.18718719482422 331.6966857910156 99.81187438964844 C 329.3260498046875 97.44623565673828 326.90374755859375 95.18010711669922 343.9256286621094 94.0642318725586" stroke-width="0.0" fill="rgb(251, 188, 104)" opacity="0.9999999" stroke="rgb(30, 37, 75)" stroke-opacity="0.2533036" stroke-linecap="round" stroke-linejoin="round"/>
    <path d="M 167.36280822753906 383.0213317871094 C 168.97222900390625 382.4049377441406 170.57533264160156 381.8050537109375 172.1650848388672 381.2341003417969 C 173.73150634765625 380.7045593261719 175.26211547851562 380.233154296875 176.74234008789062 379.83941650390625 C 178.15802001953125 379.54486083984375 179.4959259033203 379.3694152832031 180.74351501464844 379.3283386230469 C 181.88987731933594 379.43060302734375 182.92991638183594 379.6748352050781 183.86270141601562 380.05224609375 C 184.69403076171875 380.552734375 185.43682861328125 381.1573791503906 186.10670471191406 381.84625244140625 C 186.7226104736328 382.5985412597656 187.3029022216797 383.3947448730469 187.86160278320312 384.2192687988281 C 188.41014099121094 385.0604553222656 188.95263671875 385.9065246582031 189.48880004882812 386.7484130859375 C 190.02394104003906 387.5679626464844 190.56288146972656 388.3656311035156 191.10589599609375 389.1420593261719 C 191.6477813720703 389.8934631347656 192.18292236328125 390.6162109375 192.7091064453125 391.309814453125 C 193.2256622314453 391.9731140136719 193.73548889160156 392.59527587890625 194.2582244873047 393.1665954589844 C 194.77000427246094 393.6491394042969 195.26145935058594 394.0106506347656 195.74298095703125 394.3330993652344 C 196.22335815429688 394.72845458984375 196.64695739746094 395.16912841796875 197.03793334960938 395.384033203125 C 197.42185974121094 395.45025634765625 197.70838928222656 395.4888610839844 197.94265747070312 395.55438232421875 C 198.11061096191406 395.6942443847656 198.3201446533203 395.9491271972656 198.5727081298828 396.217529296875 C 198.976318359375 396.499755859375 199.52133178710938 396.6894836425781 200.21807861328125 396.85272216796875 C 201.03477478027344 397.0278625488281 201.9375457763672 397.1744384765625 202.9469451904297 397.2596435546875 C 204.08628845214844 397.27557373046875 205.3389129638672 397.22918701171875 206.70501708984375 397.1062316894531 C 208.18931579589844 396.9532165527344 209.81919860839844 396.823974609375 211.62176513671875 396.7144775390625 C 213.66429138183594 396.6107482910156 215.9844512939453 396.5173034667969 218.5968780517578 396.4309387207031 C 221.5076904296875 396.32293701171875 224.7135467529297 396.16632080078125 228.2081756591797 395.9436340332031 C 231.9707794189453 395.6523742675781 235.96896362304688 395.30767822265625 240.15989685058594 394.9379577636719 C 244.4946746826172 394.58355712890625 248.8955535888672 394.2925109863281 253.29014587402344 394.0952453613281 C 257.60968017578125 394.0064697265625 261.7822570800781 394.0338134765625 265.77386474609375 394.17193603515625 C 269.5888366699219 394.4030456542969 273.25421142578125 394.69036865234375 276.81817626953125 394.9870910644531 C 280.3307800292969 395.2904052734375 283.83599853515625 395.68804931640625 287.36029052734375 396.25494384765625 C 290.8934326171875 397.09326171875 294.3755187988281 398.25909423828125 297.7157287597656 399.7908020019531 C 300.7884521484375 401.70489501953125 303.4517822265625 403.98492431640625 305.55572509765625 406.6119079589844 C 306.98333740234375 409.5426330566406 307.6376647949219 412.7091979980469 307.4704284667969 415.9952697753906 C 306.4883117675781 419.297119140625 304.8933410644531 422.52703857421875 302.89453125 425.6411437988281 C 300.6961669921875 428.6408386230469 298.48883056640625 431.5360412597656 296.4117126464844 434.3657531738281 C 294.552978515625 437.1936950683594 292.9451599121094 440.0898742675781 291.5644226074219 443.107666015625 C 290.3344421386719 446.24578857421875 289.15191650390625 449.4382629394531 287.9028625488281 452.5838623046875 C 286.4260559082031 455.5706787109375 284.6384582519531 458.2661437988281 282.4449768066406 460.5238342285156 C 279.75177001953125 462.1761779785156 276.6614990234375 463.2469177246094 273.2576599121094 463.7715148925781 C 269.6258850097656 463.7691345214844 265.9530334472656 463.26654052734375 262.4642639160156 462.1709289550781 C 259.33673095703125 460.4210205078125 256.62249755859375 458.08807373046875 254.32101440429688 455.35107421875 C 252.4263153076172 452.3451232910156 250.91903686523438 449.2159118652344 249.707275390625 446.0694885253906 C 248.59483337402344 443.0369567871094 247.39569091796875 440.27581787109375 246.03219604492188 437.9315185546875 C 244.47024536132812 436.11138916015625 242.68966674804688 434.88031005859375 240.70823669433594 434.2536315917969 C 238.57948303222656 434.18243408203125 236.43447875976562 434.3527526855469 234.4705810546875 434.5404052734375 C 232.8819122314453 434.6099548339844 231.77117919921875 434.61138916015625 231.1773681640625 434.63067626953125 C 231.0373992919922 434.69256591796875 231.19692993164062 434.85565185546875 231.5116729736328 435.1630554199219 C 231.8119659423828 435.638671875 231.96142578125 436.2838134765625 231.8285675048828 437.12127685546875 C 231.30665588378906 438.17340087890625 230.40040588378906 439.4717102050781 229.12294006347656 440.99810791015625 C 227.5254364013672 442.7721252441406 225.72531127929688 444.7553405761719 223.80662536621094 446.9170227050781 C 221.82875061035156 449.2212219238281 219.81301879882812 451.6175231933594 217.74208068847656 454.0135192871094 C 215.56546020507812 456.3437805175781 213.22479248046875 458.54705810546875 210.66880798339844 460.56915283203125 C 207.88186645507812 462.3712158203125 204.9359130859375 463.9208984375 201.83775329589844 465.1670227050781 C 198.57778930664062 466.04522705078125 195.1814422607422 466.5108947753906 191.7109832763672 466.553466796875 C 188.2244873046875 466.1811218261719 184.77651977539062 465.42340087890625 181.42344665527344 464.32696533203125 C 178.2217254638672 462.9561462402344 175.22035217285156 461.3844299316406 172.46043395996094 459.6968078613281 C 169.9745330810547 457.96636962890625 167.77943420410156 456.23931884765625 165.885498046875 454.5482177734375 C 164.29946899414062 452.902587890625 163.01742553710938 451.2900085449219 162.01695251464844 449.65716552734375 C 161.25350952148438 447.9034729003906 160.67010498046875 445.91552734375 160.2086944580078 443.586669921875 C 159.81399536132812 440.86865234375 159.4341583251953 437.757080078125 159.02789306640625 434.2644348144531 C 158.5696563720703 430.4174499511719 158.05287170410156 426.2614440917969 157.4955596923828 421.85797119140625 C 156.94354248046875 417.2900695800781 156.47152709960938 412.6593933105469 156.16722106933594 408.0749816894531 C 156.11956787109375 403.63824462890625 156.38046264648438 399.40460205078125 156.9790496826172 395.4057922363281 C 157.89601135253906 391.6382141113281 159.0801239013672 388.0761413574219 160.462646484375 384.68536376953125 C 161.96205139160156 381.4239501953125 163.50575256347656 378.2183837890625 167.36280822753906 383.0213317871094" stroke-width="0.0" fill="rgb(253, 76, 1)" opacity="0.99989563" stroke="rgb(105, 33, 99)" stroke-opacity="0.2633016" stroke-linecap="round" stroke-linejoin="round"/>
    <path d="M 254.98143005371094 376.35418701171875 C 255.0030517578125 376.4861755371094 255.05226135253906 376.61846923828125 255.0901336669922 376.75152587890625 C 255.1404571533203 376.88360595703125 255.32615661621094 377.0072021484375 255.76123046875 377.11602783203125 C 256.51324462890625 377.21343994140625 257.67633056640625 377.3014831542969 259.345703125 377.38299560546875 C 261.58148193359375 377.4678649902344 264.47906494140625 377.571044921875 268.2445068359375 377.7174072265625 C 272.96954345703125 377.9298400878906 278.2296447753906 378.047119140625 283.8377685546875 377.9944763183594 C 289.7052917480469 377.993896484375 295.6341857910156 378.34295654296875 301.56878662109375 379.1544189453125 C 307.2665710449219 379.2649841308594 311.5542907714844 380.2801208496094 313.75238037109375 383.84771728515625 C 314.2420349121094 389.85845947265625 313.6266174316406 397.87506103515625 312.4004821777344 407.23516845703125 C 310.62176513671875 417.2963562011719 308.3738708496094 427.6834716796875 305.8157958984375 437.84661865234375 C 303.10589599609375 447.42779541015625 300.22021484375 456.23876953125 297.31329345703125 464.2618408203125 C 294.5397644042969 471.4421691894531 291.9812927246094 477.7777099609375 289.70037841796875 483.54412841796875 C 288.2002868652344 488.8829650878906 287.6126708984375 493.8937072753906 287.7857360839844 498.60247802734375 C 288.1934509277344 503.0251770019531 288.6336364746094 507.0455017089844 288.77764892578125 510.59039306640625 C 288.2950744628906 513.7437133789062 286.9327697753906 516.5400390625 284.5085754394531 519.0054931640625 C 280.9573059082031 521.2335205078125 276.4314270019531 523.402587890625 271.1766357421875 525.701904296875 C 265.50665283203125 528.3062133789062 259.76483154296875 531.3643798828125 254.27154541015625 534.9492797851562 C 249.2917938232422 539.0357666015625 245.01284790039062 543.4197998046875 241.52456665039062 547.747314453125 C 238.83717346191406 551.6334228515625 236.9352569580078 554.6909790039062 235.75428771972656 556.5595703125 C 235.18325805664062 556.9426879882812 235.08529663085938 555.59765625 235.31353759765625 552.4296875 C 235.718017578125 547.5457153320312 236.3211212158203 541.2848510742188 237.17254638671875 534.0281372070312 C 238.3182830810547 526.14892578125 239.7285919189453 517.970458984375 241.30262756347656 509.75115966796875 C 242.87042236328125 501.6766662597656 244.2073974609375 493.8942565917969 245.04164123535156 486.5459289550781 C 245.11386108398438 479.8092041015625 244.1967010498047 473.89111328125 242.0902862548828 469.03875732421875 C 238.70687866210938 465.5324401855469 234.3414306640625 463.7221374511719 229.40188598632812 463.9263000488281 C 224.2838897705078 466.4069519042969 219.4222412109375 471.1344909667969 215.2325897216797 477.84197998046875 C 212.04339599609375 486.0685729980469 209.94570922851562 495.04638671875 208.9553680419922 503.9904479980469 C 208.9763946533203 512.1318969726562 209.4207763671875 519.13232421875 209.6117401123047 524.8814086914062 C 208.95474243164062 529.3666381835938 207.209228515625 532.6851806640625 204.31590270996094 534.9898681640625 C 200.3019256591797 536.45068359375 195.31993103027344 537.2081909179688 189.6538543701172 537.385986328125 C 183.66212463378906 537.0691528320312 177.75169372558594 536.2870483398438 172.33872985839844 535.0053100585938 C 167.82907104492188 533.15234375 164.5691375732422 530.6071166992188 162.7626495361328 527.2266235351562 C 162.4217529296875 522.8895874023438 163.30796813964844 517.4193725585938 165.0007781982422 510.8743591308594 C 166.8769989013672 503.5248718261719 168.13900756835938 495.68255615234375 168.076171875 487.6593322753906 C 166.19874572753906 479.8044738769531 162.20936584472656 472.4237365722656 157.91598510742188 464.8034362792969 C 157.33033752441406 455.6210021972656 155.7678985595703 445.63409423828125 154.81246948242188 435.2215576171875 C 153.94073486328125 425.1052551269531 153.61392211914062 415.99395751953125 154.1020050048828 408.75811767578125 C 155.294189453125 403.82916259765625 156.7874755859375 401.8330993652344 158.12576293945312 403.208251953125 C 158.9087677001953 407.83819580078125 159.29127502441406 414.74822998046875 159.4787139892578 423.13494873046875 C 159.7198944091797 432.1653747558594 160.83338928222656 440.9709777832031 163.65872192382812 448.7779235839844 C 168.23130798339844 455.16351318359375 174.04302978515625 459.994384765625 180.6048583984375 463.2026672363281 C 187.44686889648438 464.7660217285156 194.11924743652344 464.7005615234375 200.16256713867188 463.0169372558594 C 205.1486053466797 459.6958923339844 209.22341918945312 455.3399963378906 213.0031280517578 451.0125732421875 C 217.01617431640625 447.6712646484375 221.0034942626953 444.77471923828125 224.6991729736328 441.8996276855469 C 227.95819091796875 438.791015625 231.04910278320312 435.6955261230469 234.2146759033203 433.0074462890625 C 237.59945678710938 431.1040344238281 241.1522979736328 430.42633056640625 244.5599365234375 431.3587341308594 C 247.5000762939453 434.2005615234375 249.75823974609375 438.9856262207031 251.57774353027344 445.1933288574219 C 253.6415252685547 451.8034973144531 256.8734436035156 457.731201171875 261.9993896484375 461.9525451660156 C 268.9383239746094 464.0126647949219 276.2737121582031 463.6182556152344 282.7425842285156 460.21435546875 C 287.248779296875 453.3913879394531 290.775390625 444.8331604003906 294.65106201171875 436.1868591308594 C 299.15277099609375 428.7815246582031 302.99853515625 422.2159729003906 305.2656555175781 416.15130615234375 C 305.58514404296875 410.5771789550781 303.91192626953125 405.6405334472656 300.2191162109375 401.5739440917969 C 294.460205078125 398.67041015625 286.9493103027344 396.8793029785156 278.1092529296875 395.99212646484375 C 268.3708801269531 395.8662414550781 258.119384765625 396.35479736328125 247.75904846191406 397.3363952636719 C 237.6492156982422 398.5795593261719 227.97348022460938 399.7130126953125 218.9474334716797 400.3366394042969 C 210.77557373046875 400.052001953125 203.52699279785156 398.5400085449219 197.22926330566406 395.68438720703125 C 191.98751831054688 391.5965270996094 187.53587341308594 387.3102722167969 184.0476531982422 383.7594299316406 C 182.312744140625 381.23431396484375 183.05992126464844 379.5354309082031 186.25747680664062 378.5286560058594 C 191.54347229003906 378.092529296875 198.52395629882812 378.0976867675781 206.81414794921875 378.419677734375 C 216.05258178710938 378.9422607421875 225.93504333496094 379.5633239746094 236.22640991210938 380.2235412597656 C 246.71743774414062 380.8774719238281 257.26141357421875 381.5275573730469 254.98143005371094 376.35418701171875" stroke-width="0.0" fill="rgb(238, 81, 8)" opacity="0.99985397" stroke="rgb(177, 208, 209)" stroke-opacity="0.8791718" stroke-linecap="round" stroke-linejoin="round"/>
    <path d="M 187.5244140625 237.66368103027344 C 187.6990966796875 237.81617736816406 188.0079803466797 237.96238708496094 188.4810791015625 238.16372680664062 C 189.10202026367188 238.38714599609375 189.92782592773438 238.78884887695312 190.7972412109375 239.153076171875 C 192.0297088623047 239.38238525390625 193.29766845703125 239.71121215820312 194.69419860839844 240.03738403320312 C 196.08326721191406 240.26303100585938 197.26144409179688 240.41297912597656 198.4242401123047 240.70285034179688 C 199.64471435546875 241.41342163085938 200.8177032470703 242.62747192382812 201.8314971923828 244.14305114746094 C 202.47291564941406 245.9305419921875 202.17214965820312 248.3279266357422 200.879150390625 251.5638427734375 C 199.058837890625 255.64122009277344 196.73806762695312 260.7142333984375 195.19830322265625 266.5126953125 C 194.1925506591797 272.667236328125 193.758056640625 279.0166931152344 193.14022827148438 285.1155700683594 C 192.43612670898438 290.8053283691406 191.06802368164062 295.32177734375 187.9088134765625 298.64361572265625 C 183.93206787109375 301.7297668457031 179.69419860839844 304.97442626953125 175.97503662109375 308.7129821777344 C 173.3348846435547 313.48699951171875 171.16180419921875 318.64581298828125 168.89175415039062 323.9527282714844 C 166.99639892578125 329.1673583984375 165.19029235839844 334.2428894042969 163.64584350585938 339.3591003417969 C 161.5614471435547 344.18194580078125 159.9386749267578 348.7201232910156 158.6446990966797 353.5296936035156 C 157.65089416503906 358.6889953613281 156.26821899414062 363.45672607421875 154.6780548095703 367.8766784667969 C 154.03524780273438 372.04248046875 154.29669189453125 375.86322021484375 155.19955444335938 379.02508544921875 C 156.70138549804688 381.380859375 158.5159454345703 382.89837646484375 160.35328674316406 383.58587646484375 C 162.03257751464844 383.5623474121094 163.41921997070312 383.0643310546875 164.3263397216797 382.40283203125 C 164.57254028320312 381.8369140625 164.27090454101562 381.77777099609375 163.50665283203125 382.5998229980469 C 162.07049560546875 384.4865417480469 159.98606872558594 387.3638610839844 157.7636260986328 391.26934814453125 C 155.86544799804688 396.3496398925781 154.67861938476562 402.3607177734375 154.61614990234375 408.95367431640625 C 154.93275451660156 415.3424377441406 154.8943634033203 420.83441162109375 154.43402099609375 424.5631408691406 C 153.8319854736328 425.65301513671875 153.58753967285156 423.8564758300781 153.46792602539062 419.6468505859375 C 153.00511169433594 414.00006103515625 152.07350158691406 407.80816650390625 150.26882934570312 402.0702819824219 C 146.91554260253906 398.2323913574219 141.7934112548828 396.5853271484375 135.43869018554688 396.010986328125 C 129.1251983642578 394.2709655761719 123.49964904785156 390.6246032714844 119.15775299072266 385.27484130859375 C 115.67215728759766 379.1739501953125 114.41314697265625 372.6040954589844 114.2544937133789 365.6451416015625 C 113.43830108642578 359.4465026855469 113.2134017944336 354.6965637207031 112.32537078857422 351.4388732910156 C 109.84329223632812 349.6955871582031 106.15946960449219 349.41119384765625 101.4661636352539 350.29052734375 C 96.33425903320312 352.3266906738281 91.06678771972656 354.8716735839844 85.76319122314453 357.7915954589844 C 80.69708251953125 361.16668701171875 75.74041748046875 364.9403381347656 71.18457794189453 369.1596984863281 C 67.00162506103516 373.3880310058594 63.126869201660156 377.3038330078125 59.52029800415039 380.5884094238281 C 56.15584182739258 382.9678649902344 52.881065368652344 384.50927734375 49.796451568603516 385.46466064453125 C 46.842769622802734 386.1124267578125 43.97486114501953 386.7121887207031 41.66781234741211 387.8204345703125 C 39.956207275390625 389.9169616699219 38.7732048034668 393.04241943359375 36.80282211303711 395.8349304199219 C 33.0283088684082 396.77020263671875 28.335779190063477 396.142578125 23.70037078857422 394.4349365234375 C 20.007286071777344 392.0240783691406 17.198375701904297 389.18511962890625 14.96479320526123 386.09051513671875 C 13.021647453308105 382.6933288574219 10.987293243408203 379.1850891113281 8.553433418273926 375.7352294921875 C 6.089588165283203 371.9671936035156 4.391397476196289 367.8545837402344 4.317111968994141 363.19256591796875 C 6.846385478973389 357.6578369140625 11.783698081970215 351.7859802246094 17.247703552246094 345.7236328125 C 20.274452209472656 340.1054992675781 19.622896194458008 334.6317138671875 17.161903381347656 330.66253662109375 C 16.518911361694336 328.80084228515625 18.588741302490234 328.2884216308594 22.647375106811523 329.02105712890625 C 28.25843620300293 330.1725769042969 34.65507507324219 330.7876892089844 41.26072311401367 330.5347595214844 C 47.37803649902344 328.49224853515625 52.98419189453125 324.79779052734375 58.43254089355469 319.890869140625 C 63.38006591796875 313.5616760253906 69.07914733886719 307.22845458984375 75.50629425048828 301.34033203125 C 81.69933319091797 295.6788635253906 87.16625213623047 290.814208984375 92.5865478515625 288.4635925292969 C 97.5945053100586 287.9718322753906 102.10192108154297 288.7481689453125 106.21162414550781 290.73785400390625 C 110.10750579833984 293.6416320800781 113.58906555175781 296.982666015625 116.4938735961914 300.7442321777344 C 118.84109497070312 304.8690185546875 120.68951416015625 309.26715087890625 122.06784057617188 313.7797546386719 C 122.87184143066406 318.14556884765625 123.23719787597656 322.2718505859375 123.33650970458984 326.03253173828125 C 123.25141143798828 329.3058166503906 123.2003173828125 332.02142333984375 123.39905548095703 334.09033203125 C 124.00827026367188 335.4932556152344 125.14912414550781 336.2316589355469 126.8995590209961 336.2603454589844 C 129.3313751220703 335.6038818359375 132.3656005859375 334.5440673828125 136.0067901611328 332.9898986816406 C 140.041748046875 331.1429138183594 143.99249267578125 328.8664855957031 147.64361572265625 326.00384521484375 C 150.6138153076172 322.1913146972656 152.59095764160156 317.5298156738281 153.96237182617188 312.33673095703125 C 155.7215118408203 306.82293701171875 157.78421020507812 301.695068359375 158.4473419189453 296.822265625 C 157.4921875 292.00567626953125 155.87403869628906 287.1041259765625 155.48695373535156 281.8547668457031 C 156.7235107421875 276.5312194824219 159.1474151611328 271.39874267578125 162.064453125 266.3517761230469 C 164.80313110351562 261.5458068847656 167.69570922851562 257.26788330078125 170.53250122070312 253.61859130859375 C 173.0441131591797 250.363525390625 174.78993225097656 247.0593719482422 176.13038635253906 243.68360900878906 C 177.14236450195312 240.14544677734375 178.09613037109375 236.50157165527344 187.5244140625 237.66368103027344" stroke-width="0.0" fill="rgb(158, 128, 182)" opacity="0.9999996" stroke="rgb(217, 101, 153)" stroke-opacity="0.6880403" stroke-linecap="round" stroke-linejoin="round"/>
    <path d="M 303.6839294433594 377.5823669433594 C 305.386474609375 377.243896484375 307.05987548828125 377.24517822265625 308.65472412109375 377.58905029296875 C 310.1105651855469 378.332275390625 311.3553771972656 379.6283264160156 312.31695556640625 381.6023254394531 C 312.93182373046875 384.3358154296875 313.1491394042969 387.83056640625 312.9335632324219 392.0560302734375 C 312.3187255859375 396.9818420410156 311.3878173828125 402.54425048828125 310.2114562988281 408.6519470214844 C 308.8471374511719 415.220947265625 307.3249816894531 422.21160888671875 305.6148376464844 429.6406555175781 C 303.6724853515625 437.5211486816406 301.52783203125 445.7676696777344 299.15093994140625 454.2657470703125 C 296.6571350097656 462.91485595703125 294.05126953125 471.61090087890625 291.37811279296875 480.185302734375 C 288.9685974121094 488.2979736328125 287.36834716796875 495.3621826171875 287.2184143066406 501.0218505859375 C 289.2143859863281 504.18133544921875 293.3499450683594 505.1187438964844 298.3572692871094 506.5863037109375 C 301.84906005859375 511.05908203125 301.9042053222656 515.0870361328125 297.6196594238281 517.6884765625 C 293.1414794921875 520.828369140625 292.4330749511719 525.6082763671875 295.91754150390625 531.721923828125 C 302.3096008300781 537.9575805664062 310.1014404296875 543.7432250976562 318.02337646484375 549.19287109375 C 325.0523986816406 554.2816162109375 330.6844482421875 559.082275390625 334.6014099121094 563.701171875 C 336.59954833984375 568.100830078125 336.697265625 572.1980590820312 334.9973449707031 575.8528442382812 C 331.58270263671875 578.8882446289062 326.61907958984375 581.1998291015625 320.3514709472656 582.802978515625 C 313.0360107421875 583.7669677734375 304.91632080078125 584.19873046875 296.2800598144531 584.24609375 C 287.4096984863281 584.0248413085938 278.4808654785156 583.60205078125 269.67645263671875 582.9940185546875 C 261.21240234375 582.170654296875 253.3551483154297 580.9591674804688 246.33197021484375 579.195556640625 C 240.4976348876953 576.6779174804688 236.23231506347656 573.0457153320312 233.79244995117188 568.1480102539062 C 233.33485412597656 561.9971313476562 233.1593780517578 554.740234375 233.5807647705078 547.22998046875 C 234.72122192382812 539.5454711914062 235.17547607421875 532.1039428710938 233.7026824951172 525.8720703125 C 230.58282470703125 521.5339965820312 228.59686279296875 517.7431030273438 229.63827514648438 513.7318725585938 C 233.54832458496094 509.0957336425781 237.93569946289062 503.591796875 241.64404296875 496.91802978515625 C 244.130126953125 489.4595642089844 245.1885223388672 482.0442199707031 244.875244140625 475.3426513671875 C 243.1876220703125 469.8032531738281 240.36911010742188 465.7459411621094 236.65933227539062 463.38275146484375 C 232.38150024414062 462.7973937988281 227.84356689453125 464.055908203125 223.36573791503906 467.1766662597656 C 219.19387817382812 471.91412353515625 215.58160400390625 477.95782470703125 212.76666259765625 484.8660583496094 C 210.9456329345703 491.99725341796875 210.68028259277344 498.7892150878906 212.22581481933594 504.8800048828125 C 215.40330505371094 509.8567199707031 217.8397979736328 514.20361328125 217.2763214111328 518.2230834960938 C 214.5274200439453 522.097900390625 212.97769165039062 526.3309326171875 213.53533935546875 531.99560546875 C 214.25152587890625 538.8521118164062 214.57220458984375 546.090087890625 214.3416748046875 553.3836669921875 C 213.34756469726562 560.3834228515625 211.4673309326172 566.6292114257812 208.68679809570312 572.0929565429688 C 205.5448760986328 577.2453002929688 202.0753936767578 582.0046997070312 197.34803771972656 585.7268676757812 C 191.02310180664062 587.9943237304688 182.90501403808594 588.3955688476562 175.28477478027344 589.4196166992188 C 168.46861267089844 592.1165161132812 162.01039123535156 594.3738403320312 154.7916259765625 595.5601806640625 C 147.52915954589844 595.96337890625 140.3851776123047 595.8317260742188 133.29544067382812 595.2752685546875 C 126.73921203613281 593.583740234375 121.17459869384766 590.4208984375 117.46186065673828 585.6007080078125 C 116.41397857666016 579.5341186523438 119.5270004272461 573.4678955078125 126.39559173583984 568.0144653320312 C 135.13609313964844 562.9799194335938 144.1772003173828 558.0737915039062 151.79905700683594 552.7648315429688 C 156.49896240234375 546.6923828125 158.3419647216797 539.9728393554688 158.0209197998047 532.8811645507812 C 156.29391479492188 525.8909912109375 154.768310546875 519.4555053710938 155.45901489257812 513.6732788085938 C 158.79727172851562 508.21923828125 162.68052673339844 502.5404052734375 165.5330047607422 495.9975891113281 C 166.7724151611328 488.4515686035156 166.08497619628906 480.34014892578125 164.0073699951172 472.1043395996094 C 161.51560974121094 464.4928894042969 159.56967163085938 457.5962219238281 158.4610595703125 451.9581298828125 C 158.0373077392578 447.97308349609375 157.97100830078125 445.7557373046875 157.98646545410156 445.35552978515625 C 157.99969482421875 446.66009521484375 158.0038604736328 449.38665771484375 158.10018920898438 453.19500732421875 C 158.75192260742188 457.7057800292969 160.36500549316406 462.3550109863281 163.498291015625 466.6182556152344 C 168.49002075195312 469.7950134277344 174.70985412597656 472.23382568359375 181.6876678466797 473.9729309082031 C 189.22998046875 474.69000244140625 197.0523223876953 474.8586120605469 204.6193084716797 474.4375305175781 C 211.4937286376953 473.4329833984375 217.4439239501953 471.9325256347656 222.22598266601562 469.9897766113281 C 225.35169982910156 467.63818359375 227.32955932617188 465.50970458984375 228.87774658203125 464.061767578125 C 230.70648193359375 463.5984802246094 233.02587890625 463.8526611328125 236.16294860839844 464.7304382324219 C 240.32879638671875 466.08087158203125 245.62551879882812 467.6502685546875 251.97471618652344 469.1441955566406 C 259.2179870605469 470.4290466308594 266.8666687011719 471.43621826171875 274.45452880859375 472.07177734375 C 281.622314453125 472.1176452636719 288.0878601074219 471.2704772949219 293.5146179199219 469.1300354003906 C 297.51239013671875 465.391357421875 300.2789611816406 460.3473205566406 302.33074951171875 454.2602233886719 C 304.07293701171875 447.3434753417969 305.7107849121094 439.9190673828125 307.414794921875 432.2828674316406 C 309.2958679199219 424.655029296875 311.06512451171875 417.1045227050781 312.5047912597656 409.6407775878906 C 313.4891052246094 402.2362060546875 314.1274108886719 394.8424987792969 314.5723571777344 387.48675537109375 C 314.9266052246094 380.28900146484375 315.2400207519531 373.35345458984375 303.6839294433594 377.5823669433594" stroke-width="0.0" fill="rgb(241, 204, 92)" opacity="0.9999995" stroke="rgb(130, 133, 80)" stroke-opacity="0.9875307" stroke-linecap="round" stroke-linejoin="round"/>
    <path d="M 324.1658935546875 216.1604461669922 C 323.464599609375 217.2235565185547 322.7229309082031 218.22799682617188 321.9413146972656 219.0863494873047 C 321.1363525390625 219.77210998535156 320.3436584472656 220.36441040039062 319.6031799316406 220.94326782226562 C 318.915283203125 221.55979919433594 318.2458190917969 222.21600341796875 317.5743408203125 222.90948486328125 C 316.8966064453125 223.6158905029297 316.23712158203125 224.3050994873047 315.5914306640625 224.9366912841797 C 314.9583740234375 225.48692321777344 314.3487548828125 225.9894561767578 313.7796325683594 226.47659301757812 C 313.2595520019531 226.94606018066406 312.7221984863281 227.3931884765625 312.0611572265625 227.83570861816406 C 311.2083740234375 228.30767822265625 310.0931396484375 228.84707641601562 308.6183776855469 229.48162841796875 C 306.68048095703125 230.22686767578125 304.2950134277344 231.05636596679688 301.53729248046875 231.9770050048828 C 298.45556640625 233.02333068847656 295.3374328613281 234.19216918945312 292.5517883300781 235.62242126464844 C 290.4851379394531 237.47019958496094 289.5921630859375 239.84764099121094 289.9540710449219 242.7877960205078 C 291.5247802734375 246.32501220703125 293.8084716796875 250.34402465820312 296.58770751953125 254.7751007080078 C 299.5628662109375 259.6509704589844 302.5196533203125 265.0323486328125 305.2325439453125 270.89007568359375 C 307.6825866699219 277.17010498046875 309.9524230957031 283.7955627441406 312.17071533203125 290.65753173828125 C 314.54534912109375 297.5382995605469 317.2494812011719 304.1044006347656 320.427001953125 310.05999755859375 C 324.2261047363281 315.0340881347656 328.7349853515625 318.50750732421875 333.86981201171875 320.2049255371094 C 339.2522888183594 320.2140197753906 344.3200378417969 318.5201416015625 348.6290283203125 315.1785888671875 C 351.99884033203125 310.6119384765625 354.863525390625 305.2830505371094 357.02667236328125 299.3227233886719 C 359.2508544921875 293.39154052734375 361.2375183105469 287.67242431640625 363.12030029296875 282.0804138183594 C 364.9387512207031 277.1893310546875 365.0668640136719 272.5494079589844 363.335205078125 268.15142822265625 C 360.1002197265625 263.9712829589844 355.8512878417969 260.10845947265625 350.7878723144531 256.7763671875 C 345.1290588378906 253.83090209960938 339.1396789550781 251.29092407226562 333.1116027832031 249.22369384765625 C 327.4687194824219 247.57615661621094 322.819091796875 246.27125549316406 319.7427673339844 245.3258819580078 C 318.5513000488281 244.85499572753906 319.3456115722656 244.9608612060547 322.0484313964844 245.76956176757812 C 326.405029296875 247.3585968017578 332.0270690917969 249.6182098388672 338.48406982421875 252.40628051757812 C 345.336669921875 255.55645751953125 352.2343444824219 259.02691650390625 359.02557373046875 262.8287048339844 C 365.6779479980469 266.939208984375 372.3922424316406 271.21063232421875 379.3499450683594 275.5621337890625 C 386.7779235839844 279.8440246582031 394.7651062011719 283.8515930175781 403.359375 287.2515869140625 C 412.39501953125 289.7811584472656 420.89697265625 290.3878479003906 428.5417175292969 288.86370849609375 C 434.90594482421875 284.942138671875 440.264892578125 280.4314880371094 445.67236328125 279.48046875 C 448.8996276855469 283.03656005859375 448.1047668457031 289.7370910644531 446.8550109863281 297.7541809082031 C 452.4411926269531 303.54052734375 460.6534423828125 308.61602783203125 468.61578369140625 313.5092468261719 C 472.5285339355469 317.9158935546875 470.767822265625 321.1325378417969 465.07586669921875 323.2898254394531 C 462.1883544921875 326.2609558105469 463.86175537109375 331.43450927734375 465.9259033203125 337.5144958496094 C 462.995849609375 342.3539123535156 455.7019348144531 344.8675537109375 448.07086181640625 346.06640625 C 443.641357421875 346.3415832519531 442.7784118652344 350.5350646972656 441.897705078125 356.4266052246094 C 438.0877685546875 358.8475341796875 433.5352478027344 357.5179138183594 429.198486328125 352.0876770019531 C 424.7840270996094 345.5686340332031 418.6446228027344 340.2849426269531 411.30975341796875 335.9096984863281 C 403.5539245605469 332.34814453125 395.79736328125 329.3826904296875 387.9850158691406 327.2394104003906 C 380.1231384277344 325.6312561035156 372.28851318359375 324.3119201660156 364.5688171386719 323.0845947265625 C 357.0821838378906 321.9837341308594 349.96075439453125 321.2206726074219 343.3462829589844 321.07379150390625 C 337.417236328125 321.8465270996094 332.3073425292969 323.73858642578125 328.16119384765625 326.7178649902344 C 325.02294921875 330.5648193359375 322.85107421875 334.89996337890625 321.5184020996094 339.2832336425781 C 320.8660888671875 343.2729797363281 320.716796875 346.4556884765625 320.9153747558594 348.4466552734375 C 321.2297058105469 348.9478759765625 321.3993225097656 347.83587646484375 321.19580078125 345.2121276855469 C 320.58807373046875 341.3117370605469 319.5249328613281 336.44183349609375 317.9443664550781 330.8990783691406 C 315.77642822265625 324.94635009765625 313.0577087402344 318.77764892578125 309.8486328125 312.6139831542969 C 306.2220764160156 306.6747741699219 302.29705810546875 300.9774475097656 298.2126770019531 295.4892272949219 C 294.109130859375 290.16766357421875 290.0963134765625 284.957763671875 286.2830810546875 279.7999572753906 C 282.77227783203125 274.6434326171875 279.6463317871094 269.44903564453125 276.9314880371094 264.20391845703125 C 274.5876159667969 258.9263610839844 272.39483642578125 253.88218688964844 270.17254638671875 249.41050720214844 C 267.67803955078125 245.77798461914062 265.0317687988281 243.57086181640625 262.0780029296875 243.2240753173828 C 258.8984375 244.67221069335938 255.62086486816406 247.6163330078125 251.76254272460938 251.1824493408203 C 246.6879425048828 253.82118225097656 240.91964721679688 254.8856964111328 234.7923126220703 254.7345428466797 C 228.6394500732422 254.22900390625 223.1740264892578 252.98794555664062 218.98255920410156 250.76412963867188 C 216.47531127929688 248.19290161132812 215.75375366210938 246.19387817382812 217.5548858642578 245.0330810546875 C 221.82803344726562 243.95115661621094 227.93222045898438 242.92019653320312 235.34825134277344 242.06031799316406 C 243.53689575195312 241.29359436035156 252.14007568359375 240.40028381347656 260.8233337402344 239.19091796875 C 269.5013732910156 237.61338806152344 278.06976318359375 235.70242309570312 286.36968994140625 233.44461059570312 C 294.33160400390625 230.78897094726562 301.8721618652344 227.68603515625 309.066162109375 224.09661865234375 C 315.9820251464844 220.0691680908203 322.74176025390625 215.86740112304688 324.1658935546875 216.1604461669922" stroke-width="0.0" fill="rgb(246, 184, 112)" opacity="1.0" stroke="rgb(250, 88, 190)" stroke-opacity="0.92301816" stroke-linecap="round" stroke-linejoin="round"/>
    <path d="M 311.0 104.0 C 312.0 104.0 313.0 104.0 314.0 104.0 C 315.0 105.0 316.0 105.0 317.0 105.0 C 318.0 105.0 319.0 105.0 320.0 106.0 C 321.0 106.0 322.0 107.0 323.0 108.0 C 324.0 108.0 325.0 109.0 325.0 110.0 C 326.0 111.0 327.0 112.0 327.0 113.0 C 328.0 114.0 328.0 115.0 328.0 116.0 C 329.0 117.0 329.0 118.0 329.0 119.0 C 329.0 120.0 329.0 121.0 329.0 122.0 C 329.0 123.0 329.0 124.0 329.0 125.0 C 329.0 126.0 329.0 127.0 329.0 128.0 C 328.0 129.0 327.0 129.0 326.0 129.0 C 325.0 128.0 324.0 127.0 323.0 127.0 C 322.0 126.0 322.0 125.0 321.0 124.0 C 320.0 123.0 319.0 122.0 318.0 121.0 C 318.0 120.0 317.0 119.0 316.0 118.0 C 316.0 117.0 315.0 116.0 314.0 115.0 C 313.0 114.0 313.0 113.0 312.0 112.0 C 311.0 111.0 311.0 110.0 310.0 109.0 C 310.0 108.0 310.0 107.0 309.0 106.0 C 309.0 105.0 309.0 104.0 311.0 104.0" stroke-width="0.0" fill="rgb(145, 69, 23)" opacity="1.0" stroke="rgb(158, 116, 239)" stroke-opacity="0.10871427" stroke-linecap="round" stroke-linejoin="round"/>
    <path d="M 283.0 531.0 C 284.0 531.0 284.0 532.0 284.0 533.0 C 283.0 534.0 282.0 534.0 281.0 534.0 C 280.0 535.0 280.0 536.0 281.0 537.0 C 282.0 537.0 283.0 537.0 284.0 537.0 C 285.0 537.0 286.0 537.0 286.0 538.0 C 286.0 539.0 286.0 540.0 285.0 541.0 C 284.0 541.0 283.0 542.0 282.0 542.0 C 281.0 542.0 280.0 541.0 279.0 542.0 C 279.0 543.0 280.0 544.0 281.0 545.0 C 281.0 546.0 281.0 547.0 280.0 548.0 C 280.0 549.0 280.0 550.0 280.0 551.0 C 280.0 552.0 279.0 553.0 279.0 554.0 C 279.0 555.0 279.0 556.0 280.0 557.0 C 281.0 557.0 282.0 558.0 283.0 557.0 C 285.0 557.0 286.0 559.0 287.0 562.0 C 290.0 563.0 293.0 563.0 296.0 563.0 C 299.0 563.0 302.0 563.0 304.0 561.0 C 302.0 559.0 305.0 560.0 308.0 560.0 C 311.0 561.0 313.0 563.0 315.0 562.0 C 316.0 560.0 319.0 560.0 318.0 558.0 C 318.0 555.0 319.0 552.0 322.0 553.0 C 321.0 553.0 319.0 555.0 320.0 558.0 C 323.0 558.0 325.0 556.0 327.0 557.0 C 329.0 559.0 332.0 561.0 334.0 564.0 C 334.0 567.0 331.0 568.0 328.0 569.0 C 325.0 569.0 322.0 569.0 319.0 570.0 C 316.0 570.0 314.0 569.0 313.0 566.0 C 311.0 567.0 309.0 569.0 307.0 570.0 C 304.0 570.0 301.0 570.0 298.0 569.0 C 295.0 569.0 292.0 569.0 289.0 569.0 C 286.0 569.0 283.0 569.0 280.0 569.0 C 277.0 569.0 274.0 569.0 271.0 569.0 C 268.0 569.0 265.0 569.0 262.0 569.0 C 259.0 568.0 256.0 567.0 253.0 567.0 C 250.0 565.0 248.0 564.0 246.0 563.0 C 244.0 564.0 245.0 561.0 246.0 561.0 C 249.0 561.0 252.0 560.0 255.0 559.0 C 258.0 559.0 261.0 559.0 264.0 560.0 C 267.0 560.0 270.0 560.0 271.0 557.0 C 272.0 555.0 274.0 553.0 276.0 551.0 C 276.0 548.0 274.0 546.0 272.0 544.0 C 269.0 544.0 267.0 543.0 265.0 541.0 C 262.0 541.0 259.0 541.0 256.0 542.0 C 255.0 544.0 252.0 544.0 249.0 544.0 C 249.0 542.0 252.0 542.0 255.0 541.0 C 256.0 538.0 253.0 537.0 250.0 537.0 C 247.0 537.0 244.0 537.0 241.0 538.0 C 240.0 541.0 243.0 542.0 243.0 544.0 C 240.0 545.0 240.0 548.0 240.0 551.0 C 240.0 554.0 240.0 557.0 240.0 560.0 C 241.0 563.0 239.0 560.0 239.0 557.0 C 239.0 554.0 239.0 551.0 239.0 548.0 C 239.0 545.0 240.0 542.0 240.0 539.0 C 240.0 536.0 240.0 533.0 241.0 532.0 C 244.0 532.0 246.0 535.0 249.0 535.0 C 252.0 534.0 254.0 536.0 257.0 535.0 C 260.0 535.0 263.0 535.0 266.0 535.0 C 267.0 538.0 270.0 538.0 271.0 535.0 C 270.0 534.0 273.0 534.0 276.0 533.0 C 279.0 532.0 282.0 531.0 283.0 531.0" stroke-width="0.0" fill="rgb(246, 253, 249)" opacity="1.0" stroke="rgb(43, 206, 119)" stroke-opacity="0.735537" stroke-linecap="round" stroke-linejoin="round"/>
    <path d="M 102.0 301.0 C 103.0 302.0 103.0 303.0 104.0 304.0 C 105.0 305.0 106.0 305.0 107.0 305.0 C 108.0 305.0 109.0 305.0 110.0 304.0 C 110.0 303.0 110.0 302.0 111.0 302.0 C 112.0 302.0 113.0 303.0 113.0 304.0 C 113.0 305.0 113.0 306.0 112.0 307.0 C 111.0 308.0 110.0 309.0 110.0 310.0 C 110.0 311.0 110.0 312.0 110.0 313.0 C 110.0 314.0 110.0 315.0 110.0 316.0 C 110.0 317.0 110.0 318.0 110.0 319.0 C 110.0 320.0 110.0 321.0 110.0 322.0 C 110.0 323.0 110.0 324.0 110.0 325.0 C 110.0 326.0 110.0 327.0 110.0 328.0 C 110.0 329.0 110.0 330.0 110.0 331.0 C 110.0 332.0 110.0 333.0 110.0 334.0 C 109.0 334.0 108.0 334.0 107.0 334.0 C 106.0 334.0 105.0 334.0 104.0 334.0 C 103.0 334.0 102.0 334.0 101.0 334.0 C 100.0 334.0 99.0 334.0 98.0 334.0 C 97.0 334.0 96.0 334.0 95.0 335.0 C 95.0 336.0 95.0 337.0 95.0 338.0 C 94.0 338.0 93.0 338.0 92.0 338.0 C 91.0 337.0 90.0 337.0 90.0 336.0 C 89.0 335.0 88.0 335.0 87.0 334.0 C 86.0 334.0 85.0 334.0 84.0 334.0 C 83.0 334.0 82.0 334.0 81.0 334.0 C 81.0 333.0 81.0 332.0 81.0 331.0 C 81.0 330.0 81.0 329.0 81.0 328.0 C 81.0 327.0 80.0 326.0 79.0 326.0 C 78.0 325.0 78.0 324.0 78.0 323.0 C 79.0 323.0 80.0 323.0 81.0 322.0 C 81.0 321.0 81.0 320.0 81.0 319.0 C 81.0 318.0 81.0 317.0 81.0 316.0 C 81.0 315.0 81.0 314.0 81.0 313.0 C 81.0 312.0 81.0 311.0 81.0 310.0 C 81.0 309.0 81.0 308.0 81.0 307.0 C 81.0 306.0 81.0 305.0 82.0 305.0 C 83.0 305.0 84.0 305.0 85.0 305.0 C 86.0 305.0 87.0 305.0 88.0 305.0 C 89.0 305.0 90.0 305.0 91.0 305.0 C 92.0 305.0 93.0 305.0 94.0 305.0 C 95.0 305.0 96.0 305.0 97.0 305.0 C 98.0 305.0 99.0 304.0 99.0 303.0 C 99.0 302.0 99.0 301.0 102.0 301.0" stroke-width="0.0" fill="rgb(253, 188, 101)" opacity="1.0" stroke="rgb(93, 34, 218)" stroke-opacity="0.4803714" stroke-linecap="round" stroke-linejoin="round"/>
    <path d="M 277.0 242.0 C 278.0 243.0 278.0 244.0 279.0 245.0 C 280.0 245.0 281.0 245.0 282.0 246.0 C 283.0 247.0 284.0 248.0 285.0 249.0 C 286.0 250.0 287.0 250.0 288.0 251.0 C 289.0 252.0 290.0 252.0 291.0 253.0 C 291.0 254.0 292.0 255.0 292.0 256.0 C 293.0 257.0 293.0 258.0 294.0 259.0 C 295.0 260.0 296.0 260.0 297.0 260.0 C 298.0 260.0 299.0 259.0 299.0 258.0 C 299.0 257.0 299.0 258.0 300.0 259.0 C 301.0 260.0 301.0 261.0 301.0 262.0 C 301.0 263.0 301.0 264.0 302.0 265.0 C 302.0 266.0 302.0 267.0 303.0 268.0 C 304.0 269.0 304.0 270.0 304.0 271.0 C 304.0 272.0 303.0 273.0 303.0 274.0 C 303.0 275.0 303.0 276.0 303.0 277.0 C 304.0 278.0 305.0 277.0 306.0 277.0 C 307.0 277.0 307.0 278.0 307.0 279.0 C 308.0 280.0 308.0 281.0 308.0 282.0 C 308.0 283.0 309.0 284.0 309.0 285.0 C 310.0 286.0 310.0 287.0 310.0 288.0 C 311.0 289.0 311.0 290.0 311.0 291.0 C 312.0 292.0 312.0 293.0 312.0 294.0 C 313.0 295.0 313.0 296.0 314.0 297.0 C 314.0 298.0 315.0 299.0 315.0 300.0 C 316.0 301.0 316.0 302.0 316.0 303.0 C 317.0 304.0 317.0 305.0 318.0 306.0 C 319.0 307.0 318.0 307.0 317.0 307.0 C 316.0 308.0 316.0 309.0 316.0 310.0 C 316.0 311.0 316.0 312.0 316.0 313.0 C 317.0 314.0 317.0 315.0 318.0 316.0 C 318.0 317.0 318.0 318.0 318.0 319.0 C 318.0 320.0 318.0 321.0 319.0 322.0 C 319.0 323.0 319.0 324.0 319.0 325.0 C 319.0 326.0 319.0 327.0 319.0 328.0 C 319.0 329.0 319.0 330.0 319.0 331.0 C 319.0 332.0 319.0 333.0 319.0 334.0 C 319.0 333.0 319.0 332.0 318.0 331.0 C 318.0 330.0 317.0 328.0 316.0 326.0 C 316.0 324.0 316.0 322.0 316.0 320.0 C 314.0 319.0 312.0 317.0 312.0 315.0 C 314.0 315.0 315.0 313.0 315.0 311.0 C 314.0 309.0 312.0 309.0 311.0 311.0 C 309.0 311.0 308.0 309.0 307.0 307.0 C 307.0 305.0 306.0 303.0 304.0 303.0 C 303.0 301.0 301.0 299.0 301.0 297.0 C 303.0 297.0 305.0 295.0 305.0 293.0 C 304.0 291.0 302.0 291.0 301.0 293.0 C 299.0 294.0 297.0 293.0 295.0 291.0 C 297.0 291.0 299.0 290.0 299.0 288.0 C 297.0 287.0 295.0 287.0 294.0 289.0 C 292.0 288.0 292.0 286.0 291.0 284.0 C 289.0 282.0 287.0 280.0 286.0 278.0 C 285.0 276.0 283.0 274.0 282.0 272.0 C 281.0 270.0 280.0 268.0 278.0 266.0 C 277.0 264.0 277.0 262.0 276.0 260.0 C 276.0 258.0 274.0 257.0 273.0 255.0 C 273.0 253.0 271.0 251.0 271.0 249.0 C 271.0 247.0 271.0 245.0 272.0 244.0 C 274.0 244.0 276.0 242.0 277.0 242.0" stroke-width="0.0" fill="rgb(170, 159, 202)" opacity="1.0" stroke="rgb(64, 71, 174)" stroke-opacity="0.1625697" stroke-linecap="round" stroke-linejoin="round"/>
  </g>
</svg>
