<?xml version="1.0" ?>
<svg xmlns="http://www.w3.org/2000/svg" version="1.1" width="474" height="596">
  <defs/>
  <g>
    <path d="M 268.3648681640625 -1.2710201740264893 C 268.6236267089844 -1.372077226638794 269.05633544921875 -1.4490492343902588 269.4343566894531 -1.7124003171920776 C 269.6929626464844 -2.089425563812256 269.7575988769531 -2.545987844467163 269.9619445800781 -2.8848326206207275 C 270.3870849609375 -3.2678005695343018 270.5039367675781 -3.764434576034546 270.662353515625 -4.188140392303467 C 271.0268249511719 -4.4390764236450195 271.3901062011719 -4.443327903747559 271.9497985839844 -3.985496759414673 C 273.4261169433594 -3.018786668777466 275.8460998535156 -2.353092908859253 280.35235595703125 -2.161853790283203 C 282.7011413574219 0.9623668193817139 288.87152099609375 1.5209282636642456 295.7782287597656 3.372922658920288 C 303.4897155761719 5.357407569885254 311.96514892578125 8.052457809448242 319.9237976074219 11.57826042175293 C 328.9676818847656 15.492722511291504 337.3672180175781 19.658790588378906 345.097900390625 24.5000057220459 C 353.2507019042969 29.289608001708984 361.3075256347656 35.156349182128906 369.1924133300781 41.70762634277344 C 377.3117980957031 48.15273666381836 384.4346923828125 55.4398193359375 391.6233215332031 62.79974365234375 C 398.5709533691406 70.53975677490234 405.1559143066406 78.75019836425781 411.491455078125 87.39733123779297 C 417.4553527832031 95.8124771118164 422.8922424316406 104.18737030029297 427.868896484375 112.2315673828125 C 431.6232604980469 120.33244323730469 433.6977844238281 127.52206420898438 431.45709228515625 137.0920867919922 C 427.5524597167969 145.1264190673828 421.75006103515625 153.1302490234375 415.6210021972656 161.50436401367188 C 407.9413146972656 168.40830993652344 400.4998474121094 175.95228576660156 393.1097412109375 183.4879150390625 C 386.1426086425781 191.1397705078125 377.3849182128906 196.804443359375 369.65240478515625 203.08114624023438 C 361.3531188964844 208.01535034179688 353.2202453613281 213.4300994873047 344.6364440917969 218.38290405273438 C 334.7815856933594 222.1925506591797 326.5040283203125 224.6434783935547 319.3138427734375 224.2914276123047 C 318.7807312011719 220.76919555664062 321.3841857910156 215.07911682128906 326.6914367675781 208.3308868408203 C 333.8328552246094 201.4167938232422 341.5845031738281 194.33157348632812 349.0472106933594 187.04856872558594 C 355.38128662109375 179.523681640625 360.44293212890625 171.75001525878906 364.18011474609375 163.74717712402344 C 366.5755310058594 155.59512329101562 367.68646240234375 147.39987182617188 367.5901184082031 139.2967071533203 C 366.371337890625 131.443603515625 364.12384033203125 124.0240707397461 360.953857421875 117.23229217529297 C 356.97503662109375 111.26690673828125 352.22943115234375 106.31196594238281 346.758056640625 102.5355453491211 C 340.583740234375 100.08232879638672 333.7437744140625 99.04215240478516 326.5648193359375 100.76628875732422 C 318.3126220703125 99.77427673339844 309.45684814453125 101.15279388427734 300.4381408691406 103.25723266601562 C 291.343505859375 105.1937484741211 282.46868896484375 106.69287872314453 273.9581298828125 110.38835906982422 C 266.4095764160156 109.95155334472656 260.4098815917969 108.38957977294922 255.6071319580078 106.62355041503906 C 252.0819091796875 105.29032897949219 249.65663146972656 104.58421325683594 247.97824096679688 104.7616958618164 C 246.6151885986328 106.25035095214844 244.9499969482422 109.177734375 244.1392059326172 115.35137939453125 C 238.2899627685547 117.6797103881836 229.9383087158203 120.93009948730469 221.0269775390625 124.96234130859375 C 211.47825622558594 128.71739196777344 201.50892639160156 131.9453125 191.5024871826172 134.60910034179688 C 182.3172607421875 136.7208709716797 174.4268798828125 138.3453826904297 168.19483947753906 139.594970703125 C 163.8869171142578 140.7701416015625 160.97227478027344 142.220458984375 158.8606719970703 144.2600860595703 C 156.95526123046875 147.1903076171875 154.78102111816406 151.1776885986328 152.37606811523438 156.18824768066406 C 150.063232421875 162.11241149902344 148.34292602539062 168.80462646484375 147.95213317871094 176.08631896972656 C 149.73263549804688 183.76397705078125 153.62400817871094 191.62744140625 159.41331481933594 199.45172119140625 C 166.71726989746094 207.0670166015625 175.1065673828125 214.30628967285156 184.02456665039062 221.02679443359375 C 192.72320556640625 227.15762329101562 200.6267852783203 232.59649658203125 207.43890380859375 237.0953369140625 C 211.01197814941406 241.0972900390625 211.43429565429688 244.33197021484375 209.07972717285156 246.43240356445312 C 204.43434143066406 246.9840850830078 198.02137756347656 246.3681182861328 190.2855224609375 245.06166076660156 C 181.64389038085938 243.46783447265625 172.47824096679688 241.97352600097656 163.115234375 240.9098663330078 C 153.6529541015625 240.76722717285156 144.9832000732422 240.58090209960938 136.6090087890625 239.14761352539062 C 127.86717987060547 238.19692993164062 120.14818572998047 236.46116638183594 112.65091705322266 234.17721557617188 C 104.88776397705078 232.05984497070312 96.75456237792969 229.5669403076172 88.73941040039062 226.37750244140625 C 80.10588073730469 222.5324249267578 71.436279296875 219.19155883789062 64.28340911865234 214.2141876220703 C 57.37537384033203 209.95123291015625 53.710357666015625 204.12954711914062 53.21011734008789 197.0811767578125 C 54.2435417175293 187.32603454589844 54.417179107666016 178.122314453125 56.838531494140625 169.17684936523438 C 58.31459045410156 160.0819549560547 60.38521194458008 151.5255584716797 63.09955978393555 143.53543090820312 C 65.09575653076172 135.7401885986328 67.98821258544922 128.54197692871094 71.07393646240234 121.16703796386719 C 74.20825958251953 113.7359390258789 78.38976287841797 106.01654052734375 83.19412994384766 97.41124725341797 C 88.31568908691406 89.49505615234375 93.6806640625 80.88938903808594 100.3412094116211 73.33952331542969 C 107.24537658691406 65.24405670166016 114.21434783935547 56.844364166259766 122.78239440917969 50.17788314819336 C 130.61795043945312 43.10070037841797 138.63265991210938 36.98404312133789 146.67373657226562 31.569765090942383 C 154.43820190429688 26.22500228881836 161.30857849121094 25.00105094909668 172.2117919921875 23.746313095092773 C 180.1280059814453 23.456518173217773 189.8308563232422 24.779644012451172 198.21414184570312 26.787620544433594 C 205.33694458007812 29.100238800048828 212.1173553466797 30.3566837310791 213.78707885742188 27.59173583984375 C 217.5712890625 29.70188331604004 221.18067932128906 29.876588821411133 226.65411376953125 26.59869956970215 C 232.6796417236328 19.869043350219727 239.99937438964844 12.388531684875488 249.5355987548828 7.040703296661377 C 259.30194091796875 2.15401291847229 269.8656311035156 -1.6230671405792236 268.3648681640625 -1.2710201740264893" stroke-width="0.0" fill="rgb(64, 38, 31)" opacity="0.9999963" stroke="rgb(189, 215, 162)" stroke-opacity="0.6611949" stroke-linecap="round" stroke-linejoin="round"/>
    <path d="M 316.70672607421875 221.67160034179688 C 314.48028564453125 222.7186737060547 312.18878173828125 223.8865203857422 309.67401123046875 225.169189453125 C 306.8597412109375 226.63990783691406 303.7689208984375 228.3555145263672 300.518310546875 230.25958251953125 C 297.29949951171875 232.4225616455078 294.396240234375 234.831298828125 290.04193115234375 239.55624389648438 C 290.1396484375 239.65780639648438 293.357666015625 238.85548400878906 298.4889221191406 240.27552795410156 C 307.0108947753906 241.01869201660156 318.751953125 243.0400390625 334.479736328125 248.21072387695312 C 350.1236267089844 257.9046325683594 368.2807312011719 268.0107421875 386.2291259765625 276.4223937988281 C 398.7462463378906 285.13128662109375 407.0061340332031 290.53472900390625 409.7485046386719 292.93109130859375 C 407.27264404296875 293.21435546875 401.2263488769531 292.76605224609375 393.83612060546875 292.9761047363281 C 387.2344970703125 294.6837463378906 383.3279113769531 298.4720458984375 383.25091552734375 304.19427490234375 C 386.6689758300781 311.3476257324219 392.60760498046875 319.2098388671875 399.8942565917969 326.77337646484375 C 407.0535583496094 332.8992004394531 412.2989196777344 336.91888427734375 413.7159423828125 338.9219055175781 C 410.85809326171875 337.27056884765625 404.4830627441406 331.510009765625 393.23248291015625 326.36395263671875 C 375.935302734375 323.12542724609375 359.5025939941406 319.1466979980469 343.78912353515625 319.6014404296875 C 330.6397705078125 321.03802490234375 323.8887939453125 329.69873046875 321.67303466796875 343.82476806640625 C 322.7967529296875 359.8564758300781 320.6146240234375 376.77386474609375 314.23358154296875 394.2135009765625 C 307.7999267578125 412.6378173828125 301.7027282714844 431.28131103515625 295.85784912109375 449.4521484375 C 291.27734375 466.3845520019531 287.95965576171875 481.80712890625 285.51678466796875 495.04022216796875 C 282.65325927734375 505.8939514160156 278.7519226074219 514.4140014648438 273.7369079589844 520.8728637695312 C 267.9919738769531 525.9197998046875 262.3370666503906 530.4730224609375 257.75537109375 535.3832397460938 C 255.23597717285156 541.1958618164062 255.57586669921875 548.159912109375 259.0695495605469 555.8987426757812 C 265.483154296875 563.7327880859375 274.39031982421875 570.80419921875 284.8643798828125 576.2294311523438 C 295.6845703125 579.1848754882812 305.5001525878906 580.3826293945312 313.0078125 580.6249389648438 C 317.0277404785156 580.6415405273438 316.9320068359375 580.7929077148438 312.8879699707031 580.8097534179688 C 305.5544738769531 580.360107421875 295.8019714355469 578.9227905273438 284.6734924316406 575.8580322265625 C 273.2414855957031 570.5222778320312 262.5740051269531 562.6712646484375 253.61019897460938 552.2396240234375 C 247.0518798828125 539.561279296875 243.19300842285156 525.3304443359375 241.31219482421875 510.2936096191406 C 241.58673095703125 495.1980895996094 243.45358276367188 481.8531494140625 242.06048583984375 470.8741760253906 C 237.92552185058594 464.81658935546875 230.39572143554688 462.84393310546875 221.83673095703125 464.83221435546875 C 212.77468872070312 469.2928771972656 204.20213317871094 474.4139404296875 196.8784942626953 479.23431396484375 C 191.44952392578125 483.3994140625 188.31578063964844 487.2421875 187.5979461669922 491.2349853515625 C 189.35421752929688 496.0097961425781 193.34397888183594 502.1597900390625 198.65232849121094 510.09967041015625 C 204.13046264648438 519.79296875 208.42166137695312 531.0214233398438 210.1084747314453 543.1422729492188 C 207.65846252441406 555.343994140625 201.45095825195312 566.717529296875 192.0794677734375 576.3564453125 C 180.35659790039062 583.3781127929688 167.48526000976562 587.533935546875 155.0181884765625 589.42138671875 C 144.49566650390625 589.742431640625 137.36276245117188 589.0870361328125 134.67086791992188 587.8681640625 C 136.4884796142578 586.2169799804688 142.11099243164062 583.9973754882812 150.74044799804688 581.0458374023438 C 161.2303924560547 577.2714233398438 172.29336547851562 572.6620483398438 182.65248107910156 567.3463745117188 C 191.17054748535156 561.5760498046875 196.88818359375 555.635986328125 199.5192413330078 549.833251953125 C 199.34178161621094 544.407470703125 196.75160217285156 539.4896240234375 192.4118194580078 534.9630737304688 C 187.14215087890625 530.625732421875 181.68809509277344 526.0162963867188 176.77613830566406 520.478515625 C 172.9119110107422 513.3091430664062 170.2442626953125 503.942138671875 168.63600158691406 492.0506591796875 C 167.6249237060547 477.56719970703125 166.42654418945312 460.9240417480469 164.4103546142578 442.87646484375 C 160.98194885253906 424.2840270996094 155.5538330078125 405.94708251953125 147.73513793945312 388.804443359375 C 137.7578125 373.8636779785156 126.42546844482422 362.08355712890625 115.15765380859375 353.47662353515625 C 104.88480377197266 348.80621337890625 96.70166015625 347.7889709472656 91.38127136230469 348.5903015136719 C 89.29645538330078 349.83709716796875 89.89585876464844 350.48663330078125 92.3257827758789 349.6903381347656 C 95.61997985839844 346.9600830078125 98.76607513427734 342.345947265625 100.87457275390625 336.0552978515625 C 101.1590347290039 328.3075256347656 99.37677001953125 319.3367004394531 95.88310241699219 309.4423828125 C 91.79341888427734 298.97882080078125 89.87142944335938 288.0263671875 94.80039978027344 277.4293212890625 C 108.51615905761719 265.7278747558594 127.02271270751953 254.7135009765625 145.45179748535156 247.2248077392578 C 158.93399047851562 241.5448760986328 168.63592529296875 241.98886108398438 174.96563720703125 247.42564392089844 C 173.72747802734375 257.8162536621094 170.36170959472656 270.68597412109375 165.7313232421875 285.218994140625 C 160.72393798828125 299.7402648925781 156.47254943847656 312.92626953125 153.6758270263672 323.7708740234375 C 152.60757446289062 331.4598693847656 153.36398315429688 335.44427490234375 155.88970947265625 335.3157958984375 C 160.0338134765625 331.2108154296875 165.48150634765625 323.5047607421875 171.57435607910156 313.0392761230469 C 177.49717712402344 300.9183654785156 182.7392578125 288.2569885253906 187.1051025390625 276.0721435546875 C 190.6177978515625 265.3105773925781 194.32569885253906 256.4225158691406 199.34934997558594 249.5347137451172 C 206.46401977539062 244.5001678466797 215.98049926757812 241.9451141357422 226.9678192138672 239.87710571289062 C 239.1382293701172 238.05703735351562 252.0983428955078 236.3793182373047 265.52606201171875 234.73733520507812 C 279.2052917480469 233.0312042236328 293.004638671875 231.3314208984375 316.70672607421875 221.67160034179688" stroke-width="0.0" fill="rgb(232, 106, 164)" opacity="0.9999903" stroke="rgb(110, 111, 180)" stroke-opacity="0.8432935" stroke-linecap="round" stroke-linejoin="round"/>
    <path d="M 344.0921936035156 94.04815673828125 C 343.34930419921875 93.51560974121094 343.6109619140625 93.23539733886719 344.5248107910156 93.75163269042969 C 345.1761169433594 93.57258605957031 345.7463684082031 94.41008758544922 347.00433349609375 95.12818145751953 C 348.0956115722656 97.30657958984375 349.1784362792969 97.85072326660156 348.8384704589844 98.16688537597656 C 349.20367431640625 98.58521270751953 349.536376953125 98.8105697631836 350.7300720214844 98.54423522949219 C 351.2322082519531 98.49498748779297 351.972900390625 98.42340850830078 351.10809326171875 99.80858612060547 C 351.9084167480469 100.88324737548828 354.1047668457031 101.19773864746094 353.41162109375 102.73566436767578 C 354.71136474609375 101.30461883544922 354.4805603027344 104.07657623291016 356.2213134765625 104.4545669555664 C 357.2472229003906 105.51115417480469 358.3530578613281 106.81437683105469 359.2547607421875 108.42158508300781 C 360.5492858886719 110.1414566040039 362.0221862792969 112.84827423095703 363.1327819824219 115.2425308227539 C 365.2857360839844 119.24352264404297 366.8965759277344 123.48202514648438 367.82171630859375 128.23899841308594 C 369.458984375 131.9639434814453 370.54840087890625 136.93507385253906 370.50714111328125 141.25958251953125 C 370.9732360839844 147.05487060546875 371.4579772949219 151.75132751464844 369.30572509765625 156.0428466796875 C 369.1475524902344 161.96490478515625 367.519287109375 166.42015075683594 365.61871337890625 170.69329833984375 C 363.19012451171875 174.3813934326172 361.9776916503906 180.41432189941406 358.3941955566406 183.66192626953125 C 356.9334716796875 189.32273864746094 353.34283447265625 192.77667236328125 348.9944152832031 196.1792449951172 C 346.4560241699219 201.38189697265625 341.0375671386719 203.92401123046875 336.58001708984375 207.8789825439453 C 331.9953918457031 211.55044555664062 327.3360290527344 215.23486328125 322.2940368652344 217.99208068847656 C 317.42388916015625 220.43443298339844 313.0172424316406 223.04457092285156 308.7781982421875 225.46026611328125 C 304.65704345703125 227.70291137695312 300.6041564941406 229.78160095214844 296.5608825683594 231.70358276367188 C 292.4974670410156 233.45986938476562 288.3548583984375 235.0768280029297 284.0991516113281 236.56292724609375 C 279.7140197753906 237.94937133789062 275.1799011230469 239.25013732910156 270.46051025390625 240.48361206054688 C 265.5679931640625 241.66342163085938 260.50933837890625 242.77182006835938 255.24546813964844 243.7943115234375 C 249.81536865234375 244.70315551757812 244.2667694091797 245.44566345214844 238.6009521484375 245.94888305664062 C 232.87867736816406 246.10939025878906 227.20835876464844 245.8846893310547 222.27609252929688 244.94070434570312 C 219.60044860839844 241.26580810546875 211.8490753173828 242.64466857910156 206.10018920898438 240.61859130859375 C 201.79440307617188 239.17384338378906 196.92031860351562 237.8009490966797 193.21714782714844 235.80889892578125 C 188.84423828125 234.44607543945312 185.22032165527344 232.10693359375 181.60467529296875 230.32595825195312 C 177.548583984375 227.9816436767578 173.90321350097656 225.29776000976562 170.06471252441406 222.57958984375 C 166.15476989746094 220.04824829101562 162.59246826171875 216.79354858398438 159.95140075683594 213.09539794921875 C 156.54739379882812 209.78004455566406 153.29188537597656 205.9683837890625 150.74542236328125 201.3057861328125 C 149.0764617919922 196.80738830566406 146.15023803710938 192.88894653320312 145.10723876953125 188.1930694580078 C 143.70327758789062 183.0009307861328 143.1552734375 178.25106811523438 143.01707458496094 173.3842315673828 C 143.27598571777344 166.96728515625 142.9055938720703 163.08419799804688 145.43972778320312 157.40756225585938 C 145.60523986816406 150.55438232421875 152.0837860107422 150.46669006347656 154.66798400878906 145.90086364746094 C 157.48214721679688 142.90826416015625 157.5641326904297 138.5067596435547 157.3618927001953 133.0135955810547 C 158.89523315429688 131.90615844726562 160.76158142089844 132.2679901123047 164.28343200683594 133.7704315185547 C 164.90086364746094 136.9217529296875 166.94898986816406 137.80621337890625 173.41554260253906 136.9200897216797 C 176.78443908691406 134.28627014160156 182.06251525878906 132.73880004882812 186.7725372314453 130.8135986328125 C 191.27183532714844 128.48867797851562 196.28515625 127.06544494628906 200.02853393554688 125.56297302246094 C 204.55850219726562 124.26709747314453 208.11831665039062 122.90310668945312 210.9060821533203 122.4776611328125 C 213.59999084472656 121.20375061035156 217.58822631835938 120.43214416503906 222.0000762939453 119.42121124267578 C 225.42703247070312 118.22942352294922 229.79998779296875 117.75379180908203 232.40780639648438 116.70169067382812 C 239.24395751953125 115.54600524902344 243.92433166503906 115.24437713623047 245.50013732910156 113.26631164550781 C 244.2811279296875 106.90997314453125 242.94126892089844 102.56774139404297 241.27915954589844 97.85091400146484 C 243.75100708007812 97.34849548339844 245.6615753173828 96.37940979003906 247.65426635742188 98.62896728515625 C 251.8843231201172 99.3197021484375 253.220947265625 103.12663269042969 255.81515502929688 105.95143127441406 C 259.5367431640625 108.18712615966797 264.54315185546875 109.33435821533203 268.0302429199219 108.42127990722656 C 272.86383056640625 106.26338958740234 279.54180908203125 106.55511474609375 283.67529296875 104.7927474975586 C 289.3694763183594 103.11052703857422 295.3983459472656 102.6990737915039 300.28887939453125 101.00506591796875 C 304.2999267578125 100.18655395507812 307.3782653808594 99.350341796875 309.16094970703125 99.2686996459961 C 309.4178466796875 100.16889190673828 308.5118408203125 101.4702377319336 307.3960266113281 103.5343246459961 C 308.86907958984375 106.96854400634766 310.2194519042969 110.41838836669922 313.45263671875 112.5085678100586 C 316.09185791015625 116.32892608642578 318.9985046386719 120.09146118164062 321.3685607910156 124.44525909423828 C 323.7384338378906 128.3185577392578 326.7152404785156 130.88265991210938 327.5720520019531 132.4464569091797 C 331.1221008300781 132.89280700683594 334.59063720703125 131.74449157714844 337.5440673828125 130.40806579589844 C 340.82720947265625 129.50836181640625 342.6327819824219 127.38522338867188 344.8475646972656 125.19413757324219 C 345.6325988769531 122.81262969970703 345.67010498046875 118.95243835449219 345.1287536621094 115.18339538574219 C 343.5960388183594 111.99630737304688 341.48712158203125 109.23441314697266 339.0060119628906 106.81185150146484 C 335.2406921386719 105.75305938720703 332.3515625 103.85183715820312 329.8192138671875 100.19474029541016 C 326.5142822265625 96.827392578125 325.4102783203125 95.9615249633789 344.0921936035156 94.04815673828125" stroke-width="0.0" fill="rgb(251, 188, 104)" opacity="0.99999964" stroke="rgb(30, 37, 75)" stroke-opacity="0.2533036" stroke-linecap="round" stroke-linejoin="round"/>
    <path d="M 167.29605102539062 383.241455078125 C 167.6682586669922 381.640625 169.1797637939453 380.9168701171875 172.71617126464844 381.198486328125 C 172.51194763183594 380.03265380859375 175.38584899902344 380.7953186035156 176.68582153320312 380.165283203125 C 177.30548095703125 379.2149353027344 179.38499450683594 379.3150329589844 180.6426239013672 379.930419921875 C 181.8380584716797 379.63018798828125 183.09413146972656 379.3728942871094 183.98500061035156 379.65692138671875 C 184.6753387451172 380.5611877441406 185.42626953125 381.16845703125 186.10977172851562 381.8365173339844 C 186.7275848388672 382.5925598144531 187.3086395263672 383.3863220214844 187.87149047851562 384.2099609375 C 188.4221649169922 385.062744140625 188.95831298828125 385.90850830078125 189.4880828857422 386.7443542480469 C 190.0216522216797 387.5607604980469 190.56857299804688 388.35748291015625 191.1177215576172 389.1289978027344 C 191.6666259765625 389.846435546875 192.23666381835938 390.4617004394531 192.93186950683594 390.65435791015625 C 193.41946411132812 391.5428466796875 193.83041381835938 392.3440246582031 195.66514587402344 391.4902648925781 C 195.6344451904297 392.2223205566406 195.6081085205078 393.3229675292969 195.87184143066406 393.846435546875 C 196.39773559570312 394.47100830078125 196.83132934570312 394.83221435546875 197.74900817871094 394.5447998046875 C 197.63739013671875 395.1976623535156 197.75270080566406 395.40570068359375 198.00039672851562 395.486083984375 C 198.25106811523438 395.4444274902344 198.53146362304688 395.7406921386719 199.10633850097656 395.655029296875 C 199.47607421875 396.1084899902344 199.87852478027344 395.9986572265625 200.57794189453125 396.1695251464844 C 201.1898193359375 396.4937438964844 202.10203552246094 396.6335144042969 203.0673370361328 396.8995361328125 C 204.08612060546875 397.25042724609375 205.312744140625 397.2391662597656 206.69041442871094 397.1240234375 C 208.16488647460938 396.96282958984375 209.8249053955078 396.80950927734375 211.6417999267578 396.7168884277344 C 213.6761932373047 396.6169128417969 215.99073791503906 396.5201110839844 218.6033172607422 396.4309387207031 C 221.52212524414062 396.3139343261719 224.73390197753906 396.1519470214844 228.2173309326172 395.9063415527344 C 231.97889709472656 395.6307067871094 235.9814910888672 395.2860107421875 240.16978454589844 394.9312438964844 C 244.4943389892578 394.5843200683594 248.8899383544922 394.29949951171875 253.28245544433594 394.0899658203125 C 257.5956726074219 394.0087890625 261.75335693359375 394.0342102050781 265.74432373046875 394.1633605957031 C 269.56573486328125 394.4013977050781 273.2459716796875 394.6787109375 276.8283386230469 394.9649658203125 C 280.3541259765625 395.2744140625 283.87115478515625 395.6908874511719 287.40350341796875 396.27099609375 C 290.93194580078125 397.1347961425781 294.4033508300781 398.3003845214844 298.81805419921875 397.8981628417969 C 302.2962951660156 399.4954528808594 303.98992919921875 402.59027099609375 305.6023254394531 406.43316650390625 C 306.9315490722656 409.5782470703125 307.5787658691406 412.71099853515625 307.4258728027344 415.9623718261719 C 306.438232421875 419.23358154296875 304.8599548339844 422.4539794921875 302.9150695800781 425.5907287597656 C 300.7539367675781 428.62939453125 298.5580139160156 431.5429992675781 296.49591064453125 434.37359619140625 C 294.6692810058594 437.25 293.1390075683594 440.2387390136719 292.23779296875 443.648681640625 C 290.5557556152344 446.6295471191406 289.4053649902344 449.765625 288.0358581542969 452.7646179199219 C 286.42254638671875 455.60882568359375 285.0879211425781 458.52764892578125 284.1907653808594 462.33648681640625 C 280.37274169921875 463.69659423828125 277.1417236328125 464.4124755859375 273.3231201171875 464.4002685546875 C 269.60443115234375 463.869384765625 265.9130859375 463.385986328125 261.32611083984375 463.7890625 C 259.0734558105469 460.9267883300781 256.4711608886719 458.3181457519531 254.2860870361328 455.42333984375 C 252.5118865966797 452.3056335449219 250.9717254638672 449.1682434082031 249.69493103027344 446.08245849609375 C 248.50474548339844 443.092529296875 247.26284790039062 440.3389587402344 245.9229278564453 438.00592041015625 C 244.39593505859375 436.1714172363281 242.59393310546875 434.9268493652344 240.60659790039062 434.2715759277344 C 238.53115844726562 434.1720886230469 236.43675231933594 434.32000732421875 234.5152587890625 434.53558349609375 C 232.9093475341797 435.29168701171875 231.54391479492188 436.69720458984375 231.79684448242188 434.7009582519531 C 231.87359619140625 435.0462341308594 232.25547790527344 435.33074951171875 232.5462646484375 434.2893371582031 C 232.4220428466797 434.6097412109375 232.21383666992188 436.02032470703125 231.74945068359375 437.16033935546875 C 231.22962951660156 438.17041015625 230.3838653564453 439.4832763671875 229.1157684326172 441.0325927734375 C 227.52796936035156 442.7999572753906 225.79379272460938 444.7757873535156 223.91432189941406 446.9263916015625 C 221.89218139648438 449.2447204589844 219.8424835205078 451.6211242675781 217.73280334472656 454.0062255859375 C 215.54689025878906 456.3331298828125 213.20106506347656 458.55303955078125 210.67947387695312 460.5984191894531 C 207.8978729248047 462.3931579589844 204.91110229492188 463.9214172363281 201.80978393554688 465.1649169921875 C 198.56631469726562 466.03338623046875 195.17872619628906 466.48846435546875 191.68968200683594 466.7022705078125 C 188.0946044921875 467.174560546875 184.40304565429688 466.6857604980469 180.91078186035156 465.691162109375 C 177.8678741455078 463.2087707519531 174.97979736328125 461.5822448730469 172.3230743408203 459.8914489746094 C 169.9820098876953 458.0074157714844 167.78158569335938 456.2877197265625 165.8846893310547 454.6119689941406 C 164.30520629882812 452.9480895996094 163.0225830078125 451.32232666015625 162.0155029296875 449.67828369140625 C 161.25335693359375 447.8965148925781 160.667724609375 445.8878479003906 160.20880126953125 443.5426940917969 C 159.82147216796875 440.8097229003906 159.43235778808594 437.6911926269531 159.11917114257812 434.1781005859375 C 158.6750946044922 430.3330078125 158.1365203857422 426.204345703125 157.6566162109375 421.8106994628906 C 156.98391723632812 417.275390625 156.48678588867188 412.66796875 156.1818389892578 408.0979309082031 C 156.14561462402344 403.6734619140625 156.4153289794922 399.4445495605469 155.53921508789062 394.6629638671875 C 155.9394073486328 389.7757873535156 157.64883422851562 386.94671630859375 160.2768096923828 384.6694030761719 C 162.22088623046875 381.3071594238281 163.52598571777344 378.3652038574219 167.29605102539062 383.241455078125" stroke-width="0.0" fill="rgb(253, 76, 1)" opacity="0.9998954" stroke="rgb(105, 33, 99)" stroke-opacity="0.2633016" stroke-linecap="round" stroke-linejoin="round"/>
    <path d="M 254.9890594482422 376.35858154296875 C 254.98617553710938 376.4842529296875 255.0411834716797 376.617431640625 255.01754760742188 376.75616455078125 C 255.06687927246094 376.8877868652344 255.31666564941406 377.004638671875 255.77491760253906 377.1106262207031 C 256.5460205078125 377.2087707519531 257.7343444824219 377.2932434082031 259.39013671875 377.36614990234375 C 261.5361633300781 377.44635009765625 264.4507751464844 377.5585632324219 268.5035400390625 377.7295837402344 C 273.3045959472656 377.9529724121094 278.2431945800781 377.94366455078125 283.7464599609375 379.57733154296875 C 290.2186279296875 381.09478759765625 297.55963134765625 377.119873046875 301.2745361328125 378.63494873046875 C 307.0307922363281 380.04693603515625 312.223876953125 380.1038818359375 314.869140625 383.0074157714844 C 314.429931640625 389.888671875 313.77142333984375 397.65130615234375 312.4285888671875 407.23162841796875 C 310.75360107421875 417.2669982910156 308.8292236328125 427.607421875 305.8502502441406 437.7875061035156 C 303.1060791015625 447.36602783203125 300.37103271484375 456.319580078125 299.5133361816406 466.36199951171875 C 294.4869384765625 471.3000183105469 289.480712890625 475.7821350097656 288.0497741699219 482.1661071777344 C 288.3110046386719 488.97467041015625 287.5224304199219 493.9173278808594 285.7795104980469 499.287841796875 C 286.1356201171875 503.3647155761719 287.7195739746094 507.1651916503906 288.58001708984375 510.6108093261719 C 288.21630859375 513.7000732421875 286.8194885253906 516.4776611328125 284.3905944824219 518.963623046875 C 280.85711669921875 521.2164306640625 276.3630676269531 523.42041015625 271.15325927734375 525.7613525390625 C 265.52838134765625 528.4000244140625 259.8287048339844 531.4747924804688 254.3665313720703 535.0581665039062 C 249.4058837890625 539.125 245.13052368164062 543.4734497070312 241.63352966308594 547.75 C 238.9274139404297 551.579833984375 237.00039672851562 554.5932006835938 235.7917022705078 556.4425659179688 C 235.19737243652344 556.8250122070312 235.08428955078125 555.48486328125 235.30589294433594 552.3355102539062 C 235.70545959472656 547.4950561523438 236.3229217529297 541.2803344726562 237.1984405517578 534.0587158203125 C 238.361083984375 526.2046508789062 239.7802276611328 518.0368041992188 241.3509063720703 509.7977294921875 C 242.90184020996094 501.6866149902344 244.2061309814453 493.8605041503906 245.00238037109375 486.48114013671875 C 245.0374755859375 479.74212646484375 244.1190948486328 473.8477783203125 242.0166015625 469.0190124511719 C 238.62904357910156 465.5504150390625 234.31167602539062 463.7916564941406 228.59718322753906 463.2138366699219 C 223.46780395507812 465.75445556640625 219.13104248046875 470.8316955566406 215.3494415283203 477.9516296386719 C 212.1836395263672 486.1434020996094 210.01864624023438 495.0436096191406 208.9863739013672 503.9387512207031 C 208.98760986328125 512.0752563476562 209.4007110595703 519.076416015625 209.55580139160156 524.836181640625 C 208.86672973632812 529.3419799804688 207.10769653320312 532.6749267578125 204.21434020996094 534.9999389648438 C 200.209716796875 536.488525390625 195.24490356445312 537.2732543945312 189.60427856445312 537.4658203125 C 183.6382598876953 537.1410522460938 177.76011657714844 536.336181640625 172.3878173828125 535.0408325195312 C 167.922607421875 533.17138671875 164.7104949951172 530.5883178710938 162.8982391357422 527.2125244140625 C 162.4761199951172 522.8108520507812 163.4533233642578 517.1956176757812 165.1774444580078 510.612060546875 C 166.8992462158203 503.3386535644531 168.04116821289062 495.6007385253906 169.17047119140625 487.079833984375 C 167.473388671875 478.8735046386719 162.64114379882812 472.03619384765625 157.7146759033203 465.5013732910156 C 157.6272430419922 456.22320556640625 155.66262817382812 446.1026916503906 154.89743041992188 435.401123046875 C 153.79490661621094 425.5937805175781 153.99298095703125 415.91357421875 154.24777221679688 408.69696044921875 C 155.29647827148438 403.9542236328125 156.8010711669922 401.7725830078125 158.25338745117188 402.9515380859375 C 159.03024291992188 407.7934265136719 159.16798400878906 414.72930908203125 159.55856323242188 423.1064453125 C 159.89132690429688 432.22216796875 160.3065185546875 441.1463928222656 163.26988220214844 449.02911376953125 C 167.4094696044922 455.7053527832031 172.6985321044922 460.8205871582031 179.6250762939453 464.0060729980469 C 187.5249786376953 466.6010437011719 194.37155151367188 465.8988342285156 201.1431427001953 464.37322998046875 C 205.5662078857422 460.2027587890625 209.44659423828125 455.6746826171875 213.23744201660156 451.2503356933594 C 217.4458465576172 447.92120361328125 221.63905334472656 445.5854187011719 225.82992553710938 443.3475341796875 C 228.51382446289062 439.3876953125 230.8705291748047 435.3536376953125 234.1538543701172 433.33758544921875 C 237.7937469482422 432.0835876464844 241.27554321289062 431.3514709472656 244.471923828125 431.6221923828125 C 247.13720703125 434.39886474609375 249.3104705810547 439.2359924316406 250.4136505126953 445.99365234375 C 252.6298828125 452.64007568359375 255.48556518554688 458.7540588378906 261.13800048828125 462.10272216796875 C 268.7892761230469 464.2040710449219 276.2266540527344 464.00225830078125 283.2879943847656 460.8637390136719 C 287.7963562011719 454.27374267578125 291.2354431152344 445.5174255371094 294.84979248046875 436.3656311035156 C 299.605224609375 428.995849609375 303.6011047363281 422.6141662597656 305.69293212890625 416.38409423828125 C 306.25799560546875 410.0536804199219 305.090576171875 404.8375244140625 300.8447265625 401.46514892578125 C 295.2120361328125 398.2068176269531 287.570068359375 396.2040710449219 278.50579833984375 395.15325927734375 C 268.32611083984375 393.58074951171875 258.0503845214844 395.7455139160156 247.67665100097656 397.18243408203125 C 237.4167022705078 397.7962951660156 227.41639709472656 397.91265869140625 218.96803283691406 399.77362060546875 C 211.3627166748047 399.5033874511719 204.54051208496094 397.4499206542969 197.4127960205078 395.3265380859375 C 192.30575561523438 391.0836486816406 188.15191650390625 386.105712890625 184.19847106933594 383.3919982910156 C 181.58595275878906 381.1181640625 181.6861572265625 378.6690368652344 184.4862823486328 378.3459777832031 C 191.44007873535156 378.9444580078125 198.4602813720703 377.88604736328125 206.74813842773438 378.36572265625 C 215.98358154296875 378.9196472167969 225.85400390625 379.5415954589844 236.13015747070312 380.2103271484375 C 246.6093292236328 380.8742980957031 257.146484375 381.5392761230469 254.9890594482422 376.35858154296875" stroke-width="0.0" fill="rgb(238, 81, 8)" opacity="0.99985343" stroke="rgb(177, 208, 209)" stroke-opacity="0.8791718" stroke-linecap="round" stroke-linejoin="round"/>
    <path d="M 187.9255828857422 237.6471405029297 C 187.64707946777344 237.9384307861328 187.84640502929688 237.8478546142578 188.17892456054688 238.34690856933594 C 188.93170166015625 238.3325958251953 190.15841674804688 238.56590270996094 191.5110321044922 239.239990234375 C 191.90773010253906 239.75897216796875 193.68377685546875 239.73133850097656 194.34597778320312 240.29539489746094 C 196.10092163085938 240.2398223876953 197.3038330078125 240.39060974121094 198.37506103515625 240.7612762451172 C 200.00527954101562 241.44036865234375 201.3314666748047 242.5429229736328 202.06314086914062 243.28900146484375 C 201.93763732910156 246.05953979492188 202.41566467285156 249.77903747558594 200.66180419921875 251.3589324951172 C 199.4979248046875 256.0179138183594 196.7221221923828 261.1321105957031 195.558837890625 266.0467224121094 C 194.28268432617188 272.46148681640625 193.71102905273438 279.0362854003906 193.3413543701172 286.3705749511719 C 190.55738830566406 290.7505187988281 193.69215393066406 294.6260070800781 187.63681030273438 298.26983642578125 C 186.49217224121094 304.56817626953125 177.8566131591797 298.3223571777344 176.8507537841797 306.0745849609375 C 174.00103759765625 313.8648681640625 171.21774291992188 318.61627197265625 169.0377655029297 324.7357177734375 C 168.3424530029297 329.98406982421875 163.27374267578125 333.9065856933594 163.3651123046875 340.9514465332031 C 160.61386108398438 344.07196044921875 160.6170654296875 349.2276306152344 158.4883575439453 354.49285888671875 C 158.73121643066406 359.066650390625 155.16607666015625 361.9110412597656 154.44960021972656 362.6199645996094 C 154.52923583984375 371.95953369140625 154.70339965820312 375.7415771484375 154.60174560546875 380.44659423828125 C 156.123779296875 381.54962158203125 158.4549560546875 382.7467956542969 160.4051055908203 383.50787353515625 C 162.0014190673828 383.5438537597656 162.3453369140625 382.15972900390625 163.45016479492188 382.142578125 C 165.49554443359375 383.3056945800781 165.00054931640625 381.2943420410156 161.77108764648438 381.4831237792969 C 159.5986785888672 382.2838134765625 157.47084045410156 385.3986511230469 156.8386688232422 390.65234375 C 155.79270935058594 396.6046142578125 154.59327697753906 402.52496337890625 154.26075744628906 409.2232666015625 C 154.74838256835938 415.2807922363281 154.6287841796875 420.6665954589844 154.50364685058594 424.2784423828125 C 154.00259399414062 425.25653076171875 153.630859375 423.4419860839844 153.19735717773438 419.47265625 C 153.90638732910156 413.8187561035156 151.86830139160156 408.8587341308594 152.4075469970703 400.15478515625 C 146.7958221435547 398.7253112792969 141.259033203125 397.0274658203125 135.4490509033203 396.0516662597656 C 128.4055633544922 395.10418701171875 123.84648895263672 390.8780517578125 119.31697082519531 385.36676025390625 C 115.77753448486328 379.4503173828125 114.18051147460938 372.1247863769531 114.52140045166016 364.78411865234375 C 113.29134368896484 359.6425476074219 112.9066162109375 355.1540222167969 112.98085021972656 350.77899169921875 C 109.5417709350586 350.5505065917969 103.3156967163086 346.425048828125 101.54500579833984 350.3001708984375 C 96.67037200927734 352.54193115234375 90.98336791992188 354.7620849609375 85.41838836669922 357.5113220214844 C 80.99586486816406 361.5226135253906 76.22700500488281 365.2016906738281 71.73738098144531 369.5343933105469 C 67.10579681396484 373.4530944824219 63.36174392700195 377.3824157714844 59.76304626464844 380.7822265625 C 56.23640441894531 383.1244812011719 52.86796951293945 384.573486328125 49.880340576171875 385.4667053222656 C 47.146141052246094 386.6735534667969 44.60084533691406 387.1004333496094 41.37778854370117 387.4701843261719 C 40.15342712402344 390.11053466796875 38.49703598022461 393.0680847167969 37.18060302734375 395.92926025390625 C 32.98332214355469 396.7484130859375 28.47376823425293 396.854248046875 24.23190689086914 393.8905334472656 C 20.284961700439453 391.5695495605469 16.50052261352539 389.5976257324219 14.428476333618164 386.5625915527344 C 13.040260314941406 382.5954895019531 11.092546463012695 378.95361328125 8.726494789123535 375.4499816894531 C 5.851274013519287 371.9737243652344 4.261160373687744 367.86126708984375 4.210643768310547 363.3233642578125 C 7.178142070770264 358.03485107421875 12.181318283081055 352.095947265625 17.295814514160156 345.49749755859375 C 21.47535514831543 341.114501953125 20.004749298095703 334.5696105957031 17.304513931274414 330.49383544921875 C 16.680171966552734 327.888916015625 18.32158851623535 327.5750732421875 22.597593307495117 328.9925231933594 C 28.264896392822266 330.1179504394531 34.67791748046875 330.7709045410156 41.414161682128906 330.8446044921875 C 47.181854248046875 328.0867004394531 56.1537971496582 325.2478332519531 58.27250289916992 320.2456359863281 C 63.08599853515625 312.9808654785156 69.40519714355469 307.66448974609375 75.51305389404297 301.2400207519531 C 81.70735931396484 295.7294616699219 87.35052490234375 290.82061767578125 92.42473602294922 288.37945556640625 C 97.50733947753906 288.02471923828125 102.25624084472656 288.9505615234375 105.4371566772461 292.1314392089844 C 110.26931762695312 293.2751770019531 113.48193359375 296.802734375 116.5586166381836 301.02587890625 C 119.25848388671875 304.6864013671875 120.66815185546875 309.18603515625 121.99615478515625 313.7686767578125 C 122.8932113647461 318.10565185546875 123.20471954345703 322.27496337890625 123.27515411376953 326.0221252441406 C 123.25053405761719 329.2972717285156 123.24247741699219 332.0036315917969 124.1908950805664 333.61676025390625 C 124.8514175415039 333.6471862792969 125.70563507080078 335.3428955078125 127.08863067626953 335.243408203125 C 128.8403778076172 334.8431701660156 131.1778106689453 332.93218994140625 134.03656005859375 330.54962158203125 C 138.61361694335938 329.8448181152344 141.87367248535156 326.59906005859375 147.75340270996094 325.72930908203125 C 151.41311645507812 323.13861083984375 152.3179168701172 317.7156677246094 153.692626953125 312.1665344238281 C 155.5714874267578 306.9055480957031 156.81053161621094 301.08587646484375 159.8661346435547 294.6593322753906 C 156.25930786132812 292.78790283203125 154.5917205810547 289.019775390625 155.47647094726562 282.24267578125 C 155.5455780029297 276.8193359375 159.25784301757812 272.28546142578125 161.49375915527344 266.6619873046875 C 164.69808959960938 261.62249755859375 167.60321044921875 257.22808837890625 170.44772338867188 253.57467651367188 C 172.52182006835938 249.49041748046875 175.9268798828125 248.2978515625 175.66477966308594 243.33892822265625 C 177.1062469482422 239.86643981933594 177.70425415039062 236.76431274414062 187.9255828857422 237.6471405029297" stroke-width="0.0" fill="rgb(158, 128, 182)" opacity="0.9999992" stroke="rgb(217, 101, 153)" stroke-opacity="0.6880403" stroke-linecap="round" stroke-linejoin="round"/>
    <path d="M 303.73907470703125 377.8180847167969 C 305.41802978515625 377.320556640625 307.08538818359375 377.161376953125 308.6767883300781 377.5745544433594 C 310.1208190917969 378.36688232421875 311.351318359375 379.6595458984375 312.3150939941406 381.63421630859375 C 312.91387939453125 384.3827819824219 313.1261901855469 387.857177734375 312.9140930175781 392.06207275390625 C 312.3735656738281 397.00537109375 311.49871826171875 402.580078125 310.95263671875 408.9967041015625 C 308.9955139160156 415.19158935546875 307.40191650390625 422.1568298339844 305.6355895996094 429.6672058105469 C 303.6748046875 437.6225280761719 301.52520751953125 445.9084777832031 298.9276123046875 453.95928955078125 C 297.2253112792969 463.4765625 293.9021911621094 471.9754943847656 289.98382568359375 479.6410827636719 C 289.0901184082031 488.3662109375 287.8360900878906 495.9190979003906 286.69879150390625 503.5126037597656 C 288.2298278808594 505.6416015625 293.3887634277344 504.7586364746094 297.80694580078125 506.1347961425781 C 301.98431396484375 513.197265625 302.6202697753906 514.3700561523438 297.5829772949219 517.201171875 C 293.0287170410156 521.2822265625 291.6472473144531 525.4620971679688 294.9640808105469 531.5115356445312 C 303.0626525878906 537.29150390625 309.9533996582031 543.712890625 317.6407775878906 549.457763671875 C 325.5325012207031 553.4210815429688 328.48468017578125 561.0228881835938 334.0854797363281 564.7612915039062 C 337.0396728515625 569.27294921875 337.26715087890625 571.9652099609375 334.8012390136719 574.9877319335938 C 333.1307067871094 579.6070556640625 327.2854919433594 581.4642944335938 320.5142517089844 582.8446044921875 C 313.0781555175781 583.7301635742188 304.880859375 583.6001586914062 296.53057861328125 584.6018676757812 C 288.575927734375 584.9029541015625 278.9642333984375 582.8125610351562 270.262451171875 583.6399536132812 C 261.9809265136719 579.7236328125 253.2640838623047 581.8198852539062 245.74334716796875 579.58984375 C 239.55816650390625 579.0319213867188 237.0006561279297 572.9614868164062 233.65806579589844 567.6976928710938 C 233.31488037109375 562.83447265625 233.34983825683594 554.1250610351562 233.67703247070312 548.1600952148438 C 234.62762451171875 539.50048828125 234.7933349609375 530.758544921875 234.9121551513672 525.6000366210938 C 230.2105712890625 522.0331420898438 228.6248016357422 517.6669921875 229.30499267578125 512.8102416992188 C 232.5685577392578 508.1885986328125 240.3410186767578 504.8846435546875 241.44956970214844 497.59100341796875 C 243.00486755371094 488.98431396484375 246.09344482421875 482.5909729003906 244.8805389404297 475.4226379394531 C 243.1845703125 469.9252014160156 240.3422393798828 465.74267578125 236.27456665039062 462.0697937011719 C 231.30340576171875 461.3891906738281 227.6497039794922 463.4395446777344 225.5299530029297 469.04656982421875 C 219.0792236328125 471.811767578125 215.51641845703125 477.89208984375 213.08267211914062 484.9593811035156 C 211.1593780517578 492.07232666015625 211.1121826171875 498.6134948730469 211.8037109375 505.6608581542969 C 215.61721801757812 510.083251953125 219.15969848632812 512.9114990234375 218.02969360351562 518.4348754882812 C 214.10601806640625 521.6541137695312 213.2196807861328 525.3841552734375 213.62344360351562 534.27734375 C 214.12005615234375 539.5009155273438 215.88314819335938 544.2859497070312 213.87403869628906 553.1710815429688 C 212.24752807617188 559.1695556640625 208.8556365966797 564.6932983398438 208.28074645996094 572.7688598632812 C 207.71017456054688 579.5300903320312 204.55633544921875 584.8145141601562 197.7677001953125 585.8651123046875 C 190.79661560058594 587.7698364257812 182.91336059570312 587.8775024414062 175.68179321289062 589.5908813476562 C 168.3440399169922 591.93603515625 161.8814697265625 595.1427612304688 155.25131225585938 596.3438110351562 C 147.7156982421875 595.7530517578125 140.19879150390625 596.0856323242188 133.47093200683594 594.8689575195312 C 126.33343505859375 594.0309448242188 120.94949340820312 591.00634765625 117.53217315673828 585.9994506835938 C 116.84856414794922 577.9092407226562 118.4954833984375 572.4473266601562 126.31166076660156 568.0599365234375 C 135.90293884277344 563.7404174804688 144.06727600097656 558.1981811523438 151.7133331298828 552.1151123046875 C 157.83372497558594 548.7654418945312 157.369873046875 540.582763671875 158.30929565429688 531.7505493164062 C 156.5360107421875 525.612060546875 154.87115478515625 519.4600830078125 155.2557830810547 513.2036743164062 C 158.8612518310547 508.1539611816406 163.7594757080078 503.1458740234375 166.02728271484375 497.40155029296875 C 167.38626098632812 488.332763671875 169.05337524414062 479.8987121582031 164.70947265625 471.9233093261719 C 161.37953186035156 464.65899658203125 159.36474609375 458.0325622558594 158.4088592529297 452.1465759277344 C 158.0330047607422 448.0301818847656 157.96055603027344 445.82080078125 157.97386169433594 445.4745788574219 C 157.98687744140625 446.81396484375 157.9840850830078 449.505615234375 158.09115600585938 453.2406921386719 C 158.7336883544922 457.7900390625 160.26698303222656 462.4309997558594 163.47064208984375 466.8748779296875 C 169.11537170410156 469.1859436035156 174.52850341796875 472.6822204589844 181.31199645996094 474.2597961425781 C 189.22691345214844 474.7325439453125 196.94351196289062 474.8497619628906 204.6436004638672 474.4825439453125 C 211.67141723632812 473.5152587890625 217.69032287597656 472.3403015136719 222.1641845703125 470.0507507324219 C 225.0834503173828 467.0482482910156 226.7751922607422 464.6724853515625 228.2013397216797 463.1982116699219 C 230.73802185058594 463.2825927734375 233.1226348876953 463.9449157714844 236.3074493408203 464.7035827636719 C 240.39743041992188 465.99285888671875 245.8757781982422 467.5623474121094 252.01910400390625 469.2933349609375 C 259.0464172363281 470.5566711425781 266.79010009765625 471.4721374511719 274.39422607421875 472.1080017089844 C 281.5708312988281 472.11572265625 288.0728454589844 471.2884521484375 293.5754089355469 469.5283203125 C 296.61529541015625 464.692626953125 299.68109130859375 459.5898132324219 302.2967529296875 454.440185546875 C 304.01446533203125 447.32781982421875 305.8846740722656 439.85601806640625 307.33441162109375 432.0167236328125 C 309.4688415527344 425.1163635253906 311.09417724609375 417.4162902832031 312.72747802734375 409.76226806640625 C 314.1883544921875 402.2778625488281 314.9083251953125 394.9313049316406 314.6831359863281 387.5990295410156 C 314.9395446777344 380.5567932128906 315.2758483886719 373.72113037109375 303.73907470703125 377.8180847167969" stroke-width="0.0" fill="rgb(241, 204, 92)" opacity="0.99999976" stroke="rgb(130, 133, 80)" stroke-opacity="0.9875307" stroke-linecap="round" stroke-linejoin="round"/>
    <path d="M 324.40863037109375 215.74151611328125 C 323.9912109375 217.21063232421875 322.8853759765625 218.37615966796875 322.5272521972656 219.23739624023438 C 321.0966491699219 219.7576446533203 319.5033264160156 220.49090576171875 319.2591857910156 221.85035705566406 C 319.0692138671875 221.65762329101562 318.4339294433594 222.3581085205078 317.9292907714844 223.15589904785156 C 317.0697326660156 223.78890991210938 316.442138671875 224.44529724121094 315.76837158203125 225.15115356445312 C 315.10919189453125 225.5846710205078 314.5957336425781 226.08917236328125 313.9070129394531 226.56777954101562 C 313.2723388671875 226.92929077148438 312.7494812011719 227.38890075683594 312.0438537597656 227.82907104492188 C 311.2045593261719 228.31845092773438 310.08856201171875 228.86936950683594 308.6094055175781 229.6062774658203 C 306.6864318847656 230.45172119140625 304.3970031738281 231.3559112548828 301.7649230957031 232.45150756835938 C 298.6357727050781 233.685791015625 295.6656799316406 234.6266326904297 292.17462158203125 235.47364807128906 C 290.1141357421875 236.97952270507812 289.69146728515625 239.7516632080078 288.44012451171875 243.50730895996094 C 291.3650817871094 246.5078125 293.76470947265625 250.30836486816406 296.5758972167969 254.76416015625 C 299.50958251953125 259.6457824707031 302.44921875 265.06195068359375 305.1791687011719 270.96636962890625 C 307.626708984375 277.2264709472656 309.927001953125 283.8696594238281 310.727783203125 291.47601318359375 C 313.9988098144531 297.9040832519531 317.165771484375 304.1866149902344 320.35107421875 310.3358154296875 C 323.86358642578125 315.7414855957031 328.2720031738281 319.2465515136719 334.2261657714844 321.118408203125 C 340.0224609375 321.6044006347656 344.4486389160156 319.3429870605469 348.959228515625 315.73260498046875 C 351.64678955078125 310.41888427734375 354.6675720214844 304.9053955078125 357.14312744140625 299.4273681640625 C 358.7740783691406 293.0943908691406 361.6872863769531 287.84136962890625 362.8421936035156 281.88592529296875 C 365.8208312988281 278.38409423828125 364.0402526855469 272.808349609375 364.2850036621094 266.7322082519531 C 360.6916809082031 263.4749755859375 356.0799865722656 259.7972717285156 350.8188171386719 256.70721435546875 C 344.97357177734375 253.80255126953125 338.9666442871094 251.2681884765625 333.0813903808594 249.156494140625 C 327.55999755859375 247.53211975097656 322.9131774902344 246.2666778564453 319.8153076171875 245.32073974609375 C 318.631103515625 244.8488006591797 319.42767333984375 244.97312927246094 322.11407470703125 245.78921508789062 C 326.430908203125 247.3701629638672 332.02020263671875 249.6199188232422 338.4668884277344 252.3968963623047 C 345.3214416503906 255.51011657714844 352.26019287109375 258.945556640625 359.2304992675781 262.4850158691406 C 365.6414489746094 266.9529113769531 372.36444091796875 271.2060546875 379.3822326660156 275.5956726074219 C 386.8154602050781 279.865966796875 394.8222351074219 283.8274230957031 403.5074768066406 287.3438415527344 C 412.41400146484375 291.4442138671875 420.632568359375 291.7533264160156 431.037109375 290.62548828125 C 435.73980712890625 285.2936706542969 439.6725769042969 279.6203918457031 444.48980712890625 278.9864807128906 C 449.0408630371094 283.8569030761719 448.8841247558594 290.2162780761719 446.5283203125 297.6383056640625 C 452.18408203125 304.1575012207031 460.782470703125 308.447265625 468.9586486816406 313.43499755859375 C 472.8623352050781 317.9914245605469 470.87890625 321.0337829589844 464.9980773925781 323.2725830078125 C 462.3127136230469 326.158935546875 463.9987487792969 331.44683837890625 466.4376525878906 337.9554138183594 C 462.4404602050781 341.5623474121094 455.4569396972656 345.5751953125 447.9062194824219 346.2829284667969 C 443.3909912109375 345.98480224609375 442.6927185058594 350.0596923828125 443.3908386230469 357.6876525878906 C 437.9843444824219 359.3468017578125 433.134765625 357.8341369628906 429.3450012207031 352.0296936035156 C 424.6010437011719 345.609375 419.177978515625 339.97467041015625 410.3868408203125 336.9792785644531 C 403.2441711425781 332.7159118652344 395.4539489746094 329.60369873046875 387.67669677734375 327.4818420410156 C 378.8366394042969 327.2746276855469 371.47991943359375 325.5271911621094 363.56280517578125 325.94512939453125 C 356.5962829589844 323.4895935058594 349.7020568847656 322.03021240234375 343.3085021972656 321.2619934082031 C 337.20660400390625 321.7300109863281 331.8092041015625 323.2594299316406 327.7913818359375 326.3804931640625 C 324.67510986328125 330.5014343261719 322.5174560546875 334.8189697265625 321.4759826660156 339.1472473144531 C 320.91748046875 343.1388854980469 320.71221923828125 346.2664489746094 320.90216064453125 348.218505859375 C 321.1937255859375 348.7784423828125 321.3714904785156 347.7203369140625 321.1889953613281 345.1478576660156 C 320.57763671875 341.3132629394531 319.4952697753906 336.4682922363281 317.910400390625 330.9141845703125 C 315.7642822265625 324.9981994628906 313.05548095703125 318.8624267578125 309.832275390625 312.69940185546875 C 306.2015380859375 306.7348937988281 302.29296875 301.01141357421875 298.2248840332031 295.49688720703125 C 294.120361328125 290.1600036621094 290.1064147949219 284.9239196777344 286.3056640625 279.7431640625 C 282.804443359375 274.586669921875 279.67913818359375 269.415771484375 276.96588134765625 264.1652526855469 C 274.5852966308594 258.8316955566406 272.3836669921875 253.90261840820312 270.1749572753906 249.2748565673828 C 267.83636474609375 245.33685302734375 265.328125 243.0187530517578 262.0352478027344 243.05043029785156 C 257.7507019042969 243.62245178222656 256.1982116699219 248.12742614746094 251.89727783203125 251.1389617919922 C 246.8008575439453 253.85879516601562 241.04086303710938 255.01902770996094 234.97105407714844 254.81216430664062 C 228.2853546142578 254.5541229248047 222.99774169921875 253.1544189453125 219.5211944580078 251.01165771484375 C 216.5621795654297 247.49871826171875 214.965087890625 246.83145141601562 217.5198974609375 244.9346466064453 C 221.24188232421875 243.3192596435547 227.1588134765625 241.83261108398438 234.6397705078125 241.33555603027344 C 243.5919647216797 242.120361328125 252.2747039794922 241.1583251953125 260.73046875 239.19207763671875 C 269.35595703125 237.33241271972656 278.12896728515625 236.14833068847656 286.3271179199219 233.42098999023438 C 294.198486328125 230.65414428710938 301.80206298828125 227.4129180908203 308.9258117675781 224.37210083007812 C 315.461669921875 219.21128845214844 321.8009338378906 214.93960571289062 324.40863037109375 215.74151611328125" stroke-width="0.0" fill="rgb(246, 184, 112)" opacity="1.0" stroke="rgb(250, 88, 190)" stroke-opacity="0.92301816" stroke-linecap="round" stroke-linejoin="round"/>
    <path d="M 305.5147399902344 108.903564453125 C 306.8465270996094 108.45182800292969 308.16864013671875 108.05574798583984 309.4669189453125 107.77110290527344 C 310.7259521484375 107.63912963867188 311.93115234375 107.6869125366211 313.0716857910156 107.92537689208984 C 314.1396179199219 108.34419250488281 315.1427001953125 108.9007797241211 316.1041259765625 109.5416488647461 C 317.0517578125 110.20919799804688 318.0165100097656 110.85852813720703 319.0291442871094 111.45536804199219 C 320.1163330078125 111.97886657714844 321.2709655761719 112.44187927246094 322.47357177734375 112.8578109741211 C 323.69769287109375 113.25003814697266 324.8974304199219 113.65057373046875 326.0276794433594 114.09183502197266 C 327.03985595703125 114.60562133789062 327.8942565917969 115.21385955810547 328.5637512207031 115.92768859863281 C 329.0350036621094 116.74896240234375 329.3114318847656 117.65904235839844 329.3996887207031 118.63958740234375 C 329.31719970703125 119.66572570800781 329.1021423339844 120.71562194824219 328.7978515625 121.77655792236328 C 328.4525146484375 122.83179473876953 328.1127624511719 123.85736083984375 327.7952575683594 124.8345718383789 C 327.4901428222656 125.73743438720703 327.1719055175781 126.53718566894531 326.8158264160156 127.20805358886719 C 326.4031982421875 127.71987915039062 325.9245300292969 128.04510498046875 325.3733825683594 128.1724090576172 C 324.748046875 128.09140014648438 324.0572509765625 127.80956268310547 323.3114318847656 127.34464263916016 C 322.52154541015625 126.72676086425781 321.7012939453125 125.9888916015625 320.8592224121094 125.15562438964844 C 320.0151062011719 124.23163604736328 319.1881408691406 123.2334213256836 318.3833923339844 122.1933364868164 C 317.5887145996094 121.15026092529297 316.8351135253906 120.01488494873047 316.1128234863281 118.8569107055664 C 315.413330078125 117.68402862548828 314.62799072265625 116.64308166503906 313.76641845703125 115.7367172241211 C 312.9746398925781 114.81130981445312 312.3198547363281 113.82489013671875 311.7900085449219 112.8742904663086 C 311.3800354003906 112.00068664550781 311.1230773925781 111.19051361083984 311.03302001953125 110.45112609863281 C 311.0829772949219 109.79788970947266 311.2493591308594 109.22123718261719 311.5093994140625 108.70187377929688 C 311.8318176269531 108.213134765625 312.1838684082031 107.72918701171875 305.5147399902344 108.903564453125" stroke-width="0.0" fill="rgb(145, 69, 23)" opacity="0.999933" stroke="rgb(158, 116, 239)" stroke-opacity="0.10871427" stroke-linecap="round" stroke-linejoin="round"/>
    <path d="M 284.1872863769531 530.845947265625 C 283.77191162109375 531.5103759765625 283.3655090332031 532.170654296875 282.9965515136719 532.81689453125 C 282.6997985839844 533.4371948242188 282.50531005859375 534.021728515625 282.4281311035156 534.5657958984375 C 282.4774169921875 535.0665893554688 282.64959716796875 535.525634765625 282.9256896972656 535.9552001953125 C 283.2804260253906 536.3689575195312 283.6769714355469 536.7821655273438 284.06939697265625 537.2081298828125 C 284.4091796875 537.6534423828125 284.65631103515625 538.1189575195312 284.7818908691406 538.5983276367188 C 284.773193359375 539.0828857421875 284.625 539.56298828125 284.3419189453125 540.0294799804688 C 283.9420166015625 540.476318359375 283.45269775390625 540.9066772460938 282.9119873046875 541.3327026367188 C 282.36114501953125 541.7734985351562 281.83843994140625 542.2521362304688 281.37310791015625 542.7896728515625 C 280.9810485839844 543.405517578125 280.66644287109375 544.1102905273438 280.4237060546875 544.906982421875 C 280.2345886230469 545.7918090820312 280.0764465332031 546.7540283203125 279.9258728027344 547.7755126953125 C 279.7669677734375 548.8363037109375 279.59722900390625 549.914306640625 279.4298095703125 550.98779296875 C 279.2853088378906 552.03857421875 279.1905517578125 553.0536499023438 279.18328857421875 554.0238647460938 C 279.3062438964844 554.9462890625 279.60302734375 555.82080078125 280.11553955078125 556.6519775390625 C 280.8753662109375 557.4441528320312 281.9002685546875 558.2017211914062 283.1883239746094 558.9263916015625 C 284.72576904296875 559.6143188476562 286.4842224121094 560.2587890625 288.43310546875 560.846923828125 C 290.541259765625 561.3635864257812 292.7729187011719 561.7930908203125 295.0921630859375 562.1181640625 C 297.46270751953125 562.3216552734375 299.8476257324219 562.3901977539062 302.2091369628906 562.3145751953125 C 304.5100402832031 562.0895385742188 306.7110290527344 561.7137451171875 308.7756652832031 561.194091796875 C 310.67034912109375 560.5452270507812 312.3749694824219 559.7891235351562 313.8850402832031 558.9590454101562 C 315.2178955078125 558.0992431640625 316.4065856933594 557.2608032226562 317.4988098144531 556.4996337890625 C 318.5497131347656 555.8722534179688 319.614013671875 555.4318237304688 320.73126220703125 555.2236328125 C 321.9212646484375 555.2801513671875 323.1790771484375 555.6121215820312 324.4872131347656 556.2188110351562 C 325.8110046386719 557.0866088867188 327.09405517578125 558.1835327148438 328.256103515625 559.468505859375 C 329.19873046875 560.8829345703125 329.81866455078125 562.3584594726562 330.0299987792969 563.8236083984375 C 329.7808837890625 565.2058715820312 329.05291748046875 566.4363403320312 327.86151123046875 567.4609985351562 C 326.25360107421875 568.2548828125 324.2890625 568.8222045898438 322.0356140136719 569.1770629882812 C 319.5648498535156 569.3469848632812 316.9446716308594 569.3770141601562 314.2371826171875 569.318115234375 C 311.4932861328125 569.2200927734375 308.7418518066406 569.127685546875 305.9997863769531 569.0750732421875 C 303.2757263183594 569.0827026367188 300.5616455078125 569.1578979492188 297.8365173339844 569.2954711914062 C 295.0780944824219 569.4808959960938 292.2652282714844 569.6935424804688 289.380126953125 569.9070434570312 C 286.41180419921875 570.0972290039062 283.3533020019531 570.2400512695312 280.20318603515625 570.3109130859375 C 276.9685363769531 570.293212890625 273.66259765625 570.1730346679688 270.306884765625 569.9369506835938 C 266.9381408691406 569.5770874023438 263.6060485839844 569.0930786132812 260.3714904785156 568.4898681640625 C 257.30694580078125 567.7793579101562 254.49313354492188 566.9812622070312 252.01358032226562 566.120849609375 C 249.95394897460938 565.2269287109375 248.39419555664062 564.3369750976562 247.40318298339844 563.4899291992188 C 247.03741455078125 562.7177124023438 247.33444213867188 562.0436401367188 248.29397583007812 561.4756469726562 C 249.86990356445312 561.0076904296875 251.98590087890625 560.6201782226562 254.5345458984375 560.2733764648438 C 257.3824768066406 559.9100341796875 260.3818359375 559.46240234375 263.37091064453125 558.8619995117188 C 266.1852722167969 558.0513916015625 268.6708984375 556.99853515625 270.6959533691406 555.7001953125 C 272.16302490234375 554.1859741210938 273.01666259765625 552.5180053710938 273.2546691894531 550.7813110351562 C 272.9116516113281 549.0726318359375 272.0311279296875 547.4823608398438 270.6812744140625 546.0819702148438 C 268.95611572265625 544.9097290039062 266.97454833984375 543.9744262695312 264.8589782714844 543.2680053710938 C 262.7292175292969 542.7655029296875 260.69415283203125 542.4191284179688 258.8216857910156 542.1629638671875 C 257.1348571777344 541.9293823242188 255.62840270996094 541.6578369140625 254.2792205810547 541.3057250976562 C 253.05535888671875 540.8672485351562 251.922607421875 540.36865234375 250.84530639648438 539.8541259765625 C 249.78968811035156 539.3812255859375 248.7272186279297 539.0236206054688 247.64051818847656 538.8604736328125 C 246.5258331298828 538.9651489257812 245.3998260498047 539.402587890625 244.29685974121094 540.2286987304688 C 243.25604248046875 541.4691162109375 242.3143310546875 543.110107421875 241.49789428710938 545.0861206054688 C 240.8209228515625 547.284912109375 240.29031372070312 549.5514526367188 239.89732360839844 551.709228515625 C 239.615966796875 553.5863037109375 239.41246032714844 555.034423828125 239.25196838378906 555.9223022460938 C 239.1077880859375 556.1622314453125 238.96600341796875 555.722900390625 238.82704162597656 554.6358642578125 C 238.70748901367188 552.9794921875 238.64126586914062 550.8580932617188 238.66976928710938 548.4013061523438 C 238.83740234375 545.7575073242188 239.1923828125 543.0848999023438 239.78170776367188 540.5345458984375 C 240.63861083984375 538.2418212890625 241.78318786621094 536.3238525390625 243.22317504882812 534.8596801757812 C 244.95596313476562 533.8801879882812 246.9571533203125 533.3568725585938 249.1796875 533.2221069335938 C 251.567138671875 533.3858642578125 254.0594940185547 533.7510986328125 256.595458984375 534.216064453125 C 259.1185302734375 534.6883544921875 261.5796813964844 535.0897827148438 263.9382629394531 535.3536376953125 C 266.17205810546875 535.44140625 268.27960205078125 535.3466796875 270.2726745605469 535.0772094726562 C 272.1680603027344 534.65283203125 273.988037109375 534.1085815429688 275.7592468261719 533.4853515625 C 277.5057067871094 532.8237915039062 279.2453308105469 532.1512451171875 284.1872863769531 530.845947265625" stroke-width="0.0" fill="rgb(246, 253, 249)" opacity="0.9999551" stroke="rgb(43, 206, 119)" stroke-opacity="0.735537" stroke-linecap="round" stroke-linejoin="round"/>
    <path d="M 101.48880004882812 302.34967041015625 C 102.40825653076172 302.8122863769531 103.32987213134766 303.26318359375 104.25347900390625 303.6708068847656 C 105.17950439453125 303.9972839355469 106.10292053222656 304.2054748535156 107.0165023803711 304.27197265625 C 107.90869903564453 304.1972961425781 108.76423645019531 304.009765625 109.56494903564453 303.760009765625 C 110.28861236572266 303.51416015625 110.91304779052734 303.3401794433594 111.41773223876953 303.2957763671875 C 111.78544616699219 303.42108154296875 112.01024627685547 303.7340393066406 112.09932708740234 304.235595703125 C 112.07220458984375 304.91156005859375 111.95333099365234 305.73785400390625 111.76995849609375 306.6868591308594 C 111.55160522460938 307.72589111328125 111.32805633544922 308.8208923339844 111.12118530273438 309.9422302246094 C 110.94833374023438 311.06365966796875 110.81803131103516 312.16375732421875 110.73385620117188 313.2328186035156 C 110.6957778930664 314.269775390625 110.69454956054688 315.2779541015625 110.72147369384766 316.2630310058594 C 110.76841735839844 317.2344970703125 110.82652282714844 318.20074462890625 110.88968658447266 319.16949462890625 C 110.95423889160156 320.148681640625 111.01756286621094 321.1429138183594 111.07884216308594 322.1539306640625 C 111.13819122314453 323.1823425292969 111.19269561767578 324.225830078125 111.23843383789062 325.2792663574219 C 111.26988220214844 326.33660888671875 111.27599334716797 327.3891906738281 111.24373626708984 328.4268798828125 C 111.15847778320312 329.4361572265625 111.0032730102539 330.40179443359375 110.76136016845703 331.3089904785156 C 110.41827392578125 332.1419982910156 109.96417236328125 332.88421630859375 109.3944091796875 333.5208740234375 C 108.71170043945312 334.0426330566406 107.92395782470703 334.4420166015625 107.04354095458984 334.7179870605469 C 106.0886459350586 334.8798522949219 105.0798568725586 334.9454040527344 104.0368423461914 334.93853759765625 C 102.98229217529297 334.8866882324219 101.93826293945312 334.8196105957031 100.9215316772461 334.767333984375 C 99.94608306884766 334.75677490234375 99.02152252197266 334.8095397949219 98.15296173095703 334.9403076171875 C 97.34355926513672 335.1488037109375 96.5938491821289 335.4241638183594 95.89757537841797 335.7422790527344 C 95.24337768554688 336.0741882324219 94.6156997680664 336.3866882324219 93.99313354492188 336.6475524902344 C 93.35551452636719 336.8313903808594 92.68440246582031 336.9232177734375 91.96351623535156 336.9145812988281 C 91.18418884277344 336.803955078125 90.3462905883789 336.60272216796875 89.4535903930664 336.3307800292969 C 88.51842498779297 336.01220703125 87.55754852294922 335.669921875 86.59112548828125 335.3233642578125 C 85.6405258178711 334.9821472167969 84.72489166259766 334.64404296875 83.86256408691406 334.2966003417969 C 83.07006072998047 333.921142578125 82.36074829101562 333.4980773925781 81.74050903320312 333.0083312988281 C 81.20948791503906 332.4370422363281 80.76174926757812 331.77862548828125 80.3886947631836 331.03619384765625 C 80.07889556884766 330.22406005859375 79.82268524169922 329.3607177734375 79.61251068115234 328.4664611816406 C 79.44435119628906 327.56402587890625 79.31666564941406 326.67388916015625 79.23263549804688 325.8136901855469 C 79.19539642333984 324.9931335449219 79.20849609375 324.21527099609375 79.27008819580078 323.470947265625 C 79.37429809570312 322.74835205078125 79.50836181640625 322.0315856933594 79.65603637695312 321.30389404296875 C 79.8006591796875 320.5502624511719 79.92455291748047 319.7589111328125 80.01732635498047 318.92034912109375 C 80.07172393798828 318.02984619140625 80.08250427246094 317.0860595703125 80.05229949951172 316.0923767089844 C 79.9901351928711 315.0592041015625 79.91297912597656 313.99871826171875 79.83943176269531 312.9237976074219 C 79.78837585449219 311.8486022949219 79.7808609008789 310.78753662109375 79.8372573852539 309.75543212890625 C 79.9759750366211 308.7675476074219 80.2115249633789 307.83770751953125 80.55294036865234 306.9809875488281 C 81.00200653076172 306.2100524902344 81.55691528320312 305.5357971191406 82.21443176269531 304.96795654296875 C 82.9678955078125 304.5127258300781 83.8074722290039 304.1716003417969 84.72296905517578 303.9407653808594 C 85.702880859375 303.8130798339844 86.73409271240234 303.775146484375 87.80075073242188 303.8110656738281 C 88.88806915283203 303.9040222167969 89.9805679321289 304.0301818847656 91.06159973144531 304.16497802734375 C 92.1163558959961 304.2843017578125 93.134765625 304.3647155761719 94.10728454589844 304.3853759765625 C 95.02690887451172 304.3307189941406 95.89259338378906 304.19366455078125 96.70658111572266 303.97747802734375 C 97.47370910644531 303.69061279296875 98.20357513427734 303.3480224609375 98.9095687866211 302.96697998046875 C 99.60246276855469 302.5673522949219 100.29273986816406 302.1624755859375 101.48880004882812 302.34967041015625" stroke-width="0.0" fill="rgb(253, 189, 101)" opacity="1.0" stroke="rgb(93, 34, 218)" stroke-opacity="0.4803714" stroke-linecap="round" stroke-linejoin="round"/>
    <path d="M 276.2079162597656 242.24490356445312 C 277.23297119140625 242.9669952392578 278.2593994140625 243.68634033203125 279.2915954589844 244.4022216796875 C 280.3313903808594 245.11068725585938 281.3802185058594 245.8107147216797 282.435791015625 246.50279235839844 C 283.48883056640625 247.18893432617188 284.528564453125 247.87408447265625 285.5431823730469 248.56723022460938 C 286.51806640625 249.27981567382812 287.4434814453125 250.0193634033203 288.31011962890625 250.7939453125 C 289.1108703613281 251.60470581054688 289.8514099121094 252.44937133789062 290.541015625 253.3220672607422 C 291.1942443847656 254.20762634277344 291.8314208984375 255.0825958251953 292.4696960449219 255.9166717529297 C 293.1268005371094 256.6789855957031 293.8120422363281 257.3401794433594 294.526611328125 257.8787841796875 C 295.26239013671875 258.2860107421875 296.00372314453125 258.5650939941406 296.73260498046875 258.7359313964844 C 297.4308166503906 258.8268127441406 298.08221435546875 258.87200927734375 298.6767272949219 258.915283203125 C 299.2121887207031 259.001220703125 299.69293212890625 259.1717224121094 300.12811279296875 259.457763671875 C 300.5273742675781 259.8790283203125 300.8997497558594 260.45147705078125 301.25152587890625 261.1766357421875 C 301.58599853515625 262.0445861816406 301.90228271484375 263.0418701171875 302.1946716308594 264.1478271484375 C 302.455078125 265.3383483886719 302.6729736328125 266.58660888671875 302.8422546386719 267.8638916015625 C 302.9627685546875 269.1326904296875 303.0447082519531 270.36376953125 303.1014709472656 271.5328674316406 C 303.14837646484375 272.61572265625 303.20556640625 273.590576171875 303.2964782714844 274.44854736328125 C 303.4411926269531 275.1914978027344 303.6580505371094 275.8270263671875 303.9544677734375 276.3637390136719 C 304.3255920410156 276.823486328125 304.7643127441406 277.2453918457031 305.2541809082031 277.65740966796875 C 305.7710876464844 278.0775146484375 306.2956848144531 278.54193115234375 306.8221740722656 279.0837707519531 C 307.3381042480469 279.7197570800781 307.7979431152344 280.46649169921875 308.2008361816406 281.32305908203125 C 308.56622314453125 282.2235107421875 308.8839416503906 283.1607666015625 309.2269592285156 284.14105224609375 C 309.589599609375 285.1789855957031 309.9123229980469 286.2691650390625 310.21197509765625 287.35406494140625 C 310.5433044433594 288.3531799316406 310.95989990234375 289.3372497558594 311.4107971191406 290.3019714355469 C 311.8497619628906 291.22760009765625 312.34637451171875 292.151123046875 312.8778381347656 293.138916015625 C 313.3926086425781 294.024169921875 313.9776611328125 294.9577331542969 314.65667724609375 295.9003601074219 C 315.1584167480469 296.8253173828125 315.7501220703125 297.8343200683594 316.2436218261719 298.694091796875 C 316.4809875488281 299.6928405761719 316.65087890625 300.9059143066406 316.7847595214844 302.0172424316406 C 316.8853454589844 303.1228942871094 316.95245361328125 304.1861572265625 317.0117492675781 305.1409912109375 C 317.0265197753906 306.0246887207031 316.9421691894531 306.9210205078125 316.8320007324219 307.79986572265625 C 316.78173828125 308.6138610839844 316.6778869628906 309.37359619140625 316.5820007324219 310.14984130859375 C 316.5444641113281 310.9692687988281 316.5733947753906 311.8106994628906 316.6643371582031 312.6530456542969 C 316.822998046875 313.525390625 317.04278564453125 314.4426574707031 317.3141174316406 315.3966979980469 C 317.6227111816406 316.3750305175781 317.94830322265625 317.3797607421875 318.27593994140625 318.4145202636719 C 318.5892639160156 319.4770202636719 318.8761291503906 320.5615539550781 319.1340026855469 321.6702575683594 C 319.3683166503906 322.8116455078125 319.5783386230469 323.9822082519531 319.76019287109375 325.1694641113281 C 319.911865234375 326.3609619140625 320.0279541015625 327.5426330566406 320.1044616699219 328.68682861328125 C 320.13714599609375 329.75665283203125 320.1163635253906 330.7072448730469 320.0337829589844 331.4917297363281 C 319.88299560546875 332.0643310546875 319.6585998535156 332.38238525390625 319.3656921386719 332.4114074707031 C 319.01202392578125 332.1274719238281 318.61053466796875 331.51971435546875 318.17572021484375 330.5972595214844 C 317.7218933105469 329.38909912109375 317.262939453125 327.94024658203125 316.8091125488281 326.30963134765625 C 316.3683776855469 324.5606689453125 315.94134521484375 322.75860595703125 315.52191162109375 320.9624938964844 C 315.0956726074219 319.2198791503906 314.6481628417969 317.56427001953125 314.16485595703125 316.0221862792969 C 313.6321105957031 314.613037109375 313.0382995605469 313.3362121582031 312.3783264160156 312.1759033203125 C 311.6549072265625 311.0996398925781 310.8729553222656 310.0702819824219 310.0436706542969 309.0531311035156 C 309.1911926269531 308.01531982421875 308.3409118652344 306.9351806640625 307.52166748046875 305.7943420410156 C 306.75640869140625 304.58306884765625 306.057373046875 303.3045654296875 305.4326477050781 301.9723815917969 C 304.884521484375 300.6097412109375 304.39990234375 299.2509460449219 303.9570617675781 297.9315185546875 C 303.5315246582031 296.68756103515625 303.09735107421875 295.54498291015625 302.6288146972656 294.5208740234375 C 302.10528564453125 293.62091064453125 301.5142822265625 292.84033203125 300.854248046875 292.16729736328125 C 300.1335754394531 291.58740234375 299.3643493652344 291.08087158203125 298.5590515136719 290.6211242675781 C 297.72802734375 290.1779479980469 296.8751220703125 289.71917724609375 295.9990234375 289.2133483886719 C 295.0951843261719 288.6299743652344 294.15618896484375 287.9405822753906 293.17279052734375 287.1240234375 C 292.13690185546875 286.16339111328125 291.0443420410156 285.0466613769531 289.89373779296875 283.7685546875 C 288.6879577636719 282.3300476074219 287.4356689453125 280.7352294921875 286.1502990722656 278.9956359863281 C 284.8460998535156 277.1273498535156 283.53997802734375 275.1540832519531 282.2498474121094 273.10223388671875 C 280.9902038574219 270.9982604980469 279.7760314941406 268.86767578125 278.61859130859375 266.73480224609375 C 277.5295104980469 264.6227111816406 276.5201110839844 262.5494079589844 275.6010437011719 260.527099609375 C 274.78314208984375 258.56439208984375 274.07489013671875 256.6630859375 273.4820556640625 254.8210906982422 C 273.0079040527344 253.03097534179688 272.651123046875 251.2834930419922 272.4021301269531 249.56890869140625 C 272.2421569824219 247.87850952148438 272.1492004394531 246.20404052734375 272.1012268066406 244.53851318359375 C 272.0771789550781 242.87713623046875 272.0596618652344 241.21763610839844 276.2079162597656 242.24490356445312" stroke-width="0.0" fill="rgb(170, 159, 202)" opacity="0.9994987" stroke="rgb(64, 71, 174)" stroke-opacity="0.1625697" stroke-linecap="round" stroke-linejoin="round"/>
    <path d="M 248.0 544.0 C 249.0 545.0 250.0 545.0 251.0 545.0 C 252.0 545.0 253.0 545.0 254.0 545.0 C 255.0 545.0 256.0 545.0 257.0 544.0 C 257.0 543.0 258.0 543.0 259.0 543.0 C 260.0 543.0 261.0 543.0 262.0 543.0 C 263.0 543.0 264.0 544.0 265.0 544.0 C 266.0 544.0 267.0 545.0 268.0 545.0 C 269.0 546.0 270.0 546.0 270.0 547.0 C 271.0 548.0 272.0 549.0 272.0 550.0 C 272.0 551.0 271.0 552.0 271.0 553.0 C 270.0 554.0 269.0 555.0 268.0 556.0 C 267.0 556.0 266.0 556.0 265.0 557.0 C 264.0 557.0 263.0 557.0 262.0 558.0 C 261.0 558.0 260.0 558.0 259.0 558.0 C 258.0 558.0 257.0 558.0 256.0 558.0 C 255.0 558.0 254.0 558.0 253.0 558.0 C 252.0 559.0 251.0 559.0 250.0 560.0 C 249.0 560.0 248.0 560.0 247.0 560.0 C 246.0 560.0 245.0 559.0 244.0 559.0 C 243.0 558.0 242.0 558.0 241.0 558.0 C 241.0 557.0 241.0 556.0 241.0 555.0 C 241.0 554.0 241.0 553.0 241.0 552.0 C 241.0 551.0 241.0 550.0 241.0 549.0 C 241.0 548.0 241.0 547.0 241.0 546.0 C 242.0 545.0 243.0 545.0 244.0 545.0 C 245.0 544.0 245.0 543.0 248.0 544.0" stroke-width="0.0" fill="rgb(244, 255, 251)" opacity="1.0" stroke="rgb(185, 208, 198)" stroke-opacity="0.9415192" stroke-linecap="round" stroke-linejoin="round"/>
    <path d="M 93.0 279.0 C 94.0 279.0 94.0 280.0 94.0 281.0 C 94.0 282.0 93.0 283.0 92.0 284.0 C 93.0 285.0 94.0 286.0 95.0 286.0 C 96.0 285.0 97.0 284.0 97.0 283.0 C 98.0 283.0 99.0 283.0 100.0 284.0 C 101.0 284.0 102.0 285.0 102.0 286.0 C 102.0 287.0 102.0 288.0 103.0 289.0 C 104.0 290.0 105.0 291.0 106.0 291.0 C 107.0 291.0 108.0 291.0 109.0 292.0 C 110.0 293.0 111.0 294.0 112.0 295.0 C 113.0 296.0 114.0 297.0 114.0 298.0 C 115.0 299.0 116.0 300.0 116.0 301.0 C 117.0 302.0 118.0 303.0 118.0 304.0 C 119.0 305.0 119.0 306.0 120.0 307.0 C 121.0 308.0 121.0 309.0 122.0 310.0 C 122.0 311.0 122.0 312.0 123.0 313.0 C 123.0 314.0 124.0 315.0 124.0 316.0 C 125.0 318.0 125.0 321.0 126.0 324.0 C 127.0 327.0 127.0 330.0 130.0 331.0 C 129.0 333.0 126.0 334.0 123.0 335.0 C 120.0 337.0 118.0 340.0 116.0 342.0 C 115.0 344.0 114.0 346.0 116.0 348.0 C 114.0 349.0 112.0 351.0 109.0 350.0 C 106.0 350.0 103.0 349.0 100.0 350.0 C 97.0 351.0 94.0 352.0 91.0 354.0 C 88.0 355.0 89.0 358.0 89.0 361.0 C 87.0 363.0 84.0 365.0 81.0 365.0 C 78.0 363.0 76.0 366.0 75.0 369.0 C 73.0 371.0 70.0 374.0 68.0 377.0 C 65.0 380.0 62.0 382.0 59.0 384.0 C 59.0 387.0 59.0 390.0 59.0 393.0 C 58.0 396.0 58.0 399.0 56.0 402.0 C 55.0 405.0 52.0 405.0 49.0 404.0 C 46.0 401.0 45.0 398.0 44.0 395.0 C 44.0 392.0 43.0 389.0 42.0 386.0 C 40.0 389.0 38.0 392.0 37.0 395.0 C 34.0 398.0 32.0 401.0 29.0 401.0 C 26.0 401.0 23.0 399.0 22.0 396.0 C 22.0 393.0 20.0 390.0 18.0 392.0 C 15.0 392.0 12.0 392.0 9.0 389.0 C 9.0 386.0 10.0 383.0 11.0 380.0 C 10.0 378.0 7.0 378.0 4.0 378.0 C 1.0 377.0 0.0 374.0 0.0 371.0 C 0.0 368.0 2.0 366.0 4.0 363.0 C 6.0 360.0 8.0 357.0 10.0 355.0 C 11.0 352.0 14.0 350.0 16.0 347.0 C 18.0 345.0 19.0 342.0 20.0 339.0 C 19.0 336.0 19.0 333.0 18.0 330.0 C 16.0 327.0 16.0 324.0 19.0 321.0 C 22.0 319.0 25.0 319.0 28.0 322.0 C 31.0 324.0 34.0 327.0 37.0 329.0 C 40.0 330.0 43.0 331.0 45.0 329.0 C 46.0 327.0 46.0 324.0 48.0 321.0 C 51.0 320.0 54.0 319.0 57.0 321.0 C 59.0 318.0 61.0 315.0 64.0 313.0 C 66.0 310.0 68.0 307.0 71.0 305.0 C 74.0 302.0 77.0 300.0 79.0 298.0 C 81.0 296.0 84.0 294.0 86.0 292.0 C 88.0 290.0 91.0 288.0 90.0 285.0 C 90.0 282.0 92.0 279.0 93.0 279.0" stroke-width="0.0" fill="rgb(248, 189, 113)" opacity="1.0" stroke="rgb(253, 82, 238)" stroke-opacity="0.69780475" stroke-linecap="round" stroke-linejoin="round"/>
    <path d="M 103.0 208.0 C 104.0 208.0 105.0 209.0 106.0 209.0 C 107.0 209.0 108.0 209.0 109.0 208.0 C 110.0 208.0 111.0 208.0 112.0 209.0 C 113.0 209.0 114.0 208.0 115.0 208.0 C 116.0 208.0 117.0 208.0 118.0 209.0 C 119.0 209.0 119.0 210.0 120.0 211.0 C 121.0 211.0 121.0 212.0 121.0 213.0 C 121.0 214.0 122.0 215.0 123.0 215.0 C 124.0 215.0 125.0 215.0 126.0 215.0 C 127.0 215.0 127.0 216.0 127.0 217.0 C 127.0 218.0 127.0 219.0 127.0 220.0 C 127.0 221.0 127.0 222.0 127.0 223.0 C 126.0 223.0 125.0 223.0 124.0 223.0 C 123.0 223.0 122.0 223.0 121.0 223.0 C 120.0 222.0 119.0 222.0 118.0 222.0 C 117.0 222.0 116.0 222.0 115.0 222.0 C 114.0 222.0 113.0 222.0 112.0 222.0 C 111.0 222.0 110.0 222.0 109.0 222.0 C 108.0 222.0 107.0 222.0 106.0 222.0 C 105.0 222.0 104.0 222.0 103.0 222.0 C 102.0 222.0 101.0 222.0 100.0 222.0 C 99.0 222.0 98.0 222.0 97.0 222.0 C 97.0 221.0 96.0 220.0 96.0 219.0 C 96.0 218.0 96.0 217.0 96.0 216.0 C 96.0 215.0 97.0 214.0 97.0 213.0 C 97.0 212.0 97.0 211.0 97.0 210.0 C 97.0 209.0 98.0 209.0 99.0 209.0 C 100.0 209.0 101.0 208.0 103.0 208.0" stroke-width="0.0" fill="rgb(1, 1, 1)" opacity="1.0" stroke="rgb(244, 28, 87)" stroke-opacity="0.66766953" stroke-linecap="round" stroke-linejoin="round"/>
    <path d="M 205.0 138.0 C 205.0 139.0 205.0 140.0 205.0 141.0 C 206.0 142.0 207.0 143.0 208.0 144.0 C 209.0 145.0 210.0 145.0 211.0 145.0 C 212.0 145.0 212.0 146.0 212.0 147.0 C 211.0 148.0 210.0 149.0 209.0 150.0 C 208.0 150.0 207.0 150.0 206.0 151.0 C 205.0 151.0 204.0 151.0 203.0 150.0 C 202.0 150.0 201.0 149.0 200.0 148.0 C 200.0 147.0 199.0 146.0 199.0 145.0 C 199.0 144.0 199.0 143.0 200.0 142.0 C 201.0 142.0 202.0 141.0 202.0 140.0 C 202.0 139.0 203.0 138.0 205.0 138.0" stroke-width="0.0" fill="rgb(3, 1, 3)" opacity="1.0" stroke="rgb(94, 89, 0)" stroke-opacity="0.037264302" stroke-linecap="round" stroke-linejoin="round"/>
  </g>
</svg>
