<?xml version="1.0" ?>
<svg xmlns="http://www.w3.org/2000/svg" version="1.1" width="474" height="596">
  <defs/>
  <g>
    <path d="M 266.0 0.0 C 267.0 0.0 268.0 0.0 269.0 0.0 C 270.0 0.0 271.0 0.0 272.0 0.0 C 273.0 0.0 274.0 0.0 275.0 0.0 C 276.0 0.0 277.0 0.0 278.0 0.0 C 279.0 0.0 280.0 0.0 281.0 0.0 C 282.0 0.0 288.0 2.0 296.0 4.0 C 304.0 6.0 312.0 9.0 320.0 12.0 C 328.0 16.0 336.0 20.0 344.0 24.0 C 352.0 29.0 360.0 35.0 368.0 41.0 C 376.0 48.0 384.0 56.0 392.0 64.0 C 399.0 72.0 405.0 80.0 411.0 88.0 C 417.0 96.0 422.0 104.0 427.0 112.0 C 431.0 120.0 432.0 128.0 431.0 136.0 C 426.0 144.0 421.0 152.0 415.0 160.0 C 408.0 168.0 400.0 176.0 392.0 184.0 C 384.0 191.0 376.0 197.0 368.0 203.0 C 360.0 208.0 352.0 213.0 344.0 217.0 C 336.0 220.0 328.0 222.0 320.0 224.0 C 316.0 223.0 324.0 218.0 332.0 212.0 C 340.0 206.0 348.0 198.0 355.0 190.0 C 360.0 182.0 364.0 174.0 367.0 166.0 C 370.0 158.0 371.0 150.0 371.0 142.0 C 370.0 134.0 368.0 126.0 365.0 118.0 C 361.0 110.0 354.0 102.0 346.0 94.0 C 338.0 94.0 330.0 95.0 322.0 96.0 C 314.0 98.0 309.0 98.0 301.0 100.0 C 293.0 102.0 285.0 104.0 277.0 105.0 C 269.0 107.0 261.0 109.0 254.0 103.0 C 246.0 96.0 238.0 91.0 241.0 99.0 C 244.0 107.0 244.0 114.0 236.0 115.0 C 228.0 117.0 220.0 119.0 212.0 121.0 C 204.0 123.0 196.0 126.0 188.0 129.0 C 180.0 132.0 172.0 136.0 165.0 135.0 C 160.0 127.0 157.0 127.0 157.0 135.0 C 156.0 143.0 150.0 149.0 145.0 156.0 C 143.0 164.0 142.0 172.0 143.0 180.0 C 144.0 188.0 147.0 196.0 151.0 204.0 C 157.0 212.0 165.0 219.0 173.0 226.0 C 181.0 231.0 189.0 235.0 197.0 238.0 C 205.0 240.0 213.0 242.0 209.0 243.0 C 201.0 242.0 193.0 239.0 185.0 238.0 C 177.0 239.0 169.0 241.0 162.0 240.0 C 154.0 240.0 146.0 239.0 138.0 239.0 C 130.0 237.0 122.0 236.0 114.0 234.0 C 106.0 231.0 98.0 229.0 90.0 226.0 C 82.0 223.0 74.0 219.0 66.0 215.0 C 58.0 209.0 54.0 201.0 54.0 193.0 C 54.0 185.0 55.0 177.0 57.0 169.0 C 59.0 161.0 60.0 153.0 63.0 145.0 C 65.0 137.0 68.0 129.0 71.0 121.0 C 75.0 113.0 79.0 105.0 83.0 97.0 C 89.0 89.0 94.0 81.0 100.0 73.0 C 107.0 65.0 115.0 57.0 123.0 50.0 C 131.0 43.0 139.0 37.0 147.0 31.0 C 155.0 27.0 163.0 25.0 171.0 24.0 C 179.0 24.0 187.0 25.0 195.0 26.0 C 203.0 28.0 211.0 31.0 214.0 27.0 C 219.0 33.0 221.0 27.0 226.0 27.0 C 234.0 19.0 242.0 12.0 250.0 7.0 C 258.0 3.0 265.0 0.0 266.0 0.0" stroke-width="0.0" fill="rgb(64, 38, 31)" opacity="1.0" stroke="rgb(189, 215, 162)" stroke-opacity="0.6611949" stroke-linecap="round" stroke-linejoin="round"/>
    <path d="M 312.0 225.0 C 313.0 225.0 313.0 226.0 313.0 227.0 C 312.0 227.0 311.0 228.0 310.0 228.0 C 309.0 229.0 308.0 229.0 297.0 234.0 C 293.0 240.0 291.0 242.0 300.0 256.0 C 298.0 244.0 314.0 243.0 332.0 248.0 C 350.0 255.0 365.0 266.0 383.0 275.0 C 401.0 286.0 419.0 292.0 436.0 288.0 C 419.0 295.0 401.0 290.0 383.0 278.0 C 365.0 272.0 359.0 290.0 352.0 308.0 C 359.0 320.0 377.0 324.0 395.0 326.0 C 412.0 337.0 429.0 347.0 443.0 352.0 C 434.0 357.0 418.0 343.0 400.0 330.0 C 382.0 328.0 364.0 325.0 346.0 321.0 C 330.0 321.0 324.0 330.0 321.0 348.0 C 323.0 366.0 318.0 380.0 314.0 397.0 C 311.0 415.0 307.0 433.0 302.0 451.0 C 298.0 469.0 288.0 483.0 287.0 501.0 C 300.0 508.0 295.0 518.0 293.0 533.0 C 280.0 520.0 267.0 529.0 252.0 528.0 C 239.0 522.0 238.0 540.0 237.0 558.0 C 242.0 575.0 260.0 579.0 278.0 581.0 C 296.0 581.0 314.0 580.0 332.0 576.0 C 339.0 561.0 342.0 567.0 330.0 579.0 C 312.0 583.0 294.0 584.0 276.0 583.0 C 258.0 581.0 240.0 577.0 233.0 560.0 C 234.0 542.0 236.0 524.0 228.0 513.0 C 242.0 508.0 242.0 492.0 242.0 474.0 C 233.0 460.0 227.0 463.0 217.0 475.0 C 213.0 493.0 209.0 501.0 210.0 483.0 C 201.0 475.0 183.0 474.0 169.0 477.0 C 169.0 495.0 175.0 509.0 193.0 511.0 C 211.0 508.0 217.0 521.0 213.0 537.0 C 215.0 555.0 217.0 573.0 207.0 586.0 C 189.0 586.0 171.0 592.0 154.0 595.0 C 136.0 595.0 119.0 588.0 122.0 570.0 C 122.0 574.0 128.0 590.0 146.0 592.0 C 164.0 590.0 182.0 585.0 200.0 583.0 C 214.0 575.0 213.0 557.0 211.0 539.0 C 206.0 524.0 194.0 527.0 187.0 532.0 C 183.0 525.0 178.0 526.0 164.0 523.0 C 159.0 524.0 155.0 509.0 166.0 496.0 C 166.0 478.0 158.0 463.0 156.0 445.0 C 154.0 427.0 153.0 409.0 145.0 397.0 C 127.0 392.0 116.0 375.0 114.0 357.0 C 110.0 345.0 92.0 353.0 80.0 362.0 C 74.0 368.0 73.0 366.0 82.0 352.0 C 92.0 350.0 110.0 341.0 127.0 330.0 C 129.0 324.0 127.0 311.0 121.0 304.0 C 114.0 298.0 98.0 285.0 94.0 278.0 C 112.0 264.0 130.0 254.0 148.0 246.0 C 162.0 245.0 171.0 244.0 174.0 248.0 C 162.0 257.0 159.0 267.0 152.0 278.0 C 155.0 296.0 150.0 313.0 151.0 328.0 C 151.0 346.0 158.0 358.0 161.0 351.0 C 162.0 335.0 169.0 332.0 176.0 315.0 C 187.0 301.0 192.0 290.0 195.0 282.0 C 199.0 265.0 201.0 252.0 204.0 251.0 C 206.0 249.0 215.0 252.0 221.0 243.0 C 239.0 243.0 257.0 242.0 275.0 238.0 C 293.0 233.0 311.0 225.0 312.0 225.0" stroke-width="0.0" fill="rgb(232, 106, 164)" opacity="1.0" stroke="rgb(110, 111, 180)" stroke-opacity="0.8432935" stroke-linecap="round" stroke-linejoin="round"/>
    <path d="M 341.0 94.0 C 342.0 94.0 343.0 94.0 344.0 94.0 C 344.0 95.0 345.0 96.0 346.0 96.0 C 346.0 97.0 346.0 98.0 347.0 99.0 C 348.0 99.0 349.0 100.0 350.0 100.0 C 351.0 100.0 351.0 101.0 351.0 102.0 C 352.0 103.0 353.0 104.0 354.0 105.0 C 355.0 105.0 355.0 106.0 356.0 107.0 C 356.0 108.0 357.0 109.0 358.0 109.0 C 359.0 109.0 359.0 111.0 362.0 116.0 C 364.0 120.0 366.0 124.0 367.0 129.0 C 368.0 134.0 370.0 138.0 368.0 142.0 C 370.0 146.0 370.0 151.0 368.0 155.0 C 367.0 160.0 367.0 165.0 364.0 169.0 C 363.0 174.0 360.0 178.0 358.0 183.0 C 354.0 187.0 351.0 192.0 347.0 194.0 C 345.0 199.0 341.0 202.0 336.0 207.0 C 331.0 210.0 326.0 215.0 321.0 216.0 C 316.0 218.0 313.0 222.0 308.0 225.0 C 304.0 227.0 299.0 229.0 294.0 231.0 C 289.0 233.0 284.0 234.0 281.0 233.0 C 278.0 235.0 273.0 237.0 268.0 238.0 C 263.0 239.0 258.0 240.0 253.0 240.0 C 248.0 241.0 243.0 241.0 238.0 242.0 C 233.0 242.0 228.0 242.0 223.0 241.0 C 218.0 240.0 213.0 241.0 208.0 240.0 C 204.0 238.0 200.0 236.0 195.0 235.0 C 191.0 232.0 186.0 231.0 182.0 229.0 C 179.0 227.0 175.0 225.0 173.0 221.0 C 170.0 217.0 165.0 217.0 161.0 212.0 C 159.0 208.0 154.0 207.0 153.0 202.0 C 150.0 197.0 148.0 192.0 146.0 187.0 C 144.0 183.0 144.0 178.0 143.0 174.0 C 143.0 169.0 144.0 165.0 144.0 160.0 C 147.0 156.0 149.0 151.0 153.0 150.0 C 157.0 147.0 158.0 143.0 157.0 139.0 C 158.0 134.0 160.0 131.0 163.0 135.0 C 164.0 140.0 168.0 139.0 173.0 138.0 C 178.0 136.0 182.0 133.0 186.0 131.0 C 191.0 132.0 195.0 129.0 200.0 127.0 C 205.0 125.0 210.0 124.0 215.0 124.0 C 220.0 124.0 217.0 122.0 220.0 120.0 C 225.0 120.0 230.0 118.0 234.0 117.0 C 239.0 116.0 243.0 115.0 248.0 112.0 C 246.0 108.0 244.0 103.0 245.0 99.0 C 241.0 97.0 245.0 96.0 248.0 100.0 C 251.0 104.0 255.0 106.0 258.0 110.0 C 262.0 112.0 266.0 109.0 271.0 108.0 C 275.0 107.0 280.0 105.0 285.0 104.0 C 289.0 106.0 293.0 103.0 298.0 102.0 C 301.0 104.0 305.0 102.0 309.0 99.0 C 310.0 101.0 305.0 103.0 309.0 104.0 C 314.0 104.0 319.0 105.0 324.0 108.0 C 328.0 113.0 329.0 118.0 330.0 123.0 C 329.0 128.0 328.0 133.0 331.0 136.0 C 334.0 133.0 333.0 131.0 337.0 133.0 C 342.0 132.0 342.0 129.0 345.0 127.0 C 347.0 124.0 345.0 121.0 345.0 116.0 C 346.0 112.0 342.0 110.0 338.0 107.0 C 338.0 102.0 335.0 99.0 332.0 98.0 C 335.0 95.0 340.0 94.0 341.0 94.0" stroke-width="0.0" fill="rgb(251, 188, 104)" opacity="1.0" stroke="rgb(30, 37, 75)" stroke-opacity="0.2533036" stroke-linecap="round" stroke-linejoin="round"/>
    <path d="M 170.0 383.0 C 171.0 383.0 172.0 383.0 173.0 383.0 C 174.0 383.0 175.0 383.0 176.0 383.0 C 177.0 383.0 178.0 383.0 179.0 383.0 C 180.0 383.0 181.0 384.0 182.0 385.0 C 183.0 385.0 184.0 385.0 185.0 385.0 C 186.0 385.0 187.0 385.0 188.0 385.0 C 189.0 385.0 190.0 385.0 190.0 386.0 C 191.0 387.0 190.0 388.0 190.0 389.0 C 190.0 390.0 190.0 391.0 190.0 392.0 C 190.0 393.0 190.0 394.0 190.0 395.0 C 190.0 396.0 190.0 397.0 190.0 398.0 C 190.0 399.0 191.0 400.0 192.0 401.0 C 193.0 401.0 194.0 401.0 195.0 401.0 C 196.0 401.0 197.0 401.0 198.0 401.0 C 199.0 400.0 200.0 400.0 201.0 400.0 C 202.0 400.0 203.0 400.0 204.0 400.0 C 205.0 400.0 206.0 400.0 207.0 399.0 C 207.0 398.0 207.0 399.0 207.0 400.0 C 211.0 401.0 215.0 401.0 219.0 401.0 C 223.0 401.0 227.0 400.0 231.0 400.0 C 235.0 400.0 239.0 400.0 242.0 398.0 C 246.0 398.0 250.0 398.0 254.0 398.0 C 257.0 396.0 261.0 396.0 265.0 398.0 C 269.0 399.0 271.0 399.0 274.0 401.0 C 278.0 401.0 282.0 401.0 286.0 400.0 C 288.0 399.0 292.0 400.0 296.0 400.0 C 300.0 400.0 302.0 402.0 302.0 406.0 C 304.0 410.0 302.0 413.0 304.0 416.0 C 302.0 420.0 302.0 424.0 302.0 428.0 C 300.0 430.0 296.0 430.0 292.0 430.0 C 288.0 432.0 288.0 436.0 286.0 439.0 C 286.0 443.0 286.0 447.0 286.0 451.0 C 286.0 455.0 286.0 459.0 285.0 462.0 C 281.0 462.0 277.0 462.0 273.0 462.0 C 269.0 462.0 265.0 462.0 261.0 462.0 C 257.0 462.0 256.0 458.0 256.0 454.0 C 256.0 450.0 257.0 446.0 257.0 442.0 C 256.0 438.0 257.0 434.0 255.0 430.0 C 251.0 431.0 247.0 430.0 243.0 430.0 C 239.0 430.0 235.0 430.0 231.0 430.0 C 227.0 430.0 223.0 432.0 226.0 435.0 C 230.0 435.0 234.0 435.0 238.0 435.0 C 234.0 435.0 230.0 435.0 226.0 435.0 C 223.0 437.0 224.0 441.0 228.0 441.0 C 230.0 441.0 226.0 441.0 222.0 444.0 C 221.0 447.0 217.0 447.0 213.0 447.0 C 209.0 448.0 208.0 451.0 206.0 455.0 C 206.0 459.0 205.0 462.0 201.0 462.0 C 198.0 464.0 195.0 464.0 192.0 463.0 C 188.0 462.0 184.0 462.0 180.0 464.0 C 177.0 463.0 177.0 459.0 177.0 455.0 C 174.0 452.0 170.0 453.0 167.0 455.0 C 166.0 454.0 168.0 451.0 170.0 448.0 C 166.0 446.0 162.0 446.0 161.0 443.0 C 161.0 439.0 161.0 435.0 161.0 431.0 C 161.0 427.0 161.0 423.0 161.0 419.0 C 161.0 415.0 161.0 411.0 159.0 408.0 C 159.0 404.0 159.0 400.0 159.0 396.0 C 159.0 392.0 161.0 388.0 162.0 385.0 C 166.0 385.0 169.0 383.0 170.0 383.0" stroke-width="0.0" fill="rgb(253, 77, 1)" opacity="1.0" stroke="rgb(105, 33, 99)" stroke-opacity="0.2633016" stroke-linecap="round" stroke-linejoin="round"/>
    <path d="M 254.0 374.0 C 255.0 374.0 255.0 375.0 256.0 376.0 C 257.0 376.0 258.0 376.0 259.0 376.0 C 260.0 376.0 261.0 376.0 262.0 376.0 C 263.0 376.0 264.0 376.0 265.0 376.0 C 266.0 376.0 267.0 376.0 272.0 376.0 C 281.0 376.0 288.0 379.0 295.0 379.0 C 303.0 378.0 311.0 380.0 316.0 385.0 C 314.0 394.0 313.0 403.0 311.0 412.0 C 309.0 421.0 307.0 430.0 305.0 439.0 C 303.0 448.0 301.0 457.0 299.0 466.0 C 293.0 472.0 287.0 472.0 289.0 479.0 C 286.0 484.0 284.0 489.0 287.0 496.0 C 283.0 501.0 289.0 505.0 298.0 507.0 C 304.0 513.0 298.0 518.0 291.0 522.0 C 284.0 528.0 276.0 531.0 270.0 532.0 C 263.0 531.0 258.0 530.0 250.0 532.0 C 245.0 526.0 239.0 532.0 238.0 541.0 C 238.0 550.0 237.0 559.0 238.0 568.0 C 236.0 573.0 234.0 564.0 234.0 555.0 C 234.0 546.0 235.0 537.0 236.0 528.0 C 231.0 523.0 226.0 517.0 231.0 510.0 C 240.0 505.0 242.0 496.0 244.0 493.0 C 243.0 488.0 243.0 479.0 242.0 470.0 C 235.0 466.0 233.0 457.0 227.0 456.0 C 226.0 465.0 224.0 473.0 215.0 476.0 C 214.0 485.0 212.0 494.0 211.0 503.0 C 215.0 509.0 220.0 516.0 214.0 523.0 C 212.0 531.0 213.0 540.0 210.0 533.0 C 207.0 530.0 199.0 531.0 193.0 535.0 C 184.0 535.0 175.0 534.0 170.0 529.0 C 162.0 528.0 159.0 537.0 156.0 537.0 C 159.0 528.0 154.0 521.0 153.0 513.0 C 160.0 506.0 166.0 500.0 166.0 491.0 C 166.0 482.0 164.0 473.0 158.0 466.0 C 157.0 457.0 157.0 448.0 156.0 439.0 C 155.0 430.0 154.0 421.0 153.0 412.0 C 153.0 403.0 155.0 395.0 158.0 402.0 C 160.0 410.0 160.0 419.0 160.0 428.0 C 160.0 437.0 160.0 446.0 167.0 450.0 C 167.0 457.0 174.0 453.0 176.0 461.0 C 182.0 464.0 191.0 463.0 199.0 465.0 C 206.0 463.0 208.0 454.0 212.0 448.0 C 221.0 448.0 227.0 442.0 228.0 440.0 C 225.0 436.0 234.0 436.0 235.0 434.0 C 226.0 434.0 232.0 431.0 241.0 431.0 C 250.0 431.0 256.0 435.0 256.0 444.0 C 255.0 453.0 256.0 462.0 265.0 463.0 C 274.0 463.0 283.0 463.0 287.0 457.0 C 287.0 448.0 287.0 439.0 291.0 432.0 C 300.0 431.0 303.0 424.0 306.0 416.0 C 303.0 411.0 303.0 403.0 297.0 399.0 C 288.0 398.0 281.0 400.0 272.0 400.0 C 265.0 397.0 256.0 396.0 248.0 397.0 C 239.0 398.0 231.0 399.0 222.0 400.0 C 213.0 400.0 206.0 398.0 198.0 400.0 C 191.0 397.0 191.0 388.0 185.0 384.0 C 177.0 381.0 183.0 380.0 192.0 382.0 C 201.0 383.0 206.0 382.0 209.0 377.0 C 218.0 377.0 227.0 376.0 236.0 376.0 C 245.0 376.0 253.0 374.0 254.0 374.0" stroke-width="0.0" fill="rgb(238, 81, 8)" opacity="1.0" stroke="rgb(177, 208, 209)" stroke-opacity="0.8791718" stroke-linecap="round" stroke-linejoin="round"/>
    <path d="M 184.0 237.0 C 185.0 237.0 186.0 237.0 187.0 238.0 C 188.0 238.0 189.0 238.0 190.0 239.0 C 191.0 239.0 192.0 240.0 193.0 240.0 C 194.0 240.0 195.0 241.0 196.0 241.0 C 197.0 241.0 198.0 242.0 199.0 242.0 C 200.0 242.0 199.0 248.0 200.0 254.0 C 200.0 260.0 198.0 265.0 195.0 270.0 C 195.0 276.0 194.0 282.0 192.0 286.0 C 191.0 290.0 192.0 296.0 189.0 300.0 C 183.0 302.0 179.0 306.0 175.0 312.0 C 173.0 318.0 171.0 323.0 168.0 329.0 C 168.0 335.0 165.0 331.0 161.0 335.0 C 164.0 340.0 162.0 346.0 160.0 352.0 C 157.0 356.0 152.0 359.0 152.0 365.0 C 151.0 371.0 152.0 377.0 153.0 383.0 C 150.0 387.0 150.0 393.0 155.0 392.0 C 156.0 386.0 159.0 382.0 165.0 380.0 C 171.0 379.0 176.0 380.0 172.0 382.0 C 167.0 384.0 161.0 384.0 159.0 390.0 C 157.0 395.0 155.0 401.0 155.0 407.0 C 155.0 413.0 156.0 419.0 156.0 425.0 C 154.0 429.0 153.0 423.0 153.0 417.0 C 152.0 411.0 153.0 405.0 152.0 399.0 C 148.0 397.0 142.0 397.0 136.0 396.0 C 130.0 394.0 124.0 390.0 119.0 385.0 C 116.0 379.0 115.0 373.0 114.0 367.0 C 114.0 361.0 113.0 355.0 113.0 349.0 C 113.0 343.0 107.0 347.0 101.0 349.0 C 95.0 352.0 89.0 355.0 89.0 361.0 C 84.0 365.0 78.0 363.0 73.0 369.0 C 70.0 374.0 65.0 380.0 59.0 384.0 C 59.0 390.0 58.0 396.0 56.0 402.0 C 51.0 405.0 46.0 400.0 44.0 394.0 C 43.0 388.0 39.0 391.0 35.0 397.0 C 30.0 401.0 24.0 399.0 22.0 394.0 C 19.0 391.0 13.0 392.0 9.0 387.0 C 10.0 381.0 12.0 375.0 6.0 378.0 C 0.0 376.0 0.0 370.0 3.0 365.0 C 6.0 359.0 11.0 353.0 16.0 347.0 C 21.0 341.0 19.0 335.0 17.0 329.0 C 17.0 323.0 23.0 319.0 29.0 323.0 C 35.0 328.0 41.0 330.0 46.0 328.0 C 47.0 322.0 53.0 320.0 59.0 319.0 C 63.0 313.0 69.0 307.0 75.0 301.0 C 81.0 296.0 87.0 291.0 93.0 288.0 C 96.0 286.0 99.0 286.0 105.0 291.0 C 110.0 297.0 115.0 297.0 119.0 299.0 C 119.0 305.0 119.0 310.0 124.0 312.0 C 122.0 318.0 124.0 321.0 124.0 327.0 C 128.0 331.0 126.0 334.0 123.0 333.0 C 120.0 338.0 118.0 343.0 123.0 340.0 C 127.0 338.0 131.0 335.0 137.0 333.0 C 143.0 329.0 147.0 331.0 149.0 331.0 C 151.0 325.0 151.0 319.0 151.0 313.0 C 153.0 307.0 154.0 301.0 156.0 296.0 C 155.0 290.0 154.0 284.0 154.0 278.0 C 154.0 272.0 158.0 269.0 160.0 264.0 C 160.0 258.0 165.0 256.0 169.0 251.0 C 172.0 248.0 177.0 249.0 176.0 243.0 C 177.0 238.0 183.0 237.0 184.0 237.0" stroke-width="0.0" fill="rgb(158, 128, 182)" opacity="1.0" stroke="rgb(217, 101, 153)" stroke-opacity="0.6880403" stroke-linecap="round" stroke-linejoin="round"/>
    <path d="M 305.0 376.0 C 306.0 376.0 307.0 376.0 308.0 376.0 C 309.0 377.0 314.0 377.0 321.0 377.0 C 321.0 381.0 316.0 384.0 315.0 391.0 C 314.0 398.0 313.0 405.0 312.0 412.0 C 310.0 419.0 309.0 426.0 307.0 433.0 C 305.0 440.0 303.0 447.0 302.0 454.0 C 300.0 461.0 299.0 468.0 293.0 473.0 C 289.0 479.0 288.0 486.0 288.0 493.0 C 287.0 500.0 290.0 505.0 297.0 506.0 C 304.0 510.0 303.0 517.0 296.0 519.0 C 290.0 524.0 295.0 531.0 302.0 534.0 C 309.0 539.0 316.0 541.0 323.0 545.0 C 330.0 548.0 337.0 553.0 342.0 559.0 C 343.0 566.0 342.0 573.0 335.0 578.0 C 328.0 580.0 321.0 582.0 314.0 583.0 C 307.0 584.0 300.0 584.0 293.0 584.0 C 286.0 584.0 279.0 583.0 272.0 583.0 C 265.0 582.0 258.0 581.0 251.0 580.0 C 244.0 579.0 237.0 575.0 234.0 568.0 C 233.0 561.0 233.0 554.0 234.0 547.0 C 234.0 540.0 235.0 533.0 236.0 526.0 C 231.0 524.0 226.0 519.0 227.0 512.0 C 234.0 507.0 240.0 503.0 241.0 496.0 C 242.0 489.0 242.0 482.0 242.0 475.0 C 240.0 468.0 234.0 465.0 233.0 458.0 C 228.0 455.0 227.0 462.0 226.0 469.0 C 222.0 474.0 216.0 477.0 214.0 484.0 C 213.0 491.0 212.0 498.0 211.0 505.0 C 216.0 509.0 220.0 515.0 218.0 521.0 C 212.0 525.0 213.0 532.0 214.0 539.0 C 214.0 546.0 215.0 553.0 216.0 560.0 C 217.0 567.0 217.0 574.0 216.0 581.0 C 210.0 585.0 203.0 586.0 196.0 586.0 C 189.0 587.0 182.0 589.0 175.0 591.0 C 168.0 593.0 162.0 595.0 155.0 595.0 C 148.0 595.0 141.0 595.0 134.0 595.0 C 128.0 593.0 121.0 590.0 117.0 584.0 C 118.0 577.0 122.0 570.0 129.0 565.0 C 135.0 560.0 141.0 554.0 148.0 550.0 C 151.0 543.0 157.0 536.0 159.0 529.0 C 156.0 522.0 151.0 517.0 154.0 510.0 C 161.0 506.0 165.0 500.0 166.0 493.0 C 166.0 486.0 166.0 479.0 163.0 472.0 C 158.0 467.0 157.0 460.0 156.0 453.0 C 156.0 446.0 155.0 439.0 154.0 432.0 C 157.0 435.0 157.0 442.0 158.0 449.0 C 159.0 456.0 160.0 463.0 165.0 468.0 C 172.0 471.0 177.0 475.0 182.0 473.0 C 189.0 473.0 196.0 473.0 203.0 473.0 C 207.0 474.0 213.0 472.0 220.0 470.0 C 223.0 464.0 224.0 457.0 226.0 450.0 C 233.0 448.0 235.0 452.0 236.0 458.0 C 239.0 464.0 245.0 467.0 252.0 469.0 C 259.0 470.0 266.0 470.0 273.0 471.0 C 280.0 471.0 287.0 470.0 294.0 469.0 C 296.0 462.0 298.0 455.0 300.0 448.0 C 302.0 441.0 303.0 434.0 305.0 427.0 C 307.0 420.0 309.0 413.0 310.0 406.0 C 311.0 399.0 312.0 392.0 312.0 385.0 C 308.0 379.0 304.0 376.0 305.0 376.0" stroke-width="0.0" fill="rgb(241, 204, 92)" opacity="1.0" stroke="rgb(130, 133, 80)" stroke-opacity="0.9875307" stroke-linecap="round" stroke-linejoin="round"/>
    <path d="M 321.0 217.0 C 322.0 217.0 322.0 218.0 322.0 219.0 C 321.0 219.0 320.0 220.0 319.0 220.0 C 318.0 221.0 317.0 221.0 316.0 222.0 C 315.0 222.0 314.0 223.0 314.0 224.0 C 314.0 225.0 314.0 226.0 314.0 227.0 C 313.0 227.0 312.0 228.0 311.0 228.0 C 310.0 229.0 309.0 229.0 308.0 230.0 C 307.0 230.0 306.0 231.0 305.0 231.0 C 304.0 232.0 303.0 232.0 299.0 234.0 C 292.0 236.0 285.0 238.0 289.0 242.0 C 295.0 244.0 294.0 250.0 300.0 256.0 C 306.0 258.0 305.0 264.0 311.0 266.0 C 312.0 273.0 317.0 279.0 315.0 286.0 C 312.0 292.0 315.0 298.0 319.0 305.0 C 322.0 312.0 325.0 316.0 332.0 319.0 C 339.0 321.0 344.0 316.0 349.0 310.0 C 351.0 307.0 354.0 301.0 356.0 294.0 C 353.0 289.0 357.0 293.0 358.0 289.0 C 360.0 285.0 361.0 278.0 362.0 271.0 C 362.0 264.0 355.0 260.0 348.0 257.0 C 341.0 254.0 335.0 254.0 329.0 254.0 C 330.0 252.0 329.0 249.0 322.0 247.0 C 315.0 245.0 314.0 242.0 321.0 244.0 C 328.0 246.0 335.0 249.0 342.0 252.0 C 349.0 254.0 356.0 257.0 363.0 261.0 C 367.0 267.0 374.0 270.0 381.0 273.0 C 388.0 277.0 395.0 281.0 402.0 286.0 C 409.0 292.0 416.0 293.0 423.0 290.0 C 430.0 289.0 437.0 283.0 444.0 279.0 C 450.0 283.0 449.0 290.0 446.0 297.0 C 452.0 301.0 459.0 304.0 466.0 308.0 C 472.0 314.0 473.0 320.0 467.0 324.0 C 460.0 324.0 466.0 331.0 466.0 338.0 C 461.0 342.0 457.0 347.0 450.0 347.0 C 443.0 344.0 443.0 350.0 445.0 357.0 C 439.0 361.0 432.0 356.0 427.0 349.0 C 421.0 344.0 414.0 342.0 407.0 337.0 C 401.0 332.0 394.0 329.0 387.0 329.0 C 380.0 328.0 373.0 327.0 366.0 326.0 C 359.0 325.0 352.0 323.0 345.0 321.0 C 341.0 326.0 334.0 324.0 327.0 320.0 C 324.0 324.0 324.0 331.0 323.0 338.0 C 321.0 345.0 321.0 352.0 323.0 359.0 C 320.0 364.0 319.0 357.0 318.0 350.0 C 316.0 343.0 314.0 336.0 312.0 329.0 C 308.0 327.0 306.0 322.0 306.0 316.0 C 301.0 311.0 297.0 306.0 294.0 300.0 C 287.0 299.0 281.0 295.0 279.0 289.0 C 279.0 282.0 275.0 275.0 273.0 269.0 C 268.0 263.0 262.0 261.0 266.0 256.0 C 266.0 250.0 267.0 244.0 264.0 244.0 C 260.0 247.0 258.0 248.0 255.0 253.0 C 249.0 253.0 244.0 255.0 237.0 256.0 C 230.0 256.0 226.0 255.0 219.0 253.0 C 214.0 246.0 218.0 241.0 225.0 243.0 C 232.0 243.0 239.0 243.0 246.0 242.0 C 253.0 241.0 260.0 240.0 267.0 239.0 C 274.0 237.0 281.0 236.0 288.0 234.0 C 295.0 232.0 302.0 228.0 309.0 226.0 C 314.0 221.0 320.0 217.0 321.0 217.0" stroke-width="0.0" fill="rgb(246, 184, 112)" opacity="1.0" stroke="rgb(250, 88, 190)" stroke-opacity="0.92301816" stroke-linecap="round" stroke-linejoin="round"/>
  </g>
</svg>
