<?xml version="1.0" ?>
<svg xmlns="http://www.w3.org/2000/svg" version="1.1" width="482" height="303">
  <defs/>
  <g>
    <path d="M -0.5097997188568115 -5.481520652770996 C 1.276520848274231 -5.245028972625732 2.8152332305908203 -5.007049560546875 3.914679527282715 -4.793285846710205 C 4.564334869384766 -4.6329731941223145 4.8681769371032715 -4.494749546051025 5.051406383514404 -4.348780155181885 C 5.485095977783203 -4.177371025085449 6.542858123779297 -4.016244411468506 8.5204439163208 -3.9060425758361816 C 11.645316123962402 -3.8987298011779785 16.090761184692383 -4.014460563659668 21.966312408447266 -4.214982032775879 C 29.30301284790039 -4.481472015380859 38.07093811035156 -4.781494617462158 48.17569351196289 -5.077030181884766 C 59.49383544921875 -5.330055236816406 71.873779296875 -5.500341892242432 85.11985778808594 -5.556848526000977 C 99.02837371826172 -5.4804158210754395 113.39714813232422 -5.277759075164795 128.02926635742188 -4.993991851806641 C 142.7592315673828 -4.704383373260498 157.43862915039062 -4.520229339599609 171.9723358154297 -4.550543785095215 C 186.3126220703125 -4.916148662567139 200.49903869628906 -5.185185432434082 214.5735626220703 -5.242748737335205 C 228.55126953125 -5.093196392059326 242.4560089111328 -4.775032997131348 256.2892761230469 -4.402321815490723 C 270.0536804199219 -4.1616740226745605 283.7144775390625 -4.520956039428711 297.2191162109375 -5.094320774078369 C 310.6029052734375 -5.5481858253479 324.00140380859375 -5.7967729568481445 337.5918884277344 -5.864540100097656 C 351.5746154785156 -5.77045202255249 366.1033630371094 -5.544633865356445 381.24664306640625 -5.246344089508057 C 397.0255126953125 -4.921115398406982 413.40167236328125 -4.670692443847656 430.2256164550781 -4.641244411468506 C 446.9924621582031 -5.271312236785889 462.6452331542969 -6.772861957550049 475.7223815917969 -7.066198348999023 C 484.79095458984375 -4.371138095855713 489.1128234863281 2.308708667755127 489.5078125 13.133386611938477 C 488.0096435546875 27.436166763305664 486.8200988769531 44.3843879699707 486.6806640625 63.14921951293945 C 486.8288879394531 82.88721466064453 486.7768859863281 102.74988555908203 486.730712890625 121.92021179199219 C 487.3165588378906 139.60687255859375 488.1517028808594 155.08680725097656 488.20074462890625 167.68875122070312 C 486.64910888671875 176.7420196533203 484.1925048828125 181.90277099609375 482.1693115234375 183.54473876953125 C 481.4605712890625 183.01583862304688 482.4188537597656 183.43545532226562 484.2911376953125 187.86203002929688 C 486.22857666015625 197.96585083007812 487.1592712402344 212.40676879882812 487.0443115234375 229.71279907226562 C 486.824462890625 248.38380432128906 487.63690185546875 266.8614501953125 489.0578918457031 283.591064453125 C 489.2546691894531 297.0112609863281 486.6621398925781 305.73480224609375 480.40374755859375 309.5302429199219 C 470.70599365234375 309.432861328125 458.2292175292969 308.28314208984375 443.62939453125 307.7502746582031 C 427.5303649902344 307.7802734375 410.51690673828125 307.8586730957031 393.1052551269531 307.86212158203125 C 375.7120056152344 307.8579406738281 358.6517028808594 307.8578186035156 342.1396484375 307.8581848144531 C 326.28900146484375 307.8581848144531 311.11895751953125 307.8581848144531 296.5997009277344 307.8581848144531 C 282.6636047363281 307.8581848144531 269.1832275390625 307.8581848144531 256.0087890625 307.8581848144531 C 242.98313903808594 307.8581848144531 229.937255859375 307.8581848144531 216.70681762695312 307.8581848144531 C 203.16281127929688 307.8581848144531 189.17953491210938 307.8581848144531 174.6534881591797 307.8581848144531 C 159.54217529296875 307.8581848144531 143.8500213623047 307.8581848144531 127.6363296508789 307.858154296875 C 111.03589630126953 307.85845947265625 94.253662109375 307.8606262207031 77.545166015625 307.8593444824219 C 61.20890808105469 307.8202209472656 45.599266052246094 307.7583923339844 31.095094680786133 307.93231201171875 C 18.056058883666992 308.901123046875 6.854663848876953 309.5766296386719 -2.1253130435943604 306.14764404296875 C -8.574520111083984 294.0911560058594 -12.682795524597168 275.32257080078125 -14.39822006225586 252.67564392089844 C -13.888846397399902 228.78456115722656 -11.232516288757324 206.75238037109375 -6.518348693847656 190.37860107421875 C 0.1724308729171753 183.8260498046875 8.681013107299805 187.6883087158203 18.143457412719727 198.39634704589844 C 23.190540313720703 210.73504638671875 27.285263061523438 221.36898803710938 32.0360221862793 228.3937225341797 C 35.34368133544922 233.5997314453125 42.61434555053711 234.71067810058594 55.45001220703125 233.3212432861328 C 72.8846435546875 230.76734924316406 92.58534240722656 229.2223663330078 111.57518005371094 230.46405029296875 C 126.81476593017578 235.36048889160156 137.79766845703125 241.51231384277344 144.86074829101562 246.1114959716797 C 148.98251342773438 246.6463165283203 151.7165985107422 242.74325561523438 154.78494262695312 235.94631958007812 C 159.57284545898438 228.1632080078125 165.5643768310547 221.05189514160156 171.7204132080078 215.16305541992188 C 177.64834594726562 210.9252166748047 184.04856872558594 209.82797241210938 191.29556274414062 210.81878662109375 C 198.39553833007812 216.27496337890625 203.26910400390625 222.6737060546875 204.44857788085938 225.5601043701172 C 202.8743133544922 223.02757263183594 197.15968322753906 214.98818969726562 187.0242156982422 208.0375213623047 C 177.23367309570312 210.41043090820312 167.3860626220703 217.17530822753906 156.1144561767578 219.27243041992188 C 143.87171936035156 216.36460876464844 130.66464233398438 212.30613708496094 116.33451080322266 208.46311950683594 C 100.97834014892578 205.30198669433594 85.04520416259766 202.50245666503906 69.67415618896484 199.6296844482422 C 56.68771743774414 196.5833740234375 48.213748931884766 195.12689208984375 46.344581604003906 197.41668701171875 C 52.809303283691406 204.7738037109375 62.01893615722656 214.98829650878906 66.95574951171875 225.67959594726562 C 61.754432678222656 233.9068145751953 49.74583435058594 236.54653930664062 35.96745681762695 232.6220703125 C 25.940155029296875 221.73989868164062 19.925098419189453 205.057861328125 17.35671043395996 188.89418029785156 C 19.171825408935547 179.6412353515625 13.868719100952148 179.68228149414062 7.414266109466553 187.46533203125 C 0.047553613781929016 188.90673828125 -5.337127208709717 184.22015380859375 -8.562905311584473 174.26971435546875 C -9.42547607421875 160.3710174560547 -8.622442245483398 144.0525360107422 -7.03834867477417 126.4839859008789 C -5.653067588806152 108.24110412597656 -4.799907684326172 89.89958953857422 -4.451753616333008 72.32090759277344 C -4.488717555999756 55.72502899169922 -4.746946334838867 39.72114562988281 -5.077480316162109 24.167686462402344 C -5.392192840576172 9.228767395019531 -5.653266429901123 -5.330883026123047 -0.5097997188568115 -5.481520652770996" stroke-width="0.0" fill="rgb(46, 38, 33)" opacity="0.9999959" stroke="rgb(71, 32, 104)" stroke-opacity="0.647853" stroke-linecap="round" stroke-linejoin="round"/>
    <path d="M 212.01968383789062 174.36428833007812 C 212.14553833007812 179.61412048339844 212.0380859375 184.38720703125 211.4145965576172 187.6810760498047 C 210.96041870117188 190.43850708007812 210.8240203857422 192.3743133544922 210.81149291992188 193.05807495117188 C 210.8592529296875 193.23190307617188 211.0941162109375 193.5242919921875 211.59469604492188 193.6112060546875 C 212.3274688720703 193.4717254638672 213.3175811767578 193.2173614501953 214.4266357421875 193.1229248046875 C 215.55043029785156 193.56423950195312 217.18589782714844 193.71678161621094 218.6533203125 193.60853576660156 C 220.0185089111328 193.70106506347656 221.4644775390625 193.62094116210938 223.15093994140625 193.22958374023438 C 223.8635711669922 192.28887939453125 224.35092163085938 191.1145477294922 225.0334014892578 190.1990509033203 C 225.5594024658203 189.25045776367188 225.3391876220703 188.8785400390625 224.6959228515625 189.11842346191406 C 224.34536743164062 190.28323364257812 225.39768981933594 190.78790283203125 227.05433654785156 190.73561096191406 C 228.70594787597656 190.4952850341797 229.7846221923828 190.01759338378906 230.78614807128906 190.12986755371094 C 232.27235412597656 190.23187255859375 234.65542602539062 189.4892578125 237.3134765625 189.8045654296875 C 239.6203155517578 190.1715545654297 241.60133361816406 190.28675842285156 243.40379333496094 189.90969848632812 C 245.1431884765625 189.45291137695312 246.73703002929688 189.3822479248047 248.45883178710938 189.22402954101562 C 249.36431884765625 188.22396850585938 249.32260131835938 187.93936157226562 248.42742919921875 188.16368103027344 C 246.75845336914062 188.09535217285156 244.86209106445312 187.63421630859375 243.71026611328125 187.7079315185547 C 243.56631469726562 188.13214111328125 244.65423583984375 188.546630859375 246.3513946533203 188.11402893066406 C 248.31016540527344 188.1482391357422 250.831298828125 188.333251953125 253.7137451171875 188.4122772216797 C 256.3672180175781 188.24317932128906 258.7442321777344 188.5521697998047 260.78759765625 188.470703125 C 262.62701416015625 188.11288452148438 264.38336181640625 188.84686279296875 265.60589599609375 189.0902557373047 C 267.0484924316406 189.27728271484375 269.1711730957031 189.2661895751953 272.2046203613281 189.4954833984375 C 274.67193603515625 189.94268798828125 276.7547607421875 189.0204315185547 278.7588195800781 188.37327575683594 C 280.7112731933594 188.0684356689453 282.6400451660156 188.1646270751953 284.9478759765625 188.89071655273438 C 286.9994201660156 189.8802947998047 288.8341064453125 189.9195556640625 290.91705322265625 189.6219482421875 C 293.0196533203125 189.82980346679688 295.2828063964844 189.82679748535156 297.8913879394531 189.7135009765625 C 300.6865539550781 189.8892059326172 302.9184265136719 189.80572509765625 304.5515441894531 189.64849853515625 C 305.9953308105469 189.44944763183594 307.1260986328125 189.29200744628906 307.53955078125 189.3445587158203 C 307.95147705078125 189.898193359375 308.5004577636719 190.6539306640625 309.81866455078125 190.71701049804688 C 312.1026306152344 190.53326416015625 314.99114990234375 190.6200714111328 318.1122741699219 190.3448944091797 C 321.2192077636719 189.85386657714844 323.83404541015625 190.15655517578125 326.6274108886719 191.46783447265625 C 329.8118896484375 191.12657165527344 333.509765625 191.1394500732422 337.40460205078125 191.5072479248047 C 340.8516540527344 191.6273956298828 343.5673828125 191.4217987060547 345.47894287109375 191.7272491455078 C 346.6568603515625 193.29335021972656 347.0565185546875 195.85531616210938 346.4270935058594 198.54617309570312 C 345.0003662109375 201.05032348632812 342.93896484375 203.4913787841797 340.3103942871094 205.19137573242188 C 337.0742492675781 205.93605041503906 333.73504638671875 205.82376098632812 330.466796875 205.68011474609375 C 327.3824462890625 205.7418670654297 324.4674377441406 205.556884765625 321.99176025390625 205.5197296142578 C 320.1012878417969 205.38185119628906 318.5377197265625 205.56761169433594 317.0522766113281 205.77052307128906 C 315.59564208984375 205.8121337890625 314.2087097167969 205.72793579101562 312.87725830078125 205.63426208496094 C 311.3765563964844 205.63211059570312 309.51788330078125 205.96469116210938 307.31396484375 206.03248596191406 C 305.0551452636719 205.79029846191406 302.74224853515625 205.6655731201172 300.26580810546875 205.77261352539062 C 297.6020202636719 205.76632690429688 294.8160705566406 205.80792236328125 291.7801513671875 205.9062042236328 C 288.6651306152344 205.618896484375 285.4236145019531 205.412841796875 282.1111145019531 205.4351043701172 C 278.9899597167969 205.90089416503906 275.9869384765625 206.3587646484375 273.196044921875 206.37448120117188 C 270.8543701171875 206.43365478515625 268.69171142578125 206.02423095703125 266.64227294921875 205.6834259033203 C 264.748046875 205.6300811767578 263.06634521484375 205.06936645507812 261.63055419921875 205.13890075683594 C 260.7332458496094 204.9824676513672 260.2928466796875 203.52877807617188 260.280029296875 201.8817596435547 C 260.0457763671875 201.0914764404297 259.60882568359375 200.8206787109375 258.99652099609375 201.13868713378906 C 258.39892578125 202.0582275390625 258.01593017578125 202.96360778808594 257.7109375 203.81256103515625 C 257.36492919921875 204.6358184814453 256.9485778808594 205.4681854248047 256.3216857910156 205.72271728515625 C 255.23487854003906 205.94796752929688 253.42916870117188 205.5294647216797 250.93194580078125 205.2635498046875 C 247.89547729492188 205.14979553222656 244.6172332763672 205.2669677734375 241.4705352783203 205.37109375 C 238.36607360839844 205.5168914794922 235.32553100585938 205.4884796142578 232.5626678466797 205.40052795410156 C 229.60581970214844 204.85092163085938 227.3213653564453 204.59339904785156 225.2065887451172 204.49636840820312 C 222.86862182617188 204.54737854003906 220.72488403320312 204.46336364746094 218.88607788085938 204.55079650878906 C 216.99655151367188 204.2230987548828 215.4922332763672 204.3657684326172 214.1245880126953 204.2938995361328 C 212.44761657714844 203.65199279785156 209.77305603027344 203.35540771484375 206.24893188476562 203.44827270507812 C 201.5387725830078 203.40643310546875 196.7932891845703 202.78395080566406 192.37359619140625 203.07748413085938 C 188.43751525878906 203.23707580566406 185.77810668945312 200.92474365234375 185.2087860107422 198.18557739257812 C 187.23995971679688 197.2014617919922 190.8135223388672 197.4991912841797 194.73081970214844 196.5254669189453 C 198.284912109375 193.5509033203125 201.86593627929688 191.02410888671875 204.5611572265625 188.2042999267578 C 206.5675048828125 184.47218322753906 208.84188842773438 180.83169555664062 212.01968383789062 174.36428833007812" stroke-width="0.0" fill="rgb(0, 0, 0)" opacity="0.9995378" stroke="rgb(171, 170, 143)" stroke-opacity="0.13011187" stroke-linecap="round" stroke-linejoin="round"/>
    <path d="M 157.1131591796875 68.65129852294922 C 160.52651977539062 69.78666687011719 163.64614868164062 69.31845092773438 166.28533935546875 69.31649780273438 C 169.3354034423828 69.74739074707031 171.8325958251953 69.60932159423828 173.44754028320312 69.8470687866211 C 175.03863525390625 69.83323669433594 176.1158905029297 69.51881408691406 176.76406860351562 69.60933685302734 C 176.78228759765625 70.41670227050781 176.3794708251953 71.31759643554688 175.85589599609375 72.14854431152344 C 175.1659698486328 72.79291534423828 174.42636108398438 73.32470703125 173.9716033935547 74.07212829589844 C 173.7650909423828 74.73255920410156 173.6916046142578 74.85630798339844 173.79373168945312 74.53208923339844 C 174.03358459472656 74.06781005859375 174.29176330566406 73.58769989013672 174.4219207763672 73.13214111328125 C 174.43321228027344 72.60670471191406 174.62904357910156 71.88068389892578 174.99061584472656 70.99791717529297 C 175.3046875 70.49375915527344 175.82064819335938 70.5640869140625 177.1913604736328 70.64859771728516 C 179.49436950683594 69.9656753540039 182.0616455078125 69.17265319824219 184.41590881347656 69.12261962890625 C 186.23162841796875 70.12190246582031 186.86587524414062 70.35930633544922 185.6291961669922 69.75450897216797 C 183.7668914794922 67.97685241699219 181.94796752929688 65.47313690185547 181.95474243164062 63.845890045166016 C 183.51657104492188 64.6386489868164 186.69552612304688 66.60511016845703 190.24044799804688 69.14562225341797 C 193.54689025878906 71.98789978027344 196.0318603515625 74.93586730957031 198.06689453125 77.50617218017578 C 199.1363525390625 78.61882781982422 198.64317321777344 79.3200454711914 196.99681091308594 80.3030014038086 C 194.7652130126953 80.330322265625 192.35946655273438 80.4123764038086 190.4204864501953 80.4450912475586 C 188.97720336914062 79.97933197021484 187.85218811035156 80.14583587646484 186.7588348388672 81.20585632324219 C 185.67337036132812 81.72123718261719 184.30459594726562 81.62911987304688 182.94131469726562 81.84549713134766 C 181.5916290283203 81.41805267333984 180.6971435546875 81.46927642822266 180.1528778076172 81.60733032226562 C 179.32940673828125 82.25907897949219 178.26905822753906 82.5705795288086 176.91693115234375 82.10623931884766 C 175.7422637939453 82.08454132080078 174.7495880126953 82.18071746826172 173.677001953125 82.22144317626953 C 173.2033233642578 81.99285888671875 172.7419891357422 81.90597534179688 171.82769775390625 81.84949493408203 C 170.70062255859375 81.85340118408203 169.5139617919922 82.06610107421875 168.18484497070312 82.04949951171875 C 166.79232788085938 81.70809173583984 165.50949096679688 81.03543853759766 164.39224243164062 80.3853759765625 C 163.3240509033203 80.16448211669922 162.2557830810547 80.22855377197266 161.23471069335938 80.42282104492188 C 160.3737335205078 80.61376953125 159.7162628173828 80.94835662841797 159.45639038085938 81.63761138916016 C 158.78501892089844 82.14971923828125 158.1771240234375 82.36351013183594 157.84573364257812 82.87274169921875 C 157.54103088378906 83.45648956298828 157.00486755371094 84.25403594970703 156.17474365234375 84.88648986816406 C 155.26979064941406 85.4588394165039 154.32998657226562 85.90070343017578 153.32186889648438 86.19686126708984 C 152.16998291015625 86.49087524414062 150.91244506835938 86.6142349243164 149.6324462890625 86.64171600341797 C 148.31492614746094 86.72389221191406 146.88636779785156 86.61061096191406 145.40423583984375 86.68396759033203 C 143.9666290283203 86.66889953613281 142.68321228027344 86.6238784790039 141.63656616210938 86.60360717773438 C 140.88821411132812 86.68238067626953 140.40492248535156 86.73918914794922 140.05543518066406 86.83592987060547 C 139.8876495361328 86.93563842773438 139.8294677734375 86.98844146728516 139.74073791503906 86.97928619384766 C 139.4546356201172 86.92790985107422 138.99871826171875 86.88585662841797 138.4365997314453 86.80191040039062 C 137.73361206054688 86.69469451904297 136.8008270263672 86.5525894165039 135.62060546875 86.50003051757812 C 134.13790893554688 86.40533447265625 132.46530151367188 86.40064239501953 130.76885986328125 86.44049835205078 C 129.06861877441406 86.52933502197266 127.39979553222656 86.9649658203125 125.80491638183594 87.34815979003906 C 124.34664154052734 87.5843505859375 123.0704574584961 87.36381530761719 121.8652114868164 86.77714538574219 C 120.89950561523438 86.4638442993164 120.2649917602539 86.08119201660156 120.08247375488281 85.61048126220703 C 120.30363464355469 85.02210998535156 121.10545349121094 85.00077819824219 122.18409729003906 85.1732177734375 C 123.32998657226562 84.93303680419922 124.4273452758789 84.39143371582031 125.0831069946289 83.71711730957031 C 126.24560546875 83.25791931152344 127.6327133178711 82.86678314208984 129.20672607421875 82.09577941894531 C 129.938720703125 81.3840103149414 130.9051971435547 81.32002258300781 132.3585662841797 80.82500457763672 C 133.98399353027344 80.42599487304688 135.72088623046875 79.9576644897461 137.22630310058594 79.53343200683594 C 138.2032012939453 78.60760498046875 139.1959991455078 77.85388946533203 140.4963836669922 77.65827941894531 C 141.68222045898438 77.08453369140625 142.68338012695312 76.59669494628906 143.432861328125 76.30134582519531 C 144.34600830078125 75.84194946289062 145.26718139648438 75.60528564453125 145.86431884765625 75.72942352294922 C 146.1718292236328 75.8409423828125 146.87559509277344 75.39463806152344 148.07066345214844 74.71551513671875 C 149.10653686523438 74.40787506103516 150.13699340820312 74.2995834350586 150.9291229248047 74.06088256835938 C 151.4945526123047 73.86085510253906 152.2622833251953 73.46617889404297 153.00840759277344 73.28267669677734 C 153.67013549804688 72.73564147949219 154.90719604492188 72.25582885742188 156.6379852294922 72.17121124267578 C 158.8262176513672 72.14585876464844 161.4495849609375 71.4085693359375 164.49839782714844 70.59554290771484 C 168.03506469726562 69.95836639404297 171.48577880859375 69.73892974853516 157.1131591796875 68.65129852294922" stroke-width="0.0" fill="rgb(0, 0, 0)" opacity="0.9993407" stroke="rgb(43, 48, 225)" stroke-opacity="0.6963273" stroke-linecap="round" stroke-linejoin="round"/>
    <path d="M 213.39755249023438 69.33818817138672 C 220.62059020996094 70.45927429199219 227.01193237304688 71.83642578125 231.40359497070312 73.26001739501953 C 234.20516967773438 73.2002944946289 236.4260711669922 73.39054107666016 238.6009979248047 74.27759552001953 C 239.87904357910156 74.75462341308594 240.91928100585938 74.94664001464844 242.0769805908203 75.17523193359375 C 243.156982421875 75.19752502441406 243.75169372558594 75.1873779296875 244.48095703125 75.32408905029297 C 244.8662567138672 75.7859878540039 245.10638427734375 75.93074035644531 245.6925506591797 75.76482391357422 C 246.5810089111328 75.26072692871094 247.2661895751953 75.45804595947266 248.12925720214844 76.2574462890625 C 249.03868103027344 76.1493148803711 249.8258514404297 75.89743041992188 250.42108154296875 76.24684143066406 C 251.21835327148438 77.05595397949219 252.73204040527344 77.22966766357422 254.6659698486328 77.13545989990234 C 256.17193603515625 77.26740264892578 257.251953125 77.63297271728516 258.1960754394531 77.95095825195312 C 258.84661865234375 78.22885131835938 259.6612854003906 78.61656951904297 260.2123107910156 78.72819519042969 C 260.756591796875 78.27021789550781 261.6101989746094 78.12069702148438 262.3069763183594 78.76983642578125 C 263.004638671875 79.3499755859375 264.09722900390625 79.39181518554688 265.4761657714844 79.16255187988281 C 266.3360900878906 79.24241638183594 266.90667724609375 79.59707641601562 267.70233154296875 80.06041717529297 C 268.97100830078125 80.06637573242188 270.0938415527344 80.32926940917969 271.0390930175781 81.09526824951172 C 271.8222961425781 81.4473876953125 272.8821716308594 81.15299987792969 273.9457092285156 81.42890167236328 C 275.189697265625 81.60460662841797 276.4150695800781 81.99057006835938 277.47906494140625 82.10205841064453 C 278.2606506347656 82.36566925048828 278.8463439941406 82.7800064086914 279.7193908691406 82.8177490234375 C 280.82232666015625 82.81598663330078 281.97705078125 82.82930755615234 283.2207946777344 83.3084487915039 C 284.5442810058594 83.77723693847656 286.05572509765625 84.39596557617188 287.4949035644531 84.68984985351562 C 288.7452697753906 85.22300720214844 289.9114074707031 85.53465270996094 290.89825439453125 85.59088134765625 C 291.6117858886719 85.8786392211914 292.1539611816406 86.19768524169922 292.78875732421875 86.42335510253906 C 293.5283203125 86.47693634033203 294.22515869140625 86.60287475585938 294.9449768066406 86.94625854492188 C 295.8764343261719 87.06713104248047 297.17156982421875 87.3062744140625 298.4942932128906 88.2601089477539 C 300.0134582519531 89.99600219726562 301.1739807128906 92.0733871459961 301.3611755371094 93.32624816894531 C 299.960693359375 93.64350891113281 297.782958984375 93.37162017822266 296.0716552734375 93.22978973388672 C 294.66339111328125 93.38497161865234 293.2926330566406 93.5111312866211 291.8398742675781 93.79541015625 C 290.6229553222656 93.57312774658203 289.3689880371094 93.04176330566406 288.354736328125 92.64739990234375 C 286.674560546875 92.85562896728516 285.4964904785156 92.64994812011719 284.411376953125 92.5788345336914 C 283.2994079589844 92.25130462646484 282.602783203125 91.67053985595703 282.2341003417969 91.57948303222656 C 281.7879638671875 91.66409301757812 280.9676818847656 91.5440673828125 279.80224609375 91.2943115234375 C 277.8522644042969 91.76665496826172 276.1564025878906 91.58372497558594 274.9296875 91.39867401123047 C 274.2839050292969 91.52363586425781 273.9731140136719 91.31082916259766 273.7179260253906 90.57778930664062 C 272.3663330078125 90.5190658569336 271.1377258300781 90.74098205566406 270.5434265136719 90.57170104980469 C 270.4967346191406 90.31458282470703 270.3939514160156 90.53414154052734 269.5086364746094 90.88461303710938 C 268.0329895019531 90.352294921875 265.8744201660156 90.49903869628906 263.9613952636719 90.6043930053711 C 262.5178527832031 89.99393463134766 261.7949523925781 90.37647247314453 262.23626708984375 91.60680389404297 C 262.7643127441406 92.67353820800781 262.7613830566406 93.50456237792969 261.5985412597656 93.54756927490234 C 260.3342590332031 92.31423950195312 258.5575866699219 91.59309387207031 256.2520446777344 91.0168685913086 C 254.69580078125 90.04463195800781 253.51376342773438 89.28933715820312 252.80931091308594 88.2730484008789 C 251.7497100830078 87.81681823730469 250.7204132080078 87.38307189941406 250.0288848876953 86.84952545166016 C 249.20944213867188 86.5523681640625 248.41188049316406 86.27499389648438 247.58485412597656 85.90696716308594 C 246.69346618652344 85.42239379882812 245.53909301757812 85.03582763671875 244.48011779785156 84.85753631591797 C 243.7732391357422 84.15260314941406 242.8762969970703 83.78468322753906 241.63961791992188 83.70929718017578 C 240.93597412109375 83.17180633544922 240.43829345703125 82.21070098876953 239.55325317382812 81.68292236328125 C 238.38047790527344 81.68404388427734 237.20591735839844 81.62973022460938 236.0948028564453 81.26243591308594 C 235.49234008789062 80.74872589111328 234.6002655029297 80.10211944580078 233.3933563232422 79.41826629638672 C 232.3170928955078 78.7944107055664 231.1377716064453 77.99642181396484 229.88954162597656 77.49884033203125 C 228.57176208496094 77.86701202392578 227.15231323242188 78.36376190185547 213.39755249023438 69.33818817138672" stroke-width="0.0" fill="rgb(0, 0, 0)" opacity="0.99938726" stroke="rgb(196, 139, 141)" stroke-opacity="0.8899587" stroke-linecap="round" stroke-linejoin="round"/>
    <path d="M 35.98761749267578 190.72686767578125 C 40.32114791870117 190.55203247070312 44.61615753173828 190.50025939941406 48.8647575378418 189.927734375 C 53.206912994384766 189.49180603027344 58.072731018066406 189.62265014648438 63.04486083984375 190.10723876953125 C 67.73686981201172 189.9857940673828 71.72351837158203 189.37753295898438 74.97173309326172 189.3269500732422 C 77.47677612304688 190.52247619628906 79.3473129272461 190.8956298828125 80.72612762451172 190.1360321044922 C 79.47675323486328 189.2760467529297 77.4177474975586 189.38446044921875 76.08075714111328 190.184814453125 C 75.99217224121094 191.18585205078125 76.83403778076172 192.3933868408203 78.19083404541016 193.6078338623047 C 79.50424194335938 194.33419799804688 80.56416320800781 194.5891571044922 81.38155364990234 194.61358642578125 C 82.30403900146484 194.75303649902344 83.29381561279297 194.91722106933594 84.17984771728516 195.00445556640625 C 84.93885803222656 195.16180419921875 85.66548156738281 195.4048309326172 86.3626937866211 195.37559509277344 C 87.02719116210938 194.9781036376953 87.60993194580078 194.53933715820312 88.09286499023438 194.3184814453125 C 88.5070571899414 194.32814025878906 89.21798706054688 194.392578125 90.08334350585938 194.34840393066406 C 91.37805938720703 194.4586639404297 93.04095458984375 194.8220672607422 95.09134674072266 195.25204467773438 C 97.44141387939453 195.69212341308594 99.9504165649414 196.21791076660156 102.51307678222656 196.80780029296875 C 105.09565734863281 197.32237243652344 107.66763305664062 197.860595703125 110.07865142822266 198.18247985839844 C 112.15914154052734 198.17393493652344 113.94645690917969 198.178466796875 115.53888702392578 198.53724670410156 C 116.67231750488281 199.30825805664062 117.48812103271484 200.56448364257812 117.99040222167969 202.28440856933594 C 118.23771667480469 204.3527069091797 118.29862213134766 206.6826629638672 118.21317291259766 209.17825317382812 C 117.99172973632812 211.677001953125 117.70869445800781 213.97584533691406 117.44256591796875 215.8898162841797 C 116.9915542602539 217.1671905517578 116.49492645263672 217.7298583984375 115.91655731201172 217.5766143798828 C 115.1763687133789 216.7637481689453 114.31869506835938 215.42178344726562 113.34530639648438 213.75953674316406 C 112.27606964111328 211.9562530517578 111.44635772705078 210.20559692382812 111.03675842285156 208.7423553466797 C 111.14158630371094 207.79481506347656 111.88298797607422 207.4871063232422 113.37718963623047 207.91468811035156 C 115.65528106689453 209.20338439941406 118.50072479248047 211.42056274414062 121.564453125 214.55580139160156 C 124.43133544921875 218.46531677246094 126.6270980834961 222.86769104003906 127.73680114746094 227.49266052246094 C 127.60334777832031 232.00100708007812 126.6027603149414 236.0751190185547 125.11701965332031 239.50448608398438 C 123.4259262084961 242.1398468017578 121.57431030273438 243.97012329101562 119.6111831665039 245.04371643066406 C 117.48136138916016 245.48289489746094 115.11653137207031 245.45973205566406 112.46465301513672 245.157958984375 C 109.5341796875 244.69210815429688 106.4046630859375 244.1028594970703 103.18768310546875 243.37815856933594 C 100.00665283203125 242.51023864746094 96.97402954101562 241.5743408203125 94.22726440429688 240.68272399902344 C 91.88818359375 239.8924560546875 90.04438018798828 239.2397918701172 88.72190856933594 238.7603302001953 C 87.91699981689453 238.46946716308594 87.60088348388672 238.31959533691406 87.7104263305664 238.23435974121094 C 88.13468170166016 238.1871795654297 88.73934936523438 238.16461181640625 89.40032958984375 238.1456756591797 C 90.03899383544922 238.09173583984375 90.58000183105469 237.914794921875 90.91506958007812 237.57945251464844 C 90.93647766113281 237.11740112304688 90.56593322753906 236.54354858398438 89.8892822265625 235.90538024902344 C 88.94721984863281 235.2748565673828 87.53730773925781 234.84056091308594 85.53749084472656 234.68417358398438 C 82.88761901855469 234.9528045654297 79.63147735595703 235.51974487304688 75.7833023071289 236.4656524658203 C 71.2638931274414 237.5941619873047 66.22059631347656 238.62554931640625 61.225608825683594 239.08045959472656 C 56.94187545776367 238.4307098388672 53.54365158081055 236.65501403808594 51.36005783081055 234.5368194580078 C 51.3594970703125 232.66539001464844 53.162498474121094 231.35147094726562 56.39347457885742 231.3531494140625 C 59.6648063659668 231.68150329589844 62.363441467285156 230.94284057617188 64.6565933227539 228.9272918701172 C 66.15019226074219 227.10342407226562 66.61127471923828 225.6795196533203 65.54222106933594 224.06520080566406 C 64.6478271484375 221.32095336914062 62.12466812133789 218.2467041015625 58.13840103149414 215.6317901611328 C 54.07558059692383 212.10789489746094 51.04734802246094 207.9998016357422 49.57667922973633 204.70574951171875 C 50.01904296875 203.4925537109375 52.05915832519531 203.30380249023438 55.708736419677734 203.9932098388672 C 59.55296325683594 205.18954467773438 63.26674270629883 206.6743621826172 66.88490295410156 208.2643280029297 C 70.3323974609375 209.83766174316406 73.20220947265625 211.26702880859375 75.2791519165039 212.4254150390625 C 76.75732421875 213.2026824951172 77.9175033569336 213.6177215576172 78.93770599365234 213.75506591796875 C 79.92106628417969 213.7106170654297 80.93511199951172 213.5917205810547 82.0419921875 213.4740447998047 C 83.30330657958984 213.37229919433594 84.74220275878906 213.23263549804688 86.33978271484375 213.05242919921875 C 88.05168151855469 212.8632049560547 89.78655242919922 212.64785766601562 91.44654846191406 212.36363220214844 C 92.94404602050781 211.9759063720703 94.19369506835938 211.4404296875 95.1502685546875 210.69406127929688 C 95.80574798583984 209.7551727294922 96.17005920410156 208.7251434326172 96.23448944091797 207.7043914794922 C 95.98741912841797 206.7512969970703 95.38911437988281 205.98052978515625 94.37979888916016 205.43743896484375 C 93.00731658935547 205.190185546875 91.3062973022461 205.22555541992188 89.36550903320312 205.53831481933594 C 87.26081085205078 206.12069702148438 84.9615478515625 206.8990478515625 82.35723114013672 207.7783203125 C 79.43170166015625 208.6090545654297 76.35762023925781 209.25323486328125 73.26026153564453 209.470703125 C 70.06001281738281 209.17071533203125 66.62943267822266 208.2608184814453 62.729740142822266 206.86659240722656 C 58.52376937866211 205.3167266845703 54.28935623168945 204.28810119628906 50.042503356933594 203.9009552001953 C 46.16990661621094 203.2913818359375 43.514644622802734 200.81500244140625 43.482635498046875 195.5093536376953 C 44.33747863769531 187.88177490234375 45.2294807434082 179.50193786621094 35.98761749267578 190.72686767578125" stroke-width="0.0" fill="rgb(157, 131, 105)" opacity="0.99940276" stroke="rgb(144, 212, 221)" stroke-opacity="0.8871592" stroke-linecap="round" stroke-linejoin="round"/>
    <path d="M 83.4566879272461 193.72897338867188 C 84.71797943115234 193.9307098388672 86.04651641845703 193.9476318359375 87.4164047241211 194.03041076660156 C 88.80680084228516 194.2407989501953 90.17979431152344 194.57290649414062 91.47419738769531 194.91690063476562 C 92.69080352783203 195.11619567871094 93.8437271118164 195.1380615234375 94.88150787353516 195.16574096679688 C 95.77916717529297 195.1464080810547 96.6087417602539 195.1226348876953 97.4526596069336 195.01853942871094 C 98.3521728515625 194.9111328125 99.20669555664062 194.87831115722656 100.06427001953125 194.97581481933594 C 101.11166381835938 195.25479125976562 102.5742416381836 195.66983032226562 104.47293853759766 196.1783905029297 C 106.60400390625 196.57957458496094 108.61951446533203 196.888916015625 110.08509063720703 196.78797912597656 C 111.08446502685547 195.8197479248047 112.3438491821289 195.20558166503906 113.50794219970703 194.6309051513672 C 113.47282409667969 193.7130126953125 112.99746704101562 194.13934326171875 112.03488159179688 195.245849609375 C 112.26410675048828 196.64801025390625 113.1037826538086 197.85499572753906 114.33131408691406 199.0833740234375 C 115.7714614868164 199.9329833984375 117.10750579833984 200.3126983642578 117.9206314086914 200.38876342773438 C 118.42965698242188 200.34559631347656 118.99629974365234 200.26097106933594 119.61018371582031 200.0854034423828 C 120.2540512084961 199.92779541015625 121.70820617675781 199.7965850830078 123.68119812011719 199.6660614013672 C 125.86026763916016 199.53651428222656 128.6057586669922 199.3383026123047 131.2221221923828 199.64141845703125 C 133.251953125 199.51597595214844 135.49783325195312 199.87811279296875 137.24732971191406 200.70533752441406 C 138.3893280029297 201.6436309814453 139.17103576660156 202.11825561523438 139.6439971923828 202.56761169433594 C 139.8121337890625 202.66012573242188 139.98963928222656 202.9602508544922 140.14788818359375 203.33058166503906 C 140.3343963623047 203.70550537109375 141.128173828125 203.90789794921875 142.59315490722656 204.18826293945312 C 144.11041259765625 204.72747802734375 145.6443328857422 205.1703338623047 147.1819305419922 205.36578369140625 C 148.562744140625 205.39898681640625 149.70265197753906 205.39468383789062 150.55699157714844 205.2373809814453 C 151.14695739746094 204.82965087890625 151.54879760742188 204.33737182617188 151.80628967285156 203.8718719482422 C 151.90464782714844 203.48553466796875 152.2318115234375 203.42388916015625 152.8997344970703 203.74884033203125 C 153.85919189453125 204.45631408691406 155.52342224121094 205.4121551513672 158.11639404296875 206.15213012695312 C 161.0861053466797 206.58712768554688 163.7115020751953 206.5920867919922 165.5363006591797 207.15716552734375 C 166.6016845703125 209.24639892578125 167.29933166503906 211.88067626953125 167.29287719726562 214.08631896972656 C 167.9905548095703 215.654541015625 170.34861755371094 215.45277404785156 173.23681640625 212.22482299804688 C 176.5267333984375 208.10691833496094 179.23687744140625 210.12672424316406 178.98387145996094 217.35140991210938 C 175.00741577148438 222.89903259277344 171.05799865722656 226.56947326660156 168.20021057128906 229.59471130371094 C 166.58367919921875 232.57679748535156 165.85186767578125 234.8539276123047 165.66822814941406 235.8110809326172 C 165.80926513671875 236.14195251464844 165.9316864013672 236.30487060546875 165.77011108398438 236.45944213867188 C 165.1427459716797 236.8077850341797 163.90977478027344 237.50726318359375 162.01263427734375 238.47341918945312 C 159.258056640625 239.69482421875 155.6239013671875 241.0546112060547 151.1477813720703 242.40802001953125 C 146.04171752929688 243.4691162109375 140.74510192871094 244.05226135253906 135.75392150878906 243.77537536621094 C 131.54954528808594 242.99972534179688 128.41500854492188 241.93661499023438 126.44837951660156 240.80343627929688 C 125.50698852539062 239.74893188476562 125.0953369140625 238.8981170654297 124.69847869873047 238.30889892578125 C 124.04275512695312 237.9932861328125 123.03189849853516 237.9261016845703 121.73886108398438 237.95301818847656 C 120.30150604248047 237.92813110351562 118.80503845214844 237.75791931152344 117.33816528320312 237.37734985351562 C 115.93878173828125 236.83380126953125 114.64009857177734 236.24624633789062 113.48197174072266 235.6932373046875 C 112.5323715209961 235.19606018066406 111.99173736572266 234.60487365722656 112.00272369384766 233.69732666015625 C 112.62407684326172 232.2418212890625 113.76265716552734 230.28570556640625 115.2973403930664 228.14181518554688 C 116.95902252197266 226.20635986328125 118.31658935546875 224.85107421875 119.02393341064453 224.26461791992188 C 118.929443359375 224.45654296875 117.90900421142578 225.20668029785156 116.09555053710938 226.2321319580078 C 113.75177001953125 227.0942840576172 111.20256042480469 227.4737548828125 108.74079132080078 227.2154541015625 C 106.65706634521484 226.313720703125 105.18219757080078 224.99073791503906 104.36324310302734 223.49205017089844 C 103.84986877441406 222.06134033203125 103.7897720336914 220.68495178222656 104.05529022216797 219.4052276611328 C 104.498779296875 218.25428771972656 105.01611328125 217.20867919921875 105.54579162597656 216.2274932861328 C 106.0797348022461 215.2769012451172 106.60609436035156 214.31854248046875 107.12391662597656 213.34739685058594 C 107.61981201171875 212.3748016357422 108.0489730834961 211.37269592285156 108.38358306884766 210.2718963623047 C 108.60075378417969 209.0312957763672 108.65904998779297 207.64283752441406 108.4877700805664 206.16433715820312 C 108.07181549072266 204.73101806640625 107.42415618896484 203.4281768798828 106.52161407470703 202.2941436767578 C 105.40171813964844 201.3605194091797 104.09860229492188 200.62660217285156 102.68719482421875 200.13365173339844 C 101.19151306152344 199.96023559570312 99.57853698730469 199.891845703125 98.00215911865234 200.05714416503906 C 96.55082702636719 200.5634765625 95.23983001708984 201.25450134277344 94.01789855957031 201.95892333984375 C 92.81929016113281 202.65513610839844 91.70645904541016 203.197265625 90.67418670654297 203.5745849609375 C 89.68323516845703 203.8266143798828 88.750244140625 203.88844299316406 87.91895294189453 203.70413208007812 C 87.21862030029297 203.37893676757812 86.59986114501953 202.93099975585938 86.02128601074219 202.3450164794922 C 85.45841979980469 201.72218322753906 84.9251480102539 201.0930938720703 84.42560577392578 200.4407958984375 C 83.91851806640625 199.78326416015625 83.38346862792969 199.12388610839844 83.4566879272461 193.72897338867188" stroke-width="0.0" fill="rgb(139, 116, 93)" opacity="1.0" stroke="rgb(114, 159, 250)" stroke-opacity="0.19633505" stroke-linecap="round" stroke-linejoin="round"/>
    <path d="M 370.7143859863281 192.87777709960938 C 372.71368408203125 191.97244262695312 374.8628234863281 191.63768005371094 377.2873840332031 191.55641174316406 C 380.1247253417969 191.7208709716797 382.87982177734375 191.6961212158203 385.4104919433594 191.53977966308594 C 387.4537658691406 191.42428588867188 388.92120361328125 191.32301330566406 389.65985107421875 191.6917266845703 C 389.7073974609375 192.7765655517578 389.3057861328125 194.2274932861328 388.5147705078125 195.68826293945312 C 387.6349792480469 197.12319946289062 386.6807861328125 198.44627380371094 385.674560546875 199.58128356933594 C 385.0435485839844 200.34994506835938 384.7643127441406 200.82608032226562 384.5284729003906 201.4936065673828 C 384.3957214355469 202.26084899902344 384.1326904296875 203.084716796875 383.3899230957031 203.81724548339844 C 382.1571044921875 203.68576049804688 380.5635986328125 203.4655303955078 378.8413391113281 203.3475341796875 C 377.07147216796875 203.853271484375 375.1869812011719 203.78314208984375 373.5292663574219 203.34054565429688 C 372.2209777832031 203.2795867919922 371.12774658203125 204.01881408691406 370.0052795410156 204.49559020996094 C 369.1548767089844 204.01983642578125 368.2505187988281 204.06927490234375 367.7417297363281 204.42529296875 C 367.543212890625 204.40846252441406 367.268798828125 204.36817932128906 366.8091125488281 204.47769165039062 C 365.9116516113281 204.6126251220703 364.66107177734375 204.64161682128906 363.20599365234375 204.64602661132812 C 361.6087951660156 204.77401733398438 359.8136901855469 204.6563262939453 357.8596496582031 204.39083862304688 C 355.87445068359375 204.61788940429688 353.9450988769531 205.13394165039062 352.11578369140625 205.4275360107422 C 350.4898986816406 205.2354736328125 349.15234375 204.97381591796875 348.1097106933594 204.78323364257812 C 347.43841552734375 204.35377502441406 346.8965148925781 203.46348571777344 346.40374755859375 202.20498657226562 C 345.909423828125 200.7409210205078 345.5592041015625 199.14659118652344 345.3846740722656 197.17962646484375 C 345.3416442871094 194.72491455078125 345.3420104980469 192.69482421875 345.5843811035156 191.6112823486328 C 345.9996337890625 191.3282928466797 346.55950927734375 191.47976684570312 347.61138916015625 191.85108947753906 C 348.7449645996094 192.4396209716797 349.99505615234375 192.63426208496094 351.16217041015625 192.74134826660156 C 352.248779296875 192.9634246826172 353.10687255859375 192.46817016601562 354.0536804199219 191.94052124023438 C 354.741943359375 191.6509246826172 355.3328857421875 191.61346435546875 355.95196533203125 191.85989379882812 C 356.5561828613281 191.9376983642578 357.4421691894531 192.48023986816406 358.7813415527344 192.36056518554688 C 360.6543273925781 192.1885528564453 363.0245666503906 191.92813110351562 365.35595703125 191.70867919921875 C 367.46917724609375 191.57557678222656 369.10394287109375 191.5845489501953 370.1982116699219 191.72874450683594 C 370.8972473144531 191.56285095214844 371.36151123046875 191.75205993652344 371.81396484375 192.07046508789062 C 372.3163757324219 191.88916015625 372.731689453125 191.6033477783203 373.3370361328125 191.74391174316406 C 374.1122131347656 191.85574340820312 374.8090515136719 191.9229736328125 370.7143859863281 192.87777709960938" stroke-width="0.0" fill="rgb(0, 0, 0)" opacity="0.99959505" stroke="rgb(151, 249, 204)" stroke-opacity="0.57673836" stroke-linecap="round" stroke-linejoin="round"/>
    <path d="M 120.40022277832031 179.82574462890625 C 120.90168762207031 179.50372314453125 121.55960845947266 179.13604736328125 122.2807846069336 178.97381591796875 C 123.16364288330078 179.2743377685547 124.39014434814453 179.52969360351562 125.81358337402344 179.35714721679688 C 127.29315948486328 179.15130615234375 128.42359924316406 179.10430908203125 129.25885009765625 179.49786376953125 C 130.12588500976562 180.2926025390625 130.6642608642578 181.1313018798828 131.12466430664062 181.51356506347656 C 131.90695190429688 181.41278076171875 133.05697631835938 181.04177856445312 134.36537170410156 180.52481079101562 C 135.53460693359375 180.2696533203125 136.6212615966797 180.5077362060547 137.6227569580078 180.85276794433594 C 138.5508575439453 181.10086059570312 139.5301513671875 181.32212829589844 140.49850463867188 181.5047149658203 C 141.4009552001953 181.50582885742188 142.26925659179688 181.33233642578125 143.21731567382812 181.1544189453125 C 144.58001708984375 180.93795776367188 146.07505798339844 181.09303283691406 147.51548767089844 181.6749725341797 C 148.71243286132812 181.930419921875 150.0116729736328 182.1676788330078 151.46372985839844 182.45863342285156 C 152.15713500976562 182.64035034179688 152.4386444091797 182.44036865234375 152.85206604003906 182.47828674316406 C 153.15530395507812 182.96791076660156 153.77720642089844 183.5201873779297 155.00271606445312 184.10928344726562 C 156.7571563720703 184.92935180664062 159.10462951660156 186.16490173339844 161.45054626464844 187.53421020507812 C 163.31423950195312 189.3191375732422 164.57778930664062 191.39935302734375 164.7670440673828 192.616455078125 C 163.43031311035156 192.81109619140625 160.8490753173828 192.50318908691406 157.41171264648438 192.23947143554688 C 153.7598419189453 191.37530517578125 150.40090942382812 190.7520751953125 147.1820526123047 190.4285430908203 C 144.41490173339844 190.31655883789062 141.975341796875 189.74664306640625 139.84996032714844 189.14437866210938 C 137.3948516845703 189.0067901611328 135.12673950195312 189.6876678466797 133.69029235839844 189.63304138183594 C 133.1875457763672 189.53390502929688 133.12460327148438 188.97625732421875 133.4563446044922 188.46197509765625 C 134.33924865722656 188.01210021972656 134.56895446777344 187.39157104492188 134.65292358398438 186.92100524902344 C 134.4236297607422 186.76766967773438 134.28482055664062 186.5941925048828 134.0704803466797 186.94064331054688 C 133.60125732421875 187.97463989257812 132.5096435546875 188.41407775878906 131.0995330810547 188.26303100585938 C 129.73944091796875 188.2806396484375 128.3636932373047 188.15292358398438 126.5299301147461 187.91259765625 C 124.21492767333984 187.79782104492188 121.76517486572266 188.10902404785156 118.88692474365234 187.30484008789062 C 115.190673828125 186.2288360595703 111.15397644042969 186.06822204589844 107.26791381835938 185.02413940429688 C 103.06968688964844 184.67813110351562 99.20822143554688 183.51779174804688 120.40022277832031 179.82574462890625" stroke-width="0.0" fill="rgb(0, 0, 0)" opacity="0.9994192" stroke="rgb(61, 186, 246)" stroke-opacity="0.16700648" stroke-linecap="round" stroke-linejoin="round"/>
    <path d="M 329.1174011230469 46.77265548706055 C 330.4888610839844 46.84557342529297 331.8554382324219 46.92649841308594 333.202392578125 47.01756286621094 C 334.5087890625 47.12150955200195 335.7670593261719 47.259124755859375 336.9613037109375 47.42066955566406 C 338.0804138183594 47.62430953979492 339.121337890625 47.857521057128906 340.083740234375 48.10887908935547 C 340.9985656738281 48.38590621948242 341.865478515625 48.66083908081055 342.7052001953125 48.91923522949219 C 343.54547119140625 49.175201416015625 344.4043273925781 49.42208480834961 345.2710266113281 49.64115524291992 C 346.1626281738281 49.84712219238281 347.06707763671875 50.05075454711914 347.9640197753906 50.25018310546875 C 348.87359619140625 50.454898834228516 349.8375549316406 50.677459716796875 350.8049621582031 50.91401672363281 C 351.6908874511719 51.20888900756836 352.58551025390625 51.566627502441406 353.4727783203125 51.87561798095703 C 354.26513671875 52.083656311035156 355.115478515625 52.23819351196289 356.13494873046875 52.33355712890625 C 357.148681640625 52.26597595214844 358.2097473144531 52.30949020385742 359.6189270019531 52.66117477416992 C 361.4598693847656 53.10551071166992 363.5988464355469 53.55628967285156 365.6417236328125 54.105613708496094 C 367.0749206542969 54.79454040527344 367.3739013671875 55.30305862426758 365.6746520996094 55.53082275390625 C 361.6016845703125 55.27899932861328 355.4896545410156 53.83298110961914 347.8785095214844 50.80394744873047 C 340.8096618652344 45.73857879638672 337.84637451171875 38.33399963378906 340.10833740234375 30.977954864501953 C 346.9897155761719 28.12401580810547 356.72161865234375 30.379560470581055 368.5177307128906 35.0753288269043 C 379.0437316894531 39.97182846069336 388.3734436035156 44.217079162597656 394.9829406738281 47.890628814697266 C 399.4365539550781 50.50244903564453 402.294189453125 51.584083557128906 403.43182373046875 52.52457809448242 C 402.7804260253906 53.73051071166992 400.2366943359375 54.61191177368164 397.1320495605469 55.76030349731445 C 393.6009826660156 56.91915512084961 390.25799560546875 58.78812026977539 388.2267761230469 60.1159782409668 C 387.6622009277344 60.89799118041992 388.2323913574219 59.561790466308594 390.1331787109375 58.360923767089844 C 393.1126708984375 56.81595993041992 396.4137878417969 55.584815979003906 399.8454284667969 54.01915740966797 C 402.957275390625 53.637393951416016 405.5523986816406 54.69577407836914 408.3280944824219 56.59552001953125 C 411.8731994628906 58.55546188354492 415.0 60.47324752807617 418.172607421875 62.64638900756836 C 421.6117248535156 65.14437866210938 424.95159912109375 67.72126770019531 428.5486145019531 70.91991424560547 C 432.1087646484375 74.40373992919922 436.1439208984375 78.0775375366211 440.2431335449219 82.08252716064453 C 445.0824890136719 84.99181365966797 449.9587097167969 88.87495422363281 455.4458312988281 93.98584747314453 C 461.4168395996094 101.44963073730469 467.7247314453125 110.82604217529297 473.2775573730469 119.63970947265625 C 475.7848815917969 129.0757293701172 473.82330322265625 134.89437866210938 466.68707275390625 137.0619659423828 C 457.5275573730469 133.69940185546875 449.252197265625 127.03570556640625 442.7278137207031 120.55086517333984 C 438.1796569824219 115.94237518310547 435.0807189941406 112.99771118164062 432.3238830566406 110.65604400634766 C 429.34796142578125 108.57379913330078 426.213134765625 106.42452239990234 423.0631408691406 104.21549987792969 C 420.0116271972656 102.38102722167969 417.07330322265625 100.79977416992188 414.266845703125 99.24774169921875 C 411.6318359375 97.84012603759766 409.1701354980469 96.68675994873047 406.695068359375 95.50457763671875 C 404.0635070800781 94.21733093261719 401.4644470214844 93.5058822631836 398.68634033203125 92.72234344482422 C 395.3717346191406 92.67244720458984 391.8693542480469 92.31450653076172 388.6201171875 91.78176879882812 C 385.7402038574219 91.32291412353516 382.92205810546875 90.3987045288086 380.4759521484375 89.36919403076172 C 378.4039306640625 88.05718994140625 376.7793884277344 86.42498016357422 375.5158386230469 84.79653930664062 C 374.55072021484375 83.3799057006836 373.732177734375 82.34445190429688 372.915283203125 81.79545593261719 C 372.0120849609375 81.71307373046875 371.04205322265625 82.0223617553711 370.1085205078125 82.61363983154297 C 369.1766662597656 83.32862091064453 367.97113037109375 84.10504913330078 366.39678955078125 84.89287567138672 C 364.55816650390625 85.5678482055664 362.6086730957031 86.04154968261719 360.7802734375 86.08031463623047 C 359.1882629394531 85.37639617919922 357.52398681640625 84.51405334472656 355.9213562011719 83.77188873291016 C 354.762939453125 82.86372375488281 354.3954162597656 81.60589599609375 354.2984924316406 80.25670623779297 C 354.4040832519531 79.43814849853516 354.4433898925781 78.7747802734375 354.2536315917969 78.23505401611328 C 353.7706604003906 78.00910949707031 352.8726806640625 78.07444763183594 351.437744140625 78.22888946533203 C 349.5502014160156 78.504150390625 347.39984130859375 78.78968048095703 345.08251953125 79.069580078125 C 342.418701171875 79.37383270263672 339.5916748046875 79.65019989013672 336.6717834472656 79.8880615234375 C 333.83880615234375 80.06664276123047 331.1194763183594 79.9401626586914 328.3766784667969 79.32035064697266 C 325.7454528808594 77.83894348144531 322.9820251464844 76.30548095703125 320.372314453125 74.96771240234375 C 317.7413330078125 74.10717010498047 314.57684326171875 73.79878234863281 311.4049987792969 74.33473205566406 C 308.94464111328125 73.5622787475586 306.4552917480469 71.64768981933594 303.1181335449219 70.33147430419922 C 299.99322509765625 69.82526397705078 297.47637939453125 68.64129638671875 294.42388916015625 68.05645751953125 C 291.28106689453125 67.33959197998047 288.1583251953125 66.77055358886719 284.4901123046875 65.41915130615234 C 279.4837341308594 64.15251922607422 273.4480285644531 64.51268768310547 265.3158264160156 63.197296142578125 C 255.0363311767578 61.794918060302734 245.5749053955078 57.265071868896484 243.0906524658203 47.89502716064453 C 250.09214782714844 38.31125259399414 263.976806640625 31.312021255493164 280.75665283203125 26.36090850830078 C 298.56884765625 22.692462921142578 315.1820068359375 21.528451919555664 328.0579833984375 23.26306915283203 C 335.9870910644531 28.88072395324707 338.8623046875 36.970916748046875 337.32037353515625 44.2952880859375 C 333.581787109375 48.53113555908203 328.92669677734375 49.73738098144531 324.2645263671875 48.98649978637695 C 320.4713134765625 47.222190856933594 316.9260559082031 45.03615188598633 329.1174011230469 46.77265548706055" stroke-width="0.0" fill="rgb(83, 81, 77)" opacity="0.9999925" stroke="rgb(38, 131, 199)" stroke-opacity="0.27284303" stroke-linecap="round" stroke-linejoin="round"/>
    <path d="M 244.5264892578125 123.68511199951172 C 244.7734832763672 123.58191680908203 245.06080627441406 123.51646423339844 245.4075469970703 123.49234008789062 C 245.8445281982422 123.50944519042969 246.40097045898438 123.5632095336914 247.10606384277344 123.6569595336914 C 247.98463439941406 123.75582122802734 249.04159545898438 123.88187408447266 250.26869201660156 123.98668670654297 C 251.63438415527344 124.03309631347656 253.11257934570312 124.02220153808594 254.67030334472656 123.96199035644531 C 256.2590026855469 123.8537368774414 257.82745361328125 123.71674346923828 259.34991455078125 123.59573364257812 C 260.8036804199219 123.50437927246094 262.1533508300781 123.48302459716797 263.3563537597656 123.54258728027344 C 264.3955383300781 123.6792221069336 265.28790283203125 123.88064575195312 266.0667419433594 124.11250305175781 C 266.7733459472656 124.34986877441406 267.4606628417969 124.57305908203125 268.17535400390625 124.78257751464844 C 268.9456787109375 124.95399475097656 269.7956237792969 125.09020233154297 270.7547912597656 125.24009704589844 C 271.8799133300781 125.40740966796875 273.16571044921875 125.62893676757812 274.5483703613281 125.90052032470703 C 275.9781494140625 126.23336791992188 277.450439453125 126.65641021728516 278.9735107421875 127.16937255859375 C 280.5550842285156 127.70062255859375 282.1691589355469 128.20651245117188 283.7574157714844 128.7164764404297 C 285.270751953125 129.2072296142578 286.6300048828125 129.70448303222656 287.7929382324219 130.28697204589844 C 288.7308349609375 131.0010986328125 289.52850341796875 131.8413848876953 290.2046203613281 132.8077850341797 C 290.8042297363281 133.8386993408203 291.4732360839844 134.87315368652344 292.24456787109375 135.8101043701172 C 293.1240234375 136.57598876953125 294.13104248046875 137.17137145996094 295.2276611328125 137.6687469482422 C 296.3114318847656 138.10777282714844 297.2745361328125 138.5718994140625 298.0541076660156 139.11024475097656 C 298.6215515136719 139.73912048339844 298.95684814453125 140.4600067138672 299.0605773925781 141.1958465576172 C 298.9621276855469 141.90354919433594 298.72625732421875 142.5618133544922 298.4073486328125 143.11502075195312 C 298.00341796875 143.54690551757812 297.5406188964844 143.86111450195312 297.031982421875 144.084716796875 C 296.47021484375 144.25975036621094 295.83441162109375 144.39112854003906 295.08367919921875 144.42813110351562 C 294.1943664550781 144.3931884765625 293.19854736328125 144.31207275390625 292.14019775390625 144.1991729736328 C 291.01513671875 144.02859497070312 289.7604064941406 143.8134765625 288.4002990722656 143.57366943359375 C 286.9773864746094 143.2664031982422 285.54217529296875 142.90660095214844 284.106201171875 142.506103515625 C 282.6920166015625 142.11669921875 281.3071594238281 141.76480102539062 279.9701843261719 141.44192504882812 C 278.78106689453125 141.099365234375 277.74359130859375 140.82164001464844 276.88446044921875 140.64085388183594 C 276.2469787597656 140.5667724609375 275.8338317871094 140.55856323242188 275.6000061035156 140.61239624023438 C 275.4460754394531 140.7115478515625 275.29022216796875 140.7859649658203 275.04400634765625 140.7591552734375 C 274.5997314453125 140.601806640625 273.9138488769531 140.44923400878906 272.9966735839844 140.37698364257812 C 271.88031005859375 140.4158935546875 270.466064453125 140.48663330078125 268.83148193359375 140.48130798339844 C 267.26605224609375 140.41314697265625 266.0556945800781 140.1508026123047 265.2215881347656 139.6100311279297 C 264.30926513671875 139.2854766845703 263.3871765136719 138.80245971679688 262.70648193359375 138.32115173339844 C 262.0089111328125 137.9495086669922 261.6316833496094 137.76515197753906 261.3772888183594 137.71868896484375 C 260.7140197753906 137.63182067871094 259.7559509277344 137.745849609375 258.4034423828125 138.13909912109375 C 256.4713439941406 138.4385223388672 254.5733184814453 138.632568359375 253.25111389160156 138.3863983154297 C 252.65049743652344 137.890869140625 252.09414672851562 137.9283447265625 251.9713592529297 138.75970458984375 C 253.07748413085938 139.39895629882812 254.5355987548828 140.19667053222656 255.45657348632812 140.23594665527344 C 256.5039978027344 140.3072967529297 258.0050048828125 140.76715087890625 259.4609375 141.66204833984375 C 260.76885986328125 142.7286834716797 261.9563903808594 143.5766143798828 262.9802551269531 144.0712127685547 C 263.7912292480469 144.2560272216797 264.419921875 144.44569396972656 264.898681640625 145.05197143554688 C 264.98834228515625 145.8306884765625 264.608154296875 146.60704040527344 263.7818298339844 147.25804138183594 C 262.54144287109375 147.68714904785156 260.97064208984375 147.90805053710938 259.17022705078125 147.91542053222656 C 257.26800537109375 147.71597290039062 255.36851501464844 147.36947631835938 253.56069946289062 146.9152374267578 C 251.93850708007812 146.3831329345703 250.59710693359375 145.86465454101562 249.5631561279297 145.42860412597656 C 248.85488891601562 145.10018920898438 248.38568115234375 144.87969970703125 248.06568908691406 144.7882843017578 C 247.82345581054688 144.81617736816406 247.5509796142578 144.89691162109375 247.1571502685547 144.9761199951172 C 246.58804321289062 145.00274658203125 245.8378143310547 144.91078186035156 244.91256713867188 144.65768432617188 C 243.84844970703125 144.21633911132812 242.65721130371094 143.59408569335938 241.3828125 142.8287353515625 C 240.09701538085938 141.99192810058594 238.8929443359375 141.13674926757812 237.8208770751953 140.31044006347656 C 236.90341186523438 139.53677368164062 236.1407928466797 138.85231018066406 235.50523376464844 138.2737579345703 C 235.02493286132812 137.76873779296875 234.69094848632812 137.28379821777344 234.53073120117188 136.730224609375 C 234.6212921142578 135.99696350097656 234.95314025878906 135.01699829101562 235.55764770507812 133.7362060546875 C 236.41842651367188 132.12164306640625 237.4879608154297 130.20745849609375 238.70513916015625 128.0630645751953 C 239.98316955566406 125.78563690185547 241.2792510986328 123.43972778320312 244.5264892578125 123.68511199951172" stroke-width="0.0" fill="rgb(148, 133, 109)" opacity="0.99999017" stroke="rgb(250, 142, 179)" stroke-opacity="0.9734011" stroke-linecap="round" stroke-linejoin="round"/>
    <path d="M 185.9097442626953 102.74536895751953 C 186.7421875 103.17638397216797 187.54446411132812 103.69976806640625 188.3476104736328 104.19373321533203 C 189.1981964111328 104.40657043457031 190.17843627929688 104.47100067138672 191.20237731933594 104.63741302490234 C 192.2381591796875 104.69239807128906 193.20347595214844 104.86793518066406 194.24351501464844 105.32135009765625 C 195.37109375 105.79010772705078 196.5884246826172 106.21395874023438 197.67298889160156 106.92453002929688 C 198.70118713378906 107.83180236816406 199.6200408935547 108.88802337646484 200.47181701660156 110.02046966552734 C 201.39573669433594 111.08306121826172 202.28294372558594 112.0142822265625 203.03294372558594 112.98173522949219 C 203.7615203857422 114.00498962402344 204.4286346435547 115.02164459228516 204.74916076660156 116.19235229492188 C 205.2908477783203 117.23807525634766 205.87400817871094 118.22566223144531 206.44915771484375 119.1077651977539 C 207.08181762695312 120.0440902709961 207.26727294921875 120.99114227294922 207.24240112304688 122.05892181396484 C 207.19981384277344 123.09139251708984 207.2155303955078 123.97864532470703 207.66925048828125 124.72782135009766 C 208.45574951171875 125.68135833740234 209.0452117919922 126.64226531982422 209.48573303222656 127.63082885742188 C 209.91358947753906 128.49871826171875 209.9991912841797 129.47830200195312 209.82327270507812 130.4799041748047 C 210.25054931640625 131.4205322265625 210.56851196289062 132.37643432617188 210.96263122558594 133.42652893066406 C 211.16867065429688 134.5774688720703 211.2281036376953 135.76388549804688 211.3848419189453 136.9951934814453 C 211.58648681640625 138.18731689453125 211.69615173339844 139.30763244628906 211.71701049804688 140.4078826904297 C 211.6231689453125 141.44088745117188 211.3325958251953 142.3087921142578 210.84634399414062 142.95875549316406 C 210.20343017578125 143.40127563476562 209.33584594726562 143.6231689453125 208.31080627441406 143.82424926757812 C 207.27491760253906 144.01980590820312 206.3009490966797 144.26133728027344 205.53048706054688 144.62503051757812 C 205.0620880126953 145.1991729736328 204.88214111328125 146.01425170898438 204.82081604003906 146.96975708007812 C 204.65109252929688 147.93165588378906 204.4093017578125 148.84523010253906 204.1835174560547 149.64654541015625 C 204.33494567871094 150.26873779296875 204.71963500976562 150.59652709960938 205.41259765625 150.57460021972656 C 206.22610473632812 150.22732543945312 207.15591430664062 149.7228240966797 208.1790313720703 149.14295959472656 C 209.10360717773438 148.33645629882812 209.90415954589844 147.39584350585938 210.68539428710938 146.62533569335938 C 211.2880401611328 146.32618713378906 211.69781494140625 146.46485900878906 211.85850524902344 147.07302856445312 C 212.13999938964844 148.13516235351562 212.39370727539062 149.50076293945312 212.57125854492188 150.80699157714844 C 212.54421997070312 151.9293670654297 212.2408905029297 152.9149169921875 211.83128356933594 153.4727020263672 C 211.3256072998047 153.59365844726562 210.66697692871094 153.28846740722656 210.01344299316406 152.7086944580078 C 209.3297882080078 151.9976806640625 208.60728454589844 151.45761108398438 207.64857482910156 151.2200469970703 C 206.74349975585938 151.39280700683594 205.9376220703125 151.7184295654297 205.187744140625 152.13021850585938 C 204.57037353515625 152.59310913085938 204.10260009765625 153.08006286621094 203.69410705566406 153.5910186767578 C 203.3460693359375 154.10134887695312 203.0768280029297 154.62176513671875 202.81178283691406 155.17828369140625 C 202.52813720703125 155.78726196289062 202.22900390625 156.4664306640625 201.903564453125 157.22230529785156 C 201.5155029296875 158.04534912109375 201.06329345703125 158.91848754882812 200.53790283203125 159.84042358398438 C 199.93991088867188 160.7877960205078 199.26329040527344 161.71815490722656 198.51190185546875 162.5995635986328 C 197.69679260253906 163.42433166503906 196.83984375 164.18881225585938 195.91549682617188 164.89138793945312 C 194.96913146972656 165.53895568847656 194.0063934326172 166.14071655273438 193.0186004638672 166.68272399902344 C 192.02642822265625 167.1927947998047 191.04376220703125 167.69903564453125 190.05479431152344 168.1864776611328 C 189.0545196533203 168.65240478515625 188.05606079101562 169.1206512451172 187.0589599609375 169.5963897705078 C 186.0492401123047 170.08062744140625 185.02857971191406 170.57080078125 184.00579833984375 171.0763397216797 C 182.95986938476562 171.61358642578125 181.90916442871094 172.1565399169922 180.86566162109375 172.73977661132812 C 179.82484436035156 173.3250274658203 178.79171752929688 173.91249084472656 177.78195190429688 174.4870147705078 C 176.8011474609375 175.01116943359375 175.8495635986328 175.4649658203125 174.94436645507812 175.82186889648438 C 174.09510803222656 176.0274200439453 173.2956085205078 176.0803680419922 172.5576934814453 175.93502807617188 C 171.8832550048828 175.60108947753906 171.2490234375 175.0796356201172 170.6857147216797 174.39576721191406 C 170.16024780273438 173.5642852783203 169.67515563964844 172.61544799804688 169.2156219482422 171.58697509765625 C 168.78436279296875 170.50367736816406 168.37582397460938 169.388916015625 167.98519897460938 168.27723693847656 C 167.6257781982422 167.1859130859375 167.2894287109375 166.12339782714844 166.9664306640625 165.10142517089844 C 166.69772338867188 164.116943359375 166.44068908691406 163.16030883789062 166.23129272460938 162.2212371826172 C 166.04063415527344 161.2809295654297 165.87399291992188 160.3230743408203 165.7262725830078 159.3284912109375 C 165.5968475341797 158.26992797851562 165.4754638671875 157.12896728515625 165.35055541992188 155.89874267578125 C 165.24960327148438 154.56520080566406 165.157470703125 153.11573791503906 165.0707244873047 151.5588836669922 C 165.028076171875 149.8912811279297 165.0110321044922 148.12655639648438 165.01756286621094 146.27719116210938 C 165.08041381835938 144.35885620117188 165.18917846679688 142.38157653808594 165.33880615234375 140.35659790039062 C 165.5408477783203 138.29928588867188 165.7832794189453 136.22506713867188 166.0725555419922 134.13839721679688 C 166.41156005859375 132.04270935058594 166.7991485595703 129.958251953125 167.24061584472656 127.89037322998047 C 167.76512145996094 125.82744598388672 168.35809326171875 123.78901672363281 169.0422821044922 121.78526306152344 C 169.84396362304688 119.79756927490234 170.7674560546875 117.83177185058594 171.8191375732422 115.91543579101562 C 173.016357421875 114.0367431640625 174.34503173828125 112.1815185546875 175.7827606201172 110.36929321289062 C 177.32208251953125 108.59941864013672 178.92709350585938 106.83883666992188 180.58180236816406 105.11186218261719 C 182.26284790039062 103.3821029663086 183.94894409179688 101.66447448730469 185.9097442626953 102.74536895751953" stroke-width="0.0" fill="rgb(54, 28, 14)" opacity="0.99999326" stroke="rgb(179, 249, 246)" stroke-opacity="0.9164548" stroke-linecap="round" stroke-linejoin="round"/>
    <path d="M 139.03924560546875 137.9243927001953 C 140.06666564941406 138.3385772705078 141.05702209472656 138.76129150390625 141.95144653320312 139.2397003173828 C 142.68109130859375 139.93746948242188 143.26211547851562 140.85562133789062 143.65443420410156 141.95555114746094 C 143.98709106445312 143.09397888183594 144.24649047851562 144.19351196289062 144.47718811035156 145.3154296875 C 144.7706756591797 146.33950805664062 145.0194854736328 147.33506774902344 145.11058044433594 148.34927368164062 C 145.06863403320312 149.33425903320312 144.96676635742188 150.30914306640625 144.81312561035156 151.26028442382812 C 144.59332275390625 152.24588012695312 144.3307342529297 153.23951721191406 143.94752502441406 154.2449188232422 C 143.69662475585938 155.31361389160156 143.52059936523438 156.41204833984375 143.40171813964844 157.56068420410156 C 143.23330688476562 158.64208984375 143.02516174316406 159.66598510742188 142.73455810546875 160.6568603515625 C 142.37745666503906 161.55783081054688 141.89234924316406 162.21499633789062 141.2531280517578 162.41897583007812 C 140.48843383789062 162.3940887451172 139.60006713867188 162.0637969970703 138.6474609375 161.8688507080078 C 137.61187744140625 161.7193603515625 136.53497314453125 161.7557373046875 135.42379760742188 161.8123321533203 C 134.33116149902344 161.7967071533203 133.29164123535156 161.7696990966797 132.28179931640625 161.71295166015625 C 131.3002471923828 161.546630859375 130.34625244140625 161.2781219482422 129.39895629882812 160.90963745117188 C 128.3920440673828 160.5719451904297 127.3023910522461 160.39259338378906 126.12718200683594 160.36749267578125 C 124.91295623779297 160.38278198242188 123.69996643066406 160.47030639648438 122.53137969970703 160.59388732910156 C 121.44526672363281 160.74717712402344 120.47378540039062 160.86041259765625 119.66260528564453 160.85107421875 C 119.04142761230469 160.56646728515625 118.57976531982422 160.03138732910156 118.27680969238281 159.38247680664062 C 118.2342758178711 158.72512817382812 118.49187469482422 158.10604858398438 118.93058013916016 157.41958618164062 C 119.31768798828125 156.6367950439453 119.55841827392578 155.71775817871094 119.70947265625 154.76461791992188 C 119.96151733398438 153.8267364501953 120.27606964111328 152.9475555419922 120.47087097167969 152.0634002685547 C 120.53862762451172 151.1686248779297 120.53821563720703 150.29640197753906 120.53077697753906 149.38262939453125 C 120.52168273925781 148.46868896484375 120.59967041015625 147.55636596679688 120.75660705566406 146.6284637451172 C 120.97809600830078 145.6833038330078 121.34498596191406 144.763671875 121.83541107177734 143.8523406982422 C 122.42649841308594 142.99545288085938 123.14075469970703 142.2388153076172 123.96564483642578 141.60958862304688 C 124.88654327392578 141.13230895996094 125.86427307128906 140.7801971435547 126.91381072998047 140.51931762695312 C 127.94380950927734 140.2157745361328 128.9566650390625 139.87664794921875 129.90585327148438 139.50662231445312 C 130.83155822753906 139.0992431640625 131.76470947265625 138.72731018066406 132.6821746826172 138.3841552734375 C 133.57908630371094 138.03369140625 134.46702575683594 137.63331604003906 139.03924560546875 137.9243927001953" stroke-width="0.0" fill="rgb(45, 31, 23)" opacity="0.9999891" stroke="rgb(246, 46, 230)" stroke-opacity="0.26026517" stroke-linecap="round" stroke-linejoin="round"/>
    <path d="M 173.90455627441406 215.37640380859375 C 171.0655059814453 222.14842224121094 168.34043884277344 228.62594604492188 165.97222900390625 234.5375518798828 C 164.2635040283203 239.5727996826172 163.25396728515625 243.64675903320312 162.84083557128906 246.83969116210938 C 162.76577758789062 249.30160522460938 162.8548583984375 251.1805877685547 163.13250732421875 252.54273986816406 C 163.5183868408203 253.47756958007812 163.70828247070312 254.09080505371094 163.63473510742188 254.5034637451172 C 163.31243896484375 254.9858856201172 162.78492736816406 255.7227020263672 162.3424835205078 256.7554626464844 C 162.10171508789062 258.1186828613281 162.03550720214844 259.69940185546875 162.0338592529297 261.1799621582031 C 161.98141479492188 262.280517578125 161.62945556640625 262.8844909667969 160.66050720214844 262.8971252441406 C 159.0875701904297 262.33197021484375 157.2313995361328 261.51953125 154.6912841796875 260.76708984375 C 151.78384399414062 260.1433410644531 148.76736450195312 259.5558776855469 145.79013061523438 259.6705627441406 C 143.25421142578125 259.6914367675781 141.4818572998047 259.8498229980469 140.4755859375 259.0131530761719 C 139.79176330566406 258.1294250488281 138.5846710205078 257.60919189453125 137.68502807617188 256.6156311035156 C 136.2198486328125 255.1663818359375 134.01519775390625 254.5838165283203 132.57899475097656 254.26751708984375 C 131.3001708984375 254.04750061035156 130.4225311279297 254.07568359375 128.69329833984375 254.66075134277344 C 127.1090316772461 255.05593872070312 125.97894287109375 255.56552124023438 124.86637878417969 256.31707763671875 C 123.38091278076172 256.8704833984375 121.54949188232422 256.8493957519531 119.45121002197266 256.26739501953125 C 117.14871215820312 255.35401916503906 114.70816802978516 254.33657836914062 112.37385559082031 252.85348510742188 C 110.30216979980469 250.5157012939453 108.72341918945312 247.33204650878906 107.79434204101562 243.54022216796875 C 107.38959503173828 239.5316619873047 107.79199981689453 235.81434631347656 109.15599822998047 232.90318298339844 C 111.4572525024414 231.32061767578125 114.26710510253906 231.33740234375 117.0593032836914 232.62786865234375 C 119.36119079589844 234.60736083984375 120.80902862548828 236.51461791992188 121.14881896972656 237.71217346191406 C 120.24808502197266 237.6615447998047 118.3885726928711 236.1670379638672 116.14170837402344 233.29364013671875 C 114.2227783203125 229.3978729248047 113.3427734375 225.09078979492188 114.11054229736328 221.1318359375 C 116.92371368408203 218.35501098632812 121.46297454833984 217.561767578125 126.88771057128906 218.8372802734375 C 132.3106689453125 221.38560485839844 136.88743591308594 224.43240356445312 140.01046752929688 227.32791137695312 C 141.3673553466797 229.6856231689453 141.15553283691406 231.47171020507812 139.7940216064453 232.78817749023438 C 137.8922576904297 233.82101440429688 136.0511016845703 234.71278381347656 134.69837951660156 235.57394409179688 C 134.05824279785156 236.47328186035156 134.1256866455078 237.29562377929688 134.77536010742188 237.87635803222656 C 135.8363037109375 238.13531494140625 136.99310302734375 238.06175231933594 137.94268798828125 237.7076416015625 C 138.3978729248047 237.12416076660156 138.31332397460938 236.37875366210938 137.7635040283203 235.52426147460938 C 136.91500854492188 234.58587646484375 135.9241943359375 233.55276489257812 135.01473999023438 232.4145050048828 C 134.4833984375 231.23422241210938 134.55862426757812 230.11880493164062 135.36407470703125 229.1936798095703 C 136.822998046875 228.56732177734375 138.68385314941406 228.33897399902344 140.6881561279297 228.54080200195312 C 142.60353088378906 229.1426239013672 144.2420196533203 229.99325561523438 145.46090698242188 230.93157958984375 C 146.26220703125 231.8089599609375 146.6598663330078 232.42578125 146.74612426757812 232.6461181640625 C 146.60191345214844 232.4258575439453 146.33641052246094 231.83096313476562 146.0419921875 230.97438049316406 C 145.76658630371094 229.99610900878906 145.5099334716797 229.0225067138672 145.23892211914062 228.19993591308594 C 144.9517059326172 227.65904235839844 144.71258544921875 227.45765686035156 144.62242126464844 227.5513458251953 C 144.79063415527344 227.7369384765625 145.326171875 227.8796844482422 146.3861083984375 227.76315307617188 C 148.05921936035156 227.1780548095703 150.3042449951172 225.92495727539062 153.08485412597656 223.85980224609375 C 156.1607208251953 220.85601806640625 159.24053955078125 217.20628356933594 173.90455627441406 215.37640380859375" stroke-width="0.0" fill="rgb(120, 99, 79)" opacity="0.9999093" stroke="rgb(174, 183, 229)" stroke-opacity="0.56199205" stroke-linecap="round" stroke-linejoin="round"/>
    <path d="M 83.20440673828125 198.420654296875 C 84.95307159423828 197.9554443359375 86.6299057006836 197.46681213378906 88.05058288574219 196.96502685546875 C 89.15141296386719 196.37948608398438 89.68348693847656 195.69944763183594 89.62947082519531 195.30795288085938 C 89.15337371826172 195.46644592285156 88.49779510498047 196.0063934326172 87.9820785522461 196.7194366455078 C 87.90213012695312 197.4191436767578 88.38172149658203 197.98944091796875 89.53265380859375 198.4765625 C 91.37166595458984 198.78590393066406 93.77964782714844 199.09097290039062 96.44811248779297 199.94017028808594 C 98.75775146484375 201.42103576660156 100.96688842773438 202.80343627929688 102.79843139648438 203.9977569580078 C 104.00531005859375 205.12557983398438 104.7709732055664 206.17897033691406 105.02984619140625 207.0342559814453 C 104.80082702636719 207.73342895507812 104.18192291259766 208.3883514404297 103.1911392211914 209.1304168701172 C 102.00994873046875 210.05496215820312 100.84843444824219 211.09889221191406 99.732177734375 212.302001953125 C 98.57080841064453 213.46678161621094 97.27405548095703 214.4676513671875 95.95935821533203 215.2945556640625 C 94.61702728271484 215.82839965820312 93.38544464111328 216.24862670898438 92.28119659423828 216.529296875 C 91.25505065917969 216.84815979003906 90.30195617675781 217.09471130371094 89.42457580566406 217.38099670410156 C 88.59019470214844 217.6931610107422 87.72632598876953 218.038818359375 86.75641632080078 218.37628173828125 C 85.63459777832031 218.48751831054688 84.38170623779297 218.59388732910156 82.99185180664062 218.774169921875 C 81.51045227050781 219.2114715576172 79.82903289794922 219.48837280273438 77.98885345458984 219.51597595214844 C 76.09083557128906 219.42906188964844 74.34430694580078 219.330322265625 72.9328384399414 219.346435546875 C 71.95159912109375 219.76414489746094 71.33765411376953 220.57603454589844 70.96696472167969 221.533935546875 C 70.71544647216797 222.23594665527344 70.59163665771484 222.44789123535156 70.78260040283203 222.1138153076172 C 71.19086456298828 221.41812133789062 71.63069152832031 220.4441375732422 71.61711120605469 219.34095764160156 C 70.36312103271484 218.149169921875 68.03271484375 216.7353515625 65.00531005859375 215.09942626953125 C 61.76557159423828 213.17103576660156 58.815765380859375 210.9074249267578 56.323482513427734 208.4540557861328 C 54.5987663269043 205.8601531982422 53.74161148071289 203.32705688476562 53.88685607910156 201.00669860839844 C 55.11549377441406 199.03762817382812 57.17984390258789 197.57223510742188 59.737571716308594 196.77163696289062 C 62.412132263183594 196.68768310546875 65.00662231445312 197.08709716796875 67.43890380859375 197.7473602294922 C 69.68277740478516 198.46630859375 71.53398895263672 199.09320068359375 72.87007904052734 199.51785278320312 C 73.69548034667969 199.65216064453125 74.09284973144531 199.5135955810547 74.13629150390625 199.1907196044922 C 73.91455841064453 198.82717895507812 73.5363998413086 198.53590393066406 73.11628723144531 198.4099884033203 C 72.76377868652344 198.5203857421875 72.58961486816406 198.91136169433594 72.69234466552734 199.6117401123047 C 73.13692474365234 200.54466247558594 73.9078140258789 201.5798797607422 74.95126342773438 202.61276245117188 C 76.19076538085938 203.57115173339844 77.56438446044922 204.39183044433594 78.96611022949219 205.01242065429688 C 80.30956268310547 205.3871307373047 81.5069808959961 205.55755615234375 82.47047424316406 205.51258850097656 C 83.11727905273438 205.32363891601562 83.3971939086914 205.070556640625 83.3126449584961 204.7598419189453 C 82.83959197998047 204.42758178710938 82.01283264160156 204.1192169189453 80.92305755615234 203.8165283203125 C 79.65109252929688 203.60693359375 78.27027893066406 203.40664672851562 76.85591125488281 203.24191284179688 C 75.49547576904297 203.15853881835938 74.22640228271484 203.16098022460938 73.0150146484375 203.22715759277344 C 71.85621643066406 203.31268310546875 70.74105072021484 203.41546630859375 83.20440673828125 198.420654296875" stroke-width="0.0" fill="rgb(168, 141, 113)" opacity="0.9995397" stroke="rgb(36, 181, 216)" stroke-opacity="0.681472" stroke-linecap="round" stroke-linejoin="round"/>
    <path d="M 403.9181213378906 190.63015747070312 C 406.4094543457031 190.9365997314453 408.9965515136719 190.84437561035156 411.2096252441406 190.65255737304688 C 412.8178405761719 190.2565155029297 413.9942626953125 190.19387817382812 414.76055908203125 190.72088623046875 C 415.30841064453125 191.883056640625 415.58782958984375 193.73069763183594 415.5740661621094 195.54786682128906 C 415.2417907714844 197.05349731445312 415.0616149902344 198.56243896484375 415.0911865234375 199.9600067138672 C 414.4886779785156 200.77932739257812 413.1913757324219 200.89036560058594 411.4490966796875 201.03443908691406 C 409.537353515625 201.49024963378906 408.0279541015625 201.14036560058594 407.0796203613281 200.75233459472656 C 406.4209899902344 201.19549560546875 405.0562438964844 201.9729766845703 403.1231994628906 202.1146697998047 C 401.3882141113281 201.63400268554688 400.187744140625 201.40818786621094 399.3952941894531 201.53289794921875 C 398.052978515625 202.19309997558594 395.96484375 202.7376708984375 393.512451171875 202.94195556640625 C 391.0437927246094 203.30282592773438 388.9922790527344 203.5695037841797 387.65191650390625 203.19522094726562 C 386.9730529785156 201.8132781982422 387.1813659667969 199.83872985839844 388.1392822265625 197.64654541015625 C 389.22198486328125 195.42584228515625 390.0390930175781 193.3999786376953 390.6471862792969 191.86627197265625 C 391.77850341796875 191.42015075683594 393.2147216796875 191.3372344970703 394.5995788574219 191.6370849609375 C 395.5380859375 191.57933044433594 396.3039245605469 191.5852813720703 397.0973815917969 191.41920471191406 C 397.82672119140625 191.45208740234375 398.35247802734375 191.65077209472656 398.7840270996094 191.54800415039062 C 399.1912841796875 191.3134307861328 399.5647277832031 190.76577758789062 403.9181213378906 190.63015747070312" stroke-width="0.0" fill="rgb(0, 0, 0)" opacity="0.99959326" stroke="rgb(194, 47, 203)" stroke-opacity="0.65427226" stroke-linecap="round" stroke-linejoin="round"/>
    <path d="M 157.46176147460938 103.48262023925781 C 160.8411407470703 102.98920440673828 163.60699462890625 102.30934143066406 165.77072143554688 102.34111022949219 C 167.41326904296875 103.15135192871094 168.5478057861328 104.4168701171875 169.05340576171875 105.91648864746094 C 168.99424743652344 107.40626525878906 168.5403594970703 108.77424621582031 167.87448120117188 110.02738952636719 C 167.00338745117188 111.13398742675781 165.95921325683594 112.27184295654297 164.96466064453125 113.29019927978516 C 164.18341064453125 113.97803497314453 163.4696502685547 114.43820190429688 162.86773681640625 114.76680755615234 C 162.42425537109375 115.03005981445312 162.03973388671875 115.23986053466797 161.5739288330078 115.4110107421875 C 160.9307403564453 115.60370635986328 160.0604705810547 115.8270263671875 158.86480712890625 115.96662139892578 C 157.25608825683594 115.97472381591797 155.36074829101562 115.85144805908203 153.32196044921875 115.6337890625 C 151.25816345214844 115.33686828613281 149.28797912597656 115.00826263427734 147.50245666503906 114.6796646118164 C 145.99053955078125 114.3582992553711 144.8003692626953 114.09068298339844 143.94686889648438 113.91494750976562 C 143.42425537109375 113.82474517822266 143.1466827392578 113.83734130859375 143.0396728515625 113.94103240966797 C 142.99920654296875 114.12388610839844 142.9728546142578 114.37461853027344 142.8766632080078 114.67436218261719 C 142.68299865722656 115.01409912109375 142.3425750732422 115.3416976928711 141.8165740966797 115.6529312133789 C 141.0814666748047 115.90731048583984 140.16014099121094 116.1316146850586 139.0892333984375 116.28604125976562 C 137.894287109375 116.39344024658203 136.6024169921875 116.45509338378906 135.25479125976562 116.48750305175781 C 133.89215087890625 116.5035629272461 132.5633544921875 116.52458953857422 131.30569458007812 116.52618408203125 C 130.13424682617188 116.528076171875 129.0596160888672 116.52864074707031 128.06982421875 116.52579498291016 C 127.15768432617188 116.52155303955078 126.30084228515625 116.51709747314453 125.44583129882812 116.51119232177734 C 124.55335235595703 116.5006103515625 123.6086196899414 116.48492431640625 122.5880126953125 116.46751403808594 C 121.46617126464844 116.4395980834961 120.24490356445312 116.42337799072266 118.93476104736328 116.41007232666016 C 117.59868621826172 116.3861312866211 116.30755615234375 116.36703491210938 115.14156341552734 116.37763214111328 C 114.17142486572266 116.42223358154297 113.43970489501953 116.53553771972656 112.92864990234375 116.74411010742188 C 112.61585235595703 117.03555297851562 112.4323959350586 117.36815643310547 112.30766296386719 117.69126892089844 C 112.20203399658203 117.95174407958984 112.03424072265625 118.1026840209961 111.80298614501953 118.12284851074219 C 111.47032165527344 118.04302215576172 111.1208267211914 117.90892028808594 110.80860900878906 117.77118682861328 C 110.65315246582031 117.7030029296875 110.72148132324219 117.74211883544922 111.00030517578125 117.91871643066406 C 111.49317932128906 118.25113677978516 112.13568878173828 118.74786376953125 112.86000061035156 119.36236572265625 C 113.5956802368164 120.06475830078125 114.31478118896484 120.7423324584961 115.02108001708984 121.31233978271484 C 115.70492553710938 121.73062896728516 116.35395050048828 121.96955871582031 116.97300720214844 122.12369537353516 C 117.57889556884766 122.26670837402344 118.183837890625 122.54595947265625 118.79328918457031 123.13410186767578 C 119.4039077758789 124.12926483154297 119.97692108154297 125.49230194091797 120.49214935302734 127.13568115234375 C 120.87455749511719 128.9470672607422 121.09039306640625 130.77377319335938 121.08277893066406 132.49026489257812 C 120.76358032226562 133.91690063476562 120.19420623779297 134.96969604492188 119.46371459960938 135.6890869140625 C 118.64486694335938 136.06146240234375 117.79188537597656 136.24246215820312 116.89396667480469 136.3651123046875 C 115.92970275878906 136.55795288085938 114.86699676513672 136.87548828125 113.64225006103516 137.3098907470703 C 112.20626831054688 137.81558227539062 110.51238250732422 138.2325439453125 108.60919952392578 138.43690490722656 C 106.52427673339844 138.2628936767578 104.4339370727539 137.73512268066406 102.4870834350586 136.9194793701172 C 100.83631896972656 135.9040985107422 99.5147476196289 134.77230834960938 98.49908447265625 133.6079559326172 C 97.74351501464844 132.4893341064453 97.18160247802734 131.4684295654297 96.71183013916016 130.5864715576172 C 96.30284118652344 129.84349060058594 95.91107177734375 129.20689392089844 95.54873657226562 128.6371612548828 C 95.24761199951172 128.06752014160156 95.05794525146484 127.4232406616211 95.0213623046875 126.63964080810547 C 95.11698150634766 125.6827621459961 95.28141021728516 124.54220581054688 95.49361419677734 123.21552276611328 C 95.68981170654297 121.73927307128906 95.80206298828125 120.18480682373047 95.81505584716797 118.57083129882812 C 95.67182159423828 116.94447326660156 95.39066314697266 115.3659896850586 95.03873443603516 113.86730194091797 C 94.71330261230469 112.47198486328125 94.52017211914062 111.21946716308594 94.58043670654297 110.10664367675781 C 94.96292877197266 109.16814422607422 95.63255310058594 108.36474609375 96.5614013671875 107.67747497558594 C 97.71192169189453 107.06210327148438 98.97129821777344 106.52003479003906 100.29205322265625 106.00698852539062 C 101.61428833007812 105.52621459960938 102.8927993774414 105.07183837890625 104.09397888183594 104.64258575439453 C 105.20374298095703 104.22972869873047 106.21202850341797 103.84532928466797 107.08570861816406 103.54769134521484 C 107.79792785644531 103.38766479492188 108.40585327148438 103.40636444091797 109.0363998413086 103.64803314208984 C 109.84169006347656 104.07534790039062 110.8568115234375 104.53951263427734 111.88116455078125 104.91272735595703 C 112.89332580566406 105.1624526977539 113.9302749633789 105.24944305419922 115.07691192626953 105.22105407714844 C 116.49897003173828 105.13621520996094 118.39866638183594 105.05937957763672 120.97817993164062 105.09439086914062 C 124.07440185546875 105.3167953491211 126.9136734008789 105.8971176147461 128.95474243164062 106.79883575439453 C 130.19833374023438 106.428955078125 131.56918334960938 105.75382995605469 133.46023559570312 106.41493225097656 C 135.52883911132812 106.72833251953125 137.8658905029297 106.6680679321289 140.40603637695312 106.4505844116211 C 143.52157592773438 106.01840209960938 147.1127166748047 105.72608947753906 149.5416717529297 105.68875885009766 C 150.2380828857422 106.4197769165039 150.9978485107422 106.02288055419922 152.50421142578125 105.41029357910156 C 154.51577758789062 104.71260833740234 156.16973876953125 104.43727111816406 157.240234375 104.22620391845703 C 158.49713134765625 103.92298889160156 160.24900817871094 103.55111694335938 157.46176147460938 103.48262023925781" stroke-width="0.0" fill="rgb(248, 187, 110)" opacity="0.99999166" stroke="rgb(238, 122, 150)" stroke-opacity="0.11150897" stroke-linecap="round" stroke-linejoin="round"/>
  </g>
</svg>
