<?xml version="1.0" ?>
<svg xmlns="http://www.w3.org/2000/svg" version="1.1" width="474" height="596">
  <defs/>
  <g>
    <path d="M 266.0 0.0 C 267.0 0.0 268.0 0.0 269.0 0.0 C 270.0 0.0 271.0 0.0 272.0 0.0 C 273.0 0.0 274.0 0.0 275.0 0.0 C 276.0 0.0 277.0 0.0 278.0 0.0 C 279.0 0.0 280.0 0.0 281.0 0.0 C 282.0 0.0 288.0 2.0 296.0 4.0 C 304.0 6.0 312.0 9.0 320.0 12.0 C 328.0 16.0 336.0 20.0 344.0 24.0 C 352.0 29.0 360.0 35.0 368.0 41.0 C 376.0 48.0 384.0 56.0 392.0 64.0 C 399.0 72.0 405.0 80.0 411.0 88.0 C 417.0 96.0 422.0 104.0 427.0 112.0 C 431.0 120.0 432.0 128.0 431.0 136.0 C 426.0 144.0 421.0 152.0 415.0 160.0 C 408.0 168.0 400.0 176.0 392.0 184.0 C 384.0 191.0 376.0 197.0 368.0 203.0 C 360.0 208.0 352.0 213.0 344.0 217.0 C 336.0 220.0 328.0 222.0 320.0 224.0 C 316.0 223.0 324.0 218.0 332.0 212.0 C 340.0 206.0 348.0 198.0 355.0 190.0 C 360.0 182.0 364.0 174.0 367.0 166.0 C 370.0 158.0 371.0 150.0 371.0 142.0 C 370.0 134.0 368.0 126.0 365.0 118.0 C 361.0 110.0 354.0 102.0 346.0 94.0 C 338.0 94.0 330.0 95.0 322.0 96.0 C 314.0 98.0 309.0 98.0 301.0 100.0 C 293.0 102.0 285.0 104.0 277.0 105.0 C 269.0 107.0 261.0 109.0 254.0 103.0 C 246.0 96.0 238.0 91.0 241.0 99.0 C 244.0 107.0 244.0 114.0 236.0 115.0 C 228.0 117.0 220.0 119.0 212.0 121.0 C 204.0 123.0 196.0 126.0 188.0 129.0 C 180.0 132.0 172.0 136.0 165.0 135.0 C 160.0 127.0 157.0 127.0 157.0 135.0 C 156.0 143.0 150.0 149.0 145.0 156.0 C 143.0 164.0 142.0 172.0 143.0 180.0 C 144.0 188.0 147.0 196.0 151.0 204.0 C 157.0 212.0 165.0 219.0 173.0 226.0 C 181.0 231.0 189.0 235.0 197.0 238.0 C 205.0 240.0 213.0 242.0 209.0 243.0 C 201.0 242.0 193.0 239.0 185.0 238.0 C 177.0 239.0 169.0 241.0 162.0 240.0 C 154.0 240.0 146.0 239.0 138.0 239.0 C 130.0 237.0 122.0 236.0 114.0 234.0 C 106.0 231.0 98.0 229.0 90.0 226.0 C 82.0 223.0 74.0 219.0 66.0 215.0 C 58.0 209.0 54.0 201.0 54.0 193.0 C 54.0 185.0 55.0 177.0 57.0 169.0 C 59.0 161.0 60.0 153.0 63.0 145.0 C 65.0 137.0 68.0 129.0 71.0 121.0 C 75.0 113.0 79.0 105.0 83.0 97.0 C 89.0 89.0 94.0 81.0 100.0 73.0 C 107.0 65.0 115.0 57.0 123.0 50.0 C 131.0 43.0 139.0 37.0 147.0 31.0 C 155.0 27.0 163.0 25.0 171.0 24.0 C 179.0 24.0 187.0 25.0 195.0 26.0 C 203.0 28.0 211.0 31.0 214.0 27.0 C 219.0 33.0 221.0 27.0 226.0 27.0 C 234.0 19.0 242.0 12.0 250.0 7.0 C 258.0 3.0 265.0 0.0 266.0 0.0" stroke-width="0.0" fill="rgb(64, 38, 31)" opacity="1.0" stroke="rgb(162, 161, 105)" stroke-opacity="0.7399186" stroke-linecap="round" stroke-linejoin="round"/>
    <path d="M 312.0 225.0 C 313.0 225.0 313.0 226.0 313.0 227.0 C 312.0 227.0 302.0 232.0 292.0 239.0 C 288.0 243.0 305.0 262.0 297.0 259.0 C 276.0 241.0 258.0 246.0 237.0 245.0 C 215.0 246.0 235.0 255.0 242.0 257.0 C 221.0 254.0 214.0 260.0 228.0 259.0 C 237.0 267.0 258.0 260.0 259.0 260.0 C 271.0 273.0 278.0 288.0 291.0 302.0 C 296.0 307.0 304.0 311.0 315.0 331.0 C 321.0 329.0 317.0 307.0 311.0 289.0 C 321.0 309.0 326.0 305.0 321.0 303.0 C 317.0 283.0 310.0 264.0 299.0 250.0 C 303.0 241.0 325.0 246.0 347.0 254.0 C 366.0 267.0 388.0 278.0 410.0 293.0 C 432.0 288.0 416.0 296.0 394.0 285.0 C 372.0 273.0 360.0 287.0 351.0 309.0 C 364.0 321.0 386.0 325.0 407.0 333.0 C 429.0 346.0 444.0 354.0 428.0 350.0 C 407.0 336.0 385.0 328.0 363.0 325.0 C 342.0 324.0 324.0 321.0 322.0 343.0 C 323.0 365.0 315.0 382.0 313.0 404.0 C 309.0 426.0 303.0 448.0 298.0 470.0 C 288.0 488.0 292.0 505.0 300.0 518.0 C 295.0 533.0 278.0 519.0 260.0 529.0 C 245.0 521.0 238.0 536.0 237.0 558.0 C 246.0 576.0 268.0 580.0 290.0 581.0 C 312.0 580.0 334.0 576.0 339.0 556.0 C 338.0 576.0 316.0 583.0 294.0 584.0 C 272.0 582.0 250.0 580.0 234.0 566.0 C 234.0 544.0 234.0 523.0 233.0 509.0 C 241.0 499.0 243.0 477.0 233.0 459.0 C 226.0 468.0 214.0 484.0 210.0 505.0 C 210.0 484.0 198.0 475.0 176.0 473.0 C 169.0 488.0 171.0 508.0 193.0 511.0 C 215.0 509.0 212.0 527.0 214.0 549.0 C 217.0 571.0 205.0 586.0 183.0 588.0 C 162.0 595.0 140.0 595.0 119.0 588.0 C 126.0 568.0 120.0 582.0 140.0 592.0 C 162.0 591.0 184.0 584.0 206.0 582.0 C 213.0 565.0 212.0 543.0 206.0 524.0 C 197.0 530.0 186.0 532.0 186.0 521.0 C 176.0 527.0 163.0 528.0 151.0 518.0 C 165.0 501.0 166.0 479.0 157.0 460.0 C 155.0 438.0 153.0 416.0 148.0 397.0 C 126.0 391.0 115.0 370.0 114.0 348.0 C 97.0 351.0 80.0 361.0 72.0 371.0 C 76.0 359.0 87.0 352.0 109.0 342.0 C 130.0 330.0 125.0 316.0 127.0 311.0 C 120.0 300.0 110.0 284.0 104.0 274.0 C 99.0 282.0 93.0 289.0 104.0 270.0 C 126.0 256.0 148.0 246.0 158.0 246.0 C 166.0 247.0 165.0 255.0 158.0 267.0 C 152.0 282.0 152.0 303.0 148.0 322.0 C 151.0 338.0 158.0 354.0 156.0 376.0 C 165.0 377.0 169.0 373.0 163.0 367.0 C 163.0 347.0 172.0 338.0 176.0 329.0 C 179.0 312.0 193.0 301.0 193.0 288.0 C 196.0 270.0 204.0 256.0 213.0 252.0 C 223.0 243.0 245.0 243.0 267.0 240.0 C 289.0 235.0 311.0 225.0 312.0 225.0" stroke-width="0.0" fill="rgb(232, 106, 162)" opacity="1.0" stroke="rgb(126, 103, 189)" stroke-opacity="0.09370354" stroke-linecap="round" stroke-linejoin="round"/>
    <path d="M 341.0 94.0 C 342.0 94.0 343.0 94.0 344.0 94.0 C 344.0 95.0 345.0 96.0 346.0 96.0 C 346.0 97.0 346.0 98.0 345.0 98.0 C 344.0 99.0 343.0 100.0 343.0 101.0 C 344.0 102.0 345.0 103.0 346.0 103.0 C 347.0 102.0 348.0 101.0 349.0 101.0 C 350.0 101.0 351.0 101.0 351.0 102.0 C 352.0 103.0 353.0 104.0 354.0 105.0 C 355.0 105.0 355.0 106.0 355.0 107.0 C 356.0 108.0 357.0 109.0 361.0 113.0 C 362.0 119.0 364.0 121.0 366.0 126.0 C 367.0 132.0 369.0 137.0 368.0 143.0 C 370.0 148.0 367.0 152.0 367.0 158.0 C 366.0 164.0 364.0 170.0 362.0 175.0 C 358.0 181.0 354.0 183.0 352.0 187.0 C 350.0 191.0 345.0 194.0 344.0 199.0 C 339.0 202.0 336.0 203.0 334.0 209.0 C 328.0 213.0 322.0 216.0 316.0 218.0 C 311.0 223.0 306.0 227.0 300.0 227.0 C 295.0 230.0 289.0 233.0 283.0 233.0 C 281.0 233.0 277.0 235.0 271.0 238.0 C 265.0 238.0 259.0 240.0 253.0 240.0 C 247.0 241.0 241.0 241.0 235.0 242.0 C 229.0 242.0 223.0 241.0 217.0 240.0 C 211.0 241.0 206.0 238.0 201.0 236.0 C 196.0 234.0 191.0 232.0 185.0 231.0 C 183.0 227.0 179.0 225.0 173.0 224.0 C 171.0 219.0 166.0 217.0 162.0 212.0 C 158.0 207.0 155.0 202.0 150.0 198.0 C 148.0 192.0 146.0 186.0 144.0 181.0 C 143.0 176.0 143.0 170.0 144.0 165.0 C 145.0 159.0 149.0 155.0 150.0 150.0 C 155.0 148.0 159.0 144.0 157.0 139.0 C 163.0 139.0 168.0 139.0 174.0 138.0 C 179.0 136.0 184.0 133.0 187.0 133.0 C 193.0 130.0 199.0 127.0 205.0 125.0 C 211.0 124.0 217.0 124.0 221.0 126.0 C 219.0 128.0 224.0 133.0 227.0 139.0 C 228.0 145.0 227.0 151.0 223.0 157.0 C 223.0 160.0 223.0 163.0 229.0 163.0 C 234.0 160.0 237.0 156.0 242.0 157.0 C 243.0 153.0 246.0 155.0 248.0 150.0 C 248.0 144.0 244.0 144.0 245.0 140.0 C 243.0 134.0 238.0 129.0 232.0 126.0 C 228.0 128.0 226.0 125.0 228.0 123.0 C 225.0 120.0 231.0 119.0 236.0 116.0 C 242.0 117.0 247.0 115.0 248.0 109.0 C 245.0 104.0 249.0 101.0 253.0 106.0 C 258.0 110.0 263.0 111.0 268.0 108.0 C 274.0 109.0 280.0 107.0 283.0 107.0 C 288.0 106.0 293.0 103.0 299.0 105.0 C 305.0 102.0 310.0 99.0 308.0 102.0 C 307.0 104.0 313.0 104.0 319.0 105.0 C 325.0 109.0 328.0 115.0 330.0 121.0 C 329.0 127.0 328.0 133.0 332.0 136.0 C 332.0 133.0 335.0 132.0 341.0 133.0 C 344.0 130.0 344.0 127.0 347.0 128.0 C 349.0 122.0 349.0 116.0 347.0 110.0 C 341.0 105.0 336.0 102.0 332.0 100.0 C 335.0 96.0 340.0 94.0 341.0 94.0" stroke-width="0.0" fill="rgb(251, 188, 104)" opacity="1.0" stroke="rgb(97, 91, 66)" stroke-opacity="0.8437071" stroke-linecap="round" stroke-linejoin="round"/>
    <path d="M 170.0 383.0 C 171.0 383.0 172.0 383.0 173.0 383.0 C 174.0 383.0 175.0 383.0 176.0 383.0 C 177.0 383.0 178.0 383.0 179.0 383.0 C 180.0 383.0 181.0 384.0 182.0 385.0 C 183.0 385.0 184.0 385.0 185.0 385.0 C 186.0 385.0 187.0 385.0 188.0 385.0 C 189.0 385.0 190.0 385.0 190.0 386.0 C 191.0 387.0 190.0 388.0 190.0 389.0 C 190.0 390.0 190.0 391.0 190.0 392.0 C 190.0 393.0 190.0 394.0 190.0 395.0 C 190.0 396.0 190.0 397.0 190.0 398.0 C 190.0 399.0 191.0 400.0 192.0 401.0 C 193.0 401.0 194.0 401.0 195.0 401.0 C 196.0 401.0 197.0 401.0 198.0 401.0 C 199.0 400.0 200.0 400.0 201.0 400.0 C 202.0 400.0 203.0 400.0 204.0 400.0 C 205.0 400.0 206.0 400.0 207.0 399.0 C 207.0 398.0 207.0 399.0 207.0 400.0 C 210.0 401.0 214.0 401.0 218.0 401.0 C 222.0 401.0 226.0 400.0 230.0 400.0 C 234.0 400.0 238.0 400.0 241.0 398.0 C 245.0 398.0 249.0 398.0 253.0 398.0 C 257.0 397.0 260.0 396.0 264.0 398.0 C 268.0 398.0 271.0 398.0 273.0 401.0 C 277.0 401.0 281.0 401.0 285.0 401.0 C 287.0 398.0 291.0 400.0 295.0 400.0 C 299.0 400.0 302.0 401.0 302.0 405.0 C 304.0 409.0 302.0 412.0 304.0 415.0 C 302.0 419.0 302.0 423.0 302.0 427.0 C 301.0 430.0 297.0 431.0 293.0 430.0 C 289.0 432.0 287.0 435.0 286.0 439.0 C 286.0 443.0 286.0 447.0 286.0 451.0 C 286.0 455.0 286.0 459.0 285.0 462.0 C 281.0 462.0 277.0 462.0 273.0 462.0 C 269.0 462.0 265.0 462.0 261.0 462.0 C 257.0 462.0 256.0 458.0 256.0 454.0 C 256.0 450.0 257.0 446.0 257.0 442.0 C 256.0 438.0 257.0 434.0 255.0 430.0 C 251.0 431.0 247.0 430.0 243.0 430.0 C 239.0 430.0 235.0 430.0 231.0 430.0 C 227.0 430.0 223.0 432.0 226.0 435.0 C 230.0 435.0 234.0 435.0 238.0 435.0 C 234.0 435.0 230.0 435.0 226.0 435.0 C 223.0 437.0 224.0 441.0 228.0 441.0 C 230.0 441.0 226.0 441.0 222.0 444.0 C 221.0 447.0 217.0 447.0 213.0 447.0 C 209.0 448.0 208.0 451.0 206.0 455.0 C 206.0 459.0 205.0 462.0 201.0 462.0 C 198.0 464.0 195.0 464.0 192.0 463.0 C 188.0 462.0 184.0 462.0 180.0 464.0 C 177.0 463.0 177.0 459.0 177.0 455.0 C 174.0 452.0 170.0 453.0 167.0 455.0 C 166.0 454.0 168.0 451.0 170.0 448.0 C 166.0 446.0 162.0 446.0 161.0 443.0 C 161.0 439.0 161.0 435.0 161.0 431.0 C 161.0 427.0 161.0 423.0 161.0 419.0 C 161.0 415.0 161.0 411.0 159.0 408.0 C 159.0 404.0 159.0 400.0 159.0 396.0 C 159.0 392.0 161.0 388.0 162.0 385.0 C 166.0 385.0 169.0 383.0 170.0 383.0" stroke-width="0.0" fill="rgb(252, 77, 1)" opacity="1.0" stroke="rgb(159, 153, 250)" stroke-opacity="0.4387502" stroke-linecap="round" stroke-linejoin="round"/>
    <path d="M 249.0 375.0 C 250.0 375.0 251.0 375.0 252.0 375.0 C 253.0 375.0 254.0 375.0 255.0 375.0 C 256.0 376.0 257.0 376.0 258.0 376.0 C 259.0 376.0 260.0 376.0 261.0 376.0 C 262.0 376.0 263.0 376.0 264.0 376.0 C 265.0 376.0 271.0 376.0 281.0 376.0 C 289.0 381.0 299.0 379.0 309.0 382.0 C 315.0 383.0 314.0 393.0 313.0 403.0 C 311.0 413.0 309.0 423.0 307.0 433.0 C 304.0 443.0 301.0 453.0 300.0 463.0 C 295.0 471.0 288.0 473.0 281.0 468.0 C 273.0 471.0 266.0 470.0 269.0 473.0 C 279.0 473.0 287.0 477.0 285.0 482.0 C 285.0 488.0 287.0 496.0 283.0 502.0 C 287.0 509.0 291.0 508.0 299.0 508.0 C 304.0 515.0 295.0 518.0 288.0 524.0 C 279.0 528.0 269.0 529.0 259.0 530.0 C 249.0 529.0 242.0 527.0 238.0 536.0 C 238.0 546.0 237.0 556.0 237.0 566.0 C 236.0 574.0 234.0 564.0 233.0 554.0 C 234.0 544.0 235.0 534.0 236.0 524.0 C 227.0 520.0 229.0 511.0 238.0 506.0 C 247.0 507.0 245.0 501.0 242.0 493.0 C 246.0 489.0 243.0 481.0 243.0 471.0 C 234.0 465.0 233.0 455.0 227.0 459.0 C 226.0 469.0 219.0 474.0 214.0 482.0 C 212.0 492.0 211.0 502.0 215.0 509.0 C 220.0 516.0 213.0 523.0 212.0 533.0 C 211.0 539.0 210.0 529.0 207.0 527.0 C 197.0 531.0 189.0 535.0 181.0 535.0 C 174.0 534.0 171.0 526.0 162.0 526.0 C 159.0 536.0 157.0 536.0 160.0 526.0 C 152.0 519.0 156.0 509.0 164.0 508.0 C 173.0 512.0 183.0 512.0 193.0 512.0 C 200.0 511.0 190.0 510.0 180.0 509.0 C 170.0 506.0 165.0 505.0 166.0 495.0 C 166.0 485.0 166.0 475.0 158.0 467.0 C 157.0 457.0 160.0 449.0 167.0 449.0 C 167.0 457.0 175.0 453.0 176.0 463.0 C 185.0 463.0 194.0 465.0 202.0 463.0 C 207.0 457.0 210.0 448.0 220.0 448.0 C 227.0 442.0 227.0 440.0 227.0 436.0 C 237.0 436.0 231.0 434.0 228.0 431.0 C 238.0 431.0 248.0 431.0 256.0 434.0 C 256.0 444.0 255.0 454.0 258.0 463.0 C 268.0 463.0 278.0 463.0 287.0 461.0 C 287.0 451.0 287.0 441.0 290.0 433.0 C 300.0 431.0 305.0 424.0 306.0 417.0 C 303.0 413.0 303.0 404.0 297.0 399.0 C 287.0 397.0 279.0 400.0 271.0 397.0 C 261.0 395.0 252.0 397.0 242.0 397.0 C 233.0 399.0 223.0 400.0 213.0 400.0 C 206.0 399.0 196.0 400.0 191.0 394.0 C 190.0 384.0 180.0 382.0 188.0 381.0 C 198.0 383.0 208.0 385.0 218.0 386.0 C 228.0 387.0 238.0 388.0 248.0 387.0 C 238.0 385.0 228.0 385.0 218.0 384.0 C 208.0 383.0 198.0 381.0 198.0 378.0 C 208.0 377.0 218.0 377.0 228.0 376.0 C 238.0 376.0 248.0 375.0 249.0 375.0" stroke-width="0.0" fill="rgb(249, 204, 90)" opacity="1.0" stroke="rgb(188, 25, 27)" stroke-opacity="0.48296067" stroke-linecap="round" stroke-linejoin="round"/>
    <path d="M 106.0 282.0 C 107.0 282.0 107.0 283.0 108.0 284.0 C 109.0 284.0 109.0 285.0 110.0 286.0 C 110.0 287.0 111.0 288.0 112.0 289.0 C 113.0 289.0 114.0 289.0 114.0 290.0 C 114.0 291.0 115.0 292.0 116.0 292.0 C 117.0 292.0 117.0 293.0 117.0 294.0 C 117.0 295.0 117.0 296.0 118.0 297.0 C 118.0 298.0 119.0 299.0 119.0 300.0 C 119.0 301.0 119.0 303.0 117.0 306.0 C 120.0 309.0 124.0 309.0 124.0 313.0 C 122.0 317.0 123.0 321.0 126.0 323.0 C 129.0 324.0 129.0 328.0 126.0 330.0 C 123.0 333.0 121.0 335.0 119.0 337.0 C 118.0 341.0 117.0 344.0 116.0 348.0 C 116.0 352.0 116.0 356.0 116.0 360.0 C 117.0 364.0 120.0 368.0 124.0 370.0 C 128.0 374.0 132.0 376.0 136.0 377.0 C 140.0 377.0 144.0 377.0 144.0 379.0 C 140.0 379.0 136.0 379.0 132.0 378.0 C 128.0 377.0 124.0 374.0 121.0 370.0 C 117.0 371.0 119.0 375.0 120.0 379.0 C 123.0 383.0 125.0 386.0 128.0 389.0 C 132.0 392.0 136.0 393.0 140.0 394.0 C 144.0 394.0 148.0 394.0 151.0 395.0 C 149.0 397.0 145.0 397.0 141.0 397.0 C 137.0 396.0 133.0 395.0 129.0 394.0 C 125.0 391.0 121.0 387.0 119.0 384.0 C 117.0 380.0 116.0 376.0 115.0 372.0 C 114.0 368.0 114.0 364.0 114.0 360.0 C 113.0 356.0 113.0 352.0 114.0 348.0 C 114.0 344.0 110.0 345.0 106.0 347.0 C 102.0 349.0 98.0 350.0 94.0 353.0 C 90.0 354.0 86.0 355.0 88.0 357.0 C 89.0 361.0 85.0 363.0 82.0 365.0 C 78.0 363.0 74.0 366.0 73.0 370.0 C 71.0 373.0 69.0 376.0 65.0 379.0 C 61.0 382.0 59.0 386.0 59.0 390.0 C 58.0 394.0 58.0 398.0 56.0 402.0 C 53.0 404.0 49.0 403.0 46.0 400.0 C 45.0 396.0 44.0 392.0 43.0 388.0 C 40.0 389.0 38.0 393.0 35.0 397.0 C 31.0 400.0 27.0 401.0 23.0 398.0 C 22.0 395.0 22.0 391.0 18.0 392.0 C 14.0 392.0 10.0 390.0 9.0 386.0 C 10.0 382.0 12.0 378.0 12.0 374.0 C 9.0 377.0 5.0 378.0 1.0 376.0 C 0.0 373.0 0.0 369.0 2.0 366.0 C 5.0 362.0 7.0 358.0 10.0 354.0 C 13.0 350.0 16.0 346.0 20.0 342.0 C 21.0 338.0 19.0 334.0 17.0 330.0 C 17.0 326.0 18.0 322.0 22.0 320.0 C 26.0 320.0 30.0 324.0 34.0 327.0 C 38.0 330.0 42.0 330.0 46.0 329.0 C 46.0 325.0 48.0 321.0 52.0 320.0 C 56.0 320.0 59.0 318.0 62.0 314.0 C 66.0 310.0 70.0 306.0 74.0 302.0 C 78.0 299.0 82.0 295.0 86.0 292.0 C 90.0 289.0 93.0 289.0 96.0 287.0 C 97.0 284.0 100.0 286.0 104.0 289.0 C 106.0 286.0 105.0 282.0 106.0 282.0" stroke-width="0.0" fill="rgb(248, 188, 113)" opacity="1.0" stroke="rgb(181, 41, 85)" stroke-opacity="0.30854443" stroke-linecap="round" stroke-linejoin="round"/>
    <path d="M 184.0 237.0 C 185.0 237.0 186.0 237.0 187.0 238.0 C 188.0 238.0 189.0 238.0 190.0 239.0 C 191.0 239.0 192.0 240.0 195.0 241.0 C 205.0 243.0 213.0 248.0 208.0 255.0 C 200.0 252.0 200.0 262.0 195.0 270.0 C 194.0 280.0 191.0 287.0 192.0 295.0 C 189.0 302.0 182.0 307.0 175.0 313.0 C 171.0 322.0 169.0 326.0 168.0 335.0 C 164.0 344.0 159.0 353.0 152.0 359.0 C 152.0 369.0 152.0 379.0 150.0 387.0 C 154.0 394.0 157.0 384.0 165.0 380.0 C 175.0 378.0 183.0 379.0 193.0 379.0 C 202.0 382.0 212.0 384.0 222.0 386.0 C 232.0 386.0 242.0 387.0 251.0 385.0 C 261.0 386.0 271.0 384.0 281.0 381.0 C 288.0 377.0 294.0 378.0 303.0 376.0 C 312.0 378.0 321.0 377.0 318.0 381.0 C 315.0 390.0 314.0 400.0 312.0 410.0 C 310.0 420.0 307.0 430.0 304.0 440.0 C 303.0 450.0 301.0 460.0 298.0 470.0 C 290.0 477.0 288.0 487.0 287.0 497.0 C 290.0 505.0 300.0 507.0 304.0 516.0 C 294.0 519.0 294.0 529.0 303.0 535.0 C 313.0 540.0 323.0 545.0 333.0 550.0 C 341.0 558.0 342.0 568.0 337.0 577.0 C 327.0 581.0 317.0 583.0 307.0 584.0 C 297.0 584.0 287.0 584.0 277.0 583.0 C 267.0 582.0 257.0 581.0 247.0 580.0 C 237.0 575.0 233.0 565.0 233.0 555.0 C 234.0 545.0 235.0 535.0 236.0 525.0 C 227.0 521.0 228.0 511.0 237.0 506.0 C 241.0 497.0 242.0 487.0 242.0 477.0 C 239.0 468.0 233.0 461.0 228.0 455.0 C 227.0 465.0 223.0 473.0 215.0 479.0 C 213.0 489.0 212.0 499.0 213.0 508.0 C 220.0 515.0 215.0 523.0 213.0 531.0 C 214.0 541.0 215.0 551.0 216.0 561.0 C 217.0 571.0 216.0 581.0 207.0 586.0 C 197.0 587.0 187.0 587.0 177.0 590.0 C 167.0 593.0 158.0 595.0 148.0 595.0 C 138.0 595.0 129.0 593.0 119.0 589.0 C 117.0 579.0 123.0 569.0 133.0 562.0 C 141.0 554.0 149.0 547.0 156.0 537.0 C 159.0 527.0 151.0 519.0 155.0 509.0 C 165.0 503.0 166.0 493.0 166.0 483.0 C 164.0 473.0 158.0 465.0 157.0 455.0 C 156.0 445.0 155.0 435.0 154.0 425.0 C 153.0 415.0 152.0 405.0 150.0 397.0 C 140.0 397.0 130.0 394.0 121.0 387.0 C 116.0 377.0 114.0 367.0 113.0 357.0 C 114.0 347.0 107.0 347.0 97.0 351.0 C 87.0 356.0 90.0 351.0 100.0 346.0 C 110.0 341.0 118.0 340.0 123.0 339.0 C 127.0 332.0 134.0 334.0 144.0 329.0 C 149.0 332.0 151.0 322.0 151.0 312.0 C 153.0 302.0 155.0 293.0 154.0 283.0 C 153.0 273.0 159.0 267.0 160.0 257.0 C 167.0 252.0 173.0 245.0 166.0 246.0 C 157.0 249.0 163.0 246.0 163.0 240.0 C 173.0 239.0 183.0 237.0 184.0 237.0" stroke-width="0.0" fill="rgb(178, 139, 180)" opacity="1.0" stroke="rgb(94, 169, 35)" stroke-opacity="0.09627375" stroke-linecap="round" stroke-linejoin="round"/>
    <path d="M 117.0 364.0 C 119.0 369.0 118.0 374.0 120.0 380.0 C 123.0 386.0 128.0 389.0 134.0 392.0 C 140.0 394.0 146.0 394.0 151.0 392.0 C 151.0 386.0 156.0 383.0 153.0 378.0 C 152.0 372.0 155.0 370.0 155.0 376.0 C 157.0 382.0 163.0 381.0 169.0 379.0 C 175.0 378.0 181.0 377.0 187.0 376.0 C 193.0 376.0 195.0 381.0 201.0 382.0 C 207.0 383.0 213.0 384.0 219.0 385.0 C 225.0 386.0 231.0 386.0 237.0 386.0 C 243.0 387.0 249.0 387.0 254.0 385.0 C 260.0 386.0 266.0 385.0 272.0 384.0 C 278.0 383.0 284.0 381.0 288.0 378.0 C 288.0 375.0 292.0 378.0 298.0 377.0 C 303.0 376.0 309.0 376.0 315.0 377.0 C 321.0 376.0 321.0 370.0 323.0 372.0 C 323.0 378.0 318.0 380.0 315.0 384.0 C 315.0 390.0 314.0 396.0 313.0 402.0 C 312.0 408.0 311.0 414.0 310.0 420.0 C 308.0 426.0 307.0 432.0 306.0 438.0 C 304.0 444.0 302.0 450.0 301.0 456.0 C 300.0 462.0 299.0 468.0 294.0 472.0 C 290.0 476.0 289.0 482.0 288.0 488.0 C 287.0 494.0 287.0 500.0 288.0 505.0 C 294.0 505.0 300.0 507.0 305.0 512.0 C 302.0 518.0 296.0 518.0 291.0 522.0 C 292.0 528.0 293.0 532.0 290.0 528.0 C 287.0 522.0 291.0 518.0 296.0 516.0 C 300.0 512.0 296.0 508.0 290.0 507.0 C 284.0 508.0 284.0 502.0 285.0 496.0 C 285.0 490.0 286.0 484.0 287.0 478.0 C 285.0 472.0 279.0 472.0 273.0 472.0 C 267.0 472.0 261.0 471.0 255.0 471.0 C 249.0 470.0 246.0 474.0 246.0 480.0 C 245.0 486.0 245.0 492.0 244.0 498.0 C 244.0 504.0 248.0 507.0 243.0 507.0 C 239.0 505.0 241.0 499.0 242.0 493.0 C 243.0 487.0 243.0 481.0 243.0 475.0 C 242.0 469.0 236.0 467.0 233.0 462.0 C 232.0 456.0 227.0 455.0 227.0 461.0 C 226.0 467.0 224.0 473.0 219.0 474.0 C 215.0 479.0 214.0 485.0 213.0 491.0 C 212.0 497.0 211.0 503.0 209.0 503.0 C 209.0 497.0 209.0 491.0 210.0 485.0 C 211.0 479.0 207.0 476.0 201.0 475.0 C 195.0 476.0 189.0 475.0 183.0 474.0 C 177.0 475.0 172.0 473.0 169.0 478.0 C 169.0 484.0 169.0 490.0 168.0 496.0 C 168.0 502.0 167.0 507.0 161.0 509.0 C 157.0 508.0 162.0 506.0 165.0 501.0 C 166.0 495.0 166.0 489.0 166.0 483.0 C 166.0 477.0 163.0 472.0 158.0 467.0 C 158.0 461.0 157.0 455.0 156.0 449.0 C 156.0 443.0 155.0 437.0 155.0 431.0 C 154.0 425.0 153.0 419.0 153.0 413.0 C 153.0 407.0 153.0 401.0 153.0 395.0 C 151.0 394.0 149.0 398.0 143.0 397.0 C 137.0 396.0 131.0 394.0 125.0 390.0 C 122.0 386.0 118.0 381.0 116.0 375.0 C 115.0 369.0 115.0 363.0 117.0 364.0" stroke-width="0.0" fill="rgb(241, 78, 9)" opacity="1.0" stroke="rgb(24, 147, 191)" stroke-opacity="0.865328" stroke-linecap="round" stroke-linejoin="round"/>
    <path d="M 375.0 285.0 C 376.0 285.0 377.0 285.0 378.0 286.0 C 379.0 286.0 380.0 286.0 381.0 286.0 C 382.0 286.0 382.0 287.0 382.0 288.0 C 383.0 289.0 383.0 290.0 383.0 291.0 C 383.0 292.0 383.0 293.0 383.0 294.0 C 383.0 295.0 383.0 296.0 383.0 297.0 C 383.0 298.0 383.0 299.0 383.0 300.0 C 383.0 301.0 383.0 302.0 383.0 303.0 C 384.0 304.0 385.0 304.0 386.0 305.0 C 387.0 305.0 388.0 305.0 389.0 305.0 C 390.0 305.0 391.0 305.0 392.0 305.0 C 393.0 305.0 394.0 305.0 395.0 305.0 C 396.0 305.0 397.0 305.0 398.0 305.0 C 399.0 304.0 400.0 303.0 401.0 302.0 C 402.0 302.0 403.0 302.0 403.0 303.0 C 403.0 304.0 402.0 305.0 401.0 306.0 C 400.0 307.0 399.0 308.0 398.0 309.0 C 398.0 310.0 398.0 311.0 398.0 312.0 C 398.0 313.0 398.0 314.0 398.0 315.0 C 398.0 316.0 398.0 317.0 398.0 318.0 C 397.0 318.0 396.0 318.0 395.0 318.0 C 394.0 318.0 393.0 319.0 392.0 319.0 C 391.0 319.0 390.0 319.0 389.0 320.0 C 388.0 320.0 387.0 320.0 386.0 320.0 C 385.0 320.0 384.0 320.0 384.0 319.0 C 383.0 318.0 382.0 318.0 381.0 318.0 C 380.0 318.0 379.0 318.0 378.0 318.0 C 377.0 319.0 376.0 319.0 375.0 319.0 C 374.0 319.0 373.0 318.0 372.0 318.0 C 371.0 318.0 370.0 318.0 369.0 318.0 C 369.0 317.0 369.0 316.0 369.0 315.0 C 368.0 314.0 367.0 313.0 366.0 313.0 C 367.0 313.0 368.0 313.0 369.0 312.0 C 369.0 311.0 369.0 310.0 369.0 309.0 C 369.0 308.0 369.0 307.0 369.0 306.0 C 368.0 305.0 367.0 305.0 366.0 305.0 C 366.0 304.0 367.0 303.0 368.0 302.0 C 368.0 301.0 369.0 300.0 369.0 299.0 C 369.0 298.0 369.0 297.0 369.0 296.0 C 369.0 295.0 369.0 294.0 369.0 293.0 C 369.0 292.0 369.0 291.0 369.0 290.0 C 369.0 289.0 370.0 289.0 371.0 289.0 C 372.0 289.0 373.0 289.0 374.0 289.0 C 375.0 289.0 376.0 289.0 377.0 288.0 C 377.0 287.0 377.0 286.0 376.0 285.0 C 375.0 285.0 374.0 285.0 375.0 285.0" stroke-width="0.0" fill="rgb(253, 189, 101)" opacity="1.0" stroke="rgb(174, 69, 160)" stroke-opacity="0.13553599" stroke-linecap="round" stroke-linejoin="round"/>
    <path d="M 321.0 217.0 C 322.0 217.0 322.0 218.0 322.0 219.0 C 321.0 219.0 320.0 220.0 319.0 220.0 C 318.0 221.0 317.0 221.0 316.0 222.0 C 314.0 224.0 310.0 229.0 303.0 232.0 C 296.0 235.0 289.0 237.0 288.0 239.0 C 292.0 243.0 295.0 247.0 297.0 252.0 C 302.0 259.0 307.0 259.0 305.0 264.0 C 311.0 266.0 313.0 273.0 317.0 279.0 C 316.0 285.0 313.0 291.0 315.0 297.0 C 319.0 296.0 317.0 301.0 323.0 304.0 C 323.0 308.0 323.0 312.0 324.0 315.0 C 331.0 319.0 338.0 321.0 344.0 317.0 C 349.0 311.0 351.0 307.0 354.0 301.0 C 351.0 296.0 353.0 289.0 357.0 292.0 C 361.0 287.0 360.0 281.0 362.0 274.0 C 363.0 267.0 358.0 262.0 353.0 263.0 C 346.0 262.0 346.0 258.0 341.0 254.0 C 335.0 254.0 331.0 254.0 328.0 252.0 C 331.0 250.0 324.0 248.0 317.0 247.0 C 312.0 248.0 312.0 243.0 318.0 243.0 C 325.0 245.0 332.0 247.0 339.0 250.0 C 346.0 253.0 353.0 256.0 360.0 260.0 C 366.0 264.0 371.0 269.0 378.0 272.0 C 385.0 275.0 392.0 280.0 399.0 284.0 C 406.0 289.0 413.0 294.0 420.0 292.0 C 427.0 289.0 434.0 286.0 441.0 279.0 C 448.0 280.0 450.0 287.0 448.0 294.0 C 449.0 299.0 456.0 302.0 463.0 306.0 C 470.0 311.0 473.0 317.0 470.0 323.0 C 463.0 324.0 464.0 328.0 468.0 335.0 C 462.0 340.0 460.0 346.0 453.0 347.0 C 446.0 346.0 442.0 347.0 445.0 354.0 C 442.0 360.0 435.0 359.0 429.0 352.0 C 424.0 345.0 417.0 343.0 410.0 339.0 C 404.0 334.0 397.0 330.0 390.0 329.0 C 383.0 328.0 376.0 328.0 369.0 326.0 C 362.0 325.0 355.0 324.0 348.0 322.0 C 342.0 324.0 337.0 325.0 330.0 322.0 C 324.0 321.0 324.0 328.0 324.0 335.0 C 323.0 342.0 322.0 349.0 323.0 356.0 C 323.0 363.0 320.0 360.0 319.0 353.0 C 317.0 346.0 315.0 339.0 311.0 338.0 C 313.0 333.0 311.0 326.0 306.0 328.0 C 306.0 321.0 306.0 315.0 300.0 311.0 C 297.0 306.0 294.0 301.0 290.0 302.0 C 285.0 299.0 279.0 294.0 279.0 287.0 C 277.0 280.0 275.0 275.0 273.0 269.0 C 268.0 263.0 262.0 262.0 266.0 256.0 C 262.0 254.0 260.0 259.0 256.0 259.0 C 249.0 263.0 243.0 265.0 238.0 268.0 C 233.0 266.0 231.0 260.0 236.0 258.0 C 243.0 258.0 243.0 255.0 236.0 256.0 C 230.0 255.0 225.0 256.0 223.0 262.0 C 217.0 260.0 220.0 255.0 217.0 251.0 C 215.0 244.0 219.0 241.0 226.0 243.0 C 233.0 242.0 240.0 242.0 247.0 242.0 C 254.0 241.0 261.0 240.0 268.0 239.0 C 275.0 237.0 282.0 236.0 288.0 234.0 C 295.0 231.0 301.0 228.0 308.0 226.0 C 313.0 221.0 320.0 217.0 321.0 217.0" stroke-width="0.0" fill="rgb(247, 186, 111)" opacity="1.0" stroke="rgb(21, 117, 89)" stroke-opacity="0.871982" stroke-linecap="round" stroke-linejoin="round"/>
    <path d="M 136.0 336.0 C 137.0 336.0 138.0 336.0 139.0 336.0 C 140.0 337.0 141.0 337.0 142.0 337.0 C 142.0 338.0 142.0 339.0 142.0 340.0 C 142.0 341.0 142.0 342.0 142.0 343.0 C 142.0 344.0 142.0 345.0 142.0 346.0 C 142.0 347.0 142.0 348.0 142.0 349.0 C 142.0 350.0 142.0 351.0 142.0 352.0 C 142.0 353.0 142.0 354.0 142.0 355.0 C 142.0 356.0 142.0 357.0 142.0 358.0 C 142.0 359.0 142.0 360.0 142.0 361.0 C 142.0 362.0 142.0 363.0 142.0 364.0 C 142.0 365.0 142.0 366.0 141.0 366.0 C 140.0 366.0 139.0 366.0 138.0 366.0 C 137.0 366.0 136.0 366.0 135.0 366.0 C 134.0 366.0 133.0 366.0 132.0 366.0 C 131.0 366.0 130.0 366.0 129.0 366.0 C 128.0 366.0 127.0 365.0 127.0 364.0 C 127.0 363.0 126.0 362.0 127.0 362.0 C 128.0 361.0 128.0 360.0 128.0 359.0 C 128.0 358.0 128.0 357.0 128.0 356.0 C 128.0 355.0 128.0 354.0 128.0 353.0 C 128.0 352.0 129.0 351.0 129.0 350.0 C 129.0 349.0 129.0 348.0 129.0 347.0 C 129.0 346.0 129.0 345.0 129.0 344.0 C 129.0 343.0 129.0 342.0 129.0 341.0 C 129.0 340.0 129.0 339.0 129.0 338.0 C 129.0 337.0 130.0 337.0 131.0 337.0 C 132.0 337.0 133.0 336.0 136.0 336.0" stroke-width="0.0" fill="rgb(147, 116, 173)" opacity="1.0" stroke="rgb(185, 133, 7)" stroke-opacity="0.6472959" stroke-linecap="round" stroke-linejoin="round"/>
    <path d="M 103.0 208.0 C 104.0 208.0 105.0 209.0 106.0 209.0 C 107.0 209.0 108.0 209.0 109.0 208.0 C 110.0 208.0 111.0 208.0 112.0 209.0 C 113.0 209.0 114.0 208.0 115.0 208.0 C 116.0 208.0 117.0 208.0 118.0 209.0 C 119.0 209.0 119.0 210.0 120.0 211.0 C 121.0 211.0 121.0 212.0 121.0 213.0 C 121.0 214.0 122.0 215.0 123.0 215.0 C 124.0 215.0 125.0 215.0 126.0 215.0 C 127.0 215.0 127.0 216.0 127.0 217.0 C 127.0 218.0 127.0 219.0 127.0 220.0 C 127.0 221.0 127.0 222.0 127.0 223.0 C 126.0 223.0 125.0 223.0 124.0 223.0 C 123.0 223.0 122.0 223.0 121.0 223.0 C 120.0 222.0 119.0 222.0 118.0 222.0 C 117.0 222.0 116.0 222.0 115.0 222.0 C 114.0 222.0 113.0 222.0 112.0 222.0 C 111.0 222.0 110.0 222.0 109.0 222.0 C 108.0 222.0 107.0 222.0 106.0 222.0 C 105.0 222.0 104.0 222.0 103.0 222.0 C 102.0 222.0 101.0 222.0 100.0 222.0 C 99.0 222.0 98.0 222.0 97.0 222.0 C 97.0 221.0 96.0 220.0 96.0 219.0 C 96.0 218.0 96.0 217.0 96.0 216.0 C 96.0 215.0 97.0 214.0 97.0 213.0 C 97.0 212.0 97.0 211.0 97.0 210.0 C 97.0 209.0 98.0 209.0 99.0 209.0 C 100.0 209.0 101.0 208.0 103.0 208.0" stroke-width="0.0" fill="rgb(1, 1, 1)" opacity="1.0" stroke="rgb(167, 67, 97)" stroke-opacity="0.013815619" stroke-linecap="round" stroke-linejoin="round"/>
    <path d="M 204.0 138.0 C 205.0 138.0 205.0 139.0 205.0 140.0 C 205.0 141.0 206.0 142.0 207.0 143.0 C 208.0 144.0 209.0 145.0 210.0 145.0 C 211.0 145.0 212.0 145.0 212.0 146.0 C 212.0 147.0 211.0 148.0 210.0 149.0 C 209.0 149.0 208.0 150.0 207.0 150.0 C 206.0 150.0 205.0 150.0 204.0 150.0 C 203.0 150.0 202.0 150.0 201.0 149.0 C 200.0 148.0 200.0 147.0 199.0 146.0 C 199.0 145.0 199.0 144.0 199.0 143.0 C 200.0 143.0 201.0 143.0 202.0 143.0 C 203.0 142.0 202.0 141.0 202.0 140.0 C 202.0 139.0 203.0 138.0 204.0 138.0" stroke-width="0.0" fill="rgb(1, 2, 3)" opacity="1.0" stroke="rgb(238, 208, 185)" stroke-opacity="0.5529828" stroke-linecap="round" stroke-linejoin="round"/>
    <path d="M 308.0 117.0 C 308.0 118.0 308.0 119.0 308.0 120.0 C 307.0 120.0 306.0 121.0 307.0 122.0 C 308.0 122.0 309.0 122.0 310.0 122.0 C 311.0 123.0 312.0 123.0 313.0 123.0 C 314.0 123.0 315.0 123.0 315.0 124.0 C 315.0 125.0 314.0 126.0 314.0 127.0 C 313.0 127.0 312.0 128.0 311.0 128.0 C 310.0 128.0 309.0 128.0 308.0 128.0 C 307.0 128.0 306.0 127.0 305.0 127.0 C 304.0 126.0 304.0 125.0 303.0 124.0 C 303.0 123.0 303.0 122.0 304.0 121.0 C 304.0 120.0 304.0 119.0 305.0 119.0 C 306.0 118.0 306.0 117.0 308.0 117.0" stroke-width="0.0" fill="rgb(11, 0, 3)" opacity="1.0" stroke="rgb(93, 213, 150)" stroke-opacity="0.23503567" stroke-linecap="round" stroke-linejoin="round"/>
    <path d="M 312.0 225.0 C 313.0 225.0 314.0 225.0 314.0 226.0 C 297.0 235.0 303.0 241.0 293.0 248.0 C 307.0 260.0 316.0 278.0 317.0 297.0 C 322.0 309.0 340.0 320.0 351.0 304.0 C 354.0 318.0 380.0 324.0 405.0 331.0 C 429.0 345.0 439.0 347.0 454.0 344.0 C 458.0 326.0 460.0 320.0 458.0 307.0 C 446.0 292.0 447.0 279.0 453.0 301.0 C 473.0 319.0 468.0 335.0 448.0 346.0 C 438.0 361.0 415.0 342.0 390.0 329.0 C 364.0 326.0 340.0 326.0 324.0 329.0 C 323.0 355.0 322.0 380.0 314.0 401.0 C 309.0 427.0 302.0 453.0 290.0 475.0 C 287.0 501.0 304.0 515.0 298.0 532.0 C 323.0 546.0 343.0 564.0 326.0 581.0 C 300.0 584.0 274.0 583.0 248.0 580.0 C 233.0 560.0 235.0 534.0 226.0 513.0 C 242.0 493.0 238.0 468.0 227.0 462.0 C 215.0 483.0 213.0 508.0 212.0 527.0 C 215.0 553.0 216.0 579.0 193.0 586.0 C 167.0 593.0 142.0 595.0 118.0 588.0 C 130.0 565.0 150.0 546.0 152.0 550.0 C 131.0 567.0 134.0 581.0 154.0 582.0 C 175.0 576.0 193.0 577.0 213.0 566.0 C 211.0 540.0 193.0 535.0 170.0 533.0 C 159.0 525.0 161.0 506.0 166.0 481.0 C 157.0 458.0 154.0 432.0 153.0 406.0 C 133.0 395.0 116.0 376.0 114.0 350.0 C 93.0 353.0 81.0 357.0 73.0 371.0 C 59.0 395.0 44.0 395.0 29.0 401.0 C 10.0 390.0 0.0 375.0 13.0 350.0 C 16.0 324.0 41.0 330.0 60.0 317.0 C 83.0 294.0 67.0 313.0 48.0 326.0 C 51.0 333.0 26.0 323.0 27.0 344.0 C 5.0 365.0 17.0 365.0 12.0 384.0 C 27.0 383.0 36.0 389.0 48.0 398.0 C 57.0 381.0 76.0 359.0 73.0 351.0 C 84.0 349.0 109.0 342.0 126.0 322.0 C 142.0 326.0 153.0 325.0 142.0 331.0 C 126.0 340.0 124.0 363.0 137.0 367.0 C 147.0 354.0 159.0 366.0 155.0 365.0 C 157.0 390.0 156.0 416.0 158.0 442.0 C 165.0 468.0 191.0 473.0 217.0 471.0 C 228.0 448.0 240.0 465.0 256.0 472.0 C 246.0 490.0 247.0 508.0 232.0 520.0 C 254.0 528.0 274.0 524.0 257.0 518.0 C 243.0 519.0 240.0 510.0 254.0 511.0 C 268.0 516.0 292.0 510.0 299.0 514.0 C 282.0 505.0 286.0 479.0 266.0 472.0 C 286.0 470.0 299.0 450.0 305.0 424.0 C 311.0 398.0 301.0 378.0 275.0 386.0 C 277.0 383.0 274.0 377.0 248.0 376.0 C 222.0 377.0 196.0 378.0 173.0 380.0 C 195.0 375.0 211.0 372.0 219.0 370.0 C 244.0 373.0 269.0 372.0 281.0 372.0 C 300.0 374.0 321.0 372.0 317.0 346.0 C 310.0 326.0 299.0 311.0 286.0 299.0 C 274.0 278.0 262.0 260.0 239.0 265.0 C 238.0 258.0 248.0 252.0 260.0 241.0 C 286.0 236.0 311.0 225.0 312.0 225.0" stroke-width="0.0" fill="rgb(168, 116, 163)" opacity="1.0" stroke="rgb(158, 130, 88)" stroke-opacity="0.87396145" stroke-linecap="round" stroke-linejoin="round"/>
    <path d="M 312.0 104.0 C 313.0 104.0 314.0 104.0 314.0 105.0 C 314.0 106.0 313.0 107.0 314.0 108.0 C 315.0 108.0 316.0 108.0 317.0 108.0 C 318.0 108.0 318.0 109.0 319.0 110.0 C 320.0 110.0 321.0 110.0 322.0 110.0 C 322.0 111.0 323.0 112.0 324.0 111.0 C 325.0 111.0 326.0 111.0 327.0 112.0 C 327.0 113.0 328.0 114.0 328.0 115.0 C 328.0 116.0 329.0 117.0 329.0 118.0 C 329.0 119.0 329.0 120.0 329.0 121.0 C 329.0 122.0 329.0 123.0 329.0 124.0 C 329.0 125.0 329.0 126.0 329.0 127.0 C 329.0 128.0 328.0 127.0 327.0 127.0 C 326.0 127.0 325.0 128.0 325.0 129.0 C 324.0 129.0 323.0 130.0 323.0 131.0 C 324.0 132.0 324.0 133.0 324.0 134.0 C 325.0 135.0 326.0 135.0 325.0 135.0 C 324.0 135.0 323.0 136.0 322.0 136.0 C 321.0 136.0 320.0 136.0 319.0 137.0 C 318.0 137.0 317.0 138.0 316.0 138.0 C 315.0 138.0 314.0 138.0 313.0 138.0 C 313.0 137.0 313.0 136.0 313.0 135.0 C 312.0 134.0 311.0 135.0 311.0 136.0 C 311.0 137.0 311.0 138.0 311.0 139.0 C 311.0 140.0 310.0 140.0 309.0 140.0 C 308.0 140.0 307.0 141.0 306.0 141.0 C 305.0 141.0 304.0 142.0 303.0 142.0 C 302.0 142.0 301.0 142.0 300.0 142.0 C 300.0 141.0 300.0 140.0 300.0 139.0 C 301.0 139.0 302.0 139.0 303.0 138.0 C 303.0 137.0 302.0 136.0 301.0 136.0 C 300.0 136.0 299.0 136.0 299.0 135.0 C 299.0 134.0 299.0 133.0 298.0 132.0 C 297.0 133.0 297.0 134.0 296.0 134.0 C 295.0 134.0 295.0 133.0 294.0 132.0 C 294.0 131.0 294.0 130.0 295.0 130.0 C 296.0 129.0 295.0 128.0 294.0 128.0 C 293.0 128.0 292.0 127.0 292.0 126.0 C 292.0 125.0 292.0 124.0 292.0 123.0 C 292.0 122.0 292.0 121.0 292.0 120.0 C 292.0 119.0 293.0 119.0 294.0 119.0 C 295.0 119.0 296.0 118.0 295.0 117.0 C 295.0 116.0 294.0 115.0 293.0 115.0 C 293.0 114.0 294.0 113.0 294.0 112.0 C 295.0 111.0 295.0 110.0 296.0 110.0 C 297.0 111.0 298.0 112.0 299.0 112.0 C 300.0 112.0 301.0 112.0 302.0 112.0 C 303.0 113.0 303.0 115.0 303.0 117.0 C 303.0 119.0 303.0 121.0 302.0 123.0 C 302.0 125.0 301.0 127.0 303.0 128.0 C 304.0 130.0 306.0 129.0 308.0 129.0 C 310.0 129.0 311.0 131.0 313.0 131.0 C 315.0 130.0 317.0 131.0 319.0 130.0 C 321.0 130.0 323.0 129.0 322.0 127.0 C 320.0 128.0 319.0 127.0 318.0 125.0 C 319.0 123.0 319.0 121.0 320.0 119.0 C 319.0 117.0 320.0 115.0 318.0 114.0 C 317.0 112.0 315.0 111.0 313.0 112.0 C 311.0 112.0 311.0 110.0 311.0 108.0 C 311.0 106.0 311.0 104.0 312.0 104.0" stroke-width="0.0" fill="rgb(145, 70, 24)" opacity="1.0" stroke="rgb(146, 99, 157)" stroke-opacity="0.15249112" stroke-linecap="round" stroke-linejoin="round"/>
    <path d="M 199.0 129.0 C 200.0 130.0 201.0 130.0 202.0 130.0 C 203.0 130.0 202.0 130.0 201.0 131.0 C 201.0 132.0 201.0 133.0 201.0 134.0 C 202.0 135.0 203.0 135.0 204.0 135.0 C 205.0 135.0 206.0 134.0 206.0 133.0 C 207.0 133.0 207.0 134.0 207.0 135.0 C 207.0 136.0 207.0 137.0 206.0 137.0 C 205.0 137.0 205.0 136.0 204.0 135.0 C 203.0 136.0 203.0 137.0 202.0 138.0 C 201.0 139.0 200.0 139.0 199.0 139.0 C 198.0 140.0 198.0 141.0 198.0 142.0 C 198.0 143.0 198.0 144.0 198.0 145.0 C 198.0 146.0 199.0 147.0 199.0 148.0 C 200.0 149.0 201.0 150.0 200.0 151.0 C 199.0 152.0 198.0 153.0 198.0 154.0 C 198.0 155.0 199.0 156.0 199.0 157.0 C 199.0 158.0 198.0 158.0 197.0 158.0 C 196.0 159.0 196.0 160.0 196.0 161.0 C 195.0 161.0 194.0 160.0 193.0 159.0 C 192.0 158.0 191.0 157.0 192.0 157.0 C 193.0 156.0 193.0 155.0 193.0 154.0 C 192.0 153.0 191.0 153.0 190.0 153.0 C 189.0 154.0 189.0 153.0 188.0 152.0 C 188.0 151.0 188.0 150.0 187.0 149.0 C 187.0 148.0 187.0 147.0 188.0 147.0 C 189.0 147.0 190.0 146.0 189.0 145.0 C 188.0 145.0 187.0 145.0 187.0 144.0 C 187.0 143.0 187.0 144.0 188.0 145.0 C 189.0 145.0 190.0 145.0 191.0 144.0 C 191.0 143.0 191.0 142.0 191.0 141.0 C 190.0 140.0 189.0 140.0 188.0 140.0 C 189.0 140.0 190.0 139.0 191.0 138.0 C 192.0 137.0 192.0 136.0 192.0 135.0 C 191.0 134.0 190.0 134.0 191.0 133.0 C 192.0 132.0 193.0 131.0 194.0 131.0 C 195.0 131.0 196.0 130.0 196.0 129.0 C 197.0 129.0 198.0 128.0 199.0 129.0" stroke-width="0.0" fill="rgb(148, 68, 21)" opacity="1.0" stroke="rgb(74, 61, 3)" stroke-opacity="0.7772237" stroke-linecap="round" stroke-linejoin="round"/>
    <path d="M 204.0 576.0 C 205.0 576.0 206.0 576.0 207.0 576.0 C 208.0 576.0 208.0 577.0 208.0 578.0 C 208.0 579.0 208.0 580.0 208.0 581.0 C 208.0 582.0 207.0 581.0 206.0 581.0 C 205.0 581.0 204.0 581.0 203.0 581.0 C 202.0 581.0 201.0 582.0 201.0 583.0 C 200.0 582.0 199.0 582.0 198.0 582.0 C 197.0 582.0 196.0 582.0 195.0 582.0 C 194.0 582.0 193.0 582.0 192.0 582.0 C 191.0 582.0 190.0 582.0 189.0 582.0 C 188.0 582.0 187.0 583.0 186.0 583.0 C 185.0 583.0 184.0 583.0 183.0 583.0 C 182.0 584.0 181.0 584.0 180.0 584.0 C 179.0 584.0 178.0 585.0 177.0 585.0 C 176.0 585.0 175.0 585.0 174.0 586.0 C 173.0 586.0 172.0 586.0 171.0 587.0 C 170.0 587.0 169.0 587.0 168.0 588.0 C 167.0 588.0 166.0 588.0 165.0 589.0 C 164.0 589.0 163.0 589.0 163.0 588.0 C 162.0 587.0 161.0 588.0 161.0 589.0 C 160.0 590.0 159.0 590.0 158.0 590.0 C 157.0 590.0 156.0 590.0 155.0 590.0 C 154.0 591.0 153.0 591.0 152.0 591.0 C 151.0 591.0 150.0 592.0 149.0 592.0 C 148.0 591.0 147.0 591.0 146.0 591.0 C 145.0 591.0 144.0 591.0 143.0 591.0 C 142.0 591.0 141.0 591.0 140.0 591.0 C 139.0 592.0 138.0 591.0 137.0 591.0 C 136.0 591.0 135.0 590.0 134.0 590.0 C 133.0 590.0 132.0 590.0 131.0 590.0 C 130.0 589.0 129.0 589.0 128.0 589.0 C 128.0 588.0 128.0 587.0 128.0 586.0 C 128.0 585.0 128.0 584.0 128.0 583.0 C 129.0 582.0 130.0 582.0 131.0 582.0 C 132.0 582.0 133.0 582.0 134.0 583.0 C 135.0 583.0 136.0 583.0 137.0 583.0 C 138.0 583.0 139.0 584.0 140.0 584.0 C 141.0 584.0 142.0 584.0 143.0 584.0 C 144.0 584.0 145.0 584.0 146.0 584.0 C 147.0 584.0 148.0 584.0 149.0 584.0 C 150.0 584.0 151.0 584.0 152.0 584.0 C 153.0 584.0 154.0 584.0 155.0 583.0 C 156.0 583.0 157.0 583.0 158.0 583.0 C 159.0 583.0 160.0 582.0 161.0 582.0 C 162.0 582.0 163.0 582.0 164.0 582.0 C 165.0 581.0 166.0 581.0 167.0 581.0 C 168.0 580.0 169.0 580.0 170.0 580.0 C 171.0 580.0 172.0 580.0 173.0 580.0 C 174.0 579.0 175.0 579.0 176.0 579.0 C 177.0 579.0 178.0 578.0 179.0 578.0 C 180.0 578.0 181.0 578.0 182.0 578.0 C 183.0 577.0 184.0 577.0 185.0 577.0 C 186.0 577.0 187.0 577.0 188.0 577.0 C 189.0 577.0 190.0 577.0 191.0 577.0 C 192.0 577.0 193.0 577.0 194.0 577.0 C 195.0 577.0 196.0 577.0 197.0 577.0 C 198.0 577.0 199.0 577.0 200.0 577.0 C 201.0 577.0 202.0 576.0 204.0 576.0" stroke-width="0.0" fill="rgb(245, 194, 185)" opacity="1.0" stroke="rgb(25, 160, 215)" stroke-opacity="0.35766715" stroke-linecap="round" stroke-linejoin="round"/>
    <path d="M 240.0 567.0 C 241.0 567.0 242.0 567.0 243.0 567.0 C 244.0 568.0 245.0 568.0 246.0 569.0 C 247.0 569.0 248.0 569.0 249.0 569.0 C 250.0 570.0 251.0 570.0 252.0 570.0 C 253.0 570.0 254.0 571.0 255.0 571.0 C 256.0 571.0 257.0 571.0 258.0 572.0 C 259.0 572.0 260.0 572.0 261.0 572.0 C 262.0 572.0 263.0 572.0 264.0 573.0 C 265.0 573.0 266.0 573.0 267.0 573.0 C 268.0 573.0 269.0 573.0 270.0 573.0 C 271.0 573.0 272.0 573.0 273.0 573.0 C 274.0 573.0 275.0 573.0 276.0 573.0 C 277.0 573.0 278.0 573.0 279.0 573.0 C 280.0 573.0 281.0 573.0 282.0 573.0 C 283.0 573.0 284.0 573.0 285.0 573.0 C 286.0 573.0 287.0 573.0 288.0 573.0 C 289.0 573.0 290.0 573.0 291.0 573.0 C 292.0 573.0 293.0 573.0 294.0 573.0 C 295.0 573.0 296.0 573.0 297.0 573.0 C 298.0 573.0 299.0 573.0 300.0 573.0 C 301.0 573.0 302.0 573.0 303.0 573.0 C 303.0 574.0 303.0 575.0 303.0 576.0 C 304.0 577.0 305.0 577.0 306.0 577.0 C 307.0 576.0 307.0 575.0 307.0 574.0 C 308.0 574.0 309.0 574.0 310.0 574.0 C 311.0 574.0 312.0 574.0 313.0 574.0 C 314.0 574.0 315.0 574.0 316.0 574.0 C 317.0 574.0 318.0 574.0 319.0 574.0 C 320.0 574.0 321.0 574.0 322.0 573.0 C 323.0 573.0 324.0 573.0 325.0 573.0 C 326.0 573.0 327.0 573.0 328.0 573.0 C 329.0 572.0 330.0 572.0 331.0 572.0 C 332.0 572.0 333.0 572.0 334.0 572.0 C 334.0 573.0 334.0 574.0 333.0 575.0 C 332.0 575.0 331.0 576.0 330.0 576.0 C 329.0 576.0 328.0 577.0 327.0 577.0 C 326.0 577.0 325.0 577.0 324.0 577.0 C 323.0 578.0 322.0 578.0 321.0 579.0 C 320.0 578.0 319.0 578.0 318.0 578.0 C 317.0 578.0 316.0 578.0 315.0 578.0 C 314.0 579.0 313.0 579.0 312.0 579.0 C 311.0 579.0 310.0 579.0 309.0 579.0 C 308.0 579.0 307.0 579.0 306.0 579.0 C 305.0 579.0 304.0 579.0 303.0 579.0 C 302.0 579.0 301.0 579.0 300.0 579.0 C 299.0 580.0 298.0 580.0 297.0 580.0 C 296.0 580.0 295.0 580.0 294.0 581.0 C 294.0 582.0 294.0 583.0 293.0 583.0 C 291.0 583.0 289.0 583.0 287.0 583.0 C 287.0 581.0 285.0 580.0 283.0 580.0 C 281.0 580.0 279.0 579.0 277.0 579.0 C 275.0 579.0 273.0 579.0 271.0 580.0 C 271.0 582.0 271.0 580.0 269.0 579.0 C 267.0 578.0 265.0 578.0 263.0 578.0 C 262.0 580.0 262.0 580.0 261.0 578.0 C 259.0 577.0 257.0 577.0 255.0 576.0 C 253.0 576.0 251.0 577.0 249.0 575.0 C 247.0 575.0 245.0 574.0 244.0 573.0 C 243.0 571.0 241.0 572.0 240.0 571.0 C 239.0 569.0 239.0 567.0 240.0 567.0" stroke-width="0.0" fill="rgb(244, 195, 187)" opacity="1.0" stroke="rgb(184, 171, 29)" stroke-opacity="0.6639961" stroke-linecap="round" stroke-linejoin="round"/>
    <path d="M 203.0 151.0 C 203.0 152.0 203.0 153.0 203.0 154.0 C 204.0 155.0 205.0 154.0 205.0 153.0 C 205.0 152.0 205.0 151.0 206.0 151.0 C 207.0 151.0 208.0 151.0 209.0 151.0 C 210.0 152.0 211.0 152.0 212.0 152.0 C 213.0 152.0 214.0 152.0 215.0 152.0 C 214.0 152.0 213.0 152.0 212.0 153.0 C 212.0 154.0 212.0 155.0 213.0 156.0 C 214.0 156.0 215.0 156.0 216.0 155.0 C 216.0 156.0 216.0 157.0 215.0 158.0 C 215.0 159.0 214.0 160.0 213.0 159.0 C 212.0 159.0 211.0 159.0 210.0 159.0 C 209.0 159.0 208.0 159.0 208.0 158.0 C 208.0 157.0 207.0 156.0 206.0 156.0 C 205.0 156.0 204.0 156.0 203.0 157.0 C 203.0 158.0 203.0 159.0 203.0 160.0 C 202.0 160.0 201.0 160.0 200.0 160.0 C 199.0 161.0 199.0 162.0 198.0 162.0 C 197.0 162.0 197.0 161.0 197.0 160.0 C 197.0 159.0 198.0 159.0 199.0 159.0 C 200.0 158.0 200.0 157.0 200.0 156.0 C 199.0 155.0 199.0 154.0 199.0 153.0 C 200.0 152.0 201.0 151.0 203.0 151.0" stroke-width="0.0" fill="rgb(154, 67, 22)" opacity="1.0" stroke="rgb(125, 18, 253)" stroke-opacity="0.66079813" stroke-linecap="round" stroke-linejoin="round"/>
    <path d="M 305.0 107.0 C 306.0 108.0 307.0 107.0 307.0 106.0 C 307.0 105.0 307.0 106.0 308.0 107.0 C 309.0 107.0 310.0 107.0 310.0 108.0 C 310.0 109.0 310.0 110.0 310.0 111.0 C 310.0 112.0 311.0 113.0 312.0 113.0 C 313.0 113.0 314.0 113.0 315.0 113.0 C 316.0 113.0 317.0 113.0 317.0 114.0 C 318.0 115.0 318.0 116.0 318.0 117.0 C 318.0 118.0 318.0 119.0 318.0 120.0 C 317.0 120.0 316.0 120.0 315.0 120.0 C 315.0 119.0 315.0 118.0 315.0 117.0 C 314.0 116.0 313.0 116.0 312.0 115.0 C 311.0 115.0 310.0 115.0 309.0 116.0 C 308.0 116.0 307.0 116.0 306.0 116.0 C 305.0 116.0 304.0 116.0 304.0 115.0 C 304.0 114.0 304.0 113.0 304.0 112.0 C 303.0 111.0 303.0 110.0 303.0 109.0 C 303.0 108.0 304.0 108.0 305.0 107.0 C 305.0 106.0 305.0 105.0 305.0 107.0" stroke-width="0.0" fill="rgb(147, 70, 24)" opacity="1.0" stroke="rgb(78, 176, 239)" stroke-opacity="0.6711186" stroke-linecap="round" stroke-linejoin="round"/>
    <path d="M 249.0 207.0 C 250.0 207.0 251.0 207.0 252.0 207.0 C 253.0 207.0 254.0 207.0 254.0 208.0 C 254.0 209.0 254.0 210.0 254.0 211.0 C 254.0 212.0 254.0 213.0 254.0 214.0 C 254.0 215.0 253.0 215.0 252.0 215.0 C 251.0 215.0 250.0 215.0 250.0 214.0 C 249.0 213.0 248.0 212.0 247.0 211.0 C 246.0 211.0 245.0 211.0 245.0 210.0 C 245.0 209.0 245.0 208.0 246.0 208.0 C 247.0 208.0 248.0 207.0 249.0 207.0" stroke-width="0.0" fill="rgb(203, 43, 1)" opacity="1.0" stroke="rgb(25, 58, 128)" stroke-opacity="0.027960058" stroke-linecap="round" stroke-linejoin="round"/>
    <path d="M 224.0 139.0 C 224.0 140.0 224.0 141.0 223.0 141.0 C 222.0 142.0 223.0 143.0 222.0 144.0 C 222.0 145.0 222.0 146.0 223.0 147.0 C 224.0 147.0 225.0 147.0 224.0 148.0 C 223.0 149.0 223.0 150.0 223.0 151.0 C 222.0 151.0 221.0 151.0 220.0 151.0 C 219.0 151.0 218.0 151.0 217.0 151.0 C 216.0 151.0 216.0 150.0 216.0 149.0 C 215.0 148.0 215.0 147.0 215.0 146.0 C 215.0 145.0 216.0 146.0 216.0 147.0 C 216.0 148.0 217.0 149.0 218.0 149.0 C 219.0 149.0 220.0 148.0 220.0 147.0 C 220.0 146.0 221.0 145.0 221.0 144.0 C 221.0 143.0 221.0 142.0 221.0 141.0 C 222.0 140.0 222.0 139.0 224.0 139.0" stroke-width="0.0" fill="rgb(141, 72, 31)" opacity="1.0" stroke="rgb(244, 200, 254)" stroke-opacity="0.976388" stroke-linecap="round" stroke-linejoin="round"/>
    <path d="M 205.0 127.0 C 205.0 128.0 206.0 129.0 207.0 129.0 C 207.0 130.0 207.0 131.0 208.0 132.0 C 209.0 131.0 210.0 130.0 210.0 129.0 C 210.0 128.0 211.0 128.0 211.0 129.0 C 211.0 130.0 212.0 131.0 213.0 131.0 C 214.0 131.0 215.0 130.0 215.0 129.0 C 215.0 128.0 215.0 129.0 215.0 130.0 C 215.0 131.0 215.0 132.0 215.0 133.0 C 215.0 134.0 215.0 135.0 214.0 136.0 C 213.0 136.0 212.0 136.0 211.0 135.0 C 210.0 136.0 210.0 137.0 209.0 137.0 C 208.0 137.0 208.0 136.0 208.0 135.0 C 208.0 134.0 208.0 133.0 207.0 132.0 C 206.0 132.0 205.0 133.0 204.0 134.0 C 203.0 134.0 202.0 134.0 202.0 133.0 C 202.0 132.0 202.0 131.0 203.0 131.0 C 204.0 130.0 203.0 129.0 203.0 128.0 C 203.0 127.0 203.0 126.0 205.0 127.0" stroke-width="0.0" fill="rgb(140, 73, 26)" opacity="1.0" stroke="rgb(96, 15, 21)" stroke-opacity="0.87926745" stroke-linecap="round" stroke-linejoin="round"/>
    <path d="M 106.0 282.0 C 107.0 282.0 107.0 283.0 108.0 284.0 C 109.0 284.0 109.0 285.0 110.0 286.0 C 110.0 287.0 110.0 288.0 111.0 289.0 C 112.0 289.0 113.0 289.0 114.0 289.0 C 114.0 290.0 114.0 291.0 115.0 292.0 C 116.0 292.0 117.0 292.0 117.0 293.0 C 117.0 294.0 117.0 295.0 117.0 296.0 C 118.0 297.0 118.0 298.0 119.0 299.0 C 119.0 300.0 119.0 301.0 119.0 302.0 C 119.0 303.0 119.0 304.0 118.0 304.0 C 117.0 304.0 117.0 303.0 116.0 302.0 C 115.0 301.0 115.0 300.0 114.0 299.0 C 113.0 298.0 112.0 297.0 112.0 296.0 C 111.0 295.0 110.0 294.0 109.0 293.0 C 108.0 292.0 107.0 291.0 106.0 290.0 C 106.0 289.0 106.0 288.0 106.0 287.0 C 106.0 286.0 105.0 285.0 105.0 284.0 C 105.0 283.0 105.0 282.0 106.0 282.0" stroke-width="0.0" fill="rgb(250, 110, 171)" opacity="1.0" stroke="rgb(167, 179, 23)" stroke-opacity="0.11802446" stroke-linecap="round" stroke-linejoin="round"/>
    <path d="M 233.0 201.0 C 234.0 202.0 234.0 203.0 234.0 204.0 C 234.0 205.0 234.0 206.0 235.0 207.0 C 236.0 207.0 237.0 206.0 236.0 205.0 C 236.0 204.0 236.0 203.0 237.0 203.0 C 238.0 203.0 238.0 204.0 238.0 205.0 C 239.0 206.0 240.0 206.0 241.0 206.0 C 242.0 205.0 242.0 204.0 242.0 205.0 C 242.0 206.0 243.0 207.0 244.0 207.0 C 245.0 207.0 246.0 206.0 246.0 205.0 C 246.0 204.0 247.0 204.0 248.0 204.0 C 249.0 204.0 250.0 204.0 251.0 204.0 C 252.0 204.0 252.0 205.0 252.0 206.0 C 251.0 206.0 250.0 206.0 249.0 206.0 C 248.0 206.0 247.0 207.0 246.0 207.0 C 245.0 207.0 244.0 208.0 243.0 208.0 C 242.0 208.0 241.0 208.0 240.0 209.0 C 239.0 209.0 238.0 208.0 237.0 208.0 C 236.0 208.0 235.0 208.0 234.0 208.0 C 233.0 209.0 232.0 208.0 231.0 207.0 C 230.0 207.0 229.0 207.0 229.0 206.0 C 229.0 205.0 228.0 204.0 227.0 204.0 C 226.0 204.0 227.0 204.0 228.0 204.0 C 229.0 204.0 230.0 204.0 231.0 203.0 C 231.0 202.0 231.0 201.0 233.0 201.0" stroke-width="0.0" fill="rgb(206, 36, 4)" opacity="1.0" stroke="rgb(238, 125, 157)" stroke-opacity="0.69196904" stroke-linecap="round" stroke-linejoin="round"/>
    <path d="M 254.0 254.0 C 255.0 254.0 256.0 254.0 257.0 254.0 C 257.0 255.0 257.0 256.0 257.0 257.0 C 257.0 258.0 257.0 259.0 256.0 259.0 C 255.0 260.0 254.0 260.0 253.0 260.0 C 252.0 259.0 251.0 258.0 250.0 259.0 C 249.0 259.0 248.0 259.0 247.0 259.0 C 246.0 259.0 246.0 258.0 246.0 257.0 C 246.0 256.0 247.0 256.0 248.0 256.0 C 249.0 256.0 250.0 256.0 251.0 256.0 C 252.0 255.0 252.0 254.0 254.0 254.0" stroke-width="0.0" fill="rgb(254, 108, 171)" opacity="1.0" stroke="rgb(122, 61, 115)" stroke-opacity="0.44951516" stroke-linecap="round" stroke-linejoin="round"/>
    <path d="M 260.0 515.0 C 261.0 516.0 262.0 516.0 263.0 516.0 C 264.0 516.0 265.0 516.0 266.0 516.0 C 266.0 517.0 266.0 518.0 266.0 519.0 C 265.0 519.0 264.0 519.0 263.0 518.0 C 262.0 518.0 261.0 518.0 260.0 518.0 C 259.0 518.0 258.0 518.0 257.0 518.0 C 256.0 518.0 255.0 517.0 256.0 517.0 C 257.0 517.0 258.0 517.0 259.0 516.0 C 259.0 515.0 259.0 514.0 260.0 515.0" stroke-width="0.0" fill="rgb(247, 231, 52)" opacity="1.0" stroke="rgb(165, 117, 204)" stroke-opacity="0.18100736" stroke-linecap="round" stroke-linejoin="round"/>
    <path d="M 185.0 524.0 C 186.0 524.0 187.0 524.0 187.0 525.0 C 187.0 526.0 187.0 527.0 188.0 528.0 C 189.0 528.0 188.0 528.0 187.0 528.0 C 186.0 527.0 185.0 527.0 184.0 527.0 C 183.0 527.0 182.0 527.0 183.0 526.0 C 183.0 525.0 183.0 524.0 185.0 524.0" stroke-width="0.0" fill="rgb(235, 246, 68)" opacity="1.0" stroke="rgb(191, 44, 202)" stroke-opacity="0.22306353" stroke-linecap="round" stroke-linejoin="round"/>
    <path d="M 198.0 527.0 C 199.0 527.0 200.0 527.0 201.0 527.0 C 201.0 528.0 201.0 529.0 200.0 529.0 C 199.0 529.0 198.0 530.0 197.0 530.0 C 196.0 530.0 195.0 530.0 195.0 529.0 C 195.0 528.0 196.0 527.0 198.0 527.0" stroke-width="0.0" fill="rgb(252, 252, 62)" opacity="1.0" stroke="rgb(236, 233, 32)" stroke-opacity="0.8727717" stroke-linecap="round" stroke-linejoin="round"/>
    <path d="M 218.0 136.0 C 219.0 136.0 220.0 136.0 221.0 136.0 C 222.0 136.0 222.0 137.0 222.0 138.0 C 221.0 139.0 220.0 140.0 220.0 141.0 C 220.0 142.0 220.0 143.0 220.0 144.0 C 220.0 145.0 219.0 146.0 219.0 147.0 C 218.0 147.0 217.0 147.0 217.0 146.0 C 216.0 145.0 216.0 144.0 215.0 143.0 C 215.0 142.0 215.0 141.0 215.0 140.0 C 215.0 139.0 215.0 138.0 216.0 138.0 C 217.0 137.0 217.0 136.0 218.0 136.0" stroke-width="0.0" fill="rgb(142, 73, 19)" opacity="1.0" stroke="rgb(32, 252, 206)" stroke-opacity="0.6139553" stroke-linecap="round" stroke-linejoin="round"/>
    <path d="M 172.0 508.0 C 173.0 509.0 174.0 509.0 175.0 509.0 C 176.0 509.0 177.0 510.0 178.0 510.0 C 179.0 510.0 180.0 510.0 181.0 510.0 C 182.0 511.0 183.0 511.0 184.0 511.0 C 185.0 511.0 186.0 511.0 187.0 511.0 C 188.0 511.0 189.0 511.0 190.0 511.0 C 191.0 511.0 192.0 511.0 193.0 511.0 C 194.0 511.0 195.0 511.0 196.0 511.0 C 197.0 511.0 198.0 511.0 199.0 511.0 C 200.0 511.0 201.0 510.0 202.0 510.0 C 203.0 510.0 204.0 510.0 205.0 509.0 C 206.0 509.0 207.0 509.0 208.0 509.0 C 208.0 510.0 209.0 511.0 210.0 511.0 C 211.0 511.0 210.0 511.0 209.0 511.0 C 208.0 511.0 207.0 511.0 206.0 511.0 C 205.0 511.0 204.0 512.0 203.0 512.0 C 202.0 512.0 201.0 512.0 200.0 513.0 C 199.0 513.0 198.0 513.0 197.0 513.0 C 196.0 513.0 195.0 513.0 194.0 513.0 C 193.0 513.0 192.0 513.0 191.0 513.0 C 190.0 513.0 189.0 513.0 188.0 513.0 C 187.0 513.0 186.0 513.0 185.0 513.0 C 184.0 513.0 183.0 513.0 182.0 513.0 C 181.0 513.0 180.0 512.0 179.0 512.0 C 178.0 512.0 177.0 512.0 176.0 511.0 C 175.0 511.0 174.0 511.0 173.0 511.0 C 172.0 510.0 171.0 510.0 170.0 510.0 C 170.0 509.0 170.0 508.0 172.0 508.0" stroke-width="0.0" fill="rgb(181, 125, 31)" opacity="1.0" stroke="rgb(62, 143, 89)" stroke-opacity="0.3104268" stroke-linecap="round" stroke-linejoin="round"/>
  </g>
</svg>
