<?xml version="1.0" ?>
<svg xmlns="http://www.w3.org/2000/svg" version="1.1" width="474" height="596">
  <defs/>
  <g>
    <path d="M 266.278564453125 -1.131435513496399 C 268.2287902832031 -1.4241541624069214 270.430419921875 -1.7688825130462646 272.2010192871094 -2.533836603164673 C 273.3716735839844 -3.1477456092834473 274.0946960449219 -3.476382255554199 274.65655517578125 -3.9097273349761963 C 274.60791015625 -3.98353910446167 274.54925537109375 -3.9423251152038574 274.60943603515625 -3.8461060523986816 C 274.9162902832031 -3.757776975631714 275.6728515625 -3.4917075634002686 278.0146179199219 -4.532665252685547 C 281.6427917480469 -2.4743711948394775 285.13555908203125 0.7523036003112793 291.9140319824219 2.418142080307007 C 300.778076171875 4.513425350189209 310.0304870605469 7.507099151611328 318.3474426269531 10.920284271240234 C 326.6087341308594 14.391551971435547 334.4953308105469 18.248912811279297 342.2867126464844 22.790746688842773 C 350.40411376953125 27.487571716308594 358.4161376953125 32.916221618652344 366.2696533203125 39.373294830322266 C 374.6994934082031 45.832420349121094 382.6248779296875 53.41511535644531 390.3615417480469 61.477115631103516 C 397.8066711425781 69.36306762695312 404.49322509765625 77.55583190917969 410.53472900390625 85.75340270996094 C 416.1755065917969 93.49983215332031 421.4613037109375 101.55414581298828 426.7069091796875 110.28643798828125 C 431.87896728515625 118.8802490234375 435.1788330078125 124.18624114990234 432.9505615234375 133.62603759765625 C 429.680908203125 142.71473693847656 423.9134216308594 150.77252197265625 417.5815734863281 158.8501739501953 C 411.3115234375 167.08657836914062 403.8500061035156 174.35848999023438 396.3311462402344 181.60203552246094 C 388.7724914550781 188.54147338867188 380.8583679199219 194.8056640625 372.8459167480469 200.70233154296875 C 364.9595947265625 206.43603515625 357.09814453125 211.51934814453125 348.67572021484375 216.28387451171875 C 339.0543212890625 221.3441925048828 326.7095947265625 224.46607971191406 315.32080078125 226.18788146972656 C 313.3890380859375 223.84994506835938 316.9643859863281 218.0626220703125 323.5062561035156 211.28579711914062 C 331.702880859375 204.81910705566406 339.9720764160156 197.89407348632812 347.3265380859375 190.24952697753906 C 353.4318542480469 182.17709350585938 358.30352783203125 174.14816284179688 362.0204772949219 166.3332977294922 C 364.8737487792969 158.69578552246094 366.803955078125 151.044189453125 367.9794921875 142.99595642089844 C 368.25042724609375 134.75904846191406 368.8063049316406 126.37146759033203 365.2736511230469 119.80731964111328 C 361.32208251953125 112.79622650146484 357.4490661621094 106.85244750976562 351.7961120605469 103.03790283203125 C 344.9190368652344 101.61158752441406 337.33160400390625 103.05476379394531 329.7148132324219 102.5228271484375 C 321.7711181640625 99.58777618408203 314.1891174316406 100.35600280761719 306.2815856933594 103.48604583740234 C 297.7610778808594 106.45907592773438 289.0775451660156 109.31958770751953 280.5461730957031 111.0482406616211 C 272.20465087890625 111.05066680908203 264.4149475097656 109.6820068359375 257.6124572753906 107.5594711303711 C 252.28448486328125 105.4056167602539 248.4386444091797 103.86526489257812 246.02940368652344 103.82164764404297 C 245.343994140625 105.53711700439453 244.8335723876953 108.6717300415039 244.61891174316406 113.90081787109375 C 241.0045166015625 117.82675170898438 234.04873657226562 121.32815551757812 224.50421142578125 124.91050720214844 C 214.80972290039062 128.52569580078125 204.6732635498047 131.41258239746094 194.80967712402344 133.5364990234375 C 185.48098754882812 135.07167053222656 177.4488067626953 136.2213897705078 171.30348205566406 137.83197021484375 C 165.77735900878906 138.06857299804688 162.00450134277344 139.0633087158203 159.10670471191406 141.00369262695312 C 156.77642822265625 143.84669494628906 154.77378845214844 147.7371368408203 152.7121124267578 153.07382202148438 C 150.62892150878906 159.74322509765625 148.74415588378906 167.30828857421875 147.5033416748047 175.26077270507812 C 147.4146270751953 183.31307983398438 148.44691467285156 191.62815856933594 151.03274536132812 199.51992797851562 C 155.30026245117188 207.0072479248047 160.86143493652344 214.1254119873047 167.99505615234375 220.6856689453125 C 176.44544982910156 226.80615234375 185.966064453125 232.19281005859375 195.75759887695312 236.2515869140625 C 205.03684997558594 239.28994750976562 213.4810333251953 241.07833862304688 219.84716796875 242.5127716064453 C 221.70423889160156 245.9567413330078 219.28509521484375 246.02622985839844 213.36961364746094 246.85922241210938 C 206.162353515625 247.05760192871094 197.64480590820312 246.6914825439453 188.15646362304688 245.39527893066406 C 178.69615173339844 243.8289031982422 169.32012939453125 242.66632080078125 160.68148803710938 240.89695739746094 C 151.93399047851562 240.82151794433594 143.87228393554688 240.6698760986328 136.9813232421875 239.47705078125 C 128.87074279785156 238.356689453125 120.97972869873047 236.67962646484375 113.22607421875 234.6768798828125 C 105.31268310546875 232.43771362304688 97.21813201904297 230.05247497558594 89.31253814697266 226.67578125 C 80.7859878540039 223.43313598632812 72.55351257324219 219.6278533935547 64.79434967041016 215.132080078125 C 58.09819793701172 211.71556091308594 53.988590240478516 206.09991455078125 53.350067138671875 199.10934448242188 C 53.3333740234375 189.53817749023438 54.55915451049805 179.54534912109375 56.59498977661133 169.73236083984375 C 58.14536666870117 160.7297821044922 60.253990173339844 152.76910400390625 62.492462158203125 144.81924438476562 C 64.72441101074219 136.8177032470703 67.77699279785156 129.0753173828125 71.26309204101562 121.01167297363281 C 74.71043395996094 112.88837432861328 78.82994842529297 105.01061248779297 83.33024597167969 97.2880859375 C 88.35179901123047 89.25279998779297 93.82420349121094 81.09469604492188 100.22888946533203 73.5038070678711 C 106.90673828125 65.30522918701172 114.4342269897461 57.18988037109375 122.94097900390625 49.900856018066406 C 130.70794677734375 42.61879348754883 139.66748046875 36.610084533691406 147.95294189453125 30.603506088256836 C 155.46694946289062 25.998004913330078 162.55601501464844 24.51300048828125 171.0524444580078 23.764677047729492 C 177.3977813720703 23.210493087768555 187.10598754882812 24.476280212402344 195.09567260742188 26.010887145996094 C 203.49143981933594 27.85845375061035 209.69491577148438 31.237560272216797 214.80760192871094 28.81366539001465 C 216.02243041992188 30.5163631439209 223.5727081298828 28.92633056640625 227.1645050048828 26.160261154174805 C 233.48768615722656 18.911413192749023 240.98838806152344 11.539941787719727 249.74147033691406 7.033405780792236 C 257.9398498535156 2.866603136062622 266.8494567871094 -0.12061645090579987 266.278564453125 -1.131435513496399" stroke-width="0.0" fill="rgb(64, 38, 30)" opacity="0.9999926" stroke="rgb(75, 76, 114)" stroke-opacity="0.6093165" stroke-linecap="round" stroke-linejoin="round"/>
    <path d="M 315.5209045410156 243.05770874023438 C 336.95123291015625 247.92935180664062 356.568359375 255.1068878173828 371.19091796875 269.4102783203125 C 393.22235107421875 278.1285400390625 404.85577392578125 289.0936279296875 409.96331787109375 290.143798828125 C 411.1540222167969 288.80859375 405.4744567871094 291.5362854003906 393.8924255371094 294.85284423828125 C 380.24444580078125 292.63214111328125 373.77764892578125 291.661865234375 376.96185302734375 292.4627990722656 C 392.28253173828125 292.7186279296875 415.5299377441406 294.4841003417969 445.12701416015625 294.75030517578125 C 461.53656005859375 315.3188781738281 458.83587646484375 337.7705993652344 439.5404968261719 347.7491455078125 C 427.329345703125 350.7823486328125 412.1018371582031 340.91632080078125 394.9949951171875 329.86712646484375 C 366.8048400878906 329.0958251953125 349.72113037109375 319.9581604003906 330.43634033203125 322.8105163574219 C 323.0887451171875 331.8510437011719 320.9422912597656 347.53863525390625 324.2650451660156 367.92041015625 C 320.0568542480469 380.6039123535156 311.4903869628906 395.4808349609375 306.35589599609375 416.2704162597656 C 300.3582763671875 437.1634216308594 294.2196044921875 457.4476013183594 290.37548828125 477.6668395996094 C 287.3337707519531 494.0824890136719 287.0758361816406 508.6465759277344 287.6867370605469 517.875 C 287.2904052734375 523.3251953125 280.9202575683594 524.735595703125 269.9129638671875 524.1762084960938 C 256.79498291015625 524.0396118164062 244.1651153564453 526.7028198242188 235.61351013183594 534.9091796875 C 232.9815673828125 552.6380004882812 238.15968322753906 565.2255249023438 253.10899353027344 576.4383544921875 C 272.4373779296875 582.328125 291.240966796875 579.85009765625 313.0367736816406 573.3187255859375 C 332.9208068847656 568.7967529296875 344.02874755859375 567.4409790039062 342.8957214355469 573.6337280273438 C 331.7965393066406 582.469970703125 316.6070861816406 585.3502197265625 290.187255859375 584.533203125 C 268.0758972167969 583.2672119140625 244.73455810546875 582.7577514648438 236.31930541992188 574.887939453125 C 230.95278930664062 565.3613891601562 234.10061645507812 544.810302734375 236.2362823486328 521.02490234375 C 241.4762725830078 502.43939208984375 244.26644897460938 484.1449279785156 241.52980041503906 471.03228759765625 C 230.95924377441406 463.02581787109375 226.6018524169922 461.885498046875 226.565673828125 473.08111572265625 C 217.20204162597656 476.3682556152344 204.98463439941406 479.26318359375 194.97796630859375 482.71002197265625 C 187.11398315429688 483.76409912109375 182.82821655273438 484.6392822265625 182.91378784179688 486.609375 C 187.70767211914062 490.5304260253906 196.07989501953125 497.37066650390625 208.2913360595703 506.4057312011719 C 213.13670349121094 522.6953735351562 214.9068145751953 544.3964233398438 217.27317810058594 566.1334838867188 C 219.72108459472656 585.9207763671875 215.6073760986328 587.815185546875 193.47314453125 586.4136962890625 C 170.1171875 592.3093872070312 152.45855712890625 601.4322509765625 131.87271118164062 594.6736450195312 C 117.14301300048828 592.8609619140625 115.2666015625 583.68310546875 119.13201904296875 574.8583374023438 C 130.5873260498047 581.5391845703125 147.75135803222656 583.5677490234375 169.05152893066406 582.1695556640625 C 187.63665771484375 579.5982666015625 203.7086639404297 576.773681640625 213.64633178710938 570.5186157226562 C 212.93067932128906 557.4008178710938 212.06617736816406 541.8346557617188 209.2462158203125 529.2708740234375 C 199.36199951171875 524.8185424804688 189.767333984375 523.1436767578125 181.0996856689453 523.84033203125 C 174.37974548339844 524.2957153320312 169.77127075195312 522.4224243164062 166.61422729492188 516.6808471679688 C 165.6232452392578 506.7354431152344 166.59222412109375 492.95880126953125 166.31951904296875 476.0728759765625 C 161.5742645263672 457.4750061035156 157.52003479003906 437.450439453125 154.9949951171875 416.622314453125 C 152.86520385742188 397.0077819824219 145.9102020263672 380.38800048828125 135.0908660888672 365.73687744140625 C 123.92607116699219 353.3399658203125 110.88385009765625 347.0809631347656 98.53388977050781 345.1886291503906 C 87.72862243652344 350.2254943847656 82.93750762939453 353.682373046875 83.56465148925781 356.074951171875 C 89.2875747680664 356.1468505859375 98.19213104248047 352.8816833496094 107.47276306152344 345.2379150390625 C 114.06749725341797 334.0844421386719 118.20011138916016 322.6039733886719 117.64849090576172 311.80877685546875 C 111.31586456298828 302.8498840332031 101.85242462158203 295.4884948730469 92.17897033691406 289.112548828125 C 86.78328704833984 284.3324890136719 91.08921813964844 279.8297424316406 103.03718566894531 270.9081726074219 C 119.55320739746094 258.40435791015625 139.30799865722656 248.67129516601562 157.81573486328125 242.86618041992188 C 167.8155059814453 238.264404296875 172.19186401367188 244.48760986328125 171.48971557617188 256.07183837890625 C 167.8286590576172 271.11474609375 163.4789581298828 288.28564453125 159.9667510986328 306.2314453125 C 158.08343505859375 323.47247314453125 157.98382568359375 338.75311279296875 159.49746704101562 350.92108154296875 C 160.4372100830078 360.9408874511719 161.61221313476562 366.48394775390625 161.88449096679688 367.861083984375 C 161.3496856689453 365.2333679199219 160.1644744873047 359.3656005859375 159.5406951904297 350.851806640625 C 161.53041076660156 340.25732421875 164.59312438964844 328.37640380859375 168.84693908691406 315.7151794433594 C 173.9638214111328 302.56219482421875 179.659423828125 289.5954895019531 185.91357421875 276.93414306640625 C 192.88902282714844 265.3040771484375 201.04641723632812 254.44473266601562 208.677001953125 247.46194458007812 C 224.26194763183594 245.11439514160156 236.7107696533203 243.06768798828125 250.40188598632812 242.2237548828125 C 263.6983337402344 244.91200256347656 276.1462707519531 249.11923217773438 286.9714660644531 256.28546142578125 C 295.15008544921875 266.4953308105469 300.4638671875 280.0621643066406 304.9041442871094 294.71759033203125 C 311.0943908691406 306.4210205078125 315.4600524902344 315.8310241699219 318.2061767578125 320.75634765625 C 317.7077331542969 317.6542663574219 315.1427307128906 313.9793395996094 315.4499206542969 307.9851989746094 C 316.159912109375 305.1062316894531 315.5220947265625 305.740234375 314.0762634277344 308.150634765625 C 310.0173645019531 304.6259460449219 305.1883850097656 295.14501953125 299.3822326660156 280.0093078613281 C 293.38226318359375 257.3855895996094 286.8774108886719 234.94534301757812 315.5209045410156 243.05770874023438" stroke-width="0.0" fill="rgb(251, 110, 165)" opacity="0.99993" stroke="rgb(144, 58, 37)" stroke-opacity="0.4684767" stroke-linecap="round" stroke-linejoin="round"/>
    <path d="M 340.0408630371094 94.35989379882812 C 342.47613525390625 94.950927734375 343.1556396484375 93.5975112915039 343.2956848144531 93.25741577148438 C 343.45404052734375 95.2757339477539 345.47357177734375 95.25646209716797 346.8520812988281 95.45660400390625 C 347.3471984863281 95.81015014648438 347.6047668457031 96.17940521240234 347.51873779296875 96.80233764648438 C 347.81890869140625 97.25242614746094 348.24871826171875 97.63026428222656 349.08856201171875 97.97290802001953 C 350.5313720703125 98.766845703125 351.9707946777344 100.01805114746094 353.5653991699219 101.74105834960938 C 355.6209411621094 104.52234649658203 359.2169494628906 106.66954040527344 361.3271789550781 110.67967224121094 C 363.7357177734375 115.37545776367188 366.4186706542969 120.29418182373047 367.88800048828125 125.65743255615234 C 369.781982421875 131.52066040039062 370.6520690917969 137.51123046875 370.7255859375 143.00491333007812 C 370.825927734375 149.22705078125 369.82904052734375 154.57359313964844 369.0849914550781 160.55043029785156 C 367.8097229003906 166.54844665527344 365.9262390136719 172.0054168701172 363.15460205078125 177.36134338378906 C 360.4479064941406 182.92337036132812 356.84075927734375 188.29945373535156 352.6261901855469 193.27642822265625 C 348.15655517578125 198.3940887451172 343.5911865234375 203.58847045898438 337.6946716308594 208.24082946777344 C 332.5184020996094 212.6781005859375 326.7831115722656 216.22996520996094 321.7567443847656 219.7969970703125 C 315.9423522949219 221.7352294921875 314.4114685058594 227.43106079101562 309.5232238769531 229.87831115722656 C 303.3212890625 232.8751678466797 297.07489013671875 235.99102783203125 291.38360595703125 236.99359130859375 C 288.2834167480469 238.45916748046875 289.0814514160156 240.1129913330078 293.662109375 239.2985382080078 C 297.7657775878906 239.8120880126953 301.9027404785156 240.89743041992188 303.6346435546875 240.38934326171875 C 297.98516845703125 242.11199951171875 294.7751159667969 247.35897827148438 291.4339599609375 256.5247497558594 C 296.2735290527344 267.5813293457031 299.5943603515625 274.7060241699219 303.1382141113281 280.3226623535156 C 304.87884521484375 284.4503479003906 306.22528076171875 286.66009521484375 306.4443054199219 287.01812744140625 C 305.74224853515625 285.6936950683594 304.103271484375 282.66351318359375 301.71539306640625 278.48077392578125 C 300.9872131347656 271.4721374511719 295.46575927734375 269.1648254394531 293.2430114746094 263.3997802734375 C 289.7425537109375 257.881591796875 285.8393249511719 254.3140411376953 280.7343444824219 251.97640991210938 C 276.1885070800781 249.33558654785156 271.3017272949219 247.4112548828125 266.1917419433594 246.0251007080078 C 261.36773681640625 244.03196716308594 258.43743896484375 245.5965118408203 255.64303588867188 247.86065673828125 C 254.35987854003906 251.097900390625 253.32264709472656 252.3476104736328 251.8678741455078 253.00453186035156 C 250.04867553710938 253.3283233642578 247.74765014648438 253.54486083984375 244.2124481201172 253.55392456054688 C 240.50657653808594 253.20164489746094 236.267578125 255.00430297851562 231.36424255371094 254.59832763671875 C 226.39915466308594 253.8940887451172 221.87646484375 253.39236450195312 218.90501403808594 246.645751953125 C 222.33863830566406 242.21719360351562 216.8088836669922 243.21524047851562 211.36761474609375 241.86380004882812 C 205.93142700195312 240.74122619628906 200.31393432617188 239.19119262695312 194.8031768798828 237.09854125976562 C 189.65237426757812 235.07647705078125 184.8542022705078 232.66563415527344 180.35287475585938 230.1158905029297 C 175.91778564453125 227.42233276367188 171.30072021484375 224.60194396972656 167.30995178222656 221.037841796875 C 162.6597137451172 217.1215362548828 158.6522674560547 213.05764770507812 154.92893981933594 208.14540100097656 C 151.57432556152344 203.55535888671875 148.82794189453125 198.20814514160156 146.67367553710938 193.00035095214844 C 144.5188446044922 187.18017578125 143.29083251953125 181.57168579101562 143.02670288085938 174.65756225585938 C 142.89125061035156 169.59085083007812 143.18756103515625 164.29214477539062 145.101318359375 158.29925537109375 C 146.78086853027344 151.95123291015625 151.20594787597656 148.13290405273438 156.33749389648438 143.64088439941406 C 157.7164306640625 139.14292907714844 157.5923614501953 134.35824584960938 157.58975219726562 131.94686889648438 C 160.66958618164062 132.03648376464844 163.4641876220703 134.42967224121094 165.9656219482422 137.00143432617188 C 170.1276397705078 137.6138153076172 174.25550842285156 136.790283203125 178.72669982910156 134.03842163085938 C 184.48715209960938 131.83425903320312 189.7100830078125 129.3398895263672 194.8232879638672 127.54314422607422 C 200.34561157226562 125.68053436279297 205.62109375 123.5563735961914 210.96522521972656 122.31085205078125 C 215.28912353515625 120.64347076416016 220.22848510742188 119.6351089477539 225.5899658203125 118.30388641357422 C 230.68722534179688 116.9689712524414 236.41671752929688 116.11222076416016 241.2550048828125 115.00650787353516 C 244.10072326660156 113.07975006103516 246.03028869628906 109.5732421875 244.24229431152344 105.8173828125 C 242.4859161376953 101.42584228515625 242.9226837158203 98.02401733398438 245.46572875976562 95.98609924316406 C 247.89756774902344 98.00450897216797 252.6151885986328 100.76258850097656 255.9871368408203 105.70170593261719 C 261.12188720703125 108.11071014404297 266.1729431152344 109.7364273071289 270.662353515625 107.83990478515625 C 277.93902587890625 105.66785430908203 284.8915100097656 104.57804107666016 291.4485168457031 103.15237426757812 C 296.6175231933594 101.53607177734375 302.08135986328125 101.43267822265625 304.7723083496094 100.209716796875 C 303.7789306640625 103.4190902709961 306.85955810546875 103.83358001708984 310.7142333984375 104.235595703125 C 315.66607666015625 104.10783386230469 321.6580505371094 104.66889953613281 325.4560546875 109.34830474853516 C 329.6592712402344 112.45660400390625 331.129638671875 120.5166244506836 330.73834228515625 124.885498046875 C 329.63165283203125 129.73497009277344 328.5423889160156 132.14779663085938 329.4847717285156 132.67164611816406 C 332.77825927734375 131.00595092773438 337.60455322265625 129.9574737548828 341.4271240234375 127.59944915771484 C 345.3814697265625 126.01707458496094 345.73309326171875 123.73632049560547 345.3764953613281 119.24324798583984 C 345.2998352050781 115.4444808959961 342.4455261230469 111.75618743896484 338.87872314453125 107.56253814697266 C 333.61737060546875 105.41967010498047 330.203125 100.57286071777344 324.85919189453125 99.23639678955078 C 316.4885559082031 98.56226348876953 312.37713623046875 98.18181610107422 340.0408630371094 94.35989379882812" stroke-width="0.0" fill="rgb(250, 187, 105)" opacity="1.0" stroke="rgb(142, 213, 74)" stroke-opacity="0.090272315" stroke-linecap="round" stroke-linejoin="round"/>
    <path d="M 170.99705505371094 381.72509765625 C 170.7660675048828 381.4547119140625 172.08596801757812 381.09820556640625 172.12754821777344 380.34112548828125 C 173.26174926757812 380.2588195800781 174.53138732910156 380.73480224609375 177.34027099609375 380.1421813964844 C 177.52822875976562 378.9232482910156 178.3380584716797 379.6101989746094 179.70867919921875 379.8131408691406 C 180.63449096679688 380.954345703125 181.65328979492188 381.2921142578125 182.65948486328125 381.809326171875 C 183.69248962402344 382.0574645996094 184.63255310058594 382.2857666015625 185.46070861816406 382.5118408203125 C 186.27305603027344 382.6758117675781 187.02635192871094 382.77947998046875 187.76463317871094 382.9220886230469 C 188.52516174316406 382.9990234375 189.27719116210938 383.0690612792969 190.06640625 383.28656005859375 C 191.0101776123047 383.5985107421875 191.87353515625 383.9993896484375 192.798828125 384.6816101074219 C 193.70582580566406 385.4869689941406 194.3696746826172 386.4054260253906 194.87698364257812 387.45428466796875 C 195.12838745117188 388.4100036621094 195.07928466796875 389.33416748046875 194.69155883789062 390.21026611328125 C 193.99720764160156 390.8863525390625 193.29002380371094 391.4530334472656 192.50210571289062 392.07220458984375 C 191.846923828125 392.6129150390625 191.4604034423828 393.1238708496094 191.41920471191406 393.8369140625 C 191.68557739257812 394.5744934082031 192.19232177734375 395.23236083984375 192.84678649902344 395.73626708984375 C 193.74449157714844 396.2052917480469 194.43948364257812 396.6547546386719 194.3770751953125 396.9420166015625 C 194.06861877441406 397.4847412109375 193.9317626953125 397.6736755371094 193.9669647216797 397.751953125 C 194.05531311035156 397.4262390136719 194.38882446289062 397.0618591308594 195.3044891357422 397.06732177734375 C 196.84445190429688 397.0775146484375 198.72982788085938 396.8997497558594 200.98681640625 396.7273254394531 C 203.7062225341797 396.665771484375 206.8348846435547 396.5842590332031 210.22933959960938 396.65380859375 C 213.88900756835938 396.6403503417969 217.70790100097656 396.6314697265625 221.55255126953125 396.5907897949219 C 225.5171356201172 396.4913330078125 229.5877685546875 396.3839416503906 233.4949188232422 396.250244140625 C 237.400390625 396.13861083984375 241.4405059814453 395.91357421875 245.43031311035156 395.6952819824219 C 249.51638793945312 395.46221923828125 253.71859741210938 395.32293701171875 257.8991394042969 395.24676513671875 C 262.021484375 395.16680908203125 266.01678466796875 395.19464111328125 269.85992431640625 395.3128662109375 C 273.2893371582031 395.4236145019531 276.5809631347656 395.4175720214844 279.62841796875 395.32781982421875 C 282.614990234375 395.1481628417969 285.5964050292969 395.02239990234375 288.6335144042969 395.2588806152344 C 291.7014465332031 396.0714111328125 294.9122619628906 397.6065368652344 297.8456115722656 399.6136779785156 C 300.5126037597656 402.24517822265625 302.8099670410156 405.4188537597656 304.38214111328125 408.91851806640625 C 305.3443298339844 412.678955078125 305.5411682128906 416.52587890625 305.05291748046875 420.3949890136719 C 304.1054382324219 424.12255859375 302.6772155761719 427.6710205078125 300.9278259277344 430.8639221191406 C 299.12091064453125 433.7000427246094 297.310302734375 436.2065734863281 295.5545654296875 438.3800964355469 C 294.101318359375 440.3395080566406 292.84454345703125 442.2217102050781 291.74481201171875 444.1731262207031 C 290.7965087890625 446.2626953125 289.73455810546875 448.7095642089844 288.3995056152344 451.4309997558594 C 286.65313720703125 454.2909851074219 284.44049072265625 457.2623291015625 281.8191833496094 460.0388488769531 C 278.806884765625 462.30426025390625 275.5124816894531 464.07513427734375 272.028564453125 465.05401611328125 C 268.5343017578125 464.9092712402344 265.1870422363281 463.81121826171875 262.2420959472656 461.8638000488281 C 259.7569885253906 459.0635986328125 257.8060302734375 455.77313232421875 256.44830322265625 452.3340148925781 C 255.37379455566406 448.80999755859375 254.43466186523438 445.4300537109375 253.54554748535156 442.3562316894531 C 252.30099487304688 440.06939697265625 250.51670837402344 438.21197509765625 248.6189422607422 436.4911193847656 C 246.44883728027344 435.0755920410156 243.7044677734375 434.4347839355469 240.87969970703125 434.2269287109375 C 238.02342224121094 434.3194580078125 235.49952697753906 434.5250244140625 233.24647521972656 434.81072998046875 C 231.56304931640625 434.9222412109375 230.3876190185547 434.922119140625 229.7188262939453 434.85400390625 C 229.41436767578125 434.81396484375 229.37042236328125 434.8544006347656 229.4923095703125 435.0476379394531 C 229.66705322265625 435.43841552734375 229.72811889648438 436.1110534667969 229.64244079589844 437.1418151855469 C 229.47140502929688 438.4696960449219 228.9857635498047 440.0515441894531 228.23391723632812 441.9078674316406 C 227.31845092773438 443.8208312988281 226.19664001464844 445.80670166015625 224.75341796875 447.8132019042969 C 223.1359100341797 449.71087646484375 221.24838256835938 451.5375061035156 219.22471618652344 453.4767761230469 C 216.9215545654297 455.62200927734375 214.43934631347656 457.9090270996094 211.77584838867188 460.2139587402344 C 208.89364624023438 462.3832092285156 205.74310302734375 464.2460632324219 202.2339324951172 465.7115783691406 C 198.5286407470703 466.6465759277344 194.57244873046875 466.9416198730469 190.42625427246094 466.6496887207031 C 186.3998565673828 465.9270935058594 182.408447265625 464.6308898925781 178.82984924316406 463.150390625 C 175.7891082763672 461.339599609375 173.2747802734375 459.51312255859375 171.26583862304688 457.79412841796875 C 169.6780548095703 456.141845703125 168.32843017578125 454.76373291015625 167.01669311523438 453.4910583496094 C 165.7601776123047 452.4003601074219 164.42184448242188 451.4360656738281 162.98411560058594 450.18096923828125 C 161.50985717773438 448.5928039550781 160.1484375 446.56097412109375 158.98529052734375 443.861572265625 C 157.79592895507812 440.6663818359375 156.81369018554688 436.96453857421875 156.16383361816406 432.8891296386719 C 155.7196502685547 428.5871276855469 155.42608642578125 424.19110107421875 155.0951385498047 419.7351989746094 C 154.80267333984375 415.1806335449219 154.66722106933594 410.6280517578125 154.1098175048828 406.0840148925781 C 153.7975616455078 401.6139831542969 154.15525817871094 397.1489562988281 155.45994567871094 393.2001647949219 C 157.9578857421875 390.11199951171875 158.72366333007812 386.2362060546875 160.0124969482422 383.1701965332031 C 162.0078887939453 380.8912048339844 162.76966857910156 379.1932373046875 170.99705505371094 381.72509765625" stroke-width="0.0" fill="rgb(253, 76, 1)" opacity="0.9999777" stroke="rgb(42, 1, 70)" stroke-opacity="0.38518608" stroke-linecap="round" stroke-linejoin="round"/>
    <path d="M 222.43711853027344 374.98272705078125 C 221.9702911376953 374.3436584472656 222.4621124267578 374.7371520996094 222.88497924804688 375.03790283203125 C 223.33160400390625 375.272216796875 223.90469360351562 375.5758361816406 224.6593475341797 375.7512512207031 C 225.6436767578125 375.9147033691406 227.06150817871094 376.1279296875 229.3441619873047 376.36529541015625 C 232.56085205078125 376.5462646484375 236.5616455078125 376.7825622558594 241.74794006347656 377.14788818359375 C 248.2083740234375 377.66839599609375 255.79159545898438 378.026123046875 264.25250244140625 378.38189697265625 C 273.4737548828125 378.580810546875 283.4115295410156 378.3634033203125 293.8143005371094 379.171630859375 C 302.0559997558594 376.9741516113281 308.05621337890625 379.1498107910156 316.2791748046875 380.8583984375 C 315.2967529296875 384.0609436035156 316.6280517578125 392.1742248535156 314.7317199707031 399.34674072265625 C 313.4723205566406 410.34857177734375 310.7041931152344 421.12890625 307.73797607421875 433.6974182128906 C 303.8457336425781 444.58355712890625 302.2549743652344 456.0031433105469 300.4668273925781 464.71429443359375 C 300.8938293457031 470.8498229980469 296.74774169921875 472.251708984375 290.928466796875 474.18121337890625 C 289.15521240234375 480.2311706542969 288.1309814453125 489.8028564453125 287.6080322265625 499.7036437988281 C 285.6996154785156 506.82586669921875 287.6751708984375 505.1631164550781 295.573974609375 505.4722595214844 C 303.3678894042969 508.3276062011719 307.3863220214844 510.6938171386719 303.8314514160156 517.864990234375 C 295.3766784667969 519.2899780273438 288.37347412109375 525.988525390625 280.3110656738281 531.37109375 C 269.01959228515625 532.377197265625 261.28216552734375 528.858154296875 250.90609741210938 529.47265625 C 244.13235473632812 526.0887451171875 239.99899291992188 526.6853637695312 239.72528076171875 531.7686767578125 C 239.38742065429688 541.4721069335938 238.0812530517578 549.7869873046875 238.3195343017578 561.8353881835938 C 238.94271850585938 570.6531372070312 233.35720825195312 569.6997680664062 233.6262664794922 560.353759765625 C 234.40150451660156 547.851806640625 235.8795928955078 538.0274658203125 236.1761932373047 525.6754760742188 C 230.22665405273438 523.2455444335938 224.76478576660156 522.9922485351562 226.66793823242188 514.4683837890625 C 228.5023193359375 509.1432800292969 235.7129364013672 507.6044921875 240.39451599121094 504.692626953125 C 242.5108184814453 493.68450927734375 244.04605102539062 483.1366882324219 242.3456573486328 469.5060119628906 C 228.83763122558594 468.2588806152344 237.17449951171875 457.6853332519531 227.9121551513672 449.28692626953125 C 230.40740966796875 465.3926086425781 221.905517578125 469.6053466796875 216.32423400878906 477.78717041015625 C 213.76858520507812 490.063720703125 212.46334838867188 501.3205261230469 211.15090942382812 508.0177307128906 C 219.8970184326172 509.5832214355469 222.26739501953125 513.8970336914062 220.09034729003906 521.0846557617188 C 214.9867706298828 523.9609985351562 209.95376586914062 523.9358520507812 213.7321319580078 530.4044799804688 C 208.35678100585938 531.2740478515625 201.66586303710938 530.1717529296875 193.45301818847656 527.5324096679688 C 185.25601196289062 526.9537353515625 176.86996459960938 527.188232421875 170.2105712890625 528.8358764648438 C 163.3806610107422 530.1307373046875 156.56948852539062 531.0463256835938 159.85992431640625 524.8841552734375 C 152.87078857421875 522.569091796875 149.1433563232422 520.276123046875 152.58375549316406 512.6155395507812 C 157.72605895996094 506.2989196777344 167.00732421875 504.9831848144531 165.50823974609375 495.8334045410156 C 168.46238708496094 481.9232177734375 167.3452606201172 473.69805908203125 158.59666442871094 469.7547607421875 C 157.2602081298828 458.05743408203125 155.9658660888672 446.967041015625 154.85552978515625 434.3330383300781 C 153.9059295654297 423.7824401855469 152.9104766845703 413.9591064453125 152.3402099609375 405.6578674316406 C 153.25091552734375 402.6713562011719 155.71839904785156 401.7217712402344 157.89256286621094 403.3553161621094 C 159.16635131835938 408.2976379394531 159.80386352539062 415.0926818847656 160.35459899902344 423.1646728515625 C 162.3990478515625 431.2644348144531 165.45831298828125 439.29229736328125 168.70091247558594 446.21966552734375 C 172.15243530273438 452.18695068359375 176.04873657226562 456.80126953125 180.1829071044922 460.1479187011719 C 184.7811279296875 461.73614501953125 189.56625366210938 461.355712890625 194.6606903076172 459.5409851074219 C 199.5152130126953 455.663330078125 204.4874267578125 451.10638427734375 209.59368896484375 446.57672119140625 C 214.62274169921875 442.6752014160156 219.13259887695312 439.62109375 223.1738739013672 437.4107971191406 C 226.19651794433594 434.8719482421875 229.15362548828125 432.82928466796875 231.9921112060547 431.5381164550781 C 235.14541625976562 430.45904541015625 238.8861541748047 430.5443115234375 243.13453674316406 431.3658142089844 C 247.51760864257812 433.7537536621094 251.4384002685547 438.1737365722656 255.3509521484375 443.8174743652344 C 259.2088317871094 449.6444396972656 263.2082824707031 454.878173828125 267.4695739746094 457.8729553222656 C 271.8024597167969 458.4680480957031 275.74334716796875 456.5481262207031 278.9377746582031 452.5713195800781 C 281.7442321777344 446.0589294433594 284.7681884765625 439.1419677734375 288.4577331542969 432.14617919921875 C 292.8656921386719 426.0869445800781 296.565185546875 420.5605773925781 298.95263671875 415.56268310546875 C 299.35784912109375 411.1715087890625 298.1310729980469 407.6570129394531 295.05596923828125 405.2225646972656 C 289.6160888671875 403.9890441894531 283.1918640136719 403.2753601074219 275.733154296875 402.6944580078125 C 267.5566711425781 401.9394226074219 258.9349670410156 401.5340881347656 250.0811309814453 401.2437438964844 C 240.97677612304688 400.45562744140625 232.04049682617188 400.40966796875 223.29269409179688 400.2177429199219 C 214.79232788085938 400.4289245605469 206.7904815673828 399.495361328125 199.10824584960938 398.9714660644531 C 192.6357421875 397.57769775390625 187.94631958007812 393.4376525878906 183.95433044433594 389.3727111816406 C 181.347412109375 385.4394226074219 179.83651733398438 381.8677978515625 180.77993774414062 379.4126892089844 C 184.3037567138672 378.9335632324219 188.2294921875 380.8311462402344 193.96011352539062 381.4146728515625 C 199.23155212402344 382.74169921875 203.69825744628906 384.0228271484375 208.2059783935547 383.7115478515625 C 212.12351989746094 383.5945129394531 216.4003143310547 384.1894226074219 222.43711853027344 374.98272705078125" stroke-width="0.0" fill="rgb(247, 78, 6)" opacity="0.9994932" stroke="rgb(199, 144, 147)" stroke-opacity="0.72062534" stroke-linecap="round" stroke-linejoin="round"/>
    <path d="M 178.5380096435547 240.23849487304688 C 179.60704040527344 238.5708770751953 180.50238037109375 238.0379180908203 181.6438751220703 238.35977172851562 C 182.4237823486328 238.83160400390625 183.40921020507812 238.35952758789062 182.0487823486328 238.37570190429688 C 183.82066345214844 238.20144653320312 186.3672332763672 238.41664123535156 186.50425720214844 238.52401733398438 C 186.7455596923828 238.35215759277344 188.7202606201172 238.35508728027344 190.3251953125 238.69485473632812 C 191.5763397216797 239.42413330078125 193.8987579345703 240.1555633544922 195.78506469726562 240.8640899658203 C 196.99758911132812 241.62039184570312 198.57017517089844 241.6298828125 198.95237731933594 241.7552947998047 C 198.80540466308594 241.8577880859375 198.6945037841797 241.7982177734375 198.37257385253906 241.5784912109375 C 199.5763397216797 241.99501037597656 200.7753143310547 242.69052124023438 202.8404998779297 243.3759002685547 C 205.015380859375 243.6824493408203 208.36671447753906 243.47109985351562 211.36476135253906 244.7747802734375 C 213.6273956298828 245.21981811523438 215.88235473632812 245.0717010498047 214.6641387939453 246.36514282226562 C 210.97396850585938 246.54457092285156 207.003662109375 248.61740112304688 202.759033203125 253.0158233642578 C 199.53604125976562 258.2752990722656 196.4969482421875 264.4687805175781 194.5436248779297 271.0314636230469 C 194.5739288330078 278.7523498535156 193.40643310546875 285.7691345214844 191.6224365234375 291.9911804199219 C 192.4473419189453 295.522216796875 188.1182861328125 298.77850341796875 184.17828369140625 302.2218322753906 C 178.38998413085938 304.2752685546875 176.51930236816406 309.59100341796875 174.21046447753906 314.7897644042969 C 171.04054260253906 319.75775146484375 169.00460815429688 325.1515197753906 167.18954467773438 330.467041015625 C 164.14906311035156 335.2954406738281 163.69264221191406 341.1909484863281 161.23284912109375 345.81744384765625 C 159.34222412109375 351.3943786621094 158.238525390625 357.6591491699219 156.42137145996094 363.3170166015625 C 155.6013946533203 369.37591552734375 155.04690551757812 374.63671875 154.8437042236328 379.0781555175781 C 155.63107299804688 381.9225158691406 157.05174255371094 383.7335205078125 158.52027893066406 384.483642578125 C 159.6866455078125 384.3373718261719 160.649658203125 383.7134094238281 161.1466064453125 383.2143249511719 C 161.10516357421875 383.4803466796875 159.6815185546875 385.09234619140625 156.9070281982422 387.9227600097656 C 156.34303283691406 392.92486572265625 153.8012237548828 398.7198181152344 154.30946350097656 405.3323974609375 C 154.22494506835938 413.04400634765625 154.43507385253906 419.59539794921875 154.30653381347656 424.30926513671875 C 153.411865234375 424.55328369140625 153.2604522705078 420.8956298828125 153.7718505859375 415.6015930175781 C 152.39173889160156 409.8258972167969 152.285888671875 401.875244140625 151.7481689453125 398.3157958984375 C 140.4562530517578 398.55078125 132.3583221435547 396.9662170410156 125.59394073486328 391.9611511230469 C 119.01510620117188 387.238037109375 115.72129821777344 380.04302978515625 114.79849243164062 371.07696533203125 C 113.68134307861328 362.4782409667969 113.21161651611328 354.0423889160156 112.37523651123047 345.4988098144531 C 105.31280517578125 348.37359619140625 99.24542236328125 351.59661865234375 91.3238754272461 354.27716064453125 C 88.73836517333984 355.8682861328125 90.81399536132812 361.97735595703125 87.13538360595703 365.0539245605469 C 79.4507827758789 363.9057312011719 76.5505599975586 364.7884521484375 73.55884552001953 371.5823059082031 C 67.58466339111328 379.8484802246094 59.568050384521484 382.59716796875 58.90138626098633 390.46435546875 C 59.305511474609375 401.5501403808594 56.60531234741211 408.0050354003906 49.049381256103516 404.4371337890625 C 43.405364990234375 400.1746826171875 45.34141159057617 389.99835205078125 41.57123565673828 387.9278259277344 C 36.858489990234375 395.9261474609375 34.47998809814453 403.6712341308594 25.055513381958008 400.9457702636719 C 22.990127563476562 392.803466796875 15.960378646850586 392.2890930175781 8.787049293518066 389.85089111328125 C 10.328447341918945 378.446044921875 11.828816413879395 376.51800537109375 4.404390335083008 378.2801208496094 C -3.7142231464385986 376.6502685546875 -0.5546745657920837 371.95001220703125 4.959296226501465 362.1207275390625 C 11.195966720581055 352.3004455566406 18.571613311767578 345.2756042480469 21.42369270324707 339.2035217285156 C 15.829758644104004 328.7208557128906 14.33398151397705 321.2658386230469 24.506521224975586 319.1510009765625 C 31.129119873046875 323.6003723144531 36.491146087646484 330.88629150390625 43.54683303833008 330.361328125 C 46.73605728149414 323.1452941894531 48.21468734741211 317.572998046875 57.84329605102539 320.60076904296875 C 63.232666015625 313.7845764160156 69.13411712646484 306.0449523925781 77.24720764160156 299.7782287597656 C 84.09220123291016 293.45989990234375 90.57206726074219 289.11834716796875 95.62386322021484 285.7568664550781 C 99.19233703613281 283.3484802246094 102.35354614257812 284.65594482421875 104.52581787109375 287.0434265136719 C 107.21063232421875 289.7205810546875 110.03638458251953 294.33978271484375 114.32862854003906 298.0205993652344 C 118.1156005859375 302.2890930175781 120.39417266845703 307.9512634277344 121.51944732666016 313.3920593261719 C 121.30919647216797 319.2583312988281 121.03528594970703 323.978759765625 119.2160873413086 327.9507751464844 C 120.8390121459961 331.03143310546875 120.89554595947266 333.0507507324219 121.33758544921875 333.40576171875 C 122.94112396240234 333.34051513671875 124.87069702148438 331.0812072753906 127.45426177978516 332.7719421386719 C 130.44619750976562 331.5649719238281 134.7036590576172 331.4418029785156 138.5552520751953 332.06982421875 C 141.90142822265625 331.80126953125 144.76260375976562 329.85992431640625 147.66481018066406 327.668701171875 C 149.24937438964844 324.6545104980469 151.48036193847656 320.1079406738281 153.19615173339844 314.546875 C 154.9480438232422 308.045166015625 155.3480987548828 301.06243896484375 155.3631134033203 293.9934387207031 C 154.40029907226562 286.7716369628906 155.11798095703125 279.8128356933594 157.30274963378906 273.927734375 C 160.77418518066406 269.2603759765625 162.3936004638672 264.2669372558594 165.6695098876953 259.90435791015625 C 167.29042053222656 255.78665161132812 168.4810028076172 253.12832641601562 169.905029296875 247.29396057128906 C 167.71530151367188 244.09605407714844 165.8018035888672 243.7818603515625 165.19561767578125 243.1679229736328 C 165.65225219726562 241.02114868164062 164.86480712890625 239.9228515625 178.5380096435547 240.23849487304688" stroke-width="0.0" fill="rgb(153, 129, 180)" opacity="0.9999993" stroke="rgb(22, 147, 239)" stroke-opacity="0.70849067" stroke-linecap="round" stroke-linejoin="round"/>
    <path d="M 110.40327453613281 295.48272705078125 C 107.48614501953125 297.6993713378906 105.4259033203125 300.60052490234375 104.31254577636719 303.0923767089844 C 103.9331283569336 304.0548095703125 104.09062194824219 304.1910400390625 104.07315826416016 304.1720275878906 C 104.4390869140625 302.3086853027344 105.78042602539062 300.05242919921875 107.3808822631836 298.35382080078125 C 109.23639678955078 296.6648864746094 109.85639953613281 294.77288818359375 110.52919006347656 295.326416015625 C 112.49198913574219 297.67401123046875 114.1409912109375 299.2099609375 115.20128631591797 301.2996826171875 C 116.85013580322266 302.9624938964844 117.0093994140625 305.0673828125 116.52240753173828 306.3595275878906 C 115.42068481445312 307.7065734863281 115.01485443115234 308.8442077636719 115.73164367675781 307.4224548339844 C 114.84461212158203 307.9079284667969 115.5384521484375 308.03448486328125 117.30223846435547 305.3602294921875 C 118.40692138671875 305.4140930175781 119.03353881835938 306.97125244140625 119.52818298339844 308.3530578613281 C 119.9803695678711 310.7696228027344 121.98858642578125 312.2933044433594 121.42328643798828 315.17877197265625 C 123.2320556640625 316.21417236328125 123.59420013427734 318.2812805175781 124.24605560302734 319.79852294921875 C 124.42009735107422 321.1103210449219 124.62028503417969 322.2696228027344 125.1343994140625 323.2718200683594 C 125.00333404541016 324.614990234375 125.53311157226562 325.83123779296875 125.53860473632812 327.37548828125 C 125.65199279785156 329.26971435546875 126.13057708740234 331.3302307128906 125.04006958007812 332.5928039550781 C 122.44012451171875 333.64361572265625 121.0530776977539 335.00897216796875 119.65896606445312 336.1108703613281 C 117.51008605957031 337.2532958984375 115.57618713378906 339.2604675292969 113.23103332519531 339.9147033691406 C 111.4837646484375 341.00946044921875 109.47596740722656 341.9437561035156 107.73957824707031 343.0855712890625 C 106.20440673828125 343.9473571777344 104.68429565429688 344.7414245605469 103.06037902832031 345.9876403808594 C 101.802490234375 346.1488342285156 100.29765319824219 346.778564453125 99.50203704833984 347.7647705078125 C 97.3261489868164 348.2547302246094 95.37970733642578 349.18634033203125 93.0114517211914 350.4068908691406 C 90.34908294677734 351.4898681640625 87.43145751953125 352.7955017089844 84.8715591430664 352.9933776855469 C 84.39083862304688 347.9046936035156 82.88329315185547 344.4421081542969 83.69804382324219 343.23443603515625 C 86.33442687988281 340.2230224609375 87.78703308105469 337.9824523925781 88.12984466552734 338.3364562988281 C 87.70136260986328 338.6663818359375 87.8150863647461 337.34600830078125 87.82660675048828 338.0208435058594 C 87.02898406982422 339.2725524902344 85.67623138427734 340.86572265625 84.01419830322266 343.08734130859375 C 83.4286117553711 345.640625 80.72831726074219 344.99346923828125 78.71887969970703 342.6532897949219 C 78.87810516357422 337.5150451660156 76.55187225341797 334.7610778808594 71.3981704711914 334.2149353027344 C 69.37825775146484 333.15478515625 68.2332992553711 330.61273193359375 68.84918212890625 329.2876281738281 C 71.56529235839844 327.8062744140625 73.9007568359375 326.5723876953125 76.03282165527344 325.6456604003906 C 76.42868041992188 325.4007873535156 75.10745239257812 326.1025695800781 75.9582290649414 325.6649475097656 C 74.99174499511719 326.1593322753906 72.05150604248047 327.5440673828125 68.73944854736328 329.4773254394531 C 67.53856658935547 329.2015686035156 64.23247528076172 327.78009033203125 60.79658508300781 327.7834167480469 C 59.318538665771484 324.7739562988281 58.947425842285156 322.90789794921875 61.41263198852539 321.3361511230469 C 63.30717468261719 318.637451171875 65.46965026855469 316.11138916015625 67.63372039794922 313.864990234375 C 68.94155883789062 311.93170166015625 70.29190063476562 310.2922058105469 72.04093933105469 309.12353515625 C 72.88571166992188 307.7098388671875 74.36904907226562 306.4945068359375 75.98518371582031 304.93804931640625 C 77.28187561035156 303.97930908203125 78.94345092773438 302.84210205078125 79.84477996826172 301.04058837890625 C 81.3982925415039 300.03009033203125 82.96509552001953 299.11907958984375 84.0357894897461 297.62750244140625 C 85.34235382080078 296.187744140625 87.36427307128906 295.32318115234375 88.78902435302734 293.5128479003906 C 90.92154693603516 291.8710632324219 93.45059204101562 290.4213562011719 95.99785614013672 287.6793212890625 C 97.76795959472656 285.7461242675781 99.81591033935547 284.908203125 100.770263671875 285.7042236328125 C 100.20030975341797 290.67938232421875 100.03160095214844 292.97589111328125 99.35548400878906 292.8832702636719 C 99.75721740722656 294.4917907714844 99.16280364990234 294.0183410644531 100.1635513305664 291.3683776855469 C 100.9416732788086 287.318115234375 100.2649154663086 283.6712341308594 110.40327453613281 295.48272705078125" stroke-width="0.0" fill="rgb(252, 188, 101)" opacity="0.9998461" stroke="rgb(84, 53, 108)" stroke-opacity="0.49362096" stroke-linecap="round" stroke-linejoin="round"/>
    <path d="M 196.42694091796875 133.48602294921875 C 202.04904174804688 133.55345153808594 208.00987243652344 133.4887237548828 209.7327423095703 133.4646453857422 C 209.82723999023438 135.87232971191406 208.40234375 138.1952362060547 206.07623291015625 140.70448303222656 C 205.6677703857422 142.1252899169922 207.9212188720703 143.85040283203125 210.7109375 144.2592010498047 C 212.6772003173828 142.376953125 211.5382537841797 141.82176208496094 216.13400268554688 142.5662841796875 C 216.92721557617188 141.29393005371094 216.16769409179688 144.33367919921875 216.58079528808594 147.1717529296875 C 216.665771484375 150.66415405273438 216.29293823242188 153.96990966796875 217.1320037841797 154.89141845703125 C 216.91505432128906 154.4409637451172 213.0182342529297 154.5503692626953 212.6566619873047 154.5240936279297 C 207.9316864013672 154.44674682617188 202.50790405273438 154.4610595703125 198.3964385986328 154.48062133789062 C 198.27041625976562 154.49070739746094 197.2996063232422 154.5087127685547 194.97061157226562 155.95809936523438 C 196.99172973632812 153.36923217773438 196.4058074951172 151.3437957763672 196.44871520996094 147.98416137695312 C 196.64019775390625 145.3243408203125 196.2733917236328 142.01181030273438 196.6405487060547 139.09841918945312 C 196.47299194335938 136.8373565673828 195.73057556152344 135.1720428466797 197.5823974609375 136.59046936035156 C 201.6571044921875 136.337890625 203.00779724121094 137.13238525390625 196.42694091796875 133.48602294921875" stroke-width="0.0" fill="rgb(5, 3, 4)" opacity="0.9994337" stroke="rgb(4, 5, 165)" stroke-opacity="0.8826249" stroke-linecap="round" stroke-linejoin="round"/>
    <path d="M 317.5380859375 104.74920654296875 C 316.0267028808594 108.7120361328125 313.3910217285156 114.38087463378906 310.5469055175781 116.63156127929688 C 308.4134521484375 117.90436553955078 309.12445068359375 120.91343688964844 310.3736877441406 121.58666229248047 C 311.9099426269531 122.39491271972656 313.8915100097656 122.48050689697266 315.2496337890625 120.4728775024414 C 319.77984619140625 120.6456069946289 325.323974609375 120.37622833251953 330.0009460449219 120.39236450195312 C 330.226806640625 120.44678497314453 330.87109375 124.78507995605469 328.79998779296875 129.99588012695312 C 327.7406921386719 135.0726776123047 326.9231872558594 135.79881286621094 321.80218505859375 137.26547241210938 C 316.9233093261719 139.01116943359375 312.1289367675781 140.31427001953125 307.7536926269531 141.87928771972656 C 304.802734375 142.94920349121094 301.27008056640625 142.4541473388672 300.2915344238281 142.790771484375 C 299.6246032714844 140.56704711914062 297.1827087402344 138.6448516845703 295.8428039550781 135.57887268066406 C 293.7144775390625 131.78102111816406 291.7020568847656 127.8849105834961 291.71478271484375 122.6443099975586 C 291.4073181152344 118.17913055419922 292.8310852050781 114.51920318603516 294.59515380859375 111.78912353515625 C 297.2142333984375 108.94220733642578 296.5213317871094 102.82239532470703 317.5380859375 104.74920654296875" stroke-width="0.0" fill="rgb(23, 3, 4)" opacity="0.9993674" stroke="rgb(42, 191, 131)" stroke-opacity="0.7509132" stroke-linecap="round" stroke-linejoin="round"/>
    <path d="M 422.1165466308594 340.3952331542969 C 429.23748779296875 345.7197570800781 432.9097900390625 350.0791931152344 435.77008056640625 353.5057373046875 C 438.1871643066406 356.10162353515625 440.03753662109375 357.49407958984375 441.5775146484375 356.8485412597656 C 442.6119689941406 353.4814147949219 441.4951171875 351.0807800292969 438.7646179199219 347.0350341796875 C 435.2208251953125 340.94793701171875 434.6472473144531 337.2204284667969 440.8970947265625 339.3180847167969 C 440.22003173828125 345.38751220703125 443.5086975097656 348.5213928222656 444.794677734375 353.54168701171875 C 446.18316650390625 356.6545715332031 444.9382629394531 357.90899658203125 443.7576599121094 360.079345703125 C 442.1348876953125 360.49334716796875 440.4822082519531 361.19561767578125 438.3836975097656 361.1219482421875 C 436.30267333984375 360.6604309082031 435.496337890625 359.4808349609375 434.3871765136719 358.55078125 C 434.68212890625 357.83160400390625 434.16326904296875 357.58563232421875 432.8329162597656 356.7224426269531 C 431.5564880371094 355.0141906738281 430.6183776855469 352.6603698730469 429.5440368652344 352.5455627441406 C 429.6302490234375 352.01409912109375 429.529052734375 351.19525146484375 428.73785400390625 351.03265380859375 C 427.69891357421875 349.6308288574219 425.2975158691406 346.62908935546875 422.1165466308594 340.3952331542969" stroke-width="0.0" fill="rgb(67, 35, 22)" opacity="0.9998787" stroke="rgb(111, 65, 159)" stroke-opacity="0.7152889" stroke-linecap="round" stroke-linejoin="round"/>
    <path d="M 181.493408203125 474.48272705078125 C 185.50283813476562 475.36346435546875 188.5355987548828 474.6951904296875 191.42514038085938 475.1838073730469 C 193.56036376953125 474.9087219238281 193.14451599121094 475.8415832519531 192.79306030273438 476.1106262207031 C 193.04393005371094 476.1602783203125 193.2091522216797 475.98638916015625 192.57469177246094 475.0133972167969 C 193.1057586669922 475.3385009765625 194.29771423339844 475.71923828125 194.7099609375 474.9630432128906 C 196.7577667236328 475.69427490234375 199.12782287597656 475.0538330078125 201.54356384277344 475.1104431152344 C 204.06336975097656 475.06329345703125 206.47195434570312 475.0718994140625 208.61109924316406 475.04034423828125 C 210.34803771972656 474.7540588378906 211.81976318359375 475.1119384765625 211.96337890625 476.1172180175781 C 211.0993194580078 477.9201965332031 210.98387145996094 479.8120422363281 211.0399169921875 481.74481201171875 C 210.32855224609375 483.1875915527344 210.50762939453125 484.47406005859375 210.4874725341797 485.4010314941406 C 210.28111267089844 486.0954895019531 210.12847900390625 486.7928771972656 210.18133544921875 487.4812927246094 C 210.1200408935547 488.1404113769531 210.08975219726562 489.2424011230469 210.0661163330078 490.7640380859375 C 210.3057403564453 492.28936767578125 209.33749389648438 494.0403747558594 209.36744689941406 495.8666076660156 C 209.5068817138672 498.2120666503906 208.7179718017578 501.07086181640625 209.021484375 503.7813720703125 C 208.96139526367188 508.1287536621094 207.2976531982422 512.97314453125 217.83387756347656 513.6625366210938 C 220.212646484375 518.8180541992188 210.68484497070312 519.1455688476562 208.91455078125 528.5552368164062 C 204.9033966064453 533.0733642578125 198.14877319335938 535.8438720703125 192.61631774902344 534.4689331054688 C 192.06494140625 525.113037109375 188.78350830078125 521.6029052734375 189.34373474121094 517.3321533203125 C 189.0225372314453 514.158447265625 186.7493438720703 512.1874389648438 189.44403076171875 512.011474609375 C 190.03823852539062 513.3619384765625 188.63241577148438 516.8654174804688 189.85585021972656 521.7025756835938 C 191.7940216064453 530.2219848632812 194.56954956054688 536.8397827148438 190.6465301513672 536.50537109375 C 174.5787811279297 535.8096923828125 163.6494903564453 535.0335083007812 165.6350555419922 521.5768432617188 C 164.58953857421875 516.353515625 155.73751831054688 522.6923217773438 154.42477416992188 513.5574951171875 C 167.4129638671875 507.1765441894531 169.65394592285156 505.6211242675781 168.82278442382812 499.95330810546875 C 169.4636993408203 496.6595764160156 168.66297912597656 494.63592529296875 168.96640014648438 493.4703369140625 C 169.2686309814453 491.82275390625 169.2214813232422 489.1148986816406 169.1901092529297 487.09210205078125 C 169.554443359375 487.43359375 169.42198181152344 485.2747802734375 169.2487030029297 483.2550354003906 C 169.27549743652344 480.9485168457031 169.21304321289062 478.1859436035156 168.83641052246094 476.43341064453125 C 169.07675170898438 474.0212707519531 168.7953338623047 472.5231018066406 170.12644958496094 472.4347839355469 C 173.3816680908203 473.75244140625 176.460205078125 473.9830627441406 179.39234924316406 474.39764404296875 C 180.92764282226562 474.2601623535156 182.17141723632812 475.1632995605469 181.48193359375 475.9325256347656 C 181.5559844970703 477.5599060058594 181.72767639160156 478.6697998046875 181.493408203125 474.48272705078125" stroke-width="0.0" fill="rgb(252, 188, 102)" opacity="0.9997287" stroke="rgb(146, 36, 21)" stroke-opacity="0.11324212" stroke-linecap="round" stroke-linejoin="round"/>
    <path d="M 370.706298828125 270.8080749511719 C 374.9228515625 274.73699951171875 377.9126892089844 277.8845520019531 379.233642578125 279.81829833984375 C 377.2843017578125 283.1295166015625 377.5751953125 283.89862060546875 378.1322937011719 282.0350646972656 C 379.0066833496094 282.2086486816406 380.39239501953125 282.9391784667969 385.424072265625 281.0427551269531 C 385.8409423828125 283.2319641113281 388.01873779296875 285.8071594238281 387.1903076171875 287.64434814453125 C 385.9167175292969 289.4324035644531 385.2158508300781 290.9682312011719 384.2709655761719 291.01873779296875 C 382.8267822265625 291.61181640625 381.4376525878906 291.8286437988281 380.8201904296875 292.0216369628906 C 379.23187255859375 292.0572509765625 378.0392150878906 292.3229064941406 377.3791198730469 292.18182373046875 C 376.7672424316406 292.0629577636719 376.4520568847656 291.97283935546875 376.4383239746094 291.9702453613281 C 376.5972595214844 291.94915771484375 377.2398681640625 292.2187805175781 377.7615051269531 292.2659912109375 C 379.63116455078125 292.31597900390625 381.87286376953125 292.0981140136719 384.8876953125 290.7123107910156 C 386.5078430175781 288.595703125 389.0794982910156 288.8262634277344 393.9326477050781 289.234375 C 393.9632873535156 293.25213623046875 393.2970275878906 295.4620056152344 391.1639099121094 297.1069030761719 C 389.3352966308594 299.38592529296875 387.6141662597656 300.5494689941406 386.8592834472656 301.4814453125 C 386.199462890625 302.2391052246094 385.5564270019531 303.0852355957031 385.37646484375 303.40966796875 C 385.43798828125 303.3339538574219 385.6853332519531 302.7967224121094 386.1850280761719 302.0915222167969 C 386.7777404785156 301.6273498535156 387.7203369140625 300.42578125 389.1211853027344 299.3353576660156 C 390.623046875 298.0666198730469 391.9752197265625 296.24188232421875 394.7063903808594 290.9327697753906 C 396.5475158691406 292.3587646484375 398.4281921386719 292.6737060546875 402.6405944824219 294.3597106933594 C 402.3052673339844 299.0482177734375 402.31915283203125 300.640380859375 404.0680847167969 301.85528564453125 C 403.3348388671875 303.4370422363281 403.03955078125 304.515380859375 403.1207580566406 305.705078125 C 402.6796875 306.9471435546875 402.52886962890625 307.8641662597656 403.8360900878906 309.6690673828125 C 402.6241149902344 310.8709716796875 402.0090637207031 311.1468200683594 402.33087158203125 310.1111145019531 C 404.06793212890625 310.205078125 406.29241943359375 310.7371826171875 410.2165832519531 311.83404541015625 C 411.68231201171875 315.5422058105469 407.83892822265625 317.8703918457031 408.8787536621094 322.0954284667969 C 405.9221496582031 324.2676696777344 403.8310546875 326.2101135253906 401.3026123046875 327.7952880859375 C 397.70281982421875 326.6457214355469 395.1182861328125 326.5650939941406 392.4736022949219 326.4042663574219 C 390.34759521484375 326.9406433105469 388.6039733886719 326.39849853515625 386.34320068359375 326.1233215332031 C 386.2244567871094 323.0421142578125 386.5242004394531 321.8580322265625 386.76934814453125 321.66497802734375 C 386.9403076171875 321.4851989746094 386.80352783203125 322.1307373046875 386.83709716796875 323.99072265625 C 385.3670959472656 324.486328125 384.11968994140625 324.8753967285156 382.5033874511719 325.7225646972656 C 380.4538879394531 324.9674377441406 379.27362060546875 323.767822265625 377.85589599609375 323.6565856933594 C 377.4938659667969 323.0059509277344 376.7909240722656 323.133056640625 375.8554382324219 324.652587890625 C 374.9989318847656 323.0403747558594 374.04791259765625 322.6415710449219 373.2783203125 323.22357177734375 C 371.55279541015625 324.0433654785156 369.97503662109375 323.0906066894531 368.2558288574219 323.4233093261719 C 367.59783935546875 320.9381408691406 367.2486267089844 319.81488037109375 365.9752502441406 318.7769775390625 C 366.3844299316406 317.59344482421875 366.20770263671875 317.0466613769531 365.51324462890625 316.7785949707031 C 365.6295471191406 315.6558837890625 365.1914978027344 314.89239501953125 363.759765625 313.8371887207031 C 363.9843444824219 312.32843017578125 364.158447265625 311.22064208984375 363.038330078125 309.26422119140625 C 364.7812805175781 308.5106506347656 365.542236328125 307.4261474609375 365.2633361816406 306.6806945800781 C 366.072998046875 307.58831787109375 365.90972900390625 307.3055114746094 365.19903564453125 307.9464416503906 C 363.932861328125 309.09808349609375 361.95550537109375 310.2134704589844 354.8932189941406 311.83428955078125 C 353.4006652832031 306.5583801269531 354.0299987792969 304.50775146484375 356.50311279296875 302.869384765625 C 356.3243713378906 299.56915283203125 356.2060546875 297.94122314453125 358.2944641113281 296.6256408691406 C 357.7593994140625 294.4703674316406 359.6106872558594 293.8846435546875 359.73321533203125 291.7223815917969 C 360.9776306152344 289.83349609375 362.7052307128906 288.3191223144531 362.84429931640625 287.0757751464844 C 365.3279113769531 287.2218933105469 367.5181884765625 287.3517761230469 369.1531677246094 287.7189025878906 C 370.3530578613281 288.1282043457031 371.9636535644531 288.0223083496094 372.2866516113281 288.16748046875 C 372.3229064941406 288.0469970703125 372.35186767578125 287.9896545410156 372.2848815917969 288.0151062011719 C 370.8310241699219 288.083984375 368.629150390625 287.635498046875 364.98809814453125 287.19097900390625 C 362.1285705566406 287.1854553222656 358.96075439453125 286.069580078125 370.706298828125 270.8080749511719" stroke-width="0.0" fill="rgb(252, 189, 101)" opacity="0.99999607" stroke="rgb(220, 162, 176)" stroke-opacity="0.8538831" stroke-linecap="round" stroke-linejoin="round"/>
    <path d="M 289.094482421875 15.496265411376953 C 289.97808837890625 15.132214546203613 290.862060546875 14.801111221313477 291.7548522949219 14.546004295349121 C 292.603271484375 14.393851280212402 293.42584228515625 14.38731861114502 294.2717590332031 14.626659393310547 C 295.2176513671875 15.120173454284668 296.2967834472656 15.89176082611084 297.5787353515625 17.04179573059082 C 299.1351318359375 18.630552291870117 300.9757385253906 20.639963150024414 302.95721435546875 23.08736801147461 C 305.0479736328125 25.95895767211914 307.3128967285156 29.190500259399414 309.62420654296875 32.742332458496094 C 311.8326416015625 36.53001022338867 313.8987121582031 40.467308044433594 315.80010986328125 44.47332763671875 C 317.6391296386719 48.468475341796875 319.5330810546875 52.296722412109375 321.55181884765625 55.86179733276367 C 323.71429443359375 59.08909606933594 326.0271301269531 61.9710807800293 328.32940673828125 64.49212646484375 C 330.3514709472656 66.61807250976562 331.7216491699219 68.51586151123047 332.1615905761719 70.2645492553711 C 331.47088623046875 71.95722198486328 329.7648620605469 73.63070678710938 327.1162414550781 75.2893295288086 C 323.8209533691406 76.937744140625 320.2156066894531 78.62110900878906 316.49188232421875 80.36138153076172 C 312.8130187988281 82.20314025878906 309.345703125 84.16650390625 306.11004638671875 86.24642944335938 C 303.0310363769531 88.43571472167969 299.943115234375 90.60648345947266 296.65277099609375 92.61965942382812 C 293.050537109375 94.33158874511719 289.1799011230469 95.66758728027344 285.03387451171875 96.50269317626953 C 280.6142883300781 96.73211669921875 276.0538635253906 96.24153137207031 271.4294738769531 94.97374725341797 C 266.8310241699219 93.0807113647461 262.29425048828125 90.6429214477539 257.78900146484375 87.83955383300781 C 253.26539611816406 84.9803237915039 248.7567596435547 82.35897827148438 244.30824279785156 80.2389144897461 C 240.04495239257812 78.80365753173828 236.12826538085938 78.19803619384766 232.68040466308594 78.64676666259766 C 229.81005859375 80.229736328125 227.58950805664062 82.77259826660156 226.03163146972656 86.21260070800781 C 225.0372772216797 90.22303771972656 224.4649200439453 94.4530258178711 224.1310272216797 98.5645523071289 C 223.7584991455078 102.3371810913086 222.97293090820312 105.55252075195312 221.52182006835938 108.09366607666016 C 219.17662048339844 109.94428253173828 215.9091033935547 111.15177917480469 211.83370971679688 111.77481079101562 C 207.04505920410156 111.94730377197266 201.67041015625 111.81776428222656 195.89703369140625 111.4955062866211 C 189.93418884277344 111.00077056884766 183.9883270263672 110.43031311035156 178.20819091796875 109.88137817382812 C 172.7129364013672 109.4754867553711 167.60791015625 109.35192108154297 162.94606018066406 109.63809967041016 C 158.74729919433594 110.46620178222656 155.0797119140625 111.87342071533203 151.92623901367188 113.9188003540039 C 149.25404357910156 116.60774230957031 147.06658935546875 119.87947082519531 145.25411987304688 123.55242919921875 C 143.6734161376953 127.43004608154297 142.1173553466797 131.2841796875 140.37249755859375 134.89451599121094 C 138.4445343017578 138.2533416748047 136.32716369628906 141.42214965820312 134.08489990234375 144.5311279296875 C 131.93821716308594 147.7992401123047 130.0992431640625 151.3479766845703 128.7217559814453 155.2481689453125 C 127.89934539794922 159.5391387939453 127.44706726074219 164.14889526367188 127.14705657958984 168.89324951171875 C 126.77020263671875 173.5229949951172 126.05127716064453 177.8893585205078 124.77042388916016 181.74671936035156 C 122.70734405517578 185.015625 119.71137237548828 187.64112854003906 115.75194549560547 189.6133270263672 C 110.86381530761719 190.98292541503906 105.18437957763672 191.7952423095703 98.92431640625 192.11309814453125 C 92.46643829345703 192.07069396972656 86.12898254394531 191.5972137451172 80.17986297607422 190.55520629882812 C 74.86287689208984 188.89002990722656 70.47662353515625 186.6234130859375 67.24031066894531 183.79705810546875 C 65.18341064453125 180.4723358154297 64.2488021850586 176.7979278564453 64.41188049316406 172.97071838378906 C 65.50559997558594 169.1382293701172 67.32135772705078 165.34376525878906 69.54388427734375 161.63697814941406 C 71.90506744384766 157.86993408203125 74.21369934082031 154.04417419433594 76.32697296142578 150.0137481689453 C 78.10118103027344 145.75628662109375 79.56914520263672 141.31076049804688 80.84468841552734 136.65475463867188 C 81.98019409179688 131.82875061035156 83.21783447265625 126.97441101074219 84.74598693847656 122.29011535644531 C 86.60334777832031 117.90840911865234 88.9294662475586 113.90894317626953 91.59355163574219 110.32415008544922 C 94.36378479003906 107.0457992553711 97.20265197753906 104.04943084716797 100.06311798095703 101.29471588134766 C 102.8308334350586 98.69432067871094 105.52621459960938 96.14374542236328 108.1085433959961 93.4788589477539 C 110.55705261230469 90.67847442626953 113.04407501220703 87.79610443115234 115.65867614746094 84.74948120117188 C 118.5109634399414 81.5688247680664 121.56585693359375 78.28231811523438 124.7687759399414 74.93923950195312 C 128.13003540039062 71.56929016113281 131.64166259765625 68.20172882080078 135.2920379638672 64.84398651123047 C 138.94821166992188 61.487953186035156 142.60549926757812 58.1295166015625 146.2579345703125 54.789710998535156 C 149.7847900390625 51.419132232666016 153.1859588623047 47.94576644897461 156.490966796875 44.483768463134766 C 159.66546630859375 41.09915542602539 162.78355407714844 37.99979782104492 165.89962768554688 35.42479705810547 C 169.1007843017578 33.61787414550781 172.45614624023438 32.73575973510742 176.0148468017578 32.918704986572266 C 179.7650146484375 34.0978889465332 183.6589813232422 36.05322265625 187.71865844726562 38.513038635253906 C 191.97940063476562 41.162078857421875 196.42776489257812 43.689483642578125 200.98919677734375 45.75761413574219 C 205.57461547851562 47.110389709472656 210.052001953125 47.57844924926758 214.362060546875 47.022247314453125 C 218.44976806640625 45.54975509643555 222.2542724609375 43.24042510986328 225.77951049804688 40.270965576171875 C 229.0712890625 36.84825897216797 232.20086669921875 33.26982116699219 235.29542541503906 29.771936416625977 C 238.45858764648438 26.532907485961914 241.73487854003906 23.611631393432617 245.30152893066406 21.06513214111328 C 249.3636932373047 19.074527740478516 253.85733032226562 17.558162689208984 258.84259033203125 16.464435577392578 C 264.26776123046875 15.771358489990234 270.0548095703125 15.47412109375 276.07421875 15.42914867401123 C 282.228515625 15.519695281982422 288.419921875 15.702959060668945 289.094482421875 15.496265411376953" stroke-width="0.0" fill="rgb(61, 39, 36)" opacity="0.99953663" stroke="rgb(134, 50, 88)" stroke-opacity="0.20034397" stroke-linecap="round" stroke-linejoin="round"/>
    <path d="M 304.00360107421875 535.2525634765625 C 306.9907531738281 537.8731689453125 309.88385009765625 539.6320190429688 312.4371643066406 540.6829833984375 C 314.03314208984375 541.6114501953125 315.1950988769531 541.7001953125 316.14337158203125 541.7152709960938 C 316.904052734375 541.8756103515625 317.5257263183594 542.15771484375 318.1424865722656 542.351806640625 C 318.7108459472656 542.8017578125 318.97564697265625 543.248779296875 319.1571044921875 543.4271850585938 C 319.48187255859375 543.30322265625 319.7055358886719 543.3493041992188 320.05523681640625 543.906982421875 C 321.337158203125 544.8175659179688 323.88372802734375 546.1572875976562 328.2424011230469 547.6759643554688 C 333.4969177246094 549.7925415039062 338.44891357421875 553.3323364257812 341.15460205078125 557.4475708007812 C 341.00311279296875 560.0150146484375 338.7860107421875 558.8978271484375 335.16900634765625 555.3729858398438 C 331.4814453125 552.82080078125 327.9508361816406 551.4113159179688 324.64276123046875 550.2222290039062 C 322.4388732910156 549.0497436523438 320.46270751953125 548.3535766601562 319.1134033203125 547.47900390625 C 318.1204833984375 546.6205444335938 317.1943664550781 545.9971923828125 316.5331726074219 545.4009399414062 C 316.118896484375 544.7061157226562 315.35089111328125 544.432373046875 314.3612365722656 544.4275512695312 C 313.2259216308594 544.1680908203125 311.90362548828125 544.2186279296875 310.5225524902344 544.5193481445312 C 309.41082763671875 544.46826171875 308.73345947265625 543.9089965820312 308.2862548828125 543.2945556640625 C 307.98345947265625 542.9361572265625 307.6256103515625 542.8090209960938 306.947509765625 542.7501831054688 C 306.109375 542.030517578125 304.4027404785156 539.8020629882812 300.3045654296875 536.41015625 C 292.0448303222656 532.427490234375 283.134765625 525.2221069335938 304.00360107421875 535.2525634765625" stroke-width="0.0" fill="rgb(80, 49, 43)" opacity="0.9998948" stroke="rgb(247, 171, 10)" stroke-opacity="0.39002186" stroke-linecap="round" stroke-linejoin="round"/>
    <path d="M 244.5419464111328 469.4925842285156 C 244.58639526367188 469.3958740234375 244.6436004638672 469.34735107421875 244.83053588867188 469.35894775390625 C 245.1513671875 469.3934326171875 245.6468505859375 469.5070495605469 246.3916015625 469.7153625488281 C 247.34375 469.9219055175781 248.46849060058594 470.1881408691406 249.70101928710938 470.4910888671875 C 250.95230102539062 470.7594909667969 252.17306518554688 470.986083984375 253.32717895507812 471.17755126953125 C 254.3964080810547 471.3456115722656 255.3480987548828 471.4404296875 256.19873046875 471.5496826171875 C 257.0310974121094 471.6418151855469 257.9414978027344 471.75201416015625 258.8844299316406 471.88818359375 C 260.08050537109375 471.95697021484375 261.5514221191406 472.01470947265625 263.3237609863281 472.1148681640625 C 265.4883117675781 472.2038269042969 268.07696533203125 472.3068542480469 271.0136413574219 472.42218017578125 C 274.2405090332031 472.51556396484375 277.57061767578125 472.5612487792969 280.7833557128906 472.5439758300781 C 283.6376953125 472.4615478515625 285.88946533203125 472.6172790527344 287.26788330078125 473.4231262207031 C 287.6366271972656 475.1165771484375 287.4111022949219 477.4007263183594 286.9769287109375 480.07220458984375 C 286.600341796875 482.9871520996094 286.24346923828125 486.0335388183594 285.83831787109375 489.16253662109375 C 285.399169921875 492.3608093261719 284.9903259277344 495.6730041503906 284.626220703125 499.08856201171875 C 284.2359924316406 502.4156494140625 283.9137268066406 505.3196716308594 284.0569763183594 507.4705505371094 C 285.06573486328125 508.4940185546875 287.02001953125 508.4935302734375 289.5370178222656 508.1436767578125 C 292.3532409667969 508.01263427734375 295.1170349121094 508.2996826171875 297.6044006347656 508.97027587890625 C 299.5486145019531 509.9905700683594 300.79888916015625 511.3718566894531 301.4001159667969 512.906494140625 C 301.4090881347656 514.2703247070312 300.7906494140625 515.2674560546875 299.60101318359375 515.7828369140625 C 298.0653991699219 515.8491821289062 296.2961730957031 515.8162231445312 294.50836181640625 516.0153198242188 C 293.0403747558594 516.9129638671875 291.79608154296875 518.366455078125 290.4554138183594 519.9449462890625 C 288.7375183105469 521.220703125 286.64068603515625 521.7286376953125 284.48486328125 521.2745361328125 C 282.787841796875 520.3182983398438 281.9831848144531 520.3015747070312 282.07135009765625 521.7793579101562 C 281.99945068359375 524.2994384765625 280.7512512207031 527.2114868164062 277.8787841796875 529.9255981445312 C 273.75006103515625 531.6785278320312 269.30279541015625 533.1500244140625 264.6689147949219 533.8270263671875 C 259.79168701171875 534.0620727539062 255.09130859375 533.8409423828125 251.13796997070312 533.0576171875 C 248.47402954101562 531.17919921875 247.03866577148438 528.2235107421875 246.3653564453125 524.8406982421875 C 245.49375915527344 521.8244018554688 244.50367736816406 519.5474243164062 243.75279235839844 518.0916137695312 C 243.79983520507812 517.5523071289062 244.33380126953125 517.8426513671875 245.03829956054688 518.4989013671875 C 245.58953857421875 519.5733642578125 245.87371826171875 521.1920166015625 245.84779357910156 523.3285522460938 C 245.55502319335938 525.5880126953125 244.4929656982422 527.6282348632812 242.43165588378906 529.1889038085938 C 240.1092071533203 530.765869140625 238.17572021484375 532.8699951171875 236.83470153808594 535.7314453125 C 235.6958770751953 538.9086303710938 234.71424865722656 542.1837768554688 234.05258178710938 545.5724487304688 C 233.8081512451172 549.1248168945312 234.02781677246094 552.7573852539062 234.5497589111328 556.3221435546875 C 235.0912628173828 559.6296997070312 235.49102783203125 562.6929321289062 235.61260986328125 565.3268432617188 C 235.613525390625 567.3589477539062 235.591064453125 568.6524658203125 235.55503845214844 569.1087036132812 C 235.5798797607422 568.7774658203125 235.62437438964844 567.6953735351562 235.62486267089844 565.8925170898438 C 235.51783752441406 563.5872802734375 235.24935913085938 560.899169921875 234.82034301757812 557.9299926757812 C 234.21231079101562 554.8662719726562 234.04022216796875 551.6744384765625 234.28140258789062 548.265869140625 C 234.40512084960938 544.7622680664062 234.93377685546875 541.2100830078125 236.11685180664062 537.79248046875 C 237.84707641601562 534.5109252929688 239.39138793945312 531.2924194335938 240.14013671875 527.92724609375 C 240.38941955566406 524.6526489257812 240.2251739501953 521.910400390625 239.0948486328125 520.1932373046875 C 236.6764373779297 519.8546752929688 233.8248748779297 519.9763793945312 231.2030792236328 519.5127563476562 C 229.45079040527344 518.0784912109375 229.11643981933594 515.984375 230.4262237548828 513.5980224609375 C 232.892333984375 511.28302001953125 236.0195770263672 509.29168701171875 239.3155059814453 507.79754638671875 C 242.42941284179688 507.0703125 245.40736389160156 507.5379943847656 248.35630798339844 508.7283935546875 C 251.36480712890625 509.9825439453125 254.43499755859375 511.1086120605469 257.5206604003906 511.9524230957031 C 260.6462097167969 512.5498657226562 263.7912902832031 512.8861083984375 266.9225158691406 512.9064331054688 C 270.0495910644531 512.8877563476562 273.1358947753906 512.7445678710938 276.15081787109375 512.3529052734375 C 278.9466857910156 511.7111511230469 281.3223876953125 510.8905944824219 283.0929870605469 510.0743408203125 C 284.0146484375 509.44305419921875 283.8866271972656 509.0806884765625 282.78094482421875 509.1246643066406 C 280.79730224609375 509.655517578125 278.03973388671875 510.3979797363281 274.6246337890625 511.1485290527344 C 270.74639892578125 511.5623474121094 266.63427734375 511.6531982421875 262.4622802734375 511.3973693847656 C 258.4690246582031 510.74072265625 254.77989196777344 509.84356689453125 251.45803833007812 508.6864318847656 C 248.56822204589844 507.5633239746094 246.28012084960938 506.51007080078125 244.71090698242188 505.33544921875 C 243.95631408691406 503.8977355957031 243.83639526367188 502.3592224121094 244.10873413085938 500.6725769042969 C 244.4845428466797 498.886474609375 244.8459930419922 497.00250244140625 245.1519775390625 494.9493408203125 C 245.37646484375 492.7885437011719 245.56707763671875 490.4626159667969 245.73703002929688 488.04473876953125 C 245.89599609375 485.5336608886719 246.08811950683594 482.9822082519531 246.2846221923828 480.46026611328125 C 246.52313232421875 478.03656005859375 246.75677490234375 475.72613525390625 246.99581909179688 473.4794006347656 C 247.27919006347656 471.27288818359375 247.61993408203125 469.1045227050781 244.5419464111328 469.4925842285156" stroke-width="0.0" fill="rgb(249, 189, 106)" opacity="0.9996914" stroke="rgb(144, 127, 175)" stroke-opacity="0.69521296" stroke-linecap="round" stroke-linejoin="round"/>
    <path d="M 19.937314987182617 323.0982360839844 C 20.77177619934082 323.0005187988281 21.62551498413086 322.8701477050781 22.51412010192871 322.7165832519531 C 23.375886917114258 322.6087341308594 24.280296325683594 322.6645812988281 25.116647720336914 322.901123046875 C 25.873279571533203 323.2623596191406 26.520828247070312 323.7386474609375 27.056026458740234 324.1976013183594 C 27.459003448486328 324.5823059082031 27.80249786376953 324.9353942871094 28.099863052368164 325.2083740234375 C 28.34356689453125 325.4416198730469 28.605491638183594 325.7139587402344 28.855056762695312 325.99468994140625 C 29.144084930419922 326.3550109863281 29.482440948486328 326.7696228027344 29.867145538330078 327.199462890625 C 30.33112335205078 327.6756896972656 30.7609920501709 328.0823974609375 31.23224639892578 328.4546203613281 C 31.62581443786621 328.8231506347656 31.96686363220215 329.15484619140625 32.22869873046875 329.4270324707031 C 32.40011215209961 329.6537170410156 32.51237106323242 329.8501281738281 32.62319564819336 330.0140075683594 C 32.77532196044922 330.13140869140625 33.000972747802734 330.2926940917969 33.37149429321289 330.5348815917969 C 33.861995697021484 330.81317138671875 34.48429489135742 331.149658203125 35.227352142333984 331.556396484375 C 36.05058288574219 331.9191589355469 36.912750244140625 332.23907470703125 37.83126449584961 332.52447509765625 C 38.754302978515625 332.7127685546875 39.633026123046875 332.9242858886719 40.48580551147461 333.13580322265625 C 41.372520446777344 333.2898864746094 42.28800582885742 333.388916015625 43.21297073364258 333.4650573730469 C 44.21125030517578 333.48095703125 45.2303352355957 333.3692932128906 46.27430725097656 333.1470947265625 C 47.32890701293945 332.9176330566406 48.35900115966797 332.77349853515625 49.35205078125 332.7145080566406 C 50.33104705810547 332.7012939453125 51.27193832397461 332.7884826660156 52.190155029296875 332.95361328125 C 53.12139129638672 333.0544128417969 54.022491455078125 333.19378662109375 54.824275970458984 333.51287841796875 C 55.5162353515625 334.0630187988281 56.01179122924805 334.7908020019531 56.40330123901367 335.65478515625 C 56.792205810546875 336.62762451171875 57.30097961425781 337.551513671875 57.91730880737305 338.3598937988281 C 58.649959564208984 339.0672607421875 59.404136657714844 339.65777587890625 60.13440704345703 340.1072082519531 C 60.83540725708008 340.4034729003906 61.49968719482422 340.54339599609375 62.148223876953125 340.5419921875 C 62.734031677246094 340.489501953125 63.26676940917969 340.4977722167969 63.726966857910156 340.56793212890625 C 64.18400573730469 340.7034606933594 64.56331634521484 340.965576171875 64.84185028076172 341.3006286621094 C 65.08995819091797 341.7140197753906 65.32455444335938 342.1706237792969 65.55696868896484 342.70465087890625 C 65.87348937988281 343.33819580078125 66.33527374267578 344.0480651855469 67.01416015625 344.8516540527344 C 67.98258972167969 345.8235168457031 69.21759796142578 346.94061279296875 70.56690216064453 348.3421936035156 C 71.8663558959961 350.1689147949219 73.17110443115234 352.2947692871094 74.5096664428711 354.5732727050781 C 75.543212890625 356.9750061035156 75.85641479492188 359.55645751953125 75.37073516845703 362.29425048828125 C 74.09539794921875 365.09417724609375 72.34092712402344 367.8292236328125 70.37881469726562 370.4952087402344 C 68.22257232666016 372.9976806640625 66.09461975097656 375.30889892578125 64.00725555419922 377.3468933105469 C 61.896240234375 378.9739074707031 59.914608001708984 380.2372131347656 58.26298522949219 381.3586730957031 C 57.05386734008789 382.5656433105469 56.447689056396484 383.9562683105469 56.2559928894043 385.61053466796875 C 56.23945999145508 387.4178771972656 56.30000305175781 389.3949279785156 56.362327575683594 391.5802307128906 C 56.37416076660156 393.8946838378906 56.19390106201172 396.2205505371094 55.65016174316406 398.3652648925781 C 54.560386657714844 400.0442810058594 53.01277160644531 401.0396423339844 51.30657196044922 401.1811828613281 C 49.7261962890625 400.3215637207031 48.55965805053711 398.65277099609375 47.860294342041016 396.46502685546875 C 47.326377868652344 394.0109558105469 46.85197830200195 391.4468994140625 46.38629150390625 388.88592529296875 C 45.86560821533203 386.5013427734375 45.23134231567383 384.36981201171875 44.43996047973633 382.7762756347656 C 43.37239074707031 382.00408935546875 42.172607421875 382.1002502441406 40.86137008666992 383.0737609863281 C 39.49192428588867 384.79437255859375 38.1369743347168 387.04083251953125 36.726322174072266 389.5052795410156 C 35.212982177734375 391.947998046875 33.65817642211914 394.27008056640625 32.04448699951172 396.231201171875 C 30.431838989257812 397.6510925292969 28.819313049316406 398.2776794433594 27.305835723876953 398.0335998535156 C 26.154993057250977 396.88519287109375 25.474760055541992 394.9284362792969 25.17536735534668 392.4609680175781 C 24.817108154296875 389.9682312011719 23.76972198486328 388.0845031738281 21.759477615356445 387.20220947265625 C 19.044750213623047 387.39178466796875 16.296960830688477 387.6484680175781 14.13164234161377 387.2193603515625 C 13.083491325378418 385.6981201171875 13.25596809387207 383.4251403808594 14.39274787902832 380.7056579589844 C 16.00032615661621 377.8875732421875 17.3515567779541 375.1157531738281 17.98862648010254 372.65350341796875 C 17.460580825805664 370.86480712890625 15.911139488220215 370.0211181640625 13.76729965209961 370.4019470214844 C 11.453668594360352 371.962890625 9.209896087646484 373.6878967285156 7.208339214324951 374.8010559082031 C 5.5598015785217285 375.1502380371094 4.377691268920898 374.9263610839844 3.697611093521118 374.2882385253906 C 3.3818514347076416 373.297607421875 3.3573031425476074 371.9986572265625 3.6469719409942627 370.4513244628906 C 4.304760932922363 368.6457214355469 5.382047653198242 366.5887145996094 6.833611965179443 364.1819763183594 C 8.73437213897705 361.496337890625 10.935981750488281 358.623291015625 13.294631004333496 355.5865173339844 C 15.791059494018555 352.5330810546875 18.314085006713867 349.6275634765625 20.87405776977539 347.0970458984375 C 23.309852600097656 345.0481262207031 25.086801528930664 343.2605285644531 25.781103134155273 341.4189453125 C 25.105998992919922 339.3570251464844 23.697559356689453 337.1522521972656 22.173376083374023 334.79559326171875 C 20.93756103515625 332.3708190917969 20.141948699951172 330.0986328125 19.791746139526367 328.10052490234375 C 19.90872573852539 326.4803771972656 20.40480613708496 325.27239990234375 21.245452880859375 324.4729309082031 C 22.322635650634766 323.9963073730469 23.48691177368164 323.65826416015625 19.937314987182617 323.0982360839844" stroke-width="0.0" fill="rgb(249, 187, 103)" opacity="0.9996249" stroke="rgb(103, 242, 48)" stroke-opacity="0.9142832" stroke-linecap="round" stroke-linejoin="round"/>
  </g>
</svg>
