<?xml version="1.0" ?>
<svg xmlns="http://www.w3.org/2000/svg" version="1.1" width="474" height="596">
  <defs/>
  <g>
    <path d="M 266.35675048828125 -0.9956177473068237 C 268.5002136230469 -1.2308497428894043 270.424560546875 -1.776593804359436 272.0423889160156 -2.487640857696533 C 273.31695556640625 -3.11454439163208 274.2166748046875 -3.543182373046875 274.69049072265625 -3.914310932159424 C 274.67205810546875 -3.9892468452453613 274.5667419433594 -3.927814483642578 274.5716857910156 -3.833155393600464 C 274.8716125488281 -3.7199087142944336 275.73052978515625 -3.479203701019287 277.54986572265625 -2.81679630279541 C 280.6014099121094 -1.5362401008605957 285.2211608886719 0.4444993734359741 291.92852783203125 2.434133768081665 C 300.79766845703125 4.511332035064697 309.86932373046875 7.68903112411499 318.3623962402344 10.94625186920166 C 326.5190124511719 14.421248435974121 334.4786376953125 18.33279037475586 342.28546142578125 22.816967010498047 C 350.2620544433594 27.53799819946289 358.29998779296875 33.088829040527344 366.29241943359375 39.34283447265625 C 374.3915710449219 46.11897659301758 382.59619140625 53.47068405151367 390.3980712890625 61.46754837036133 C 397.6952819824219 69.47191619873047 404.3205261230469 77.71569061279297 410.5 85.80580139160156 C 416.09423828125 93.52892303466797 421.37481689453125 101.60750579833984 426.5801696777344 110.34544372558594 C 432.0437927246094 118.24658203125 434.7318115234375 125.59768676757812 433.0849304199219 133.64808654785156 C 429.3332214355469 142.46096801757812 424.0312194824219 150.9711456298828 417.6512145996094 158.92352294921875 C 411.1670837402344 166.92349243164062 403.9070129394531 174.4261474609375 396.3106384277344 181.59945678710938 C 388.58551025390625 188.43307495117188 380.80023193359375 194.74826049804688 372.80224609375 200.6268768310547 C 364.876953125 206.34869384765625 356.9866638183594 211.50396728515625 348.8047180175781 216.2561798095703 C 338.6431884765625 221.0620880126953 327.03765869140625 224.32518005371094 317.2854919433594 225.8456268310547 C 314.296630859375 223.47169494628906 317.0348815917969 218.0359344482422 323.50909423828125 211.26193237304688 C 331.7276306152344 204.83819580078125 340.00714111328125 197.9150390625 347.330078125 190.2527618408203 C 353.4340515136719 182.16554260253906 358.3092041015625 174.1258544921875 362.02264404296875 166.3378448486328 C 364.7393798828125 158.6450653076172 366.7163391113281 150.97024536132812 367.97540283203125 143.15121459960938 C 368.2303466796875 135.10679626464844 367.5107727050781 126.986083984375 365.5262145996094 119.10507202148438 C 362.27935791015625 112.07608795166016 357.6667785644531 106.45244598388672 351.8025817871094 102.6634292602539 C 344.9751892089844 101.11799621582031 337.385009765625 101.15351867675781 329.3047180175781 101.5788345336914 C 321.44635009765625 100.29220581054688 313.7946472167969 100.39606475830078 306.1069030761719 103.14820861816406 C 297.8038330078125 106.51692199707031 289.2722473144531 109.49117279052734 280.6981506347656 111.1886215209961 C 272.2852783203125 111.24534606933594 264.38079833984375 109.82450103759766 257.4622497558594 107.4979248046875 C 252.00262451171875 105.22608184814453 248.12562561035156 103.70994567871094 245.77517700195312 103.58680725097656 C 244.84066772460938 105.16912078857422 244.28024291992188 108.12853240966797 242.80859375 112.04972839355469 C 239.02793884277344 116.39815521240234 232.8011016845703 120.78014373779297 224.51571655273438 124.938720703125 C 214.88162231445312 128.57345581054688 204.68356323242188 131.45285034179688 194.60939025878906 133.5503692626953 C 185.29037475585938 135.06661987304688 177.25624084472656 136.12586975097656 170.7401885986328 136.95553588867188 C 165.705810546875 137.83316040039062 161.9416961669922 139.04405212402344 159.1028289794922 140.88821411132812 C 156.81716918945312 143.67979431152344 154.8069610595703 147.64291381835938 152.82281494140625 152.9661865234375 C 150.68212890625 159.67039489746094 148.76551818847656 167.28390502929688 147.49180603027344 175.3607177734375 C 147.2445068359375 183.5814208984375 148.43373107910156 191.7283172607422 151.02439880371094 199.5599365234375 C 155.18304443359375 206.98593139648438 160.8910675048828 214.08509826660156 167.973388671875 220.6932373046875 C 176.373779296875 226.80392456054688 185.8194580078125 232.16925048828125 195.68328857421875 236.35855102539062 C 205.03952026367188 239.2972412109375 212.92678833007812 241.54110717773438 218.25027465820312 243.61740112304688 C 220.22210693359375 245.15109252929688 218.28904724121094 246.25888061523438 213.23077392578125 247.0382537841797 C 206.07469177246094 247.39382934570312 197.396240234375 246.86257934570312 187.95140075683594 245.5245819091797 C 178.423095703125 243.81112670898438 169.1397247314453 242.1639404296875 160.28683471679688 240.9121551513672 C 152.00955200195312 240.8065948486328 144.11843872070312 240.4791259765625 136.4512481689453 239.52041625976562 C 128.86024475097656 238.2737274169922 121.1575927734375 236.58909606933594 113.20110321044922 234.6553955078125 C 105.3401107788086 232.42808532714844 97.5277328491211 229.7360382080078 89.43739318847656 226.5882110595703 C 80.91320037841797 223.4828338623047 72.5468978881836 219.64791870117188 64.92769622802734 215.17080688476562 C 58.13724136352539 211.49435424804688 54.139469146728516 206.31019592285156 53.32351303100586 198.83302307128906 C 53.83557891845703 189.38490295410156 54.300384521484375 179.35963439941406 56.712928771972656 169.88897705078125 C 58.230873107910156 160.805908203125 60.018795013427734 152.43487548828125 62.49101638793945 144.82965087890625 C 64.82987976074219 136.9152374267578 67.6076431274414 128.86285400390625 71.2981185913086 121.05974578857422 C 74.83905029296875 112.99105072021484 78.76290130615234 104.93511199951172 83.31832885742188 97.37919616699219 C 88.57646179199219 89.44940948486328 93.70832061767578 80.95148468017578 100.18376922607422 73.47235107421875 C 106.87114715576172 65.28876495361328 114.43585968017578 57.202884674072266 122.91831970214844 49.866302490234375 C 130.9593963623047 42.85433578491211 139.54396057128906 36.478511810302734 147.94961547851562 30.56689453125 C 155.625 26.380823135375977 163.00601196289062 24.3492374420166 170.7172393798828 23.936140060424805 C 178.29269409179688 23.484895706176758 186.56298828125 24.587800979614258 195.1304473876953 26.103456497192383 C 203.1181182861328 27.898527145385742 209.27163696289062 30.446014404296875 214.47702026367188 29.134532928466797 C 219.2424774169922 29.398279190063477 223.28994750976562 29.504350662231445 227.12884521484375 26.054155349731445 C 233.4004364013672 18.824003219604492 241.1793975830078 11.79385757446289 249.80877685546875 7.047240734100342 C 258.10589599609375 3.008138656616211 266.61846923828125 -0.3372035026550293 266.35675048828125 -0.9956177473068237" stroke-width="0.0" fill="rgb(64, 38, 30)" opacity="0.9999931" stroke="rgb(75, 76, 114)" stroke-opacity="0.6093165" stroke-linecap="round" stroke-linejoin="round"/>
    <path d="M 316.30047607421875 243.27561950683594 C 336.8663635253906 247.60609436035156 355.357666015625 255.8766632080078 371.8623962402344 269.708984375 C 391.9351501464844 279.8187255859375 406.4132995605469 288.333251953125 413.3371887207031 290.472412109375 C 412.4250183105469 289.46990966796875 404.2995910644531 290.3677673339844 391.9326171875 292.54095458984375 C 379.90789794921875 293.08837890625 373.2251281738281 292.4119873046875 376.18206787109375 292.32794189453125 C 391.7153015136719 291.5927429199219 415.0185546875 292.6788635253906 438.4665832519531 298.5216979980469 C 451.00689697265625 315.2464599609375 449.8683166503906 335.4797668457031 439.4430236816406 350.31622314453125 C 427.7171936035156 350.8246154785156 413.2654113769531 339.91033935546875 393.3028564453125 330.4722595214844 C 369.3584289550781 326.6543273925781 347.57354736328125 321.3697814941406 331.43792724609375 322.6045837402344 C 323.0387268066406 332.0444030761719 321.56549072265625 346.8685302734375 323.404052734375 363.7857971191406 C 319.5968933105469 380.3200378417969 312.9866638183594 397.61676025390625 306.81439208984375 416.8211364746094 C 300.4566345214844 437.1759338378906 294.4165954589844 457.6331787109375 289.6794128417969 476.9999084472656 C 287.387939453125 494.213134765625 287.78643798828125 508.2135925292969 289.0463562011719 518.1400756835938 C 287.7870788574219 523.5484008789062 281.4295959472656 524.9386596679688 270.3351745605469 524.2465209960938 C 256.9112854003906 523.9462890625 244.36593627929688 526.743408203125 235.85647583007812 535.4602661132812 C 233.59609985351562 550.6634521484375 238.7529296875 565.7573852539062 252.59738159179688 576.5335693359375 C 271.40106201171875 582.0772094726562 292.44970703125 579.751708984375 313.817138671875 573.50927734375 C 332.1208190917969 568.427490234375 342.7602233886719 567.6784057617188 343.0353088378906 573.76318359375 C 332.6484375 581.771484375 314.3082580566406 585.46240234375 291.1144714355469 584.4088134765625 C 267.7043151855469 583.5372314453125 248.173095703125 582.62646484375 236.1963653564453 575.004150390625 C 231.38967895507812 561.3262329101562 233.0930633544922 543.1048583984375 237.289794921875 522.4077758789062 C 241.89413452148438 502.239501953125 244.12088012695312 484.6243591308594 240.37818908691406 471.1783752441406 C 231.99424743652344 463.1261901855469 227.70074462890625 463.1721496582031 225.6071014404297 471.5589599609375 C 217.23675537109375 477.743408203125 205.80006408691406 481.2454833984375 194.95701599121094 483.0740661621094 C 187.00631713867188 483.8070983886719 182.68650817871094 484.5881652832031 182.63677978515625 486.47216796875 C 187.17861938476562 490.4337158203125 195.50318908691406 497.3605651855469 205.21641540527344 508.1606750488281 C 212.41720581054688 523.6572265625 215.36668395996094 543.71923828125 216.91433715820312 565.6289672851562 C 220.80062866210938 582.9895629882812 214.09326171875 589.2127685546875 193.3224334716797 586.2666625976562 C 171.15830993652344 592.8187866210938 150.50732421875 598.6705932617188 131.7283477783203 595.2416381835938 C 117.81623077392578 590.409423828125 114.29106903076172 582.1314697265625 119.68441772460938 576.23876953125 C 131.90237426757812 580.8845825195312 148.54971313476562 583.8839721679688 168.41064453125 582.2559814453125 C 188.27980041503906 579.7950439453125 204.23666381835938 577.3262329101562 213.3690643310547 570.2930908203125 C 214.09921264648438 556.6865844726562 212.1841278076172 542.049560546875 207.37655639648438 530.6681518554688 C 198.86964416503906 524.6417846679688 189.30487060546875 523.024658203125 180.78285217285156 523.9021606445312 C 174.23574829101562 524.5196533203125 169.70486450195312 522.62890625 167.0865478515625 516.8961181640625 C 166.36814880371094 506.8401184082031 166.7215118408203 493.0672607421875 165.6072998046875 476.3163757324219 C 161.39845275878906 457.5268859863281 157.3519744873047 437.5272521972656 154.67312622070312 417.21685791015625 C 151.10696411132812 398.02056884765625 144.4508514404297 380.6833190917969 134.98861694335938 366.2273254394531 C 122.97771453857422 355.4314880371094 109.677001953125 349.1439514160156 97.15851593017578 347.79290771484375 C 87.45967102050781 350.13128662109375 82.52207946777344 353.8460998535156 83.31289672851562 356.5765380859375 C 89.10372924804688 356.5162658691406 97.81959533691406 352.6842956542969 106.88066101074219 344.7254638671875 C 114.109130859375 333.8451843261719 118.22947692871094 322.2301330566406 117.77810668945312 311.54644775390625 C 111.6095962524414 302.7961730957031 101.84768676757812 295.6805114746094 92.42230224609375 290.0151672363281 C 87.57476043701172 285.13311767578125 91.2317886352539 279.56719970703125 102.97309112548828 270.9449462890625 C 119.9249267578125 258.93133544921875 139.69265747070312 248.8897705078125 157.49948120117188 242.79429626464844 C 168.046875 240.912841796875 172.1311492919922 245.7384490966797 171.29476928710938 256.4770202636719 C 167.66885375976562 271.353759765625 163.30758666992188 288.4873352050781 159.65496826171875 306.3829345703125 C 157.76275634765625 323.62481689453125 157.7561492919922 339.0423278808594 159.19070434570312 351.77471923828125 C 160.73843383789062 361.1705322265625 161.8323516845703 366.6977233886719 162.03953552246094 368.1280517578125 C 161.22117614746094 365.5675048828125 160.10096740722656 359.53570556640625 159.89796447753906 350.75689697265625 C 161.4813232421875 340.1857604980469 164.6636199951172 328.38543701171875 168.98741149902344 315.7107849121094 C 173.9998016357422 302.65362548828125 179.69383239746094 289.6242370605469 186.05723571777344 277.0133056640625 C 193.13169860839844 265.47552490234375 201.45887756347656 255.7975311279297 211.48634338378906 248.5537109375 C 223.28759765625 244.4069366455078 236.29869079589844 242.96902465820312 249.91567993164062 243.3026580810547 C 263.571533203125 245.25672912597656 276.18359375 249.27259826660156 286.8528137207031 256.1809997558594 C 294.60906982421875 266.816162109375 300.1806640625 280.2919616699219 305.62994384765625 294.3732604980469 C 311.0466613769531 306.71136474609375 315.1984558105469 315.9429016113281 317.7168273925781 319.93902587890625 C 317.6179504394531 317.94085693359375 316.02410888671875 312.8204650878906 315.5748291015625 307.71563720703125 C 315.6622314453125 305.275390625 315.4956970214844 305.7791442871094 313.88848876953125 307.346923828125 C 310.106201171875 304.7331237792969 304.9012756347656 295.6451416015625 299.2314453125 280.1890563964844 C 293.6250305175781 259.77801513671875 288.36871337890625 237.0677947998047 316.30047607421875 243.27561950683594" stroke-width="0.0" fill="rgb(251, 110, 165)" opacity="0.9999396" stroke="rgb(144, 58, 37)" stroke-opacity="0.4684767" stroke-linecap="round" stroke-linejoin="round"/>
    <path d="M 340.0419006347656 94.32315826416016 C 341.627197265625 93.775146484375 342.65557861328125 93.27178955078125 343.5695495605469 93.87017059326172 C 344.70831298828125 94.7022933959961 345.6195068359375 95.48126220703125 346.14691162109375 96.19125366210938 C 346.5990905761719 96.5214614868164 346.9997253417969 96.6310043334961 347.377197265625 96.90511322021484 C 347.7688903808594 97.31175994873047 348.2359924316406 97.875732421875 348.9555358886719 98.43704223632812 C 350.1811218261719 99.16980743408203 351.8534851074219 100.26322937011719 353.8663635253906 101.89566802978516 C 356.1457824707031 104.17375183105469 358.828125 106.89277648925781 361.6109924316406 110.42890167236328 C 363.910400390625 115.11504364013672 365.95611572265625 120.4754867553711 367.3874206542969 126.10726165771484 C 368.8487548828125 131.8283233642578 369.9007873535156 137.7579803466797 370.23968505859375 143.5803985595703 C 370.24505615234375 149.12095642089844 369.4974670410156 154.57948303222656 368.2886962890625 159.99388122558594 C 366.7203369140625 165.60382080078125 365.13067626953125 171.41651916503906 362.93194580078125 177.2181854248047 C 360.4906921386719 183.05166625976562 356.86749267578125 188.14100646972656 351.8827819824219 192.51681518554688 C 347.1216125488281 197.44850158691406 342.5699768066406 202.90110778808594 337.6357116699219 208.13661193847656 C 332.29010009765625 212.52357482910156 326.88067626953125 216.22628784179688 321.7530212402344 219.25408935546875 C 317.8207092285156 222.80223083496094 314.46990966796875 226.90989685058594 309.3835754394531 229.93833923339844 C 303.1578063964844 232.73924255371094 296.7123107910156 235.16244506835938 291.68463134765625 236.83457946777344 C 289.6406555175781 237.9316864013672 290.677490234375 238.8653564453125 294.1378173828125 239.303955078125 C 298.00579833984375 239.84532165527344 301.56732177734375 240.71177673339844 303.2664489746094 242.3160400390625 C 301.7060241699219 246.26107788085938 299.059814453125 252.1951446533203 297.3426208496094 259.6178894042969 C 297.9352722167969 267.6878356933594 300.0001525878906 275.142822265625 302.6974792480469 280.8488464355469 C 304.9891357421875 284.6750793457031 306.3705139160156 286.8139343261719 306.6030578613281 287.0740661621094 C 305.82220458984375 285.64715576171875 304.2518005371094 282.7187194824219 302.21649169921875 278.4632873535156 C 299.7177429199219 273.40411376953125 296.5777587890625 268.1711120605469 293.06378173828125 263.0744323730469 C 289.6041259765625 258.2312316894531 285.5895690917969 254.32449340820312 280.9061279296875 251.69834899902344 C 276.06378173828125 249.43128967285156 271.3258056640625 247.64031982421875 266.90185546875 246.42059326171875 C 263.0141906738281 246.92771911621094 259.68157958984375 248.44725036621094 256.9144592285156 250.30093383789062 C 254.9225311279297 251.6544952392578 253.41493225097656 252.41796875 251.88282775878906 252.8624267578125 C 250.0687713623047 253.1226806640625 247.7298126220703 253.35885620117188 244.6540985107422 253.60537719726562 C 240.81605529785156 253.9720458984375 236.31004333496094 254.2532501220703 231.58779907226562 254.0865478515625 C 227.08987426757812 253.14207458496094 223.40065002441406 250.8546905517578 220.92071533203125 247.3464813232422 C 219.01112365722656 243.77197265625 215.8197479248047 241.96620178222656 211.12875366210938 241.56478881835938 C 205.908203125 240.4834747314453 200.39852905273438 239.0580596923828 194.89039611816406 237.11546325683594 C 189.79519653320312 234.82046508789062 185.11659240722656 232.3804168701172 180.4820556640625 229.9470977783203 C 175.83572387695312 227.48146057128906 171.38986206054688 224.7388153076172 167.25877380371094 221.06967163085938 C 163.2892303466797 216.69190979003906 159.1815643310547 212.27639770507812 155.04953002929688 208.09605407714844 C 151.68539428710938 203.357177734375 148.94834899902344 198.21389770507812 146.63876342773438 192.7952423095703 C 144.8518524169922 187.14109802246094 143.66702270507812 181.23715209960938 142.85523986816406 175.21449279785156 C 142.2350616455078 169.54449462890625 142.62173461914062 163.87713623046875 144.73736572265625 158.56976318359375 C 148.37478637695312 153.55081176757812 151.93389892578125 148.59046936035156 154.89060974121094 143.40786743164062 C 156.58042907714844 138.18508911132812 157.20211791992188 134.06517028808594 158.0553741455078 131.94139099121094 C 160.09291076660156 132.73419189453125 163.0086669921875 135.14134216308594 166.19921875 137.4086151123047 C 169.78298950195312 137.70260620117188 173.87814331054688 136.23109436035156 178.59033203125 133.86810302734375 C 183.6481170654297 131.19873046875 189.07106018066406 128.7830810546875 194.9358367919922 127.21427917480469 C 200.34201049804688 125.52342224121094 205.5947723388672 123.99713897705078 210.64166259765625 122.60550689697266 C 215.5719451904297 121.28511810302734 220.57737731933594 119.9449234008789 225.76463317871094 118.58611297607422 C 231.03018188476562 117.26061248779297 236.2116241455078 116.01851654052734 240.41908264160156 114.75660705566406 C 242.98129272460938 112.59703826904297 243.95013427734375 109.47310638427734 243.8149871826172 105.54102325439453 C 243.23495483398438 101.23505401611328 243.42225646972656 97.94570922851562 245.20863342285156 96.58382415771484 C 248.46273803710938 97.72298431396484 252.3980712890625 100.6456069946289 255.76953125 105.43888854980469 C 260.21112060546875 108.25291442871094 265.81121826171875 109.02845764160156 272.0350341796875 108.60841369628906 C 278.6206359863281 107.21395874023438 285.2022399902344 105.22737884521484 291.32098388671875 103.21422576904297 C 296.6866455078125 101.61285400390625 300.9567565917969 100.63499450683594 303.8660583496094 100.91094207763672 C 305.3091125488281 102.82508087158203 307.0334167480469 104.28278350830078 310.4355163574219 104.44879150390625 C 315.51239013671875 103.77515411376953 320.811767578125 105.1310043334961 325.5583190917969 109.0240478515625 C 329.1758117675781 114.29249572753906 330.86248779296875 120.06908416748047 330.60736083984375 125.30276489257812 C 329.1971435546875 129.39292907714844 328.5019836425781 131.901123046875 330.0384521484375 132.57489013671875 C 333.2146911621094 131.66644287109375 337.4925231933594 129.74478149414062 341.9645690917969 127.96586608886719 C 344.9139404296875 125.87565612792969 345.9503173828125 123.0009994506836 345.8131103515625 119.46672058105469 C 344.9222717285156 115.4957504272461 342.76605224609375 111.47396850585938 339.1654968261719 107.87469482421875 C 334.5657653808594 104.75333404541016 329.6280212402344 101.6698989868164 324.5150146484375 99.22421264648438 C 319.1163635253906 98.28285217285156 313.8335876464844 97.6443862915039 340.0419006347656 94.32315826416016" stroke-width="0.0" fill="rgb(250, 187, 105)" opacity="1.0" stroke="rgb(142, 213, 74)" stroke-opacity="0.090272315" stroke-linecap="round" stroke-linejoin="round"/>
    <path d="M 170.80422973632812 382.491943359375 C 171.4972381591797 381.74462890625 172.1912384033203 381.0947265625 172.91184997558594 380.5960693359375 C 173.70541381835938 380.3378601074219 174.60211181640625 380.2481689453125 175.6322479248047 380.31494140625 C 176.7566375732422 380.5692443847656 177.92803955078125 380.84515380859375 179.14215087890625 381.1148376464844 C 180.37791442871094 381.3685302734375 181.5496826171875 381.6011657714844 182.6544952392578 381.8219299316406 C 183.6916961669922 382.03326416015625 184.6470947265625 382.26837158203125 185.49295043945312 382.4800720214844 C 186.27818298339844 382.66497802734375 187.03598022460938 382.8250427246094 187.75770568847656 382.93243408203125 C 188.49456787109375 382.99884033203125 189.2831573486328 383.0753479003906 190.08126831054688 383.2465515136719 C 190.9598846435547 383.53814697265625 191.85504150390625 383.9862060546875 192.7946014404297 384.64520263671875 C 193.67349243164062 385.4620666503906 194.4022674560547 386.4054260253906 194.91305541992188 387.4355163574219 C 195.15257263183594 388.4567565917969 195.09205627441406 389.3902282714844 194.7201385498047 390.2218017578125 C 194.05648803710938 390.90509033203125 193.27078247070312 391.4776916503906 192.46148681640625 392.0254821777344 C 191.78335571289062 392.57928466796875 191.3911895751953 393.1429748535156 191.35653686523438 393.7736511230469 C 191.64215087890625 394.4700927734375 192.1891632080078 395.19952392578125 192.81103515625 395.9190368652344 C 193.35772705078125 396.5904846191406 193.7489471435547 397.14337158203125 193.98228454589844 397.5624694824219 C 193.98680114746094 397.7994079589844 193.90933227539062 397.8965759277344 193.92308044433594 397.8606262207031 C 194.0846710205078 397.7114562988281 194.56190490722656 397.5182800292969 195.4581756591797 397.31048583984375 C 196.80763244628906 397.0836181640625 198.6924285888672 396.8983154296875 200.98765563964844 396.73321533203125 C 203.72314453125 396.6212158203125 206.83758544921875 396.5929870605469 210.21835327148438 396.6343078613281 C 213.8589324951172 396.6622314453125 217.68984985351562 396.6452941894531 221.6284942626953 396.5758972167969 C 225.6104736328125 396.5039978027344 229.5860137939453 396.3469543457031 233.51136779785156 396.26123046875 C 237.44473266601562 396.1447448730469 241.40975952148438 395.9184875488281 245.4071044921875 395.7054138183594 C 249.506591796875 395.48626708984375 253.6943359375 395.319580078125 257.8741760253906 395.1985168457031 C 262.0455627441406 395.16265869140625 266.06256103515625 395.2064208984375 269.8509521484375 395.2975158691406 C 273.3531799316406 395.40814208984375 276.59100341796875 395.4503479003906 279.6498718261719 395.36199951171875 C 282.59832763671875 395.1572570800781 285.5525817871094 395.01788330078125 288.5640563964844 395.2397766113281 C 291.6900939941406 396.0753173828125 294.8484191894531 397.5425720214844 297.8495788574219 399.6121826171875 C 300.5450134277344 402.2541198730469 302.8017272949219 405.3919677734375 304.4378967285156 408.9095153808594 C 305.37353515625 412.6666564941406 305.55987548828125 416.53826904296875 305.09527587890625 420.407958984375 C 304.0719299316406 424.1671447753906 302.6190185546875 427.68560791015625 300.899169921875 430.8848571777344 C 299.0831298828125 433.7162170410156 297.2672424316406 436.2221374511719 295.54644775390625 438.4102478027344 C 294.0703430175781 440.35595703125 292.78326416015625 442.1741027832031 291.71929931640625 444.07513427734375 C 290.78271484375 446.1975402832031 289.7611083984375 448.61383056640625 288.4421691894531 451.312744140625 C 286.70709228515625 454.206298828125 284.5068359375 457.129638671875 281.88336181640625 459.8917541503906 C 278.8797912597656 462.3008117675781 275.5472412109375 464.1348571777344 272.03564453125 465.09954833984375 C 268.5289306640625 464.9887390136719 265.1804504394531 463.8914794921875 262.1679382324219 461.90399169921875 C 259.67578125 459.134765625 257.759033203125 455.8232421875 256.366943359375 452.28131103515625 C 255.3180694580078 448.726806640625 254.46517944335938 445.3426818847656 253.5999755859375 442.3132629394531 C 252.47384643554688 439.7668762207031 250.95535278320312 437.67742919921875 248.93057250976562 436.09564208984375 C 246.48182678222656 435.03936767578125 243.7484130859375 434.423583984375 240.87677001953125 434.2048645019531 C 238.03277587890625 434.294189453125 235.4207000732422 434.56243896484375 233.2052764892578 434.8135681152344 C 231.49351501464844 434.920166015625 230.37252807617188 434.9361267089844 229.72549438476562 434.8858337402344 C 229.43807983398438 434.8137512207031 229.39767456054688 434.8614501953125 229.50625610351562 435.03558349609375 C 229.6653289794922 435.4022521972656 229.7504119873047 436.0629577636719 229.68722534179688 437.066162109375 C 229.42495727539062 438.3988952636719 228.94329833984375 440.029296875 228.2483673095703 441.8659973144531 C 227.3251495361328 443.82220458984375 226.16246032714844 445.83544921875 224.7631378173828 447.83892822265625 C 223.1446533203125 449.726318359375 221.2640838623047 451.55029296875 219.17613220214844 453.4374694824219 C 216.8939971923828 455.5552673339844 214.43299865722656 457.84649658203125 211.77926635742188 460.1790466308594 C 208.8787384033203 462.3798828125 205.7241668701172 464.2770080566406 202.2714080810547 465.74554443359375 C 198.5570831298828 466.67144775390625 194.6404571533203 466.9974670410156 190.50119018554688 466.7073669433594 C 186.3505096435547 465.9140930175781 182.37991333007812 464.659912109375 178.76998901367188 463.1106872558594 C 175.7181396484375 461.3488464355469 173.2579345703125 459.5079650878906 171.29685974121094 457.7305908203125 C 169.6909942626953 456.1293640136719 168.32235717773438 454.7126159667969 167.07310485839844 453.46600341796875 C 165.81753540039062 452.37591552734375 164.44143676757812 451.3648376464844 163.0017547607422 450.1719055175781 C 161.5193328857422 448.6644592285156 160.10035705566406 446.6600646972656 158.84132385253906 443.9757080078125 C 157.73497009277344 440.73114013671875 156.8043212890625 436.9848937988281 156.11871337890625 432.8658447265625 C 155.68788146972656 428.532958984375 155.41065979003906 424.1192321777344 155.12307739257812 419.6658935546875 C 154.668212890625 415.18060302734375 154.2785186767578 410.6841735839844 154.0965576171875 406.19720458984375 C 154.0911407470703 401.7425537109375 154.60142517089844 397.3005676269531 155.659912109375 393.117919921875 C 157.0372314453125 389.32183837890625 158.59474182128906 385.9841003417969 160.22244262695312 383.0639953613281 C 161.9009552001953 380.59954833984375 163.54763793945312 378.57781982421875 170.80422973632812 382.491943359375" stroke-width="0.0" fill="rgb(253, 76, 1)" opacity="0.9999782" stroke="rgb(42, 1, 70)" stroke-opacity="0.38518608" stroke-linecap="round" stroke-linejoin="round"/>
    <path d="M 221.4565887451172 374.0755310058594 C 221.96864318847656 374.374755859375 222.47972106933594 374.69024658203125 222.96519470214844 375.00067138671875 C 223.41224670410156 375.30242919921875 223.92062377929688 375.5724792480469 224.64755249023438 375.7863464355469 C 225.65029907226562 375.9620056152344 227.11947631835938 376.124755859375 229.31500244140625 376.31585693359375 C 232.41810607910156 376.52783203125 236.5176239013672 376.7860107421875 241.73667907714844 377.1494140625 C 248.11219787597656 377.6125183105469 255.6243133544922 378.0912170410156 264.15826416015625 378.455810546875 C 273.4338073730469 378.56158447265625 283.2660827636719 378.4355773925781 293.0714416503906 378.19464111328125 C 302.0870666503906 377.96099853515625 309.5967102050781 378.4303283691406 314.7611083984375 380.3119201660156 C 316.6424865722656 384.42633056640625 316.1329345703125 390.90863037109375 314.6848449707031 399.5460510253906 C 313.0404968261719 409.95587158203125 310.8512268066406 421.3464660644531 307.74267578125 433.2381591796875 C 304.06170654296875 444.8682556152344 301.8160705566406 455.7538757324219 300.7217712402344 464.5813293457031 C 299.8475341796875 470.1004333496094 296.4423522949219 472.2150573730469 291.5964050292969 474.1623840332031 C 289.0450134277344 480.66851806640625 288.008056640625 489.55242919921875 287.13592529296875 498.08184814453125 C 286.65155029296875 503.83184814453125 289.71234130859375 505.5987243652344 296.0054931640625 505.7928161621094 C 302.8001708984375 507.7168273925781 306.3145751953125 511.60028076171875 304.29327392578125 516.866455078125 C 296.48455810546875 520.3104858398438 287.4651184082031 525.43359375 278.5345764160156 531.163818359375 C 269.4704895019531 532.293212890625 260.4525146484375 530.6353149414062 252.18360900878906 528.8757934570312 C 245.6925048828125 527.629150390625 241.55007934570312 528.2089233398438 239.6643524169922 532.5916748046875 C 238.77871704101562 540.6254272460938 238.43504333496094 549.9944458007812 238.408447265625 558.5132446289062 C 237.24899291992188 563.8363037109375 235.5970916748047 564.30615234375 234.56088256835938 559.5203857421875 C 235.459228515625 550.57958984375 236.9904327392578 539.5364990234375 236.01109313964844 529.292236328125 C 230.3649139404297 523.4249877929688 225.56219482421875 519.5908203125 225.9859619140625 514.5631103515625 C 229.74436950683594 510.1063537597656 235.8707275390625 507.4593200683594 240.9923553466797 502.77960205078125 C 243.04800415039062 493.7344665527344 243.78179931640625 483.00933837890625 242.34707641601562 472.4183044433594 C 237.54339599609375 463.8794250488281 233.1183624267578 457.668701171875 229.64816284179688 456.111328125 C 226.62261962890625 461.3125305175781 221.8313446044922 469.6124572753906 216.0845184326172 478.6921691894531 C 213.50674438476562 489.93792724609375 211.58277893066406 500.5069885253906 211.97637939453125 507.74420166015625 C 219.4691619873047 510.8151550292969 222.92318725585938 514.9537353515625 219.98953247070312 520.2774047851562 C 214.8256072998047 523.400634765625 212.52023315429688 526.6596069335938 212.20755004882812 530.2090454101562 C 208.47195434570312 531.1968383789062 201.8862762451172 529.7752685546875 193.78810119628906 527.6661376953125 C 185.0689697265625 526.8434448242188 176.75906372070312 527.4182739257812 169.76901245117188 528.6835327148438 C 164.66647338867188 530.3078002929688 160.9678955078125 529.572998046875 158.47409057617188 525.746337890625 C 153.6988067626953 522.3214111328125 149.95376586914062 518.9979248046875 152.20765686035156 513.5614013671875 C 158.4454345703125 507.7622375488281 165.08656311035156 502.4327087402344 167.5399627685547 494.3839111328125 C 168.21917724609375 484.2545471191406 165.26205444335938 475.2807922363281 158.48020935058594 468.1991271972656 C 156.94871520996094 458.4263610839844 156.08909606933594 446.71533203125 154.93896484375 434.58734130859375 C 154.07041931152344 423.4632263183594 152.83326721191406 414.126953125 152.88760375976562 407.24322509765625 C 153.89834594726562 403.0040283203125 155.64390563964844 401.7954406738281 157.6854705810547 403.66033935546875 C 159.06863403320312 408.3458557128906 160.0705108642578 415.1026611328125 161.23110961914062 423.0204772949219 C 163.12588500976562 431.20782470703125 165.80421447753906 439.0609436035156 169.0111083984375 446.1177978515625 C 172.45655822753906 451.96051025390625 176.2493438720703 456.61468505859375 180.37344360351562 459.8846435546875 C 184.8110809326172 461.3919982910156 189.5121307373047 461.12579345703125 194.38880920410156 459.121337890625 C 199.31130981445312 455.49664306640625 204.3140411376953 451.0052490234375 209.47763061523438 446.40130615234375 C 214.49693298339844 442.5264892578125 219.06130981445312 439.4459228515625 222.97080993652344 436.8804626464844 C 226.18356323242188 434.6169128417969 229.0148468017578 432.737060546875 231.83729553222656 431.194580078125 C 235.05821228027344 430.2221984863281 238.8124542236328 430.12139892578125 242.95925903320312 431.19573974609375 C 247.1878204345703 433.84503173828125 251.39906311035156 438.0936584472656 255.52191162109375 443.581298828125 C 259.5001220703125 449.4108581542969 263.5263366699219 454.5503234863281 267.6480712890625 457.863525390625 C 271.71600341796875 458.4434814453125 275.4254455566406 456.361083984375 278.7137756347656 451.95989990234375 C 281.6329650878906 445.8297424316406 284.607666015625 438.8706359863281 288.3149719238281 431.9884338378906 C 292.4704284667969 425.8539733886719 296.1206970214844 420.34649658203125 298.44403076171875 415.46514892578125 C 298.99591064453125 411.2442626953125 297.6461181640625 407.86431884765625 294.3977355957031 405.482421875 C 289.41021728515625 404.0908508300781 283.0482177734375 403.3726806640625 275.62823486328125 402.850341796875 C 267.4666442871094 402.2878723144531 258.8680725097656 401.8118896484375 250.00794982910156 401.44244384765625 C 240.96519470214844 401.0790100097656 231.988525390625 400.8180236816406 223.20787048339844 400.7575378417969 C 214.74990844726562 400.81329345703125 206.75970458984375 400.46435546875 199.43972778320312 399.2442626953125 C 193.09825134277344 396.9364013671875 187.86395263671875 393.4701232910156 183.84271240234375 389.5005187988281 C 181.2332000732422 385.6058044433594 180.24215698242188 382.10101318359375 181.30282592773438 379.6761779785156 C 184.29290771484375 379.2231750488281 188.6648406982422 380.4340515136719 194.0171356201172 381.7735290527344 C 199.36070251464844 382.8084716796875 203.9984893798828 384.0743408203125 208.14767456054688 383.9685974121094 C 211.87522888183594 383.4938659667969 215.3822784423828 383.0928955078125 221.4565887451172 374.0755310058594" stroke-width="0.0" fill="rgb(247, 78, 6)" opacity="0.9995615" stroke="rgb(199, 144, 147)" stroke-opacity="0.72062534" stroke-linecap="round" stroke-linejoin="round"/>
    <path d="M 178.62054443359375 239.79029846191406 C 179.60733032226562 239.44715881347656 180.67196655273438 239.19583129882812 181.697998046875 239.01254272460938 C 182.58392333984375 238.8389434814453 183.3598175048828 238.64227294921875 184.099365234375 238.44898986816406 C 184.87319946289062 238.30001831054688 185.72140502929688 238.1991424560547 186.60459899902344 238.13121032714844 C 187.53427124023438 238.2408905029297 188.6942901611328 238.3825225830078 190.11355590820312 238.83506774902344 C 191.7275848388672 239.42483520507812 193.92491149902344 240.1977996826172 195.6647186279297 240.8413543701172 C 197.27676391601562 241.35614013671875 198.37979125976562 241.80166625976562 198.8085174560547 241.88734436035156 C 198.79454040527344 241.83929443359375 198.74757385253906 241.76312255859375 198.99542236328125 241.85906982421875 C 199.5828094482422 242.19110107421875 200.6974334716797 242.5909881591797 202.54611206054688 243.09205627441406 C 205.15821838378906 243.61468505859375 208.18080139160156 244.08592224121094 211.1668243408203 244.48275756835938 C 213.59837341308594 244.8581085205078 214.83566284179688 245.532470703125 214.37367248535156 246.7842559814453 C 211.9109344482422 248.46990966796875 208.50660705566406 251.1673126220703 204.92164611816406 255.0596466064453 C 201.75588989257812 260.07208251953125 198.8165283203125 265.9010314941406 196.3363037109375 272.3093566894531 C 194.35023498535156 278.8719787597656 192.97116088867188 285.3646240234375 192.10122680664062 291.2898864746094 C 191.24305725097656 296.0416564941406 188.46360778808594 299.34136962890625 184.294677734375 302.14501953125 C 180.5135955810547 305.98248291015625 177.22787475585938 310.43328857421875 174.19558715820312 315.23760986328125 C 171.51605224609375 320.30023193359375 169.17030334472656 325.41064453125 166.97824096679688 330.48663330078125 C 165.001953125 335.55303955078125 163.25767517089844 340.7159423828125 161.52542114257812 346.0514831542969 C 159.80807495117188 351.6373596191406 157.99130249023438 357.4237365722656 156.56787109375 363.52899169921875 C 155.45130920410156 369.3388671875 154.9313507080078 374.7105407714844 154.9706268310547 379.0464782714844 C 155.72853088378906 382.09405517578125 157.01600646972656 383.8972473144531 158.55589294433594 384.58856201171875 C 160.00135803222656 384.43865966796875 161.07705688476562 383.84539794921875 161.49139404296875 383.3632507324219 C 161.01113891601562 383.6306457519531 159.6070556640625 385.0364074707031 157.6368408203125 387.8384704589844 C 155.63401794433594 392.36224365234375 154.39112854003906 398.5097961425781 154.17828369140625 405.5853576660156 C 154.37867736816406 412.8226623535156 154.4397430419922 419.41253662109375 154.31640625 423.5989990234375 C 153.55068969726562 424.1187438964844 153.61082458496094 421.0246276855469 153.6675262451172 415.72845458984375 C 153.8192138671875 409.3084411621094 152.444580078125 403.1528015136719 148.15863037109375 399.0551452636719 C 140.90640258789062 397.9734802246094 132.924072265625 396.1581115722656 125.60990905761719 392.0255432128906 C 119.45576477050781 386.7604675292969 115.90538787841797 379.7225341796875 114.60848999023438 371.0329284667969 C 114.23190307617188 362.0541687011719 113.40733337402344 354.5472412109375 110.64596557617188 349.8968505859375 C 105.26399230957031 348.9118957519531 98.43898010253906 350.3800354003906 91.93798828125 352.6729736328125 C 89.02059936523438 356.0494689941406 89.04667663574219 361.2814636230469 86.76433563232422 364.70745849609375 C 81.37721252441406 363.90289306640625 76.60946655273438 365.47869873046875 72.96539306640625 372.05908203125 C 66.86293029785156 378.2770080566406 59.91707229614258 382.7855529785156 58.61094284057617 390.57611083984375 C 59.34831237792969 400.7015380859375 56.1650276184082 406.25848388671875 49.67570495605469 404.6616516113281 C 45.640560150146484 398.0901794433594 44.051902770996094 391.0405578613281 40.65668869018555 389.7529296875 C 37.39323043823242 395.7686462402344 33.55546569824219 401.77984619140625 27.80607032775879 401.4696960449219 C 22.49614143371582 394.8626403808594 14.876689910888672 390.711669921875 9.097658157348633 387.23284912109375 C 11.213153839111328 379.9241638183594 10.61669635772705 376.58099365234375 4.054934978485107 377.6064758300781 C -1.702399492263794 376.69635009765625 -0.4563709497451782 371.23162841796875 4.957139492034912 361.9147644042969 C 11.314932823181152 352.4159851074219 18.301912307739258 345.21832275390625 21.07528305053711 338.1648254394531 C 16.12238121032715 329.197021484375 15.659577369689941 321.79974365234375 23.08316993713379 319.3452453613281 C 30.722335815429688 323.79473876953125 37.25906753540039 329.92425537109375 43.23735427856445 330.39227294921875 C 45.93407440185547 323.6854248046875 49.945396423339844 319.6106262207031 57.90129470825195 319.9547424316406 C 63.38836669921875 313.9279479980469 69.37178039550781 306.1257019042969 77.08097076416016 299.60540771484375 C 84.302001953125 293.6475524902344 90.63162231445312 289.1369934082031 95.67845153808594 285.9616394042969 C 99.60687255859375 284.3630676269531 102.84754943847656 284.47003173828125 105.78510284423828 286.0523681640625 C 108.60310363769531 288.9344787597656 111.62255096435547 292.8887939453125 114.73025512695312 297.5962219238281 C 117.58670043945312 302.7725830078125 119.97765350341797 308.274169921875 121.6461181640625 313.87884521484375 C 122.52730560302734 319.2457580566406 122.5777359008789 324.0893249511719 122.1411361694336 328.11785888671875 C 121.6400375366211 331.1183166503906 121.41338348388672 333.1593322753906 121.75202178955078 334.2467346191406 C 122.85505676269531 334.5566711425781 124.81217193603516 334.37652587890625 127.61907958984375 334.0137634277344 C 131.13829040527344 333.7640686035156 135.04310607910156 333.5917053222656 138.97366333007812 333.295166015625 C 142.5086669921875 332.5660705566406 145.542236328125 331.035400390625 147.9156494140625 328.52593994140625 C 149.74081420898438 324.871337890625 151.09552001953125 320.0975646972656 152.17808532714844 314.3476867675781 C 152.8643798828125 307.8610534667969 153.4381866455078 300.9093322753906 153.8849639892578 293.7582092285156 C 154.40695190429688 286.7773132324219 155.3619384765625 280.0831604003906 156.82119750976562 273.8453674316406 C 158.82308959960938 268.12939453125 161.03640747070312 262.9381103515625 163.23878479003906 258.252685546875 C 164.8824462890625 254.0911102294922 165.85183715820312 250.51947021484375 166.1838836669922 247.54067993164062 C 165.87286376953125 245.21701049804688 165.4906768798828 243.5221405029297 165.17959594726562 242.31272888183594 C 164.99813842773438 241.44155883789062 164.91128540039062 240.78750610351562 178.62054443359375 239.79029846191406" stroke-width="0.0" fill="rgb(153, 129, 180)" opacity="1.0" stroke="rgb(22, 147, 239)" stroke-opacity="0.70849067" stroke-linecap="round" stroke-linejoin="round"/>
  </g>
</svg>
