<?xml version="1.0" ?>
<svg xmlns="http://www.w3.org/2000/svg" version="1.1" width="438" height="481">
  <defs/>
  <g>
    <path d="M 260.5137939453125 69.185791015625 C 269.65753173828125 69.19554901123047 278.11724853515625 70.40050506591797 286.7345886230469 71.55696868896484 C 295.7027282714844 72.87808227539062 305.3997802734375 74.46281433105469 316.0287170410156 77.04876708984375 C 327.91259765625 79.98519134521484 340.91949462890625 84.30058288574219 355.28875732421875 90.09264373779297 C 369.51220703125 99.28511810302734 385.0312194824219 109.4031982421875 401.02545166015625 119.9073257446289 C 415.9183349609375 131.19366455078125 428.8294677734375 142.45208740234375 438.1986999511719 154.35655212402344 C 439.69317626953125 167.37088012695312 436.3020935058594 179.31092834472656 428.05889892578125 189.77114868164062 C 417.91644287109375 199.17674255371094 405.7373962402344 206.07827758789062 392.9029235839844 210.76100158691406 C 381.83062744140625 216.69384765625 371.9416809082031 222.58316040039062 363.64202880859375 229.2718505859375 C 356.4565124511719 236.45755004882812 348.23345947265625 243.46864318847656 340.9599609375 252.1225128173828 C 336.0939636230469 263.612060546875 331.8739318847656 277.1477355957031 327.0372009277344 292.2986755371094 C 320.82177734375 309.056396484375 311.5911560058594 323.5558166503906 301.50872802734375 339.2930603027344 C 291.1635437011719 354.63446044921875 280.7033386230469 367.56756591796875 271.99285888671875 380.8428039550781 C 265.7250061035156 393.8285217285156 259.9054260253906 403.492431640625 253.26646423339844 410.49407958984375 C 248.39830017089844 416.52880859375 244.7537841796875 421.9879150390625 242.09780883789062 427.8201599121094 C 240.38458251953125 434.31585693359375 238.6917724609375 441.0782775878906 236.5144805908203 447.18426513671875 C 233.662109375 451.28448486328125 230.3628387451172 452.1402893066406 227.1547088623047 449.13262939453125 C 223.78855895996094 441.8462829589844 220.82672119140625 431.4350280761719 219.8367462158203 418.0302429199219 C 218.41839599609375 403.1894226074219 215.14927673339844 388.059814453125 213.0217742919922 373.4984436035156 C 207.85562133789062 362.0382995605469 204.55279541015625 353.230224609375 209.02818298339844 346.94427490234375 C 220.3894500732422 340.8927917480469 236.15231323242188 336.5007019042969 252.7513885498047 331.722412109375 C 266.689697265625 326.24383544921875 275.65667724609375 320.1993408203125 276.9438781738281 312.6471862792969 C 269.61614990234375 310.6420593261719 257.1623840332031 311.06280517578125 241.22314453125 312.3271484375 C 224.19622802734375 315.0425109863281 208.2067108154297 319.10455322265625 195.1673583984375 324.55010986328125 C 188.0406494140625 333.1404724121094 183.29867553710938 341.96929931640625 177.18431091308594 347.69342041015625 C 167.07276916503906 347.73583984375 155.9693145751953 347.01324462890625 145.78846740722656 349.3981628417969 C 138.95669555664062 357.4888610839844 134.91461181640625 367.84014892578125 134.87591552734375 379.986083984375 C 138.9872589111328 391.6343078613281 141.76483154296875 403.15228271484375 138.679931640625 415.62554931640625 C 136.26422119140625 429.8610534667969 133.34495544433594 444.5783386230469 131.67776489257812 459.5543212890625 C 130.468994140625 473.02294921875 121.89291381835938 483.3399963378906 110.39558410644531 490.1813049316406 C 95.91036224365234 494.4814147949219 79.39982604980469 496.2705993652344 61.76873016357422 495.4810791015625 C 44.123069763183594 492.39471435546875 27.757915496826172 487.4248046875 14.153641700744629 480.81060791015625 C 4.291397571563721 473.3590393066406 -0.574780285358429 465.3295593261719 0.23013056814670563 457.107666015625 C 6.011068820953369 449.4058532714844 14.38918685913086 442.7008361816406 23.346996307373047 436.8365783691406 C 31.400955200195312 431.7314453125 36.629878997802734 426.9670104980469 38.50975799560547 422.5163269042969 C 35.59019470214844 418.3616943359375 29.86066436767578 414.4835510253906 23.034929275512695 410.6556701660156 C 16.924293518066406 406.7671813964844 13.20842456817627 403.0843811035156 12.892324447631836 399.7074279785156 C 16.352218627929688 396.83465576171875 23.188203811645508 394.1011962890625 32.70718765258789 391.4969177246094 C 43.28754806518555 387.5581970214844 54.35452651977539 383.2499694824219 64.78792572021484 380.0060729980469 C 72.81050872802734 371.69073486328125 78.5725326538086 364.1199645996094 81.81996154785156 356.61785888671875 C 84.72669219970703 351.6561584472656 84.49097442626953 348.5057067871094 80.1273193359375 347.4833984375 C 71.54580688476562 347.3907775878906 59.539085388183594 348.48736572265625 44.974761962890625 349.7531433105469 C 30.161575317382812 354.5935974121094 16.816442489624023 358.8977966308594 5.258551597595215 361.77880859375 C -2.172464370727539 358.7454528808594 -6.529809474945068 350.4734191894531 -8.701480865478516 338.37811279296875 C -9.433440208435059 323.6079406738281 -9.10041618347168 306.9946594238281 -8.015182495117188 289.4069519042969 C -6.3376617431640625 271.7729187011719 -3.9040839672088623 254.5821990966797 -0.4743155241012573 238.59378051757812 C 4.715938091278076 224.48089599609375 11.607158660888672 212.60906982421875 21.215452194213867 203.6929931640625 C 33.68514633178711 198.0948944091797 48.20208740234375 194.67153930664062 62.86097717285156 190.39248657226562 C 77.08128356933594 182.88449096679688 89.06515502929688 172.47726440429688 97.92588806152344 158.7463836669922 C 103.74398040771484 143.22894287109375 106.83539581298828 127.13294219970703 111.50210571289062 113.57178497314453 C 115.06468963623047 103.28618621826172 118.16402435302734 98.19281768798828 119.8310775756836 99.47835540771484 C 117.32740783691406 106.38201904296875 113.36803436279297 116.58950805664062 110.77131652832031 128.79373168945312 C 112.06851959228516 141.22938537597656 116.81602478027344 151.58029174804688 124.88153839111328 158.21795654296875 C 135.57447814941406 159.4453125 147.6791534423828 155.60324096679688 161.30003356933594 148.8435821533203 C 174.2170867919922 139.5052032470703 187.03076171875 128.37220764160156 201.54019165039062 120.22409057617188 C 218.86187744140625 117.85211181640625 236.46287536621094 114.89647674560547 252.99484252929688 110.18574523925781 C 267.55023193359375 102.99345397949219 279.9573974609375 95.56266021728516 290.2355651855469 90.25045013427734 C 298.54962158203125 88.48455047607422 304.2348327636719 88.5270767211914 307.2196044921875 89.0617904663086 C 307.25537109375 89.6174545288086 305.1337585449219 89.42587280273438 301.5339660644531 88.97866821289062 C 297.57037353515625 88.29651641845703 294.03741455078125 86.26610565185547 291.6265563964844 83.22343444824219 C 290.5645751953125 79.62374114990234 289.96868896484375 75.97557830810547 260.5137939453125 69.185791015625" stroke-width="0.0" fill="rgb(4, 2, 8)" opacity="0.99999434" stroke="rgb(132, 37, 73)" stroke-opacity="0.69533926" stroke-linecap="round" stroke-linejoin="round"/>
    <path d="M 437.5219421386719 290.3722839355469 C 439.52056884765625 292.1471862792969 440.4922790527344 293.5236511230469 441.280517578125 294.8327331542969 C 441.91021728515625 296.0225830078125 442.3962707519531 297.064453125 442.7982482910156 298.10888671875 C 443.0993347167969 299.1298828125 443.3670959472656 300.0885009765625 443.65673828125 301.07659912109375 C 443.8791198730469 302.1162414550781 444.0672607421875 303.16119384765625 444.2951965332031 304.1911926269531 C 444.52685546875 305.2503356933594 444.68359375 306.1944274902344 444.8350830078125 307.0367736816406 C 445.0119934082031 307.83099365234375 445.1837463378906 308.5086975097656 445.3106994628906 309.0765075683594 C 445.4432067871094 309.6978454589844 445.60345458984375 310.46820068359375 445.74700927734375 311.47235107421875 C 445.8904113769531 312.89129638671875 446.0328063964844 314.8451232910156 446.19976806640625 317.4856262207031 C 446.38824462890625 320.9167785644531 446.54473876953125 325.14208984375 446.5976257324219 330.18939208984375 C 446.6181945800781 335.9621276855469 446.6073913574219 342.3554382324219 446.5313415527344 349.19873046875 C 446.3857421875 356.40887451171875 446.2452392578125 363.81781005859375 446.1451110839844 371.251953125 C 446.07037353515625 378.66082763671875 446.0632629394531 385.9513244628906 446.1089172363281 393.06890869140625 C 446.2105712890625 400.04736328125 446.3570861816406 406.978271484375 446.5062255859375 413.9441223144531 C 446.6528625488281 421.0384826660156 446.7208557128906 428.3822326660156 446.6141052246094 435.99774169921875 C 446.20648193359375 443.8972473144531 445.46466064453125 451.9591064453125 444.2113952636719 459.89898681640625 C 442.3060607910156 467.4844055175781 439.6048278808594 474.23455810546875 437.05859375 480.7821960449219 C 430.7774353027344 482.7221984863281 425.38201904296875 483.65045166015625 420.0174865722656 483.04827880859375 C 414.98370361328125 479.56610107421875 411.6262512207031 473.99444580078125 409.1354064941406 466.6197814941406 C 410.19134521484375 458.2823486328125 410.6413269042969 450.3140869140625 410.9253845214844 443.6557922363281 C 407.682861328125 440.1677551269531 403.7687683105469 438.9950256347656 400.1142883300781 440.4093017578125 C 398.7055969238281 445.2914733886719 398.2005310058594 452.2399597167969 397.7440490722656 460.2197265625 C 398.3900146484375 468.2095031738281 398.1180419921875 475.5674743652344 395.500244140625 481.5096130371094 C 388.8636169433594 484.7969055175781 382.2345275878906 487.3489990234375 374.8772888183594 488.791259765625 C 367.11041259765625 489.32537841796875 359.16943359375 489.2868957519531 351.3210144042969 488.9765625 C 343.6447448730469 488.5772399902344 336.1393127441406 488.1822509765625 328.7908630371094 487.82928466796875 C 321.6722717285156 487.5770568847656 314.704345703125 487.47210693359375 307.7886047363281 487.44879150390625 C 300.9798889160156 487.49847412109375 294.2352294921875 487.6198425292969 287.4152526855469 487.7483215332031 C 280.4630432128906 487.9634094238281 273.3137512207031 488.2571716308594 265.9759826660156 488.5794372558594 C 258.4070739746094 488.9653015136719 250.62380981445312 489.3313293457031 242.7867889404297 489.47796630859375 C 234.9426727294922 489.25311279296875 227.3289794921875 488.52459716796875 220.30181884765625 487.1113586425781 C 214.07347106933594 484.8888244628906 208.9657745361328 481.46734619140625 205.84347534179688 476.6319274902344 C 206.91383361816406 469.74114990234375 208.46360778808594 463.1681213378906 210.23324584960938 456.6587219238281 C 211.38963317871094 451.0077819824219 213.2688446044922 447.52764892578125 216.6575927734375 446.7433776855469 C 219.3743133544922 450.02471923828125 221.5178985595703 455.38409423828125 224.51425170898438 461.7858581542969 C 227.7327880859375 468.27716064453125 232.3715057373047 473.0222473144531 238.71730041503906 474.491455078125 C 245.4503631591797 474.6982116699219 251.8129425048828 472.0177001953125 256.8006896972656 466.8499450683594 C 260.13153076171875 460.5984191894531 260.9515075683594 453.1797180175781 260.4562683105469 445.5127868652344 C 259.1741638183594 438.4644470214844 258.82098388671875 432.102294921875 259.9128723144531 426.90478515625 C 261.67681884765625 422.4336242675781 264.4927062988281 419.4339904785156 268.3978576660156 417.4782409667969 C 272.89874267578125 416.2378845214844 277.85205078125 415.32855224609375 282.97943115234375 414.545166015625 C 288.103271484375 413.8592834472656 292.9048767089844 413.0802307128906 297.0815734863281 412.2293701171875 C 300.4657287597656 411.330810546875 302.90155029296875 410.3515625 304.6299133300781 409.3402099609375 C 305.8946533203125 408.22833251953125 306.8677062988281 406.9537658691406 307.84002685546875 405.5824279785156 C 309.22314453125 403.9108581542969 311.2869873046875 402.1097106933594 314.1769714355469 400.2644348144531 C 318.07379150390625 398.52294921875 322.7118835449219 397.2049865722656 327.7636413574219 396.4996337890625 C 333.00506591796875 396.6324157714844 338.13616943359375 397.8265686035156 342.7722473144531 400.2019348144531 C 346.8957214355469 403.71502685546875 350.2943115234375 408.1900329589844 353.2585754394531 412.89801025390625 C 355.2832946777344 417.72161865234375 357.5186767578125 421.3077087402344 360.54986572265625 423.12188720703125 C 362.4684143066406 422.7282409667969 365.198486328125 420.2540283203125 368.3660888671875 416.90045166015625 C 373.5377502441406 414.4519348144531 378.6607971191406 411.6223449707031 384.2510986328125 409.00579833984375 C 390.21270751953125 406.537109375 396.41162109375 403.9049987792969 402.5001525878906 400.84619140625 C 408.2691650390625 397.134521484375 413.5989990234375 392.67645263671875 418.1593933105469 387.5126953125 C 421.7414855957031 381.7685241699219 424.28155517578125 375.76611328125 425.6805725097656 369.944580078125 C 426.6597595214844 364.8148498535156 426.3962097167969 360.343505859375 424.9779968261719 356.7953796386719 C 422.65167236328125 354.0230407714844 419.84112548828125 351.6907653808594 416.9843444824219 349.4188232421875 C 414.59735107421875 346.66888427734375 412.97418212890625 343.1660461425781 412.2981872558594 339.0335693359375 C 412.7738342285156 334.1302185058594 414.1952209472656 328.65545654296875 416.2420959472656 322.9383850097656 C 418.6445007324219 317.2906494140625 421.30902099609375 312.0235900878906 424.009033203125 307.37579345703125 C 426.9400939941406 303.7290344238281 429.9278869628906 300.8581848144531 432.6821594238281 298.4054870605469 C 435.1609802246094 296.0998229980469 437.3962097167969 293.7264709472656 437.5219421386719 290.3722839355469" stroke-width="0.0" fill="rgb(72, 128, 93)" opacity="0.9996578" stroke="rgb(214, 245, 183)" stroke-opacity="0.8082053" stroke-linecap="round" stroke-linejoin="round"/>
    <path d="M 1.5952086448669434 -0.49965107440948486 C 2.483513355255127 -0.41260576248168945 3.245422840118408 -0.3281816244125366 3.9142556190490723 -0.2409316599369049 C 4.506909370422363 -0.15962298214435577 4.880913257598877 -0.06872286647558212 5.258268356323242 -0.009821843355894089 C 5.84223747253418 0.006487449165433645 6.804165840148926 0.00460573798045516 8.575078010559082 -0.06921268999576569 C 11.481253623962402 -0.012144513428211212 15.766561508178711 -0.031442709267139435 21.70122718811035 -0.14915381371974945 C 29.466289520263672 -0.06379228085279465 38.98735427856445 -0.09158094227313995 50.14356231689453 -0.11697135865688324 C 62.74055099487305 -0.1799899935722351 76.47473907470703 -0.1612684577703476 90.92941284179688 -0.08710082620382309 C 105.71953582763672 -0.09688792377710342 120.52424621582031 -0.021146323531866074 135.04135131835938 -0.17767132818698883 C 149.00535583496094 -0.07255929708480835 162.35316467285156 -0.04764702171087265 175.0826873779297 -0.24458277225494385 C 187.3086395263672 0.029493743553757668 199.249755859375 0.3360052704811096 211.05853271484375 0.1554802805185318 C 222.8487091064453 1.27033269405365 234.6338653564453 2.2292516231536865 246.38113403320312 3.080026149749756 C 258.2252502441406 3.8028178215026855 270.1621398925781 3.9423410892486572 282.2040100097656 3.469013214111328 C 294.6748046875 2.6116020679473877 307.4681701660156 1.2005925178527832 320.8301086425781 -0.26601091027259827 C 334.99151611328125 -1.3066174983978271 349.6712341308594 -2.5044920444488525 364.7340087890625 -3.2789227962493896 C 379.9337158203125 -3.343923807144165 394.6192626953125 -2.424703598022461 407.95562744140625 -0.40437978506088257 C 418.9067687988281 3.154233455657959 426.4149169921875 8.110743522644043 429.7398986816406 14.366841316223145 C 428.0902099609375 21.475391387939453 421.99517822265625 28.2518253326416 411.85797119140625 34.72703170776367 C 397.95440673828125 39.871158599853516 382.2261962890625 44.16862487792969 366.37164306640625 48.188968658447266 C 350.7205810546875 50.43012619018555 338.3023986816406 53.46498489379883 330.2065124511719 57.716732025146484 C 328.2607116699219 63.18653106689453 332.0533142089844 67.9819564819336 340.72698974609375 71.52484130859375 C 353.57427978515625 72.73107147216797 368.5168151855469 74.069580078125 384.8599853515625 75.27252960205078 C 400.1431579589844 77.72174835205078 414.1675720214844 81.8868408203125 426.152587890625 87.30693817138672 C 434.7751159667969 95.18313598632812 440.2568359375 103.14096069335938 442.1222229003906 111.14580535888672 C 441.07061767578125 118.2835693359375 437.2673645019531 123.63385009765625 430.8454895019531 126.83285522460938 C 422.3344421386719 126.9964828491211 412.1451110839844 124.22006225585938 401.7774353027344 118.13654327392578 C 390.1722412109375 110.4717025756836 377.1822814941406 103.07221221923828 364.59307861328125 95.32061004638672 C 351.4347839355469 87.96124267578125 337.60565185546875 82.94356536865234 323.6702575683594 78.3111343383789 C 310.0202331542969 73.99634552001953 296.7239990234375 71.1429443359375 284.5046691894531 69.16988372802734 C 274.22906494140625 67.51161193847656 266.2546691894531 66.76856994628906 261.1902770996094 66.30050659179688 C 259.16363525390625 66.44268798828125 259.9979248046875 67.21764373779297 263.1343994140625 68.74296569824219 C 267.9057312011719 71.48616027832031 273.9097900390625 74.85786437988281 280.3383483886719 79.24041748046875 C 286.7286682128906 84.30741119384766 292.8951721191406 89.14511108398438 298.9067077636719 92.8680648803711 C 304.5823059082031 94.55687713623047 309.0753173828125 94.58541870117188 311.5811767578125 93.38211822509766 C 311.45703125 92.15857696533203 308.4277038574219 91.67381286621094 302.541259765625 92.34019470214844 C 294.1148376464844 94.2729263305664 283.49835205078125 96.66453552246094 271.5345458984375 99.47186279296875 C 258.8673400878906 102.41980743408203 245.91207885742188 105.63469696044922 233.1508026123047 108.98033142089844 C 220.86859130859375 112.61500549316406 208.93417358398438 116.84175109863281 197.54148864746094 122.24066162109375 C 186.6842803955078 129.56016540527344 175.6282501220703 137.4642791748047 164.00860595703125 144.99725341796875 C 151.88197326660156 151.7705841064453 139.86753845214844 157.0619659423828 128.5660858154297 160.0336456298828 C 118.80558013916016 159.93106079101562 111.50067138671875 156.4257049560547 107.26680755615234 149.57861328125 C 106.87355041503906 140.1230010986328 110.15087127685547 129.0839080810547 116.35467529296875 117.40238952636719 C 124.5995864868164 105.95732879638672 133.7250518798828 95.42852020263672 142.9019012451172 86.4591064453125 C 151.19223022460938 79.20445251464844 157.35568237304688 73.3878402709961 160.96176147460938 68.92696380615234 C 162.193359375 65.82044982910156 160.26388549804688 63.31898880004883 155.43601989746094 61.31430435180664 C 149.1474609375 58.94038772583008 140.9767303466797 58.0354118347168 131.88914489746094 58.51191711425781 C 122.67924499511719 58.71861267089844 114.18989562988281 59.425758361816406 106.87662506103516 59.96983337402344 C 101.17791748046875 60.89866256713867 97.24565124511719 63.18377685546875 94.99138641357422 66.57843017578125 C 94.15782928466797 70.9444808959961 94.28153991699219 76.01143646240234 94.81362915039062 81.36419677734375 C 96.82308197021484 86.63858032226562 98.75175476074219 91.93275451660156 101.08112335205078 97.47050476074219 C 103.40489959716797 103.41831970214844 105.46392059326172 110.15353393554688 107.04106903076172 118.0887451171875 C 106.78981018066406 127.2305679321289 104.41462707519531 137.33358764648438 100.14234924316406 148.0196533203125 C 93.14400482177734 158.5274200439453 83.62554168701172 168.23538208007812 71.83613586425781 176.9230499267578 C 58.81157302856445 184.72030639648438 46.00536346435547 192.5219268798828 34.03996276855469 199.37545776367188 C 24.642719268798828 207.51954650878906 16.72081756591797 213.99649047851562 10.248513221740723 217.6322479248047 C 5.229516983032227 217.6153106689453 1.9406830072402954 214.1360626220703 0.34574007987976074 207.76956176757812 C 0.695288360118866 199.17501831054688 2.344531536102295 189.1256561279297 4.398324966430664 178.18914794921875 C 6.700479030609131 167.02655029296875 7.574365615844727 155.943115234375 6.5419158935546875 145.04393005371094 C 4.701651096343994 134.22901916503906 2.9193553924560547 123.08248901367188 1.0616239309310913 111.37533569335938 C 0.1529320627450943 98.98574829101562 -0.6195271611213684 85.88853454589844 -1.202164649963379 72.00947570800781 C -1.5091809034347534 57.51095199584961 -1.6883418560028076 42.49321746826172 -1.7089314460754395 27.069137573242188 C -1.6939618587493896 11.431817054748535 -1.6427732706069946 -4.305075645446777 1.5952086448669434 -0.49965107440948486" stroke-width="0.0" fill="rgb(148, 211, 234)" opacity="0.9996479" stroke="rgb(152, 175, 137)" stroke-opacity="0.3796741" stroke-linecap="round" stroke-linejoin="round"/>
    <path d="M 265.3493347167969 198.77281188964844 C 266.2400207519531 199.0161590576172 267.05047607421875 199.29312133789062 267.8288269042969 199.75405883789062 C 268.5568542480469 200.3527069091797 269.14532470703125 201.1226806640625 269.6597900390625 202.02371215820312 C 270.15283203125 202.99041748046875 270.5790710449219 204.0355224609375 270.9679870605469 205.07403564453125 C 271.39117431640625 206.07565307617188 271.7640380859375 206.97634887695312 272.12835693359375 207.83856201171875 C 272.4995422363281 208.65606689453125 272.85443115234375 209.4251251220703 273.2756652832031 210.15977478027344 C 273.6994323730469 210.90626525878906 274.13555908203125 211.69143676757812 274.6355895996094 212.5055389404297 C 275.07244873046875 213.34024047851562 275.56304931640625 214.18759155273438 276.0296936035156 215.06800842285156 C 276.5356140136719 216.00933837890625 277.0275573730469 217.01470947265625 277.5686950683594 217.98812866210938 C 278.144287109375 219.05747985839844 278.74603271484375 220.19708251953125 279.4137878417969 221.39431762695312 C 280.0714111328125 222.60791015625 280.7236328125 223.8274383544922 281.3231201171875 225.08401489257812 C 281.8516845703125 226.24862670898438 282.27685546875 227.3179168701172 282.62750244140625 228.22726440429688 C 282.9196472167969 228.9953155517578 283.17755126953125 229.6470489501953 283.41424560546875 230.25390625 C 283.6922302246094 230.85580444335938 283.9844970703125 231.53643798828125 284.3081970214844 232.33233642578125 C 284.7165832519531 233.21261596679688 285.16741943359375 234.21510314941406 285.67401123046875 235.34121704101562 C 286.16943359375 236.4974365234375 286.63092041015625 237.70095825195312 287.0438537597656 238.9114532470703 C 287.34771728515625 240.0286102294922 287.6843566894531 241.11593627929688 287.91864013671875 242.0816650390625 C 288.28961181640625 243.0467987060547 288.6293029785156 244.0212860107422 288.92779541015625 244.99302673339844 C 289.3045959472656 246.08192443847656 289.65606689453125 247.17918395996094 289.9576416015625 248.3936767578125 C 290.2942810058594 249.66526794433594 290.5989990234375 250.90216064453125 290.830322265625 252.1197509765625 C 291.08355712890625 253.3448028564453 291.28253173828125 254.49295043945312 291.4308776855469 255.563232421875 C 291.6080627441406 256.59466552734375 291.75494384765625 257.5652770996094 291.9471435546875 258.5042724609375 C 292.1712341308594 259.468505859375 292.36419677734375 260.460693359375 292.54400634765625 261.4934387207031 C 292.7010803222656 262.6106872558594 292.8985290527344 263.8121337890625 293.135498046875 265.0371398925781 C 293.3318176269531 266.2276916503906 293.5616149902344 267.38604736328125 293.7374572753906 268.49432373046875 C 293.8507385253906 269.510498046875 293.938720703125 270.4176940917969 293.9888000488281 271.2641296386719 C 294.0369567871094 272.16217041015625 294.1404113769531 273.13751220703125 294.2882385253906 274.2005310058594 C 294.48028564453125 275.5401916503906 294.7188720703125 277.15093994140625 294.9351501464844 279.0680847167969 C 295.0760803222656 281.3507080078125 295.0757141113281 283.9762268066406 294.8285827636719 286.85064697265625 C 294.2196350097656 289.97967529296875 293.2527160644531 293.1761169433594 291.87945556640625 296.40887451171875 C 290.1622619628906 299.6415710449219 288.29974365234375 302.7909851074219 286.43359375 305.8236083984375 C 284.6623229980469 308.562744140625 282.8782653808594 310.8040771484375 281.11737060546875 312.37640380859375 C 279.1702880859375 313.03253173828125 276.9096374511719 312.7420959472656 274.2892761230469 311.9609069824219 C 271.2749328613281 311.3357849121094 267.8393859863281 310.8560791015625 264.23614501953125 310.50872802734375 C 260.62591552734375 310.31402587890625 257.29376220703125 310.13134765625 254.46490478515625 309.8990173339844 C 252.3101043701172 309.68121337890625 250.97377014160156 309.5267028808594 250.59207153320312 309.4631652832031 C 251.22915649414062 309.50238037109375 252.755126953125 309.583251953125 255.0294189453125 309.70062255859375 C 257.71734619140625 309.9779052734375 260.2903137207031 310.5516357421875 262.2351379394531 311.46331787109375 C 263.1554870605469 312.7513427734375 262.8476867675781 314.2320251464844 261.300537109375 315.70965576171875 C 258.7882385253906 317.0580749511719 255.74668884277344 318.2604675292969 252.39205932617188 319.4185485839844 C 248.9019775390625 320.5877380371094 245.40597534179688 321.6816711425781 242.0273895263672 322.7058410644531 C 238.73936462402344 323.6128234863281 235.49559020996094 324.47222900390625 232.18380737304688 325.2729797363281 C 228.76234436035156 325.9440002441406 225.30661010742188 326.5386047363281 221.8737335205078 327.0470275878906 C 218.42588806152344 327.30328369140625 215.11907958984375 327.3362121582031 212.0498046875 327.186279296875 C 209.25723266601562 326.78521728515625 206.85121154785156 326.1124572753906 204.93667602539062 325.2554016113281 C 203.506103515625 324.1845703125 202.5326690673828 322.9604187011719 201.99093627929688 321.6378479003906 C 201.64791870117188 320.193115234375 201.33135986328125 318.65582275390625 200.88880920410156 316.89007568359375 C 200.28866577148438 314.9413146972656 199.4878692626953 312.7513122558594 198.51126098632812 310.24383544921875 C 197.40347290039062 307.37530517578125 196.1470489501953 304.23553466796875 194.8100128173828 300.90203857421875 C 193.39181518554688 297.4581604003906 191.98916625976562 293.9805603027344 190.88658142089844 290.54254150390625 C 190.3204803466797 287.09588623046875 190.38912963867188 283.7458801269531 191.04122924804688 280.61456298828125 C 192.1731719970703 277.571533203125 193.64190673828125 274.63519287109375 195.4058074951172 271.7960510253906 C 197.33255004882812 268.9377136230469 199.43748474121094 266.017578125 201.64309692382812 263.0406188964844 C 203.92445373535156 260.02911376953125 206.3894500732422 256.99407958984375 209.04331970214844 253.93301391601562 C 211.872802734375 250.8739471435547 214.76451110839844 247.82781982421875 217.66786193847656 244.79942321777344 C 220.55398559570312 241.8704833984375 223.3727264404297 239.12908935546875 226.22201538085938 236.57176208496094 C 229.143310546875 234.31739807128906 232.1309051513672 232.1312255859375 235.17552185058594 230.0363006591797 C 238.30775451660156 228.00022888183594 241.48431396484375 225.78924560546875 244.63050842285156 223.47616577148438 C 247.6747283935547 221.0572967529297 250.5382843017578 218.29043579101562 253.3130340576172 215.31982421875 C 255.91693115234375 212.23924255371094 258.2816162109375 209.07887268066406 260.5149841308594 205.9212646484375 C 262.6070251464844 202.7046356201172 264.6405334472656 199.43795776367188 265.3493347167969 198.77281188964844" stroke-width="0.0" fill="rgb(109, 116, 119)" opacity="0.99963075" stroke="rgb(93, 37, 234)" stroke-opacity="0.26187748" stroke-linecap="round" stroke-linejoin="round"/>
    <path d="M 438.2772521972656 170.63134765625 C 439.82476806640625 172.08895874023438 441.15179443359375 173.5906982421875 442.1588439941406 175.3148193359375 C 442.9642333984375 177.5222930908203 443.7796630859375 180.5164031982422 444.6112976074219 184.49037170410156 C 445.45147705078125 189.70082092285156 446.2440185546875 196.1784210205078 446.8740539550781 203.75509643554688 C 447.23736572265625 212.21688842773438 447.2891845703125 221.50755310058594 446.99578857421875 231.33360290527344 C 446.3223876953125 241.3204803466797 445.3072509765625 251.1756591796875 444.04473876953125 260.6297302246094 C 442.6551818847656 269.3692932128906 441.2104187011719 277.2657470703125 439.73431396484375 284.1840515136719 C 438.2367858886719 289.9070739746094 436.6394958496094 294.4473571777344 434.7327575683594 297.8944091796875 C 432.3499450683594 300.33294677734375 429.59619140625 302.2119140625 426.7109680175781 303.9835205078125 C 424.3967590332031 306.4044494628906 422.66595458984375 309.4393615722656 421.3865661621094 313.12579345703125 C 420.3074645996094 317.14697265625 419.40826416015625 321.25390625 418.69598388671875 325.2503662109375 C 418.1678466796875 329.0193176269531 417.9831848144531 332.6290588378906 418.4288330078125 336.32379150390625 C 419.4578552246094 340.42529296875 420.7257080078125 345.1102600097656 422.0370178222656 350.50946044921875 C 423.22821044921875 356.62725830078125 424.013916015625 363.1515808105469 424.26702880859375 369.5342712402344 C 424.2010192871094 374.96575927734375 424.5465393066406 378.58660888671875 425.6441345214844 379.8398742675781 C 427.1578369140625 378.3014831542969 428.705322265625 374.3187255859375 430.13720703125 368.64508056640625 C 431.5404357910156 362.15777587890625 432.8493347167969 355.7729797363281 434.03369140625 350.3453674316406 C 435.03411865234375 346.6172180175781 435.7847900390625 345.0783996582031 436.26641845703125 345.9572448730469 C 436.5182189941406 349.2398681640625 436.4978332519531 354.7427673339844 436.18621826171875 361.91650390625 C 435.42034912109375 370.15606689453125 434.15130615234375 378.8903503417969 432.48822021484375 387.6591491699219 C 430.750244140625 396.1808776855469 428.71173095703125 404.1549072265625 426.3268127441406 411.29693603515625 C 423.8271484375 417.6337890625 421.3909912109375 423.0809020996094 419.2374572753906 427.5610046386719 C 417.3667907714844 431.0345764160156 415.67755126953125 433.367431640625 413.9256896972656 434.4745788574219 C 411.8047790527344 434.58935546875 408.9936218261719 433.919921875 405.1994323730469 432.9381408691406 C 400.2040100097656 432.1405334472656 393.9206237792969 431.6353759765625 386.4564514160156 431.3640441894531 C 377.98150634765625 431.2904357910156 368.7819519042969 431.4088134765625 359.3277282714844 431.7950439453125 C 350.1714782714844 432.3540344238281 341.84716796875 432.9327087402344 334.8602600097656 433.338134765625 C 329.7071533203125 433.5419616699219 326.8730773925781 433.4639892578125 326.7306213378906 433.107421875 C 329.404541015625 432.65203857421875 334.8231506347656 432.2457580566406 342.6778869628906 431.85601806640625 C 352.4818115234375 431.6258239746094 363.4952697753906 431.5362854003906 374.7857971191406 431.3177490234375 C 385.41302490234375 430.8060302734375 394.3398742675781 429.66259765625 400.6953125 427.8584289550781 C 403.78106689453125 425.4778137207031 403.25946044921875 422.9219055175781 399.4871826171875 420.8392028808594 C 393.5387878417969 419.3087463378906 386.7715759277344 418.0507507324219 380.190185546875 416.82073974609375 C 374.97607421875 415.1382751464844 371.88348388671875 412.48297119140625 371.4754943847656 408.39764404296875 C 374.22528076171875 402.6001281738281 379.6407775878906 395.067626953125 386.9858703613281 386.17022705078125 C 395.3653259277344 376.74951171875 403.4839782714844 367.7308349609375 409.4573059082031 359.7447509765625 C 411.19677734375 353.43194580078125 408.85089111328125 350.19586181640625 403.53759765625 351.09912109375 C 396.7976379394531 356.68658447265625 389.1164855957031 365.30157470703125 380.7658996582031 375.3493347167969 C 372.4648132324219 385.5912780761719 365.1158447265625 395.5271301269531 359.0665283203125 404.7703857421875 C 353.48046875 412.4545593261719 347.6771240234375 418.262451171875 341.4748229980469 422.35955810546875 C 334.8315734863281 424.9336853027344 327.6640625 426.3143615722656 319.7550354003906 426.67950439453125 C 311.2966613769531 426.31201171875 302.5235595703125 425.5751953125 293.6142883300781 424.7372131347656 C 284.8953552246094 423.6749267578125 276.72125244140625 422.3390197753906 269.41455078125 420.9090881347656 C 263.23583984375 419.49658203125 258.2536315917969 418.3151550292969 254.5498046875 417.5885925292969 C 252.07447814941406 417.17425537109375 250.7291259765625 416.8197937011719 250.40895080566406 416.12725830078125 C 251.05323791503906 414.86285400390625 252.55364990234375 412.82830810546875 254.76300048828125 409.9473876953125 C 257.6427001953125 406.14471435546875 260.89361572265625 401.3598937988281 264.3880310058594 395.3650207519531 C 268.4166259765625 388.55828857421875 273.0946960449219 381.3115234375 278.30975341796875 373.58306884765625 C 283.8175964355469 365.2416076660156 289.58697509765625 356.64007568359375 295.6109619140625 347.98956298828125 C 301.78118896484375 339.316650390625 307.91571044921875 330.26300048828125 313.2674255371094 320.9731750488281 C 318.4538269042969 311.88702392578125 323.1724853515625 302.4442138671875 327.2381896972656 292.6410217285156 C 330.5249328613281 282.6780700683594 333.0162658691406 272.7591857910156 334.5207824707031 263.1033630371094 C 335.2162170410156 254.27334594726562 335.91107177734375 246.84327697753906 337.6470031738281 241.4856719970703 C 341.1605224609375 238.93251037597656 345.5815734863281 238.7929229736328 349.8625183105469 239.676025390625 C 353.40521240234375 239.82203674316406 356.1844177246094 238.84324645996094 358.2845764160156 236.963134765625 C 360.11578369140625 234.5956268310547 362.12152099609375 231.7757110595703 364.4432678222656 228.3275146484375 C 367.1981506347656 224.25828552246094 370.62493896484375 219.7691650390625 375.4862365722656 215.49862670898438 C 381.7332763671875 211.6409149169922 388.8088684082031 208.31236267089844 396.175048828125 205.78045654296875 C 403.4173889160156 204.36593627929688 409.80096435546875 203.1397705078125 414.8677978515625 200.85523986816406 C 418.6832580566406 197.26974487304688 422.0157775878906 192.80059814453125 425.75189208984375 188.33892822265625 C 430.47900390625 184.69554138183594 435.5648193359375 181.31378173828125 438.2772521972656 170.63134765625" stroke-width="0.0" fill="rgb(152, 212, 236)" opacity="0.9996715" stroke="rgb(168, 26, 175)" stroke-opacity="0.24237897" stroke-linecap="round" stroke-linejoin="round"/>
    <path d="M 97.8860855102539 36.58026123046875 C 98.51235961914062 37.06993865966797 98.99337005615234 37.56352233886719 99.21092224121094 38.091880798339844 C 99.19149017333984 38.58406448364258 98.96604919433594 39.047821044921875 98.92880249023438 39.621612548828125 C 99.15370178222656 40.453189849853516 99.68869018554688 41.81754684448242 100.64153289794922 43.97840881347656 C 102.03219604492188 47.060813903808594 103.78733825683594 51.291542053222656 105.79456329345703 56.61783981323242 C 107.96124267578125 62.66203689575195 110.22785949707031 69.00822448730469 112.651123046875 75.21553039550781 C 115.20362091064453 80.70952606201172 117.93670654296875 84.85992431640625 120.8702163696289 87.33907318115234 C 124.14337921142578 88.21088409423828 128.05650329589844 87.73670196533203 132.97889709472656 86.31295013427734 C 139.0292205810547 84.42423248291016 146.11862182617188 82.37747955322266 154.21554565429688 80.50411987304688 C 163.0528564453125 78.96504974365234 172.4288787841797 77.74412536621094 182.29412841796875 76.38618469238281 C 192.58641052246094 74.55628967285156 203.2047119140625 72.60773468017578 214.1129150390625 70.85248565673828 C 225.25204467773438 69.39435577392578 236.40289306640625 68.46856689453125 247.30221557617188 68.36714935302734 C 257.72503662109375 69.1665267944336 267.3033142089844 70.61865234375 275.49237060546875 72.72621154785156 C 282.1428527832031 75.79295349121094 287.32342529296875 79.91398620605469 291.2496643066406 84.71781921386719 C 294.4712829589844 89.47333526611328 298.3309020996094 92.53386688232422 303.08148193359375 93.54119873046875 C 307.7438659667969 93.37368774414062 311.3963928222656 92.90953826904297 313.0992736816406 92.8267822265625 C 312.26019287109375 93.46363830566406 308.8621826171875 94.53910827636719 303.0880126953125 95.6351318359375 C 295.4975891113281 96.3885726928711 286.693603515625 96.92610168457031 277.34490966796875 98.05835723876953 C 268.13104248046875 101.22140502929688 259.1502380371094 105.46260833740234 250.11705017089844 109.8427734375 C 240.58319091796875 113.1164779663086 230.6312255859375 115.13746643066406 220.61399841308594 116.18746185302734 C 211.46075439453125 116.8789291381836 204.42210388183594 118.12579345703125 201.0574493408203 121.21089935302734 C 202.62066650390625 126.89258575439453 207.62107849121094 134.36981201171875 214.68434143066406 142.93162536621094 C 222.32589721679688 151.97193908691406 229.254150390625 160.94833374023438 234.3780975341797 169.42767333984375 C 236.85690307617188 177.0961151123047 236.05613708496094 183.86520385742188 231.90916442871094 189.69810485839844 C 224.77447509765625 194.57110595703125 215.1352996826172 198.85595703125 203.62452697753906 203.00567626953125 C 190.9099578857422 207.42990112304688 177.6352996826172 212.39532470703125 164.4230499267578 217.89962768554688 C 151.8412322998047 223.67657470703125 140.31715393066406 228.76087951660156 130.15322875976562 232.450439453125 C 121.50263977050781 233.9988555908203 114.47444152832031 233.16128540039062 109.05531311035156 230.09933471679688 C 105.36577606201172 225.16261291503906 103.41307067871094 218.80418395996094 103.378662109375 211.5340576171875 C 105.39276123046875 203.75584411621094 109.45183563232422 195.83120727539062 115.45779418945312 188.0565185546875 C 123.1324462890625 180.57696533203125 132.00784301757812 173.43817138671875 141.54344177246094 166.63282775878906 C 151.24942016601562 160.14120483398438 160.50291442871094 153.9974822998047 168.61610412597656 148.24777221679688 C 174.80410766601562 143.3002471923828 178.2732391357422 139.7259521484375 178.5789337158203 138.10687255859375 C 175.43392944335938 139.01943969726562 169.10060119628906 142.14585876464844 160.10617065429688 146.87225341796875 C 149.23257446289062 152.24769592285156 137.49656677246094 157.1051788330078 126.01201629638672 160.80642700195312 C 115.98180389404297 162.63818359375 108.5057601928711 161.1130828857422 104.44805908203125 155.56861877441406 C 104.1627426147461 146.44525146484375 106.59788513183594 135.06277465820312 110.7558364868164 122.92669677734375 C 115.41466522216797 111.89717102050781 118.8822021484375 103.68427276611328 119.0500717163086 99.74817657470703 C 115.9644775390625 102.05436706542969 112.58873748779297 110.03870391845703 108.99575805664062 121.56588745117188 C 105.24292755126953 134.38400268554688 102.33556365966797 147.16087341308594 99.60260772705078 158.6802520751953 C 95.0660171508789 168.1328582763672 88.16288757324219 175.3740234375 79.2003173828125 180.82571411132812 C 68.80790710449219 184.92727661132812 57.789310455322266 188.32855224609375 47.12318801879883 191.7483673095703 C 37.85487747192383 195.79112243652344 30.88959312438965 201.38931274414062 26.17070198059082 208.0490264892578 C 22.18986701965332 214.25552368164062 18.585962295532227 219.42059326171875 15.901934623718262 223.77374267578125 C 14.632710456848145 228.3285675048828 14.415754318237305 233.64834594726562 14.52334213256836 239.9127197265625 C 14.49985408782959 247.37071228027344 14.017642974853516 255.99679565429688 12.835477828979492 265.4388732910156 C 11.167125701904297 275.18292236328125 9.044099807739258 284.4704284667969 6.724088191986084 292.3857116699219 C 4.602691173553467 298.17730712890625 2.741156578063965 301.0075378417969 1.3179309368133545 300.47344970703125 C 0.28552910685539246 296.48004150390625 -0.34593480825424194 289.21539306640625 -0.5364636778831482 279.1838684082031 C -0.40625637769699097 267.1077575683594 -0.14365237951278687 253.7440948486328 0.13295193016529083 239.86489868164062 C 0.3425517976284027 226.27890014648438 0.3560211658477783 213.6437225341797 0.23050451278686523 202.5535125732422 C -0.04383591562509537 193.4123077392578 -0.35305020213127136 186.37794494628906 -0.3477383255958557 181.6819305419922 C 0.406381219625473 179.13934326171875 2.226494312286377 178.28009033203125 5.191439628601074 177.99685668945312 C 9.131300926208496 176.99432373046875 13.954740524291992 174.22581481933594 19.672887802124023 169.22825622558594 C 26.638378143310547 162.29638671875 34.938209533691406 154.11300659179688 44.452392578125 145.34716796875 C 54.79469680786133 136.7847442626953 65.19278717041016 128.95643615722656 74.99268341064453 122.09093475341797 C 83.47509002685547 116.32694244384766 90.08308410644531 111.44136047363281 94.66165924072266 107.30531311035156 C 97.39835357666016 104.03239440917969 98.73518371582031 101.45134735107422 99.08460998535156 99.07408905029297 C 98.74620056152344 96.37642669677734 98.05059051513672 92.66302490234375 97.16035461425781 87.40731048583984 C 96.03092193603516 80.41766357421875 94.5377197265625 71.82063293457031 92.79837799072266 62.045127868652344 C 91.0538101196289 51.516754150390625 89.41609191894531 40.74900817871094 97.8860855102539 36.58026123046875" stroke-width="0.0" fill="rgb(184, 170, 193)" opacity="0.9997387" stroke="rgb(181, 250, 242)" stroke-opacity="0.01712187" stroke-linecap="round" stroke-linejoin="round"/>
    <path d="M 331.76080322265625 86.56298828125 C 338.93731689453125 88.85125732421875 346.15478515625 91.43920135498047 353.5177307128906 94.55326843261719 C 361.13311767578125 98.23542785644531 369.18951416015625 102.46173095703125 377.72772216796875 107.28495025634766 C 386.72259521484375 112.72123718261719 395.9881896972656 118.97513580322266 405.12939453125 125.63372039794922 C 413.795654296875 132.34750366210938 421.2138671875 139.0587615966797 426.75408935546875 145.343994140625 C 430.04840087890625 151.02703857421875 431.12908935546875 155.70846557617188 429.7468566894531 159.0911102294922 C 425.99072265625 161.208740234375 420.3016662597656 162.2317657470703 413.30023193359375 162.5113983154297 C 405.6069641113281 162.5004425048828 397.8253173828125 162.481201171875 390.5642395019531 162.42698669433594 C 384.3620300292969 162.41859436035156 379.5455017089844 162.63882446289062 376.08905029296875 163.25425720214844 C 373.97857666015625 164.5185546875 372.6287841796875 165.64468383789062 371.3948974609375 166.08782958984375 C 369.9139099121094 165.6302490234375 368.0372314453125 164.48858642578125 365.32769775390625 163.35923767089844 C 361.5841979980469 163.0575408935547 356.7449035644531 163.54124450683594 350.8772277832031 164.41563415527344 C 344.11322021484375 165.5745086669922 336.6158447265625 166.85890197753906 328.4200134277344 168.19271850585938 C 319.69384765625 169.69117736816406 310.7200622558594 171.56629943847656 301.7085266113281 174.0069122314453 C 292.83685302734375 176.70150756835938 284.4388122558594 179.4466552734375 276.6603088378906 182.09201049804688 C 269.67022705078125 184.49859619140625 263.91497802734375 186.68101501464844 259.76531982421875 188.70703125 C 257.4122314453125 190.7481231689453 256.2750549316406 192.4229278564453 255.6449737548828 193.29949951171875 C 254.84384155273438 193.20936584472656 253.360595703125 192.55348205566406 250.85610961914062 192.1234893798828 C 247.18052673339844 192.54913330078125 242.44056701660156 193.66648864746094 236.72129821777344 195.08889770507812 C 230.33157348632812 196.7330322265625 223.4202880859375 198.4985809326172 216.01039123535156 200.3634796142578 C 208.1837921142578 202.47149658203125 200.06613159179688 205.01588439941406 191.7512664794922 207.92709350585938 C 183.19129943847656 211.0966796875 174.48931884765625 214.56854248046875 165.66624450683594 218.45941162109375 C 156.8080291748047 222.48631286621094 148.16712951660156 226.7649383544922 140.0227813720703 231.2610321044922 C 132.47787475585938 235.58641052246094 125.72816467285156 239.57786560058594 119.925048828125 243.04766845703125 C 115.35397338867188 246.00987243652344 112.3280258178711 248.72537231445312 110.86322784423828 251.40184020996094 C 110.38662719726562 253.90771484375 109.99100494384766 255.7430419921875 108.8614501953125 256.4218444824219 C 106.85681915283203 255.98590087890625 103.9300765991211 255.30836486816406 99.89458465576172 255.4949951171875 C 94.54090881347656 257.1677551269531 87.87358856201172 259.8077697753906 80.04690551757812 263.18402099609375 C 71.36107635498047 267.1650085449219 62.3858528137207 271.95965576171875 53.502445220947266 277.42999267578125 C 45.22465896606445 283.1138610839844 37.850341796875 288.41943359375 31.388771057128906 292.4115905761719 C 25.99359130859375 294.3885803222656 21.83514976501465 294.216552734375 18.88318634033203 292.14471435546875 C 17.088882446289062 288.884765625 16.096866607666016 285.4382629394531 15.379883766174316 282.9013977050781 C 14.501383781433105 282.4033203125 13.809967041015625 284.0465393066406 13.326397895812988 287.626708984375 C 12.970661163330078 292.5533142089844 12.742385864257812 298.2171936035156 12.666997909545898 304.0675964355469 C 13.026294708251953 309.42425537109375 13.078129768371582 313.62823486328125 12.43532943725586 316.3356018066406 C 11.195817947387695 317.2291564941406 9.773629188537598 316.341552734375 8.481440544128418 314.1492614746094 C 7.3271989822387695 310.9638977050781 5.859714031219482 307.3857421875 3.935100793838501 303.544677734375 C 2.0257036685943604 299.14581298828125 0.45583274960517883 293.92706298828125 -0.701301097869873 287.7226257324219 C -1.5450438261032104 280.52960205078125 -2.300386905670166 272.4619445800781 -3.0621321201324463 263.7810363769531 C -3.5623748302459717 254.8582000732422 -3.4503917694091797 246.31089782714844 -2.2358920574188232 238.69778442382812 C 0.6662145256996155 232.54359436035156 5.4461283683776855 228.1527557373047 11.639864921569824 225.2106170654297 C 18.507089614868164 223.18112182617188 25.151634216308594 221.199462890625 30.796875 218.38819885253906 C 35.135982513427734 214.24481201171875 38.86540222167969 209.65382385253906 42.75563049316406 205.28123474121094 C 47.365577697753906 201.39891052246094 52.81340789794922 197.85374450683594 59.025184631347656 194.4423370361328 C 65.80171203613281 190.9476776123047 72.757080078125 187.2411651611328 79.59078979492188 183.62396240234375 C 86.1246337890625 180.52944946289062 91.95265197753906 178.27671813964844 96.66839599609375 176.7898712158203 C 99.99675750732422 175.89306640625 101.88555908203125 175.7530059814453 102.62474822998047 176.69642639160156 C 102.66100311279297 178.55514526367188 102.45392608642578 180.7235107421875 102.462890625 182.45840454101562 C 103.12730407714844 182.95474243164062 104.5264663696289 181.95497131347656 106.72061920166016 179.73934936523438 C 109.95221710205078 176.72027587890625 114.34806060791016 173.22259521484375 119.94153594970703 169.52459716796875 C 126.7931137084961 165.8018035888672 134.6907196044922 162.1231231689453 143.40011596679688 158.61343383789062 C 152.52053833007812 155.12620544433594 161.3715057373047 151.21800231933594 169.3886260986328 146.66749572753906 C 176.13143920898438 141.31727600097656 181.55548095703125 135.54568481445312 186.22103881835938 130.2309112548828 C 190.31613159179688 125.95184326171875 194.05104064941406 123.05301666259766 197.70974731445312 121.90113067626953 C 201.5706787109375 122.65474700927734 205.9517822265625 123.62010192871094 211.11293029785156 123.58604431152344 C 217.112060546875 122.57808685302734 223.84068298339844 120.95934295654297 231.21949768066406 119.00601959228516 C 239.02171325683594 116.98462677001953 246.93795776367188 114.7813491821289 254.74049377441406 112.53787994384766 C 262.30413818359375 110.42311096191406 269.5304870605469 108.51319122314453 276.37384033203125 106.76777648925781 C 282.823974609375 104.85635375976562 288.9984130859375 102.71773529052734 295.166259765625 100.48443603515625 C 301.6640930175781 98.3116226196289 308.53448486328125 96.45079803466797 315.7027282714844 94.80410766601562 C 323.1131896972656 93.23641204833984 330.6475524902344 91.66145324707031 331.76080322265625 86.56298828125" stroke-width="0.0" fill="rgb(109, 51, 92)" opacity="0.99961644" stroke="rgb(0, 117, 184)" stroke-opacity="0.21648504" stroke-linecap="round" stroke-linejoin="round"/>
  </g>
</svg>
