<?xml version="1.0" ?>
<svg xmlns="http://www.w3.org/2000/svg" version="1.1" width="438" height="481">
  <defs/>
  <g>
    <path d="M 260.4991760253906 69.27072143554688 C 269.6499328613281 69.25332641601562 278.1200256347656 70.40238952636719 286.736572265625 71.54354095458984 C 295.7040710449219 72.87271118164062 305.398681640625 74.46294403076172 316.0499572753906 77.02367401123047 C 327.9414367675781 79.96394348144531 340.9559631347656 84.25558471679688 355.2812194824219 90.08930206298828 C 369.5320739746094 99.2644271850586 385.0450744628906 109.38961029052734 401.0415344238281 119.89348602294922 C 415.9272766113281 131.1829376220703 428.80364990234375 142.4678497314453 438.0462341308594 154.4181671142578 C 439.63238525390625 167.3419189453125 436.2389221191406 179.27764892578125 428.041748046875 189.76918029785156 C 417.9160461425781 199.17604064941406 405.73809814453125 206.08033752441406 392.9127197265625 210.78033447265625 C 381.8345031738281 216.70164489746094 371.942626953125 222.5861053466797 363.62640380859375 229.25291442871094 C 356.40655517578125 236.43264770507812 348.21612548828125 243.46034240722656 340.97613525390625 252.12838745117188 C 336.1133117675781 263.61865234375 331.881103515625 277.1502685546875 327.026611328125 292.287353515625 C 320.7811584472656 308.9706726074219 311.590087890625 323.55950927734375 301.52294921875 339.3222961425781 C 291.18157958984375 354.685791015625 280.7515563964844 367.71417236328125 272.0300598144531 380.91845703125 C 265.6917419433594 393.7890319824219 259.85296630859375 403.46392822265625 253.3222198486328 410.52838134765625 C 248.42149353027344 416.54327392578125 244.75357055664062 421.9881591796875 242.1020050048828 427.8193664550781 C 240.38540649414062 434.31585693359375 238.68402099609375 441.0755615234375 236.4993133544922 447.1729736328125 C 233.655029296875 451.2842102050781 230.3677520751953 452.1408386230469 227.15228271484375 449.1094970703125 C 223.76214599609375 441.8641357421875 220.84507751464844 431.43218994140625 219.86598205566406 418.0259094238281 C 218.42169189453125 403.1874084472656 215.20956420898438 388.0526123046875 213.02403259277344 373.4996337890625 C 207.87564086914062 362.0419006347656 204.62353515625 353.2309875488281 209.0452423095703 346.945556640625 C 220.4012908935547 340.9245910644531 236.1443634033203 336.4766845703125 252.73291015625 331.6846618652344 C 266.6500244140625 326.1741027832031 275.57403564453125 320.07647705078125 276.8959655761719 312.6027526855469 C 269.61785888671875 310.5727233886719 257.1650085449219 311.0171203613281 241.22239685058594 312.3021545410156 C 224.19667053222656 315.04510498046875 208.2084197998047 319.1084289550781 195.156982421875 324.5493469238281 C 187.97999572753906 333.11029052734375 183.24363708496094 341.9393005371094 177.15350341796875 347.6494140625 C 167.0754852294922 347.7467041015625 155.9779510498047 347.07586669921875 145.80076599121094 349.4440612792969 C 138.9656524658203 357.48345947265625 134.9452667236328 367.8476257324219 134.87266540527344 379.9817810058594 C 138.97987365722656 391.63116455078125 141.72264099121094 403.1572570800781 138.7588653564453 415.6484375 C 136.25582885742188 429.8591003417969 133.38050842285156 444.58837890625 131.6973419189453 459.5364990234375 C 130.32012939453125 472.9657287597656 121.83000946044922 483.2823486328125 110.37737274169922 490.1643371582031 C 95.91036224365234 494.4814147949219 79.39982604980469 496.2705993652344 61.76873016357422 495.4810791015625 C 44.123069763183594 492.39471435546875 27.757915496826172 487.4248046875 14.156222343444824 480.8059387207031 C 4.292126655578613 473.3616638183594 -0.5642367005348206 465.3268737792969 0.23124003410339355 457.11090087890625 C 6.020895957946777 449.41351318359375 14.397045135498047 442.7094421386719 23.350139617919922 436.84100341796875 C 31.38197898864746 431.7208557128906 36.627010345458984 426.9577941894531 38.50098419189453 422.51544189453125 C 35.589298248291016 418.3625793457031 29.858455657958984 414.4853820800781 23.03243637084961 410.6585693359375 C 16.923553466796875 406.76824951171875 13.2072172164917 403.0852966308594 12.890562057495117 399.70654296875 C 16.35003662109375 396.8297424316406 23.183828353881836 394.0899353027344 32.690696716308594 391.45538330078125 C 43.28378677368164 387.53302001953125 54.35090637207031 383.2212219238281 64.75755310058594 379.8453063964844 C 72.77925109863281 371.6531066894531 78.55360412597656 364.10498046875 81.84867095947266 356.6369934082031 C 84.73468780517578 351.66302490234375 84.48705291748047 348.5092468261719 80.12479400634766 347.4956970214844 C 71.54621124267578 347.4049072265625 59.54107666015625 348.50628662109375 45.009342193603516 349.86785888671875 C 30.20379638671875 354.65447998046875 16.832386016845703 358.9552001953125 5.294828414916992 361.7676086425781 C -2.1600141525268555 358.73516845703125 -6.528407096862793 350.47198486328125 -8.701431274414062 338.37811279296875 C -9.433440208435059 323.6079406738281 -9.10041618347168 306.9946594238281 -8.015182495117188 289.4069519042969 C -6.337660789489746 271.7729187011719 -3.904083251953125 254.5821990966797 -0.46870964765548706 238.59619140625 C 4.719954490661621 224.4835662841797 11.61175537109375 212.61329650878906 21.217859268188477 203.69508361816406 C 33.687156677246094 198.09686279296875 48.19694519042969 194.66268920898438 62.84798049926758 190.3543701171875 C 77.05267333984375 182.8671875 89.04837799072266 172.45770263671875 97.90143585205078 158.72955322265625 C 103.71490478515625 143.21762084960938 106.828369140625 127.12879943847656 111.42853546142578 113.54351806640625 C 115.05227661132812 103.27971649169922 118.16136169433594 98.19176483154297 119.82921600341797 99.47866821289062 C 117.33275604248047 106.38943481445312 113.38904571533203 116.6004409790039 110.78749084472656 128.80609130859375 C 112.06864929199219 141.22938537597656 116.81602478027344 151.58029174804688 124.87954711914062 158.20921325683594 C 135.5782012939453 159.4406280517578 147.72470092773438 155.64999389648438 161.33016967773438 148.9111328125 C 174.1771240234375 139.45033264160156 187.0157470703125 128.34695434570312 201.53602600097656 120.22004699707031 C 218.85276794433594 117.73915100097656 236.43788146972656 114.79805755615234 252.9674530029297 110.10259246826172 C 267.5491943359375 102.98844146728516 279.95806884765625 95.56591033935547 290.2356262207031 90.24746704101562 C 298.5492858886719 88.4712905883789 304.2345275878906 88.5146713256836 307.2118835449219 89.0550308227539 C 307.2504577636719 89.60755157470703 305.1268005371094 89.43335723876953 301.531005859375 88.99696350097656 C 297.5716552734375 88.29022216796875 294.03717041015625 86.26351165771484 291.62554931640625 83.23519897460938 C 290.55926513671875 79.64784240722656 289.9593200683594 76.02850341796875 260.4991760253906 69.27072143554688" stroke-width="0.0" fill="rgb(4, 2, 8)" opacity="0.99999434" stroke="rgb(132, 37, 73)" stroke-opacity="0.69533926" stroke-linecap="round" stroke-linejoin="round"/>
    <path d="M 438.4735107421875 290.7286071777344 C 439.5616149902344 292.15643310546875 440.5091247558594 293.546875 441.29095458984375 294.8373107910156 C 441.9137268066406 295.998291015625 442.3949890136719 297.0812683105469 442.78509521484375 298.13262939453125 C 443.1028747558594 299.1139831542969 443.3731384277344 300.0657043457031 443.6361999511719 301.08203125 C 443.8771057128906 302.1225891113281 444.0849914550781 303.1465759277344 444.291259765625 304.19244384765625 C 444.5120849609375 305.2439880371094 444.7011413574219 306.2111511230469 444.8420715332031 307.0577392578125 C 444.9972229003906 307.8306884765625 445.1764831542969 308.5207824707031 445.32940673828125 309.107177734375 C 445.4490661621094 309.7065734863281 445.5855407714844 310.46514892578125 445.74566650390625 311.48077392578125 C 445.9007568359375 312.8824462890625 446.0384521484375 314.8257141113281 446.1864929199219 317.47314453125 C 446.3609619140625 320.89715576171875 446.5254821777344 325.1183166503906 446.629150390625 330.17913818359375 C 446.64752197265625 335.9560546875 446.60357666015625 342.32818603515625 446.5217590332031 349.2140197753906 C 446.40728759765625 356.4340515136719 446.2646179199219 363.8128662109375 446.1214599609375 371.2535095214844 C 446.04193115234375 378.6930847167969 446.05169677734375 385.9767150878906 446.112060546875 393.0771789550781 C 446.1929931640625 400.06719970703125 446.3219299316406 406.9937438964844 446.4985656738281 413.92144775390625 C 446.66119384765625 421.0322265625 446.6976318359375 428.3629150390625 446.5645446777344 435.95037841796875 C 446.2091979980469 443.8428039550781 445.4769592285156 451.9014892578125 444.1861572265625 459.8603210449219 C 442.22216796875 467.4263000488281 439.4323425292969 474.10223388671875 435.5979919433594 479.33172607421875 C 430.7401428222656 482.5557556152344 425.409423828125 483.644775390625 420.23193359375 482.53973388671875 C 415.8677673339844 479.1938171386719 412.9013366699219 473.69354248046875 411.4651794433594 466.4676818847656 C 411.3304748535156 458.32989501953125 411.5037841796875 450.32763671875 410.71502685546875 443.7898254394531 C 407.772705078125 439.93267822265625 403.83099365234375 438.73040771484375 400.36090087890625 440.44549560546875 C 398.48529052734375 445.28643798828125 397.9200744628906 452.2486572265625 398.0365905761719 460.1815490722656 C 398.1516418457031 468.106689453125 397.1094970703125 475.2221984863281 394.0240173339844 480.8858337402344 C 388.7855529785156 484.8641357421875 382.1778564453125 487.38623046875 374.81512451171875 488.7404479980469 C 367.0544738769531 489.27337646484375 359.15069580078125 489.2705383300781 351.3115539550781 488.9490051269531 C 343.6127014160156 488.5170593261719 336.1144104003906 488.11962890625 328.81402587890625 487.8177795410156 C 321.67071533203125 487.5946044921875 314.682861328125 487.4622497558594 307.790771484375 487.43951416015625 C 300.97607421875 487.5228576660156 294.2244567871094 487.6159973144531 287.4237365722656 487.7479553222656 C 280.4693908691406 487.9553527832031 273.33349609375 488.221435546875 266.0012512207031 488.54364013671875 C 258.41864013671875 488.9251403808594 250.64132690429688 489.2916564941406 242.8075714111328 489.4570007324219 C 234.98733520507812 489.25311279296875 227.3753204345703 488.51861572265625 220.325439453125 487.0500793457031 C 214.2501678466797 484.6075134277344 209.70738220214844 480.9537658691406 207.23928833007812 475.9353942871094 C 207.03379821777344 469.7368469238281 208.31378173828125 463.0809326171875 210.0477752685547 456.62652587890625 C 211.79449462890625 451.2178039550781 213.92123413085938 447.9024963378906 216.40762329101562 447.46075439453125 C 218.94049072265625 450.17181396484375 221.51060485839844 455.3840026855469 224.3173370361328 461.8530578613281 C 227.77037048339844 468.142578125 232.5255126953125 472.7989196777344 238.65415954589844 474.92083740234375 C 245.37550354003906 474.4996032714844 251.7274169921875 471.7413635253906 256.84423828125 466.8623352050781 C 259.9272766113281 460.413330078125 260.9032287597656 453.0490417480469 260.3662109375 445.49884033203125 C 259.4493713378906 438.3848876953125 259.1737365722656 432.0350341796875 259.8993835449219 426.70355224609375 C 261.7628479003906 422.5269470214844 264.66412353515625 419.5307312011719 268.4289245605469 417.5364685058594 C 272.89068603515625 416.2383728027344 277.8260498046875 415.322998046875 282.96929931640625 414.5584716796875 C 288.10150146484375 413.8529052734375 292.9111022949219 413.0667724609375 297.124267578125 412.2181701660156 C 300.4918212890625 411.322021484375 302.951171875 410.3448486328125 304.6703186035156 409.3179626464844 C 305.88116455078125 408.2149658203125 306.8393249511719 406.9639892578125 307.83404541015625 405.5732421875 C 309.2085266113281 403.9535827636719 311.2467041015625 402.1131591796875 314.1354675292969 400.2644348144531 C 318.0308837890625 398.5633544921875 322.68292236328125 397.2025146484375 327.782958984375 396.48907470703125 C 333.04852294921875 396.5973815917969 338.14508056640625 397.806884765625 342.77679443359375 400.1894226074219 C 346.9005126953125 403.6805419921875 350.2864074707031 408.1402893066406 353.0023193359375 413.0582580566406 C 355.17608642578125 417.7715148925781 357.34808349609375 421.3875427246094 359.7856750488281 423.14886474609375 C 362.4665832519531 422.6686706542969 365.4867248535156 420.4455871582031 369.112060546875 417.4745788574219 C 373.5582275390625 414.4602966308594 378.6643981933594 411.5806579589844 384.25421142578125 408.9692077636719 C 390.22882080078125 406.5137023925781 396.3590087890625 403.8974609375 402.4467468261719 400.8419189453125 C 408.2659606933594 397.153076171875 413.5876770019531 392.7297058105469 418.1477966308594 387.5455017089844 C 421.7500305175781 381.7730712890625 424.3327941894531 375.820068359375 425.9166564941406 370.0279235839844 C 426.6224060058594 364.7645568847656 426.2789306640625 360.3343811035156 424.90423583984375 356.7627868652344 C 422.6701354980469 353.9689636230469 419.90435791015625 351.6596984863281 417.0538024902344 349.3896789550781 C 414.63690185546875 346.66326904296875 412.9759216308594 343.22161865234375 412.2939147949219 339.04608154296875 C 412.76904296875 334.1463317871094 414.1903991699219 328.6700744628906 416.2158508300781 322.9359130859375 C 418.64990234375 317.27099609375 421.3307189941406 311.9864196777344 424.1059875488281 307.4053955078125 C 427.0373229980469 303.7752380371094 429.9651184082031 300.8727722167969 432.6822204589844 298.4051818847656 C 435.21856689453125 296.14959716796875 437.5954895019531 293.95562744140625 438.4735107421875 290.7286071777344" stroke-width="0.0" fill="rgb(72, 128, 93)" opacity="0.99965733" stroke="rgb(214, 245, 183)" stroke-opacity="0.8082053" stroke-linecap="round" stroke-linejoin="round"/>
    <path d="M 1.5755722522735596 -0.470018595457077 C 2.455164670944214 -0.43472328782081604 3.246264696121216 -0.3245782256126404 3.9537014961242676 -0.21513225138187408 C 4.516186714172363 -0.15605953335762024 4.915811538696289 -0.09360070526599884 5.296648025512695 0.027224093675613403 C 5.844627380371094 0.11043752729892731 6.801248550415039 0.1067800223827362 8.568188667297363 0.08533447980880737 C 11.444924354553223 0.11937537789344788 15.71842098236084 0.1143951341509819 21.669633865356445 0.03212553635239601 C 29.4326171875 -0.014913028106093407 38.92855453491211 -0.062100209295749664 50.09983444213867 -0.1356460154056549 C 62.72963333129883 -0.17753726243972778 76.46743774414062 -0.160221129655838 90.93544006347656 -0.10382283478975296 C 105.74866485595703 -0.060194894671440125 120.55493927001953 0.036534130573272705 135.0709991455078 0.05502917245030403 C 149.03189086914062 0.05999321490526199 162.37405395507812 0.09467510133981705 175.08544921875 0.13752055168151855 C 187.32212829589844 0.23174193501472473 199.22219848632812 0.4340171813964844 211.0195770263672 0.8291375637054443 C 222.83705139160156 1.5316332578659058 234.6035614013672 2.4022395610809326 246.39407348632812 3.2831733226776123 C 258.2261657714844 3.9368984699249268 270.1573181152344 4.133267879486084 282.2452087402344 3.752742290496826 C 294.67254638671875 2.8675339221954346 307.49609375 1.5520265102386475 320.8848876953125 0.1162102073431015 C 334.9411315917969 -1.2792497873306274 349.605224609375 -2.500272035598755 364.67095947265625 -3.264035224914551 C 379.8868713378906 -3.346614122390747 394.579833984375 -2.467777967453003 407.8791198730469 -0.3059142827987671 C 418.8054504394531 3.3260011672973633 426.3277587890625 8.316788673400879 429.52020263671875 14.504317283630371 C 427.9570007324219 21.302345275878906 421.62744140625 28.01996612548828 411.1530456542969 34.260589599609375 C 397.51361083984375 39.62335968017578 381.9430847167969 43.836788177490234 365.8258972167969 47.26061248779297 C 350.721435546875 50.285804748535156 338.40960693359375 53.655765533447266 330.5639953613281 57.936214447021484 C 328.4925842285156 63.00677490234375 332.25115966796875 67.80284881591797 340.96380615234375 71.37019348144531 C 353.5318908691406 73.3123550415039 368.466064453125 74.54546356201172 384.3470458984375 75.95228576660156 C 399.88922119140625 78.51487731933594 413.98779296875 82.60194396972656 425.7405700683594 88.26224517822266 C 434.4872131347656 95.2862319946289 439.9391174316406 103.2037582397461 442.0671691894531 111.1971206665039 C 441.03076171875 118.2853012084961 437.14837646484375 123.57788848876953 430.79925537109375 126.37841796875 C 422.4778747558594 126.29351806640625 412.65130615234375 123.29067993164062 401.728271484375 117.79740142822266 C 390.0186462402344 110.59087371826172 377.57421875 102.84442901611328 364.6591796875 95.20521545410156 C 351.32940673828125 88.28504180908203 337.7330627441406 82.4903564453125 323.9285583496094 77.59898376464844 C 310.13690185546875 73.60940551757812 296.8457946777344 70.63134002685547 284.57965087890625 68.59014892578125 C 274.19482421875 67.29597473144531 266.1754150390625 66.49205017089844 261.0664367675781 66.22978973388672 C 259.07269287109375 66.51087188720703 259.8692321777344 67.32785034179688 263.01019287109375 68.90747833251953 C 267.9554138183594 71.343017578125 273.94610595703125 74.78458404541016 280.3664855957031 79.20753479003906 C 286.75323486328125 84.23739624023438 292.9015808105469 89.12848663330078 298.9213562011719 92.77042388916016 C 304.5876770019531 94.4683609008789 309.0965270996094 94.47332763671875 311.5979919433594 93.37179565429688 C 311.4812316894531 92.19422912597656 308.46435546875 91.61972045898438 302.6103515625 92.33503723144531 C 294.14434814453125 94.20993041992188 283.4748229980469 96.55714416503906 271.5052185058594 99.31645202636719 C 258.7950439453125 102.42280578613281 245.8577423095703 105.62982177734375 233.14785766601562 108.99215698242188 C 220.8186798095703 112.66749572753906 208.95396423339844 116.97501373291016 197.62452697753906 122.36257934570312 C 186.6714324951172 129.3101043701172 175.62391662597656 137.0588836669922 163.96095275878906 144.7452392578125 C 151.84381103515625 151.63223266601562 139.8124542236328 156.9163055419922 128.58084106445312 160.00299072265625 C 118.86058807373047 159.9420623779297 111.53349304199219 156.4029541015625 107.3270492553711 149.571533203125 C 106.93316650390625 140.13168334960938 110.20697021484375 129.10963439941406 116.4291000366211 117.45442199707031 C 124.64950561523438 105.95719909667969 133.75616455078125 95.39366149902344 142.92691040039062 86.40373229980469 C 151.17410278320312 79.17276000976562 157.47621154785156 73.41691589355469 161.24130249023438 69.046630859375 C 162.27835083007812 65.83657836914062 160.41709899902344 63.252506256103516 155.86537170410156 61.0528450012207 C 149.16896057128906 59.293739318847656 140.90170288085938 58.38609313964844 131.7968292236328 58.32075881958008 C 122.62822723388672 58.55312728881836 114.10659790039062 58.96628189086914 106.81241607666016 59.54294204711914 C 101.1425552368164 60.80217361450195 97.22608947753906 63.09772872924805 94.98746490478516 66.53929901123047 C 94.14366149902344 70.9459457397461 94.31880950927734 76.04012298583984 95.20954895019531 81.38096618652344 C 96.70513916015625 86.68998718261719 98.68233489990234 91.9811782836914 101.02933502197266 97.48527526855469 C 103.40504455566406 103.408935546875 105.42326354980469 110.10933685302734 106.57709503173828 118.0137710571289 C 106.34413146972656 127.17169189453125 104.32215881347656 137.23851013183594 100.0513687133789 147.92245483398438 C 93.1447982788086 158.4610137939453 83.62390899658203 168.1956024169922 71.81676483154297 176.9369354248047 C 58.77671432495117 184.69549560546875 45.79582595825195 191.96713256835938 34.01150894165039 199.3877716064453 C 24.508060455322266 207.45962524414062 16.655860900878906 214.00335693359375 10.220288276672363 217.65711975097656 C 5.228581428527832 217.6263427734375 1.9507875442504883 214.12344360351562 0.49110326170921326 207.7724609375 C 0.7879658937454224 199.1927490234375 2.3786332607269287 189.10198974609375 4.581455707550049 178.1955108642578 C 6.575027942657471 166.9624481201172 7.418519020080566 155.85479736328125 6.747176170349121 144.9717559814453 C 5.173272132873535 134.113037109375 3.364365339279175 122.986328125 1.7132134437561035 111.32132720947266 C 0.38246598839759827 98.98915100097656 -0.5593379139900208 85.92239379882812 -1.1963045597076416 72.0248794555664 C -1.5194910764694214 57.496482849121094 -1.6740299463272095 42.49085235595703 -1.7173330783843994 27.06477165222168 C -1.6767315864562988 11.41011905670166 -1.6314761638641357 -4.341143608093262 1.5755722522735596 -0.470018595457077" stroke-width="0.0" fill="rgb(148, 211, 234)" opacity="0.9996516" stroke="rgb(152, 175, 137)" stroke-opacity="0.3796741" stroke-linecap="round" stroke-linejoin="round"/>
  </g>
</svg>
