<?xml version="1.0" ?>
<svg xmlns="http://www.w3.org/2000/svg" version="1.1" width="438" height="481">
  <defs/>
  <g>
    <path d="M 261.0720520019531 69.16825103759766 C 269.66290283203125 69.63727569580078 278.20037841796875 70.33816528320312 286.7875671386719 71.4235610961914 C 295.7132263183594 72.72669982910156 305.3534240722656 74.52849578857422 316.0246887207031 76.97138214111328 C 327.8981018066406 79.934814453125 341.0047607421875 84.05585479736328 355.1199035644531 90.08605194091797 C 369.61981201171875 99.05516815185547 385.0370178222656 109.35090637207031 401.0121765136719 119.92520141601562 C 416.11871337890625 130.94281005859375 428.6927490234375 142.49673461914062 436.84564208984375 154.7091827392578 C 439.14630126953125 167.20587158203125 435.90191650390625 179.22108459472656 428.2167053222656 190.0337371826172 C 417.69683837890625 199.06106567382812 405.66748046875 206.1275634765625 393.36175537109375 211.8487548828125 C 382.0060119628906 217.3066864013672 372.1441345214844 223.0321807861328 363.5319519042969 229.33035278320312 C 355.6172790527344 236.00340270996094 348.3527526855469 243.4703826904297 341.9838562011719 252.5389404296875 C 336.73565673828125 263.8050537109375 332.0533752441406 277.16876220703125 327.0061950683594 292.1306457519531 C 320.37396240234375 307.9261474609375 311.71612548828125 323.8320007324219 301.5730895996094 339.3490905761719 C 290.9727783203125 354.215576171875 280.90008544921875 368.28594970703125 272.2418212890625 381.41949462890625 C 265.1820373535156 393.2712097167969 259.0408935546875 403.1218566894531 253.32579040527344 410.6647033691406 C 248.37945556640625 416.55255126953125 244.61630249023438 421.92486572265625 242.16085815429688 427.7569580078125 C 240.44976806640625 434.26556396484375 238.6310577392578 440.9951477050781 236.4250946044922 447.0252685546875 C 233.62330627441406 451.13848876953125 230.4248046875 452.1396484375 227.07273864746094 449.14471435546875 C 223.6875762939453 442.03662109375 221.1295928955078 431.4065246582031 220.06546020507812 418.0378723144531 C 218.20587158203125 403.2340087890625 215.47390747070312 388.0589904785156 212.85287475585938 373.6234130859375 C 208.05128479003906 362.0971374511719 205.17587280273438 353.2783508300781 209.05699157714844 346.75885009765625 C 220.51345825195312 341.28564453125 236.19105529785156 336.4364929199219 252.55059814453125 331.40789794921875 C 266.1672668457031 325.28680419921875 274.595947265625 318.55560302734375 276.0851745605469 312.7569274902344 C 269.4951477050781 310.25640869140625 257.1047668457031 310.4220886230469 241.2084503173828 312.19305419921875 C 224.13754272460938 315.0021057128906 208.0974884033203 318.9356994628906 195.25743103027344 324.5751953125 C 187.80848693847656 333.0344543457031 182.93429565429688 341.7352600097656 176.8439178466797 347.4219665527344 C 167.0938262939453 348.018798828125 156.02496337890625 347.6162414550781 145.8739471435547 349.7752380371094 C 138.70941162109375 357.1584167480469 135.0528106689453 367.88079833984375 135.14727783203125 379.9089660644531 C 138.9827423095703 391.6274108886719 141.1484832763672 403.2027893066406 139.0146026611328 415.7686767578125 C 135.96717834472656 429.7914733886719 133.60418701171875 444.6248474121094 131.8929901123047 459.2051086425781 C 128.3694305419922 472.1662292480469 121.17900848388672 482.53375244140625 110.17679595947266 489.9739685058594 C 95.94688415527344 494.53265380859375 79.4729995727539 496.32830810546875 61.79863357543945 495.537841796875 C 44.13547134399414 492.4532165527344 27.75004768371582 487.47064208984375 13.985544204711914 480.9827880859375 C 4.276346683502197 473.3529357910156 -0.35551267862319946 465.1986083984375 0.5132901668548584 457.0541076660156 C 6.197229385375977 449.39996337890625 14.532668113708496 442.70684814453125 23.4786319732666 436.92901611328125 C 31.276958465576172 431.6778259277344 36.6727294921875 426.9040222167969 38.4514045715332 422.4918518066406 C 35.61094284057617 418.4060974121094 29.84425163269043 414.5817565917969 22.98231315612793 410.7327880859375 C 16.811372756958008 406.7881774902344 13.056979179382324 403.0320129394531 12.739279747009277 399.6690979003906 C 16.186912536621094 396.7106018066406 23.043607711791992 393.9128112792969 32.448326110839844 390.9382629394531 C 43.2700309753418 387.36199951171875 54.35462951660156 383.0403747558594 64.41230010986328 377.7449951171875 C 72.43148040771484 371.17523193359375 78.21758270263672 363.8809814453125 82.19508361816406 356.93133544921875 C 84.65927124023438 351.66583251953125 84.40245819091797 348.54791259765625 80.17919921875 347.2968444824219 C 71.65911865234375 347.3420715332031 59.633018493652344 348.67230224609375 45.47645950317383 351.28509521484375 C 30.747385025024414 355.3980407714844 17.051963806152344 359.6532897949219 5.728785991668701 361.7386169433594 C -1.9077916145324707 358.573974609375 -6.379008769989014 350.4118957519531 -8.638206481933594 338.3982849121094 C -9.385125160217285 323.57196044921875 -9.028882026672363 306.94940185546875 -7.926204681396484 289.4157409667969 C -6.243734836578369 271.7702941894531 -3.8455605506896973 254.5831756591797 -0.38568341732025146 238.56912231445312 C 4.596104621887207 224.40744018554688 11.619329452514648 212.65574645996094 21.2340087890625 203.78964233398438 C 33.66202926635742 198.13426208496094 48.074806213378906 194.51805114746094 63.01017761230469 190.25193786621094 C 76.93263244628906 182.91201782226562 88.8531494140625 172.31336975097656 97.88996887207031 158.8024444580078 C 103.63560485839844 143.2063446044922 107.56881713867188 127.4096908569336 111.22694396972656 113.4736328125 C 114.9593276977539 103.24974822998047 118.14656829833984 98.2655029296875 119.68840789794922 99.49435424804688 C 117.23650360107422 106.27619934082031 113.33561706542969 116.61304473876953 110.95687866210938 128.89614868164062 C 111.98377227783203 141.25289916992188 116.76852416992188 151.6225128173828 124.90351104736328 158.13265991210938 C 135.66195678710938 159.40208435058594 148.0726318359375 155.99990844726562 161.28733825683594 149.13619995117188 C 173.92173767089844 139.07272338867188 186.9055633544922 128.2746124267578 201.6661834716797 120.2818374633789 C 218.85614013671875 117.14777374267578 236.4418182373047 114.64864349365234 253.02931213378906 110.10205078125 C 267.5862121582031 103.03428649902344 280.0473937988281 95.69215393066406 290.31109619140625 90.23237609863281 C 298.6568603515625 88.29467010498047 304.3644714355469 88.41280364990234 307.1728210449219 89.05640411376953 C 307.20709228515625 89.49004364013672 305.0777587890625 89.54620361328125 301.5965270996094 89.09428405761719 C 297.6123352050781 87.97366333007812 294.0641784667969 86.03104400634766 291.5822448730469 83.33250427246094 C 290.5254821777344 79.96734619140625 289.9826965332031 76.36961364746094 261.0720520019531 69.16825103759766" stroke-width="0.0" fill="rgb(4, 2, 8)" opacity="0.99999446" stroke="rgb(132, 37, 73)" stroke-opacity="0.69533926" stroke-linecap="round" stroke-linejoin="round"/>
  </g>
</svg>
