<?xml version="1.0" ?>
<svg xmlns="http://www.w3.org/2000/svg" version="1.1" width="222" height="406">
  <defs/>
  <g>
    <path d="M -7.555517673492432 -8.427815437316895 C 5.926965713500977 -10.978248596191406 19.048507690429688 -12.576379776000977 30.84368324279785 -12.207040786743164 C 40.0622444152832 -9.747291564941406 45.69537353515625 -5.594064712524414 47.2675895690918 -1.2727980613708496 C 46.43198013305664 0.9030987620353699 47.27607727050781 0.18649044632911682 51.84197998046875 -2.919525146484375 C 60.13683319091797 -5.848726749420166 70.89952850341797 -7.111884117126465 82.77750396728516 -6.1136603355407715 C 93.99018859863281 -5.191226959228516 103.51215362548828 -5.130349159240723 110.5261459350586 -6.139302730560303 C 115.04227447509766 -7.482613563537598 118.06185913085938 -8.263233184814453 120.99071502685547 -8.271635055541992 C 124.97679138183594 -8.049482345581055 130.1974639892578 -7.353704929351807 136.418212890625 -6.386155128479004 C 143.51278686523438 -5.51080322265625 151.09585571289062 -5.016751766204834 159.02679443359375 -5.380248546600342 C 167.26206970214844 -6.636904239654541 175.80206298828125 -8.37685775756836 184.6730194091797 -9.837751388549805 C 193.70498657226562 -10.477256774902344 202.57469177246094 -9.92948055267334 210.9175567626953 -8.026907920837402 C 218.295654296875 -4.676264762878418 224.28012084960938 0.09077272564172745 228.60093688964844 5.9942240715026855 C 231.338134765625 12.780619621276855 232.49136352539062 20.14958381652832 232.48936462402344 27.827882766723633 C 232.15660095214844 35.57603073120117 231.8728790283203 43.275611877441406 231.7333526611328 50.820213317871094 C 231.70111083984375 58.16868209838867 231.73333740234375 65.37782287597656 231.7733612060547 72.36888885498047 C 231.7741241455078 79.1980209350586 231.77891540527344 86.00499725341797 231.79798889160156 92.77474212646484 C 231.7379913330078 99.656005859375 231.6162567138672 106.69883728027344 231.67239379882812 113.87936401367188 C 232.05886840820312 121.22834777832031 232.36485290527344 128.73426818847656 232.30868530273438 136.3881072998047 C 231.7079620361328 144.08224487304688 230.62918090820312 151.68585205078125 229.34310913085938 159.18948364257812 C 228.25930786132812 166.58583068847656 228.00775146484375 173.73301696777344 228.9257354736328 180.61798095703125 C 230.48606872558594 187.3496551513672 231.8459014892578 193.84805297851562 232.6429901123047 200.17271423339844 C 232.6530303955078 206.52684020996094 232.18621826171875 212.9424591064453 231.71693420410156 219.3645477294922 C 231.5938262939453 225.9364776611328 231.6829376220703 232.7338409423828 231.78387451171875 239.63990783691406 C 231.79293823242188 246.58204650878906 231.77291870117188 253.68490600585938 231.76698303222656 260.873291015625 C 231.76930236816406 268.0310974121094 231.770263671875 275.17913818359375 231.7697296142578 282.3081970214844 C 231.76951599121094 289.3500061035156 231.7698516845703 296.2889709472656 231.77017211914062 303.1316833496094 C 231.76736450195312 309.898193359375 231.76365661621094 316.6224670410156 231.7748565673828 323.3759765625 C 231.80303955078125 330.1927490234375 231.78115844726562 337.20721435546875 231.6988983154297 344.4621276855469 C 231.64976501464844 352.01495361328125 231.7598876953125 359.92047119140625 232.08529663085938 368.1652526855469 C 232.48605346679688 376.58892822265625 232.50335693359375 385.0194396972656 231.57281494140625 393.1372985839844 C 229.3455047607422 400.4833679199219 225.84532165527344 406.79107666015625 221.15261840820312 411.7525939941406 C 215.40672302246094 414.92156982421875 208.83741760253906 416.4233703613281 201.6387481689453 416.71295166015625 C 193.8797149658203 416.4064025878906 185.84225463867188 415.95684814453125 177.68701171875 415.6747741699219 C 169.59095764160156 415.6526794433594 161.6546173095703 415.72222900390625 154.021728515625 415.7536926269531 C 146.7395477294922 415.7611999511719 139.82273864746094 415.8076477050781 133.2899169921875 415.8875427246094 C 127.0267562866211 415.9388732910156 120.9327392578125 415.9160461425781 115.00444030761719 415.8080139160156 C 109.09123992919922 415.48175048828125 103.1587905883789 414.75445556640625 97.05996704101562 413.49505615234375 C 90.70160675048828 411.6299743652344 83.93441772460938 410.70489501953125 76.59087371826172 411.17144775390625 C 68.6748046875 412.6021423339844 60.22514724731445 414.2898864746094 51.43819808959961 415.63079833984375 C 42.48307800292969 416.35528564453125 33.53778076171875 416.7250061035156 24.884767532348633 416.97711181640625 C 16.833515167236328 416.8220520019531 9.657090187072754 415.6114196777344 3.609551429748535 412.6595764160156 C -1.0314946174621582 407.56671142578125 -4.237705707550049 400.5474548339844 -6.102534294128418 392.2585144042969 C -6.99703311920166 383.439208984375 -7.2621073722839355 374.9682312011719 -7.387897968292236 367.6826171875 C -7.7051849365234375 361.5655212402344 -7.888623237609863 355.8983154296875 -7.682060718536377 349.92779541015625 C -7.035590648651123 343.0890808105469 -6.401515960693359 335.1615905761719 -6.278298854827881 326.25048828125 C -6.823014259338379 316.63409423828125 -7.524435997009277 307.2007751464844 -7.800525665283203 298.727294921875 C -7.242608547210693 292.0007019042969 -6.6069183349609375 286.6112060546875 -6.805209636688232 281.22674560546875 C -8.209107398986816 274.8087158203125 -9.555892944335938 267.0487976074219 -9.10784912109375 258.2547912597656 C -7.385730743408203 249.15541076660156 -6.108762741088867 240.9119873046875 -5.735985279083252 234.59266662597656 C -5.545957088470459 230.757568359375 -5.4793171882629395 228.7721405029297 -5.548172950744629 227.1353759765625 C -6.523011684417725 223.42916870117188 -8.556578636169434 216.3088836669922 -10.23672103881836 206.38658142089844 C -9.078354835510254 194.78109741210938 -4.818179607391357 183.620849609375 1.8781040906906128 177.50457763671875 C 7.170200347900391 177.1420135498047 2.0654425621032715 176.9683380126953 -6.374330997467041 173.87220764160156 C -10.244634628295898 165.43955993652344 -10.246118545532227 155.18270874023438 -7.74933385848999 143.77284240722656 C -4.657332420349121 132.66151428222656 -2.964336395263672 122.94255065917969 -3.3682076930999756 115.53177642822266 C -5.218031883239746 109.9951400756836 -6.780543804168701 104.89340209960938 -7.458048343658447 99.15874481201172 C -7.165829658508301 91.97461700439453 -7.134760856628418 83.5643310546875 -8.11685562133789 74.36612701416016 C -9.313612937927246 65.10584259033203 -9.224085807800293 57.11017608642578 -7.340075969696045 51.57023620605469 C -4.8640923500061035 49.278316497802734 -3.8374922275543213 48.478553771972656 -4.378896236419678 46.9231071472168 C -5.873322010040283 42.67914962768555 -7.974155426025391 35.65658950805664 -10.48135757446289 26.436922073364258 C -13.251296043395996 15.837472915649414 -16.017911911010742 4.858261585235596 -7.555517673492432 -8.427815437316895" stroke-width="0.0" fill="rgb(234, 229, 225)" opacity="1.0" stroke="rgb(205, 158, 225)" stroke-opacity="0.2682998" stroke-linecap="round" stroke-linejoin="round"/>
    <path d="M 60.55302047729492 88.3565673828125 C 63.27346420288086 89.30990600585938 65.39073944091797 90.24921417236328 67.49918365478516 90.94888305664062 C 69.00269317626953 91.7134017944336 69.76641845703125 92.29976654052734 70.98428344726562 92.01719665527344 C 71.08053588867188 93.2665786743164 72.15150451660156 92.94281005859375 73.36634063720703 93.01021575927734 C 73.41047668457031 94.10731506347656 74.5123062133789 93.86061096191406 75.85438537597656 94.17229461669922 C 77.7197265625 95.32249450683594 81.14873504638672 95.996337890625 84.1997299194336 97.12014770507812 C 87.7933578491211 97.94784545898438 91.1093978881836 99.0410385131836 94.13301849365234 99.5926513671875 C 95.89724731445312 100.27336120605469 97.956787109375 99.97505187988281 98.9585189819336 100.80121612548828 C 99.91915893554688 100.76744842529297 100.42835998535156 101.11557006835938 101.71406555175781 100.97622680664062 C 102.58139038085938 101.06957244873047 104.73289489746094 102.00065612792969 108.22112274169922 102.02098083496094 C 111.8030776977539 102.40924835205078 115.35035705566406 103.25074005126953 119.30496215820312 102.94203186035156 C 123.2345962524414 103.58043670654297 124.70658111572266 103.38142395019531 125.2561264038086 101.67971801757812 C 125.36322021484375 98.78006744384766 125.0721206665039 97.16889953613281 124.83938598632812 96.70161437988281 C 124.94499969482422 97.8613510131836 125.91252899169922 98.99337768554688 127.82047271728516 101.47776794433594 C 130.01661682128906 103.61188507080078 133.21009826660156 103.46337890625 137.86956787109375 102.96870422363281 C 144.836669921875 103.22795104980469 147.7010498046875 101.79300689697266 151.21217346191406 102.00653839111328 C 154.2361297607422 101.36844635009766 157.552490234375 101.00331115722656 160.52474975585938 100.51471710205078 C 163.9146728515625 99.91898345947266 167.0417938232422 98.98284149169922 171.91925048828125 98.46199035644531 C 175.565673828125 96.22313690185547 173.4653778076172 93.27350616455078 176.51112365722656 93.27789306640625 C 175.96026611328125 101.02078247070312 175.8306884765625 102.75465393066406 175.0160675048828 104.973876953125 C 175.26087951660156 107.44348907470703 174.63706970214844 108.66586303710938 173.6942596435547 110.34254455566406 C 174.13735961914062 112.07377624511719 175.0010528564453 113.81661987304688 175.9912567138672 115.57022094726562 C 177.10824584960938 117.31884002685547 178.19581604003906 119.47247314453125 179.05007934570312 122.07891845703125 C 179.45709228515625 125.27405548095703 179.46336364746094 129.03565979003906 179.1314239501953 133.3604278564453 C 178.5610809326172 137.80191040039062 177.87733459472656 141.9920196533203 177.29177856445312 145.8733367919922 C 176.86557006835938 149.131103515625 176.1881866455078 151.7138671875 175.25933837890625 153.923828125 C 173.77084350585938 155.48367309570312 171.98355102539062 156.80490112304688 170.1726531982422 158.08888244628906 C 168.7353973388672 159.64817810058594 167.80934143066406 161.60231018066406 167.80718994140625 163.939697265625 C 167.5965576171875 166.15968322753906 167.19012451171875 168.39739990234375 166.92984008789062 170.44610595703125 C 166.6511688232422 172.4311981201172 166.0645751953125 174.259521484375 165.45558166503906 176.1231689453125 C 164.83851623535156 177.7307586669922 164.4698028564453 179.18641662597656 164.46636962890625 180.7066650390625 C 164.5395050048828 182.29888916015625 164.44703674316406 183.97940063476562 164.1465301513672 185.98544311523438 C 163.5468292236328 188.4583282470703 162.62802124023438 191.4719696044922 161.37586975097656 194.9231719970703 C 160.3271942138672 198.49261474609375 159.451904296875 201.8474884033203 158.4961700439453 204.53961181640625 C 157.81124877929688 206.4326934814453 157.03636169433594 207.68052673339844 155.8340301513672 208.32582092285156 C 153.98736572265625 208.73965454101562 151.31822204589844 208.87525939941406 147.90769958496094 208.8010711669922 C 143.85389709472656 208.93478393554688 139.58819580078125 209.1332244873047 135.48281860351562 209.4523468017578 C 131.6935577392578 209.86953735351562 128.4507598876953 210.2347869873047 125.59764099121094 210.46002197265625 C 123.11975860595703 210.49269104003906 120.69935607910156 210.3284454345703 118.16011047363281 210.0994110107422 C 115.28802490234375 209.93421936035156 112.14282989501953 209.86219787597656 108.71286010742188 209.9357452392578 C 105.04241180419922 210.19284057617188 101.31332397460938 210.40509033203125 97.52446746826172 210.5274200439453 C 93.70256042480469 210.19822692871094 89.82415771484375 209.41964721679688 85.8675308227539 208.29684448242188 C 81.93975830078125 207.1912841796875 78.10063171386719 206.14389038085938 74.43853759765625 205.44491577148438 C 70.91596984863281 205.0447540283203 67.65132904052734 204.9728240966797 64.7658462524414 205.01315307617188 C 62.36016845703125 204.8650665283203 60.49607467651367 204.45108032226562 59.036460876464844 203.70550537109375 C 57.785091400146484 202.7012939453125 56.62590408325195 200.94825744628906 56.165428161621094 197.7315216064453 C 55.59566879272461 194.5298309326172 54.31442642211914 191.59945678710938 51.582672119140625 189.26742553710938 C 48.94682693481445 186.6664581298828 46.81691360473633 183.47991943359375 45.313907623291016 179.85348510742188 C 44.353511810302734 175.929931640625 43.9135856628418 171.94886779785156 43.87522888183594 167.8728790283203 C 44.13725280761719 163.72496032714844 44.372840881347656 159.61279296875 44.66489028930664 155.68833923339844 C 44.704952239990234 152.05917358398438 44.86410140991211 148.84913635253906 45.63258361816406 146.2755126953125 C 47.15879440307617 144.48007202148438 49.45714569091797 143.24363708496094 52.37688446044922 142.16525268554688 C 55.60826873779297 140.95166015625 58.9948844909668 139.38243103027344 62.29364776611328 137.4440460205078 C 65.34719848632812 135.3195343017578 67.96847534179688 133.39100646972656 70.10820007324219 131.8564453125 C 71.6289291381836 130.69879150390625 72.68827819824219 129.7255401611328 73.41798400878906 128.6088409423828 C 74.05056762695312 127.14628601074219 74.4554214477539 125.3676986694336 74.80636596679688 123.24353790283203 C 75.96240997314453 120.46533966064453 75.55891418457031 117.68287658691406 74.55549621582031 114.46454620361328 C 71.40398406982422 112.83950805664062 68.74398040771484 111.2463150024414 65.52555847167969 109.87406921386719 C 62.55990982055664 108.27223205566406 60.31972885131836 106.34080505371094 58.76089859008789 104.17343139648438 C 57.88513946533203 101.72750091552734 59.9385871887207 99.12832641601562 59.18314743041992 95.29685974121094 C 58.701881408691406 91.47467803955078 59.6817741394043 88.29994201660156 60.55302047729492 88.3565673828125" stroke-width="0.0" fill="rgb(0, 169, 211)" opacity="1.0" stroke="rgb(137, 48, 94)" stroke-opacity="0.7159321" stroke-linecap="round" stroke-linejoin="round"/>
    <path d="M 58.5174446105957 197.9849090576172 C 59.53945541381836 197.8629608154297 60.55223846435547 197.8726348876953 61.53181457519531 198.29026794433594 C 62.210880279541016 198.03492736816406 62.729225158691406 197.9749298095703 62.94668960571289 197.94090270996094 C 62.96222686767578 198.05274963378906 62.76526641845703 198.32127380371094 62.640541076660156 198.63668823242188 C 62.59639358520508 198.9301300048828 62.74681091308594 199.17408752441406 63.0379638671875 199.0493621826172 C 63.53593826293945 199.11178588867188 64.44772338867188 198.97686767578125 65.76361083984375 199.62228393554688 C 67.3003158569336 199.7119140625 68.85770416259766 200.0660858154297 70.24830627441406 200.20846557617188 C 71.49087524414062 200.1666259765625 72.28469848632812 200.5651092529297 73.24290466308594 201.16055297851562 C 72.96672058105469 201.40872192382812 72.43258666992188 201.41677856445312 71.73951721191406 201.3495635986328 C 71.1347427368164 201.46279907226562 70.89659881591797 201.4215545654297 71.11954498291016 201.44476318359375 C 72.19916534423828 201.3436737060547 73.86634063720703 201.19483947753906 75.87596893310547 201.5170135498047 C 77.9015884399414 201.9690704345703 79.74762725830078 202.13035583496094 81.38744354248047 202.07571411132812 C 82.49751281738281 201.76724243164062 83.43374633789062 201.46826171875 84.19989776611328 201.35337829589844 C 84.95114135742188 201.334716796875 85.80876922607422 201.63192749023438 86.80589294433594 202.12591552734375 C 87.78559875488281 202.5026397705078 89.0760498046875 203.36032104492188 90.31672668457031 203.5879669189453 C 91.45929718017578 202.8369140625 92.04566192626953 202.84889221191406 92.1275863647461 202.6757354736328 C 91.8899154663086 202.3361053466797 91.35546112060547 202.0128173828125 90.84154510498047 201.8983917236328 C 90.56433868408203 202.10321044921875 90.72199249267578 202.4913330078125 91.36079406738281 203.02218627929688 C 92.41583251953125 203.4785919189453 93.76631927490234 203.82449340820312 95.22012329101562 204.0504608154297 C 96.79014587402344 204.15859985351562 98.38786315917969 204.18951416015625 99.82083129882812 204.19039916992188 C 101.0627670288086 204.12661743164062 102.25726318359375 204.1023712158203 103.38432312011719 204.15309143066406 C 104.34976959228516 204.17738342285156 105.18876647949219 204.16510009765625 105.9935073852539 204.1447296142578 C 106.78079986572266 204.09214782714844 107.58710479736328 204.0194549560547 108.53811645507812 203.99588012695312 C 109.63678741455078 204.02093505859375 110.82109069824219 204.0564727783203 112.1051025390625 204.09881591796875 C 113.57039642333984 204.1063690185547 115.21875 204.01690673828125 117.15917205810547 204.51119995117188 C 119.23634338378906 204.44337463378906 121.10601806640625 203.85589599609375 123.02764129638672 203.30398559570312 C 124.84033966064453 203.19158935546875 126.49295806884766 203.08889770507812 128.04615783691406 203.07131958007812 C 129.512939453125 203.13819885253906 130.90274047851562 203.16949462890625 132.3174285888672 203.19216918945312 C 133.82675170898438 203.1051025390625 135.3827362060547 203.0753936767578 137.06243896484375 202.9348602294922 C 138.82960510253906 202.6905975341797 140.59596252441406 202.53402709960938 142.44346618652344 202.4053192138672 C 144.15557861328125 202.3042449951172 145.75448608398438 202.1472625732422 147.19515991210938 201.98818969726562 C 148.59066772460938 201.7174835205078 150.1721649169922 201.4682159423828 151.88320922851562 201.2450714111328 C 153.85340881347656 201.12869262695312 155.7452392578125 201.11373901367188 157.43106079101562 201.49639892578125 C 158.54238891601562 200.84970092773438 159.25975036621094 200.46630859375 159.73583984375 200.03518676757812 C 159.87986755371094 199.33349609375 160.18479919433594 199.3349151611328 160.9861297607422 200.406982421875 C 162.35411071777344 202.987548828125 163.90951538085938 206.80039978027344 165.58872985839844 211.1104736328125 C 167.14117431640625 215.26113891601562 168.24273681640625 218.7216033935547 168.71820068359375 221.42335510253906 C 168.21810913085938 222.9741668701172 167.07269287109375 223.97064208984375 164.8389434814453 225.01869201660156 C 161.77049255371094 225.8457489013672 158.02093505859375 226.19122314453125 153.2337646484375 225.50498962402344 C 149.35264587402344 223.87306213378906 145.95651245117188 221.85855102539062 143.56491088867188 220.40475463867188 C 143.119873046875 219.45361328125 143.77099609375 220.04782104492188 144.80088806152344 221.32032775878906 C 144.7593536376953 222.22618103027344 143.52285766601562 222.38079833984375 141.16195678710938 222.37539672851562 C 137.8190155029297 222.4888153076172 134.27769470214844 222.54257202148438 131.3673095703125 221.95556640625 C 129.79986572265625 221.12249755859375 129.3177947998047 220.51602172851562 129.21080017089844 220.42869567871094 C 128.5191650390625 221.12673950195312 127.09502410888672 221.96383666992188 124.79685974121094 222.49859619140625 C 120.70235443115234 222.73622131347656 117.17256927490234 223.14894104003906 113.57266235351562 223.53240966796875 C 110.26055908203125 223.7459259033203 107.49349975585938 223.51812744140625 105.54862213134766 222.8179473876953 C 104.28924560546875 221.89480590820312 103.5005874633789 220.99085998535156 102.9107437133789 220.33511352539062 C 102.24517822265625 220.22850036621094 101.40113830566406 220.6126251220703 100.11286926269531 221.33609008789062 C 98.01358032226562 222.02975463867188 95.25090026855469 222.58767700195312 91.66366577148438 223.02130126953125 C 88.19916534423828 223.03001403808594 84.25678253173828 222.97764587402344 81.62922668457031 223.0126953125 C 79.74274444580078 224.8560028076172 78.03604888916016 225.31597900390625 76.84929656982422 225.85289001464844 C 76.05046844482422 227.06643676757812 75.16064453125 227.9483184814453 73.61107635498047 228.1334228515625 C 72.04779815673828 227.52073669433594 70.10372161865234 226.32461547851562 67.98470306396484 224.71432495117188 C 65.78388214111328 222.70021057128906 63.423851013183594 221.1450653076172 60.84046936035156 220.33651733398438 C 57.606414794921875 219.8155975341797 54.91199493408203 218.9866180419922 53.34306716918945 217.07669067382812 C 51.99918746948242 214.96664428710938 51.509342193603516 212.50863647460938 49.36952590942383 210.13626098632812 C 46.23507308959961 207.61773681640625 47.57250213623047 206.74684143066406 52.071468353271484 208.01019287109375 C 55.63545227050781 206.53720092773438 51.68133544921875 201.58261108398438 52.285736083984375 200.62185668945312 C 57.63228225708008 203.85232543945312 56.13213348388672 200.87159729003906 57.27397537231445 198.32391357421875 C 58.95487976074219 197.79278564453125 59.92983627319336 197.13296508789062 58.5174446105957 197.9849090576172" stroke-width="0.0" fill="rgb(0, 84, 211)" opacity="1.0" stroke="rgb(111, 148, 228)" stroke-opacity="0.94932014" stroke-linecap="round" stroke-linejoin="round"/>
    <path d="M 79.06259155273438 113.22876739501953 C 80.18699645996094 118.29945373535156 81.16355895996094 119.61167907714844 80.9493637084961 121.4017105102539 C 81.54315948486328 123.397216796875 81.47045135498047 125.17927551269531 81.37012481689453 127.52816009521484 C 81.11173248291016 128.7941436767578 80.97187042236328 130.09666442871094 80.6690902709961 131.353271484375 C 80.43561553955078 132.38320922851562 79.99976348876953 133.0919189453125 79.92181396484375 133.76434326171875 C 79.49830627441406 134.63034057617188 79.09429931640625 135.58831787109375 78.48483276367188 136.74192810058594 C 77.56777954101562 138.00518798828125 76.55303192138672 139.2240753173828 75.53433990478516 140.4167022705078 C 74.72663879394531 141.37220764160156 74.11653137207031 142.14273071289062 73.74153137207031 142.76480102539062 C 73.4410629272461 143.24246215820312 73.01398468017578 143.66554260253906 72.26363372802734 144.32711791992188 C 71.13448333740234 145.21324157714844 69.50274658203125 146.40966796875 67.55586242675781 147.69825744628906 C 65.5003890991211 148.9896697998047 63.54227066040039 150.0905303955078 61.91144561767578 150.861328125 C 60.866661071777344 151.1792755126953 60.27661895751953 151.14791870117188 60.039180755615234 151.0639190673828 C 59.855804443359375 151.11923217773438 59.61035919189453 151.1732635498047 59.23627471923828 151.3406524658203 C 58.530670166015625 151.56292724609375 57.71415710449219 151.6570281982422 56.700321197509766 151.69407653808594 C 56.719242095947266 152.3596649169922 56.330081939697266 152.6297149658203 55.94195556640625 152.5286102294922 C 55.435176849365234 152.19277954101562 54.832672119140625 151.78945922851562 54.0679931640625 151.747314453125 C 53.23978042602539 152.14828491210938 52.50336456298828 152.94110107421875 51.95229721069336 154.10903930664062 C 51.70163345336914 155.41209411621094 51.60921096801758 156.84007263183594 51.662803649902344 158.3164520263672 C 51.68930435180664 159.7055206298828 51.685951232910156 161.0685577392578 51.68655014038086 162.3428192138672 C 51.67490768432617 163.5223388671875 51.6170768737793 164.7240447998047 51.535526275634766 165.89834594726562 C 51.5144157409668 167.02169799804688 51.5250244140625 167.9651336669922 51.55111312866211 168.6913299560547 C 51.513370513916016 169.25624084472656 51.34453201293945 169.6889190673828 51.162479400634766 170.0935821533203 C 51.0437126159668 170.4334259033203 50.878726959228516 170.80551147460938 50.83244705200195 171.48069763183594 C 50.89149856567383 172.6257781982422 50.930110931396484 174.16134643554688 50.92158126831055 176.0193328857422 C 50.889217376708984 178.0634002685547 50.81246566772461 180.19163513183594 50.53754425048828 182.2130889892578 C 50.02212905883789 183.723388671875 49.28765869140625 184.66769409179688 48.18206024169922 185.0521697998047 C 46.8345947265625 184.88296508789062 45.888004302978516 184.68043518066406 45.07192611694336 184.4902801513672 C 44.56535720825195 184.34210205078125 44.190555572509766 184.2149658203125 43.78476333618164 183.98704528808594 C 43.1128044128418 183.72998046875 42.0899658203125 183.50469970703125 40.68506622314453 183.22422790527344 C 38.80002212524414 182.62098693847656 36.795745849609375 181.79324340820312 34.87691879272461 180.9183807373047 C 33.3546028137207 180.1780548095703 32.25138854980469 179.5237579345703 31.482948303222656 179.02085876464844 C 30.85321044921875 178.7456512451172 30.086027145385742 178.481201171875 29.19654655456543 178.08468627929688 C 28.151460647583008 177.39198303222656 27.099964141845703 176.39947509765625 25.406574249267578 175.64712524414062 C 25.025333404541016 173.9493408203125 25.47321891784668 172.36566162109375 25.96818733215332 170.87014770507812 C 26.311826705932617 169.8079376220703 26.560428619384766 169.06912231445312 26.7176513671875 168.7526092529297 C 26.692829132080078 168.84580993652344 26.53654670715332 169.12672424316406 26.542783737182617 169.21864318847656 C 26.661170959472656 168.95578002929688 26.983318328857422 167.97984313964844 27.322175979614258 166.41893005371094 C 27.29800796508789 164.5448760986328 27.260021209716797 162.30490112304688 27.336729049682617 160.2651824951172 C 27.897016525268555 158.55882263183594 27.520471572875977 156.99472045898438 26.966754913330078 155.73805236816406 C 26.405736923217773 154.6455078125 26.50972557067871 153.6237335205078 27.5143985748291 152.47132873535156 C 28.16147804260254 151.3063507080078 28.643632888793945 149.95899963378906 29.066999435424805 148.70367431640625 C 29.35833168029785 148.05490112304688 29.11542510986328 147.51246643066406 28.716001510620117 147.30111694335938 C 28.37442970275879 147.50927734375 28.351438522338867 147.8423614501953 28.713970184326172 148.0391387939453 C 29.42048454284668 147.98594665527344 30.2911319732666 147.87457275390625 31.256954193115234 147.48086547851562 C 32.075016021728516 146.90887451171875 32.80171203613281 146.2378692626953 33.23787307739258 145.4168701171875 C 33.60603713989258 144.52166748046875 34.07232666015625 143.27920532226562 34.87582015991211 141.79489135742188 C 36.18274688720703 140.0516357421875 38.788883209228516 138.864013671875 41.30433654785156 137.22320556640625 C 43.61012268066406 135.65882873535156 45.893394470214844 134.35757446289062 47.74977493286133 133.45050048828125 C 48.1794319152832 131.83201599121094 47.795475006103516 131.4883270263672 46.98124313354492 129.5341796875 C 46.82931137084961 128.09814453125 45.749935150146484 127.27413177490234 48.29212188720703 127.08839416503906 C 50.26083755493164 129.38116455078125 49.98836898803711 130.58746337890625 49.57920837402344 130.90939331054688 C 49.436492919921875 129.2382049560547 48.870033264160156 127.72074890136719 48.45164489746094 126.32562255859375 C 50.121551513671875 126.17338562011719 51.42497253417969 126.3301773071289 55.996246337890625 124.75910949707031 C 57.75829315185547 124.6802749633789 58.448299407958984 126.09001922607422 58.517398834228516 129.05831909179688 C 55.66440963745117 133.56964111328125 54.932220458984375 135.50062561035156 54.41879653930664 137.55699157714844 C 55.15505599975586 137.81732177734375 56.68291473388672 137.44773864746094 54.55171203613281 135.7864532470703 C 54.68583679199219 135.58438110351562 55.446258544921875 133.8116912841797 55.883872985839844 131.70008850097656 C 58.752685546875 131.26156616210938 59.62262725830078 129.16734313964844 60.705322265625 127.49190521240234 C 62.6761589050293 126.39115142822266 64.12447357177734 124.87306213378906 65.96861267089844 123.27650451660156 C 68.99825286865234 123.19996643066406 70.84034729003906 121.417236328125 71.54934692382812 118.28762817382812 C 74.40499114990234 116.11109161376953 76.37549591064453 112.92855834960938 79.06259155273438 113.22876739501953" stroke-width="0.0" fill="rgb(89, 159, 43)" opacity="1.0" stroke="rgb(250, 125, 8)" stroke-opacity="0.95793885" stroke-linecap="round" stroke-linejoin="round"/>
    <path d="M 75.82817840576172 9.470951080322266 C 76.54124450683594 9.187483787536621 77.34066009521484 9.169478416442871 77.87010192871094 9.280721664428711 C 77.99276733398438 9.486839294433594 77.94830322265625 9.453875541687012 78.02103424072266 9.075599670410156 C 78.55752563476562 8.83941650390625 79.9974594116211 8.414201736450195 82.1537094116211 8.005590438842773 C 84.72205352783203 6.132551193237305 86.5864028930664 6.836606025695801 87.1718521118164 10.755637168884277 C 88.1707763671875 14.46086311340332 88.44286346435547 18.425275802612305 87.0238265991211 20.992053985595703 C 83.57164764404297 20.432422637939453 81.17415618896484 21.04346466064453 79.8723373413086 21.250452041625977 C 80.173095703125 21.080415725708008 82.12079620361328 20.874217987060547 85.13249969482422 20.76227378845215 C 88.29051208496094 20.839332580566406 91.29936981201172 21.470157623291016 93.83517456054688 20.921541213989258 C 94.48819732666016 21.93912696838379 94.78641510009766 22.3559513092041 94.47454833984375 21.84040069580078 C 93.6926498413086 21.204668045043945 94.21994018554688 20.560903549194336 96.25249481201172 20.008691787719727 C 99.34120178222656 20.21872329711914 102.49657440185547 20.122041702270508 106.4161605834961 19.097993850708008 C 107.18090057373047 20.586795806884766 107.06963348388672 22.766620635986328 106.83892059326172 24.49178695678711 C 107.07695007324219 25.88211441040039 106.84146881103516 26.389707565307617 106.79193115234375 25.70115089416504 C 107.1709213256836 23.688749313354492 106.61137390136719 20.886747360229492 107.47820281982422 19.093881607055664 C 111.46568298339844 18.94015121459961 115.45645904541016 19.12454605102539 119.60842895507812 18.998842239379883 C 121.77886962890625 20.262226104736328 122.9192886352539 20.92006492614746 124.2132339477539 20.396066665649414 C 127.3351821899414 20.189559936523438 130.89321899414062 19.270559310913086 131.2964630126953 21.20853042602539 C 130.32691955566406 26.015531539916992 133.10723876953125 29.974205017089844 137.35995483398438 30.528057098388672 C 144.32521057128906 31.301044464111328 147.82058715820312 30.454120635986328 149.30361938476562 26.99031639099121 C 151.60093688964844 24.412734985351562 154.5005645751953 26.09994888305664 158.20318603515625 27.171222686767578 C 162.05795288085938 28.449052810668945 164.8748779296875 29.738906860351562 167.81878662109375 28.936983108520508 C 169.7498016357422 26.035140991210938 171.01536560058594 21.89990234375 173.02545166015625 17.885080337524414 C 174.32582092285156 14.284991264343262 177.72593688964844 14.371506690979004 180.8760223388672 15.540227890014648 C 181.9369659423828 18.336767196655273 180.3854217529297 22.087432861328125 180.9984588623047 26.19804573059082 C 180.78431701660156 28.28557777404785 179.43954467773438 28.116222381591797 180.08804321289062 27.931499481201172 C 181.22821044921875 30.828060150146484 179.85496520996094 35.59722900390625 179.7891082763672 42.365291595458984 C 180.00851440429688 49.51817321777344 179.10494995117188 55.332908630371094 176.03317260742188 55.6407470703125 C 169.35232543945312 45.924468994140625 156.1180877685547 33.501949310302734 137.1579132080078 21.06048583984375 C 110.9654312133789 22.842308044433594 103.55575561523438 38.345977783203125 103.99642181396484 82.07475280761719 C 125.20562744140625 99.18577575683594 139.50927734375 95.83919525146484 153.21885681152344 88.23534393310547 C 165.46714782714844 83.67476654052734 170.49583435058594 74.77142333984375 175.7189483642578 73.22506713867188 C 177.19969177246094 81.54561614990234 174.7494659423828 88.29940795898438 173.78750610351562 95.50143432617188 C 174.5128173828125 97.9112548828125 169.82252502441406 98.1228256225586 166.28956604003906 98.88752746582031 C 162.63839721679688 99.63819122314453 159.3832550048828 99.95580291748047 156.9034423828125 100.82086181640625 C 154.88966369628906 101.27838897705078 154.44290161132812 100.76213836669922 154.68344116210938 100.1796646118164 C 154.993408203125 100.76216888427734 154.44435119628906 101.08785247802734 152.45858764648438 100.96266174316406 C 149.8958282470703 102.02861022949219 146.3888397216797 102.0372314453125 142.60000610351562 101.97966003417969 C 139.01107788085938 103.09745025634766 135.37330627441406 102.87088012695312 131.71505737304688 103.01596069335938 C 127.86668395996094 103.500244140625 124.02534484863281 103.19109344482422 120.64872741699219 102.72247314453125 C 118.91876983642578 101.4244613647461 119.08887481689453 100.78208923339844 119.4625244140625 101.56460571289062 C 119.40531921386719 104.00856018066406 117.3547134399414 102.70039367675781 113.87447357177734 101.86322784423828 C 109.13768005371094 102.50799560546875 105.24640655517578 100.66095733642578 100.31974792480469 100.54287719726562 C 98.75960540771484 99.12837982177734 98.92196655273438 97.56372833251953 99.77690124511719 96.57969665527344 C 99.3781509399414 97.94477081298828 99.2991943359375 100.43462371826172 91.82532501220703 98.69263458251953 C 89.40682983398438 96.89047241210938 87.48945617675781 93.05308532714844 88.27037048339844 90.2148208618164 C 87.52080535888672 88.75833129882812 86.24180603027344 87.67271423339844 85.10786437988281 87.7263412475586 C 83.41301727294922 90.01268005371094 80.7298583984375 93.13128662109375 78.21092987060547 94.89098358154297 C 71.30683135986328 91.78950500488281 64.7382583618164 90.47885131835938 61.658878326416016 86.48688507080078 C 61.881404876708984 79.94921112060547 63.08246612548828 74.51212310791016 65.36639404296875 70.46270751953125 C 67.19261169433594 68.65235900878906 67.96051025390625 68.47166442871094 66.74523162841797 69.11226654052734 C 65.921875 65.33102416992188 64.50603485107422 61.02387237548828 63.99589157104492 55.458335876464844 C 66.03927612304688 52.59257507324219 69.5086898803711 52.64640808105469 73.2588119506836 54.25870895385742 C 75.33226013183594 53.80035400390625 76.15852355957031 53.97065353393555 75.84107971191406 53.8551139831543 C 74.40673828125 54.19376754760742 72.29345703125 53.990535736083984 69.56710815429688 53.35027313232422 C 67.76049041748047 53.434226989746094 67.8758544921875 49.17338943481445 67.6593246459961 44.47891616821289 C 67.25106811523438 39.416133880615234 66.92349243164062 34.38804626464844 67.80567169189453 29.60922622680664 C 68.70648193359375 25.994569778442383 70.90070343017578 22.88016700744629 72.56346893310547 18.774690628051758 C 73.25165557861328 14.685670852661133 74.50015258789062 10.03065013885498 76.22480010986328 6.513763427734375 C 77.53662109375 3.534532308578491 79.36981201171875 2.7800137996673584 82.87242889404297 2.796886920928955 C 86.22640991210938 4.1504225730896 90.17693328857422 6.49052619934082 75.82817840576172 9.470951080322266" stroke-width="0.0" fill="rgb(254, 254, 254)" opacity="0.9996458" stroke="rgb(129, 122, 9)" stroke-opacity="0.37318745" stroke-linecap="round" stroke-linejoin="round"/>
    <path d="M 57.19758987426758 208.17941284179688 C 63.81409454345703 209.71697998046875 69.78936004638672 210.94680786132812 74.64257049560547 211.95330810546875 C 78.14826202392578 212.71141052246094 80.33526611328125 213.2901611328125 81.3191146850586 213.9418487548828 C 81.35148620605469 214.85195922851562 80.67382049560547 215.98312377929688 79.5589370727539 217.31765747070312 C 78.30572509765625 218.71656799316406 77.11428833007812 220.00857543945312 76.08683776855469 221.12449645996094 C 75.37275695800781 221.88864135742188 74.86500549316406 222.15811157226562 74.58929443359375 221.76502990722656 C 74.47809600830078 220.9432373046875 74.54833221435547 220.11050415039062 74.89976501464844 219.4123992919922 C 75.61048889160156 219.12147521972656 76.71572875976562 219.28924560546875 78.14785766601562 220.00894165039062 C 79.79411315917969 221.23240661621094 80.82160949707031 222.75558471679688 81.78932189941406 224.24929809570312 C 82.51144409179688 226.14569091796875 83.18211364746094 228.22610473632812 83.91197204589844 230.2964630126953 C 83.97856903076172 231.6806640625 84.34345245361328 232.4288330078125 84.64759826660156 233.4542694091797 C 85.03715515136719 234.72618103027344 85.07518768310547 236.08514404296875 85.11773681640625 236.5200958251953 C 85.01579284667969 236.31617736816406 85.30561065673828 236.53871154785156 85.5197982788086 237.79501342773438 C 86.16108703613281 239.75433349609375 85.79740142822266 242.20220947265625 86.42583465576172 243.9515838623047 C 86.71487426757812 245.57093811035156 86.82415771484375 246.01329040527344 86.85121154785156 245.84913635253906 C 86.6795654296875 245.1834259033203 86.62279510498047 245.7314453125 86.98688507080078 247.92674255371094 C 86.96690368652344 251.1282196044922 87.03423309326172 254.5166778564453 87.72463989257812 258.0552673339844 C 87.54537200927734 259.5679016113281 86.41474151611328 259.3768615722656 85.03092956542969 259.3352966308594 C 84.89065551757812 259.3379821777344 85.98674011230469 259.4397888183594 87.65099334716797 259.13458251953125 C 88.04146575927734 259.6325378417969 87.6642074584961 260.7760009765625 87.27436065673828 261.3269958496094 C 88.39444732666016 261.8365478515625 87.84516143798828 263.40899658203125 85.66452026367188 269.8465576171875 C 85.23764038085938 296.54315185546875 87.19416046142578 317.8404235839844 83.42540740966797 311.2500305175781 C 83.93553924560547 279.83123779296875 82.92027282714844 267.6177978515625 83.51170349121094 267.44488525390625 C 83.04120635986328 269.2117614746094 83.30375671386719 269.41241455078125 84.796875 269.18304443359375 C 85.54580688476562 269.3568115234375 84.44332885742188 268.967041015625 81.84276580810547 269.5877380371094 C 77.6607894897461 271.8471374511719 72.19477081298828 269.8694763183594 69.30388641357422 274.7496643066406 C 70.95600128173828 283.7123718261719 70.27068328857422 306.3165588378906 72.8421859741211 317.6110534667969 C 74.67498016357422 291.14471435546875 70.83812713623047 272.3370666503906 70.89833068847656 273.1003112792969 C 66.95125579833984 276.7176208496094 70.4586410522461 271.6854553222656 68.12019348144531 270.7757263183594 C 64.48108673095703 269.0946960449219 64.2437744140625 265.4306640625 64.25566864013672 262.63568115234375 C 65.23970794677734 261.91900634765625 66.02735900878906 261.83868408203125 66.2183837890625 261.808837890625 C 65.71007537841797 261.8393249511719 65.09215545654297 262.0437316894531 64.59397888183594 262.3166809082031 C 64.21185302734375 262.6549987792969 64.39315795898438 262.21527099609375 64.50460815429688 260.8272705078125 C 64.60037994384766 258.7002258300781 64.61492156982422 256.5000305175781 64.5300521850586 254.92080688476562 C 65.4151840209961 254.2022705078125 66.91171264648438 253.85507202148438 67.34244537353516 253.6529083251953 C 66.51795959472656 253.79058837890625 65.41355895996094 254.52609252929688 64.5516586303711 254.7599639892578 C 64.56327819824219 252.76516723632812 64.6462631225586 249.35572814941406 63.99047088623047 246.4659881591797 C 64.13055419921875 245.95144653320312 64.23333740234375 247.30723571777344 65.5876235961914 247.23812866210938 C 68.22779846191406 247.03509521484375 69.48076629638672 246.56968688964844 69.691650390625 246.0879364013672 C 69.78839111328125 246.30039978027344 68.411865234375 247.27102661132812 64.59989166259766 247.21522521972656 C 63.34754943847656 244.86289978027344 64.76563262939453 239.23768615722656 62.827056884765625 233.49700927734375 C 64.01358795166016 231.97959899902344 65.7552261352539 231.4222412109375 67.20728302001953 230.6300506591797 C 67.69439697265625 230.6579132080078 65.70709991455078 230.88568115234375 63.08152770996094 233.14633178710938 C 62.54690933227539 232.08340454101562 62.41556930541992 228.68089294433594 60.46128463745117 225.0442657470703 C 59.212886810302734 223.51609802246094 60.20296096801758 223.72103881835938 61.79721450805664 225.38784790039062 C 62.75327682495117 225.54598999023438 63.028892517089844 225.4190673828125 62.613582611083984 225.46029663085938 C 61.81010437011719 225.41702270507812 60.9480094909668 225.24595642089844 60.69960403442383 225.141845703125 C 61.603336334228516 225.3099822998047 62.36680221557617 225.81246948242188 61.131099700927734 224.7371368408203 C 55.38680648803711 219.89297485351562 45.92469024658203 212.8692626953125 57.19758987426758 208.17941284179688" stroke-width="0.0" fill="rgb(0, 84, 211)" opacity="1.0" stroke="rgb(58, 14, 102)" stroke-opacity="0.18668409" stroke-linecap="round" stroke-linejoin="round"/>
    <path d="M 54.5894889831543 367.66455078125 C 61.48664474487305 374.3412170410156 67.72671508789062 372.5202331542969 70.3735580444336 372.6224060058594 C 67.05513000488281 373.5061340332031 64.54757690429688 373.6001892089844 64.14317321777344 374.4783630371094 C 65.39600372314453 372.6160583496094 71.92213439941406 374.2160949707031 79.4293441772461 368.1515808105469 C 83.65174865722656 354.64105224609375 85.82158660888672 368.2177734375 75.22313690185547 372.8909912109375 C 71.46891021728516 373.81317138671875 72.85343170166016 374.99365234375 72.66203308105469 375.4652099609375 C 72.54053497314453 377.3977966308594 72.85720825195312 378.7967529296875 73.12808227539062 380.2839660644531 C 74.05266571044922 382.1805114746094 77.60823059082031 383.8776550292969 80.7694091796875 385.4769592285156 C 81.64055633544922 386.2857360839844 80.98284912109375 385.4044189453125 79.87300109863281 385.0687255859375 C 81.24449157714844 385.97491455078125 84.69242095947266 387.6031494140625 87.69175720214844 389.3781433105469 C 87.83782196044922 390.1364440917969 87.08985900878906 389.0073547363281 85.9556655883789 388.4162902832031 C 86.0974349975586 388.98712158203125 88.2215347290039 389.8446960449219 90.38691711425781 391.25 C 90.96929168701172 391.56048583984375 90.3671646118164 391.5204162597656 89.36785888671875 390.7803039550781 C 88.89617156982422 389.16033935546875 88.31462097167969 389.0820007324219 89.67542266845703 390.84423828125 C 94.2017822265625 393.9424133300781 96.5049057006836 397.3906555175781 95.91851043701172 398.89044189453125 C 94.2829360961914 401.1656799316406 93.58453369140625 402.36968994140625 93.29844665527344 402.2933349609375 C 92.21622467041016 404.083251953125 89.68482208251953 405.6197509765625 85.53471374511719 406.08612060546875 C 84.05718231201172 409.79473876953125 84.40292358398438 413.3798522949219 85.71287536621094 415.05419921875 C 86.92926788330078 413.703857421875 87.07217407226562 410.267333984375 85.67581939697266 406.5346374511719 C 81.43425750732422 405.84698486328125 76.46044921875 404.74908447265625 72.06893920898438 402.00982666015625 C 69.53935241699219 400.6818542480469 69.08458709716797 400.5010070800781 69.45120239257812 400.5443420410156 C 69.64871978759766 400.1086730957031 69.61450958251953 398.9371643066406 69.2017822265625 398.5238342285156 C 69.24027252197266 398.4915466308594 69.99205017089844 399.5801696777344 69.24114227294922 400.3072814941406 C 67.6368179321289 399.8071594238281 66.9150619506836 398.6891784667969 67.43885040283203 399.2155456542969 C 67.6279296875 399.0268859863281 65.8819351196289 398.4162292480469 64.10893249511719 397.0231018066406 C 63.28681564331055 396.3764953613281 62.220191955566406 395.5506591796875 60.19537353515625 393.9057312011719 C 58.021602630615234 391.79473876953125 56.68960952758789 389.9136657714844 56.77862548828125 388.09234619140625 C 56.584896087646484 386.5368347167969 57.006229400634766 387.33050537109375 59.04111099243164 387.89129638671875 C 60.637550354003906 388.1905822753906 60.43347930908203 388.3434143066406 58.09294891357422 387.5709533691406 C 55.8616943359375 387.5180358886719 57.20874786376953 382.78851318359375 58.326019287109375 376.3331604003906 C 59.13957214355469 374.2896728515625 57.98417282104492 374.3830261230469 58.12353515625 374.7060241699219 C 58.74514389038086 375.0237121582031 60.18601989746094 373.44818115234375 57.35469055175781 371.825927734375 C 48.9550895690918 368.3836364746094 50.84672927856445 351.9904479980469 54.5894889831543 367.66455078125" stroke-width="0.0" fill="rgb(0, 0, 0)" opacity="0.99991536" stroke="rgb(252, 162, 133)" stroke-opacity="0.44379368" stroke-linecap="round" stroke-linejoin="round"/>
    <path d="M 51.33506774902344 72.96674346923828 C 52.886566162109375 73.00212097167969 53.90372085571289 73.43639373779297 54.37228775024414 73.64408874511719 C 54.24323654174805 73.62054443359375 53.60726547241211 73.42263793945312 52.77589416503906 73.26223754882812 C 52.512569427490234 72.85560607910156 52.879390716552734 72.9493408203125 54.20036697387695 73.33258819580078 C 56.39320755004883 73.93984985351562 59.22298049926758 73.74817657470703 61.02598571777344 74.97752380371094 C 62.44264602661133 74.86007690429688 62.85129165649414 75.47372436523438 62.66668701171875 73.66668701171875 C 64.0589828491211 62.20810317993164 66.17404174804688 38.61558151245117 72.61156463623047 7.113004684448242 C 79.85143280029297 -3.6886539459228516 73.30545806884766 9.813725471496582 69.70929718017578 38.043312072753906 C 66.86510467529297 58.952552795410156 65.04010772705078 71.87586975097656 64.924560546875 78.1866226196289 C 63.4956169128418 81.19230651855469 64.21510314941406 84.1537094116211 63.98435974121094 86.83378601074219 C 64.01815032958984 87.76728820800781 63.94778060913086 87.8880386352539 64.01480865478516 87.69429016113281 C 64.0596694946289 87.43034362792969 63.985538482666016 86.9924545288086 64.07060241699219 86.62989044189453 C 64.1371078491211 86.59174346923828 63.84211349487305 87.59286499023438 64.02799224853516 89.3016357421875 C 64.2149658203125 89.82794189453125 63.13308334350586 89.69422149658203 61.348934173583984 89.22391510009766 C 61.54811096191406 90.333740234375 61.5762825012207 92.11347198486328 61.37080001831055 93.68965911865234 C 61.91132354736328 95.23270416259766 61.1456298828125 95.68011474609375 60.52952194213867 93.74385833740234 C 60.09679412841797 91.51819610595703 60.6832160949707 91.83280944824219 62.43564987182617 94.638916015625 C 66.53651428222656 96.74252319335938 68.65249633789062 100.47575378417969 71.58287048339844 101.84335327148438 C 71.39847564697266 102.73828887939453 70.31317901611328 102.93589782714844 69.12814331054688 103.2657470703125 C 69.32550048828125 103.38523864746094 70.35319519042969 102.74632263183594 71.54464721679688 102.47692108154297 C 72.8086929321289 104.09882354736328 74.5508041381836 105.04207611083984 74.66011047363281 106.4569320678711 C 73.40239715576172 108.31940460205078 71.94818115234375 109.4057388305664 71.9266586303711 109.67770385742188 C 72.93750762939453 108.55083465576172 73.98458099365234 106.76163482666016 75.57597351074219 107.41622924804688 C 77.67046356201172 110.98719024658203 78.05244445800781 117.56487274169922 79.8836669921875 123.59498596191406 C 75.19657897949219 124.73040008544922 70.38349151611328 125.6885757446289 67.57735443115234 124.31624603271484 C 71.68177795410156 120.36128997802734 73.26714324951172 115.61637878417969 72.53721618652344 111.11676025390625 C 71.8061294555664 109.3968505859375 71.87574768066406 109.13265991210938 71.9606704711914 109.54114532470703 C 72.03911590576172 109.85960388183594 71.83173370361328 109.6106185913086 71.3897476196289 109.07888793945312 C 70.6951675415039 108.50345611572266 69.82199096679688 108.20533752441406 68.74565124511719 108.03536224365234 C 67.73715209960938 107.71701049804688 66.64530181884766 107.18489837646484 65.40670013427734 106.41130828857422 C 64.07984161376953 105.31705474853516 62.50305938720703 104.0877914428711 62.22818374633789 102.14099884033203 C 61.757476806640625 99.9065170288086 61.98530960083008 97.52748107910156 62.483341217041016 95.6535873413086 C 63.50763702392578 95.5804443359375 64.46053314208984 95.68416595458984 64.8965835571289 95.61428833007812 C 64.75896453857422 95.30770111083984 64.24986267089844 95.34529113769531 63.63159942626953 95.18328094482422 C 63.39095687866211 94.2715072631836 63.12620162963867 94.25543212890625 62.62563705444336 95.12556457519531 C 61.969635009765625 97.42064666748047 61.55952835083008 100.47322082519531 62.61363220214844 103.39695739746094 C 64.18811798095703 106.04280090332031 66.65010070800781 107.42948913574219 69.27828979492188 108.14012145996094 C 71.66484832763672 108.51090240478516 72.6620101928711 110.04370880126953 72.76327514648438 113.38058471679688 C 72.2641830444336 117.54722595214844 71.33323669433594 122.58443450927734 67.22148895263672 122.92481994628906 C 62.38180923461914 124.58611297607422 59.46208953857422 129.9801483154297 56.452476501464844 133.8043975830078 C 53.62309265136719 133.32974243164062 50.05169677734375 129.97267150878906 46.51385498046875 127.22501373291016 C 49.684452056884766 127.33903503417969 53.70399856567383 127.93840789794922 56.49489974975586 126.08407592773438 C 57.389339447021484 123.92859649658203 56.65243911743164 122.29936218261719 56.06414794921875 122.29795837402344 C 58.413726806640625 124.92346954345703 59.29499053955078 129.682861328125 58.38545227050781 134.8403778076172 C 54.825382232666016 134.47634887695312 48.95328140258789 128.99940490722656 41.422401428222656 123.20945739746094 C 32.65174865722656 129.4451904296875 18.86156463623047 139.1519317626953 8.900052070617676 151.50637817382812 C 4.325745582580566 158.09561157226562 4.431255340576172 158.21055603027344 4.9349822998046875 157.28726196289062 C 3.312246322631836 162.57601928710938 0.573034942150116 166.75616455078125 0.7356275916099548 161.42881774902344 C 7.625417232513428 152.22930908203125 3.2728934288024902 143.83253479003906 -2.0250465869903564 142.3929443359375 C -4.439586162567139 144.27561950683594 -2.3159406185150146 145.26565551757812 2.3040311336517334 144.0023956298828 C 1.2452635765075684 134.2277069091797 1.7057548761367798 123.63520812988281 4.990569591522217 114.59070587158203 C 6.350943565368652 109.945068359375 7.312756538391113 109.17371368408203 7.042739391326904 109.43804168701172 C 6.6767897605896 109.35597229003906 7.298472881317139 108.71871185302734 8.377360343933105 106.14751434326172 C 10.643609046936035 101.51235961914062 13.758157730102539 96.09877014160156 17.051666259765625 92.11547088623047 C 18.259084701538086 91.1087646484375 18.2073974609375 91.56275177001953 17.756942749023438 91.40267181396484 C 18.758256912231445 90.04035186767578 20.786190032958984 87.41673278808594 23.93450355529785 84.64947509765625 C 27.427879333496094 81.9847640991211 29.88321876525879 79.79698181152344 31.14739990234375 79.49009704589844 C 29.946796417236328 80.55486297607422 29.4502010345459 82.59820556640625 29.716745376586914 83.8081283569336 C 29.396385192871094 81.25460052490234 30.512161254882812 78.76260375976562 35.233272552490234 77.050537109375 C 39.594879150390625 74.71942901611328 43.38612365722656 73.76797485351562 46.00767517089844 73.73123931884766 C 47.61967849731445 73.24657440185547 48.584415435791016 72.93605041503906 51.33506774902344 72.96674346923828" stroke-width="0.0" fill="rgb(140, 210, 94)" opacity="1.0" stroke="rgb(14, 0, 220)" stroke-opacity="0.16717978" stroke-linecap="round" stroke-linejoin="round"/>
    <path d="M 145.07679748535156 213.3252716064453 C 148.8646697998047 213.88157653808594 152.2621307373047 214.40359497070312 155.0519561767578 214.84190368652344 C 157.09176635742188 215.1621551513672 158.42356872558594 215.41494750976562 159.0362548828125 215.63783264160156 C 159.0195770263672 215.7808074951172 158.5966796875 215.69989013671875 157.94764709472656 215.30575561523438 C 157.39491271972656 214.6337432861328 157.3026580810547 213.86997985839844 157.8890380859375 213.32501220703125 C 159.3039093017578 213.338623046875 161.59217834472656 214.08375549316406 164.37335205078125 215.65621948242188 C 167.02699279785156 218.024169921875 168.86886596679688 220.79632568359375 169.09593200683594 223.05581665039062 C 169.42922973632812 223.5171356201172 169.4777374267578 223.5316619873047 169.75323486328125 224.2620086669922 C 169.99964904785156 226.2982635498047 171.0438995361328 228.13815307617188 171.0913543701172 229.7931365966797 C 171.42770385742188 231.25067138671875 172.06736755371094 231.65603637695312 172.03038024902344 231.6479949951172 C 172.14682006835938 231.36524963378906 172.12086486816406 231.6924591064453 171.9678497314453 233.12998962402344 C 172.6741180419922 234.89675903320312 172.9033966064453 236.970458984375 173.4068603515625 238.71871948242188 C 174.26602172851562 240.03448486328125 174.1005859375 241.06617736816406 174.00619506835938 241.76747131347656 C 173.9736328125 242.3590545654297 173.92881774902344 242.44068908691406 173.8908233642578 242.56051635742188 C 174.39952087402344 243.76490783691406 175.07777404785156 245.47332763671875 175.00718688964844 247.04571533203125 C 174.87576293945312 248.2009735107422 175.57266235351562 249.4108123779297 176.10081481933594 250.8968505859375 C 175.8042755126953 252.5704345703125 176.02662658691406 253.21322631835938 176.2906951904297 252.94577026367188 C 175.88072204589844 253.59158325195312 174.26083374023438 255.53182983398438 172.36436462402344 257.2440185546875 C 171.75238037109375 257.3984375 172.7543182373047 256.50274658203125 173.90370178222656 255.72462463378906 C 175.0807342529297 258.1405334472656 175.3242645263672 258.2403259277344 172.62562561035156 256.57647705078125 C 171.5432586669922 257.5852966308594 174.42755126953125 271.4706726074219 175.0219268798828 298.8553771972656 C 174.9830780029297 322.8298645019531 179.51986694335938 307.28631591796875 175.39837646484375 271.149169921875 C 174.6962127685547 255.35955810546875 174.757568359375 255.32284545898438 168.07408142089844 257.972900390625 C 161.28895568847656 258.46685791015625 156.69540405273438 256.6156921386719 156.5922393798828 255.5303192138672 C 160.11634826660156 264.03094482421875 162.49954223632812 286.92889404296875 162.9929656982422 314.1828308105469 C 167.33021545410156 301.2961730957031 162.71238708496094 273.8024597167969 159.96591186523438 257.9053649902344 C 156.17822265625 255.23416137695312 154.77383422851562 255.48287963867188 155.46807861328125 256.0724182128906 C 155.81161499023438 255.35064697265625 155.78553771972656 253.6258544921875 155.2821502685547 249.77073669433594 C 154.8865966796875 245.4175567626953 154.6781768798828 242.8013458251953 155.4446258544922 243.3661346435547 C 157.69883728027344 244.4684295654297 159.1531982421875 244.20672607421875 159.2247314453125 244.0222930908203 C 158.4377899169922 244.44537353515625 157.05697631835938 244.15679931640625 155.1168212890625 243.11387634277344 C 153.79989624023438 240.07040405273438 153.67697143554688 238.13661193847656 154.07321166992188 237.7236785888672 C 154.52122497558594 238.37655639648438 154.16207885742188 237.71322631835938 153.04359436035156 235.57217407226562 C 152.91995239257812 232.5997314453125 153.2626495361328 230.31884765625 153.2257537841797 229.80152893066406 C 153.17562866210938 231.0298614501953 153.01914978027344 233.0684356689453 152.6103057861328 234.1643524169922 C 152.2731475830078 233.01409912109375 151.61651611328125 230.40206909179688 150.1051483154297 227.783447265625 C 149.7891082763672 225.9476318359375 147.80426025390625 225.22825622558594 145.07679748535156 213.3252716064453" stroke-width="0.0" fill="rgb(0, 84, 211)" opacity="1.0" stroke="rgb(94, 58, 49)" stroke-opacity="0.8766891" stroke-linecap="round" stroke-linejoin="round"/>
    <path d="M 142.4520721435547 350.4493103027344 C 142.24269104003906 362.23651123046875 146.95555114746094 365.0776062011719 154.3292694091797 367.451416015625 C 156.08583068847656 368.32318115234375 155.4661865234375 368.0104675292969 154.592529296875 367.79083251953125 C 154.24136352539062 368.2437438964844 152.67344665527344 368.4177551269531 153.21180725097656 368.20135498046875 C 160.4286346435547 367.27581787109375 167.3230438232422 370.50799560546875 171.52993774414062 366.722412109375 C 178.18075561523438 355.6327819824219 175.58132934570312 361.578369140625 162.11680603027344 370.6281433105469 C 161.70277404785156 373.1301574707031 164.52392578125 373.2044372558594 164.6253662109375 373.7060852050781 C 164.51377868652344 373.9984436035156 168.07115173339844 374.9666748046875 172.74911499023438 377.5826721191406 C 174.7994842529297 379.59222412109375 173.89483642578125 379.1264343261719 172.6313018798828 375.6192626953125 C 172.86337280273438 374.06884765625 172.58316040039062 374.1700134277344 172.63267517089844 375.1533203125 C 172.84437561035156 377.9308166503906 175.1897430419922 379.5180969238281 176.3137664794922 380.07403564453125 C 175.87432861328125 380.3482971191406 177.01145935058594 380.68682861328125 178.23619079589844 383.15618896484375 C 179.64500427246094 385.28717041015625 178.68125915527344 387.8206787109375 175.33544921875 390.16015625 C 172.04080200195312 391.5971374511719 170.80809020996094 391.5528564453125 171.261474609375 391.52301025390625 C 170.2941131591797 391.92584228515625 168.03768920898438 392.2093811035156 165.3379669189453 390.96282958984375 C 163.1555938720703 390.94000244140625 163.53468322753906 390.751953125 163.94224548339844 391.0163269042969 C 163.1658477783203 390.6805725097656 160.53895568847656 389.1438903808594 158.23207092285156 388.6332092285156 C 158.0132293701172 388.0068359375 157.7353057861328 387.8659973144531 156.63702392578125 388.1053771972656 C 155.84637451171875 387.1587219238281 155.84481811523438 386.92413330078125 156.46682739257812 386.7169189453125 C 155.831298828125 386.7511291503906 155.8355712890625 387.00177001953125 155.199462890625 387.113525390625 C 152.87144470214844 385.7958068847656 148.93125915527344 383.7288513183594 145.7921600341797 381.55963134765625 C 145.1680145263672 381.47271728515625 145.16192626953125 381.342041015625 145.23873901367188 381.3533935546875 C 145.8781280517578 381.86517333984375 145.35348510742188 381.6961364746094 144.34454345703125 380.8437194824219 C 143.6431884765625 379.5740966796875 141.08395385742188 379.13848876953125 140.93679809570312 376.6266174316406 C 142.61532592773438 371.1014404296875 145.01162719726562 368.145263671875 145.3448486328125 367.0892333984375 C 145.7166290283203 366.7289123535156 145.47279357910156 366.9117431640625 145.05642700195312 367.6036071777344 C 144.86558532714844 368.0864562988281 145.2517852783203 367.8394470214844 145.99639892578125 366.4452819824219 C 147.72744750976562 363.6314392089844 138.10220336914062 364.4329528808594 142.4520721435547 350.4493103027344" stroke-width="0.0" fill="rgb(0, 0, 0)" opacity="0.99991846" stroke="rgb(238, 160, 3)" stroke-opacity="0.55101615" stroke-linecap="round" stroke-linejoin="round"/>
    <path d="M 29.543758392333984 145.11119079589844 C 35.471160888671875 140.55343627929688 39.3101806640625 138.83033752441406 41.1097412109375 140.4699249267578 C 41.27341842651367 144.42893981933594 40.291316986083984 149.0632781982422 38.80024719238281 153.35964965820312 C 37.40532302856445 156.55728149414062 36.43305969238281 158.57078552246094 36.00433349609375 159.5860595703125 C 36.10295867919922 159.8609161376953 36.48149871826172 159.7117156982422 36.8980827331543 159.5834503173828 C 37.24609375 159.9573974609375 37.145816802978516 160.9581298828125 36.335105895996094 162.54006958007812 C 35.330108642578125 165.24935913085938 35.435184478759766 168.82847595214844 37.62155532836914 172.66302490234375 C 41.410247802734375 176.79212951660156 46.5133171081543 181.19483947753906 50.483924865722656 184.50946044921875 C 51.681175231933594 186.46240234375 48.44769287109375 185.9801788330078 40.831817626953125 183.66317749023438 C 30.657726287841797 180.5563507080078 21.61981201171875 175.1168975830078 15.558636665344238 169.12847900390625 C 13.63203239440918 167.09017944335938 14.702210426330566 167.11282348632812 14.956414222717285 167.22085571289062 C 13.119929313659668 167.67173767089844 12.8649263381958 173.12466430664062 23.219371795654297 179.6593780517578 C 39.19751739501953 185.24993896484375 31.851638793945312 187.6638946533203 16.77588653564453 177.55758666992188 C 10.633983612060547 170.13662719726562 12.604835510253906 164.09991455078125 13.942359924316406 162.43295288085938 C 15.507278442382812 163.1713409423828 15.959951400756836 163.3489990234375 15.054838180541992 162.93568420410156 C 13.847208976745605 162.60157775878906 13.45862102508545 162.1457061767578 14.641716957092285 160.79698181152344 C 16.18187713623047 157.80282592773438 18.954586029052734 154.2380828857422 21.829561233520508 151.67120361328125 C 22.52114486694336 150.13760375976562 23.039140701293945 151.1314239501953 23.158849716186523 153.37843322753906 C 23.165241241455078 154.43263244628906 23.173959732055664 153.5893096923828 23.006498336791992 151.78811645507812 C 22.51907730102539 150.8202362060547 22.292678833007812 150.9320526123047 29.543758392333984 145.11119079589844" stroke-width="0.0" fill="rgb(89, 159, 43)" opacity="1.0" stroke="rgb(198, 254, 241)" stroke-opacity="0.17988504" stroke-linecap="round" stroke-linejoin="round"/>
    <path d="M 173.72915649414062 105.56755065917969 C 177.96861267089844 111.50196838378906 181.80813598632812 116.18486022949219 183.02467346191406 119.40739440917969 C 183.132080078125 120.31339263916016 183.55276489257812 120.5211410522461 183.93048095703125 121.88427734375 C 184.45220947265625 123.8533706665039 187.962158203125 125.78033447265625 189.617431640625 127.75264739990234 C 188.33949279785156 127.25782775878906 185.9575958251953 126.92035675048828 184.82395935058594 127.50720977783203 C 186.7040557861328 126.65943145751953 190.54296875 127.05172729492188 193.77847290039062 132.0345458984375 C 195.09315490722656 133.5394287109375 191.08029174804688 131.2918701171875 187.9333038330078 137.48190307617188 C 184.07781982421875 141.6644744873047 184.19775390625 143.2763214111328 185.9451446533203 144.00343322753906 C 185.2880859375 143.1502685546875 184.2241668701172 143.36471557617188 183.7728271484375 144.91116333007812 C 186.3124237060547 146.12974548339844 191.36000061035156 154.51998901367188 200.25587463378906 165.431396484375 C 196.32000732421875 154.3527374267578 186.9123077392578 145.88308715820312 184.79147338867188 143.1974639892578 C 181.86289978027344 148.05615234375 179.24647521972656 151.93382263183594 178.42977905273438 152.06687927246094 C 178.9059600830078 151.6978302001953 179.48782348632812 151.01202392578125 179.27047729492188 151.11810302734375 C 178.068359375 152.85411071777344 175.0466766357422 155.6629638671875 170.8019561767578 157.98651123046875 C 168.86485290527344 158.51324462890625 169.50961303710938 157.0063018798828 170.61822509765625 154.59152221679688 C 171.73178100585938 153.448974609375 171.9763641357422 153.17991638183594 171.37008666992188 153.5731201171875 C 168.9344024658203 155.91464233398438 168.71791076660156 165.01153564453125 165.68875122070312 181.31321716308594 C 162.59703063964844 185.06382751464844 165.8574676513672 173.9830322265625 167.63182067871094 159.0271453857422 C 168.9857177734375 148.48297119140625 169.58680725097656 142.8830108642578 169.84764099121094 140.73110961914062 C 169.6307830810547 140.42105102539062 169.4851531982422 140.76902770996094 169.4232635498047 141.63449096679688 C 169.86705017089844 142.47882080078125 170.26278686523438 142.98489379882812 170.25184631347656 143.1772003173828 C 169.90762329101562 142.74249267578125 169.7041015625 141.35479736328125 170.1005096435547 138.71017456054688 C 170.28314208984375 135.39080810546875 170.38015747070312 132.52735900878906 171.6239471435547 131.01185607910156 C 173.6600799560547 130.0996551513672 175.17959594726562 129.91928100585938 175.09776306152344 130.0267333984375 C 173.66604614257812 130.1262969970703 171.8279266357422 130.86065673828125 170.76742553710938 132.09339904785156 C 171.0267791748047 133.42507934570312 171.3585662841797 134.2568359375 171.12448120117188 133.84420776367188 C 170.77239990234375 132.05929565429688 170.89991760253906 129.9095458984375 171.16162109375 128.09429931640625 C 171.10406494140625 126.99134826660156 171.08477783203125 126.31013488769531 171.4785614013672 125.6862564086914 C 171.7439422607422 124.80581665039062 171.78744506835938 122.9317626953125 172.00357055664062 120.2323989868164 C 172.61183166503906 117.00048828125 172.44793701171875 112.5862808227539 174.05447387695312 106.89886474609375 C 178.1305389404297 97.95252227783203 174.6737823486328 86.08866882324219 173.72915649414062 105.56755065917969" stroke-width="0.0" fill="rgb(89, 159, 44)" opacity="0.99997425" stroke="rgb(18, 171, 149)" stroke-opacity="0.7291608" stroke-linecap="round" stroke-linejoin="round"/>
  </g>
</svg>
