<?xml version="1.0" ?>
<svg xmlns="http://www.w3.org/2000/svg" version="1.1" width="222" height="406">
  <defs/>
  <g>
    <path d="M -7.555517673492432 -8.427815437316895 C 5.926965713500977 -10.978248596191406 19.048507690429688 -12.576379776000977 30.84368324279785 -12.207040786743164 C 40.0622444152832 -9.747291564941406 45.69537353515625 -5.594064712524414 47.2675895690918 -1.2727980613708496 C 46.43198013305664 0.9030987620353699 47.27607727050781 0.18649044632911682 51.84197998046875 -2.919525146484375 C 60.13683319091797 -5.848726749420166 70.89952850341797 -7.111884117126465 82.77750396728516 -6.1136603355407715 C 93.99018859863281 -5.191226959228516 103.51215362548828 -5.130349159240723 110.5261459350586 -6.139302730560303 C 115.04227447509766 -7.482613563537598 118.06185913085938 -8.263233184814453 120.99071502685547 -8.271635055541992 C 124.97679138183594 -8.049482345581055 130.1974639892578 -7.353704929351807 136.418212890625 -6.386155128479004 C 143.51278686523438 -5.51080322265625 151.09585571289062 -5.016751766204834 159.02679443359375 -5.380248546600342 C 167.26206970214844 -6.636904239654541 175.80206298828125 -8.37685775756836 184.6730194091797 -9.837751388549805 C 193.70498657226562 -10.477256774902344 202.57469177246094 -9.92948055267334 210.9175567626953 -8.026907920837402 C 218.295654296875 -4.676264762878418 224.28012084960938 0.09077272564172745 228.60093688964844 5.9942240715026855 C 231.338134765625 12.780619621276855 232.49136352539062 20.14958381652832 232.48936462402344 27.827882766723633 C 232.15660095214844 35.57603073120117 231.8728790283203 43.275611877441406 231.7333526611328 50.820213317871094 C 231.70111083984375 58.16868209838867 231.73333740234375 65.37782287597656 231.7733612060547 72.36888885498047 C 231.7741241455078 79.1980209350586 231.77891540527344 86.00499725341797 231.79798889160156 92.77474212646484 C 231.7379913330078 99.656005859375 231.6162567138672 106.69883728027344 231.67239379882812 113.87936401367188 C 232.05886840820312 121.22834777832031 232.36485290527344 128.73426818847656 232.30868530273438 136.3881072998047 C 231.7079620361328 144.08224487304688 230.62918090820312 151.68585205078125 229.34310913085938 159.18948364257812 C 228.25930786132812 166.58583068847656 228.00775146484375 173.73301696777344 228.9257354736328 180.61798095703125 C 230.48606872558594 187.3496551513672 231.8459014892578 193.84805297851562 232.6429901123047 200.17271423339844 C 232.6530303955078 206.52684020996094 232.18621826171875 212.9424591064453 231.71693420410156 219.3645477294922 C 231.5938262939453 225.9364776611328 231.6829376220703 232.7338409423828 231.78387451171875 239.63990783691406 C 231.79293823242188 246.58204650878906 231.77291870117188 253.68490600585938 231.76698303222656 260.873291015625 C 231.76930236816406 268.0310974121094 231.770263671875 275.17913818359375 231.7697296142578 282.3081970214844 C 231.76951599121094 289.3500061035156 231.7698516845703 296.2889709472656 231.77017211914062 303.1316833496094 C 231.76736450195312 309.898193359375 231.76365661621094 316.6224670410156 231.7748565673828 323.3759765625 C 231.80303955078125 330.1927490234375 231.78115844726562 337.20721435546875 231.6988983154297 344.4621276855469 C 231.64976501464844 352.01495361328125 231.7598876953125 359.92047119140625 232.08529663085938 368.1652526855469 C 232.48605346679688 376.58892822265625 232.50335693359375 385.0194396972656 231.57281494140625 393.1372985839844 C 229.3455047607422 400.4833679199219 225.84532165527344 406.79107666015625 221.15261840820312 411.7525939941406 C 215.40672302246094 414.92156982421875 208.83741760253906 416.4233703613281 201.6387481689453 416.71295166015625 C 193.8797149658203 416.4064025878906 185.84225463867188 415.95684814453125 177.68701171875 415.6747741699219 C 169.59095764160156 415.6526794433594 161.6546173095703 415.72222900390625 154.021728515625 415.7536926269531 C 146.7395477294922 415.7611999511719 139.82273864746094 415.8076477050781 133.2899169921875 415.8875427246094 C 127.0267562866211 415.9388732910156 120.9327392578125 415.9160461425781 115.00444030761719 415.8080139160156 C 109.09123992919922 415.48175048828125 103.1587905883789 414.75445556640625 97.05996704101562 413.49505615234375 C 90.70160675048828 411.6299743652344 83.93441772460938 410.70489501953125 76.59087371826172 411.17144775390625 C 68.6748046875 412.6021423339844 60.22514724731445 414.2898864746094 51.43819808959961 415.63079833984375 C 42.48307800292969 416.35528564453125 33.53778076171875 416.7250061035156 24.884767532348633 416.97711181640625 C 16.833515167236328 416.8220520019531 9.657090187072754 415.6114196777344 3.609551429748535 412.6595764160156 C -1.0314946174621582 407.56671142578125 -4.237705707550049 400.5474548339844 -6.102534294128418 392.2585144042969 C -6.99703311920166 383.439208984375 -7.2621073722839355 374.9682312011719 -7.387897968292236 367.6826171875 C -7.7051849365234375 361.5655212402344 -7.888623237609863 355.8983154296875 -7.682060718536377 349.92779541015625 C -7.035590648651123 343.0890808105469 -6.401515960693359 335.1615905761719 -6.278298854827881 326.25048828125 C -6.823014259338379 316.63409423828125 -7.524435997009277 307.2007751464844 -7.800525665283203 298.727294921875 C -7.242608547210693 292.0007019042969 -6.6069183349609375 286.6112060546875 -6.805209636688232 281.22674560546875 C -8.209107398986816 274.8087158203125 -9.555892944335938 267.0487976074219 -9.10784912109375 258.2547912597656 C -7.385730743408203 249.15541076660156 -6.108762741088867 240.9119873046875 -5.735985279083252 234.59266662597656 C -5.545957088470459 230.757568359375 -5.4793171882629395 228.7721405029297 -5.548172950744629 227.1353759765625 C -6.523011684417725 223.42916870117188 -8.556578636169434 216.3088836669922 -10.23672103881836 206.38658142089844 C -9.078351974487305 194.78109741210938 -4.818242073059082 183.6206512451172 1.878359079360962 177.50563049316406 C 7.171614170074463 177.142578125 2.065673828125 176.96888732910156 -6.374432563781738 173.8741455078125 C -10.244634628295898 165.43955993652344 -10.246118545532227 155.18270874023438 -7.74933385848999 143.77284240722656 C -4.657332420349121 132.66151428222656 -2.964336395263672 122.94255065917969 -3.3682076930999756 115.53177642822266 C -5.218031883239746 109.9951400756836 -6.780543804168701 104.89340209960938 -7.458048343658447 99.15874481201172 C -7.165829658508301 91.97461700439453 -7.134760856628418 83.5643310546875 -8.11685562133789 74.36612701416016 C -9.313612937927246 65.10584259033203 -9.224085807800293 57.11017608642578 -7.340075969696045 51.57023620605469 C -4.8640923500061035 49.278316497802734 -3.8374922275543213 48.478553771972656 -4.378896236419678 46.9231071472168 C -5.873322010040283 42.67914962768555 -7.974155426025391 35.65658950805664 -10.48135757446289 26.436922073364258 C -13.251296043395996 15.837472915649414 -16.017911911010742 4.858261585235596 -7.555517673492432 -8.427815437316895" stroke-width="0.0" fill="rgb(234, 229, 225)" opacity="1.0" stroke="rgb(205, 158, 225)" stroke-opacity="0.2682998" stroke-linecap="round" stroke-linejoin="round"/>
    <path d="M 60.553043365478516 88.35655212402344 C 63.27455139160156 89.30885314941406 65.39247131347656 90.24781799316406 67.49805450439453 90.95112609863281 C 69.0049057006836 91.71135711669922 69.76698303222656 92.29869079589844 70.98403930664062 92.01614379882812 C 71.08033752441406 93.26673889160156 72.15132141113281 92.9425277709961 73.36658477783203 93.01063537597656 C 73.40990447998047 94.10911560058594 74.51201629638672 93.86090087890625 75.8543930053711 94.17088317871094 C 77.72238159179688 95.31912231445312 81.14942932128906 95.99552154541016 84.1986083984375 97.12030029296875 C 87.79268646240234 97.94844055175781 91.11035919189453 99.03974151611328 94.13423919677734 99.5912094116211 C 95.89598083496094 100.2738265991211 97.9561996459961 99.97480010986328 98.95838928222656 100.80106353759766 C 99.9188232421875 100.76758575439453 100.42806243896484 101.11516571044922 101.71366119384766 100.9767074584961 C 102.58110809326172 101.06985473632812 104.73277282714844 102.00101470947266 108.22081756591797 102.02072143554688 C 111.802734375 102.40941619873047 115.35023498535156 103.24978637695312 119.30540466308594 102.94110107421875 C 123.23602294921875 103.57940673828125 124.70745086669922 103.3826675415039 125.25616455078125 101.6805648803711 C 125.36322021484375 98.78006744384766 125.0721206665039 97.16889953613281 124.83938598632812 96.70161437988281 C 124.94499969482422 97.8613510131836 125.91252899169922 98.99337768554688 127.82014465332031 101.478759765625 C 130.01522827148438 103.61426544189453 133.20790100097656 103.46363830566406 137.8673095703125 102.96839904785156 C 144.83596801757812 103.22825622558594 147.70086669921875 101.7928237915039 151.21250915527344 102.00647735595703 C 154.2360382080078 101.3682861328125 157.55264282226562 101.00350952148438 160.52340698242188 100.51332092285156 C 163.91424560546875 99.91851806640625 167.04391479492188 98.98504638671875 171.92642211914062 98.4595947265625 C 175.5631103515625 96.22496795654297 173.45558166503906 93.26665496826172 176.52032470703125 93.2682113647461 C 175.9646453857422 101.02826690673828 175.84005737304688 102.76293182373047 175.01524353027344 104.97529602050781 C 175.2572784423828 107.44388580322266 174.6367950439453 108.66602325439453 173.6942596435547 110.34254455566406 C 174.13735961914062 112.07381439208984 175.0009307861328 113.8166732788086 175.99119567871094 115.57022094726562 C 177.10824584960938 117.31884002685547 178.19581604003906 119.47247314453125 179.05007934570312 122.07891845703125 C 179.45706176757812 125.27405548095703 179.46331787109375 129.03565979003906 179.1314239501953 133.3604278564453 C 178.5610809326172 137.80191040039062 177.87733459472656 141.9920196533203 177.29177856445312 145.8733367919922 C 176.86557006835938 149.131103515625 176.1881866455078 151.7138671875 175.25933837890625 153.923828125 C 173.77084350585938 155.48367309570312 171.98355102539062 156.80490112304688 170.1643829345703 158.08233642578125 C 168.7312469482422 159.64154052734375 167.80886840820312 161.6011199951172 167.80718994140625 163.939697265625 C 167.59657287597656 166.15969848632812 167.190185546875 168.3974609375 166.93003845214844 170.44630432128906 C 166.65150451660156 172.43153381347656 166.06504821777344 174.25997924804688 165.4566192626953 176.12420654296875 C 164.84019470214844 177.73223876953125 164.47215270996094 179.18788146972656 164.47129821777344 180.70921325683594 C 164.54945373535156 182.30563354492188 164.46165466308594 183.99066162109375 164.16891479492188 186.00863647460938 C 163.57154846191406 188.4828338623047 162.65159606933594 191.494140625 161.38455200195312 194.93113708496094 C 160.3271942138672 198.49261474609375 159.451904296875 201.8474884033203 158.4961700439453 204.53961181640625 C 157.81124877929688 206.4326934814453 157.03636169433594 207.68052673339844 155.8340301513672 208.32582092285156 C 153.98736572265625 208.73965454101562 151.31822204589844 208.87525939941406 147.90769958496094 208.8010711669922 C 143.85389709472656 208.93478393554688 139.58819580078125 209.1332244873047 135.48281860351562 209.4523468017578 C 131.6935577392578 209.86953735351562 128.4507598876953 210.2347869873047 125.59764099121094 210.46002197265625 C 123.11975860595703 210.49269104003906 120.69935607910156 210.3284454345703 118.16011047363281 210.0994110107422 C 115.28802490234375 209.93421936035156 112.14282989501953 209.86219787597656 108.71286010742188 209.9357452392578 C 105.04241180419922 210.19284057617188 101.31332397460938 210.40509033203125 97.52446746826172 210.5274200439453 C 93.70256042480469 210.19822692871094 89.82415771484375 209.41964721679688 85.8675308227539 208.29684448242188 C 81.93975830078125 207.1912841796875 78.10063171386719 206.14389038085938 74.43853759765625 205.44491577148438 C 70.91596984863281 205.0447540283203 67.65132904052734 204.9728240966797 64.7658462524414 205.01315307617188 C 62.36016845703125 204.8650665283203 60.49607467651367 204.45108032226562 59.0364990234375 203.70550537109375 C 57.785362243652344 202.700927734375 56.626163482666016 200.94775390625 56.15996551513672 197.73486328125 C 55.59590148925781 194.521484375 54.330039978027344 191.58251953125 51.567237854003906 189.28314208984375 C 48.930076599121094 186.6833953857422 46.80253601074219 183.49453735351562 45.307369232177734 179.86061096191406 C 44.353511810302734 175.929931640625 43.9135856628418 171.94886779785156 43.87522888183594 167.8728790283203 C 44.13725280761719 163.72496032714844 44.372840881347656 159.61279296875 44.66489028930664 155.68833923339844 C 44.704952239990234 152.05917358398438 44.86410140991211 148.84913635253906 45.63258361816406 146.2755126953125 C 47.15879440307617 144.48007202148438 49.45714569091797 143.24363708496094 52.37688446044922 142.16525268554688 C 55.60826873779297 140.95166015625 58.9948844909668 139.38243103027344 62.29364776611328 137.4440460205078 C 65.34719848632812 135.3195343017578 67.96847534179688 133.39100646972656 70.10820007324219 131.8564453125 C 71.6289291381836 130.69879150390625 72.68827819824219 129.7255401611328 73.41798400878906 128.6088409423828 C 74.05056762695312 127.14628601074219 74.4554214477539 125.3676986694336 74.80636596679688 123.24353790283203 C 75.96240997314453 120.46533966064453 75.55891418457031 117.68287658691406 74.55549621582031 114.46448516845703 C 71.40399932861328 112.83940124511719 68.74398040771484 111.2463150024414 65.52555847167969 109.87406921386719 C 62.55990982055664 108.27223205566406 60.31972885131836 106.34080505371094 58.76089859008789 104.17343139648438 C 57.88513946533203 101.72750091552734 59.9385871887207 99.12832641601562 59.18314743041992 95.29685974121094 C 58.701881408691406 91.47467803955078 59.6817741394043 88.29994201660156 60.553043365478516 88.35655212402344" stroke-width="0.0" fill="rgb(0, 169, 211)" opacity="1.0" stroke="rgb(137, 48, 94)" stroke-opacity="0.7159321" stroke-linecap="round" stroke-linejoin="round"/>
    <path d="M 58.5174446105957 197.9849090576172 C 59.53937530517578 197.86331176757812 60.552101135253906 197.87298583984375 61.531715393066406 198.290283203125 C 62.210880279541016 198.03492736816406 62.7292366027832 197.97494506835938 62.94668960571289 197.94090270996094 C 62.96222686767578 198.05274963378906 62.76526641845703 198.32127380371094 62.64078903198242 198.63668823242188 C 62.597347259521484 198.9293670654297 62.74827194213867 199.17190551757812 63.03841781616211 199.04367065429688 C 63.536556243896484 199.1055450439453 64.44822692871094 198.96791076660156 65.76396179199219 199.62100219726562 C 67.30022430419922 199.71336364746094 68.85761260986328 200.06747436523438 70.24807739257812 200.20864868164062 C 71.49040222167969 200.1671905517578 72.2837142944336 200.5666046142578 73.24396514892578 201.16159057617188 C 72.96692657470703 201.40805053710938 72.43258666992188 201.4158477783203 71.73951721191406 201.34927368164062 C 71.1347427368164 201.46279907226562 70.89659881591797 201.4215545654297 71.11954498291016 201.44476318359375 C 72.19916534423828 201.3433837890625 73.86634063720703 201.19252014160156 75.87596893310547 201.51553344726562 C 77.9015884399414 201.9690704345703 79.74762725830078 202.13035583496094 81.38752746582031 202.07574462890625 C 82.49751281738281 201.76724243164062 83.43374633789062 201.46826171875 84.19989776611328 201.35337829589844 C 84.95110321044922 201.33485412597656 85.80805206298828 201.63449096679688 86.80379486083984 202.12985229492188 C 87.78181457519531 202.50546264648438 89.07434844970703 203.36329650878906 90.3162612915039 203.58905029296875 C 91.45929718017578 202.8369140625 92.04566192626953 202.84889221191406 92.1275863647461 202.6757354736328 C 91.8899154663086 202.3361053466797 91.35546112060547 202.0128173828125 90.84154510498047 201.8983917236328 C 90.56433868408203 202.10321044921875 90.72199249267578 202.4913330078125 91.36079406738281 203.02218627929688 C 92.41583251953125 203.4785919189453 93.76631927490234 203.82449340820312 95.22012329101562 204.0504608154297 C 96.79014587402344 204.15859985351562 98.38786315917969 204.18951416015625 99.82083129882812 204.19039916992188 C 101.0627670288086 204.12661743164062 102.25726318359375 204.1023712158203 103.38432312011719 204.15309143066406 C 104.34976959228516 204.17738342285156 105.18876647949219 204.16510009765625 105.9935073852539 204.1447296142578 C 106.78079986572266 204.09214782714844 107.58710479736328 204.0194549560547 108.53811645507812 203.99588012695312 C 109.63678741455078 204.02093505859375 110.82109069824219 204.0564727783203 112.1051025390625 204.09881591796875 C 113.57039642333984 204.1063690185547 115.21875 204.01690673828125 117.15917205810547 204.51119995117188 C 119.23625946044922 204.44320678710938 121.10592651367188 203.8555145263672 123.02758026123047 203.30368041992188 C 124.84033966064453 203.19158935546875 126.49295806884766 203.08889770507812 128.04615783691406 203.07131958007812 C 129.512939453125 203.13819885253906 130.90274047851562 203.16949462890625 132.3174285888672 203.19216918945312 C 133.82675170898438 203.1051025390625 135.3827362060547 203.0753936767578 137.06243896484375 202.9348602294922 C 138.82960510253906 202.6905975341797 140.59596252441406 202.53402709960938 142.44346618652344 202.4053192138672 C 144.15557861328125 202.3042449951172 145.75448608398438 202.1472625732422 147.19497680664062 201.98802185058594 C 148.59051513671875 201.7171630859375 150.1721649169922 201.46798706054688 151.88320922851562 201.2449951171875 C 153.85340881347656 201.12869262695312 155.7452392578125 201.11373901367188 157.43106079101562 201.49639892578125 C 158.54238891601562 200.84970092773438 159.25975036621094 200.46630859375 159.73611450195312 200.03518676757812 C 159.87986755371094 199.33349609375 160.18479919433594 199.3349151611328 160.99517822265625 200.39883422851562 C 162.36668395996094 202.97499084472656 163.9223175048828 206.78759765625 165.59764099121094 211.10153198242188 C 167.1444091796875 215.25758361816406 168.23681640625 218.72564697265625 168.71400451660156 221.4270477294922 C 168.21810913085938 222.9741668701172 167.07269287109375 223.97064208984375 164.8389434814453 225.01869201660156 C 161.77049255371094 225.8457489013672 158.02093505859375 226.19122314453125 153.23594665527344 225.503662109375 C 149.35447692871094 223.87109375 145.95130920410156 221.86331176757812 143.56700134277344 220.4073486328125 C 143.1165313720703 219.4593505859375 143.76231384277344 220.0564422607422 144.80810546875 221.32542419433594 C 144.76707458496094 222.22869873046875 143.5260467529297 222.3789520263672 141.16757202148438 222.3871612548828 C 137.823974609375 222.5031280517578 134.27906799316406 222.55711364746094 131.3673095703125 221.9604034423828 C 129.79986572265625 221.12249755859375 129.3177947998047 220.51602172851562 129.2120361328125 220.43026733398438 C 128.5225372314453 221.13034057617188 127.09790802001953 221.96534729003906 124.79890441894531 222.49905395507812 C 120.70235443115234 222.73622131347656 117.17256927490234 223.14894104003906 113.57266235351562 223.53240966796875 C 110.26055908203125 223.7459259033203 107.49349975585938 223.51812744140625 105.54862213134766 222.8179473876953 C 104.28924560546875 221.89480590820312 103.5005874633789 220.99085998535156 102.9107437133789 220.33511352539062 C 102.24585723876953 220.22891235351562 101.40250396728516 220.614501953125 100.11410522460938 221.33763122558594 C 98.01365661621094 222.03009033203125 95.2509536743164 222.58792114257812 91.66400146484375 223.02183532714844 C 88.19916534423828 223.02938842773438 84.25678253173828 222.9771270751953 81.62834167480469 223.0122528076172 C 79.74254608154297 224.85595703125 78.03604888916016 225.31597900390625 76.84929656982422 225.85289001464844 C 76.05046844482422 227.06643676757812 75.16064453125 227.9483184814453 73.61107635498047 228.1334228515625 C 72.04779815673828 227.52073669433594 70.10372161865234 226.32461547851562 67.98470306396484 224.71432495117188 C 65.78388214111328 222.70021057128906 63.423851013183594 221.1450653076172 60.84046936035156 220.33651733398438 C 57.606414794921875 219.8155975341797 54.91199493408203 218.9866180419922 53.342620849609375 217.07669067382812 C 51.99794387817383 214.96725463867188 51.51243591308594 212.503173828125 49.36946487426758 210.1404266357422 C 46.23113250732422 207.6260986328125 47.57381057739258 206.74172973632812 52.06981658935547 208.00836181640625 C 55.64174270629883 206.5341339111328 51.67436218261719 201.5859375 52.27952194213867 200.60977172851562 C 57.63094711303711 203.85992431640625 56.1317138671875 200.88009643554688 57.268157958984375 198.31961059570312 C 58.954383850097656 197.7911376953125 59.92983627319336 197.13272094726562 58.5174446105957 197.9849090576172" stroke-width="0.0" fill="rgb(0, 84, 211)" opacity="1.0" stroke="rgb(111, 148, 228)" stroke-opacity="0.94932014" stroke-linecap="round" stroke-linejoin="round"/>
    <path d="M 79.05646514892578 113.22256469726562 C 80.18901062011719 118.29737854003906 81.16156005859375 119.61316680908203 80.9483871459961 121.40377044677734 C 81.54395294189453 123.39744567871094 81.47172546386719 125.17900085449219 81.37068939208984 127.52835845947266 C 81.11054229736328 128.79335021972656 80.97187042236328 130.09690856933594 80.66769409179688 131.351806640625 C 80.43565368652344 132.38351440429688 80.00022888183594 133.09243774414062 79.92317199707031 133.76507568359375 C 79.49832916259766 134.63035583496094 79.09429931640625 135.58831787109375 78.48483276367188 136.74192810058594 C 77.56777954101562 138.00518798828125 76.55303192138672 139.2240753173828 75.53433990478516 140.4167022705078 C 74.72663879394531 141.37220764160156 74.11653137207031 142.14273071289062 73.74153137207031 142.76480102539062 C 73.4410629272461 143.24246215820312 73.01398468017578 143.66554260253906 72.26363372802734 144.32711791992188 C 71.13448333740234 145.21324157714844 69.50274658203125 146.40966796875 67.55586242675781 147.69825744628906 C 65.5003890991211 148.9896697998047 63.54227066040039 150.0905303955078 61.91144561767578 150.861328125 C 60.866661071777344 151.1792755126953 60.27661895751953 151.14791870117188 60.039180755615234 151.0639190673828 C 59.855804443359375 151.11923217773438 59.61035919189453 151.1732635498047 59.23627471923828 151.3406524658203 C 58.530670166015625 151.56292724609375 57.71415710449219 151.6570281982422 56.700321197509766 151.69407653808594 C 56.719242095947266 152.3596649169922 56.330081939697266 152.6297149658203 55.94195556640625 152.5286102294922 C 55.435176849365234 152.19277954101562 54.832672119140625 151.78945922851562 54.0679931640625 151.747314453125 C 53.23978042602539 152.14828491210938 52.50336456298828 152.94110107421875 51.95229721069336 154.10903930664062 C 51.70163345336914 155.41209411621094 51.60921096801758 156.84007263183594 51.662803649902344 158.3164520263672 C 51.68930435180664 159.7055206298828 51.685951232910156 161.0685577392578 51.68655014038086 162.3428192138672 C 51.67490768432617 163.5223388671875 51.6170768737793 164.7240447998047 51.535526275634766 165.89834594726562 C 51.5144157409668 167.02169799804688 51.5250244140625 167.9651336669922 51.55111312866211 168.6913299560547 C 51.513370513916016 169.25624084472656 51.34453201293945 169.6889190673828 51.162479400634766 170.0935821533203 C 51.04396057128906 170.4334259033203 50.87999725341797 170.80551147460938 50.84661102294922 171.47970581054688 C 50.90609359741211 172.62274169921875 50.94356155395508 174.15838623046875 50.93244171142578 176.0216827392578 C 50.90128707885742 178.06805419921875 50.82501220703125 180.200439453125 50.5514030456543 182.22691345214844 C 50.03266143798828 183.7317352294922 49.291866302490234 184.67022705078125 48.18317794799805 185.05230712890625 C 46.83452224731445 184.88302612304688 45.887935638427734 184.6804656982422 45.071861267089844 184.4903106689453 C 44.5653076171875 184.34210205078125 44.19050598144531 184.2149658203125 43.78472900390625 183.98704528808594 C 43.11277389526367 183.72998046875 42.08993911743164 183.50469970703125 40.68503952026367 183.22422790527344 C 38.79999923706055 182.62098693847656 36.79573440551758 181.79324340820312 34.87691879272461 180.9183807373047 C 33.3546028137207 180.1780548095703 32.25138854980469 179.5237579345703 31.482948303222656 179.02085876464844 C 30.85321044921875 178.7456512451172 30.086027145385742 178.481201171875 29.19654655456543 178.08468627929688 C 28.151460647583008 177.39198303222656 27.099964141845703 176.39947509765625 25.406574249267578 175.64712524414062 C 25.025333404541016 173.9493408203125 25.47321891784668 172.36566162109375 25.96818733215332 170.87014770507812 C 26.311826705932617 169.8079376220703 26.560428619384766 169.06912231445312 26.7176513671875 168.7526092529297 C 26.692829132080078 168.84580993652344 26.53654670715332 169.12672424316406 26.542783737182617 169.21864318847656 C 26.661170959472656 168.95578002929688 26.983318328857422 167.97984313964844 27.322175979614258 166.41893005371094 C 27.29800796508789 164.5448760986328 27.260021209716797 162.30490112304688 27.336729049682617 160.2651824951172 C 27.897016525268555 158.55882263183594 27.520471572875977 156.99472045898438 26.966754913330078 155.73805236816406 C 26.405736923217773 154.6455078125 26.50972557067871 153.6237335205078 27.5143985748291 152.47132873535156 C 28.16147804260254 151.3063507080078 28.643632888793945 149.95899963378906 29.066999435424805 148.70367431640625 C 29.35833168029785 148.05490112304688 29.11542510986328 147.51246643066406 28.716001510620117 147.30111694335938 C 28.37442970275879 147.50927734375 28.351438522338867 147.8423614501953 28.713970184326172 148.0391387939453 C 29.42048454284668 147.98594665527344 30.2911319732666 147.87457275390625 31.256954193115234 147.48086547851562 C 32.075016021728516 146.90887451171875 32.80171203613281 146.2378692626953 33.23787307739258 145.4168701171875 C 33.60603713989258 144.52166748046875 34.07232666015625 143.27920532226562 34.875797271728516 141.79522705078125 C 36.18546676635742 140.05482482910156 38.79066467285156 138.86557006835938 41.30301284790039 137.22174072265625 C 43.61255645751953 135.66128540039062 45.894508361816406 134.35850524902344 47.74930191040039 133.45008850097656 C 48.17819595336914 131.8328094482422 47.793663024902344 131.49017333984375 46.9793586730957 129.53497314453125 C 46.825096130371094 128.0900421142578 45.73720169067383 127.26521301269531 48.28402328491211 127.08232116699219 C 50.260433197021484 129.3811492919922 49.98781204223633 130.58824157714844 49.57866287231445 130.91006469726562 C 49.43680953979492 129.2379913330078 48.87014389038086 127.72067260742188 48.45172119140625 126.32559967041016 C 50.121551513671875 126.17338562011719 51.42497253417969 126.3301773071289 55.9986572265625 124.75792694091797 C 57.76448440551758 124.67642974853516 58.45636749267578 126.08381652832031 58.524131774902344 129.0554962158203 C 55.663063049316406 133.5677947998047 54.93265151977539 135.5006866455078 54.41886520385742 137.55650329589844 C 55.15441131591797 137.81576538085938 56.683067321777344 137.4459228515625 54.55147933959961 135.7849884033203 C 54.685951232910156 135.58428955078125 55.448516845703125 133.81283569335938 55.88471221923828 131.701416015625 C 58.752044677734375 131.26222229003906 59.6214599609375 129.16619873046875 60.705169677734375 127.49177551269531 C 62.67533493041992 126.39036560058594 64.12109375 124.86981964111328 65.96409606933594 123.27066040039062 C 68.9989242553711 123.20175170898438 70.83906555175781 121.41728973388672 71.54961395263672 118.28749084472656 C 74.4045181274414 116.1096420288086 76.37019348144531 112.92346954345703 79.05646514892578 113.22256469726562" stroke-width="0.0" fill="rgb(89, 159, 43)" opacity="1.0" stroke="rgb(250, 125, 8)" stroke-opacity="0.95793885" stroke-linecap="round" stroke-linejoin="round"/>
    <path d="M 75.83912658691406 9.503722190856934 C 76.54243469238281 9.19408130645752 77.34170532226562 9.163263320922852 77.87567901611328 9.269279479980469 C 77.99272155761719 9.485818862915039 77.94563293457031 9.453068733215332 78.02017211914062 9.075358390808105 C 78.55809783935547 8.84897518157959 79.99809265136719 8.420238494873047 82.158935546875 8.010622024536133 C 84.76980590820312 6.097991466522217 86.67090606689453 6.714106559753418 87.17561340332031 10.685296058654785 C 88.15555572509766 14.443571090698242 88.42973327636719 18.459754943847656 87.07157135009766 20.997852325439453 C 83.57294464111328 20.43924903869629 81.17460632324219 21.06161117553711 79.87230682373047 21.24970245361328 C 80.1733627319336 21.079683303833008 82.11978912353516 20.864486694335938 85.13227081298828 20.751117706298828 C 88.29240417480469 20.82289695739746 91.2983627319336 21.44346046447754 93.84014129638672 20.908523559570312 C 94.49108123779297 21.938232421875 94.78646087646484 22.35588836669922 94.47299194335938 21.837862014770508 C 93.68755340576172 21.203044891357422 94.21825408935547 20.563671112060547 96.26411437988281 19.99981689453125 C 99.3484878540039 20.213735580444336 102.50093078613281 20.139060974121094 106.52188110351562 19.045448303222656 C 107.22844696044922 20.571792602539062 107.07247924804688 22.76513671875 106.84819030761719 24.49195671081543 C 107.05699157714844 25.881847381591797 106.83321380615234 26.38924789428711 106.81108093261719 25.701242446899414 C 107.17286682128906 23.687973022460938 106.58694458007812 20.876493453979492 107.43179321289062 19.06913185119629 C 111.46556091308594 18.918745040893555 115.45645904541016 19.108976364135742 119.6533203125 18.9992733001709 C 121.82439422607422 20.241455078125 122.9286117553711 20.908403396606445 124.2032699584961 20.375234603881836 C 127.33557891845703 20.190393447875977 130.9261932373047 19.2820987701416 131.37152099609375 21.20469093322754 C 130.14808654785156 26.078413009643555 132.92007446289062 30.121816635131836 137.24009704589844 30.589900970458984 C 144.38970947265625 31.37662124633789 147.92697143554688 30.537246704101562 149.25875854492188 26.944612503051758 C 151.525146484375 24.233478546142578 154.45669555664062 26.111221313476562 158.2105712890625 27.16284942626953 C 162.05284118652344 28.46233367919922 164.86013793945312 29.75313377380371 167.8343505859375 28.952449798583984 C 169.76234436035156 26.041919708251953 171.03851318359375 21.917940139770508 173.0409698486328 17.88835906982422 C 174.273193359375 14.274287223815918 177.72059631347656 14.383119583129883 180.87351989746094 15.519859313964844 C 181.95298767089844 18.329174041748047 180.34996032714844 22.068960189819336 181.00111389160156 26.196800231933594 C 180.7967071533203 28.290693283081055 179.4415283203125 28.112394332885742 180.15553283691406 27.802095413208008 C 181.29202270507812 30.817596435546875 179.83668518066406 35.58928298950195 179.82606506347656 42.34648895263672 C 180.00320434570312 49.51112747192383 179.09957885742188 55.39014434814453 175.95361328125 55.773773193359375 C 169.38031005859375 45.89795684814453 156.09146118164062 33.595428466796875 137.1997833251953 21.11849021911621 C 110.97156524658203 23.093170166015625 103.53294372558594 38.3900032043457 103.95665740966797 81.98804473876953 C 125.26944732666016 99.06843566894531 139.4669647216797 95.66487884521484 153.21470642089844 88.17141723632812 C 165.52279663085938 83.74854278564453 170.44129943847656 74.67709350585938 175.765625 73.05268096923828 C 177.20724487304688 81.5147705078125 174.68325805664062 88.27137756347656 173.8365478515625 95.67108917236328 C 174.74696350097656 98.05364990234375 169.90771484375 98.0938491821289 166.2769775390625 98.8654556274414 C 162.62393188476562 99.62406921386719 159.37307739257812 99.93563079833984 156.90939331054688 100.82636260986328 C 154.88461303710938 101.2797622680664 154.4451141357422 100.76689147949219 154.68272399902344 100.18384552001953 C 154.9918212890625 100.77568054199219 154.44700622558594 101.10446166992188 152.45095825195312 100.96221160888672 C 149.9019012451172 102.05162048339844 146.39764404296875 102.03508758544922 142.6094512939453 101.98096466064453 C 139.01695251464844 103.11673736572266 135.37461853027344 102.87672424316406 131.7154998779297 103.01542663574219 C 127.86881256103516 103.51622772216797 124.02808380126953 103.1908187866211 120.6461181640625 102.72114562988281 C 118.91355895996094 101.4275131225586 119.08855438232422 100.78301239013672 119.48064422607422 101.57279968261719 C 119.47318267822266 104.06957244873047 117.39696502685547 102.72701263427734 113.90631866455078 101.85403442382812 C 109.13229370117188 102.52920532226562 105.26852416992188 100.6397476196289 100.29867553710938 100.5914306640625 C 98.7468490600586 99.14208221435547 98.96006774902344 97.59465026855469 99.7678451538086 96.58450317382812 C 99.3622817993164 97.98445129394531 99.47943115234375 100.55451202392578 91.70298767089844 98.7162094116211 C 89.29178619384766 96.92477416992188 87.37963104248047 93.06280517578125 88.22828674316406 90.22080993652344 C 87.48279571533203 88.76996612548828 86.21977233886719 87.68233489990234 85.121337890625 87.73524475097656 C 83.46573638916016 90.03963470458984 80.8147964477539 93.19803619384766 78.36894989013672 94.96292114257812 C 71.32347106933594 91.76211547851562 64.6999282836914 90.51215362548828 61.62269973754883 86.54576110839844 C 61.881404876708984 79.94921112060547 63.08246612548828 74.51212310791016 65.35944366455078 70.43630981445312 C 67.17676544189453 68.61052703857422 67.95333862304688 68.45746612548828 66.71054077148438 69.1500244140625 C 65.95314025878906 65.31444549560547 64.51432800292969 61.01141357421875 63.961219787597656 55.433109283447266 C 66.02914428710938 52.56787872314453 69.50234985351562 52.66471481323242 73.2562255859375 54.23680114746094 C 75.33123016357422 53.79410934448242 76.15852355957031 53.969627380371094 75.84107971191406 53.8622932434082 C 74.40677642822266 54.20411682128906 72.29620361328125 53.9797248840332 69.56285095214844 53.29533004760742 C 67.75679016113281 53.456119537353516 67.90017700195312 49.17826843261719 67.66021728515625 44.477420806884766 C 67.21973419189453 39.41415023803711 66.88629913330078 34.389957427978516 67.79634094238281 29.58698844909668 C 68.68303680419922 25.957117080688477 70.8891372680664 22.87180519104004 72.56704711914062 18.779529571533203 C 73.28770446777344 14.726035118103027 74.56344604492188 10.10228157043457 76.23673248291016 6.5086989402771 C 77.49112701416016 3.5120646953582764 79.34611511230469 2.8075828552246094 82.88731384277344 2.8155651092529297 C 86.22560119628906 4.14613676071167 90.1852035522461 6.539214134216309 75.83912658691406 9.503722190856934" stroke-width="0.0" fill="rgb(254, 254, 254)" opacity="0.9996458" stroke="rgb(129, 122, 9)" stroke-opacity="0.37318745" stroke-linecap="round" stroke-linejoin="round"/>
    <path d="M 57.191524505615234 208.1641082763672 C 63.81409454345703 209.71697998046875 69.78936004638672 210.94680786132812 74.64257049560547 211.95330810546875 C 78.14826202392578 212.71141052246094 80.33526611328125 213.2901611328125 81.3191146850586 213.9418487548828 C 81.35148620605469 214.85195922851562 80.67382049560547 215.98312377929688 79.5589370727539 217.31765747070312 C 78.30572509765625 218.71656799316406 77.11428833007812 220.00857543945312 76.08683776855469 221.12449645996094 C 75.37275695800781 221.88864135742188 74.86500549316406 222.15811157226562 74.58929443359375 221.76502990722656 C 74.47809600830078 220.9432373046875 74.54833221435547 220.11050415039062 74.89976501464844 219.4123992919922 C 75.61048889160156 219.12147521972656 76.71572875976562 219.28924560546875 78.14785766601562 220.00894165039062 C 79.79373931884766 221.23301696777344 80.81897735595703 222.7611083984375 81.79647827148438 224.24044799804688 C 82.50816345214844 226.1494903564453 83.17583465576172 228.23309326171875 83.9089126586914 230.30526733398438 C 83.97380828857422 231.68765258789062 84.33796691894531 232.4322967529297 84.6419677734375 233.4615936279297 C 85.0381851196289 234.72528076171875 85.07452392578125 236.08514404296875 85.12298583984375 236.51358032226562 C 85.02623748779297 236.30572509765625 85.31156921386719 236.52728271484375 85.4994125366211 237.8201904296875 C 86.14305877685547 239.7727508544922 85.76579284667969 242.22650146484375 86.40591430664062 243.95303344726562 C 86.71426391601562 245.57118225097656 86.82329559326172 246.0130157470703 86.84931945800781 245.8509063720703 C 86.67984008789062 245.18316650390625 86.62516784667969 245.729248046875 86.99404907226562 247.9407196044922 C 86.96009063720703 251.1434326171875 87.024169921875 254.5090789794922 87.71076965332031 258.0473937988281 C 87.53521728515625 259.541748046875 86.41071319580078 259.3618469238281 85.03056335449219 259.33056640625 C 84.89090728759766 259.3473815917969 85.98783874511719 259.458740234375 87.64091491699219 259.1605224609375 C 88.01632690429688 259.63641357421875 87.65914916992188 260.78448486328125 87.26251983642578 261.3155212402344 C 88.35585021972656 261.84539794921875 87.84759521484375 263.4393310546875 85.66313171386719 269.76092529296875 C 85.24732971191406 296.68792724609375 87.22525024414062 318.0621643066406 83.42691802978516 311.447998046875 C 83.94186401367188 279.8327941894531 82.89385223388672 267.62066650390625 83.53487396240234 267.4449157714844 C 83.07755279541016 269.2085266113281 83.33931732177734 269.4072570800781 84.80033874511719 269.17999267578125 C 85.54513549804688 269.3551025390625 84.43228912353516 268.9553527832031 81.83646392822266 269.5909423828125 C 77.65611267089844 271.914794921875 72.14375305175781 269.8626708984375 69.28253936767578 274.722900390625 C 71.0675277709961 283.7060546875 70.19729614257812 306.45452880859375 72.82412719726562 317.83197021484375 C 74.68773651123047 291.18975830078125 70.80359649658203 272.3165588378906 70.92147064208984 272.9668884277344 C 66.96332550048828 276.74090576171875 70.48094940185547 271.69085693359375 68.13697052001953 270.7693786621094 C 64.47421264648438 269.1042175292969 64.24705505371094 265.43505859375 64.24784851074219 262.61749267578125 C 65.21539306640625 261.90057373046875 66.01998138427734 261.8293762207031 66.21839141845703 261.8091735839844 C 65.7122802734375 261.8518371582031 65.09675598144531 262.0613098144531 64.5974349975586 262.3396911621094 C 64.211181640625 262.6585693359375 64.39234161376953 262.2159423828125 64.48893737792969 260.822509765625 C 64.58245086669922 258.6987609863281 64.61306762695312 256.5000305175781 64.53689575195312 254.9213409423828 C 65.4177474975586 254.2073516845703 66.90996551513672 253.85031127929688 67.34306335449219 253.65562438964844 C 66.51918029785156 253.79525756835938 65.40983581542969 254.5186004638672 64.5334243774414 254.7593231201172 C 64.54220581054688 252.76856994628906 64.62479400634766 249.36680603027344 63.97527313232422 246.47244262695312 C 64.13270568847656 245.94839477539062 64.23140716552734 247.31591796875 65.58612823486328 247.2412109375 C 68.22779846191406 247.03509521484375 69.48076629638672 246.56968688964844 69.691650390625 246.0879364013672 C 69.78839111328125 246.30039978027344 68.411865234375 247.27011108398438 64.58622741699219 247.2133331298828 C 63.34074783325195 244.8690643310547 64.76533508300781 239.24655151367188 62.833675384521484 233.5059051513672 C 64.0127944946289 231.97879028320312 65.7552261352539 231.4221649169922 67.20771789550781 230.63092041015625 C 67.69422149658203 230.65748596191406 65.70683288574219 230.88548278808594 63.076881408691406 233.15452575683594 C 62.542930603027344 232.0873260498047 62.40169143676758 228.6906280517578 60.46022415161133 225.0440673828125 C 59.214637756347656 223.50778198242188 60.20741653442383 223.69752502441406 61.796512603759766 225.38722229003906 C 62.75327682495117 225.54598999023438 63.028892517089844 225.4190673828125 62.613590240478516 225.45999145507812 C 61.8102912902832 225.41676330566406 60.94809341430664 225.24595642089844 60.69912338256836 225.141845703125 C 61.59882736206055 225.3099822998047 62.357330322265625 225.81301879882812 61.12742233276367 224.74142456054688 C 55.3936882019043 219.8866729736328 45.92909240722656 212.85665893554688 57.191524505615234 208.1641082763672" stroke-width="0.0" fill="rgb(0, 84, 211)" opacity="1.0" stroke="rgb(58, 14, 102)" stroke-opacity="0.18668409" stroke-linecap="round" stroke-linejoin="round"/>
    <path d="M 54.56151580810547 367.6073913574219 C 61.499942779541016 374.318603515625 67.76329040527344 372.508056640625 70.4005126953125 372.6248779296875 C 67.05377197265625 373.50250244140625 64.54347229003906 373.5909729003906 64.1343994140625 374.4684143066406 C 65.39850616455078 372.5856018066406 72.00911712646484 374.2534484863281 79.39994049072266 368.0953369140625 C 83.57452392578125 354.4385986328125 85.85005187988281 368.16864013671875 75.23886108398438 372.8674011230469 C 71.46955108642578 373.8172607421875 72.86141967773438 374.98944091796875 72.6735610961914 375.46435546875 C 72.55113983154297 377.3927307128906 72.87384796142578 378.78668212890625 73.14360046386719 380.26068115234375 C 74.09404754638672 382.1466064453125 77.62411499023438 383.8648376464844 80.75715637207031 385.4903564453125 C 81.62628173828125 386.2957458496094 80.97827911376953 385.4082336425781 79.86097717285156 385.0822448730469 C 81.26878356933594 385.9513244628906 84.74412536621094 387.56390380859375 87.68892669677734 389.3775634765625 C 87.83944702148438 390.1336669921875 87.10320281982422 388.9962158203125 85.959716796875 388.41180419921875 C 86.09510803222656 388.9864196777344 88.23334503173828 389.8320007324219 90.39354705810547 391.2430419921875 C 90.97065734863281 391.558349609375 90.3712158203125 391.5118103027344 89.36715698242188 390.7772216796875 C 88.89259338378906 389.16314697265625 88.3134994506836 389.0845031738281 89.67240905761719 390.8470764160156 C 94.20782470703125 393.9349060058594 96.50814056396484 397.3849792480469 95.91573333740234 398.8765869140625 C 94.29353332519531 401.17645263671875 93.60092163085938 402.3877868652344 93.29692840576172 402.2895202636719 C 92.18648529052734 404.0666809082031 89.68189239501953 405.6187744140625 85.52730560302734 406.0644836425781 C 84.05718231201172 409.79473876953125 84.40292358398438 413.3798522949219 85.71287536621094 415.05419921875 C 86.92926788330078 413.703857421875 87.07217407226562 410.267333984375 85.68978118896484 406.5088195800781 C 81.4391098022461 405.8403015136719 76.48162841796875 404.7353820800781 72.07611083984375 402.0028991699219 C 69.5294418334961 400.6924743652344 69.07648468017578 400.50714111328125 69.43592071533203 400.5426025390625 C 69.64342498779297 400.10699462890625 69.62693786621094 398.9358825683594 69.2041244506836 398.5238342285156 C 69.22946166992188 398.4931640625 69.9840087890625 399.5849609375 69.26348876953125 400.2958984375 C 67.65628051757812 399.7913513183594 66.92769622802734 398.6817932128906 67.440673828125 399.2164001464844 C 67.61990356445312 399.03948974609375 65.861572265625 398.4363708496094 64.1314697265625 397.00286865234375 C 63.316654205322266 396.3427734375 62.240055084228516 395.5287780761719 60.205101013183594 393.8968505859375 C 58.04363250732422 391.7737731933594 56.70122528076172 389.89654541015625 56.76788330078125 388.0871887207031 C 56.58280563354492 386.51324462890625 57.00233840942383 387.3386535644531 59.03911209106445 387.8980712890625 C 60.637550354003906 388.1906433105469 60.433433532714844 388.34466552734375 58.08794021606445 387.55609130859375 C 55.85159683227539 387.5257263183594 57.19538879394531 382.7799072265625 58.31119918823242 376.3260498046875 C 59.125064849853516 374.2845764160156 57.98217010498047 374.3861083984375 58.1237907409668 374.71124267578125 C 58.74622344970703 375.0238952636719 60.19509506225586 373.4226379394531 57.339237213134766 371.8156433105469 C 48.924285888671875 368.3811950683594 50.89139938354492 351.9267883300781 54.56151580810547 367.6073913574219" stroke-width="0.0" fill="rgb(0, 0, 0)" opacity="0.99991536" stroke="rgb(252, 162, 133)" stroke-opacity="0.44379368" stroke-linecap="round" stroke-linejoin="round"/>
    <path d="M 51.337867736816406 72.97342681884766 C 52.89769744873047 72.99681854248047 53.91537857055664 73.42991638183594 54.37358856201172 73.64193725585938 C 54.24012756347656 73.63465881347656 53.59584045410156 73.44971466064453 52.7729606628418 73.27020263671875 C 52.50933074951172 72.85845947265625 52.87300109863281 72.96340942382812 54.19231414794922 73.35985565185547 C 56.385833740234375 73.96117401123047 59.23664093017578 73.7430419921875 61.04013442993164 74.97836303710938 C 62.451133728027344 74.87287902832031 62.86858367919922 75.48197174072266 62.68928909301758 73.66950225830078 C 64.07926940917969 62.21881866455078 66.145751953125 38.58512878417969 72.6424560546875 6.941484451293945 C 80.04291534423828 -3.845088481903076 73.35250091552734 9.684345245361328 69.72837829589844 38.02259826660156 C 66.8446044921875 58.93227005004883 65.04817199707031 71.90699005126953 64.94525146484375 78.21745300292969 C 63.49531936645508 81.19910430908203 64.20433807373047 84.14163208007812 63.9931755065918 86.8337631225586 C 64.0460433959961 87.76737976074219 63.97032928466797 87.88970947265625 64.0128173828125 87.69445037841797 C 64.05274200439453 87.43025970458984 63.982582092285156 86.99292755126953 64.0721664428711 86.6304931640625 C 64.15982818603516 86.592529296875 63.880672454833984 87.59568786621094 64.0196533203125 89.31729125976562 C 64.22174072265625 89.83149719238281 63.140281677246094 89.68225860595703 61.34552764892578 89.21045684814453 C 61.5362663269043 90.33293151855469 61.54845428466797 92.10968780517578 61.3316650390625 93.69254302978516 C 61.8994255065918 95.23060607910156 61.13834762573242 95.6806640625 60.53157043457031 93.74854278564453 C 60.110958099365234 91.5159912109375 60.70810317993164 91.80622100830078 62.47696304321289 94.61506652832031 C 66.58211517333984 96.70541381835938 68.66261291503906 100.47390747070312 71.5854263305664 101.85560607910156 C 71.39799499511719 102.74295043945312 70.3179702758789 102.94676971435547 69.1290283203125 103.27310180664062 C 69.32001495361328 103.37345123291016 70.34676361083984 102.73084259033203 71.53345489501953 102.48530578613281 C 72.82857513427734 104.08026123046875 74.59286499023438 105.00126647949219 74.66307067871094 106.4261245727539 C 73.39855194091797 108.31165313720703 71.94730377197266 109.4020004272461 71.92853546142578 109.68073272705078 C 72.94776916503906 108.56381225585938 73.98662567138672 106.75752258300781 75.58429718017578 107.41545867919922 C 77.69891357421875 110.96196746826172 78.02327728271484 117.56901550292969 79.91960144042969 123.60140228271484 C 75.18949890136719 124.70850372314453 70.32234191894531 125.71516418457031 67.45562744140625 124.3307113647461 C 71.69609069824219 120.36467742919922 73.26506042480469 115.64981079101562 72.53115844726562 111.11454772949219 C 71.7989501953125 109.40034484863281 71.87171173095703 109.13520050048828 71.9614028930664 109.54096221923828 C 72.03926086425781 109.8594970703125 71.8332748413086 109.60942077636719 71.3919677734375 109.07611846923828 C 70.69847106933594 108.49931335449219 69.8226318359375 108.2057113647461 68.7496566772461 108.02823638916016 C 67.73810577392578 107.71498107910156 66.64431762695312 107.1861572265625 65.40656280517578 106.41150665283203 C 64.08312225341797 105.31604766845703 62.51544189453125 104.08106994628906 62.235389709472656 102.13579559326172 C 61.7559814453125 99.90655517578125 61.98466110229492 97.52764129638672 62.48337936401367 95.65296936035156 C 63.507450103759766 95.583251953125 64.4603271484375 95.68098449707031 64.89210510253906 95.61078643798828 C 64.74952697753906 95.31805419921875 64.24594116210938 95.35336303710938 63.62294387817383 95.19156646728516 C 63.38335037231445 94.27840423583984 63.12138366699219 94.2568359375 62.62583923339844 95.12516021728516 C 61.9704704284668 97.42086029052734 61.55756378173828 100.47807312011719 62.604217529296875 103.4025650024414 C 64.18736267089844 106.0427017211914 66.65030670166016 107.43013763427734 69.2769775390625 108.14356994628906 C 71.67051696777344 108.50993347167969 72.66426086425781 110.03948974609375 72.76934051513672 113.38626861572266 C 72.26313781738281 117.53945922851562 71.31971740722656 122.61973571777344 67.17610931396484 122.93578338623047 C 62.343467712402344 124.53263092041016 59.46670150756836 129.9785919189453 56.4453239440918 133.80941772460938 C 53.62021255493164 133.3389892578125 50.05516052246094 129.9687957763672 46.50574493408203 127.2589111328125 C 49.688087463378906 127.31355285644531 53.705928802490234 127.9494857788086 56.49360656738281 126.08796691894531 C 57.387962341308594 123.9288330078125 56.64919662475586 122.30121612548828 56.07319641113281 122.29849243164062 C 58.45225143432617 124.91345977783203 59.31303787231445 129.67257690429688 58.385101318359375 134.8437042236328 C 54.81299591064453 134.484619140625 48.94802474975586 129.00404357910156 41.39204025268555 123.17460632324219 C 32.577537536621094 129.38595581054688 18.803186416625977 139.09854125976562 8.837651252746582 151.4678192138672 C 4.320807933807373 158.09368896484375 4.457249641418457 158.22128295898438 4.966475009918213 157.3177947998047 C 3.289416790008545 162.69223022460938 0.5970618724822998 166.87979125976562 0.7332442998886108 161.4432830810547 C 7.741440296173096 152.197021484375 3.3952271938323975 143.8148193359375 -1.9710683822631836 142.3988037109375 C -4.444058418273926 144.26510620117188 -2.326183319091797 145.2315216064453 2.36283016204834 144.0337677001953 C 1.290753960609436 134.22926330566406 1.7659852504730225 123.68704986572266 5.047980785369873 114.63646697998047 C 6.369228363037109 109.9552230834961 7.318028450012207 109.17575073242188 7.039612770080566 109.44142150878906 C 6.680027008056641 109.35701751708984 7.323552131652832 108.73870849609375 8.375475883483887 106.14600372314453 C 10.636850357055664 101.50553894042969 13.75514030456543 96.0971450805664 17.067428588867188 92.12779235839844 C 18.26654624938965 91.12275695800781 18.210105895996094 91.56538391113281 17.74857521057129 91.39103698730469 C 18.73351287841797 90.02313232421875 20.768993377685547 87.398193359375 23.933401107788086 84.64991760253906 C 27.42711067199707 81.9835433959961 29.870132446289062 79.78583526611328 31.138145446777344 79.47431945800781 C 29.942914962768555 80.55204010009766 29.44586181640625 82.59491729736328 29.713899612426758 83.80510711669922 C 29.38813591003418 81.24146270751953 30.503480911254883 78.76787567138672 35.233680725097656 77.05097198486328 C 39.63031768798828 74.75150299072266 43.41788101196289 73.79354095458984 46.00532913208008 73.73676300048828 C 47.62098693847656 73.25347900390625 48.58802032470703 72.9482650756836 51.337867736816406 72.97342681884766" stroke-width="0.0" fill="rgb(140, 210, 94)" opacity="1.0" stroke="rgb(14, 0, 220)" stroke-opacity="0.16717978" stroke-linecap="round" stroke-linejoin="round"/>
    <path d="M 144.96261596679688 213.45289611816406 C 148.78128051757812 213.89764404296875 152.21412658691406 214.38987731933594 155.0330810546875 214.83544921875 C 157.0615234375 215.15660095214844 158.39210510253906 215.4268798828125 159.02325439453125 215.65196228027344 C 159.0032958984375 215.7801055908203 158.5869598388672 215.67588806152344 157.92611694335938 215.26112365722656 C 157.43521118164062 214.59796142578125 157.36781311035156 213.8640594482422 157.94631958007812 213.3336944580078 C 159.394287109375 213.36500549316406 161.68128967285156 214.11415100097656 164.5454559326172 215.654296875 C 167.25775146484375 217.903076171875 169.1405792236328 220.56378173828125 169.13674926757812 222.9081268310547 C 169.440185546875 223.48013305664062 169.52914428710938 223.54966735839844 169.7720184326172 224.29969787597656 C 169.9846954345703 226.28382873535156 171.1268310546875 228.018798828125 171.05709838867188 229.72918701171875 C 171.46034240722656 231.21871948242188 171.9706573486328 231.8721466064453 172.00375366210938 231.70225524902344 C 172.07814025878906 231.3695068359375 172.0277557373047 231.71148681640625 171.9739532470703 233.55136108398438 C 172.71112060546875 234.92672729492188 172.95655822753906 236.91281127929688 173.35311889648438 238.76451110839844 C 174.0818328857422 240.1212615966797 174.02325439453125 241.00167846679688 173.98037719726562 241.7581329345703 C 173.99468994140625 242.3869171142578 174.0636444091797 242.43194580078125 173.98411560058594 242.69993591308594 C 174.4317626953125 243.76535034179688 175.2552490234375 245.18600463867188 174.99468994140625 246.9308319091797 C 174.89144897460938 248.2515411376953 175.57997131347656 249.41265869140625 176.0245819091797 250.89849853515625 C 175.94639587402344 252.5635223388672 176.0390625 253.33477783203125 176.20497131347656 253.06173706054688 C 176.0390625 253.74696350097656 174.3563232421875 255.70880126953125 172.2528839111328 256.7992248535156 C 171.76931762695312 257.5477600097656 172.7790069580078 256.6463623046875 173.93820190429688 255.6871337890625 C 174.94322204589844 258.1640625 175.27435302734375 257.94049072265625 172.82814025878906 256.4050598144531 C 171.2017822265625 257.833984375 174.75137329101562 272.27655029296875 175.02987670898438 302.1303405761719 C 174.40365600585938 328.4311218261719 179.80874633789062 312.07470703125 175.5316162109375 271.6695556640625 C 174.13218688964844 255.47396850585938 176.18075561523438 255.3231658935547 168.00222778320312 257.97186279296875 C 161.62767028808594 258.5117492675781 156.60374450683594 256.4732666015625 156.4294891357422 255.4221954345703 C 160.3209686279297 265.01324462890625 162.799560546875 287.20819091796875 162.55889892578125 318.9320068359375 C 167.8121795654297 304.7429504394531 162.78955078125 273.8200378417969 159.87319946289062 257.8041687011719 C 156.38807678222656 255.27935791015625 154.9906768798828 255.9395751953125 155.63015747070312 256.16290283203125 C 155.94906616210938 255.3943328857422 155.8421630859375 253.55479431152344 155.2329559326172 249.70834350585938 C 154.92601013183594 245.38739013671875 154.80259704589844 242.6290740966797 155.3024139404297 243.27984619140625 C 157.66896057128906 244.45010375976562 159.12193298339844 244.23330688476562 159.22755432128906 244.0544891357422 C 158.47335815429688 244.35374450683594 157.08013916015625 244.08786010742188 155.06808471679688 243.18006896972656 C 153.8395233154297 240.14337158203125 153.8114776611328 238.2512969970703 154.0409698486328 237.62660217285156 C 154.4393310546875 238.32504272460938 154.0838623046875 237.70391845703125 153.0002899169922 235.73402404785156 C 152.86155700683594 232.6379852294922 153.2702178955078 230.46018981933594 153.22244262695312 229.8897705078125 C 153.14199829101562 231.12646484375 153.1494140625 233.12754821777344 152.56910705566406 234.0162811279297 C 152.3202667236328 232.95709228515625 151.70082092285156 230.3429412841797 150.0543975830078 227.55299377441406 C 149.9021759033203 225.72225952148438 147.7525634765625 225.27830505371094 144.96261596679688 213.45289611816406" stroke-width="0.0" fill="rgb(0, 84, 211)" opacity="1.0" stroke="rgb(94, 58, 49)" stroke-opacity="0.8766891" stroke-linecap="round" stroke-linejoin="round"/>
    <path d="M 142.8270263671875 350.2095947265625 C 141.98924255371094 362.2590637207031 146.7958984375 364.6719665527344 154.29702758789062 367.618896484375 C 156.0853271484375 368.26788330078125 155.52732849121094 368.0061950683594 154.74424743652344 368.08099365234375 C 154.22500610351562 368.1647644042969 152.6404266357422 368.1503601074219 153.2232666015625 368.1807861328125 C 162.05287170410156 367.28594970703125 167.38580322265625 370.80511474609375 171.8970947265625 366.28900146484375 C 178.43765258789062 354.4436340332031 175.559814453125 361.3426513671875 162.05288696289062 370.6917419433594 C 161.98011779785156 372.8778381347656 164.46592712402344 373.2537536621094 164.4971160888672 373.72479248046875 C 164.59962463378906 373.97705078125 168.15011596679688 374.9617004394531 172.73196411132812 377.498291015625 C 174.83059692382812 379.4810485839844 173.87330627441406 379.0643615722656 172.6299591064453 375.6400451660156 C 172.68508911132812 374.0887145996094 172.68792724609375 374.1759948730469 172.6561737060547 375.19091796875 C 172.8317413330078 377.95172119140625 175.1951141357422 379.4434509277344 176.3319854736328 380.0179748535156 C 175.84771728515625 380.4806823730469 177.23825073242188 380.5075378417969 178.2146759033203 383.28900146484375 C 179.6688995361328 385.1043395996094 178.64930725097656 387.9012451171875 175.35116577148438 390.0671081542969 C 172.19546508789062 391.6824035644531 170.81317138671875 391.3976745605469 171.22154235839844 391.537841796875 C 170.3118133544922 392.0911865234375 168.11585998535156 392.23541259765625 165.34197998046875 391.0365295410156 C 163.2148895263672 390.9668884277344 163.51705932617188 390.7169494628906 164.1473388671875 390.85107421875 C 163.0208740234375 390.727783203125 160.31321716308594 389.3024597167969 158.10401916503906 388.5984191894531 C 157.95126342773438 388.0049133300781 157.73316955566406 387.8605041503906 156.66424560546875 387.9950866699219 C 155.93345642089844 387.1589050292969 155.89895629882812 386.8404846191406 156.42669677734375 386.76226806640625 C 156.0107879638672 386.9610290527344 155.89414978027344 387.06573486328125 155.019287109375 387.0752868652344 C 152.83197021484375 385.8166198730469 148.94381713867188 383.7177734375 145.7338409423828 381.6043395996094 C 145.1256561279297 381.43707275390625 145.13499450683594 381.3642578125 145.26333618164062 381.3520202636719 C 145.8798065185547 381.7983703613281 145.65235900878906 381.4359436035156 144.40365600585938 380.8097839355469 C 143.57228088378906 379.5923767089844 141.03623962402344 379.04107666015625 140.8783416748047 376.55889892578125 C 142.5275115966797 371.03912353515625 144.95809936523438 368.0719909667969 145.41127014160156 367.21466064453125 C 145.710205078125 366.77703857421875 145.498291015625 367.02947998046875 145.0498809814453 367.5594177246094 C 144.77684020996094 367.83380126953125 145.0516357421875 367.3178405761719 145.966552734375 366.6128234863281 C 147.962646484375 364.0835876464844 137.38946533203125 363.09173583984375 142.8270263671875 350.2095947265625" stroke-width="0.0" fill="rgb(0, 0, 0)" opacity="0.99991834" stroke="rgb(238, 160, 3)" stroke-opacity="0.55101615" stroke-linecap="round" stroke-linejoin="round"/>
    <path d="M 29.576030731201172 145.12738037109375 C 35.58177185058594 140.6610107421875 39.02738571166992 138.5945587158203 40.913230895996094 140.03790283203125 C 41.232460021972656 144.39059448242188 40.300254821777344 148.93724060058594 38.83637237548828 153.21820068359375 C 37.47858810424805 156.47633361816406 36.48870849609375 158.50491333007812 36.01541519165039 159.57730102539062 C 36.100887298583984 159.86940002441406 36.46299362182617 159.68931579589844 36.90867614746094 159.6143035888672 C 37.24884796142578 160.03665161132812 37.10860061645508 160.90260314941406 36.28362274169922 162.5919647216797 C 35.32798385620117 165.34033203125 35.571041107177734 168.83180236816406 37.69108200073242 172.5249786376953 C 41.65912628173828 176.97586059570312 46.732521057128906 181.0362091064453 50.33561706542969 184.33912658691406 C 51.66035461425781 186.59552001953125 48.43848419189453 186.04214477539062 40.85658645629883 183.63134765625 C 30.60688591003418 180.58657836914062 21.7037353515625 175.06845092773438 15.582005500793457 169.1282196044922 C 13.696818351745605 167.10269165039062 14.61061954498291 167.1811065673828 14.696133613586426 167.07275390625 C 13.286624908447266 167.55027770996094 12.934300422668457 173.71185302734375 24.233417510986328 180.25767517089844 C 43.0108642578125 185.93519592285156 34.17780685424805 188.68186950683594 17.183719635009766 177.78976440429688 C 10.507431030273438 171.26144409179688 12.855315208435059 164.30177307128906 13.806312561035156 162.2712860107422 C 15.410990715026855 163.21505737304688 15.8992280960083 163.34820556640625 15.039106369018555 162.93060302734375 C 13.836416244506836 162.5074462890625 13.30709457397461 161.8343963623047 14.628499984741211 160.76829528808594 C 16.229148864746094 157.83599853515625 18.905208587646484 154.14195251464844 21.874919891357422 151.6688232421875 C 22.49314308166504 150.16082763671875 23.019145965576172 151.15065002441406 23.146879196166992 153.35494995117188 C 23.220054626464844 154.36293029785156 23.213951110839844 153.54258728027344 22.937000274658203 151.69097900390625 C 22.489852905273438 150.74908447265625 22.31935691833496 150.9945068359375 29.576030731201172 145.12738037109375" stroke-width="0.0" fill="rgb(89, 159, 43)" opacity="1.0" stroke="rgb(198, 254, 241)" stroke-opacity="0.17988504" stroke-linecap="round" stroke-linejoin="round"/>
    <path d="M 173.87362670898438 105.3185806274414 C 177.84671020507812 111.62588500976562 181.89212036132812 115.95536804199219 183.04493713378906 119.47615051269531 C 182.77883911132812 120.79888153076172 184.00926208496094 120.33512878417969 183.9898681640625 122.05862426757812 C 184.31564331054688 123.7199935913086 187.9900665283203 125.65782165527344 189.53256225585938 127.86273193359375 C 188.27337646484375 127.20268249511719 186.30889892578125 126.78630828857422 185.1591796875 127.41517639160156 C 187.21981811523438 126.58380889892578 190.4827880859375 127.01564025878906 194.44508361816406 133.08119201660156 C 195.40977478027344 135.70220947265625 190.86671447753906 130.3392333984375 188.11917114257812 137.18748474121094 C 184.16995239257812 141.67657470703125 184.23822021484375 142.99856567382812 185.64453125 143.86587524414062 C 184.91477966308594 142.6543731689453 184.6606903076172 142.7938232421875 183.75547790527344 144.8132781982422 C 186.47723388671875 146.17332458496094 191.6060791015625 154.80819702148438 201.8541717529297 168.06309509277344 C 197.43630981445312 155.1455535888672 186.24819946289062 146.69009399414062 185.02053833007812 142.53102111816406 C 181.87818908691406 147.98513793945312 179.50929260253906 152.1080780029297 178.4070587158203 152.0501251220703 C 178.84219360351562 151.48081970214844 179.76028442382812 151.12435913085938 179.2401580810547 150.98812866210938 C 178.06895446777344 152.88827514648438 174.99082946777344 155.5911407470703 170.695068359375 157.9312744140625 C 168.93577575683594 158.59906005859375 169.6715850830078 157.06103515625 170.6092987060547 154.60121154785156 C 171.48416137695312 153.35498046875 171.83021545410156 153.06732177734375 171.30128479003906 153.67855834960938 C 168.9579315185547 156.04104614257812 168.7114715576172 165.41238403320312 165.05511474609375 184.97193908691406 C 161.66964721679688 189.29945373535156 165.666015625 175.83639526367188 167.5491943359375 159.5919189453125 C 169.01028442382812 148.70684814453125 169.51699829101562 142.90921020507812 169.80996704101562 140.64859008789062 C 169.6066131591797 140.27928161621094 169.4495391845703 140.78488159179688 169.43905639648438 141.57545471191406 C 169.91744995117188 142.39227294921875 170.1886749267578 142.96897888183594 170.1802520751953 143.13743591308594 C 169.82366943359375 142.7555694580078 169.84715270996094 141.3223419189453 170.0290985107422 138.69703674316406 C 170.54689025878906 135.41513061523438 170.44789123535156 132.45884704589844 171.4852752685547 131.18841552734375 C 173.65415954589844 130.20541381835938 175.13560485839844 129.806396484375 175.08045959472656 129.98863220214844 C 173.50216674804688 130.01303100585938 171.72213745117188 130.7413330078125 170.64389038085938 132.1433868408203 C 171.0032958984375 133.42771911621094 171.23992919921875 134.23793029785156 171.06007385253906 133.7883758544922 C 170.6952362060547 132.10523986816406 170.9694061279297 129.9651336669922 171.0434112548828 128.13380432128906 C 171.13644409179688 126.99586486816406 171.2138214111328 126.30378723144531 171.5023956298828 125.71562194824219 C 171.54116821289062 124.69450378417969 171.89013671875 122.89798736572266 171.8855438232422 120.10350799560547 C 172.99774169921875 116.98209381103516 172.06581115722656 111.5367431640625 174.44395446777344 105.47953796386719 C 179.49285888671875 93.419677734375 174.1446533203125 81.05278778076172 173.87362670898438 105.3185806274414" stroke-width="0.0" fill="rgb(89, 159, 44)" opacity="1.0" stroke="rgb(18, 171, 149)" stroke-opacity="0.7291608" stroke-linecap="round" stroke-linejoin="round"/>
    <path d="M 10.512394905090332 118.07757568359375 C 9.111550331115723 115.03015899658203 7.750851631164551 112.65483856201172 8.003690719604492 111.01258087158203 C 9.282401084899902 109.86346435546875 9.538494110107422 110.26785278320312 8.848554611206055 112.22164916992188 C 8.678873062133789 114.36620330810547 8.806509971618652 115.1886215209961 8.874755859375 114.79913330078125 C 9.988645553588867 114.55359649658203 11.542262077331543 114.78101348876953 13.529972076416016 115.70024108886719 C 15.996859550476074 116.15257263183594 18.919227600097656 116.97579193115234 21.74915313720703 117.90955352783203 C 24.219995498657227 117.86952209472656 25.85186004638672 117.98365783691406 27.030879974365234 118.88992309570312 C 28.25216293334961 118.98863983154297 29.287622451782227 118.85383605957031 30.207761764526367 118.90303039550781 C 30.85662078857422 118.98600769042969 31.50401496887207 118.89928436279297 31.976516723632812 118.93099975585938 C 32.47897720336914 119.04488372802734 33.081329345703125 119.49382781982422 33.97203826904297 119.91361999511719 C 35.69083786010742 119.79104614257812 38.83348083496094 120.40388488769531 43.961097717285156 119.5185546875 C 51.92723846435547 113.9869613647461 57.492130279541016 108.34278869628906 59.80256271362305 110.02188110351562 C 56.37897491455078 115.87830352783203 46.28654098510742 120.70901489257812 36.26947021484375 126.4074478149414 C 31.619380950927734 127.6500015258789 30.41185188293457 125.89985656738281 30.451658248901367 123.97982025146484 C 30.464916229248047 123.40862274169922 30.486915588378906 123.9661865234375 30.68796157836914 125.37769317626953 C 31.828832626342773 126.85901641845703 33.833919525146484 127.03553771972656 35.8211784362793 126.55403900146484 C 35.749168395996094 127.22396087646484 33.5639533996582 128.98709106445312 30.01725959777832 131.3526153564453 C 26.519433975219727 134.1631317138672 23.6241455078125 136.5192413330078 21.98367691040039 137.7538604736328 C 21.629314422607422 138.39002990722656 21.84759521484375 138.234375 21.911767959594727 137.91062927246094 C 21.462875366210938 138.42678833007812 20.638629913330078 139.04063415527344 19.932363510131836 139.66757202148438 C 18.982728958129883 140.86866760253906 18.01317024230957 141.52703857421875 16.533611297607422 140.82716369628906 C 14.659781455993652 141.025390625 13.309690475463867 142.0414581298828 12.601590156555176 143.37928771972656 C 11.85423469543457 144.91998291015625 10.878885269165039 146.8020782470703 10.147008895874023 148.8249053955078 C 10.240840911865234 149.8548126220703 10.357952117919922 149.98863220214844 10.267496109008789 149.4915313720703 C 10.96694278717041 148.6662139892578 13.015260696411133 146.96365356445312 15.407210350036621 144.07525634765625 C 18.074718475341797 141.83795166015625 18.578310012817383 141.05899047851562 16.18746566772461 140.83160400390625 C 13.167006492614746 141.634765625 11.394119262695312 145.19496154785156 9.554585456848145 150.59593200683594 C 5.874782562255859 155.8464813232422 5.127484321594238 156.8748016357422 4.356063365936279 150.6938934326172 C 1.4034761190414429 141.68850708007812 1.678071141242981 132.85462951660156 2.1211233139038086 127.14339447021484 C 6.821138381958008 127.20092010498047 10.090557098388672 129.43020629882812 10.470205307006836 131.61630249023438 C 10.093544006347656 132.74905395507812 10.131954193115234 132.7607879638672 10.3076171875 131.59036254882812 C 9.625487327575684 129.81988525390625 8.220521926879883 128.48403930664062 6.722201347351074 127.74678802490234 C 5.43572998046875 127.43533325195312 3.802744150161743 127.71398162841797 2.4237499237060547 126.65426635742188 C 2.802079677581787 121.34867858886719 4.769761085510254 113.3600082397461 9.37476921081543 104.23590850830078 C 12.98925495147705 100.32989501953125 10.529273986816406 104.60865783691406 8.731842994689941 112.94294738769531 C 10.846036911010742 121.65271759033203 12.332201957702637 126.9139404296875 12.659234046936035 128.81199645996094 C 12.468520164489746 128.27859497070312 12.054088592529297 126.24592590332031 11.46653938293457 123.67996215820312 C 10.819062232971191 121.19540405273438 10.13912296295166 118.69007110595703 10.512394905090332 118.07757568359375" stroke-width="0.0" fill="rgb(89, 159, 43)" opacity="1.0" stroke="rgb(113, 44, 30)" stroke-opacity="0.3190168" stroke-linecap="round" stroke-linejoin="round"/>
    <path d="M 55.44015121459961 114.1741943359375 C 57.0833854675293 112.78152465820312 58.17428207397461 111.82786560058594 59.655235290527344 112.56114959716797 C 62.151397705078125 115.44596862792969 65.29468536376953 120.35929870605469 65.74063873291016 126.80989837646484 C 64.08236694335938 134.00228881835938 59.13895797729492 138.32505798339844 54.503116607666016 138.71961975097656 C 52.69392776489258 133.6851043701172 55.27214813232422 129.0501708984375 60.598785400390625 126.237548828125 C 61.1696662902832 124.43853759765625 57.83283233642578 125.51676177978516 53.697113037109375 128.5912628173828 C 50.71299362182617 131.1016845703125 49.38228988647461 132.13076782226562 49.17207336425781 130.99993896484375 C 48.824302673339844 128.4467315673828 46.88459777832031 126.0208740234375 44.5887565612793 123.76295471191406 C 42.40046691894531 123.54061889648438 41.68892288208008 123.38932800292969 43.22346496582031 122.62189483642578 C 45.548221588134766 121.08280944824219 47.89406204223633 119.2843017578125 49.8186149597168 118.0871353149414 C 50.76583480834961 117.58076477050781 50.75757598876953 117.4503173828125 50.628475189208984 117.49053955078125 C 50.90331268310547 117.29601287841797 52.21068572998047 116.43070983886719 54.6921272277832 114.91549682617188 C 58.07558059692383 112.57832336425781 61.89308166503906 109.73744201660156 55.44015121459961 114.1741943359375" stroke-width="0.0" fill="rgb(0, 169, 211)" opacity="0.9996848" stroke="rgb(8, 213, 135)" stroke-opacity="0.6388324" stroke-linecap="round" stroke-linejoin="round"/>
    <path d="M 146.250244140625 31.641204833984375 C 141.38963317871094 43.003883361816406 135.0017547607422 49.710628509521484 127.43692779541016 51.65635681152344 C 119.98661041259766 51.64601516723633 114.18013763427734 51.35438537597656 110.84625244140625 51.04523849487305 C 110.4654541015625 50.82125473022461 112.9158935546875 50.56642532348633 117.57327270507812 50.51875305175781 C 123.19386291503906 50.59598922729492 128.4029998779297 51.10608673095703 131.78379821777344 52.401519775390625 C 132.09107971191406 54.696475982666016 129.56936645507812 57.03727340698242 125.45953369140625 58.855438232421875 C 121.43675231933594 60.31787872314453 118.84656524658203 61.27987289428711 118.16397094726562 61.51103591918945 C 119.36832427978516 60.94301986694336 122.00161743164062 59.882896423339844 125.41958618164062 58.44363021850586 C 128.80931091308594 57.15788650512695 131.30184936523438 57.10031509399414 132.35975646972656 59.01247024536133 C 131.99464416503906 62.126434326171875 131.01307678222656 64.68806457519531 130.1945037841797 64.72477722167969 C 130.65182495117188 60.68537902832031 134.4449462890625 53.694156646728516 143.35755920410156 47.51734924316406 C 157.06884765625 45.447811126708984 169.6344451904297 47.51314163208008 175.41244506835938 54.77733612060547 C 175.7008819580078 67.80316925048828 170.0990447998047 79.62380981445312 156.3792266845703 86.7978286743164 C 140.90931701660156 93.09654998779297 125.55029296875 92.6158218383789 112.51424407958984 87.29009246826172 C 103.27791595458984 82.65351104736328 99.4167251586914 78.72817993164062 98.55561828613281 76.90955352783203 C 98.63483428955078 76.92989349365234 98.93070220947266 77.56196594238281 99.00184631347656 77.54854583740234 C 98.19197845458984 76.60523223876953 96.76789855957031 74.54268646240234 95.30821228027344 71.7419662475586 C 94.03695678710938 68.92691040039062 93.52584075927734 66.7778091430664 93.32847595214844 65.9302978515625 C 93.40519714355469 66.16693115234375 93.5668716430664 66.87245178222656 93.90360260009766 67.2116928100586 C 93.90764617919922 66.53851318359375 93.38065338134766 65.31031036376953 92.92582702636719 63.71494674682617 C 92.96855163574219 61.89992141723633 93.13121032714844 60.39745330810547 92.75288391113281 59.32781219482422 C 91.54630279541016 59.030601501464844 90.21367645263672 59.036888122558594 89.30684661865234 59.217872619628906 C 89.098388671875 59.195945739746094 89.39627838134766 59.11637496948242 90.12308502197266 59.08760452270508 C 91.04678344726562 59.0844612121582 92.06866455078125 59.26408386230469 92.89752197265625 59.435577392578125 C 93.32418060302734 59.05668258666992 93.70645141601562 58.10880661010742 93.82730102539062 56.55839920043945 C 94.14408874511719 54.77901840209961 95.12674713134766 52.601600646972656 96.3581314086914 50.11882781982422 C 97.58116912841797 48.249900817871094 98.7891845703125 46.7454948425293 99.6225814819336 45.58387756347656 C 100.49176025390625 44.7805061340332 101.05016326904297 43.9562873840332 101.62155151367188 43.97776412963867 C 101.1270980834961 44.98318862915039 100.2968521118164 46.00554275512695 100.52206420898438 45.68013381958008 C 103.2631607055664 42.05501174926758 105.84304809570312 33.61072540283203 146.250244140625 31.641204833984375" stroke-width="0.0" fill="rgb(254, 219, 197)" opacity="1.0" stroke="rgb(53, 217, 64)" stroke-opacity="0.8919255" stroke-linecap="round" stroke-linejoin="round"/>
    <path d="M 180.44004821777344 121.01225280761719 C 179.60977172851562 119.4144058227539 178.9660186767578 117.8239974975586 178.70494079589844 116.45755004882812 C 178.92428588867188 115.52900695800781 178.93692016601562 115.11914825439453 178.78152465820312 115.43328094482422 C 178.74652099609375 116.4781494140625 179.0189666748047 117.99037170410156 179.78294372558594 119.77670288085938 C 181.0789794921875 121.90835571289062 182.49139404296875 124.08082580566406 183.579833984375 126.29915618896484 C 183.981689453125 128.2847442626953 184.01522827148438 130.12457275390625 184.05824279785156 131.5740509033203 C 183.19009399414062 132.1790771484375 181.518310546875 132.50791931152344 179.1819305419922 132.8963165283203 C 176.31817626953125 133.02345275878906 173.75933837890625 132.98291015625 172.20692443847656 132.6708984375 C 172.12136840820312 131.90945434570312 172.73745727539062 130.36863708496094 173.18052673339844 127.93002319335938 C 172.92086791992188 125.10868835449219 173.0308837890625 122.52751922607422 173.47198486328125 120.74201965332031 C 174.15655517578125 120.58595275878906 174.98829650878906 121.8997573852539 176.24803161621094 123.85034942626953 C 177.84530639648438 125.7469482421875 179.088134765625 126.98199462890625 179.6512908935547 127.1123275756836 C 179.08218383789062 126.3443832397461 177.16380310058594 124.78742980957031 174.8421630859375 122.08782196044922 C 173.7664794921875 118.50777435302734 173.91400146484375 114.47563171386719 174.82681274414062 111.42317962646484 C 175.6881866455078 110.8049087524414 177.1809844970703 112.81378173828125 179.6273956298828 116.8538818359375 C 182.2454071044922 122.34673309326172 184.98583984375 128.42922973632812 180.44004821777344 121.01225280761719" stroke-width="0.0" fill="rgb(141, 210, 95)" opacity="0.99998915" stroke="rgb(169, 104, 123)" stroke-opacity="0.56057084" stroke-linecap="round" stroke-linejoin="round"/>
  </g>
</svg>
