<?xml version="1.0" ?>
<svg xmlns="http://www.w3.org/2000/svg" version="1.1" width="222" height="406">
  <defs/>
  <g>
    <path d="M -7.555517673492432 -8.427815437316895 C 5.926965713500977 -10.978248596191406 19.048507690429688 -12.576379776000977 30.84368324279785 -12.207040786743164 C 40.0622444152832 -9.747291564941406 45.69537353515625 -5.594064712524414 47.2675895690918 -1.2727980613708496 C 46.43198013305664 0.9030987620353699 47.27607727050781 0.18649044632911682 51.84197998046875 -2.919525146484375 C 60.13683319091797 -5.848726749420166 70.89952850341797 -7.111884117126465 82.77750396728516 -6.1136603355407715 C 93.99018859863281 -5.191226959228516 103.51215362548828 -5.130349159240723 110.5261459350586 -6.139302730560303 C 115.04227447509766 -7.482613563537598 118.06185913085938 -8.263233184814453 120.99071502685547 -8.271635055541992 C 124.97679138183594 -8.049482345581055 130.1974639892578 -7.353704929351807 136.418212890625 -6.386155128479004 C 143.51278686523438 -5.51080322265625 151.09585571289062 -5.016751766204834 159.02679443359375 -5.380248546600342 C 167.26206970214844 -6.636904239654541 175.80206298828125 -8.37685775756836 184.6730194091797 -9.837751388549805 C 193.70498657226562 -10.477256774902344 202.57469177246094 -9.92948055267334 210.9175567626953 -8.026907920837402 C 218.295654296875 -4.676264762878418 224.28012084960938 0.09077272564172745 228.60093688964844 5.9942240715026855 C 231.338134765625 12.780619621276855 232.49136352539062 20.14958381652832 232.48936462402344 27.827882766723633 C 232.15660095214844 35.57603073120117 231.8728790283203 43.275611877441406 231.7333526611328 50.820213317871094 C 231.70111083984375 58.16868209838867 231.73333740234375 65.37782287597656 231.7733612060547 72.36888885498047 C 231.7741241455078 79.1980209350586 231.77891540527344 86.00499725341797 231.79798889160156 92.77474212646484 C 231.7379913330078 99.656005859375 231.6162567138672 106.69883728027344 231.67239379882812 113.87936401367188 C 232.05886840820312 121.22834777832031 232.36485290527344 128.73426818847656 232.30868530273438 136.3881072998047 C 231.7079620361328 144.08224487304688 230.62918090820312 151.68585205078125 229.34310913085938 159.18948364257812 C 228.25930786132812 166.58583068847656 228.00775146484375 173.73301696777344 228.9257354736328 180.61798095703125 C 230.48606872558594 187.3496551513672 231.8459014892578 193.84805297851562 232.6429901123047 200.17271423339844 C 232.6530303955078 206.52684020996094 232.18621826171875 212.9424591064453 231.71693420410156 219.3645477294922 C 231.5938262939453 225.9364776611328 231.6829376220703 232.7338409423828 231.78387451171875 239.63990783691406 C 231.79293823242188 246.58204650878906 231.77291870117188 253.68490600585938 231.76698303222656 260.873291015625 C 231.76930236816406 268.0310974121094 231.770263671875 275.17913818359375 231.7697296142578 282.3081970214844 C 231.76951599121094 289.3500061035156 231.7698516845703 296.2889709472656 231.77017211914062 303.1316833496094 C 231.76736450195312 309.898193359375 231.76365661621094 316.6224670410156 231.7748565673828 323.3759765625 C 231.80303955078125 330.1927490234375 231.78115844726562 337.20721435546875 231.6988983154297 344.4621276855469 C 231.64976501464844 352.01495361328125 231.7598876953125 359.92047119140625 232.08529663085938 368.1652526855469 C 232.48605346679688 376.58892822265625 232.50335693359375 385.0194396972656 231.57281494140625 393.1372985839844 C 229.3455047607422 400.4833679199219 225.84532165527344 406.79107666015625 221.15261840820312 411.7525939941406 C 215.40672302246094 414.92156982421875 208.83741760253906 416.4233703613281 201.6387481689453 416.71295166015625 C 193.8797149658203 416.4064025878906 185.84225463867188 415.95684814453125 177.68701171875 415.6747741699219 C 169.59095764160156 415.6526794433594 161.6546173095703 415.72222900390625 154.021728515625 415.7536926269531 C 146.7395477294922 415.7611999511719 139.82273864746094 415.8076477050781 133.2899169921875 415.8875427246094 C 127.0267562866211 415.9388732910156 120.9327392578125 415.9160461425781 115.00444030761719 415.8080139160156 C 109.09123992919922 415.48175048828125 103.1587905883789 414.75445556640625 97.05996704101562 413.49505615234375 C 90.70160675048828 411.6299743652344 83.93441772460938 410.70489501953125 76.59087371826172 411.17144775390625 C 68.6748046875 412.6021423339844 60.22514724731445 414.2898864746094 51.43819808959961 415.63079833984375 C 42.48307800292969 416.35528564453125 33.53778076171875 416.7250061035156 24.884767532348633 416.97711181640625 C 16.833515167236328 416.8220520019531 9.657090187072754 415.6114196777344 3.609551429748535 412.6595764160156 C -1.0314946174621582 407.56671142578125 -4.237705707550049 400.5474548339844 -6.102534294128418 392.2585144042969 C -6.99703311920166 383.439208984375 -7.2621073722839355 374.9682312011719 -7.387897968292236 367.6826171875 C -7.7051849365234375 361.5655212402344 -7.888623237609863 355.8983154296875 -7.682060718536377 349.92779541015625 C -7.035590648651123 343.0890808105469 -6.401515960693359 335.1615905761719 -6.278298854827881 326.25048828125 C -6.823014259338379 316.63409423828125 -7.524435997009277 307.2007751464844 -7.800525665283203 298.727294921875 C -7.242608547210693 292.0007019042969 -6.6069183349609375 286.6112060546875 -6.805209636688232 281.22674560546875 C -8.209107398986816 274.8087158203125 -9.555892944335938 267.0487976074219 -9.10784912109375 258.2547912597656 C -7.385730743408203 249.15541076660156 -6.108762741088867 240.9119873046875 -5.735985279083252 234.59266662597656 C -5.545957088470459 230.757568359375 -5.4793171882629395 228.7721405029297 -5.548172950744629 227.1353759765625 C -6.523011684417725 223.42916870117188 -8.556578636169434 216.3088836669922 -10.23672103881836 206.38658142089844 C -9.078351974487305 194.78109741210938 -4.8182454109191895 183.6206512451172 1.8783727884292603 177.50563049316406 C 7.171693801879883 177.142578125 2.0656850337982178 176.96888732910156 -6.374441146850586 173.8741455078125 C -10.244634628295898 165.43955993652344 -10.246118545532227 155.18270874023438 -7.74933385848999 143.77284240722656 C -4.657332420349121 132.66151428222656 -2.964336395263672 122.94255065917969 -3.3682076930999756 115.53177642822266 C -5.218031883239746 109.9951400756836 -6.780543804168701 104.89340209960938 -7.458048343658447 99.15874481201172 C -7.165829658508301 91.97461700439453 -7.134760856628418 83.5643310546875 -8.11685562133789 74.36612701416016 C -9.313612937927246 65.10584259033203 -9.224085807800293 57.11017608642578 -7.340075969696045 51.57023620605469 C -4.8640923500061035 49.278316497802734 -3.8374922275543213 48.478553771972656 -4.378896236419678 46.9231071472168 C -5.873322010040283 42.67914962768555 -7.974155426025391 35.65658950805664 -10.48135757446289 26.436922073364258 C -13.251296043395996 15.837472915649414 -16.017911911010742 4.858261585235596 -7.555517673492432 -8.427815437316895" stroke-width="0.0" fill="rgb(234, 229, 225)" opacity="1.0" stroke="rgb(205, 158, 225)" stroke-opacity="0.2682998" stroke-linecap="round" stroke-linejoin="round"/>
    <path d="M 60.553043365478516 88.35655212402344 C 63.27455520629883 89.30885314941406 65.39247131347656 90.24781799316406 67.49803161621094 90.95118713378906 C 69.00491333007812 91.71135711669922 69.76698303222656 92.29869079589844 70.98405456542969 92.01612091064453 C 71.08036041259766 93.26673126220703 72.15132141113281 92.9425277709961 73.36656951904297 93.01065826416016 C 73.40988159179688 94.10916137695312 74.51201629638672 93.86090850830078 75.8543930053711 94.1708755493164 C 77.72245025634766 95.31903076171875 81.1494369506836 95.99551391601562 84.19857788085938 97.12030792236328 C 87.79268646240234 97.94844055175781 91.11035919189453 99.03974151611328 94.13423919677734 99.5912094116211 C 95.89596557617188 100.27384185791016 97.95619201660156 99.97480773925781 98.95838928222656 100.80105590820312 C 99.9188232421875 100.76758575439453 100.42806243896484 101.11516571044922 101.71366119384766 100.9767074584961 C 102.58110809326172 101.06985473632812 104.73277282714844 102.00101470947266 108.22081756591797 102.02072143554688 C 111.802734375 102.40941619873047 115.35023498535156 103.24978637695312 119.30540466308594 102.94110107421875 C 123.23602294921875 103.57941436767578 124.70745086669922 103.38268280029297 125.25616455078125 101.6805648803711 C 125.36322021484375 98.78006744384766 125.0721206665039 97.16889953613281 124.83938598632812 96.70161437988281 C 124.94499969482422 97.8613510131836 125.91252899169922 98.99337768554688 127.82014465332031 101.478759765625 C 130.01522827148438 103.61431121826172 133.20790100097656 103.46363830566406 137.8673095703125 102.96839904785156 C 144.83596801757812 103.22825622558594 147.70086669921875 101.7928237915039 151.21250915527344 102.00647735595703 C 154.2360382080078 101.3682861328125 157.55264282226562 101.00350952148438 160.52340698242188 100.51332092285156 C 163.91424560546875 99.91851806640625 167.04391479492188 98.9850845336914 171.92642211914062 98.45948028564453 C 175.56285095214844 96.22496795654297 173.45558166503906 93.26665496826172 176.52032470703125 93.2682113647461 C 175.9646759033203 101.02849578857422 175.84024047851562 102.7631607055664 175.01524353027344 104.97529602050781 C 175.2571563720703 107.44388580322266 174.6367950439453 108.66602325439453 173.6942596435547 110.34254455566406 C 174.13735961914062 112.07381439208984 175.0009307861328 113.8166732788086 175.99119567871094 115.57022094726562 C 177.10824584960938 117.31884002685547 178.19581604003906 119.47247314453125 179.05007934570312 122.07891845703125 C 179.45706176757812 125.27405548095703 179.46331787109375 129.03565979003906 179.1314239501953 133.3604278564453 C 178.5610809326172 137.80191040039062 177.87733459472656 141.9920196533203 177.29177856445312 145.8733367919922 C 176.86557006835938 149.131103515625 176.1881866455078 151.7138671875 175.25933837890625 153.923828125 C 173.77084350585938 155.48367309570312 171.98355102539062 156.80490112304688 170.16424560546875 158.08230590820312 C 168.7312469482422 159.64154052734375 167.80886840820312 161.6011199951172 167.80718994140625 163.939697265625 C 167.59657287597656 166.15969848632812 167.190185546875 168.3974609375 166.93003845214844 170.44630432128906 C 166.65150451660156 172.43153381347656 166.06504821777344 174.25997924804688 165.4566192626953 176.12420654296875 C 164.84019470214844 177.73223876953125 164.47215270996094 179.18788146972656 164.47129821777344 180.70921325683594 C 164.54945373535156 182.30563354492188 164.46165466308594 183.99066162109375 164.16943359375 186.00926208496094 C 163.572265625 188.48355102539062 162.65231323242188 191.49484252929688 161.38497924804688 194.9315185546875 C 160.3271942138672 198.49261474609375 159.451904296875 201.8474884033203 158.4961700439453 204.53961181640625 C 157.81124877929688 206.4326934814453 157.03636169433594 207.68052673339844 155.8340301513672 208.32582092285156 C 153.98736572265625 208.73965454101562 151.31822204589844 208.87525939941406 147.90769958496094 208.8010711669922 C 143.85389709472656 208.93478393554688 139.58819580078125 209.1332244873047 135.48281860351562 209.4523468017578 C 131.6935577392578 209.86953735351562 128.4507598876953 210.2347869873047 125.59764099121094 210.46002197265625 C 123.11975860595703 210.49269104003906 120.69935607910156 210.3284454345703 118.16011047363281 210.0994110107422 C 115.28802490234375 209.93421936035156 112.14282989501953 209.86219787597656 108.71286010742188 209.9357452392578 C 105.04241180419922 210.19284057617188 101.31332397460938 210.40509033203125 97.52446746826172 210.5274200439453 C 93.70256042480469 210.19822692871094 89.82415771484375 209.41964721679688 85.8675308227539 208.29684448242188 C 81.93975830078125 207.1912841796875 78.10063171386719 206.14389038085938 74.43853759765625 205.44491577148438 C 70.91596984863281 205.0447540283203 67.65132904052734 204.9728240966797 64.7658462524414 205.01315307617188 C 62.36016845703125 204.8650665283203 60.49607467651367 204.45108032226562 59.0364990234375 203.70550537109375 C 57.785362243652344 202.700927734375 56.62617111206055 200.94775390625 56.159732818603516 197.73486328125 C 55.59599304199219 194.52114868164062 54.330684661865234 191.5818634033203 51.56658935546875 189.2837371826172 C 48.92940139770508 186.6840362548828 46.801918029785156 183.49513244628906 45.30704116821289 179.8607940673828 C 44.353511810302734 175.929931640625 43.9135856628418 171.94886779785156 43.87522888183594 167.8728790283203 C 44.13725280761719 163.72496032714844 44.372840881347656 159.61279296875 44.66489028930664 155.68833923339844 C 44.704952239990234 152.05917358398438 44.86410140991211 148.84913635253906 45.63258361816406 146.2755126953125 C 47.15879440307617 144.48007202148438 49.45714569091797 143.24363708496094 52.37688446044922 142.16525268554688 C 55.60826873779297 140.95166015625 58.9948844909668 139.38243103027344 62.29364776611328 137.4440460205078 C 65.34719848632812 135.3195343017578 67.96847534179688 133.39100646972656 70.10820007324219 131.8564453125 C 71.6289291381836 130.69879150390625 72.68827819824219 129.7255401611328 73.41798400878906 128.6088409423828 C 74.05056762695312 127.14628601074219 74.4554214477539 125.3676986694336 74.80636596679688 123.24353790283203 C 75.96240997314453 120.46533966064453 75.55891418457031 117.68287658691406 74.55549621582031 114.46448516845703 C 71.40399932861328 112.83940124511719 68.74398040771484 111.2463150024414 65.52555847167969 109.87406921386719 C 62.55990982055664 108.27223205566406 60.31972885131836 106.34080505371094 58.76089859008789 104.17343139648438 C 57.88513946533203 101.72750091552734 59.9385871887207 99.12832641601562 59.18314743041992 95.29685974121094 C 58.701881408691406 91.47467803955078 59.6817741394043 88.29994201660156 60.553043365478516 88.35655212402344" stroke-width="0.0" fill="rgb(0, 169, 211)" opacity="1.0" stroke="rgb(137, 48, 94)" stroke-opacity="0.7159321" stroke-linecap="round" stroke-linejoin="round"/>
    <path d="M 58.5174446105957 197.9849090576172 C 59.53937530517578 197.86331176757812 60.552101135253906 197.87298583984375 61.531715393066406 198.290283203125 C 62.210880279541016 198.03492736816406 62.7292366027832 197.97494506835938 62.94668960571289 197.94090270996094 C 62.96222686767578 198.05274963378906 62.76526641845703 198.32127380371094 62.64078903198242 198.63668823242188 C 62.597347259521484 198.9293670654297 62.74829864501953 199.17190551757812 63.03841781616211 199.04367065429688 C 63.536556243896484 199.10549926757812 64.44822692871094 198.967529296875 65.76396179199219 199.62100219726562 C 67.30022430419922 199.71336364746094 68.85761260986328 200.06747436523438 70.24807739257812 200.20864868164062 C 71.49040222167969 200.1671905517578 72.2836685180664 200.56661987304688 73.24396514892578 201.16162109375 C 72.96692657470703 201.40805053710938 72.43258666992188 201.4158477783203 71.73951721191406 201.34927368164062 C 71.1347427368164 201.46279907226562 70.89659881591797 201.4215545654297 71.11954498291016 201.44476318359375 C 72.19916534423828 201.3433837890625 73.86634063720703 201.19252014160156 75.87596893310547 201.51553344726562 C 77.9015884399414 201.9690704345703 79.74762725830078 202.13035583496094 81.38752746582031 202.07574462890625 C 82.49751281738281 201.76724243164062 83.43374633789062 201.46826171875 84.19989776611328 201.35337829589844 C 84.95110321044922 201.33485412597656 85.80805206298828 201.63449096679688 86.80379486083984 202.12985229492188 C 87.78170776367188 202.50546264648438 89.07434844970703 203.36329650878906 90.3162612915039 203.58905029296875 C 91.45929718017578 202.8369140625 92.04566192626953 202.84889221191406 92.1275863647461 202.6757354736328 C 91.8899154663086 202.3361053466797 91.35546112060547 202.0128173828125 90.84154510498047 201.8983917236328 C 90.56433868408203 202.10321044921875 90.72199249267578 202.4913330078125 91.36079406738281 203.02218627929688 C 92.41583251953125 203.4785919189453 93.76631927490234 203.82449340820312 95.22012329101562 204.0504608154297 C 96.79014587402344 204.15859985351562 98.38786315917969 204.18951416015625 99.82083129882812 204.19039916992188 C 101.0627670288086 204.12661743164062 102.25726318359375 204.1023712158203 103.38432312011719 204.15309143066406 C 104.34976959228516 204.17738342285156 105.18876647949219 204.16510009765625 105.9935073852539 204.1447296142578 C 106.78079986572266 204.09214782714844 107.58710479736328 204.0194549560547 108.53811645507812 203.99588012695312 C 109.63678741455078 204.02093505859375 110.82109069824219 204.0564727783203 112.1051025390625 204.09881591796875 C 113.57039642333984 204.1063690185547 115.21875 204.01690673828125 117.15917205810547 204.51119995117188 C 119.23625946044922 204.44320678710938 121.10592651367188 203.8555145263672 123.02758026123047 203.30368041992188 C 124.84033966064453 203.19158935546875 126.49295806884766 203.08889770507812 128.04615783691406 203.07131958007812 C 129.512939453125 203.13819885253906 130.90274047851562 203.16949462890625 132.3174285888672 203.19216918945312 C 133.82675170898438 203.1051025390625 135.3827362060547 203.0753936767578 137.06243896484375 202.9348602294922 C 138.82960510253906 202.6905975341797 140.59596252441406 202.53402709960938 142.44346618652344 202.4053192138672 C 144.15557861328125 202.3042449951172 145.75448608398438 202.1472625732422 147.19497680664062 201.98802185058594 C 148.59051513671875 201.7171630859375 150.1721649169922 201.46798706054688 151.88320922851562 201.2449951171875 C 153.85340881347656 201.12869262695312 155.7452392578125 201.11373901367188 157.43106079101562 201.49639892578125 C 158.54238891601562 200.84970092773438 159.25975036621094 200.46630859375 159.73611450195312 200.03518676757812 C 159.87986755371094 199.33349609375 160.18479919433594 199.3349151611328 160.99551391601562 200.39857482910156 C 162.3672637939453 202.97442626953125 163.92291259765625 206.78700256347656 165.5979766845703 211.1011962890625 C 167.1444091796875 215.25758361816406 168.2367706298828 218.72564697265625 168.71400451660156 221.4270477294922 C 168.21810913085938 222.9741668701172 167.07269287109375 223.97064208984375 164.8389434814453 225.01869201660156 C 161.77049255371094 225.8457489013672 158.02093505859375 226.19122314453125 153.23594665527344 225.503662109375 C 149.35447692871094 223.87109375 145.95130920410156 221.86331176757812 143.5670166015625 220.4073486328125 C 143.1165313720703 219.45944213867188 143.7620849609375 220.05667114257812 144.8082733154297 221.32542419433594 C 144.7672882080078 222.22869873046875 143.5260467529297 222.3789520263672 141.16757202148438 222.38772583007812 C 137.823974609375 222.50376892089844 134.27906799316406 222.55775451660156 131.3673095703125 221.9604034423828 C 129.79986572265625 221.12249755859375 129.3177947998047 220.51602172851562 129.2120361328125 220.43026733398438 C 128.5225372314453 221.13034057617188 127.0979995727539 221.96534729003906 124.7989730834961 222.49905395507812 C 120.70235443115234 222.73622131347656 117.17256927490234 223.14894104003906 113.57266235351562 223.53240966796875 C 110.26055908203125 223.7459259033203 107.49349975585938 223.51812744140625 105.54862213134766 222.8179473876953 C 104.28924560546875 221.89480590820312 103.5005874633789 220.99085998535156 102.9107437133789 220.33511352539062 C 102.24585723876953 220.22891235351562 101.40250396728516 220.614501953125 100.11410522460938 221.33763122558594 C 98.01365661621094 222.03009033203125 95.2509536743164 222.58792114257812 91.66400146484375 223.02183532714844 C 88.19916534423828 223.02938842773438 84.25678253173828 222.9771270751953 81.62834167480469 223.0122528076172 C 79.74254608154297 224.85595703125 78.03604888916016 225.31597900390625 76.84929656982422 225.85289001464844 C 76.05046844482422 227.06643676757812 75.16064453125 227.9483184814453 73.61107635498047 228.1334228515625 C 72.04779815673828 227.52073669433594 70.10372161865234 226.32461547851562 67.98470306396484 224.71432495117188 C 65.78388214111328 222.70021057128906 63.423851013183594 221.1450653076172 60.84046936035156 220.33651733398438 C 57.606414794921875 219.8155975341797 54.91199493408203 218.9866180419922 53.342620849609375 217.07669067382812 C 51.997920989990234 214.96725463867188 51.5125846862793 212.503173828125 49.369483947753906 210.1404266357422 C 46.230926513671875 207.6262664794922 47.57384490966797 206.7416534423828 52.06976318359375 208.00836181640625 C 55.642086029052734 206.5341339111328 51.67401123046875 201.5859375 52.27915954589844 200.60926818847656 C 57.63088607788086 203.8600616455078 56.13169860839844 200.88046264648438 57.26786422729492 198.31961059570312 C 58.954383850097656 197.7911376953125 59.92983627319336 197.13272094726562 58.5174446105957 197.9849090576172" stroke-width="0.0" fill="rgb(0, 84, 211)" opacity="1.0" stroke="rgb(111, 148, 228)" stroke-opacity="0.94932014" stroke-linecap="round" stroke-linejoin="round"/>
    <path d="M 79.0561752319336 113.22220611572266 C 80.18903350830078 118.29735565185547 81.1614990234375 119.61321258544922 80.9483871459961 121.40377044677734 C 81.54396057128906 123.39744567871094 81.47175598144531 125.17900085449219 81.3707275390625 127.52835845947266 C 81.11052703857422 128.79335021972656 80.97187042236328 130.09690856933594 80.66764831542969 131.351806640625 C 80.43567657470703 132.38351440429688 80.00023651123047 133.09243774414062 79.92317199707031 133.76507568359375 C 79.49832916259766 134.63035583496094 79.09429931640625 135.58831787109375 78.48483276367188 136.74192810058594 C 77.56777954101562 138.00518798828125 76.55303192138672 139.2240753173828 75.53433990478516 140.4167022705078 C 74.72663879394531 141.37220764160156 74.11653137207031 142.14273071289062 73.74153137207031 142.76480102539062 C 73.4410629272461 143.24246215820312 73.01398468017578 143.66554260253906 72.26363372802734 144.32711791992188 C 71.13448333740234 145.21324157714844 69.50274658203125 146.40966796875 67.55586242675781 147.69825744628906 C 65.5003890991211 148.9896697998047 63.54227066040039 150.0905303955078 61.91144561767578 150.861328125 C 60.866661071777344 151.1792755126953 60.27661895751953 151.14791870117188 60.039180755615234 151.0639190673828 C 59.855804443359375 151.11923217773438 59.61035919189453 151.1732635498047 59.23627471923828 151.3406524658203 C 58.530670166015625 151.56292724609375 57.71415710449219 151.6570281982422 56.700321197509766 151.69407653808594 C 56.719242095947266 152.3596649169922 56.330081939697266 152.6297149658203 55.94195556640625 152.5286102294922 C 55.435176849365234 152.19277954101562 54.832672119140625 151.78945922851562 54.0679931640625 151.747314453125 C 53.23978042602539 152.14828491210938 52.50336456298828 152.94110107421875 51.95229721069336 154.10903930664062 C 51.70163345336914 155.41209411621094 51.60921096801758 156.84007263183594 51.662803649902344 158.3164520263672 C 51.68930435180664 159.7055206298828 51.685951232910156 161.0685577392578 51.68655014038086 162.3428192138672 C 51.67490768432617 163.5223388671875 51.6170768737793 164.7240447998047 51.535526275634766 165.89834594726562 C 51.5144157409668 167.02169799804688 51.5250244140625 167.9651336669922 51.55111312866211 168.6913299560547 C 51.513370513916016 169.25624084472656 51.34453201293945 169.6889190673828 51.162479400634766 170.0935821533203 C 51.04396057128906 170.4334259033203 50.87999725341797 170.80551147460938 50.847129821777344 171.47970581054688 C 50.90663528442383 172.62274169921875 50.944087982177734 174.15838623046875 50.932918548583984 176.0216827392578 C 50.901790618896484 178.06805419921875 50.825538635253906 180.20071411132812 50.552005767822266 182.2275390625 C 50.03314971923828 183.73208618164062 49.292083740234375 184.67022705078125 48.18317794799805 185.05230712890625 C 46.83452224731445 184.88302612304688 45.887935638427734 184.6804656982422 45.071861267089844 184.4903106689453 C 44.5653076171875 184.34210205078125 44.19050598144531 184.2149658203125 43.78472900390625 183.98704528808594 C 43.11277389526367 183.72998046875 42.08993911743164 183.50469970703125 40.68503952026367 183.22422790527344 C 38.79999923706055 182.62098693847656 36.79573440551758 181.79324340820312 34.87691879272461 180.9183807373047 C 33.3546028137207 180.1780548095703 32.25138854980469 179.5237579345703 31.482948303222656 179.02085876464844 C 30.85321044921875 178.7456512451172 30.086027145385742 178.481201171875 29.19654655456543 178.08468627929688 C 28.151460647583008 177.39198303222656 27.099964141845703 176.39947509765625 25.406574249267578 175.64712524414062 C 25.025333404541016 173.9493408203125 25.47321891784668 172.36566162109375 25.96818733215332 170.87014770507812 C 26.311826705932617 169.8079376220703 26.560428619384766 169.06912231445312 26.7176513671875 168.7526092529297 C 26.692829132080078 168.84580993652344 26.53654670715332 169.12672424316406 26.542783737182617 169.21864318847656 C 26.661170959472656 168.95578002929688 26.983318328857422 167.97984313964844 27.322175979614258 166.41893005371094 C 27.29800796508789 164.5448760986328 27.260021209716797 162.30490112304688 27.336729049682617 160.2651824951172 C 27.897016525268555 158.55882263183594 27.520471572875977 156.99472045898438 26.966754913330078 155.73805236816406 C 26.405736923217773 154.6455078125 26.50972557067871 153.6237335205078 27.5143985748291 152.47132873535156 C 28.16147804260254 151.3063507080078 28.643632888793945 149.95899963378906 29.066999435424805 148.70367431640625 C 29.35833168029785 148.05490112304688 29.11542510986328 147.51246643066406 28.716001510620117 147.30111694335938 C 28.37442970275879 147.50927734375 28.351438522338867 147.8423614501953 28.713970184326172 148.0391387939453 C 29.42048454284668 147.98594665527344 30.2911319732666 147.87457275390625 31.256954193115234 147.48086547851562 C 32.075016021728516 146.90887451171875 32.80171203613281 146.2378692626953 33.23787307739258 145.4168701171875 C 33.60603713989258 144.52166748046875 34.07232666015625 143.27920532226562 34.875797271728516 141.79522705078125 C 36.18566131591797 140.05482482910156 38.790733337402344 138.86557006835938 41.30293655395508 137.22174072265625 C 43.612667083740234 135.66128540039062 45.89452362060547 134.35850524902344 47.74928665161133 133.45008850097656 C 48.178131103515625 131.8328094482422 47.79357147216797 131.49017333984375 46.97930145263672 129.53497314453125 C 46.82493209838867 128.0896759033203 45.73664474487305 127.26482391357422 48.28364562988281 127.08198547363281 C 50.260433197021484 129.3811492919922 49.98781204223633 130.58824157714844 49.57866287231445 130.91006469726562 C 49.43680953979492 129.2379913330078 48.87014389038086 127.72067260742188 48.45172119140625 126.32559967041016 C 50.121551513671875 126.17338562011719 51.42497253417969 126.3301773071289 55.99886703491211 124.75792694091797 C 57.76499557495117 124.67607879638672 58.45693588256836 126.08333587646484 58.52450180053711 129.0552520751953 C 55.663063049316406 133.5677947998047 54.93265151977539 135.5006866455078 54.41886520385742 137.55650329589844 C 55.15441131591797 137.81576538085938 56.683067321777344 137.4459228515625 54.55147933959961 135.7849884033203 C 54.685951232910156 135.58428955078125 55.448516845703125 133.81283569335938 55.88471221923828 131.701416015625 C 58.752044677734375 131.26222229003906 59.6214599609375 129.16619873046875 60.705169677734375 127.49177551269531 C 62.67533493041992 126.39036560058594 64.12109375 124.86981964111328 65.9640884399414 123.27035522460938 C 68.998779296875 123.20173645019531 70.83880615234375 121.41709899902344 71.5495834350586 118.28742218017578 C 74.4045181274414 116.1096420288086 76.36992645263672 112.92321014404297 79.0561752319336 113.22220611572266" stroke-width="0.0" fill="rgb(89, 159, 43)" opacity="1.0" stroke="rgb(250, 125, 8)" stroke-opacity="0.95793885" stroke-linecap="round" stroke-linejoin="round"/>
    <path d="M 75.8404312133789 9.505778312683105 C 76.5424575805664 9.195018768310547 77.34170532226562 9.163158416748047 77.87604522705078 9.268586158752441 C 77.99272155761719 9.485758781433105 77.94548034667969 9.453022956848145 78.02017211914062 9.075372695922852 C 78.55809783935547 8.849605560302734 79.99809265136719 8.420632362365723 82.15947723388672 8.009745597839355 C 84.77462768554688 6.0923614501953125 86.6800765991211 6.7022480964660645 87.18541717529297 10.673515319824219 C 88.1646957397461 14.43857192993164 88.43944549560547 18.461999893188477 87.07659912109375 20.994667053222656 C 83.5729751586914 20.43731117248535 81.17460632324219 21.061031341552734 79.87230682373047 21.249195098876953 C 80.1733627319336 21.080076217651367 82.11978912353516 20.86437225341797 85.13247680664062 20.747482299804688 C 88.2944107055664 20.814916610717773 91.29946899414062 21.43437385559082 93.84062957763672 20.904451370239258 C 94.4910659790039 21.9382381439209 94.78646087646484 22.35591697692871 94.47299194335938 21.837635040283203 C 93.68740844726562 21.202964782714844 94.21817779541016 20.56367301940918 96.26436614990234 19.99931526184082 C 99.34892272949219 20.213455200195312 102.50125885009766 20.140213012695312 106.52622985839844 19.043048858642578 C 107.23018646240234 20.571165084838867 107.07243347167969 22.765098571777344 106.8486099243164 24.49195671081543 C 107.05583190917969 25.881847381591797 106.83271789550781 26.38924789428711 106.81233215332031 25.701242446899414 C 107.17344665527344 23.687959671020508 106.58631896972656 20.875890731811523 107.4291000366211 19.067747116088867 C 111.46556091308594 18.91793441772461 115.45645904541016 19.10832405090332 119.65599060058594 18.999404907226562 C 121.82716369628906 20.240148544311523 122.9291763305664 20.907625198364258 124.20269012451172 20.373905181884766 C 127.33557891845703 20.18979835510254 130.92794799804688 19.28227424621582 131.37042236328125 21.204978942871094 C 130.13404846191406 26.08526039123535 132.90478515625 30.13555908203125 137.22682189941406 30.597543716430664 C 144.3934783935547 31.382118225097656 147.93272399902344 30.542259216308594 149.25543212890625 26.940874099731445 C 151.51901245117188 24.223554611206055 154.45352172851562 26.11212158203125 158.2103271484375 27.163131713867188 C 162.05239868164062 28.46324920654297 164.8593292236328 29.75393295288086 167.83517456054688 28.95330810546875 C 169.76231384277344 26.041770935058594 171.0392303466797 21.918527603149414 173.0411376953125 17.887704849243164 C 174.2697296142578 14.273381233215332 177.72024536132812 14.383712768554688 180.8741455078125 15.518131256103516 C 181.95458984375 18.328750610351562 180.34861755371094 22.067930221557617 181.00169372558594 26.197084426879883 C 180.7984619140625 28.292095184326172 179.44183349609375 28.1127872467041 180.1590576171875 27.797195434570312 C 181.2949676513672 30.816984176635742 179.8343505859375 35.588558197021484 179.82748413085938 42.345096588134766 C 180.00274658203125 49.51081085205078 179.09933471679688 55.39354705810547 175.94338989257812 55.78565979003906 C 169.37965393066406 45.8994140625 156.08868408203125 33.6036262512207 137.20236206054688 21.127304077148438 C 110.974365234375 23.106849670410156 103.53372192382812 38.398338317871094 103.95710754394531 81.97830963134766 C 125.27510833740234 99.05944061279297 139.46566772460938 95.65380859375 153.21261596679688 88.16497802734375 C 165.5220947265625 83.7479248046875 170.43516540527344 74.66783905029297 175.77288818359375 73.04232788085938 C 177.2111358642578 81.51223754882812 174.6786651611328 88.26910400390625 173.8460693359375 95.69074249267578 C 174.76722717285156 98.07310485839844 169.92401123046875 98.09820556640625 166.27667236328125 98.86376953125 C 162.62315368652344 99.62329864501953 159.3724822998047 99.9344711303711 156.90957641601562 100.82659912109375 C 154.88458251953125 101.27982330322266 154.4451141357422 100.76710510253906 154.68272399902344 100.1840591430664 C 154.9918212890625 100.77635955810547 154.44700622558594 101.10527801513672 152.45062255859375 100.96218872070312 C 149.90228271484375 102.05300903320312 146.39813232421875 102.03475952148438 142.61000061035156 101.98095703125 C 139.01718139648438 103.11783599853516 135.37461853027344 102.8770523071289 131.7154998779297 103.01544952392578 C 127.86898803710938 103.51691436767578 124.02826690673828 103.19056701660156 120.64595794677734 102.72103118896484 C 118.9129867553711 101.42781066894531 119.08855438232422 100.78301239013672 119.48319244384766 101.57327270507812 C 119.48108673095703 104.06957244873047 117.40084838867188 102.7254867553711 113.90797424316406 101.85394287109375 C 109.13201141357422 102.5311279296875 105.27007293701172 100.63836669921875 100.29859161376953 100.59406280517578 C 98.74690246582031 99.14262390136719 98.9628677368164 97.59651947021484 99.7671890258789 96.58480072021484 C 99.36105346679688 97.9870376586914 99.48838806152344 100.5610122680664 91.69681549072266 98.71724700927734 C 89.28612518310547 96.92671203613281 87.37498474121094 93.06330871582031 88.22594451904297 90.22118377685547 C 87.48023223876953 88.77074432373047 86.21833801269531 87.68292999267578 85.1221694946289 87.73574829101562 C 83.4690170288086 90.04130554199219 80.81993865966797 93.20208740234375 78.37782287597656 94.96753692626953 C 71.32496643066406 91.760009765625 64.6982650756836 90.51331329345703 61.62076950073242 86.54873657226562 C 61.881404876708984 79.94921112060547 63.08246612548828 74.51212310791016 65.35941314697266 70.43608093261719 C 67.17635345458984 68.60929870605469 67.95314025878906 68.4569091796875 66.70951080322266 69.15070343017578 C 65.955322265625 65.3133544921875 64.51490020751953 61.01060104370117 63.95942306518555 55.43156051635742 C 66.02845001220703 52.56639099121094 69.50189971923828 52.66624450683594 73.25615692138672 54.23585510253906 C 75.33123016357422 53.793701171875 76.15852355957031 53.969627380371094 75.84107971191406 53.86273193359375 C 74.40677642822266 54.20467758178711 72.29652404785156 53.97840881347656 69.56262969970703 53.29137420654297 C 67.75641632080078 53.457706451416016 67.9013442993164 49.17865753173828 67.66039276123047 44.477378845214844 C 67.21831512451172 39.41402053833008 66.8846206665039 34.39005661010742 67.79571533203125 29.585765838623047 C 68.68179321289062 25.955242156982422 70.88859558105469 22.87142562866211 72.56715393066406 18.77973747253418 C 73.28922271728516 14.727703094482422 74.5658950805664 10.104970932006836 76.234130859375 6.5026984214782715 C 77.48076629638672 3.4992191791534424 79.33318328857422 2.7915773391723633 82.89493560791016 2.7998509407043457 C 86.23255920410156 4.137959003448486 90.18927764892578 6.540041446685791 75.8404312133789 9.505778312683105" stroke-width="0.0" fill="rgb(254, 254, 254)" opacity="0.9996458" stroke="rgb(129, 122, 9)" stroke-opacity="0.37318745" stroke-linecap="round" stroke-linejoin="round"/>
    <path d="M 57.190528869628906 208.163818359375 C 63.81409454345703 209.71697998046875 69.78936004638672 210.94680786132812 74.64257049560547 211.95330810546875 C 78.14826202392578 212.71141052246094 80.33526611328125 213.2901611328125 81.3191146850586 213.9418487548828 C 81.35148620605469 214.85195922851562 80.67382049560547 215.98312377929688 79.5589370727539 217.31765747070312 C 78.30572509765625 218.71656799316406 77.11428833007812 220.00857543945312 76.08683776855469 221.12449645996094 C 75.37275695800781 221.88864135742188 74.86500549316406 222.15811157226562 74.58929443359375 221.76502990722656 C 74.47809600830078 220.9432373046875 74.54833221435547 220.11050415039062 74.89976501464844 219.4123992919922 C 75.61048889160156 219.12147521972656 76.71572875976562 219.28924560546875 78.14785766601562 220.00894165039062 C 79.79373931884766 221.23301696777344 80.81881713867188 222.7614288330078 81.79691314697266 224.2399444580078 C 82.5082778930664 226.14935302734375 83.1758804321289 228.2330780029297 83.9090347290039 230.30557250976562 C 83.97391510009766 231.68772888183594 84.33818054199219 232.4319610595703 84.64183044433594 233.4617462158203 C 85.0381851196289 234.72525024414062 85.07461547851562 236.0850830078125 85.12352752685547 236.51296997070312 C 85.02715301513672 236.304931640625 85.31236267089844 236.5262451171875 85.4986801147461 237.82107543945312 C 86.143310546875 239.77334594726562 85.76592254638672 242.22691345214844 86.40652465820312 243.9517059326172 C 86.71465301513672 245.5709228515625 86.82328033447266 246.0130157470703 86.8492431640625 245.8509063720703 C 86.6798095703125 245.18325805664062 86.62510681152344 245.72935485839844 86.9941177368164 247.94195556640625 C 86.9583740234375 251.14541625976562 87.02201080322266 254.50965881347656 87.70977783203125 258.0479736328125 C 87.53512573242188 259.5419616699219 86.4107437133789 259.3620300292969 85.03056335449219 259.33056640625 C 84.89090728759766 259.3473815917969 85.98783874511719 259.4586181640625 87.64058685302734 259.16082763671875 C 88.01557159423828 259.636474609375 87.65908813476562 260.7848205566406 87.26219940185547 261.3147888183594 C 88.3541488647461 261.84576416015625 87.84812927246094 263.4410095214844 85.6630859375 269.75616455078125 C 85.24732971191406 296.6947937011719 87.2260971069336 318.0715637207031 83.42837524414062 311.45672607421875 C 83.94435119628906 279.8327941894531 82.8953857421875 267.62066650390625 83.53773498535156 267.4449157714844 C 83.0740737915039 269.2085266113281 83.33814239501953 269.4072570800781 84.80033111572266 269.17999267578125 C 85.54513549804688 269.3551025390625 84.431640625 268.9551696777344 81.83554077148438 269.5907287597656 C 77.65505981445312 271.9176940917969 72.14031982421875 269.861572265625 69.28091430664062 274.7206726074219 C 71.07271575927734 283.7063293457031 70.19271087646484 306.4620666503906 72.82476043701172 317.84259033203125 C 74.69013977050781 291.1922607421875 70.80327606201172 272.3152160644531 70.92338562011719 272.96051025390625 C 66.9629898071289 276.742431640625 70.48066711425781 271.69085693359375 68.13667297363281 270.76971435546875 C 64.47357940673828 269.1050109863281 64.24713897705078 265.4355163574219 64.24789428710938 262.61749267578125 C 65.21539306640625 261.90057373046875 66.01998138427734 261.8293762207031 66.21839141845703 261.8091735839844 C 65.7122802734375 261.8518371582031 65.09675598144531 262.0613098144531 64.5974349975586 262.3396911621094 C 64.21118927001953 262.6585693359375 64.39234924316406 262.2159423828125 64.48855590820312 260.822509765625 C 64.58200073242188 258.6987609863281 64.61329650878906 256.5000305175781 64.53739166259766 254.9213409423828 C 65.41771697998047 254.207275390625 66.90986633300781 253.85008239746094 67.34306335449219 253.65570068359375 C 66.5193099975586 253.7956085205078 65.40984344482422 254.51866149902344 64.53323364257812 254.7593536376953 C 64.54202270507812 252.76856994628906 64.62443542480469 249.3670654296875 63.974830627441406 246.47283935546875 C 64.13268280029297 245.94862365722656 64.23124694824219 247.3164825439453 65.58607482910156 247.24134826660156 C 68.22779846191406 247.03509521484375 69.48076629638672 246.56968688964844 69.691650390625 246.0879364013672 C 69.78839111328125 246.30039978027344 68.411865234375 247.27011108398438 64.58570861816406 247.21315002441406 C 63.34090805053711 244.8692169189453 64.76556396484375 239.2469940185547 62.83403778076172 233.50637817382812 C 64.01274871826172 231.97879028320312 65.7552261352539 231.4221649169922 67.20771789550781 230.63092041015625 C 67.69422149658203 230.65748596191406 65.70683288574219 230.88548278808594 63.07685470581055 233.15516662597656 C 62.542964935302734 232.0874786376953 62.401031494140625 228.69105529785156 60.460445404052734 225.0435791015625 C 59.214839935302734 223.50704956054688 60.2076301574707 223.6961669921875 61.7963981628418 225.3872833251953 C 62.75327682495117 225.54598999023438 63.028892517089844 225.4190673828125 62.613590240478516 225.45999145507812 C 61.8102912902832 225.41676330566406 60.94809341430664 225.24595642089844 60.69912338256836 225.141845703125 C 61.59856033325195 225.3099822998047 62.35679626464844 225.81301879882812 61.1268310546875 224.74197387695312 C 55.39315414428711 219.8870849609375 45.928489685058594 212.8568878173828 57.190528869628906 208.163818359375" stroke-width="0.0" fill="rgb(0, 84, 211)" opacity="1.0" stroke="rgb(58, 14, 102)" stroke-opacity="0.18668409" stroke-linecap="round" stroke-linejoin="round"/>
    <path d="M 54.560760498046875 367.6033020019531 C 61.500797271728516 374.31793212890625 67.76436614990234 372.5080871582031 70.40205383300781 372.6248474121094 C 67.05379486083984 373.50250244140625 64.54347229003906 373.5909729003906 64.13346099853516 374.4675598144531 C 65.39813232421875 372.5831298828125 72.01345825195312 374.2550048828125 79.40365600585938 368.09417724609375 C 83.57147979736328 354.4302978515625 85.85254669189453 368.16729736328125 75.24092864990234 372.8671569824219 C 71.46961212158203 373.8173522949219 72.86180877685547 374.9894104003906 72.67406463623047 375.46435546875 C 72.5512466430664 377.392822265625 72.87389373779297 378.7867126464844 73.14305877685547 380.26068115234375 C 74.0943832397461 382.1465148925781 77.62332153320312 383.8656005859375 80.75543212890625 385.4918212890625 C 81.62467956542969 386.29656982421875 80.97782135009766 385.4082336425781 79.86006927490234 385.0834655761719 C 81.26742553710938 385.9526062011719 84.74341583251953 387.5642395019531 87.68777465820312 389.3785400390625 C 87.83964538574219 390.1333923339844 87.10425567626953 388.995361328125 85.96002197265625 388.4114990234375 C 86.09486389160156 388.986572265625 88.23392486572266 389.8314208984375 90.3938217163086 391.24267578125 C 90.97065734863281 391.558349609375 90.37125396728516 391.51165771484375 89.36679077148438 390.77752685546875 C 88.89232635498047 389.16314697265625 88.31353759765625 389.08441162109375 89.67191314697266 390.84759521484375 C 94.20763397216797 393.9350891113281 96.50786590576172 397.3855895996094 95.91549682617188 398.876220703125 C 94.2945327758789 401.1773376464844 93.60222625732422 402.3893127441406 93.29792022705078 402.2903137207031 C 92.18745422363281 404.0682373046875 89.68367767333984 405.62054443359375 85.52787017822266 406.0645751953125 C 84.05718231201172 409.79473876953125 84.40292358398438 413.3798522949219 85.71287536621094 415.05419921875 C 86.92926788330078 413.703857421875 87.07217407226562 410.267333984375 85.68968200683594 406.5083923339844 C 81.43811798095703 405.8412170410156 76.48126983642578 404.7362365722656 72.07559967041016 402.00347900390625 C 69.52870178222656 400.69329833984375 69.07614135742188 400.50775146484375 69.43529510498047 400.5426025390625 C 69.64273071289062 400.10699462890625 69.62677764892578 398.9358825683594 69.2041244506836 398.5238342285156 C 69.22946166992188 398.4931640625 69.9842529296875 399.5849609375 69.26457214355469 400.29559326171875 C 67.65691375732422 399.79071044921875 66.92825317382812 398.6816711425781 67.4408950805664 399.2164001464844 C 67.61978149414062 399.0398864746094 65.86080169677734 398.4369812011719 64.13226318359375 397.00225830078125 C 63.31764221191406 396.34173583984375 62.24047088623047 395.5281677246094 60.205047607421875 393.8970031738281 C 58.04405212402344 391.7732849121094 56.7011604309082 389.89630126953125 56.7673454284668 388.0870666503906 C 56.58275604248047 386.51220703125 57.00215148925781 387.3389892578125 59.039066314697266 387.8980712890625 C 60.637550354003906 388.1906433105469 60.43342208862305 388.3459167480469 58.0877799987793 387.55584716796875 C 55.85224914550781 387.5263671875 57.19559860229492 382.7802429199219 58.31121063232422 376.3262634277344 C 59.12494659423828 374.2850646972656 57.98219299316406 374.38702392578125 58.123992919921875 374.711181640625 C 58.74638366699219 375.0241394042969 60.195430755615234 373.4217224121094 57.3377571105957 371.81573486328125 C 48.922306060791016 368.3813171386719 50.89341354370117 351.9227600097656 54.560760498046875 367.6033020019531" stroke-width="0.0" fill="rgb(0, 0, 0)" opacity="0.99991536" stroke="rgb(252, 162, 133)" stroke-opacity="0.44379368" stroke-linecap="round" stroke-linejoin="round"/>
    <path d="M 51.33793258666992 72.97366333007812 C 52.897857666015625 72.9966812133789 53.91545104980469 73.42989349365234 54.37360763549805 73.64191436767578 C 54.240081787109375 73.63488006591797 53.595672607421875 73.45008087158203 52.77311706542969 73.27006530761719 C 52.50926208496094 72.85828399658203 52.87290573120117 72.9634780883789 54.192134857177734 73.36077117919922 C 56.38547134399414 73.9623031616211 59.237335205078125 73.7427978515625 61.04076385498047 74.97846984863281 C 62.45157241821289 74.87368774414062 62.86940002441406 75.48251342773438 62.687747955322266 73.66900634765625 C 64.07861328125 62.218353271484375 66.14356994628906 38.58305740356445 72.64418029785156 6.936733245849609 C 80.04847717285156 -3.8500494956970215 73.35067749023438 9.677964210510254 69.72846984863281 38.02052688598633 C 66.84405517578125 58.931636810302734 65.04866027832031 71.9089126586914 64.94571685791016 78.21891021728516 C 63.49523162841797 81.19924926757812 64.20370483398438 84.14075469970703 63.99304962158203 86.83370971679688 C 64.04618072509766 87.76737976074219 63.9702033996582 87.88970947265625 64.01270294189453 87.69445037841797 C 64.05265045166016 87.43025970458984 63.98295211791992 86.99298858642578 64.07233428955078 86.63058471679688 C 64.1607437133789 86.5925064086914 63.88312530517578 87.59569549560547 64.01960754394531 89.31824493408203 C 64.22210693359375 89.8321762084961 63.140621185302734 89.68209075927734 61.34548568725586 89.21009826660156 C 61.536312103271484 90.33293151855469 61.548255920410156 92.10969543457031 61.33127212524414 93.69256591796875 C 61.899173736572266 95.23046875 61.13797378540039 95.68081665039062 60.531700134277344 93.7488021850586 C 60.111297607421875 91.51627349853516 60.708168029785156 91.80642700195312 62.47722625732422 94.61543273925781 C 66.5830078125 96.70487976074219 68.66155242919922 100.4754638671875 71.5846939086914 101.85716247558594 C 71.39793395996094 102.7430191040039 70.31805419921875 102.94702911376953 69.1290283203125 103.273193359375 C 69.31982421875 103.37310791015625 70.346435546875 102.73016357421875 71.5331039428711 102.4854965209961 C 72.82910919189453 104.07977294921875 74.59403991699219 105.00011444091797 74.66339874267578 106.42581176757812 C 73.3988037109375 108.3118667602539 71.9474868774414 109.40220642089844 71.92868041992188 109.68099212646484 C 72.94805145263672 108.56371307373047 73.98646545410156 106.75652313232422 75.58480834960938 107.41510772705078 C 77.70001220703125 110.96074676513672 78.01972198486328 117.57012176513672 79.91964721679688 123.6014175415039 C 75.18810272216797 124.70399475097656 70.31881713867188 125.71322631835938 67.45171356201172 124.33290100097656 C 71.69994354248047 120.36883544921875 73.26659393310547 115.65420532226562 72.53131103515625 111.11450958251953 C 71.7989273071289 109.40029907226562 71.87158966064453 109.13523864746094 71.9614028930664 109.54096221923828 C 72.03926086425781 109.8594741821289 71.83354949951172 109.60918426513672 71.3921890258789 109.07597351074219 C 70.69847106933594 108.49931335449219 69.8226318359375 108.2057113647461 68.7496566772461 108.02823638916016 C 67.73810577392578 107.71498107910156 66.64431762695312 107.1861572265625 65.40656280517578 106.41150665283203 C 64.08312225341797 105.31604766845703 62.51544189453125 104.08106994628906 62.235389709472656 102.13579559326172 C 61.7559814453125 99.90655517578125 61.98466110229492 97.52764129638672 62.48337936401367 95.65264892578125 C 63.507450103759766 95.58251953125 64.4603271484375 95.68023681640625 64.89188385009766 95.61038970947266 C 64.74906921386719 95.31861877441406 64.24578857421875 95.3536148071289 63.62328338623047 95.19108581542969 C 63.383399963378906 94.27821350097656 63.121238708496094 94.256591796875 62.625823974609375 95.1250991821289 C 61.970462799072266 97.42086029052734 61.55756378173828 100.47807312011719 62.604217529296875 103.4025650024414 C 64.18736267089844 106.0427017211914 66.65030670166016 107.43013763427734 69.2769775390625 108.14356994628906 C 71.67032623291016 108.510009765625 72.66392517089844 110.03960418701172 72.76939392089844 113.38665008544922 C 72.26319122314453 117.53962707519531 71.31998443603516 122.62308502197266 67.1727066040039 122.9363784790039 C 62.339290618896484 124.52792358398438 59.46604919433594 129.9778289794922 56.44506072998047 133.80958557128906 C 53.61996078491211 133.33966064453125 50.055240631103516 129.96873474121094 46.50542449951172 127.25836944580078 C 49.68825149536133 127.31065368652344 53.705928802490234 127.94915008544922 56.49360656738281 126.08796691894531 C 57.387962341308594 123.9288330078125 56.64919662475586 122.30121612548828 56.07302474975586 122.29849243164062 C 58.45243453979492 124.91352844238281 59.313438415527344 129.67257690429688 58.38531494140625 134.84368896484375 C 54.81264877319336 134.4846649169922 48.94761276245117 129.00440979003906 41.389854431152344 123.17202758789062 C 32.56931686401367 129.37940979003906 18.795372009277344 139.09109497070312 8.832005500793457 151.4640350341797 C 4.320295810699463 158.09353637695312 4.458247661590576 158.22164916992188 4.9661865234375 157.31887817382812 C 3.287330150604248 162.69810485839844 0.5977315306663513 166.88624572753906 0.7316269874572754 161.4431610107422 C 7.750226020812988 152.19369506835938 3.404981851577759 143.81314086914062 -1.9665806293487549 142.3995361328125 C -4.444336891174316 144.26441955566406 -2.326871156692505 145.22923278808594 2.3675079345703125 144.03564453125 C 1.2965654134750366 134.23147583007812 1.7747302055358887 123.69330596923828 5.055527687072754 114.6423568725586 C 6.373868942260742 109.95806121826172 7.32060432434082 109.17733764648438 7.0407586097717285 109.4415512084961 C 6.682470798492432 109.35841369628906 7.3285393714904785 108.74276733398438 8.379438400268555 106.14995574951172 C 10.637677192687988 101.50621032714844 13.754788398742676 96.09678649902344 17.065725326538086 92.1256103515625 C 18.266855239868164 91.12329864501953 18.210256576538086 91.5654525756836 17.74842643737793 91.39064025878906 C 18.733335494995117 90.02308654785156 20.7689208984375 87.39801025390625 23.933176040649414 84.64966583251953 C 27.426115036010742 81.9822769165039 29.86888313293457 79.78489685058594 31.13782501220703 79.47401428222656 C 29.942758560180664 80.55201721191406 29.445688247680664 82.59484100341797 29.713743209838867 83.80506134033203 C 29.387693405151367 81.24080657958984 30.503177642822266 78.76850891113281 35.233680725097656 77.0509262084961 C 39.63118362426758 74.75227355957031 43.41848373413086 73.7937240600586 46.004398345947266 73.736083984375 C 47.620975494384766 73.25350952148438 48.588104248046875 72.94832611083984 51.33793258666992 72.97366333007812" stroke-width="0.0" fill="rgb(140, 210, 94)" opacity="1.0" stroke="rgb(14, 0, 220)" stroke-opacity="0.16717978" stroke-linecap="round" stroke-linejoin="round"/>
    <path d="M 144.9547882080078 213.46205139160156 C 148.78128051757812 213.89764404296875 152.21412658691406 214.38987731933594 155.0330810546875 214.83544921875 C 157.0615234375 215.15660095214844 158.39210510253906 215.4268798828125 159.02325439453125 215.65196228027344 C 159.0032958984375 215.7801055908203 158.5869598388672 215.67588806152344 157.92611694335938 215.26112365722656 C 157.43521118164062 214.59796142578125 157.36781311035156 213.8640594482422 157.94631958007812 213.3336944580078 C 159.394287109375 213.36500549316406 161.68128967285156 214.11415100097656 164.55184936523438 215.65231323242188 C 167.26254272460938 217.89810180664062 169.1349639892578 220.56100463867188 169.09613037109375 222.91578674316406 C 169.44186401367188 223.4778594970703 169.5323486328125 223.54576110839844 169.77987670898438 224.2979736328125 C 169.97291564941406 226.2991943359375 171.1177978515625 228.02679443359375 171.04214477539062 229.7334747314453 C 171.46473693847656 231.2155303955078 171.96994018554688 231.87741088867188 172.00306701660156 231.70504760742188 C 172.07522583007812 231.36935424804688 172.03021240234375 231.711669921875 171.9913330078125 233.57186889648438 C 172.7179412841797 234.92442321777344 172.95755004882812 236.9112091064453 173.353515625 238.76028442382812 C 174.0736541748047 240.1229705810547 174.01747131347656 241.00672912597656 173.99887084960938 241.75860595703125 C 173.9957275390625 242.38682556152344 174.05772399902344 242.4336395263672 173.97865295410156 242.7104949951172 C 174.42062377929688 243.78114318847656 175.2362060546875 245.19044494628906 174.99771118164062 246.93165588378906 C 174.89479064941406 248.2552947998047 175.58111572265625 249.41140747070312 176.02993774414062 250.8972625732422 C 175.95252990722656 252.56588745117188 176.028564453125 253.34278869628906 176.18104553222656 253.05902099609375 C 176.02024841308594 253.73013305664062 174.34518432617188 255.69602966308594 172.2520294189453 256.82769775390625 C 171.7682647705078 257.5721435546875 172.76571655273438 256.6192321777344 173.90304565429688 255.67015075683594 C 174.9307403564453 258.16632080078125 175.2801055908203 257.91455078125 172.80923461914062 256.4186706542969 C 171.16734313964844 257.83447265625 174.75820922851562 272.3016357421875 175.00994873046875 302.28656005859375 C 174.41368103027344 328.65948486328125 179.82261657714844 312.2939758300781 175.54212951660156 271.6800537109375 C 174.1053009033203 255.47694396972656 176.21429443359375 255.3037872314453 167.98294067382812 257.9764099121094 C 161.6507110595703 258.5160827636719 156.56044006347656 256.4715270996094 156.42051696777344 255.41485595703125 C 160.3182830810547 265.074462890625 162.8350372314453 287.1871337890625 162.51907348632812 319.1698303222656 C 167.80633544921875 304.93988037109375 162.78054809570312 273.78369140625 159.89906311035156 257.79193115234375 C 156.39926147460938 255.29307556152344 154.9861602783203 255.97633361816406 155.6129608154297 256.1616516113281 C 155.90289306640625 255.3952178955078 155.80650329589844 253.55551147460938 155.2230987548828 249.70713806152344 C 154.9240264892578 245.38848876953125 154.8084259033203 242.62094116210938 155.29376220703125 243.27772521972656 C 157.66944885253906 244.4475555419922 159.1219482421875 244.23341369628906 159.22755432128906 244.0541534423828 C 158.47311401367188 244.35374450683594 157.0784912109375 244.08987426757812 155.0752410888672 243.17747497558594 C 153.84706115722656 240.13917541503906 153.8360137939453 238.25657653808594 154.05160522460938 237.625 C 154.4413604736328 238.32313537597656 154.0885772705078 237.70095825195312 153.00094604492188 235.7413330078125 C 152.86468505859375 232.6372528076172 153.27415466308594 230.4629669189453 153.2209930419922 229.88980102539062 C 153.1376495361328 231.129150390625 153.1558074951172 233.13247680664062 152.55824279785156 234.01861572265625 C 152.2987518310547 232.97222900390625 151.68557739257812 230.3555145263672 150.0531005859375 227.53993225097656 C 149.9092254638672 225.71517944335938 147.7452850341797 225.2884521484375 144.9547882080078 213.46205139160156" stroke-width="0.0" fill="rgb(0, 84, 211)" opacity="1.0" stroke="rgb(94, 58, 49)" stroke-opacity="0.8766891" stroke-linecap="round" stroke-linejoin="round"/>
    <path d="M 142.83074951171875 350.21270751953125 C 141.960205078125 362.28143310546875 146.74732971191406 364.69964599609375 154.2769775390625 367.6313171386719 C 156.09779357910156 368.2377624511719 155.5311279296875 367.9961242675781 154.74388122558594 368.0766296386719 C 154.2247772216797 368.1631774902344 152.64089965820312 368.1531066894531 153.21888732910156 368.22979736328125 C 162.152587890625 367.3067932128906 167.33216857910156 370.8084716796875 171.931640625 366.26544189453125 C 178.4521026611328 354.4182434082031 175.58099365234375 361.3730163574219 162.06146240234375 370.7016906738281 C 162.0097198486328 372.8560485839844 164.48023986816406 373.24993896484375 164.49827575683594 373.72088623046875 C 164.59535217285156 373.9814758300781 168.1524658203125 374.9629211425781 172.7665252685547 377.4715270996094 C 174.85350036621094 379.4503173828125 173.84637451171875 379.07196044921875 172.62672424316406 375.64410400390625 C 172.68658447265625 374.0887145996094 172.68792724609375 374.1759948730469 172.6531524658203 375.1905517578125 C 172.8347930908203 377.9477844238281 175.19898986816406 379.44140625 176.32676696777344 380.0308532714844 C 175.8450927734375 380.4898986816406 177.2574920654297 380.4966125488281 178.22781372070312 383.2890930175781 C 179.6752471923828 385.1079406738281 178.66583251953125 387.9307556152344 175.37799072265625 390.0897521972656 C 172.20834350585938 391.69891357421875 170.81787109375 391.4046936035156 171.22003173828125 391.5360107421875 C 170.3067626953125 392.0921936035156 168.11476135253906 392.2393798828125 165.33950805664062 391.044677734375 C 163.21246337890625 390.9805603027344 163.51504516601562 390.7205505371094 164.14442443847656 390.852783203125 C 163.00389099121094 390.74407958984375 160.29879760742188 389.3157043457031 158.07400512695312 388.6153564453125 C 157.9506378173828 388.0046691894531 157.74371337890625 387.8742370605469 156.61976623535156 388.03240966796875 C 155.88218688964844 387.1842346191406 155.86463928222656 386.853759765625 156.42080688476562 386.7628173828125 C 156.00950622558594 386.9541015625 155.8894805908203 387.0433654785156 155.03179931640625 387.0506591796875 C 152.8657684326172 385.7838134765625 148.97618103027344 383.6869201660156 145.75173950195312 381.5870361328125 C 145.12997436523438 381.4302062988281 145.13719177246094 381.36181640625 145.26255798339844 381.3535461425781 C 145.88490295410156 381.79254150390625 145.67587280273438 381.4144287109375 144.42764282226562 380.7883605957031 C 143.5710906982422 379.5909423828125 141.02008056640625 379.0486145019531 140.88973999023438 376.609375 C 142.56295776367188 371.0850830078125 144.97596740722656 368.0997009277344 145.40618896484375 367.1996154785156 C 145.70916748046875 366.7763366699219 145.50436401367188 367.03863525390625 145.05751037597656 367.5730285644531 C 144.7735137939453 367.8251953125 145.0459442138672 367.3027648925781 145.96453857421875 366.58489990234375 C 147.97381591796875 364.11444091796875 137.35845947265625 363.04986572265625 142.83074951171875 350.21270751953125" stroke-width="0.0" fill="rgb(0, 0, 0)" opacity="0.99991834" stroke="rgb(238, 160, 3)" stroke-opacity="0.55101615" stroke-linecap="round" stroke-linejoin="round"/>
    <path d="M 29.587018966674805 145.13998413085938 C 35.603004455566406 140.67747497558594 39.014652252197266 138.5782928466797 40.89717102050781 140.00376892089844 C 41.232460021972656 144.39059448242188 40.300254821777344 148.93724060058594 38.83637237548828 153.21820068359375 C 37.47858810424805 156.47633361816406 36.48870849609375 158.50491333007812 36.01541519165039 159.57730102539062 C 36.100887298583984 159.86940002441406 36.46299362182617 159.68931579589844 36.90867614746094 159.6143035888672 C 37.24884796142578 160.03665161132812 37.10860061645508 160.90260314941406 36.28362274169922 162.5919647216797 C 35.32798385620117 165.34033203125 35.571041107177734 168.83180236816406 37.69108200073242 172.5249786376953 C 41.659725189208984 176.97506713867188 46.7403678894043 181.01658630371094 50.34346008300781 184.31634521484375 C 51.67216491699219 186.58233642578125 48.44696807861328 186.03297424316406 40.854190826416016 183.63296508789062 C 30.610692977905273 180.58103942871094 21.709959030151367 175.0636444091797 15.581281661987305 169.126708984375 C 13.683005332946777 167.09751892089844 14.585552215576172 167.18173217773438 14.69450855255127 167.0766143798828 C 13.295172691345215 167.54649353027344 12.926482200622559 173.7389678955078 24.29261016845703 180.26611328125 C 43.179595947265625 185.91763305664062 34.2625617980957 188.73118591308594 17.20669174194336 177.8101806640625 C 10.505305290222168 171.25318908691406 12.84883975982666 164.30043029785156 13.8092679977417 162.2781982421875 C 15.4126558303833 163.21119689941406 15.899354934692383 163.34820556640625 15.034623146057129 162.93521118164062 C 13.840011596679688 162.51953125 13.313736915588379 161.82760620117188 14.612489700317383 160.7520294189453 C 16.22374725341797 157.83424377441406 18.90519905090332 154.1397247314453 21.8776912689209 151.66810607910156 C 22.486309051513672 150.15382385253906 23.019624710083008 151.14747619628906 23.146804809570312 153.35458374023438 C 23.220054626464844 154.36293029785156 23.213939666748047 153.54258728027344 22.934612274169922 151.67739868164062 C 22.480453491210938 150.7298126220703 22.310274124145508 150.9862518310547 29.587018966674805 145.13998413085938" stroke-width="0.0" fill="rgb(89, 159, 43)" opacity="1.0" stroke="rgb(198, 254, 241)" stroke-opacity="0.17988504" stroke-linecap="round" stroke-linejoin="round"/>
    <path d="M 173.83778381347656 105.20425415039062 C 177.8331298828125 111.6357421875 181.90023803710938 115.93800354003906 183.0426025390625 119.4894027709961 C 182.75424194335938 120.84461212158203 184.03880310058594 120.34587860107422 183.9996337890625 122.07244110107422 C 184.31344604492188 123.7024917602539 187.9739227294922 125.67425537109375 189.52734375 127.8692398071289 C 188.2771759033203 127.19902038574219 186.31329345703125 126.7825927734375 185.17437744140625 127.40933990478516 C 187.2511444091797 126.57347869873047 190.45863342285156 127.01399993896484 194.50144958496094 133.17079162597656 C 195.41139221191406 135.86842346191406 190.86968994140625 130.2931365966797 188.14979553222656 137.1909942626953 C 184.19338989257812 141.69773864746094 184.25819396972656 143.02847290039062 185.63941955566406 143.87623596191406 C 184.9495086669922 142.62124633789062 184.71299743652344 142.8083953857422 183.7367706298828 144.8302001953125 C 186.48780822753906 146.1724853515625 191.64878845214844 154.7803192138672 201.93966674804688 168.22962951660156 C 197.51565551757812 155.16079711914062 186.22415161132812 146.7086181640625 185.0394287109375 142.51083374023438 C 181.89117431640625 147.9903106689453 179.4785919189453 152.0642547607422 178.38992309570312 152.04428100585938 C 178.88314819335938 151.52720642089844 179.83067321777344 151.16763305664062 179.2326202392578 150.9739532470703 C 178.0868682861328 152.907958984375 175.017578125 155.6175079345703 170.71694946289062 157.9547119140625 C 168.94017028808594 158.59228515625 169.69224548339844 157.06895446777344 170.6116180419922 154.60116577148438 C 171.47952270507812 153.3538360595703 171.8294219970703 153.06704711914062 171.287841796875 153.67198181152344 C 168.9341583251953 156.02777099609375 168.72389221191406 165.41578674316406 165.00991821289062 185.11744689941406 C 161.63954162597656 189.44473266601562 165.71054077148438 175.93173217773438 167.54483032226562 159.60098266601562 C 168.99771118164062 148.69923400878906 169.51295471191406 142.90609741210938 169.81455993652344 140.65147399902344 C 169.6067657470703 140.28182983398438 169.4480743408203 140.7860107421875 169.42626953125 141.58172607421875 C 169.90513610839844 142.39833068847656 170.17347717285156 142.9767608642578 170.18109130859375 143.13035583496094 C 169.8241424560547 142.75213623046875 169.85923767089844 141.32498168945312 170.005126953125 138.68368530273438 C 170.49514770507812 135.3962860107422 170.4132843017578 132.44430541992188 171.4674072265625 131.1870574951172 C 173.65052795410156 130.1848602294922 175.1353302001953 129.8015594482422 175.08067321777344 129.98997497558594 C 173.50558471679688 130.01844787597656 171.72317504882812 130.7432098388672 170.63526916503906 132.1448211669922 C 171.0030517578125 133.42767333984375 171.23582458496094 134.23843383789062 171.05747985839844 133.7872314453125 C 170.68589782714844 132.1057586669922 170.98052978515625 129.96987915039062 171.06588745117188 128.1379852294922 C 171.13768005371094 126.99542999267578 171.20973205566406 126.3016357421875 171.5030975341797 125.71484375 C 171.5651092529297 124.69844818115234 171.92564392089844 122.90219116210938 171.8946075439453 120.09129333496094 C 173.00576782226562 116.9670639038086 172.04055786132812 111.45589447021484 174.5179443359375 105.22501373291016 C 179.7394256591797 93.06697845458984 174.3274688720703 80.71375274658203 173.83778381347656 105.20425415039062" stroke-width="0.0" fill="rgb(89, 159, 44)" opacity="1.0" stroke="rgb(18, 171, 149)" stroke-opacity="0.7291608" stroke-linecap="round" stroke-linejoin="round"/>
    <path d="M 9.968754768371582 118.11949157714844 C 9.496954917907715 114.7356185913086 7.682226657867432 112.58204650878906 8.039680480957031 111.29803466796875 C 9.383180618286133 110.15806579589844 9.04386043548584 110.18561553955078 8.284021377563477 111.86033630371094 C 8.995707511901855 114.24728393554688 8.83843994140625 115.1086654663086 9.101787567138672 114.27537536621094 C 9.382207870483398 114.64888763427734 11.890388488769531 114.7117691040039 13.510733604431152 115.732177734375 C 16.000930786132812 116.22517395019531 19.227317810058594 116.7639389038086 22.083749771118164 117.97982025146484 C 24.500530242919922 118.02348327636719 26.064064025878906 117.65755462646484 26.59176254272461 118.9661865234375 C 28.230304718017578 119.03585815429688 29.29833221435547 118.95944213867188 30.15929412841797 118.99873352050781 C 30.867528915405273 118.98401641845703 31.469558715820312 119.0110092163086 32.121517181396484 118.97545623779297 C 32.68662643432617 118.96806335449219 33.22523498535156 119.33119201660156 34.02926254272461 120.0087661743164 C 35.70199966430664 119.75778198242188 39.06367874145508 120.2947769165039 43.22686004638672 119.71687316894531 C 53.18951416015625 114.27360534667969 56.89474868774414 107.1668472290039 59.511592864990234 110.15266418457031 C 58.40748977661133 116.72466278076172 46.00177764892578 120.4347152709961 36.275001525878906 126.32380676269531 C 31.75225257873535 127.56562042236328 30.403648376464844 125.84925079345703 30.494184494018555 124.0428695678711 C 30.37311363220215 123.44865417480469 30.39418601989746 123.98755645751953 30.699996948242188 125.4026107788086 C 31.839937210083008 127.12942504882812 33.74398422241211 126.90910339355469 36.43959045410156 126.3102035522461 C 35.9188232421875 127.26152801513672 33.3555793762207 128.78128051757812 30.057538986206055 131.38938903808594 C 26.453367233276367 134.1079864501953 23.726606369018555 136.5542755126953 22.093473434448242 137.74923706054688 C 21.667667388916016 138.34417724609375 21.763931274414062 138.22567749023438 21.825393676757812 137.9209442138672 C 21.326744079589844 138.24929809570312 20.690454483032227 138.98426818847656 19.924575805664062 139.69813537597656 C 18.769813537597656 141.03504943847656 18.355438232421875 141.71815490722656 16.66994285583496 140.85484313964844 C 14.74652099609375 140.99932861328125 13.549920082092285 142.16685485839844 12.72150993347168 143.49105834960938 C 11.849905967712402 144.95974731445312 11.052546501159668 146.91590881347656 10.265910148620605 148.91966247558594 C 10.386460304260254 149.8229217529297 10.376708984375 150.03326416015625 10.340205192565918 149.65394592285156 C 11.031903266906738 148.5540771484375 13.010976791381836 146.85865783691406 15.464865684509277 143.9828643798828 C 18.21470069885254 141.5150909423828 19.079652786254883 141.3509063720703 16.272932052612305 140.87655639648438 C 12.972736358642578 141.34121704101562 11.68631362915039 145.41726684570312 9.599088668823242 150.58444213867188 C 5.090001106262207 156.19541931152344 5.147741794586182 158.5379180908203 4.799798965454102 151.74253845214844 C 0.9911599159240723 142.30947875976562 1.9678940773010254 133.2427978515625 2.054642677307129 126.89106750488281 C 6.730519771575928 127.30816650390625 10.009035110473633 129.1663360595703 10.394847869873047 131.47720336914062 C 10.111124992370605 132.5014190673828 10.195509910583496 132.7574920654297 10.386805534362793 131.17465209960938 C 9.63780403137207 129.517822265625 8.237382888793945 128.49766540527344 6.732288360595703 128.00921630859375 C 5.392538547515869 127.29890441894531 3.679851531982422 127.1181411743164 2.420550584793091 126.96915435791016 C 2.8357772827148438 121.1613998413086 4.807440757751465 113.19784545898438 10.089592933654785 102.80064392089844 C 15.601456642150879 95.53101348876953 11.989484786987305 103.3396224975586 8.262575149536133 111.69258117675781 C 10.880608558654785 121.156494140625 12.322443962097168 126.78565216064453 12.63602352142334 128.83197021484375 C 12.527236938476562 128.20468139648438 12.119172096252441 126.26506042480469 11.480240821838379 123.7138900756836 C 10.858859062194824 121.09528350830078 10.0598726272583 118.65165710449219 9.968754768371582 118.11949157714844" stroke-width="0.0" fill="rgb(89, 159, 43)" opacity="1.0" stroke="rgb(113, 44, 30)" stroke-opacity="0.3190168" stroke-linecap="round" stroke-linejoin="round"/>
    <path d="M 55.444461822509766 114.0745849609375 C 57.26999282836914 113.0539321899414 58.176719665527344 111.70783996582031 59.7267951965332 112.48738098144531 C 62.190887451171875 115.70596313476562 65.7756118774414 120.06476593017578 65.64491271972656 126.68170166015625 C 64.4926986694336 134.1306610107422 59.04726028442383 137.80596923828125 54.399269104003906 138.9590606689453 C 52.78173065185547 132.61077880859375 54.896690368652344 129.21481323242188 60.76350021362305 126.16378784179688 C 61.33428955078125 124.431396484375 57.925777435302734 125.47769165039062 53.854957580566406 128.65579223632812 C 50.25632858276367 130.78671264648438 49.1220703125 132.25144958496094 48.99507522583008 131.14869689941406 C 49.17306137084961 128.20948791503906 46.76020812988281 126.25411224365234 44.27272415161133 123.39794158935547 C 42.19404220581055 123.58949279785156 41.317481994628906 123.4491958618164 43.16841125488281 122.6291275024414 C 45.417911529541016 120.96343231201172 47.88799285888672 119.30924987792969 49.717464447021484 117.99559020996094 C 50.779903411865234 117.64763641357422 50.863243103027344 117.44380950927734 50.596221923828125 117.40514373779297 C 50.88529968261719 117.22642517089844 52.40001678466797 116.6067123413086 54.59426498413086 114.71957397460938 C 58.27676773071289 112.65692901611328 62.40055847167969 109.99805450439453 55.444461822509766 114.0745849609375" stroke-width="0.0" fill="rgb(0, 169, 211)" opacity="0.9996726" stroke="rgb(8, 213, 135)" stroke-opacity="0.6388324" stroke-linecap="round" stroke-linejoin="round"/>
    <path d="M 148.3715362548828 32.478233337402344 C 143.27743530273438 46.693443298339844 136.13999938964844 51.950374603271484 128.26849365234375 51.73176193237305 C 120.11524963378906 52.14496994018555 114.29808044433594 52.10184860229492 111.01990509033203 51.17131805419922 C 110.50981903076172 51.42934799194336 112.88899993896484 51.75297546386719 118.21172332763672 52.19184112548828 C 123.27162170410156 51.95488357543945 128.4467010498047 51.74385070800781 132.77294921875 51.83993911743164 C 133.27444458007812 55.157073974609375 130.37193298339844 57.443504333496094 125.6339340209961 58.66392517089844 C 121.6202392578125 60.235939025878906 119.03925323486328 61.20219421386719 118.42185974121094 61.421504974365234 C 119.59054565429688 60.95392990112305 122.24348449707031 59.863101959228516 125.88953399658203 58.738990783691406 C 129.1534881591797 56.87680435180664 131.817626953125 56.682987213134766 131.00306701660156 58.206356048583984 C 130.37994384765625 61.79039001464844 130.24884033203125 64.52578735351562 130.75648498535156 64.36665344238281 C 129.63037109375 59.6332893371582 131.93138122558594 51.40637969970703 143.1141357421875 42.17509841918945 C 161.9222869873047 39.39755630493164 169.8109130859375 42.421653747558594 172.8799591064453 54.835655212402344 C 177.2705078125 68.18791961669922 170.6243133544922 78.85623168945312 156.19430541992188 86.85419464111328 C 141.53907775878906 93.22664642333984 125.40080261230469 92.69789123535156 112.6914291381836 87.28150177001953 C 103.24125671386719 82.98797607421875 99.5643539428711 78.72506713867188 98.49651336669922 76.86263275146484 C 98.7018051147461 76.8422622680664 98.95162963867188 77.39472961425781 99.0662612915039 77.38894653320312 C 98.2519760131836 76.3455810546875 96.5698471069336 74.66085815429688 95.37466430664062 71.68922424316406 C 93.9170913696289 69.05280303955078 93.60086059570312 66.89157104492188 93.51713562011719 65.96414184570312 C 93.4981918334961 66.2131118774414 93.46546173095703 66.96485137939453 93.96369934082031 67.4217758178711 C 94.16094207763672 66.49210357666016 93.26301574707031 65.36105346679688 92.95653533935547 64.0027847290039 C 92.96302795410156 61.93726348876953 93.06212615966797 60.35892868041992 92.9422836303711 59.416015625 C 91.54354858398438 59.12654495239258 90.25044250488281 59.048484802246094 89.3436279296875 59.14628601074219 C 89.10286712646484 59.196380615234375 89.40022277832031 59.0780029296875 90.12010192871094 59.1431884765625 C 91.07260131835938 59.09560775756836 92.10923767089844 59.23678970336914 92.83670806884766 59.4388542175293 C 93.3055191040039 58.92668533325195 94.0547866821289 58.0615119934082 93.91822052001953 56.37636947631836 C 93.888427734375 54.68702697753906 95.37328338623047 52.80497360229492 96.41715240478516 50.031620025634766 C 97.74415588378906 48.32950210571289 98.96015167236328 46.83225631713867 99.54608154296875 45.582820892333984 C 100.64657592773438 44.75896072387695 101.07707977294922 43.630733489990234 101.79300689697266 43.89140701293945 C 100.96141815185547 44.95175552368164 100.09973907470703 45.842185974121094 100.14053344726562 45.678955078125 C 103.84638214111328 42.59068298339844 106.47777557373047 31.654943466186523 148.3715362548828 32.478233337402344" stroke-width="0.0" fill="rgb(254, 219, 197)" opacity="1.0" stroke="rgb(53, 217, 64)" stroke-opacity="0.8919255" stroke-linecap="round" stroke-linejoin="round"/>
    <path d="M 180.53053283691406 121.11204528808594 C 179.46939086914062 119.48909759521484 178.95260620117188 117.8600845336914 178.9268341064453 116.42593383789062 C 178.9128875732422 115.50911712646484 179.03660583496094 115.05911254882812 179.000244140625 115.38884735107422 C 178.7447509765625 116.51792907714844 178.98953247070312 117.94387817382812 179.79710388183594 119.8289566040039 C 180.9969482421875 122.02906036376953 182.4727783203125 124.12296295166016 183.8358154296875 126.65130615234375 C 184.2071533203125 128.1700439453125 183.617919921875 130.22323608398438 184.3668670654297 131.76475524902344 C 183.16519165039062 132.15237426757812 181.45921325683594 132.36947631835938 179.0867919921875 132.99549865722656 C 176.28350830078125 132.95449829101562 173.7764892578125 133.0729217529297 172.0857391357422 132.8977508544922 C 171.6958770751953 131.6759490966797 173.2209930419922 130.39137268066406 173.0628204345703 128.17340087890625 C 172.91693115234375 125.08318328857422 173.01856994628906 122.49539947509766 173.67105102539062 120.69818878173828 C 174.10189819335938 120.52981567382812 174.5704803466797 122.19287872314453 176.24769592285156 123.78751373291016 C 177.9357452392578 125.5509262084961 179.13282775878906 126.76383209228516 179.4431915283203 127.16680145263672 C 178.87078857421875 126.50418853759766 177.0731964111328 124.75840759277344 174.52760314941406 121.94843292236328 C 173.6439971923828 118.65904235839844 173.9351043701172 114.2379150390625 174.96066284179688 111.19730377197266 C 175.5857696533203 110.7737808227539 177.18038940429688 112.8890380859375 179.59486389160156 116.78182983398438 C 182.44590759277344 122.44638061523438 185.14385986328125 128.87954711914062 180.53053283691406 121.11204528808594" stroke-width="0.0" fill="rgb(141, 210, 95)" opacity="0.9999993" stroke="rgb(169, 104, 123)" stroke-opacity="0.56057084" stroke-linecap="round" stroke-linejoin="round"/>
    <path d="M 159.00848388671875 58.72654342651367 C 161.53378295898438 56.629173278808594 162.01129150390625 57.32909393310547 159.55905151367188 58.3973503112793 C 156.4477996826172 58.646949768066406 156.6586151123047 56.57456588745117 157.41001892089844 54.41825866699219 C 156.65899658203125 54.343326568603516 157.17071533203125 54.61737060546875 159.30421447753906 53.81967544555664 C 161.26983642578125 55.12662124633789 162.53225708007812 56.788429260253906 159.00848388671875 58.72654342651367" stroke-width="0.0" fill="rgb(1, 0, 0)" opacity="0.9999177" stroke="rgb(218, 186, 179)" stroke-opacity="0.35841602" stroke-linecap="round" stroke-linejoin="round"/>
    <path d="M 115.62892150878906 51.7762336730957 C 114.33696746826172 53.600521087646484 113.93290710449219 56.5191764831543 117.62428283691406 56.16399383544922 C 119.04875946044922 52.34321212768555 120.03964233398438 53.364131927490234 117.9776611328125 56.10795593261719 C 117.65169525146484 55.43034362792969 119.43080139160156 53.73964309692383 118.29438781738281 52.4721794128418 C 118.38202667236328 52.414119720458984 120.54859924316406 52.46946716308594 115.62892150878906 51.7762336730957" stroke-width="0.0" fill="rgb(0, 0, 0)" opacity="0.9998965" stroke="rgb(27, 20, 199)" stroke-opacity="0.106971696" stroke-linecap="round" stroke-linejoin="round"/>
    <path d="M 86.11164093017578 -6.911957263946533 C 83.16524505615234 -3.182832717895508 85.21302032470703 0.339619517326355 86.83694458007812 3.760470151901245 C 81.33787536621094 1.5568830966949463 78.96269226074219 1.0951786041259766 85.19007110595703 0.9833486676216125 C 86.20042419433594 -0.08765480667352676 78.93301391601562 0.33016055822372437 73.56458282470703 8.213212013244629 C 72.40908813476562 2.788658618927002 79.83843231201172 1.0223313570022583 86.11164093017578 -6.911957263946533" stroke-width="0.0" fill="rgb(10, 10, 10)" opacity="0.99978244" stroke="rgb(56, 40, 134)" stroke-opacity="0.8495241" stroke-linecap="round" stroke-linejoin="round"/>
    <path d="M 87.00951385498047 7.3005266189575195 C 87.82354736328125 9.91480541229248 89.44125366210938 9.627803802490234 91.36163330078125 9.310596466064453 C 90.2928237915039 9.76866626739502 89.01038360595703 9.221957206726074 87.8718490600586 9.592572212219238 C 88.72755432128906 17.710445404052734 88.64876556396484 23.105802536010742 91.47872924804688 20.24269676208496 C 90.38377380371094 7.303665637969971 84.49845886230469 -7.942737102508545 87.00951385498047 7.3005266189575195" stroke-width="0.0" fill="rgb(3, 3, 3)" opacity="0.9998425" stroke="rgb(97, 118, 229)" stroke-opacity="0.5084811" stroke-linecap="round" stroke-linejoin="round"/>
  </g>
</svg>
