<?xml version="1.0" ?>
<svg xmlns="http://www.w3.org/2000/svg" version="1.1" width="222" height="406">
  <defs/>
  <g>
    <path d="M -7.848695278167725 -8.367780685424805 C 5.760642051696777 -10.957378387451172 19.054960250854492 -12.615144729614258 30.953550338745117 -12.359088897705078 C 40.1683464050293 -9.877345085144043 45.754032135009766 -5.6291375160217285 47.30882263183594 -1.2352999448776245 C 46.356842041015625 0.9744388461112976 47.176597595214844 0.2616378962993622 51.82090759277344 -2.935683012008667 C 60.16001892089844 -5.915186882019043 70.93341064453125 -7.146639823913574 82.76158142089844 -6.104369163513184 C 93.98401641845703 -5.157410144805908 103.62572479248047 -5.0712738037109375 110.67377471923828 -6.135416507720947 C 115.08299255371094 -7.511388778686523 118.00821685791016 -8.269120216369629 120.88823699951172 -8.26243782043457 C 124.90082550048828 -8.058937072753906 130.1677703857422 -7.350067138671875 136.4271240234375 -6.3871331214904785 C 143.5395965576172 -5.510612964630127 151.1262664794922 -5.012813568115234 159.0370635986328 -5.372214317321777 C 167.20327758789062 -6.625105381011963 175.755859375 -8.394214630126953 184.65057373046875 -9.850337982177734 C 193.68704223632812 -10.513971328735352 202.56654357910156 -9.965206146240234 210.9414520263672 -8.06951904296875 C 218.33514404296875 -4.71926736831665 224.2719268798828 0.08835875988006592 228.61094665527344 6.000922679901123 C 231.37791442871094 12.790620803833008 232.5046844482422 20.174468994140625 232.4720458984375 27.857458114624023 C 232.141357421875 35.61262893676758 231.8699188232422 43.285884857177734 231.73143005371094 50.81048583984375 C 231.70013427734375 58.191036224365234 231.73513793945312 65.3967514038086 231.77499389648438 72.38593292236328 C 231.77273559570312 79.20570373535156 231.7740936279297 85.97708892822266 231.7972869873047 92.76981353759766 C 231.75331115722656 99.66217803955078 231.62261962890625 106.68843841552734 231.6533203125 113.84220886230469 C 232.05673217773438 121.2074203491211 232.37295532226562 128.75721740722656 232.3161163330078 136.39227294921875 C 231.7278594970703 144.05584716796875 230.6273193359375 151.68898010253906 229.35032653808594 159.2104034423828 C 228.2563934326172 166.5827178955078 227.97991943359375 173.74160766601562 228.92083740234375 180.65093994140625 C 230.49578857421875 187.34445190429688 231.8674774169922 193.8309783935547 232.6646728515625 200.19175720214844 C 232.65765380859375 206.5430145263672 232.17233276367188 212.9075164794922 231.7028045654297 219.32945251464844 C 231.59400939941406 225.95216369628906 231.69149780273438 232.73008728027344 231.78640747070312 239.61070251464844 C 231.7900848388672 246.59292602539062 231.77069091796875 253.6995086669922 231.76695251464844 260.8713073730469 C 231.76930236816406 268.0309143066406 231.76998901367188 275.1872863769531 231.7694549560547 282.3058776855469 C 231.76925659179688 289.3558349609375 231.76950073242188 296.2999267578125 231.76991271972656 303.14178466796875 C 231.7677764892578 309.900390625 231.76365661621094 316.6319274902344 231.7726593017578 323.3778991699219 C 231.80303955078125 330.2102966308594 231.78672790527344 337.2099914550781 231.70196533203125 344.43402099609375 C 231.64315795898438 351.98004150390625 231.74819946289062 359.8919372558594 232.07583618164062 368.11602783203125 C 232.4803466796875 376.55621337890625 232.50888061523438 385.0069580078125 231.59544372558594 393.12347412109375 C 229.36927795410156 400.4927978515625 225.8579559326172 406.8252258300781 221.15219116210938 411.77740478515625 C 215.43380737304688 414.9459533691406 208.86082458496094 416.43121337890625 201.60568237304688 416.7079772949219 C 193.86968994140625 416.3934631347656 185.8537139892578 415.94610595703125 177.6696319580078 415.66693115234375 C 169.55743408203125 415.6552429199219 161.6583709716797 415.73358154296875 154.01377868652344 415.7550964355469 C 146.71192932128906 415.7515563964844 139.82713317871094 415.8039855957031 133.2849578857422 415.8890686035156 C 127.0068130493164 415.9390869140625 120.94405364990234 415.91241455078125 115.00662994384766 415.804443359375 C 109.09298706054688 415.4854736328125 103.13641357421875 414.7555236816406 97.04955291748047 413.49908447265625 C 90.70356750488281 411.62518310546875 83.94925689697266 410.6959533691406 76.62468719482422 411.1539611816406 C 68.67398834228516 412.6092834472656 60.245384216308594 414.30780029296875 51.46113586425781 415.6511535644531 C 42.48474884033203 416.35577392578125 33.5516242980957 416.69586181640625 24.91531753540039 416.94989013671875 C 16.836620330810547 416.8458251953125 9.610904693603516 415.63946533203125 3.563882827758789 412.68377685546875 C -1.0819693803787231 407.5738525390625 -4.280526161193848 400.6053466796875 -6.146167278289795 392.3164978027344 C -7.003655433654785 383.43267822265625 -7.253662109375 374.89788818359375 -7.372680187225342 367.60986328125 C -7.698642730712891 361.53973388671875 -7.9138102531433105 355.9139099121094 -7.694756984710693 349.9848327636719 C -7.057051658630371 343.14727783203125 -6.379993438720703 335.2084045410156 -6.261632442474365 326.2676696777344 C -6.818332672119141 316.6314697265625 -7.554998397827148 307.1874694824219 -7.827332496643066 298.67279052734375 C -7.251136302947998 291.9205017089844 -6.5902485847473145 286.638427734375 -6.761056423187256 281.3216247558594 C -8.198708534240723 274.9251403808594 -9.601611137390137 267.14288330078125 -9.11954402923584 258.34857177734375 C -7.335917949676514 249.178955078125 -6.077923774719238 240.81813049316406 -5.744045257568359 234.4296417236328 C -5.552103519439697 230.61502075195312 -5.489938259124756 228.66355895996094 -5.537318229675293 227.18934631347656 C -6.485702037811279 223.56594848632812 -8.526453018188477 216.381103515625 -10.253434181213379 206.46612548828125 C -9.122026443481445 195.03907775878906 -4.758088111877441 183.99716186523438 1.7330207824707031 177.61317443847656 C 6.28303337097168 177.18508911132812 1.8071449995040894 177.01914978027344 -6.395529270172119 173.3842010498047 C -10.27191162109375 165.43173217773438 -10.260522842407227 155.08969116210938 -7.750065326690674 143.68698120117188 C -4.641850471496582 132.60812377929688 -2.941216468811035 122.87130737304688 -3.3572998046875 115.53479766845703 C -5.254059314727783 109.9774398803711 -6.782567024230957 104.93067932128906 -7.477322578430176 99.24370574951172 C -7.153961181640625 92.03462982177734 -7.08772611618042 83.58842468261719 -8.09987735748291 74.40226745605469 C -9.36119270324707 65.10218811035156 -9.277145385742188 57.020652770996094 -7.346972465515137 51.440853118896484 C -4.808817386627197 49.247806549072266 -3.7912938594818115 48.495723724365234 -4.387213706970215 46.98979949951172 C -5.895029544830322 42.76104736328125 -7.975398063659668 35.739036560058594 -10.478342056274414 26.444482803344727 C -13.252411842346191 15.691725730895996 -16.069643020629883 4.495886325836182 -7.848695278167725 -8.367780685424805" stroke-width="0.0" fill="rgb(234, 229, 225)" opacity="1.0" stroke="rgb(205, 158, 225)" stroke-opacity="0.2682998" stroke-linecap="round" stroke-linejoin="round"/>
    <path d="M 60.47002410888672 89.87635040283203 C 62.899322509765625 90.2120132446289 65.1729965209961 90.79228973388672 67.17350006103516 91.351318359375 C 68.75164031982422 91.96422576904297 69.99915313720703 92.33079528808594 71.01646423339844 92.54344940185547 C 71.93540954589844 92.56684112548828 72.5459213256836 92.72045135498047 72.93888092041016 93.06442260742188 C 73.38185119628906 93.7470703125 74.23237609863281 94.44510650634766 75.78286743164062 94.99549865722656 C 77.95680236816406 95.57799530029297 80.74189758300781 96.28470611572266 84.04458618164062 97.15872192382812 C 87.50789642333984 98.30026245117188 90.8912582397461 99.41658020019531 93.95635223388672 100.01268768310547 C 96.44425964355469 100.12328338623047 98.14131927490234 100.3050537109375 99.03533935546875 100.52539825439453 C 99.27762603759766 100.89167022705078 99.43505096435547 101.40267944335938 100.23870086669922 101.907470703125 C 101.88316345214844 102.24772644042969 104.49676513671875 102.47071838378906 107.9480209350586 102.74052429199219 C 111.80970764160156 103.12127685546875 115.68120574951172 103.29617309570312 119.05753326416016 103.1911849975586 C 121.41394805908203 102.5901107788086 122.93669128417969 101.49848175048828 123.88742065429688 100.04882049560547 C 124.40290832519531 98.41400146484375 124.61209106445312 97.11419677734375 124.92481231689453 96.58865356445312 C 125.59427642822266 97.04600524902344 126.95454406738281 98.26897430419922 129.14364624023438 100.03046417236328 C 132.1931915283203 101.53301239013672 135.8193817138672 102.60250091552734 139.75738525390625 103.27393341064453 C 143.83941650390625 103.44227600097656 147.98121643066406 103.32181549072266 151.93630981445312 103.02511596679688 C 155.46910095214844 102.63359832763672 158.6527557373047 102.0279312133789 161.6774139404297 101.26083374023438 C 164.64637756347656 100.36673736572266 167.4901885986328 99.50049591064453 170.11634826660156 98.94669342041016 C 172.26551818847656 98.65452575683594 173.80441284179688 98.82295227050781 174.61952209472656 99.45846557617188 C 174.75991821289062 100.56233978271484 174.5270538330078 102.11927795410156 174.0804901123047 104.00618743896484 C 173.63070678710938 106.09066009521484 173.39743041992188 108.21102905273438 173.5623321533203 110.21036529541016 C 174.07139587402344 112.12556457519531 174.9656524658203 113.83943176269531 176.02589416503906 115.55237579345703 C 177.14016723632812 117.3214340209961 178.20899963378906 119.44291687011719 179.05615234375 122.05106353759766 C 179.45713806152344 125.26020812988281 179.45513916015625 129.02645874023438 179.104248046875 133.3127899169922 C 178.48635864257812 137.77198791503906 177.82870483398438 142.01087951660156 177.26194763183594 145.85963439941406 C 176.82012939453125 149.09719848632812 176.17160034179688 151.7257537841797 175.14646911621094 153.7731170654297 C 173.57667541503906 155.28053283691406 171.78688049316406 156.54196166992188 169.95074462890625 157.83798217773438 C 168.49905395507812 159.4429168701172 167.5269775390625 161.37245178222656 166.87139892578125 163.48594665527344 C 166.6066131591797 165.77359008789062 166.66798400878906 168.0634002685547 166.689453125 170.25711059570312 C 166.48306274414062 172.28195190429688 165.90345764160156 174.1281280517578 165.21304321289062 175.85186767578125 C 164.6119842529297 177.5089111328125 164.32235717773438 179.12344360351562 164.35238647460938 180.67648315429688 C 164.47145080566406 182.30470275878906 164.3928985595703 183.95668029785156 164.0961456298828 185.9529266357422 C 163.54139709472656 188.4045867919922 162.63685607910156 191.43980407714844 161.35240173339844 194.89761352539062 C 160.0546112060547 198.44520568847656 159.1367645263672 201.81149291992188 158.45562744140625 204.54232788085938 C 157.81167602539062 206.45248413085938 157.02243041992188 207.6749267578125 155.866943359375 208.3227081298828 C 154.02684020996094 208.7498779296875 151.3627471923828 208.8851776123047 147.93710327148438 208.7964630126953 C 143.8413543701172 208.91909790039062 139.56935119628906 209.14691162109375 135.43853759765625 209.44729614257812 C 131.6908721923828 209.8682861328125 128.4243621826172 210.24061584472656 125.59294128417969 210.4604034423828 C 123.11140441894531 210.51031494140625 120.70977783203125 210.3330078125 118.19501495361328 210.09071350097656 C 115.3233871459961 209.94752502441406 112.14640808105469 209.87667846679688 108.70477294921875 209.926513671875 C 105.0335922241211 210.17767333984375 101.26776123046875 210.4066925048828 97.51961517333984 210.5348358154297 C 93.70642852783203 210.2096710205078 89.83733367919922 209.42185974121094 85.91205596923828 208.29539489746094 C 81.93525695800781 207.20220947265625 78.08096313476562 206.13148498535156 74.43173217773438 205.38888549804688 C 70.93028259277344 205.03909301757812 67.65955352783203 205.01759338378906 64.74600219726562 205.00779724121094 C 62.310211181640625 204.85794067382812 60.44942092895508 204.4765625 59.10591506958008 203.66680908203125 C 58.047542572021484 202.23838806152344 57.069374084472656 200.2230224609375 56.19394302368164 197.6737823486328 C 55.49976348876953 194.6593475341797 54.12252426147461 191.76559448242188 51.71285629272461 189.11691284179688 C 49.1523323059082 186.47634887695312 47.05445098876953 183.2810516357422 45.413326263427734 179.712646484375 C 44.33761978149414 175.94178771972656 43.91773223876953 171.9853515625 43.87636947631836 167.88551330566406 C 44.11898422241211 163.72998046875 44.41276550292969 159.6340789794922 44.674644470214844 155.71583557128906 C 44.708126068115234 152.0702667236328 44.86564254760742 148.83932495117188 45.618282318115234 146.26112365722656 C 47.14318084716797 144.48611450195312 49.461368560791016 143.23049926757812 52.372318267822266 142.19419860839844 C 55.617698669433594 140.95774841308594 58.993560791015625 139.40286254882812 62.29545211791992 137.4468231201172 C 65.34612274169922 135.29415893554688 67.97109985351562 133.37954711914062 70.11112976074219 131.8492889404297 C 71.6263656616211 130.68115234375 72.70448303222656 129.75904846191406 73.4146957397461 128.66290283203125 C 74.0087661743164 127.15029907226562 74.45964050292969 125.38195037841797 74.71478271484375 123.31837463378906 C 74.71365356445312 120.99266815185547 74.1563949584961 118.59306335449219 72.82103729248047 116.27559661865234 C 70.80803680419922 114.13496398925781 68.22896575927734 112.12322998046875 65.35945129394531 110.15745544433594 C 62.5108757019043 108.32080841064453 60.29601287841797 106.37891387939453 58.92897033691406 104.21247100830078 C 58.51498794555664 101.71112823486328 58.7903938293457 98.88407135009766 59.5078125 95.8512191772461 C 60.47955322265625 92.72802734375 61.50904083251953 89.58314514160156 60.47002410888672 89.87635040283203" stroke-width="0.0" fill="rgb(0, 169, 212)" opacity="1.0" stroke="rgb(137, 48, 94)" stroke-opacity="0.7159321" stroke-linecap="round" stroke-linejoin="round"/>
    <path d="M 58.509769439697266 197.97804260253906 C 59.543819427490234 197.85939025878906 60.550724029541016 197.77841186523438 61.463890075683594 197.72265625 C 62.204795837402344 197.74026489257812 62.726768493652344 197.75143432617188 63.00412368774414 197.89288330078125 C 62.99760437011719 198.03656005859375 62.77605056762695 198.3029327392578 62.525856018066406 198.6728515625 C 62.402793884277344 198.97915649414062 62.46813201904297 199.30374145507812 62.811832427978516 199.5103759765625 C 63.45830154418945 199.61293029785156 64.40864562988281 199.65834045410156 65.72664642333984 199.6733856201172 C 67.28909301757812 199.69126892089844 68.91477966308594 199.76834106445312 70.3316650390625 199.92315673828125 C 71.46288299560547 200.1879425048828 72.2564926147461 200.5611572265625 72.65435791015625 200.994140625 C 72.64968872070312 201.34457397460938 72.26258850097656 201.50466918945312 71.66142272949219 201.4844970703125 C 71.1342544555664 201.455810546875 70.88684844970703 201.41281127929688 71.11309814453125 201.45472717285156 C 72.13825225830078 201.57679748535156 73.81907653808594 201.71348571777344 75.8605728149414 201.90919494628906 C 77.93507385253906 202.1125946044922 79.76119232177734 202.18417358398438 81.30335998535156 202.0006561279297 C 82.52621459960938 201.7411346435547 83.44464874267578 201.43948364257812 84.18921661376953 201.3512725830078 C 84.94649505615234 201.3194580078125 85.82364654541016 201.5557098388672 86.84883117675781 201.88072204589844 C 88.0867691040039 202.19544982910156 89.3542251586914 202.52456665039062 90.50228881835938 202.7413787841797 C 91.47087860107422 202.83164978027344 92.0457534790039 202.85366821289062 92.17489624023438 202.68589782714844 C 91.88939666748047 202.325439453125 91.35762023925781 202.00587463378906 90.82379150390625 201.8759765625 C 90.54374694824219 202.08013916015625 90.69844055175781 202.48936462402344 91.37054443359375 203.02806091308594 C 92.4268798828125 203.50115966796875 93.73771667480469 203.8497772216797 95.2267074584961 204.0336456298828 C 96.83512115478516 204.13882446289062 98.404052734375 204.21246337890625 99.80220794677734 204.1981201171875 C 101.06028747558594 204.11451721191406 102.26673889160156 204.08518981933594 103.38936614990234 204.1314239501953 C 104.37199401855469 204.1813507080078 105.21434020996094 204.194580078125 105.9693374633789 204.1545867919922 C 106.7396469116211 204.0820770263672 107.5855484008789 204.0112762451172 108.5483169555664 203.97503662109375 C 109.6515121459961 204.00404357910156 110.84597778320312 204.06787109375 112.10088348388672 204.1125946044922 C 113.52526092529297 204.1176300048828 115.23709869384766 204.02481079101562 117.10623931884766 203.8381805419922 C 119.11090850830078 203.64260864257812 121.13337707519531 203.46112060546875 123.02521514892578 203.29840087890625 C 124.8437728881836 203.19024658203125 126.5237808227539 203.07061767578125 128.06211853027344 203.07008361816406 C 129.49252319335938 203.15818786621094 130.8936309814453 203.1611328125 132.32232666015625 203.1952362060547 C 133.80995178222656 203.076171875 135.3638153076172 202.9661102294922 137.03945922851562 202.84356689453125 C 138.82382202148438 202.6676788330078 140.60580444335938 202.54591369628906 142.42762756347656 202.4099578857422 C 144.18148803710938 202.28778076171875 145.75563049316406 202.17140197753906 147.2110137939453 201.94424438476562 C 148.62245178222656 201.74111938476562 150.1348876953125 201.47996520996094 151.8641357421875 201.2214813232422 C 153.83042907714844 201.0238800048828 155.74545288085938 200.91421508789062 157.45814514160156 200.91162109375 C 158.57656860351562 200.83473205566406 159.24256896972656 200.50128173828125 159.53968811035156 199.89183044433594 C 159.80636596679688 199.26358032226562 160.1726531982422 199.288330078125 160.7904510498047 200.527587890625 C 162.00425720214844 203.29629516601562 163.5477752685547 207.18063354492188 165.20657348632812 211.5251922607422 C 166.80398559570312 215.60562133789062 167.95713806152344 219.00332641601562 168.48399353027344 221.42869567871094 C 168.00416564941406 222.77099609375 166.6585235595703 223.57301330566406 164.49105834960938 224.30776977539062 C 161.5668487548828 224.82032775878906 158.01165771484375 225.00669860839844 153.962646484375 224.70712280273438 C 149.77017211914062 223.39488220214844 146.12063598632812 221.6573486328125 143.68736267089844 220.14434814453125 C 143.0760040283203 219.3900604248047 143.66856384277344 220.06307983398438 144.52285766601562 221.3148956298828 C 144.53439331054688 222.025146484375 143.38121032714844 222.13714599609375 141.07931518554688 221.989013671875 C 137.74937438964844 222.1453094482422 134.24246215820312 222.29737854003906 131.32420349121094 221.93975830078125 C 129.75416564941406 221.09715270996094 129.30633544921875 220.50218200683594 129.19456481933594 220.3759765625 C 128.3696746826172 220.79209899902344 126.5690689086914 221.614501953125 123.93743896484375 222.24465942382812 C 120.70924377441406 222.7144012451172 117.14958953857422 223.1317901611328 113.58733367919922 223.53536987304688 C 110.24736022949219 223.7598114013672 107.44808959960938 223.522216796875 105.48703002929688 222.8284149169922 C 104.28524780273438 221.93527221679688 103.52952575683594 220.98947143554688 102.89146423339844 220.31298828125 C 102.22748565673828 220.19773864746094 101.34883880615234 220.54127502441406 100.02263641357422 221.11647033691406 C 97.97891235351562 221.73419189453125 95.19915008544922 222.1636505126953 91.725341796875 222.36248779296875 C 87.92292022705078 222.25538635253906 84.33855438232422 222.3470001220703 81.3224105834961 222.82481384277344 C 79.1097412109375 223.68948364257812 77.6673812866211 224.71112060546875 76.72158813476562 225.79592895507812 C 75.88249969482422 226.9029998779297 75.00306701660156 227.7300262451172 73.94644927978516 228.04481506347656 C 72.51502227783203 227.39173889160156 70.7578125 225.89114379882812 68.77153778076172 223.92520141601562 C 66.5383071899414 221.97044372558594 64.12934112548828 220.5175018310547 61.64087677001953 219.43585205078125 C 59.03459167480469 218.5353240966797 56.497955322265625 217.3520050048828 54.43690490722656 215.90725708007812 C 52.822547912597656 214.10707092285156 51.836830139160156 212.33433532714844 51.13043212890625 210.63912963867188 C 50.894073486328125 209.51588439941406 51.496864318847656 208.72157287597656 52.406742095947266 207.94473266601562 C 53.427005767822266 206.63833618164062 54.58838653564453 204.7391815185547 55.71686553955078 202.86782836914062 C 56.65693664550781 201.32357788085938 57.394405364990234 199.90020751953125 58.14009094238281 198.68446350097656 C 58.98439407348633 197.8515167236328 59.9281120300293 197.15541076660156 58.509769439697266 197.97804260253906" stroke-width="0.0" fill="rgb(0, 85, 211)" opacity="0.9999777" stroke="rgb(111, 148, 228)" stroke-opacity="0.94932014" stroke-linecap="round" stroke-linejoin="round"/>
    <path d="M 78.95883178710938 118.15821838378906 C 79.55447387695312 119.32492065429688 80.05774688720703 120.56670379638672 80.50614929199219 122.0034408569336 C 80.8649673461914 123.7109375 81.01690673828125 125.48847198486328 80.9769287109375 127.18586730957031 C 80.85350799560547 128.6792449951172 80.55547332763672 129.8948974609375 80.2615966796875 130.91847229003906 C 79.90862274169922 131.86619567871094 79.66337585449219 132.7293701171875 79.5534439086914 133.5751190185547 C 79.42149353027344 134.48793029785156 79.1019058227539 135.5458221435547 78.49156951904297 136.7346954345703 C 77.57833099365234 137.98480224609375 76.54969024658203 139.23855590820312 75.51068115234375 140.4230194091797 C 74.72727966308594 141.36781311035156 74.09698486328125 142.1817626953125 73.73957061767578 142.77842712402344 C 73.42839813232422 143.2362060546875 73.01118469238281 143.68370056152344 72.29893493652344 144.29673767089844 C 71.1346206665039 145.21005249023438 69.53441619873047 146.39805603027344 67.59281158447266 147.7101287841797 C 65.50371551513672 148.97598266601562 63.51866912841797 150.12335205078125 61.87764358520508 150.87527465820312 C 60.82884216308594 151.19686889648438 60.27547073364258 151.14016723632812 60.04359817504883 151.041259765625 C 59.88925552368164 151.1028594970703 59.63621139526367 151.1733856201172 59.26165008544922 151.34239196777344 C 58.66141128540039 151.6322784423828 57.959449768066406 151.9739532470703 57.294334411621094 152.31192016601562 C 56.78339385986328 152.58192443847656 56.349403381347656 152.6763153076172 55.94209289550781 152.54904174804688 C 55.461448669433594 152.1972198486328 54.83647537231445 151.7772674560547 54.0746955871582 151.72889709472656 C 53.234066009521484 152.14077758789062 52.49817657470703 152.94308471679688 51.94590759277344 154.1018829345703 C 51.690711975097656 155.42971801757812 51.61125946044922 156.8536834716797 51.67478942871094 158.32249450683594 C 51.696434020996094 159.72988891601562 51.68290328979492 161.04205322265625 51.676551818847656 162.306640625 C 51.67284393310547 163.53341674804688 51.633785247802734 164.72071838378906 51.53770446777344 165.8872833251953 C 51.500831604003906 167.0496826171875 51.5064582824707 167.96603393554688 51.541141510009766 168.66824340820312 C 51.53609085083008 169.25445556640625 51.373931884765625 169.73190307617188 51.17457580566406 170.1333465576172 C 51.00165939331055 170.44773864746094 50.857303619384766 170.78973388671875 50.77539825439453 171.44618225097656 C 50.77496337890625 172.57069396972656 50.76102828979492 174.12034606933594 50.75581741333008 175.99447631835938 C 50.72454833984375 178.02139282226562 50.61055374145508 180.05941772460938 50.3159065246582 181.99171447753906 C 49.846771240234375 183.55828857421875 49.119503021240234 184.5272979736328 48.10536575317383 184.86526489257812 C 47.00546646118164 184.66262817382812 46.01115036010742 184.4087677001953 45.243568420410156 184.30615234375 C 44.73695755004883 184.1900177001953 44.37290954589844 184.02413940429688 43.96607971191406 183.79473876953125 C 43.325130462646484 183.5025634765625 42.303218841552734 183.29908752441406 40.903621673583984 183.0209197998047 C 39.02949905395508 182.40870666503906 36.99016571044922 181.58058166503906 35.046722412109375 180.7244873046875 C 33.499061584472656 179.9939422607422 32.38819885253906 179.3594207763672 31.629352569580078 178.8536376953125 C 31.018461227416992 178.6133575439453 30.264053344726562 178.3402099609375 29.35080337524414 177.94882202148438 C 28.244094848632812 177.26992797851562 27.19354820251465 176.3182830810547 26.37525177001953 175.18807983398438 C 25.895246505737305 173.7602081298828 25.828807830810547 172.24729919433594 26.02849769592285 170.87808227539062 C 26.3541316986084 169.81028747558594 26.616146087646484 169.06552124023438 26.766847610473633 168.7139434814453 C 26.695573806762695 168.8100128173828 26.57656478881836 169.112060546875 26.542545318603516 169.2824249267578 C 26.724149703979492 169.01626586914062 27.132492065429688 168.0758514404297 27.532699584960938 166.54177856445312 C 27.95615577697754 164.6444549560547 28.2291316986084 162.54690551757812 28.243907928466797 160.45712280273438 C 27.968158721923828 158.5522003173828 27.567033767700195 156.9468536376953 27.155385971069336 155.72232055664062 C 27.042478561401367 154.6979522705078 27.16995620727539 153.7086944580078 27.594175338745117 152.5994110107422 C 28.200969696044922 151.35409545898438 28.79630470275879 150.09817504882812 29.20941734313965 148.96141052246094 C 29.306930541992188 148.11114501953125 29.068628311157227 147.56011962890625 28.677642822265625 147.37451171875 C 28.454065322875977 147.53231811523438 28.434711456298828 147.78782653808594 28.74913215637207 147.97633361816406 C 29.420576095581055 148.05072021484375 30.343019485473633 147.96009826660156 31.30967903137207 147.60491943359375 C 32.17232894897461 146.99935913085938 32.89188766479492 146.28221130371094 33.37912368774414 145.5065155029297 C 33.824337005615234 144.65911865234375 34.319576263427734 143.4969482421875 35.24391174316406 142.10870361328125 C 36.643611907958984 140.47994995117188 38.69702911376953 138.7356414794922 41.32387924194336 137.15081787109375 C 44.05095672607422 136.08497619628906 46.36440658569336 134.91329956054688 47.91889190673828 133.64285278320312 C 48.548255920410156 132.6494903564453 48.58481216430664 131.85726928710938 48.3911247253418 131.3494110107422 C 48.40117263793945 131.08859252929688 48.65341567993164 131.09390258789062 49.05894470214844 131.1313018798828 C 49.401466369628906 131.10997009277344 49.57408142089844 130.8957061767578 49.647369384765625 130.4309844970703 C 49.579429626464844 129.6831512451172 49.64221954345703 128.8420867919922 49.8741569519043 128.09686279296875 C 50.57774353027344 127.56552124023438 51.491878509521484 127.39291381835938 52.6064567565918 127.73902893066406 C 53.55224609375 128.48768615722656 54.3239631652832 129.67369079589844 54.76408004760742 131.43972778320312 C 54.963138580322266 133.3750457763672 54.86564636230469 135.28041076660156 54.848106384277344 136.935791015625 C 54.951324462890625 137.97340393066406 55.33760452270508 138.3556365966797 55.96442794799805 138.06773376464844 C 56.816341400146484 137.2186279296875 57.874820709228516 135.85589599609375 59.08833694458008 134.30511474609375 C 60.35205841064453 132.7169952392578 61.65863037109375 131.22979736328125 63.066715240478516 129.79405212402344 C 64.57323455810547 128.35745239257812 66.16583251953125 126.96715545654297 67.98751068115234 125.46343231201172 C 69.89292907714844 123.87615966796875 71.9131088256836 122.17422485351562 74.05937957763672 120.35755920410156 C 76.21331024169922 118.55009460449219 78.32039642333984 116.74959564208984 78.95883178710938 118.15821838378906" stroke-width="0.0" fill="rgb(89, 159, 43)" opacity="0.9999998" stroke="rgb(250, 125, 8)" stroke-opacity="0.95793885" stroke-linecap="round" stroke-linejoin="round"/>
  </g>
</svg>
