<?xml version="1.0" ?>
<svg xmlns="http://www.w3.org/2000/svg" version="1.1" width="638" height="767">
  <defs/>
  <g>
    <path d="M 143.8720703125 0.3353481590747833 C 141.96302795410156 -2.149852752685547 139.38348388671875 -4.102817535400391 138.1323699951172 -5.0624237060546875 C 140.45474243164062 -4.670347690582275 147.82717895507812 -2.2139732837677 155.03660583496094 7.413525581359863 C 153.12326049804688 26.843034744262695 150.40489196777344 49.50642395019531 148.4676513671875 69.91847229003906 C 146.84959411621094 87.12883758544922 144.89984130859375 103.2931137084961 143.437744140625 121.39449310302734 C 140.1551971435547 144.29937744140625 140.2638702392578 169.3174285888672 135.29302978515625 186.70211791992188 C 105.22283172607422 193.02606201171875 104.7731704711914 199.2382354736328 130.74269104003906 189.35049438476562 C 140.92926025390625 186.73777770996094 164.0802459716797 205.6273956298828 177.61448669433594 229.58348083496094 C 189.19949340820312 256.36785888671875 179.16615295410156 254.26742553710938 148.92491149902344 261.1987609863281 C 129.4866180419922 265.73321533203125 132.3717041015625 265.34356689453125 131.6938018798828 283.8498229980469 C 132.00965881347656 312.8092041015625 131.9344024658203 338.1522521972656 136.13600158691406 356.3529357910156 C 155.70452880859375 375.8838195800781 160.26904296875 363.85589599609375 182.6028289794922 365.06427001953125 C 182.51382446289062 342.94915771484375 190.3714141845703 328.6993408203125 205.07180786132812 307.99224853515625 C 219.23379516601562 291.46728515625 197.09617614746094 283.63604736328125 204.60073852539062 263.9762268066406 C 213.4733428955078 239.42478942871094 217.47113037109375 218.5165252685547 210.78448486328125 200.04183959960938 C 215.26866149902344 185.59791564941406 233.9744110107422 173.4677276611328 250.27931213378906 143.37451171875 C 245.50498962402344 115.75505065917969 248.53517150878906 101.22201538085938 273.90936279296875 118.09814453125 C 279.0074157714844 116.44855499267578 296.6378479003906 102.38310241699219 322.1533508300781 91.5545425415039 C 337.5734558105469 80.19620513916016 356.13970947265625 76.3366470336914 361.5735778808594 69.01602935791016 C 388.72650146484375 65.99800872802734 407.9584045410156 67.29473876953125 428.55987548828125 73.42943572998047 C 447.4742736816406 80.37896728515625 470.0395202636719 87.46261596679688 485.5368957519531 108.2191390991211 C 494.229248046875 131.179931640625 498.0918273925781 99.3494644165039 519.6016235351562 108.83171081542969 C 525.1412353515625 121.90473937988281 525.7542114257812 152.51583862304688 521.4827270507812 171.38063049316406 C 514.2384033203125 191.04246520996094 507.45074462890625 212.6508026123047 496.3310546875 229.34918212890625 C 486.55523681640625 233.2501983642578 502.1910705566406 245.64610290527344 523.0181274414062 257.8311767578125 C 527.86865234375 276.2507019042969 548.7747802734375 287.1868591308594 560.380859375 307.7608947753906 C 595.2703247070312 311.6123352050781 603.95947265625 295.9689025878906 608.901123046875 311.2326354980469 C 611.1840209960938 329.5114440917969 606.5944213867188 343.8147277832031 614.6315307617188 361.2707824707031 C 619.0238037109375 386.9706115722656 623.7360229492188 414.22119140625 618.8240356445312 436.2762145996094 C 617.1845703125 449.8656005859375 625.755126953125 461.536376953125 608.5897216796875 478.79473876953125 C 610.4373779296875 504.9815979003906 595.6034545898438 507.7394714355469 574.8763427734375 519.7874755859375 C 554.3329467773438 533.9370727539062 533.194091796875 537.1213989257812 535.8989868164062 557.7702026367188 C 531.1066284179688 584.3204345703125 528.1583251953125 587.4763793945312 543.4920043945312 597.6223754882812 C 537.1817626953125 621.4281616210938 537.2299194335938 641.8445434570312 555.683349609375 654.728759765625 C 569.2664794921875 677.1388549804688 571.0194702148438 700.2586669921875 552.0471801757812 707.8069458007812 C 538.8558349609375 723.4185791015625 517.1895141601562 721.82373046875 495.0189514160156 737.033203125 C 487.3928527832031 751.57763671875 467.96551513671875 756.873291015625 446.613037109375 764.4840698242188 C 428.0285949707031 769.4879760742188 411.88568115234375 769.4362182617188 394.86822509765625 766.4942016601562 C 375.1101989746094 763.4254150390625 355.1260681152344 761.3533935546875 337.7892761230469 755.9869995117188 C 316.9237976074219 741.9679565429688 325.0690002441406 727.0582885742188 333.0046691894531 706.2013549804688 C 318.30224609375 711.6911010742188 296.20953369140625 710.9390258789062 277.86920166015625 714.62451171875 C 266.7120666503906 726.1594848632812 248.05458068847656 721.6327514648438 227.17002868652344 726.8797607421875 C 207.1482696533203 729.6104736328125 189.1209259033203 731.4700927734375 169.0071563720703 732.9737548828125 C 147.68875122070312 735.8712768554688 128.8131103515625 732.0971069335938 107.99732208251953 721.8636474609375 C 95.17334747314453 718.8349609375 97.61895751953125 699.0736083984375 105.7669906616211 670.2571411132812 C 125.28004455566406 655.884033203125 104.76358032226562 657.4260864257812 87.54039764404297 634.9765014648438 C 88.3066177368164 613.0917358398438 110.02583312988281 629.1255493164062 129.01698303222656 617.82666015625 C 129.5694122314453 572.5499267578125 99.89469909667969 592.5186157226562 92.91627502441406 579.4210205078125 C 90.40058135986328 555.0790405273438 60.880714416503906 562.4573974609375 67.6598892211914 526.9164428710938 C 55.363250732421875 509.21923828125 45.28459548950195 492.97991943359375 38.0703239440918 474.3415832519531 C 30.433443069458008 457.0068054199219 41.11330795288086 441.36700439453125 34.77078628540039 415.6094970703125 C 19.936481475830078 396.6129150390625 28.182832717895508 385.2802429199219 46.013572692871094 373.32391357421875 C 23.360811233520508 371.13580322265625 11.563573837280273 377.0764465332031 9.480213165283203 354.9385070800781 C 4.065794944763184 329.2496032714844 4.639716625213623 307.512451171875 5.298480987548828 289.2649841308594 C 6.31725549697876 271.92059326171875 8.52694034576416 254.5255889892578 11.783747673034668 236.97218322753906 C 15.019793510437012 218.41683959960938 19.477941513061523 200.30694580078125 24.737001419067383 182.60650634765625 C 30.513927459716797 164.74510192871094 36.36725616455078 146.3397674560547 46.85808181762695 125.26148986816406 C 54.23630905151367 102.1732177734375 74.45623016357422 118.090087890625 89.5504379272461 99.95257568359375 C 102.40728759765625 63.637447357177734 90.03721618652344 74.61992645263672 65.6209487915039 71.90093231201172 C 59.892093658447266 55.906124114990234 84.22118377685547 33.95801544189453 102.73706817626953 18.202966690063477 C 119.52592468261719 6.448836803436279 138.1338653564453 0.3327219784259796 143.8720703125 0.3353481590747833" stroke-width="0.0" fill="rgb(0, 0, 0)" opacity="1.0" stroke="rgb(122, 246, 240)" stroke-opacity="0.344352" stroke-linecap="round" stroke-linejoin="round"/>
    <path d="M 397.4474182128906 75.36932373046875 C 398.8988952636719 75.27569580078125 399.98382568359375 75.9714584350586 400.7591247558594 77.41580200195312 C 402.1095275878906 78.1055679321289 402.939208984375 77.90834045410156 402.5257873535156 77.14512634277344 C 400.8591613769531 76.329345703125 399.5236511230469 75.7823257446289 399.501220703125 75.53114318847656 C 400.0654602050781 75.40663146972656 400.0948791503906 75.4480972290039 399.9849548339844 75.79644012451172 C 399.9769287109375 76.77349090576172 400.0533447265625 78.5602035522461 402.4065856933594 79.38247680664062 C 410.657470703125 79.11548614501953 421.0943298339844 81.29635620117188 430.89959716796875 84.93206787109375 C 439.16229248046875 87.97113800048828 446.8736877441406 91.51117706298828 455.76019287109375 95.87753295898438 C 465.2474365234375 101.21961212158203 472.42901611328125 107.64959716796875 476.8075866699219 116.68262481689453 C 479.7262268066406 127.15436553955078 479.56591796875 136.98245239257812 475.3246154785156 144.42340087890625 C 469.02197265625 148.65615844726562 464.1688537597656 150.04464721679688 463.3240966796875 149.20172119140625 C 467.1710510253906 146.8980255126953 474.7625427246094 143.75975036621094 484.607666015625 139.1953887939453 C 494.22509765625 131.53358459472656 502.9863586425781 122.26895141601562 510.99237060546875 116.43762969970703 C 514.7339477539062 117.48225402832031 513.9610595703125 124.16567993164062 513.1924438476562 134.0062255859375 C 513.7998046875 144.55079650878906 514.0697631835938 154.5714111328125 512.4732666015625 163.505126953125 C 510.30084228515625 171.58377075195312 507.8341979980469 179.3118133544922 504.808349609375 187.1287841796875 C 501.3341979980469 195.33323669433594 497.56201171875 203.9019012451172 493.8652038574219 211.8958282470703 C 490.6511535644531 217.48800659179688 484.65692138671875 221.4652557373047 474.9937744140625 225.56919860839844 C 463.67840576171875 230.3283233642578 453.7139587402344 230.66265869140625 447.9693298339844 224.3917694091797 C 448.3435974121094 215.10169982910156 452.3954162597656 207.30641174316406 457.2354431152344 203.50796508789062 C 461.2800598144531 202.66587829589844 463.458984375 203.0878448486328 463.533447265625 202.7988739013672 C 461.777587890625 199.8059844970703 461.0039978027344 193.014404296875 463.16156005859375 183.06398010253906 C 468.1331787109375 171.39707946777344 475.1898498535156 159.57379150390625 483.37548828125 149.2219696044922 C 491.2095947265625 141.78497314453125 497.2964782714844 137.90472412109375 500.3051452636719 137.83297729492188 C 499.4087829589844 141.535400390625 494.7056884765625 148.16017150878906 487.3626403808594 156.22425842285156 C 478.7980651855469 164.237548828125 470.34912109375 170.77308654785156 463.3409118652344 174.47525024414062 C 459.0025329589844 174.4515838623047 457.4668273925781 172.74681091308594 458.2006530761719 171.90142822265625 C 460.3514404296875 174.1822052001953 461.61346435546875 180.22288513183594 460.3409118652344 189.27674865722656 C 456.8963317871094 200.3538818359375 452.5772705078125 212.44464111328125 448.5857238769531 224.61219787597656 C 445.4449157714844 236.18765258789062 442.9466552734375 246.66558837890625 440.10723876953125 255.51986694335938 C 435.7469482421875 262.2786560058594 431.3582763671875 267.2539978027344 428.32745361328125 271.4603576660156 C 426.29541015625 275.7835693359375 424.25787353515625 280.73028564453125 421.1746826171875 286.671142578125 C 416.55072021484375 293.7686767578125 410.56939697265625 301.7843933105469 403.5140686035156 310.1973876953125 C 395.70074462890625 318.3429870605469 387.5095520019531 325.4151611328125 379.4352111816406 330.6800537109375 C 371.6061096191406 334.2300720214844 363.2455749511719 336.67645263671875 353.6112060546875 338.561279296875 C 342.296630859375 340.0584716796875 330.0405578613281 341.0367431640625 317.6810302734375 341.3908386230469 C 306.0437927246094 341.0876770019531 295.68017578125 340.1340637207031 286.5523986816406 338.5522155761719 C 278.342529296875 336.2840270996094 270.54571533203125 333.0126953125 262.7945556640625 328.5548095703125 C 255.3408203125 323.3151550292969 248.47726440429688 317.7789306640625 242.35940551757812 312.15179443359375 C 237.09527587890625 306.5179138183594 231.9059295654297 300.50384521484375 226.0231170654297 293.7316589355469 C 218.43685913085938 286.13958740234375 213.24647521972656 278.3567810058594 213.2720947265625 269.7486877441406 C 216.0671844482422 260.63458251953125 222.5675506591797 253.5570526123047 226.00323486328125 246.69212341308594 C 222.8397979736328 238.62924194335938 225.00894165039062 230.88641357421875 231.49935913085938 225.43484497070312 C 237.91148376464844 223.1263885498047 243.14637756347656 224.10061645507812 247.31246948242188 227.8111114501953 C 250.77407836914062 232.83009338378906 255.77774047851562 236.0081024169922 262.5259704589844 236.4064483642578 C 269.7217712402344 235.15843200683594 275.6102294921875 232.94752502441406 278.3558654785156 229.79347229003906 C 276.0831604003906 225.51266479492188 272.4719543457031 221.26788330078125 270.8937072753906 218.24818420410156 C 273.08624267578125 216.94784545898438 276.07464599609375 217.1361083984375 276.68609619140625 218.33425903320312 C 272.0653076171875 220.0041046142578 263.4101257324219 221.7252960205078 252.5619659423828 222.76132202148438 C 241.36862182617188 222.41873168945312 231.58848571777344 220.02951049804688 224.61599731445312 214.8227996826172 C 220.84793090820312 205.97596740722656 220.9806365966797 197.36529541015625 226.82301330566406 190.82180786132812 C 234.9311065673828 185.2050323486328 240.77879333496094 178.42845153808594 245.13162231445312 170.13272094726562 C 250.93246459960938 161.00469970703125 257.0926818847656 153.28245544433594 261.4366455078125 146.7855682373047 C 265.6017150878906 140.0927276611328 272.45623779296875 133.9884490966797 280.5736389160156 127.08887481689453 C 288.9283142089844 120.9729232788086 297.3639221191406 116.00167846679688 305.31085205078125 111.19029998779297 C 313.0282287597656 107.07801818847656 321.398681640625 103.26007080078125 330.2099609375 98.6885986328125 C 337.8674011230469 91.75920867919922 346.7279357910156 90.40501403808594 355.02056884765625 88.4554672241211 C 361.97576904296875 81.06356048583984 369.9443664550781 76.74771118164062 376.3268127441406 80.20299530029297 C 377.5418701171875 86.76862335205078 375.408447265625 91.66119384765625 373.1918640136719 93.37175750732422 C 373.2995300292969 91.9749526977539 376.0325927734375 88.95718383789062 381.0091552734375 85.03887176513672 C 388.1247863769531 80.57038116455078 396.26922607421875 74.28388214111328 397.4474182128906 75.36932373046875" stroke-width="0.0" fill="rgb(170, 199, 54)" opacity="1.0" stroke="rgb(222, 40, 141)" stroke-opacity="0.73397666" stroke-linecap="round" stroke-linejoin="round"/>
    <path d="M 342.62457275390625 423.9510498046875 C 344.3850402832031 424.334716796875 346.13702392578125 424.72979736328125 347.8658752441406 425.1074523925781 C 349.5585021972656 425.4549560546875 351.212158203125 425.762451171875 352.82989501953125 425.9901123046875 C 354.41534423828125 426.1327209472656 355.9508056640625 426.1742248535156 357.4644470214844 426.111328125 C 358.9682312011719 425.9346008300781 360.4200439453125 425.6683349609375 361.7925109863281 425.3353271484375 C 363.0639953613281 424.9354248046875 364.1797180175781 424.5006408691406 365.1637268066406 424.0491027832031 C 366.0062255859375 423.61260986328125 366.6922912597656 423.2288513183594 367.2621154785156 422.9252014160156 C 367.7938537597656 422.7371826171875 368.3738708496094 422.7042541503906 369.0635986328125 422.878662109375 C 369.9120178222656 423.2889404296875 370.9363708496094 423.9111022949219 372.0921325683594 424.7126770019531 C 373.3117370605469 425.64654541015625 374.51641845703125 426.684814453125 375.5999450683594 427.8121337890625 C 376.4383239746094 429.0077209472656 376.983642578125 430.2612609863281 377.21612548828125 431.5726318359375 C 377.12396240234375 432.9739074707031 376.79193115234375 434.45623779296875 376.32684326171875 436.0345764160156 C 375.8702697753906 437.75091552734375 375.60711669921875 439.60662841796875 375.6904296875 441.6103515625 C 376.1634826660156 443.77947998046875 376.8415222167969 446.134765625 377.5130615234375 448.7292175292969 C 377.8387756347656 451.6536865234375 377.49566650390625 455.0586242675781 376.2615661621094 459.0996398925781 C 374.06524658203125 463.83502197265625 371.33074951171875 469.0340270996094 368.48779296875 474.46844482421875 C 365.8913879394531 479.9229431152344 363.6852722167969 485.1695251464844 361.77447509765625 489.98114013671875 C 359.9659423828125 494.1376647949219 357.7110290527344 497.5909729003906 354.46307373046875 500.4239196777344 C 349.9802551269531 502.79638671875 344.7737731933594 504.848388671875 339.430419921875 506.6907958984375 C 334.5774841308594 508.3395690917969 330.9768371582031 509.8773498535156 329.3520812988281 511.4012451171875 C 330.0225524902344 513.0895385742188 332.24505615234375 515.0587158203125 335.2342529296875 517.3952026367188 C 338.18133544921875 520.125 340.1473693847656 523.1366577148438 340.2225036621094 526.1942749023438 C 337.84771728515625 528.8580322265625 333.4358825683594 530.5816040039062 327.5274963378906 530.9537963867188 C 320.77685546875 529.9829711914062 313.7992858886719 527.924072265625 307.1731872558594 525.2008056640625 C 301.33154296875 522.3069458007812 296.6588134765625 519.7350463867188 293.39508056640625 517.9547119140625 C 291.6441955566406 517.346923828125 291.29425048828125 518.123779296875 291.9479064941406 520.2536010742188 C 293.01885986328125 523.6095581054688 293.8226318359375 527.8154296875 293.6231689453125 532.2761840820312 C 291.864990234375 536.3738403320312 288.4054870605469 539.5000610351562 283.66290283203125 541.1043090820312 C 278.394775390625 540.765380859375 273.3482666015625 538.5657958984375 268.9968566894531 535.0112915039062 C 265.45416259765625 530.7255249023438 262.7219543457031 526.3969116210938 260.6777648925781 522.67529296875 C 259.1825256347656 520.1181030273438 258.1280822753906 518.9025268554688 257.4490966796875 519.0381469726562 C 257.0468444824219 520.46533203125 256.8717041015625 522.7518310546875 256.7371826171875 525.6112670898438 C 256.4612121582031 528.8526000976562 255.74838256835938 532.18603515625 254.26251220703125 535.2166137695312 C 251.70887756347656 537.5435791015625 248.0677490234375 538.8128051757812 243.5299072265625 538.7142944335938 C 238.56211853027344 537.1865844726562 233.74630737304688 534.4490966796875 229.74624633789062 530.9091796875 C 227.1140899658203 527.0803833007812 226.01866149902344 523.4398803710938 226.3433380126953 520.32763671875 C 227.80311584472656 518.2670288085938 229.993408203125 517.801025390625 232.4063720703125 519.1180419921875 C 234.43508911132812 521.9713134765625 235.48472595214844 525.8924560546875 235.03546142578125 530.2413330078125 C 232.85977172851562 534.2734375 229.22463989257812 537.2241821289062 224.47549438476562 538.4219970703125 C 219.2244873046875 537.4029541015625 214.33026123046875 534.6015014648438 210.63575744628906 530.7533569335938 C 208.96383666992188 526.610107421875 208.99473571777344 522.8858032226562 210.19146728515625 520.2171630859375 C 211.93177795410156 519.0928344726562 213.59165954589844 519.6992797851562 214.5421600341797 521.7930297851562 C 214.2295684814453 524.733154296875 212.32546997070312 527.7222900390625 209.00880432128906 529.9199829101562 C 204.99534606933594 530.46435546875 201.1552276611328 528.6490478515625 198.28573608398438 524.0277709960938 C 196.895751953125 516.6940307617188 196.5746612548828 508.3508605957031 196.9400634765625 500.7052917480469 C 197.58871459960938 495.4010925292969 195.4140625 492.48193359375 191.25950622558594 490.41802978515625 C 187.43370056152344 487.39691162109375 185.22601318359375 482.6956787109375 185.19174194335938 476.9495849609375 C 187.18975830078125 470.9734802246094 190.96426391601562 465.6651611328125 196.0852508544922 461.94427490234375 C 202.04234313964844 460.6622314453125 208.0345916748047 461.30731201171875 213.558837890625 462.9790954589844 C 218.63916015625 464.7080078125 223.3756866455078 466.0274658203125 227.8626708984375 466.69049072265625 C 232.17982482910156 466.8743591308594 236.39874267578125 466.87255859375 240.56338500976562 467.12835693359375 C 244.70242309570312 467.8936462402344 248.81454467773438 468.8318786621094 252.91940307617188 469.5609436035156 C 257.10791015625 469.7538757324219 261.49041748046875 469.3774719238281 266.1990051269531 468.75677490234375 C 271.3634948730469 468.2326354980469 276.9881591796875 468.4944763183594 282.935302734375 470.10870361328125 C 288.9908447265625 473.1195373535156 294.80712890625 476.8780517578125 299.94427490234375 480.72613525390625 C 303.9230041503906 483.9603271484375 306.66424560546875 485.9676513671875 308.3392028808594 486.3742370605469 C 309.349853515625 485.0748291015625 310.10235595703125 482.1746520996094 311.0876159667969 477.91217041015625 C 312.74578857421875 472.74774169921875 315.04248046875 467.1143798828125 317.8161926269531 461.4024353027344 C 320.819580078125 455.8729248046875 323.8894348144531 450.56414794921875 326.826171875 445.45758056640625 C 329.531005859375 440.50738525390625 331.9447937011719 435.661865234375 334.1169738769531 430.8653564453125 C 336.0743103027344 426.08001708984375 337.99078369140625 421.29876708984375 342.62457275390625 423.9510498046875" stroke-width="0.0" fill="rgb(120, 68, 33)" opacity="1.0" stroke="rgb(75, 91, 249)" stroke-opacity="0.039889727" stroke-linecap="round" stroke-linejoin="round"/>
    <path d="M 478.05926513671875 382.96728515625 C 477.5756530761719 386.03033447265625 477.1258544921875 388.6850280761719 476.7506103515625 390.5571594238281 C 476.48291015625 391.4276123046875 476.3778076171875 391.4938049316406 476.3665466308594 391.12957763671875 C 476.4732360839844 390.6963195800781 476.5962219238281 390.5149841308594 476.7361755371094 390.8513488769531 C 476.851318359375 391.837646484375 476.8856201171875 393.34088134765625 476.82080078125 395.0948181152344 C 476.650390625 396.8113708496094 476.4174499511719 398.2279052734375 476.1568603515625 399.1473693847656 C 475.9168701171875 399.5816955566406 475.7660827636719 399.8030090332031 475.72222900390625 400.2094421386719 C 475.77813720703125 401.08819580078125 475.880859375 402.56072998046875 476.0430908203125 404.5240173339844 C 476.2008972167969 406.7667541503906 476.3382568359375 409.1035461425781 476.478515625 411.4515075683594 C 476.62548828125 413.7553405761719 476.7676696777344 415.9599914550781 476.876220703125 418.057861328125 C 476.9722900390625 419.892578125 477.0669860839844 421.2024230957031 477.2409362792969 421.7474365234375 C 477.5297546386719 421.3212890625 477.87554931640625 419.80706787109375 478.22686767578125 417.325439453125 C 478.4066162109375 414.53802490234375 478.36297607421875 412.130126953125 478.0075988769531 410.66326904296875 C 477.4229431152344 410.5453796386719 476.8194885253906 411.582275390625 476.42169189453125 413.5700378417969 C 476.4356994628906 416.24652099609375 476.98980712890625 419.28314208984375 478.16668701171875 422.3597717285156 C 479.9883728027344 425.25299072265625 482.3782958984375 427.8525695800781 485.18499755859375 430.1980895996094 C 488.25299072265625 432.3777160644531 491.46807861328125 434.62969970703125 494.6372985839844 437.18145751953125 C 497.72637939453125 440.181396484375 500.67694091796875 443.6813659667969 503.5935363769531 447.45196533203125 C 506.4290466308594 451.3603210449219 509.042724609375 455.3844909667969 511.278076171875 459.4703369140625 C 512.9892578125 463.6106262207031 514.2342529296875 467.7780456542969 515.1159057617188 471.9214782714844 C 515.7908935546875 475.9949645996094 516.9854125976562 479.8581848144531 519.0635986328125 483.3276672363281 C 521.900634765625 486.2950134277344 525.2646484375 488.9054260253906 528.8493041992188 491.3517150878906 C 532.3328857421875 493.85443115234375 535.365966796875 496.71453857421875 537.4710083007812 500.20599365234375 C 537.9935913085938 504.64630126953125 537.3470458984375 509.7392272949219 535.8204345703125 515.2366333007812 C 533.708251953125 520.8516845703125 531.3321533203125 526.304443359375 528.9544067382812 531.3010864257812 C 526.5745849609375 535.6121215820312 523.8433227539062 539.2608642578125 520.39794921875 542.24951171875 C 515.6859130859375 544.7024536132812 509.4686584472656 546.40380859375 502.08917236328125 547.2159423828125 C 494.34002685546875 547.0861206054688 487.1256408691406 545.9783325195312 481.45361328125 543.9703979492188 C 477.9610595703125 541.4386596679688 476.3294372558594 538.9063720703125 475.92425537109375 536.8881225585938 C 476.0506286621094 535.4788208007812 476.20672607421875 534.7120971679688 475.9285583496094 534.5828247070312 C 474.8355712890625 534.98095703125 472.6923522949219 535.57373046875 469.432373046875 535.9183959960938 C 465.12469482421875 535.4957275390625 460.2070617675781 533.9706420898438 455.185302734375 531.0645141601562 C 450.5325622558594 526.647216796875 446.69989013671875 521.3276977539062 443.9486389160156 515.7318115234375 C 442.354736328125 510.54266357421875 441.7525634765625 506.3987121582031 441.786865234375 503.8665466308594 C 442.0299072265625 503.3548583984375 441.8902587890625 504.4393310546875 440.83111572265625 506.55255126953125 C 438.4179992675781 509.0775146484375 435.0352783203125 511.4483642578125 431.0909729003906 513.0559692382812 C 426.9765319824219 513.4022827148438 423.0633239746094 512.0181274414062 419.72296142578125 508.5090026855469 C 417.24908447265625 502.7747802734375 415.6455078125 495.8476867675781 415.0540771484375 488.8290100097656 C 415.6615905761719 482.6159973144531 417.6087951660156 477.9325256347656 421.0008850097656 475.3918762207031 C 425.9324035644531 474.9588928222656 431.9161682128906 475.04571533203125 438.2603454589844 474.5982666015625 C 444.2975769042969 473.2842102050781 449.3099060058594 471.8292541503906 452.7222595214844 470.99444580078125 C 454.25665283203125 471.4587707519531 454.598876953125 472.84893798828125 454.45684814453125 474.6750793457031 C 454.521484375 476.5129089355469 454.8838806152344 477.9947509765625 455.3253173828125 478.7963562011719 C 455.3257751464844 478.6600646972656 454.3129577636719 477.69921875 451.73187255859375 476.564453125 C 447.37548828125 475.56292724609375 441.5355529785156 474.6410217285156 434.55877685546875 473.8753662109375 C 427.0414123535156 473.6017150878906 419.7971496582031 474.3815002441406 413.5810241699219 475.51959228515625 C 409.03167724609375 475.73089599609375 406.2002258300781 473.95184326171875 404.58282470703125 469.7538146972656 C 403.29840087890625 463.0619201660156 402.34722900390625 454.7995910644531 401.96868896484375 446.13153076171875 C 402.4307861328125 438.2119140625 404.0350036621094 431.9808044433594 406.7962341308594 427.8717041015625 C 410.5315246582031 425.51165771484375 414.84649658203125 424.32635498046875 419.3224792480469 423.663330078125 C 423.6705627441406 423.0194396972656 427.7596130371094 422.1024475097656 431.4985656738281 420.55908203125 C 434.867919921875 418.1781921386719 438.0820617675781 415.5598449707031 441.2643737792969 413.0657043457031 C 444.3929443359375 410.9201354980469 447.4188232421875 409.23529052734375 450.2685546875 408.1516418457031 C 452.82940673828125 407.7561340332031 454.9345703125 408.23492431640625 456.470458984375 409.8118591308594 C 457.3028259277344 412.6229553222656 457.08416748046875 415.90234375 454.5676574707031 418.5074768066406 C 448.8993225097656 420.34906005859375 441.9363098144531 421.3109130859375 434.9077453613281 421.051025390625 C 428.8528747558594 419.2814636230469 424.64215087890625 416.14703369140625 422.88275146484375 411.9589538574219 C 423.65203857421875 407.0390930175781 426.43243408203125 401.73272705078125 430.5990295410156 396.4723815917969 C 435.5581970214844 391.58477783203125 440.7611083984375 387.2402038574219 445.7427062988281 383.5410461425781 C 450.2016296386719 380.517333984375 453.99261474609375 378.1275634765625 457.08221435546875 376.2405700683594 C 459.7270812988281 374.6089782714844 462.2137451171875 373.11651611328125 478.05926513671875 382.96728515625" stroke-width="0.0" fill="rgb(170, 199, 54)" opacity="1.0" stroke="rgb(107, 212, 26)" stroke-opacity="0.16525312" stroke-linecap="round" stroke-linejoin="round"/>
    <path d="M 505.19482421875 133.58535766601562 C 504.8789978027344 135.2234344482422 504.4508361816406 136.79188537597656 503.8400573730469 138.2921142578125 C 502.97869873046875 139.8566131591797 502.08233642578125 141.39642333984375 501.16864013671875 142.76129150390625 C 500.3041076660156 143.9514923095703 499.541748046875 145.06561279296875 498.8633117675781 146.01419067382812 C 498.0559387207031 146.76031494140625 497.3257751464844 147.49826049804688 496.63165283203125 148.35044860839844 C 495.93243408203125 149.20921325683594 494.9715881347656 149.84762573242188 493.9444580078125 150.52882385253906 C 492.8571472167969 151.27102661132812 491.826904296875 152.0217742919922 491.01416015625 153.0664825439453 C 490.2169494628906 154.30166625976562 489.2464599609375 155.44894409179688 488.08746337890625 156.82913208007812 C 486.6912536621094 158.32955932617188 484.9878234863281 159.76901245117188 483.337646484375 161.37860107421875 C 481.8041076660156 163.0071563720703 480.43487548828125 164.53736877441406 479.2624816894531 165.894775390625 C 478.2723083496094 167.00172424316406 477.5062561035156 167.77249145507812 476.9442138671875 168.1681671142578 C 476.4599609375 168.21299743652344 476.1102600097656 168.15582275390625 475.8682861328125 168.25772094726562 C 475.5744323730469 168.76202392578125 474.9853820800781 169.86819458007812 473.8996887207031 171.6297149658203 C 472.3913269042969 174.0918731689453 470.6210632324219 177.21954345703125 468.9098205566406 180.8324432373047 C 467.59991455078125 184.58856201171875 467.2325134277344 188.2398681640625 468.44091796875 191.2262725830078 C 471.7422180175781 193.08114624023438 475.60125732421875 194.1459503173828 478.9022216796875 195.27423095703125 C 480.4587707519531 197.69000244140625 479.70672607421875 201.07066345214844 476.86016845703125 204.7491455078125 C 472.116943359375 208.42222595214844 466.3804931640625 212.03392028808594 460.8443298339844 215.55911254882812 C 456.5506591796875 218.90496826171875 454.4162902832031 221.92315673828125 454.87744140625 224.3119659423828 C 457.8098449707031 225.7801513671875 462.0852355957031 226.5026397705078 466.578369140625 226.92147827148438 C 469.9976501464844 227.46176147460938 471.19256591796875 228.3910369873047 469.3008117675781 229.42979431152344 C 464.7547302246094 230.47430419921875 458.6852722167969 231.65855407714844 452.38592529296875 232.93014526367188 C 447.2472229003906 234.56900024414062 444.4203796386719 236.88482666015625 444.5356750488281 240.107666015625 C 447.4203186035156 243.0897979736328 451.5964050292969 246.29055786132812 454.9563903808594 250.301025390625 C 456.5374755859375 255.3562469482422 456.2354431152344 261.2876281738281 454.45037841796875 267.8114013671875 C 451.86004638671875 274.5357360839844 448.6480712890625 281.2176818847656 444.93865966796875 287.73236083984375 C 440.9660949707031 293.98876953125 436.7517395019531 299.8792419433594 432.1805725097656 305.33660888671875 C 427.0793762207031 310.2995300292969 421.4376220703125 314.7917785644531 415.46551513671875 318.9005126953125 C 409.3926086425781 322.7088623046875 403.5025939941406 326.27191162109375 397.951904296875 329.6336975097656 C 392.9083557128906 332.83038330078125 388.4979248046875 335.8868103027344 384.6682434082031 338.79400634765625 C 381.2633361816406 341.52191162109375 377.9756774902344 344.0274353027344 374.44085693359375 346.2557678222656 C 370.30828857421875 348.1263427734375 365.44873046875 349.7586364746094 359.9028015136719 351.2840270996094 C 353.8199462890625 352.8186340332031 347.3487243652344 354.4087219238281 340.63214111328125 355.9665222167969 C 333.82318115234375 357.2923583984375 327.03692626953125 358.2083435058594 320.36669921875 358.46173095703125 C 313.7989807128906 357.8135070800781 307.2958984375 356.3619689941406 300.806640625 354.2551574707031 C 294.28240966796875 351.6898193359375 287.8914489746094 348.6947326660156 281.8037414550781 345.2571716308594 C 276.2290954589844 341.42303466796875 271.4217834472656 337.2010498046875 267.66412353515625 332.54534912109375 C 265.236083984375 327.71563720703125 264.28680419921875 323.4278259277344 264.94403076171875 320.47625732421875 C 267.2981872558594 319.36297607421875 271.1507263183594 319.9150390625 276.1759948730469 321.8205871582031 C 282.01165771484375 324.4100341796875 288.2715759277344 327.1799011230469 294.55322265625 329.49609375 C 300.48187255859375 331.2208251953125 305.80474853515625 332.2789001464844 310.4800720214844 332.81097412109375 C 314.6602478027344 333.0446472167969 318.61639404296875 333.1254577636719 322.6964111328125 333.1796569824219 C 327.1908874511719 333.0917053222656 332.1483459472656 332.7884826660156 337.4568786621094 332.1231689453125 C 342.9519348144531 331.0507507324219 348.3665771484375 329.7021179199219 353.5013732910156 328.29522705078125 C 358.27178955078125 326.94146728515625 362.86260986328125 325.431640625 367.54052734375 323.511474609375 C 372.5166015625 320.8702697753906 377.7093505859375 317.50030517578125 382.9698791503906 313.4903259277344 C 388.1304626464844 308.997802734375 393.2193298339844 304.2569274902344 398.3432312011719 299.31243896484375 C 403.7076110839844 294.0965270996094 409.30926513671875 288.7936706542969 414.53863525390625 283.7703552246094 C 418.78515625 279.409912109375 420.7685546875 275.88629150390625 419.8598937988281 272.9181823730469 C 416.6825866699219 270.8938293457031 414.2466735839844 268.6675720214844 414.7001953125 265.3847351074219 C 418.1773681640625 260.88714599609375 423.5034484863281 255.59524536132812 429.3790283203125 250.01637268066406 C 434.3104553222656 244.50289916992188 437.6805114746094 239.2422637939453 439.85736083984375 234.18966674804688 C 441.4106140136719 229.32559204101562 442.6261291503906 224.39878845214844 443.5262451171875 219.16864013671875 C 444.0723876953125 213.64877319335938 444.5284423828125 208.02682495117188 445.160888671875 202.55459594726562 C 446.9170227050781 198.18006896972656 449.9432067871094 194.38075256347656 452.0870056152344 190.18875122070312 C 452.8609313964844 185.60389709472656 452.4141540527344 181.09361267089844 450.6116943359375 176.95968627929688 C 448.10125732421875 173.44271850585938 446.06292724609375 170.7623748779297 445.7847595214844 169.13925170898438 C 447.9826354980469 168.87928771972656 452.0602722167969 168.14520263671875 457.42913818359375 166.062255859375 C 463.41278076171875 162.65647888183594 469.4734191894531 158.4649200439453 475.1700134277344 154.07418823242188 C 480.4159851074219 149.93016052246094 485.3873291015625 146.0336151123047 490.1771240234375 142.26124572753906 C 494.9441223144531 138.4993896484375 499.7653503417969 134.66233825683594 505.19482421875 133.58535766601562" stroke-width="0.0" fill="rgb(103, 119, 32)" opacity="1.0" stroke="rgb(236, 14, 20)" stroke-opacity="0.18815555" stroke-linecap="round" stroke-linejoin="round"/>
    <path d="M 474.7982482910156 600.6670532226562 C 475.7793884277344 600.6284790039062 476.83355712890625 600.5001831054688 477.9962463378906 600.2386474609375 C 479.3658142089844 599.86474609375 480.95111083984375 599.5482177734375 482.7208557128906 599.4080810546875 C 484.6523742675781 599.5182495117188 486.6827697753906 599.9222412109375 488.7087707519531 600.63134765625 C 490.6217346191406 601.5289306640625 492.2406311035156 602.4474487304688 493.3827819824219 603.20458984375 C 493.91632080078125 603.647216796875 494.023681640625 603.6499633789062 493.9259338378906 603.1131591796875 C 494.01312255859375 602.1212768554688 494.7970275878906 601.3075561523438 496.76324462890625 600.989990234375 C 500.3371887207031 601.4635620117188 505.4676513671875 602.3198852539062 511.7138671875 602.8069458007812 C 518.543212890625 602.2925415039062 524.9293823242188 601.2791137695312 529.9782104492188 600.9320678710938 C 532.7999267578125 600.93798828125 533.4024047851562 601.9629516601562 532.7633666992188 603.7374877929688 C 531.6652221679688 606.0787963867188 530.3082885742188 608.6592407226562 528.96728515625 612.2424926757812 C 528.4425659179688 616.8289184570312 528.4301147460938 621.7516479492188 528.6363525390625 626.5843505859375 C 528.7991333007812 630.8614501953125 529.007080078125 634.029296875 529.5932006835938 635.756591796875 C 530.719970703125 636.0546875 531.5303344726562 636.0897827148438 531.7042846679688 636.249267578125 C 531.5406494140625 637.3171997070312 531.6104125976562 639.5283203125 531.8046264648438 642.708740234375 C 531.9220581054688 646.4966430664062 532.13330078125 650.341064453125 533.1763305664062 653.4488525390625 C 535.8742065429688 654.9447021484375 539.8172607421875 655.8502807617188 543.8082885742188 657.7947387695312 C 546.9296875 660.7230834960938 549.1640625 663.908203125 550.6617431640625 666.924072265625 C 551.708251953125 669.8021850585938 552.5894775390625 672.8049926757812 553.4979248046875 675.9964599609375 C 554.4642333984375 679.3901977539062 555.2385864257812 682.85986328125 555.6864013671875 686.1945190429688 C 555.7220458984375 689.1359252929688 555.2237548828125 691.689208984375 553.8790893554688 693.9364013671875 C 551.5797729492188 696.0469970703125 548.580322265625 697.9549560546875 545.2810668945312 699.6734008789062 C 542.3944702148438 701.474365234375 540.1107788085938 703.6476440429688 537.6438598632812 705.9024658203125 C 534.2162475585938 708.1834106445312 529.9053955078125 710.3390502929688 525.3859252929688 712.3701782226562 C 521.53466796875 713.9503784179688 518.7073364257812 714.1239013671875 517.1116943359375 712.96240234375 C 516.625 711.4741821289062 516.85986328125 710.2486572265625 517.4402465820312 709.398193359375 C 518.0806884765625 708.8399047851562 518.5792236328125 708.4044189453125 518.7442016601562 707.9346923828125 C 518.4718017578125 707.3189697265625 517.7631225585938 706.4883422851562 516.7410888671875 705.3660278320312 C 515.541015625 703.884765625 514.3742065429688 702.0081176757812 513.372802734375 699.7305297851562 C 512.656005859375 697.07861328125 512.1527099609375 694.3358154296875 511.625244140625 691.8548583984375 C 510.80731201171875 689.9716796875 509.4483642578125 688.8486938476562 507.3235778808594 688.4883422851562 C 504.3941955566406 688.6590576171875 500.82342529296875 689.0307006835938 497.07843017578125 689.1477661132812 C 493.6489562988281 688.5420532226562 490.959228515625 686.7579345703125 489.0845642089844 683.6893310546875 C 487.7311096191406 679.675537109375 486.5877990722656 675.26904296875 485.3507080078125 670.9644165039062 C 483.89190673828125 667.2000732421875 482.1610107421875 664.2569580078125 480.1334533691406 662.2117919921875 C 477.93408203125 661.0465087890625 475.6870422363281 660.43505859375 473.5147399902344 660.02978515625 C 471.5390319824219 659.5181884765625 469.6934814453125 658.7323608398438 467.7415771484375 657.678466796875 C 465.41571044921875 656.5167236328125 462.75885009765625 655.1893920898438 460.4756774902344 653.1170043945312 C 459.4386901855469 649.5219116210938 459.1406555175781 644.8809814453125 459.01055908203125 640.3823852539062 C 459.0702819824219 636.7337036132812 460.5525817871094 634.9199829101562 463.3505554199219 634.5099487304688 C 466.5736999511719 634.2799682617188 469.8736267089844 634.3683471679688 472.9083557128906 634.7909545898438 C 475.58868408203125 635.4691772460938 477.9814147949219 636.2096557617188 480.25396728515625 636.7999877929688 C 482.54620361328125 637.080810546875 484.9582824707031 637.184814453125 487.5625305175781 637.274658203125 C 490.3937072753906 637.49462890625 493.44561767578125 637.8412475585938 496.6789855957031 638.2137451171875 C 500.0094299316406 638.5136108398438 503.3913269042969 638.57373046875 506.6914367675781 638.3221435546875 C 509.77850341796875 637.7062377929688 512.5565795898438 636.9533081054688 514.9515380859375 636.288330078125 C 516.919677734375 635.7955932617188 518.4417114257812 635.5518188476562 519.51318359375 635.5978393554688 C 520.0151977539062 635.866455078125 519.7994995117188 636.22412109375 518.8126831054688 636.41943359375 C 517.0925903320312 636.2612915039062 514.6624755859375 635.9150390625 511.5962829589844 635.58984375 C 507.9959716796875 635.453125 503.9864196777344 635.5780639648438 499.7329406738281 636.0451049804688 C 495.4371337890625 636.8870849609375 491.3084716796875 637.8740234375 487.44976806640625 638.7791137695312 C 484.2180480957031 639.4412231445312 481.40802001953125 639.58447265625 479.37811279296875 638.9519653320312 C 477.6481018066406 637.4873046875 476.0795593261719 635.6007080078125 474.1473388671875 634.010498046875 C 471.74920654296875 632.9033813476562 468.8887023925781 632.0498046875 465.6150207519531 631.3209838867188 C 461.95257568359375 630.609375 458.3232727050781 629.8240966796875 455.150634765625 629.0718383789062 C 452.7500305175781 628.1543579101562 450.9418640136719 626.4273071289062 449.6119689941406 623.2428588867188 C 447.8451232910156 618.96630859375 446.2790832519531 614.8189086914062 444.653564453125 612.2218627929688 C 443.6742858886719 611.2425537109375 443.7923278808594 611.1350708007812 445.0259094238281 611.0003051757812 C 447.3502197265625 610.21533203125 450.841796875 608.6555786132812 455.48870849609375 607.394287109375 C 459.90484619140625 605.4647216796875 464.0848083496094 603.7503051757812 468.0191955566406 602.5292358398438 C 471.58544921875 601.2431640625 475.0341796875 600.002685546875 474.7982482910156 600.6670532226562" stroke-width="0.0" fill="rgb(127, 101, 0)" opacity="1.0" stroke="rgb(62, 99, 185)" stroke-opacity="0.24760196" stroke-linecap="round" stroke-linejoin="round"/>
    <path d="M 439.8971252441406 653.5354614257812 C 441.5003356933594 653.5066528320312 442.81512451171875 653.56201171875 443.587646484375 653.5977783203125 C 443.8080139160156 653.5172119140625 443.6900329589844 653.2899169921875 443.6011657714844 653.1902465820312 C 443.8420104980469 653.372802734375 444.5731506347656 653.5299072265625 445.5887756347656 653.62744140625 C 446.2720031738281 653.691162109375 446.53790283203125 653.8062133789062 446.414306640625 653.824462890625 C 446.12457275390625 653.731689453125 446.6663818359375 653.6790771484375 448.5959167480469 654.0147705078125 C 451.87432861328125 653.9556884765625 455.3301696777344 654.6847534179688 457.91864013671875 655.4083251953125 C 458.81915283203125 655.3170166015625 458.5279235839844 654.8226318359375 458.43402099609375 654.6901245117188 C 458.928955078125 655.2434692382812 459.5614929199219 655.9510498046875 460.3738708496094 656.0692749023438 C 461.26995849609375 656.0228271484375 462.6221923828125 656.249755859375 464.4278869628906 656.5958862304688 C 466.4079284667969 656.703125 468.4138488769531 656.8984985351562 470.4874572753906 657.174072265625 C 472.54864501953125 657.54443359375 474.45343017578125 657.8236083984375 476.081787109375 657.780029296875 C 477.3254699707031 657.4872436523438 478.25067138671875 657.0719604492188 479.03631591796875 656.6702880859375 C 479.8607177734375 656.3956909179688 480.91253662109375 656.3304443359375 482.2803955078125 656.40673828125 C 483.9906921386719 656.5243530273438 485.8152160644531 656.6868896484375 487.3802185058594 656.9092407226562 C 488.6256103515625 657.213134765625 489.72564697265625 657.5064086914062 490.8429260253906 657.7399291992188 C 492.1197204589844 657.8722534179688 493.5635681152344 658.04248046875 494.9842224121094 658.4427490234375 C 495.916259765625 659.2147827148438 496.3816223144531 660.2161254882812 496.47186279296875 661.2224731445312 C 496.4280090332031 662.0958251953125 496.64501953125 662.8936157226562 497.433349609375 663.7659912109375 C 498.99609375 664.9156494140625 501.36981201171875 666.6346435546875 504.4283447265625 669.2423095703125 C 507.8768310546875 673.0574340820312 510.12139892578125 678.10888671875 510.3278503417969 683.769775390625 C 508.5785827636719 689.3844604492188 505.2087707519531 694.360107421875 500.6645202636719 698.1923217773438 C 495.3992614746094 700.5460815429688 489.859619140625 701.1846313476562 484.386474609375 699.9806518554688 C 479.18218994140625 697.3271484375 474.3844299316406 693.737060546875 470.0361022949219 689.8062744140625 C 465.9297180175781 686.0602416992188 461.78570556640625 682.5970458984375 457.5584716796875 679.3552856445312 C 453.5320129394531 676.3554077148438 450.1468811035156 673.7249145507812 447.75152587890625 671.703857421875 C 446.4451904296875 670.3401489257812 445.6748046875 669.5790405273438 444.9129333496094 669.333251953125 C 443.6163024902344 669.4353637695312 441.3008117675781 669.6582641601562 438.1278076171875 669.6847534179688 C 434.46197509765625 669.2828369140625 430.78814697265625 668.427490234375 427.63525390625 667.0982666015625 C 425.5653991699219 665.2708740234375 424.9366455078125 663.2623291015625 425.71820068359375 661.53857421875 C 427.7210388183594 660.4572143554688 430.63275146484375 660.4118041992188 434.2083740234375 661.2869873046875 C 438.2952880859375 662.7328491210938 442.7532653808594 664.4752807617188 447.4576721191406 666.2698974609375 C 452.28753662109375 667.9881591796875 457.111083984375 669.6289672851562 461.8120422363281 671.2606811523438 C 466.260498046875 673.06982421875 470.3815612792969 675.4465942382812 474.1012878417969 678.7359008789062 C 477.2896728515625 683.1817016601562 479.7565002441406 688.322021484375 481.32550048828125 693.7103271484375 C 481.8858947753906 698.9551391601562 481.3940124511719 703.63818359375 479.82647705078125 707.3887939453125 C 477.2497253417969 709.9203491210938 473.9029541015625 711.5642700195312 470.0343017578125 712.8228149414062 C 465.95452880859375 714.1392822265625 461.79608154296875 715.4892578125 457.641357421875 716.7492065429688 C 453.4908142089844 717.913330078125 449.4293518066406 719.1495971679688 445.5843200683594 720.3378295898438 C 442.144287109375 720.9964599609375 439.30584716796875 721.54345703125 437.23541259765625 722.4797973632812 C 436.03863525390625 724.3231201171875 435.64117431640625 727.4328002929688 435.833984375 732.09912109375 C 436.26885986328125 738.2330932617188 436.39825439453125 745.271240234375 435.9664001464844 751.4219360351562 C 434.8011779785156 754.8997192382812 432.6690673828125 756.00146484375 429.1785583496094 755.7991333007812 C 424.1175842285156 755.404052734375 417.4312744140625 755.700439453125 409.40838623046875 756.3945922851562 C 400.86956787109375 756.0147094726562 393.23004150390625 755.319580078125 387.7463684082031 754.8973388671875 C 385.2252502441406 754.7263793945312 384.53338623046875 754.5465698242188 383.4486083984375 754.1575927734375 C 380.58349609375 753.9771118164062 376.56744384765625 753.28173828125 371.96441650390625 752.5302734375 C 367.4329833984375 751.8627319335938 362.9739990234375 751.28564453125 358.5615539550781 750.5511474609375 C 354.0566711425781 749.1911010742188 349.56201171875 747.9912719726562 345.3171691894531 747.0241088867188 C 341.6247863769531 745.7011108398438 338.89959716796875 743.6600952148438 336.76953125 740.8726196289062 C 334.46075439453125 737.55078125 334.2345886230469 733.5664672851562 335.8080139160156 728.8507690429688 C 337.1452941894531 724.4942016601562 338.5201721191406 720.3810424804688 340.2542724609375 715.6455688476562 C 342.043212890625 710.0602416992188 344.88995361328125 705.1737060546875 348.6802978515625 702.2236938476562 C 352.29901123046875 699.5742797851562 355.8157043457031 696.8067016601562 359.41339111328125 693.9118041992188 C 363.17193603515625 691.1134643554688 367.00347900390625 688.3472290039062 371.02191162109375 685.3728637695312 C 375.3168640136719 682.2837524414062 379.29693603515625 679.181884765625 382.97381591796875 676.3659057617188 C 386.8814697265625 673.5197143554688 391.0257568359375 670.1180419921875 395.3596496582031 667.1303100585938 C 400.1087951660156 666.8570556640625 404.15301513671875 667.2099609375 407.0221252441406 666.9583740234375 C 408.96441650390625 664.2345581054688 412.5658874511719 661.4964599609375 417.9147644042969 659.3228759765625 C 422.9456481933594 656.7725219726562 427.7739562988281 655.5735473632812 432.19378662109375 654.5650024414062 C 436.2879333496094 653.7433471679688 440.1734619140625 653.1233520507812 439.8971252441406 653.5354614257812" stroke-width="0.0" fill="rgb(212, 170, 0)" opacity="1.0" stroke="rgb(176, 214, 55)" stroke-opacity="0.26118818" stroke-linecap="round" stroke-linejoin="round"/>
    <path d="M 218.49432373046875 302.9984130859375 C 225.0151824951172 296.9966735839844 230.76055908203125 291.9201965332031 234.8956756591797 288.90350341796875 C 237.58450317382812 288.12554931640625 239.0228729248047 288.9531555175781 239.48707580566406 290.77435302734375 C 239.3897705078125 293.074951171875 239.11224365234375 295.48956298828125 238.99246215820312 297.7576904296875 C 239.2138214111328 299.6753234863281 239.76683044433594 301.2262268066406 240.5944366455078 302.4394836425781 C 241.5508270263672 303.400634765625 242.43031311035156 304.2561340332031 243.07321166992188 305.0650634765625 C 243.35879516601562 305.8879089355469 243.35487365722656 306.7705383300781 243.15438842773438 307.69964599609375 C 242.86407470703125 308.59930419921875 242.61656188964844 309.4226989746094 242.48770141601562 310.14605712890625 C 242.4844207763672 310.7929992675781 242.58534240722656 311.4360656738281 242.70372009277344 312.1490783691406 C 242.7073516845703 313.03607177734375 242.51759338378906 314.215087890625 242.0200958251953 315.81982421875 C 241.308837890625 317.9346618652344 240.5151824951172 320.46490478515625 239.75999450683594 323.23822021484375 C 239.2099151611328 326.05029296875 238.90773010253906 328.7266845703125 238.81802368164062 331.1419372558594 C 238.89398193359375 333.2286682128906 238.98641967773438 334.9779357910156 238.94125366210938 336.53070068359375 C 238.56288146972656 338.2186279296875 237.81771850585938 340.31317138671875 236.7118377685547 343.0639953613281 C 235.22271728515625 346.52935791015625 233.5279541015625 350.2502746582031 231.85182189941406 353.7099304199219 C 230.4048309326172 356.37530517578125 229.33331298828125 357.893798828125 228.8328857421875 358.31964111328125 C 228.98654174804688 357.9432373046875 229.81417846679688 357.1461181640625 231.14324951171875 356.4681091308594 C 232.80361938476562 356.3440246582031 234.59661865234375 356.9757080078125 236.3494415283203 358.5224914550781 C 237.8947296142578 361.0641784667969 239.12741088867188 364.5171203613281 239.98751831054688 368.6307067871094 C 240.48455810546875 373.1407470703125 240.69471740722656 377.7066955566406 240.85977172851562 381.9647521972656 C 241.1307373046875 385.50115966796875 241.1925506591797 387.9442138671875 240.73861694335938 389.1992492675781 C 239.51910400390625 389.3606262207031 238.06521606445312 388.55999755859375 236.85702514648438 386.9894714355469 C 236.36497497558594 384.95074462890625 236.92686462402344 382.8630065917969 238.7806854248047 381.1368408203125 C 242.09532165527344 380.3182067871094 246.31906127929688 380.6650695800781 250.86314392089844 382.3013916015625 C 255.2207794189453 385.2653503417969 258.9678039550781 389.4136962890625 261.7386474609375 394.5311279296875 C 263.21844482421875 400.281494140625 263.4112854003906 406.24267578125 262.7039489746094 411.90203857421875 C 261.5825500488281 416.7872619628906 260.42547607421875 420.6314697265625 259.6807861328125 423.47991943359375 C 259.74810791015625 425.6776428222656 260.6799621582031 427.5165710449219 262.3547668457031 429.4125671386719 C 264.5909423828125 431.64666748046875 267.2986755371094 434.348388671875 270.352783203125 437.50067138671875 C 273.6268310546875 441.0502624511719 277.0430603027344 444.9139709472656 280.470947265625 448.96954345703125 C 283.7093811035156 453.06146240234375 286.2673645019531 457.208251953125 287.7645263671875 461.6395568847656 C 287.82958984375 466.545166015625 286.8440856933594 471.43011474609375 285.1021728515625 475.611328125 C 282.841552734375 478.331787109375 279.8127136230469 479.52935791015625 275.8081970214844 479.7530822753906 C 270.8009338378906 479.6381530761719 264.9075012207031 479.4394836425781 258.5359191894531 479.2612609863281 C 252.12025451660156 478.84393310546875 246.24874877929688 478.3656005859375 241.3693084716797 477.8888244628906 C 237.48458862304688 477.4312438964844 234.19522094726562 477.05908203125 230.92283630371094 476.70611572265625 C 226.99884033203125 476.3288879394531 222.04806518554688 475.80706787109375 216.28834533691406 475.221435546875 C 210.00404357910156 474.60369873046875 203.85438537597656 473.7183532714844 198.51905822753906 472.880126953125 C 195.30821228027344 473.07293701171875 194.61105346679688 472.1976623535156 194.92100524902344 469.82647705078125 C 193.6888885498047 467.0411071777344 190.6231689453125 464.03668212890625 187.11924743652344 460.5398254394531 C 184.608642578125 456.45196533203125 183.14431762695312 451.9374694824219 182.58517456054688 447.13177490234375 C 182.73033142089844 442.16082763671875 183.1226043701172 437.0893859863281 183.18226623535156 432.0268859863281 C 182.93392944335938 427.2447204589844 182.87127685546875 422.97528076171875 183.45069885253906 419.36578369140625 C 185.06594848632812 416.6567687988281 187.50927734375 414.85491943359375 190.5474853515625 413.8900146484375 C 193.91346740722656 413.6418762207031 197.46461486816406 413.99774169921875 201.08377075195312 414.88739013671875 C 204.6130828857422 416.2507629394531 207.96849060058594 418.030517578125 211.12229919433594 420.1474304199219 C 214.14076232910156 422.38128662109375 217.12355041503906 424.4134826660156 220.08230590820312 425.9335632324219 C 222.9890594482422 426.6365966796875 225.566650390625 426.6147766113281 227.4391632080078 426.1097717285156 C 228.2411346435547 425.4052734375 227.66831970214844 424.76409912109375 225.3844757080078 424.36041259765625 C 221.4114532470703 424.1247863769531 216.32386779785156 423.9195556640625 210.889892578125 423.2252502441406 C 205.76193237304688 421.8177795410156 201.12208557128906 419.6786804199219 196.85972595214844 417.0596618652344 C 192.7749786376953 414.2350158691406 188.99134826660156 410.9969177246094 185.92031860351562 407.07000732421875 C 184.00570678710938 402.0223388671875 183.23748779296875 396.31768798828125 183.37774658203125 390.57568359375 C 184.1727294921875 385.38555908203125 185.34185791015625 381.3275451660156 186.90261840820312 378.7774658203125 C 189.24009704589844 377.18988037109375 191.3396453857422 375.0634460449219 192.28121948242188 370.8338317871094 C 192.93734741210938 363.93804931640625 193.4182891845703 356.4488525390625 194.42449951171875 350.6160583496094 C 194.91761779785156 347.36199951171875 195.3638458251953 345.1615295410156 196.36541748046875 342.5051574707031 C 198.2466583251953 338.34710693359375 200.71763610839844 333.51507568359375 203.5001220703125 328.985595703125 C 206.449951171875 324.8288879394531 208.7969207763672 321.3468017578125 210.44717407226562 318.32672119140625 C 212.72166442871094 314.87103271484375 215.7146759033203 310.68756103515625 218.94625854492188 305.60333251953125 C 222.5941619873047 300.20556640625 226.91856384277344 295.0243835449219 218.49432373046875 302.9984130859375" stroke-width="0.0" fill="rgb(171, 199, 55)" opacity="1.0" stroke="rgb(111, 126, 38)" stroke-opacity="0.9759944" stroke-linecap="round" stroke-linejoin="round"/>
  </g>
</svg>
